<svg width="232" height="294" xmlns="http://www.w3.org/2000/svg" xmlns:xlink="http://www.w3.org/1999/xlink"><defs><use xlink:href="#a" width="224.15" height="150.3" id="d"/><use xlink:href="#b" width="102.95" height="45" id="e"/><g id="c" stroke-opacity="0" stroke-linejoin="round" stroke-linecap="round" stroke="#f0f" fill="none"><path d="M187.95-293.5v380h-380v-380h380M92.95.6H-97" transform="translate(192.55 294)"/><path d="m187.95-293.5-190 190 190 190m-380-380 190 190L-192 86.5" transform="translate(192.55 294)"/></g><g id="a"><path fill-rule="evenodd" fill="#f8ebcf" d="M59.35-19.8h-.45l.15-1.65.3 1.6v.05M21.4 15.95l-.25-.2.35-.5-.1.7M21.9-4l.05-.1h.15l-.2.1m-43.4-13.1-.7.05.55-.3.15.25" transform="translate(53 83.4)"/><path fill-rule="evenodd" fill="#e0c292" d="M-28.1 39.45v-.35l.15.05-.15.3" transform="translate(53 83.4)"/><path fill-rule="evenodd" fill="#d3bd98" d="m-29.35-62.65-.4 1.2-.9 3.1-.6-.25 1.25-3-.15-.2.4-.45.4-.4M62.4-3.45v-.05.05" transform="translate(53 83.4)"/><path fill-rule="evenodd" fill="#473932" d="M37.55-57.65Q33.85-62.4 29-66.2q-8.3-6.5-15-6.5-6.7 0-7.9 6.5-.3 1.7-.2 3.6Q-8.2-55-21.45-49.5q-12.85 5.25-9.2-8.85l.9-3.1.4-1.2 1.65-1.75q10.45-10.85 23.4-15.65 13.95-5.2 26.65 4.2 12.7 9.35 25.35 26.3-5.45-4.75-10.15-8.1m-24.3 12.5q4.15 5.85 9.9 10.35 8.25 6.5 14.95 6.5 6.7 0 7.95-6.5.75-3.9-.8-8.8l2.7.2q1.6-.65-.25-6.15l4 6.6 3.7 6q2.4 4.15 3.65 8.55-1.95 3.3-9.35 5.3-3.3.85-7.65 1.45l-26.8 1.25-17.35 3.25v-11.4l4.05-4.65-9.35-5.55-3.3-1.95 3.3 1.95-19.55 12 2.1 3.75-7.95 4.25-.35-.15-4.2-1.5-.05-3.25v-.3q0-6.2.65-12l1.35.1 13.1-1.6 11.6-3.25q12.35-3.15 23.95-4.45M6-37.9l-4.05 4.7L6-37.9M-18.2-6.45l9.9-.6 16.1.7 7.65 1 6.5 1.25-.05.1L23.85.15l-2.35 15.1-.35.5.25.2.25.1.35-.4L34.55.45v-13.3l1.5-1.05h1.55l1.5-1q6.35 3.2 10.6 3.7l4.05-.3q4.35-1.45 5.15-8.3h.45L61.5-7.95l.05.1.85 4.35v.05Q57.75 11.1 41.8 16.8q-37.85 8-2.05 9.95l11.6-.35-1.1 1.55q-5 7.1-10.65 11.85-3.55 2.95-7.3 5Q16.75 47-6.8 28.9q-15.3-11.8-24.1-16.65l-1.65-4.5q-3.4-10-4.4-21.35 5.7 9.2 8.1 8.75l9.3-1.45 1.05-.1.3-.05m80.6 3v-.05.05m-38 35.8-7.05.05-1.8-8.7 5.6-7.95-5.6 7.95 1.8 8.7 7.05-.05m7.3-39.5-.05.05-.55-.4.6.35m-13.4 44.1-.95-4.55.95 4.55M14.25 25.5l1.3-1.8-1.3 1.8" transform="translate(53 83.4)"/><path fill-rule="evenodd" fill="#f4e7b9" d="M59.65 10.8h.25v.05l-.25-.05" transform="translate(53 83.4)"/><path fill-rule="evenodd" fill="#ab8558" d="M-30.15-61.75v-.05l.15.2-.15-.15" transform="translate(53 83.4)"/><path fill-rule="evenodd" fill="#f4e071" d="m59.9 10.85-.05 1.35-.2-1.4.25.05" transform="translate(53 83.4)"/><path fill-rule="evenodd" fill="#3c2113" d="M-45.05-34.55v-.4.4" transform="translate(53 83.4)"/><path fill-rule="evenodd" fill="#23120c" d="m22 15.65-.35.4-.25-.1.1-.7.5.4m-24.1-43.7h-.45l.45-.5-.45.5.45-.75v.75M-50.2-13.6l1.8-1.25.1-.1.25.4-.05.1v.05l-.05.05-2.05.75m5.7-20.95h-.55v-.2l.45-2.35-.25 2.1.35.45" transform="translate(53 83.4)"/><path fill-rule="evenodd" fill="#e7d6af" d="m171.1-20.1-.2-.05.25-.25-.05.3" transform="translate(53 83.4)"/><path fill-rule="evenodd" fill="#87bdd1" d="m-36.75-35.95-.2-.05.2.05" transform="translate(53 83.4)"/><path fill-rule="evenodd" fill="#3a8394" d="m59.65 10.8-.25-.05v-.05l.25.1" transform="translate(53 83.4)"/><path fill-rule="evenodd" fill="#163438" d="m-48.05-14.55.05.15h-.1l.05-.15" transform="translate(53 83.4)"/><path fill-rule="evenodd" fill="#1c1813" d="M-36.95-13.6q1 11.35 4.4 21.35l1.65 4.5-2.3-1.25q-4.35-2.15-6.7-2.25-7.45-.4-10.95 10.8-1.3-13.15-.05-26.45l.7-6.7 2.05-.75-.35 1.55.4-1.6h.1l8.7-3.15 1.4 2.35.95 1.6M32.3 44.8q3.75-2.05 7.3-5 5.65-4.75 10.65-11.85l1.1-1.55 1.7-.5q4.55-1.55 9.3-4.6-.9 4.95-2.5 9.9-7.95 7.6-20.9 11.85L35 44.25l-2.7.55m15.1 4.45Q36.5 61.5 19.75 64.3q-17.05 3.15-33.3-2.85-17.15-6.2-26.9-17.6 12.25 8.45 15.6 4.3 3.35-4.2 21.85 3.4 18.45 7.55 17 2.3-.2-.75-.1-1.25.4-2.15 5.8-.5 2.65.8 6.45 2.5 10.4 4.6 21.25-5.35m-87.45-70.9q-4.7-2.6-2.7-5.1.4-1.6.3-2.7-.35-3-2.05-5.1l-.35-.45.25-2.1 3.65-8.65q.4 5.4 1.55 7.6.85 1.75 2.45 2.15l.2.05q-.65 5.8-.65 12v.3l.05 3.25-.7-.3q-1.1-.5-2-.95m-9.9 14.8.15-.6-.15.6" transform="translate(53 83.4)"/><path fill-rule="evenodd" fill="#1c1713" d="m-7.4-38.75 9.35 5.55-4.05 4.65v-.25l-.45.75-7 10.6-4.75.15-7.2.2-.15-.25-3.2-5.65 3.2 5.65-.55.3-4.1.1-6.5-1.8 7.95-4.25-2.1-3.75 19.55-12" transform="translate(53 83.4)"/><path fill-rule="evenodd" fill="#0e0c0a" d="m21.95-4.1-6.5-1.25-7.65-1-16.1-.7-9.9.6 3.9-10.85 4.75-.15 7-10.6h.45v10.9l17.35-3.25 26.8-1.25 7.65 7.45v-5.6h9.2q-.8 6.85-5.15 8.3l-4.05.3q-4.25-.5-10.6-3.7l-1.5 1h-1.55l-1.5 1.05V.45L22 15.65l-.5-.4L23.85.15 21.9-4l.2-.1h-.15M-18.5-6.4l-1.05.1-9.3 1.45q-2.4.45-8.1-8.75l-.95-1.6-1.4-2.35-8.7 3.15-.05-.15-.25-.4q4.55-3.25 8.25-6.7.9.45 2 .95l.7.3 4.2 1.5.35.15 6.5 1.8 4.1-.1 3.7 10.65m41.45 19.6-1.45 2.05 1.45-2.05M31.7-7.15l-.6-.35.55.4.05-.05" transform="translate(53 83.4)"/><path fill-rule="evenodd" fill="#e07e1f" d="M37.55-57.65q4.7 3.35 10.15 8.1 1.85 5.5.25 6.15l-2.7-.2q-1-3.25-3-6.9-2.05-3.8-4.7-7.15m-68.2-.7q-3.65 14.1 9.2 8.85Q-8.2-55 5.9-62.6q.35 5.3 4 12.1 1.55 2.8 3.35 5.35-11.6 1.3-23.95 4.45l-11.6 3.25-13.1 1.6-1.35-.1.45-3.3q1.5-10.3 5.05-19.35l.6.25m-.25 70.6q8.8 4.85 24.1 16.65Q16.75 47 32.3 44.8q-5.7 3.05-11.95 4.05l-5.8.5h-.6q-21.25 0-36.3-21.4-5.15-7.35-8.55-15.7M51.35 26.4l-11.6.35Q3.95 24.8 41.8 16.8q15.95-5.7 20.6-20.25l.45 2.85v.1h-.05l-2.25 8.05v.05l-.15.45-1 2.65v.05q-2.35 6.2-5.7 11.9l-2.35 3.75M-12.7-48.35v6.7l2 .95-2-.95v-6.7" transform="translate(53 83.4)"/><path fill-rule="evenodd" fill="#aa4f1e" d="m59.4 10.7 1-2.65.15-.45v-.05L62.8-.5h.05q1.4 11-.5 21.8-4.75 3.05-9.3 4.6l-1.7.5 2.35-3.75q3.35-5.7 5.7-11.9l.25.05-.25-.1m.5.15v-.05h-.25l.2 1.4.05-1.35m-.05 20.35-5.8 10.6-4.4 4.7-2.25 2.75Q36.55 59.2 26.15 54.6q-3.8-1.7-6.45-2.5-5.4-1.65-5.8.5-.1.5.1 1.25 1.45 5.25-17-2.3-18.5-7.6-21.85-3.4-3.35 4.15-15.6-4.3l-3.6-4.6q-5.25-9.15-6.8-19.7 3.5-11.2 10.95-10.8 2.35.1 6.7 2.25l2.3 1.25q3.4 8.35 8.55 15.7 15.05 21.4 36.3 21.4h.6l5.8-.5q6.25-1 11.95-4.05l2.7-.55 3.95-1.2Q51.9 38.8 59.85 31.2m-100.8-76.95q5.95-10.65 10.8-16l.15.15-1.25 3q-3.55 9.05-5.05 19.35l-.45 3.3-.2-.05q-1.6-.4-2.45-2.15-1.15-2.2-1.55-7.6M-27.8 39.1l-.05-.05-.05.05h.1m-.3.35.15-.3-.15-.05v.35" transform="translate(53 83.4)"/><path fill-rule="evenodd" fill="#e6a437" d="m5.9-62.6 2.8-1.5q7.5-4.15 17.2-.25 5.15 2.05 11.65 6.7 2.65 3.35 4.7 7.15 2 3.65 3 6.9-2.25-.55-6.1-2.1-12.45-.95-25.9.55-1.8-2.55-3.35-5.35-3.65-6.8-4-12.1" transform="translate(53 83.4)"/><path fill-rule="evenodd" fill="#8f755c" d="M5.9-62.6q-.1-1.9.2-3.6 1.2-6.5 7.9-6.5t15 6.5q4.85 3.8 8.55 8.55-6.5-4.65-11.65-6.7-9.7-3.9-17.2.25l-2.8 1.5m7.35 17.45q13.45-1.5 25.9-.55 3.85 1.55 6.1 2.1 1.55 4.9.8 8.8-1.25 6.5-7.95 6.5t-14.95-6.5q-5.75-4.5-9.9-10.35" transform="translate(53 83.4)"/><path stroke-width=".05" stroke-linejoin="round" stroke-linecap="round" stroke="#53472d" fill="none" d="m114.55 75.55-.05-.1m-106.55-27v.2m0 0v.2M3.2 75.95l-.15.6"/><path stroke-width="3" stroke-linejoin="round" stroke-linecap="round" stroke="#3c2113" fill="none" d="m114.5 75.45-2.15-11.85M8.5 48.85h-.55"/><path stroke-width=".05" stroke-linejoin="round" stroke-linecap="round" stroke="#ab8558" fill="none" d="m74.5 98.65 1.45-2.05m-1.45 2.05-.35.5M50.9 54.85l-.45.5m-30.6 9.15.35.15m11.3 1.65.25.5m-.4-.75.15.25"/><path stroke-width=".05" stroke-linejoin="round" stroke-linecap="round" stroke="#1d4149" fill="none" d="M12.95 61.75q-4.7-2.6-2.7-5.1.4-1.6.3-2.7-.35-3-2.05-5.1"/><path stroke-width="3" stroke-linejoin="round" stroke-linecap="round" stroke="#000" fill="none" d="M100.7 33.85Q88.05 16.9 75.35 7.55q-12.7-9.4-26.65-4.2Q35.75 8.15 25.3 19l-1.65 1.75m91.75 59.2v-.05l-.85-4.35M112.05 55q-1.25-4.4-3.65-8.55l-3.7-6-4-6.6m15.15 49.05v-.1l-.45-2.85m-.05 24.75q1.9-10.8.5-21.8m-3 31.7-5.8 10.6-4.4 4.7-2.25 2.75Q89.5 144.9 72.75 147.7q-17.05 3.15-33.3-2.85-17.15-6.2-26.9-17.6l-3.6-4.6q-5.25-9.15-6.8-19.7Q.85 89.8 2.1 76.5l.7-6.7m5.15-21.15.45-2.35 3.65-8.65Q18 27 22.85 21.65v-.05l.4-.45.4-.4m89.2 93.85q1.6-4.95 2.5-9.9"/><path stroke-width=".05" stroke-linejoin="round" stroke-linecap="round" stroke="#0e0c0a" fill="none" d="m42.3 42.7 3.3 1.95 9.35 5.55L59 45.5m15.15 53.65-5.6 7.95 1.8 8.7 7.05-.05m-7.05.05.95 4.55m-2.75-13.25-1.3 1.8M42.3 42.7l-2-.95v-6.7m10.6 19.8 4.05-4.65M20.2 64.65l7.95-4.25-2.1-3.75 19.55-12M28.15 60.4l3.2 5.65"/><path fill-rule="evenodd" fill-opacity=".482" fill="#fff5c1" d="M44.9-57.65q0 3.05-2.15 5.2-2.15 2.15-5.2 2.15-3.05 0-5.2-2.15-2.15-2.15-2.15-5.2 0-3.05 2.15-5.2Q34.5-65 37.55-65q3.05 0 5.2 2.15 2.15 2.15 2.15 5.2" transform="translate(53 83.4)"/><path fill-rule="evenodd" fill-opacity=".8" fill="#fff5c2" d="M5.55-6.2q0-1.6 1.15-2.7 1.1-1.15 2.7-1.15t2.75 1.15q1.1 1.1 1.1 2.7t-1.1 2.75Q11-2.35 9.4-2.35t-2.7-1.1Q5.55-4.6 5.55-6.2" transform="translate(53 83.4)"/><path fill-rule="evenodd" fill-opacity=".502" fill="#e9f8e7" d="M-44.35-3.5Q-42 5.65-37.3 15.2-25.45 39.45-5.75 52 2 56.9 9.2 58.9q-12.15 2.05-24.9-3.55-17.3-7.65-25.75-24.9T-44.5-3.5h.15" transform="translate(53 83.4)"/></g><path fill-rule="evenodd" fill-opacity="0" fill="#f0f" d="M0 0h102.95v45H0V0" id="b"/></defs><path fill="none" d="M-1-1h234v296H-1z"/><g transform="scale(2)"><use x="63.05" y="175.5" xlink:href="#c" width="381" transform="translate(-192.55 -294)" height="381"/><use x="64.946" y="180.779" xlink:href="#d" width="224.15" transform="translate(-62.501 -174.963) scale(.9708)" height="150.3"/><use x="-71.381" y="-71.351" xlink:href="#e" width="102.95" transform="matrix(1.8072 0 0 1.6538 83 139.3)" height="45"/></g></svg>