<svg width="400" height="409" xmlns="http://www.w3.org/2000/svg" xmlns:xlink="http://www.w3.org/1999/xlink"><defs><path fill-rule="evenodd" fill-opacity="0" fill="#f0f" d="M0 0h102.95v45H0V0" id="a"/><use xlink:href="#a" width="102.95" height="45" id="c"/><g id="b"><path stroke-opacity="0" stroke-linejoin="round" stroke-linecap="round" stroke="#f0f" fill="none" d="M187.95-293.5v380h-380v-380h380M92.95.6H-97" transform="translate(192.55 294)"/><path stroke-opacity="0" stroke-linejoin="round" stroke-linecap="round" stroke="#f0f" fill="none" d="m187.95-293.5-190 190 190 190m-380-380 190 190L-192 86.5" transform="translate(192.55 294)"/><path fill-rule="evenodd" d="M58.55-106.7q4.45-1.35 10.8.9l2 2.45q1.65 3.05 2.5 6.15l.95 4.75q.55 5.3.3 11.05 2 1.65 4.1 3.25l4.3-5.55 1.3-.3 3.5.1 5.65 8.9 2.65 12.2 4.9 11.35.05.25q5.3 10.3 4.5 25.1-1.1 2.3-6.45 5.55-8.3 6.6-19.9 9.35l-2.3-.05q-8.85-.45-16.35-4.65-2.5-1.85 0-3.7l8.75-4.45 1.55-3.2q.1-1.25-4.85-4.25l-.45-.2-.05-.1-4.55-2.55q-6.35-1.15-13.8.5l-5.05 1.3-3.05.15-.05-.5-2.4 2-3.3 5.25.15 6.9-1 2.25 1.9 6.4q.1 3.3-1.45 5.85-1.35.35-2.55 1Q28.7-2.2 26.95-.5l-3.9 8.65q-2.65 1.55-5.2 3.2l-4 1.35-5.7.9-1.3-3.6.15-.45-.5-.25-.45 1-7.05.85-1.35-1.9.45-4.85-1.2 2.55-5.55 2.6-3.15-5.2.5-1.7-1.9-3.3 1.3-7.2 6.4-5.6.7-2.1-.75-1.4L-6-18.1l-5.5.1q-13.15 0-23.85-2.3-9.7-2.2-17.25-6.2l-17.05 3.3-5.1-2.5-7.15 1.9-3.55-.9 1.1-2.35-2.35-1.3-.15-2.25 2.95-4.6.8-8.15 4.55-3.2 2.25-3.5 1.85-.35-.2-.45-.4-.95-.7-1.9-2.3-1.1q-3.65-4.75-4.1-10.35 1.1-5.15 3.05-10l.1-4.1.2-1.85.6-5.35.3-2.15 1.25-7.5.05-.15q2.6-12.9 7.55-23.2l7.15-3.25-2.45-1.6q-6.75-4.4-11.45-10.35l-.85-1.1q-2-9.5.5-16.75l1.85-4.05q5.35-3.25 11.3-3.25l4.25-2.15 3.95-3.35q4.85-4 10.5-7.05 2.8-1.55 5.9-2.9 27.1-11.55 46.75-6.9l1.6.45q9.55 3 18.25 14.45 4.3 5.6 8.4 13.3l1.9 3.7 2.4 5.05q3 7 4.7 13.9 2.4 9.85 2 19.4l1.3 1.55-.1.1h.2l2.7 8.7q3.05-2.55 6.85-5.15m-125.7-50.95.65.05.35-.6-1 .55M-1.55 1.1l.1-.3-.1.15v.15" transform="translate(192.55 294)"/><path stroke-width="5.5" stroke-linejoin="round" stroke-linecap="round" stroke="#3c2113" fill="none" d="M251.1 187.3q4.45-1.35 10.8.9l2 2.45q1.65 3.05 2.5 6.15l.95 4.75q.55 5.3.3 11.05 2 1.65 4.1 3.25l4.3-5.55 1.3-.3 3.5.1 5.65 8.9 2.65 12.2 4.9 11.35.05.25q5.3 10.3 4.5 25.1-1.1 2.3-6.45 5.55-8.3 6.6-19.9 9.35l-2.3-.05q-8.85-.45-16.35-4.65-2.5-1.85 0-3.7l8.75-4.45 1.55-3.2q.1-1.25-4.85-4.25l-.45-.2-.05-.1-4.55-2.55q-6.35-1.15-13.8.5l-5.05 1.3-3.05.15-.05-.5-2.4 2-3.3 5.25.15 6.9-1 2.25 1.9 6.4q.1 3.3-1.45 5.85-1.35.35-2.55 1-2.15 1.05-3.9 2.75l-3.9 8.65q-2.65 1.55-5.2 3.2l-4 1.35-5.7.9-1.3-3.6.15-.45-.5-.25-.45 1-7.05.85-1.35-1.9.45-4.85-1.2 2.55-5.55 2.6-3.15-5.2.5-1.7-1.9-3.3 1.3-7.2 6.4-5.6.7-2.1-.75-1.4-.45-1.15-5.5.1q-13.15 0-23.85-2.3-9.7-2.2-17.25-6.2l-17.05 3.3-5.1-2.5-7.15 1.9-3.55-.9 1.1-2.35-2.35-1.3-.15-2.25 2.95-4.6.8-8.15 4.55-3.2 2.25-3.5 1.85-.35-.2-.45-.4-.95-.7-1.9-2.3-1.1q-3.65-4.75-4.1-10.35 1.1-5.15 3.05-10l.1-4.1.2-1.85.6-5.35.3-2.15 1.25-7.5.05-.15q2.6-12.9 7.55-23.2l7.15-3.25-2.45-1.6q-6.75-4.4-11.45-10.35l-.85-1.1q-2-9.5.5-16.75l1.85-4.05q5.35-3.25 11.3-3.25l4.25-2.15 3.95-3.35q4.85-4 10.5-7.05 2.8-1.55 5.9-2.9 27.1-11.55 46.75-6.9l1.6.45q9.55 3 18.25 14.45 4.3 5.6 8.4 13.3l1.9 3.7 2.4 5.05q3 7 4.7 13.9 2.4 9.85 2 19.4l1.3 1.55-.1.1h.2l2.7 8.7q3.05-2.55 6.85-5.15M191 295.1v-.15l.1-.15-.1.3m-65.6-158.75 1-.55-.35.6-.65-.05"/><path fill-rule="evenodd" fill="#9a6f3a" d="M71.35-103.35q1.65 3.05 2.5 6.15l.95 4.75q.55 5.3.3 11.05l-.35 4.1q-2.55.65-14.6-1l-4.45-1.95-6.8-3q-2.5-1.15-5.05-2.25 4-7.45 12.55-14.75t14.95-3.1" transform="translate(192.55 294)"/><path fill-rule="evenodd" fill="#ac8d46" d="M44.6-94.2q4.75-6.25 13.95-12.5 4.45-1.35 10.8.9l2 2.45q-6.4-4.2-14.95 3.1-8.55 7.3-12.55 14.75-2.5-3.65-1.1-7.3l1.85-1.4" transform="translate(192.55 294)"/><path fill-rule="evenodd" fill="#946334" d="M75.1-81.4q2 1.65 4.1 3.25l-.8 6.45.8 2.9q-4.55-2.5-10.15 2.55-6.95 7.65-6.45 13.9 6.85 4.05 12.15 16.4l-.15 1.75-.15.7-1.35 2.75-1.75 3.5q.1-1.25-4.85-4.25l-.45-.2-.05-.1-4.55-2.55q-6.35-1.15-13.8.5l-5.05 1.3-3.05.15-.5-4.95q-1.75 2.95-4.85 5.2V-88.3l5.1 1.5 4.5 1.5 5.1 2.05 6.8 3 4.45 1.95q12.05 1.65 14.6 1l.35-4.1M39.6-39.8l-1.4-6.8-.6-3.25.6 3.25 2.8-5q.4-5.85-1.7-11.25l-.2-.6-.35-.8-.55-.55.55.55.35.8.2.6q2.1 5.4 1.7 11.25l-2.8 5 1.4 6.8q2.85-1.6 7.45-2.75 2.2 3.45 1.2 6.6l-.6 2.1.6-2.1q1-3.15-1.2-6.6-4.6 1.15-7.45 2.75l-.55 2.45.55-2.45m27.75 2.05q-.95-.7-2.25-1.4-7.2-4.05-14.6-4.3l-3.45.9 3.45-.9q7.4.25 14.6 4.3 1.3.7 2.25 1.4l.75.5q4.85 3.2 5 6.5-.15-3.3-5-6.5l-.75-.5q-1.65 1-2.05 3.2-.4 2.1.7 2.75-1.1-.65-.7-2.75.4-2.2 2.05-3.2" transform="translate(192.55 294)"/><path fill-rule="evenodd" fill="#630a0a" d="M34.2-88.3v-10q2.65 1.2 5.1 3.1l1.95 1.6 3.35-.6-1.85 1.4q-1.4 3.65 1.1 7.3l-.05.2-4.5-1.5-5.1-1.5" transform="translate(192.55 294)"/><path fill-rule="evenodd" fill="#43582c" d="M43.85-85.5q2.55 1.1 5.05 2.25l-5.1-2.05.05-.2" transform="translate(192.55 294)"/><path fill-rule="evenodd" fill="#75a44f" d="m101.5-51.45.05.25-.05-.05v-.2" transform="translate(192.55 294)"/><path fill-rule="evenodd" fill="#c8ac80" d="m79.2-78.15 4.3-5.55 1.3-.3 2.7 8.45.55 19.6-7.7-8.7-1.15-4.15-.8-2.9.8-6.45M96.6-62.8l4.9 11.35v.2l.05.05q5.3 10.3 4.5 25.1-1.1 2.3-6.45 5.55-8.3 6.6-19.9 9.35l-.15-.7q12.1-3.8 19.95-22.6 2.75-6.55 2.4-11.5-1.2-4.9-4.7-9.85l-1.7-1.5h1.65l-.55-5.45" transform="translate(192.55 294)"/><path fill-rule="evenodd" fill="#f8ebcf" d="m84.8-84 3.5.1 5.65 8.9 2.65 12.2.55 5.45H95.5q-2.9.15-7.45 1.4l-.55-19.6L84.8-84" transform="translate(192.55 294)"/><path fill-rule="evenodd" fill="#e8d7b7" d="M77.4-11.25q-8.85-.45-16.35-4.65-2.5-1.85 0-3.7l8.75-4.45 1.55-3.2 1.75-3.5 1.35-2.75.15-.7.15-1.75q-5.3-12.35-12.15-16.4-.5-6.25 6.45-13.9 5.6-5.05 10.15-2.55l1.15 4.15 7.7 8.7q4.55-1.25 7.45-1.4l1.7 1.5q3.5 4.95 4.7 9.85.35 4.95-2.4 11.5-7.85 18.8-19.95 22.6l-2.15.65" transform="translate(192.55 294)"/><path fill-rule="evenodd" fill="#497430" d="m79.7-11.2-2.3-.05 2.15-.65.15.7" transform="translate(192.55 294)"/><path stroke-opacity=".38" stroke-linejoin="round" stroke-linecap="round" stroke="#000" fill="none" d="M71.35-103.35q1.65 3.05 2.5 6.15l.95 4.75q.55 5.3.3 11.05 2 1.65 4.1 3.25l4.3-5.55 1.3-.3 3.5.1 5.65 8.9 2.65 12.2 4.9 11.35.05.25q5.3 10.3 4.5 25.1-1.1 2.3-6.45 5.55-8.3 6.6-19.9 9.35l-2.3-.05q-8.85-.45-16.35-4.65-2.5-1.85 0-3.7l8.75-4.45 1.55-3.2q.1-1.25-4.85-4.25l-.45-.2-.05-.1-4.55-2.55q-6.35-1.15-13.8.5l-5.05 1.3-3.05.15-.5-4.95q-1.75 2.95-4.85 5.2m0-66.15q2.65 1.2 5.1 3.1l1.95 1.6 3.35-.6q4.75-6.25 13.95-12.5 4.45-1.35 10.8.9l2 2.45M43.85-85.5q2.55 1.1 5.05 2.25l6.8 3 4.45 1.95q12.05 1.65 14.6 1l.35-4.1M44.6-94.2l-1.85 1.4q-1.4 3.65 1.1 7.3M37.6-49.85l.6 3.25 2.8-5q.4-5.85-1.7-11.25l-.2-.6-.35-.8-.55-.55m9.45 30.95.6-2.1q1-3.15-1.2-6.6-4.6 1.15-7.45 2.75l-.55 2.45m-.85-9.25 1.4 6.8m57-23 .55 5.45H95.5M79.2-68.8l1.15 4.15 7.7 8.7q4.55-1.25 7.45-1.4M79.2-68.8l-.8-2.9.8-6.45m-6.1 47.4q-.15-3.3-5-6.5l-.75-.5q-1.65 1-2.05 3.2-.4 2.1.7 2.75M47.05-42.55l3.45-.9q7.4.25 14.6 4.3 1.3.7 2.25 1.4m5.75 7 1.35-2.75.15-.7m-1.5 3.45-1.75 3.5" transform="translate(192.55 294)"/><path fill-rule="evenodd" fill="#946334" d="m-70.45-51.2-7.6-3.6q-3.65-4.75-4.1-10.35 2.6-12.2 10.05-22.6 4.1-3.85 8.4-5-4.95 6.85-8.15 15.7-1.55 4.25-1.85 8.75-.45 8.1 3.25 17.1m22.2-.9 12.15 22.4-33.55 6.5-5.1-2.5 1.95-.5 2.65 1.6 2.35-4.15-3.55-10.35-2.95.35-.4-4.5-1.6.9-4.65 2.65-2.95 4.5.8-8.15 4.55-3.2 1.85-1.25-.85-.3 1.25-1.95 5.85-1.1q4.2.8 7.75 2.4 2.75 2.2 6.2 3.85l1.85 1.8q5.65 6.05 6.4-9m-28.05 9.75-.4-5.45.4 5.45" transform="translate(192.55 294)"/><path fill-rule="evenodd" fill="#e8d7b7" d="M-63.7-92.75q2.55-3.55 5.6-6.5l4.45 55.6-2.85-1.25q-2.7-2.3-6.2-3.85-8.9-7.1-11-19.55.3-4.5 1.85-8.75 3.2-8.85 8.15-15.7" transform="translate(192.55 294)"/><path fill-rule="evenodd" fill="#497430" d="m-78.55-46.55 1-1.55.85.3-1.85 1.25" transform="translate(192.55 294)"/><path fill-rule="evenodd" fill="#d0b792" d="m-53.65-43.65 5.4-8.45q-.75 15.05-6.4 9l-1.85-1.8 2.85 1.25m-16.8-7.5v-.05q-3.7-9-3.25-17.1 2.1 12.45 11 19.55-3.55-1.6-7.75-2.4" transform="translate(192.55 294)"/><path fill-rule="evenodd" fill="#9a6f3a" d="m-74.75-25.7-7.15 1.9-3.55-.9 1.1-2.35-2.35-1.3-.15-2.25 2.95-4.6 2.95-4.5 4.65-2.65 1.6-.9.4 4.5 2.95-.35 3.55 10.35-2.35 4.15-2.65-1.6-1.95.5m.45-13.05-7.1 5.15-2.95 6.55 2.95-6.55 7.1-5.15" transform="translate(192.55 294)"/><path fill-rule="evenodd" fill="#a20d0d" d="M-56.5-44.9q-3.45-1.65-6.2-3.85 3.5 1.55 6.2 3.85" transform="translate(192.55 294)"/><path stroke-opacity=".38" stroke-linejoin="round" stroke-linecap="round" stroke="#000" fill="none" d="m-70.45-51.2-7.6-3.6q-3.65-4.75-4.1-10.35 2.6-12.2 10.05-22.6 4.1-3.85 8.4-5 2.55-3.55 5.6-6.5m22 69.55-33.55 6.5-5.1-2.5-7.15 1.9-3.55-.9 1.1-2.35-2.35-1.3-.15-2.25 2.95-4.6.8-8.15 4.55-3.2 1-1.55 1.25-1.95 5.85-1.1v-.05q-3.7-9-3.25-17.1.3-4.5 1.85-8.75 3.2-8.85 8.15-15.7m-13 44.95-1.85 1.25m1.85-1.25.4 5.45 1.6-.9.4 4.5 2.95-.35 3.55 10.35-2.35 4.15-2.65-1.6-1.95.5m-9.6-1.35 2.95-6.55 7.1-5.15m-9.6 3.55 2.95-4.5 4.65-2.65m19.8-2.55q-3.45-1.65-6.2-3.85-3.55-1.6-7.75-2.4m22.2-.95q-.75 15.05-6.4 9l-1.85-1.8q-2.7-2.3-6.2-3.85-8.9-7.1-11-19.55m17.2 23.4 2.85 1.25" transform="translate(192.55 294)"/><path fill-rule="evenodd" fill="#f8ebcf" d="M49-110.25q3.7 10.15 5.2 21.65l.4 4.35.35 8.4q-.2-5.95-.95-12.45l-1.1-6.9q-1.45-7.95-4.1-15.05h.2" transform="translate(192.55 294)"/><path fill-rule="evenodd" fill="#c99d0c" d="M54.95-75.85 54.4-64 53-56.7q-1.15 4.9-2.95 9.2Q47.55-42 44-37.35 31.15-22.6 5.65-18.8l-.1-.25L-11.5-18q-13.15 0-23.85-2.3-20.1-4.5-31-16.95 17 14.45 45.95 8.7 12.7-2.9 24.5-6.6.1 5.5.85 11.35l.15 2q32.95-1.8 43.45-26.4l.95-2.65-3.1-12.7q-5.45-3.7-11.2-3.1-2.3.1-4.6.95L28-64.3l-.2-.4v-5.4L29-82.25q.7-12.6-2.4-19.35l8.85-12.6 13.35 3.95q2.65 7.1 4.1 15.05l1.1 6.9q.75 6.5.95 12.45" transform="translate(192.55 294)"/><path fill-rule="evenodd" d="m-69.05-119.45 20.05-9.1 12.2-12.95 35.35 7.65 19.55 8.2 14.55-4 16.25 19.3-.1.1-13.35-3.95-8.85 12.6-20.3 9.7-17.05-1.1-18.5-6.75-10.65 4-.75.4-.7.4.05.05-24.15-9.35-.9-.35-.9-5.1-1.8-9.75m95.25 60h.25l-.3.45.05-.45" transform="translate(192.55 294)"/><path fill-rule="evenodd" fill="#f0af1a" d="m-29.25-99.75 18.5 6.75L6.3-91.9l-9.2 11.45L-13.25-77l-9.4-6.05.1-10.85-6.7-5.85" transform="translate(192.55 294)"/><path fill-rule="evenodd" fill="#f3e43a" d="M-76.6-96.25q2.6-12.9 7.55-23.2l1.8 9.75q-3.5 6-5.35 13.9l-4-.3v-.15m103.2-5.35q3.1 6.75 2.4 19.35L27.8-70.1v5.4Q9.2-62.95-.6-44.25q-25.85 5.4-40.7-20.05-4.85-8.9-9.55-14.55-9.1-12.75-18.55-16.1 1.1-5 3.95-9.3l24.15 9.35.65-.45.75-.4 10.65-4 6.7 5.85-.1 10.85 9.4 6.05 10.35-3.45L6.3-91.9l20.3-9.7m-83.95 10.75h5.45l10.6-4.05-10.6 4.05h-5.45" transform="translate(192.55 294)"/><path fill-rule="evenodd" fill="#473932" d="m-76.65-96.1.05-.15v.15h-.05m36 .75-.65.45-.05-.05.7-.4" transform="translate(192.55 294)"/><path fill-rule="evenodd" fill="#79500b" d="m28-64.3 2.6-1.4q2.3-.85 4.6-.95 5.75-.6 11.2 3.1l3.1 12.7-.95 2.65Q38.05-23.6 5.1-21.8l-.15-2q-.75-5.85-.85-11.35-.15-2.3-.15-4.55v-2.85q5-4.05 8.7-7.8 2.95-3.05 5.1-5.85 3.5-.5 6.15-1.55-2.65 1.05-6.15 1.55-2.15 2.8-5.1 5.85-8.05 4.5-13.25 6.1 9.8-18.7 28.4-20.45l.15.4H28m-1.55 4.85h-.25q-.25-.3-2.25.5l2.05-.4-2.1 1.6 2.25-1.2.4-.25v-.3l-.1.05m-2.5.5 1.7-1.75q.45-.5-.4-1.35-2.2 1.85-1.3 3.1m4-5.35-2.7 2.25 2.7-2.25" transform="translate(192.55 294)"/><path fill-rule="evenodd" fill="#7aadb4" d="m27.8-64.7.2.4h-.05l-.15-.4" transform="translate(192.55 294)"/><path fill-rule="evenodd" fill="#e07e1f" d="m-74.65-50.85-.4-.95Q-79.8-63.9-79-79.25l.2-1.85.6-5.35.3-2.15 1.25-7.5h.05l4 .3q-1.1 4.75-1.65 10.25-.55 5.85-.45 11.05v.05l.05 1.6.2-1.65q2.25-14.8 5.05-20.45 9.45 3.35 18.55 16.1 4.7 5.65 9.55 14.55Q-26.45-38.85-.6-44.25q-1.6 3.85-2.1 7.65-13.15 4.45-24.85 4.45-27.4 0-46.75-18.85l-.35.15m101.1-8.6.1-.05v.3l-.4.25-2.25 1.2 2.1-1.6.15-.1h.05l-.05.45.3-.45h.1-.1" transform="translate(192.55 294)"/><path fill-rule="evenodd" fill="#1c1813" d="M26.2-59.45h-.05l-.15.1-2.05.4q-.9-1.25 1.3-3.1.85.85.4 1.35l-1.7 1.75q2-.8 2.25-.5" transform="translate(192.55 294)"/><path fill-rule="evenodd" fill="#aa4f1e" d="m-66.35-37.25-1.05-1.35q-4.5-5.65-7.25-12.25l.35-.15q19.35 18.85 46.75 18.85 11.7 0 24.85-4.45.5-3.8 2.1-7.65 5.2-1.6 13.25-6.1-3.7 3.75-8.7 7.8v2.85q0 2.25.15 4.55-11.8 3.7-24.5 6.6-28.95 5.75-45.95-8.7" transform="translate(192.55 294)"/><path fill-rule="evenodd" fill-opacity=".302" fill="#63562e" d="m5.65-18.8-.8.2.7-.45.1.25" transform="translate(192.55 294)"/><path fill-rule="evenodd" fill="#fff" d="M-65.45-104.25q-2.85 4.3-3.95 9.3l-3.2-.85q1.85-7.9 5.35-13.9l.9 5.1.9.35" transform="translate(192.55 294)"/><path fill-rule="evenodd" fill="#e6a437" d="m-72.6-95.8 3.2.85q-2.8 5.65-5.05 20.45h-.25q-.1-5.2.45-11.05.55-5.5 1.65-10.25" transform="translate(192.55 294)"/><path fill-rule="evenodd" fill="#ccf4f4" d="M-74.7-74.45v-.05h.25l-.25.05" transform="translate(192.55 294)"/><path fill-rule="evenodd" fill="#f4e071" d="m-74.45-74.5-.2 1.65-.05-1.6.25-.05" transform="translate(192.55 294)"/><path stroke-width=".05" stroke-linejoin="round" stroke-linecap="round" stroke="#53472d" fill="none" d="M241.55 183.75q3.7 10.15 5.2 21.65l.4 4.35.35 8.4-.55 11.85-1.4 7.3q-1.15 4.9-2.95 9.2-2.5 5.5-6.05 10.15-12.85 14.75-38.35 18.55l-.8.2.7-.45-17.05 1.05q-13.15 0-23.85-2.3-20.1-4.5-31-16.95l-1.05-1.35q-4.5-5.65-7.25-12.25l-.4-.95q-4.75-12.1-3.95-27.45l.2-1.85.6-5.35.3-2.15 1.25-7.5.05-.15q2.6-12.9 7.55-23.2m101.7-10.2 16.25 19.3.1.1h-.2q2.65 7.1 4.1 15.05l1.1 6.9q.75 6.5.95 12.45m-6.15-34.4L228 179.8l-8.85 12.6m-20.3 9.7 20.3-9.7m-55.85 1.85-10.65 4-.75.4-.7.4.05.05-24.15-9.35-.9-.35-.9-5.1-1.8-9.75m74.6 100.4.1.25"/><path stroke-opacity=".38" stroke-linejoin="round" stroke-linecap="round" stroke="#000" fill="none" d="m-29.25-99.75 18.5 6.75L6.3-91.9l-9.2 11.45L-13.25-77l-9.4-6.05.1-10.85-6.7-5.85M-41.3-94.9l-10.6 4.05h-5.45" transform="translate(192.55 294)"/><path stroke-width=".05" stroke-linejoin="round" stroke-linecap="round" stroke="#33291c" fill="none" d="m123.5 174.55 20.05-9.1 12.2-12.95 35.35 7.65 19.55 8.2 14.55-4"/><path stroke-width=".05" stroke-linejoin="round" stroke-linecap="round" stroke="#1c1813" fill="none" d="m151.9 198.65-.65.45"/><path stroke-width=".05" stroke-linejoin="round" stroke-linecap="round" stroke="#483a24" fill="none" d="m220.55 229.7 2.6-1.4q2.3-.85 4.6-.95 5.75-.6 11.2 3.1m-41.3 41.75-.15-2q-.75-5.85-.85-11.35m23.85-29.15h.05m-1.8 4.85h.35v.25l-.4.25-2.25 1.2q-2.65 1.05-6.15 1.55-2.15 2.8-5.1 5.85-3.7 3.75-8.7 7.8v2.85q0 2.25.15 4.55m22.1-24.3h-.05l-.15.1m-.75-2.7q-2.2 1.85-1.3 3.1l2.05-.4m-.75-2.7 2.7-2.25"/><path fill-rule="evenodd" d="M-17.15-113.75q1.55 3.45-1.7 7.45-1.4.95-3.2.2l-1.05-1.05 5.95-6.6m-26.15 6.25q-2 .45-3.3-.7-2.65-4.4-.6-7.6l4.95 7.35-1.05.95" transform="translate(192.55 294)"/><path fill-rule="evenodd" fill="#ceb579" d="m-17.15-113.75 2.65-3.85q4.5 5.75 1.25 9.65-2 .65-6.75 4.15l-2.05-2.3q1.8.75 3.2-.2 3.25-4 1.7-7.45m-26.15 6.25-2.45 1.95q-4.2-4.15-6.15-5-2.65-4.3 2.7-9.45l2 4.2q-2.05 3.2.6 7.6 1.3 1.15 3.3.7" transform="translate(192.55 294)"/><path fill-rule="evenodd" fill="#f8ebcf" d="M8.35-182.05v-.1l1.6.45-1.6-.35m-79 26.25 3.6-1.6.55-.2 5.2.55 5.5.6-1.75 2.05-13.1-1.4" transform="translate(192.55 294)"/><path fill-rule="evenodd" fill="#473932" d="M8.35-182.15v.1-.1" transform="translate(192.55 294)"/><path fill-rule="evenodd" fill="#c99d0c" d="m8.35-182.05 1.6.35q9.55 3 18.25 14.45 4.3 5.6 8.4 13.3-5.85-5.1-13.4-1.4-.65-5.45-1.5-8.15-4.45-13.45-13.35-18.55M45.6-131.3q2.45 10.15 2 19.95l-14.45-9-11.55 5.05 1.7-14.7q15.45 3.5 22.3-1.3" transform="translate(192.55 294)"/><path fill-rule="evenodd" fill="#f3e43a" d="M8.35-182.15v.1q8.9 5.1 13.35 18.55.85 2.7 1.5 8.15-19.6 9.9-52.85-6.45 18.35-8.6 21.8-10.6 3.4-1.9-.75-5.95-12.7-5.1-34.05 9.45-2.65-2.75-1.65-3.45 2.8-1.55 5.9-2.9 27.1-11.55 46.75-6.9m-3.6 1q-1.65-1-4.05-1-2.35 0-4.05 1-1.65 1-1.65 2.4t1.95 1.95l4.15.8q2.2.3 3.8-.5 1.55-.85 1.55-2.25t-1.7-2.4M21.6-115.3l-19.4 4.6-13.55-10.5-3-9.5-8.65-6-3.05-7.7-9.05-.45-5.95 8.15-5.55 4.4-6.8-5.85-6.7-5.8-2.25-1.9.3-3.4 4.5-5.15 1.75-2.05-5.5-.6.25-2.65 2.3-2.25 3.95-3.35 2.75 4.45-2.35 3q-1.5 5.5 2.8 5.7l6.45-3.35q33.8 19.95 68.45 25.5l-1.7 14.7" transform="translate(192.55 294)"/><path fill-rule="evenodd" fill="#fff" d="M4.75-181.15q1.7 1 1.7 2.4T4.9-176.5q-1.6.8-3.8.5l-4.15-.8Q-5-177.35-5-178.75t1.65-2.4q1.7-1 4.05-1 2.4 0 4.05 1m-47.4 12.25q21.35-14.55 34.05-9.45 4.15 4.05.75 5.95-3.45 2-21.8 10.6-8.05-3.5-13-7.1m-2.5 13.4-6.45 3.35q-4.3-.2-2.8-5.7l2.35-3 6.9 5.35" transform="translate(192.55 294)"/><path fill-rule="evenodd" fill="#aa4f1e" d="M23.2-155.35q7.55-3.7 13.4 1.4l1.9 3.7 2.4 5.05q3 7 4.7 13.9-6.85 4.8-22.3 1.3.65-16.85-.1-25.35" transform="translate(192.55 294)"/><path fill-rule="evenodd" fill="#f0af1a" d="m-11.35-121.2-13.8-10.6-16.4 2.4-5.05-2.9 5.55-4.4 5.95-8.15 9.05.45 3.05 7.7 8.65 6 3 9.5" transform="translate(192.55 294)"/><path fill-rule="evenodd" fill="#e07e1f" d="M-54.8-165.3q4.85-4 10.5-7.05-1 .7 1.65 3.45-2.05.85-9.4 8.05l-2.75-4.45m25.15 3.5q33.25 16.35 52.85 6.45.75 8.5.1 25.35-34.65-5.55-68.45-25.5l15.5-6.3" transform="translate(192.55 294)"/><path fill-rule="evenodd" fill="#e6a437" d="M-42.65-168.9q4.95 3.6 13 7.1l-15.5 6.3-6.9-5.35q7.35-7.2 9.4-8.05" transform="translate(192.55 294)"/><path fill-rule="evenodd" fill="#e8d7b7" d="m-76.15-152.5 1.85-4.05q5.35-3.25 11.3-3.25l-3.15 1.6-1 .55.1.25-3.6 1.6-.95 2.25q.55 3.35 4.55 6.05l1.6-.2-1.9 2.8q-11.15 4.75-8.8-7.6" transform="translate(192.55 294)"/><path fill-rule="evenodd" fill="#c8ac80" d="m-75.8-134.65-.85-1.1q-2-9.5.5-16.75-2.35 12.35 8.8 7.6l1.9-2.8-1.6.2q-4-2.7-4.55-6.05l.95-2.25 13.1 1.4-4.5 5.15-.3 3.4 2.25 1.9 1.8 6q-2 3.75-6.5 5.05-6.2 1.25-11-1.75M-63-159.8l4.25-2.15-2.3 2.25-.25 2.65-5.2-.55.35-.6 3.15-1.6m1 10-.05.55.05-.55m-3.45 2.1 3.4-1.55-3.4 1.55" transform="translate(192.55 294)"/><path fill-rule="evenodd" fill="#f02f13" d="m-67.05-157.4-.1-.25.65.05-.55.2" transform="translate(192.55 294)"/><path fill-rule="evenodd" fill="#b40e0e" d="m-62.05-149.25.05-.55-.05.55" transform="translate(192.55 294)"/><path fill-rule="evenodd" fill="#2b0404" d="M-46.6-132.3q-1.9 5.25-15.15 9.65l-2.6-1.65 10.2-6.4.75-7.45 6.8 5.85" transform="translate(192.55 294)"/><path fill-rule="evenodd" fill="#946334" d="M-64.35-124.3q-6.75-4.4-11.45-10.35 4.8 3 11 1.75 4.5-1.3 6.5-5.05l-1.8-6 6.7 5.8-.75 7.45-10.2 6.4" transform="translate(192.55 294)"/><path stroke-width=".05" stroke-linejoin="round" stroke-linecap="round" stroke="#53472d" fill="none" d="m200.9 111.95 1.6.35-1.6-.45m28.25 28.2q-4.1-7.7-8.4-13.3-8.7-11.45-18.25-14.45m26.65 27.75 1.9 3.7 2.4 5.05q3 7 4.7 13.9 2.45 10.15 2 19.95l-14.45-9-11.55 5.05-19.4 4.6-13.55-10.5m-47.4-40.75 3.95-3.35q4.85-4 10.5-7.05 2.8-1.55 5.9-2.9 27.1-11.55 46.75-6.9m-70.4 32.9-.3 3.4 2.25 1.9 6.7 5.8 6.8 5.85m-15.45-16.95.05-.55"/><path stroke-opacity=".38" stroke-linejoin="round" stroke-linecap="round" stroke="#000" fill="none" d="m-11.35-121.2-13.8-10.6-16.4 2.4-5.05-2.9q-1.9 5.25-15.15 9.65l-2.6-1.65q-6.75-4.4-11.45-10.35l-.85-1.1q-2-9.5.5-16.75l1.85-4.05q5.35-3.25 11.3-3.25l4.25-2.15-2.3 2.25-.25 2.65 5.5.6-1.75 2.05-4.5 5.15-3.4 1.55-1.6.2q-4-2.7-4.55-6.05l.95-2.25 3.6-1.6.55-.2 5.2.55m14.7 24.75 5.55-4.4 5.95-8.15 9.05.45 3.05 7.7 8.65 6 3 9.5m-54.8-37 3.15-1.6m1 10-.05.55" transform="translate(192.55 294)"/><path stroke-width=".05" stroke-linejoin="round" stroke-linecap="round" stroke="#3a8394" fill="none" d="M141.35 206.6v-1.75"/><path fill-rule="evenodd" fill="#c8ac80" d="M30.15-59.1q9.8 3.1 10.55 8.95.75 5.9.2 10.3-.6 4.35-7.1 14.2l.15 6.9-1 2.25 1.9 6.4q.1 3.3-1.45 5.85-1.35.35-2.55 1Q28.7-2.2 26.95-.5l-3.9 8.65h-.1q1.8-3.35-2.1-9.05-10.8-6.15-21.2-4.45-4.2-5.5-10.1-3.7l4.95-4.4.7-2.1-.75-1.4L-7-21l-.8-3.65q2.2 4.4 9.25 7.4 10.1 2.8 18.75-1.95 9.25-6.45 9.55-15.55 15.25-18.7.4-24.35m-16.3 71.8-3.1.5 5.9-7.5-.1-2.4 3.05 2.5-.05 1.15-4.15 5.2-1.55.55M6.5 9.3l-.45 1-7.05.85-1.35-1.9.25-2.35.05-.35 1.95 2.7L5.6 6.4l1.45-3.85-.65-2.6L3.05-1.1l4.4-.55.15.15.2 1.35.05.5.7 4.9L6.5 9.3M-3 6.75l-.1.2-2.7 1.2 2.7-7-2.5-3.95 3.05-.15v.05l1.1 3.7-.1.15v.15l-.35 3.3L-3 6.75M32.95-16.5q-2.25 2.55-5.65 4.25-3.45 1.7-8.15 2.4 4.7-.7 8.15-2.4 3.4-1.7 5.65-4.25m-6 16 1.4-4.45-1.4 4.45m6.8-28.45.05 3.3-.05-3.3M9.2-8.65 3.95-9.5q-5.65-1.7-8.75-6.05 3.1 4.35 8.75 6.05l5.25.85" transform="translate(192.55 294)"/><path fill-rule="evenodd" fill="#e8d7b7" d="m22.95 8.2-5.1 3.15-2.45.8 4.15-5.2.05-1.15q-.3-1.8-2.55-4.1-2.3-1.3-4.55-.6L8.75 5.3l-.2-.05-.7-4.9-.05-.5-.2-1.35-.15-.15Q4.55-3.8 1.55-2.9l-.2.05L-1.45.8l-1.1-3.7v-.05l-.4-1.4-3.75-.95-3.85 3.15.3 1.8-1.05 3-1.9-3.3 1.3-7.2 1.45-1.2q5.9-1.8 10.1 3.7 10.4-1.7 21.2 4.45 3.9 5.7 2.1 9.05v.05M-7.8-24.65l-.2-1.2q-.4-3.05-.25-6.15.05-2.7.5-5.35l.25-1.2q3.65-10 11.45-14.75 10-5.5 16.3-6 6.2-.55 9.9.2 14.85 5.65-.4 24.35-.3 9.1-9.55 15.55-8.65 4.75-18.75 1.95-7.05-3-9.25-7.4M8.1-26.7l5.85 2-2.05 4.3L.45-22l-3.4-7.6L1-32.8l-3.95 3.2L.45-22l11.45 1.6 2.05-4.3-5.85-2" transform="translate(192.55 294)"/><path fill-rule="evenodd" fill="#f8ebcf" d="m10.75 13.2-2.6.4-1.3-3.6.15-.45 1.7-4.2.05-.05 3.75-4.2q2.25-.7 4.55.6Q19.3 4 19.6 5.8l-3.05-2.5.1 2.4-5.9 7.5M-5.8 8.15l-2.85 1.4-3.15-5.2.5-1.7 1.05-3-.3-1.8L-6.7-5.3l3.75.95.4 1.4-3.05.15 2.5 3.95-2.7 7M-1.45.8l2.8-3.65.2-.05q3-.9 5.9 1.25l-4.4.55L6.4-.05l.65 2.6L5.6 6.4-.1 9.25l-1.95-2.7.15-2.15.35-3.3.1-.3" transform="translate(192.55 294)"/><path fill-rule="evenodd" fill="#497430" d="m23.05 8.15-.1.05v-.05h.1" transform="translate(192.55 294)"/><path fill-rule="evenodd" fill="#82a66a" d="m7 9.55-.5-.25 2.05-4.05.15.1L7 9.55" transform="translate(192.55 294)"/><path fill-rule="evenodd" fill="#85b456" d="m8.55 5.25.2.05-.05.05-.15-.1" transform="translate(192.55 294)"/><path stroke-opacity=".38" stroke-linejoin="round" stroke-linecap="round" stroke="#000" fill="none" d="M30.15-59.1q9.8 3.1 10.55 8.95.75 5.9.2 10.3-.6 4.35-7.1 14.2l.15 6.9-1 2.25 1.9 6.4q.1 3.3-1.45 5.85-1.35.35-2.55 1Q28.7-2.2 26.95-.5l-3.9 8.65-.1.05-5.1 3.15-2.45.8-.3.3-1.25.25-3.1.5-2.6.4-1.3-3.6.15-.45-.5-.25-.45 1-7.05.85-1.35-1.9.25-2.35-.9-.15-.1.2-2.7 1.2-2.85 1.4-3.15-5.2.5-1.7-1.9-3.3 1.3-7.2 1.45-1.2 4.95-4.4.7-2.1-.75-1.4L-7-21l-.8-3.65-.2-1.2q-.4-3.05-.25-6.15.05-2.7.5-5.35l.25-1.2q3.65-10 11.45-14.75 10-5.5 16.3-6 6.2-.55 9.9.2M-2.55-2.9l1.1 3.7 2.8-3.65.2-.05q3-.9 5.9 1.25l.15.15.2 1.35m.05.5.7 4.9L6.5 9.3m2.25-4 3.75-4.2q2.25-.7 4.55.6Q19.3 4 19.6 5.8l-.05 1.15-4.15 5.2-1.55.55M-11.3 2.65l1.05-3-.3-1.8L-6.7-5.3l3.75.95.4 1.4m1 4.05V.95l.1-.15-.1.3-.35 3.3-.15 2.15-.05.35m.2-2.5L-3 6.75m36.8-32.4-.05-3.3m-5.4 24L26.95-.5m-7.8-9.35q4.7-.7 8.15-2.4 3.4-1.7 5.65-4.25M1-32.8l-3.95 3.2L.45-22l11.45 1.6 2.05-4.3-5.85-2M-4.8-15.55q3.1 4.35 8.75 6.05l5.25.85m-.5 14 .05-.05M7 9.55l1.7-4.2" transform="translate(192.55 294)"/></g></defs><path fill="none" d="M-1-1h402v411H-1z"/><g transform="scale(2)"><use x="90.05" y="187" xlink:href="#b" width="381" transform="translate(-192.55 -294)" height="381"/><use x="-56.441" y="-64.397" xlink:href="#c" width="102.95" transform="matrix(1.8072 0 0 1.6538 83 126.3)" height="45"/></g></svg>