<svg width="628" height="433" xmlns="http://www.w3.org/2000/svg" xmlns:xlink="http://www.w3.org/1999/xlink"><defs><path stroke-width="3" stroke-opacity=".8" stroke-linejoin="round" stroke-linecap="round" stroke="#36306d" fill="none" d="m396.75 19.55 32.7 10.1h-10.9l19.55 25.5 7.25 20.6-13.3-19.3L411 43.95 395.4 39l8.55 8.35-14.05-8.05 1.85 1.9 1.7 1.95q6.85 7.9 11 17.5 1.25 7.55 0 14.3Q400.8 58.55 393 50.5l4.15 24.7-11.2-23.95q5.1 15.65 5.25 31.3-5.25-15.6-13.3-24.55l-16.1 10.95-22.5 6h-19l-14 19.3 4.4-20.05-15.9 32.05V90.9l-4.7 6.75-8.05 14.55V89.55l-9.1 20.35 4.65 4.4h-4.95l-11.45 7.55v8.1l-3.95 6.2v-11.4l-4.4 13.55 2.9 3.1 2.85 8.3-4.4-3.35v3.7l6.25 7.5 3.75 6.55 7.95 4.45 3.35 4.85-.3 6.8 8.95 6.25v11.85l12.45 4.75-2.55-7.2 10.6 11.7v-8.05l5.8 5.95 8.35-32.3 7-9.35h3.6l5.9 11.3 5.1-8.15 7-3.65 6.55 13.25 3.9 18.55-8.1 14.55h-5.7l-.25-12.55-4.5 10.2-5.15 4.9-2.35-1.6v10.55l3.1 9.3 2.15 2.65h4.9v5.7l-11.75 8.1h-9.9l-10.15-8.35-1-11.45-5.7-6.5H290.1l6-3.65-18.9-7.55-3.7 4.5-2.25.45-4.1 11.45v31.3L251.3 274l6.5-12.25-8.85-7.25-12.3 9.5-13.75 13.15 8.35-21.15-10.7-8.85h-8.85l5.75-4.2h-15.4l16.4-13.5-11.95 3.35 8.6-6.2 1.7-4.5.7-3.7-2.85 1.95-20.65 9.3-14.1-4-.2-.4-15.9 10.35 6.15 2.7-12.25 2.15-4.15 7.25 1.05 11.5-7.9 9.9-9.15 1.6-12.15-6.05-1.05-5.7 4.6-.8 1.45-2.8 1.25-9.75-1.85-10.4-1.85 2.05-5.65-4.05-5.85-9.25 1.95 12.35-5.3.9-10-13 .35-18.85 3.75-14.15 7.1 2.45 6.15 7.2 3.35-12.05 3.35-.6 8.15 8.1 13.35 30.4 4.15-6.85 1.4 7.8.05.15 7.8-13.25-1.15 7.5 14.05-8.9v-8.1l6.15-7.9-3.2-5.6-4.95-10.35-.4 1.4q-1.05 8.25 0 17.15l-4.2-6.7-2.15-7.9-3.55 8.8-6.5 18.15h-2.5l-7.55-11q-2.6-3.25-4.65-6.65-4.25-6.85-6.55-14.5l-1.1-7.5 3.75-9.65 6-9.1-3.05-1.9-1.75-4.1.45.1-8.45-10.55h-1.35l-14.85-8.85 12.45 2.4-.75-3.45 1.3-3.2-5.45-2.3-15.1-13h7.8l10.2 9.65-2.9-9.65-13.55-13.05-15.35 5.25 5.45-6H93.7l2.85-3.45-11.7 2.9H70.5l16.7-8.35-3.9-3.6h-7.85L57.5 94.8l-20.3 10.15L52.25 90.1H48.1l2.6-7.55-29.65 26.3L1.5 115.9l17.7-10.95 8.6-19.3 15.35-16.4 25.3-11h-16.7l16.7-9.35h21.6l.5.2 20.35 6.55q5.65 6.45 11.2 14.8 5.6 8.35 9.65 19.4V81.7l-2.9-10.1V55.4l4.2 10.45L144 98.95l3.25 4.65q3.2-2.65 6.45-3.85l-1.9-6.55 3.55 6.05q8.7-1.8 15.7 1.6l1 .5 7.4 4.2 3.2 4.65 6.45 3.9 4.75 4.7 1 2.6 12.45 6.6.05.15h.5l9.1-4.5 6.75-17.4V84.1l5.95 20.85 5-6.8 4.15-13.8 4.15 6.55 6.15-14.4.4-.75 2.5-17.8.1-.4-3.65-15.95 8.8 12.25 1.5 3.9 5.35-11.2q4.55-6.15 10.7-10.85l3.1-2.6 1.05-.85 13.2-8.05L306.3 8.85l-2.85 10.1L292.15 32l31.55-12.8 13.6-12.5-8.15 15.15-5.95 5.95h25.75l34.45-5.45L409.65 1.5 399 17.4l-2.25 2.15z" id="a"/><path fill-rule="evenodd" fill-opacity="0" fill="#f0f" d="M0 0h102.95v45H0V0" id="b"/><use xlink:href="#a" width="446.85" height="278.65" id="d"/><use xlink:href="#b" width="102.95" height="45" id="e"/><g id="c"><path stroke-opacity="0" stroke-linejoin="round" stroke-linecap="round" stroke="#f0f" fill="none" d="M187.95-293.5v380h-380v-380h380M92.95.6H-97" transform="translate(192.55 294)"/><path stroke-opacity="0" stroke-linejoin="round" stroke-linecap="round" stroke="#f0f" fill="none" d="m187.95-293.5-190 190 190 190m-380-380 190 190L-192 86.5" transform="translate(192.55 294)"/><path fill-rule="evenodd" fill="#ceffff" d="m52.5-218.9 13.65-5.5 9.5-8.75L70-222.6l-4.2 4.2h18l24.1-3.85 18.35-14.55-7.45 11.1-1.6 1.5-5.5 5.25-5.8 1.95-15.55 5.3-25.65 5.65 17.35-6.9-26.6 2.75 4.15-4.2-12.3 7.05q-14.8 4.7-15.8.45l-.05-.55q.1-4.1 2.7-7.25l.75-.6 4.25-2.6 2.45-.35q1.7-.25 2.55.7.4.3.4 1.05v.55l-.4.45.4-.15-.2.95-.55 2.6-2.2 1.85h-4.75l.75-4v-.05l.2-.35-.15.05-.2.1-.25.2-.7.4q-.9.5-1.1 1.3-.3 1.1 0 2.35l.75 1.05q5 2.05 9.7-2 2.95-2.55 3.45-6.35l1.1.2q2.2.7 4.1.85l-1.2.95q-2.25 2.1-3.35 4.15l4.5-1.9q4.3-1.7 7.4-4.35-3.45 1.45-6.9 2.6l-.15-.45q3.6-2.6 7-5.55l.2-.15-.25.1q-4.45 2-9.25 2.2m-33.1 82 1.25 3.7-3.05-2.35v2.55l4.35 5.25 2.65 4.55 5.55 3.15 1 1.4-3.95.55v4.35h2.6l.1.1 1.05.8 1.35.9 6.25 4.4v8.25l-5.15-1.95-3.6-1.35 2.65-1.85-12.35-2.6.7 1.05-1.8-.2-.7 1.05.9.55-1.2.15 1 .5-1.75.45-.1.1-.4.6h-.1v-.15l.1-.55-.05-.05-.05.3-.1.25-.4 1.1-.45 1.25q-.9 1.95-1.85 3.15l-1.3 1.1-.7.35-1 .1q-1-.3-1.7-.8l-.5-.4q-1.05-.95-1.5-2.5.1 1.15.35 1.75l.4.8v.05l.2.4-.05.05-6.85.6-1.05-.1-1-.3-1.6-.75q-4-1.7-7.1-4.8l-.4-.35-.15.05-.15-.35q.35-4.2.3-8.5l-.05-1.05q-.75 0-1.15-2.25-.45-2.3-.15-4l.1-.7-.15.2.15-.3-.5.8-.05.05v.05l-.05.15-1.2 2.05v-.1l-1.8.95-3.1 1.5q-2.1.3-3.5-1.3l-1.55-1.4-.35-.65q.35-2.25 1.3-4.45l.8-1.55.15-.25-6.3-2.25.15-.3 6.4-.05 9.65-7.55-9.05 4.4 4.85-8.75-8.45 7.25 3-8.45-4.9 4.05.25-1.65.05-.1.5-3.25.45-2.4.15-1.35.1-2.2q-1.35 2.7-3.05 4.95l-.65.8-.2-.05-.5-.15-.6-.15-.1.15q0 .85-.15 1.65l-.5 1.3-1.2.1v-2.35l-.05 2.05-.45.3-2.85.25q1.45-1.4 2.3-3.05l.35-.8-.8.6-.75.45-.1-.2q1.1-1.15 1.85-2.65l.6-1.45q1-2.75.95-5.75l-1.6 3.5-.55.9-.15-1.65q-.2-4.4-1.2-8.5l-.2 4.5-.4-1.2-.3-.7q-1-2.5-2.6-4.65l1.15.05 1.8 3.2.25-3.1h.1l.1.1.55.45q1.35 1.25 2 2.8l.55 1.25.2.6.05.25.4-.35q.45-2.6-.1-5.05l-2.35-3.3 4.5 2.75 3.35 3.25.7 1.85.65.35.45 1.5.15 1.45q0 .35.5.3l1.6.1.6.15q.75.35 1.5 1.25l1.15 1.75.3.65.4.95.3.55.15.15q.95-.9 1.4-2.3l.45-.95 1.3-1.2.2-.3 5.55 3.4 1.3 2.2 5.15 1.3 2.85 4.5 3.3 1.85 6.85-.75 7.15-.8m33.45 42.05v-3.6l4.05 4.2-.25 4.25-3.8-4.85M25.55-57 15.6-46.35l4.5-8.6-1.1-.9-5.6-8.65-4.25 8.2-3.85 2.95-9.6 9.2 5.85-14.8-1.2-.95L2.4-69l-5.65 6.1-2.65-2.25h-6.2l4-2.9h-10.75l10.4-8.5-.1 1.5 10.5-3.45 3.45 7.1 1.75-.55L5.4-64.1l10.8-10.5L25.55-57m-81.7-22.45 2.9-4.75.95 5.45-3.05 2.95-.8-3.65m-6.4-53.95-.45-1.05.25-.1 4.45 1.25-.55 1.3-3.7-1.4m-8.85-16.45.5-1.25.3-.8 5.4.2.65.9q-1.7 0-2.85.6l-1.1.95-.1.55.2.05-.75-.05-.3-.1q-1.25-.2-1.95-1.05m-64.45-33.2 5.95-6.4 17.7-7.7h-11.7l11.7-6.55h15.1v.15q-3.9.1-7.5 1.25l1.9.15q3.45.45 6.6 2.15 1.65.95 2.8 2.45v1.1l-.45.25q-1.3.8-2.8.4-2.05-.55-3.3-2.1l.15-.4.95-.55 1.25.55.4.95.15-1.1-1.6-1.65-1.7.1q-.85.2-1.35 1.05-.4.7-.25 1.6l.9 1.45 5.8 1.35q2.85.55 5.55 1.65 3.3 1.2 5.75 3.7l-.3-.95-.55-.95q-.85-.95-2.05-1.5l-3.65-1.75.05-.15 3.25.8-.25-1.1q-.4-1.1-1.1-1.95l-2.7-2.6.2-.4.85.5q3 1.65 5.7 3.95 3.2 2.85 5.6 6.4 2.6 3.8 3.55 8.2l-1-1.3.95 5-6.35-9.45-5.4-4.35h-24.6l-24.2 7.75m67.9 2.8v-.5L-70-187.8v-11.3l2.95 7.3 6.45 19.8-1.55.85-1.55 1q-.85.55-1.15 1.35l-1.7 4.7-4.85-7.15.65-3.75 1.3-.35.95 1.15q1.4 1.6 1.6 3.8h-1.6l.15-1.85-.3.25.15 1.6 1.45 1.6h1.25l.9-.95.6-1.05q.7-2.1-.1-4.2-1.1-3.1-3.55-5.25m10.8 14.8q2.25-1.85 4.5-2.7l-1.3-4.55 2.5 4.2q6.05-1.25 10.95 1.1l.45.75-2.45 1.15-.75.55-.5.5-.95.4.2-2q-1.65-.05-2.7 3.2l-.1-2.9-1.45 2.05-1.6 3.4-.7 1.8-.5-1.85-.6 1.9q-.7 2.55-.35 5.1v1.2l-.15.5-1.25 4.15-.45-1.05q-.55 1.4-.45 2.5l-.15-.4-.45-.75-.45-.45-.05.1-.15.45-.45-1.5.05-1.65.2-1.05-.6.75q-1.1 1.7-.7 4.65l-.7-.55-.6-1.1q-.15-.5-.3-.3-.15.4-.3-.15l-.3-.95-.05.05-.15.75-.4-.85-.15-.55q-.35-1-.35-2.1l-.55 1.2-1.1-1.6-.3.1-.25-.85q-.3-.9-.5-.45v.1l-.4-.5-.1.1-1-1.55q.95-.8 2.1-1.35l.15-.05v-2q2.05-4.2 4.65-6.05l1-.9m48.7 14 .4-1.05q4.5 2.95 8.5-.65l2.05-2.25h2.85l-9.25 9.45-4.55-5.5m2.05-5.3 2.65-6.85v-1.6l.55-.2 1.15-.5.5-.65 1.25-.7.75 2.75 3.5-4.75.15-.7q2.85 1.95 7.15.8l1.15-.35-4.3 7.75v-6.2l-4.8 8.7q-.6-1.55-2.85-2.8H-.5q-1.2.4-1.95 1.3l-.2.7-.05 1.5.4-1.4.05-.1.7-.15q1.25-.25 2 .55.7 2.85-2 4.7H-3.9q-1.5-.65-2.5-1.8m2.65-11.9v-1.55l1.95-2.25.65 2.15-.25.15-2.35 1.5m9.05-5.3 1.55-4.95 2.9 4.55 4.3-10.05.25-.5.65-4.4.65.3.6 1q3.15 8.9-4.8 15-3.5 1.3-6.1-.95m10.15-19.25.6-4.15.1-.3-1.15-4.8h.5l.9-2.45 3.35 4.7 1 2.7 3.75-7.8q2.25 2.05 5.45 2.35l-.7.65q-3.95 3.75-2.4 8.7l-.45.7-.85 5.95-2.35 2.2-2 3.7q.75-4.5-1.25-8.3-1.65-3.1-4.5-3.85m31.25-30.55 7.3-7.9-2 7.05-2.9 3.4-.1-.1-.75-1.2-.9-.75-.65-.5m-4.05 19.8L32.2-194.7l-3.65 4.6 2.35-9-2.95 4q.4-2.65 2.1-4.4 1.05-1.25 2.8-1.3l.35-.4 2.45-.55q3.6-.9 7-2.2m-95.1 51.65.35-1.25.5-1.1.9-1.7.9-1.4.3-.5 2.35-2.75.25-.2.95-.95.6-.55h.1l.1-.15.15-.1 1.15-.3q2-.25 3.05 1.25l-.3 1.7-.85.25-.55.35-.4.25-.8.65v.1l-3.25 2.55-2.1 3.25-2.3 6.2q-.9-.55-1.2-1.75l-.15-1.4.15-1.8.1-.5v-.15m-4.15 9.9-1.55-2.6.6 2.25-2.7-3.3 1.6 1.25.15-.6q.15-.4.4 0l.95 1.1-.15-.55.65.45.15-.05.25 1.45-.5-.85.15 1.45m2.6-4.7.1.15q.2 1.1.8 2.1l.65.5.1-.85v-.95l.25.15.5 1.15.75.5.25-.6.7-1.4.4-.45-.05 5.5-.3-2.35-.1-.6-.4.9-.15.75.05.65-1.2-2.05v2.2l-1.25-1.2-.75-1.25-.05.5.15.6.05.35-.2.1-.9-1.65.1-.05q.35-.15.25-.9l.1-1.5.15-.3m37.4 25.9.5 1.05-.2 1.6-2 .4q-1.25-.7-1.65-1.9l.4 3.35.5.9.6.35q4.25.15 4.35-4.2l-.35-.9q1.85.15 3.8-1.35l.75-.45.35-.95q.35-2.35-1.1-3.95 2.1.2 3.8-1.1.5-1.75.4-3.65l-.4-.55v-.75q-1.85-1.7-4.15-2 2.4.85 2.3 3.65l.05.55q-2 3.05-5.65 3.1l.9.55 1.25 2.75.05.5q-.3 1-1.1 1.65l-.2.2q-1.35.95-3.05 1.05h-.2l.05.1m29.7-54.9H13v.2l.1-.2m-.6 56.25-.15-.15-1.2-.2 1.2.25.15.1 1.25.75.45.55.1.25.2.3v.2q-.3.8-1.25 1.2l-2.4.45.9.35.35.7.65.85.25.6-.65.75-4.25.15q-.6-.15-.15.6l.1.35.05.55q-1.8 1.35-4.55 1.3H3.4l-1.45-.55-1.5.35 2.95.2.15.05 4 .1h.4l.9-.9v-1.45l1.65.15 2.3.2 1.1-.95v-2l-.25-.6-.3-.25-.55-.4h1.5q.95.1 1.65-.35l.3-.6.1-.5-.05-.7-2.35-1.15-1.45-.55m.3-6.7-3.25-2.85H5.6l-9.4-5.9q.95 6.8 7.15 10 5.75 3 12.05 2.95-1.7-.75-3.8-2.75-1.15-1-2.6-1.45h3.8M20.2-115l-.3.15-.1-.2-.35-.4-.35-.25-.3-.3-.25-.2h-.05l.1.15.3.45.15.25.4.65v.05l.45.9.35 1.2.05 1-.05.1-.1.35-.35.5q-.5.3-1 .45l-.35.1-1.75-.25.95.5.5.15h.1l.2.05 1.4-.3.55-.35.05.1-2.7 1.8-1.65.15h-.3l.15.05.2.15.1.25.05.15-.7.55H8.65l3.7 1.6.15 1.45-1.3.9h-2l-3.85-1.05.75 1.65q-.25.3-.9.3l-.9.05h-.95l-5.15-2-1.95-.75 1.85.9.5.75q3.75 3 7.85 1.55l.2-.3-.2-.7q3.5 1.85 7.05.35 1-.35 1.5-1.25v-.9l-.7-1.1.05-.3q4.4.2 6.65-2.95 1.5-2.2.6-4.8L20.2-115m-40.15-5.05-.2-1.55v.15l.2 1.4" transform="translate(192.55 294)"/><path fill-rule="evenodd" fill="#694edc" d="m113.75-209.05 1.15 1.35-2 1.2q-22.75 8.8-45.8 8.05-5.55 2.15-9.55 6.45l-.3-.3q1.55-1.55 2.35-3.25-7.15 3.9-15.65 6.2l-.8.8q-1 .85-2.1 1.35 2.85-5.7 7.65-10-1.3.75-3.65 1.75-9.9 4-17.95 10.95l-.05-.1q-.1-2.5 1.1-4.6l.35-.65.05-.25 3.65-4.6 10.45-9.25 1.6-1.4 3.05-2 12.3-7.05-4.15 4.2 26.6-2.75-17.35 6.9 25.65-5.65 15.55-5.3 9.65.15q-2.65 2.65-6.45 3.45-5.75 1.2-9.4 4.4l.9.7 13.15-.75M-37.8-88.9v-2.35q5.85 0 10-3.5 2.1-1.8 3.2-4l.3.2.3 1.5.1 1.25.45 1.7.35.65.25.45.3.65.3.75.7 1-3.7 2.4q-1.25.8-2.65 1.25l-1.7.55-.85.25-1.55.45-.7.15-.4.15-.3-.75-1.6-3.75-.45.35-2.35 2.05v-1.4m9.45-44-.6-5.5 1.15-.75-.25 2.35.55-.35 1.25-1.05.55-.25v1.65q-.05.75.25.15l-.25 1.65 4.9-4.05-3 8.45 8.45-7.25-4.85 8.75 9.05-4.4-9.65 7.55-6.4.05 2.05-1.9-1-3.65-2.2-1.4v-.05m-.95 21.75v-10.45l4.5.2.6 2.75.3 2.45q.05 1.9 1.9 2.65 2.4 1.05 5.05 1.8l.6.3-2.05 3.45.3 2.1h.05q1.35.05 2.35 1.55.95 1.55.95 3.7l-9.3-3.15-3.3-4.1-1.95-3.25" transform="translate(192.55 294)"/><path fill-rule="evenodd" fill="#7aa0f8" d="m117.2-224.2 22.85 7.1h-7.6l13.65 17.8 5.1 14.4-9.3-13.5-14.75-8.75-10.9-3.45 6 5.85-6.55-3.8.55-.65-1.55.1-2.25-1.25 1.3 1.3-13.15.75-.9-.7q3.65-3.2 9.4-4.4 3.8-.8 6.45-3.45l-9.65-.15 5.8-1.95 5.5-5.25m-2.3 16.5q4.75 5.55 7.7 12.25.85 5.25 0 10-2.55-11.5-8-17.1l2.9 17.25-7.85-16.7q3.55 10.9 3.7 21.85-3.65-10.95-9.3-17.15l-11.25 7.65-15.75 4.2H63.8L54-172l3.1-14-11.15 22.4v-10.75l-3.25 4.75-5.65 10.15v-15.8l-2.55 5.7-4 3.85-1.65-9.1-9.2 13.55-9 7.25-1.2-2.9-1.35 4-6 6.85 2.4 5.7 6.15 2.7 1.6 1.55-6.85.75-3.3-1.85-2.85-4.5-5.15-1.3-1.3-2.2-5.55-3.4-.2.3-1.3 1.2-.45.95q-.45 1.4-1.4 2.3l-.15-.15-.3-.55-.4-.95-.3-.65-1.15-1.75q-.75-.9-1.5-1.25l-.6-.15-1.6-.1q-.5.05-.5-.3l-.15-1.45-.45-1.5 8.05 4.25v.1h.35l6.35-3.15 4.55 5.5 9.25-9.45H2.5l-2.05 2.25q-4 3.6-8.5.65l1.65-4.25q1 1.15 2.5 1.8h2.35q2.7-1.85 2-4.7-.75-.8-2-.55l-.7.15-.05.1-.35-.1.2-.7q.75-.9 1.95-1.3h.95q2.25 1.25 2.85 2.8l4.8-8.7v6.2l4.3-7.75-1.15.35q-4.3 1.15-7.15-.8l1.2-4q2.6 2.25 6.1.95 7.95-6.1 4.8-15l-.6-1-.65-.3.5-3.9q2.85.75 4.5 3.85 2 3.8 1.25 8.3l2-3.7 2.35-2.2.85-5.95.45-.7q-1.55-4.95 2.4-8.7l.7-.65q-3.2-.3-5.45-2.35 3.2-4.3 7.5-7.6l2.15-1.8q-2.6 3.15-2.7 7.25l.05.55q1 4.25 15.8-.45l-3.05 2-1.6 1.4q-3.4 1.3-7 2.2l-2.45.55-.35.4q-1.75.05-2.8 1.3-1.7 1.75-2.1 4.4l2.95-4-2.35 9-.05.25-.35.65q-1.2 2.1-1.1 4.6v.15l.05-.05q8.05-6.95 17.95-10.95 2.35-1 3.65-1.75-4.8 4.3-7.65 10 1.1-.5 2.1-1.35l.8-.8q8.5-2.3 15.65-6.2-.8 1.7-2.35 3.25-.3.25-.15.75l.45-.45q4-4.3 9.55-6.45 23.05.75 45.8-8.05l2-1.2m-83.75 89.05 1.3 1.95-.15 4.75-1.35-.9v-.25l-.85-.55h-.2l-.1-.1h-1.15l-1.45-.1v-4.25l3.95-.55m16.1 22.7-1.8-5.05 7.4 8.2v-2.05l3.8 4.85-.1 1.5-1 .7-1.2.85h-.55l-2.7-.45-.3-.1-.2-.4-.55-.8-.55-.85-2.25-6.4M19-55.85 13.9-60l-4.75 3.7 4.25-8.2 5.6 8.65M.35-59.9l-3.6-3L2.4-69 .35-59.9M-52.3-78.75l.05.1 5.45-9.25-.8 5.2-1.15 7.55-2.8 2.25-3.55-1.85-.25-1.05 3.05-2.95m14.5-12.5v-3.3l4.3-5.5 2.3 3.7 1.9-4.75v-4.35l1.2-1.55 2.25 3.25.45.85q.6 1.65.9 3.45l.05.35-.15.35q-1.1 2.2-3.2 4-4.15 3.5-10 3.5m-24.95-43.3-5.95-7.4h-.95L-80-148.1l8.7 1.65-.5-2.4.4-1q.7.85 1.95 1.05l.3.1.75.05-.2-.05.1-.55 1.1-.95q1.15-.6 2.85-.6l-.65-.9-5.4-.2-.3.8-3.8-1.6-10.55-9.05h5.45l7.1 6.7-2-6.7-9.5-9.15-10.7 3.65 3.8-4.2h-3.45l1.95-2.35-8.15 2h-10l11.65-5.85-2.75-2.5h-5.45l-12.55 8.55-14.2 7.1 10.55-10.4h-2.9l1.8-5.25-20.75 18.4-13.65 4.9 12.4-7.65 5.95-13.5 4.8-5.05 24.2-7.75h24.6l5.4 4.35 6.35 9.45-.95-5 1 1.3q-.95-4.4-3.55-8.2-2.4-3.55-5.6-6.4-2.7-2.3-5.7-3.95l-.85-.5-3.4-1.8 3.2 2.2 2.7 2.6q.7.85 1.1 1.95l.25 1.1-3.25-.8-.5-.1.45.25 3.65 1.75q1.2.55 2.05 1.5l.55.95.3.95q-2.45-2.5-5.75-3.7-2.7-1.1-5.55-1.65l-5.8-1.35-.9-1.45q-.15-.9.25-1.6.5-.85 1.35-1.05l1.7-.1 1.6 1.65-.15 1.1-.4-.95-1.25-.55-.95.55-.15.4q1.25 1.55 3.3 2.1 1.5.4 2.8-.4l.45-.25v-1.1q-1.15-1.5-2.8-2.45-3.15-1.7-6.6-2.15l-1.9-.15q3.6-1.15 7.5-1.25h.35l14.2 4.6q3.95 4.5 7.85 10.35 3.9 5.8 6.75 13.55v-5.2q2.45 2.15 3.55 5.25.8 2.1.1 4.2l-.6 1.05-.9.95h-1.25l-1.45-1.6h1.6q-.2-2.2-1.6-3.8l-.95-1.15-1.3.35-.65 3.75 4.85 7.15 1.7-4.7q.3-.8 1.15-1.35l1.55-1 1.55-.85 1.2 3.3 2.25 3.25-1 .9q-2.6 1.85-4.65 6.05v2l-.15.05q-1.15.55-2.1 1.35l1 1.55.3.65-.15-.7-.05-.05.4.5v-.1q.2-.45.5.45l.25.85.4 1.4-.1-1.5 1.1 1.6.55-1.2q0 1.1.35 2.1l.15.55.4.85.15-.75.05-.05.3.95q.15.55.3.15.15-.2.3.3l.6 1.1.7.55q-.4-2.95.7-4.65l.6-.75-.2 1.05-.05 1.65.45 1.5.15-.45.05-.1.45.45.45.75.15.4q-.1-1.1.45-2.5l.45 1.05 1.25-4.15h.1l-.15 1.8.15 1.4q.3 1.2 1.2 1.75l2.3-6.2 2.1-3.25 3.25-2.55v-.1l.8-.65.4-.25.55-.35.85-.25.3-1.7q-1.05-1.5-3.05-1.25l-1.15.3-.15.1-.1.15h-.1l-.6.55-.95.95-.25.2-2.35 2.75-.3.5-.9 1.4-.9 1.7-.5 1.1-.35 1.25h-.05l.1-1.3-.1.25q-.35-2.55.35-5.1l.6-1.9.5 1.85.7-1.8 1.6-3.4 1.45-2.05.1 2.9q1.05-3.25 2.7-3.2l-.2 2 .95-.4.5-.5.75-.55 2.45-1.15.25-.35 5.15 2.9 2.25 3.25 2.35 3.3q.55 2.45.1 5.05l-.45.1-.2-.6-.55-1.25q-.65-1.55-2-2.8l-.55-.45-.1-.1h-.1l-.25 3.1-1.8-3.2-1.15-.05q1.6 2.15 2.6 4.65l.3.7.4 1.2.2-4.5q1 4.1 1.2 8.5l.15 1.65.55-.9 1.6-3.5q.05 3-.95 5.75l-.6 1.45q-.75 1.5-1.85 2.65l-.75.7.85-.5.75-.45.8-.6-.35.8q-.85 1.65-2.3 3.05l2.85-.25.45-.3h.05v.3l1.2-.1.5-1.3q.15-.8.15-1.65l.1-.15.6.15.5.15.2.05.65-.8q1.7-2.25 3.05-4.95l-.1 2.2-.15 1.35-.45 2.4-.5 3.25-.3-.05v-1.65l-.55.25-1.25 1.05-.55.35.25-2.35-1.15.75.6 5.5-.75-.5-1.5 5.75-1.1-5.5-3.85 4.55-.05.05-.9 1.1.6-2.25 1.15-4.3-3.25 3-.05-.95v-2.15l-1.05-1-5.35-1.15-.75-.55.6-.2q2.9-.95 4.85-3.25l.15-.15.95-1.4q1.3-2.3 1-5-.4-3.6-2.05-6.65l-.3-.4-.1-.1q-.85-.85-2.05-1.35l-.45.05-2 1.25h-.05l-2.05 4.1-.05.05-.6 2.15-.35 1.35-.4-.1.2-1.1-.2.65-.1.8-.2 1.3.1-.65.4.05-.15.85-.05.3-.2 1v.1l-.25 2.05v3.35l-.05.15h-.15l-1.2-.7-.05-.65v-.1l.05-.65-.2.15q-.25.15-.45 0l-.05-.05-.3-1.35v-.15l-.1.05v.15l-.4.7q-.2.15-.4 0l-.15-.6-.05.5-.3-.35-.1-.15-.15-.15-.05-.1-.75-.5-.05-.1-.55-.45.05.3-.15-.15-.15-.25h-.05l-.45-.55v.25l.1.4h-.05l-.3-.5-.2-.4-.1-.25-.25-.6-.05.1-.1.1-.05.15v.2l-.05.4-.45-.1-.25-1.45-.1-.8-.05.85-.65-.45.15.55-.95-1.1q-.25-.4-.4 0l-.15.6-1.6-1.25 2.7 3.3-.6-2.25 1.55 2.6.25.4v.2l.1.55.3.6.15.5.1.25.25.6.1.7-.25.55-.45.85-.3-1.1-.5-.55-.05.1h-.1l.1-.05v-.05l-.1-.05-1.85-2.65-.4-.4-.35-.45-.2-.2-.15-.15-.1-.2-.05.05-.25-.25v.15h-.05l-.05-.1-.3-.35q-2.15-2.35-4.3-2.45l-.15.9-.1.3-.15.6.15 2.4v.1l.15.4v.15l.75 2.05.3.6.2.35.9 1.05 1.6 1.05q1.8.85 3.45 1 1.2-.9 1.4-1.5l.05.05-1.8 3.1-4.45-1.25m59-30.65v-3.45l2.35-1.5.25-.15.85 3.05-1.25.7-.5.65-1.15.5-.55.2m42.9-52.7 5-3 2.55-2.85.65.5.9.75.75 1.2.1.1-4.55 5.25v-.55q0-.75-.4-1.05-.85-.95-2.55-.7l-2.45.35m5.4 2.25.05-.05h.05l4.65-1.85 3.2-1.35q4.8-.2 9.25-2.2l.05.05q-3.4 2.95-7 5.55l-1.2.85 1.35-.4q3.45-1.15 6.9-2.6-3.1 2.65-7.4 4.35l-4.5 1.9q1.1-2.05 3.35-4.15l1.2-.95q-1.9-.15-4.1-.85l-1.1-.2q-.5 3.8-3.45 6.35-4.7 4.05-9.7 2l-.75-1.05q-.3-1.25 0-2.35.2-.8 1.1-1.3l.7-.4.4.05-.75 4h4.75l2.2-1.85.55-2.6.2-.95M99.4-190.6l6.55 2.15-.5 14.8 6.25 7.6-9-6.05-.9-11.05-4.25 9.95 1.25-12.15-2.35-2.8 2.95-2.45m-45.1 22.1 9.2-9.95 5.25-3.65-3.45 11.3-11 2.3m67.8-7.7-4.85-5.85 7.05 1.65-2.2 4.2m20.7-6.55 1.1 8.1-13.85-9.85-1.4-15.35 14.15 17.1m-196.7 35.8v-.15h-.1l-.15.3-.1 1.5q.1.75-.25.9l-.15-.05.05.1.9 1.65.15.2q.1.05.05-.3l-.05-.35-.15-.6.05-.5.75 1.25 1.25 1.2v-2.2l1.2 2.05-.05-.65.15-.75.4-.9.1.6.3 2.35.05-5.5-.4.45-.7 1.4-.25.6-.75-.5-.5-1.15-.1-.4-.15.25v.95l-.1.85-.65-.5q-.6-1-.8-2.1m4.35 5.65v.1l.05.1v.4l.15.6-.15-1-.05-.2m-5.1-3.15-.1-.2h-.05l.05.05.1.15m-.2-.3.05.05v-.05h-.05M-29.3-124l1.8-1.65.15.05 6.3 2.25-.15.25-.8 1.55q-.95 2.2-1.3 4.45l.35.65 1.55 1.4q1.4 1.6 3.5 1.3l3.1-1.5 1.8-.95v.1l1.2-2.05.05-.15v-.05l.05-.05.5-.8-.15.3.15-.2-.1.7q-.3 1.7.15 4 .4 2.25 1.15 2.25l.05 1.05q.05 4.3-.3 8.5l-.05.45.2-.1.15-.05.4.35q3.1 3.1 7.1 4.8l1.6.75 1 .3 1.05.1 6.85-.6.05-.05-.2-.4v-.05l-.4-.8q-.25-.6-.35-1.75.45 1.55 1.5 2.5l.5.4q.7.5 1.7.8l1-.1.7-.35 1.3-1.1q.95-1.2 1.85-3.15l.45-1.25.4-1.1.1.05v.15l.05.5 1.5.15-1.45-.65.4-.6.1-.1 1.75-.45-1-.5 1.2-.15-.9-.55.7-1.05 1.8.2-.7-1.05 12.35 2.6-2.65 1.85-1.55 3.5-2.45-.05q-5.1.45-9.1-2.35l-.2.85-.3.95-1 2.1-.75 1.15-.8.95-.2.15-.65.4-.15.05-1.15.05-2.2 2.6-11.5 1.2-8.6-4.35-3.95-5.25q0-2.15-.95-3.7-1-1.5-2.35-1.55h-.05l-.3-2.1 2.05-3.45-.6-.3q-2.65-.75-5.05-1.8-1.85-.75-1.9-2.65l-.3-2.45-.6-2.75-4.5-.2v-2.4m-5.1-16.5.05-.15.1-.2v-.5l-.15.85m17.95 19.2q1.7-.1 3.05-1.05l.2-.2q.8-.65 1.1-1.65l-.05-.5-1.25-2.75-.9-.55q3.65-.05 5.65-3.1l-.05-.55q.1-2.8-2.3-3.65 2.3.3 4.15 2v.75l.4.55q.1 1.9-.4 3.65-1.7 1.3-3.8 1.1 1.45 1.6 1.1 3.95l-.35.95-.75.45q-1.95 1.5-3.8 1.35l.35.9q-.1 4.35-4.35 4.2l-.6-.35-.5-.9-.4-3.35q.4 1.2 1.65 1.9l2-.4.2-1.6-.5-1.05.15-.1m30.4 2 2.35 1.15.05.7-.1.5-.3.6q-.7.45-1.65.35h-1.5l.55.4.3.25.25.6v2l-1.1.95-2.3-.2-1.65-.15v1.45l-.9.9h-.4l-4-.1v-.05q2.75.05 4.55-1.3l-.05-.55-.1-.35q-.45-.75.15-.6l4.25-.15.65-.75-.25-.6-.65-.85-.35-.7-.9-.35 2.4-.45q.95-.4 1.25-1.2v-.2l-.2-.3-.1-.25-.45-.55.2-.2m-1.15-7.25H9q1.45.45 2.6 1.45 2.1 2 3.8 2.75-6.3.05-12.05-2.95-6.2-3.2-7.15-10l9.4 5.9h3.95l3.25 2.85m7.1 11.7.2.35.6.35.05.1-.55-.95 1.4 1.35q.9 2.6-.6 4.8-2.25 3.15-6.65 2.95l-.95-.1.9.4.7 1.1v.9q-.5.9-1.5 1.25-3.55 1.5-7.05-.35l.2.7-.2.3q-4.1 1.45-7.85-1.55l-.5-.75.1-.15 5.15 2h.95l.9-.05q.65 0 .9-.3l-.75-1.65 3.85 1.05h2l1.3-.9-.15-1.45-3.7-1.6h6.95l.7-.55-.05-.15-.1-.25-.05-.2 1.65-.15 2.7-1.8h.05l.4-.8-.35.45-.15.25-.55.35-1.4.3-.2-.05h-.1l-.5-.15-.95-.5 1.75.25.35-.1q.5-.15 1-.45l.35-.5.1-.35.05-.1-.05-1-.35-1.2-.45-.9v-.05l-.4-.65-.15-.25.2-.1.35.25.35.4.1.2m-30.35 53h3.8l3.65 5.8-9.85 11.1v9.85l-3.05-10.35 6.35-9.1-9.65 4.85 8.75-8.5v-3.65m-13.1-1.45 6.35.55-9.8 6.55-10.05-5.3 13.5-1.8M11.4-52.75v22.2L7-23.65 2.65-40l8.75-12.75m-19.3 23.3v-7.65l4.35 5.8-4.35 1.85" transform="translate(192.55 294)"/><path fill-rule="evenodd" fill="#8e211c" d="m115.7-208.55-1-.55 1.55-.1-.55.65" transform="translate(192.55 294)"/><path fill-rule="evenodd" fill="#ff3" d="m61.75-221.1.25-.1-.2.15-.05-.05m-24.3 6.6.2-.1.15-.05-.2.35-.15-.2M-68.5-170.4l-.15-1.6.3-.25-.15 1.85m16.05 18.1v.15l-.1.5.05-.5.05-.15m36 31-.15.1-.05-.1h.2m29.55-54.8-.1.2v-.2h.1m-.6 56.25-.15-.1-1.2-.25 1.2.2.15.15m-8.95 9.95-.15-.05-2.95-.2 1.5-.35 1.45.55h.15v.05m12.55 1.7.05.2-.2-.15-.15-.05h.3m-17.9 4.05-.1.15-1.85-.9 1.95.75m-18.15-15.9-.2-1.4v-.15l.2 1.55" transform="translate(192.55 294)"/><path fill-rule="evenodd" fill="#ffc" d="m-63-134.45-.05-.15.3.05-.25.1m-34.1-69.25.35.15h-.35v-.15m151.9-11.8.15.45-1.35.4 1.2-.85m-145.2 21.15-.45-.25.5.1-.05.15m-.75-5-3.2-2.2 3.4 1.8-.2.4m28.65 47.3.1 1.5-.4-1.4.3-.1m5.85 7.65.05-.85.1.8-.15.05m23.25 4.5-.85.5.75-.7.1.2m-20.6-7.2h.1v.15l-.1-.15m1.65.95.15-.25.1.4-.25-.15m-1.15 3.35q.05.35-.05.3l-.15-.2.2-.1m-1.1-1.55-.05-.1.15.05-.1.05m27.1 18.7.3-.25-.15.3-.15-.05m17.25 23.05.15.35-.2.1.05-.45m26.9-.2h.1l1.45.65-1.5-.15-.05-.5M20.2-115l.55.95-.05-.1-.6-.35-.2-.35.3-.15m.2 4.75.15-.25.35-.45-.4.8h-.05l-.05-.1m-6.1 4.65-.9-.4.95.1-.05.3" transform="translate(192.55 294)"/><path fill-rule="evenodd" fill="#601313" d="m27.05-184.6.05.1-.05.05v-.15m30.2-7.7.3.3-.45.45q-.15-.5.15-.75" transform="translate(192.55 294)"/><path fill-rule="evenodd" fill="#21213f" d="m74.3-115.5 2.7-4.45 5.7 11.25.7.25-.35-3.3 5.55 3.55.6 2.75-1.75-1.6-1.1-1.05-2.7 1.8-3.45 6.2-.9-3.75-.9-.25-2.45-.7q1.65.35 2.85-.55l.05-.1-.45-2.1-4.1-7.95m-2.5 24.8v7.4l2.2 6.5 1.5 1.85-2.5-2-3.3-.55-2.55.3v-.2l-.1.05v.05l-.35.5-.3.45-2.25 3.75v3.1l3.1 4.2H63.8l-7.1-5.85-.15-1.8.8.7.35.5q.5.75 1.35 1.25l.8.85.45.3q-.1-.55-.05-1.15l.2-2.75.4-1.6.3-.85 1.6-2.35.4-.45q.8-1.1 2.05-1.65l.45-.15 1.45-.3v-4.35l.05-1.05v-1.1l.05-1.4.05-1.2v-3.5l-.35-.25-.2-.1 1.75-9 1.7 3.95v6.7l1.65 1.2m-24.95 4.45L33.7-91.5 27.4-94v-3.2l.85-1.9 1.55-3.5 3.6 1.35-1.6 4.4 13.4 6.7 1.65 3.9m-81.3 5.8-.05.05-11.05 7.2.85-4.1 11.15-8.8.15-.05.3.75 1.05 2.3-2.6 2.35.2.3m-17.7 21.95.15 1.8-5.55 6.9-3.2.55 2.15-4.6-.55-3.05-2.65-3.35-.4-.4-.3-.4-.05-.05h-.05l-.1-.1q-.2-.1 0 .25l-2.35.1q-1.45.25-3 1.05l-1.85 2.35.95-1.95.9-6.8-1.3-7.3 1.3-1.4-.45-2.5-.7-4.15.9-4.15 3.2 8.6-.2.1-.2.35v.2l.2 1.4.15.55.2 1.25.3 1.2.25 1.35.2 1.05.2 1.05.2 1.05.2 1.2.25 1.2.15.85 1.4.05.4.05q1.2.35 2.2 1.3l.45.4 1.85 2.05.45.8.6 1.45.75 2.7.1 1.1.4-.3.6-1 .95-1.45.25-.5.65-.85M-87.9-85.15l.05-2.8 4.55-4.4.2 3.25.65-.35 3.2-12 3.35 3.95-2.4 8.5-.1 2.15.1.05 2.7.1-2.15 1.1-.75.35-.2 3.9-4.2-5.55-2.9-1.3-.8 1.15-1.3 1.9" transform="translate(192.55 294)"/><path fill-rule="evenodd" fill="#ff9" d="m80.25-95.5-.05-4.6 3.45-6.2 2.7-1.8 1.1 1.05-.05 7.7L84-97.2l-3.75 1.7M75.5-74.95h3.45v1.3l-.9.45-4.4 1.9-1.3.4-4.05.15-.15-.1-.3-1.4-.15-1.6q-.15-.7.2-1.15l1.4-1.95.4-.55 3.3.55 2.5 2M-72.9-55.5l-.25-1.4 3.25-.55 1.85-2.35q1.55-.8 3-1.05l.45.5 1.55 1.7q.4.35.45 1.05l.15 1.65q.05.65-.05 1.4l-.15.05q-1.8.9-3.7.6l-1.3-.25-4.4-1.05-.85-.3m-5.8-25.85.75 4.5-3.75-1-3.45-1.6-1.45-7.6.8-1.15 2.9 1.3 4.2 5.55m34.8-27.1-2.5 6.15q-.8.3-3.4 3.35l-1.95 2.15-.15.05v-.05l-.05.15-.05-.2v-.05l-.1-.1-1.3-1.55-.35-.4-4-4.9-2.25-4.55q-1.1-7.75 0-14.85 1.2-4 2.85-7.05l-.4.2-.15.2-.15.05q-1.05.95-1.7 2.25l-.2.35-.15.35-.2.3-.7 2.1-.15.45-.1 1.3-.1.6-.35 2.75-.1 1.3.05 2.95.05.6v.25l.35 2.75.2 2.9v4.8l-.1.9-.15 1q-3-4.8-4.55-10.15l-.8-5.2 2.65-6.75 4.15-6.4.9-1.55.55-1.3 1.8-3.1.05-.1.4-.7.45-.85 1.65.4.4.3.15.35v.05q.7 3.4 1.75 6.75l.9 2.85.1.4-.4 3.7.95.2-.95 14.1.2-.3 2.1-5.15q1.95-4.85 7.1-7.9 1.65-1.05 3.15-1.6l2.9-.55h.95l1.5.3.75.15-.35.2-3.1 2.25-7.3 11.2-.75 1.9m119.85 3.65 2.45.7.65 3-.2.55-1.4 2.7-.55.7-.45 1.15-.2.1-.2.4-.7.5-5.2.6v-4.2l2.6-4.2 2.55-2.2.65.2M-55.8-115.65v4.4h1.7v-1.05h-1.1l1.2-5.5.65-.2v-1.65h-1.2l-1.25 4m-9.55 0 .9.15 1.2 4.25h1.2l-2.25-4.95h-1l-.05.55M-75.6-86.7l.55-.3 2.75 1.75 3.1 3.7.7 4.15-4.8.3-.75-.4-.25-.35-.2-.1-.65-1.05-.6-.6-1.8-2.45-.25-.45.05-3.1 2.15-1.1" transform="translate(192.55 294)"/><path fill-rule="evenodd" fill="#f3b016" d="m89.2-105.45.85 3.95-5.65 10.15h-4l-.15-4.15L84-97.2l3.4-2.15.05-7.7 1.75 1.6m-9 5.35L77.05-93l-3.6 3.45-1.65-1.15-1.65-1.2v-2.5l5.2-.6.7-.5.2-.4.2-.1.45-1.15.55-.7 1.4-2.7.2-.55-.65-3 .9.25.9 3.75m-1.25 26.45v2.7L70.7-65.3h-3.45l-3.1-4.2v-3.1l2.25-3.75.3-.45.35-.5.1.1 2.55-.3-.4.55L67.9-75q-.35.45-.2 1.15l.15 1.6.3 1.4.15.1 4.05-.15 1.3-.4 4.4-1.9.9-.45m-139.7 24.4-3.15.55-8.5-4.2-.5-2.6.85.3 4.4 1.05 1.3.25q1.9.3 3.7-.6l.15-.05q.1-.75.05-1.4l-.15-1.65q-.05-.7-.45-1.05l-1.55-1.7-.45-.5 2.35-.1.2-.1.3.4.4.4 2.65 3.35.55 3.05-2.15 4.6m-8.6-24.25-1.25 1.45-4-2.85-4.1-6.45.2-3.9.75-.35-.05 3.1.25.45 1.8 2.45.6.6.65 1.05.2.1.25.35.75.4 4.8-.3.45 2.5-1.3 1.4m-8.6-3.35.65 4.15-3.7.6-7-9.05.1-4 1.3-1.9 1.45 7.6 3.45 1.6 3.75 1m44.45-23.2-2.25-3.95 4.4-11.85-.3-1.65v-.05l2.35-1.5v17.95l-1.9 4.75-2.3-3.7m-12.9-2.25-4.5 12.65h-1.8l-5.25-7.65q-1.8-2.25-3.25-4.65l.15-1 .1-.9v-4.8l-.2-2.9-.35-2.75v-.25l-.05-.6-.05-2.95.1-1.3.35-2.75.1-.6.1-1.3.15-.45.7-2.1.2-.3.15-.35.2-.35q.65-1.3 1.7-2.25l.15-.05.15-.2.4-.2q-1.65 3.05-2.85 7.05-1.1 7.1 0 14.85l2.25 4.55 4 4.9.35.4 1.3 1.55.1.1v.05l.05.2.05-.15v.05l.15-.05 1.95-2.15q2.6-3.05 3.4-3.35m-9.2-35.75.25-.55.1-.15-.2-.55-.25-.6-.1-.25-.15-.5-.3-.6-.1-.55v-.2l-.25-.4-.15-1.45.5.85.45.1.05-.4v-.2l.05-.15.1-.1.05-.1.25.6.1.25.2.4.3.5h.05l-.1-.4v-.25l.45.55h.05l.15.25.15.15-.05-.3.55.45.05.1.75.5.05.1.15.15.1.15.3.35.05-.5.15.6q.2.15.4 0l.4-.7v-.15l.1-.05v.15l.3 1.35.05.05q.2.15.45 0l.2-.15-.05.65v.1l.05.65 1.2.7h.15l1.1.3v-1.25l2.2 1.75.55.45.3.1 5.35 1.15 1.05 1v2.15l-7.35-1.2.4 7.55 9.1-4.1-.6 2.25.9-1.1.05-.05 3.85-4.55 1.1 5.5 1.5-5.75.75.5v.05l2.2 1.4 1 3.65-2.05 1.9-.3.25-1.8 1.65-3.5-.25.4.25-.75-.15-1.5-.3h-.95l-2.9.55q-1.5.55-3.15 1.6-5.15 3.05-7.1 7.9l-2.1 5.15-.2.3.95-14.1-.95-.2.4-3.7-.1-.4-.9-2.85q-1.05-3.35-1.75-6.75v-.05l-.15-.35-.4-.3-1.65-.4m-.2 22.4 1.25-4h1.2v1.65l-.65.2-1.2 5.5h1.1v1.05h-1.7v-4.4m-9.55 0 .05-.55h1l2.25 4.95h-1.2l-1.2-4.25-.9-.15" transform="translate(192.55 294)"/><path fill-rule="evenodd" fill="#48498c" d="m38.55-99.3 8.7 3.35 2.25 6.4.45 1.35-5.25-3.15.5 1.2-13.4-6.7 1.6-4.4 5.15 1.95m18.35 5.05 5.85-22.6 4.9-6.55h2.5l4.15 7.9 4.1 7.95.45 2.1-.05.1q-1.2.9-2.85.55l-.65-.2-2.55 2.2-2.6 4.2-1.7-3.95-1.75 9 .2.1.35.25v3.5l-.05 1.2-.05 1.4v1.1l-.05 1.05v4.35l-1.45.3-.45.15q-1.25.55-2.05 1.65l-.4.45-1.6 2.35-.3.85-.4 1.6-.2 2.75q-.05.6.05 1.15l-.45-.3-.8-.85q-.85-.5-1.35-1.25l-.35-.5-.8-.7-.55-6.2.55-9.35.1-1.5.25-4.25m20.1-25.7.85-1.2 4.85-2.6 4.6 9.25 1.3 6.3-5.55-3.55.35 3.3-.7-.25-5.7-11.25m-129.75 55.2.6 6.25-.65.85-.25.5-.95 1.45-.6 1-.4.3-.1-1.1-.75-2.7-.6-1.45-.45-.8-1.85-2.05-.45-.4q-1-.95-2.2-1.3l-.4-.05-1.4-.05-.15-.85-.25-1.2-.2-1.2-.2-1.05-.2-1.05-.2-1.05-.25-1.35-.3-1.2-.2-1.25-.15-.55-.2-1.4v-.2l.2-.35.2-.1-3.2-8.6-.9 4.15-3.1-3.7-2.75-1.75-.55.3-2.7-.1-.1-.05.1-2.15 2.4-8.5 2.4-8.4 2.3-.45 5.7 5.7 9.35 21.2.8 3.65.25 1.05 2.35 10m-35.1-23.2.1-6.4 2.6-9.9 4.95 1.75.95 1.05-3.2 12-.65.35-.2-3.25-4.55 4.4m40.25 5.25 9.8-6.2v1.4l2.35-2.05 1.9 3.45-11.15 8.8.25-1.2-4.3 3.85v-.5l1.15-7.55" transform="translate(192.55 294)"/><path fill-rule="evenodd" fill="#352b80" d="m56-79.15-4-4.55h-9.3l4.15-2.55-1.65-3.9-.5-1.2 5.25 3.15-.45-1.35.55.85.55.8.2.4.3.1 2.7.45h.55l1.2-.85 1-.7-.55 9.35M-45.55-73.2l4.25 1.9-8.55 1.5-2.9 5.05-2.35-10 3.55 1.85 2.8-2.25v.5l4.3-3.85-.25 1.2-.85 4.1m-14.2-57.25-2.1-1.3-.7-1.65 3.7 1.4-.9 1.55M-64.4-139l-.75-2.05v-.15l-.15-.4v-.1l-.15-2.4.15-.6.1-.3.15-.9q2.15.1 4.3 2.45l.3.35.05.1-.35.1-.05.1-.5.4v.05l-.05.05q-1.15-.9-2.2-1l-.1.05q-.5.95-.6 2.05l.05 2.15-.2.05m7.5.25.05-.1.5.55.3 1.1-.4.7-.05-.05-.75-1.75.25-.6v.5-.1l.15-.1-.05-.05v-.1m8.35 1v-3.35l.25-2.05q.75.55 1.5.8l-1.2 3.2.4.55v1.15l-.95-.3m1.85-12.15 2.05-4.1h.05l2-1.25.45-.05q1.2.5 2.05 1.35l-.05.05.35.35.1.1q1.65 3.05 2.05 6.65.3 2.7-1 5 .5-1.3.3-3.3-.5-4.25-2.45-5.75l-1-.15q-.65-.05-1.65 1.5l-.6-.2-2.65-.2m22.1 51.15.15-.35.15.55-.3-.2" transform="translate(192.55 294)"/><path fill-rule="evenodd" fill="#d47e2f" d="m67.05-77.35.1-.05v.2l-.1-.15M-62.6-61.1l-.1.15q-.2-.35 0-.25l.1.1" transform="translate(192.55 294)"/><path fill-rule="evenodd" fill="#5ec254" d="m67.05-77.35.1.15-.1-.1v-.05M-62.55-61.1l-.15.15.1-.15h.05" transform="translate(192.55 294)"/><path fill-rule="evenodd" fill="#9b4a0f" d="m-40.5-167.4.65.35.05.05-.25.35-.45-.75m77.7-46.9.25-.2.15.2v.05l-.4-.05m-89.75 62.65h-.1l.15-.5v-.15h.05l-.05.15-.05.5m3.95 14.05.05-.15.95.3h.1v.15l-1.1-.3m.7-7.8-.4-.05.1-.6.1-.4.4.1-.2.95m7.9-8.45.3.4-.1-.1-.35-.35.15.05m14.3 17.05.3.05-.05.1q-.3.6-.25-.15m-5.45-.85h-.05l.05-2.05v2.05m.75-14.75.45-.1-.4.35-.05-.25m-26.15 15.95.05-.1v.15l-.05-.05m53.9-23.6.35.1-.4 1.4.05-1.5m15.15 40.2 1.45.55-.2.2-1.25-.75m-8.95 9.9v.05-.05" transform="translate(192.55 294)"/><path fill-rule="evenodd" fill="#fece2c" d="m-63.95-153.65.05.05.15.7-.3-.65.1-.1" transform="translate(192.55 294)"/><path fill-rule="evenodd" d="M-60.4-143h.05v-.15l.25.25.15.15.15.15.15.2.4.45.4.4 1.85 2.65.1.05v.05l-.1.05v-.15l-.25.6-.1.1-.1.15-.15.15-.65.35h-1l-.75-.35-.65-.55.3-.05q.35-.15.45-.55l-.15-.95-.7-.7-.7-.1-.15.25-.1-.35v-.45l.2-.55v-.05l.15-.35.15.1-.1-.15v-.05l.5-.4.05-.1.35-.1m12.1-.25.2-1 .05-.3.15-.85.2-.95.35-1.35.6-2.15.05-.05 2.65.2.6.2.8.65.05.05.7.9-.5-.05h-.35q-.65.1-1.1.5-.55.55-.5 1.35-.05.75.5 1.3.6.55 1.45.55l.55-.05-.8 1q-1.2 1.15-2.85 1.15h-.2l-1.1-.2q-.75-.25-1.5-.8v-.1m0-2.2-.1.65.2-1.3.1-.8.2-.65-.2 1.1-.1.4-.1.6m-10.75 5.1-.2.35.15.45q.15.25.4.3l.45-.05q.15-.15.15-.4l-.1-.45-.4-.3-.45.1m12.55-5.3-.7.1-.4.7.3.75.65.5q.4.1.75-.15.3-.25.35-.65l-.25-.8-.7-.45m11.05 56.1.45-.35 1.6 3.75-.15.05-1.9-3.45" transform="translate(192.55 294)"/><path fill-rule="evenodd" fill="#fff5d5" d="m-38.65-141.8-.95 1.4-.15.15q-1.95 2.3-4.85 3.25l-.6.2h-.1l-2.2-1.75-.1-.05-.4-.55 1.2-3.2 1.1.2h.2q1.65 0 2.85-1.15l.8-1-.55.05q-.85 0-1.45-.55-.55-.55-.5-1.3-.05-.8.5-1.35.45-.4 1.1-.5h.35l.5.05-.7-.9-.05-.05-.8-.65q1-1.55 1.65-1.5l1 .15q1.95 1.5 2.45 5.75.2 2-.3 3.3m-22.7-.5-.15.35v.05l-.2.55v.45l.1.35.15-.25.7.1.7.7.15.95q-.1.4-.45.55l-.3.05.65.55.75.35h1l.65-.35h.05l.1-.15.1-.15.1-.1.75 1.75-.05.1q-.2.6-1.4 1.5-1.65-.15-3.45-1L-63-137l-.9-1.05-.2-.35-.1-.65-.05-2.15q.1-1.1.6-2.05l.1-.05q1.05.1 2.2 1m2.3 1.95.45-.1.4.3.1.45q0 .25-.15.4l-.45.05q-.25-.05-.4-.3l-.15-.45.2-.35m12.55-5.3.7.45.25.8q-.05.4-.35.65-.35.25-.75.15l-.65-.5-.3-.75.4-.7.7-.1" transform="translate(192.55 294)"/><path fill-rule="evenodd" fill="#791d17" d="M-48.3-143.15v-.1.1m8.2-10.8.1.1-.15-.05.05-.05m-21.2 11.6.1.15-.15-.1.05-.05m-2.9 3.3.1.65-.3-.6.2-.05m7.7 2.65v-.15l.05.05-.05.1" transform="translate(192.55 294)"/><path fill-rule="evenodd" fill="#ad2c20" d="M-52.5-152.3v-1.05l.1-.25-.1 1.3" transform="translate(192.55 294)"/><path fill-rule="evenodd" fill="#f60" d="M-3.75-170.2v-8.9l1.95 6.65-1.95 2.25M15-202.45l-1.45-6.3 2.85 3.85-.9 2.45H15m-64.55 61.15.05.2.15 1-.15-.6v-.4l-.05-.1v-.1m-5.1-3.15-.1-.15-.05-.05h.05l.1.2m-.2-.3h.05v.05l-.05-.05m20.45 4.25.15-.85v.5l-.1.2-.05.15" transform="translate(192.55 294)"/><path fill-rule="evenodd" fill="#fc0" d="m-55.35-138.6-.1-.7.2.55-.1.15m17.3 6.65.05.95 3.25-3-1.15 4.3-9.1 4.1-.4-7.55 7.35 1.2" transform="translate(192.55 294)"/><path fill-rule="evenodd" fill="#fedd92" d="m-45.2-136.8.75.55-.3-.1-.55-.45h.1" transform="translate(192.55 294)"/><path fill-rule="evenodd" fill="#6763c7" d="m34.5-169.55-3.8 8.5 3.25 3.1H30.5l-8 5.25v5.7l-2.75 4.3v-8l-3.1 9.5 2.05 2.15.7 2.15-7.15.8-1.6-1.55-6.15-2.7-2.4-5.7 6-6.85 1.35-4 1.2 2.9 9-7.25 9.2-13.55 1.65 9.1 4-3.85" transform="translate(192.55 294)"/><path fill-rule="evenodd" fill="#fed067" d="M29.9-113.65h.2l.85.55v.25l-1.05-.8m-1.25-.1H27.2v-.1l1.45.1" transform="translate(192.55 294)"/><path fill-rule="evenodd" fill="#e9a228" d="m16.55-103 .1-.25.05-.3.05.05-.1.55-.1-.05m2.55-12.7-.2.1-.3-.45-.1-.15h.05l.25.2.3.3" transform="translate(192.55 294)"/><path fill-rule="evenodd" fill="#302d7d" d="m33.7-91.5-2.65 3.15-1.55.3-2.85 8v21.85l-1.1 1.2-9.35-17.6L5.4-64.1l1.75-7.85-1.75.55-3.45-7.1-10.5 3.45.1-1.5 1.05-.95-8.35 2.35 6-4.35 1.2-3.15.5-2.6-2 1.4-14.4 6.5-9.9-2.8-.1-.3-.2-.3 2.6-2.35-1.05-2.3.4-.15.7-.15 1.55-.45.85-.25 1.7-.55q1.4-.45 2.65-1.25l3.7-2.4-.7-1-.3-.75-.3-.65-.25-.45-.35-.65-.45-1.7-.1-1.25-.3-1.5-.15-.55-.05-.35q-.3-1.8-.9-3.45l-.45-.85-2.25-3.25.75-.9 3.3 4.1 9.3 3.15 3.95 5.25 8.6 4.35 11.5-1.2 2.2-2.6 1.15-.05.15-.05.65-.4.2-.15.8-.95.75-1.15 1-2.1.3-.95.2-.85q4 2.8 9.1 2.35l2.45.05-.85 1.9v3.2l6.3 2.5" transform="translate(192.55 294)"/><path fill-rule="evenodd" fill="#de9f0c" d="m-32.4-124-.4-.25 3.5.25v4.95l-2.35 1.5-1.1-6.25.35-.2" transform="translate(192.55 294)"/><path fill-rule="evenodd" fill="#8c221a" d="m-35.75-104-3.45-7.25 3.35-10.3 3.1-2.25 1.1 6.25v.05l.3 1.65-4.4 11.85" transform="translate(192.55 294)"/><path fill-rule="evenodd" fill="#f30" d="m-39.2-111.25-.25 1q-.75 5.8 0 12l-2.95-4.7-1.5-5.5.75-1.9 7.3-11.2-3.35 10.3" transform="translate(192.55 294)"/><path fill-rule="evenodd" fill="#4aa2a0" d="m-62.55-61.1.05.05-.2.1.15-.15" transform="translate(192.55 294)"/></g></defs><path fill="none" d="M-1-1h630v435H-1z"/><g transform="scale(2)"><use x="161.05" y="238.5" xlink:href="#c" width="381" transform="translate(-192.55 -294)" height="381"/><use x="230.467" y="341.299" xlink:href="#d" width="446.85" transform="translate(-160.048 -237.648) scale(.6988)" height="278.65"/><use x="-17.154" y="-33.257" xlink:href="#e" width="102.95" transform="matrix(1.8072 0 0 1.6538 83 126.3)" height="45"/></g></svg>