<svg width="334" height="646" xmlns="http://www.w3.org/2000/svg" xmlns:xlink="http://www.w3.org/1999/xlink"><defs><path fill-rule="evenodd" fill-opacity="0" fill="#f0f" d="M0 0h102.95v45H0V0" id="a"/><use xlink:href="#a" width="102.95" height="45" id="c"/><g id="b"><path stroke-opacity="0" stroke-linejoin="round" stroke-linecap="round" stroke="#f0f" fill="none" d="M187.95-293.5v380h-380v-380h380M92.95.6H-97" transform="translate(192.55 294)"/><path stroke-opacity="0" stroke-linejoin="round" stroke-linecap="round" stroke="#f0f" fill="none" d="m187.95-293.5-190 190 190 190m-380-380 190 190L-192 86.5" transform="translate(192.55 294)"/><path fill-rule="evenodd" fill="#f4e8e0" d="M7.4-46.4h8l-5.35 15.2-5.1 14.6-.6 1.75L2.3-9l1.75 1.35v6.4L.85-.15-2.35.9v-4L-8.6-6.15l-4.85 5.7h-3.7l-2.3-4.95L-8.5-9.6l6 1.85L-5.3-13 7.4-46.4M3.75 41.8l.65.8v5.6L.85 52.7.3 53l-.5-2.7-.3-.45 1-1.35-2.35-4.85H-8.6l-2.7 2.3-.5.8-.65.35-1.2.55-1.15 1.5 1.15-1.5 1.2-.55-14.1 19.35-.8-.75-.85-.75-4.7 1.2 6.95-4.55.8-1.05.45-.65 7.85-8.25 2.05-2.5-3.55-4 7.2-2.45 4.2-.9 1.65-1.95V19.9l-2.3-3.55L-3.7 13l2.5-5.05-2 .7h-2l-2.4 2.7-6.2-3.05h5.45l3.8-5.9 1.65-.5v2.05h5.25l2.05 5.7L2.2 14l-2.85 1.55-2.85 1.5 2.85-1.5v20.5l2.5 3.3 1.9 2.45m-23.2 32.55-.2.95-1.2 2.4-2.9 2.9-3.6-.35-2.45-1.5.75-3.4 1.95-2.8 2.3-.45 3.55.45 1.8 1.8M-25 69.5l-3.05 2-2 3.75-2.95.95-1.2 3.95h-5.25l-4.4 2.3-4.65-1.9 6.1-2.1 5.95-5.8 2.85 2.9 1.1-.8-3.35-3.95 9.3-4.35 1.6 1.4-.05 1.65M.5-10.35 2.3-9 .5-10.35m-3.4 14.3v2l-2.3 2.7 2.3-2.7v-2m4 46.45-.6-1.9.6 1.9m-9.15-4.3.6.1-.15 20.65h-2.5l2.05-20.75m2.6.4 1.05.15L-.1 67.2l-1.75-.7-1.85 1.1-1.75-21.1m-5.2-.35.7-.35.75.15-8.05 20.55H-21l-.1-.05 10.45-20.3M-33 76.2l-.6-.65.6.65m5.4-5.6-.45.9.45-.9" transform="translate(192.55 294)"/><path fill-rule="evenodd" fill="#fffcf2" d="m.3 53 1.4 8.15 2.7 7.2-1.2 2.95.65 3.45-1.1 1.7v.05l.4 1.55-1.2 3.45-4.05.65-3.85-3.7.05-3 .05-1.2.35-1.15-.75-1.55.75 1.55-.35 1.15-1.05.6-1.4.65V77l-2.35 3.2v.05l-2.4 1.75-2.8-.4v-4.45l1.15-1.45.6-.75-.7-1.6.8-1.95 2.9-1.4 4.1.05.75 1.5 2.1-2.25 3.95-.5 2.65.75-.75-1.7-1.8-.65-4.3-20.55 1.85.25 2.05 2.95.3.45.5 2.7m-16.1 17.65.4 1.15-.8 1.8-3.25.75 1.2-.65v-.55l-3.4-1.95h-2.7l-.45.9.65-2.4-.85-.2.05-1.65-1.6-1.4 14.1-19.35.65-.35.55-.25.6-.35-10.45 20.3.1.05-.2.2-1.9 1.25v1.35l3.15-1.3 3.8 1.5.35 1.15m-32.7 9.9v-3.2l3.3-1.3-4.2-.75-1.65-2 5.8-3.7h3.1l1.05-.9 1.55.5 6.35-1.95 1.1-.8 4.75-.75.8.75-9.3 4.35-2.75.95-.3.9h-2.45l-2.05 2.7-1.8.7 1.8-.7 2.05-2.7h4.9l-5.95 5.8-6.1 2.1m12.15-13.5v-1.9l6.4-2.7 4.7-2 .1.1-.8 1.05-6.95 4.55-3.45.9m18-21.9 2.85-5.2 6.1-1.55-1.85-19-9.1-5.7V8.3l6.55-5.05v2.5-2.5l5.4-4.35 3.85 3.5-3.8 5.9h-5.45V5.75L-15.5 10l6.4 3h5.4l-3.9 3.35 2.3 3.55v19.95l-1.65 1.95-4.2.9-7.2 2.45m-1.1-50.55L-20.2-7l6.55-6.05L-.6-46.4h8L-5.3-13l2.8 5.25-6-1.85-10.95 4.2m12 51.6 2 .3 1.75 21.1-2.85 1.6-1.05-2.35.15-20.65M3.2 71.3l-.75-1.75.75 1.75M-9.2 45.95l1.15.15-2.05 20.75-1.85 2.1h-2.8l-2.5-2.45 8.05-20.55m-11.9 20.5-.1.25.1-.25m-2 1.5-1.05.65-.8-.75.8.75 1.05-.65m0 1.35-1.05.4 1.05-.4M2.35 76l-.8-2.4H-3.2l-2.65.65.3 2.1 3.3-2 3.85.75.75.9.4.45-.4-.45m-9.25-1.15-.8-.55.8.55m-1.4.65-2.9-1.45-3.5 1.65 3.5-1.65 2.9 1.45m-31.25-6.3-1.55 1.25-1.05-.85 1.05.85 1.55-1.25m9.6-6.75-6.4 3.65 6.4-3.65m-11.15 8 .95 2.2-.95-2.2" transform="translate(192.55 294)"/><path fill-rule="evenodd" fill="#d5beb0" d="M10.05-31.2v6.85l4.75 4.7-2.55 4.6H9.9l-.3 1.95 5.2 2.2 1.65 5.55L11.1-2.3V11l4.2 1.5-.7 1.1 2.3 1.1 1.55 2.2-3.35 5.2 3.35 8.25-3.15 3.85v3.7l-1.5 1.65-1.55 1.55-4 .7v-1.45L6.4 41.8l-1.05-.75-1.6.75-1.9-2.45-.15-1.8 2.75-2.1v-2.6H3.5L6.55 20.4l-1.35-.75-1.25-.75h-2.6l-2-3.35L2.2 14l2.2-4.35-2.05-5.7H-2.9V1.9l-1.65.5-3.85-3.5-5.4 4.35.35-3.7 4.85-5.7 6.25 3.05v4L.85-.15l-2.2 2.45L-.3 3.95-1.35 2.3.85-.15l3.2-1.1v-4.9L9.6-8.4v-4.7l-5.25-1.75L9.6-13.1v4.7L4.05-6.15v-1.5L2.3-9l2.05-5.85.6-1.75 2.6 1.55H9.9 7.55l-2.6-1.55 5.1-14.6M-14 71.4l-.5-.75h-1.3l-.35-1.15-3.8-1.5-3.15 1.3v-1.35l1.9-1.25.2-.2h3.75l2.5 2.45h2.8l1.85-2.1h2.5l1.05 2.35 2.85-1.6 1.85-1.1 1.75.7 1.8.65.75 1.7-2.65-.75-3.95.5-2.1 2.25-.75-1.5-4.1-.05-2.9 1.4m-27.1-2.7-1.55-.55 6.3-1.1 3.45-.9 4.7-1.2.85.75-4.75.75-1.1.8-6.35 1.95-1.55-.5m27.3-62.95V8.3l6.2 3.05 2.4-2.7h2l2-.7L-3.7 13h-5.4l-6.4-3 1.7-4.25m28.4 7.85-2 2.95-6.05 2.35h-2.6 2.6l6.05-2.35 2-2.95m-3-21.3-7.55 4 7.55-4M5.35 41.05l-1-.75V38l3.95-2.45.95-2.2-1.2-.6.85-12.35H6.55v-1.5 1.5h4.35l.5-1.1 1.2-2.75-1.2 2.75-.5 1.1h-2l-.85 12.35 1.2.6.95-.65-.95.65-.95 2.2L4.35 38v2.3l1 .75m2.9-.7v-1.4l2.1-1.55 2.1-1.5v-2.7L11.1 32l-.9.7.7-12.3-.7 12.3.9-.7 1.35 1.2v2.7l-2.1 1.5h2.75l.7 2.15-.7-2.15h-2.75l-2.1 1.55v1.4m-.2-7.6-1.2-.6-1.2 1-1.2 1 1.2-1L7.9 20.4 5.65 33.15l1.2-1 1.2.6m7.25 1.45-.85-1h-2L11.4 19.3l1.05 13.9h2l.85 1M3.95 18.9l1.25.75 1.35.75L3.5 32.85h.95v2.6l-2.75 2.1.15 1.8-2.5-3.3V34l.75-1 1.6.9-2.35 2.15L1.7 33.9.1 33l-.75 1v-4.15L1.9 21.3l2.05-2.4m1.25.75-5.85 12.3 5.85-12.3m-16.5 26.3 2.7-2.3h6.75L.5 48.5l-1 1.35-2.05-2.95-1.85-.25-1.05-.15-2-.3-.6-.1-1.15-.15-.75-.15-.7.35-.6.35-.05-.55M-24.8 72.1l.45-.9h2.7l3.4 1.95v.55l-1.2.65-1.8-1.8-3.55-.45m18.95 2.15 2.65-.65h4.75l.8 2.4-.75-.9-3.85-.75-3.3 2-.3-2.1M.1 33l6.45-12.6L1.7 33.9l1.8-1.05-1.8 1.05 4.85-13.5L.1 33m-39 39.65.3-.9 2.75-.95 3.35 3.95-1.1.8-2.85-2.9h-2.45" transform="translate(192.55 294)"/><path stroke-width="2.5" stroke-linejoin="round" stroke-linecap="round" stroke="#aba198" fill="none" d="m207.95 247.6-5.35 15.2v6.85l4.75 4.7-2.55 4.6h-2.35l-.3 1.95 5.2 2.2 1.65 5.55-5.35 3.05V305l4.2 1.5-.7 1.1 2.3 1.1 1.55 2.2-3.35 5.2 3.35 8.25-3.15 3.85v3.7l-1.5 1.65-1.55 1.55-4 .7v-1.45l-1.85 1.45-1.05-.75m-1.6.75.65.8v5.6l-3.55 4.5-.55.3 1.4 8.15 2.7 7.2-1.2 2.95.65 3.45-1.1 1.7v.05l.4 1.55-1.2 3.45-4.05.65-3.85-3.7.05-3-1-.6m-1.4.65v1.5l-2.35 3.2v.05l-2.4 1.75-2.8-.4v-4.45l1.15-1.45m.6-.75-.7-1.6.8-1.95m-1.8-.75.4 1.15-.8 1.8-3.25.75-.2.95-1.2 2.4-2.9 2.9-3.6-.35-2.45-1.5.75-3.4 1.95-2.8 2.3-.45.65-2.4m-.85-.2-3.05 2-2 3.75-2.95.95-1.2 3.95h-5.25l-4.4 2.3-4.65-1.9v-3.2l3.3-1.3-4.2-.75-1.65-2 5.8-3.7h3.1m1.05-.9-1.55-.55 6.3-1.1m0-.95v-.95l6.4-2.7 4.7-2m.55-.55 7.85-8.25 2.05-2.5-3.55-4 2.85-5.2 6.1-1.55-1.85-19-9.1-5.7v-5.4l6.55-5.05.35-3.7h-3.7l-2.3-4.95-.75-1.6 6.55-6.05 13.05-33.35m-.05 61.95 2 3.35h2.6m-4.6 10.95 2.55-8.55 2.05-2.4m-4.6-3.35v14.3m-7.05 44.45.8.55"/><path stroke-width=".05" stroke-opacity=".251" stroke-linejoin="round" stroke-linecap="round" stroke="#000" fill="none" d="m197.9 335.05-1.6.75m-18.45 33.9.6-.75m.1-3.55-.5-.75h-1.3m-8.35-.95-.85-.2.05-1.65.8.75 1.05-.65v1.35l3.15-1.3 3.8 1.5.35 1.15m-26.35-1.05 1.05-.9 1.55.5 6.35-1.95 1.1-.8 4.75-.75-.85-.75-4.7 1.2-3.45.9v-.95l6.4-3.65m4.7-2 .55-.55m10.9-56.65v5.05l6.2 3.05 2.4-2.7 2.3-2.7v-4.05l-1.65.5-3.85-3.5-5.4 4.35m16.1-12.25-1.8-1.35m-.8 14.3h2.65l2.05 5.7-2.2 4.35-2.85 1.55-2.85 1.5m7.45 1.85h2.6l6.05-2.35 2-2.95m-17.5-9.65h2.6l-1.05-1.65 2.2-2.45-3.2 1.05v-4l-6.25-3.05-4.85 5.7m23.35-14.6h-2.35l-2.6-1.55-.6 1.75 5.25 1.75v4.7l-5.55 2.25v2.45l7.55-4m-7.55 1.55v-1.5l-1.75-1.35 2.05-5.85m-3.5 14.7 3.2-1.1v-2.45m.9-12.9 5.1-14.6m-3.5 50.1v1.5h4.35l.5-1.1 1.2-2.75m-8.65 2.35 1.25.75 1.35.75-3.05 12.45h.95v1.3l1.2-1 2.25-12.75m3.5-1.1 1.05 13.9h2l.85 1m-4.4-13.8-.7 12.3.9-.7 1.35 1.2v2.7l-2.1 1.5h2.75l.7 2.15m-4.9-19.15-.85 12.35 1.2.6.95-.65m-4.55.45 1.2-1 1.2.6m2.3 4.65-2.1 1.55v1.4m1-7-.95 2.2-3.95 2.45v2.3l1 .75m-.9-6.9v1.3l-2.75 2.1.15 1.8 1.9 2.45m-8.95-33.15h2l2-.7-2.5 5.05m-10.1-7.25-1.7 4.25 6.4 3h5.4m3.05 23.05 2.35-2.15-1.6-.9-.75 1v2.05l2.5 3.3m-2.5-9.5v2.1l5.85-12.3m-5.85 12.3V328m-10.65 11.95 2.7-2.3h6.75l2.35 4.85.6 1.9m-1.6-.55.3.45.5 2.7m-4.7-6.35 1.85.25 2.05 2.95 1-1.35m-8.55-2.4.6.1 2 .3 1.05.15 4.3 20.55 1.8.65.75 1.7.75 1.75m-13.85-25.15.7-.35.75.15 1.15.15-2.05 20.75h2.5l.15-20.65m-4.35.55.5-.8.05.55.6-.35-10.45 20.3m.1.05h3.75l8.05-20.55m-2.6.8.55-.25m-3.55 2.65 1.15-1.5 1.2-.55.65-.35m-13.35 13.8.45-.65m-8.2 6.25 6.95-4.55.8-1.05m7.9 5.95 2.5 2.45h2.8l1.85-2.1m-10.9-.35-.2.2-1.9 1.25m1.9-1.25.1-.25m-6.25-.75.8.75 14.1-19.35M166 360.45l1.6 1.4m5.5 6.5 1.2-.65v-.55l-3.4-1.95h-2.7l-.45.9 3.55.45 1.8 1.8m-4.7-4.65 1.05-.4m19.4-1.7 1.85-1.1 1.75.7m2.55 2.35-2.65-.75-3.95.5-2.1 2.25.75 1.55-.35 1.15 2.65-.65h4.75l.8 2.4.4.45m-16.75-5.05 2.9-1.4 4.1.05.75 1.5m-1.35-4.7 1.05 2.35 2.85-1.6-1.75-21.1m-.4 27.75.3 2.1 3.3-2 3.85.75.75.9m-8.2-1.75-.05 1.2m-8.8.25 3.5-1.65 2.9 1.45m14.85-55.1-4.85 13.5 1.8-1.05m3.05-12.45-6.45 12.6m-39 39.65h-2.45l-2.05 2.7-1.8.7m3.05-6.45 1.05.85 1.55-1.25m.65 3.45.3-.9 2.75-.95 3.35 3.95-1.1.8.6.65m-3.45-3.55h-2.45m2.45 0 2.85 2.9m-6.55-2.9-.95-2.2m13.05 1.05.45-.9"/><path fill-rule="evenodd" fill="#f4e8e0" d="m34.15-184.55 3.2 3.35v4.4l17.9 15.85 4.1 1.9 4.1-.9 3.3 1.45v4.85l-1.9 1.35-1.85 1.4h-5.9l-.85 2.85v3.6l-4.35 1.05-1.25-.85.05-3.9 3.1-5.05h2.95l3.3-1.9-25.95-20.7 1.15-2.5-1.1-6.25m37.35 33.6 3.5 5.5-2.45 5.05-1.7.2-1.15-.4-4.4-1.65-7 2.5-2.4-1.4.2-.25h1.15l6.95-3.85h4.9l2.4-5.7m.5 12.8 3.15 6.7-6.8 5-2.45 1.25v12.15l2.1 1.9 1.5 6.25-3.2 3.65-.25.15-1.6-2.75.05-1.05-1.45-4.35-6.15-2.8-5.3 2.8h2.25l-6.45 8.9-3.35 2.1.7 3.15-3.5.6L38.4-91v4.5l-1.9 4.75v-3.95 3.95l-3.15 3.55 1.35 1.6-2 2.65h2.2l3.95 3.9-3.4 5.25-7.3 2.4H23.7l-8.3 16h-8l10.95-12.45v-7.45l-4-4.2-.75-2.25 9.95 4.8 6.45-2 2.7-4h-2.2l-3-1.4-2.4-5.15-4.05-3.75-5.9 1.85-1.6 5.2-3 2.5h-6.5l-9-4.4h-7.95l-5.55-6.55.45-.3.9-.6 2.75-1.9-1.9-6.8-5-2.75-2.8-4.1 8 3.4L-6-86.15l9.5 4.75 3.7-.55 4.25 2.05 2.1-.2v2.9-5.8l8.05-3.7 5.1 1.1.5-.9 1-.8 1.05-.8 3.6 2.1.85.95.9.9 1.9-1.55.8-.7-.8-1.65v-4l2.35-.9-.25-2.7-.7-.5 3.2-2.45v-2.6l10.5-8.05-2.9.75-1.1-1-.45-.35 9.6-5.45 4.65 1.6 1.6-2.1.1-8.55-4.05-8.65 4.25.95 7-1.9 1.7-4.2m-5.6 64.5-6.4 2.2v2.8l-2.5 1.25-3.8-3.05-2.75.55L47-71.45l5-2.35 5.1-8.35-.75-2h2.4l2.85-1 .05-1.7.1-1.7 1.75-1-1.55-4.85-.65-1.3-1.05-11.65 3.45 2.85 2.1 15.95-1.75 1.85v2.85l2.15 3.05q.9.4 1.9.75l.9-.35-.2 1.3-1.9 1.45h-1.15l-1.15-.9-2.2-2.7.75-1.35-1.05-3.95-.45-.3.45.3 1.05 3.95-.75 1.35-.75 1.35-3.2 1.4-3.5 5v2.75l8.95-4.3v-2.1h2.05l.95-.5.65 1.05-1.15 2.95m-21.5-1.3-2.4 1.55L40-75l4.2-7.8v-7.55l4.5.85 1.6-1.1-1.75-2.25 1.35-.3 1-.2 1.5-3.7-.5-2-.1-.1 3-10.1H58l.55.45-1 10.95-3.2 2.7.8 5.25 1.15.6-.25.95-1.45-.2h-1.05l-2.1 1.85v3.8l-2.9 5.4-.9-.85-2.15 1.2.6-2.8 2.15-2.35 1.2-1.85L50.7-86v-2l1.2-2.6-2-2.55 2 2.55-1.2 2.6v2l-1.25 1.85-1.2 1.85-2.15 2.35-.6 2.8-.15.8.15 1-.6.4m-55.55-41.75-9.35 2-4.85-3.55v-2.4l5.8 2.4 4.05-1.3 4.35 2.85m-9.55-9.1-2-.95 4.55-2.35-.55 4.25-2-.95m-32.2 8.8-1.55.4-3.85-3.7h4.2l4.65-4.4-.85-.2-4.65-7.15-9.9-3.95-.45-.7-1.2-2.25h-3.8l-3.5-3.2.8-3.9 2.25-.8 1.6 1.65 1.25-.35 3.35 3.3 2.65-.45.55.95h.95l6.35-5.85 1.85 2.35-1 3.35-.05.05-.3.25-2 1.75 3.2 4.75 2.6 3.5 1.3 1.7h2.3l4.25 1.5v5.8l-3.15 1.95-1.15-.25-2.85-.5-1.6 2.8-.75 1.3-1.5.3m54.2-87.3.25.1 9.8 4.05 3.75 7.85.15 1.95.85 11.7.25 1.85.35 1.5 4.7-4.65 3.65-6.55 4.75-2.7.25-4 3.95 2.25.95 3.8-5.25 1.35-2.1.5-3.6 4.35v2.5l-2.6 3.2-4.15 5.05-1.05 1.3-1.45 2.75-.95.8-1.05.8h-2.4l-1.15-.95 1.15.95h2.4l1.05-.8 1.15 3.25-.95 2.8-2.3.45v3.85l-.95.6-2.95 1.8-1.25.8-3.4 3.85-1.4 1.65-.3-5.8 4.95-4.25v-4.25l-3.1-.8-1.65-1.85 3.95 1.05 2.35-1.1 1.25-2.2-1-1.8-2.9-2.05H2.3l-1.55 3.5-.9.75-2.4-2.5-.95-5.2 3.85 2.35 6.85-3.35 3.75 3 3.55-1.85 2.35-4.15-5.5-3.95-6.6 4.15 3.15-9.7-1.75-12.55-4.35-5.45m27.1 34.35 5.2 5.5v9.9l-1.95 2.7 3.55 4.3v8.75l-3.05 4.45 2.8 3.15v5.7l-3.65 3.05-.6-2.6-1.9-.9 1.45-3.2v-3.5l-5.85 2.4-3.2 1.35h-7.95v-1.95l15-7 3.8-5.5-1.4-7.1-1 1.35-.8.55-5.7 3.75-8.75 5.85H9.7l-3.15-1.8v-3.8L19-146l9.7-11.9v-9.55l-1.15-2.5h1.35m37 56.9L63-115.8l2.9 2.75M50.7-88v-1.95V-88m-15.2 4.8-.9-.95.9.95M60-71.45l-1.2-.2 1.2.2m-5.05-2.05-1.25 1 1.25-1m-1.25 3.05 1.25-.3-1.25.3m-4.25-13.7-1.55.25 1.55-.25M-26.1-157.7l-2.8-3.05 3.5-3 .45.95 2.95 1.2-4.1 3.9m-9.45-10.4-3.55-4.1 3.85-1.7 9.8 3.5v-1.6l-.9-1.4-.85-1.4h5.15l5.65-1.85 6.85 6.7 3.15-1.45v2.1l-1.9 3.55h-2.05l-1.65-1.6-.9-2.6-2-1.75H-18l-1.9 3.5-1.05.9-2.25-.7-1.3 1.65-2.25-.7-7.45-2.25-1.35 1.2m-33.95 4.25 1.3.75 1.05-1.1 1.65 1.9-1.65 1.05v2.7l.7.85-2.05 8.4-1.75.95-.3-.75-.8-10.1.15-.3.95-2.05-.4-.8-1.25-1.15 1.15-.8.35 1.05.9-.6m11.75 3.1-.2.55.6.9.15.25-1.45.5v3.35l-5.25 8.65-2.25.65-.6-2.55 3.2-8.4 3-2-.3-.6 1.5-.55.65-.75h.95m-3 16.85-1.15-2.35 5.7-7.5 2.9-1.6v-.8l1.15-.25.9-.5.25 1.7-.95.35v1.35l-2.4 1.35.6 2.25-5.45 5.7-1.55.3m77.95-31.4.9 3.7-1.4 2.7 1.4-2.7-.9-3.7m-40.4 7.3-2.25-.75v-1.65 1.65l2.25.75m31.35 11.9 1.7-2.35 2.35-.4-2.35.4-1.7 2.35m24 4.25-1 1.4 1-1.4m.5 17.5-.85 1.3-1.05.4 1.05-.4.85-1.3m.7 56.15-1.7.75-3.55-1.8.7-3.4-2.6-2.05.5-.9-.5.9 2.6 2.05-.7 3.4 3.55 1.8 1.7-.75m-89.05-61.1.65-.55-.65.55m-7.45.35H-66h2.85M23.7-62.4l-1.85-.5 1.85.5" transform="translate(192.55 294)"/><path fill-rule="evenodd" fill="#fffcf2" d="m66.85-150.05 4.65-.9-2.4 5.7h-4.9l-6.95 3.85H56.1l.05-.15 1.35-2.35.7-1.2 6.65-4.55 2-.4m3.45 12.2 1.7-.3-1.7 4.2-7 1.9-4.25-.95 4.05 8.65-.1 8.55-1.6 2.1-4.65-1.6-9.6 5.45-.35-.3 1.9-5.35 6.85-1.95v-10.5l-3.6-5.3 1.95-3.7 4.65-1.5 4.6-1.5 3.05 2.8 4.1-.7m-3.9 37.45 1.15 9.95v.05l2.75 5.25-.45 3.4.45.8-1.3.55-.9.35q-1-.35-1.9-.75l-2.15-3.05v-2.85l1.75-1.85-2.1-15.95.75.65 1.6 2.75.35.7M47-71.45l-2.15-2.65.05-.85.6-.4-.15-1 .15-.8 2.15-1.2.9.85 2.9-5.4v-3.8l2.1-1.85h1.05l1.45.2-.65 2.55.95 1.65.75 2L52-73.8l-5 2.35M40-75h-3.9l-1.4-1.6-1.35-1.6 3.15-3.55 1.9-4.75V-91l2.85-3.5 3.5-.6-.7-3.15 3.35-2.1 6.45-8.9h.95l-3 10.1-1.2-1.2h-3.2 3.2l1.2 1.2.1.1.5 2-1.5 3.7-1 .2-1.35.3-1.4.3-2.2-1.3-2.35.4v1.85l1.6 1.25v7.55L40-75M7.4-46.4h-8l.6-1.1L9.7-63l3.25-5.25-3.85.3H7.65l-10.55-7.3H-11l-2.65-1.45-6.2-3.3v-4.7l1.4-.95 5.55 6.55h7.95l9 4.4h6.5l3-2.5-.7 2.2.75 2.25-.75-2.25.7-2.2 1.6-5.2 5.9-1.85 4.05 3.75 2.4 5.15 3 1.4h2.2l-2.7 4-6.45 2-9.95-4.8.75 2.25-1.4 2.25 1.4-2.25 4 4.2v7.45L7.4-46.4m-31.45-55.7 1.8-6.2 2.15-1.7h3.85l5.3 4.1 5.05 1.85-.95 1.75-5.75-1.85v4.2L3-84l4.2 2.05-3.7.55-9.5-4.75-10.05-12.55-8-3.4m-.8-18.55V-123l1.95-1.3 3 .65 1.5.3-.15 1.5 1.7 1.1 1.85 1.2-4.05 1.3-5.8-2.4m-32.95.35v-3.4l-6.45-12-.1-.3 9.9 3.95 4.65 7.15.85.2-4.65 4.4h-4.2m-14.7-25.75-2.3-2.2 1.3-2.05-2.75-9-1.75-1.2v-2.35l1.05-.85-.4-.15-1.15-2 2-1.65.45-3.3v-5.5h.05l2.1-.65.6-2.85 2.1-1.4h1.4l2.05-1.2 2.05-1.25 1.2-2.45h3.3v4.55l-3.9 3.55-.6.55v1.6l-1.05.9-.35-1.35-.4-.1.4.1.35 1.35.3 1.35-3.05 1.15v4.55l.85.75v2.65l-.85.65-.9.6-.35-1.05-.35-1.05-2.85-.9-2.85 1.5.8.15h2.9l1.2 1.1 1.25 1.15.4.8-.95 2.05-.15.3.8 10.1.3.75 1.75-.95 2.05-8.4-.7-.85v-2.7l1.65-1.05-1.65-1.9.55-1.95q1.35-.7 2.65-1.35l2.2-3.7-.4-.6v-1.35l.8-.3v-1.2l.7-1.05 3.45-.95 2-3.7 3.4-2.95 1.65.9-1.35 6.85-2.05 1.8v2.2l-1.2 1.3-.75.3v.65l-.5 1.2-1.05-.6-.65.6-.9 4.2.65 2.35-.75.8-.65.75-1.5.55.3.6-3 2-3.2 8.4.6 2.55 2.25-.65 5.25-8.65v-3.35l1.45-.5-.15-.25-.6-.9.2-.55.65-1.55h1.6l1.35-1.7-.4-.65v-.85l1.4-.65v-1.9l2.2-1.15 3.7-4.2 1.5 1.35-.65 4.4-.45 1.35v1.2l-.85.7.3.45-.2.4 1.05-.6 2.1-.8 1.25 1.55-1.5 2.15-.45 2.05.3.35v2.2l-1.8 1.45.5-.9v-.9.9l-.5.9.45 1.15-1.25.7-.2.9-.7.3-.65.3.05.05-4.6 4.2-6.35 5.85h-.95l-.55-.95-.5-.9-1.3.3-2.1-1.15-.85-1.45-1.25.35-1.25.35-1.6-1.65.55-.2-.55-1.3.55 1.3-.55.2-2.25.8m32-27.85 1.2-1.2v-2.3l3.25-1.35 1.8 1.35 3.95 3 3.95 1 .9 1.4v1.6l-9.8-3.5-3.85 1.7-1.4-1.7m15.75-9.4v-5.95l6.7-12.55 8.35-3.35h9.55l1.95.85 4.35 5.45L7.9-186.3l-3.15 9.7H-.6l-2.9 3.8 2.9-3.8h5.35l6.6-4.15 5.5 3.95-2.35 4.15-3.55 1.85-3.75-3-6.85 3.35-3.85-2.35.95 5.2 2.4 2.5 2.3 1.85 1.65 1.85 3.1.8v4.25l-4.95 4.25.3 5.8-4.5-.5-1.55-.2h-5.5l-5-4.7-2.05-1.5-4.35-2.95-1.3-5.45-2.95-1.2-.45-.95-.45-.95 1.35-1.65-1.35 1.65.45.95-3.5 3-2.3-2.5 4.45-3.8 2.25.7 1.3-1.65 2.25.7 1.05-.9 1.9 3.75 3.7 1.2 2.6-.9 1.35-1.6h2.05l1.9-3.55v-4.2l-2.75-3.4-1.95-5.1h-9.6l-4.05 4.45 4.05-4.45h9.6l1.95 5.1 2.75 3.4v2.1l-3.15 1.45-6.85-6.7-5.65 1.85h-5.15l2.45-2.75v-5.75m48.55-4.75.7-1.5 6.05-3.65-.25 4-4.75 2.7-3.65 6.55-4.7 4.65-.35-1.5-.25-1.85 5-4.4 2.2-5m6.8 3.5h3.55l1.1 6.25-1.15 2.5 25.95 20.7-3.3 1.9H53.8l-3.1 5.05-.05 3.9-2.6-1.8v-5.4l1.85-2.25-13.7-14-4.2-2.25h-4.45l-4.15-2.7v-2.95l3-1.8.8-.3v-4.7l3.4-2.15m1.65 80.35 1.05-1.15h5.85l9.55-3.15 2.9-.75-10.5 8.05-.15-2.7-1.8-1.45 1.8 1.45.15 2.7v2.6l-3.2 2.45.7.5.25 2.7-2.35.9v4l.8 1.65-.8.7-1.9 1.55-.9-.9.9.1-.85-2.55-4.55-2.1-2.4 1 1.4 1.3-1 .8-2.75-1.15v-3.8l3-2 1.6-1.65.15.1v-2.8l2.55-1.1-.6-.6v-3.65l1.1-1.05m26.3-4.6 1.7 1.45L61.3-95.7l.65 1.3 1.55 4.85-1.75 1-1.7 1.05-3.75-1.8-1.15-.6-.8-5.25 3.2-2.7 1-10.95M37.9-96.15l-.85-.6.85.6m-.85-.6-.3-2.15H34l3.05 2.15m7.9 2.9-.2-1.25.2 1.25M42.6-91.6 41-92.8l1.6 1.2m-6.1-2.45v2-2m-.75 4.35.75 1.65-.75-1.65m19.2 18.95v-2.75l3.5-5 3.2-1.4 2.25 2.75v2.1l-8.95 4.3m-6.4-4.6v-2.15 2.15m5.85-12 1 1.55-1-1.55M40.1-85.2l-1.7-1.3 1.7 1.3m25.7-3.35 1.75-1.9-1.75 1.9m-43-30.6-7.55-4.55 1.05-.9 7.15-1.85 1.45-3.8 5.85-2.4v3.5l-1.45 3.2-1.9-.95-4.6 7.75m-32.15-22.2-8.3-7.75 5.8 1.4 3.35 3.65-.85 2.7M-62.1-167l-1.85-.5 1.85.5m2.4-7.05 4.2 2.45-.3-1.45-2.9-1.7-1.85 1 .85-.3m-.85.3-.8.3.8-.3m-12.3-3.6 1.05-.35 4.3 1.3-.65-.95-3.4-1.15-1.3 1.15-1.05.4 1.05-.4m2.45 8.75.9.7-.9-.7m-.25 3.4-.45-.15.45.15m5.7 1.2v1.35l3.25 1.1.45 1.05.7-.95-.3-1.15-3.2-1.65-.9.25-.95.2.95-.2m4.95-1.15 1.4 1.25-1.4-1.25m-4.95 2.5-.55.35.55-.35m-12-1.05.95-.9-.95.9m3.45 13.4.6 1.95 1.15 1.5 1.25-1.35-.05-.9.05.9-1.25 1.35-1.15-1.5-.6-1.95m2.3-9.2-2.2 1.45-2.85-1.25 2.85 1.25 2.2-1.45m7.65 2.65h-2.3l-.6-.85.6.85h2.3m2.7-2.6-.4-1.05.4 1.05m4.4-9.8-.6.55.6-.55m-4.3 25.35-1.15.3 1.15-.3 1.55-.3 5.45-5.7-.6-2.25 2.4-1.35v1.35l1.1 1.05 1.85-.75-1.85.75-1.1-1.05v-2.7l.95-.35 2.2-.85.8.85.15-1.35h-1.75l-1.4 1.35-.25-1.7-.9.5-1.15.25v-.75l1.05-1.2v1-2.05l-2.8-1.65-1.8.6.45.9.9-.3 2.2 1.15v3.1l-2.9 1.6-5.7 7.5 1.15 2.35m2.1-11.3 2.45 1.45-2.45-1.45m-1.55-5.15-.35-1.1.35 1.1m8.45-6.4 3.2.9.55.95.1-1.55-3.4-1-1.85 1.3 1.4-.6m-2.95 5.8-.35.15.35-.15m7.1-2.6-.85 1.65.85-1.65m-.1-.85-.3-.5.3.5m-1.3 1.35-.65 1.35.65-1.35m-3.4-1.75-1.75.8 1.75-.8m2.1 5.35.2-.9h1.65v-1.55l-1.2.2-1 1.9.35.35v1l.4-.7.8-.2-.8.2-.4.7v-1m4.15 2.45v-.95l-1.45-1.65-1.5.25 1.55.6 1.4 1.75m.75-2.6.25.4-.25-.4m-10.1-10.35v-1.65 1.65m5.2 11.5v1l-.95.55.95-.55v-1m2.3 3.25.85.9-.3.95.3-.95-.85-.9m1.35 0h-.05.05m-4.35-5 .35.4-.35-.4m-6.2 1.15.8-.25-.8.25m79.1-16.2 1.5-.35v2.95l4.15 2.7 1.15 2.5v9.55L19-146l-12.45 1.45v-1.1l2.2-.65 2.25-.6h2.3l5.25-3.25L21-151.7l2.55-4 1.1-1.75-1.55-7.15-2.7-4.95-2.65-.65 4.15-5.05m-35.45 13.95 1.4-.9 1.8-3.55-1.8 3.55-1.4.9m-2.9 3.7-2.65-2.85-2.9-1.15 2.9 1.15 2.65 2.85m15.1.75 1.9-.2v-1.85l-3.9-2.65 2 4.7m-8.35-.45h1.4l2.35-4.6-3.75 2.9v1.7m8.05 5.9-4.1 2.15 4.1-2.15m31 2.85.8-.55 1-1.35 1.4 7.1-3.8 5.5-15 7v-.6L17.7-135l8.3-4.2 1.7-.85 2-6.15-.35-2.35M34-98.9l-.8-.6-1.45.6 1.45-.6.8.6m-3.5 2.45-1.3 1.25 1.3-1.25" transform="translate(192.55 294)"/><path fill-rule="evenodd" fill="#d5beb0" d="m64.85-152.3 2 2.25-2 .4-6.65 4.55-.7 1.2-1.25-.55v-3.6l.85-2.85H63l1.85-1.4m4.85 11.7.6 2.75-4.1.7-3.05-2.8-4.6 1.5-.25-1.3 7-2.5 4.4 1.65M0-47.5l-6.25-17.55-7.45-8.8.05-2.85 2.65 1.45h8.1l10.55 7.3H9.1L9.7-63 0-47.5m-17.1-39.05-1.75-2.55 2.6-6.15 1.9 6.8-2.75 1.9m11.2-17.5.45-.8 2.5-2.25-2.45-3.15 1.9-2 .15.15 12.8 7.7.9.5 2.45 1.4-7.6 12.75 4.5 1.8h6.7l6.25-10.65 6.4 3.5-1.6 1.65-3 2v3.8l2.75 1.15-.5.9-5.1-1.1-8.05 3.7v2.9l-2.1.2-4.25-2.05L3-84l-15.6-15.95v-4.2l5.75 1.85.95-1.75.25.05-.25-.05m-17-20.25 1.9-1.25.8-.25 2 .95-.2 1.5-1.5-.3-3-.65m-11.45-8.35-1.05 1.7 1.7 2.1.9 6.85-6 3.15v1.7l-3.35.9-4.9 2.65-5.35-3.4 1.5-.3.75-1.3 1.6-2.8 2.85.5 1.15.25 3.15-1.95v-5.8l-4.25-1.5h-2.3l-1.3-1.7-2.6-3.5 3.45-1.1 2.75-4.55 11.3 8.1m.1-44.75 5.95-5 3.55-.9v5.75l-2.45 2.75.85 1.4-3.95-1-3.95-3m50-12.95H20l2.9 2 .9.3-2.2 5-5 4.4-.85-11.7m14.45 4.55.4 1.25-3.4 2.15v4.7l-.8.3-3 1.8-1.5.35 2.6-3.2v-2.5l3.6-4.35 2.1-.5m24.6 76.55h-3.2l5.3-2.8 6.15 2.8 1.45 4.35-.05 1.05-.75-.65-3.45-2.85-1.7-1.45-.55-.45h-3.2m1.25 20.9.25-.95 3.75 1.8 1.7-1.05-.1 1.7-.05 1.7-2.85 1h-2.4l-.95-1.65.65-2.55m-7.5-4.5 1.75 2.25-1.6 1.1-4.5-.85-1.6-1.25v-1.85l2.35-.4 2.2 1.3 1.4-.3m13.85 11.6 2.2 2.7 1.15.9h1.15l-.95.5H63.9l-2.25-2.75.75-1.35m-25.35-15.5L34-98.9h2.75l.3 2.15M28.2-87.3l-1.4-1.3 2.4-1 4.55 2.1.85 2.55-.9-.1-.85-.95-3.6-2.1-1.05.8m-18.1-39.55-3.3-2-4.05-2.45-3.6 2.75v-5.35l-2.3-1.95-.9-.75-1.25-3.45 2.1-2.35-1.55-1.6.95-3 1.55.2 4.1 2.25 3.8-2.1 1.05-2.2 1.2-.35.2-1.7-.2 1.7-1.2.35-3.05.9 3.4-3.85 1.25-.8-.2 1.7 2.4 2.55-1.75 2.05-2.2.65v4.9l-4.8 1.35-3.65-1.7-1.3-1.3.3-.3-.3.3 1.3 1.3 3.65 1.7 4.8-1.35 3.15 1.8-1.6 1.7 2.4 2.75v3.9l-1.85.9 1.45 2.85M-20-151.5l-6.1-6.2 4.1-3.9 1.3 5.45 4.35 2.95-3.65 1.7m-11.2-11.75-4.35-4.85 1.35-1.2 7.45 2.25-4.45 3.8m-28.5-10.8-.85.3 1.85-1 2.9 1.7.3 1.45-4.2-2.45m-13.15-3.3 1.3-1.15 3.4 1.15.65.95-4.3-1.3-1.05.35m.95 13.85-1.2-1.1H-76l-.8-.15 2.85-1.5 2.85.9.35 1.05-1.15.8m6.95-.5.9-.25 3.2 1.65.3 1.15-.7.95-.45-1.05-3.25-1.1V-164m-2.45 18.45 1.25-.35.85 1.45 2.1 1.15 1.3-.3.5.9-2.65.45-3.35-3.3m15.65-21.2-1.4.6 1.85-1.3 3.4 1-.1 1.55-.55-.95-3.2-.9m2.65 7.4 1.5-.25 1.45 1.65v.95l-1.4-1.75-1.55-.6m-.5 2.8h1.75l-.15 1.35-.8-.85-2.2.85 1.4-1.35m-2.65-1.55-1.05 1.2v-1.55l-2.2-1.15-.9.3-.45-.9 1.8-.6 2.8 1.65v1.05m66.55-7.25.95-.8 1.45-2.75 1.05-1.3 2.65.65 2.7 4.95 1.55 7.15-1.1 1.75-1-3.55-7.1-2.85 7.1 2.85 1 3.55-2.55 4-2.45 1.55-7.3-4.25.95-.6v-3.85l2.3-.45.95-2.8-1.15-3.25m15.05 16.8.35 2.35-2 6.15-1.7.85v-3.8l-2.35-1.8 5.7-3.75m-25.5 13.6-4.6-.6 2.25 1.85 2.6.45 4-4-4.25 2.3m2.95 6.1 1.85-.85-1.85.85m-8.7-12.25-.95-.4.95.4m1.15 5.55-2.4-.3 2.4.3m-2.2 28.45.55.75 1.45.55-1.45-.55-.55-.75m13.3 3.2L8.1-98l-5.95 1.55-9-5.85 9 5.85L8.1-98l2.25-5.9m-11.3-1.9 5.25 3.9 3.8-2.15-2.75.7-6.3-2.45m9.1 1.75H8.1h.05l1.3-.35-1.3.35m-46.8-20.2v-2.35h-2.75 2.75v2.35m-.1 3.75.05-2.05-.05 2.05 2.95-2.3v-4.4l-7.5-4.4h-5.95 6.7-.75l7.5 4.4v4.4l-2.95 2.3-.05 1.65.05-1.65m-6.95-.4-1.5 2.3h-2.95 2.95l1.5-2.3" transform="translate(192.55 294)"/><path fill-rule="evenodd" fill="#b58b75" d="m70.3-85.15 4.45 3.55L77-76.25l-3.35 3.5-3.6 1.05-3.65-1.95 1.15-2.95-.65-1.05 1.9-1.45.2-1.3 1.3-.55-.45-.8.45-3.4m-42.2-22.7 4.15 3.65-1.1 1.05v3.65l.6.6-2.55 1.1v2.6l-.15.1-6.4-3.5-.9-.45-1.2-2.4 1.2-2.7 2.4-2.65 3.95-1.05m-10.3-3 5-8.3 4.6-7.75 1.9.95 1.9.9-21.5 37.1-4.5-1.8 7.6-12.75 5-8.35" transform="translate(192.55 294)"/><path fill-rule="evenodd" fill="#f2ebc1" d="m-69.55-234.75-.05.15v.2l6.95 29 .3.65.15.3.6 1.05.05.2.2.3.5 1-3.2 5 5-1.9 1.25 2.05.8 1.25-1.85 8.75 5.15-3.9 5.95 7.95 7.25 8.8 1.4 1.7 3.55 4.1 4.35 4.85 2.3 2.5 2.8 3.05 6.1 6.2 2.35 2.4 8.3 7.75 5.3 4.75.9.75 2.3 1.95v5.35l3.6-2.75 4.05 2.45 3.3 2 5.15 3.15 7.55 4.55-5 8.3-62.65-48-.3-.35.45-2.05 1.5-2.15-1.25-1.55-2.1.8-1.05.6.2-.4-.3-.45.85-.7v-1.2l.45-1.35.65-4.4-1.5-1.35-3.7 4.2-2.2 1.15v1.9L-56-168.1l.5-1.2v-.65l.75-.3 1.2-1.3v-2.2l2.05-1.8 1.35-6.85-1.65-.9-3.4 2.95-2 3.7-3.45.95-.7 1.05v1.2L-65.1-178l3.9-3.55v-4.55h-3.3l-1.2 2.45-2.05 1.25-7.35-16.25 5.55-36.1m19.9 73.05 1.2-.2v1.55h-1.65l-.2.9-.35-.35 1-1.9" transform="translate(192.55 294)"/><path fill-rule="evenodd" fill="#e6e0b8" d="m-3.5-112.25-7.15-4.45-4.35-2.85-1.85-1.2-1.7-1.1.15-1.5.2-1.5.55-4.25-4.55 2.35-2.1 1.1-.1-.1-.4-.25-8.5-5.9-.15-.05-.9-.7-11.3-8.1-2.2-1.65-3.85-2.85-1.85-2.35 4.6-4.2.6-.35.7-.3.2-.9 1.25-.7-.45-1.15 1.8-1.45v-2.2l62.65 48-5 8.35-2.45-1.4-.9-.5-12.8-7.7-.15-.15m-72.55-58.55-.8-1.15-.25-.4-.4-.5-6.15-13.35q-.85-6.85-.45-13.2l14.1-34.9.4-.45h.05l-5.55 36.1 7.35 16.25-2.05 1.2h-1.4l-2.1 1.4-.6 2.85-2.1.65h-.05v5.5m10.95-7.2 3.75 4.55-.8.3v1.35l.4.6-2.2 3.7q-1.3.65-2.65 1.35l-.55 1.95-1.05 1.1-1.3-.75.85-.65v-2.65l-.85-.75v-4.55l3.05-1.15-.3-1.35 1.05-.9v-1.6l.6-.55m9.1 9.9 2.85 1.95-1.4.65v.85l.4.65-1.35 1.7h-1.6l-.65 1.55h-.95l.75-.8-.65-2.35.9-4.2.65-.6 1.05.6m22.55 36.15 9.05 6.2-9.05-6.2" transform="translate(192.55 294)"/><path fill-rule="evenodd" fill="#aba198" d="m-10.35-165.75-1.35 1.6-2.6.9-3.7-1.2-1.9-3.75 1.9-3.5h3.1l2 1.75.9 2.6 1.65 1.6m10.2.65.9-.75 1.55-3.5h3.5l2.9 2.05 1 1.8-1.25 2.2-2.35 1.1-3.95-1.05-2.3-1.85m-2.1 18.3 4.5.5 1.4-1.65 3.05-.9-1.05 2.2-3.8 2.1-4.1-2.25m.9-10.05-2-4.7 3.9 2.65v1.85l-1.9.2m-8.35-.45v-1.7l3.75-2.9-2.35 4.6h-1.4m13.55 22.35 4.25-2.3-4 4-2.6-.45-2.25-1.85 4.6.6m4.25 30.9-3.8 2.15-5.25-3.9 6.3 2.45 2.75-.7" transform="translate(192.55 294)"/><path fill-rule="evenodd" fill="#9d6d55" d="m31.8-122.45 1.4 5.9-5.1 8.7-3.95 1.05-2.4 2.65-1.2 2.7 1.2 2.4.9.45-6.25 10.65H9.7l21.5-37.1.6 2.6" transform="translate(192.55 294)"/><path stroke-width="2.75" stroke-linejoin="round" stroke-linecap="round" stroke="#aba198" fill="none" d="m226.7 109.45 3.2 3.35v4.4l17.9 15.85 4.1 1.9 4.1-.9 3.3 1.45v4.85l-1.9 1.35 2 2.25 4.65-.9 3.5 5.5-2.45 5.05-1.7.2-1.15-.4.6 2.75 1.7-.3 3.15 6.7-6.8 5-2.45 1.25v12.15l2.1 1.9 1.5 6.25-3.2 3.65m.1.85 1.15 9.95v.05l2.75 5.25 4.45 3.55 2.25 5.35-3.35 3.5-3.6 1.05-3.65-1.95-6.4 2.2v2.8l-2.5 1.25-3.8-3.05-2.75.55-3.95-1.55-2.15-2.65.05-.85-2.4 1.55-2.5-1.6h-3.9l-1.4-1.6-2 2.65h2.2l3.95 3.9-3.4 5.25-7.3 2.4h-4.45l-8.3 16m-16 0 .6-1.1-6.25-17.55-7.45-8.8.05-2.85-6.2-3.3v-4.7m1.85-1.25.9-.6-1.75-2.55 2.6-6.15-5-2.75-2.8-4.1 1.8-6.2 2.15-1.7h3.85l5.3 4.1 5.05 1.85.45-.8 2.5-2.25-2.45-3.15 1.9-2-7.15-4.45-9.35 2-4.85-3.55V171l1.95-1.3 1.9-1.25.8-.25-2-.95-2.1 1.1-.1-.1-9.05-6.2-.9-.7-1.05 1.7 1.7 2.1.9 6.85-6 3.15v1.7l-3.35.9-4.9 2.65-5.35-3.4-1.55.4-3.85-3.7v-3.4l-6.45-12-.55-1-1.2-2.25h-3.8l-3.5-3.2.8-3.9-2.3-2.2 1.3-2.05-2.75-9-1.75-1.2v-2.35l1.05-.85-.4-.15-1.15-2 2-1.65.45-3.3-.8-1.15-.65-.9-6.15-13.35q-.85-6.85-.45-13.2l14.1-34.9.45-.45-.05.15v.2l6.95 29 .45.95.6 1.05m.25.5.5 1-3.2 5 5-1.9 1.25 2.05.8 1.25-1.85 8.75 5.15-3.9 5.95 7.95 7.25 8.8 1.2-1.2v-2.3l3.25-1.35 1.8 1.35 5.95-5 3.55-.9v-5.95l6.7-12.55 8.35-3.35h9.55m2.2.95 9.8 4.05 3.75 7.85.15 1.95h4.25l2.9 2 .9.3.7-1.5 6.05-3.65 3.95 2.25.95 3.8-5.25 1.35.4 1.25h3.55m16.5 40.3 1.25.85 4.35-1.05m-27.35-25.5h3.1l4.2 2.25 13.7 14-1.85 2.25v5.4l2.6 1.8m6.85.35-1.25-.55m-27.35-25.5 5.2 5.5v9.9l-1.95 2.7 3.55 4.3v8.75l-3.05 4.45 2.8 3.15v5.7l-3.65 3.05 1.4 5.9-5.1 8.7 4.15 3.65 1.05-1.15h5.85l9.55-3.15-1.1-1-.8-.65 1.9-5.35 6.85-1.95v-10.5l-3.6-5.3 1.95-3.7 4.65-1.5-.25-1.3-2.4-1.4m.25-.4 1.35-2.35m8.55 42.8.35.7m-.35-.7.25-.15M207.8 170.3l-5.15-3.15m-14.15-9.75-5.3-4.75m-8.3-7.75-2.35-2.4 3.65-1.7 2.05 1.5 5 4.7h5.5m-47.9 1.75 3.85 2.85 2.2 1.65m28-8.35 5.8 1.4 3.35 3.65-.85 2.7m18.1-4.95 1.75-2.05-2.4-2.55m-12.15 14.3-1.25-3.45 2.1-2.35-1.55-1.6.95-3m15.05-7.4 7.3 4.25m-10.25-2.45 2.95-1.8m-2.5 8.1 2.25-.6h2.3l5.25-3.25m-10.25-2.45-.2 1.7m17.9 11.7-8.3 4.2-3.95 3.55v.6m9.9-13.95 2.35 1.8v3.8m-2.35-5.6-8.75 5.85h-5.2l-1.6 1.7 2.4 2.75v3.9l-1.85.9 1.45 2.85m5.15 3.15 1.05-.9 7.15-1.85 1.45-3.8-3.2 1.35h-7.95v-1.95m-4.65 62.9 3.85-.3-3.25 5.25-.6-4.95M140.7 158.9l-3.2-4.75m3.2 4.75 3.45-1.1 2.75-4.55m-7.05-1.15 1-3.35m-1 3.35-.35.3-2 1.75"/><path stroke-width=".05" stroke-opacity=".243" stroke-linejoin="round" stroke-linecap="round" stroke="#000" fill="none" d="m258.85 192.75.1.85m-86.25 15.7 1.4-.95.45-.3m-6.4-39.8-.4-.25-8.5-5.9-.15-.05M130.95 90.6l.05.2.2.3m61.2-2.25 1.95.85.25.1m54.2 59.75v-3.6l.85-2.85h5.9l1.85-1.4m-7.35 8.4.7-1.2 6.65-4.55 2-.4m-10.95 8.9.2-.25.05-.15m14.15 3.7-4.1.7-3.05-2.8-4.6 1.5m4.45 22.65 2.9 2.75m-18.3 3.55-.45-.35-.35-.3m-5.7 8.95 10.5-8.05-2.9.75m6.1-.75h-.95l-6.45 8.9h3.2l1.2 1.2 3-10.1h3.2l.55.45 1.7 1.45 3.45 2.85.75.65.05-1.05-1.45-4.35-6.15-2.8-5.3 2.8h2.25m-2.05 10.1.1.1.5 2-1.5 3.7-1 .2 2 2.55-1.2 2.6v2l-1.25 1.85-1.2 1.85-2.15 2.35-.6 2.8 2.15-1.2.9.85 2.9-5.4v-3.8l2.1-1.85h1.05l1.45.2.25-.95-1.15-.6-.8-5.25 3.2-2.7 1-10.95m-10 15.95 1.35-.3m-5.7 2.8 4.5.85 1.6-1.1-1.75-2.25-1.4.3-2.2-1.3-2.35.4v1.85l1.6 1.25m6.5.4V206m5.6-1.3 3.75 1.8 1.7-1.05 1.75-1-1.55-4.85-.65-1.3-1.05-11.65m1.4 20.5.45.3 1.05 3.95-.75 1.35 2.2 2.7 1.15.9h1.15l1.9-1.45.2-1.3-.9.35q-1-.35-1.9-.75l-2.15-3.05v-2.85l1.75-1.85-2.1-15.95m-1.95 15.95-.1 1.7-.05 1.7-2.85 1h-2.4l-.95-1.65-1-1.55m-13.3-13.85-.15-2.7-1.8-1.45m-1.25 9.2 3.2-2.45v-2.6m-4.6 19.45 1.9-4.75V203l2.85-3.5 3.5-.6-.7-3.15 3.35-2.1m-9.5 4.2.7.5.25 2.7-2.35.9v4l.8 1.65-.8.7v3.95l-3.15 3.55 1.35 1.6m2.35-20.15.85.6m-.85-.6-.3-2.15h-2.75l3.05 2.15m-.55 8.7-.75-1.65m.75-2.35v-2m4.5 1.25 1.6 1.2m2.15-3.5.2 1.25m-10.35 9.7.9.95m-1.8-1.85.9.9 1.9-1.55m-2.8.65.9.1-.85-2.55-4.55-2.1-2.4 1 1.4 1.3 1.05-.8 3.6 2.1.85.95m11.8 7.9-.15.8.15 1-.6.4m16.75-4.95-3.2 1.4-3.5 5v2.75l-1.25.3m10.2-6.7-2.25-2.75.75-1.35m-8.7 8.75 1.25-1m3.85 1.85 1.2.2m-11.45-6.05v2.15m-.65-8.55 1.55-.25m-11.05-2.35 1.7 1.3m15.95-3.15-.65 2.55m12.15-4.65-1.75 1.9m-1.35-15.3 1.6 2.75m2.95 20.7 1.3-.55-.45-.8.45-3.4m-6.4 8h2.05l.95-.5.65 1.05-1.15 2.95m-8.1-66.1 7-2.5 4.4 1.65m-139.7-93.7.4-.45h.05m1.8 52.35 2.05-1.25 1.2-2.45h3.3v4.55l-3.9 3.55m3.75 4.55v-1.2l.7-1.05 3.45-.95 2-3.7 3.4-2.95 1.65.9-1.35 6.85-2.05 1.8v2.2l-1.2 1.3-.75.3v.65l-.5 1.2m2.85 1.95v-1.9l2.2-1.15 3.7-4.2 1.5 1.35-.65 4.4-.45 1.35v1.2l-.85.7.3.45-.2.4 1.05-.6 2.1-.8 1.25 1.55-1.5 2.15-.45 2.05.3.35m62.65 48 5-8.3-7.55-4.55m-5.15-3.15-3.3-2-4.05-2.45-3.6 2.75v-5.35l-2.3-1.95-.9-.75m-5.3-4.75-8.3-7.75m-2.35-2.4-6.1-6.2-2.8-3.05-2.3-2.5-4.35-4.85-3.55-4.1-1.4-1.7M129.9 88.6l.3.65.15.3M116.5 123.2v-5.5h.05l2.1-.65.6-2.85 2.1-1.4h1.4l2.05-1.2m1 7.45 1.05-.9v-1.6l.6-.55m3.75 4.55-.8.3v1.35l.4.6-2.2 3.7 1.85.5m2.4-7.05 4.2 2.45-.3-1.45-2.9-1.7-1.85 1 .85-.3m-1.65.6.8-.3m-6.95-2.65.4.1.35 1.35.3 1.35-3.05 1.15v4.55l.85.75v2.65l-.85.65 1.3.75 1.05-1.1.55-1.95q1.35-.7 2.65-1.35m-8.9-9.85 1.3-1.15 3.4 1.15.65.95-4.3-1.3-1.05.35-1.05.4m3.15 12.65-.35-1.05-2.85-.9-2.85 1.5.8.15h2.9l1.2 1.1 1.15-.8.35 1.05.9-.6m-2.4.35 1.25 1.15.4.8-.95 2.05-.15.3.8 10.1.3.75 1.75-.95 2.05-8.4-.7-.85v-2.7l1.65-1.05-1.65-1.9m-3.95-1.15.45.15m1.15-2.7-.9-.7m5.45 4.6v1.35l3.25 1.1.45 1.05.7-.95-.3-1.15-3.2-1.65-.9.25-.95.2m.4 1.5.55-.35m6.35-1.25-1.4-1.25m-16.85-6.8-.25-.4-.4-.5m1.5 8.25-.95.9m18.25 2.95-.65.75-1.5.55.3.6-3 2-3.2 8.4.6 2.55 2.25-.65 5.25-8.65v-3.35l1.45-.5-.15-.25-.6-.9.2-.55h-.95l.75-.8-.65-2.35.9-4.2.65-.6.6-.55m-4.8 8.75.4 1.05m-5.6 1.75.6.85h2.3m-12.7-2.45 2.85 1.25 2.2-1.45m.65 10.4.05.9-1.25 1.35-1.15-1.5-.6-1.95m3.25 3.45.55-.2-.55-1.3m0 1.5 1.6 1.65 1.25-.35 1.25-.35.85 1.45 2.1 1.15 1.3-.3 1.15-.3-1.15-2.35 5.7-7.5-2.45-1.45m-13.85 9.15 2.25-.8m8.85 4.15-.5-.9m-5.5-1.95 3.35 3.3 2.65-.45.55.95h.95l6.35-5.85 4.6-4.2m-.05-.05-1.85.75-1.1-1.05v-1.35l-2.4 1.35.6 2.25-5.45 5.7-1.55.3m.2-17.55.35 1.1m33.85-13.05-3.95-1-3.95-3m8.8 7V122l-.9-1.4-.85-1.4 2.45-2.75v-5.75m-2 16.25-7.45-2.25-1.35 1.2m-16.2 1.35 3.2.9.55.95.1-1.55-3.4-1-1.85 1.3 1.4-.6m-5.3-1.95 1.05.6m.95 7.3.35-.15m-3.05.2.65-1.55h1.6l1.35-1.7-.4-.65v-.85l1.4-.65m-1 2.15 1.75-.8m2.75 3.1.65-1.35m1-1.85.3.5m-.75 2.5.85-1.65m-2.05 1.85 1.2-.2v1.55h-1.65l-.2.9v1l.4-.7.8-.2 1.5-.25 1.45 1.65v1.85l-.5.9 1.8-1.45v-2.2m-10.65-12.75v1.65m10.35 10.75-.25-.4m-4.2 3.05-1.4 1.35 2.2-.85.8.85.15-1.35h-1.75m.5-2.8 1.55.6 1.4 1.75m-5.1.1.95-.55v-1m1.3 6.6.65-.3.7-.3.2-.9.3-.95-.85-.9m-.35 3.05-.6.35m2.3-3.4.45 1.15-1.25.7m.8-1.85h-.05.05m-5.6-2.9v1m0-1v-1.05l-2.8-1.65-1.8.6.45.9.9-.3 2.2 1.15v1.55l1.05-1.2m1.6-1.7-.35-.4m-2.3 3.3v.75l1.15-.25.9-.5.25 1.7m-5.4-4.1-.8.25m5.25 5.55v-1.35l.95-.35m-2.3-.95v.8l-2.9 1.6m2.65 6.15 1.85 2.35m6.05 4.5 11.3 8.1m-15.95-26.8-.35-.35 1-1.9m66.25-16.95 5-4.4 2.2-5m6.4 2.25-2.1.5-3.6 4.35v2.5l-2.6 3.2 1.5-.35 3-1.8.8-.3v-4.7l3.4-2.15m-55.35 7 4.05-4.45h9.6l1.95 5.1 2.75 3.4v4.2l-1.9 3.55h-2.05l-1.8 3.55-1.4.9m18.3-15.3h-5.35l-2.9 3.8m20.35-4-5.5-3.95-6.6 4.15m-24.65 8.4 1.9 3.75 3.7 1.2 2.6-.9 1.35-1.6-1.65-1.6-.9-2.6-2-1.75h-3.1l-1.9 3.5-1.05.9-2.25-.7-1.3 1.65-1.35 1.65.45.95.45.95 2.95 1.2 2.9 1.15 2.65 2.85m16.3-7.5.9-.75 1.55-3.5h3.5l2.9 2.05 1 1.8 1.15.95h2.4l1.05-.8.95-.8 1.45-2.75 1.4-2.7-.9-3.7-.35-1.5-.25-1.85-.85-11.7m-13.6 27.1-2.3-1.85-2.4-2.5-.95-5.2m-21 6.45-2.25-.7-4.45 3.8m5.75-7.15v1.65l2.25.75m6.85 14.8-4.35-2.95-1.3-5.45-4.1 3.9m22.3 10.7 1.55.2 4.5.5 1.4-1.65 3.4-3.85 1.25-.8m-1.4-8-3.1-.8-1.65-1.85 3.95 1.05 2.35-1.1 1.25-2.2m-11.05 8.65-2-4.7 3.9 2.65v1.85l-1.9.2m-8.35-.45h1.4l2.35-4.6-3.75 2.9v1.7m6.8 14.6-.3.3 1.3 1.3 3.65 1.7 4.8-1.35v-4.9l2.2-.65m-.65-4.6-.2 1.7-1.2.35-1.05 2.2-3.8 2.1-4.1-2.25m-3.5-2.45 4.1-2.15m29.2-18.55-4.15-2.7v-2.95m-5.65 5.4-1.05 1.3m10.85-1.05h1.35m-14.6 4.6 1.15 3.25 7.1 2.85 1 3.55 1.1-1.75-1.55-7.15m-7.65 2.5-.95 2.8-2.3.45V139l-.95.6m7.3 4.25 2.45-1.55 2.55-4m-11.35-3.15-2.35.4-1.7 2.35m-4.5 8.15 3.05-.9m24.45-1.6-1 1.35-.8.55-5.7 3.75m6.05-1.4-2 6.15-1.7.85m5.15-11.25 1-1.4m-10.25-23.4-4.15 5.05m13 37.55 1.05-.4.85-1.3m-3.35 8.4 1.9.9.6 2.6m-9 3.3 4.6-7.75 1.9.95m1.45-6.7-5.85 2.4m-15.2-8.7-3.15-1.8m-2.7 5.8-4.6-.6 2.25 1.85 2.6.45 4-4-4.25 2.3m4.8 5.25-1.85.85m21.3 21-3.95 1.05-2.4 2.65-1.2 2.7 1.2 2.4.9.45 6.4 3.5.15-.1v-2.6l2.55-1.1-.6-.6v-3.65l1.1-1.05m-35.4-31.65 2.4.3m-2.1-5.95.95.4m-20.3 14.35 4.55-2.35-.55 4.25-.2 1.5-.15 1.5 1.7 1.1 1.85 1.2 4.35 2.85m-7.55-8.15-2-.95m19.25 20-1.45-.55-.55-.75m-.55-5.15.15.15 12.8 7.7.9.5 2.45 1.4 5-8.35m-36.2-12.5-1.5-.3m14 19.6-.95 1.75 9 5.85 5.95-1.55 2.25-5.9m-16.25-.15.25.05m-10.6 8.75 1.9 6.8-2.75 1.9m24.3 4.6-4.2-2.05-15.6-15.95v-4.2l5.75 1.85m20.4 25.1v-2.9l-2.1.2-4.25-2.05m-20.85 5.25 2.65 1.45h8.1l10.55 7.3h1.45m3.85-.3 1.4-2.25-.75-2.25-.75-2.25.7-2.2 1.6-5.2 5.9-1.85 4.05 3.75 2.4 5.15 3 1.4h2.2m-.95-24.95 1.45-.6.8.6m-6.8 12.4-2.75-1.15v-3.8l3-2 1.6-1.65.15.1v-.2l1.3-1.25m-3.3 9.95 1-.8m-29.15-18.5 6.3 2.45 2.75-.7m.05 0 1.3-.35m.25 16.45-4.5-1.8 7.6-12.75m9.85 3.9-6.25 10.65h-6.7l21.5-37.1M206.1 213.9V211l8.05-3.7 5.1 1.1.5-.9m-.5.9-.5.9 2.6 2.05-.7 3.4 3.55 1.8 1.7-.75m-74.75-48.4h2.75v2.35M140.15 177l1.5-.3.75-1.3 1.6-2.8 2.85.5 1.15.25 3.15-1.95v-5.8l-4.25-1.5h-2.3l-1.3-1.7-2.6-3.5m-3.2-4.75-.65.55m2.65-2.3.3-.25.05-.05m3.45 10.3h6.7m-7.6 13h2.95l1.5-2.3m2.4-10.7 7.5 4.4v4.4l-2.95 2.3-.05 1.65m.1-3.7-.05 2.05M128.2 158l-.45-.7m.55 1-.1-.3m-1.65-2.95h2.85m85 76.05 1.85.5m-14-.6-9.7 15.5m14.35-23 4 4.2"/><path stroke-width=".05" stroke-opacity=".263" stroke-linejoin="round" stroke-linecap="round" stroke="#000" fill="none" d="m200.65 189.95-3.8 2.15-5.25-3.9m9.05 1.75h.05"/></g></defs><path fill="none" d="M-1-1h336v648H-1z"/><g transform="scale(2)"><use x="86.55" y="238" xlink:href="#b" width="381" transform="translate(-192.55 -294)" height="381"/><use x="-58.378" y="-33.559" xlink:href="#c" width="102.95" transform="matrix(1.8072 0 0 1.6538 83 100.3)" height="45"/></g></svg>