<svg width="411" height="570" xmlns="http://www.w3.org/2000/svg" xmlns:xlink="http://www.w3.org/1999/xlink"><defs><radialGradient spreadMethod="pad" r="819.2" id="c" gradientUnits="userSpaceOnUse" gradientTransform="matrix(.0157 -.0307 .037 .0239 220.75 64.35)" cy="0" cx="0"><stop stop-opacity=".561" stop-color="#ddc1a2" offset="0"/><stop stop-opacity="0" stop-color="#bac75c" offset=".953"/></radialGradient><radialGradient spreadMethod="pad" r="819.2" id="d" gradientUnits="userSpaceOnUse" gradientTransform="matrix(.0101 -.0457 .0238 .0314 185.9 -72.45)" cy="0" cx="0"><stop stop-opacity=".561" stop-color="#cda96d" offset="0"/><stop stop-opacity="0" stop-color="#bac75c" offset=".953"/></radialGradient><radialGradient spreadMethod="pad" r="819.2" id="e" gradientUnits="userSpaceOnUse" gradientTransform="matrix(.0162 -.0141 .0074 .0204 80.75 -70.1)" cy="0" cx="0"><stop stop-opacity=".753" stop-color="#9da05f" offset="0"/><stop stop-opacity="0" stop-color="#8ca237" offset=".953"/></radialGradient><radialGradient spreadMethod="pad" r="819.2" id="f" gradientUnits="userSpaceOnUse" gradientTransform="matrix(.007 -.0457 .0166 .0314 60.15 -18.15)" cy="0" cx="0"><stop stop-opacity=".753" stop-color="#9da05f" offset="0"/><stop stop-opacity="0" stop-color="#bac75c" offset=".953"/></radialGradient><radialGradient spreadMethod="pad" r="819.2" id="g" gradientUnits="userSpaceOnUse" gradientTransform="matrix(.0087 -.005 .0031 .0053 181.1 -25.1)" cy="0" cx="0"><stop stop-opacity=".753" stop-color="#fff" offset="0"/><stop stop-opacity="0" stop-color="#fff" offset="1"/></radialGradient><radialGradient spreadMethod="pad" r="819.2" id="h" gradientUnits="userSpaceOnUse" gradientTransform="matrix(.0087 .005 -.0031 .0053 140.2 -34.55)" cy="0" cx="0"><stop stop-opacity=".753" stop-color="#fff" offset="0"/><stop stop-opacity="0" stop-color="#fff" offset="1"/></radialGradient><radialGradient spreadMethod="pad" r="819.2" id="i" gradientUnits="userSpaceOnUse" gradientTransform="matrix(.0243 -.028 .0018 .03 41.65 56.8)" cy="0" cx="0"><stop stop-opacity=".753" stop-color="#9da05f" offset="0"/><stop stop-opacity="0" stop-color="#bac75c" offset=".953"/></radialGradient><radialGradient spreadMethod="pad" r="819.2" id="j" gradientUnits="userSpaceOnUse" gradientTransform="matrix(.0283 .0162 -.0242 .0095 48.45 159.25)" cy="0" cx="0"><stop stop-opacity=".561" stop-color="#717044" offset="0"/><stop stop-opacity="0" stop-color="#bac75c" offset=".953"/></radialGradient><use xlink:href="#a" width="100" height="40" id="l"/><use xlink:href="#b" width="277.4" height="387.7" id="m"/><g id="k" stroke-opacity="0" stroke-linejoin="round" stroke-linecap="round" stroke="#f0f" fill="none"><path d="M187.95-293.5v380h-380v-380h380" transform="translate(192.55 294)"/><path d="m187.95-293.5-190 190 190 190m-380-380 190 190L-192 86.5M92.95-38.4H-97" transform="translate(192.55 294)"/></g><g id="b"><path fill-rule="evenodd" fill="#9c8143" d="m135.4-191.75 1.35 1.55q4.45 4.35 9.6 7.6h.05q2.7 1.65 5.55 3l1.6 1.2 1.05.65 1.45.9.9.15 11.6 18.65 3.5 7.25-1.05.5-3.85-2.95.05 11.85 1.45 4.7.75 12.35 5.8 28.1 1.75 2.65 1.95.75-1.45 3.6 2 1.1-.05-.6 2.4-.25 3.1-6.2 3.3-4.5 6.8 12.35 3.6 4.1-7.05 38.05-.4.15-4.65 1.45-11.05 5.9-2.6 1.35 2.75-.8 9.85-2.9h.05l3.15-.95.25.3.7-.7 7.3-3 5.1-.75-.4 8.4-19.15 6.8-2.7 2.35-1.95 1.75h-.05l-.85.75-1.45 1-2.75 1.8-1.5.95-.25.05-.15.25h-.05l.3.4 1.7 4.95-4.65 1.55-4.9-5.3.25 8.1h-2.3l-5.5-2.85 3.25 5.5-1.1 4.45-2.2-.55-.15-.05v.1l-7.65.95v-.05l1.95-3.35-5.7-2.4V-7l-10.9-6.8-3.1-2.5-5.4-4.35 6.55-9.95 7.4 4.15 1.15.6.6.35 12.2.05.05-.05.05.05.3.35 2.1 2.4 1 .45 7.45-3.45-2.3-3.2-5.6-13.5-6.85-3.85-6.9-9.65-9.4-6.2h-6.55l-1.8 3.6-.55-.3 2.8-10.25 4-4.5 5.1 2.15 3.85-18.5-3.05-10.6.9-1.8-1.05-1.85-1.4 1.75-4-3.25v-56.4l2.1-6.1v-21.65l2.6-1.95m-83.5 340.2 4.65-25.1-7.95-22.2 6.3-2.25H38.5l6.7-7.25 8.85 2.15 6.45.35-2.3 2 5.35 7.2 4.25 35-3.9 15.45-12-5.35M162.2-137.5q1.3-7.95 1.75-15.75l-3.8 7.65-16.4 55.25v6.4l11.3-26.05 3-9.4q2-7.05 3.35-13.9l.8-4.2M129.05 30.35l3.55-15.05-4.5 4.65 8.3-18.8V7.7l10.75 3.3h.05l4.85 1.5 1.55 4.65-1.65 6.3 4.2 1.75h11.1l-2.5 2.5-1.9 2.5q-5.35 8.2 2.95 15.4l.6 4.3-1.75 11.6-3-.45-4.9-14.25h-2.1l-6-5.95-2.55-4.25-6.8-6.15h-3.85v9.85l-6.4-9.95" transform="translate(1 193.85)"/><path fill-rule="evenodd" fill="#fbfdc4" d="m156.95-176.7-.9-.15-1.45-.9-1.05-.65-1.6-1.2q-2.85-1.35-5.55-3h-.05q-5.15-3.25-9.6-7.6l-1.35-1.55 1.4-1.1 6.75 5.2h.05l6 4.6 10 6.25v.05l-.1.5-2.5-.45h-.05m6.5 165.35-.25-8.1 4.9 5.3-.2 2.8h-4.45m7.75-10 1.5-.95 2.4 4.2 2.3 1.1h-2.8l-3.4-4.35m8.55-6.25 2.7-2.35 19.15-6.8 3.8-3.65v-5.3q-.6-.2-1.15-.45l.35-.95q-1.5.65-2.5-.7l-.1-.15q-.3-.8 0-1.6l.15-.25h.05l.15-.25q.15-3.1.6-6.05l-.05-.15q.1-4.2.95-8.1.9-4.2 2.6-8.05 1.2-5.15 2.95-10.1l.55-.3.45-.15.65.15.35.35-.5 3.05-2.2 13.4-.4.3-.4 3.7q-.9 6.7-2.65 13.25l1.05-2.65 1.15-7 6.65-6.8-3.95 23.1 4.95-9.45v8.7l-6.7 10.95-8.9 10-2.85 3.2-4.2 2.15-1.5-2.35v-5.95l3.65-8.7-7.45 3-7.4 2.95M195-87.35l-6.8-12.35-2.35-7 3 2.55L194-93.8l-3.25-21 2.05 1.3 3.5 8.1 6.15 26.55-2.35-2.7L194-93.8l1 6.45m-15.6-1.4.05.6-2-1.1 1.45-3.6.1-.25.4 4.35m10.5-31.55.05.1-.05.05v-.15m13.6 40.2.45-10.5.55 9.35-1 1.15m-36.2-93.55-.35.35-2.75-2.75 3.1 2.4m76.5 68v-2.2l7-6 4.35 4.65L263-83.85l1.1 10.3 10.55 33.15-9.45-15.15v-7.7l-9.2-17.9-3.2-4.1-9-20.4M202.45.4q.45 1.95 0 3.9V.4m14.65 30.45 8.5 4 4.35 3v.05l-1.8 2.7v.45l-2.95-1.95-2.1-2.15-6-6.1m33.85 7.1.55 1.55-.35.95-.05.1q.65.15 1.1.85v.05h.05v.2q-1.5 3.5-2.35 7.2l-.7 3.9-.3 2.55.75-2.4 3.15-9.95-.5-1.4q.25-.4.75-.4v-.05q.4.05.6.35l.05.1.15.85v.35L252 47.2l-.75 2-.05.1q-1.75 4.95-2.7 10.15-.25 1.2-1.1.6l-.05.25h-.45l-.5-.15-.3-.4-.05-.1v-.05l-.05-.2v-.35l.3-4.15.05-.9v-.45l.05-.05V51l.15-2.95.1-.5v-.25l.1-.55.3-1.65.15-.65.6-2.55.35-1.25.3-1.2.35-1.35q.15-.6.75-.6l.45.1.95.35m-41.05-168.9.7-3.5 2.2-2.8 4.2 14.6 3.4 4.4 7.2 6.8h-8.15v-.15l-6.75-7.8-2.8-11.55M190.75 25.7l-3.3 4.9.05.05-.55.15-.3.1-.3.65-.25.5-2.2-.1-.1-.1.05.1-3.5 1.3v2.3l-.6-.75-.15-.95-.05-2.1q-.4 1.85-1.65 3.2l-.8.1v.75l-.15.1.15 7.8-1.55 4.75-2.75 8.25-3.75 12.15L168 72.8v6.5l-1.1 2.75-4.05 2.4 5.65-25.2 3.2-7.9.85-2.65q1.6-5.4 2.2-10.35.55-4.55-.45-8.3-.7-2.65-2.15-4.85l.45-9 3-.9v-4.25l.45-.45.4-.4 4.8-.25.75.8v2.95l2.85-2.5.35-3.55 2.65.4.35-.75q.5-1.3.6-2.7l.05.05-.35 2.75v.05l-1.4 1.75-2.25 2-1.6 16 1.4-2.8 4.15-8.55.15-.3.9-1.9v-2.7l.05-.05h-.05V3.5l.05-.05 6.75-13.8v15.8L190.7 25.7h.05m-48.1-28.9h.05v.45l-.05-.45m26.7 19.55v-.05l.05.05h-.05m-12.7-5.55h-1.6l-.25.15-.2-.4 2.05.25m25.3 15.65v.1-.1" transform="translate(1 193.85)"/><path fill-rule="evenodd" fill="#9e8f41" d="M132.8-189.8v21.65l-2.1 6.1v56.4l1.7 6.1 2.3-2.85 1.4-1.75v3.2l.15.45 3.05 10.6-3.85 18.5-5.1-2.15-4 4.5-2.8 10.25h-.05l-1.65-6v-4.05l-5.1-7.65-3.65-2.15v-5.5l-4-5.75-6.2 2.1v5.55l-2.75 9.15 8.3 37 4.05 2.95 4.85 10.1-4.3-.8H113L105.1-3.5l-1.95-13.15V-38.4L92-47.8l-3.7-1.4-6.35 16-3.3 49.1h-6.8l2.55 3.3 16.7 21.55-.05.05-6.5-4H81.2l-5-3.35-6.4 9.45 7.55 29 20.6 26.3 2.5 11.8h-9.5l-3.9 6.4v4.7L73.1 101.05h2.8l-12.8-33.4-5.05-7.25-.35-1.9-10.15 8.2-9.3 19h-3.3l3.05.55-1.6 3.25 8.8 2.15-6.7 7.25h16.4l-6.3 2.25 7.95 22.2-4.65 25.1-4.45-1.5-6 10.35-.75 1.3-.05.05H34.3l2.75 7.05-5.1-4.05h-3l-6.15-7v-3l11.5-8.95h2.55l4.2-10.25-20-13.6-1.75-1.5-8.25-7-5.5-5.5L0 101l7.25-1.45L37.6 123.4l-6.35-9.65-4.95-14.3-1.65-4.8.7-9.35L23 83.15l4.25-8.95 3.8-18.3 13-24.65 10.6-9.55h2.15l-2-2.55v-7.3l-3.15-1.25-3.6-26.65L51.4-42.8l7.5-15 4.05.3-3-2.55-3.6-9.25L58.9-74v-5.5l7.4-8.95 5.6-4.25 1.15-3.95.55-2-3-16.15v-3.85l4.25 8.75-2.35-10.25 6.85-3.4 13.85-4.9-1.05-1.6q-2.3-4-2.6-10.3 1.3 7.75 5.2 11.05l.8.65.85-4.05v-.1l.8-3.9v-8.75l24.6 34.8 3-4.2-1.45-4.85-3.6-4.45-7.15-11.5 3.75-2.45 1.2-.8.9-.55 1.25-.85.9-.55.75-.5 3.1-2.05v-.55q-.35-18.95 3.35-39.9l3.2-4.6 1.8-1.35m5.8 163.35-7.4-4.15-2.65-3.9.05-.05 3.35-1.3q.25.8.65 1.65l1.4 2.5 1.4 1.7 1.75 1.35.35.35.05-.1q.8.45 1.7.75l-.25.8-.4.4m49.6-73.25-3.3 4.5-3.1 6.2 1.45-8.75 1.1-1.9v-.05l1.5-2.65v-4.35l2.35 7m-8.85 212.5-8.3 2.4-.8-1.35v-6.95l-10.5-6.65-3.4-5.05 2.45-8.3 4.05-2.45 4.05-2.4 1.1-2.75v-6.5l1.05-3.95 4.65.9 2 5.9 5.7 9.55v-8.15h.05l3-5.25 10.25-1.25-7.3 13.4-4.15 16-3.4 1.45 8.3 5.05-12.25 1.1-.6-14.4-5.05 8.9 5.1 6 4 4.75m-88.3 61.85-11.85-6.3-1.65-20.2 6.7-15.85.25-5.1 2.55-6.1v8.05l3.6.85-7.05 18.55v13l7.5 11.4-.05 1.7m-31.45 6.4-17.05-14.1v-3.8l4.7-6.2v-3.6l4.65-4.9 12 5.35 1.85.8h6.8l-1.05 5.55q-1.05 5-3.85 8.7-3.05 3.9-8.05 6.25v5.95M162.2-137.5l-.8 4.2q-1.35 6.85-3.35 13.9l-3 9.4-11.3 26.05v-6.4l16.4-55.25 3.8-7.65q-.45 7.8-1.75 15.75M114.95-3.3l1.45-4.55 2.4-3-.1 8.75-3.75-1.2" transform="translate(1 193.85)"/><path fill-rule="evenodd" fill="#f7eaa6" d="m136.1-104.15 1.05 1.85-.9 1.8-.15-.45v-3.2m12.65 57.9 6.85 3.85 5.6 13.5-9.95-13.9-.05-.05-2.45-3.4m-8.4 20.75-.6-.35.1-.1.5.45m32.4 9.8-1.7-4.95-.25-.4.15-.25.25-.05 3.4 4.35h6.55l.6-.1 2-.5 2.15-.75h.05l1.35-1.4 3.65-5.1v5.95l1.5 2.35 1.5 2.35 2.7-.2 2.2-.75-.1.45-.4.5-.1.6-1.6 3.25-6.75 13.8-.05.05q-.6.2-1 .7l-.05.25v.15l-3.1-2.4.9-2.5 3.25-.15-3.75-4.15 2.65-3.2-4.4.6-.35.1-1.05.3h-.05L176-4.95l3.8-6.5-6.6-4.1-.35.15-.1-.3m2.7-8.4 1.45-1 .85-.75h.05l1.95-1.75 7.4-2.95-.45 3.75-.25 1.15q-.45 1.3-1.25 2.45l-.2.3q-1.2 1.6-3.25 2.95l-1.45.85q-1.05.8-1.85.95h-.7q-2.05-.4-2.3-5.95m26.15-12.65.4-8.4-5.1.75-7.3 3-.7.7-.25-.3.95-.4 1.7-1.6.1-1.45-.25-.6.4-.15 7.05-38.05-3.6-4.1-1-6.45 6.1 12.25 2.35 2.7v2.55l9.55-9.8-.6 3.65-.35-.35-.65-.15-.45.15-.55.3q-1.75 4.95-2.95 10.1-1.7 3.85-2.6 8.05-.85 3.9-.95 8.1l.05.15q-.45 2.95-.6 6.05l-.15.25h-.05l-.15.25q-.3.8 0 1.6l.1.15q1 1.35 2.5.7l-.35.95.1.65 1.05-.2v5.3l-3.8 3.65M172.05-150.8l-3.5-7.25-11.6-18.65h.05l2.5.45.1-.5v-.05l1.2.75h3.4l2.75 2.75 1.35 1.4 11.9 21.55 3 14.45v.05l6.7 15.55v.15l.05-.05 2.85 6.7-2.05-1.3 3.25 21-5.15-10.35-3-2.55v4.35l-1.5 2.65.8-9.95.2.8 3-7.45-5.5-3.5-3.8-16.4-7-14.6m-50.7 9.45-.75.5q-1.2-1.6-1.5-3.5l-.1-1.2 2.35 4.2m-1.65 1.05-1.25.85-2.2-5.65q1.05 2.55 3.45 4.8m-2.15 1.4-1.2.8q-1.6-2.9-1.8-6.1.45 2.65 3 5.3M45.2 91.65l-8.8-2.15 1.6-3.25-3.05-.55h3.3l9.3-19 10.15-8.2.35 1.9 5.05 7.25 12.8 33.4h-2.8l13.95 20.05-2.55 6.1-.25 5.1-6.7 15.85-5 6.45h-6.8l-1.85-.8 3.9-15.45-4.25-35-5.35-7.2 2.3-2-6.45-.35-8.85-2.15M82.7 36.8h1.85l6.5 4 .15.05 3.35 2.05 4.2 8.9v10.35l9.6 16.15-2.95 3.25h-.15v.2l-2 2.7-15.55-31.9-1.65-1.6-2-4.75.1-.05-.15-.05-.35-.85.5.9 2.35.95 3.3 3.4-2.8-8.05-4.3-5.65m20.2-124.6 6.2-2.1 4 5.75v5.5l3.65 2.15 5.1 7.65v4.05l1.65 6-3.6-7.1-3.4-3.4-5.7-8.9v-3l-3-6.6h-4.9m101.05-2.8-.35-6.05-3.45-15.25-6.6-14.35-1.95-4.2 21.1 16.7 2.3 6.1h1l2 5.8-2.6 6.4-6.15 10.55-2.75 1.15-2 2.5-.55-9.35m70.7 50.2.05.1.7 2.25-5.8 8.6-5 12.6-4.1 3-1.9 2.6v2l-10.2-3.8-12.6-15.4 11.6 8.4h2.45l-8.6-8.4 1.3 1.2-5.4-16.2h-1.65l2.1-3.7v-.05l2.05-3.7.8-1.4-10.05-45.65 1-1.1h-2.75l-1.85 2.55-3.7-14.95h4.5v-6.15l9.55 9.85 6.65 15.5-4.45-3.45 13.8 24.05L265.2-51.7v-3.85l9.45 15.15m-50.65.55 3.2-2.45 1.6 2.65-4.8-.2M202.45-.35V.4l-.1-.45.1-.3m0 4.65v.35l-.15.35v-.1l.15-.6m37.8 33.6 1-.4h7.5l1.45-1.45.75 1.9-.95-.35-.45-.1q-.6 0-.75.6l-.35 1.35-.3 1.2-.35 1.25-.6 2.55-.15.65-.3 1.65-.1.55v.25l-.1.5-.15 2.95-1.4-13.5-4.6 2.4-.15-2m11.25 1.6.8 2.05h-.05v-.1h-.05v-.05q-.45-.7-1.1-.85l.05-.1.35-.95m-4.15 20.8-.4 1.15v4.05l-2.85 9.75-2.45 2.85v8.1l-3.05 6.3-18.55 9.85-1.9-8.15 1.6-5.7 4.85-2.5 2.45-1.25h-9.35L215.5 83l11.1-10.4 1.85-3.05-20-5.9-6.8-8.15 3.3-3.4 5.5-1.5 16.6 6 12.35 6.25 7-11.85v2.5l-.05.05V54l-.05.9-.3 4.15v.35l.05.2v.05l.05.1.3.4.5.15h.45m-32.5 44.8-4.85 5.4-7.1-5.4h11.95m-43.8 10.1 6.15 10.3-4-4.75-2.95-6.9.8 1.35m10.6 38.4-2.9-1.8.35-10.25q.35-.2.75-.35l1.8 12.4M147 187.05l-3.4 1.15-.6-5.7v-.05l-6.85-7.85-3.1-13.25-3.3-5.6-.15-.2 1.6-2.15-8.1-8.55.45-.15 4.8-1.85 11.3 18.75 8.6 18.75-1.25 6.7m-33.25-12.8-3.3 10.85-11.15 6.4 2.15-7.15-4.05-13.45-4.5-11.8 4.9-4.05-4.85-29.75 5.3-8.95 6.2.15-2.65 2.35v23.65l5.9 14.85 1.3 5.2 4.75 11.7m105.7-285.7h-.25l.25-.15v.15M214.5-67.7l3.2-1.25-3.6 3.75-6.65 6.8-1.15 7-1.05 2.65Q207-55.3 207.9-62l.4-3.7.4-.3-.1.6 5.9-2.3m8.6 104.65 2.1 2.15 2.95 1.95.25 9.05 1 .85-1.15-.9-6.7-2.6-5.7 1.6-12.55 1-9 6.25-5.05-7.6-8.9-7.9v9.3l2.65 9.75v7.7h-1.8l3.25 4.25-3 5.25h-.05v8.15l-5.7-9.55-2-5.9-4.65-.9 3.75-12.15 2.5-.3 2.1 2.25-1.85-10.2 1.55-4.75v-8.65l.8-.1q1.25-1.35 1.65-3.2l.05 2.1.15.95.6.75v-2.3l3.5-1.3-.05-.1.1.1 2.2.1.25-.5.3-.65.3-.1.55-.15-.05-.05 3.3-4.9 27.2 9.95 5.15 1.3m26.55 15.95-.75 2.4.3-2.55.45.15m-132.9-205.4q2.75 2.4 2.4 4.6l-.15 1.1-2.25-5.7m-16.4 135.55-4.7-5.9 4.5.2.2 5.7m20.2 3.65 1.1 2.45h-1.45l.05-.4v-.05l.3-2m9.35 18.4.2-.05-.05.15-.05-.05-.1-.05m2.15-3.15.4-.65.75-.05-1.15.7m-21.1 7.25 5.3 7.8 12.5 26.7 5.3 20.35 10.6 22.8-6.95 8-6.2 16.65-6.85 5.8-1 3.95.8 6.25 2.35 2.75.5.3 5.2-.15v17.15l-4.15-4.7v-7.35l-7.9-4.4-1.6.95-1.4-3.8-1.25-1.15.4-3.6v-.05l1.15-9.5v-.8l-5.15-11.5h1.45l9.75-7.8h6.65l3-1.45-14.75-25.85-1.45 1.65-11.55-32.4-.95-.4-1.95.8-4.6-9.95L86.75 12.3l1.1-.15-.85-1.3 5.45.7 14.6-1.85 3.9-.5m72.5-10.65.15-.1-.1.1h-.05M134-31.7l-1.4-2.5q-.4-.85-.65-1.65-1.05-3.2-.35-5.5.4-1.5 1.55-2.65l9.55 7.05 6.15 7.1q-2.05 2-3.9 2.55l-1.2.2q-2.45.1-4.5-.55-.9-.3-1.7-.75l-.4-.25L134-31.7m-5.4-2.85-.05.05-.05-.1.1.05M160.9 8l.2-.45 2.85 2.6v1.65l-2.75-1-.3-2.8m5.3 8.2 1.7.1 1.45.05h1.6l1.65-.15-.45 9-.4.05.8 23.45-.85 2.65-3.2 7.9-5.65 25.2-4.05 2.45-2.45 8.3-5.55-8.35-13.15-43.95-2.2-2.6v-9.85h3.85l6.8 6.15 2.55 4.25 6 5.95h2.1l4.9 14.25-1.35 13.3-.8 7.55-1.2 5.2 1.75-5 2.65-7.5 1.95-13.1 1.75-11.6-.6-4.3q-8.3-7.2-2.95-15.4l1.9-2.5 2.5-2.5h-11.1l-4.2-1.75 1.65-6.3 8.85 2.45 3.75-3.4m7.15-8.15 5.75-.3 2.15 2.2-4.8.25-.4.4-2.7-2.55m11.3 16.35-.05-.6.4-.3.05-.25.15-.7-.05-.25-.05-.15 2.45-3.95.3-.65v-.25l-.05-.25 1-1.2-4.15 8.55m4.3-8.85.3-1.8.6-.7v.6l-.9 1.9m.9-4.6-.7.5-.05-1.3.3-.45.45-.6v1.8h.05l-.05.05M169.2-1.4l.7-2.55-.55 2.6-.15-.05m12.75 27.85v.1-.1M131.5 111.5l17.1-15.85 4.45 3.9 9.25 8.2 10.9 13 4.6 10.8-4.45-2.15-2.55-3.8-4.7-3.9-11.25-9.5-12.15-2.05-9.1-.4-2.1 1.75m27.2-11.95-2.95-1.85.6-2.5 3.4 5.05-1.05-.7m19.1 32 .7.3.3 2-1-2.3M90.65 130l-3.05 20.3v7.8l1.5 3.8q1.9 5.65 2 11.05l-7.5-11.4v-13L90.65 130M237.4 54.65v2.75l-.65-.5.65-2.25m-.65 16.95-8.55 11.65 8.55-6.6V71.6" transform="translate(1 193.85)"/><path fill-rule="evenodd" fill="#fefdb6" d="m147.8-3.8 7.65-.95v-.1l.15.05 2.2.55 8.1 2 2.2 5.05.1.2h3l3.45-7.6 1.35-.35 6.9-1.85h.05l-1.15 5.35h1.7l.1-.1 2.5-3.05 3.75 4.15-3.25.15-1.95 2.95-5.5 1.9 2.2 2.55 3.85.55-.35 3.55-2.85 2.5v-2.95l-.75-.8-2.15-2.2-5.75.3h-.3v2.8l-2.9-.95-1.85 1.35 1.05 5.05v.05l-1.45-.05-1.7-.1-2.6-.3.05-.2.25-.85.05-3.05v-1.65l-2.85-2.6-.2.45-1.35 2.8h-2.9l-2.05-.25.2.4-2.75 1.55-4.85-1.5h-.05L136.4 7.7V1.1l-3.2.15 6.65-4.1 2.8-.35.05.45h4.45l.65-1.05m29.15-89.8-1.75-2.65-5.8-28.1-.75-12.35-1.45-4.7-.05-11.85 3.85 2.95v22.35l5.95 20.85v13.5m12.95-26.7-6.7-15.55v-.05l-3-14.45-11.9-21.55-1.35-1.4.35-.35h.05l14.25 11 5.6 9.8 1.2 5.3 10.2 9.9 10 13.2 4.1 10.7-21.1-16.7 1.95 4.2 6.6 14.35 3.45 15.25.35 6.05-.45 10.5-1.05 1.25-6.15-26.55-3.5-8.1-2.85-6.7-.05-.1m27.8 59.55-2.6 9.2-4.95 9.45 3.95-23.1 3.6-3.75v8.2M207-20.5l-2.5 11.75-2.05 2.4v6l-.1.3.1.45v3.9l-.15.6V5l-8.35 15.85 11 4.25 12.15 5.75 6 6.1-5.15-1.3-27.2-9.95h-.05l5.95-20.25v-15.8l1.6-3.25.1-.6.4-.5.1-.45q3.6-1.5 8.15-5.35m-29.8 146 9.45 7.55v8.05l-5 12.5-1.8-12.4q-.4.15-.75.35l.1-3.55-5.85-8.6 4.45 2.15-4.6-10.8 4 4.75m-39.5 4.8v7.7l5.4 19.35 9.6 21.05v6.7l-5.7 1.95 1.25-6.7-8.6-18.75-11.3-18.75 4.15 4.7V130.4l5.2-.1m89.9-247.9v-2.05h-2v-8.6l8.2 4 9.2 13.4v3.4l.8 1.8 9 20.4 3.2 4.1 9.2 17.9v11.55l-12.05-19.95-13.8-24.05 4.45 3.45-6.65-15.5-9.55-9.85M215.85 49.05l5.7-1.6 6.7 2.6 1.15.9 7.35 5.95.65.5v-3.05L234 45.7l4.05 6.9 1.35 2.35v7.9l-12.35-6.25-16.6-6 5.4-1.55m36.4-7.5h.05l.5 1.4-3.15 9.95-.45-.15.7-3.9q.85-3.7 2.35-7.2v-.1M116.25 17l12.8 13.35 6.4 9.95 2.2 2.6 13.15 43.95 5.55 8.35-.6 2.5 2.95 1.85h-5.65l-4.45-3.9-17.1 15.85 6.2-16.65 6.95-8-10.6-22.8-5.3-20.35-12.5-26.7M188.8 4.6v-.15l.05-.25q.4-.5 1-.7v5.6l-.45.6-.3.45.05 1.3.7-.5v2.1l-.6.7-.3 1.8-.15.3-1 1.2.05.25v.25l-.3.65-2.45 3.95.05.15.05.25-.15.7-.05.25-.4.3.05.6-1.4 2.8 1.6-16 2.25-2 1.4-1.75V7.4l.35-2.75-.05-.05m-16.25 44.1-.8-23.45.4-.05q1.45 2.2 2.15 4.85 1 3.75.45 8.3-.6 4.95-2.2 10.35m5.25 82.85 1 2.3-.3-2-.7-.3" transform="translate(1 193.85)"/><path fill-rule="evenodd" fill="#d1ad5c" d="m130.7-105.65 4 3.25-2.3 2.85-1.7-6.1m27.1 101.4 1.1-4.45h6.1l3.7-2.65h-.8l.2-2.8 4.65-1.55.1.3.35-.15 6.6 4.1-3.8 6.5-1.35.35-2.4.6-2.3 2.7-.05.05h-.05l-.5-.1.55-2.6-.7 2.55-3.3-.85-8.1-2m24-84.75-2.4.25-.4-4.35-.1.25-1.95-.75v-13.5L171-127.95v-22.35l1.05-.5 7 14.6 3.8 16.4 2.3 10.15-.8 9.95v.05l-1.1 1.9L181.8-89m-69.2-46.65 7.15 11.5 3.6 4.45 1.45 4.85-3 4.2-24.6-34.8v-5.1l3.8-2.55 11.6 17.45m-40.1 15.5 2.35 10.25-4.25-8.75 1.9-1.5m.55 23.5L71.9-92.7l-5.6 4.25-7.4 8.95v5.5l-2.55 4.7 3.6 9.25L57-62.5l-.4-.65-3.4-.85v-13.2l5.3-5.3 2.25-1.7 8.8-10.4 3.5-2.05M26.3 99.45l4.95 14.3 6.35 9.65L7.25 99.55l7.2-1.5 11.85 1.4m10.75 66.25-2.75-7.05h6.35l.05-.05.75-1.3 6-10.35 4.45 1.5-4.65 4.9v3.6l-4.7 6.2-5.5 2.55M74.4 19.2l-2.55-3.3h6.8l-4.25 3.3m28.75-36.15v.3l-2.8-.3h2.8m99.3-61.9 1.05-1.25 1-1.15 2-2.5 2.75-1.15 2.75-1.2-9.55 9.8v-2.55m10.25-34.9-4.1-10.7 1.3-6.5 2.8 11.55 6.75 7.8-.25.15h3.9l3.7 14.95 1.85-2.55h2.75l-1 1.1-6 6.25-3.4 7.95-5.6-2.5v-2.2l4.6-7.6-2-5.8-2-5.8h-1l-2.3-6.1m35.7 100.7H234l-6.4-4.4-3.6-15.4v-7l4.8.2 2.2.4-2.85-12.25 10.6-.4.9 1-2.05 3.7v.05l-2.1 3.7h-1.3l-1.6 2.1 3.2 7.7 5.45 5.2 8.6 8.4h-2.45l-11.6-8.4 12.6 15.4m-48.9-8.85 3.2 1.4h4.3q-4.55 3.85-8.15 5.35l-2.2.75-2.7.2-1.5-2.35 4.2-2.15 2.85-3.2m30.45 59.75 3.6 2.5v4.25l.45 1.1 3.4 8.65v.3l-.65 2.25-7.35-5.95-1-.85-.25-9.05v-.45l1.8-2.7v-.05M210 110.5l7.1 5.35H196l-16.65-3.05-4-4.75.55-.5-5.65-5.5 5.05-8.9.6 14.4 12.25-1.1 14.75-1.35 7.1 5.4M79.2 168.35l-4.6 7.15-15 5.55v-5.95q5-2.35 8.05-6.25 2.8-3.7 3.85-8.7l1.05-5.55 5-6.45 1.65 20.2m132.4-244.5.1.4h-.05l-.05-.4m-36.05 124.6 1.85 10.2-2.1-2.25-2.5.3 2.75-8.25M226.6 72.6 215.5 83l-1.45 1.35-25.5 14.6-5.2 2.55-.1-1.55 4.15-16 7.3-13.4 11.45-1.45h.05l6.05-.75 14.35 4.25M121.65-10.85l.5 8.6-3.45.15.1-8.75h2.85m15.5-17.8.4.25-.05.1-.35-.35m16.45 45.8-1.55-4.65 2.75-1.55.25-.15h4.5L160.9 8l.3 2.8 2.75 1-.05 3.05-.25.85-.05.2 2.6.3-3.75 3.4-8.85-2.45m15.75-.85-1.05-5.05 1.85-1.35 2.9.95V12l2.55 3.3-3 .9-1.65.15h-1.55l-.05-.05m15.85-8.65-3.85-.55-2.2-2.55 5.5-1.9-1.7 2.55 5.25 2.1-.35.75-2.65-.4M159.5 81.9l.8-7.55 2.4.25-2.65 7.5-.55-.2m6.6 39.8 4.7 3.9 2.55 3.8-4.25-2.05-3-5.65" transform="translate(1 193.85)"/><path fill-rule="evenodd" fill="#b59c4a" d="m124.65-20.65 5.4 4.35v5.05h-3.75l-1.65-9.4M105.1-3.5l7.9-20.35h.05l4.3.8-4.85-10.1-4.05-2.95-8.3-37 2.75-9.15v-5.55h4.9l3 6.6v3l5.7 8.9 3.4 3.4 3.6 7.1.05.05-.8 3.05-1.1 2.1v5.35l2.15-.4v8.9l-3.4 3.65-3.65 5.5-.65.45 1.2 1.95.1-.05 4.45 5-.1.95-1.2 9-.3 2v.05l-.05.4h-1.4l-2.4 3-1.45 4.55-4 12.5-3.9.5-1.95-13.2m122.1-38.8-4.2-6.95-5.3-11.5v-8.2l-3.2 1.25-2.1-4.55-.7-3.5-.1-.4-.7-3.25.5-3.05.6-3.65-2.75 1.2 6.15-10.55 2.6-6.4 2 5.8-4.6 7.6v2.2l9.9 22.55 2.85 12.2L231-39.25l-2.2-.4-1.6-2.65M115.35-31.4h-.05l.2.3.1.1-.25-.4" transform="translate(1 193.85)"/><path fill-rule="evenodd" fill="#d9bc5b" d="m220.05 102.35-5.2 2.75H202.9l-14.75 1.35-8.3-5.05 3.4-1.45.1 1.55 5.2-2.55 15.95-2.6 15.25-7.85-1.6 5.7 1.9 8.15m-4.65-188.6 5.6 2.5 3.4-7.95 6-6.25 10.05 45.65-.8 1.4-.9-1-10.6.4-2.85-12.2-9.9-22.55m20.1 42.8h1.65l5.4 16.2-1.3-1.2-5.45-5.2-3.2-7.7 1.6-2.1h1.3M184.45 71.8l-3.25-4.25h1.8v-7.7l-2.65-9.75v-9.3l8.9 7.9 5.05 7.6 9-6.25 12.55-1-5.4 1.55-5.5 1.5-3.3 3.4 6.8 8.15 20 5.9-1.85 3.05-14.35-4.25-6.05.75h-.05l-11.45 1.45-10.25 1.25m55.95-31.9 4.6-2.4 1.4 13.5-7 11.85v-7.9l-1.35-2.35 2.65-8.9-.3-3.8" transform="translate(1 193.85)"/><path fill-rule="evenodd" fill="#c08b56" d="m152.95-25.1-.3-.35.4.15-.1.2m-13.2-.75-1.15-.6.4-.4.85.9-.1.1m15.7 21 .15.05-.15-.05m15.6-15.8-.3-.4h.05l.25.4m62.5 61 6.7-2.45.15 2-4 2.05-2.4 3.75-.45-1.1v-4.25M117.4-28.25l-.1.05-1.2-1.95.65-.45.65 2.35m-2.05-3.15.25.4-.1-.1-.2-.3h.05M184-7.1l.35-.1 4.4-.6-2.65 3.2-2.5 3.05-.15.1h-1.65l1.15-5.35 1.05-.3m2.6 6.8-.9 2.5 3.1 2.4q-.1 1.4-.6 2.7l-5.25-2.1 1.7-2.55L186.6-.3m-13.55 11.15v-2.8h.3l2.7 2.55-.45.45v4.25l-2.55-3.3v-1.15m1.6-15.45L171.2 3h-3l-.1-.2-2.2-5.05 3.3.85.15.05.5.1h.05l.05-.05 2.3-2.7 2.4-.6m-14.6 86.7-1.75 5 1.2-5.2.55.2m15.85 25.45-.55.5-5.1-6 5.65 5.5m-46.15 48.2-.65.4.5-.6.15.2m107-84.15v5.05l-8.55 6.6 8.55-11.65" transform="translate(1 193.85)"/><path fill-rule="evenodd" fill="#bf9651" d="m130.05-16.3 3.1 2.5 10.9 6.8v-2.6l5.7 2.4-1.95 3.35v.05l-.65 1.05h-4.45v-.45h-.05l-2.8.35-6.65 4.1-.75.05-.4.65-1.95 3.1-.2.05-11.2-7.2 3.45-.15-.5-8.6-1.1-2.45 1.2-9 1.15.2 1.75 1.45 1.65 9.4h3.75v-5.05m42.65-6 2.75-1.8q.25 5.55 2.3 5.95h.7q.8-.15 1.85-.95l1.45-.85q2.05-1.35 3.25-2.95l.2-.3q.8-1.15 1.25-2.45l.25-1.15.45-3.75 7.45-3-3.65 8.7-3.65 5.1-1.35 1.4h-.05l-2.15.75-2 .5-.6.1h-3.75l-2.3-1.1-2.4-4.2M188.65-41l-3.15.95h-.05l-9.85 2.9-.15-.55 11.05-5.9 4.65-1.45.25.6-.1 1.45-1.7 1.6-.95.4m51.75 80.9.3 3.8-2.65 8.9-4.05-6.9 2.4-3.75 4-2.05M215.5 83l2.2 1.75h8.3L224.6 86l-4.85 2.5-15.25 7.85-15.95 2.6 25.5-14.6L215.5 83" transform="translate(1 193.85)"/><path fill-rule="evenodd" fill="#857336" d="m124.1-58.5 1.8-3.6h6.55l9.4 6.2 6.9 9.65 2.45 3.4.05.05 9.95 13.9 2.3 3.2-7.45 3.45-1-.45-2.1-2.4.1-.2-.4-.15-.05-.05-.05.05-12.2-.05-.5-.45-.85-.9.25-.8q2.05.65 4.5.55l1.2-.2q1.85-.55 3.9-2.55l-6.15-7.1-9.55-7.05q-1.15 1.15-1.55 2.65-.7 2.3.35 5.5l-3.35 1.3-.1-.05.05.1 2.65 3.9-6.55 9.95-1.75-1.45-1.05-1.15-4.45-5-.65-2.35 3.65-5.5 3.4-3.65v-8.9l-2.15.4v-5.35l1.1-2.1 1.35-2.8M100.45 110l-2.5-11.8-20.6-26.3-7.55-29 6.4-9.45 5 3.35h1.5l4.3 5.65 2.8 8.05-3.3-3.4-2.35-.95-.5-.9.35.85.15.05-.1.05 2 4.75 1.65 1.6 15.55 31.9 2-2.7v-.2h.15l2.95-3.25-9.6-16.15V51.8l-4.2-8.9-3.35-2.05-.15-.05.05-.05L74.4 19.2l4.25-3.3 3.3-49.1 6.35-16 3.7 1.4 11.15 9.4v21.45h-2.8l2.8.3L105.1-3.5l1.95 13.2-14.6 1.85-5.45-.7.85 1.3-1.1.15L98.2 26.25l4.6 9.95 1.95-.8.95.4 11.55 32.4 1.45-1.65 14.75 25.85-3 1.45h-6.65l-9.75 7.8h-6.4l-3.35 4.7V110h-3.85m-.1-126.95-.2-5.7-4.5-.2 4.7 5.9M118.7-2.1l11.2 7.2.1.05.05.05.05-.15 1.95-3.1 1.15-.7 3.2-.15v.05l-8.3 18.8 4.5-4.65-3.55 15.05L116.25 17l-5.3-7.8 4-12.5 3.75 1.2" transform="translate(1 193.85)"/><path fill-rule="evenodd" fill="#875b27" d="m158.9-8.7-3.25-5.5 5.5 2.85h7.55L165-8.7h-6.1" transform="translate(1 193.85)"/><path fill-rule="evenodd" fill="#c18d37" d="m161.65 61.05 3 .45-1.95 13.1-2.4-.25 1.35-13.3" transform="translate(1 193.85)"/><path fill-rule="evenodd" fill="#fbf1d2" d="m173.2 120.75-10.9-13-9.25-8.2h5.65l1.05.7 10.5 6.65v6.95l2.95 6.9" transform="translate(1 193.85)"/><path fill-rule="evenodd" fill="#a38543" d="M87.05 121.1v-4.7l3.9-6.4h13.35v-3.65l3.35-4.7h4.95l5.15 11.5v.8l-1.15 9.5v.05l-.4 3.6 1.25 1.15 1.4 3.8 1.6-.95 7.9 4.4v7.35l-4.8 1.85-.45.15 8.1 8.55-1.6 2.15-.5.6.65-.4 3.3 5.6 3.1 13.25 6.85 7.85v.05l.6 5.7-2.3.75-15.85 3.9-6.95-6.95-4.75-11.65-4.75-11.7-1.3-5.2-5.9-14.85v-23.65l2.65-2.35-6.2-.15-5.3 8.95 4.85 29.75-4.9 4.05 4.5 11.8 4.05 13.45-2.15 7.15-6.55-5.95q-2.15-1.95-2.5-4.9.7-2.95.8-6l.05-1.7q-.1-5.4-2-11.05l-1.5-3.8v-7.8l3.05-20.3-3.6-.85v-8.05m91.7 30.7-7.4-4.6-.55-.15-1.7-.55q-5.6-2.15-10.55-7.05v-5.85l-5.3-5.3-.15-5.85q-4.15-2.05-8.3 0l-3.25 5.3-3.85 1.1v1.45l-5.2.1-5.2.15-.5-.3-2.35-2.75-.8-6.25 1-3.95 6.85-5.8 2.1-1.75 9.1.4 12.15 2.05 11.25 9.5 3 5.65 4.25 2.05 5.85 8.6-.1 3.55-.35 10.25" transform="translate(1 193.85)"/><path stroke-opacity=".412" stroke-linejoin="round" stroke-linecap="round" stroke="#000" fill="none" d="M127.8-183.85q-3.7 20.95-3.35 39.9l6.25-18.1 6.25-18.15 20 3.5h.05l3.8.65-11.2-7-6-4.6h-.05l-6.75-5.2-5.8 4.4-3.2 4.6m33 7.8h3.4l3.1 2.4h.05l14.25 11 5.6 9.8 1.2 5.3 10.2 9.9 10 13.2 2-10 2.2-2.8 4.2 14.6 3.4 4.4 7.2 6.8v-8.2h-2v-8.6l8.2 4 9.2 13.4v3.4l.8 1.8v-2.2l7-6 4.35 4.65 1.45 1.55m-92.4-68.4 12.2 12.4 5 12.4 7.2 22.8L194-93.8l6.1 12.25 2.35 2.7 1.05-1.25 1-1.15-.9-15.4-3.45-15.25-6.6-14.35-1.95-4.2-3.2-17.1m20.2 23.1 6.4 16.8h4.2v-3.8h8.4m-11.6 3.8 2 5.8 2 5.8-4.6 7.6v2.2l2.8 1.25 10.45-14.05h2.75v-2.8l21.4 16.6-9-20.4v2.4m-25.8 1.4-2.6 6.4-6.15 10.55 2.75-1.2-1.1 6.7 1.5 7.15 2.1 4.55 3.2-1.25v8.2l5.3 11.5 4.2 6.95 1.6 2.65 2.2.4-2.85-12.25-2.85-12.2-9.9-22.55m-10.9 5 2-2.5 2.75-1.15m22.15-14.15-7 7.35-3.4 7.95-2.8-1.25m-.5 16.05L207.45-58.4l-1.15 7-2.05 5.25q.55.25 1.15.45v5.3l-3.8 3.65-19.15 6.8-2.7 2.35 7.4-2.95 7.45-3-3.65 8.7v5.95l1.5 2.35 4.2-2.15 2.85-3.2 8.9-10 6.7-10.95v-8.7l2.6-9.2m-10.25 2.35 1.15-7 2.3-14m-2.3 14 5.9-2.3m38.3-17.55 3.2 4.1 3.2 4.1m-4.05-32.15L263-83.85l1.1 10.3 10.55 33.15.05.05v.05l.7 2.25-2.9 4.3-2.9 4.3-5 12.6-4.1 3-1.9 2.6v2l-10.2-3.8H234l-6.4-4.4-3.6-15.4v-7l3.2-2.45m38-5.55v-15.4l-9.2-17.9m8.1 7.6 1.1 10.3m4.4 20v7l-1.6 2-3.2 5-2.4 12.8-1.9 2.6m9.1-22.4-.45-.35q-2.45-2-4.4-4.1l-.9-1q-5.15-5.9-7.05-13.05m17.9 14.45-2.2 6.55m-22.7 9.5h-3.4m-2.95-1.85-.9-1.15-6.75-6.4-3.2-7.7-1.6 2.1 4.8 10.8 11.6 8.4h3.4l4.2-10.4-3.2-7.4-13.05-14.05-10.6.4m37.05-4.05 9.45 15.15m-42.05-.95 1.6-2.1h3.8m-9.2 3.8-4.8-.2m21 77.35h-3.75l-7.7 2.85v4.25l.45 1.1 2.4-3.75 8.6-4.45h3.75l1.45-1.45 1.4 1.7m-18.05 6.85-5.4-3.55-2.95-1.95-8.1-8.25-12.15-5.75-11-4.25-6.5 9.75-3.55 1.35h-.05l-3.5 1.3V50.1l2.65 9.75v7.7h-1.8l3.25 4.25 10.25-1.25 11.45-1.45h.05l6.05-.75-11.8-2.05-5.45-4.05 9.95-10.15 16.6-4.65 6.7 2.6 9.15 7.35v-3.05L234 45.7l5.4 9.25m-22.3-24.1 8.5 4 7.95 5.5m-66.4-193.6.05 11.85 1.45 4.7.75 12.35 5.8 28.1 1.75 2.65v-13.5L171-127.95v-22.35l-3.85-2.95h-3.2l-3.8 7.65-16.4 55.25v6.4l-4.45-5.95-3.2-11.05v-3.2l-3.7 4.6-3.75 4.55-3.4 11.25v9.15l-3.4 5.75v4.05l1.65 6 .05.05v-.05l2.8-10.25 4-4.5 5.1 2.15 18.3 24.65 7.45 17.85 2.3 3.2-7.45 3.45-1-.45-2.4-2.75h-.1l-7.5 2.7-8.95-2.75-8.7-6.15-3.2-6.4m.25-105.9v.55l.1 2.5q.05 2.65.25 5.25v20.8l-3 4.2v9.4l-1.8 5.2 1.4 5h1.8v7.4l2.05 4.45m10.85-24.95 5.45 9.85h.05l2.15 3.95m-11.35-9.2-1.7-6.1v-56.4M161.2-28.9l-9.95-13.9-.05-.05-2.45-3.4-6.9-9.65-9.4-6.2h-6.55l-2.1 4.25-1.05 2.15-1.1 2.1v5.35l2.15-.4 9.35 4.65 9.55 7.05 6.15 7.1 3.75 4.35.05.05m33.2-76.9-2.6 4.6L181.8-89l3.1-6.2.95-1.95v-9.55l3 2.55L194-93.8l1 6.45 5.1 5.8 2.35 5.25v-2.55m-7.45-8.5-6.8-12.35-3.3 4.5m-3.1 6.2-.8 1.65-4.05-2.15v-4.1m8.9-13.1 2.35 7m-72.15-45.95.2.55q1.05 2.55 3.45 4.8l.9-.55q-1.2-1.6-1.5-3.5l-.1-1.2v-1.25l-2.25-5.7q2.75 2.4 2.4 4.6l-.15 1.1m-4.4-.1-.05 2.7q.45 2.65 3 5.3l.9-.55-2.2-5.65m1.3 6.2-1.2.8-3.75 2.45 7.15 11.5 3.6 4.45 1.45 4.85m-5.1-25.45-1.25.85m2.15-1.4.75-.5-2.35-4.2m-4.45 1.35q.2 3.2 1.8 6.1m-22.8-.95 2.4 5.4.45.85.8-7.5v-10.25l3.8-2.55 3.2 4.55 8.4 12.9m137.6 171.7 2.6 6.9-5.85 18.5v4.05l-2.85 9.75-2.45 2.85v8.1l-3.05 6.3-23.75 12.6-4.85 5.4 7.1 5.35H196l-16.65-3.05-8.3 2.4 6.15 10.3 9.45 7.55v8.05l-5 12.5-10.3-6.4-.55-.15-1.7-.55q-5.6-2.15-10.55-7.05v-5.85l-5.3-5.3-.15-5.85q-4.15-2.05-8.3 0l-3.25 5.3-3.85 1.1V138l5.4 19.35 9.6 21.05v6.7l-5.7 1.95-5.7 1.9-15.85 3.9-6.95-6.95-4.75-11.65-3.3 10.85-11.15 6.4-6.55-5.95q-2.15-1.95-2.5-4.9.7-2.95.8-6l-11.85-6.3-4.6 7.15-15 5.55-17.05-14.1v-3.8l-5.5 2.55-5.1-4.05h-3l-6.15-7v-3l11.5-8.95h2.55l4.2-10.25-20-13.6-1.75-1.5-8.25-7-5.5-5.5L0 101l14.45-2.95 11.85 1.4-1.65-4.8.7-9.35L23 83.15l4.25-8.95 3.8-18.3 13-24.65 10.6-9.55h2.15l-2-2.55v-7.3l-3.15-1.25-3.6-26.65L51.4-42.8l7.5-15 4.05.3-3-2.55L57-62.5l-.4-.65-3.4-.85v-13.2l5.3-5.3 2.25-1.7 8.8-10.4 3.5-2.05.55-2-3-16.15v-3.85l1.9-1.5 6.85-3.4 13.85-4.9-1.05-1.6q-2.3-4-2.6-10.3 1.3 7.75 5.2 11.05l.95-.05.7-3.35v-.05l-.45-.9m.45.85.8-3.9v-3.6m-.8 7.55v-.05m-3.2 4.35q.65.85 1.45 1.55l.45.4.45-2.15-.8-.65m.8.65.15-.7m-1.9 29.4v-14.45l-.85-1.9 2.15-10.2m26.7 15.85-24.6-34.8 7-3.1m-31.7 28.4 2.35 10.25-4.25-8.75m2.45 22L71.9-92.7l-.65 2.15m-10.5 6.35 5.55-4.25 5.6-4.25m-5.6 4.25-7.4 8.95v5.5l-2.55 4.7 3.6 9.25m3 2.55 4.05.25 6.8-22.05 14.05-15.95v-6.8L91-96.1l2.1-2.85m28.75 30.1-5.1-7.65-3.65-2.15v-5.5l-4-5.75-6.2 2.1h4.9l3 6.6v3l5.7 8.9 3.4 3.4 3.6 7.1.05.05.25.9m-56.8.6 25 9.45 11.15 9.4v21.75L105.1-3.5l7.9-20.35h.05l4.3.8-4.85-10.1-4.05-2.95-8.3-37 2.75-9.15v-5.55m14.45 64.75 4.4.75.1-.95-4.45-5-.65-2.35 3.65-5.5 3.4-3.65v-8.9m-2.05 26.35 1.15.2-1.05-1.15m-1.65 12.4h1.45l-1.1-2.45-.3 2v.05l-.05.4h-1.4l-2.4 3-5.45 17.05 5.3 7.8 7.35 7.65 9-9.35 23.55 9.9h20.95v10.6l3.25-2.55 2.9-6m0-.05 6.6-13.55V-.45l-3.25.15-.9 2.5 3.1 2.4.05.05-.35 2.75v.05l-1.4 1.75-5.1 4.5v-2.95l-.75-.8-4.8.25-.85.85v4.25l-3 .9-1.65.15h-1.6l-1.45-.05-1.7-.1-2.6-.3.05-.2.25-.85.05-4.7-2.85-2.6-3.15 6.75L147.2 11h-.05L136.4 7.7V1.1l-3.95.2-2.55 3.8-11.2-7.2 3.45-.15-.5-8.6m.1-11.45-1.2 9M54.8 11.85l6.9 2.75 3.35 1.3h13.6l1.7-.25 4.15-3.1 3.35-.4H88l19.05-2.45-1.95-13.2M80.35 15.65 76.2 18.7l-7.95 11.65-2.35 3.4 3.9 9.15 6.4-9.45 5 3.35h3.35l6.5 4 .15.05 27.3-11L116.25 17m-48 13.35-6.55-8.9V14.6m49.25-5.4-3.9.5m97.2-55.85-4.35-1.7-13.4 4.25-11.05 5.9-.6.8 10.6-3.15h.05l3.15-.95 8.25-3.4 8.5-1.3m-29.95 8-2.6 1.35 2-.55-5.1 6.65-.9 1.75-1.85 8.4 3.75-.95m20.2-.85q-1.9 2.2-5 3.55h-.05l-2.15.75-2 .5-.6.1h-6.55l-3.4-4.35 4.25-2.75 1.45-1 .85-.75h.05l1.95-1.75M165-8.7h-6.1l-3.25-5.5 5.5 2.85h7.55L165-8.7m-23.8-2.1 2.85 1.2 5.7 2.4 5.85 2.4 10.3 2.55 3.95 1h.05l.05-.05 2.3-2.7 2.4-.6 8.25-2.2h.05l1.05-.3.35-.1 4.4-.6 5.2-6.4-1.5-2.35m-5.3-14-.45 3.75-.25 1.15q-.45 1.3-1.25 2.45l-.2.3q-1.2 1.6-3.25 2.95l-1.45.85q-1.05.8-1.85.95m-.7 0q-2.05-.4-2.3-5.95m24.05 2.2 3.2 1.4h4.3l-2.5 11.75-2.05 2.4v11l-8.5 16.2m-3-45.7-3.65 5.1 3.65-3.65M207-20.5q-4.55 3.85-8.15 5.35l-2.2.75-2.7.2m-6.65-5.55-1.35 1.4m-2.2.75 5.7-10.2m-19.7-2.45 3.1-6.1m-29 10.85h-3.5l-3.2-3.15L135.4-30l-1.4-1.7-1.4-2.5q-1.9-4.25-1-7.15.4-1.5 1.55-2.65m.85 12.3 3.15 3.05.4.25q2.65 1.45 6.2 1.3l1.2-.2q1.85-.55 3.9-2.55m.9 22.65-1.95 3.35v.05l-.65 1.05h-4.45v-5.1l-9.55-5.95-3.1-2.5v5.05h-3.75l-1.65-9.4-1.75-1.45m1.75 1.45 5.4 4.35m8.55-10.15-7.4-4.15-4-5.95m5.4 51.85-3.55 15.05 6.4 9.95v-9.85h3.85l6.8 6.15 2.55 4.25 6 5.95h2.1l4.9 14.25-2.15 20.85-1.2 5.2.45-.2h.05l8.1-4.85 1.1-2.75v-6.5l1.05-3.95 3.75-12.15 4.3-13-.15-7.8.15-.1v7.9l1.65-5m11.1-39.15L186.1-4.6l-2.6 3.15h-1.7l1.15-5.35m-8.3 2.2L171.2 3h-3l-.1-.2-2.2-5.05m9.7 17.55-2.55-3.3V8.05l6.05-.3 2.15 2.2m7.25-2.5-5.55-2.25 3.65-5.5M184-7.1l-1.05.3m5.8-1-2.65 3.2m-43.4-3.25 1.35.85v-2.6m-15 39.95-5.45-5.7m-2.25-166 3.1-2.05m-1.7 87.7.8-3.05m56.8 108.85v11.75l-5.05-5.45-2.5.3m11.65 15.1-3 5.25h-.05v8.15l-5.7-9.55-2-5.9-4.65-.9m-2.15 13.2-1.15 2.75m-30.3-44.5 2.2 2.6 13.15 43.95 5.55 8.35 1.25-4.65m-66.4-49.7 3.35 2.05 4.2 8.9v10.35l9.6 16.15 14.3-16.2 3.9 1.95h15.05m29.45 51.15-.8-1.35v-6.95l-10.5-6.65-4-2.55.6-2.5 3.4 5.05m19.05 33.6-.3-2-5.15-2.45-4.25-2.05-3-5.65v-.05l-4.35-8.15-16.7-7.35m-11.9 1-.2.55-.8 1.8-.65 2q-.55 2.2-.45 4.45.15 3.65 2.15 7.35m-1.7-29.95-1.05.5h-6.65l-9.75 7.8h6.4m17.25 27.2v-3.05m23.65 2.2-8.25-5.55m82.65-54.95 1 4.1v5.05l-8.55 6.6 1.05-1.45-3.25 2.95h1.05L224.6 86l-20.1 10.35-15.95 2.6-2.9 1.45m-6.3 12.4-9.1-10.75 5.05-8.9.6 14.4 27-2.45h11.95m-38.95 2.45-5.65-5.5m8.8 33.5.05.35m-47.6-42.55 13.15-6.5m-45.9-24.7L95.1 56l-8.6-8.9-2.35-.95-.15-.05-4.7-1.95h-.05L76.2 42.9H63.4l-8.05 3.35 2.7 14.15 5.05 7.25 8.2 21.4 4.6 12h-2.8l13.95 20.05v-4.7l3.9-6.4h9.5L96.8 93l8.6-11.45 2.95-3.25M71.3 89.05l-4.1-.6-6.7 5.7-5.6 4.75-15.5 5.5-8.95-2.55-3-8.3.25-6.15-2.35-2.1m41.85 3.15L47.9 85.7H34.95m-7.25 1.7 26.35 6.4 6.45.35m57.25 32.35v-16.25l-3.7-8.6h-6.4l-3.35 4.7V110h-3.85m-13.4 11.1v8.05l3.6.85-3.05 20.3v7.8l5.3 1 4.9-4.05-4.85-29.75 5.3-8.95 6.2.15 2.6-2.4m-70.2 28.6 1.9 2.35 4.15.9h.05l4.5 1 4.45 1.5 13.85 6.15h6.8l5-6.45 6.7-15.85.25-5.1 2.55-6.1m17.4-4.6-2.65 2.35v23.65l5.9 14.85-3.15-12.6 7.55-8.65 8.35-5 7.9 4.4v7.35l-4.8 1.85-.45.15 8.1 8.55 4.95 21.2L147 187.05m-33.25-12.8-4.75-11.7-1.3-5.2M90.65 130l-7.05 18.55v13l7.5 11.4q-.15-7.15-3.5-14.85m3.5 14.85-.05 1.7m1.85-15.55 4.5 11.8 4.05 13.45-2.15 7.15m-47.4-43.05-4.65 4.9v3.6l-4.7 6.2 10.85 8.25 6.2 3.7q5-2.35 8.05-6.25 2.8-3.7 3.85-8.7l1.05-5.55M59.6 175.1v5.95m19.6-12.7-1.65-20.2m65.55 9.2-2.1-4.55m-32 9.75q11.9 3.1 20.1-6.4l.5-.6 1.6-2.15M224.6 86l1.4-1.25h-8.3L215.5 83l-1.45 1.35-25.5 14.6m50.85-36.1-10.95 6.7-1.85 3.05 2.05.6m8.1-1.6-7.5 10.2M215.5 83l11.1-10.4-14.35-4.25M76.2 42.9l.55-4.15M210 110.5l-7.1-5.4M212-86.1l-9.55 9.8M41.05 132.45l2.95.65-12.75-19.35-4.95-14.3m10.75 66.25-2.75-7.05-5.55-4.25 1.6 3.6 1.6 3.65m2.35-3h6.35l.05-.05.75-1.3 6-10.35m-10.4 18.75 3.6-7.05m-1.9-13.6-6.8 7-3.2 2.35m-5.95-2.75 7.55 6.35m122.3-183.45h-.1m30.7 52.7v-.05M131.5 93.35l.85 1.55" transform="translate(1 193.85)"/><path fill-rule="evenodd" fill="url(#c)" d="M232.75 40.6q4.35 2.8 7.15 7.05 2.65 3.95 3.85 9.25l.8 4.75q.45 5.95-1.4 11.6l-.4 1.05-1.45 3.35q-5 9.85-14.65 12.9-5.25 1.65-10.15.75-4.1-.75-7.95-3.25-8.15-5.25-10.85-15.35l-.25-1.05q-2.5-10.85 2.5-20.75 5.05-9.85 14.6-12.9 2-.65 4-.85 4.35-.6 8.55.75 2.85.9 5.65 2.7" transform="translate(1 193.85)"/><path fill-rule="evenodd" fill="url(#d)" d="M193.65-107.8q2.8 3.7 4.6 9.6 1.7 5.55 2.5 13.05 1.65 15.5-1.6 30.15-3.25 14.7-9.45 19.9-6.15 5.2-11.65-2.1-5.55-7.3-7.15-22.8-1.65-15.45 1.6-30.1 3.25-14.7 9.4-19.9 4.2-3.45 8.1-1.2 1.85 1.05 3.65 3.4" transform="translate(1 193.85)"/><path fill-rule="evenodd" fill="url(#e)" d="M76.65-81.5q5.2-4.55 10.1-4.4 4.85.2 6.55 4.95 1.7 4.7-.75 11.15-2.45 6.55-7.65 11.05-5.2 4.55-10.1 4.35l-1-.05q-1.25-5.9-3.2-9.6-1.25-2.35-2.55-3.4L69-70.5q2.45-6.5 7.65-11" transform="translate(1 193.85)"/><path fill-rule="evenodd" fill="url(#f)" d="M50.85-35.8q2.25-14.7 6.55-19.9 2.9-3.45 5.6-1.2 1.3 1.05 2.55 3.4 1.95 3.7 3.2 9.6 1.2 5.55 1.75 13.05 1.15 15.5-1.1 30.15-2.3 14.7-6.6 19.9l-1.75 1.65L60.7 14Q60.15 6.5 58.95.95q-1.25-5.9-3.2-9.6-1.25-2.35-2.55-3.4-1.85-1.55-3.8-.4-.3-11.9 1.45-23.35" transform="translate(1 193.85)"/><path fill-rule="evenodd" fill="url(#g)" d="M174.45-21.25q-1-1.7.25-4 1.3-2.35 4.05-3.95t5.35-1.5q2.7.05 3.7 1.75.95 1.65-.35 4-1.25 2.3-4 3.9t-5.4 1.55q-2.65-.1-3.6-1.75" transform="translate(1 193.85)"/><path fill-rule="evenodd" fill="url(#h)" d="M133.55-38.4q.95-1.7 3.6-1.8 2.65 0 5.4 1.6 2.75 1.55 4 3.85 1.3 2.35.3 4.05-.95 1.7-3.6 1.7-2.65.1-5.4-1.45-2.75-1.6-4.05-3.95-1.25-2.3-.25-4" transform="translate(1 193.85)"/><path fill-rule="evenodd" fill="url(#i)" d="M48.45 66q-2.7 3.9-5.75 7.45-7.8 9-13.6 10.45-5.8 1.45-6.2-5.5-.45-6.95 4.75-18.25 5-10.75 12.4-19.5 1.2 14.35 4.85 21.3 1.7 3.3 3.55 4.05" transform="translate(1 193.85)"/><path fill-rule="evenodd" fill="url(#j)" d="M73.65 164.35q1.6 3.5-.45 5.7-1 1-2.8 1.7-2.85 1.15-6.95 1.15l-8.9-1q-10.35-2.1-19.45-7.3-9.1-5.25-11.55-10.5-2.45-5.2 3.15-7.4 5.55-2.2 15.95-.1 10.3 2.1 19.45 7.3 9.05 5.2 11.55 10.45" transform="translate(1 193.85)"/><path fill-rule="evenodd" fill="#c5d1de" d="m119-146.8-2.25-5.7q2.75 2.4 2.4 4.6l-.15 1.1" transform="translate(1 193.85)"/><path stroke-width="2" stroke-linejoin="round" stroke-linecap="round" stroke="#6f5428" fill="none" d="M144.6 6.2h-.05L137.8 1 132 5.4l-3.2 4.6q-3.7 20.95-3.35 39.9v.55l-3.1 2.05-2.35-4.2.1 1.2q.3 1.9 1.5 3.5l-.9.55q-2.4-2.25-3.45-4.8l2.2 5.65-.9.55q-2.55-2.65-3-5.3.2 3.2 1.8 6.1l-3.75 2.45L102 40.75l-3.8 2.55v13.85l-.8 3.9v.1l-.85 4.05-.8-.65q-3.9-3.3-5.2-11.05.3 6.3 2.6 10.3l1.05 1.6-13.85 4.9-6.85 3.4-1.9 1.5v3.85l3 16.15-.55 2-3.5 2.05-8.8 10.4-2.25 1.7-5.3 5.3v13.2l3.4.85.4.65 5.95 5-4.05-.3-7.5 15-3.35 26.75 3.6 26.65 3.15 1.25v7.3l2 2.55h-2.15l-10.6 9.55-13 24.65-3.8 18.3L24 277l2.35 2.15-.7 9.35 1.65 4.8-11.85-1.4L1 294.85l5.55 3.85 5.5 5.5 8.25 7 1.75 1.5 20 13.6-4.2 10.25H35.3l-11.5 8.95v3l6.15 7h3l5.1 4.05 5.5-2.55v3.8l17.05 14.1 15-5.55 4.6-7.15 11.85 6.3q-.1 3.05-.8 6 .35 2.95 2.5 4.9l6.55 5.95 11.15-6.4 3.3-10.85 4.75 11.65 6.95 6.95 15.85-3.9 11.4-3.85v-6.7l-9.6-21.05-5.4-19.35v-9.15l3.85-1.1 3.25-5.3q4.15-2.05 8.3 0l.15 5.85 5.3 5.3v5.85q4.95 4.9 10.55 7.05l1.7.55.55.15 10.3 6.4 5-12.5v-8.05l-9.45-7.55-6.15-10.3 8.3-2.4L197 309.7h21.1l-7.1-5.35 4.85-5.4 23.75-12.6 3.05-6.3v-8.1l2.45-2.85 2.85-9.75v-4.05l.45-1.4q.85.6 1.1-.6.95-5.2 2.7-10.15l.05-.1.75-2 1.85-4.45v-.35l-.15-.85-.05-.1q-.2-.3-.6-.35v.05q-.5 0-.75.4l-2.1-5.5-1.45 1.45h-7.5l-7.7 2.85-7.95-5.5-20.65-9.75-11-4.25 8.5-16.2v-.35q.45-1.95 0-3.9v-6.75l2.05-2.4 2.5-11.75h-4.3l-3.2-1.4 8.9-10 6.7-10.95v-8.7l2.6-9.2 5.3 11.5 4.2 6.95L225 154v7l3.6 15.4 6.4 4.4h14.4l10.2 3.8v-2l1.9-2.6 4.1-3 5-12.6 5.8-8.6-.7-2.25-.05-.1-10.55-33.15L264 110l-7.85-25.35L251.8 80l-7 6v2.2l-.8-1.8V83l-9.2-13.4-8.2-4v8.6h2v8.2l-7.2-6.8-3.4-4.4-4.2-14.6-2.2 2.8-2 10-10-13.2-10.2-9.9-1.2-5.3-5.6-9.8-14.25-11h-.05l-3.1-2.4h-3.4l-11.2-7-6-4.6m68.05 111.9h.05l.7 3.5 2.1 4.55-5.9 2.3 2.3-14 .75 3.65M120 47.05l-2.25-5.7q2.75 2.4 2.4 4.6l-.15 1.1"/></g><path fill-rule="evenodd" fill-opacity="0" fill="#f0f" d="M100 40H0V0h100v40" id="a"/></defs><path fill="none" d="M-1-1h413v572H-1z"/><g transform="scale(2)"><use x="102.55" y="241.5" xlink:href="#k" width="381" transform="translate(-192.55 -294)" height="381"/><use x="-56.152" y="-32.624" xlink:href="#l" width="100" transform="translate(100.65 138.85) scale(1.5939)" height="40"/><use x="-140.46" y="330.777" xlink:href="#m" width="277.4" transform="matrix(-.7301 0 0 .7301 100.98 -240.621)" height="387.7"/></g></svg>