<svg width="102" height="130" xmlns="http://www.w3.org/2000/svg" xmlns:xlink="http://www.w3.org/1999/xlink"><defs><g id="c" stroke-linejoin="round" stroke-linecap="round" fill="none"><path stroke-opacity="0" stroke="#f0f" d="M187.95-293.5v380h-380v-380h380M92.95.6H-97" transform="translate(192.55 294)"/><path stroke-opacity="0" stroke="#f0f" d="m187.95-293.5-190 190 190 190m-380-380 190 190L-192 86.5" transform="translate(192.55 294)"/><path stroke-width=".25" stroke="#000" d="m179.9 246.9.9.2.35.65q0 .3-.35.6l-.9.2-.9-.2-.35-.6.35-.65.9-.2z"/></g><g id="d"><path fill-rule="evenodd" d="M12-93.15q-.75 10.2.5 20.05l.7 3.3 1 5.75q2.15.2 3.8 1.75 1.9 1.75 2.05 4.3.15 2.55-1.5 4.35-1.55 1.7-3.85 1.8-.75 4.3-3.3 5.2l-1 .3 1.5 3.85q-5.6.9-7.35.05l.3-3.35-10.3-.5q-5.2-.55-8.7-1.5l.3.35q-10.15 1.6-11.9.8.9-4 4.75-5.6-1.45-2.75-1.5-8 0-2.9.4-6.55l1-6.7v-.05l.1-.3v-.1l1.4-5.1q3.75-12.25 12.2-23.45-1.05 3.25-1.45 6.55-.65 5.7.55 11.3l4.05.15q2.55.1 3.7.7l2.35 1.3q1.1-3.4 5.1-8.7 4.85-6.5 4.8-7.95.5 2.85.3 6" transform="translate(27.25 104)"/><path stroke-width="3" stroke-linejoin="round" stroke-linecap="round" stroke="#262015" fill="none" d="M39.25 10.85q-.75 10.2.5 20.05l.7 3.3 1 5.75q2.15.2 3.8 1.75 1.9 1.75 2.05 4.3.15 2.55-1.5 4.35-1.55 1.7-3.85 1.8-.75 4.3-3.3 5.2l-1 .3 1.5 3.85q-5.6.9-7.35.05l.3-3.35-10.3-.5q-5.2-.55-8.7-1.5l.3.35q-10.15 1.6-11.9.8.9-4 4.75-5.6-1.45-2.75-1.5-8 0-2.9.4-6.55l1-6.7v-.05l.1-.3v-.1l1.4-5.1Q11.4 12.7 19.85 1.5 18.8 4.75 18.4 8.05q-.65 5.7.55 11.3l4.05.15q2.55.1 3.7.7l2.35 1.3q1.1-3.4 5.1-8.7 4.85-6.5 4.8-7.95.5 2.85.3 6z"/><path fill-rule="evenodd" fill="#cac8b9" d="M20.05-58q.15 2.55-1.5 4.35-1.7 1.8-4.25 1.85-2.55 0-4.5-1.75-1.9-1.8-2-4.3-.2-2.55 1.5-4.4 1.65-1.8 4.25-1.8 2.55 0 4.45 1.75 1.9 1.75 2.05 4.3" transform="translate(27.25 104)"/><path stroke-width=".25" stroke-opacity=".502" stroke-linejoin="round" stroke-linecap="round" stroke="#280f06" fill="none" d="M47.3 46q.15 2.55-1.5 4.35-1.7 1.8-4.25 1.85-2.55 0-4.5-1.75-1.9-1.8-2-4.3-.2-2.55 1.5-4.4 1.65-1.8 4.25-1.8 2.55 0 4.45 1.75 1.9 1.75 2.05 4.3z"/><path fill-rule="evenodd" fill="#7c4a38" d="m-8.3-84.65 4.05.15q2.55.1 3.7.7l2.35 1.3q1.1-3.4 5.1-8.7 4.85-6.5 4.8-7.95.5 2.85.3 6L6.05-73.3 7.6-59.9l-4.5 6.85q-13.25 6-22.05-.8l-3.55-6.4q0-2.9.4-6.55l1-6.7v-.05l.1-.3v-.1l1.4-5.1q3.75-12.25 12.2-23.45-1.05 3.25-1.45 6.55l-5.1 12.85.4-.05-.05.05h2.05l.35.05.3-.15 2.6-1.4v-.05m-10.35 14.1 2.05.7-2.05-.7m1.8 10.55q.5 1.4 1.9 2.9.8-1.05 1.15-2.2l12.4 1.55 1.3 2.35Q1-56.2 1.8-58l4.1-1.3q-1.35-1.25-3.2-1.15h-.1l-4.8-.45-11.5-1.1-3.6-.3.05-.2h-.05q-1.6-.15-2.35.65l2.8 1.85m7.2-9.35-.1-2.35.1 2.35m3.75.2L-6-71.7l-6.15-1 6.15 1 .1 2.55m7.6-12.9.1-.45-.1.45m3.95 14.6h-3.2 3.2m.75 8.7-.5-.55.5.55" transform="translate(27.25 104)"/><path fill-rule="evenodd" fill="#3e241c" d="M12-93.15q-.75 10.2.5 20.05l.2 1.8.5 1.5q.75 3.55 1.3 8.25 1.65 13.3-3.1 14.9l-1 .3-.05-.15-3.15-2.55q-1.9.65-2.25 2.25l-.1 1-10.3-.5q-5.2-.55-8.7-1.5l-2.35-2.8-3.7-2-.8.35q-1.45-2.75-1.5-8l3.55 6.4q8.8 6.8 22.05.8l4.5-6.85-1.55-13.4L12-93.15m-20.85-2.8q-.65 5.7.55 11.3v.05l-2.6 1.4-.3.15-.35-.05h-2.05l.05-.05-.4.05 5.1-12.85M-17.3-62.3v-.2h.05l-.05.2" transform="translate(27.25 104)"/><path fill-rule="evenodd" fill="#e3d6bf" d="M-16.85-60q-.5-1.2-.45-2.3l3.6.3q.3 1.4-.1 2.7-.35 1.15-1.15 2.2-1.4-1.5-1.9-2.9M1.8-58Q1-56.2-.1-55.4l-1.3-2.35q-.65-1.55-.8-3.15l4.8.45L1.8-58" transform="translate(27.25 104)"/><path fill-rule="evenodd" fill="#60382b" d="M-17.3-62.3q-.05 1.1.45 2.3l-2.8-1.85q.75-.8 2.35-.65v.2m3.5 3q.4-1.3.1-2.7l11.5 1.1q.15 1.6.8 3.15l-12.4-1.55M1.8-58l.8-2.45h.1q1.85-.1 3.2 1.15L1.8-58" transform="translate(27.25 104)"/><path fill-rule="evenodd" fill="#f4e1a2" d="m12.5-73.1.7 3.3-.5-1.5-.2-1.8" transform="translate(27.25 104)"/><path fill-rule="evenodd" d="m10.4-46.35 1.5 3.85q-5.6.9-7.35.05l.3-3.35.1-1q.35-1.6 2.25-2.25l3.15 2.55.05.15m-24.55-1.45.3.35q-10.15 1.6-11.9.8.9-4 4.75-5.6l.8-.35 3.7 2 2.35 2.8" transform="translate(27.25 104)"/><path stroke-width=".25" stroke-opacity=".502" stroke-linejoin="round" stroke-linecap="round" stroke="#280f06" fill="none" d="m18.95 19.35 4.05.15q2.55.1 3.7.7l2.35 1.3q1.1-3.4 5.1-8.7 4.85-6.5 4.8-7.95.5 2.85.3 6-.75 10.2.5 20.05l.7 3.3q.75 3.55 1.3 8.25 1.65 13.3-3.1 14.9l-1 .3 1.5 3.85q-5.6.9-7.35.05l.3-3.35-10.3-.5q-5.2-.55-8.7-1.5l.3.35q-10.15 1.6-11.9.8.9-4 4.75-5.6-1.45-2.75-1.5-8 0-2.9.4-6.55l1-6.7v-.05l.1-.3v-.1l1.4-5.1Q11.4 12.7 19.85 1.5 18.8 4.75 18.4 8.05q-.65 5.7.55 11.3v.05l-2.6 1.4m-6.4 20.9q-.05 1.1.45 2.3.5 1.4 1.9 2.9.8-1.05 1.15-2.2.4-1.3.1-2.7l-3.6-.3m0-.2q-1.6-.15-2.35.65m2.35-.65H10l-.05.2m15.9 4.55 1.3 2.35q1.1-.8 1.9-2.6l.8-2.45-4.8-.45q.15 1.6.8 3.15M13.55 42l11.5 1.1m4-21.6-.1.45m10.8 8.95.2 1.8.5 1.5m-10.6 9.35h.1q1.85-.1 3.2 1.15l.5.55m4 12.4-.05-.15-3.15-2.55q-1.9.65-2.25 2.25l-.1 1m-19-2-2.35-2.8-3.7-2-.8.35"/><path stroke-width=".25" stroke-linejoin="round" stroke-linecap="round" stroke="#000" fill="none" d="m16.05 20.95-.35-.05m-5.05 13.25-2.05-.7m6.5-2.15 6.15 1 .1 2.55M17.5 32.3l.1 2.35m12.1 1.9h3.2"/><path fill-rule="evenodd" fill-opacity=".443" fill="#f4e1a2" d="M-8.1-57q1.9 0 3.35 1.3 1.4 1.3 2.25 2.65.9 1.3.95 2.45.1 1.15-1.75 2.15-1.8 1-4.35.75-2.6-.25-4.25-1.5l-.15-.1-1.4-1.6q-.45-.8-.2-2.15.2-1.3 1.9-2.6Q-10-57-8.1-57" transform="translate(27.25 104)"/></g><path fill-rule="evenodd" fill-opacity="0" fill="#f0f" d="M0 0h102.95v45H0V0" id="a"/><use xlink:href="#a" width="102.95" height="45" id="b"/></defs><path fill="none" d="M-1-1h104v132H-1z"/><g transform="scale(2)"><use x="-90.471" y="-113.98" xlink:href="#b" width="102.95" transform="matrix(1.8072 0 0 1.6538 96 183.5)" height="45"/><use x="28.55" y="105" xlink:href="#c" width="381" transform="translate(-192.55 -294)" height="381"/><use x="28.55" y="105" xlink:href="#d" width="48.8" transform="translate(-27.25 -104)" height="63.45"/></g></svg>