<svg width="268" height="639" xmlns="http://www.w3.org/2000/svg" xmlns:xlink="http://www.w3.org/1999/xlink"><defs><g id="r" stroke-opacity="0" stroke-linejoin="round" stroke-linecap="round" stroke="#f0f" fill="none"><path d="M187.9-380V0h-380v-380h380m-95 351.1H-97.05" transform="translate(192.6 380.5)"/><path d="m187.9-380-190 190 190 190m-190-190L-192.05 0m-.05-380 190 190" transform="translate(192.6 380.5)"/><path d="M187.9-380V0h-380v-380h380m-95 351.1H-97.05" transform="translate(192.6 380.5)"/><path d="m187.9-380-190 190 190 190m-190-190L-192.05 0m-.05-380 190 190" transform="translate(192.6 380.5)"/></g><g transform="translate(17.2 67.1)" id="s"><use xlink:href="#a" width="30.75" transform="translate(-16.15 -67.1)" height="74.05"/><use xlink:href="#b" width="13.7" transform="matrix(1.0927 .1853 -.0524 .9984 -14.914 -12.71)" height="11.15"/><use xlink:href="#c" width="20.8" transform="matrix(-.5521 -.3581 .5438 -.8384 -4.729 -5.932)" height="5.7"/><use xlink:href="#d" width="10.7" transform="matrix(-1 0 -.342 1 15.42 -5.25)" height="11.95"/><use xlink:href="#c" width="20.8" transform="matrix(0 -.3405 1 0 4.3 -.768)" height="5.7"/><use xlink:href="#e" width="8.55" transform="rotate(-132.612 1.097 -1.589) scale(.9911)" height="7.15"/><use xlink:href="#f" width="2.3" transform="rotate(-87.94 -6.46 .486) scale(1.1598)" height="7.05"/><use xlink:href="#g" width="18" transform="matrix(.9839 -.1692 .1693 .9839 -17.19 -27.096)" height="14.4"/><use xlink:href="#h" width="18.45" transform="matrix(.9958 -.0878 .0878 .9958 -10.469 -54.127)" height="18.8"/><use xlink:href="#i" width="12.05" transform="translate(-2.25 -41)" height="14.85"/><use xlink:href="#j" width="8.95" transform="matrix(1.1153 -.1095 .0392 1.1129 -13.836 -32.386)" height="21"/><use xlink:href="#k" width="6.65" transform="matrix(1.0013 .0289 -.0917 .9955 -12.33 -51.797)" height="21"/><use xlink:href="#l" width="6.2" transform="translate(7.213 -28.237) scale(1.1571)" height="6.15"/><use xlink:href="#m" width="14.9" transform="translate(-4.55 -32.35)" height="14.65"/><use xlink:href="#g" width="18" transform="rotate(-60 -10.536 -.646)" height="14.4"/><use xlink:href="#n" width="13.05" transform="rotate(-10.492 -298.858 64.587) scale(.9989)" height="20.6"/><use xlink:href="#o" width="6" transform="matrix(-.5553 -.0178 -.0178 .5553 -9.622 -56.99)" height="7.6"/><use xlink:href="#p" width="5.05" transform="matrix(.6949 .0619 -.0619 .6949 -4.79 -66.906)" height="24.9"/><use xlink:href="#k" width="6.65" transform="matrix(1 -.0631 0 1 .3 -49.554)" height="21"/><use xlink:href="#j" width="8.95" transform="matrix(1.0506 .307 -.3733 1.0741 1.781 -32.593)" height="21"/></g><g id="a"><path fill-rule="evenodd" d="m8.65-46.35-.5.9-.1 4.9.6 5.4L9.7-31.9l-.25 1.7.35 2.2 1-.1q1.4 0 2.4 1t1.05 2.4v.05q-.05 1.4-1.05 2.4-1 1.05-2.4 1.05-1.3 0-2.2-.8l-.4 1.5v.05q1.1 6.85.9 13.6.9.45.8 1.65l-.4 1.6.35 2.85q0 2.2 2.2 4.15l-.5 2.4-2.45.05-.55-.5-.85 1.1L5 6.6q-1.15-.15-1.8-.75V2.2l.2-.5-.8-.4.5-1.05 1-1.5-.4-.45L4.9-3l.15-.75-.1.15-.65.4-1.9.15Q1.65-3.3.9-4.1l-.05-.2-.6-.9v-.05l-.6-.8-.55.1.35 1 .15 1.1-3.05.75-1.45-.4-1.1.8-.05.15-.5.6-2.85 1.3-3.95-2.05.6-.95-.75-.15-1.7-1.3 1.5-1.15 2.5-.1 3.85-1.2.2-.4-2.6-2.2-1.1.8L-12-11.7l-.25-.15-.6-.3-2.95-1.4.75-1.4-.05-.05 1.3-2.25 1.4-1.75.7-4.6h-.05l.4-7.05.05-.3-.15-.2-.05-.65.2-1.1.35-1.4.75-3.45-.2-.1-.8-.4q-.6-.25-.85-1l-1.95.85.3-2.25 1.4-.65.1-1.2.4-6.3-.15-.35q-.55-1.2-.3-1.6l.7-.55.8-1.75-.65-.6q-.5-.1-.8-.35l-.45-.45-.25-.7q-.1-.7.35-1.2.5-.5 1.1-.6l1 .2.55.7.1.45q.1.65-.05.9l-.15.55v.2q1.6-1.4 3.55-.6l.3.15h.05l.4.2q1.2-5 1.9-12.55l.7 7.05q.4 3.2.35 7.1l2.05 1.05-.05.05 5.5.9 1.45 1.1q1.65 1.45 2.45 3.15m-6 30.75-.7 2.7h.55l1.25-1.15-.15-2.5-.1.4-.5.35-.25.1-.1.1m.55 5.8-2.25.55-.3.95.55.1.2.45.1.6-.3.6.2.25.15-.15q.35.9 1.05 1.25l1.1.25.2-.1q.55-.45.95-1.4v-.05q-.4-1.75-.65-3.55l-.25.05-.55.3-.2-.1m-9.45-27.9h-.05l-.25 2.25-1.95 1.4.05 1.45.05.75-.15.3-.05.05-.2.2 1.1 1.4-.75 1.3 1.1 3 .15 1.05 1.5-1.4 1.4-1.2-.15-.15 1.25-2-.3-1 1.3-1.95.1 2.75.05.05q-.25-1.75.1-4.5.35-2.8 1.1-4.4l-.7-.3-.9-1.25-.85-1.05-.25-.65q-.5 3.05-2.7 3.9M-2.5-22l-3.7 3.65.05.25-.35.5-.2.2-.05.15.3 2.65.55-.2.95-1.85 1 1.05 2.45-4.35q-.9-.65-1-1.6V-22m.2 12 .9 1.55.65.05.05-.45h-.05l-1.4-1.2-.15.05m-1.8-1.85-.05-.35-.8.55.75.85.15.05-.05-1.1" transform="translate(16.15 67.1)"/><path stroke-width=".75" stroke-linejoin="round" stroke-linecap="round" stroke="#4d411a" fill="none" d="M24.8 20.75q-.8-1.7-2.45-3.15l-1.45-1.1-5.5-.9.05-.05-2.05-1.05q.05-3.9-.35-7.1l-.7-7.05q-.7 7.55-1.9 12.55l-.4-.2H10l-.3-.15q-1.95-.8-3.55.6v-.2l.15-.55q.15-.25.05-.9l-.1-.45-.55-.7-1-.2q-.6.1-1.1.6-.45.5-.35 1.2l.25.7.45.45q.3.25.8.35l.65.6-.8 1.75-.7.55q-.25.4.3 1.6l.15.35-.4 6.3-.1 1.2-1.4.65-.3 2.25 1.95-.85q.25.75.85 1l.8.4.2.1-.75 3.45-.35 1.4-.2 1.1.05.65.15.2-.05.3-.4 7.05h.05l-.7 4.6-1.4 1.75-1.3 2.25.05.05-.75 1.4 2.95 1.4.6.3.25.15 1.15 2.35 1.1-.8 2.6 2.2-.2.4-3.85 1.2-2.5.1L.95 62l1.7 1.3.75.15-.6.95 3.95 2.05 2.85-1.3.5-.6.05-.15 1.1-.8 1.45.4 3.05-.75-.15-1.1-.35-1 .55-.1.6.8v.05l.6.9.05.2q.75.8 1.5 1.05l1.9-.15.65-.4.1-.15-.15.75-1.2 1.3.4.45-1 1.5-.5 1.05.8.4-.2.5v3.65q.65.6 1.8.75l2.7-.15.85-1.1.55.5 2.45-.05.5-2.4Q26 68.55 26 66.35l-.35-2.85.4-1.6q.1-1.2-.8-1.65.2-6.75-.9-13.6v-.05l.4-1.5q.9.8 2.2.8 1.4 0 2.4-1.05 1-1 1.05-2.4v-.05q-.05-1.4-1.05-2.4t-2.4-1l-1 .1-.35-2.2.25-1.7-1.05-3.25-.6-5.4.1-4.9.5-.9m-6 30.75-.7 2.7h.55l1.25-1.15-.15-2.5-.1.4-.5.35-.25.1-.1.1m.55 5.8-2.25.55-.3.95.55.1.2.45.1.6-.3.6.2.25.15-.15q.35.9 1.05 1.25l1.1.25.2-.1q.55-.45.95-1.4v-.05q-.4-1.75-.65-3.55l-.25.05-.55.3-.2-.1M9.9 29.4q2.2-.85 2.7-3.9l.25.65.85 1.05.9 1.25.7.3q-.75 1.6-1.1 4.4-.35 2.75-.1 4.5l-.05-.05-.1-2.75-1.3 1.95.3 1-1.25 2 .15.15-1.4 1.2-1.5 1.4-.15-1.05-1.1-3 .75-1.3-1.1-1.4.2-.2.05-.05.15-.3-.05-.75-.05-1.45 1.95-1.4.25-2.25h.05m3.75 15.7-3.7 3.65.05.25-.35.5-.2.2-.05.15.3 2.65.55-.2.95-1.85 1 1.05 2.45-4.35q-.9-.65-1-1.6v-.45m.2 12 .9 1.55.65.05.05-.45h-.05l-1.4-1.2-.15.05m-1.8-1.85.05 1.1-.15-.05-.75-.85.8-.55.05.35"/></g><g id="b"><path fill-rule="evenodd" fill="#958243" d="m-4.5-.1.45-.25L-2.9-2.9l1.5-1.2 1.65.15L2.2-.85l-.5.45.55 1.5.2 1.05L-.3 3.4l-1.35-.15-.95 1-.05.15-.4.65-2.55 1.8-2.9-1.05 1.2-.65 1.65-.9 3.2-1.75.7-2.1-2.45-.45-.3-.05m.45-.25-.15.3.15-.3m-3.25 5.5.95.4.95-.95-.25-.35.25.35-.95.95-.95-.4m8.5-5 .5-.55-.5.55" transform="translate(11.15 4.2)"/><path fill-rule="evenodd" fill="#b9ab7b" d="m-8.5 5.8-.75-.3.5-1.1h-.7l-1.6-1 1.3-1.4 2.25-.5 3-1.6.3.05 2.45.45-.7 2.1-3.2 1.75-1.65.9-1.2.65m-.85-2.25 1-.5-.3-.45.3.45-1 .5M-6 3.8l.35.45L-6 3.8m-2.05 1.05.75.3-.75-.3" transform="translate(11.15 4.2)"/><path stroke-width=".25" stroke-linejoin="round" stroke-linecap="round" stroke="#4b3f27" fill="none" d="m6.65 4.1.45-.25L8.25 1.3 9.75.1l1.65.15 1.95 3.1-.5.45.55 1.5.2 1.05-2.75 1.25-1.35-.15-.95 1-.05.15-.4.65-2.55 1.8L2.65 10l-.75-.3m.5-1.1h-.7l-1.6-1m6.85-3.45.15-.3m-1.6 4.6.25.35-.95.95-.95-.4-.75-.3M2.5 6.8l.3.45-1 .5m3.7.7L5.15 8m7.7-4.2-.5.55"/></g><g id="c"><path fill-rule="evenodd" fill="#958243" d="m-17.35.9-.95-3.15 2.5-.65 13 .7 4.95-.4.25 2.1-2.45 2.05Q-1.2 2.7-5.25 2.6L-15.6 1.25l-.35-.1-1.4-.25" transform="translate(18.3 3)"/><path stroke-width=".25" stroke-linejoin="round" stroke-linecap="round" stroke="#4b3f27" fill="none" d="m.95 3.9 1.4.25.35.1L13.05 5.6q4.05.1 5.2-1.05L20.7 2.5 20.45.4 15.5.8 2.5.1"/></g><g id="d"><path fill-rule="evenodd" fill="#c4ab59" d="M-4.15.35-2.6-2.9l1.55-1.15 1.6.3L2.35-.6l-.55.45.45 1.5.15 1.05-.9.4v.5L.25 6.95q-.9.6-2.05.75l-1.05-1.45 1.3-.2.3-1.65-.5-.25.5.25-.3 1.65-1.3.2 1.1-2.1 1.4-2.85-1.8-.05.3-.75-2.3-.15m5.65 1.1-.15.65.1.15.05.55-.05-.55-.1-.15.15-.65M1.25.35l.55-.5-.55.5" transform="translate(8.2 4.15)"/><path fill-rule="evenodd" fill="#f4e1a2" d="m-4.15.35 2.3.15-.3.75 1.8.05-1.4 2.85-.8-.25.8.25-1.1 2.1L-1.8 7.7l-2.65-.15-.5-1.1-.7.5-2.45-.05.35-2.4Q-4.9 2.55-4.15.35m-2.05 5.6.65-1.25-.6-.25.6.25-.65 1.25m3.35.3-1 .2 1-.2" transform="translate(8.2 4.15)"/><path stroke-width=".25" stroke-linejoin="round" stroke-linecap="round" stroke="#635434" fill="none" d="m10 4 .55-.45L8.75.4 7.15.1 5.6 1.25 4.05 4.5m2.4 3.8.5.25-.3 1.65-1.3.2m1.05 1.45q1.15-.15 2.05-.75L9.7 7.45v-.5l-.05-.55-.1-.15.15-.65m0 1.35.9-.4-.15-1.05L10 4l-.55.5m-3 3.8-.8-.25m-3.6.55.6.25L2 10.1m4.4 1.75-2.65-.15-.5-1.1-.7.5-2.45-.05.35-2.4Q3.3 6.7 4.05 4.5m.3 6.1 1-.2"/></g><g id="e" fill-rule="evenodd"><path fill="#121d1d" d="M1.6-3.1q1.15.4 2 1.55.7 1 .8 2.05.05 1.25-.6 2.05-.9 1.15-1.5.95-1.45-.15-.9-1.45l1-.35.5-1.25q-.3-1.6-1.75-2.1h-.2l-.2-.05-.5-.05v.2l-1.6-.1-.95.7-.05.2q-.1.7.4 1.65.25 2.75-1 .75t-1.2-2.6L-4-1.7q.2.95 1.2 1l.55-1.05q1.45-.85 3.3-.7l.85.4-.3-1.05" transform="translate(4.15 3.6)"/><path fill="#4f586c" d="m-.85-3.55 1.1.2v.05l1.35.2.3 1.05-.85-.4q-1.85-.15-3.3.7L-2.8-.7q-1-.05-1.2-1 .25-1.1 1.2-1.5l.95.95.95-.3.05-1" transform="translate(4.15 3.6)"/><path fill="#8ab7a6" d="M-2.8-3.2q.7-.4 1.8-.4l.15.05-.05 1-.95.3-.95-.95" transform="translate(4.15 3.6)"/></g><g id="f" fill-rule="evenodd"><path fill="#121d1d" d="m-1.35-.8.5.7L0 0l.7-.35.1 3.45-.1.8-.35.2-.55.1-.6-.3q-.85-2.4-.55-4.7" transform="translate(1.45 2.85)"/><path fill="#4f586c" d="M.65-2.5.7-.35 0 0l-.85-.1-.5-.7.7-1.6.15.65.7-.05.45-.7" transform="translate(1.45 2.85)"/><path fill="#8ab7a6" d="m.65-2.5-.45.7-.7.05-.15-.65.55-.45.75.35" transform="translate(1.45 2.85)"/></g><g id="g"><path fill-rule="evenodd" fill="#d9c890" d="m-5.25 1.3 2.55.3.05.1.35.9q-7.6 4.1-13 8.75l-1.1-.85 1.65-2q4.15-3.9 9.5-7.2" transform="translate(16.4 1.8)"/><path fill-rule="evenodd" fill="#ae984f" d="m-3.1 0 2.85 1.05.95 1.9q-6.8 5.7-14.5 9.55l-1.5-1.15q5.4-4.65 13-8.75l-.35-.9-.05-.1-2.55-.3L-3.1 0" transform="translate(16.4 1.8)"/><path fill-rule="evenodd" fill="#8a6f32" d="m.05-1.7.75.8.1.1.6.65-.8 3.1-.95-1.9L-3.1 0 .05-1.7" transform="translate(16.4 1.8)"/><path stroke-width=".25" stroke-linejoin="round" stroke-linecap="round" stroke="#584a2e" fill="none" d="m17.2.9-.75-.8m.65 4.65.8-3.1-.6-.65M1.1 13.15l1.5 1.15q7.7-3.85 14.5-9.55"/></g><g id="h"><path fill-rule="evenodd" fill="#f4e1a2" d="m-1.9-3 .15.05L3.5-1.6 4.85-.35q1 1.4-2.45 1.7L.4 1l.1-1-2.1-1.05L-4.05.2l-.2-.05-1.6-.25Q-6.9-2.15-9.3-2.6q1.1-4.65 7.4-.4m-3.8-1.25L-9.3-2.6l3.6-1.65" transform="translate(11.35 6.45)"/><path fill-rule="evenodd" fill="#c4ab59" d="M-1.9-3q-6.3-4.25-7.4.4 2.4.45 3.45 2.5l1.6.25L-9.5-.4l-1.75-3.2q0-2.75 4.25-2.75l5.15 3.3-.05.05M4.85-.35Q6.4 1.2 7 2.95l-.55.85-.8 6.9-1.6.75-2.9.9-3.9-2-1.1-.6-.75-1.35L.15 9.95h2.9l.75-.6H2.45l-2-1.5q-3.5-2.2-2.8-5.05l-.5-1.8-1.2-.8 2.45-1.25L.5 0 .4 1l2 .35q3.45-.3 2.45-1.7M.3 2l.1-1-.1 1" transform="translate(11.35 6.45)"/><path fill-rule="evenodd" fill="#a4843c" d="m3.8 9.35-.75.6H.15L-4.6 8.4l-.8-1.1q-.1-.7-.45-1.3l4.65.95 1.65.9-1.65-.9L-5.85 6l-2.4-2.75L-7 2.6l2.8-.55 1.85.75-1.85-.75-2.8.55-1.25.65L-9.5-.4l5.25.55.2.05 1.2.8.5 1.8q-.7 2.85 2.8 5.05l2 1.5H3.8" transform="translate(11.35 6.45)"/><path stroke-width=".25" stroke-linejoin="round" stroke-linecap="round" stroke="#635434" fill="none" d="m16.2 6.1-1.35-1.25L9.6 3.5l-.15-.05.05-.05L4.35.1Q.1.1.1 2.85l1.75 3.2L3.1 9.7l2.4 2.75q.35.6.45 1.3l.8 1.1.75 1.35 1.1.6M2.05 3.85l3.6-1.65M17 17.15l.8-6.9.55-.85q-.6-1.75-2.15-3.3m-4.45 1.35-.1 1M7.3 6.65 9.75 5.4l2.1 1.05-.1 1m3.4 8.35H13.8l-2-1.5-1.65-.9-4.65-.95M9.6 3.5l-.1-.1M9 9.25 7.15 8.5l-2.8.55-1.25.65"/></g><g id="i"><path fill-rule="evenodd" fill="#c4ab59" d="M4.9-2Q3.65-5.85.85 1.45q-1.45 3.4-.05 6l-.15.1-.6.35Q-4.9 7.6-5.6 4.95-5.95 3.2-5.55.2q.4-3.25 1.35-4.85l-.15-.25 5.4-1.95 3.4.45.1 1.95L4.9-2m-8.65 5 .25.35.6-.15-.2-1.15.2 1.15-.6.15-.25-.35" transform="translate(5.85 6.85)"/><path fill-rule="evenodd" fill="#f4e1a2" d="m4.9-2 .15 1L6.1 2.25l-.35 2.2q-.8 2.95-4.95 3-1.4-2.6.05-6Q3.65-5.85 4.9-2" transform="translate(5.85 6.85)"/><path stroke-width=".25" stroke-linejoin="round" stroke-linecap="round" stroke="#635434" fill="none" d="M6.65 14.3q4.15-.05 4.95-3l.35-2.2-1.05-3.25-.15-1M6.5 14.4l-.6.35Q.95 14.45.25 11.8-.1 10.05.3 7.05.7 3.8 1.65 2.2l-.15-.25m8.9.45.35 2.45m-8 4.05.2 1.15-.6.15-.25-.35"/></g><g id="j"><path fill-rule="evenodd" fill="#baa254" d="m-1.1-.95 1.4 6.1-.1 10.5 1.85 3-.75.4-1.2-.5-.35-.2-1.45.9-.8-1.9.95.4 1.3.6-1.3-.6-.95-.4-.55-1.05-.5-1.95 1.5-7.95.5-5.85.05-.45.4-1.05m1.85.7V-.3l1 1.4-.7 1.1-.3-2.45m-2 15.9 1.35 2.9-1.35-2.9m-.5 1 .2 1.1-.2-1.1" transform="translate(3.65 1.65)"/><path fill-rule="evenodd" fill="#e7d599" d="M.45-.9v.05l.2.4.1.2.3 2.45.9 2.8v.25l.8 6.55-.3.45-.2.15-.05.1v.2l.2 2.25.5-.15.9-1.6 1.35 1.6.05 2-3.15 1.85-1.85-3 .1-10.5-1.4-6.1.2-.35q.6-.85 1.35.4m3.6 16.8-1.65-.95 1.65.95m-1.6-3.65-1.1-1.15 1.1 1.15m.1 4.2-.15-1.5.15 1.5" transform="translate(3.65 1.65)"/><path stroke-width=".25" stroke-linejoin="round" stroke-linecap="round" stroke="#5d4f31" fill="none" d="m4.4 1.4-.1-.2-.2-.4V.75M5.7 20.3l3.15-1.85-.05-2-1.35-1.6-.9 1.6-.5.15 1.65.95M4.4 1.35l-.1-.15m.1.15 1 1.4-.7 1.1.9 2.8v.25l.8 6.55-.3.45-.2.15-.05.3.2 2.25.15 1.5M5 12.75l1.1 1.15m-.2.15-.05.1v.2M5.7 20.3l-.75.4-1.2-.5-.35-.2-1.45.9-.8-1.9-.25-.15-.3-.9L.1 16l1.5-7.95.5-5.85M3.4 20l-1.3-.6-.95-.4-.55-1.05m1.5 1.45-.2-1.1m1.85 1.9L2.4 17.3"/></g><g id="k"><path fill-rule="evenodd" fill="#cfbf89" d="M2.65-.25v.2l-.1.75L.2 1.85-2.55.6-3.3-.9q-.65-1.15-.45-1.6.2-.5 1.5-.85t1.95 0l1.05.6.8.55.3.25q.7.7.8 1.7m-1 4.8Q1 9.35 1.3 12.2l.45 3.4.1.7-.1.3-.05.1-.4.3-1.35-1.25.15-9.6 1.55-1.6" transform="translate(3.9 3.55)"/><path fill-rule="evenodd" fill="#a6914b" d="M-2.55.6.2 1.85 2.55.7l-.45.85-.4 2.5-.05.5L.1 6.15l-.15 9.6L1.3 17q-.6.4-1.4.4l-.75-.05-.3-.25-.1-.65.1-1.1.2-1.4.5-4Q-.1 6.5-1.65 2l-.25-.2-.65-1.2M1.2 2.5l.65-.7.25-.25-.25.25-.65.7M-1 2.4l-.65-.4.65.4" transform="translate(3.9 3.55)"/><path stroke-width=".25" stroke-linejoin="round" stroke-linecap="round" stroke="#54472c" fill="none" d="m6.45 4.25.1-.75v-.2M.15 1.05q-.2.45.45 1.6l.75 1.5m5.1.1L6 5.1l-.4 2.5m-.05.5q-.65 4.8-.35 7.65M3.45 13.5q.35-3.45-1.2-7.95L2 5.35l-.65-1.2M6 5.1l-.25.25-.65.7m-2.85-.5.65.4m2.3 9.8.45 3.4.1.7-.1.3m-2.6.75-.3-.25-.1-.65.1-1.1.2-1.4.5-4"/></g><g id="l"><path fill-rule="evenodd" fill="#fffdf9" d="M-3-.25q.1-1.1.9-1.9Q-1.25-3 0-3t2.1.85q.85.9.9 2.1l-.5.4q-1 .6-2.35.6-1.45 0-2.45-.6l-.7-.6" transform="translate(3.1 3.1)"/><path fill-rule="evenodd" fill="#c2bda3" d="M3-.05V0q-.05 1.2-.9 2.1-.85.85-2.1.85t-2.1-.85Q-3 1.2-3 0v-.25l.7.6q1 .6 2.45.6Q1.5.95 2.5.35l.5-.4" transform="translate(3.1 3.1)"/><path stroke-width=".25" stroke-linejoin="round" stroke-linecap="round" stroke="#867b59" fill="none" d="M6.1 3.05v.05q-.05 1.2-.9 2.1-.85.85-2.1.85T1 5.2Q.1 4.3.1 3.1v-.25q.1-1.1.9-1.9Q1.85.1 3.1.1t2.1.85q.85.9.9 2.1z"/></g><g id="m"><path fill-rule="evenodd" fill="#9f8964" d="m3.35 3.15-.4 1.65Q2.5 6.45-.15 7.2l-2.8.2-1.5-.95q-.25-1 .25-2.7Q-3.6 2-1.4 1.4l.4-.1h.1L1.2.7l1.5.5.65 1.95" transform="translate(9.8 7.05)"/><path fill-rule="evenodd" fill="#e8e1d9" d="m-4.7-3.15 2.65 1 4.7-.95L4.1-5.4 5-.3 3.9 1l-.55 2.15L2.7 1.2 1.2.7l-2.1.6H-1L-2-.75l-.05-.1-2.35-.3-1.05-1.05.75-.95" transform="translate(9.8 7.05)"/><path fill-rule="evenodd" fill="#d3c198" d="M-4.85 6.3q-2.75-.9-2.9-2.55Q-8-.3-9.7-2l1.25-2-.3-1 1.3-1.95.1 2.75 2.65 1.05-.75.95 1.05 1.05 2.35.3.05.1 1 2.05-.4.1q-2.2.6-2.8 2.35-.5 1.7-.25 2.7l-.35-.7-.05.55m-.05-7.4L-6-1.3-8.45-4-6-1.3l1.1.2" transform="translate(9.8 7.05)"/><path stroke-width=".25" stroke-linejoin="round" stroke-linecap="round" stroke="#78612c" fill="none" d="m5.1 3.9 2.65 1 4.7-.95 1.45-2.3.9 5.1-1.1 1.3-.55 2.15-.4 1.65q-.45 1.65-3.1 2.4l-2.8.2-1.5-.95-.4-.15q-2.75-.9-2.9-2.55Q1.8 6.75.1 5.05l1.25-2-.3-1L2.35.1l.1 2.75L5.1 3.9m3.8 4.45 2.1-.6 1.5.5.65 1.95M1.35 3.05l2.45 2.7 1.1.2m3.9 2.4-.4.1q-2.2.6-2.8 2.35-.5 1.7-.25 2.7"/></g><g id="n"><path fill-rule="evenodd" fill="#fff" d="m-3.35 9.85-2.6 1.2 1.25-4.8 2.25.75-.9 2.85" transform="translate(10.1 9.55)"/><path stroke-width=".25" stroke-linejoin="round" stroke-linecap="round" stroke="#867b59" fill="none" d="m5.4 15.8 2.25.75-.9 2.85"/><path fill-rule="evenodd" fill="#fff" d="m-9.4 3.5 2.85-.75 2.4 1.65-5.95 1.25.7-2.15" transform="translate(10.1 9.55)"/><path stroke-width=".25" stroke-linejoin="round" stroke-linecap="round" stroke="#867b59" fill="none" d="m.7 13.05 2.85-.75"/><path fill-rule="evenodd" fill="#c4ab59" d="m.25-8.9 1 1Q2.7-6 2.85-4.75q.1 1.25-.4 3.25L.95 3.9Q-.1 7.3-2.6 7.75q-2.55.4-4.1-.9l-.7-.55q2.45 1.2 4.9-.2 1.15-.75 2.5-3.35Q1.2.45 1.4-1 2-4.9.25-8.9" transform="translate(10.1 9.55)"/><path fill-rule="evenodd" fill="#f4e1a2" d="m-.8-4.15.25-1.05-.25 1.05M-2-4.4l.25-1.05L-2-4.4M-7.4 6.3q-1.25-.8-.2-4.35 1-3.55 1.65-6.6.65-3.1 2.55-4.2Q-1.5-10 .25-8.9 2-4.9 1.4-1 1.2.45 0 2.75q-1.35 2.6-2.5 3.35-2.45 1.4-4.9.2" transform="translate(10.1 9.55)"/><path stroke-width=".25" stroke-linejoin="round" stroke-linecap="round" stroke="#635434" fill="none" d="M2.7 15.85q-1.25-.8-.2-4.35 1-3.55 1.65-6.6Q4.8 1.8 6.7.7 8.6-.45 10.35.65l1 1q1.45 1.9 1.6 3.15.1 1.25-.4 3.25l-1.5 5.4Q10 16.85 7.5 17.3q-2.55.4-4.1-.9l-.7-.55"/><path stroke-width=".75" stroke-linejoin="round" stroke-linecap="round" stroke="#644e33" fill="none" d="M8.35 4.1 8.1 5.15m1.45-.8L9.3 5.4"/></g><g id="o"><path fill-rule="evenodd" fill="#f4e1a2" d="M4.85-2.45Q1.35-2.1.05-5.5q.3-.7 1.05-1.2.7-.55 1.8-.35 1.05.2 1.9 1.15.8.95.6 2.15-.1.75-.55 1.3" transform="translate(.45 7.2)"/><path fill-rule="evenodd" fill="#c4ab59" d="M.05-5.5q1.3 3.4 4.8 3.05l-.8.75q-.55.45-1.45.6Q1.65-1 1.3.3.45-.25-.35-.75q.4-.85.45-1.3l-.2-1q-.3-.5-.1-1.7l.25-.75" transform="translate(.45 7.2)"/><path stroke-width=".25" stroke-linejoin="round" stroke-linecap="round" stroke="#635434" fill="none" d="M5.3 4.75q.45-.55.55-1.3.2-1.2-.6-2.15Q4.4.35 3.35.15q-1.1-.2-1.8.35Q.8 1 .5 1.7l-.25.75q-.2 1.2.1 1.7l.2 1Q.5 5.6.1 6.45M1.75 7.5q.35-1.3 1.3-1.4.9-.15 1.45-.6l.8-.75L1.75 7.5z"/></g><g id="p"><path fill-rule="evenodd" fill="#f4e1a2" d="M1.1-14.8Q1.5-4.55.1-3l-2.2-2.4Q-.8-13-.8-24.75l1.9 9.95" transform="translate(2.2 24.85)"/><path fill-rule="evenodd" fill="#c4ab59" d="M2.75-.05.1-3q1.4-1.55 1-11.8Q2.5-8.3 2.75-.05" transform="translate(2.2 24.85)"/><path stroke-width=".25" stroke-linejoin="round" stroke-linecap="round" stroke="#635434" fill="none" d="M4.95 24.8Q4.7 16.55 3.3 10.05m-3.2 9.4Q1.4 11.85 1.4.1l1.9 9.95"/></g><path fill-rule="evenodd" fill-opacity="0" fill="#f0f" d="M0 0h102.95v45H0V0" id="q"/><use xlink:href="#q" width="102.95" height="45" id="t"/></defs><path fill="none" d="M-1-1h270v641H-1z"/><g transform="scale(2)"><use x="71.6" y="359" xlink:href="#r" width="381" transform="translate(-192.6 -380.5)" height="381"/><use x="-16.712" y="83.794" xlink:href="#s" width="33.95" transform="matrix(-4.2843 0 0 4.2843 65.74 -358.225)" height="74.05"/><use x="-66.678" y="-12.698" xlink:href="#t" width="102.95" transform="matrix(1.8072 0 0 1.6538 96.05 69.8)" height="45"/></g></svg>