<svg width="198" height="190" xmlns="http://www.w3.org/2000/svg" xmlns:xlink="http://www.w3.org/1999/xlink"><defs><use xlink:href="#d" width="38.2" height="41.85" id="i"/><use xlink:href="#e" width="6.15" height="12.65" id="j"/><use xlink:href="#f" width="6.7" height="15" id="k"/><use xlink:href="#g" width="102.95" height="45" id="m"/><g id="h"><path stroke-opacity="0" stroke-linejoin="round" stroke-linecap="round" stroke="#f0f" fill="none" d="M187.95-293.5v380h-380v-380h380M92.95.6H-97" transform="translate(192.55 294)"/><path stroke-opacity="0" stroke-linejoin="round" stroke-linecap="round" stroke="#f0f" fill="none" d="m187.95-293.5-190 190 190 190m-380-380 190 190L-192 86.5" transform="translate(192.55 294)"/><path fill-rule="evenodd" fill="url(#a)" d="M44.15-95.65q3.5-26 1.8-35.05-1.75-9.1-4.8-2.85-2.9 6.2-7.6 8.3l-5.65 2.4q-3.45 1.35-6.15 2.7-8.5 4.35-10.55 9.3l-4.15 13.1Q4.8-89 5.25-81.3q.45 7.95 3.6 14.7 5.3 11-2.6 12.7l-3.8.3q2.25.7 6.5.65 4.25-.2 7.1-2.55 2.9-2.35 11.5-6.3Q36.2-65.9 39-66.5q2.9-.65 5.7-3.9 2.85-3.25 2.15-6.4l-2.1-8.6q-1.15-5.4-.6-10.25m-1.3 20.2q1.2 1.45.1 3-.45.9-5.7 1.5l-8.35.55q3.95-1.35 6.5-2.45 3.75-1.7 4.2-2.85.85-2.2.75-6.25 1.1 4.6 2.5 6.5" transform="translate(192.55 294)"/><path fill-rule="evenodd" fill-opacity=".761" fill="#c8fe61" d="M32.2-143.6q4.9.1 5.55 2.1 1.4 7-6.35 13.25-8.3 6.7-15.15 9.2-6.3 2.45-8.5.45-4.4-7.4-11.1-2.15-6.6 5.25-11.8 3.5l-17.05-4.3q-10.05-1.85-8.8-5.35 1-2.8 6.5-5.85l-6.85 1.6q-6.65 2.45-5.05 13l.3 1.7q1.35-5.05 12.95-2.75 11.6 2.25 14.9 6.65 3.45 4.35 6.15.8 2.7-3.6 6.85-4.4 4.15-.9 7.7 2.7l2.4 2.8q.4.45-.05.25l.95 1.75q.4 1.15.4 3.05.1 1.8-.3 4.45l-.7 4.4Q3.35-88 3.45-86L3-82.4q-.3 5.8 1.7 11.35 1.15 2.45 1.6 4.8l.3 1.9v1.55q-.1 2.35-1.1 4.7-.9 1.9-2.45 3.75l-.6.75 3.8-.3q7.9-1.7 2.6-12.7-3.15-6.75-3.6-14.7-.45-7.7 1.8-16.45l4.15-13.1q2.05-4.95 10.55-9.3 2.7-1.35 6.15-2.7l5.65-2.4q4.7-2.1 7.6-8.3 3.05-6.25 4.8 2.85 1.7 9.05-1.8 35.05 5.5-24.75 4.5-34.95-.35-4.05-1.65-6.5-1.15-2.5-4.15-5.05-2.85-2.6-10.65-1.45" transform="translate(192.55 294)"/><path fill-rule="evenodd" fill="url(#b)" d="M-34.5-132.75q-5.5 3.05-6.5 5.85-1.25 3.5 8.8 5.35l17.05 4.3q5.2 1.75 11.8-3.5 6.7-5.25 11.1 2.15 2.2 2 8.5-.45 6.85-2.5 15.15-9.2 7.75-6.25 6.35-13.25-.65-2-5.55-2.1-18.75 2-29.15-.55-10.35-2.5-17.15 2.45-6.75 4.95-20.4 8.95" transform="translate(192.55 294)"/><path fill-rule="evenodd" fill="url(#c)" d="m2.45-53.6.6-.75Q4.6-56.2 5.5-58.1q1-2.35 1.1-4.7v-1.55l-.3-1.9q-.45-2.35-1.6-4.8Q2.7-76.6 3-82.4l.45-3.6q-.1-2 1.7-10.75l.7-4.4q.4-2.65.3-4.45 0-1.9-.4-3.05l-.95-1.75q.45.2.05-.25l-2.4-2.8q-3.55-3.6-7.7-2.7-4.15.8-6.85 4.4-2.7 3.55-6.15-.8-3.3-4.4-14.9-6.65-11.6-2.3-12.95 2.75 2.85 14.1 2.25 24.5-.55 10.35-2.1 16.4-1.55 6.05 5.8 10.1Q-11.2-59.4 2.45-53.6" transform="translate(192.55 294)"/><path fill-rule="evenodd" fill="#dcfc87" d="M42.85-75.45q-1.4-1.9-2.5-6.5.1 4.05-.75 6.25-.45 1.15-4.2 2.85-2.55 1.1-6.5 2.45l8.35-.55q5.25-.6 5.7-1.5 1.1-1.55-.1-3" transform="translate(192.55 294)"/><path stroke-width=".05" stroke-linejoin="round" stroke-linecap="round" stroke="#75a220" fill="none" d="M158.05 161.25q13.65-4 20.4-8.95 6.8-4.95 17.15-2.45 10.4 2.55 29.15.55 7.8-1.15 10.65 1.45 3 2.55 4.15 5.05 1.3 2.45 1.65 6.5 1 10.2-4.5 34.95m-90.25-20.8-.3-1.7q-1.6-10.55 5.05-13l6.85-1.6m-11.6 16.3q2.85 14.1 2.25 24.5-.55 10.35-2.1 16.4-1.55 6.05 5.8 10.1 28.95 6.05 42.6 11.85 2.25.7 6.5.65 4.25-.2 7.1-2.55 2.9-2.35 11.5-6.3 8.65-4.1 11.45-4.7 2.9-.65 5.7-3.9 2.85-3.25 2.15-6.4l-2.1-8.6q-1.15-5.4-.6-10.25"/><path fill-rule="evenodd" fill="#56b54f" d="m-5.85-127.8.4 1.15q.25 1.8-.2 3.9-1 4.05-4.5 6.5-3.65 2.45-7.8 1.8-4.15-.45-6.3-3.6-2.25-3.1-1.15-7.15.95-3.9 4.5-6.3 3.5-2.45 7.75-2 4.05.55 6.25 3.7l.6 1.1q-.6-.9-1.8-1.1-1.15-.2-2.05.55-1 .6-1.3 1.8-.25 1.1.45 2 .65.9 1.85 1.15 1.15.2 2.15-.55 1-.6 1.15-1.7.2-.65 0-1.25" transform="translate(192.55 294)"/><path fill-rule="evenodd" fill="#f3f2e8" d="M-5.85-127.8q.2.6 0 1.25-.15 1.1-1.15 1.7-1 .75-2.15.55-1.2-.25-1.85-1.15-.7-.9-.45-2 .3-1.2 1.3-1.8.9-.75 2.05-.55 1.2.2 1.8 1.1l.45.9" transform="translate(192.55 294)"/></g><g id="d"><path fill-rule="evenodd" fill="#e2aa01" d="M-12.8 4.2q6.75-7.45 6.35-21.9-1 0-1.6-.45-.65-.5-.65-1.2-.05-.7.6-1.15.6-.5 1.6-.45.9-.05 1.55.45.65.45.7 1.15 0 .7-.65 1.2-.65.45-1.55.45Q-5.2-4.35 1 3.05q-6.7 2-13.8 1.15" transform="translate(19.1 20.95)"/><path stroke-width=".05" stroke-linejoin="round" stroke-linecap="round" stroke="#a36501" fill="none" d="M6.3 25.15q6.75-7.45 6.35-21.9-1 0-1.6-.45-.65-.5-.65-1.2-.05-.7.6-1.15.6-.5 1.6-.45.9-.05 1.55.45.65.45.7 1.15 0 .7-.65 1.2-.65.45-1.55.45Q13.9 16.6 20.1 24"/><path fill-rule="evenodd" fill="#e2aa01" d="M14.25-11.7q-.1 13.95.6 19.5-2.55-2.45-5.5-3.2 2.9-3.1 4.9-16.3" transform="translate(19.1 20.95)"/><path fill-rule="evenodd" fill="#ffecce" d="m14.25-11.7.75-5.4h.1q-1.45 16.75 4 28.9l-3.55 1.4-.7-5.4q-.7-5.55-.6-19.5" transform="translate(19.1 20.95)"/><path stroke-width=".05" stroke-linejoin="round" stroke-linecap="round" stroke="#a95c01" fill="none" d="M33.35 9.25q-.1 13.95.6 19.5l.7 5.4 3.55-1.4"/><path stroke-width=".05" stroke-linejoin="round" stroke-linecap="round" stroke="#a95c01" fill="none" d="M38.2 32.75q-5.45-12.15-4-28.9"/><path fill-rule="evenodd" fill="#e2aa01" d="M16.5-19.05q.4.7.3 1.6-.15 1-.7 1.6-.45.45-1 .4h-.2q-.7-.15-1.1-.8-.4-.75-.3-1.7.1-.95.65-1.5.5-.55 1.25-.45.7.1 1.1.85" transform="translate(19.1 20.95)"/><path stroke-width=".05" stroke-linejoin="round" stroke-linecap="round" stroke="#a36501" fill="none" d="M35.6 1.9q.4.7.3 1.6-.15 1-.7 1.6-.45.45-1 .4H34q-.7-.15-1.1-.8-.4-.75-.3-1.7.1-.95.65-1.5.5-.55 1.25-.45.7.1 1.1.85z"/><path fill-rule="evenodd" fill="#e2aa01" d="m16.1 6.05.1-.1v.1h-.1m-32.95 0h.05-.05" transform="translate(19.1 20.95)"/><path fill-rule="evenodd" fill="#694f01" d="m-16.8 6.05 1.3-1.75q1.6-2 3.55-2.55Q-7.05.5-.2.5q6.8 0 11.7 1.25 2.1.6 3.65 2.35 1.25 1.45 1.05 1.85l-.1.1q-16.75-4.15-32.85 0h-.05" transform="translate(19.1 20.95)"/><path fill-rule="evenodd" fill="#feb336" d="M-16.8 6.05h.05q3.35 1.8 4.8 2.2l.95.25Q-6.4 9.65-.2 9.65q6.15 0 10.75-1.15l.95-.25q3.7-.95 4.6-2.2h.1l.25 6q-.05 1.9-4.95 3.15-4.9 1.45-11.7 1.45-6.85 0-11.75-1.45-4.9-1.25-4.9-3.15v-6h.05" transform="translate(19.1 20.95)"/><path stroke-width=".05" stroke-linejoin="round" stroke-linecap="round" stroke="#6b3c01" fill="none" d="M2.3 27h.05m32.85 0 .1-.1v.1M2.25 27h.05m33 0 .25 6q-.05 1.9-4.95 3.15-4.9 1.45-11.7 1.45-6.85 0-11.75-1.45-4.9-1.25-4.9-3.15v-6m32.95 0q-.9 1.25-4.6 2.2l-.95.25q-4.6 1.15-10.75 1.15-6.2 0-10.8-1.15l-.95-.25q-1.45-.4-4.8-2.2m32.85 0h.1"/><path fill-rule="evenodd" fill="#ffcf60" d="M4.85-13.6q-.95-.05-1.6-.65-.65-.65-.6-1.6-.05-.95.6-1.55.65-.65 1.6-.65.95 0 1.6.65.6.6.65 1.55-.05.95-.65 1.6-.65.6-1.6.65l.5 6.7.3 8.75q.5 12.5 1.7 19.05-4.5-3.55-9.45-4.3Q4.75 6.45 4.85-13.6" transform="translate(19.1 20.95)"/><path fill-rule="evenodd" fill="#ffecce" d="M5.35-6.9q1.5 13.8 6.4 22.1-2.85 1.15-4.4 5.7-1.2-6.55-1.7-19.05l-.3-8.75" transform="translate(19.1 20.95)"/><path stroke-width=".05" stroke-linejoin="round" stroke-linecap="round" stroke="#a36501" fill="none" d="M23.95 7.35q-.95-.05-1.6-.65-.65-.65-.6-1.6-.05-.95.6-1.55.65-.65 1.6-.65.95 0 1.6.65.6.6.65 1.55-.05.95-.65 1.6-.65.6-1.6.65m0 0 .5 6.7q1.5 13.8 6.4 22.1-2.85 1.15-4.4 5.7-4.5-3.55-9.45-4.3 6.85-10.15 6.95-30.2m.8 15.45q.5 12.5 1.7 19.05"/><path fill-rule="evenodd" fill="#ffcf60" d="M-16.5-.35q1.85 9.1 2.4 19.65-.95-1.95-4.1-4.4 1.65-6.3 1.7-15.25" transform="translate(19.1 20.95)"/><path fill-rule="evenodd" fill="#ffe8c1" d="M-14.1 19.3q-.55-10.55-2.4-19.65-.05-6.55-.9-14.55 3.45 23.1 8.8 30.7-4.85 1.65-5.5 3.5" transform="translate(19.1 20.95)"/><path stroke-width=".05" stroke-linejoin="round" stroke-linecap="round" stroke="#a36501" fill="none" d="M1.7 6.05q.85 8 .9 14.55-.05 8.95-1.7 15.25"/><path stroke-width=".05" stroke-linejoin="round" stroke-linecap="round" stroke="#5f3401" fill="none" d="M5 40.25q.65-1.85 5.5-3.5m-9.6-.9q3.15 2.45 4.1 4.4"/><path fill-rule="evenodd" fill="#ffcf60" d="M-16.5-16q.55.55.7 1.5.15.95-.25 1.65-.35.7-1 .8h-.25q-.6.05-1.05-.4-.55-.6-.7-1.55-.15-.95.25-1.6.3-.75 1-.85.7-.1 1.3.45" transform="translate(19.1 20.95)"/><path stroke-width=".05" stroke-linejoin="round" stroke-linecap="round" stroke="#a36501" fill="none" d="M2.6 4.95Q2 4.4 1.3 4.5q-.7.1-1 .85-.4.65-.25 1.6.15.95.7 1.55.45.45 1.05.4h.25q.65-.1 1-.8.4-.7.25-1.65-.15-.95-.7-1.5z"/></g><g id="e"><path fill-rule="evenodd" fill="#dfecd2" d="m1.9-4.4.3.7Q3-1.55 2.7.7 2.4 3 1.2 4.05.05 5.1-1.35 4.3-2.3 3.8-3 2.6l-.15-4.4q.5-1.45 1.45-2.35 1.8-1.7 3.6-.25" transform="translate(3.35 7.85)"/><path fill-rule="evenodd" fill="#bdcab0" d="m-3.25-5.45.7-.9Q-1.4-7.4 0-6.65 1.15-6 1.9-4.4q-1.8-1.45-3.6.25-.95.9-1.45 2.35l-.1-3.65" transform="translate(3.35 7.85)"/><path stroke-width=".05" stroke-linejoin="round" stroke-linecap="round" stroke="#727f65" fill="none" d="m.1 2.4.7-.9Q1.95.45 3.35 1.2q1.15.65 1.9 2.25l.3.7q.8 2.15.5 4.4-.3 2.3-1.5 3.35-1.15 1.05-2.55.25-.95-.5-1.65-1.7"/><path stroke-width=".05" stroke-linejoin="round" stroke-linecap="round" stroke="#386f55" fill="none" d="M.35 10.45q0 1.45-.35 2.2M.1 2.4l.1 3.65.15 4.4M0 0l.1 2.4L0 0z"/><path fill-rule="evenodd" fill="#233016" d="M-1.55-2.55q-.1.3-.35.35l-.55-.35-.25-.8.05-.8q.15-.3.45-.3l.45.3.3.8-.1.8" transform="translate(3.35 7.85)"/></g><g id="f"><path fill-rule="evenodd" fill="#dfecd2" d="m1.8-7.2.15.75q0 .4-1.15.35-1.2-.05-2.6-1.05v-.5Q0-9 1.8-7.2m-3.55 3.15 4.2 2.1.05 2.5Q2.4 3 1.2 4.05.05 5.1-1.35 4.3q-1.4-.75-2.2-2.9l-.05-.25q.05-3.5 1.85-5.2" transform="translate(4.15 10.35)"/><path fill-rule="evenodd" fill="#bdcab0" d="m-1.8-7.15-1.2-.9q-1-1 .25-1.9 1.25-.9 2.65.15 1.15.85 1.9 2.6Q0-9-1.8-7.65v.5m-1.8 8.3q-.75-2.05-.45-4.2.1-.75.7-.95l1.6-.05q-1.8 1.7-1.85 5.2" transform="translate(4.15 10.35)"/><path stroke-width=".05" stroke-linejoin="round" stroke-linecap="round" stroke="#727f65" fill="none" d="m5.95 3.15.15.75q0 .4-1.15.35-1.2-.05-2.6-1.05l-1.2-.9q-1-1 .25-1.9 1.25-.9 2.65.15 1.15.85 1.9 2.6M2.4 6.3l4.2 2.1.05 2.5q-.1 2.45-1.3 3.5-1.15 1.05-2.55.25-1.4-.75-2.2-2.9l-.05-.25Q-.2 9.45.1 7.3q.1-.75.7-.95l1.6-.05"/><path fill-rule="evenodd" fill="#233016" d="m-1.85-1.85-.35.4-.55-.4-.25-.8.05-.85q.15-.3.45-.3l.45.3q.3.35.35.85.05.5-.15.8" transform="translate(4.15 10.35)"/></g><linearGradient y2=".148" y1="1.066" x2=".592" x1=".842" spreadMethod="pad" id="a"><stop stop-color="#61ab16" offset="0"/><stop stop-opacity=".502" stop-color="#92b773" offset="1"/></linearGradient><linearGradient y2=".592" y1="-.007" x2=".209" x1="1.087" spreadMethod="pad" id="b"><stop stop-color="#efff80" offset="0"/><stop stop-opacity=".192" stop-color="#92b773" offset="1"/></linearGradient><linearGradient y2="-2.764" y1="-2.559" x2="-2.261" x1="-2.649" spreadMethod="pad" id="c"><stop stop-color="#acdf24" offset="0"/><stop stop-opacity=".502" stop-color="#92b773" offset="1"/></linearGradient><path d="M-11.6-84.95q0-3.6 2.45-6.1Q-6.6-93.5-3-93.5l3.05.5q-3.5 1.05-6.25 3.75-3.6 3.7-4.25 8.6-1.15-1.9-1.15-4.3m-11.1-2.7h2.5l-.3.3q-2.05 2.05-2.45 4.85-.6-1.1-.6-2.4 0-1.6.85-2.75" transform="translate(23.55 93.5)" id="l" fill-rule="evenodd" fill="#fff"/><path fill-rule="evenodd" fill-opacity="0" fill="#f0f" d="M0 0h102.95v45H0V0" id="g"/></defs><path fill="none" d="M-1-1h200v192H-1z"/><g transform="scale(2)"><use x="48.55" y="146.5" xlink:href="#h" width="381" transform="translate(-192.55 -294)" height="381"/><use x="1.008" y="160.163" xlink:href="#i" width="38.2" transform="matrix(-.9648 .3326 .3092 .9126 5.099 -141.722)" height="41.85"/><use xlink:href="#j" width="6.15" transform="matrix(.2211 2.6244 -1.3494 -.0918 39.852 58.079)" height="12.65"/><use x="-41.998" y="67.246" xlink:href="#k" width="6.7" transform="matrix(.2995 3.5524 -1.9469 .0326 206.457 197.92)" height="15"/><use x="48.55" y="146.5" xlink:href="#l" width="23.6" transform="translate(-23.55 -93.5)" height="12.85"/><use x="-79.405" y="-88.886" xlink:href="#m" width="102.95" transform="matrix(1.8072 0 0 1.6538 96 162.7)" height="45"/></g></svg>