<svg width="134" height="132" xmlns="http://www.w3.org/2000/svg" xmlns:xlink="http://www.w3.org/1999/xlink"><defs><linearGradient y2=".306" y1="1.237" x2=".725" x1=".95" spreadMethod="pad" id="d"><stop stop-color="#ee0b0b" offset="0"/><stop stop-opacity=".624" stop-color="#faafb0" offset="1"/></linearGradient><linearGradient y2="-4.215" y1="-4.215" x2="19.06" x1="-22.732" spreadMethod="pad" id="e"><stop stop-color="#fe9e9e" offset="0"/><stop stop-opacity="0" stop-color="#faafb0" offset="1"/></linearGradient><linearGradient y2=".487" y1=".487" x2=".998" x1="-.567" spreadMethod="pad" id="f"><stop stop-color="#ee0b0b" offset="0"/><stop stop-opacity=".624" stop-color="#faafb0" offset="1"/></linearGradient><use xlink:href="#a" width="5.55" height="10.45" id="h"/><use xlink:href="#b" width="4.25" height="14.9" id="i"/><use xlink:href="#c" width="102.95" height="45" id="k"/><g id="g"><path stroke-opacity="0" stroke-linejoin="round" stroke-linecap="round" stroke="#f0f" fill="none" d="M187.95-293.5v380h-380v-380h380M92.95.6H-97" transform="translate(192.55 294)"/><path stroke-opacity="0" stroke-linejoin="round" stroke-linecap="round" stroke="#f0f" fill="none" d="m187.95-293.5-190 190 190 190m-380-380 190 190L-192 86.5" transform="translate(192.55 294)"/><path fill-rule="evenodd" fill="url(#d)" d="M29.8-69.05q-1.1 2.4-.95 4.25.15 1.8 1.5 3.95 1.35 2.15.6 4.55-.8 2.4-3.2 2.55-2.4.1-9.2 4.4l-10 6.7q-3.2 2.4-6.1 2.55l-4.6-.35q4.4.65 6.6-1.95l.65-.95q1.5-2.7.55-6l-.4-1.4-.65-1.3-.1-.2-.05-1.3v-.05l-.15-.35-.05-.2q-1.15-4.05-.5-10.1.4-4.15 1.65-9.15l2.1-5.2q.6-3.6 7.3-7.2l2.6-1.35 3.9-1.65.65-.3.2-.15q2.55-1.5 4.25-5.2 2.1-4.25 4.2 4.05 2.05 8.3-.8 21.35m-11 13.85 5.85-.4q3.4-.4 3.7-1 .75-1-.05-2-.95-1.35-1.7-4.45.05 2.9-.5 4.25-.35.85-3.55 2.2-1.55.7-3.75 1.4" transform="translate(192.55 294)"/><path fill-rule="evenodd" fill="#ffe6e6" d="m19.4-97.35 6.7-.35q3.15-.8 4.65.65 1.55 1.5 2.7 7.5 1.25 6-3.65 20.5 2.85-13.05.8-21.35-2.1-8.3-4.2-4.05-1.7 3.7-4.25 5.2l-.2.15-.65.3-3.9 1.65-2.6 1.35q-6.7 3.6-7.3 7.2l-2.1 5.2q-1.25 5-1.65 9.15-.65 6.05.5 10.1l-.45-1.1q-1.7-4.7-.9-9.65l.05-.55q-.5-1.35.2-6.55.65-5.25-2.2-6.75L-3.5-81.1q-1.5-.9-8.4-1.65-6.6-.8-13.2-3t-6.35 3.3l-.2-1.15q-.25-13.5 7.6-11.3l5.4-.8q-8.65 2.45-6.8 5.5 1.4 2.25 9.25 4.35 12.35 4.2 24.55.95 3.75-1.05 6.5-2.4 3.15-1.45 5-3.3 1.75-1.75 2.4-3.8.6-2.2-2.85-2.95M4.6-52.05l.65 1.3.4 1.4q.95 3.3-.55 6l-.65.95q-2.2 2.6-6.6 1.95 1.7-.7 3.05-1.5 4.7-3 4.25-7.7l-.1-.8-.45-1.6m14.2-3.15q2.2-.7 3.75-1.4 3.2-1.35 3.55-2.2.55-1.35.5-4.25.75 3.1 1.7 4.45.8 1 .05 2-.3.6-3.7 1l-5.85.4" transform="translate(192.55 294)"/><path fill-rule="evenodd" fill="url(#e)" d="M-18.65-95.7q.15.25 4.05-1.2 3.9-1.55 9.7-5.55 5.85-4.05 8.15-1.5 6.7 5.55 16.15 6.6 3.45.75 2.85 2.95-.65 2.05-2.4 3.8-1.85 1.85-5 3.3-2.75 1.35-6.5 2.4-12.2 3.25-24.55-.95-7.85-2.1-9.25-4.35-1.85-3.05 6.8-5.5" transform="translate(192.55 294)"/><path fill-rule="evenodd" fill="url(#f)" d="M-2.15-40.45q-7.15-3.5-11.95-6.35-4.8-2.8-11.85-4.25-5.95-2-4.95-7.15.95-5.15 1.55-9.7.45-4.55-.45-7.9l-1.65-6.65q-.25-5.5 6.35-3.3t13.2 3Q-5-82-3.5-81.1l4.45 2.35q2.85 1.5 2.2 6.75-.7 5.2-.2 6.55l-.05.55q-.8 4.95.9 9.65l.45 1.1.05.2.15.35v.05l.05 1.3.1.2.45 1.6.1.8q.45 4.7-4.25 7.7-1.35.8-3.05 1.5" transform="translate(192.55 294)"/><path stroke-width=".05" stroke-linejoin="round" stroke-linecap="round" stroke="#ff2b2b" fill="none" d="m211.95 196.65 6.7-.35q3.15-.8 4.65.65 1.55 1.5 2.7 7.5 1.25 6-3.65 20.5-1.1 2.4-.95 4.25.15 1.8 1.5 3.95 1.35 2.15.6 4.55-.8 2.4-3.2 2.55-2.4.1-9.2 4.4l-10 6.7q-3.2 2.4-6.1 2.55l-4.6-.35q-7.15-3.5-11.95-6.35-4.8-2.8-11.85-4.25-5.95-2-4.95-7.15.95-5.15 1.55-9.7.45-4.55-.45-7.9l-1.65-6.65-.2-1.15q-.25-13.5 7.6-11.3l5.4-.8q.15.25 4.05-1.2 3.9-1.55 9.7-5.55 5.85-4.05 8.15-1.5 6.7 5.55 16.15 6.6z"/></g><g id="a"><path fill-rule="evenodd" fill="#febebe" d="M-.05-4q.8 0 2.1 1.65.7.8.75 1.85l-.1 1.6q-.3 2.3-1.5 3.35-.65.6-1.4.6l-.95-3.75L-.05-4" transform="translate(2.75 4)"/><path fill-rule="evenodd" fill="#e39c9a" d="M-.2 5.05q-.55 0-1.15-.35L-2.6 3.55q.15-2.8.85-5.05l1-2.05q.4-.5.7-.45l-1.1 5.3.95 3.75" transform="translate(2.75 4)"/><path stroke-width=".05" stroke-linejoin="round" stroke-linecap="round" stroke="#b42525" fill="none" d="M2.7 0q.8 0 2.1 1.65.7.8.75 1.85l-.1 1.6q-.3 2.3-1.5 3.35-.65.6-1.4.6-.55 0-1.15-.35L.15 7.55 0 9.6l.35.85m-.2-2.9Q.3 4.75 1 2.5L2 .45q.4-.5.7-.45L.15 7.55z"/><path fill-rule="evenodd" fill="#652525" d="M-.25.05-.6.4l-.55-.35-.25-.8.05-.8.45-.3.45.3.3.8-.1.8" transform="translate(2.75 4)"/></g><g id="b"><path fill-rule="evenodd" fill="#febebe" d="M.25 5.15.4-5.05q.7 0 1.5.65l.3.7q.8 2.15.35 4.8Q2.1 3.7 1.3 4.45l-1.05.7" transform="translate(1.55 7.85)"/><path fill-rule="evenodd" fill="#e2a2a2" d="M1.9-4.4q-.8-.65-1.5-.65L.25 5.15l-.65.05q.2-2.45.05-10.1Q-.3-6.2-1-6.95l.6.15.4.15Q1.15-6 1.9-4.4" transform="translate(1.55 7.85)"/><path stroke-width=".05" stroke-linejoin="round" stroke-linecap="round" stroke="#b42525" fill="none" d="M3.45 3.45q-.75-1.6-1.9-2.25l-.4-.15L.55.9q.7.75.65 2.05.15 7.65-.05 10.1L1.8 13l1.05-.7q.8-.75 1.25-3.35.45-2.65-.35-4.8l-.3-.7M0 0l.55.9m.6 12.15v1.85"/><path fill-rule="evenodd" fill="#652525" d="M.45-2.1q-.05.6-.75.7v-2.55l.25.25.35.6.15 1" transform="translate(1.55 7.85)"/></g><path d="M12.3-54.7q2.7-1.5 3.6-4.3.85-2.75-.55-5.2l-1.6-1.9q.6 2.85-.3 5.85-1.4 4.05-4.75 6.6 1.85 0 3.6-1.05m-27.9-4.25 1.5-1.5.05.35q0 2.5 1.45 4.45-1.05-.25-1.85-1.05-.95-.95-1.15-2.25" transform="translate(15.6 66.1)" id="j" fill-rule="evenodd" fill="#fff"/><path fill-rule="evenodd" fill-opacity="0" fill="#f0f" d="M0 0h102.95v45H0V0" id="c"/></defs><path fill="none" d="M-1-1h136v134H-1z"/><g transform="scale(2)"><use x="32.3" y="105.25" xlink:href="#g" width="381" transform="translate(-192.55 -294)" height="381"/><use x="-20.15" y="-33.817" xlink:href="#h" width="5.55" transform="matrix(-.5549 2.8237 1.4765 .0622 76.47 95.886)" height="10.45"/><use x="-.376" y=".284" xlink:href="#i" width="4.25" transform="matrix(.2175 2.5817 -1.4749 -.1003 35.09 43.986)" height="14.9"/><use x="32.3" y="105.25" xlink:href="#j" width="31.8" transform="translate(-15.6 -66.1)" height="12.45"/><use x="-88.396" y="-113.829" xlink:href="#k" width="102.95" transform="matrix(1.8072 0 0 1.6538 96 184.8)" height="45"/></g></svg>