<svg width="345" height="358" xmlns="http://www.w3.org/2000/svg" xmlns:xlink="http://www.w3.org/1999/xlink"><defs><g id="b" stroke-opacity="0" stroke-linejoin="round" stroke-linecap="round" stroke="#f0f" fill="none"><path d="M187.95-293.5v380h-380v-380h380M92.95.6H-97" transform="translate(192.55 294)"/><path d="m187.95-293.5-190 190 190 190m-380-380 190 190L-192 86.5" transform="translate(192.55 294)"/></g><g id="c"><path stroke-width=".05" stroke-linejoin="round" stroke-linecap="round" stroke="#442d11" fill="none" d="m176.25 338.95-13.7-19.55"/><path fill-rule="evenodd" fill="#996128" d="M299.75-3.05q11.3-19.1 14.85-58.65 4.45 5.05 7.8 10.9l.8 4.35-6.55 22.5-11 24 6.5-3-7 11.5 6-4-6.85 12.25-.55.4-.95.2.7 5.7-5.4 3.45 1.95 4.05-1.35.45h-.05l1 4.2-4.75-3-.7.2.8 3.65-3.55-2.8-6.1 1.9-.3-.15-2.9-1.5-.5-.75-2-3 3-1.1q6.1-2.65 11.25-7.65l1.15-11.25q1.75-1.8 6.65-1.75h1.45l-3.4-11.1M354.5 92.7q.85-1.2 4.15 1.35l-.2 4.4q-.7 7.4-4.1 10.95l-.75.6-8.45-10.45L353.6 110l.05.05 1.65 2.25 3.95 1.7-1.9.05-.65.1 6.65 8.95-13.85-8.45 1.6 2.4 10.15 9.35-4.75-1.3 5.65 8.45q-5.75-2.6-15.75-9.15l2.4 5.4 5.7 4.2-4.6-1.75 3.25 7.3Q330.3 126.1 322.6 123.8q-3.1-.9-3.75-.05-5.05.3-9.5 3.3.75 5.6 1.1 11.1l.2 6.05v4.15q-.15 7.2-1.05 14.2l5.25 10.25q-4.55 3.25-17.9 4.1-3.55-7.55-7.9-15.1-5.55-9.55-12.5-19.05l-.1-.2-.4-1.15-.1-.35-1.75-1.95-25.05 1.05-36.2 4.3-.65-3.8-.3-1.7.45.3-.4-6.3-2.75-3-7.05.4q.55-.6.45-1.45l.3-.55.05-.4v-.55l-.1-.4-.1-.1-.2-.1-9.5-.7v.05l-.35.1-7.5-5.15q1.2-.25 2.5-1.15l.2-.25.15-.4.05-.4v-.15l-.1-.1q-2.55-1.95-5.9-1.65l-1.5.45-.55.15-3-2.05h-21l9-6-23 1 4-31-20 13 1.5-4.35-6.05-3.2-13.8-10.9-7.55-12.95-3.75-19.7 3.75-28.85 9.2-16.75-3.2 10.1-.3 1.65q-7.2 43.6 22 79.7l9.2-26.75-6-13 15-21 4-13-5-16L157.3-16.3q1.15 6.6 3.1 12.95-1.95-6.35-3.1-12.95-2.45-13.95-1.15-29.15Q162.5-59.2 169.8-63.1l-4.65 12.65-2.5 26.5 2.5 11 8 12.5-2-7.5 10 13 6 11V5.55l6 12.55-.15.1-8.35 1.35-2.2-1.65-4.85-3.65-1.95-.95q-4.4-2.3-8.55-5.9 4.15 3.6 8.55 5.9l1.95.95 4.85 3.65-5.55 23.55-5.1 10.1-10.1 7.8-6.45 7.1 12.5-3.75-11.8 27.4 5.75-1.7 9.1-1.7-1.35 8.8 6.1-3.4 16.9-4.05 4.35.35-14.15 14.5 13.85-3-5.4 3.35 14.5.35-3.35 3.05 16.2-9.15-6.75 7.1 5.6.85.05.1.7.4q3.95.15 6.95 2.3l-.1.95-.3 1.45q-.05.45.2.7.5.4 1.1.25l.25-.05q.35-.3.8-.45.55-.2.55-.7l5.65-2.85-2.1-13.3.5-.05-.65-.9q-4.55-6.55-3.4-15.55l5.35 8.4 8 8.6 10.6 2.3 8.05-2.3.3.05-.05 1.15-.55 8.55 6.9 4.9 8.35.5 2.25.75 1.45-.4 6.4 1.95 5.65-2.5h.25l4.1-3.25.1 2.1q6.55 1.55 12.35-.55l2.1.9.8.1-1.7.55-.2.3-.1.45q.75.65 1.75 1.05 1.1.45 1.9 1.3 2.2 2.2 4.5 1.35.15-.4-.1-.8-1.15-1.85-3-2.75l1-.1.65.4q3.75 2.15 7.8 3.75l.35-.1.35-.45q.15-.4-.05-.75-1.2-1.75-2.85-3.05l1.05-.05q1.45.7 2.75 1.6 4 2.95 8.3 2.65l.05-.3q-.35-2.05-2.45-2.9 1-.15 1.75.65 3.2 3.35 7.55 3.5l.2-.3.05-.9-.8-.8-.95-.65-2.2-3 2.1.15.3-.3.15-.25 9.65 2.4-4.6-8.1q2.15-1.3 2.05-4l1.25-8 1.2.4 6.55 2.1.35-1.35M264 148.75l-2.25 8 .1-6.7 2.15-1.3m-49.2-.45-.25.95q-.6 3.15 1.6 11.4l-4.85-1.6-.1-.05-2.15-1.05 3.95-12.9.05-.1.1.35 1.65 3M193.6 180q-4.75-12.05-13.75-22.85l-4.9-8.15-.3-.45q-23.5-4.45-40.5 0-28.8-7.4-40-14-6.2.8-7.55 10.85-5 2.3-10.2 8.45-.2-.6-4.1-.7l-.05-.1-.8-6.35-3.95 1.7 1-2.35-1 2.35 3.95-1.7.8 6.35v.05l-.1-.05-.55.9-11.25 15.15-5.85-.65-2.7-.7 3.1-13.15 6.8-11.7-1.35 7.9.8-.45 7.35-4.3 1.2-2.95-5.05 1.75 5.05-7.1 3.9-3.05.35 9.65 7.6-7.6-4.5-5.5-5.2-7.25 14.2 4.8-7.95-10.7 25.9 14.85 23.5 9-4.5-5.85 20.05 4.45 25.9 3.1-4-11.25 6.8 11.3 2.75.3 5.5 3.25L195.9 167l13.45 10.2q-6.55 2.2-15.75 2.8m45.55-207 2.75 1.4 6.6-.25-1.3-3.7-9.65-15.95-18.45-18.45-4.1 4.4-8.1 10.6L200-63l-8.45-11.25L187-75.4l-20.25 9.75L142-35.95l-4.15 9.75q.8 2.1.8 4.75 0 3.95-1.85 6.7-1.8 2.8-4.4 2.8-2.6 0-4.45-2.8-1.8-2.75-1.8-6.7t1.8-6.75q1.85-2.75 4.45-2.75l.4.05.75-7.7-.65.8q-1.25 1.35-3 1.35t-3-1.35q-1.25-1.3-1.25-3.15 0-1.85 1.25-3.2 1.25-1.3 3-1.3t3 1.3q.7.75 1 1.65l.7-7.25 8.15-14.45q-11.2 6.9-22.05 15.9-10.95 8.45-19.5 29.05 1.95 2.95 1.95 7.05 0 4.45-2.35 7.6-2.35 3.15-5.65 3.15-3.3 0-5.65-3.15-2.35-3.15-2.35-7.6 0-4.45 2.35-7.6 2.35-3.15 5.65-3.15 1.5 0 2.85.7.65-11.2 4.5-23.9-22.7 15.7-37.9 33.5l-.05-.05 13.6-30.25Q47.1-33.3 38.25 6.6l-11.6 38.45v-19l12-42 2-7 19.5-38v19l22-36 9 23.5 14.5-23.5 28-7-9.5 18 43-18.5h23.5l16 31.5 13.5-19.5 19.5 24.5L251.35-26l.05.1 2.75 5.4-5.35-.6v.15q-9.5-1.5-9.65-6.05m22.6 34.5 5.05.7q2.4 8.75 7.85 14.85l4.3 5.8-10.3 1.2-10 6-4.55-.35-4.9 1.9-13.9 2.25 4.2-3.35-7.3-1.75-8.65 3.3 3.75-3.1-4-1.75-5.5-6-8.4.25 8.6-4.9-3.3-7.3 1.1-3.15.45-14.55q.3 3.25.9 6.5l7.55 2.85q.7 7.8 7.45 14.9 4.4 2.1 8.8 3.75 7.2 2.75 14.45 4.25 2.8-6-1.25-10l6.5 2.75q2.2-6.7 1.1-15.05m19.5-19.85L270.2-16.4q.85-5.4 1.15-11l3.6 9.7 7.65 5.8-1.35-.45M253 47.9l4.35-3.95.4 21.8 3.8 16-3.55-2.7Q254.2 68.4 253.4 57q-.45-4.65-.4-9.05v-.05m28.65 13 4-4.6 1.65 3.6-4.4 8.15 3.8 11.55-1.55 4.95-5.2-14.95 1.7-8.7m-26 38.65q2.05-2.2 4.1-3.6-2.05 1.4-4.1 3.6-1.4 5.65 0 10-1.4-4.35 0-10m30.85 27.55q-1.6.7-3.2 1.5l-.1.5v.15l1.5.6q3.15 1.05 6.7.85 3.2 1.35 6.55.75l.15-.2q.35-.65 0-1.3l-1.2-.6 3.15 1.05 3.05-.45q3.35-.85 6.25-2.9-2.9 2.05-6.25 2.9l-3.05.45-3.15-1.05-1.65-.55-8.1-2.75-.65 1.05.65-1.05-37-7.5h-28l-13.6-9.1-1.25.1 1.25-.1 13.6 9.1h28l37 7.5 8.1 2.75-1.75-.3q-2.9-.2-4.7-1.5l-.05-.15q-.2-.4-.7-.45l-.3.1-1.25.6m-83.3-17.35q0 .35.3.55l.4.3-.15.35-.05.5.05.35.15.15.25.15.35.15q1.3.3 2.35 1.6 4.6 5.5 11.35 4.15l.15-.15.25-.15.1-.5.05-.35-.05-.15-.5-.6q-5-2.75-9.45-6.2l-.25.05-.25.1-.2.05-.15-.1-.6-.45q-1.3-.9-2.8-1-.6.1-1.15.6-.2.15-.15.45v.15l-8.8.5 6.75-3.4-5.85-.4 5.85.4-6.75 3.4 8.8-.5m-9.25-3.35-3.55 1.65-.1.35v.3l7.6-.25.2-.35v-.5l-.05-.1q-1.7-.3-2.65-.9l-.1-.15q-.35-.35-.85-.3l-.5.25h-3.1l-7.3 3.55 3.25-3.4-9.65 1 12-16.5-2.8.6 2.8-.6-12 16.5 9.65-1-3.25 3.4 7.3-3.55h3.1m-11.5-13.75-1.25 1.05q-3.6 3.5-2.3 7.5h.4q2.3-.15 3.65-1.7l.05-.15-.05-.35v-.15l.95-.95 2.9-5.6-.05-.15-.4-.5-.2-.2-.4-.05-1.1-.05-1 .45-1.2.85q-2.9.85-5.7 2.05l-10.7 13.05 2.7-8.95q-4.7 2.9-9.1 6.75l6.5-15q-10.55.7-20 11.5 2.3-8.55 6.5-17.4-4.2 8.85-6.5 17.4 9.45-10.8 20-11.5l-6.5 15q4.4-3.85 9.1-6.75l-2.7 8.95 10.7-13.05q2.8-1.2 5.7-2.05m-22.05-22.1q-.6-.55-1.55-.35l-.5.2q-6 3-6.75 9.55l-.45.45-.2.2-.1.25-.15.45-.05.2-.2.2-.2.25-.1.2-.05 1.1q-.1.7.35 1.1 1.1.7 2.2.3l.55-.3 1.35-2.2q1.45-2.35 2-5l.2-1.6.65-.8.5-1.15q.5-.4 1.1-.7l-2.45 4.25L159 72.9l1.45-.8.2-.2.15-.65-.05-.2-.1-.2-.25-.3 2.25-3.5-21.5 14q2.35-6.15 6.7-11.55-4.35 5.4-6.7 11.55l21.5-14-2.25 3.5m-8.55-10.3-1.1-.3-.2-.2q-.45-.45-1.05-.35-.3.05-.65.25-3.4 2.3-5.95 5.45l-.1.45-.05.4-.25.25q-.55.45-.85 1.1l.05.65.1.45q1 .85 2.25.95l.05.1.2.25.25.25 2.65.05.65-.5.95-.95 2.2-2.2.6-.2.35-.2.45-.9.4-.85.1-.1.3-1.2.3-.25.25-.2q.45-.45.3-1l1.1.6-2.25 2.05 2.25-2.05-1.1-.6-.05-.1-.1-.15q-1.05-.65-2.05-.95l-7.7-4.2q15.6-.45 23.5-10.5l8-25.2-8 25.2q-7.9 10.05-23.5 10.5l7.7 4.2m8.55-63.6-.1-.05-.3.05-.6.5-.1 1q.15 3.85 1.4 7.35l.2.2.2.2.2.5q2.7 3.6 5.05 7.45 3.35 5.5 9.3 6.5h.1l.3-.35.7-1.15.05-.55-.1-1.3-.7-2.8q-4.75-3-8.9-6.8l-1.2-1.15h-.05l-1.6-1.55 1.6 1.55-.75-.1-.85-1.45-2.05-2.8-.25-.75.25.75-.1-.15q-.35.1-.25-.2l.1-.4q.45-2.3-.95-4.25l-.25-.15-.35-.1m46.85 131.05 2.05 2.25-2.05-2.25m90.5 11.7-9.3.35-12.4 1.65 12.4-1.65 9.3-.35m-44.45-31.15-.15-.25-.2-.15q-.65-.4-1.45-.3-.25.05-.5.25l-.15.15q-.3 2 .4 3.85 1.2 3.05 4.2 2.65.35-.5-.05-1-.35-.5-.4-1.1-.4-.45-.5-1-.25-1.25-.95-2.25l-.25-.85m-6 3 .4-.35.6-.45q.45-1.75-.75-3.15-.65-.75-1.5-1.35-4.2-3.15-9.1-5l-.15.05-.1.1q-.45.55-.55 1.25l-.15 2.15q.05 3.8 2.85 6.35l.45.2q3.95.7 8 .2m49.3 37.25 6.2 8.3-2.05-6.2 4.75 4.55-1.45-7.05 5.2 2.7-5.2-2.7 1.45 7.05-4.75-4.55 2.05 6.2-6.2-8.3m45.2-35.9-.25.05q-.4.15-.5.55v.15q1 3.15 4 4.35l.35-.2.4-.6-.15-.25-.45-.65-.05-.15q-.7-2.5-3.35-3.25M81.65-13.2q0 1.75-1.05 3-1 1.25-2.45 1.25-1.45 0-2.5-1.25-1-1.25-1-3t1-3q1.05-1.25 2.5-1.25t2.45 1.25q1.05 1.25 1.05 3m-22 57.75q0 5.2-2.5 8.85-2.5 3.65-6 3.65t-6-3.65q-2.5-3.65-2.5-8.85 0-5.2 2.5-8.85 2.5-3.65 6-3.65t6 3.65q2.5 3.65 2.5 8.85M72 48.95Q77.2 81 105.85 97.5l-2.7.1-11.7-3.4-7.95-4.6-7.1-10.9-5.45-16.75 1.05-13m-.4 105-10.2 3.15 3-4.75-5.9 2.15 2.65-4.15-2.65 4.15 5.9-2.15-3 4.75 10.2-3.15m106-139.7-.9 2.75.9-2.75m56.05 82.3-2.1-2.35 2.1 2.35m-116.85-2.3-15.7-8.85-9.65-12.95-5.85-15.5-.8-15.5 3.1-7.2q2.45 33.55 28.9 60m54.95 49.45 2.9 4.85-2.9-4.85m53.8-37.05v.15l-.2-.15h.2m-16.3 15.95.05-.1q-.1-.4-.4-.65l-.55-.4-.2-.05h-.75l-.25.05q-2.9.35-3.5 2.8 2.8 1.5 5.1-.4l.1-.2.2-.3.05-.1.05-.25.1-.4m3.05 18.05.15-1.4-.15 1.4m.7 4.4.15.25-.15-.25m-22.55-23.55q.05 1 .8 1.7l1.7 1.35q2.65.75 4.6-.75 1.4.1 2.45-.75.8-.65.95-1.65l-.05-.15q-1-2.45-4-1.75-3.65.1-6.45 2m2.9-4.3-.15-.05-.55-.1q-1.65.35-2.9 1.45v.5l.05.15 1.2.8.2-.05q2.55-.4 2.15-2.7m-11.5 1.55.4-.1-.15.1-.1.1-.15-.1m-12.9 24.9-1.05 1.4 1.05-1.4m45.6 5.6-1.4-3.95 1.4 3.95" transform="translate(1 189.45)"/><path fill-rule="evenodd" fill="#bd7c2f" d="m322.4-50.8 1.35 2.5q7.95 15.55 8.1 36.35-9.25 23.2-25.25 33l-3.1 2.05-.7-5.7.95-.2.55-.4 6.85-12.25-6 4 7-11.5-6.5 3 11-24 6.55-22.5-.8-4.35m-22.35 81.4 4.55 9.45-8.1-.9q-5.45-1.2-11.15-3.95 5.7 2.75 11.15 3.95l8.1.9q-3.15 5.4-5.9 10.9-3.05 5.85-5.6 11.8l-2.4 5.8q-2.2 5.45-4 11.05l-3.8-11.55 4.4-8.15-1.65-3.6-4 4.6 2.8-14.3q-.65-.5-3.6-1.5l-4.35-1.45-12.25 22.65.9 18.25-3.6-2.8 3.6 2.8.4 8.95q-2.85.35-5.8 2.45 2.95-2.1 5.8-2.45l.25 8.6q8.75 4 17.4 2.1 3.35-.8 6.7-2.45 3.45-.7 4.4 3.1l.25 1.6-4.1 3.25h-.25l-5.65 2.5-6.4-1.95-1.45.4-2.25-.75-8.35-.5-6.9-4.9.55-8.55.05-1.15-.3-.05-8.05 2.3-10.6-2.3-8-8.6-5.35-8.4q-1.15 9 3.4 15.55l.65.9-.5.05 2.1 13.3-5.65 2.85q0 .5-.55.7-.45.15-.8.45l-.25.05q-.6.15-1.1-.25-.25-.25-.2-.7l.3-1.45.1-.95q-3-2.15-6.95-2.3l-.7-.4-.05-.1-5.6-.85 6.75-7.1-16.2 9.15 3.35-3.05-14.5-.35 5.4-3.35-13.85 3 14.15-14.5-4.35-.35-16.9 4.05-6.1 3.4 1.35-8.8-9.1 1.7-5.75 1.7 11.8-27.4-12.5 3.75 6.45-7.1 10.1-7.8 5.1-10.1 5.55-23.55 2.2 1.65L193 18.2l.15-.1-6-12.55v10.5l-6-11-10-13 2 7.5-8-12.5-2.5-11 2.5-26.5 4.65-12.65q-7.3 3.9-13.65 17.65-1.3 15.2 1.15 29.15L145.15-2.45l5 16-4 13-15 21 6 13-9.2 26.75q-29.2-36.1-22-79.7l.3-1.65 3.2-10.1-9.2 16.75-3.75 28.85 3.75 19.7 7.55 12.95L121.6 85l6.05 3.2-1.5 4.35 20-13-4 31 23-1-9 6h21l3 2.05.55-.15 1.5-.45q3.35-.3 5.9 1.65l.1.1v.15l-.05.4-.15.4-.2.25q-1.3.9-2.5 1.15l7.5 5.15.35-.1v-.05l9.5.7.2.1.1.1.1.4v.55l-.05.4-.3.55q.1.85-.45 1.45l7.05-.4 2.75 3 .4 6.3-.45-.3.3 1.7.65 3.8.1.5-.05.1-3.95 12.9 2.15 1.05-.05.05.05.1q5.3 8.6 5.95 14.15-3.25 2.35-7.8 3.9L195.9 167 180 147.25l-5.5-3.25-2.75-.3-6.8-11.3 4 11.25-25.9-3.1L123 136.1l4.5 5.85-23.5-9-25.9-14.85 7.95 10.7-14.2-4.8 5.2 7.25 4.5 5.5-7.6 7.6-.35-9.65-3.9 3.05-5.05 7.1 5.05-1.75-1.2 2.95-7.35 4.3-.8.45 1.35-7.9-6.8 11.7-3.1 13.15q-6.65-2.15-12.4-7.65 4.45-21.8 3.75-48.55-8.85-14.05-12.3-26.1l.4-.85-.1-.1-1.1-.9-.3-.5q-2.6-7.2-2.4-15.05l-.15-.1-.55-.3v-1.1 1.1l-.1-.05-.3.05-.15.1.55-1.2v-21.5L38.25 6.6q8.85-39.9 39.9-49.55L64.55-12.7l.05.05q15.2-17.8 37.9-33.5-3.85 12.7-4.5 23.9-1.35-.7-2.85-.7-3.3 0-5.65 3.15-2.35 3.15-2.35 7.6 0 4.45 2.35 7.6 2.35 3.15 5.65 3.15 3.3 0 5.65-3.15 2.35-3.15 2.35-7.6 0-4.1-1.95-7.05 8.55-20.6 19.5-29.05 10.85-9 22.05-15.9l-8.15 14.45-.7 7.25q-.3-.9-1-1.65-1.25-1.3-3-1.3t-3 1.3q-1.25 1.35-1.25 3.2t1.25 3.15q1.25 1.35 3 1.35t3-1.35l.65-.8-.75 7.7-.4-.05q-2.6 0-4.45 2.75-1.8 2.8-1.8 6.75t1.8 6.7q1.85 2.8 4.45 2.8t4.4-2.8q1.85-2.75 1.85-6.7 0-2.65-.8-4.75l4.15-9.75 24.75-29.7L187-75.4l4.55 1.15L200-63l6.9 14.05 8.1-10.6 4.1-4.4 18.45 18.45 9.65 15.95 1.3 3.7-6.6.25-2.75-1.4q.15 4.55 9.65 6.05v-.15l5.35.6v.05h5l4.9 1.8 6.15 2.25 11.05 4.05-5.6 7.9-10 7.5q.4 2.5 1.05 4.8l.1.35-5.05-.7q-.35-2.9-1.1-5.95-5.25-6.25-14-8l2.15 6q-5.8-6.6-14.15-12l2.1 6.85q-4.7-5.35-11.75-10.35l1.5 8.35-10.2-7.1v.1q-.55 6.15-.05 12.15l-.45 14.55-1.1 3.15 3.3 7.3-8.6 4.9 8.4-.25 5.5 6 4 1.75-3.75 3.1 8.65-3.3 7.3 1.75-4.2 3.35 13.9-2.25 4.9-1.9 4.55.35 10-6 10.3-1.2.7.95 2 3 .5.75 2.9 1.5.3.15 6.1-1.9 3.55 2.8-.8-3.65.7-.2 4.75 3-1-4.2h.05l1.35-.45m54.3 78.8-.7.65-.05-.05.75-.6m-77.8 33.35-.15-.2h.05l.1.2M28.7 90.05q-3.55 8.75-5.5 17l-2.25.5-.9-.25-2.2-1.55q.35-20.5 7.8-37.05l-.05.9-.35.35-.1.15q-.85 5.25-.15 10.45.3 2.45.9 4.8.8 3.05 2.6 4.75l.2-.05m225.45-110.5-5.35-.5 5.35.5m28.45 8.55-7.65-5.8-3.6-9.7q.8-13.2-1.3-27.3l8.1 6.25q9.1 18.75 12 37.5h-5l-2.55-.95 2.55.95h5l-8.9 7v-8.4l1.35.45m-32.9 52.25-.25-.1q-2.3 1.85-4.1 4.05-3.5 4.1-5.15 9.35-4.25 9.25-2.9 22.85l1.15 7.15q5.35 7.1 15.3 5.7 3.25-.45 7-1.8l-2.75-8.5 3.55 2.7-3.8-16-.4-21.8L253 47.9q.05-3.1.35-6.1-.85-1.25-3.65-1.45m14.95-.8q5.65-7.15 17-6.75-11.35-.4-17 6.75m71.55 64.05h.05l5.15.65 1.7-.7 4.6 8.1-9.65-2.4-.15.25-.3.3-2.1-.15 2.2 3 .95.65.8.8-.05.9-.2.3q-4.35-.15-7.55-3.5-.75-.8-1.75-.65 2.1.85 2.45 2.9l-.05.3q-4.3.3-8.3-2.65-1.3-.9-2.75-1.6l-1.05.05q1.65 1.3 2.85 3.05.2.35.05.75l-.35.45-.35.1q-4.05-1.6-7.8-3.75l-.65-.4-1 .1q1.85.9 3 2.75.25.4.1.8-2.3.85-4.5-1.35-.8-.85-1.9-1.3-1-.4-1.75-1.05l.1-.45.2-.3 1.7-.55-.8-.1-2.1-.9q6.9-2.55 12.75-10.4 11.45 6.1 15.9 5.9l.55.1m-49.3-49.55q.65-9.55 9.6-14.9-8.95 5.35-9.6 14.9m-39.6 57.2q-4.05.5-8-.2l-.45-.2q-2.8-2.55-2.85-6.35l.15-2.15q.1-.7.55-1.25l.1-.1.15-.05q4.9 1.85 9.1 5 .85.6 1.5 1.35 1.2 1.4.75 3.15l-.6.45-.4.35m6-3 .25.85q.7 1 .95 2.25.1.55.5 1 .05.6.4 1.1.4.5.05 1-3 .4-4.2-2.65-.7-1.85-.4-3.85l.15-.15q.25-.2.5-.25.8-.1 1.45.3l.2.15.15.25m88.5 4.35q2.65.75 3.35 3.25l.05.15.45.65.15.25-.4.6-.35.2q-3-1.2-4-4.35v-.15q.1-.4.5-.55l.25-.05M204.65-2.95q-14.7-8.5-33-61l-1.85.85 1.85-.85q18.3 52.5 33 61M239.15-27q-.1-1.3.65-2.9-.75 1.6-.65 2.9M81.65-13.2q0-1.75-1.05-3-1-1.25-2.45-1.25-1.45 0-2.5 1.25-1 1.25-1 3t1 3q1.05 1.25 2.5 1.25t2.45-1.25q1.05-1.25 1.05-3M49 7.7q-.65.75-.65 1.8t.65 1.75q.7.75 1.65.75t1.6-.75q.7-.7.7-1.75t-.7-1.8q-.65-.7-1.6-.7-.95 0-1.65.7m32.1-9.85q-2.85 0-4.85 2.25-2 2.3-2 5.5t2 5.45q2 2.3 4.85 2.3 2.85 0 4.85-2.3 2-2.25 2-5.45t-2-5.5q-2-2.25-4.85-2.25m-21.45 46.7q0-5.2-2.5-8.85-2.5-3.65-6-3.65t-6 3.65q-2.5 3.65-2.5 8.85 0 5.2 2.5 8.85 2.5 3.65 6 3.65t6-3.65q2.5-3.65 2.5-8.85M72 48.95l-.85-6.9.85 6.9-1.05 13L76.4 78.7l7.1 10.9 7.95 4.6 11.7 3.4 2.7-.1Q77.2 81 72 48.95m38.65 51.1-4.8-2.55 4.8 2.55m-38.4 53v.05-.05l.05.1-.05-.05v-.05m-10-4.45-1.1 1.75 1.1-1.75m165.4-72.1-.15 1.25.15-1.25h9.65-9.65m-115.9-62.3q-.7 1.35-.7 3.25t.7 3.2q.75 1.35 1.8 1.35t1.75-1.35q.75-1.3.75-3.2 0-1.9-.75-3.25-.7-1.3-1.75-1.3t-1.8 1.3M87.9 34.25l-3.1 7.2.8 15.5 5.85 15.5 9.65 12.95 15.7 8.85q-26.45-26.45-28.9-60l-.25-5.2.25 5.2m137.65 72.4h-.2l.2.15v-.15m-16.3 15.95-.1.4-.05.25-.05.1-.2.3-.1.2q-2.3 1.9-5.1.4.6-2.45 3.5-2.8l.25-.05h.75l.2.05.55.4q.3.25.4.65l-.05.1m2.1 14.65 1.25 6.4.45 1.3-.45-1.3-1.25-6.4m-18-20.05q.4 2.3-2.15 2.7l-.2.05-1.2-.8-.05-.15v-.5q1.25-1.1 2.9-1.45l.55.1.15.05m-2.9 4.3q2.8-1.9 6.45-2 3-.7 4 1.75l.05.15q-.15 1-.95 1.65-1.05.85-2.45.75-1.95 1.5-4.6.75l-1.7-1.35q-.75-.7-.8-1.7m-8.6-2.75.15.1.1-.1.15-.1-.4.1m21.9 43.5-.7-4.05.7 4.05-7.45-10 7.45 10m2.55-5.7 2.75 1.4-2.75-1.4 2.95 6.5-6.2-4.85 6.2 4.85-2.95-6.5m-79.15-53q-4.9-4-9.2-8.2 4.3 4.2 9.2 8.2" transform="translate(1 189.45)"/><path fill-rule="evenodd" fill="#442d11" d="m276.4 142.55-10.75 16.5V142.7l-1.6 5.75-.05.3-2.15 1.3.05-2.5-4.75 10-6 9.8-.4-10.5-2.25 4.65 1.2-17.65-6.95 13.2-3.3 10.85-.25-5.4-6.05 7.55v-11.5l-3.7 3.35-5 9.35 1.8-6.45-3.6 3.25 6-25-13.85 5.25-1.65-3-.1-.35-.1-.5 36.2-4.3 25.05-1.05 1.75 1.95.1.35.4 1.15h-.05m-96.55 14.6-.75 2.75 2.1 2.9-2.7-.75-1.35 5-5.9-4.45-.15 3.3-2.4-5.2-9.55-7.15v14.5l-7.5-6.5-6.95-6.05.65 4.85-1.2-1.85v10.05l-8.25-7.95-.2 2.25-6.05-7.05v7.25l-5.25-3.85-2.7-2-1 5.35-2.35-7.8-7.7-5.7v.65l6.55 11.95-6.55-6.2v7.1l-8.6-6 .3 5.85-5.3-9.3-10.45-7.7q1.35-10.05 7.55-10.85 11.2 6.6 40 14 17-4.45 40.5 0l.3.45 4.9 8.15M150.9 175.7l1.15 6q-.95 2.05-7.2-.45l-1.95-3.15.5 3.35q-1.7 2-8.8-1.3.2-4.5-4.7-10.65 14.9 8.5 21 6.2M23.2 107.05l3.7-.6-2.55 2.95q5 1.3 9.3 7.15H28.4q3.25 3 3.35 5.95l-6.15-4.85q3.75 5.7 5.05 12.9l-1.9 6.5q2.45 3.7 2.2 9.35l-3.2-5.9q-.55 9.55-4.6 15.55v-19.5q-1.55 10.15-6 19-3.95-6.35-5.5-14.5v13.5l-.5-1.15-3-13.95q-3.05-9.7 6.2-18.35l-8.3 4.8q3.25-8.45 9.85-12.3l-5.95 1.3 7.3-4.2-4.55-2.3 2.85-1.05-2.45-4.6 4.75 3 2.2 1.55.9.25 2.25-.5M254.15-20.5l-2.75-5.4-.05-.1-11.7-22.95-19.5-24.5-13.5 19.5-16-31.5h-23.5l-43 18.5 9.5-18-28 7-14.5 23.5-9-23.5-22 36v-19l-19.5 38-2 7L15.2 3.35q-2.95-13.5 4.45-29.8l23.1-18.4-8.2-.6 8.1-15.5 32.5-13-8.7-2.95 2.7-.05-42.3-14.35 26.8-13.65 53 9-15.2-10.15.2-.35-22-18.5L20.3-154.5l38.35 11.05 42.5 30.5-23.5-38.5 55 23-20.5-21.5 30 7 45 37 9-7.5-7.05-5.2-52.45-69.8q34.35 2.6 47 12.5 30.5 28 47 56 7.5 22.1 13.95 47.35l-3.65-34.95 19.2 48.1 3.9 40.8-4.9-1.8h-5v-.05M266.8 8.2l-.1-.35 12.55-10.6-2.45 6.8 15.35-11.2 6-5.05q.55 4.8 1.6 9.15l3.4 11.1h-1.45q-4.9-.05-6.65 1.75l-7.9 3.75-8 6.1-4.5 3.4q-5.45-6.1-7.85-14.85m-5.05-.7q1.1 8.35-1.1 15.05l-6.5-2.75-21.35-9.35-8.1-3.55-7.55-2.85q-.6-3.25-.9-6.5-.5-6 .05-12.15l12.05 11.85.25-6.6 9.6 10.4.25-6.85L251.5 5.6l.1-7.8 10.15 9.7m-87.1 141.05.3.45-.3-.45" transform="translate(1 189.45)"/><path fill-rule="evenodd" fill="#634718" d="m314.85 172.8 4.4 9.2q-.85 3.75-8.1 1.05l-1.7-4.65v4.65q-2.35 2.8-8.85 0l-3.65-6.15q13.35-.85 17.9-4.1m-97.7.5q6.5 7.85 6 14.25-4.8 1.55-12.1 0-2.85-1.5-4.15-4.5l-.8 4.5q-3.45 1.9-8.55 0L193.6 180q9.2-.6 15.75-2.8 4.55-1.55 7.8-3.9m-156.8-4.2-3.7 9.45-8.25.25-1.4-5-1.05 4.75q-2.85-1.5-8.3 0-1.9-7.75 1.75-18.45 5.75 5.5 12.4 7.65l2.7.7 5.85.65m203.7-187.75-3.9-40.8-19.2-48.1-2.35-12.15q22.85 35.45 31.45 65 2.1 14.1 1.3 27.3-.3 5.6-1.15 11l-6.15-2.25m-74.95-100 7.05 5.2-9 7.5-45-37-30-7 20.5 21.5-55-23 23.5 38.5-42.5-30.5L20.3-154.5l-5.3-3.15q4.45-3.25 14.25-5.85l14.4 3.45-12.9-10.45h38.4L99-161.15l-21.55-12.2.05-.65 12.85 1 29.85 13.65-7.15-6.95 15.35 3.2 61.25 45.15-.55-.7m-97.45 12.2-.2.35 15.2 10.15-53-9-26.8 13.65-8.3-2.85q9.7-15.05 31.65-18.2l41.45 5.9M66.45-76.9l8.7 2.95-32.5 13-8.1 15.5L11-47.15q5.7-10.8 23.65-22.3 17.05-7.1 31.8-7.45M216.3-14.6v-.1l10.2 7.1-1.5-8.35q7.05 5 11.75 10.35l-2.1-6.85q8.35 5.4 14.15 12l-2.15-6q8.75 1.75 14 8 .75 3.05 1.1 5.95L251.6-2.2l-.1 7.8-13.05-11.4-.25 6.85-9.6-10.4-.25 6.6L216.3-14.6m50.4 22.45q-.65-2.3-1.05-4.8l10-7.5 5.6-7.9v8.4l8.9-7 7.5-8 .5 6.75-6 5.05-15.35 11.2 2.45-6.8-12.55 10.6M12.7 108.4l4.55 2.3-7.3 4.2 5.95-1.3q-6.6 3.85-9.85 12.3l8.3-4.8q-9.25 8.65-6.2 18.35l3 13.95-6.05-13.6-2.55 9 .5-12.15Q.15 133 .65 126.9q2.4-7.6 6.6-9.3L0 120l7.2-6.45H1.75q3.35-3.25 10.95-5.15m-5.45 9.2.8-.25-.8.25" transform="translate(1 189.45)"/><path fill-rule="evenodd" fill="#eab357" d="m328.3 35.3 4.15-7.25.05.95-2.95 8.6-1.25-2.3m12 24.4q1.25-13.85 1.75-28.15l2.5-.25 2.55 20 .95 16.8-4.5-1.65 6.6 6.15.7 17.3-3.25 2.05-1.2-.4q.5-11-2.75-22l-3.35-9.85m-90.6-19.35q2.8.2 3.65 1.45-2.65.15-3.65-1.45m15.45 44.2-.9-18.25 12.25-22.65 4.35 1.45-6.35 20-4.4 3.35 3.9.55 2.1 15-4.05 2.65 6.2.65h.05l4.9 16.9q-8.65 1.9-17.4-2.1l-.25-8.6-.4-8.95m-19.8-40.25-.7 23.1 3-.9 2.85 6.2-5.3 5.5 5.35-2.15 3.2 13.3q-9.95 1.4-15.3-5.7l-1.15-7.15q-1.35-13.6 2.9-22.85 1.65-5.25 5.15-9.35" transform="translate(1 189.45)"/><path fill-rule="evenodd" fill="#fbf0b9" d="m332.5 29 .45 15.1-3.4-6.5 2.95-8.6m12.05 2.3q6.9.3 9.6 14.25 5.35 24.7.35 47.15l-.35 1.35-6.55-2.1 3.25-2.05-.7-17.3-6.6-6.15 4.5 1.65-.95-16.8-2.55-20m-95.1 8.95.25.1q1 1.6 3.65 1.45-.3 3-.35 6.1v.05q-.05 4.4.4 9.05.8 11.4 4.6 22.05l2.75 8.5q-3.75 1.35-7 1.8l-3.2-13.3-5.35 2.15 5.3-5.5-2.85-6.2-3 .9.7-23.1q1.8-2.2 4.1-4.05m31.4 4.85q2.95 1 3.6 1.5l-2.8 14.3-1.7 8.7 5.2 14.95 2.4 8.6 2.35 8.6q-3.35 1.65-6.7 2.45l-4.9-16.9h-.05l-6.2-.65L276.1 84 274 69l-3.9-.55 4.4-3.35 6.35-20" transform="translate(1 189.45)"/><path fill-rule="evenodd" fill="#dba4a4" d="M323.4 29.55q4.95 2.65 4.9 5.75l1.25 2.3 3.4 6.5 7.35 15.6 3.35 9.85q3.25 11 2.75 22l-1.25 8q.1 2.7-2.05 4l-1.7.7-5.15-.65h-.05l.05-.2-.5-.2q-9.45-4.1-13.35-10.15l-2.65 4.55Q313.9 105.45 307 108q-5.8 2.1-12.35.55l-.1-2.1-.25-1.6q-.95-3.8-4.4-3.1l-2.35-8.6 4.1-10.6L294 76.6l4.8-11.35q4.65-10.75 9.85-21.7 5-10.8 14.75-14m8.15 14.9-1.8-3.25q-2.2-4.6-6.35-6.95l-.3.1-.25.1q-.75.8-.25 1.75 4.95 9 10.7 17.8l.4.1q.75.15 1.2-.4-.7-4.9-3.35-9.25m6.4 14.6-2.4-2.35-.45-.05-.45-.05q.25 2.45 2.05 4.15l.1.25-.2.5-.15.1 1.75 3.6.35.9 1.9.6.3-.2-1-3.9-.2-.8-1.6-2.75m-6.4 33 .1.05q3.5 2.1 5.95-.05-.6-18.95-8-34-2.15-.45-3.4.65-1.85 1.65-1.6 6.85l5 25q1 .9 1.95 1.5m-31.8 2.3q1.45 3.8 7.4 3.7 8.45-15.05 11-31.75-1.2-4.9-4.5-4.85l-1 .1q-6 11.7-13.25 31.5l.35 1.3" transform="translate(1 189.45)"/><path fill-rule="evenodd" fill="#e7c2c2" d="M331.55 44.45q2.65 4.35 3.35 9.25-.45.55-1.2.4l-.4-.1q-5.75-8.8-10.7-17.8-.5-.95.25-1.75l.25-.1.3-.1q4.15 2.35 6.35 6.95l1.8 3.25m6.4 14.6 1.6 2.75.2.8 1 3.9-.3.2-1.9-.6-.35-.9-1.75-3.6.15-.1.2-.5-.1-.25q-1.8-1.7-2.05-4.15l.45.05.45.05 2.4 2.35" transform="translate(1 189.45)"/><path fill-rule="evenodd" fill="#bc5858" d="M304.6 40.05q4.65-7.45 10.05-10.15 5.4-2.75 8.75-.35-9.75 3.2-14.75 14-5.2 10.95-9.85 21.7l-.1-14.3q2.75-5.5 5.9-10.9m21.6 18.65q1.25-1.1 3.4-.65 7.4 15.05 8 34-2.45 2.15-5.95.05l-.1-.05.95-1.5-.1-.25-.55-7.45-5.65-24.15m-12.55 2.75q3.3-.05 4.5 4.85-2.55 16.7-11 31.75-5.95.1-7.4-3.7l2.75.35 1.4-2.15 2.4-5.3 5.6-15.2 1.85-7.85-.1-2.75" transform="translate(1 189.45)"/><path fill-rule="evenodd" fill="#9a3f3f" d="m326.2 58.7 5.65 24.15.55 7.45.1.25-.95 1.5q-.95-.6-1.95-1.5l-5-25q-.25-5.2 1.6-6.85m-39.5 20.9q1.8-5.6 4-11.05l.95 14-4.1 10.6-2.4-8.6 1.55-4.95m26.95-18.15.1 2.75-1.85 7.85-5.6 15.2-2.4 5.3-1.4 2.15-2.75-.35-.35-1.3q7.25-19.8 13.25-31.5l1-.1m6.1 36.15 2.65-4.55q3.9 6.05 13.35 10.15l-.1.3q-4.45.2-15.9-5.9" transform="translate(1 189.45)"/><path fill-rule="evenodd" fill="#fff" d="m295.05 9.8-1.15 11.25q-5.15 5-11.25 7.65l-3.5-9.05 8-6.1 7.9-3.75m-40.9 10q4.05 4 1.25 10-7.25-1.5-14.45-4.25l-8.15-15.1 21.35 9.35" transform="translate(1 189.45)"/><path fill-rule="evenodd" fill="#e0e0e0" d="m282.65 28.7-3 1.1-.7-.95-4.3-5.8 4.5-3.4 3.5 9.05m-41.7-3.15q-4.4-1.65-8.8-3.75-6.75-7.1-7.45-14.9l8.1 3.55 8.15 15.1" transform="translate(1 189.45)"/><path fill-rule="evenodd" fill="#ac4646" d="m298.7 50.95.1 14.3L294 76.6l-2.35 5.95-.95-14 2.4-5.8q2.55-5.95 5.6-11.8" transform="translate(1 189.45)"/><path fill-rule="evenodd" fill="#72481f" d="M30.85 85.45q-.75 1.6-1.05 3.5L28.75 90l-.05.05-.2.05q-1.8-1.7-2.6-4.75-.6-2.35-.9-4.8-.7-5.2.15-10.45l.1-.15.35-.35.05-.9q-.05-.3.05-.55l.4-.4.15-.1.3-.05.1.05.55.3.15.1q-.2 7.85 2.4 15.05l.3.5 1.1.9.1.1-.4.85m266.05 43.9 1.2.6q.35.65 0 1.3l-.15.2q-3.35.6-6.55-.75-3.55.2-6.7-.85l-1.5-.6v-.15l.1-.5q1.6-.8 3.2-1.5l1.25-.6.3-.1q.5.05.7.45l.05.15q1.8 1.3 4.7 1.5l1.75.3 1.65.55m-89.6-19.8.6.45.15.1.2-.05.25-.1.25-.05q4.45 3.45 9.45 6.2l.5.6.05.15-.05.35-.1.5-.25.15-.15.15q-6.75 1.35-11.35-4.15-1.05-1.3-2.35-1.6l-.35-.15-.25-.15-.15-.15-.05-.35.05-.5.15-.35-.4-.3q-.3-.2-.3-.55v-.15q-.05-.3.15-.45.55-.5 1.15-.6 1.5.1 2.8 1m-12-3.1.1.15q.95.6 2.65.9l.05.1v.5l-.2.35-7.6.25v-.3l.1-.35 3.55-1.65.5-.25q.5-.05.85.3m-8.95-14.8.4.5.05.15-2.9 5.6-.95.95V99l.05.35-.05.15q-1.35 1.55-3.65 1.7h-.4q-1.3-4 2.3-7.5l1.25-1.05 1.2-.85 1-.45 1.1.05.4.05.2.2m-33.7-7q-1.1.4-2.2-.3-.45-.4-.35-1.1l.05-1.1.1-.2.2-.25.2-.2.05-.2.15-.45.1-.25.2-.2.45-.45q.75-6.55 6.75-9.55l.5-.2q.95-.2 1.55.35l.25.3.1.2.05.2-.15.65-.2.2-1.45.8q-.6.3-1.1.7l-.5 1.15-.65.8-.2 1.6q-.55 2.65-2 5l-1.35 2.2-.55.3m-4.8-15.15-.65.5-2.65-.05-.25-.25-.2-.25-.05-.1q-1.25-.1-2.25-.95l-.1-.45-.05-.65q.3-.65.85-1.1l.25-.25.05-.4.1-.45q2.55-3.15 5.95-5.45.35-.2.65-.25.6-.1 1.05.35l.2.2 1.1.3q1 .3 2.05.95l.1.15.05.1q.15.55-.3 1l-.25.2-.3.25-.3 1.2-.1.1-.4.85-.45.9-.35.2-.6.2-2.2 2.2-.95.95m27.8-49.15q-5.95-1-9.3-6.5Q164 10 161.3 6.4l-.2-.5-.2-.2-.2-.2q-1.25-3.5-1.4-7.35l.1-1 .6-.5.3-.05.1.05.35.1.25.15q1.4 1.95.95 4.25l-.1.4q-.1.3.25.2l.1.15 2.05 2.8.85 1.45.75.1h.05l1.2 1.15q4.15 3.8 8.9 6.8l.7 2.8.1 1.3-.05.55-.7 1.15-.3.35h-.1" transform="translate(1 189.45)"/><path fill-rule="evenodd" fill="#cf8b47" d="M81.1-2.15q2.85 0 4.85 2.25 2 2.3 2 5.5t-2 5.45q-2 2.3-4.85 2.3-2.85 0-4.85-2.3-2-2.25-2-5.45t2-5.5q2-2.25 4.85-2.25M49 7.7q.7-.7 1.65-.7t1.6.7q.7.75.7 1.8t-.7 1.75q-.65.75-1.6.75-.95 0-1.65-.75-.65-.7-.65-1.75T49 7.7m62.75 6.5q.75-1.3 1.8-1.3t1.75 1.3q.75 1.35.75 3.25t-.75 3.2q-.7 1.35-1.75 1.35t-1.8-1.35q-.7-1.3-.7-3.2 0-1.9.7-3.25" transform="translate(1 189.45)"/><path fill-rule="evenodd" fill="#ba8021" d="M72.3 153.15h-.05v-.05l.05.05m-.05-.05v.05-.05" transform="translate(1 189.45)"/><path fill-rule="evenodd" fill="#563916" d="M151.65 161.55q-.8 6.05-.75 14.15-6.1 2.3-21-6.2l-5.5-10.3 5.25 3.85v-7.25l6.05 7.05.2-2.25 8.25 7.95V158.5l1.2 1.85-.65-4.85 6.95 6.05" transform="translate(1 189.45)"/><path stroke-width=".05" stroke-opacity=".4" stroke-linejoin="round" stroke-linecap="round" stroke="#000" fill="none" d="M300.75 186.4q11.3-19.1 14.85-58.65 4.45 5.05 7.8 10.9l1.35 2.5q7.95 15.55 8.1 36.35-9.25 23.2-25.25 33l-3.1 2.05-5.4 3.45 1.95 4.05 4.55 9.45m27.85-12 .05.95m22 63.7q.85-1.2 4.15 1.35l-.2 4.4q-.7 7.4-4.1 10.95l-.7.65 1.65 2.25m2.05 1.75-.65.1 6.65 8.95-13.85-8.45 1.6 2.4 10.15 9.35-4.75-1.3 5.65 8.45q-5.75-2.6-15.75-9.15l2.4 5.4 5.7 4.2-4.6-1.75 3.25 7.3q-22.85-13.45-30.55-15.75-3.1-.9-3.75-.05-5.05.3-9.5 3.3.75 5.6 1.1 11.1l.2 6.05v4.15q-.15 7.2-1.05 14.2l5.25 10.25 4.4 9.2m-8.1 1.05-1.7-4.65v4.65m-8.85 0-3.65-6.15q-3.55-7.55-7.9-15.1-5.55-9.55-12.5-19.05l-.15-.2-10.75 16.5v-16.35l-1.6 5.75m-.05.3-2.25 8 .1-6.7.05-2.5-4.75 10-6 9.8-.4-10.5-2.25 4.65 1.2-17.65-6.95 13.2-3.3 10.85-.25-5.4-6.05 7.55V348l-3.7 3.35-5 9.35 1.8-6.45-3.6 3.25 6-25-13.85 5.25-.25.95q-.6 3.15 1.6 11.4l-4.85-1.6h-.15l.05.1q5.3 8.6 5.95 14.15 6.5 7.85 6 14.25m-16.25-4.5-.8 4.5m-8.55 0-3.95-7.55q-4.75-12.05-13.75-22.85l-.75 2.75 2.1 2.9-2.7-.75-1.35 5-5.9-4.45-.15 3.3-2.4-5.2-9.55-7.15v14.5l-7.5-6.5q-.8 6.05-.75 14.15l1.15 6m-7.2-.45-1.95-3.15.5 3.35m-8.8-1.3q.2-4.5-4.7-10.65l-5.5-10.3-2.7-2-1 5.35-2.35-7.8-7.7-5.7v.65l6.55 11.95-6.55-6.2v7.1l-8.6-6 .3 5.85-5.3-9.3-10.45-7.7q-5 2.3-10.2 8.45-.2-.6-4.1-.7h-.05v-.05l-.1-.05-.55.9-11.25 15.15-3.7 9.45m-8.25.25-1.4-5-1.05 4.75m-8.3 0q-1.9-7.75 1.75-18.45 4.45-21.8 3.75-48.55-8.85-14.05-12.3-26.1m-2.15 4.6q-3.55 8.75-5.5 17l3.7-.6-2.55 2.95q5 1.3 9.3 7.15H29.4q3.25 3 3.35 5.95l-6.15-4.85q3.75 5.7 5.05 12.9l-1.9 6.5q2.45 3.7 2.2 9.35l.3.6m207.9-174q.15 4.55 9.65 6.05l5.35.5h.5m-214-2.5-2 7-12 42v41.6M257.9 169h2.25l4.9 1.8m-23.1-88.9 3.65 34.95q-6.45-25.25-13.95-47.35-16.5-28-47-56Q172 3.6 137.65 1l52.45 69.8.55.7-61.25-45.15-15.35-3.2 7.15 6.95-29.85-13.65-12.85-1m-57.2 19.5L70.65 64.5l22 18.5-41.45-5.9q-21.95 3.15-31.65 18.2l8.3 2.85 42.3 14.35-2.7.05q-14.75.35-31.8 7.45Q17.7 131.5 12 142.3l23.55 1.7 8.2.6-23.1 18.4q-7.4 16.3-4.45 29.8l23.45-19.3m177.65 1.35v-.1l10.2 7.1-1.5-8.35q7.05 5 11.75 10.35l-2.1-6.85q8.35 5.4 14.15 12l-2.15-6q8.75 1.75 14 8 .75 3.05 1.1 5.95 1.1 8.35-1.1 15.05l-6.5-2.75-21.35-9.35-8.1-3.55-7.55-2.85q-.6-3.25-.9-6.5m50.55 10.65-.1-.35q-.65-2.3-1.05-4.8l10-7.5 5.6-7.9-11.05-4.05-6.15-2.25m7.3-8.75q-.3 5.6-1.15 11m12.4 4.5-1.35-.45v8.4l8.9-7q-2.9-18.75-12-37.5l-8.1-6.25q2.1 14.1 1.3 27.3m18.8 16.45h-5l-2.55-.95m15.55-.3q.55 4.8 1.6 9.15l3.4 11.1h-1.45q-4.9-.05-6.65 1.75l-7.9 3.75-8 6.1-4.5 3.4 4.3 5.8.7.95 2 3 .5.75 2.9 1.5.3.15q5.7 2.75 11.15 3.95l8.1.9m-6.45-52.25-.5-6.75-7.5 8m57.45 102.9 6.55 2.1.35-1.35m-6.9-.75-1.2-.4m-1.25 8 8.45 10.45.05.05m-79-87q-5.45-6.1-7.85-14.85m-50.5-22.8q-.55 6.15-.05 12.15m33.2 42.7.25.1m11.85 41.4 3.6 2.8m-11.4 4.8q3.25-.45 7-1.8m22.45 16.65q3.35-.8 6.7-2.45 3.45-.7 4.4 3.1l.25 1.6m-34.8-10.5q2.95-2.1 5.8-2.45m54.2 4.1 2.65-4.55m13.35 10.15.5.2m-.05.2h.05m-29.25 4.4q-5.8 2.1-12.35.55l-.1-2.1m-34.8-10.5q-2.05 1.4-4.1 3.6m10.15 2.55q8.75 4 17.4 2.1m-70.05 41.1 1.65 3m82.15 28.6q13.35-.85 17.9-4.1m20.8-69.3.6-.1m-.6.1.55.1m-29.2 4.4q6.9-2.55 12.75-10.4M78.45 16.1 100 28.3l-29.85-9.35h-38.4l12.9 10.45-14.4-3.45q-9.8 2.6-14.25 5.85l5.3 3.15m249.75 99.8q-8.6-29.55-31.45-65l2.35 12.15m-1.15 77.65q-.75 1.6-.65 2.9M77.35 15.35l1.15.1M27.1 257.2l.55-1.2m-1 2.15q-7.45 16.55-7.8 37.05l2.2 1.55.9.25 2.25-.5m46.5 36.05-5.05 1.75m144.7 32.35q4.55-1.55 7.8-3.9M18.85 295.2l-4.75-3 2.45 4.6-2.85 1.05q-7.6 1.9-10.95 5.15H8.2L1 309.45l7.25-2.4q-4.2 1.7-6.6 9.3-.5 6.1 2.4 9.75l-.5 12.15 2.55-9 6.05 13.6.5 1.15v-13.5q1.55 8.15 5.5 14.5 4.45-8.85 6-19v19.5q4.05-6 4.6-15.55l3.2 5.9M9.05 306.8l-.8.25m65 35.5v-.05m0 .1v-.05M52.8 357.2l2.7.7 5.85.65m-8.55-1.35q-6.65-2.15-12.4-7.65m21.75-9.75 1.1-1.75M228.5 267.2l.15-1.25m10.8 7.15q5.35 7.1 15.3 5.7m-22.2 4.85 2.1 2.35M87.6 334.85q1.35-10.05 7.55-10.85 11.2 6.6 40 14 17-4.45 40.5 0l.3.45 4.9 8.15m-55.45 2.05 5.25 3.85v-7.25l6.05 7.05.2-2.25 8.25 7.95v-10.05l1.2 1.85-.65-4.85 6.95 6.05m-21.75 7.95q14.9 8.5 21 6.2m62.25-30.4-.15-.25m-1.8 13.95.1.05m-8.25-.85.7 4.05m5.3-4.3-2.75-1.4m3.05 20.65q-6.55 2.2-15.75 2.8"/><path stroke-width=".05" stroke-linejoin="round" stroke-linecap="round" stroke="#442d11" fill="none" d="m255.15 168.95-2.75-5.4m2.75 5.45v-.05m-41.1 165.45.1.35 1.4 3.95m-49.6-16.85 6.8 11.3m2.9 4.85-2.9-4.85m41.3 1.25-.45-1.3-1.25-6.4m-36.4 11.75-.3-.45"/><path stroke-width="1.5" stroke-linejoin="round" stroke-linecap="round" stroke="#eab357" fill="none" d="m329.3 224.75 4.15-7.25m.05.95.45 15.1m7.35 15.6q1.25-13.85 1.75-28.15l2.5-.25q6.9.3 9.6 14.25 5.35 24.7.35 47.15M250.7 229.8q2.8.2 3.65 1.45-.3 3-.35 6.1M266.15 274l-.9-18.25 12.25-22.65 4.35 1.45q2.95 1 3.6 1.5l-2.8 14.3M259 268.5q-3.8-10.65-4.6-22.05-.45-4.65-.4-9.05v-.05m-3.55-7.65q-2.3 1.85-4.1 4.05m15.4 43.25-2.75-8.5m-8.3-38.7q1 1.6 3.65 1.45m36.55 59.95-2.35-8.6-2.4-8.6-5.2-14.95 1.7-8.7m-16.1 32.6-.4-8.95m.4 8.95.25 8.6m-28.5-25.6q-1.35-13.6 2.9-22.85 1.65-5.25 5.15-9.35m-8.05 32.2 1.15 7.15"/><path stroke-width=".05" stroke-linejoin="round" stroke-linecap="round" stroke="#dba4a4" fill="none" d="M324.4 219q4.95 2.65 4.9 5.75m4.65 8.8 7.35 15.6m-10.75-22.1 3.4 6.5m-3.4-6.5-1.25-2.3M347.4 281q.5-11-2.75-22l-3.35-9.85"/><path stroke-width=".05" stroke-linejoin="round" stroke-linecap="round" stroke="#bc5858" fill="none" d="M305.6 229.5q4.65-7.45 10.05-10.15 5.4-2.75 8.75-.35m8.15 62.5.1.05q3.5 2.1 5.95-.05-.6-18.95-8-34-2.15-.45-3.4.65m5.35 33.35q-.95-.6-1.95-1.5l-5-25q-.25-5.2 1.6-6.85M347.4 281l-1.25 8m-40.55-59.5q-3.15 5.4-5.9 10.9m.1 14.3q4.65-10.75 9.85-21.7 5-10.8 14.75-14m-36.7 50.05q1.8-5.6 4-11.05l2.4-5.8q2.55-5.95 5.6-11.8m1.05 43.4q1.45 3.8 7.4 3.7 8.45-15.05 11-31.75-1.2-4.9-4.5-4.85m-13.9 32.9-.35-1.3q7.25-19.8 13.25-31.5l1-.1m-14.85 3.8-4.8 11.35-2.35 5.95-4.1 10.6m34.85-.1q3.9 6.05 13.35 10.15m.5.4 5.15.65 1.7-.7q2.15-1.3 2.05-4m-58.45-19.95-1.55 4.95m34.6 13.05q11.45 6.1 15.9 5.9"/><path stroke-width="2" stroke-linejoin="round" stroke-linecap="round" stroke="#442d11" fill="none" d="m296.05 199.25-1.15 11.25q-5.15 5-11.25 7.65l-3 1.1m-25.5-10q4.05 4 1.25 10-7.25-1.5-14.45-4.25-4.4-1.65-8.8-3.75-6.75-7.1-7.45-14.9"/><path stroke-width=".05" stroke-linejoin="round" stroke-linecap="round" stroke="#b16f2e" fill="none" d="M282.65 222.25q-11.35-.4-17 6.75m31.85-.4q-8.95 5.35-9.6 14.9"/><path stroke-linejoin="round" stroke-linecap="round" stroke="#72481f" fill="none" d="m251.35-26-11.7-22.95-19.5-24.5-13.5 19.5-16-31.5h-23.5l-43 18.5 9.5-18-28 7-14.5 23.5-9-23.5-22 36v-19l-19.5 38M258 79.05l3.55 2.7m-5.9 17.8q-1.4 5.65 0 10m30.85 17.55.65-1.05M127.95 87.3q-29.2-36.1-22-79.7m203.3 143.2-5.2-2.7 1.45 7.05-4.75-4.55 2.05 6.2-6.2-8.3M71.15 42.05l.85 6.9Q77.2 81 105.85 97.5l4.8 2.55m-46 44.8 5.05-7.1m2.55 15.3-.8-6.35-3.95 1.7 1-2.35 1.2-2.95m-8.55 7.25-2.65 4.15 5.9-2.15-3 4.75 10.2-3.15M231.55 94.2l-.65-.9q-4.55-6.55-3.4-15.55m.15-1.25h9.65M87.9 34.25l-.25-5.2m.25 5.2q2.45 33.55 28.9 60m92.25 63.7 2.15 1.05m-7.45 3.25-7.45-10m10 4.3 2.95 6.5-6.2-4.85m-85.1-62.85q4.3 4.2 9.2 8.2" transform="translate(1 189.45)"/><path stroke-width="2" stroke-linejoin="round" stroke-linecap="round" stroke="#72481f" fill="none" d="m288.15 315.5-37-7.5h-28l-13.6-9.1-1.25.1m-4.1.2-8.8.5 6.75-3.4-5.85-.4m-1.35-.05h-3.1l-7.3 3.55 3.25-3.4-9.65 1 12-16.5-2.8.6m-3.9 1q-2.9.85-5.7 2.05l-10.7 13.05 2.7-8.95q-4.7 2.9-9.1 6.75l6.5-15q-10.55.7-20 11.5 2.3-8.55 6.5-17.4m7.75-14.1 2.25-3.5-21.5 14q2.35-6.15 6.7-11.55m4-9.25-7.7-4.2q15.6-.45 23.5-10.5l8-25.2m-15.25-23.7q-1.95-6.35-3.1-12.95M297.9 318.8l3.15 1.05 3.05-.45q3.35-.85 6.25-2.9m-14.1 1.75-8.1-2.75m8.1 2.75 1.65.55M162.95 190.6l.25.75m2.05 2.8 1.6 1.55m1.25 1.15q4.15 3.6 8.55 5.9l1.95.95 4.85 3.65 2.2 1.65 8.35-1.35m-23.2-81.3q-7.3 3.9-13.65 17.65-1.3 15.2 1.15 29.15m12.5-46.8 1.85-.85q18.3 52.5 33 61m-27.95 19.95.9-2.75m-24.7 49.85 2.25-2.05-1.1-.6m2.5 15.7 2.45-4.25"/><path stroke-width=".05" stroke-linejoin="round" stroke-linecap="round" stroke="#996128" fill="none" d="m210.3 319.4-2.05-2.25m68.8 13.7 12.4-1.65 9.3-.35m-128.8 4.25-4-11.25m44.35-2.45 2.75 3 .4 6.3-.15 1.4m-44.4 4.4 1.05-1.4"/><path stroke-width=".05" stroke-linejoin="round" stroke-linecap="round" stroke="#333" fill="none" d="M320.25 371.45q-.85 3.75-8.1 1.05m-1.7 0q-2.35 2.8-8.85 0m-77.45 4.5q-4.8 1.55-12.1 0-2.85-1.5-4.15-4.5m-.8 4.5q-3.45 1.9-8.55 0m-45.5-5.85q-.95 2.05-7.2-.45m-1.45.2q-1.7 2-8.8-1.3M57.65 368l-8.25.25m-2.45-.25q-2.85-1.5-8.3 0"/><path stroke-width="2" stroke-linejoin="round" stroke-linecap="round" stroke="#442d11" fill="none" d="M37.45 367.15q-.7-6.9 2.95-17.6 4.45-21.8 3.75-48.55-8.85-14.05-12.3-26.1-.75 1.6-1.05 3.5l-1.05 1.05-.05.05q-3.55 8.75-5.5 17l3.7-.6-2.55 2.95q5 1.3 9.3 7.15H29.4q3.25 3 3.35 5.95l-6.15-4.85q3.75 5.7 5.05 12.9l-1.9 6.5q2.45 3.7 2.2 9.35l-3.2-5.9q-.55 9.55-4.6 15.55V326q-1.55 10.15-6 19-3.95-6.35-5.5-14.5V344L6.1 329.25l-2.55 9 .5-12.15q-2.9-3.65-2.4-9.75 2.4-7.6 6.6-9.3L1 309.45 8.2 303H2.75q3.35-3.25 10.95-5.15l2.85-1.05-2.45-4.6 4.75 3q.35-20.5 7.8-37.05-.05-.3.05-.55l.4-.4.55-1.2v-40.5l12-42-23.45 19.3q-2.35-10.9 2-23.55 1-3.1 2.45-6.25l23.1-18.4L12 142.3q3.35-6.4 11.05-13.05 5.3-4.55 12.6-9.25 17.05-7.1 31.8-7.45l2.7-.05-50.6-17.2q9.7-15.05 31.65-18.2L92.65 83l-22-18.5L16 31.8q4.45-3.25 14.25-5.85l14.4 3.45-12.9-10.45h38.4L100 28.3 78.45 16.1l.05-.65 12.85 1L121.2 30.1l-7.15-6.95 15.35 3.2 61.25 45.15-53-70.5q34.35 2.6 47 12.5 30.5 28 47 56 7.5 22.1 13.95 47.35l-3.65-34.95-2.35-12.15q22.85 35.45 31.45 65l8.1 6.25q9.1 18.75 12 37.5l7.5-8 .5 6.75q.55 4.8 1.6 9.15 11.3-19.1 14.85-58.65 4.45 5.05 7.8 10.9l1.35 2.5q7.95 15.55 8.1 36.35-9.25 23.2-25.25 33l-8.5 5.5 6.5 13.5q4.65-7.45 10.05-10.15 5.4-2.75 8.75-.35 4.95 2.65 4.9 5.75l4.15-7.25.5 16.05 7.35 15.6q1.25-13.85 1.75-28.15l2.5-.25q6.9.3 9.6 14.25 5.35 24.7.35 47.15.85-1.2 4.15 1.35l-.2 4.4q-.7 7.4-4.1 10.95l-.7.65 1.65 2.25 3.95 1.7-2.55.15 6.65 8.95-13.85-8.45 1.6 2.4 10.15 9.35-4.75-1.3 5.65 8.45q-5.75-2.6-15.75-9.15l2.4 5.4 5.7 4.2-4.6-1.75 3.25 7.3q-22.85-13.45-30.55-15.75-3.1-.9-3.75-.05-5.05.3-9.5 3.3.75 5.6 1.1 11.1l.2 6.05v4.15q-.15 7.2-1.05 14.2l9.65 19.45m-8.1 1.05-1.7-4.65v4.65m-8.85 0-3.65-6.15q-3.55-7.55-7.9-15.1-5.65-9.65-12.65-19.25l-10.75 16.5v-16.35l-3.9 14.05.15-9.2-4.75 10-6 9.8-.4-10.5-2.25 4.65 1.2-17.65-6.95 13.2-3.3 10.85-.25-5.4-6.05 7.55V348l-3.7 3.35-5 9.35 1.8-6.45-3.6 3.25 6-25-13.85 5.25q-1.2 2.7 1.35 12.35l-4.9-1.6-.05-.05-.05.05.05.1q5.3 8.6 5.95 14.15 6.5 7.85 6 14.25m-25.6 0-3.95-7.55q-4.75-12.05-13.75-22.85l-.75 2.75 2.1 2.9-2.7-.75-1.35 5-5.9-4.45-.15 3.3-2.4-5.2-9.55-7.15v14.5l-7.5-6.5q-.8 6.05-.75 14.15l1.15 6m-7.2-.45-1.95-3.15.5 3.35m-8.8-1.3q.2-4.5-4.7-10.65l-5.5-10.3-2.7-2-1 5.35-2.35-7.8-7.7-5.7v.65l6.55 11.95-6.55-6.2v7.1l-8.6-6 .3 5.85-5.3-9.3-10.45-7.7q-5 2.3-10.2 8.45-.2-.6-4.1-.7h-.05v-.05l-.1-.05-.55.9-11.25 15.15-3.7 9.45m-8.25.25-1.4-5-.75 4.45"/><path stroke-width="2" stroke-linejoin="round" stroke-linecap="round" stroke="#525252" fill="none" d="M320.25 371.45q-.85 3.75-8.1 1.05m-1.7 0q-2.35 2.8-8.85 0m-77.45 4.5q-4.8 1.55-12.1 0-2.85-1.5-4.15-4.5l-.8 4.5q-3.45 1.9-8.55 0m-45.5-5.85q-.95 2.05-7.2-.45m-1.45.2q-1.7 2-8.8-1.3M57.65 368l-8.25.25m-2.15-.55-9.8-.55"/><path stroke-width=".05" stroke-linejoin="round" stroke-linecap="round" stroke="#000" fill="none" d="m336.65 292.95.55.1.05-.2-.5-.2-.1.3"/></g><path fill-rule="evenodd" fill-opacity="0" fill="#f0f" d="M0 0h102.95v45H0V0" id="a"/><use xlink:href="#a" width="102.95" height="45" id="d"/></defs><path fill="none" d="M-1-1h347v360H-1z"/><g transform="scale(2)"><use x="88.05" y="187.5" xlink:href="#b" width="381" transform="translate(-192.55 -294)" height="381"/><use x="221.512" y="-225.772" xlink:href="#c" width="365.35" transform="matrix(-.4695 0 0 .4695 275.92 106.804)" height="378.95"/><use x="68.071" y="158.415" xlink:href="#d" width="102.95" transform="matrix(1.2935 0 0 1.1836 -97.95 -119.65)" height="45"/></g></svg>