<svg width="171" height="149" xmlns="http://www.w3.org/2000/svg" xmlns:xlink="http://www.w3.org/1999/xlink"><defs><g id="b" stroke-opacity="0" stroke-linejoin="round" stroke-linecap="round" stroke="#f0f" fill="none"><path d="M187.95-293.5v380h-380v-380h380M92.95.6H-97" transform="translate(192.55 294)"/><path d="m187.95-293.5-190 190 190 190m-380-380 190 190L-192 86.5" transform="translate(192.55 294)"/></g><g id="c"><path fill-rule="evenodd" d="m1.9 0 10.2 8.7 6.4 15.55 3.9 6.35-.15 9.55-3.5-.5.95-6.1L0 20.75Q6.15 15.35 1.9 0"/><path fill-rule="evenodd" fill="#a89a6f" d="M35.5 61.65 34 60.4l-.15-.15h1.5q-.45.25.3 1.2l-.15.2m1.05-1.4h.95l.05.05-.15.15-.85-.2"/><path fill-rule="evenodd" fill="#a19b61" d="m40.15 68.45-.45 1.15v.05h-.8l.75-2.15.55.5-.15.35-.05.05.15.05m-1.25 2.9.1.3v1l-.75.75-.25-.5.1-1.65.35.05.3.1.15-.05m0-3.65-1.95 1.9-.65-.2 1.3-1.75.05-.15-.05-.15v-.05l.75-.15.55.55m-3.25 3.25-.65.7-.75.5-1 .25.25-1 1-1 .8-.3-.3.55.65.3m.55-3.65v.05l-1.7 2.05v-.5l-.5-.1.1-.1 1.4-1.75.05-.1.45-.5.25.65v.25l-.05.05m-3.15 3.2-.55.4-.75.25-1 1-.25-.5.25-1L32 69.9l.65-.25.1-.05v.8l.3.1m1.4-4-2.75 1.85-.1-.25-.1-.45 2.95-2.15q.4.3.3.5l-.15.35-.15.15M29 69.9l-1.5 1 .25-1 1.25-1 .6-.3.15.8-.75.5m9.2-5.8-.8-.75.8.75.3.3-.3-.3m-2.55-2.55-.05-.05h.05l.05.05.4.3-.15.15-.1-.1-.2-.35"/><path fill-rule="evenodd" fill="#d9cebf" d="m36 62.05-.5-.4.15-.1.2.35.1.1.05.05"/><path fill-rule="evenodd" fill="#bdb592" d="M35.35 60.25h1.2l.85.2h.25l.35.45.85.95.5.55.45.45.3.35.25.3.15.15.3.25.35.25.15-.1q.25-.45.45-.4h.1q.55.1.9.5l.25.25.1.1.15.4-.75.7.25.8-.25.5-.35.1-.4.1-.65.45-.1.1-.5.65-.35.15-.1-.1.15-.35-.55-.5-.4.4-.35-.2-.55-.55-.75.15v.05l.05.15-.05.15-.45.05q-.75 0-.9-.3l-.05-.1.05-.05V67l-.25-.65-.45.5-.5-.2H35l-.35-.2-.05-.1.15-.35q.1-.2-.3-.5l.55-.35 1.75-.5 1.45-.55.3.3-.3-.3-.8-.75-.25-.2-.3-.3-.85-.8-.05-.05.15-.15-.4-.3-.05-.05h-.05l.05-.05q-.75-.95-.3-1.2m7.15 5.35-.5.3-1.25-.25-1.75.5q-.85-.15-1.25-.5-.2-.2.15-.35l.35-.15.25-.75-.25.75-.35.15q-.35.15-.15.35.4.35 1.25.5l1.75-.5 1.25.25.5-.3"/><path fill-rule="evenodd" fill="#544630" d="m35.5 61.65.15-.2-.05.05.05.05-.15.1"/><path fill-rule="evenodd" fill="#c5c5c5" d="m34.85 62.55-.2.05.3-.1-.1.05"/><path fill-rule="evenodd" fill="#81784e" d="m41 63.75-.05-.15-.2-.45-.15-.4-.6-1.1-1.1-1.4h1l.1.1 1.25 2.05.6 1.2-.1.05q-.2-.05-.45.4l-.15.1-.15-.4"/><path fill-rule="evenodd" fill="#b4a881" d="m37.55 60.3.1.15h-.25l.15-.15"/><path fill-rule="evenodd" fill="#dadada" d="m40.8 63.9.2-.15.15.4-.35-.25m1.05-.3v.05h-.1l.1-.05m-9.2 6.05-.45-.2.65-.55.1-.05-.2.75v.05-.05l-.1.05m.95-.9.3-.05h.2l-.1.1-.4-.05m1.9-1.8-.45-.3.5.2-.05.1m-.85-.5-.2.05.15-.15.05.1M31 69.4l-.05.1-.85.25-1 .15H29l.75-.5H31m6.15-6.25-.25.05-.15-.3.1-.05.3.3m-7.4 6.25h.05-.05"/><path fill-rule="evenodd" fill-opacity=".231" fill="#660" d="m40.6 63.4.05.05.1.2h-.1l-.05-.2v-.05"/><path fill-rule="evenodd" fill="#e2dacb" d="m38.1 71.25-.25-.1.6.15-.35-.05m-6.4-2.9.05.3-.15-.55.1.25m9.45-4.2.15-.1-.15.1"/><path fill-rule="evenodd" fill="#81754e" d="M39.7 69.65h.05v1.25q-.45.2-.85.45l-.15.05-.3-.1-.6-.15h-.1v-1l.75-.5h1.2m-2.75-.05.05.05-.25 1-.75.5-.35-.2-.65-.3.3-.55.2-.45.75-.25h.05l.65.2m-2.45-.2v.5l-1 .75-.45-.15-.3-.1v-.8l.2-.75.05-.2.6.1.4.05.5.1v.5m-2.75-.75q.1.55-.25.75h-1.75l-.15-.8-.1-.45.5-.5h1.5l.1.45.15.55"/><path stroke-width=".05" stroke-opacity=".322" stroke-linejoin="round" stroke-linecap="round" stroke="#600" fill="none" d="M35.5 61.65 34 60.4l-.15-.15m3.65 0 .05.05.1.15.35.45.85.95.5.55.45.45.3.35.25.3.15.15.3.25m.2-.15-.05-.15-.2-.45-.15-.4-.6-1.1-1.1-1.4m1 0 .1.1 1.25 2.05.6 1.2v.05q.55.1.9.5l.25.25.1.1.15.4-.75.7.25.8-.25.5-.35.1-.4.1-.65.45-.1.1-.5.65-.35.15-.45 1.15v.05h.05v1.25q-.45.2-.85.45l.1.3v1l-.75.75-.25-.5.1-1.65-.25-.1h-.1v-1l.75-.5h.4l.75-2.15-.4.4-.35-.2-.55-.55-.75.15v.05l.05.15-.05.15-.45.05q-.75 0-.9-.3l-.05-.1v.05l-1.7 2.05v.5l-1 .75-.45-.15-.55.4-.75.25-1 1-.25-.5.25-1L32 69.9l.65-.25m4.3-.05.05.05-.25 1-.75.5-.35-.2-.65.7-.75.5-1 .25.25-1 1-1 .8-.3.2-.45.75-.25h.05l1.3-1.75m-4.65 1.2.05-.2.6.1m.5-.05 1.4-1.75.05-.1-.5-.2H35l-.35-.2-.05-.1.15-.35q.1-.2-.3-.5l.55-.35 1.75-.5 1.45-.55-.8-.75-.25-.2-.3-.3-.85-.8-.5-.4m-1.05 4.85-2.75 1.85.05.3q.1.55-.25.75H31m-2 .5-1.5 1 .25-1 1.25-1 .6-.3-.1-.45.5-.5h1.5l2.95-2.15m4.05-1.1-.3-.3m3.1-.05q.25-.45.45-.4h.1m-.55.4-.15.1-.35-.25m.35.25-.15-.4m-9.4 4.35-.1-.45m-1.75 1.75-.15-.8m.2.8h-.05l-.75.5m.75-.5H31m7.5-5-.25.75-.35.15q-.35.15-.15.35.4.35 1.25.5l1.75-.5 1.25.25.5-.3m-6.95 1.25.45-.5.25.65v.25l-.05.05m.75 2.3-.65-.2m3.85-.95L40 68.4l.05-.05.15-.35-.55-.5m.05 2.15h-.8m-4.3-3.3-.15.15m-2.75 1.85-.1-.25m1.15 1.55v-.05l-.1.05m.1-.05.2-.75M34 68.8l.1-.1m.4.7v-.5l-.5-.1-.4-.05m1.7 1.35-.3.55.65.3m-2.9-1.3v.75l.3.1m5.85.85-.15.05-.3-.1-.35-.05"/></g><g id="d"><path fill-rule="evenodd" fill="#544630" d="M8 1.4 6.5.15 6.35 0h1.5q-.45.25.3 1.2L8 1.4M9.05 0H10l.05.05L9.9.2 9.05 0"/><path fill-rule="evenodd" fill="#544630" d="m12.65 8.2-.45 1.15v.05h-.8l.75-2.15.55.5-.15.35-.05.05.15.05m-1.25 2.9.1.3v1l-.75.75-.25-.5.1-1.65.35.05.3.1.15-.05m0-3.65-1.95 1.9-.65-.2 1.3-1.75.05-.15-.05-.15v-.05l.75-.15.55.55M8.15 10.7l-.65.7-.75.5-1 .25.25-1 1-1 .8-.3-.3.55.65.3m.55-3.65v.05L7 9.15v-.5l-.5-.1.1-.1L8 6.7l.05-.1.45-.5.25.65V7l-.05.05m-3.15 3.2-.55.4-.75.25-1 1-.25-.5.25-1 1.25-.75.65-.25.1-.05v.8l.3.1m1.4-4L4.2 8.1l-.1-.25L4 7.4l2.95-2.15q.4.3.3.5l-.15.35-.15.15M1.5 9.65l-1.5 1 .25-1 1.25-1 .6-.3.15.8-.75.5m9.2-5.8-.8-.75.8.75.3.3-.3-.3m-2.25-2.1-.1-.1-.2-.35-.05-.05h.05l.05.05.4.3-.15.15"/><path fill-rule="evenodd" fill="#544630" d="M8.5 1.8 8 1.4l.15-.1.2.35.1.1.05.05"/><path fill-rule="evenodd" fill="#544630" d="M7.85 0h1.2l.85.2h.25l.35.45.85.95.5.55.45.45.3.35.25.3.15.15.3.25.35.25.15-.1q.25-.45.45-.4h.1q.55.1.9.5l.25.25.1.1.15.4-.75.7.25.8-.25.5-.35.1-.4.1q-.45.15-.65.45l-.1.1-.5.65-.35.15-.1-.1.15-.35-.55-.5-.4.4-.35-.2-.55-.55-.75.15v.05l.05.15-.05.15-.45.05q-.75 0-.9-.3l-.05-.1.05-.05v-.25L8.5 6.1l-.45.5-.5-.2H7.5l-.35-.2-.05-.1.15-.35q.1-.2-.3-.5l.55-.35 1.75-.5 1.45-.55.3.3-.3-.3-.8-.75-.25-.2-.3-.3-.85-.8-.05-.05.15-.15-.4-.3-.05-.05H8.1l.05-.05Q7.4.25 7.85 0M15 5.35l-.5.3-1.25-.25-1.75.5q-.85-.15-1.25-.5-.2-.2.15-.35l.35-.15.25-.75-.25.75-.35.15q-.35.15-.15.35.4.35 1.25.5l1.75-.5 1.25.25.5-.3"/><path fill-rule="evenodd" fill="#544630" d="m8 1.4.15-.2-.05.05.05.05-.15.1m-.65.9-.2.05.3-.1-.1.05m6.15 1.2-.05-.15-.2-.45-.15-.4-.6-1.1L11.4 0h1l.1.1 1.25 2.05.6 1.2-.1.05q-.2-.05-.45.4l-.15.1-.15-.4M10.05.05l.1.15H9.9l.15-.15"/><path fill-rule="evenodd" fill="#544630" d="m13.3 3.65.2-.15.15.4-.35-.25m1.05-.3v.05h-.1l.1-.05M5.15 9.4l-.45-.2q.4-.4.65-.55l.1-.05-.2.75v.05-.05l-.1.05m.95-.9.3-.05h.2l-.1.1-.4-.05M8 6.7l-.45-.3.5.2-.05.1m-.85-.5-.2.05.15-.15.05.1M3.5 9.15l-.05.1-.85.25-1 .15h-.1l.75-.5H3.5M9.65 2.9l-.25.05-.15-.3.1-.05.3.3m-7.4 6.25h.05-.05"/><path fill-rule="evenodd" fill-opacity=".231" fill="#544630" d="m13.1 3.15.05.05.1.2h-.1l-.05-.2v-.05"/><path fill-rule="evenodd" fill="#544630" d="m10.6 11-.25-.1.6.15-.35-.05M4.2 8.1l.05.3-.15-.55.1.25m9.6-4.3-.15.1.15-.1"/><path fill-rule="evenodd" fill="#544630" d="M12.2 9.4h.05v1.25q-.45.2-.85.45l-.15.05-.3-.1-.6-.15h-.1v-1l.75-.5h1.2m-2.75-.05.05.05-.25 1-.75.5-.35-.2-.65-.3.3-.55.2-.45.75-.25h.05l.65.2M7 9.15v.5l-1 .75-.45-.15-.3-.1v-.8l.2-.75.05-.2.6.1.4.05.5.1v.5M4.25 8.4q.1.55-.25.75H2.25l-.15-.8L2 7.9l.5-.5H4l.1.45.15.55"/><path stroke-width=".05" stroke-opacity=".322" stroke-linejoin="round" stroke-linecap="round" stroke="#544630" fill="none" d="M8 1.4 6.5.15 6.35 0M10 0l.05.05.1.15.35.45.85.95.5.55.45.45.3.35.25.3.15.15.3.25m.2-.15-.05-.15-.2-.45-.15-.4-.6-1.1L11.4 0m1 0 .1.1 1.25 2.05.6 1.2v.05q.55.1.9.5l.25.25.1.1.15.4-.75.7.25.8-.25.5-.35.1-.4.1q-.45.15-.65.45l-.1.1-.5.65-.35.15-.45 1.15v.05h.05v1.25q-.45.2-.85.45l.1.3v1l-.75.75-.25-.5.1-1.65-.25-.1h-.1v-1l.75-.5h.4l.75-2.15-.4.4-.35-.2-.55-.55-.75.15v.05l.05.15-.05.15-.45.05q-.75 0-.9-.3l-.05-.1v.05L7 9.15v.5l-1 .75-.45-.15-.55.4-.75.25-1 1-.25-.5.25-1 1.25-.75.65-.25.1-.05.2-.75.05-.2.6.1m3.35.85.05.05-.25 1-.75.5-.35-.2-.65.7-.75.5-1 .25.25-1 1-1 .8-.3.2-.45.75-.25h.05l1.3-1.75M6.6 8.45 8 6.7l.05-.1.45-.5.25.65V7l-.05.05M7.55 6.4H7.5l-.35-.2-.05-.1.15-.35q.1-.2-.3-.5l.55-.35 1.75-.5 1.45-.55-.8-.75-.25-.2-.3-.3-.85-.8-.5-.4M6.95 6.25 4.2 8.1l.05.3q.1.55-.25.75h-.5m-2 .5-1.5 1 .25-1 1.25-1 .6-.3L2 7.9l.5-.5H4l2.95-2.15M11 4.15l-.3-.3m2.95.05-.15-.4m.15.4-.35-.25m.5.15-.15.1m.15-.1q.25-.45.45-.4h.1M4.1 7.85 4 7.4M2.25 9.15H3.5m-1.2 0h-.05l-.75.5m.75-.5-.15-.8m8.9-4.2-.25.75-.35.15q-.35.15-.15.35.4.35 1.25.5l1.75-.5 1.25.25.5-.3m-5.55 4-.65-.2m3.85-.95-.15-.05.05-.05.15-.35-.55-.5m.05 2.15h-.8M7.1 6.1l-.15.15m1.1.35-.5-.2M4.2 8.1l-.1-.25M5.25 9.4v-.05M7 9.15v-.5l-.5-.1-.4-.05m.4.05.1-.1m1.2 1.4-.3.55.65.3m-2.9-1.3v.75l.3.1m5.4.8L10.6 11m.8.1-.15.05-.3-.1"/></g><g id="e"><path fill-rule="evenodd" fill="#fffdea" d="M39.75 11.2 8.5 17.9q12.2-9.35 27.45-7.35l3.8.65m-33 9.85 4.25 1.1 1.6 3.35-7.8-3.35 1.95-1.1M44.9 23.9 18.05 26l24.65-8.15 1 3.5v-.9l1.2 3.45M14.2 40.5l2.35 2.15.95 1.3q-.65 3.05 2.55 5.9l1.6 1.3-4.6-.95-2.9-3.1 1.15-3.55-.75-.95-1 1.05.1 1.5-1-1.45-3.5 1.35 1.55-2.75-2.55 1.4-.3 2-5.55 1.55-.45-.1-.1-.35 3.7-2.45-.8-.85.15-.05 3.3-1.2-.65.2 1.85-.7 4.45-1.7.45.45M34 51l7-9.35 3.9 1.7-7.05 7.4L34 51M2.3 47.3h-.4l-.05-.1.45.1m26.05 5.85-9.1-1.55-2.2-1.35 4.6.9q2.85 1.25 6.7 2" transform="translate(-1.15 -10.2)"/><path fill-rule="evenodd" fill="#d9cebf" d="m52.75 29.2-3.65-4.4-6.05-6.15.65 1.8v.9l-1-3.5L18.05 26l26.85-2.1 1 2.9-28.95 2.4-.2-.45-.85 1-3.05 2.1.4-2.6L3.4 23.4l1.4-1.25 7.8 3.35-1.6-3.35-4.25-1.1L8.5 17.9l31.25-6.7L53.6 24.8l-.85 4.4.9-4.4 1.15 1.7-.2.25-1.7 2.75-.15-.3m-36.2 13.45.65.15.3 1.15-.95-1.3M31.1 53l1.95-1.65.6.15.35-.5 3.85-.25-.1 3.6.05.45-2.15.2-5.6-.4-4.25 3.3-5.45-2.4-3.8.9-2.95-3.2-3.2 1.3-2.1-2.05-.15-.2L6.4 50.5l-3.15.65L1.8 47.2h.05l.05.1h.4l6.75 1.35 1.05.85-.3-.7 7.25 1.45 2.2 1.35 9.1 1.55 1.7.3 1.05-.4 6.65 1.3L31.1 53m15.75-10h.85-.85m-42.25.4.2.05-.15.05-.05-.1m7.75-6.9 1 2.85-1.35.5.35-3.35m-3.2 8.55 3.5-1.35 1 1.45.5 1.95 2.9 3.1-7.25-1.45-.65-3.7m-1.3.65-.15.95 1.35 1.95-6.75-1.35 5.55-1.55m-6.1 1.1.1.35H1.8l-.05-.35" transform="translate(-1.15 -10.2)"/><path fill-rule="evenodd" fill="#bca887" d="m43.7 20.45-.65-1.8 6.05 6.15 3.65 4.4-2.15 10.7-1.8 4.55-.25-2.1-.85.65.85-.65.25 2.1-.1 2.55q-1 4.9-3.35 8.85l-7.05-1.4 4.25-7L47 45.2l.25-2.2h.45-.85l-1.95.35-3.9-1.7L34 51l-.35.5-.6-.15L31.1 53l-9.45-1.85-1.6-1.3q-3.2-2.85-2.55-5.9l-.3-1.15-.65-.15-2.35-2.15q.4-2.1-.45-3.8-.85-1.75-2.45-2.1v-.5.5l-.2.65.2-1.15-.05-.15-.1-.4q.3-1.55-1.5-3.05Q7.85 29 5 28.45l-.4.15-.2.1-1.75-1.4.75-3.9 9.85 5.85-.4 2.6 3.05-2.1-.5.8q-1.45 3.15 1.85 4.6-3.3-1.45-1.85-4.6l.5-.8 1.05-.55 28.95-2.4-1-2.9-1.2-3.45m-38.9 23-.2-.05-1.4-2.65 6.1 1-1.85.7.65-.2-3.3 1.2m26.3 9.6-1.05.4-1.7-.3q-3.85-.75-6.7-2l9.45 1.9m-25.6 2 27.7 4.4 5.1-5 7.05 1.4Q44.2 57 42.6 57.9q-.55 2.75-7.3 3.45-6.8.7-15.8-1.1l2.8-.6-6.15-.45-11-3 .35-1.15M50.6 39.9l2.15-10.7.15.3 1.7-2.75.3.35-4.3 12.8m-13.05-7.95q3.5 1.25 7 .95l3-.2 1.55-7.9-1.55 7.9-3 .2q-3.5.3-7-.95l-.2-.1-.15-.05-.85-.3-3.25-1.15q-6.25 1-12.1 3.3l-2.2.9-1.05.55-.5.05-.15.75-.05 3.3 2.4 8.1L24 49.75l6.5-.55 5.95-7.2.35-.45 2.5-3-1.1-3.8-.65-2.8" transform="translate(-1.15 -10.2)"/><path fill-rule="evenodd" fill="#211e14" d="m4.6 28.6.4-.15 6.15 5.1.1.4.05.15-.2 1.15-.6 1.15q-5 7.6-7.8-2.05l-.05-.2L4.7 28.9l-.1-.3m32.95 3.35.65 2.8-1.4 6.8-.35.45-10.8 4.8-6.1-2.4-2.5-5.2.05-3.3.65-.8 1.05-.55 17.55-3.05.85.3.15.05.2.1" transform="translate(-1.15 -10.2)"/><path fill-rule="evenodd" fill="#544630" d="M5 28.45q2.85.55 4.65 2.05 1.8 1.5 1.5 3.05L5 28.45m6.3 6.15q1.6.35 2.45 2.1.85 1.7.45 3.8l-.45-.45-4.45 1.7-6.1-1-1.65-4.7.85-1.65.3-.05Q5.5 44 10.5 36.4l.6-1.15.2-.65m33.6 8.75 1.95-.35h.4L47 45.2l-4.45 2.25-4.25 7-5.1 5-2.75-2.7 5.3-1.5-.1-.25 2.15-.2-.05-.45.55.1-.55-.1.1-3.6 7.05-7.4m3.9 1.1 1.8-4.55 4.3-12.8.95 5.45-1.7 7.35-4.8 6.5 1.25-6.5-1.3 6.45-.6.65.1-2.55M12.35 36.5 12 39.85l1.35-.5-1-2.85m25.85-1.75 1.1 3.8-2.5 3 1.4-6.8M36.45 42l-5.95 7.2-6.5.55-4.55-2.45-2.4-8.1 2.5 5.2 6.1 2.4 10.8-4.8M17.1 35.9l.15-.75.5-.05-.65.8m1.7-1.35 2.2-.9q5.85-2.3 12.1-3.3l3.25 1.15-17.55 3.05" transform="translate(-1.15 -10.2)"/><path fill-rule="evenodd" fill="#462200" d="m7.85 45.7.3-2 2.55-1.4-1.55 2.75.65 3.7-.75-.15-1.35-1.95.15-.95m5.8-.55-.1-1.5 1-1.05.75.95-1.15 3.55-.5-1.95M9.8 48.8l.3.7-1.05-.85.75.15" transform="translate(-1.15 -10.2)"/><path fill-rule="evenodd" fill="#48412b" d="m8.3 52.45 2.1 2.05 3.2-1.3 2.95 3.2 3.8-.9 5.45 2.4 4.25-3.3 5.6.4.1.25-5.3 1.5 2.75 2.7-27.7-4.4 2.55-2.7.25.1m14 7.2-2.8.6-3.35-1.05 6.15.45" transform="translate(-1.15 -10.2)"/><path fill-rule="evenodd" fill="#dbd9b4" d="m54.8 26.5.05.1.05.4v.1l-.3-.35.2-.25" transform="translate(-1.15 -10.2)"/><path fill-rule="evenodd" fill="#e2dacb" d="m15.9 29.75.85-1 .2.45-1.05.55m39-2.7v.05-.05" transform="translate(-1.15 -10.2)"/><path stroke-width=".05" stroke-opacity=".322" stroke-linejoin="round" stroke-linecap="round" stroke="#600" fill="none" d="M52.45 14.6 38.6 1M7.35 7.7 5.6 10.85m-1.95 1.1-1.4 1.25m12.5 6.35.85-1M7.35 7.7Q19.55-1.65 34.8.35l3.8.65M16.1 24.95q-3.3-1.45-1.85-4.6l.5-.8M3.45 18.4l.4-.15q2.85.55 4.65 2.05 1.8 1.5 1.5 3.05m.1.4.05.15v.5m33.6 8.75 1.95-.35h.85l.85-.65.25 2.1 1.8-4.55 4.3-12.8.95 5.45M3.45 18.4l-.2.1.3.2m-.3-.2L1.5 17.1l.75-3.9m-1 11 .25-.25 2.05-5.25m-1.5 11.85L.4 25.85l.85-1.65m.3-.05-.05-.2m.55 6.6 1.4 2.65.05.1M.6 36.6l3.7-2.45-.8-.85m-1.95-9.15q2.8 9.65 7.8 2.05l.6-1.15.2-.65M6.7 35.5l.3-2 2.55-1.4L8 34.85m4.5.1-.1-1.5 1-1.05.75.95L13 36.9M3.65 11.95l1.95-1.1M6.7 35.5l-.15.95L7.9 38.4m.75.15L8 34.85m-.1 3.6 1.05.85-.3-.7m-8-1.6 1.45 3.95 3.15-.65L7 42.05l.15.2 2.1 2.05 3.2-1.3 2.95 3.2 3.8-.9 5.45 2.4 4.25-3.3 5.6.4 2.15-.2-.05-.45m-29.7-2 .1-.1m-.1.1-2.55 2.7m-3.7-7.9L.6 36.6M15 49 4 46l.35-1.15m8.15-9.9.5 1.95m39.5-22.3 1.15 1.7m.05.1.05.4v.1-.1M53 29.7l-4.8 6.5m-.25-21.6-1.55 7.9-3 .2q-3.5.3-7-.95l.65 2.8m-1.4 6.8-.35.45M15.9 29l.05-3.3.15-.75.5-.05 1.05-.55 2.2-.9q5.85-2.3 12.1-3.3l3.25 1.15.85.3m.15.05.2.1m-.75 9.6 1.4-6.8m7.15 21.1q2.35-3.95 3.35-8.85l.1-2.55M15.9 29l2.5 5.2 6.1 2.4 10.8-4.8M21.15 49.45 15 49l3.35 1.05q9 1.8 15.8 1.1 6.75-.7 7.3-3.45 1.6-.9 2.75-2.05m3.95-9.5-.6.65M36.7 40.55l-.1 3.6m7.15-11-7.05 7.4"/><path fill-rule="evenodd" fill="#fff" d="M3.2 29.65q2.2-2.25 5.45-2.4 3.2-.1 5.75 2.05 2.3 2.25 2.65 5.45.05 3.35-2.05 5.65-2.25 2.4-5.45 2.5-3.25.15-5.75-2.15-2.5-2.1-2.55-5.45-.35-3.2 1.95-5.65" transform="translate(-1.15 -10.2)"/><path stroke-width=".05" stroke-linejoin="round" stroke-linecap="round" stroke="#000" fill="none" d="M2.05 19.45Q-.25 21.9.1 25.1q.05 3.35 2.55 5.45 2.5 2.3 5.75 2.15 3.2-.1 5.45-2.5 2.1-2.3 2.05-5.65-.35-3.2-2.65-5.45-2.55-2.15-5.75-2.05-3.25.15-5.45 2.4z"/><path fill-rule="evenodd" d="M5.05 37.2q-.05-.6.45-1 .3-.4.95-.4l1.05.3.4 1q.05.6-.3.95l-.95.55-1.05-.45q-.5-.35-.55-.95" transform="translate(-1.15 -10.2)"/><path fill-rule="evenodd" fill="#fff" d="M18.05 28.5q3.6-3.7 8.7-3.85 5.15-.2 9.1 3.25 3.8 3.6 4.3 8.65.05 5.3-3.25 9-3.55 3.85-8.7 4.05-5.1.15-9.1-3.45-4-3.45-4.1-8.75-.45-5.05 3.05-8.9" transform="translate(-1.15 -10.2)"/><path stroke-width=".05" stroke-linejoin="round" stroke-linecap="round" stroke="#000" fill="none" d="M16.9 18.3q-3.5 3.85-3.05 8.9.1 5.3 4.1 8.75 4 3.6 9.1 3.45 5.15-.2 8.7-4.05 3.3-3.7 3.25-9-.5-5.05-4.3-8.65-3.95-3.45-9.1-3.25-5.1.15-8.7 3.85z"/><path fill-rule="evenodd" d="M21 40.2q-.05-.95.7-1.55.6-.6 1.55-.65.8-.05 1.6.55.65.55.7 1.5.05 1-.5 1.6l-1.55.85q-.95-.15-1.6-.75-.85-.55-.9-1.55" transform="translate(-1.15 -10.2)"/><path fill-rule="evenodd" fill="#d7d7d7" d="m6.3 38.65.6.15h.15l1.3.05q3.2-.1 5.3-2.5l.35-.4q.85 3.5 3.6 6.15 3.95 3.55 9.05 3.3 5.1-.1 8.45-3.9 3.5-3.8 3.2-8.95l-.1-1.3q1.4 2.5 1.6 5.6.3 5.15-3.2 8.95-3.3 3.8-8.45 3.9-5.1.25-9-3.3-2.75-2.65-3.65-6.15l-.35.4q-2.1 2.4-5.3 2.5-3.25.1-5.7-2.1-2.35-2.2-2.5-5.45l1 1.15q1.65 1.45 3.65 1.9" transform="translate(-1.15 -10.2)"/><path stroke-width=".05" stroke-linejoin="round" stroke-linecap="round" stroke="#000" fill="none" d="M1.9 19.75q-2.1 2.4-1.9 5.6.15 3.25 2.55 5.5 2.5 2.2 5.8 2.1 3.25-.1 5.4-2.5l.35-.4-.35-2.55q-.25-3.3 1.1-6.05-.65-1.15-1.75-2.1-2.4-2.2-5.65-2.1-3.3.1-5.55 2.5m12.2 10.3q.9 3.5 3.7 6.15 4 3.55 9.2 3.3 5.2-.1 8.6-3.9 3.55-3.8 3.25-8.95-.3-5.15-4.3-8.7-3.8-3.5-8.95-3.35-5.25.2-8.8 3.95-1.25 1.35-1.95 2.9"/><path fill-rule="evenodd" fill="#033" d="M81.4 16.15q-1.05 1.8-1.7 3.55-7.25 2.2-19.4 9.25l4.15-5.15q6.9-6.8 16.95-7.65m-3.2 9.25q-.2 1.9 0 3.7l-7.4 2.25q3-4.05 7.4-5.95" transform="translate(-1.15 -10.2)"/><path fill-rule="evenodd" d="M78.2 29.1q.35 3.35 2.05 6.45L54.2 34.6l-.55 7.1-4.15-2.05 2.35-10.05L58 25.75l11.55-11.6 14.1-1.65q-1.3 1.85-2.25 3.65-10.05.85-16.95 7.65l-4.15 5.15q12.15-7.05 19.4-9.25-1.2 2.95-1.5 5.7-4.4 1.9-7.4 5.95l7.4-2.25m-16.65-5 8.4-9.35 12.8-1.5-12.8 1.5-8.4 9.35m-8.95 6 8.55-6-8.55 6" transform="translate(-1.15 -10.2)"/><path stroke-width="2" stroke-linejoin="round" stroke-linecap="round" stroke="#016564" fill="none" d="m81.6 3.05-12.8 1.5-8.4 9.35m-.4 0-8.55 6"/></g><path fill-rule="evenodd" fill-opacity="0" fill="#f0f" d="M0 0h102.95v45H0V0" id="a"/><use xlink:href="#a" width="102.95" height="45" id="f"/></defs><path fill="none" d="M-1-1h173v151H-1z"/><g transform="scale(2)"><use x="35.55" y="105.5" xlink:href="#b" width="381" transform="translate(-192.55 -294)" height="381"/><use x="35.55" y="105.5" xlink:href="#c" width="43.25" transform="translate(-34.8 -105)" height="73.4"/><use x="35.55" y="105.5" xlink:href="#d" width="15.75" transform="translate(-21.45 -50.35)" height="13.15"/><use x="35.55" y="105.5" xlink:href="#e" width="82.6" transform="translate(-33.65 -94.8)" height="51.35"/><use x="-86.598" y="-113.678" xlink:href="#f" width="102.95" transform="matrix(1.8072 0 0 1.6538 94.8 187.3)" height="45"/></g></svg>