<svg width="327" height="480" xmlns="http://www.w3.org/2000/svg" xmlns:xlink="http://www.w3.org/1999/xlink"><defs><g id="b"><path stroke-opacity="0" stroke-linejoin="round" stroke-linecap="round" stroke="#f0f" fill="none" d="M187.95-293.5v380h-380v-380h380M92.95.6H-97" transform="translate(192.55 294)"/><path stroke-opacity="0" stroke-linejoin="round" stroke-linecap="round" stroke="#f0f" fill="none" d="m187.95-293.5-190 190 190 190m-380-380 190 190L-192 86.5" transform="translate(192.55 294)"/><path fill-rule="evenodd" fill="#632121" d="m77.35-133.65.05.1v1h-.1l.05-1.1m-.8 1.1 1.05.55q2.3 1.5 4.4 5.45 1.5 2.95 2.05 6.45.9 6.15-1.4 13.95-3.6 12.25-4.25 20.6l-.75 8.1.1-.8-14.95.65h-.3.3-.3l-2.8-.5q-.75-.2 6.25-1.45l-7.7.3q-4.35 1-8.05-.05 1.8.7 2.45 1.2l.15.15-4.1-.15h-.4l-.95-.15.95.15-.45-.1-.5-.05-2.05-.35-6.35-.9q-3.2-.45 0 .25l25.2 6.5.15.15q.65.55 3.9-.45l3.75-.35 1.3.85-6.65 9.85-5.25 1.1-2.55 4.1-1.45 2.3-2.15-.15-.25-.35-.15-.75q.05-.55-.3-1l-.5-.65q-3.45-.85-6.5-2.5l1.15-1.1q1.5-1.85-.05-3.6l-4.3.25L1.5-75v-.05q27.1-3.2-3.5-1.75 7.05-1.45 6.8-2.45 14.55-2.25 13.15-2.45l-3.85.2L26.45-83l24.5-10.55.45-6.2.7.05h.65l5.55-13q2.65-6.05 11.05-7.9l-.05-.1q-.95-.75-2.05-.25L65.7-121q-.1-.35-.05-.65l-.05-1.05v-.3l1.15-.6 2.2-1v.85l6.85-5.1-3.85 1.2.4-.75-.15-.7-.35-.65-.3-.35 3.45-2.35 1.55-.1m3.5 13.2-2.65 2.65-2.05 3.15-1.15 7.95q5.6-8.2 5.85-13.75m-110.3-52.95-.85-1.05v-.1l-.1-.05-.05-.1 4.55.1h2.4l-2.4 2.2-3.1-.25-.1-.15-.35-.6m-20.7-3.7-.1.15v-.05l.1-.1m9.15 4.3q.65 1.35.7 2.55v.15q-.05.85-.35 1.65l-.45.7-1.55 2.3h-.75q-.85-.65-1.5-2.3-.35-.85.65-2.15l.65-.75 2.6-2.15m27.65 96.2.6-.15.1.7.3 1.4v.05l-.25-.4-.75-1.6m65.8-29.25.05-2.95q1.25.3 2.05.75-.5 1.05-1.8 1.95l-.3.25m-1.5-14.3-.05-.2.9-.4-.85.6m11.75-16.6-.05-.1.4.05-.35.05m-2.8 4.05 3.6-.25-2.95.75-.65-.5m-117.85-61.85q.35-.35 1.2-.7l1.85-.8q1.9-.8 6.55-.15-6.05.35-7.35 1.15-.65.45-.4 1.05.3.6-.2 1.85-.5 1.15-2.35.5-1.85-.7-.5-1.9l.9-.7.3-.3m-.3.3-.45 1.45 1.35-1.4-1.35 1.4.45-1.45M52.8-77.95l-4.1-.15 4.1.15m-7.45-3.25v.05q-.25.1 1.9.8-.95-.35-1.9-.85m7.8 17.25 5.65 6.45-5.65-6.45m-56.6 8.6L-3.6-56l.15.65m1.3 3.25.05-.05-.05.05" transform="translate(192.55 294)"/><path fill-rule="evenodd" fill="#361212" d="m77.3-133.95.05.3-.05 1.1h-.75l-.9-.65-.95-.8q-1.75-1.65-4.9-5.25l-.55-.6-.8 1.2-.2.25-5.5 2.6-.5.1.5-.1-.45.1h-.05l-.4-.05.05.1-4.2.45-.85.05h-.55l-17 2.1-.85-.3-2.7-.9 16.85-5.65.65.2 1-2.9.3-1 .5-1.5 5.35.25 13.35.65.55 1.75h.05l.25.8 2.7 7.7m.35 56.5-.2 1.4-.8-1.6-.35.5-.85 1.3-.15.2-2.05 3.1-1.3-.85-3.75.35.05-.05 3-.8-2.6.05q-.85-.7-2.05-.7-1.15 0-2.05.7-.75.6-.4 1.1l-25.2-6.5q-3.2-.7 0-.25l6.35.9 2.05.35.5.05.45.1h.4l4.1.15-.15-.15q-.65-.5-2.45-1.2 3.7 1.05 8.05.05l7.7-.3q-7 1.25-6.25 1.45l2.8.5-9.7-.35 9.7.35h.3l14.95-.65-.1.8m-96.85-140.9v-.05l3.3-2.5.4.55.5.4-2.85 5.6h-.1l.05.1L-23-204l.15-.55 1.4-3.9-1.3 3.4-.45 1.5-1.2 2.4-.6-.45-2.65-1.7-.35-.85-.15-.35-.15-.4-1.3-3.05 6.8-6.25q-1.6 1.4 1.9-2.9l1.7-1.25m-3.6 4.15.25-.25-.15 1.6.15-1.6-.25.25m.25 1.25v-.05l.1-.45-.1.5-.15.1-.3 1.45.05.05.4-1.6m.5-.35-.9 1.95-.5 1.9-.7 5.1-.15.9.2-.55.35-.85.2-.5h-.05l2.4-8.45q-.1-1-.85.5l-.5.3.5-.3m-1.75 7.65-.15.55v.05l.05-.3.1-.3m-26-6.9 10.65 11.9q-.15 2.8.25 5.9.4 3.2 1.45 6.9l.05.2.45-.45q.45-.5.65-1.35.2-.85 2.45 3.95 2.3 4.8 3.4 5.45l.8.4-1.6 2.05-.35.9-.25.95q-.1.95.4 1.8l.2.3v.05l.05.1.1.05v.1l.85 1.05.35.6.1.15 3.1.25-2.25 1.2-6.85 1-4.2 2.65q-1.75 1.1-3.45 2.1l1.55-2.3.45-.7q.3-.8.35-1.65l.1-.1-.1-.05q-.05-1.2-.7-2.55v-.1l-.1-.2-.7-1-.3-.35-.2-.15-.45-.35q-.7-.5-1.65-.85l-.35-.1-.4-.15-.2-.05h-.8v.05l-2 .15-.6.05-.1.05.1-.05.6-.05v.05l-.35.05h-.7l-1.7.15.65-1.3.1-.15 1.9-1.25.7-.45 2.45-1.55.25-1.4.1-.5-1.6-4.45-1.75-4.8-.35-.95-3.6-1.05-7.2 5.5 3.15 3.3-2.95-.15-1.15.2-.1-.05-.05.05-.65.1.65-.1-.8 1.6q-.2 1.55.3 3.6t1.8 4.55v.1l.1.2.55 1-.25.8h-.05v1q0 1 .8 1.7 2.3-2.95 6.35-2.2v.1q0 1-.25 1.4l-2.2 3 2.25 2.8-.7.35-.4.3q-1.6 1.05-2.85 2.8h-.05l-.65 1-.6 1.05-.05.1-.8 1.65-2.35-1.55-1.3-.8-2.55-.75-3.5-.6q-2.05-.55-3.35-1.7l-1.35-1.5-1.75-2.65.25-.3 1.7 1.65q2.5 2.55 5.05 3.2 2.45.7 4.7.55l6.25-.6q-8.55.35-9.5-.85l-2.9-3.65q-2.1-2.4-2.8-6.35l.45-.6.15-.35.3-.8.35-.35q3.25-2.9 5.9-5.95.1-.55-.3-1l-.45-.65-.6-.3-2.2-.05h-.25l.65-.65.3-.25 2.15-.7 3.05.05q-.15-3.1-1.3-6.15l-1-2.35-.9-1.15v-.05l-.2-.3-.6-.8-1.25-2.75-.15-.3v-.05l-.45-1.5-.25-1.8v-2.15l3.5-3.65 1.3.65 1.3.85-1.3-.85 1.25-1.8q.15.05.1-.2l.35-.6.45.05v-.4l2.6-.7v-.55l6.05-.05 3.25-1.8m4.9 9.55-1.45 1.25 1.45-1.25m-6.15-3.4-1.15-2.55-.85-1.8.85 1.8 1.15 2.55m7.8 16.45q.85 3.6 1.15 5.9.3 2.25-1.05 4-1.4 1.7-3.75 3.15l-2.1 1.8 8.95-6.1q-.45-4.8-1.8-8.1-1.4-3.35-4.85-8.15 2.5 3.85 3.45 7.5m28.3 18.6 2.05.4.05.05q4.3 4.6 2.75 8.35-1.45 3.5-2.15 3.7h-.1l-.45.05-1.2 2.25-.85.95.85-.85q-2.95 4.6-9.6 9.05l-.85-1.5-.15.45q-1.25 3.05-5.85 7.95l.25.6q-1.7.85-3.15.9-3.85-2.1-7.3-4.6-3.6-2.3-7.15-6.3l-.2-2.15q-.05-1.55.7-3.25.8-1.8 2.75-3.3 1.1 1.05 1.45.85l.15-.15.15.1-.15-1.2-.6-1.2 5.65-.65 4.45-1.1.2-.15.05-.05 5.2-4.3.05-.05 6.05-4.95 1.4 1.75q.25-.05.5-.2l.2.2v.05l-.75.85.95.65-1.4 1.9-1.65 2.7-1.6 3.05-.7 1.5-.1.25-1.55 1.45-.15.15-.6.45-.1.1-.1.05-1.6 1.4-.65.65-2.5 1.95-.2-.05.25.9q.7 1.15 1.8.65l.7-.35.1.05-.05-.05q6.1-2.9 10.5-7.6 3.9-4.2 6.5-9.9.1-.6-.3-1l-.5-.7-.55-.3-.9-.25v-.2m-12.4 21.55-2.3-1.55 2.3 1.55m19.5-9.1-.4 2.95-.45 2.2-2.5 8.35-.35.7-2.15 2.9-.6.55-5.75 4.9-.45.3-3.8 3.05v1.55l-2.45 3.45-.85-.55-.55-.35v2.8l-.65.5-.25.2-2.7 1.8-2.75 1.05q-2.1.75-3.55.95h-.1l-.7.1-5.95.45q3.7-.75 4.3-1.05l2.75-1-2.3.35-3.3.75q7.4-3 7.35-3.6-.6-4 1.95-7.2l-2.4-.95-1.3.1-.3.4-.6-.25-1.7-.9q-2.1-1.05-4.25-1.9l-.75.2-.95 1.2-1.05.8q-2.5-.2-4.05-1.7l.35-1 .75-3.85.4-.35.25-.15.35-.35-.7-3.7q.6-.3 1.25-.75l.8-.55.35-.35 4.95 4.7 2 1.45.25.2 3.1 2.15 1.5 1.1.15.15q1.5 1 2.15 1.05.95.15 2.45-.5l.3-.1 1.4-.7.85-.55.3-.3 1.2-1.6 2.05-2.85q.95-1.45 2.1-2.55 2.1-2.2 4.7-3.2l6.75-4.95 1.5-2.9.1-.2.3-.5v-.05l1-2 .65.1m-18.85 26.2-1.45 2v1.8-1.8l1.45-2m-4.6-47.3.85-.05-.85.05m-7.45-.25-.55.45-.2.2q-1.05 1.05-3.3 2.4-1.45.85-3.35 1.8l-.8.4.8-.4q1.9-.95 3.35-1.8 2.25-1.35 3.3-2.4l.2-.2.55-.45m8.95 8.7.85 1.45-.85-1.45m8.3 3.9-1.15 1.4-3.45 2.7q-3.85 3.05-5.85 4.55l-1.75.95-1.7.5q-2.65.5-6.6.15l-.8-.4.8.4q3.95.35 6.6-.15l1.7-.5 1.75-.95q2-1.5 5.85-4.55l3.45-2.7 1.15-1.4m-11 15.05-4.05-1.8-5.45-3 5.45 3 4.05 1.8m9.85-13.65-1.45 1.65 1.45-1.65m-8.6 23.45.15-.7q-.5-.4-4.8-1-3.3-.5-7.15-6l-.05.55q2.9 8.9 11.4 8.15.35-.45.45-1m3.4 4.8h-.05.05m14.3 62.35q5.1-1.2 7.25-2.55l.4-.25 6.5-1.5 13.5-1.55 3.85-.2q1.4.2-13.15 2.45.25 1-6.8 2.45 30.6-1.45 3.5 1.75v.05l42.8 9.95 4.3-.25q1.55 1.75.05 3.6l-1.15 1.1q3.05 1.65 6.5 2.5l.5.65q.35.45.3 1l.15.75.25.35-13.15-1.2.65-2.8.8-3.8.15-.8-.15.8q-8.9 3.25-13 5.9l-3.55 1.9-2.55 1.15-.7.25-.7.25q-7.75 2.9-15.65 6.65l-.25.15-4.9 2.35-3.55-6.05-.8-1.5-1.3-3.25-.15-.65-.4-1.25-.05-.15q-1.2-4.3-2.65-6.55l-5.45-7.95-1-1.6v-.05l-.3-1.4-.1-.7m64.95-24.1.25-5 .3-.25q1.3-.9 1.8-1.95-.8-.45-2.05-.75.1-5.5-.5-8.45-.25-1.3-1.05-2.9l.85-.6-.9.4q-2.2-4.55-8.25-11.8l-.05-.3.8-.1.1-.45 3.9 1 12.5-.7.65.5 2.95-.75 12.5-.9-2.4.4 2.2-.1-3.45 2.35.3.35.35.65.15.7-.4.75h-.15l-2.85.9v2.15l-2.2 1-1.15.6v.3l.05 1.05q-.05.3.05.65l1.55.05q1.1-.5 2.05.25l.05.1q-8.4 1.85-11.05 7.9l-5.55 13h-.65l-.7-.05m2.85-42.85.3-1-.3 1m20.35.95-.3-.8.3.8m-128.85-67.8-.7-.9.7.9m-7.7 13.6-.65.15q-1.8-.3-3.95.75 2.15-1.05 3.95-.75l.65-.15m-1.65 3.2.7-1.65-.7 1.65m4.85-.8-.3.1v.2-.2l.3-.1-.3.3-.9.7q-1.35 1.2.5 1.9 1.85.65 2.35-.5.5-1.25.2-1.85-.25-.6.4-1.05 1.3-.8 7.35-1.15-4.65-.65-6.55.15l-1.85.8q-.85.35-1.2.7m4.6-4.1 1.8-3.75 3.3-2.15 1.25.4-1.25-.4-3.3 2.15-1.8 3.75m6.2-3.6-.35.2-3.4 2.95 3.4-2.95.35-.2m.5-5.65-4.25 4.2 4.25-4.2m-13.05 13.9-1.35.95 1.35-.95m7.45-3.9.85-.75-.85.75m-10.2 5.9 1.1-.8-1.1.8m.5-3.9 1.85.5-1.85-.5M-55-199l2.3-2.45L-55-199m.25-2.05-.65 1.25.65-1.25m-7.05-6.85.1-1.15-.1 1.15m-.75 23.75q.35-.05 1.45.55-1.1-.6-1.45-.55m-5.5.9-.4.65.4-.65m12.9 16.1.35.45-.35-.45m-4.35 34.6v.35l.2.95-.95 1.35-.25.95-.4 1.1q-.35.45-.3 1l.05.15.1.45.05.15.05.2.05.1.1.2.2.75.25 1.15v.15q-1.55-1.15-2.85-.7l-.95.55-1.4 1.3h-.05v.1l-.15.1.45.25q.5.65 1.5.8l-.05.15q-2.85-.9-4.7 2.9l-.1-4.2-.15-.5-.6-2.8-.05-.5q0-.55.8-1.5l.75-.8 1.85-.9.15 1.05.05.6v-.35l2.55-3.45 3.05-.75.75-.35m-6.1 10v.15-.15q.4-.95.05-1.3l-.05 1.3m.05-3.05-.05-.45v-.05l-.25-1.55.25 1.55v.05l.05.45M76.3-77.15l-13.5-.45 13.5.45M45.35-81.2q.95.5 1.9.85-2.15-.7-1.9-.8v-.05M.6-79.95q.1.3.35.5-.25-.2-.35-.5M-2.15-52.1l.05-.05-.05.05" transform="translate(192.55 294)"/><path fill-rule="evenodd" fill="#c12c06" d="M57.35-55.2q-3.55 0-14.65 1.85l-1 .75-.1-.55 1.1-.2.85-.65.3-.3-.3.3-.85.65-1.1.2.6-1.9q-2.25 2.65-3.25 3.1l.2-1.45-1.85 2.1q-2.75 1.05-5.65 1.7-12 2.6-24.3 2.55Q15.25-50.8 23-53.7l-.1.6q0 .7.3 1.3 1.05 1.8 3.05 1.15 9.4-3 16.45-8.7l-.65 2.8 13.15 1.2 2.15.15m-56 36 .4-.05.05.3-.45-.25M73.4-43.8l.95-2.1 1.4-.45 3.2-.3q4.6.4 5.35 5.9-1.45-2.75-4.6-3.15-3.7-.55-6.3.1M.95-154.75q.65 1.25 1.5 2.25l.1.15.15.15 2.4 2.1q.2.15.45.25l3 1.55 22.6-6.35q-15.25 9.1-14.55 12.9l-.4.05q-1.85-.15-8.85-2.55 8.55 7.3 8.05 9.05-.3 1.05.8 2l1.4.9-1.4-.55-.1-.05q-1.5-1.6-3.6-2.25-3.2-2.9-2.75-2.85-4.05-2.9-4.2-3.15Q2.7-146.35-2.4-152l1.85.2.55-.7 1.1-1.55 1.35 1.55-1.35-1.55.1-.2-.25-.5m-16.45-22-.4-.1.75-.2-.35.3M-35.2-166q4.3-2.15 8.65-3.65l-2.9 1.95-2.45 1.85q-.2.35.35.65-1.3 2.4-7.85 3.1-6.6.65-3.35-.55 3.25-1.25 7.55-3.35m5.65-3.15.1-.05.05.05h-.15M41.6-131.3l-1.5.2-.45-1.8-.2-.15 1.05.4 1.1 1.35m-7.75-11.8-.05.05-.05-.05h.1" transform="translate(192.55 294)"/><path fill-rule="evenodd" fill="#fa6230" d="m58.45-38 2.1-.55q9.15-3.5 9.95-4 1.25-.9 2.9-1.25l-.6 1.25q-.3 1.5-1.95 3.6-2 2.5-4.15 3.1-3.05.7-8.25-2.15M10.1-193h.1q1.15-.95-7.75-.65l-2.3.05-2.3.1 2.3-.65 2.3-.6 13.75-3.65 7.2-2.1.65-1.05.1-.2h-.45l3 .1 2.2.35q.7.2 1.25.6.9.65-1.25.95l-1.55.15q-4 .25-10.15 3.4l-1 .35q-2.75.95-6.1 2.85m-1.2.7-.2.05.4-.15.05-.05-.25.15m-40.15 18.7v-.05l-.2-.3.2.35M-61.7-71.45l.45 2.55-2.4 2.05-5.2-.2 7.15-4.4m-6.95 5.7q13.35 19.95 33.5 32.7 7.6 4.5 18.55 9.25l-1.65-.25Q-24.3-24.9 13.95-13h-.05l-.95.25-1.5.4h-.05l-7.45 1.7-.75.15-9 .7q-9.9-3.35-20.2-5.6-10.05-5.1-19.6-11.45l-.75-.95q-8-8.05-14.3-17.1l-.8-.4-.45-.15-2.95-13.15q-.4-1.65-2.15-3.3l-1.65-1.35v-2.5M14.2-13.1l.1-.6q.1-.55-.3-1.05l-.4-.45 6.7.45-5.85 1.6-.25.05m-60.85-5.75 1.1-.6.5-.05q4.55 3.85 10.1 6.05l1.9.75.5.1q-3.35-.85-6.3-1.95l-1.1-.45q-3.45-1.45-6.7-3.85" transform="translate(192.55 294)"/><path fill-rule="evenodd" fill="#8e1b04" d="M1.75-19.25q6.05-.8 22.15-6.9Q33.9-30 43-33.9l13.8-3.65q-7.1 9.8-12.3 15Q41.05-19.1 32.75-17l-10.4 1.8-2.05.45-6.7-.45-.25-.05-10.55-3.2-1-.5-.05-.3m21.95-182.5h.45l-.1.2-.65 1.05-7.2 2.1-13.75 3.65-2.3.6-2.3.65 2.3-.1 2.3-.05q8.9-.3 7.75.65h-.1l-.95.55-.05.05-.4.15.2-.05-.45.3-.75.45-1.65 1.05-.05.05-3.55 2.5-2.3 1.8-2.45 2.2-.85.75q-4.2 3.65-9.25 5.15l-2.75 1-.75.2.4.1q2.15.8 4.95 3.25.6.5 2.1 7.65-.7-2.3-1.85-3.25-1.1-1-2.55-1.8l-.05-.05-2.05-.4-.65.05-2 .5-1.85.7-.55.2q-.25.15-.5.2l-1.4-1.75-6.05 4.95-.05.05-5.2 4.3-.05.05-.2.15-4.45 1.1-5.65.65-.35-.4-.6-.45-.1-.1-.5-.15-2.7-1.7-.3-.15-1.65-1.1v-.05l.2-3.1.5-.4v.3l.35.25q1.55-.5 3.1-1.25l.55-.3q-1 1.3-.65 2.15.65 1.65 1.5 2.3h.75q1.7-1 3.45-2.1l4.2-2.65 6.85-1 .05.4-.05-.4 2.25-1.2 2.4-2.2h-2.4l.7-.6 1.05-1.05.35-.45h-.85l2.65-.05-1.35-1.25-7.45.2.35-.9 1.6-2.05 1.5.8-1.5-.8-.05-.45 3.9-.35h.05q1.5.65 2.95.8l1.55-.2 1.4-.15-1.3-.65q-1.45-.65-2.7-1.65l-.05-.25 2.7-.75 2.6.2 5.55-.15q.55-.1.85-.5l1.45-.55.2-.1.3.05-.55-.1-2.55-2.7 3.4-.95q-3-1.5-4.65-3.6-.8-.95-1.25-2.05l1.35.4h.05l.1.05 2.3.1q2.85-.05 6.1-.95l6.1-1.95 2.3-.8 4.35-1.45 9.4-2.6 5.35-.85 2.15.05M-6.6-184.2l-3.65-.15 3.65.15m-13.9 3.05-.65.5.65-.5m4.6 4.3-2-.2-.35.1q-.8.1-1.6.55l-1.4.6-1.55.15 1.55-.15 1.4-.6q.8-.45 1.6-.55l.35-.1 2 .2m-5.7 5.15-.3.25.3-.25m-23.9.7.05.05-.15.05-.25.2.35-.3m10.3 5q-4.3 2.1-7.55 3.35-3.25 1.2 3.35.55 6.55-.7 7.85-3.1-.55-.3-.35-.65l2.45-1.85 2.9-1.95q-4.35 1.5-8.65 3.65m5.65-3.15h.15l-.05-.05-.1.05" transform="translate(192.55 294)"/><path fill-rule="evenodd" fill="#e0e6e9" d="m-42.9-228.45 2.4-1.6v-.05l.25-.15.1.6v.05l-.8.7-.25.25-.6.45-.75-.1-.35-.15m32.15 44 .15.05h.05l-.2.1v-.15h-.05.05m-57.05-27.7.25.05.05.1.5.2-.8-.35" transform="translate(192.55 294)"/><path fill-rule="evenodd" fill="#e9eeef" d="m-42.9-228.45-.3.2.3-.2.35.15.75.1.6-.45.55-.4.65.15 6-1.7-2.85 1.85h.05q3.1.3 5.95 1.4l3.65 1.45 1.6.8q2.3 1.55 2.85 2.95.55 1.35-.35 2.05-.4.4-.9.5-2.3-4.1-7-4.1l-8.45.05q-3.7.1 2.65-2.95l-23.05 4.5h-.3l-.25-.15-1.25-1.15-.15.25-.4-.25 10.45-2.2-2.15-1.2 3.95-.5q4.6-.05 6.5-.85l.25-.1.25-.2h.05m6.15 16.2-1.15.1q-1.5-.15 1.15-.1m.85-1.05q-5.2-3.65-6.25-4.15l9.5-1.85-3.65 3.4q.5 1.95.4 2.6" transform="translate(192.55 294)"/><path fill-rule="evenodd" fill="#c2ced3" d="M-15.85-193.75q.45 1.1 1.25 2.05 1.65 2.1 4.65 3.6l-3.4.95 2.55 2.7h.05v.15l-1.45.55-.85.5-5.55.15-2.6-.2-2.7.75-.15.05-1-.95 1 .95.2.2q1.25 1 2.7 1.65l1.3.65-1.4.15-1.55.2q-1.45-.15-2.95-.8h-.05l-2.35-1.3-3.05-2.45 3.05 2.45 2.35 1.3-3.9.35-.75.05q-1.1-.65-3.4-5.45-2.25-4.8-2.45-3.95-.2.85-.65 1.35l-.45.45-.05-.2q-1.05-3.7-1.45-6.9-.4-3.1-.25-5.9l-10.65-11.9-3.25 1.8q-3.5-6.85-9.35-11l-.25-.05-.1-.1q.25 0 .35.15-.1-.15-.35-.15l-2.95-1.75 3.9.5.15-.25 1.25 1.15h-.05l-.2.15-.05.05.15-.05h.7l23.05-4.5q-6.35 3.05-2.65 2.95l8.45-.05q4.7 0 7 4.1.5-.1.9-.5.9-.7.35-2.05-.55-1.4-2.85-2.95 3.65 1.85 6.2 6.4l.2.3v.05l-1.7 1.25-5.8 4.45-3.55 2.7v-.1.1l-.2.15.15.3.05-.25-.05.3v-.05q-2.1 11.55-1.3 11.4.75-.15-2.55 7.25 5.2-4.75 6.75-6.45l.55-1q1.3-1.55 1.85-3.3l.6.45 1.2-2.4.1-.25.1-.2 5.1-10.25.4 4.45q.05 1.45.9 2.5 1.3 1.85 4.35 2.45l-5.1 2.8-.95.5 1-.05.2 4.1.3.65v.1l.95 3M-30.2-209.2l.55 1.25.25.65q-.65.3-.8-1.9m1.9 4.3.15.4.15.35-.5-1.05.2.3m-7.6-8.4q.1-.65-.4-2.6l3.65-3.4-9.5 1.85q1.05.5 6.25 4.15m-.85 1.05q-2.65-.05-1.15.1l1.15-.1m-2.1 8.9-.3 2.7.3-2.7m19.75 1.9.8-.1-.8.1m-12.35-4.4-.15.15-.5 1.65q-.55 1.95.65-1.8m20.65 21.4q-2.35-.5-3.8-1.85l-2.05-2.5 2.05 2.5q1.45 1.35 3.8 1.85m-12 1 1.6.15-1.6-.15m-39.85-34.95-.1 2.3v5.05l.1 1.65.05.15.05.55.05.2q.05.25-.1.2h-.05l-.1-.1v-.05l-.15-.1-1.8-1.8-.1-.05-.2-.15-2-1.25-.5-.2-.05-.1-.25-.05-1.15-.35-1.3-.25-3.2-.4q2.9-.95 2.05-1.1l-1.85.15 1.75-.45.2-.05-2.05-1.3 1.7-.15h-.1l2.85-.35-2.85.35h.1q7.15-3.5 7.95-2.85.8.65 1.05.5m10.85 3.6 2 2.25-2-2.25" transform="translate(192.55 294)"/><path fill-rule="evenodd" fill="#99adb5" d="M-30.25-209.95v-.1.1m-.05.45v.05l.1.25q.15 2.2.8 1.9l.9 2.1.5 1.05.35.85 2.65 1.7q-.55 1.75-1.85 3.3l-.55 1q-1.55 1.7-6.75 6.45 3.3-7.4 2.55-7.25-.8.15 1.3-11.4m-1.15 3.65q-1.2 3.75-.65 1.8l.5-1.65.15-.15" transform="translate(192.55 294)"/><path fill-rule="evenodd" fill="#edc18f" d="m-30.3-209.5-.15-.3.2-.15 3.55-2.7.25-.15q.35-.15 5.55-4.3-3.5 4.3-1.9 2.9l-6.8 6.25-.7-1.5.7 1.5h-.05.05l1.3 3.05-.2-.3-.9-2.1-.25-.65-.55-1.25-.1-.25.05-.3-.05.25m7.45 4.95-.15.55-.1.2.25-.75m-.1-6.8.9-1.95q.75-1.5.85-.5l-2.4 8.45h.05l-.2.5-.35.85-.2.55.15-.9.2-.7v-.05l.15-.55.3-1.2q.4-1.95.05-2.6l.5-1.9m-6.95 39.65-.35-.6.35.6m-18.45-6-.7.45.65-.45h.05m7.25 8.55.1.05-.1.1v-.15m9.25 16.85-.45-.25 2.5-1.95-1.05 1.05-1 1.15m6.65-6.15-1.4 1.15 1.55-1.45-.15.3M-27.85-138h-.05.05m13.55-3.25.6-.55h-.05l-.55.55m-33.45 11.15-3.55.15.55-.35q1.95-1.25 3.35-3.15l.05-.1.1-.15-.05-.25.1.55q.35 1.6 1.2 2.75l-.3.35-1.45.2.5-1.35-.5 1.35m-7.7-.8.05.45-.15-.05-.1 1.35-.15.05-2.15.7q-1.55-.05-1.35-2.85l-.2-.95v-.35q3.3-1.5 3.85-1.95.85-.75 3.6-1.2l.55.2-.35 1-1.25.65q-1.35.8-1.8 1.65l-.05.05-.35.7-.15.4v.15m28.4 2.7-.55-.35.85.55-.3-.2m-45-44.35q.7 3.95 2.8 6.35l2.9 3.65q.95 1.2 9.5.85l-6.25.6q-2.25.15-4.7-.55-2.55-.65-5.05-3.2l-1.7-1.65-.9-.85-.85-1.6.75-1.5-.05-1.6.3.35q1.1.9.45-3.4 2.35 3.45 2.65 3.1.15-.15.15-.55m16.45 42.05-.2 1.4.2-1.4h.05v-.25l-.05.15v.1m-.15-2.2.1.5.1 1.45-.1-1.45-.1-.5m-8.1 11.7.05-.15.2.15v.1l-.25-.1m-1.7-1.35.05.1.05.05-.1-.1.05.05-.05-.05v-.05m10.1-8.7-.1.3.1-.3" transform="translate(192.55 294)"/><path fill-rule="evenodd" fill="#fcdfc2" d="m-15.9-220.9.15-.1.35.55-.1.1-.4-.55m-1.95 6.55-.05.1-.05-.1h.1m-3.05-2.75q-5.2 4.15-5.55 4.3l-.25.15 5.8-4.45m-2.3 13.55.45-1.5 1.3-3.4-1.4 3.9-.25.75-.1.25m.65-9.4v-.05.05l.1-.5-.1.45v.05l-.45 1.55.3-1.45.15-.1m11.35 67.55-.4.8-.2.35q-.6 1.05-1.9 2.45l2.15-2.9.35-.7m-6.4-25.4-1.35 1.85-.65.8-.95-.65.75-.85v-.05l.35-.4 1.85-.7m-51.05 48.5.1 4.2q1.85-3.8 4.7-2.9l.25.1q-.3 3.15-2.6 4.45.35 3.1-1.35 3.4l-.4.1q-1.35.15-1.9-.25l-.35-1.4v-.05l.05-7.05 1.2-.95.3.35m4.85 1.15q-1-.15-1.5-.8l-.45-.25.15-.1v-.05l.05.05-.05-.05.05-.05 1.4-1.3.95-.55q1.3-.45 2.85.7l.1 1.15v.1q-.75 1.5-2.3 1.55l-1.05-.35h-.05l-1.85-1.15 1.85 1.15h.05v.05l-.05-.05-.15-.05.15.05.05.05v.05l-.2-.15m-1.8-1.4.05-1.3q.35.35-.05 1.3m-.25-5.45v.35l-.05-.6.05.25m.3 5.65v-.05.1l.1.1-.05-.05-.05-.1m0 .05h-.05.05m.1.1.15.25-.15-.25m1.85 1.2v-.05l.85.55-.05-.05-.8-.45m-5.05 4.85-1.55 1.5 1.55-1.5m0-1.65v.1l.1-.1h-.1l.1-.3-.1.3m2.45 1.35-.85.45-1.5-1.8 2.2-2.2-2.2 2.2 1.5 1.8.85-.45" transform="translate(192.55 294)"/><path fill-rule="evenodd" fill="#e8ab71" d="m-23-211.4.45-1.55-.4 1.6-.05-.05m-1.15 7.05.7-5.1q.35.65-.05 2.6l-.3 1.2-.1.3-.05.3-.2.7m11.3 33.45q1.45.8 2.55 1.8 1.15.95 1.85 3.25l.1.45.45 1.85.05.15.15 2.1v.9l-.15 1.4v.1l-.65-.1-1 2-.35-.8-.45-.65-.6-.25-.7-.3-.65.65-.05.1v-.15l.05-.45q.7-.2 2.15-3.7 1.55-3.75-2.75-8.35m1.05 11.95-.1.05-.3.05-.05.4.45-.5m4.1-1.45-.8 1.4.8-1.4m-6.3 3.85v.1l-.85.85.85-.95m-35.2 9.2-.1-.65.65.5-.55.15m24-11.1q-.8 1.75-1.55 1.3l.15-.15 1.4-1.15m-3.95 3.3-.65.65.65-.65m-45.4-11.35-.25.3-.65-1.15.9.85M4.95-5.7l.1 5.75Q-1 2.8-7.7 3.45-10.45 1.9-12-.95L4.95-5.7" transform="translate(192.55 294)"/><path fill-rule="evenodd" fill="#824b15" d="M-43.25-189.95q-.95-3.65-3.45-7.5 3.45 4.8 4.85 8.15 1.35 3.3 1.8 8.1l-8.95 6.1 2.1-1.8q2.35-1.45 3.75-3.15 1.35-1.75 1.05-4-.3-2.3-1.15-5.9" transform="translate(192.55 294)"/><path fill-rule="evenodd" fill="#af5a05" d="m-14.35-193.3-.1-.05h-.05l-1.35-.4-.95-3v-.05l2.9-3.75q.85-.55 1.35-.5.45.05.45.75l-.05.3-2.2 6.7m-33.25 46.45-.35.35-.8.55q-.65.45-1.25.75-1.65.65-2.9 0l-.45-.2q-1.15-1.55-1.3-2.9v-1.8q.3-2.55 1.75-5.25l.25-.55.1-.1v-.1l.1-.1.05-.05 2.05-2.75 1.6-1.35 1-.55q1.45-.75 2.65-.4l.5.15.1.1.6.45.35.4.6 1.2.15 1.2-.15-.1-.85-.45-.05-.05-.6-.6-.1-.05-.35-.1-1.8.15-.15.1-.75.4q-1.75 1.2-3 3.6-.85 1.6-1.15 3.1l-.15 1.45.05.55q.1 1 .95 2.1.85.45 1.7.35l.55-.15 1.05.65" transform="translate(192.55 294)"/><path fill-rule="evenodd" fill="#fef0e7" d="m-15.4-220.45.4.5-.5-.4.1-.1m.45 49.3.9.25.55.3.5.7q.4.4.3 1-2.6 5.7-6.5 9.9-4.4 4.7-10.5 7.6h-.05l-.7.35q-1.1.5-1.8-.65l-.25-.9.2.05.45.25 1-1.15 1.05-1.05.65-.65 1.6-1.4.1-.05.1-.1.6-.45q.75.45 1.55-1.3l.15-.3.1-.25.7-1.5 1.6-3.05 1.65-2.7 1.6-1.65 3.25-2.9.55-.2.65-.15M-51.4-135.8q1.55 1.5 4.05 1.7l1.05-.8.95-1.2.75-.2q2.15.85 4.25 1.9l1.7.9.75.35.6.35q1 1.1.75 2.7-.15 1-.85 1.7-.1 1.65-.9 2.8-.9 1.25-2.75 1.95l-2 1q-1.5.35-2.6-.8l-1 .15-.45.2q-1.75.35-2.7-1.15v-1.35q.2-1.4 1.3-2.55l.5-.5 1.7-1.65.3-.35q-.85-1.15-1.2-2.75l-.1-.55.05.25-.1.15-.05.1q-1.4 1.9-3.35 3.15l-.55.35q-1.15.6-2.5 1.05l-1.3-.05-.35-1.95v-.15l.15-.4.35-.7.05-.05q.45-.85 1.8-1.65l1.25-.65.35-1 .1-.3m.35-40.05-.65 1.3-.9 1.8.05.05.1.85.1.65q-4.05-.75-6.35 2.2-.8-.7-.8-1.7v-.85l.85-.8q3.25-1.8 4.95-1.95 1.7-.25 2-1.15l.3-1.05.15.1.3.35v.05l-.1.1v.05m19.2 23.55 2.1.9-2.1-.9m.6 9.5q-.1.55-.45 1-8.5.75-11.4-8.15l.05-.55q3.85 5.5 7.15 6 4.3.6 4.8 1l-.15.7m-28.2-28.9q.2-.15-.05.15v-.15h.05m-9.25-10.9h.25l2.2.05.6.3.45.65q.4.45.3 1-2.65 3.05-5.9 5.95l-.35.35-.3.8-.15.35-.8-1.5.35 2.1q0 .4-.15.55-.3.35-2.65-3.1.65 4.3-.45 3.4l-.3-.35-.1-1.45-.05-1.45.6-.35.1-.1 1.05-.4q.55-2.1 1.5-3.05.95-1 2.2-1l1.85-2.75h-.25m13.25 51.55.15-.4-.15.4" transform="translate(192.55 294)"/><path fill-rule="evenodd" fill="#971806" d="M41.7-52.6 38-49.65q.65-.55.95-2.3 1-.45 3.25-3.1l-.6 1.9.1.55m-4.4 1.3q-6.1 6.3-12.65 8.1l-16.3 4.35-1.55.4-1 .3h-.15l-.4-.7L3.05-43l-.85-1.55 4.9-2.35.25-.15q12.3.05 24.3-2.55 2.9-.65 5.65-1.7m-48.1-133.15.55.1-.3-.05h-.05l-.15-.05h-.05m10.85 5.1q-1.4 3.25-2.1 5.85l-.9 4.1q-.3 3 .4 5.85l.4 1.3v.2L-1-159l.35 1q.75 1.9 1.45 3.1l.15.15.25.5-.1.2L0-152.5l-.55.7-1.85-.2q5.1 5.65 7.95 10.85.15.25 4.2 3.15-.45-.05 2.75 2.85 2.1.65 3.6 2.25l.1.05 1.4.55.4.2q2.6 1.2 4.8 3.15l-.25.05-4.15.55-.25-.3-1.65-1.15-.3-.2-1.95-1.3-3.5-2.1q-4.6-3.55-10.6-6.45l-4.85-2.25-.65-.25-4.3-1.65-1.95-.6.4-.8 2.5-8.35.45-2.2.4-2.95v-.1l.15-1.4v-.9l-.15-2.1-.05-.15-.35-1.55-.2-.75q-1.5-7.15-2.1-7.65-2.8-2.45-4.95-3.25l.35-.3 2.75-1q5.05-1.5 9.25-5.15l3.2 3.85M8.45-192l.45-.3-.45.3m-13.7 30.65 6.35 7.3-6.35-7.3" transform="translate(192.55 294)"/><path fill-rule="evenodd" fill="#a62d04" d="m61.35-61.6 3.45 1.45q-2.55 3.65-3.9 4.95l-.35-.3.3.4q-1.25 1.1-1.4.45-.2-.55-2-.55h-.1l1.45-2.3 2.55-4.1M6.9-189.2q-2.55 2.1-4.45 5.15l-2.3 4.35-.1.35-3.2-3.85.85-.75 2.45-2.2 2.3-1.8 3.55-2.5.9 1.25M-5.9-78.45q2.1-1.8 12.45-8.3Q.25-81.2.6-79.95l-6.5 1.5M58.8-57.5l1.75 2-1.75-2" transform="translate(192.55 294)"/><path fill-rule="evenodd" fill="#fde9d7" d="m-17.6-170.8 2-.5.65-.05v.2l-.65.15-.55.2-3.25 2.9-1.6 1.65 1.4-1.9.65-.8 1.35-1.85m-12.1 19.4.05.05-.1-.05h.05m-8.95 17.9.6.25.3-.4 1.3-.1 2.4.95q-2.55 3.2-1.95 7.2.05.6-7.35 3.6l3.3-.75 2.3-.35-2.75 1q-.6.3-4.3 1.05-2.8.05-4.75-.05-2.65-.1-6.9-1.7-2.4-1.2-3.7-2.6l-.2-.2-.6-.75-.2-.35-.05-.15q-.05-.55.3-1l.4-1.1.25-.95.95-1.35q-.2 2.8 1.35 2.85l2.15-.7.15-.05.1-1.35.15.05-.05-.45.35 1.95 1.3.05q1.35-.45 2.5-1.05l3.55-.15-.75 1.95.75-1.95 1.45-.2-1.7 1.65-.5.5q-1.1 1.15-1.3 2.55v1.35q.95 1.5 2.7 1.15l.45-.2 1-.15q1.1 1.15 2.6.8l2-1q1.85-.7 2.75-1.95.8-1.15.9-2.8.7-.7.85-1.7.25-1.6-.75-2.7l-.6-.35-.75-.35m8.2-7 .5.45-.25.15-.25-.6m-20.15-38.2q.5 0 .85.35h.05l.15.25-.75.75-.65 1.35v-.05l-.3-.35-.15-.1-.3 1.05q-.3.9-2 1.15-1.7.15-4.95 1.95l-.85.8q.25-.3.05-.15l.25-.8.3-.2 3.25-2.35.7-1.05 1.1-1.15 1.25-.85.3-.15 1.7-.45m-5.15 50.6-.05-1 .05 1m-5.4-55.45.05-.05.1.05h-.15m8.7 11.7.1.7v-.05l-.1-.65m-19.15-1.3-.45.6-.35-2.1.8 1.5m14.4 13.7.65-1h.05l-.7 1m-10.7-24 .15-.05-.3.25.15-.2" transform="translate(192.55 294)"/><path fill-rule="evenodd" fill="#eec59b" d="m-11.8-158.95-.45.5.05-.4.3-.05.1-.05m-2.2 2.4 1.2-2.25.45-.05h.1l-.05.45v.15l.05-.1.65-.65.7.3.6.25.45.65.35.8v.05l-.3.5-.1.2-1.5 2.9-6.75 4.95q-2.6 1-4.7 3.2-1.15 1.1-2.1 2.55L-27-139.8l-1.2 1.6-.3.3-.85.55-1.4.7-.3.1q-1.5.65-2.45.5-.65-.05-2.15-1.05l-.15-.15-1.5-1.1-3.1-2.15-.25-.2-2-1.45-4.95-4.7-1.05-.65-.65-.5.1.65q-.85.1-1.7-.35-.85-1.1-.95-2.1l-.05-.55.15-1.45q.3-1.5 1.15-3.1 1.25-2.4 3-3.6l.75-.4.15-.1 1.8-.15 1.1.8.85.45-.15.15q-.35.2-1.45-.85-1.95 1.5-2.75 3.3-.75 1.7-.7 3.25l.2 2.15q3.55 4 7.15 6.3 3.45 2.5 7.3 4.6 1.45-.05 3.15-.9l.25-.15-.5-.45q4.6-4.9 5.85-7.95l.15-.45.85 1.5q6.65-4.45 9.6-9.05v-.1m4.5-.45-.3.55.3-.55m-41.75 6.5q.65 1.5 1.95 2.5-1.3-1-1.95-2.5" transform="translate(192.55 294)"/><path fill-rule="evenodd" fill="#691003" d="m-31.6-176.7 7.45-.2 1.35 1.25-2.65.05h-3.35l-3.05-.15 3.05.15h4.2l-.35.45-1.05 1.05-.7.6-4.55-.1-.2-.35q-.5-.85-.4-1.8l.25-.95m-11.3 3.35.3.35.7 1 .1.2v.1l-2.6 2.15-.65.75-.55.3q-1.55.75-3.1 1.25l-.35-.25v-.3l3.2-2.9.25-.2.15-.05-.05-.05 2.6-2.35" transform="translate(192.55 294)"/><path fill-rule="evenodd" fill="#ad0101" d="m-47.15-185.6.4 1.4-.15.05-2.05.9-1.15.8-.65 2.6h-.1l-2.2-.25-.85-1.25q-1.2-1.55-2.55-2.1l-.45-.15-1.35-2.7q1.65-1 3.4-2.1l2.3-1.35 1.8 3.75-.15-3.55 2-.85 1.75 4.8" transform="translate(192.55 294)"/><path fill-rule="evenodd" fill="red" d="m-47.15-185.6 1.6 4.45-.1.5-3-2.1 1 3.2-2.05 1.2h-.05q-.35-.35-.85-.35l-.15-.8v-.35l.65-2.6 1.15-.8 2.05-.9.15-.05-.4-1.4" transform="translate(192.55 294)"/><path fill-rule="evenodd" fill="#fff" d="m-45.65-180.65-.25 1.4-2.45 1.55h-.05l-.65.45-1.9 1.25.65-1.35.75-.75-.15-.25 2.05-1.2-1-3.2 3 2.1m-3.25-9.75-2 .85.15 3.55-1.8-3.75-2.3 1.35q-1.75 1.1-3.4 2.1l1.35 2.7-3.15-3.3 7.2-5.5 3.6 1.05.35.95m-9.8 3.4.45.7-.45-.7m3.45-2.35.4.95-.4-.95m4.35-.7v.5-.5m-1.65.3-.15-.5.15.5" transform="translate(192.55 294)"/><path fill-rule="evenodd" fill="#ae8051" d="m-44.8-121.05 5.95-.45.7-.1.05.05.35.2.05.05.55.4-.55-.4-.05-.05-.35-.2.05-.05q1.45-.2 3.55-.95l2.75-1.05 1.65.65v.05l.35.15-.55.4-4.75 2.8-.4-.3-1.15-.7 1.3-.6-1.8.3-.05-.05-.25-.2v.3q-15.4 2.55-21.95-1.1l-.2-.1-.7-.4-.1-1.15v-.15l-.25-1.15-.05-.4.5-.15q1.3 1.4 3.7 2.6 4.25 1.6 6.9 1.7 1.95.1 4.75.05" transform="translate(192.55 294)"/><path fill-rule="evenodd" fill="#c59f7c" d="M-38.15-121.6h.1l-.05.05-.05-.05m2.7 1.75.4.3h-.05l-.35-.3m-25.5-6.5.6.75.2.2-.5.15.05.4-.2-.75-.1-.2-.05-.1-.05-.2-.05-.15.1-.1" transform="translate(192.55 294)"/><path fill-rule="evenodd" fill="#a27948" d="m-35.05-119.55 4.75-2.8.55-.4.9.4.2 1.6.8 5.5-5.65 2.05-.2-1.15-.75-4.45-.05-.4-.55-.35.55.35.05.4.75 4.45-.75-3.95q.45 5 .1 5.65-.25.35-2.6 1l-9.25 2.15q-7 1.45-7.95 6.65-2.6 3.3-4.85-1.4l-.1-.95-.8-1.4q.05-.75-.45-1.15-1.95-1.7-4.25-2.9.35-.95.2-2.6 1.8-1.25 2.65-2.6.85-1.4.65-4.5l1.65-1.45.1-.1q6.55 3.65 21.95 1.1v-.3l.25.2.05.05.5.3-.5-.3 1.8-.3-1.3.6 1.15.7.35.3h.05m-18.95 9.1q8.9.95 18.4-1.85l1.25-.35-1.25.35q-9.5 2.8-18.4 1.85m1.55-6.3q8.35.45 15.3-1.25l2.7-.8-2.7.8q-6.95 1.7-15.3 1.25m26-11.05-.6-.4.3.2.3.2m5.9 9.2-1.1.7-1.8 1.1 2.9-1.8m-40.6-8.1.2.35-.1.1-.1-.45M-12-.95l-1.05-2.7.15.45q8.7-2.95 17.8-3.4l-.05-.25.05.3.05.85L-12-.95" transform="translate(192.55 294)"/><path fill-rule="evenodd" fill="#785736" d="m-31.75-123.6 2.7-1.8.25-.2.65-.5v-2.8l.55.35.55.35.6.4 1.4.95.35.95 2.6 1.25 1.55 6.05-2.9 1.8 1.8-1.1.4.95q1.7.4-1.7 2.7l-.6.4q-1.65 1.05-5.3 2.3l-3.45 1.1-.05.05-.35.1-1.65.5h-.15l-.4.15h-.15l-1.25.35-4.1 1.1-8.4 2q-1.9.4-2.1 1.65l-.15.75q-.25 1-.8 1.4-1.9 1.4-2.85 1.75l-4-.2-.75-.35q-1.7-.9-2.5-2.7-.8-1.65-.6-3.1.1-.85-2.6-2l-1.2-.45-.15-.05-.35-.15-1.1-3.3.4-.1q1.7-.3 1.35-3.4 2.3-1.3 2.6-4.45v-.1l.8.45.05.05-.85-.55v-.05l1.05.35q1.55-.05 2.3-1.55v-.1l.7.4.2.1-.1.1-1.65 1.45q.2 3.1-.65 4.5-.85 1.35-2.65 2.6.15 1.65-.2 2.6 2.3 1.2 4.25 2.9.5.4.45 1.15l.8 1.4.1.95q2.25 4.7 4.85 1.4.95-5.2 7.95-6.65l9.25-2.15q2.35-.65 2.6-1l.85-.3.35 2-1.2 1.15 1.2-1.15-.35-2-.85.3q.35-.65-.1-5.65l.75 3.95.2 1.15 5.65-2.05-.8-5.5-.2-1.6-.9-.4-.35-.15v-.05l-1.65-.65m3.1 2.85 4.6-3.5-.65-1.65.65 1.65-4.6 3.5m5.2 3.95-4.15 2.6-1.25 2.65 1.25-2.65 4.15-2.6m-10.05 3.85v-.25.25" transform="translate(192.55 294)"/><path fill-rule="evenodd" fill="#fa7d5f" d="m18.15-141.1 1.3-.9q4.1-1 4.1-.55 5.1-2.35 14.75-4.9 9.6-2.5 12.35-1 2.7 1.55 9.75 3.6l-5.35-.25-.5 1.5-.3 1-1 2.9-.65-.2-16.85 5.65-.4-.15-1.85-.6-.4-.3q-2.35-1.75.7-7.75l.05-.05h-.1l-.15.05h-.1l-5.8 7.6q-1.25-1.65-9-4.4l-.55-1.25m15.3-6.25 4.75-2v.05l-.15.1q-2.25 1.2-4.6 1.85m.05 4.3q-7.2 1.85-8.6 1.55l-1.4-.3q1.85 2.05 4.8.85l5.15-2 .05-.1m.1 0 .95-1.35-.7 1.3.7-1.3-.95 1.35m5.7 10 17-2.1h.55l.85-.05 4.2-.45.35-.05h.05l.45-.1 5.5-2.6.2-.25.8-1.2.55.6-.55.55-.5.95q1 2.35 3.8 3.9l2.65 1.1-12.5.9-3.6.25-12.5.7-3.9-1-2.2-.75-1.05-.4h-.15" transform="translate(192.55 294)"/><path fill-rule="evenodd" fill="#f9bf60" d="m-3.8-19.95 3.2.75h1.95l.45.25 1 .5 10.55 3.2.25.05.4.45q.4.5.3 1.05l-.1.6-.25.1q-38.25-11.9-32.2-11.05l1.65.25q-10.95-4.75-18.55-9.25-20.15-12.75-33.5-32.7v-1.15l-.2-.15 5.2.2-.1.1-2.3 1.95-.3-.45.3.45q1.2 1.8 7.35 8.4l1.35 1.45.1.1 2.3 2.45L-44-41.15l1.65 1.55.45.35.6.45.6.45.95.7 3.3 2.1 4.2 2.5 1.75.95.15.15L-26.6-30l6.05 3.05q10.9 5.25 16.75 7M19.45-142l13.25-5.1.7-.25h.05q2.35-.65 4.6-1.85l.15-.1v-.05l6.35-2.65 23.35 6.25.3.1 5.55 1.45-13.35-.65q-7.05-2.05-9.75-3.6-2.75-1.5-12.35 1-9.65 2.55-14.75 4.9 0-.45-4.1.55m14.05-1.05-.05.1-5.15 2q-2.95 1.2-4.8-.85l1.4.3q1.4.3 8.6-1.55m-.05-4.3-.75.25.75-.25m36.35 8.1q3.15 3.6 4.9 5.25l.95.8.9.65-1.55.1-2.2.1 2.4-.4-2.65-1.1q-2.8-1.55-3.8-3.9l.5-.95.55-.55" transform="translate(192.55 294)"/><path fill-rule="evenodd" fill="#e43307" d="M16.6-141.75q.1.6.6 1.1l1.5.8q7.75 2.75 9 4.4l5.8-7.6h.1l.15-.05.05.05q-3.05 6-.7 7.75l.4.3 1.85.6.4.15 2.7.9.85.3h.15l.2.15.45 1.8-17.3 2.15q-2.2-1.95-4.8-3.15l-.4-.2-1.4-.9q-1.1-.95-.8-2 .5-1.75-8.05-9.05 7 2.4 8.85 2.55l.4-.05m17.85 7.45-.95-.7.95.7M-61.9-45.45l.45.15.8.4q6.3 9.05 14.3 17.1l.75.95Q-36.05-20.5-26-15.4q10.3 2.25 20.2 5.6l-5.8-.05.3-.8-3.1.65-1.25-.05-2.7-.2-.25-.05-13.95-2.3-.5-.1-1.9-.75q-5.55-2.2-10.1-6.05l-.5.05-1.1.6-1.5-1.2-3.55-3.3-3.45-3.8-.9-1.15-3.45-4.95-1.5-2.6v-5.35l-.9-4.25m105.4-17.7-.8 3.8q-7.05 5.7-16.45 8.7-2 .65-3.05-1.15-.3-.6-.3-1.3l.1-.6.7-.25.7-.25 2.55-1.15 3.55-1.9q4.1-2.65 13-5.9M23-53.7l.7-.25-.7.25" transform="translate(192.55 294)"/><path fill-rule="evenodd" fill="#768e9a" d="m-60.4-222.25.25.15h-.4l-.15.05.05-.05.2-.15h.05m-.05 0 .3.15-.3-.15m-2.2 3.85.1-3.3-.1-.1.25.05q5.85 4.15 9.35 11l-6.05.05v.55l-2.6.7-.45.35-.35.6-.05-.2-.05-.55-.05-.15-.1-1.65v-5.05l.1-2.3m1.95.85q-.75 3.1-1 8.1.25-5 1-8.1m-9.55 4.8 1.3.25 1.15.35.8.35 2 1.25.2.15.1.05 1.8 1.8.15.1v.05l.1.1h.05l-1.25 1.8-1.3-.65-3.5 3.65v2.15l.25 1.8.45 1.5v.05l.15.3 1.25 2.75.6.8.2.3v.05l.9 1.15 1 2.35q1.15 3.05 1.3 6.15l-3.05-.05-2.15.7-.15.05-3.2-4.45-.2-.35v.1h-.05l-.85-.3-.8-1.3-.5 4.15q-.55-1.45-.7-4.55-.25-4.8.95-9.35l.3-1.3.45-2.6q.35-3.05 0-5.85l-.75-3.4 3-.1m-1.95 18.6q.1 3.4.9 5.9-.8-2.5-.9-5.9m1.05-6.3.2 1.3.05.1v.1q.7 3.9 2.3 7.25l.4.7 2.35 3.6-2.35-3.6-.4-.7q-1.6-3.35-2.3-7.25v-.1l-.05-.1-.2-1.3m2.5-3.65v.6-.6m-1.55-5.35 5.05 2.3-5.05-2.3" transform="translate(192.55 294)"/><path fill-rule="evenodd" fill="#9daeb7" d="m-62.15-209.1.45-.35v.4l-.45-.05m-9.1 21-.05-.15.2.35-.1-.1-.05-.1" transform="translate(192.55 294)"/><path fill-rule="evenodd" fill="#fc3" d="M-56.45-183.45q1.35.55 2.55 2.1l.85 1.25.2.45.25.7.3.7-.3.15-1.25.85.35-.3-3.25 1.3-2.6.1q-1.15-.55-2.3-2.2-.5-2.05-.3-3.6l.8-1.6h.15l1.15-.2 2.95.15.45.15" transform="translate(192.55 294)"/><path fill-rule="evenodd" fill="#ad7901" d="M-61.65-178.35q1.15 1.65 2.3 2.2l2.6-.1 3.25-1.3-.35.3-1.1 1.15-.7 1.05-3.25 2.35-.3.2-.55-1-.1-.2v-.1q-1.3-2.5-1.8-4.55" transform="translate(192.55 294)"/><path fill-rule="evenodd" fill="#600" d="m-53.05-180.1 2.2.25h.1v.35l.15.8-1.7.45-.3-.7-.25-.7-.2-.45" transform="translate(192.55 294)"/><path fill-rule="evenodd" fill="#f3d73a" d="m-52.65-155.9-.25.55q-1.45 2.7-1.75 5.25l-3.55 1.75q-1.3-1-1.4-3.45 3-2.95 6.95-4.1m.1-8q1.6-.8 2.8-.4v.05l1.65 1.1.3.15q-2.35 2.15-5.2 4l-4.7 2.75-1.4.95.25-.65-.25.65.25-.65.2-.7.8-1.65.05-.1.6-1.05.7-1q1.25-1.75 2.85-2.8l.4-.3.7-.35" transform="translate(192.55 294)"/><path fill-rule="evenodd" fill="#f9922b" d="M-45.1-161.3q-1.2-.35-2.65.4l-1 .55-1.6 1.35-2.05 2.75-.05.05-.1.1v.1l-.1.1q-3.95 1.15-6.95 4.1v-.25q0-1.6.5-3.25l1.4-.95L-53-159q2.85-1.85 5.2-4l2.7 1.7m-9.55 11.2v1.8q.15 1.35 1.3 2.9l-4-2.5-.6-.3-.25-.15 3.55-1.75" transform="translate(192.55 294)"/><path fill-rule="evenodd" fill="#001e3c" d="m3.7-26-.4.4-1.1.95-2.9 2.35-.2.15-2.9 2.2q-5.85-1.75-16.75-7L-26.6-30l-3.75-1.95-.15-.15-.05-.05-.6-1.55-.2-.55q11.65 3.75 22.85 9.1l.2.2L3.7-26l-.4.4.4-.4m-26.65-88.25.95 2.2.15.25-.85.5q-9.25 5.25-19.35 7.6l-.7-.1-7 4-4.75 3q-.6.4-1.1.65-2.75 1.3-5.25-.3L-61-98.6l.15 2.15-1.25-1.05-.9-.65q.25 3.45.15 7.05-.1 1.8-.35 3.55 3 2.9 2.95 7.65-.1 7.15 1.4 14.05.65 2.85 1 5.65 5.35 3.05 10.2 6.9 3.8 3 8.6 3.85l-.7-4.75-.45-2.55q-1.2-5.15-3.25-10.15-1.6-4.2-4.05-8-2.4-3.8-4.2-7.9l.8.3q.95.2 2 0h.25q.5 2.6 1.3 4.3l.1.25 2.2 4.05 1.95 3.9q3.85 7.45 4.25 9.45.25 1 1.9 4.7 1 2.25 1.15 3.75l.05.45-.05.4q-.2 1.95 1.95 9.3v.1l.15.45v.1l1.65 5.2.25.65-.25-.65.25.6v.05l-.25 1.9-.2.5-4.2-2.5-3.3-2.1-.95-.7.95.7-.95-.7-.3-.6-.3.15-.6-.45-.45-.35-.25-1.15-1.4-.4-10.95-11.25-2.3-2.45-.1-.1.1.1-.1-.1-1.35-1.45-.95-4.25-1.5-7.6-.1-.65-.45-2.55-.05-.3v-.1L-63.3-81q-3.7-5.55-3.85-7.65-.15-3.1.3-13.35l.35-7.15.15-.3 1.2.45q2.7 1.15 2.6 2-.2 1.45.6 3.1.8 1.8 2.5 2.7l.75.35 4 .2q.95-.35 2.85-1.75.55-.4.8-1.4l.15-.75q.2-1.25 2.1-1.65l8.4-2 4.1-1.1 1.25-.35h.15l.4-.15h.15l1.65-.5.35-.1.05-.05 3.45-1.1q3.65-1.25 5.3-2.3l.6-.4m-27 10.65.2 3.8-.2-3.8m-4.35 14.7.7 3.6-.65-.45q-2.5-1.45-.1-3.1l.05-.05m17.8 48.15-.1.05.15.1-.4-1.1.35.95" transform="translate(192.55 294)"/><path fill-rule="evenodd" fill="#036" d="m4.1-26.35-.25.2-.15.15-12 1.05-.2-.2q-11.2-5.35-22.85-9.1l.2.55.6 1.55.05.05-1.75-.95.2-.5.25-1.9.65 1.75-.65-1.75v-.05l-.25-.6-1.65-5.2v-.1l-.15-.45v-.1q-2.15-7.35-1.95-9.3l.05-.4-.05-.45q-.15-1.5-1.15-3.75-1.65-3.7-1.9-4.7-.4-2-4.25-9.45l-1.95-3.9-2.2-4.05-.1-.25q-.8-1.7-1.3-4.3h-.25q-1.05.2-2 0l-.8-.3q1.8 4.1 4.2 7.9 2.45 3.8 4.05 8 2.05 5 3.25 10.15l.45 2.55.7 4.75q-4.8-.85-8.6-3.85-4.85-3.85-10.2-6.9-.35-2.8-1-5.65-1.5-6.9-1.4-14.05.05-4.75-2.95-7.65.25-1.75.35-3.55.1-3.6-.15-7.05l.9.65 1.25 1.05q2.5 1.6 5.25.3l1.2 6.5-5.1-2.05q-1-2-1.35-4.75.35 2.75 1.35 4.75l5.1 2.05-1.2-6.5q.5-.25 1.1-.65l4.75-3 .3 9.75.5 5.45.3 2.1-.3-2.1-.5-5.45-.3-9.75 7-4 .7.1q10.1-2.35 19.35-7.6l.85-.5-.15-.25.75 1.55.2.4q-1.05 2.55-4.45 4.65l-.9.65q5 10.75 7.65 15.55l.15.25h-.15q-1.4.1-2.45-.45l-2.25-3.5-.25.15q-3.6-4-6.85-8.1-7.2 6.7-15.2 12.25 11.4 10.3 12.8 26.95l.1 1 .55 7.85q12.75-16.95 14.25-19.8l.4.25.55.85.45.85q-3 8.7-14.4 21.1 2.3 2.8 2.8 6.55.25 1.5.1 3Q-26.7-38.3-26-36.3l28.8 8.85.75.35.55.75M-41.3-38.8l.3-.15.3.6-.6-.45m-13.1-50.85 1.05 5.6q.75.85 1.65 1.25-.9-.4-1.65-1.25l-1.05-5.6m.1.75-.05.05q-2.4 1.65.1 3.1l.65.45-.7-3.6m23.85-15 7 10.95-7-10.95m10.9 30.75.4.1-1.1.45q-1.5.6-6.3-7.2 6.1 7.05 7 6.75v-.1m-16.95 32.4-.35-.95.4 1.1-.15-.1.1-.05" transform="translate(192.55 294)"/><path fill-rule="evenodd" fill="#e8e1d0" d="m-66.5-109.5.15.05-.15.3v-.35" transform="translate(192.55 294)"/><path fill-rule="evenodd" fill="#7b1c04" d="m-61.25-68.9.1.65 1.5 7.6.95 4.25q-6.15-6.6-7.35-8.4l2.3-1.95.1-.1 2.4-2.05" transform="translate(192.55 294)"/><path fill-rule="evenodd" fill="#543d25" d="m-56.05-28.3.9 1.15 3.45 3.8 3.55 3.3-8.3 3.05-4.35-1.3-3.15-4.9 7.9-5.1" transform="translate(192.55 294)"/><path fill-rule="evenodd" fill="#0255a8" d="m-19.55-106.75 4.75 10.35 1.45 3.9-2.45 4.3-1.05 1.75-.1.15-.35.6q1.05.75 2.15 2.4v5.35l1 2.45.75 1.6.25.4 1 1.6 5.45 7.95q1.45 2.25 2.65 6.55l.05.15.4 1.25.15.65 1.3 3.25.8 1.5 3.55 6.05.85 1.55Q1.3-41.4 2-32.5l-2.2-9q-.8-4.4-6-13.05-5.4-19.65-5.2-6.15.15 13.45-6.1-24.25l-.7-1.4q-3 3.05 3.7-5.95-8.45-14.75-6.8-12.55 1.6 2.2 2.1 1.75-1-2.15-.35-3.65m1.15 59.5v-.85q1.6 3.95 7.05 11.1-5.1-.2-6.45-2.1-.15-4.25-.6-8.15m7.65 8.05.95-.2-.85-.15q.05-5.1-.35-8.15 1.85 5.4 2 6.7.1.55 2.85 2.95l-3.35-1.2-1.55.65.3-.6" transform="translate(192.55 294)"/><path fill-rule="evenodd" fill="#d5c8aa" d="m-21.25-110.5.2.4-.2-.4" transform="translate(192.55 294)"/><path fill-rule="evenodd" fill="#014383" d="M5.65-38.15v.05l.25.3 1.9 3.25-3 1.75q1.45 2.9 1.5 3.6 0 .75-2.2 2.85l-.55-.75-.75-.35L-26-36.3q-.7-2-2.15-3.75.15-1.5-.1-3-.5-3.75-2.8-6.55 11.4-12.4 14.4-21.1l-.45-.85-.55-.85-.4-.25q-1.5 2.85-14.25 19.8l-.55-7.85-.1-1q-1.4-16.65-12.8-26.95 8-5.55 15.2-12.25 3.25 4.1 6.85 8.1l.25-.15 2.25 3.5q1.05.55 2.45.45h.15l-.15-.25q-2.65-4.8-7.65-15.55l.9-.65q3.4-2.1 4.45-4.65l1.5 3.35q-.65 1.5.35 3.65-.5.45-2.1-1.75-1.65-2.2 6.8 12.55-6.7 9-3.7 5.95l.7 1.4q6.25 37.7 6.1 24.25-.2-13.5 5.2 6.15Q-1-45.9-.2-41.5l2.2 9Q1.3-41.4 3.05-43l2.2 4.15.4.7m-49.65-3 1.4.4.25 1.15-1.65-1.55m23.15-47.7-.35-.6.35.6m1.3 15.7v.1q-.9.3-7-6.75 4.8 7.8 6.3 7.2l1.1-.45-.4-.1m1.15 25.9q.45 3.9.6 8.15 1.35 1.9 6.45 2.1-5.45-7.15-7.05-11.1v.85m7.65 8.05-.3.6 1.55-.65 3.35 1.2Q-8.9-40.45-9-41q-.15-1.3-2-6.7.4 3.05.35 8.15l.85.15-.95.2" transform="translate(192.55 294)"/><path fill-rule="evenodd" fill="#965e50" d="m-5.8-9.8 9-.7.75-.15.9 3.8.05.25q-9.1.45-17.8 3.4l-.15-.45-.15-.5-.1-.5v-.1l1.7-5.1 5.8.05" transform="translate(192.55 294)"/><path fill-rule="evenodd" fill="#715133" d="M-13.05-3.65-12-.95q1.55 2.85 4.3 4.4Q-1 2.8 5.05.05l-.1-5.75-.05-.85.6 2.7 1.6 3.1Q8 .7 7.8 1.5q-.3 1.15-6.85 4-2.4 1-5.85 1.1l-4.9-.45q-1.8-.5-3.8-6.65-.4-1.4.3-4.25v.1l.1.5.15.5" transform="translate(192.55 294)"/><path stroke-width=".05" stroke-opacity=".224" stroke-linejoin="round" stroke-linecap="round" stroke="#630" fill="none" d="m269.9 160.35.05.1m0 1h-.85l1.05.55q2.3 1.5 4.4 5.45 1.5 2.95 2.05 6.45.9 6.15-1.4 13.95-3.6 12.25-4.25 20.6l-.75 8.1-.2 1.4-.8-1.6-.35.5-.85 1.3m-.15.2-2.05 3.1-6.65 9.85-5.25 1.1 3.45 1.45q-2.55 3.65-3.9 4.95l-.05.05v.05q-1.25 1.1-1.4.45-.2-.55-2-.55h-.1q-3.55 0-14.65 1.85l-1 .75-3.7 2.95q.65-.55.95-2.3l.2-1.45-1.85 2.1q-6.1 6.3-12.65 8.1l-16.3 4.35-1.55.4-1 .3h-.15v.05l.25.3 1.9 3.25-3 1.75q1.45 2.9 1.5 3.6 0 .75-2.2 2.85m-.25.2-.15.15-.4.4-1.1.95-2.9 2.35-.2.15-2.9 2.2 3.2.75h1.95l.4-.05q6.05-.8 22.15-6.9 10-3.85 19.1-7.75l13.8-3.65L251 256l2.1-.55q9.15-3.5 9.95-4 1.25-.9 2.9-1.25l.95-2.1 1.4-.45 3.2-.3q4.6.4 5.35 5.9-1.45-2.75-4.6-3.15-3.7-.55-6.3.1l-.6 1.25q-.3 1.5-1.95 3.6-2 2.5-4.15 3.1-3.05.7-8.25-2.15m21.6-81.35q-.25 5.55-5.85 13.75l1.15-7.95 2.05-3.15 2.65-2.65m-56.35-82.4-2.15-.05-5.35.85-9.4 2.6L195 97.1l-2.3.8-6.1 1.95q-3.25.9-6.1.95l-2.3-.1-.1-.05h-.05l-1.35-.4q.45 1.1 1.25 2.05 1.65 2.1 4.65 3.6l-3.4.95 2.55 2.7h.05-.05m.55.1 3.65.15m30.3-17.55 3 .1 2.2.35q.7.2 1.25.6.9.65-1.25.95l-1.55.15q-4 .25-10.15 3.4l-1 .5v.05q-5.05 2.8-9.3 6.45-2.55 2.1-4.45 5.15l-2.3 4.35-.1.35q-1.4 3.25-2.1 5.85l-.9 4.1q-.3 3 .4 5.85l.4 1.3v.2l1.15 3.05.35 1q.75 1.9 1.45 3.1l.15.15q.65 1.25 1.5 2.25l.1.15.15.15 2.4 2.1q.2.15.45.25l3 1.55 22.6-6.35q-15.25 9.1-14.55 12.9.1.6.6 1.1l.95-.45 1.3-.9 13.25-5.1.75-.25 4.75-2 6.35-2.65 23.35 6.25m.3.1 5.55 1.45.55 1.75.3.8 2.7 7.7M202.65 101q3.35-1.9 6.1-2.85l1-.35m-60.1-32.25 2.4-1.6v-.05l.25-.15.05-.1.9-.65.45-.35 3.05-2.6m-7.4 5.7.3-.2m-.3.2-.25.1q-1.9.8-6.5.85l-3.95.5 2.15 1.2m-10.45 2.2.4.25m.15-.25 1.25 1.15.25.15-.3-.15m34.85-2.85-1.6-.8-3.65-1.45q-2.85-1.1-5.95-1.4h-.05l2.85-1.85-6 1.7-.65-.15m.5-.55v-.05l-.1-.6m.25 1.35-.15-.7-.25.3-.25.25m3.85.3 1-.55.9-.25.1-.05q3.25-1 6.65-.5m2.55 5q3.65 1.85 6.2 6.4l.2.3v.05-.05l3.3-2.5.15-.1.35.55.4.5-2.85 5.6-.05.1.4 4.45q.05 1.45.9 2.5 1.3 1.85 4.35 2.45l-5.1 2.8.05.45.2 4.1.3.65v.1-.05l2.9-3.75q.85-.55 1.35-.5.45.05.45.75l-.05.3-2.2 6.7m-15.9-16.65-.2.15.15.3v.05l.7 1.5 6.8-6.25m-3.9 1.55-3.55 2.7m.6 2h.05l1.3 3.05m.15.4.15.35.35.85 2.65 1.7.6.45 1.2-2.4.1-.25.1-.2 5.1-10.25m-4.8 1.4.15-1.6-.25.25M170 81v.05V81l.1-.45-.1.5-.45 1.55.3-1.45.15-.1m-.4 1.6.4-1.6m.5-.35-.5.3m-.9 3.55.5-1.9m-1.2 7 .7-5.1m2.55-7.65 1.7-1.25m-1.7 1.25-5.8 4.45m-12.45 12 .3-2.7m8.4 23.3q-1.1-.65-3.4-5.45-2.25-4.8-2.45-3.95-.2.85-.65 1.35l-.45.45-.05-.2q-1.05-3.7-1.45-6.9-.4-3.1-.25-5.9l-10.65-11.9-2-2.25m-1.25 4.05.85 1.8 1.15 2.55m4.7 4.65 1.45-1.25m26.6 1.45-.8.1m1.75-.6-.95.5m24.3 11.1.05-.05 1.65-1.05.75-.45.45-.3.25-.15.95-.55m-25.95-.75-.95-3m13.65 13.55.85-.75 2.45-2.2 2.3-1.8 3.55-2.5m-19.05 7.2q.55-.1.85-.5l-.85.5-5.55.15-2.6-.2-2.7.75m.05.25q1.25 1 2.7 1.65l.65-.5m9.95-3.25h-.05l-.15-.05m0 .15.2-.1.3.05m-1.95.6 1.45-.55m-5.9-4.5 2.05 2.5q1.45 1.35 3.8 1.85m-4.35 7.4-.75.2.4.1m.35-.3 2.75-1q5.05-1.5 9.25-5.15m-11.8 11.85 2.05.4.05.05q1.45.8 2.55 1.8 1.15.95 1.85 3.25-1.5-7.15-2.1-7.65-2.8-2.45-4.95-3.25m-2.1 5.95 2-.5.65-.05m-14.7 20 2.3 1.55m18.9-16.05.2.75.35 1.55.05.15.15 2.1v.9l-.15 1.4v.1l-.4 2.95-.45 2.2-2.5 8.35-.4.8 1.95.6 4.3 1.65.65.25 4.85 2.25q6 2.9 10.6 6.45l3.5 2.1 1.95 1.3.3.2 1.65 1.15.25.3 4.15-.55m-21.45-25.15-6.35-7.3m-2.6-2.05-.05-.15-.45-1.85-.1-.45m-1.05 8.85 1-2 .8-1.4m-2.1 3.95-.1.2-1.5 2.9-6.75 4.95q-2.6 1-4.7 3.2-1.15 1.1-2.1 2.55l-2.05 2.85-1.2 1.6-.3.3-.85.55-1.4.7-.3.1q-1.5.65-2.45.5-.65-.05-2.15-1.05l-.15-.15-1.5-1.1-3.1-2.15m-.25-.2-2-1.45-4.95-4.7-.35.35-.8.55q-.65.45-1.25.75l.7 3.7-.35.35-.25.15-.4.35-.75 3.85-.35 1-.65.1q-2.75.45-3.6 1.2-.55.45-3.85 1.95v.35l.2.95q-.2 2.8 1.35 2.85l2.15-.7.2-1.4v-.1l.05-.15-.1-1.45-.1-.5m10.95 11.65 5.95-.45.7-.1h.1q1.45-.2 3.55-.95l2.75-1.05 2.7-1.8.25-.2.65-.5v-4.6l1.45-2m-16.25-25.2-.85-.45-1.1-.8-1.8.15-.15.1-.75.4q-1.75 1.2-3 3.6-.85 1.6-1.15 3.1m-.15 1.45.05.55q.1 1 .95 2.1.85.45 1.7.35m-.1-.65q-1.3-1-1.95-2.5m41.45-5.95.3-.55m10.6 2.95 1.35 1.55m-23.65-30.8-1.6-.15m-2.25 0 1 .95.15-.05m-1.9 2.1-2.35-1.3-3.05-2.45m5.4 3.75h.05q1.5.65 2.95.8l1.55-.2 1.4-.15-1.3-.65m-8.5 1 1.5.8m-1.5-.8-.8-.4-.85.05m1.65.35-1.6 2.05-.35.9m8.8 1.05 1.55-.15 1.4-.6q.8-.45 1.6-.55l.35-.1 2 .2m-14.55-3.2.75-.05 3.9-.35m-6.05 4.7 3.05.15h3.35l2.65-.05m-7.45 3.35-.85-1.05v-.1l-.1-.05-.05-.1v-.05l-.2-.3q-.5-.85-.4-1.8l.25-.95m.35 3.1 4.55.1m-3.2 1.8-.35-.6m.35.6.1.15 3.1.25 2.4-2.2h-2.4M149 133.8l5.65-.65 4.45-1.1.2-.15.05-.05 5.2-4.3.05-.05 6.05-4.95.3-.25m-2.25-10.6-.2-.2m-23.1-3.1 1.6 4.45-.1.5-.25 1.4-2.45 1.55-.7.45-1.9 1.25-.1.15-.65 1.3 1.7-.15h.35l.1-.05.6-.05h2.05l.7-.1.25-.05.4.15.35.1q.95.35 1.65.85l.45.35.2.15.3.35.7 1 .1.2v.1q.65 1.35.7 2.55v.15q-.05.85-.35 1.65l-.45.7-1.55 2.3q1.7-1 3.45-2.1M145.6 119l.8-.4q1.9-.95 3.35-1.8 2.25-1.35 3.3-2.4l.2-.2.55-.45m-8.4-5.35-1.75-4.8-2 .85.15 3.55-1.8-3.75-2.3 1.35q-1.75 1.1-3.4 2.1l1.35 2.7.45.15q1.35.55 2.55 2.1l.85 1.25 2.2.25h.1m.15 1.15q.5 0 .85.35h.05l2.05-1.2-1-3.2 3 2.1m-1.3 5.65h.8l.2.05m10.15 5.85 6.85-1-.85-1.45m-15.7.55-.35.3-3.2 2.9m4-1 .65-.75 2.6-2.15m-1.1-1.65-2.6 2.35m.45 2.2q-1 1.3-.65 2.15.65 1.65 1.5 2.3h.75m.65 6.55.8.4q3.95.35 6.6-.15l1.7-.5 1.75-.95q2-1.5 5.85-4.55l3.45-2.7 1.15-1.4m-21.45 9.75.15.1-.15-1.2-.6-1.2-.35-.4-.6-.45-.1-.1-.5-.15q-1.2-.35-2.65.4l-1 .55-1.6 1.35-2.05 2.75-.05.05-.1.1v.1l-.1.1m-.25.55q-1.45 2.7-1.75 5.25v1.8q.15 1.35 1.3 2.9l.45.2q1.25.65 2.9 0m5.1-13.95.35.1.1.05.6.6.05.05m11.95 6.05 1-1.15 1.05-1.05.65-.65m-.6 3.75-2.1-.9m-10.15-5.1 5.45 3 4.05 1.8m14.9-18.2-1.85.7m-.15 1.95.65-.8m-1.05-.95.55-.2m-.55.2q-.25.15-.5.2m-4.55 10.95.1-.25.7-1.5 1.6-3.05 1.65-2.7 1.4-1.9m-9.35-1.95.05.4m2.15 12.55q.75.45 1.55-1.3l-1.4 1.15-.15.15-.6.45-.1.1-.1.05-1.6 1.4m3.95-3.3.15-.3m.95-5.85 1.45-1.65m-4.05-5.05-2.25 1.2m-.8 18.7.1.05m2.9 23.35 2.45-3.45V161l3.8-3.05.45-.3 5.75-4.9.6-.55m-34.8 13.65.75-1.95.5-1.35m-8.3.95-.1 1.35-.15.05.05 1m20.3 8.25.4.3.55.35.05.4.75 4.45.2 1.15v.25l-.85.3-1.25.35q-9.5 2.8-18.4 1.85m23.9-12.45v-.05l-1.65-.65m3.9 8.35-.8-5.5-.2-1.6-.9-.4m-5.7 2.9-1.15-.7-.5-.3-.05-.05-.55-.4-.05-.05-.35-.2-.05-.05m3.7 3.3.75 3.95m-.75-4.45-2.7.8q-6.95 1.7-15.3 1.25m25.4-11.45-.55-.35-.55-.35m1.1.7.3.2.3.2 1.4.95.35.95 2.6 1.25 1.55 6.05-1.1.7.4.95q1.7.4-1.7 2.7l.95 2.2.75 1.55m.2.4 1.5 3.35 4.75 10.35 1.45 3.9-2.45 4.3-1.05 1.75-.1.15-.35.6q1.05.75 2.15 2.4v5.35l1 2.45.6-.15q5.1-1.2 7.25-2.55l.4-.25q2.1-1.8 12.45-8.3-6.3 5.55-5.95 6.8l13.5-1.55L219 211l24.5-10.55.45-6.2.25-5 .05-2.95q.1-5.5-.5-8.45-.25-1.3-1.05-2.9l-.05-.2q-2.2-4.55-8.25-11.8l-.25-.25-1.5.2-17.3 2.15m-47.5 3.05.65 1.65-4.6 3.5m5.2 3.95 1.8-1.1m-7.2 6.35 1.25-2.65 4.15-2.6m11.85-27.8-.2.35q-.6 1.05-1.9 2.45m47.2-1.25-5.8 7.6q-1.25-1.65-9-4.4l-1.5-.8m16.65-2.45-.05.05q-3.05 6-.7 7.75l.4.3 1.85.6.4.15 16.85-5.65m.65.2 1-2.9m.3-1 .5-1.5 5.35.25 13.35.65m-39.9 1.1.7-1.3-.95 1.35m-.1 8.05.95.7m1.3.05 2.7.9.85.3 17-2.1m.55 0 .85-.05 4.2-.45m.35-.05.5-.1 5.5-2.6.2-.25.8-1.2.55.6q3.15 3.6 4.9 5.25l.95.8.9.65-1.55.1-2.2.1m-.85 4.7 3.85-1.2-6.85 5.1v-3l2.85-.9m-54-.65.6-.05m24.2-3.1-.8.1-.2.05-1.1-1.35-1.05-.4m-.15 0h.15m1.05.4 2.2.75 3.9 1 12.5-.7 3.6-.25 12.5-.9m-12.95-2.95-.35.05m-7.35-7.95-.3 1M129.9 72.2l.1.1-.1 3.3-.1 2.3v4.6m0 .45.1 1.65.05.15.05.55.05.2.35-.6m.45-.35q.25-5 1-8.1m-2.05-4.35.1.1m.25.05q-.1-.15-.35-.15l-2.95-1.75m4 14.6v-.4m8.65-1.3q-3.5-6.85-9.35-11m7.45 11.4.7.9m-19.1-6.45 2.05 1.3m-.2.05-1.75.45 1.85-.15q.85.15-2.05 1.1m3.2.4 1.3.25 1.15.35m.8.35 2 1.25.2.15.1.05 1.8 1.8.15.1v.05l.1.1h.05q.15.05.1-.2m-7.75-4.25-3 .1.75 3.4q.35 2.8 0 5.85l-.45 2.6-.3 1.3q-1.2 4.55-.95 9.35.15 3.1.7 4.55l.25.6m1.95-3.25q-.8-2.5-.9-5.9m.55-21.9h-.1l2.85-.35m1.9 4.6-.8-.35m5.15-6.25q-.25.15-1.05-.5t-7.95 2.85m3 12.55v2.15l.25 1.8.45 1.5V96m.15.3 1.25 2.75q2.15-1.05 3.95-.75l.65-.15m-1.9-10.65-1.3-.65-5.05-2.3m1.55 5.95v-.6m2.8 16.7-2.35-3.6-.4-.7q-1.6-3.35-2.3-7.25v-.1l-.05-.1-.2-1.3m8.25 6.15-.7 1.65m-4.15 9.15 2.15-.7 3.05.05q-.15-3.1-1.3-6.15l-1-2.35-.9-1.15v-.05m-.2-.3-.6-.8m14.85-7.65 4.25-4.2m-4.25 8.8 3.4-2.95.35-.2m.15-1.9-1.25-.4-3.3 2.15-1.8 3.75m-4.9 4.4v-.2l.3-.1q.35-.35 1.2-.7m-4.3 2.2 1.35-.95m2.35-.2-1.35 1.4.45-1.45m6.85-4.4-.85.75m-3.85 13.2-3.15-3.3 7.2-5.5 3.6 1.05.35.95m-6.5-9.4.65-1.25m2.05-.4-2.3 2.45m-5.9 4.7-1.85-.5m.6 3.1-1.1.8m-.6-15.6 1.3.85m-.05-2.65-1.25 1.8m2.15-2.55-.1 1.15m3.55 21.6-.45-.7m-3.1 3.55.65-.1.05-.05q-1.1-.6-1.45-.55m1.55.6h-.15l-.8 1.6q-.2 1.55.3 3.6t1.8 4.55v.1l.1.2.55 1 .3-.2 3.25-2.35.7-1.05 1.1-1.15 1.25-.85.3-.15-.3-.7-.25-.7-.2-.45m-8.05-3.5.1.05 1.15-.2 2.95.15m5.95 7.6.65-1.35.75-.75-.15-.25m-2.75 6.5-.1-.85-.05-.05.9-1.8m-.65 3.4v.05q0 1-.25 1.4l-2.2 3 2.25 2.8q1.6-.8 2.8-.4l.2-3.1.5-.4m-3.3-3.35-.1-.7m2.8-2.85h.35l.35-.05m-1.65-3.95-1.7.45m-2.55-10.15-.4-.95m-13.2 6.75.4-.65m-6.75 17.05 1.75 2.65 1.35 1.5q1.3 1.15 3.35 1.7l3.5.6 2.55.75 1.3.8 2.35 1.55.8-1.65.05-.1.6-1.05.7-1q1.25-1.75 2.85-2.8l.4-.3.7-.35m-15.2-19.6-.15.05-.15.2m-.4.65-1.85 2.75q-1.25 0-2.2 1-.95.95-1.5 3.05l-1.05.4-.1.1m-.6.35.05 1.45.1 1.45.05 1.6-.75 1.5.85 1.6.65 1.15m3.5-22.05.05.15m.7 1.65-.55-1.45m23.3 24.9 2.7 1.7m-4.65-3v.05l1.65 1.1m-11 7.85.25-.65.2-.7m-.95 4.85v-.25q0-1.6.5-3.25m4.3-11.4-.35-.45m5.85 19.15.65.5 1.05.65m-1.05-.65-.55.15m-9-1 .25.15.6.3 4 2.5m-4-2.5-.5-.25-.1-.05m-1.65-3.6q.1 2.45 1.4 3.45m6.7 12.85.1-.3m-.1.3-.35 1-1.25.65q-1.35.8-1.8 1.65l-.05.05-.35.7-.15.4m-10.45 2.8-.15-1.05-1.85.9-.75.8q-.8.95-.8 1.5l.05.5.6 2.8.15.5m4.85 1.15q-1-.15-1.5-.8l-.45-.25.15-.1v-.25l.05-1.3m-.3-4.15v.35l.25 1.55v.05l.05.45m-.35-2.65.05.25 2.55-3.45 3.05-.75.75-.35m-3.7 8.3-.95.55-1.4 1.3v.05l.05.1 1.85 1.15h.05l1.05.35q1.55-.05 2.3-1.55v-.1l-.1-1.15m-5.1 1.35-.05-.05-.05-.05-.05-.05.05-.05h-.05m.05.1h-.05.05m0-.05v.05m.25.35-.15-.25m1.85 1.3v-.1l-.2-.15.15.05.05.05v-.05m0 .05v.05l.8.45.05.05-.85-.55m0 .15q-.3 3.15-2.6 4.45.35 3.1-1.35 3.4l-.4.1 1.1 3.3.35.15.15.05m1.2.45q2.7 1.15 2.6 2-.2 1.45.6 3.1.8 1.8 2.5 2.7l.75.35 4 .2q.95-.35 2.85-1.75.55-.4.8-1.4l.15-.75q.2-1.25 2.1-1.65l8.4-2 4.1-1.1 1.25-.35h.15l.4-.15h.15l1.2-1.15-.35-2m-35.45-9.7-1.2.95-.05 7.05 1.55-1.5m-.15-6.65-.15.15m.3 4.85v.1l.1-.1 1.5 1.8.85-.45m-2.45-1.35.1-.3m.6 5.15q-1.35.15-1.9-.25l-.35-1.4v-.05m3.85-5.35-2.2 2.2m13-12.95.1-.3m-.1.3v.15m-3.75-.65-.95 1.35-.25.95-.4 1.1q-.35.45-.3 1l.05.15.2.35.6.75.2.2q1.3 1.4 3.7 2.6 4.25 1.6 6.9 1.7 1.95.1 4.75.05m-16.35-5.65.1.45.05.15.05.2.05.1m8.2-64.45.15.5m1.65.2v-.5m-9.95 93.6q.35 2.75 1.35 4.75l5.1 2.05-1.2-6.5m5.85-3.65-.2-3.8m-10.9 7.15-.15-2.15m-5.5-10.55-.35 7.15q-.45 10.25-.3 13.35.15 2.1 3.85 7.65l1.55 9.15v.1l.05.3.45 2.55.1.65 1.5 7.6.95 4.25 1.35 1.45.1.1 2.3 2.45 10.95 11.25m1.65 1.55.45.35m1.2.9.95.7 3.3 2.1 4.2 2.5m.45-2.4-.25-.65-1.65-5.2v-.1l-.15-.45v-.1q-2.15-7.35-1.95-9.3l.05-.4-.05-.45q-.15-1.5-1.15-3.75-1.65-3.7-1.9-4.7-.4-2-4.25-9.45l-1.95-3.9-2.2-4.05-.1-.25q-.8-1.7-1.3-4.3h-.25q-1.05.2-2 0l-.8-.3q-.9-.4-1.65-1.25l-1.05-5.6m-12.1-19.85v.35m16.75 9.35.3 9.75.5 5.45.3 2.1m-20.2 15.45.2.15m82.6 53.9.25-.1.25-.05 5.85-1.6-6.7-.45m-.25-.05-10.55-3.2-1-.5-.45-.25m-70.2-47.85 7.15-4.4m-4.35 6.65 2.3-1.95m.1-.1 2.4-2.05m-4.8 4.1-.3-.45m-2.3-.5v2.5l1.65 1.35q1.75 1.65 2.15 3.3l2.95 13.15.9 4.25v5.35l1.5 2.6 3.45 4.95.9 1.15 3.45 3.8 3.55 3.3 1.5 1.2q3.25 2.4 6.7 3.85l1.1.45q2.95 1.1 6.3 1.95l13.95 2.3.25.05 2.7.2 1.25.05 3.1-.65-.3.8 5.8.05 9-.7.75-.15 7.45-1.7h.05l1.5-.4.95-.25h.05m-72.65-43.4q-6.15-6.6-7.35-8.4m10 36.5-7.9 5.1 3.15 4.9 4.35 1.3 8.3-3.05m95.5-58.2.95.15h.4l4.1.15 9.7.35h.3l13.5.45m-31-1.45 2.05.35m-3.85 15.1-.8 3.8-.65 2.8 13.15 1.2 2.15.15m-13.7-8.75-.15.8q-8.9 3.25-13 5.9l-3.55 1.9-2.55 1.15-.7.25-.7.25q-7.75 2.9-15.65 6.65m36.5-7.25-.3.3-.85.65-1.1.2m22.55-19.6q-.35-.5.4-1.1.9-.7 2.05-.7 1.2 0 2.05.7l2.6-.05-3 .8-.05.05q-3.25 1-3.9.45l-.15-.15m-5.35 15.25-5.65-6.45m7.4 8.45-1.75-2m-57.85-21.95q-.25-.2-.35-.5M171.5 183.9l-.2-.4m.05 21.05.35.6m-2.1-25.4-.6.4q-1.65 1.05-5.3 2.3l-3.45 1.1-.05.05-.35.1-1.65.5m10.9 16.85-7-10.95m9.25 14.45-2.25-3.5m-18.9 53.35-1.65-1.55m30.85-32.35-.25-.4-.75-1.6m10.55 19.5-.4-1.25-.05-.15q-1.2-4.3-2.65-6.55l-5.45-7.95-1-1.6m9.7 18.15-.15-.65m.15.65 1.3 3.25.8 1.5 3.55 6.05 4.9-2.35m-4.05 3.9-.85-1.55m3.45 6.4-.4-.7-2.2-4.15m-15.05 42.05-1.05-2.7-.15-.5-.1-.5v-.1q-.7 2.85-.3 4.25 2 6.15 3.8 6.65l4.9.45q3.45-.1 5.85-1.1 6.55-2.85 6.85-4 .2-.8-.7-2.25l-1.6-3.1-.6-2.7.05.85.1 5.75q-6.05 2.75-12.75 3.4-2.75-1.55-4.3-4.4m-2.4-9.05 2.8.15-1.7 5.1m18.15-2.1-.9-3.8m.95 4.1-.05-.3m-8.65-13.1q-5.85-1.75-16.75-7l-6.05-3.05-3.75-1.95-.15-.15-1.75-.95m1.75.95-.05-.05-.6-1.55-.65-1.75m-8.9-2.9-.6-.45m61.6 24.05 2.05-.45 10.4-1.8q8.3-2.1 11.75-5.55 5.2-5.2 12.3-15"/></g><g id="c"><path fill-rule="evenodd" fill="#fff" d="m-52.8-197.9-.7-.5-.25-1.1.25-1.2q.3-.4.75-.35.45-.05.65.35.35.5.35 1.2 0 .5-.15.85l-.2.25q-.2.5-.65.5h-.05" transform="translate(62.7 201.05)"/><path stroke-width=".05" stroke-linejoin="round" stroke-linecap="round" stroke="#fff" fill="none" d="m9.9 3.15-.7-.5-.25-1.1.25-1.2q.3-.4.75-.35.45-.05.65.35.35.5.35 1.2 0 .5-.15.85l-.2.25q-.2.5-.65.5"/><path stroke-width=".05" stroke-opacity=".224" stroke-linejoin="round" stroke-linecap="round" stroke="#630" fill="none" d="M9.95 3.15H9.9h.05z"/><path fill-rule="evenodd" fill="#fff" d="m-61.95-192.5-.55-.45-.2-.9.2-1 .55-.45.5.45.2 1-.2.9-.05.1-.4.35h-.05" transform="translate(62.7 201.05)"/><path stroke-width=".05" stroke-linejoin="round" stroke-linecap="round" stroke="#fff" fill="none" d="M.75 8.55.2 8.1 0 7.2l.2-1 .55-.45.5.45.2 1-.2.9-.05.1"/><path stroke-width=".05" stroke-opacity=".224" stroke-linejoin="round" stroke-linecap="round" stroke="#630" fill="none" d="m1.2 8.2-.4.35H.75l.45-.35z"/></g><path fill-rule="evenodd" fill-opacity="0" fill="#f0f" d="M0 0h102.95v45H0V0" id="a"/><use xlink:href="#a" width="102.95" height="45" id="d"/></defs><path fill="none" d="M-1-1h329v482H-1z"/><g transform="scale(2)"><use x="77.05" y="232.5" xlink:href="#b" width="381" transform="translate(-192.55 -294)" height="381"/><use x="381.275" y="795.206" xlink:href="#text0" width="32.85" transform="matrix(.2755 .0352 -.0352 .2755 -61.73 -120.221)" height="67.3"/><use x="77.05" y="232.5" xlink:href="#c" width="10.95" transform="translate(-62.7 -201.05)" height="8.55"/><use x="-63.634" y="-36.885" xlink:href="#d" width="102.95" transform="matrix(1.8072 0 0 1.6538 74 72.9)" height="45"/></g></svg>