<svg width="236" height="278" xmlns="http://www.w3.org/2000/svg" xmlns:xlink="http://www.w3.org/1999/xlink"><defs><g id="c"><path fill-rule="evenodd" fill="#8c3535" d="m19.25 10.5 4.9 1.4 5.6-3.75 2.3.2L27.8 24.1l-3.9-2.55.95-3.55-3.05-3.3-2.55 1.2-.25 6.25 1.95 3.75-2.8-2.85-1 5.25 2.45 2.6q.65.8.9 2.3l-4.65-4-.35-6.25-3.25-3.4-3.5-1.25-2.85 2.15-.1.1.95 4 1.55-.6.5-1.8.95.95-.7 1.9-2.6.3-2.15-2.85-.35 1.95L0 26.1l2.8-1.9 1-4.65 5.9-3.05 2.5 1.75 3.15-.9 3.9-6.85"/><path stroke-width=".05" stroke-linejoin="round" stroke-linecap="round" stroke="#7b322f" fill="none" d="m19.25 10.5-3.9 6.85-3.15.9-2.5-1.75-5.9 3.05-1 4.65L0 26.1l3.95-1.7.35-1.95 2.15 2.85 2.6-.3.7-1.9-.95-.95-.5 1.8-1.55.6-.95-4 .1-.1 2.85-2.15 3.5 1.25 3.25 3.4.35 6.25 4.65 4q-.25-1.5-.9-2.3l-2.45-2.6 1-5.25 2.8 2.85L19 22.15l.25-6.25 2.55-1.2 3.05 3.3-.95 3.55 3.9 2.55 4.25-15.75-2.3-.2-5.6 3.75-4.9-1.4z"/><path fill-rule="evenodd" fill="#c1251e" d="M42.4 3.45q-1.7.35-3.3.95L44 0l2.4.4-2.5 2.2 2.7 1.95-4.2-1.1m14.8 1.2-3.6-1.1-.5-.1-2.15.9.35-1.75 4.65-.9 1.35 2.9-.1.05"/><path fill-rule="evenodd" fill="#f1e1c9" d="M39.1 4.4q1.6-.6 3.3-.95l4.2 1.1.7.2.85.2L50 6.9v.15q-6.15-1.6-11.75 1l-1.5.8q-6.4 3.65-8.3 10.75-1.9 7.05 1.75 13.45l.3.5q-.2-3.5.8-7.1 1.7-6.2 6-10.35 2.05-1.95 4.65-3.45 3.55-2.05 7.25-2.7l-.85 1.1.15 1.35 1.8-2.65 2.15-.15 1.05.3 2.1 2.75-1.3-3.05 1.6.15q-2-1.45-4.45-2.25L51 7.3l-.5-2.75.45-.2 2.15-.9.5.1 3.6 1.1.2.2.3.3 2.35 2.65q4.1 5.55 4.1 12.8 0 2.95-.7 5.65L63 25.8l-3.1-1.25 3.3 2.65-.25.7-4.45 1.4 4-.2q-1.65 3.8-4.8 6.9-2.9 2.9-6.3 4.45l-2-.4-4.25-1.25.6-2.95-1.7 3.3 1.95 1.9-2.35 1.3-1.45.05q-4.15 0-7.75-1.35-4.3-1.6-7.8-5.05-2.1-2.05-3.5-4.4-.25-1.85-.25-3.8 0-10.3 7.3-17.6 4-4 8.9-5.8m6.15 15.55-.4-.45q-1.15-1.15-2.8-1.15-1.7 0-2.9 1.15Q38 20.7 38 22.4q0 1.65 1.15 2.8l1.15.85-.05.95q0 3.1 2.15 5.25 2.2 2.2 5.3 2.2 3.1 0 5.25-2.2 2.2-2.15 2.2-5.25t-2.2-5.3q-2.15-2.15-5.25-2.15l-2.45.4"/><path fill-rule="evenodd" fill="#fbf5f0" d="M51.45 7.5q2.45.8 4.45 2.25l-1.6-.15-.45-1.05-2.4-1.05m1 2.1-2.15.15.45-.7 1.7.55m-3.25.35q-3.7.65-7.25 2.7-2.6 1.5-4.65 3.45-4.3 4.15-6 10.35-1 3.6-.8 7.1l-.3-.5q-3.65-6.4-1.75-13.45 1.9-7.1 8.3-10.75l1.5-.8q5.6-2.6 11.75-1l-.4 2.35-.4.55"/><path fill-rule="evenodd" fill="#fff" d="m40.3 26.05-1.15-.85Q38 24.05 38 22.4q0-1.7 1.15-2.9 1.2-1.15 2.9-1.15 1.65 0 2.8 1.15l.4.45q.8 1.05.8 2.4v.05q0 1.65-1.2 2.8-.85.85-1.95 1.1l-.85.1-1.75-.35"/><path fill-rule="evenodd" fill="#509c01" d="m45.25 19.95 2.45-.4q3.1 0 5.25 2.15 2.2 2.2 2.2 5.3 0 3.1-2.2 5.25-2.15 2.2-5.25 2.2t-5.3-2.2Q40.25 30.1 40.25 27l.05-.95 1.75.35.85-.1-.05.7q0 2.05 1.45 3.5 1.45 1.45 3.5 1.45t3.5-1.45q1.45-1.45 1.45-3.5t-1.45-3.5q-1.45-1.45-3.5-1.45l-1.75.3q0-1.35-.8-2.4"/><path fill-rule="evenodd" d="M42.9 26.3q1.1-.25 1.95-1.1 1.2-1.15 1.2-2.8v-.05l1.75-.3q2.05 0 3.5 1.45 1.45 1.45 1.45 3.5t-1.45 3.5q-1.45 1.45-3.5 1.45t-3.5-1.45q-1.45-1.45-1.45-3.5l.05-.7"/><path fill-rule="evenodd" fill="#f16767" d="M46.6 4.55 43.9 2.6 46.4.4l5.25.85L55.4.5l.55 1.2-4.65.9-.35 1.75-.45.2.5 2.75.45.2 2.4 1.05.45 1.05 1.3 3.05-2.1-2.75-1.05-.3-1.7-.55-.45.7-1.8 2.65-.15-1.35.85-1.1.4-.55.4-2.35V6.9l-1.85-1.95-.85-.2-.7-.2m-2.95 37.8 2.35-1.3-1.95-1.9 1.7-3.3-.6 2.95 4.25 1.25 2 .4 3.4.7 2.7.55-1.15.95-8.3-1.35-3.8 2.8-1.75.15-.5-.95 1.65-.95m3.6-40.6-1 .5 1.3 1.15 1.95.25.1-.55V3l-2.35-1.25m-.2 39.45.95-.95-1.2-.1-.4.8.65.25"/><path fill-rule="evenodd" fill="#faa" d="M47.25 1.75 49.6 3v.1l-.1.55-1.95-.25-1.3-1.15 1-.5M76.5 42.7l-1.35.15-.05-.1-.15-.4.6-.45 1.25-.15-.3.95m-6.4-.8-1.5 1.7-2.2.25 1.55-2.3 2.15.35m1.05.3.9-.05-.2.95-1.2-.25.5-.65m-24.1-1-.65-.25.4-.8 1.2.1-.95.95m16.3 4.05 6-1.1q1.3.55-6.15 2.45l-.3-.85.45-.5"/><path fill-rule="evenodd" fill="#77302d" d="m57.3 4.6.05.1-.15-.05.1-.05M38.6 74.5l-.25-.45-.05-.85.45 1.2-.15.1m28.1-46.7.25-.2.05.05-.3.15"/><path fill-rule="evenodd" fill="#ceaf8a" d="M23.15 31.6q1.4 2.35 3.5 4.4 3.5 3.45 7.8 5.05 3.6 1.35 7.75 1.35l1.45-.05-1.65.95.5.95 1.65 3.3 6.35.75 1.4-2.5-3.15.9-2.5-1.65 2.4-3.1 3.45 1.1-.3.15q-1.6 1.05-3.6 1.5l2.35.2q2.4-.05 4.55-.95l1.45.45-.6 1.1-.1.2-.85 1.6q-3.15 1.55-6.4 2.55l-5 1q3.9.45 8.95-.65l-4.6 2.5h.2-.35q-8 0-14.15-4.4-1.8-1.25-3.45-2.9-5.9-5.9-7.05-13.8m28.25 8.85q3.4-1.55 6.3-4.45 3.15-3.1 4.8-6.9l1.15-.05 2.25-.9.8-.35.3-.15 2.65 3.25L68 34.75l-.75-.1-1.6-2.25L67 36.5q-3.1 5.1-7.55 8.15l-1.5-2.25 2.8-2.35q1.95-2 2.85-4.7.85-2.65.4-5.45l-1.45 2.9L60 36.3l-4.05 3.95-1.15.9-3.4-.7M62.95 27.9l.25-.7.55.45-.8.25m.5-1.65q.7-2.7.7-5.65 0-7.25-4.1-12.8L57.7 5.15l-.3-.3-.2-.2.15.05q3.9 1.65 7.2 4.7l.85.8q2.25 2.25 3.8 4.75l.2 7.95-3.7 3.95-.8.8-1.45-1.4m3.95 13.6v.55L66.15 43l-.05.3-3.6 2.1 2.3-2.3 2.6-3.25m2.55-8.55.15.2-.2.4.05-.2v-.4"/><path fill-rule="evenodd" fill="#ea6464" d="m62.5 29.1-4 .2 4.45-1.4.8-.25-.55-.45-3.3-2.65L63 25.8l.45.45 1.45 1.4.8-.8 2.85-.35-1.6 1.1-.25.2-.8.35-2.25.9-1.15.05m18.8 1.75 1.25-.5 2.7-2.65.15-.2 2.6.15.75 1.8-.05.05-4.4 2.55-2.65.05-.35-1.25m-43 42.35q-.15-4.9 1.1-9.4l2.3 2.2-1.55 3.85-.25 3.6q-.55 2.15-1.15.95l-.45-1.2m34.2-54h.05l.55 1.85-1.55 3.2-1.8.85-.55-.55 1.3-1.25.4-3.7.05-.1 1.55-.3m4 23.5.3-.95-1.25.15-.6.45.15.4.05.1 1.35-.15m-6.65-10.6.65 1.75-2 4.1.7 2.05 4.5 1.55 3.55-1-.5-1.4-1.7-.4 1.4-1 4.1 2.3.15 1.3 1.05-.25.3-2.6.5 1.9 1.2-.5-3.8 3.45-8 1.8-2.1 1.7-8.95.75-.05-1.25 1.65-.95 3.6-2.1.05-.3 1.25-2.6v-.55l-.15-2.55-.25-.8-1.35-4.1 1.6 2.25.75.1.65.05 1.2-2.7m1.3 10.1-.5.65 1.2.25.2-.95-.9.05m-1.05-.3-2.15-.35-1.55 2.3 2.2-.25 1.5-1.7m-6.75 3.35-.45.5.3.85q7.45-1.9 6.15-2.45l-6 1.1"/><path fill-rule="evenodd" fill="#8c3535" d="m64.55 9.4 5.15 1.2 1.9 5.55 5 4.35q1.8 4.15 2.2 8.4l.1 2.9 2.4-.95.35 1.25 2.65-.05 4.4-2.55h.05v-.05l-.75-1.8-2.6-.15.85-.85q2.1-.55 4.2 1.25l2.95 4.95q-1.1 9.25-4.45 18.5Q81.2 60.9 68.1 72q-7.65-2.75-16.3-8-6.55.1-9.25 5.6.2 4.7 4.6 9.55l5.9-4.35 1.35-2.2q-3.05 1.65-5.7.75l1.25-4.95 5.2.25q1.55 3.55 1.2 7.15l-8.85 5.9q-6.3-2.65-8.9-7.2l.15-.1q.6 1.2 1.15-.95l.25-3.6L41.7 66l-2.3-2.2.15-.6 8.4-4.95q8.65 3.65 17.9 5 3.55 1.4 4.4 3.8 5.25-4.2 8.15-9.15l-.05-.05q-2.15-4.15-6-6.85l-.2-.4h-.05l-5.6-1.45-4.9 1.05-8.7 5.95-11-3-6.05.65-2.2-5.5q6.15 4.4 14.15 4.4h.35-.2l4.6-2.5 1.2-.65.55-.95 2.3-1.8-.75-1.1.1-.2.6-1.1-1.45-.45-3-.9-3.45-1.1-2.4 3.1 2.5 1.65 3.15-.9-1.4 2.5-6.35-.75-1.65-3.3 1.75-.15 3.8-2.8 8.3 1.35 1.15-.95.45.7 1.5 2.25 1.2 1.8.2-.1.05 1.25 8.95-.75 2.1-1.7 8-1.8 3.8-3.45-1.2.5-.5-1.9-.3 2.6-1.05.25-.15-1.3-4.1-2.3-1.4 1 1.7.4.5 1.4-3.55 1L69.2 40l-.7-2.05 2-4.1-.65-1.75.05-.2.2-.4-.15-.2-.3-.4L67 27.65l-.05-.05 1.6-1.1-2.85.35 3.7-3.95-.2-7.95q-1.55-2.5-3.8-4.75l-.85-.8m7.95 9.8-1.55.3-.05.1-.4 3.7-1.3 1.25.55.55 1.8-.85 1.55-3.2-.55-1.85h-.05"/><path fill-rule="evenodd" fill="#b35042" d="m65.85 63.25 3.75.45q3.75-4.15 3.8-10.15L72.35 51q3.85 2.7 6 6.85l.05.05q-2.9 4.95-8.15 9.15-.85-2.4-4.4-3.8m22.9-33.8v.05h-.05l.05-.05M55.85 45.7l.75 1.1-2.3 1.8.7-1.3.85-1.6"/><path fill-rule="evenodd" fill="#b88858" d="m60.85 46.35-.2.1-1.2-1.8Q63.9 41.6 67 36.5l.25.8.15 2.55-2.6 3.25-2.3 2.3-1.65.95M54.3 48.6l-.55.95-1.2.65q-5.05 1.1-8.95.65l5-1q3.25-1 6.4-2.55l-.7 1.3m15.6-16.7-.05.2-1.2 2.7-.65-.05 1.65-3.85.3.4v.4l-.05.2"/><path fill-rule="evenodd" fill="#e9cba7" d="m57.95 42.4-.45-.7-2.7-.55 1.15-.9L60 36.3l2.55-3.5L64 29.9q.45 2.8-.4 5.45-.9 2.7-2.85 4.7l-2.8 2.35m-5.85.65 3 .9q-2.15.9-4.55.95l-2.35-.2q2-.45 3.6-1.5l.3-.15"/><path stroke-width=".05" stroke-linejoin="round" stroke-linecap="round" stroke="#312c1e" fill="none" d="M39.1 4.4q1.6-.6 3.3-.95m-3.3.95q-4.9 1.8-8.9 5.8-7.3 7.3-7.3 17.6 0 1.95.25 3.8M57.2 4.65l-3.6-1.1M42.9 26.3l-.05.7q0 2.05 1.45 3.5 1.45 1.45 3.5 1.45t3.5-1.45q1.45-1.45 1.45-3.5t-1.45-3.5q-1.45-1.45-3.5-1.45l-1.75.3M57.35 4.7q3.9 1.65 7.2 4.7m-30.9 38.9q-1.8-1.25-3.45-2.9-5.9-5.9-7.05-13.8m34.2-26.9-.15-.05"/><path stroke-width=".05" stroke-linejoin="round" stroke-linecap="round" stroke="#330" fill="none" d="m42.4 3.45 4.2 1.1M46.4.4 44 0l-4.9 4.4m14.5-.85-.5-.1-2.15.9-.45.2.5 2.75.45.2 2.4 1.05.45 1.05 1.3 3.05-2.1-2.75-1.05-.3-1.7-.55-.45.7-1.8 2.65-.15-1.35.85-1.1.4-.55.4-2.35V6.9l-1.85-1.95-.85-.2M46.4.4l5.25.85L55.4.5l.55 1.2 1.35 2.9.05.1"/><path stroke-width=".05" stroke-linejoin="round" stroke-linecap="round" stroke="#7b322f" fill="none" d="m43.65 42.35 2.35-1.3-1.95-1.9 1.7-3.3-.6 2.95 4.25 1.25 2 .4M62.5 29.1l-4 .2 4.45-1.4m.25-.7-3.3-2.65L63 25.8l.45.45 1.45 1.4.8-.8 3.7-3.95-.2-7.95q-1.55-2.5-3.8-4.75l-.85-.8 5.15 1.2 1.9 5.55 5 4.35q1.8 4.15 2.2 8.4l.1 2.9 2.4-.95 1.25-.5 2.7-2.65m.15-.2.85-.85q2.1-.55 4.2 1.25l2.95 4.95q-1.1 9.25-4.45 18.5Q81.2 60.9 68.1 72q-7.65-2.75-16.3-8-6.55.1-9.25 5.6.2 4.7 4.6 9.55l5.9-4.35 1.35-2.2q-3.05 1.65-5.7.75l1.25-4.95 5.2.25q1.55 3.55 1.2 7.15l-8.85 5.9q-6.3-2.65-8.9-7.2l-.25-.45-.05-.85q-.15-4.9 1.1-9.4l.15-.6 8.4-4.95q8.65 3.65 17.9 5l3.75.45q3.75-4.15 3.8-10.15L72.35 51l-.2-.4h-.05l-5.6-1.45-4.9 1.05-8.7 5.95-11-3-6.05.65-2.2-5.5M63.2 27.2l.55.45-.8.25m-.45 1.2 1.15-.05 2.25-.9m.8-.35.3-.15 2.65 3.25m-8.8 15.45-.2.1-1.2-1.8-1.5-2.25-.45-.7-2.7-.55-3.4-.7m-8.9 3.8 1.65 3.3 6.35.75 1.4-2.5-3.15.9-2.5-1.65 2.4-3.1 3.45 1.1 3 .9 1.45.45-.6 1.1m-1.65 3.1-.55.95-1.2.65-4.6 2.5h.2-.35q-8 0-14.15-4.4M69.9 31.9l-.05.2-1.2 2.7-.65-.05-.75-.1-1.6-2.25L67 36.5l.25.8.15 2.55v.55L66.15 43l-.05.3-3.6 2.1-1.65.95m9.1-15.05.15.2-.2.4m.05-.6-.3-.4M55 47.3l-.7 1.3m1.55-2.9L55 47.3m-11.35-4.95L42 43.3l.5.95"/><path fill-rule="evenodd" fill="url(#a)" d="M37.4 88.2q7.75-3.8 18.7-3.8t18.65 3.8q7.75 3.8 7.75 9.2 0 5.4-7.75 9.2-7.7 3.8-18.65 3.8t-18.7-3.8q-7.7-3.8-7.7-9.2 0-5.4 7.7-9.2"/></g><g id="d" stroke-opacity="0" stroke-linejoin="round" stroke-linecap="round" stroke="#f0f" fill="none"><path d="M187.95-293.5v380h-380v-380h380" transform="translate(192.55 294)"/><path d="m187.95-293.5-190 190 190 190m-380-380 190 190L-192 86.5M92.95-38.4H-97" transform="translate(192.55 294)"/></g><radialGradient spreadMethod="pad" r="819.2" id="a" gradientUnits="userSpaceOnUse" gradientTransform="matrix(.0325 0 0 .016 53.5 98.7)" cy="0" cx="0"><stop stop-opacity=".443" stop-color="#6b5114" offset=".667"/><stop stop-color="#fff" offset="1"/></radialGradient><path fill-rule="evenodd" fill-opacity="0" fill="#f0f" d="M100 40H0V0h100v40" id="b"/><use xlink:href="#b" width="100" height="40" id="e"/></defs><path fill="none" d="M-1-1h238v280H-1z"/><g transform="scale(2)"><use x="-101.466" y="-70.462" xlink:href="#c" width="93.4" transform="translate(126.4 88.55) scale(1.2418)" height="110.4"/><use x="66.05" y="206" xlink:href="#d" width="381" transform="translate(-192.55 -294)" height="381"/><use x="44.033" y="137.333" xlink:href="#e" width="100" transform="matrix(1.5 0 0 1.5 -78.75 -205.2)" height="40"/></g></svg>