<svg width="192" height="114" xmlns="http://www.w3.org/2000/svg" xmlns:xlink="http://www.w3.org/1999/xlink"><defs><path fill-rule="evenodd" fill-opacity="0" fill="#f0f" d="M0 0h102.95v45H0V0" id="a"/><use xlink:href="#a" width="102.95" height="45" id="c"/><g id="b"><path stroke-opacity="0" stroke-linejoin="round" stroke-linecap="round" stroke="#f0f" fill="none" d="M187.95-293.5v380h-380v-380h380M92.95.6H-97" transform="translate(192.55 294)"/><path stroke-opacity="0" stroke-linejoin="round" stroke-linecap="round" stroke="#f0f" fill="none" d="m187.95-293.5-190 190 190 190m-380-380 190 190L-192 86.5" transform="translate(192.55 294)"/><path fill-rule="evenodd" fill="#cfbba3" d="M15.35-110.9q-.65-4.05-3.55-6.4-13.05-.7-14.55 10.2 8.5-7.25 14.8-6.75l3.3 2.95m-22.9 23.35-.55 2.95q-.3 9 8.4 16.35 9.3 5.8 16.7-2.05l.15-.8q-.65-2.45-3.65-4.3-1.6-3.1-3.75-5.85l-1.7-.95-.85-.8q-.8-.9-1.1-2.05-3.35-3.05-7.65-5.55-3.7-.05-6 3.05M38.2-96.4l-1.85-3.05-1.95-2.7-.2-.2q-2.65-2.5-6-4l-2.1-.8-.15-.1-2.6-.85-.35-.1-.7-.15q-.65-.2-1.6 0l.75 1.05-.75-1.05-2.8-.25q-2.05-.4-2.35.55v.45l-.2 2.25-.45 2.4-2.2 1.3q-2.4 1.55-3.9 3.7L8-96.2l-.9.1q-1.6 3.9-1 8.3.35-1.7 1.25-3.75l.3-.55q4.35-6 6.25-4.8 1.75 1.5 2.8 3.75l.4.8Q19-87.95 18.7-81h-.15l1.1 3.3 2.55 1.15q0-.65.35-1.3 2.3-.8 4.6-.65l2.45.45.3.1.35.1q.75.95.6 1.65l2.7-1.8-.1-.15-.6-2.3h-.05v-.25q.2-5.8 1.55-9.8l.1-.5q1.2-3.3 3-5.25l.75-.15m-11.95-9.95-.15-.8.15.8m-2.45-.8-.45-.95.45.95m-5.9-1.45.8.9-.8-.9m-5.85 32.4 1.45.8-1.45-.8" transform="translate(192.55 294)"/><path fill-rule="evenodd" fill="#a78b69" d="m15.35-110.9-3.3-2.95q-6.3-.5-14.8 6.75l-.15 1.45q-.25 3.95 1.15 6.25l.15.15q-2.55 2.05-4.1 5.1l-1.85 6.6q2.3-3.1 6-3.05 4.3 2.5 7.65 5.55-.15-.8-.05-1.75l.05-1q-.6-4.4 1-8.3l.9-.1.8-1.75L8-96.7l-.5-.35-4.45-3.2Q.15-102.6 0-103.7q3.1-5.05 7.7-6.95 4.5-1.45 5.1 1.1l.45 1.95q.2 2.45-.55 5.75v.2l2.2-1.3.45-2.4.2-2.25v-.45l-.2-2.85M-8.1-84.6q-.7 5-.35 9.95.3 3.25 1.1 6.55l.6 1.8.5 1.25q2.8 1.9 11.25 2.4h2.25q1.4-1.8 7.85-3.15-.35-.1-.65-.35 2.05-1.5 2.55-4.15Q9.6-62.45.3-68.25-8.4-75.6-8.1-84.6m35.95 11.9q.5-.2 1-.5 2.85-1.3 5.2-3.15 1.9-1.5 3.5-3.3-2.4.7-4.7-.8l.6 2.3.1.15-2.7 1.8-.65.95-1.1.9q-.95.55-2.55 1-2.55-.2-3.85-1.75-.5-.65-.5-1.45l-2.55-1.15-1.1-3.3q-3.45 1.6-7 .55 4.35 4.7 10.75 7.75 2.8.5 5.55 0m17.4-37.4-1.6-4.65q-5.9 4.15-9.75 8.9l-2.35 1.15q3.85 2.85 6.2 6.7-1-6.85 3.9-12.25l.7-.35.65.15 2.25.35M-1.6-99.25q.65 1.05 1.6 1.7.95.55 2.05 1l3.25.45h1.8-1.8l-3.25-.45Q.95-97 0-97.55q-.95-.65-1.6-1.7" transform="translate(192.55 294)"/><path fill-rule="evenodd" fill="#f5a452" d="M12.7-101.65v-.2q.75-3.3.55-5.75l-.45-1.95q-.6-2.55-5.1-1.1-4.6 1.9-7.7 6.95.15 1.1 3.05 3.45l4.45 3.2.5.35.8-1.25q1.5-2.15 3.9-3.7" transform="translate(192.55 294)"/><path fill-rule="evenodd" fill="#d18438" d="m39.85-94.9 1.15-.65q4.75-5.8 4.45-13.95l-.2-.6-2.25-.35-.65-.15-.7.35q-4.9 5.4-3.9 12.25l.15.2v.1l.55 1.35 1.4 1.45" transform="translate(192.55 294)"/><path fill-rule="evenodd" fill="#ec9300" d="M42.1-83.55q1.1-2.6-.2-7.3l-.15-.55q-1-2.25-1.9-3.5l-1.4-1.45-.25-.05-.75.15q-1.8 1.95-3 5.25l-.1.5q-.1 4 1.95 6.95l.2.25.6.3q2.75 1.3 5-.55m-25-8.8-.4-.8q-1.05-2.25-2.8-3.75-1.9-1.2-6.25 4.8l-.3.55q-.9 2.05-1.25 3.75l-.05 1q-.1.95.05 1.75.3 1.15 1.1 2.05l1.3.25q4.35.75 7.7-2.15 1.3-3.7.9-7.45" transform="translate(192.55 294)"/><path fill-rule="evenodd" fill="#c97105" d="M37.55-79.65q1.6-.55 3.2-1.9.9-.75 1.35-2-2.25 1.85-5 .55l-.6-.3-.2-.25q-2.05-2.95-1.95-6.95-1.35 4-1.55 9.8v.25h.05q2.3 1.5 4.7.8m-19-1.35h.15q.3-6.95-1.6-11.35.4 3.75-.9 7.45-3.35 2.9-7.7 2.15L7.2-83l.85.8 1.7.95q.85.5 1.8.8 3.55 1.05 7-.55" transform="translate(192.55 294)"/><path fill-rule="evenodd" fill="#6b4b2c" d="M30.85-76.2q.15-.7-.6-1.65l-.35-.1-.3-.1-2.45-.45q-2.3-.15-4.6.65-.35.65-.35 1.3 0 .8.5 1.45 1.3 1.55 3.85 1.75 1.6-.45 2.55-1l1.1-.9.65-.95m-2.65-1.45 1.6.1q.55 1-.8 1.2h-.05l-1.15-.4q-.4-.75.4-.9" transform="translate(192.55 294)"/><path fill-rule="evenodd" fill="#e4d0be" d="M28.2-77.65q-.8.15-.4.9l1.15.4H29q1.35-.2.8-1.2l-1.6-.1" transform="translate(192.55 294)"/><path fill-rule="evenodd" fill="#81664e" d="M15.85-65.35q1.4-1.35 6.1-2.25 1.05-1.1 4.95-1.95.95-.6 1.25-1.95.2-1.4-.3-1.2-2.75.5-5.55 0-6.4-3.05-10.75-7.75-.95-.3-1.8-.8 2.15 2.75 3.75 5.85 3 1.85 3.65 4.3l-.15.8q-.5 2.65-2.55 4.15.3.25.65.35l.45.3.3.15" transform="translate(192.55 294)"/><path fill-rule="evenodd" fill="#da9754" d="m-10.4-74.65-5.3-.05-1.7-.1-1.75 2.35-8.6.05v1.7l1.05 2.1 9.45 1.1 2.2.25q8.05-.2 4.65-7.4m-37.25.15.2 2.25.25 1.25 20.5 2.4-1.05-2.1v-1.7l-10.1.1h-.05l-7.7.05-2.05-2.25m54.9 11.85h8.3l1.3-.35-2-1.6.7-.9-.45-.3q-6.45 1.35-7.85 3.15m-43.8-7.85-.8-.6-.5-1.2.5 1.2.8.6m19.3 3-.8-2.5.65-2.9 1.7-1.8-1.7 1.8-.65 2.9.8 2.5" transform="translate(192.55 294)"/><path fill-rule="evenodd" fill="#facb9c" d="m-17.4-74.8-8.65.15-10.25.65-8 .8q-1.45-2.35-3.15-2.7l-.2 1.4 2.05 2.25 7.7-.05h.05v-.1.1l10.1-.1 8.6-.05 1.75-2.35M16.85-63l2-.6-3-1.75-.3-.15-.7.9 2 1.6M-36.3-74l-1.55 1.6 1.55-1.6m-1.6 1.7.05-.1-.05.1m11.85-2.35-1.7 2.25 1.7-2.25" transform="translate(192.55 294)"/><path fill-rule="evenodd" fill="#d08133" d="M-8.45-74.65h-1.95q3.4 7.2-4.65 7.4l8.3.95-.6-1.8q-.8-3.3-1.1-6.55" transform="translate(192.55 294)"/><path fill-rule="evenodd" fill="#af6b29" d="m21.95-67.6 8.65.35q-.35-1.15-3.7-2.3-3.9.85-4.95 1.95" transform="translate(192.55 294)"/><path stroke-width=".05" stroke-linejoin="round" stroke-linecap="round" stroke="#5c463a" fill="none" d="M189.8 186.9q1.5-10.9 14.55-10.2 2.9 2.35 3.55 6.4m-18.1 3.8-.15 1.45q-.25 3.95 1.15 6.25m14.45-2.25v-.2q.75-3.3.55-5.75l-.45-1.95q-.6-2.55-5.1-1.1-4.6 1.9-7.7 6.95m8 7 .8-1.25m-.8 1.75-.9.1h-1.8l-3.25-.45q-1.1-.45-2.05-1-.95-.65-1.6-1.7m17.15-8.8v.45l-.2 2.25-.45 2.4m-2.2 1.3q-2.4 1.55-3.9 3.7m6.75-10.1-.2-2.85"/><path stroke-width=".05" stroke-linejoin="round" stroke-linecap="round" stroke="#5c463a" fill="none" d="m190.8 194.6.15.15q-2.55 2.05-4.1 5.1l-1.85 6.6-.55 2.95q-.7 5-.35 9.95h-1.95l-5.3-.05-1.7-.1-8.65.15-10.25.65-8 .8q-1.45-2.35-3.15-2.7l-.2 1.4.2 2.25.25 1.25 20.5 2.4 9.45 1.1 2.2.25 8.3.95.5 1.25q2.8 1.9 11.25 2.4h10.55l1.3-.35 2-.6-3-1.75q1.4-1.35 6.1-2.25l8.65.35q-.35-1.15-3.7-2.3.95-.6 1.25-1.95.2-1.4-.3-1.2.5-.2 1-.5 2.85-1.3 5.2-3.15 1.9-1.5 3.5-3.3 1.6-.55 3.2-1.9.9-.75 1.35-2 1.1-2.6-.2-7.3l-.15-.55q-1-2.25-1.9-3.5l1.15-.65q4.75-5.8 4.45-13.95l-.2-.6-1.6-4.65q-5.9 4.15-9.75 8.9l-2.35 1.15m6.9 8.35-.25-.05-1.85-3.05-1.95-2.7-.05-.15-.15-.05q-2.65-2.5-6-4m-2.1-.8-.15-.1m-2.6-.85-.5-1.25m20.15-1.1-.65-.15-.7.35q-4.9 5.4-3.9 12.25m-16.3-9.3-.75-1.05-1-1.5m3.65 1.75.45.95m2.3 0 .15.8m11.95 9.95-.75.15q-1.8 1.95-3 5.25m-.1.5q-1.35 4-1.55 9.8v.25h.05m-2 4.25q.15-.7-.6-1.65l-.35-.1-.3-.1-2.45-.45q-2.3-.15-4.6.65-.35.65-.35 1.3 0 .8.5 1.45 1.3 1.55 3.85 1.75 1.6-.45 2.55-1l1.1-.9.65-.95m-12.3-4.8h.15q.3-6.95-1.6-11.35m-.4-.8q-1.05-2.25-2.8-3.75-1.9-1.2-6.25 4.8l-.3.55q-.9 2.05-1.25 3.75m33.75-7.1-1.4-1.45m-4.25-6 .2.2m3.15 22.5q-2.4.7-4.7-.8m-14.15-27.25-.8-.9-.65-.9M199.75 211q-.8-.9-1.1-2.05-.15-.8-.05-1.75m3.7 5.55q.85.5 1.8.8 4.35 4.7 10.75 7.75 2.8.5 5.55 0M199.75 211l.85.8 1.7.95m3.75 5.85-1.45-.8m-.5-4.25q3.55 1.05 7-.55m-27 6.35q.3 3.25 1.1 6.55l.6 1.8m22.3.8.3.15m-.3-.15-.45-.3q-.35-.1-.65-.35 2.05-1.5 2.55-4.15l.15-.8q-.65-2.45-3.65-4.3m1.6 9.6q-6.45 1.35-7.85 3.15m19.65-6.9q-3.9.85-4.95 1.95"/><path stroke-width=".05" stroke-linejoin="round" stroke-linecap="round" stroke="#d17c27" fill="none" d="m154.7 221.7.5 1.2.8.6m-1.3-1.9 1.55-1.6m8.55 1.6v1.7l1.05 2.1m11-6.1-1.7 1.8-.65 2.9.8 2.5m-10.5-4.9 1.7-2.25"/><path stroke-width=".05" stroke-linejoin="round" stroke-linecap="round" stroke="#ae4620" fill="none" d="M154.7 221.7v-.1l-.05.1"/><path fill-rule="evenodd" fill="#ffca17" d="m15.85-86.05-.55-3.15q-.85-3.1-2.65-5.05L12-94.9h.1q1.05-.3 2.15.85 1.1 1.25 1.65 3.3.55 2.05.25 3.65l-.3 1.05m24.8 2.15q.2-1.7 0-3.6-.35-3.6-1.9-6l-.6-.85h.1q1.15-.15 2.1 1.4.95 1.55 1.2 3.9.25 2.35-.4 4.05l-.5 1.1" transform="translate(192.55 294)"/><path fill-rule="evenodd" fill="#fff4bb" d="M8.95-91.15q0 .45.35.75.3.35.75.35t.8-.35q.3-.3.3-.75l-.3-.8-.8-.25-.75.25q-.35.4-.35.8m26.65.3q0 .45.35.75.3.35.75.35t.8-.35l.3-.75-.3-.8-.8-.25-.75.25q-.35.4-.35.8" transform="translate(192.55 294)"/></g></defs><path fill="none" d="M-1-1h194v116H-1z"/><g transform="scale(2)"><use x="49.05" y="118.5" xlink:href="#b" width="381" transform="translate(-192.55 -294)" height="381"/><use x="-79.128" y="-105.817" xlink:href="#c" width="102.95" transform="matrix(1.8072 0 0 1.6538 100 163.6)" height="45"/></g></svg>