<svg width="182" height="153" xmlns="http://www.w3.org/2000/svg" xmlns:xlink="http://www.w3.org/1999/xlink"><defs><g id="b" stroke-opacity="0" stroke-linejoin="round" stroke-linecap="round" stroke="#f0f" fill="none"><path d="M187.95-293.5v380h-380v-380h380" transform="translate(192.55 294)"/><path d="m187.95-293.5-190 190 190 190m-380-380 190 190L-192 86.5M92.95-38.4H-97" transform="translate(192.55 294)"/></g><g id="d"><path fill-rule="evenodd" fill="#ac7540" d="M313.25-271.5q-.05 1.75.95 3.15 6.2 8.9 12.85 17.65 1.05 1.35 1.45 2.95.85 3.1 3.1 4.75.7 1.05 1.8 1.6l1.75-.1q3.6-2.8 2.05-7.6-1.9-5.9-5.45-11.1l-2.15-2.65q-2.15-2.35-3.9-5-3.65-5.8-10.35-5.9-2.05.2-2.1 2.25m-10.95 65.6q13.3-11.4 23.35-29.7 1.95-6-1.5-12l-11.5-14q-8.9-10.4-22.85-13.55-4.6-1.95-10.65.55-5.75 6.85-7.5 16-6.05 10.7-7.25 21.85-1.65.6-1.35 2.75.4 2.75 2.95 4.55 13.3 9.35 26.25 19.4 2.25 1.75 3.6 4.2 2.4 4.35 6.15 1.6.85-.6.4-1.5l-.1-.15m-65.85-51.15 7.2 6.95 8.75 12.15 1.6-11.75q-.9-21.9 23.6-47.4 44.3-1.2 65 53-20.8 34.2-33.65 40.95 9.45 14.3 14.35 30.5l-13.9-.7-23 12.55-28 25.45q-6.85-8.15.2-15.75 13.55-23.65 27.6-31.35l1.2-.65-1.45-.75-13.1 4.85-9.2 9.55-8.85 11-13.1-15.95-15.25-11.35-22.3-7.45h-8.95l-.05.15q33.25 10.5 52.45 39.95 1.95 7.35.95 12-11.35-5.2-22.45-14.4l-22.95-9.6q-18.4-6.8-36.3-9.95-9.6-1.05-17.7-5.05l-7.65-.15-6.7 3.75 1.05.15-1 3.1.15 6.7 3.15 38.95 8.5 27.85L159-87.95 178.85-80l-19.95-1.3-4.05 1q-1.25.4-1.65 1.65l-.15.55q-1.45.5-1.55 2.1-.5 8.7 9.3 10.85 8.75 1.9 17.65 2.65 14.4 1.2 28.85.3 1.95-.1 3.35-.9l2.95-.7q2.2-.75 3.35-2.55 1.6-2.6-.55-4.85l-1.95-1.35-2.45-1 22.15-2.05 21.5-10.5 18 5 7.25.25q-3.2 1.5-6.1 3.8-6.3 5.05.7 9.65.45.3.9.4 1.15.55 2.95.95l8.45.9q-7.35 8.2-13.95 17.05-3.15 4.2 1.25 6.2l2.2-.15q9.65-6.6 17.55-15.5 4.25-4.75 6.6-10.55 3.5-1.6 6.1-4.1.95-.55 2-2.05 1.35-1.9-.5-3.4-2.15-1.7-4.5-2.9l15.15-7.95q-7.9 19.3-22.75 35.8l-6.3 6.5-8.15 7.4q-14.25 11.95-30.55 19.1-4.6 2-9.35 3.65l-35.2 1.35-34.7-6.1-25.55-11.8q-21.35-11-40-37l-13-25.9q-3.55-25.75-2.05-52.6-2.45-25.85 12.6-50.75l13.2-1.1.7.85-.7-.85-15.1-18.35q-15.9-17.4-25.15-28.15-.45-62.15 75.05-58.4 6.7 1 8.75 3.5l7.4 8.8-.3.7q3.35 4.8 3.55 10.4l1 21.7q9.75-2.4 26-2.4 20.65 0 37.35 5.1M176.6-226.1l-3.5-33.65 3.5 33.65m102.3 20.25q.85 2.95 2.8 5.4l7.05 9.55q3.8 5.35 9.9 1.2 4.75-3.2-.45-5.65l-3.25-4.05q-5.95-6.85-13.65-10.55-3.45.65-2.4 4.1M300.2-182l-1.45-.45q-8.1 2.75-15.5 7.3-3.7 2.25-1.1 5.2.6.65 1.35.2 4.5-2.7 9.3-4.9l.35-.05 9.75-1.5q1.5-.35 2.35-1.55 3.05-4.35-2.8-4.6l-2.25.35m2.4-4.1q-7.7-.8-15.2 3 7.5-3.8 15.2-3m0-10 6.35-7.05-6.35 7.05m-44.95 60.7.7.15-.2.15-.5-.3M236.1-64.25l-1.45-1q-3.3 1.8-4 5.75-.25 1.35.05 2.7 1.2 5.55 4.25 10.5 2.55 4.25 6.15 7.5l2.1 2.15q2.15 2.35 4 .35.3-.3.05-.6-2.85-3.65-6.55-6.65l-2.1-3.4q4.2 5.3 12 11.8 19.6-13.3 18-30-26.65-5.75-32.5.9m-1.95 9.1q-.95-1.9-.3-3.95l.2-.45q-.5 2 .1 4.4m-82.5-238.95 10.65.45-4.8-4.2-6.1-3.8-4.75.3q-9.45.9-18.8 3.15-3.6.85-3.9 3.95-.1.65.45.85 5.1 1.9 10.65.35 8.15-2.3 16.6-1.05m15.25 67.65-10.75-53.15q-1.1-4.05-11.5-4.5l-34 12q-9.5 7.45-12.5 13-4.95 8.15-3 14l31 40 .35-.15.05.15q.3 1 1.25.75 10.95-2.45 20.05-9.7.75-.6 1.6-.75 4.6-.8 5.95-4.6 4-1.35 8.15-2.2 1.2-.25 2.15-.85 3.55-2.35 1.2-4m22.6 35.75-.8-.25-8.15-2.25-1.45-.3-11.35-1.7q-3.65-.15-5.1 3.05-.55 1.25.2 2.3 4.2 6.15 12.25 5.7 5.45-.25 9.8 2.4 6.5 4.05 13.85 6 5.1 1.4 6-2.8 1-1.3.3-2.7-3.4-6.7-11.1-8.3l-4.45-1.15m-18.9-7.4q12.9 1.35 24.2 4.9l.2.1.15.05-.15-.05-.2-.1q-11.3-3.55-24.2-4.9m39.4 22.55q-.35.85-.05 1.65 1.8 5.35 8.35 4.35.7-.1 1.1-.6 2.9-3.45-1.45-4.9l-.15-.15q-2-2.45-4.95-2.7-2.1.25-2.85 2.35" transform="translate(1.6 306.65)"/><path fill-rule="evenodd" fill="#bf8b57" d="M313.25-271.5q.05-2.05 2.1-2.25 6.7.1 10.35 5.9 1.75 2.65 3.9 5l2.15 2.65q3.55 5.2 5.45 11.1 1.55 4.8-2.05 7.6l-1.75.1q-1.1-.55-1.8-1.6-2.25-1.65-3.1-4.75-.4-1.6-1.45-2.95-6.65-8.75-12.85-17.65-1-1.4-.95-3.15m-34.35 65.65q-1.05-3.45 2.4-4.1 7.7 3.7 13.65 10.55l3.25 4.05q5.2 2.45.45 5.65-6.1 4.15-9.9-1.2l-7.05-9.55q-1.95-2.45-2.8-5.4M300.2-182l2.25-.35q5.85.25 2.8 4.6-.85 1.2-2.35 1.55l-9.75 1.5-.35.05q-4.8 2.2-9.3 4.9-.75.45-1.35-.2-2.6-2.95 1.1-5.2 7.4-4.55 15.5-7.3l1.45.45m1.25 113.9q-2.35 5.8-6.6 10.55-7.9 8.9-17.55 15.5l-2.2.15q-4.4-2-1.25-6.2 6.6-8.85 13.95-17.05 6.55-.1 12.9-2.65l.75-.3m-149.8-226q-8.45-1.25-16.6 1.05-5.55 1.55-10.65-.35-.55-.2-.45-.85.3-3.1 3.9-3.95 9.35-2.25 18.8-3.15l4.75-.3 6.1 3.8 4.8 4.2-10.65-.45m37.85 103.4 4.45 1.15q7.7 1.6 11.1 8.3.7 1.4-.3 2.7-.9 4.2-6 2.8-7.35-1.95-13.85-6-4.35-2.65-9.8-2.4-8.05.45-12.25-5.7-.75-1.05-.2-2.3 1.45-3.2 5.1-3.05l11.35 1.7 1.45.3 8.15 2.25.8.25m20.5 15.15q.75-2.1 2.85-2.35 2.95.25 4.95 2.7l.15.15q4.35 1.45 1.45 4.9-.4.5-1.1.6-6.55 1-8.35-4.35-.3-.8.05-1.65" transform="translate(1.6 306.65)"/><path fill-rule="evenodd" fill="#7e5630" d="M264.4-236.75q1.2-11.15 7.25-21.85 1.75-9.15 7.5-16 6.05-2.5 10.65-.55 13.95 3.15 22.85 13.55l11.5 14q3.45 6 1.5 12-10.05 18.3-23.35 29.7-3.85-7.1-10.55-12L265.4-237l-1 .25m58.9 64.1q5.3 17.4 5.3 37 0 25.35-8.9 47.15l-15.15 7.95q-7.4-3.85-16.6-2.65-3.7.75-7.05 2.35l-7.25-.25-18-5-21.5 10.5L212-73.55q-9.85-4-20.6-5.25L178.85-80 159-87.95l-12.35-11.8-8.5-27.85-3.15-38.95-.15-6.7 1-3.1-1.05-.15 6.7-3.75 7.65.15q8.1 4 17.7 5.05 17.9 3.15 36.3 9.95l22.95 9.6q11.1 9.2 22.45 14.4 1-4.65-.95-12-19.2-29.45-52.45-39.95l.05-.15h8.95l22.3 7.45 15.25 11.35 13.1 15.95 8.85-11 9.2-9.55 13.1-4.85 1.45.75-1.2.65q-14.05 7.7-27.6 31.35-7.05 7.6-.2 15.75l28-25.45 23-12.55 13.9.7M235.15-139l7.45 4.9q3-1.1 4.6-3.55.95-1.5 1.35-3.45-.4 1.95-1.35 3.45-1.6 2.45-4.6 3.55l-7.45-4.9-.55-1.1-.65-.45Q202.6-163.2 157.2-173.3l-3.6-.8-.05.45q-4.25 28.75 2.6 59.3 1.45 6.6 3.45 13.25 41.35 31.9 75 13.95l2.35-4.2q6.55-13.2 4.75-27.45l-.15-1q-1.4-9.4-6.4-19.2m38.4.95-7.95 8.95q-4.55-3.1-7.1-6.15l-.1-.1.1.1q2.55 3.05 7.1 6.15l7.95-8.95-2.6 44.25-.35 5.7q19 6.8 38-1 3.15-4.9 5.65-9.9 10.65-21.55 8.75-44.6-1-12.05-5.4-24.5-20.8 4.9-44 29l-.05 1.05m-15.9 2.65.5.3.2-.15-.7-.15M238.6-46.95l2.1 3.4q3.7 3 6.55 6.65.25.3-.05.6-1.85 2-4-.35l-2.1-2.15q-3.6-3.25-6.15-7.5-3.05-4.95-4.25-10.5-.3-1.35-.05-2.7.7-3.95 4-5.75l1.45 1q.9 1.25-1 3.15-.7.65-1.05 1.55l-.2.45q-.65 2.05.3 3.95 2.1 4.15 4.45 8.2m-112.1-158.3-.35.15-31-40q-1.95-5.85 3-14 3-5.55 12.5-13l34-12q10.4.45 11.5 4.5l10.75 53.15-1.95-.95-5.1 1.1-5.65 1.1q-12.75 1.75-21.4 10.95-1.4 1.45-3 2.4-4.35 2.55-3.3 6.6" transform="translate(1.6 306.65)"/><path fill-rule="evenodd" fill="#996a3c" d="m264.4-236.75 1-.25 26.35 19.1q6.7 4.9 10.55 12l.1.15q.45.9-.4 1.5-3.75 2.75-6.15-1.6-1.35-2.45-3.6-4.2-12.95-10.05-26.25-19.4-2.55-1.8-2.95-4.55-.3-2.15 1.35-2.75m-12-1.2-8.75-12.15-7.2-6.95q9.4 2.85 17.55 7.35l-1.6 11.75m-9.8 221.9q-17.05 5.8-36.2 6.75-3.6.15-7.3.15-33.2 0-60.4-14.2-9.4-4.9-24-15.45-10.2-9.5-20.75-20.8T74.2-101q-1.5-5.25-2.45-10.7-2.15-11.55-2.15-23.95l.2-6.8q.8-14.85 5.15-31.85 2.05-7.15 5.35-13.95 7.75-15.95 22.5-30.05l15.1 18.35-13.2 1.1q-15.05 24.9-12.6 50.75-1.5 26.85 2.05 52.6l13 25.9q18.65 26 40 37l25.55 11.8 34.7 6.1 35.2-1.35m-116.1-189.2q-1.05-4.05 3.3-6.6 1.6-.95 3-2.4 8.65-9.2 21.4-10.95l5.65-1.1 5.1-1.1 1.95.95q2.35 1.65-1.2 4-.95.6-2.15.85-4.15.85-8.15 2.2-1.35 3.8-5.95 4.6-.85.15-1.6.75-9.1 7.25-20.05 9.7-.95.25-1.25-.75l-.05-.15" transform="translate(1.6 306.65)"/><path fill-rule="evenodd" fill="#e9e945" d="M235.15-139q5 9.8 6.4 19.2l.15 1-4.1 15.2-5.2 9.55-4.35 3.55-11.75 1.1h-.3l-19.55-2.35-18.5-7.75-21.8-14.85q-6.85-30.55-2.6-59.3l.05-.45 3.6.8q45.4 10.1 76.75 32.75l-.35.45 1.55 1.1m38.4.95.05-1.05q23.2-24.1 44-29 4.4 12.45 5.4 24.5l-3.85 18.75-3.55 11.05-7.7 11.85-9.05 7.85-13.55 1.35-14.35-1.05 2.6-44.25m16.75 21.2q4.3 0 7.35-3.8t3.05-9.2q0-5.4-3.05-9.2-3.05-3.8-7.35-3.8t-7.35 3.8q-3.05 3.8-3.05 9.2 0 5.4 3.05 9.2 3.05 3.8 7.35 3.8m-108.45-43.6q-4.05-4.65-9.8-4.65-5.75 0-9.85 4.65-4.05 4.7-4.05 11.35 0 6.65 4.05 11.3 4.1 4.7 9.85 4.7t9.8-4.7q4.1-4.65 4.1-11.3t-4.1-11.35" transform="translate(1.6 306.65)"/><path fill-rule="evenodd" fill="#acab15" d="M241.7-118.8q1.8 14.25-4.75 27.45l-2.35 4.2q-33.65 17.95-75-13.95-2-6.65-3.45-13.25l21.8 14.85 18.5 7.75L216-89.4h.3l11.75-1.1 4.35-3.55 5.2-9.55 4.1-15.2m81.3-24.8q1.9 23.05-8.75 44.6-2.5 5-5.65 9.9-19 7.8-38 1l.35-5.7 14.35 1.05 13.55-1.35 9.05-7.85 7.7-11.85 3.55-11.05L323-143.6" transform="translate(1.6 306.65)"/><path fill-rule="evenodd" fill="#f78282" d="M304.55-80.55q2.35 1.2 4.5 2.9 1.85 1.5.5 3.4-1.05 1.5-2 2.05-2.6 2.5-6.1 4.1l-.75.3q-6.35 2.55-12.9 2.65l-8.45-.9q-1.8-.4-2.95-.95-.45-.1-.9-.4-7-4.6-.7-9.65 2.9-2.3 6.1-3.8 3.35-1.6 7.05-2.35 9.2-1.2 16.6 2.65m-92.55 7 2.45 1 1.95 1.35q2.15 2.25.55 4.85-1.15 1.8-3.35 2.55l-2.95.7q-1.4.8-3.35.9-14.45.9-28.85-.3-8.9-.75-17.65-2.65Q151-67.3 151.5-76q.1-1.6 1.55-2.1l.15-.55q.4-1.25 1.65-1.65l4.05-1 19.95 1.3 12.55 1.2q10.75 1.25 20.6 5.25" transform="translate(1.6 306.65)"/><path fill-rule="evenodd" fill="#f5f4b4" d="M290.3-116.85q-4.3 0-7.35-3.8t-3.05-9.2q0-5.4 3.05-9.2 3.05-3.8 7.35-3.8t7.35 3.8q3.05 3.8 3.05 9.2 0 5.4-3.05 9.2-3.05 3.8-7.35 3.8m-108.45-43.6q4.1 4.7 4.1 11.35 0 6.65-4.1 11.3-4.05 4.7-9.8 4.7-5.75 0-9.85-4.7-4.05-4.65-4.05-11.3t4.05-11.35q4.1-4.65 9.85-4.65t9.8 4.65" transform="translate(1.6 306.65)"/><path fill-rule="evenodd" fill="#634527" d="M236.1-64.25q5.85-6.65 32.5-.9 1.6 16.7-18 30-7.8-6.5-12-11.8-2.35-4.05-4.45-8.2-.6-2.4-.1-4.4.35-.9 1.05-1.55 1.9-1.9 1-3.15m22.4 12.35q-1.6.3-1.8 1.85-1.6 1.6.05 3.1 1.4 1.3 2.7-.1 3-3.2-.65-4.9l-.3.05m.25-8.25q-1.25 1.25-1.1 3l.4 1.6q1.35 3.2 4.55.95 1.9-1.35 2.65-3.8 1.35-4.6-3.3-5.35l-.75.2q-2.45.9-2.45 3.4" transform="translate(1.6 306.65)"/><path fill-rule="evenodd" fill="#8a6137" d="M258.75-60.15q0-2.5 2.45-3.4l.75-.2q4.65.75 3.3 5.35-.75 2.45-2.65 3.8-3.2 2.25-4.55-.95l-.4-1.6q-.15-1.75 1.1-3m-.25 8.25.3-.05q3.65 1.7.65 4.9-1.3 1.4-2.7.1-1.65-1.5-.05-3.1.2-1.55 1.8-1.85" transform="translate(1.6 306.65)"/><path fill-rule="evenodd" fill="#ecaab5" d="M74.95-174.3q-4.35 17-5.15 31.85-3.5 3.4-7.7-.95-2.55 1.65-7.75-1-5.45 1.95-14.45-5.85l.5-4.05 6-20.55-6 20.55-.5 4.05-7.15-2.9q-9.2-2.8-16.6-14.45l-1.95-1.7q-8.55-8.4-8.55-22.1l2.45-3.45 1.6 1.7q5.35 5.7 14.65 10.45 9.9 5.05 22.05 7.85 14.05 3.2 28.55.55m-7.15 2-5.6 26.35-.1 2.55.1-2.55 5.6-26.35m-43.45-10.4-8.2 15.1 8.2-15.1" transform="translate(1.6 306.65)"/><path fill-rule="evenodd" fill="#eec6e7" d="m8.1-194.85-1-.65h1.3l.1.2 1.2 2.15-1.6-1.7" transform="translate(1.6 306.65)"/><path fill-rule="evenodd" fill="#e897a9" d="M39.9-150.25q9 7.8 14.45 5.85 5.2 2.65 7.75 1l-.95 21.35.5 8.55-10.55-2.65-14.2-7.35-1.4-.75-22.45-19.8-.8-1.55.9-10.3 2.65-11.15.35-.55-.35.55-2.65 11.15-.9 10.3-7.3-14.1-4.9-13.1q.4-10.4 5.6-18.6 0 13.7 8.55 22.1l1.95 1.7q7.4 11.65 16.6 14.45l7.15 2.9-3 25.95v.8-.8l3-25.95m21.75 36.75-.5-8.55.95-21.35q4.2 4.35 7.7.95l-.2 6.8q0 12.4 2.15 23.95l-5.35-.65-4.75-1.15" transform="translate(1.6 306.65)"/><path fill-rule="evenodd" fill="#e28399" d="m12.25-145.6.8 1.55 22.45 19.8 1.4.75 14.2 7.35 10.55 2.65 1.05 9.45-1.05-9.45 4.75 1.15 5.35.65q.95 5.45 2.45 10.7-6-1.4-11.5-3.05-44.75-13.6-59.05-47.05-3.95-11.85-3.6-21.7l4.9 13.1 7.3 14.1-.65 7.15.65-7.15m24.65 29.7v-7.6 7.6" transform="translate(1.6 306.65)"/><path stroke-linejoin="round" stroke-linecap="round" stroke="#000" fill="none" d="M236.45-257.05q-16.7-5.1-37.35-5.1-16.25 0-26 2.4m63.35 2.7q9.4 2.85 17.55 7.35m54.95 46.55q9.45 14.3 14.35 30.5 5.3 17.4 5.3 37 0 25.35-8.9 47.15-7.9 19.3-22.75 35.8l-6.3 6.5-8.15 7.4q-14.25 11.95-30.55 19.1-4.6 2-9.35 3.65-17.05 5.8-36.2 6.75-3.6.15-7.3.15-33.2 0-60.4-14.2-9.4-4.9-24-15.45-10.2-9.5-20.75-20.8T74.2-101m.75-73.3q2.05-7.15 5.35-13.95 7.75-15.95 22.5-30.05" transform="translate(1.6 306.65)"/><path stroke-linejoin="round" stroke-linecap="round" stroke="#000" fill="none" d="M254-249.7q-.9-21.9 23.6-47.4 44.3-1.2 65 53-20.8 34.2-33.65 40.95m-75 62.6.65.45.55 1.1m38.4.95.05-1.05M74.95-174.3q-14.5 2.65-28.55-.55-12.15-2.8-22.05-7.85-9.3-4.75-14.65-10.45l-1.2-2.15m-.4.45 1.6 1.7m-1.6-1.7-2.45 3.45q-5.2 8.2-5.6 18.6-.35 9.85 3.6 21.7 14.3 33.45 59.05 47.05M74.2-101q-6-1.4-11.5-3.05" transform="translate(1.6 306.65)"/><path stroke-width="1.5" stroke-linejoin="round" stroke-linecap="round" stroke="#634527" fill="none" d="M196.75 113.6q33.25 10.5 52.45 39.95 1.95 7.35.95 12-.4 1.95-1.35 3.45-1.6 2.45-4.6 3.55l-7.45-4.9m-81.55-35.1 3.6.8q45.4 10.1 76.75 32.75M289 123.55q7.5-3.8 15.2-3M260 171.3q-6.85-8.15.2-15.75 13.55-23.65 27.6-31.35l1.2-.65m-29 47.75.1.1q2.55 3.05 7.1 6.15l7.95-8.95m.05-1.05q23.2-24.1 44-29M196.75 113.6l-.15-.05-.2-.1q-11.3-3.55-24.2-4.9"/><path stroke-width="2" stroke-linejoin="round" stroke-linecap="round" stroke="#acab15" fill="none" d="M236.75 167.65q5 9.8 6.4 19.2m.15 1q1.8 14.25-4.75 27.45l-2.35 4.2q-33.65 17.95-75-13.95-2-6.65-3.45-13.25-6.85-30.55-2.6-59.3l.05-.45m81.55 35.1-1.55-1.1m84-28q4.4 12.45 5.4 24.5 1.9 23.05-8.75 44.6-2.5 5-5.65 9.9-19 7.8-38 1l.35-5.7 2.6-44.25"/><path stroke-width="1.75" stroke-linejoin="round" stroke-linecap="round" stroke="#7e5630" fill="none" d="m174.7 46.9 3.5 33.65m132.35 22.95-6.35 7.05M254 68.7l1.6-11.75M119.5 106.7l.7.85m-15.8-19.2 15.1 18.35"/><path stroke-linejoin="round" stroke-linecap="round" stroke="#634527" fill="none" d="M236.1-64.25q5.85-6.65 32.5-.9 1.6 16.7-18 30-7.8-6.5-12-11.8m-4.55-12.6q-.5 2 .1 4.4" transform="translate(1.6 306.65)"/><path stroke-width="2" stroke-linejoin="round" stroke-linecap="round" stroke="#7e5630" fill="none" d="M298.55 253.95q52 6.7 83.65 23.55m-98.1-9.65q51.15.45 86.1 23.65m-229.9-8.2q-41.15 12.2-66.1 35.2m42.1-50.65q-41.7 12.5-58.1 30.65"/><path stroke-width="1.75" stroke-linejoin="round" stroke-linecap="round" stroke="#000" fill="none" d="M104.4 88.35Q88.5 70.95 79.25 60.2 78.8-1.95 154.3 1.8q6.7 1 8.75 3.5l7.4 8.8-.3.7q3.35 4.8 3.55 10.4l1 21.7"/><path stroke-linejoin="round" stroke-linecap="round" stroke="#7e5630" fill="none" d="M69.8-142.45q.8-14.85 5.15-31.85m-3.2 62.6q-2.15-11.55-2.15-23.95l.2-6.8M74.2-101q-1.5-5.25-2.45-10.7" transform="translate(1.6 306.65)"/><path stroke-width="1.5" stroke-linejoin="round" stroke-linecap="round" stroke="#e28399" fill="none" d="m48 131.8-6 20.55-.5 4.05m22.2 6.85.1-2.55 5.6-26.35m-51.65 4.7 8.2-15.1m12.55 59.2v-.8l3-25.95m-23.75-17.35-.35.55-2.65 11.15-.9 10.3-.65 7.15m51.1 34.4-1.05-9.45m-24.75-10v7.6m25.2-27.5-.95 21.35.5 8.55"/><path stroke-width="3.25" stroke-linejoin="round" stroke-linecap="round" stroke="#000" fill="none" d="M255.6 56.95q-.9-21.9 23.6-47.4 44.3-1.2 65 53-20.8 34.2-33.65 40.95Q320 117.8 324.9 134q5.3 17.4 5.3 37 0 25.35-8.9 47.15-7.9 19.3-22.75 35.8l-6.3 6.5-8.15 7.4q-14.25 11.95-30.55 19.1-4.6 2-9.35 3.65-17.05 5.8-36.2 6.75-3.6.15-7.3.15-33.2 0-60.4-14.2-9.4-4.9-24-15.45-10.2-9.5-20.75-20.8t-19.75-41.4q-6-1.4-11.5-3.05Q19.55 189 5.25 155.55q-3.95-11.85-3.6-21.7.4-10.4 5.6-18.6l2.45-3.45-1-.65H10l.1.2 1.2 2.15q5.35 5.7 14.65 10.45Q35.85 129 48 131.8q14.05 3.2 28.55.55 2.05-7.15 5.35-13.95 7.75-15.95 22.5-30.05-15.9-17.4-25.15-28.15Q78.8-1.95 154.3 1.8q6.7 1 8.75 3.5l7.4 8.8-.3.7q3.35 4.8 3.55 10.4l1 21.7q9.75-2.4 26-2.4 20.65 0 37.35 5.1 9.4 2.85 17.55 7.35z"/></g><path fill-rule="evenodd" fill-opacity="0" fill="#f0f" d="M100 40H0V0h100v40" id="a"/><use xlink:href="#a" width="100" height="40" id="c"/></defs><path fill="none" d="M-1-1h184v155H-1z"/><g transform="scale(2)"><use x="46.05" y="106.5" xlink:href="#b" width="381" transform="translate(-192.55 -294)" height="381"/><use x="-150.098" y="-192.248" xlink:href="#c" width="100" transform="translate(142.95 205.85) scale(.9727)" height="40"/><use x="-196.543" y="454.545" xlink:href="#d" width="383.2" transform="matrix(-.2343 0 0 .2343 44.275 -105.662)" height="319.5"/></g></svg>