<svg width="192" height="113" xmlns="http://www.w3.org/2000/svg" xmlns:xlink="http://www.w3.org/1999/xlink"><defs><path fill-rule="evenodd" fill-opacity="0" fill="#f0f" d="M0 0h102.95v45H0V0" id="a"/><use xlink:href="#a" width="102.95" height="45" id="c"/><g id="b"><path stroke-opacity="0" stroke-linejoin="round" stroke-linecap="round" stroke="#f0f" fill="none" d="M187.95-293.5v380h-380v-380h380M92.95.6H-97" transform="translate(192.55 294)"/><path stroke-opacity="0" stroke-linejoin="round" stroke-linecap="round" stroke="#f0f" fill="none" d="m187.95-293.5-190 190 190 190m-380-380 190 190L-192 86.5" transform="translate(192.55 294)"/><path fill-rule="evenodd" fill="#f5a452" d="m8.05-96.7-.5-.35-4.5-3.2q-2.9-2.3-3-3.45 3.05-5.05 7.65-7 4.5-1.4 5.1 1.1l.45 2q.2 2.45-.5 5.7v.25q-2.4 1.55-3.95 3.75l-.75 1.2" transform="translate(192.55 294)"/><path fill-rule="evenodd" fill="#d18438" d="m38.5-96.3-.55-1.4-.05-.1-.15-.2q-1-6.8 3.95-12.25l.65-.35.7.15 2.25.4.2.55q.3 8.1-4.45 13.95l-1.15.65-1.4-1.4" transform="translate(192.55 294)"/><path fill-rule="evenodd" fill="#ec9300" d="m38.2-96.45.3.15 1.4 1.4 1.9 3.5.15.55q1.25 4.7.2 7.35-2.3 1.75-5.05.5l-.6-.3-.15-.2q-2.1-3.05-2-7l.15-.5q1.1-3.3 3-5.25l.7-.2M16.75-93.1l.4.75q.4 3.7-.9 7.4Q12.9-82 8.5-82.7L7.2-83q-.8-.9-1.05-2.1-.2-.8-.1-1.7l.1-1q.3-1.7 1.25-3.75l.3-.6q4.3-5.95 6.2-4.75 1.75 1.5 2.85 3.8" transform="translate(192.55 294)"/><path fill-rule="evenodd" fill="#c97105" d="M42.15-83.5q-.5 1.15-1.4 1.95-1.65 1.4-3.2 1.9-2.45.7-4.65-.8h-.1v-.25q.25-5.8 1.55-9.8-.1 3.95 2 7l.15.2.6.3q2.75 1.25 5.05-.5M18.55-81q-3.45 1.65-7 .55l-1.8-.8-1.65-1-.9-.75 1.3.3q4.4.7 7.75-2.25 1.3-3.7.9-7.4Q19-88 18.7-81h-.15" transform="translate(192.55 294)"/><path fill-rule="evenodd" fill="#6b4b2c" d="m30.85-76.15-.65.95-1.05.8q-1.05.6-2.55 1.05-2.65-.2-3.85-1.75-.6-.7-.55-1.45 0-.65.35-1.3 2.3-.85 4.6-.7l2.5.5.3.1.35.1q.7.95.55 1.7m-2.6-1.45q-.8.15-.45.85l1.15.45h.1q1.25-.25.8-1.25l-1.6-.05" transform="translate(192.55 294)"/><path fill-rule="evenodd" fill="#e4d0be" d="m28.25-77.6 1.6.05q.45 1-.8 1.25h-.1l-1.15-.45q-.35-.7.45-.85" transform="translate(192.55 294)"/><path fill-rule="evenodd" fill="#81664e" d="M27.85-72.7q.55-.25.3 1.15-.25 1.4-1.25 2-3.95.85-4.95 1.95-4.7.85-6.05 2.25l-.35-.15-.4-.25-.65-.4q2-1.5 2.55-4.1l.1-.8q-.65-2.5-3.6-4.3-1.6-3.15-3.8-5.9l1.8.8q4.4 4.65 10.8 7.75 2.75.45 5.5 0" transform="translate(192.55 294)"/><path fill-rule="evenodd" fill="#da9754" d="m16.9-63.05-1.35.4H7.3q1.4-1.8 7.85-3.1l.4.25-.65.9 2 1.55m-31.95-4.2-2.2-.25-9.4-1.1L-47.2-71l-.25-1.3-.2-2.2 2.1 2.2h7.75l10.1-.1v1.7l1.05 2.1-1.05-2.1v-1.7l8.55-.05 1.75-2.35 1.7.05 5.3.05q3.4 7.25-4.65 7.45m-2.2-.25-.8-2.5.65-2.9 1.7-1.85-1.7 1.85-.65 2.9.8 2.5m-19.25-3-.8-.55-.5-1.25.5 1.25.8.55" transform="translate(192.55 294)"/><path fill-rule="evenodd" fill="#facb9c" d="M15.9-65.35q1.45.9 2.95 1.75l-1.95.55-2-1.55.65-.9.35.15m-63.55-9.15.2-1.4q1.7.35 3.15 2.7l8-.8 10.25-.65 8.65-.15-1.75 2.35-8.55.05-10.1.1h-.1l.05-.1.05.1-.05-.1-.05.1h-7.65l-2.1-2.2m11.35.5-1.55 1.6 1.55-1.6m10.25-.65-1.65 2.25 1.65-2.25" transform="translate(192.55 294)"/><path fill-rule="evenodd" fill="#d08133" d="m-6.75-66.3-8.3-.95q8.05-.2 4.65-7.45l2 .05q.3 3.3 1.05 6.55l.6 1.8" transform="translate(192.55 294)"/><path fill-rule="evenodd" fill="#af6b29" d="M26.9-69.55q3.35 1.2 3.75 2.35l-8.7-.4q1-1.1 4.95-1.95" transform="translate(192.55 294)"/><path fill-rule="evenodd" fill="#83ca22" d="M8.8-97.9q1.55-2.2 3.95-3.75 1-.75 2.2-1.3l.4-2.45.2-2.25v-.4q.3-.95 2.35-.55l.8.95-.8-.95 2.85.3.7 1-.7-1 1.6-.05.65.15.4.1 2.55.85.2.05 2.1.8q3.3 1.55 5.95 4l.2.25 2 2.65 1.8 3.05-.7.2q-1.9 1.95-3 5.25l-.15.5q-1.3 4-1.55 9.8v.25h.1l.6 2.3.1.15-2.75 1.85q.15-.75-.55-1.7l-.35-.1-.3-.1-2.5-.5q-2.3-.15-4.6.7-.35.65-.35 1.3l-2.5-1.15-1.15-3.3h.15q.3-7-1.55-11.35l-.4-.75q-1.1-2.3-2.85-3.8-1.9-1.2-6.2 4.75l-.3.6q-.95 2.05-1.25 3.75-.6-4.4 1-8.35l.9-.05.75-1.7m6.6-12.95-3.3-3.05q-6.35-.5-14.85 6.8Q-1.3-118 11.8-117.3q2.9 2.35 3.6 6.45m10.85 4.5-.1-.85.1.85m-2.45-.8-.4-.95.4.95M-8.05-84.6l.5-2.95q2.3-3.1 6.05-3 4.3 2.45 7.65 5.45.25 1.2 1.05 2.1l.9.75 1.65 1q2.2 2.75 3.8 5.9 2.95 1.8 3.6 4.3l-.1.8q-7.45 7.8-16.75 2-8.7-7.35-8.35-16.35m20.15 8.45 1.45.8-1.45-.8" transform="translate(192.55 294)"/><path fill-rule="evenodd" fill="#3a8723" d="M.05-103.7q.1 1.15 3 3.45l4.5 3.2.5.35.75-1.2-.75 1.7-.9.05-1.85.05-3.2-.45q-1.2-.4-2.05-1-1-.7-1.65-1.7.65 1 1.65 1.7.85.6 2.05 1l3.2.45 1.85-.05q-1.6 3.95-1 8.35l-.1 1q-.1.9.1 1.7-3.35-3-7.65-5.45-3.75-.1-6.05 3 .7-3.3 1.9-6.6 1.55-3.05 4.05-5.1l-.1-.15q-1.45-2.3-1.2-6.25l.15-1.45q8.5-7.3 14.85-6.8l3.3 3.05.15 2.8v.4l-.2 2.25-.4 2.45q-1.2.55-2.2 1.3v-.25q.7-3.25.5-5.7l-.45-2q-.6-2.5-5.1-1.1-4.6 1.95-7.65 7m37.7 5.7q-2.35-3.85-6.15-6.7l2.35-1.2q3.75-4.7 9.75-8.8l1.6 4.65-2.25-.4-.7-.15-.65.35Q36.75-104.8 37.75-98m-.2 18.35-3.5 3.35q-2.35 1.8-5.15 3.1l-1.05.5q-2.75.45-5.5 0-6.4-3.1-10.8-7.75 3.55 1.1 7-.55l1.15 3.3 2.5 1.15q-.05.75.55 1.45 1.2 1.55 3.85 1.75 1.5-.45 2.55-1.05l1.05-.8.65-.95L33.6-78l-.1-.15-.6-2.3q2.2 1.5 4.65.8m-30.25 17H5q-8.45-.5-11.25-2.4l-.5-1.25-.6-1.8q-.75-3.25-1.05-6.55-.4-4.95.35-9.95-.35 9 8.35 16.35 9.3 5.8 16.75-2-.55 2.6-2.55 4.1l.65.4q-6.45 1.3-7.85 3.1" transform="translate(192.55 294)"/><path stroke-width=".05" stroke-linejoin="round" stroke-linecap="round" stroke="#5c463a" fill="none" d="m200.6 197.3.75-1.2q1.55-2.2 3.95-3.75v-.25q.7-3.25.5-5.7l-.45-2q-.6-2.5-5.1-1.1-4.6 1.95-7.65 7m15.5-4.35v.4l-.2 2.25-.4 2.45m.6-5.1-.15-2.8m-18.15 3.75-.15 1.45q-.25 3.95 1.2 6.25m.1.15q.65 1 1.65 1.7.85.6 2.05 1l3.2.45 1.85-.05.9-.05m-10.8-10.9q1.45-10.9 14.55-10.2 2.9 2.35 3.6 6.45"/><path stroke-width=".05" stroke-linejoin="round" stroke-linecap="round" stroke="#5c463a" fill="none" d="m210.45 185.4-.65-.9m-18.95 10.1.1.15m20.3-8.4-.8-.95m2.85.3-1.05-1.55m6.45 2.65.1.85m-.1-.85-.2-.05m-2.55-.85.4.95m-2.35-.15-.7-1m2.65.2-.55-1.25m11.55 7.2-.05-.15-.15-.1.2.25 2 2.65 1.8 3.05.3.15m-6.9-8.4 2.35-1.2q3.75-4.7 9.75-8.8l1.6 4.65.2.55q.3 8.1-4.45 13.95l-1.15.65 1.9 3.5.15.55q1.25 4.7.2 7.35-.5 1.15-1.4 1.95-1.65 1.4-3.2 1.9l-3.5 3.35q-2.35 1.8-5.15 3.1l-1.05.5q.55-.25.3 1.15-.25 1.4-1.25 2 3.35 1.2 3.75 2.35l-8.7-.4q-4.7.85-6.05 2.25 1.45.9 2.95 1.75l-1.95.55-1.35.4h-10.55q-8.45-.5-11.25-2.4l-.5-1.25-8.3-.95-2.2-.25-9.4-1.1-20.55-2.4-.25-1.3-.2-2.2.2-1.4q1.7.35 3.15 2.7l8-.8 10.25-.65 8.65-.15 1.7.05 5.3.05 2 .05q-.4-4.95.35-9.95l.5-2.95q.7-3.3 1.9-6.6 1.55-3.05 4.05-5.1m35.8-3.15q-2.65-2.45-5.95-4m14.8-4.05-.7-.15-.65.35q-4.95 5.45-3.95 12.25m.45 1.55-.7.2q-1.9 1.95-3 5.25m5.4-3.9-1.4-1.4m-16.3 19.75q-.05.75.55 1.45 1.2 1.55 3.85 1.75 1.5-.45 2.55-1.05l1.05-.8.65-.95q.15-.75-.55-1.7l-.35-.1-.3-.1-2.5-.5q-2.3-.15-4.6.7-.35.65-.35 1.3M211.1 213q-3.45 1.65-7 .55 4.4 4.65 10.8 7.75 2.75.45 5.5 0m6.5-17.8q-1.3 4-1.55 9.8v.25h.1q2.2 1.5 4.65.8m-20.8-13.45q-1.1-2.3-2.85-3.8-1.9-1.2-6.2 4.75l-.3.6q-.95 2.05-1.25 3.75m-.1 1q-.1.9.1 1.7.25 1.2 1.05 2.1l.9.75 1.65 1 1.8.8m5.6-11.9q1.85 4.35 1.55 11.35h-.15m-5 5.65-1.45-.8m1.45.8q2.95 1.8 3.6 4.3l-.1.8q-.55 2.6-2.55 4.1l.65.4.4.25.35.15m-.75-.4q-6.45 1.3-7.85 3.1m19.6-6.9q-3.95.85-4.95 1.95m-30.35-7.05q.3 3.3 1.05 6.55l.6 1.8"/><path stroke-width=".05" stroke-linejoin="round" stroke-linecap="round" stroke="#d17c27" fill="none" d="M164.85 221.6v1.7l1.05 2.1m-11.2-3.8 1.55-1.6m8.6 1.6 1.65-2.25m-11.75 2.35.5 1.25.8.55m20.8-4.25-1.7 1.85-.65 2.9.8 2.5"/><path stroke-width=".05" stroke-linejoin="round" stroke-linecap="round" stroke="#ae4620" fill="none" d="m154.75 221.7-.05-.1-.05.1"/><path fill-rule="evenodd" fill="#ffca17" d="m15.85-86.05-.55-3.15q-.85-3.1-2.65-5.05L12-94.9h.1q1.05-.3 2.15.85 1.1 1.25 1.65 3.3.55 2.05.25 3.65l-.3 1.05m24.8 2.15q.2-1.7 0-3.6-.35-3.6-1.9-6l-.6-.85h.1q1.15-.15 2.1 1.4.95 1.55 1.2 3.9.25 2.35-.4 4.05l-.5 1.1" transform="translate(192.55 294)"/><path fill-rule="evenodd" fill="#fff4bb" d="M8.95-91.15q0 .45.35.75.3.35.75.35t.8-.35q.3-.3.3-.75l-.3-.8-.8-.25-.75.25q-.35.4-.35.8m26.65.3q0 .45.35.75.3.35.75.35t.8-.35l.3-.75-.3-.8-.8-.25-.75.25q-.35.4-.35.8" transform="translate(192.55 294)"/></g></defs><path fill="none" d="M-1-1h194v115H-1z"/><g transform="scale(2)"><use x="48.55" y="118" xlink:href="#b" width="381" transform="translate(-192.55 -294)" height="381"/><use x="-79.405" y="-106.119" xlink:href="#c" width="102.95" transform="matrix(1.8072 0 0 1.6538 100 163.6)" height="45"/></g></svg>