<svg width="198" height="227" xmlns="http://www.w3.org/2000/svg" xmlns:xlink="http://www.w3.org/1999/xlink"><defs><use xlink:href="#a" width="13.15" height="15.25" id="d"/><use xlink:href="#b" width="102.95" height="45" id="e"/><g id="c" stroke-opacity="0" stroke-linejoin="round" stroke-linecap="round" stroke="#f0f" fill="none"><path d="M187.95-293.5v380h-380v-380h380M92.95.6H-97" transform="translate(192.55 294)"/><path d="m187.95-293.5-190 190 190 190m-380-380 190 190L-192 86.5" transform="translate(192.55 294)"/></g><g id="a"><path fill-rule="evenodd" fill-opacity=".502" fill="#360e00" d="m-1.9-.4 1.15.3-1 .45 1.8.5q2.35.2 4.15-1.3l.5-.45q.85.7.85 1.55 0 1.25-1.7 2.1-1.75.85-4.2.85t-4.15-.85Q-6.25 1.9-6.25.65q0-1 1.15-1.75.95.95 2.15 1.35L-1.9-.4m5.2-.9.2-.15-.1.2-.1-.05" transform="translate(6.85 11.65)"/><path fill-rule="evenodd" fill="#4f0000" d="m-3.15-9.8-.25 1.85.05.1L-2.2-4.2h.15l4.6-.4-.05-2.3-.4-.2-1.6.9.55-1.1L-.7-9l3.6 1.5 1.4.05.3-.6L5.25-6v.05l-1.8-.25-.2 2.9.75.9-.5.95-.2.15h-.05l.2-1.1-.8-.5-.6-.35h-3.4L-.2-.4l-.55.3-1.15-.3.4-.25-.3-.6-1.75-.5L-4.65-3l2.3.7-.55-1.1h-.15l-1-3.2.35-.35-.05-.1.35-2.55.25-.2" transform="translate(6.85 11.65)"/><path fill-rule="evenodd" fill="#b17934" d="m-3.4-9.6-.35 2.55.05.1-.35.35-.15-.45-1.45 1.45-.5-.55q.3-1.6 1.55-2.85l1.25-.95-.05.35" transform="translate(6.85 11.65)"/><path fill-rule="evenodd" fill="#e3ca9f" d="m-4.05-6.6 1 3.2h.15l.55 1.1-2.3-.7 1.1 1.25 1.75.5.3.6-.4.25-1.05.65q-1.2-.4-2.15-1.35-1.65-1.65-1.65-4l.1-1.15.75.85.25-.2 1.45-1.45.15.45" transform="translate(6.85 11.65)"/><path fill-rule="evenodd" fill="#fff" d="m1.6-10.35.75.3.3.75q0 .45-.3.75t-.75.3q-.45 0-.75-.3t-.3-.75q0-.45.3-.75l.75-.3" transform="translate(6.85 11.65)"/><path fill-rule="evenodd" fill="#f8ebcf" d="m1.6-10.35-.75.3q-.3.3-.3.75t.3.75q.3.3.75.3t.75-.3q.3-.3.3-.75l-.3-.75-.75-.3m3 2.3-.3.6-1.4-.05L-.7-9l1.75 1.7L.5-6.2l1.6-.9.4.2.05 2.3-4.6.4h-.15l-1.15-3.65-.05-.1.25-1.85.15-1.05q1.2-.7 2.75-.7 2.35 0 4 1.65L4.8-8.45l-.2.4M2.65-2.9l.8.5-.2 1.1q-1.1-.2-2-.75L2.6-2.2l.05-.7m.85 1.45L4-2.4l-.75-.9.2-2.9 1.8.25V-6l.55-.9q.5 1.2.4 2.6Q6-2.5 4.9-1.15h-.55l-.4-.05-.55-.05.1-.2" transform="translate(6.85 11.65)"/><path fill-rule="evenodd" fill="#dcb689" d="m-.75-.1.55-.3-1.15-2.85h3.4l.6.35-.05.7-1.35.15q.9.55 2 .75h.05l.1.05.55.05.4.05h.55l-.2.25-.5.45Q2.4 1.05.05.85l-1.8-.5 1-.45" transform="translate(6.85 11.65)"/><path stroke-width=".25" stroke-linejoin="round" stroke-linecap="round" stroke="#815929" fill="none" d="M11.65 3.2 10.6 1.75Q8.95.1 6.6.1 5.05.1 3.85.8M3.1 4.6l.05.1m8.6 5.8q1.1-1.35 1.3-3.15.1-1.4-.4-2.6M5.1 12l1.8.5q2.35.2 4.15-1.3l.5-.45.2-.25M3.5 1.7l-1.25.95Q1 3.9.7 5.5m-.5-.1L.1 6.55q0 2.35 1.65 4 .95.95 2.15 1.35"/></g><path fill-rule="evenodd" fill-opacity="0" fill="#f0f" d="M0 0h102.95v45H0V0" id="b"/></defs><path fill="none" d="M-1-1h200v229H-1z"/><g transform="scale(2)"><use x="51.55" y="150.5" xlink:href="#c" width="381" transform="translate(-192.55 -294)" height="381"/><use x="19.343" y="-19.71" xlink:href="#d" width="13.15" transform="matrix(-7.2636 0 0 7.2553 237.656 144.225)" height="15.25"/><use x="-77.745" y="-86.468" xlink:href="#e" width="102.95" transform="matrix(1.8072 0 0 1.6538 100 154.65)" height="45"/></g></svg>