<svg width="164" height="158" xmlns="http://www.w3.org/2000/svg" xmlns:xlink="http://www.w3.org/1999/xlink"><defs><use xlink:href="#a" width="160.2" height="153.75" id="d"/><use xlink:href="#b" width="102.95" height="45" id="e"/><g id="c" stroke-opacity="0" stroke-linejoin="round" stroke-linecap="round" stroke="#f0f" fill="none"><path d="M187.95-293.5v380h-380v-380h380M92.95.6H-97" transform="translate(192.55 294)"/><path d="m187.95-293.5-190 190 190 190m-380-380 190 190L-192 86.5" transform="translate(192.55 294)"/></g><g id="a"><path fill-rule="evenodd" d="M49.6-52.25q-.15.1-.15.35l-3.2 7.2.15.35L50.85-46l.15-.25q0-2.2 2.45-9.55 4.6-.1 13.7 10.3 5.45 5.9 9.1 19.55Q80-12.6 78.6-2.25L78.1.5H78l-.35-2.6Q72.6-41.05 55-48.25l-2.5 11.7.15-.1.1.55h-.1l-.5 2.5q6.05 14.5 4.4 27.5 2.25 1.75 4.1 4.2l.25.4L55.45.85q1.2.95 1.8 2.95.8 2.7.35 5.75-.35 1.8-1.2 3.1l1.1.9q1.3 1.55 1.75 3.7.35 2.2-.45 3.75l-.95.95v.35q.35 4.15 0 8.4l-1.3 1.75q.95 2.35.95 4.6 0 2.95-1.8 3.9-1.75.7-4.25-.85l-.1.15.45 2.45 2.95.95q4.95 4 5.9 9.2-.2 1.75-2.7 2.25l-5.8.7q.5 1.9.6 4-.45 1.65-2.7 1.9-7.8 0-13.9-2.6h-1.1l-.1.25-2 2.6-2.35 1.65q-2.6 1.15-4.25 0-1.65-1.3-1.45-4.4-1.85 1.55-3.85 2.25l-2.85.7q.35 2.05.25 4.15-.7 1.9-3.2 2.25-2.95.35-8.6-1.65-1.55.8-3.3 1.4l-.15 3.8q-.7 3.15-7.3 3.65l-3.65-.35q-3.9-1.2-4.95-5.7-.25-.9-.1-1.75l-1.9-.35q-.5 1.75-3.8 2.1l-2-.35q-1.9-.7-2.45-3.3-.25-1.65.45-2.95l1.4-2.25.15-.2q-.35-4 2.95-7.7 1.75-2.1 4.8-4l.25-.1-.45-.35q-1.3.8-2.15-1.2l-.2.5q-1.9 1.15-3.7 1.65-2.1.55-4.1 0-3.9-1.3-7.65-6.5-.4-4.25 0-8.4v-.35l-.85-.95q-.95-1.5-.45-3.75.35-2.1 1.75-3.65l1.05-.95q-.95-1.3-1.15-3.05-.6-3.1.2-5.8.6-2 1.8-2.95-2.6-1.2-5.3-2.35 3.5-4.95 8.45-7.2-8.35-2.6-14.5-9.1l-2-2.2q-.95.7-1.65 2.1-2.7 5.3-2.25 19.7l-3.5-5.1q-2.6-8-.95-14.85.95-3.55 2.95-6.7l-2.4-7.1h-.1v-.6l.1.15-4.1-10.65q-11.35 8.05-17 24.3-4.95 13.7-5.65 33.4l-.1.1q-4.05-10.1-.5-26.85l1.65-6.75q2.85-10.25 7.3-16.4 9.7-14.05 15.45-15.8 3.55 6.25 3.9 8.4 3.2 3.3 4.25 5.4 3.2 8.5 6.85 13.55l.6.85q-1.05-5.65 2.85-12.75-2.75-5.2 6.1-16.65 12.85-17.1 18.65-30.15 1.55-3.55 5.3-4.75 6.6-2.45 20.15 1.8 21.25 6.45 23.25 18.95l4.35 4.4 6.3-2.5" transform="translate(80.1 76.9)"/><path stroke-width="2.25" stroke-linejoin="round" stroke-linecap="round" stroke="#1f1f29" fill="none" d="m129.7 24.65-6.3 2.5-4.35-4.4q-2-12.5-23.25-18.95Q82.25-.45 75.65 2q-3.75 1.2-5.3 4.75Q64.55 19.8 51.7 36.9q-8.85 11.45-6.1 16.65-3.9 7.1-2.85 12.75l-.6-.85Q38.5 60.4 35.3 51.9q-1.05-2.1-4.25-5.4-.35-2.15-3.9-8.4-5.75 1.75-15.45 15.8-4.45 6.15-7.3 16.4l-1.65 6.75q-3.55 16.75.5 26.85l.1-.1Q4.05 84.1 9 70.4q5.65-16.25 17-24.3l4.1 10.65-.1-.15v.6h.1l2.4 7.1q-2 3.15-2.95 6.7-1.65 6.85.95 14.85l3.5 5.1q-.45-14.4 2.25-19.7.7-1.4 1.65-2.1l2 2.2q6.15 6.5 14.5 9.1-4.95 2.25-8.45 7.2 2.7 1.15 5.3 2.35-1.2.95-1.8 2.95-.8 2.7-.2 5.8.2 1.75 1.15 3.05l-1.05.95q-1.4 1.55-1.75 3.65-.5 2.25.45 3.75l.85.95v.35q-.4 4.15 0 8.4 3.75 5.2 7.65 6.5 2 .55 4.1 0 1.8-.5 3.7-1.65l.2-.5q.85 2 2.15 1.2l.45.35-.25.1q-3.05 1.9-4.8 4-3.3 3.7-2.95 7.7l-.15.2-1.4 2.25q-.7 1.3-.45 2.95.55 2.6 2.45 3.3l2 .35q3.3-.35 3.8-2.1l1.9.35q-.15.85.1 1.75 1.05 4.5 4.95 5.7l3.65.35q6.6-.5 7.3-3.65l.15-3.8q1.75-.6 3.3-1.4 5.65 2 8.6 1.65 2.5-.35 3.2-2.25.1-2.1-.25-4.15l2.85-.7q2-.7 3.85-2.25-.2 3.1 1.45 4.4 1.65 1.15 4.25 0l2.35-1.65 2-2.6.1-.25h1.1q6.1 2.6 13.9 2.6 2.25-.25 2.7-1.9-.1-2.1-.6-4l5.8-.7q2.5-.5 2.7-2.25-.95-5.2-5.9-9.2l-2.95-.95-.45-2.45.1-.15q2.5 1.55 4.25.85 1.8-.95 1.8-3.9 0-2.25-.95-4.6l1.3-1.75q.35-4.25 0-8.4v-.35l.95-.95q.8-1.55.45-3.75-.45-2.15-1.75-3.7l-1.1-.9q.85-1.3 1.2-3.1.45-3.05-.35-5.75-.6-2-1.8-2.95L141 75.4l-.25-.4q-1.85-2.45-4.1-4.2 1.65-13-4.4-27.5l.5-2.5h.1l-.1-.55-.15.1 2.5-11.7q17.6 7.2 22.65 46.15l.35 2.6h.1l.5-2.75q1.4-10.35-2.35-23.7-3.65-13.65-9.1-19.55-9.1-10.4-13.7-10.3-2.45 7.35-2.45 9.55l-.15.25-4.45 1.65-.15-.35 3.2-7.2q0-.25.15-.35z"/><path fill-rule="evenodd" fill="#ebe0c3" d="M51-46.25q0-2.2 2.45-9.55 4.6-.1 13.7 10.3 5.45 5.9 9.1 19.55Q80.5-10.85 78.1.5H78q-4.95-41.3-23-48.75l-2.5 11.7q-.2.8.15.45-.85 3.9-1.4 7.7L51-46.25" transform="translate(80.1 76.9)"/><path fill-rule="evenodd" fill="#771e09" d="M52.65-36.1q-.35.35-.15-.45l.15-.1.1.55h-.1" transform="translate(80.1 76.9)"/><path fill-rule="evenodd" fill="#ceb173" d="m51-46.25.25 17.85q5.5 7.2 3.4 20.4l-2.5 6.25q-.9-18.05-4.8-20.05-5.8 12.5-15.8 19.1l-1.2-3.55q9.2-6.95 13.35-17.8 2.35-6.15 4.2-15.45.75-2.5 3.1-6.75" transform="translate(80.1 76.9)"/><path stroke-width=".05" stroke-linejoin="round" stroke-linecap="round" stroke="#1f1f29" fill="none" d="M158.1 77.4h.1q2.4-11.35-1.85-26.45-3.65-13.65-9.1-19.55-9.1-10.4-13.7-10.3-2.45 7.35-2.45 9.55m.25 17.85q.55-3.8 1.4-7.7-.35.35-.15-.45l2.5-11.7M111.65 74.2q10-6.6 15.8-19.1m7.3 13.8q2.1-13.2-3.4-20.4"/><path fill-rule="evenodd" fill="#ebe0c3" d="m-76.75 26.9-.1.1q-4.05-10.1-.5-26.85 3.1-15.1 8.95-23.15 9.7-14.05 15.45-15.8 3.55 6.25 3.9 8.4l1.45 17.8-2.4-7.1q.4.25 0-.45l-4.1-10.65q-21 15-22.65 57.7" transform="translate(80.1 76.9)"/><path fill-rule="evenodd" fill="#ceb173" d="M-49.05-30.4q3.2 3.3 4.25 5.4 3.2 8.5 6.85 13.55 5.9 9 17.6 12.05-.75 2.1-1.1 4-12.6-2.35-20.75-12.35-4.45 3.65-3.9 21.8l-3.5-5.1q-4.05-12.25 2-21.55l-1.45-17.8" transform="translate(80.1 76.9)"/><path fill-rule="evenodd" fill="#771e09" d="M-50-19.7h-.1v-.6l.1.15q.4.7 0 .45" transform="translate(80.1 76.9)"/><path stroke-width=".05" stroke-linejoin="round" stroke-linecap="round" stroke="#1f1f29" fill="none" d="m3.35 103.8-.1.1q-4.05-10.1-.5-26.85 3.1-15.1 8.95-23.15 9.7-14.05 15.45-15.8 3.55 6.25 3.9 8.4m27.6 35q-12.6-2.35-20.75-12.35m-7.4 16.7q-4.05-12.25 2-21.55l-2.4-7.1q.4.25 0-.45L26 46.1"/><path fill-rule="evenodd" fill="#596ba6" d="M35.4-9.45q17-4 25.5 7.95L55.45.85l-3.4 1.75-1.05.5q-3.2-4.85-11.45-7L33.2-4.95l2.2-4.5" transform="translate(80.1 76.9)"/><path fill-rule="evenodd" fill="#381952" d="m51 3.1 1.05-.5 3.4-1.75q1.2.95 1.8 2.95.8 2.7.35 5.75-.35 1.8-1.2 3.1l1.1.9q1.3 1.55 1.75 3.7.35 2.2-.45 3.75l-.95.95v.35q.35 4.15 0 8.4-3.8 5.15-7.55 6.45-.35-16.5-9.35-21.2v-.15l.25-6.7q4.25-3.05 9.8-6" transform="translate(80.1 76.9)"/><path fill-rule="evenodd" fill="#485786" d="m33.2-4.95 6.35 1.05Q47.8-1.75 51 3.1q-5.55 2.95-9.8 6-2.7 2-4.85 4h-.55q-3.8-.1-5.2-2.6-2.35-4.25 2.6-15.45" transform="translate(80.1 76.9)"/><path fill-rule="evenodd" fill="#582578" d="M50.3 37.15q-2.15.6-4.25 0l-9-8.85-.1-1.3-.45.75q-.7 1.15-1.55 1.5-2.1-6.6.85-16.15h.55q2.15-2 4.85-4l-.25 6.7v.15q9 4.7 9.35 21.2" transform="translate(80.1 76.9)"/><path fill-rule="evenodd" fill="#9467b0" d="M46.05 37.15q-1.8-.45-3.55-1.65l-.35-.45q-.85 2-2 1.15-1.45-.8-2.35-4.1l-.75-3.8 9 8.85m-11.1-7.9h-.7q-1.3-.2-1.9-3.15-.8-3.2-.45-7.2.2-2.5.8-4.5l-.7-.7q-1.05-1.2-1.4-3.2 1.4 2.5 5.2 2.6-2.95 9.55-.85 16.15" transform="translate(80.1 76.9)"/><path stroke-width=".05" stroke-linejoin="round" stroke-linecap="round" stroke="#1f1f29" fill="none" d="M135.55 77.75 141 75.4q-8.5-11.95-25.5-7.95m16.65 12.05 3.4-1.75M116.45 90q2.15-2 4.85-4 4.25-3.05 9.8-6"/><path stroke-width=".05" stroke-linejoin="round" stroke-linecap="round" stroke="#1f1f29" fill="none" d="M135.55 77.75q1.2.95 1.8 2.95.8 2.7.35 5.75-.35 1.8-1.2 3.1l1.1.9q1.3 1.55 1.75 3.7.35 2.2-.45 3.75l-.95.95v.35q.35 4.15 0 8.4-3.8 5.15-7.55 6.45-2.15.6-4.25 0-1.8-.45-3.55-1.65l-.35-.45q-.85 2-2 1.15-1.45-.8-2.35-4.1l-.75-3.8-.1-1.3-.45.75q-.7 1.15-1.55 1.5h-.7q-1.3-.2-1.9-3.15-.8-3.2-.45-7.2.2-2.5.8-4.5l-.7-.7q-1.05-1.2-1.4-3.2"/><path fill-rule="evenodd" fill="#fef7e0" d="M42.05 45.3q1.85-1.75 4.2-2.45 3.8-1.1 8.5.8 4.95 4 5.9 9.2-.2 1.75-2.7 2.25-4-5.8-10.6-6.85l-.85-.1q1.2.45 2.35 1.3 2.4 3.05 3.3 6.35.5 1.9.6 4-.45 1.65-2.7 1.9-1.65-3.9-4.25-6.15-2.1-1.85-4.85-2.8-2.45-.85-5.4-.85l.1-1.75q2.5-2.25 5.1-2.85v-.7q.1-.25.35-.35.35-.6.95-.95M43.7 40l-4.6.25-6.25-.25q3.15-4 8-2.85 1.9 1.2 2.85 2.85m-2.95 7.3q2.8-.6 5.75.85-2.95-1.45-5.75-.85" transform="translate(80.1 76.9)"/><path fill-rule="evenodd" fill="#eaa32d" d="m42.05 45.3-.6-2.35q-4.6-1.65-8.75-1.3l-2.95.45 3.1.5q4.2.7 7.15 2l.25.1.85 1.55q-.25.1-.35.35v.7q-2.6.6-5.1 2.85l-.1 1.75-.85 6.5 1.45.7-4.15-.35q-.35-7.1 1.2-8.95-2.5-1.45-4.95-2.75l-.85-.45-5.9-1.65q2.5-3.4 8.4-6.5 1.15 1.05 2.95 1.55l6.25.25 4.6-.25 1.4.45q.7.6.8 1.65l.35.75q-2.35.7-4.2 2.45m-4.25-.8q-1.55-.85-2.95-.95l-.5-.15q-2.95 0-5.65 3.2l-.45.45.45-.45q2.7-3.2 5.65-3.2l.5.15q1.4.1 2.95.95" transform="translate(80.1 76.9)"/><path fill-rule="evenodd" fill="#cf7b16" d="m41.1 46.25-.85-1.55-.25-.1q-2.95-1.3-7.15-2l-3.1-.5 2.95-.45q4.15-.35 8.75 1.3l.6 2.35q-.6.35-.95.95m-19.6-1.3 5.9 1.65.85.45q2.45 1.3 4.95 2.75-1.55 1.85-1.2 8.95l-10.5-2-1.3-5.1q-.95-3.5 1.3-6.7" transform="translate(80.1 76.9)"/><path fill-rule="evenodd" fill="#d9ceb4" d="m36.15 59.1-1.45-.7.85-6.5q2.95 0 5.4.85 2.75.95 4.85 2.8 2.6 2.25 4.25 6.15-7.8 0-13.9-2.6m16-3.3q-.9-3.3-3.3-6.35-1.15-.85-2.35-1.3l.85.1q6.6 1.05 10.6 6.85l-5.8.7" transform="translate(80.1 76.9)"/><path stroke-width=".05" stroke-linejoin="round" stroke-linecap="round" stroke="#1f1f29" fill="none" d="M122.15 122.2q1.85-1.75 4.2-2.45L126 119q-.1-1.05-.8-1.65l-1.4-.45-4.6.25-6.25-.25q-1.8-.5-2.95-1.55-5.9 3.1-8.4 6.5m6.75 2.1.45-.45q2.7-3.2 5.65-3.2l.5.15q1.4.1 2.95.95m-4.95-4.5q3.15-4 8-2.85 1.9 1.2 2.85 2.85m-8.05 10.15q2.5-2.25 5.1-2.85m0-.7q.1-.25.35-.35.35-.6.95-.95m-7.35 13.1 1.45.7q6.1 2.6 13.9 2.6m-13.9-2.6-4.15-.35-10.5-2-1.3-5.1q-.95-3.5 1.3-6.7m25 3.2q1.2.45 2.35 1.3 2.4 3.05 3.3 6.35l5.8-.7m-11.45-6.95q-2.95-1.45-5.75-.85m11.4 8.5q.5 1.9.6 4-.45 1.65-2.7 1.9m-3.8-18.85q3.8-1.1 8.5.8 4.95 4 5.9 9.2-.2 1.75-2.7 2.25"/><path fill-rule="evenodd" fill="#cf7b16" d="m-12.95 55.9 1.3-.7-1.3.7m-5.3 2.25-.1.15q-1.3.2-2.6 2.35-.35-4 2.95-7.7l6.35 2.25 4.75 2.85Q-8.2 59.1-9.5 61l-2.6 3.9q-.7 1.3-.7 3.05l-1.9-.35.1-.1q.35-5.35-.95-7.45-1.3-2.15-2.7-1.9M.5 56.85l-1.55-1.05q-1.15-1.4-2.55-2l-.5-.25L-8.2 50l10.7.95 1.2 3.45q-1.55.8-3.2 2.35v.1" transform="translate(80.1 76.9)"/><path fill-rule="evenodd" fill="#fef7e0" d="m-18.35 58.3.1-.15q1.4-.25 2.7 1.9 1.3 2.1.95 7.45l-.1.1q-.5 1.75-3.8 2.1l-2-.35q1.05-.35 1.55-2.35.7-2.8.6-8.7m12.85-1.2q2.8-1.55 5.65 1.55l.95 1.15q1.55 1.9 2 5.65l.25 2.85-.15 3.8q-.7 3.15-7.3 3.65l-3.65-.35q1.9-1.9 2.5-6.25.55-4.6-.25-12.05m5.65 1.55.35-1.8v-.1q1.65-1.55 3.2-2.35 3.2-1.9 6.35-1.45 2.5.25 5.1 2.05 3.65 5.15 3.3 11.3-.7 1.9-3.2 2.25-1.65-4.95-5.2-7.45-2-1.4-4.6-2l-1.9-.35-3.4-.1" transform="translate(80.1 76.9)"/><path fill-rule="evenodd" fill="#eaa32d" d="M-11.65 55.2-18 52.95q3.4-3.85 10.85-7.3 2.6 2.85 9.3 2.85 5.9 0 7.8 4.1l.1.35Q6.9 52.5 3.7 54.4l-1.2-3.45L-8.2 50l4.1 3.55.5.25q1.4.6 2.55 2L.5 56.85l-.35 1.8q-2.85-3.1-5.65-1.55l-1.4.95-4.75-2.85q4.35-2.6 7.55-1.65-3.2-.95-7.55 1.65m15 13.1-.25-2.85 3.55 1.45q-1.55.8-3.3 1.4" transform="translate(80.1 76.9)"/><path fill-rule="evenodd" fill="#d9ceb4" d="M-18.35 58.3q.1 5.9-.6 8.7-.5 2-1.55 2.35-1.9-.7-2.45-3.3-.25-1.65.45-2.95l1.4-2.25.15-.2q1.3-2.15 2.6-2.35m12.85-1.2q.8 7.45.25 12.05-.6 4.35-2.5 6.25-3.9-1.2-4.95-5.7-.25-.9-.1-1.75 0-1.75.7-3.05l2.6-3.9q1.3-1.9 2.6-2.95l1.4-.95m8.6 8.35q-.45-3.75-2-5.65l-.95-1.15 3.4.1 1.9.35q2.6.6 4.6 2 3.55 2.5 5.2 7.45-2.95.35-8.6-1.65L3.1 65.45" transform="translate(80.1 76.9)"/><path stroke-width=".05" stroke-linejoin="round" stroke-linecap="round" stroke="#1f1f29" fill="none" d="m68.45 132.1-1.3.7m-7.55 13.45 2 .35q3.3-.35 3.8-2.1l.1-.1q.35-5.35-.95-7.45-1.3-2.15-2.7-1.9m.25-5.2q-3.3 3.7-2.95 7.7 1.3-2.15 2.6-2.35m18.5.35q-2.85-3.1-5.65-1.55m-2.25 18.3 3.65.35q6.6-.5 7.3-3.65l.15-3.8-.25-2.85q-.45-3.75-2-5.65l-.95-1.15m-1.2-2.85q-1.15-1.4-2.55-2l-.5-.25q-3.2-.95-7.55 1.65m4.75 2.85 1.4-.95m6-.35q1.65-1.55 3.2-2.35m-21.7-1.45q3.4-3.85 10.85-7.3 2.6 2.85 9.3 2.85 5.9 0 7.8 4.1l.1.35q2.5.25 5.1 2.05 3.65 5.15 3.3 11.3-.7 1.9-3.2 2.25-2.95.35-8.6-1.65-1.55.8-3.3 1.4m-24.3-7.65-.15.2-1.4 2.25q-.7 1.3-.45 2.95.55 2.6 2.45 3.3m7.7-1.4q-.15.85.1 1.75 1.05 4.5 4.95 5.7m-6.95-7.8 1.9.35q0-1.75.7-3.05l2.6-3.9q1.3-1.9 2.6-2.95m16.95-5.1q-3.15-.45-6.35 1.45m-.6 11.05 3.55 1.45"/><path fill-rule="evenodd" fill="#485786" d="M32.95 61.95 30.6 63.6q-2.6 1.15-4.25 0-1.65-1.3-1.45-4.4-1.85 1.55-3.85 2.25-3.1 1.2-4.95.5-1.8-.85-1.65-2.85-8.3-.6-16.75-4.25-.4.35-6.65-3.4Q-38.3 34.55-14-4.25q12.5-12.5 26.65-13.3 12.5-.95 18.9 5.3L36-7.4q.15.9 1.65 2.2 1.45 1.1 2 3.1L40-.6l1.2-.1h.6l1.15.1q2.5.6 4.25 2.5 1.65 1.9 1.8 3.9-.15 1.4-1.1 2.35l-.9.7.35.1-3.55 3.2-.1-.1q-2.75-.95-5.35-.7-2.55 1.4-2.55 5.05-4.85 1.65-10.4 1.75-2.7-4.2-8.95-3.65l-2.15.75-1.05.45q-.7.25-1.3.6l-2.1-.6.7 1.3Q1.1 21.85-7.5 31.05l2.35 6q8.7-7.2 17.2-11.2-.45 5.65-4.35 12l1.2.5q-5.8 5.2-10.65 11.9l4.05 3.9Q9.1 46.7 16.55 41.3q18.15 8.25 16.4 20.65" transform="translate(80.1 76.9)"/><path fill-rule="evenodd" fill="#ceb173" d="M16.55 41.3Q9.1 46.7 2.3 54.15l-4.05-3.9q4.85-6.7 10.65-11.9 1.15-1.2 2.6-2.25l5.05 5.2m-4.5-15.45q-8.5 4-17.2 11.2l-2.35-6Q1.1 21.85 10.55 17q.55-.5 1.4-.7.6-.35 1.3-.6v9.65l-1.2.5m31.65-13.8.1.1q3.55.95 7.3 3.65l.25 2.6.1 1.9q-2.25-1.05-4.25-1.65l-3.4-6.5-.1-.1m5.75 21.7-2.25-6q3.45 1.15 7.1 3.65l.7 4.25q-2.1-.95-4.25-1.45l-1.3-.45" transform="translate(80.1 76.9)"/><path fill-rule="evenodd" fill="#596ba6" d="M32.95 61.95q1.75-12.4-16.4-20.65Q24 36 31.9 32.7q-4.05-5.1-12.5-2.15-4.25 2.5-7.9 5.55-1.45 1.05-2.6 2.25l-1.2-.5q3.9-6.35 4.35-12l1.2-.5q6.7-3.05 13.45-4.1-.6-1.9-1.3-3.1 5.55-.1 10.4-1.75l.2 2.15q4.85-1.9 11.2.1 2 .6 4.25 1.65l-.1-1.9.95-.95-.95.95-.25-2.6q-3.75-2.7-7.3-3.65l3.55-3.2 1.85 1.8.85.7q1.9 2.35 2.25 4.5v1.5l.6.5q1.5 1.65 1.85 4.1.35 2.15-.55 3.8-.15.1-.15.25L53 27.15l1.3 1.5 1.4 2.15q1.8 3.2 1.8 6.25 0 2.95-1.8 3.9-1.75.7-4.25-.85l-.1-.1v.25q.6 2.35.45 4.7-.35 3.4-1.75 4.7-1.55 1.3-3.4-.2l-1.3-1.2-.6.35-.35.5-.25 2.2q-.45 2.4-2.35 3.8-1.9 1.15-3.9.7l-1.3-.45q-.45 2-1.65 4l-2 2.6M10.55 17l-.7-1.3 2.1.6q-.85.2-1.4.7M47.2 27.75l-1.65-.5-4.1-.25q-3.3 1.55-2.25 6.65 4.5-1.55 10.25.1l1.3.45q2.15.5 4.25 1.45l-.7-4.25q-3.65-2.5-7.1-3.65" transform="translate(80.1 76.9)"/><path fill-rule="evenodd" fill="#9f59aa" d="m47.35 8.95-.35-.1.9-.7.4.7.35.7.55 1.2-1.85-1.8M41.8-.7h-.6L40-.6l-.35-1.5q-.55-2-2-3.1l.25-.2 2 2.25L41.8-.7m12.5 29.35-1.3-1.5 1.05-1.05q0-.15.15-.25l.1 2.8M51.45 40.1l-.1.15V40l.1.1" transform="translate(80.1 76.9)"/><path fill-rule="evenodd" fill="#582578" d="M37.65-5.2Q36.15-6.5 36-7.4l1.9 2-.25.2" transform="translate(80.1 76.9)"/><path fill-rule="evenodd" fill="#ebe0c3" d="m13.25 15.7 1.05-.45 2.15-.75q6.25-.55 8.95 3.65.7 1.2 1.3 3.1-6.75 1.05-13.45 4.1V15.7m22.55.7q0-3.65 2.55-5.05 2.6-.25 5.35.7l.1.1 3.4 6.5q-6.35-2-11.2-.1l-.2-2.15m13.65 17.35q-5.75-1.65-10.25-.1-1.05-5.1 2.25-6.65l4.1.25 1.65.5 2.25 6M11.5 36.1q3.65-3.05 7.9-5.55 8.45-2.95 12.5 2.15Q24 36 16.55 41.3l-5.05-5.2" transform="translate(80.1 76.9)"/><path stroke-width=".05" stroke-linejoin="round" stroke-linecap="round" stroke="#1f1f29" fill="none" d="M66.1 72.65q-24.3 38.8 5.05 55.7 6.25 3.75 6.65 3.4 8.45 3.65 16.75 4.25-.15 2 1.65 2.85 1.85.7 4.95-.5 2-.7 3.85-2.25-.2 3.1 1.45 4.4 1.65 1.15 4.25 0l2.35-1.65m14.4-53-.35-.1.9-.7q.95-.95 1.1-2.35-.15-2-1.8-3.9-1.75-1.9-4.25-2.5l-1.15-.1h-.6l-1.2.1-.35-1.5q-.55-2-2-3.1-1.5-1.3-1.65-2.2m16.3 24.85v-1.5q-.35-2.15-2.25-4.5l-.85-.7-1.85-1.8m4.95 8.5-.95.95m2.85 7.45q.9-1.65.55-3.8-.35-2.45-1.85-4.1l-.6-.5m2 11.2-1.3-1.5 1.05-1.05q0-.15.15-.25m.1 2.8 1.4 2.15q1.8 3.2 1.8 6.25 0 2.95-1.8 3.9-1.75.7-4.25-.85m-.1.15q.6 2.35.45 4.7-.35 3.4-1.75 4.7-1.55 1.3-3.4-.2l-1.3-1.2-.6.35-.35.5-.25 2.2q-.45 2.4-2.35 3.8-1.9 1.15-3.9.7l-1.3-.45q-.45 2-1.65 4l-2 2.6m18.4-21.7v-.25l.1.1"/><path fill-rule="evenodd" fill="#d1bb90" d="M45.35-30.9q-3.2-.95-5.55-3.75l12.15-11.8.1.2-6.7 15.35" transform="translate(80.1 76.9)"/><path fill-rule="evenodd" fill="#fef7e0" d="M39.8-34.65q-2.15-2.25-3.65-5.8l15.8-6 .2-.15-.1.35-.1-.2-12.15 11.8" transform="translate(80.1 76.9)"/><path stroke-width=".05" stroke-linejoin="round" stroke-linecap="round" stroke="#1f1f29" fill="none" d="m116.25 36.45 15.8-6 .2-.15-.1.35-6.7 15.35"/><path fill-rule="evenodd" fill="#fef7e0" d="M-16.1-37.85-.55-34.3q1.2 5.9-1.55 8.6l-14-12.15" transform="translate(80.1 76.9)"/><path fill-rule="evenodd" fill="#d1bb90" d="M-2.1-25.7q-2.35 2.35-7.55 2.35l-6.6-14.5h.15l14 12.15" transform="translate(80.1 76.9)"/><path stroke-width=".05" stroke-linejoin="round" stroke-linecap="round" stroke="#1f1f29" fill="none" d="m64 39.05 15.55 3.55m-9.1 10.95-6.6-14.5H64l6.45 14.5z"/><path fill-rule="evenodd" fill="#381952" d="m-28.85 13.1 3.55 1.75.9.5q5.55 2.95 9.8 6l.25 6.75v.1q-8.95 4.7-9.2 21.25-3.9-1.3-7.65-6.5-.4-4.25 0-8.4v-.35l-.85-.95q-.95-1.5-.45-3.75.35-2.1 1.75-3.65l1.05-.95q-.95-1.3-1.15-3.05-.6-3.1.2-5.8.6-2 1.8-2.95" transform="translate(80.1 76.9)"/><path fill-rule="evenodd" fill="#596ba6" d="m-25.3 14.85-3.55-1.75q-2.6-1.2-5.3-2.35 8.35-11.9 25.35-7.9l2.25 4.45-6.4 1.1q-8.25 2.1-11.45 6.95l-.9-.5" transform="translate(80.1 76.9)"/><path fill-rule="evenodd" fill="#582578" d="M-23.55 49.45q.25-16.55 9.2-21.25v-.1l-.25-6.75 4.95 4h.5q2.95 9.55.8 16.2-.8-.35-1.5-1.55l-.4-.7-.2 1.3-9 8.85q-2.1.55-4.1 0" transform="translate(80.1 76.9)"/><path fill-rule="evenodd" fill="#9467b0" d="M-3.95 22.75q-.4 2.05-1.45 3.2l-.7.7q.6 2 .95 4.5.25 4-.5 7.2-.7 2.95-2 3.2h-.7q2.15-6.65-.8-16.2 3.75-.1 5.2-2.6m-6.5 17.85-.7 3.75q-.95 3.3-2.25 4.15-1.3.8-2.15-1.2l-.2.5q-1.9 1.15-3.7 1.65l9-8.85" transform="translate(80.1 76.9)"/><path fill-rule="evenodd" fill="#485786" d="M-14.6 21.35q-4.25-3.05-9.8-6 3.2-4.85 11.45-6.95l6.4-1.1q4.95 11.25 2.6 15.45-1.45 2.5-5.2 2.6h-.5l-4.95-4" transform="translate(80.1 76.9)"/><path stroke-width=".05" stroke-linejoin="round" stroke-linecap="round" stroke="#1f1f29" fill="none" d="M54.8 91.75 51.25 90q-2.6-1.2-5.3-2.35 8.35-11.9 25.35-7.9m-5.8 18.5q-4.25-3.05-9.8-6m14.75 10-4.95-4"/><path stroke-width=".05" stroke-linejoin="round" stroke-linecap="round" stroke="#1f1f29" fill="none" d="M51.25 90q-1.2.95-1.8 2.95-.8 2.7-.2 5.8.2 1.75 1.15 3.05l-1.05.95q-1.4 1.55-1.75 3.65-.5 2.25.45 3.75l.85.95v.35q-.4 4.15 0 8.4 3.75 5.2 7.65 6.5m19.6-26.7q-.4 2.05-1.45 3.2l-.7.7q.6 2 .95 4.5.25 4-.5 7.2-.7 2.95-2 3.2h-.7q-.8-.35-1.5-1.55l-.4-.7-.2 1.3-.7 3.75q-.95 3.3-2.25 4.15-1.3.8-2.15-1.2l-.2.5q-1.9 1.15-3.7 1.65-2.1.55-4.1 0"/><path fill-rule="evenodd" fill="#381952" d="m11.6-45.05 2.45-5.8q5.2 9 0 31.4l-2 2.95q-2.45-2.95-6.6-6l-.2-.15-.4-.35L1-23.7q1.05-2.7 2.45-5.3l1.55.35q3.05.95 5.2 2.1 2.1 1.1 2.1.6 0-.6-1.65-1.9-1.65-1.4-4.7-2.2l-1.65-.5 1.85-3.65.6 1.05q5.2 0 7.55-2.35 2.7-2.7 1.55-8.6l-4.25-.95M.15 4.15Q-1.6.5-2.2-3.55l3.75.95L7-2.8l.1-.15q-.45 4.4.6 8.75L.15 4.15m-2.6-12.3V-9.9Q3.8-8 8.05-7.75l-.35 1.5L7-6.7Q4.65-7.65 1.55-8l-4-.15" transform="translate(80.1 76.9)"/><path fill-rule="evenodd" fill="#596ba6" d="m14.05-50.85-2.45 5.8L9.1-40l-2.95 5.8-1.85 3.65-.5.95-.35.6Q2.05-26.4 1-23.7l-1.1 2.95q-2 5.65-2.35 10.85v1.75q-.1 2.4.25 4.6Q-1.6.5.15 4.15L2.5 8.4-9.75 7.3Q-17.55 2-19.9-3.4q-2.1-4.85 0-9.8l.45-1.2q-3.4-2.2-5.3-4.8-8.7-11.2 9.55-27.75 2.95-16.5 16.4-17.55-5.75-3.55-5.65-10.4 6.6-2.45 20.15 1.8 21.25 6.45 23.25 18.95v.15l-5.05-2.35q-17.25-7.7-17.7-2.05-.25 2.5-2.15 7.55M47-43.15l.35-.15q13.3 23.5 8 42.95l-2.85-1.4-.8-.5q1.2-21-4.7-40.9M-4.1-34.1l6.25-4.7-6.25-11.1v15.8" transform="translate(80.1 76.9)"/><path fill-rule="evenodd" fill="#d1bb90" d="M14.3-35.5q-2.35 2.35-7.55 2.35l-.6-1.05L9.1-40l5.2 4.5m35.05-16.65.1.25-3.2 7.2-3.5 8.15q-1.8-.6-3.3-1.65-1.2-.85-2.25-2.15l12.15-11.8" transform="translate(80.1 76.9)"/><path fill-rule="evenodd" fill="#9467b0" d="m4.3-30.55 1.65.5q3.05.8 4.7 2.2 1.65 1.3 1.65 1.9 0 .5-2.1-.6-2.15-1.15-5.2-2.1L3.45-29l.35-.6.5-.95m29.6-25.8L38.95-54v-.15l4.35 4.4-5.65 2.1q-1.4-4-3.75-8.7M-2.2-3.55q-.35-2.2-.25-4.6l4 .15q3.1.35 5.45 1.3l.7.45q1.2.85 1.3 1.8-.1 1.15-1.9 1.5L7-2.8l-5.45.2-3.75-.95M46.25-44.7l.5 1.65q.7 2.7.45 5.55-.45 4.15-.1 8.25-2.7-2.25-5.9-.1l-.25.1-.55 1.55-.6-.95-2.35-4.25q1.75-2 2-5.3 1.5 1.05 3.3 1.65l3.5-8.15m-.7 39.65-1.65 2q.7-1.05 1.2-2.25 1.15-3.2.6-7.45h.1q1.55-.9 2.35-2.1.7-.95.35-1.55-.45-.7-1.75-.6l-1.2.4.85-.75q1.3-1.85 1.9-4.25 2.2 9.45-2.75 16.55" transform="translate(80.1 76.9)"/><path fill-rule="evenodd" fill="#fef7e0" d="m11.6-45.05 4.25.95q1.15 5.9-1.55 8.6L9.1-40l2.5-5.05m37.75-7.1.25-.1q-.15.1-.15.35l-.1-.25-12.15 11.8q-2.15-2.2-3.65-5.75l4.1-1.55 5.65-2.1 6.05-2.4" transform="translate(80.1 76.9)"/><path fill-rule="evenodd" fill="#485786" d="M-4.45-74.9q-.1 6.85 5.65 10.4-13.45 1.05-16.4 17.55-18.25 16.55-9.55 27.75 1.9 2.6 5.3 4.8l-.45 1.2q-2.1 4.95 0 9.8Q-17.55 2-9.75 7.3-23.1 5.2-30.85-.95q-11.35-8.7-3.65-22.4-2.75-5.2 6.1-16.65 12.85-17.1 18.65-30.15 1.55-3.55 5.3-4.75m51.2 31.85.25-.1q5.9 19.9 4.7 40.9l-6.15-2.8q4.95-7.1 2.75-16.55.55-2.9-.15-6.45l-1.05-1.2q-.35-4.1.1-8.25.25-2.85-.45-5.55M-4.1-34.1v-15.8l6.25 11.1-6.25 4.7m-15.35 19.7-2 .15q-5.55 0-9.4-3.9-2.15-2.15-3.65-5.2 1.5 3.05 3.65 5.2 3.85 3.9 9.4 3.9l2-.15" transform="translate(80.1 76.9)"/><path fill-rule="evenodd" fill="#582578" d="m12.05-16.5 2-2.95q5.2-22.4 0-31.4 1.9-5.05 2.15-7.55.45-5.65 17.7 2.05 2.35 4.7 3.75 8.7l-4.1 1.55q1.5 3.55 3.65 5.75 1.05 1.3 2.25 2.15-.25 3.3-2 5.3l2.35 4.25.6.95-.25.6q-2.5 5.65-2.35 10.7 1.4 2.85 4.35 1.9l-.7.6q-.85 1.15-.35 1.9.45.55 1.75.35 1.3-.15 2.85-1.1.55 4.25-.6 7.45-.5 1.2-1.2 2.25L40.15.25Q28.25 9.2 7.7 5.8q-1.05-4.35-.6-8.75Q8.9-3.3 9-4.45q-.1-.95-1.3-1.8l.35-1.5q5.2.2 7.55-2.15-.6-3.2-3.55-6.6m16.4.6q-3.75.1-6.95 2-3.3 1.9-2.85 4.25.25 2.1 3.7.8 3.4-1.3 7.55-1.85l5.75-.85q1.9 0 1.65-1.4-.35-1.55-2.8-2.35-2.4-.95-6.05-.6" transform="translate(80.1 76.9)"/><path fill-rule="evenodd" fill="#fff" d="M5.45-22.5q4.15 3.05 6.6 6Q15-13.1 15.6-9.9q-2.35 2.35-7.55 2.15Q3.8-8-2.45-9.9q.35-5.2 2.35-10.85 2.15-1.2 5.55-1.75m41.65-6.75 1.05 1.2q.7 3.55.15 6.45-.6 2.4-1.9 4.25l-.85.75-1.75.9-.5.25q-4.7-3.3-3.15-11.65l.25-.6.55-1.55.25-.1q3.2-2.15 5.9.1" transform="translate(80.1 76.9)"/><path fill-rule="evenodd" fill="#f0e0c2" d="m1-23.7 3.85.7.4.35.2.15q-3.4.55-5.55 1.75L1-23.7m42.3 8.25-1.15.95q-2.95.95-4.35-1.9-.15-5.05 2.35-10.7-1.55 8.35 3.15 11.65" transform="translate(80.1 76.9)"/><path fill-rule="evenodd" fill="#b59bca" d="M45.7-12.75q-1.55.95-2.85 1.1-1.3.2-1.75-.35-.5-.75.35-1.9l.7-.6 1.15-.95.5-.25 1.75-.9 1.2-.4q1.3-.1 1.75.6.35.6-.35 1.55-.8 1.2-2.35 2.1h-.1" transform="translate(80.1 76.9)"/><path fill-rule="evenodd" fill="#270f33" d="M28.45-15.9q3.65-.35 6.05.6 2.45.8 2.8 2.35.25 1.4-1.65 1.4l-5.75.85q-4.15.55-7.55 1.85-3.45 1.3-3.7-.8Q18.2-12 21.5-13.9q3.2-1.9 6.95-2" transform="translate(80.1 76.9)"/><path stroke-width=".05" stroke-linejoin="round" stroke-linecap="round" stroke="#1f1f29" fill="none" d="m94.15 26.05-2.45 5.8 4.25.95m-9.1 10.95-.6-1.05-1.85 3.65-.5.95-.35.6q-1.4 2.6-2.45 5.3l3.85.7.4.35m.2.15q4.15 3.05 6.6 6m2-34.35q1.9-5.05 2.15-7.55.45-5.65 17.7 2.05l5.05 2.35v-.15q-2-12.5-23.25-18.95Q82.25-.45 75.65 2m-5.3 82.2 12.25 1.1-2.35-4.25q-1.75-3.65-2.35-7.7-.35-2.2-.25-4.6V67Q78 61.8 80 56.15l1.1-2.95m8.1-16.3-2.95 5.8m5.45-10.85-2.5 5.05M129.55 25q0-.25.15-.35l-.25.1-6.05 2.4-5.65 2.1-4.1 1.55m15.9-5.8-3.2 7.2.5 1.65m.6-.25q13.3 23.5 8 42.95m-9.8-4.7-1.65 2-3.75 3.3q-11.9 8.95-32.45 5.55l-7.55-1.65m43.15-53.9-4.35-4.4m8.15 24.9 1.05 1.2q.7 3.55.15 6.45 2.2 9.45-2.75 16.55m1.55-24.2q-.35-4.1.1-8.25.25-2.85-.45-5.55m-5.8 13.8.25-.1q3.2-2.15 5.9.1m-.85-15.45-3.5 8.15M70.35 84.2Q57 82.1 49.25 75.95q-11.35-8.7-3.65-22.4-2.75-5.2 6.1-16.65Q64.55 19.8 70.35 6.75 71.9 3.2 75.65 2M45.6 53.55q1.5 3.05 3.65 5.2 3.85 3.9 9.4 3.9l2-.15m27.5 6.65Q83.9 68.9 77.65 67m44.6-4.6q-2.95.95-4.35-1.9-.15-5.05 2.35-10.7m8.15 5.5q-.6 2.4-1.9 4.25l-.85.75m-37.5 8.85q5.2.2 7.55-2.15-.6-3.2-3.55-6.6"/></g><path fill-rule="evenodd" fill-opacity="0" fill="#f0f" d="M0 0h102.95v45H0V0" id="b"/></defs><path fill="none" d="M-1-1h166v160H-1z"/><use x="96.05" y="155.5" xlink:href="#c" width="381" transform="translate(-192.55 -294)" height="381"/><use x="96.05" y="155.5" xlink:href="#d" width="160.2" transform="translate(-93.9 -152.85)" height="153.75"/><use x="-53.121" y="-83.444" xlink:href="#e" width="102.95" transform="matrix(1.8072 0 0 1.6538 96 161.55)" height="45"/></svg>