<svg width="139" height="205" xmlns="http://www.w3.org/2000/svg" xmlns:xlink="http://www.w3.org/1999/xlink"><defs><path fill-rule="evenodd" fill-opacity="0" fill="#f0f" d="M0 0h102.95v45H0V0" id="a"/><use xlink:href="#a" width="102.95" height="45" id="c"/><g id="b"><path fill-rule="evenodd" d="m.1-69.8-.3.2.25-.25.05.05m-10.95-51.75.05.05.25.05-.3-.1" transform="translate(192.55 294)"/><path stroke-width="4" stroke-opacity=".8" stroke-linejoin="round" stroke-linecap="round" stroke="#000" fill="none" d="m182 172.55.15.05 4.95.85 1.15.05 1.9.15h.15l1.6.05h.2l.2-.2 4.45-3.6 5.85-5.15q-4.45-24.6-12.9-34.85l-16.6 1.65 3.3-7.5.95-2.2q-2.75-2.6-3.3-6.1l-3.15-1.7q-4.6-6.35-8.35-24.45-.2-.3.3-.8l1-.9q19.85 3.8 27.15 7.4 5.6 6.75 8.7 9.6 2.45-2 5.7-1.95 3.95-.05 6.75 3 2.85 2.95 2.85 7.15 0 1.8-.55 3.4l1.65-1.05 3.25-.4 1.25 2.35 1.4.15 1.05.1q2.5.35 2.65 1.1l1 3.7.35 1.1.15.55.25.45-1.1 1.8-.2.35-.75 1.1q1.45 3.95.65 4.85l-1.1 1.6L221.9 146l-1.15-5.1-1.15-.05q-4.2-.2-8.8-1.15l-.8 8.25q-1.5-3.8-4-7.5l-1.6-2.35-1.85-.65q13.8 25.05 11.5 38.35 2.85-1.3 3.65-2.65l.8-2.95q.55-.75 1.4-1.2-.05-2.2-.8-5.45 2.4 2.25 3.5 4.7l.4-.05h.25q.4-.2 1.3.75l1.35.7q5.5 10.6-2.1 23.65-1.7 7.4-26.5 27.25l-4.65 3.65-.3.2.25-.25q7.95-8.3 12.7-14.8l.6-.95q5.95-8.5 6.25-13.85l.05-.95-.1-.9q-.6-4.2-6.35-3.15 2.85-4.55 1.3-6.8l-1.25-1.05-.7-.15-2.3 4.2v.05l-5.45 19q-1.1 3-2.6 3.8l-1.5 1.9-.95.3L188 228q4.25 3.25 4.15 8.75l-1.8 4.25 26.95 21.6 1.05 2.9 1.75.9 22.75.65 2.1 1.05.2.45h.7q1.3.3 2 .85 3.45 2.8 5.75 5.65l-5.1.5h-.05l.05.15-.85 1.9-.05.1-14.25 2.15-3.5 6.45-6.8-.05-9.75-11.6-6.65-4.3 1.05-1.55-1.5-1.6q-3.9-4.35-8.7-10.35-4.8-6-13.85-13.55-1.65-.55-3.05-1.7l-3.1 8.55q-2.45 6.8-2.8 8.6l-.75 3.5-.25.75 5.95 2.9q1.5 4 1.95 7.95l-4.7 1.9-9.95-1.4-.65-.15-9.05.75-6.35-2.6q.2-3.55 1.75-7.15l5.55-2.55q1.2-3 3.65-6.05 2.7-.55 5.45-.1 3-6.15 7.7-17.45-1.4-2.05-2.9-6.9.85-3.5 5.3-7.2 1.2-9.5.9-15.05l-.05-.55q-.9-.4-1.35-1.8-3.3-.95-8.85-8.15l-.05-.05v1.05q0 8.65 3.2 21.8-3.75-8.55-10-26.25-6.2-17.7-5.8-20.5l.15-1.2v-.05q-2.4-5.6-5.55-10.95l-.6-1.05-1.05-1.75-.65-1.05-.05-.05-.5-.75-.05-.05-.1.05-1.5 1.95-4.45 5.8-6.5 9.25.9 1.25q2.75 3.6 6.85 5.95-7.85 4.2-19.1 5.45-3.3-14.15 2.5-34.3 2.15 8.3 5.7 15.7 1.7-3.15 4-9.35l.2-2.65-2.35-5.4q-.55-4.8 1.75-7.55l.65.45 4.8 3.15.85-.8q1.5-5.4 3.85-7.8l.7.5.95.65 1.3.85 4.7-2.65.35-.1 1.25 1.45.8-.65q1.7-1.35 4.5-2.55h1.4q1.7 1.45 2.75 4.55-.35 3.6-1.25 6.65l-.4 1.15 7.6 8.95.5-.85 1.85-2.9 1.65-.55.4.3q2 1.75 3.75 5.7.45 4.45.55 7.65l.05.9 3.15 3.7.05.05.25.05m27.3-.1-2.5 5.85q3.85-1.05 6.35-2.05l-3.85-3.8m-24.95 35.8q-.2 1-1.25 1.3l-.15 4.65.45 8 3.95-12-.4-.15q-.75-.75-.6-1.55l-2-.25"/><path fill-rule="evenodd" fill="#fff" d="m-32.85-128 1.8-7.6 2.7 7.45-4.5.15" transform="translate(192.55 294)"/><path fill-rule="evenodd" fill="#505a36" d="m-36.55-116.35-.25-2.35.15-1.2.15-1.75v-2.85q-.1-3.05 1.45-3.25l.75-1.3Q-32-131-27.55-131l1.35 1.25 5.75 1.6 9.5 10.45 5.1-1.2 1.25 4.5-2.25 5.1q-6.6-4.95-9.45-2.95l-.75.7q-1.6 5.7 2.15 11.2-7.7-3.35-9 2.2l-.25 3.4v2.5q-9.1-12.9-12.4-24.1" transform="translate(192.55 294)"/><path fill-rule="evenodd" fill="#5a663e" d="m-24.15-92.25.1 1.7.2 2.75q.65 6.85 2.9 15.85l-4.1-10.1-5.05-13.75-.85-2.4q-4.65-13.25-5.6-18.15 3.3 11.2 12.4 24.1" transform="translate(192.55 294)"/><path fill-rule="evenodd" fill="#9ead76" d="m.5-166.4.5.25.15.05.3.15 1.7 1 .1.05h.05l.4.25 1.25.65 1.7.85q3.9 6.55 6.85 12.4 4.5 9 6.7 16.3 2.65 8.95 1.8 15.3l-.35 1.9-.4-.95q-2.3-5.15-4.5-7.45-2.4-2.5-2.5-1.95-.15.6-.25-3.45l-.15-.6q-2.25-7.95-4.55-14.5-3.4-9.85-6.8-16.6l-.1-.15-.4-.9-1.25-2.15-.25-.45" transform="translate(192.55 294)"/><path fill-rule="evenodd" fill="#72804d" d="m21.65-117.25-.55-.5q-8.2-8.45-9.25-7.45.75-1.6-.9-3.6l-.5-.6q-1.7-9.3-3.95-16.5-2.45-7.9-5.6-13.4l-1.3-2.1-2.4-3.25q1.1-2.5 3.3-1.75l.25.45L2-163.8l.4.9.1.15q3.4 6.75 6.8 16.6 2.3 6.55 4.55 14.5l.15.6q.1 4.05.25 3.45.1-.55 2.5 1.95 2.2 2.3 4.5 7.45l.4.95" transform="translate(192.55 294)"/><path fill-rule="evenodd" fill="#9ead76" d="m4.35-116.6.75-3.4 8.15-6.85h3q2.45 1.1 2.4 1.5l-4.25 10.1-4.8 8.8q-.8-4.85-4.2-8.95l-1.05-1.2" transform="translate(192.55 294)"/><path fill-rule="evenodd" fill="#72804d" d="m4.55-124.25 5.9-5.15.7.35 3.35 1.45 1.75.75h-3L5.1-120l-.75 3.4-4.3-3.75-.1-.05 2.55-.2q-1.05-.6 2.05-3.65" transform="translate(192.55 294)"/><path fill-rule="evenodd" fill="#444d2e" d="M4.55-124.25q-3.1 3.05-2.05 3.65l-2.55.2-.05-.05.25-.2 4.4-3.6" transform="translate(192.55 294)"/><path fill-rule="evenodd" fill="#9ead76" d="m-10.1-121.55-.3-.1 2 1.6q-.35-.85-.05-.9l3.3.7.75.2 1.75.45.4.1 1.45.35 2.4.45q.15-.15 1.25.8l1.15 1 1-2.7.1-.4.3.4 1 1.1 2.4 3.35 1.05-.25q-1.3.6-1.65 1.05-1.55 1.95-5.2 7.95l-1.65 2.75L.4-102l-1.6 2.75-17.6-27.2q2.5 2.9 7 4.4l.95.25.45.15.3.1M6.2-92.9q-.55-11 3.45-17.95l.5-.85.05.15q.6 1.95.45 3.2L6.2-92.9" transform="translate(192.55 294)"/><path fill-rule="evenodd" fill="#72804d" d="m5.1-120-.1.4-1 2.7-1.15-1q-1.1-.95-1.25-.8l-2.4-.45-1.45-.35-.4-.1-1.75-.45-.75-.2-3.3-.7q-.3.05.05.9l-2-1.6.3.1h.05l5 .85 1.15.05 1.85.15h.15l1.65.05h1.9l2.9-.1.55.55m-6.3 20.75L.4-102l.95-1.65L3-106.4q3.65-6 5.2-7.95.35-.45 1.65-1.05-.3 1.6 0 2.5l.25.75.05.45-.5.85q-4 6.95-3.45 17.95l-1 3.55-6.4-9.9" transform="translate(192.55 294)"/><path stroke-width=".75" stroke-linejoin="round" stroke-linecap="round" stroke="#333" fill="none" d="m213.15 176 1.65-.7m-22.25-1.95 1.85-.15"/><path fill-rule="evenodd" fill="#dadada" d="m-37.05-149.2-2.2-2.9.95-1.15.05-.05.45-.45.45-.35.35-.3q1.75-1.35 4.5-2.55h1.45q-2.9 2.3-4.4 4.5l-1 1.6-.6 1.65m18.75 25.8-7.4-5.35.25-.7q.9-2.4 2.65-5.45l.95-1.6 1.85-2.9 1.6-.55.45.35q-.95 2.85-1.2 6v.6l-.1 2.5q.1 3.4.95 7.1" transform="translate(192.55 294)"/><path fill-rule="evenodd" fill="#fff" d="M-31.05-156.95q1.7 1.45 2.75 4.55-.35 3.6-1.25 6.65l-.6 1.75-1.1 2.45-5.8-7.65.6-1.65 1-1.6q1.5-2.2 4.4-4.5m13.1 17.35q2 1.7 3.75 5.65l.55 7.65.05 2.7q-.05 2.05-.25 3.4l-4.45-3.2q-.85-3.7-.95-7.1l.1-2.5v-.6q.25-3.15 1.2-6" transform="translate(192.55 294)"/><path fill-rule="evenodd" fill="#9ead76" d="m-42.4-145.1 1.15-3.7 1.75-5.1.15-.4.1-.3.15-.35.1-.25 31.8 37.35 8 15.2-.9 1.45q-5.95 2.3-8.25 1.95-1.5-.25-4.3-3.6-1.5-1.85-3.4-4.65l-3.55-8.35v3.6q-8.75-10.15-18.35-25.5l-1.3-2.1-.2-.35-.85-1.4-.2-.35-.15-.2-.6-1.05-1.15-1.9" transform="translate(192.55 294)"/><path fill-rule="evenodd" fill="#637043" d="m-4.2-83.7-.15-.05-.9-.35v-.05q-.65-.75-.6-1.5l-1.95-.2q-.2.75-.95 1.15l-1.5.3-3.3-.25-.55-.2q-.75-.5-1.2-1.75-2.95-.85-7.85-6.95l-.3-.35-.65-.85q-3.5-4.5-7.85-11.4L-33.3-111q-1.4-4.55-3.3-8.9l-1.2-2.75q-2-4.2-4.35-8.25l-.65-1.05-1-1.75-.65-1.05-.1-.05-.4-.65-.1-.1-.1-.2 1.15-4q.45.85 1.55.75l.5-.05.15-.05-.15.15-.7 1-.35.6 1.75 3.15 1.4 2.45q1.65 2.85 1.4 1.95 3.25 7.35 2.65 4.8 6.85 19.4 8.55 20.3l.9-1.25-.3 1.4q-.4 1.55 1.75 2.95.7.75 3.65.7-1.5 1.25-2.3 1.05.9 1.8 2.45 3.35 4.65 4.75 15 7.9l1.1.85 1.35-.35 1.4-.6-1.15.9q-1.15 1.05-1.15 2.5l.3 1.5.05.1" transform="translate(192.55 294)"/><path fill-rule="evenodd" fill="#72804d" d="m-42.4-145.1 1.15 1.9.6 1.05.15.2.2.35.85 1.4.2.35 1.3 2.1q9.6 15.35 18.35 25.5v-3.6l3.55 8.35q1.9 2.8 3.4 4.65 2.8 3.35 4.3 3.6 2.3.35 8.25-1.95l.9-1.45.4 1.05.45 1.35q.9 3 1.1 5.8l2.45 5.1q-1.15 3-2.65 3.8-.55 1.1-1.5 1.9l-.3.15-1.7.3h-.2l-3.05-.5-.05-.1-.3-1.5q0-1.45 1.15-2.5l1.15-.9-1.4.6-1.35.35-1.1-.85q-10.35-3.15-15-7.9-1.55-1.55-2.45-3.35.8.2 2.3-1.05-2.95.05-3.65-.7-2.15-1.4-1.75-2.95l.3-1.4-.9 1.25q-1.7-.9-8.55-20.3.6 2.55-2.65-4.8.25.9-1.4-1.95l-1.4-2.45-1.75-3.15.35-.6.7-1 .15-.15-.15.05-.5.05q-1.1.1-1.55-.75l1-3.45.6-1.9" transform="translate(192.55 294)"/><path fill-rule="evenodd" fill="#9ead76" d="M-61.8-119.3q.7-3.1 6.1-13.5-.5-.25.2-1.2 1.3-.25 3.5-1.9l.6-.45 1.95-3.25-1.9.1q-.9-.35-.5-1.75l1.65-5.1.6-.6q.35-2.55 3.15-5.8l4 1.15q.1.1 1 .5h.05l1.95-3.1.1-.15.1-.25.15-.4.1-.2.15 2.3q.1 3.15-.3 6.3l-.15 2.55-.65 2.25-.55 1.8-.05.15-.2.65-.25.85-.05.1-.7-.8-.05-.05-.15.1-.8.7-2.4 2.75-.3.35-.65.8-.6.8-1.15 1.5-3.25 4.3-1.75 2.35-5.35 7.9-.35.85-.45.05-.45-.3-2.2-2.2-.15-.15m2.8 2.65-.25-.2-2.4-2.3 2.4 2.3.25.2" transform="translate(192.55 294)"/><path fill-rule="evenodd" fill="#72804d" d="m-39-155.2-.1.2-.15.4-.1.25-.1.15-1.95 3.1h-.05q-.9-.4-1-.5l-4-1.15q-2.8 3.25-3.15 5.8l-.6.6-1.65 5.1q-.4 1.4.5 1.75l1.9-.1-1.95 3.25-.6.45q-2.2 1.65-3.5 1.9-.7.95-.2 1.2-5.4 10.4-6.1 13.5l-1.35-1.45q.4-.2 2.15-3.35 1.75-3.2 4.25-9.7-.1-2.75 1.2-6 1.25-3.25 2.95-5.3l1.7-1.55q1.5-5.35 3.85-7.8l.7.5 1 .65 1.25.85 2-1.3 2.75-1.35.35-.1" transform="translate(192.55 294)"/><path stroke-width=".75" stroke-linejoin="round" stroke-linecap="round" stroke="#333" fill="none" d="m150.8 154.95-2.8 2.95-.7 1.05-.65.8M182.1 172l1.3 1.3"/><path stroke-width="4" stroke-linejoin="round" stroke-linecap="round" stroke="#333" fill="none" d="m130.9 174.85 2.4 2.3.25.2"/><path fill-rule="evenodd" fill="#fff" d="m-50.85-138-1.05.5q-1.7.65-3.05.55-1.55-1.05-3.5-5.9l.4-3.5.9-.6h-.7q.1-2.1 1.35-2.05l6.1 4 .75 3 .2 2.4-1.4 1.6" transform="translate(192.55 294)"/><path fill-rule="evenodd" fill="#dadada" d="M-56.5-149q-1.25-.05-1.35 2.05h.7l-.9.6-.4 3.5q1.95 4.85 3.5 5.9 1.35.1 3.05-.55l1.05-.5-1.15 1.05q-1.8 1.55-3.7 2.3l-3.2-7.25q-.6-4.8 1.75-7.55l.65.45" transform="translate(192.55 294)"/><path fill-rule="evenodd" fill="#9ead76" d="M-66.45-140.2q2.75 10.55 7.7 19.7l.45.8.65 1.1.95 1.3.85 1.1q2.55 2.9 5.95 4.85-7.4 2.85-16.45 3.8-2.4-14.8-.1-32.65" transform="translate(192.55 294)"/><path fill-rule="evenodd" fill="#72804d" d="M-66.45-140.2q-2.3 17.85.1 32.65 9.05-.95 16.45-3.8-7.8 4.2-19.05 5.45-3.3-14.15 2.5-34.3" transform="translate(192.55 294)"/><path fill-rule="evenodd" fill="#3c2305" d="m48.3-17.2 1.2-8.15 4.15-.25q1.3.3 2.05.85 3.45 2.8 5.7 5.65-7.2.55-13.1 1.9" transform="translate(192.55 294)"/><path fill-rule="evenodd" fill="#957200" d="m18.6-29.6 8.45 5.35q-1.05 1.15-.85 2.4l.3.4q1.65 2.15 4.65 4.1l3.6-.3q2.25 3.95 2.9 6.95l.2 2.55-.15.3-6.8-.05-3.35-4-1-2.3q-1.6-4.1-1.2-6.1-2.6.1-4.3-3.55l-4 1.7-2.6-1.65 4.15-5.8m22.6 15.35q-2.15-3.95-6.6-8.05l7.5-.7 9.7-1.6q4.3 6.4 3.65 8.05v.15L41.2-14.25m-56.5-4.15-2.35-.3v-.1q-.55-4.45-1.5-6.65l-.35-.7-4.6-.55-2.1.45-5.2.7q-.8 2-1.75 3.6l-1.8 2.75-6.35-2.6q.15-2.5 1-5.05l.8-2.1 5.55-2.5q1.2-3.05 3.65-6.1-1.6 3.95-1.05 6.05 1.65.25 3.65-1l8.1 4.55 1.65.1 3.1 1.05q.75 4.05-.45 8.4" transform="translate(192.55 294)"/><path fill-rule="evenodd" fill="#f8bf01" d="m37.85-8.15-.2-2.55q-.65-3-2.9-6.95l-3.6.3q-3-1.95-4.65-4.1l-.3-.4q-.2-1.25.85-2.4L18.6-29.6l5.2-.2 4.15 2.05 22.7.65 2.15 1.05 3.55 7.6-.9 1.9q.65-1.65-3.65-8.05L42.1-23l-7.5.7q4.45 4.1 6.6 8.05l-3.35 6.1m-68.15-29.4q2.95-.6 5.9 0l5.05 5.95 6.85 3.35q1.5 4 1.95 7.95l-4.75 1.9q1.2-4.35.45-8.4l-3.1-1.05-1.65-.1-8.1-4.55q-2 1.25-3.65 1-.55-2.1 1.05-6.05" transform="translate(192.55 294)"/><path fill-rule="evenodd" fill="#8c6c00" d="m17.05-22.15 4-1.7q1.7 3.65 4.3 3.55-.4 2 1.2 6.1l1 2.3-6.4-7.6-4.1-2.65m-34.7 3.45-7.55-1.1-.7-.15-9.05.75 1.8-2.75q.95-1.6 1.75-3.6l5.2-.7 2.1-.45 4.6.55.35.7q.95 2.2 1.5 6.65v.1" transform="translate(192.55 294)"/><path fill-rule="evenodd" fill="#957200" d="m-9.2-79.95-.75 1.05-.35.55q-1.2 2.1-1.7 4.9l-.45 3.35q.25.95.95 1.25-1.5.5-2.55 2.05-2.45 6.95-1.7 9.5l3.05 3.45-1.8.6q-8.85 17.9-7.55 23.85.25 1 .75 1.65h-5.3q-1.75-1.55-1.1-4.75 3.3-5.1 10.55-22.6-1.4-2.05-2.95-6.9.85-3.5 5.35-7.15l.65-6.7q.4-5 .25-8.4l-.1-1.2v-.15l.65-.25q1.85-.6 3.85.4l.4.2-.15 5.3" transform="translate(192.55 294)"/><path fill-rule="evenodd" fill="#f8bf01" d="M-21.3-27.75q-.5-.65-.75-1.65-1.3-5.95 7.55-23.85l1.8-.6-3.05-3.45q-.75-2.55 1.7-9.5 1.05-1.55 2.55-2.05-.7-.3-.95-1.25l.45-3.35q.5-2.8 1.7-4.9l.35-.55.75-1.05.65 11.3q2.3 4.7 3.15 10.15-3.5 3.75-5.9 5.2l-3.35 9.3q-2.5 6.8-2.8 8.6l-.8 3.5q-.3 1.3-1.25 2.8l-.55.8-1.25.55" transform="translate(192.55 294)"/><path fill-rule="evenodd" fill="#957200" d="m27-26.35.5 1.5-4.4 3.6-3.85-1q-1.15-.4-4.45-3.95l-.75-.75-8.7-10.35q-4.7-5.85-13.4-13.15l-.5-.4q-3.8-1.25-6.25-5.75.4-5.05 4.4-10.2l5.8-17.85.35-.15q1.5-.7 2.55-.45l.2.05.75.25q.7.3 1.15.75l-.15.35-1.2.75-.05.05q-.8.75-1.6 2.25-1.45 2.5-2.9 7.05l-1.35 4.45-.35 1.25q-.85 1.7 1.15 2.4l-2.35.55q-.9 1.1-1.15 2.95l.55 1.2q.15 1.3 0 3.55-.25 1.35 0 3.5.95 1.45 2.95 1.8 1.3.2 2.95-.6-.9.6-.6 1.75l5.3 6.6 6.1 6.8q5.6 5.95 12.2 11.95 2.05 1.3 4.8.35 1.1-.35 2.3-1.1" transform="translate(192.55 294)"/><path fill-rule="evenodd" fill="#f8bf01" d="m.25-83.85-.4 1.8-.6 2.3-.65 2.5-.45 1.9-1.4 5.5-.95 3.7Q.1-62.9-.05-57.4l-1.75 4.3 26.95 21.55 1.85 5.2q-1.2.75-2.3 1.1-2.75.95-4.8-.35-6.6-6-12.2-11.95l-6.1-6.8-5.3-6.6q-.3-1.15.6-1.75-1.65.8-2.95.6-2-.35-2.95-1.8-.25-2.15 0-3.5.15-2.25 0-3.55l-.55-1.2Q-9.3-64-8.4-65.1l2.35-.55q-2-.7-1.15-2.4l.35-1.25 1.35-4.45q1.45-4.55 2.9-7.05.8-1.5 1.6-2.25l.05-.05 1.2-.75" transform="translate(192.55 294)"/><path fill-rule="evenodd" fill="#9ead76" d="M30.9-176.5h.15q2.4.4 2.5 1.1l.4 1.45.6 2.25.35 1.1.15.55.2.45-.55 1-.5.8-.05.1-.2.25q-1.4 0-3.5-2-.75-2.8-.45-4.8l.25-1 .65-1.25m1.95 2.45-.1-.1-.2-.3q-.6-.65-1.35-.45l-.1.4q-.75 2.1 0 4l2.35 2.35-.5-.95.05-.05q.45-1.75-.4-4.9h.25" transform="translate(192.55 294)"/><path fill-rule="evenodd" fill="#92a365" d="m33.95-167.45-1.65 2.5-2.5 3.8-2.9-15.65.45.05 2.5.15 1.05.1-.65 1.25-.25 1q-.3 2 .45 4.8 2.1 2 3.5 2" transform="translate(192.55 294)"/><path fill-rule="evenodd" fill="#839357" d="M32.85-174.05h-.25q.85 3.15.4 4.9l-.05.05.5.95-2.35-2.35q-.75-1.9 0-4l.1-.4q.75-.2 1.35.45l.2.3.1.1" transform="translate(192.55 294)"/><path fill-rule="evenodd" fill="#e0e0e0" d="m31.45-159.2-1.75 11.05q-.4-3.15-2.2-8.6l3.95-2.45m-13.65 13q-1.25-3.25-3.25-6.4l-.7-1.05-3.2-5.1 6.8-1.7.35 14.25" transform="translate(192.55 294)"/><path fill-rule="evenodd" fill="#fff" d="m31.45-159.2 1.35-.85-3.1 11.9 1.75-11.05m-25.05-29q.9-1 1.95-1.6 2.15-1.45 4.9-1.4 1.75-.05 3.3.6 1.9.7 3.45 2.4l.85 1q1.3 1.75 1.75 3.9l.25 2.25q0 2.75-1.25 5l-1.6 2.2-.2.2q-1.05 1.1-2.3 1.75l-1.9.75-2.35.3-2.25-.3-1.05-.3q-1.95-.75-3.55-2.4l-1-1.25q-.85-1.3-1.3-2.75l-.15-.55q-.3-1.25-.3-2.65 0-4.2 2.75-7.15m11.7 5.3q-2.25 2.05.45 3.35l.1.1.15.05.15.05.5.1h.15q.8 0 1.4-.65.6-.65.6-1.5v-.25l-.05-.25L21-183l-.4-.35-1-.25-.9.2-.3.2-.2.2-.1.1m-.3 36.7-.35-14.25 1.8-.45-1.45 14.7" transform="translate(192.55 294)"/><path fill-rule="evenodd" fill="#d1d1d1" d="m18.1-182.9-.45 1-.05.25v.25q0 .85.6 1.5l.4.35.05.05.15.1-.15-.05-.1-.1q-2.7-1.3-.45-3.35" transform="translate(192.55 294)"/><path fill-rule="evenodd" d="m18.8-179.4-.15-.1-.05-.05-.4-.35q-.6-.65-.6-1.5v-.25l.05-.25.45-1 .1-.1.2-.2.3-.2.9-.2 1 .25.4.35.55 1.1.05.25v.25q0 .85-.6 1.5t-1.4.65h-.15l-.5-.1-.15-.05" transform="translate(192.55 294)"/><path fill-rule="evenodd" fill="#9ead76" d="M27.45-153.3q1.2-1.1 1.9-4.3l.65-5.45q.25-3.7-1.35-7-.85-1.75-2.25-3.35l-3.25-3.15-.6-.45 2.95-1.9 1.65-.2 2.7 5.1q5.4 10.9 4.05 12.5-1.2 1.35-2.9 4.9l-1.55 3.35-2-.05m-5.15-24.35-2.4 1.25.8-2.35q.3.3 1.6 1.1m-3.1-.15-1.95.7.95-1.25.7.25.3.3m-2.4-.4q-4.3.75-8.85 7 .35-6.5-.15-10.05l-.35-1.6 3-.4 2.4-1.3q.1 1.45 1.35 3.7.6 1.15 1.9 2.15l.7.5m-4-7.45q-.5.85-1.9 1.15l-3.1.05-.65-.1.6-.45q2.7-2.05 3.6-1.95l.15.1.95.55.35.65m-2.55-1.55q-1.1 1.1-2.55 1.6l-1.95.35q-1-2.7-4.7-6.5-1.8-2.65-7.65-7.05l-13-4.1-9.75-2.45 1.05-.9q19.8 3.8 27.15 7.45 6 7.25 9.15 10 1.45 1.25 2.25 1.6m9.6 13.7-.3.05-1.7.35-.7-.15-4 .15 4.5-.55h2.15l1.05.15h-1" transform="translate(192.55 294)"/><path fill-rule="evenodd" fill="#92a365" d="m25.5-178.9-2.95 1.9.6.45 3.25 3.15q1.4 1.6 2.25 3.35 1.6 3.3 1.35 7l-.65 5.45q-.7 3.2-1.9 4.3-5.65-.25-11.85-1.85l-.95-.25-.1-.05h-.05l-.45-.35-.1-.1-.45-.35-.25-.2-.75-.7q-3.8-3.75-3.3-9.2l.2-1.55.05-.3.4-1.75-1.45 1.2-.2-.1-.8-.8-.55-.6-.55-.6-1.15-1.4-.15-.15-.6-.75v-2.25h-7.3l-8.3-4-3.15-1.55q3.05-4.5 1.05-9.35 3-2.3 4.65-6.45-2.9-2.55-11.65-5.7l-9.3-2.1q-.25-.3.25-.8l9.75 2.45 13 4.1q5.85 4.4 7.65 7.05 3.7 3.8 4.7 6.5l1.95-.35q1.45-.5 2.55-1.6l.35.1.75.15q-.9-.1-3.6 1.95l-.6.45.65.1 3.1-.05q1.4-.3 1.9-1.15l.05.5v.6l-2.4 1.3-3 .4.35 1.6q.5 3.55.15 10.05 4.55-6.25 8.85-7l.3.15 1.1-.3-.95 1.25 1.95-.7 1.5-.95-.8 2.35 2.4-1.25 1.6-1.05 1.6-.2m-5.65 5.4h1l-1.05-.15h-2.15l-4.5.55 4-.15.7.15 1.7-.35.3-.05m.85 1.4-.6-.4-1.5-.25h-.35l-.6.75q-1.35 1.75-1.3 3.85 1.9 3.1 4.7 4.7l-.6-.9.5-2.35.1-2.4v-.15q-.1-1.4-.6-2.55l.25.05.4.1-.25-.3-.15-.15m-10.25 5.4h.1q1.45.45 3.4 1.95l4.4 4.05q-.1-1.7.4-2.15l.45-.1q-3.05-2.25-3.6-4.5l-5.15.75m-9.4 2.05.25.15v.05l-.25-.2" transform="translate(192.55 294)"/><path fill-rule="evenodd" fill="#72804d" d="m-29.6-204.55 9.3 2.1 6.8 3.7q2.3 1.45 2.15 4.15-.15 2.65-1.95 4.3 2 4.85-1.05 9.35l3.15 1.55-4.4 2.45-1.5-.85-4.15-2.3q-4.65-6.3-8.35-24.45m26.7 29.15h7.3v2.25l.6.75.15.15 1.15 1.4.55.6.55.6.8.8.2.1 1.45-1.2-.4 1.75-.05.3-.2 1.55q-.5 5.45 3.3 9.2l.75.7.25.2.45.35.1.1.45.35h.05l.1.05v.05l-.05-.05-.25-.05-.3-.1-4.2-1.25-.95-.4-.6-3.05-1-2.45q-.4-1.15-.5-2.3l.05-1.95.05-.45v-.15l-1.75-4.15v1.35q-.1 1.7-.65 3l-.5.85q-.8 1.1-2 1.7l-.25.15-.4.15v.05H1.3v-.05l-.25-.15-.8.1-10 1.05-9.3.9 3.3-7.5q2.7 3.05 5.7 3.7 5.8 1.35 12.6-6.4l-5.45-2.6m23.6 3.3.15.15.25.3-.4-.1-.25-.05q.5 1.15.6 2.55v.15l-.1 2.4-.5 2.35.6.9q-2.8-1.6-4.7-4.7-.05-2.1 1.3-3.85l.6-.75h.35l1.5.25.6.4" transform="translate(192.55 294)"/><path fill-rule="evenodd" fill="#545f38" d="M-20.3-202.45q8.75 3.15 11.65 5.7-1.65 4.15-4.65 6.45 1.8-1.65 1.95-4.3.15-2.7-2.15-4.15l-6.8-3.7m9.1 23.05 8.3 4 5.45 2.6q-6.8 7.75-12.6 6.4-3-.65-5.7-3.7 2.15-5 2.2-5.35.05-.25-2.05-1.5l4.4-2.45m12.55 14.95v-.05l.4-.15.25-.15q1.2-.6 2-1.7l.5-.85q.55-1.3.65-3v-1.35l1.75 4.15v.15l-.05.45L6.8-165q.1 1.15.5 2.3l-3.35-.3-.3-.3-.65-.5-.3-.2-1.35-.45" transform="translate(192.55 294)"/><path fill-rule="evenodd" fill="#839357" d="m10.45-166.7 5.15-.75q.55 2.25 3.6 4.5l-.45.1q-.5.45-.4 2.15l-4.4-4.05q-1.95-1.5-3.4-1.95h-.1" transform="translate(192.55 294)"/><path fill-rule="evenodd" fill="#d1d1d1" d="M-11.8-183.6q-.5.7-.5 1.6 0 1.15.8 1.95.55.5 1.2.7-4-1-1.5-4.25M.05-170.75q-1.7 1.05-3.65 1.5l-2.8.25-3.3-.4q-2.85-.75-5.05-2.85-3.5-3.25-3.5-7.85 0-3.25 1.75-5.85.7 11.55 7.75 14.45 3.55 1.5 8.8.7v.05" transform="translate(192.55 294)"/><path fill-rule="evenodd" d="M-10.3-179.35q-.65-.2-1.2-.7-.8-.8-.8-1.95 0-.9.5-1.6l.3-.4 1.1-.65.9-.15q1.15 0 1.95.8.8.85.8 2l-.05.55q-.15.8-.75 1.4-.8.8-1.95.8l-.8-.1" transform="translate(192.55 294)"/><path fill-rule="evenodd" fill="#fff" d="M-11.8-183.6q-2.5 3.25 1.5 4.25l.8.1q1.15 0 1.95-.8.6-.6.75-1.4l.05-.55q0-1.15-.8-2-.8-.8-1.95-.8l-.9.15-1.1.65-.3.4m-4.7-2.35 1.75-2q3.45-3.25 8.35-3.25 4.9 0 8.4 3.25 3.45 3.25 3.45 7.85v.7l-.4 2.35q-.55 1.8-1.75 3.4l-1.3 1.4-1.95 1.5v-.05q-5.25.8-8.8-.7-7.05-2.9-7.75-14.45m47.65 62.35-3.65.9q.65-2.5-.6-7.9 3 2.8 4 5.85l.25 1.15" transform="translate(192.55 294)"/><path fill-rule="evenodd" fill="#9ead76" d="M30.8-125.95h.4l1.2.75q.55 0 1.35.7 5.5 10.6-2.1 23.65-1.45 6.25-19.3 21.3l-7.2 5.95-.65.5-4.3 3.35.25-.25 3.65-3.3 4.1-3.8 5.05-4.95q11.2-11.3 15.4-19 4.35-8.7 4.2-19-.15-3.9-1.7-5.6l-.35-.3m-19.45 9.9 1.25-.65q.8.1 2 .9l-1.85.45-1.4-.7" transform="translate(192.55 294)"/><path fill-rule="evenodd" fill="#5f6846" d="m30.8-125.95.35.3q1.55 1.7 1.7 5.6.15 10.3-4.2 19-4.2 7.7-15.4 19L8.2-77.1l-4.1 3.8L.45-70l3.3-3.5q5.65-6.2 9.35-11.3l.65-.95.35-.5Q19.7-94.4 20-99.6l.05-.95-.15-.9q-.3-2.4-2.35-3.1-1.5-.55-3.95-.05 2.85-4.55 1.3-6.8l-1.25-1.05q-1.4-.5-3.45.7l-.1.05-.6-2.55.35-1.15 1.5-.65 1.4.7 1.85-.45q4-1.1 6.6-2.2 3.25-1.4 4.2-2.85l.1-.15.85-2.95q1.3-1.85 4.45-2m-9.9 8.9-1.3.45 3.8 1.05 4.4 6.95q-1.65-5.3-1.95-10.95-1.75 1.45-4.95 2.5" transform="translate(192.55 294)"/><path fill-rule="evenodd" fill="#51593c" d="M20.9-117.05q3.2-1.05 4.95-2.5.3 5.65 1.95 10.95l-4.4-6.95-3.8-1.05 1.3-.45" transform="translate(192.55 294)"/><path stroke-width=".75" stroke-linejoin="round" stroke-linecap="round" stroke="#333" fill="none" d="M225.2 119.85q-.65-.75-1.5-.65-.5.9-.3 1.55.15.9.45 1.65l.55 1.25q.6 1.05 1.5 1.85m-4.75-8.35 2.7 5.25m.55 1.25 1.7 4.15m-5.25 13.1 1.1.05q3.55-7.7 4.45-7.85m-1.15 138.6 1.8.35q3.75 2 6.9 8.45M135.6 157l.95 2.6q3.75-1.6 6.8-5.1-.15-3.5-1.2-5.5l-1.7-1.35m14.3-7.85 8.35 9.95m50.35-27.5q-1.25-1.15-2.5-.75-1.65 1.85-1.85 4.2 1.1 2.45 4.3 4.65m-9.9 7.4-2.2-.95q-.3-3.2-1.65-5.35l-3.2-.35q-1.4-1.45-2.75-1.45l-3.7.3m14.2 8 7.55 2m-9.6 25.05q.25-.9 3.9.95-2-1.25-3.55-1.7m-32.5-6.5 9.1 10.8m8.25 41.8.35-1.05q3.05-1.55 5.45.25l-.35 1.45m-14.35-1.6-.1-1.05q2.4-1.15 5.4.3l-.05 1.5m1.15-1.85v-.45m1.65.7.05-1.45m-9.45.65-.4-1.25m4.2 35.15q-2.3-2.1-3.1-3.9-.25-5.2 4.3-10.4l1.8-6.45m-15.1-20.6-7.95-12.15-5.2-14.2m12.25 81.25q-1.25 3.4-3.25 6.4-.15 3 1.35 4m41.7 2.95q1.6 1.7 3.95 2.35m-1.9-98.15.45-1.25m4.6-55.45-1.55-.8-1.5.95-.3-.3-.7-.25-1.1.3-.3-.15-.7-.5q-1.3-1-1.9-2.15-1.25-2.25-1.35-3.7v-.6l-.05-.5-.35-.65-.95-.55-.15-.1-.75-.15-.35-.1q-.8-.35-2.25-1.6-.35-.3-.45-.9m-68.35 64.55.4 1"/><path stroke-opacity="0" stroke-linejoin="round" stroke-linecap="round" stroke="#f0f" fill="none" d="M187.95-293.5v380h-380v-380h380M92.95.6H-97" transform="translate(192.55 294)"/><path stroke-opacity="0" stroke-linejoin="round" stroke-linecap="round" stroke="#f0f" fill="none" d="m187.95-293.5-190 190 190 190m-380-380 190 190L-192 86.5" transform="translate(192.55 294)"/></g></defs><path fill="none" d="M-1-1h141v207H-1z"/><use x="74.05" y="209.5" xlink:href="#b" width="381" transform="translate(-192.55 -294)" height="381"/><use x="-65.294" y="-50.792" xlink:href="#c" width="102.95" transform="matrix(1.8072 0 0 1.6538 83 87.3)" height="45"/></svg>