<svg width="153" height="270" xmlns="http://www.w3.org/2000/svg" xmlns:xlink="http://www.w3.org/1999/xlink"><defs><g id="b" stroke-opacity="0" stroke-linejoin="round" stroke-linecap="round" stroke="#f0f" fill="none"><path d="M187.95-293.5v380h-380v-380h380M92.95.6H-97" transform="translate(192.55 294)"/><path d="m187.95-293.5-190 190 190 190m-380-380 190 190L-192 86.5" transform="translate(192.55 294)"/></g><g id="c"><path stroke-width="2.5" stroke-linejoin="round" stroke-linecap="round" stroke="#250f0a" fill="none" d="m73.25 4.55.75-.4 12.05.25-2.85 2.9 6 .25-5.9 3.8L94.65 27.4l.3 6.7 10.95 7.65L99.65 44l.05.05 2.45 6.6-2.25 1.65.8 6.4-4 .3.25 3.75-1.4.95-1.15 5.35-3.45 2-2.65 6.15 6.85 8.45 1.8-2.2.35.25 1.35-3.25 2.85.95 9.75-10.25-.05-2.1 1.55-.2-.2-2.8 1.8-1.55-.2-1.3 2.1-1.9-.25-1.05 8.25-10.85 7.3-4.75 29.25-12.2-2.95 10.25-7.2 16.3-10.35 12.3-9.6 1.8-.8.05-1.9 2.45-3.2.8-1.5-.2-2.65 1.8-.7-.3-2.95.95-2.65-1.5-8.3 7.9.25-.15.05 3.6-1.65 2.6-1.35.5-1.8 1.6q-1.65 1.05-3.5 2.9l-.2.15-.2.25-2.5 2.2-2.35-.25-12.85 12.4-3.55 7.7-6.1 7.7-3.35.85-6.55 7.7-.5 2.85 6.9 4.5 1.75 6.5 4.5 10.45-2.15-1.6 1.45 5.6-.65 2.35-2.05-3.65.35 10.05-2.1-5.35-1.15 2.6.7 8.15-5.1-11.8.6 18.5-2.25-10.65-2-1.85-.5 16.35-.8-3.4-.35 11.6q-1.2 1.6-2.25 3.75l-.05.05-1.45 3.35-1.45 4.05.45 5.1 5 1.7 2.05-.75 2.3.25 2.3 2.6.25 10.9-2 3.45 1.75 2.05-1.15 4.85.2 5.25 2.35 2.8-1.4 4.6 2.3 5.15-1.45 7.8-4.6 2.55-1.7 3.2-.45 4.65L54 278.2l.85 2.6-1.7 2.3-4.8-.25-1.5 2.55h-6.3l-.3-2.35-1.3 1.7-5.2-.6-.35-2.05-2.15 2.1-5.55-.45-.85-3.6.05-.3-2.9.25-2.05-2.5.85-4.9 4.35-.3 2.9-3.7h3.45l8-1.75 9.8-9.5 1.4-5.65-.55-.05-.7-1.2.7-1.4v-.1l-.6-3.35.9-2.3-1.15-1.15.85-1.45-2.6-3.5-2.6-.15-1.25-4-1.55 1.35H36.6l-4 2.85-8.6-.55-3.2 1.45-2.3-1.75 1.15-4.3 2.05.85 6.85-2 6.05-5.45-1-9.55-4.3-12.45-1.5.45v-.3l-.4-4.3.6-2.3q-1.85-4.4-3.35-9.65l-2.35-9.45-.05-.2-.05-.1-2 2.7v-5.4l-10.6 15.8-1.75-.7.35-2.8 8.4-12.2 1-6.75-5.05 6.3 4.8-16.6-4.8 6.1 1-7.15.25-.45-2.15.25 5.2-5.35 1.75-2.95 16.3-16.3 5.75.25.3-.55 1.25-1.35-.65-1.2 1.75-5.3 5.45-2.05 2-5.65-1.95-1.95-1-3.3-2.65 1.3-.9 2.45-2.4-.8-.3 3.3-3.3.65h-.1l-.95-.95-.85 1.35-2.35.9-2.35-.9-4.5 3.45-5.65.9-.55-.25-10.45 1.35-2.5-1.35-1.1-6.75.05-.1-3-.55-2.7-3.65 1.6-7.85 2.25-2.9 5.4-.9 12.8-7.65-.65-.65-3.1-3.55-1.3-1.7-2.45-5.1v-.1l-2.4-5.9-1.35-4.05-2.1-7.85-.2-1.2q-1.7-10.5 0-20.95l.05-.2v-.15l.2-1 .2-1.2 2.9-3.45 1.35-.8 1.9-1.15.4-.25-.45-2.85 2.55-9.6L20 23.1q6-9.05 14.35-15.8l1.55 1.9 10.95-6.1 2.65 1.45q3.5 2.15 5.1 4.8l.1.15q8.05-4.15 16.15-8.25l2.4 3.3m19.5 83.95-4.95-6.25.05 2.8-1.3 1.9-.85 11 4.15-4.35v-3.4l2.5-1.25.4-.45"/><path fill-rule="evenodd" fill="#e4cf87" d="m-26.4-133.95.1.15q8.05-4.15 16.15-8.25l2.4 3.3.75-.4 12.05.25L2.2-136l6 .25-5.9 3.8 9.45 13.35-14.85-3.95-9.35 2.65 13.2 1.45 3.35 2.15-5.35.2L11.4-111l2.55 1v.8l7.7 5.4L9.5-102l9.2 2.75 2.45 6.6L18.9-91l.8 6.4-4 .3.25 3.75-1.4.95-.4 1.95L2.5-83.6l9.3-4.15-6.05-.4q.2-4.75-4.3-9.55l-2.6-4.3L4-104.15l-2.15-1.3q-5.15-2.45 5.55-3.45-16.1-1.5-29.7 1.65l-5.15-8.55-2.95.45h-.1l6.5-6.9q-5.3 2.65-9.15 3.1-6.35.65-8.9-4.8l-2.9.85q-6.45 1.95-10.45 4.05l-.1.05q-3.7 1.9-5.35 3.95-1 1.2-1.3 2.4l-.35 1.25-1.2.7-.55.35-.45-2.85 2.55-9.6 1.15 2.6q6-9.05 14.35-15.8l1.55 1.9 10.95-6.1 2.65 1.45-8.9 8.6 7.65-2.25L-36-129l9.6-4.95m-32.4 168.4-2 2.7v-5.4l-.65.95-.95-.45.3-4-2.55 5.4.25-1.8 1-6.75-5.05 6.3 1.9-6.55 6.8-8.2-2.55 1.25 2.6-9.3-4.65 7.1-4.1 5.2 1-7.15.25-.45 3.05-5.1 1.75-2.95 9.85-9.8-1 7.4 3.95-3.6q-1.65 8.25-1.45 16.3Q-49 8.45-45 8.6q1.7 6.45-.8 17.45 3.8-6 4.85-9.4l-.35 6.1q-2.15 7-7.05 11.9l-.05-.4-.15-2.9-1-3.9-1.45 3.1-.7 1.45-.15.5-2.25 7.55v-7.8l.1-2.1.5-7-4.75 10.55-.55.75M13.95-109.2 11.4-111l2.55 1.8m-59.05-24.9-2.15.95 2.15-.95m7.7 142.55 1.65 3.45-3.45 6.65.25-3.05 1.55-7.05m-18.3-5.9-.9 1.5v.05l-.4.6.4-.6v-.05l.9-1.5m-3.45 5.15-.55.9.55-.9m-1.65 24.05V27.6v4.15m12.15-1.95.1 1.55-.1-1.55m11.6.45 4.6-13.75 1.65 7q-4.1 2.85-5.6 11.7l-.4-2.95-.25-2m29.3-169-13.9 7.6 13.9-7.6" transform="translate(81 143.3)"/><path fill-rule="evenodd" fill="#b6c1d3" d="m46.9-96.3.5-.3h5.9v.15l-.45.9.45-.9.1-.15.1-.2 4.35-2.15-3.2 1.65 4.4 1.25 6.7-3.15-2.55-2.4 3.1-1.5 3.85.6v.05l.2-.05 4.7.8-4.7-.8 5.3-.35-.6 1.15-2.15 4.05-3.15 1.3-6.85 9 .95 1.75-6.45 6.75.85-2.8-8.1 5.4-9.9-3.75-1.7-6.65-.2-.8 4.9-6.45 3.65-2.4m.95 8.45-9.3 1.2 9.3-1.2 1.35 6.35 2-2.6 8.7-1.75 3.4-10.65-9.85 2.85-1.2-.8.6-1.1-5.05 7.5.05.2" transform="translate(81 143.3)"/><path fill-rule="evenodd" fill="#849bb7" d="M35.25-82 35-83.05l2.7-3.5.65-.9.2.8-.85.1.85-.1 1.7 6.65 9.9 3.75 8.1-5.4-.85 2.8 6.45-6.75-.95-1.75 6.85-9 3.15-1.3 3.3-1.4-3.5 7.9-.15.3-2.9 6.55L59.3-72l-9.6 1.8-.8.05-5.6.4-5.85-3-.45-1.9 3.4-3.05-4.85-3.05-.3-1.25m17.7 9.75 3.7-2.15 9.9-11.3 6-5.15-6 5.15-9.9 11.3-3.7 2.15m-9.15.3q.6.3 1.25.65l1.65-.35 1.05-1.75 3.25.8 1.9-1.15-9.4-2.6-2.55 2.25-.15.1-.35.35 2.4 1.2.95.5m-2.6-5.35-.25 3.2.25-3.2m25.35-8.4 6.35-11.95-6.35 11.95" transform="translate(81 143.3)"/><path fill-rule="evenodd" fill="#77c1dd" d="m30.25-72.15-.05-2.1 1.55-.2v-.05l-.2-2.75 1.8-1.55-.2-1.3.85-.8 2.1 9.25-.1-.15q-3.5-5.35-1.75 2.7.4 4.45-3 .5l-.95-1.75-.05-1.8m3.1-6.65.2 1.35-.2-1.35M-39.4-90.2l4.2 7.8 4 11.6.35 2.7-.35-2.7-4-11.6-4.2-7.8m-7.75 19.55 11.5-7.75h-.05l-3.65-1.85-6.85.8-1.25.15-5.75 7.6 4.6 2 1.45-.95m17.95-10.9q1.1 2.7 1.8 5.3 1 3.6 1.45 7.3l-.4.6q-1.6 2.7-3.4 4.75l-.1-.35.1.35v.05q-2.05 2.3-4.3 3.8l-.35.2-8.25-2.65-.45 4 .55 1h-.05l-1.5-.05-2.15-.4q-3.65-.9-6.8-3.6l-2.65-4.25-.75-1.35-1.4-2.95-1.25-2.95-.05-.05-.25-.65v-.1h.1l9.9-11.65-12.8 1.35.1 2.2-1.1-4.95v-.05l-.05-.1.1.05 5.2-6.9-6.6-3.15-.15-1.55 3.25-6.2 4.6.35.15.05 2.9.75q12.5 3.95 24.6 21.8M-51.8-66.6l5.55 8.95-5.55-8.95m21.45.35.5 2.3.1.4-.1-.4-.5-2.3 1.85-.25-2.35-1.6-3.35-2.3-7.35-.9-3.15 2.35 2 4.2 12.35-1.5M-52.4-98.6l-1.4-4.75 1.4 4.75m.6 10.4-2.4-5-2.5-10.9 2.5 10.9 2.4 5" transform="translate(81 143.3)"/><path fill-rule="evenodd" fill="#3a80b1" d="m14.15-57.65 1.8-2.2.35.25 1.35-3.25 2.7.9-1.05 1.3v1.85l2 2.4 2.4.15.5-1.15 1.1-1 .05 3.6-1.65 2.6-1.35.5-1.8 1.6q-1.65 1.05-3.5 2.9l-.2.15-.2.25-2.5 2.2-2.35-.25 3.8-1.55-4.95-2.15-1.25 1.1-.55-1v-4.65l2.5-1.25.4-.45 1.35-1.6 1-1.2.05-.05M34-80.9l1.25-1.1.3 1.25 1.45 6.1.45 1.9 5.85 3 5.6-.4L47-67.7l-3.2.8-1.5-.2-2.65 1.8-.7-.3-2.85 1-.1-.05-2.65-1.5-1.15-.7-.95-1.75q3.4 3.95 3-.5-1.75-8.05 1.75-2.7l.1.15L34-80.9M9.5-52.25l.85 3.55.3.15-.3-.15-.85-3.55m6.8-4.6-.35-3 .35 3m.75 9.65-3.7-2.25-.4-5.2.4 5.2 3.7 2.25m-.4.4-1.05.4 1.05-.4m-.7-5.65 4.6 2.35-4.6-2.35m23.9-15.95 2.45 1.3-2.45-1.3m-1.8 2.45.9.35-.9-.35m-107.1-31.4.2-1.8.4-2.65.05-.1v-.1l.05-.1.15-.9.7-.85 2.65-2.55.25-.15.9-.65 1.05-.6 2.2-.9q5.05.5 11.2 3.15 8.5 6 13.7 12.8 4.05 5.85 6.35 11.2-12.1-17.85-24.6-21.8l-2.9-.75-.15-.05-4.6-.35-3.25 6.2-.2-3.1.2 3.1.15 1.55.3 3v.3l-.1-.65-.25-2-2.65 7.25 4 2.1.05.1v.05l1.1 4.95.4 1.5-1.25-3.5-2.5 8.7-.3.9.6.05 5.75.45v.1l.25.65.05.05 1.25 2.95 1.4 2.95.75 1.35 2.65 4.25q3.15 2.7 6.8 3.6l.15.3-.15-.3 2.15.4 1.5.05h.05l-.55 2.2 10.15-2.05 1.75-.5-2.1-1.65-1.1-.35.35-.2q2.25-1.5 4.3-3.8v-.05q1.8-2.05 3.4-4.75l.4-.6.35 5.55q.1 4.55-.4 8.5l-1.95-.35-.45.35-1.35-8.7 1.35 8.7-2.6 1.8-.5.35-.1.05.05 2-.25.25-2.1.55-.6.15-3.4-.9-.9 1.35-.5.45-.9.8-1.45 1.25-.3-.95-5.15-.2-.45 1.55-.1.2-.1.3-2.9-1.95-1.3-.95-.25-.2-.55-.45-3.45-3-3.75-4.1Q-62-59.5-63.5-62.9q-1.15-2.7-1.95-5.6l-.2-.7-.25-1.05q-2.15-5.5-3.1-11.25l-.55-3.9q-.1-6.15.45-11.4l.05-.55m4.25 24.55-.35-1.2.35 1.2m-4.3-24 2.05 16.8 1.6 5.05-1.6-5.05-2.05-16.8m23 39.45 4.3 5.95 2.5 2.55-2.5-2.55-4.3-5.95m-16-9.75h-1.2l.1 3.05 1.05 1.9 1.2.85 2.2-1.35v-.1l-1.05-4.45-2.3.1m14.5 12.3-5.35-6.25-.1-.2.1.2 5.35 6.25m-9-5.25-1.75-.85-.55 3.85 2 3.25 1.3-5-1-1.25M-51.9-50l1.4 1.6.1-4.1-.1-1.45-3.3-2.05.7 5.35 1.2.65" transform="translate(81 143.3)"/><path fill-rule="evenodd" fill="#d3dae6" d="m47.4-96.6 3.15-2.05 29.25-12.2-2.95 10.25-.65 1.55-3.3 1.4 2.15-4.05.6-1.15-5.3.35-.2.05v-.05l-3.85-.6-3.1 1.5-5.35 2.65-4.35 2.15-.1.2-.1.15v-.15h-5.9m.45 8.75-.05-.2 5.05-7.5-.6 1.1 1.2.8 9.85-2.85-3.4 10.65-8.7 1.75-2 2.6-1.35-6.35m5.45-8.75h.1-.1m16.85-5.9h.2-.2m7.95-4.95-2.45 4.6 2.45-4.6" transform="translate(81 143.3)"/><path fill-rule="evenodd" fill="#9eaec7" d="m63.2-101.6 2.55 2.4-6.7 3.15-4.4-1.25 3.2-1.65 5.35-2.65" transform="translate(81 143.3)"/><path fill-rule="evenodd" fill="#b68c49" d="m11.75-118.6 1.9 2.7.3 5.9-2.55-1-12.65-5.1 5.35-.2-3.35-2.15-13.2-1.45 9.35-2.65 14.85 3.95m9.9 14.8 3.25 2.25-6.25 2.25.05.05L9.5-102l12.15-1.8m-7.5 26.15-.75 3.4-3.45 2L7.3-66.1l-.65-.85-.1-2.45-2.2-3.85-2.6-4.45-1.7.2-4.95.55-5.75-3.2q-5.05-3.2-2.35-6.45l7.05-3.8q-13.1.55-11.85-3.05l6.9-4.35q-10.65 1.3-16.05-.35-10.3-8.85-7.3-15.35l-5.9.65-.55-3.65-4.9 1.9.15-4.15-5.75 4.5-5.65-.6-4.45 2.7-1.2.75.35-1.25q.3-1.2 1.3-2.4 1.65-2.05 5.35-3.95l.1-.05q4-2.1 10.45-4.05l2.9-.85q2.55 5.45 8.9 4.8 3.85-.45 9.15-3.1l-6.5 6.9h.1l2.95-.45 5.15 8.55q13.6-3.15 29.7-1.65-10.7 1-5.55 3.45l2.15 1.3-5.15 2.15 2.6 4.3q4.5 4.8 4.3 9.55l6.05.4-9.3 4.15 11.65 5.95m-35.25 72 6.9 4.5 1.75 6.5 4.5 10.45-2.15-1.6 1.45 5.6-.65 2.35-2.05-3.65.35 10.05-2.1-5.35-1.15 2.6.7 8.15-5.1-11.8.6 18.5L-20.3 30l-2-1.85-.5 16.35-.8-3.4-.45-1.8-.05-.1-2.7-10.95-.8-3.2.8 3.2-6 8.1-.2 2.75-1.85-5.45-.75 7.35-.8-5.8q1.5-8.85 5.6-11.7l-1.65-7-4.6 13.75-.15-1.05.15 1.05.25 2-4.7 3.45-1.45 4.65-.7-4.7-.25-1.7.25 1.7-2.95.15-.05.1-1.3 4.25-.1.2-.3-5.7q4.9-4.9 7.05-11.9l.35-6.1q-1.05 3.4-4.85 9.4 2.5-11 .8-17.45-4-.15-6.05 6.95-.2-8.05 1.45-16.3l-3.95 3.6 1-7.4 6.45-6.5 5.75.25-.8 1.6-3.35 1.35.3 6.1 10.85 5.4 13.4-1.9.4-.7-1.65-6.35.1-.35m-45.45 30.5 2.9-10.05-.7.9 4.65-7.1-2.6 9.3 2.55-1.25-6.8 8.2m-.65-11.55-2.15.25 5.2-5.35-3.05 5.1m35.7-152.05q3.5 2.15 5.1 4.8L-36-129l3.25-3.4-7.65 2.25 8.9-8.6m40.85 26.3L11.4-111l-2.05-1.45m-27.7 111.3-1.2 2.2 1.2-2.2m-28.1 36.4-.15.55.15-.55m9.05-26.8-1.55 7.05-.25 3.05 3.45-6.65-1.65-3.45m26.05 10.05-.3-.5.3.5M-54.1 32.25l-2.25-1.15-1.9 2.6 4.75-10.55-.5 7-.1 2.1m2.25.25.15-.5.7-1.45 1.45-3.1 1 3.9.15 2.9-3.45-1.75m29.65-9.05-.1 4.7.1-4.7m9.1-.25-.8-2 .8 2m-1.4-.1.25 2.7-.25-2.7m-5.8 6.9-1.25-5.9 1.25 5.9m-12.4 4.95-.1 1.4.1-1.4m-7.35-3.85-1.45 4.6 1.45-4.6m29.95-16.9-2.35-8.85 2.35 8.85" transform="translate(81 143.3)"/><path fill-rule="evenodd" fill="#ac4e09" d="m7.3-66.1 2.25 2.8-1.65-.5-1.2.15-.05-3.3.65.85m5.4 6.7 1.45 1.75-.05.05-1 1.2-1.35 1.6-1.1-1.35L8.1-59.4l1.3-.5 3.3.5m-.9 14.55-1.55 1.45-.1.15-.1-.15-1.4-1.8-3.25 1.65-.25.1.15-.1 4.1-3.9 1.25-1.1 4.95 2.15-3.8 1.55M-46.9 77.5l-.5-4.75-3.25-9.35 4.25.3 2.4-1.95.2 1.3-1 6.15-.15.75 6.05 6.3.25-.05-2.75 2.75-5.5-1.45m8.1-90.2-.65-1.2 1.75-5.3 5.45-2.05-1.25 3.6-2.05 1.5.15-1.3-.15 1.3-.1.1.65-.15.25-.1 1.6-.4-2.4 1.9.65 3.4-2.65.55-.95-1.4 1-2.25 2.5-1.7-2.5 1.7-1 2.25-.3-.45m49.45-43.45 2.45-.25-2.45.25M5.3-43.55h.1-.1m4.95.15h-.2.2m-45.5 24.9-.15 1.05.15-1.05m-.15 1.05-2.5-.05 2.5.05" transform="translate(81 143.3)"/><path fill-rule="evenodd" fill="#ba6007" d="m9.55-63.3 3.15 3.9-3.3-.5-1.3.5-1.3-1.65-.1-2.55v-.05l1.2-.15 1.65.5M6.7-39.9l-3.6 3.45-1.9-.75h-2.75L2-40.5q3.35-.65 4.7.6m-27.15 16.7.1-.05 2.2-1.35q5.45-.8 5.6 1.15l-4.85 3.35-3.15-.95.1-2.15" transform="translate(81 143.3)"/><path fill-rule="evenodd" fill="#6b532c" d="m20.75-62.2 9.5-9.95.05 1.8.95 1.75.95 1.75 1.15.7-8.3 7.9.25-.15-1.1 1-.5 1.15-2.4-.15-2-2.4v-1.85l1.05-1.3.15.05.25-.3m-82.2 94.9-9.95 14.85-1.75-.7.35-2.8 8.4-12.2-.25 1.8 2.55-5.4-.3 4 .95.45m3.75-83.8-.65-.65-3.1-3.55-1.3-1.7-2.45-5.1v-.1l-2.4-5.9-1.35-4.05-2.1-7.85-.2-1.2q-1.7-10.5 0-20.95l.05-.2v-.15l.2-1 .2-1.2 2-2.4 7.85-3.6 10 1.9 14.65 11.3 7.85 11.5q2.45 1.85 3.65 1.05h.05q1.05-.8 1-3.7l.65 1.75 1.3 3.1.8 2.15.95 3.5.1.35.05.3q.5 2.45.55 4.7l.3 8-1.2 1.45-.35 1.15-2 6.8-2.9.6-.5-.1q.5-3.95.4-8.5l-.35-5.55q-.45-3.7-1.45-7.3-.7-2.6-1.8-5.3-2.3-5.35-6.35-11.2-5.2-6.8-13.7-12.8-6.15-2.65-11.2-3.15l-2.2.9-1.05.6-.9.65-.25.15-2.65 2.55-.7.85-.15.9-.05.1v.1l-.05.1-.4 2.65-.2 1.8-.05.55q-.55 5.25-.45 11.4l.55 3.9q.95 5.75 3.1 11.25l.25 1.05.2.7q.8 2.9 1.95 5.6 1.5 3.4 3.55 6.35l3.75 4.1 3.45 3 .55.45.25.2 1.3.95 2.9 1.95-.95 1.9-.2-.15-3.3-2.3-3.2-2.5-2.3-2.15m62.4 5.75 4.15-4.35v1.25l.55 1-4.1 3.9-.15.1-2 1.85 1.5-3.25.05-.5m-67.2 78.5.1-.9-.1.9" transform="translate(81 143.3)"/><path fill-rule="evenodd" fill="#8c4a28" d="m-1.05-32.45-3.55 7.7-6.1 7.7-3.35.85-6.55 7.7-.5 2.85-.1.35 1.65 6.35-.4.7-13.4 1.9-10.85-5.4-.3-6.1 3.35-1.35.8-1.6.3-.55 1.25-1.35.3.45.95 1.4 2.65-.55 4.65-.95 2.4-.5 5.25-3.6 5.2-3.65 4.85-3.35.35.05-.35-.05 4.75-3.35 3.15-2.2 1.8-1.75 1.8-1.7m-31.2 11.2.55-1.55 3.8-2.85 3.15 1.4 2.3-.25 2.1 1.25-.1.05-2.5 1.5-4.45 2.65-2.65 1.6-.6.15-1.55.4-.95.2-1.6.4-.25.1-.65.15.1-.1 2.05-1.5 1.25-3.6m-.95-10.9-2.65 1.3-.9 2.45-2.4-.8-.3 3.3-3.3.65h-.1l-.95-.95-1.7-1.7-.05-.05.85-4.2-.85 4.2.05.05-3.85 3.05-4.5 3.45-5.65.9-.55-.25-10.45 1.35-2.5-1.35-.7-4.45 5.6.35.85-.95h7.7l14.85-6.35.75-3.9-3.4-5.85-2.2.5-.45.1.05-.1 1.25-2.6.95-1.9.1-.3 6.25 9.85 2.15.7 2.05-2-2.5-3.15-1.95-6 1.45-1.25 3.3 8.3 2.75 1.6 2.5-1.95.05-.65-2.9-5.65v-3.35l.6-.15 3.4 8.4 3.45-.65.2-.65-.45-4.7q2.1-.05 4.95 1.7l3.15-.7.9-2.85 4.8-3.25-2.85-1.5 15.9-5.15 4.8-14 2.2 3.85.1 2.45.05 3.3v.05l.1 2.55.05 2.8-1.3 1.9-.85 11-.05.5-1.5 3.25L2-40.5l-3.55 3.3-3.3 3.1-4.2 3.9-.55.5-4.25 2.55-4.25 2.55 7.4-7.95-1.6.45-9.6 5.95 2.4-6.75 11.9-11.7 2.05 2.65.2.8 7.25-12.4q1.35-.6 2.45-1.55l1.2-1.25-1.2 1.25q-1.1.95-2.45 1.55l-.3.15-7.6 1.9-22.55 13.9 1.5-4.55-1.5 4.55-.1.2v2.7l-1.6 1.35-1.9-.75-.1.75-.9 1.15-.05.05m28.6-5.2-.75-3.8.75 3.8m-3.55 4-2.55.8 2.55-.8m-23.4-17.35-.05-2 .1-.05 2.6.5 2.6 2.75 6.7 1 1.3-.85-.9 2.85-3.15.7q-2.85-1.75-4.95-1.7l-2.95-4.65-1.3 1.45m-.6 16.6.5-6-.5 6m-4.7 1.2 2.5.7-2.5-.7m-2.3 3.7.15-1.9 2-4.5v-1.8l-.2-.25.2.25v1.8l-2 4.5-.15 1.9m8.85-7.2h1.65-1.65m7 14.6.35.1-.35-.1m-.15 10.8 3.8-3.85 5.6-1.35-5.6 1.35-3.8 3.85m-7.35-8.65-2.7 2 2.7-2m-11.05-9.1h1.75-1.75M-41.9-8l.75-1.2-.75 1.2m3.05 7.1 4.25 2.15 5.1.35 2.4-3.55-.55-4.35-4.7.15L-41.2-3l2.35 2.1m-21.2-19.85-3.05-1.35-5.6-.2 5.6.2 3.05 1.35M-11-50.25l5-1.25-5 1.25" transform="translate(81 143.3)"/><path fill-rule="evenodd" fill="#b16f2e" d="m-56.85 129.2 1-.1 2.1-2.65.6 3.7-1.7.35-2-1.3m25.6-16.9.55-2.05 7.9 1.6-4.5 14.25 1.05 3.2-1.65 2.75-2.85-4.05 4.05-9.85-4.55-5.85M-73.7-25.2l-.4-2.3.05-.1.4-3.05 2.3-3.4.65 1.7 2.05.1 2.6-.25 2.5.7 2.1.05 14-5.5-2.35-3.95.25-.2 2.2-.5 3.4 5.85-.75 3.9-14.85 6.35h-7.7l-.85.95-5.6-.35M.05-77.5l1.7-.2 2.6 4.45-4.8 14-15.9 5.15 2.85 1.5-4.8 3.25.25-.95-3.15-1.6-.6-2.45.6 2.45 3.15 1.6-.25.95-1.3.85-6.7-1-2.6-2.75-2.6-.5.5-.35 5.4 1.25 3.8-2.5-.3-1.15-.5.1 2-6.8.85 6.8 2.35-.05 12.5-6 6.5-9.65-1.55-6.4m-47.7 31.3.1-.2.45-1.55 5.15.2.3.95 1.95 6 2.5 3.15-2.05 2-2.15-.7-6.25-9.85m-4.4 6.65-5.4 3.95-4 .4-.65.25-2.3.95-.55-1.3 9.75-4.25h3.15m-14.85 10.5 2-2.25-2 2.25m43.4-21.75 2.05-.4-2.05.4M-38.85-.9-41.2-3l8.85-3.15 4.7-.15.55 4.35-2.4 3.55-5.1-.35-4.25-2.15M-45.8 52l1-4.55 3.6 3.25 1-2.3-1.6-4.8 3 3.15 1.5 7.7 2.1-7.1 2.8 3.6-.35 16.55-1.75 3.85 1.35.3 1.75 2.4-6.55 1.9-.7.25-.25.05-6.05-6.3.15-.75 4.2-3.25-.05.75 3.1 2.9 2.7-2.55-5.25-8.8-.3 4.1-1.05-1.05-1.65-3.15-1.9-1.7-.8-4.45m11.3 19.35-.95-.25.95.25m-12.15 63.55.25-.2 1-1.9 5.75 1.15.4.2 1.45.4.8.25 3.25.95.05.5-.35.55h-6l.15-.15v-1.85l-1.45.05-4.2.05h-1.1m-5.45-2.6v-.05l.8-2.25.75-.15 3.7 2.8-1.35 1-3.9-1.35m19 3.65-.5.1-.1.2-.05-.5.65.2m-6.8-1.15v-.45l.25-.4-.25.4v.45" transform="translate(81 143.3)"/><path fill-rule="evenodd" fill="#d89b38" d="m-60.5 131.15.3-1.75 3.35-.2 2 1.3 1.7-.35-.6-3.7.8-1.05h3.45l8-1.75 9.8-9.5.45-1.85 4.55 5.85-4.05 9.85 2.85 4.05-1.15 2 .05.25.15.85-4.25.8-.65-.2-.1-.55 1.15-1.15v-2l1.7-1.45-1.7 1.45v2l-1.15 1.15.1.55-3.25-.95-.8-.25-1.45-.4-.4-.2.6-1.05-.6 1.05-5.75-1.15-1 1.9-.25.2-1.45 1 .15.85.05.1-.05-.1-.15-.85 1.45-1h1.1l4.2-.05 1.45-.05v.4l-2.25 2-5.6-.4-.15.05-1.9.95-6.15-1.95.35-2.15 3.4-1.2.1-.2-.1.2-5.25.4-3.05-1.75M.05-77.5l1.55 6.4-6.5 9.65-12.5 6-2.35.05-.85-6.8.35-1.15 1.2-1.45q2.2-3.1 5.8-4.6l1.6-6.4 3.75-.85 3-.3 4.95-.55M-22.6-55.4l.5-.1.3 1.15-3.8 2.5-5.4-1.25 2.6-1.8.45-.35 1.95.35.5.1 2.9-.6m-27.2 14.2 2.35 3.95-14 5.5-2.1-.05-2.5-.7-2.6.25-2.05-.1-.65-1.7 3.75-5.6 12.4.1-9.75 4.25.55 1.3 2.3-.95.65-.25 4-.4 5.4-3.95 2.25-1.65m5 110.4 1-6.15-.2-1.3-1-5.3 1.9 1.7 1.65 3.15 1.05 1.05.3-4.1 5.25 8.8-2.7 2.55-3.1-2.9.05-.75-4.2 3.25m1.85 61.7-2.3 1.6-.15.3.15-.3 2.3-1.6m-7.6-1.05-.75.15-.8 2.25v.05l3.9 1.35 1.35-1-3.7-2.8 3.85-.75-3.85.75m-3.75 1.5-2.95 1-1.65-1.45 1.65 1.45 2.95-1m20.25 5.45-1.4 2.1-5.45-.15-.15-.95 1-1h6m-15.25-1.05-4.55-.45 4.55.45m20.3-1.45h-2.45H-29m-6.7.3-1.3.2 1.3-.2" transform="translate(81 143.3)"/><path fill-rule="evenodd" fill="#9a713f" d="m-4.9-76.95-3 .3-3.75.85-1.6 6.4q-3.6 1.5-5.8 4.6l-.3-8q-.05-2.25-.55-4.7l-.05-.3-.1-.35-.95-3.5-.8-2.15-1.3-3.1-.65-1.75q-2.6-5.95-9.95-14.6-4.25-5.05-14.65-10.75l-2.85-.25 5.75-4.5-.15 4.15 4.9-1.9.55 3.65 5.9-.65q-3 6.5 7.3 15.35 5.4 1.65 16.05.35l-6.9 4.35q-1.25 3.6 11.85 3.05L-13-86.6q-2.7 3.25 2.35 6.45l5.75 3.2" transform="translate(81 143.3)"/><path fill-rule="evenodd" fill="#753822" d="m-31.7-22.8 1.45-4.1-1.95-1.95-1-3.3.05-.05.9-1.15.1-.75 1.9.75 1.6-1.35v-2.6l.1-.3L-6-51.5l7.6-1.9.3-.15-7.25 12.4-.2-.8-2.05-2.65-2.6-3.4 2.6 3.4-11.9 11.7-2.4 6.75-1.3.8-2.5-3.55-3.6-.75-.85-.2v-2.9 2.9l.85.2 3.6.75 2.5 3.55 1.3-.8 9.6-5.95 1.6-.45-7.4 7.95h-.05l-2.2 1.35-2.1-1.25-2.3.25-3.15-1.4-3.8 2.85m-42.35-4.8-3-.55-2.7-3.65 1.6-7.85 2.25-2.9 5.4-.9 12.8-7.65 2.3 2.15 3.2 2.5 3.3 2.3.2.15-1.25 2.6-.05.1.45-.1-.25.2-2.25 1.65h-3.15l-12.4-.1-3.75 5.6-2.3 3.4-.4 3.05m51.95-8.85h-2.55l-1.5 3.55 1.45 1.1 1.9-3.15-1.9 3.15-1.45-1.1 1.5-3.55h2.55m-8.15 9.55.95-2.75-.95 2.75" transform="translate(81 143.3)"/><path fill-rule="evenodd" fill="#c86606" d="M10.15-43.25 6.7-39.9q-1.35-1.25-4.7-.6l1.15-1.1 2-1.85.25-.1 3.25-1.65 1.4 1.8.1.15m-10 9.65-1.2 1.15-1.8 1.7-1.8 1.75-3.15 2.2-6.05-.35 4.25-2.55.55-.5 4.2-3.9q3.45-.6 5 .5m-9.2 3.4 6.2-.55-6.2.55m19.1-13.2-4.65-.15 4.65.15m-34.6 25.85 4-2.6v-.9l3.15.95-5.2 3.65-1.95-1.1 1.95 1.1-5.25 3.6-2.4.5-1.1-1.65 1.1 1.65-4.65.95-.65-3.4 2.4-1.9.95-.2-.7 2.55 1.55.35 1.05.25 5.75-3.8" transform="translate(81 143.3)"/><path fill-rule="evenodd" fill="#d5790b" d="M3.1-36.45.15-33.6q-1.55-1.1-5-.5l3.3-3.1H1.2l1.9.75m-16.95 9.3 6.05.35-4.75 3.35q-.15-1.95-5.6-1.15h.05l4.25-2.55" transform="translate(81 143.3)"/><path fill-rule="evenodd" fill="#6988a7" d="m35.55-80.75 4.85 3.05-3.4 3.05-1.45-6.1m5.4 6.65 2.55-2.25 9.4 2.6L51-72.6l-3.25-.8-1.05 1.75-1.65.35q-.65-.35-1.25-.65l-.95-.5-2.4-1.2.35-.35.15-.1m1.9 1.65L40.8-74l2.05 1.55" transform="translate(81 143.3)"/><path fill-rule="evenodd" fill="#ac8139" d="m-68.8-107.1.9-1.05 1.35-.8 1.9-1.15.4-.25.55-.35 1.2-.7 1.2-.75 4.45-2.7 5.65.6 2.85.25q10.4 5.7 14.65 10.75 7.35 8.65 9.95 14.6.05 2.9-1 3.7h-.05q-1.2.8-3.65-1.05l-7.85-11.5-14.65-11.3-10-1.9-7.85 3.6m28 1.1-1.8-1.4 1.8 1.4m2.6.2-4.2-3 4.2 3m3.2 2.4-1.6-1.2 1.6 1.2m-7.2-1-5.4-4 5.4 4m7.2 3.4 6 6.8 4.25 9.25L-29-94.2l-6-6.8m-18.6-10-3.95-.7-7.1 1.6 7.1-1.6 3.95.7m6 .4-6.8-2.4-6.9.85 6.9-.85 6.8 2.4" transform="translate(81 143.3)"/><path fill-rule="evenodd" fill="#0d2128" d="m-46.2-79.45 6.85-.8 3.65 1.85h.05l-11.5 7.75-4.3-1.9 5.25-6.9m-12.55 16.7-1.05.6L-61-63l-1.05-1.9-.05-2.2 2.3-.1 1.05 4.45" transform="translate(81 143.3)"/><path fill-rule="evenodd" fill="#275b76" d="m-47.15-70.65-1.45.95-4.6-2 5.75-7.6 1.25-.15-5.25 6.9 4.3 1.9m-11.6 7.9v.1l-2.2 1.35-1.2-.85-1.05-1.9-.1-3.05h1.2l.05 2.2L-61-63l1.2.85 1.05-.6" transform="translate(81 143.3)"/><path fill-rule="evenodd" fill="#68411c" d="m-64.6-96.1.25 2 .1.8.05.15v.1l-1.35 3.2 1.75.55.1-.1.05.2v.15l.05.15.35 2.15-4-2.1 2.65-7.25m-.95 6.25-.05.05.05-.05m5.2 13.75v.05l.95 2.5-5.75-.45-.3-.95.3.95-.6-.05.3-.9 2.5-8.7 1.25 3.6v.05l-1.5 3.65 2.85.3v-.05m3.75 16.05 1 1.25-1.3 5-2-3.25.55-3.85 1.75.85m-.45.5-.6.1-.15 2.5 1.4-1.6.05-.05-.7-.95M-51.9-50l-1.2-.65-.7-5.35 3.3 2.05.1 1.45-.1 4.1-1.4-1.6m-.65-4.3.5 2.9.8-2.05-1.3-.85m10-2.9h.95l.3-.05.15.25 4.8-1.3-.3-.1q1.15-.5 2.25-1.15l1.1.35 2.1 1.65-1.75.5L-43.1-55l.55-2.2" transform="translate(81 143.3)"/><path fill-rule="evenodd" fill="#c07932" d="m-64.55-96.75 6.6 3.15-5.2 6.9-.1-.05-.35-2.15-.05-.15v-.15l-.05-.2 2.35-3.2-2.8-.55-.05.1v-.1l-.05-.15-.1-.8.1.65v-.3l-.3-3m2.45 15.1-.1-2.2 12.8-1.35-9.9 11.65h-.1l-.95-2.5v-.05l4.65-5.4-5.95 1.4-.05.1v-.05l-1.25-3.6 1.25 3.5-.4-1.5m19.55 24.45-.55-1 .45-4 8.25 2.65q-1.1.65-2.25 1.15l-4.65-1.5-.1 2.45.1.2-.3.05h-.95m12.2-9.05-12.35 1.5-2-4.2 3.15-2.35 7.35.9 3.35 2.3 2.35 1.6-1.85.25m-.45-1.15-.05-.7.05.7m-10.45-2.55-.05.05-1.35 1.55-.05.05 1.15 1.65 6.2-1.6-5.9-1.7" transform="translate(81 143.3)"/><path fill-rule="evenodd" fill="#d3eef3" d="m-64.2-93.05.05-.1 2.8.55-2.35 3.2-.5-3.65M-61.7-80l.05-.1 5.95-1.4-4.65 5.4-.4-1.1-.95-2.8m20.45 10.05 5.9 1.7-6.2 1.6-1.15-1.65.05-.05 1.35-1.55.05-.05m-.05 12.7-.1-.2.1-2.45 4.65 1.5-2.25.75-2.4.4" transform="translate(81 143.3)"/><path fill-rule="evenodd" fill="#5e8885" d="m-64.2-93.05.5 3.65-.1.1-1.75-.55 1.35-3.2M-61.7-80l.95 2.8.4 1.1v.05l-2.85-.3 1.5-3.65m4.65 20.45.7.95-.05.05-1.4 1.6.15-2.5.6-.1m4.5 5.25 1.3.85-.8 2.05-.5-2.9" transform="translate(81 143.3)"/><path fill-rule="evenodd" fill="#5c1a10" d="m-65.55-89.85-.05.05.05-.05m28.9 31.45.3.1-4.8 1.3-.15-.25 2.4-.4 2.25-.75" transform="translate(81 143.3)"/><path fill-rule="evenodd" fill="#d5882b" d="m-33.9-49.9 2.1-.55.25-.25 1.3-1.45 2.95 4.65.45 4.7-.2.65-3.45.65-3.4-8.4" transform="translate(81 143.3)"/><path fill-rule="evenodd" fill="#ca8128" d="m-40.2-48.05.9-.8.5-.45.9-1.35 3.4.9v3.35l2.9 5.65-.05.65-2.5 1.95-2.75-1.6-3.3-8.3" transform="translate(81 143.3)"/><path fill-rule="evenodd" fill="#ffb612" d="m-30.3 108.5-.55-.05-.7-1.2.7-1.4v-.1l-.6-3.35.45-1.15 6.65 1-.65 6.45-5.3-.2M-33.45 94l-2.6-.15-1.25-4-.9-2.75 10.9 2.15.7 3.45-6.25 1.35-.6-.05m12.9-115.05v.9l-4 2.6-2.85-1.5 2.85 1.5-5.75 3.8-1.05-.25-1.55-.35.7-2.55 1.55-.4.6-.15 2.65-1.6 4.45-2.65 2.4.65-2.4-.65 2.5-1.5-.1 2.15m-10.1 3.75-1.15 2.05.45 1.25-.45-1.25 1.15-2.05m2.2 122.85-2.4.2 2.4-.2" transform="translate(81 143.3)"/><path fill-rule="evenodd" fill="#6a3420" d="m-43.8-26.2-.85 1.35-2.35.9-2.35-.9 3.85-3.05 1.7 1.7" transform="translate(81 143.3)"/><path fill-rule="evenodd" fill="#5c2916" d="m-37.3 89.85-1.55 1.35h-5.55l-4 2.85-8.6-.55-3.2 1.45-2.3-1.75 1.15-4.3 2.05.85 6.85-2 6.05-5.45-.5-4.8 5.5 1.45 2.75-2.75.7-.25 2.5 3.75-.05.95-1.4.5-1.95 3.75.65 2.2.9 2.75M-50.65 63.4l-1.05-3.1-1.5.45v-.3l-.4-4.3.6-2.3q-1.85-4.4-3.35-9.65l-2.35-9.45-.05-.2-.05-.1.55-.75 1.9-2.6 2.25 1.15v7.8l2.25-7.55 3.45 1.75.05.4.3 5.7.1-.2L-45.8 52l.8 4.45 1 5.3-2.4 1.95-4.25-.3m.5-7.25 2.05-.25-.3 3.4-3.3 1 3.3-1 .3-3.4-2.05.25" transform="translate(81 143.3)"/><path fill-rule="evenodd" fill="#894521" d="m-23.6 41.1-.35 11.6q-1.2 1.6-2.25 3.75l-.05.05-1.45 3.35-1.45 4.05.45 5.1 5 1.7 2.05.4 1.45.85-3.75 6.9-8.05 6.9-4.25-.8.75-4.3.05-.95-2.5-3.75 6.55-1.9-1.75-2.4-1.35-.3 1.75-3.85.35-16.55-2.8-3.6-2.1 7.1-1.5-7.7-3-3.15 1.6 4.8-1 2.3-3.6-3.25-1 4.55-2.15-11.85 1.3-4.25.05-.1 2.95-.15.7 4.7 1.45-4.65 4.7-3.45.4 2.95.8 5.8.75-7.35L-33 39.1l.2-2.75 6-8.1 2.7 10.95.05.1.45 1.8m7 59.9.95 1.1-1.4 4.6 2.3 5.15-1.45 7.8-4.6 2.55-1.7 3.2-.45 4.65-4.05 4.85.85 2.6-1.7 2.3-4.8-.25-1.5 2.55h-6.3l-.3-2.35-1.3 1.7-5.2-.6-.35-2.05-2.15 2.1-5.55-.45-.85-3.6.05-.3-2.9.25-2.05-2.5.55-3.15 3.05 1.75 5.25-.4-3.4 1.2-.35 2.15 6.15 1.95 1.9-.95.15-.05 5.6.4 2.25-2v1.45l-.15.15-1 1 .15.95 5.45.15 1.4-2.1.35-.55.1-.2.5-.1 4.25-.8-.15-.85-.05-.25 1.15-2 1.65-2.75-1.05-3.2 4.5-14.25-7.9-1.6.4-1.75 5.3.2h.75l5.55-3.85 1.3-.75.45-1.7.35-1.4m-11.2-28.5-.75-1.7-.15-1.8.15 1.8.75 1.7m-.7 61.8h-.5.5m-27.6 2.25.15-.7-.15.7m23.45 3-.65-.05-.4-3.25.4 3.25.65.05m-14.95-.75-.3-1.95.3 1.95m6.85.95-.15-1 .15 1" transform="translate(81 143.3)"/><path fill-rule="evenodd" fill="#dc7d0a" d="m-23.7 70.7 2.05-.75 2.3.25 2.3 2.6.25 10.9-1.75 3.05-4.85 4.15-1.7 1.45-1.5.35-.7-3.45-10.9-2.15-.65-2.2 1.95-3.75 1.4-.5-.75 4.3 4.25.8 8.05-6.9 3.75-6.9-1.45-.85-2.05-.4m6.35 18.15.3.35-1.15 4.85.1 2.7-3.4 7.5 3.75-1.5.8-.35-.45 1.7-1.3.75-5.55 3.85H-25l.65-6.45-6.65-1 .45-1.15-.15-.15-1-1 .8-1.3.05-.15-1.05-1.4 5.35-.1 9.2-7.15m-4 9.15-6.95 1.95h-2.4 2.4l6.95-1.95m.15-3.15-6.1 2.65-3.6.15 3.6-.15 6.1-2.65" transform="translate(81 143.3)"/><path fill-rule="evenodd" fill="#b8610a" d="m-18.55 86.75-.25.4 1.45 1.7-9.2 7.15-5.35.1-1.55-2.1.6.05 6.25-1.35 1.5-.35 1.7-1.45 4.85-4.15m.45 10 .1 2.55 1.4 1.7-.35 1.4-.8.35-3.75 1.5 3.4-7.5m.35 6L-18 99.3l.25 3.45" transform="translate(81 143.3)"/><path stroke-width=".05" stroke-linejoin="round" stroke-linecap="round" stroke="#4a2e00" fill="none" d="m54.6 9.35.1.15q8.05-4.15 16.15-8.25l2.4 3.3.75-.4 12.05.25-2.85 2.9 6 .25-5.9 3.8 9.45 13.35 1.9 2.7.3 5.9v.8l7.7 5.4 3.25 2.25L99.65 44l.05.05 2.45 6.6-2.25 1.65.8 6.4-4 .3.25 3.75-1.4.95-.4 1.95-.75 3.4-3.45 2-2.65 6.15 2.25 2.8 3.15 3.9 1.45 1.75 1.8-2.2.35.25 1.35-3.25 2.7.9.4-.25 9.5-9.95-.05-2.1 1.55-.2v-.05l-.2-2.75 1.8-1.55-.2-1.3.85-.8 1.25-1.1-.25-1.05 2.7-3.5.65-.9 4.9-6.45 3.65-2.4m.5-.3 3.15-2.05 29.25-12.2-2.95 10.25-.65 1.55-3.5 7.9m-.15.3-2.9 6.55-10.35 12.3-9.6 1.8-.8.05-1.9 2.45-3.2.8-1.5-.2-2.65 1.8-.7-.3-2.85 1-.1-.05-2.65-1.5-8.3 7.9.25-.15.05 3.6-1.65 2.6-1.35.5-1.8 1.6q-1.65 1.05-3.5 2.9l-.2.15-.2.25-2.5 2.2-2.35-.25-1.55 1.45-.1.15-3.45 3.35-3.6 3.45-2.95 2.85-1.2 1.15-3.55 7.7-6.1 7.7-3.35.85-6.55 7.7-.5 2.85 6.9 4.5 1.75 6.5 4.5 10.45-2.15-1.6 1.45 5.6-.65 2.35-2.05-3.65.35 10.05-2.1-5.35-1.15 2.6.7 8.15-5.1-11.8.6 18.5-2.25-10.65-2-1.85-.5 16.35-.8-3.4-.35 11.6q-1.2 1.6-2.25 3.75l-.05.05-1.45 3.35-1.45 4.05.45 5.1 5 1.7 2.05-.75 2.3.25 2.3 2.6.25 10.9-1.75 3.05-.25.4 1.45 1.7.3.35-1.15 4.85.1 2.7.1 2.55 1.4 1.7.95 1.1-1.4 4.6 2.3 5.15-1.45 7.8-4.6 2.55-1.7 3.2-.45 4.65L54 278.2l.85 2.6-1.7 2.3-4.8-.25-1.5 2.55h-6.3l-.3-2.35-1.3 1.7-5.2-.6-.35-2.05-2.15 2.1-5.55-.45-.85-3.6.05-.3-2.9.25-2.05-2.5.55-3.15.3-1.75 3.35-.2 1-.1 2.1-2.65.8-1.05h3.45l8-1.75 9.8-9.5.45-1.85.55-2.05.4-1.75-.55-.05-.7-1.2.7-1.4v-.1l-.6-3.35.45-1.15.45-1.15-.15-.15-1-1 .8-1.3.05-.15-1.05-1.4-1.55-2.1-2.6-.15-1.25-4-1.55 1.35H36.6l-4 2.85-8.6-.55-3.2 1.45-2.3-1.75 1.15-4.3 2.05.85 6.85-2 6.05-5.45-.5-4.8-.5-4.75-3.25-9.35-1.05-3.1-1.5.45v-.3l-.4-4.3.6-2.3q-1.85-4.4-3.35-9.65l-2.35-9.45-.05-.2-.05-.1-2 2.7v-5.4l-.65.95-9.95 14.85-1.75-.7.35-2.8 8.4-12.2 1-6.75-5.05 6.3 1.9-6.55 2.9-10.05-.7.9-4.1 5.2 1-7.15.25-.45-2.15.25 5.2-5.35 1.75-2.95 9.85-9.8 6.45-6.5 5.75.25.3-.55 1.25-1.35-.65-1.2 1.75-5.3 5.45-2.05.55-1.55 1.45-4.1-1.95-1.95-1-3.3-2.65 1.3-.9 2.45-2.4-.8-.3 3.3-3.3.65h-.1l-.95-.95-.85 1.35-2.35.9-2.35-.9-4.5 3.45-5.65.9-.55-.25-10.45 1.35-2.5-1.35-.7-4.45-.4-2.3.05-.1-3-.55-2.7-3.65 1.6-7.85 2.25-2.9 5.4-.9 12.8-7.65-.65-.65-3.1-3.55-1.3-1.7-2.45-5.1v-.1l-2.4-5.9-1.35-4.05-2.1-7.85-.2-1.2q-1.7-10.5 0-20.95l.05-.2v-.15l.2-1 .2-1.2 2-2.4.9-1.05 1.35-.8 1.9-1.15.4-.25-.45-2.85 2.55-9.6L20 23.1q6-9.05 14.35-15.8l1.55 1.9 10.95-6.1 2.65 1.45q3.5 2.15 5.1 4.8m61.65 51.95.3 1.25 1.45 6.1.45 1.9 5.85 3 5.6-.4M92.4 32.3l2.55 1.8m-2.55-1.8-2.05-1.45m-.5 62.75v-3.4l2.5-1.25.4-.45-1.1-1.35-2.55-3.25-1.3-1.65.05 2.8-1.3 1.9-.85 11 4.15-4.35v1.25l.55 1 1.25-1.1-.3-.15-.85-3.55m3.6-4.15 1-1.2.05-.05m-2.4 2.85 1.35-1.6m7.25-5.55-1.05 1.3v1.85l2 2.4 2.4.15.5-1.15 1.1-1m-9.35-1.45.35 3m4.45-5.35-.25.3-.15-.05m-16-11.3-2.6-4.45-1.7.2M60.4 81.1l-2 6.8.5-.1.3 1.15.6 2.45 3.15 1.6-.25.95-.9 2.85-3.15.7q-2.85-1.75-4.95-1.7l.45 4.7-.2.65-1.5 4.55-.1.2v2.7l-1.6 1.35-1.9-.75-.1.75-.9 1.15-.05.05m37.55-41.1 2.2 3.85.1 2.45.65.85m-26.35 1.3q2.2-3.1 5.8-4.6l1.6-6.4 3.75-.85 3-.3 4.95-.55M29.8 29.05l2.85.25Q43.05 35 47.3 40.05q7.35 8.65 9.95 14.6l.65 1.75 1.3 3.1.8 2.15.95 3.5.1.35.05.3q.5 2.45.55 4.7l.3 8-1.2 1.45-.35 1.15m27.3-1.4.1 2.55m-1.25 4.7-1.2 1.25q-1.1.95-2.45 1.55l-.3.15-7.6 1.9-22.55 13.9-.1.3m23.3-3.85.75 3.8m11.25-29.6.05 3.3m-2 18.3-.05.5-1.5 3.25 2-1.85m.15-.1 4.1-3.9m-19.6-.55 2.6 3.4 2.05 2.65.2.8m-3.7 10.95-.55.5-4.25 2.55m6.05.35 3.15-2.2 1.8-1.75 1.8-1.7m-9.65-.1 2.55-.8m3.3-.75 3.3-3.1 3.55-3.3 1.15-1.1m-12.2 11.4 4.2-3.9M96.6 96.9l1.05-.4m-3.7-7.85.4 5.2 3.7 2.25m-5.25 2.35 3.8-1.55-4.95-2.15m9.9-1.55-4.6-2.35M123.3 76.2l-2.45-1.3m-8.6-.2-.95-1.75-.05-1.8m1 3.55.95 1.75 1.15.7m5.6.55-.9-.35m-4.5-11.5-.2-1.35m-80.6-54.35 2.15-.95M11.95 45.95l.2-1.8.4-2.65.05-.1v-.1l.05-.1.15-.9.7-.85 2.65-2.55.25-.15.9-.65 1.05-.6 2.2-.9q5.05.5 11.2 3.15 8.5 6 13.7 12.8 4.05 5.85 6.35 11.2 1.1 2.7 1.8 5.3 1 3.6 1.45 7.3l.35 5.55q.1 4.55-.4 8.5l.5.1 2.9-.6M16.75 32.95l.55-.35 1.2-.7 1.2-.75 4.45-2.7 5.65.6M16.1 41.9l.2 3.1.15 1.55m1.3 10 .05.1v.05l1.1 4.95.4 1.5-1.25-3.5 1.25 3.6v.05l.95 2.8.4 1.1v.05l.95 2.5v.1l.25.65.05.05 1.25 2.95 1.4 2.95.75 1.35 2.65 4.25.1.2 5.35 6.25m-17-41.3.25 2 .1.65v-.3l-.3-3m.85 7.35.05.2m.05.3.35 2.15m-.95-6.4v.1l.5 3.65m-.65-4.7.1.8m-4.85-3.5q-.55 5.25-.45 11.4l.55 3.9q.95 5.75 3.1 11.25l.25 1.05.2.7q.8 2.9 1.95 5.6 1.5 3.4 3.55 6.35l3.75 4.1 3.45 3 .55.45.25.2 1.3.95 2.9 1.95.1-.3.1-.2.45-1.55 5.15.2.3.95 1.45-1.25.9-.8.5-.45.9-1.35 3.4.9v3.35l2.9 5.65-.05.65-.5 6M32.3 99.3l-.2-.15-3.3-2.3-3.2-2.5-2.3-2.15m7.9 9.9-2.25 1.65-5.4 3.95-4 .4-.65.25m6.9-4.6-12.4-.1-3.75 5.6-2.3 3.4-.4 3.05m9.15-3.7-2 2.25m14.85-10.5H25.8M52.6 88.4l.45-.35 1.95.35m-8.5 5.15.6-.15 2.1-.55.25-.25-.05-2 .1-.05.5-.35 2.6-1.8m-21.15 13.5-.45.1.05-.1 1.25-2.6.95-1.9m-2.05 4.7.25-.2 2.2-.5 3.4 5.85-.75 3.9-.85 4.2.05.05 1.7 1.7m6.6-11.45-2.5-3.15-1.95-6m4.45 9.15.2.25v1.8l-2 4.5-.15 1.9m4.8-3-2.5-.7m15.4-18.3-2.05.4m-3.8 3.3-2.95-4.65-1.3 1.45m8.75 15.75-1.9 3.15-1.45-1.1 1.5-3.55h2.55m-6.55.05H50.7m.15 3.65v2.9l.85.2 3.6.75 2.5 3.55 1.3-.8m1.45 2.95.1-.05 2.2-1.35h.05l4.25-2.55m3.15-5.4-1.6.45-9.6 5.95m9.35 2.7 4.75-3.35m-14.8 10.35 5.2-3.65 4.85-3.35m-10.4 1.75-4.45 2.65m-2.85 6.7 2.4-.5 5.25-3.6m-9.6-.45 1.55-.4.6-.15 2.65-1.6m6.3 13.4-.1.35 1.65 6.35 1.2-2.2m4.3-15.05-5.6 1.35-3.8 3.85m.5-10.7 2.5-1.5m-11.8 1.95-1.25 3.6 2.7-2m-2.35 2.95.95-.2m-3.2-.55.15-1.05m-.15 1.05-.15 1.3 2.05-1.5m-12-10.25-3.85 3.05m14.6 8.55 1.6-.4m-1.75 5.3 4.65-.95m-5.3-3.8-.1.1.65-.15m-3.5 3.95.95 1.4 2.65-.55m-3.9-1.3.3.45m-1.85 1.45-.8 1.6-.75 1.2m1.8-20.75h-1.75m.7 19.55-3.35 1.35.3 6.1 10.85 5.4 13.4-1.9.4-.7m-28.8 33.6.3 5.7.1-.2 1.3-4.25.05-.1.15-.55m34.8-17.25.3.5M12.3 121l5.6.2 3.05 1.35M24 148l.4-.6v-.05l.9-1.5m-8.45 5.65-3.05 5.1m2.85 2.4 4.65-7.1.55-.9m-1.65 19.9v4.15m6.7.5-2.25-1.15-1.9 2.6-.55.75m6.95-1.95.15-.5.7-1.45m2.45.8-.1-1.55m-5.35.35-.1 2.1v7.8l2.25-7.55 3.45 1.75-.15-2.9m-15.85.5-.25 1.8 2.55-5.4-.3 4 .95.45m-.95-.45-.1.9m48.25-7.35-.25-2.7m.6-1.9.8 2m-9.2 4.95.1-4.7m-5.4 1.6.8 3.2 2.7 10.95.05.1.45 1.8m2.05-17 1.25 5.9m-16.9-.8.15 1.05.25 2 .4 2.95.8 5.8.75-7.35L48 182.4l.2-2.75.1-1.4m-11.2-1 .25 1.7.7 4.7L39.5 179l1.45-4.6m-8.3 3.55-.05-.4m6.9 1.45 4.7-3.45m2.3 39.1 1.35.3 1.75 2.4-6.55 1.9 2.5 3.75-.05.95-.75 4.3 4.25.8 8.05-6.9 3.75-6.9-1.45-.85-2.05-.4m-28-10.4 3.3-1 .3-3.4-2.05.25m5.15.3-.8-4.45-2.15-11.85m9.3 36.05-.25.05-6.05-6.3.15-.75 1-6.15-.2-1.3-2.4 1.95-4.25-.3m5.65-6.95 1 5.3m11.2-25.4 6-8.1m-1.9 40.75.15 1.8.75 1.7m1.2 20.2 1.5-.35 1.7-1.45m-12.05-19.8.95.25m-3.45 4.6-.7.25-2.75 2.75-5.5-1.45m8.7 9.6-.65-2.2 1.95-3.75 1.4-.5m-1.8 9.2-.9-2.75m4.75 6.9.6.05L54.4 236m1.6 16h.75l5.55-3.85 1.3-.75.45-1.7.35-1.4m-1.4-1.7.25 3.45m-13.15-5.1 3.6-.15 6.1-2.65m-9.5 5.1h2.4l6.95-1.95m-9.5 7.75 2.4-.2M56 252l-5.3-.2m1.3 25.8h.5m-23.6-2-.1.2-3.4 1.2-.35 2.15-.15.7m8.2.3-.05-.1-.15-.85 1.45-1 .25-.2 1-1.9.15-.3 2.3-1.6m-7.6-1.05-.75.15-.8 2.25v.05m1.55-2.45 3.85-.75m-12.2 1.8 1.65 1.45 2.95-1m20.6 4.9.4 3.25.65.05m-8.7-4.7-4.2.05m5.65.3v-.4m-8 2.05.3 1.95m6.7-.05.15 1m7-4 .05.5m2.7-5.65-1.7 1.45v2l-1.15 1.15.1.55M44 278.1l-.8-.25m-1.85-.6-.25.4v.45m.85-1.9-.6 1.05m-.25 1.25v1.45l-.15.15-1 1 .15.95m3.9-3.95 1.3-.2m4.25-.3H52m-24.85 1 4.55.45m20-165.4-.95 2.75M75 91.8l-5 1.25m-10.65-80.9 13.9-7.6m-4.7 144.1 2.35 8.85"/><path stroke-width=".05" stroke-linejoin="round" stroke-linecap="round" stroke="#455b70" fill="none" d="m118.7 56.75-1.5.15m10.7-9.9.5-.3m25.3 5.45-.15.3-6 5.15-9.9 11.3-3.7 2.15m-14.4-14.4 9.3-1.2-.05-.2 5.05-7.5.45-.9m0-.15h-5.9m-8.85 9.95-.85.1m35.2-11.1 2.15-4.05-4.7-.8h-.2l-3.85-.6-3.1 1.5-5.35 2.65-4.35 2.15-.1.2h-.1m-9.5 24.65-.95-.5m-1.9-1.65.25-3.2m-.4 3.3 2.05 1.55m32.2-29.25.6-1.15 2.45-4.6m-5.2 9.8-6.35 11.95"/><path stroke-width=".05" stroke-linejoin="round" stroke-linecap="round" stroke="#662f06" fill="none" d="m94.1 86.9-2.45.25M90.55 80l-1.65-.5-1.2.15v.05m1.4 4.2 1.3-.5 3.3.5"/><path stroke-width=".05" stroke-linejoin="round" stroke-linecap="round" stroke="#954409" fill="none" d="m86.15 99.85.15-.1m.1 0h-.1m4.75.15h.2m-13.1 12.65-6.2.55m-4.8 3.05 6.05.35m2.95-7.3q3.45-.6 5 .5m-1.7-3.6h2.75l1.9.75M83 102.8q3.35-.65 4.7.6m-1.3-3.65 4.65.15m-22.6 19.95.35.05m-5.95-1.2q5.45-.8 5.6 1.15m-12 5.9 1.95 1.1m5.2-3.65-3.15-.95-2.4-.65-.35-.1m-4.1 2.75 2.85 1.5m-6.8 3.55 1.1 1.65m-1.1-1.65-.45-1.25 1.15-2.05m-7.25-.2 2.5.05m.4 1.25.25-.1m-.25.1-2.5 1.7-1 2.25"/><path stroke-width=".05" stroke-linejoin="round" stroke-linecap="round" stroke="#e6c273" fill="none" d="m33.4 34.9 5.4 4m5.6-.2 1.6 1.2m-7.4-5.4 4.2 3m-4.4-1.6 1.8 1.4"/><path stroke-width=".05" stroke-linejoin="round" stroke-linecap="round" stroke="#3a80b1" fill="none" d="m50.15 75.2-.35-2.7-4-11.6-4.2-7.8M24.15 39.15l.15.05 2.5 10.9 2.4 5m5.55 30.55L29.2 76.7m5.7 9.25-.15-.3m16.5-5.9-.1-.4-.5-2.3M27.2 39.95l1.4 4.75m21.55 30.5.05.7"/><path stroke-width=".05" stroke-linejoin="round" stroke-linecap="round" stroke="#7b5a33" fill="none" d="M56.25 58.35h-.05m.05 0L52 49.1l-6-6.8M19.7 31.15l6.9-.85 6.8 2.4m-17.05.5 7.1-1.6 3.95.7"/><path stroke-width=".05" stroke-linejoin="round" stroke-linecap="round" stroke="#2b6280" fill="none" d="m11.9 46.5.05-.55m29.75 48.5-2.5-2.55-4.3-5.95m16.35-6.25 1.35 8.7m-1.45-9.05.1.35"/><path stroke-width=".05" stroke-linejoin="round" stroke-linecap="round" stroke="#255e72" fill="none" d="m15.85 69.3.35 1.2m-.65-2.15.3.95m-.3-.95-1.6-5.05-2.05-16.8"/></g><path fill-rule="evenodd" fill-opacity="0" fill="#f0f" d="M0 0h102.95v45H0V0" id="a"/><use xlink:href="#a" width="102.95" height="45" id="d"/></defs><path fill="none" d="M-1-1h155v272H-1z"/><use x="68.733" y="238.549" xlink:href="#b" width="381" transform="translate(-192.55 -294)" height="381"/><use x="73.859" y="256.339" xlink:href="#c" width="162.05" transform="translate(-67.878 -237.353) scale(.9306)" height="286.65"/><use x="-68.237" y="-33.227" xlink:href="#d" width="102.95" transform="matrix(1.8072 0 0 1.6538 70.4 87.3)" height="45"/></svg>