<svg width="168" height="267" xmlns="http://www.w3.org/2000/svg" xmlns:xlink="http://www.w3.org/1999/xlink"><defs><g id="c" stroke-opacity="0" stroke-linejoin="round" stroke-linecap="round" stroke="#f0f" fill="none"><path d="M187.95-293.5v380h-380v-380h380M92.95.6H-97" transform="translate(192.55 294)"/><path d="m187.95-293.5-190 190 190 190m-380-380 190 190L-192 86.5" transform="translate(192.55 294)"/></g><g id="d"><path stroke-width="1.75" stroke-linejoin="round" stroke-linecap="round" stroke="#21170e" fill="none" d="m62.5 9.7-1.2 1.45-.9 1.05-1.25 1.55-.8.95m6.1 0 .85-1.1.35-.5.7-.9 1.8-2.2.25-.3"/><path stroke-width="1.5" stroke-linejoin="round" stroke-linecap="round" stroke="#21170e" fill="none" d="m68.4 9.7 1.7-1.95 1.95-2.1.4.35M70.4 3.7 67.25 6 64.8 7.1l-.6.65-1.7 1.95"/><path stroke-width="2.5" stroke-linejoin="round" stroke-linecap="round" stroke="#21170e" fill="none" d="m58.35 14.7-2.75 3.5-3.65 4.85q-1.9 2-2.25 2.05l-.7.65-.45.45m9.75 0 .15-.45.1-.25L60 21.9q1.7 0 1.1-2.7l.85-.95.05-.05.7-1 1.75-2.5"/><path stroke-width="3.25" stroke-linejoin="round" stroke-linecap="round" stroke="#21170e" fill="none" d="M48.55 26.2q-2.5 2.5-1.85 4.05l-.65 1.55-3.8 8q-1.5 3-3.15 5.95m12.4 0 .8-2.55 2.8-8.4 3.2-8.6"/><path stroke-width="3.5" stroke-linejoin="round" stroke-linecap="round" stroke="#21170e" fill="none" d="m39.1 45.75-.85 1.6-1.05 1.8q-3.95 6.5-9 12.2l-2.65 3.85q-.9 1.6-1 2.85v.7m24.85 0 .05-2.15.1-.05q2.5-.9.05-5.95-.7-1.65-1.5-2.8 3.15-.7 1.1-4.2l2.3-7.85"/><path stroke-width="3.75" stroke-linejoin="round" stroke-linecap="round" stroke="#21170e" fill="none" d="M24.55 68.75q.05 2.25 2 4.35l-1.85 3.15q-1.35 2.2-1.65 3.5-.4 1.5.55 1.9l.9.15-.75 10.75-2.15 1.2m28.5 0q-.5-6.9-.65-14l-.1-8.8.05-2.2"/><path stroke-width="4" stroke-linejoin="round" stroke-linecap="round" stroke="#21170e" fill="none" d="m21.6 93.75-1.35 1L18.2 97l-1.85 3-.95 2.6-2 .1q-5.25.6-8.7 4.8-1.5 2-2.15 4.15l-.5 2.5.05 2.95q.6 5.25 4.8 8.55 4.3 3.4 9.6 2.8l1.85-.35-1.85 7.95-.55 2.1L14 145.4l-.2.65-.6 1.95q-1.45.75-1.8 1.65l-.1.65q0 2.55 7.35 4.85l2.1.6 5.1 1.15 10.65 1.2q6.8.45 12.3 0l5.5-.7q7.4-1.35 7.4-3.9l-.15-.75-.3-.5-.1-.15-1.4-1.15v-.05l-.55-2.2-.15-.6q-5.1-21.35-7.4-39l-.4-3q-.75-6.1-1.15-12.35"/><path fill-rule="evenodd" fill="#4b401b" d="m-45.25 90.2 3-2.8L-47 76.3l1.45-2.6 2.8.6-.15 4.55 4.1 7.65 6.05 2.7-1.55 3.15-18.15.7-1.05-1.6 8.25-1.25m-2.95-26.75h.1l.75.1.65 1.8-1.9 1.7.6 1.6-1.6 1.25h-.05l-3.05-2.65v-2.4l2-1.5.9-5.8 4.55-2.9 2.2 1.45-5.15 3.65v3.7" transform="translate(58.2 71.05)"/><path fill-rule="evenodd" fill="#72672c" d="M-6.25-48q3.8-5.2 7.2-9.3l2.15-2.6 3.5-4.05 2.45-1.1q6.95-3.1 5.2-.8l-.1.15-4.2 4.65-2.5 3.1-.35.5-4.35.5q-3.75 2.75-1.1 2.1l2.85 1-.75 1.05-.85.95q.35-.85-.5-1.85-.9-1-8.65 5.7 7.75-6.7 8.65-5.7.85 1 .5 1.85.6 2.7-1.1 2.7l-1.45 3.6q-2.25-4.35-11.3 5l-1.2 1.3.65-1.55q-.75-1.85 3-5.15.35-.05 2.25-2.05m22-21.1 3.7-1.35q3.2.25 2.25.65-1.8.5-3.5 1.3l-1.15.55-1.85.55-1.55-.8 2.1-.9M1.6-52.65l.5.35-.5-.35m-17.55 21.4q14.85-18.95 12.85-5l-2.8 8.4q.25-4.85-15.1 5.95l1.05-1.8 4-7.55m2.75 15.65q-2.85-.8-6.65 2.4-5.05 4.15-11.8 15.25-2.25-2.4-2-5.05.1-1.25 1-2.85 4.95-5.9 12-10.6l.6-.4q7.3-1.15 6.85 1.15v.1" transform="translate(58.2 71.05)"/><path fill-rule="evenodd" fill="#b9a746" d="m4.5-53.85-2.85-1q-2.65.65 1.1-2.1l4.35-.5-2.6 3.6m-4.15 8.3-3.45 9.3q2-13.95-12.85 5l3.8-8 1.2-1.3q9.05-9.35 11.3-5m-6.25 17.7L-9-17.45q2.05 3.5-1.1 4.2l-.35-.4q-1.25-1.55-2.75-1.95v-.1q.45-2.3-6.85-1.15l-.6.4q-7.05 4.7-12 10.6L-30-9.7q5.05-5.7 9-12.2 15.35-10.8 15.1-5.95M-9.2-17.8l.2.35-.2-.35" transform="translate(58.2 71.05)"/><path fill-rule="evenodd" fill="#413a18" d="m14.15-65.7.1-.15q1.75-2.3-5.2.8 3-2.3 5.45-3.8l1.25-.25-2.1.9 1.55.8 1.85-.55 1.15-.55-4.05 2.8" transform="translate(58.2 71.05)"/><path fill-rule="evenodd" fill="#dfdf68" d="M-19.25-10.6q-6.15 5.1-.6-2.6 3.8-3.2 6.65-2.4 1.5.4 2.75 1.95 1.75 4.8-1.4 2.55-2.8-3.6-7.4.5" transform="translate(58.2 71.05)"/><path fill-rule="evenodd" fill="#a2923e" d="M-10.1-13.25q.8 1.15 1.5 2.8 2.45 5.05-.05 5.95l-2.9-6.2-.3-.4q3.15 2.25 1.4-2.55l.35.4m-9.75.05q-5.55 7.7.6 2.6-2.25 2-4.95 5.8l-10.4 15.4q-1.75-.8 1.1-5.4l1.85-3.15q6.75-11.1 11.8-15.25" transform="translate(58.2 71.05)"/><path fill-rule="evenodd" fill="#6c5e2b" d="m-8.65-4.5-.1.05-.1 4.35q-1.75-8.65-6.4-7.9-5.85 2.8-9.1 10.75l-10.85 26.1q1.05-9.05 1.5-18.1l-.9-.15 10.4-15.4q2.7-3.8 4.95-5.8 4.6-4.1 7.4-.5l.3.4 2.9 6.2M-37.5 44.85l18.4 3.65-16.85 26.3-1 .1-2.6.4q-3.65.7-5.45 1.65l.6-1.95.2-.65 1.95-7.25.55-2.1q2.45-10.1 4.2-20.15" transform="translate(58.2 71.05)"/><path fill-rule="evenodd" fill="url(#a)" d="M-8.85-.1q-.1 18.1 1.9 35.15 2.25 18.8 7.8 42l.15.6.55 2.2H1.5h.05v.05l-.05-.05Q-.35 78.7-3.9 77.6q-1.45-.5-3-.85-3.55-.9-7.7-1.45l-7.1-.65q-8-.55-14.25.15l16.85-26.3-18.4-3.65q1.4-8 2.3-16l10.85-26.1Q-21.1-5.2-15.25-8q4.65-.75 6.4 7.9m-5.6 75.05-.15.35.15-.35m9.75-.15-2.2 1.95 2.2-1.95" transform="translate(58.2 71.05)"/><path fill-rule="evenodd" fill="#514a28" d="M-35.95 74.8q6.25-.7 14.25-.15l7.1.65-1.1 2.5 1.1-2.5q4.15.55 7.7 1.45l-2.75 2.6 2.75-2.6q1.55.35 3 .85 3.55 1.1 5.4 2.25l-8.85.75 8.85-.75.05.05 1.4 1.15.4.65.15.75q0 2.55-7.4 3.9l-5.5.7q-5.5.45-12.3 0l-10.65-1.2-5.1-1.15-2.1-.6q-7.35-2.3-7.35-4.85l.1-.65q.35-.9 1.8-1.65 1.8-.95 5.45-1.65l2.6-.4 1-.1m20.25 3-6-.7q-4.8-.3-8.5.1l-.55.05-1.55.25q-2.2.4-3.25 1-.85.4-1.05.95l-.1.4q0 1.2 2.75 2.3l1.65.6 1.45.4-1.5 2.7 1.5-2.7 9.15 1.35 9.55-.25 1.05-.2q4.4-.8 4.4-2.3l-.1-.45-.25-.4-.3-.3-.5-.4-1.8-.85-1.45-.5-1.8-.5-2.8-.55m-21.75 6.9 3.5-2.55-3.5 2.55m28.05 2.35-2.75-2.8 2.75 2.8" transform="translate(58.2 71.05)"/><path fill-rule="evenodd" fill="#2f2413" d="M-33.95 82.15q-2.75-1.1-2.75-2.3l.1-.4q.2-.55 1.05-.95 1.05-.6 3.25-1l1.55-.25.55-.05q3.7-.4 8.5-.1l6 .7 2.8.55 1.8.5 1.45.5 1.8.85.5.4.3.3.25.4.1.45q0 1.5-4.4 2.3l-1.05.2-.95-.9.95.9-9.55.25-9.15-1.35-1.45-.4-1.65-.6 1-.7-1 .7m17.85-3.55.4-.8-.4.8m5.75 1.35.7-.6-.7.6m3 .65-1.5.1 1.5-.1" transform="translate(58.2 71.05)"/><path fill-rule="evenodd" fill="#6c5437" d="m2.95 81.05.1.15.3.5-.4-.65" transform="translate(58.2 71.05)"/><path stroke-linejoin="round" stroke-linecap="round" stroke="#453c1b" fill="none" d="m9.05-65.05-2.45 1.1-3.5 4.05-2.15 2.6q-3.4 4.1-7.2 9.3 7.75-6.7 8.65-5.7.85 1 .5 1.85l.85-.95.75-1.05 2.6-3.6.35-.5 2.5-3.1 4.2-4.65.1-.15q1.75-2.3-5.2.8" transform="translate(58.2 71.05)"/><path stroke-width="1.25" stroke-linejoin="round" stroke-linecap="round" stroke="#261e15" fill="none" d="M67.25 6q3-2.3 5.45-3.8l1.25-.25L77.65.6q3.2.25 2.25.65-1.8.5-3.5 1.3l-4.05 2.8m1.6-3.4-2.1.9 1.55.8 1.85-.55 1.15-.55"/><path stroke-width="1.25" stroke-linejoin="round" stroke-linecap="round" stroke="#554d1e" fill="none" d="M58.55 25.5 60 21.9q1.7 0 1.1-2.7m-6 15.6 3.45-9.3m-12.5 6.3-3.8 8-4 7.55-1.05 1.8q-3.95 6.5-9 12.2l-2.65 3.85q-.9 1.6-1 2.85-.25 2.65 2 5.05M55.1 34.8l-2.8 8.4-3.1 10.4m2.75-30.55q-1.9 2-2.25 2.05-3.75 3.3-3 5.15l-.65 1.55"/><path stroke-linejoin="round" stroke-linecap="round" stroke="#c9bd3a" fill="none" d="m2.1-52.3-.5-.35" transform="translate(58.2 71.05)"/><path stroke-linejoin="round" stroke-linecap="round" stroke="#53442d" fill="none" d="M-9-17.45q2.05 3.5-1.1 4.2.8 1.15 1.5 2.8 2.45 5.05-.05 5.95l-.1.05-.1 4.35q-.1 18.1 1.9 35.15 2.25 18.8 7.8 42l.15.6 1.2 2.15.75 1.25.1.15.3.5-.4-.65-1.4-1.15v-.05L1 77.65m-11.45-91.3q-1.25-1.55-2.75-1.95-2.85-.8-6.65 2.4-5.05 4.15-11.8 15.25L-33.5 5.2q-2.85 4.6-1.1 5.4m24.15-24.25.35.4m1.1-4.2-.2-.35m-26 46.65q1.05-9.05 1.5-18.1l-.9-.15m-.6 18.25q-.9 8-2.3 16M-44.4 75l.2-.65 1.95-7.25.55-2.1q2.45-10.1 4.2-20.15M-44.4 75l-2.7 3.6" transform="translate(58.2 71.05)"/><path stroke-linejoin="round" stroke-linecap="round" stroke="#2f2413" fill="none" d="m3.35 81.7.15.75q0 2.55-7.4 3.9l-5.5.7q-5.5.45-12.3 0l-10.65-1.2-5.1-1.15-2.1-.6q-7.35-2.3-7.35-4.85l.1-.65q.35-.9 1.8-1.65" transform="translate(58.2 71.05)"/><path stroke-opacity=".49" stroke-linejoin="round" stroke-linecap="round" stroke="#2f2413" fill="none" d="m2.2 79.8.95-.1m-17.75-4.4.15-.35m-1.25 2.85 1.1-2.5m-17.75 10.55 1.5-2.7m-3.1-1-3.5 2.55m4.5-3.25-1 .7m24.3-2.8 2.75-2.6m8.4 3.1h.05l.65-.05m-17.9-2-.4.8m3.95 5.65 2.75 2.8m2.05-6.45 8.85-.75m-11.15-.5-.7.6m1.5.75 1.5-.1m-4.8 3.65-.95-.9" transform="translate(58.2 71.05)"/><path stroke-linejoin="round" stroke-linecap="round" stroke="#1e150d" fill="none" d="m-7.05 80.9.25.4" transform="translate(58.2 71.05)"/><path stroke-width="1.25" stroke-linejoin="round" stroke-linecap="round" stroke="#6c5e2b" fill="none" d="m51.3 147.8 2.2-1.95"/></g><g id="e"><path fill-rule="evenodd" fill="#6e7f27" d="m18.3-.3.35 3.85-4.6 1.75 4.05 2.9q-.75 2.95-2.4 5.5-3.15 5.65-7.1 9.9-2.6 2.75-5.55 4.9.8-9.2-2.2-15.7l4-1.2-6.8-2.2q-.3-1.7-1.8-3.15 1.5-9.6-4.15-11.8 5.05.5 8.6 3.95l1.7-2.8Q6-9.35 11.6-9.95l4.15 5.25q-6 1.4-8.85 5.9Q13-.65 18.3-.3M1.9-1.15.7-1.6l1.2.45m4.7 21.4q1.4-4.3 1.75-9.7-.7-6.35-4.3-9.5 3.6 3.15 4.3 9.5-.35 5.4-1.75 9.7" transform="translate(8.4 10.45)"/><path stroke-linejoin="round" stroke-linecap="round" stroke="#505d18" fill="none" d="M18.1 8.2q-.75 2.95-2.4 5.5-3.15 5.65-7.1 9.9m-6.2-28Q6-9.35 11.6-9.95l4.15 5.25q-6 1.4-8.85 5.9m-2.85-.15q3.6 3.15 4.3 9.5-.35 5.4-1.75 9.7" transform="translate(8.4 10.45)"/><path stroke-linejoin="round" stroke-linecap="round" stroke="#473c19" fill="none" d="m.7-1.6 1.7-2.8M.7-1.6l1.2.45" transform="translate(8.4 10.45)"/><path stroke-linejoin="round" stroke-linecap="round" stroke="#3a4410" fill="none" d="m4.85 11.6-6.8-2.2M-7.9-5.55q5.05.5 8.6 3.95" transform="translate(8.4 10.45)"/><path stroke-linejoin="round" stroke-linecap="round" stroke="#abce1e" fill="none" d="M3.05 28.5q.8-9.2-2.2-15.7m-2.8-3.4q-.3-1.7-1.8-3.15 1.5-9.6-4.15-11.8" transform="translate(8.4 10.45)"/><path stroke-width="1.25" stroke-linejoin="round" stroke-linecap="round" stroke="#abce1e" fill="none" d="m26.7 10.15.35 3.85-4.6 1.75M17 34.05q-2.6 2.75-5.55 4.9"/></g><g id="f"><path fill-rule="evenodd" fill="#626a20" d="M-.7-3.95q1.6-6 6.35-8.5L10.9-8.8Q6.05-5.4 4.95-.05 9.7-3.95 14.5-5.4l1.45 3.55-3.45 3.3 4.45 1.4q.25 3.05-.4 6.1-1 6.55-3.15 12-1.45 3.55-3.35 6.6-2.15-9.15-6.8-14.4l3.15-2.5-6.7.2q-.75-1.5-2.55-2.4-1.65-9.8-7.25-10 4.55-1.25 8.75.85l.65-3.25M10.6 18.4q-.1-4.65-1.45-9.95-2.6-5.9-6.75-7.7 4.15 1.8 6.75 7.7 1.35 5.3 1.45 9.95M-.15-.6l-1.2-.1 1.2.1" transform="translate(10.6 12.95)"/><path stroke-linejoin="round" stroke-linecap="round" stroke="#505d18" fill="none" d="M2.4.75q4.15 1.8 6.75 7.7 1.35 5.3 1.45 9.95" transform="translate(10.6 12.95)"/><path stroke-linejoin="round" stroke-linecap="round" stroke="#3a4410" fill="none" d="M-.7-3.95q1.6-6 6.35-8.5L10.9-8.8Q6.05-5.4 4.95-.05M14.5-5.4l1.45 3.55-3.45 3.3m4.45 1.4q.25 3.05-.4 6.1-1 6.55-3.15 12-1.45 3.55-3.35 6.6M6.4 10.65l-6.7.2m-9.8-12.4q4.55-1.25 8.75.85" transform="translate(10.6 12.95)"/><path stroke-linejoin="round" stroke-linecap="round" stroke="#abce1e" fill="none" d="M10.05 27.55q-2.15-9.15-6.8-14.4m-3.55-2.3q-.75-1.5-2.55-2.4-1.65-9.8-7.25-10" transform="translate(10.6 12.95)"/><path stroke-linejoin="round" stroke-linecap="round" stroke="#473c19" fill="none" d="m-1.35-.7.65-3.25M-1.35-.7l1.2.1" transform="translate(10.6 12.95)"/></g><g id="g"><path fill-rule="evenodd" fill="#6e7f27" d="m-.35-7.5-1.05-.3 1.15.25-.1.05" transform="translate(37.85 24.6)"/><path fill-rule="evenodd" fill="#626a20" d="m-11.7-19.2 2.05.7-2.05-.7m-1.5-1.3 2.9-2.9 3.35 1q-1.2 3.9-4.6 7.9 4.85-1.1 7.85-5.1l3.5 4.05q-2.15 3.85.5 8.2L-4.1-9.1l-1.95-.05q-1.25-.35-.2 0L-1.4-7.8l1.05.3q-8.4 1.3-9.35 5-.35-4.5-9.4-5.45-.95-1.4-2.35-1.95v-5.35l-2.25 2.6q-5.05-3.5-13.55-4.85 2.75-1.65 6-2.9 4.9-2 10.95-3.05l5.65-.55 1.45 3.5M-1.4-9.05l-2.7-.05 2.7.05M-6-14.7l1.35 1.85L-6-14.7m-22.8-3.6 9.2.8q5.55 1.8 7.4 5.1-1.85-3.3-7.4-5.1l-9.2-.8" transform="translate(37.85 24.6)"/><path stroke-linejoin="round" stroke-linecap="round" stroke="#505d18" fill="none" d="M.3-7.35q-2.65-4.35-.5-8.2l-3.5-4.05q-3 4-7.85 5.1m-.65 2.1q-1.85-3.3-7.4-5.1l-9.2-.8" transform="translate(37.85 24.6)"/><path stroke-linejoin="round" stroke-linecap="round" stroke="#dfe397" fill="none" d="m-9.65-18.5-2.05-.7m7.05 6.35L-6-14.7" transform="translate(37.85 24.6)"/><path stroke-linejoin="round" stroke-linecap="round" stroke="#473c19" fill="none" d="m-.35-7.5-1.05-.3-4.85-1.35q-1.05-.35.2 0l1.95.05 2.7.05m-4.85-.1h.2L-1.4-7.8l1.15.25m-.1.05.65.15" transform="translate(37.85 24.6)"/><path stroke-linejoin="round" stroke-linecap="round" stroke="#3a4410" fill="none" d="M-21.45-15.25v5.35M-9.7-2.5q.95-3.7 9.35-5m.1-.05-.1.05" transform="translate(37.85 24.6)"/><path stroke-width="1.25" stroke-linejoin="round" stroke-linecap="round" stroke="#abce1e" fill="none" d="m30.9 2.2-3.35-1-2.9 2.9M23.2.6l-5.65.55Q11.5 2.2 6.6 4.2 3.35 5.45.6 7.1q8.5 1.35 13.55 4.85"/><path stroke-linejoin="round" stroke-linecap="round" stroke="#abce1e" fill="none" d="M-21.45-9.9q1.4.55 2.35 1.95 9.05.95 9.4 5.45" transform="translate(37.85 24.6)"/></g><g id="h"><path fill-rule="evenodd" fill="#9e9354" d="M-6.05 1.05-6.15 0q-.2-2.8 1.5-4.7 1.7-2 4.25-1.95Q2.1-6.7 4.05-4.7l.25.3.1 1.05q.15 2.75-1.5 4.7Q1.2 3.3-1.35 3.3T-5.8 1.35l-.25-.3M-.1-3.3q.95-1.2-.1-1.9 1.05.7.1 1.9m-1.7 4.75Q-.8 1.9.25 0-.8 1.9-1.8 1.45M-4.9-1q1.7-.2.75-1.75Q-3.2-1.2-4.9-1" transform="translate(6.65 7.15)"/><path fill-rule="evenodd" fill="#766d3f" d="M4.3-4.4Q5.95-2.55 6.1 0q.15 2.75-1.55 4.7-1.7 1.95-4.2 1.95-2.55 0-4.45-1.95-1.55-1.6-1.95-3.65l.25.3Q-3.9 3.3-1.35 3.3q2.55 0 4.25-1.95Q4.55-.6 4.4-3.35L4.3-4.4" transform="translate(6.65 7.15)"/><path stroke-linejoin="round" stroke-linecap="round" stroke="#2f2b1a" fill="none" d="M4.3-4.4Q5.95-2.55 6.1 0q.15 2.75-1.55 4.7-1.7 1.95-4.2 1.95-2.55 0-4.45-1.95-1.55-1.6-1.95-3.65" transform="translate(6.65 7.15)"/><path stroke-linejoin="round" stroke-linecap="round" stroke="#57532d" fill="none" d="M-4.15-2.75Q-3.2-1.2-4.9-1M.25 0Q-.8 1.9-1.8 1.45M-.2-5.2q1.05.7.1 1.9" transform="translate(6.65 7.15)"/><path stroke-linejoin="round" stroke-linecap="round" stroke="#474225" fill="none" d="M-6.05 1.05-6.15 0q-.2-2.8 1.5-4.7 1.7-2 4.25-1.95Q2.1-6.7 4.05-4.7l.25.3-10.35 5.45z" transform="translate(6.65 7.15)"/></g><g id="i"><path fill-rule="evenodd" fill="#c8c7b7" d="m1.4-3.9.75.55Q3.2-2.3 3.2-.8l-.05.8q-.25.9-1 1.65Q1.1 2.7-.35 2.75q-1.45-.05-2.5-1.1Q-3.6.9-3.8 0l-.1-.8.1-.9.85-1.25Q-1.7-4.15 0-4.15l1.4.25" transform="translate(4.25 4.25)"/><path fill-rule="evenodd" fill="#a09a76" d="m-3.8-1.7-.1.9.1.8q.2.9.95 1.65 1.05 1.05 2.5 1.1 1.45-.05 2.5-1.1Q2.9.9 3.15 0l.05-.8q0-1.5-1.05-2.55L1.4-3.9l1.5.95q.9.9 1.15 2l.1.95q0 1.7-1.25 2.9Q1.7 4.15 0 4.15T-2.95 2.9q-1.2-1.2-1.2-2.9l.1-.95.25-.75" transform="translate(4.25 4.25)"/><path stroke-width=".25" stroke-linejoin="round" stroke-linecap="round" stroke="#4b5140" fill="none" d="M.45 2.55.2 3.3l-.1.95q0 1.7 1.2 2.9Q2.55 8.4 4.25 8.4q1.7 0 2.9-1.25 1.25-1.2 1.25-2.9l-.1-.95q-.25-1.1-1.15-2L5.65.35 4.25.1Q2.55.1 1.3 1.3L.45 2.55z"/><path fill-rule="evenodd" d="M1.4-.05q0 .55-.4 1-.4.4-.95.4-.6 0-1.05-.4l-.35-1q0-.55.35-.95.45-.4 1.05-.4.55 0 .95.4.4.4.4.95" transform="translate(4.25 4.25)"/><path fill-rule="evenodd" fill="#fff" d="M.95-1.05Q.6-1.4.05-1.4q-.6 0-1.05.4l-.3.6-.3-.2q-.35-.45-.3-1.1.05-.6.5-1 .5-.35 1.1-.35.65.05 1 .5l.35 1.1-.1.4" transform="translate(4.25 4.25)"/><path fill-rule="evenodd" fill="#6c5437" d="M-1.3-.4-1-1q.45-.4 1.05-.4.55 0 .9.35l-.4.6Q.1-.1-.55-.2l-.75-.2" transform="translate(4.25 4.25)"/></g><g id="j"><path stroke-width="1.25" stroke-linejoin="round" stroke-linecap="round" stroke="#312c11" fill="none" d="M13.95 100.35q1.9-.05 3.75.6"/><path stroke-width="1.25" stroke-linejoin="round" stroke-linecap="round" stroke="#161207" fill="none" d="M3.3 99.85.9 103.1l3 2.1q5.15-4.75 10.05-4.85l-10.65-.5z"/><path stroke-opacity=".212" stroke-linejoin="round" stroke-linecap="round" stroke="#47391d" fill="none" d="M-18.6-20.15q4.95-8.35 7.7-17.45" transform="translate(41.65 38.1)"/><path stroke-opacity=".392" stroke-linejoin="round" stroke-linecap="round" stroke="#47391d" fill="none" d="m-20.5-13.2-2.4-2.6 1.2-3.4 3.1-.95M-24.1-5.8l2.6 2.6m-.4 0-.4 15.4M-38.7 75l-2.45-2.1.65-5.3m10.6-4.8-1.2-2.4 3.05-2.75.75-6.85m12.6.9-.2-4m10.2 26.9q-4.95-20.6-6-42" transform="translate(41.65 38.1)"/><path stroke-opacity=".49" stroke-linejoin="round" stroke-linecap="round" stroke="#47391d" fill="none" d="m-14.1 75.2.6-3-1-15.4" transform="translate(41.65 38.1)"/><path fill-rule="evenodd" fill="#27210e" d="m-3.2 37.6 8-5.8 3.55 7.55 1.7-.25L12 44.4l-2 1.65-.85 3.35-2.1.2-.95-3-2.7-2.65 2.4-3.4-2.65-4.2-5.35 3.75-4.95 7.8-1.8-9.55 5.75-.75m16.35 33-4.4 14.45L20 90.25l9.25 1-.55 1.85-27.15.35-1-1.25L3 87.25l2.65-2.5L10.3 71.8l-2.15-3.2-11 8.3-1.95-8.8 3.9.95L10 64.5l3.15 6.1" transform="translate(41.65 38.1)"/><path stroke-linejoin="round" stroke-linecap="round" stroke="#1e150d" fill="none" d="m-3.2 37.6-5.75.75" transform="translate(41.65 38.1)"/></g><linearGradient y2="1.036" y1=".073" x2=".375" x1=".652" spreadMethod="pad" id="a"><stop stop-color="#a2923e" offset="0"/><stop stop-color="#caad4d" offset="1"/></linearGradient><path fill-rule="evenodd" fill-opacity="0" fill="#f0f" d="M0 0h102.95v45H0V0" id="b"/><use xlink:href="#b" width="102.95" height="45" id="k"/></defs><path fill="none" d="M-1-1h170v269H-1z"/><use x="91.394" y="238.576" xlink:href="#c" width="381" transform="translate(-192.55 -294)" height="381"/><use x="-63.734" y="166.371" xlink:href="#d" width="80.7" transform="matrix(-1.434 0 0 1.434 74.508 -208.385)" height="164.1"/><use x="-63.734" y="166.371" xlink:href="#e" width="27.65" transform="matrix(-1.434 0 0 1.434 -26.305 -214.535)" height="39.55"/><use x=".843" y=".276" xlink:href="#f" width="28.1" transform="matrix(-.2671 -1.517 -1.3797 .2429 63.448 41.123)" height="41"/><use x="-63.734" y="166.371" xlink:href="#g" width="38.65" transform="matrix(-1.434 0 0 1.434 15.927 -234.826)" height="22.6"/><use x="1.087" y="-2.55" xlink:href="#h" width="13.25" transform="matrix(-.8903 -.1417 -.1417 .8903 66.53 30.975)" height="14.3"/><use xlink:href="#h" width="13.25" transform="matrix(-1.0769 -.1714 -.1714 1.0769 57.83 34.166)" height="14.3"/><use x=".183" y="-.387" xlink:href="#i" width="8.5" transform="scale(-4.4822 4.4822) rotate(-6.858 318.54 329.695)" height="8.5"/><use x="3.6" y="47.947" xlink:href="#i" width="8.5" transform="matrix(-4.8056 2.2669 2.2669 4.8056 41.94 -85.658)" height="8.5"/><use x="-63.734" y="166.371" xlink:href="#j" width="70.9" transform="matrix(-1.434 0 0 1.434 50.776 -161.135)" height="131.55"/><use x="39.215" y="111.866" xlink:href="#k" width="102.95" transform="matrix(2.3306 0 0 2.1327 -108.9 -97.65)" height="45"/></svg>