<svg width="206" height="207" xmlns="http://www.w3.org/2000/svg" xmlns:xlink="http://www.w3.org/1999/xlink"><defs><linearGradient y2=".5" y1=".5" x2=".998" x1=".003" spreadMethod="pad" id="g"><stop stop-color="#343965" offset="0"/><stop stop-color="#448" offset="1"/></linearGradient><linearGradient y2=".501" y1=".501" x2=".997" x1="-.003" spreadMethod="pad" id="h"><stop stop-color="#7c7dbe" offset="0"/><stop stop-color="#6f95cc" offset="1"/></linearGradient><linearGradient y2=".5" y1=".5" x2=".998" x1=".003" spreadMethod="pad" id="i"><stop stop-color="#fd8002" offset="0"/><stop stop-color="#fd6602" offset="1"/></linearGradient><linearGradient y2=".499" y1=".499" x2=".997" x1="-.001" spreadMethod="pad" id="j"><stop stop-color="#7c7dbe" offset="0"/><stop stop-color="#6f95cc" offset="1"/></linearGradient><linearGradient y2=".5" y1=".5" x2=".999" x1="-.003" spreadMethod="pad" id="k"><stop stop-color="#fd8002" offset="0"/><stop stop-color="#fd6602" offset="1"/></linearGradient><linearGradient y2=".5" y1=".5" x2="1.001" x1="-.001" spreadMethod="pad" id="l"><stop stop-color="#ffa41a" offset="0"/><stop stop-color="#fbb81e" offset="1"/></linearGradient><linearGradient y2=".5" y1=".5" x2=".998" x1="0" spreadMethod="pad" id="m"><stop stop-color="#ffa41a" offset="0"/><stop stop-color="#fbb81e" offset="1"/></linearGradient><linearGradient y2=".5" y1=".5" x2="1" x1="-.002" spreadMethod="pad" id="n"><stop stop-color="#fd8002" offset="0"/><stop stop-color="#fd6602" offset="1"/></linearGradient><linearGradient y2=".5" y1=".5" x2="1" x1="-.003" spreadMethod="pad" id="o"><stop stop-color="#ffa41a" offset="0"/><stop stop-color="#fbb81e" offset="1"/></linearGradient><linearGradient y2=".499" y1=".499" x2=".999" x1=".001" spreadMethod="pad" id="p"><stop stop-color="#343965" offset="0"/><stop stop-color="#448" offset="1"/></linearGradient><linearGradient y2=".5" y1=".5" x2=".999" x1="-.001" spreadMethod="pad" id="q"><stop stop-color="#7c7dbe" offset="0"/><stop stop-color="#6f95cc" offset="1"/></linearGradient><linearGradient y2=".498" y1=".498" x2="1.001" x1="-.001" spreadMethod="pad" id="r"><stop stop-color="#fff" offset="0"/><stop stop-color="#f1ede2" offset="1"/></linearGradient><linearGradient y2=".5" y1=".5" x2="1" x1=".002" spreadMethod="pad" id="s"><stop stop-color="#ffa41a" offset="0"/><stop stop-color="#fbb81e" offset="1"/></linearGradient><linearGradient y2=".497" y1=".497" x2="1" x1="0" spreadMethod="pad" id="t"><stop stop-color="#7982c1" offset="0"/><stop stop-color="#7982c1" offset="1"/></linearGradient><linearGradient y2=".5" y1=".5" x2="1" x1="0" spreadMethod="pad" id="u"><stop stop-color="#fd8002" offset="0"/><stop stop-color="#fd6602" offset="1"/></linearGradient><linearGradient y2=".5" y1=".5" x2="1.001" x1="-.005" spreadMethod="pad" id="v"><stop stop-color="#fd8002" offset="0"/><stop stop-color="#fd6602" offset="1"/></linearGradient><linearGradient y2=".5" y1=".5" x2=".999" x1=".001" spreadMethod="pad" id="w"><stop stop-color="#fff" offset="0"/><stop stop-color="#f1ede2" offset="1"/></linearGradient><linearGradient y2=".5" y1=".5" x2=".998" x1="0" spreadMethod="pad" id="x"><stop stop-color="#9c9163" offset="0"/><stop stop-color="#919b64" offset="1"/></linearGradient><linearGradient y2=".499" y1=".499" x2="1" x1="0" spreadMethod="pad" id="y"><stop stop-color="#ded6ba" offset="0"/><stop stop-color="#dfdeb9" offset="1"/></linearGradient><linearGradient y2=".499" y1=".499" x2="1.001" x1=".001" spreadMethod="pad" id="z"><stop stop-color="#ded6ba" offset="0"/><stop stop-color="#dfdeb9" offset="1"/></linearGradient><linearGradient y2=".498" y1=".498" x2="1.004" x1="-.002" spreadMethod="pad" id="A"><stop stop-color="#ded6ba" offset="0"/><stop stop-color="#dfdeb9" offset="1"/></linearGradient><linearGradient y2=".499" y1=".499" x2="1" x1="0" spreadMethod="pad" id="B"><stop stop-color="#fff" offset="0"/><stop stop-color="#f1ede2" offset="1"/></linearGradient><linearGradient y2=".499" y1=".499" x2="1" x1="-.001" spreadMethod="pad" id="C"><stop stop-color="#4a2806" offset="0"/><stop stop-color="#470c05" offset="1"/></linearGradient><linearGradient y2=".5" y1=".5" x2=".997" x1="0" spreadMethod="pad" id="D"><stop stop-color="#4a2806" offset="0"/><stop stop-color="#470c05" offset="1"/></linearGradient><linearGradient y2=".5" y1=".5" x2=".996" x1="-.001" spreadMethod="pad" id="E"><stop stop-color="#77410b" offset="0"/><stop stop-color="#76600a" offset="1"/></linearGradient><linearGradient y2=".522" y1=".522" x2=".998" x1=".002" spreadMethod="pad" id="F"><stop stop-color="#343965" offset="0"/><stop stop-color="#448" offset="1"/></linearGradient><linearGradient y2=".499" y1=".499" x2=".999" x1="0" spreadMethod="pad" id="G"><stop stop-color="#300" offset="0"/><stop stop-color="#614b31" offset="1"/></linearGradient><linearGradient y2=".74" y1=".504" x2=".098" x1=".82" spreadMethod="pad" id="H"><stop stop-color="#300" offset="0"/><stop stop-color="#614b31" offset="1"/></linearGradient><linearGradient y2=".498" y1=".498" x2=".998" x1=".001" spreadMethod="pad" id="I"><stop stop-color="#900" offset="0"/><stop stop-color="#620000" offset="1"/></linearGradient><linearGradient y2=".5" y1=".5" x2="1" x1="-.001" spreadMethod="pad" id="J"><stop stop-color="#600" offset="0"/><stop stop-color="#3c0000" offset="1"/></linearGradient><linearGradient y2=".497" y1=".497" x2=".999" x1="-.001" spreadMethod="pad" id="K"><stop stop-color="#343965" offset="0"/><stop stop-color="#448" offset="1"/></linearGradient><linearGradient y2=".5" y1=".5" x2="1" x1="0" spreadMethod="pad" id="L"><stop stop-color="#77410b" offset="0"/><stop stop-color="#76600a" offset="1"/></linearGradient><linearGradient y2=".5" y1=".5" x2="1.003" x1="-.003" spreadMethod="pad" id="M"><stop stop-color="#5a63ad" offset="0"/><stop stop-color="#4878bf" offset="1"/></linearGradient><linearGradient y2=".498" y1=".498" x2="1.002" x1="-.008" spreadMethod="pad" id="N"><stop stop-color="#5a63ad" offset="0"/><stop stop-color="#4878bf" offset="1"/></linearGradient><linearGradient y2=".5" y1=".5" x2="1.003" x1="-.003" spreadMethod="pad" id="O"><stop stop-color="#9c9163" offset="0"/><stop stop-color="#919b64" offset="1"/></linearGradient><linearGradient y2=".499" y1=".499" x2="1" x1="0" spreadMethod="pad" id="P"><stop stop-color="#4a2806" offset="0"/><stop stop-color="#470c05" offset="1"/></linearGradient><linearGradient y2=".5" y1=".5" x2=".995" x1=".005" spreadMethod="pad" id="Q"><stop stop-color="#77410b" offset="0"/><stop stop-color="#76600a" offset="1"/></linearGradient><linearGradient y2=".5" y1=".5" x2=".997" x1="-.001" spreadMethod="pad" id="R"><stop stop-color="#5a63ad" offset="0"/><stop stop-color="#4878bf" offset="1"/></linearGradient><linearGradient y2=".498" y1=".498" x2="1.001" x1="-.001" spreadMethod="pad" id="S"><stop stop-color="#343965" offset="0"/><stop stop-color="#448" offset="1"/></linearGradient><path fill-rule="evenodd" fill="url(#f)" d="M7.85 7.85Q4.6 11.1 0 11.1t-7.85-3.25Q-11.1 4.6-11.1 0t3.25-7.85Q-4.6-11.1 0-11.1t7.85 3.25Q11.1-4.6 11.1 0T7.85 7.85" transform="translate(11.1 11.1)" id="e"/><path stroke-opacity=".498" stroke-linejoin="round" stroke-linecap="round" stroke="#633a12" fill="none" d="M-61.3-50.6q-6.5 8.7-8.7 22.95l-.05.6q-.7 4.4-.95 9.35 1.95 7.1 12.65 10.2 1.85 14.65 8.05 22l-.8 2.15q-2.75 7.65-1.25 12.8 1.2 4.4 5.45 7 1.5 5.05 5.2 7.95-2.95 7.25-4.55 14.55l-1.25 7.2q.6.35 1.2.65 3.8 2 7.65 2.05l2.4-.6.3 1 7.7.85q6-.1 11.65-2.4V51.65q6.45-.25 13.8-3.75 6.2 1.5 11.85 1.25.8 6.2.45 11.8-.25 4.1-1.05 7.9l1.4.55q11.1 4.2 21.45.95l2.9-1.1.4-1.75 2.5.2q5-.4 5.95-3.1-.9-4.4-2.35-8.65l-2.5-6.5-3.4-6.75q7 0 12.75-5.2.6 3.6.5 6.95-.1 3.1-.8 6l.8.2 12.1.45q.05-2.65 1.75-.65l2.45-.3q3.8-.8 6.65-3.3-.55-3.8-1.65-7.35-1.9-6.25-5.35-11.65l-1.7-2.45q7.6-6.8 1.05-19.75Q61.85 2.7 59.6-.6q2.15-6.5-3.5-16.2l-.15.05v-.05h.1q3.3-2.95 4.3-8.65 2.6-15.25-5.65-30.95-1.45.8-1.7-1.05l-.5-2.35q-3.8-3.25-3.05 5.05.8 8.55-7.65 13.55-.8.25-2.1 1.15-1.3.9-3.2.35l-2.2.55q-1.5-1.95-4.85-1.6-7.6-4.65-14.45-2.7Q9.85-46 6.15-45.4q-1.4-.85-2.9-1.35-2.35-.85-4.8-.75Q-3-48.6-4.6-49.55q-2.75-1.35-5.85-.5l-.9.25-1.5.65-1.55-.55q3.25-8.95 12.25-15.2 1.95-.85-.45-3.15-4.8-4.55-5.95-3.5-7.7 9.85-10.65 21.65-2.25.3-4.85 1.2l-.6.2-2.9 1.15q-.95-1.2-4.95 0-2.95.2-5.65 1.15-8.05 2.7-13.75 11.45l-3.05-.05q-1.75 1.35-1.15-1.45-1.6-3.7-.1-15.55l-.35-.75q-.7 1.3-1.4-1-.25-.35-1.8 1.15l-1.55 1.8z" transform="translate(71.5 72.25)" id="d"/><path fill-rule="evenodd" fill-opacity="0" fill="#f0f" d="M102.95 45H0V0h102.95v45" id="T"/><use xlink:href="#c" width="22.2" transform="matrix(4.8014 0 0 1.3538 .005 .023)" height="22.2" id="a"/><use xlink:href="#e" width="22.2" height="22.2" id="c"/><use xlink:href="#T" width="102.95" height="45" id="W"/><g id="U" stroke-opacity="0" stroke-linejoin="round" stroke-linecap="round" stroke="#f0f" fill="none"><path d="M187.95-293.5v380h-380v-380h380M92.95.6H-97" transform="translate(192.55 294)"/><path d="m187.95-293.5-190 190 190 190m-379.95 0 189.95-190-190-190" transform="translate(192.55 294)"/></g><g transform="translate(71.5 72.25)" id="V"><use xlink:href="#a" width="106.6" transform="matrix(1 0 0 1.1927 -39.95 34.8)" height="30.1"/><use xlink:href="#b" width="142" transform="translate(-71 -71.75)" height="143.5"/><use xlink:href="#c" width="22.2" transform="translate(-10.45 -12.15) scale(.2523)" height="22.2"/><use xlink:href="#d" width="143" transform="translate(-71.5 -72.25)" height="144.5"/></g><g id="b"><path fill-rule="evenodd" fill="#006" d="m-54.95-34.8-4.4 6.25 3.25-7.7q-.6 2.8 1.15 1.45m-1.6-17.75-3.3 15.2 1.9-16.2q.7 2.3 1.4 1M36.5-39.7q1.9.55 3.2-.35l.05.05-5.9 3.4 2.65-3.1m16-20.1.5 2.35q.25 1.85 1.7 1.05l-2.2 11.05V-59.8m9.4 110.25q-1.7-2-1.75.65v-5.8l1.75 5.15M37.1 67.7l-2.5-.2.9-3.8 1.6 4m-73.35.55-2.4.6 1.55-3.55.85 2.95" transform="translate(71 71.75)"/><path fill-rule="evenodd" fill="url(#g)" d="M-59.75-52.4q2.1-.45-2.4 11.2-2.55 10.05 2.25 14.05 2.25 1.6 3.95.95l-1.3 4.5-.7 3.35q-.8 4.45-.6 8.4-8.4-.7-11.05-7.65-1.05-4.55-.45-9.45l.05-.6q2.2-14.25 8.7-22.95l1.55-1.8" transform="translate(71 71.75)"/><path fill-rule="evenodd" fill="url(#h)" d="M-59.75-52.4q1.55-1.5 1.8-1.15l-1.9 16.2 3.3-15.2.35.75q-1.5 11.85.1 15.55l-3.25 7.7 4.4-6.25 3.05.05q-2.45 3.75-4.05 8.55-1.7.65-3.95-.95-4.8-4-2.25-14.05 4.5-11.65 2.4-11.2" transform="translate(71 71.75)"/><path fill-rule="evenodd" fill="url(#i)" d="M-55.95-26.2q1.6-4.8 4.05-8.55 5.7-8.75 13.75-11.45-13.15 9-15.7 26.65-.2 21.05 8.5 19.05 2.05 12.15 7.7 19l-1.55-.85-1.55-.85-3.1-1.7 1.25 3.7-1.45-1.05-3-2.15-.1.1Q-59.4 4.45-57.25-21.7l1.3-4.5" transform="translate(71 71.75)"/><path fill-rule="evenodd" fill="#f90" d="M-58.55-9.95q-.2-3.95.6-8.4l.7-3.35q-2.15 26.15 10.1 37.4l.1-.1 1.7 3.2q-2.75-1.7-4.95-4.3-6.2-7.35-8.05-22l-.2-2.45M-41.7-28.6l-2.6 10.4q-3.2 22.3 7.8 36.45l-.45 1.05-.7-.8q-5.65-6.85-7.7-19-.65-3.9-.95-8.35.85-11 4.6-19.75" transform="translate(71 71.75)"/><path fill-rule="evenodd" fill="url(#j)" d="M-70.05-27.05q-.6 4.9.45 9.45 2.65 6.95 11.05 7.65l.2 2.45Q-69.05-10.6-71-17.7q.25-4.95.95-9.35" transform="translate(71 71.75)"/><path fill-rule="evenodd" fill="#ffc53e" d="M-10.45-50.05q3.1-.85 5.85.5 1.6.95 3.05 2.05 2.45-.1 4.8.75 1.5.5 2.9 1.35 3.7-.6 8.85 1.95l1.7.9 3.1 1.95 4.65 3.5-2.9.5Q16.65-42.95 9.4-43l1.8 1.8 4.85 5.4 6 6.7-1.5 1-8.4-10.45-.25-.2Q5.35-43.95.75-45.7q2.85 2.4 5 5.3l.05.05q3.2 4.25 5.05 9.5 1.95 5.6 2.3 12.35Q13.2-5.3 9.7 6.3 14.1-17.25 7-35.45q-8.6-11.7-17.45-14.6m-3.95.35 1.55.55-2.05 2.05q-2.9-2.35-9.15-1.6 2.6-.9 4.85-1.2l2.75-.1 2.05.3M9.4-43l-3.25-2.4L9.4-43" transform="translate(71 71.75)"/><path fill-rule="evenodd" fill="#060" d="m-16.45-50-2.75.1q2.95-11.8 10.65-21.65-.2 2.8 2.7 4.8l-3.65 4.6-3.8 4.75q-2.3 3.45-3.15 7.4" transform="translate(71 71.75)"/><path fill-rule="evenodd" fill="#390" d="m-14.4-49.7-2.05-.3q.85-3.95 3.15-7.4l3.8-4.75 5.1-3.7 2.25.95q-9 6.25-12.25 15.2" transform="translate(71 71.75)"/><path fill-rule="evenodd" fill="url(#k)" d="m-12.85-49.15 1.5-.65q-6.35 18.1-4.9 38 .6 12.9 4.25 21.4-4.75 3.1-9.15 8l-2.15-5Q-27.5.5-26-17.75q1.5-18.95 11.1-29.35l2.05-2.05" transform="translate(71 71.75)"/><path fill-rule="evenodd" fill="url(#l)" d="M-38.15-46.2q2.7-.95 5.65-1.15 4-1.2 4.95 0-9.4 7.55-14.15 18.75-3.75 8.75-4.6 19.75.3 4.45.95 8.35-8.7 2-8.5-19.05 2.55-17.65 15.7-26.65" transform="translate(71 71.75)"/><path fill-rule="evenodd" fill="url(#m)" d="M-24.05-48.7q6.25-.75 9.15 1.6-9.6 10.4-11.1 29.35Q-27.5.5-23.3 12.6q-7.6 3.85-15.2-10.35-3.65-8.95-1.6-20.1 4.6-18.5 15.45-30.65l.6-.2" transform="translate(71 71.75)"/><path fill-rule="evenodd" fill="url(#n)" d="m-27.55-47.35 2.9-1.15Q-35.5-36.35-40.1-17.85q-2.05 11.15 1.6 20.1 7.6 14.2 15.2 10.35l2.15 5q-2.9.9-4.2 4.2-4.4-1.75-7.3-5.45l-1.8-2.7-2.05 4.6q-11-14.15-7.8-36.45l2.6-10.4q4.75-11.2 14.15-18.75" transform="translate(71 71.75)"/><path fill-rule="evenodd" fill="#6c0" d="m-9.5-62.15 3.65-4.6q-2.9-2-2.7-4.8 1.15-1.05 5.95 3.5 2.4 2.3.45 3.15l-2.25-.95-5.1 3.7" transform="translate(71 71.75)"/><path fill-rule="evenodd" fill="#ad5701" d="m-45.35 18.8-1.7-3.2 3 2.15-1.3 1.05m8.85-.55 2.05-4.6 1.8 2.7-1.6 2.95h-2.7l.45-1.05m11.15 3.55q1.3-3.3 4.2-4.2 4.4-4.9 9.15-8l4.7-2.65-.1.65q-6.5 3.4-10.05 8.25l-.05.05-.7.95q-3.1 2.05-4.65 4.95h-2.5M17.7-36.05l-1.65.25-4.85-5.4 9.05 4.8-2.55.35m4.35 6.95-2.7 4.9-.25-2.9 1.45-1 1.5-1M20.1-14.7l2.95-.55-2.7 3.7-.25-3.15m4.85 4.5h1.8L26-8.9l-2.65 4-1.55 2.25q.75-2.4 1.1-5l2.05-2.55M15.1 7.3q1.7-1.55 3-3.55Q15.9 12.3 9.85 20L7 18.8l6.65-10.3v-.05L15.1 7.3m-57.7 11.5-1.25-3.7 3.1 1.7-1.85 2" transform="translate(71 71.75)"/><path fill-rule="evenodd" fill="url(#o)" d="m19.35-24.2.75 9.5.25 3.15 2.7-3.7.15 3.65-.05 1.4-.25 2.55q-.35 2.6-1.1 5l1.55-2.25 1.25 1.05Q20.5 9.6 13.95 16.5 12 18.55 9.85 20q6.05-7.7 8.25-16.25-1.3 2-3 3.55l.5-4.3q2.45-13.45-1.45-28.85Q11.8-35.9 5.8-40.35l-.05-.05q-2.15-2.9-5-5.3 4.6 1.75 11.15 6.95l.25.2 8.4 10.45-1.45 1 .25 2.9" transform="translate(71 71.75)"/><path fill-rule="evenodd" fill="url(#p)" d="m16.05-35.8 1.65-.25q5.35 6.45 10.65 8.55 10.2.65 18.85-2.1 4.8-.65 7.75-6.15l3.6-6.8q3.75 18.85-3.3 24.1-14.9 6.75-32.05 6.85l-.15-3.65-2.95.55-.75-9.5 2.7-4.9-6-6.7" transform="translate(71 71.75)"/><path fill-rule="evenodd" fill="#ded6ba" d="m24.45-37.1-4.65-3.5q4.5-.4 8.6 2.75l-3.95.75" transform="translate(71 71.75)"/><path fill-rule="evenodd" fill="url(#q)" d="m34.3-39.15 2.2-.55-2.65 3.1 5.9-3.4-.05-.05q1.3-.9 2.1-1.15 8.45-5 7.65-13.55-.75-8.3 3.05-5.05v14.45l2.2-11.05q8.25 15.7 5.65 30.95-1 5.7-4.3 8.65h-.1l-1.25.45.55-2.1q7.05-5.25 3.3-24.1l-3.6 6.8Q52-30.25 47.2-29.6q-8.65 2.75-18.85 2.1-5.3-2.1-10.65-8.55l2.55-.35 1.3-.2 2.9-.5 3.95-.75 5.9-1.3" transform="translate(71 71.75)"/><path fill-rule="evenodd" fill="#ffa41a" d="m20.25-36.4-9.05-4.8L9.4-43q7.25.05 12.15 6.4l-1.3.2" transform="translate(71 71.75)"/><path fill-rule="evenodd" fill="url(#r)" d="M15-43.45q6.85-1.95 14.45 2.7 3.35-.35 4.85 1.6l-5.9 1.3Q24.3-41 19.8-40.6l-3.1-1.95-1.7-.9m14.45 2.7-2.85.6 2.85-.6" transform="translate(71 71.75)"/><path fill-rule="evenodd" fill="url(#s)" d="m-11.35-49.8.9-.25Q-1.6-47.15 7-35.45q7.1 18.2 2.7 41.75L8 11.2l-1 2.45q-2.85 3.1-6.5 5.4-6.2 0-9-5.85l1.1-5.6.1-.65L-12 9.6q-3.65-8.5-4.25-21.4-1.45-19.9 4.9-38" transform="translate(71 71.75)"/><path fill-rule="evenodd" d="m22.9-7.65.25-2.55h1.8L22.9-7.65" transform="translate(71 71.75)"/><path fill-rule="evenodd" fill="url(#t)" d="M23.2-11.6q17.15-.1 32.05-6.85l-.55 2.1-3.55 1.25q-9.4 3.2-16.7 4.2l-4.9.5-2.8.2h-3.6l.05-1.4" transform="translate(71 71.75)"/><path fill-rule="evenodd" fill="url(#u)" d="m26.75-10.2 2.8-.2 4.9-.5Q33.1-6.45 31.5-2.7l-3.55-1.25Q26.6.65 24.8 4.95q-2.3 5.65-6.85 9.85l-4 1.7Q20.5 9.6 24.6-3.85l.45-1.5L26-8.9l.75-1.3" transform="translate(71 71.75)"/><path fill-rule="evenodd" fill="url(#v)" d="M9.7 6.3q3.5-11.6 3.45-24.8-.35-6.75-2.3-12.35Q9-36.1 5.8-40.35q6 4.45 8.35 14.5Q18.05-10.45 15.6 3l-.5 4.3-1.45 1.15v.05q-2.5 1.8-5.65 2.7l1.7-4.9" transform="translate(71 71.75)"/><path fill-rule="evenodd" fill="url(#w)" d="M56.1-16.8q5.65 9.7 3.5 16.2 2.25 3.3 3.75 6.25Q64.9 15 59.6 17.95l-.55-2.85-1.75-5.8q-.05 5.45-2.95 6.25.15 6.8-7.45 8.95-5.3 7.6-13.75 0-5.65-2.35-7.05-7.2 8.8-8.1 10.6-21.05l7-1.45q8.25-3.1 7.45-9.9l3.55-1.25 1.25-.45v.05l.15-.05m2.25 20.4L59.6-.6l-1.25 4.2M47 16.65q4.75-4.85-1.85-10.95 1.55 3.55-1.05 6.15 3.3 2.85 2.9 4.8" transform="translate(71 71.75)"/><path fill-rule="evenodd" fill="url(#x)" d="M34.45-10.9q7.3-1 16.7-4.2.8 6.8-7.45 9.9l-7 1.45Q34.9 9.2 26.1 17.3l-4.2 2.8q-1.65-3.35-1.55-6.85 6.55-5 11.15-15.95 1.6-3.75 2.95-8.2" transform="translate(71 71.75)"/><path fill-rule="evenodd" fill="url(#y)" d="M47.55 37.5q-5.75 5.2-12.75 5.2-3-.05-6.2-1-8.3 6.65-18.55 7.4l-1 .05Q3.4 49.4-2.8 47.9q-7.35 3.5-13.8 3.75-7 .2-12.95-3.4-6.4-.3-10.5-2.75l-1.65-1.1q-3.7-2.9-5.2-7.95-4.25-2.6-5.45-7 3.2 4.65 5.25 3.95.25 3.7 3.7 3.6l2.55-.8q4.35-1.75 9.2 0l11.85 7.6q1.05 1.35 4.9 2.15 4 .4 6.95-2l-2.8-1.9q12.6-4.25 27.25-2.1-1.3-1.95-4.1-3.35 11.05-6.1 24.65-4.5-.6-1.95-4.7-5.6l-2.4-.55-4.05-.4q-2.65-2.65-4-5.45l4.2-2.8q1.4 4.85 7.05 7.2 8.45 7.6 13.75 0 7.6-2.15 7.45-8.95 2.9-.8 2.95-6.25l1.75 5.8.55 2.85q.25 2.15-.1 3.95-.9 4.1-5 6.5l-.25.7-.05.05q-2.9 4.8-6.15 7.9l-.5.45M.85 46l-3.65 1.9L.85 46m25.3-5.1 2.45.8-2.45-.8M-34 44.85q2.15 2 4.45 3.4-2.3-1.4-4.45-3.4" transform="translate(71 71.75)"/><path fill-rule="evenodd" fill="url(#z)" d="M63.35 5.65Q69.9 18.6 62.3 25.4l-2.8-3.5q.35-1.8.1-3.95 5.3-2.95 3.75-12.3" transform="translate(71 71.75)"/><path fill-rule="evenodd" fill="url(#A)" d="M47 16.65q.4-1.95-2.9-4.8 2.6-2.6 1.05-6.15 6.6 6.1 1.85 10.95" transform="translate(71 71.75)"/><path fill-rule="evenodd" fill="#fbb31d" d="M17.95 14.8q4.55-4.2 6.85-9.85 1.8-4.3 3.15-8.9L31.5-2.7Q26.9 8.25 20.35 13.25l-2.4 1.55" transform="translate(71 71.75)"/><path fill-rule="evenodd" fill="url(#B)" d="M-52.35 29.45q-1.5-5.15 1.25-12.8.6 4.35 3.35 5.6v-2l1.45 1.55q2.4 1.55 3.75 3.3 1.75 2.3 1.75 4.9l-1.45 4.3-1.1.3 1.1-.3q5.2-1.5 10.35-1.2l1.9.2q5.45.65 10.8 3.4l2.65 1.5 1.3-.85q4.15-2.6 8.55-3.7l.4-.1q3.8-.95 7.75-.85l4.5.5.85.15q.85-1.5 2-2.65l.1-.15q3.2-3.3 8.4-4.45l8.6-.55 4.05.4 2.4.55q4.1 3.65 4.7 5.6-13.6-1.6-24.65 4.5 2.8 1.4 4.1 3.35-14.65-2.15-27.25 2.1l2.8 1.9q-2.95 2.4-6.95 2-3.85-.8-4.9-2.15l-11.85-7.6q-4.85-1.75-9.2 0l-2.55.8q-3.45.1-3.7-3.6-2.05.7-5.25-3.95M9 33.85l-2.2-.5 2.2.5m-23.5 5.7-2.05-1.35 2.05 1.35" transform="translate(71 71.75)"/><path fill-rule="evenodd" fill="#77410b" d="M48.05 44.45q.1-3.35-.5-6.95l.5-.45 1 7.2-.05.4-.95-.2M9.5 60.95q.35-5.6-.45-11.8l1-.05.85 12.3-1.4-.45m-55.75-2q1.6-7.3 4.55-14.55l1.65 1.1q-3.8 5.25-5.25 13.95 0-.15-.95-.5" transform="translate(71 71.75)"/><path fill-rule="evenodd" fill="url(#C)" d="m34.8 42.7 3.4 6.75-5.55-1.65q-1.05 2.95-4.25 3.7 2.95 5.45 2.75 9.9-9.3 3.3-20.25 0l-.85-12.3q10.25-.75 18.55-7.4 3.2.95 6.2 1" transform="translate(71 71.75)"/><path fill-rule="evenodd" fill="url(#D)" d="m62.3 25.4 1.7 2.45q-1.75 4.95-5.5 5 4.1 5.55 4.55 10.2Q56.3 45.8 49 44.65l.05-.4-1-7.2q3.25-3.1 6.15-7.9l.05-.05.25-.7q4.1-2.4 5-6.5l2.8 3.5" transform="translate(71 71.75)"/><path fill-rule="evenodd" fill="url(#E)" d="M64 27.85q3.45 5.4 5.35 11.65-3.1 2.2-6.3 3.55-.45-4.65-4.55-10.2 3.75-.05 5.5-5" transform="translate(71 71.75)"/><path fill-rule="evenodd" fill="url(#F)" d="m64.35 50.15-2.45.3-1.75-5.15v5.8l-12.1-.45.95-6q7.3 1.15 14.05-1.6l1.3 7.1" transform="translate(71 71.75)"/><path fill-rule="evenodd" fill="#fd8002" d="m26-8.9-.95 3.55-.45 1.5-1.25-1.05 2.65-4M-8.5 13.2q2.8 5.85 9 5.85Q-3.55 21.5-8.55 23l-2 .5.25-1.25 1.8-9.05" transform="translate(71 71.75)"/><path fill-rule="evenodd" fill="url(#G)" d="m13.95 16.5 4-1.7 2.4-1.55q-.1 3.5 1.55 6.85 1.35 2.8 4 5.45l-8.6.55-2.05-3.8L14 21.25l-.8-.15-4.7 1.65-3.85 3.1 1.85 3.4Q-1 24.8-8.55 23q5-1.5 9.05-3.95 3.65-2.3 6.5-5.4l1-2.45q3.15-.9 5.65-2.7L7 18.8 9.85 20q2.15-1.45 4.1-3.5" transform="translate(71 71.75)"/><path fill-rule="evenodd" fill="url(#H)" d="M-32.65 16.35q2.9 3.7 7.3 5.45h2.5q1.55-2.9 4.65-4.95l.75-1Q-13.9 11-7.4 7.6l-1.1 5.6-1.8 9.05q-6.5-.95-9.45 1.05-1.8 1.2-2.25 3.55-.75 4.95 2.8 9.85-5.35-2.75-10.8-3.4l1-6.2-1.05-1.35-1-.45-.65.85-.45-1.15q-3.1-.7-7.25.75L-40.8 30q0-2.6-1.75-4.9-.5-5.05 3.35-7.45l1.55.85.7.8h2.7l1.6-2.95" transform="translate(71 71.75)"/><path fill-rule="evenodd" fill="#edc589" d="m7.2 30.5-.7-1.25-1.85-3.4 1.2.65 3.05 4.05-.1.15q-.8.75-1.6-.2m-13.9 3.15q-1.15-2.6-1.1-5.6v-1q.3 3.25 1.5 6.5l-.4.1M14 21.25l1.25 1.05h-1.9l.65-1.05m-44.05 4.5L-29 27.1l-1 6.2-1.9-.2q.3-3.3 1.85-7.35" transform="translate(71 71.75)"/><path fill-rule="evenodd" fill="url(#I)" d="m6.5 29.25.7 1.25-1.25 2.7-4.5-.5q.05-1.85-7.15-5.95-7.75-3.5-14.05-3.45 2.95-2 9.45-1.05l-.25 1.25 2-.5Q-1 24.8 6.5 29.25" transform="translate(71 71.75)"/><path fill-rule="evenodd" fill="#d08a20" d="m5.85 26.5-1.2-.65 3.85-3.1 4.7-1.65.8.15-.65 1.05-7.5 4.2m-13.65.55v1l-3.15 1.25v3.6l-1.55-3-3.95 1.5 1.25-1.95 7.4-2.4M-32.15 25l.45 1.15-2.2 2.8 1.75-3.95" transform="translate(71 71.75)"/><path fill-rule="evenodd" fill="#f7e6cc" d="M8.9 30.55 5.85 26.5l7.5-4.2h1.9l2.05 3.8q-5.2 1.15-8.4 4.45m-16.7-2.5q-.05 3 1.1 5.6-4.4 1.1-8.55 3.7.5-2.7-1.2-5.95l3.95-1.5 1.55 3v-3.6l3.15-1.25m-33 1.95 1.4-4.25q4.15-1.45 7.25-.75l-1.75 3.95 2.2-2.8.65-.85 1 .45q-1.55 4.05-1.85 7.35-5.15-.3-10.35 1.2l1.45-4.3" transform="translate(71 71.75)"/><path fill-rule="evenodd" fill="#fff" d="M7.2 30.5q.8.95 1.6.2-1.15 1.15-2 2.65l-.85-.15 1.25-2.7" transform="translate(71 71.75)"/><path fill-rule="evenodd" fill="url(#J)" d="M-19.75 23.3q6.3-.05 14.05 3.45 7.2 4.1 7.15 5.95-3.95-.1-7.75.85-1.2-3.25-1.5-6.5l-7.4 2.4-1.25 1.95q1.7 3.25 1.2 5.95l-1.3.85-2.65-1.5q-3.55-4.9-2.8-9.85.45-2.35 2.25-3.55" transform="translate(71 71.75)"/><path fill-rule="evenodd" fill="#6c58ba" d="m48.05 50.65-.8-.2q.7-2.9.8-6l.95.2-.95 6M9.85 69.4l-1.4-.55q.8-3.8 1.05-7.9l1.4.45-1.05 8m-56.15-2.6q-.6-.3-1.2-.65l1.25-7.2q.95.35.95.5l-1 7.35" transform="translate(71 71.75)"/><path fill-rule="evenodd" fill="url(#K)" d="M31.3 70.35Q20.95 73.6 9.85 69.4l1.05-8q10.95 3.3 20.25 0l.15 8.95" transform="translate(71 71.75)"/><path fill-rule="evenodd" fill="url(#L)" d="m38.2 49.45 2.5 6.5q-4.55 3.65-9.55 5.45.2-4.45-2.75-9.9 3.2-.75 4.25-3.7l5.55 1.65" transform="translate(71 71.75)"/><path fill-rule="evenodd" fill="url(#M)" d="M40.7 55.95q1.45 4.25 2.35 8.65-.95 2.7-5.95 3.1l-1.6-4-.9 3.8-.4 1.75-2.9 1.1-.15-8.95q5-1.8 9.55-5.45" transform="translate(71 71.75)"/><path fill-rule="evenodd" fill="url(#N)" d="M69.35 39.5q1.1 3.55 1.65 7.35-2.85 2.5-6.65 3.3l-1.3-7.1q3.2-1.35 6.3-3.55" transform="translate(71 71.75)"/><path fill-rule="evenodd" fill="url(#O)" d="M-50.3 14.5q2.2 2.6 4.95 4.3l1.3-1.05 1.45 1.05 1.85-2 1.55.85q-3.85 2.4-3.35 7.45-1.35-1.75-3.75-3.3l-1.45-1.55v2q-2.75-1.25-3.35-5.6l.8-2.15" transform="translate(71 71.75)"/><path fill-rule="evenodd" fill="url(#P)" d="M-16.6 51.65v4.45q-3.4 4.3-8 4.2l-.6 1.7q-9.9.75-20.1-2.55 1.45-8.7 5.25-13.95 4.1 2.45 10.5 2.75 5.95 3.6 12.95 3.4" transform="translate(71 71.75)"/><path fill-rule="evenodd" fill="url(#Q)" d="M-16.6 56.1v4.5l-8.6 1.4.6-1.7q4.6.1 8-4.2" transform="translate(71 71.75)"/><path fill-rule="evenodd" fill="url(#R)" d="M-16.6 60.6v7.1q-5.65 2.3-11.65 2.4l3.05-8.1 8.6-1.4" transform="translate(71 71.75)"/><path fill-rule="evenodd" fill="url(#S)" d="m-28.25 70.1-7.7-.85-.3-1-.85-2.95-1.55 3.55q-3.85-.05-7.65-2.05l1-7.35q10.2 3.3 20.1 2.55l-3.05 8.1" transform="translate(71 71.75)"/><path stroke-width=".05" stroke-opacity=".498" stroke-linejoin="round" stroke-linecap="round" stroke="#633a12" fill="none" d="M13.05 18.2q-.25-.35-1.8 1.15l-1.55 1.8Q3.2 29.85 1 44.1m14.05 1.45q1.6-4.8 4.05-8.55l-3.05-.05Q14.3 38.3 14.9 35.5q-1.6-3.7-.1-15.55l-.35-.75m-1.4-1q.7 2.3 1.4 1m-2 42.6q-.2-3.95.6-8.4l.7-3.35 1.3-4.5m-2.4 18.7-.2-2.45M.95 44.7q-.7 4.4-.95 9.35 1.95 7.1 12.65 10.2m45.5-41.65 1.5-.65.9-.25q3.1-.85 5.85.5m38.9 10.4 2.2-.55q1.9.55 3.2-.35 1.3-.9 2.1-1.15 8.45-5 7.65-13.55-.75-8.3 3.05-5.05m2.2 3.4q8.25 15.7 5.65 30.95-1 5.7-4.3 8.65h-.1l-1.25.45m-37-19.7-1.65.25 6 6.7-2.7 4.9.75 9.5 2.95-.55.15 3.65M88.7 35.7l2.55-.35m4.2-.7-2.9.5-1.3.2m4.2-.7 3.95-.75m-5.25 27.65.05-1.4m-.05 1.4h3.6l2.8-.2 4.9-.5q7.3-1 16.7-4.2l3.55-1.25m-20.4-22.8-5.9 1.3"/><path stroke-width=".05" stroke-opacity=".498" stroke-linejoin="round" stroke-linecap="round" stroke="#633a12" fill="none" d="M12.65 64.25q1.85 14.65 8.05 22 2.2 2.6 4.95 4.3l-1.7-3.2M66.4 22.2q1.6.95 3.05 2.05 2.45-.1 4.8.75 1.5.5 2.9 1.35 3.7-.6 8.85 1.95 6.85-1.95 14.45 2.7 3.35-.35 4.85 1.6m18.2-20.65.5 2.35q.25 1.85 1.7 1.05m1.35 39.6.05-.05v.05q5.65 9.7 3.5 16.2 2.25 3.3 3.75 6.25 6.55 12.95-1.05 19.75l1.7 2.45q3.45 5.4 5.35 11.65 1.1 3.55 1.65 7.35-2.85 2.5-6.65 3.3l-2.45.3q-1.7-2-1.75.65l-12.1-.45-.8-.2q.7-2.9.8-6 .1-3.35-.5-6.95-5.75 5.2-12.75 5.2l3.4 6.75 2.5 6.5q1.45 4.25 2.35 8.65-.95 2.7-5.95 3.1l-2.5-.2-.4 1.75-2.9 1.1q-10.35 3.25-21.45-.95l-1.4-.55q.8-3.8 1.05-7.9.35-5.6-.45-11.8-5.65.25-11.85-1.25-7.35 3.5-13.8 3.75V139.45q-5.65 2.3-11.65 2.4l-7.7-.85-.3-1-2.4.6q-3.85-.05-7.65-2.05-.6-.3-1.2-.65l1.25-7.2q1.6-7.3 4.55-14.55-3.7-2.9-5.2-7.95-4.25-2.6-5.45-7-1.5-5.15 1.25-12.8l.8-2.15M58.15 22.6l-1.55-.55-2.05-.3-2.75.1q-2.25.3-4.85 1.2m9.15 1.6 2.05-2.05m-14.7 1.8 2.9-1.15.6-.2m-14.1 2.5q2.7-.95 5.65-1.15 4-1.2 4.95 0-9.4 7.55-14.15 18.75M34.5 90l2.05-4.6 1.8 2.7q2.9 3.7 7.3 5.45 1.3-3.3 4.2-4.2l-2.15-5Q43.5 72.25 45 54q1.5-18.95 11.1-29.35M19.1 37q5.7-8.75 13.75-11.45m-7.2 45.7q-.65-3.9-.95-8.35.85-11 4.6-19.75M62.45.2q-7.7 9.85-10.65 21.65m17.05-15Q70.8 6 68.4 3.7 63.6-.85 62.45.2m28.8 35.15-9.05-4.8 4.85 5.4m4.5 7.7 1.5-1m-2.25-11.5 4.65 3.5m-4.65-3.5-3.1-1.95-1.7-.9m-5.6.45 1.8 1.8m-1.5 47.5q3.5-11.6 3.45-24.8-.35-6.75-2.3-12.35-1.85-5.25-5.05-9.5l-.05-.05q-2.15-2.9-5-5.3m19.8 17.6-1.45 1 .25 2.9M93.9 64.1l.25-2.55m3.6 0-.75 1.3-.95 3.55-.45 1.5q-4.1 13.45-10.65 20.35l4-1.7m13.55-17.5q1.6-3.75 2.95-8.2m-9.5.7L93.9 64.1q-.35 2.6-1.1 5l1.55-2.25 2.65-4m-5.9-5.8.25 3.15 2.7-3.7m-16.9-30.15 3.25 2.4m5.7 50.3q1.7-1.55 3-3.55-2.2 8.55-8.25 16.25 2.15-1.45 4.1-3.5m42-33.25.1-.05m.05-.05-.15.1M97.6 31.6l2.85-.6M68.85 6.85q-9 6.25-12.25 15.2m2.4 59.3 4.7-2.65-.1.65-1.1 5.6m9 5.85q3.65-2.3 6.5-5.4l1-2.45 1.7-4.9m49.9-6.9-1.25 4.2m.7 11.5.55 2.85m-12.05 19.55.5-.45q3.25-3.1 6.15-7.9l.05-.05.25-.7q4.1-2.4 5-6.5.35-1.8.1-3.95m-31 23.75q3.2.95 6.2 1m24.7-20.8 2.8 3.5m.75 17.65q3.2-1.35 6.3-3.55m-6.3 3.55q-6.75 2.75-14.05 1.6l-.95-.2M79 82.95q3.15-.9 5.65-2.7v-.05l1.45-1.15M91.35 85l-2.4 1.55M77.5 101l.7 1.25q.8.95 1.6.2l.1-.15q3.2-3.3 8.4-4.45l8.6-.55 4.05.4m-25.3-.1 1.85 3.4q-7.5-4.45-15.05-6.25l-2 .5.25-1.25q-6.5-.95-9.45 1.05m21.2 9.4 4.5.5 1.25-2.7m-13.9 3.15.4-.1q-1.2-3.25-1.5-6.5v1m-8.65 3.35q1.7 3.25 1.2 5.95 4.15-2.6 8.55-3.7m12.65-.45.85.15q.85-1.5 2-2.65m-15.1 2.85q3.8-.95 7.75-.85M96.9 97.3q-2.65-2.65-4-5.45-1.65-3.35-1.55-6.85 6.55-5 11.15-15.95M75.65 97.6l3.85-3.1 4.7-1.65.8.15 1.25 1.05 2.05 3.8m-7.45-6.1L78 90.55l6.65-10.3M71.5 90.8q-4.05 2.45-9.05 3.95M60.7 94l1.8-9.05m15.3 20.15 2.2.5m1.9 27.55q10.95 3.3 20.25 0 5-1.8 9.55-5.45m-31.2 5 1.4.45m-1.85-12.25 1-.05q10.25-.75 18.55-7.4l-2.45-.8m-28.95 7 3.65-1.9m61.05 4.45-1.75-5.15v5.8m-23.05 16.6-1.6-4-.9 3.8M53.55 87.6l-.05.05-.7.95.75-1-.05.05M26.95 89.5l-3-2.15m1.7 3.2 1.3-1.05 1.45 1.05-1.25-3.7 3.1 1.7 1.55.85 1.55.85q-5.65-6.85-7.7-19m4.6 17.3-1.85 2m9.95-2.45-1.6 2.95h-2.7l-.7-.8m-4.9 6.6q1.75 2.3 1.75 4.9l1.4-4.25q4.15-1.45 7.25-.75l.45 1.15.65-.85 1 .45L42 98.85l-1 6.2q5.45.65 10.8 3.4-3.55-4.9-2.8-9.85.45-2.35 2.25-3.55m-26.55-1.5q2.4 1.55 3.75 3.3-.5-5.05 3.35-7.45m-4.15 16.95 1.1-.3 1.45-4.3m33-2.95-7.4 2.4-1.25 1.95M52.8 88.6q-3.1 2.05-4.65 4.95h-2.5m-6.55 11.3 1.9.2m13.45 4.9 2.05 1.35m-4.7-2.85 2.65 1.5 1.3-.85m-16.65-4.25q-5.15-.3-10.35 1.2m5.3-15L34.5 90m6.95 30q5.95 3.6 12.95 3.4m-8.6 10.35 8.6-1.4m-25.1-16.2 1.65 1.1q4.1 2.45 10.5 2.75-2.3-1.4-4.45-3.4m-11.3 14.6q10.2 3.3 20.1 2.55m-21.05-3.05q.95.35.95.5m9.05 8.8-.85-2.95-1.55 3.55M59 81.35q-4.75 3.1-9.15 8m3.7-1.75q3.55-4.85 10.05-8.25"/><path fill-rule="evenodd" fill="#f60" d="m-37.9-6.45 1.65.55q-4.8 2.4-9.65.85h-.05q-.8.2-1.6-.4l.7-.9 2.2.5q3.5.8 6.75-.6m-8 1.4 1.25-.8-1.25.8" transform="translate(71 71.75)"/><path fill-rule="evenodd" fill="#300" d="M-49.35-12.9q1.65 1.35 3.2 1.15 3.45 3.6 8.25 5.3-3.25 1.4-6.75.6l-2.2-.5q-1.95-3.5-2.5-6.55" transform="translate(71 71.75)"/><path fill-rule="evenodd" fill="#ad5701" d="M-47.55-5.45-48-5.9q-2.55-3.1-2.9-8.55l1.55 1.55q.55 3.05 2.5 6.55l-.7.9" transform="translate(71 71.75)"/><path stroke-width=".05" stroke-opacity=".42" stroke-linejoin="round" stroke-linecap="round" stroke="#000" fill="none" d="m23.45 66.3-.45-.45q-2.55-3.1-2.9-8.55l1.55 1.55q1.65 1.35 3.2 1.15 3.45 3.6 8.25 5.3l1.65.55q-4.8 2.4-9.65.85h-.05q-.8.2-1.6-.4"/><path stroke-width=".05" stroke-opacity=".42" stroke-linejoin="round" stroke-linecap="round" stroke="#000" fill="none" d="m23.45 66.3.7-.9q-1.95-3.5-2.5-6.55m2.5 6.55 2.2.5q3.5.8 6.75-.6m-6.75.6-1.25.8"/><path fill-rule="evenodd" fill="#f60" d="M-2.75-5.9q-9.8 3.15-18.95 0l1.3-.4q9.15 1.7 16.8-.55l.85.95" transform="translate(71 71.75)"/><path fill-rule="evenodd" fill="#300" d="M-20.4-6.3Q-9.7-10-1.2-17.05q.35 5.9-2.4 10.2-7.65 2.25-16.8.55" transform="translate(71 71.75)"/><path fill-rule="evenodd" fill="#ad5701" d="M-1.2-17.05-.1-18q.65 7.65-2.65 12.1l-.85-.95q2.75-4.3 2.4-10.2" transform="translate(71 71.75)"/><path stroke-width=".05" stroke-opacity=".42" stroke-linejoin="round" stroke-linecap="round" stroke="#000" fill="none" d="M68.25 65.85q-9.8 3.15-18.95 0l1.3-.4q10.7-3.7 19.2-10.75l1.1-.95q.65 7.65-2.65 12.1"/><path stroke-width=".05" stroke-opacity=".42" stroke-linejoin="round" stroke-linecap="round" stroke="#000" fill="none" d="m68.25 65.85-.85-.95q-7.65 2.25-16.8.55M69.8 54.7q.35 5.9-2.4 10.2"/></g><radialGradient spreadMethod="pad" r="819.2" id="f" gradientUnits="userSpaceOnUse" gradientTransform="scale(.0137)" cy="0" cx="0"><stop stop-opacity=".62" offset="0"/><stop stop-opacity="0" offset="1"/></radialGradient></defs><path fill="none" d="M-1-1h208v209H-1z"/><g><use x="105.621" y="198.548" xlink:href="#U" width="381" transform="translate(-192.55 -294)" height="381"/><use x="-60.758" y="-66.75" xlink:href="#V" width="143" transform="translate(87.339 95.472) scale(1.4225)" height="144.5"/><use x="-47.825" y="-57.415" xlink:href="#W" width="102.95" transform="matrix(1.8072 0 0 1.6538 96 166.6)" height="45"/></g></svg>