<svg width="93" height="124" xmlns="http://www.w3.org/2000/svg" xmlns:xlink="http://www.w3.org/1999/xlink"><defs><g id="d" stroke-opacity="0" stroke-linejoin="round" stroke-linecap="round" stroke="#f0f" fill="none"><path d="M187.95-293.5v380h-380v-380h380M92.95.6H-97" transform="translate(192.55 294)"/><path d="m187.95-293.5-190 190 190 190m-380-380 190 190L-192 86.5" transform="translate(192.55 294)"/></g><g id="a"><path fill-rule="evenodd" fill-opacity=".471" fill="#fe98db" d="M-67.1-19.55q-.8-.85-2.05-.85-1.3 0-2.25.85-.6.65-.7 1.5v.6l.45 1.9.25.25q.95.85 2.25.85 1.25 0 2.05-.85.9-.8.95-2.15-.05-1.25-.95-2.1m-5.95-3.7q4.25-4.05 10.2-4.05 5.95 0 10 4.05 4.25 4.25 4.25 10.2 0 5.95-4.25 10-4.05 4.25-10 4.25t-10.2-4.25q-4.05-4.05-4.05-10t4.05-10.2" transform="translate(77.2 43.4)"/><path fill-rule="evenodd" fill="#fff" d="M23.7-33.45q-.05 1.35-.95 2.15-.8.85-2.05.85-1.3 0-2.25-.85l-.25-.25q-.35-.85-.45-1.9v-.6q.1-.85.7-1.5.95-.85 2.25-.85 1.25 0 2.05.85.9.85.95 2.1m-90.8 13.9q.9.85.95 2.1-.05 1.35-.95 2.15-.8.85-2.05.85-1.3 0-2.25-.85l-.25-.25-.45-1.9v-.6q.1-.85.7-1.5.95-.85 2.25-.85 1.25 0 2.05.85" transform="translate(77.2 43.4)"/><path fill-rule="evenodd" fill-opacity=".471" fill="#f464ac" d="M37-39.25q4.25 4.25 4.25 10.2 0 5.95-4.25 10-4.05 4.25-10 4.25t-10.2-4.25q-4.05-4.05-4.05-10t4.05-10.2Q21.05-43.3 27-43.3q5.95 0 10 4.05m-13.3 5.8q-.05-1.25-.95-2.1-.8-.85-2.05-.85-1.3 0-2.25.85-.6.65-.7 1.5v.6q.1 1.05.45 1.9l.25.25q.95.85 2.25.85 1.25 0 2.05-.85.9-.8.95-2.15" transform="translate(77.2 43.4)"/><path fill-rule="evenodd" fill-opacity=".471" fill="#fa2993" d="M6.6 40.45q-4.05 4.25-10 4.25t-10.2-4.25q-4.05-4.05-4.05-10t4.05-10.2q4.25-4.05 10.2-4.05 5.95 0 10 4.05 4.25 4.25 4.25 10.2 0 5.95-4.25 10M-40.85-4.8q5.95 0 10 4.05 4.25 4.25 4.25 10.2 0 5.95-4.25 10-4.05 4.25-10 4.25t-10.2-4.25q-4.05-4.05-4.05-10t4.05-10.2q4.25-4.05 10.2-4.05" transform="translate(77.2 43.4)"/><path stroke-width=".25" stroke-linejoin="round" stroke-linecap="round" stroke="#f39" fill="none" d="M114.2 4.15q4.25 4.25 4.25 10.2 0 5.95-4.25 10-4.05 4.25-10 4.25T94 24.35q-4.05-4.05-4.05-10T94 4.15Q98.25.1 104.2.1q5.95 0 10 4.05m-30.4 79.7q-4.05 4.25-10 4.25t-10.2-4.25q-4.05-4.05-4.05-10t4.05-10.2q4.25-4.05 10.2-4.05 5.95 0 10 4.05 4.25 4.25 4.25 10.2 0 5.95-4.25 10M4.15 20.15q4.25-4.05 10.2-4.05 5.95 0 10 4.05 4.25 4.25 4.25 10.2 0 5.95-4.25 10-4.05 4.25-10 4.25t-10.2-4.25Q.1 36.3.1 30.35t4.05-10.2m32.2 18.45q5.95 0 10 4.05 4.25 4.25 4.25 10.2 0 5.95-4.25 10-4.05 4.25-10 4.25t-10.2-4.25q-4.05-4.05-4.05-10t4.05-10.2q4.25-4.05 10.2-4.05"/><path fill-rule="evenodd" fill-opacity=".243" fill="#ff037b" d="M36.5-31.9q0-2.15-.45-4.05 2.6 3.1 2.6 7.4 0 4.25-3.1 7.6-3.3 3.05-8.05 3.05l-3.85-.45q5.25-.5 9.05-4.05 3.8-4.05 3.8-9.5M-31.35 6.6q0-2.15-.45-4.05 2.6 3.1 2.6 7.4 0 4.25-3.1 7.6-3.3 3.05-8.05 3.05l-3.85-.45q5.25-.5 9.05-4.05 3.8-4.05 3.8-9.5m-22-22.5q0-2.15-.45-4.05 2.6 3.1 2.6 7.4 0 4.25-3.1 7.6-3.3 3.05-8.05 3.05l-3.85-.45q5.25-.5 9.05-4.05 3.8-4.05 3.8-9.5M6.1 27.6q0-2.15-.45-4.05 2.6 3.1 2.6 7.4 0 4.25-3.1 7.6-3.3 3.05-8.05 3.05l-3.85-.45q5.25-.5 9.05-4.05 3.8-4.05 3.8-9.5" transform="translate(77.2 43.4)"/></g><g id="g"><path fill-rule="evenodd" fill="#27210e" d="M-26.95 41.5v-2.7l2 .45 5.65-2.5 1.6 3.1-2.25 7.5 5.75 2.55.95 1.7-2 1.1-8.45-.95-.5-.65 1.25-2.5 1.4-1.35 2.35-6.75-1.1-1.6-6.65 2.6" transform="translate(35.7 22.5)"/><path fill-rule="evenodd" fill="#7a7a05" d="M-17.35-5.5q3.3-2.35 7.2-3.45 2.75-.75 5.65-.7L-5.85-7l-.25-.05q-2.85-.4-7.25 5.15l-1.6 2.1q5.2-8.45-2.4-5.7m-10.2 47.1-1.8-.05 1.3-.5.5.55m1.85-1.4q3.3-1.1 6.65-1.1l.55 2.75q-1.35-2.5-7.2-.2V40.2" transform="translate(35.7 22.5)"/><path fill-rule="evenodd" fill="#9d9c06" d="M-14.95.2q-2.7 3.7-3.6 6.75-1.15 3.9-1 10.5.2 7.3 2 10.9 3.05 5.25 2.6 11.15l-1.55-.25q-.25 6.3-8.15 8.7-4.15 1.4-9.9-4.05-1.45-3.05-.85-5.85l.15-4.4q1.5 10.8 3.6 8.4 3.2-2.75 8-3.95 1.55-.4 1.3-1.15-4.2-8.9-3.6-14.8 1.05-13.05 8-24.4 1-3.55-2.35-.85l2.95-2.4q7.6-2.75 2.4 5.7m-12.6 41.4 1.25 1.4h.6v-1.35q5.85-2.3 7.2.2h.55l1.45-2.6-2.55-.15q-3.35 0-6.65 1.1l-2.35.85-1.3.5 1.8.05" transform="translate(35.7 22.5)"/><path fill-rule="evenodd" fill="#c7c701" d="M-35.25 33.65q.75-8.85 5.65-20 4.85-11.2 8.35-15.5l.95-1.25q3.35-2.7 2.35.85-6.95 11.35-8 24.4-.6 5.9 3.6 14.8.25.75-1.3 1.15-4.8 1.2-8 3.95-2.1 2.4-3.6-8.4" transform="translate(35.7 22.5)"/><path fill-rule="evenodd" fill="#c8c7b7" d="M-25.7 41.65V43h-.6l-1.25-1.4-.5-.55 2.35-.85v1.45m6.65-2.55 2.55.15-1.45 2.6h-.55l-.55-2.75" transform="translate(35.7 22.5)"/><path stroke-width=".25" stroke-linejoin="round" stroke-linecap="round" stroke="#4b5140" fill="none" d="M18.35 17q3.3-2.35 7.2-3.45 2.75-.75 5.65-.7l1.05-1.6-4 .5m4-.5.9-.15m-1.95 1.75-1.35 2.65-.25-.05q1.5.35 3.05 1.55m-3.05-1.55q-2.85-.4-7.25 5.15l-1.6 2.1q-2.7 3.7-3.6 6.75-1.15 3.9-1 10.5.2 7.3 2 10.9Q21.2 56.1 20.75 62l-1.55-.25q-.25 6.3-8.15 8.7-4.15 1.4-9.9-4.05Q-.3 63.35.3 60.55l.15-4.4q.75-8.85 5.65-20 4.85-11.2 8.35-15.5l.95-1.25 2.95-2.4M10 64.15v1.35h-.6l-1.25-1.4-.5-.55L10 62.7q3.3-1.1 6.65-1.1l2.55.15-1.45 2.6h-.55l-.55-2.75m-10.3 2.45 1.3-.5m2.35.6V62.7"/><path fill-rule="evenodd" fill="#a09a76" d="M11.6-15.15Q8.5-18.2 4.25-18.2l-3.5.55q-2.05.7-3.75 2.4-2.2 2.2-2.9 5l-.25 2.35q0 2.6 1.15 4.8.75 1.3 1.9 2.45 3 3.15 7.25 3.15 4.25.05 7.35-3.05 3.05-3 3.05-7.25l-.25-2.35-.6-1.95q-.75-1.65-2.1-3.05m.8 10.2L11.35-3.7q-2.7 2.65-6.3 2.65-3.5 0-6-2.5 7.3.9 13.35-1.4" transform="translate(35.7 22.5)"/><path fill-rule="evenodd" fill="#c8c7b7" d="M12.4-4.95Q6.35-2.65-.95-3.55q2.5 2.5 6 2.5 3.6 0 6.3-2.65l1.05-1.25" transform="translate(35.7 22.5)"/><path stroke-width=".25" stroke-linejoin="round" stroke-linecap="round" stroke="#4b5140" fill="none" d="M47.3 7.35Q44.2 4.3 39.95 4.3l-3.5.55q-2.05.7-3.75 2.4-2.2 2.2-2.9 5l-.25 2.35q0 2.6 1.15 4.8.75 1.3 1.9 2.45 3 3.15 7.25 3.15 4.25.05 7.35-3.05 3.05-3 3.05-7.25L50 12.35l-.6-1.95q-.75-1.65-2.1-3.05z"/><path fill-rule="evenodd" d="M.7-7.95q0 1.35 1 2.45 1 1 2.4 1 1.45 0 2.6-1 .85-1.1.85-2.45 0-1.4-.85-2.4-1.15-1-2.6-1-1.4 0-2.4 1t-1 2.4" transform="translate(35.7 22.5)"/><path fill-rule="evenodd" fill="#27210e" d="M-34.45 45.55V44.2l3.3-1.2-.7.25 4.4 2.15q-.35 3.85-2.25 7.35l4.65 4.15-.55 1.8-2.25.2-6.1-2.7 1.3-2.45 1.35-1.25q3.95-4.4 2.35-6.55l-3-1.35-2.5.95" transform="translate(35.7 22.5)"/><path fill-rule="evenodd" fill="#c7c701" d="M-7.85-13.2q.85-3.15 3.4-5.65 2-2.05 4.5-2.9l4.15-.65q5.05 0 8.8 3.6l.75.9Q12.7-16 10.6-14.4 6.4-11.2.45-11.2L-2-11.35l-.5-.05 5.65 1.1 7.75-.5q4.2-.2 1 1.2l-5.65.65-10.7-.7-6.05-2.15.55-.5 1.1-.15 5.6.9-.6-.1q-2.15-.5-4-1.55m12.7-6.45.2-.5-.2-.55-.55-.2-.5.2-.25.55q0 .3.25.5.2.25.5.25t.55-.25M2.3-21.3l-1.25.15q-1.1.3-2.55 1.2-1.45.9-.75 1.2l1.45.6 1.35.3q.6 0 .55-.8-.05-.85.7-1.65.7-.85.5-1m-6.9 5.05Q-3.55-17-3.2-17l.55-.3.2-.5-.2-.55-.55-.2-.5.2-1.1 1.55q-.9 1.25.2.55m3.35-.65-.25.1-.15.3.15.25q.1.15.25.15t.3-.15l.1-.25-.1-.3-.3-.1m-1.8 6.05-2.8-.4q-2.25-.4-1.1.2l2.25 1 1.7.4 2.55.1q1.9.05.35-.45l-1.95-.7-1-.15" transform="translate(35.7 22.5)"/><path fill-rule="evenodd" fill="#f5f503" d="M2.3-21.3q.2.15-.5 1-.75.8-.7 1.65.05.8-.55.8l-1.35-.3-1.45-.6q-.7-.3.75-1.2 1.45-.9 2.55-1.2l1.25-.15m2.55 1.65q-.25.25-.55.25-.3 0-.5-.25-.25-.2-.25-.5l.25-.55.5-.2.55.2.2.55-.2.5m-7.9 8.8 1 .15 1.95.7q1.55.5-.35.45L-3-9.65l-1.7-.4-2.25-1q-1.15-.6 1.1-.2l2.8.4m1.8-6.05.3.1.1.3-.1.25q-.15.15-.3.15t-.25-.15l-.15-.25.15-.3.25-.1m-3.35.65q-1.1.7-.2-.55l1.1-1.55.5-.2.55.2.2.55-.2.5-.55.3q-.35 0-1.4.75M-30.15 35.7l-.25.6-.6.25-.6-.25-.25-.6.25-.6q.25-.25.6-.25l.6.25q.25.25.25.6m2.2-23.25q.15 1.15-1.7 7.8-1.85 6.6-.95 8.35.9 1.75.55 3.15-.4 1.4-1.15 1.5l-1.75-.35q-.95-.5-.5-3.35.4-2.9 2.85-10.6 2.45-7.7 2.65-6.5" transform="translate(35.7 22.5)"/><path fill-rule="evenodd" fill="#9d9c06" d="M-7.85-13.2q1.85 1.05 4 1.55l.6.1-5.6-.9.85-.1.1-.4.05-.25m-2.65 1.4 6.05 2.15 10.7.7 5.65-.65q3.2-1.4-1-1.2l-7.75.5-5.65-1.1.5.05 2.45.15q5.95 0 10.15-3.2 2.1-1.6 3.15-3.5l1.75 2.8.7 2.15.05.15.05-.15 2.3.8q1.4.85 0 2.05l-2.15.8Q4.5-5.3-8.2-9.45l-1.75-.65q-1.2-.85-.55-1.7" transform="translate(35.7 22.5)"/><path stroke-width=".25" stroke-linejoin="round" stroke-linecap="round" stroke="#4b5140" fill="none" d="m49.45 4.6-.75-.9Q44.95.1 39.9.1l-4.15.65q-2.5.85-4.5 2.9-2.55 2.5-3.4 5.65l-.05.25-.1.4-.85.1-1.1.15-.55.5m24.25-6.1 1.75 2.8.7 2.15h.1l2.3.8q1.4.85 0 2.05l-2.15.8q-11.95 4-24.65-.15l-1.75-.65q-1.2-.85-.55-1.7m26.7-1.15.05.15"/><path fill-rule="evenodd" fill="#f5f503" d="m-32.7 34.85.25-.15.15-.25q0-.2-.15-.3-.1-.15-.25-.15-.2 0-.3.15l-.15.3.15.25.3.15" transform="translate(35.7 22.5)"/></g><g id="b"><path fill-rule="evenodd" fill-opacity=".471" fill="#fe98db" d="M-32.1-52.25q-1.3 0-2.25.85-.6.65-.7 1.5v.6l.45 1.9.25.25q.95.85 2.25.85 1.25 0 2.05-.85.9-.8.95-2.15-.05-1.25-.95-2.1-.8-.85-2.05-.85m6.3-6.9q5.95 0 10 4.05 4.25 4.25 4.25 10.2 0 5.95-4.25 10-4.05 4.25-10 4.25T-36-34.9q-4.05-4.05-4.05-10T-36-55.1q4.25-4.05 10.2-4.05" transform="translate(61.5 60)"/><path fill-rule="evenodd" fill="#fff" d="M-32.1-52.25q1.25 0 2.05.85.9.85.95 2.1-.05 1.35-.95 2.15-.8.85-2.05.85-1.3 0-2.25-.85l-.25-.25-.45-1.9v-.6q.1-.85.7-1.5.95-.85 2.25-.85" transform="translate(61.5 60)"/><path stroke-width="1.75" stroke-linejoin="round" stroke-linecap="round" stroke="#f39" fill="none" d="M35.7.85q5.95 0 10 4.05 4.25 4.25 4.25 10.2 0 5.95-4.25 10-4.05 4.25-10 4.25T25.5 25.1q-4.05-4.05-4.05-10T25.5 4.9Q29.75.85 35.7.85z"/><path fill-rule="evenodd" fill-opacity=".243" fill="#ff037b" d="M-14.15-44.55q0 4.45-3.2 7.6-3.2 3.2-7.95 3.25l-3.8-.6q5.3-.35 9-4.05 3.9-3.95 3.8-9.5.05-2.15-.45-4.05 2.6 3.2 2.6 7.35" transform="translate(61.5 60)"/><path fill-rule="evenodd" fill-opacity=".471" fill="#fe98db" d="M4.95-6.05q-1.3 0-2.25.85-.6.65-.7 1.5v.6q.1 1.05.45 1.9l.25.25q.95.85 2.25.85Q6.2-.1 7-.95q.9-.8.95-2.15Q7.9-4.35 7-5.2q-.8-.85-2.05-.85m6.3-6.9q5.95 0 10 4.05Q25.5-4.65 25.5 1.3q0 5.95-4.25 10-4.05 4.25-10 4.25T1.05 11.3Q-3 7.25-3 1.3T1.05-8.9q4.25-4.05 10.2-4.05" transform="translate(61.5 60)"/><path fill-rule="evenodd" fill="#fff" d="M4.95-6.05q1.25 0 2.05.85.9.85.95 2.1Q7.9-1.75 7-.95q-.8.85-2.05.85-1.3 0-2.25-.85l-.25-.25Q2.1-2.05 2-3.1v-.6q.1-.85.7-1.5.95-.85 2.25-.85" transform="translate(61.5 60)"/><path stroke-width="1.75" stroke-linejoin="round" stroke-linecap="round" stroke="#f39" fill="none" d="M72.75 47.05q5.95 0 10 4.05Q87 55.35 87 61.3q0 5.95-4.25 10-4.05 4.25-10 4.25t-10.2-4.25q-4.05-4.05-4.05-10t4.05-10.2q4.25-4.05 10.2-4.05z"/><path fill-rule="evenodd" fill-opacity=".243" fill="#ff037b" d="M20.75-1.65q.05-2.15-.45-4.05 2.6 3.2 2.6 7.35 0 4.45-3.2 7.6-3.2 3.2-7.95 3.25l-3.8-.6q5.3-.35 9-4.05 3.9-3.95 3.8-9.5" transform="translate(61.5 60)"/><path fill-rule="evenodd" fill-opacity=".471" fill="#fa2993" d="M-24.65 41.1q5.95 0 10 4.05 4.25 4.25 4.25 10.2 0 5.95-4.25 10-4.05 4.25-10 4.25t-10.2-4.25q-4.05-4.05-4.05-10t4.05-10.2q4.25-4.05 10.2-4.05" transform="translate(61.5 60)"/><path stroke-width="1.75" stroke-linejoin="round" stroke-linecap="round" stroke="#f39" fill="none" d="M36.85 101.1q5.95 0 10 4.05 4.25 4.25 4.25 10.2 0 5.95-4.25 10-4.05 4.25-10 4.25t-10.2-4.25q-4.05-4.05-4.05-10t4.05-10.2q4.25-4.05 10.2-4.05z"/><path fill-rule="evenodd" fill-opacity=".243" fill="#ff037b" d="M-15.15 52.5q0-2.15-.45-4.05 2.6 3.1 2.6 7.4 0 4.25-3.1 7.6-3.3 3.05-8.05 3.05l-3.85-.45q5.25-.5 9.05-4.05 3.8-4.05 3.8-9.5" transform="translate(61.5 60)"/><path fill-rule="evenodd" fill-opacity=".471" fill="#fe98db" d="M7.65 41.25q-.8-.85-2.05-.85-1.3 0-2.25.85-.6.65-.7 1.5v.6q.1 1.05.45 1.9l.25.25q.95.85 2.25.85 1.25 0 2.05-.85.9-.8.95-2.15-.05-1.25-.95-2.1m4.25-7.75q5.95 0 10 4.05 4.25 4.25 4.25 10.2 0 5.95-4.25 10Q17.85 62 11.9 62T1.7 57.75q-4.05-4.05-4.05-10t4.05-10.2q4.25-4.05 10.2-4.05" transform="translate(61.5 60)"/><path fill-rule="evenodd" fill="#fff" d="M7.65 41.25q.9.85.95 2.1-.05 1.35-.95 2.15-.8.85-2.05.85-1.3 0-2.25-.85l-.25-.25q-.35-.85-.45-1.9v-.6q.1-.85.7-1.5.95-.85 2.25-.85 1.25 0 2.05.85" transform="translate(61.5 60)"/><path stroke-width="1.75" stroke-linejoin="round" stroke-linecap="round" stroke="#f39" fill="none" d="M73.4 93.5q5.95 0 10 4.05 4.25 4.25 4.25 10.2 0 5.95-4.25 10-4.05 4.25-10 4.25t-10.2-4.25q-4.05-4.05-4.05-10t4.05-10.2q4.25-4.05 10.2-4.05z"/><path fill-rule="evenodd" fill-opacity=".243" fill="#ff037b" d="M21.4 44.9q0-2.15-.45-4.05 2.6 3.1 2.6 7.4 0 4.25-3.1 7.6-3.3 3.05-8.05 3.05l-3.85-.45q5.25-.5 9.05-4.05 3.8-4.05 3.8-9.5" transform="translate(61.5 60)"/><path fill-rule="evenodd" fill-opacity=".471" fill="#fe98db" d="M41.3 26.9q-5.95 0-10.2-4.25-4.05-4.05-4.05-10t4.05-10.2Q35.35-1.6 41.3-1.6q5.95 0 10 4.05 4.25 4.25 4.25 10.2 0 5.95-4.25 10-4.05 4.25-10 4.25M35 5.3q-1.3 0-2.25.85-.6.65-.7 1.5v.6q.1 1.05.45 1.9l.25.25q.95.85 2.25.85 1.25 0 2.05-.85.9-.8.95-2.15-.05-1.25-.95-2.1-.8-.85-2.05-.85" transform="translate(61.5 60)"/><path fill-rule="evenodd" fill="#fff" d="M35 5.3q1.25 0 2.05.85.9.85.95 2.1-.05 1.35-.95 2.15-.8.85-2.05.85-1.3 0-2.25-.85l-.25-.25q-.35-.85-.45-1.9v-.6q.1-.85.7-1.5.95-.85 2.25-.85" transform="translate(61.5 60)"/><path stroke-width="1.75" stroke-linejoin="round" stroke-linecap="round" stroke="#f39" fill="none" d="M102.8 86.9q-5.95 0-10.2-4.25-4.05-4.05-4.05-10t4.05-10.2q4.25-4.05 10.2-4.05 5.95 0 10 4.05 4.25 4.25 4.25 10.2 0 5.95-4.25 10-4.05 4.25-10 4.25z"/><path fill-rule="evenodd" fill-opacity=".243" fill="#ff037b" d="M50.8 9.8q0-2.15-.45-4.05 2.6 3.1 2.6 7.4 0 4.25-3.1 7.6-3.3 3.05-8.05 3.05l-3.85-.45q5.25-.5 9.05-4.05 3.8-4.05 3.8-9.5" transform="translate(61.5 60)"/><path fill-rule="evenodd" fill-opacity=".471" fill="#fe98db" d="M-32.15 31.5q0 5.95-4.25 10-4.05 4.25-10 4.25t-10.2-4.25q-4.05-4.05-4.05-10t4.05-10.2q4.25-4.05 10.2-4.05 5.95 0 10 4.05 4.25 4.25 4.25 10.2m-23.5-4.6v.2l.45 1.9.25.25q.95.85 2.25.85 1.25 0 2.05-.85.9-.8.95-2.15-.05-1.25-.95-2.1-.8-.85-2.05-.85-1.3 0-2.25.85-.6.65-.7 1.5v.4" transform="translate(61.5 60)"/><path fill-rule="evenodd" fill="#fff" d="M-55.65 26.9v-.4q.1-.85.7-1.5.95-.85 2.25-.85 1.25 0 2.05.85.9.85.95 2.1-.05 1.35-.95 2.15-.8.85-2.05.85-1.3 0-2.25-.85l-.25-.25-.45-1.9v-.2" transform="translate(61.5 60)"/><path stroke-width="1.75" stroke-linejoin="round" stroke-linecap="round" stroke="#f39" fill="none" d="M29.35 91.5q0 5.95-4.25 10-4.05 4.25-10 4.25T4.9 101.5Q.85 97.45.85 91.5T4.9 81.3q4.25-4.05 10.2-4.05 5.95 0 10 4.05 4.25 4.25 4.25 10.2z"/><path fill-rule="evenodd" fill-opacity=".243" fill="#ff037b" d="M-36.9 28.65q0-2.15-.45-4.05 2.6 3.1 2.6 7.4 0 4.25-3.1 7.6-3.3 3.05-8.05 3.05l-3.85-.45q5.25-.5 9.05-4.05 3.8-4.05 3.8-9.5" transform="translate(61.5 60)"/><path fill-rule="evenodd" fill-opacity=".471" fill="#fe98db" d="M1-34.1q-.05-1.25-.95-2.1-.8-.85-2.05-.85-1.3 0-2.25.85-.6.65-.7 1.5v.6l.45 1.9.25.25q.95.85 2.25.85 1.25 0 2.05-.85.9-.8.95-2.15m13.3-5.8q4.25 4.25 4.25 10.2 0 5.95-4.25 10-4.05 4.25-10 4.25T-5.9-19.7q-4.05-4.05-4.05-10t4.05-10.2q4.25-4.05 10.2-4.05 5.95 0 10 4.05" transform="translate(61.5 60)"/><path fill-rule="evenodd" fill="#fff" d="M1-34.1q-.05 1.35-.95 2.15-.8.85-2.05.85-1.3 0-2.25-.85l-.25-.25-.45-1.9v-.6q.1-.85.7-1.5.95-.85 2.25-.85 1.25 0 2.05.85.9.85.95 2.1" transform="translate(61.5 60)"/><path stroke-width="1.75" stroke-linejoin="round" stroke-linecap="round" stroke="#f39" fill="none" d="M75.8 20.1q4.25 4.25 4.25 10.2 0 5.95-4.25 10-4.05 4.25-10 4.25T55.6 40.3q-4.05-4.05-4.05-10t4.05-10.2q4.25-4.05 10.2-4.05 5.95 0 10 4.05z"/><path fill-rule="evenodd" fill-opacity=".243" fill="#ff037b" d="M13.8-32.55q0-2.15-.45-4.05 2.6 3.1 2.6 7.4 0 4.25-3.1 7.6-3.3 3.05-8.05 3.05L.95-19q5.25-.5 9.05-4.05 3.8-4.05 3.8-9.5" transform="translate(61.5 60)"/><path fill-rule="evenodd" fill-opacity=".471" fill="#fe98db" d="M-46.3-14.7q-.6.65-.7 1.5v.6l.45 1.9.25.25q.95.85 2.25.85 1.25 0 2.05-.85.9-.8.95-2.15-.05-1.25-.95-2.1-.8-.85-2.05-.85-1.3 0-2.25.85m-1.65-3.7q4.25-4.05 10.2-4.05 5.95 0 10 4.05 4.25 4.25 4.25 10.2 0 5.95-4.25 10-4.05 4.25-10 4.25t-10.2-4.25Q-52-2.25-52-8.2t4.05-10.2" transform="translate(61.5 60)"/><path fill-rule="evenodd" fill="#fff" d="M-46.3-14.7q.95-.85 2.25-.85 1.25 0 2.05.85.9.85.95 2.1-.05 1.35-.95 2.15-.8.85-2.05.85-1.3 0-2.25-.85l-.25-.25-.45-1.9v-.6q.1-.85.7-1.5" transform="translate(61.5 60)"/><path stroke-width="1.75" stroke-linejoin="round" stroke-linecap="round" stroke="#f39" fill="none" d="M13.55 41.6q4.25-4.05 10.2-4.05 5.95 0 10 4.05Q38 45.85 38 51.8q0 5.95-4.25 10-4.05 4.25-10 4.25t-10.2-4.25q-4.05-4.05-4.05-10t4.05-10.2z"/><path fill-rule="evenodd" fill-opacity=".243" fill="#ff037b" d="M-28.25-11.05q0-2.15-.45-4.05 2.6 3.1 2.6 7.4 0 4.25-3.1 7.6-3.3 3.05-8.05 3.05l-3.85-.45q5.25-.5 9.05-4.05 3.8-4.05 3.8-9.5" transform="translate(61.5 60)"/></g><use xlink:href="#a" width="118.55" height="88.2" id="f"/><use xlink:href="#b" width="117.9" height="130.45" id="h"/><use xlink:href="#c" width="102.95" height="45" id="i"/><path stroke-width="3" stroke-linejoin="round" stroke-linecap="round" stroke="#44371c" fill="none" d="M50.1 5.1q-3.75-3.6-8.8-3.6l-4.15.65q-2.5.85-4.5 2.9-2.55 2.5-3.4 5.65l-.05.25-.1.4-1.95.25-.55.5q-.65.85.55 1.7l1.75.65.2.05-2.15.45q-3.9 1.1-7.2 3.45l-2.95 2.4-.95 1.25q-3.5 4.3-8.35 15.5-4.9 11.15-5.65 20l-.15 4.4q-.6 2.8.85 5.85 5.75 5.45 9.9 4.05 7.9-2.4 8.15-8.7l1.55.25q.45-5.9-2.6-11.15-1.8-3.6-2-10.9-.15-6.6 1-10.5.9-3.05 3.6-6.75l1.6-2.1q4.4-5.55 7.25-5.15.15 2.15 1.1 3.95.75 1.3 1.95 2.45 2.95 3.15 7.2 3.15 4.25.05 7.4-3.05 3-3 3-7.25v-.9l1.9-.6 2.15-.8q1.4-1.2 0-2.05l-2.3-.8-.05.15-.05-.15-.7-2.15L50.85 6l-.75-.9z" id="e"/><path fill-rule="evenodd" fill-opacity="0" fill="#f0f" d="M0 0h102.95v45H0V0" id="c"/></defs><path fill="none" d="M-1-1h95v126H-1z"/><use x="40.05" y="161.5" xlink:href="#d" width="381" transform="translate(-192.55 -294)" height="381"/><use xlink:href="#e" width="57.9" transform="translate(2.586 30.375) scale(1.1203)" height="73.65"/><use x="104.171" y="211.633" xlink:href="#f" width="118.55" transform="matrix(-.5393 .4547 .4547 .5393 22.455 -167.806)" height="88.2"/><use xlink:href="#g" width="55.1" transform="translate(4.155 31.943) scale(1.1203)" height="81.4"/><use x="104.171" y="211.633" xlink:href="#h" width="117.9" transform="matrix(-.5393 .4547 .4547 .5393 6.24 -172.721)" height="130.45"/><use x="-84.108" y="-79.816" xlink:href="#i" width="102.95" transform="matrix(1.8072 0 0 1.6538 92.15 147.5)" height="45"/></svg>