<svg width="175" height="182" xmlns="http://www.w3.org/2000/svg" xmlns:xlink="http://www.w3.org/1999/xlink"><defs><g id="f" stroke-opacity="0" stroke-linejoin="round" stroke-linecap="round" stroke="#f0f" fill="none"><path d="M187.95-293.5v380h-380v-380h380M92.95.6H-97" transform="translate(192.55 294)"/><path d="m187.95-293.5-190 190 190 190m-380-380 190 190L-192 86.5" transform="translate(192.55 294)"/></g><g transform="translate(.3)" id="g"><use xlink:href="#a" width="76.2" height="80.7"/><use xlink:href="#b" width="1.7" transform="matrix(2.746 -.6482 .4592 1.9451 15.2 26)" height="1.65"/><use xlink:href="#c" width="2.2" transform="translate(17.2 20.3)" height="1.6"/><use xlink:href="#b" width="1.7" transform="matrix(1.4087 .0502 -.0355 .9978 21.05 27.1)" height="1.65"/><use xlink:href="#b" width="1.7" transform="matrix(2.746 -.6482 .4592 1.9451 39.75 41.7)" height="1.65"/><use xlink:href="#b" width="1.7" transform="matrix(1.4087 .0502 -.0355 .9978 39 55.85)" height="1.65"/><use xlink:href="#b" width="1.7" transform="matrix(19.0888 -4.5063 4.2495 18.0015 20.85 36.65)" height="1.65"/><use xlink:href="#d" width="75.85" transform="translate(-.3 7.5)" height="73.35"/></g><g id="a"><path fill-rule="evenodd" fill="#d8e2da" d="m76.2 3.55-.15-.05-1.15 5.35-1 3.35q-2.2 3.7-4.4 2.8Q72.65 7.8 74.45.25l1.3-.25.45 3.55m-13.9 24.9q2.85-4.5 5.2-9.15l1.3-2.75 4.25-1.75-1.7 4.5-1.3 3.1-1.6 3.4-1.05 2.15q-3.35 1.85-5.1.5M59.9 32l1-1.45q5.75-1.8 5.4-.45L65 32.4l-1.4 2.4-3.7-2.8"/><path fill-rule="evenodd" fill="#eca800" d="m58.15 30.9.1-.1L59.9 32l3.7 2.8 1.95 1.5 1.75 1.3-1.8 1.6-.15-.1-9.05-6.55 1.85-1.65"/><path fill-rule="evenodd" fill="#d39401" d="M53.75 32.65v-.15l1.8-1.4 2.45-.4.15.2-1.85 1.65-.1.05-2.45.05"/><path fill-rule="evenodd" fill="#ad7901" d="m56.3 32.55 9.05 6.55v.1l.05 4.1-2.2.4-1.9-.95.05-1.25 1.05-.35.35-1.55-6.2-4.3-2.2.35-.95-.85.25-2.15h.1l2.45-.05.1-.05"/><path fill-rule="evenodd" fill="#c30" d="m38.25 39.05.1-.05v.2l-.1-.15"/><path fill-rule="evenodd" fill="#4d4d26" d="m54.35 35.65 2.2-.35 6.2 4.3-.35 1.55-1.05.35-.05 1.25-.1 2.4-2.75.7-.7-1.6 1.1-.4-.3-4.25-4.2-3.95"/><path fill-rule="evenodd" fill="#a92201" d="M31.3 59.65h-.05l-.15-.05h-.05v-.05l.3.1h-.05"/><path fill-rule="evenodd" fill="#feb918" d="m65.5 39.2 1.8-1.6.05 4.1-1.95 1.6-.05-4.1h.15"/><path fill-rule="evenodd" fill="#8c8b3c" d="m5.25 23.4.1.1-.15-.05.05-.05"/><path fill-rule="evenodd" fill="#605f2b" d="m25.25 28.4 3.2-.9q.2-3.65-1.05-6.25l-1.45-1.45q-3.25-3.1-7.35-4.5l2.45.15q4.65.75 6.95 3.65l3.95 3 .8 2.2.2 2-.1 2.45-6.75 3.2.05-2-.85-1.5.45-.15-.45.1h-.05M17.9 65.35 20.3 67l7.95 2.4L28 71l.35 4.7-5.4-2.95-5.65-2.8-3.05.3 1-2.4 2.65-2.5"/><path fill-rule="evenodd" fill="#b1b64e" d="m5.35 23.5 1.25.4q1.65.25 3.35 1.45l.4.2-.35.05 1.65 1.55 2.55 4.8-2.5 2.35-.05 3.7-3.5 2.15-3.7.15-2.65-2.65-.6-2.4Q.1 30.2.5 27.7l.05-.2Q1 24.95 1.9 24.7l2.65-.95.65-.3.15.05m-.5 15.6.95.5-.95-.5M42.8 70.5l1.85-.05.35 1.45.3 1.05.25.9.05.25-.55 1.1-2.05-.55-.9-.8-2.3-2.05 3-1.3"/><path fill-rule="evenodd" fill="#f9f9f9" d="m21.65 20.35-2.1-1.1.5.05 1.6 1.05"/><path fill-rule="evenodd" fill="#8d8d3a" d="M27.1 79.8v-.05l.25-.15-.25.2"/><path fill-rule="evenodd" fill="#4a4d20" d="m32.75 70.55 5.6-.05 1.45 1.3 2.3 2.05-1.5.4-9.6-.65-.1-.9 1.7-1.25.15-.9m11.9-.1h2l-.7 2.3-.65.2-.3-1.05-.35-1.45m-31.55 4.1-.3 1.8-.3.05-2.2.5-.5-.45.3-1.2 3-.7"/><path fill-rule="evenodd" fill="#fff" d="m74.85 11.65-.95.55 1-3.35 1.15-5.35.15.05-1.35 8.1m-1.8 3.15 1.15-.5-1.4 5q-1.35 4.25-3.1 8.4l-2.3.25 1.05-2.15 1.6-3.4 1.3-3.1 1.7-4.5m-7.5 21.5-1.95-1.5 1.4-2.4 1.3-2.3 2.45-.2-3.2 6.4M65 32.4h1.2H65"/><path fill-rule="evenodd" fill="#bccdbe" d="m73.9 12.2.95-.55-.6 2.45-.05.2-1.15.5.85-2.6"/><path fill-rule="evenodd" fill="#c2d3c4" d="m69.7 27.7-.95 2.2-2.45.2 1.1-2.15 2.3-.25"/><path fill-rule="evenodd" fill="#7b9b7c" d="m73.9 12.2-.85 2.6-4.25 1.75.7-1.55q2.2.9 4.4-2.8M62.3 28.45q1.75 1.35 5.1-.5l-1.1 2.15q.35-1.35-5.4.45l1.4-2.1"/><path fill-rule="evenodd" fill="#bbbb5b" d="M25.25 28.45v-.05h.05l.45-.1-.45.15h-.05"/><path fill-rule="evenodd" fill="#c00" d="m38.25 39.05-.3-.3.3.3m-.45 11.5 1-2.45-.95 2.5-.05-.05m-5.95 9.15-.15-.05.2-.05-.05.1m-2.25 2 .15-.1v.05l-.1.05v.05l-.3.2.25-.25"/><path fill-rule="evenodd" fill="#f60" d="m46.5 30.3-.5-.15.5-.15v.3M36.35 40.4l-.05-.1.1.05-.05.05"/><path fill-rule="evenodd" fill="#a22e02" d="m55.2 59.6-.05-.1h.3l-.25.1m-28.7-.45h.05l1.85.25-1.85-.2-.05-.05"/><path fill-rule="evenodd" fill="#bf3502" d="m31.1 59.6.15.05h.05l.6.6-.8-.65"/><path fill-rule="evenodd" fill="#5a5925" d="m19.7 23.9-.9.05h1.6l4.75 4.4.1.05v.05L16.95 31l-5.25 3.3 2.5-2.35-2.55-4.8L10 25.6l.35-.05 1.05.45.75-.3 2.2-.95 1.2-.9 1.4.05h2.75"/><path fill-rule="evenodd" fill="#717030" d="m21.1 21.4.55-1.05-1.6-1.05-.5-.05-4.4-.5-4.55 5-.15.55-.15.65-.35.4q-1.7-1.2-3.35-1.45l-1.25-.4-.1-.1.55-.4q.7-.55 1-1.4.4-1.6 6.25-4.7.45-.25.85-.4l4.7-1.2q4.1 1.4 7.35 4.5l1.45 1.45q1.25 2.6 1.05 6.25l-3.2.9-.1-.05-4.75-4.4h-1.6l.9-.05 1.4-2.5M9.25 24.25l1.05.7-1.05-.7"/><path fill-rule="evenodd" fill="#8b853d" d="m11.7 34.3 5.25-3.3 8.3-2.55h.05l.85 1.5-.05 2-6.55 3.1h-.05l-1.1 1.4-.8 3.35-3.1 1.8H5.8q-2.55 0-3-1-.55-1.15-1-2.95l2.65 2.65 3.7-.15 3.5-2.15.05-3.7"/><path fill-rule="evenodd" fill="#b9b15e" d="m46 28.9-2.35.2-2.35.2-13.75 5.65-1.9 2.3-3.3 13.3.3 6.75 5.15 6.95-9.6-4.8-2.6-4.55v-.2l-.35-4.95 2.35-9.95.8-3.35 1.1-1.4h.05l6.55-3.1 6.75-3.2 3.2-1.5 7.95.4 2 1.25m-17.9 4.35 10.75-4.4-10.75 4.4m15.55-4.15-4.05-.3 4.05.3"/><path fill-rule="evenodd" fill="#686b2c" d="m55.15 59.5.05-.1.25.1h-.3m-25.8 2.45-.25-.3.5.05-.25.25"/><path fill-rule="evenodd" fill="#968943" d="m8.1 55.3-1.25 1.75-.55 2.45-1.1.15-.15-1.1-3 .6.95-.7 2.45-1.85 2.65-1.3"/><path fill-rule="evenodd" fill="#808035" d="m55.45 59.5.2.1-.1.2-.35-.2.25-.1"/><path fill-rule="evenodd" fill="#930" d="m53.4 34.8.95.85 4.2 3.95.3 4.25-1.1.4.7 1.6 1.35 3.2-1.4 9.1-1.9.35.25 2.05-6.55 6.85-1.95.3v.15l-8.2.55-10.4-1.65-1.85-2.5-5.15-6.95-.3-6.75 3.3-13.3 1.9-2.3L41.3 29.3l2.35-.2 2.35-.2.5.3v.8l-.5.15.5.15v.1l2.05-.15 4.85 4.55m1.8 24.6 1.6-3.65 1.5-6.9-1.5-3.8-.1-4.2L54.1 37l-4.4-4.25-1.75-.7-7.65.05-2.25 5.95 3.7 2.7 3.95.3 4.4.3h.5l2.1.6h.05l2.05.65-1.1.1-1.2-.15-.95 2.95.2-2.8-2.45-.5.15 4.15-1.45-4.6-5.6-.35-1.65 1.9-2.1 9.6 2.85.55L38 54.6l-.15.5 1.25 1.5 4.8 3.1 2-3.95-1.25 4.6 1.3.9 6.15-1.85 3.05.1.05.1-9.25 2.85-8.55-4.85q-2.45 2.8 3.4 7.7l8.5.75 5.6-5.1.65-1.15.1-.2-.2-.1-.25-.1M38.25 39.05l.1.15V39l-.1.05-.3-.3.3.3m-1.85 1.3-.1-.05.05.1-2.6-1.05q-6.2 13.4 3.1 13.9l1-2.65.95-2.5-1 2.45 1.15-6.75-.3-2.25-2.25-1.2M31.85 59.7l.05-.1-.2.05.15.05m-.75-.1.8.65-.6-.6h.05l-.3-.1v.05h.05m-4.6-.45.05.05 1.85.2-1.85-.25h-.05m2.85 2.8.3-.2v-.05l.1-.05v-.05l-.15.1-.5-.05.25.3"/><path fill-rule="evenodd" fill="#c73701" d="m55.55 59.8-.65 1.15-5.6 5.1-8.5-.75q-5.85-4.9-3.4-7.7l8.55 4.85 9.25-2.85.35.2m-19.2-19.4.05-.05 2.25 1.2.3 2.25-1.15 6.75.05.05-1 2.65q-9.3-.5-3.1-13.9l2.6 1.05"/><path fill-rule="evenodd" fill="#eb4101" d="m45.7 41.05-3.95-.3-3.7-2.7 2.25-5.95 7.65-.05 1.75.7L54.1 37l2.6 3.85.1 4.2 1.5 3.8-1.5 6.9-1.6 3.65-.05.1-3.05-.1-6.15 1.85-1.3-.9 1.25-4.6-2 3.95-4.8-3.1-1.25-1.5.15-.5 3.5-1.15-2.85-.55 2.1-9.6 1.65-1.9 5.6.35 1.45 4.6-.15-4.15 2.45.5-.2 2.8.95-2.95 1.2.15 1.1-.1-2.05-.65h-.05l-2.1-.6h-.5l-4.4-.3-.85-2.25.85 2.25m4-1.4.4 1.7-.4-1.7"/><path fill-rule="evenodd" fill="#a99a49" d="m27.8 64.25 1.85 2.5 10.4 1.65 8.2-.55h.05l.4 1.5-1.4 1.1h-2.65l-1.85.05h-4.45l-5.6.05h-.65l-3.85-1.15L20.3 67l-2.4-1.65-1.7-1.2-.6-9.25 2.6 4.55 9.6 4.8"/><path fill-rule="evenodd" fill="#e1dbbb" d="m11.75 22.75.4.4 4.1-2.8 4.85 1.05-1.4 2.5h-2.75l-1.4-.05-1.2.9-2.2.95-.4-2.95"/><path fill-rule="evenodd" fill="#d3c79e" d="m21.65 20.35-.55 1.05-4.85-1.05-4.1 2.8-.4-.4-1.3 1.55.15-.55 4.55-5 4.4.5 2.1 1.1"/><path fill-rule="evenodd" fill="#f7b5ac" d="m10.45 24.3 1.3-1.55.4 2.95-.75.3-1.05-.45-.4-.2.35-.4.15-.65"/><path fill-rule="evenodd" fill="#786d36" d="m14.5 41.6 3.1-1.8-2.35 9.95.35 4.95-4.5-.95-3 1.55-2.65 1.3L3 58.45l3.85-6.4 2.8-2.2.5-5.5 4.35-2.75"/><path fill-rule="evenodd" fill="#938642" d="m2.05 59.15-1.25.9L0 58.7l2.05-5.65q.8-2.75 3.75-5.45l2.5-2.05.05-.05 1.8-1.15-.5 5.5-2.8 2.2L3 58.45l-.95.7m12.2 11.1 3.05-.3 5.65 2.8 5.4 2.95.2 2.8-1.2 1.1-.25.15v.05l-.75.65-8.8.25-6.1-.6 1.35-2.75-.3-.95.3-.05.3-1.8q.35-2.15 1.15-4.3"/><path fill-rule="evenodd" fill="#7b7b33" d="M38.35 70.5h4.45l-3 1.3-1.45-1.3"/><path fill-rule="evenodd" fill="#cabe84" d="m12.5 76.4.3.95-1.35 2.75-2.3-.25v-2.2l1.15-.75 2.2-.5"/><path stroke-width=".05" stroke-linejoin="round" stroke-linecap="round" stroke="#464320" fill="none" d="m65.35 39.1.15.1m-.15 0v-.1m-9.05-6.55-.1.05"/><path stroke-width=".05" stroke-linejoin="round" stroke-linecap="round" stroke="#fff0ce" fill="none" d="m58.15 30.9-1.85 1.65m9.2 6.65 1.8-1.6"/><path stroke-width=".05" stroke-linejoin="round" stroke-linecap="round" stroke="#e8e7c6" fill="none" d="m19.7 23.9-.9.05h1.6l4.75 4.4"/><path stroke-width=".05" stroke-linejoin="round" stroke-linecap="round" stroke="#3a371b" fill="none" d="m12.15 25.7 2.2-.95 1.2-.9 1.4.05m-6.6 1.65 1.05.45.75-.3m-2.2-.35.4.2"/><path stroke-width=".05" stroke-opacity=".631" stroke-linejoin="round" stroke-linecap="round" stroke="#000" fill="none" d="m10.3 24.95-1.05-.7"/><path stroke-linejoin="round" stroke-linecap="round" stroke="#545025" fill="none" d="m21.65 20.35-2.1-1.1-4.4-.5-4.55 5m11.05-3.4-1.6-1.05-.5-.05"/><path stroke-width=".05" stroke-linejoin="round" stroke-linecap="round" stroke="#504f23" fill="none" d="m58.15 30.9.1-.1L59.9 32m-6.15.65v-.15l1.8-1.4 2.45-.4.15.2m9.15 6.7-1.75-1.3m-4.25 6.45 1.9.95 2.2-.4M53.75 32.65h-.1l-.25 2.15-4.85-4.55-2.05.15v-.1m0-.3v-.8l-.5-.3-2.35.2-2.35.2-13.75 5.65-1.9 2.3-3.3 13.3.3 6.75 5.15 6.95 1.85 2.5 10.4 1.65 8.2-.55v-.15l1.95-.3 6.55-6.85-.25-2.05 1.9-.35 1.4-9.1-1.35-3.2m-25.6-17.1 3.2-1.5 7.95.4 2 1.25m21.3 8.7.05 4.1-1.95 1.6m-4.1-.55-.1 2.4-2.75.7M18.6 15.3l-4.7 1.2q-.4.15-.85.4Q7.2 20 6.8 21.6q-.3.85-1 1.4l-.55.4m27.6 5.35.1-2.45-.2-2-.8-2.2-3.95-3q-2.3-2.9-6.95-3.65l-2.45-.15M1.8 37.65l-.6-2.4Q.1 30.2.5 27.7l.05-.2Q1 24.95 1.9 24.7l2.65-.95.65-.3m20.9 8.5 6.75-3.2M17.6 39.8l.8-3.35 1.1-1.4h.05l6.55-3.1m-24.3 5.7q.45 1.8 1 2.95.45 1 3 1h8.7m3.1-1.8-2.35 9.95.35 4.95-4.5-.95-3 1.55-1.25 1.75-.55 2.45-1.1.15-.15-1.1-3 .6-1.25.9L0 58.7l2.05-5.65q.8-2.75 3.75-5.45l2.5-2.05.05-.05 1.8-1.15 4.35-2.75m-8.7-2-.95-.5M17.9 65.35l-2.65 2.5-1 2.4m14.1 5.45L28 71l.25-1.6 3.85 1.15h.65l-.15.9-1.7 1.25.1.9 9.6.65 1.5-.4m4.55-3.4h.65l1.4-1.1-.4-1.5h-.05M15.6 54.9l.6 9.25 1.7 1.2M11.45 80.1l6.1.6 8.8-.25.75-.65m.25-.2 1.2-1.1-.2-2.8M10.3 76.9l-1.15.75v2.2l2.3.25m-1.15-3.2-.5-.45.3-1.2 3-.7q.35-2.15 1.15-4.3m31.05 2.7.65-.2.7-2.3m-1.1 3.4.05.25-.55 1.1-2.05-.55-.9-.8"/><path stroke-width=".05" stroke-linejoin="round" stroke-linecap="round" stroke="#930" fill="none" d="m45.7 41.05-.85-2.25m5.25 2.55-.4-1.7"/><path stroke-width=".05" stroke-linejoin="round" stroke-linecap="round" stroke="#9ff05e" fill="none" d="m45 71.9.3 1.05.25.9"/><path stroke-width=".05" stroke-linejoin="round" stroke-linecap="round" stroke="#eddda9" fill="none" d="m38.85 28.85-10.75 4.4"/><path stroke-linejoin="round" stroke-linecap="round" stroke="#eddda9" fill="none" d="m39.6 28.8 4.05.3"/><path stroke-linejoin="round" stroke-linecap="round" stroke="#fff" fill="none" d="M66.2 32.4H65"/><path stroke-width=".05" stroke-linejoin="round" stroke-linecap="round" stroke="#7b7b5a" fill="none" d="m65.55 36.3-1.95-1.5-3.7-2.8"/><path stroke-width=".05" stroke-opacity=".502" stroke-linejoin="round" stroke-linecap="round" stroke="#7a7a58" fill="none" d="m74.85 11.65 1.35-8.1L75.75 0l-1.3.25Q72.65 7.8 69.5 15m4.7-.7.05-.2.6-2.45m-6.05 4.9-1.3 2.75q-2.35 4.65-5.2 9.15m6.5-11.9.7-1.55m.2 12.7q1.75-4.15 3.1-8.4l1.4-5M59.9 32l1-1.45 1.4-2.1m6.45 1.45.95-2.2m-.95 2.2-3.2 6.4"/><path fill-rule="evenodd" fill="#9d8431" d="m5.5 25.3-.6.45-.8.15-.35-.2q-.1-.15.15-.4t.65-.4l.7-.15.45.2-.2.35"/><path fill-rule="evenodd" fill="#fff" d="M71.65 22.15q-.4.35-.9.35-.55 0-.9-.35t-.35-.9q0-.5.35-.9.35-.35.9-.35.5 0 .9.35.35.4.35.9 0 .55-.35.9m-5.8 17.2-.6.25-.6-.25q-.25-.2-.25-.6 0-.35.25-.55.25-.25.6-.25t.6.25l.25.55-.25.6"/><path fill-rule="evenodd" fill="#8c8b3c" d="m13.95 27.15-2.6-.9 4.45-1.8-1.85 2.7"/><path fill-rule="evenodd" fill="#cbd14b" d="M13.15 29.55q-2.45-3.2-6.75-5.8l2.85.75q.95.2 3.9 5.05"/><path stroke-width="3" stroke-linejoin="round" stroke-linecap="round" stroke="#545025" fill="none" d="m20.05 21.55-1.2-1.05"/></g><g id="d"><path stroke-width=".05" stroke-linejoin="round" stroke-linecap="round" stroke="#959440" fill="none" d="M4.1 30.15q-2-4.35-2.45-8.45"/><path fill-rule="evenodd" fill="#9d8431" d="M1.15 26.1q.35 0 .45.2l-.2.35-.6.45-.2.05.25-1 .3-.05" transform="translate(.3 -7.5)"/><path fill-rule="evenodd" fill="#fff" d="M75.2 9.65q-.4.35-.9.35-.55 0-.9-.35t-.35-.9q0-.5.35-.9.35-.35.9-.35.5 0 .9.35.35.4.35.9 0 .55-.35.9" transform="translate(.3 -7.5)"/><path stroke-width=".5" stroke-linejoin="round" stroke-linecap="round" stroke="#504f23" fill="none" d="m65.8 28.7 1.75 1.3.05 4.1-1.95 1.6-2.2.4-1.9-.95-.1 2.4-2.75.7 1.35 3.2-1.4 9.1-1.9.35.25 2.05-6.55 6.85-1.95.3v.15h.05l.4 1.5-1.4 1.1h-.65l-.7 2.3-.65.2.3 1.15-.55 1.1-2.05-.55-.9-.8-1.5.4-9.6-.65-.1-.9 1.7-1.25.15-.9h-.65L28.5 61.8l-.25 1.6.55 7.5-2.2 1.95-8.8.25-8.4-.85v-2.2q.5-.45 1.15-.75l-.5-.45.3-1.2 3-.7q.35-2.15 1.15-4.3l1-2.4 2.65-2.5-1.7-1.2-.6-9.45-4.5-.95-3 1.55-1.25 1.75-.55 2.45-1.1.15-.15-1.1-3 .6-1.25.9-.8-1.35 2.05-5.65Q3.1 42.7 6.05 40q1.1-1.05 2.5-2.05l.05-.05 6.15-3.9h-8.7q-2.55 0-3-1-.55-1.15-1-2.95l-.6-2.4Q.35 22.6.75 20.1l.05-.2.3-1.35q.4-1.3 1.05-1.45l2.65-.95.65-.3.05-.05.55-.4q.7-.55 1-1.4.4-1.6 6.25-4.7l.85-.4 4.7-1.2 2.45.15q4.65.75 6.95 3.65l3.95 3 .8 2.2.2 2-.1 2.45 3.2-1.5 7.95.4 2.5 1.55v1.2l2.05-.15 4.85 4.55.25-2.15h.1v-.15l1.8-1.4 2.45-.4.15.2.1-.1 1.65 1.2"/></g><path fill-rule="evenodd" fill-opacity=".361" fill="#c9c" d="m1.45 1.4-.6.25-.6-.25L0 .8Q0 .45.25.25.5 0 .85 0t.6.25L1.7.8l-.25.6" id="b"/><path stroke-linejoin="round" stroke-linecap="round" stroke="#fff" fill="none" d="m17.7 21.4 1.2-.6" transform="translate(-17.2 -20.3)" id="c"/><path fill-rule="evenodd" fill-opacity="0" fill="#f0f" d="M0 0h102.95v45H0V0" id="e"/><use xlink:href="#e" width="102.95" height="45" id="h"/></defs><path fill="none" d="M-1-1h177v184H-1z"/><use x="93.55" y="203.5" xlink:href="#f" width="381" transform="translate(-192.55 -294)" height="381"/><use x="-41.896" y="91.137" xlink:href="#g" width="76.5" transform="matrix(-2.2329 0 0 2.2329 79.52 -202.65)" height="80.85"/><use x="-54.504" y="-54.42" xlink:href="#h" width="102.95" transform="matrix(1.8072 0 0 1.6538 96 121.6)" height="45"/></svg>