<svg width="168" height="189" xmlns="http://www.w3.org/2000/svg" xmlns:xlink="http://www.w3.org/1999/xlink"><defs><use xlink:href="#a" width="81.15" height="91.95" id="d"/><use xlink:href="#b" width="102.95" height="45" id="e"/><g id="c" stroke-opacity="0" stroke-linejoin="round" stroke-linecap="round" stroke="#f0f" fill="none"><path d="M187.95-293.5v380h-380v-380h380M92.95.6H-97" transform="translate(192.55 294)"/><path d="m187.95-293.5-190 190 190 190m-380-380 190 190L-192 86.5" transform="translate(192.55 294)"/></g><g id="a"><path fill-rule="evenodd" fill="#84921d" d="M12.8-43.2h.1l-.05.15-.05-.15m12.1 25.85-.05.1-.2-.2.25.1" transform="translate(38.2 84.9)"/><path fill-rule="evenodd" fill="#b5bf64" d="m-14.7-68.55.25-.15.7-.2-.95.35M-2.1-55.8l.65-1-.1.85-.55.15" transform="translate(38.2 84.9)"/><path fill-rule="evenodd" fill="#68702e" d="m-24.45-28.25-.2.4-2.35.55-.6-.3-2.1-1.05-.75-.4-.4-1.1 2.75.15 2.45-2.65-1.3-2.95 2.55 1 .1-.2 1.25.45.95.3.55.3-.2.25-.1-.05.05.1.2.3.35.7.05.05h-.05l-.7 2.55h-1.15l-1.15 1.4-.05-.05-.15.25m3.2-4.2v.05-.05m-1.85 2.6h-.75l-.55-4.75.55 4.75h.75m10.55 18.3 6.9-.3-3.05 1.35-1.25 2-.05.05-.15.2-1.1-1.5-1.3-1.8" transform="translate(38.2 84.9)"/><path fill-rule="evenodd" fill="#fff" d="m-23.9-50.95.25-1.45 1.85.45.1.05v.75l-.45.05h-.2l-.1.05h-.05l-1.3.1h-.1" transform="translate(38.2 84.9)"/><path fill-rule="evenodd" fill="#2e2d01" d="m.95-40.6.5.25 4.4 2.1-.05.55 1 2.85.3.95-1 6.25-.4-1.6-.25-.4-.55-4.2-.3-.45h.1v-.05l-.25-1.4-2.75-3-.1.1L.35-37.5l-.4-1.2 1-1.9m-10.25 5-2.9-.55 2.25-.7.6 1.2.05.05m-5.05-.65-.3.2-1.6.95-.1 1.3-.45.5-2.35.15 2.85-2.4 1.95-.7" transform="translate(38.2 84.9)"/><path fill-rule="evenodd" fill="#eff38b" d="m1.7-38.75-.1.1.1-.1" transform="translate(38.2 84.9)"/><path fill-rule="evenodd" fill="#584a1b" d="m-23.05-34.35 4.95-4.4 2.1.85-5.6 4.75-.2-.3.05-.05.2-.25-.55-.3-.95-.3" transform="translate(38.2 84.9)"/><path fill-rule="evenodd" fill="#a3a745" d="m-23.95-50.65.05-.25.1-.05 1.3-.1-1.45.4m.3-1.75-.1-.2v-.05l-1.3-3.45-.1-1.2.05-.3 1.9-2.6.15-.15.2-.25.15-.1 2.4-2.7 3.75-3.8.45-.4 1.4-.95.95-.35 4.25-1q2.55-.55 7.8.6l4.2 4.5-1 .2-1 .4-.35.2-2.85 1.5-.2.1q-2.8 3.1-2.2 6.65l.1.6.4 1.25h-.05l-.75.9-.65.8-2.9-1.2H-9l-5.75-.95-.65.15 1.65-.75-6.35 2.4-1.6 1.2v-.55l-.1-.05-1.85-.45" transform="translate(38.2 84.9)"/><path fill-rule="evenodd" fill="#b1b64e" d="M-.9-16.5q-.55 1.1-.35 4.85-1.2 2.6-1.4-.9l-.05-1.2h-.1l-1.75-.5q-1.5-2.25.7-3.2l1.7.55h1.5l-.25.4m-3.05.7.95.4.2 1.65-.2-1.65-.95-.4" transform="translate(38.2 84.9)"/><path fill-rule="evenodd" fill="#888839" d="m-1.7-69.3 4 1.05q3.25 2.6 5.65 6.05l-.8.85-.75.7-2.75-2.9-.5-.55-.45-.5-.2-.2-4.2-4.5" transform="translate(38.2 84.9)"/><path fill-rule="evenodd" fill="#959440" d="M10.45-57.35q.3 1.55.2 3.45l-.1 1.2q-.5 3.55-1.85 5.65l-.05.15-1.45 1.5q-1.9 1.55-5.7 3.5l-.2.15-2.55.8-.8.25-2.2.7-4.8 1.35 4.2-2.15q2.85-1.65.8-6.25-.8-1.7-2.25-3.85L6-54.55l1.15-6.8.8-.85 1.75 2.75.2.35.55 1.75" transform="translate(38.2 84.9)"/><path fill-rule="evenodd" fill="#474601" d="m-9-35.55-.3-.05-.05-.05.35.1M4.6-34.3l.3.45.55 4.2-.45-.6-1.7-2.45v-1.75l1.3.15" transform="translate(38.2 84.9)"/><path fill-rule="evenodd" fill="#cbd14b" d="M-2.6-28.7q1.4-1.25 5.1 7.05l-.2 2.75-2.15 2.65-.05.05-1-.3.25-.4h-1.5l-1.7-.55.9-1.4q1.55-4.7.35-9.85m-20.6-19.4-1.05-.6 1.35-1.7-.3 2.3" transform="translate(38.2 84.9)"/><path fill-rule="evenodd" fill="#8d8d3a" d="m-6.6 4-1.05.65Q-7.7 3.5-8.15 3q-.4-.45-1.05-.45l-1.5.25-.35-.15-1.35-5.35-.35-1.35 1.5-5.7 1.1 1.5.15-.2.05-.05 5.1 3.2 3.15 6.75-.15.65-1.9.75-.5.15-.9.35-1.45.6V4M6.1-27.65q.65 2.45.05 6.5L5.8-18.9l-.9 2.75-.15 2.85-1.85 1.35-.85.45-1.5.8-.8.5H-.3l-2.3-.4-.05-1.75v-.2q.2 3.5 1.4.9-.2-3.75.35-4.85l1 .3.05-.05L2.3-18.9l.2-2.75q-3.7-8.3-5.1-7.05v-1.2l.05.05L1.2-32.2 5-30.25l.45.6.25.4.4 1.6m-5 14.85-.55 2.1.55-2.1m2.85-1.65-1.05 2.5 1.05-2.5m-1.5.75-.4 2.2.4-2.2M-9.8-3.1l1.9-2.55-2.15-.4.25 2.95" transform="translate(38.2 84.9)"/><path fill-rule="evenodd" fill="#4d4d26" d="m22.9-32.5.45 1.1-.45-1.05-.05-.1.05.05" transform="translate(38.2 84.9)"/><path fill-rule="evenodd" fill="#656432" d="M23.05-40.6h.05l.1.05-.1.05h-.05l.05-.05-.05-.05" transform="translate(38.2 84.9)"/><path fill-rule="evenodd" fill="#787732" d="m-.35-8.85-.1 1.55Q1.6-4.55 2.1-1.85q.3 1.8-.05 3.55l.95.8-.6 1.9L.7 5l-2.3-.6-.15.2-2-1.75 1.9-.75.15-.65-3.15-6.75-5.1-3.2 1.25-2 3.05-1.35 3-.5.05 1.75 2.3.4-.05 1.35M-6.4 4.3l-.2-.3v-.05l1.45-.6-1.25.95m3.8-34.2 1.55-2.65 4.1-2.4.25.5v1.75L5-30.25 1.2-32.2l-3.75 2.35-.05-.05" transform="translate(38.2 84.9)"/><path fill-rule="evenodd" fill="#747818" d="m23.05-40.6.05.05-.05.05v-.1" transform="translate(38.2 84.9)"/><path fill-rule="evenodd" fill="#f0c0b0" d="M-1.45-56.8v-.25l.15-.7 1.25.85-.55.5-.25.25-.7.2.1-.85" transform="translate(38.2 84.9)"/><path fill-rule="evenodd" fill="#e1dbbb" d="M-1.3-57.75q.8-3.3 4-3.8l.55 1 .5-.3.15 1.5.05.35.85-.1-1.25.3q-2 .55-3.6 1.9l-1.25-.85m3.5-1.15 1.7-.45-1.7.45" transform="translate(38.2 84.9)"/><path fill-rule="evenodd" fill="#91913e" d="m2.5-64.8.2.2.45.5.5.55 2.75 2.9L3.95-59l-.05-.35-.15-1.5-.5.3-.55-1q-3.2.5-4 3.8l-.15.7v.25l-.65 1-1.15.3-.1.15-.1.1-.1.1-.55.65-.5.6-.4-1.25-.1-.6q-.6-3.55 2.2-6.65l.2-.1L.15-64l.35-.2 1-.4 1-.2" transform="translate(38.2 84.9)"/><path fill-rule="evenodd" fill="#b9b15e" d="m14.55-18.35-.2.6-.55.6.75-1.2" transform="translate(38.2 84.9)"/><path fill-rule="evenodd" fill="#a99a49" d="m7.2-45.4 4.75.6.35.65-4.25 5.3 1.55 8.8L6.05-17.9l.15.5.45 1.8.6 2.4h.05l2.6-.3.15.3 3.75-3.95-3.4 6.4v.05l-.1.2-1.15.55-.8.5.65-.4-5.2 2.6-4.15-1.6.05-1.35h.05l.8-.5 1.5-.8.85-.45 1.85-1.35.15-2.85.9-2.75.35-2.25q.6-4.05-.05-6.5l1-6.25-.3-.95-1-2.85.05-.55-4.4-2.1-.5-.25.45-.85-.1-.3.2-.15q3.8-1.95 5.7-3.5M9-9.85l.15-.1-.15.1" transform="translate(38.2 84.9)"/><path fill-rule="evenodd" fill="#27635e" d="m25.45-36.25 1.35 2.65-.9 1.05h-.05v.05l.2.25.95 1.3 1.15 3.8-1.25 6.85-.3 1.7-1.65 1.3-.05-.05-.25-.1.2.2.1 2.25-2.85 2.2q-1.2.85-2.2 1.35l-.8.4-1.65.45h-.15l-2.55.25q-2.8-.6 1.3-6.45l7.4-1.1-2.45-.25-3.2-.8-.15-3.15q.55 1.8 2.15 3.2l.7.15 2.4.05.05-.05-.2.7 2.65-1.7q.95-2.9 1.15-5.5l.05-.45v-.2l-.1-2.65-1-2.4-2.05-.2h-.05l-.5-.35-.1-.1.05.2-2 .2-1.25.5-.15.1q-1.15 2.1-1.75 4.35l-.2.95-.15-3.15 1.95-3.35 3.95-1.4 1.75-.05.05-.15v-.9l-.15-1.2-.05-.3.6-.45M23.9-35.2v.05-.05m-1 2.7-.05-.05.05.1.45 1.05-.45-1.1m-3.95 5.55.2-.65 4.45.3.75 4-1.2 4-.15-.05q-2.25.35-3.55-1.2l-.9-1.3q-.2-2.65.4-5.1m-1.75 12.6.05.15 1.3.4-1-.15q-.15 0-.25-.15l-.1-.25m2.9-2.15q-.35-.4-.95-.25l-1.25.35q-1.8.75-1.65 2.65l.25.45.3.4 3.85.2.15-.1.3-.25.4-.3.4-.15.15-.2 1-1-.25-.4-.45-.15-.4.15-.95.8-2.1-1.35 1-.2.3-.4v-.1l-.1-.15" transform="translate(38.2 84.9)"/><path fill-rule="evenodd" fill="#215249" d="m12.9-43.2 6.7 1.75.3.05.3.1h.1l2.75.7v.1h.05l.1-.05 2.25 4.3-.6.45-.1-.25-.3-.85q-1.1-2.45-4.15-3.2l-1.7-.3q-.9.9-.35 2.5.65 1.75.9 3.6l1.15.45 2.95.65-3.95 1.4-1.95 3.35.15 3.15.15 3.2.15 3.15 3.2.8 2.45.25-7.4 1.1q-4.1 5.85-1.3 6.45L6.65-8.4l3.65-2.1.1-.2v-.05l3.4-6.4.55-.6.2-.6.1-.2.45-1.4 1-2.95.35-13.25-3.6-6.9.05-.15m11 8v.05l-2-.15-.05-.15q-.3-2.05-1.3-3.5 3 .75 3.35 3.75" transform="translate(38.2 84.9)"/><path fill-rule="evenodd" fill="#2e7061" d="m22.85-31.4-.05-.2.1.1-.05.1" transform="translate(38.2 84.9)"/><path fill-rule="evenodd" fill="#cabe84" d="m12.3-44.15.5.95.05.15 3.6 6.9-.35 13.25-1 2.95-.45 1.4-.1.2-.75 1.2-3.75 3.95-.15-.3-2.6.3h-.05l-.6-2.4-.45-1.8-.15-.5L9.6-30.05l-1.55-8.8 4.25-5.3M-4 6.5l-.3.1-.75.1-1.35-2.4 1.25-.95.9-.35 1.4 1.3L-4 6.5m-7.4-.1-2.35-.2 2.95-3.3.1-.1 1.5-.25.35 1.15-2.55 2.7M15.4-28l.2-8.05-3.4-6.6 3.4 6.6-.2 8.05m-1.7 9.4 1.35-3.95-1.35 3.95" transform="translate(38.2 84.9)"/><path fill-rule="evenodd" fill="#b7b72f" d="m-18.1-38.75-3.4-2.5q-2.2-1.9-2.55-3.25-.5-1.8-.3-3.75v-.1l.05-.3v-.05h.05l1.05.6.7.4 1.05-1q.9-.9 2.75-1.95 1.8-1.15 5.3-1.5l6.4 1 .95-1.05.65-.8.75-.9h.05l.5-.6.55-.65.1-.1.1-.1.1-.15 1.15-.3.55-.15.7-.2.25-.25.55-.5q1.6-1.35 3.6-1.9l1.25-.3-.85.1 2.45-1.65.75-.7L6-54.55-6.3-50.9q1.45 2.15 2.25 3.85 2.05 4.6-.8 6.25l-4.2 2.15-.4.15-1.2.3-1.85.3-.55.05-2.05.25-.6-.2-.3-.1-2.1-.85M-2.2-54.5l.5-.65.1-.15.75-.85-.75.85-.1.15-.5.65m-7.4 15.45q-2.5-2-4.15-1.25l-3-4.5-1.6-4.6 1.6 4.6 3 4.5q1.65-.75 4.15 1.25m-4.15-1.25q-1.25.5-1.95 2.5.7-2 1.95-2.5" transform="translate(38.2 84.9)"/><path fill-rule="evenodd" fill="#cbca34" d="m-24.3-48.7.05-.35.3-1.6 1.45-.4h.05l.1-.05h.2l.45-.05v-.2l1.6-1.2 6.35-2.4-1.65.75.65-.15 5.75.95h.05l2.9 1.2-.95 1.05-6.4-1q-3.5.35-5.3 1.5-1.85 1.05-2.75 1.95l-1.05 1-.7-.4.3-2.3-1.35 1.7h-.05m.4-2.2v-.05h.1l-.1.05" transform="translate(38.2 84.9)"/><path fill-rule="evenodd" fill="#eb9301" d="m29.1-75.1 4.2-3.4 4.85-3.9 2.9-2.35h1.55l-.05.45-11 8.9-2.45.3M-38.05-21v-.05l6.85-6.25.55.8.05.05-5.85 5.7-1.6-.25m55-44.25 2.35-1.95.5-.4 6.9-5.55.2-.15v.15l1.75.1-13 10.4q-8.95 6.15 1.3-2.6" transform="translate(38.2 84.9)"/><path fill-rule="evenodd" fill="#95752d" d="m42.55-84.3-.2 1.2-4.2 3.4-1.5 1.2-3.55 2.9-3.25 2.6-2.95 2.35-7.05 5.7-9.4 7.6-.55-1.75-.2-.35 7.25-5.8q-10.25 8.75-1.3 2.6l13-10.4-1.75-.1v-.15l2.2-1.8 2.45-.3 11-8.9M-27.6-27.6l-6.5 6.45-1.85 2.55-1.25-.3-.85-2.1 1.6.25 5.85-5.7-.05-.05-.55-.8 1.5-1.35 2.1 1.05" transform="translate(38.2 84.9)"/><path fill-rule="evenodd" fill="#8a8d3a" d="m-30.85-30.15-.55-1.4 1.6-.35.5-1.75 1.55-.6.4-1.5.4.15 1.3 2.95L-28.1-30l-2.75-.15" transform="translate(38.2 84.9)"/><path fill-rule="evenodd" fill="#a7a745" d="m-9.8-3.1-.25-2.95 2.15.4-1.9 2.55" transform="translate(38.2 84.9)"/><path fill-rule="evenodd" fill="#786d36" d="m-1.75 4.6-1.2 1.7-1.05.2 1.15-2.2-1.4-1.3.5-.15 2 1.75m-5.9.05-2.9 1.8-.85-.05 2.55-2.7-.35-1.15q.65 0 1.05.45.45.5.5 1.65" transform="translate(38.2 84.9)"/><path fill-rule="evenodd" fill="#584e27" d="m-20.85-27.15-3.4-1.3 1.15-1.4h1.15l.7-2.55h.05l2.05-.75 2.35-.15-1.65 1.85-2.4 4.3" transform="translate(38.2 84.9)"/><path fill-rule="evenodd" fill="#3a341b" d="m-12.4-2.7-1.8-.5-4.45.85 1.1-2.1 2.5-.75-.4-3.65.8-3.05 1.9.35h.2l1.3 1.8-1.5 5.7.35 1.35m3.35-35.95 4.8-1.35 2.2-.7.8-.25 2.55-.8.1.3-.45.85-1 1.9.4 1.2-1.45 1.3-.35.25-6.75.55-.65-.1h-.05l-.05-.05H-9l-.35-.1-.6-1.2-.4-.75-.3-.6 1.2-.3.4-.15" transform="translate(38.2 84.9)"/><path fill-rule="evenodd" fill="#66582f" d="M-16.4-15.85q-3.55-2.05-2.65-8.3 1.85-3.2 5.3-4.2-.55 5.65 2.45 9.95l-5.1 2.55" transform="translate(38.2 84.9)"/><path fill-rule="evenodd" fill="#399" d="m17.5-25.3.2-.95q.6-2.25 1.75-4.35l.15-.1 1.25-.5 2-.2.05-.1.5.35h.05l2.05.2 1 2.4.1 2.65v.2l-.05.45q-.2 2.6-1.15 5.5l-2.65 1.7.2-.7-.05.05-2.4-.05-.7-.15q-1.6-1.4-2.15-3.2l-.15-3.2m1.45-1.65q-.6 2.45-.4 5.1l.9 1.3q1.3 1.55 3.55 1.2l.15.05 1.2-4-.75-4-4.45-.3-.2.65" transform="translate(38.2 84.9)"/><path fill-rule="evenodd" fill="#2d8887" d="m20.1-16.5.1.15v.1l-.3.4-1 .2L21-14.3l.95-.8.4-.15.45.15.25.4-1 1-.15.2-.4.15-.4.3-.3.25-.15.1-3.85-.2-.3-.4-.25-.45q-.15-1.9 1.65-2.65l1.25-.35q.6-.15.95.25m-2.9 2.15.1.25q.1.15.25.15l1 .15-1.3-.4-.05-.15" transform="translate(38.2 84.9)"/><path fill-rule="evenodd" fill="#40bfbf" d="m23.25-33.2-2.95-.65-1.15-.45q-.25-1.85-.9-3.6-.55-1.6.35-2.5l1.7.3q3.05.75 4.15 3.2l.3.85.1.25.05.3.15 1.2v.9l-.05.15-1.75.05m.65-1.95v-.05q-.35-3-3.35-3.75 1 1.45 1.3 3.5l.05.15 2 .15" transform="translate(38.2 84.9)"/><path fill-rule="evenodd" fill="#60532b" d="m-14.65-11.9-1.7-1-.1-.05-.7-.4-3.9-5.5-.05-2.7v-.15l-.05-2.05v-2.1l-.05-.3v-.4l.35-.6 2.4-4.3 1.65-1.85.45-.5.1-1.3 1.6-.95.3-.2.8-.5 3.2-.85.4.75-2.25.7 2.9.55.3.05h.05l.05.05h.05l.65.1 6.75-.55.15-.05.2-.2 1.45-1.3 1.25-1.15.1-.1 2.75 3 .25 1.4-.1.05-1.3-.15-.25-.5-4.1 2.4-1.55 2.65v1.2q1.2 5.15-.35 9.85l-.9 1.4q-2.2.95-.7 3.2l1.75.5h.1l.05 1.2v.2l-3 .5-6.9.3h-.2l-1.9-.35m-1.75-3.95 5.1-2.55q-3-4.3-2.45-9.95-3.45 1-5.3 4.2-.9 6.25 2.65 8.3" transform="translate(38.2 84.9)"/><path stroke-width=".05" stroke-linejoin="round" stroke-linecap="round" stroke="#000" fill="none" d="m41.45 24.35.5-.3m-25.55 8.9-1.85-.45"/><path stroke-width=".05" stroke-opacity=".631" stroke-linejoin="round" stroke-linecap="round" stroke="#000" fill="none" d="m36.1 29.1.65-1m5.4-2.2.85-.1-1.25.3q-2 .55-3.6 1.9l-.55.5m-.25.25-.75.85-.1.15-.5.65"/><path stroke-width=".05" stroke-linejoin="round" stroke-linecap="round" stroke="#959440" fill="none" d="m19.85 35.5 1.6 4.6 3 4.5q1.65-.75 4.15 1.25m-6.1 1.25q.7-2 1.95-2.5"/><path stroke-width=".05" stroke-linejoin="round" stroke-linecap="round" stroke="#fff" fill="none" d="m42.1 25.55-1.7.45"/><path stroke-linejoin="round" stroke-linecap="round" stroke="#545025" fill="none" d="M-1.3-57.75q.8-3.3 4-3.8l.55 1" transform="translate(38.2 84.9)"/><path stroke-width=".05" stroke-linejoin="round" stroke-linecap="round" stroke="#504f23" fill="none" d="m67.3 9.8 4.2-3.4 4.85-3.9 2.9-2.35h1.55l-.05.45-.2 1.2-4.2 3.4-1.5 1.2-3.55 2.9-3.25 2.6-2.95 2.35-7.05 5.7-9.4 7.6q.3 1.55.2 3.45l-.1 1.2q-.5 3.55-1.85 5.65l-.05.15-1.45 1.5 4.75.6.35.65.5.95m.1 0 6.7 1.75.3.05.3.1h.1l2.75.7m.15.05 2.25 4.3L65 51.3l-.9 1.05h-.05m.2.3.95 1.3 1.15 3.8-1.25 6.85-.3 1.7-1.65 1.3-.05-.05m-.05.1.1 2.25-2.85 2.2q-1.2.85-2.2 1.35l-.8.4-1.65.45h-.15l-2.55.25-8.1 1.95 3.65-2.1-1.15.55-.15.1-5.2 2.6-4.15-1.6-.1 1.55q2.05 2.75 2.55 5.45.3 1.8-.05 3.55l.95.8-.6 1.9-1.7.6-2.3-.6-.15.2-1.2 1.7-1.05.2m-.3.1-.75.1-1.35-2.4-.2-.3-1.05.65-2.9 1.8-.85-.05-2.35-.2 2.95-3.3.1-.1-.35-.15-1.35-5.35-1.8-.5-4.45.85 1.1-2.1 2.5-.75-.4-3.65.8-3.05-1.7-1-.1-.05-.7-.4-3.9-5.5-.05-2.7v-.15l-.05-2.05v-2.1l-.05-.3v-.4l.35-.6-3.4-1.3-.2.2-.2.4-2.35.55-.6-.3-6.5 6.45-1.85 2.55L1 66l-.85-2.1v-.05L7 57.6l1.5-1.35-.75-.4-.4-1.1-.55-1.4L8.4 53l.5-1.75 1.55-.6.4-1.5.4.15 2.55 1 .1-.2 1.25.45m4.95-4.4-3.4-2.5q-2.2-1.9-2.55-3.25-.5-1.8-.3-3.75v-.1l.05-.3v-.05l.05-.35.3-1.6.05-.25v-.05l.25-1.45-.1-.2v-.05l-1.3-3.45-.1-1.2.05-.3 1.9-2.6.15-.15.2-.25.15-.1 2.4-2.7 3.75-3.8.45-.4 1.4-.95.95-.35 4.25-1q2.55-.55 7.8.6l4 1.05q3.25 2.6 5.65 6.05l1.75 2.75 7.25-5.8 2.35-1.95.5-.4 6.9-5.55.2-.15 2.2-1.8M47.9 25.45l.2.35.55 1.75m-19.5 18.7 4.8-1.35 2.2-.7.8-.25 2.55-.8.2-.15q3.8-1.95 5.7-3.5m5.65 2.35 3.6 6.9L54.3 62l-1 2.95m-.45 1.4-.1.2-.2.6m-.55.6-3.4 6.4v.05l-.1.2m-4.2-17.15q.65 2.45.05 6.5L44 66l-.9 2.75-.15 2.85-1.85 1.35-.85.45-1.5.8-.8.5h-.05m.65-27.3-1.45 1.3-.2.2-.15.05-6.75.55-.65-.1h-.05l-.05-.05h-.05m-1.35-2.05-3.2.85-.8.5m19.8 6.6.25.4.4 1.6m-2.8-6.8-.25-.5-4.1 2.4L35.6 55v1.2q1.2 5.15-.35 9.85l-.9 1.4q-2.2.95-.7 3.2l1.75.5-.2-1.65-.95-.4m7.25-18.65 1.3.15m9.95 15.95-.75 1.2m-16.45 4.8.05 1.75 2.3.4m2.35-1.3.4-2.2m.45 1.75 1.05-2.5m-3.4 3.75.55-2.1M27.55 46.7l1.2-.3.4-.15m-1.6.45-1.85.3-.55.05-2.05.25-.6-.2-.3-.1m-5.6 4.75.35.7.05.05 2.05-.75 2.85-2.4 1.95-.7m4-1.35-.3-.6m-10.6 5.8v-.05m0 .05-.7 2.55H15.1l-1.15 1.4-.05-.05-.15.25m.05-6.35.55 4.75h.75m10.55 18.3 6.9-.3 3-.5"/><path stroke-linejoin="round" stroke-linecap="round" stroke="#e6d79f" fill="none" d="m12.2-42.65 3.4 6.6-.2 8.05m-.35 5.45L13.7-18.6" transform="translate(38.2 84.9)"/><path stroke-width=".5" stroke-linejoin="round" stroke-linecap="round" stroke="#545025" fill="none" d="m23.55 48.85-1.6.95-.1 1.3-.45.5-1.65 1.85-2.4 4.3"/><path stroke-width="3" stroke-linejoin="round" stroke-linecap="round" stroke="#545025" fill="none" d="m40.85 24.7.3.7"/><path stroke-width=".5" stroke-linejoin="round" stroke-linecap="round" stroke="#545025" fill="none" d="m16.25 32.7.15 1.15"/><path fill-rule="evenodd" fill="#cbd14b" d="m.3-53.65-.4-.9.4-1.25 3.6 1.2-3.6.95" transform="translate(38.2 84.9)"/><path fill-rule="evenodd" fill="#9d8431" d="M-13.8-50.2q-.3.2-.65.35l-.8-.05-.35-.2.2-.35.75-.3.7-.05.45.3-.3.3m-5.1 1.7-.45.6-.75.3q-.3.1-.4-.1l.05-.4.55-.55.65-.35.5.1-.15.4" transform="translate(38.2 84.9)"/><path stroke-width=".05" stroke-linejoin="round" stroke-linecap="round" stroke="#fff" fill="none" d="m38.75 26.95 2.3-.8"/><path stroke-width=".5" stroke-linejoin="round" stroke-linecap="round" stroke="#504f23" fill="none" d="m80.65 1.9-4.2 3.4-1.5 1.2-9.75 7.85-7.05 5.7-9.4 7.6q.4 2.05.1 4.65-.5 3.65-1.9 5.8l-1.45 1.5 4.75.6.85 1.6h.1l10.15 2.6h.05l.1.05 3.6 6.95-.9 1.05h-.05v.05l1.15 1.55 1.15 3.8-1.25 6.85-.3 1.7-1.65 1.3-.05-.05-.05.1.1 2.25-2.85 2.2-3 1.75q-1 .4-1.8.45l-6.7-.05-6.8 3.4-4.15-1.6-.1 1.55q2.05 2.75 2.55 5.45.3 1.8-.05 3.55l.95.8-.6 1.9-1.7.6-2.3-.6-1.35 1.9-2.1.4L31.7 89l-3.95 2.45-3.2-.25 2.95-3.3.1-.1-.35-.15-1.35-5.35-1.8-.5-4.45.85 1.1-2.1 2.5-.75-.4-3.65.8-3.05-2.5-1.45-3.9-5.5-.05-2.7-.05-4.3-.05-.3v-.4l.35-.6L14 56.5l-.35.65-2.35.55-.6-.3-6.5 6.45-1.85 2.55-1.25-.3L.25 64v-.05l8.35-7.6-.75-.4-.95-2.5 1.6-.35.5-1.75 1.55-.6.4-1.5 2.95 1.15.1-.2 1.25.45 4.9-4.35.05-.05-3.4-2.5q-2.2-1.9-2.55-3.25-.5-1.8-.3-3.75l.05-.45.05-.35.6-3.35-.1-.2v-.05q-1-2.15-1.3-3.45l-.05-1.5 2.25-3 .15-.1 2.4-2.7 3.75-3.8.45-.4 1.4-.95.25-.15.7-.2 4.25-1q2.55-.55 7.8.6l4 1.05q3.25 2.6 5.65 6.05L48 25.55l9.6-7.75.5-.4 7.1-5.7 6.4-5.2 4.85-3.9 2.9-2.35h1.55l-.25 1.65m-60.5 44.4 2.1.85.05-.05.9.3 2.05-.25.55-.05 1.85-.3.3.6-3.2.85-.8.5-1.95.7-2.85 2.4-2.05.75-.4-.75 5.55-4.7"/><path fill-rule="evenodd" fill="#b49e56" d="m25.95-81.1 1.1 1 .65.4.15.4 1.2 4.15q.05.4-.1.45l-.2.1-2.8-6.5" transform="translate(38.2 84.9)"/><path fill-rule="evenodd" fill="#786936" d="m25.95-81.1 2.8 6.5-.15-.05q-.45 0-1.25-.65-1.1-.95-1.3-2.15-.3-1.25-.35-3.25l-.05-.8.3.4" transform="translate(38.2 84.9)"/><path stroke-width=".05" stroke-linejoin="round" stroke-linecap="round" stroke="#3f6f00" fill="none" d="m67.25 9.75-1.2-4.15-.15-.4-.65-.4-1.1-1-.3-.4.05.8q.05 2 .35 3.25.2 1.2 1.3 2.15.8.65 1.25.65"/><path fill-rule="evenodd" fill-opacity=".573" fill="#ff99ca" d="m3.05-51.85 1.5-1.25q.95-.6 1.65-.65l.1-.05q.8-.1 1.1.3.25.35-.3.95-.45.75-1.35 1.4-.95.55-1.85.6-.8.15-1-.3l-.05-.3.2-.7" transform="translate(38.2 84.9)"/></g><path fill-rule="evenodd" fill-opacity="0" fill="#f0f" d="M0 0h102.95v45H0V0" id="b"/></defs><path fill="none" d="M-1-1h170v191H-1z"/><use x="85.922" y="198.372" xlink:href="#c" width="381" transform="translate(-192.55 -294)" height="381"/><use x="-42.324" y="97.715" xlink:href="#d" width="81.15" transform="matrix(-2.0301 0 0 2.0301 80.15 -197.356)" height="91.95"/><use x="-58.725" y="-57.521" xlink:href="#e" width="102.95" transform="matrix(1.8072 0 0 1.6538 94.75 120.55)" height="45"/></svg>