<svg width="184" height="139" xmlns="http://www.w3.org/2000/svg" xmlns:xlink="http://www.w3.org/1999/xlink"><defs><g id="b" stroke-opacity="0" stroke-linejoin="round" stroke-linecap="round" stroke="#f0f" fill="none"><path d="M187.95-293.5v380h-380v-380h380M92.95.6H-97" transform="translate(192.55 294)"/><path d="m187.95-293.5-190 190 190 190m-380-380 190 190L-192 86.5" transform="translate(192.55 294)"/></g><g id="c"><path fill-rule="evenodd" fill="#9c0" d="M73.2 12.95v2.8H36.7l-1-1.55-.35-.55-.9-1.35-1.55-2.2L37 6.5l.05-.05H39l5.9-5.4q7.35-1.8 14.3-.9h.05l1.2.15 1.95 4.4 4.1.15 1.8 1.85.35.4.45.55 4.1 5.3" transform="translate(.25 .5)"/><path stroke-width=".05" stroke-linejoin="round" stroke-linecap="round" stroke="#504f23" fill="none" d="m68.9 7.6.45.55 4.1 5.3"/><path fill-rule="evenodd" fill="#cd9e01" d="m71.15 5.05.15.3-.15.05v-.35" transform="translate(.25 .5)"/><path fill-rule="evenodd" fill="#a37d01" d="m71.4 5.5-.1-.15-.15-.3.25.2.15.15-.15.1" transform="translate(.25 .5)"/><path fill-rule="evenodd" fill="#cabe84" d="m48.4 4.65 1.05.1 1.95.45h.05l3.25 1 1.1.3 3.6 1.1.75.25 2.95.9h.05L64 9l3.05 3.2.15.15-1.15 2q-3 3.75-7.15 1.85l-2.75-1.9-3.75-1.5-6.1-1.1-.3-.25-.3-.35q-.85-2.35.8-4.5l1.25-1.4.65-.55m5.25 59.25-.15.05-1.15-.4.15-1.65.45-1.15 1.3-1.3 2.15-2.2.9.15.1.05.4 3.3-4.15 3.15m-6.6-2.9-1.9-.6 3.1-3.7 3.1-.65-.6 3.25-3.7 1.7M59 8.2l-11.25-3L59 8.2m-7.6-.6-4.9-1 4.9 1" transform="translate(.25 .5)"/><path fill-rule="evenodd" fill="#a99a49" d="m67.2 12.35 2.55 2.7 2.5 5.4 2.1 4.6v.05l-3.45-.6-.45-.2-3.35-1.65-1.5-.7-2.55-.2-.4-1.35-3.75-4.2q4.15 1.9 7.15-1.85l1.15-2m7.75 18.75-1 6.65-.25.15-3.75 2.35-1.05.7-.3.15-1.5-1.55-.05-.05-.15-3.15-.95-3.5 4.1.45 2.45.85.75-.7.1-2.3 1.6-.05M65.4 18.4l2 .2-2-.2m0 2 2.6-.2-2.6.2M65 17l3.6.8L65 17" transform="translate(.25 .5)"/><path fill-rule="evenodd" fill="#cbca34" d="M52.5 61.9v-.4l-.2-.05.65-.7-.45 1.15m-4.25-5.2.1-.2 6-5.05.3-1.1q.3-1.1.75-1.95h2.2l3.5 4.85q.85 3.5.2 5.75l-2.05-.95-.15-.35-1.7-.25-.1-.05-.9-.15-2.15 2.2-1.9-2.5L52 55.9l-.65.15-3.1.65m-36.6-31.15-.45-1.7q0-.45.8-2.4l1-2.2-.1.25.95-2.2-.55-3.2q.75.1 2.1 2.35l-.9 3.8-.2.1q-1.15.6-1.4 1.5l-.7 1.65-.2.65-.35 1.4m55.45-2.9 3.35 1.65-.1.1.5.1-1.6.8 3.15 1.5 2.9-1.05 1.15.8-9.45 2.4-2.65-3.55 2.75-2.75M16.5 19.5l-1.85.65q.15-2.9 3.5-3.65l6.05.25 4.65 1.8-3.4-.85-.2-.1-1.75.3-5.55.9q-.75.3-1.45.7" transform="translate(.25 .5)"/><path fill-rule="evenodd" fill="#8d8d3a" d="M58.55 62.15q-.25.1-.45.25l.05-.1.4-.15m-6.2-5.2 1.9 2.5-1.3 1.3.35-.85-.95-2.95" transform="translate(.25 .5)"/><path fill-rule="evenodd" fill="#726832" d="M61 38.95v-.05h.05v.05H61" transform="translate(.25 .5)"/><path fill-rule="evenodd" fill="#8b853d" d="m24.85 33.7-3.6.35-1.85-.25-1.4-1.25 2.2 1.1q9.5.1 18-4.35v-.1l1.2-7.75-8.25-2.75 2.75-2.5 4.9-4.55-.45-2.85-.05-.25.15-.2-9.8-6.3h2.25l5.1.4 4 2 2.4 2.4.2.25 1.2 1.5 2.05 2.8-1-1.5.8 1.05.05.15.3.35.3.25 4.65 3.85.7 1.8-1.45 5-5.15.3-1.05 1.8q-1.1 2.1-2.25 3.3-1.2 1.15-3.45 2.7l-.4.2-.1.05q-1.7.9-5.45 1.75l-1.15.2-.6.1-.95.2-1.6.25-2.7.4-.5.1" transform="translate(.25 .5)"/><path fill-rule="evenodd" fill="#4a4d20" d="m73.7 37.9 1.35 3.3-3.95.4-1.15-1.35 3.75-2.35m-22.95 8.9-1.15.75-4.75 4.6-3.45 2.05-2.3-.15-.7-.45-5.05-.45-.15-1.25 1.9-1.3 1.3-5.05L39 43.9l.25.35 11.5 2.55M32.6 35.05l-1.55.55-2.15 2.45v1.15l-2.75 2.3-1.4-.25.1-2.05-2.7-.3-2.3 1v-2.55l2.7-1.45 2.3-2.2.5-.1 2.7-.4 1.6-.25.95-.2.6-.1 1.4 2.4m29-13.45-1.25-.1h-.1v.05l-.75.05-3.55.2-.65.25-.2.1.85-1.5 4.6-1.4 1.05 2.35m-8.25 9.5 1.25 1.5.25.3 2.25.7 2.95-.6-.2.8-6.2 1.1-.3-3.8" transform="translate(.25 .5)"/><path fill-rule="evenodd" fill="#a3a745" d="m13.3 14.1-.3-1.65.85-1.05q1.45-1.85 3.05-3.5 2.85-3 6.1-5.45l.75-.05 4.9-.35 9.8 6.3-.15.2.05.25-.1-.25-3.55-.7-2.3 6.55 1.5 1.8-2.75 2.5 8.25 2.75-1.2 7.75v.1q-8.5 4.45-18 4.35l-3.75-4.75q-1.95-2.45-2.75-4.95l-.75-2-.05-.1q.25-.9 1.4-1.5l.2-.1.9-3.8q-1.35-2.25-2.1-2.35m25-5.55h-.05.05M23.5 17.9l1.75-.3.2.1 3.4.85-4.65-1.8-6.05-.25q-3.35.75-3.5 3.65l1.85-.65 7-1.6m8.55-3 .35-.5-.35.5M20.1 32.6l3.15.55 1.35-1.8v.15l4.05.8 6.8-2.8-6.8 2.8-4.05-.8v-.15l-1.35 1.8-3.15-.55m0-7.35 4.5 6.1-4.5-6.1" transform="translate(.25 .5)"/><path fill-rule="evenodd" fill="#b7b72f" d="m18 32.55-2.05-1.65q-3.2-2.55-3.95-4.45l-.35-.9.35-1.4.2-.65.7-1.65.05.1.75 2q.8 2.5 2.75 4.95l3.75 4.75-2.2-1.1M16.5 19.5q.7-.4 1.45-.7l5.55-.9-7 1.6" transform="translate(.25 .5)"/><path fill-rule="evenodd" fill="#b7a259" d="m66.4 60.15-.95.7-3.4-.85-.1-1.4.65-1.35 2.7-.45 1.1 3.35" transform="translate(.25 .5)"/><path fill-rule="evenodd" fill="#e6d79f" d="m47.45 4.55.95.1-.65.55-.75-.65.75.65-1.25 1.4q-1.65 2.15-.8 4.5l-.05-.15-.8-1.05 1 1.5-2.05-2.8-1.2-1.5 3.3-2.55h1.55M45.6 6.4l.9.2-.9-.2" transform="translate(.25 .5)"/><path fill-rule="evenodd" fill="#938642" d="m76.9 26.9 1.8 1.25.3 1-1.05.7.15 1.15-3.15.1-1.6.05-.1 2.3-.75.7-2.45-.85-4.1-.45-3.35-.4-1.95.45-4-3.3-.35-5.05 3.2-2.95.75-.05.1-.05 1.25.1 1.45.15 2.55.2 1.5.7-2.75 2.75L67 28.95l9.45-2.4.45.35m-8 14.05-.75.7-.1 5.05.7 2.45.6 8.75-2.95 2.25-1.1-3.35-2.7.45-.65 1.35-1.25 2.55.1.2h-1l.65-.7-1.2-2.6 2.05.95q.65-2.25-.2-5.75l-2.05-7.4q-1.1.1-3.05 1.65l-.6.9q-.45.85-.75 1.95l.45-1.95.05-.2.25-1.1.4-1.7 1.15-3.3L61 38.95h.05v-.05l3.55-.7 2.45 1.3.05.05 1.5 1.55.3-.15" transform="translate(.25 .5)"/><path fill-rule="evenodd" fill="#84743e" d="m59.5 21.6-3.2 2.95.35 5.05 4 3.3-.6.1-2.95.6-2.25-.7-.25-.3-1.25-1.5-.4-5.4 2.15-3.55.2-.1.65-.25 3.55-.2" transform="translate(.25 .5)"/><path fill-rule="evenodd" fill="#60532b" d="m55.4 47.1-2.6.15-2.05-.45-11.5-2.55-.25-.35-.45-.75-.5-1.95-2.45-2.35-.85-1.65-2.15-2.15-1.4-2.4 1.15-.2q3.75-.85 5.45-1.75l.1-.05.4-.2q2.25-1.55 3.45-2.7 1.15-1.2 2.25-3.3l1.05-1.8 5.15-.3 1.45-5-.7-1.8-4.65-3.85 6.1 1.1 3.75 1.5 2.75 1.9 3.75 4.2.4 1.35-1.45-.15-1.05-2.35-4.6 1.4-.85 1.5-2.15 3.55.4 5.4.3 3.8 6.2-1.1.2-.8.6-.1 1.95-.45 3.35.4.95 3.5.15 3.15-2.45-1.3-3.55.7H61v.05l-4.05 3.15-1.15 3.3-.4 1.7M34.9 34.75q5 2.6 5.45 8.65Q64.7 49 46.7 35.05q-8.7.35-11.8-.3" transform="translate(.25 .5)"/><path fill-rule="evenodd" fill="#9c9b12" d="m51.4 5.2.05-.05v.05h-.05" transform="translate(.25 .5)"/><path fill-rule="evenodd" fill="#b5bf64" d="m32.4 14.4 2.3-6.55 3.55.7.1.25.45 2.85-4.9 4.55-1.5-1.8" transform="translate(.25 .5)"/><path fill-rule="evenodd" fill="#dcdc78" d="M55.1 48.4h-.2l.25-.2-.05.2m15.8-23.9 3.45.6.2.1.75.55-2.9 1.05-3.15-1.5 1.6-.8h.05M55.4 48.4l.6-.9q1.95-1.55 3.05-1.65l2.05 7.4-3.5-4.85h-2.2" transform="translate(.25 .5)"/><path fill-rule="evenodd" fill="#786d36" d="M59.8 61.35h-.1l-1.15.8-.4.15-.05.1-4.45 1.5 4.15-3.15-.4-3.3 1.7.25.15.35 1.2 2.6-.65.7m-7.5.1-1.1-.35-3.65.05-.5-.15 3.7-1.7.6-3.25.65-.15.35 1.05.95 2.95-.35.85-.65.7" transform="translate(.25 .5)"/><path fill-rule="evenodd" fill="#6f6a3c" d="m65.45 60.85-.55.4-4.1.1-.1-.2 1.25-2.55.1 1.4 3.4.85" transform="translate(.25 .5)"/><path fill-rule="evenodd" fill="#557801" d="M61.25.05 60.8 3 59.7.05h1.55M59.4 7.6l1.1-1.2-.35 1.45-.75-.25" transform="translate(.25 .5)"/><path fill-rule="evenodd" fill="#6b8d01" d="m71.4 5.5.15-.1 1.65 1.8 1.35 1.55.25.3 3.45 4.7.15 2-1.3 1.75 1 2.45-1.2 6.95-.45-.35-1.15-.8-.75-.55-.2-.15-2.1-4.6 2.95-.35.85-2.35-2.55-.6 2.55-1.45-2.25-4.35.05-.4v-.1L73 8.95l-2 .3 1.5-1.35-1.1-2.4m-.25-.1H67.5l-4.35 3.3 1.8-2.3-1.3-6.15.95.1 1.55 3 3.3.1 1.45 1.3.25.3v.35" transform="translate(.25 .5)"/><path fill-rule="evenodd" fill="#607e01" d="m71.3 5.35.1.15 1.1 2.4L71 9.25l2-.3.85 1.9v.1l-.05.4 2.25 4.35-2.55 1.45 2.55.6-.85 2.35-2.95.35-2.5-5.4-2.55-2.7-.15-.15L64 9l-.85-.25h-.05l-2.95-.9.35-1.45-1.1 1.2-3.6-1.1-1.1-.3-3.25-1v-.05l-.05.05-1.95-.45-1.05-.1-.95-.1 4.9-.15Q57.4.05 59.7.05L60.8 3l.45-2.95 2.4.2 1.3 6.15-1.8 2.3 4.35-3.3h3.65l.15-.05" transform="translate(.25 .5)"/><path fill-rule="evenodd" fill="#d1fe4b" d="m44.15 2.55 1.9-1.1L57.2.35q-11.05 1.6-14.5 3.9l1.45-1.7" transform="translate(.25 .5)"/><path fill-rule="evenodd" fill="#66582f" d="M34.9 34.75q3.1.65 11.8.3 18 13.95-6.35 8.35-.45-6.05-5.45-8.65" transform="translate(.25 .5)"/><path stroke-width=".05" stroke-linejoin="round" stroke-linecap="round" stroke="#504f23" fill="none" d="m54.85 33.1.25.3"/><path stroke-width="1.5" stroke-linejoin="round" stroke-linecap="round" stroke="#504f23" fill="none" d="m38.5 9.05-3.55-.7-2.3 6.55-.35.5m6.2-6.35h.05"/><path stroke-width=".05" stroke-linejoin="round" stroke-linecap="round" stroke="#504f23" fill="none" d="m47.7 5.05.95.1 1.05.1 1.95.45h.05l3.25 1 1.1.3 3.6 1.1m.75.25 2.95.9h.05l.85.25 3.05 3.2.15.15 2.55 2.7 2.5 5.4M42.85 7.6l3.3-2.55h1.55M59.15 16.7l3.75 4.2.4 1.35m11.3 3.3-2.1-4.6M60.4 8.35l-.75-.25m-13.1 4.1 6.1 1.1 3.75 1.5 2.75 1.9M67.3 40l-.15-3.15-.95-3.5"/><path stroke-width=".05" stroke-linejoin="round" stroke-linecap="round" stroke="#eddda9" fill="none" d="m47.25 5.05.75.65 11.25 3m-12.5-1.6-.9-.2m.9.2 4.9 1"/><path stroke-width=".05" stroke-linejoin="round" stroke-linecap="round" stroke="#beab6b" fill="none" d="m68.85 18.3-3.6-.8m3 3.2-2.6.2m2-1.8-2-.2"/><path stroke-width=".5" stroke-opacity=".333" stroke-linejoin="round" stroke-linecap="round" stroke="#4f4e22" fill="none" d="m35.7 30-6.8 2.8-4.05-.8v-.15l-1.35 1.8-3.15-.55m4.5-1.25-4.5-6.1"/><path stroke-width=".5" stroke-linejoin="round" stroke-linecap="round" stroke="#504f23" fill="none" d="m39.25 44.4-.45-.75-.5-1.95-2.45-2.35L35 37.7l-2.15-2.15"/><path fill-rule="evenodd" fill="#fff" d="m84.05 42.65.95 2.8-.15 3.95q-2.35-6.15-9.8-3.15L73.6 41.3q4.2 4.3 10.45 1.35m-.1 11.4-.45 1.55-5.7-.15-.7-2.35 6.85.95" transform="translate(.25 .5)"/><path fill-rule="evenodd" fill="#d8e2da" d="M84.05 42.65Q77.8 45.6 73.6 41.3l-.3-.95-1.35-4.65-.05-.15q4.8-2.6 8.5.35 2.15 2.95 3.65 6.75m-9 3.6q7.45-3 9.8 3.15-.25 2.3-.9 4.65l-6.85-.95-.05-.1-2-6.75m8.45 9.35q-1.3 3.65-3.5 7.25l-2.2-7.4 5.7.15" transform="translate(.25 .5)"/><path fill-rule="evenodd" fill="#c78b01" d="m68.55 32.75 8.8-4.1.95.25 1.4.4 1.15 2.1-3.05 1.5-1.6-1.55-4.85 2.3.05.25-.45 2.3-1.85.95-1.05-2.25.5-1.9v-.25" transform="translate(.25 .5)"/><path fill-rule="evenodd" fill="#849f84" d="m71.4 33.9-.05-.25 4.85-2.3 1.6 1.55q1.4 1.35 2.6 3-3.7-2.95-8.5-.35l-.5-1.65" transform="translate(.25 .5)"/><path fill-rule="evenodd" fill="#fecb56" d="m78.9 27.9.1.05.2.35-.3-.4" transform="translate(.25 .5)"/><path fill-rule="evenodd" fill="#fedb8b" d="m78.3 28.9-.55-.45.75-.85.4.3.3.4.5 1-1.4-.4" transform="translate(.25 .5)"/><path fill-rule="evenodd" fill="#955e02" d="m70.95 36.2.45-2.3.5 1.65.05.15-1 .5" transform="translate(.25 .5)"/><path fill-rule="evenodd" fill="#ff0" d="m78.3 28.9-.95-.25-8.8 4.1-.65-.55-.05.05-.6-.95.05-.2 1.4-.9 8.35-3.75 1.45 1.15-.75.85.55.45" transform="translate(.25 .5)"/><path fill-rule="evenodd" fill="#ffffb9" d="m67.25 31.3.6.95.05.05v-.1l.65.55V33l-.5 1.9-.65-1.45.05-.15-.35-1.3.15-.7" transform="translate(.25 .5)"/><path stroke-width=".05" stroke-linejoin="round" stroke-linecap="round" stroke="#955e02" fill="none" d="m71.65 34.4-.05-.25 4.85-2.3m-4.3 4.2-.5-1.65"/><path stroke-width=".5" stroke-linejoin="round" stroke-linecap="round" stroke="#504f23" fill="none" d="m85.1 49.9.15-3.95-.95-2.8M73.85 41.8l1.45 4.95m9.8 3.15q-.25 2.3-.9 4.65l-.45 1.55q-1.3 3.65-3.5 7.25l-2.2-7.4-.7-2.35-.05-.1-2-6.75m5.35-10.35q-1.2-1.65-2.6-3m2.6 3q2.15 2.95 3.65 6.75M72.2 36.2l1.35 4.65.3.95"/><path fill-rule="evenodd" fill="#c4d2c5" d="m13.45 43.55-1.1-.05-4.95-2.2L3.85 36l5.4.6q4.05 3.45 4.2 6.95m-.6-6.5 5.15.55-.2.1q2.55 2.3 2.05 5.75l-.95.25-2.25-.05q-4-2.3-3.8-6.6m7.75 6.2-.05-.3-.7-5 1.25.2 1.6.3.15 3.85-1.8.8-.2.05-.25.1" transform="translate(.25 .5)"/><path fill-rule="evenodd" fill="#c99236" d="M24.05 45.55H24l-.45.05-2.5-2.25v-.25l1.8-.8-.15-3.85 1.5 1-.15 6.1" transform="translate(.25 .5)"/><path fill-rule="evenodd" fill="#e0e7e0" d="m9.25 36.6-5.4-.6 3.55 5.3 4.95 2.2 1.1.05 3.2.1 2.25.05-2.05.3-3.05.1-3.7-.4Q3.9 40.8 0 34.4L8.85 36l3.8.65 5.1.9.25.05-5.15-.55-3.6-.45" transform="translate(.25 .5)"/><path fill-rule="evenodd" fill="#5e785c" d="m9.25 36.6 3.6.45q-.2 4.3 3.8 6.6l-3.2-.1q-.15-3.5-4.2-6.95m8.75 1 1.85.35.7 5 .05.3-.7.2h-.05q.5-3.45-2.05-5.75l.2-.1" transform="translate(.25 .5)"/><path fill-rule="evenodd" fill="#e2b61d" d="M21.1 38.15v-2.4l3.05.1.15.15-.1 3.45-1.5-1-1.6-.3m2.45 7.45-2.55.05.05-2.3 2.5 2.25" transform="translate(.25 .5)"/><path fill-rule="evenodd" fill="#8e6026" d="m24.3 36 1.6 1.8-.3 6.95-1.55.8.15-6.1.1-3.45" transform="translate(.25 .5)"/><path stroke-width=".5" stroke-linejoin="round" stroke-linecap="round" stroke="#504f23" fill="none" d="m18.25 38.1-.25-.05-5.1-.9-3.8-.65-8.85-1.6q3.9 6.4 10.1 9.3l3.7.4 3.05-.1 2.05-.3.95-.25m0-5.5-1.85-.35m3.1.55v-2.4l3.05.1.15.15m-.75 9.6-2.55.05.05-2.3"/><path fill-rule="evenodd" fill="#91913e" d="m31.4 19.5-1 .6V6.05l2.25-1.75 1.65-.85h3.9l.65.5q.8.55 2.8 3.3v4.4l-.85.25-.75 1.05-.15-.45-.8-3.15-.4-.55-.85-1q-5.4 1.95-5.7 8-.25 1.05-.1 1.25l.1.2v.25l-.75 2m9.55-7.55.7-.3v.8l-.7-.5" transform="translate(.25 .5)"/><path fill-rule="evenodd" fill="#e1dbbb" d="m38.7 8.8.4.55.8 3.15q-3.05 1.6-5.35 4.4l-1.4-.7 2.35-4.75 3.2-2.65" transform="translate(.25 .5)"/><path fill-rule="evenodd" fill="#f0c0b0" d="M32.15 17.5v-.25l-.1-.2q-.15-.2.1-1.25l1 .4 1.4.7-.75 1.05-.35.55-.4-.7-.9-.3" transform="translate(.25 .5)"/><path fill-rule="evenodd" fill="#b5bf64" d="m31.4 19.5.75-2 .9.3-1.65 1.7" transform="translate(.25 .5)"/><path fill-rule="evenodd" fill="#d3c79e" d="M32.15 15.8q.3-6.05 5.7-8l.85 1-3.2 2.65-2.35 4.75-1-.4" transform="translate(.25 .5)"/><path stroke-width=".05" stroke-linejoin="round" stroke-linecap="round" stroke="#000" fill="none" d="m39.35 9.85.8 3.15.15.45"/><path stroke-linejoin="round" stroke-linecap="round" stroke="#545025" fill="none" d="M32.15 15.8q.3-6.05 5.7-8l.85 1 .4.55" transform="translate(.25 .5)"/><path stroke-width=".05" stroke-opacity=".361" stroke-linejoin="round" stroke-linecap="round" stroke="#cc0027" fill="none" d="m33.7 19-.4-.7-.9-.3"/><path fill-rule="evenodd" fill="#cbd14b" d="m36.2 22.45-1-1.5.3-2.3 6.55.9-5.85 2.9" transform="translate(.25 .5)"/><path fill-rule="evenodd" fill="#9d8431" d="m24.95 20.15-.95.45-1.15-.05-.45-.4q-.1-.25.35-.5l1.05-.3 1-.05q.5.15.5.45l-.35.4M16.05 22l-.75.8-1.05.4q-.45 0-.5-.2-.2-.2.1-.6l.8-.7.9-.4q.5-.05.65.2l-.15.5" transform="translate(.25 .5)"/><path stroke-width="3" stroke-linejoin="round" stroke-linecap="round" stroke="#504f23" fill="none" d="M39.45 12.5 37.5 9.15"/><path fill-rule="evenodd" fill="#d1fe4b" d="m66.6 23.4 2.65.4q-9.8-.4-12.45.7l1.75-1.35 2.1-.7 5.65.55.3.4" transform="translate(.25 .5)"/><path stroke-width=".5" stroke-linejoin="round" stroke-linecap="round" stroke="#504f23" fill="none" d="m78.05 33.4 3.05-1.5-1.85-3.45-.1-.05-1.85-1.45-.05.05 1.1-6.55-1-2.45 1.3-1.75-.15-2q-3.2-4.8-6.7-8.35l-.4-.35-.25-.3-1.45-1.3-3.3-.1-1.55-3-.95-.1q-11.1-1.4-18.7 1L40.95 5.3l-4.7-2.35-7.35-.4-5.65.4Q20 5.4 17.15 8.4q-1.6 1.65-3.05 3.5l-.85 1.05.85 4.85-.95 2.2.1-.25-1 2.2q-.8 1.95-.8 2.4l.45 1.7.35.9q.75 1.9 3.95 4.45l2.05 1.65 1.4 1.25 1.85.25 3.6-.35-2.2 2.1-1.55-.05v.95m17.9 7.2-2.6 1.65-1.3 5.05-1.9 1.3.15 1.25 5.05.45.7.45 2.3.15 3.45-2.05 4.75-4.6L51 47.3l2.05.45 2.6-.15-1.05 4.35-6 5.05-.1.2-3.1 3.7 2.4.75 3.65-.05 1.3.4-.15 2.05 1.15.4 4.6-1.55 1.6-1.05 5.2-.1 4.45-3.35-.6-8.75-.7-2.45.35-5 .5-.75 1.05-.7 1.15 1.35 2.5-.25M21.3 43.6l-.05 2.55 3-.1h.05l1.55-.8.15-3.3.4.05 2.75-2.3v-1.15l2.15-2.45 1.55-.55"/></g><path fill-rule="evenodd" fill-opacity="0" fill="#f0f" d="M0 0h102.95v45H0V0" id="a"/><use xlink:href="#a" width="102.95" height="45" id="d"/></defs><path fill="none" d="M-1-1h186v141H-1z"/><use x="75.55" y="160.5" xlink:href="#b" width="381" transform="translate(-192.55 -294)" height="381"/><use x="-35.806" y="76.066" xlink:href="#c" width="85.5" transform="matrix(-2.11 0 0 2.11 106.328 -158.605)" height="64.7"/><use x="-64.464" y="-80.421" xlink:href="#d" width="102.95" transform="matrix(1.8072 0 0 1.6538 104.95 130.8)" height="45"/></svg>