<svg width="221" height="287" xmlns="http://www.w3.org/2000/svg" xmlns:xlink="http://www.w3.org/1999/xlink"><defs><radialGradient spreadMethod="pad" r="819.2" id="b" gradientUnits="userSpaceOnUse" gradientTransform="scale(.0101)" cy="0" cx="0"><stop stop-color="#909" offset="0"/><stop stop-opacity="0" stop-color="#909" offset="1"/></radialGradient><radialGradient spreadMethod="pad" r="819.2" id="c" gradientUnits="userSpaceOnUse" gradientTransform="matrix(-.0123 -.0258 .0289 -.0139 8 -.55)" cy="0" cx="0"><stop stop-opacity="0" offset=".761"/><stop stop-opacity=".671" stop-color="#996697" offset="1"/></radialGradient><radialGradient spreadMethod="pad" r="819.2" id="d" gradientUnits="userSpaceOnUse" gradientTransform="translate(-4.2 9.4) scale(.0405)" cy="0" cx="0"><stop stop-opacity="0" offset=".761"/><stop stop-opacity=".671" stop-color="#996697" offset="1"/></radialGradient><radialGradient spreadMethod="pad" r="819.2" id="e" gradientUnits="userSpaceOnUse" gradientTransform="matrix(-.0123 -.0258 .0289 -.0139 8 -.55)" cy="0" cx="0"><stop stop-opacity="0" offset=".761"/><stop stop-opacity=".671" stop-color="#996697" offset="1"/></radialGradient><radialGradient spreadMethod="pad" r="819.2" id="f" gradientUnits="userSpaceOnUse" gradientTransform="matrix(.0145 -.0018 .006 .0115 .85 -25.3)" cy="0" cx="0"><stop offset=".761"/><stop stop-opacity=".671" stop-color="#996697" offset="1"/></radialGradient><radialGradient spreadMethod="pad" r="819.2" id="g" gradientUnits="userSpaceOnUse" gradientTransform="matrix(.0137 -.0059 .0056 .0093 29.7 -24.15)" cy="0" cx="0"><stop offset=".761"/><stop stop-opacity=".671" stop-color="#996697" offset="1"/></radialGradient><path fill-rule="evenodd" fill="url(#a)" d="M7.9 69.3-9.15-12.15h13.2l16.5 78.8L7.9 69.3" transform="translate(9.15 12.15)" id="j"/><path fill-rule="evenodd" fill="url(#b)" d="M5.8 5.8Q3.4 8.25 0 8.25T-5.85 5.8q-2.4-2.4-2.4-5.8t2.4-5.85Q-3.4-8.25 0-8.25q3.4 0 5.8 2.4Q8.25-3.4 8.25 0q0 3.4-2.45 5.8" transform="translate(8.25 8.25)" id="k"/><path fill-rule="evenodd" fill="url(#c)" d="M6.6-15.65q6.75 1.9 9.6 7.9 2.85 5.95.15 12.5Q13.6 11.2 6.9 14.4.15 17.65-6.6 15.7q-6.75-2-9.6-7.95-2.85-6-.15-12.45 2.7-6.5 9.45-9.75 6.7-3.2 13.5-1.2" transform="translate(17.65 16.4)" id="m"/><path fill-rule="evenodd" fill="url(#d)" d="M16 16q-6.6 6.65-16 6.65T-16.05 16q-6.6-6.6-6.6-16t6.6-16.05q6.65-6.6 16.05-6.6t16 6.6Q22.65-9.4 22.65 0T16 16" transform="translate(22.65 22.65)" id="n"/><path fill-rule="evenodd" fill="url(#e)" d="M6.6-15.65q6.75 1.9 9.6 7.9 2.85 5.95.15 12.5Q13.6 11.2 6.9 14.4.15 17.65-6.6 15.7q-6.75-2-9.6-7.95-2.85-6-.15-12.45 2.7-6.5 9.45-9.75 6.7-3.2 13.5-1.2" transform="translate(17.65 16.4)" id="o"/><path fill-rule="evenodd" fill-opacity="0" fill="#f0f" d="M0 0h102.95v45H0V0" id="h"/><g id="i" stroke-opacity="0" stroke-linejoin="round" stroke-linecap="round" stroke="#f0f" fill="none"><path d="M187.95-293.5v380h-380v-380h380M92.95.6H-97" transform="translate(192.55 294)"/><path d="m187.95-293.5-190 190 190 190m-380-380 190 190L-192 86.5" transform="translate(192.55 294)"/></g><g id="l"><path fill-rule="evenodd" fill="#131112" d="M-17.15 9.2q2.5-2.35 6.05-2.35t6.05 2.35q2.5 2.4 2.5 5.8t-2.5 5.75q-2.5 2.4-6.05 2.4t-6.05-2.4q-2.5-2.35-2.5-5.75t2.5-5.8" transform="translate(54 57.4)"/><path stroke-width=".05" stroke-linejoin="round" stroke-linecap="round" stroke="#5f3a01" fill="none" d="M36.85 66.6q2.5-2.35 6.05-2.35t6.05 2.35q2.5 2.4 2.5 5.8t-2.5 5.75q-2.5 2.4-6.05 2.4t-6.05-2.4q-2.5-2.35-2.5-5.75t2.5-5.8z"/><path fill-rule="evenodd" fill="#8c5513" d="m-24.15 7 6.55-2.75h.35L-15 3.5l3.6 2.05h.45l.2 3.25-13.3 11.25-1.55-2.7.95-2-2.25-.75.75-2.35.85-.45 1.15-4.8" transform="translate(54 57.4)"/><path fill-rule="evenodd" fill="#d9b54a" d="m-33.55 10.9 9.4-3.9-1.15 4.8-.85.45-3.45 1.7-.35-.9.1-.25-3.7-1.9" transform="translate(54 57.4)"/><path fill-rule="evenodd" fill="#d2a82d" d="m-28.25 22.25-2.35.85h-3.6l-2.9-5.85 1.6-5.55 1.95-.8 3.7 1.9-.1.25.35.9.15.5q-1.45.5-2.5 1.65h3.15l.8 2.15-.05.8-.55.15-.25.25-.25.05v.15l1 .2-.15 2.4m-3.1-4v1.55l-2.25.15-1.55-3.55 1.4-2.15-1.4 2.15 1.55 3.55 2.25-.15v-1.55" transform="translate(54 57.4)"/><path fill-rule="evenodd" fill="#b0641a" d="m-24.05 20.05-1.35 1.15-2.85 1.05.15-2.4-1-.2v-.15l.25-.05.25-.25.55-.15.05-.8-.8-2.15h-3.15q1.05-1.15 2.5-1.65l-.15-.5 3.45-1.7-.75 2.35 2.25.75-.95 2 1.55 2.7" transform="translate(54 57.4)"/><path stroke-width=".05" stroke-linejoin="round" stroke-linecap="round" stroke="#5f3a01" fill="none" d="m29.85 64.4 6.55-2.75h.35L39 60.9l3.6 2.05h.45l.2 3.25-13.3 11.25-1.35 1.15-2.85 1.05-2.35.85h-3.6l-2.9-5.85 1.6-5.55 1.95-.8 9.4-3.9"/><path stroke-width=".05" stroke-linejoin="round" stroke-linecap="round" stroke="#8c5513" fill="none" d="m20.25 71.65-1.4 2.15 1.55 3.55 2.25-.15v-1.55"/><path fill-rule="evenodd" fill="#6d7915" d="m34.1-34.45 1.75 1.7 2.1 6.4-2.55.35-.25 5.5-1.1-.95V-22l-1.3-.05-.8-5.95-4.65-2.15 4.4-1.6.65-.3-12.6-2.8 14.35.4m14.25-16.2 3.35 1.8L51-44l-.05.35.15.25 1.95 3.25-4.8 14.1L46.9-22l-1.35 3.95-1.65 4.9L42.5-9 38.2 3.7l-2 2.25-.4-1.15-1.15-3.2-.1-.25-.65-1.6 4.8-12.95-.1 8.8 10.7-43.2-.95-3.05M-6.8 6.15l-4.4-2.1.9-4.75.45-1.15 3 4.95 15.25.65-9.35-4.1 20.75-1L32.9.4l-.1 7.15-39.2-1.1-.4-.3M42.05-29.5l-.4 1.45-.05-.05.45-1.4m-8.35-.55-2-1.7 2 1.7m-.45 7.9.6.1v-.1h-.6m.1-2.75.3-2.15-.3 2.15" transform="translate(54 57.4)"/><path fill-rule="evenodd" fill="#525a10" d="m35.85-32.75.25.25 2.9 2.3 2.6 2.1.05.05.4-1.45 5.75-17v-1.6l-.1-2.9v-.05l.65.4.95 3.05L38.6-4.4l.1-8.8L33.9-.25l-1 .65-13.1-1.75-20.75 1 9.35 4.1-15.25-.65-3-4.95.7-2-1.2-5.25 2.85-2.5.15 4.7L33-5.25l-1.05.05h1.95l.5-1.45 3.7-11.1-2.95-2.75.25-5.5 2.55-.35-2.1-6.4m12.5 12.4 4.45 1.3-1.1 10.4-2.6 2.2-.2-3.3-5-3.4 1.65-4.9L46.9-22l1.45 1.65M-7.8-18.7l-2.7-2.25.35-3.2-1.35-5.65 1.2-4.05 1.25-1.8h.55l28.25.8 12.6 2.8-.65.3-4.4 1.6L31.95-28l.8 5.95-40.4-1.45-.15 4.8m57.7 4.4-4.35-3.75 4.35 3.75" transform="translate(54 57.4)"/><path fill-rule="evenodd" fill="#ecdcbd" d="M47.25-54.4 35.5-40.9l-10.35.9-2.75-.15q-1.6-2.15 4.55-9.8L18.9-40.3l-2.8-.15-.85-2h-.05l-3.5 1-3.1-1L6.05-41l-3.85-.2 2.55-3.9-6 3.7-3-.15-.15.1-2.6-2.7.15-.5 16.5-11.3q1.1 1 1.55-1.05l8.2.4q-3.75 3.9-6.5 8.65-.35.6-.45 1.35l13.45-9.65 2.05.1-.05.45q-.2 1.6.5 2.9 7.2-.7 14.2-2.65l3.6.15 1.05.9M34.3-17.75l1.6 1.15-1.55 6.25-.05-7.4" transform="translate(54 57.4)"/><path fill-rule="evenodd" fill="#4e3816" d="m48.25-26.05.1 5.7L46.9-22l1.35-4.05" transform="translate(54 57.4)"/><path fill-rule="evenodd" fill="#cc9a48" d="m35.15-20.5 2.95 2.75-3.7 11.1-.05-3.7 1.55-6.25-1.6-1.15-.25-3.7 1.1.95" transform="translate(54 57.4)"/><path fill-rule="evenodd" fill="#8d9d1c" d="m33.9-.25.65 1.6.1.25 1.15 3.2.4 1.15-1.65 1.9-.9-.25-.85-.05.1-7.15 1-.65m0-4.95h-1.95L33-5.25l.9.05m.1 8.55.65-1.75L34 3.35m.45 3.6L35.8 4.8l-1.35 2.15" transform="translate(54 57.4)"/><path fill-rule="evenodd" fill="#c29536" d="M33.25-22.15h.6v.1l-.6-.1" transform="translate(54 57.4)"/><path fill-rule="evenodd" fill="#f3e8d6" d="m35.5-40.9.25-.05-1.7 4.2v.55l-1.7-3.4-7.2-.4 10.35-.9m-43.9 1.7 1.4-4.95 2.6 2.7-4 2.25" transform="translate(54 57.4)"/><path fill-rule="evenodd" fill="#cc6" d="m-6.75 6.45-.05-.3.4.3h-.35m41.35 5.5v.1l-.15.25.15-.35" transform="translate(54 57.4)"/><path fill-rule="evenodd" fill="#e0c598" d="m47.25-54.4.45 3.35v.05l.1 2.9-7 18.2-1.8-.3-2.9-2.3-.25-.25-1.75-1.7-.05-1.75v-.55l1.7-4.2-.25.05 11.75-13.5m-5.4 59.6-3.35 4.9-1.35-2.25 1.15-4.1-.1-.05L42.5-9l4.65 1.95L44.5.05 41.85 5.2M19.4-56.6l6.5.35-13.45 9.65q.1-.75.45-1.35 2.75-4.75 6.5-8.65m8.55.45 14.65.7q-7 1.95-14.2 2.65-.7-1.3-.5-2.9l.05-.45" transform="translate(54 57.4)"/><path fill-rule="evenodd" fill="#7e5c25" d="m34.05-36.2.05 1.75-14.35-.4-28.25-.8-.15-2.75.25-.8 4-2.25.15-.1 3 .15 6-3.7-2.55 3.9 3.85.2 2.55-1.45 3.1 1 3.5-1h.05l.85 2 2.8.15 8.05-9.65q-6.15 7.65-4.55 9.8l2.75.15 7.2.4 1.7 3.4m4.95 6 1.8.3 7-18.2v1.6l-5.75 17-.45 1.4-2.6-2.1M49.1-6.45l-.4.35-.05.35L47.2-2.6l-5.35 7.8L44.5.05l2.65-7.1L42.5-9l1.4-4.15 5 3.4.2 3.3M32.05 15l-19.3-1.1-17.4-1.9-2-2.2-.1-3.35h.35l39.2 1.1.85.05.9.25.05 4.1-.15.35-2.4 2.7" transform="translate(54 57.4)"/><path fill-rule="evenodd" fill="#3d2c12" d="m36.65 12.8-.85 1.15L32.05 15l2.4-2.7.15-.25 2.05.75" transform="translate(54 57.4)"/><path fill-rule="evenodd" fill="#8b6629" d="m38.5 10.1-1.85 2.7-2.05-.75v-.1l-.05-4.1 1.65-1.9 2-2.25.1.05-1.15 4.1 1.35 2.25m-46-21.7-.3-7.1.15-4.8 40.4 1.45 1.3.05v.55l.25 3.7.05 7.4.05 3.7-.5 1.45-.9-.05L-7.35-6.9l-.15-4.7" transform="translate(54 57.4)"/><path stroke-width=".05" stroke-linejoin="round" stroke-linecap="round" stroke="#4f3100" fill="none" d="m88.1 22.95 1.75 1.7.25.25 2.9 2.3m12-13.8.1.6m-2.85 17.35.1 5.7 4.45 1.3-1.1 10.4-2.6 2.2-.4.35v.3l-.05.05-1.45 3.15-5.35 7.8-3.35 4.9-1.85 2.7-.85 1.15-3.75 1.05-19.3-1.1-17.4-1.9-2-2.2-.1-3.35-.05-.3M95.6 29.3 93 27.2m-19.25-4.65 14.35.4m.5 46.4v.1m13.75-32.4-1.45-1.65m-1.35 3.95 4.35 3.75m-1.25 8.55.05-.35m.4-.35-.2-3.3-5-3.4"/><path stroke-width=".05" stroke-linejoin="round" stroke-linecap="round" stroke="#aacd01" fill="none" d="m88.55 58.75.1.25-.65 1.75m-2.3-35.1 2 1.7m-.05 3-.3 2.15m2.45 29.7-1.35 2.15"/><path fill-rule="evenodd" fill="#131112" d="m-51.1 43.3-1.55.6q4.2-4.1 9.95-6.9l1.1.45.15-.95 8.5-2.3 5.95-1.1 2.5.6v-1q6.95.65 10.9.1 8.55-.5 7.9 0-.65.45-.95 1.35l-.85 2.25-.05.6-7.3.1-10.6 1.95-5 2.5-.35-.5-1.95 1.45.05-1.05-7.25 5.8-.3-.7q-2.25 2.6-7.15 4.45-2.45.4-4.55-1.05-2.15-2.2-1.2-3.6.35-1.55 2.05-3.05" transform="translate(54 57.4)"/><path stroke-width=".05" stroke-linejoin="round" stroke-linecap="round" stroke="#4f3100" fill="none" d="M2.9 100.7q-1.7 1.5-2.05 3.05-.95 1.4 1.2 3.6 2.1 1.45 4.55 1.05 4.9-1.85 7.15-4.45l.3.7 7.25-5.8-.05 1.05 1.95-1.45.35.5 5-2.5 10.6-1.95 7.3-.1.05-.6.85-2.25q.3-.9.95-1.35.65-.5-7.9 0-3.95.55-10.9-.1v1l-2.5-.6-5.95 1.1-8.5 2.3-.15.95-1.1-.45q-5.75 2.8-9.95 6.9l1.55-.6z"/><path fill-rule="evenodd" fill="#131112" d="m-2.4 10.3 24.8-1.8 4.95 13.9-.95 2.8-2.15 10.3 4.05 9.35-1.9 5.9-2.5 2.8-5.3.35-4.35-1.25-1.85-2.2-1.25-3.75-5.3-1.25.2.15-3.3 4.55-7.2-.65-3.75-3.1-2.8-12.75 2.5-10.95 6.1-12.4" transform="translate(54 57.4)"/><path fill-rule="evenodd" fill="#e8bd17" d="m39.05 26.5 4.55 1.75-4.55-1.75m6.9 5.25L45 31.2l-10.8-2.6-8 6.6-2.7 12.65-1.15.9-2.45-6.3L22.3 31l8.05-6.25.05-.25 11.4.6 4.55 5.9-.4.75M23.4 31.7l-2.05 10.45 1.7 5.55-1.7-5.55L23.4 31.7" transform="translate(54 57.4)"/><path fill-rule="evenodd" fill="#5f3a01" d="m45.4 32.8.55-1.05 2.5 1 1 2.1-3.3 1.2-.75-3.25" transform="translate(54 57.4)"/><path fill-rule="evenodd" fill="#b79613" d="m45.95 31.75-.55 1.05-1.15 2.05-8.5-2.25-7.1 5.7-1.75 6.95-3.4 2.6 2.7-12.65 8-6.6L45 31.2l.95.55" transform="translate(54 57.4)"/><path stroke-width=".05" stroke-linejoin="round" stroke-linecap="round" stroke="#5f3a01" fill="none" d="m97.6 85.65-4.55-1.75m-16 21.2-1.7-5.55L77.4 89.1"/><path stroke-linejoin="round" stroke-linecap="round" stroke="#000" fill="none" d="m-6.4-44.55-1.8 6.25.15 2.75h-.55l-1.25 1.8-1.2 4.05 1.35 5.65-.35 3.2 2.7 2.25.3 7.1L-9.9-9l1.2 5.25L-9.85-.6l-.9 4.75 4.4 2.1.15 3.65 2 2.2L13.2 14l19.3 1.1 3.75-1.05L47.65-2.5l1.45-3.15.05-.35 3-2.55 1.1-10.4-4.45-1.3-.1-5.7 4.8-14.1-1.95-3.25-.15-.25.05-.35.7-4.85-4-2.2-.45-3.35-1.05-.9-35-1.7q-.45 2.05-1.55 1.05l-16.5 11.3z" transform="translate(54 57.4)"/><path fill-rule="evenodd" fill="#131112" d="m19.05 10.75 9.3 5 4.5 6.5 6.6 3.65.35 7.45-3 5.4-8.45 1.65-.65-3.75-3.1-3-3.05 1 .7-5.05 2.05-3.7.2-.2-4.95-5.2-5.1-3.4-.3-5.05L18.6 9.8l.45.95" transform="translate(54 57.4)"/><path stroke-linejoin="round" stroke-linecap="round" stroke="#000" fill="none" d="m-17.75 4.25 2.25-.75 3.6 2.05h.45l.2 3.25-14.65 12.4-5.2 1.9h-3.6l-2.9-5.85 1.6-5.55 17.9-7.45h.35m63.2 27.5 2.5 1 1 2.1-3.3 1.2-.75-3.25-1.15 2.05-8.5-2.25-7.1 5.7-1.75 6.95-4.55 3.5-2.45-6.3L21.8 31l8.05-6.25.05-.25 11.4.6 4.55 5.9-.4.75" transform="translate(54 57.4)"/><path fill-rule="evenodd" fill="#5f3a01" d="M-2.1 14.65v-.05q-.15-.3.15.05l.2.25-.35-.25m-2.25-8.7.05-.1.05.1 1.1 2.55-1.2-2.55m26.05-27.2.5.1-.5.05v-.15m5.25 1.65.05-.05v.05h-.05" transform="translate(54 57.4)"/><path fill-rule="evenodd" fill="#8c5513" d="m-7.25-32.8.1.2-.3.1.2-.3m-.8 6.55-.15.05.15-.05" transform="translate(54 57.4)"/><path fill-rule="evenodd" fill="#8d5e00" d="M1.85-33.8v.2l-.4-.05-.4-.35.45.1.35.1M-8.2-26.7l.15.45-.15.05-1.6.9 1.3-1.2.3-.2m-7.4 22.15v-.05l.1.05h-.1m9.6 6.3L-6.85.1-6 1.75" transform="translate(54 57.4)"/><path fill-rule="evenodd" fill="#d8d8d8" d="M35.6-17.85v.05l-.05.15.05-.2" transform="translate(54 57.4)"/><path fill-rule="evenodd" fill="#fff" d="M35.6-17.8v.15h-.05l.05-.15" transform="translate(54 57.4)"/><path fill-rule="evenodd" fill="#694201" d="m35.65-17.85-.05.05v-.05h.05" transform="translate(54 57.4)"/><path fill-rule="evenodd" fill="#ad6c01" d="m-15.5-4.55.6.25-.2.15-.4-.4" transform="translate(54 57.4)"/><path fill-rule="evenodd" fill="#131112" d="M1.85-33.8q2.75-1.5 5.5-1.8l2-.2.75-.05 3-.1q3-.05 5.75.85 2.65.85 4.1 1.75l2.9 1.8 1.65-.7q2.35-1.1 5.95-.95l1 .05q2.15.95 3.25 3.2 1.15 3.55-.15 6.4L36-22.3l-.3 2.9-.1 1.55-.05.2h.05q-.05 1.6.05 3.25l1.5 6.65L38.5-2.2l-.15 1.15-3.8-2.75.5-1 .25-.55-.3-.45-.8-.1-.5-.9-.25.2-.15.15-2.7.15-.9-.6-3.1-.65-3.15.3q-1.3.45-1.35 1.2l.05.2-8.2.45-2-.35-.6-.1.05.15-3.6.45q-1.4.3-1.1 1.15l1.05 1.35-3.3.65q-.85.55-.25.9l1.6.55L1.3.9l-.4.15-1.5.5q-2.1.9-3.55 3.95l-.15.35-.05.1-.2.55q-.15 4.1 2.45 8.1v.05Q-9.5 9.2-15.15-1.1l-.7-2.9.25-.55-6.65-2.4-.7-.4q-2.2-1.5-1.65-4.25.85-3.65 3.25-7.15 1.85-2.1 4-1.45h.3l.4.05 3.25.95.35-1.15.6-1.4q1-2 2.65-3.55l1.6-.9.15-.05-.15-.45-.2-.7q-.5-2.4.95-5.1l.3-.1-.1-.2.3-.55 1.15-.75 1.55-.4 2.4.05 2.9.45.4.35.25.2.15-.15v-.2M-15.5-4.55l-.1-.05v.05h.1l.4.4.2-.15-.6-.25m23.7-2.3 3.15 1-3.15-1M26.95-19.6H27v-.05l-.05.05m-5.25-1.65v.15l.5-.05-.5-.1m12.8 13.7-.8.75.8-.75m-46.9-9.75-4.6-.95 4.6.95m-2.6 5.65 1.1-2.85-4.65-1.65-1.85 5.05 1.3.1.55 1.5 1.9-.3 1.65-1.85m9 13.4L-6.85.1-6 1.75" transform="translate(54 57.4)"/><path fill-rule="evenodd" fill="#272325" d="M-2.1 14.6q-2.6-4-2.45-8.1l.2-.55 1.2 2.55-1.1-2.55-.05-.1.15-.35q2.7 6.05 7.35 9.6 4.65 3.5 12.15 4.1l-4.05.1-5.35-.8-3.1-.8Q0 16.65-1.75 14.9l-.2-.25q-.3-.35-.15-.05" transform="translate(54 57.4)"/><path fill-rule="evenodd" fill="#473239" d="m1.85-33.6-.15.15-.25-.2.4.05M35.6-17.65h-.05.05M9.25-2.6q.1-.85 1.2-1.35l2.5-.35q1.45.15 2.45.85.9.75.8 1.6-.1.85-1.15 1.35-1.1.55-2.55.4-1.45-.2-2.35-.95-1-.7-.9-1.55m25.15 1 .85-.2.85.4q.3.35.25.9l-.45.75q-.4.3-.9.25l-.8-.45q-.3-.35-.25-.85.05-.5.45-.8m-52.95-7.9-.55-1.5-1.3-.1 1.85-5.05 4.65 1.65-1.1 2.85-1.65 1.85-1.9.3" transform="translate(54 57.4)"/><path fill-rule="evenodd" fill="#322328" d="m35.6-17.8.05-.05 4.15 1.25q.65 1 .65 2.35-.05 1.9-.5 3.45l-.3.95-2.5 2.1-1.5-6.65q-.1-1.65-.05-3.25v-.15" transform="translate(54 57.4)"/><path fill-rule="evenodd" fill="#3d3d3d" d="M-4.15 5.5Q-2.7 2.45-.6 1.55l1.5-.5.4-.15L5.8-.65 4.2-1.2q-.6-.35.25-.9l3.3-.65L6.7-4.1q-.3-.85 1.1-1.15l3.6-.45.55-.05 2 .35 8.2-.45q.1.6 1.2 1.05 1.25.6 3.05.7l3.15-.35q1.35-.4 1.4-1.15l-.35-.7 2.7-.15.15-.15.25-.2.5.9.8.1.3.45-.25.55-.5 1 3.8 2.75-.65 3.15q-.7 2.8-2.35 5.2L33.8 9.5l-.45.45-1.45 1.6-.25.2-4.5 3.35-3.6 1.75-.85.3-.2.1-.7.25-.95.3-3.3 1h-.15l-.8.2h-.1l-.25.1-.9.1q-7.5-.6-12.15-4.1-4.65-3.55-7.35-9.6m13.4-8.1q-.1.85.9 1.55.9.75 2.35.95 1.45.15 2.55-.4Q16.1-1 16.2-1.85q.1-.85-.8-1.6-1-.7-2.45-.85l-2.5.35q-1.1.5-1.2 1.35m25.15 1q-.4.3-.45.8-.05.5.25.85l.8.45q.5.05.9-.25l.45-.75q.05-.55-.25-.9l-.85-.4-.85.2M14.6 11.5l.05.05-.05-.05" transform="translate(54 57.4)"/><path stroke-width=".05" stroke-linejoin="round" stroke-linecap="round" stroke="#4f3100" fill="none" d="m39 45.75 1.1-2.85-4.65-1.65-1.85 5.05 1.3.1.55 1.5"/><path stroke-width=".05" stroke-linejoin="round" stroke-linecap="round" stroke="#72525f" fill="none" d="m37 39.15 4.6.95m11.8 18.85 1.5-.5m.4-.15 4.5-1.55-1.6-.55q-.6-.35.25-.9l3.3-.65-1.05-1.35q-.3-.85 1.1-1.15l3.6-.45m-.05-.15-3.15-1m3.75 1.1-.55.05m.55-.05 2 .35m19.35-1.05.15-.15.25-.2.8-.75m-23.15 1.7.6.1"/><path fill-rule="evenodd" fill="#252525" d="M35.45-19.85v1.45l-.05.2.1.05q-.05 1.6.05 3.25l.75 3.1L33.75-7l-.15.15L15.45-5.1l-1.9-.25L13-5.4q-1.6-.3-3.05-.9l-.55-.15q-4.65-2-7.6-6.05-1.75-2.4-2.85-5.55l-.25-.75-.2-1.75.15.05h.15l1.25.2h1.5l4.2-.25 1.8-.3 1.35-.25 1.5-.15 5.25 1h.05l8.15 1 3.4-.55h.05l4.2-.6.8-.3.6-.3 2.55 1.15" transform="translate(54 57.4)"/><path fill-rule="evenodd" fill="#8f697b" d="m30.6-6.3.35.7q-.05.75-1.4 1.15l-3.15.35q-1.8-.1-3.05-.7-1.1-.45-1.2-1.05l-.05-.2q.05-.75 1.35-1.2l3.15-.3 3.1.65.9.6" transform="translate(54 57.4)"/><path fill-rule="evenodd" fill="#131112" d="m-22.35 9.25-6.25-.7-.3-.15 3.15-5.95 6.1-1.6L-8.7 6.1l-.8 7.3-3.65 3.65h-6.9l-.3-3.65-2-4.15M2.15 49.1q-.35 1-1.7 1.9-1.35.9-2.95 1.15l-2.3-.35-1.8.5h-1.15l-2 .6-2.4-.4q-.9-.6-.55-1.6.3-1.1 1.7-1.95 1.35-.9 2.9-1.1l1.2-.05 1.95-.55q1.5-.2 2.35.3l1.75-.45q1.6-.2 2.5.4.85.55.5 1.6m12.7 2.3 1.3.15 1.9-.25q1.55 0 2.35.7l1.85-.25q1.6 0 2.45.8.85.75.4 1.85-.4 1.05-1.8 1.85-1.45.75-3.1.75-1.5-.05-2.3-.7l-1.9.25-1.3-.15-1.9.25q-1.6-.05-2.4-.8-.85-.75-.45-1.85.45-1.1 1.9-1.85 1.4-.8 3-.75" transform="translate(54 57.4)"/><path fill-rule="evenodd" fill="#dbbc7d" d="M31.8-8.65q-.3 1.25-.9 1.35-.65.1-1.3-1-.65-1.15-.85-2.8-.25-1.65 0-2.9t.9-1.35q.65-.1 1.3 1 .6 1.1.9 2.8.2 1.65-.05 2.9m-11.4 0q-.25 1.25-.9 1.35-.65.05-1.25-1.05-.65-1.1-.9-2.75-.25-1.7 0-2.9.3-1.25.95-1.35.6-.15 1.25 1 .65 1.1.9 2.75t-.05 2.95" transform="translate(54 57.4)"/><path stroke-width="2" stroke-opacity=".573" stroke-linejoin="round" stroke-linecap="round" stroke="#73525f" fill="none" d="m80.3 25.7-2.9-1.8q-1.45-.9-4.1-1.75-2.75-.9-5.75-.85l-3 .1-.75.05-2 .2q-2.75.3-5.5 1.8l-.35-.1-.45-.1-2.9-.45-2.4-.05-1.55.4-1.15.75-.3.55-.2.3q-1.45 2.7-.95 5.1l.2.7-.3.2-1.3 1.2Q43 33.5 42 35.5l-.6 1.4-.35 1.15q-1.8-.8-3.25-.95l-.4-.05h-.3q-2.15-.65-4 1.45-2.4 3.5-3.25 7.15-.55 2.75 1.65 4.25l.7.4 6.65 2.4-.25.55.7 2.9L42.9 62l-8.1-3.9-6.1 1.6-3.15 5.95.3.15 6.25.7 2 4.15.3 3.65h.65q.55 2.1 2.25 3.7 2.5 2.4 6.05 2.4l2.6-.35-2.25 9.85-2.85.15q-3.95.55-10.9-.1v1l-2.5-.6-5.95 1.1q-4.25.95-8.5 2.3l-.15.95-1.1-.45q-5.75 2.8-9.95 6.9l1.55-.6q-1.7 1.5-2.05 3.05-.95 1.4 1.2 3.6 2.1 1.45 4.55 1.05 4.9-1.85 7.15-4.45l.3.7 7.25-5.8-.05 1.05 1.95-1.45.35.5 5-2.5 10.6-1.95 4.6-.05 2.05 9.35 1.55 1.3-.25.1-1.2.05q-1.55.2-2.9 1.1-1.4.85-1.7 1.95-.35 1 .55 1.6.85.55 2.4.4l2-.6h1.15l1.8-.5q.85.5 2.3.35 1.6-.25 2.95-1.15l1.15-.95 1.15.1 3.3-4.55-.2-.15 5.3 1.25 1.25 3.75.95 1.1-1.5.6q-1.45.75-1.9 1.85-.4 1.1.45 1.85.8.75 2.4.8l1.9-.25 1.3.15 1.9-.25q.8.65 2.3.7 1.65 0 3.1-.75 1.4-.8 1.8-1.85.4-1.05-.35-1.8l1.65-1.85 1.9-5.9-4.05-9.35.4-1.85 3.05 3 .65 3.75L91.25 96l3-5.4-.35-7.45-6.6-3.65-4.5-6.5-1.2-.65L86.1 69l.25-.2 1.45-1.6.45-.45 1.55-2.2q1.65-2.4 2.35-5.2l.65-3.15.15-1.15-1.35-5.55 2.5-2.1.3-.95q.45-1.55.5-3.45 0-1.35-.65-2.35L90.1 39.4h-.05l.1-1.55.3-2.9L92 33.7q1.3-2.85.15-6.4-1.1-2.25-3.25-3.2l-1-.05q-3.6-.15-5.95.95l-1.65.7z"/></g><g id="p"><path fill-rule="evenodd" fill="url(#f)" d="M-2.35-34.55q3.4-.4 6.75 1.15 3.35 1.6 4.75 4.3 1.35 2.65-.1 4.85-1.35 2.15-4.7 2.6-3.4.4-6.75-1.2-3.35-1.55-4.7-4.2-1.4-2.7 0-4.85 1.4-2.25 4.75-2.65" transform="translate(7.8 43)"/><path fill-rule="evenodd" fill="url(#g)" d="M26.7-32.1q3.2-1.4 6.35-.8 3.15.55 4.45 2.75 1.3 2.15-.05 4.65-1.3 2.45-4.45 3.8-3.2 1.3-6.35.8-3.15-.55-4.45-2.7-1.3-2.2 0-4.65 1.35-2.55 4.5-3.85" transform="translate(7.8 43)"/><path stroke-width="2" stroke-linejoin="round" stroke-linecap="round" stroke="#fff" fill="none" d="m38.5 34.35-.8-4.8m-10.5 5-.7-5"/><path fill-rule="evenodd" fill="#6a520b" d="m25.5 35.4-.2.5-.45.2-.45-.2-.2-.5.2-.5.45-.2.45.2.2.5M24 41.05l-.1-.45q0-.45.3-.75.35-.3.8-.3.45 0 .75.3.35.3.35.75l-.35.75-.75.3-.5-.1-.3-.2-.2-.3M42.15 28.4l-.4.15-.4-.15-.15-.25.15-.3.4-.1.4.1.15.3-.15.25m1.5 2.2.5.3q.4.35.4.85t-.4.85q-.4.35-.95.35l-.95-.35q-.4-.35-.4-.85t.4-.85l.6-.3.35-.05.45.05m-1.65.3-.4.15-.4-.15-.15-.3q0-.2.15-.35l.4-.1.4.1.15.35-.15.3M25.1 43.5q.35 0 .6.25l.3.7-.3.65-.6.3q-.35 0-.65-.3l-.25-.65q0-.4.25-.7.3-.25.65-.25m1.05-.9.25.1.15.2-.15.2-.25.1-.3-.1-.1-.2.1-.2.3-.1m-3.8 3.3-.2-.4.2-.4.5-.15.5.15.2.4-.2.4-.5.15-.5-.15" transform="translate(7.8 43)"/><path fill-rule="evenodd" fill="#ffc" d="M21.95 35.9q.2 0 .35.15l.15.45-.15.4-.35.2q-.2 0-.35-.2l-.15-.4q0-.25.15-.45.15-.15.35-.15m1.8 1.35.2.2.1.6-.1.55-.2.25-.2-.25-.1-.55.1-.6.2-.2m.75 4.3.1.5q0 .5-.4.8-.35.35-.9.35t-.95-.35q-.35-.3-.35-.8t.35-.85q.4-.3.95-.3l.7.15.2.3.3.2M42.85 30.6l-.2-.2-.2-.8.2-.85q.25-.3.6-.3t.55.3l.25.85-.25.8-.15.2-.45-.05-.35.05M21 42.9q-.2 0-.35-.3l-.1-.7.1-.7q.15-.3.35-.3l.3.3.15.7-.15.7-.3.3" transform="translate(7.8 43)"/><path stroke-width=".05" stroke-linejoin="round" stroke-linecap="round" stroke="#8fbf40" fill="none" d="m59.9 27.85-2.8-2.8M58.85 0l-5.2 15.3"/><path stroke-width=".05" stroke-linejoin="round" stroke-linecap="round" stroke="#131112" fill="none" d="m34.95 49.3-2.25 8.35"/></g><linearGradient y2="-.687" y1=".985" x2="-.171" x1=".784" spreadMethod="pad" id="a"><stop stop-opacity=".396" stop-color="#909" offset="0"/><stop stop-opacity="0" stop-color="#909" offset=".651"/><stop stop-opacity="0" stop-color="#909" offset="1"/></linearGradient><use xlink:href="#h" width="102.95" height="45" id="q"/></defs><path fill="none" d="M-1-1h223v289H-1z"/><use x="96.05" y="281.5" xlink:href="#i" width="381" transform="translate(-192.55 -294)" height="381"/><use x="70.15" y="205.595" xlink:href="#j" width="29.7" transform="translate(-53.828 -276.036) scale(1.3692)" height="81.45"/><use x="-68.216" y="88.09" xlink:href="#j" width="29.7" transform="matrix(.4424 .7472 -.7472 .4424 257.781 92.988)" height="81.45"/><use x="102.448" y="-60.844" xlink:href="#j" width="29.7" transform="matrix(-.6413 -.498 .498 -.6413 127.767 248.749)" height="81.45"/><use x="3.1" y="-21.923" xlink:href="#j" width="29.7" transform="rotate(-82.794 98.358 72.39) scale(.51497)" height="81.45"/><use x="70.15" y="205.595" xlink:href="#k" width="16.5" transform="translate(-6.346 -206.496) scale(1.3692)" height="16.5"/><use x="58.427" y="402.262" xlink:href="#k" width="16.5" transform="matrix(.7193 -.1343 .1343 .7193 19.858 -212.027)" height="16.5"/><use x="58.427" y="402.262" xlink:href="#k" width="16.5" transform="matrix(.7193 -.1343 .1343 .7193 -1.442 -226.627)" height="16.5"/><use x="58.427" y="402.262" xlink:href="#k" width="16.5" transform="matrix(.7193 -.1343 .1343 .7193 -2.092 -179.977)" height="16.5"/><use x="-72.828" y="337.397" xlink:href="#k" width="16.5" transform="rotate(84.944 46.18 144.803) scale(.28029)" height="16.5"/><use x="-72.828" y="337.397" xlink:href="#k" width="16.5" transform="rotate(84.944 53.505 144.471) scale(.28029)" height="16.5"/><use x="-72.828" y="337.397" xlink:href="#k" width="16.5" transform="rotate(84.944 45.643 133.8) scale(.28029)" height="16.5"/><use x="-7.589" y="8.768" xlink:href="#k" width="16.5" transform="matrix(.4904 .8301 -.8301 .4904 171.153 58.156)" height="16.5"/><use x="534.093" y="219.091" xlink:href="#k" width="16.5" transform="rotate(48.83 271.116 -21.037) scale(.515)" height="16.5"/><use x="534.093" y="219.091" xlink:href="#k" width="16.5" transform="rotate(48.83 291.72 -28.724) scale(.515)" height="16.5"/><use x="534.093" y="219.091" xlink:href="#k" width="16.5" transform="rotate(48.83 259.546 -51.958) scale(.515)" height="16.5"/><use x="36.468" y="44.826" xlink:href="#k" width="16.5" transform="rotate(144.388 76.455 57.199) scale(.1973)" height="16.5"/><use x="36.468" y="44.826" xlink:href="#k" width="16.5" transform="rotate(144.388 79.72 58.882) scale(.1973)" height="16.5"/><use x="36.468" y="44.826" xlink:href="#k" width="16.5" transform="rotate(144.388 78.96 52.322) scale(.1973)" height="16.5"/><use x="214.478" y="-523.678" xlink:href="#k" width="16.5" transform="rotate(138.888 98.606 -86.886) scale(.5256)" height="16.5"/><use x="574.497" y="-889.609" xlink:href="#k" width="16.5" transform="matrix(-.1741 .2204 -.2204 -.1741 109.605 -208.982)" height="16.5"/><use x="574.497" y="-889.609" xlink:href="#k" width="16.5" transform="rotate(128.306 110.625 -76.116) scale(.2809)" height="16.5"/><use x="574.497" y="-889.609" xlink:href="#k" width="16.5" transform="matrix(-.1741 .2204 -.2204 -.1741 107.855 -223.782)" height="16.5"/><use x="-2456.378" y="-1269.328" xlink:href="#k" width="16.5" transform="matrix(-.0776 -.0745 .0745 -.0776 115.776 -216.745)" height="16.5"/><use x="-2456.378" y="-1269.328" xlink:href="#k" width="16.5" transform="matrix(-.0776 -.0745 .0745 -.0776 115.926 -212.945)" height="16.5"/><use x="-2456.378" y="-1269.328" xlink:href="#k" width="16.5" transform="matrix(-.0776 -.0745 .0745 -.0776 121.576 -216.895)" height="16.5"/><use x="7.188" y="-1.96" xlink:href="#l" width="108" transform="matrix(-1.5304 0 0 1.5304 212.992 110.354)" height="115.25"/><use x="399.279" y="-230.889" xlink:href="#m" width="35.3" transform="matrix(.4858 .4241 .4241 -.4858 -40.131 -37.618)" height="32.85"/><use x="7.188" y="-1.96" xlink:href="#n" width="45.3" transform="matrix(-1.5304 0 0 1.5304 145.964 147.236)" height="45.3"/><use x="7.188" y="-1.96" xlink:href="#o" width="35.3" transform="matrix(-1.5304 0 0 1.5304 144.912 218.651)" height="32.85"/><use x="-6.63" y="-13.532" xlink:href="#m" width="35.3" transform="matrix(.0755 .6394 .7759 -.0916 144.992 203.567)" height="32.85"/><use x="1391.259" y="158.269" xlink:href="#m" width="35.3" transform="matrix(.0211 .208 .4214 -.0498 -25.084 -97.506)" height="32.85"/><use x="7.188" y="-1.96" xlink:href="#p" width="59.9" transform="matrix(-1.5304 0 0 1.5304 142.287 132.392)" height="89.05"/><use x="-53.121" y="-7.256" xlink:href="#q" width="102.95" transform="matrix(1.8072 0 0 1.6538 96 146.2)" height="45"/></svg>