<svg width="97" height="195" xmlns="http://www.w3.org/2000/svg" xmlns:xlink="http://www.w3.org/1999/xlink"><defs><g id="b" stroke-opacity="0" stroke-linejoin="round" stroke-linecap="round" stroke="#f0f" fill="none"><path d="M187.95-293.5v380h-380v-380h380M92.95.6H-97" transform="translate(192.55 294)"/><path d="m187.95-293.5-190 190 190 190m-380-380 190 190L-192 86.5" transform="translate(192.55 294)"/></g><g id="c"><path stroke-width="4" stroke-opacity=".443" stroke-linejoin="round" stroke-linecap="round" stroke="#eb69c8" fill="none" d="m172.25 32.15.55-1.2 3.15 3.2q-3.75 8.25-1.75 19.35l-2.2 5.85-1.25.2-2.25 3.35 4.3 3.2q-1.6 4.75-.6 7l-4.1 6.15v4.9l-3.1 2.3-1.8-4.35-3.15.6V88q-6.7 1.35-11 .2l-2.3 1.2-2.1-2.45q-5.4-2.5-9.45-4.8v-3l-.9-1.85q2.35-4.1.1-6.9l-6.35 2.1-1.55-.15-1.7-.35-2.9 5.5-.6 3.2 5.65 3.55 3.85 10.4 13.2 6.6-.4 5.75-.25 3.8 18.75 37.35 7.15 6.25-1.8 6.55-5.35 2v.1h3.2l-1.05 7.45-5.3 1.1q-5.25 12.3-10.3 22.8l3.9.6-1.1 6.4h3.2l2.15 6.4-3.75 3.95 4.75 11.8 10.7 9.8q-2.8 4.65-5.75 8.55l6.85 10.65 5.3 1.05 3.5 7.8q5.05.7 10.45 2.55l.95.3-4.25 12.8-5.3 2.15-14.95 74.55 3.2 3.2v12.35q-1.2 2.65-2.8 4.25-3.9 3.75-10.35.9-2.8-1.25-6-3.65l1.05-13.85 4.9-1.55 1.5-74.1-3.2-2.1-3.2-11.75q4.25-2.8 8.85-4.4l.75-8.35-3.25-5.95q-3.45 3.35-7 5.85v.05h-.05q-7.75 5.3-16.35 6.4l-4.25-6.35v9.55q-21.45 5.4-38.35 2.15-5.6-3.35-11.1-8.35l-7 19 1.2 4.95 4.15.35 6.9 1 .5.1 2.15 14.9-8.5 4.25 6.35 63.95 5.35 2.1v18.15q-1.85 1.8-3.9 2.75-4.85 2.15-10.9-.8-1.6-.8-3.3-1.95l-4.3-12.8 4.3-4.25L54.5 305.8l-10.65-3.2-1.05-11.7q4.65-4.1 10.65-6.35l-1.05-6.45 7.25-2.05 3-7.15-3-5.5-2-.3-2.2.7-2.65-3.25-3.5-2.15 1.7-2.15-5.75-3.2 1.55-3.25-1.2-5.25 1.2.1-1.25-1.5 1.75-.65-.05-.1-2 .4 1.3-1.5-2.25-3.5-1.6.55q-5.05 1.6-10.35 2.3l-2.55-4.75q2.6-3 6.35-5.7l-.8-1.6q.7-.8 1.5-1.45-3.2-4.5-8.95-13.75-2.35-3.8-5.25-9.45l-1.25-2.5-4.45-9.4-5.15-11.75q2.45-.9 2.25-1.6-2.15.3-2.35-.35l.7-.85q-2.05-.15-2.45-1.25-3.6-9.45-6.55-19.1.55-29.6 25.2-70.1-3.55 24.7-2.85 47.65l.3 6.15q.5 9.45 1.8 18.6 4.05 29.35 15.85 55.5l3.2 6.7 1.75-.45.75 1.35 6.2-2.65 5.3-1.95-.1.9q-.45 5.5 2 8.95-5.15 3.95-10.7 6.75l.55.85 2.3.55 5.1-1.1 1.1.4 20.6-24.2-3.8-2.2q5.4-.3 2.15-7.45 1.75-2.65-1.05-5.3l1.05-1.1q10.3-.5 6.4-8.5 3.3-4.4-2.15-9.6l8.3-1.75q1.65-4.5 4.5-9.95 3.15-7.4-2.35-14.05l-1.6-1.7v.05q-7.35-4.5-11.95-10.1l-7.05 28.25L76.9 178l-7.4 3.9-3.05-2.55-3.3 1.45-4.25-13.5 5.85-1.3L75 128.25q-3.7-10.9-.25-24.85l26.9-15.95-.25-6.4 4.25-4.3 6.25 1.05 1.85-4.75q-1.4-1.35-1-2.6.9-1.05 2.2-1.2l2.45-5.2-2.15-2.2-1.05 1.05q-3.75-.75-7.45-6.35-5.1-5.1-1.7-28.5l-.15-.05q-2.15-2.9-.3-6.65l1.4.8.75-3.95q20.5-12.1 38.55-14 10.7 7.5 17.8 15.25 5.75 6.25 9.15 12.7m-48.65 58.9-3.75-1.7-.25-2.05.4-1.2 1.65.25 1.95 4.7m-15.7-2.25-.1-4.55 1.85.25-.75 3.9q-.55.05-1 .4m33.75 46.35 2.35 2.35v7.45l-3.1 3.1-.05.45 1.05 9.25-1.85-.1-1.35 10.75q1.9 5.5 4.45 9.6l7.25-14.95v-5.3h1.35l.8-9.6-.9-2.7-2.75-7.4q-2.5-6.3-5.4-12.3h-1.2l-.65 9.4"/><path stroke-width="4" stroke-opacity=".353" stroke-linejoin="round" stroke-linecap="round" stroke="#74c0f8" fill="none" d="m170.9 29.9.5-1.2 3.2 3.2q-3.8 8.3-1.75 19.35l-2.25 5.85-1.25.25-2.2 3.35 4.25 3.2q-1.6 4.75-.6 6.95l-4.1 6.2v4.9l-3.1 2.3-1.8-4.4-3.15.6v5.3q-6.7 1.35-10.95.25l-2.35 1.15-2.1-2.45q-5.4-2.5-9.4-4.8v-2.95l-.9-1.9q2.3-4.1.1-6.9l-6.4 2.1-1.55-.15-1.7-.35-2.9 5.55-.55 3.15L125.6 82l3.8 10.4 13.25 6.65-.4 5.75-.3 3.75 18.8 37.35 7.15 6.25-1.85 6.55-5.35 2 .05.1h3.2l-1.1 7.5-5.3 1.05q-5.25 12.3-10.3 22.8l3.9.65-1.05 6.4h3.2l2.1 6.35-3.7 4 4.7 11.8 10.75 9.8-5.8 8.5 6.85 10.65 5.3 1.1 3.55 7.8q5.05.7 10.45 2.5l.95.35-4.25 12.75-5.35 2.15-14.9 74.55 3.2 3.2v12.35q-1.2 2.7-2.8 4.25-3.95 3.75-10.4.9-2.8-1.25-6-3.65L149 354.7l4.9-1.55 1.5-74.05-3.2-2.15-3.2-11.7q4.25-2.85 8.9-4.4l.7-8.4-3.25-5.95q-3.4 3.35-7 5.85l.05.05h-.1q-7.75 5.3-16.35 6.45l-4.25-6.4v9.6q-21.4 5.4-38.35 2.1-5.6-3.3-11.05-8.3l-7.05 18.95 1.25 4.95 4.15.35 6.85 1 .55.1 2.1 14.9-8.5 4.3 6.4 63.9 5.3 2.15v18.1q-1.85 1.8-3.9 2.75-4.85 2.15-10.85-.8-1.65-.8-3.35-1.95L67 371.75l4.25-4.25-18.1-63.9-10.65-3.2-1.1-11.75q4.65-4.1 10.65-6.3L51 275.9l7.25-2.1 3-7.15-3-5.45-1.95-.35-2.25.7-2.65-3.2-3.5-2.2 1.7-2.15-5.75-3.2 1.55-3.25-1.2-5.25 1.2.1-1.25-1.5 1.75-.65-.05-.1-2 .4 1.3-1.5-2.2-3.45-1.65.5q-5 1.6-10.3 2.3l-2.6-4.75q2.65-3 6.4-5.7l-.85-1.6 1.5-1.45q-3.15-4.45-8.9-13.7-2.4-3.8-5.25-9.45l-1.25-2.55-4.45-9.35-5.2-11.75q2.45-.9 2.25-1.6-2.1.25-2.35-.4.75-.4.7-.85-2.05-.15-2.45-1.2Q4.95 164.6 2 154.9q.55-29.55 25.2-70.1-3.55 24.75-2.8 47.7l.25 6.1q.5 9.45 1.8 18.6 4.1 29.4 15.85 55.55l3.2 6.65 1.8-.45.75 1.35 6.2-2.6 5.3-2-.15.9q-.45 5.5 2 8.95-5.15 3.95-10.7 6.75l.55.85 2.3.55 5.15-1.05 1.05.4L80.4 208.8l-3.8-2.15q5.35-.3 2.1-7.45 1.8-2.7-1.05-5.35l1.05-1.05q10.3-.55 6.4-8.55 3.3-4.4-2.15-9.6l8.3-1.75q1.65-4.5 4.5-9.95 3.2-7.35-2.35-14.05l-1.55-1.7-.05.05q-7.3-4.5-11.95-10.1L72.8 165.4l2.7 10.35-7.4 3.95-3.05-2.6-3.3 1.45-4.25-13.45 5.85-1.35L73.6 126q-3.7-10.9-.2-24.85l26.9-15.95-.3-6.4 4.3-4.25 6.2 1 1.85-4.75q-1.4-1.35-1-2.6.9-1.05 2.2-1.2l2.45-5.2-2.15-2.2-1.05 1.1q-3.75-.8-7.45-6.4-5.1-5.1-1.65-28.5l-.15-.05q-2.2-2.85-.35-6.6l1.4.8.75-4Q125.85 3.85 143.9 2q10.7 7.45 17.8 15.2 5.75 6.25 9.2 12.7m-52.65 55.2.35-1.25 1.65.25 1.95 4.75-3.75-1.7-.2-2.05m-10-2.8-.75 3.85q-.55.05-1 .4l-.1-4.55 1.85.3m32.65 41.25-.6 9.35 2.35 2.35v7.45l-3.15 3.15v.45l1 9.2-1.85-.1-1.35 10.75q1.9 5.55 4.45 9.6L149 160.8v-5.3h1.35l.8-9.6-.9-2.7-2.75-7.4q-2.45-6.3-5.4-12.25h-1.2"/><path fill-rule="evenodd" fill-opacity=".6" fill="#bb382b" d="m88.25 178.65-6.3-5.05 8.05-1.9q-2.6 3.75 3 7.55l-4.75-.6" transform="translate(2 2)"/><path fill-rule="evenodd" fill-opacity=".6" fill="#23322d" d="M93.8 118.55q-.6 18-2.55 22.8.05 3.8-.5 4.8-25.9-15.85-18.4-46.1l1.15-.45.85 1.05q20.85 17.5 19.45 17.9M112 83.7l8.3 3.6.25 15.45q-16.75-7.15-20.7-15.6L112 83.7" transform="translate(2 2)"/><path fill-rule="evenodd" fill="#a3703d" d="m103.75 81.75-2.15 1.15-2.65-5.2 4.3-4.25 12.75 2.1 8.55 5.35-.05.3-20.75-2.95v3.5" transform="translate(2 2)"/><path fill-rule="evenodd" fill="#6d4b29" d="M103.75 81.75v-3.5l20.75 2.95-.9 4.4-4.4-2.55-13.85-2.15-1.6.85" transform="translate(2 2)"/><path fill-rule="evenodd" fill-opacity=".6" fill="#66462d" d="m152.9 371.1.95-15.9 3.2-3.2 4.25-73.5-4.25-2.1-1.1-10.65h20.25q5.1-2.6 10.25-5.15l.95.35-4.25 12.75-5.35 2.15-6.1 3.1-11.35 73.95 2.55-2.5 3.2 3.2-2.8 2.65v13.95q-3.9 3.75-10.4.9M46.25 300.75v-11.6l20.25 2.15L82.45 280l.55.1 2.1 14.95-8.5 4.25-6.75 3.35 9.95 63.75 3.2-3.2 5.3 2.15-6.35 6.85 2.5 14q-4.9 2.15-10.9-.8l-3.85-13.15 3.15-4.25-15.95-65-9.05-1.8-1.6-.45" transform="translate(2 2)"/><path fill-rule="evenodd" fill-opacity=".6" fill="#835a3a" d="M186.45 260.6q-5.15 2.55-10.25 5.15h-20.25l1.1 10.65 4.25 2.1-4.25 73.5-3.2 3.2-.95 15.9q-2.75-1.25-6-3.65l1.1-13.85 4.9-1.5 1.45-74.1-3.2-2.15-3.15-11.7q16.5-10.9 38.45-3.55m-104 19.4L66.5 291.3l-20.25-2.15v11.6l-4.8-1.45-1.05-11.75q6.45-5.75 15.7-7.8 8.55-1.95 19.5-.75l6.85 1m-34.6 21.2 9.05 1.8 15.95 65-3.15 4.25 3.85 13.15-3.35-1.95-4.25-12.8 4.25-4.25-18.1-63.9-4.25-1.3" transform="translate(2 2)"/><path fill-rule="evenodd" fill-opacity=".6" fill="#4f3622" d="M163.3 370.2v-13.95l2.8-2.65V366q-1.2 2.65-2.8 4.2m-.4-19.8-2.55 2.5 11.35-73.95 6.1-3.1-14.9 74.55m-78.45 35.8-2.5-14 6.35-6.85v18.1q-1.85 1.8-3.85 2.75m-1.45-23-3.2 3.2-9.95-63.75 6.75-3.35 6.4 63.9" transform="translate(2 2)"/><path fill-rule="evenodd" fill="#d0cb88" d="M163.05 265.75 156.6 261q.3-.35.95-9.65l-18.05-33.3 4.8-4.75 22.85 35.9 5.35 1.1-.6 6.5-2.6 4.25v-6.5l-5.3 11.2h-.95M52.1 287.55l3.3-10.3 4.25-.85 17.1-33 15.55-29.45-22.1 59.75 2.15 8.55-8.55 6-5.85-2.2-5.85 1.5" transform="translate(2 2)"/><path fill-rule="evenodd" fill="#aca544" d="M163.05 265.75h.95l5.3-11.2v6.5l2.6-4.25.6-6.5 3.5 7.8-3.5 5.25-3.05-1.15-5.7 4.05-.7-.5" transform="translate(2 2)"/><path fill-rule="evenodd" fill="#fffcd1" d="m76.75 243.4-17.1 33-4.25.85-3.3 10.3-2.15-12.75 7.25-2.1 15.15-36.25 4.4 6.95" transform="translate(2 2)"/><path fill-rule="evenodd" fill-opacity=".6" fill="#734a2d" d="m154.6 218.3.8 1.95 4.4 4.05-13.95-6h8.75m-7.35 33q-7.75 5.3-16.3 6.45l-4.3-6.4h6l-12.25-51.6q7.15.3 10 1.1l-4.85 3.25q.85 6.75 2.2 6.75 1.3 0 8.25 19.2 3.45 9.55 11.3 21.2l-.05.05m-26.15-4.2-3.5 11.8 1.5-48.4 11.05 39-9.05-2.4" transform="translate(2 2)"/><path fill-rule="evenodd" fill-opacity=".6" fill="#8a5935" d="M154.6 218.3h-8.75l13.95 6 6.3 5.75q-8.65 14.2-18.8 21.2-7.85-11.65-11.3-21.2-6.95-19.2-8.25-19.2-1.35 0-2.2-6.75l4.85-3.25q5.1-.6 18.65 3.6l5.55 13.85m-27.95 33.05v9.6q-21.4 5.4-38.35 2.1-8.25-4.9-16.3-13.5l-.25-.35-.9-.9 18.55-25.7-7.45 1.05 19.85-25.6q13.55 2.1 18.6 1.7l12.25 51.6h-6m-5.55-4.25 9.05 2.4-11.05-39-1.5 48.4 3.5-11.8" transform="translate(2 2)"/><path fill-rule="evenodd" fill="#734a2d" d="m147.3 251.25.05.05h-.1l.05-.05" transform="translate(2 2)"/><path fill-rule="evenodd" fill-opacity=".6" fill="#b97747" d="m70.85 248.3-.7-.85q-5.8-6.5-11.45-14.95v-.55l29.1-33.65q4.95-1.6 14-.25l-19.85 25.6 7.45-1.05-18.55 25.7" transform="translate(2 2)"/><path fill-rule="evenodd" fill="#d0cb88" d="m115.5 76.1-3.2-4.25 4.25 1.05 4.25-9.6 2.25 3.95-3.55 6.95q-.8 4.75-2.3 9.8.55 6.15 1.55 12.65-2.5 5.15-2.4 5.7-8 .8-8.6 1.6l-2.45 2.75-.8-.5 3.15-11.6.4-1.45q4.4-1.35 5.3-6.4l-4.25-2.15.6-.1 4.7-.95 1.1-7.45q.75.45 1.6.55-.85-.1-1.6-.55m-.55 9.05q.35 1.4-5.25-.65 5.6 2.05 5.25.65m1.05 9.6q-3.7 1.55-8.35-.15 4.65 1.7 8.35.15" transform="translate(2 2)"/><path fill-rule="evenodd" fill="#fffcd1" d="m123.05 67.25-2.25-3.95-4.25 9.6-4.25-1.05 3.2 4.25q-1.9-1-3.75-3.75 1.85 2.75 3.75 3.75l-1.1 7.45-4.7.95-.6.1 4.25 2.15q-.9 5.05-5.3 6.4l-.4 1.45-3.15 11.6-1.25-.8q.85-9.1 2.65-16.25-1.3-1.35-1.25-2.65.65-1.3 1.85-1.45l1.1-5.55q-2.1-1.55-2-3.05 1.2-.9 3.55-1.15l2.2-5.6q-1.45-1.35-1.05-2.6.9-1.05 2.2-1.15 1.55-3.55 2.85-6l9.2 3.9-1.5 3.4m-14.5 16.85 1.15.4-1.15-.4" transform="translate(2 2)"/><path fill-rule="evenodd" fill="#aca544" d="m105.3 106.7 2.45-2.75q.6-.8 8.6-1.6-.1-.55 2.4-5.7l.4 2.45 1.15 6.3q1.5 11.6-15 1.3" transform="translate(2 2)"/><path stroke-width=".5" stroke-opacity=".122" stroke-linejoin="round" stroke-linecap="round" stroke="#000" fill="none" d="M117.5 78.1q.75.45 1.6.55m-7.4 7.85-1.15-.4m3.2-11.75q1.85 2.75 3.75 3.75m-5.8 8.4q5.6 2.05 5.25.65m-7.3 9.45q4.65 1.7 8.35.15"/><path fill-rule="evenodd" fill="#d0cb88" d="M114.95 63.85q16.55 5.85 6.25-9.45l4.95-6 1.05-12.8v-8.5q18.45 3.5 29.85 0 2.5-1.7 3.65-11 6.15 6.7 9.65 13.65V51.1l-13.3-2.7 1.55 5.9-2.35-1.25q3.15 8.1 4.75 16l-.7 3.1-4.05 3.85 11.4-3.05-2 3-1.7.7q-1.5.55-1.8 1.6l-1.4.5-3.15.6-2 .25q-7.85.1-9.4 2.3-2.1-4.15-3.2-.95-3.05-4.1-9-5.8l-1.2.7-.9-1.9q2.3-4.1.1-6.9l-6.4 2.15-1.55-.2q-2.85-.45-5.05-1.65-2.35-1.3-4.05-3.5m30.2-5.2 2.85-.15 4.25-9.55-1.1-4.3-4.25-2.1q-2.9.3-5.3 1.6h-2.7l-6.35 7.45 2.1 6.4 9.6 2.1.9-1.45m-8.2 3.15q.25 2.85-2.75 10.15l6.85 4.95V66.85l-4.1-5.05m15.3-6.45-1.1 9.55 7.5 4.3q-1.5-8-4.3-16l-2.1 2.15" transform="translate(2 2)"/><path fill-rule="evenodd" fill="#fffcd1" d="M160.7 16.1q-1.15 9.3-3.65 11-11.4 3.5-29.85 0v8.5l-1.05 12.8-4.95 6q10.3 15.3-6.25 9.45V60.7l-2.15-2.2-1.05 1.1q-3.75-.8-7.45-6.4-6.1-6.1 0-38.35Q124.8 2.75 142.85.9q10.7 7.45 17.85 15.2m-23.75 45.7 4.1 5.05V76.9l-6.85-4.95q3-7.3 2.75-10.15m-22-3.5q.55-3.35-2.15-8.3 2.7 4.95 2.15 8.3m3.2-14.7q1.45 3.75 5.35 4.25 2.25-4.8 2.1-9.55.15 4.75-2.1 9.55-3.9-.5-5.35-4.25" transform="translate(2 2)"/><path fill-rule="evenodd" d="M161 69.05q-1.6-7.9-4.75-16l2.35 1.25h.05l5.3 8.5-2.95 6.25m-19.4-24.9q2.4-1.3 5.3-1.6l4.25 2.1 1.1 4.3L148 58.5l-2.85.15q-5.1-.15-9.15-3.1l-1.7-4q2.95-5.2 7.3-7.4m2 5.65.05-.05v-.45q0-.9-.7-1.55l-.1-.1q-.65-.6-1.5-.7h-.25l-.4.05-.35.05-.25.05-.55.3-.35.25q-.7.7-.7 1.65t.7 1.65l.15.1.05.05.15.2.55.3.6.2h.8l1.35-.6q.6-.45.7-1.05l.05-.35m-3.85.95q.35.35.85.55-.5-.05-.9-.4l.05-.15m1.4-3.55.4.15-.45-.05.05-.1m11.1 8.15 2.1-2.15q2.8 8 4.3 16l-7.5-4.3 1.1-9.55" transform="translate(2 2)"/><path fill-rule="evenodd" fill="#aca544" d="M167.65 72.95 156.25 76l4.05-3.85.7-3.1 2.95-6.25-5.3-8.5h-.05l-1.55-5.9 13.3 2.7v2.1l-4.25 6.4 4.25 3.2q-1.55 4.75-.6 6.95l-2.1 3.2m-22.5-14.3-.9 1.45-9.6-2.1-2.1-6.4 6.35-7.45h2.7q-4.35 2.2-7.3 7.4l1.7 4q4.05 2.95 9.15 3.1" transform="translate(2 2)"/><path fill-rule="evenodd" fill="#306" d="M141.75 47.45q.55.1.95.45.6.6.6 1.5 0 .85-.6 1.35-.55.6-1.45.6h-.35l-.2-.05h-.1q-.5-.2-.85-.55l-.2-.2q-.35-.5-.35-1.15l.05-.4.05.05.25.85.3.35.85.45.2.05h.2q.6 0 1.1-.4l.15-.1q.5-.55.5-1.2 0-.7-.5-1.2l-.6-.4" transform="translate(2 2)"/><path fill-rule="evenodd" fill="#300" d="m139.35 51.05-.15-.1q-.7-.7-.7-1.65t.7-1.65l.35-.25.55-.3.25-.05.35-.05.4-.05h.25q.85.1 1.5.7l.1.1q.7.65.7 1.55v.45l-.05.05-.75 1.15q-.7.65-1.75.65h-.4q-.65-.1-1.15-.4l-.2-.15m1.25.25h.1l.2.05h.35q.9 0 1.45-.6.6-.5.6-1.35 0-.9-.6-1.5-.4-.35-.95-.45l-.2-.1-.4-.15-.25-.05h-.2l-.3.05q-.45.05-.85.45l-.05.1q-.55.6-.55 1.45l.1.7.45.8.05.05.15.15q.4.35.9.4" transform="translate(2 2)"/><path fill-rule="evenodd" fill="#fff" d="m143.6 49.8-.05.35q-.1.6-.7 1.05l-1.35.6h-.8l-.6-.2-.55-.3-.15-.2-.05-.05.2.15q.5.3 1.15.4h.4q1.05 0 1.75-.65l.75-1.15m-1.85-2.35.6.4q.5.5.5 1.2 0 .65-.5 1.2l-.15.1q-.5.4-1.1.4h-.2l-.2-.05-.85-.45-.3-.35-.25-.85q0-.4.15-.7l-.2.65-.05.4q0 .65.35 1.15l.2.2-.05.15-.15-.15-.05-.05-.45-.8-.1-.7q0-.85.55-1.45l.05-.1q.4-.4.85-.45l.3-.05h.2l.25.05-.05.1.45.05.2.1" transform="translate(2 2)"/><path fill-rule="evenodd" fill="#066" d="m139.3 49.05-.05-.05.2-.65q-.15.3-.15.7" transform="translate(2 2)"/><path fill-rule="evenodd" fill="#dcd8a7" d="m132.8 75.85 1.2-.7q5.95 1.7 9 5.8 1.1-3.2 3.2.95 1.55-2.2 9.4-2.3l2-.25v5.35q-6.7 1.35-10.95.2l-2.35 1.15-2.05-2.45q-5.45-2.5-9.45-4.8v-2.95m27.95 2.9 1.4-.5q.3-1.05 1.8-1.6l1.7-.7v4.9l-3.1 2.3-1.8-4.4" transform="translate(2 2)"/><path stroke-width=".5" stroke-opacity=".122" stroke-linejoin="round" stroke-linecap="round" stroke="#000" fill="none" d="M116.95 65.85q1.7 2.2 4.05 3.5 2.2 1.2 5.05 1.65l1.55.2 6.4-2.15M114.8 52q2.7 4.95 2.15 8.3m10.65-20q.15 4.75-2.1 9.55-3.9-.5-5.35-4.25"/><path fill-rule="evenodd" fill-opacity=".8" fill="#232323" d="M133.6 31.7q9.9 3.2 20.75 5.5 8 .65 12.8-2.1l3.2-7.45 3.2 3.15q-3.8 8.3-1.75 19.35L169.55 56q-2.95 1.4-14.1-5.85l-1.1-6.55q-10.9-3.15-20.75-6.55 1.9-1.25 0-5.35" transform="translate(2 2)"/><path fill-rule="evenodd" fill-opacity=".6" fill="#333" d="M133.6 31.7q1.9 4.1 0 5.35-17.1-5.9-31.1-12.4-2.2-2.85-.35-6.6 14.25 8.1 31.45 13.65" transform="translate(2 2)"/><path fill-rule="evenodd" fill="#fffcd1" d="m67.3 178.5-.25.1-3-2.55-3.3 1.4-4.3-13.45 5.9-1.35 13.2-48.75-2.15-7.45 4.25-4.25 8.55 1.05 4.25 9.6-3.1 2.65-9-7.3.9 7.3-12.75 49-2.15 3.2 2.95 10.8m84.8-19.6-3.05-1.3 1.05-12.8-.9-2.7 11.05 6.45-1.1 6.4-6.4 2.1-.65 1.85" transform="translate(2 2)"/><path fill-rule="evenodd" fill="#d0cb88" d="m67.3 178.5-2.95-10.8 2.15-3.2 12.75-49-.9-7.3 9 7.3-4.35 3.75-11.25 45.05 2.4 9.15-3.65 3.3-3.2 1.75m81.9-36.4-2.75-7.4q-5.45-13.9-13.05-26.45l4.4-7 21.9 43.55 7.15 6.25-1.85 6.55-8.5 3.2-4.4-1.9.65-1.85 6.4-2.1 1.1-6.4-11.05-6.45" transform="translate(2 2)"/><path fill-rule="evenodd" fill="#aca544" d="m74.15 173.45.3 1.2-3.95 2.1 3.65-3.3" transform="translate(2 2)"/><path fill-rule="evenodd" fill-opacity=".6" fill="#354a42" d="m85.45 139.1 5 1.45q3.35-9 2.15-21.3-8.7-14.35-19.15-14.45l-1.1-4.75 28.75-17q3.05 7.45 6.15 12.95 4.9 8.8 9.85 12.6 3.15-8.6 3.2-21.3l21.3 10.65-.4 5.75q-1.75-1.45-6-3.15 4.1 12.3 3.7 26.7-5.9 7.8-13.85 11.7 1.45 10.4-2.1 18.95l-1.2-5.4q.6-9.1.45-16.65.15 7.55-.45 16.65l1.2 5.4v.25l.1.1 19.05 21.2.25-2.4 2.15 2.55-1.35 3.8-14.75 15.9q-27.85 1-37.85-13.4-1.55-2.25-2.65-4.8.25-3.6 2-8.4l11.75 9.95q.7-7.9-2.15-19.2l4.25-12.8-11.4-2.85-2.95-3-4.25-4.2.3-1.5m10.85-22.5 3.4-30.95-25.5 16.8q7.1 0 22.1 14.15m24.2 2.25v.1l-.55 2.55-3.4 16.4 5.65-2.05h2.2q-.25-7.8-3.65-15.8l-.25-1.2m-2.2-7.7q1.05 9.45 1.65 10.35-.6-.9-1.65-10.35m9.6 77.6q-1.2-13.35-4.85-30.5 3.65 17.15 4.85 30.5" transform="translate(2 2)"/><path fill-rule="evenodd" fill="#3e554b" d="m144.5 179.6 1.15 1.05-2.5 2.75 1.35-3.8m-59.35-39L83 138.4l2.45.7-.3 1.5m37.8 17.3.1.35-.1-.1v-.25" transform="translate(2 2)"/><path fill-rule="evenodd" fill-opacity=".6" fill="#3e554b" d="M89.9 172.7q1.7-4.85 4.8-10.85 3.2-7.35-2.35-14.05l11.4 2.85-4.25 12.8q2.85 11.3 2.15 19.2L89.9 172.7m6.4-56.1q-15-14.15-22.1-14.15l25.5-16.8-3.4 30.95" transform="translate(2 2)"/><path fill-rule="evenodd" fill-opacity=".6" fill="#23322d" d="M141.2 103.7q-3.15 44.35-2.8 44.3l-2.15 17.05q2.5 7.3 6.1 12l-.25 2.4-19.05-21.2-.1-.35q3.55-8.55 2.1-18.95 7.95-3.9 13.85-11.7.4-14.4-3.7-26.7 4.25 1.7 6 3.15m-20.7 15.25v.05q-.2 3.05-.55 2.5.35.55.55-2.5l.25 1.05q3.4 8 3.65 15.8h-2.2q-.2-8.9-1.45-15.8 1.25 6.9 1.45 15.8l-5.65 2.05 3.4-16.4.55-2.55" transform="translate(2 2)"/><path fill-rule="evenodd" fill="#354a42" d="M120.5 119v-.15.15-.15l.25 1.2-.25-1.05" transform="translate(2 2)"/><path stroke-width=".5" stroke-opacity=".122" stroke-linejoin="round" stroke-linecap="round" stroke="#000" fill="none" d="M122.5 121v-.15m-.55 2.65q.35.55.55-2.5m.25 1.05-.25-1.2m1.7 17q.15 7.55-.45 16.65l1.2 5.4.1.35q3.65 17.15 4.85 30.5m-5.7-52.9q-.2-8.9-1.45-15.8m-.8 1.45q-.6-.9-1.65-10.35"/><path fill-rule="evenodd" fill-opacity=".6" fill="#bb382b" d="M75.55 205.55q5.35-.3 2.1-7.45 1.8-2.7-1.05-5.35l1.05-1.05q10.3-.55 6.4-8.55 3.35-4.4-2.1-9.55l5.3 1.05q3.45 2.85 6.85 5.3l2.75 12.8-7.45-1.05-1.1 7.45-4.25 1.05 7.45 13.85q-7.8-3.75-15.95-8.5" transform="translate(2 2)"/><path fill-rule="evenodd" fill-opacity=".6" fill="#72231b" d="M125.05 191.7h2.7q8.35-6 15.95-18.1v17l6.4 1.1-1.05 6.4h3.2l2.1 6.35q-12.45 14-27.85 20.2-1.75-5.85-3.15-11.6l-2.05-6.65q2.15.15 3.9-.6 3.2-1.5 3.6-1.35l-3.75-12.75m17.6 12.75 4.25-5.3-4.25 5.3" transform="translate(2 2)"/><path fill-rule="evenodd" fill-opacity=".6" fill="#9b3024" d="m91.5 214.05-7.45-13.85 4.25-1.05 1.1-7.45 7.45 1.05-2.75-12.8q16 11.3 30.95 11.75l3.75 12.75q-.4-.15-3.6 1.35-1.75.75-3.9.6l2.05 6.65q1.4 5.75 3.15 11.6l-3 1.15q-15.25-3.65-32-11.75M116 201.3l3.2 4.25-21.3-10.65 21.3 10.65-3.2-4.25m-10.65 5.3-18.1-5.3 18.1 5.3" transform="translate(2 2)"/><path stroke-width=".5" stroke-opacity=".122" stroke-linejoin="round" stroke-linecap="round" stroke="#000" fill="none" d="M77.55 207.55q8.15 4.75 15.95 8.5 16.75 8.1 32 11.75l3-1.15q15.4-6.2 27.85-20.2m-60.25-24.5q-3.4-2.45-6.85-5.3m56.45 15.95v-17q-7.6 12.1-15.95 18.1h-2.7q-14.95-.45-30.95-11.75m3.8 14.95 21.3 10.65-3.2-4.25m30.9-2.15-4.25 5.3m-55.4-3.15 18.1 5.3"/><path fill-rule="evenodd" fill="#6d4b29" d="M124.55 80.9q12 32.9 11.7 33l-1.05 7.5-16-38.35 5.35-2.15m-25.6-3.2 6.4 3.2 1.1 44.75-5.35-1.1-2.15-46.85" transform="translate(2 2)"/><path fill-rule="evenodd" fill="#fffcd1" d="m122.9 156.5-.5.05q-12.15-15.6-19.15-13.85l-3.2-9.6 3.2-1.05 1.05-7.5-3.2-4.25 1.05-8.5h4l4 4.8q-1.7 8.95-2.1 8.5l-1.1 9.6 18.1 15.95-2.15 5.85m13.35-24.85.7-.25-.55.3-.15-.05m-17.6 11.05-3.15-1.6v-3.2l8.5 5.3v2.15l-5.1-2.55-.25-.1m11 3.85-.3-.15 2.55-.25-2.25.4" transform="translate(2 2)"/><path fill-rule="evenodd" fill="#aca544" d="M139.2 111.8h3.45v10.65h-4.25l-3.1 7.45.95 1.75.15.05-1.75.85-1.05-2.1 4.25-10.65q2-.15 2.15 0l-.8-8m-.75 33.7.6 5.35-9.4-4.3 2.25-.4 1.95-.2 2.95-.3 1.65-.15m-5.7-5.1 3.05 1.5-2.8.55-.25-2.05" transform="translate(2 2)"/><path fill-rule="evenodd" fill="#d0cb88" d="M106.15 111.8h4.55l4.25 7.45-5.3 5.3 1.05 5.35v4.4l4.25 2 3.2-1.05 2.55 2.15v.95l1-.2 1.8 1.35 2.1 3.2 2.15-3.2L132 143v-4.6l-4.25-6.35 5.3-7.5v-6.35l-1.05-6.4h7.2l.8 8q-.15-.15-2.15 0l-4.25 10.65 1.05 2.1 1.75-.85.55-.3 1.35-.55 3.3 3.3v7.45l-3.2 3.2.05.7-1.65.15-2.95.3-1.95.2-2.55.25.3.15q-2.25.5-4.95 1.35-3.05-1.9-5.8-5.1 2.75 3.2 5.8 5.1 2.7-.85 4.95-1.35l9.4 4.3.4 3.55-7.05-.4q-2.75 1.7-9.5 2.5l2.15-5.85-18.1-15.95 1.1-9.6q.4.45 2.1-8.5l-4-4.8m8.8 26.9v2.5l3.7 1.5-3.7-1.5v-2.5m3.95 4.1 5.1 2.55v-2.15l-8.5-5.3v3.2l3.15 1.6.25.1m17.1-1.55.25-2.85-2.1-3.15 1.65-2.2-1.65 2.2 2.1 3.15-.25 2.85m-3.25-.85.25 2.05 2.8-.55-3.05-1.5m5.8.75q-2.6 1.45-4.95 1.75 2.35-.3 4.95-1.75" transform="translate(2 2)"/><path stroke-width=".5" stroke-opacity=".122" stroke-linejoin="round" stroke-linecap="round" stroke="#000" fill="none" d="m120.65 144.7-3.7-1.5v-2.5m3.95 4.1q2.75 3.2 5.8 5.1 2.7-.85 4.95-1.35m4.2-.6 2.95-.3m-17.9-2.85-.25-.1m17.15-9.65-1.65 2.2 2.1 3.15-.25 2.85m-2.4 1.65q2.35-.3 4.95-1.75m-6.65 5-2.25.4"/><path fill-rule="evenodd" fill="#a3703d" d="m105 128.2-2.85-.45q-1.75-1.95-.5-4.25l4.25.55q1.1 2-.9 4.15" transform="translate(2 2)"/><path fill-rule="evenodd" fill="#6d4b29" d="m105.9 124.05 7.1.9q1.5 3.35-.75 4.4L105 128.2q2-2.15.9-4.15m33.35.05q1.15.65-.85 3.65l-7.45-4.25q-.95-3.6 1.05-4.25l4.75 3.25 2.5 1.6" transform="translate(2 2)"/><path fill-rule="evenodd" fill="#fffcd1" d="m109.8 232.75-4.45-6.95 3.2-2.85 5.3-6.1q-.25-2.8 1.55-4.4h4.85l2.65-1.2 25.1-51.5v-5.35h6.35v5.35l-24.5 45.8-1.05 7.45-8.95 3.85-7.05 3.6-3 12.3" transform="translate(2 2)"/><path fill-rule="evenodd" fill="#aca544" d="m136.25 210.05-1.05 1.85-3.2-1.05 4.25-.8m6.35 15.4.5.95-2.05 1.45q-5.05 5.65-6.9 9.65l-2.15-1.05-5.35 4.25-2.05-2.1 4.95-3.85 3.85.3 6.05-8.2 3.15-1.4m18.7-64.75-2.9 2.8.9-2.8h2" transform="translate(2 2)"/><path fill-rule="evenodd" fill="#d0cb88" d="M154.35 154.4h4.3l1.05 5.35h3.2l-1.05 7.45-5.35 1.05q-10.4 24.5-20.25 41.8l-4.25.8 3.2 1.05v.05l4.25 1.05q1.05 5.7 2.05 10.2l1.1 2.25-3.15 1.4-6.05 8.2-3.85-.3-4.95 3.85-.05-.05-6.4 1.1-3-9.25 2.85-9.1v-.35l-4.1 3.75-1.1 12.8-3-4.75 3-12.3 7.05-3.6 8.95-3.85 1.05-7.45 24.5-45.8v-5.35m6.95 6.3h-2l-.9 2.8 2.9-2.8M132 211.95l-2.15-1.1 2.15 1.1m2.15-4.3q8.3-19.6 19.95-42.05 2.1-2.45-.1 2.65 2.2-5.1.1-2.65-11.65 22.45-19.95 42.05m-3.2 12.8v-5.3 5.3m5.3 0-1.05-5.3 1.05 5.3m0 4.25 2.15 2.15-2.15 1.5-3.2 4.9 3.2-4.9 2.15-1.5-2.15-2.15m-5.3-1.05 2.1 4.25-2.1 2.15-5.35 6.4 5.35-6.4 2.1-2.15-2.1-4.25" transform="translate(2 2)"/><path stroke-width=".5" stroke-opacity=".122" stroke-linejoin="round" stroke-linecap="round" stroke="#000" fill="none" d="m111.8 234.75-4.45-6.95 3.2-2.85 5.3-6.1q-.25-2.8 1.55-4.4h4.85l2.65-1.2 25.1-51.5v-5.35h6.35m-.35 13.85q2.2-5.1.1-2.65-11.65 22.45-19.95 42.05m-4.3 3.2 2.15 1.1m-6.4 24.5 5.35-6.4 2.1-2.15-2.1-4.25m2.1 9.6 3.2-4.9 2.15-1.5-2.15-2.15m-1.05-9.55 1.05 5.3m-5.3-5.3v5.3"/><path fill-rule="evenodd" fill="#d0cb88" d="M123.2 221.95q2.3 3.2.7 7.75l-6.4 2.85-1.55.65-1.25.55-15 5.9-3.45 1.25q-12.65 4.5-24.65 7.55l-.75.2-.85.2-3.6 2.75-2.9-.5-9.75 8.35 1.05-6 9-7.9-10.7 6.95-4.55-3.75 10.75-7.5-11.55 4.1-1.8-2.15 18.1-6.7q-.8-.5.6-.25l1.65.3q1.75.4 3.55-.8 3.05 2.05 3.95 1.7 24.4-10.8 49.4-15.5m-28.9 12.9 2.55-1.6q-10.2.7-19.2 6.4l2.8-.15q11 .75 13.85-4.65m20.65-9.05q-8.8 2.65-16.3 6.35 7.5-3.7 16.3-6.35M70.2 244.95l1.05-3.2-1.95-2.95 1.95 2.95-1.05 3.2" transform="translate(2 2)"/><path fill-rule="evenodd" fill="#fffcd1" d="M123.2 221.95q-25 4.7-49.4 15.5-.9.35-3.95-1.7-1.8 1.2-3.55.8l-1.65-.3q-1.4-.25-.6.25l-18.1 6.7-2.85-3.4 20.55-7.8 6.2 3.75Q93 226.5 121.4 220.1l1.8 1.85m-28.9 12.9q-2.85 5.4-13.85 4.65 6.8-.55 13.85-4.65" transform="translate(2 2)"/><path stroke-width=".5" stroke-opacity=".122" stroke-linejoin="round" stroke-linecap="round" stroke="#000" fill="none" d="m47.95 245.2 1.8 2.15 11.55-4.1-10.75 7.5 4.55 3.75 10.7-6.95-9 7.9-1.05 6 9.75-8.35 2.9.5 3.6-2.75.85-.2.75-.2q12-3.05 24.65-7.55l3.45-1.25 15-5.9 1.25-.55 1.55-.65 6.4-2.85q1.6-4.55-.7-7.75m-53.35 13.8Q95 228.5 123.4 222.1l1.8 1.85M82.45 241.5l-2.8.15q9-5.7 19.2-6.4l-2.55 1.6m-13.85 4.65q6.8-.55 13.85-4.65m-25 3.95 1.95 2.95-1.05 3.2m28.45-12.8q7.5-3.7 16.3-6.35"/><path fill-rule="evenodd" fill="#45361f" d="m38.55 229.4 7.55-4.1q12.5 21.15 25.4 36 .7 4.8-2.2 6.4-3.25 1.35-8.1-.3-10.4-19.35-22.65-38" transform="translate(2 2)"/><path fill-rule="evenodd" fill="#73513c" d="m27.45 232.7-.1-.15q6.2-6.95 18.4-12.75 3.45-1.65 7.45-3.2l5.3-2-.1.9-2.3 4.15-9.85 4.55q-17.85 6.3-1.75 4.65-7.75 3.35-17.05 3.85" transform="translate(2 2)"/><path fill-rule="evenodd" fill="#523a2c" d="M27.45 232.7q9.3-.5 17.05-3.85l10.25-6.8 1.35-2.4 2.3-4.15q-.5 5.5 2 8.95-9.45 7.2-20.15 10.55-5 1.6-10.3 2.3l-2.5-4.6" transform="translate(2 2)"/><path fill-rule="evenodd" fill="#5c4130" d="M44.5 228.85q-16.1 1.65 1.75-4.65l9.85-4.55-1.35 2.4-10.25 6.8" transform="translate(2 2)"/><path stroke-width=".5" stroke-opacity=".4" stroke-linejoin="round" stroke-linecap="round" stroke="#000" fill="none" d="M62.4 226.45q-9.45 7.2-20.15 10.55-5 1.6-10.3 2.3"/><path fill-rule="evenodd" fill="#ebecac" d="m37.55 229.7-2.2.25-2.45-4.7q1.8-1.9 3.95-3.35l-1.8 3.9 2.5 3.9" transform="translate(2 2)"/><path fill-rule="evenodd" fill="#d1d544" d="m37.55 229.7-2.5-3.9 1.8-3.9q4.05-2.8 9.4-4.05l3.15 5.85-5.8 3.9q-2.55 1.5-6.05 2.1" transform="translate(2 2)"/><path fill-rule="evenodd" fill="#ccc" d="M26.15 83.7q-3.55 24.75-2.8 47.7l.25 6.1-2.15 28.35q-.3-2.75-2.4-6.7-2.15-4.05-6.3-9.4 5.9-16.35 4.65-40.55 1.9.2 8.75-25.5m-5.75 96.1-.2-.2v-9.65l1.05-1.85-.85 11.7" transform="translate(2 2)"/><path fill-rule="evenodd" fill="#dfdfdf" d="M26.15 83.7q-6.85 25.7-8.75 25.5 1.25 24.2-4.65 40.55 4.15 5.35 6.3 9.4 2.1 3.95 2.4 6.7.1 1.25-.2 2.25l-1.05 1.85v9.65l.2.2-1.4 18.3-4.45-9.35L9.4 177q2.4-.9 2.2-1.6-2.1.25-2.35-.4.75-.4.7-.85-2.05-.15-2.45-1.2Q3.9 163.5.95 153.8q.55-29.55 25.2-70.1" transform="translate(2 2)"/><path fill-rule="evenodd" fill="#d8d8d8" d="m21.45 165.85 2.15-28.35q.55 9.45 1.8 18.6l-1.45 12.25-1.55 13.45-2-2 .85-11.7q.3-1 .2-2.25" transform="translate(2 2)"/><path fill-rule="evenodd" fill="#b2b2b2" d="M25.4 156.1q4.1 29.4 15.85 55.55l3.65 7.55q-2.95 3.3-7.6 4.7 2.75-3.85-1.15-9.15 1.55-5.5-3.15-12.8h-4.3q2.45-3.5-3.2-17.05l-3.1-3.1 1.55-13.45 1.45-12.25" transform="translate(2 2)"/><path fill-rule="evenodd" fill="#cecece" d="m37.3 223.9-.1.05-2.3.55q-3.2-4.4-9.4-14.4-2.4-3.8-5.25-9.45l2.15-18.85 3.1 3.1q5.65 13.55 3.2 17.05H33q4.7 7.3 3.15 12.8 3.9 5.3 1.15 9.15" transform="translate(2 2)"/><path fill-rule="evenodd" fill="#fcfcfc" d="M20.25 200.65 19 198.1l1.4-18.3 2 2-2.15 18.85" transform="translate(2 2)"/><path fill-rule="evenodd" fill="#d0cb88" d="m66.45 233.2 4.55 3.7q-3.1 1.5-11.45 1.7l-4.85-2.25-2.2 1.65h-2.2l-7.45 1.45 6.55-7.55 3.1.7.65-.15 6.4 2.9 6.9-2.15" transform="translate(2 2)"/><path fill-rule="evenodd" fill="#fffcd1" d="m53.15 232.45 4.5-.9 2.8 1.05 3.15-1.7 2.85 2.3-6.9 2.15-6.4-2.9" transform="translate(2 2)"/><path fill-rule="evenodd" fill="#d0cb88" d="m47.35 241.45.4.05q5.2-.45 10.9-4.05l2.8 1.95v1.9l5.6 2.85-3.45 4.35 2.45 2.15-3.2 3.85 1.85 1.7-5.4 4.2-4.05-.65-1.15.35-4.4-7.9.65-2.5-4.1-2.75 1.1-5.5m14.6 7.95-7.9 4.75-2.5-.4 2.5.4 7.9-4.75m-12.55-3.3 1.55 1.1 7.25-4.1-6.8 1.55-2 1.45" transform="translate(2 2)"/><path fill-rule="evenodd" fill="#fffcd1" d="m54.1 260.1-1.1.35-2.65-3.2-3.5-2.15 1.75-2.2-5.8-3.2 1.55-3.25-1.2-5.2 4.2.2-1.1 5.5 4.1 2.75-.65 2.5 4.4 7.9" transform="translate(2 2)"/><path stroke-width=".5" stroke-opacity=".122" stroke-linejoin="round" stroke-linecap="round" stroke="#000" fill="none" d="m49.35 243.45.4.05q5.2-.45 10.9-4.05l2.8 1.95v1.9l5.6 2.85-3.45 4.35 2.45 2.15-3.2 3.85 1.85 1.7-5.4 4.2-4.05-.65-1.15.35m-2.55-6.35 2.5.4 7.9-4.75"/></g><path fill-rule="evenodd" fill-opacity="0" fill="#f0f" d="M0 0h102.95v45H0V0" id="a"/><use xlink:href="#a" width="102.95" height="45" id="d"/></defs><path fill="none" d="M-1-1h99v197H-1z"/><use x="46.05" y="194" xlink:href="#b" width="381" transform="translate(-192.55 -294)" height="381"/><use x="-93.961" y="395.838" xlink:href="#c" width="191.8" transform="matrix(-.4901 0 0 .4901 48.88 -192.73)" height="392.45"/><use x="32.1" y="147.776" xlink:href="#d" width="102.95" transform="matrix(1.4346 0 0 1.3128 -88.4 -197.2)" height="45"/></svg>