<svg width="207" height="228" xmlns="http://www.w3.org/2000/svg" xmlns:xlink="http://www.w3.org/1999/xlink"><defs><g id="k" stroke-opacity="0" stroke-linejoin="round" stroke-linecap="round" stroke="#f0f" fill="none"><path d="M187.95-293.5v380h-380v-380h380M92.95.6H-97" transform="translate(192.55 294)"/><path d="m187.95-293.5-190 190 190 190m-380-380 190 190L-192 86.5" transform="translate(192.55 294)"/></g><g id="l" stroke-width="6" stroke-linejoin="round" stroke-linecap="round" fill="none"><path stroke="#592500" d="m92.5 112 .15-.55.2-.25-.35.8"/><path stroke="#510" d="M173.65 26.35Q170.85 18.5 159.4 3q-.95 9.65-1.3 20.05-.65 16.75.25 35.45 1.35 10.15 5.85 30.15l-14.15-5.05q-7.6-2.95-17.75-.55l-2.5.65-3.15 1q-1.2.4-2.4.95-3.55 1.35-7.35 3.3l-2.3 1.2-4.8 2.8-13.65 7.15Q73.2 73.2 61.65 62.45q-18.85-14.1-37-25.05Q13.7 30.9 3 25.55q5.3 24.1 10.8 32.8 6.35 9.65 27.1 24.2 11.6 8.15 34.85 17.55 5.65 2.25 11.05 4.9l-18.95 18.75-.2 1.45-6.7-1.5q-24-.7-41.9 4.35 17.85 16.3 25.25 20.05 2.35 1.2 5.35 2l.1.05h-.1l-1.15 6.1 1.15 2.3-2.8 2.8-2.9-1.35q-2.6 1.9-4.85 4.1l-.8.85-1.95 2.2-3.05 3.75q-.95 1.3-2.65 11.35l-.35 2.7-.6 3.75v.1q-.15 1.1-.6 2.4v.15l-.6 1.45-1.1 2.3q-2.7 1.45-4.05 4.75l-.2.1q-6.05 3.6-7.5 9.2-1.95 7.25 2.65 9.2 2.4.95 5.8.95 3.8-.3 6.8-2.15l-.95 2.65q-2.6 8.05 5.55 12.3l3.85.75q9.75-.9 12.25-3.65t1.9-7.1l-.15-1.25.55.6 3.35-.45 2.75-.5q-.2 2 .65 4.35 2.4 5.2 7.15 6.2 2.15.4 4.85 0 7.95-1.4 8-5.45-.9-7.3-3.1-11.4 2.65-4.3 2.25-6.75l-3.65-8.95-1.8-9.45-.25-1.2-.25-1.35-.1-.85-.35-1.7 6.6 1.1 7.25 5.4q25.1 12.6 30.85 15.7 1.6.65 3.15 1.25.95 4.55.65 7.85l-3.5 7.8-3.85 2.3-1.25 4.7-.45 2.45-.15.6-.35 2.4q-2 12.9 1.35 20.2v.5l.45 4.35.25.95q.7 2.9 1.8 4.75l8.8 5.5q2 5.9 6.8 6.95l4.6.1q8.1-1.45 8.5-6.15l-.1-2.5 3.95-1.5.1-.8q3.95 4.6 9.2 4.45 2.25-.1 4.75-1.1 7.95-3.25 6.9-7.5l-1.95-4.55 1.1-.4q5.6-2.7 4.5-5.8-4.1-7.95-8.35-10.05-4.1-2.25-6.2-1.1l-.1.1q-5.65-6.35-7.75-10.85-2-2.6-3.65-4-3.1-2.6-5.3-1.45l-1.7-7.75-.45-.4q.4-1.4 1.45-2.65 10.45 3.35 15.1 3.45 12.3 0 17 .35 9.65 1.3 19.25-.9-1.9 10.95.15 15.5l2.35 6.4-1.75 3.15q-.8 2.1.25 5 2 4.35 6.3 5.45l4.2.35q7.15-.6 7.25-3.9v-.25l.15.05 4.7-1.3q14.5 6.95 20.2 6 3.1-.65 3.65-3.5-.1-2.9-.75-5.6 5.5.8 8.6 0 3.25-.95 3.9-3.6-.1-8-5.7-14.05l-3-1.1q-.05-2.65-3.65-5.65l-.15-.15-.8-.95-1.85-2.9-2.55-4.95q-5.8-10.45-5.3-13.35l-8.95-7.75h-2.05v-.6q1.9-2.8 2.45-5.95l-3.65-10.8-.55-.35q-1.95-8.3-5.55-21.05l1.95-4.75q-2.9-4.5-9.3-22.6-1.85-4.95-5.05-9.85 8.4-1.45 12.55-4.8 8.2-6.55 10.35-13.1 1.75-5.85 2.3-25.05-11.65 4.15-23.4 14.9-3.7 5-10.1 17.65-3.35-3.5-7.4-6.95l-.6-.2-.15-.05.5-2.1q-.75-.35-1.75-.55l-7.15-2.55.8-5.5q3.35-19.35 3.05-30.75-.45-20.4-3.5-29.25"/></g><g id="a"><path fill-rule="evenodd" fill="#fff024" d="M.5.25q-1.25-3.7-1.7-7.4-.4-4-1.15-6.35-1.25-4.25-2.4-6.05-1.05-1.65-4.3-4.85l.9 4.15q.85 3.45 2.1 7.35Q-4.55-9.3.5.25m-4.65-15.8.2 4.25-1.85-5.5-.1-.3-.1-.25.1.25.1.3 1.85 5.5q1 3.3 2.55 6.7-1.55-3.4-2.55-6.7l-.2-4.25" transform="translate(9.05 24.4)"/><path stroke-width=".05" stroke-linejoin="round" stroke-linecap="round" stroke="#ff910b" fill="none" d="M3 11.5Q1.75 7.6.9 4.15L0 0q3.25 3.2 4.3 4.85 1.15 1.8 2.4 6.05.75 2.35 1.15 6.35.45 3.7 1.7 7.4"/><path stroke-width=".05" stroke-linejoin="round" stroke-linecap="round" stroke="#ff910b" fill="none" d="m3.05 7.05.1.25.1.3 1.85 5.5q1 3.3 2.55 6.7M5.1 13.1l-.2-4.25"/><path fill-rule="evenodd" fill="#fff024" d="M2.3.4Q3.35-1 5.1-1.25 7-1.55 7.75-2.3 9.05-3.65 9.1-5q.05-1.25-.95-5.2-2.15.85-4 3.1Q3.4-5.45 2.3.4m5-4.9H5.1l1.55-2 1.05-2-1.05 2-1.55 2q-1.05 1-1.65 2.75.6-1.75 1.65-2.75h2.2" transform="translate(9.05 24.4)"/><path stroke-width=".05" stroke-linejoin="round" stroke-linecap="round" stroke="#ff910b" fill="none" d="M13.2 17.3q1.85-2.25 4-3.1 1 3.95.95 5.2-.05 1.35-1.35 2.7-.75.75-2.65 1.05-1.75.25-2.8 1.65"/><path stroke-width=".05" stroke-linejoin="round" stroke-linecap="round" stroke="#ff910b" fill="none" d="m16.75 15.9-1.05 2-1.55 2q-1.05 1-1.65 2.75m1.65-2.75h2.2"/></g><g id="b"><path fill-rule="evenodd" fill="#c24215" d="M4.55 6.05q-.8-1.05-.7-3.3Q3.9 1 2.35-.7L0-.95q2.6 2.9 2.6 6.6l1.95.4" transform="translate(2.45 .95)"/><path fill-rule="evenodd" fill="#e85019" d="M2.6 5.65q0-3.7-2.6-6.6-1.45.6-2.45 2.65-.1 1.1 1.4 2.1Q.5 4.75.5 6.05l2.1-.4" transform="translate(2.45 .95)"/><path stroke-width=".05" stroke-linejoin="round" stroke-linecap="round" stroke="#82250f" fill="none" d="M2.45 0 4.8.25q1.55 1.7 1.5 3.45Q6.2 5.95 7 7M2.45 0Q1 .6 0 2.65q-.1 1.1 1.4 2.1Q2.95 5.7 2.95 7"/></g><g id="c"><path fill-rule="evenodd" fill="#ffd070" d="M-2.4 8.9q-3.2-.6-4.4 2.05-.65-.2-.8-.75 0-1.65 1.2-2.9 2.15-1.05 3.95 1.1l.05.5" transform="translate(7.6 .4)"/><path fill-rule="evenodd" fill="#a15b06" d="M-6.8 10.95Q-5.6 8.3-2.4 8.9l.1 1.4q-3.25 1-4.5.65" transform="translate(7.6 .4)"/><path stroke-width=".05" stroke-linejoin="round" stroke-linecap="round" stroke="#93550b" fill="none" d="M5.15 8.8Q3.35 6.65 1.2 7.7 0 8.95 0 10.6q.15.55.8.75 1.25.35 4.5-.65"/><path fill-rule="evenodd" fill="#ffd070" d="M-4.4 12.85q-.65-.15-.75-.75.05-1.85 1.2-3.35 2.05-1.4 3.7.7l.05.6q-3-.3-4.2 2.8" transform="translate(7.6 .4)"/><path fill-rule="evenodd" fill="#a15b06" d="m-.2 10.05.05 1.5q-3.1 1.5-4.25 1.3 1.2-3.1 4.2-2.8" transform="translate(7.6 .4)"/><path stroke-width=".05" stroke-linejoin="round" stroke-linecap="round" stroke="#93550b" fill="none" d="M7.45 11.95q-3.1 1.5-4.25 1.3-.65-.15-.75-.75.05-1.85 1.2-3.35 2.05-1.4 3.7.7"/><path fill-rule="evenodd" fill="#ff910b" d="m-2.1.65.3 2-.7 2.1-2.35.95.4-.6 1.5-.7.8-1.8L-2.5 1l.15-.1.25-.25" transform="translate(7.6 .4)"/><path fill-rule="evenodd" fill="#780502" d="m-4.85 5.7 2.35-.95.7-2.1-.3-2L-1-.3h.85l.9 2.5 1.15-.25q1.2 5.2-1.15 9.9l-1.3-.35Q-2.7 8.05-4.2 9.3q-.35-1.75-1.5-1.8-.4-.75.65-1.6H-5l.15-.2M-2.5 1l.35 1.6-.8 1.8-1.5.7.5-1.05q1.2-2.15 1.1-2.75l.35-.3M.4 8.4q-1.1-.5-1.65.2.55-.7 1.65-.2" transform="translate(7.6 .4)"/><path fill-rule="evenodd" fill="#5c0301" d="M.75 11.85q2.35-4.7 1.15-9.9L.75 2.2l-.9-2.5L2.1-.4l.85 1.7.8.45q1.55 5.2.85 6.75l-.9 2.4-2.95.95" transform="translate(7.6 .4)"/><path stroke-width=".05" stroke-linejoin="round" stroke-linecap="round" stroke="#ff910b" fill="none" d="m5.5 1.05-.25.25M7.45.1H6.6l-1.1.95m-.75.65.35-.3M7.45.1 9.7 0l.85 1.7.8.45q1.55 5.2.85 6.75M3.15 5.5l-.4.6m-.2.2q-1.05.85-.65 1.6m10.3 1-.9 2.4M6.35 9Q6.9 8.3 8 8.8M3.15 5.5l.5-1.05q1.2-2.15 1.1-2.75"/><path fill-rule="evenodd" fill="#ffd070" d="m3.15 12.65-.9.05q-1.5-.1-1.5-.8.2-1.85.95-2.55.7-.7 1.3-.6h.05q-.9 3.6.1 3.9" transform="translate(7.6 .4)"/><path fill-rule="evenodd" fill="#a15b06" d="M3.05 8.75q.55.1 1 .95l.45.8-.05 1q-.45.9-1.3 1.15-1-.3-.1-3.9" transform="translate(7.6 .4)"/><path stroke-width=".05" stroke-linejoin="round" stroke-linecap="round" stroke="#93550b" fill="none" d="m10.75 13.05-.9.05q-1.5-.1-1.5-.8.2-1.85.95-2.55.7-.7 1.3-.6m.05 0q.55.1 1 .95l.45.8-.05 1q-.45.9-1.3 1.15l-.1-3.9z"/></g><g id="d"><path fill-rule="evenodd" fill="#e85019" d="m-15.8 1.8 7.55.95L3.05.45l11.4-7.15.45 6.8q.3 3.45-4.5 5.85-5.45 2-6.7 2.5-6.35 1.75-8.15 1.6l-3.5-.35q-2.5.05-4.85-1-2.05-.9-2.85-2.15l-.15-4.75" transform="translate(16.5 17.6)"/><path stroke-width=".05" stroke-linejoin="round" stroke-linecap="round" stroke="#82250f" fill="none" d="m30.95 10.9.45 6.8q.3 3.45-4.5 5.85-5.45 2-6.7 2.5-6.35 1.75-8.15 1.6l-3.5-.35M8.55 27.3q-2.5.05-4.85-1-2.05-.9-2.85-2.15L.7 19.4"/><path fill-rule="evenodd" fill="#fef7e0" d="M-1.9 3.9q.3 1.05-.35 1.95-.7.85-1.65 1.05h-1.95q-1.05-.2-.95-1.7.05-1.5.6-2.35.5-.9 1.45-1.05.9-.15 1.7.45.8.6 1.15 1.65" transform="translate(16.5 17.6)"/><path stroke-width=".05" stroke-linejoin="round" stroke-linecap="round" stroke="#93550b" fill="none" d="M14.6 21.5q.3 1.05-.35 1.95-.7.85-1.65 1.05h-1.95q-1.05-.2-.95-1.7.05-1.5.6-2.35.5-.9 1.45-1.05.9-.15 1.7.45.8.6 1.15 1.65z"/><path fill-rule="evenodd" fill="#310a04" d="M-3.7 4q.25.1.25.35l-.25.5-.55.25-.55-.1-.25-.4.25-.45q.2-.25.55-.25l.55.1" transform="translate(16.5 17.6)"/><path fill-rule="evenodd" fill="#5c0301" d="M15.95-7.3 16-4.55 14.45-5.8l-.05-.75h-.05l-.45-.05-.55-2.35 2.6 1.65m0 3.4q-.2 3.2-1.2 5.85l-2.95.7 1.05-4.1-.7-8.3.05.05.75.5H13h-.05L13.5-6l2.45 2.1" transform="translate(16.5 17.6)"/><path fill-rule="evenodd" fill="#780502" d="M12.15-9.75h.05l-2.3-3.6 2.6 1.75 1.45 1.8-.95.6h-.05l-.75-.5-.05-.05m2 .2 1.8 2.25-2.6-1.65V-9l.8-.55" transform="translate(16.5 17.6)"/><path fill-rule="evenodd" fill="#ff910b" d="m13.95-9.8.2.25-.8.55v.05l.55 2.35.45.05h.05l.05.75L16-4.55l-.05.65L13.5-6l-.55-3.2H13l.95-.6" transform="translate(16.5 17.6)"/><path fill-rule="evenodd" fill="#eb9327" d="m11.15-10.4 1 .65.7 8.3-1.05 4.1-.7.15q1.3-3.85.05-13.2" transform="translate(16.5 17.6)"/><path fill-rule="evenodd" fill="#fff024" d="M11.15-10.4Q9-13.85 6.3-15.8l3.6 2.45 2.3 3.6h-.05l-1-.65" transform="translate(16.5 17.6)"/><path stroke-width=".05" stroke-linejoin="round" stroke-linecap="round" stroke="#9e2510" fill="none" d="m32.45 10.3.05 2.75-.05.65q-.2 3.2-1.2 5.85l-2.95.7M26.4 4.25 29 6l1.45 1.8.2.25 1.8 2.25-6.05-6.05z"/><path fill-rule="evenodd" fill="#ff910b" d="M-14.65-1.5-13-2l3-4.6.3.1-3.1 4.8-2.05.7.2-.5" transform="translate(16.5 17.6)"/><path fill-rule="evenodd" fill="#780502" d="M-14.65-1.5-13.4-5l2.2-1.95 1.2.35-3 4.6-1.65.5m-1.1 6.55v-3.5l.9-2.55 2.05-.7 3.1-4.8 1.85.5 1.05.75-3.8 3.95-.1.15-.8 2.55-2.75 2.4-.2 2.05-1.3-.8m9.5-9.85 1.95 1.4q-2.1 3-2.65 4.75l-.8 3-1.1 1.05V2.95l-1.35-.7-.35-.95.85-2.05.25-.95 3.2-3.1m-3.5 12.05Q-12.2 6.9-14.15 6l.25-1.75 2.65-2.4 1.9 1.55v2.7l-.05.2-.35.95" transform="translate(16.5 17.6)"/><path fill-rule="evenodd" fill="#5c0301" d="m-4.3-3.4 3.25 1.8 1.7 4.85L-1.7 4.8q-.7-1.05-2.35-.9-1.7.1-2.85 1.95l-.15 1.25-2.7.15.35-.95.05-.2.4-.6.1-.1 1.1-1.05.8-3Q-6.4-.4-4.3-3.4" transform="translate(16.5 17.6)"/><path fill-rule="evenodd" fill="#fff024" d="M-11.2-6.95-13.4-5l-1.25 3.5-.2.5-.9 2.55v3.5l-.75-.55q.1-2.85.4-3.85L-13.55-6l1.85-1.1.5.15m4.4 1.7.55.45-3.2 3.1-.25.95-.85 2.05.35.95 1.35.7V5.4l-.1.1-.4.6V3.4l-1.9-1.55-2.65 2.4-.25 1.75-.3-.15.2-2.05 2.75-2.4.8-2.55.1-.15 3.8-3.95" transform="translate(16.5 17.6)"/><path stroke-width=".05" stroke-linejoin="round" stroke-linecap="round" stroke="#ff910b" fill="none" d="m6.5 11-1.2-.35-.5-.15-1.85 1.1L.4 18.25q-.3 1-.4 3.85M6.5 11l.3.1 1.85.5 1.05.75.55.45 1.95 1.4M12.2 14.2l3.25 1.8 1.7 4.85"/><path stroke-width=".05" stroke-linejoin="round" stroke-linecap="round" stroke="#552b00" fill="none" d="M17.15 20.85 14.8 22.4q-.7-1.05-2.35-.9-1.7.1-2.85 1.95l-.15 1.25-2.7.15M0 22.1l.75.55m6 2.2q-2.45-.35-4.4-1.25l-.3-.15-1.3-.8"/><path fill-rule="evenodd" fill="#cf4a33" d="m-5.25-2.7.05-.05-.05.05" transform="translate(16.5 17.6)"/><path fill-rule="evenodd" fill="#8a1f0d" d="M-2 2.35h.05v.05L-2 2.35" transform="translate(16.5 17.6)"/><path fill-rule="evenodd" fill="#f2573c" d="m-6.8-15.45-.05.1-.1-.05.15-.05" transform="translate(16.5 17.6)"/><path fill-rule="evenodd" fill="#8c3223" d="m1.5-2.65.2-.15-.05.15H1.5m-4.05 4.1.6.9H-2l-.55-.9m9.5-7.05v-.05.05" transform="translate(16.5 17.6)"/><path fill-rule="evenodd" fill="#ff910b" d="m1.7-2.8 1-.9 2.5-.65L6.95-5.6l.35 1.5-1.9 1-3.1.35-1 3.5-3.25 1.6-.6-.9.8-.65h1.9l1.5-3.45.05-.15M-9-12.8l.3-.3 1.15 2-1.2 2.05 1.85-.6-3.4 1.6h-1.85l2.8-.85.9-2.15L-9-12.8" transform="translate(16.5 17.6)"/><path fill-rule="evenodd" fill="#780502" d="M2.55-10H2.5l-.7.5-.4 1.35H.1l-.5.45-1.7 1.6-.85.15-.6-2.6v-1l-3.35-.1 2.4-1.3 2.6-2.5 1.15.35 2.1 1.1 1.2 2M-6-15.6l4.1.65-.65 1.45-3 2.1-1.35 1.75 2.75 1.1.35 2.8-1.7.4 3.05-.4-.95.95-.15.15.05.6-1.7 1.3-.05.05-2.7-1.3 2.45-1.35-3.15 1-2-.95-2.8-.45 1.55-2.7q1.2-2.4 2.9-4.35l.55 1.75-.9 2.15-2.8.85h1.85l3.4-1.6-1.85.6 1.2-2.05-1.15-2 2.6-2.5h.1" transform="translate(16.5 17.6)"/><path fill-rule="evenodd" fill="#5c0301" d="m1.8-9.5.7-.5h.05L3.6-5.55l1.6 1.2-2.5.65-1 .9-2.05-.7-1.75-2.6 1.7-1.6.5-.45h1.3l.4-1.35m-4.25 3.75L-1.1-2.7l2.6.05h.15L.15.8h-1.9l-.8.65-2.7-4.15.05-.05 1.7-1.3-.05-.6.15-.15.95-.95m.5 8.1L1.3.75l1-3.5 3.1-.35L4.95.75l.7 3.4-5.2 1.9-2.4-3.7" transform="translate(16.5 17.6)"/><path fill-rule="evenodd" fill="#ad5701" d="m-7.95-4-.25 1.25-.55-.25.1-1.35.7.35m5.4 5.45.55.9.05.05-.65.65-.4-.65.45-.95" transform="translate(16.5 17.6)"/><path fill-rule="evenodd" fill="#c06407" d="m2.55-10 1.2-.8.9-.55q1.45 2.8 2.3 5.75L5.2-4.35l-1.6-1.2L2.55-10m-5 4.25.35-.35 1.75 2.6 2.05.7-.2.15-2.6-.05-1.35-3.05M5.4-3.1l1.9-1-.35-1.5q.75 2.75.95 5.55V.1l.05 3.15-2.3.9-.7-3.4.45-3.85" transform="translate(16.5 17.6)"/><path fill-rule="evenodd" fill="#d06b09" d="m2.55-10-1.2-2-2.1-1.1-1.15-.35-2.6 2.5-2.4 1.3 1.35-1.75 3-2.1.65-1.45-4.1-.65q4.15-.45 10.65 4.25l-.9.55-1.2.8" transform="translate(16.5 17.6)"/><path fill-rule="evenodd" fill="#eb9327" d="m-5.5-1.55.25-1.15 2.7 4.15-.45.95-2.5-3.95m3.55 3.9 2.4 3.7-1.1.1-1.95-3.1.65-.65v-.05" transform="translate(16.5 17.6)"/><path fill-rule="evenodd" fill="#fff024" d="m-6.9-9.65 3.35.1v1l.6 2.6.85-.15-.35.35-3.05.4 1.7-.4-.35-2.8-2.75-1.1m-.05-5.75.1.05.05-.1.7-.15-2.6 2.5-.3.3q-1.7 1.95-2.9 4.35l-1.55 2.7-.85-.15.85.15 2.8.45 2 .95-.1 1.35-2.15-.95-3-.55-.4-1.4q.7-.85 2.45-4.4 1.35-2.7 4.9-5.1M-8.2-2.75-7.95-4l-.7-.35 3.15-1L-7.95-4l2.7 1.3-.25 1.15-2.7-1.2" transform="translate(16.5 17.6)"/><path stroke-width=".05" stroke-linejoin="round" stroke-linecap="round" stroke="#ff910b" fill="none" d="m17.9 9.45.4-1.35m2.85-1.85Q14.65 1.55 10.5 2m-.95.2Q6 4.6 4.65 7.3 2.9 10.85 2.2 11.7l.85.15M10.4 2l-.7.15-.15.05m-1 11.4-.7-.35m3.4 1.65.05-.05m1.7-1.3-.05-.6m1.6 7V20M16.95 23.65l5.2-1.9 2.3-.9-.05-3.15v-.15q-.2-2.8-.95-5.55-.85-2.95-2.3-5.75M2.6 13.1l-.4-1.4"/><path fill-rule="evenodd" fill="#ff910b" d="m2.55-13.45-.9-.35 3.7-.2.4.3 2.35 1.6-3.2-1.35H2.55m-2.95-1.5-.5-.35L1-16.9l2.7-.25.5.2.6.25H1.45L-.4-14.95" transform="translate(16.5 17.6)"/><path fill-rule="evenodd" fill="#eb9327" d="m3.6-10.25.9-1.15.9 2.55.55 1.75q1.1 4 1.3 7.7l.05 2.95-1.15-.1q-.1-6.55-2.55-13.7" transform="translate(16.5 17.6)"/><path fill-rule="evenodd" fill="#780502" d="M2.55-13.45H4.9l3.2 1.35-2.35-1.6 1.4-1.6 3.25 2.75-2.25.45H8.1l-3.6.7-.5-.35q-.85-.65-1.45-1.7m2.8-.55-3.7.2-1.3-.7-.75-.45 1.85-1.75H4.8l.5.25 1.4.85L5.35-14M-.9-15.3l-.9-.65h-4.65l6.5-1.5 3.65.3-2.7.25-1.9 1.6" transform="translate(16.5 17.6)"/><path fill-rule="evenodd" fill="#5c0301" d="M10.4-12.55q1.3 3.4 1.85 7.25l-3 3.65-.7 5.1H8.5l-1.2.1L7.25.6q-.2-3.7-1.3-7.7l.9-.3.35-.8 1.85-1.2-3.65.55-.9-2.55 3.6-.7h.05l2.25-.45m1.95 8.05.1.95L10.3 3.3 9 3.4l.5-3.55.65-.85-.05-.8 2.25-2.7" transform="translate(16.5 17.6)"/><path fill-rule="evenodd" fill="#c06407" d="m5.75-13.7-.4-.3 1.35-1.6.45.3-1.4 1.6" transform="translate(16.5 17.6)"/><path fill-rule="evenodd" fill="#fff024" d="m1.65-13.8.9.35q.6 1.05 1.45 1.7l.5.35-.9 1.15q-3.55-4.4-10.35-4.8l-.1-.85.4-.05h4.65l.9.65.5.35.75.45 1.3.7m10.6 8.5.1.8-2.25 2.7.05.8-.65.85L9 3.4l-.45.05.7-5.1 3-3.65M5.4-8.85l3.65-.55L7.2-8.2l-.35.8-.9.3-.55-1.75" transform="translate(16.5 17.6)"/><path stroke-width=".05" stroke-linejoin="round" stroke-linecap="round" stroke="#ff910b" fill="none" d="m10.05 1.65-.4.05M20.7.65l.6.25m.5.25 1.4.85.45.3 3.25 2.75m-16.85-3.4 6.5-1.5 3.65.3M26.9 5.05q1.3 3.4 1.85 7.25l.1.8.1.95-2.15 6.85-1.3.1-.45.05m-.05 0-1.2.1"/></g><g id="e"><path fill-rule="evenodd" fill="#ffd070" d="m-5.75 5.4.05.05Q-7.8 8.5-7.1 9.1l-.75-.2q-1.15-.55-.9-1.2.8-1.65 1.7-2.05.85-.5 1.3-.25" transform="translate(8.8 .85)"/><path fill-rule="evenodd" fill="#a15b06" d="M-5.7 5.45q.4.3.45 1.2l.05.85q-.05.45-.45.95-.7.7-1.45.65-.7-.6 1.4-3.65" transform="translate(8.8 .85)"/><path stroke-width=".05" stroke-linejoin="round" stroke-linecap="round" stroke="#93550b" fill="none" d="M3.1 6.3q.4.3.45 1.2l.05.85q-.05.45-.45.95-.7.7-1.45.65l-.75-.2Q-.2 9.2.05 8.55q.8-1.65 1.7-2.05.85-.5 1.3-.25"/><path fill-rule="evenodd" fill="#ffd070" d="m-5.6 11.7-1-.2q-1.65-.7-1.4-1.55.85-2.3 2-2.9l2-.1q-2.15 3.5-1.6 4.75" transform="translate(8.8 .85)"/><path fill-rule="evenodd" fill="#a15b06" d="M-4 6.95q.4.4.55 1.35l.2 1.15q.05.6-.4 1.25-.85 1.05-1.95 1-.55-1.25 1.6-4.75" transform="translate(8.8 .85)"/><path stroke-width=".05" stroke-linejoin="round" stroke-linecap="round" stroke="#93550b" fill="none" d="m3.2 12.55-1-.2Q.55 11.65.8 10.8q.85-2.3 2-2.9l2-.1q.4.4.55 1.35l.2 1.15q.05.6-.4 1.25-.85 1.05-1.95 1z"/><path fill-rule="evenodd" fill="#ffd070" d="M-.2 13.05h-.95q-1.7-.3-1.75-1.25.05-2.55.85-3.5.95-1.2 1.8-.6-.85 4.2.05 5.35" transform="translate(8.8 .85)"/><path fill-rule="evenodd" fill="#a15b06" d="M-.25 7.7q.45.35.9 1.25l.55 1.2q.2.6.05 1.4Q.8 12.8-.2 13.05q-.9-1.15-.05-5.35" transform="translate(8.8 .85)"/><path stroke-width=".05" stroke-linejoin="round" stroke-linecap="round" stroke="#93550b" fill="none" d="M8.6 13.9h-.95q-1.7-.3-1.75-1.25.05-2.55.85-3.5.95-1.2 1.8-.6.45.35.9 1.25L10 11q.2.6.05 1.4-.45 1.25-1.45 1.5z"/><path fill-rule="evenodd" fill="#780502" d="m.05 9.55-1.75.1q-1.05.7-1.1 1.65l-.9-.35-.15-1.25 1.35-2.75 1.25.3.4.7.9 1.6m-4-.65q-1.2-1.1-2.5-1.2-.55-.9.3-1.8 1.5-1.65 2-2.7l.75-.85 1.85.5 1.25.05L-.9 5l-1.9 1.55-1.15 2.35M.3 2.95 1.7 3Q2.15 6.45.45 9.4l-1.2-2.3.45-2.95.6-1.2M-2.15 8.2q.45-.55 1.3-.25-.85-.3-1.3.25" transform="translate(8.8 .85)"/><path fill-rule="evenodd" fill="#5c0301" d="M3.35 2h.05l.25 1 .1.5L2.4 6.75l1 2.75-.35.95-1.9 1.2q0-.9-.7-1.8l-.2-.2.2-.25Q2.15 6.45 1.7 3l1.65-1m.5 2.1q.4 2.65-.3 4.2v.1L3 6.85l.85-2.75" transform="translate(8.8 .85)"/><path fill-rule="evenodd" fill="#ff910b" d="M3.75 3.5v.1l.1.5L3 6.85l.55 1.55-.1.9-.05.2-1-2.75L3.75 3.5m-7.6 6.2-.05-.75-.05-.05 1.15-2.35L-.9 5l.6-2.1.2-.65.5.05.2-.05-.3.7-.6 1.2-.45 2.95 1.2 2.3-.2.25-.2-.1-.9-1.6-.4-.7-1.25-.3-1.35 2.75" transform="translate(8.8 .85)"/><path fill-rule="evenodd" fill="#eb9327" d="m2.6 1.55.75.45L1.7 3l-.15-.95 1.05-.5" transform="translate(8.8 .85)"/><path fill-rule="evenodd" fill="#ffd070" d="M-3.4 2.35q.65-.55 1.1-.3l2.2.2-.2.65-1.25-.05-1.85-.5m4-.1.95-.2.15.95-1.4-.05.3-.7" transform="translate(8.8 .85)"/><path fill-rule="evenodd" fill="#e85019" d="m-2.3 2.05.35-1.6L-.55-.7l.95 3-.5-.05-2.2-.2" transform="translate(8.8 .85)"/><path fill-rule="evenodd" fill="#c24215" d="M-.55-.7q1-.45 2.35.45l.8 1.8-1.05.5-.95.2-.2.05-.95-3" transform="translate(8.8 .85)"/><path stroke-width=".05" stroke-linejoin="round" stroke-linecap="round" stroke="#ff910b" fill="none" d="m11.4 2.4.75.45h.05l.25 1m.1.5v.1m.1.5q.4 2.65-.3 4.2m-3.15-6 .2-.05.95-.2 1.05-.5M12.35 9.15v.1m-.15 1.1-.35.95-1.9 1.2q0-.9-.7-1.8l-.4-.3-1.75.1q-1.05.7-1.1 1.65M4.9 9.8l-.05-.05q-1.2-1.1-2.5-1.2-.55-.9.3-1.8 1.5-1.65 2-2.7l.75-.85q.65-.55 1.1-.3m2.75 7.8-.2-.2-.2-.1m-.9-1.6q-.85-.3-1.3.25M8.7 3.1l-2.2-.2m2.7.25-.5-.05"/></g><g id="f" fill-rule="evenodd"><path fill="#c24215" d="m7.75-1.35-.8 1q-.05.75-2 2.05-2 1.25-3.2 1.45l-2.1-.1q-1.15 0-1.35-1.9l.45-.95.15-.85 8.85-.7" transform="translate(1.7 3)"/><path fill="#e85019" d="m-1.1-.65.05-.2q.7-1.25 1.8-1.5l2.95-.2 1.7-.35q1.1-.35 2.4.3l-.05 1.25-8.85.7" transform="translate(1.7 3)"/></g><g id="g"><path fill-rule="evenodd" fill="#5c0301" d="M-.55 12.35q-3.7-.6-4.1-1.25-.65-1-.55-1.55l.75-1.85.4-1.95.05-.25 1.1 1.1.55 1.2 1.3-.5.05.1.3 1.2-.15 1.55v.25l.3 1.95m-3.4-7.3.4-1.95.4-1.1L-2 3.75l1.95.5q-1.2 1.5-1.1 2.55l.05.1-1.15.25-.55-1.1-1.15-1m.4-1.95h.05-.05" transform="translate(5.35 1)"/><path fill-rule="evenodd" fill="#ff910b" d="m5.15 5.7.15.5v.05l-1.1.45-1.25.9-.65 1.3.25-1.45.8-.9 1.8-.85M-1.1 6.9l-.05-.1.95-.7.75-1.9.6-.1L.3 6.35l-1.05.85-.3.1-.05-.4" transform="translate(5.35 1)"/><path fill-rule="evenodd" fill="#e85019" d="m-.75-.85 1.55.1.8.8.95 1.05Q3.7 2.4 1.3 3.15 1.1 1.8.4.6L-.75-.85" transform="translate(5.35 1)"/><path fill-rule="evenodd" fill="#ffd070" d="m1.6.05.6-.3 1 .85.2.2.4.45-.05 1.55L2 4l-.85.1-.6.1-.6.05.2-.25.35-.95.8.1Q3.7 2.4 2.55 1.1L1.6.05" transform="translate(5.35 1)"/><path fill-rule="evenodd" fill="#c24215" d="M-2.55 1.1Q-2.65.5-2-.3l1.25-.55L.4.6q.7 1.2.9 2.55l-.8-.1-.95.2q-.55.15-1.1-.5l-.85-1.2-.15-.45" transform="translate(5.35 1)"/><path fill-rule="evenodd" fill="#eb9327" d="m-3.15 2 .1-.25.25-.65h.25l.15.45.85 1.2q.55.65 1.1.5l.95-.2L.15 4l-.2.25-1.95-.5L-3.15 2" transform="translate(5.35 1)"/><path fill-rule="evenodd" fill="#780502" d="m3.8 1.25.6.75.55 2.35.1.55.1.8-1.8.85-.8.9L2.3 8.9l.65-1.3 1.25-.9 1.1-.45.1.3.25.45q.65.35.95 1.3l-.15.05q-1.3.15-1.8 2.5Q3 10.3 1.8 11.1L.15 12.45l-.7-.1-.3-1.95v-.25L-.7 8.6-1 7.4l-.05-.1.3-.1L.3 6.35l.85-2.25L2 4l1.75-1.2.05-1.55M-1.15 6.8q-.1-1.05 1.1-2.55l.6-.05-.75 1.9-.95.7" transform="translate(5.35 1)"/><path fill-rule="evenodd" fill="#e68209" d="m-4 5.5.05-.25v-.2l1.15 1 .55 1.1 1.15-.25.05.4-1.3.5-.55-1.2L-4 5.5" transform="translate(5.35 1)"/><path fill-rule="evenodd" fill="#bbae8c" d="M-3.5 3.1h-.05.05" transform="translate(5.35 1)"/><path stroke-width=".05" stroke-linejoin="round" stroke-linecap="round" stroke="#ff910b" fill="none" d="m4.6.15 1.55.1.8.8.95 1.05q1.15 1.3-1.25 2.05m.9-3.4 1 .85m.2.2.4.45.6.75.55 2.35m.1.55.1.8.15.5m0 .05.1.3m-5.25 5.9-.7-.1q-3.7-.6-4.1-1.25-.65-1-.55-1.55L.9 8.7l.4-1.95.05-.25m.05-.25v-.2l.4-1.95.4-1.1m.1-.25.25-.65m-.7 2H1.8"/><path stroke-width=".05" stroke-linejoin="round" stroke-linecap="round" stroke="#ff910b" fill="none" d="M2.8 2.1q-.1-.6.55-1.4L4.6.15m6.15 7.4L11 8q.65.35.95 1.3l-.15.05q-1.3.15-1.8 2.5-1.65-.55-2.85.25L5.5 13.45M2.8 2.1l.15.45.85 1.2q.55.65 1.1.5l.95-.2.8.1"/><path fill-rule="evenodd" fill="#a15b06" d="M6.3 12q-1.3-.1-2.15-1.1-.35-.65-.35-.85l.25-1q.2-.8.6-1.15L6 9.75 6.3 12" transform="translate(5.35 1)"/><path fill-rule="evenodd" fill="#ffd070" d="M6.3 12 6 9.75 4.65 7.9 6.5 8q1.25.75 1.55 1.9.4 1.5-.55 1.9l-1.2.2" transform="translate(5.35 1)"/><path stroke-width=".05" stroke-linejoin="round" stroke-linecap="round" stroke="#93550b" fill="none" d="M10 8.9q-.4.35-.6 1.15l-.25 1q0 .2.35.85.85 1 2.15 1.1M10 8.9l1.85.1q1.25.75 1.55 1.9.4 1.5-.55 1.9l-1.2.2"/><path fill-rule="evenodd" fill="#a15b06" d="M3.15 14.8q-2-.2-2.5-.75-.55-.55-.4-1.45l.3-2.05q.15-1.1 1.3-1.7Q3 11.4 3.15 14.8" transform="translate(5.35 1)"/><path fill-rule="evenodd" fill="#ffd070" d="M3.15 14.8Q3 11.4 1.85 8.85q1.05-.2 1.9.7.8.9 1.35 2.55t-1.15 2.55l-.8.15" transform="translate(5.35 1)"/><path stroke-width=".05" stroke-linejoin="round" stroke-linecap="round" stroke="#93550b" fill="none" d="M7.2 9.85q-1.15.6-1.3 1.7l-.3 2.05q-.15.9.4 1.45.5.55 2.5.75M7.2 9.85q1.05-.2 1.9.7.8.9 1.35 2.55T9.3 15.65l-.8.15"/><path fill-rule="evenodd" fill="#ffd070" d="M-2.7 14.45h-1q-1.65-.3-1.65-1.15.25-2.2 1.1-3 .55-.55 1.35-.35l.1.05q.35 1.05.05 2.85-.3 1.45.05 1.6" transform="translate(5.35 1)"/><path fill-rule="evenodd" fill="#a15b06" d="M-2.8 10q.85.2 1.15.9l.5 1.05q.15.5-.1 1.2-.5 1.1-1.45 1.3-.35-.15-.05-1.6.3-1.8-.05-2.85" transform="translate(5.35 1)"/><path stroke-width=".05" stroke-linejoin="round" stroke-linecap="round" stroke="#93550b" fill="none" d="M2.65 15.45h-1Q0 15.15 0 14.3q.25-2.2 1.1-3 .55-.55 1.35-.35m.1.05q.85.2 1.15.9l.5 1.05q.15.5-.1 1.2-.5 1.1-1.45 1.3L2.55 11z"/></g><g id="h"><path stroke-width=".05" stroke-linejoin="round" stroke-linecap="round" stroke="#68390b" fill="none" d="m1.45 3.25 1.05-1.3Q4.5-.2 6.55 0q2.1.2 3 2.45"/><path fill-rule="evenodd" fill="#e98727" d="m-7.25 2.85-.9.6-.9-.15q-.35-.3-.35-.8 0-.55.35-1 .35-.45.9-.55l.9.1q.35.3.35.85 0 .5-.35.95" transform="translate(9.4 1.7)"/><path stroke-width=".05" stroke-linejoin="round" stroke-linecap="round" stroke="#ffb945" fill="none" d="m2.15 4.55-.9.6L.35 5Q0 4.7 0 4.2q0-.55.35-1 .35-.45.9-.55l.9.1q.35.3.35.85 0 .5-.35.95z"/></g><g id="i"><path fill-rule="evenodd" fill="#fff024" d="M-6.85-11.95q-3-2.9-6.1-5.15l-3.7-2.45q-.4 4.95.15 6.75.7 2 4.1 5 1.9 1.7 6.1 3.65Q-2.4-2.4.35.4q-4.85-9.3-7.2-12.35m-.85 3.1q2.75 2.3 4.75 5.3-2-3-4.75-5.3L-11.85-13l-3.1-3.7 3.1 3.7 4.15 4.15-4.75-1.8 4.75 1.8" transform="translate(19.8 19.55)"/><path stroke-width=".05" stroke-linejoin="round" stroke-linecap="round" stroke="#ff910b" fill="none" d="m4.85 2.85 3.1 3.7 4.15 4.15-4.75-1.8m9.5 7.1q-2-3-4.75-5.3"/><path stroke-width=".05" stroke-linejoin="round" stroke-linecap="round" stroke="#ff910b" fill="none" d="M12.95 7.6q-3-2.9-6.1-5.15L3.15 0q-.4 4.95.15 6.75.7 2 4.1 5 1.9 1.7 6.1 3.65 3.9 1.75 6.65 4.55"/><path fill-rule="evenodd" fill="#fff024" d="m-16.6 1.3 2.8 1.65 4.35.15 5.25.65-5.25-.65-4.35-.15-2.8-1.65m5.75-.6q-4.9-.15-8.95.9 2.7 3.35 3.95 4.15 1.5.85 4.8.8 1.9-.05 4.95-1.25 2.85-1.15 5.7-1Q-8 1.25-10.85.7m-1.85 4.05 3.25-1.65-3.25 1.65m-1.1-1.8-3.55-.55 3.55.55" transform="translate(19.8 19.55)"/><path stroke-width=".05" stroke-linejoin="round" stroke-linecap="round" stroke="#ff910b" fill="none" d="m15.6 23.3-5.25-.65L6 22.5l-2.8-1.65m-.75 1.1L6 22.5m4.35.15L7.1 24.3"/><path stroke-width=".05" stroke-linejoin="round" stroke-linecap="round" stroke="#ff910b" fill="none" d="M8.95 20.25q-4.9-.15-8.95.9 2.7 3.35 3.95 4.15 1.5.85 4.8.8 1.9-.05 4.95-1.25 2.85-1.15 5.7-1"/></g><use xlink:href="#a" width="18.15" height="24.8" id="m"/><use xlink:href="#b" width="7" height="7" id="n"/><use xlink:href="#c" width="12.4" height="13.25" id="o"/><use xlink:href="#d" width="32.5" height="27.65" id="p"/><use xlink:href="#e" width="12.8" height="13.95" id="q"/><use xlink:href="#f" width="9.5" height="6.15" id="r"/><use xlink:href="#g" width="13.5" height="15.8" id="s"/><use xlink:href="#h" width="9.55" height="5.2" id="t"/><use xlink:href="#i" width="20.15" height="26.1" id="u"/><use xlink:href="#j" width="102.95" height="45" id="v"/><path fill-rule="evenodd" fill-opacity="0" fill="#f0f" d="M102.95 45H0V0h102.95v45" id="j"/></defs><path fill="none" d="M-1-1h209v230H-1z"/><g><use x="109.05" y="220.5" xlink:href="#k" width="381" transform="translate(-192.55 -294)" height="381"/><use xlink:href="#l" width="254.85" transform="matrix(.8 0 0 .8 1.03 1.11)" height="282"/><use x="44.151" y="56.947" xlink:href="#m" width="18.15" transform="matrix(3.872 0 -1.087 3.872 19.481 -217.027)" height="24.8"/><use x="21.195" y="16.637" xlink:href="#n" width="7" transform="matrix(-.8738 -3.7693 -3.8758 .4141 262.423 230.691)" height="7"/><use x="-28.164" y="56.947" xlink:href="#o" width="12.4" transform="matrix(-3.872 0 0 3.872 93.427 -67.299)" height="13.25"/><use x="23.454" y="-16.294" xlink:href="#p" width="32.5" transform="matrix(-3.8453 -.4411 -.4411 3.8453 267.661 147.801)" height="27.65"/><use x="-18.211" y="68.005" xlink:href="#n" width="7" transform="matrix(-3.872 0 .5667 3.2424 11.198 -65.63)" height="7"/><use x="-28.164" y="56.947" xlink:href="#q" width="12.8" transform="matrix(-3.872 0 0 3.872 30.724 -50.141)" height="13.95"/><use x="-40.12" y="49.318" xlink:href="#r" width="9.5" transform="matrix(-3.7729 -.8581 -.8581 3.7729 -32.162 -92.51)" height="6.15"/><use x="-28.164" y="56.947" xlink:href="#s" width="13.5" transform="matrix(-3.872 0 0 3.872 -43.635 -94.322)" height="15.8"/><use x="20.224" y="-20.271" xlink:href="#t" width="9.55" transform="matrix(-3.8521 .2514 .2514 3.8521 274.232 192.338)" height="5.2"/><use x="34.152" y="-12.132" xlink:href="#t" width="9.55" transform="matrix(-2.4303 -.762 0 3.872 243.095 211.03)" height="5.2"/><use x="10.831" y="56.947" xlink:href="#u" width="20.15" transform="matrix(3.872 0 1.1785 3.872 -117.804 -198.847)" height="26.1"/><use x="53.333" y="117.845" xlink:href="#v" width="102.95" transform="matrix(2.0447 0 0 1.8711 -111.95 -94)" height="45"/></g></svg>