<svg width="207" height="229" xmlns="http://www.w3.org/2000/svg" xmlns:xlink="http://www.w3.org/1999/xlink"><defs><use xlink:href="#a" width="18.2" height="24.8" id="m"/><use xlink:href="#b" width="7" height="7" id="n"/><use xlink:href="#c" width="12.4" height="13.25" id="o"/><use xlink:href="#d" width="32.5" height="27.7" id="p"/><use xlink:href="#e" width="12.85" height="13.85" id="q"/><use xlink:href="#f" width="9.5" height="6.15" id="r"/><use xlink:href="#g" width="13.5" height="15.8" id="s"/><use xlink:href="#h" width="9.55" height="5.2" id="t"/><use xlink:href="#i" width="20.1" height="26.1" id="u"/><use xlink:href="#j" width="102.95" height="45" id="v"/><g id="k" stroke-opacity="0" stroke-linejoin="round" stroke-linecap="round" stroke="#f0f" fill="none"><path d="M187.95-293.5v380h-380v-380h380M92.95.6H-97" transform="translate(192.55 294)"/><path d="m187.95-293.5-190 190 190 190m-380-380 190 190L-192 86.5" transform="translate(192.55 294)"/></g><g id="a"><path fill-rule="evenodd" fill-opacity=".6" fill="#6bbd28" d="M4.2-7.1Q6-9.35 8.15-10.2q1 3.95 1 5.2-.1 1.35-1.4 2.7Q7-1.55 5.1-1.25 3.35-1 2.35.4 3.4-5.45 4.2-7.1m-8.35-8.45.25 4.25-1.85-5.5-.15-.3-.05-.25.05.25.15.3 1.85 5.5-.25-4.25M5.1-4.5q-1.05 1-1.65 2.75.6-1.75 1.65-2.75l1.55-2 1.05-2-1.05 2-1.55 2h2.25H5.1m-11.15-8.4q-1.25-3.9-2.1-7.35l-.9-4.15q3.25 3.2 4.3 4.85 1.15 1.8 2.45 6.05.7 2.35 1.15 6.35.4 3.7 1.65 7.4Q-4.55-9.3-6.05-12.9m4.65 8.3Q-2.95-8-3.9-11.3q.95 3.3 2.5 6.7" transform="translate(9.05 24.4)"/><path stroke-width=".05" stroke-linejoin="round" stroke-linecap="round" stroke="#6d8738" fill="none" d="M13.25 17.3q1.8-2.25 3.95-3.1 1 3.95 1 5.2-.1 1.35-1.4 2.7-.75.75-2.65 1.05-1.75.25-2.75 1.65M3 11.5Q1.75 7.6.9 4.15L0 0q3.25 3.2 4.3 4.85 1.15 1.8 2.45 6.05.7 2.35 1.15 6.35.4 3.7 1.65 7.4"/><path stroke-width=".05" stroke-linejoin="round" stroke-linecap="round" stroke="#6d8738" fill="none" d="m16.75 15.9-1.05 2-1.55 2h2.25m-3.9 2.75q.6-1.75 1.65-2.75M3.1 7.05l.05.25.15.3 1.85 5.5-.25-4.25m.25 4.25q.95 3.3 2.5 6.7"/></g><g id="b" fill-rule="evenodd"><path fill="#68390b" d="m.05-.95 2.3.25Q3.9 1 3.85 2.75q-.1 2.25.7 3.3l-1.9-.4Q2.6 1.95.05-.95" transform="translate(2.45 .95)"/><path fill="#995210" d="m2.65 5.65-2.15.4Q.5 4.75-1 3.8q-1.55-1-1.45-2.1 1-2.05 2.5-2.65 2.55 2.9 2.6 6.6" transform="translate(2.45 .95)"/></g><g id="c"><path fill-rule="evenodd" fill="#fef7e0" d="M-6.8 10.95q-.65-.2-.8-.75.05-1.65 1.15-2.9 2.15-1.05 4 1.1l.05.55q-3.2-.65-4.4 2" transform="translate(7.6 .4)"/><path fill-rule="evenodd" fill="#d9ceb4" d="m-2.4 8.95.1 1.35q-3.2.95-4.5.65 1.2-2.65 4.4-2" transform="translate(7.6 .4)"/><path stroke-width=".05" stroke-linejoin="round" stroke-linecap="round" stroke="#93550b" fill="none" d="M5.3 10.7q-3.2.95-4.5.65-.65-.2-.8-.75.05-1.65 1.15-2.9 2.15-1.05 4 1.1"/><path fill-rule="evenodd" fill="#fef7e0" d="M-.25 10.05q-2.95-.3-4.2 2.75-.65-.1-.75-.7.05-1.85 1.2-3.4 2.05-1.35 3.75.75v.6" transform="translate(7.6 .4)"/><path fill-rule="evenodd" fill="#d9ceb4" d="M-4.45 12.8q1.25-3.05 4.2-2.75l.05 1.5q-3.05 1.5-4.25 1.25" transform="translate(7.6 .4)"/><path stroke-width=".05" stroke-linejoin="round" stroke-linecap="round" stroke="#93550b" fill="none" d="M7.35 9.85q-1.7-2.1-3.75-.75-1.15 1.55-1.2 3.4.1.6.75.7 1.2.25 4.25-1.25"/><path fill-rule="evenodd" fill="#66822f" d="m4.4 9.1-.7 1.8-2.95.95q1.7-3.4 1.55-7.1l.95 3.3L4.4 9.1" transform="translate(7.6 .4)"/><path fill-rule="evenodd" fill="#8a8525" d="M-.15-.3 2.1-.4l.85 1.7.8.45q1.55 5.2.85 6.75l-.2.6-1.15-1.05-.95-3.3V4.4l-.05-.2-.15-1.15-.2-1.1-1.15.25-.9-2.5" transform="translate(7.6 .4)"/><path fill-rule="evenodd" fill="#aba719" d="M-2.85 1.3-1-.3h.85l.9 2.5 1.15-.25.2 1.1-3.7.45-1.45-1.25.05-.15.15-.8m1.3 8.85Q-3.1 8.35-4.2 9.3q-.35-1.75-1.5-1.8-.4-.75.7-1.6l1.05-1.8 1.35 1.75-.15 1.35-.05.1q1.3 1.25 1.25 2.85" transform="translate(7.6 .4)"/><path fill-rule="evenodd" fill="#7e9c39" d="M-3.95 4.1v-.05h.05l.85-1.8L-1.6 3.5l3.7-.45.15 1.15.05.2-2.8 2.1-2.25.7.15-1.35-1.35-1.75" transform="translate(7.6 .4)"/><path fill-rule="evenodd" fill="#6d9115" d="m.75 11.85-1.3-.35-.2-.25-.8-1.1q.05-1.6-1.25-2.85l.05-.1 2.25-.7 2.8-2.1v.35q.15 3.7-1.55 7.1M.4 8.4q-1.1-.5-1.65.2.55-.7 1.65-.2" transform="translate(7.6 .4)"/><path stroke-width=".05" stroke-linejoin="round" stroke-linecap="round" stroke="#635d1a" fill="none" d="M4.75 1.7 6.6.1h.85L9.7 0l.85 1.7.8.45q1.55 5.2.85 6.75m0 0-.2.6-.7 1.8M1.9 7.9q-.4-.75.7-1.6l1.05-1.8v-.05h.05l.85-1.8m.05-.15.15-.8M6.35 9Q6.9 8.3 8 8.8"/><path fill-rule="evenodd" fill="#fef7e0" d="m3.15 12.65-.9.05q-1.45-.1-1.5-.8.2-1.8.95-2.55.7-.7 1.3-.6h.05q-.95 3.6.1 3.9" transform="translate(7.6 .4)"/><path fill-rule="evenodd" fill="#d9ceb4" d="M3.05 8.75q.55.1 1 .9l.4.85q.2.4 0 1-.45.9-1.3 1.15-1.05-.3-.1-3.9" transform="translate(7.6 .4)"/><path stroke-width=".05" stroke-linejoin="round" stroke-linecap="round" stroke="#93550b" fill="none" d="m10.75 13.05-.9.05q-1.45-.1-1.5-.8.2-1.8.95-2.55.7-.7 1.3-.6m.05 0q.55.1 1 .9l.4.85q.2.4 0 1-.45.9-1.3 1.15l-.1-3.9z"/></g><g id="d"><path fill-rule="evenodd" fill="#68390b" d="M-8 9.7q-2.5.05-4.85-1-2.05-.9-2.85-2.15l-.15-4.75 7.55.95L3 .45 14.4-6.7l.45 6.8q.3 3.45-4.5 5.85l-6.7 2.5q-6.35 1.75-8.15 1.6L-8 9.7" transform="translate(16.55 17.65)"/><path fill-rule="evenodd" fill="#fef7e0" d="M-2.3 5.85Q-3 6.7-3.95 6.9H-5.9q-1.05-.2-.95-1.7.05-1.5.6-2.35.5-.9 1.45-1.05.9-.15 1.7.45.8.6 1.15 1.65.3 1.05-.35 1.95" transform="translate(16.55 17.65)"/><path stroke-width=".05" stroke-linejoin="round" stroke-linecap="round" stroke="#93550b" fill="none" d="M14.25 23.5q-.7.85-1.65 1.05h-1.95q-1.05-.2-.95-1.7.05-1.5.6-2.35.5-.9 1.45-1.05.9-.15 1.7.45.8.6 1.15 1.65.3 1.05-.35 1.95z"/><path fill-rule="evenodd" fill="#22180d" d="m-3.75 4.6-.55.25-.6-.05-.2-.4.2-.45.6-.25.55.05.25.45-.25.4" transform="translate(16.55 17.65)"/><path fill-rule="evenodd" fill="#518513" d="m12.15-8.2 1.7 1.55.9 1.9-1.35.5-1.7.1L11.3-9l.85.8" transform="translate(16.55 17.65)"/><path fill-rule="evenodd" fill="#45731f" d="m12.5-9.5.15.1-.5 1.2-.85-.8-.05-.3-.15-1.1 1.4.9m-.75 6.3 1.7.8-1.8 1.95.1-2.75" transform="translate(16.55 17.65)"/><path fill-rule="evenodd" fill="#659d17" d="M9.55-12.6 12-10.85l.5 1.35-1.4-.9-1.55-2.2" transform="translate(16.55 17.65)"/><path fill-rule="evenodd" fill="#7e9c39" d="m9.55-12.6-.15-.2q-1.45-1.8-3.15-3l6.2 4.2 3.45 4.3-3.2-2.05-.05-.05-.15-.1-.5-1.35-2.45-1.75" transform="translate(16.55 17.65)"/><path fill-rule="evenodd" fill="#6d8a32" d="m12.65-9.4.05.05 3.2 2.05q.25 5.25-1.2 9.25l-3.65.85.55-2.6.05-.65 1.8-1.95-1.7-.8v-.15l-.05-.8 1.7-.1 1.35-.5-.9-1.9-1.7-1.55.5-1.2" transform="translate(16.55 17.65)"/><path stroke-width=".05" stroke-linejoin="round" stroke-linecap="round" stroke="#635d1a" fill="none" d="M32.45 10.35 29 6.05l-6.2-4.2"/><path stroke-width=".05" stroke-linejoin="round" stroke-linecap="round" stroke="#635d1a" fill="none" d="m27.6 20.45 3.65-.85q1.45-4 1.2-9.25l-4.85 10.1z"/><path fill-rule="evenodd" fill="#ede0be" d="m-15.8 5.05-.75-.55q.1-2.85.4-3.85L-13.6-6l1.85-1.1.5.15-2 1.75-.2.2-1.25 3.45-1.1 3.1v3.5m3.45-7.4.35-.1q.15.85-.3 1.75-.25 1.2-1 1.9l-1.15.8q-.55-1 .55-3.5l.75-.7.8-.15M-14.4 3.4l.2 1-.45 1.15-.45-1.3q-.1-1.5.7-.85" transform="translate(16.55 17.65)"/><path fill-rule="evenodd" fill="#659d17" d="m-3.2-2.75 2.1 1.15L.6 3.25l-1.2.8-.1.05-1.8-1.55-.6-1.2.65-2.1-.75-2M-4.3 3.9q-1.55.25-2.65 1.95H-7L-7.1 5l1.85-1.5.95.4m-5.9-7.45-1.05.25-1.1.95-.8.15-.75.7-.8-.05L-13.45-5l.2-.2.2 1.4 2.85.25" transform="translate(16.55 17.65)"/><path fill-rule="evenodd" fill="#aba719" d="M-11.25-6.95h.05l3.3.95 1.85 1.35-4.15 1.1-2.85-.25-.2-1.4 2-1.75m1.1 8.5.6-1.85.95-.55-.45.75.15 1.15L-7.6-.1l-.8 2.55-1.65 1.2-.1-2.1" transform="translate(16.55 17.65)"/><path fill-rule="evenodd" fill="#8a8525" d="m-4.35-3.4 1.15.65.75 2-.65 2.1.6 1.2L-.7 4.1l-1.05.7q-.7-1.05-2.35-.9h-.2l-.95-.4L-7.1 5l.1.85h.05L-7.1 7.1l-2.7.15.1-.45q.4-1.35 1.9-2.45l.8-3Q-6.45-.4-4.35-3.4" transform="translate(16.55 17.65)"/><path fill-rule="evenodd" fill="#7e9c39" d="m-6.05-4.65.3.2 1.4 1.05Q-6.45-.4-7 1.35l-.8 3q-1.5 1.1-1.9 2.45l-.1.45q-3.55-.5-6-2.2v-3.5l1.1-3.1.8.05Q-15 1-14.45 2l1.15-.8q.75-.7 1-1.9.45-.9.3-1.75l-.35.1 1.1-.95 1.05-.25 4.15-1.1m-4.1 6.2.1 2.1 1.65-1.2.8-2.55-1.3 1.15-.15-1.15.45-.75-.95.55-.6 1.85M-14.4 3.4q-.8-.65-.7.85l.45 1.3.45-1.15-.2-1" transform="translate(16.55 17.65)"/><path stroke-width=".05" stroke-linejoin="round" stroke-linecap="round" stroke="#635d1a" fill="none" d="m12.2 14.25 1.15.65 2.1 1.15 1.7 4.85-1.2.8m-.1.05-1.05.7q-.7-1.05-2.35-.9h-.2q-1.55.25-2.65 1.95l-.15 1.25-2.7.15"/><path stroke-width=".05" stroke-linejoin="round" stroke-linecap="round" stroke="#635d1a" fill="none" d="m10.8 13.2 1.4 1.05M6.75 24.9q-3.55-.5-6-2.2L0 22.15q.1-2.85.4-3.85l2.55-6.65 1.85-1.1.5.15h.05l3.3.95L10.5 13"/><path fill-rule="evenodd" fill="#cf4a33" d="m-5.3-2.7.05-.05-.05.05" transform="translate(16.55 17.65)"/><path fill-rule="evenodd" fill="#f2573c" d="m-7-15.4.15-.05-.05.1-.1-.05" transform="translate(16.55 17.65)"/><path fill-rule="evenodd" fill="#8c3223" d="M6.9-5.6v-.05.05m-9.5 7.05.6.9h-.05l-.55-.9" transform="translate(16.55 17.65)"/><path fill-rule="evenodd" fill="#897c5a" d="m4.2-6.55.05.05H4.2v-.05" transform="translate(16.55 17.65)"/><path fill-rule="evenodd" fill="#ede0be" d="M3.05-10.1 3-10l-.05-.1h.1m-9.6-4.45-1.8 1.8q-2 2.1-3.35 4.8l-1.8 2.2-.85-.15q.7-.85 2.45-4.4 1.35-2.7 4.9-5.1l.1.05.05-.1h.05l.3.85h-.05v.05" transform="translate(16.55 17.65)"/><path fill-rule="evenodd" fill="#d4c8a9" d="m5.25-10.05.05.1L6.9-5.6l-1 .75L4.25-6.5l-.05-.05L3-10l.05-.1 2.2.05" transform="translate(16.55 17.65)"/><path fill-rule="evenodd" fill="#7a6e50" d="m7.45-3 .05-.05V-3v-.05.05h-.05" transform="translate(16.55 17.65)"/><path fill-rule="evenodd" fill="#63ba3b" d="m-6.5-14.45-.05-.1v-.05h.05v.15" transform="translate(16.55 17.65)"/><path fill-rule="evenodd" fill="#659d17" d="m-8.6-4.25-2.1-1.05-1.6-.25 1-.3.9-.25.95-1.05-.1 1.4.95 1.5m1.05.15.9-.3.25 1.2-1.55-.75.4-.15" transform="translate(16.55 17.65)"/><path fill-rule="evenodd" fill="#518513" d="m3-10 1.2 3.45v.05l-.7.2-.35-1.1-.25-.95-1.2-.9 1.25-.85.05.1m-6.6 5.35.15-.15 3-2.9.5-.45H.5L-.25-6.8l-.45.05-1.25 1.4v1.9l-.45.8-.05-.05-1.9-.75.8-.6-.05-.6M7.75.7l-.1 2.75-1.55.6.65-.85.3-.45.7-2.05m-2.2 3.55L0 6.35-.95 4.3l1 .25h.2L.75 4l1.3.75h1.8L4.2 3.3l.65-1.1.25.75.45 1.3M-1.2-1l-.05.95-.6-.85L-2-2.05-1.2-1" transform="translate(16.55 17.65)"/><path fill-rule="evenodd" fill="#aba719" d="m-6.5-14.45.9.95-.5 1.65 1.5.2.1 1.9.9.9 3.45-1.2L1-11.45l1.35 1.5-.65.7-.25.75-1.55-.55-2.35 1.1-3.45.1-.75-1.75-.8-.65v-1.5l-.9-1 1.8-1.8.05.1m-4.8 8.6.4-1.4 1.9-1.3v2.4l1.45 2.05-.4.15-.65-.3-.95-1.5.1-1.4-.95 1.05-.9.25" transform="translate(16.55 17.65)"/><path fill-rule="evenodd" fill="#99942a" d="M4.25-6.5 5.9-4.85l-3.1 2.2-.75.8 1.25-2.6-.15-2.95.35 1.1.7-.2h.05m2.4 2.75-.4 1.5L6-2.1 2.45.2l.25-1.95 3.95-2" transform="translate(16.55 17.65)"/><path fill-rule="evenodd" fill="#8a8525" d="M7.75.1v.6l-.7 2.05-.3.45-1.65-.25-.25-.75L4.5.95 2.4.2h.05L6-2.1 7.75.1" transform="translate(16.55 17.65)"/><path fill-rule="evenodd" fill="#7e9c39" d="m5.25-10.05-2.2-.05h-.1l-1.25.85.65-.7L1-11.45l-1.15 1.4-3.45 1.2-.9-.9-.1-1.9-1.5-.2.5-1.65-.9-.95v-.15l-.3-.85q4.3-1 11.4 4.1l.65 1.3m-13.6-2.7.9 1v1.5l.8.65.75 1.75 3.45-.1 2.35-1.1 1.55.55-.1.35H.05l-.5.45-3 2.9-.15.15.05.6-.8.6-.9.7-.05.05-1.1-.5-.25-1.2-.9.3L-9-6.15v-2.4l-1.9 1.3-.4 1.4-1 .3-1.2-.2 1.8-2.2q1.35-2.7 3.35-4.8" transform="translate(16.55 17.65)"/><path fill-rule="evenodd" fill="#6d8a32" d="m1.45-8.5.25-.75 1.2.9.25.95.15 2.95-1.25 2.6-.8.85 1.45-.75L2.45.2H2.4l-4.1 2.65-.3-.5L1.25.75-1.8.8l-.8.65-2.7-4.15.05-.05.9-.7 1.9.75.05.05.45-.8v-1.9l1.25-1.4.45-.05.75-1.35h.85l.1-.35m5.2 4.75.6-.35-.35-1.5.6 2.55-.05.05-1.2.75.4-1.5M-1.2-1-2-2.05l.15 1.15.6.85.05-.95" transform="translate(16.55 17.65)"/><path fill-rule="evenodd" fill="#4e6925" d="m5.9-4.85 1-.75.35 1.5-.6.35-3.95 2L1.25-1l.8-.85.75-.8 3.1-2.2m.35 2.6L7.45-3h.05L7.75.1 6-2.1l.25-.15m-.15 6.3-.55.2-.45-1.3 1.65.25-.65.85M2.4.2l2.1.75.35 1.25-.65 1.1-.35 1.45h-1.8L.75 4l-.5.55h-.2l-1-.25-.1-.15-.65-1.3L2.4.2m-5 1.25.8-.65L1.25.75-2 2.35l-.6-.9" transform="translate(16.55 17.65)"/><path fill-rule="evenodd" fill="#636128" d="m0 6.35-1.1.1-1.35-3.1-3.1-4.9-5.4-2.4-3-.55-.4-1.4.85.15 1.2.2 1.6.25 2.1 1.05.65.3 1.55.75 1.1.5 2.7 4.15.55.9H-2l.3.5.65 1.3.1.15L0 6.35" transform="translate(16.55 17.65)"/><path stroke-width=".05" stroke-linejoin="round" stroke-linecap="round" stroke="#635d1a" fill="none" d="m23.45 12.05-1.6-4.35m2.2 6.9-.6-2.55m.6 2.6v-.05m0 .05.25 3.1v.6l-.1 2.75-1.55.6-.55.2-5.55 2.1M2.6 13.15l-.4-1.4M21.15 6.3l.65 1.3m-6.95 12.9.65 1.3m-4.25-6.85 2.7 4.15m.6.9.3.5m-.3-.5-.6-.9m1.65 2.85.95 2.05M2.2 11.75q.7-.85 2.45-4.4 1.35-2.7 4.9-5.1l.15-.05h.05q4.3-1 11.4 4.1m-11.1-3.1v-.15M7.95 13.4l-2.1-1.05-1.6-.25-1.2-.2-.85-.15m7.95 2.7 1.1.5.05-.05m1.7-1.3-.05-.6m-5 .4.65.3m1.55.75L8.6 13.7"/><path fill-rule="evenodd" fill="#ede0be" d="m5.4-16.05.55.25-1.45.65-2.6-.4 1.45-.55 1-.4 1.05.45" transform="translate(16.55 17.65)"/><path fill-rule="evenodd" fill="#897c5a" d="m4.35-11.7-.05.05-.05-.15.1.1" transform="translate(16.55 17.65)"/><path fill-rule="evenodd" fill="#518513" d="m5.95-11.95 4.4-.6q1.6 4.2 2.05 9l-4 .45 2.45-2.2-.1-1.55L9.4-8.8l-1-.2.6-.4-.45.1.4-.6-.75-1.2-2.5-.8.25-.05" transform="translate(16.55 17.65)"/><path fill-rule="evenodd" fill="#659d17" d="m7.65-14.1-.1-.85 2.8 2.4-4.4.6 1.9-1.15-.2-1m-8.6-3.15.95-.2 2.9.05-2.45.55-1.4-.4" transform="translate(16.55 17.65)"/><path fill-rule="evenodd" fill="#45731f" d="m8.4-3.1 4-.45-2.2 7.1H9l-.75-2.1.95.35 1.2-2.4v-1.3l-2.35-.85.35-.35" transform="translate(16.55 17.65)"/><path fill-rule="evenodd" fill="#aba719" d="m5.7-16.2-.3.15-1.05-.45-1 .4-1.55-.05-1.6 1.6-2.05-1.4H-6.5l4.8-1.1.75-.2 1.4.4 2.45-.55.4.1q1.1.35 2.4 1.1M4-12.25 6.25-13l1.4-1.1.2 1-1.9 1.15-.25.05-1.35.2-.1-.1-.25-.45" transform="translate(16.55 17.65)"/><path fill-rule="evenodd" fill="#7e9c39" d="m7.55-14.95.1.85-1.4 1.1-2.25.75-.05-.05-.1-.15q-.95-.3-1.35-1Q1.45-13.8.3-14.5l-.05-.05H.2l1.6-1.6 1.55.05-1.45.55 2.6.4 1.45-.65-.55-.25.3-.15 1.55 1.05.3.2" transform="translate(16.55 17.65)"/><path fill-rule="evenodd" fill="#4e6925" d="m5.35-8.85 3.2-.45.45-.1-.6.4-1.25.8-.35.8-.9.3-.55-1.75m2 5.85 1.05-.1-.35.35 2.35.85v1.3L9.2 1.8l-.95-.35.75 2.1H7.25L7.2.6q-.1-1.7.15-3.6" transform="translate(16.55 17.65)"/><path fill-rule="evenodd" fill="#6d8a32" d="m4.35-11.7 1.35-.2 2.5.8.75 1.2-.4.6-3.2.45-1.05-2.8.05-.05M8.4-9l1 .2 1.35 1.95.1 1.55L8.4-3.1 7.35-3 5.9-7.1l.9-.3.35-.8L8.4-9" transform="translate(16.55 17.65)"/><path fill-rule="evenodd" fill="#47461d" d="m4.25-11.8.05.15 1.05 2.8.55 1.75L7.35-3Q7.1-1.1 7.2.6l.05 2.95-.6.1Q6.2-1 6.3-3.05L3.25-10.3l1-1.5" transform="translate(16.55 17.65)"/><path fill-rule="evenodd" fill="#636128" d="M.2-14.55h.05l.05.05q1.15.7 2.2 1.05.4.7 1.35 1l.1.15.05.05.25.45-1 1.5Q0-14.65-6.8-15.05l-.1-.85.4-.05h4.65l2.05 1.4" transform="translate(16.55 17.65)"/><path stroke-width=".05" stroke-linejoin="round" stroke-linecap="round" stroke="#635d1a" fill="none" d="m23.8 2.5-1.55-1.05M26.9 5.1l-2.8-2.4M9.65 1.75l.4-.05 4.8-1.1m.75-.2.95-.2 2.9.05m.4.1q1.1.35 2.4 1.1m6.7 12.65q-.45-4.8-2.05-9m-1.35 16.1h1.2l2.2-7.1m-5.15 7.1h1.75"/><path fill-rule="evenodd" fill="#ede0be" d="M2.15-10.35q.7-.05.95.45.25.45-.15 1.2-.4.7-1.15 1.25-.8.55-1.45.6H0q-.4-1.65 2.15-3.5m-4.05 4.2h.2l.35.25-.1.6-.45.55q-.35.25-.6.25h-.1q.05-.75.7-1.65" transform="translate(16.55 17.65)"/><path fill-rule="evenodd" fill="#f4ecd9" d="m0-6.85-.55-.45q-.25-.5.1-1.2L.7-9.75q.75-.55 1.45-.6Q-.4-8.5 0-6.85M-2.6-4.5l-.3-.25.05-.6.5-.55.45-.25q-.65.9-.7 1.65" transform="translate(16.55 17.65)"/></g><g id="e"><path fill-rule="evenodd" fill="#fef7e0" d="m-7.1 9.1-.75-.2Q-9 8.35-8.8 7.7q.85-1.65 1.75-2.05.8-.45 1.3-.2h.05q-2.1 3.1-1.4 3.65" transform="translate(8.85 .75)"/><path fill-rule="evenodd" fill="#d9ceb4" d="M-5.7 5.45q.4.25.4 1.2l.05.85q0 .4-.35.9-.7.75-1.5.7-.7-.55 1.4-3.65" transform="translate(8.85 .75)"/><path stroke-width=".05" stroke-linejoin="round" stroke-linecap="round" stroke="#93550b" fill="none" d="M1.75 9.85 1 9.65Q-.15 9.1.05 8.45.9 6.8 1.8 6.4q.8-.45 1.3-.2m.05 0q.4.25.4 1.2l.05.85q0 .4-.35.9-.7.75-1.5.7l1.4-3.65z"/><path fill-rule="evenodd" fill="#fef7e0" d="m-5.6 11.7-1-.2q-1.65-.7-1.45-1.55.9-2.3 2-2.9l2.05-.1q-2.2 3.5-1.6 4.75" transform="translate(8.85 .75)"/><path fill-rule="evenodd" fill="#d9ceb4" d="M-4 6.95q.4.4.55 1.3l.2 1.15q0 .65-.4 1.3-.85 1.05-1.95 1-.6-1.25 1.6-4.75" transform="translate(8.85 .75)"/><path stroke-width=".05" stroke-linejoin="round" stroke-linecap="round" stroke="#93550b" fill="none" d="M4.85 7.7q.4.4.55 1.3l.2 1.15q0 .65-.4 1.3-.85 1.05-1.95 1l-1-.2Q.6 11.55.8 10.7q.9-2.3 2-2.9l2.05-.1z"/><path fill-rule="evenodd" fill="#fef7e0" d="M-.2 13.05h-.95q-1.7-.3-1.75-1.25.05-2.55.85-3.5.95-1.2 1.8-.6-.85 4.2.05 5.35" transform="translate(8.85 .75)"/><path fill-rule="evenodd" fill="#d9ceb4" d="M-.25 7.7q.45.35.9 1.25l.55 1.2q.2.6.05 1.4Q.8 12.8-.2 13.05q-.9-1.15-.05-5.35" transform="translate(8.85 .75)"/><path stroke-width=".05" stroke-linejoin="round" stroke-linecap="round" stroke="#93550b" fill="none" d="M8.6 8.45q.45.35.9 1.25l.55 1.2q.2.6.05 1.4-.45 1.25-1.45 1.5H7.7q-1.7-.3-1.75-1.25Q6 10 6.8 9.05q.95-1.2 1.8-.6z"/><path fill-rule="evenodd" fill="#aba719" d="m-2.6 10.6-.15.4-.05.3-.9-.35-.2-2h-.05q-1.2-1.15-2.5-1.25-.55-.9.3-1.8l1.35-1.6.6-.95.15 1.85-.2 1.2.75.9.9 3.3M-2.65 2l.35.05 2.7.25.8-.15L.9 3l-1.25.35-1.45.85-.2-1.05L-2.65 2" transform="translate(8.85 .75)"/><path fill-rule="evenodd" fill="#7e9c39" d="m.25 9.65-.1-.05.35-1.3H1L.25 9.65m-4.45-6.3.05-.15q.85-1.15 1.5-1.2L-2 3.15l.2 1.05 1.45-.85L.9 3l.3-.85.1-.05.25-.05.1.65Q2 5.1 1.4 7.2L.75 6.05l-.1-2.3-1.2 1.15-1.05 1.9-1.9.5-.75-.9.2-1.2-.15-1.85m1.9-1.3q.05-.85.7-1.9L-.4-.6Q.8 1.25.4 2.3l-2.7-.25" transform="translate(8.85 .75)"/><path fill-rule="evenodd" fill="#6d9115" d="M.15 9.6q-.6-.4-1.2-.25l-.65.3q-.65.4-.9.95l-.9-3.3 1.9-.5 1.05-1.9 1.2-1.15.1 2.3.65 1.15-.1.25-.3.85H.5L.15 9.6M-.5 8.1q-1.1-.55-1.8.35.7-.9 1.8-.35" transform="translate(8.85 .75)"/><path fill-rule="evenodd" fill="#8a8525" d="m4 6.3-.45 2-.2 1.35-.05.15-.25.65-1.9 1.2q0-1-.85-1.95l-.05-.05L1 8.3l.3-.85.1-.25 1.65-.25L4 6.3" transform="translate(8.85 .75)"/><path fill-rule="evenodd" fill="#66822f" d="M-.4-.6Q.85-1 1.8-.25l.8 1.8.8.45Q4 4.35 4 6.05v.25l-.95.65-1.65.25q.6-2.1.25-4.5l-.1-.65-.25.05-.1.05-.8.15Q.8 1.25-.4-.6m3 2.15-1.05.5 1.05-.5" transform="translate(8.85 .75)"/><path stroke-width=".05" stroke-linejoin="round" stroke-linecap="round" stroke="#635d1a" fill="none" d="M8.45.15q1.25-.4 2.2.35l.8 1.8.8.45q.6 2.35.6 4.05m0 .25-.45 2m-6.15 2.3-.15.4m.45-8.95q.05-.85.7-1.9l1.2-.75m.8 2.9.8-.15m.1-.05.25-.05 1.05-.5m-4.9.5 2.7.25m3.15 6-.2 1.35m-.05.15-.25.65-1.9 1.2q0-1-.85-1.95l-.05-.05-.1-.05q-.6-.4-1.2-.25l-.65.3q-.65.4-.9.95m-.15.4-.05.3M4.95 9.7H4.9Q3.7 8.55 2.4 8.45q-.55-.9.3-1.8l1.35-1.6.6-.95.05-.15q.85-1.15 1.5-1.2l.35.05m0 6.4q.7-.9 1.8-.35"/><path fill-rule="evenodd" fill="#ede0be" d="m1.3 6-.45.05q-.3-.15-.3-.8L.7 4.1q.1-.7.45-1 .2-.35.45-.1l.25.8L1.7 5l-.4 1M.8 8.6l-.25-.05-.15-.4.05-.5.2-.4q.1-.15.25 0l.1.4-.05.55-.15.4" transform="translate(8.85 .75)"/></g><g id="f" fill-rule="evenodd"><path fill="#68390b" d="m7.75-1.35-.8 1q-.05.75-2 2.05-2 1.25-3.2 1.45l-2.1-.1q-1.15 0-1.35-1.9l.45-.95.15-.85 8.85-.7" transform="translate(1.7 3)"/><path fill="#995210" d="m-1.1-.65.05-.2q.7-1.25 1.8-1.5l2.95-.2 1.7-.35q1.1-.35 2.4.3l-.05 1.25-8.85.7" transform="translate(1.7 3)"/></g><g id="g"><path fill-rule="evenodd" fill="#659d17" d="m-.7 8.6 1.4.1-.2.65-1.35.8.15-1.55" transform="translate(5.35 1)"/><path fill-rule="evenodd" fill="#aba719" d="M5.65 7q.65.35.95 1.3l-.15.05q-1.3.15-1.8 2.5Q3 10.3 1.8 11.1L.15 12.45l-.7-.1-.3-1.95v-.25l1.35-.8.2-.65.1-.5-.35-1.5.8-1.6L2.5 6.35 4 6.6l.95.15.7.25M1.3 8.6l-.6.1.6-.1" transform="translate(5.35 1)"/><path fill-rule="evenodd" fill="#bbae8c" d="M-3.5 3.1h-.05.05M.15 4H.2.15" transform="translate(5.35 1)"/><path fill-rule="evenodd" fill="#45731f" d="M-2.55 1.1Q-2.65.5-2-.3l1.25-.55L.4.6q.7 1.2.9 2.55l-.8-.1-.95.2q-.55.15-1.1-.5l-.85-1.2-.15-.45.15.45.85 1.2q.55.65 1.1.5l.95-.2L.15 4Q-1.3 5.75-1.1 6.9l.4 1.7-2.15-.7 2.15.7-.15 1.55-1.7-1.3-.3-.95-.25-.95-.95-1.2.5-2.65.75-2h.25m-1 2h.05-.05" transform="translate(5.35 1)"/><path fill-rule="evenodd" fill="#8e8515" d="M-.55 12.35q-3.7-.6-4.1-1.25-.65-1-.55-1.55l.75-1.85.4-1.95.95 1.2.25.95.3.95 1.7 1.3v.25l.3 1.95" transform="translate(5.35 1)"/><path fill-rule="evenodd" fill="#7e9c39" d="m.5 3.05.8.1Q1.1 1.8.4.6L-.75-.85l1.55.1.8.8.6-.3 1 .85.2.2 1 1.2.55 2.35.1.55.1.8.5 1.3-.7-.25L4 6.6l-1.5-.25L1.25 5.1l-.8 1.6.35 1.5-.1.5-1.4-.1-.4-1.7Q-1.3 5.75.15 4l.35-.95M.15 4H.2.15m1.15-.85Q3.7 2.4 2.55 1.1L1.6.05l.95 1.05Q3.7 2.4 1.3 3.15" transform="translate(5.35 1)"/><path stroke-width=".05" stroke-linejoin="round" stroke-linecap="round" stroke="#635d1a" fill="none" d="M4.6.15 3.35.7q-.65.8-.55 1.4l.15.45.85 1.2q.55.65 1.1.5l.95-.2.8.1M11 8q.65.35.95 1.3l-.15.05q-1.3.15-1.8 2.5-1.65-.55-2.85.25L5.5 13.45m-3-4.55 2.15.7 1.4.1.6-.1m3.65-1.85L11 8"/><path stroke-width=".05" stroke-linejoin="round" stroke-linecap="round" stroke="#635d1a" fill="none" d="m4.6.15 1.55.1.8.8.95 1.05q1.15 1.3-1.25 2.05m.9-3.4 1 .85m.2.2 1 1.2.55 2.35m.1.55.1.8L11 8m-5.5 5.45-.7-.1q-3.7-.6-4.1-1.25-.65-1-.55-1.55L.9 8.7l.4-1.95.5-2.65.75-2m-.7 2H1.8m3.7.9h.05-.05"/><path fill-rule="evenodd" fill="#fef7e0" d="M4.65 7.9 6.5 8q1.25.75 1.55 1.9.4 1.5-.55 1.9l-1.2.2L6 9.75 4.65 7.9" transform="translate(5.35 1)"/><path fill-rule="evenodd" fill="#d9ceb4" d="M4.65 7.9 6 9.75 6.3 12q-1.3-.1-2.15-1.1-.35-.65-.35-.85l.25-1q.2-.8.6-1.15" transform="translate(5.35 1)"/><path stroke-width=".05" stroke-linejoin="round" stroke-linecap="round" stroke="#93550b" fill="none" d="m11.65 13 1.2-.2q.95-.4.55-1.9-.3-1.15-1.55-1.9L10 8.9m1.65 4.1q-1.3-.1-2.15-1.1-.35-.65-.35-.85l.25-1q.2-.8.6-1.15"/><path fill-rule="evenodd" fill="#fef7e0" d="M3.15 14.8Q3 11.4 1.85 8.85q1.05-.2 1.9.7.8.9 1.35 2.55t-1.15 2.55l-.8.15" transform="translate(5.35 1)"/><path fill-rule="evenodd" fill="#d9ceb4" d="M3.15 14.8q-2-.2-2.5-.75-.55-.55-.4-1.45l.3-2.05q.15-1.1 1.3-1.7Q3 11.4 3.15 14.8" transform="translate(5.35 1)"/><path stroke-width=".05" stroke-linejoin="round" stroke-linecap="round" stroke="#93550b" fill="none" d="M7.2 9.85q-1.15.6-1.3 1.7l-.3 2.05q-.15.9.4 1.45.5.55 2.5.75M7.2 9.85q1.05-.2 1.9.7.8.9 1.35 2.55T9.3 15.65l-.8.15"/><path fill-rule="evenodd" fill="#fef7e0" d="M-2.8 10q.35 1.05.05 2.85-.3 1.45.05 1.6h-1q-1.65-.3-1.65-1.15.25-2.2 1.1-3 .55-.55 1.35-.35l.1.05" transform="translate(5.35 1)"/><path fill-rule="evenodd" fill="#d9ceb4" d="M-2.7 14.45q-.35-.15-.05-1.6.3-1.8-.05-2.85.85.2 1.15.9l.5 1.05q.15.5-.1 1.2-.5 1.1-1.45 1.3" transform="translate(5.35 1)"/><path stroke-width=".05" stroke-linejoin="round" stroke-linecap="round" stroke="#93550b" fill="none" d="M2.65 15.45q.95-.2 1.45-1.3.25-.7.1-1.2l-.5-1.05q-.3-.7-1.15-.9m-.1-.05q-.8-.2-1.35.35-.85.8-1.1 3 0 .85 1.65 1.15h1l-.2-4.5z"/><path fill-rule="evenodd" fill="#ede0be" d="m4.25 3.9-.6.6q-.4.15-.8-.4-.4-.45-.5-1.3-.2-.75 0-1.35.05-.6.55-.7.35-.1.8.4l.45 1.35.1 1.4m.8 2.95-.25.2q-.25.05-.45-.2-.15-.15-.2-.5-.15-.35 0-.6l.3-.25.35.15.2.6.05.6" transform="translate(5.35 1)"/></g><g id="h"><path stroke-width=".05" stroke-linejoin="round" stroke-linecap="round" stroke="#68390b" fill="none" d="m1.45 3.25 1.05-1.3Q4.5-.2 6.55 0q2.1.2 3 2.45"/><path fill-rule="evenodd" fill="#e98727" d="m-7.25 2.85-.9.6-.9-.15q-.35-.3-.35-.8 0-.55.35-1 .35-.45.9-.55l.9.1q.35.3.35.85 0 .5-.35.95" transform="translate(9.4 1.7)"/><path stroke-width=".05" stroke-linejoin="round" stroke-linecap="round" stroke="#ffb945" fill="none" d="m2.15 4.55-.9.6L.35 5Q0 4.7 0 4.2q0-.55.35-1 .35-.45.9-.55l.9.1q.35.3.35.85 0 .5-.35.95z"/></g><g id="i"><path fill-rule="evenodd" fill-opacity=".6" fill="#76bd28" d="M.35.4Q-2.4-2.4-6.3-4.15q-4.2-1.95-6.1-3.65-3.4-3-4.05-5-.6-1.8-.2-6.75l3.75 2.45q3.05 2.25 6.05 5.15Q-4.5-8.9.35.4m-12.8-11.05 4.8 1.8L-11.8-13l-3.1-3.7 3.1 3.7 4.15 4.15q2.7 2.3 4.7 5.3-2-3-4.7-5.3l-4.8-1.8M-.35 4.3q-2.9-.15-5.75 1-3.05 1.2-4.9 1.25-3.35.05-4.8-.8-1.3-.8-3.95-4.15 4-1.05 8.9-.9Q-8 1.25-.35 4.3m-9.1-1.2-4.3-.15-3.6-.55 3.6.55-2.85-1.65 2.85 1.65 4.3.15 5.25.65-5.25-.65-3.25 1.65 3.25-1.65" transform="translate(19.75 19.55)"/><path stroke-width=".05" stroke-linejoin="round" stroke-linecap="round" stroke="#6d8738" fill="none" d="M12.9 7.6q-3-2.9-6.05-5.15L3.1 0q-.4 4.95.2 6.75.65 2 4.05 5 1.9 1.7 6.1 3.65 3.9 1.75 6.65 4.55m-11.2.3q-4.9-.15-8.9.9 2.65 3.35 3.95 4.15 1.45.85 4.8.8 1.85-.05 4.9-1.25 2.85-1.15 5.75-1"/><path stroke-width=".05" stroke-linejoin="round" stroke-linecap="round" stroke="#6d8738" fill="none" d="m4.85 2.85 3.1 3.7 4.15 4.15q2.7 2.3 4.7 5.3m-4.7-5.3L7.3 8.9m8.25 14.4-5.25-.65-3.25 1.65M2.4 21.95l3.6.55-2.85-1.65M6 22.5l4.3.15"/></g><path stroke-width="6" stroke-linejoin="round" stroke-linecap="round" stroke="#3a3c13" fill="none" d="M158.4 23.1q.3-10.4 1.25-20.1 11.45 15.5 14.25 23.35 3.1 8.9 3.55 29.3.25 11.4-3.1 30.75l-.75 5.05q4.25.4 7.95 1.75l.6.2q5.1 4.35 9.05 8.75 5.65-10.95 9-15.5 11.75-10.8 23.4-14.9-.5 19.15-2.3 25.05-2.1 6.5-10.3 13.05-3.75 3.05-10.95 4.5 1.7 3.15 2.85 6.25 6.45 18.1 9.35 22.65l-2.15 5.1.4 1.35q4.85 16.95 6.9 26.45l2.6 7.75q-.45 2.35-1.6 4.5l-.05 2.25h1.8l8.95 7.75q-.5 2.9 5.35 13.3 4.1 8.2 5.2 8.85 3.75 3.1 3.8 5.75 1.45.4 2.95 1.15 5.6 6 5.7 14.05-.65 2.65-3.85 3.6-3.15.8-8.65 0 .65 2.7.75 5.6-.55 2.85-3.6 3.5-5.7.95-20.25-6l-4.7 1.25-.15-.05.05.3q-.15 3.3-7.3 3.9l-4.2-.4q-4.3-1.05-6.3-5.45-1-2.85-.25-4.95l1.8-3.15-2.4-6.4q-2.1-4.55-.1-15.6-9.5 2.1-19.05.8-4.7-.35-17-.35-4.65-.1-15-3.4-1.7 1.8-2.1 3.8 1.8 3.6 1.95 6.65 3.45-1.7 8.95 5.45 2.1 4.5 7.75 10.9l.15-.15q2.1-1.1 6.15 1.1 4.3 2.1 8.35 10.05 1.1 3.1-4.5 5.8l-1.1.45 1.95 4.5q1.1 4.25-6.9 7.5-2.5 1-4.7 1.1-5.25.15-9.2-4.45l-.1.85-4 1.45.1 2.5q-.35 4.7-8.45 6.2l-4.6-.15q-4.8-1.05-6.8-6.95l-8.8-5.5q-2.15-3.5-2.55-10.5-4.55-10 .85-30.4l3.85-2.3 3.9-8.6q-.05-2.8-.8-6.35l-.1-.6-2.55-1q-5.75-3.1-30.85-15.75l-6.85-5-7-1.25 2.75 14.5 3.6 8.95q.45 2.45-2.25 6.9 2.05 4.05 2.9 11-.05 4.05-8 5.45-2.7.4-4.85 0-4.75-1-7.15-6.2-.75-2.2-.7-4.05l-2.45.45-3.35.45-.8-.85.15 1.25q.6 4.35-1.9 7.1-2.5 2.8-12.25 3.65l-3.85-.7q-8.15-4.3-5.55-12.35l.95-2.65q-3 1.85-6.8 2.15-3.4 0-5.8-.95-4.6-1.95-2.65-9.2 1.45-5.6 7.5-9.2l.65-.4q1.35-2.9 3.85-4.2 2-3.8 2.3-6.3 2.4-16.2 3.6-17.9 3.35-4.8 7.75-8.6l2.9-2.3 2.9 1.35 2.4-2.45-.3-1.25.45-7.45q-3.15-.85-5.6-2.05-7.4-3.8-25.25-20.1 6.7-1.9 14.2-3 12.7-1.8 27.7-1.35 3 .55 7.15 1.6l.3-1.8 18.55-18.4q-5.45-2.7-11.15-5Q52.5 90.8 40.9 82.6 20.15 68.1 13.8 58.4 8.3 49.7 3 25.6 13.7 31 24.65 37.5q18.15 10.9 37 25 11.6 10.75 34.55 37.65l14.75-7.7q24.6-14.9 39.6-9l13.85 4.9q-4.45-19.7-5.8-29.8-.9-18.7-.2-35.45m-65.25 88.2-.15.55.35-.8-.2.25m-26.4 42.55-3.9-1.85 3.75.1.15 1.75" id="l"/><path fill-rule="evenodd" fill-opacity="0" fill="#f0f" d="M0 0h102.95v45H0V0" id="j"/></defs><path fill="none" d="M-1-1h209v231H-1z"/><use x="111.05" y="222.5" xlink:href="#k" width="381" transform="translate(-192.55 -294)" height="381"/><use xlink:href="#l" width="255.1" transform="matrix(.8 0 0 .8 1.43 1.32)" height="281.55"/><use x="44.812" y="57.464" xlink:href="#m" width="18.2" transform="matrix(3.872 0 -1.087 3.872 18.081 -218.777)" height="24.8"/><use x="20.622" y="16.25" xlink:href="#n" width="7" transform="matrix(-.8738 -3.7693 -3.8758 .4141 261.023 228.941)" height="7"/><use x="-28.68" y="57.464" xlink:href="#o" width="12.4" transform="matrix(-3.872 0 0 3.872 92.027 -69.049)" height="13.25"/><use x="22.882" y="-15.839" xlink:href="#p" width="32.5" transform="matrix(-3.8453 -.4411 -.4411 3.8453 266.476 145.88)" height="27.7"/><use x="-18.637" y="68.622" xlink:href="#n" width="7" transform="matrix(-3.872 0 .5667 3.2424 9.798 -67.38)" height="7"/><use x="-28.68" y="57.464" xlink:href="#q" width="12.85" transform="matrix(-3.872 0 0 3.872 29.517 -51.504)" height="13.85"/><use x="-40.739" y="49.708" xlink:href="#r" width="9.5" transform="matrix(-3.7729 -.8581 -.8581 3.7729 -33.562 -94.26)" height="6.15"/><use x="-28.68" y="57.464" xlink:href="#s" width="13.5" transform="matrix(-3.872 0 0 3.872 -45.035 -96.072)" height="15.8"/><use x="19.741" y="-19.72" xlink:href="#t" width="9.55" transform="matrix(-3.8521 .2514 .2514 3.8521 272.832 190.588)" height="5.2"/><use x="33.329" y="-11.778" xlink:href="#t" width="9.55" transform="matrix(-2.4303 -.762 0 3.872 241.695 209.28)" height="5.2"/><use x="11.19" y="57.464" xlink:href="#u" width="20.1" transform="matrix(3.872 0 1.1785 3.872 -119.01 -200.597)" height="26.1"/><use x="54.311" y="118.914" xlink:href="#v" width="102.95" transform="matrix(2.0447 0 0 1.8711 -111.95 -94)" height="45"/></svg>