<svg width="208" height="229" xmlns="http://www.w3.org/2000/svg" xmlns:xlink="http://www.w3.org/1999/xlink"><defs><use xlink:href="#a" width="18.2" height="24.8" id="m"/><use xlink:href="#b" width="7" height="7" id="n"/><use xlink:href="#c" width="12.4" height="13.25" id="o"/><use xlink:href="#d" width="32.5" height="27.65" id="p"/><use xlink:href="#e" width="12.8" height="13.85" id="q"/><use xlink:href="#f" width="9.5" height="6.15" id="r"/><use xlink:href="#g" width="13.5" height="15.75" id="s"/><use xlink:href="#h" width="9.55" height="5.2" id="t"/><use xlink:href="#i" width="20.1" height="26.1" id="u"/><use xlink:href="#j" width="102.95" height="45" id="v"/><g id="k" stroke-opacity="0" stroke-linejoin="round" stroke-linecap="round" stroke="#f0f" fill="none"><path d="M187.95-293.5v380h-380v-380h380M92.95.6H-97" transform="translate(192.55 294)"/><path d="m187.95-293.5-190 190 190 190m-380-380 190 190L-192 86.5" transform="translate(192.55 294)"/></g><g id="a"><path fill-rule="evenodd" fill="#ba8e48" d="M7.35-4.5H5.1l1.55-2 1.05-2-1.05 2-1.55 2h2.25M4.2-7.1Q6-9.35 8.15-10.2q1 3.95 1 5.2-.1 1.35-1.4 2.7Q7-1.55 5.1-1.25 3.35-1 2.35.4 3.4-5.45 4.2-7.1m.9 2.6q-1.05 1-1.65 2.75.6-1.75 1.65-2.75m-9.25-11.05.25 4.25-1.85-5.5-.15-.3-.05-.25.05.25.15.3 1.85 5.5-.25-4.25m-1.9 2.65q-1.25-3.9-2.1-7.35l-.9-4.15q3.25 3.2 4.3 4.85 1.15 1.8 2.45 6.05.7 2.35 1.15 6.35.4 3.7 1.65 7.4Q-4.55-9.3-6.05-12.9m4.65 8.3Q-2.95-8-3.9-11.3q.95 3.3 2.5 6.7" transform="translate(9.05 24.4)"/><path stroke-width=".05" stroke-opacity=".502" stroke-linejoin="round" stroke-linecap="round" stroke="#634727" fill="none" d="m16.75 15.9-1.05 2-1.55 2h2.25m-3.9 2.75q.6-1.75 1.65-2.75M3 11.5Q1.75 7.6.9 4.15L0 0q3.25 3.2 4.3 4.85 1.15 1.8 2.45 6.05.7 2.35 1.15 6.35.4 3.7 1.65 7.4"/><path stroke-width=".05" stroke-opacity=".502" stroke-linejoin="round" stroke-linecap="round" stroke="#634727" fill="none" d="M13.25 17.3q1.8-2.25 3.95-3.1 1 3.95 1 5.2-.1 1.35-1.4 2.7-.75.75-2.65 1.05-1.75.25-2.75 1.65M3.1 7.05l.05.25.15.3 1.85 5.5-.25-4.25m.25 4.25q.95 3.3 2.5 6.7"/></g><g id="b" fill-rule="evenodd"><path fill="#68390b" d="m.1-.85 2.3.25q1.55 1.7 1.5 3.45-.1 2.25.7 3.3l-1.9-.4Q2.65 2.05.1-.85" transform="translate(2.4 .85)"/><path fill="#995210" d="m2.7 5.75-2.15.4q0-1.3-1.5-2.25-1.55-1-1.45-2.1Q-1.4-.25.1-.85q2.55 2.9 2.6 6.6" transform="translate(2.4 .85)"/></g><g id="c"><path fill-rule="evenodd" fill="#897c5a" d="m-2.4 8.9.1 1.4q-3.25 1-4.5.65Q-5.6 8.3-2.4 8.9" transform="translate(7.6 .4)"/><path fill-rule="evenodd" fill="#bbae8c" d="M-6.8 10.95q-.65-.2-.8-.75 0-1.65 1.2-2.9 2.15-1.05 3.95 1.1l.05.5q-3.2-.6-4.4 2.05" transform="translate(7.6 .4)"/><path stroke-width=".05" stroke-linejoin="round" stroke-linecap="round" stroke="#968457" fill="none" d="M5.3 10.7q-3.25 1-4.5.65-.65-.2-.8-.75 0-1.65 1.2-2.9 2.15-1.05 3.95 1.1"/><path fill-rule="evenodd" fill="#897c5a" d="M-4.4 12.85q1.2-3.1 4.2-2.8l.05 1.5q-3.1 1.5-4.25 1.3" transform="translate(7.6 .4)"/><path fill-rule="evenodd" fill="#bbae8c" d="M-.2 10.05q-3-.3-4.2 2.8-.65-.15-.75-.75.05-1.85 1.2-3.35 2.05-1.4 3.7.7l.05.6" transform="translate(7.6 .4)"/><path stroke-width=".05" stroke-linejoin="round" stroke-linecap="round" stroke="#968457" fill="none" d="M7.35 9.85q-1.65-2.1-3.7-.7-1.15 1.5-1.2 3.35.1.6.75.75 1.15.2 4.25-1.3"/><path fill-rule="evenodd" fill="#f2e4c1" d="M-2.85 1.3-1-.3h.85l.9 2.5 1.15-.25q1.2 5.2-1.15 9.9l-1.3-.35Q-2.7 8.05-4.2 9.3q-.35-1.75-1.5-1.8-.4-.75.7-1.6l1.05-1.85q1.2-2.15 1.1-2.75M.4 8.4q-1.1-.5-1.65.2.55-.7 1.65-.2" transform="translate(7.6 .4)"/><path fill-rule="evenodd" fill="#8f7f5f" d="M-.15-.3 2.1-.4l.85 1.7.8.45q1.55 5.2.85 6.75l-.9 2.4-2.95.95q2.35-4.7 1.15-9.9L.75 2.2l-.9-2.5" transform="translate(7.6 .4)"/><path stroke-width=".05" stroke-linejoin="round" stroke-linecap="round" stroke="#968457" fill="none" d="m12.2 8.9-.9 2.4M1.9 7.9q-.4-.75.7-1.6l1.05-1.85q1.2-2.15 1.1-2.75M6.35 9Q6.9 8.3 8 8.8M4.75 1.7 6.6.1h.85L9.7 0l.85 1.7.8.45q1.55 5.2.85 6.75L4.75 1.7z"/><path fill-rule="evenodd" fill="#897c5a" d="M3.05 8.75q.55.1 1 .95l.45.8-.05 1q-.45.9-1.3 1.15-1-.3-.1-3.9" transform="translate(7.6 .4)"/><path fill-rule="evenodd" fill="#bbae8c" d="m3.15 12.65-.9.05q-1.5-.1-1.5-.8.2-1.85.95-2.55.7-.7 1.3-.6h.05q-.9 3.6.1 3.9" transform="translate(7.6 .4)"/><path stroke-width=".05" stroke-linejoin="round" stroke-linecap="round" stroke="#968457" fill="none" d="M10.65 9.15q.55.1 1 .95l.45.8-.05 1q-.45.9-1.3 1.15l-.9.05q-1.5-.1-1.5-.8.2-1.85.95-2.55.7-.7 1.3-.6"/></g><g id="d"><path fill-rule="evenodd" fill="#68390b" d="m14.4-6.75.45 1.6v5.2q.3 3.45-4.5 5.85l-6.7 2.5Q-2.7 10.15-4.5 10L-8 9.65q-2.5.05-4.85-1-2.05-.9-2.85-2.15l-.15-4.75q3.45-8.2 9.5-10.45 4.7-1.75 9.7-1.5H4.7q3.5.85 9.7 3.45" transform="translate(16.55 17.65)"/><path fill-rule="evenodd" fill="#fef7e0" d="M-2.45 6.35q-.7.85-1.65 1.05h-1.95Q-7.1 7.2-7 5.7q.05-1.5.6-2.35.5-.9 1.45-1.05.9-.15 1.7.45.8.6 1.15 1.65.3 1.05-.35 1.95" transform="translate(16.55 17.65)"/><path stroke-width=".05" stroke-linejoin="round" stroke-linecap="round" stroke="#93550b" fill="none" d="M14.1 24q-.7.85-1.65 1.05H10.5q-1.05-.2-.95-1.7.05-1.5.6-2.35.5-.9 1.45-1.05.9-.15 1.7.45.8.6 1.15 1.65.3 1.05-.35 1.95z"/><path fill-rule="evenodd" fill="#22180d" d="m-3.9 5.1-.55.25-.6-.05-.2-.4.2-.45q.25-.2.6-.25l.55.05.25.45-.25.4" transform="translate(16.55 17.65)"/><path fill-rule="evenodd" fill="#f2e4c1" d="M11.1-10.45q-2.15-3.45-4.85-5.4l6.2 4.2 3.45 4.3-4.8-3.1" transform="translate(16.55 17.65)"/><path fill-rule="evenodd" fill="#b5a179" d="m11.7-3.7-.6-6.75 4.8 3.1q.15 2.5-.1 4.7L11.7-3.7" transform="translate(16.55 17.65)"/><path fill-rule="evenodd" fill="#8f7f5f" d="M15.8-2.65Q15.5-.2 14.7 1.9l-3.65.85q.8-2.3.65-6.45l4.1 1.05" transform="translate(16.55 17.65)"/><path stroke-width=".05" stroke-linejoin="round" stroke-linecap="round" stroke="#968457" fill="none" d="M32.45 10.3q.15 2.5-.1 4.7-.3 2.45-1.1 4.55l-3.65.85M22.8 1.8 29 6l3.45 4.3-9.65-8.5z"/><path fill-rule="evenodd" fill="#fff" d="m-14.3-.4 1.15-1.85L-12-2.5l-.3 1.75-1 1.9-1.15.8.15-2.35M-15.8 5l-.75-.55q.1-2.85.4-3.85l2.55-6.65 1.85-1.1.5.15-2.2 1.95-2.35 6.55V5m1.15.5-.45-1.3.7-.85.2 1-.45 1.15" transform="translate(16.55 17.65)"/><path fill-rule="evenodd" fill="#f2e4c1" d="m-14.3-.4-.15 2.35 1.15-.8 1-1.9.3-1.75-1.15.25L-14.3-.4M-15.8 5V1.5l2.35-6.55 2.2-1.95 3.35.95 3.55 2.6Q-6.45-.45-7 1.3l-.8 3q-1.7 1.25-2 2.9-3.55-.5-6-2.2m1.15.5.45-1.15-.2-1-.7.85.45 1.3" transform="translate(16.55 17.65)"/><path fill-rule="evenodd" fill="#b5a179" d="m-4.35-3.45 3.25 1.8L.6 3.2l-2.35 1.55q-.7-1.05-2.35-.9-1.7.1-2.85 1.95l-.15 1.25-2.7.15q.3-1.65 2-2.9l.8-3q.55-1.75 2.65-4.75" transform="translate(16.55 17.65)"/><path stroke-width=".05" stroke-linejoin="round" stroke-linecap="round" stroke="#968457" fill="none" d="m12.2 14.2 3.25 1.8 1.7 4.85-2.35 1.55q-.7-1.05-2.35-.9-1.7.1-2.85 1.95l-.15 1.25-2.7.15"/><path stroke-width=".05" stroke-linejoin="round" stroke-linecap="round" stroke="#968457" fill="none" d="m5.3 10.65-.5-.15-1.85 1.1L.4 18.25q-.3 1-.4 3.85l.75.55m4.55-12 3.35.95 3.55 2.6M6.75 24.85q-3.55-.5-6-2.2"/><path fill-rule="evenodd" fill="#897c5a" d="m4.25-11.85.1.1-.05.05-.05-.15" transform="translate(16.55 17.65)"/><path fill-rule="evenodd" fill="#fff" d="m4.35-16.55 1.6.7-1.45.65-2.6-.4 2.45-.95" transform="translate(16.55 17.65)"/><path fill-rule="evenodd" fill="#f2e4c1" d="m4.25-11.85-.4-.65q-.95-.3-1.35-1-1.05-.35-2.2-1.05L-1.85-16H-6.5L0-17.5q4-1.1 10.35 4.9l-6 .85-.1-.1m.1-4.7-2.45.95 2.6.4 1.45-.65-1.6-.7" transform="translate(16.55 17.65)"/><path fill-rule="evenodd" fill="#b5a179" d="m4.35-11.75 6-.85q1.6 4.2 2.05 9l-5.05.55-1.45-4.1.9-.3.35-.8L9-9.45l-3.65.55-1.05-2.8.05-.05" transform="translate(16.55 17.65)"/><path fill-rule="evenodd" fill="#8f7f5f" d="M7.25 3.5 7.2.55q-.1-1.7.15-3.6l5.05-.55-2.2 7.1H7.25M5.9-7.15 5.35-8.9 9-9.45l-1.85 1.2-.35.8-.9.3" transform="translate(16.55 17.65)"/><path fill-rule="evenodd" fill="#695f45" d="M-6.5-16h4.65L.3-14.55q1.15.7 2.2 1.05.4.7 1.35 1l.4.65.05.15 1.05 2.8.55 1.75 1.45 4.1Q7.1-1.15 7.2.55l.05 2.95-.6.1Q6.2-1.05 6.3-3.1l-3.05-7.25Q0-14.7-6.8-15.1l-.1-.85.4-.05" transform="translate(16.55 17.65)"/><path stroke-width=".05" stroke-linejoin="round" stroke-linecap="round" stroke="#968457" fill="none" d="M28.95 14.05q-.45-4.8-2.05-9m2.05 9-2.2 7.1H23.8m3.1-16.1q-6.35-6-10.35-4.9l-6.5 1.5-.4.05"/><path fill-rule="evenodd" fill="#f2573c" d="m-6.75-16.2.15-.05-.05.1-.1-.05" transform="translate(16.55 17.65)"/><path fill-rule="evenodd" fill="#cf4a33" d="m-5-3.55-.05.05.05-.05" transform="translate(16.55 17.65)"/><path fill-rule="evenodd" fill-opacity=".8" fill="#607982" d="m7.7-3.8.05-.05v.05H7.7" transform="translate(16.55 17.65)"/><path fill-rule="evenodd" fill="#8c3223" d="M7.15-6.4v-.05.05m-8.9 7.95h-.05l-.55-.9.6.9" transform="translate(16.55 17.65)"/><path fill-rule="evenodd" fill="#7a6e50" d="M7.75-3.85v.05-.05" transform="translate(16.55 17.65)"/><path fill-rule="evenodd" fill="#695f45" d="m-5.05-3.5 2.7 4.15.55.9h.05l.3.5 1.7 3.5-1.1.1-1.35-3.1-3.1-4.9-5.4-2.4-3-.55-.4-1.4.85.15 2.8.45 5.4 2.6" transform="translate(16.55 17.65)"/><path fill-rule="evenodd" fill="#fff" d="m4.85-12.15-.9.55-.7.8-1.7-2-2.1-1.1-2.05-.7-3.7-.8-1.85 1.8-3.55 4.35-1.55 2.7-.85-.15q.7-.85 2.45-4.4 1.35-2.7 4.9-5.1l.1.05.05-.1q4.3-1.05 11.45 4.1" transform="translate(16.55 17.65)"/><path fill-rule="evenodd" fill="#f2e4c1" d="m2-10.3-.4 1.35H.3l-.5.45-3 2.9-.15.15.05.6-1.7 1.3-.05.05-5.4-2.6-2.8-.45 1.55-2.7 3.55-4.35 1.85-1.8 3.7.8 2.05.7 2.1 1.1 1.7 2H2.7l-.7.5" transform="translate(16.55 17.65)"/><path fill-rule="evenodd" fill="#b5a179" d="m3.25-10.8 1.2 3.45 1.7 1.7-3.1 2.2L1.5-1.8l6-3.1-.35-1.5.6 2.55-.05.05-9.15 5.85-.3-.5L1.5-.05-1.55 0l-.8.65-2.7-4.15.05-.05 1.7-1.3-.05-.6.15-.15 3-2.9.5-.45h1.3L2-10.3l.7-.5h.55" transform="translate(16.55 17.65)"/><path fill-rule="evenodd" fill="#d4c8a9" d="M4.85-12.15q1.45 2.8 2.3 5.75l-1 .75-1.7-1.7-1.2-3.45.7-.8.9-.55" transform="translate(16.55 17.65)"/><path fill-rule="evenodd" fill="#8f7f5f" d="m6.15-5.65 1-.75.35 1.5-6 3.1 1.55-1.65 3.1-2.2m-8.5 6.3.8-.65L1.5-.05l-3.25 1.6-.6-.9m.9 1.4L7.7-3.8h.05q.35 2.25.15 6.45L.25 5.55l-1.7-3.5" transform="translate(16.55 17.65)"/><path stroke-width=".05" stroke-linejoin="round" stroke-linecap="round" stroke="#968457" fill="none" d="M23.7 11.25q-.85-2.95-2.3-5.75m-2.85 1.85-.4 1.35m-4.95 3.5.05.6m-1.75 1.35 2.7 4.15m.6.9.3.5 1.7 3.5m7.5-9.4-.6-2.55m.6 2.6q.35 2.25.15 6.45l-7.65 2.9M2.85 12.35l-.4-1.4q.7-.85 2.45-4.4 1.35-2.7 4.9-5.1l.15-.05Q14.25.35 21.4 5.5m2.9 8.35v-.05m-12.8.35-5.4-2.6-2.8-.45-.85-.15m9.05 3.2.05-.05m3.25 5.1-.6-.9"/></g><g id="e"><path fill-rule="evenodd" fill="#897c5a" d="M-5.6 5.35q.4.3.45 1.2l.05.85q-.05.45-.45.95-.7.7-1.45.65-.7-.6 1.4-3.65" transform="translate(8.7 .85)"/><path fill-rule="evenodd" fill="#bbae8c" d="m-7 9-.75-.2q-1.15-.55-.9-1.2.8-1.65 1.7-2.05.85-.5 1.3-.25l.05.05Q-7.7 8.4-7 9" transform="translate(8.7 .85)"/><path stroke-width=".05" stroke-linejoin="round" stroke-linecap="round" stroke="#968457" fill="none" d="m1.7 9.85-.75-.2Q-.2 9.1.05 8.45q.8-1.65 1.7-2.05.85-.5 1.3-.25m.05.05q.4.3.45 1.2l.05.85q-.05.45-.45.95-.7.7-1.45.65L3.1 6.2z"/><path fill-rule="evenodd" fill="#897c5a" d="M-3.9 6.85q.4.4.55 1.35l.2 1.15q.05.6-.4 1.25-.85 1.05-1.95 1-.55-1.25 1.6-4.75" transform="translate(8.7 .85)"/><path fill-rule="evenodd" fill="#bbae8c" d="m-5.5 11.6-1-.2q-1.65-.7-1.4-1.55.85-2.3 2-2.9l2-.1q-2.15 3.5-1.6 4.75" transform="translate(8.7 .85)"/><path stroke-width=".05" stroke-linejoin="round" stroke-linecap="round" stroke="#968457" fill="none" d="m3.2 12.45-1-.2Q.55 11.55.8 10.7q.85-2.3 2-2.9l2-.1q.4.4.55 1.35l.2 1.15q.05.6-.4 1.25-.85 1.05-1.95 1z"/><path fill-rule="evenodd" fill="#897c5a" d="M-.15 7.6q.45.35.9 1.25l.55 1.2q.2.6.05 1.4Q.9 12.7-.1 12.95-1 11.8-.15 7.6" transform="translate(8.7 .85)"/><path fill-rule="evenodd" fill="#bbae8c" d="M-.15 7.6q-.85 4.2.05 5.35h-.95q-1.7-.3-1.75-1.25.05-2.55.85-3.5Q-1 7-.15 7.6" transform="translate(8.7 .85)"/><path stroke-width=".05" stroke-linejoin="round" stroke-linecap="round" stroke="#968457" fill="none" d="M8.6 13.8q1-.25 1.45-1.5.15-.8-.05-1.4l-.55-1.2q-.45-.9-.9-1.25m.05 5.35h-.95q-1.7-.3-1.75-1.25.05-2.55.85-3.5.95-1.2 1.8-.6"/><path fill-rule="evenodd" fill="#fff" d="m-5.35 7.85-1-.25q-.55-.9.3-1.8 1.5-1.65 2-2.7Q-2.9 1.6-2.2 1.95q.05-.85.7-1.9l.15-.05.2 1.05.45 1.05-.5-.05L-3.5 4l-1.85 2.9v.95m3.15-5.9 1 .1-1-.1" transform="translate(8.7 .85)"/><path fill-rule="evenodd" fill="#f2e4c1" d="M-1.35 0-.3-.7Q.9 1.15.5 2.2l-1.2-.1 1.2.1 1.15-.25q.85 4.2-1.3 7.6-.95-.7-1.95 0-1.05.7-1.1 1.65l-.9-.35-.2-2q-.75-.7-1.55-1V6.9L-3.5 4l2.3-1.95.5.05-.45-1.05-.2-1.05m.95 8-1.65.1L-.4 8" transform="translate(8.7 .85)"/><path fill-rule="evenodd" fill="#8f7f5f" d="M-.3-.7q1.25-.4 2.2.35l.8 1.8.8.45q1.1 4.2.15 6.3-.1 1.45-.5 2.15l-1.9 1.2q0-1-.9-2 2.15-3.4 1.3-7.6L.5 2.2Q.9 1.15-.3-.7m3 2.15-1.05.5 1.05-.5" transform="translate(8.7 .85)"/><path stroke-width=".05" stroke-linejoin="round" stroke-linecap="round" stroke="#968457" fill="none" d="M7.35.85 8.4.15q1.25-.4 2.2.35l.8 1.8.8.45q1.1 4.2.15 6.3M6.5 2.8q.05-.85.7-1.9l.15-.05M8 2.95l1.2.1 1.15-.25 1.05-.5m-3.9.6-1-.1m1 .1.5.05m4.35 6.1q-.1 1.45-.5 2.15l-1.9 1.2q0-1-.9-2-.95-.7-1.95 0-1.05.7-1.1 1.65M4.9 9.7q-.75-.7-1.55-1l-1-.25q-.55-.9.3-1.8 1.5-1.65 2-2.7Q5.8 2.45 6.5 2.8m.15 6.15 1.65-.1"/></g><g id="f" fill-rule="evenodd"><path fill="#995210" d="m-1.1-.65.05-.2q.7-1.25 1.8-1.5l2.95-.2 1.7-.35q1.1-.35 2.4.3l-.1.85-.15.65-8.65.45" transform="translate(1.7 3)"/><path fill="#68390b" d="m7.55-1.1-.35.7-1.9 1.65q-2.25 1.7-3.55 1.9l-2.1-.1q-1.15 0-1.35-1.9l.45-.95.15-.85 8.65-.45" transform="translate(1.7 3)"/></g><g id="g"><path fill-rule="evenodd" fill="#135b96" d="M1.95 5.9q-1.6.05-1.3-2.6-.65-3.1-1.7 0-1 3.05-.8 5.05.3 2 2.7 1.9 2.45-.15 2.6-2.3.15-2.15-1.5-2.05" transform="translate(5.35 1)"/><path fill-rule="evenodd" fill="#bbae8c" d="M6.3 11.95 6 9.7 4.65 7.85l1.85.1q1.25.75 1.55 1.9.4 1.5-.55 1.9l-1.2.2" transform="translate(5.35 1)"/><path fill-rule="evenodd" fill="#897c5a" d="M6.3 11.95q-1.3-.1-2.15-1.1-.35-.65-.35-.85l.25-1q.2-.8.6-1.15L6 9.7l.3 2.25" transform="translate(5.35 1)"/><path stroke-width=".05" stroke-linejoin="round" stroke-linecap="round" stroke="#968457" fill="none" d="M10 8.85q-.4.35-.6 1.15l-.25 1q0 .2.35.85.85 1 2.15 1.1M10 8.85l1.85.1q1.25.75 1.55 1.9.4 1.5-.55 1.9l-1.2.2"/><path fill-rule="evenodd" fill="#bbae8c" d="M3.15 14.75Q3 11.35 1.85 8.8q1.05-.2 1.9.7.8.9 1.35 2.55T3.95 14.6l-.8.15" transform="translate(5.35 1)"/><path fill-rule="evenodd" fill="#897c5a" d="M3.15 14.75q-2-.2-2.5-.75-.55-.55-.4-1.45l.3-2.05q.15-1.1 1.3-1.7 1.15 2.55 1.3 5.95" transform="translate(5.35 1)"/><path stroke-width=".05" stroke-linejoin="round" stroke-linecap="round" stroke="#968457" fill="none" d="M7.2 9.8q-1.15.6-1.3 1.7l-.3 2.05q-.15.9.4 1.45.5.55 2.5.75M7.2 9.8q1.05-.2 1.9.7.8.9 1.35 2.55T9.3 15.6l-.8.15"/><path fill-rule="evenodd" fill="#bbae8c" d="M-3.55 3.1h-.05.05" transform="translate(5.35 1)"/><path fill-rule="evenodd" fill-opacity=".8" fill="#607982" d="M-.3 5h-.05.05" transform="translate(5.35 1)"/><path fill-rule="evenodd" fill="#fff" d="M2.75.25 4.35 2l.75 3.7.5 1.3q.65.35.95 1.3l-.15.05q-.55.05-.9.5 0-1.05-.85-1.5L4.2 6.8l-.1-.15-.2-.25q.35-1.15-.35-3.9.05-1.05-.8-2.25M5.6 7l-1.4-.2 1.4.2" transform="translate(5.35 1)"/><path fill-rule="evenodd" fill="#f2e4c1" d="m.45 3.05.8.1Q1.05 1.8.35.6L-.8-.85l1.55.1.8.8.6-.3.6.5q.85 1.2.8 2.25.7 2.75.35 3.9l.2.25.1.15.45.55q.85.45.85 1.5-.6.6-.9 2-1.65-.55-2.85.25-1.1.75-1.65 1.35l-.7-.1q-.55-1.95-.15-3.75l-.4-1.7q-.2-1.15.65-1.6l.15-.3h.05l.75-1.95m.8 5.55q-.8.2-2 0 1.2.2 2 0m0-5.45Q3.65 2.4 2.5 1.1L1.55.05 2.5 1.1q1.15 1.3-1.25 2.05" transform="translate(5.35 1)"/><path fill-rule="evenodd" fill="#8f7f5f" d="M-2.6 1.1q-.1-.6.55-1.4L-.8-.85.35.6q.7 1.2.9 2.55l-.8-.1-.95.2q-.55.15-1.1-.5l-.85-1.2-.15-.45.15.45.85 1.2q.55.65 1.1.5l.95-.2L-.3 5h-.05l-.15.3q-.85.45-.65 1.6l.4 1.7q-.4 1.8.15 3.75-3.7-.6-4.1-1.25-.65-1-.55-1.55l.75-1.85.9-4.6.75-2h.25m-1 2h.05-.05m1.15 4.65q.4.6 1.7.85-1.3-.25-1.7-.85" transform="translate(5.35 1)"/><path stroke-width=".05" stroke-linejoin="round" stroke-linecap="round" stroke="#968457" fill="none" d="M4.55.15 3.3.7q-.65.8-.55 1.4l.15.45.85 1.2q.55.65 1.1.5l.95-.2.8.1M10.95 8q.65.35.95 1.3l-.15.05q-.55.05-.9.5-.6.6-.9 2-1.65-.55-2.85.25-1.1.75-1.65 1.35M4.6 9.6q-1.3-.25-1.7-.85m1.7.85q1.2.2 2 0m2.85-1.95.1.15 1.4.2"/><path stroke-width=".05" stroke-linejoin="round" stroke-linecap="round" stroke="#968457" fill="none" d="m4.55.15 1.55.1.8.8.95 1.05Q9 3.4 6.6 4.15m.9-3.4.6.5L9.7 3l.75 3.7.5 1.3m-.1 1.85.4.7M1.75 4.1l.75-2m-.7 2h-.05l-.9 4.6-.75 1.85q-.1.55.55 1.55.4.65 4.1 1.25m.7.1-.7-.1"/><path fill-rule="evenodd" fill="#bbae8c" d="M-2.7 14.4h-1q-1.65-.3-1.65-1.15.25-2.2 1.1-3 .55-.55 1.35-.35l.1.05q.35 1.05.05 2.85-.3 1.45.05 1.6" transform="translate(5.35 1)"/><path fill-rule="evenodd" fill="#897c5a" d="M-2.8 9.95q.85.2 1.15.9l.5 1.05q.15.5-.1 1.2-.5 1.1-1.45 1.3-.35-.15-.05-1.6.3-1.8-.05-2.85" transform="translate(5.35 1)"/><path stroke-width=".05" stroke-linejoin="round" stroke-linecap="round" stroke="#968457" fill="none" d="M2.55 10.95q.85.2 1.15.9l.5 1.05q.15.5-.1 1.2-.5 1.1-1.45 1.3h-1Q0 15.1 0 14.25q.25-2.2 1.1-3 .55-.55 1.35-.35"/></g><g id="h"><path stroke-width=".05" stroke-linejoin="round" stroke-linecap="round" stroke="#68390b" fill="none" d="M1.45 3.25Q4-.25 6.55 0q2.1.2 3 2.45"/><path fill-rule="evenodd" fill="#e98727" d="m-7.25 2.85-.9.6-.9-.15q-.35-.3-.35-.8 0-.55.35-1 .35-.45.9-.55l.9.1q.35.3.35.85 0 .5-.35.95" transform="translate(9.4 1.7)"/><path stroke-width=".05" stroke-linejoin="round" stroke-linecap="round" stroke="#ffb945" fill="none" d="m2.15 4.55-.9.6L.35 5Q0 4.7 0 4.2q0-.55.35-1 .35-.45.9-.55l.9.1q.35.3.35.85 0 .5-.35.95z"/></g><g id="i"><path fill-rule="evenodd" fill="#ba8e48" d="m-14.95-16.7 3.1 3.7 4.15 4.15-4.8-1.8 4.8 1.8-4.15-4.15-3.1-3.7M.3.4q-2.75-2.8-6.65-4.55-4.2-1.95-6.1-3.65-3.4-3-4.05-5-.6-1.8-.2-6.75l3.75 2.45 6.05 5.15Q-4.55-8.9.3.4m-13.05 4.35L-9.5 3.1q2.6-.1 5.25.65Q-6.9 3-9.5 3.1l-3.25 1.65m5.05-13.6Q-5-6.55-3-3.55q-2-3-4.7-5.3M-.4 4.3q-2.9-.15-5.75 1-3.05 1.2-4.9 1.25-3.35.05-4.8-.8-1.3-.8-3.95-4.15l3.1-.6 5.8-.3q2.85.55 10.5 3.6m-13.4-1.35L-16.7 1l2.9 1.95 4.3.15-4.3-.15-3.6-.55 3.6.55" transform="translate(19.8 19.55)"/><path stroke-width=".05" stroke-opacity=".502" stroke-linejoin="round" stroke-linecap="round" stroke="#634727" fill="none" d="M12.9 7.6 6.85 2.45 3.1 0q-.4 4.95.2 6.75.65 2 4.05 5 1.9 1.7 6.1 3.65 3.9 1.75 6.65 4.55m-.7 3.9q-2.9-.15-5.75 1-3.05 1.2-4.9 1.25-3.35.05-4.8-.8-1.3-.8-3.95-4.15l3.1-.6 5.8-.3"/><path stroke-width=".05" stroke-opacity=".502" stroke-linejoin="round" stroke-linecap="round" stroke="#634727" fill="none" d="m7.3 8.9 4.8 1.8-4.15-4.15-3.1-3.7M16.8 16q-2-3-4.7-5.3m3.45 12.6q-2.65-.75-5.25-.65L7.05 24.3m3.25-1.65L6 22.5l-3.6-.55m.7-1.4L6 22.5"/></g><path stroke-width="6" stroke-linejoin="round" stroke-linecap="round" stroke="#4d3220" fill="none" d="M158.4 23.1q.3-10.4 1.25-20.1 11.45 15.5 14.25 23.35 3.1 8.9 3.55 29.3.25 11.4-3.1 30.75l-.75 5.05q4.25.4 7.95 1.75l.6.2q5.1 4.35 9.05 8.75 5.65-10.95 9-15.5 11.75-10.8 23.4-14.9-.5 19.15-2.3 25.05-2.1 6.5-10.3 13.05-3.75 3.05-10.95 4.5 1.7 3.15 2.85 6.25 6.45 18.1 9.35 22.65l-2.15 5.1.4 1.35q4.85 16.95 6.9 26.45l2.6 7.75q-.45 2.35-1.6 4.5l-.05 2.25h1.8l8.95 7.75q-.5 2.9 5.35 13.3 4.1 8.2 5.2 8.85 3.75 3.1 3.8 5.75 1.45.4 2.95 1.15 5.6 6 5.7 14.05-.65 2.65-3.85 3.6-3.15.8-8.65 0 .65 2.7.75 5.6-.55 2.85-3.6 3.5-5.7.95-20.25-6l-4.7 1.25-.15-.05.05.3q-.15 3.3-7.3 3.9l-4.2-.4q-4.3-1.05-6.3-5.45-1-2.85-.25-4.95l1.8-3.15-2.4-6.4q-2.1-4.55-.1-15.6-9.5 2.1-19.05.8-4.7-.35-17-.35-4.65-.1-15-3.4-1.7 1.8-2.1 3.8 1.8 3.6 1.95 6.65 3.45-1.7 8.95 5.45 2.1 4.5 7.75 10.9l.15-.15q2.1-1.1 6.15 1.1 4.3 2.1 8.35 10.05 1.1 3.1-4.5 5.8l-1.1.45 1.95 4.5q1.1 4.25-6.9 7.5-2.5 1-4.7 1.1-5.25.15-9.2-4.45l-.1.85-4 1.45.1 2.5q-.35 4.7-8.45 6.2l-4.6-.15q-4.8-1.05-6.8-6.95l-8.8-5.5q-2.15-3.5-2.55-10.5-4.55-10 .85-30.4l3.85-2.3 3.9-8.6q-.05-2.8-.8-6.35l-.1-.6-2.55-1q-5.75-3.1-30.85-15.75l-6.85-5-7-1.25 2.75 14.5 3.6 8.95q.45 2.45-2.25 6.9 2.05 4.05 2.9 11-.05 4.05-8 5.45-2.7.4-4.85 0-4.75-1-7.15-6.2-.75-2.2-.7-4.05l-2.45.45-3.35.45-.8-.85.15 1.25q.6 4.35-1.9 7.1-2.5 2.8-12.25 3.65l-3.85-.7q-8.15-4.3-5.55-12.35l.95-2.65q-3 1.85-6.8 2.15-3.4 0-5.8-.95-4.6-1.95-2.65-9.2 1.45-5.6 7.5-9.2l.65-.4q1.35-2.9 3.85-4.2 2-3.8 2.3-6.3 2.4-16.2 3.6-17.9 3.35-4.8 7.75-8.6l2.9-2.3 2.9 1.35 2.4-2.45-.3-1.25.45-7.45q-3.15-.85-5.6-2.05-7.4-3.8-25.25-20.1 6.7-1.9 14.2-3 12.7-1.8 27.7-1.35 3 .55 7.15 1.6l.3-1.8 18.55-18.4q-5.45-2.7-11.15-5Q52.5 90.8 40.9 82.6 20.15 68.1 13.8 58.4 8.3 49.7 3 25.6 13.7 31 24.65 37.5q18.15 10.9 37 25 11.6 10.75 34.55 37.65l14.75-7.7q24.6-14.9 39.6-9l13.85 4.9q-4.45-19.7-5.8-29.8-.9-18.7-.2-35.45m-65.25 88.2-.15.55.35-.8-.2.25m-26.4 42.55-3.9-1.85 3.75.1.15 1.75" id="l"/><path fill-rule="evenodd" fill-opacity="0" fill="#f0f" d="M0 0h102.95v45H0V0" id="j"/></defs><path fill="none" d="M-1-1h210v231H-1z"/><use x="110.05" y="221.5" xlink:href="#k" width="381" transform="translate(-192.55 -294)" height="381"/><use xlink:href="#l" width="255.1" transform="matrix(.8 0 0 .8 1.48 1.32)" height="281.55"/><use x="44.482" y="57.206" xlink:href="#m" width="18.2" transform="matrix(3.872 0 -1.087 3.872 19.131 -217.777)" height="24.8"/><use x="20.908" y="16.443" xlink:href="#n" width="7" transform="matrix(-.8738 -3.7693 -3.8758 .4141 261.642 229.794)" height="7"/><use x="-28.422" y="57.206" xlink:href="#o" width="12.4" transform="matrix(-3.872 0 0 3.872 93.077 -68.049)" height="13.25"/><use x="23.168" y="-16.067" xlink:href="#p" width="32.5" transform="matrix(-3.8453 -.4411 -.4411 3.8453 267.526 146.88)" height="27.65"/><use x="-18.424" y="68.314" xlink:href="#n" width="7" transform="matrix(-3.872 0 .5667 3.2424 10.711 -66.056)" height="7"/><use x="-28.422" y="57.206" xlink:href="#q" width="12.8" transform="matrix(-3.872 0 0 3.872 29.986 -50.891)" height="13.85"/><use x="-40.43" y="49.513" xlink:href="#r" width="9.5" transform="matrix(-3.7729 -.8581 -.8581 3.7729 -32.512 -93.26)" height="6.15"/><use x="-28.422" y="57.206" xlink:href="#s" width="13.5" transform="matrix(-3.872 0 0 3.872 -43.985 -95.072)" height="15.75"/><use x="19.982" y="-19.995" xlink:href="#t" width="9.55" transform="matrix(-3.8521 .2514 .2514 3.8521 273.882 191.588)" height="5.2"/><use x="33.741" y="-11.955" xlink:href="#t" width="9.55" transform="matrix(-2.4303 -.762 0 3.872 242.745 210.28)" height="5.2"/><use x="11.011" y="57.206" xlink:href="#u" width="20.1" transform="matrix(3.872 0 1.1785 3.872 -118.154 -199.597)" height="26.1"/><use x="53.822" y="118.38" xlink:href="#v" width="102.95" transform="matrix(2.0447 0 0 1.8711 -111.95 -94)" height="45"/></svg>