<svg width="81" height="201" xmlns="http://www.w3.org/2000/svg" xmlns:xlink="http://www.w3.org/1999/xlink"><defs><use xlink:href="#a" width="13.95" height="36.25" id="d"/><use xlink:href="#b" width="102.95" height="45" id="e"/><g id="c" stroke-opacity="0" stroke-linejoin="round" stroke-linecap="round" stroke="#f0f" fill="none"><path d="M187.95-293.5v380h-380v-380h380M92.95.6H-97" transform="translate(192.55 294)"/><path d="m187.95-293.5-190 190 190 190m-380-380 190 190L-192 86.5" transform="translate(192.55 294)"/></g><g id="a"><path fill-rule="evenodd" fill-opacity=".8" fill="#afe1ed" d="m1.05-10.15 3.8-2.35Q4.55-2.6.2.15H-.9L-1.95 0Q-3.5-.35-3.8-.65q-3.55-2.1-4.7-6.15l.5-.15 4.85-1.45 1.25.9-3.7-21.55-1.55.45q-1.2.15-1.35 0l-.6-5.8 6.65-1.7q2.1 5 1.75 5.35l-2.65 1L.1-8.1q.8-.95.95-2.05M-.65-7.3l-.05-.05v.05h.05M-2.9-31.9l-.7-2.35-3.1.8.2 2.7 3.6-1.15M-.9.15q-2-.7-4.1-2.4-2.1-1.8-3-4.7.9 2.9 3 4.7Q-2.9-.55-.9.15" transform="translate(9.1 36.1)"/><path stroke-width=".05" stroke-opacity=".812" stroke-linejoin="round" stroke-linecap="round" stroke="#dee8e9" fill="none" d="m10.15 25.95 3.8-2.35M.6 29.3l.5-.15 4.85-1.45m1.25.9L3.5 7.05l-1.55.45q-1.2.15-1.35 0L0 1.7 6.65 0"/><path stroke-width=".05" stroke-opacity=".812" stroke-linejoin="round" stroke-linecap="round" stroke="#dee8e9" fill="none" d="M13.95 23.6q-.3 9.9-4.65 12.65H8.2l-1.05-.15q-1.55-.35-1.85-.65-3.55-2.1-4.7-6.15m5.35-1.6 1.25.9M6.65 0q2.1 5 1.75 5.35l-2.65 1L9.2 28q.8-.95.95-2.05m-9.05 3.2q.9 2.9 3 4.7 2.1 1.7 4.1 2.4"/></g><path fill-rule="evenodd" fill-opacity="0" fill="#f0f" d="M0 0h102.95v45H0V0" id="b"/></defs><path fill="none" d="M-1-1h83v203H-1z"/><use x="36.05" y="184.5" xlink:href="#c" width="381" transform="translate(-192.55 -294)" height="381"/><use x="3.318" y="36.301" xlink:href="#d" width="13.95" transform="matrix(4.1436 3.1139 .6144 4.7979 -35.135 -190.89)" height="36.25"/><use x="17.631" y="98.605" xlink:href="#e" width="102.95" transform="matrix(2.0447 0 0 1.8711 -111.95 -124)" height="45"/><use x="17.631" y="98.605" xlink:href="#e" width="102.95" transform="matrix(2.0447 0 0 1.8711 -111.95 -194)" height="45"/></svg>