<svg width="182" height="146" xmlns="http://www.w3.org/2000/svg" xmlns:xlink="http://www.w3.org/1999/xlink"><defs><use xlink:href="#a" width="102.95" height="45" id="k"/><use xlink:href="#b" width="14.7" height="4.25" id="f"/><use xlink:href="#c" width="5.2" height="10.65" id="g"/><use xlink:href="#d" width="6.45" height="10" id="h"/><use xlink:href="#e" width="13.7" height="14.65" id="i"/><g id="j" stroke-opacity="0" stroke-linejoin="round" stroke-linecap="round" stroke="#f0f" fill="none"><path d="M187.95-293.5v380h-380v-380h380M92.95.6H-97" transform="translate(192.55 294)"/><path d="m187.95-293.5-190 190 190 190m-380-380 190 190L-192 86.5" transform="translate(192.55 294)"/></g><g transform="translate(11.3 12.4)" id="l"><use xlink:href="#f" width="14.7" transform="matrix(.8 0 0 .8 -5.4 -1.8)" height="4.25"/><use xlink:href="#g" width="5.2" transform="translate(2.75 -12.4)" height="10.65"/><use xlink:href="#h" width="6.45" transform="translate(-11.3 -9.5)" height="10"/><use xlink:href="#i" width="13.7" transform="translate(-7 -11.85)" height="14.65"/></g><g id="c"><path fill-rule="evenodd" fill-opacity=".8" fill="#afe1ed" d="M1.45-.65.25-.8l-.9.6L-.1.95.7.1l.75-.75m1.7 5.6.7 2.55H3.8l-.6.85-2 .3-1-.45-.3 1.45 3.75.2.9-1.15-.1-1.2q-.8-1.3-1.3-2.55" transform="translate(.65 .8)"/><path fill-rule="evenodd" fill-opacity=".502" fill="#144d57" d="M1.45-.65.7.1l.5 2q.3 1.5.75 2.9L3.8 7.5h.05l-.7-2.55Q2.7 3.8 2.6 2.75 2.3.6 1.45-.65" transform="translate(.65 .8)"/><path stroke-width=".05" stroke-opacity=".502" stroke-linejoin="round" stroke-linecap="round" stroke="#144d57" fill="none" d="M0 .6.9 0l1.2.15-.75.75-.8.85M2.1.15q.85 1.25 1.15 3.4.1 1.05.55 2.2Q4.3 7 5.1 8.3l.1 1.2-.9 1.15-3.75-.2m3.9-2.15L2.6 5.8q-.45-1.4-.75-2.9l-.5-2M.85 9l1 .45 2-.3.6-.85"/></g><g id="d"><path fill-rule="evenodd" fill-opacity=".8" fill="#afe1ed" d="m-.8-.15-.9-.7L-.25-1q.6.3 1.15.55L.2.65l-1-.8M-3.85 4.4l-.85 2.4h.05l.75.8 2.45.25 1.3-.4L.2 8.8l-4.65.2-1.1-1.1.1-1.1 1.6-2.4" transform="translate(5.55 1)"/><path fill-rule="evenodd" fill-opacity=".502" fill="#144d57" d="m-1.7-.85.9.7-.6 1.85-.95 2.75-2.3 2.35h-.05l.85-2.4.7-2.05Q-2.8.3-1.7-.85" transform="translate(5.55 1)"/><path stroke-width=".05" stroke-opacity=".502" stroke-linejoin="round" stroke-linecap="round" stroke="#144d57" fill="none" d="m3.85.15.9.7 1 .8m.7-1.1Q5.9.3 5.3 0L3.85.15Q2.75 1.3 2.4 3.35L1.7 5.4.1 7.8 0 8.9 1.1 10l4.65-.2M.9 7.8l2.3-2.35.95-2.75.6-1.85m.65 7.6-1.3.4-2.45-.25-.75-.8"/></g><g id="e"><path fill-rule="evenodd" fill-opacity=".8" fill="#e8f3fa" d="M4.8-9.6Q2.7-6.85-2.75-7.1-5.45-9.05-6-8.75q.6-.55 3.3-.7l2.9-.6 2.15-.75L4.8-9.6" transform="translate(7.1 10.8)"/><path fill-rule="evenodd" fill-opacity=".8" fill="#afe1ed" d="m-6.1-8.65.1-.1q.55-.3 3.25 1.65 5.45.25 7.55-2.5.75.2 1.35 1.55.65 1.55.35 3.35-.9 1.2-3.45 2.35l-6.1.3 6.1-.3Q5.6-3.5 6.5-4.7q-.3 1.75 0 3.4.2 1.2-.2 1.9-1.1 2.05-9.25 3.25 1.05-2-.1-5.9-1.55-.3-3.25-5.75l.2-.85m9.95 3.2.8-1-1.4.95-4.8-.25-2.95-1 2.1 1.9 6.25-.6" transform="translate(7.1 10.8)"/><path fill-rule="evenodd" fill-opacity=".8" fill="#607982" d="M-6.3-7.8q1.7 5.45 3.25 5.75 1.15 3.9.1 5.9Q-4.7 3.6-6.8.95q-.5-2.75-.2-5.6l.7-3.15" transform="translate(7.1 10.8)"/><path fill-rule="evenodd" fill-opacity=".8" fill="#3fbfd1" d="m3.85-5.45-6.25.6-2.1-1.9 2.95 1 4.8.25 1.4-.95-.8 1" transform="translate(7.1 10.8)"/><path stroke-width=".05" stroke-opacity=".502" stroke-linejoin="round" stroke-linecap="round" stroke="#1c1c1c" fill="none" d="m1.1 2.05-.1.1m3.05 6.6 6.1-.3Q12.7 7.3 13.6 6.1q.3-1.8-.35-3.35-.6-1.35-1.35-1.55m-10.8.85q.6-.55 3.3-.7l2.9-.6L9.45 0l2.45 1.2M4.15 14.65q8.15-1.2 9.25-3.25.4-.7.2-1.9-.3-1.65 0-3.4M1 2.15.8 3m3.35 11.65Q2.4 14.4.3 11.75-.2 9 .1 6.15L.8 3"/><path stroke-width=".05" stroke-opacity=".502" stroke-linejoin="round" stroke-linecap="round" stroke="#155057" fill="none" d="M.8 3q1.7 5.45 3.25 5.75"/><path fill-rule="evenodd" fill-opacity=".8" fill="#e8f3fa" d="m4.15-3.95.8.45-4 1-.8-.55 4-.9" transform="translate(7.1 10.8)"/><path fill-rule="evenodd" fill-opacity=".8" fill="#afe1ed" d="M4.95-3.5 5.1-1 1.3.05.95-2.5l4-1" transform="translate(7.1 10.8)"/><path fill-rule="evenodd" fill-opacity=".8" fill="#607982" d="M1.3.05.45-.6l-.3-2.45.8.55L1.3.05" transform="translate(7.1 10.8)"/><path stroke-width=".05" stroke-opacity=".8" stroke-linejoin="round" stroke-linecap="round" stroke="#c8e8f2" fill="none" d="m11.25 6.85.8.45M8.4 10.85l-.85-.65"/><path stroke-width=".05" stroke-opacity=".502" stroke-linejoin="round" stroke-linecap="round" stroke="#144d57" fill="none" d="m12.05 7.3.15 2.5-3.8 1.05"/></g><path fill-rule="evenodd" fill-opacity="0" fill="#f0f" d="M0 0h102.95v45H0V0" id="a"/><path fill-rule="evenodd" fill="#382c16" d="M5.75-1.9q2.15.45 2.2 1.35Q8 .3 5.9 1q-2.15.75-5.2.95l-5.25-.3q-2.2-.5-2.2-1.35-.05-.85 2.05-1.6 2.15-.75 5.2-.9l5.25.3" transform="translate(6.75 2.25)" id="b"/></defs><path fill="none" d="M-1-1h184v148H-1z"/><use x="100.05" y="179.5" xlink:href="#j" width="381" transform="translate(-192.55 -294)" height="381"/><use x="48.931" y="95.933" xlink:href="#k" width="102.95" transform="matrix(2.0447 0 0 1.8711 -111.95 -124)" height="45"/><use x="10.932" y="19.568" xlink:href="#l" width="19.25" transform="matrix(9.1519 0 0 9.1733 -97.767 -176.549)" height="15.2"/><use x="48.931" y="95.933" xlink:href="#k" width="102.95" transform="matrix(2.0447 0 0 1.8711 -111.95 -144)" height="45"/></svg>