<svg width="61" height="104" xmlns="http://www.w3.org/2000/svg" xmlns:xlink="http://www.w3.org/1999/xlink"><defs><g id="d" stroke-opacity="0" stroke-linejoin="round" stroke-linecap="round" stroke="#f0f" fill="none"><path d="M187.95-293.5v380h-380v-380h380M92.95.6H-97" transform="translate(192.55 294)"/><path d="m187.95-293.5-190 190 190 190m-380-380 190 190L-192 86.5" transform="translate(192.55 294)"/></g><g id="e"><use xlink:href="#a" width="8.35" height="14.25"/><use xlink:href="#a" width="8.35" height="14.25"/></g><g id="b"><path fill-rule="evenodd" fill="#607782" d="M.65-1.6q.45-.9.2-2.15Q.65-5-.1-5.85q-.7-.9-1.45-.9t-1.15.9q-.35.85-.15 2.1.25 1.25.9 2.15.75.85 1.5.85t1.1-.85" transform="translate(5 12.85)"/><path fill-rule="evenodd" fill-opacity=".8" fill="#607982" d="m-3.65-12.1.45 1.7q-.2 3.05-.85 5.5-.4 2.15.4 3.4l1.1 2.05-1.3-1.25q-1.35-1.65-1.1-2.75-.2-.65.75-4.25.8-3.05.55-4.4" transform="translate(5 12.85)"/><path fill-rule="evenodd" fill-opacity=".753" fill="#afdfed" d="m-3.75-12.4-.05-.15-.05-.25q.1-.2 1.5.75Q-.6-10.8-.05-9.5L2.5-5.4Q3.85-2.9 3-.6.95 1.7-.8 1.35l-1.55-.7-.2-.1-1.1-2.05q-.8-1.25-.4-3.4.65-2.45.85-5.5l-.45-1.7-.1-.3" transform="translate(5 12.85)"/><path stroke-width=".05" stroke-opacity=".6" stroke-linejoin="round" stroke-linecap="round" stroke="#3b5d78" fill="none" d="m2.65 13.5 1.55.7q1.75.35 3.8-1.95.85-2.3-.5-4.8l-2.55-4.1Q4.4 2.05 2.65.8q-1.4-.95-1.5-.75L1.2.3l.05.15m.1.3Q1.6 2.1.8 5.15-.15 8.75.05 9.4q-.25 1.1 1.1 2.75l1.3 1.25"/><path fill-rule="evenodd" fill-opacity=".702" fill="#d2e9f4" d="m-.2-.35-1.15.05-1.05-.85q-.25-.35.1-1.55.35-1.2.8-1.25.8-.15 1.25 1.35.5 1.75.05 2.25" transform="translate(5 12.85)"/><path stroke-width=".05" stroke-opacity=".6" stroke-linejoin="round" stroke-linecap="round" stroke="#3a5b78" fill="none" d="M4.8 12.5q.45-.5-.05-2.25Q4.3 8.75 3.5 8.9q-.45.05-.8 1.25-.35 1.2-.1 1.55l1.05.85 1.15-.05z"/><path fill-rule="evenodd" fill="#fff" d="M-1.05-3h.4l.2.4q.1.25.05.5t-.25.4L-1-1.75l-.25-.35v-.55l.2-.35" transform="translate(5 12.85)"/><path fill-rule="evenodd" fill-opacity=".8" fill="#e8f3fa" d="M-1.05-9.25q0 .45-.2.45L-2-9.25l-.55-1.05-.3-1.1.3-.45.65.45q.4.45.65 1.1.3.6.2 1.05m2.6 3.35q.65.7.85 2.4.25 1.7-.5.5L.65-4.65Q0-5.2-.3-5.85q-.3-.7-.2-1.35.05-.75.45-.8.35-.15.6.6.2.8 1 1.5" transform="translate(5 12.85)"/><path fill-rule="evenodd" fill-opacity=".702" fill="#d2e9f4" d="M2.8-1.45q-.2.5-.6.5-.45 0-.85-.4-.15-.2-.15-1.4 0-1.3.3-1.5.4-.4.95.8.55 1.4.35 2" transform="translate(5 12.85)"/><path stroke-width=".05" stroke-opacity=".6" stroke-linejoin="round" stroke-linecap="round" stroke="#3a5978" fill="none" d="M7.8 11.4q.2-.6-.35-2-.55-1.2-.95-.8-.3.2-.3 1.5 0 1.2.15 1.4.4.4.85.4.4 0 .6-.5z"/><path fill-rule="evenodd" fill="#fff" d="M1.85-3.55q0-.2.2 0l.2.25.05.55-.05.4h-.2l-.25-.4v-.45q-.05-.25.05-.35" transform="translate(5 12.85)"/></g><use xlink:href="#b" width="8.35" height="14.25" id="a"/><use xlink:href="#c" width="102.95" height="45" id="f"/><path fill-rule="evenodd" fill-opacity="0" fill="#f0f" d="M0 0h102.95v45H0V0" id="c"/></defs><path fill="none" d="M-1-1h63v106H-1z"/><use x="33.336" y="164.786" xlink:href="#d" width="381" transform="translate(-192.55 -294)" height="381"/><use x="6.46" y="23.295" xlink:href="#e" width="8.35" transform="matrix(7.0738 0 -.5305 7.0738 -26.52 -162.884)" height="14.25"/><use x="16.303" y="88.069" xlink:href="#f" width="102.95" transform="matrix(2.0447 0 0 1.8711 -108.95 -152)" height="45"/></svg>