<svg width="110" height="97" xmlns="http://www.w3.org/2000/svg" xmlns:xlink="http://www.w3.org/1999/xlink"><defs><use xlink:href="#a" width="12.1" transform="translate(-.012 .024) scale(1.4283)" height="10.6" id="e"/><use xlink:href="#b" width="12.1" height="10.6" id="a"/><use xlink:href="#c" width="102.95" height="45" id="f"/><g id="d" stroke-opacity="0" stroke-linejoin="round" stroke-linecap="round" stroke="#f0f" fill="none"><path d="M187.95-293.5v380h-380v-380h380M92.95.6H-97" transform="translate(192.55 294)"/><path d="m187.95-293.5-190 190 190 190m-380-380 190 190L-192 86.5" transform="translate(192.55 294)"/></g><g id="b"><path fill-rule="evenodd" fill="#fff" d="M4.35-5.45q-.65-.5-1.35-.6l-.6-.9q-.95-1.2-2.5-1.2l-.4.05q.55-.8 1.65-.95 1.05-.15 2 .6 1.1.85 1.25 1.7l-.05 1.3M-.7-8.1q-1.15.2-2.05 1.15l-.2.25-1.85.5q-.1-.75.45-1.5.5-.85 1.65-.95 1.2-.1 2 .55" transform="translate(6.45 9.05)"/><path fill-rule="evenodd" fill="#f2e4c1" d="m-.5-8.1.4-.05q1.55 0 2.5 1.2l.6.9q.7.1 1.35.6l.05.05q1 .8 1.2 2.05.15 1.05-.2 1.95Q2.7-.2.65-.35-.3.9-2 1.35l-.85-.5Q-3.8.15-4.1-.95q-.9-.2-1.55-.75-.9-.85-.8-2.05Q-6.4-5-5.4-5.85l.6-.35 1.85-.5.2-.25q.9-.95 2.05-1.15h.2m.9 3.8Q-.7-5.8-1.7-5.6q-1.1.3-1.95 1.5L.4-4.3" transform="translate(6.45 9.05)"/><path fill-rule="evenodd" fill="#e9cf96" d="M-2 1.35Q-.3.9.65-.35 2.7-.2 5.4-1.4l-.3.45Q4.35.15 3.15.3L1.55.1 1.4.3Q.65 1.35-.55 1.5L-2 1.35M.4-4.3l-4.05.2q.85-1.2 1.95-1.5 1-.2 2.1 1.3" transform="translate(6.45 9.05)"/><path stroke-width=".05" stroke-linejoin="round" stroke-linecap="round" stroke="#968457" fill="none" d="m10.8 3.6.05-1.3Q10.7 1.45 9.6.6q-.95-.75-2-.6-1.1.15-1.65.95h-.2m-4.1 1.9-.6.35Q.05 4.05 0 5.3q-.1 1.2.8 2.05.65.55 1.55.75.3 1.1 1.25 1.8l.85.5m7.4-2.75q.35-.9.2-1.95-.2-1.25-1.2-2.05l-.05-.05m1.05 4.05-.3.45Q10.8 9.2 9.6 9.35L8 9.15l-.15.2q-.75 1.05-1.95 1.2l-1.45-.15m-2.8-7.55q-.1-.75.45-1.5Q2.6.5 3.75.4q1.2-.1 2 .55"/><path fill-rule="evenodd" fill="#d4c8a9" d="m1.2-1.5-1.25.25q-.7-.05-1.25-.4-.2-.15.15-1.05t.85-1.05q.9-.25 1.4.7.55 1.05.1 1.55" transform="translate(6.45 9.05)"/><path stroke-width=".05" stroke-linejoin="round" stroke-linecap="round" stroke="#917548" fill="none" d="M7.65 7.55q.45-.5-.1-1.55-.5-.95-1.4-.7-.5.15-.85 1.05T5.15 7.4q.55.35 1.25.4l1.25-.25z"/><path fill-rule="evenodd" fill="#fff" d="M.2-3.2h.3l.3.3-.05.4-.2.25L.2-2.3l-.25-.25L0-2.9l.2-.3" transform="translate(6.45 9.05)"/><path fill-rule="evenodd" fill="#d4c8a9" d="m3.1-2.55 1.05.05q.6-.2 1.05-.65L5.05-4.2q-.3-.85-.7-.8-.75-.2-1.2.9-.5 1.2-.05 1.55" transform="translate(6.45 9.05)"/><path stroke-width=".05" stroke-linejoin="round" stroke-linecap="round" stroke="#917548" fill="none" d="M9.55 6.5q-.45-.35.05-1.55.45-1.1 1.2-.9.4-.05.7.8l.15 1.05q-.45.45-1.05.65L9.55 6.5z"/><path fill-rule="evenodd" fill="#fff" d="m3.95-4.35-.3.1L3.4-4l.1.35q0 .2.2.25l.25-.05.2-.4-.05-.3-.15-.2" transform="translate(6.45 9.05)"/></g><path fill-rule="evenodd" fill-opacity="0" fill="#f0f" d="M0 0h102.95v45H0V0" id="c"/></defs><path fill="none" d="M-1-1h112v99H-1z"/><use x="56.313" y="160.342" xlink:href="#d" width="381" transform="translate(-192.55 -294)" height="381"/><use x="9.047" y="25.759" xlink:href="#e" width="17.25" transform="translate(-54.854 -158.73) scale(6.2246)" height="15.15"/><use x="27.541" y="85.694" xlink:href="#f" width="102.95" transform="matrix(2.0447 0 0 1.8711 -108.95 -152)" height="45"/></svg>