<svg width="237" height="207" xmlns="http://www.w3.org/2000/svg" xmlns:xlink="http://www.w3.org/1999/xlink"><defs><g id="e"><path fill-rule="evenodd" fill="#57583f" d="m-21.05-227.4-6.95-.95q-13.05-5.75 3.75-8.95 12.2-.85 19.75 1.45l.25.1q16.2 4.45-5.9 8.75l-.2.1-10.7-.5m39.8 115.9 4.4-1.2q17.75.35 23.5 12.7l-.25 5.5-.2 4.55-8.15.75q.45-7.9-4.2-12.7-10.55-4.45-9-3.1l-6.8.6-29.05 2.5-1.4.2 1.3-.55q8.9-3.5 16.8-5.65l13.05-3.6M-5.8-231.95q-.05-.9-2.65-1.4l-6.25-.5-6.35.5q-2.6.5-2.6 1.4 0 .75 2.6 1.35l6.35.5 6.25-.5q2.6-.6 2.65-1.35m50.7 135.4-.75-.35-1.1-.35-.1.1-1.8.6q-.8.5-.95 1.35-.45 1.1.15 2.15 1.85 2.65 4.55.95.55-.6.8-1.4l.25-.85q.1-.75-.45-1.35l-.6-.85M31.8-110.8l-1.3.35-.5.25-.6-.25-1.1-.35v.05l-1.9.6q-.8.55-.95 1.4-.35 1.1.15 2.25 1.8 2.55 4.55.85h.1q4.55 3.35 6.85-1.8l-.25-.9-.15-.4-.25-.45-.6-.5Q34-111 31.8-110.8" transform="translate(80.1 237.55)"/><path fill-rule="evenodd" fill="#241f11" d="m-21.05-227.4 10.7.5-3.7.95-26.15 13.7q118.15.2 186.7 58.1-73.6-4.9-127.75 42.65L5.7-107.9q-7.9 2.15-16.8 5.65l-1.3.55 10.3 10.8 13.05 6.85.15.1.2.1 14.85 3.5q11.15-.35 11.9-8.85l8.15-.75.2-4.55 26.25 9.15q-53.05 8.7-99.1 23.95-28.05 9.25-53.65 21.05l12.95-94.3 36.8 10.45q55.95-53.95 120.75-44-53.8-51.35-151.6-37.25l34.2-18.1 5.95-3.85m-5.4 115.15-1.65-3.95-3.75-1.15-2.15-1 2.15 1-7.05-.6q-3.7.2-7.4 1.3l-6.4 2.9 17.15 6.7h.35l11.3.85-.85-2.15.5-.9.2-.7q0-.6-.35-1.05l-.5-.65-.6-.35-.95-.25m-3.6 29.65-.1-.35q-9-9.4-22.9-9.05l-1.3.4-.6.35q-.85.7-1.05 1.8-.15.85.25 1.7.9 1.55 2.7 1.8l10.45 1.5q2 2.1 4.55 3.3 3.5 1.65 6.95.8l.35-.45.6-1.35.1-.45m-8.25-41.75v.05l-1.9.7q-.75.5-.95 1.3-.35 1.1.2 2.2.85 1.3 2.05 1.55 1.1.2 2.5-.65.5-.6.85-1.4l.15-.85q.1-.8-.4-1.4l-.6-.75-.8-.45-1.1-.3m-20.15 44.6-.6.35q-.9.7-1.05 1.7l.1 1.3.15.5q.5.8 1.45 1.05l4.65.85q1.55 1.35 3.25 2.3 3.55 2 6.7-.05l.45-.95.15-.35.15-.55v-.4l-.25-.35Q-48.8-80-57.2-80.2v.1l-1.25.35m27.2-43.75 3.15 7.3-3.15-7.3" transform="translate(80.1 237.55)"/><path fill-rule="evenodd" fill="#83825c" d="m44.9-96.55.6.85q.55.6.45 1.35l-.25.85q-.25.8-.8 1.4-2.7 1.7-4.55-.95-.6-1.05-.15-2.15.15-.85.95-1.35l1.8-.6.1-.1 1.1.35.75.35M-30.05-82.6l-.1.45-.6 1.35-.35.45q-3.45.85-6.95-.8-2.55-1.2-4.55-3.3l-10.45-1.5q-1.8-.25-2.7-1.8-.4-.85-.25-1.7.2-1.1 1.05-1.8l.6-.35 1.3-.4q13.9-.35 22.9 9.05l.1.35m61.85-28.2q2.2-.2 4.05 1.1l.6.5.25.45.15.4.25.9q-2.3 5.15-6.85 1.8h-.1q-2.75 1.7-4.55-.85-.5-1.15-.15-2.25.15-.85.95-1.4l1.9-.6v-.05l1.1.35.6.25.5-.25 1.3-.35m-70.1-13.55 1.1.3.8.45.6.75q.5.6.4 1.4l-.15.85q-.35.8-.85 1.4-1.4.85-2.5.65-1.2-.25-2.05-1.55-.55-1.1-.2-2.2.2-.8.95-1.3l1.9-.7v-.05m-20.15 44.6 1.25-.35v-.1q8.4.2 13.9 5.85l.25.35v.4l-.15.55-.15.35-.45.95q-3.15 2.05-6.7.05-1.7-.95-3.25-2.3l-4.65-.85q-.95-.25-1.45-1.05l-.15-.5-.1-1.3q.15-1 1.05-1.7l.6-.35" transform="translate(80.1 237.55)"/><path fill-rule="evenodd" fill="#fff" d="M100.8-83.6q-.3 0-.55-.25-.65-1.55.85-2.25l.6-.2q3.45 2.75-.9 2.7M3.55-100.2q1.4 1.55 1.4 3.45l.05.25.3.95-.6.5-1.15 2.6-.5.5q-1.8.85-2.4-.95-.25-2.55.6-4.35l.7-1.1q.6-1.05 1.6-1.75v-.1m-31.8-11.3-2.1.25q-.25 0-.5-.25-.7-1.55.85-2.25l.7-.25q1.9 1.55 1.3 2.25v.1l-.25.15M24-100.8q1.8.95 2.3 3.3v.5q-.85 1.2-1.3 2.5v.4l1.8 3.1v.45q-1.55 1.7-3.75.6-.85-2.25-2.65-3.95l.05-3.95.25-.95 2.7-1.7q.25-.3.6-.3m6.75 2.75 1.4 2 .4.5q.45 1.2.2 2.5l-.35.95q-1.3.95-2.85.15-2.75-3.5-.75-6.6l.5-.25.8.35.65.4" transform="translate(80.1 237.55)"/><path fill-rule="evenodd" d="M38.05-89.2q-.75 8.5-11.9 8.85l-14.85-3.5-.2-.1-.15-.1Q6.2-86.8 6.8-90.75q-.85-11.4 11.25-13.65l6.8-.6q-1.55-1.35 9 3.1 4.65 4.8 4.2 12.7M-28-111.75q.6-.7-1.3-2.25l-.7.25q-1.55.7-.85 2.25.25.25.5.25l2.1-.25-.45.85q-.35.85.1 1.8 1.45 2.05 3.7.7l.15-.2.85 2.15-11.3-.85-2.7-3.15q-.75-5.25 6.05-7.15l3.75 1.15 1.65 3.95v.05l-1.55.45m52 10.95q-.35 0-.6.3l-2.7 1.7-.25.95-.05 3.95q1.8 1.7 2.65 3.95 2.2 1.1 3.75-.6V-91L25-94.1v-.4q.45-1.3 1.3-2.5v-.5q-.5-2.35-2.3-3.3m6.75 2.75-.65-.4-.8-.35-.5.25q-2 3.1.75 6.6 1.55.8 2.85-.15l.35-.95q.25-1.3-.2-2.5l-.4-.5-1.4-2m2.5 7.55-1.3.35-4.35 4.2v1.15q-.1 1 .75 1.8 1.05.85 2.35.4l.9-.5q5.6-2.3 3.7-6.8l-.7-.3-1.35-.3" transform="translate(80.1 237.55)"/><path fill-rule="evenodd" fill="#575757" d="m-28.25-111.5.25-.15v-.1l1.55-.45v-.05l.95.25.6.35.5.65q.35.45.35 1.05l-.2.7-.5.9-.15.2q-2.25 1.35-3.7-.7-.45-.95-.1-1.8l.45-.85m61.5 21 1.35.3.7.3q1.9 4.5-3.7 6.8l-.9.5q-1.3.45-2.35-.4-.85-.8-.75-1.8v-1.15l4.35-4.2 1.3-.35" transform="translate(80.1 237.55)"/><path stroke-width=".05" stroke-linejoin="round" stroke-linecap="round" stroke="#630" fill="none" d="m69.75 10.65.2-.1q22.1-4.3 5.9-8.75l-.25-.1Q68.05-.6 55.85.25q-16.8 3.2-3.75 8.95l6.95.95 10.7.5-3.7.95M53.1 14l5.95-3.85M44.55 130.5l-17.15-6.7"/><path stroke-width=".05" stroke-linejoin="round" stroke-linecap="round" stroke="#630" fill="none" d="M66.05 11.6 39.9 25.3q118.15.2 186.7 58.1-73.6-4.9-127.75 42.65l4.4-1.2q17.75.35 23.5 12.7l-.25 5.5 26.25 9.15q-53.05 8.7-99.1 23.95Q25.6 185.4 0 197.2l12.95-94.3 36.8 10.45q55.95-53.95 120.75-44Q116.7 18 18.9 32.1L53.1 14m21.2-8.4q-.05.75-2.65 1.35l-6.25.5-6.35-.5q-2.6-.6-2.6-1.35 0-.9 2.6-1.4l6.35-.5 6.25.5q2.6.5 2.65 1.4m52.2 137.45-.2 4.55-8.15.75q-.75 8.5-11.9 8.85l-14.85-3.5-.2-.1-.15-.1L78 146.65l-10.3-10.8 1.3-.55q8.9-3.5 16.8-5.65l13.05-3.6m-.7 7.1-29.05 2.5-1.4.2M53.65 125.3 52 121.35l-3.75-1.15q-6.8 1.9-6.05 7.15l2.7 3.15 11.3.85-.85-2.15m62.8 19.15q.45-7.9-4.2-12.7-10.55-4.45-9-3.1l-6.8.6q-12.1 2.25-11.25 13.65-.6 3.95 4.15 6.7m-42.8-33.3-2.15-1m-12.3 1.7q3.7-1.1 7.4-1.3l7.05.6m-3.35 10.3h-.35m7.45-9.15-3.15-7.3"/></g><g id="c"><path fill-rule="evenodd" fill="url(#a)" d="m-74-120.7 14.65.75-5.1 1.3-35.7 18.7q161.2.25 254.65 79.15Q54.15-27.45-51.95 36.7q17.95 20.35 38.2-.9 24.2.45 32.05 17.25L18 60.6l35.75 12.45Q-62.5 92.1-154.5 134.4l17.65-128.65L-86.7 20.1q76.3-73.65 164.65-60-73.35-69.9-206.7-50.85l46.6-24.6 8.15-5.35m-43.15 155.1 23.4 9.1 15.9 1.2-5.8-13.7-5.1-1.55q-9.7-2-19.6.95l-8.8 4" transform="translate(154.5 134.4)"/><path fill-rule="evenodd" fill="url(#b)" d="M-56.8-125.05q3.55-.75 3.55-1.85t-3.55-1.85l-8.6-.75-8.6.75q-3.55.75-3.55 1.85t3.55 1.85l8.6.75 8.6-.75m5.35-7.1.35.1q22.15 6.2-8.05 12.05l-.2.05-14.65-.75-9.45-1.3q-17.8-7.75 5.05-12.1 16.7-1.15 26.95 1.95" transform="translate(154.5 134.4)"/><path fill-rule="evenodd" fill-opacity=".208" fill="#b3b3b3" d="m-117.15 34.4 8.8-4q9.9-2.95 19.6-.95l5.1 1.55 5.8 13.7-15.9-1.2-23.4-9.1" transform="translate(154.5 134.4)"/><path stroke-width=".05" stroke-opacity=".208" stroke-linejoin="round" stroke-linecap="round" stroke="#000" fill="none" d="m37.35 168.8 23.4 9.1"/></g><g id="g" stroke-opacity="0" stroke-linejoin="round" stroke-linecap="round" stroke="#f0f" fill="none"><path d="M187.95-293.5v380h-380v-380h380M92.95.6H-97" transform="translate(192.55 294)"/><path d="m187.95-293.5-190 190 190 190m-380-380 190 190L-192 86.5" transform="translate(192.55 294)"/></g><radialGradient spreadMethod="pad" r="819.2" id="a" gradientUnits="userSpaceOnUse" gradientTransform="translate(0 6.85) scale(.2446)" cy="0" cx="0"><stop stop-opacity=".208" offset="0"/><stop stop-opacity=".208" stop-color="#090909" offset=".318"/><stop stop-opacity=".208" stop-color="#fff" offset="1"/></radialGradient><radialGradient spreadMethod="pad" r="819.2" id="b" gradientUnits="userSpaceOnUse" gradientTransform="translate(-66.5 -127.2) scale(.0314)" cy="0" cx="0"><stop stop-opacity=".208" offset="0"/><stop stop-opacity=".208" stop-color="#141414" offset=".016"/><stop stop-opacity=".031" stop-color="#090909" offset=".149"/><stop stop-opacity=".208" stop-color="#fff" offset=".8"/></radialGradient><use xlink:href="#c" width="309" height="268.8" id="f"/><use xlink:href="#d" width="102.95" height="45" id="h"/><path fill-rule="evenodd" fill-opacity="0" fill="#f0f" d="M0 0h102.95v45H0V0" id="d"/></defs><path fill="none" d="M-1-1h239v209H-1z"/><use x="83.05" y="241.5" xlink:href="#e" width="226.6" transform="translate(-80.1 -237.55)" height="197.2"/><use x="113.24" y="329.288" xlink:href="#f" width="309" transform="translate(-75.608 -225.617) scale(.7334)" height="268.8"/><use x="83.05" y="241.5" xlink:href="#g" width="381" transform="translate(-192.55 -294)" height="381"/><use x="-60.314" y="-31.443" xlink:href="#h" width="102.95" transform="matrix(1.8072 0 0 1.6538 89 166.3)" height="45"/></svg>