<svg width="308" height="228" xmlns="http://www.w3.org/2000/svg" xmlns:xlink="http://www.w3.org/1999/xlink"><defs><radialGradient spreadMethod="pad" r="819.2" id="d" gradientUnits="userSpaceOnUse" gradientTransform="translate(13.2 -117.45) scale(.1037)" cy="0" cx="0"><stop stop-color="#6a3621" offset=".004"/><stop stop-color="#935738" offset=".38"/><stop stop-color="#ad6b40" offset="1"/></radialGradient><radialGradient spreadMethod="pad" r="819.2" id="f" gradientUnits="userSpaceOnUse" gradientTransform="translate(72.55 -149.35) scale(.0327)" cy="0" cx="0"><stop stop-color="#6a3621" offset=".004"/><stop stop-color="#935738" offset=".38"/><stop stop-color="#ad6b40" offset="1"/></radialGradient><radialGradient spreadMethod="pad" r="819.2" id="g" gradientUnits="userSpaceOnUse" gradientTransform="matrix(.018 0 0 .018 47.7 -104.55)" cy="0" cx="0"><stop stop-color="#ffd67d" offset="0"/><stop stop-color="#ff9242" offset="1"/></radialGradient><radialGradient spreadMethod="pad" r="819.2" id="h" gradientUnits="userSpaceOnUse" gradientTransform="translate(33 -99.55) scale(.0231)" cy="0" cx="0"><stop stop-color="#fff" offset=".694"/><stop stop-color="#dfdfe8" offset="1"/></radialGradient><radialGradient spreadMethod="pad" r="819.2" id="i" gradientUnits="userSpaceOnUse" gradientTransform="translate(35.25 -77.6) scale(.0181)" cy="0" cx="0"><stop stop-color="#6a3621" offset=".004"/><stop stop-color="#935738" offset=".38"/><stop stop-color="#ad6b40" offset="1"/></radialGradient><radialGradient spreadMethod="pad" r="819.2" id="j" gradientUnits="userSpaceOnUse" gradientTransform="translate(43.45 -67.3) scale(.0226)" cy="0" cx="0"><stop stop-color="#6a3621" offset=".004"/><stop stop-color="#935738" offset=".38"/><stop stop-color="#ad6b40" offset="1"/></radialGradient><radialGradient spreadMethod="pad" r="819.2" id="k" gradientUnits="userSpaceOnUse" gradientTransform="translate(66.5 -75.7) scale(.0259)" cy="0" cx="0"><stop stop-color="#593023" offset="0"/><stop stop-color="#73402e" offset="1"/></radialGradient><radialGradient spreadMethod="pad" r="819.2" id="l" gradientUnits="userSpaceOnUse" gradientTransform="translate(26.75 -69.25) scale(.0723)" cy="0" cx="0"><stop stop-color="#6a3621" offset=".004"/><stop stop-color="#935738" offset=".38"/><stop stop-color="#ad6b40" offset="1"/></radialGradient><radialGradient spreadMethod="pad" r="819.2" id="m" gradientUnits="userSpaceOnUse" gradientTransform="translate(68.1 -64.95) scale(.0375)" cy="0" cx="0"><stop stop-color="#6a3621" offset=".004"/><stop stop-color="#935738" offset=".38"/><stop stop-color="#ad6b40" offset="1"/></radialGradient><radialGradient spreadMethod="pad" r="819.2" id="n" gradientUnits="userSpaceOnUse" gradientTransform="translate(3.85 -143.7) scale(.0703)" cy="0" cx="0"><stop stop-color="#6a3621" offset=".004"/><stop stop-color="#935738" offset=".38"/><stop stop-color="#ad6b40" offset="1"/></radialGradient><radialGradient spreadMethod="pad" r="819.2" id="o" gradientUnits="userSpaceOnUse" gradientTransform="translate(-5.75 -112.5) scale(.0145)" cy="0" cx="0"><stop stop-color="#fff" offset=".694"/><stop stop-color="#dfdfe8" offset="1"/></radialGradient><radialGradient spreadMethod="pad" r="819.2" id="p" gradientUnits="userSpaceOnUse" gradientTransform="translate(3.1 -110.75) scale(.0143)" cy="0" cx="0"><stop stop-color="#ffd67d" offset="0"/><stop stop-color="#ff9242" offset="1"/></radialGradient><radialGradient spreadMethod="pad" r="819.2" id="q" gradientUnits="userSpaceOnUse" gradientTransform="translate(-7.25 -93) scale(.0212)" cy="0" cx="0"><stop stop-color="#6a3621" offset=".004"/><stop stop-color="#935738" offset=".38"/><stop stop-color="#ad6b40" offset="1"/></radialGradient><radialGradient spreadMethod="pad" r="819.2" id="r" gradientUnits="userSpaceOnUse" gradientTransform="translate(11.6 -82.3) scale(.0222)" cy="0" cx="0"><stop stop-color="#6a3621" offset=".004"/><stop stop-color="#935738" offset=".38"/><stop stop-color="#ad6b40" offset="1"/></radialGradient><radialGradient spreadMethod="pad" r="819.2" id="s" gradientUnits="userSpaceOnUse" gradientTransform="translate(-23.5 -104.9) scale(.0486)" cy="0" cx="0"><stop stop-color="#593023" offset="0"/><stop stop-color="#73402e" offset="1"/></radialGradient><radialGradient spreadMethod="pad" r="819.2" id="t" gradientUnits="userSpaceOnUse" gradientTransform="translate(-42.9 -90.05) scale(.0619)" cy="0" cx="0"><stop stop-color="#6a3621" offset=".004"/><stop stop-color="#935738" offset=".38"/><stop stop-color="#ad6b40" offset="1"/></radialGradient><radialGradient spreadMethod="pad" r="819.2" id="u" gradientUnits="userSpaceOnUse" gradientTransform="translate(17.55 -79.45) scale(.0077)" cy="0" cx="0"><stop stop-color="#6a3621" offset=".004"/><stop stop-color="#935738" offset=".38"/><stop stop-color="#ad6b40" offset="1"/></radialGradient><radialGradient spreadMethod="pad" r="819.2" id="a" gradientUnits="userSpaceOnUse" gradientTransform="scale(.0616)" cy="0" cx="0"><stop stop-opacity=".51" stop-color="#f5de63" offset=".02"/><stop stop-opacity="0" stop-color="#f5de63" offset="1"/></radialGradient><path fill-rule="evenodd" fill="url(#a)" d="M35.3-35.25Q49.9-20.65 49.9 0q0 20.7-14.6 35.3Q20.7 49.9 0 49.9q-20.65 0-35.25-14.6Q-49.9 20.7-49.9 0q0-20.65 14.65-35.25Q-20.65-49.9 0-49.9q20.7 0 35.3 14.65" transform="translate(49.9 49.9)" id="b"/><path fill-rule="evenodd" fill-opacity="0" fill="#f0f" d="M0 0h102.95v45H0V0" id="c"/><use xlink:href="#b" width="99.8" height="99.8" id="w"/><use xlink:href="#c" width="102.95" height="45" id="x"/><linearGradient y2=".497" y1=".497" x2="1.001" x1="-.001" spreadMethod="pad" id="e"><stop stop-color="#900" offset=".565"/><stop stop-color="#3e1c17" offset="1"/></linearGradient><g id="v"><path stroke-opacity="0" stroke-linejoin="round" stroke-linecap="round" stroke="#f0f" fill="none" d="M187.95-293.5v380h-380v-380h380M92.95.6H-97" transform="translate(192.55 294)"/><path stroke-opacity="0" stroke-linejoin="round" stroke-linecap="round" stroke="#f0f" fill="none" d="m187.95-293.5-190 190 190 190m-380-380 190 190L-192 86.5" transform="translate(192.55 294)"/><path fill-rule="evenodd" fill="#e3b277" d="m84.8-213.75 4.15-1.85 12 6.65-6.3.95 6.3-.95-7.15 11.1 3.05 3.75h3.8l1.75 10.65-3.9 4.15v2.6h2.4l4.85-2.85h3.05l3.7.85 1.9 2.95-1.3 1.25-4.65-2.2h-5.1l2.05 1.55v2.65l-2.05-2.85H98.5v1.3l1.05.85-6.45 3.4h-1.75l-2.65-.4-9.75 9.55-3.6-.2-10.4-.55-1.3-.05-1.3-2.45 1.3 2.45 1.3.05-5.65 8.6-.65-3.5 1.75-3.55 1.95-4.05h13l7.5-6.8 2.2-1.95h6.2l3.85-2.15.35-2.05.6-3.4 2.85-3.7-2.05-10.15-1.95 3.6-6.25-4.75 6-12.75-9.85-5.75M79.35-209l-3.8 2.45 3.8-2.45v2.9l-5.95 9.75-4.85 7.8 3.85-8.75 3.15-7.25v-2l-19.1-5.2 1.35-1.2 1.15-1.6-1.15 1.6-8.6-3.15 1.65-7.2 3.6-3.9-3.6 3.9-16.2-4.95-.85-3.05.85 3.05-3.85 12.9-1.1-.95 1.1.95-2.95.8-2.95-1.85 4.8.1 4.1-15 20.65 4.1-3.2 9.65 6.95 2.85.75.15 1.15-1.6L79.35-209m14.45 11.15-5.15 2.6 5.15-2.6m8.6 14.4-3.5-.5 3.5.5m-51.15-34.1-2.05 1.45 2.05-1.45m24.1 53.65 3.6 3.25-3.6-3.25m-49.95-7.8 4.55 2.3-1.2 5.9-1.4 6.75-4.25 7.4 1.45-16.9-3.3-4.1 1.55-9.15 5.5-2.45-5.5 2.45-6.5-3.15 2.9-2.4 7.05 2.35 2.05.75-4.5 9.4 1.6.85m25.05 13.65 8.2 1.75.65 3.5-3-.55-11-1.95-6.65 6.45-.35.3-2.65-.9-.95-8.3-4.65-3.55 3.3-1.4 4.85 2.35-3.5 2.6 3.5-2.6-.95 8.6h1.4l5.5-7.7 6.3 1.4m-14.8 8.6 1.6-2.3-1.6 2.3m3-2.3-.35 3.2.35-3.2m5.5-7.7 1.15 4.15-1.15-4.15m-.4 13.95-1.55 3.2q-1.8 3.85-.85 8.35l-4.3-.7q4.1-4.2 3-9.85l.15-.15q2.65-1.3 1.85-1.3l1.15-.1q.6.1.55.55m18.5-7.65-.15.3q-2.65 4.4-2.5 9.35l-2.3 2.15-.1.4q-1.55 1.2-2.35 2.9-.55 1.05-.1 1.8.55 0 .2.35-3.35 2.85-4.75 6.8-.05-.85.2-1.6 1.45-5 3.2-9.4l.6-.1 2.25-1.6q1.2-1.6 1.4-3.55.4-4.75 4.4-7.8l.8-1.2.55.3-1.35.9M98.5-176.7v1.35-1.35m0 2.65-1.95-1.6-1.45.85 1.45-.85 1.95 1.6m2.4-2.65h2.45-2.45m-9.65 4.05 1.85 2.85-1.85-2.85m7.25-6.65-2.45-.95 2.45.95m-51.25 56.65h4.5l1.65 2.55-8.8 1.25-12.55 5.55-4.65.65-.5-1.25 2.5-2.25 4.75-.8 6.05-4.25.9.5 6.15-1.95m-12.4-11.2.65.6q1.65 4.9-1.55 9.1-2.1 2.65-5.05 3l1.5-1.1q2.6-2.25 3.35-5.5.7-3.25.6-6.6l.5.5m-3.8 43.45-5.35-3.35h-.05l-.1.05.15.2-.2-.15.05-.05-.05-.2.2.15 3.55.25 2.25 1.3q1.95 1.7 3.2 4v.8l.2.2v.9l-2.05 3.8v-.15l.5-4.15q.1-1.05-.45-1.85l-1.85-1.75M45.3-85l.4 1.2h-4.25l-1.9-2.4 1.9 2.4-3.85 9.3-5.5.7 1.2-3.15h2.6l3.65-9.25h5.35l.4 1.2m-16.35 4.65 1.5.25 1.55.25 1.3 1.65-11.9-1.7-2.25 3.45-3.6-.8v-2l2.75.65 2.15-3.3 2.85.5 2.8.5 2.85.55m-13.4.1-1.75-.65 1.5-.9.25 1.55m-9.05-3.2-2.55.65v-2.5L0-86.55l-1.3 2.65-6-1.8v-.55l.65-2.95.2-.75-9.7-2.45v-5.75l-2.85-1.6-2.95 3-1.7 2.85-2.1-2.6 1.75-1 2.35-8.2-1-3.25-1-3.15 2.95-4.85 1.1-1.75v-14.1l-1.95-5.6v-5.7l1.15-1.35 2.8-3.4-2.8 3.4L-22-149v-4.35l2.75-3.25 1.1-7.75 1.65-2.8 1.6-2.8v-6.25l1.8 6.6-3.3 6.85v4.25l-2 5.75.8 3.9 2.8-3.35 2.25-5.25 1-4.85 2.25-1.5v11.65l-5.05 7.45v6.05l-1.1.9v5.45l-.35 1.8-3.8-2.3 3.8 2.3-1.2 5.8v5.95l1.55 2.85-4.7 3.65-.4 11.55q-.4.3-.7.5l-.95 1.75-1.8.95 1.8-.95.95-1.75q.3-.2.7-.5l1.55.95-1.55-.95h2.5l3.55 1.5 2.3 1.05-1.3 4.1 1.95.5 1.9.6 3.9 1.1 2 .55-.55 1.75-.55 1.75 1.2.85 1.3.85 1.15-2.3 1.25.35 2.8.7 1.1 2.05 2.15-.35.4 2.2m-32.25-9.35.55 2.3-5.35 10.8 2.4-10.7 2.4-2.4M35.9-76.95l1.7 2.45-1.7-2.45m26.9 30.9-1.05.9q2.5-4.45 6.9-5.05l5.65-1.35q2.1-.5 3.65-1.85l-1.35 2.6q-1.1 1.6-3.1 1.7-3.4-1.4-6.35.9-1.8 1.4-4 2.15h-.35m5 1.15 7.85 1.3.55-.1-.55 1.1-1.1 1.35-.45.45q-1.6-1.85-4.15-1.9-2.5-.05-4.55 1.45l-2.5 1.9q-.4.25-.65-.1l-.95-.1.2-.45q3.15-2.05 5.95-4.6l.35-.3m-5.55 9.6.8.5 4.2 2.65-4.05-.1q-2.8-1.7-5.9-.45l-1.15.05-.35-.65-1.45-.2 7.7-1.8h.2m-8.4 5.85q3.4.5 4.25 3.2-3.05-.85-5.4 1.7l-.15-.45q-1-1.85-2.5-3.3l.15-.15q1.95-1.15 4.15-1.3l-.5.3m-23-6.8-.05.3-.65 2.35q-2.55-3.1-6.75-4.3l-2.55-.45q-4.1.4-5.85 3.9-2.3-3.8-5.35-5.85l2.2.3q.2-.95 1.15-1.3l.8.05q.45.6 1.2 1.05 1.4.75 2.55.95 2.4-1.4 5.75-1.05l1.85.2 5.25 3.25.45.6m4.1 2.15 3.25.15q-.45 1.5-.1 3.05.85 1.05 2.2 1.55l-.1.1q-.95 2.05-1.55 4.15l-4.3-.2q2.05-1.8 2-4.8-.05-1.5-.65-2.7l-.75-1.3-.4-.05.4.05m10 6.95L47.3-28l-.6.35.2.2q2.05 3.6-1.25 4.55l-.55-3.35-.15-.9m-60.4-175.3 4.85-3.45-2-7.7 16.55-3.55 3.25 2-14.55 3.45.6 6-1.4 1.6 3.15 5.8-6.6.55-3.85-4.7 7.3-1.65-7.3 1.65m22.3-8.1 15.45-2.9 4.1 3.25-17.2 2.35-2.4-1.1 2.4 1.1L7-201l3.3 1.55q2.4 1.15 4.85 2.25l-5.65 2.55 5.65-2.55-2.1 7.8-1.65 6.05 4.55 1.95-.9 3.2-7.25-2.85 1.7-13.6-10.25-6.5-1.15-.75 1.15.75-3.45 16.4.9 3.65-2.25 5.4v-3.9l.05-5.45 1.1-9.8.05-.55.5-4.2 1.95-2.3 4.4-1.2 3.75 1.8.55-7.65.05-1.6m-86.15 78 4.15 3.3-11.75-3.35-3.25-4.35-1.45-1.9-5.3-7-.8-3.25-3.15-13.65-1.55-5.25-.85-2.15.85 2.15 1.55 5.25h-5.35l-6 6.4q-2.8 1.4-5.55 2.7v2.85q1.7-.95 4-1.2l7.5.3q-4.15 1.8-7.9 4.3-3.8 2.5-2.8 5.9l-.8.6v.8l-6.55 8.45v11.4l-.5 5.85 1.2-.8q2.95-1.85 5.9-1.55-3.75 3.95-5.85 9.5-.45 1.15-.15 2.45l1.75 1.9.35.5q.2.7-.5.75h-.55l-1 2.75h.05q1-1.3 3.8-2.75l1.6.3-2 6.9 4.3 5.7-.75 14.1-2.35-11.3-10.25-13.35v-3.25l2.25-18.2-1.9-8.6 5.65-12.95v-13.15l13.25-8.6 3.05-4.95 3.7-1.15-4.65-11.25v-6.45l14.1-12.65h11.45l-12.75 6.1-5.9 8.75.45.95 6.55-1.65h.55v1.6l-4.9 4.35 1.2 2.35q3.55-1.1 7.85-.75l1.3 1.85q-4 .5-7.9 3.4l1.2 6.9 11.15-4.55-1.05 1.85q.65.1.7 1.05l-.2 2.05-.5.8-.55 2.55q-5.5.6-7.9 5l2.05 11.4q5.2 1.25 10.75-1 .4-.15.7-.35.2-.85.25-1.8h.75q.1 1.1-1 1.8-1.2 4.55-6.5 5.65l-2.05.1 4.7 6.15 4.1 3.4m41.75-14.75-6.25-6.3-17.6-6.45-4.1-7.25-1.55-5.45 5.15 1.4 3.25 7 11.15 4.7 2.55 1.1 5.65 1.2 1.75 3.85v6.2M7-201l-.75-.3.75.3m-9.2 12.65q1.95-2.65 3.6-5.4v-.35l.45-.4-.45.75-.15 1.65q-.3.85-.3 1.7 0 1.4.3 2.75-.95 1-1 2.55-.05 1.7-.55 3.15-.15-1.5-.65-2.95l-1.5-3.05.25-.4m8.3 43.7.15-.45q1.05-4.3 1.55-8.8 1.85-2.25 4-3.85l.45-.75.15-.6q1.1-2.1 1.25-3.55v1.6q.2 1.1.05 2.45-.55 4.15-2.85 7.7-2 2.95-.6 6.4l-4.15-.15m17.7-27.9-2.55 2.2 2.55-2.2m6.15 3.15-5.4 3.15 5.4-3.15m-9.55 9.05.1-1.1q-.05.45.05.85.2 1.1-.35 2.1l-.1.15-.3 1.3-1.7 1.15-.85 3q.6.45 0 1.7-1.5 2.95-2.45 6-.05-.9.2-1.85.5-2.15.55-4.3.2-5.6 4.85-9M2-179.25l-.45.85q-2.75 6.15.85 11.5l1.3.3q-.4 1.25-1.2 2.25-2.6 3.25-3.95 6.75l-.45.25v2.7q0 1.4.45 2.15-.65.75-1.6 1.3l-6.2 4.4q1.1-1.6 2.05-3.35 2.4-4.5 2.5-9.2l.3-.55q2.8-1.35 2.9-4.3.1-3.55-.4-7.15-.85-5.7 2.15-9.5l1.75 1.6m-7.75 38.55 11.7 2.7 4.75 7v5l1.45 2.75-1.65 2.8-7.55-6.95-3.6-5.9H-4.4l-9.95 2.2v-3.9l2.3-3.35 6.3-2.35m34.95-12.2-.3.4q-2.3 3.35-3.95 6.85v.3q-.4 2.7-.15 5.4l-.25.65q-1.15 1.5-2.6 2.5 2.75-5.65 2.4-12.1 2.05-.9 3.1-2.85l1.75-2.9v-.25l.35-.1-.35.35v1.75m-36.55-58.8-5.25-1.9 5.25 1.9m.6 6-3.85-.2 3.85.2M7.8-181.05l3.6-2.3-3.6 2.3m-7.85 80.1q-.15.9-1.2 1.65l-.4.4q-1.65.2-3.1 1.25-2.6 1.7-3.55 4.25v.15l-.1.1-.1.25v-.05l.1-.2.1-.25q.05-1.7.8-4l.65-1.85q2-1.4 4.65-1.75l2.15.05M.2-92.4l-.1.05-.05.1v.05l-.05.05v.05l.05.45q-1.35.7-2.35 1.95-.35.45-.85.7l-.2.45.15-.4.05-.05v-.05q.65-1.75 2.6-3.1l.75-.25m-6.65 2.45 2.7-1.35-2.7 1.35m13.25-5.8.6.65-1.9.6.7.95-.8 1.45-2-1.65 1.1-2h2.3M3.5-89.4q-.4.95-1.5 1.45l-.15.05-.3.1q-.4-.05.5-.75.65-.5 1.45-.85m11.15-9.55-2.4 2.35v2.95l-2 2.1-.75-2.05.75-5 1.45-1.3 2.95.95m-25-3.85q-.95 1.45-1.5 3.05l-.15.85-.4-.05-.5-.25q-.4-.25 0-.45h-.4q.35-1.85 1.6-3.3l.2-.15h.45l.2.1.25.15.25.05m-3.15 8.75-2.65 1.65 2.65-1.65m1.3-4.1h-3.95 3.95M-34.8-53.4l-.05.1.35.2.2.85q.2 1.35-.2 2.4-1.5.8-2.85.85l.85.9.6.1.75.7q.3.35.1.75l-.15.15-3.55 2.7V-47q-2.5-1.4-5.45-1.1l1.6-3.85q3.1-.9 5.95.55l1.8-1.9-.2-.1h.25m60.3-34.3.15.2.55.15q1.25.5 1.8 1.85l1.05 2.15-.15.35-1.1 1.1-.25.3q-.25-.8-.05-1.75.2-1.05-.4-1.8l-2.95-3.35.65.55.7.25m-4.1 7.8-.95-2 .95 2m-2.25 3.45-.85-2.15.85 2.15M7.55-84.3v-3.05l2.5-1.7.9 1.1L9.8-86.2l1.9 1.4-1.5 1.65-2.65-1.15m-8.85.4-1.05-2.2 1.05 2.2M0-86.55l-1.2-1.85L0-86.55m-7.3.7 2.45-1.95-2.45 1.95m-48.75-9.05h1.45q3.75.6 6.25 4l.05.1q-1.65.1-3.15.9l-.05.05-.1-.2q.3-.9-.45-1.6l-.55-.1-4.3-1-.7-.3 1.55-1.85m4.5 11.1-.15.85-.2.75-.45-.25q-1.3-1.55-2.95-2.35-4.8-2.05-9.45.35v-.05l1.9-1.05q2.2-1.25 4.4-1.95 1.5.85 3.6 1.5l3.25.5v.45q.3.65.05 1.25m3.4 4q.05 1.35-.3 2.45l-7.95-.75-2.35-.25h-1.15q4.65-2.5 9.55-3.85l.3-.15q1.85.65 1.9 2.55m-16.6-4.65-1.1 1.1.1-.55 1-.55m8.85 16.95-.25-1.75-.4-.45-.2-.55.05-.1q2.45-1.25 5.4-1.15l-.15.15q.35.6.35 1.55-.1 1.25-.5 1.55h-1.15l-3.1.75h-.05.05l-.2.1h-.05l-.05.3.7.5q1.35 1.2.85 3.05l-.8.4q-3.25 1.8-6.05 4.2.45 2.45 0 4.85-3.05.35-5.55-.85.8-3.55 2.55-6.85 4.05-.95 7.55-2.85l.75-2.45-.45-.15.5-.15.05-.1h.15m8.15 6.55-.2 1.7-.4 1.15h-1.1l-.75.35q-5.8 3.4-5.7 10.05h-.15q-1.45.2-2.7-.55l.7-.15q.85-1.4 1.5-3.35.55-1.55 1.65-2.8l.05-1.15q.5-2.4 1.55-4.25l5.55-1M-56.3-42.4l.25-.75 5.45-.4h.15l-.3.15h.45q.1.2.4.15l.45.4-1.3 1.3 1 2.55-.7.2-3.45.5q-.1 1.55-.9 2.85l-1.35 2q.6-3.55 1.7-7.25l-.15-.45-.7-.4q-.9-.2-1-.85m-1.3 10.8.15-.25v-.3l.05.1-.05.2v.4l1.3 1.3v3.55l.4 1-.55 1.1-.15 1.6.55.4.2.3q.55.55 1.3 1l1.65 1q.45 1.1 1.35 1.95 1.25 1.2 1.35 2.3-.95.35-1.95-.4-.95-.75-2.2-.85l-1.85-1.65q-1.25-1.65-1.7-3.5l-.7-.15-2.85-.3-.25-.35-.05-.5.15-.7.15-.15q1.95-.9 3.4-2.35l.1-.35q.35-2.1.35-4.25l-.15-.15m67.25-8.7-.7-.1-.2-.45v-.05l.9.6M3.1-37.7q1 .9 1.7 2.15l.5 1.6-1.35.65-3 .2.05-.1q2-2.6 1.5-5.75h1.55l-.7.45-.25.8M-3.95-31q1.3-.7 2.35.3v.1q-1.45 1.25-2.25 2.8 2.45 2.05 3.55 4.45l-.05.25q-.55 2.2-2.55 3.05l-.55-.45q-.15-.65.3-1.35.3-.6.15-1.1-1-2.8-4.4-2.85l.05-.65q.3-1.45-.05-2.8l1.65-.7 1.8-1.05-.55.3.65-.65q.3 0-.1.35" transform="translate(192.55 294)"/><path fill-rule="evenodd" fill="#a35c3b" d="m72.4-197.3-3.85 8.75 4.85-7.8 11.15 9.85 4.3 3.75 6.6 5.9-.35 2.05-3.85 2.15h-6.2l-2.2 1.95-5.6-6.5.35-.65-.35.65-10.6-12.35-22.4-3.7-14.1-2.35-8.15 3v-4.2l3.3-6.85-3.3 6.85v4.2l-8.95 3.2 2.1-7.8q-2.45-1.1-4.85-2.25l15-4.2 10.25-2.85 11.05 2.15-.3 1.55-2.05 5.15v4.4-4.4l2.05-5.15.3-1.55 7.15 1.35 15.55 3 3.1 2.7m8.4 12.95 3.75-2.15-3.75 2.15-3.4 3.8.2 2.7 3.2-6.5m4.55 7.1 3.5-5.5-3.5 5.5m-31.7-25.45.1-.3-.1.3" transform="translate(192.55 294)"/><path fill-rule="evenodd" fill="#7b402d" d="m84.8-213.75 9.85 5.75-6 12.75-2.6 7.9-1.5.85 1.5-.85 2.6-7.9 6.25 4.75 1.95-3.6 2.05 10.15-2.85 3.7-.6 3.4-6.6-5.9-4.3-3.75-11.15-9.85 5.95-9.75 5.45-7.65m-27 .8-1.35 1.2 19.1 5.2v2l-3.15 7.25-3.1-2.7-15.55-3 2.7-8.75-2.7 8.75-7.15-1.35-11.05-2.15-10.25 2.85-15 4.2L7-201l2.2-6.85 17.2-2.35-4.1-3.25 2.6-2.95 2.95 1.85 2.95-.8 3.85-12.9 16.2 4.95-1.65 7.2 8.6 3.15m37.1 22.45-2.45 2.2-3.6 5.55 3.6-5.55 2.45-2.2m-51.7 1.3 1.05-1.2.8 2.3-1.05 4.4-.95 2.15.95-6.6-.8-1.05m6-26.9-2.6 11.75 2.6-11.75m-42 .95-.35 4.6-.05 1.6-.55 7.65-3.75-1.8-4.4 1.2-1.95 2.3-.5 4.2-.15.05-.5-2.95-3.15-5.8 1.4-1.6-.6-6 14.55-3.45m19.2 4.95v4.2l-1.1 2.35 1.1-2.35v-4.2" transform="translate(192.55 294)"/><path fill-rule="evenodd" fill="#ad6b40" d="M108.8-179.55h3.1l.7-1.75 6.95-3.15-5.8.3.3-.65 1.9-2.15 3.8-.9 6.25 2.15-2.45-3 5.75.3 3.15 4.7-.95 3.3-1.2 3.95-.55 2-.45-3.35-4.5-4.7-2.9-.45v.55l3.9 6.4-.1 4.85-3.5 1.25 1.55-4.15-1.85-4.05-.75-1.1h-3.1l1.5 1.25 3.8 4.25-4.15 3.85-1.3-3.6-.55-.9-3-5.2h-2.45 2.45l3 5.2-.45 6.05-1.5 2.7-2.05-6.55-5.95-1.45 2.5 1.85 1.8 5-1 3.9h-3.1l.6-2.6-4.15-4.05 1.95 6.1-3.4 6.05-.5-8.7-2.55-7.15-1.05-.85v-1.3h4.85l2.05 2.85v-2.65l-2.05-1.55h5.1l4.65 2.2 1.3-1.25-1.9-2.95-3.7-.85m-2.3-9.85v-10.1l2.6-2.15.5 5.95 2.15 1.8-1 2.55-4.25 1.95m32.8-3.85-1.2 3.45-3.35-6.5 4.55 3.05m-33.9 18.1 2 1.55-2-1.55m-38.65 37.7 5.9-8.25.9 4.15-2.7 1.8-4.1 2.3M59.3-103.3l-.1.75-5.2 8.6L46.2-90l1.85 4-2.35 4.7v-2.5l-.4-1.2 1.5-1.5-2.25-2.65-5.4-1.55-.25-.7 5.15 1.35 9.4-5 4.15-6.65.6-2.05 1.1.45m-3.2 25.65-1.3-.45.9-3.65-.75-2.6 1.75-9.3 3.6-5.7-.25 3.05-3.3 10.45v5.8l-.65 2.4m5.95-20.65.25-2.5 7.5-5.55 4.1-7.15 1.25-3.35.8 2.95-3.15 4.8-.85.95-9.9 9.85m-31 7.9 1.85 1.75q.55.8.45 1.85l-.5 4.15v.15l2.05-3.8v-.9l-.2-.2v-.8q-1.25-2.3-3.2-4l-2.25-1.3-3.55-.25-.2-.15.05.2-.05.05.2.15-.15-.2.1-.05h.05l5.35 3.35m-3-7.85 5.75 5.5 2.4 4.55-4.2 8.35-1.55-.25 1.25-2.95v-4.55l-7.4-6-4.35-1.85 2.75-1.9 3.35-.9h2m28.4 22.5 1.85 1.4-.9 4.3-.9 4.3-2.6 3.4-1.55-.2 2.4-4.85 1.7-8.35m-11.1 24.9 4.15-8.5h4.4l-7.3 7.25-1.25 1.25m-22.6-41.8 7.4 8.3-1.2 4-2.85-.55-.4-3.45-2.95-4.15v-4.15M-8.8-85.4l-.4-.25.4.2v.05m1.85-3.85.3.05-.65 2.95v-.45l.35-2.55m38.7 15.6.35-.15-.2.5-.15-.35m4.6.35-.65.1.15-.3.5.2M-3.2-14.65l-1.5-.85v-5.3l-5.1-4.65 2-6.4 5.2-1.6 2.45-2.4 2-6.4L4.4-44l5.4 2h8.85l4.3-2 3.85 1.85 3.85 3.3 6.7 1.45 4.15 5.7.25 1.35.95 4.45-2.5 2.85-4.15 3.1-5-2.85-1.55-4.5 4-1.15v-1.7L32.05-35v3.4l-3.7 1.9-4.3-2.3 2.45-2.15-3.85-1-4 4h-3.4L10.1-35v-1.7l-5.15-2.85 1.9 1.85v5L3.6-30.4l-4.35.55 2.6 3.7v6.35l-5.05 5.15m45-15.7h5.4l4.25-1.35v-3.15l5.3-1.6 6.4-1.25 6.45 4.25.25 5.85-6.95-4h-8.2l4.15 2.05 2.45 5.35v2l-8.85 2.4-2.1-5.2-1.1-1.8-.75 7.3-.95.4L46-21.05l-.35-1.85q3.3-.95 1.25-4.55l-.2-.2.6-.35-2.35.85-3.15-3.2m20.45-4.95h-.2l-7.7 1.8 1.45.2.35.65 1.15-.05q3.1-1.25 5.9.45l4.05.1-4.2-2.65-.8-.5m-7.55 3.7-1.35-.7-1.9.6 1.9-.6 1.35.7m-.85 2.15.5-.3q-2.2.15-4.15 1.3l-.15.15q1.5 1.45 2.5 3.3l.15.45q2.35-2.55 5.4-1.7-.85-2.7-4.25-3.2m-2.5 6.1-1-1.65 1 1.65m-20.5-12.9-.45-.6-5.25-3.25-1.85-.2q-3.35-.35-5.75 1.05-1.15-.2-2.55-.95-.75-.45-1.2-1.05l-.8-.05q-.95.35-1.15 1.3l-2.2-.3q3.05 2.05 5.35 5.85 1.75-3.5 5.85-3.9l2.55.45q4.2 1.2 6.75 4.3l.65-2.35.05-.3m4.1 2.15-.4-.05.4.05.75 1.3q.6 1.2.65 2.7.05 3-2 4.8l4.3.2q.6-2.1 1.55-4.15l.1-.1q-1.35-.5-2.2-1.55-.35-1.55.1-3.05l-3.25-.15m12.25 3.75 2.05 3.55-2.05-3.55M-12.3-185.6l-3.15-16.85 3.85 4.7.85 12.15-.85-12.15 6.6-.55.5 2.95.1.5-1.1 9.8-.05 5.45-2.3-3-2.35-3h-2.1m-1.5 72.5 5.25 7.95 2.3.9-3.85 2.95-1.45 7.75-1.95-.5 1.3-4.1-2.3-1.05-3.55-1.5h-2.5l.4-11.55 4.7-3.65 1.65 2.8m14 20.7-.75.25q-1.95 1.35-2.6 3.1v.05l-.05.05-.15.4.2-.45q.5-.25.85-.7 1-1.25 2.35-1.95L0-92.1v-.05l.05-.05v-.05l.05-.1.1-.05m-4.5 2.85 3.8-3.4 2.3-.95.25 1.25.3 1.3-3.2 1-2.8 3.4-1.2-.85.55-1.75M5.8-87.8l.3 2.15-2.15.35-1.1-2.05-2.8-.7 3-2.6L5.8-87.8m-2.3-1.6q-.8.35-1.45.85-.9.7-.5.75l.3-.1.15-.05q1.1-.5 1.5-1.45m-13.85-13.4-.25-.05-.25-.15-.2-.1h-.45l-.2.15q-1.25 1.45-1.6 3.3h.4q-.4.2 0 .45l.5.25.4.05.15-.85q.55-1.6 1.5-3.05m1.8-2.35-4.7 2.45-1.25 3.5 1.25-3.5 4.7-2.45m-45.3 59.75h6.1v-7.15l5.55-3.25 3.5 1.85 6.4-2.85h2.95l1.3 3.15-4.45 1.5v6.75l-6.8 5.4-3.05-1.55v-1.85l-5.4 1.1 2.6 2-2.45 5h-2.75l-.4-1.4h-2.7l1.7 4.6-3.85 3.8 1.85.75 1.2 3.9h-3.05 6.15v4.25h-2l7.9 4-5.1 3.25-5.55-.5v-3.3l-4.5-1.65-1-3.05h-6.15v-4.1l4.1-2.25 1.6-5.15 2.4-4.25v-2.95l-6.55 1.65.9-1.9 1.5-3.4 6.7-2.4h1.35m19.05-8h-.25l.2.1-1.8 1.9q-2.85-1.45-5.95-.55l-1.6 3.85q2.95-.3 5.45 1.1v3.3l3.55-2.7.15-.15q.2-.4-.1-.75l-.75-.7-.6-.1-.85-.9q1.35-.05 2.85-.85.4-1.05.2-2.4l-.2-.85-.35-.2.05-.1m60.3-34.3-.7-.25-.65-.55 2.95 3.35q.6.75.4 1.8-.2.95.05 1.75l.25-.3 1.1-1.1.15-.35L28-85.5q-.55-1.35-1.8-1.85l-.55-.15-.15-.2m-81.4 20.2h.05-.05m-.4 25.1q.1.65 1 .85l.7.4.15.45q-1.1 3.7-1.7 7.25l1.35-2q.8-1.3.9-2.85l3.45-.5.7-.2-1-2.55 1.3-1.3-.45-.4q-.3.05-.4-.15h-.45l.3-.15h-.15l-5.45.4-.25.75m-6.7 3-.4-.2.4.2m5.4 7.8.15.15q0 2.15-.35 4.25l-.1.35q-1.45 1.45-3.4 2.35l-.15.15-.15.7.05.5.25.35 2.85.3.7.15q.45 1.85 1.7 3.5l1.85 1.65q1.25.1 2.2.85 1 .75 1.95.4-.1-1.1-1.35-2.3-.9-.85-1.35-1.95l-1.65-1q-.75-.45-1.3-1l-.2-.3-.55-.4.15-1.6.55-1.1-.4-1v-3.55l-1.3-1.3v-.4l.05-.2-.05-.1v.3l-.15.25m67.25-8.7-.9-.6v.05l.2.45.7.1M3.1-37.7l.25-.8.7-.45H2.5Q3-35.8 1-33.2l-.05.1 3-.2 1.35-.65-.5-1.6q-.7-1.25-1.7-2.15M-3.95-31q.4-.35.1-.35l-.65.65.55-.3-1.8 1.05-1.65.7q.35 1.35.05 2.8l-.05.65q3.4.05 4.4 2.85.15.5-.15 1.1-.45.7-.3 1.35l.55.45q2-.85 2.55-3.05l.05-.25q-1.1-2.4-3.55-4.45.8-1.55 2.25-2.8v-.1q-1.05-1-2.35-.3" transform="translate(192.55 294)"/><path fill-rule="evenodd" fill="#ca7547" d="m77.25-177.2 5.6 6.5-7.5 6.8h-3.9l-11.1-11-17.7-5.65.4-1 .95-2.15 1.05-4.4-.8-2.3-1.05 1.2-2.9 3.15v4.75l-9-2.9-5.05 1.5-7.05-2.35-2.9 2.4-.35 1.25-4.55-1.95 1.65-6.05 8.95-3.2 8.15-3 14.1 2.35 22.4 3.7 10.6 12.35-1.3 2.55 1.3-2.55m-33-16.05v2.85-2.85m-21.3 7.35-.95-3.35v-3.35 3.35l.95 3.35" transform="translate(192.55 294)"/><path fill-rule="evenodd" fill="#f09056" d="m42.65-180.55 17.7 5.65 11.1 11h-9.1l-1.95 4.05-6.4-7.1-13.9-5.45 1.5-5.65-1.5 5.65-5.65-2.25-9.05 2.95-1.6-.85 4.5-9.4-2.05-.75 5.05-1.5 9 2.9v.6l1.3 2.65 1.05-2.5" transform="translate(192.55 294)"/><path fill-rule="evenodd" fill="#fa9f60" d="m40.1-172.4 13.9 5.45 6.4 7.1-1.75 3.55-8.2-1.75-2.3-2.8-14.75-4.75-4.65 2.1 1.2-5.9-4.55-2.3 9.05-2.95 5.65 2.25-.4 1.6-2.15 3.4 2.15-3.4.4-1.6" transform="translate(192.55 294)"/><path fill-rule="evenodd" fill="#ffcf80" d="m28.75-163.5 4.65-2.1 14.75 4.75 2.3 2.8-6.3-1.4-5.5 7.7h-1.4l.95-8.6-4.85-2.35-3.3 1.4-2.7 4.55 1.4-6.75" transform="translate(192.55 294)"/><path fill-rule="evenodd" fill="url(#d)" d="m64.95-161.4 10.4.55-9.95 19.75-6.5 5.95v8.8l2.45 4 3.75-1.6 4.75 5.8v6.35l-3.95 5.7-5.5 3.3-1.1-.5-1.1-.45-1.8-.8 3.75-.05 2.1-1.4 2.1-1.4 3.4-4.45v-4.85l-.95-2.6h-7.5l-8.35 5.9H43.9l-17.4 6.7-3.95-5.25-1.9 6.5-.6 2.05-2.45 1.05 1.75-2.95-2.9 2.7-.5-.8.5-.3 1.75-4.55 1.75-4.6.45-4.25-2.55-5-1.75-2.5-1.75-2.5-4.2-11.45-2.9-3.5 2.9 3.5 4.2 11.45 1.75 2.5.95 3.9v4.25l-4.05 4.5-6.05-2.9-8.75-13.1-7.85 1.55h-4l-2.15-4.1.35-1.8v-5.45l1.1-.9 7.65-6.2 3.55 2.8h10.4l-1.15-2.6 4.15.15q-1.4-3.45.6-6.4 2.3-3.55 2.85-7.7.15-1.35-.05-2.45v-1.6q-.15 1.45-1.25 3.55l-.15.6-.45.75q-2.15 1.6-4 3.85l1.8-7 3.8-8.05v-3.4l1.65-5.85.9-3.2.35-1.25 6.5 3.15-1.55 9.15-3.75 5.6v5.25l3.75-10.85 3.3 4.1-1.45 16.9 4.25-7.4 2.7-4.55 4.65 3.55.95 8.3 2.65.9-1.55 7.65 2.4-3.7-.5-4.25 6.65-6.45 11 1.95-.25 7.05-7.15 6.15v9.65l1.35-4.2.9-5.05 3.2-3.25 1.7-3.3 3.25-6.5 5.65-8.6m-29.3 11.95-3.4 2.45v5.95l3.4-8.4m-5.1 10.65.15-.2-.6-.35q-.75-.55-1.65-.45-2.85 1.95-5.35 4.25-.3.15-.6 1.35-.85 3.55.95 6.75l.2-1.2q.45-3.4 2-6.3 1.65-3.3 4.9-3.85m13.2-6.7q.05-.45-.55-.55l-1.15.1q.8 0-1.85 1.3l-.15.15q1.1 5.65-3 9.85l4.3.7q-.95-4.5.85-8.35l1.55-3.2m18.5-7.65 1.35-.9-.55-.3-.8 1.2q-4 3.05-4.4 7.8-.2 1.95-1.4 3.55l-2.25 1.6-.6.1q-1.75 4.4-3.2 9.4-.25.75-.2 1.6 1.4-3.95 4.75-6.8.35-.35-.2-.35-.45-.75.1-1.8.8-1.7 2.35-2.9l.1-.4 2.3-2.15q-.15-4.95 2.5-9.35l.15-.3M41.1-120.7l-.9-.5-6.05 4.25-4.75.8-2.5 2.25.5 1.25 4.65-.65 12.55-5.55 8.8-1.25-1.65-2.55h-4.5l-6.15 1.95m25.7 1.4h.95-.95m-31.95-14.55-.5-.5q.1 3.35-.6 6.6-.75 3.25-3.35 5.5l-1.5 1.1q2.95-.35 5.05-3 3.2-4.2 1.55-9.1l-.65-.6m-4.5 10.05q1.7-2 2.6-5.2.85-3.2.35-5.75t-2.1-2.95q-1.55-.45-3.3 1.5l-1.15 1.7-1.4 3.45q-.85 3.2-.35 5.8.5 2.55 2.1 2.95 1.55.45 3.25-1.5m13.9-1.6-10.85 7.85 10.85-7.85M20.4-160.35q-4.65 3.4-4.85 9-.05 2.15-.55 4.3-.25.95-.2 1.85.95-3.05 2.45-6 .6-1.25 0-1.7l.85-3 1.7-1.15.3-1.3.1-.15q.55-1 .35-2.1-.1-.4-.05-.85l-.1 1.1M-5.75-140.7l-6.3 2.35-2.3 3.35v3.9l9.95-2.2h3.75l3.6 5.9 7.55 6.95 1.65-2.8L10.7-126v-5l-4.75-7-11.7-2.7m28.85-8.65-2.7 4.6v8.2l2.7-12.8m6.1-3.55v-1.75l.35-.35-.35.1v.25l-1.75 2.9q-1.05 1.95-3.1 2.85.35 6.45-2.4 12.1 1.45-1 2.6-2.5l.25-.65q-.25-2.7.15-5.4v-.3q1.65-3.5 3.95-6.85l.3-.4m0 35.65-6.65 5.3 6.65-5.3" transform="translate(192.55 294)"/><path fill-rule="evenodd" fill="#925738" d="m38.3-148.55.35-.3.5 4.25-2.4 3.7 1.55-7.65m-2.65-.9-3.4 8.4V-147l3.4-2.45m23.65-3.35-3.25 6.5-1.7 3.3-3.2 3.25-.9 5.05-1.35 4.2v-9.65l7.15-6.15.25-7.05 3 .55m3.9 33.5.4.55-5.6 5.35h-7.05l8.35-5.9h3.9M9.6-160.9l-2.75 3.6 3.55-12.35 4.65-8.55-1.65 5.85v3.4l-3.8 8.05m11.65-9.45L17.5-159.5v-5.25l3.75-5.6m1.85 21-2.7 12.8v-8.2l2.7-4.6" transform="translate(192.55 294)"/><path fill-rule="evenodd" fill="#ff9242" d="m29.85-135.6.7-.3.7.5-.2.9q-1.1.8-2.2.25l-.3-.55.5-1 .25-.15.95-.2-.4.55m.45.55-.05-.1-.25-.15h-.45q-.35.25-.15.65l.05.1.95-.1q.25-.15-.1-.4m-.1 4.4.1.5.25.5q-1.75 1.25-1.65 3.55l-.15 1.75-.6-.15q-1.2-.45-2.15-1.1l-.15-.4q-.3-3.6 2.6-5.85l.25.3 1.35-.05.1.45.05.5m-1.6.2q-1.85 1.15-1.9 3.35v.3l.35.15h.3l.25-.25.15-.2.1-.15-.1-.35.6-.8.65-1.1.05-.2h-.75l.3-.75" transform="translate(192.55 294)"/><path fill-rule="evenodd" fill="url(#e)" d="m29.85-135.6.4-.55-.95.2-.25.15-.5 1 .3.55q1.1.55 2.2-.25l.2-.9-.7-.5-.7.3m.35 4.95-.05-.5-.1-.45-1.35.05-.25-.3q-2.9 2.25-2.6 5.85l.15.4q.95.65 2.15 1.1l.6.15.15-1.75q-.1-2.3 1.65-3.55l-.25-.5-.1-.5m.15 6.85q-1.7 1.95-3.25 1.5-1.6-.4-2.1-2.95-.5-2.6.35-5.8l1.4-3.45 1.15-1.7q1.75-1.95 3.3-1.5 1.6.4 2.1 2.95.5 2.55-.35 5.75-.9 3.2-2.6 5.2" transform="translate(192.55 294)"/><path fill-rule="evenodd" fill="#74402e" d="m75.95-107.4 3.05 1.8-.25 2.1-.45 3.85h3.9v4.95l-4.9 1.4-.55 2.55L72.8-89l.55 2.1 4.2-2.3-.95 8.45-2.8-4.15-5.65 1.4-.6-.1-.3-3.3-2.6 2.7-3.55-.7 4.2-8.45 6.15-4.25 1.65-7.55 2.85-2.25m-45.4-31.4q-3.25.55-4.9 3.85-1.55 2.9-2 6.3l-.2 1.2q-1.8-3.2-.95-6.75.3-1.2.6-1.35 2.5-2.3 5.35-4.25.9-.1 1.65.45l.6.35-.15.2m40.3-.95-3.5 7.35-2.25 8.45-3.75 1.6-2.45-4 7.85-11.1 4.1-2.3M48.9-75.5l3.25 1.95 3.2-1.65 1.1-.55-1.7 8.35-2.4 4.85 1.55.2v3h-4.4l-4.15 8.5-3.6 3.6H29.9l-3.05-2.3-23.15-5.3-3.65-3-2.1 1.05h-3.3l-9.45-4.05-8.75-8.5-3.7-4.2-3.7-4.25 16.1 15.3 8.3 2.7H3.7l13.1 5.95 13.8 2.3 3.75-2 12.15-8.7 2.4-13.25m28.9-20.25.5-3.9-.5 3.9m5.55 15.2 5-1.8 1 2.65-5.95 2.4-2-1.35 1.95-1.9m-32.4-32.85H58l5.6-5.35-.4-.55h3.6l.95 2.6v4.85l-3.4 4.45-2.1 1.4-15.5-3.8-10.2 4.8-10.85 3.05-5.05-3.5 1.9-6.5 3.95 5.25 17.4-6.7h7.05M33.8-92.75l1.3.35 2.5 4.8-4.3 9.4-1.3-1.65 4.2-8.35-2.4-4.55m19.05 19.6-.7-.4.7.4M24.3-93.6l7.4 6v4.55l-1.25 2.95-1.5-.25 1.2-4-7.4-8.3-3.3-2v-.95l.5.15-.5-.15v-1.95L16.15-99l-3.25-1.45-3.35 1.05-.25.95-3.75-5.8 4.1 2.4h1.15l1.15 1.05.95.35 6.75 1.7-.4-.75 1.45-1 3.3 2.25h2.05l-3.35.9-2.75 1.9 4.35 1.85m-8.2-31 1.75 2.5 2.55 5-.45 4.25-1.75 4.6-4.85 1.45H9.3l-8.45-9.8-1.55-2.35-1.3-2.1-1.85-2.8-2.9-1.25-3.6 4.4h-2.6l-4.05-4 1.2-5.8 2.15 4.1h4l7.85-1.55 8.75 13.1 6.05 2.9 4.05-4.5v-4.25l-.95-3.9m.35 22 2.9-2.7-1.75 2.95-.35.65h-1.7l.9-.9m-20.3-21.25h.05-.05m-2.4 19.6 2.3.95-4.6 2.85-1.1 7.5-1.9-.6 1.45-7.75 3.85-2.95m.5 12.4 1.9-1.65 7.95-3.1-2.3 2.7-2.3.95-3.8 3.4.55-1.75-2-.55m7.8-.8L5.6-89.9h2.1l-1.9 2.1-2.75-2.85-.7-.7.7.7-3 2.6-1.25-.35-1.15 2.3-1.3-.85 2.8-3.4 3.2-1-.3-1.3m7.7-7.7-.2.95.2-.95M23.3-81.4l-2.9-3.65 2.35-3.45 2.95 4.15.4 3.45-2.8-.5m-32.95-45 2.9 1.3-2.9-1.3" transform="translate(192.55 294)"/><path fill-rule="evenodd" fill="#593023" d="m78.95-160.65 9.75-9.55 2.65.4h1.75l-2.15 5.9-8 6.95-3.3 11.75v5.75l4.7 6.4-.5 1-3.05 6.65-4.3-2.25v-7.85l-3.7 9.9 1.6 5.85.75 2.9-1.25 3.35-4.1 7.15-7.5 5.55-.25 2.5-2 2 2-2 9.9-9.85 1.15 3-1.65 7.55-6.15 4.25-4.2 8.45 3.55.7 2.9.6.6.1 6.55 6v2.85l-1.05.85-7.75-2.15-8.5 5.9.9-4.3-1.85-1.4-1.1.55-3.2 1.65-3.25-1.95-3.2-1.95v-3.85l2.35-4.7-1.85-4 7.8-3.95 5.2-8.6.1-.75 1.1.5 5.5-3.3 3.95-5.7v-6.35l-4.75-5.8 2.25-8.45 3.5-7.35 2.7-1.8 2.7-1.8-.5-12.45 3.2-4.85m11.4 1.05 1.7-1.55v4.4L85.3-142.1l.9 1 2.45-2.85 3.75-6.8-.45 4.05-.5 4 .5-4h2.1l5.4-5.05-.55 1.85v.05l-1.1 3.65-3.15 1.75-3.2 1.75-.35 3.05-2.25 1.15-5.3 2.65-.75-2.8-1.45-5.5 2.85-6.2.6 6.15 5.55-15.4m-7.55 20.95 2-5.55-2 5.55m-26.7 61-.75 2.45.75-2.45.65-2.4v-5.8l4.35.95-4.35-.95 3.3-10.45.25-3.05-3.6 5.7-1.75 9.3.75 2.6-.9 3.65 1.3.45m-35.45-27.8 5.05 3.5L36.55-105l10.2-4.8 15.5 3.8-2.1 1.4-3.75.05-5-2.3-.9.2-2.25.5-2.75.65-7.65 1.65-2.05 1.2-2.45 1.35-2.45 1.45-2.85 1.6H24l-3.3-2.25-1.45 1 .4.75-6.75-1.7-.95-.35-1.15-1.05H9.65l-4.1-2.4-1.2-.7v-5.15l-1.1-2-2.4-4.5 8.45 9.8h4.05l4.85-1.45-1.75 4.55-.5.3.5.8-.9.9h1.7l.35-.65 2.45-1.05.6-2.05m18.5 14.75 5.4 1.55 2.25 2.65-1.5 1.5-.4-1.2h-4.15l-1.6-4.5M53.9-62.35l2.6-3.4 7.95-3.35-6.25 6.15-1.55 6-3.2 2.85L52.4-50l-1.05 4.15L52.4-50l8.35-4.55-6 8L54-42.3l2.9 2.3-.15 3.55-5-2.25-1.55-2.7 1.15-4.45-4.75-6.25 7.3-7.25v-3M19.45-95.6v.95l3.3 2v4.15l-2.35 3.45-3.75 1-1.35 2.25-1.5.9-1.5.95H9.5l-2.7-2-.3-1.5 2.8 1.4h2.8l3.15-2.45-2.6-4.15 3.5-5.3V-99l3.3 1.45v1.95m-3.5-7.8-2.7 1.55H10.8h2.45l2.7-1.55M17-89.35l2.45-4.3v-1 1L17-89.35m3.05-14.05-.6 2.05 1.25.85-1.25-.85.6-2.05" transform="translate(192.55 294)"/><path fill-rule="evenodd" fill="#562d23" d="m92.05-161.15-1.7 1.55-3.25 3-2.9 6.25-2.85 6.2 1.45 5.5.75 2.8.8 2.8-4.7-6.4v-5.75l3.3-11.75 8-6.95 2.15-5.9 6.45-3.4-2.9 5.2-2.95 5.3-1.65 1.55m-17.65 41.4-1.6-5.85 3.7-9.9v7.85l4.3 2.25-3.2 2.85-3.2 2.8m-43.5 19.9q.7 1.8 2.2 3.35 3.05 3 7.4 3 4.25 0 7.35-3 3.05-3.05 3.05-7.35l-.4-2.8.9-.2 5 2.3 1.8.8-.6 2.05-4.15 6.65-9.4 5-5.15-1.35-3.8-1-1.3-.35-5.75-5.5 2.85-1.6M84-45.9l2.35 1.05 3.85 6.3-3.25 8.4-5.3 2.45-2.25 6.8-6 1.7h-6.5l-2 2.15H52.2l-7.15 5.1H35.8l-4.85-7.1-7.45-2.15v-3.45l2.95 2.4 5.35 1.35 4.1 6.05 3.95-.4 3.85-5.15 2.35 4.65 4.4-2.3v-2l3.3 1.95 9.15-1.85L65-25.3l-1.1-1.15 6.9 3.55 4.2-2.8-1.05-7 9.4-.8 2.45-8.2-3.6-4.95 1.8.75M20.2-28.65l-1.4 1.2-9.55-2.6-3.7 2.9v6.95l-2 1.8v-9.2l4.15-3.35 2.4-1.15 3.6 2h5.85l.65 1.45m-30.55-92.05 3.6-4.4 2.9 1.25-1.65 1.2q-3.25 2.9-3.25 7.1 0 4.1 3.35 7.05 3.4 2.9 6.35 2.85 2.85-.05 3.4-.55v1.25l1.2.7L-2-102.4l-1.95-.9-2.3-.95-2.3-.9-5.25-7.95 3.45-7.6-3.45 7.6-1.65-2.8-1.55-2.85v-5.95l4.05 4h2.6m19.6 90.65.85-.65v-1.4 1.4l-.85.65" transform="translate(192.55 294)"/><path fill-rule="evenodd" fill="#84513b" d="m122.2-169.9-3.15 8.7-5.05 1.5-5.05 1.45-2.65.8-.8 3.25-3.3 2.15-3.3 2.15.55-1.85.5-1.85v-10.3l-3.3-4.1 3.3 4.1v10.3l-.5 1.85-5.4 5.05h-2.1l.45-4.05-3.75 6.8-2.45 2.85-.9-1 6.75-14.65v-4.4l1.65-1.55 2.95-5.3 2.9-5.2 2.55 7.15.5 8.7 3.4-6.05-1.95-6.1 4.15 4.05-.6 2.6h3.1l1-3.9-1.8-5-2.5-1.85 5.95 1.45 2.05 6.55 1.5-2.7.45-6.05.55.9 1.3 3.6 4.15-3.85.4-.35-1.55 4.15m-31.95 53.75-8.35 3.05 4.9-6.85 2.05-18.55 4.8 7.65-3.4 14.7m-11.5 12.65h2.5l2.8 4.55-.85 5.8-4.1 3v5.7l2.25 1.55 3.5-2.4 1.75 1.45 1.05-1.3 2.35-2.8 1.35-4.85v10.05l-1 2.15-1 .9-1-2.65-5 1.8-1.15-1.65-5.6 1.45.95-8.45-4.2 2.3-.55-2.1 3.95-1.75.55-2.55 4.9-1.4v-4.95h-3.9l.45-3.85m7 3.9 2.4.45 1.85 3.8-3.25 4.3.95-4.6-1.95-3.95m-1.55-50.75 2.9-6.25 3.25-3-5.55 15.4-.6-6.15m23.4-12.5-1.3 5.4 1.3-5.4M80.8-125.4l3.05-6.65-.05 9.5-6.2 7v-7l3.2-2.85m12-28.5-.4 3.15.4-3.15m-1.35 11.2 3.2-1.75-.85 7.8-2.35-6.05" transform="translate(192.55 294)"/><path fill-rule="evenodd" fill="url(#f)" d="m75.35-160.85 3.6.2-3.2 4.85-3.15 4.85 3.15-4.85.5 12.45-2.7 1.8-.9-4.15-5.9 8.25-7.85 11.1v-8.8l6.5-5.95 9.95-19.75" transform="translate(192.55 294)"/><path fill-rule="evenodd" fill="#826357" d="m114-159.7 2.25 1.3 1.5 9.5-3.15-2.6-2.8-3.35-1.45 4.35-4.85-3.7.8-3.25 2.65-.8 2.85 3.4-2.85-3.4 5.05-1.45m-.55 20.5-1.7 2.7-7.4 2.45-1.3 4.2-3.35 2.8 1.95-11.8 4 .65v-12.05l5.1 8.65 4.75-.8-2.05 3.2m-17.1 14.95-3 7 .3-13.6-2.55-8.8.35-3.05 2.35 6.05.85-7.8 3.15-1.75 1.1-3.65v-.05l3.3-2.15.85 1.7-1.7 6.85-6.15 2.25.6 3.15 2.25 3.15v6.7l-1.7 4m-15.1 20.75h2.5l2 3.9 1.95 3.95-4 4.4L79.35-88l2.6 2.8 3.15-2.65 2.55 2.7-1.05 1.3-1.75-1.45-3.5 2.4-2.25-1.55v-5.7l4.1-3 .85-5.8-2.8-4.55M132-79.25 130.7-81h-1.3l-3.15.45h-.15l-1.25.2-3.25-2.45 3.45-3.05-3.25-3.05-.7.7-12.45 2.3-4.65-1.6-4.1 3.9h-6.35l-3.2 3 1-2.15v-4.4l3.2-2.65h6.35l7.9-6.4 2.1 2.55 5.65 2.1 8.2-5.55 2.15 6.7.05.1.4-.25 2.25 3.5 4.8-1.5 1.95-6.9.6 1.65v4.45l-1.8 8.05-3.15 2.05m-7.3-12.6-2.9 2.95 2.9-2.95M94.85-87.1l-1.3 3.5 1.3-3.5m31.1 2.2-.9-.95.9.95m-19.5-4.8L104-87.5l2.45-2.2m-2.1-44.35 1.3-4.15-1.3 4.15" transform="translate(192.55 294)"/><path fill-rule="evenodd" fill="#b39280" d="M138.1-189.8h1.6l2 4v1.55h4.6l6.5-3.55 6.4 2 1.75 4.1-4.05-1.8-4.75 1.55-4.55 2.75h-3.4l-4.65 3.95-3.9-2.9 2.65-3.25-.35-1.3.15-7.1m-21.85 31.4 2.2 1.35 6-2 1.05 1q-.15 7.45-1.25 14.95l.2.25q2.35-1.9 5.15-3.05.5 2.1.5 4.8 0 .75.45 1.35l1.3-3.85q2.4-1.8 5.05-.55l1.4.15.3.1.6.3h.6q-.85-1.25-1.5-3.45l-.15-.45q.5-1.4 1.4-2.55l1.55 1.6 2.85-1.4 2.5 1.05 12.7-3.5 7.05-4.9 1.4.6-3.7 6.9-2.75-.3-5.65 3.95-2.55-1-9.55 4.55 2.45 2.4 1.85.95 5.25 2.5 5.85-1.7 2.7 2.4 9-1.55 2.55 1.25-1.75.75-13.8 5.55h-8.2l-5.25-5.05H131.3l-9.35 3.45-4.35 8.2-6.35 9.5h-8.2l1.7-3.4 5.45-4.45v-6.25l6-3.15 1.4-6.55-4.15-1.55 2.05-3.2-4.75.8-5.1-8.65v12.05l-4-.65-1.95 11.8-3.35 2.8 1.7-4v-6.7l-2.25-3.15-.6-3.15 6.15-2.25 1.7-6.85-.85-1.7 3.3-2.15 4.85 3.7 1.45-4.35 2.8 3.35 3.15 2.6-1.5-9.5m5.5 10.6-4.15 2.15-2.1 3.25 2.1-3.25 4.15-2.15m-1.55-4.7-1.75-4.55 1.75 4.55m3.95 11-4.65 2.75-1.9 1.1 1.9-1.1 4.65-2.75m-.4 2.75h-4.25 4.25m18.7-8.3-1.35-1.4 1.35 1.4" transform="translate(192.55 294)"/><path fill-rule="evenodd" fill="#7d645f" d="m93.35-117.25-3.1 1.1 3.4-14.7-4.8-7.65 2.25-1.15 2.55 8.8-.3 13.6" transform="translate(192.55 294)"/><path fill-rule="evenodd" fill="#58403c" d="m173.05-136.25-1.45 1.15-.3-.4 1.75-.75M81.9-113.1l-1.65 2.25-4.3 3.45-2.85 2.25-1.15-3 .85-.95 3.15-4.8-.8-2.95-.75-2.9 3.2-2.8v7l6.2-7 .05-9.5.5-1-.8-2.8 5.3-2.65-2.05 18.55-4.9 6.85M64.65-84.2l2.6-2.7.3 3.3-2.9-.6m3.5.7 5.65-1.4 2.8 4.15 5.6-1.45 1.15 1.65-1.95 1.9 2 1.35 5.95-2.4-4.1 3.9H80.5l-1.1-.95-4 3.8h-2.85l1.1-.85 1.05-.85v-2.85l-6.55-6m13.25 4.85-2 1.9 2-1.9" transform="translate(192.55 294)"/><path fill-rule="evenodd" fill="#c29070" d="m112.6-181.3 1.15-2.85 5.8-.3-6.95 3.15m-3.5-20.35 2.65-2.15h6l10.25-7.7 3.6.85 3.4-2.15 6.15 2 2.4 10.6-4.25 6.95-4.55-3.05 3.35 6.5-2.15 6.3-4.45 3.1.95-3.3-3.15-4.7-5.75-.3 2.45 3-6.25-2.15-3.8.9 2.8-3.15 2.85-3.15h5.7l5.65 4-1.35-7.75-7.15.2v-3.55l8.15-1.95 4.05 2.3-4.75-4.35h-3.45l-2 2-2.3-2.05-3.1 6.15-.35-.05-1.55-.5-4.9-1.4-2.5 6.3-2.15-1.8-.5-5.95m20.65 27.2-.6 2-3.45 1.3.1-4.85-3.9-6.4v-.55l2.9.45 4.5 4.7.45 3.35m3.55-29.9h-1.4 1.4m-9.95 30.65-3.8-4.25-1.5-1.25h3.1l.75 1.1 1.85 4.05-.4.35" transform="translate(192.55 294)"/><path fill-rule="evenodd" fill="#814f3b" d="m114.05-184.8-4-.9-3.55-3.7 4.25-1.95 1-2.55 2.5-6.3 4.9 1.4 1.55.5.35.05-3.2 2.3.9 5.85-2.8 3.15-1.9 2.15" transform="translate(192.55 294)"/><path fill-rule="evenodd" fill="#8f614f" d="m121.05-198.25 3.4 1.45v3.55h-2.85l-2.85 3.15-.9-5.85 3.2-2.3" transform="translate(192.55 294)"/><path fill-rule="evenodd" fill="#956957" d="M124.45-200.35v3.55l-3.4-1.45 3.1-6.15 2.3 2.05-2 2 2-2 2-2h3.45l4.75 4.35-4.05-2.3-8.15 1.95m0 3.55 7.15-.2 1.35 7.75-5.65-4h-2.85v-3.55" transform="translate(192.55 294)"/><path fill-rule="evenodd" fill="#927468" d="M140.45-171.45h-5.3l-4.85-5 1.2-3.95 4.45-3.1 2.15-6.3-.15 7.1-2.3 4.55v4.9l4.8 1.8m27.15 14.85.5.15-1.4 7.1-2.45 2.05h-4.45l-3.35 4.45-.1.6-2.2 1.1h-4.25l-2.2 2-1.85-.95-2.45-2.4 9.55-4.55 2.55 1 5.65-3.95 2.75.3 3.7-6.9m4 21.5-9.1 7.3-4.9-.15-3.4.15q-3.9.6-7.05 1.7l-7.3-4.7h-6.55l-8.15 2-1.4 5.7-3.7 3.2v3.2l-5.6 6.45h-8.55l-2.85-3.6h8.2l6.35-9.5 4.35-8.2 9.35-3.45h12.75l5.25 5.05h8.2l13.8-5.55.3.4m-51.55 12v3.2-3.2" transform="translate(192.55 294)"/><path fill-rule="evenodd" fill="#a8897b" d="M160.95-181.7h-7.15l-1.6 4.6h-5.5l-6.25 5.65-4.8-1.8v-4.9l2.3-4.55.35 1.3-2.65 3.25 3.9 2.9 4.65-3.95h3.4l4.55-2.75 4.75-1.55 4.05 1.8" transform="translate(192.55 294)"/><path fill-rule="evenodd" fill="#b6886f" d="m125.5-158.05 2.8 2.55v3.85h3.3v2.9l7-2.3.95 1q-.9 1.15-1.4 2.55l.15.45q.65 2.2 1.5 3.45h-.6l-.6-.3-.3-.1-1.4-.15q-2.65-1.25-5.05.55l-1.3 3.85q-.45-.6-.45-1.35 0-2.7-.5-4.8-2.8 1.15-5.15 3.05l-.2-.25q1.1-7.5 1.25-14.95M111.7-99.8h5.05l6-5.6q3.3 1.5 6.7 3.05h4.15v8.8l-6.25 3-.45.15-2.15-6.7-8.2 5.55-5.65-2.1 1.5-4.3-.7-1.85m16.6-48v-3.85 3.85m3.3 2v-2.95 2.95" transform="translate(192.55 294)"/><path fill-rule="evenodd" fill="#b08773" d="m88.15-99.15 2.35.45 4.5 3.8 4.5-1.6 7.45-5.15h4.15l-2.3 5.45-7.9 6.4h-6.35l-3.2 2.65v-5.65L90-87.95l-2.35 2.8-2.55-2.7 1.2-1.05.45-2.15-.45 2.15-1.2 1.05-3.15 2.65-2.6-2.8 4.35-3.25 4-4.4-.95 4.6 3.25-4.3-1.85-3.8" transform="translate(192.55 294)"/><path fill-rule="evenodd" fill="#af7e62" d="m111.1-101.65.6 1.85.7 1.85-1.5 4.3-2.1-2.55 2.3-5.45m15.8 11.25.45-.15-.4.25-.05-.1" transform="translate(192.55 294)"/><path fill-rule="evenodd" fill="#c19e8c" d="m133.6-102.35 2.75 6.9-1.95 6.9-4.8 1.5-2.25-3.5 6.25-3v-8.8m10.2 24.8 6.15 4.8 1.05.85v3.15l-4.55.75-4.8-4.05 2.15-5.5m11.85 8.6 8.25 3.2V-64l-8.25-1.5v-3.45" transform="translate(192.55 294)"/><path fill-rule="evenodd" fill="#b08e7b" d="m136.35-95.45 4.8.9 2.75 6.75-2.35 3.35 3.15 1.55-6.05 6.35-3.5-4.75 1.8-8.05v-4.45l-.6-1.65m13.6 22.7h3.55l-2.5 4v-3.15l-1.05-.85m-10.75-8.3 2.35-3.4-2.35 3.4" transform="translate(192.55 294)"/><path fill-rule="evenodd" fill="#957362" d="m144.7-82.9-.9 5.35-2.15 5.5 4.8 4.05 4.55-.75 2.5-4 2.15 3.8v3.45l8.25 1.5v1.8h-10.7l-6-3.55-6.1-1.7-9.1-11.8 3.15-2.05 2.85 6.85.65-2.1 6.05-6.35" transform="translate(192.55 294)"/><path fill-rule="evenodd" fill="#ae8d7d" d="m135.15-81.3 3.5 4.75-.65 2.1-2.85-6.85" transform="translate(192.55 294)"/><path fill-rule="evenodd" fill="#ffd67d" d="M30.3-135.05q.35.25.1.4l-.95.1-.05-.1q-.2-.4.15-.65H30l.25.15.05.1m-1.7 4.6-.3.75h.75l-.05.2-.65 1.1-.6.8.1.35-.1.15-.15.2-.25.25h-.3l-.35-.15v-.3q.05-2.2 1.9-3.35" transform="translate(192.55 294)"/><path fill-rule="evenodd" fill="url(#g)" d="M41.2-100.7q1.5-.35 2.65-1.5 1.45-1.4 1.65-3.3l2.75-.65q.35.95.35 2.1 0 2.75-2.3 4.7-2.25 1.85-5.3 2l.35-1q.4-1.55-.15-2.35m-5.4-1.95.4.45q1.2 1.2 2.75 1.5-.8 1.3-1 3-1.65-.5-3-1.65-1-.9-1.6-1.95l2.45-1.35" transform="translate(192.55 294)"/><path fill-rule="evenodd" d="M41.2-100.7q-.45-.65-1.6-.8l.25-.35-.3.35h.05l-.65.8q-1.55-.3-2.75-1.5l-.4-.45 2.05-1.2 7.65-1.65q-.2 1.9-1.65 3.3-1.15 1.15-2.65 1.5M-.7-118.95l1.55 2.35 2.4 4.5-1.25.15q-1.7 0-2.9-1.15-.8-.85-1-1.9l1.6-.6-.3-.55-1-.4.35.25-.7-.4q.15-1.15 1.05-2.1l.2-.15m-.9 2.4-.35-.15.35.15" transform="translate(192.55 294)"/><path fill-rule="evenodd" fill="#fff" d="m38.95-100.7.65-.8h-.05l.3-.35-.25.35q1.15.15 1.6.8.55.8.15 2.35l-.35 1q-1 2-3.1.75l-.05-.5.1-.6q.2-1.7 1-3m-43.7-14.15-1.9-.55.15-.15 1.75-1.2 2.8.05.7.4-.35-.25 1 .4.3.55-1.6.6-2.85.15" transform="translate(192.55 294)"/><path fill-rule="evenodd" fill="url(#h)" d="m37.95-97.7-.1.6.05.5q2.1 1.25 3.1-.75 3.05-.15 5.3-2 2.3-1.95 2.3-4.7 0-1.15-.35-2.1l2.25-.5.4 2.8q0 4.3-3.05 7.35-3.1 3-7.35 3-4.35 0-7.4-3-1.5-1.55-2.2-3.35l2.45-1.45q.6 1.05 1.6 1.95 1.35 1.15 3 1.65" transform="translate(192.55 294)"/><path fill-rule="evenodd" fill="url(#i)" d="m35.1-92.4 3.8 1 .25.7 1.6 4.5h-1.2l-3.65 9.25h-2.6v-1.25l4.3-9.4-2.5-4.8" transform="translate(192.55 294)"/><path fill-rule="evenodd" fill="url(#j)" d="M45.7-81.3v3.85l3.2 1.95-6.05 10.55-7.9 4.2 2.45-4.2-.4-.65q.15-2.4.6-4.7l.25-1.3.2-1.2q-1 2.15-3.85 5.65l-.1.3q.85 3.3.05 6.5l-4.7 2.55-2.8-1.65 4.05-5.7q.05-2.3.5-5.15l.7-3 .2-.5 5.5-.7 3.85-9.3h4.25v2.5m-9.85 7.8q-1.4 1.55-2.3 3.6l-.1.35q2.25-.8 2.85-3.5l.05-.25-.5-.2m9.75.5-.45-.9q-.35-.7-.4-1.5l-.05-1-.5-1.4q-.4 5-3.2 9.3l-.05.1L45.6-73" transform="translate(192.55 294)"/><path fill-rule="evenodd" fill="url(#k)" d="m57.4-70.05 8.5-5.9 7.75 2.15-1.1.85-2.1 1.7 2.5 3.45 5.85 1.85 2.85 4.7-6-2.3-7.5-1.4-4.4 3-.9 1.6-2.95.55-3.25 2.85 1.55-6 6.25-6.15-7.95 3.35.9-4.3" transform="translate(192.55 294)"/><path fill-rule="evenodd" fill="url(#l)" d="M33.3-78.2v1.25l-1.2 3.15-.35.15q-2.15 3.6-4.85 6.9-.15.2-.15.4.7 3.45-.4 6.7L16.1-65.5h-26.75l-20.3-12.3.4-1.9 5.35-10.8-.55-2.3v-3.7l2.1 2.6 1.7-2.85 2.95-3 2.85 1.6v5.75l9.7 2.45-.2.75-.3-.05q-.7 2-1.85 3.8l-.4-.2.4.25-1.75 2.15-.15.2q.15 3.35-.05 6.95.75-4.35 3.45-8.35v-1.25l6 1.8L0-86.55l3.95 1.25v2.5l2.55-.65.3 1.5 2.7 2h2.8l1.5-.95 1.75.65v3l3.6.8 2.25-3.45 11.9 1.7m-42.5-7.45.8-2.85.75-.75h-.5l-.25.75q-2.2 2.35-4.35 3.55l-.3 1.65-2.9 2.4q.1 4.9-1.45 10l4-8.4v-.6q1.1-1.2 1.2-2.95l3-2.8M30.55-73.3v-.2q-.25-1-.15-2l.8-1.1-.5-.5-.3 1.6q-2.2 2.95-3.65 6.25 1.65-2.25 3.8-4.05m-48.8-20.95.5-2.25q-1.7 4.85-4.4 9.2-.3.45-.2 1.15l.15 2.9q1.3-5.4 3.75-10.5l.2-.5m.7 6.95.5-.75-.7-2.05-2.4 2.4.55 4.25q-.8 2.9-1.9 5.35l3.25-4.85q-1-2 .7-4.35m29.25 9.85-.85 1.25-1.9 1.5-1.5 9.1q2.45-5.3 4.25-11.5v-.15l.15-.85-.15.65m3.55-.5h-.1l-.7.85q-.45 1.65-2.9 4.3l-.15.15.1 2.65-.45 3.85 1.55-3.75 2.2-6.5-.2-.55.55-.65.1-.35m-16.4-5.5q-1.5 2.3-2 5.15l-.05.2.6-.45.45-.4q1.1-1.2 1.3-3.45l.05-.55-.35-.5m-2.7 3.1.05-1.05.6-.5-.5-.7-.1 1.2q-2.25 2-2.1 5.3v.2q1.85-1.6 2.05-4.45" transform="translate(192.55 294)"/><path fill-rule="evenodd" fill="#da9450" d="m-9.2-85.65-3 2.8q-.1 1.75-1.2 2.95v.6l-4 8.4q1.55-5.1 1.45-10l2.9-2.4.3-1.65q2.15-1.2 4.35-3.55l.25-.75h.5l-.75.75-.8 2.85M36.35-73.3l-.05.25q-.6 2.7-2.85 3.5l.1-.35q.9-2.05 2.3-3.6l-.15.3.65-.1m-5.8 0q-2.15 1.8-3.8 4.05 1.45-3.3 3.65-6.25l.3-1.6.5.5-.8 1.1q-.1 1 .15 2v.2m15.05.3-4.65 4.6.05-.1q2.8-4.3 3.2-9.3l.5 1.4.05 1q.05.8.4 1.5l.45.9m-63.85-21.25-.2.5q-2.45 5.1-3.75 10.5l-.15-2.9q-.1-.7.2-1.15 2.7-4.35 4.4-9.2l-.5 2.25m29.95 16.8.15-.65-.15.85v.15q-1.8 6.2-4.25 11.5l1.5-9.1 1.9-1.5.85-1.25m-15.55-2.9q-.2 2.85-2.05 4.45v-.2q-.15-3.3 2.1-5.3l.1-1.2.5.7-.6.5-.05 1.05" transform="translate(192.55 294)"/><path fill-rule="evenodd" fill="#8c5236" d="m48.9-75.5-2.4 13.25-12.15 8.7-3.75 2-13.8-2.3L3.7-59.8H-6.55l-8.3-2.7-16.1-15.3 20.3 12.3H16.1l10.25 5.85q1.1-3.25.4-6.7 0-.2.15-.4 2.7-3.3 4.85-6.9l.15.35-.7 3q-.45 2.85-.5 5.15l-4.05 5.7 2.8 1.65 4.7-2.55q.8-3.2-.05-6.5l.1-.3q2.85-3.5 3.85-5.65l-.2 1.2-.25 1.3q-.45 2.3-.6 4.7l.4.65-2.45 4.2 7.9-4.2L48.9-75.5M-7.3-85.7v1.25q-2.7 4-3.45 8.35.2-3.6.05-6.95l.15-.2 1.75-2.15v-.05q1.15-1.8 1.85-3.8l-.35 2.55v.45l-.1.5.1.05-.1-.05.1-.5v.55m-10.25-1.6q-1.7 2.35-.7 4.35l-3.25 4.85q1.1-2.45 1.9-5.35l-.55-4.25 2.4-2.4.7 2.05-.5.75m32.8 9.35-.1.35-.55.65.2.55-2.2 6.5-1.55 3.75.45-3.85-.1-2.65.15-.15q2.45-2.65 2.9-4.3l.7-.85h.1m-16.4-5.5.35.5-.05.55q-.2 2.25-1.3 3.45l-.45.4-.6.45.05-.2q.5-2.85 2-5.15m-6.15-2.4-.1.1.1-.1" transform="translate(192.55 294)"/><path fill-rule="evenodd" fill="url(#m)" d="m62.85-60.35.9-1.6 4.4-3 7.5 1.4 6 2.3-3.1 3-5.85-.3 1.7 1.75 4.15 1.25 4.95 1.6v3.85l-5.9 2.7h-2.8l5.85 5.7-2.7 5.25h-7.1L66.9-40.4l-3.75 2.7-6.4 1.25.15-3.55.15-3.55 6.25-6.55 7.15-2.75v-4.95l-4.6-3.05-3 .5m6-1.05-3 .55 3-.55M67.8-44.9l-.35.3q-2.8 2.55-5.95 4.6l-.2.45.95.1q.25.35.65.1l2.5-1.9q2.05-1.5 4.55-1.45 2.55.05 4.15 1.9l.45-.45 1.1-1.35.55-1.1-.55.1-7.85-1.3m-5-1.15h.35q2.2-.75 4-2.15 2.95-2.3 6.35-.9 2-.1 3.1-1.7l1.35-2.6q-1.55 1.35-3.65 1.85l-5.65 1.35q-4.4.6-6.9 5.05l1.05-.9m6.2-.8-7.95 3.7-4.3 6.7 4.3-6.7 7.95-3.7" transform="translate(192.55 294)"/><path fill-rule="evenodd" fill="#73402e" d="m56.65-56.95 3.25-2.85 2.95-.55 3-.5 4.6 3.05v4.95L63.3-50.1l-6.25 6.55L56.9-40 54-42.3l.75-4.25 6-8L52.4-50l1.05-4.1 3.2-2.85m26.85 3L86.95-50 84-45.9l-1.8-.75-1.8-.75h-2.8l5.9-2.7v-3.85m-60 29.3V-28l-1.95-1.85-1.35 1.2-.65-1.45H13.7l-3.6-2V-35v2.9l-2.4 1.15-4.15 3.35v9.2l-5.3 4.6-1.45-.85 5.05-5.15v-6.35l-2.6-3.7 4.35-.55 3.25-2.3v-5l-1.9-1.85 5.15 2.85v1.7l5.15 3.85h3.4l4-4 3.85 1L24.05-32l4.3 2.3 3.7-1.9V-35l1.45 4.85v1.7l-4 1.15 1.55 4.5 5 2.85 4.15-3.1 2.5-2.85-.95-4.45h.05l3.15 3.2.15.9.55 3.35.35 1.85 1.55 1.95.95-.4.75-7.3 1.1 1.8 2.1 5.2 8.85-2.4v-2l-2.45-5.35-4.15-2.05h8.2l6.95 4-.25-5.85-6.45-4.25 3.75-2.7 3.95 3.95h7.1l2.7-5.25-5.85-5.7h5.6l1.8.75 3.6 4.95-2.45 8.2-9.4.8 1.05 7-4.2 2.8-6.9-3.55L65-25.3l-2.1 5.35-9.15 1.85-3.3-1.95v2l-4.4 2.3-2.35-4.65-3.85 5.15-3.95.4-4.1-6.05-5.35-1.35-2.95-2.4m55.05-33.6v2.7L74.4-56.8l-1.7-1.75 5.85.3M60.45-28.7l-1.6-.85 1.6.85m-19.7 9.05 2.45-4.15-.5-2.1.5 2.1-2.45 4.15M-42.5-79.2l3.45 6.1-1.6 4.15v2.55h-3.4l5.85 2.6v5.4l3 1.6h2.9l-6.4 2.85-3.5-1.85-5.55 3.25v7.15h-6.1l3.15-9.45 8.8-5.05-3.35-5.85 1.2-.65v-7.25l-6-1.85 6 1.85v7.25l-1.2.65-7.85 4.05 6.25-7.8-3.2-6h5.15l2.4-3.7m14.45 25.55 1.4 3.25-1.85 7-5.4 4.25v4.6h-9l-.3-.2-.85 1.45-5.25 2.35.7 2.65-2.1 3.1 1.25 1.55 5.9 4.65 7.5-1.35 2.85 3-4.55 4-9.15 4h-7.3v-3.3l5.55.5 5.1-3.25-7.9-4h2v-4.25h-3.1l-1.2-3.9-1.85-.75 3.85-3.8-1.7-4.6h2.7l.4 1.4h2.75l2.45-5-2.6-2 5.4-1.1v1.85L-39.3-40l6.8-5.4v-6.75l4.45-1.5M-58.7-17.6l-7.15-3.05h6.15l1 3.05m-1.45-14.55-4.15-2.55v-3l6.55-1.65v2.95l-2.4 4.25m-3.25-7.45-4.9-2.1v-3.45l-3.85-5.1 1.45-3.6v-5.85l1.95 7.55 3.4 2.15 6.55-2.5-4.65 4.95L-61.9-43l-1.5 3.4m-.3-25.35-2.9-3.45 4.85-6 6.35-1.6 2.35 1.8-1.25.7-6.7 2.4-1.25 3.05L-63.5-65l1.25-3.05h4.65q-2.95 1.55-5.9 3.05l-.2.05m-2.9-7.3H-72l-1.7-3.95 6.8-5.25 7.8-2.45 4.25 1.55-5.9 2.3-4.55 3.25-1.3 4.55m1.7-15.1 1.6-3.15 5.85.4-7.45 2.75m14.55 52.05 1.05 4.35-1.05-4.35m-.35 10.1-1.2-1.55-1.85-.8 1.85.8 1.2 1.55M24.05-32l-2.5 2.15 2.5-2.15m5.45 4.7-4 1.15-2-1.85 2 1.85 4-1.15m-71.85-14.25v5.4l-.85 1.4.85-1.4v-5.4m-2.4 22.75 1.2-.2-1.2.2" transform="translate(192.55 294)"/><path fill-rule="evenodd" fill="#b89a8d" d="M-52.9-222.5h2.55l2.35-2.95h7.3l6.8-4.45v4.3l-3.25 2.65-6.3 1.35-2.25 3.55.55 3.75.95.7-2.6.75-3.4 4.15.3 5 .35 4.95-2.75.95-4.35-4.8h-3.2l1.95-5.5 3.05-2.8-6.25-.05-1.35 2.7-3-3.5 1-3.95 5.45 3 6.25-4.75 7.05-.6-1.45-1.7h-3.25l-2.5-2.75m-1.95 9.1v2.5l4.3-4.95-4.3 2.45m9.7-.9-5.4-1.55 5.4 1.55m-8.3 7.25 3.55 3.35-3.55-3.35" transform="translate(192.55 294)"/><path fill-rule="evenodd" fill="#cfa78d" d="m-55.7-220 2.8-2.5 2.5 2.75h3.25l1.45 1.7-7.05.6-6.25 4.75-5.45-3 6-1.45 2.75-2.85m-6.75 11.75 1.35-2.7 6.25.05v-2.5l4.3-2.45-4.3 4.95-3.05 2.8-1.95 5.5-2.6-2.15v-3.5" transform="translate(192.55 294)"/><path fill-rule="evenodd" fill="#dfba97" d="m-55.7-220-.95-3.1v-2.1l3.35-2.25 2.9.55 7.45-2.3 9.05-.7-6.8 4.45H-48l-2.35 2.95h-2.55l-2.8 2.5" transform="translate(192.55 294)"/><path fill-rule="evenodd" fill="#924d2b" d="m-82.35-200.5 1.95 1.25v8.2l-8.45 4.1 1.7 2.6-2.75 1.15q-2.15.95-3.15 2.1l7.25-1.25 3.6 5.5q-4.4-.45-7.15 4.4h-1.45q4.55 1.25 9.6 0l1.95 10.65q-5.1-.4-9.4 2.3-.8 1.65-.45 3.15l.45-.55q2.55-.85 5.2-.75l7.35 7.1-.05 1.5q.1 5.9-4.8 8.55 5.3 1.85 7.5-4.35l1.15 5.9-7 6.4-4.1-3.4-4.7-6.15 2.05-.1q5.3-1.1 6.5-5.65 1.1-.7 1-1.8h-.75q-.05.95-.25 1.8-.3.2-.7.35-5.55 2.25-10.75 1l-2.05-11.4q2.4-4.4 7.9-5l.55-2.55.5-.8.2-2.05q-.05-.95-.7-1.05l1.05-1.85-11.15 4.55-1.2-6.9q3.9-2.9 7.9-3.4l-1.3-1.85q-4.3-.35-7.85.75l-1.2-2.35 4.9-4.35v-1.6H-94l-6.55 1.65-.45-.95 5.9-8.75 12.75-6.1m-18.5 37.75 3.15 13.65-9.2.05-1.05 1.95q-4.3.75-7.35 4.9h.1q2.85-.3 5.25-1.2l-5.5 10.3v7h-4.3l5.05 10.25-4.85 6.45-.5 1.15q.95.5 2.05-.35 2.2-1.7 4.45-3l-2.9 7.75 1.35 3.2-.95 1.55q-1.85 3.2-1.55 6.45l.7-.1 3.6-3.7 2.45 5.5v18h-1.9l4.85 6.1-7.65-2.5-1.1-5.3.75-14.1-4.3-5.7 2-6.9-1.6-.3q-2.8 1.45-3.8 2.75h-.05l1-2.75h.55q.7-.05.5-.75l-.35-.5-1.75-1.9q-.3-1.3.15-2.45 2.1-5.55 5.85-9.5-2.95-.3-5.9 1.55l-1.2.8.5-5.85v-11.4l6.55-8.45v-.8l.8-.6q-1-3.4 2.8-5.9 3.75-2.5 7.9-4.3l-7.5-.3q-2.3.25-4 1.2v-2.85q2.75-1.3 5.55-2.7l6-6.4h5.35m-1.25 13.05 4.4.6-4.4-.6m52.65 6.65h7.75l1.3 3.8-2.3 3.7 3.85 11.15-.6 4.4-2.15 1.7-3.1-2.25.55-10.2-5.3-4.55v-7.75" transform="translate(192.55 294)"/><path fill-rule="evenodd" fill="#542b1e" d="m-80.4-199.25 11.05 6.8-4.35 6.75v7.25l-1.9 7.25 8.8 28.3v5.4l-4.15 5.95-4.2 2.3-4.15-3.3 7-6.4-1.15-5.9q-2.2 6.2-7.5 4.35 4.9-2.65 4.8-8.55l.05-1.5-7.35-7.1q-2.65-.1-5.2.75l-.45.55q-.35-1.5.45-3.15 4.3-2.7 9.4-2.3l-1.95-10.65q-5.05 1.25-9.6 0h1.45q2.75-4.85 7.15-4.4l-3.6-5.5-7.25 1.25q1-1.15 3.15-2.1l2.75-1.15-1.7-2.6 8.45-4.1v-8.2m16.55 60.95 1.6-2.3-6.5-22.15-2.3-8.05 2.45-7.3 1.55 5.35 1.55 5.45-1.6 2.25 6.6 13.85 9.2 5.2-2.4 6.4 4.25-3.45-3.3 8.75 4.85 4.85v13.4l3.5 1.8 10.65-1.7-.85 3.9-9.55 10.7-4.65-1.2-6.15-6.6-2.65-2.9-1.05-5.5-.55-3.1-1.6-8.35 2-4.9-5.05-4.4m-33.85-10.8.8 3.25 5.3 7-1.2 4.35-7 10.55-6.4 3-6.8-5.15h-2.45l7.4 7.85 7.7 29.75-3.2 19.7-4.35 1.95-4.85-6.1h1.9v-18l-2.45-5.5-3.6 3.7-.7.1q-.3-3.25 1.55-6.45l.95-1.55-1.35-3.2 2.9-7.75q-2.25 1.3-4.45 3-1.1.85-2.05.35l.5-1.15 4.85-6.45-5.05-10.25h4.3v-7l5.5-10.3q-2.4.9-5.25 1.2h-.1q3.05-4.15 7.35-4.9l1.05-1.95 9.2-.05m44 9.5-4.15 3.35-.95 2.35.95-2.35 4.15-3.35m-13.4-25.45-1.65 2.3 1.65-2.3" transform="translate(192.55 294)"/><path fill-rule="evenodd" fill="#854527" d="m-69.35-192.45.65 6.3.7 6.3-.6 1.75-2.45 7.3 2.3 8.05 6.5 22.15-1.6 2.3-2.95 4.35-4.15 2.4 4.15-5.95v-5.4l-8.8-28.3 1.9-7.25v-7.25l4.35-6.75m-22.25 53.6 1.45 1.9-.45 3.45-6.45 13.65-6.95 5.15-1.1-5.4-1.1-.85 1.1.85 1.1 5.4 3.7 16.8 9.3-4.25 10.5-16-4.55 2.45H-91l10.05-6.85 6.05 3.25 5.65-1.15 5.8 2.05 3.2-1.4 1.05-.85.55 3.1-6.45 2.75-7.75-1.7-5.2 1.95-4.75 9.6-7.7 7-5.75 2.6-3.35.75 1.65 7.3-4.55 18.05q-.5.25-1.05.45l3.2-19.7-7.7-29.75-7.4-7.85h2.45l6.8 5.15 6.4-3 7-10.55 1.2-4.35m18.75 22.35-7.65-1.65 7.65 1.65M-99.6-94.6l-.7-3.3.7 3.3" transform="translate(192.55 294)"/><path fill-rule="evenodd" fill="#997467" d="m-39.95-214.75 1.35-2.95 3-.95 2.95 3.4v5.1l-3.05-4.6h-4.25m11.95 1 5.05 8.4-1.35 6.45-3.2 3.65h-2.2l.65-2.5-1.15-1.75-4 .25h-.1l-1.85-4.55 3.95-3.6 2.35 2.9v-2.7l1.85-6.55m12.45 25.65 1.15 2.5-5.15 1.9-3.25 4.1-3.1 2 1.1 1.45v6.25l1.6.55 6.45-2.75 1.85-4.1v6.25l-1.6 2.8-6.7 3.25-4.5-7-1.25 1.7-5.8-1.8-5.8-6.5v1.35l-.2.5-4.3-2-2.35-3.75v-4.3l-2.1-.65-3.85-3.55-.95-3.35 2-4.55 2.65 6.3 6.95-3.3h4l-6 3.3v6l10-5.05 8.6 1.95-1.5.2h-4.6l-2.4.55-1.9 4.05v7.65l6.25 3.3-.75-6.05 7.3-7.1 8.15-2.1m-34-10.65-.35-4.95-.3-5h7.85l6.2 4.9-7.25.15-6.15 4.9m16.25-13.9-2.4-2.1 2.4 2.1m-13.15 23.4-.95 1.45v2.1-2.1l.95-1.45m11.85 1.4-2.35.5-3.6 4.8v5.05-5.05l3.6-4.8 2.35-.5" transform="translate(192.55 294)"/><path fill-rule="evenodd" fill="#c49373" d="m-44.2-213.6 4.25-1.15h4.25l3.05 4.6v-5.1l-2.95-3.4 3.05-.95 4.55 2v3.85l-1.85 6.55v2.7l-2.35-2.9-3.95 3.6 1.85 4.55h.1l4-.25 1.15 1.75-.65 2.5h4.4l2.6 3.5-1.9 2.95-1.5.2-8.6-1.95-10 5.05v-6l6-3.3h-4l-6.95 3.3-2.65-6.3 2.75-.95 6.15-4.9 7.25-.15-6.2-4.9h-7.85l3.4-4.15 2.6-.75m-5.4 18.65q.9.45 2.2-.3l.7-.1q1.15-.75 1.85-2.1l.15-.25q2.25-.75 4.05-2.5l1.25-1.15h1.1q-1.1-.7-2.25-1l-.3-.1q-3.25 4.25-8.75 6.05l-.4.75.4.7m5.05-16.05v1.6q3.35-2.1 6.6 1.5l.35.3.9-.35q.8-1.55-.1-3.3-.45-.9-1.5-1.3l.55-.15q-3.35.45-6.8 1.55v.15m14.85-6.45-2.55-.95.15 1.15h.55q2.3 2.5 1 5.85-.15.4.1.5 1.85-1.65 1.8-4.35l-.15-1.1.4-.9q-.25-.4-.75-.2h-.55m-2.25 19.75-.5.55q-3-.8-5.9.5l-.15.1-.75.5 7.5-.75q.8-.05.4-.7-.25-.4-.6-.2m-2.35-1.55-5.1.35-2.55 1.8 2.55-1.8 5.1-.35m-1.5 4h6.1-6.1m-4.95 4.05-.85 1.15 9-2.45 1.05-.05.35.55 1.25.35.6.55q1.4.25 2.65-.55l.45-.5q-3.6-1.05-7.3-1.5h-.2l-3.65.7-1.85 1.1q-.9 0-1.5.65m14.5-.95.4.15-.55-.75.15.6" transform="translate(192.55 294)"/><path fill-rule="evenodd" fill="#e8c090" d="m-49.6-194.95-.4-.7.4-.75q5.5-1.8 8.75-6.05l.3.1q1.15.3 2.25 1h-1.1l-1.25 1.15q-1.8 1.75-4.05 2.5l-.15.25q-.7 1.35-1.85 2.1l-.7.1q-1.3.75-2.2.3m21.7 10.25-1.45.9-1 .4q-.6.2-1 .7 0 1.15-.45 2.45-.35 1.15-1.05 1.95l-1.8-1.3-.2-.75.05-.3.35-1q.9-2.3 2.2-4l5.15-.3-1.55.3.75.95m-4.05-13q.35-.2.6.2.4.65-.4.7l-7.5.75.75-.5.15-.1q2.9-1.3 5.9-.5l.5-.55m-8.8 6.5q.6-.65 1.5-.65l1.85-1.1 3.65-.7h.2q3.7.45 7.3 1.5l-.45.5q-1.25.8-2.65.55l-.6-.55-1.25-.35-.35-.55-1.05.05-9 2.45.85-1.15m14.5-.95-.15-.6.55.75-.4-.15m12.65 8.5h.1l-.5.2-.9 1.85q-4.05 2.2-3.65 6.95l-.85.05q-2.4.75-3.75-.25l.3-.4q2.65-2.3 2.6-5.6l.45-.35q3.1-1.4 6.2-2.45" transform="translate(192.55 294)"/><path fill-rule="evenodd" fill="#391714" d="m-68.7-186.15 8.65 4.9 1.85 4.3 7.3 1.95 2.95 5.65 4.35 2.3.7 2.75v.05l7 2.35 6.25 7.55-.9 2.65 8.55.5v2.2l1.6 3.55-1.15 1.35v5.7l1.95 5.6v14.1l-1.1 1.75h-3.4l-2 2.25h-3.85l-3.8-1.25.85-3.9-2.65-3.95-1.25-1.9-.85-1.25-2.1-8.95 2.2-5.2v-12.4l-1.75-3.85-5.65-1.2-2.55-1.1-11.15-4.7-3.25-7-5.15-1.4-1.55-5.35.6-1.75-.7-6.3m12.25 18.85v-5.45l-1.75-4.2 1.75 4.2v5.45m23.55 22.8 2.35-7.2-2.35 7.2m-9.3-16.95-.7-2.8.7 2.8m-5.75-7.9 2.9 5.6-2.45 4.1 2.45-4.1-2.9-5.6m12.4 45.55 1.85-3.05-3.1 1.15 3.1-1.15 3.2-1.1 5.15-9.85-5.15 9.85-3.2 1.1-1.85 3.05" transform="translate(192.55 294)"/><path fill-rule="evenodd" fill="#6a3621" d="m-65.5-167.3 4.1 7.25 17.6 6.45 6.25 6.3v6.2l-2.2 5.2 2.1 8.95.85 1.25 1.25 1.9 2.65 3.95-.85 3.9-10.65 1.7-3.5-1.8v-13.4l-4.85-4.85 3.3-8.75-4.25 3.45 2.4-6.4-9.2-5.2-6.6-13.85 1.6-2.25m16.05 24.25v7.75l5.3 4.55-.55 10.2 3.1 2.25 2.15-1.7.6-4.4-3.85-11.15 2.3-3.7-1.3-3.8h-7.75" transform="translate(192.55 294)"/><path fill-rule="evenodd" fill="#864831" d="m-4.5-195.35.15-.05-.05.55-.1-.5" transform="translate(192.55 294)"/><path fill-rule="evenodd" fill="url(#n)" d="m-.75-201.15 10.25 6.5-1.7 13.6 7.25 2.85-4.65 8.55-3.55 12.35 2.75-3.6-1.8 7q-.5 4.5-1.55 8.8l-.15.45 1.15 2.6h-10.4l-3.55-2.8-7.65 6.2v-6.05l5.05-7.45v-11.65l-2.25 1.5-1 4.85-2.25 5.25-2.8 3.35-.8-3.9 2-5.75v-4.25l3.3-6.85-1.8-6.6v-3.9l7.05-2.5 2.3 3v3.9l2.25-5.4-.9-3.65 3.45-16.4m-1.45 12.8-.25.4 1.5 3.05q.5 1.45.65 2.95.5-1.45.55-3.15.05-1.55 1-2.55-.3-1.35-.3-2.75 0-.85.3-1.7l.15-1.65.45-.75-.45.4v.35q-1.65 2.75-3.6 5.4m4.2 9.1-1.75-1.6q-3 3.8-2.15 9.5.5 3.6.4 7.15-.1 2.95-2.9 4.3l-.3.55q-.1 4.7-2.5 9.2-.95 1.75-2.05 3.35l6.2-4.4q.95-.55 1.6-1.3-.45-.75-.45-2.15v-2.7l.45-.25q1.35-3.5 3.95-6.75.8-1 1.2-2.25l-1.3-.3q-3.6-5.35-.85-11.5l.45-.85m-5.9 7.2-1.65-3.65 1.65 3.65" transform="translate(192.55 294)"/><path fill-rule="evenodd" fill="#e6bd8d" d="M-29.7-217.45h.55q.5-.2.75.2l-.4.9.15 1.1q.05 2.7-1.8 4.35-.25-.1-.1-.5 1.3-3.35-1-5.85h-.55l-.15-1.15 2.55.95M-44.55-211v-.15q3.45-1.1 6.8-1.55l-.55.15q1.05.4 1.5 1.3.9 1.75.1 3.3l-.9.35-.35-.3q-3.25-3.6-6.6-1.5v-1.6" transform="translate(192.55 294)"/><path fill-rule="evenodd" fill="#c49474" d="m-26.1-188.6 1.5-.2-3.3 4.1-.75-.95 1.55-.3-5.15.3q-1.3 1.7-2.2 4l-.35 1-1.7-3.15 1.9-4.05 2.4-.55h4.6l1.5-.2m-3.25 4.8-2 1.1q.4-.5 1-.7l1-.4" transform="translate(192.55 294)"/><path fill-rule="evenodd" fill="#b77c56" d="m-24.6-188.8 3.6-.55 5.45 1.25-8.15 2.1-7.3 7.1.75 6.05-6.25-3.3v-7.65l1.7 3.15-.05.3.2.75 1.8 1.3q.7-.8 1.05-1.95.45-1.3.45-2.45l2-1.1 1.45-.9 3.3-4.1m10.2 3.2h4.2l2.35 3-7.05 2.5v3.9l-1.85 4.1-6.45 2.75-1.6-.55v-6.25l-1.1-1.45 3.1-2 3.25-4.1 5.15-1.9m.8 1.95q-3.1 1.05-6.2 2.45l-.45.35q.05 3.3-2.6 5.6l-.3.4q1.35 1 3.75.25l.85-.05q-.4-4.75 3.65-6.95l.9-1.85.5-.2h-.1" transform="translate(192.55 294)"/><path fill-rule="evenodd" fill="#835646" d="m-19.25-156.6-10-10.15h-3.45l-6.5-4.3-1.15-4.4-.2-.7v-1.35l5.8 6.5 5.8 1.8 1.25-1.7 4.5 7 6.7-3.25-1.65 2.8-1.1 7.75" transform="translate(192.55 294)"/><path fill-rule="evenodd" fill="url(#o)" d="m-3.85-123.85 1.85 2.8-.95.8q-1.55 1.45-1.8 3.5l-1.75 1.2-.15.15 1.9.55q.25 2 1.8 3.55 1.85 1.85 4.5 1.85 1.5 0 2.8-.65v3.9q-.55.5-3.4.55-2.95.05-6.35-2.85-3.35-2.95-3.35-7.05 0-4.2 3.25-7.1l1.65-1.2" transform="translate(192.55 294)"/><path fill-rule="evenodd" fill="url(#p)" d="m-2-121.05 1.3 2.1-.2.15q-.9.95-1.05 2.1l-2.8-.05q.25-2.05 1.8-3.5l.95-.8m-2.75 6.2 2.85-.15q.2 1.05 1 1.9 1.2 1.15 2.9 1.15l1.25-.15 1.1 2q-1.3.65-2.8.65-2.65 0-4.5-1.85-1.55-1.55-1.8-3.55" transform="translate(192.55 294)"/><path fill-rule="evenodd" fill="url(#q)" d="m-3.95-103.3 1.95.9 7.55-1.85 3.75 5.8-.45 1.85H4.1l-7.95 3.1-1.9 1.65-3.9-1.1 1.1-7.5 4.6-2.85m3.9 2.35L-2.2-101q-2.65.35-4.65 1.75l-.65 1.85q-.75 2.3-.8 4l-.1.25-.1.2v.05l.1-.25.1-.1v-.15q.95-2.55 3.55-4.25 1.45-1.05 3.1-1.25l.4-.4q1.05-.75 1.2-1.65m4.3 2.5H9.3 4.25" transform="translate(192.55 294)"/><path fill-rule="evenodd" fill="url(#r)" d="M4.1-96.6h4.75l.45-1.85.25-.95 3.35-1.05L16.15-99v5.05l-3.5 5.3 2.6 4.15-3.15 2.45H9.3l-2.8-1.4-.4-2.2-.3-2.15 1.9-2.1H5.6l-3.55-2.75-.25-1.25 2.3-2.7m4.4 4.55v-2.9l.35-1.65-.35 1.65v2.9m-1.7-3.7H4.5l-1.1 2 2 1.65.8-1.45-.7-.95 1.9-.6-.6-.65m7.85-3.2-2.95-.95-1.45 1.3-.75 5 .75 2.05 2-2.1v-2.95l2.4-2.35M7.55-84.3l2.65 1.15 1.5-1.65-1.9-1.4 1.15-1.75-.9-1.1-2.5 1.7v3.05" transform="translate(192.55 294)"/><path fill-rule="evenodd" fill="#977265" d="m-26.1-114.7 2-2.25h3.4l-2.95 4.85 1 3.15-3.3 1.55-2.4 3.25h-5.45l-3.7 3.15-2 4.4-2.4-1.85-3.55 1.45-8.45-1.75-7.1 3.55-.8 1.6-3.2-1.9h-4.85l-7.85 6.45h-6.65l-4.45-3.7 7.45-3.15 3.9-4.3 9.6-2.1 2.25-4.55h5.15l5.5-2.3 6.15 6.6 4.65 1.2 9.55-10.7.85-3.9 3.8 1.25h3.85l-1.95 2.3 1.95-2.3m-30.2 14.1v-3.95l-4.15-2.3 4.15 2.3v3.95" transform="translate(192.55 294)"/><path fill-rule="evenodd" fill="url(#s)" d="m-30.95-77.8 3.7 4.25-3.7 1.75-4.05-2.45-1.05 2.9-4.6 2.4 1.6-4.15-3.45-6.1-1.85-6-9.55-3.45h10.15l4.4 4.25-1.3-6.1-13.25-8.25 8.45 1.75 1.95.4h4l2-4.4 3.7-3.15h5.45l2.4-3.25 3.3-1.55 1 3.25-2.35 8.2-1.75 1v3.7l-2.4 2.4-2.4 10.7-.4 1.9m-2.95-5.7v6.3l-1.1 2.95 1.1-2.95v-6.3" transform="translate(192.55 294)"/><path fill-rule="evenodd" fill="url(#t)" d="m-53.9-98.75 13.25 8.25 1.3 6.1-4.4-4.25H-53.9l9.55 3.45 1.85 6-2.4 3.7h-5.15l3.2 6-6.25 7.8 7.85-4.05 3.35 5.85-8.8 5.05-3.15 9.45h-1.35l-6.7 2.4-1.55-4.55 4.65-4.95-6.55 2.5-3.4-2.15-1.95-7.55 3.1-3.4 3.9-1.85.1.15.1-.2q2.95-1.5 5.9-3.05h-4.65L-61-71.1l6.7-2.4 1.25-.7-2.35-1.8-6.35 1.6-4.85 6v-3.85l1.3-4.55 4.55-3.25 5.9-2.3-4.25-1.55-7.8 2.45-6.8 5.25 3.25-8.6 5.55-2.55 7.45-2.75-5.85-.4 1.5-3.1.8-1.6 7.1-3.55m-2.15 3.85-1.55 1.85.7.3 4.3 1 .55.1q.75.7.45 1.6l.1.2.05-.05q1.5-.8 3.15-.9l-.05-.1q-2.5-3.4-6.25-4h-1.45m4.5 11.1q.25-.6-.05-1.25v-.45l-3.25-.5q-2.1-.65-3.6-1.5-2.2.7-4.4 1.95l-1.9 1.05v.05q4.65-2.4 9.45-.35 1.65.8 2.95 2.35l.45.25.2-.75.15-.85m-13.2-.65-1 .55-.1.55 1.1-1.1m16.6 4.65q-.05-1.9-1.9-2.55l-.3.15q-4.9 1.35-9.55 3.85h1.15l2.35.25 7.95.75q.35-1.1.3-2.45m-7.7 12.3 3.1-.75h1.15q.4-.3.5-1.55 0-.95-.35-1.55l.15-.15q-2.95-.1-5.4 1.15l-.05.1.2.55.4.45.25 1.75h-.15l-.05.1-.5.15.45.15-.75 2.45q-3.5 1.9-7.55 2.85-1.75 3.3-2.55 6.85 2.5 1.2 5.55.85.45-2.4 0-4.85 2.8-2.4 6.05-4.2l.8-.4q.5-1.85-.85-3.05l-.7-.5.05-.3h.05l.2-.1m-1.45 13.4-1.5 1.6 1.5-1.6m9.55-6.85-5.55 1q-1.05 1.85-1.55 4.25l-.05 1.15q-1.1 1.25-1.65 2.8-.65 1.95-1.5 3.35l-.7.15q1.25.75 2.7.55h.15q-.1-6.65 5.7-10.05l.75-.35h1.1l.4-1.15.2-1.7m-5.35-.75-2.5 1.3 2.5-1.3" transform="translate(192.55 294)"/><path fill-rule="evenodd" fill="url(#u)" d="M15.55-79.25v-1l-.25-1.55 1.35-2.25 3.75-1 2.9 3.65-2.85-.5-2.15 3.3-2.75-.65" transform="translate(192.55 294)"/><path fill-rule="evenodd" fill="#25100d" d="m-75.15-129.25 4.2-2.3 4.15-2.4 2.95-4.35 5.05 4.4-2 4.9 1.6 8.35-1.05.85-3.2 1.4-5.8-2.05-5.65 1.15-6.05-3.25L-91-115.7h5.95l4.55-2.45-10.5 16-9.3 4.25-3.7-16.8 6.95-5.15 6.45-13.65.45-3.45 3.25 4.35 11.75 3.35m-14.3 16.05 4.4-2.5-4.4 2.5" transform="translate(192.55 294)"/><path stroke-width=".05" stroke-opacity=".302" stroke-linejoin="round" stroke-linecap="round" stroke="#000" fill="none" d="M277.35 80.25 287.2 86l6.3-.95m12.8 24.8.3-.65 1.9-2.15m-4.85 85.3.6 1.85m-3.05 13.9 1 .35m-34.1-121 3.8-2.45m-20.4-5.55-1.15 1.6-1.35 1.2 19.1 5.2v2l-3.15 7.25-3.85 8.75 4.85-7.8 5.95-9.75m5.2 19.6-3.75 2.15-3.2 6.5-.35.65-1.3 2.55m6.9 3.95 2.2-1.95h6.2l3.85-2.15.35-2.05.6-3.4 2.85-3.7 3.5.5m-13.55.7-3.5 5.5m-.8-9.25 1.5-.85 2.6-7.9 6-12.75m-5.8 25.25 3.6-5.55 2.45-2.2-6.25-4.75 5.15-2.6m1.1 7.35 1.95-3.6 2.05 10.15M247 66.8l-3.6 3.9-1.65 7.2 2.05-1.45M226.35 62.7l.85 3.05 16.2 4.95m-1.65 7.2 8.6 3.15m-28.1-3.35 1.1.95 3.85-12.9m9.6 35v-4.4l2.05-5.15.3-1.55 2.6-11.75m-23.9 12.45-3.3 6.85v7.55l.95 3.35m17.35 4.6v-4.75l2.9-3.15 1.05-1.2v-2.85m-1.2 11.7.95-2.15 1.05-4.4-.8-2.3m-1.05 1.2.8 1.05-.95 6.6-.4 1-1.05 2.5-1.3-2.65v-.6M264 130.1h3.9l7.5-6.8M246.3 91l-.1.3m.1-.3 2.7-8.75m-16.35 39.35-.4 1.6-2.15 3.4m22.85 7.55 1.95-4.05h9.1m-9.1 0 1.3 2.45 1.3.05 10.4.55 3.6.2-3.6-3.25m-33.75-14.15-1.5 5.65m-14.7.7 4.55 2.3-1.2 5.9-1.4 6.75 2.7-4.55 4.65 3.55 3.5-2.6-.95 8.6h1.4l5.5-7.7 6.3 1.4 8.2 1.75 1.75-3.55M218.8 111.3l2.05.75-4.5 9.4 1.6.85m12.8 11.35-4.85-2.35-3.3 1.4m5.6 11.85-.95-8.3m2.55 6-1.6 2.3 2.65.9.35-3.2m0 2.9-.35.3m.35-.3 6.65-6.45-1.15-4.15m15.15 6.65-.65-3.5m.65 3.5-3.25 6.5-1.7 3.3-3.2 3.25-.9 5.05m6.05-18.65-11-1.95m11 1.95 3 .55 5.65-8.6m33.55-13.95v1.3l1.05.85-6.45 3.4-1.85-2.85m16.95 7.2-.6 2.6m2.3-8.9-2.5-1.85-2-1.55-2.05-1.55h-2.45m-2.4 1.35v-1.35m-3.4 1.9 1.45-.85 1.95 1.6m-19.55 13.4 9.75-9.55 2.65.4h1.75m-2.75 10.2 1.7-1.55 1.65-1.55 2.95-5.3 2.9-5.2m-15.2 40.15-.8-2.8-.75-2.8-1.45-5.5 2.85-6.2 2.9-6.25 3.25-3-5.55 15.4-2 5.55m13.25-41.6 2.45.95M289.2 126l3.3 4.1v10.3l-.5 1.85-.55 1.85 3.3-2.15 3.3-2.15.8-3.25 1.3-5.4m-26.8-21.5-3.4 3.8.2 2.7m-1.85 22.05-3.15 4.85m3.15-4.85 3.2-4.85m-8.1 20.9-3.5 7.35-2.25 8.45 4.75 5.8v6.35l-3.95 5.7-5.5 3.3-1.1-.5m-13.6 22v3.85l3.2 1.95 3.25 1.95 3.2-1.65.75-2.45m3.95-18.65 2-2m13.1-18.55-.75-2.9-1.6-5.85m8 .2 3.05-6.65.5-1m8.05-17.7.4-3.15m1.85 9.45 3.15-1.75 1.1-3.65v-.05m-6.95 3.2-.5 4 3.2-1.75m-3.55 4.8-2.25 1.15-2.05 18.55-4.9 6.85m9.2-26.55.35-3.05m.5-4 .45-4.05m13.25 12.55v-8.15m9.85 3.95 2.1-3.25 4.15-2.15m-38.2 11.95 5.3-2.65M317 97.2v-3.55l2-2 2-2h4.85m-12.25 6.1 3.4 1.45m2.85 3.55h-5.7l-2.85 3.15-2.8 3.15m13.35-1.45 3.15 4.7-.95 3.3 4.45-3.1 2.15-6.3m-18.95-9 1.55.5m3.75 5.05V97.2m5.85 20.35 1.2-3.95m-9.6 2.3 1.85 4.05-1.55 4.15m-4.85-4.45.55.9m-6-6.1h2.45l3 5.2m1.1 17.3 1.75 4.55m-8.4-2.35-2.85-3.4-2.65.8m5.5 2.6 2.8 3.35M306 154.8l2.05-3.2m2.1 4.75 1.9-1.1 4.65-2.75m-4.65 2.75h4.25m4.55-12.9v3.85m12.8-.65 1.35 1.4m-10.85-1.7v2.95m-22.65-12.45 5.05-1.45m31.85 19.6 1.85.95M217.45 77.6l2.95 1.85 2.95-.8m89.25 95.45v-3.2m-9.15 29.45 1.5-4.3-.7-1.85m10.1 10.9 2.9-2.95m-31.15 8.25 1.3-3.5m41.5-8.35.6 1.65v4.45m4.6 4.9-2.35 3.4m11.8 12.3v-3.15l-1.05-.85m-24.9-13.1.9.95m-29.6-39.35 1.7-4v-6.7l-2.25-3.15m-20.65 21.25.8 2.95-3.15 4.8-.85.95 1.15 3 2.85-2.25m1.65-15.15-3.2 2.8m6.4-5.65-3.2 2.85m.7 22.9-.5 3.9m8.95 4.7-.45 2.15-1.2 1.05m-6.35-15.65-.45 3.85m-5.2-5.5L264 196.4l-6.15 4.25-4.2 8.45 3.55.7 2.6-2.7m.3 3.3.6.1m17.6-16.1 1.95 3.95-.95 4.6m-4.8 5.85 3.15-2.65m-44-32.85 6.15-1.95m-24.7 10.7-1.9 6.5m9.7-18.35q-1.7 1.95-3.25 1.5-1.6-.4-2.1-2.95-.5-2.6.35-5.8l1.4-3.45 1.15-1.7q1.75-1.95 3.3-1.5 1.6.4 2.1 2.95.5 2.55-.35 5.75-.9 3.2-2.6 5.2m3.05 6.25 10.85-7.85m-3.05 24.7q1.5-.35 2.65-1.5 1.45-1.4 1.65-3.3l-7.65 1.65-2.05 1.2.4.45q1.2 1.2 2.75 1.5m2.05 3.35q3.05-.15 5.3-2 2.3-1.95 2.3-4.7 0-1.15-.35-2.1l-2.75.65m-9.7 2.85-2.45 1.35q.6 1.05 1.6 1.95 1.35 1.15 3 1.65m12.55-8.95.4 2.8q0 4.3-3.05 7.35-3.1 3-7.35 3-4.35 0-7.4-3-1.5-1.55-2.2-3.35l-2.85 1.6 5.75 5.5 1.3.35 3.8 1 5.15 1.35 9.4-5 4.15-6.65.6-2.05-1.8-.8-5-2.3-.9.2-2.25.5M237.85 209l.4 1.2v2.5m-12.35-20-2.45 1.45m8 8.45.25.7 1.6 4.5h4.15l.4 1.2m12.9-18.75 1.1.45m5.35 19.1 2.9.6m-10.8-2.25v5.8l-.65 2.4m.35 1.9 1.85 1.4-.9 4.3m16.25-3.75 1.05-.85v-2.85l-6.55-6m-12.8 8.3 1.1-.55m-2.55 13.4 2.6-3.4.9-4.3m-88.35-7.75 3.7 4.25m81.15 14.2v-3m-1.75-11.2.7.4m3.9-12.7 4.35.95m-4.45 27.95 3.25-2.85 2.95-.55 3-.5 3-.55m3.7-11.55 1.1-.85m-40.35-3.15h2.6l3.65-9.25h1.2m-1.2 0 1.9 2.4h4.25m-21.4-9.8-4.35-1.85-.5-.15v.95l3.3 2 7.4 8.3-1.2 4 1.5.25 1.55.25 4.2-8.35-2.4-4.55m-.5 15.8v-1.25l-11.9-1.7-2.25 3.45-3.6-.8v-3l-1.75-.65-1.5.95h-2.8l-2.7-2-.3-1.5-2.55.65v-2.5l-3.95-1.25-1.3 2.65-6-1.8-.1-.05.1-.5.65-2.95.2-.75-9.7-2.45v-5.75l-2.85-1.6m-6.75 3.25v3.7m-4.8 13.1-.4 1.9m63.05 4 1.2-3.15m-1.3-2.9 1.3 1.65m-1.2 4.4 5.5-.7-1.7-2.45m1.7 2.45 3.85-9.3m10.95 33.8 1.05-4.1 3.2-2.85m-4.25 6.95-1.05 4.15-1.15 4.45 1.55 2.7 5 2.25 4.3-6.7 7.95-3.7m-15.1-12.5-7.3 7.25m57.4-35.4 2.45-2.2m-27.05 12.95 2-1.9 1.95-1.9m-41.6 50.2h.05m30.9-28.2 1.7 1.75 4.15 1.25m-3.75 8.15h2.8m4.6.75 1.8.75m-1.8-.75-1.8-.75h-2.8m-14.45 9.7 6.45 4.25m-14.9 1.85 4.15 2.05 1.6.85m11.5-79.45-9.9 9.85m-2 2-3.3 10.45M244 262.3l1.9-.6 1.35.7m-5.45 4.8 1.1 1.8 1 1.65m5.4-13.1 6.4-1.25m-29.65 7.55v1.7l-4 1.15m13.2 1.4-.95-4.45m7.5 3.55-2.05-3.55m-4.5 4.45.5 2.1-2.45 4.15m64.9-118.55-1.3 4.15M136.85 74l2.8-2.5h2.55m-.05 2.75h3.25l1.45 1.7m-16.75 9.8 1.35-2.7m6.25-2.45 4.3-2.45 5.4 1.55m4.8 38.85-.4-.2m-34.4 46.4 4.2-2.3 4.15-2.4 2.95-4.35 1.6-2.3-6.5-22.15-2.3-8.05 2.45-7.3.6-1.75-.7-6.3m18.5-22.55.3 5 .35 4.95 6.15-4.9m-6.8-5.05 3.4-4.15 2.6-.75M143 95.25l-2.75.95m26.2 9.2 1.5-.2m-25.3-14.9-3.55-3.35m-49.8 36.9.85 2.15 1.55 5.25 3.15 13.65.8 3.25 5.3 7 1.45 1.9 3.25 4.35 11.75 3.35M94.85 144.9l-4.4-.6m64.55 2.4v-6.2l-1.75-3.85-5.65-1.2-2.55-1.1-11.15-4.7-3.25-7-5.15-1.4 1.55 5.45-1.6 2.25m13.4 25.45 4.25-3.45m15.7 27.1.85-3.9-2.65-3.95-1.25-1.9-.85-1.25-2.1-8.95 2.2-5.2v-6.2m-20.65-29.65 1.75 4.2v5.45m-12.15-10.8 1.55 5.35m-1.7 10 1.65-2.3m8.3 31.15.95-2.35 4.15-3.35m62.9-68.25 17.2-2.35-4.1-3.25M185.2 82.3l14.55-3.45m-.4 6.2 2.4 1.1-2.2 6.85 3.3 1.55m15-4.2 1.1-2.35v-4.2m-19.55-.35-.05 1.6-.55 7.65.75.3m-11.35 5.6.5-4.2 1.95-2.3 4.4-1.2 3.75 1.8m-8.15-.6 1.15.75 10.25 6.5 5.65-2.55q-2.45-1.1-4.85-2.25M185.2 82.3l.6 6-1.4 1.6 3.15 5.8.5 2.95.1.5-1.1 9.8m1.15-10.35-.05.55M187 114.4v3.9l1.65 3.65m15.3-11.3 1.65-6.05 2.1-7.8m1.15 14.55 2.9-2.4 7.05 2.35m-61.95-32.05 2.4 2.1m-2.4-2.1h-4.25m10.1 10.25-2.35-2.9-3.95 3.6 1.85 4.55h.1l4-.25 1.15 1.75-.65 2.5h2.2m-2.2 0h-6.1m-6.15-1.85 2.55-1.8 5.1-.35m-13.1 13.55v-2.1l.95-1.45m5.9 11.75v-5.05l3.6-4.8 2.35-.5 2.4-.55m4.6 0 1.5-.2m14.5-9.15-3.85-4.7 7.3-1.65m-2.6 18.5h.55l2.35 3 2.3 3m-6.75-6h1.55l-.85-12.15 6.6-.55m-17.8 18.7 3.25-4.1 5.15-1.9m1.85 28.15-2.25 5.25-2.8 3.35-2.8 3.4-1.15 1.35v5.7l1.95 5.6 3.8 2.3.35-1.8v-5.45l1.1-.9 7.65-6.2m3.55 2.8h10.4l2.9 3.5 4.2 11.45 1.75 2.5 1.75 2.5m-2.8-56.1-7.25-2.85 1.7-13.6m-26 27.5-1.65 2.8-1.1 7.75m4.35-19.6v6.25l-1.6 2.8M152 116.5v1.35l.2.7m-2.55 11.2.7 2.8M162 142.3l-2.35 7.2m10.9-6.7v2.2l1.6 3.55m48.7-36.5-5.5 2.45-1.55 9.15 2.55-2.2m-7.85-8.85-.9 3.2-1.65 5.85v3.4l-3.8 8.05m11.65-9.45 3.3 4.1 5.4-3.15m-10 56.55-1.75 4.6-1.75 4.55-.5.3m4.1 0 .6-2.05m6.7-51.3-4.25 7.4 1.45-16.9m-1.75-13.25-6.5-3.15-.35 1.25-4.55-1.95-3.6 2.3m-18.4-24.85 3.85.2m-5.85-7.9 5.25 1.9m-40.15 52.05 2.45-4.1-2.9-5.6m44.1 45.5h.05-.05l1.85 2.8 1.3 2.1 1.55 2.35 2.4 4.5 1.1 2v3.9q-.55.5-3.4.55-2.95.05-6.35-2.85-3.35-2.95-3.35-7.05 0-4.2 3.25-7.1l1.65-1.2-2.9-1.25-3.6 4.4-3.45 7.6 5.25 7.95 2.3.9 2.3.95 1.95.9 7.55-1.85-1.2-.7v-1.25m-9.1-10.55q.25-2.05 1.8-3.5l.95-.8m.05 4.35q.15-1.15 1.05-2.1l.2-.15m3.95 6.85-1.25.15q-1.7 0-2.9-1.15-.8-.85-1-1.9m-2.85.15q.25 2 1.8 3.55 1.85 1.85 4.5 1.85 1.5 0 2.8-.65m1.2 5.85 4.1 2.4h3.6l2.7-1.55m-19.9.1-4.6 2.85-1.1 7.5 3.9 1.1 1.9-1.65 7.95-3.1h4.75l.45-1.85h-5.05m-10 6.6 2 .55-.55 1.75m6.1-4.35 2.3-2.7m-7.85 5.3-2.7 1.35m15.3-6.65-.35 1.65v2.9m1.05-7.35-.25.95m-7.5 4.55.25 1.25.3 1.3.7.7 2.75 2.85.3 2.15.4 2.2M208.7 195l-3.25-1.45m-3.35 1.05.2-.95m-13.4 13.4 1.3.85 1.15-2.3 1.25.35 2.8.7 1.1 2.05 2.15-.35m11.15-16.05h-1.7m.6 2.7 3.3 1.45v1.95m0 .95v1l-2.45 4.3m9.05-8.9h2m-2 0h-2.05l-3.3-2.25-1.25-.85.6-2.05m2.7 14.9v-4.15m-.2-19.3 6.65-5.3m-45-13.25-1.2 5.8 4.05 4h2.6m-10.35 3.75h-3.4l-2 2.25-1.95 2.3m7.35-4.55-2.95 4.85 1 3.15 1 3.25-2.35 8.2 1.8-.95.95-1.75q.3-.2.7-.5l1.55.95m-.6-33.05v14.1l-1.1 1.75m-16.1-8.75 3.1-1.15 3.2-1.1 5.15-9.85m-8.35 10.95L157 170.2m1.8 7.85-.85 3.9-9.55 10.7-4.65-1.2-6.15-6.6-2.65-2.9-1.05-5.5-.55-3.1-1.6-8.35 2-4.9-5.05-4.4m3.4 31.45 4.15 2.3v3.95m30.2-14.1h-3.85l-3.8-1.25m-5.75 19.35h-4l-1.95-.4-8.45-1.75m0 10.1 9.55 3.45 1.85 6 3.45 6.1-1.6 4.15m5.65-5.3 1.1-2.95v-6.3m-5.6-13.1 2-4.4 3.7-3.15h5.45l2.4-3.25 3.3-1.55m-1.35 11.45-1.75 1m-4.8 16.8 2.4-10.7 2.4-2.4m14.2-.75 1.9.6m-4.85-6.25 2.3 1.05-1.3 4.1 1.95.5m-4.6-4.6h3.95m-3.95 5.75 2.65-1.65M172 193.3h2.5l3.55 1.5 1.25-3.5 4.7-2.45m-36.7 39.4 1.2-.65v-7.25l-6-1.85m-3.05 13.8 7.85-4.05m-8.6 20.35h6.1v-7.15l5.55-3.25m-22.7-31.55 1.6-3.15m20.95 47.1v1.85m57.9-37.7 2.75.65 2.15-3.3 2.85.5 2.8.5 2.85.55m-8.55-4.7-3.75 1-1.35 2.25.25 1.55m4.9-1.65.95 2m1.35-8.6-2.35 3.45m-6.6 4.15 1.5-.9m3 3.2.85 2.15m-21.5-9.65 1.05 2.2m.1-4.5 1.2 1.85m-7.4.8.1-.1m2.45-1.95-2.45 1.95m3.65-1.1-1.2-.85.55-1.75m-2.45-35.55-2.9-1.3m-75.4 10.7 4.55-2.45 7.65 1.65m11.05 22.9.8-1.6 7.1-3.55m-50.1-15.95 6.95-5.15 6.45-13.65.45-3.45M88.55 179.3l-1.1-5.4-1.1-.85-6.8-5.15H77.1m15.15 28.2.7 3.3m-.7-3.3-3.7-16.8m37.4 42.45 1.3-4.55 4.55-3.25M129.05 229l1.25-3.05 1.25-3.05 6.7-2.4m-9.4 8.55.2-.05q2.95-1.5 5.9-3.05m-1.2 15.55 1.5-1.6m1.7-6.3 2.5-1.3m-8.8 18.7-1.55-4.55 4.65-4.95m4.95 7.1h-1.35l-6.7 2.4-1.5 3.4.4.2m-.5-25.6-.1.2-.1-.15M107.5 178.3l-4.4 2.5m40.15 82.25-1.05-4.35-.4-1.4h-2.7m-2.15 8.4 1.85.75 1.85.8 1.2 1.55m-1.85 1.55h-3.05m6.15 0H140m74.1-6.2 2.5-2.15 2.45-2.15m-16.4-.85v4.3l-.85.65m14.25 2.05 2 1.85 4-1.15m-19.4-7.7v-1.7M149 275l-1.2.2m1.55-15.95.85-1.4v-5.4"/><path stroke-linejoin="round" stroke-linecap="round" stroke="#7b402d" fill="none" d="m100.95-208.95-12-6.65-4.15 1.85m16.15 4.8-7.15 11.1 3.05 3.75h3.8l1.75 10.65-3.9 4.15v2.6h2.4l4.85-2.85h6.15l.7-1.75 1.15-2.85m.3-.65-4-.9-3.55-3.7v-10.1l2.6-2.15 2.65-2.15h6l10.25-7.7 3.6.85 3.4-2.15 6.15 2 2.4 10.6-4.25 6.95M79.35-209l-19.25-7.15-1.15 1.6m20.4 8.45v-2.9m0 2.9 5.45-7.65m-33.55-3.8 3.2-9.65-20.65-4.1-4.1 15-4.8-.1m26.35-1.15 6.95 2.85.75.15M-12.3-185.6l-3.15-16.85 4.85-3.45-2-7.7 16.55-3.55 3.25 2-.35 4.6 15.45-2.9 2.6-2.95" transform="translate(192.55 294)"/><path stroke-linejoin="round" stroke-linecap="round" stroke="#927468" fill="none" d="M138.1-189.8h1.6l2 4v1.55h4.6l6.5-3.55 6.4 2 1.75 4.1m-35.45 23.65 2.8 2.55v3.85h3.3v2.9l7-2.3.95 1 1.55 1.6 2.85-1.4 2.5 1.05 12.7-3.5 7.05-4.9 1.4.6m-19.9 17.45 5.25 2.5 5.85-1.7 2.7 2.4 9-1.55 2.55 1.25-1.45 1.15" transform="translate(192.55 294)"/><path stroke-linejoin="round" stroke-linecap="round" stroke="#814f3b" fill="none" d="m139.3-193.25-1.2 3.45" transform="translate(192.55 294)"/><path stroke-linejoin="round" stroke-linecap="round" stroke="#593023" fill="none" d="m130.3-176.45-.55 2-.6 2-3.45 1.3-3.5 1.25-3.15 8.7-5.05 1.5" transform="translate(192.55 294)"/><path stroke-linejoin="round" stroke-linecap="round" stroke="#58403c" fill="none" d="M160.95-181.7h-7.15l-1.6 4.6h-5.5l-6.25 5.65h-5.3l-4.85-5M114-159.7l2.25 1.3m51.35 1.8.5.15-1.4 7.1-2.45 2.05h-4.45l-3.35 4.45-.1.6-2.2 1.1h-4.25l-2.2 2m23.9 4.05-9.1 7.3-4.9-.15-3.4.15q-3.9.6-7.05 1.7l-7.3-4.7h-6.55l-8.15 2-1.4 5.7-3.7 3.2v3.2l-5.6 6.45h-8.55l-2.85-3.6m10.4-25.35-1.7 2.7-7.4 2.45-1.3 4.2-3.35 2.8m-3.35 2.8-3 7-3.1 1.1-8.35 3.05-1.65 2.25-4.3 3.45 3.05 1.8-.25 2.1h5l2 3.9m58.95 16.7-.9 5.35M163.9-64v1.8h-10.7l-6-3.55-6.1-1.7-9.1-11.8-1.3-1.75h-1.3l-3.15.45m-.15 0-1.25.2-3.25-2.45 3.45-3.05-3.25-3.05-.7.7-12.45 2.3m-15.1 2.3h6.35l4.1-3.9 4.65 1.6m-127.9-70.7-10-10.15h-3.45l-6.5-4.3-1.15-4.4m-14.6 66.3-5.5 2.3m15 9.85 3.55-1.45 2.4 1.85m-22.3 3-3.2-1.9h-4.85l-7.85 6.45h-6.65l-4.45-3.7 7.45-3.15 3.9-4.3 9.6-2.1 2.25-4.55h5.15" transform="translate(192.55 294)"/><path stroke-linejoin="round" stroke-linecap="round" stroke="#826357" fill="none" d="m116.25-158.4 2.2 1.35 6-2 1.05 1m-22.45 44.2 1.7-3.4 5.45-4.45v-6.25l6-3.15 1.4-6.55-4.15-1.55M99.7-127.05l-3.35 2.8M85.75-99.6l2.4.45 2.35.45 4.5 3.8 4.5-1.6 7.45-5.15h4.15m.6 1.85h5.05l6-5.6q3.3 1.5 6.7 3.05h4.15l2.75 6.9 4.8.9 2.75 6.75-2.35 3.35 3.15 1.55m-.9 5.35 6.15 4.8h3.55l2.15 3.8 8.25 3.2V-64M-33.9-229.9l-9.05.7-7.45 2.3-2.9-.55-3.35 2.25v2.1l.95 3.1-2.75 2.85-6 1.45-1 3.95 3 3.5m28.55-21.65v4.3l-3.25 2.65-6.3 1.35-2.25 3.55.55 3.75.95.7 4.25-1.15 1.35-2.95 3-.95 3.05-.95 4.55 2v3.85l5.05 8.4-1.35 6.45-3.2 3.65h2.2l2.6 3.5-1.9 2.95 3.6-.55 5.45 1.25 1.15 2.5h2.1m-28.45 9.95-4.3-2-2.35-3.75v-4.3l-2.1-.65-3.85-3.55-.95-3.35 2-4.55-4.35-4.8h-3.2l-2.6-2.15v-3.5" transform="translate(192.55 294)"/><path stroke-width=".05" stroke-linejoin="round" stroke-linecap="round" stroke="#ad6b40" fill="none" d="M260.3 174.7h-.95"/><path stroke-linejoin="round" stroke-linecap="round" stroke="#5f3425" fill="none" d="m-27.25-73.55 3.7 4.2 8.75 8.5 9.45 4.05h3.3l2.1-1.05 3.65 3 23.15 5.3 3.05 2.3h11.85l3.6-3.6m1.25-1.25-1.25 1.25m1.25-1.25 4.75 6.25" transform="translate(192.55 294)"/><path stroke-linejoin="round" stroke-linecap="round" stroke="#73402e" fill="none" d="m90.35-80.6 3.2-3m-4.2 3.9 1-.9m-8.95 1.95 2 1.35 5.95-2.4-4.1 3.9H80.5l-1.1-.95m-82.6 62.1-1.5-.85v-5.3l-5.1-4.65 2-6.4 5.2-1.6 2.45-2.4 2-6.4L4.4-44l5.4 2h8.85l4.3-2 3.85 1.85 3.85 3.3 6.7 1.45 4.15 5.7.25 1.35m.05 0h5.4l4.25-1.35v-3.15l5.3-1.6" transform="translate(192.55 294)"/><path stroke-linejoin="round" stroke-linecap="round" stroke="#562d23" fill="none" d="m81.65-61.25-2.85-4.7-5.85-1.85-2.5-3.45 2.1-1.7m6.85-3.8-4 3.8h-2.85m6 17.4 4.95 1.6L86.95-50 84-45.9m-5.45-12.35 3.1-3m-3.1 5.7v-2.7" transform="translate(192.55 294)"/><path stroke-linejoin="round" stroke-linecap="round" stroke="#25100d" fill="none" d="m84-45.9 2.35 1.05 3.85 6.3-3.25 8.4-5.3 2.45-2.25 6.8-6 1.7h-6.5l-2 2.15H52.2l-7.15 5.1H35.8l-4.85-7.1-7.45-2.15V-28l-1.95-1.85-1.35 1.2-1.4 1.2-9.55-2.6-3.7 2.9v6.95l-2 1.8-5.3 4.6-1.45-.85m-37.45-54.3 4.6-2.4 1.05-2.9 4.05 2.45 3.7-1.75M-32.3-56.8h-2.9l-3-1.6v-5.4l-5.85-2.6h3.4v-2.55m8.35 12.15h2.95l1.3 3.15 1.4 3.25-1.85 7-5.4 4.25v4.6h-9m-.3-.2-.85 1.45-5.25 2.35.7 2.65-2.1 3.1 1.25 1.55 5.9 4.65 7.5-1.35 2.85 3-4.55 4-9.15 4h-7.3v-3.3" transform="translate(192.55 294)"/><path stroke-linejoin="round" stroke-linecap="round" stroke="#542b1e" fill="none" d="m-82.35-200.5 1.95 1.25 11.05 6.8.65 6.3 8.65 4.9 1.85 4.3 7.3 1.95 2.95 5.65 4.35 2.3.7 2.75v.05l7 2.35 6.25 7.55-.9 2.65 8.55.5m-36.65 33.65-6.45 2.75-7.75-1.7-5.2 1.95-4.75 9.6-7.7 7-5.75 2.6-3.35.75 1.65 7.3-4.55 18.05q-.5.25-1.05.45l-4.35 1.95-7.65-2.5-1.1-5.3" transform="translate(192.55 294)"/><path stroke-linejoin="round" stroke-linecap="round" stroke="#cd8b3d" fill="none" d="M-82.35-200.5H-93.8l-14.1 12.65v6.45l4.65 11.25-3.7 1.15-3.05 4.95-13.25 8.6v13.15l-5.65 12.95 1.9 8.6-2.25 18.2v3.25L-119-85.95l2.35 11.3" transform="translate(192.55 294)"/><path stroke-linejoin="round" stroke-linecap="round" stroke="#864c30" fill="none" d="M-22-151.2v-2.15l2.75-3.25" transform="translate(192.55 294)"/><path stroke-width=".05" stroke-linejoin="round" stroke-linecap="round" stroke="#fff" fill="none" d="m192.25 178.4-.3-.55-1-.4m-.35-.15.35.15"/><path stroke-linejoin="round" stroke-linecap="round" stroke="#623526" fill="none" d="M-54.2-12.65v-3.3l-4.5-1.65-7.15-3.05v-4.1l4.1-2.25 1.6-5.15-4.15-2.55v-3l.9-1.9-4.9-2.1v-3.45l-3.85-5.1 1.45-3.6v-5.85l3.1-3.4 3.9-1.85-2.9-3.45v-3.85H-72l-1.7-3.95 3.25-8.6 5.55-2.55m1.6-3.15 1.5-3.1" transform="translate(192.55 294)"/></g></defs><path fill="none" d="M-1-1h310v230H-1z"/><use x="132.05" y="234.5" xlink:href="#v" width="381" transform="translate(-192.55 -294)" height="381"/><use xlink:href="#w" width="99.8" transform="translate(141.747 45.647) scale(.5702)" height="99.8"/><use x="-33.201" y="-35.675" xlink:href="#x" width="102.95" transform="matrix(1.8072 0 0 1.6538 83.1 154.3)" height="45"/></svg>