<svg width="246" height="200" xmlns="http://www.w3.org/2000/svg" xmlns:xlink="http://www.w3.org/1999/xlink"><defs><path stroke-width=".05" stroke-linejoin="round" stroke-linecap="round" stroke="#695c34" fill="none" d="m0 4.2 2.7-2.05M9.2.8v3.95h6.35m3.25-2 .8-.55.4-.35m.5-.45L22 0m24.7 23.7L44 27.75l-3.25 8.15-2.05 7.5M34 12.35l-1.6.55.55 3 5.65 3.05 1.75.15m-2.1-8.25-1.7.6m4.05 7.65 1.95.15M29.35 10l1.55-.2m-8.75-3.15 2.3 2.9 4.35.4m9.7 34.55.05-.5M32.1 9.55l2-.55m.3-.05 2.45-.65" id="d"/><path stroke-linejoin="round" stroke-linecap="round" stroke="#473e23" fill="none" d="m52.5-3.85-4.05 7.8-2.8 1.75 7.45-.5 7.1 3.15 6.1-1.25 4.5-4.85.85 1.85-5.35 5.3-3.25 1 4.05 7.15 2.3 2.3 11.95-4.55v2.3l-6.65 3.75-3.45 1.05 5.85 9.8.05.05 4.4 1 2.3.2v2.5l-2.5.65-2.05-.1 2.65 9.75 2.75 5 1.75 5.4 6.2 1.95 2.5.2.9 1.2 1.85-.35 1.45 1.05-.2 1.25-1.4.2 1.15 1.5 1.5.4-1.7 1.25-2.35-1.6-4.9.9 3.9 4.45 5.05 10.7.6.65 13.25 3.3 19.05 8 5.45.9v-.05h14.65l3.75 1.2-.65 3.15-8.95 2.75-10.25 2.4-10.3.3-21.15-2.7-10.55-2.2-1.5.45-.15.75 3 .7 2.8 3.1-1.85 3.15 3.85 1.95.4 3.8-3.65 3.1.1 1.9-1.45.85-1.35-.6-2.4 4.15-3.15 1.05-.6-.95.55-3.3-1.1-.35-7.25 5.45-1.05-.2 3.35-9-2.7.4-2.5-.2 1.45-1.9 3.8-.2-.05-.2 3.1-.65.1.2.2-1.2v-.1l-.25.05-.6-2.35-9.85.45-9.2-4.8-.1.05-6.4 1.85-12.55-3.55-1-.9-3.2-.75-2.95 4.35-3.55-.4-4.6 2.5-4.8-2.7v-6.5l-4.6-4.2v-1.45l-2.95.2L19 90l2.25-1.85 2.45.45.25.15H24l1.85-.2-.55-1.7 2.05-.2 2.5 3.75.05-.35v-.1l.4-3.5h1.65l2.4 4.45 4.75.15-.2-10.6L28 81.6l-8.6-1.65-9.4-6.5L7 63.3 1.55 47.55l-.9 1.65-.65-.65.65-3.9-.05-.05 3.15-11.3 1.45-2.1 10.5-4.25 2.7-3.1 4.1-1.7.1-.05 6.5-12L30.8 4l1.75-.55.65 1.9-1.05 5.7 7-3.75.55-.6 6.7-4.85 3.5-6.6 2.6.9M83.85 113.4v.05l.25.05v-.1l-.05-.5-.2.5" transform="translate(.5 5.25)" id="f"/><path fill-rule="evenodd" fill-opacity="0" fill="#f0f" d="M0 0h102.95v45H0V0" id="a"/><g id="b" stroke-opacity="0" stroke-linejoin="round" stroke-linecap="round" stroke="#f0f" fill="none"><path d="M187.95-293.5v380h-380v-380h380M92.95.6H-97" transform="translate(192.55 294)"/><path d="m187.95-293.5-190 190 190 190m-380-380 190 190L-192 86.5" transform="translate(192.55 294)"/></g><g id="c"><path fill-rule="evenodd" fill="#695c34" d="M-40.45-53.15q-2.1 1.6-5.05 1.6-2.95 0-5.05-1.6-2.1-1.55-2.1-3.8t2.1-3.85q2.1-1.55 5.05-1.55 2.95 0 5.05 1.55 2.1 1.6 2.1 3.85t-2.1 3.8" transform="translate(66.45 88.15)"/><path fill-rule="evenodd" fill="#ab9544" d="m67.75 13.45-.75-.4q2.05-3.7 5.55-5.7-2.7 2.1-4.8 6.1m9.8-2.2.15.6-7.55 3.05-.75-.5.05-.05 8.1-3.1" transform="translate(66.45 88.15)"/><path fill-rule="evenodd" fill="#7d6e3f" d="m68.55 13.75-.8-.3q2.1-4 4.8-6.1l1.35-.75 2.35-.9-2 1.1q-3.2 1.85-5.7 6.95" transform="translate(66.45 88.15)"/><path fill-rule="evenodd" fill="#b78635" d="M74.7 7.8q1.05 1.95 2.85 3.45l-8.1 3.1L74.7 7.8" transform="translate(66.45 88.15)"/><path fill-rule="evenodd" fill="#99702c" d="m74.25 6.8.45 1-5.25 6.55-.9-.6q2.5-5.1 5.7-6.95" transform="translate(66.45 88.15)"/><path stroke-width=".05" stroke-opacity=".702" stroke-linejoin="round" stroke-linecap="round" stroke="#544a29" fill="none" d="m140.7 94.95.45 1q1.05 1.95 2.85 3.45l.15.6"/><path fill-rule="evenodd" fill="#ab9544" d="m60 6.8-.15-.75q4-2.35 7.65-2.25-3.25.45-7.5 3m7.55 3.55-.4.65-6.85-1.45v-.9l.05-.05 7.2 1.75" transform="translate(66.45 88.15)"/><path fill-rule="evenodd" fill="#7d6e3f" d="M60.25 7.5 60 6.8q4.25-2.55 7.5-3l1.35.15 2.1.4-2.05-.15q-3.3 0-8.65 3.3" transform="translate(66.45 88.15)"/><path fill-rule="evenodd" fill="#b78635" d="M68.4 5.5q-.8 2.4-.85 4.85l-7.2-1.75 8.05-3.1" transform="translate(66.45 88.15)"/><path fill-rule="evenodd" fill="#99702c" d="m68.9 4.2-.5 1.3-8.05 3.1-.1-1.1q5.35-3.3 8.65-3.3" transform="translate(66.45 88.15)"/><path stroke-width=".05" stroke-opacity=".702" stroke-linejoin="round" stroke-linecap="round" stroke="#544a29" fill="none" d="m135.35 92.35-.5 1.3q-.8 2.4-.85 4.85l-.4.65"/><path fill-rule="evenodd" fill="#ab9544" d="m46.9.6-.35-1.15q6.1-1.6 11.85.25-5.05-.8-11.5.9m12.25 8.5-.5.8-11-5.2-.15-1.3.05-.05 11.6 5.75" transform="translate(66.45 88.15)"/><path fill-rule="evenodd" fill="#7d6e3f" d="M47.3 1.75 46.9.6q6.45-1.7 11.5-.9 1.05.25 2.15.8l3.4 1.6-3.2-1.1q-5.3-1.6-13.45.75" transform="translate(66.45 88.15)"/><path fill-rule="evenodd" fill="#b78635" d="M60.05 2.5q-1.05 3.15-.9 6.6l-11.6-5.75 12.5-.85" transform="translate(66.45 88.15)"/><path fill-rule="evenodd" fill="#99702c" d="m60.75 1-.7 1.5-12.5.85-.25-1.6Q55.45-.6 60.75 1" transform="translate(66.45 88.15)"/><path stroke-width=".05" stroke-opacity=".702" stroke-linejoin="round" stroke-linecap="round" stroke="#544a29" fill="none" d="m127.2 89.15-.7 1.5q-1.05 3.15-.9 6.6l-.5.8"/><path fill-rule="evenodd" fill="#ab9544" d="m32.25-7.1.15-1.15q6.75-1.35 11.85.55-4.8-.95-12 .6m8.85 8.6-.75.8-9-5.35.35-1.3h.1l9.3 5.85" transform="translate(66.45 88.15)"/><path fill-rule="evenodd" fill="#7d6e3f" d="m32.2-5.95.05-1.15q7.2-1.55 12-.6l1.85.8 2.8 1.65-2.85-1.15q-4.65-1.7-13.85.45" transform="translate(66.45 88.15)"/><path fill-rule="evenodd" fill="#b78635" d="M44.8-4.9q-2.35 3-3.7 6.4l-9.3-5.85 13-.55" transform="translate(66.45 88.15)"/><path fill-rule="evenodd" fill="#99702c" d="M46.05-6.4 44.8-4.9l-13 .55.4-1.6q9.2-2.15 13.85-.45" transform="translate(66.45 88.15)"/><path stroke-width=".05" stroke-opacity=".702" stroke-linejoin="round" stroke-linecap="round" stroke="#544a29" fill="none" d="m112.5 81.75-1.25 1.5q-2.35 3-3.7 6.4l-.75.8"/><path fill-rule="evenodd" fill="#a39550" d="m-12.35-77.85 6.1 2.7 4.8-.95 1.3-.3 4.2-4.75.9 1.85-5.1 5.2-3.25 1 .9 1.6-4.6.3-2.2.85L-7.05-72l3.65-1.1-3.65 1.1-2.25 1.65-3.9 2.85-2.15 3.4 2.3 2.9 4.35.4.55.05 1.55-.2 1.2-.25 2-.55-4.1-1.15-.95-1.05q-1.35-2.2 2.35-4.4l4.65-1.3 2.1 3.7 2.3 2.3 3.3-1.05 8.15-3.4.05 2.35-6.2 3.6L4.8-61.1 6-59.15h-7.45l-1.15.4-.9.35-1.4.5-.2.05.55 3L1.1-51.8l1.75.15L.45-55l1-1.45q2.8-1.9 5.6-.9l3.6 6.05.05.05 4.4 1 2.3.2v2.5l-2.5.65-2.05-.1.45 1.75-2.45-.65-3.75 2-.6.9-3.25 8.15-2.05 7.5-.15.6-.05.5-.35 3.75-.05.4-6.1 4.85-11.05 4.9Q-22.85-7.1-30.15-7q-7.1 1.2-10.6-1.2-6.35-9.25-2.85-15.5 7.85-3.4 15.65-6.85l6.5-4.9-.55-6.75-1.05 1.7-1.45 2.35-.35.5-2.6.85-2 .65-3.15 1-.95-.25-7.8-2.05-1.9.65-5.2 1.7-2.55.8-3.15-.25-1.75-.45-3.9-6.3.5-9.4 5.55-4.65 3-1.2.8-.35 5.1-1.6.9-2.85.1-.05.9-1.7 2.7-5.05 2.65-5.1.2-.15.7-.55 1-5.8 1.55-.75.9 2.5-1.05 5.55-1.85 1.7-1.35 4.2 2.7-2.05.95-.75 6.55-6.85.55-.6 6.1-4.4.6-.45 3.4-6.5 2.4 1.05-3.75 7.55-2.8 1.75 3.55-.25-8 3.25-.25.4-2.8 4.45V-66h6.35l.25-.1 3-1.9.8-.55.4-.35-4.45.45-1.45-1.3q-.65-2.55 2.65-5.15l8.4-2.95M16.4-35.6l1.85 3.35 1.75 5.4 1.15 3.6L25-18.9l3.9 4.45 5.05 10.7.6.65 3.05.75.8 1.95 3.45 3.05L42.7.6l3 2.5.7 2.1 1.45.85.3.1 2.3-4.1 7.4 5.55 10.6 3.8 5.05-.2 7.2-.3q12.85-1.3 3.35-1.6v-.05L84 9.2h.05l2.9-.15 3.75 1.2-.2 1-14.25 2.85-14 1.55L41.2 10.3l-.25-.2L34 4.5l-7.1 2.7-2.15.55-1.95 5.65-8.7 5.95-11.6.95-.3-.15-1.3-.7-.1.05v-.05L.3 15.3l-.05-.45 3.6-9.6L11.4.7 3.5-4.1l2.9-4.35 1.45-.15 3.5-4.45 2.05-2.55-2.05 2.55L7.65-11l-8.75.9-5.05 2.8L-9.2.35-9.85.2l-1.3 1.4-1.25-.7-.4.2-.6.25L-14.65 0l-.75-1.15 1.05-.1 3.35-2.3.7-1.5 1.4-3.1 2.7-4 4.25-1.3 1.4-.4.35-.25 2.6-1.65.65-.4 1.55-1.1Q1.8-23.4 7-29.55l.95-1.05q1.55-13.15 4.35-9l3.1 4.6 1-.6M.75-59.9l4.05-1.2-4.05 1.2M-20.8-77.8l-4.25 2.65-.2.35.2-.35 4.25-2.65M1.65-49.5l1 2.55 5.15-1.9-3.6-1.3-2.55.65m9.9-15-4.2.1 4.2-.1m-1.6 13.75L4.2-51l5.75.25m.7-.55-5.6-.2 5.6.2m9 27.6-2.2-8.2L15.4-35l2.05 3.1 2.2 8.2m-5.4-.9-.05-.2-2.45-.3-3.3-.35-2.1 1.95 5.2.75 1.7 3.15.15 4 .3-.4.1-.3.8-2.05.35-.8-.15-3.05v-.7l-.25-.85-.3-.85M12.8-.1l-1.4.8 1.4-.8-.8-1.6.8 1.6 1.3-1.6-1.3 1.6M9.5-47.25l3.35.25-3.35-.25M26.9-15.7l-6.5-6.5 6.5 6.5M36.85-.65l-2.3-2.45 2.3 2.45M33.05-4l-4.75-9.75L33.05-4m-18.2-45.45L11-50.4l3.85.95m-21.1-25.7-2.05.4-7.2 4 7.2-4 2.05-.4M-26.6-76.3l5.95-4.9-5.95 4.9-5.4 6.15 5.4-6.15m25.15.2-6.95 1.8 6.95-1.8m-35.95 2.7h.05l.65-.55-.65.55-2.9 5.25 2.9-5.25h-.05m4.6 10.85-3.35-.25 3.35.25m3.15 12.2-1.45-1.9-5.95 1.35-.9.2-.55.9-1.75 2.65.35.5-.35-.5 1.75-2.65 3.1.2 5.75-.75 1.25 1.6-1.25-1.6m1.65 2.1-.4-.5-2.7.85h-5.6l-3.2 1.25.75 1.15.3.4-.3-.4.3.4-.35.15-.55.3-.1.05q-.6.45 1.65 2.7l3.5.4 6.1-3.05.7-3.2.15-.15-.1-.1.1.1-.15.15.05-.25-.15-.25m-1.45-7.85-1.85-5.65 1.85 5.65m18.2 5.5-9.85-9.1 1.9 5.3 7.95 3.8m5.45-6.75.65-.5h.05-.05l-.65.5m5.35-4.7-1 .4 1-.4 3.4-1.6-3.4 1.6 6.7-2.65-6.7 2.65M-8.4-74.3l-7.7 4.95 7.7-4.95m-35.5 15.5-.95.3.95-.3m-9.55 13.3-2.2 1 2.2-1m42.1 3.3 4.6 11.4-3.3 12.85 6.85-6.65q3.95-7.8-.5-13.7l-7.65-3.9m-7.1 5.75-3.8 6.7.6 9 3.2-6.6v-9.1M-22-42.2l.7-1.1-2.3-2.75 2.3 2.75-.7 1.1m-16.75-2.45h-.05v-.05l.05.05m24.9 43.7 2.8-1.65-2.8 1.65m13.1-12-3.75.85 3.75-.85m-37.5-49.85L-42-60.05l3.75-2.75m14.65 13.4-3.1-2.9 3.1 2.9m97.75 61.75-.65-1.15.65 1.15M19.35 2.4 15.45.65l-6.4 4.9H8.1L5.15 10.8l1.95 3.1 8.3-5.35 3.95-6.15" transform="translate(66.45 88.15)"/><path fill-rule="evenodd" fill="#7a6d3b" d="m29.6-23.5 1.85-.35 1.45 1.05-.2 1.25-1.4.2-1.7-2.15m-61.25 45.15-1.8.95-4.8-2.7v-6.5l-4.35-3.95 3.05-.45 1.4-.9 2.25.5 1.55-.8 2.8.95.2.05.45 3.05.2 1.1Q-42 14.2-31 15.6l-.5 4.55-.15 1.5" transform="translate(66.45 88.15)"/><path fill-rule="evenodd" fill="#f0dfb9" d="m25.2 37.75-1.7.55-.6-.95.55-3.3.25-1.6 1-.6L26.2 33l-1 4.75m-6.35-1.4-3.75 2.8-1.05-.2 3.35-9 .25.05.6.05 1.3 2.2-.7 4.1M-15.6-1.1l.55 1.8-.2-.05-2.1 1.65-.4-1.45.45-.55.6-.75.45-.6.65-.05m.95 2.75 2.05.5-1.15 2.1-.4-.3-1.3-1 .2-.3.35-.55.25-.45m4.65.6.15.1 1.7 1.2L-10 4.6l-.45-.25-.75-.45-.5-.35-.35-.85 2.05-.45m26.75 32.1-1.2 2.6 1.2-2.6m7.3.45-.2 2.05.2-2.05" transform="translate(66.45 88.15)"/><path fill-rule="evenodd" fill="#ae9b5b" d="m28.9 33.3-2.25 3.95-1.45.5 1-4.75-1.5-1.15 1.05-.6 2.4.6.75 1.45m-6.55.4-3.5 2.65.7-4.1-1.3-2.2 3.55.5 1.05 2.75-.5.4m-4.95-3.75-2.7.4-2.5-.2 1.45-1.9 3.8-.2.15 1.35-.2.5v.05m-60.25-22.2-2.95.2-1.65-1.45 2.25-1.85 2.45.45.25.15-1 1.45.65 1.05m2.25-2.7-.55-1.7 2.05-.2 2.3 3.45-2.15.25-.95.35-.7-2.15m4.15.95.3-3.05h1.65l2.05 3.8-2.35-1-1.65.25" transform="translate(66.45 88.15)"/><path fill-rule="evenodd" fill="#efebde" d="m-24.35-36.05.05.5.1 1.35-.55.95-.85-.1-.5-3.05 1.65-.9.1 1.25M-30-34l-.75 2.7-.75.4-.35-.1-.4-3.6 2.55-.6-.3 1.2m-13.45.55v.15l-.05.75-.6 2.35H-45.8l-.8-4.65 3.3-.5-.15 1.9M-31.05-46l-1.35 1.7-4.9.5-.25-.15-.9-.55 5.15-1.05.45-.1-.3.5.3-.5 1.8-.35m-2.1.85-.1.05.1-.05m-.1.05-.05-.45.05.45" transform="translate(66.45 88.15)"/><path fill-rule="evenodd" fill="#8f8146" d="m20.3 25.05-.35-1.25-9.85.45-7.6-3.95 11.6-.95 8.7-5.95 1.95-5.65 2.15-.55L34 4.5l6.95 5.6-9.05 2.1-1.6.35-2.8 1.25-.05.2-.25.25-2.3 2.1 1.35 1.35-4.9 6.05-1.4.05 1.4-.05-1.05 1.3m-47.85-28.1-7.4.8-1 .1L-48.4-5.9l-7.1-7.8-3.95-14.55q-1.55-3.5 6.85-4.3l1.15.2 1.7-.5.05.1 2.65 4.6 1.8.2.25-2.25h.9l.6-2.35.05-.75v-.15l4.3-1 4.9.7.2 3.8 1.85-1.45.1.3.25.1.35.1.75-.4.75-2.7 3.35-1.2.05.05.9 1.8h.1l.85.1.55-.95-.1-1.35-.05-.5 1.3-2.3v-2.15l1.05-1.7.55 6.75-6.5 4.9q-7.8 3.45-15.65 6.85-3.5 6.25 2.85 15.5 3.5 2.4 10.6 1.2 7.3-.1 13.6-5.35l11.05-4.9L.6-22.1l-.1.75-2.1 4.2-13 5.45-11.9 8.55-1.05.1m-38.25-35.8-.05-.05 3.15-11.3 1.45-2.1 7.5-3.05-5.55 4.65-.5 9.4 3.9 6.3-7.65-2.05-.45-.35-1.8-1.45m31.5-33.6 7-3.75-6.55 6.85-.95.75-2.7 2.05 1.35-4.2 1.85-1.7m40.7 64L3.5-4.1 11.4.7 3.85 5.25l-3.6 9.6.05.45-3.1 1.1 1.6-9.9-3.5-8.25 10.25-6.6.85-.1m-34.8-40.3.4.5.15.25-.05.25-.7 3.2-6.1 3.05-3.5-.4q-2.25-2.25-1.65-2.7l.1-.05.55-.3.35-.15.05.4v.05h.05l.3.15.9.55.25.15 4.9-.5 1.35-1.7.5-.65 1.1.2 1.55-1.3-1.55 1.3-1.1-.2-2.95-.05-1.15-.05-4.2 1.65-.3-.4-.75-1.15 3.2-1.25h5.6l2.7-.85M-62-46.4l.25 1-.25-1m8.15 28-.5 3.1 2.95.7-2.45-3.8m35.4-18.05v9.1l-3.2 6.6-.6-9 3.8-6.7M28.7 8.75l-.2 1-1 4.05 1-4.05.2-1m4.25 16.7-1.9 1.6-2.2-1.9 1.05-2 3.05 2.3" transform="translate(66.45 88.15)"/><path fill-rule="evenodd" fill="#c2af5f" d="M37.6-2.35 47.8.2l19.05 8 5.45.9v-.05L84 9.2l.05.05v.05q9.5.3-3.35 1.6l-7.2.3-5.05.2-10.6-3.8-7.4-5.55-2.3 4.1-.3-.1-1.45-.85-.7-2.1-3-2.5-.85 2.05L38.4-.4l-.8-1.95M1.65-49.5l2.55-.65 3.6 1.3-5.15 1.9-1-2.55m10.1 24.4 2.45.3.05.2.3.85.25.85v.7l.15 3.05-.35.8-.8 2.05-.1.3-.3.4-.15-4-1.7-3.15-5.2-.75 2.1-1.95 3.3.35M72.3 9.1l1.2 2.1-1.2-2.1M12.9-24.45l-3.85-.35 3.85.35M-38.5-49.8l.55-.9.9-.2 5.95-1.35 1.45 1.9-5.75.75-3.1-.2m6.95-1.75-5.5.65 5.5-.65m20.3.95-7.95-3.8-1.9-5.3 9.85 9.1m-.1 8.4 7.65 3.9q4.45 5.9.5 13.7l-6.85 6.65 3.3-12.85-4.6-11.4m30.7 44.6L15.4 8.55 7.1 13.9l-1.95-3.1L8.1 5.55h.95l6.4-4.9 3.9 1.75" transform="translate(66.45 88.15)"/><path fill-rule="evenodd" fill="#7c6d3f" d="m20-26.85 6.2 1.95 2.5.2.9 1.2 1.7 2.15 1.15 1.5 1.5.4-1.7 1.25-2.35-1.6-4.9.9-3.85-4.35-1.15-3.6m-8.65 13.8L7.85-8.6l-1.45.15-.85.1-8.4.8L-6.6-2.4-8.1.85h-1.65l-.7 1.05q.2.15.45.35l-2.05.45-.05-.05-.25-.6-.1-.15-.15.25-2.05-.5.45-.8-.85-.15-.55-1.8.2-.05.75 1.15 1.25 1.35.6-.25.4-.2 1.25.7 1.3-1.4.65.15 3.05-7.65 5.05-2.8 8.75-.9 3.7-2.05m16.3-7.65 1.25.2 1 .7-1-.7-1.25-.2M-12.8 1.1l.35.8-.35-.8" transform="translate(66.45 88.15)"/><path fill-rule="evenodd" fill="#695c34" d="m-50.75-56.55 2.7-3.1 4.1-1.7-.9 2.85-5.1 1.6-.8.35m-3.1 38.15 2.45 3.8-2.95-.7.5-3.1" transform="translate(66.45 88.15)"/><path fill-rule="evenodd" fill="#857643" d="m-2.5-71.5 1.05 1.85-4.65 1.3q-3.7 2.2-2.35 4.4l.95 1.05 4.1 1.15-2 .55-1.2.25-1.55.2-.55-.05-4.35-.4-2.3-2.9 2.15-3.4 3.9-2.85 2.2-.85 4.6-.3M6-59.15l1.05 1.8q-2.8-1-5.6.9L.45-55l2.4 3.35-1.75-.15-5.65-3.05-.55-3 .2-.05 1.4-.5.9-.35 1.15-.4H6m7.3 13.9.8 2.85v.1l1.4 5.05.9 1.65-1 .6-3.1-4.6q-2.8-4.15-4.35 9L7-29.55.65-22.5 1-26.25l.05-.5.15-.6 2.05-7.5L6.5-43l.6-.9 3.75-2 2.45.65m-49.25 43.1-2.5.25-8.6-1.65-9.4-6.5-1.9-6.9-4.05-11.75-.3-.85.6-4.85 9.5 1.85q-8.4.8-6.85 4.3l3.95 14.55 7.1 7.8 12.45 3.75m18.7-75.9 3.9-.25 1 .45-8.4 2.95q-3.3 2.6-2.65 5.15l1.45 1.3 4.45-.45-.4.35-.8.55-3 1.9-.25.1h-6.35v-3.95l2.8-4.45.25-.4 8-3.25m4.65 80.2.15-.25.1.15-.25.1" transform="translate(66.45 88.15)"/><path fill-rule="evenodd" fill="#ddd1b9" d="m-38.85-45.1 4.2-1.65 1.15.05 2.95.05-.5.65-1.8.35-.45.1-.2-1.15.2 1.15-5.15 1.05-.3-.15-.05-.05-.05-.4" transform="translate(66.45 88.15)"/><path fill-rule="evenodd" fill="#d3c5a5" d="m-64.9-35.95-.9 1.65-.65-.65.65-3.9 1.8 1.45-.95 1.3.05.15m39.3 2.6h-.1l-.9-1.8-.05-.05-.8-1.6 2.6-.85.35-.5.05.85-1.65.9.5 3.05M-31.85-31l-.25-.1-.1-.3-1.35-4 .95.25 3.15-1-.25.95-2.55.6.4 3.6m-11.4-5.8-.05 1.45-3.3.5.8 4.65h-.05l-2.6-4.9 5.2-1.7" transform="translate(66.45 88.15)"/><path fill-rule="evenodd" fill="#6d6136" d="m-19.15 16.9-3.2-.75-2.95 4.35-3.55-.4-2.8 1.55.15-1.5.5-4.55q-11-1.4.3-2.65l-.2-1.1-.45-3.05-.2-.05-2.8-.95-1.55.8-2.25-.5-1.4.9-3.05.45-.25-.25V7.75l-.65-1.05 1-1.45h.05l1.85-.2.7 2.15.95-.35 2.15-.25.2.3.05-.35v-.1l.1-.45 1.65-.25 2.35 1 .35.65 4.75.15v2.3l3.8 3.3 3.15 2.7.35.3.9.75m-20.6-9.15-.15-.55.15.55" transform="translate(66.45 88.15)"/><path fill-rule="evenodd" fill="#817241" d="m90.5 11.25-.45 2.15-5.45 1.7-10 2.55-3.5.85-.25.05-5 .15-5.3.15-.1-.05-.4-.05L50 17.5h-.25l-8.5-1.3-5.55-.8-6.85-1.45-1.5.45-.1.5-.05-.65.05.65-.05.25.05.05 2.95.65 2.8 3.1-1.65 2.8-.2.35L35 24.05l.4 3.8-3.65 3.1.1 1.9-1.45.85-1.35-.6-.15.2-.75-1.45-2.4-.6-1.05.6-1 .6-.25 1.6-1.1-.35.5-.4-1.05-2.75-3.55-.5-.6-.05v-.1l-.05-.5-.15-1.35-.05-.2 3.1-.65.1.2.2-1.2v-.1l-.25.05-.25-1.1 1.05-1.3 1.75-.1-1.75.1 4.9-6.05-1.35-1.35 2.3-2.1.25-.25.05-.2 2.8-1.25 1.6-.35 9.05-2.1.25.2 21.05 5.35 14-1.55 14.25-2.85m-5.9 2.2v1.65-1.65m-13.5 3.7v1.35-1.35m4.5-1.05-1 1.55 1-1.55m-9 1.35-.75 1.25.75-1.25m-4.2.25-1.95 1.1 1.95-1.1m-10.35-1.6L50 17.5l2.05-1.4m-7.4-.5-3.4.6 3.4-.6m-17.3-1.2.1-.4-.1.4m.15 5.4-.2-4.15-.05-.45.05.45.2 4.15m-.3-4.65.1.5-.1-.5m1.35 7.05 2.8-.45-2.8.45m10.55-9-3.4 2.2 3.4-2.2m-6.15 12.25-3.05-2.3-1.05 2 2.2 1.9 1.9-1.6m-1.2 5.5-.1-1 .1 1m-7.85-5.4-3.1.55 3.1-.55m-1.05 3.55-2.1-1.3-.15-.4.15.4 2.1 1.3m1.5-1.05-.65 4.4.65-4.4" transform="translate(66.45 88.15)"/><path fill-rule="evenodd" fill="#ae732b" d="m-62.7-29.55-2.2-6.4-.05-.15.95-1.3.45.35L-55.9-35l1.75.45 3.15.25 2.55-.8 2.6 4.9H-45l-.25 2.25-1.8-.2-2.65-4.6-.05-.1-1.7.5-1.15-.2-9.5-1.85-.6 4.85" transform="translate(66.45 88.15)"/><path fill-rule="evenodd" fill="#c88331" d="M-23.05-40.5v2.15l-1.3 2.3-.1-1.25-.05-.85 1.45-2.35m-3.6 5.3L-30-34l.3-1.2.25-.95 2-.65.8 1.6m-5.55 3.8-1.85 1.45-.2-3.8-4.9-.7-4.3 1 .15-1.9.05-1.45 1.9-.65 7.8 2.05 1.35 4" transform="translate(66.45 88.15)"/><path fill-rule="evenodd" fill="#887446" d="M.65-22.5 7-29.55q-5.2 6.15-2.4 12.3l-1.55 1.1-.65.4-2.6 1.65-.35.25-1.4.4.6-3.65-.25-.05 2.1-4.2.1-.75.05-.4" transform="translate(66.45 88.15)"/><path fill-rule="evenodd" fill="#82612d" d="m-10.6 19.95-7.55-2.15-1-.9-.9-.75 13.2 2.35-3.75 1.45" transform="translate(66.45 88.15)"/><path fill-rule="evenodd" fill="#6c5837" d="m.8 19.5-6.4 1.85-5-1.4 3.75-1.45 3.75-2.1h.3l3.1-1.1.5 4.15v.05" transform="translate(66.45 88.15)"/><path fill-rule="evenodd" fill="#8c6d48" d="m-15.4-1.15-.2.05-.65.05-.45.6-.6.75-.45.55.4 1.45 2.1-1.65.2.05.85.15-.45.8-.25.45-.35.55-.2.3 1.3 1-1.1 3.4L-9.8 9.8l-.35-2.75V7l3.35-1.2 1.55-7.2.55-.35 3.5 8.25-1.6 9.9h-.3l-3.75 2.1-13.2-2.35-.35-.3-3.15-2.7-1.15-3.55-.05-.2-.6-1.8-.45-2.35.65.15.3-3.65.2-2.5 10.85-5.3 3.5 1-.7 1.5-3.35 2.3-1.05.1m-.75 7.95-2.9-.3 2.9.3m.15 6.45-2.3-1.05 2.3 1.05m-5.05-6.75-4.1-1.1 4.1 1.1m-.35 4.55-2-1.05 2 1.05m1.3-8.75-4.75-.55 4.75.55" transform="translate(66.45 88.15)"/><path fill-rule="evenodd" fill="#a77e58" d="m-27.35 7.55-.05-2.75-.05-3.35-.05-.85q1.4-.7 2.85-1.35l-.2 2.5-.3 3.65-.65-.15-1.6-.45 1.6.45.45 2.35.6 1.8.05.2 1.15 3.55-3.8-3.3v-2.3m.85 1.25 1.75.6-1.75-.6m1.65-7.05-2.6-.3 2.6.3" transform="translate(66.45 88.15)"/><path fill-rule="evenodd" fill="#836345" d="m-27.5.6-.05-3.65 1.05-.1 11.9-8.55 13-5.45.25.05-.6 3.65-4.25 1.3-2.7 4-1.4 3.1-3.5-1-10.85 5.3Q-26.1-.1-27.5.6" transform="translate(66.45 88.15)"/><path fill-rule="evenodd" fill="#71533e" d="M-10 2.25q-.25-.2-.45-.35l.7-1.05h1.65l1.5-3.25 3.75-5.15 8.4-.8-10.25 6.6-.55.35-1.55 7.2-3.35 1.2v.05l.35 2.75-5.45-2.45 1.1-3.4.4.3 1.15-2.1.25-.1.25.6.05.05.35.85.5.35.75.45.45.25 1.85-1.05-1.7-1.2-.15-.1" transform="translate(66.45 88.15)"/><path stroke-width=".05" stroke-linejoin="round" stroke-linecap="round" stroke="#4f3517" fill="none" d="m54.1 10.3 6.1 2.7 4.8-.95 1.3-.3L70.5 7l.9 1.85-5.1 5.2-3.25 1 .9 1.6L65 18.5l2.1 3.7 2.3 2.3 3.3-1.05 8.15-3.4.05 2.35-6.2 3.6-3.45 1.05 1.2 1.95 1.05 1.8 3.6 6.05.05.05 4.4 1 2.3.2v2.5l-2.5.65-2.05-.1.45 1.75.8 2.85m0 .1 1.4 5.05.9 1.65 1.85 3.35 1.75 5.4 6.2 1.95 2.5.2.9 1.2 1.85-.35 1.45 1.05-.2 1.25-1.4.2 1.15 1.5 1.5.4-1.7 1.25-2.35-1.6-4.9.9 3.9 4.45 5.05 10.7.6.65 3.05.75 10.2 2.55 19.05 8 5.45.9v-.05l11.7.15h.05l2.9-.15 3.75 1.2-.2 1-.45 2.15-5.45 1.7-10 2.55-3.5.85-.25.05-5 .15-5.3.15-.1-.05m-.4-.05-10.05-1.25m-.25 0-8.5-1.3-5.55-.8-6.85-1.45-1.5.45-.1.5-.05.25.05.05 2.95.65 2.8 3.1-1.65 2.8-.2.35 3.85 1.95.4 3.8-3.65 3.1.1 1.9-1.45.85-1.35-.6-.15.2-2.25 3.95-1.45.5-1.7.55-.6-.95.55-3.3-1.1-.35-3.5 2.65-3.75 2.8-1.05-.2 3.35-9-2.7.4-2.5-.2 1.45-1.9 3.8-.2-.05-.2 3.1-.65.1.2.2-1.2v-.1l-.25.05-.25-1.1-.35-1.25-9.85.45-7.6-3.95m-.3-.15-1.3-.7-.1.05-6.4 1.85-5-1.4-7.55-2.15-1-.9-3.2-.75-2.95 4.35-3.55-.4-2.8 1.55-1.8.95-4.8-2.7v-6.5l-4.35-3.95-.25-.25V95.9l-2.95.2L19 94.65l2.25-1.85 2.45.45.25.15H24l1.85-.2-.55-1.7 2.05-.2 2.3 3.45.25-.05v-.1l.1-.45.3-3.05h1.65L34 94.9l.35.65 4.75.15-.05-2.75L39 89.6l-.05-.85-.05-3.65-7.4.8m-1 .1-2.5.25-8.6-1.65-9.4-6.5-1.9-6.9-4.05-11.75m-.3-.85-2.2-6.4-.9 1.65L0 53.2l.65-3.9-.05-.05 3.15-11.3 1.45-2.1 7.5-3.05 3-1.2 2.7-3.1 4.1-1.7.1-.05.9-1.7M26.2 20l2.65-5.1.2-.15.7-.55 1-5.8 1.55-.75.9 2.5-1.05 5.55 7-3.75.55-.6 6.1-4.4.6-.45L49.8 0l2.4 1.05-3.75 7.55-2.8 1.75 3.55-.25 3.9-.25 1 .45m13.55 50.5-.15.6m-25.35-8.8.1 1.35-.55.95-.85-.1h-.1l-.9-1.8m-3.4 1.15-.75 2.7-.75.4-.35-.1-.25-.1-.1-.3M23 54.85l-.05.75-.6 2.35h-.9m65 3.35 1.15 3.6 3.85 4.35m-59.8-49.7.95-.75 6.55-6.85m-1.1 27.45.4.5m.15.25.1.1-.15.15M27.6 43.05l-.3-.4m30.45-15.3.55.05m7.2 1.6H65m-1.15.4-.9.35m-1.4.5-.2.05h-.05l-.65.5M66 26.1l3.4-1.6M18 53.05l-2.55.8-3.15-.25-1.75-.45L2.9 51.1l-.45-.35-.95 1.3.05.15m16.45.85 2.6 4.9H21.45m11.45-5.2-7.8-2.05-1.9.65M41.95 50l-.35.5m-2.6.85.8 1.6M41.95 50l.05.85.1 1.25m-8.05-8.25-4.9.5-.25-.15m-1.25-.75-.05-.4m5.6 0 .1-.05m-.4 9.75 1.35 4M37 52l-.25.95-.3 1.2m2.55-2.8L37 52m17 38.05-.35-.8M46.4 104.3l.9.75m-8.2-9.35V98l3.8 3.3 3.15 2.7M29.9 94.7l-.05.35-.2-.3m64.3 7.2-.05.2-.1.4m-.05 1.25-.1-.5m-9.55 14.85v-.1l-.05-.5-.2.5v.05m.25.05.6.05 3.55.5 1.05 2.75-.5.4m-4.75-4.3-.15-1.35m14.2 1.9.1 1m-8.05 1.5 1-.6 1.05-.6 2.4.6.75 1.45m-5.45.75.25-1.6"/><path stroke-width=".05" stroke-linejoin="round" stroke-linecap="round" stroke="#36f" fill="none" d="m33.3 43 .3-.5"/><path stroke-width=".05" stroke-linejoin="round" stroke-linecap="round" stroke="#c33" fill="none" d="m44.75 22.05-.25.1"/><path stroke-width="2" stroke-linejoin="round" stroke-linecap="round" stroke="#4f3517" fill="none" d="m33.15 42.6.05.45m-.05-.45-.2-1.15"/><path stroke-width=".05" stroke-linejoin="round" stroke-linecap="round" stroke="#cf973c" fill="none" d="M23.5 25.05 26.2 20m31.85-6.15 6.95-1.8m-19.2-5.1-5.95 4.9m-10.1 2.35-.65.55L26.2 20m2.9-5.25h-.05"/><path stroke-linejoin="round" stroke-linecap="round" stroke="#4f3517" fill="none" d="m-55.65-44.5 2.2-1m-8.3.1-.25-1" transform="translate(66.45 88.15)"/><path stroke-width=".05" stroke-linejoin="round" stroke-linecap="round" stroke="#645533" fill="none" d="m47.4 94.65 2.9.3m-2.15 5.4 2.3 1.05m-9.15-7.85 4.1 1.1m-6.35-1.7 1.6.45.65.15m.45 4.2-.05-.2-1.75-.6m3.1 1.2 2 1.05M39 89.6l2.6.3 4.75.55"/><path stroke-width=".05" stroke-linejoin="round" stroke-linecap="round" stroke="#fff" fill="none" d="m49.75 87.7-.6.75M56 92.5l-.75-.45m-3.7-1.8-.35.55M82 125.1l1.2-2.6m7.1 2.5.2-2.05"/><path stroke-width=".05" stroke-opacity=".49" stroke-linejoin="round" stroke-linecap="round" stroke="#675128" fill="none" d="m77.85 88.85 1.4-.8m19.1 12.3-1.6.35-2.8 1.25m-6.15 9.95-1.4.05"/><path stroke-width=".05" stroke-opacity=".6" stroke-linejoin="round" stroke-linecap="round" stroke="#675128" fill="none" d="m47.75 20.15-3 1.9m-6.6-3.85 2.8-4.45m.25-.4.2-.35 4.25-2.65m25.6 16.7-4.05 1.2m4.3 8.4 5.6.2M67.45 61.9l-.35 3.75m11.1-2.6 2.45.3.05.2m.3.85.25.85m0 .7L81.4 69l-.35.8m-.8 2.05-.1.3-.3.4-2.05 2.55-3.5 4.45-1.45.15m6.4 8.35-.8-1.6m.85-45.3-3.35-.25m-7.1 31.5.65-.4m-4.65-1 2.1-4.2.1-.75m-22.6-20.1-1.05 1.7L41.95 50M72 79.8l.85-.1m6.4 8.35 1.3-1.6m15.8-18.1-1-.7-1.25-.2m6.9 17.6 2.3 2.45m36.65 11.85-1.2-2.1m-42.7-32.6 1.7 2.15m-46.8-49.4 7.2-4 2.05-.4m-28.05 2.7-1.85 1.7-1.35 4.2m1.35 3.75 3.35.25m-5.7 12.75.55-.9.9-.2 5.95-1.35 1.45 1.9 1.25 1.6M26.6 43.55l.1-.05.55-.3.35-.15 4.2-1.65 1.15.05 2.95.05 1.1.2 1.55-1.3M27.3 42.65l-.75-1.15-.35-.5 1.75-2.65m7.2-11.95L37 32.05m26.05-17-3.65 1.1-2.25 1.65-3.9 2.85-2.15 3.4m8.75 3.15 1.2-.25m-39.45 2.7.95-.3M15.7 31.6l.8-.35 5.1-1.6M42.85 42.1l2.3 2.75-.7 1.1M38.9 85.1l1.05-.1 11.9-8.55 13-5.45m-.35 3.7 1.4-.4.35-.25M51.05 87l-.2.05-.65.05-.45.6m1.65 1.15.85.15-.45.8-.25.45m2.3.05.15-.25m-4.85-1.6-.45.55.4 1.45 2.1-1.65.2.05m4.75-5.75 1.4-3.1 2.7-4 4.25-1.3m-8.35 8.4-.7 1.5-3.35 2.3-1.05.1M72 79.8l-8.4.8-3.75 5.15-1.5 3.25H56.7l-.7 1.05q.2.15.45.35m.15.1 1.7 1.2-1.85 1.05-.45-.25m-.75-.45-.5-.35-.35-.85m-.05-.05-.25-.6-.1-.15m-.15.25-1.15 2.1-.4-.3M39.75 35.85l3.1 2.9M24.45 28.1l3.75-2.75m23 65.45-.2.3 1.3 1m14.45 11.35-.05-.45 3.6-9.6 7.55-4.55m62.1 10.5.65 1.15m-46.65 1.45 1-4.05.2-1m-7.35 15 1.75-.1m-22.8-8.35.5 4.15v.05m19.8 7.9.15.4 2.1 1.3m-2.05-3 3.1-.55m-.2 6.9.65-4.4"/><path stroke-width=".05" stroke-opacity=".6" stroke-linejoin="round" stroke-linecap="round" stroke="#382c16" fill="none" d="m67.05 66.05.05-.4m-37.45 29.1L27.5 95l-.95.35.15.55m8.2 1 .2.05.45 3.05m-.1 3.75-.5 4.55M30 94.15l1.65-.25 2.35 1m-10.4 1-.65-1.05 1-1.45m1.9-.2.7 2.15"/><path stroke-opacity=".682" stroke-linejoin="round" stroke-linecap="round" stroke="#382c16" fill="none" d="m-43.25-36.8-5.2 1.7M-64-37.4l-1.8-1.45m40.95 1.2-2.6.85m-2 .65-3.15 1-.95-.25" transform="translate(66.45 88.15)"/><path stroke-width=".05" stroke-linejoin="round" stroke-linecap="round" stroke="#54472c" fill="none" d="m126.9 106.95-.4-.05m-10.05-1.25h-.25m-22.5-2.6v.3l.05.45.2 4.15m57.1-4.7v-1.65m-18.75 5.25.75-1.25m8 .2 1-1.55m-4.5 2.4v-1.35m-29.85-.95 3.4-.6m5.35 1.9 2.05-1.4m8.4 2.7 1.95-1.1m-35.2-3.45.05.65m8.45.5 3.4-2.2m-7.75 8.55-2.8.45"/><path stroke-width=".05" stroke-linejoin="round" stroke-linecap="round" stroke="#dacc9e" fill="none" d="M39.85 11.85 34.45 18m15.9.8 7.7-4.95M70.65 37.15l5.75.25m-2.6-13.65 4.2-.1m.75 24.9 3.1 4.6 2.05 3.1 2.2 8.2m.75 1.5 6.5 6.5m1.4 1.95 4.75 9.75m-24-20.8 3.85.35m-1.9-25.95 3.85.95m-51.9-1.45 5.5-.65M65 26.5l1-.4 6.7-2.65m-17.3 62.1-2.8 1.65m9.35-11.15 3.75-.85"/></g><g id="e"><path stroke-width=".05" stroke-linejoin="round" stroke-linecap="round" stroke="#fff" fill="none" d="m23.3 29.6 1.45-.25"/><path fill-rule="evenodd" fill-opacity=".651" fill="#99702c" d="M3.75-44.1q.45 0 .75.35l.35.9q0 .5-.35.85-.3.4-.75.4t-.8-.4q-.3-.35-.3-.85t.3-.9q.35-.35.8-.35M14.2-29.75q-.5.55-1.2.55t-1.25-.55q-.5-.5-.5-1.2t.5-1.25q.55-.5 1.25-.5t1.2.5q.55.55.55 1.25t-.55 1.2m7.35 12.9q.75 0 1.3.6t.55 1.45q0 .85-.55 1.45t-1.3.6q-.75 0-1.3-.6t-.55-1.45q0-.85.55-1.45t1.3-.6m5.3 7.65q0 .7-.45 1.2t-1.1.5q-.65 0-1.1-.5-.45-.5-.45-1.2t.45-1.2q.45-.5 1.1-.5.65 0 1.1.5.45.5.45 1.2m26.2 15.85 3.25.3q1.55.6 2.1 1.8.55 1.15-.25 2.25t-1.95.9q-1.25-.2-1.35-.65l-.7-1.5q-.6-1.05-1.7-1.9-1.1-.9.6-1.2M49 6.05q.4.4.4.95 0 .55-.4.9-.35.4-.9.4t-.95-.4q-.35-.35-.35-.9t.35-.95q.4-.35.95-.35.55 0 .9.35M-15.55-74.9q.85.55.85 1.35t-.85 1.35q-.8.55-1.95.55t-2-.55q-.8-.55-.8-1.35t.8-1.35q.85-.55 2-.55t1.95.55m6.45 9.15-.9-.3q-.35-.25-.35-.65l.35-.7.9-.25.85.25q.4.3.4.7 0 .4-.4.65-.35.3-.85.3m-4.65 9.2q-.35-.4-.35-1t.35-1q.4-.4.9-.4t.85.4q.4.4.4 1t-.4 1q-.35.4-.85.4t-.9-.4m9.25 4.1q1.3 0 2.2.95.9.95.9 2.3 0 1.35-.9 2.3-.9.95-2.2.95-1.3 0-2.2-.95-.9-.95-.9-2.3 0-1.35.9-2.3.9-.95 2.2-.95m-52.65 1.5q.4 0 .65.2l.3.6q0 .35-.3.55-.25.25-.65.25t-.7-.25l-.25-.55.25-.6.7-.2m5.25-.1.35-.8.9-.3q.5 0 .85.3.4.35.4.8 0 .45-.4.75-.35.35-.85.35t-.9-.35q-.35-.3-.35-.75m7 .1q.95 0 1.65.6t.7 1.45q0 .85-.7 1.45t-1.65.6q-.95 0-1.65-.6t-.7-1.45q0-.85.7-1.45t1.65-.6" transform="translate(58.1 75.45)"/><path fill-rule="evenodd" fill="#5a4429" d="M-2.35 10.85q-.25-.4.15-.6.4-.2.65.2.25.3-.2.55-.4.25-.6-.15m-1.8-4.15q-.45-.55.3-1 .75-.45 1.1.35.3.75-.35.95-.65.2-1.05-.3m-4.2 11.8q.45-.45 1 .1t-.15.9l-1-.1q-.4-.5.15-.9m5.95-4.9q-.3-.45.1-.75.35-.35.7.1.3.45-.1.8-.4.3-.7-.15m-.05 3q-1 .45-1.45-.3-.5-.75.35-1.3.85-.6 1.5.3.6.9-.4 1.3m-3.85 1.6.35-.4q.6-.35.95.25.3.55-.2.9l-.55.05-.1.1q-.5.35-.75-.1-.25-.45.15-.7l.15-.1m1.75-.55q-.4-.5.15-.9.45-.45 1 .1t-.15.9l-1-.1" transform="translate(58.1 75.45)"/><path fill-rule="evenodd" fill="#a39550" d="m-26.75-55.05-2.95-2.1-8.55 3.5-1.25.5-.55 1.4-1.55 4.05.65.55-.65-.55 1.55-4.05 4.8-.65 8.5-2.65 2.45 1.8-2.45-1.8m3.3 2.4-.85-.6-3.7 1.95-8.55 1.55-4.4 2.6 1.65 1.35.55.45-.55-.45.6.45h-.05l-.45.3-.7.55-.15.15q-.75.75 3.55 3.1l5.45-.45 8.15-5.8-.2-4.55.2-.2-.2-.15.2.15-.2.2v-.35l-.35-.25m2.5-2.75.6 1q1.85 3.3 1.25 6.75-1.65 2.85-4.95 4.95l-1.75.35q-7.75 2.85-15.7 2.55l-.1-.35q-1.15-6.9-.85-14.05l.4-1.65 2.6-3.75q7.05-.8 13.4.75l3.8 2.05 1.3 1.4m-17.5 10.6h.1l-.15.05.05-.05" transform="translate(58.1 75.45)"/><path fill-rule="evenodd" fill="#c2af5f" d="m-40.05-51.75.55-1.4 1.25-.5 8.55-3.5 2.95 2.1-8.5 2.65-4.8.65m9.95-4.35-8.15 2.45 8.15-2.45" transform="translate(58.1 75.45)"/><path fill-rule="evenodd" fill="#8f8146" d="m-24.3-53.25.85.6.35.25v.35l.2 4.55-8.15 5.8-5.45.45q-4.3-2.35-3.55-3.1l.15-.15.7-.55.45-.3.3.55-.05.05.15-.05v.4l.7.9 2.55.5q1.55-1.75 3.35-2.45 2.2-.8 4.75-.05l1.1-3.25-.8-1.05-4.5.75-1.75.3q-4.3.8-5.75 3.4l-.6-.45-1.65-1.35 4.4-2.6L-28-51.3l3.7-1.95m1.2 1.2-1.85 2.2-1.75.05 1.75-.05 1.85-2.2" transform="translate(58.1 75.45)"/><path fill-rule="evenodd" fill="#ddd1b9" d="m-25.9-48.75-3.95.95-.6.3-1.3 2.05q-1.8.7-3.35 2.45l-2.55-.5-.7-.9v-.4h-.1l-.3-.55h.05q1.45-2.6 5.75-3.4l1.75-.3 4.5-.75.8 1.05m-8.35 1.55.25.55-.25-.55" transform="translate(58.1 75.45)"/><path fill-rule="evenodd" fill="#efebde" d="m-31.75-45.45 1.3-2.05.6-.3 3.95-.95-1.1 3.25q-2.55-.75-4.75.05" transform="translate(58.1 75.45)"/><path stroke-width=".05" stroke-opacity=".6" stroke-linejoin="round" stroke-linecap="round" stroke="#675128" fill="none" d="m18.05 23.7.55-1.4 1.25-.5 8.55-3.5 2.95 2.1 2.45 1.8m-15.75 8.9.15-.15.7-.55.45-.3m-.55-.45-1.65-1.35-.65-.55 1.55-4.05m13.35 1.95 1.75-.05L35 23.4m-3.6 2.25-4.5.75-1.75.3q-4.3.8-5.75 3.4"/><path stroke-width=".05" stroke-linejoin="round" stroke-linecap="round" stroke="#dacc9e" fill="none" d="M19.85 21.8 28 19.35"/><path stroke-width=".05" stroke-linejoin="round" stroke-linecap="round" stroke="#4f3517" fill="none" d="m33.8 22.2.85.6m.35.25.2.15-.2.2m-15.65 6.7-.55-.45m7.55.35q2.2-.8 4.75-.05m-11.7.15h-.05l.3.55m.8 1.3 2.55.5q1.55-1.75 3.35-2.45"/><path stroke-width="5" stroke-linejoin="round" stroke-linecap="round" stroke="#4f3517" fill="none" d="m24.1 28.8-.25-.55"/><path stroke-width=".05" stroke-linejoin="round" stroke-linecap="round" stroke="#fff" fill="none" d="M26.85 27.6 25 28.8"/></g><use xlink:href="#a" width="102.95" height="45" id="g"/></defs><path fill="none" d="M-1-1h248v202H-1z"/><g><use x="163.109" y="202.97" xlink:href="#b" width="381" transform="translate(-192.55 -294)" height="381"/><use x="-106.087" y="132.013" xlink:href="#c" width="157.15" transform="matrix(-1.5375 0 0 1.5375 80.467 -200.881)" height="127.3"/><use x="-106.087" y="132.013" xlink:href="#d" width="46.7" transform="matrix(-1.5375 0 0 1.5375 35.95 -174.15)" height="44.5"/><use x="-106.087" y="132.013" xlink:href="#e" width="116.7" transform="matrix(-1.5375 0 0 1.5375 67.63 -181.355)" height="95.1"/><use x="-106.087" y="132.013" xlink:href="#f" width="158.15" transform="matrix(-1.5375 0 0 1.5375 81.469 -201.872)" height="128.4"/><use x="3.909" xlink:href="#g" width="102.95" transform="matrix(-1.6554 0 0 1.5149 268.18 34.92)" height="45"/></g></svg>