<svg width="140" height="163" xmlns="http://www.w3.org/2000/svg" xmlns:xlink="http://www.w3.org/1999/xlink"><defs><g id="j" stroke-opacity="0" stroke-linejoin="round" stroke-linecap="round" stroke="#f0f" fill="none"><path d="M187.95-293.5v380h-380v-380h380M92.95.6H-97" transform="translate(192.55 294)"/><path d="m187.95-293.5-190 190 190 190m-380-380 190 190L-192 86.5" transform="translate(192.55 294)"/></g><g id="k"><path fill-rule="evenodd" fill="#fede81" d="M19.05-3.5q-3.25-4.05-3.5-9 6.45-.85 8.3-4.05 1.75-3.25 4.95-7.4 3.25-4.15 8.5-8 5.15-3.95 11.4-5.35l9.05-1.75 3.3-.2h1.45l18.45-1.1-2.2 1.1Q75.4-37.85 73.5-35l-1.6 3.05 4.25-.95 5-.45q7.35-.55 14.55 1.4 7.55 2.2 14.1 6.8l4.6 3.25q-3.9-1.6-7.85-2.5-3.65-1.2-7.45-1.85l-6.15.75-2.8.65Q79.5-26.5 73.95-23.1q2.4-.4 6.45 3.5l2.1.55q5.1-.75 12.9 2.2l1.2 2.5q1.2 3.4 1.65 7.35-1.65-3.4-4.75-5.6-2.6-1.85-5.75-1.1l-3.5 1.45L80.2-9.4l-.9 2.7-.3.1.1.25 6.65 15.5Q79 16.4 68.9 18.25l-9.05-2.2.1.1q7 5.4 8.65 14.1.65 2.65-.35 5.4l-.95 2.05-5.05 1.1-2.4-1.4q-2.5-1.8-3.6-4.75-1.75-6.65-3.2-13.3l-.2-1.9-1 5.85q-16.05 1.4-28-9.75l-.95-1.65q-3.3-7.35-3.85-15.4l7.65 7.1-7.65-7.1M35.6-17.6l1.05-.9q1.85-2.1 3-4.6 1.2-2.6 0-3.4l-4.1-.1q-2.9.65-5.1 2.4l-.25.15-1.5 1.6q-.75.9-1.1 2.1-.65 2.1.75 3.4 1 .95 2.75 1 0 .4.35.5.75.25 2.4-.75l1.75-1.4m3.05-.1-.55.6Q35.25-15 34.8-13q-.65 2.25.75 3.45.7.7 1.8.9h-.45q-2.4 0-2.85 1.2-.45 1.2 1.2 2.85 1.55 1.65 4.4 2.85 2.8 1.1 5.2 1.1 2.4 0 2.85-1.2.45-1.2-1.2-2.85-1.65-1.75-4.45-2.85-2-.8-3.65-1l1-.1q1 .3 2.75-.55 1.75-.9 3.25-2.5 1.2-1.35 1.65-2.65l.25-.55q1.05-2.2.55-3.8-.45-1.65-3.1-1.55-2.75.1-6.1 2.55m21.2 33.75-.9-.65q-1.05-.65-2.15-1-2.2-1.05-3.5.9-.45.65-.45 1.5v.65-.65q0-.85.45-1.5 1.3-1.95 3.5-.9 1.1.35 2.15 1l.9.65" transform="translate(-15.3 40.6)"/><path fill-rule="evenodd" fill="#e9af50" d="m84-22.45-1.5.8 1.65-.35 1.5-.1 2.5.3q4.85 1 7.25 4.95-7.8-2.95-12.9-2.2l-2.1-.55q-4.05-3.9-6.45-3.5 5.55-3.4 16.2-1.75-3.2.8-6.15 2.4m3.75 8.75.75 3.1q1.75 7.75.55 15.4l-.1.75q-1.45 8.4-6.9 14.85l-3.2 3.3-.4-.2-1.55-1.1q-2.2-1.4-4.35-1.65-3-.35-4.3 1.4-1.05 1.35-.4 3.5l.3.9q.75 1.65 2.4 2.85l-.55.2-1.4.65q-1.65-8.7-8.65-14.1l-.1-.1 9.05 2.2Q79 16.4 85.75 9.15L79.1-6.35l.2-.35q2.4-.75 4.25.35 1 .65 1.75 1.85l1.75 3.2q1.35-3.3 1.1-6.45-.4-3.5-3.9-4.5 3.5 1 3.9 4.5.25 3.15-1.1 6.45L85.3-4.5q-.75-1.2-1.75-1.85-1.85-1.1-4.25-.35l-.2.35-.1-.25.3-.1.9-2.7 4.05-2.85 3.5-1.45m-31.5 46.35q-5.8 0-11.25-2.05-6.6-2.1-12.15-6.35-5.8-4.45-9-10.7 11.95 11.15 28 9.75l1-5.85.2 1.9q1.45 6.65 3.2 13.3m26.25-54.3-2.1 2.05 2.1-2.05" transform="translate(-15.3 40.6)"/><path fill-rule="evenodd" fill="#b6620e" d="M78.85 23.7q2.55 2.2 3.65 4.8 1.1 2.75-.15 4.4-1.3 1.75-3.5.35-2.25-1.35-5.8-2.65h-.2L71 29.7l-.45-.3q-1.65-1.2-2.4-2.85l-.3-.9q-.65-2.15.4-3.5 1.3-1.75 4.3-1.4 2.15.25 4.35 1.65l1.55 1.1.4.2m-28.2 16.75q-.3 2.15-2.85 2.15-2.7-.2-6.45.55l-.2.05-2.05.2q-2.35-.1-3.95-1.35l-.75-.6q-1.65-1.55-1.35-3.3.25-2.1 3.05-3.3 2-.85 4.5-.75l1.95.1q3.65.45 5.95 2.3 2.4 1.85 2.15 3.95" transform="translate(-15.3 40.6)"/><path fill-rule="evenodd" fill="#c7d1d8" d="m28.7-22.45 1.5-1.6.25-.15q2.2-1.75 5.1-2.4l4.1.1q1.2.8 0 3.4-1.15 2.5-3 4.6l-1.05.9 1.2-1.2q1.5-1.65 2.15-3 .45-1.3-.3-1.5-.75-.25-2.2.65-1.65 1-3.15 2.65-1.45 1.6-1.9 2.95-.4.65-.3 1.1-1.75-.05-2.75-1-1.4-1.3-.75-3.4.35-1.2 1.1-2.1m9.95 4.75q3.35-2.45 6.1-2.55 2.65-.1 3.1 1.55.5 1.6-.55 3.8l-.25.55.2-.45q.25-1.4-.75-1.75l-1.85.05q-1.55-1.8-6-1.2" transform="translate(-15.3 40.6)"/><path fill-rule="evenodd" d="M31.1-15.95q-.1-.45.3-1.1.45-1.35 1.9-2.95 1.5-1.65 3.15-2.65 1.45-.9 2.2-.65.75.2.3 1.5-.65 1.35-2.15 3l-1.2 1.2-1.75 1.4q-1.65 1-2.4.75-.35-.1-.35-.5m15.95 1.6q-.45 1.3-1.65 2.65-1.5 1.6-3.25 2.5-1.75.85-2.75.55h-.1q-1-.45-.65-1.95.4-1.35 1.85-2.95 1.5-1.65 3.25-2.55l.9-.4 1.85-.05q1 .35.75 1.75l-.2.45" transform="translate(-15.3 40.6)"/><path fill-rule="evenodd" fill="#fff" d="m38.1-17.1.55-.6q4.45-.6 6 1.2l-.9.4q-1.75.9-3.25 2.55-1.45 1.6-1.85 2.95-.35 1.5.65 1.95h.1l-1 .1-1.05-.1q-1.1-.2-1.8-.9-1.4-1.2-.75-3.45.45-2 3.3-4.1" transform="translate(-15.3 40.6)"/><path fill-rule="evenodd" fill-opacity=".322" fill="#f40bae" d="M38.4-8.55q1.65.2 3.65 1 2.8 1.1 4.45 2.85 1.65 1.65 1.2 2.85-.45 1.2-2.85 1.2t-5.2-1.1q-2.85-1.2-4.4-2.85-1.65-1.65-1.2-2.85.45-1.2 2.85-1.2h.45l1.05.1" transform="translate(-15.3 40.6)"/><path stroke-width=".5" stroke-linejoin="round" stroke-linecap="round" stroke="#b8800c" fill="none" d="m74.85 15.75 2.8-.65 6.15-.75q3.8.65 7.45 1.85 3.95.9 7.85 2.5l-4.6-3.25q-6.55-4.6-14.1-6.8-7.2-1.95-14.55-1.4l-5 .45-4.25.95 1.6-3.05q1.9-2.85 5.25-4.25l2.2-1.1-18.45 1.1h-1.45l-3.3.2L33.4 3.3Q27.15 4.7 22 8.65q-5.25 3.85-8.5 8-3.2 4.15-4.95 7.4-1.85 3.2-8.3 4.05.25 4.95 3.5 9l7.65 7.1m57.45-25.6-.15-.45-1.5.8 1.65-.35 1.5-.1 2.5.3q4.85 1 7.25 4.95l1.2 2.5q1.2 3.4 1.65 7.35-1.65-3.4-4.75-5.6-2.6-1.85-5.75-1.1l.75 3.1q1.75 7.75.55 15.4l-.1.75q-1.45 8.4-6.9 14.85l-3.2 3.3M53.3 70.85q.65 2.65-.35 5.4L52 78.3l-5.05 1.1-2.4-1.4q-2.5-1.8-3.6-4.75-5.8 0-11.25-2.05-6.6-2.1-12.15-6.35-5.8-4.45-9-10.7L7.6 52.5q-3.3-7.35-3.85-15.4M68.7 18.15q2.95-1.6 6.15-2.4M65.1 21l2.1-2.05m5.25 7.95-3.5 1.45q3.5 1 3.9 4.5.25 3.15-1.1 6.45L70 36.1q-.75-1.2-1.75-1.85-1.85-1.1-4.25-.35l-.2.35m-19.25 22.4.1.1q7 5.4 8.65 14.1M60.85 7.7 58.2 5.6m6.7 25.6 4.05-2.85M63.7 34l.3-.1M37.55 58.05v-.65q0-.85.45-1.5 1.3-1.95 3.5-.9 1.1.35 2.15 1l.9.65m-3.6 16.6q-1.75-6.65-3.2-13.3l-.2-1.9"/><path stroke-width="2" stroke-linejoin="round" stroke-linecap="round" stroke="#95662f" fill="none" d="M63.55 64.3q2.55 2.2 3.65 4.8 1.1 2.75-.15 4.4-1.3 1.75-3.5.35-2.25-1.35-5.8-2.65h-.2l-1.85-.9-.45-.3-.55.2-1.4.65m-17.95 10.2q.25-2.1-2.15-3.95-2.3-1.85-5.95-2.3l-1.95-.1q-2.5-.1-4.5.75-2.8 1.2-3.05 3.3-.3 1.75 1.35 3.3l.75.6q1.6 1.25 3.95 1.35l2.05-.2.2-.05q3.75-.75 6.45-.55 2.55 0 2.85-2.15"/><path stroke-linejoin="round" stroke-linecap="round" stroke="#644726" fill="none" d="m35.6-17.6 1.05-.9q1.85-2.1 3-4.6 1.2-2.6 0-3.4l-4.1-.1q-2.9.65-5.1 2.4l-.25.15-1.5 1.6m9.4 5.35.55-.6q3.35-2.45 6.1-2.55 2.65-.1 3.1 1.55.5 1.6-.55 3.8l-.25.55" transform="translate(-15.3 40.6)"/></g><g transform="translate(65.65 87.2)" id="l"><use xlink:href="#a" width="5.75" transform="translate(-41.322 53.158) scale(6.6802)" height="4.35"/><use xlink:href="#b" width="6.4" transform="translate(22.792 36.104) scale(6.6802)" height="4.4"/><use xlink:href="#c" width="8.1" transform="matrix(6.5347 -1.3648 1.8764 6.4279 -65.629 -76.137)" height="8.6"/><use xlink:href="#d" width="15.8" transform="rotate(3.008 737.182 -606.633) scale(6.679)" height="14.65"/></g><g id="e"><path fill-rule="evenodd" fill="#9c6c27" d="m-1.4-.65 3.15.05.45 1.9h-3.9l.3-1.95" transform="translate(2.9 .65)"/><path fill-rule="evenodd" fill="#d1954b" d="m2.2 1.3.65 2.4H-2.9l1.2-2.4h3.9" transform="translate(2.9 .65)"/><path fill-rule="evenodd" fill="#80552b" d="m-2.9 3.7.5-2.55 1-1.8-.3 1.95-1.2 2.4" transform="translate(2.9 .65)"/><path stroke-width=".05" stroke-linejoin="round" stroke-linecap="round" stroke="#7a5323" fill="none" d="m5.1 1.95.65 2.4H0L.5 1.8l1-1.8 3.15.05.45 1.9z"/></g><g id="f"><path fill-rule="evenodd" fill="#9c6c27" d="M-1.6 0 .25-.95l3.1.75L2.1 1.2-1.6 0" transform="translate(1.85 .95)"/><path fill-rule="evenodd" fill="#d1954b" d="M2.1 1.2 3.35-.2l1.2 1.6-2.1 2.05L2.1 1.2" transform="translate(1.85 .95)"/><path fill-rule="evenodd" fill="#80572a" d="m-1.6 0 3.7 1.2.35 2.25-4.3-1.85.25-1.6" transform="translate(1.85 .95)"/><path stroke-width=".05" stroke-linejoin="round" stroke-linecap="round" stroke="#7a5323" fill="none" d="M5.2.75 2.1 0 .25.95M5.2.75l1.2 1.6L4.3 4.4 0 2.55.25.95"/></g><g id="g"><path fill-rule="evenodd" fill="#a2b018" d="m-7.45-6.8 2.95 1 1.3 2q.5 1.25 2 2.35-1.5-1.1-2-2.35l-1.3-2-2.95-1v-1.55l5.8 1.05q1.4.55 2.1 2.1.4.9-.3 2.6Q-.5-1.1.35.25q-5.4-3-6.75-4.25-.85-1.45-1.05-2.8m5.4 1.15L-3.2-3.8l1.15-1.85M-4.5-5.8l-1.45-1.6 1.45 1.6" transform="translate(7.5 8.35)"/><path stroke-width=".05" stroke-linejoin="round" stroke-linecap="round" stroke="#6f6d28" fill="none" d="M6.3 6.9q-1.5-1.1-2-2.35l-1.3-2-2.95-1q.2 1.35 1.05 2.8Q2.45 5.6 7.85 8.6 7 7.25 7.65 5.75q.7-1.7.3-2.6-.7-1.55-2.1-2.1L.05 0v1.55m1.5-.6L3 2.55m1.3 2L5.45 2.7"/></g><g id="h"><path fill-rule="evenodd" fill="#a25c37" d="M-6.2-5.95V-6v.05" transform="translate(7.3 8.9)"/><path fill-rule="evenodd" fill="#80552b" d="m-.1-7.2 2.8 1.45h.05L2.9-2.8 1.7-5.55-.1-7.2" transform="translate(7.3 8.9)"/><path fill-rule="evenodd" fill="#eabd88" d="M-2-8.75-.1-7.2l-4.4-1 2.5-.55m-.85 3.5h-.05q-2.35-.1-3.3-.7V-6l6.1-1.2-2.75 1.95" transform="translate(7.3 8.9)"/><path fill-rule="evenodd" fill="#855e2a" d="m-2.9-5.25.75 11q-2-.15-3.5-.75-.95-.35-1.65-.9l.5-10.8.6.7v2-1.95q.95.6 3.3.7m-2.75 7V5 1.75" transform="translate(7.3 8.9)"/><path fill-rule="evenodd" fill="#a67835" d="M2.75-5.75 4.4-6.3q.6-.3 1.05-.65l1.75 9.9Q5.85 5.3.55 5.7l-2.7.05-.75-11h.05l1.45-.05 3.1-.25L2.9-2.8l-.15-2.95M4.7-5l-.3-1.3.3 1.3" transform="translate(7.3 8.9)"/><path fill-rule="evenodd" fill="#daa854" d="m4.3-8.3-3 .6 3-.6q.95.5 1.15 1.35Q5-6.6 4.4-6.3l-1.65.55H2.7L-.1-7.2-2-8.75l1.65-.15q3.2-.15 4.65.6m-8.8.1 4.4 1 1.8 1.65-3.1.25-1.45.05L-.1-7.2-6.2-6l-.6-.7q.65-1 2.3-1.5" transform="translate(7.3 8.9)"/><path stroke-width=".05" stroke-opacity=".6" stroke-linejoin="round" stroke-linecap="round" stroke="#54473b" fill="none" d="m8.6 1.2 3-.6Q10.15-.15 6.95 0L5.3.15m4.75 3 1.65-.55q.6-.3 1.05-.65-.2-.85-1.15-1.35m.1 2 .3 1.3M5.15 14.65l2.7-.05q5.3-.4 6.65-2.75l-1.75-9.9M2.8.7 5.3.15M9 3.35l-3.1.25-1.45.05H4.4m.75 11q-2-.15-3.5-.75Q.7 13.55 0 13L.5 2.2q.65-1 2.3-1.5M1.1 2.9v.05-.05l-.6-.7m.6.75V4.9m0-1.95q.95.6 3.3.7M1.65 13.9v-3.25M10 3.15h.05"/><path fill-rule="evenodd" fill="#fdeabd" d="M3.9-1.8q.35.3.8.25.55 0 .9-.4l.3-.6v-.35l.05-.05V-3l.15-.2v-.3l.2-.7.55 2.05q-.25.85-1.2 1.3L4.05-.9q-.15-.4-.15-.9" transform="translate(7.3 8.9)"/><path fill-rule="evenodd" fill="#caa975" d="M5.5-3.8h-.05q-.4-.4-.95-.4l-.3.05Q3.85-2.8 3.9-1.8q-.1-1.25.45-3.05.25-.85 1.2-.4L6.3-4.2l-.2.7q-.1-.35-.55-.3H5.5m.4.9v-.05h.05l-.05.05" transform="translate(7.3 8.9)"/><path fill-rule="evenodd" d="M3.9-1.8q-.05-1 .3-2.35l.3-.05q.55 0 .95.4h.05l-.1.05q-.4.45.1.7.2.2.4.1v.4l-.3.6q-.35.4-.9.4-.45.05-.8-.25" transform="translate(7.3 8.9)"/><path fill-rule="evenodd" fill="#fff" d="M5.9-2.95q-.2.1-.4-.1-.5-.25-.1-.7l.1-.05h.05q.45-.05.55.3v.3l-.15.2v.05H5.9" transform="translate(7.3 8.9)"/><path stroke-width=".05" stroke-opacity=".702" stroke-linejoin="round" stroke-linecap="round" stroke="#6b492a" fill="none" d="m13.6 4.7-.75-1.05q-.95-.45-1.2.4-.55 1.8-.45 3.05 0 .5.15.9l1.6.05q.95-.45 1.2-1.3L13.6 4.7z"/><path fill-rule="evenodd" fill="#966832" d="M3.95-.9 6.8 0q-.6.4-.85 1.25v.6l-2.9-.75q-.35-1.45.9-2" transform="translate(7.3 8.9)"/><path fill-rule="evenodd" fill="#80572a" d="M5.95 1.85Q6 2.5 6.7 3.2L3.25 1.75l-.2-.65 2.9.75" transform="translate(7.3 8.9)"/><path fill-rule="evenodd" fill="#e3ae5f" d="m6.8 0 .9-.4q1.15 1 .65 2.3-.4 1.15-1.65 1.3-.7-.7-.75-1.35v-.6Q6.2.4 6.8 0" transform="translate(7.3 8.9)"/><path fill-rule="evenodd" fill="#b57b3b" d="m7.7-.4-.9.4-2.85-.9.4-.2 3.35.7" transform="translate(7.3 8.9)"/><path stroke-width=".05" stroke-linejoin="round" stroke-linecap="round" stroke="#7a5323" fill="none" d="m15 8.5-3.35-.7-.4.2M14 12.1q1.25-.15 1.65-1.3.5-1.3-.65-2.3m-1 3.6-3.45-1.45-.2-.65q-.35-1.45.9-2"/><path fill-rule="evenodd" fill="#fdeabd" d="m.85-1.85.1.3-.1-.3m-1.2-1.8.25.2-.3-.2h.05" transform="translate(7.3 8.9)"/><path fill-rule="evenodd" fill="#caa975" d="m-3.25-2.2 1.05-1.4 1.85-.05H-.4l-.55.55-.25.75-.4.2-.15.45.05.3.15.15.5.15.1.05.2.3-2.5-1.45" transform="translate(7.3 8.9)"/><path fill-rule="evenodd" fill="#f1e6c2" d="M.95-1.55q.5 1.1.25 2-1 .5-2.5.4-1.65-.2-2.25-1-.2-1.1.3-2.05l2.5 1.45.4.3.45.1Q.85-.2 1.2-.7l-.25-.85" transform="translate(7.3 8.9)"/><path fill-rule="evenodd" d="m-.1-3.45.1.15.15.2.2.25.2.3.25.6.05.1.1.3.25.85Q.85-.2.1-.35l-.45-.1-.4-.3-.2-.3-.1-.05.2-.15.15-.15v-.1q.1-.75-.5-.85l.25-.75.55-.55.3.2" transform="translate(7.3 8.9)"/><path fill-rule="evenodd" fill="#f5ecd3" d="M-1.2-2.35q.6.1.5.85v.1l-.15.15-.2.15-.5-.15-.15-.15-.05-.3.15-.45.4-.2" transform="translate(7.3 8.9)"/><path stroke-width=".05" stroke-opacity=".702" stroke-linejoin="round" stroke-linecap="round" stroke="#6b492a" fill="none" d="m7.2 5.45.1.15.15.2.2.25.2.3.25.6.05.1.1.3q.5 1.1.25 2-1 .5-2.5.4-1.65-.2-2.25-1-.2-1.1.3-2.05L5.1 5.3l1.85-.05.25.2z"/><path fill-rule="evenodd" fill="#966832" d="m1.3-4.15-.4 1.7-4.95-.75-.2-1.65 5.55.7" transform="translate(7.3 8.9)"/><path fill-rule="evenodd" fill="#daa854" d="m-4.25-4.85.7-.9L1-5.2l.3 1.05-5.55-.7" transform="translate(7.3 8.9)"/><path stroke-width=".05" stroke-linejoin="round" stroke-linecap="round" stroke="#7a5323" fill="none" d="m8.6 4.75-.4 1.7-4.95-.75-.2-1.65m0 0 .7-.9 4.55.55.3 1.05-5.55-.7z"/><path fill-rule="evenodd" fill="#966832" d="M5-3.3 3.95-4.85l1.65-2.5L6.75-5.7 5-3.3" transform="translate(7.3 8.9)"/><path fill-rule="evenodd" fill="#80572a" d="m3.1-5 .85.15L5-3.3l-.8-.05L3.1-5" transform="translate(7.3 8.9)"/><path fill-rule="evenodd" fill="#daa854" d="M3.95-4.85 3.1-5h-.05L5.6-7.35l-1.65 2.5" transform="translate(7.3 8.9)"/><path stroke-width=".05" stroke-linejoin="round" stroke-linecap="round" stroke="#7a5323" fill="none" d="m10.4 3.9 1.1 1.65.8.05m.6-4.05L10.35 3.9h.05m2.5-2.35 1.15 1.65-1.75 2.4"/><path fill-rule="evenodd" fill-opacity=".702" fill="#c99b70" d="M-.3 2.05-2.1 2l-1.85-.4-.65-.55q0-.3.8-.45l1.85.05 1.8.4q.7.35.7.65l-.85.35" transform="translate(7.3 8.9)"/></g><use xlink:href="#e" width="5.75" height="4.35" id="a"/><use xlink:href="#f" width="6.4" height="4.4" id="b"/><use xlink:href="#g" width="8.1" height="8.6" id="c"/><use xlink:href="#h" width="15.8" height="14.65" id="d"/><use xlink:href="#i" width="102.95" height="45" id="m"/><path fill-rule="evenodd" fill-opacity="0" fill="#f0f" d="M0 0h102.95v45H0V0" id="i"/></defs><path fill="none" d="M-1-1h142v165H-1z"/><use x="84.05" y="184.5" xlink:href="#j" width="381" transform="translate(-192.55 -294)" height="381"/><use x="151.324" y="-152.725" xlink:href="#k" width="99.35" transform="matrix(-.7137 0 0 .7137 217.13 173.174)" height="85"/><use x="84.05" y="184.5" xlink:href="#l" width="140.25" transform="translate(-82.65 -191.95)" height="169.4"/><use x="-59.761" y="-65.909" xlink:href="#m" width="102.95" transform="matrix(1.8072 0 0 1.6538 83 165.3)" height="45"/></svg>