<svg width="171" height="208" xmlns="http://www.w3.org/2000/svg" xmlns:xlink="http://www.w3.org/1999/xlink"><defs><path fill-rule="evenodd" fill-opacity="0" fill="#f0f" d="M100 40H0V0h100v40" id="a"/><use xlink:href="#a" width="100" height="40" id="c"/><g id="b"><path fill-rule="evenodd" fill="#285913" d="M20-243.2q8.1 3.75 10.6 1.2-3.65 14.15 4.45 14.55-4.35 5.75-4.35 10.3 0 1.75.7 3.35 3.6 1.15 4.4 3.15l-4.15 1.6-3.5-.3-13.45 2.65q2.75-1 4.95-2.25 4.4-2.45 6.6-5.85l.3-.45Q32.6-225.3 20-243.2m13.85 32.75q-1.7-1.55-2.45-3.35.75 1.8 2.45 3.35" transform="translate(192.55 294)"/><path fill-rule="evenodd" fill="#a4ce31" d="m38.85-219.25 1.45-.15 8.5.6q8.4 2.5 13.9 8 3.7 4.25 4 10.8h.05l-1.65 8.25q1-6.05-4-14.25-8.85-10.25-22.25-13.25m30.1 21.2q6.8 5.45 14.9 6.8l-7.05 1q-6.45-1.7-7.85-7.8m2.6 19.8-.4 5.7q-.05 13.95 15.4 25.6l-6.35-2.95-7.1-8.3q-4.25-3.75-4.7-10.85l3.65-16.2-.5 7" transform="translate(192.55 294)"/><path fill-rule="evenodd" fill="#658a20" d="M30.7-217.15q4.15-1.65 8.15-2.1 13.4 3 22.25 13.25 5 8.2 4 14.25l1.65-8.25 2.2 1.95q1.4 6.1 7.85 7.8l-2.75.35q1.45 5.8 9.3 8.3l-9.9.95 3.25 8.85-5.15-6.45.5-7-3.65 16.2q.45 7.1 4.7 10.85l7.1 8.3-6.3-2.95-12.7-14.8-4.3 1.8-14.15-4.7q-2.35-4.35-3.25-9.75l.05-.2q6.4-6 23.4 1.75l-6.05-9q4.8 1.7 10.1 4.6l-3.1-5.15-1.55-2.65-1.6-2.65q-6.45-7.95-16.4-12.15l4.6-3.4q-4.25 2.65-10.15.55l1.1-3.7-4.1 1.65q-.8-2-4.4-3.15-.7-1.6-.7-3.35m-21.75 90.1L11-129.6l2.7-2.9q14.65-14.75 29.8.15l-.05.2-3.95.15q-5.15-4.25-8.9 2.9-.85-11-4.55-4.35-10.1-4.05-10.2 7.85-2-2.6-6.8-1.35h-.2l.05-.05.05-.05M-35.4-203.4q-5.4 1.5-6.3 5.2-6.3-13.2-15.7-2.9-7.75-5.3-2.9 7.45-8.05-5.9-11.7 1.85-2.3.85-4.6 2.05l-.2-.15q9.6-25.3 34-17.25 2.2.7 4.6 1.75l3.85 1.75-1.05.25" transform="translate(192.55 294)"/><path fill-rule="evenodd" fill="#7a553a" d="m-24.2-145.1-1.95-.35-3.65-7.55q-12.7-17.15-12.45-36.45 3.15 18.2 12.75 30.5l4.75 8.25.55 5.6M-39-198.55l5.25-3.95 1.1-.85q6.35-3.6 10.6-7.9-2.1-1.1-2.55-3.05-.5-2.2 5.55-4.9l1.8.4q-6.35 3.45-3.85 5.05 3.05 2.5 0 5.55-10 3.75-17.9 9.7v-.05" transform="translate(192.55 294)"/><path fill-rule="evenodd" fill="#463420" d="m4.75-196.3-4.7-1.1-7.7-1.9-1.35-.35-4.45-.95q.55-3.65 3.25-6.6l2-1.85 1.45-1.05q5.4 5 14.7 6l-2.45 2.05-.2.7-.55 5.05M-39-198.5v-.05.05q7.9-5.95 17.9-9.7 3.05-3.05 0-5.55-2.5-1.6 3.85-5.05l6.4 1.5-.3.6.5-.1 1.2-.15h.4l2.5 6.35-.05.1q-8.9-.8-10.5 2.4l.1 2.05.15.7.15 1.1-.75-.9-.25.45q-13.55 3.15-21.6 8.5l.3-2.3m5.25-4-1.65-.9 1.05-.25 1.7.3-1.1.85m22.6-14.2q-3.4.75-5.45 3.4-.55 2.6-.5 5.2-.05-2.6.5-5.2 2.05-2.65 5.45-3.4m13.6 83.35q-1.75 4.9-.25 9 .15 5.65 6.05-2.4l.55.9-.3 1.65 1.1 11.05-6.85 2.35-2.75.95q1.65-3.1 1.3-7.35-1.55-7.2-6.35-12.4l4-6.1.1-.15 3.4 2.5M.9-66.05l1.8-.75-1.75.75H.9h.05l-.4.2v-.05l.35-.15" transform="translate(192.55 294)"/><path fill-rule="evenodd" fill="#9e7d47" d="M1.35-64.85v.05-.05m-12.2-152.45.2.5-.5.1.3-.6m0 149.75v.1-.1" transform="translate(192.55 294)"/><path fill-rule="evenodd" fill="#c88d48" d="M-31.5-171.7q4.4 7.3 11.95 13.85l4 7.3Q-5.4-140.6.1-138.45l8.15 10.8.7.6-.05.05-.05.05h.2l1.5 1.5.15.15 2.25 2.1 1.35 5.95-.05.05-4.65 4.05-1.1-11.05.3-1.65-.55-.9q-5.9 8.05-6.05 2.4-1.5-4.1.25-9L2.5-135q-6.3-1.8-10.95-6.35l-6.5-3.85-7.4-10.3-9.15-16.2m44.55 61.25Q1.5-86.75.6-68.6l-.05 1.2.15-.05.1 1.1.1.3-.35.15v.05l.4-.2.2.65-.2.1.4.45v.05l3.95 4q2.05 1.25 6.5 2.4l4.65.95.25.05 6.2 1.5.05.25-1.35.5-8.7-2-4 .45-2.35-.4-5.7-2.95q-3.9-2.6-3.45-6.35l-.2-.35L1.9-92.4q.7-9.1 6.6-15.4l.1-.1 2.2-1.5q1.2-.75 2.25-1.05m-22.1-106.5 5.5.6q1.65.4 3.7 2.8l1.8 2.05q3.95 2.3 8.75 1.2l.9 3.15h.05l-1.85 1.5-1.85 1.55q-9.3-1-14.7-6l.2-.5-2.5-6.35" transform="translate(192.55 294)"/><path fill-rule="evenodd" fill="#457e2c" d="M11.7-207.2q1.1-4.85-1.35-8.6 5.2 6.4 10.25-8.3 8.2-.7-4.55-9.1 8.4-2.75-.4-10.7l-6.85-5.85q6.55 4.35 11.2 6.55 12.6 17.9 6.55 27.95l-.3.45q-2.2 3.4-6.6 5.85-2.2 1.25-4.95 2.25l-3.45 1.1.3-.9.15-.7" transform="translate(192.55 294)"/><path fill-rule="evenodd" fill="#60c025" d="m14.7-206.7 13.45-2.65 3.5.3 4.15-1.6 4.1-1.65-1.1 3.7q5.9 2.1 10.15-.55l-4.6 3.4q9.95 4.2 16.4 12.15l1.6 2.65-4.35-3.2q-6.45-6.3-15.65-9.35-8.65-4.3-17.95-3.65-9.8 1.05-18.9 5.1l2.45-2.05 1.85-1.55 1.75-.85-.3.9 3.45-1.1" transform="translate(192.55 294)"/><path fill-rule="evenodd" fill="#7ad033" d="m5.3-201.35.2-.7q9.1-4.05 18.9-5.1 9.3-.65 17.95 3.65 9.2 3.05 15.65 9.35l4.35 3.2 1.55 2.65q-4.65-2.7-9.05-4.8Q28-205.8 11.1-194.4q-3.2 1.9-4.75-2.05-.75-1.8-1.05-4.9" transform="translate(192.55 294)"/><path fill-rule="evenodd" fill="#418f1f" d="m11.65-207.15.05-.05-.15.7-1.75.85 1.85-1.5M32.9-173.9l-7.1-2.3q-19.2-1.75-14.7-18.2 16.9-11.4 43.75 1.3 4.4 2.1 9.05 4.8l3.1 5.15q-5.3-2.9-10.1-4.6-9.85-3.55-17.85-2.5l-3 .6-4.95 5.95q3.95.1 5.15 2.4-3.7-.85-8.1 2.95 3.65 1.9 4.75 4.45" transform="translate(192.55 294)"/><path fill-rule="evenodd" fill="#276415" d="M73.9-152.85 65-157h-.05q-12-3.7-20.6-11 4.3 6.25 12.2 10.5l-5.25-.45-11.55 1.25q-1.9 1.8-.3 4-12.6-6.95-16.4-19.3L20-170.25l-.2.2L8.9-166l-1.5-.85L3-181.6l.85-6.35.9-8.35.55-5.05q.3 3.1 1.05 4.9 1.55 3.95 4.75 2.05-4.5 16.45 14.7 18.2l7.1 2.3q-1.1-2.55-4.75-4.45 4.4-3.8 8.1-2.95-1.2-2.3-5.15-2.4l4.95-5.95 3-.6q8-1.05 17.85 2.5l6.05 9q-17-7.75-23.4-1.75l-.05.2q.9 5.4 3.25 9.75l14.15 4.7 4.3-1.8 12.7 14.8M29-155.7l-.95.1-1.3-.8 2.25.7m-15.3 23.2q8.15-9.3 7.75-12.55 1.85 5.9 12.85-.05-3.05 6.6 8.6 4.4-2.65 1.75 2.45 8.8-5.85-.5-5.95.05l.1-.15 3.95-.15h.25l1.65.25-1.65-.25h-.25l.05-.2q-15.15-14.9-29.8-.15M-72-191.8l.15.15q-.35-.55-6.8 3.35 2.15-10.75-1.75-11.25 14.4-4.2 7.45-9.85 15.7.35 14.8-7.25 1.15 3.85 15.35 9.5-24.4-8.05-34 17.25l-.1.35-1.75 1.25 1.75-1.25.1-.35.2.15q2.3-1.2 4.6-2.05m83.1-2.6q-3.95 2.6-7.25 6.45 3.3-3.85 7.25-6.45M23.05-172q2.45-1 5.35-1.1l4.9.6-.4-1.4.4 1.4-4.9-.6q-2.9.1-5.35 1.1m16.5-8.5q-.85-4.65-.5-9.75-.35 5.1.5 9.75m4.8 12.5-1.6-2.55 1.6 2.55M-76.9-189.55l.3-.2-.3.2m120.4 57.2.2.2-.2-.2" transform="translate(192.55 294)"/><path fill-rule="evenodd" fill="#a67c39" d="m23.9-55.95-.95.3-.05-.25 1-.05M-6.75-210.1l.15-.4.05-.1-.2.5" transform="translate(192.55 294)"/><path fill-rule="evenodd" fill="#312217" d="M-7.65-199.3q-.9 4.1-6.35 2.4l-1.05-2.05-1.3-3.8-.35-1.5-.15-1.1-.15-.7-.1-2.05q1.6-3.2 10.5-2.4l-.15.4-1.45 1.05-2 1.85q-2.7 2.95-3.25 6.6l4.45.95 1.35.35m21.9 82.1 1.95 1.95-1.8 2-.85 1-.9 1-9.9.45 6.85-2.35 4.65-4.05m7.35 62.05-1.15.6v3.95l-5.25-4.95-6.3-1.15 4-.45 8.7 2M6.55-57.1l-.85-.15-4.6-.4-6.05-1.3-4.25 1.15-2.05 3.5h-.5l-.5-4.25 3.9-.95-4.4-.35 1.9-5.95.45-.4-.15-.35q5.2-9.15 7.25-18.85l2.8-15.25q-1.95.35-4.55-4.1l-3.3-8.05q5 9.7 7.6 7.7l11.55-4.3-2.2 1.5-.1.1q-5.9 6.3-6.6 15.4l-4.7 25.65.2.35q-.45 3.75 3.45 6.35l5.7 2.95m-16.3-62.6 5-2.65q1.3 3.35 0 6.95l4.05 4.75-1.7 1.45q-6.55-6.25-7.35-10.5m-1.2-20-13.25-5.4-.55-5.6q.75-1.95-.2-2.55l2.6-2.25 7.4 10.3 6.5 3.85q2.95 4.55 7.4 5.65l-4 6.1-1.85-5.75-4.05-4.35" transform="translate(192.55 294)"/><path fill-rule="evenodd" fill="#7b5e39" d="M-15.05-198.95q-11.55-.15-22.55 5.05l-2.1.55.4-2.85q8.05-5.35 21.6-8.5l.25-.45.75.9.35 1.5 1.3 3.8" transform="translate(192.55 294)"/><path fill-rule="evenodd" fill="#2a1f13" d="M-42.25-189.45q0-3.05.4-6.15l2.85-2.9-.3 2.3-.4 2.85 2.1 12.4.15 1.05q1.65 8.8 8.25 14.8l6.85 9.6-2.6 2.25q.95.6.2 2.55l-4.75-8.25q-9.6-12.3-12.75-30.5m33.8 48.1Q-3.8-136.8 2.5-135l-.05 1.65-3.4-2.5-.1.15q-4.45-1.1-7.4-5.65" transform="translate(192.55 294)"/><path fill-rule="evenodd" fill="#5a4229" d="M-37.6-193.9v2.35q.45 9.35 4.9 17.7l1.2 2.15 9.15 16.2-6.85-9.6q-6.6-6-8.25-14.8l-.15-1.05-2.1-12.4 2.1-.55m31.15 66.35-4.5-12.15 4.05 4.35 1.85 5.75-1.4 2.05" transform="translate(192.55 294)"/><path fill-rule="evenodd" fill="#224910" d="m64.95-157-8.4-.5q-7.9-4.25-12.2-10.5 8.6 7.3 20.6 11m-25.5 4.3-.45 1.55q-.85-2.65-10-4.55l-2.25-.7L8.9-166l10.9-4.05.2-.2 3.05-1.75q3.8 12.35 16.4 19.3" transform="translate(192.55 294)"/><path fill-rule="evenodd" fill="#7e6c5a" d="m16.7-57.4 1.8.3h11.25l-5.85 1.15-1 .05-6.2-1.5m-27.55 6.45.55-.05 12.05.7h-11.3l-.6 3.85-.45 2.2v-4l-.65-.25.4-2.45m-8.25 0-1.9-.6v-.25h-9l-1 .4v-2.2l10-.9 4-6.85-8.7-1.75-7.6 3.25 3.3-2.65-1.15-.75v-2.55l17.6-2.55v.05l-.4 6.05-1.95 2.15-3.2 9.15m-16.15-15-2.9-1.95 7-2.55q-2.2 1.15-4.35 2.35l.25 2.15" transform="translate(192.55 294)"/><path fill-rule="evenodd" fill="#dedec5" d="m-12-54.3.65.45.3.95.75.95-.55 1-.4 2.45-1.95-.55 1.2-5.25m-19 2.9-2.9-3.25-.8-2.75-.05-.1v-.2l3.75 4.1v2.2m-.15-11.85-4.1-2.7-.25-2.15 4.35 2.3v2.55m17.6-5.05.4.55.2 4-.6 1.05-.4.45.4-6.05M-34.7-57.4l-.05-.3.05.3" transform="translate(192.55 294)"/><path fill-rule="evenodd" fill="#6b4e32" d="m13.55-112.25.85-1q-.8 2.6-1.35 2.8-1.05.3-2.25 1.05l-11.55 4.3q-2.6 2-7.6-7.7l3.3 8.05q2.6 4.45 4.55 4.1L-3.3-85.4q-2.05 9.7-7.25 18.85l.15.35-.45.4-1.9 5.95 4.4.35-3.9.95.5 4.25H-12l-1.2 5.25-5.9-1.9 3.2-9.15 1.95-2.15.4-.45.6-1.05 2.1-3.7v-.15l4.55-27.8-4.25-23.6.8-.7q.8 4.25 7.35 10.5l1.7-1.45-4.05-4.75q1.3-3.6 0-6.95l-1.55-4.95-.15-.25 1.4-2.05q4.8 5.2 6.35 12.4.35 4.25-1.3 7.35l2.75-.95 9.9-.45.9-1m-24.4 46.45.3-.75-.3.75" transform="translate(192.55 294)"/><path fill-rule="evenodd" fill="#775a37" d="m.7-67.45 5.85-2.65 8.8 2.05H6.9L1.15-65.4l-.2-.65 1.75-.75-1.8.75-.1-.3-.1-1.1" transform="translate(192.55 294)"/><path fill-rule="evenodd" fill="#ad9c81" d="m-13.15-67.75 2.3.15v.15l-2.1 3.7-.2-4" transform="translate(192.55 294)"/><path stroke-opacity=".443" stroke-linejoin="round" stroke-linecap="round" stroke="#000" fill="none" d="M30.7-217.15q4.15-1.65 8.15-2.1l1.45-.15 8.5.6q8.4 2.5 13.9 8 3.7 4.25 4 10.8h.05l2.2 1.95q6.8 5.45 14.9 6.8l-7.05 1-2.75.35q1.45 5.8 9.3 8.3l-9.9.95 3.25 8.85-5.15-6.45-.4 5.7q-.05 13.95 15.4 25.6l-6.35-2.95-6.3-2.95L65-157h-.05l-8.4-.5-5.25-.45-11.55 1.25q-1.9 1.8-.3 4l-.45 1.55q-.85-2.65-10-4.55l-.95.1-1.3-.8L8.9-166l-1.5-.85L3-181.6l.85-6.35.9-8.35m6.9-10.85.05-.05q1.1-4.85-1.35-8.6 5.2 6.4 10.25-8.3 8.2-.7-4.55-9.1 8.4-2.75-.4-10.7l-6.85-5.85q6.55 4.35 11.2 6.55m-5.3 36.5 13.45-2.65 3.5.3 4.15-1.6q-.8-2-4.4-3.15M5.5-202.05l2.45-2.05m1.85-1.55 1.85-1.5m3.05.45-3.45 1.1.3-.9-1.75.85-1.85 1.55m3.6-2.4.15-.7m-6.4 5.85-.55 5.05m57.6 5.35-1.6-2.65q-6.45-7.95-16.4-12.15l4.6-3.4q-4.25 2.65-10.15.55l1.1-3.7-4.1 1.65M23.05-172 20-170.25l-.2.2L8.9-166m24-7.9q-1.1-2.55-4.75-4.45 4.4-3.8 8.1-2.95-1.2-2.3-5.15-2.4l4.95-5.95 3-.6q8-1.05 17.85 2.5 4.8 1.7 10.1 4.6l-3.1-5.15m-24.4 8q.9 5.4 3.25 9.75l1.6 2.55q4.3 6.25 12.2 10.5m-17.5-32.75q-.35 5.1.5 9.75m-6.65 6.6.4 1.4-4.9-.6q-2.9.1-5.35 1.1m49-13.25-.5 7m-44.8 21.85 2.25.7" transform="translate(192.55 294)"/><path stroke-width=".05" stroke-opacity=".443" stroke-linejoin="round" stroke-linecap="round" stroke="#000" fill="none" d="m192.6 96.6-7.7-1.9q-.9 4.1-6.35 2.4l-1.05-2.05q-11.55-.15-22.55 5.05m-1.4-4.65 5.25-3.95-1.65-.9m1.05-.25 1.7.3q6.35-3.6 10.6-7.9-2.1-1.1-2.55-3.05m13.95-2.5 1.2-.15h.4l5.5.6q1.65.4 3.7 2.8l1.8 2.05q3.95 2.3 8.75 1.2m-21.85-6.4.5-.1m1.65 17.15 1.35.35m.9-10.8.15-.4.05-.1m-10.55 2.5.1 2.05.15.7.15 1.1.35 1.5 1.3 3.8m-2.05-9.15q-.05-2.6.5-5.2 2.05-2.65 5.45-3.4m-28.55 23.35 2.1-.55m3.85-8.6 1.1-.85"/><path stroke-width=".05" stroke-opacity=".443" stroke-linejoin="round" stroke-linecap="round" stroke="#000" fill="none" d="m201.5 166.95 2.05-2.55 2.7-2.9m31.65.6q-5.85-.5-5.95.05l.1-.15q-5.15-4.25-8.9 2.9-.85-11-4.55-4.35-10.1-4.05-10.2 7.85-2-2.6-6.8-1.35M157.15 90.6q-5.4 1.5-6.3 5.2-6.3-13.2-15.7-2.9-7.75-5.3-2.9 7.45-8.05-5.9-11.7 1.85l.15.15q-.35-.55-6.8 3.35l1.75-1.25.1-.35q9.6-25.3 34-17.25 2.2.7 4.6 1.75l3.85 1.75-1.05.25m39.25 15.45q3.3-3.85 7.25-6.45m52.8 6.1q-4.65-2.7-9.05-4.8-26.85-12.7-43.75-1.3m-87.7 4.65-.3.2m.3-.2q2.3-1.2 4.6-2.05m117.35 59.9-1.65-.25H236l-3.95.15m4.2-.15-.2-.2q-15.15-14.9-29.8-.15m-4.75 5.45-.05.05-.05.05h.2"/><path stroke-opacity=".38" stroke-linejoin="round" stroke-linecap="round" stroke="#000" fill="none" d="M31.4-213.8q.75 1.8 2.45 3.35m28.5 19.5 1.55 2.65m-33.2-28.85q0 1.75.7 3.35" transform="translate(192.55 294)"/><path stroke-width=".25" stroke-opacity=".392" stroke-linejoin="round" stroke-linecap="round" stroke="#886740" fill="none" d="M161.4 228.2v2.55m.15 9.65v2.2m20.15-16.15v.1l-2.1 3.7-.6 1.05m-2.35 2.6-3.2 9.15"/><path stroke-width=".05" stroke-opacity=".38" stroke-linejoin="round" stroke-linecap="round" stroke="#000" fill="none" d="m193.15 225.4.1 1.15.1 1.1.1.3m.25.65.2.55v.05m15.1 7.35.25.05m-11 .15-4.6-.4-6.05-1.3-4.25 1.15m-21.8 6.4-2.9-3.25-.8-2.75m-.05-.3.05.3m23.85-8.4-1.9 5.95m35.65 3.95 1-.05m-1 .05-6.2-1.5m-15.75-8.65.2.65m-.2-.65h-.05m20.7 10.9-8.7-2-4 .45M182 227.45l-.3.75"/><path stroke-opacity="0" stroke-linejoin="round" stroke-linecap="round" stroke="#f0f" fill="none" d="M187.95-293.5v380h-380v-380h380" transform="translate(192.55 294)"/><path stroke-opacity="0" stroke-linejoin="round" stroke-linecap="round" stroke="#f0f" fill="none" d="m187.95-293.5-190 190 190 190m-380-380 190 190L-192 86.5M92.95-38.4H-97" transform="translate(192.55 294)"/></g></defs><path fill="none" d="M-1-1h173v210H-1z"/><use x="81.05" y="252.5" xlink:href="#b" width="381" transform="translate(-192.55 -294)" height="381"/><use x="44.438" y="138.44" xlink:href="#c" width="100" transform="translate(-85.4 -220.5) scale(1.8239)" height="40"/></svg>