<svg width="207" height="275" xmlns="http://www.w3.org/2000/svg" xmlns:xlink="http://www.w3.org/1999/xlink"><defs><use xlink:href="#a" width="365.5" height="366.7" id="d"/><use xlink:href="#b" width="102.95" height="45" id="e"/><g id="c" stroke-opacity="0" stroke-linejoin="round" stroke-linecap="round" stroke="#f0f" fill="none"><path d="M187.95-293.5v380h-380v-380h380M92.95.6H-97" transform="translate(192.55 294)"/><path d="m187.95-293.5-190 190 190 190m-380-380 190 190L-192 86.5" transform="translate(192.55 294)"/></g><g id="a"><path fill-rule="evenodd" fill="#cf7e1d" d="m-68.65-136.2.1.1v26.15l-.1.15v-26.4 26.4l.1-.15v.25l-.1 5.05h-.25l-4.05-3.2h-.3l-2.95.1 5.4-30.6 2.15 2.15m60 9.05h.15l-1.5 3.5-44.8 35.95-.05.05-.1-.1.05-.05 44.8-35.95 1.45-3.4-1.45 3.4-44.8 35.95-.05.05v-.1l.05-.05v-.05l-.1.1h-.1v-.05l-.05.05h-.1l-.1-9.35-.75-2.05 15.9-9.35.45-.3 30.85-18.25h.25" transform="translate(183.1 183)"/><path fill-rule="evenodd" fill="#f4d940" d="m-60.55-104 8.8-6.25 39.75-16.9h3.1l-30.85 18.25-.45.3-15.9 9.35q-.8-1.65-2.3-3.3l-1.05-.9-.9-.35h.1l-.2-.1h.1l-.2-.1.2.1h-.1l-.15-.05.05-.05m5.7 16.35-.2.15-.05-.15.15-.1-.15.1v-.1h.05l.05-.05h.05v.05l.1.1m-16.5-51.25.55.55-5.4 30.6-3.25.1-4.25 3 .35-.5 12-33.75m2.5 34.25h.2v.25l-.1-.15-.1-.1h.2-.2m13.65 16.8h-.05.1-.05m.2 0 .1-.1v.05l-.05.05H-55l.1-.05-.1.05M-89.45 139.1l1 .75v.6l-3.75 3.25-.15-.15-.6-.6v-.6l1.15-3.4h2.1l.25.15m24.3-78 .55 13.95-3.3 4.2-1.75-21.95 4.5 3.8m-44.9-28.4q2.55-8.15 6.55-18.6 2.85-5.95 6.25-11.75l1.5-2.5.55 3.3-2.05-.8 2.05.8 1.4 8.1 6.4 10.1 7.05 3.1-.4 4.6-4.35 5.2-3.5 2.65-6.1.85-8.25-.85-7.1-4.2m29-.6-.3 3.25-1.1 12.4-.25 1.75q-.55 4 .05 7.85L-86 63.1l-4.15 2.9-8.2 2-9.8-2.1-1.8-3.05-1-3.85V38.2l.6-4.7q3.85 3.5 9.1 5.25l11.2-.35q2.25-.5 3.95-1.5l.9-.65q2.9-1.65 4.15-4.15m-26 35.55q6.05 2.1 12.1 1.8 5.5-1.8 9.6-5 2.6-2.15 3.1-4.85 1.05 6.25 3.55 10.4l.8 18.7-7.6 3-8.4-.7-10.8-15-2.1-7.3v-.1l-.25-.85v-.1m3.7 62.55.85-.35q.8-.35 1.55 0v3.25l-1.95 1.7-1.3 1.05h-.95l1.7-5.6.1-.05m50.8-6.05 2.95-1.95.75 1.9q-.1.75-.35 1l-3.5 4h-1.25l1.35-4.9.05-.05m15.2 11.8-1.15-4.35v-1.5l1.75-1.75 1.1.7q2.4 1.6.9 4.55l-2.6 2.35" transform="translate(183.1 183)"/><path fill-rule="evenodd" fill="#710202" d="M-62.3-117.65h.1l1.6 13.55-.1.05.1.05-.1-.05.1-.05v.15h-.1v-.1l-1.6-13.6 1.6 13.6v.1h.1l-.05.1h.05l.25.05.9.35 1.05.9q1.5 1.65 2.3 3.3l.75 2.05.1 9.35h.05v.5-.05h.05l1.3 10.65-.4 5.1.4-5.1-1.3-10.65.1-.1 1.3 10.85-.4 5L-55.2-59l-.05.45-4.35 6.2h-.2l-10.05-.7-3.6 1.15-.85.6.2-1.05v-2.3l-1.9-2.2-1.85-.6v5.3l-1.1 2.05-1.5-2.9-1 6.1-10.5 13.4-4.25 3.3-.05.05-.1.05v-.15l.15.05-.15-.05v.15l-2.4 1.45-1 2.6v.05l-2.75 5.1-4.1 5.35-3.4 1.5-1.75-.5.05-.05 3.55-4.5.3-12.7 17.7-19.3.9-.3 14.15-7.8.7-1.95-.05-.25-2.6-2.3q-1.7-1.85-1.8-4.15l-.7-2.6v-.95l-.15-1.65-.05-.6.1-.05h.2l.1.3.35 1.1q.05 1.05.55 2.15l.45.7.15.15 1.1 1.15.65.15.2.1.35.1.2.1h.15q1.95.3 3.3-1.35l.05-.15q.5-.95.7-1.9 1.3-3.35 1.85-6.85.25-6.25-.75-12.4l-.5-1.3-.05-.05-.05-.1-.35-.45-.05-.2-3.05-2.1-.2-.1v-.2l.05-.1.6-.4.15-.05.55-.15.05-.15.2-.1.15-.05.2-.1h.1V-96l.25-.1.8-.2.45.15.65.2h.1q.25 0 .4.25l.05.05v.05l.6.65.95 1.55 4.25-3.25.65-4-2.1-4.15 2.1-.05 2.45 1-2.45-1-2.1.05-1.25.05 3-12.9h1.15m114.5 90 .1.1-3.45 1.7-7.25-.3-31-11-21.25-2.2-.15-.1 21.3 2.2 31 11 7.25.3 3.45-1.7-3.45 1.7-7.25-.3-31-11-21.3-2.2.15.1h-.05L-7.4-37l20.65 19.3 11.4 13.8 5.2 12.55 2.7 14.7L31.5 33.7l-3.3 9.15.75-20.05L25.2 8.4l-16-22.3-26.35-22.65-28-14.75 4.9-5.3 5.6-2.55.95.6.75 3.55.1.1 5.35 3.75q4.55-2.05 10.6-2.25 10.15-.4 19.4 1.5l30.4 10 19.3 14.25M-8-18.7l-2.75-.1-6.5 1.65-8.05 6.75-.15-.1 8.1-6.75 6.5-1.65 2.7.1-2.7-.1-6.5 1.65-8.1 6.75.15.1h-.05L-33-2.15l-.8 1.55-7.35 14.05 8.3 2.15h.65l11 5.4 5.6 2.75 6.7 7.95 3.25 7.8 1.7 12.3q3.3.25 8.65 2.5l1.95 1.2.45.4 1.05 1.05.65.8q2.5 3.9 3.4 8.65l-.1-.05v-.05q-.9-4.75-3.4-8.65l-.55-.7.55.7q2.5 3.9 3.4 8.65v.05l.1.05v.05q1.95 3.3 2.9 7.05l.15.5L34.5 88.2l12.75 21.2 3.6 20.85.05 18.05-2.65 13.6-.55.5-4.25 3 4.25-3 .55-.5q3.45-3.15 4.45-7.45 2.4-7.85 3.25-16.5 2-9 .3-18.95-1.95-10.6-5.45-18.5t-8.55-13.65l.1.1q5.05 5.75 8.55 13.65 3.5 7.9 5.45 18.5 1.7 9.95-.3 18.95-.85 8.65-3.25 16.5-1 4.4-4.6 7.6l-.4.35-4.3 3-.05-.1-18.8-24.3-5.85-12.25.15-4.55-2.2-5.65-.1-.05v-.05l-1.05-.9 1.05.9v.05l-1.05-.95-4.85-4.8-.1-.1q-3.1-1.7-5.85-1.55l.1.05-.1-.05q2.75-.15 5.85 1.55l.1.1q-3.1-1.7-5.85-1.55v-.05l-.15-.1-5.05-5.05.3-.3-.35.25-3.05 2.35q-3.95 1.8-9.05 1.85L-28.85 125l-.05.1-4.95 8.85-.5 1.65-.2.7-2 1.3-1.7-.2-2.15-7.1 2.5-7.4-.8-3.55-1.6-.6-11.7 11.2-.75.75-.7.7-.7.25-.55.2-.65.3-.55-1.4 3.4-12.25 2.7-3.45 5.95-7.5-1.35-.05q-4.6-.9-7.15-4.3l-.35-.45v-.35q-.65-3.25-.4-6.6l6 3.9 10.25-.8 1.4-.5-.4-.3 9.95-9.2 8.45-10.9q7.05-13 6.2-20.85l-.1-.85-.1-.5q-.35-1.5-1-2.8l-.05-.35-.7.25q-2.35.8-4.7 2l-1.55.85q-2.85 1.6-5.75 3.75l-2.7 2.35-7.95 7.35-.55-5.7-4.9-8.6-10.4-7.9-1.6-.8-.15-.05-3.3-1.65-4.65-1.6-8.55-7.05 1.05-6.75-1.35-6.35-3.25-4.65 5.4 3.5 5.85 5.85-5.85-5.85-5.4-3.5 3.25 4.65 1.35 6.35-1.05 6.75-.6 3.9q-1.2-3.1-3.25-5.7 2.05 2.6 3.25 5.7.5 1.3.85 2.75.15 9.7-.05 13.1l-2.45 17.65V111l2.5 3.2 2.9 3.65.1.15v5l-3.7 4.2-4.05 4.55-12.85 9.3-5.45 3.95-.35-.25.75-1.2.15.15 3.75-3.25v-.6l-1-.75.4-.6 11.95-8.5 5.1-11.35-2.35-6.45-1.15-37.8 1.55-17.55.1-13.7-2.3-8.5 1.4-1.7.95 1.1.95-1.9-3.55-7.2-3.95-.85.3-2.95L-82.8 15l.9-10.65 2.6-18.5 1.95-5.8 4.15-2.55 6.05-17.85 15.55-6.55 2.75-.5-1.85 6 1.35 3.25 2.15.5 2.2 2.1 4.55 1.75 16.95 6.4L-15-23l6.85 4.2.15.1m-2.35 27.5L-9 11.35l4.25 9.45h-.05l-4.3-9.55-1.3-2.4.05-.05m-105.5 164.7-45.25-18.75q-1.05-.6-2.05-1.25l-10-7.35-1.05-1.2-.9-1.1q-3.3-4.75-5.95-11.35-2.6-6.45.35-20l.2-.95q1.6-3.15 3.55-6l2.55-3.4-2.2 7.25 1 9.9 6.45 15.85 18.75 10.2 25.05 7.45 10.05-1.75-2.75 12.7 2.3 9.8-.1-.05v-.05l-45.35-18.8-1.95-1.15 1.95 1.15 45.35 18.8v.05m-15.25-68.3q-5.15-4.65-10.85-6.2l-5.1-.1q-3.85.8-7.3 3.4l1.15-.95 8.5-7.15.25.3 14.1 3.75 4.85 12.45-3.6 7.65q.65-2.75.35-5.95.4-3.95-2.3-7.15l-.05-.05-.05-.05-1.05-.9q-4.65-3.95-9.85-5.35l-5.1-.1q-3.15.65-6.05 2.55 2.9-1.9 6.05-2.55l5.1.1q5.2 1.4 9.85 5.35l1.05.9.05.05m30.85 13.55h-.7l-3.6-3.05h.05l10.35.85 13.4-2.45-13.45 4.65h-6.05l.05-.1h-.85l-3.45-2.95 3.45 2.95h.85l-.05.1m10.4-15.25q-1.55 1.05-4.85 1.5-5.75.15-10.25-3l-.1-.1-.2-.2-1.3-1.5q-2.2-2.95-2.9-6.95.6-9.35 4.75-17.25l10.8 15 3.8 5.25 2.45.95 7.8 3.05h.25l.9.4-3.45 1.2-3.5 2.4-4.65 3.2-.5.35.15-.55.95-3.9-.15.15.05-.25q-1.55 1.2-5 1.65-5.75.15-10.25-3 4.5 3.15 10.25 3 3.45-.45 5-1.65l-.05.25m-17-34.75-2.5 2.35h-4l-7.65-3.2.05-.05 2.7-2.95-10.3-4.7-4.3-6.55 7.25-11 3.65-16.35 1.9-13.1.2-.4.05-.1.65 12.55-4.4 20.65-4.6 5.8-.95 4.85-.1-.1.95-4.85 4.6-5.8 4.4-20.65-.6-12.35.6 12.35-4.4 20.65-4.6 5.8-.95 4.85.1.1 10.6 6.45h3.65l3.9-4 1 3.85 1.8 3.05 1.05 1.75.05.1.25.85v.1l-.05.05-.05-.15-2.55 2.4h-4l-7.5-3.15 7.5 3.15h4l2.55-2.4.05.15m-27.15-7.4-4.2.1-.05-.1-.15-.25h.25l7.05-1.5-.6 1.75h-2.3l-.1-.1-4.15.1 4.15-.1.1.1m-5.55-2.35-5.4-.6.2-.05 8.45-2.3-1.2 3.15-2-.2h-.05l-.05-.1-5.15-.55 5.15.55.05.1m-16.3-54.7v-.05l7.8 11.55q6.15 10.15 10.05 20.9l-.1-.05-.05-.15q-2-5.6-4.65-11-2.4-4.95-5.35-9.8l-7.7-11.4 7.7 11.4q2.95 4.85 5.35 9.8 2.65 5.4 4.65 11l.05.15.1.05v.05l5.5 2 2.85-1.75-3.1 4.7-9.45-2.05-3.65-13.15-9.9-21.35-.1-.85m82.6-112.15h.3l4.05 3.2-6.3-.1-.3-1.9 2.25-1.2m-5 3.9.15-.1.15.2.15.1.65.4.75.9.35.6.35.9.3 1.1.05.7v.2l-.6-2.3q-.7-2-2.3-2.7 1.6.7 2.3 2.7l.6 2.3-.1.25.15.25.1.15.05.4-1.45 2.2-.05.1-1.2.6-.05-.05q1.3-4.05-.6-7.85l-.05-.25.15-.7-.15.7v-.5l.15-.2.15-.1m-9.95 14.5v-.05l.05-.05 1.05.7.05.05.7.7.2.2.15.15.3 1.1-.1.35q-1.2.9-2.5.6-.2-1.5-.95-2.95l-.3-1.15h-.05l.1-.35h.4l.2.1.15.1.15.15.4.35 2.05 1.55-2.05-1.55m-.4-.35-.5-.35.5.35m-9.1.1q2.3 1.3 4.15 3.1l.05.1q-1.15 1.75-3.45 1.7l-.75-.4v-2.45l.1-.55-.1-.2v-1.3m-26.05 38.8 5.2 2 4.95.5 5.55-.6 2.9-.95-.75 1.25.45-.3-2 4.5-4.05 1.65-1.3 3.15-4 1.5-1.6-1.7-.2-.2-3.75-5.3-1.35-4.5-.05-1m44.1-22.8-.05.65.05-.65m-11.55 4.95 2.15.15.5 4.6-2.4 3.4-.95-6.5.7-1.65m21.15-1.8-.2.75-.35 1-.75 1.3-.15.2-.25.3-.5.45-.4.35-.2.1q-.3.2-.6.3l-.45.15-.45.1h-.5l-1.1-.3-1.3-.8q-.7-.6-1.2-1.5l-.5-1-.6-2.25.6 2.25.5 1q.5.9 1.2 1.5l1.3.8 1.1.3h.5l.45-.1.45-.15q.3-.1.6-.3l.2-.1.4-.35.5-.45.25-.3.15-.2.75-1.3.35-1 .2-.75m-16.1 9.75.95 2.7-1.65 2.05-1-3.1 1.7-1.65m-19.75 12.1-4.3 2.7-1.3 3.15 1.3-3.15 4.3-2.7m50.6-10.25-.05.3-4.35 6.2-.1.1.1-.1 4.35-6.2.05-.3-2.2.85-2.45-3.25-1.2-5.75 5-4.55h1.9-1.9l-5 4.55 1.2 5.75 2.45 3.25 2.2-.85 1.05-12.7-1.05 12.7.1-.05-.1.05m-12.3-27.8.05-.6.05-1.25v-.25l-.05-.5q-.1-2-.65-3.9l-.1-.25-.65-1.45.65 1.45.1.25q.55 1.9.65 3.9l.05.5v.25l-.05 1.25-.05.6m-44.1 72.15 1.6.45 3.4-1.5 4.1-5.35 2.75-5.15.1.15-.1-.15-2.75 5.15-4.1 5.35-3.4 1.5-1.6-.45m39-81.2-.2.1.2-.1m.4-.15-.25.1.25-.1m2.75.35-.55-.35.55.35m-1.2-.55-1.5.2 1.5-.2m-3.55 1.4.8-.65-.8.65m-1.65 8.2-.1.05-1.1 1.85q-.85 2.35-.85 5.6 0 3.25.85 5.55l.05.1.15.4q-2.3-3.55-1.7-8.35.4-3.05 2.35-5.5l.1-.05.2-.05.35.15-.3.25m8.5 3.65.7-.8 1.35 1.55-1.35 1.05-.7-1.8.7 1.8 1.35-1.05-1.35-1.55-.7.8m12.3-4.95.05-.05v.1l-.05-.05m.9 16.2h.1-.1m-11.15-5.4.65-1.05 1.7 1.85-1.5 1.85-.85-2.65.85 2.65 1.5-1.85-1.7-1.85-.65 1.05m-10.8-4.25q.1-1 .35-1 .2 0 .3 1 .15 1.05.15 2.5t-.15 2.45q-.1 1.05-.3 1.05-.25 0-.35-1.05l-.15-2.45.15-2.5m.7 10.05h-.05l.4.1h.05l-.1.05-.15.05-.15-.2.35.1-.35-.1m64.8 31.9-16.8-11.8 16.8 11.8M-31.35 27.9l1.95-1.55.45-1.45 4.35.6 3.4-3.4V21v1.1l-3.4 3.4-4.35-.6-.45 1.45-1.95 1.55-.45-.7-8.4-1.05.2.15-9 3.5.95 6.6 15.45 13.55 4.2 1.4 4-7.7-.55-6.95-6.4-8.8m-13.05-8.25.6-1.1 1.4 6.3 2.2 1.3-2.2-1.3-1.4-6.3-.6 1.1m4.35-51.05-.1.05-9.45 2.95-12.75 6.15 1.35 11.5 2.8 7.7.05.15 1.9-2.1 9.9-6.5 6.35-1.75.4-15.05-.45-3.1-.4-2.4.4 2.4M-58.2-3.05l-.05.05-2.85-7.85-1.35-11.5 12.75-6.15 9.55-3v.15-.15l-9.55 3-12.75 6.15 1.35 11.5L-58.25-3l.05-.05m18-9.05.2-1.15-.2 1.15-8.4 5.05-.2 1.5 1.5-.25 5.6.6v-.05l1.5-6.85m-10.05 25.8 1.1-2.1 6.7-13.2.75-3.6-.75 3.6-6.7 13.2-1.1 2.1M-75.9-14l.05-.15-.05.15-3.2 20.95v6.75l3.4 4.3h-.05l-3.45-4.4V6.85L-76-14.1l.15-.05 5.65-3.2.05.15-.05-.15-5.65 3.2.1-.9 2.55-7.45-2.55 7.45-.1.9-.15.05-3.2 20.95v6.75l3.45 4.4h.05l.05.1h2.15v-1.4h2.7l3.45-7.6-2.75-26.35-.05.05-5.75 3.2m17.75 11.1-7.05 8.4-2.15 3.6 2.15-3.6 7.05-8.4m-15.95 23-1.55-2 1.55 2 .7 5.5v.05l.2 2.65.6 3.4 1.35-2.7-.6-4.5v-.05l-.05-.05-2.2-4.3m11.85 3.75-5.45-6.65-3.1-.5 3.1.5 5.45 6.65m58.3 27.95-.5-.05-5.9.25-2.15.65 2.15-.65 5.9-.25.5.05M-43.8 18.55l2.65-5.1-2.65 5.1M-4.95 99.7q-2 3.05-6.2 5.2-2 1.35-6.55 2.55-2.5.85-5.7.6l-1.05-.1-19.4-.4 19.4.4 1.05.1q3.2.25 5.7-.6 4.55-1.2 6.55-2.55 4.2-2.15 6.2-5.2m-76.2-95.6-.75.25.75-.25M-137 38.85l-1-2.1 1 2.1m-42.9-11.4-.1-.25.4-.55 5.75.95 19 10.05h4.85l.2 1.35-7.3.8-16.45-10-6.35-2.35m50.55 30.3.25-1.2-.25 1.2m28.4 74.6 6.4-7.8 17.3-5.55-2.5 3.9-13.45 5.6-11.5 9.05-.3-.2 2.1-2.55 1.95-1.7v-.75M0 105.8l6.3-6.05q4.45-4.4 6.5-10.25 2.7-6 2.9-13l-.45-2.5.45 2.5q-.2 7-2.9 13-2.05 5.85-6.5 10.25L0 105.8m-52.6 18.4-1.35 4.9h1.25l3.5-4q.25-.25.35-1l-.75-1.9-2.95 1.95-.05-.05v.1m15.25 11.75 2.6-2.35q1.5-2.95-.9-4.55l-1.1-.7-1.75 1.75v1.5l1.15 4.35" transform="translate(183.1 183)"/><path fill-rule="evenodd" fill="#c1001e" d="m-68.55-109.7 4.95-7.95h.15l-3 12.9 1.25-.05 2.1 4.15-.65 4L-68-93.4l-.95-1.55-.6-.65v-.05l-.05-.05q-.15-.25-.4-.25h-.1l-.65-.2-.45-.15-.8.2-.25.1v.05h-.1l-.2.1-.15.05-.2.1-.6.3.6-.3-.05.15-.55.15-.15.05-.6.4-.05.1v.2l.2.1 3.05 2.1.05.2.35.45.05.1.05.05.5 1.3q1 6.15.75 12.4-.55 3.5-1.85 6.85-.2.95-.7 1.9l-.05.15q-1.35 1.65-3.3 1.35h-.15l-.2-.1-.35-.1-.2-.1-.65-.15-1.1-1.15-.15-.15-.45-.7q-.5-1.1-.55-2.15l-.35-1.1-.1-.3h-.2l-.1.05.05.6.15 1.65v.95l.7 2.6q.1 2.3 1.8 4.15l2.6 2.3.05.25-.7 1.95-14.15 7.8-.9.3-17.7 19.3-.3 12.7-3.55 4.5-.05.05-1.25-.4-.1-.1-6-6-3.25-6.1-1.4-6.9 1.4-11.35 3.75 5.3.2.2 1.6 1.7 4-1.5 1.3-3.15 4.05-1.65 2-4.5-.45.3.75-1.25-2.9.95-5.55.6-4.95-.5-5.2-2q.05-2.2 1.8-4.75l3.85-1.85q1.6-3.35 5.15-5.4 5.35-8.3 10.25-18.25l5-4.05.75.4q2.3.05 3.45-1.7l-.05-.1q-1.85-1.8-4.15-3.1v-.05l8-6 6-8.9 4.25-3 3.25-.1 2.95-.1-2.25 1.2.3 1.9 6.3.1h.05l.1.1.1.15v-.25l.1-5.05M-64-49.65l-3.1 9.15-.05.15-6.05 17.85-4.15 2.55V-20l8.05-23.9-.25-3.3 5.4-2.35.15-.1m30.3-8.9.1.05.75 3.6-.1-.1.1.1-.1-.1-.75-3.55M13.25-17.7l.1.1 11.4 13.8 5.2 12.55 2.7 14.7L31.6 33.8l-3.4 9.4-1.1.7v-7.8l-.25-8.75-2.1-7.9-7-11.85-.1-.1L-1-13.55l-7-5.15-.15-.1L-15-23l-8.5-4.4-16.95-6.4-4.55-1.75-2.2-2.1-2.15-.5-1.35-3.25 1.85-6 3.7-3.9 28 14.75L9.2-13.9l16 22.3 3.75 14.4-.75 20.05 3.3-9.15 1.05-10.35-2.7-14.7-5.2-12.55-11.4-13.8m-36.7 8.65 2.65 2.5.95 1.2q5.35 6.75 9.5 14.15l-.05.05-2.05 3.15.6 5.05 4.55 3.7 2.5.05-2.5-.05-4.55-3.7-.6-5.05 2.05-3.15-.05-.15-2.8-4.7q-3.1-4.9-6.7-9.45l-.85-1.1.85 1.1q3.6 4.55 6.7 9.45l2.8 4.7.05.15 1.3 2.4 4.3 9.55 1.85 4.1.25.6q2.9 7.95 4.5 15.9l2.8 12.8.1.05-.1-.05-2.8-12.8Q.2 33.45-2.7 25.5l-.25-.6-1.85-4.1h.05l1.9 4.2Q.2 33.25 1.9 41.5l2.8 12.75v.05q-5.35-2.25-8.65-2.5l-1.7-12.3-3.25-7.8-6.7-7.95-5.6-2.75-11-5.4h-.65l-8.3-2.15L-33.8-.6l.8-1.55 7.65-8.25 1.9 1.35m51.75 84 13.15 11.1.8.8q5.05 5.75 8.55 13.65 3.5 7.9 5.45 18.5 1.7 9.95-.3 18.95-.85 8.65-3.25 16.5-1 4.3-4.45 7.45l2.65-13.6-.05-18.05-3.6-20.85L34.5 88.2 15.25 74l-.15-.5q-.95-3.75-2.9-7.05l3.65.75q5.45 2.95 10.4 6.3l2.05 1.45M-130 91.05l1.95 1.7 2.45 2.95q1.15 1.6 2 3.45 5.4 8.55 2.2 16.9-1.75 7.6-9.8 7l.05-.1q1.4-2.1 2.05-4.6l3.6-7.65-4.85-12.45-14.1-3.75-.25-.3-8.5 7.15-1.15.95-.9.65-1.25 1.15q-3.95 3.8-4.35 10.2 1.85 8.15 6.45 14.3l10.65 7.35 4.1 1.85q13.4 2.15 26.85 1.75l-2.5 11.5-10.05 1.75-25.05-7.45-18.75-10.2-6.45-15.85-1-9.9 2.2-7.25q5.75-6.95 14.1-11.6 10.25-5.2 20.55-4.3 5.75 1.7 9.75 4.8m25.45 24.65-.15-.15v-.05l.45-1.25h13.3l7.85-2.6 5.65-1.9v-9.5l-.15-4.55-.3-7-.8-18.7q-2.5-4.15-3.55-10.4l-.2-1.1-.2-1.15q-.6-3.85-.05-7.85l.25-1.75 1.1-12.4.3-3.25.3-3.05.4-4.6v-.35l3.95.85 3.55 7.2-.95 1.9-.95-1.1-1.4 1.7 2.3 8.5-.1 13.7-1.55 17.55 1.15 37.8 2.35 6.45-5.1 11.35-11.95 8.5-.4.6-.25-.15h-2.1l1.35-3.95 9.9-11 .25-.25.85-1-.3.15 2.5-3.9-17.3 5.55-6.4 7.8v-2.5q-.75-.35-1.55 0l-.85.35 9.15-11.45 13.45-4.65-13.4 2.45-10.35-.85-.2-.2.2.2h-.05M-121 67.9l-11.5-4.8-.05-.1-1.45-1.65h2.3l.6-1.75-7.05 1.5v-.05l-.15.05-1.2-2.1 2 .2 1.2-3.15-8.45 2.3-.2.05-.55-.05-.1-.1-10.5-10.5-22.05-16.8v-.05l21.95 16.75.1.1-.1-.1-21.95-16.75-1.75-3.45 6.35 2.35 16.45 10 7.3-.8-.2-1.35q-4-15.9-5.75-32.5l9.9 21.35 3.65 13.15 9.45 2.05 3.1-4.7.3-.95q3.55-11.45 9.3-22.85l-1.9 13.1-3.65 16.35-7.25 11 4.3 6.55 10.3 4.7-2.7 2.95-.05.05m1.2-55.2v-.05.05m44.45-111.65v-.2l-.05-.7-.3-1.1-.35-.9-.35-.6-.75-.9-.65-.4-.15-.1-.15-.2-.15.1-.15.1.05-.15.1.05-.1-.05-.05.15-.15.2v.5l.05.25q1.9 3.8.6 7.85l.05.05 1.2-.6.05-.1 1.45-2.2-.05-.4-.1-.15-.05-.5.05.5-.15-.25.1-.25m-5 2.3 1.8-6.5-1.8 6.5m-9.25 6.85h.05l.3 1.15q.75 1.45.95 2.95 1.3.3 2.5-.6l.1-.35-.3-1.1-.15-.15-.2-.2-.7-.7-.05-.05-1.05-.7-.05.05v.05l-.4-.35-.15-.15-.15-.1-.2-.1h-.4l-.1.35-1.4 5.5 1.4-5.5m-8.1 1.4.1.2-.1.55v-.75m17.05 5.35 3.3-5.65 3.25-5.85-3.25 5.85-3.3 5.65m-10.55 14.3-.7 1.65.95 6.5 2.4-3.4-.5-4.6-2.15-.15m5.05 7.95-1.7 1.65 1 3.1 1.65-2.05-.95-2.7m31-26.6h-.05l.05-.15v.15-.2l.05-.1h-.05l.05-.05-.05-.05v-.05l.05.05v.05-.1h.1l-.05.05h-.05.05l.05-.05v.05-.05h.05v.05H-55l.05-.05-.05.05h-.05.05l-.05.05h-.05l.05-.05-.05.05v.1l-.05.05.05-.05.05.15-.1.1m-5.45-16.45h-.05l.05-.1v.1m-8.05-.8 2.2-.1-2.2.1m-.25 0 .15.1-.15-.1m-4.95 18.4q-.55-.7-1.2-.7-.5 0-.9.4l.3-.25-.35-.15-.2.05-.1.05q-1.95 2.45-2.35 5.5-.6 4.8 1.7 8.35l.05.05.05.15q.6 1.25 1.35 1.55l.15.2.15-.05.1-.05h.05q1.2 0 2.05-2.35.9-2.3.9-5.55t-.9-5.6l-.85-1.6m18.9-1.6-.05.05.05-.05m-14.25 45.6-.1-1.65.1 1.65m2.1 1.75-.15.05 3.1-9.1-3.1 9.1.15-.05M-1-13.55l-.1-.1-7-5.15h-.05.05l7 5.15.1.1M-21.2 21v-7.8l-7.45-11.9L-30-.4l-3.8-.2 3.8.2 1.35 1.7 7.45 11.9V21m-10.15 6.9 6.4 8.8.55 6.95-4 7.7-4.2-1.4-15.45-13.55-.95-6.6 9-3.5-.2-.15 8.4 1.05.45.7L-34 30l-6-3.7 6 3.7 2.65-2.1m-8.85-40-1.5 6.85v.05l-5.6-.6-1.5.25.2-1.5 8.4-5.05m-33.9 32.2 2.2 4.3.05.05v.05l.6 4.5-1.35 2.7-.6-3.4-.2-2.65v-.05l-.7-5.5m38.25 49.1 7.95-7.35 2.7-2.35q2.9-2.15 5.75-3.75l1.55-.85q2.35-1.2 4.7-2l.7-.25.05.35q.65 1.3 1 2.8l.1.5.1.85Q-10.4 65-17.45 78l-8.45 10.9-9.95 9.2.4.3-1.4.5-10.25.8-6-3.9.4-3.05q2.2-6.85 6.5-13.25l10.35-10.3m-33.9-13.6-.1 1-.1.9.2-1.9m-22.6 87.95-.75 1.2-.55-.3.7-2.1v.6l.6.6M-75.2 32.5l.45.45-.45-.45m-36.5-47.1-1.4-.45 1.4.45M-77 28.6l-4.35 6.75L-77 28.6m-68.6 29.65.85.1-.85-.1m12 1.35-3.9-.4 3.9.4m12.65 8.25-11.6-4.85 11.6 4.85m-4.65 27.85 1.9 3.35q5.4 8.55 2.2 16.9-1.7 7.55-9.65 7 7.95.55 9.65-7 3.2-8.35-2.2-16.9l-1.9-3.35m-27.6 5.65q-.65.35-1.25.85l-.9.65-1.25 1.15q-3.95 3.8-4.35 10.2 1.85 8.15 6.45 14.3l.1.1-.1-.1q-4.6-6.15-6.45-14.3.4-6.4 4.35-10.2l1.25-1.15.9-.65q.6-.5 1.25-.85m48.2 36-.5-.3.35-1.2h.95l1.3-1.05-2.1 2.55M0 105.8l-.3.3-.05-.05.35-.25m27.1-62.05 1-.65.1-.25-.1.25-1 .65" transform="translate(183.1 183)"/><path fill-rule="evenodd" fill="#f8de87" d="M-96.25-30.15v2.25l-1.1 6.5-.1-.15 1.1-6.45v-2.1 2.1l-1.1 6.45-2.3-4.5 1-2.6 2.4-1.45.1-.05m14.8-16.75 1-6.1 1.5 2.9 1.1-2.05v-5.3l1.85.6 1.9 2.2v2.3l-.2 1.05-3.55 2.35h-.95l-1.05 2.05h-1.6m2.5-3.2.35.7-.2.45.2-.45-.35-.7" transform="translate(183.1 183)"/><path fill-rule="evenodd" fill="#a76421" d="m-59.6-52.35-2.75 1.95-1.65.75-.15.1-5.4 2.35-10.55 4.65-3.15 3.15 3.15-3.15 10.55-4.65.25 3.3-8.05 23.9L-91.7-8.9l8.45-25.95v-4.55l-.1.1-10.4 10.15-2.5-1 .05-.05 2.35.95 10.5-10.25v.2-.2l-10.5 10.25-2.35-.95 4.25-3.3 10.5-13.4h1.6l1.05-2.05h.95l3.55-2.35.85-.6 3.6-1.15 10.05.7-2.65 1.85-1.65.75-.05.2.05-.2 1.65-.75 2.65-1.85h.2m-10.35 88.2 8.55 7.05 4.65 1.6 3.3 1.65.15.05 1.6.8 10.4 7.9 4.9 8.6.55 5.7-10.35 10.3q-4.3 6.4-6.5 13.25l-.4 3.05q-.25 3.35.4 6.6l-3.15 1.6-11.6.2-4.75-1.6V73.25l2.45-17.65q.2-3.4.05-13.1-.35-1.45-.85-2.75l.6-3.9m.1 20.75.1-1-.2 1.9.1-.9M-51.7 47l.45 1.2 1 15.25q-.1 6.65-1.25 12.5-1.85 6.75-6.25 12.5l-.55.7q-4.45 5.45-10.55 10.45l-3.35 1 3.35-1q6.1-5 10.55-10.45l.55-.7q4.4-5.75 6.25-12.5 1.15-5.85 1.25-12.5l-1-15.25-.45-1.2m-13.45 14.1-4.5-3.8 1.75 21.95 3.3-4.2-.55-13.95m-13.55 39.55-.9-.4h-.25l-7.8-3.05 10.05-1.5.15 4.55v.95q-.65-.3-1.25-.55m1.25-.4h-2.15 2.15" transform="translate(183.1 183)"/><path fill-rule="evenodd" fill="#f8db7a" d="m-73.85-86.25-.1.2-.15 1.5-.35-.15-.45.15-.45.5v.35q.05.95.7 1.5l.45.1h-.05q-.4 4.9-2.6 9.3l-.05-.15-.05-.05-.15-.4-.05-.1q-.85-2.3-.85-5.55t.85-5.6l1.1-1.85.1-.05q.4-.4.9-.4.65 0 1.2.7m-2.35 4.95-.15 2.5.15 2.45q.1 1.05.35 1.05.2 0 .3-1.05.15-1 .15-2.45 0-1.45-.15-2.5-.1-1-.3-1-.25 0-.35 1" transform="translate(183.1 183)"/><path fill-rule="evenodd" fill="#d68729" d="m-74.1-84.55.15-1.5.1-.2.85 1.6q.9 2.35.9 5.6 0 3.25-.9 5.55-.85 2.35-2.05 2.35h-.1l-.4-.1h.05q-.75-.3-1.35-1.55 2.2-4.4 2.6-9.3h.05l.75-.4.1-.4q.1-.8-.4-1.5l-.3-.15h-.05M-77.35-20v.05l-1.95 5.8-2.6 18.5-.9 10.65 2.75 6.15-.3 2.95v.35l-7.05-3.1-6.4-10.1-1.4-8.1-.55-3.3 2.5-4 1.55-4.75L-77.35-20M-81.9 4.35l-2.55.95-5.05.2-5.7-2.35 5.7 2.35 5.05-.2 2.55-.95m1.15 24.7-.3 3.05q-1.25 2.5-4.15 4.15l-.9.65q-1.7 1-3.95 1.5l-11.2.35q-5.25-1.75-9.1-5.25l.3-.8 7.1 4.2 8.25.85 6.1-.85 3.5-2.65 4.35-5.2m-1.5 30.55q-.5 2.7-3.1 4.85-4.1 3.2-9.6 5-6.05.3-12.1-1.8h-.05l-1.05-1.75 9.8 2.1 8.2-2 4.15-2.9 3.35-5.75.2 1.15.2 1.1M-93.9 91l8.4.7 7.6-3 .3 7-10.05 1.5-2.45-.95-3.8-5.25" transform="translate(183.1 183)"/><path fill-rule="evenodd" fill="#fff" d="m-74.2-82.1-.45-.1q-.65-.55-.7-1.5v-.35l.45-.5.45-.15.35.15h.05l.3.15q.5.7.4 1.5l-.1.4-.75.4" transform="translate(183.1 183)"/><path fill-rule="evenodd" fill="#b15e52" d="M47.9 182.95H14.75l-1.55-2.25-28.65-.4 32.05-17.25-3.9-8.9-34.75-25.4-12.3 6.85.5-1.65 4.95-8.85h.05v-.1l16.4-14.75q5.1-.05 9.05-1.85l3.05-2.35.05.05 5.05 5.05.15.1v.05l9.55 9.5 4.25 7.95.1.1 5.85 12.25 18.8 24.3h-.05l1.05 1.35 3.45 16.2M-70.4 127.2l3.7-4.2v-5l.05-.1-.15-.05-2.9-3.65 5-2.35 3.85.2-11.35-3.55v-5.9l4.75 1.6 11.6-.2 3.15-1.6v.35l.35.45q2.55 3.4 7.15 4.3l1.35.05-5.95 7.5-20.6 12.15m-15.25-22.95 3.5-2.4 3.45-1.2q.6.25 1.25.55v5.65l-8.2-2.6" transform="translate(183.1 183)"/><path fill-rule="evenodd" fill="#fc9" d="m43.5 165.5 1.05 1.35 3.45 16.1h-.1l-3.45-16.2-1.05-1.35h.05l.05.1m-51.95 17.45h-8.5l8.1-.5.4.5m-42.55 0h-61.35l-.85-.7-.65-.55-1.9-8.15-2.3-9.8 2.75-12.7 2.5-11.5.1-.45 12.6-20.35h5.9l-9.15 11.45-.1.05-1.7 5.6-.35 1.2.5.3.3.2 11.5-9.05 13.45-5.6.3-.15-.85 1-.25.25-9.9 11-1.35 3.95-1.15 3.4-.7 2.1.55.3.35.25 5.45-3.95 16.1-5.3 34.8 11.4 21.1 27-2.6 1.55-33.1 7.25m-39.8-75.15.5-.35 7.2 4.2-7.85 2.6h-5.15l5.3-6.45m-22.4 74.45-.65-.55.65.55M14.45 120.8l.1.1 4.15 7.8.1.15-.1-.1v-.05.05l-4.25-7.95" transform="translate(183.1 183)"/><path fill-rule="evenodd" fill="#eda672" d="M14.75 182.95h-23.2l-.4-.5-8.1.5H-51l33.1-7.25 2.6-1.55-21.1-27-34.8-11.4-16.1 5.3 12.85-9.3 4.05-4.55 20.6-12.15-2.7 3.45-3.4 12.25.55 1.4.65-.3.55-.2.7-.25.7-.7.75-.75 11.7-11.2 1.6.6.8 3.55-2.5 7.4 2.15 7.1 1.7.2 2-1.3.2-.7 12.3-6.85 34.75 25.4 3.9 8.9-32.05 17.25 28.65.4 1.55 2.25M-66.7 118l-.1-.15.15.05-.05.1m-3-3.8-2.5-3.2v-2.5l11.35 3.55-3.85-.2-5 2.35m-20.6-6.75 4.65-3.2 8.2 2.6v2.9l-5.65 1.9-7.2-4.2M-28.85 125v.1h-.05l.05-.1" transform="translate(183.1 183)"/><path stroke-width=".05" stroke-linejoin="round" stroke-linecap="round" stroke="#f4d940" fill="none" d="m365.05.3.45-.3M142.9 74.4l.45-.3M128.1 95.15l.1-.1v.05m-.05.05v.05m-.2.1-.05.05m.1-.15h.05l.05-.05m0 .05.05-.05m-.1.05-.05.05-.05.05"/><path stroke-width=".05" stroke-opacity=".4" stroke-linejoin="round" stroke-linecap="round" stroke="#000" fill="none" d="m114.45 46.8.1.1v26.4l4.95-7.95h1.4l1.6 13.55v.1m0 .05V79m.05 0 8.8-6.25 39.75-16.9h3.5l-1.5 3.5-44.8 35.95-.05.05-.2.15 1.3 10.85-.4 5L127.9 124l-.05.45-4.35 6.2-2.75 1.95-1.65.75-3.1 9.15-.05.15 15.55-6.55 2.75-.5 3.7-3.9 4.9-5.3 5.6-2.55.95.6.1.05.75 3.6 5.35 3.75q4.55-2.05 10.6-2.25 10.15-.4 19.4 1.5l30.4 10 19.3 14.25.1.1-3.45 1.7-7.25-.3-31-11-21.25-2.2h-.05l3.3 2.35m6.4 23.45-7-5.15-2.75-.1-6.5 1.65-8.05 6.75h-.05l1.9 1.35m2.65 2.5.95 1.2q5.35 6.75 9.5 14.15l1.35 2.55 4.25 9.45 1.9 4.2q3.05 8.25 4.75 16.5l2.8 12.75m-104.95 64.5h-.7l-3.6-3.05-.15-.15v-.05m14.85-12q-1.55 1.05-4.85 1.5-5.75.15-10.25-3l-.1-.1m-1.8-33.15-2.5 2.35h-4l-7.65-3.2-11.5-4.8-.05-.1m-1.45-1.65-4.2.1m18.4-48.75v-.05.05l.65 12.55-4.4 20.65-4.6 5.8-.95 4.85L64.6 246h3.65l3.9-4v-20.8l.6-4.7.3-.8q2.55-8.15 6.55-18.6 2.85-5.95 6.25-11.75l1.5-2.5 2.5-4 1.55-4.75 8.45-25.95v-4.55l-.1.1-10.4 10.15-2.5-1v2.25l-1.1 6.5-.1-.15-2.3-4.5v.05l-2.75 5.1-4.1 5.35-3.4 1.5-1.75-.5-1.25-.4-.1-.1m40.1-92.8h.05l4.05 3.2-6.3-.1m6.55.1.1-5.05m-9.7 5.75q1.6.7 2.3 2.7l.6 2.3.05.5.1.15m-3.35-4.85-1.8 6.5m2.1-7.3-.1-.05-.05.15-.15.7M93.5 93.2l-1.4 5.5m1.4-5.5.1-.35h.4l.5.35.4.35 2.05 1.55M77.2 134.3l.45-.3-2 4.5-4.05 1.65-1.3 3.15m21.6-29.05-.7 1.65.95 6.5 2.4-3.4-.5-4.6-2.15-.15m5.05 7.95-1.7 1.65 1 3.1 1.65-2.05-.95-2.7M71.6 140.15l1.3-3.15 4.3-2.7m24.45 1.8 1-6.1 1.5 2.9 1.1-2.05v-5.3l1.85.6 1.9 2.2v2.3l-.2 1.05.85-.6 3.6-1.15 10.05.7h.2m4.3-6.6-2.2.85-2.45-3.25-1.2-5.75 5-4.55h1.9m-.9-15.75h-.05v.05m-5.15-16.45-.25-.05h-.05l-2.45-1-2.1.05-1.25.05-2.2.1v.25m-10.15 55.45.2-.45-.35-.7m-2.5 3.2h1.6l1.05-2.05h.95l3.55-2.35m-21.9 21.1-.05.05-.1.05-2.4 1.45-1 2.6m16.5-13.35 3.15-3.15 10.55-4.65 5.4-2.35.15-.1M86.9 152.8l4.25-3.3 10.5-13.4m20.85-57.05v.1m.05-.15-.05.05.15.05m.2.1-.2-.1m-8.3-.65-.15-.1m.05 0h-.05m.05 0h.2m-5.2 18.4q-.55-.7-1.2-.7-.5 0-.9.4l-.1.05-1.1 1.85q-.85 2.35-.85 5.6 0 3.25.85 5.55l.05.1m2 2.25h.05q1.2 0 2.05-2.35.9-2.3.9-5.55t-.9-5.6l-.85-1.6m18.75-1.4.05.15-.1.1m.05-.5v.05h.1l.1-.05m-.2.1-.05-.05v.05l.05.05v-.1m.1 0v.05h-.05m.1-.05h-.05m-.1.1h.05m.05-.05.05-.05m-.15.2v-.1m.1-.05h.05m.8 16.15h-.1m-1.05 12.7.1-.05m-21-22.3-.15 2.5.15 2.45q.1 1.05.35 1.05.2 0 .3-1.05.15-1 .15-2.45 0-1.45-.15-2.5-.1-1-.3-1-.25 0-.35 1m6.9 37.4.1 1.65m-.35-4.95.25 3.3-8.05 23.9v.05m4.15-2.55 6.05-17.85m18.3-7.05-1.85 6 1.35 3.25 2.15.5 2.2 2.1 4.55 1.75 16.95 6.4 8.5 4.4 6.85 4.2m-19.35-32.35 16.8 11.8m2.7 20.65-.15-.1m-17.2 8.4-7.65 8.25-.8 1.55 3.8.2 1.35 1.7 7.45 11.9v8.9l-3.4 3.4-4.35-.6-.45 1.45-1.95 1.55-2.65 2.1-6-3.7-.2-.15-2.2-1.3-1.4-6.3-.6 1.1m40.45 32.15q3.3.25 8.65 2.5v-.05m-9.5-33.45-2.5-.05-4.55-3.7-.6-5.05 2.05-3.15.05-.05m-29.8-40.15.1-.05-.4-2.4m.3 2.45-9.45 2.95-12.75 6.15 1.35 11.5 2.8 7.7.05.15 1.9-2.1 9.9-6.5 6.35-1.75.4-15.05-.45-3.1m.05 18.15-.2 1.15-1.5 6.85m-34.15-8.9-.05.15 5.75-3.2.05-.05 2.75 26.35 2.15-3.6 7.05-8.4m-17.7-11.25.1-.9 2.55-7.45m-2.5 40.5.05.1h2.15v-1.4h2.7l3.45-7.6m-3.45 7.6 3.1.5 5.45 6.65m-13.4-5.75 1.55 2m.9 8.2-.2-2.65v-.05l-.7-5.5m11.85 7.35L115 204.6l-5.4-3.5 3.25 4.65 1.35 6.35-1.05 6.75 8.55 7.05 4.65 1.6 3.3 1.65m.15.05 1.6.8 10.4 7.9 4.9 8.6.55 5.7 7.95-7.35 2.7-2.35q2.9-2.15 5.75-3.75l1.55-.85q2.35-1.2 4.7-2l.7-.25 2.15-.65 5.9-.25.5.05m-66.6-12.05.6-3.9m-3.85-1.8q2.05 2.6 3.25 5.7.5 1.3.85 2.75.15 9.7-.05 13.1l-.1 1m.1-1-2.45 17.65v27.35l3.35-1q6.1-5 10.55-10.45l.55-.7q4.4-5.75 6.25-12.5 1.15-5.85 1.25-12.5l-1-15.25-.45-1.2m-37.75 92.1 1 .75v.6l-3.75 3.25-.15-.15-.6-.6v-.6l-.7 2.1.55.3.35.25 5.45-3.95 12.85-9.3 4.05-4.55 3.7-4.2v-5l-.1-.15-2.9-3.65-2.5-3.2v-10.4m-1.6-66.55-.95-1.1-.45-.45m70.4-11.7h.05m-48.35 75q-.25 3.35.4 6.6v.35l.35.45q2.55 3.4 7.15 4.3l1.35.05 19.4.4 1.05.1q3.2.25 5.7-.6 4.55-1.2 6.55-2.55 4.2-2.15 6.2-5.2m-36.2-86.25-2.65 5.1m10-19.15-7.35 14.05m-56.1-11.1 2.05.8 5.7 2.35 5.05-.2 2.55-.95 2.6-18.5 1.95-5.8m-4.55 24.3-.9 10.65 2.75 6.15-.3 2.95v.35l-.4 4.6-.3 3.05-.3 3.25 4.35-6.75m1.1-42.6-3.2 20.95v6.75l3.4 4.3m-6.2-13.65.75-.25M54 239.55l-.25 1.2m-2.35 3.6h-2.3l1.45 1.65m22.2-29.5q3.85 3.5 9.1 5.25l11.2-.35q2.25-.5 3.95-1.5l.9-.65q2.9-1.65 4.15-4.15m-27.1 33.8-1.8-3.05-1-3.85m28.3-1.65q-.6-3.85-.05-7.85l.25-1.75 1.1-12.4m-25.7 32.3q6.05 2.1 12.1 1.8 5.5-1.8 9.6-5 2.6-2.15 3.1-4.85l-.2-1.1-.2-1.15m-25.5 8.55 1.05 1.75h.05m0 .1.25.85v.1l2.1 7.3 10.8 15m16-2.3-.8-18.7q-2.5-4.15-3.55-10.4M76 250.65l.05.1-.05-.1m.25 1.1.05-.05m.25 31.5q-2.2-2.95-2.9-6.95.6-9.35 4.75-17.25m19.05 28.25 3.5-2.4 3.45-1.2-.9-.4h-.25l-7.8-3.05-2.45-.95-3.8-5.25m4.05 12.5.15-.15-.95 3.9-.15.55.5-.35 4.65-3.2m8.2 2.6v-5.65q-.65-.3-1.25-.55M87 297.25l5.3-6.45m7.7 3.85-7.85 2.6h-13.3l-.45 1.25m23.95-1.4-13.45 4.65-9.15 11.45.85-.35q.8-.35 1.55 0v3.25l-1.95 1.7-1.3 1.05h-.95l1.7-5.6.1-.05m23.6-7.3.3-.15-.85 1m-.25.25-9.9 11-1.35 3.95h2.1l.25.15m6.35-27.45 5.65-1.9v-2.9m-.45-18.15.3 7 .15 4.55v.95M70.3 322.55q-13.45.4-26.85-1.75l-4.1-1.85m64-13.05-13.45 5.6-11.5 9.05-.3-.2-.5-.3.35-1.2m4.9-17.1h6.05m-5.9 0L70.4 322.1l-.1.45m21-.6-1.15 3.4m20.75-39.75 4.75 1.6 11.6-.2 3.15-1.6m-.4-6.6.4-3.05q2.2-6.85 6.5-13.25l10.35-10.3m-13.95 45.85 5.95-7.5m-8.9 23.15-.7.7-.7.25-.55.2-.65.3-.55-1.4 3.4-12.25 2.7-3.45m-29.8-14.8h2.15m82.15-45.95 1.95 1.2.45.4"/><path stroke-width="1.5" stroke-opacity=".773" stroke-linejoin="round" stroke-linecap="round" stroke="#1d0101" fill="none" d="m114.55 73.05 4.85-7.8h1.4v.1l1.6 13.6v.1h.1m0-.15 8.75-6.25L171 55.75h3.5l-.05.1-1.45 3.4-44.8 35.95-.05.05-.15.1m-15.7-50.7 2.15 2.15v26.4l.1-.15M122.5 79l-.1-.05.1-.05m0 .1h.05M116 142.5l15.4-6.5 2.75-.5 8.6-9.2 5.6-2.55 1.05.65v.05l.75 3.55.1.1 5.25 3.65q4.55-2.05 10.6-2.25h7.1q6.35.25 12.3 1.5l30.4 10 19.4 14.35-3.45 1.7-7.25-.3-31-11-21.3-2.2.15.1 3.15 2.25.1.1 20.65 19.3m13.85 61.45-.1.05V219l-.25-8.75-2.1-7.9-7-11.85-18.65-21.05m-24.3 3.15 1.85 1.35 2.65 2.5m25.5 60.8 1.85 1.15.55.5 1.05 1.05m4.05 9.45 3.55.7q5.45 2.95 10.4 6.3l2.15 1.55 13.15 11.1.8.8m-154.6 96.1-.85-.7m-.65-.55-.1-.1-1.9-8.1m-47.3-20-10-7.35-1.05-1.2-1-1.2Q4.6 322 1.95 315.4q-2.6-6.45.35-20l.2-.95q1.6-3.25 3.65-6.1l2.65-3.5q5.7-6.8 13.9-11.4 10.25-5.2 20.55-4.3 4.35 1.3 7.65 3.35 1.15.7 2.2 1.55l1.95 1.7 2.45 2.95m-5.55 27.25h-.15q1.45-2.15 2.1-4.7.65-2.75.35-5.95.4-3.9-2.25-7.1l-.05-.05-1.05-.9q-4.65-3.95-9.85-5.35l-5.1-.1q-3.15.65-6.05 2.55m-1.2 27.25 10.65 7.35 4 1.75 7.55 1 19.3.75.1-.45 12.55-20.25m-4.45-3.25-.1-.05.45-1.3h8.15l5.3-6.45 1.05-4.2.05-.25q-1.55 1.2-5 1.65-5.75.15-10.25-3l-.2-.2-1.3-1.5-1.15-1.7q-1.3-2.4-1.85-5.35.35-5.35 1.85-10.25 1.1-3.65 2.9-7l-2.05-7.15M50.55 246h-.05l-1.4-1.65m-4.25 0h-.05l-.2-.35h.1l-1.15-2m-6.05-.75L27 230.75M4.95 213.9l-.1-.05L3 210.1v-.05l.35-.45.05-.05 5.75.95 19 10.05H33l-.25-1.05-2.45-11q-1.95-10.1-3.05-20.45l-.1-.9.1.15 7.7 11.4q2.95 4.85 5.35 9.8 2.65 5.4 4.65 11l.05.15.1.05 5.4 1.95 2.85-1.75.1-.4.2-.55q1.6-5.25 3.7-10.45 2.45-6.2 5.6-12.4l.25-.5v-.05l.05.25.6 12.35-4.4 20.65-4.6 5.8-.95 4.85.1.1 10.5 6.35h3.65l3.9-4v-20.8l.3-1.6.3-3.1.3-.8 2.35-7.1.1-.3 4.1-11.2 3.4-6.7 1.85-3.3 1-1.75 1.5-2.5 2.5-4 10-30.7v-4.55l-10.5 10.25-2.35-.95-.15-.05V155l-1.1 6.45v.05l-2.3-4.5-.1-.15L80.5 162l-4.1 5.35-3.4 1.5-1.6-.45m-1.4-.45-6-6-.1-.1-3.25-6.1-1.4-6.9 1.4-11.35-1.35-4.5-.05-1q.05-1.2.6-2.5l1.2-2.25 3.85-1.85q1.6-3.35 5.15-5.4 2.75-4.25 5.35-8.9l3.55-6.6 1.35-2.75 5-4.05v-4.55l8-6 6.35-9.4 12-33.75.1.1.55.55m11 86 .1-.1 4.35-6.2.05-.3m1.05-12.7.4-5.1-1.3-10.65v-.2l.05-.05m-9.05 38.1.05-.2 1.65-.75 2.65-1.85m-.65-51.55h.1l-.2-.1m.1.1-.15-.05m6.35 32.3-1.05 12.7m-8.85 9.4-3.1 9.1.15-.05m58.95 21.7h.05l7 5.15.1.1m29.2 56.4 3.3-9.15 1.05-10.35-2.7-14.7-5.2-12.55-11.4-13.8m-21.4-1.1-2.7-.1-6.5 1.65-8.1 6.75.15.1m30 64.65-.1-.05-2.8-12.8q-1.6-7.95-4.5-15.9l-.25-.6-1.85-4.1-4.3-9.55-1.3-2.4-.05-.15-2.8-4.7q-3.1-4.9-6.7-9.45l-.85-1.1m-92.3-8.5 1.4.45M4.95 213.9l21.95 16.75.1.1m11.35 10.6 5.15.55.05.1m-5.2-.65-.85-.1M50.55 246l11.6 4.85 7.5 3.15h4l2.55-2.4.05.15m-31.4-7.4 4.15-.1.1.1m29.3 54.15.2.2 3.45 2.95h.85l-.05.1m-30.9 4.2q7.95.55 9.65-7 3.2-8.35-2.2-16.9l-1.9-3.35m-28.8 32.9-.1-.1q-4.6-6.15-6.45-14.3.4-6.4 4.35-10.2l1.25-1.15.9-.65q.6-.5 1.25-.85m39.35 80.35.65.55m156.65-16.85 4.25-3 .55-.5q3.45-3.15 4.45-7.45 2.4-7.85 3.25-16.5 2-9 .3-18.95-1.95-10.6-5.45-18.5t-8.55-13.65M195.3 249.4l-.1-.05v-.05q-.9-4.75-3.4-8.65l-.55-.7m20.05-14.1-.1.25-1 .65M19.95 336.5l1.95 1.15 45.35 18.8v.05M231 365.95l-3.45-16.2-1.05-1.35h.05"/><path stroke-width=".05" stroke-linejoin="round" stroke-linecap="round" stroke="#000" fill="none" d="m196.35 165.3.1.1 11.4 13.8 5.2 12.55 2.7 14.7-1.05 10.35-3.4 9.4-1.1.7v-7.8l-.25-8.75-2.1-7.9-7-11.85-.1-.1m24.6 79.35.1.1q5.05 5.75 8.55 13.65 3.5 7.9 5.45 18.5 1.7 9.95-.3 18.95-.85 8.65-3.25 16.5-1 4.4-4.6 7.6l-.4.35-4.3 3 1.05 1.35 3.45 16.1M57.5 278.7q1.15 1.6 2 3.45 5.4 8.55 2.2 16.9-1.75 7.6-9.8 7l.05-.1M52 288.2q-5.15-4.65-10.85-6.2l-5.1-.1q-3.85.8-7.3 3.4l-.9.65-1.25 1.15q-3.95 3.8-4.35 10.2 1.85 8.15 6.45 14.3M43.55 242l-5.4-.6-.55-.05-.1-.1M27 230.75l-22.05-16.8v-.05l-1.75-3.45m-.2-.4-.25-.55.6.1.15.05-.4.55.1.25m24.05-23.15v-.05l7.8 11.55q6.15 10.15 10.05 20.9v.05l5.5 2 2.85-1.75M106.9 75.25l2.95-.1m1.9-31.05-12 33.75-.35.5 4.25-3 3.25-.1m-7.5 3.1-6 8.9-8 6v.05m0 4.5-5 4.05q-4.9 9.95-10.25 18.25-3.55 2.05-5.15 5.4l-3.85 1.85q-1.75 2.55-1.8 4.75l.05 1 1.35 4.5-1.4 11.35 1.4 6.9 3.25 6.1m.7-18.85-.2-.2-3.75-5.3m24.65-43v3.2m18.05 11.5h.1M109 88.45l-3.25 5.85-3.3 5.65m1.1 11.65-.15-1.65.05-.65m.1 2.3.6 2.25.5 1q.5.9 1.2 1.5l1.3.8 1.1.3h.5l.45-.1.45-.15q.3-.1.6-.3l.2-.1.4-.35.5-.45.25-.3.15-.2.75-1.3.35-1 .2-.75m1.1-24.4.65 1.45.1.25q.55 1.9.65 3.9l.05.5v.25l-.05 1.25-.05.6m-5.1-9.05.15-.05.25-.1h.05l1.5-.2.65.2.55.35.6.65m-3.95-.75.2-.1m-.8.4.6-.3m-.6.3-.8.65m-2.6 21.8.05.15m9.4-10.1.7 1.8 1.35-1.05-1.35-1.55-.7.8m2.05 5.85.85 2.65 1.5-1.85-1.7-1.85-.65 1.05m-10.1 5.8q-.75-.3-1.35-1.55m1.35 1.55.35.1m-80.6 76.3-.1-.85m26.5 31.75q3.55-11.45 9.3-22.85M45.1 219.75l1 2.1m-13-1.2h-4.85l-19-10.05-5.75-.95M33.3 222l-.2-1.35q-4-15.9-5.75-32.5M43.55 242h.05l2 .2 3.9.4m-4.7 1.5-1.2-2.1M54 301.35q-.65 2.5-2.05 4.6M52 288.2l.05.05q2.7 3.2 2.3 7.15.3 3.2-.35 5.95m-.9-27.3q-4-3.1-9.75-4.8-10.3-.9-20.55 4.3-8.35 4.65-14.1 11.6m191.05 16.45.1.05 2.2 5.65-.15 4.55 5.85 12.25 18.8 24.3.05.1m-96.05-41.35 2.95-1.95.75 1.9q-.1.75-.35 1l-3.5 4h-1.25l1.35-4.9v-.1l.05.05-.05.05m15.25 11.75 2.6-2.35q1.5-2.95-.9-4.55l-1.1-.7-1.75 1.75v1.5l1.15 4.35M188 294.3q2.75-.15 5.85 1.55m3.7 7.95.1.1 4.15 7.8m-2.05-10.1-1.05-.95m3.2 11.2-.1-.15M3.1 210.2l-.1-.15m5.9 117.9-.9-1.1q-3.3-4.75-5.95-11.35-2.6-6.45.35-20l.2-.95q1.6-3.15 3.55-6l2.55-3.4"/><path stroke-width=".05" stroke-linejoin="round" stroke-linecap="round" stroke="#0f0" fill="none" d="m174.4 55.75 1.25-.75m-1.45.85.2-.1"/><path stroke-width="1.5" stroke-linejoin="round" stroke-linecap="round" stroke="#710202" fill="none" d="m124.9 179.95 1.85-2.05 9.9-6.5 6.35-1.75.4-15.05-.45-2.95v-.15l-9.55 3-12.75 6.15 1.35 11.5 2.85 7.85.05-.05m-11.95-14.15-.05-.15-5.65 3.2m.15 32.15h-.05l-3.45-4.4v-6.75l3.2-20.95.15-.05m5.7-3.05 2.7 26.2-3.45 7.6h-2.7v1.4h-2.1"/><path stroke-width=".05" stroke-linejoin="round" stroke-linecap="round" stroke="#350000" fill="none" d="m191.25 239.95.65.8q2.5 3.9 3.4 8.65m-53.9-71.6-.75 3.6-6.7 13.2-1.1 2.1m49.9 92.35-3.05 2.35q-3.95 1.8-9.05 1.85L154.25 308l-.05.1-4.95 8.85-.5 1.65-.2.7-2 1.3-1.7-.2-2.15-7.1 2.5-7.4-.8-3.55-1.6-.6-11.7 11.2m52-24.15-.35.25.05.05 5.05 5.05.15.1M198.35 257l.45 2.5q-.2 7-2.9 13-2.05 5.85-6.5 10.25l-6.3 6.05m12.2-39.35 3.65.75q5.45 2.95 10.4 6.3l2.05 1.45m-13.05-.95-.15-.5q-.95-3.75-2.9-7.05v-.05"/><path stroke-width=".05" stroke-linejoin="round" stroke-linecap="round" stroke="#3c0000" fill="none" d="m67.8 334.05 2.5-11.5m-2.5 11.5-2.75 12.7 2.3 9.8"/><path stroke-width="1.5" stroke-opacity=".4" stroke-linejoin="round" stroke-linecap="round" stroke="#000" fill="none" d="m188 294.25-.1-.05q2.75-.15 5.85 1.55l.1.1 4.85 4.8 1.05.9v.05M188 294.25v.05l9.55 9.5m4.25 7.9.15-4.5-2.2-5.6m2.05 10.1v.05l-4.25-7.95"/><path stroke-width=".05" stroke-linejoin="round" stroke-linecap="round" stroke="#650118" fill="none" d="m69.9 365.25-.65-.55m-2-8.2L22 337.75q-1.05-.6-2.05-1.25m47.4 20.05 1.9 8.15m-2-8.2.1.05"/></g><path fill-rule="evenodd" fill-opacity="0" fill="#f0f" d="M0 0h102.95v45H0V0" id="b"/></defs><path fill="none" d="M-1-1h209v277H-1z"/><use x="117.713" y="262.957" xlink:href="#c" width="381" transform="translate(-192.55 -294)" height="381"/><use x="-140.738" y="314.392" xlink:href="#d" width="365.5" transform="matrix(-.8364 0 0 .8364 85.991 -297.957)" height="366.7"/><use x="-56.441" y="-21.163" xlink:href="#e" width="102.95" transform="matrix(1.8072 0 0 1.6538 110.663 49.757)" height="45"/></svg>