<svg width="153" height="188" xmlns="http://www.w3.org/2000/svg" xmlns:xlink="http://www.w3.org/1999/xlink"><defs><use xlink:href="#a" width="100" height="40" id="m"/><use xlink:href="#b" width="5.55" height="9.5" id="g"/><use xlink:href="#c" width="10.4" height="6.35" id="h"/><use xlink:href="#d" width="10.6" height="7.7" id="i"/><use xlink:href="#e" width="7.75" height="6.5" id="j"/><use xlink:href="#f" width="11.65" height="11.05" id="k"/><g id="l" stroke-opacity="0" stroke-linejoin="round" stroke-linecap="round" stroke="#f0f" fill="none"><path d="M187.95-293.5v380h-380v-380h380" transform="translate(192.55 294)"/><path d="m187.95-293.5-190 190 190 190m-380-380 190 190L-192 86.5M92.95-38.4H-97" transform="translate(192.55 294)"/></g><g transform="translate(7.5 17.95)" id="n"><use xlink:href="#g" width="5.55" transform="translate(3 -13.1)" height="9.5"/><use xlink:href="#h" width="10.4" transform="matrix(.558 -.0457 0 .558 -4.084 -1.849)" height="6.35"/><use xlink:href="#i" width="10.6" transform="matrix(.558 -.0457 0 .558 -1.46 -.904)" height="7.7"/><use xlink:href="#j" width="7.75" transform="translate(-2.85 -6.5)" height="6.5"/><use xlink:href="#k" width="11.65" transform="translate(-7.5 -12)" height="11.05"/><use xlink:href="#g" width="5.55" transform="matrix(-.7784 -.273 -.2132 .611 1.592 -16.42)" height="9.5"/></g><g id="c"><path fill-rule="evenodd" fill="#fef7e0" d="m-2.6.1-.35-.4q.15-.75.9-1.3Q-.7-1.9.1-.75L.05-.5q-1.7-.55-2.65.6" transform="translate(7.05 1.65)"/><path fill-rule="evenodd" fill="#d9ceb4" d="M0 .45-2.6.1q.95-1.15 2.65-.6L0 .45" transform="translate(7.05 1.65)"/><path stroke-width=".05" stroke-linejoin="round" stroke-linecap="round" stroke="#93550b" fill="none" d="m7.05 2.1-2.6-.35-.35-.4Q4.25.6 5 .05q1.35-.3 2.15.85"/><path fill-rule="evenodd" fill="#eaa32d" d="m-3.3-.3.45-.55 2.15-.2 1.5-.2Q2.3-.5 2.95.4q.55.85.35 1.75l-.35 1.3-2.7.5q-1.8.35-3.3-.65-1.1-1.85-.25-3.6" transform="translate(7.05 1.65)"/><path stroke-width=".05" stroke-linejoin="round" stroke-linecap="round" stroke="#93550b" fill="none" d="M3.75 1.35Q2.9 3.1 4 4.95q1.5 1 3.3.65l2.7-.5.35-1.3q.2-.9-.35-1.75-.65-.9-2.15-1.65l-1.5.2L4.2.8l-.45.55z"/><path fill-rule="evenodd" fill="#fef7e0" d="m-1.95.85-.1 2.05-4.35.15-.65-.55q.2-1.35 1.5-2.4 2.15-.9 3.6.75" transform="translate(7.05 1.65)"/><path stroke-width=".05" stroke-linejoin="round" stroke-linecap="round" stroke="#b59463" fill="none" d="M5 4.55.65 4.7 0 4.15q.2-1.35 1.5-2.4 2.15-.9 3.6.75"/><path fill-rule="evenodd" fill="#fef7e0" d="m-.65 1.75.2 2.15q-1.7.85-3.9.8l-.7-.45q0-1.4 1-2.65 1.8-1.3 3.4.15" transform="translate(7.05 1.65)"/><path stroke-width=".05" stroke-linejoin="round" stroke-linecap="round" stroke="#b59463" fill="none" d="M6.4 3.4Q4.8 1.95 3 3.25 2 4.5 2 5.9l.7.45q2.2.05 3.9-.8"/></g><g id="d"><path fill-rule="evenodd" fill="#eaa32d" d="M-2-.6-.05-1q1.9.9 2.8 1.9.8.95.7 2L3.3 4.45.55 4.9q-2.55.5-4.2-.5-1.5-1.9-.85-3.3Q-3.9-.3-2-.6" transform="translate(6.65 1)"/><path stroke-width=".05" stroke-linejoin="round" stroke-linecap="round" stroke="#93550b" fill="none" d="M4.65.4q-1.9.3-2.5 1.7Q1.5 3.5 3 5.4q1.65 1 4.2.5l2.75-.45.15-1.55q.1-1.05-.7-2Q8.5.9 6.6 0L4.65.4z"/><path fill-rule="evenodd" fill="#fef7e0" d="m-2.05 1.85.3 1.8Q-4.65 5-5.8 4.9q-.65-.1-.85-.6-.1-1.55.85-2.9 1.9-1.3 3.75.45" transform="translate(6.65 1)"/><path stroke-width=".05" stroke-linejoin="round" stroke-linecap="round" stroke="#b59463" fill="none" d="M4.9 4.65Q2 6 .85 5.9.2 5.8 0 5.3q-.1-1.55.85-2.9 1.9-1.3 3.75.45"/><path fill-rule="evenodd" fill="#fef7e0" d="M1.35 5.15Q1.05 6.3.05 6.6l-.95.1q-1.7-.1-1.85-.95-.15-2.25.55-3.15.85-1.1 1.7-.65.5.2 1 1l.7.95q.25.5.15 1.25" transform="translate(6.65 1)"/><path stroke-width=".05" stroke-linejoin="round" stroke-linecap="round" stroke="#b59463" fill="none" d="M8 6.15Q7.7 7.3 6.7 7.6l-.95.1q-1.7-.1-1.85-.95-.15-2.25.55-3.15.85-1.1 1.7-.65.5.2 1 1l.7.95q.25.5.15 1.25z"/><path fill-rule="evenodd" fill="#fef7e0" d="m2.75 2.2.05.05.7.65.35.6.1.75q-.15.65-.65.85l-.5.05q-.9-.05-1-.55-.1-1.4.25-1.9.35-.55.7-.5" transform="translate(6.65 1)"/><path stroke-width=".05" stroke-linejoin="round" stroke-linecap="round" stroke="#b59463" fill="none" d="m9.45 3.25.7.65.35.6.1.75q-.15.65-.65.85l-.5.05q-.9-.05-1-.55-.1-1.4.25-1.9.35-.55.7-.5"/></g><g id="e" fill-rule="evenodd"><path fill="#f2b89a" d="M.5-3.2v-.05h.05L.5-3.2" transform="translate(3.85 3.25)"/><path fill="#89bcfa" d="M.5-3.25v.05Q.25 1.35 2.65 2.35q-1.15.9-2.7.9l-1.1-.15q-.9-.2-1.6-.8-1.1-1-1.1-2.3.05-1.35 1.2-2.3 1.15-1 2.75-.95h.4" transform="translate(3.85 3.25)"/><path fill="#beddfc" d="m.5-3.2.05-.05q1.3.1 2.25.95 1.1.95 1.1 2.3-.05 1.3-1.15 2.3l-.1.05Q.25 1.35.5-3.2" transform="translate(3.85 3.25)"/></g><g id="f" fill-rule="evenodd"><path fill="#89bcfa" d="m2.85 4.2-6.8-1.85Q-6.65 1.6-5-.5l3.2-3.85Q-.85-5.4-.05-5.4q1.35-.1 2.55.75-1.75-.1-1.9.8-.4 5.4 2.25 8.05" transform="translate(5.8 5.5)"/><path fill="#beddfc" d="M2.5-4.65Q3-3.25 4.65-.9q1.6 2.3 1.1 3.5-.95 1.95-2.9 1.6Q.2 1.55.6-3.85q.15-.9 1.9-.8" transform="translate(5.8 5.5)"/><path fill="#fff" d="M-1.8-4.1Q-2-.35-4.35.2l-.15-.35q-.4-.9 0-1.95.35-1.05 1.05-1.65.65-.65 1.3-.5l.35.15" transform="translate(5.8 5.5)"/><path fill="#f0e9d2" d="m-1.8-4.1.5.85q.25.85.1 2.4-.15 1.5-.9 1.7L-3.5.9l-.85-.7Q-2-.35-1.8-4.1" transform="translate(5.8 5.5)"/><path fill="#fff" d="m.75 2.45-1.5-.65q-1-.6-.65-2.25.3-1.65 1-2.4.6-.8 1.5-.65Q2.3 1.1.75 2.45" transform="translate(5.8 5.5)"/><path fill="#f0e9d2" d="M1.1-3.5h.05q.9.15 1.55 1.15.7 1 .85 2.25.1 1.3-.7 2.05-.8.7-1.7.6l-.4-.1Q2.3 1.1 1.1-3.5" transform="translate(5.8 5.5)"/><path fill="#a68eb5" d="m-5.1 5.4-.6.15q-.3-2.5.55-4.35L-2 .65l.8.5 1.75 1q2.1 1.25 2.3 2Q-1.3 4.4-5.1 5.4" transform="translate(5.8 5.5)"/><path fill="#7b6a87" d="M2.85 4.15 1.15 5l-6.25.4q3.8-1 7.95-1.25" transform="translate(5.8 5.5)"/><path fill="#a68eb5" d="m1.4-2.9-1.1.05q-.45-.05-.45-.25l.4-.45 1-.3 1.3.1q.65.2.7.45 0 .2-.6.25L1.4-2.9m-2.5-.7-.65-.1-1.15-.6-1-.55-.25-.5.55-.15 1 .3 1.1.85.4.75" transform="translate(5.8 5.5)"/><path d="m-.4.2-.35.2-.35-.2-.15-.3.15-.4.35-.1.35.1.15.4-.15.3m-1.3-.5-.35.2-.35-.2-.15-.3.15-.4.35-.1.35.1q.15.15.15.4l-.15.3" transform="translate(5.8 5.5)"/><path fill-opacity=".502" fill="#fff" d="M2.45 2.45q-.1-.25.35-.55.4-.35 1.05-.6l1.1-.25.55.2-.35.55-1.05.6-1.1.25q-.5 0-.55-.2" transform="translate(5.8 5.5)"/><path fill-opacity=".6" fill="#fff8e0" d="M-2 2.25-3 3.3l-1.25.8-.65.05q-.15-.2.25-.7l1-1.05 1.2-.8.7-.05q.1.15-.25.7" transform="translate(5.8 5.5)"/></g><path fill-rule="evenodd" fill-opacity="0" fill="#f0f" d="M100 40H0V0h100v40" id="a"/><path fill-rule="evenodd" fill="#6b8fc4" d="M3.8-6.55q.65-.25.85.35.2.65-.3 1.7L2.9-2.1 1.15.4Q.35 1.55.2.9 0 .3.65-1.8q.7-2.1 1.55-3.3.85-1.25 1.6-1.45M.4-8.35q.3 0 .35 1.1L.55-4.4l-.3 3.2Q.15.25-.2.25q-.3 0-.5-1.7-.25-1.7-.1-3.3l.55-2.6q.35-1 .65-1" transform="translate(.85 8.35)" id="b"/></defs><path fill="none" d="M-1-1h155v190H-1z"/><use x="66.462" y="204.735" xlink:href="#l" width="381" transform="translate(-192.55 -294)" height="381"/><use x="33.231" y="102.368" xlink:href="#m" width="100" transform="matrix(2 0 0 2 -108.25 -158.7)" height="40"/><use x="7.146" y="22.013" xlink:href="#n" width="16.05" transform="translate(-64.504 -214.645) scale(9.3006)" height="21.35"/></svg>