<svg width="91" height="108" xmlns="http://www.w3.org/2000/svg" xmlns:xlink="http://www.w3.org/1999/xlink"><defs><use xlink:href="#a" width="100" height="40" id="d"/><use xlink:href="#b" width="142.65" height="168.55" id="e"/><g id="c" stroke-opacity="0" stroke-linejoin="round" stroke-linecap="round" stroke="#f0f" fill="none"><path d="M187.95-293.5v380h-380v-380h380" transform="translate(192.55 294)"/><path d="m187.95-293.5-190 190 190 190m-380-380 190 190L-192 86.5M92.95-38.4H-97" transform="translate(192.55 294)"/></g><g id="b"><path fill-rule="evenodd" fill="#7aac1c" d="m118.95-63.85 3.1.25q-4.7 11.35-12.1 21.6l-2.2-.35 6.35-10.1 4.85-11.4m19.75 55.5.65 5.25Q114.4-18.15 95.9-22.55l-6.65-.85-5.4-.15q-6.05.15-7.3 2.55-16 2.05-27.9 8.2-3.85 1.95-7.3 4.4-3.45 2.45-6.45 5.35-9.75 9.3-18.4 23.9-.6-3.75-.85-7.2L24.8.9l12-14 15-8 22-4.5 1 1.35 1.35-2.9 8.6-1.4.05.45 14 2 21.5 6.5 18.4 11.25M23.4-21.15Q7.5-26.45 0-44.2q1.55.6 3.3 1.05l5.3 9.3 7.35 5.9 9.6 4.45-2.15 2.35" transform="translate(1.1 84.25)"/><path fill-rule="evenodd" fill="#87d121" d="m118.95-63.85-4.85 11.4-6.35 10.1 2.2.35q8.75 1.75 14.95 7.3 11.05 9.85 13.8 26.35L120.3-19.6l-21.5-6.5-14-2-.05-.45-8.6 1.4q3-6.3 6.25-9.9l1.35-1.35q2.35-2.2 4.85-3l3.8-.65.4-.05 1.6-.25 2.5-.25q3.65-.3 6.95-.1l3.9.35-3.9-.35 1.5-12.85-7.8 5.55.1-8.25q8.9-6.2 21.3-5.6m-103.3 77.5Q13.6-9.3 23.4-21.15l2.15-2.35-9.6-4.45-7.35-5.9-5.3-9.3q7.6 2 19.1 1.6.55 2.35 1.5 4.75l-2.5-.7 5.4 12.85-1.25 1.15 1.25-1.15 2.5-1.95q4.95-3.45 12-5.15L48.5-33l11.35-.35 2.2.25q1.8.35 3.5 1.05 4 1.65 7.4 5.45l.85 1-22 4.5-15 8-12 14-9.15 12.75m32.9-45.3-4.55.8Q31.85-29.9 21.7-16L20-11.65q10.85-15.65 28.65-19.6l1.4-.3 1-.15-2.15-.05-.35.1" transform="translate(1.1 84.25)"/><path fill-rule="evenodd" fill="#468512" d="m97.55-50 7.8-5.55-1.5 12.85q-3.3-.2-6.95.1l-2.5.25-1.6.25 3.85-7.35.9-.55M82.4-37.05q-3.25 3.6-6.25 9.9l-1.35 2.9-1-1.35-.85-1q-3.4-3.8-7.4-5.45l4.9-13.35 11.95 8.35m-55.6 12.4L21.4-37.5l2.5.7 17.4 5.05q-7.05 1.7-12 5.15l-2.5 1.95" transform="translate(1.1 84.25)"/><path fill-rule="evenodd" fill="#f0d01a" d="M36.5-57.6q-1.2-11.25 14.15-16.65 16.85-5.95 24.55 5 3 4.2 4.6 10.95v4.75q-5.75-5.3-13.8-8.25-9 11.05-6.15 28.45l-5.3-3q-8.85-10.7-10.15-27.2-1.5-4-3.9-1.5-2.75 2.55-2.35 6.55 2.1 11.05 6.2 15.75l-2-1.35q-5.2-7.6-5.85-13.5m24.15-15.7Q59-72.25 59-70.8t1.65 2.5q1.65 1.05 3.95 1.05 2.3 0 3.95-1.05 1.65-1.05 1.65-2.5t-1.65-2.5q-1.65-1.05-3.95-1.05-2.3 0-3.95 1.05" transform="translate(1.1 84.25)"/><path fill-rule="evenodd" fill="#f9e7aa" d="M60.65-73.3q1.65-1.05 3.95-1.05 2.3 0 3.95 1.05 1.65 1.05 1.65 2.5t-1.65 2.5q-1.65 1.05-3.95 1.05-2.3 0-3.95-1.05Q59-69.35 59-70.8t1.65-2.5" transform="translate(1.1 84.25)"/><path fill-rule="evenodd" fill="#dfb98c" d="M22.4-41.55q-1.95-8 .3-17.45 8.65 16.9 25.8 26l-7.2 1.25-17.4-5.05q-.95-2.4-1.5-4.75m59.15-29.4 1.85-7.85q13.6 11.95 9 36.75l-3.8.65q-3.35-7.15-8.8-12.15v-4.75l1.75-12.65m2.2 32.55-1.35 1.35-11.95-8.35-4.9 13.35q-1.7-.7-3.5-1.05-3.2-13 3.6-24.15 13.3 4.8 18.1 18.85" transform="translate(1.1 84.25)"/><path fill-rule="evenodd" fill="#ca9f0f" d="M44.35-42.75q-4.1-4.7-6.2-15.75-.4-4 2.35-6.55 2.4-2.5 3.9 1.5 1.3 16.5 10.15 27.2-5.4-3.1-10.2-6.4" transform="translate(1.1 84.25)"/><path fill-rule="evenodd" fill="#eedcbf" d="M22.7-59q.2.15.75-1.35 3.45 3.7 7.45 7.25 5.25 4.6 11.45 9l2 1.35q4.8 3.3 10.2 6.4l5.3 3Q57-50.75 66-61.8q8.05 2.95 13.8 8.25 5.45 5 8.8 12.15-2.5.8-4.85 3-4.8-14.05-18.1-18.85-6.8 11.15-3.6 24.15l-2.2-.25L48.5-33q-17.15-9.1-25.8-26m60.7-19.8 1-4.35q12.55 9.55 13.25 24.9l-.1 8.25-.9.55-3.85 7.35-.4.05q4.6-24.8-9-36.75" transform="translate(1.1 84.25)"/><path fill-rule="evenodd" fill="#d8a870" d="M30.9-53.1v-7.65l5.6 3.15q.65 5.9 5.85 13.5-6.2-4.4-11.45-9m44.3-16.15 2.95-6.1 3.4 4.4L79.8-58.3q-1.6-6.75-4.6-10.95" transform="translate(1.1 84.25)"/><path fill-rule="evenodd" fill="#49c09c" d="m95.9-22.55 3.35 3.75-6.45-2.05h-.4l-9.9-.55-.4.55-6.6 6.4V-3.5l-3.3-3.9-5.4-5.4H55.75L45.9-7.75l-1.15.55-3.7 2.8-1.65 1.2-4.6 9.3q-.1-4.45.1-9.15 3-2.9 6.45-5.35 3.45-2.45 7.3-4.4 11.9-6.15 27.9-8.2 1.25-2.4 7.3-2.55l5.4.15 6.65.85M46.4 24.8h-.25.25l-.5-3.15.25-.05q.8 0 1.35.45.55.5.55 1.15 0 .65-.55 1.1-.45.45-1.1.5M43.6.4q.55-.6 1.35-.6t1.35.6q.55.65.55 1.5t-.55 1.45q-.55.65-1.35.65t-1.35-.65q-.55-.6-.55-1.45T43.6.4m25.3 36.5q3-1.25 6.7-1.25 5.9 0 10.05 3.1 4.2 3.15 4.2 7.6l-.1 1.5q-.6 3.5-4.1 6.05-4.15 3.15-10.05 3.15T65.5 53.9q-4.15-3.1-4.15-7.55 0-4.45 4.15-7.6 1.55-1.15 3.4-1.85M50.1 5.4l.6.25.25.6-.25.6-.6.25q-.35 0-.6-.25l-.25-.6q0-.35.25-.6t.6-.25m-2.05 4.45q1 0 1.7.75.75.75.75 1.8t-.75 1.8q-.7.75-1.7.75t-1.75-.75q-.7-.75-.7-1.8t.7-1.8q.75-.75 1.75-.75m-2.5 25.5L46.6 34q2.35-2.35 5.65-2.35 3.3 0 5.65 2.35 2.35 2.35 2.35 5.65 0 3.3-2.35 5.65-.9.9-2 1.5l-3.2-3.25-3.5-5.35-2.45-.25-1.4 1.65 2.6 6.8-1.35-1.1q-2.35-2.35-2.35-5.65 0-2.4 1.3-4.3" transform="translate(1.1 84.25)"/><path fill-rule="evenodd" fill="#7cd1b7" d="m45.9-7.75 9.85-5.05H66.8l5.4 5.4 3.3 3.9v-10.95l6.6-6.4.4-.55 9.9.55q3.95 3.75 6.2 9.5l-.45.7.45-.7q8.3 8.4 13.45 19.75l-1.4-.85v.05l-.8.15q-.8.5-.6 1.3l2.45 9.8.3.4.45.6.85 2.55q.65 1.45 1.95 2.2 1.45.8 1.95-.3l-.2 4.4q-.8-.95-2.45-1.4-.6 0-1.05.55-1.05 1.25-.75 3.05-.75 1.25-.8 2.7-.1 1.4.4 2.55 1.15 2.75 2.5 1.3-3.25 8.1-11 13.35-7.55-.95-14.1-2.95l.1-1.5q0-4.45-4.2-7.6-4.15-3.1-10.05-3.1-3.7 0-6.7 1.25-6.5-5.35-11.25-12.6l.9-.75q1.35-1.35 1.35-3.3 0-1.95-1.35-3.3-1.35-1.35-3.3-1.35-1.2 0-2.2.55-4.9-10.45-7.15-23.9m52.25-2.9-.7-.25-.6.15-.35.3q-.55.45-.5 1.15L89.6.2q-.65.95-.05 1.9 1.1 1.7 1.7-.2.4-1.2 1.25-2.2 3.8-4.35 6.2-9.45l-.05-.15-.5-.75M68 3.35q6.05 1.85 12.85 1.1l.1-.1.4-.45.15-.45V3.3l-.35-.4L69.2 1.6q-1.15.1-1.4 1.3-.05.35.2.45M50.1 5.4q-.35 0-.6.25t-.25.6l.25.6q.25.25.6.25l.6-.25.25-.6-.25-.6-.6-.25" transform="translate(1.1 84.25)"/><path fill-rule="evenodd" fill="#508571" d="m98.15-10.65.5.75.05.15q-2.4 5.1-6.2 9.45-.85 1-1.25 2.2-.6 1.9-1.7.2-.6-.95.05-1.9L96-9.3q-.05-.7.5-1.15l.35-.3.6-.15.7.25M68 3.35q-.25-.1-.2-.45.25-1.2 1.4-1.3l11.95 1.3.35.4v.15l-.15.45-.4.45-.1.1q-6.8.75-12.85-1.1" transform="translate(1.1 84.25)"/><path fill-rule="evenodd" fill="#c2ebe4" d="m99.25-18.8 7.2 8.65Q146.6 41.9 90.6 63.5q-22.05 3.55-35.35-4.95-3.45-2.2-4.8-3.6Q35.4 39.2 34.8 6.1l4.6-9.3 1.65-1.2Q40.7.75 40.7 5.5h-1.55l-.7 3.85 2.1 19.55 2.25 3.4 1.7.2 1.05 2.85q-1.3 1.9-1.3 4.3 0 3.3 2.35 5.65l1.35 1.1.2.55 4.25 5.1 6.5 5.05 4.8 1.7 2.5-.85-.7-1.3 4.2 1.55q12.1 2.6 20.1-1.15 8.25-2.35 14.05-6.25 7.75-5.25 11-13.35l1.05-1.65 1.15-2.65q1.25-2.9-.05-4.45l.2-4.4.2-.65q.55-3.95-.4-7.65-1.3-5-4.95-7.6Q106.9-2.95 98.6-11.35q-2.25-5.75-6.2-9.5h.4l6.45 2.05" transform="translate(1.1 84.25)"/><path fill-rule="evenodd" fill="#cfe772" d="m48.65-31.25-.1-.4.35-.1 2.15.05-1 .15-1.4.3" transform="translate(1.1 84.25)"/><path fill-rule="evenodd" fill="#c1e463" d="M48.65-31.25Q30.85-27.3 20-11.65L21.7-16Q31.85-29.9 44-30.85l4.55-.8.1.4" transform="translate(1.1 84.25)"/><path fill-rule="evenodd" fill="#e8f7f2" d="m44.5 32.5-1.7-.2-2.25-3.4-2.1-19.55.7-3.85h3.1l1.95 5.35 1.7 10.8.5 3.15h-.25.25l.65 4.4-2 3.35-.55-.05m70.35 4.95q-1.35 1.45-2.5-1.3-.5-1.15-.4-2.55.05-1.45.8-2.7-.3-1.8.75-3.05.45-.55 1.05-.55 1.65.45 2.45 1.4 1.3 1.55.05 4.45l-1.15 2.65-1.05 1.65m2.35-13.15q-.5 1.1-1.95.3-1.3-.75-1.95-2.2l-.85-2.55-.45-.6-.3-.4-2.45-9.8q-.2-.8.6-1.3l.8-.15v-.05l1.4.85Q115.7 11 117 16q.95 3.7.4 7.65l-.2.65M55.9 46.8l8.6 8.05 1 1.8.7 1.3-2.5.85-4.8-1.7-6.5-5.05-4.25-5.1-.2-.55-2.6-6.8 1.4-1.65 2.45.25 3.5 5.35 3.2 3.25" transform="translate(1.1 84.25)"/><path fill-rule="evenodd" fill="#74cdab" d="m44.5 32.5.55.05 2-3.35-.65-4.4q.65-.05 1.1-.5.55-.45.55-1.1 0-.65-.55-1.15-.55-.45-1.35-.45l-.25.05-1.7-10.8-1.95-5.35H40.7q0-4.75.35-9.9l3.7-2.8 1.15-.55q2.25 13.45 7.15 23.9-.6.3-1.1.8-1.35 1.35-1.35 3.3 0 1.95 1.35 3.3 1.35 1.35 3.3 1.35 1.3 0 2.4-.6 4.75 7.25 11.25 12.6-1.85.7-3.4 1.85-4.15 3.15-4.15 7.6 0 4.45 4.15 7.55 4.2 3.15 10.1 3.15 5.9 0 10.05-3.15 3.5-2.55 4.1-6.05 6.55 2 14.1 2.95-5.8 3.9-14.05 6.25-8 3.75-20.1 1.15l-4.2-1.55-1-1.8-8.6-8.05q1.1-.6 2-1.5 2.35-2.35 2.35-5.65 0-3.3-2.35-5.65-2.35-2.35-5.65-2.35-3.3 0-5.65 2.35l-1.05 1.35-1.05-2.85M43.6.4q-.55.65-.55 1.5t.55 1.45q.55.65 1.35.65t1.35-.65q.55-.6.55-1.45T46.3.4q-.55-.6-1.35-.6T43.6.4m4.45 9.45q-1 0-1.75.75-.7.75-.7 1.8t.7 1.8q.75.75 1.75.75t1.7-.75q.75-.75.75-1.8t-.75-1.8q-.7-.75-1.7-.75" transform="translate(1.1 84.25)"/><path fill-rule="evenodd" fill="#a2ddc7" d="M53.05 16.15q1-.55 2.2-.55 1.95 0 3.3 1.35 1.35 1.35 1.35 3.3 0 1.95-1.35 3.3l-.9.75q-1.1.6-2.4.6-1.95 0-3.3-1.35-1.35-1.35-1.35-3.3 0-1.95 1.35-3.3.5-.5 1.1-.8" transform="translate(1.1 84.25)"/><path fill-rule="evenodd" fill="#1b4b38" d="M55.25 58.55Q49.1 68.6 45.8 78.4q-.8 3.25-2.4 4-1.65.75-5.3.8-3.7.05-.55-11.95 3.15-12.05 12.9-16.3 1.35 1.4 4.8 3.6m80.3-42.4q9.1-7.4 1.25 16.95-7.9 24.3-14.25 19.55 1.95-25.05 13-36.5" transform="translate(1.1 84.25)"/><path stroke-width=".05" stroke-opacity=".302" stroke-linejoin="round" stroke-linecap="round" stroke="#000" fill="none" d="M111.05 42.25q7.4-10.25 12.1-21.6l-3.1-.25m-11.2 21.5 2.2.35Q119.8 44 126 49.55q11.05 9.85 13.8 26.35l.65 5.25Q115.5 66.1 97 61.7l3.35 3.75 7.2 8.65q40.15 52.05-15.85 73.65-22.05 3.55-35.35-4.95-6.15 10.05-9.45 19.85-.8 3.25-2.4 4-1.65.75-5.3.8-3.7.05-.55-11.95 3.15-12.05 12.9-16.3Q36.5 123.45 35.9 90.35q-.1-4.45.1-9.15-9.75 9.3-18.4 23.9-.6-3.75-.85-7.2-2.05-22.95 7.75-34.8Q8.6 57.8 1.1 40.05q1.55.6 3.3 1.05 7.6 2 19.1 1.6M98.75 26q8.9-6.2 21.3-5.6m-15.1 21.15 3.9.35m-14.95.25-.4.05-3.8.65q-2.5.8-4.85 3L83.5 47.2q-3.25 3.6-6.25 9.9M42.4 52.5l7.2-1.25 11.35-.35 2.2.25q1.8.35 3.5 1.05 4 1.65 7.4 5.45l.85 1 1 1.35 1.35-2.9m22 16.5.45-.7m-75.2-9.8 2.15-2.35 1.25-1.15 2.5-1.95q4.95-3.45 12-5.15m9.15 86.7q1.35 1.4 4.8 3.6m80.3-42.4q-11.05 11.45-13 36.5 6.35 4.75 14.25-19.55 7.85-24.35-1.25-16.95"/><path stroke-width=".75" stroke-linejoin="round" stroke-linecap="round" stroke="#7aac1c" fill="none" d="m98.65 34.25 7.8-5.55-1.5 12.85M27.9 59.6l-5.4-12.85 2.5.7 17.4 5.05m56.25-18.25-.9.55-3.85 7.35M66.65 52.2l4.9-13.35L83.5 47.2"/><path stroke-width=".05" stroke-linejoin="round" stroke-linecap="round" stroke="#d8a870" fill="none" d="M23.5 42.7q-1.95-8 .3-17.45.2.15.75-1.35Q28 27.6 32 31.15V23.5l5.6 3.15M76.3 15l2.95-6.1 3.4 4.4 1.85-7.85 1-4.35Q98.05 10.65 98.75 26l-.1 8.25M25 47.45q-.95-2.4-1.5-4.75m19.95-2.55 2 1.35q4.8 3.3 10.2 6.4l5.3 3Q58.1 33.5 67.1 22.45q8.05 2.95 13.8 8.25v-4.75l1.75-12.65M32 31.15q5.25 4.6 11.45 9M80.9 30.7q5.45 5 8.8 12.15"/><path stroke-width=".75" stroke-linejoin="round" stroke-linecap="round" stroke="#ca9f0f" fill="none" d="M37.6 26.65Q36.4 15.4 51.75 10 68.6 4.05 76.3 15m4.6 10.95Q79.3 19.2 76.3 15M43.45 40.15q-5.2-7.6-5.85-13.5"/><path stroke-width="1.75" stroke-linejoin="round" stroke-linecap="round" stroke="#349470" fill="none" d="m97 61.7-6.65-.85-5.4-.15q-6.05.15-7.3 2.55-16 2.05-27.9 8.2-3.85 1.95-7.3 4.4Q39 78.3 36 81.2"/><path stroke-width="2.25" stroke-linejoin="round" stroke-linecap="round" stroke="#27694b" fill="none" d="M120.05 20.4q-12.4-.6-21.3 5.6-.7-15.35-13.25-24.9l-2.85 12.2-3.4-4.4L76.3 15q-7.7-10.95-24.55-5Q36.4 15.4 37.6 26.65L32 23.5v7.65q-4-3.55-7.45-7.25-.55 1.5-.75 1.35-2.25 9.45-.3 17.45-11.5.4-19.1-1.6-1.75-.45-3.3-1.05Q8.6 57.8 24.5 63.1q-9.8 11.85-7.75 34.8.25 3.45.85 7.2Q26.25 90.5 36 81.2q-.2 4.7-.1 9.15.6 33.1 15.65 48.85-9.75 4.25-12.9 16.3-3.15 12 .55 11.95 3.65-.05 5.3-.8 1.6-.75 2.4-4 3.3-9.8 9.45-19.85 13.3 8.5 35.35 4.95 56-21.6 15.85-73.65l-7.2-8.65L97 61.7q18.5 4.4 43.45 19.45l-.65-5.25q-2.75-16.5-13.8-26.35-6.2-5.55-14.95-7.3 7.4-10.25 12.1-21.6l-3.1-.25m16.6 80q-11.05 11.45-13 36.5 6.35 4.75 14.25-19.55 7.85-24.35-1.25-16.95"/></g><path fill-rule="evenodd" fill-opacity="0" fill="#f0f" d="M100 40H0V0h100v40" id="a"/></defs><path fill="none" d="M-1-1h93v110H-1z"/><use x="55.997" y="156.342" xlink:href="#c" width="381" transform="translate(-192.55 -294)" height="381"/><use x="46.692" y="130.361" xlink:href="#d" width="100" transform="translate(-66.9 -139.75) scale(1.1993)" height="40"/><use x="-216.851" y="-218.613" xlink:href="#e" width="142.65" transform="translate(136.56 137.843) scale(.6274)" height="168.55"/></svg>