<svg width="139" height="122" xmlns="http://www.w3.org/2000/svg" xmlns:xlink="http://www.w3.org/1999/xlink"><defs><g id="b" stroke-opacity="0" stroke-linejoin="round" stroke-linecap="round" stroke="#f0f" fill="none"><path d="M187.95-293.5v380h-380v-380h380" transform="translate(192.55 294)"/><path d="m187.95-293.5-190 190 190 190m-380-380 190 190L-192 86.5M92.95-38.4H-97" transform="translate(192.55 294)"/></g><g id="d"><path fill-rule="evenodd" fill="#333" d="m302.5-97-.25 1.65-.95 6.45-.8 5.45-8 1.45-6.95 3-13.35 7.45-3.6.95 22.15-23L302.5-97m-7.65 19.75q1.75 2.75 2.9 6.7 1.05 2.55.55 4.4l.05.95q.45-.6-.15 3.65-1.15 7.35-6.75 11.8L287-50.9q2.2.15 4.45-5.5l2.4-5.85q.7-1.8.7-3.6-.1-4.95-2.05-9.6l2.35-1.8M108.9-60.05l9.05 4.15-7.2 30.7-.45 9.95-2.15-8.95q.6-7.3.85-14.8.3-10.35-.1-21.05m5.25 60.8 1.15 1.8.35.5-1.9-2.9 1.9 2.9 10.9 16.85.35.55-7.7.9-1.15-.85-.55 6.6-47.8 4.05-13.5-14.1L54.6 1.1l.05-.45.05-.3 10.8 2L85 6.05l.15.25L54.65.65l30.5 5.65L93 24.45l-3.85-17.4-.05-.25 13.7 2.6L87.1-2.05l-8.2-6-.8-1.8L83-20.7l4.7-10.45 2.35-5.3.3.45 19.5 30.15 3.9 6 .4.6m3.1-7.1-6.1-10.35h13.55v.05l.8 2.45 3.7 11h.1l3.85 13.05h-.35l-6.15-.4-9.4-15.8M129.85-21l2.6-3.4 2.6 7.55.3-10.15 6.95-.85 3.75 8.4-.25-5.8 3.75.6 2.25 2.85-19.45 12.95h-.05L129.85-21m99.25-92.95q3.55-1 6.9-2.5l19-21.85-16 32.35-9.9-8m24.35-2.2 28.5-14-35.45 27.2 6.95-13.2m-42.85 17.6 1.25-1.55.3-.35.9-.9 34.8 16 13.95 14.1.2.25v.05l-4.2.1-31.85-11.8-.35-.1h.5q-1.75-.35-.85-.05l-15.75-4.15q-1.8-4.4-.5-8.3.5-1.7 1.6-3.3M286-52.1h.05l.05.85.05.1-1.15-.3 1-.65m-55-36.85-19.15-11.15L231-88.95m-5.5 0-16.5-6.3 16.5 6.3M120.85 12.9l-31.7-5.85 31.7 5.85m11.95-3.05-7.3-24.05 7.3 24.05m157.7-100.3 11.75-4.9-11.75 4.9m-1 5.5 11.8-3.95-11.8 3.95" transform="translate(.85 143.3)"/><path fill-rule="evenodd" fill="#555" d="m284.85-91.35 4.65-4.6 13.5-4.5-.5 3.45-11.75 3.4-22.15 23-.6.15.45-.55 16.4-20.35m-71.8-10 2.45-2.1 36 17 10.3 15.2-13.95-14.1-34.8-16" transform="translate(.85 143.3)"/><path fill-rule="evenodd" fill="#3d3d3d" d="m292.5-82 2.35 4.75-2.35 1.8q1.95 4.65 2.05 9.6 0 1.8-.7 3.6l-2.4 5.85q-2.25 5.65-4.45 5.5l4.45 1.15h.05l1.55.4h.05l5.45 1.8Q312.8-42.2 335-26.95q9.05 8.6 14.4 15.75L324-27.45q-8.55-7.6-72.65-20l-.15.1.15-.1 1.05-.8 1-.75 1.3-.95q2.9-2.15 4.3-3l11-1 .65.1 14.35 2.4 1.15.3-.05-.1-.05-.85H286l1.45-2.35q1.5-2.55 2.65-5.55 1.1-3.05 1.55-6.5l-.1-1.6q-.9-3.05-2.2-5.95l-.05-.1q-1.15-2.45-2.8-4.3l-.1-.4-.85-.15 6.95-3m-78.8 31.1.35.1h1.4l.45-.05 2.15.05.35.05q.25.05.35-.15h.1q20.55.5 30.5 6.35l-6.6 8.5-28 3.1-5.75-6.7 3.25-.65-6.85-2.9-2.9-6.75 11.2-.95" transform="translate(.85 143.3)"/><path fill-rule="evenodd" fill="#212121" d="m298.2-61.55.35 14-5.45-1.8h-.05l-1.55-.4h-.05q5.6-4.45 6.75-11.8m51.2 50.35 4 6.1v.15l-88.9-3.5h-28q-2.45-1.15-4-2.5l-.35-.35-2.55-2.4-.35 1.15 5.25 6.6 23.6 16.2 3.4 1.25v.05q3.9 41.55 5 56-3.8 4.65-9.45 9.15l5.35 1.35-12.05 3.8-12.8 7.35-.25 1.75q-.25-1.35-.1-1.95l-7.5 1.5-2.8-1-30.5-7.95-3.75-2.1 18.35-.4-21.75-17.75-23.45.35q-2.45-3-4.15-6.25l39.1-4.85-11.9-17.1-.05-.05-30.15 14.5q-.85-3-1.2-6.15l17.05-2.9-.25-33.55q-4.55 2.05-9.15 4.05l7.4-17.15-26.1 22.9.2-.85Q118.55 43.9 74 58.05 32.4 39.95 9 9.75 4.1 3.4 0-3.45q1.1-7.25 6.05-21.7l21.05 43.8L37.05-3 29-11.45l5.85-4.35 1.85-1.4q3.2-8.15 6.85-13.45l21.95 33-10.8-2-.05.3-.05.45 1.6 15.95L37.05-3 56.2 17.05l13.5 14.1 47.8-4.05.55-6.6 1.15.85 7.7-.9-.35-.55-10.9-16.85-.35-.5 2.2-1.5-.25-7.4 9.4 15.8 6.15.4h.35L129.3-3.2h-.1l.05-.05 3.05-5.6v.05l.05-.05L151.8-21.8l9.2-6.15 1.2-2.55 12.65-26.9 22.7-.95L201.6-67l-8.35-6.35 1.15-6.9 5.45 6.9 4.9-5.75-13.15-14.4 1.4-2.85 7.7 7.75 2.6-6.05-1.3-10.1q6-3.1 13.9-5.45 4.4-.95 10.55-2.95l2.65-.8 9.9 8 16-32.35 4.5-4.15-7.5 27 1.45-.7-6.95 13.2 35.45-27.2.55-.3-15 26 17.35 13.1L268.45-71H262v.05-.05l-.2-.25-10.3-15.2-36-17-2.45 2.1-.9.9-.3.35-1.25 1.55-4.15-.65L204.7-89l2.85 5.75 6.55 6.5q-1.5 4.9-1.95 10.15-.3 3.85-.15 7.8.15 3.45 1.2 6.7l.5 1.2-11.2.95 2.9 6.75 6.85 2.9-3.25.65 5.75 6.7 28-3.1 6.6-8.5q1.2-1.8 1.55-3l.45.1q64.1 12.4 72.65 20l25.4 16.25M98.55 120.3l-11.05-3.25 11.8-22.1.3-.3 3.55-4.05 4.85-7.05-.35 1.4-.2.75-4.3 4.9 4.3-4.9-8.9 34.6m-6.25-17.7L82 114.05l-16.5-8.5L94.05 70l5.3 1.35 26.55-12.8 6.1 7-26.9 10.1-13.15 25.5.35 1.45m24.65-119.3-.45-15.75 3.15.7 5.05 15.05h-7.75M353.4-5.1 330-11.95 229.75-17.4 330-11.95l23.4 6.85M251.2-47.35l.15-.1-.15.1M133-5.45l-.7-3.35.7 3.35M258.25-64.3l6.6 2.7 6.3-1.4-1.15 9.05-11 1-.75-11.35m-28.5 46.9q.1-1.45.75-3.05l12.25-15.6-12.25 15.6q-.65 1.6-.75 3.05-.3 3.45 2.4 6.1-2.7-2.65-2.4-6.1M54.35.6l.3.05-.3-.05m28.6-40.9 4.75 9.15L83-20.7l-2.5-11.25q1-4.7 2.45-8.35M87.1-2.05 102.8 9.4 89.1 6.8l.05.25-4-.75 4 .75L93 24.45 85.15 6.3 85 6.05l4.1.75-2-8.85m83.95 8.7-.05.1.1-.1h-.05m3.45 32.9v-.7.7" transform="translate(.85 143.3)"/><path fill-rule="evenodd" fill="#876123" d="m267.55 90.45 8.3 6.25-15.45 5.45-1.85-1.45 9-10.25m11.25 15.45-3.1 7.4-12.85-1 2.65-6.25v.25l13.3-.4m-5.75 13.6-2.5 6.05h-.05l7.85.2-16.5 11.6 8.5 3.1 14.25-14.6 3.6.1L277.45 141l7.1 1.45 13.4-16.3 5.7.15-13.4 15.85 5.95 2.55 11.35-10 .4 1.05 3.05 8.55 3 4.75-5-6.5q-12-1.55-12.1 4.8-.05 2.15 1.3 5.2l-38.2-8.5-10-1.5 9.9-23.25 13.15.2m43.7 7.05 4.5 11.4-7.75-5.4-5.7 1.9 8.95-7.9m-150.9-25.35-2.5 7.5-10.25-6.2 1.75-5.35 11 4.05m-3.65 10.95-3.2 9.4v1.15l-8.95-10.65H150l.05-.05 1.85-5.8 10.3 5.95M159 127.7v6.35l-5.65 4.6-9.95-22.95 3.8-2.1 11.8 14.1m-8.1 12.9-2.75 2.2-19.1-20.25 6.45-2.5 1.65-.9 13.75 21.45m-5.4 4.35-3.8 3.05-32.7-17.75 11.75-4.55 24.75 19.25m-6.05 4.85-.95.75-1.25-1.5 2.2.75M118 158.05l-5-6.5 5-2.5q.3-3.15-.25-5.4l-.4-1.25 7.2 2.4q-3.2 1.1-6.55 4.25v9m-15-13.25 1.3-6.75 4.55 1.55-5.85 5.2" transform="translate(.85 143.3)"/><path fill-rule="evenodd" fill="#beb765" d="m321.25 137.95 7.75 5.35-.95.05-20.1-7.6-.4-1.05-.05-.15.3-.1 5.7-1.9 7.75 5.4m-7.25 11.1 1.45 1.85-18.55-3.55q.1-6.35 12.1-4.8l5 6.5M119.35 166l-1.35 1.05v-18q3.35-3.15 6.55-4.25 5.25-1.85 10 1.8l-15.2 19.4M96.2 151.55h-.7l7.5-6.75 5.85-5.2 1.65-1.55q5.15.45 6.85 4.35l.4 1.25-21.55 7.9" transform="translate(.85 143.3)"/><path fill-rule="evenodd" fill="#6d481d" d="m263.45 87.35 4.1 3.1-9 10.25-9.1-6.95q5.05-.15 5.05-2.95l1.5-4.3q-.05 2.65 2.7 1.05 2.75-1.6 2.75-.8 0 .75 2 .6m12.4 9.35 5.15 3.85-2.2 5.35-13.3.4v-.25l-5.1-3.9 15.45-5.45m-.15 16.6-2.65 6.2-13.15-.2 2.95-7 12.85 1m2.65 12.45 6.25.1-14.25 14.6-8.5-3.1 16.5-11.6m9.85.2 9.75.2-13.4 16.3-7.1-1.45 10.75-15.05m15.45.35 13.1.25-8.95 7.9-.3.1.05.15-11.35 10-5.95-2.55 13.4-15.85M166.4 99.45l-.55 1.75-11-4.05L157 90.5q.55-.15 2.3-3.95.75-1.65 3.1-1.45 1.85.2-2.15 8.6 8.7-6.2 10.75-4.95-10.5 7.95-8.1 9l.9.35.15.05 3.05.25q1.7-.35-.6 1.05m-3.05 9.25-1.15 3.45-10.3-5.95 1.2-3.7 10.25 6.2m-4.35 14v5l-11.8-14.1 2.8-1.55h.05L159 122.7m-5.65 15.95-2.45 1.95-13.75-21.45 6.25-3.45 9.95 22.95m-5.2 4.15-2.65 2.15-24.75-19.25 8.3-3.15 19.1 20.25m-6.45 5.2-2.25 1.8-2.2-.75-2.7-2.45q-4.75-3.65-10-1.8l-7.2-2.4q-1.7-3.9-6.85-4.35l-1.65 1.55-4.55-1.55 1.2-6.5 3.5-1.3L141.7 148" transform="translate(.85 143.3)"/><path fill-rule="evenodd" fill="#dfe0b6" d="m328.05 143.35-17.05.95-3.05-8.55 20.1 7.6m-12.6 7.55 3.55 4.65-20.8-3q-1.35-3.05-1.3-5.2l18.55 3.55m-176.95-.35L119.35 166l15.2-19.4 2.7 2.45 1.25 1.5m-25.5 1H96.2l21.55-7.9q.55 2.25.25 5.4l-5 2.5" transform="translate(.85 143.3)"/><path fill-rule="evenodd" fill="#1b1714" d="m264.5-8.45-3 19.95-3.4-1.25-23.6-16.2-5.25-6.6.35-1.15 2.55 2.4.35.35q1.55 1.35 4 2.5h28m-2.1 86.5 1.5.4q4.95 1.3 2.1 3.9-2.85 2.6-2.55 5-2 .15-2-.6 0-.8-2.75.8T256 86.5l-1.5 4.3q0 2.8-5.05 2.95 3.05 2.6 2.45 3.2-2.55 2.6-2.15 4.05.35 1.45-5.65-2.5-6.05-4-6.55-6.3l-.25-1.25.25-1.75 12.8-7.35 12.05-3.8M229.7 90.5q-26.85 4.7-50.75-.35-3.05 3.15-3.25 1.25-.3-1.3-.9-.75-1.25 1.05-2.4 3.8t-6 5q2.3-1.4.6-1.05l-3.05-.25-.15-.05-.9-.35q-2.4-1.05 8.1-9-2.05-1.25-10.75 4.95 4-8.4 2.15-8.6-2.35-.2-3.1 1.45-1.75 3.8-2.3 3.95-2.05-.35-3.55-.05-1.55.25-1.45-1.9.05-2.15 1.7-7.05 1.6-4.9 4.25-4.95l-9.6-7.2-22.8 42-4.5-13.4-11.55 25.6-10.95-3.25 8.9-34.6.2-.75.35-1.4-4.85 7.05-3.55 4.05-.1-.1-7.2 8.05-.35-1.45 13.15-25.5 26.9-10.1-6.1-7-26.55 12.8-5.3-1.35-12.5-3.25 52.05-17.8 4.2-1.9 8.6-31.95 26.1-22.9-7.4 17.15q4.6-2 9.15-4.05l.25 33.55-17.05 2.9q.35 3.15 1.2 6.15l30.15-14.5.05.05 11.9 17.1-39.1 4.85q1.7 3.25 4.15 6.25l23.45-.35L211 79.05l-18.35.4 3.75 2.1 30.5 7.95 2.8 1M6.05-25.15 9-33.5l4.5-11.95L34.85-15.8 29-11.45 37.05-3 27.1 18.65 6.05-25.15M36.7-17.2l-8.2-19.75q2.1-19.05 29-53 12.15 40.2 15.35 58.6-.85-13.2 1.65-25.1 13.7-16.2 33-24 1 10.4 1.4 20.4.4 10.7.1 21.05-.25 7.5-.85 14.8l2.15 8.95 3.85 16-.4-.6-3.9-6L90.35-36l-.3-.45-2.35 5.3-4.75-9.15q-1.45 3.65-2.45 8.35L83-20.7 78.1-9.85l.8 1.8 8.2 6 2 8.85-4.1-.75-19.5-3.7-21.95-33q-3.65 5.3-6.85 13.45m82.95-14.55 8.35 1.8 1.85 8.95 2.45 12.15-3.05 5.6-.05.05-3.7-11-.8-2.45v-.05l-5.05-15.05m42.55 1.25q-13.95-12.35-14.7-28.45l3.2-26.7q13.95-8.05 19.45-5.35L173-62.45l2.55-14.05 7.6.95-.45-.15.75-1.7.1-.15.2-.4.7-1.4.65-1.3 6.5-12.85 13.15 14.4-4.9 5.75-5.45-6.9-1.15 6.9L201.6-67l-4.05 8.65-22.7.95-10.7.45 10.7-.45-12.65 26.9M193-96.35l2-4q3.1-2.35 7-4.4l1.3 10.1-2.6 6.05-7.7-7.75m75.6 25.75 3.6-.95-1.05 8.55-6.3 1.4-6.6-2.7-.15-2.05-.3-4.5 4.2-.1V-71h6.45l-.45.55.6-.15m-58-27.95q-1.1 1.6-1.6 3.3-1.3 3.9.5 8.3l15.75 4.15.35.05-.35-.05q-.9-.3.85.05h-.5q-2.95.05-4 1.25-1.15 1.3-1.3 2l-.05.25q-.2-.3-.35.65l-.55 1.55v.25l-.4 1.3q-2 5.25-2.35 10.8-.4 5.85 2 13.15-.15-.6.15-.05l.1.4-.05.2-.05.1q-.1.2-.35.15l-.35-.05-2.15-.05-.45.05h-1.4l-.35-.1-.5-1.2q-1.05-3.25-1.2-6.7-.15-3.95.15-7.8.45-5.25 1.95-10.15l-6.55-6.5L204.7-89l1.75-10.2 4.15.65m-2.1 3.1.5.2-.5-.2m-24 20-1.8-.25 1.8.25m-74.2 60.2-.45 9.4.45-9.4m-9.8-37.7 7.65 28.75-7.65-28.75M78.9-8.05l-1.2-.9.4-.9-.4.9 1.2.9L85 6.05l-6.1-14.1m-6.05-23.3q1.1 6.5 1.65 13.1l3.6 8.4-3.6-8.4-9-20.7 9 20.7q-.55-6.6-1.65-13.1m71 81.2-17.95 8.7 17.95-8.7M94.05 70 98 65.05l35.6-16.1L98 65.05 94.05 70M114 77.1l7.05 20.85L114 77.1m51.1-67.75L155 13.8l10.1-4.45M176 79.8l16.65-.35-16.65.35m-42.4-30.85 6.3-2.15-6.3 2.15m16.65 7.85 11.4-1.4-11.4 1.4m15.55 4.85-10.05.15 10.05-.15M154.25 42.3l3.2-.55-3.2.55m4.4 5.6-7.15 3.4 7.15-3.4m-10.3 21.45-.55-.4-17.8 9.1-8.95 19.9 8.95-19.9 17.8-9.1.55.4 1.9-3.55-1.9 3.55" transform="translate(.85 143.3)"/><path fill-rule="evenodd" fill="#aaa" d="M272.2-71.55 285.55-79l.85.15.1.4q1.65 1.85 2.8 4.3l.05.1L274-68.7l-3.35 14.85-.65-.1 1.15-9.05 1.05-8.55m-52.85-5.25v-.25l.55-1.55q.15-.95.35-.65l.05-.25q.15-.7 1.3-2 1.05-1.2 4-1.25l.35.1 31.85 11.8.3 4.5-33.85-11.85-4.9 1.4" transform="translate(.85 143.3)"/><path fill-rule="evenodd" fill="#ccc" d="m218.75-50.9.05-.1.05-.2-.1-.4q-.3-.55-.15.05-2.4-7.3-2-13.15.35-5.55 2.35-10.8l.4-1.3 4.9-1.4 33.85 11.85.15 2.05.75 11.35q-1.4.85-4.3 3l-1.3.95 1-.8.3-.15-.3.15q-1.25.9-3.5 2.25-.35 1.2-1.55 3-9.95-5.85-30.5-6.35h-.1m51.9-2.95L274-68.7l15.35-5.35q1.3 2.9 2.2 5.95l.1 1.6q-.45 3.45-1.55 6.5-1.15 3-2.65 5.55L286-52.1l-1 .65-14.35-2.4" transform="translate(.85 143.3)"/><path fill-rule="evenodd" fill="#646464" d="m253.4-49-1 .75-1.05.8-.45-.1q2.25-1.35 3.5-2.25l-1 .8" transform="translate(.85 143.3)"/><path stroke-width=".05" stroke-opacity=".302" stroke-linejoin="round" stroke-linecap="round" stroke="#000" fill="none" d="m303.35 46.3-.25 1.65m-9.75 13.35 2.35 4.75q1.75 2.75 2.9 6.7m.55 4.4.05.95m55.05 60.1.1.15h-.1l-88.9-3.5-3 19.95v.05q3.9 41.55 5 56-3.8 4.65-9.45 9.15l5.35 1.35 1.5.4q4.95 1.3 2.1 3.9-2.85 2.6-2.55 5l4.1 3.1 8.3 6.25 5.15 3.85-2.2 5.35-3.1 7.4-2.65 6.2-2.5 6.05h-.05l7.85.2 6.25.1 3.6.1 9.75.2 5.7.15 13.1.25 4.5 11.4 7.75 5.35-.95.05-17.05.95 3 4.75 1.45 1.85 3.55 4.65-20.8-3-38.2-8.5-10-1.5 9.9-23.25 2.95-7 2.65-6.25-5.1-3.9-1.85-1.45-9.1-6.95q3.05 2.6 2.45 3.2-2.55 2.6-2.15 4.05.35 1.45-5.65-2.5-6.05-4-6.55-6.3l-.25-1.25q-.25-1.35-.1-1.95l-7.5 1.5q-26.85 4.7-50.75-.35-3.05 3.15-3.25 1.25-.3-1.3-.9-.75-1.25 1.05-2.4 3.8t-6 5l-.55 1.75-2.5 7.5-1.15 3.45-3.2 9.4v12.5l-5.65 4.6-2.45 1.95-2.75 2.2-2.65 2.15-3.8 3.05-2.25 1.8-.95.75-19.15 15.45-1.35 1.05v-9l-5-6.5h-17.5l7.5-6.75 1.3-6.75 1.2-6.5 3.5-1.3L121.6 269l8.3-3.15 6.45-2.5 1.65-.9 6.25-3.45 3.8-2.1 2.8-1.55.05-.05 1.85-5.8 1.2-3.7 1.75-5.35 2.15-6.65q-2.05-.35-3.55-.05-1.55.25-1.45-1.9.05-2.15 1.7-7.05 1.6-4.9 4.25-4.95l-9.6-7.2m-27.3 28.6-11.55 25.6-10.95-3.25-11.05-3.25 11.8-22.1.2-.4-7.2 8.05-10.3 11.45-16.5-8.5L94.9 213.3m39.55-21.05 4.2-1.9 8.6-31.95.2-.85q-28.05 29.65-72.6 43.8-41.6-18.1-65-48.3-4.9-6.35-9-13.2 1.1-7.25 6.05-21.7l2.95-8.35 4.5-11.95L35.7 127.5l1.85-1.4-8.2-19.75q2.1-19.05 29-53 12.15 40.2 15.35 58.6-.85-13.2 1.65-25.1 13.7-16.2 33-24 1 10.4 1.4 20.4m9.05 4.15-7.2 30.7-.45 9.95 3.85 16m1.15 1.8 2.2-1.5m2.15-32.8 8.35 1.8 1.85 8.95m21.95-.8 9.2-6.15 1.2-2.55q-13.95-12.35-14.7-28.45l3.2-26.7Q165.5 49.6 171 52.3l2.85 28.55 2.55-14.05 7.6.95-.45-.15h-.1.1l.75-1.7m32.45-32.8q4.4-.95 10.55-2.95l2.65-.8q3.55-1 6.9-2.5l19-21.85 4.5-4.15-7.5 27 1.45-.7 28.5-14 .55-.3-15 26 17.35 13.1m8.25 42h-.05m-1.55-.4h-.05m19.55 194.05-3.05-8.55-.4-1.05m6.45 14.35-5-6.5q-12-1.55-12.1 4.8-.05 2.15 1.3 5.2m9.6-18.1-.3.1.05.15m13.7 3.25-7.75-5.4-5.7 1.9m-46-205.7.2.25v.05m-36.4-11.8-.35-.05q-.9-.3.85.05m-17.1-12.5-.5-.2m-25.8 19.75 1.8.25m-52.2 66.6v.05l.05-.05m-.05 0-2.45-12.15m2.45 12.2.7 3.35m18.8-16.35-19.45 12.95m154.05-70-.85-.15m-16.95 8.4-.6.15.45-.55m-10.65.15.3 4.5.15 2.05m12.9 1.3 1.05-8.55m-18.8 22.55-1 .75-1.05.8-.15.1m2.2-1.65 1.3-.95-.3.15m15.6-4.15.65.1m15.35 1.75h.05m-27.05-.85L259.1 79m11.75 10.35L272 80.3m14.85 10.9-1 .65m-59.4-31.3.35.1m-182.4 52q-3.65 5.3-6.85 13.45m-1.85 1.4-5.85 4.35 8.05 8.45 19.15 20.05 13.5 14.1m40.15-37 .45-9.4-2.15-8.95-7.65-28.75M83.8 103q-1.45 3.65-2.45 8.35l2.5 11.25m6.1 27.5.05.25 3.85 17.4L86 149.6l-.15-.25m-6.1-14.1 6.1 14.1m4.1.75-2-8.85m-9-7.8-3.6-8.4-9-20.7m9 20.7q-.55-6.6-1.65-13.1m36.15-7.65q.3-10.35-.1-21.05m24.7 109-35.6 16.1-3.95 4.95m13.4 15.7.2-.75m-4.5 5.65 4.3-4.9m-8.15 9.25.3-.3 3.55-4.05m-.15 54.2 5.85-5.2 1.65-1.55q5.15.45 6.85 4.35l.4 1.25q.55 2.25.25 5.4v9m6.55-13.25q5.25-1.85 10 1.8l2.7 2.45 1.25 1.5m-20.5-1.5-5 2.5m5-2.5q3.35-3.15 6.55-4.25m138.9-57.45q-2 .15-2-.6 0-.8-2.75.8t-2.7-1.05l-1.5 4.3q0 2.8-5.05 2.95m-128.4 4.2 8.95-19.9 17.8-9.1.55.4m15.45 28.75-.9-.35q-2.4-1.05 8.1-9-2.05-1.25-10.75 4.95 4-8.4 2.15-8.6-2.35-.2-3.1 1.45-1.75 3.8-2.3 3.95m9.4 8.95q2.3-1.4.6-1.05l-3.05-.25"/><path stroke-opacity=".302" stroke-linejoin="round" stroke-linecap="round" stroke="#000" fill="none" d="m302.25-95.35-.95 6.45-.8 5.45-8 1.45m6.05 34.45Q312.8-42.2 335-26.95q9.05 8.6 14.4 15.75l4 6.1m-68.55-86.25 4.65-4.6 13.5-4.5-.5 3.45m-33.9 26.4 3.6-.95L285.55-79l6.95-3m-62.75 64.6L330-11.95l23.4 6.85M210.6-98.55l1.25-1.55.3-.35.9-.9 2.45-2.1 36 17 10.3 15.2m6.65.25 16.4-20.35M209-95.25q.5-1.7 1.6-3.3m14.65 15.75-15.75-4.15q-1.8-4.4-.5-8.3l16.5 6.3m36.5 18-4.2.1m-31.85-11.8 31.85 11.8m-45.95-29.25L231-88.95m70.3.05-11.8 3.95m12.75-10.4-11.75 4.9" transform="translate(.85 143.3)"/><path stroke-linejoin="round" stroke-linecap="round" stroke="#212121" fill="none" d="M291.45-49.75 287-50.9m11.55 3.35-5.45-1.8m-50.35 13.3 6.6-8.5m36.8-6.6-1.15-.3m-26-1.5 11-1M232.15-11.3l.35.35q1.55 1.35 4 2.5h28m-34.75-8.95q-.3 3.45 2.4 6.1m10.6-24.75-12.25 15.6q-.65 1.6-.75 3.05" transform="translate(.85 143.3)"/><path stroke-width=".05" stroke-linejoin="round" stroke-linecap="round" stroke="#1b1714" fill="none" d="m115 144.05 1.15 1.8m77.7-98.9 7.7 7.75 2.6-6.05-1.3-10.1M175.7 85.9l22.7-.95 4.05-8.65-8.35-6.35 1.15-6.9 5.45 6.9 4.9-5.75-13.15-14.4M165 86.35l10.7-.45m-87.15 26.25 2.35-5.3.3.45m-7.35 15.3 4.7-10.45m-4.7 10.45-4.9 10.85-.4.9 1.2.9 8.2 6 15.7 11.45m12.85-6.35-.35-.5m-1.55-2.4.4.6m3.9 19.75 1.15.85 7.7-.9-.35-.55m47.95 18.95v.7m-9.4-30.2q4.6-2 9.15-4.05l.25 33.55-17.05 2.9-3.2.55m4.4 5.6 30.15-14.5.05.05 11.9 17.1-39.1 4.85-11.4 1.4m15.55 4.85 23.45-.35 21.75 17.75-18.35.4-16.65.35m-21-66 10.1-4.45m-13.6 41.95 7.15-3.4m-2.9 13.9 10.05-.15"/><path stroke-linejoin="round" stroke-linecap="round" stroke="#aaa" fill="none" d="M254.4-49.8q-1.25.9-3.5 2.25-.35 1.2-1.55 3m9.65-8.4q-1.4.85-4.3 3m30.3-1.5-14.35-2.4" transform="translate(.85 143.3)"/><path stroke-width="2" stroke-linejoin="round" stroke-linecap="round" stroke="#655c50" fill="none" d="M250.2 98.75q-9.95-5.85-30.5-6.35h-.1"/><path stroke-width="1.75" stroke-linejoin="round" stroke-linecap="round" stroke="#424242" fill="none" d="m55.5 143.95-.3-.05m36-36.6 19.5 30.15 3.9 6 1.9 2.9m-26.5 4 31.7 5.85m-66.2-12.25L86 149.6l4 .75m35.55-23.7.8 2.45 7.3 24.05m-6.25 10.05-10.9-16.85"/><path stroke-width=".75" stroke-linejoin="round" stroke-linecap="round" stroke="#1b1714" fill="none" d="m149.2 212.65-22.8 42-4.5-13.4-7.05-20.85m-19.95-7.1-12.5-3.25 52.05-17.8M94.9 213.3l5.3 1.35 26.55-12.8 17.95-8.7m-3.95-3.05-6.3 2.15m14.75 20.4 1.9-3.55"/><path stroke-width=".75" stroke-linejoin="round" stroke-linecap="round" stroke="#212121" fill="none" d="m293.9 93.95-1.55-.4"/><path stroke-width="1.75" stroke-linejoin="round" stroke-linecap="round" stroke="#000" fill="none" d="m293.35 61.3 2.35 4.75q1.75 2.75 2.9 6.7 1.05 2.55.55 4.4l.05.95q.45-.6-.15 3.65l.35 14q14.25 5.35 36.45 20.6 9.05 8.6 14.4 15.75l.05.1q2.35 3.15 3.95 6v.15l-88.9-3.5-3 19.95v.05q3.9 41.55 5 56-3.8 4.65-9.45 9.15l5.35 1.35 1.5.4q4.95 1.3 2.1 3.9-2.85 2.6-2.55 5l17.55 13.2-10.45 25h-.05l46.25 1 4.5 11.4 7.75 5.35-18 1 3 4.75 5 6.5-20.8-3-38.2-8.5-10-1.5 15.5-36.5-16.05-12.3q3.05 2.6 2.45 3.2-2.55 2.6-2.15 4.05.35 1.45-5.65-2.5-6.05-4-6.55-6.3l-.25-1.25q-.25-1.35-.1-1.95l-7.5 1.5q-26.85 4.7-50.75-.35-2.1 2.15-2.85 1.95-.35-.1-.4-.7-.3-1.3-.9-.75-1.25 1.05-2.35 3.7l-.05.1q-1.15 2.75-6 5l-7.4 22.1v12.5l-41 33v-9l-5-6.5h-17.5l7.5-6.75 2.5-13.25 30-11.5 14.5-8 .05-.05 6.95-21.5q-2.05-.35-3.55-.05-1.55.25-1.45-1.9.05-1.55.9-4.45l.8-2.6.1-.4q1.6-4.5 4.15-4.55l-9.6-7.2-22.8 42-4.5-13.4-11.55 25.6-22-6.5 11.8-22.1.3-.3-.1-.1-17.5 19.5-16.5-8.5L94.9 213.3l-12.5-3.25 52.05-17.8 4.2-1.9 8.8-32.8Q130.4 175.6 107.3 187.9q-14.95 7.9-32.45 13.45-5.7-2.45-11-5.15-33.8-17.05-54-43.15-4.9-6.35-9-13.2 1.1-7.25 6.05-21.7l2.95-8.35 4.5-11.95L35.7 127.5l1.85-1.4-8.2-19.75q2.1-19.05 29-53 12.15 40.2 15.35 58.6-.85-13.2 1.65-25.1 13.7-16.2 33-24 1 10.4 1.4 20.4l9.05 4.15-7.2 30.7-.45 9.95 3.85 16 1.15 1.8 2.2-1.5-.25-7.4-6.1-10.35h5.8l-.45-15.75 11.5 2.5 1.85 8.95 2.6-3.4 2.6 7.55.3-10.15 6.95-.85 3.75 8.4-.25-5.8 3.75.6 2.25 2.85 9.2-6.15 1.2-2.55q-13.95-12.35-14.7-28.45l3.2-26.7Q165.5 49.6 171 52.3l2.85 28.55 2.55-14.05 7.6.95-.45-.15.75-1.7.1-.15.2-.4.7-1.4.65-1.3 9.9-19.7q3.1-2.35 7-4.4 6-3.1 13.9-5.45 4.4-.95 10.55-2.95l2.65-.8q3.55-1 6.9-2.5l19-21.85 4.5-4.15-7.5 27 30.5-15-15 26 17.35 13.1 4.65-4.6 13.5-4.5-2.5 17-8 1.45z"/></g><path fill-rule="evenodd" fill-opacity="0" fill="#f0f" d="M100 40H0V0h100v40" id="a"/><use xlink:href="#a" width="100" height="40" id="c"/></defs><path fill="none" d="M-1-1h141v124H-1z"/><use x="60.05" y="148.805" xlink:href="#b" width="381" transform="translate(-192.55 -294)" height="381"/><use x="36.26" y="89.852" xlink:href="#c" width="100" transform="translate(-80.2 -152.95) scale(1.6561)" height="40"/><use x="-155.169" y="384.508" xlink:href="#d" width="355.1" transform="matrix(-.387 0 0 .387 77.979 -148.252)" height="311.2"/></svg>