<svg width="187" height="167" xmlns="http://www.w3.org/2000/svg" xmlns:xlink="http://www.w3.org/1999/xlink"><defs><g id="b" stroke-opacity="0" stroke-linejoin="round" stroke-linecap="round" stroke="#f0f" fill="none"><path d="M187.95-293.5v380h-380v-380h380M92.95.6H-97" transform="translate(192.55 294)"/><path d="m187.95-293.5-190 190 190 190m-380-380 190 190L-192 86.5" transform="translate(192.55 294)"/></g><g id="c"><path fill-rule="evenodd" fill="#507bb0" d="M47.85-17.05q1.35-4.4-4.25-2.6-43.3.3-100 24.35-4.55-6.8-3.75-20.4Q-3.25-31 53.75-23q-3.05 2.35-5.9 5.95" transform="translate(60.7 29.4)"/><path fill-rule="evenodd" fill="#8f9ec0" d="M53.75-23q-57-8-113.9 7.3-1.6.3 1.4-6.25 57.7-9.6 116.35-6.8 1.85.95 3.8 1.8l-2.45.85q-2.7 1.15-5.2 3.1" transform="translate(60.7 29.4)"/><path fill-rule="evenodd" fill="#313746" d="M44.5-12.15h.05v.1l-.05-.1" transform="translate(60.7 29.4)"/><path fill-rule="evenodd" fill="#42424e" d="M-22.75 9.8 44.5-12.15l.05.1q-1.6 3-2.35 6.05l-.4 1.9q-.55 3.4.15 5.8l.05.1q.65 2.1 2.3 3.4 1.95 1.5 4.65 1.45l1.05-.1 3.95-1.15 3.4-1.85 1 3q-9.1 13.55-18.7 22.35-7.15 1.45-12.15-.9-4.9-2.35-7.65-8.4l-11.3 8.2q-13.3-1.45-22-7.85-5.6-4.05-9.3-10.15" transform="translate(60.7 29.4)"/><path fill-rule="evenodd" fill="#476b8d" d="M-56.4 4.7Q.3-19.35 43.6-19.65q5.6-1.8 4.25 2.6-1.9 2.4-3.2 4.85l-.1.15v-.1h-.05L-22.75 9.8l-.6-1q-9.65 4.75-18.8 10.05Q-51.6 11.9-56.4 4.7" transform="translate(60.7 29.4)"/><path stroke-width=".05" stroke-linejoin="round" stroke-linecap="round" stroke="#836c4e" fill="none" d="m119.05 35.95-1-3-3.4 1.85-3.95 1.15-1.05.1"/><path stroke-width=".05" stroke-linejoin="round" stroke-linecap="round" stroke="#405c77" fill="none" d="M88.2 57.4q5 2.35 12.15.9 9.6-8.8 18.7-22.35L88.2 57.4z"/></g><g id="d"><path fill-rule="evenodd" fill="#9d5106" d="m26.4-55.35-5.1-4.1-2.15-3.3v-.05L18-64.55l8.7 7.35 7.1 1.8-.75 1.4-6.65-1.35m-7.3-7.4-9.1.2-2.5 4.45-11.2-2.15-3.75-4.65 13.5.55.95 1.9 3-.1-3 .1-.95-1.9-1.35-2.8 4.9 2.25 9.5 2.1v.05m3.95 12q1.7.95 3.45 1.95l12.95 4.75-12.55.15-3.85-6.85" transform="translate(92.4 82.05)"/><path fill-rule="evenodd" fill="#ffac24" d="m-6.25-74.5 6.1-3.45 8.35 4.8 6.1-.75 6.35 3.65 6.25-.3 8.2 12.9 2.1-3.6 5.85 6.15.4 2.45 1.5 8.55-5.45-2.7-4.8-4.25-7.8-2.05-7.15-3.6 6.65 1.35L33.05-54l.75-1.4 1.3-2.25-6.45-2.3-14.2-9.95 6.2-.35-6.2.35 1.9 2.9-6.5-1.45L2.1-72.4l1.25 2.5-4.15-2.35-10.65.7 5.2-2.95m25.4 11.75h-.05l.05-.05v.05M2.1-72.4l6.1-.75-6.1.75m39.8 83.35 5.5 1.1-5.6 5.45-21.1-.65 16.9 4.7-3.2 3.1-12.05 1.15-.3-1.8 4.25-1.45h-4.55l-1.55-8.2 9.85-3.5h-10.5L19 7.9q10.65 3.2 22.9 3.05M22.35 25.8l7.8 3-6.1 5.95-1.7-8.95" transform="translate(92.4 82.05)"/><path fill-rule="evenodd" fill="#d87907" d="m21-54.5-1.25-2.2 7.15 3.6 12.6 6.3 5.45 2.7-5.5.05L26.5-48.8q-1.75-1-3.45-1.95L21-54.5m-4.2-11.8 1.2 1.75-1.2-1.75-.45-.7-1.9-2.9L28.9-57.55l6.2-.1-1.3 2.25-7.1-1.8-8.7-7.35 1.15 1.75-.05.05v-.05l-9.5-2.1-4.9-2.25 1.35 2.8-13.5-.55-4.9-6.15 15.7 1.15 7.85 3.55 5.6.05m-12.1-.85L3.35-69.9l1.35 2.75" transform="translate(92.4 82.05)"/><path fill-rule="evenodd" fill="#fee181" d="m16.8-66.3-5.6-.05-7.85-3.55-1.25-2.5 7.75 3.95 6.5 1.45.45.7m18.3 8.65-6.2.1L14.45-69.9l14.2 9.95 6.45 2.3M3.35-69.9l-15.7-1.15.9-.5 10.65-.7 4.15 2.35M26.9-53.1l7.8 2.05 4.8 4.25-12.6-6.3" transform="translate(92.4 82.05)"/><path fill-rule="evenodd" fill="#dcc58e" d="M43.45-52.65q12.4 2.4 25.4 7.25l5 2.05q-4.35 16.65-27.7 19.7-23.35 3-27.05 4.2-3.7 1.25-19.35-2.9-15.6-4.25 3.9-26.5 8-4.7 17.35-5.65l2.05 3.75 3.85 6.85 12.55-.15 5.5-.05-1.5-8.55M.8 54.55q.95-2.7 2.55-5.4 2.75-4.8 6.25-7.9l-1.1-2.6-1-3-.75-3.5q-.5-2.95-.45-6.05-.05-1.3.05-2.5.5-8.2 4.4-14.9l-2.7 2.8-1.15 1.3q-3.8 4.3-7.05 8.9l-2.65 3.95-1.1-1.7q-1-1.8-1.4-3.9 1.35-2.5 3.3-5l.15-.15q2.7-3.45 5.75-5.8Q6.4 7.15 9.1 6l2.45-.85 1.15.5-1.95 3.05 1.95-3.05.9.4 1.05 4.8 1.1 5.15 1.4 6.55.65 2.9 3.4 15.9 4.75-3.85v5.05l7.95-9.2q-1.35 6-1.65 12.2l-.05 2.7-2.8 1.35-3.45 1.15-2.9.6-6.25-.2-.05-.05-.65-.65q-2.9-3-4.95-6.35-4.6 5.15-8 11.25l-1.05 2q-.8-1.3-1.3-2.8M51.15 14.7l1.2.5.1.05q4.5 2.05 6.6 7.15l1.05 3.3q.8 3.35 1.2 6.75l.45 4.85H58.9q-1.9-1.95-3.55-4.45-4.4-6.45-4.8-12.8-.25-3.15.6-5.35M9.6 41.25l1.55 2.85-1.55-2.85" transform="translate(92.4 82.05)"/><path fill-rule="evenodd" fill="#75754f" d="m-3.7-60.25-6.15 12.1-.05.1v-.1h.05L-6.9-61.9l-2.35 1.25-12.2 6.9 10.1-11.15-2.8-1.6-6.25.15-22.6.7 27.1-6.7 3.8-4.25 5.85 2.1-5.2 2.95-.9.5 4.9 6.15 3.75 4.65" transform="translate(92.4 82.05)"/><path fill-rule="evenodd" fill="#c8c78c" d="m-9.9-48.15.3-6.2.35-6.3 2.35-1.25-2.95 13.75h-.05m-2.2-28.45-3.8 4.25-27.1 6.7 28.2-10-9.1-5.2 11.8 4.25m-2.05 10.1 2.8 1.6-10.1 11.15 7.3-12.75" transform="translate(92.4 82.05)"/><path fill-rule="evenodd" fill="#44442f" d="m-9.6-54.35-13.5 12.4-.35-16.6-14.95 9.65-.1-.05 18.1-17.4 6.25-.15-7.3 12.75 12.2-6.9-.35 6.3" transform="translate(92.4 82.05)"/><path fill-rule="evenodd" fill="#b9a258" d="M73.85-43.35q2.8 1.3 5.15 2.75-5.05 25.65-29.05 36.3L47.2-3.15q-3.4 1.35-7.1 2.4L34.5.65Q25.25 1.7 16.75 1 7.15.25-1.45-2.75q-9.65-7.8-11.35-18.2l.05-.2q-2.1-14.1 11.7-24.65l4.7-3.05q-19.5 22.25-3.9 26.5 15.65 4.15 19.35 2.9 3.7-1.2 27.05-4.2 23.35-3.05 27.7-19.7M49.7 71.3q-1.2-2.6-2-5.65-.8-2.95-1.05-5.7-.45-4.65.55-8.65.25-1.15.65-2.1-1.85 1.5-4.25 2.9-7.7 4.4-17.85 5.4L24 56.6l-2.7-1.7-4.5-3.75 6.25.2 2.9-.6 3.45-1.15 2.8-1.35.05-2.7q.3-6.2 1.65-12.2l13.55-15.8-.1-.05.8-.85-2 13.15q-1.3 8.25 1.75 16.05l.7 1.7q1.5-2.75 4.05-3.65 3.7 4.95 5.35 11.25l.4 1.7q1.6 7.6 1.55 15.25-5.5 1.5-10.25-.8M-2.8 25.65l2.65-3.95q3.25-4.6 7.05-8.9l1.15-1.3 2.7-2.8q-3.9 6.7-4.4 14.9Q3.4 26.3.2 28.7l-1.25-1.1-1.75-1.95m56.2-14.1q4.45 2.85 7.7 7.3l1.6 2.45q3.8 6.35 6 13.3l-3.15 1.75q-1.9.75-3.8.95l-.45-4.85q-.4-3.4-1.2-6.75l-1.05-3.3q-2.1-5.1-6.6-7.15l-.1-.05-1.2-.5q.4-1.1 1.05-1.95l1.2-1.2m-4.8 36q-.45.75-.75 1.65.3-.9.75-1.65M16.75 51.1q-4.1 6.15-9.3 11.25-3.45-2-5.35-5l1.05-2q3.4-6.1 8-11.25 2.05 3.35 4.95 6.35l.65.65" transform="translate(92.4 82.05)"/><path fill-rule="evenodd" fill="#957e41" d="M79-40.6q10.1 6 11.8 14.3 2.4 11.8-5 20.35Q83.35-3.1 79.85-.4q-7.2 5.45-16.55 8.3-4.45 1.35-9.4 2.15l-9.5.85-2.5.05Q29.65 11.1 19 7.9l-5.4-1.85-.9-.4-1.15-.5-3.8-1.8-1.8-.95q-4.2-2.45-7.4-5.15 8.6 3 18.2 3.75 8.5.7 17.75-.35l5.6-1.4q3.7-1.05 7.1-2.4l2.75-1.15q24-10.65 29.05-36.3M67.55 42.95q-.45 3.25-3.45 6.8l-2.05-2.45-2.6-2.2.55 1.05 2.45 5.3q1.8 4.4 3 9.05v.05q.95 4.05 1.55 8.2L65 70q-2.6 1.45-5.05 2.1.05-7.65-1.55-15.25l-.4-1.7q-1.65-6.3-5.35-11.25l.5-.15q3.05-.85 6.3 1.35-3.25-2.2-6.3-1.35l-.5.15q-2.55.9-4.05 3.65l-.7-1.7q-3.05-7.8-1.75-16.05l2-13.15 1.1-1.2 2.95-3.35v.65q-.65.85-1.05 1.95-.85 2.2-.6 5.35.4 6.35 4.8 12.8 1.65 2.5 3.55 4.45l2.9 2.6q1.75 1.25 3.6 2.15 1.1.55 2.15.9m-20.9 17-6.8.65-4.85-.35q-4.9-.65-9.25-2.75 10.15-1 17.85-5.4 2.4-1.4 4.25-2.9-.4.95-.65 2.1-1 4-.55 8.65M71.8-.55l-6.1.15Q62.2.75 59.95.85 62.2.75 65.7-.4l6.1-.15M.2 28.7q3.2-2.4 6.15-5.1-.1 1.2-.05 2.5-.05 3.1.45 6.05l-1.6-.6-.15-.1Q2.2 30.25.2 28.7m60-18.4.8.75L63.9 14q3.6 3.85 6.5 8.25v.05q2.15 3.35 3.9 6.9l-1.45 1.75q-2.05 2.2-4.15 3.65-2.2-6.95-6-13.3l-1.6-2.45q-3.25-4.45-7.7-7.3l.45-.35q2.65-1.8 6.35-.9m-1.5-6.7L59.95.85 58.7 3.6M59.95.85l-5.3.6H49.9h4.75l5.3-.6-1.45-2.5 1.45 2.5m-10.05.6-3.25.05-3.2.35 3.2-.35 3.25-.05-.3-1.75.3 1.75.4 2-.4-2m-6.45.4-.85.35q-3.4 1.05-6.35 1.2 2.95-.15 6.35-1.2l.85-.35-.5-1.45.5 1.45-1 4 1-4M16.8 51.15l4.5 3.75-1.75 3.15h-.05l-4.7 6.9-2.25-.55q-2.9-.8-5.1-2.05 5.2-5.1 9.3-11.25l.05.05M35.8.8l.45 2.6-2.2 2.7 2.2-2.7L35.8.8m.45 2.6q-5.05.25-8.8-2-.45-.25-2.85.85 2.4-1.1 2.85-.85 3.75 2.25 8.8 2" transform="translate(92.4 82.05)"/><path fill-rule="evenodd" fill="#781818" d="M41.8 17.5h5.55l-5.5 5.65-4.25-1.6 4.2-4.05m-.9 6.6-6.2 5.85-.25.25-4.3-1.4 4.25-4.15 6.5-.55m-19.15-1.55.3 1.45-4.25 1.45-.65-2.9h4.6m-7.1-11.7h4.9l.65 3.5L15.75 16l-1.1-5.15" transform="translate(92.4 82.05)"/><path fill-rule="evenodd" fill="#c06a01" d="m41.8 17.5-4.2 4.05-16.9-4.7 21.1.65m-20.05 5.05h4.55L22.05 24l-.3-1.45m.6 3.25 12.05-1.15-4.25 4.15-7.8-3m-2.8-14.95h10.5l-9.85 3.5-.65-3.5" transform="translate(92.4 82.05)"/><path fill-rule="evenodd" fill="#d83838" d="m53.9 10.05-1.7 2.05-2.95 3.35-1.1 1.2-.8.85H41.8l5.6-5.45-5.5-1.1 2.5-.05 9.5-.85m-16.3 11.5 4.25 1.6-.95.95-6.5.55 3.2-3.1m-3.15 8.65-.25.2-8.25 7.1-4.75 3.85-3.4-15.9L22.05 24l.3 1.8 1.7 8.95 6.1-5.95 4.3 1.4m-12.7-7.65h-4.6L15.75 16l4.45-1.65 1.55 8.2M19 7.9l.55 2.95h-4.9l-1.05-4.8L19 7.9" transform="translate(92.4 82.05)"/><path fill-rule="evenodd" fill="#24356c" d="m63.3 7.9 2.85 2.15-1.3 2.25q-.8-.5-1.6-.85-1.6-.8-3.05-1.15-3.7-.9-6.35.9l-.45.35-1.2 1.2v-.65l1.7-2.05q4.95-.8 9.4-2.15" transform="translate(92.4 82.05)"/><path fill-rule="evenodd" fill-opacity=".553" fill="#3c0d0d" d="m41.85 23.15 5.5-5.65.1.05-13.55 15.8-7.95 9.2V37.5l8.25-7.1.25-.2.25-.25 6.2-5.85.95-.95" transform="translate(92.4 82.05)"/><path fill-rule="evenodd" fill="#64532d" d="M64.85 12.3q4.75 2.85 8.5 8.4 1.8 2.6 2.9 5.2l-1.95 3.3q-1.75-3.55-3.9-6.9v-.05q-2.9-4.4-6.5-8.25L61 11.05l-.8-.75q1.45.35 3.05 1.15.8.35 1.6.85m-.75 37.45q3.05 4.2 4.65 10.25.85 3.25 1.15 6.2L67 68.75q-.6-4.15-1.55-8.2v-.05q-1.2-4.65-3-9.05L60 46.15l-.55-1.05 2.6 2.2 2.05 2.45M24 56.6l-1.75 3.45-3.6 5.15-3.85-.25 4.7-6.9h.05l1.75-3.15 2.7 1.7" transform="translate(92.4 82.05)"/><path fill-rule="evenodd" fill="#3f331b" d="M76.25 25.9q1.65 3.8 1.9 7.55.15 2.2-.2 3.95-.65 3.3-3.1 4.95-1.8 1.2-4 1.2l-3.3-.6q-1.05-.35-2.15-.9-1.85-.9-3.6-2.15l-2.9-2.6h2.85q1.9-.2 3.8-.95l3.15-1.75q2.1-1.45 4.15-3.65l1.45-1.75 1.95-3.3M69.9 66.2q.35 4.3-.6 8.1l-1.4 3.75-.05.1q-1.65 3-4.5 3.75l-4.2-.25q-2.35-.85-4.75-3.35l-.25-.25Q51.5 75.2 49.7 71.3q4.75 2.3 10.25.8Q62.4 71.45 65 70l2-1.25 2.9-2.55m-51.25-1q-2.85 3.3-6.15 5.3-2 1.2-3.75 1.7-3.3.95-5.85-.5-1.85-1.1-2.8-3.15-.7-1.6-.9-3.75l-.05-1.95q.05-4.1 1.65-8.3.5 1.5 1.3 2.8 1.9 3 5.35 5 2.2 1.25 5.1 2.05l2.25.55 3.85.25M7.5 35.65q-1.65 1.1-3.4 1.85-2.15.9-3.95 1.15l-1.05.1q-2.7.05-4.65-1.45-1.65-1.3-2.3-3.4l-.05-.1q-.7-2.4-.15-5.8l.4-1.9q.75-3.05 2.35-6.05.4 2.1 1.4 3.9l1.1 1.7 1.75 1.95L.2 28.7q2 1.55 4.8 2.75l.15.1 1.6.6.75 3.5" transform="translate(92.4 82.05)"/><path stroke-width=".05" stroke-linejoin="round" stroke-linecap="round" stroke="#846439" fill="none" d="m86.15 7.55 6.1-3.45 8.35 4.8 6.1-.75 6.35 3.65 6.25-.3 8.2 12.9 2.1-3.6 5.85 6.15.4 2.45m21.4 64.95q4.75 2.85 8.5 8.4 1.8 2.6 2.9 5.2 1.65 3.8 1.9 7.55.15 2.2-.2 3.95-.65 3.3-3.1 4.95-1.8 1.2-4 1.2l-3.3-.6q-.45 3.25-3.45 6.8 3.05 4.2 4.65 10.25.85 3.25 1.15 6.2.35 4.3-.6 8.1l-1.4 3.75-.05.1q-1.65 3-4.5 3.75l-4.2-.25q-2.35-.85-4.75-3.35l-.25-.25q-2.65-2.85-4.45-6.75-1.2-2.6-2-5.65-.8-2.95-1.05-5.7l-6.8.65-4.85-.35q-4.9-.65-9.25-2.75l-1.75-.9-1.75 3.45-3.6 5.15q-2.85 3.3-6.15 5.3-2 1.2-3.75 1.7-3.3.95-5.85-.5-1.85-1.1-2.8-3.15-.7-1.6-.9-3.75l-.05-1.95q.05-4.1 1.65-8.3.95-2.7 2.55-5.4 2.75-4.8 6.25-7.9l-1.1-2.6m-9.4.1q-2.7.05-4.65-1.45-1.65-1.3-2.3-3.4l-.05-.1q-.7-2.4-.15-5.8l.4-1.9q.75-3.05 2.35-6.05 1.35-2.5 3.3-5l.15-.15q2.7-3.45 5.75-5.8 2.5-1.95 5.2-3.1l2.45-.85m9.45-59.65-1.25-2.2 6.65 1.35-5.1-4.1-2.15-3.3h-.05l-9.1.2-2.5 4.45-11.2-2.15-6.15 12.1-.05.1v-.1l.3-6.2-13.5 12.4-.35-16.6L54 33.15m-.1-.05L72 15.7l-22.6.7-2.2.8m63.2.3-1.2-1.75m-13.45-3.6 1.35 2.75m14.45 4.35-1.15-1.75m15.8 9.15 1.3-2.25m-20.65-12.25 1.9 2.9.45.7m2.35 3.5v.05m-13.1-1.6.95 1.9 3-.1m-1.8-10.6-6.1.75 1.25 2.5m2.7 5.55-1.35-2.8M80.05 11l4.9 6.15m30.5 14.15-2.05-3.75m5.4-.85 6.65 1.35.75-1.4m11.15 11.3-1.5-8.55m-22.8-17.6-6.2.35m25 25.85 5.5-.05m-5.5.05-12.55.15-3.85-6.85M86.15 7.55l-5.85-2.1L68.5 1.2 65.25 0M49.4 16.4l28.2-10-9.1-5.2m20.2 20.6-3.75-4.65m-4-6.65-.9.5m.9-.5 5.2-2.95M70.95 28.3l12.2-6.9-.35 6.3M72 15.7l6.25-.15-7.3 12.75m16.15 73.8q.4 2.1 1.4 3.9l1.1 1.7 1.75 1.95 1.25 1.1q2 1.55 4.8 2.75l.15.1 1.6.6q-.5-2.95-.45-6.05-.05-1.3.05-2.5.5-8.2 4.4-14.9l1.95-3.05m61.6 23.55 1.95-3.3M145.8 93.6l-1.2 1.2q-.65.85-1.05 1.95m10.6 22.6q1.9-.2 3.8-.95l3.15-1.75q2.1-1.45 4.15-3.65l1.45-1.75m-14.1-18.9q1.45.35 3.05 1.15.8.35 1.6.85m-12.65-.2v.65m1.2-1.2.45-.35q2.65-1.8 6.35-.9m-43.4 40.85 4.5 3.75 2.7 1.7m34.9-19.3q-1.9-1.95-3.55-4.45-4.4-6.45-4.8-12.8-.25-3.15.6-5.35m15.85 54.05 2.9-2.55m-22.05-17q.3-.9.75-1.65 1.5-2.75 4.05-3.65l.5-.15q3.05-.85 6.3 1.35l2.6 2.2 2.05 2.45m-4.15 22.35q2.45-.65 5.05-2.1l2-1.25m.55-25.8q-1.05-.35-2.15-.9-1.85-.9-3.6-2.15l-2.9-2.6h2.85m-55-5.15.75 3.5m3.65 8.45L102 123.3m7.2 9.9-.05-.05-.65-.65q-2.9-3-4.95-6.35m-3.7 18.25q2.2 1.25 5.1 2.05l2.25.55 3.85.25M94.5 139.4q1.9 3 5.35 5m-6.65-7.8q.5 1.5 1.3 2.8m44.55 2.6q-.45-4.65.55-8.65.25-1.15.65-2.1m1.85 22.1q4.75 2.3 10.25.8"/><path stroke-width=".05" stroke-opacity=".702" stroke-linejoin="round" stroke-linecap="round" stroke="#633e15" fill="none" d="M135.85 29.4q12.4 2.4 25.4 7.25l5 2.05q2.8 1.3 5.15 2.75 10.1 6 11.8 14.3 2.4 11.8-5 20.35-2.45 2.85-5.95 5.55-7.2 5.45-16.55 8.3-4.45 1.35-9.4 2.15l-9.5.85-2.5.05q-12.25.15-22.9-3.05L106 88.1l-.9-.4-1.15-.5-3.8-1.8-1.8-.95q-4.2-2.45-7.4-5.15-9.65-7.8-11.35-18.2l.05-.2q-2.1-14.1 11.7-24.65l4.7-3.05q8-4.7 17.35-5.65"/><path stroke-width=".05" stroke-linejoin="round" stroke-linecap="round" stroke="#7d1a1a" fill="none" d="m139.75 99.55.8-.85 1.1-1.2m-7.4 7.7 5.5-5.65m-5.5 5.65-.95.95-6.2 5.85-.25.25-.25.2-8.25 7.1m-8.8-14.95.65 2.9 3.4 15.9 4.75-3.85M106 88.1l1.05 4.8m2.5 11.7-1.4-6.55-1.1-5.15"/><path stroke-linejoin="round" stroke-linecap="round" stroke="#424200" fill="none" d="M59.95.85 58.7 3.6M59.95.85l-1.45-2.5m-8.6 3.1L49.6-.3m.3 1.75.4 2m-6.85-1.6L42.95.4m.5 1.45-1 4m-6.2-2.45-2.2 2.7m2.2-2.7L35.8.8" transform="translate(92.4 82.05)"/><path stroke-width=".05" stroke-linejoin="round" stroke-linecap="round" stroke="#684b24" fill="none" d="M152.35 82.9q2.25-.1 5.75-1.25l6.1-.15m-21.9 2h4.75l5.3-.6m-16.5 1 3.2-.35 3.25-.05m-13.65 1.95q2.95-.15 6.35-1.2l.85-.35m-18.85.4q2.4-1.1 2.85-.85 3.75 2.25 8.8 2"/><path stroke-linejoin="round" stroke-linecap="round" stroke="#2b1e11" fill="none" d="M34.95-7.1 19.3-19.55m63.8-7.35-9.2 14.85" transform="translate(92.4 82.05)"/><path stroke-width=".05" stroke-linejoin="round" stroke-linecap="round" stroke="#633e15" fill="none" d="m96.05 46.7-1.3 1.65q-3.6 4.7-5.6 9m28.45-24.4q-11.05 3.2-17.4 9.75m-13 21.25q-1.45 8.55 4.5 15.5"/><path stroke-width=".05" stroke-linejoin="round" stroke-linecap="round" stroke="#633e15" fill="none" d="m90.55 43.25 5.5 3.45 6.85 4.15m-20.1 10.3 4.4 2.8 6.1 4"/><path stroke-width="2" stroke-linejoin="round" stroke-linecap="round" stroke="#453021" fill="none" d="m135.45 26.95.4 2.45q12.4 2.4 25.4 7.25l5 2.05q2.8 1.3 5.15 2.75 10.1 6 11.8 14.3 2.4 11.8-5 20.35-2.45 2.85-5.95 5.55-7.2 5.45-16.55 8.3l2.85 2.15-1.3 2.25q4.75 2.85 8.5 8.4 1.8 2.6 2.9 5.2 1.65 3.8 1.9 7.55.15 2.2-.2 3.95-.65 3.3-3.1 4.95-1.8 1.2-4 1.2l-3.3-.6q-.45 3.25-3.45 6.8 3.05 4.2 4.65 10.25.85 3.25 1.15 6.2.35 4.3-.6 8.1l-1.4 3.75-.05.1q-1.65 3-4.5 3.75l-4.2-.25q-2.35-.85-4.75-3.35l-.25-.25q-2.65-2.85-4.45-6.75-1.2-2.6-2-5.65-.8-2.95-1.05-5.7l-6.8.65-4.85-.35q-4.9-.65-9.25-2.75l-1.75-.9-1.75 3.45-3.6 5.15q-2.85 3.3-6.15 5.3-2 1.2-3.75 1.7-3.3.95-5.85-.5-1.85-1.1-2.8-3.15-.7-1.6-.9-3.75l-.05-1.95q.05-3.35 1.15-6.85-1.9-.35-3.5-1.1-4.9-2.35-7.65-8.4l-11.3 8.2q-13.3-1.45-22-7.85-5.6-4.05-9.3-10.15l-.6-1q-9.65 4.75-18.8 10.05-9.45-6.95-14.25-14.15-4.55-6.8-3.75-20.4-1.6.3 1.4-6.25 43.9-7.3 88.35-7.4l-.35-.3q-9.65-7.8-11.3-18.4-2.1-14.1 11.7-24.65l4.7-3.05q8-4.7 17.35-5.65l-1.25-2.2 6.65 1.35-5.1-4.1-2.15-3.3-9.15.2-2.5 4.45-11.2-2.15-6.15 12.1-.05.1v-.1l.3-6.2-13.5 12.4-.35-16.6L54 33.15l-.1-.05L72 15.7l-22.6.7 28.2-10-9.1-5.2 17.65 6.35 6.1-3.45 8.35 4.8 6.1-.75 6.35 3.65 6.25-.3 8.2 12.9 2.1-3.6 5.85 6.15z"/></g><path fill-rule="evenodd" fill-opacity="0" fill="#f0f" d="M0 0h102.95v45H0V0" id="a"/><use xlink:href="#a" width="102.95" height="45" id="e"/></defs><path fill="none" d="M-1-1h189v169H-1z"/><use x="121.718" y="169.387" xlink:href="#b" width="381" transform="translate(-192.55 -294)" height="381"/><use x="121.718" y="169.387" xlink:href="#c" width="122.1" transform="translate(-119.8 -88.9)" height="58.85"/><use x="121.718" y="169.387" xlink:href="#d" width="184.8" transform="translate(-120.8 -168.45)" height="165.15"/><use x="-38.918" y="-75.047" xlink:href="#e" width="102.95" transform="matrix(1.8072 0 0 1.6538 83 152.3)" height="45"/></svg>