<svg width="93" height="109" xmlns="http://www.w3.org/2000/svg" xmlns:xlink="http://www.w3.org/1999/xlink"><defs><g id="b" stroke-opacity="0" stroke-linejoin="round" stroke-linecap="round" stroke="#f0f" fill="none"><path d="M187.95-293.5v380h-380v-380h380" transform="translate(192.55 294)"/><path d="m187.95-293.5-190 190 190 190m-380-380 190 190L-192 86.5M92.95-38.4H-97" transform="translate(192.55 294)"/></g><g id="d"><path fill-rule="evenodd" fill="#d3ba89" d="m1.25-136.1.35.05 12.9-8.65v-.15l9.4-.45 5.15 2.1 1.3 1.45 3.55 9.2v.5h-2.65l-.2.15-.4.3-2.15 1.45-.9.6-1.6 2.8-.35.55-.25.45-.35-.25-5.45 6.45-3.15 2.4-7.9 11.45-1.05.1-2.5.2h-.6.6l2.5-.2 1.05-.1-.95.4.55 1.25-.4.1-2.4.85-3.2 1.15H2.1l-.3-.15v-.05L.05-103.4l-.25-.55-6.2.35.2-.1-1.65.3-1.1 1.3-2.8-.25-5.05-2.7-5.65 1.05v-.1l-1.3.05.4 1.75-3.5-.45 4.9 1.8q.4-1.65 2.1-2.25l2.75-.1q2.55.2 3.5 1.05l1.2.9-.1-.05 2.2 1.65 2.1.25.5-1.45 1.8-.95 5.2-1.1 1.45 1.55-10.1 3.55v-.05l-10.3-.4-1.3-.45-1-.45-2.9-1.3-1.95-1-4.55-2.65-.4-.3-6.3-4.75-.7-.65-2.55-3.65q-1.65-2.65-2.8-5.35l-.2-.5-.95-2.6-.25-1.6q-.15-1.15.55 1.9l10.2-7.5h.15q-.2 3.7.7 10.85l.25 2 .25.3.35-.35 4.05-.15 1.3 6.8 20.3-.65h.05l.1-.25-.15-.1-.95-6v-.05h3l4.2-.05H.6l.6-.05v-.05h.15-.15l-.25-1.55v-.1q-1.3-8.5.05-16.2v-.1l.05-.1.2-1.1m6.85 20.3-7.15-2.7 7.15 2.7m1.7 52.5.15.6-.4-.75.25.15M-.5-66.25l-2.15.35-1.3.15-4.55-.3h-.1l-.1-.05-.4-.05-.35-.1-.3-.1q-1.95-.5-3.75-1.45l-.2-.1-2.05-1.25-.15-.1h-.05l-.1-.15-1.15-1.2-.05-.05-.8-1.05-1.65-2.55-.6-1.15-.4-1-.55-1.75-.2-1.05-.05-.1-.2-2.75.1-1.75 2.4-2.55 7.55-2.1.05.2L0-86.1l6 6.6-1 7.9-.15.15-3.2 4.55-1 .3v.05l-.55.15-.6.15m29.9-46.8.95.35-.95-.35M-7.9-137.2l.1.3h-.15l.05-.3m3.1 27.65-2.45-1.1 2.45 1.1m-.55-6.95v-.3.3m7.95 5.4-3.75-5.75 3.75 5.75m4-24.5-5.2.85 5.2-.85m-36.45 28.35 1.9-2.5-1.9 2.5m.7 2.2 4.35 2.1-.4-1.2-.05-.05-.35-1.2-.6-1.7-3.05 1.9.1.15m17.85-.85-4.9-1.45-9.4 1.95 9.4-1.95 4.9 1.45-.35 2.9 2.05.4 1.1-1.5-.75-1.45-1.1-2.05-.85 1.5-.1.2m13.45.7-11.4-.35 11.4.35.6 1.4L5-104.95l-.6-.45-2.35-1.85.3 2-.2.05m-17.95 8.1h.05-.05M-35.9-114l2.5-2.05-2.5 2.05m22.1 30.6-.55 2h-2.7l.3 7.15 2.4.45.7.15 1 3.75 7.85.75-.2-3.55h.1l3.9.15-.05-8.4-4.15-.25-.15-.05v-3.8l-8.05.25-.4 1.4m23.55-9.3.1.05v.05l-.1-.1m-26.6 22.45.1.1h-.15l.05-.1" transform="translate(48.8 158.8)"/><path fill-rule="evenodd" fill="#e4d5b8" d="m-4.25-158.25 3.25.3 1.55.2q4.05.6 8.25 2l5.9 2.2 2.9 1.4 3.35 1.75 1.3.95 3.1 2.55 1.05.95 2.65 2.75-5.15-2.1-9.4.45v.15l-12.9 8.65-.35-.05.3-1.3v-.05h.15l-.15-.1H1.5l-7.25.65H-7.8l-.1-.3.45-2.15v-.1l.85-4.1.1-.3-.2-.25-.15.1-1-.4-.1.3.05.25-16.55 1.7-1.6-5.1 1.6 5.1-.05.1-.2.35-.3.85-3.75-2.15 3.75 2.15-1.95 5-5.95 1.1-.65.25.15.45-.5 1.05-.4 1.55-.3 2.25h-.15l-10.2 7.5-.9-5.3q-.1-2.25.15-4.3.8-7.2 5.9-11.8l.2-.15-.15.2 7-.6 5.65-3.45 1-.3.05.15 10.15-4.4 5.55-4.25 6.1-2.35M-5.5-150l-2.35 5.6 2.35-5.6m10.15 8-2.95 4.55L4.65-142m-9.05-3.65-2.3 1.55 2.3-1.55m-29.15 11.15-.95-2.6.95 2.6m-2 .15 1.65 1.35-1.65-1.35m19 37.05.75.2-.35-.05-.4-.15" transform="translate(48.8 158.8)"/><path fill-rule="evenodd" fill="#fc3" d="M33.9-132.15h.05l-.05.1v-.1m7.5 7.7v.15l-.15.05.15-.2m.7 7.05-.1.45-.15.15-.05-.1-.45-.9-1.75-1.85.05-.15-2.7-.9-3.25.4-2.6 1-2.05 1.4.1.15-.6 2.35-.1.05-.25-.7.1-.9-.4-.6-1.65-2.6-.1-.15-.1-1.25-.3-.4.2-.15q.5-3.95 2.3-5.8l1.7-1.15.4-.15h.05l1.05-.25 2.25-.6.25.05.4.05 2.85 1.75 1.4 5.25-.65 1.05.95.5.75.5 1.9 1.3-.05.7.6 1.5m-1.75 2.05-.05.8-.3-.6.35-.2M20.2-92.1l-.05.15-.1.7 2.3 1.65.85.65.6-.25-1.85 1.65-.5 1.15 1.9.95q-.85 1.1-1.3 2.4l-.2-.05-1.1-.95-.05-.05.3-.7-4.5-2-.75.3-.15.25-1.4-.5.4-1.25.95-2.2 2 1 1.95-2.7.7-.2m-49.85.65.5.7 1.6-1.2 2.05-1.5.55.95 1.65-.95.15.3.95 2.05-.1.05-1.6 1.05.15.65-3.85 1.7-.4-.75-1.8.6-.6-1.55 1.6-.6-.85-1.5m3.95-2.25-.2-.4.2.4m-21.45-23.8-.8-2.1 2.45-4 .25 1.6.95 2.6.2.5-3.05 1.4m78.3-4.15q.15-.55-.1-1.1-.25-.75-.95-1.05l-1.35-.1q-.7.25-1 1l-.05.15q-.15.65.1 1.3.3.75.95 1.1.7.35 1.35 0l.65-.55.3-.45.1-.3m3.55-.15.6-.05-.6.05m1.85-3.55q0-.8-.65-1.35-.6-.6-1.5-.6t-1.5.6l-.45.65-.2.7.05.4q.1.6.6 1 .6.6 1.5.5.9-.1 1.55-.6l.45-.55.15-.45v-.3m-5.1 4.9.85-.4-.85.4" transform="translate(48.8 158.8)"/><path fill-rule="evenodd" fill="#d9a300" d="m33.95-132.15 1 .5-.9 1.5.3.2-.4-.05-.25-.05-2.25.6-.4-2.45.2-.15h2.65l.05-.1m-12.35 52-.1.05-.3.9-1.5-.25v-.95L14.9-82l-.25.6-.65-.45-.7-.5.25-.9-.05-.05v-.15l.3-1.65.4-1.65 1.4.5.15-.25.75-.3 4.5 2-.3.7.05.05 1.1.95.2.05q-.45 1.35-.45 2.9m-43.05-4.9-4.65.5-.1.75-1.7.25-.55-.9h-.05l-1.3-3.35 1.8-.6.4.75 3.85-1.7-.15-.65 1.6-1.05.1-.05 1.25 2.55-.2 3.3-.3.2m-25.35-31.6-.15-.4-.2-.45 3.05-1.4q1.15 2.7 2.8 5.35l-3.4.6-.15.1-.8-.9-.3-.7-.85-2.2" transform="translate(48.8 158.8)"/><path fill-rule="evenodd" fill="#a67c00" d="m41.85-116.8-1.5 1.45-.35.2-.5-1 .6-.4.45-.85-3-2.1-3.5-.1-2.6 1.45-1.45 1.8.35 2.35.55-.05.55-.2.75 2.3-.2.3-1.65-1.05-.95-.35-.95-2.3.1-.05.6-2.35-.1-.15 2.05-1.4 2.6-1 3.25-.4 2.7.9-.05.15 1.75 1.85.45.9.05.1m-80.6 6.9-3.25.1-.8-.9-2.05-2.15.15-.1 3.4-.6 2.55 3.65m69.4-21.7.4-.3.4 2.45-1.05.25h-.05l-.4.15-1.7 1.15q-1.8 1.85-2.3 5.8l-.2.15-.6-.9H25l.2-1.4.2-1.5.25-.45.35-.55 1.6-2.8.9-.6 2.15-1.45" transform="translate(48.8 158.8)"/><path fill-rule="evenodd" fill="#ffd553" d="m34.95-131.65 2.2 1.05 1.8 1.6-.2.15-4.4-1.1-.3-.2.9-1.5" transform="translate(48.8 158.8)"/><path fill-rule="evenodd" fill="#ffe493" d="m38.95-129 1.5 1.3v.05l.1.35-.15-.05-.15-.1-.4-.05q-.7 0-1.2.6l-.35.75-.05.4v.25l.15.75.4.6q.55.6 1.25.5.7-.1 1.2-.6l.15-.05 1.3 4.5-.6 2.4-.6-1.5.05-.7-1.9-1.3-.75-.5-.95-.5.65-1.05-1.4-5.25-2.85-1.75 4.4 1.1.2-.15M17.3-92.95l.25-.35.8-.1 1.5.9.35.2v.2l-.7.2-1.95 2.7-2-1 1.75-2.75m6.5 3.75.05-.05L25-88.1l.3.3-.5.95-1.45 1.4-1.9-.95.5-1.15 1.85-1.65m-54.3-.45-.25-.65 1.1-1.15.85 1.5-1.6.6-.05-.15v-.05l-.05-.1m5-3.8-.2-.25-.2-.4 1.65-1.1.35.85.15-.05.45.95-1.65.95-.55-.95" transform="translate(48.8 158.8)"/><path fill-rule="evenodd" fill="#947336" d="M30.35-112.7q-.75 2.5-2.3 4.7-1.5 2.2-3.8 4.15-2 1.75-4.5 3.15-2 1.15-4.35 2.05l-2.2.8-1.9.6-.95.25-.3.05-1.25.3-.3.1-.95.2-.65.1-8 .75-1.2.05-4.3-.15-2.9-.3-1.4-.2-2.8-.5-1-.2-1.05-.3h-.05l-.75-.2-.45-.1-2.5-.85h-.05l-.15-.1h.05l10.3.4v.05l10.1-3.55 1.45 1.5 2.2-.15 2.25-2.85.25-.15 2.15.95 1.2-.65-.2-.4-2.3-.75.4-.1-.55-1.25.95-.4 7.9-11.45 3.15-2.4 5.45-6.45.35.25-.2 1.5-.2 1.4h.15l.6.9.3.4.1 1.25.1.15 1.65 2.6.4.6-.1.9.25.7.95 2.3.95.35M24.8-86.85l2.7 4.95-5.9 1.75q0-1.55.45-2.9.45-1.3 1.3-2.4l1.45-1.4m-12.3 3.5v.15l.05.7.05.25.05 1.9-.05.8-.25 1.85v.05q-.55 2.45-1.85 4.5-1.05 1.55-2.55 2.8l.15.25v.05l-.2-.25-1.3 1-.15.05q-1.25.85-2.75 1.5l-2.05.85 3.2-4.55.15-.15 1-7.9-6-6.6-11.6-2.15-.05-.2-7.55 2.1-2.4 2.55.15-1.25.3-.2.2-3.3.75-2.85.4.15-.1.35.6.1.25-.2 7.55-1.45 5.2-.35 3.35.15q3.45.35 6.35 1.4h.05L4-91.3l.1.05.35.1h.9v.05h.7l2.55-.25h.3l.05-.05q.3.2.55-.4l-.05.15.35.05v1.55l.05.8.2 1.2q.25.95.7 1.65l1.75 3.05M10.15-62.1l.25 1.1q.95 3.85-.55 6.75L1.9-57.4l-.4-.65L1-60.3l1.85.65 1.1-.7-.2.15 3.8-.5 2.6-1.4m-20.5 1.7-.3.55-1.55 2.2q-2.6 4.4-5.4 3.9h-.05.05q-.75-5.2.55-8.05l2.5.9.7.55.55-.35 1.8.5 1.15-.2m-9 4.15q-.6-1.9-.55-5.05l.15-1.3v-.05l.2-1.3.5.75.15.3.35.1-.3.25q-.9 2.55-.5 6.3M-17-70.4l-.2-.2 1.15 1.2-.6-.6-.1-.15-.1-.1-.15-.1v-.05m-11.5-14.05-5.1-1.2 3.15-3.85.05.15.6 1.55 1.3 3.35m45.65-23.85q-3.75 1.95-8.6 2.6 4.85-.65 8.6-2.6l.65 1.9 1.4-.8-.3-1.95-2-1.25.15 1.75.1.35m5.9-3.95-.2 1-3.95 2.1 3.95-2.1.2-1 2.7 1.25q-.3-1.4-2.35-2.8l-.15-.1q-2.05-1-4.9-.75l.4.7 4.35 1.5-.05.2m-5.25-2.35.55-.05-.55.05m8 3.95-.05-.35.05.35m-2.2.8-2.35 1.5-.6 2.7-2.05 1.2-2.8-1.15-4.95 2.05.15.35 3.9-1.5 3.6 2.15 2.45-1 .95-4.05 1.7-2.25m-43.15 11.6-.1-.1.1.1m21.7-3.7 3.2-1.15-1.8 1.45-1.4-.3m-22.8 9.85v.1l-.05-.1-.05-.05.1.05m28.6 21.75v.05H7.9h.05v-.05m2.85-23.8.1-.3v-.05l-.1.35M9.75-91.7l.05-.05v.1l-.1-.05h.05" transform="translate(48.8 158.8)"/><path fill-rule="evenodd" fill="#b99144" d="m40.95-125.9.45 1.45-.15.2q-.5.5-1.2.6-.7.1-1.25-.5l-.4-.6-.15-.75v-.25l.05-.4.55-.05 2.1.3m-9.8 4.25-.1.3-.3.45-.65.55q-.65.35-1.35 0-.65-.35-.95-1.1-.25-.65-.1-1.3l.05-.15v.15q2.4-.3 3.4 1.1m5.4-3.7v.3l-.15.45-.45.55q-.65.5-1.55.6-.9.1-1.5-.5-.5-.4-.6-1l-.05-.4.2-.7q2.75-.6 3.95.85l.15-.15" transform="translate(48.8 158.8)"/><path fill-rule="evenodd" fill="#664d00" d="m40.55-127.3.4 1.4-2.1-.3-.55.05.35-.75q.5-.6 1.2-.6l.4.05.15.1.15.05m-3.5 21.8-.15.1-.75-.05v-.35.35l-.3 3.45.2 2.6-.05.1-1.75 3.2-1.45-5.45 1.8-4h.05l.55.1.25-.05.7-.3.1-.05q.2.2.5.3l.3.05m-2.85-2.85-.15-.15-1.85-3-.2-.15.2-.3-.75-2.3.65-1.8 2.15-1.35.15.05 2.45.15.6 2.65-1.05 6.1-.15.15-.1.1-.2.2-.05-.55-.7-.15-.9.25-.1.1m-23.85 11.4.05 1.1-.05.25 1 .15 1.8.45 3.75 1.75.15.1.25.2-1.75 2.75-.95 2.2-.4 1.25-.4 1.65-.3 1.65v.15l-.7-.25-.3.2-1.75-3.05q-.45-.7-.7-1.65l-.2-1.2-.05-.8v-1.55l-.35-.05.05-.15q-.25.6-.55.4l-.05.05h-.3l-2.55.25h-.7v-.05h-.9l-.35-.1-.1-.05-.55.05H3.4q-2.9-1.05-6.35-1.4l-3.35-.15-5.2.35-7.55 1.45-.25.2-.6-.1.1-.35-.4-.15.1-.35.65-1.35q1.2-2 3.15-3.4l.55-.6-.55.6q-1.95 1.4-3.15 3.4l-.65 1.35-.1.35-.75 2.85-1.25-2.55-.95-2.05-.15-.3-.45-.95 3-1.3 3.75-1.7.45.1.4.15.35.05h.05l1.05.3 1 .2 2.8.5 1.4.2 2.9.3 4.3.15 1.2-.05 8-.75.65-.1.95-.2.3-.1 1.25-.3h.3M8.1-70.05l1.7 6.75-.25-.15.4.75.2.6-2.6 1.4-3.8.5.2-.15-1.1.7L1-60.3l-1.5-5.95.6-.15.55-.15v-.05l1-.3 2.05-.85q1.5-.65 2.75-1.5l.15-.05 1.3-1 .2.25M-8.7-66.1l-.05.3v.05q-.3 2.85-1.6 5.35l-1.15.2-1.8-.5-.55.35-.7-.55-2.5-.9-1.5-1-.35-.1-.15-.3-.5-.75.1-.9.25-1.05q.6-2.25 2.1-4.35l.1-.15v.05l.15.1-.05.1h.15l.1.15.6.6.1.15h.05l.15.1 2.05 1.25.2.1q1.8.95 3.75 1.45l.3.1.35.1.4.05m-36.5-32.3-.9 2.2-1-1.1v-4.95l1.5-2.85.55.1.3-.05-1.95 6.7 1.5-.05m-.75-9.6-2.3-4.3-.05-.05 1.5-4.3.85 2.2-1.05 2.4 1.95 3.8-.9.25m63.1-.3-.1-.35-.15-1.75 2 1.25.3 1.95-1.4.8-.65-1.9m10.6-14.6q.3-.75 1-1l1.35.1q.7.3.95 1.05.25.55.1 1.1-1-1.4-3.4-1.1v-.15m4.7-3.15.45-.65q.6-.6 1.5-.6t1.5.6q.65.55.65 1.35l-.15.15q-1.2-1.45-3.95-.85m2.8 13.75-.85-5.05.85 5.05m-11.65 2.45-1.7 2.25-.95 4.05-2.45 1-3.6-2.15-3.9 1.5-.15-.35 4.95-2.05 2.8 1.15 2.05-1.2.6-2.7 2.35-1.5m-49.2 4.45.35 1.2.05.05.4 1.2-4.35-2.1-.1-.15 3.05-1.9.6 1.7m14.4-.7.85-1.5 1.1 2.05.75 1.45-1.1 1.5-2.05-.4.35-2.9.1-.2m13.55.85-.3-2 2.35 1.85.6.45-2.25 1.15-.6-1.4h.2v-.05m5.4 1.3 2.3.75.2.4-1.2.65-2.15-.95-.25.15-2.25 2.85-2.2.15-1.45-1.5 1.4-.5 1.4.3 1.8-1.45 2.4-.85m-35.95-1.5.75.75.8-1.85-1.55 1.1m7.55 13.35-.1-.05.05.05.05.1v-.1M3.1-105.8l-.75-.9.3 1.3.45-.4m-13.45-1.1-.55.8-.1 1.55 1.1-.4-.45-1.95M10.8-94.15l.1-.35v.05l-.1.3M9.75-92.7l.1.1v-.05l-.1-.05m0 1H9.7l.1.05v-.1l-.05.05" transform="translate(48.8 158.8)"/><path fill-rule="evenodd" fill="#600" d="m12.35-77.7 1.65.8 1-2.3 1.9.85-4.55 9.2L10.6-70l1.1-2.55-.95-.4-.25-.2q1.3-2.05 1.85-4.5v-.05M-7.8-136.9h2.05q-3.7 5.7-1.1 18.75l8.05 1.2-2.35.1-4.2.05H-8.2q-3.45-11.4.4-20.1m9 19.95h.15-.15m-34.85.6-.25-2 4.6-.2.3 2-4.05.15-.6.05" transform="translate(48.8 158.8)"/><path fill-rule="evenodd" fill="#592017" d="m38.05-108.55.4.35q.45.45.5 1.15-.05.65-.5 1.1l-.85.45-.3.05-.25-.05-.3-.05q-.3-.1-.5-.3l-.1.05-.7.3-.25.05-.55-.1h-.05l-.55-.4-.2-.2.5.05.5.05.3-.05h.15l.45-.4.2.35.55.05.4.05.4-.05h.15l.65-.85.05-.8-.05-.15-.05-.65m-80.25.45.4.3q.5.5.5 1.15 0 .7-.5 1.15-.35.4-.85.45l-.3.05-.5-.1-.55-.3q-.35.3-.75.35l-.3.05-.55-.1-.6-.4-.2-.2.55.05h.95l.45-.4.15.35.55.05h.95q.5-.3.65-.85.15-.45 0-.95l-.05-.65m-2.15 0 .35.25-.1.05-.2.25-.05-.55" transform="translate(48.8 158.8)"/><path fill-rule="evenodd" fill="#812e22" d="m37.85-108.65.2.1.05.65.05.15-.05.8-.65.85h-.15l-.4.05-.4-.05-.55-.05-.2-.35-.45.4h-.15l-.3.05-.5-.05-.5-.05q-.3-.4-.3-.9 0-.7.5-1.15l.15-.15.1-.1.9-.25.7.15.05.55.2-.2.1-.1.15-.15.9-.25h.1l.45.05m-80.7.4.65.15.05.65q.15.5 0 .95-.15.55-.65.85h-.95l-.55-.05-.15-.35-.45.4h-.95l-.55-.05-.3-.95q0-.65.5-1.15l.25-.2.9-.25.7.15.05.55.2-.25.1-.05.15-.15.9-.25h.1m79.25.25v-.45.45l-.25.4-.1.1q.1.45.3.45l.4-.05h.05q.5-.1.4-.55l-.15-.4-.15-.05h-.45l.05.05-.1.05m-1.3.35-.15-.4-.15-.05h-.5l.1.05-.4.45-.05.1q.1.45.3.45l.35-.05q.45-.05.5-.35v-.2m-81.4.6.3.45.4-.05q.55-.1.45-.55 0-.3-.15-.4l-.15-.05h-.45.05l-.4.5-.05.1m2.15 0q.05.4.25.45l.4-.05h.05q.55-.1.45-.55l-.15-.4-.15-.05h-.5.05v.05l-.35.45-.05.1" transform="translate(48.8 158.8)"/><path fill-rule="evenodd" fill="#e4d5b6" d="m36.4-108 .1-.05-.05-.05h.45l.15.05.15.4q.1.45-.4.55h-.05l-.4.05q-.2 0-.3-.45l.1-.1.25-.4m-1.3.35v.2q-.05.3-.5.35l-.35.05q-.2 0-.3-.45l.05-.1.4-.45-.1-.05h.5l.15.05.15.4m-63.3 2.2 1.55-1.1-.8 1.85-.75-.75m-15.95-1.6.05-.1.35-.45v-.05h-.05.5l.15.05.15.4q.1.45-.45.55h-.05l-.4.05q-.2-.05-.25-.45m-2.15 0 .05-.1.4-.5h-.05.45l.15.05q.15.1.15.4.1.45-.45.55l-.4.05-.3-.45m49.4 1.25-.45.4-.3-1.3.75.9m-13.45-1.1.45 1.95-1.1.4.1-1.55.55-.8" transform="translate(48.8 158.8)"/><path fill-rule="evenodd" fill="#4a3800" d="m23.05-112.25.05-.2-4.35-1.5-.4-.7q2.85-.25 4.9.75l.15.1q2.05 1.4 2.35 2.8l-2.7-1.25m.35-1.55-.3 1.35.3-1.35" transform="translate(48.8 158.8)"/><path fill-rule="evenodd" fill="#f4eee3" d="m-4.25-158.25-6.1 2.35-5.55 4.25-10.15 4.4-.05-.15-1 .3-5.65 3.45-7 .6.15-.2 3.95-3.5 3-2.65.8-.75 1.25-1.1 1.9-1.1q4.55-2.55 9.3-4l2.9-.8.35-.05.8-.2 2.5-.45 3.6-.35 5-.05m-22.1 10.05.25.8-.25-.8" transform="translate(48.8 158.8)"/><path fill-rule="evenodd" fill="#d50000" d="m-24.45-142.15 16.55-1.7 1.3.3-.85 4.1v.1l-20.1 5.15.6-1.65-.6 1.65-.45 1.3-.3-.1-6 1.55.4-1.55.5-1.05.5-.7 5.95-1.1 1.95-5 .5-1.15.05-.15" transform="translate(48.8 158.8)"/><path fill-rule="evenodd" fill="#9f0000" d="m1.25-136.1-.2 1.1-.05.1v.1q-1.35 7.7-.05 16.2v.1l.25 1.55v.05l-.6.05h-1.75l2.35-.1-8.05-1.2q-2.6-13.05 1.1-18.75l7.25-.65h.05v.15l-.3 1.3m-8.7-3.25-.45 2.15-.05.3h.15q-3.85 8.7-.4 20.1h-.15v.05l.95 6v.35l-20.3.65-1.3-6.8-.3-2-4.6.2q-.9-7.15-.7-10.85l.3-2.25 6-1.55.3.1.45-1.3 20.1-5.15M-28-132.9q-1.95 6.25-1.3 14.35-.65-8.1 1.3-14.35m13.65 59.1-2.4-.45-.3-7.15h2.7l.55-2 .4-1.4 8.05-.25v3.8l.15.05.3 8.5H-5l.2 3.55-7.85-.75-1-3.75-.7-.15" transform="translate(48.8 158.8)"/><path fill-rule="evenodd" fill="#960" d="m-24.5-142-.5 1.15.3-.85.2-.3" transform="translate(48.8 158.8)"/><path fill-rule="evenodd" fill="#b48b41" d="M.75-101.45-.7-103l-5.2 1.1-1.8.95-.5 1.45-2.1-.25-2.2-1.65.1.05-1.2-.9q-.95-.85-3.5-1.05l-2.75.1q-1.7.6-2.1 2.25l-4.9-1.8 3.5.45-.4-1.75 1.3-.05v.1l5.65-1.05 5.05 2.7 2.8.25 1.1-1.3 1.65-.3-.2.1 6.2-.35.25.55 1.75 1.25v.05l.3.15h.05l-1.4.5" transform="translate(48.8 158.8)"/><path fill-rule="evenodd" fill="#423200" d="m40.3-114.55-.1 1.75-1.3.85-.45 1.85-.05.05-.55 1.4-.45-.05h-.1l-.9.25 1.05-6.1-.6-2.65 1.75.15.85.95.05-.05.5 1 .3.6m-3.4 9.15 1.15 2.75.1 5.25-.7 1.35-1.35-3.45-.05.1-.2-2.6.3-3.45.75.05m-79.7-5.3-.05 2.45h-.1l-.9.25-.15.15-.35-.25-.7-.15-1.95-3.8 1.05-2.4.3.7.8.9 2.05 2.15m-.65 5.6.35 2.45.35 2.55.05.25-1.2 3.2-1-2.55-.3.8-1.5.05 1.95-6.7q.4-.05.75-.35l.55.3" transform="translate(48.8 158.8)"/><path fill-rule="evenodd" fill="#620000" d="m-5.2-81.2 4.15.25.05 8.4-3.9-.15-.3-8.5" transform="translate(48.8 158.8)"/><path fill-rule="evenodd" fill="#c19b55" d="m9.85-54.25-1.55 2.1q-3.5-.15-6.4-5.25l7.95 3.15m-27.5.5q-.85-.65-1.4-1.8l-.3-.7q-.4-3.75.5-6.3l.3-.25 1.5 1q-1.3 2.85-.55 8.05h-.05" transform="translate(48.8 158.8)"/><path fill-rule="evenodd" fill="#332600" d="m30.9-114.05-.55.05-.35-2.35 1.45-1.8 2.6-1.45 3.5.1 3 2.1-.45.85-.6.4-.05.05-.85-.95-1.75-.15-2.45-.15-.15-.05-2.15 1.35-.65 1.8-.55.2" transform="translate(48.8 158.8)"/><path stroke-opacity=".533" stroke-linejoin="round" stroke-linecap="round" stroke="#382121" fill="none" d="m29.05-143.2-2.65-2.75-1.05-.95-3.1-2.55-1.3-.95-3.35-1.75-2.9-1.4-5.9-2.2q-4.2-1.4-8.25-2l-1.55-.2-3.25-.3m38.15 25.7-3.55-9.2-1.3-1.45m11.5 15.9.4 1.4.45 1.45m0 .15 1.3 4.5-.6 2.4m-.25.6-1.5 1.45m-.05.8-.1 1.75-1.3.85-.45 1.85m-1.55 4.7 1.15 2.75.1 5.25-.7 1.35-1.35-3.45m-.1.2-1.75 3.2-1.45-5.45 1.8-4m-.55-2.95-1.85-3m-.2-.15-1.65-1.05q-.75 2.5-2.3 4.7-1.5 2.2-3.8 4.15-2 1.75-4.5 3.15m-4.35 2.05-2.2.8-1.9.6-.95.25m0 .05.05 1.1m-.05.25 1 .15 1.8.45m5.2 1.6 1.5.9m.3.55-.1.7 2.3 1.65M25-88.1l.3.3-.5.95 2.7 4.95-5.9 1.75-.1.05-.3.9-1.5-.25v-.95L14.9-82l-.25.6-.65-.45m-1.35 1.5-.05.8-.25 1.85 1.65.8 1-2.3 1.9.85-4.55 9.2L10.6-70l1.1-2.55-.95-.4m-.25-.2q-1.05 1.55-2.55 2.8m.15.3 1.7 6.75m.15.6.2.6.25 1.1q.95 3.85-.55 6.75l-1.55 2.1q-3.5-.15-6.4-5.25m-.4-.65L1-60.3l-1.5-5.95-2.15.35-1.3.15-4.55-.3h-.1l-.1-.05-.05.3v.05q-.3 2.85-1.6 5.35l-.3.55-1.55 2.2q-2.6 4.4-5.4 3.9h-.05q-.85-.65-1.4-1.8m-.3-.7q-.6-1.9-.55-5.05l.15-1.3v-.05l.2-1.3.1-.9.25-1.05q.6-2.25 2.1-4.35l.1-.15m-.2-.2-.05-.05-.8-1.05m-1.65-2.55-.6-1.15-.4-1m-1-5.65.1-1.75.15-1.25-4.65.5-.1.75-1.7.25-.55-.9m-.05 0-5.1-1.2 3.15-3.85m-.05-.15-.25-.65 1.1-1.15.5.7 1.6-1.2m6.8-3.75 3.75-1.7m-2.65-.95-1.3-.45m-5.85-2.75-4.55-2.65m-6.7-5.05-.7-.65m-3.95 10.05-1.2 3.2-1-2.55m-.3.8-.9 2.2-1-1.1v-4.95l1.5-2.85m-2.7-7.25 1.5-4.3m1.85-5.05-.9-5.3q-.1-2.25.15-4.3.8-7.2 5.9-11.8l.2-.15 3.95-3.5m3-2.65.8-.75m3.15-2.2q4.55-2.55 9.3-4l2.9-.8.35-.05.8-.2 2.5-.45 3.6-.35 5-.05m5.65 23.5 5.2-.85m-20.4 52.2.4-1.4 8.05-.25v3.8l.15.05 4.15.25.05 8.4-3.9-.15H-5l.2 3.55-7.85-.75-1-3.75-.7-.15" transform="translate(48.8 158.8)"/><path stroke-width=".05" stroke-opacity=".533" stroke-linejoin="round" stroke-linecap="round" stroke="#382121" fill="none" d="m22.75 11.55 1.6 5.1 16.55-1.7.95-.05.1-.1.15-.1 2.3-1.55m-3.55 1.55.1-.3 2.35-5.6m6.75 13.9-.2 1.1-.05.1v.1q-1.35 7.7-.05 16.2v.1L56.9 43m25.8-16.75v.4m6.55 4.5.1.35m.85 2.85v.15m.7 6.9-.1.45-.15.15m-1.5 1.45-.05.8-.3-.6m-1.55 5.05-.05.05-.55 1.4m-.8 3.15-.15.1m-.8 5.9-.05.1M83 50.45l-.15-.15m-1.85-3-.2-.15M59.15 61.8v.05m.05 1.1-.05.25M56.9 88.7v.05m1.7 6.75.15.6m-8.05 5.3-.4-.65M31.8 88.4l-.2-.2M20.35 74.35h-.05m-1.95-5.05-.05-.15m13.5-7.75-2.5-.85h-.05M10.05 48.9 6.8 49l-.8-.9-.05 2.45m-.6 3.15.35 2.45m.35 2.55.05.25m-2.2.65-.3.8M.55 46.5l-.05-.05m1.5-4.3-.15-.4m77.6-14.55-2.15 1.45m-2.5 3.4-.35.55M74 34.55l-.2 1.4m.15 0 .6.9.3.4.1 1.25.1.15m13.4-.75 1.9 1.3m-33 13.9q4.85-.65 8.6-2.6m-.1-.35-.15-1.75 2 1.25 3.95-2.1.2-1 .05-.2.3-1.35q2.05 1.4 2.35 2.8l.05.35m-7.45-4-.55.05m10.1-2.95.4.6-.1.9.25.7m6.85-6.5-.6.05m-3.8 7.75-.55.05-.35-2.35 1.45-1.8 2.6-1.45 3.5.1 3 2.1-.45.85-.6.4.5 1m-7.7-5.7-.85.4m2.95 3.1-.15-.05-2.15 1.35-.65 1.8.75 2.3m7.3-4.2-.05.05-.85-.95-1.75-.15m-7.45 4.15.95.35m-.95-.35-.95-2.3m-10.1.7q2.85-.25 4.9.75l.15.1m-.05 28.35 1.45-1.4m-1.45 1.4q-.85 1.1-1.3 2.4-.45 1.35-.45 2.9m-28.1-63.7-.1.3-.85 4.1m0 .1-.45 2.15-.05.3h2.2l7.25-.65h.05v.15l-.3 1.3m.45-1.35 2.95-4.55M40.6 42h2.85l4.2-.05 3.75 5.75M40.6 42h-.15v.05l.95 6 .15.1 2.45 1.1m6-7.4-.25-1.55m.25 1.55v.05l-.6.05m-.3 0h-1.45M22.7 11.4l.05.15m1.6 5.1-.05.1.05-.1m-.05.15-.5 1.15-1.95 5m2.45-6.15v-.05l-.2.35m-.3.85.3-.85m-4.05-1.3 3.75 2.15m-1.1-6.55-.25-.8M9.2 15.55l-.15.2m6.85 8.3-.65.25.15.45.5-.7 5.95-1.1M14.9 25.8l.5-1.05m-.5 1.05-.4 1.55m.4-1.55-1.65-1.35m1.05-2.75.95 2.6m-1.05 5.3.3-2.25m-.3 2.25h-.15m.85 10.85q-.9-7.15-.7-10.85m-9.7 9.8.2.5q1.15 2.7 2.8 5.35l2.55 3.65m5.1-6.45-.25-2m.85 1.95-.6.05m.25.3.35-.35 4.05-.15m21.6 6.15-20.3.65-1.3-6.8m1.05 6.8-1.9 2.5m4.25 1.85.35 1.2.05.05.4 1.2-4.35-2.1m-.1-.15 3.05-1.9.6 1.7 9.4-1.95 4.9 1.45.1-.2.85-1.5 1.1 2.05 11.4.35h.2v-.05l-.3-2 2.35 1.85h.6l2.5-.2 1.05-.1m-28.2 7.35.1.1m2.55.85.45.1.4.15.35.05h.05l-.55.6q-1.95 1.4-3.15 3.4l-.65 1.35-.1.35-.75 2.85-1.25-2.55-.95-2.05m7.4-3.95 1.05.3 1 .2m2.8.5 1.4.2 2.9.3m4.3.15 1.2-.05 8-.75m1.9-.4 1.25-.3.3-.05M15.4 42.75l-2.5 2.05m-10.05-.45.3.7.8.9L6 48.1M19 71l1.3 3.35m7.35-.8.2-3.3m-9.45-.8L19 71m-.65-1.7.05.15M50.45 91.9l2.05-.85q1.5-.65 2.75-1.5l.15-.05 1.3-1h.05v-.05m10.95-38.8.3 1.95-1.4.8-.65-1.9M53.2 53.4l.6.45L51.55 55l-.6-1.4m-13.45-.7.1-.2m3.8-4.65.05.35h-.05m-1.85 4.85.75 1.45-1.1 1.5-2.05-.4.35-2.9m21.8 32.75q1.3-2.05 1.85-4.5v-.05M2 42.15l.85 2.2m45.45 48.2.6-.15.55-.15v-.05l1-.3m-17.7-2.5.1.15h.05l.15.1 2.05 1.25.2.1q1.8.95 3.75 1.45l.3.1.35.1.4.05m-8.3-4.3v.05l.15.1.1.1.1.15.6.6"/><path stroke-width=".05" stroke-opacity=".533" stroke-linejoin="round" stroke-linecap="round" stroke="#382121" fill="none" d="m84.85 59.4-.05.1M74.75 36.7q.5-3.95 2.3-5.8m1.7-1.15.4-.15h.05m-2.65 6.3q.3-.75 1-1l1.35.1q.7.3.95 1.05.25.55.1 1.1m3.25 4.3.85 5.05m6.15-12.15-.15.2m-4.85 15.8v.45m-.25 2.2v.35m-.3 3.45.2 2.6M40.9 21.6l.1.3q-3.85 8.7-.4 20.1m2.85 0v.3m-21.6-19.35-.6 1.65m-.45 1.3.45-1.3M19.5 40.25q-.65-8.1 1.3-14.35m-1 16.35-.3-2"/></g><path fill-rule="evenodd" fill-opacity="0" fill="#f0f" d="M100 40H0V0h100v40" id="a"/><use xlink:href="#a" width="100" height="40" id="c"/></defs><path fill="none" d="M-1-1h95v111H-1z"/><use x="49.156" y="159.648" xlink:href="#b" width="381" transform="translate(-192.55 -294)" height="381"/><use x="32.77" y="106.432" xlink:href="#c" width="100" transform="matrix(1.5 0 0 1.5 -98.75 -163.2)" height="40"/><use x="49.156" y="159.648" xlink:href="#d" width="92" transform="translate(-48.8 -158.8)" height="107.15"/></svg>