<svg width="206" height="287" xmlns="http://www.w3.org/2000/svg" xmlns:xlink="http://www.w3.org/1999/xlink"><defs><g id="d" stroke-opacity="0" stroke-linejoin="round" stroke-linecap="round" stroke="#f0f" fill="none"><path d="M187.95-293.5v380h-380v-380h380" transform="translate(192.55 294)"/><path d="m187.95-293.5-190 190 190 190m-380-380 190 190L-192 86.5M92.95-38.4H-97" transform="translate(192.55 294)"/></g><g transform="translate(1 276.1)" id="f"><use xlink:href="#b" width="349.65" transform="translate(-1 -276.1)" height="206.3"/><use xlink:href="#sprite2" width="0" transform="scale(15.4871 -15.4871) rotate(6.283 -66.557 44.602)" height="0"/><use xlink:href="#c" width="370.55" transform="translate(20.3 -221.25)" height="497.35"/></g><g id="b"><path fill-rule="evenodd" fill="#b3b4bd" d="m346.35-257.15.8-.35-.95 1.8.15-1.45" transform="translate(1 276.1)"/><path fill-rule="evenodd" fill="#94949c" d="m347.15-257.5-.8.35.2-.3-.2.3-8.4 5.15-53.7 31.8-11.7.3-60.6 31.9-5.55 16.35-19.15-2.1-56.5 29.5-15.65 10.15-1.25-1-2.7 2v-.55q-1.9-6.65-7.95-10.75l24.55-3.85 57.3-33 6.2-12.75 22.15.4 58.25-29.1 6.35-8.4 54.85-26.15 14.8-7.2-1.1 7 .6-.05" transform="translate(1 276.1)"/><path fill-rule="evenodd" fill="#cfc6b5" d="m346.35-257.15-.15 1.45q-6.4 36.3-28.5 59.75l-17.6 7.5 11.5-14.1 9.8-5.6L337.95-252l8.4-5.15m-215.3 136.1 72.05-31.9 7.3-7.6 9.1-.9 18.15-8.15 11.6-12.95-8.35 19.8-94.95 41.4-14.9.3" transform="translate(1 276.1)"/><path fill-rule="evenodd" fill="#ebe2cf" d="m347.65-264.45-14.8 7.2-45.7-6.05-11.05 7.15-7.75-8.4-20.05.25 15.3-10.45 3.65 5.1-3.35-4.85q43.05-3.15 83.75 10.05m-120 38.1-7.4 6.5-20.35-5.7-37.15 24.95-4.9 6-15.95 4.1-15.25 16.8-4.35 11.05-19.9-3.8-.7-4.2 6.8-9 87.65-54.15 27.95 9.3 3.55-1.85" transform="translate(1 276.1)"/><path fill-rule="evenodd" fill="#c4c6cf" d="M332.85-257.25 278-231.1l-6.35 8.4-58.25 29.1-22.15-.4-6.2 12.75-57.3 33-24.55 3.85-1.3-1 4.75-1.35-4.25-19.7 19.9 3.8 4.35-11.05 15.25-16.8 15.95-4.1 4.9-6 37.15-24.95 20.35 5.7 7.4-6.5 20.9-12.1-.25-25.85 20.05-.25 7.75 8.4 11.05-7.15 45.7 6.05" transform="translate(1 276.1)"/><path fill-rule="evenodd" fill="#a9aab3" d="m337.95-252-16.55 43.85-9.8 5.6-11.5 14.1-.3.3-22.45-9.5-25.8 12.3-1.65.75-.65 2.05-11.6 12.95-18.15 8.15-9.1.9-7.3 7.6-72.05 31.9-1.75.2-14.2-13.25 15.65-10.15 56.5-29.5 19.15 2.1 5.55-16.35 60.6-31.9 11.7-.3 53.7-31.8" transform="translate(1 276.1)"/><path fill-rule="evenodd" fill="#302f2d" d="m111.15-133.1 2.7-2 1.25 1 14.2 13.25L156.5-96l-28.15 8.25-46.8-25.75-.35-.25 5.15-3.1q5.2 2.4 11.1 1.75 7.45-.9 11.45-6.3 3.45-4.85 2.65-10.85l-.4-.85m-9.45-37.55.7 4.2 4.25 19.7-4.75 1.35q-6-3.6-12.9-2.7-7.5.85-11.45 6.3l-.75.9q-1.15 1.85-1.65 3.9l-6.1 1.75L73-187.3l22.45-14 6.25 30.65M28.4-88.1l5.6 7.2-20.3 10.1L0-87.25l20.75-10.7 1.65 1.85 6 8" transform="translate(1 276.1)"/><path fill-rule="evenodd" fill="#eecce6" d="M103.2-144.4q6.05 4.1 7.95 10.75v.55l.4.85-.65-.55q-6.6-4.8-13.35-7.3-3.8-1.05-7.65-1.5-6.45-.95-13.1.7l.75-.9q3.95-5.45 11.45-6.3 6.9-.9 12.9 2.7l1.3 1" transform="translate(1 276.1)"/><path fill-rule="evenodd" fill="#cf71b2" d="m74.75-135.2.4-1.8q.5-2.05 1.65-3.9 6.65-1.65 13.1-.7 3.85.45 7.65 1.5 6.75 2.5 13.35 7.3l.65.55q.8 6-2.65 10.85-4 5.4-11.45 6.3-5.9.65-11.1-1.75l-2.7-1.75q-3.7-2.3-6.05-5.4-1.5-2.55-2.25-5.55-.8-2.95-.6-5.65" transform="translate(1 276.1)"/><path fill-rule="evenodd" fill="#86521e" d="M81.55-113.5 28.4-88.1l-6-8L77.6-124q2.35 3.1 6.05 5.4l2.7 1.75-5.15 3.1.35.25" transform="translate(1 276.1)"/><path fill-rule="evenodd" fill="#d08133" d="m20.9-105.7 53.85-29.5q-.2 2.7.6 5.65.75 3 2.25 5.55L22.4-96.1l-1.65-1.85-.05-.55.2-7.2m.35 7.1-.55.1.3.25.25-.35" transform="translate(1 276.1)"/><path fill-rule="evenodd" fill="#ad9c78" d="m20.7-98.5.55-.1-.25.35-.3-.25" transform="translate(1 276.1)"/><path fill-rule="evenodd" fill="#53597b" d="m0-87.25.9-14.45 20.2-10.05-.2 6.05-.2 7.2.05.55L0-87.25" transform="translate(1 276.1)"/><path stroke-width=".05" stroke-linejoin="round" stroke-linecap="round" stroke="#82838a" fill="none" d="m347.35 18.95-.15 1.45.95-1.8-.6.05-.2.3m-97.1 74.6.65-2.05 1.65-.75-2.3 2.8m-118.2 61.5-1.75.2"/><path stroke-width="2" stroke-linejoin="round" stroke-linecap="round" stroke="#000" fill="none" d="m301.1 87.65 17.6-7.5q22.1-23.45 28.5-59.75m1.45-8.75-1.1 7M264.9 1.6q43.05-3.15 83.75 10.05m-120 38.1-3.55 1.85-27.95-9.3-87.65 54.15-6.8 9m125.95-55.7 20.9-12.1-.25-25.85 15.3-10.45m-12.05 89.4 25.8-12.3 22.45 9.5.3-.3m-50.85 5.9-8.35 19.8-94.95 41.4-14.9.3m-1.75.2 27.2 24.85-28.15 8.25-46.8-25.75L29.4 188l5.6 7.2-20.3 10.1L1 188.85l.9-14.45 20.2-10.05m-.2 6.05 53.85-29.5m.4-1.8-6.1 1.75"/><path stroke-width=".05" stroke-linejoin="round" stroke-linecap="round" stroke="#21201f" fill="none" d="M104.2 131.7q6.05 4.1 7.95 10.75v.55m2.7-2 1.25 1 14.2 13.25m-27.6-49.8.7 4.2 4.25 19.7m-4.75 1.35 1.3 1m-28.45 9.2.4-1.8q.5-2.05 1.65-3.9l.75-.9Q82.5 128.85 90 128q6.9-.9 12.9 2.7m-32.85 10.15L74 88.8l22.45-14 6.25 30.65m9.85 38.4-.4-.85m-24.8 16.25-2.7-1.75q-3.7-2.3-6.05-5.4-1.5-2.55-2.25-5.55-.8-2.95-.6-5.65m6.45 21.45.35.25m30-18.75q.8 6-2.65 10.85-4 5.4-11.45 6.3-5.9.65-11.1-1.75M21.7 177.6l.55-.1m-.25.35-.3-.25.05.55"/><path stroke-width=".05" stroke-linejoin="round" stroke-linecap="round" stroke="#705934" fill="none" d="M78.6 152.1 23.4 180"/></g><g id="c"><path fill-rule="evenodd" fill="#302f2d" d="m180.65-122.7-.2.2-.75 1-.25-.2-.4-.7q-.35-.35-.75-.3h-.05l-.25.05-.35-.2 2.65-1.85 1.55.5-1.2 1.5m-1.3 3.3-.15 2.25-1.5-1-.6-3.25v-.05l.35.15.35.6q.35.3.75.3l.65-.3v-.05l.2.05v.1l-.05 1.2m-5.55-3.55-.1.55-1.3-.6.25-1.3 1.35.6-.05.15-.15.6" transform="translate(-20.3 221.25)"/><path fill-rule="evenodd" fill="#ebe2cf" d="M180.65-122.7h.7l6 2.05.65 1.7.25.1-.6-.1-.55-1.2-2.65-.8H184l-.85-.6-1.4-.05-.7.2-.6-1.1.2-.2m10.2 3.35 1.1.35-.1.35.1-.35q1.85 1.95 2.8 4.4l-.9-.4-1.5-2.45-.8-.25.1-.7-.8-.95" transform="translate(-20.3 221.25)"/><path fill-rule="evenodd" fill="#eecce6" d="M178.25-122.7h.05q.4-.05.75.3l.4.7v.1l-.2.8-.05.05-.2-.95-.2-.4-.55-.6m.95 2v-.05.05" transform="translate(-20.3 221.25)"/><path fill-rule="evenodd" fill="#cf71b2" d="m177.9-122.6.1-.05.25-.05.55.6.2.4.2.95v.05l-.65.3q-.4 0-.75-.3l-.35-.6v-.7l.2-.35.25-.25" transform="translate(-20.3 221.25)"/><path fill-rule="evenodd" fill="#c4c6cf" d="m180.45-122.5.6 1.1.7-.2 1.4.05.85.6h.45l2.65.8.55 1.2.6.1 1.4.55 1.2-1.05.8.95-.1.7.8.25 1.5 2.45-3.4-1.6h-.65l-3.7-1.65-.85-1.05-.85.2-3.8-1.45-1.15-1.05v-.1l.25.2.75-1" transform="translate(-20.3 221.25)"/><path fill-rule="evenodd" fill="#94949c" d="m194.75-114.6-.35.25h-.05.05-.05l-.55-.2q-1.85-.7-3.65-1.35l-.45-.55-3.9-1.65-1 .4-.65-1-3.65-1.55-1.1-.35v-.1l-.2-.05.05-.05.2-.8 1.15 1.05 3.8 1.45.85-.2.85 1.05 3.7 1.65h.65l3.4 1.6.9.4" transform="translate(-20.3 221.25)"/><path fill-rule="evenodd" fill="#a9aab3" d="m189.25-113.9-.45-1.45-1.6-.75-.1-.05-.1.05-1.1-.05-1.1-.55-.4-.4-.65-.05-4.35-2.2-.05-.05.05-1.2 1.1.35 3.65 1.55.65 1 1-.4 3.9 1.65.45.55q1.8.65 3.65 1.35l-2.75.9-.65-.25h-1.15" transform="translate(-20.3 221.25)"/><path fill-rule="evenodd" fill="#cfc6b5" d="M194.3-114.3q-2 1.1-4 .95l-1.05-.55h1.15l.65.25 2.75-.9.55.2-.05.05m-7.3-1.8-1.3.4-5.7-2.95-.6-.7 4.35 2.2.65.05.4.4 1.1.55 1.1.05" transform="translate(-20.3 221.25)"/><path fill-rule="evenodd" fill="#b3b4bd" d="m194.4-114.35-.1.05.05-.05h.05" transform="translate(-20.3 221.25)"/><path fill-rule="evenodd" fill="#d08133" d="m174.35-124 3.55 1.4-.25.25-.2.35-3.5-1.55.05-.15h.05l-.05-.05v.05-.05l.35-.25" transform="translate(-20.3 221.25)"/><path fill-rule="evenodd" fill="#86521e" d="m177.1-121.4-3.3-1.55.15-.6 3.5 1.55v.7l-.35-.15v.05" transform="translate(-20.3 221.25)"/><path fill-rule="evenodd" fill="#53597b" d="m172.65-124.3.75-.5 1.25.55-.3.25-.35.25v.05l-1.35-.6" transform="translate(-20.3 221.25)"/><path fill-rule="evenodd" fill="#ad9c78" d="m174-123.75.05.05H174v-.05" transform="translate(-20.3 221.25)"/><path stroke-width=".05" stroke-linejoin="round" stroke-linecap="round" stroke="#21201f" fill="none" d="m160.35 98.55-.2.2m-1.1 3.1-.15 2.25-1.5-1-.6-3.25m-3.4-1-1.3-.6.25-1.3.75-.5 1.25.55m3.25 1.65.1-.05.25-.05h.05q.4-.05.75.3l.4.7m-1.8-1.15 2.65-1.85 1.55.5-1.2 1.5m-.95 1.2.75-1m-1.25 1.8v-.05l.05-.05.2-.8v-.1m-.05 1.1-.05 1.2m.05-1.2v-.1m-.2 0-.65.3q-.4 0-.75-.3l-.35-.6v-.7l.2-.35.25-.25m-.8 1.15v.05m-3.1-2.35.05.05m-.05 0v-.05.05"/><path stroke-width=".05" stroke-linejoin="round" stroke-linecap="round" stroke="#82838a" fill="none" d="m167.95 102.4-.25-.1-.65-1.7-6-2.05h-.7m7.6 3.85 1.4.55 1.2-1.05 1.1.35q1.85 1.95 2.8 4.4l-.35.25-.1.05q-2 1.1-4 .95l-1.05-.55-.45-1.45-1.6-.75h-.2l-1.3.4-5.7-2.95-.6-.7-.05-.05m7.85 3.3-.1-.05-.1.05m7.35 1.75-.05.05m.05-.05h.05"/><path stroke-width=".05" stroke-linejoin="round" stroke-linecap="round" stroke="#705934" fill="none" d="m157.15 99.25-3.5-1.55"/><path fill-rule="evenodd" fill="#594466" d="m218.1-121.8.75-.95 6.1-3.75 7-3.35 6 2.35 3.25 6.65-1.9 5.75-5.25-5h-3.5l-9.85 8.85-8.75 9.8-2.75.1-8.4 4.1 1.05-3.75 16.25-20.8m66.5 16.25 6.35 5.55 1.85 6.6-1.35 4.95-1.4 4.95-6.5 10.5-5.6 3.35-3.65 1.55-4-4.6 2.4-.9 3.6-2 6.95-12.85.95-5.15-3.9-4.75-6.5 1.25-13.4 18-5.95 8-5.4 2.75-11.45-1.25h-.05l-28.35-3.15-3.15-1.5-1.85-3.4 46.35 3.05 22.05-30.45 12-.5m30.05 150.4 2.95 3.55v6.25l-3.5 4.5-2.15-4.4-2.1-4.35-5-2.75h-7.5l-4-4.4 2.25-3.1-11.75-37v-14l1.75-2 9.25-14.75L307.8-29l1.95 3.3-2.05 5.35-.35-3.9-5.5-2.1-6.75 2.5-9.65 15.35 2.15 12 10.35 33.75h10.4l6.3 7.6M186.75-42.4l.05.25.75 5.15-.9 1.1v.05-.05l-19.2-6.4 1.35-1h.05l17.9.9m.7 11.8 2.1.9 1.4 2.8-2.5 3.5-3 .3-11.7 1 2.05-7.65-4.25-7.8 15.9 6.95m.35 17.35-.1 7.75h-14.5l.4-9.1v-.65l-2.2-2-2.2-2 16.25-1.1v.6l2.4 2.8-.05 3.7m-61.15-87.7-.05 7.8-6.3 18.5-6.5 7.75 2.45-6.1 3.95-10 2.9-16.75-12.5-21.65v-7.45h5.85l6.15 4.45-2.15 2.65-3.5-.05-1 2.45 2.2 3.35-.35 1.6 8.85 13.45M86.55-85.5l7.25-1.15-3.3 7.25.8 2.4 4.15 2.85-6.3-2.4-2.6-4.85v-4.1m97.35 15.9-11.25 2.45-11.5-3.55-1.1-4.95h20.9l2.1 2 .85 4.05m3.2 10.25-8 3.75-19-3.75h27m5 8-15.25 1-9-4.75 24.25 3.75M89.7-81.75l.8 2.35-.8-2.35m86.4 97.9h16.1l.4 1-1.65 3.75-16.6-.15 1.75-4.6" transform="translate(-20.3 221.25)"/><path fill-rule="evenodd" fill="#cecab7" d="m239.3-115.1 1.9-5.75-3.25-6.65-6-2.35-7 3.35 11.95-17.8 41.45-17.05-15.25 24.5h2.75l100.5-32.25-46 36-18.25 7-18.25 7 28.25 8.5h53.25l13.75 13.25-65.75-4.25-11.75 10-10.15 3.15 10.15-3.15L321-76.7l12.85 9.85 37 41.25 19 8.75-34.25-11-19-12-5.3-.25-5.25-.25v-22l-1.5-2.65-8.7 23.1-22-6.7-16.9-7.55-3.4-7.6 5.5 1.1-4.75-5.45 3.65-1.55 5.6-3.35 6.5-10.5 1.4-4.95 1.35-4.95-1.85-6.6-6.35-5.55-2.4-2.1-8.15-2.1-4.5 1.65-1.9 1.95-7.8-1.1-10.3-1.5-8.85-5-1.4-1.35m-1.35-12.4 13.65-9.35h11.5-11.5l-13.65 9.35m-52 397.25-.2.3-4.15 5.05 13.75-20.7 30.25-74 .3-3.5 5.45-72.25-18.25 26.5V109.4l-10.75 39-15.8 20.2-24.45 31.3 6.9-25.65 11.35-42.6v-54l-35.25 27.5 15.25-30.5 5.5-31 7.95-16.45-2.7 32.45h8l6.1 2.5 3.9-1.75 1.85-39.5 1.65-3.75-.4-1h6.6l3-2.75-.3-2.75 5.9-1-6.05 99.35L218 6.35l4.7-2.25 5.4 37.05-2.65-39.1 6.1-4.7L251.8 61.1l-.45 6.3-7.25 9.75v17.5l2.5 2.25 4.75-4.5-10.75 81-34.75 65.75-19.9 30.6M114 100l.85-7.85 17.5-26.7 7.2-52.95 14.8-20 1.2 3.35 1.8 2.1-13.5 17.7L132.4 65.4l4.2-6.5 15-48.25 6.3-12.05 5.9 6.9 3.7 2.2-22.4 52.45L114 116l-2.15 2.9L114 100M244.15-18.35l1.7-3.25 13.2 20.35 12.25 40.6 1.15 7.9-.55.2L256.85 1.4l-12.7-19.75m-5.1 9.95.9-1.75 30.1 57.5v.8l-5.2 2.1-25.8-58.65m-38.7 123.55 1-6.15-1 6.15m-68.5-46.25.5-3.45.05-.05-.05.05-.5 3.45M232.1 94.65l-.75 10 .75-10" transform="translate(-20.3 221.25)"/><path fill-rule="evenodd" fill="#464544" d="m211.95-101.45 8.75-9.8 9.85-8.85h3.5l5.25 5 1.4 1.35 8.85 5 10.3 1.5-16.65 2.4 1.15 4.25-10 5.5-25.15 4.45V-94l2.75-7.45m-99.9-6.65 6.15 10.6v8.9l-6.1 13.25-5.15 2.45-11.5-1.25L91.3-77l20.75-31.1" transform="translate(-20.3 221.25)"/><path fill-rule="evenodd" fill="#7d714f" d="M218.1-121.8 201.85-101l-1.05 3.75-1.1 3.75h-8l-2.25-2.75 3.25-5.35.05-.05 7.3-12.1v-5.15l-4.35-4.35-8.5 2.6-16.4 18.15-4.75 3.6-4.85 3.65q-2.85-1.15-5.75-2.35l-5.4 6.2-11.1-1.6-3.9-1.15-4-5h-3.25l-1.15-1.8-8.85-13.45 9.2 2.4 4.55 8.4 5.5 2.85h6.75l5.9-4.6 1.6-3.75 7.7-17.2 7.35-9.8v-10.55l.5.15 11.75 5.65 10-2.75 9.05-9.75 1.95-2.15h.05l2.45-2.05-1.75-13.35-6.1-1.05-3.05-.5 6.6-8.85-3.5-12.2-9.3-10.8.6 15.3-2.85-.25v-24.55l12.8 15.8 7.75 19 8.3 9.4 10 23.25-3.5 24.55m-16.25-56.95-4.05-2.55 4.05 2.55m-66-26.6h13.75l15.15 16.7-5.8 1.15-8.5-12.2-7.25-2.8-7.35-2.85m14.1 38.65 8.05 3.1 15.9-6.15-15.95 11.25-2-2.85-6-5.35" transform="translate(-20.3 221.25)"/><path fill-rule="evenodd" fill="#7b7767" d="M302.1-126.1h39.5l-21.5 15.5h-8l-28.25-8.5 18.25-7M138.55 133.85l-6.2 3.55-35.5 22.5 25.55-34.1 4.95-2.15 3.25-8.25v10q10.15-5.35 20.25-10.75l-12.3 19.2" transform="translate(-20.3 221.25)"/><path fill-rule="evenodd" fill="#e7d292" d="M326.05-20.35V-6.6l-15 13.2-8.1 7.15-1.2-4.05 15.95-35 6.85-39.7 1.5 2.65v42m10.05 15.2-6.9 26-16.4 11.35-1.8 1.2 14.95-17.65 10.15-20.9" transform="translate(-20.3 221.25)"/><path fill-rule="evenodd" fill="#a4a193" d="m301.6-91.6 11.75-10 35 19.25L321-76.7l-19.4-14.9m29.7 51.5 22.55 28.5-25.25-8.75h-2.55v-20l5.25.25m-61.95 152.75-17 61.7-25.25 44.75-41.15 50.65 19.9-30.6 34.75-65.75 10.75-81 4.75-4.5 5.8-9.55 2.1-1.2 1.85 8.5v5.5l-2.1 8.35-6.15.9-5.75 9 8.75 7.7 10-5.85-1.25 1.4M307.8-29l-1.95-3.25-9.25-1.4-7.05 6.25L280.3-44v-4.5l-3.35-7.65 16.9 7.55 22 6.7-6.1 16.2-1.95-3.3m-63.65 10.65 12.7 19.75 15.05 46.05-1.85.7v-.8l-30.1-57.5 4.2-8.2m-12.6 15.7 7.5-5.75 25.8 58.65-3 1.15-7 8.75-3.5 7.25.45-6.3-20.25-63.75m-13.55 9L201.35 109l6.05-99.35 5.9-1.05 4.7-2.25m4.7-2.25 2.75-2.05 2.65 39.1-5.4-37.05m-50.6 10.8 1.85 1.25h2.15l-1.75 4.6-.55 6.45-7.95 16.45-13 20.25L114 116l31.1-55.85L167.5 7.7l3.75 2.2.45 2.5.4 2.5M157.35-2.05l.55.65-6.3 12.05-15 48.25-4.2 6.5 11.45-49.75 13.5-17.7" transform="translate(-20.3 221.25)"/><path fill-rule="evenodd" fill="#a37f9d" d="m200.8-97.25 8.4-4.1 2.75-.1L209.2-94v6.75l4.85 4.75 24.9 2.4 5.85-1 15-16.9 7.85-8.15 1.9-1.95 4.5-1.65 8.15 2.1 2.4 2.1-12 .5-22.05 30.45-46.35-3.05-5.25-9.6v-3.6l.75-2.65 1.1-3.75m88.75 69.85 7.05-6.25 9.25 1.4L307.8-29l-12.95 1.4-9.25 14.75-1.75 2v14l11.75 37-2.25 3.1-6.45-20.5-4.5-14.3-.3-.95-1.3-7.4-1.85-10.6 3.6-6.15 3.4-5.9 2-3.45 1.6-1.4M207.1-65.6l2.7 12.1-4.75 4-9 4.1h-9.75l.45 3-17.9-.9-3.4-4.6-11.75-2.85-1.9-2-5.75-17.65 1.4-1.35 8.5 4.35 6.25 1.65-1.05-4.95 11.5 3.55 11.25-2.45.8 4.1h6.85l11.25-2.65 2.25-1.15 1.4-.7v1.5l.65 2.9m-20.45 29.75-1.45 1.7 2.25 3.55-15.9-6.95-2.4-1.05-1.95-3.55.25-.15 19.2 6.4v.05m-1.2 12.75v2.75l-16.25 1.1 1.15-2.55 3.4-.3 11.7-1M89-69.3l-5.05-3.35-1.15-7.85 3.75-5v4.1l2.6 4.85 6.3 2.4 11.5 1.25 5.15-2.45 6.1-13.25v-8.9l-6.15-10.6-4.8-8.25-1.4-2.4v-3.35l4.75-6.75v7.45l12.5 21.65L120.2-83l-3.95 10-18.5 7.4-6.3-2.05L89-69.3m81.45 24.8-1.6 1.2 1.6-1.2m21.65-6.85-24.25-3.75 9 4.75 15.25-1m-5-8h-27l19 3.75 8-3.75M173.8 27.2l.55-6.45 16.6.15-1.85 39.5-3.9 1.75-6.1-2.5h-8l2.7-32.45" transform="translate(-20.3 221.25)"/><path fill-rule="evenodd" fill="#302f2d" d="m311.05 6.6 1.1 11.05-2.5 2.4-6.7-6.3 8.1-7.15m1.75 25.6 1.85 12.65-5.4-10.2L311 33.4l1.8-1.2m-8.85-47.6-2.1-10.95 5.5 2.1.35 3.9-3.75 4.95M260.4-79.1l13.4-18 6.5-1.25 3.9 4.75-.95 5.15-6.95 12.85-3.6 2-2.4.9-3.75-4.3 1.75-.75 3.75-.75-2.35-1h-5.9l-3.4.4m-15.5 42.3 3.4 3.95-1.75 9.85-.7 1.4-1.7 3.25-4.2 8.2-.9 1.75-7.5 5.75-6.1 4.7 2.1-15.55 9.65-6.9 7.7-16.4M118.15-116l-2.2-3.35 1-2.45 3.5.05-1.5 1.75-.8 4m64.3 18.6h-3.1q-1.95-.9-3.9-1.85l3.9-4.65 4.6-2.25 3.75 1.15v3.85l-5.25 3.75" transform="translate(-20.3 221.25)"/><path fill-rule="evenodd" fill="#5a5e61" d="m259.85-107.25 7.8 1.1L259.8-98l-15 16.9-5.85 1-24.9-2.4-4.85-4.75v-3.4l25.15-4.45 10-5.5-1.15-4.25 16.65-2.4M301.75 9.7l1.2 4.05 6.7 6.3-2.45 2.3-.65.85 2.7 11.45 5.4 10.2-6.3-7.6h-10.4L287.6 3.5l-2.15-12 9.65-15.35 6.75-2.5 2.1 10.95-6.9 9.05 4.7 16.05M282.4 8.45l4.5 14.3h-5.45l-4 3.6-3.1-10.6.9-1.3L278.2 10l4.2-1.55" transform="translate(-20.3 221.25)"/><path fill-rule="evenodd" fill="#fbf0cc" d="m312.15 17.65 23.95-22.8-10.15 20.9L311 33.4l-1.75 1.25-2.7-11.45.65-.85 2.45-2.3 2.5-2.4M324.55-65l-6.85 39.7-15.95 35-4.7-16.05 6.9-9.05 3.75-4.95 2.05-5.35 6.1-16.2 8.7-23.1M158.9-87.25 154.45-82l-4.4-9.4 5.4-6.2q2.9 1.2 5.75 2.35l-1.5 7-.8 1m-23.85-6.9-3.75 6.25-3.5-6.85v-4.4h3.25l4 5" transform="translate(-20.3 221.25)"/><path fill-rule="evenodd" fill="#99793f" d="m155.7-27 1.85-.65v-7.75L150-44.8l5.7 2.3 11.1 2.85q1.15.5 2.35 1.05l2.4 1.05 4.25 7.8-2.05 7.65-3.4.3-7.15.65-7.5-5.85m-17.25-34.95-2.5 6.45-3.5-5.75-6.1 35.75-.25-2.1 1.25-32.75-4.75-6.55h-2.8l-8.25 4.5h-8.7l.75-.85-1.55-1 1.55 1-.75.85L99.7-59l14.7-1-3.1 3.95-.95 1.2.95-1.2 11.15 1.7-3.9 7.7-15.6 17.5v5L97.7-20.5l-1.15 6.75-2.6-5.5-1.4-.65v5.5l-12.1 9-1.65-13.25-15.35 8.5L67.2-20.4l-8.65-1.65 5.4-.85-9.55-8 9.4 4.05h16.9l6.95-5.25-.8-14-6.75-8.4v7l-1.85 12.9-1.15 2.5v-23.5l-5.75 17.25L66.85-54l8.1-13.45 3.9-12.1-1.4 8.3 2.65 2v7.75l2.55.7 2.55.7 1.75 3.55.7 1.45-.7-1.45h4.25L98.95-53l3.4 6.75-6-3.25-8.7-5.6 5.2 10.75.05 8.8-.3.6 19.15-9.35 3.15-8.8-6.85.6v-3.9L89.3-59.5l5.85-5.1h5.8-16L89-69.3l2.45 1.65 6.3 2.05 3.2 1 1.1.35 5.8-.2 5.95-2.45 6.5-7.75 6.3-18.5.05-7.8 1.15 1.8v4.4l3.5 6.85 3.75-6.25 3.9 1.15 11.1 1.6 4.4 9.4 4.45-5.25 9.8 4.85h10.5l6-3.6 6.5-7.5h8l-.75 2.65v3.6l5.25 9.6 1.85 3.4 3.15 1.5 28.35 3.15v.05l.05-.05 11.45 1.25 5.4-2.75 5.95-8 3.4-.4h5.9l2.35 1-3.75.75-1.75.75 3.75 4.3 4 4.6 4.75 5.45-5.5-1.1-7.1-5.85-6.85-1.05V-57l-4.25-7.3-4.25 3.2-3.7-.65 1.2 22.9-6.5-9.75v-7.25l-.8-6.95-6.1-1.05.75-1.85-4.35 1.2-10.15 2.75-14.35-3.85-.65-2.9V-70l-1.4.7-12.45-7-8.7 6.7-.85-4.05-2.1-2h-20.9l1.1 4.95-14.05-7.9-11.75 3-1.2 6 4.3 7.65M280.8.1l1.3 7.4.3.95-4.2 1.55-2.95 4.45-4.45-1.3L280.8.1m-13.1-70.7-3.05-2.75-5.05 2.7 5.05-2.7 3.05 2.75m1.5-1.75 1.1-.35-1.1.35m3.35 4.95 1.75-.7-1.75.7M186.8-42.15h16.05l7 4.15 10.5-3.35-4.75 8.2-9.25 4.8-19.7-7.5v-.05l.9-1.1-.75-5.15m2.75 12.45 8.4 3.7v1.75l-9.5.85 2.5-3.5-1.4-2.8m-4.1 9.25 32.65-2.4-18.5 10.75-11.8-1.15.05-3.7-2.4-2.8v-.7m12 14.95 5.9-.35 28.3-11.4 4.7-14.35-7.3-8.1-5.5 6.6-.05-.05 9.35-21.35 1.7-2.6v15.9l1.15-6.45 9.2 10.85-7.7 16.4-9.65 6.9-9.25 6.6-15.75 6-2.2.2-.3-2.9-2.6-1.9m34.15-59 4.35-1.2-.75 1.85-4.85 3.6-21.65 18.9 4.5-7.65 18.4-15.5m22.5 33.75v-4.75l-4-14.25 8.15 2.9 6.6 8h-6L261.7-19l5.6-7.25-3.4 10.6-2.2-3.35-7.6-11.75m-16.55-38.8-1.6 3.85 1.6-3.85M234.35-40l.2-1.2-.2 1.2M263.7-.25l7.85-17-4.15 17h-3.7m3 2.75 8.4-10.85-1.35 7.25-1.55 7.6-5.5-4M49.8-71.95l.9 2.7.7 7.25-4.95-1.05-6.5-1.45 1.75-3.4 8.1-4.05m-8.1 4.05 4.75 4.85-4.75-4.85m8.55 21.55-4-4.55 10.85 4.55h5.6l-8.25 3.85-3.3-2.95-.9-.9m74.1-30 8.25 4.05 1.55 2.7-1.55-2.7-8.25-4.05m43.1 34.05-19.85-6.8 21.2 5.8-1.35 1m-10.3 22.65-1.95-1.95 16.2 4.35 2.2 2v.65l-7.5-.75-3.4 1.2-5.55-5.5m2.8 9.75 9.5 5.3-.6.5.55 3.05-9.45-8.85M70.8-82.3l7.3-.95L74.7-78l-1.45 2.15-1.3-3.4-1.15-3.05m1.8 25.95 4.35-11.9.5-3-.5 3-4.35 11.9M74.7-78l-2.75-1.25L74.7-78m5.4 16.5v7-7m46.7-21.1 5.8 10.3-5.8-10.3" transform="translate(-20.3 221.25)"/><path fill-rule="evenodd" fill="#a19180" d="M311.95 54.75v30.9l-2.4 3.75-2.45 3.75-3.5 9h-5.85l-2.9 4.75-11.65 3.55-7.35 5.45-6.5-3.25 1.25-1.4-10 5.85-8.75-7.7 5.75-9 6.15-.9 2.1-8.35 11 3.5 8.25-7 4.75 5 11.75-4.25 5.65.75 1.2-31.9-5.35-1.85-15.5-14-7.4 2.75V38.1l-1.25-10.6-1.5-1.15 4-3.6h5.45l6.45 20.5 4 4.4h7.5l5 2.75 2.1 4.35m-35-110.9 3.35 7.65v4.5l9.25 16.6-1.6 1.4-2 3.45-4.3-12.55-6.35-9.15-4.35 3.65 1.75-6.65H263l-3.4-3.25v-20.15l6.85 1.05 7.1 5.85 3.4 7.6M191.7-93.5l-6.5 7.5-6 3.6h-2.4l8.3-15 7.6-4.2-3.25 5.35 2.25 2.75m88.6 50.75V-44v1.25m-10.2 5.5h5l-2.9 6.35-3-3 .9-3.35m3.15 10.75h7.35l-1.45 8.55-3.35-1.3v-2.25l-4.85-1.65 2.3-3.35M244.1 94.65l8-15.75 10-10.25 1.9 8.5-2.1 1.2-5.8 9.55-4.75 4.5-4.75 4.5-2.5-2.25m65.45-5.25-2.3-.25 2.3.25M53.95-128.35l13.9 9.5v3.6l.6-.6 8.1-3.65 2.9-7.75h1v11.5l7.25 7-1.5 7-.75.9-12 7.1-4.65 6.25 1.6 4.1.4 1.1 1.15 3.05 1.3 3.4-6.15 9.35-3.5-3.5-1.7 3.95-14.95-13.6-2-5.1-4.1-4.25v-.05l7-1.75-11.15-11.8 13.25 11.25h1l3.1-2.4 2.9-2.65 2.5-1.7-14.15-12.75 16.25 9.35 2.5-1.75 4.4-1.5-1.4 4.15-6.35 1.95-1.25.55v1.85l-1 .9-4.4 4h-3.1L47.2-87.6l-6.35-1.45 6.35 1.45 3.75-3.75h3.1l4.4-4 1-.9v-1.85l1.25-.55 6.35-1.95 1.4-4.15h5.25l6.35-4.75.4-1v-5.25 5.25l-.4 1-6.35 4.75h-5.25l-14.5-23.6m20.6 10.95-8.6 4 8.6-4m91.5 18.5 4.75-3.6 16.4-18.15 8.5-2.6 4.35 4.35v5.15l-7.3 12.1-2.9-5.55h-8.8l-9.65 9.6-5.35-1.3m1.3 12.8L164.6-89l3.1 1.75 6.15-2.25-6.5 3.4M63-88.2l5.8.7-5.8-.7-7.95 3.45h-10.1 10.1L63-88.2l-2.55-.3-1.9-4.5-.1-2.35.1 2.35 1.9 4.5 2.55.3m220.2 198.65 5.9-8.55-5.9 8.55m17.4-13.05-2.85 4.75 2.85-4.75m-42.5 6.3h4.6l1.05-4.2-1.05 4.2-1.1 4.2 1.1-4.2h-4.6m12.5 7.55 9.75-10.85-9.75 10.85" transform="translate(-20.3 221.25)"/><path fill-rule="evenodd" fill="#bfa464" d="m155.2-21.6-1.9-1.9 2.4-3.5 7.5 5.85 7.15-.65-1.15 2.55 2.2 2-16.2-4.35M150-44.8q-4.3-1.7-8.55-3.45l1.35-6-4.35-7.7-4.3-7.65 1.2-6 11.75-3 14.05 7.9 1.05 4.95-6.25-1.65-8.5-4.35-1.4 1.35 5.75 17.65 1.9 2 11.75 2.85 3.4 4.6h-.05l-21.2-5.8 19.85 6.8-.25.15 1.95 3.55q-1.2-.55-2.35-1.05l-11.1-2.85-5.7-2.3m-23.9 17.2-3.65-26.75-11.15-1.7 3.1-3.95-14.7 1 3.15-3.4h8.7l8.25-4.5h2.8l4.75 6.55-1.25 32.75m156.45 10.95-3.6 6.15L280.8.1l-10 13.05 1.4-6.65 1.55-7.6 1.35-7.25-8.4 10.85.7-2.75 4.15-17-7.85 17L260.45-5l3.45-10.65 3.4-10.6-5.6 7.25-2.85-19.85h6l-6.6-8-8.15-2.9 4 14.25v9.5l-5.8-6.85-3.4-3.95-9.2-10.85-1.15 6.45v-21.05l.65-1.6-.65 1.6v5.15l-1.7 2.6-9.35 21.35v.05-.05l.05.05 5.5-6.6 7.3 8.1-4.7 14.35-28.3 11.4-5.9.35h-9.75l.1-7.75 11.8 1.15 18.5-10.75-32.65 2.4v-2.65l3-.3 9.5-.85V-26l-8.4-3.7-2.1-.9-2.25-3.55 1.45-1.7 19.7 7.5 9.25-4.8 4.75-8.2-10.5 3.35-7-4.15H186.8l-.05-.25-.45-3h9.75l9-4.1 4.75-4-2.7-12.1 14.35 3.85 10.15-2.75L213.2-49l-4.5 7.65 21.65-18.9 4.85-3.6 6.1 1.05.8 6.95v7.25l6.5 9.75-1.2-22.9 3.7.65 4.25-3.2 4.25 7.3v6.5l3.4 3.25h9.7l-1.75 6.65-.85 3.35-.9 3.35 3 3 5.25-1.85-4.2 6.25-2.3 3.35 4.85 1.65v2.25l3.35 1.3 3.4 1.3m-55.6-18-3.4 1.55 3.4-1.55M263-47.25l3.45 3.3-8.2-2.9 8.2 2.9-3.45-3.3m-25.45-22.3v-.05h.05l-.05.05M223.2-32.5l.3-.6h.05-.05l-.3.6m44-10.75-.75-.7.75.7M70.4-83.4l1.7-.85h7.5l-.75 4.7-3.9 12.1L66.85-54l4.5 15.65L77.1-55.6v23.5l1.15-2.5 1.85-12.9v-7l6.75 8.4.8 14-6.95 5.25H63.8l-9.4-4.05-1.2-1-2.95-14.45.9.9 3.3 2.95 8.25-3.85h-5.6L46.25-50.9l-1.15-1.25 6.6-1.35-19.5-9.15L46.7-73.4l2.2-1.2.9 2.65-8.1 4.05 2.75-2.25-2.75 2.25-1.75 3.4 6.5 1.45L51.4-62l7.95 1.75 2.55-5.8L63.6-70l3.5 3.5 6.15-9.35L74.7-78l3.4-5.25-7.3.95-.4-1.1m12.25 22.6v-1.45l6.7-2.35h5.8l-5.85 5.1 18.75 3.1v3.9l6.85-.6-3.15 8.8-19.15 9.35.3-.6-.05-8.8-5.2-10.75 8.7 5.6 6 3.25-3.4-6.75-7.75-3.55h-4.25L85.2-60.1l-2.55-.7m122.4-8.5-2.25 1.15-11.25 2.65h-6.85l-.8-4.1 8.7-6.7 12.45 7m-47.9 49.65 5.55 5.5 3.4-1.2 7.5.75-.4 9.1h-2.65l-1.1.9-9.5-5.3-1.3-3.45-1.5-6.3M114.4-60l1.2-1.5-1.2 1.5m-56.05 9-18.4-13.5L58.35-51" transform="translate(-20.3 221.25)"/><path fill-rule="evenodd" fill="#dac7af" d="m285.95-22.55-3.4 5.9-3.4-1.3 1.45-8.55h-7.35l4.2-6.25-5.25 1.85 2.9-6.35h-5l.85-3.35 4.35-3.65 6.35 9.15 4.3 12.55M176.8-82.4h-8.1l-9.8-4.85.8-1 1.5-7 4.85-3.65 5.35 1.3 5.4 1.3 8.3-1.1-8.3 15m95.1 129.85.55-.2 7.75-3.1 7.4-2.75 15.5 14 5.35 1.85-1.2 31.9-5.65-.75-11.75 4.25-4.75-5-8.25 7-11-3.5v-5.5l-1.85-8.5-1.9-8.5-10 10.25-8 15.75v-17.5l7.25-9.75 3.5-7.25 7-8.75 3-1.15 5.2-2.1 1.85-.7m13.2 31.45v8.75-8.75M28.45-119.25v-5.35l4.5-2.9h5.5v-6l5.6-2.85h8.25l1.75-5.5 2.65-1.65 5.5 1.25 18.25 14.4v.6h-1l-2.9 7.75-8.1 3.65-.6.6v-3.6l-13.9-9.5 14.5 23.6-4.4 1.5-2.5 1.75-16.25-9.35L59.45-98.1l-2.5 1.7-2.9 2.65-3.1 2.4h-1L36.7-102.6l11.15 11.8-7 1.75h-.05.05v.05l-.05-.05-2.25-.55-16-19-1.25-5.65 1-4 6.15-1v1.4-1.4M66.55-105l-2.5 1.75 2.5-1.75M48.9-74.6l-1.95-5.05 14.95 13.6-2.55 5.8L51.4-62l-.7-7.25-.9-2.7-.9-2.65m118.45-11.5 6.5-3.4-6.15 2.25-3.1-1.75 2.75 2.9" transform="translate(-20.3 221.25)"/><path fill-rule="evenodd" fill="#4a4946" d="m154.35-7.5-2.8-7.75 3.65-6.35 1.95 1.95 1.5 6.3 1.3 3.45 9.45 8.85 1.85 10.95-3.75-2.2-3.7-2.2-5.9-6.9-.55-.65-1.8-2.1-1.2-3.35m73.2-6-2.1 15.55-2.75 2.05-4.7 2.25-4.7 2.25-5.9 1.05-5.9 1L200.35-.7l2.2-.2 15.75-6 9.25-6.6M192.1-.45h.15L193.7.6l1 9.7-1.7 1.55h-14.15l-1.05-.7-.05-.1-1.8-10.7.95-.8h15.2" transform="translate(-20.3 221.25)"/><path fill-rule="evenodd" fill="#a19166" d="m164.75-188.65 7.85-1.5 7.8.7-2.85-30.8 5.2 6.45v24.55l2.85.25 12.2 7.7-6.6 8.85 3.05.5 2.4 3.45-3.1 6.45-30.25 8.4h-6.6l3.25 4.75 6.4 2.25v10.55l-7.35 9.8-7.7 17.2-1.75.25h-7.25l-10.35-1.9-5.15-2.85v1.25l.2.35-9.2-2.4.35-1.6.8-4 1.5-1.75 2.15-2.65 18.95-22.75 8.55-1.35 2.75-2.25-6.75-8.95-5.25-3.7-4.55 3 .55-6.5 3.55-2.6 2.05-6 2.5-2-2.35-17.6-6.75-10.25 7.35 2.85 5.1 10.2v12.1l8.65-6.95 2-.35 5.8-1.15m-19.8 11.15 3.35-2.7-3.35 2.7m-7.6 47.25L126.8-113.6l10.55-16.65m38.6-41-2.05 1.5 2.05-1.5m6.8-18-2.3-.2h-.05.05l2.3.2M188.2-173l3 .55-3-.55m-47.8 3.5 3.55-2.6 6 5.4-6-5.4-3.55 2.6m33.5-.25L158-163.6l-8.05-3.1 6 5.35 2 2.85 15.95-11.25" transform="translate(-20.3 221.25)"/><path fill-rule="evenodd" fill="#351d00" d="m127-112-.2-.35v-1.25l5.15 2.85 10.35 1.9h7.25l1.75-.25-1.6 3.75-5.9 4.6h-6.75l-5.5-2.85L127-112" transform="translate(-20.3 221.25)"/><path fill-rule="evenodd" fill="#645840" d="m185.6-189-.6-15.3 9.3 10.8 3.5 12.2-12.2-7.7m-26.65 1.5-2 .35-8.65 6.95v-12.1l-5.1-10.2 7.25 2.8 8.5 12.2" transform="translate(-20.3 221.25)"/><path fill-rule="evenodd" fill="#5c533a" d="m141.55-147.15-5.85-6.75.6-6.5 4.55-3 5.25 3.7 6.75 8.95-11.75-7 4.25 7.9 4.75 1.35-8.55 1.35m24.8.5-6.4-2.25-3.25-4.75h6.6l30.25-8.4 3.1-6.45-2.4-3.45 6.1 1.05 1.75 13.35-2.45 2.05h-.05l-1.95 2.15-9.05 9.75-10 2.75-11.75-5.65-.5-.15m3.2-2.05-3.2.95 3.2-.95 8.9 3.45L188.6-147l7.1-9.75-26.15 8.05m-30.45-9.05h2-2" transform="translate(-20.3 221.25)"/><path fill-rule="evenodd" fill="#786b52" d="m192.75-101.65-.05.05-7.6 4.2-8.3 1.1-5.4-1.3 9.65-9.6h8.8l2.9 5.55m-10.3 4.25 5.25-3.75V-105l-3.75-1.15-4.6 2.25-3.9 4.65q1.95.95 3.9 1.85h5.75-2.65" transform="translate(-20.3 221.25)"/><path fill-rule="evenodd" fill="#544060" d="m113.8-66.9-5.95 2.45-5.8.2-1.1-.35-3.2-1 18.5-7.4-2.45 6.1" transform="translate(-20.3 221.25)"/><path fill-rule="evenodd" fill="#6d7072" d="m93.8-86.65 13.45-29.7 4.8 8.25L91.3-77l-.8-2.4 3.3-7.25" transform="translate(-20.3 221.25)"/><path fill-rule="evenodd" fill="#ec9606" d="M195-5.5h2.45l2.6 1.9.3 2.9 1.15 11.35.3 2.75-3 2.75h-24.85l-1.85-1.25 23.2-1.15 2.1-.1.15-.25.2-.3V-1.6L195-5.5m-17.25 16.55L174.8 3.2l-1.35-3.5 3.75-2.45L191.95-.5l.15.05h-15.2l-.95.8 1.8 10.7" transform="translate(-20.3 221.25)"/><path fill-rule="evenodd" fill="#fdffc1" d="m195-5.5 2.75 3.9v14.7l-.2.3-2.15-.05 2-12.55-2.4-6.3m.3 19.25-23.2 1.15-.4-2.5 23.7.95-.1.4M174.8 3.2 171-1.4l4.25-4.1 16.7 5-14.75-2.25-3.75 2.45 1.35 3.5" transform="translate(-20.3 221.25)"/><path fill-rule="evenodd" fill="#ffcd2b" d="M187.7-5.5h7.3l2.4 6.3-2 12.55 2.15.05-.15.25-2.1.1.1-.4-23.7-.95-.45-2.5-1.85-10.95-.55-3.05.6-.5 1.1-.9H175.25L171-1.4l3.8 4.6 2.95 7.85.05.1 1.05.7H193l1.7-1.55-1-9.7-1.45-1.05h-.15l-.15-.05-16.7-5h12.45" transform="translate(-20.3 221.25)"/><path fill-rule="evenodd" fill="#959387" d="m225.9 176.9-18.3 24-51.75 39 41.95-64.4-17.2 8.9 5.95-15.8 15.8-20.2 10.75-39v21.75l18.25-26.5-5.45 72.25m-71.25-27.15-36.55 15.9 20.45-31.8 12.3-19.2q-10.1 5.4-20.25 10.75v-10l-3.25 8.25-4.95 2.15-87.55 37.6L114 100l-2.15 18.9L114 116l38.85-52.1 13-20.25-5.5 31-15.25 30.5 35.25-27.5v54l-16.25 14-9.45 4.1m45.7 24.4-2.55 1.35 2.55-1.35" transform="translate(-20.3 221.25)"/><path fill-rule="evenodd" fill="#696558" d="M169 174.25Q118.9 197.3 68.85 220.4l51.1-31.55v-.05l34.7-39.05 9.45-4.1 16.25-14-11.35 42.6" transform="translate(-20.3 221.25)"/><path stroke-width=".05" stroke-opacity=".212" stroke-linejoin="round" stroke-linecap="round" stroke="#000" fill="none" d="m204.65 94.75-6.1 3.75-.75.95-16.25 20.8-1.05 3.75-1.1 3.75h-8l-6.5 7.5-6 3.6h-10.5l-9.8-4.85-4.45 5.25-4.4-9.4-11.1-1.6-3.9-1.15-3.75 6.25-3.5-6.85v-4.4l-1.15-1.8-.05 7.8-6.3 18.5-6.5 7.75-5.95 2.45-5.8.2 1.55 1-.75.85m109.1-39.05 8.75-9.8 9.85-8.85h3.5l5.25 5 1.9-5.75-3.25-6.65-6-2.35-7 3.35 11.95-17.8 41.45-17.05-15.25 24.5h2.75l100.5-32.25-46 36-18.25 7h42.25m-105.05 11 1.4 1.35 8.85 5 10.3 1.5 7.8 1.1 1.9-1.95 4.5-1.65 8.15 2.1 2.4 2.1 6.35 5.55 1.85 6.6-1.35 4.95 10.15-3.15 11.75-10 65.75 4.25-13.75-13.25H291.8l-28.25-8.5 18.25-7M162.45 7.45l12.8 15.8 7.75 19 8.3 9.4 10 23.25-3.5 24.55m45-15.05h-11.5l-13.65 9.35m83.05 50.8 12.85 9.85 37 41.25 19 8.75-34.25-11-19-12-5.3-.25 22.55 28.5-25.25-8.75h-2.55v13.75l-15 13.2 1.1 11.05 23.95-22.8-6.9 26-16.4 11.35 1.85 12.65 2.95 3.55v6.25l-3.5 4.5-2.15-4.4v30.9l-2.4 3.75-2.45 3.75-3.5 9h-5.85l-2.9 4.75-11.65 3.55-7.35 5.45-6.5-3.25-17 61.7-25.25 44.75L165.65 491m-.2.3-4.15 5.05 13.75-20.7 30.25-74 .3-3.5-18.3 24-51.75 39 41.95-64.4-17.2 8.9 5.95-15.8-24.45 31.3 6.9-25.65q-50.1 23.05-100.15 46.15l51.1-31.55v-.05l34.7-39.05-36.55 15.9 20.45-31.8-6.2 3.55-35.5 22.5 25.55-34.1-87.55 37.6 79.15-63.4.85-7.85 17.5-26.7 7.2-52.95 14.8-20-2.8-7.75 3.65-6.35-1.9-1.9 2.4-3.5 1.85-.65v-7.75l-7.55-9.4q-4.3-1.7-8.55-3.45l1.35-6-4.35-7.7-2.5 6.45-3.5-5.75-6.1 35.75-.25-2.1-3.65-26.75-3.9 7.7-15.6 17.5v5l-5.25 3.65-1.15 6.75-2.6-5.5-1.4-.65v5.5l-12.1 9-1.65-13.25-15.35 8.5 3.75-10.25-8.65-1.65-2 .3m245.05-69.85 19.4 14.9 27.35-5.65-35-19.25m12.7 61.25v-22l-1.5-2.65-8.7 23.1-22-6.7-16.9-7.55 3.35 7.65v4.5l9.25 16.6-1.6 1.4-2 3.45-3.4 5.9-3.6 6.15 1.85 10.6 1.3 7.4.3.95 4.5 14.3 6.45 20.5m8.4-33.55 1.2 4.05 8.1-7.15m20.25-46.7-5.25-.25v20m-36.5-7.05 7.05-6.25 9.25 1.4 1.95 3.25 1.95 3.3 6.1-16.2m-11.9 26.5 3.75-4.95-.35-3.9-5.5-2.1-6.75 2.5-9.65 15.35 2.15 12 10.35 33.75h10.4l6.3 7.6m-5.4-10.2-2.7-11.45.65-.85 2.45-2.3 2.5-2.4m-2.4-43.35-2.05 5.35m-47.3-58.75 13.4-18 6.5-1.25 3.9 4.75-.95 5.15-6.95 12.85-3.6 2-2.4.9 4 4.6 3.65-1.55 5.6-3.35 6.5-10.5 1.4-4.95m-23.8-17.7-7.85 8.15-15 16.9-5.85 1-24.9-2.4-4.85-4.75v-6.75l2.75-7.45m48.45 22.35 3.4-.4h5.9l2.35 1-3.75.75-1.75.75 3.75 4.3-1.1.35m-9.6 1.7 5.05-2.7 3.05 2.75m5.85 6.85-7.1-5.85-6.85-1.05v20.15l3.4 3.25h9.7l-1.75 6.65-.85 3.35-.9 3.35 3 3 5.25-1.85-4.2 6.25-2.3 3.35 4.85 1.65V202l3.35 1.3 3.4 1.3m-44.95-52.95 11.45 1.25 5.4-2.75 5.95-8m13.9 11 4.75 5.45-5.5-1.1 3.4 7.6M254 153.15l-1.75.7m-40.95 2.9-10.15 2.75m-14.35-3.85 2.7 12.1-4.75 4-9 4.1H166l.45 3 .05.25m-.15 6.3-1.45 1.7 2.25 3.55 2.1.9 8.4 3.7V197l-9.5.85-3 .3v2.65m2.35 7.2-.1 7.75h9.75l2.6 1.9.3 2.9 1.15 11.35 5.9-1m16.15-42.75 3.4-1.55m8.25-29.2.75-1.85-4.35 1.2m-18.4 15.5-4.5 7.65 21.65-18.9 4.85-3.6-.65 1.6v21.05l1.15-6.45 9.2 10.85 3.4 3.95 5.8 6.85v-9.5l-4-14.25 8.15 2.9 8.2 2.9-3.45-3.3m-27.05-18.45 1.6-3.85.05-.05h-.05l-28.35-3.15-3.15-1.5-1.85-3.4-5.25-9.6v-3.6l.75-2.65m34.85 52.3-.2 1.2m-10.8 6.9h-.05l-.3.6m.3-.65v.05m22.35 11.5-1.7 3.25m27.75 65.8.55-.2-1.15-7.9-12.25-40.6-13.2-20.35.7-1.4 1.75-9.85m-3.4-3.95-7.7 16.4-9.65 6.9-9.25 6.6-15.75 6-2.2.2m25.1 2.75 6.1-4.7 7.5-5.75.9-1.75 4.2-8.2m-11.3-36.15-9.35 21.35m56.8-10.85v1.25m-13.85-1.2.75.7m.1 17-3.4 10.6-3.45 10.65 3.25 4.75m7.85-17-4.15 17-.7 2.75m7.05-3.6-1.55 7.6-1.4 6.65m-6.9-28.8-2.2-3.35-7.6-11.75m21.15 45.2 2.95-4.45 4.2-1.55m-15-8.7h-3.7m8.5 6.75-5.5-4m10.75 23.85 4-3.6h5.45m-6.7 21.4v-6.05l-1.25-10.6-1.5-1.15-3.1-10.6.9-1.3-4.45-1.3m-48.1-9.05-4.7 2.25-16.65 102.65-1 6.15m17.65-108.8-4.7 2.25-5.9 1.05m18.05-7.6-2.75 2.05 5.4 37.05m23.25 26.25 3.5-7.25 7-8.75 3-1.15m-13.5 17.15-7.25 9.75v17.5l2.5 2.25 4.75-4.5 4.75-4.5 5.8-9.55 2.1-1.2 1.85 8.5v5.5m-3.75-22.5 1.9 8.5m21.1 10.5v-8.75m-4.9-34.75 7.4-2.75m19.65 47.75 2.3.25m-39.5-41.25-5.2 2.1m5.2-2.1 1.85-.7m.55-.2 7.75-3.1m-40.25-54.3 30.1 57.5m-38.5-50 20.25 63.75m52.15-76.5-6.9 9.05 4.7 16.05m11.05 22.5-1.8 1.2-1.75 1.25m2.7 20.1-2.1-4.35-5-2.75h-7.5l-4-4.4M321.3 95.15l-21.5 15.5M144.45 32.6l7.85-1.5 7.8.7L157.25 1l5.2 6.45m0 24.55 2.85.25m12.2 7.7 4.05 2.55M60.15 94v-.6L41.9 79l-5.5-1.25-2.65 1.65L32 84.9h-8.25l-5.6 2.85v6h-5.5l-4.5 2.9v6.75m40 2 8.1-3.65 2.9-7.75m1 0v11.5l7.25 7-1.5 7-.75.9-12 7.1-4.65 6.25 1.6 4.1 1.7-.85h7.5l-.75 4.7-1.4 8.3 2.65 2v7.75l2.55.7V159l6.7-2.35h-4.4l4.05-4.7-5.05-3.35-1.15-7.85 3.75-5 7.25-1.15 13.45-29.7-1.4-2.4v-3.35l4.75-6.75h5.85l6.15 4.45 18.95-22.75-5.85-6.75.6-6.5.55-6.5 3.55-2.6 2.05-6 2.5-2-2.35-17.6-6.75-10.25h13.75l15.15 16.7-5.8 1.15-2 .35-8.65 6.95-3.35 2.7m-79 64.1 8.6-4m45.9-4.35-3.5-.05-1 2.45 2.2 3.35.8-4 1.5-1.75 2.15-2.65m-4.45 8.4-.35 1.6 8.85 13.45m.35-11.05-.2-.35v-1.25L117.05 91m-10.55 16.65 5.15 2.85 10.35 1.9h7.25l1.75-.25m15.05-37.55-6.4-2.25-3.25-4.75m37.55-18.3-3.05-.5-3-.55m-7.8-16.45h.05l2.3.2m-8.85 19.5 2.05-1.5m23.7 15.75 2.45-2.05-1.75-13.35-6.1-1.05m3.55-9.35-12.2-7.7M132.55 70.5l-2.75 2.25m-.15-18.2-6-5.4-3.55 2.6m33.5-.25-15.95 11.25m-2-2.85-6-5.35m16.4 20.05.5.15m30.8-6.85 1.95-2.15m-33.25 7.75 3.2-.95 26.15-8.05-7.1 9.75L158.15 76l-8.9-3.45m-16.7-2.05-11.75-7 4.25 7.9 4.75 1.35m-9-9.25h-2m26.95 58.85 4.75-3.6 16.4-18.15 8.5-2.6 4.35 4.35v5.15l-7.3 12.1-.05.05-3.25 5.35 2.25 2.75M8.15 102 2 103l-1 4 1.25 5.65 16 19 2.25.55h.05l6.35 1.45 3.75-3.75h3.1l4.4-4 1-.9v-1.85l1.25-.55 6.35-1.95 1.4-4.15-14.5-23.6M16.4 118.65l13.25 11.25h1m3.1-2.4 2.9-2.65m2.5-1.7L25 110.4m16.25 9.35 2.5-1.75 2.5-1.75M20.5 132.2l.05.05m6.1 9.35 1.95 5.05.9 2.65.9 2.7.7 7.25 7.95 1.75 2.55-5.8m-14.95-13.6-2-5.1-4.1-4.25m.85 21.1 2.75-2.25m2 7.1-4.75-4.85m-1.75 3.4 6.5 1.45 4.95 1.05m-5.15 11.1-1.15-1.25 6.6-1.35-19.5-9.15 14.5-10.75 2.2-1.2m-2.65 23.7 4 4.55.9.9m131.3-51.95h-3.1q-1.95-.9-3.9-1.85l3.9-4.65 4.6-2.25 3.75 1.15v3.85l-5.25 3.75h2.65m-1.2 27.8.8 4.1h6.85l11.25-2.65 2.25-1.15 1.4-.7v1.5l.65 2.9m-45.95-5.1 1.05 4.95-6.25-1.65-8.5-4.35-1.4 1.35 5.75 17.65 1.9 2 11.75 2.85 3.4 4.6 1.6-1.2m13.45-25.1-.85-4.05-2.1-2h-20.9l1.1 4.95m-27 1.1 4.3 7.65M140.9 126l4.85-3.65m1.3 12.8 6.5-3.4-6.15 2.25-3.1-1.75 2.75 2.9M140.9 126q-2.85-1.15-5.75-2.35l-5.4 6.2m8.85 4.15.8-1 1.5-7m-34.2-16.75 4.55 8.4 5.5 2.85h6.75l5.9-4.6 1.6-3.75m-17.15 39.5-1.55-2.7-8.25-4.05m44.8 37.75-1.95-3.55.25-.15 1.35-1h.05m.3 4.7 2.4 1.05 15.9 6.95m-20.65-9.05q1.15.5 2.35 1.05m-13.45-3.9-5.7-2.3m5.2 23.2 1.95 1.95 5.55 5.5m10.9-.45V206l-2.2-2m-14.25-2.4 1.5 6.3 1.3 3.45m9.5 5.3 1.1-.9h2.65l.4-9.1m-4.4-4.65 2.2 2m-1.05-4.55L148.9 202m16.25-1.1v-.1m-22.25-.7 7.15-.65 3.4-.3 2.05-7.65-4.25-7.8m15.1 1.7v-.05l.9-1.1-.75-5.15m2.75 12.45 1.4 2.8-2.5 3.5m-3 3.05v.6l2.4 2.8-.05 3.7m-14.05-8.85 11.7-1M107.5 122.1h3.25l4 5m-23-13.95 6.15 10.6v8.9l-6.1 13.25-5.15 2.45-11.5-1.25-4.15-2.85-.8-2.4-.8-2.35m8.05 16.15 3.2 1 1.1.35m-1.1-.35h-11.6m3.55 29.05-.05-8.8-5.2-10.75-.7-1.45-1.75-3.55-2.55-.7m-2.2-54.95v5.25l-.4 1-6.35 4.75h-5.25m-23.5 20h10.1l7.95-3.45-2.55-.3-1.9-4.5-.1-2.35m10.35 7.85-5.8-.7m10.25 12.35-6.15 9.35-3.5-3.5-1.7 3.95m8.5-17.35.4 1.1m7.3-.95-3.4 5.25-1.45 2.15-1.3-3.4-1.15-3.05m1.15 3.05 2.75 1.25m2.75 6.75-.5 3-4.35 11.9m16.4-12.95 2.45 1.65 6.3 2.05m-17.65 18.1v-14m6.85 4.95h4.25l7.75 3.55 3.4 6.75-6-3.25m-41.95 18.6 9.55 8-5.4.85m-8.3-24.3 2.95 14.45 1.2 1M91 165.2l-.95 1.2m.95-1.2 3.1-3.95-14.7 1 3.15-3.4m19.6 8.05L91 165.2m.75-52.05-4.8-8.25m8.35 54.85-1.2 1.5m-23.9-19.4 3.3-7.25m78.3 101.55 1.85 1.25h24.85l3-2.75-.3-2.75m-9.4-11.1h.15l1.45 1.05 1 9.7-1.7 1.55h-14.15l-1.05-.7-.05-.1m-2.5-16.55h-2.05m18.9 5.05h-15.2l-.95.8 1.8 10.7m-2.5-16.55h12.45M154.05 242l-.55 6.45-2.7 32.45h8l6.1 2.5 3.9-1.75 1.85-39.5 1.65-3.75-.4-1m-17.85 4.6 1.75-4.6m-6.65-20.75-.6.5.55 3.05 1.85 10.95.45 2.5.4 2.5m-14.75-16.95.55.65 5.9 6.9 3.7 2.2 3.75 2.2m-16.9-17.4 1.2 3.35 1.8 2.1m-24.95 67.45 4.2-6.5 15-48.25m17.8-11.7-9.45-8.85m-27.55 75.3-.05.05-.5 3.45m-17.85 47.1 38.85-52.1 13-20.25-5.5 31-15.25 30.5 35.25-27.5v54l-11.35 42.6m-36.4-246.55-5.8-10.3m-86.85 18.1 18.4 13.5m64.05 176.8 4.95-2.15 3.25-8.25v10q10.15-5.35 20.25-10.75l-12.3 19.2m16.1 15.9 9.45-4.1 16.25-14m17.45 43.85 2.55-1.35m-13.8-5.55 15.8-20.2 10.75-39v21.75l18.25-26.5.75-10m-118.1 5.35-2.15 18.9 2.15-2.9m175.85-23.35 11.75-4.25 5.65.75m-9.5 13 2.85-4.75m-11.5 4.5-5.9 8.55m-19.45-10.95-1.05 4.2-1.1 4.2m1.1-4.2h-4.6m11.25 8.95 1.25-1.4-10 5.85-8.75-7.7 5.75-9 6.15-.9 2.1-8.35m14.5 9.25-9.75 10.85m-39.25-6.6-5.45 72.25"/><path stroke-width=".05" stroke-linejoin="round" stroke-linecap="round" stroke="#0f0" fill="none" d="M249.75 268.6v.8M179.3 65.75h.05"/><path stroke-width="2" stroke-linejoin="round" stroke-linecap="round" stroke="#000" fill="none" d="m198.55 98.5-.75.95 3.5-24.55-10-23.25-8.3-9.4-7.75-19-18-22.25 2.85 30.8-7.8-.7-7.85 1.5-15.15-16.7h-13.75l6.75 10.25 2.35 17.6-2.5 2-2.05 6-3.55 2.6-1.15 13 5.85 6.75-18.95 22.75-6.15-4.45H90.3l-4.75 6.75v3.35l1.4 2.4-13.45 29.7-7.25 1.15-3.75 5 1.15 7.85 5.05 3.35-4.05 4.7h4.4l-6.7 2.35v1.45l-2.55-.7V152l-2.65-2 2.15-13h-7.5l-1.7.85-1.6-4.1 4.65-6.25 12-7.1.75-.9 1.5-7-7.25-7V93.4L41.9 79l-5.5-1.25-2.65 1.65L32 84.9h-8.25l-5.6 2.85v6h-5.5l-4.5 2.9V102L2 103l-1 4 1.25 5.65 16 19 2.25.55 4.15 4.3 3.95 10.15-2.2 1.2-14.5 10.75 19.5 9.15-6.6 1.35 5.15 5.8 2.95 14.45 10.75 9-5.4.85 8.65 1.65-3.75 10.25 15.35-8.5 1.65 13.25 12.1-9v-5.5l1.4.65 2.6 5.5 1.15-6.75 5.25-3.65v-5l15.6-17.5 3.9-7.7 3.9 28.85 6.1-35.75 3.5 5.75 2.5-6.45 4.35 7.7-1.35 6q4.25 1.75 8.55 3.45l7.55 9.4v7.75l-1.85.65-2.4 3.5 1.9 1.9-3.65 6.35 2.8 7.75-14.8 20-7.2 52.95-17.5 26.7-.85 7.85-79.15 63.4 87.55-37.6-25.55 34.1 35.5-22.5 6.2-3.55-20.45 31.8 36.55-15.9-34.7 39.05v.05l-51.1 31.55q50.05-23.1 100.15-46.15l-6.9 25.65 24.45-31.3-5.95 15.8 17.2-8.9-41.95 64.4 51.75-39 18.3-24-.3 3.5-30.25 74-13.75 20.7 45.5-56 25.25-44.75 17-61.7 6.5 3.25 7.35-5.45 11.65-3.55 2.9-4.75h5.85l3.5-9 4.85-7.5V276l2.15 4.4 3.5-4.5v-6.25l-2.95-3.55-1.85-12.65 16.4-11.35 6.9-26-23.95 22.8-1.1-11.05 15-13.2V200.9h2.55l25.25 8.75-22.55-28.5 5.3.25 19 12 34.25 11-19-8.75-37-41.25-12.85-9.85 27.35-5.65-35-19.25 65.75 4.25-13.75-13.25H299.8l21.5-15.5h-39.5l18.25-7 46-36-100.5 32.25h-2.75l15.25-24.5-41.45 17.05-11.95 17.8-6.1 3.75m27.7 99.75-.7 1.4 13.2 20.35L251 260.6l1.15 7.9 7.75-3.1v-6.05l-1.25-10.6-1.5-1.15-3.1-10.6.9-1.3-4.45-1.3 1.4-6.65-5.5-4 .7-2.75h-3.7l-3.25-4.75 3.45-10.65-9.8-15.1v4.75l-5.8-6.85-1.75 9.85"/></g><path fill-rule="evenodd" fill-opacity="0" fill="#f0f" d="M100 40H0V0h100v40" id="a"/><use xlink:href="#a" width="100" height="40" id="e"/></defs><path fill="none" d="M-1-1h208v289H-1z"/><g><use x="110.05" y="224.5" xlink:href="#d" width="381" transform="translate(-192.55 -294)" height="381"/><use x="78.748" y="160.644" xlink:href="#e" width="100" transform="translate(-68.6 -165.9) scale(1.3975)" height="40"/><use x="-214.69" y="437.963" xlink:href="#f" width="391.85" transform="matrix(-.5126 0 0 .5126 92.763 -222.738)" height="552.2"/></g></svg>