<svg width="231" height="248" xmlns="http://www.w3.org/2000/svg" xmlns:xlink="http://www.w3.org/1999/xlink"><defs><use xlink:href="#a" width="100" height="40" id="d"/><use xlink:href="#b" width="410.15" height="441" id="e"/><g id="c" stroke-opacity="0" stroke-linejoin="round" stroke-linecap="round" stroke="#f0f" fill="none"><path d="M187.95-293.5v380h-380v-380h380" transform="translate(192.55 294)"/><path d="m187.95-293.5-190 190 190 190m-380-380 190 190L-192 86.5M92.95-38.4H-97" transform="translate(192.55 294)"/></g><g id="b"><path fill-rule="evenodd" fill="#a9abb3" d="m228.45-41.2-.1.45-.15-.2.25-.25m11.4 13.15 5.3-3.1L323.4 55l-6.45 1.9-2.5-2.8-7.15-7.85-3.8-4.2-63.65-70.1M400.4 137.1l-4.8 3.75-17.9-19.15.5-.25 5.6 5.55 6.1-1.1 10.5 11.2" transform="translate(1 220.5)"/><path fill-rule="evenodd" fill="#666460" d="m228.35-40.75.1-.45 1-6.45 9.9-2.8-2.2 6.85-9.1 4.9.3-2.05" transform="translate(1 220.5)"/><path fill-rule="evenodd" fill="#53597b" d="m237.15-43.6 2.2-6.85L250.6-37.6l-1.3 1.95-2.15 3.35-10-11.3" transform="translate(1 220.5)"/><path fill-rule="evenodd" fill="#dddfeb" d="m323.4 55-78.25-86.15 2-1.15 2.15-3.35 71.75 78.25 4.7 5.15L323.4 55m72.05 67.3 8.35 8.7-3.4 6.1-10.5-11.2 5.4-.95.15-2.65" transform="translate(1 220.5)"/><path fill-rule="evenodd" fill="#302f2d" d="m228.05-38.7 9.1-4.9 10 11.3-2 1.15-5.3 3.1-1.2.65-10.6-11.3" transform="translate(1 220.5)"/><path fill-rule="evenodd" fill="#6e6e6e" d="m307.3 46.25 7.15 7.85L311 80.6l-.1 1 49.2 48.1 3 2.9-.2 10.3-61.3-59.95 5.7-36.7m33.7-26.3 7.45 7.5-.05.1-5.5 34.75 1.95 1.95 49.1 48.9 1.9 1.85-.4 7.3-.15 2.65-61.95-62.05L341 19.95" transform="translate(1 220.5)"/><path fill-rule="evenodd" fill="#8a8171" d="m314.45 54.1 2.5 2.8 6.45-1.9 2.35-7.25-4.7-5.15q3.7-2.3 7.5-4.5l-5.5 28.4 5.05 5.05q-8.85 4.25-17.1 9.05l3.45-26.5m33.95-26.55q8.45-4.1 17.2-7.7l-4.8 17.8-6.2 22.95q-5 1.75-9.75 3.65l-1.95-1.95 5.5-34.75m-62.4 70 9.3-27.65-3.4 18.2 3 2.85-8.9 6.6m81.95-26.3-7.15-33.6 8.1-5.3 8.6 33.8-9.55 5.1" transform="translate(1 220.5)"/><path fill-rule="evenodd" fill="#63615d" d="m365.6 19.85 22 24.45 5.6 3.55-13.45-.25 3.5 15.1 12 2.45 5.1-6.75 7.35 8.15-4.1 40.95q-21.3-25.85-49-46.9l6.2-22.95 4.8-17.8m11.9 46.3-8.6-33.8-8.1 5.3 7.15 33.6L398.4 87.6l7.45-5.7-28.35-15.75" transform="translate(1 220.5)"/><path fill-rule="evenodd" fill="#918571" d="m393.2 47.85 14.95.25-24.9 14.6-3.5-15.1 13.45.25" transform="translate(1 220.5)"/><path fill-rule="evenodd" fill="#4a4946" d="m303.5 42.05 3.8 4.2-5.7 36.7 61.3 59.95-11.5 2.05-8.85-8.5-11.65 3.9-44.9-42.8 8.9-6.6-3-2.85 3.4-18.2 4.95-26.25 3.25-1.6m25.05-3.95 2.95-15.4 9.5-2.75-7.65 42.95 61.95 62.05-5.4.95-6.1 1.1-5.6-5.55-.5.25q-8.7 4.25-17.6 8l-49.2-48.1.1-1q8.25-4.8 17.1-9.05l-5.05-5.05 5.5-28.4m79.6 10-7.8 10.3-5.1 6.75-12-2.45 24.9-14.6m-4.55 59.4-9.65 5.65-49.1-48.9q4.75-1.9 9.75-3.65 27.7 21.05 49 46.9m-35.65-36.25 9.55-5.1 28.35 15.75-7.45 5.7-30.45-16.35" transform="translate(1 220.5)"/><path stroke-width=".05" stroke-linejoin="round" stroke-linecap="round" stroke="#000" fill="none" d="m239.65 193.1-10.6-11.3m11.3-11.75 11.25 12.85"/><path stroke-width="2" stroke-linejoin="round" stroke-linecap="round" stroke="#000" fill="none" d="m240.85 192.45 63.65 70.1m-54.2-77.7 71.75 78.25q3.7-2.3 7.5-4.5l2.95-15.4 9.5-2.75 7.45 7.5-.05.1q8.45-4.1 17.2-7.7l22 24.45 5.6 3.55 14.95.25-7.8 10.3 7.35 8.15-4.1 40.95-9.65 5.65 1.9 1.85-.4 7.3 8.35 8.7-3.4 6.1-4.8 3.75-17.9-19.15q-8.7 4.25-17.6 8l3 2.9-.2 10.3-11.5 2.05-8.85-8.5-11.65 3.9-44.9-42.8 9.3-27.65 4.95-26.25 3.25-1.6m86.4 83.85-6.1 1.1-5.6-5.55-.5.25"/><path fill-rule="evenodd" fill="#5a5e61" d="M262.5-206.75H258l4-4h-7.25l-7.25 6.4L241-207l6.5 2.65 6.5 2.6 3.15 4 6.45-3.75v-4.1l-1.1-1.15h1.1-1.1m2.75 2.85-1.65-1.7 1.65 1.7m-4.9 10.2-3.2-4.05 3.2 4.05 1.9 2.45h3.5l7.75 5.5-1.25 3.15-4.05 1.25-12.1 15.15 1.45-.7 10.65-5.4v-1.95l15.75 16.1 4.55 4.65-2.55 14.5-.7 3.85-.5 2.9-6.6 1.3-3.4.65 3.4-.65v2.95l-2.1 4.2-1.3-6.5-1.75.3-3.75-5.5h-2.75L259-128h-9.25l-3.25-5.5v-6.25l3.8-4.6 2.9 2.95 13.65 2.75 9.35-7 1.9-5.75-6.75-8.75-21.15 5.25-5.9-4.35v-3l3.8-2.25 1-.05h2.5l1.5-3.05 3 1.4-3-1.4-1.5 3.05h-2.5l-29-10.1h-4.35l-5.4-6.25 6.75-5.1-5.85-2-4.8-8.5-7.6-10.9-8 2v-1.85 9.85l-2.5-2.6v8.85l8.75 4.65h4.9l-8.25 4.25 1.7 4.25-14.35-8.75-3.9-7.4 3.9-12.85 11.5-8.5h6.25l12.2 12.65 1.2-1.4L241-207l7.75-8 11.25-4.5 8.25 6.5v10.5l-7.9 8.8m4.4 26.8h-7.2 7.2m-2.5-24.35h-3.5 3.5m-50.3-10.65-.9-.95.9.95m11.9 10.75L217.1-186l6.75-5.15M223-115l-17.5-16.5v-14l17.5 6-9.25 7.25 9.25 14.5v2.75m21.6-63.65 7.75 3.75 1.4 5.9-.65 1.4.65-1.4-1.4-5.9-7.75-3.75M179-149.5l3.6 6.1v4.15l10.75 12 6.5 17-.35 5-.9 12.75-6.4 9.5-4.65 2L194-93.25l3-13.75-8.55-11.5 5 16.1-7-7.15-3.5-3.6-3.5-3.6-13.05.85 19.35-9.75h-22.3l16.05-7.1-23-7.75h14.75L136-178.6l26.5 21 7.5 5.95 1.75 3.75v-13.75L179-149.5m91.15 170-2.2 2.75-4.05-5.75 1.3-1.8-1.3 1.8-6.8-9.65 8.1 7.85 4.95 4.8m-49.95-1.85 4.3 1.6V24l-3.3 4.4-2.95 3.85L204 51v6.75l14.25-10.5 5.1 2.45 7.35 3.55L216.25 56l10.45 4.7-2 1.8v7.25l8.65 8.4 1.65 1.6 3 10 2.1 7.05.9 2.95 1.15 6.5 3.35 19.5-1 13.25-9.5-32.5-17-15 4.5 13.25V130l1.1 1.8-7.1.7v-23L205 97V75.05h-12.55l21.75-6.7L194.5 71 217 60.75l-28 5.75-14-7.75 17.5-5.25 15-20.25-26.75 9L157.5 30l-.25-3.5 4.6 3.7 24.4 7.8 17.65-10.5 4.05-2.4 6.55-5.35h-3l-6-3.75-.85-3.1 15.55 5.75m-12.1 7.1-.15-.65.15.65m9 42.25-2.9.35 2.9-.35m4.4-2.5 3.2-3-3.2 3m-27 5.5L181 72.25h-14.25l2.95-4.7L194.5 71m37 73.75-4.5-7.4h6.25v4.15l-1.75 3.25m-19.25-71.5 12.45-3.5-12.45 3.5" transform="translate(1 220.5)"/><path fill-rule="evenodd" fill="#302f2d" d="m247.5-204.35 7.25-6.4H262l-4 4h4.5l1.1 1.15v4.1l-6.45 3.75-3.15-4-6.5-2.6m36.45 46.2 17.55-8.35-15.55 27.5 2.55-14.5-4.55-4.65m1.3 23h13.25l-16.75 11.65 7.5 8.25h-7.75l4 6.25-8.95-1.65q.35-6.8-.5-13.15l2.1-4.2v-2.95l6.6-1.3.5-2.9m-24.65 91.9 3.8 1.15 11.35 21.7v5.75l-1.65.4h4.65v4.35l15.6 12v12.4l-6.25 5.35v7.5l-8.8 5.05-10.05-4.25.2-2.8-1.5-2.1 2.2-2.75 8.95 8.7-.75-1.9-6.6-17.05 2.1-1.05-1.6-11.1 3-3.25-3 3.25 1.6 11.1-2.1 1.05-6.4-16.45-.65-1.65-1.75-4.5-3.1-3.2v-3.75l-5.25-3.25v-2.1l-3.85-4.2-2-2.15 2.6-9-.95-1.45 4.6-3.45 5.6 1.65M248.1-164.5l-3.8 2.25v3l5.9 4.35-2.85 7.6 2.95 2.95-3.8 4.6v6.25l3.25 5.5h-2.5L223-139.5l-17.5-6v14L223-115l-5.7 3.05-5.7 3.05-11.15-19.5-9.1-10.5-1.2-12.7-.75-8.15.75 8.15-3.15.8-4-2.1-4 3.4-7.25-12.15v6.85l-2.6-3.45 2.6 3.45v6.9l-1.75-3.75-7.5-5.95v-9.4l6.65 8.75-6.65-22 26.9 20.5-.8-8.15 5-9.75 1.85-.35-1.7-4.25 8.25-4.25h-4.9l-8.75-4.65V-200l2.5 2.6v-8l8-2 7.6 10.9 4.8 8.5 5.85 2-6.75 5.1 5.4 6.25h4.35l8.9 11 19.1-.85m-7.6 4.5 3.8-2.25-3.8 2.25m-16.15 56.6v-5.25l10.1 2.7 3.7 1-2.05 9.9-4.25 12.55-.6 1.7-3.9 4.65L234-69.8l-2.5 2.5-5 4.9v5.35l2 1.65-2.85 3.8-10.05 2.25v-4.05l1.75-1.65L215-57.3v-3.5l.5-.5 5-5.25-.75-.75-6.5-6.35 2-3.35 7.1-13.65 2-12.75m-46.75-22.25h8.15l-19.35 9.75-8.45.5 19.65-10.25m8.85 16.1 7 7.15-5-16.1L197-107l-3 13.75L187.55-81l-4.6 2-1.05-3.35 1.8-.3 3.5-2.6L189.45-96l-3-13.55M273-16.65h-3.25l-5.05 8.8 5.05-8.8H273m.5 5-8.15 5.45 8.15-5.45m5.9 31.25 1.35-.9 1-6.25 6.1-5.5-1.1-7.85 1.1 7.85-6.1 5.5-1 6.25 2.85 5.25-2.85-5.25-1.35.9v3.6-3.6l-1.3.85 1.3-.85m-48.7 33.65 2.55 1.25-6.55 6.2-10.45-4.7 14.45-2.75M207.95 25.1 205.5 16l6 3.75h3l-6.55 5.35m-46.1 5.1-4.6-3.7.25 3.5 23.25 12.25 26.75-9-15 20.25-17.5 5.25 14 7.75 28-5.75L194.5 71l19.7-2.65-21.75 6.7H205V97l11.5 12.5v23l7.1-.7 1.15 1.85 2.25 3.7 4.5 7.4.25 18.5L220 147.3l-6.5-8.8-3.75-6.75-2.5-26.5-5.75-8.5 5.75 8.5 2.5 26.5 3.75 6.75 6.5 8.8-5-2.05-2.5-2.5-5.2-5.2-1.05-1.05-8.25-5-1.8-4.1-6.2-3.9-3.45-7-6.55-13.25-4.5-5.25-.4-23-8.35-2.75H181L194.5 71l-24.8-3.45-7.7-1.05-1-.8-7-5.55-4-3.15 8-8.5-4.2-10.9-5.55-3.35V26.5l3-1.65 10.3-5.85.1 4 .2 7.2m56.4 2.05v15L204 57.75V51l14.25-18.75m4.25 72.5L218 91.5l17 15 9.5 32.5-8.9-22.15-1.85-4.6-11.25-7.5m-30.05-29.7-8.95 2.7-8.4-2.75 8.4 2.75 8.95-2.7M186 104.5l10.2 22.9-10.2-22.9m-36.3-264.35-16.1-20.65 2.4 1.9 35.25 38.1H156.5l23 7.75-16.05 7.1 4.4-6.1-11 3.75-1.55.2-41.6 4.8 25.9-8.75 2.35-7.9 9.15-1.85-13.75-3.9 19.75-1.35-14.9-12 10.55 2.85-3.05-3.95m6.2 120.15L125.25-8H120L80.5-23.7l.5-5.05 8.35-10.65 32.6 11.35 31.25-17.5 2.7 5.85M96.5 5.75h15.75l2.5 3.75-19 1.75-19.5 19.5L92 10.5l4.5-4.75M143-31.5l-8.75 5h-7.75l-4.55-1.55 4.55 1.55h7.75l8.75-5m11.4-25.45-.65 6.15-18.7-6.45 19.35.3m-82.9 14.2v17.5L60-26.85 39.2-14.3 28.5-13l9.7-8 5.05-3.85 5.25-3.65L60-26.85 48.5-28.5l-5.25 3.65L23.55-16 59-46l12.5 3.25m38.25-13.75-7.5-7.5 46.4 12.55-38.9-5.05m-5 76.5v6L93.2 21.1l3.45-3.45 2.85-2.9h7.75l-2.5 5.25m-5-2.35h-3.1 3.1m61.9 5.35-4.4 3.5 4.4-3.5M159 54.4l12.25-6.4-17.45-10.4L171.25 48 159 54.4M74.75-28l5-15.25 17-16.5-14 20-8 24V-28m131.5 164.5-3.5-3.5-8-28.75 8 28.75 3.5 3.5" transform="translate(1 220.5)"/><path fill-rule="evenodd" fill="#351d00" d="m250.2-154.9 21.15-5.25 6.75 8.75-1.9 5.75-9.35 7-13.65-2.75-2.9-2.95-2.95-2.95 2.85-7.6m-27.35 29.75 1-2 9.25-1 6.1 6.35-4.1 3.5-5.25-.5-4.15-1.85-2.85-4.5" transform="translate(1 220.5)"/><path fill-rule="evenodd" fill="#b3a28f" d="M217.3-111.95 223-115v-2.75l-9.25-14.5 9.25-7.25 24.25 11.5h2.5l1.15 3.3-6.15 2.9h-5.55l-6.1-6.35-9.25 1-1 2 3.35 9.25 8.25 9.95-10.1-2.7-3.35-.9-3.7-2.4m36 .75-1.05 1.15-3.9 1.4-5.75-2.4 10.7-.15" transform="translate(1 220.5)"/><path fill-rule="evenodd" fill="#786b52" d="m256.95-116 .15-1.65-.9-6.2 4 2.55-3.25 5.3m-34.1-9.15 2.85 4.5 4.15 1.85 5.25.5-4.15 2.4h-4.75l-3.35-9.25" transform="translate(1 220.5)"/><path fill-rule="evenodd" fill="#e7dacd" d="m250.9-124.7 2.85 8.3.55 3.95-1 1.25-10.7.15 5.75 2.4-7.75 4.35-2.45-.65-3.7-1-8.25-9.95h4.75l4.15-2.4 4.1-3.5h5.55l6.15-2.9" transform="translate(1 220.5)"/><path fill-rule="evenodd" fill="#ada18a" d="m269.4-111.8-.7 2.15-4.45 5.55.95-5.2-.4-2.45-7.85-4.25 3.25-5.3q5.35 3.85 9.2 9.5m-79.25-39.8 1.2 12.7 9.1 10.5 11.15 19.5 5.7-3.05 3.7 2.4 3.35.9v5.25l-18.1 3.15-6.75-5 .35-5-6.5-17-10.75-12v-4.15l-3.6-6.1 4-3.4 4 2.1 3.15-.8m-23.75 35.7 13.05-.85 3.5 3.6-18.45 10.9 3.75-10.75-10.5 13.25 9.75 23.25v4.25l-3 30 27.25 50.5-24.75-10 12.75 25.5 24.15 3.75L186.25 38l-24.4-7.8-.2-7.2-.1-4-.4-15.95-.45-15.95.45 15.95-9.9 21.8-3 1.65v4.9L129.35 73q-1.65 1.1-3.35 2.25L128.75 59 115.5 80.5 103 92l43.25-71.75 12.1-29.35-21.25 34.5-19.8 20.15-10.55 8.2L139-13l13.5-13.5 6-7.45-2.6-5.75-2.7-5.85.3-2.65.25-2.6.65-6.15 2-18.7-2.05-3.15-2-3.1-5.65-27v-3.85l8.6-15.05 1.55-.2 11-3.75-4.4 6.1h14.15l-19.65 10.25 8.45-.5M185-72.6l-.65-2.05 9.05-4.3 14.1-16.8-3.5 18-19 5.15m28.25-1.05-9.5.4 11.5-3.75-2 3.35m18.6-8.85 18.9-6.25-4.5 9.25-18.9 3.35 3.9-4.65.6-1.7m-.35 15.2h16.35l-6 3.65v.3l-15.35 3.6v-2.65l5-4.9m32.6-48.85.7 4.4-.7-4.4M278.35 27.3l.75 1.9-8.95-8.7-4.95-4.8-8.1-7.85L247-5l-15-22.9 18 9.4 28.35 45.8M248.8 8.8l12.45 21.95-6.6 32.05.35-5.3-6.2-48.7m-20.3-64.2 13.35-1.3-1.75 1.8-14.45 3.3 2.85-3.8m-8.75-11.9.75.75-5 5.25-22.25-6h26.5m-2.4 12.25-1.75 1.65v2l-24.65-2.3-.35-1.15 26.75-.2m4.75 17.9 1.05-.1q1.8 0 3.1.95t1.3 2.3q0 1.35-1.3 2.3-1 .75-2.3.9l-.8.05q-1.8 0-3.1-.95t-1.3-2.3q0-1.35 1.3-2.3.9-.65 2.05-.85m-6.05 14.9 4.65 3.2 8.25-1.35 15.3 47.15-10.9 51.4-8.65-8.4v-2.8l.4-.05-.4-3.6v-.8l2-1.8 6.55-6.2-2.55-1.25-7.35-3.55-2.15-21.3 3.3-4.4v-3.75l-4.3-1.6-4.15-40.9m-39.2-42.5 10.65 11.5 2.7 13.7-1 1.3-14.7-17.65-3.5-12.6 5.85 3.75m6.75 29.25 11.9 13.25.25 10.1-6.95-10.3-5.2-13.05m14.05 26.1 1.2-5v-12.25l-3.3-3.95 7.95 2.6 7.95 2.6V.5L203.5-28l-.35 35.4-3.9-14.4-1.6-2.4M238 89.75l8.45-29.65-2.7 30.65-3.65 6.05-2.1-7.05M222.5 123v-18.25l11.25 7.5L222.5 123m-35.95-6.5 3.45 7 6.2 3.9 1.8 4.1 8.25 5 1.05 1.05-42.55 40.7 29.75-48-35.35 15.25-1.4.25 23-23.3 5.8-5.95M172.75-76 168-89l3.75-8.75 5 7.75-4 14m-10.9 8.7-5.45-8.35 5.45 8.35m-3.35 33.35 2.6 5.75-2.9 7.05 2.5 8.25-2.35 3.8 2.35-3.8-2.5-8.25 2.9-7.05-2.6-5.75m11.35 24.9L161.1-28.2l8.75 19.15m-45.55 128.9 21.7-43.1-8.75 2.55L154 60.15l7 5.55-10.25 34.25-36 55.3-29.3 23.5-6.95 4 36-34.75-12 5.5 11.95-14.15 9.85-19.5m-10.8 21.4.95-1.9-.95 1.9" transform="translate(1 220.5)"/><path fill-rule="evenodd" fill="#e0d9c9" d="m254.3-112.45 1.3 9.3 1.35-12.85 7.85 4.25.4 2.45-.95 5.2-.9 4.8-16.25 24.5-2.5 2.9 3.25 4.6H231.5l2.5-2.5-6.65-6.35 18.9-3.35 4.5-9.25-18.9 6.25 4.25-12.55 2.05-9.9 2.45.65 7.75-4.35 3.9-1.4 1.05-1.15 1-1.25m-54.8 7.2 6.75 5 18.1-3.15-2 12.75-7.1 13.65-11.5 3.75 9.5-.4 6.5 6.35h-26.5l22.25 6-.5.5v3.5l2.35 2.25-26.75.2.35 1.15 24.65 2.3v2.05l-3.15.75h-.15L196.35-45l-4.2-1.65-1.3 4.75-.3 1.2-.35 1.15-2.7-13.7-10.65-11.5L171-68.5l3.5 12.6 14.7 17.65 6.35 7.65 3.3 3.95v12.25l-1.2 5-1.9-2.75 1.9 2.75 1.6 2.4 3.9 14.4.35-35.4L211.45.5v-25.9l4.6 3.15 4.15 40.9-15.55-5.75-1.5-5.5 1.5 5.5.85 3.1 2.45 9.1-4.05 2.4-24.15-3.75L167-1.75l24.75 10-27.25-50.5 3-30v-4.25l-9.75-23.25 10.5-13.25-3.75 10.75 18.45-10.9 3.5 3.6 3 13.55-2.25 10.75-3.5 2.6-1.8.3 1.05 3.35 4.6-2 4.65-2 6.4-9.5.9-12.75m-17.6 22.9-.55-1.7.55 1.7m2.45 7.7.65 2.05 19-5.15 3.5-18-14.1 16.8-9.05 4.3-1.4-4.35 1.4 4.35m66.4 45.8 3.85 4.2v2.1l5.25 3.25v3.75l3.1 3.2 1.75 4.5.65 1.65 6.4 16.45 6.6 17.05L250-18.5l-18-9.4L245.35-44l2.15-2 2.9 4.55.95 1.45-2.6 9-.1.45 2.1 1.7m17.2 52.1 1.5 2.1-.2 2.8-3.55 42.45-8.95 28.15v-22.5l-14.6 30-1.15-6.5-.9-2.95 3.65-6.05 2.7-30.65L238 89.75l-3-10-1.65-1.6 10.9-51.4-15.3-47.15 3.05-7.5L247-5l10.1 12.85 6.8 9.65 4.05 5.75M248.8 8.8 247-5l1.8 13.8 6.2 48.7-.35 5.3 6.6-32.05L248.8 8.8m-6.95-72.15v1.45l3.1 2-3.1 3.2-13.35 1.3-2-1.65v-2.7l15.35-3.6M221.2 28.4l2.15 21.3-5.1-2.45v-15l2.95-3.85m3.5 34.9.4 3.6-.4.05V63.3M248.45-30l.2-.55-.2.55m6.15 7.45-6.5-4.1 6.5 4.1m-10.9-12.1 4.95 4.1-4.95-4.1m-51.55-12 .45-1.75-1.65-5.3 1.65 5.3-.45 1.75m3.6 34.5-.25-10.1-11.9-13.25 5.2 13.05 6.95 10.3M185-72.6l5.6 17.75L185-72.6m38.6 204.4-1.1-1.8v-7l11.25-10.75 1.85 4.6-10.85 16.8-1.15-1.85m-56.85-59.55L175.1 75l.4 23-13.8 15.75-37.45 42.75-38.8 22.25 29.3-23.5 36-55.3L161 65.7l1 .8 7.7 1.05-2.95 4.7m-7.6 73.25 35.35-15.25-29.75 48 42.55-40.7 5.2 5.2-33.75 35.5L62 219.5l84.25-53 33.5-24.75-20.6 3.75M172.75-76l4-14-5-7.75L168-89l4.75 13M116.5 56.25l4-13.25-3.2 2.55 19.8-20.15 21.25-34.5-12.1 29.35L103 92l-12 11 21.9-40.15 3.6-6.6m44.65-53.2.4 15.95-10.3 5.85 9.9-21.8M135.5 28l1.6-2.6-1.6 2.6m12.75 3.4v2.85l5.55 3.35 4.2 10.9-8 8.5 4 3.15-16.75 19.15-3.25.95 8.25-16-12.9 8.75 18.9-41.6" transform="translate(1 220.5)"/><path fill-rule="evenodd" fill="#6f6359" d="m268.7-109.65.3 11.15-4.25 6.25-15 27 6 6.5 4.85 15.5-5.6-1.65-4.6 3.45-2.9-4.55 4.35-4.15.1-3.4-3.55-5.8-.95-1.55-5.6-1v-1.75l6-3.65-3.25-4.6 2.5-2.9 16.25-24.5.9-4.8 4.45-5.55" transform="translate(1 220.5)"/><path fill-rule="evenodd" fill="#fff3d9" d="m247.45-60.9.95 1.55.85 6.2-9 8.95 2.3-4.65-38.2 9.7H193.6l-3.05-1.55.3-1.2 2.5 1.9 14.4-1 32.35-8.5 7.35-7.75v-3.65" transform="translate(1 220.5)"/><path fill-rule="evenodd" fill="#de6914" d="M247.45-60.9v3.65l-7.35 7.75-32.35 8.5-14.4 1-2.5-1.9 1.3-4.75 4.2 1.65 15.95-3.6h.15l3.15-.75 10.05-2.25 14.45-3.3 1.75-1.8 3.1-3.2-3.1-2 5.6 1" transform="translate(1 220.5)"/><path fill-rule="evenodd" fill="#ffcd2b" d="m248.4-59.35 3.55 5.8-.1 3.4L247.5-46l-2.15 2L232-27.9l-3.05 7.5-8.25 1.35-4.65-3.2-4.6-3.15-7.95-2.6-7.95-2.6-6.35-7.65 1-1.3.35-1.15 3.05 1.55h10.75l38.2-9.7-2.3 4.65 9-8.95-.85-6.2M239.6-43v-3.9l-36.25 9.25 1.5 5.15 17.65 9.75 3.6-.75L239.6-43" transform="translate(1 220.5)"/><path fill-rule="evenodd" fill="#4a4946" d="m239.6-43-13.5 19.5-3.6.75-17.65-9.75-1.5-5.15 36.25-9.25v3.9m-17.5 5.85q-1.15.2-2.05.85-1.3.95-1.3 2.3 0 1.35 1.3 2.3 1.3.95 3.1.95l.8-.05q1.3-.15 2.3-.9 1.3-.95 1.3-2.3 0-1.35-1.3-2.3-1.3-.95-3.1-.95l-1.05.1" transform="translate(1 220.5)"/><path fill-rule="evenodd" fill="#756453" d="m175.5 98 4.5 5.25 6.55 13.25-5.8 5.95-30.25 17.05 11.2-25.75L175.5 98m-68-236.5-14-5-4 1v-9l-3.5 6.75-21 3.25 12.75-31.75 20.75 5.75 9 22.5v6.5M103 92l12.5-11.5L128.75 59 126 75.25q1.7-1.15 3.35-2.25l12.9-8.75-8.25 16 3.25-.95 8.75-2.55-21.7 43.1L105 130.5l9.5-20.5L98 124l-7.5-12.5V126L18 158l62.45-62.55 32.45-32.6L91 103l12-11" transform="translate(1 220.5)"/><path fill-rule="evenodd" fill="#968169" d="M107.5-138.5v-6.5l-9-22.5 29.2 23.2V-155L106-178.75l43.7 18.9 3.05 3.95-10.55-2.85 14.9 12-19.75 1.35 13.75 3.9-9.15 1.85-2.35 7.9-25.9 8.75 41.6-4.8-8.6 15.05v3.85l5.65 27 2 3.1-5.1-4.45h-26l23-5.25L132.5-98H94.75l12.25-5.75h33l3.25.75-26.5-11-9.25-9v-15.5m5.1 15.85 1.1-.35-1.1.35m24.9-13.85-9.8-7.8 9.8 7.8M81.9 72.75l34.6-16.5-3.6 6.6-32.45 32.6-59.95 8.05 49-25.1 8.5 7.85V83l3.9-10.25" transform="translate(1 220.5)"/><path fill-rule="evenodd" fill="#4b4f52" d="M18.4-1.7 28 4.75h24.5l-15.75 6.5L.5 21.75l-.5-2.5 7.25-57.5v23.75L11.5-9h3.75l8.3-7 19.7-8.85L38.2-21l-9.7 8 10.7-1.3L18.4-1.7 15.5 0l2.9-1.7m62.1-22L77.25 6.8l6.95 4.45 3.8-5.5h8.5L92 10.5 76.25 30.75l19.5-19.5 19-1.75-4.5 20.25-7 3.75-13.45-8.95L72.5 42v21.25l8.5-7v-12.5l4.75 18.75-3.85 10.25L78 83v3.25l-8.5-7.85L48 58.5l15 9 6.25-3.5-8.5-18.75 19.3-27.9-1.3-1.6L71.5 5v-47.75l28-26.75 35.55 12.25 18.7 6.45-.25 2.6-51.5-7.3-12.65 16.1L81-28.75l-.5 5.05m3.7 34.95-4.15 6.1 4.15-6.1m25.55-67.75 38.9 5.05L102.25-64l7.5 7.5M96-55.5h6-6m-2.8 76.6 11.55 4.9v-6l2.5-5.25H99.5l-2.85 2.9-3.45 3.45-3.4 3.45 3.4-3.45M74.75-28v12.25l8-24 14-20-17 16.5-5 15.25M77 9l.25-2.2L77 9m-7 35.5 2.5-2.5-2.5 2.5" transform="translate(1 220.5)"/><path stroke-width=".05" stroke-opacity=".2" stroke-linejoin="round" stroke-linecap="round" stroke="#000" fill="none" d="m248.5 16.15 7.25-6.4H263l-4 4h5.6m-1.1 0 1.1 1.15 1.65 1.7m-8.1 6.15 3.2 4.05 7.9-8.8V7.5L261 1l-11.25 4.5-7.75 8 6.5 2.65 6.5 2.6 3.15 4m3.2 4.05 1.9 2.45h3.5l7.75 5.5-1.25 3.15-4.05 1.25v7.1l15.75 16.1L302.5 54l-15.55 27.5-.7 3.85h13.25L282.75 97l7.5 8.25h-7.75l4 6.25-8.95-1.65q-.3 5.25-1.3 10.7-2.3-6.65-5.85-11.85l-.7 2.15.3 11.15-4.25 6.25-15 27 6 6.5 4.85 15.5 3.8 1.15 1.1.3m-9.4-124.4 12.1-15.15m-9.45-9.9h3.5m-4.7 24.35h7.2m3.45-7.35v1.95l-10.65 5.4-1.45.7-3-1.4-1.5 3.05h-2.5l-1 .05-3.8 2.25-3.8 2.25m9.7 5.1 21.15-5.25 6.75 8.75-1.9 5.75-9.35 7-13.65-2.75-2.9-2.95-2.95-2.95 2.85-7.6m-.45 26.9H260l7.5-7.5h2.75l3.75 5.5 1.75-.3 3.4-.65 6.6-1.3.5-2.9m-94.4-70.25 8-2 7.6 10.9m10.65 10.5 6.75-5.15m-12.8-11.7.9.95m-16.5 23.9-14.35-8.75-3.9-7.4 3.9-12.85L193.6 5h6.25l12.2 12.65 1.2-1.4L242 13.5m-50.15-.25v9.85l-2.5-2.6v8.85L198.1 34m-1.65 8.5-1.85.35-5 9.75.8 8.15.75 8.15 1.2 12.7 9.1 10.5 11.15 19.5 5.7-3.05 5.7-3.05m0-24.5 24.25 11.5h2.5l1.15 3.3 2.85 8.3.55 3.95 1.3 9.3 1.35-12.85.15-1.65-.9-6.2-.6-4.15m-35.5-46.65h-4.35l-5.4-6.25 6.75-5.1m36 18.4.65-1.4-1.4-5.9-7.75-3.75m-5.4 56.85-6.1-6.35-9.25 1-1 2 2.85 4.5 4.15 1.85 5.25.5 4.1-3.5m-19.1-52.85 8.9 11 19.1-.85M180 71l4-3.4 4 2.1 3.15-.8M180 71l3.6 6.1v4.15l10.75 12 6.5 17-.35 5m24.85 1.85v-5.25l-3.35-.9-3.7-2.4m-50.9-3.95 13.05-.85 3.5 3.6 3.5 3.6 7 7.15-5-16.1m-.9 37.5 4.65-2 6.4-9.5.9-12.75m-13.05-4.3 3 13.55-2.25 10.75-3.5 2.6-1.8.3 1.05 3.35 4.6-2m-6.2-3.05.55 1.7m2.45 7.7.65 2.05m-.65-2.05-1.4-4.35m30.3 5.35 2-3.35 7.1-13.65 2-12.75m24-5.25 3.9-1.4 1.05-1.15-10.7.15 5.75 2.4-7.75 4.35-2.45-.65-2.05 9.9-4.25 12.55-.6 1.7-3.9 4.65 6.65 6.35-2.5 2.5-5 4.9v5.35l2 1.65-2.85 3.8-10.05 2.25-3.15.75h-.15l-15.95 3.6-4.2-1.65-1.3 4.75-.3 1.2m57.3-26.6-3.25-4.6 2.5-2.9 16.25-24.5.9-4.8.95-5.2-.4-2.45-.7-4.4m-7.15.15 3.25-5.3-4-2.55m-2.9 12.65 1-1.25m-29.95 3.8 10.1 2.7 3.7 1M227.2 104.6h4.75l4.15-2.4M224 81l-9.25 7.25 9.25 14.5v2.75m60.95-43.15L289.5 67l-2.55 14.5m-11.2 8.7 1.3 6.5 2.1-4.2v-2.95m-13.9 26.85 4.45-5.55m-8.5-11.65q5.35 3.85 9.2 9.5m6.65-12q.85 6.35.5 13.15m-27.45-53.9-29-10.1m44.3 132.55 11.35 21.7v5.75l-1.65.4h4.65v4.35l15.6 12V235l-6.25 5.35v7.5l-8.8 5.05-1.2.7m-27.35-61.95 3.85 4.2v2.1l5.25 3.25v3.75l3.1 3.2 1.75 4.5 5.05-8.8H274m2.25 11.5-3 3.25 1.6 11.1-2.1 1.05 6.6 17.05.75 1.9-8.95-8.7-2.2 2.75 1.5 2.1-.2 2.8 10.05 4.25m-14.6-40.25.65 1.65 8.15-5.45m-8.3 27.35-1.3 1.8 4.05 5.75m-10.85-15.4 6.8 9.65m1.3-1.8-8.1-7.85M248 215.5l1.8 13.8M256 278l-6.2-48.7m21.35 11.7-4.95-4.8m21.55-16.6 1.1 7.85-6.1 5.5-1 6.25 2.85 5.25m-4.2-.75v-3.6l-1.3.85m2.65-1.75-1.35.9m-14.05-25.8 6.4 16.45m-24.3-71.15.95 1.55 3.55 5.8-.1 3.4-4.35 4.15 2.9 4.55 4.6-3.45 5.6 1.65m-13.15-17.65v3.65L241.1 171l-32.35 8.5-14.4 1-2.5-1.9m51-21.45v1.45l5.6 1m.4-6.4-6 3.65v.3m0 6.65 3.1-3.2-3.1-2m-2.25 18.9L227.1 197l-3.6.75-17.65-9.75-1.5-5.15 36.25-9.25v3.9m-10.65 22.6 3.05-7.5 13.35-16.1 2.15-2m-5.65-10.7-1.75 1.8-14.45 3.3m-5.9-15.7.75.75-5 5.25-.5.5v3.5l2.35 2.25-1.75 1.65v4.05m6.5 12.2q-1.15.2-2.05.85-1.3.95-1.3 2.3 0 1.35 1.3 2.3 1.3.95 3.1.95l.8-.05q1.3-.15 2.3-.9 1.3-.95 1.3-2.3 0-1.35-1.3-2.3-1.3-.95-3.1-.95l-1.05.1m6.85 16.75-8.25 1.35-4.65-3.2m4.15 40.9 4.3 1.6v3.75l-3.3 4.4-2.95 3.85v15l5.1 2.45 7.35 3.55 2.55 1.25-6.55 6.2-2 1.8v7.25l8.65 8.4 1.65 1.6 3 10 2.1 7.05.9 2.95 1.15 6.5 14.6-30v22.5l8.95-28.15 3.55-42.45m-18.85-69.6.95 1.45-2.6 9 2 2.15-2.1-1.7-.2.55m.3-1-.1.45-4.95-4.1m4.4 8 6.5 4.1m-64.4-17 .35-1.15m.05-14.15.35 1.15 1.65 5.3-.45 1.75M184.6 185l5.2 13.05 6.95 10.3 1.9 2.75 1.2-5v-12.25l-3.3-3.95-6.35-7.65-14.7-17.65L172 152l5.85 3.75m13.35 25.2-1 1.3m22.25 12.85 4.6 3.15m-20.5-8.35 7.95 2.6 7.95 2.6V221m-8.3 6.9 1.5 5.5 15.55 5.75m-22.55-28.05 1.6 2.4 3.9 14.4m2.35 8.6-.85-3.1m-.75 14.6 4.05-2.4-2.45-9.1m6 3.75h3l-6.55 5.35.15.65m-4.2 1.75-17.65 10.5-24.4-7.8-4.6-3.7 4.4-3.5.2 7.2M218 281.25l-22.5 10.25m19.7-2.65 2.9-.35m-26.5-122.85L186 147.9m47 44.7 15 22.9M225.7 283l-3.2 3m-7.3 2.85-21.75 6.7H206m18.6 56.75-1.1-1.8v-25.25l11.25 7.5 1.85 4.6 8.9 22.15 1-13.25-3.35-19.5m-75.4-34 8.35 2.75 8.4 2.75 8.95-2.7M176.5 318.5l4.5 5.25 6.55 13.25 3.45 7 6.2 3.9L187 325m.55 12-5.8 5.95-23 23.3 1.4-.25 20.6-3.75-33.5 24.75L63 440l116.75-41.25 33.75-35.5-5.2-5.2-1.05-1.05-8.25-5-1.8-4.1m5.3-30.65 5.75 8.5 2.5 26.5 3.75 6.75 6.5 8.8 11.75 15.95-.25-18.5-4.5-7.4-2.25-3.7-1.15-1.85m1.1-62.05-12.45 3.5m6-41L205 271.5m9.25-124.65 6.5 6.35M150.7 60.65 134.6 40l2.4 1.9 26.5 21v-9.4l6.65 8.75-6.65-22 26.9 20.5M99.5 53l-20.75-5.75L66 79l21-3.25L90.5 69v9l4-1 14 5v-6.5l-9-22.5 29.2 23.2V65.5L107 41.75l43.7 18.9 3.05 3.95-10.55-2.85 14.9 12-19.75 1.35L152.1 79l-9.15 1.85-2.35 7.9-25.9 8.75 41.6-4.8 1.55-.2 11-3.75-4.4 6.1h14.15l-19.65 10.25 8.45-.5m5.35-38.9v-6.85L180 71m-9.85-8.75 2.6 3.45v6.9L171 68.85l-7.5-5.95m-55 19.1v15.5l9.25 9 26.5 11-3.25-.75h-33l-12.25 5.75h37.75l13.75 9.5-23 5.25h26l5.1 4.45-2-3.1-5.65-27v-3.85l8.6-15.05m-41.6 4.8-1.1.35m41.75 43.85 2.05 3.15 5.45 8.35m-34.15-77 9.8 7.8M24.55 204.5l-8.3 7H12.5L8.25 206v-23.75L1 239.75l.5 2.5 36.25-10.5 15.75-6.5H29l-9.6-6.45-2.9 1.7m101.8 45.55-10.55 8.2L140 207.5l13.5-13.5 6-7.45-2.6-5.75-30.65 31.7H121l-39.5-15.7-3.25 30.5 6.95 4.45 3.8-5.5h24.25l2.5 3.75-4.5 20.25-7 3.75-13.45-8.95-17.3 17.45v21.25l8.5-7v-12.5L86.75 283l-3.85 10.25 34.6-16.5 4-13.25-3.2 2.55m19.8-20.15 21.25-34.5 2.35-3.8-2.5-8.25 2.9-7.05-2.6-5.75m-5.3-11.6 2.7 5.85m-2.4-8.5-.3 2.65-31.25 17.5 4.55 1.55h7.75l8.75-5m10.75-19.3-.25 2.6L103 165l-12.65 16.1 32.6 11.35m32.45-28.9-.65 6.15-18.7-6.45L100.5 151l-28 26.75v47.75l7.25 10.75 1.3 1.6 4.15-6.1M103 165h-6m-2.8 76.6-3.4 3.45m14.95-4.55 2.5-5.25h-7.75l-2.85 2.9h3.1m60.95-30.55.45 15.95.4 15.95.1 4m-24.55 2.4-1.6 2.6m15.75-3.15-3 1.65v7.75l5.55 3.35 17.45 10.4-12.25 6.4m-56 37.6 12.5-11.5 13.25-21.5-2.75 16.25q1.7-1.15 3.35-2.25m32.2-54-10.3 5.85m-16.2-82.1 19.35.3 2-18.7m4.7 47.45 8.75 19.15m-146.3-6.95 35.45-30 12.5 3.25m17.85 3.35L82 191.75l-.5 5.05m-9-1.55-11.5-1.6-20.8 12.55-20.8 12.6m24.85-23.15-5.05 3.85m21.8-5.85L49.5 192l-5.25 3.65m34 31.65-.25 2.2m3.05 8.35-19.3 27.9 8.5 18.75L64 288l-15-9 21.5 19.9 8.5 7.85v-3.25l3.9-10.25m-9.4-30.75L71 265m10.45 50.95L19 378.5l72.5-32V332l7.5 12.5 16.5-14L106 351l19.3-10.65 21.7-43.1-8.75 2.55-3.25.95 8.25-16-12.9 8.75m-59.85 5.4-49 25.1 59.95-8.05 32.45-32.6 3.6-6.6m37.5 3.9-4-3.15 8-8.5-4.2-10.9m15.9 29.95-2.95 4.7M162 286.2l1 .8 7.7 1.05 24.8 3.45M155 280.65l7 5.55M86.45 399.25l38.8-22.25 37.45-42.75 13.8-15.75-.4-23m-78.45-57.35-3.45 3.45m19.7 41.75L92 323.5l12-11m-17.55 86.75-6.95 4 36-34.75-12 5.5 11.95-14.15 9.85-19.5m-9.85 19.5-.95 1.9m113.5-3.9h6.25V362l-1.75 3.25m-19-2 2.5 2.5 5 2.05m-25.25-43.05 8 28.75 3.5 3.5m29.35-19.65-10.85 16.8m-63.05-19.9L151.5 360l30.25-17.05"/><path stroke-width=".05" stroke-linejoin="round" stroke-linecap="round" stroke="#0f0" fill="none" d="m226.1 287.4-.4.05"/><path stroke-width="2" stroke-linejoin="round" stroke-linecap="round" stroke="#000" fill="none" d="M269.25 7.5 261 1l-11.25 4.5-7.75 8-28.75 2.75-1.2 1.4L199.85 5h-6.25l-11.5 8.5-3.9 12.85 3.9 7.4 14.35 8.75-1.85.35-5 9.75.8 8.15-26.9-20.5 6.65 22-6.65-8.75v9.4L134.6 40l16.1 20.65-43.7-18.9 21.7 23.75v10.7L99.5 53l-20.75-5.75L66 79l21-3.25L90.5 69v9l4-1 14 5v15.5l9.25 9 26.5 11-3.25-.75h-33l-12.25 5.75h37.75l13.75 9.5-23 5.25h26l5.1 4.45 2.05 3.15-2 18.7-19.35-.3L100.5 151l-28 26.75L60 174.5l-43.75 37H12.5L8.25 206v-23.75L1 239.75l.5 2.5 36.25-10.5 15.75-6.5H29l-9.6-6.45L61 193.65l11.5 1.6v30.25l7.25 10.75 1.3 1.6-19.3 27.9 8.5 18.75L64 288l-15-9 21.5 19.9-49 25.1 59.95-8.05L19 378.5l72.5-32V332l7.5 12.5 16.5-14L106 351l19.3-10.65-9.85 19.5L103.5 374l12-5.5-36 34.75q22.9-13.1 45.75-26.25l37.45-42.75L151.5 360l30.25-17.05-23 23.3 22-4-33.5 24.75L63 440l116.75-41.25 33.75-35.5 2.5 2.5 5 2.05 11.75 15.95-.25-18.5 1.75-3.25v-4.15H228l-2.25-3.7 10.85-16.8 8.9 22.15 1-13.25-3.35-19.5 14.6-30v22.5l8.95-28.15 3.55-42.45 10.05 4.25 8.8-5.05v-7.5l6.25-5.35v-12.4l-15.6-12v-4.35h-4.65l1.65-.4v-5.75l-11.35-21.7-3.8-1.15-4.85-15.5-6-6.5 15-27L270 122l-.3-11.15.7-2.15 5.85 11.85 1.3-10.7 8.95 1.65-4-6.25h7.75l-7.5-8.25 16.75-11.65h-13.25l.7-3.85L302.5 54l-17.55 8.35-15.75-16.1v-7.1l4.05-1.25 1.25-3.15-7.75-5.5h-3.5l-1.9-2.45 7.9-8.8V7.5M159.5 186.55l-2.6-5.75-30.65 31.7H121l-39.5-15.7-3.25 30.5 6.95 4.45 3.8-5.5h24.25l2.5 3.75-4.5 20.25-7 3.75-13.45-8.95-17.3 17.45v21.25l8.5-7v-12.5L86.75 283l-3.85 10.25 34.6-16.5 4-13.25-13.75 10.75L140 207.5l13.5-13.5 6-7.45m-5.3-11.6-31.25 17.5-32.6-11.35L103 165l51.5 7.3-.3 2.65"/></g><path fill-rule="evenodd" fill-opacity="0" fill="#f0f" d="M100 40H0V0h100v40" id="a"/></defs><path fill="none" d="M-1-1h233v250H-1z"/><use x="118.05" y="212.5" xlink:href="#c" width="381" transform="translate(-192.55 -294)" height="381"/><use x="-48.382" y="-52.958" xlink:href="#d" width="100" transform="translate(123.6 92.35) scale(1.5295)" height="40"/><use x="-212.55" y="382.607" xlink:href="#e" width="410.15" transform="matrix(-.5554 0 0 .5554 111.755 -210.91)" height="441"/></svg>