<svg width="190" height="264" xmlns="http://www.w3.org/2000/svg" xmlns:xlink="http://www.w3.org/1999/xlink"><defs><g id="b" stroke-opacity="0" stroke-linejoin="round" stroke-linecap="round" stroke="#f0f" fill="none"><path d="M187.95-293.5v380h-380v-380h380" transform="translate(192.55 294)"/><path d="m187.95-293.5-190 190 190 190m-380-380 190 190L-192 86.5M92.95-38.4H-97" transform="translate(192.55 294)"/></g><g id="d"><path fill-rule="evenodd" fill="#fde3b3" d="m198.3 159.9-3.75 6.2-3.05.75-.95 3.05-1.9-.2.15-2.05-2.05.35-.95 3.05-2.65-.95.5-.65-.7-.5-.95.95-3.05-1.15.95-.55.05-.6-2.1 1.35-2.5-1.9 1.3-1.3-4.55 2.7-4.35-3.35v-3.65l3.55-1.55h27m-21.05 5.25v-1.7l2.65-2.1-2.65 2.1v1.7l-.6.6.6-.35v-.25m11.55 2.5.05-1.35-.05 1.35m-5.15 1.8.65-.9-.2-1.9 2.1-2.1-2.1 2.1.2 1.9-.65.9m-3.7-1.85.15-1.5 2.85-2.5-2.85 2.5-.15 1.5" transform="translate(0 146.3)"/><path fill-rule="evenodd" fill="#bfa995" d="m171.35 159.6 1.4-3.65 3.7-3.6 15.4-2.2L207.8 155l-8.8 3.75-.7 1.15h-27l.15-.05-.1-.25m.1.25 1.8-.8-1.8.8m28.05-1.95-.5.85.5-.85" transform="translate(0 146.3)"/><path stroke-width=".05" stroke-opacity=".4" stroke-linejoin="round" stroke-linecap="round" stroke="#000" fill="none" d="m171.35 305.9 1.4-3.65 3.7-3.6 15.4-2.2 15.95 4.85-8.8 3.75-.7 1.15-3.75 6.2-3.05.75-.95 3.05-1.9-.2.15-2.05-2.05.35-.95 3.05-2.65-.95.5-.65m-.7-.5-.95.95-3.05-1.15.95-.55.05-.6-2.1 1.35-2.5-1.9 1.3-1.3-4.55 2.7-4.35-3.35v-3.65l3.55-1.55.15-.05m8.45 1.5-2.65 2.1v1.95l-.6.35.6-.6m-4-6.1-1.8.8m11.5 3.75-2.85 2.5-.15 1.5m6.25-3.05-2.1 2.1.2 1.9-.65.9m5.2-3.15-.05 1.35m10.2-8.9.5-.85"/><path fill-rule="evenodd" fill="#bfa995" d="m130.15 168-1.25-.8 1.25.8 2.5 1.6-2.7 3.65-6.8 3.35-2.6-2.7-.15-.6-.2.25.35.35.35 1.3-2.75 1.35v-5.75H102.9l.5-3.9 8.75-7.3 4.75-1.3 13.8 2.2 1 3.6-1.3 3.65-.25.25m-7.15 2.25 1.75-1.95 2.9.5-.3 2.1-4.15 1.45-.2-2.1.2 2.1 4.15-1.45.3-2.1-2.9-.5-1.75 1.95m-3.2 2.85.4.45-.4-.45m.75-3.6 1.1 2.1-1.25 1.7 1.25-1.7-1.1-2.1" transform="translate(0 146.3)"/><path stroke-width=".05" stroke-opacity=".4" stroke-linejoin="round" stroke-linecap="round" stroke="#000" fill="none" d="m128.9 313.5 1.25.8 2.5 1.6-2.7 3.65-6.8 3.35-2.6-2.7-.15-.6-.2.25-.4-.45m10.6-5.35 1.3-3.65-1-3.6-13.8-2.2-4.75 1.3-8.75 7.3-.5 3.9m15.25 5.75 2.75-1.35-.35-1.3-.35-.35m2.8-3.3.2 2.1 4.15-1.45.3-2.1-2.9-.5-1.75 1.95m-19.6-3.35.1-.8m16.9 7.2 1.25-1.7-1.1-2.1"/><path fill-rule="evenodd" fill="#fde3b3" d="M113.65 167.8h6.15l2 6.75h-6.15l-2-6.75" transform="translate(0 146.3)"/><path stroke-width=".05" stroke-opacity=".4" stroke-linejoin="round" stroke-linecap="round" stroke="#000" fill="none" d="M113.65 314.1h6.15l2 6.75h-6.15l-2-6.75z"/><path fill-rule="evenodd" fill="#fde3b3" d="M114.25 170.75h6.7l2.05 7h-6.7l-2.05-7" transform="translate(0 146.3)"/><path stroke-width=".05" stroke-opacity=".4" stroke-linejoin="round" stroke-linecap="round" stroke="#000" fill="none" d="M114.25 317.05h6.7l2.05 7h-6.7l-2.05-7z"/><path fill-rule="evenodd" fill="#fde3b3" d="M99.2 168.8h4.35l1.4 4.8h-4.35l-1.4-4.8" transform="translate(0 146.3)"/><path stroke-width=".05" stroke-opacity=".4" stroke-linejoin="round" stroke-linecap="round" stroke="#000" fill="none" d="M99.2 315.1h4.35l1.4 4.8h-4.35l-1.4-4.8z"/><path fill-rule="evenodd" fill="#fde3b3" d="M99.55 170.9h4.8l1.45 5H101l-1.45-5" transform="translate(0 146.3)"/><path stroke-width=".05" stroke-opacity=".4" stroke-linejoin="round" stroke-linecap="round" stroke="#000" fill="none" d="M99.55 317.2h4.8l1.45 5H101l-1.45-5z"/><path fill-rule="evenodd" fill="#fde3b3" d="M102.85 167.35h5.35l1.7 5.85h-5.35l-1.7-5.85" transform="translate(0 146.3)"/><path stroke-width=".05" stroke-opacity=".4" stroke-linejoin="round" stroke-linecap="round" stroke="#000" fill="none" d="M102.85 313.65h5.35l1.7 5.85h-5.35l-1.7-5.85z"/><path fill-rule="evenodd" fill="#fde3b3" d="M103.35 169.9h5.85l1.8 6.1h-5.85l-1.8-6.1" transform="translate(0 146.3)"/><path stroke-width=".05" stroke-opacity=".4" stroke-linejoin="round" stroke-linecap="round" stroke="#000" fill="none" d="M103.35 316.2h5.85l1.8 6.1h-5.85l-1.8-6.1z"/><path fill-rule="evenodd" fill="#fde3b3" d="M108.6 167.65h5.35l1.7 5.85h-5.35l-1.7-5.85" transform="translate(0 146.3)"/><path stroke-width=".05" stroke-opacity=".4" stroke-linejoin="round" stroke-linecap="round" stroke="#000" fill="none" d="M108.6 313.95h5.35l1.7 5.85h-5.35l-1.7-5.85z"/><path fill-rule="evenodd" fill="#fde3b3" d="M109 170.2h5.85l1.8 6.1h-5.85l-1.8-6.1" transform="translate(0 146.3)"/><path stroke-width=".05" stroke-opacity=".4" stroke-linejoin="round" stroke-linecap="round" stroke="#000" fill="none" d="M109 316.5h5.85l1.8 6.1h-5.85l-1.8-6.1z"/><path fill-rule="evenodd" fill="#baa849" d="m149.75-124.8 4.45-13.5 8.75-6.45 4.8-.75-3.15 4.4-8.55 7.25 10-3.45 2.6 1.65-5.2 4.6h3.05l-13.8 9.3-2.95-3.05m.2 114 10.65-3.6 1.75 5.15 1.3-1.8 12-6.15 8.35-4.3 1.9 7.2-15.55 10.5-6.3 7.85-5.85-4.3-8.25-10.55m1.95-10.8-1.25-1.05 2.5-1.9v1.35l-1.25 1.6m-17.25 36.65 4.95-8.1 2.45-5.65.95-3.45 7.2 14.4 1 4.4-16.55-1.6M158.2-.25l2.85-7.25 1.3-1.75-1.3 1.75-2.85 7.25m-48.15 116 2-14V89.2l1.6-3.7-.4-7.2.85-2.6 6.55-15V48.35l4.6-8.7h13.7v9.85l-12.5 23.6-.85 2.6-3.3 14.1-12.25 25.95m3.6-30.25 4.3-9.8 2.4-3.95-2.4 3.95-4.3 9.8m14.85 6.55 6-16.35 1.95-3.85 7.5-10.85-4.3 14.7-1.55 7.25-9.6 17v-7.9m-8.3 14.7v15.9h-7.5l7.5-15.9" transform="translate(0 146.3)"/><path fill-rule="evenodd" fill="#bfa995" d="m149.75-124.8 2.95 3.05 2.05 2.1 5 5.2v2.85l-8.15-9.4 4.55 8.8v-1.7 1.7l-4.55-8.8 8.15 9.4-3.3 4.5-16.25-27.65 9.55 9.95m40.9-2.1 4.5-4.95-7.2 13.4-.6-2 3.3-4.75v-1.7m-4.25 16.6-1.75 19.25v1.7l-2.4.85-1.55-1.65 1.2-.9 1.95 1.95.3-3.5v-12.3l-4.85-3.2-.15-2.75h.1q.15.8.9 1.25l1.15.4q1.15-.15 2.1-1.85.8-1.5-.8-3.75l-.5-.6-.95.3q-1.4.6-2.1 2.05l-.15.1-1.4-1.8-.35-1.6-2.65 3.8-1.2 7.8-.35 10.65 3.45 1.5 1.1-2.45v4.9l1.85.95-2.7 1.55.65-.05 3.6-.25.1.6 1.05 7.05.85 2.8-2.25 2.05 6.5 1.65-11.55 2.9-18.85 16.6-3.8-1.6-2.05 2.55h-1.1l-1.65 6-6.75 7.05q-1.05-2.2-1.6-4.45h-.05v-.05l2.9-14.1 2-13.55 2.15-1.05 2.15-1.1 3.2 1.25 5.75-.3 5.05-4.8v-8.6l-.15-10.55 3.5-3.35-1.8-4.55v-6.5l3.85-10.45h5.1l-.8 4.2-1.2-.8v1.9l-3.4-.75v.85l4.05 1.55-.25 1.2q-.5-.5-1.2-.8l-.95-.3-.5.65q-1.6 2.2-.8 3.7.9 1.7 2.1 1.85l.35.05-.8 4.1 1.35-4.4q.5-.25.8-.6l.35-.8.1-.65v-.2l.1-1.35-.2-.35.5-1.7.75.3.85-2-.85-.65.3-1.1 1.2-3.9h6.9l4.5 8.95-2.45-.15.35 1.65 1.8 1.7m-30.25-1v-.9.9m-9.7-15.6 5.15 5.9-5.15-5.9m16.2 56.95-10.5-3.4 10.5 3.4m-.55 25.65 10.9-.45q5.3.05 11.65-2.15 6.75-4.65 10-16.75l3.25 2.15 1.95 4.3 5.15 6 7.2 18.2-.2.1q-1.15-.75-1.5-1.9l-.6-.35-.3-1.2-5.75-14-.5-.55-1 4.1-2.05-5.35-1.5 6.2h-.05l-1-6.2q-.15-.25-.25.25l-.85-2.2-.9.6-4.3 8.15-2.65 3.8-1.45 2.05-3.25 2.95 3.25-2.95 1.45-2.05v1.65l1.1 2.65-2.25 7.5v6.35L184-21.5l-8.35 4.3-4.85-17.05-3.15-1.05 7.15-.65-4.75-3.55 10.75 2v3.95l3.3-3v-2.95l-3.95-1.6-10.1 1.6-5.55 3.15.15.4-9 4.1h-.05l2-2.95v-2.45l-2.15-4.35-2.3-3.35-1.05-5.8L156-47l1.65 1.6 3.15 3 1.3-1.9m-5.75-21.2v5.55l7.1-6.5-7.1.95m40.4 10.15-1 1.85 1-1.85m-22.65-63.2 1.1.55 2-1.45-3.1.9m9.65 2.9-1.65.25 1.65-.25m-6.2-1 .95 1.65 2.1-1.55-1.45-1.1-1.6 1m2.8-1.4.85.75 1.4-.75h-2.25M162.9-105.9l1.6 4-2.9.95 1.3-4.95m9.95 15.25-6.05-1.1q-1.7.25 1.1 2.3.4-.7 3.45-1.05l1.7 1.85 1.1-1.5h2.05l-3.35-.5.15-1.4-.1-.05-.05 1.45m8.4-1.65-.55 2.15h-1.55l1.35-2 .75-5.6v5.45" transform="translate(0 146.3)"/><path fill-rule="evenodd" fill="#40361a" d="m152.7-121.75 13.8-9.3h-3.05l5.2-4.6-2.6-1.65-10 3.45 8.55-7.25 3.15-4.4 4.75-.8 12.35 4.6 5.8 8.65v7.85l-3.3 4.75-.7-2h-18.3l-6.05 1.25-7.55 1.55-2.05-2.1m54 160.9 2.4 5.9-15.5 9.45-3.7-11.65h-6.15l7.1 13.2L199 65.6q3.45 6.9 5.9 10.1 1.35 2.5 2.4 3.35 2.9 2.3 8.55 13.1l-3.8-16.45q-5.45-17.6-4.7-18.9l.15-.35q.95-1.85 1.5-4.1l.8-.15 5.85 27.65 4.8 10.6-2.35 3.1 3.5 13.2-4.3 12 .85.55 4.55 14.65-5.2 17.7-14.8 10.65-19.5.75-16.65-9.2-5.6 10.65-11.6 6.95-9.85-5.85-17.2 6.05-16.4-4.25-7.55-11.15 6.35-8.65h-.05l3.4-17.8 4.65-7.15h7.5v-15.9l8.45 19.25 17.25-25.95v-42.7L134.8 63l11.1-16.15V37.2l-4-2.2-13.45-1.35L129.9 31l31.95 2.55-6.4 27.45-2.65 8 3.25 4.6-3.7 18.9 6.15 23.45.2 4.55.05 1.15.4-.45 4.25 6.65-1.2 9.05-.15 1.3.15-1.3-1.4-2.15 1.4 2.15 3.3 5.1 7.9-14.05-1.9-12.05 2.1-28.2-.1.2-.55-12.2-1.3-14.55-3-7.7-3.3-19.65 28.45 2.25.7 13.4 5.55-4.45.5-6.85 1.5 3h4.15l.5-2m-52.8-69.4-.75 2.05v3.65l-2.5 1.9 1.25 1.05 8.7 7.2-10.65 3.6-3.35-4.2 3.35 4.2L158.2-.25l5.85 4.3 6.3-7.85 15.55-10.5 4.45-3.05 2.35 10.8-13.55 10.9-1.65 14.85-16.9-1.65-4.7-.45V9.15l-2.6-7.1-7.35-14.65.65-2.4-5.5-6.95-5-3.3-5-3.3 5.4-.45 6.05-.4 11.35-.85m-3.25 5v2.6-2.6m7.55 25V6.8l2.4 10.75-2.4-10.75V-.25m32.45-132.8-5.9-2.2 5.9 2.2m-15.15 1v3.6l5.95 3.25 4.05-3.15-3.15-1.2 2.4-5.7-.8-.3-3.45-5.35-9.2-2.6-2.15 3.35 4.9.95-1.4 6.1 2.85 1.05m-5.3 183.2 1.45 10-1.45-10m3.8 31.3-.4 5.25.4-5.25m9.95-6.75-1.7-2.2 3.2 26.5 15.6 28-3.15-27.9-13.95-24.4m25.4 29.05 8.75-11.2-8.75 11.2m4.4 24 3.55-10-3.55 10m-43.5 18.05-.75 1.4-3.95-6.1-.05-.1.05.1 3.95 6.1.75-1.4m-13.9-30 2.35 3.7-2.35-3.7m10.2 37.05 2.95-5.65.75 1.15-.75-1.15-2.95 5.65m-16.35-76.4 2.6-8.45-2.6 8.45m-8.35 87.35-2.35.8-1.4-.8 1.4.8 2.35-.8m-37.15-17.2 1.2-1.7-1.2 1.7" transform="translate(0 146.3)"/><path fill-rule="evenodd" fill="#b45007" d="m182.35-129.55-6.85-2.5-2.85-1.05 1.4-6.1-4.9-.95 2.15-3.35 9.2 2.6 3.45 5.35.8.3-2.4 5.7m-8.3-9.65 9.9 3.65-9.9-3.65" transform="translate(0 146.3)"/><path fill-rule="evenodd" fill="#80766a" d="m187.95-118.45 6.4 20-6.45-12.65-1-1.95-.2-.45-4.5-8.95h4.45l.7 2 .6 2m-28.2 6.85v-2.85l-5-5.2 7.55-1.55 6.05-1.25L164.5-112v6.5l1.8 4.55-3.5 3.35.15 10.55-2.15 7.4v-9.55l-4.15 8.15 2.3-8.9v-10.65l-10 26-2.15 1.1 11.25-30.95-1.6-2.65 3.3-4.5v4.85-4.85m15.55-10.85-1.2 3.9-.3 1.1-.75 2.35-.5 1.7-1.15 3.95-1.35 4.4.8-4.1.05-.15.4-2.25.55-2.75.25-1.2.55-2.75.8-4.2h1.85m-12.4 16.55-1.3 4.95 2.9-.95-1.6-4" transform="translate(0 146.3)"/><path fill-rule="evenodd" fill="#fde3b3" d="m186.7-113.5-.3 3.2-1.8-1.7-.35-1.65 2.45.15m-4.45 25-.65.25-.6.25-.1.05-3.6.25-.65.05 2.7-1.55-1.85-.95v-4.9l-1.1 2.45-3.45-1.5.35-10.65 1.2-7.8 2.65-3.8.35 1.6 1.4 1.8.15.2v.35l.05.4.05 1.15.15 2.75 4.85 3.2v12.3l-.3 3.5-1.95-1.95-1.2.9 1.55 1.65m-.2 8.2 4.45 2.35h2.35l7.5-4.1 2.1-.85 3.25 3.45 2.6 7.35-1.6 3.15 2.3-2.4 11.7 35.1 4.25 8.9 3.65 3.95.75 2-1.5 5.15.45 2.8-.6.05q-.6-.4-1.05-.95l-1.6-1.7-.2 1.15-.05.5q-.2 1.15-.95 1.65-.75-.55-.65-2.1l.1-2.25q.05-1.85-.25-2.2-.3-.35-.4-.95l.05-1.65q.1-.9-.4-1.15-.2-.1-.15-.5 0-1.45-1.55-2-.35-.1-.55-.5l-.35-.5q-.9-1.1-1.05-2.4l-.1-.5q-.4-1.95-2.2-3.2l-.15-.35-7.2-18.2-5.15-6-1.95-4.3-3.25-2.15q-3.25 12.1-10 16.75-6.35 2.2-11.65 2.15l-10.9.45 7.1-10.35-2.9-3.3-4.8 2.9-3.45 1.3-1.3-.55 18.85-16.6 11.55-2.9-6.5-1.65 2.25-2.05-.85-2.8M153.9-30.25l.75-2.1.95.5h.05l9-4.1-.15-.4 5.55-3.15 10.1-1.6 3.95 1.6v2.95l-3.3 3v-3.95l-10.75-2 4.75 3.55-7.15.65 3.15 1.05 4.85 17.05-12 6.15-1.3 1.8-1.75-5.15-8.7-7.2 1.25-1.6v-5l.75-2.05m9.15-1.55-.85 2.4-4.25-1.25-2.3-1.2 2.3 1.2 4.25 1.25.85-2.4m11.05-86.75 3.1-.9-2 1.45-1.1-.55m-.3 1.1.85.65-.85 2-.75-.3.75-2.35m-1.7 1.95-4.05-1.55v-.85l3.4.75v-1.9l1.2.8-.55 2.75m5.45-1.15 1.6-1 1.45 1.1-2.1 1.55-.95-1.65m2.8-1.4h2.25l-1.4.75-.85-.75m10.55 40.1h-2.05 2.05m-18.05-12.7 3.35.5h-2.05l-1.1 1.5-1.7-1.85q-3.05.35-3.45 1.05-2.8-2.05-1.1-2.3l6.05 1.1m8.4-1.65v-5.45l-.75 5.6-1.35 2h1.55l.55-2.15m-1.45 43.55v-.15l-.35-.2.35.35-.05 1.2-.15.1-1.85.2-1.25.15q-.6.2-.5-.4v-.15l.5-.15-.5.15v.15q-.1.6.5.4l1.25-.15 1.85-.2.15-.1.05-1.2m-3.9-.3 3.55-.05-3.55.05m45.05 21.7-2.05-2.2 2.05 2.2m-59.75-.05 1-2-1 2m62.15 7.7.5 3.45-.5-3.45" transform="translate(0 146.3)"/><path fill-rule="evenodd" fill="#c64a09" d="m182.35-129.55 3.15 1.2-4.05 3.15-5.95-3.25v-3.6l6.85 2.5" transform="translate(0 146.3)"/><path fill-rule="evenodd" fill="#ccc" d="m172.55-113.4.2.35-.1 1.35v.2l-.1.65-.35.8q-.3.35-.8.6l1.15-3.95m-3.35-1.35.5-.65.95.3q.7.3 1.2.8l-.55 2.75-.75-2.25-1.35-.95m9.85 1.7q.7-1.45 2.1-2.05l.95-.3.5.6q-1.35.55-2.4 1.4-.4 1.6-.05 3.8-.75-.45-.9-1.25l-.15-1.15-.05-.4v-.65" transform="translate(0 146.3)"/><path fill-rule="evenodd" fill="#fcfcfc" d="M170.5-109.2q-1.2-.15-2.1-1.85-.8-1.5.8-3.7l1.35.95.75 2.25-.4 2.25-.4.1m12.1-5.6q1.6 2.25.8 3.75-.95 1.7-2.1 1.85l-1.15-.4q-.35-2.2.05-3.8 1.05-.85 2.4-1.4" transform="translate(0 146.3)"/><path fill-rule="evenodd" fill="#c57627" d="m212.2-33 .15.35q-.2-.15-.35-.25l.2-.1m-41.35-76.15-.35-.05.4-.1-.05.15m8.05-3.8.15-.1v.3l-.15-.2m.35 2.1h-.1l-.05-1.15.15 1.15" transform="translate(0 146.3)"/><path fill-rule="evenodd" fill="#dc924a" d="m164.65-35.95-.15-.4.15.4m8.2-54.7.05-1.45.1.05-.15 1.4" transform="translate(0 146.3)"/><path fill-rule="evenodd" fill="#fed6a5" d="m224.3-13.45.15.9h-.05l-.7-.85.6-.05M156.35-65.5l7.1-.95-7.1 6.5v-5.55m23.1 16.4.35.2v.15l-.35-.35" transform="translate(0 146.3)"/><path fill-rule="evenodd" fill="#810a0a" d="m224.45-12.55.7 4.45-2.45-2.35-2.85 9.75v2.8l-.4-.15.4 1.95v3.4l-2.5 8.95V21l-3-1.65-.6 2.1V30l-3.45 5.4 2.75 1.05-1.6 1.6-4.25-.9-.5 2-.5 2h-4.15l-1.5-3 1.25-16.7 2.5-2.4h2.75l2.1-2.05 1.75-2.85 3.05-12.5.45-1.25-.15-.1.25-1.15-2.6-11.1 1.5-10.5-3.5-12.7.6.35q.35 1.15 1.5 1.9.15.1.35.25 1.8 1.25 2.2 3.2l.1.5q.15 1.3 1.05 2.4l.35.5q.2.4.55.5 1.55.55 1.55 2-.05.4.15.5.5.25.4 1.15l-.05 1.65q.1.6.4.95.3.35.25 2.2l-.1 2.25q-.1 1.55.65 2.1.75-.5.95-1.65l.05-.5.2-1.15 1.6 1.7q.45.55 1.05.95l.7.85h.05m1.4 11.35.3 2.4-2.3 6.55-.5-5.6 2.5-3.35m-86.1-43.55h.05q.55 2.25 1.6 4.45l6.75-7.05-5.6 17.95-6.05.4 3.25-15.75m11.15-8.6 2.05-2.55 3.8 1.6-1.95 1.7 3.9 5.25 1.55 2.1.7 1 1.15-.05-1.3 1.9-3.15-3 .55.05.3.05 1.1.2.65-.15-.65.15-1.1-.2-.3-.05-.55-.05L156-47l-3.9-3.75-.15-.65v-1.95h-1.05M156-47l2.7-.35-2.7.35m-19.9 21.75 5 3.3-1.5 28.9-4.95 8.1-5.45-.5.5-3.95 5.95-13.15V-23.6l.45-1.65m77.3 2.8.2-1.35-.2 1.35m-5.2 55.6-1 4 1-4" transform="translate(0 146.3)"/><path fill-rule="evenodd" fill="#7b6415" d="m209.1 45.05 1.2 2.9-.85 2.6-.45 1.8q-.55 2.25-1.5 4.1l-.15.35-2.35 3.25 6.1 15.65 4.75 16.45q-5.65-10.8-8.55-13.1-1.05-.85-2.4-3.35-2.45-3.2-5.9-10.1l-8.15-9.55-7.1-13.2h6.15l3.7 11.65 15.5-9.45M145.95-12.6l7.35 14.65 2.6 7.1v7.95l-4.7-.45-1-4.4-7.2-14.4 2.95-10.45m39.95-1.7-1.9-7.2 3.65-1.9v-6.35l8.1-1.9-2 6.3-3.4 8-4.45 3.05m6.8 7.75 3.65 16.85q-1.3 5.1-1.95 10.55l-16.9-1.65 1.65-14.85 13.55-10.9m-2.95-18.35-2.1 1.5 2.1-1.5m-5.8 100.6 13.95 24.4 3.15 27.9-15.6-28-3.2-26.5 1.7 2.2m24.75-28.45.75 3.3-.75-3.3M108.05 129.8l2-14.05L122.3 89.8l3.3-14.1.85-2.6 12.5-23.6v-9.85h-13.7l3.2-6L141.9 35l4 2.2v9.65L134.8 63l11.1-5.65v42.7L128.65 126l-8.45-19.25-7.5 15.9-4.65 7.15m20.45-37.75v7.9l9.6-17 1.55-7.25 4.3-14.7-7.5 10.85-1.95 3.85-6 16.35" transform="translate(0 146.3)"/><path fill-rule="evenodd" fill="#ec2f00" d="m225.15-8.1.7 6.9-2.5 3.35.5 5.6-2.25 6.55v1.35l-1.4 3.8 1.1 3.85-1.55 10.9-1 1.15-1 1.15-4.7-.05-2.75-1.05 3.45-5.4v-8.55l.6-2.1 3 1.65v-4.75l2.5-8.95v-8l2.85-9.75 2.45 2.35m-68.4-46.2 1.3.55 3.45-1.3 4.8-2.9 2.9 3.3-7.1 10.35-1.15.05-.7-1-1.55-2.1-3.9-5.25 1.95-1.7m3.5 9.05h.05l.55-.35q.55-.35.6-.8l-.1-.3-.4-.4h-.15l-2.1-.25 2.1.25h.15l.4.4.1.3q-.05.45-.6.8l-.55.35h-.05m-24.6 21.65v21.05L129.7 10.6l2.95-23.5 3-10.7m79.05 58.45-1.65 1.6 1.65-1.6" transform="translate(0 146.3)"/><path fill-rule="evenodd" fill="#702d14" d="m221.3 23.3 7.95.25 2.7 7.3v2.4l-3.1 2.1h-10.1l1-1.15 1.55-10.9m-24.95-13 .65-2.4 5.2 6.9-.4 6.65-1.25 16.7-.5 6.85-5.55 4.45-.7-13.4-.05-3.25.1-5.2-.1 5.2-54.95-9.65 55.05 4.45.3-4.45.25-2.3q.65-5.45 1.95-10.55" transform="translate(0 146.3)"/><path fill-rule="evenodd" fill="#333" d="M207.35 56.8q-.75 1.3 4.7 18.9l3.8 16.45-4.75-16.45-6.1-15.65 2.35-3.25" transform="translate(0 146.3)"/><path fill-rule="evenodd" fill="#fffdec" d="m129.2 14.55 5.45.5 16.55 1.6 4.7.45 4.7.45 16.9 1.65 16.9 1.65-.25 2.3H138.8l-47.45-5.1 4.7-2.9L92.5 11l36.7 3.55M27.05 4.65l-.3 6.4-17.5-1.9L19.1 3.9l7.95.75" transform="translate(0 146.3)"/><path fill-rule="evenodd" fill="#c4b491" d="m193.8 36.05-28.45-2.25-3.5-.25L129.9 31l-45.1-3.55q-5.45 1.4-10.75 3.4-.05-5.3 5.05-9.05 5.1-3.75 12.25-3.75l47.45 5.1 54.95 9.65.05 3.25m-167.05-25q0 5.7-3.45 9.75T15 24.85L0 14.05l9.25-4.9 17.5 1.9" transform="translate(0 146.3)"/><path fill-rule="evenodd" fill="#a4421e" d="m194.15 23.15-.3 4.45-55.05-4.45h55.35" transform="translate(0 146.3)"/><path fill-rule="evenodd" fill="#fe8e1f" d="m92.5 11 3.55 4.15-4.7 2.9-64.6-7 .3-6.4L92.5 11" transform="translate(0 146.3)"/><path fill-rule="evenodd" fill="#c60" d="M74.05 30.85q-3.35 1.25-6.6 2.75h-.05.05q-3.65 4.55-4.35 10.6.1-4.05-1.05-8.05-4.7-1.05-7.25 9.45-1.1-7.6-5.45-9.1-16.6-6.05-31-9.2L15 24.85q4.85 0 8.3-4.05 3.45-4.05 3.45-9.75l64.6 7q-7.15 0-12.25 3.75t-5.05 9.05m-11.95 5.3.15-2.55h5.15-5.15l-.15 2.55h-.05.05m.25-4.1-.1 1.55h-.55.55l.1-1.55" transform="translate(0 146.3)"/><path stroke-width=".05" stroke-opacity=".4" stroke-linejoin="round" stroke-linecap="round" stroke="#000" fill="none" d="m167.75.8-4.8.75L154.2 8l-4.45 13.5 2.95 3.05M167.75.8l4.75-.8 12.35 4.6 5.8 8.65v6.15l4.5-4.95-7.2 13.4 6.4 20-6.45-12.65-1-1.95-.2-.45-.3 3.2-1.75 19.25v1.7l-2.4.85-.65.25m-.6.9 1.05 7.05 4.45 2.35h2.35l7.5-4.1 2.1-.85 3.25 3.45 2.6 7.35.7.75 11.7 35.1 4.25 8.9 3.65 3.95.75 2-1.5 5.15.45 2.8.15.9.7 4.45.7 6.9.3 2.4-2.3 6.55-2.25 6.55v1.35l-1.4 3.8 1.1 3.85 7.95.25m-.4 11.8h-10.1l-1 1.15-4.7-.05-1.6 1.6-4.25-.9-.5 2 2.4 5.9 1.2 2.9m-.85 2.6.35 1.65 5.85 27.65 4.8 10.6.05.05-2.4 3.05 3.5 13.2.35-1.1m-67.2-225.3-2.05-2.1m7.05 10.15-8.15-9.4 4.55 8.8v-1.7m-1.4-5.75 5 5.2v7.7m-3.3-.35 1.6 2.65L146.8 72.8l2.15-1.1 10-26v10.65l-2.3 8.9 4.15-8.15v9.55l2.15-7.4v8.6l-5.05 4.8-5.75.3 10.5 3.4m-.35-51.25-7.55 1.55m1.4 7.45v.9m-4.55-9.7-5.15-5.9m3.3 2.1-9.55-9.95 16.25 27.65m-9.65 33.6-2.15 1.05-2 13.55-2.9 14.1v.05l-3.25 15.75-5.4.45 5 3.3 5 3.3 5.5 6.95 3.35 4.2m-1.8-36.55 1.65-6h1.1l2.05-2.55 3.8 1.6m26.15-23.2-.85-2.8M152.1 95.55l-.15-.65v-1.95h-1.05m7.8 6 2.1.25h.15l.4.4.1.3q-.05.45-.6.8l-.55.35h-.05l-.65.15-1.1-.2-.3-.05-.55-.05 3.15 3 1.3-1.9m-9.95-29.05-3.2-1.25m9.75 27.25-2.7.35 1.65 1.6m-2.05 13.55 2-2.95v-2.45l-2.15-4.35-2.3-3.35-1.05-5.8 3.9 3.75m-2.1 16.75.75-2.1.95.5h.05l2.3 1.2 4.25 1.25.85-2.4m21.05-4.75 3.25-2.95 1.45-2.05 2.65-3.8 4.3-8.15 1-1.85m-43.6 30.8v-3.65l.75-2.05-11.35.85-6.05.4m24.1 14.6-8.7-7.2-1.25-1.05v-2.6m-2.5-22.1-5.6 17.95m-6.9 5.8-3 10.7-2.95 23.5-.5 3.95 5.45.5 4.95-8.1 1.5-28.9m12.05-2.6v1.35l-1.25 1.6m-5.3 6.6-.65 2.4-2.95 10.45-.95 3.45-2.45 5.65m16.3 10.15 4.7.45-2.4-10.75v-7.05l-8.25-10.55m12.4 1.55-1.3 1.75-2.85 7.25 5.85 4.3 6.3-7.85L185.9 132m-1.9-7.2-8.35 4.3-12 6.15-1.3 1.8-1.75-5.15m-9.4 31.05 4.7.45m-5.25-39.75 2.5-1.9m-17.05-.7-.45 1.65m49.1-111.65 5.9 2.2m0 6.15v1.7l-3.3 4.75.6 2m-4-17.1.8.3m-2.55 12.8h-1.6m-8.05 9.05.2.35-.1 1.35v.2l-.1.65-.35.8q-.3.35-.8.6m-.9.25q-1.2-.15-2.1-1.85-.8-1.5.8-3.7l.5-.65.95.3q.7.3 1.2.8m7.2 1.25q.7-1.45 2.1-2.05l.95-.3 1.65-.25m-4.65 3.65-.05-.4v-.35m1.1 3.15 1.15.4q1.15-.15 2.1-1.85.8-1.5-.8-3.75m-2.45 5.2q-.75-.45-.9-1.25l-.15-1.15m7.6-1.5-4.5-8.95h4.45l.7 2m-5.25 5.05.5.6m1.35-20.75-9.9-3.65m35.85 104.05-.3-1.2-5.75-14-.5-.55-1 4.1-2.05-5.35-1.5 6.2m-.05 0-1-6.2q-.15-.25-.25.25l-.85-2.2-.9.6M205 74.95l-2.3 2.4 1.6-3.15m-15.45-5.85h2.05m-2.1 36.4v1.65l1.1 2.65-2.25 7.5 8.1-1.9-2 6.3-3.4 8 2.35 10.8 3.65 16.85.65-2.4 5.2 6.9-.4 6.65 2.5-2.4h2.75l2.1-2.05 1.75-2.85 3.05-12.5m.3-1.35.25-1.15-2.6-11.1 1.5-10.5-3.5-12.7M179.45 97.2l.35.2v.15l-.05 1.2-.15.1-1.85.2-1.25.15q-.6.2-.5-.4v-.15l.5-.15m2.95-1.3-3.55.05m14.45 31.7L185.9 132m-1.9-7.2 3.65-1.9v-6.35m-3.55-6.8-3.3 3m6.85 10.15 2.1-1.5m29.15-4.65 2.05 2.2m-7.35 3.55-.2 1.35m-.35 58.9 1.65-1.6m9.15-51.1-.5-3.45m-61.15-9.7-1 2m60.1 50.7-1.55 10.9-1 1.15m-12.05 3.8-.5 2h-4.15l-1.5-3-.5 6.85-5.55 4.45-.7-13.4-28.45-2.25 3.3 19.65 3 7.7-1.45-10m37-14 1-4m-11.85-22.85q-1.3 5.1-1.95 10.55l-.25 2.3-.3 4.45-.1 5.2.05 3.25m6.75 2.1 1.25-16.7m-7.4-.6-16.9-1.65-16.9-1.65m11.05 43.6 1.3 14.55.55 12.2m.1-.2.4-5.25m35.45-31.9-.75-3.3m7.15 44.9L211.1 222l-6.1-15.65 2.35-3.25m10.75 36.75-8.75 11.2m12.25 2-4.3 12-3.55 10m4.4-9.45 4.55 14.65-5.2 17.7-14.8 10.65-19.5.75-16.65-9.2-5.6 10.65-11.6 6.95-9.85-5.85-17.2 6.05-16.4-4.25-7.55-11.15 6.35-8.65m-.05 0 3.4-17.8 2-14.05 2-14V235.5l1.6-3.7-.4-7.2.85-2.6 6.55-15v-12.35l4.6-8.7 3.2-6 1.45-2.65-45.1-3.55q-5.45 1.4-10.75 3.4-3.35 1.25-6.6 2.75h-.05m-5.35 2.55q-4.7-1.05-7.25 9.45-1.1-7.6-5.45-9.1L48 196.5v3.7m173.6 52.85.35 1.4M162.2 283.2l1.2-9.05-4.25-6.65-.45-.7-2.35-3.7m5.7 21.4.15-1.3-1.4-2.15m4.7 7.25.05.1 3.95 6.1.75-1.4m3.35-59.1-2.1 28.2 1.9 12.05-7.9 14.05-3.3-5.1m8.05 12.45-.75-1.15-2.95 5.65m-4.7-120.3-31.95-2.55m21.3-14.35-16.55-1.6M92.5 157.3l-65.45-6.35-7.95-.75-9.85 5.25-9.25 4.9 15 10.8 3.35 2.45q14.4 3.15 31 9.2m89.45-13.35h55.35m-73.8 48.6-2.4 3.95-4.3 9.8m39.15-16.5 2.65-8 6.4-27.45 3.5.25m-6.85 82.15-6.15-23.45 3.7-18.9-3.25-4.6-2.6 8.45m-21-62.9-36.7-3.55m-30.4 25.15h-.05m50.65 86.5-4.65 7.15m12.15-23.05 8.45 19.25m-22.75 19.9-1.2 1.7m33.4 17.2 1.4.8 2.35-.8m51.9-132-54.95-9.65"/><path stroke-width=".05" stroke-linejoin="round" stroke-linecap="round" stroke="#ec2f00" fill="none" d="m181.6 58.05-.6.25"/><path stroke-width=".05" stroke-linejoin="round" stroke-linecap="round" stroke="#c60" fill="none" d="M61.7 179.9h.55l.1-1.55m5.05 1.55h-5.15l-.15 2.55"/></g><path fill-rule="evenodd" fill-opacity="0" fill="#f0f" d="M100 40H0V0h100v40" id="a"/><use xlink:href="#a" width="100" height="40" id="c"/></defs><path fill="none" d="M-1-1h192v266H-1z"/><use x="141.55" y="225.375" xlink:href="#b" width="381" transform="translate(-192.55 -294)" height="381"/><use x="76.509" y="121.818" xlink:href="#c" width="100" transform="translate(-80 -218) scale(1.8501)" height="40"/><use x="176.167" y="280.492" xlink:href="#d" width="231.95" transform="translate(-140.05 -223.995) scale(.8035)" height="324.05"/></svg>