<svg width="280" height="258" xmlns="http://www.w3.org/2000/svg" xmlns:xlink="http://www.w3.org/1999/xlink"><defs><g id="b" stroke-opacity="0" stroke-linejoin="round" stroke-linecap="round" stroke="#f0f" fill="none"><path d="M187.95-293.5v380h-380v-380h380" transform="translate(192.55 294)"/><path d="m187.95-293.5-190 190 190 190m-380-380 190 190L-192 86.5M92.95-38.4H-97" transform="translate(192.55 294)"/></g><g id="d"><path fill-rule="evenodd" fill="#481c11" d="M227.1-171.4v-7.75l.05-3.75.25-6.6q.15-3.85.45-7.2l.7-6.3.65-2.7q1.75-6.5 4.85-11.65l3.5 9.8 7.05-.4 2.7.85-2.7-.85q2.55-3.6 4.95-10.55l1.95 14.5.35 6.7-1.75-.5 1.75.5q.4 4.05-.05 7.35-.7 5.4-2.45 8.9v-3.3q.45-6.15-.25-9.1-8.6 4.15-13.8 0v-.85q1.75-.5-1.05.25l-.95.8-2.05 3.75-.9 2.1q-.3 8.25.75 12.45 3.45 3.9 6.2 3.55h8.8l3.95 1.4q1.9.85 2.65 3.15l-1.2-.25.1-.15-1.45-.2h-.3l-1.05-.15-.05.05h-.1l-.5-.05h-.3l-2.95-.3q-2.05-.25-4.9-.1-.1 1.55-.4 2.05-.35.5 6.25-.1l2.8.05.3 1.05.45 1.6 1.5-2.6h1.35l1.6.05 1.5.5-.2.95-.05.3v.05l-.3 1.2h.05l-.4 1.95v6.5l-2.55-2.9q-3.7-2.05-4.8 3.5-1.15 5.5-6.85 11.75-3.2 4.55-3.3 8.4-4.45-.15-4.95-2.7l.25-5.15q.4-3.85-.2-7.8-.4-2.35-1.25-4.55l-.9-1.95-2.05-3.8-.55-.8-.1-3.35v-.5l-.05-2.7v-1.1l-.05-3.1h.05l-.05-.2m4.15-.7-2.75.55-.65.15-.7.2.7-.2.65-.15 2.75-.55m5.75-33.25-1.45.7 1.6-.4q2.05.6 3.35 2.2l.75-1.15.15.1 2.8 1.55 1.7-2.95q1.1-1.75 2.5-1.35l-1.1-.45-5.1.25q-2.85.4-5.2 1.5m-4.45-.3 1-.45 4-1.45-4 1.45-1 .45m5.4 7.9q-.3-2.45-1.55-4.8-1.3-2.1-2.4-.2-1.1 1.85-.9 6.2l.35-.1.1-.05 3.9-.95h.05l.45-.1 7.9-.6-7.9.6m12.15-.05q-1.3-7.85-3.05-6.35-1.3 1.65-1.2 5.8h.35l3.25.4.15.05.5.1m-3.85-6.5.05-.05h-.05v.05M197.7-58.6l-5.1-3.3v-3l.9-1.9 6.3-1.5h8.8l-7.1-3.1q1.7-2.4 4.65-4.25l1.4-.85q1.5-.85 3.3-1.55l2.25-.8 3.7-.65 4.8-.2q-9.6 2.95-6.4 5.95 25.05 1.25 16.65-4.95h10.55l4.3-1h3.1l5.1-4.2 1.9-1.6q-4.05-2.5-4.7-5.7l2.25-5.8 1.75.8 1.9-3.9-5.4-5.5 3.4-4.45v-2.45l5.4 7.2 9.6 4.4 6 4.5q.7-2.6 6.65-4.2l-.95-2.2v-2.4l1.4-4v-4.4l-7.7-9.9-6.8-2.1v-4.6h1.65v-8.45l.35-1.1q.7 9.6 7.25 17.8 6.2-3.55 6.6-11.2 2.55 6.9 5.1 15.8l.1.65q.55 6.7-4.15 13.05l3.1 3.55 3 4.8 6.8 1.85 1.5 2.75 8.5 4.2q6 6.25 6.5 11.7v4.3l1 6q-.3 3.55-3.5 4.9-4.15.5-9.1 3.9l-7.8-3.9-7.9-13.8-9.3-10.4-11.5-2.8-5 .95-5.2.2-.8-.05.8.05 5.2-.2 5-.95 11.5 2.8v5.1l-2.1 3.4v4l-1.1 2.6v3.8l-5.7 1.2-.8.55-2.4 1.25-2.6 1-1.8.35q-2.3.3-5.2-.1l-1.4-.25q-3.9-2.45-7.05-3.6l-.45-.15.45.15-.45-.15-2.2-.65-1.9 1H239l-2.2 1.1-6.35 3.2-6.35 3.25-8.1 4.05h-6l-7.2-2.6-5.1-3.3m56.75-89.9v1.9l3 1.75-1.05 2.3h-.75v1.7l-1.7 3.7q-1.9 1.45-4.5 2.45l-2 .65q-.3.3-1.55.45l-4.15.15q3-9.65 12.7-15.05m-8.6-17.55.25.85-.25-.85m-8.65-1.75 2.8-.2-2.8.2-2.25.2-1.4.15 2.35 4.1 1.3-4.45m-4.2.3.55.05-.55-.05m55.7 72-2.6-1.3-2.1-2.9-.35-.9.35.9 2.1 2.9 2.6 1.3q-3.8.6-4.9 3.5l3 1.7 4 4.6q5.35-4.45 9-5.05l-8.7-.55-2.4-4.2m12.2 4.8-1.1-.05 1.1.05m-50.85-38-6.25 13.75-1.8-.75-3 7.7 1.25.6-5.45 14.5h-1.5l-2.4 5.7 1.45.7-3.3 6.35.35-10.75-6.8-7.4-7-11.4-6.6 32-1.55.9.55-5.5q-1.65-6.85-7.25-8.1l3.4-18.3q5.2 4.8 4.9 15.15l1.55-16.75q5.3-2.25 9.9-6.05-.15-8.9 2.5-14.35l1.3-.1 7.25 1.25.1.05 7.55 1.3h.05l2.85.5 7.95-1m19.55 14.9v-6.95q5.25 4.75 3.4 7.1l-3.4-.15m-13.6 6.2v-2.45 2.45m-22.9-88.95-2.75.85 2.75-.85m-1 26.65-1.05.4h-.1l-2.05.75-1.05.4-.7.25.7-.25 1.05-.4 2.05-.75h.1l1.05-.4m-1.5 4.5-1.05.45-1.35.65-.35.2h-.05l-.6.3.6-.3h.05l.35-.2 1.35-.65 1.05-.45m-12.8 55.7h-2.2 2.2m18.4 5q-8.5 2.1-16.2-8.8 2.4 7 9 11.2 6.2 1.05 7.2-2.4m-2.1 10.2h-4.3q.25-.8.95-1.2l3.05-.2-3.05.2q-.7.4-.95 1.2h4.3M275-66.1l1.1-2.6-1.1 2.6m49.95 185.95q4.8-.6 7.9-3.5l1.35 3.05-5.55 7.35-3.7-6.9m13.6 9.1 1.05 2.35q-1.35 3.2-4.85 2.9l3.8-5.25m-166.2-8.15 3.3-10.65q4.85 6.5 10.3 9.05l-6.75 16.9-1.55 1.65-5.3-16.95" transform="translate(-28 218.5)"/><path fill-rule="evenodd" fill="#cb582e" d="m242.15-205.9-.05 1.1 1 .75 1.75-1.6-2.7-.25m-3.65.5 1.7 1.3 1.35-1 .1-.75-3.15.45m-1.5.05q2.35-1.1 5.2-1.5l5.1-.25 1.1.45q-1.4-.4-2.5 1.35l-1.7 2.95-2.8-1.55.05-.45-.2.35-.75 1.15q-1.3-1.6-3.35-2.2l-.15-.3m14.85 8.05-.35-6.7-1.95-14.5q2.3 6.25 3 12.5 1.4 8.25 2.3 16.5.85 8.2 1.2 16.4l-.05.75h.05l-.15 2.95-3.6-.8 3.6.8-.5 3.5-.05.5-1.5-.5-1.6-.05h-1.35l.6-1.15 1.2.25q-.75-2.3-2.65-3.15l-3.95-1.4h-8.8q-2.75.35-6.2-3.55-1.05-4.2-.75-12.45l.9-2.1 2.05-3.75.95-.8q2.8-.75 1.05-.25v.85q5.2 4.15 13.8 0 .7 2.95.25 9.1v3.3q1.75-3.5 2.45-8.9.45-3.3.05-7.35M193.5-66.8l4.8-10.55 1.45-7.65 1-5.4q5.6 1.25 7.25 8.1l-.55 5.5-1.5.85-2.55 1.45 2.55-1.45.2.3q-2.95 1.85-4.65 4.25l7.1 3.1h-8.8l-6.3 1.5m59.1-105.8 3.4.25-3.4-.25m19.5 31.1q2.05-1.8 4.1-2.2 4.55.15 6.2 3.1l3.05 7.45q-.4 7.65-6.6 11.2-6.55-8.2-7.25-17.8v-.05l.5-1.7m18.65 24.8.15.4.2.8 6.8 19.3 1.5 2.75-6.8-1.85-3-4.8-3.1-3.55q4.7-6.35 4.15-13.05h.1m-42.1-49.3-2.8-.05q-6.6.6-6.25.1.3-.5.4-2.05 2.85-.15 4.9.1l2.95.3.3.05.5 1.55m20.95 40.4 6.8 2.1 7.7 9.9v4.4l-1.4 4v2.4l.95 2.2Q277.7-99 277-96.4l-6-4.5-9.6-4.4-5.4-7.2-4-7 5.6-1.75v3.05l3.6 1q3.1 1.1 8.4 3.4l3.4.15q1.85-2.35-3.4-7.1v-4.85m19.1 30.1 2.4 4.2 8.7.55q-3.65.6-9 5.05l-4-4.6-3-1.7q1.1-2.9 4.9-3.5M254.35-97l-1.75-.8v-7.8l5.4 5.5-1.9 3.9-1.75-.8m22.05-16.5-3.4-.15 3.4.15m-57.95-16.85.15.1-.05-.1.15-.05.45-.05 3.85-.25q-2.65 5.45-2.5 14.35-4.6 3.8-9.9 6.05l-1.55 16.75q.3-10.35-4.9-15.15l2.25-12 1.6-3.35q2.5-4.4 6.05-5.5l1.6-.4 2.8-.4m17.75 25.65q-1 3.45-7.2 2.4-6.6-4.2-9-11.2 7.7 10.9 16.2 8.8m-14.6 25 6.7 1h3.55q8.4 6.2-16.65 4.95-3.2-3 6.4-5.95" transform="translate(-28 218.5)"/><path fill-rule="evenodd" fill="#86421e" d="m227.1-171.4.05.2h-.05v-.2m15.05-34.5 2.7.25-1.75 1.6-1-.75.05-1.1m-3.65.5 3.15-.45-.1.75-1.35 1-1.7-1.3m2.75 1.4.2-.35-.05.45-.15-.1m13.2 49.55v5.95q-9.7 5.4-12.7 15.05h-.05l-4.75-.25q.1-3.85 3.3-8.4 5.7-6.25 6.85-11.75 1.1-5.55 4.8-3.5l2.55 2.9m36.1 37.1.2.65h-.1l-.1-.65m-42.4-50.25v.05l-.3-.05h.3m86.05 287 2 4.4 2.35 5.15-3.8 5.25-2.35-.5-3.75-6.95 5.55-7.35m-156.55 18.35-1.85 1.35q-4.3 2.45-8.6-1.8l5.15-16.5 5.3 16.95" transform="translate(-28 218.5)"/><path fill-rule="evenodd" fill="#ae5526" d="m237.15-205.05-1.6.4 1.45-.7.15.3m8.7 39 .25.85-.25-.85m4-1.4-1.1-.1.05-.05 1.05.15M209-77.7l1.8-.55 2.3-.6-2.25.8q-1.8.7-3.3 1.55l-1.4.85-.2-.3 1.5-.85 1.55-.9" transform="translate(-28 218.5)"/><path fill-rule="evenodd" fill="#fff" d="M233.1-196.55q-.2-4.35.9-6.2 1.1-1.9 2.4.2 1.25 2.35 1.55 4.8l-.45.1h-.05l-3.9.95-.1.05-.35.1m12.75-1.8q-.1-4.15 1.2-5.8 1.75-1.5 3.05 6.35l-.5-.1-.15-.05-3.25-.4h-.35m3.1 33.4-.3-1.05-.5-1.55v-.05l.5.05h.1l1.1.1h.3v.05l-1.2 2.45" transform="translate(-28 218.5)"/><path fill-rule="evenodd" fill="#9f3a06" d="M246.25-204.3v-.05h.05l-.05.05" transform="translate(-28 218.5)"/><path fill-rule="evenodd" fill="#333" d="M149.6-14.3v-.75l22.15-30.55.45.3h3.6l7.2-3.8 5.8-8.8h-7.6l10.9-15.95L199.75-85l-1.45 7.65-4.8 10.55-.9 1.9v3l5.1 3.3-4.7 6.9-7.15 13.5.95-2.3-13.4 6.8-5.8 14.6 3.8 3.6 7.8-7L162 8.1l6 19-5.8 8.4-.75 2.15L148 63.7l-5.2 6.8-1.15 2.3-7.45 11.3-3.8 37.4v17.8l19.55 31.7 1.3-1.3 21.25 14.5-2.7 5.1h-71l5.2-9.6-12.05 6.7-4.15 3.3-12.2-17.6-4.2-17.6 20.55-79.85L102.4 46.4l6.6-7.3 3.8 5.4 11.6-13.2h-7.6l36-32.2 6.6-11.2-2.2-2.2h-7.6M322-11.5l8.4 5.2h4.35l5.55 7.8 8.5 11.8h-7.2l21.6 24h5.2l18.4 24.4H374l8.8 15.2h15.6l10 8.8 10 8.8 11.65 6.45 5.6 6.35 13 8 25.7 26.4L503 130.5l-26.7 36-11.2 10.4-15.1-16 10.8 21.6-21.25-8-7.35-18.4v20l-2.15-5.05-15.65-18.15 8.8-12.8-17.6-8.8-24-28.6-2.25-5.75L364 57.7l-13.2-22.8-26-25.2V2.1l-1-.2-1.8-13.4m27.85 148.95 7.35 6.25v10q-8.25 6-8.8-11.3 1.15-2.45 1.45-4.95m14.5 22.9L384 178.5v8.8l-6 2.4-15.95-14.25-5.45-8.4 7.75-6.7M241.7-133.45l-3.3 2.35-6.75 1.6-.1-.05-7.25-1.25 5-8.3 2.95-2.45-.25 5.15q.5 2.55 4.95 2.7l4.75.25M364 57.7l5.2-5.6-10-5.6 4.8 11.2m95.3 74.4q1.65 4 4.95 5.95l.05.35v-6.3l-5.8-4 .8 4m-21.8-17 .1-.6-.4-2.4h-2.3l-.4 4.8q1.8.3 2.8-1.35l.2-.45m6.3 30.6-1.15 3.2 1.9 8q1.9-3.5 2.7-9.6-1-1.8-3.05-1.6h-.4m33.65 4.8-2.3 4q-3.1.4-4.55 4.15l-.1.65 3.1.8q3.9-1.6 5.05-7.2.05-2.3-1.2-2.4M154.2 24.9v4.6l8.4-9.2-2.6-7.2-5.8 11.8m-12.6-3.6 6-8-6.4 4.2-5.2 5.4 5.6-1.6m-24.4 60.8-14.4 10.8 5.6 1.2 8.8-12m-14.8-35.7L91.95 69.6l-37.8 120.5-1.65 1.6q-.25 2.05 1.4 1.6h.25v7.6l-.55 2.4q.05 1.1.55 1.45v10.9L28 199.7l12.25-55.6 17.55-23.95L76 87.7l-8.9 6.2 18.1-31.2-4.6 13.2 11.35-18 10.45-11.5m-23.75 61.7L67.5 118.6l-.4-1q-1-2.45-.7.1l-.55 2.4 1.65-1.5 3.35 9.5q3.4-11.2 7.8-20m-24.5 52.8 6.7-4 .25-12.8-6.95 16.8m104.1-18.95 8.2 17.8-9.25 4.4q-1.8-1.75-3.4-4.05-1.35-4.45-.35-9.35l.35-1.65 4.45-7.15M114.95 107 124 95.3l-12.15 5.2 3.1 6.5M96 148.1q5.7-4.75 12.25-7.35.95-.45.55-2.25-.15-4.15-4.85-5.4l-2.35-.2 1.6 8.8-7.2 6.4" transform="translate(-28 218.5)"/><path fill-rule="evenodd" fill="#691003" d="M149.6-15.05v.75l-.25-.7.25-.05" transform="translate(-28 218.5)"/><path fill-rule="evenodd" fill="#f7e8d0" d="M256.05-172.35H256h.05" transform="translate(-28 218.5)"/><path fill-rule="evenodd" fill="#fef8f8" d="m255.25-164.9-.4 2h-.05l.3-1.2v-.05l.05-.3.1-.45" transform="translate(-28 218.5)"/><path fill-rule="evenodd" fill="#a8b1b9" d="m250.9-165.95-1.5 2.6-.45-1.6 1.2-2.45v-.05l1.45.2-.1.15-.6 1.15m-13.7-1.85-1.3 4.45-2.35-4.1 1.4-.15 2.25-.2" transform="translate(-28 218.5)"/><path fill-rule="evenodd" fill="#ca8248" d="m265-142.9.8.35h-1.15l.35-.35m3.8.35.3-.25.55.25h-.85m-13.15 8.8v3.55h1.95v8.95l-5.6 1.75 4 7v1.25l-8.6-4.15 8.25-18.35m-11.85 18.8 6.1 2.45-5.95 6.8 1.8.85-3.15 7.8.15 7.7-7.95-3.55 7.95 3.55 3.15 1.4-3 6.45-3.2-1.5-4.3 4.3h-7.1l.75-1.45 3.3-6.35-1.45-.7 2.4-5.7h1.5l5.45-14.5-1.25-.6 3-7.7 1.8.75m.15 9.25-3.7-1.7 3.7 1.7m-11.6 19.2 7.35 3.5-7.35-3.5m-9.45 39.65 2.85 6.7-4.3-1.95 1.45-4.75" transform="translate(-28 218.5)"/><path fill-rule="evenodd" fill="#fce3ad" d="M265.8-142.55h5.45v2.9q-7.7 6-10.15-2.9h4.7m5.8 2.75v.05-.05" transform="translate(-28 218.5)"/><path fill-rule="evenodd" fill="#8e5333" d="m257.45-144.85 1.05-1.95 3.9 1.6v1.2l2.6 1.1-.35.35h-8.25l1.05-2.3m13.8 3 .85.35-.85.5.85-.5-.5 1.7v.05l-.35 1.1v-3.2m-15.6 1v7.1l-8.25 18.35 8.6 4.15v1.2l-6.1-2.45 6.1 2.45-3.4 4.45v3.9l-5-2.3-1.45 3.9-1.45 3.9 1 3.1 2.2.95 2.2.95h2q.65 3.2 4.7 5.7l-1.9 1.6-5.1 4.2h-3.1l-4.3 1h-7l4.3-4.3 3.2 1.5 3.8 1.8-3.8-1.8 3-6.45-3.15-1.4-.15-7.7 3.15-7.8-1.8-.85 5.95-6.8-6.1-2.45 6.25-13.75 3.9-8.45 1.7-3.7M247.6-104l-1.85-.85 1.85.85m-23.5 47.25 6.35-3.25 6.35-3.2v8.9h2.4l4 9v5.8l-9.9-.35-6.1-14.65-3.1 1v-3.25m6.35-3.25h6.35-6.35m15.45-27.95 9 4.05-9-4.05" transform="translate(-28 218.5)"/><path fill-rule="evenodd" fill="#e4ba07" d="M271.25-138.65v4.75h-6.85l2.9.8h-4.1l-4.6-4.1v-5.35h3.75-1.25q2.45 8.9 10.15 2.9v1m-1.65 22.75-7.6-4.2v-8l7.6 4.35v7.85m-26.4 227.95V37.7l4.8-12.8v85.45l-4.8 1.7M283.6-45.3v39.6l-4.4 1.95V-39.9h-15.6l-5.2-5.4h25.2m-4.8-19.6H291v10.6h-24.2v-4.3l4.4-1.9 7.6-4.4m-13.7 10.6h-8.4l-2-1.8 11-2.6v2.6l-.6 1.8m-2.3 3 .85-.2q.85 0 1.45.6t.6 1.45q0 .85-.6 1.45t-1.45.6l-.85-.15-.6-.45q-.6-.6-.6-1.45t.6-1.45l.6-.4m8.85-.2q.85 0 1.45.6t.6 1.45q0 .85-.6 1.45t-1.45.6q-.85 0-1.45-.6t-.6-1.4v-.1q0-.8.6-1.4.6-.6 1.45-.6m6.45-7-4.5 2.3 11.6-2.3h-7.1m3 7.6q.6.6.6 1.45t-.6 1.45q-.6.6-1.45.6t-1.45-.6q-.6-.6-.6-1.45t.6-1.45q.6-.6 1.45-.6t1.45.6m2.5 53v16l-4.4-1.25V6.3l4.4-4.2m0 29.2v81.2l-4.5 3.95-1.35 1.25-3.7-6.3 5.15-4.1V28.5l4.4 2.8" transform="translate(-28 218.5)"/><path fill-rule="evenodd" fill="#ba9107" d="M271.25-133.9v3.7h-1.65v6.45l-7.6-4.35v8l7.6 4.2v2.1q-5.3-2.3-8.4-3.4l-3.6-1v-12h-1.95v-12.35h2.95v5.35l4.6 4.1h4.1l-2.9-.8h6.85m-1.65 3.7h-12 12m-32.8 67 2.2-1.1h5.6l1.9-1 2.2.65.45.15q3.15 1.15 7.05 3.6l1.4.25q2.9.4 5.2.1l1.8-.35 2.6-1 2.4-1.25.8-.55 5.7-1.2h2.7l-7.6 4.4-4.4 1.9v4.3h-1.7l.6-1.8v-2.6l-11 2.6 2 1.8h-19.9v-8.9m10.85 11.7q.85 0 1.45.6t.6 1.45q0 .85-.6 1.45t-1.45.6q-.85 0-1.45-.6t-.6-1.45q0-.85.6-1.45t1.45-.6m8.4 4.1h-.4q-.85 0-1.45-.6t-.6-1.45q0-.85.6-1.45t1.45-.6q.85 0 1.45.6l.1.1.4.7.1.65-.1.65-.5.8q-.45.45-1.05.6m22.05-11.1h7.1l-11.6 2.3 4.5-2.3" transform="translate(-28 218.5)"/><path fill-rule="evenodd" d="M102.4 46.4 91.95 74.65 71.4 154.5l-3.35 31.6 5.85 4.8 18.05 13 2.85 1.4-2.85.75L58.9 218.5l-4.75-2.85v-10.9l.85.15h.3l2.2-2.4q.3-2.9-.85-4.4-1.3.95-2.5 2.8v-7.6q.95-2.1 0-3.2l37.8-120.5 10.45-23.2m32 142.9h35.4l2.7-5.1-21.25-14.5 5.95-5.55 9.25-4.4-8.2-17.8-1.25-2.25q.75-5.3 4.6-10.6l-11.95.9-19.25 9.3v-17.8l3.8-37.4 7.45-11.3 1.15-2.3 5.2-6.8 13.45-26.05.75-2.15 5.8-8.4-6-19 17.2-30.6 6.65-15.7L193-51.7l4.7-6.9 5.1 3.3 7.2 2.6h6l8.1-4.05v3.25l-2.9 2.6 1.7 4.05-1.45 4.75-1.45 4.8-.3.6-4.1 8.4-4.1 8.45-8.45 17.35L188 26.1l-10.8 29.2-4.8 33.2q-2.15 7.7 0 16.8l3.25 4.85-3.3 10.65-5.15 16.5q4.3 4.25 8.6 1.8l1.85-1.35 1.55-1.65 6.75-16.9q1.8.85 3.65 1.3 10.6 1.15 16.95-1.1l2.3-1 17.15 2.9 1.85.2q9 .9 15.35-.2v2.7l-14.95 5.95-5.95 13-15.75-12.6H185.8q2.3 2.7 4 7.35-1.45 4.75-3.2 8.2-1.6 3-3.4 5 2.55 2.6 2.8 6-1.65 9.55-7.4 12.4-2.6 7.65-6.1 14.9l7.5 5.1h-10.2l-3.8 6.4q-5.25 6.05-14.8 9.2-10.8.6-16.8-5.2-2.1-5.2 0-10.4m169.9-245 4.5 6.6h-5.2l7.2 10.8h3.6l2.85 4.15 8.35 12.25H316l1.8 3.1 4.2 7.3 1.8 13.4-6.2-1.4 7.2 9.2 26 25.2L364 57.7l15.35 39.25-2.15-.85 4.4 6.6 4.4 6.6-.85 7.5-27.55-25.1 7.2 15.2-30.25-2.8 30.25 2.8-7.2-15.2 27.55 25.1.85-7.5-4.4-6.6 24 28.6-20.45-2v-12.5l-20.35-9.9-1.7 11.15-20.45 6.65q2.75 1.2 5.75 3.8l.65 1.55q1.3 3.7.8 7.4-.3 2.5-1.45 4.95.55 17.3 8.8 11.3l7.15 6.65-7.75 6.7 5.45 8.4L378 189.7l-6 2.4-22.4-9.2-11.2-16-3-7.4-5.4-3v-4.8l-8.8-7.2v-9.6q2.95-5.65 7.45-8.15l-23.5.5v10.05l-15.7-6.25-19.35-6.6 7.65-6.75 1.35-1.25q10.95 1.8 20.9 1.7l3.95-.15q8.2 3.55 21 1.85l3.7 6.9 3.75 6.95 2.35.5q3.5.3 4.85-2.9l-1.05-2.35-2.35-5.15-2-4.4-1.35-3.05 1.7-2.05q1.45-5.1 0-10.2.95-1.7 1.45-3.6V86.9l-.45-1.25-6.15-17.55-6.6-18.8-4.95-9.75-16.2-31.85 9.55.4-5.6-12-11.6-8.15-10.4-29.05v-4.2l2-4.5 2-4.5h3.4v-10.6h-14.9v-3.8l1.1-2.6v-4l2.1-3.4v-5.1l9.3 10.4 7.9 13.8 7.8 3.9m-50.35-81.45-3.9 8.45-7.95 1-2.85-.5h-.05l-7.55-1.3 6.75-1.6 3.3-2.35h.05l4.15-.15q1.25-.15 1.55-.45l2-.65q2.6-1 4.5-2.45m-24.9 57-.75 1.45-6.7-1-4.8.2-3.7.65-2.3.6-1.8.55 6.6-32 7 11.4 6.8 7.4-.35 10.75m4 48.75 3.3-1.05 3.05 7.35-3.05-7.35 6.85-2.2v8.1l-3.8 1.45-3.3 1.25-2.95 1.15-3.25-7.7 3.15-1m-29.85-7.9v6.2l3.6-5.6-.6-6.2-3 5.6m147.6 74.2-7.6-4 7.6 11.2v-7.2M304-36.7l-9.6-7.6v11.6l9.6 6v-10m40.4 94v8l8 4.8v-5.6l-8-7.2m-1.75 67.4-.85-.3q-1.7-.7-3.3-.75l-2.3.15 2.3-.15q1.6.05 3.3.75l.85.3m6.55 12.2.65.55-.65-.55m-14.4 14.8H330h4.8m22.4 2q-2.95 2.95-6.1 4.95-4.9 3-10.3 3.85l-5.4-3 5.4 3q5.4-.85 10.3-3.85 3.15-2 6.1-4.95M161.45 37.65l-2.65 7.45 9.6-5-.4-13 .4 13-9.6 5 2.65-7.45M154.2 24.9l5.8-11.8 2.6 7.2-8.4 9.2v-4.6m-37 57.2-8.8 12-5.6-1.2 14.4-10.8m24.45-9.3-1 2.05L147 70.3l1-6.6-1 6.6-6.35 4.55 1-2.05M58.9 197.3q.65 1.95 1.95 4l2 3.5.2.1q3.6-.45 7-2.25l1.65-.95.55.4q-3.85-7.3-10.55-10.95l-.3-.25 1.4 9.2-.85-1.6q-1.65-1.05-3.05-1.4v.2m56.05-90.3-3.1-6.5L124 95.3l-9.05 11.7" transform="translate(-28 218.5)"/><path fill-rule="evenodd" fill="#999" d="m246.15-100.1 1.45-3.9 5 2.3v3.9l1.75.8-2.25 5.8h-2l-2.2-.95 1.75-4.2-3.5-3.75" transform="translate(-28 218.5)"/><path fill-rule="evenodd" fill="#dfcbbd" d="M219.5-147.2q0 .95-.85 1.35l-.65.25q-1.8-.3-1.4-2 .2-.65.9-.9l.5-.1q1.15.1 1.4 1.1l.1.3" transform="translate(-28 218.5)"/><path fill-rule="evenodd" fill="#e7b77e" d="m218.55-130.35.05.1-.15-.1h.1" transform="translate(-28 218.5)"/><path fill-rule="evenodd" fill="#7d8c60" d="m224.1-53.5 3.1-1 6.1 14.65 3.05 7.4-3.3 1.05-5.2-12.8-3.75-9.3M243.2.9l-4.7-11.05 1.3-4.6-3.7-9.1 3.3-1.25 3.25 7.9q0 1.75.55 3.9v8.6L248-.85l5.4 4.3 5.45 4.35 6.35 5.1 1.35.4-1.35-.4-6.35-5.1L253.7.85l-1.8-2.45 5.8 1.6 3.1 4.35 8.65 1.75-5.7 2.4 2.95 4.15-.15.65 3.95 1.1 3.05 6.45-8.35-2.35L248 4.75 243.2.9q-1.1-3.15 0-5.6-1.1 2.45 0 5.6" transform="translate(-28 218.5)"/><path fill-rule="evenodd" fill="#bac4a8" d="m224.1-53.5 3.75 9.3 5.2 12.8-3.15 1-2.05-4.8-.6-1.5-1.5-3.45-2.85-6.7-1.7-4.05 2.9-2.6m14.4 43.35-5.35-12.55 2.95-1.15 3.7 9.1-1.3 4.6m40.7 6.4 4.4-1.95q1.35 2.55 0 5.8l-4.4 1.85-9.75 4.15-8.65-1.75 18.4-8.1m-25.15-1.3L257.7 0l-5.8-1.6-3.9-5.2-4.8-6.5q-.55-2.15-.55-3.9t.55-3.1l4.8 6.75 6.05 8.5m25.15 21.9 4.4 1.25q.95 3.1 0 5.6l-4.4-1.25-5.65-1.6-3.05-6.45 8.7 2.45" transform="translate(-28 218.5)"/><path fill-rule="evenodd" fill="#2e0716" d="m225.75-40.15 1.5 3.45.6 1.5 2.05 4.8 3.25 7.7 5.35 12.55L243.2.9v120.4q-6.35 1.1-15.35.2l-1.85-.2-17.15-2.9-8.85-1.5-15.45-8.8 13.85-.4 16-8 8.8-12.4-25.6-3.6 18.8-9.6 15.6-30v24.1l.6-24.1.5-19.25V-4.4l-12.8-15.55-4.7-8.35 4.1-8.4.3-.6 1.45-4.8 4.3 1.95M224.4-29.5l-4.1 9.55 4.1-9.55m59.2 23.8v-8.2l5.65 16.8v42.55l14.3 40.1L320.8 96.5l-.45 9.25 7.6 5.25q-3.1 2.05-7.25 3.7l-.8.3-6.3 1.9-9.65 1.1-3.95.15q-9.95.1-20.9-1.7l4.5-3.95V23.7q.95-2.5 0-5.6V.1q1.35-3.25 0-5.8m-48 114.6-2.8-14.8-12 14.8h14.8m79.3-8.2-10.85-8.1 4.9 16.25 5.95-8.15" transform="translate(-28 218.5)"/><path fill-rule="evenodd" fill="#4d0d25" d="m236.35-32.45-3.05-7.4 9.9.35v4.85l-6.85 2.2m3.05 7.35 3.8-1.45v6.25q-.55 1.35-.55 3.1l-3.25-7.9m-23.8-3.2 4.7 8.35-4.1 9.6 4.1-9.6L233.1-4.4v29.25l-.5 19.25h-.6l-15.6 30-18.8 9.6 25.6 3.6-8.8 12.4-16 8-13.85.4 15.45 8.8 8.85 1.5-2.3 1q-6.35 2.25-16.95 1.1-1.85-.45-3.65-1.3-5.45-2.55-10.3-9.05l-3.25-4.85q-2.15-9.1 0-16.8l8.7 11.4 21.15-7.55-10.55-7.05 13.9-11.6 8-10 1.4 5.2 13.2-22.4-3.8 2.4V11.8l-8.2-22.15-4.7-9.5 4.1-8.45m-4.9 30.75L200.4 57.3 184 86.9l4-24.4 12.4-36 10.3-24.05m72.9-43.55L294-12.05l5.6 15.75 2.05 4 16.2 31.85-22.95-19.9-5.65-16.75 5.65 16.75L310 64.4l12 16.5 7.4-12.8 6.15 17.55-7.95 10.05v7.2l8.4-2.4q-.5 1.9-1.45 3.6-2.15 3.9-6.6 6.9 4.45-3 6.6-6.9 1.45 5.1 0 10.2l-1.7 2.05q-3.1 2.9-7.9 3.5-12.8 1.7-21-1.85l9.65-1.1 6.3-1.9.8-.3q4.15-1.65 7.25-3.7l-7.6-5.25.45-9.25-17.25-10.95-14.3-40.1V2.9l-5.65-16.8v-27.2m37.2 137.6L310 64.4l10.8 32.1m-85.2 12.4h-14.8l12-14.8 2.8 14.8m79.3-8.2-5.95 8.15-4.9-16.25 10.85 8.1" transform="translate(-28 218.5)"/><path fill-rule="evenodd" fill="#7b153c" d="m172.4 88.5 4.8-33.2L188 26.1l15.05-28.6 8.45-17.35 4.7 9.5 8.2 22.15v37.1l3.8-2.4L215 68.9l-1.4-5.2-8 10-13.9 11.6 10.55 7.05-21.15 7.55-8.7-11.4m38.3-86.05 5.5-12.8-5.5 12.8-10.3 24.05-12.4 36-4 24.4 16.4-29.6 10.3-54.85m107.15 37.1 4.95 9.75 6.6 18.8-7.4 12.8-12-16.5-15.1-44.75 22.95 19.9m17.7 46.1.45 1.25v13.6l-8.4 2.4v-7.2l7.95-10.05" transform="translate(-28 218.5)"/><path fill-rule="evenodd" fill="#37491d" d="m243.2-45.3-4-9h48.4l-2 4.5-4.6-3.1h-21.2l-2.6 2.1-.1-.1q-.6-.6-1.45-.6t-1.45.6q-.6.6-.6 1.45t.6 1.45q.6.6 1.45.6h.4l2.35 2.1h-15.2m4.45-6.2q-.85 0-1.45.6t-.6 1.45q0 .85.6 1.45t1.45.6q.85 0 1.45-.6t.6-1.45q0-.85-.6-1.45t-1.45-.6" transform="translate(-28 218.5)"/><path fill-rule="evenodd" fill="#ccc" d="m246.15-100.1 3.5 3.75-1.75 4.2-2.2-.95-1-3.1 1.45-3.9" transform="translate(-28 218.5)"/><path fill-rule="evenodd" fill="#486526" d="m285.6-49.8-2 4.5h-25.2l-2.35-2.1q.6-.15 1.05-.6l.5-.8.1-.65-.1-.65-.4-.7 2.6-2.1H281l4.6 3.1m-22.8-1.5-.6.4q-.6.6-.6 1.45t.6 1.45l.6.45.85.15q.85 0 1.45-.6t.6-1.45q0-.85-.6-1.45t-1.45-.6l-.85.2m8.85-.2q-.85 0-1.45.6t-.6 1.4v.1q0 .8.6 1.4.6.6 1.45.6t1.45-.6q.6-.6.6-1.45t-.6-1.45q-.6-.6-1.45-.6m9.45.6q-.6-.6-1.45-.6t-1.45.6q-.6.6-.6 1.45t.6 1.45q.6.6 1.45.6t1.45-.6q.6-.6.6-1.45t-.6-1.45" transform="translate(-28 218.5)"/><path fill-rule="evenodd" fill="#93891c" d="M263.6-39.9h15.6v2.6l-17.3 1.8-1.9 4.8-4 4.6-1.95 21.05-6.05-8.5V-39.9h15.6M248-6.8l3.9 5.2 1.8 2.45-.3 2.6-5.4-4.3V-6.8m31.2 8.75V6.3l-12.5 6.35-2.95-4.15 5.7-2.4 9.75-4.15m-5.65 18.9 5.65 1.6V28l-15.6-7.3-10.1-5.85V72.3l-5.5 45V4.75l17.2 13.75 8.35 2.35" transform="translate(-28 218.5)"/><path fill-rule="evenodd" fill="#cc9109" d="M270.1 124.45 250 142.1l-6.8-4v-26.05l4.8-1.7v11.75l6.4 4.8 19.65-15.5 3.7 6.3-7.65 6.75M243.2-39.5v-5.8h15.2l5.2 5.4H248v26.35l-4.8-6.75v-19.2m0 77.2V.9l4.8 3.85V24.9l-4.8 12.8M248-.85l-4.8-3.85v-8.6l4.8 6.5v5.95m35.6 2.95-4.4 4.2V1.95L283.6.1v2m0 21.6v7.6l-4.4-2.8v-6.05l4.4 1.25" transform="translate(-28 218.5)"/><path fill-rule="evenodd" fill="#9e9b1d" d="M279.2-37.3v33.55l-18.4 8.1L257.7 0l-3.65-5.05L256-26.1l4-4.6 1.9-4.8 17.3-1.8m0 43.6v10.55l-8.7-2.45-3.95-1.1.15-.65 12.5-6.35m-20.35 1.5-5.45-4.35.3-2.6 5.15 6.95M248 117.3l5.5-45V14.85l10.1 5.85 15.6 7.3v79.3l-5.15 4.1-19.65 15.5-6.4-4.8v-4.8" transform="translate(-28 218.5)"/><path fill-rule="evenodd" fill="#40361a" d="M350.8 34.9v7.2l-7.6-11.2 7.6 4m-6.4 22.4 8 7.2v5.6l-8-4.8v-8m19.6.4-4.8-11.2 10 5.6-5.2 5.6" transform="translate(-28 218.5)"/><path fill-rule="evenodd" fill="#364d79" d="m232.6 44.1-.6 24.1V44.1h.6" transform="translate(-28 218.5)"/><path stroke-width=".05" stroke-opacity=".4" stroke-linejoin="round" stroke-linecap="round" stroke="#000" fill="none" d="m209.55 10.95-3.5-9.8q-3.1 5.15-4.85 11.65l-.65 2.7-.7 6.3q-.3 3.35-.45 7.2l-.25 6.6-.05 3.75v7.95h.05l.7-.2.65-.15 2.75-.55m16.05-35-2.7-.85-7.05.4-4 1.45-1 .45m5.4 7.9 7.9-.6h.3m3.95.55 1.75.5M221.55 0q-2.4 6.95-4.95 10.55m1.6 9.6 3.25.4m.15.05.5.1m5.95 24.7q-.35-8.2-1.2-16.4-.9-8.25-2.3-16.5-.7-6.25-3-12.5M169.7 159.9l-5.1-3.3v-3l.9-1.9 4.8-10.55 1.45-7.65-7.65 11.15m63.95-98.5H228l-3.4-.25m3.45-.5v.75l1 .05q12.3 1.1 23.7 4.5m-24.85-1.6 1.1.25q5.85 1.4 11.65 3.45l3.85 1.4 1 .4q6.45 2.55 12.8 5.8m-30.25-14.25-.15 2.95-3.6-.8m25.35 15.1q-7.75-4.7-16.3-8.1l-2.85-1.1-1.6-.55-.55-.2-1-.35-.1.5-.4 2-.4 1.95V71.9l3 1.75 1.05-1.95 3.9 1.6v1.2l2.6 1.1.8.35h3l.3-.25.55.25h1.6v.7l.85.35q2.05-1.8 4.1-2.2 4.55.15 6.2 3.1l3.05 7.45q2.55 6.9 5.1 15.8l.2.65.15.4.2.8 6.8 19.3 1.5 2.75 1.5 2.75 8.5 4.2q6 6.25 6.5 11.7v4.3l1 6q-.3 3.55-3.5 4.9-4.15.5-9.1 3.9l4.5 6.6h-5.2l7.2 10.8h3.6l2.85 4.15m.55 15.35 4.2 7.3 8.4 5.2h4.35l-1.6-2.25 1.65 2.25h-.05l5.55 7.8m54.25 75.4h3.85l10 8.8m-65.75 39q2.75 1.2 5.75 3.8l.65 1.55m.8 7.4 7.35 6.25v10l7.15 6.65L356 397v8.8m-6 2.4-6 2.4-22.4-9.2-11.2-16-3-7.4-5.4-3v-4.8l-8.8-7.2v-9.6q2.95-5.65 7.45-8.15l-3.7-6.9q4.8-.6 7.9-3.5l1.7-2.05q1.45-5.1 0-10.2l30.25 2.8-7.2-15.2 27.55 25.1.85-7.5-4.4-6.6-4.4-6.6 2.15.85m-109.25 27.5L222 360.6l-6.8-4v-14.1m11.6-286.9.3-1.2v-.05l.05-.3.2-.95-1.5-.5-1.6-.05m-1.35 0-1.5 2.6-.45-1.6-.3-1.05m-8.65-2-2.8.2-1.3 4.45-2.35-4.1L205 51m22.15 3.05.1-.45m.1-.5.05-.5.5-3.5m-7.15 1.85 1.1.1-1.05-.15m-.05.05h-.1l-.5-.05v.05l.5 1.55m1.2-1.45h.3l1.45.2-.1.15 1.2.25m-7.8-1.05q-2.05-.25-4.9-.1m11.5.9-.6 1.15m17.9 23.4h.85m-5 0h1.15m5.45.7v.85l.85-.5-.5 1.7v.05l-.35 1.1v8.45h-1.65v4.6l6.8 2.1 7.7 9.9v4.4l-1.4 4v2.4l.95 2.2.35.9 2.1 2.9 2.6 1.3 2.4 4.2 8.7.55 1.1.05m-29.65-50.3v2.35m-8.9-3.9h-6.7V88.3h13.95m-7.25-12.35h2.3m-8.25 0 1.05-2.3m-1.8 4-1.7 3.7-3.9 8.45-6.25 13.75 6.1 2.45 6.1 2.45v-1.2m-2.05-25.9q-1.9 1.45-4.5 2.45l-2 .65q-.3.3-1.55.45l-4.15.15h-.05l-4.75-.25q-4.45-.15-4.95-2.7l.25-5.15-2.95 2.45-5 8.3 7.25 1.25.1.05 7.55 1.3h.05l2.85.5 7.95-1m7.55 7.45v3.05l3.6 1q3.1 1.1 8.4 3.4v-2.1m0-7.85V92.9m-17 23.9-5-2.3-1.45 3.9-1.45 3.9 1 3.1 2.2.95 2.2.95h2l2.25-5.8-1.75-.8v-7.8l3.4-4.45v2.45m-12.05 1.9 1.8.85 1.85.85m8.4-8.5v1.25m0-1.25-4-7 5.6-1.75V88.3m-1.5 34-1.75-.8m15.25-23.75v4.85m0-7.85v3m3.4 7.1 3.4.15m-6.8-.3 3.4.15m-35.5-84 .45-.1m-4.4 1.05 3.9-.95m-4.35 1.1.35-.1m-3.1.95 2.75-.85M173.45 63.3l1.6-1 2.25-1.35 2.7-1.55 4-2.15 6.2-3.05q4.25-2 8.55-3.65l.4-.15-.05-3.1q-7.75 1.75-15.1 4.4l-6.7 2.55-1.9.85m23.8-.4q-7.95 3.9-15.2 8.75l-4 2.8-1.5 1.1m27.05-16.3 1.4-.15 2.25-.2m-10.05-.3.7-.25 1.05-.4 2.05-.75h.1l1.05-.4m-4.95 1.8v1.1l.05 2.7v.5l.6-.3h.05l.35-.2 1.35-.65 1.05-.45m1.65 23.85q.4-3.85-.2-7.8-.4-2.35-1.25-4.55l-.9-1.95-2.05-3.8-.55-.8-.1-3.35M195 87.8l1.3-.1m-5.75.45h-.1l-2.8.4-1.6.4q-3.55 1.1-6.05 5.5l-1.6 3.35-2.25 12m18.85-22-3.85.25-.45.05-.15.05m-2.95 20.65h2.2m26-5.25-1.8-.75-3 7.7 1.25.6 3.7 1.7m-14.9 25.55 3.3-6.35-1.45-.7 2.4-5.7h1.5l5.45-14.5m-5.45 14.5 7.95 3.55 3.15 1.4m-12.1-7.95-3.05.2q-.7.4-.95 1.2h4.3m-5.8 15.8.75-1.45.35-10.75-6.8-7.4-7-11.4-6.6 32 1.8-.55 2.3-.6 3.7-.65 4.8-.2 6.7 1h14.1l4.3-1-3.8-1.8-3.2-1.5-7.35-3.5m-26.4 10.55L175.4 144m2.55-1.45 1.5-.85 1.55-.9m-8.25-12.7-1 5.4m-2.05 26.4 5.1 3.3 7.2 2.6h6l8.1-4.05 6.35-3.25 6.35-3.2 2.2-1.1h5.6l1.9-1 2.2.65.45.15q3.15 1.15 7.05 3.6l1.4.25q2.9.4 5.2.1l1.8-.35 2.6-1 2.4-1.25.8-.55 5.7-1.2v-3.8l-1.1 2.6m-41.7 26.25L199.2 164l-3.1 1 3.75 9.3m8.5 11.75-3.05-7.4 9.9.35v-5.8l-4-9h-2.4v-5.7h-6.35m-6.35 3.25V165l-2.9 2.6 1.7 4.05 2.85 6.7 1.5 3.45m.6 1.5 2.05 4.8m6.9-32.8v3.2m-.45 27.55 3.05 7.35m3.8-1.45v-8.1m-21.75-7.45-1.45 4.8-.3.6m8.15 158.2q9 .9 15.35-.2V219.4l-4.7-11.05-5.35-12.55-3.25-7.7m-7-16.45-1.45 4.75 4.3 1.95m16.9 22.95-3.25-7.9m48.2-29.2-2 4.5-2 4.5v4.2l10.4 29.05 11.6 8.15 5.6 12-9.55-.4 16.2 31.85 4.95 9.75 6.6 18.8 6.15 17.55M308 319q-.5 1.9-1.45 3.6-2.15 3.9-6.6 6.9-3.1 2.05-7.25 3.7l-.8.3-6.3 1.9-9.65 1.1q8.2 3.55 21 1.85M250.8 153.6H263v10.6h-51.8m40.1-29.5 9.3 10.4 7.9 13.8 7.8 3.9M228.8 133l.8.05 5.2-.2 5-.95 11.5 2.8v5.1l-2.1 3.4v4l-1.1 2.6m-29.4-11h3.1l5.1-4.2-9-4.05m9 4.05 1.9-1.6q-4.05-2.5-4.7-5.7m-2.95 26.7-.45-.15m9.7 19.35h25.2m-4.8-19.6h-2.7m-12.5 25h15.6v36.15l4.4-1.95v-16.4m0-14.6v-4.4m-29.55 36.05 3.65 5.05 3.1 4.35 18.4-8.1m-20.8-41.55h-15.2m0 5.8v4.85m4.8 21.1 6.05 8.5M215.2 198.2l4.8 6.75V178.6h15.6M220 211.7l3.9 5.2m-8.7-11.7v8.6l4.8 3.85v-5.95l-4.8-6.5q-.55-2.15-.55-3.9t.55-3.1v-6.25m-42.45-63.85 3.4-18.3m128.7 225.05 1.35 3.05 2 4.4 2.3-.15q1.6.05 3.3.75l.85.3m-7.9 9.5q3.5.3 4.85-2.9l-1.05-2.35-2.35-5.15m-1.45 10.4-2.35-.5-3.75-6.95m21.2 10.7-.65-.55M307.4 378l5.4 3q5.4-.85 10.3-3.85 3.15-2 6.1-4.95m-27.2-2h4.8m-51.2-133.6v-18l-4.4 1.85v14.9m4.4 1.25q.95 3.1 0 5.6V331l-4.5 3.95q10.95 1.8 20.9 1.7l3.95-.15M266 206.45l5.6 15.75 2.05 4m-12.4-4.8 5.65 16.75L282 282.9l10.8 32.1m-31.55-93.6-5.65-16.8m-16.9 26.55-2.95-4.15 5.7-2.4 9.75-4.15m-12.65 11.35.15-.65m3.8 1.75-3.95-1.1-1.35-.4-6.35-5.1-5.45-4.35-5.4-4.3m25.55 21.7 5.65 1.6 4.4 1.25M220 223.25 237.2 237l8.35 2.35m-3.05-6.45 8.7 2.45m-25.5-16-1.8-2.45m1.8 2.45 5.15 6.95m-15.65-6.9 4.8 3.85V340.6l6.4 4.8 19.65-15.5 5.15-4.1v-84.85m-1.45 95.25 1.35-1.25m-35.9 4.85v2.7m34.55-6.3-7.65 6.75m13.5-130.15q1.35 2.55 0 5.8m-40.4.8q-1.1-3.15 0-5.6"/><path stroke-width=".05" stroke-linejoin="round" stroke-linecap="round" stroke="#000" fill="none" d="M218.15 20.15h.05m3.25.4.15.05m-12.15.25h.05m-17.2 177.7 4.1-9.55m-8.2 19.15-5.5 12.8M156 305.4l4-24.4 12.4-36 10.3-24.05m5.5-12.8 4.1-9.6m63.3-2.15v-14.6m-4.4 53.55 4.4 1.25"/><path stroke-width=".05" stroke-opacity=".302" stroke-linejoin="round" stroke-linecap="round" stroke="#000" fill="none" d="m113.65 291.3 1.15-2.3 5.2-6.8-1 6.6-6.35 4.55 1-2.05m19.8-35.15.75-2.15 5.8-8.4.4 13-9.6 5 2.65-7.45M151.2 196l-7.8 7-3.8-3.6 5.8-14.6 13.4-6.8-.95 2.3-6.65 15.7m18.6-130.4 3.65-2.3m25.8 118.5.6 1.5m-24.65-4.1v6.2l3.6-5.6-.6-6.2-3 5.6m147.6 74.2v7.2l-7.6-11.2 7.6 4m-26-25.2-7.2-9.2 6.2 1.4M276 181.8l-9.6-7.6v11.6l9.6 6v-10m20.8 46.4v-7.6l-1-.2m20.6 55.4v8l8 4.8V283l-8-7.2m19.6.4 5.2-5.6-10-5.6 4.8 11.2m-209.8-32.8v4.6l8.4-9.2-2.6-7.2-5.8 11.8m-12.6-3.6-5.6 1.6 5.2-5.4 6.4-4.2"/></g><path fill-rule="evenodd" fill-opacity="0" fill="#f0f" d="M100 40H0V0h100v40" id="a"/><use xlink:href="#a" width="100" height="40" id="c"/></defs><path fill="none" d="M-1-1h282v260H-1z"/><use x="138.638" y="216.618" xlink:href="#b" width="381" transform="translate(-192.55 -294)" height="381"/><use x="-36.664" y="-52.775" xlink:href="#c" width="100" transform="translate(123.85 75.35) scale(1.4568)" height="40"/><use x="-91.38" y="-131.535" xlink:href="#d" width="475" transform="translate(54.466 77.836) scale(.5845)" height="437"/></svg>