<svg width="257" height="260" xmlns="http://www.w3.org/2000/svg" xmlns:xlink="http://www.w3.org/1999/xlink"><defs><g id="b" stroke-opacity="0" stroke-linejoin="round" stroke-linecap="round" stroke="#f0f" fill="none"><path d="M187.95-293.5v380h-380v-380h380" transform="translate(192.55 294)"/><path d="m187.95-293.5-190 190 190 190m-380-380 190 190L-192 86.5M92.95-38.4H-97" transform="translate(192.55 294)"/></g><g id="d"><path fill-rule="evenodd" fill="#484d62" d="m316.15-115.8 22.1-16.65 15.3-15.55.25 1.35q.3 6.55-15 25.2-12 14.6-33.6 36.6-32.7 25.25-50 24.8l-.9-1.2 9.4-7.1q5.65-5.7 10.8-11.5 5.15-5.85 9.8-11.8l2.45-3.15 2.35-3.25 1.9-2.65-1.85-7.05-.2-.7-1.45-1.85q-7.4 4.5-14.25 6-5.4 1.05-7.75-.5l-.25-.7q-.55-1.6-1.45-2.4-.15-2.55 2.15-6.05l3 1.55.4.8q1.55 2.05 6.65 1.05 7.15-1.55 15-7.25l3.55-2.95q4.65-4.4 5.95-8.2 1.05-3.85-2.05-4.7l-1-.15-4.55.3q4.8-1.55 8.15-1l1.4.25h.15q4.25-4 4.75-9.2l12.2-4.3-3.15 9.1q-5.25-.3-11.95 5.55l.75 1.25.15.5q.2 1.3-.3 3.15-1.65 4.85-7.65 10.4l-1.75 1.6q.85 1.4 2.05 2.3 3.05 2.3 8.35 1.65l3 3.5.2-.2 2.8 2.85.15-.2 4.75-5.5-2.45-2.3 1.65-1.7m-57.5 18.55-.75.55q-.95-3.95-2.65-6.2l1.4-1.05.8 1.1q.6.9.85 1.95l.15.55q.15 1.25-.15 2.6l.35.5m-7.9 5.9-3.55 2.7q-.45-2.3-.35-4l-.85-3.3.5-.4.05.4q1.8 2.9 4.2 4.6m-10.2 7.7-12.25 8.9-1.55-3.35-.1-.65v-.1l-.05-.05v-.05l-.55-1.5v-.05l12.45-9.8q.6 3.6 2.05 6.65M39.35 71.9Q24.6 86.2 8.9 94.4l-.8.6-1.65-.95-.95-.8L3 90.4Q1.25 88.05.45 86.1q-.8-2-.25-2.45 12.65-12.7 30.7-23.05-.4.35.5 2.2l1.1 1.95.3.45 1.25 1.9 1.15 1.35 1.3 1.45.9.9q1.5 1.35 1.95 1.1M79.9 29.8l-.3-.45-.05-.1h-.05l-.95-1.9Q77.7 25.6 78 25.2l6.65-4.3L112.7 2.25l2.35-1.6.1.2-35.6 28.4.35.55m20.95-56.2q-1.1.55-2.15.6l-1.6-.25q-3.1-1.25-5.75-7.5-1.95-4.6-.35-9.15.8-3.5 1.9-5.75 1.85-3.85 4.6-4.45l1.45-.05-.5 4.55-2.7 3v6.5l2.75 3.15-.35 3.3 2.7 6.05m168.7-92.15v-.05l-1.85-2.35q2.45-5.7.45-11.95l9.45 7.35-1.1.8q-4.1 3.05-6.95 6.2m-86.4 70.75 1.35-1 1-.75.35-.3-1-2.55.05-.9.05-.4.25-6.95V-61l-.1-5.9v-.05l-.05-2q3.45-5.05 7.7-9.05l5.65 11.85q-2.15.1-2.45 1.65-3.9 3.2-.35 5.8l.75.5-2.8 2.6 3.75-2.8 1.7-1.3.7-.5.2-.15q2.65 1.1 4.15 3.25l.1.2-5.9 4.35L190.9-47l-1.2.9-1.05.8-.2.15-.55.4-.95.75-3.1 2.35-.15.15h-.05l-5.9 4.5-1.5 1.15-1.3.95-.35.3-3.65 2.8-.8.65L168-29.5l-1.35 1.05-10.2 7.9-3.4 2.7-3.3 2.55h-.05l-6 4.8-.7.6-1.9-6.55-.45-.6 6.5-4.6 5.45-3.85 4.05-2.95 3.7-2.65 4.15-3 6.8-4.95 1.6-1.2.05-.05 1.3-.95 3.05-2.2 5.85-4.35m-79 7.15.95-10.45 2.6-28.5 17.55-.65v.7l.1 3.9-.4 3-.3.35v8.25l-3.35 5.85-3.4 5.85 2.5 8.25q-7.85-1.5-16.25 3.45" transform="translate(.6 179.4)"/><path fill-rule="evenodd" fill="#7d2d01" d="M278.55-126.25q5.2-3.6 10.55-5.85l3.8-1.4 4.55-.3 1 .15q3.1.85 2.05 4.7-1.3 3.8-5.95 8.2L291-117.8q-7.85 5.7-15 7.25-5.1 1-6.65-1.05l-.4-.8q-.85-2.55 2.2-6.65 2.4-3.3 6.45-6.5l.95-.7" transform="translate(.6 179.4)"/><path fill-rule="evenodd" fill="#7e869e" d="M289.15-107.75q-7.4 4.25-14.5 5.35-6.5.85-9-1.85l-.1-.35-.05-.2q2.35 1.55 7.75.5 6.85-1.5 14.25-6l1.45 1.85.2.7m-96.6 182.3.05 12.65-3.45 9-5.55 19.3V81.1q4.45 2.35 8.95-6.55m-8.05 45.9.55-3.1 1.5-.8 8.45 18.6-1.9.65 15 10.15-1.2 3.4-2.8-1-17.95-6.35-4.1-14.65q1.6-3.05 2.45-6.9M140.05 91.6q.3 2.9 1.15 5.75l-3.55 13.55-8.7 20.55 2.75 8.45q1.05 6.5 0 11.5-4.45.85-3.45-7L126 134.2l.65-11.05q6.7-14.35 10.2-31.3l3.2-.25m-13.4 73.15-4.5 9.55-4.75 1.6-1.95-16.6 4.55-3.55v-2.2l2.55-18.4 3.7 11.35 2.25 10-1.85.45v7.8M83.55 34.4 38.3 68.45l.6 1.2q.9 1.85.45 2.25-.45.25-1.95-1.1l-.9-.9-1.3-1.45-1.15-1.35-1.25-1.9-.3-.45-1.1-1.95q-.9-1.85-.5-2.2h.05q.4-.35 1.95 1.05l1.45 1.5 45.1-33.85.05.05 1.35 1.8.35.5 1.15 1.4 1.2 1.35m70.65-211.85.2.05 3.85.25q8.2 9.7 4.25 21.25h7.35q1.75-2.55 1.75-5.8l2.95-.2 3.2 5.1-1.65 9.6q0 8.1 2.6 14.85l.8 1.9q3.5 7.65 10.5 13.4l-3.4 1.8q-7.45-4.1-12.45-10.1l-.55-2.3q-.4-1.6-.65-3.2l-.1-.75q-.7-3.9-.95-7.8l-.2-4.65v-1.25l.05-3.95 1.45-.25h-1.55q-5.4.1-9.45 1.55l-1.4.55-2.1-3.75v-9.45q-1.2-8.8-4.65-14.1l.15-2.75m35.65 3.15 12.1 15.25q1.4 7-2.95 11.25l-2.8-.95q2.25-7.95-1.1-16.35-1.8-4.55-5.25-9.2m76.1 60.35.95-1.4 1.8-2.2.85-1q2.85-3.15 6.95-6.2l1.1-.8-9.45-7.35q8.1 1.05 19.2-2.55l-2.4 5.1q-3.25 1.7-6.4 4.1l-.95.7q-4.05 3.2-6.45 6.5-3.05 4.1-2.2 6.65l-3-1.55m41.4-29.5 43.1-26.65q-19.65 17.2-32.35 33.65l-12.6 5.05 1 1.6q.35 1.45-.05 3.45-1.5 5.95-8.75 12.45-1.2-.9-2.05-2.3l1.75-1.6q6-5.55 7.65-10.4.5-1.85.3-3.15l.15-.05-.3-.45-.75-1.25q6.7-5.85 11.95-5.55l3.15-9.1-12.2 4.3m-1.3 31.2 10.1-3.55-1.65 1.7 2.45 2.3-4.75 5.5-.15.2-2.8-2.85-.2.2-3-3.5M37.25 69.2h.1l.05-.1-.15.1m-3.85-5.3q-.25.2.2 1.1l.6 1.15.6.8-.45-3.8-.95.75" transform="translate(.6 179.4)"/><path fill-rule="evenodd" fill="#9b5613" d="m265.65-104.25.45 2.95-6.7 5-.75-.95-.35-.5q.3-1.35.15-2.6l-.15-.55q-.25-1.05-.85-1.95l-.8-1.1-.35-.4 1.25-.6q1.95-1.1 4.65-3.75.9.15 1.6.8.9.8 1.45 2.4l.25.7-.55-.4.35.5.35.45m-7.75 7.55.1.3q-3.3 2.2-4.65 6.5-1.4-.6-2.6-1.45-2.4-1.7-4.2-4.6l-.05-.4-.1-1.3q3.95-1.8 8.1-6.1l.75.85q1.7 2.25 2.65 6.2m-10.7 8.05q.35 1.7 1 3.75-4.05 1.35-5.9 4.6-1-1.6-1.75-3.35-1.45-3.05-2.05-6.65l-.4-2.4q4-.65 7.55-4.45l.35 1.2.85 3.3q-.1 1.7.35 4" transform="translate(.6 179.4)"/><path fill-rule="evenodd" fill="#c9a77e" d="M124.9-130.85q-2.65-3.4-2.3-7.85-4 3.4-3.2 10.3l-3.25-2.3q-.75-6.4 1.05-10.6.55-1.35 1.4-2.45h-2.3l1.3-3.1q1.6-3.05 4-5.1l.3-2.25.3-2.2h-2.1l1.95-3.8q-.95-2.3-4.5 0 4.45-7.65 10.45-2.05v4.75q1.55 3.95 2.2 7.8.45 2.45.5 4.85.05 3.35-.6 6.65l-.3 1.1q-.4 3.75 1.45 7.55l-3.55-6.75-.2 8.05q-1.55-1.25-2.6-2.6m49.65-31.05 3.6 1.15q2.1.6 3.35 2.5.9 1.3 1.4 3.3l-3.85-3.5 4 8.15q3.25 4.35 3.7 8.3l-.05 2.6-1.6-2-4.4-5.5v5.85l.6.95q.9 1.6 1.15 3.25.25 1.9-.5 3.75l-1.65 2.3-1.6-1.55q-2.6-6.75-2.6-14.85l1.65-9.6-3.2-5.1" transform="translate(.6 179.4)"/><path fill-rule="evenodd" fill="#525770" d="M158.25-177.15q5.15 1.35 10.9 8.05l1.25 1.45q1.2 3.2 1.2 5.95 0 3.25-1.75 5.8h-7.35q3.95-11.55-4.25-21.25m23.25 18.9 7.55 2.65-.9.85-.15.1-4.95 4.35-4-8.15 3.85 3.5q-.5-2-1.4-3.3" transform="translate(.6 179.4)"/><path fill-rule="evenodd" fill="#333546" d="M109.15-144.25q-13.1-5.2-14.2-9.15.25-4.1 1.6-7.95 2.2-6.75 7.6-12.95 5.15-6.05 6.85-3.95-7.7 2.2-6.3 15.5.4 3.6 1.4 8 1.15 4.75 3.05 10.5m79.9-11.35q3.75.1 3.4-6.55l-2.6-12.15q3.45 4.65 5.25 9.2 3.35 8.4 1.1 16.35l2.8.95-7.9 4.6-4.35 1.2q-.45-3.95-3.7-8.3l4.95-4.35.15-.1.9-.85m-3.95 14.2-3.8 1.3-.6-.95v-5.85l4.4 5.5m-6.9 42 .8.2v.5l-.35 4.3-.1.3v.05l-7.65-1.2h-.15q-.35-2.95-.95-3.95l-.15-1.95.55-.1 8 1.85m-.45 3.75v-2.75l-6.25-1.5v3.15l6.25 1.1m-50-3.4 10.55-3.1.85.35v.05l.85 2.25.65 1.75.55 1.65.15.55-10.3 3.15-.15-.55-.05.05-1.95-3.8-1.05-2.2-.1-.15m1.6.95 1.7 3.85 8.6-2.9-1.55-3.85-8.75 2.9" transform="translate(.6 179.4)"/><path fill-rule="evenodd" fill="#c45328" d="m186.55-38.2-1.2 7.85h-.05l-.95-1.45-.25 1.4-1.2.05-1.05.05v-.05l-1.8-.65-.65-.2-1.3-.1q-1.05.15-1.45 1.1l-.05.15-2.05.05h-.65l-2.15-1.1-1-.05h-.6l.8-.65 3.65-2.8.55-.1 6.35-1.15 1.25-.3 3.8-2.05m-1.45 20.6 4.35 9.2q4.4 14.55 7.25 29.3l1.05 6-18.35 3.85-7.3-45.15 1.8-2.3.95-.1 1.5-.15.6.65 1.75.3 2.05-.3 1.05-1.45 3.3.15M109.65 25l1-4.1 1.4-5.6.05-.1.05-.15 8.3-6.8 1.4 2 3.6-1.75 1.9-2.7h3.5l1.7-3.3-4.5 27.95q-9.2-1.65-18.4-5.45m-8.7-96.6-2.9-1.7-.35-.6-.2-.7q-.25-1.4 1.15-2.45 1.3-1 4.05-1.7l-1.75 7.15m-3.55-8.15q.7-2.1 1.55-4.05 1.9-4.45 4.65-8.6l.85.05.15-1.15q2.45-6.3 6.7-10.1l9.4-3.15-.25-.7.05.05.35.45 1.9 2.35.2.25.05.05.05.15 4.7 5.1.1.15h-.05l-.3.1-.05-.05-1.35-1.05-3.25-1.05q-5.95 6.4-13.15 8.05l-.3.05-.35.5q-2.95 4.3-5.05 9.85-3.55 1-6.6 2.75m78.55-26.1 1.25.2 8.95 1.55.8.45 1.95 1.15q3.45 2.2 5.05 4.7l.5.85q.85 1.8.8 3.75l-.05.75 1.9.55 1.45.3.2.8q.3 1.3.75 2.5-5.25 2.6-9.8 6.1l-9.35-13.05v-2.1l-1.35-1.5v-.35l-.8-.2.05-.4q.05-1.1-.3-2.4l-.15-.6-.25-.8-.25-.4-.15-.25-1.2-1.6m-17.05 3.2-1.1-2.65 10.15-1.1q1.15 1.8 1.5 3.9l.2 1.35h-.9l-1.4-.15-6.55-1.1-.65-.05-1.25-.2M120.4-44.1l6.35 4.9.85.35.65.2 4.7 1.3q.95 2.95 2.2 5.8l-5.4-.9-.8 1.7-.9-.8-1.65.3-2.3-4.9-1.9-4-1.8-3.95" transform="translate(.6 179.4)"/><path fill-rule="evenodd" fill="#88532d" d="m194.55 45.45-1.15 4.45h-3.3l-2.95 1 2.4-4.35 2.95-.6.1-.05 1.95-.45M162.65 68l-4.5-3.2-1.8-14.3.05-1.4h.05l9.4 18.6-3.2.3M149.5 55.2q-2.4 6.25-1.75 12.8v4.9l-2.55 1.9-4.05-4.25q.5-4.45-3.1-7.75-1.45-1.25-3.45-2.3l14.9-5.3m-40.95 14.7-3.3-5.3 1.8-2.15 1.9-3.15V39.95l4.25-3.75v4.7l2 13 1.1 3.2-.55.25q-5.35 2.85-7.2 12.55m11.9-177.35q-.3-1.7.05-2.1.3-.4 3.25-2.2 2.5-1.55 7.45-1.45l1.7.05 1.55 3v.2l.05.05 1.25 2.2v.1l.2.35 1.7 3.55.65 1.55-10.55 3.1-4.7-5.1-.05-.15-.05-.05-.2-.25-1.9-2.35-.35-.45-.05-.05m44.65-2.1.75-.1h.05l1.65-.1 1.9.35.55.25 3.95 1.8q.75.3 1.5 1l.5.5 1.2 1.6.15.25.25.4.25.8.15.6q.35 1.3.3 2.4l-.05.4-8-1.85-.55.1-.2-1.35q-.35-2.1-1.5-3.9l-2.85-3.15m12.65 13.9-6.25-1.1v-3.15l6.25 1.5v2.75m-48.4-2.45 8.75-2.9 1.55 3.85-8.6 2.9-1.7-3.85" transform="translate(.6 179.4)"/><path fill-rule="evenodd" fill="#a2926f" d="m228.3-74.75 1.9 4.25v3.8l-4.1 3.3-3.3 10.05-2.1 1.05-4.45 2.25-1.9 2.6-3.5-.25 3.25-3 .15-11.4-2.05-6.05 2.05 2.55 1.85-.1-.35-8.15 1.3-1.05 9.05 11.5-.05-15.25-.35-.1-16.2-3.6 2.85-2.2 10.3 1.85q2.35.55 3.4 2.2v.05l.55 1.5v.05l.05.05v.1l.1.65 1.55 3.35M115.05.65 113-2.25l-2.55-2.7-4.15-9.25 2.65-2.95 4.25-7.1.75-1.25 4 .4-3.1 1.45-.8.85 4 7.3 3.8 11.05 5.5 10.25-1.9 2.7-3.6 1.75-1.4-2-5.3-7.4-.1-.2m47.9-118.35-1.2 1.15 1.25 5.6q1.05 1.6 2.1 1.4l2.85 3.15-10.15 1.1-4.15-9.6-2.15-.5q-1.65-.5-3.3-1.25-3-1.75-5.35-4.25l-.7-.75 3.9-5.55 1.85-2.5 3.5-4.15 4.3 2.65 4.35-2.45-2.25.1-.4.05-1.7.65q-2.7-1.6-3.95-1.4 3.9-4.3 6.7-5.4l1.15-.3q2-.4 3.3 1.25l.35.5q.8 1.3 1.3 3.5.6 2.5.75 6.25.15 3.55-.1 8.3h-.05l-2.2 2.45m33 53.2q.3-1.55 2.45-1.65l-2.45 1.65m-59.95-87-.15.2-.05-.2h.2m25.8 23.2q-.15-.55-2.5.35l2.3.3.1-.15.1-.5m-5.15 2.85-.65.1-1.25.05-1.5-.35q.7.5 1.35.75 1.65.6 2.7-.75l-.65.2m-8.2-2.5 2.85-.1 1.8.35.55.1 1.8.15h.25l.6-.1.35-.4h-1.4l-.6-.25-2.3-.7q-2.5-.6-3.4.05-.45.3-.5.9m-41.85 91.7 1.7-.7q6.8-2.7 13.9-3.2l1.9 4q-7.3-.9-14.7 0l-2.6.35-2.05.35 1.85-.8m14.45 9.75 5.35-4.75.9 1.9-6.25 2.85m11.5 29 3.4-.8-1.8.95-1.6-.15" transform="translate(.6 179.4)"/><path fill-rule="evenodd" fill="#4e4532" d="m134.45-110.15 1.15-.75.15-.2q1.1-1.05 1.6-2.65l1.3-4.55q1.8-3.3.7-7.35l-1.7-3.35-.95-2.25.25-2.25.1-1.55v-.2l.05-3.45-.3-5.6-2.25.15-.35-5.1 1.65-2.05.15-.2q8.35.65 18.05 6.85l3.25 2.15 1.3-.9.1-.05 2.45-1.55.1-.05.1-.1q5.15-3 10.35-4.1h.05l-.05 3.95v1.25l.2 4.65-.7 8.55q-2.2 6.05-6 10.7.25-4.75.1-8.3-.15-3.75-.75-6.25-.5-2.2-1.3-3.5l-.35-.5q-1.3-1.65-3.3-1.25l-1.15.3q-2.8 1.1-6.7 5.4l-.6.2.25.2-3.5 4.15-1.85 2.5-3.9 5.55.7.75q2.35 2.5 5.35 4.25 1.65.75 3.3 1.25l2.15.5 4.15 9.6-9.55-.3-.65-.05q-5.7-.6-11.55-2l-.3-.05-1.25-2.2-.05-.05v-.2m75 32.15.05-4.35 16.2 3.6.35.1.05 15.25-9.05-11.5-.75-.8-5.2-1.9-1.65-.4M198.4-66.15h.1l-2.55 1.65 2.45-1.65m-35.9-76.75q-.6 2.15 1.3 3.2l.2.05h2.05q.65-.8.9-1.6.4-1.65-.9-3.25-1.8.5-3.55 1.6m-15.45 2.85q1.05-1.25.2-3.25l-2.45-1.15-.75-.55-1.2.7q-.85 2.35.7 4.25 1.2.8 2.1.8.85 0 1.4-.8" transform="translate(.6 179.4)"/><path fill-rule="evenodd" fill="#3e3528" d="m204.55-77.3 1.35-.65h-.05l1.85-.25 1.5.2h.25l1.65.4 5.2 1.9.75.8-1.3 1.05.35 8.15-1.85.1-2.05-2.55 2.05 6.05-.15 11.4-3.25 3-.75-.2q-2.7-.7-6.1-2.45l1.1-4.5-.95-2.05-.1-.2q-1.5-2.15-4.15-3.25l-.2.15-.7.5-2.65 1.5-.75-.5q-3.55-2.6.35-5.8l2.55-1.65h-.1l1.8-3.25q.35-2.3 3.65-2.2v-3q-.7-1.6.7-2.7m6.35 8.55 1.15.45-.65-.85-.5.4M117.95-25.1l3.1-1.4 6.25-2.85 2.25 5 4.75 2.2h2.7l3.65 5.1.45.6L143-9.9l1.25 4.35-1.35 2.25q2.1 5.55-1.65 8.15l-5.3-3.15-3.4.8-1.7 3.3h-3.5l-5.5-10.25-3.8-11.05-4-7.3.8-.85 3.1-1.45" transform="translate(.6 179.4)"/><path fill-rule="evenodd" fill="#9ea9c0" d="m210.35-41-4.45 3.85.05.15-1.85 2.85q-1.65 3-2.1 6.15l-5.9-5.75q-3.25-.4-6.3-2.15l-2.85-2-.4-.3-3.8 2.05.9-5.35h.05l.15-.15 3.1-2.35.95-.75.35.85-.7 5q1.4 1.05 2.95 1.7 2.55 1.1 5.45 1.15l5.6-.25q2.15-.5 3.65-1.6h.1l.4-.35 1.35-1.55 3.3-1.2M193.4 49.9v8.05l-.65.85-1.5-1.25-3.7 1.6-6.7 9q-2.2 4.75 1.8 7.05l.7.35 9.45-3.35.35 1-.6 1.35q-4.5 8.9-8.95 6.55-1.45-.8-2.9-2.75-4.75-2.1-5.8-5.45-1.05-3.4 1.7-8.1 3.7-5.2 8.3-9.1l1.6-1.35q3.25-2.55 6.9-4.45m-30.15 21.5-2.4-.5 1.8-2.9 3.2-.3 3.4 6.7-.25-.15q-2.8-2-5.75-2.85m-18.05 3.4-1.95 3.3-2.05.55-5.35 1.45q-1.9 1.85-4.2 3.25l-3.25-2.3q2.3-.7 3.85-1.65 2.55-1.55 3.1-3.75.45-1.8-.4-4-.75-1.85-2.3-3.9l-2.9-2.2 4.8-5.05h.05q2 1.05 3.45 2.3 3.6 3.3 3.1 7.75l4.05 4.25M98.95-52.95l2-18.65 1.75-7.15 5-.85-2.6 28.5q-6.4 4.7-6.65 2.7l.5-4.55m100.6-30.5 5 6.15q-1.4 1.1-.7 2.7v3q-3.3-.1-3.65 2.2l-1.8 3.25L192.75-78l1.85-1.7 2.65-2.15 2.3-1.6M184.5-48.8l.15-1.5.15-1.65.05-.45 1 2.55-.35.3-1 .75m-63.2-9.4-.9 14.1-2.5-8.25 3.4-5.85" transform="translate(.6 179.4)"/><path fill-rule="evenodd" fill="#ed9c16" d="m197.75 26.9.55 3.35q1.05 6.8 1.75 13.65l-5.5 1.55-1.95.45-.1.05-2.95.6h-.05l-7.3 1.3-2.8-16.9-4.65.75 4.65-.95 18.35-3.85m-88.8 13.05V34.1l-1-1.65.7-3 1-4.45q9.2 3.8 18.4 5.45l-2.25 13.4-7.7-1.95-1.7-4.35-3.2 3.35v-4.7l-4.25 3.75M97.5-74.6l-.85-2.55.05-.25.7-2.35q3.05-1.75 6.6-2.75l-1.3 3.75q-2.75.7-4.05 1.7-1.4 1.05-1.15 2.45m102-13.7 1.95 3.55-1.9 1.3-2.3 1.6-2.65 2.15-1.85 1.7h-.05l-3-4.2q4.55-3.5 9.8-6.1" transform="translate(.6 179.4)"/><path fill-rule="evenodd" fill="#6f7595" d="M189.15 96.2q-.6 9.4-3.95 16.9l-.7 7.35q-.85 3.85-2.45 6.9-1.3 2.5-3.1 4.45l4.65-16.3 5.55-19.3m18.95 49.75q2.75 3 6.1 0h1.15l-2.8 5.4-5.65-2 1.2-3.4m-40.15 6.9-8.05-3-.5-3.25.5-.1-1.95-6.25 1.5-3.6h.45v-1.1h-.45v-1.75l4.25-9.2.3-1.65q1.45-9.1-3.05-17.75-5-9.6-3.45-18.6l.75-3.15.15-.55 4.85-11.5q2.95.85 5.75 2.85l.25.15q-3.3 5.7-4.2 11.5-2 11.9 6.15 23.9l-6.4 26.85.4 2 .65.05q3.2-.9 4.9 2.9 1.65 2.75-1.85 4.9h-2.15l1.2 6.35m-26.75-74.2q-1.35 4.9-1.3 9.65l.15 3.3-3.2.25-1.85-6.1-3.35-2.4q2.3-1.4 4.2-3.25l5.35-1.45m-12.05 80.65-.9 2.85-1.6 2.6v-7.8l1.85-.45.65 2.8M92.6 176.75l-6.3-2.05-2.15-7.65v-6.8l4.5-5.7V151l7.65-7.55v.15l.95-1.1h-.95v-6.35l5.05-7.4 1.6-4.35q-2.65-15.55-1.65-32.4l.05-1.5 7.5-14.95q.65 4.4 2.85 7.15l-2.9 4-.7 4.65q-2.15 16.4.7 32.8l1.2 1.8-4.7 18.65q-3.1 1-6 2.25-2.4 2.5-4.1 4.95-4.5 6.6-3.4 12.35h2.7l-1.9 12.6m41-296.3-.7 1.65-1.65 2.5q-2.95.15-6.1-1.25 2.5-2.1 4.35-4.85 3.7-5.55 4.7-13.75v-.1q.5-4.1.35-8.8l2.25-.15.3 5.6-.05 3.45v.2l-.1 1.55-.25 2.25-.3 2.05-.1.65q-.9 4.8-2.7 9m-22.6-58.7q-5.6 8.7-5.6 15.45l-.7.05q-1.4-13.3 6.3-15.5m59.4 10.6 4.15 5.75-2.95.2q0-2.75-1.2-5.95m8.6 68.8 1.35 1.5v2.1l1.3 9.95-1.25.15-.4 1.75v.15l-.05.15-1.65.8-.55-1.15-11.9.6q-2.6-8.55-6.05-17.5h.75l8.3 1q.65-.4.95.45v-.3q.6 1 .95 3.95v.15l-.05.05.05.05v-.05l7.75 1.3.05-.3v-.05l.1-.3.35-4.3v-.15M166.9-79.3l6.4.4 5.5.4q1.9-.05 2.85 1.85.85 1.85.8 5.6-.1 2.25-.55 4v.05q-.6 2-1.75 3.2l-1.3-1-8.4.55q-1.4-7.35-3.55-15.05m4.45 19.85h6.55l2.35 1q1.9 1.1 3.05 3.05.4 2.15.3 4.25-.05 1.7-.45 3.35l-5.85 4.35-2.3.1h-2.1q-.25-7.75-1.55-16.1m12.3 17.95-.9 5.35-1.25.3-6.35 1.15-.55.1.35-.3 1.3-.95 1.5-1.15 5.9-4.5m-.05 122.6-3.2-.9.05-.1 3.15 1m20.5 67.25-9.5-1.45-8.45-4.9 17.95 6.35m-76.65-247.2.05.05.3-.1h.05l1.05 2.2-.6.3q-.6 2.65-.6 5.3t.6 5.35l.3 1.2.25.55q.35.75.85 1.35l.1.15.55.55H130.5l-.45 3.4-.65.05q-.65.1-1.05.5-.85.7-.85 2.5l-2.15-.15-.1-3.9v-.7l-.3-2.25v-.95l.05-14.8 2.45-.6m12.4-3.1 1.75-.3 4.8-.55.95-.1h.1q5.5-.35 11.45.25l.9 2.3q-6.5-.45-13.1.1h-.2l-5.45.6-1.05.15-.85-2.25.7-.2M98.5-35.75l-2.75-3.15v-6.5l2.7-3q.25 2 6.65-2.7l-.95 10.45-5.25 1.6-.4 3.3" transform="translate(.6 179.4)"/><path fill-rule="evenodd" fill="#282c37" d="m192.75 58.8 11.4 9.35-11.35 4.05-9.45 3.35-.7-.35q-4-2.3-1.8-7.05l6.7-9 3.7-1.6 1.5 1.25m19.8 92.55-1.15 2.05-5.85 4.9-4.85 1.7-17.1-3.45-9.55-5.55-6.1 1.85-1.2-6.35h2.15q3.5-2.15 1.85-4.9-1.7-3.8-4.9-2.9l-.65-.05-.4-2 6.4-26.85q-8.15-12-6.15-23.9.9-5.8 4.2-11.5l8.1 4.7q-2.6-2.85-3.75-5.45h-.05l1.35-.75-1.4.6-.1-.2q-1.4-3.35-.4-6.1-.25-1.55.5-3.5 1.1-2.95 4.4-6.85 1.45-1.75 3.75-3.2 2.3-1.55 5.5-2.75l2.95-1h3.3q-3.65 1.9-6.9 4.45l-1.6 1.35q-4.6 3.9-8.3 9.1-2.75 4.7-1.7 8.1 1.05 3.35 5.8 5.45 1.45 1.95 2.9 2.75l-3.15-1-.05.1 3.2.9v34.4l-4.65 16.3q1.8-1.95 3.1-4.45l4.1 14.65 8.45 4.9 9.5 1.45 2.8 1 5.65 2m-80.85.05-2.55 7.9-.65-2.8-2.25-10-3.7-11.35-2.55 18.4v2.2l-4.55 3.55 1.95 16.6-7.2 1.7-11.2 1.25-6.4-2.1 1.9-12.6h-2.7q-1.1-5.75 3.4-12.35 1.7-2.45 4.1-4.95 2.9-1.25 6-2.25l4.7-18.65-1.2-1.8q-2.85-16.4-.7-32.8l.7-4.65 2.9-4 3.2-4.3.05-.05 5.4-2.95-1.15-11.5-3.45-6.5v-.05l.55-.25q5.1-2.35 13.25 1.25 2.85.95 5.05 2.15h-.05l-4.8 5.05-9.4 9.85 8.05 5.65 3.25 2.3 3.35 2.4 1.85 6.1q-3.5 16.95-10.2 31.3L126 134.2l2.25 10.2q-1 7.85 3.45 7m5.8-270-3.9-.95q1.8-4.2 2.7-9l.1-.65.3-2.05.95 2.25-.15 10.4m-12.35 1.95q-3.95-1.7-8.3-5.75l7.05-7.75 1-.7q1.05 1.35 2.6 2.6l.2-8.05 3.55 6.75q-1.85-3.8-1.45-7.55l.3-1.1q.65-3.3.6-6.65-.05-2.4-.5-4.85-.65-3.85-2.2-7.8v-4.75q10.3-17.2 26.2-15.2l-.15 2.75q3.45 5.3 4.65 14.1v9.45l2.1 3.75 1.4-.55q4.05-1.45 9.45-1.55l.05.25q-5.2 1.1-10.35 4.1l-.1.1-.1.05-2.45 1.55-.1.05-1.3.9-3.25-2.15q-9.7-6.2-18.05-6.85h-.2l.05.2-1.65 2.05.35 5.1q.15 4.7-.35 8.8v.1q-1 8.2-4.7 13.75-1.85 2.75-4.35 4.85m-7.95-24.65q-4.5-1.55-8.05-2.95-1.9-5.75-3.05-10.5-1-4.4-1.4-8l.7-.05q6.05 5.85 16.5 8.6l-.3 2.25q-2.4 2.05-4 5.1l-1.3 3.1h2.3q-.85 1.1-1.4 2.45m69.4 26.05-13-4.1-5.25 1.75H167l4.5-9.55q-.3-1.75-.3-3.7l.7-8.55q.25 3.9.95 7.8l.1.75q.25 1.6.65 3.2l.55 2.3q5 6 12.45 10.1m-21.45-2.4-2.2-.05 2.2-2.45v2.5m-5.35 17.3q3.45 8.95 6.05 17.5l11.9-.6.55 1.15-3.35 1.55-1.55.05h-37.6l-5.3-1.25H130.35l-.55-.55-.1-.15q-.5-.6-.85-1.35l-.25-.55-.3-1.2q-.6-2.7-.6-5.35 0-2.65.6-5.3l.6-.3 1.95 3.8.2.5 10.3-3.15-.15-.55-.55-1.65-.65-1.75 1.05-.15 5.45-.6h.2q6.6-.55 13.1-.1m20.35 36.55-.15.2q-.5.45-1.05.75l-3.5.3h-.15l-4.45.35-.45.05-9.75.5q-10.6.3-21.3-.1l-1.15.05-2.95-.4-1.05-.4-.1-.05-1.1-.55q-1.35-.85-2.4-2.2l-1.4-3.45-.05-.2-.15-.35-.2-.5-.5-1.6q-.75-2.5-.8-4.1 0-1.8.85-2.5.4-.4 1.05-.5l.65-.05 5.9-.45 2.25-.15 1.35-.1.85-.05 8.9-.25 2.85-.05q7.35-.05 14.75.3 2.15 7.7 3.55 15.05l8.4-.55 1.3 1m-50.8 7.35q.45-1.1 1.7-1.4l3.9-1.6h36.4q1.3 8.35 1.55 16.1h2.1l2.3-.1-3.05 2.2-1.3.95-.05.05-2.7-.1-29.05-1.8-.85-.1-3.6-.35-.8-.1-4.85-4.6-.15-.35-.8-2.15-.15-.35q-1.45-4.35-.6-6.3" transform="translate(.6 179.4)"/><path fill-rule="evenodd" fill="#8289a2" d="M108.85 75.55q-.4-2.55-.3-5.65 1.85-9.7 7.2-12.55v.05l3.45 6.5q-3 1.55-5.35 5.8-.2 2.05-.1 3.8.1 2.9 1.2 4.85l-.05.05-3.2 4.3q-2.2-2.75-2.85-7.15M169.8-99.2v.3q-.3-.85-.95-.45l-8.3-1h-.75l-.9-2.3 1.25.2.65.05 6.55 1.1 1.4.15h.9l.15 1.95m8.5 16.9 1.65-.8.05-.15v-.15l.4-1.75 1.25-.15.4 3q-.95 2.65.1 5.4l.45 1.05q.8 1.5 2.25 3.05l.05 1 .15 2.85.05 2v.05l.1 5.9v.35l-.25 6.95-.05.4-.05.9-.05.45-.15 1.65-.15 1.5-1.35 1q.4-1.65.45-3.35.1-2.1-.3-4.25-1.15-1.95-3.05-3.05l-2.35-1h-6.55l-.4-2.2-.1-.55 4.45-.35h.15l3.5-.3q.55-.3 1.05-.75l.15-.2q1.15-1.2 1.75-3.2v-.05q.45-1.75.55-4 .05-3.75-.8-5.6-.95-1.9-2.85-1.85l-5.5-.4-6.4-.4-.4-1.4h6.9l1.55-.05 3.35-1.55m-12.45 150q4-.8 7.65-4-.75 1.95-.5 3.5-1 2.75.4 6.1l.1.2.05.15h.05q1.15 2.6 3.75 5.45l-8.1-4.7-3.4-6.7M129.2-68.75q-.3 6.4.15 12.3-.85 1.95.6 6.3l.15.35q.95 6.5 2.85 12.45l-4.7-1.3-.65-.2-.85-.35-6.35-4.9.9-14.1 3.35-5.85v-8.25l.3-.35.4-3 2.15.15q.05 1.6.8 4.1l.5 1.6.2.5.15.35.05.2" transform="translate(.6 179.4)"/><path fill-rule="evenodd" fill="#621111" d="m180.35-95.25 9.35 13.05-1.65 1.3q-2.85 2.35-5.45 5.05l-.45-1.05q-1.05-2.75-.1-5.4l-.4-3-1.3-9.95M104-82.5q2.1-5.55 5.05-9.85l.35-.5.3-.05q7.2-1.65 13.15-8.05l3.25 1.05 1.35 1.05-2.45.6-.05 14.8q-12.1-1.65-20.95.95m34.3-19.65-.65-1.55-1.7-3.55.1-.4q5.85 1.4 11.55 2l.65.05 9.55.3 1.1 2.65q-5.95-.6-11.45-.25h-.1l-.95.1-4.8.55-1.75.3-.7.15-.85-.35m-3.15 70.6q-1.25-2.85-2.2-5.8l1.6.4h.25l5.75 1.1 2.35.4 7.55.75 6.85.3 7.2.3-4.15 3h-5.2l-4.8-.4-.1.05-1.95.85-.8-.1-1.8.15-.6.1-.7-.1h-.3l-.05-.3v-.1l-4.55-.2-1.05-.1-2.5-.2-.8-.1m.8 33.25 5.3 3.15q3.75-2.6 1.65-8.15l1.35-2.25L143-9.9l.7-.6 6-4.8h.05l.3.4 14.7.9 7.35-.4 7.3 45.15-4.65.95h-30.7q-8.05.2-16-1.25l4.5-27.95 1.6.15 1.8-.95" transform="translate(.6 179.4)"/><path fill-rule="evenodd" fill="#be7010" d="m156.4 49.1-3.75-.2-6.5-.5v-4.5L143 48.15l-17.2-4.3 2.25-13.4q7.95 1.45 16 1.25h30.7l4.65-.75 2.8 16.9q-12.3 1.75-25.75 1.25h-.05m28.65-118.05-.15-2.85-.05-1q-1.45-1.55-2.25-3.05 2.6-2.7 5.45-5.05l1.65-1.3 3 4.2h.05q-4.25 4-7.7 9.05m-60.1-14.5v.95l.3 2.25-17.55.65-5 .85 1.3-3.75q8.85-2.6 20.95-.95" transform="translate(.6 179.4)"/><path fill-rule="evenodd" fill="#ca9235" d="m188.45-45.15.2-.15 1.05-.8 1.2-.9 7.35-5.55 5.9-4.35.95 2.05-1.1 4.5q3.4 1.75 6.1 2.45l-.5 1.35-11 5.4-1.45-.45-1.15-.3.15.55-4.3 1 2.5 1.3 6.55-1.45 1.35.4.8.15 2.15.15v1.9q-1.5 1.1-3.65 1.6l-5.6.25q-2.9-.05-5.45-1.15-1.55-.65-2.95-1.7l.7-5 .2-1.25m-84.3 4.5q8.4-4.95 16.25-3.45l1.8 3.95q-7.1.5-13.9 3.2l-1.7.7-2.45-4.4m19.95 4.5 2.3 4.9-5.35 4.75-3.1 1.4-4-.4-.75 1.25-6.4-11.55 2.6-.35q7.4-.9 14.7 0" transform="translate(.6 179.4)"/><path fill-rule="evenodd" fill="#f2e6cd" d="M220.7-52.3q-.1 2.2-1.95 3.6l-4 3.55-1.1 2.75-3.3 1.4-3.3 1.2-1.35 1.55-.4.35h-.1v-1.9l-2.15-.15-.8-.15-1.35-.4-6.55 1.45-2.5-1.3 4.3-1 1-.25 1.45.45 11-5.4.5-1.35.75.2 3.5.25 1.9-2.6 4.45-2.25M106.3-14.2l-.7-1.6-1.55-4.85-3.2-5.75-2.7-6.05.35-3.3.4-3.3 5.25-1.6 2.45 4.4-1.85.8 2.05-.35 6.4 11.55-4.25 7.1-2.65 2.95" transform="translate(.6 179.4)"/><path fill-rule="evenodd" fill="#663d21" d="m185.3-30.35.05.05.05.5 2.25.35q1.5 5.4.6 9.8l-.6 2.15-2.55-.1-3.3-.15-1.05 1.45-2.05.3-1.75-.3-.6-.65-1.5.15-.95.1q.7-2.5.55-5.45h1.65q1.9-1.8-.7-1.75h-1.1q.45-2.25-.4-5.7l.95-.05H177.15l.55-.05.85-.05-.05-.35v-.05l-.05.05h-1.1l-.55.05h-.2l.05-.15q.4-.95 1.45-1.1l1.3.1.65.2 1.8.65v.05l1.05-.05 1.2-.05.25-1.4.95 1.45" transform="translate(.6 179.4)"/><path fill-rule="evenodd" fill="#3c1e13" d="m152.65 48.9-.4.65q-1.7 2.8-2.75 5.65l-14.9 5.3q-2.2-1.2-5.05-2.15-8.15-3.6-13.25-1.25l-1.1-3.2-2-13 3.2-3.35 1.7 4.35 7.7 1.95 17.2 4.3 3.15-4.25v4.5l6.5.5m29.55-1.05 7.3-1.3h.05l-2.4 4.35q-3.2 1.2-5.5 2.75-2.3 1.45-3.75 3.2-3.3 3.9-4.4 6.85-3.65 3.2-7.65 4l-9.4-18.6q13.45.5 25.75-1.25" transform="translate(.6 179.4)"/><path fill-rule="evenodd" fill="#342d21" d="m138.65-118.3-1.2 1.65.05-1.95.15-10.4 1.7 3.35q1.1 4.05-.7 7.35m28.35.7-1.75 3.7-.15.15.05-3.9v-2.5h.05q3.8-4.65 6-10.7 0 1.95.3 3.7l-4.5 9.55m4.75-31.65h-.05l-.05-.25.1.25m-20.35 15.4-.25-.2.6-.2q1.25-.2 3.95 1.4l1.7-.65.4-.05 2.25-.1-4.35 2.45-4.3-2.65m11.1-9.05q1.75-1.1 3.55-1.6 1.3 1.6.9 3.25-.25.8-.9 1.6H164l-.2-.05q-1.9-1.05-1.3-3.2m-.7 14.6-.1.5-.1.15-2.3-.3q2.35-.9 2.5-.35m-14.75-11.75q-.55.8-1.4.8-.9 0-2.1-.8-1.55-1.9-.7-4.25l1.2-.7.75.55 2.45 1.15q.85 2-.2 3.25m1.4 12.1q.05-.6.5-.9.9-.65 3.4-.05l2.3.7.6.25h1.4l-.35.4-.6.1h-.25l-1.8-.15-.55-.1-1.8-.35-2.85.1m8.2 2.5.65-.2q-1.05 1.35-2.7.75-.65-.25-1.35-.75l1.5.35 1.25-.05.65-.1" transform="translate(.6 179.4)"/><path fill-rule="evenodd" fill="#3a3e50" d="m170.85-62.2.1.55.4 2.2h-36.4l-3.9 1.6q-1.25.3-1.7 1.4-.45-5.9-.15-12.3l1.4 3.45q1.05 1.35 2.4 2.2l1.1.55.1.05 1.05.4 2.95.4 1.15-.05q10.7.4 21.3.1l9.75-.5.45-.05m-4.35-18.5.4 1.4q-7.4-.35-14.75-.3l-2.85.05-8.9.25-.85.05-1.35.1-2.25.15-5.9.45.45-3.4 5.3 1.25h30.7m-33.55 43.35q-1.9-5.95-2.85-12.45l.8 2.15.15.35 4.85 4.6.8.1 3.6.35.85.1 29.05 1.8 2.7.1-1.6 1.2-6.8 4.95-7.2-.3-6.85-.3-7.55-.75-2.35-.4-5.75-1.1h-.25l-1.6-.4" transform="translate(.6 179.4)"/><path fill-rule="evenodd" fill="#402115" d="m126.4-31.25 1.65-.3.9.8.8-1.7 5.4.9.8.1-.75-.05 1.95.25 1.5.15 1.8.2 1.9.2 1.75.15h.05l.95.1 1.6.1.75.05.85.1q-1.65 4.55-1.15 8.55l-6.5 4.6-3.65-5.1h-2.7l-4.75-2.2-2.25-5-.9-1.9" transform="translate(.6 179.4)"/><path fill-rule="evenodd" fill="#394151" d="M173.9-30v.4q.85 3.45.4 5.7h1.1q2.6-.05.7 1.75h-1.65q.15 2.95-.55 5.45l-1.8 2.3-7.35.4-14.7-.9-.3-.4 3.3-2.55.2.8 12.45.35 4.65-.35v-5.1h-3q-2.5-1.05 0-1.75h3v-4.55h-3.7L168-29.5l2.15-1.65h.6l1 .05 2.15 1.1m-25.6-.6 1.95-.85 4.9.35h5.2l-3.7 2.65h-3.4l-.65 2.95-5.45 3.85q-.5-4 1.15-8.55v-.4" transform="translate(.6 179.4)"/><path fill-rule="evenodd" fill="#4d2b1a" d="M166.65-28.45h3.7v4.55h-3q-2.5.7 0 1.75h3v5.1l-4.65.35-12.45-.35-.2-.8 3.4-2.7 10.2-7.9m-10 0-4.05 2.95.65-2.95h3.4" transform="translate(.6 179.4)"/><path fill-rule="evenodd" fill="#363a49" d="m112.15 15.05-.15.1-4.85 4-2.1 1.75-18.6 15.55q-.5.2-1.9-1.15l-.9-.8-.1-.1-1.2-1.35-1.15-1.4-.35-.5-.95-1.35-.35-.55 35.6-28.4 5.3 7.4-8.3 6.8" transform="translate(.6 179.4)"/><path fill-rule="evenodd" fill="#c4c9d9" d="m129.75 65.55 2.9 2.2q1.55 2.05 2.3 3.9.85 2.2.4 4-.55 2.2-3.1 3.75-1.55.95-3.85 1.65l-8.05-5.65 9.4-9.85m-14.8 12.8q-1.1-1.95-1.2-4.85-.1-1.75.1-3.8 2.35-4.25 5.35-5.8l1.15 11.5-5.4 2.95" transform="translate(.6 179.4)"/><path stroke-width=".25" stroke-opacity=".424" stroke-linejoin="round" stroke-linecap="round" stroke="#000" fill="none" d="m256.45 76 .8-.55-.35-.4 1.25-.6q1.95-1.1 4.65-3.75.9.15 1.6.8-.15-2.55 2.15-6.05l.95-1.4 1.8-2.2.85-1.05-1.85-2.35q2.45-5.7.45-11.95 8.1 1.05 19.2-2.55l-2.4 5.1 3.3-1.55q2.55-1.1 4.65-1.6 4.8-1.55 8.15-1l1.4.25h.15q4.25-4 4.75-9.2l43.1-26.65Q331.4 26.5 318.7 42.95L306.1 48l1 1.6q.35 1.45-.05 3.45-1.5 5.95-8.75 12.45 3.05 2.3 8.35 1.65l10.1-3.55 11.05-8.3 11.05-8.35 15.3-15.55.25 1.35q.3 6.55-15 25.2-12 14.6-33.6 36.6-32.7 25.25-50 24.8h-2.6l11.1-8.3q5.65-5.7 10.8-11.5 5.15-5.85 9.8-11.8l2.45-3.15 2.35-3.25 1.9-2.65-1.85-7.05q-7.4 4.25-14.5 5.35-6.5.85-9-1.85l.45 2.95-6.7 5-.75-.95-.75.55.1.3q-3.3 2.2-4.65 6.5-1.4-.6-2.6-1.45l-1.75 1.35-1.8 1.35m-6.65 5-12.25 8.9 1.9 4.25v3.8l-4.1 3.3-3.3 10.05-2.1 1.05q-.1 2.2-1.95 3.6l-4 3.55-1.1 2.75-3.3 1.4-3.95 3.45-.45.55-1.85 2.85q-1.65 3-2.1 6.15l-5.9-5.75q-3.25-.4-6.3-2.15l-2.85-2-.4-.3-1.2 7.85v.05l.05.5 2.25.35q1.5 5.4.6 9.8l-.6 2.15-2.55-.1 4.35 9.2q4.4 14.55 7.25 29.3l1.05 6 .55 3.35q1.05 6.8 1.75 13.65l-5.5 1.55-1.15 4.45v8.05l.7 1.95 10.05 8.25-20.8 7.4-.7-.35q-4-2.3-1.8-7.05l6.7-9 3.7-1.6 2.85 2.35m98.8-193.4 4.55-.3 1 .15q3.1.85 2.05 4.7-1.3 3.8-5.95 8.2l-3.55 2.95q-7.85 5.7-15 7.25-5.1 1-6.65-1.05l-.4-.8q-.85-2.55 2.2-6.65 2.4-3.3 6.45-6.5l-1.1.8q-4.1 3.05-6.95 6.2l-.85 1m16.25-12.8q-3.25 1.7-6.4 4.1 5.2-3.6 10.55-5.85l3.8-1.4m-24.75.6 9.45 7.35.95-.7m-9 7.7v-.05m-3.9 14.35-.35-.45-.35-.5.55.4-.25-.7q-.55-1.6-1.45-2.4m25.35.15-.2-.7-1.45-1.85q-7.4 4.5-14.25 6-5.4 1.05-7.75-.5l.05.2.1.35m21.85-6.05q2.55-1.55 5.2-3.45l2.95-2.45 1.75-1.6q6-5.55 7.65-10.4.5-1.85.3-3.15l-.15-.5-.75-1.25q-.7-.75-1.85-1.15m-6.95 18.05q.85 1.4 2.05 2.3m7.5-17.95.3.45-.15.05m12.75-5.1-1.7-2.2q-5.25-.3-11.95 5.55M284.9 87.75q12.75-6.05 24.75-17.1l.2-.2 5.25-5.15 1.65-1.7M275.1 99.55q22.25-9.9 37.55-26.25l.15-.2 4.75-5.5 10.25-12.3M317 40.75l3.15-9.1-12.2 4.3M182.1 21.15q-1.25-1.9-3.35-2.5l-3.6-1.15 3.2 5.1-1.65 9.6q0 8.1 2.6 14.85l1.6 1.55 1.65-2.3q.75-1.85.5-3.75-.25-1.65-1.15-3.25l-.6-.95V32.5l4.4 5.5 1.6 2 .05-2.6q-.45-3.95-3.7-8.3l-4-8.15 3.85 3.5q-.5-2-1.4-3.3l7.55 2.65q3.75.1 3.4-6.55l-2.6-12.15 12.1 15.25q1.4 7-2.95 11.25l-7.9 4.6-4.35 1.2m-1.65.6-3.8 1.3m-2.6 7.75.8 1.9q3.5 7.65 10.5 13.4l-3.4 1.8-11.3-3.55-1.7-.55-5.25 1.75h-1.35l-1.75 3.7-.15.15.05-3.9-2.2-.05-1.2 1.15 1.25 5.6m12.95 5.1 1.25.2 8.95 1.55.8.45 1.95 1.15q3.45 2.2 5.05 4.7l.5.85q.85 1.8.8 3.75l-.05.75 1.9.55 1.45.3.2.8q.3 1.3.75 2.5l1.95 3.55-1.9 1.3 5 6.15 1.35-.65h-.05l1.85-.25 1.5.2h.25l.05-4.35 2.85-2.2 10.3 1.85q2.35.55 3.4 2.2l12.45-9.8m7.5-5.65.5-.4-.1-1.3q3.95-1.8 8.1-6.1l.75.85q1.7 2.25 2.65 6.2m-2.05-6.7-.6.5M178.8 80l.8.2m3.05 16.9q-.95 2.65.1 5.4l.45 1.05q2.6-2.7 5.45-5.05l1.65-1.3q4.55-3.5 9.8-6.1m-21.7-14.5q4.75 1.1 8.9 6 2.2 1.55 4.5 2.65l1.25.6 2.2.9.55.2m63.45-4.8-.35-.5q.3-1.35.15-2.6l-.15-.55q-.25-1.05-.85-1.95l-.8-1.1m-5.9 12.6q-2.4-1.7-4.2-4.6l-.05-.4M226.65 98.9v.05l.55 1.5v.05l.05.05v.1l.1.65 1.55 3.35m-2.6-4q.25 1.1 0 1.9-.3.8-1.1 1.35m-10.5 24.8 2.45-4 .1-.15 6.8-4.9 2.65-3.65m-5.05-6.8-4.75-5.5-5.2-1.9-1.65-.4m-84.8 5.7v8.25l-3.35 5.85-.9 14.1 6.35 4.9m37.75 5.1 6.8-4.95 1.6-1.2.05-.05 1.3-.95 3.05-2.2 5.85-4.35 1.35-1 .15-1.5.15-1.65.05-.45.05-.9.05-.4.25-6.95v-.35l-.1-5.9v-.05l-.05-2-.15-2.85-.05-1q-1.45-1.55-2.25-3.05m-4.1-17.9-7.75-1.3v.05m0-.1v-.15q-.35-2.95-.95-3.95m-29.8-.3.65 1.75.55 1.65.15.55-10.3 3.15m68.5 8.95-2.3 1.6-2.65 2.15-1.85 1.7q-4.25 4-7.7 9.05m-.2 16.55 1 2.55 5.75-4.25 1.95-1.5 2.8-2.6-.75-.5q-3.55-2.6.35-5.8.3-1.55 2.45-1.65l1.8-3.25q.35-2.3 3.65-2.2v-3q-.7-1.6.7-2.7m-11 21.7 3.75-2.8 1.7-1.3-2.65 1.5m19.4-15.65.7.8q.5 1-.55 1.85m-12.05-.4 7.05 2.85.5-.4-1.55-1.85m4.4 5.4-2.05-2.55-.15-.15-1.15-.45m1.15.45-.65-.85m-2.65 5.45-8.25-3.25q-1.3.7-2 .8h-.1m.6 6.45.7-.5.2-.15q2.65 1.1 4.15 3.25l.1.2.95 2.05m-.95-2.05-5.9 4.35-7.35 5.55-1.2.9-1.05.8-.2.15-.2 1.25-.7 5q1.4 1.05 2.95 1.7-.7-4.15 1.25-7.2l.55-.75 3.7 3.25 1.15.3 3.75 1.1 1.35.4.8.15 2.15.15q4.65-.25 8.5-4.5l1.05-.85m4-3.55q-1.3.95-3.55 1.55l-.5.1h-.25l-.05.05-4.8.45q-5.05-.75-10.35-4.7m4.75.9q3.4 1.75 6.1 2.45l.75.2 3.5.25 1.9-2.6 4.45-2.25m-30.2 15.1q2.55 1.1 5.45 1.15l5.6-.25q2.15-.5 3.65-1.6h.1l.4-.35 1.35-1.55 3.3-1.2m-3.95 3.45-3.85 3.3q-3.3.9-6.45.5m-7.65-11.4-.55.4.35.85m12.65 3.4-6.55 1.45-2.5-1.3 5.3-1.25m-12.65-7.2 1-.75.35-.3m-1.35 1.05-.15 1.4m3.55 2.65-.95.75-3.1 2.35-.15.15 3.85 2.6m-3.85-2.6h-.05l-.9 5.35 3.8-2.05m-11.95 3.6-3.65 2.8-.8.65h.6l1 .05 2.15 1.1h.65l2.05-.05.05-.15q.4-.95 1.45-1.1l1.3.1.65.2 1.8.65v.05l1.05-.05 1.2-.05.25-1.4.95 1.45h.05m-3.5 0v.05m-5.25.25h.2l.55-.05h1.1l.05-.05v.05l.05.35q1.3 6.2-.05 12.55l-1.15.2h-.55l-.45.05.6.65 1.75.3.55-.6.15-.2q1.4-2.2 1.05-7.5l-.7-5.1-.1-.5v-.05l-.25-1.25m-.95 1.1h.05m-4.6.1v.4l.95-.05H177.75l.55-.05.85-.05m6.75-.6.05.05m-2.45-.05 2.5.55m-10.8-4.8.35-.3 1.3-.95 1.5-1.15 5.9-4.5m-4.95 25.5 2.05-.3 1.05-1.45v-.05l.8-3.25q.5-2 .15-4.9l-.9-4.35m3.25 12.7h-.05l.35 5.3m-.35-5.3-3.25-.15m-73.85 50.2 1 1.65v5.85l4.25-3.75v4.7l3.2-3.35 1.7 4.35 24.9 6.25 3.15-4.25v4.5l6.5.5 3.75.2h.05q13.45.5 25.75-1.25l7.3-1.3h.05l2.95-.6.1-.05 1.95-.45m-4.45 4.45-2.95 1q-3.2 1.2-5.5 2.75-2.3 1.45-3.75 3.2-3.3 3.9-4.4 6.85-.75 1.95-.5 3.5-1 2.75.4 6.1l.1.2.05.15h.05q1.15 2.6 3.75 5.45l3.1 1 3.15 1q-1.45-.8-2.9-2.75-4.75-2.1-5.8-5.45-1.05-3.4 1.7-8.1 3.7-5.2 8.3-9.1l1.6-1.35q3.25-2.55 6.9-4.45h-3.3m-14.3 76.25 1.65-3.75q2.15-6.2 1.95-15.45v-1.75q-2.9-10.35-.3-20.7.5-2.15 1.3-4.3l.05-.1m12.7-6.9-.6 1.35.05 12.65-3.45 9q-.6 9.4-3.95 16.9l-.7 7.35.55-3.1 1.5-.8 8.45 18.6-1.9.65 15 10.15q2.75 3 6.1 0h1.15L212 332.8l-5.85 4.9-4.85 1.7-17.1-3.45-9.55-5.55-6.1 1.85-8.05-3-1-6.5-.95-3.1 1.5-3.6v-2.85l4.25-9.2.3-1.65q1.45-9.1-3.05-17.75-5-9.6-3.45-18.6l.75-3.15.15-.55 4.85-11.5-2.4-.5 1.8-2.9-4.5-3.2-.35-2.9m-.85-6.65-.6-4.75m27.25 30.6q4.45 2.35 8.95-6.55m-9.15 41.6 1.8-3.05m-25.75 23.55.45-1.1 10.45-9.2 3.8 6.35 4.8-.9q1.8-1.95 3.1-4.45 1.6-3.05 2.45-6.9m8.6 15.35-9.9 3.55-1.45.8 4.4 1.85 8.45 4.9 9.5 1.45m115.45-296.1 30.9-22.35M128.6 17.15v4.75q1.55 3.95 2.2 7.8.45 2.45.5 4.85.05 3.35-.6 6.65l-.3 1.1q-.4 3.75 1.45 7.55l-3.55-6.75-.2 8.05q-1.55-1.25-2.6-2.6-2.65-3.4-2.3-7.85-4 3.4-3.2 10.3l-3.25-2.3q-.75-6.4 1.05-10.6-4.5-1.55-8.05-2.95-13.1-5.2-14.2-9.15.25-4.1 1.6-7.95 2.2-6.75 7.6-12.95 5.15-6.05 6.85-3.95-5.6 8.7-5.6 15.45 6.05 5.85 16.5 8.6l.3-2.2h-2.1l1.95-3.8q-.95-2.3-4.5 0 4.45-7.65 10.45-2.05 10.3-17.2 26.2-15.2l.2.05 3.85.25q5.15 1.35 10.9 8.05l1.25 1.45 4.15 5.75M159.3 28.25V18.8q-1.2-8.8-4.65-14.1m17.7 25.45 1.45-.25h-1.55q-5.4.1-9.45 1.55l-1.4.55-3.2 1.75q-16.55-8.5-21.45-6.05l-.35.2h.2q8.35.65 18.05 6.85l3.25 2.15 1.3-.9.1-.05 2.45-1.55.1-.05.1-.1q5.15-3 10.35-4.1h.05l-.05 3.95v1.25l.2 4.65q.25 3.9.95 7.8l.1.75q.25 1.6.65 3.2l.55 2.3q5 6 12.45 10.1M122.5 25.2l-.3 2.25 1.5-1.2m.8 23L117.45 57q4.35 4.05 8.3 5.75 3.15 1.4 6.1 1.25l1.65-2.5.7-1.65q1.8-4.2 2.7-9l.1-.65.3-2.05.25-2.25.1-1.55v-.2l.05-3.45-.3-5.6-.95-7-.05-.2-1.7 1.1m-16.9 9.1q.55-1.35 1.4-2.45h-2.3l1.3-3.1q1.6-3.05 4-5.1m-1.15 44.5q-.3-1.7.05-2.1.3-.4 3.25-2.2 2.5-1.55 7.45-1.45l1.7.05 1.55 3m2.9-3.6 1.3-4.55-1.2 1.65-.55.75M121.1 72l-.05-.05m-9.15 3.85q-4.25 3.8-6.7 10.1l-.15 1.15 4.95-.5.3-.05q7.2-1.65 13.15-8.05m11.6-9 .05.05m1.25 2.2.3.05q5.85 1.4 11.55 2l.65.05 9.55.3 10.15-1.1m1.1-37.65-.9-.8-2.1.35q1.3 1.6.9 3.25-.25.8-.9 1.6h-2.05l-.2-.05q-1.9-1.05-1.3-3.2l-2.5 1.7m6.05-3.3q-1.8.5-3.55 1.6m-4.7 9.35 2.25-.1-4.35 2.45q-2.3-1.4-4.55-2.85l.6-.2q1.25-.2 3.95 1.4l1.7-.65.4-.05m3.8 5.9-2.3-.3q2.35-.9 2.5-.35l-.1.5-.1.15m5.4 10.05 4.5-9.55q-.3-1.75-.3-3.7-2.2 6.05-6 10.7h-.05v2.5m10.15-1.15-.9-1.05q-1.5-1.9-2.3-4.45l-.1-.4-.5-2.45m-9.7-11.55h6m3.4 7.85.7-8.55m-20.05-1.65-4.6-2.25q.85 2-.2 3.25-.55.8-1.4.8-.9 0-2.1-.8-1.55-1.9-.7-4.25l1.2-.7-.95-.45q-2.1-.65-4.6 1m5.55-.55.75.55 2.45 1.15m-9.6 14.3-.15 10.4 1.15.3q1.8-3.3.7-7.35l-1.7-3.35-.95-2.25m11.75 3.3q.05-.6.5-.9.9-.65 3.4-.05l2.3.7.6.25h1.4l-.35.4-.6.1h-.25l-1.8-.15-.55-.1-1.8-.35-2.85.1m8.2 2.5.65-.2q-1.05 1.35-2.7.75-.65-.25-1.35-.75l1.5.35 1.25-.05.65-.1m-15.4-13.15h7.35m13.15 22.05-.15.1-1.75 1.45q-3.1.55-6.2.1l-2.15-.5q-1.65-.5-3.3-1.25-3-1.75-5.35-4.25l-.7-.75q-1.55-1.85-2.8-4m-1.9 9 .05-1.95-3.9-.95m5.55 17.75v.05l.85 2.25m25.15-20.65-2.2 2.45m-71.6 84.15q2.65 6.25 5.75 7.5l1.6.25q1.05-.05 2.15-.6l-2.7-6.05.35-3.3-2.75-3.15V134l2.7-3 .5-4.55-1.45.05q-2.75.6-4.6 4.45-1.1 2.25-1.9 5.75-1.6 4.55.35 9.15m79.35-61.5h.05v-.05m-43-3.95 10.55-3.1m-8.95 4.05 8.75-2.9 1.55 3.85-8.6 2.9-1.7-3.85m-30.4 45.15 2-18.65-2.9-1.7-.35-.6-.2-.7-.85-2.55.05-.25.7-2.35q.7-2.1 1.55-4.05 1.9-4.45 4.65-8.6l.85.05m-3.5 20.75 1.75-7.15q-2.75.7-4.05 1.7-1.4 1.05-1.15 2.45m-.1-5.15q3.05-1.75 6.6-2.75 8.85-2.6 20.95-.95m-22.25 4.7 5-.85 17.55-.65m-3.95 22.05-3.4 5.85 2.5 8.25q-7.85-1.5-16.25 3.45l-5.25 1.6-.4 3.3m19.4-16.6q-6.7-3.3-12.8 1.25-6.4 4.7-6.65 2.7m-.3 15.95 6.6-3 1.85-.8 1.7-.7q6.8-2.7 13.9-3.2l-1.8-3.95m4.65 10-.4.1q-4.85.7-9 2.5-2.65 1.1-4.95 2.65-4 2.6-7.2 6.35l.55 1.85 1.55 4.85.7 1.6 2.65-2.95 5-8.35 4 .4 3.1-1.4 5.35-4.75-1.35-2.85-.95-2.05q-7.3-.9-14.7 0l-2.6.35-2.05.35m24.2 4.7-1.2 2.45 1.8 3.95 4.75 2.2h2.7l3.65 5.1 6.5-4.6q-.5-4 1.15-8.55l-.85-.1-.75-.05-1.6-.1-.95-.1h-.05l-1.75-.15-1.9-.2-1.8-.2-1.5-.15-1.95-.25.75.05-6.2-1-.8 1.7m-.9-.8-1.65.3.9 1.9.45 1.05m-.45-1.05-6.25 2.85m3.05-9.65-1.9-4m-4.25 15.05-3.1 1.45-5.9 6.5m3.2 32.2-.15.1-4.85 4-2.1 1.75-18.6 15.55q-.5.2-1.9-1.15l-.9-.8-.1-.1-45.25 34.05.6 1.2q.9 1.85.45 2.25Q25.2 265.6 9.5 273.8l-.2.55-.6.05-1.65-.95-.95-.8-2.5-2.85q-1.75-2.35-2.55-4.3-.8-2-.25-2.45 12.65-12.7 30.7-23.05h.05q.4-.35 1.95 1.05l1.45 1.5 45.1-33.85.05-.05-.95-1.9q-.85-1.75-.55-2.15l6.65-4.3 28.05-18.65 2.35-1.6-2.05-2.9-2.55-2.7-4.15-9.25m15.55 9.75 5.5 10.25h3.5l1.7-3.3-3.3-10.1v-3.5m1.9-10.6-5.05 3.5m.8-3.25q-3.5.4-6.35 3.25m-7.55 15.95 6.4-9.2m-1.35-4.05q-4.5 2.1-4.1 7.25M101.45 153l3.2 5.75m31.9-10.8 2.5.2 1.05.1 4.55.2v.1l.05.3H145l.7.1.6-.1 1.8-.15.8.1 1.95-.85.1-.05 4.8.4h5.2l4.15-3m5.65 2.95-2.15 1.65-1.35 1.05h3.7v.05l.7.15q1.35 2.15 0 4.35h3.25q.45-2.25-.4-5.7m-25.6-.6v-.4m12.05-.5-3.7 2.65-4.05 2.95-5.45 3.85m9.5-6.8h-3.4l-.65 2.95m-2.35-5.95 4.9.35m-14.5 14.05.45.6 1.9 6.55.7-.6 6-4.8h.05l3.3-2.55 3.4-2.7 10.2-7.9m-13.6 10.6.2.8 12.45.35 4.65-.35v-5.1h-3q-2.5-1.05 0-1.75h3V151m3.65 19.25-.05-2.65-.15-2.8.1-2.1-1.8 2.3-7.35.4-14.7-.9-.3-.4m3.5-1.75v.55q6.05.6 12.25.3l4.9-.35.65-.1.1-.2q1.1-2.7-.1-5.3h-.7m-35.9 7.25 3.35 9.5v4.4h3.8l1.3-2.3 1.35-2.25-1.25-4.35m31.3-14h1.1q2.6-.05.7 1.75h-1.65q.15 2.95-.55 5.45l.95-.1 1.5-.15m-6-6.95h.7m3.4 1.75h-3.4M141.8 83.3l-10.35 3.2M9.5 273.8l-.8.6m101.55-70q9.2 3.8 18.4 5.45 7.95 1.45 16 1.25h30.7l23-4.8m-70.4-21.1-1.9 2.7-3.6 1.75-1.4-2-8.3 6.8m30.75-18.35q2.1 5.55-1.65 8.15l-5.3-3.15-1.8.95-1.6-.15m-12.1 5.75-5.4-7.6m-1.3 72.85q.1 2.9 1.2 4.85 2.5 4.55 10.1 3.55l3.35-.85q2.3-.7 3.85-1.65 2.55-1.55 3.1-3.75.45-1.8-.4-4-.75-1.85-2.3-3.9l-2.9-2.2q-6-3.95-10.55-1.65-3 1.55-5.35 5.8m-4.9-29.75v19.35l-1.9 3.15-1.8 2.15 3.3 5.3q1.85-9.7 7.2-12.55l.55-.25q5.1-2.35 13.25 1.25 2.85.95 5.05 2.15 2 1.05 3.45 2.3 3.6 3.3 3.1 7.75l4.05 4.25 2.55-1.9v-4.9q-.65-6.55 1.75-12.8 1.05-2.85 2.75-5.65l.4-.65m-32.3.9q-2.45 3.3-5.15 4.1l-2.55.2m-3.8 21.45-7.5 14.95-.05 1.5q-1 16.85 1.65 32.4l-1.6 4.35-5.05 7.4v7.3l.95-.95 17.45-20.25v3.7l7.85 9.2 1.05 3.25 2.4-4.2 2.95-2.75 8.7-20.55 3.55-13.55q-.85-2.85-1.15-5.75l-.15-3.3q-.05-4.75 1.3-9.65l-5.35 1.45q-1.9 1.85-4.2 3.25l-.95.55q-3.95 2.2-8.95 3.3-5.25-.25-8.4-2.8-.9-.75-1.65-1.7-2.2-2.75-2.85-7.15-.4-2.55-.3-5.65m.25 16.8-.7 4.65q-2.15 16.4.7 32.8M120 255.3l.95-.5m6.3 47.75q6.7-14.35 10.2-31.3l-1.85-6.1m38.5-22.05q-3.65 3.2-7.65 4l-3.2.3m-17.45 6.8-1.95 3.3-2.05.55m-5.35 1.45 2.35-2.65.95-1.3q1.7-3 2-5.6m22.1.85q2.95.85 5.75 2.85l.25.15 8.1 4.7m-39.55-80.1v1.75l-1.85.95m-52.4 32.7-1.2-1.35-1.15-1.4-.35-.5-.95-1.35-.3-.45-.05-.1h-.05m-45.15 33.9-.95.75q-.25.2.2 1.1l.6 1.15.6.8.55.7L37 248.1l.85.5.15-.1.9-.65m-.9.65-.05.1h-.1m2.1 2.7q-.45.25-1.95-1.1l-.9-.9-1.3-1.45-1.15-1.35-1.25-1.9-.3-.45-1.1-1.95q-.9-1.85-.5-2.2m65.4 82.85v.15l.95-1.1m31.7-11.05 2.75 8.45q1.05 6.5 0 11.5l-3.45 10.75-1.6 2.6-4.5 9.55-4.75 1.6-7.2 1.7-11.2 1.25-12.7-4.15-2.15-7.65v-6.8l4.5-5.7v-3.55l7.65-7.55m23.7 10.1v2.2l-9.05 7.05h-5.25l-6.45-4.1-4.75 5.45h-2.7m34.85.6v-7.8q-2.3-3.85-6.2-6.6-3.25-2.25-7.55-3.8l-1.65-.55-1.45-.45h3.35l-2.95-2.35-.2.05-4.7 1.35q-3.1 1-6 2.25-3.4 1.4-6.45 3.2l-1.1.65-3.1 3.85m70.8-17.9h5.35l5.55-3.25 3.8-.7m-15.25 10.65 1 3.15v-3.85q.3-4.35 5.3-4l.65.05q3.2-.9 4.9 2.9 1.65 2.75-1.85 4.9h3.75l2.2-2.35 6.9-4m-12.85 6.35h-9m-36.3-8.1 2.65 8.1m5.45 4.9q-4.45.85-3.45-7 1.7-5.4 3.45-4.5m46.85-233.95-7.65-1.2m-.7-6 8 1.85"/><path stroke-width=".25" stroke-opacity=".424" stroke-linejoin="round" stroke-linecap="round" stroke="#000" fill="none" d="m253.95 89.5-4.35-.1m-1.8 1.35q.35 1.7 1 3.75-4.05 1.35-5.9 4.6-1-1.6-1.75-3.35-1.45-3.05-2.05-6.65l-.4-2.4q4-.65 7.55-4.45l.35 1.2m-83-15q1.05 1.6 2.1 1.4l.75-.1h.05l1.65-.1 1.9.35.55.25 3.95 1.8q.75.3 1.5 1l.5.5 1.2 1.6.15.25.25.4.25.8.15.6q.35 1.3.3 2.4l-.05.4m76.3-4.35 1.35.35m-76.85 4.2v.35l1.35 1.5v2.1l1.7 12.95m65.15-6.35q-.45-2.3-.35-4l-.85-3.3m-67-2.9v.15l-.35 4.3-.1.3.15.3q1.1 2.45 1.55 4.65.4 2.15.15 4l-.4 1.75v.15l-.05.15-5 2.35-1.55.05h-37.6l-5.4-1.25h-.05l-.55-.55-.1-.15q-.5-.6-.85-1.35l-.25-.55-.3-1.2q-.6-2.7-.6-5.35 0-2.65.6-5.3l.6-.3-1.05-2.2h-.05l-.3.1-.05-.05-2.45.6-.05 14.8v.95l.3 2.25v.7l.1 3.9-.4 3-.3.35m2.1 33.1.85.35.65.2 4.7 1.3 1.6.4h.25l5.75 1.1 2.35.4 7.55.75 6.85.3 7.2.3m8.4-6.15-2.7-.1-29.05-1.8-.85-.1-3.6-.35-.8-.1-4.85-4.6-.15-.35-.8-2.15-.15-.35q-1.45-4.35-.6-6.3.45-1.1 1.7-1.4l3.9-1.6h42.95l2.35 1q1.9 1.1 3.05 3.05.4 2.15.3 4.25-.05 1.7-.45 3.35l-.55 1.7m-4.05-48v.05l-.05.3m-7.75-1.25-.05-.05.05-.05.15-.15-.7-6-.55.1.15 1.95v.3q-.3-.85-.95-.45l-8.3-1h-.75q-6.5-.45-13.1.1h-.2l-5.45.6-1.05.15m-8.95 7.1-.2-.5-1.95-3.8m48.85 1.05-6.25-1.1V79.5l6.25 1.5v2.75m3.9 19q.85 1.85.8 5.6-.1 2.25-.55 4v.05q-.6 2-1.75 3.2l-.15.2q-.5.45-1.05.75l-3.5.3h-.15l-4.45.35-.45.05-9.75.5q-10.6.3-21.3-.1l-1.15.05-2.95-.4-1.05-.4-.1-.05-1.1-.55q-1.35-.85-2.4-2.2l-1.4-3.45-.05-.2-.15-.35-.2-.5-.5-1.6q-.75-2.5-.8-4.1 0-1.8.85-2.5.4-.4 1.05-.5l.65-.05 5.9-.45 2.25-.15 1.35-.1.85-.05 8.9-.25 2.85-.05q7.35-.05 14.75.3l6.4.4 5.5.4q1.9-.05 2.85 1.85m1.1 40.5-1.25.3-6.35 1.15-.55.1m-16.8 96.5-.85-6.65m-22.5-165.4 1.15-.75.15-.2q1.1-1.05 1.6-2.65m-9.5 14.85-.1-.15-4.7-5.1-.05-.15-.05-.05-.2-.25-1.9-2.35-.35-.45m-.05-.05.25.7-9.4 3.15m11.55 2.65 3.25 1.05 1.35 1.05m7.05-11.05 1.25 2.2v.1l.2.35 1.7 3.55.65 1.55.85.35.7-.15 1.75-.3 4.8-.55.95-.1h.1q5.5-.35 11.45.25l1.25.2.65.05 6.55 1.1 1.4.15h.9l-.2-1.35q-.35-2.1-1.5-3.9l-2.85-3.15m-30.65-.4v-.2m4.7 8.4.7-.2m37.9 18.5-11.9.6-15.05.15-5.4-.1-3.9-.1-.7-.05-1.05-.05-1.25-.05-7.75-.4m2.75 19.4 1.05.05 1.25.05.55.05 1.7.05q9.25.3 18.5.1l9.3-.3h1.15l.95-.05 2.5-.15 8.4-.55m-51-34.1-.1-.15m1.2 68.3-.9-.8m49.25-11.9-2.3.1h-2.1l-5.25.1-26.35-1.35-.75-.1-1.6-.15-3.45-.4m39.8 5.05h-1.4l-.95-.05h-.05m-60.75 55.3-.05.15-.05.1-1.4 5.6-1 4.1-1 4.45-.7 3m69.35-75.9 2-.1"/><path stroke-width="1.25" stroke-linejoin="round" stroke-linecap="round" stroke="#242424" fill="none" d="M354.4 32.75q.3 6.55-15 25.2-12 14.6-33.6 36.6-32.7 25.25-50 24.8l-.9-1.2 9.4-7.1q5.65-5.7 10.8-11.5 5.15-5.85 9.8-11.8l2.45-3.15 2.35-3.25 1.9-2.65-1.85-7.05q-7.4 4.25-14.5 5.35-6.5.85-9-1.85l.45 2.95-6.7 5-.75-.95-.75.55.1.3q-3.3 2.2-4.65 6.5-1.4-.6-2.6-1.45l-3.55 2.7q.35 1.7 1 3.75-4.05 1.35-5.9 4.6-1-1.6-1.75-3.35l-12.25 8.9 1.9 4.25v3.8l-4.1 3.3-3.3 10.05-2.1 1.05q-.1 2.2-1.95 3.6l-4 3.55-1.1 2.75-3.3 1.4-4.45 3.85.05.15-1.85 2.85q-1.65 3-2.1 6.15l-5.9-5.75q-3.25-.4-6.3-2.15l-2.85-2-.4-.3-1.2 7.85h-.05l.05.05.05.5 2.25.35q1.5 5.4.6 9.8l-.6 2.15-2.55-.1 4.35 9.2q4.4 14.55 7.25 29.3l1.05 6 .55 3.35q1.05 6.8 1.75 13.65l-5.5 1.55-1.15 4.45v8.05l-.65.85 11.4 9.35-11.35 4.05.35 1-.6 1.35.05 12.65-3.45 9q-.6 9.4-3.95 16.9l-.7 7.35.55-3.1 1.5-.8 8.45 18.6-1.9.65 15 10.15q2.75 3 6.1 0h1.15L212 332.8l-5.85 4.9-4.85 1.7-17.1-3.45-9.55-5.55-6.1 1.85-8.05-3-.5-3.25.5-.1-1.95-6.25 1.5-3.6h.45v-1.1h-.45v-1.75l4.25-9.2.3-1.65q1.45-9.1-3.05-17.75-5-9.6-3.45-18.6l.75-3.15.15-.55 4.85-11.5-2.4-.5 1.8-2.9-4.5-3.2-1.8-14.3.05-1.4-3.75-.2-.4.65q-1.7 2.8-2.75 5.65-2.4 6.25-1.75 12.8v4.9l-2.55 1.9-1.95 3.3-2.05.55q-1.35 4.9-1.3 9.65l.15 3.3q.3 2.9 1.15 5.75l-3.55 13.55-8.7 20.55 2.75 8.45q1.05 6.5 0 11.5l-3.45 10.75-1.6 2.6-4.5 9.55-4.75 1.6-7.2 1.7-11.2 1.25-12.7-4.15-2.15-7.65v-6.8l4.5-5.7v-3.55l7.65-7.55v.15l.95-1.1h-.95v-6.35l5.05-7.4 1.6-4.35q-2.65-15.55-1.65-32.4l.05-1.5 7.5-14.95q-.4-2.55-.3-5.65l-3.3-5.3 1.8-2.15 1.9-3.15v-25.2l-1-1.65.7-3 1-4.45 1-4.1 1.4-5.6.05-.1.05-.15-.15.1-4.85 4-2.1 1.75-18.6 15.55q-.5.2-1.9-1.15l-.9-.8-.1-.1-45.25 34.05.6 1.2q.9 1.85.45 2.25Q25.2 265.6 9.5 273.8l-.8.6-1.65-.95-.95-.8-2.5-2.85q-1.75-2.35-2.55-4.3-.8-2-.25-2.45 12.65-12.7 30.7-23.05h.05q.4-.35 1.95 1.05l1.45 1.5 45.1-33.85.05.05 1.35 1.8-.95-1.35-.3-.45-.05-.1h-.05l-.95-1.9q-.85-1.75-.55-2.15l6.65-4.3 28.05-18.65 2.35-1.6-2.05-2.9-2.55-2.7-4.85-10.85-1.55-4.85-3.2-5.75q-1.1.55-2.15.6l-1.6-.25q-3.1-1.25-5.75-7.5-1.95-4.6-.35-9.15.8-3.5 1.9-5.75 1.85-3.85 4.6-4.45l1.45-.05 2-18.65-2.9-1.7-.35-.6-.2-.7-.85-2.55.05-.25.7-2.35q.7-2.1 1.55-4.05 1.9-4.45 4.65-8.6l.85.05.15-1.15q2.45-6.3 6.7-10.1l9.4-3.15-.25-.7q-.3-1.7.05-2.1.3-.4 3.25-2.2 2.5-1.55 7.45-1.45l1.7.05 1.55 3 1.15-.75.15-.2q1.1-1.05 1.6-2.65l1.3-4.55-1.2 1.65.05-1.95-3.9-.95-.7 1.65-1.65 2.5q-2.95.15-6.1-1.25-3.95-1.7-8.3-5.75l7.05-7.75 1-.7q-2.65-3.4-2.3-7.85-4 3.4-3.2 10.3l-3.25-2.3q-.75-6.4 1.05-10.6-4.5-1.55-8.05-2.95-13.1-5.2-14.2-9.15.25-4.1 1.6-7.95 2.2-6.75 7.6-12.95 5.15-6.05 6.85-3.95-5.6 8.7-5.6 15.45 6.05 5.85 16.5 8.6l.3-2.2h-2.1l1.95-3.8q-.95-2.3-4.5 0 4.45-7.65 10.45-2.05 10.3-17.2 26.2-15.2l.2.05 3.85.25q5.15 1.35 10.9 8.05l1.25 1.45 4.15 5.75 3.6 1.15q2.1.6 3.35 2.5l7.55 2.65q3.75.1 3.4-6.55l-2.6-12.15 12.1 15.25q1.4 7-2.95 11.25l-7.9 4.6-4.35 1.2-.05 2.6-1.6-2-3.8 1.3q.9 1.6 1.15 3.25.25 1.9-.5 3.75l-1.65 2.3-1.6-1.55.8 1.9q3.5 7.65 10.5 13.4l-3.4 1.8-13-4.1-5.25 1.75h-1.35l-1.75 3.7-.15.15.05-3.9-2.2-.05-1.2 1.15 1.25 5.6q1.05 1.6 2.1 1.4l.75-.1h.05l1.65-.1 1.9.35.55.25 3.95 1.8q.75.3 1.5 1l.5.5 1.25.2 8.95 1.55.8.45 1.95 1.15q3.45 2.2 5.05 4.7l.5.85q.85 1.8.8 3.75l-.05.75 1.9.55 1.45.3.2.8q.3 1.3.75 2.5l1.95 3.55-1.9 1.3 5 6.15 1.35-.65h-.05l1.85-.25 1.5.2h.25l.05-4.35 2.85-2.2 10.3 1.85q2.35.55 3.4 2.2l12.45-9.8-.4-2.4q4-.65 7.55-4.45l.35 1.2.5-.4-.1-1.3q3.95-1.8 8.1-6.1l.75.85 1.4-1.05-.35-.4 1.25-.6q1.95-1.1 4.65-3.75.9.15 1.6.8-.15-2.55 2.15-6.05l.95-1.4 1.8-2.2.85-1v-.05l-1.85-2.35q2.45-5.7.45-11.95 8.1 1.05 19.2-2.55l-2.4 5.1q-3.25 1.7-6.4 4.1 5.2-3.6 10.55-5.85l3.8-1.4q4.8-1.55 8.15-1l1.4.25h.15q4.25-4 4.75-9.2l43.1-26.65Q331.4 26.5 318.7 42.95L306.1 48l1 1.6q.35 1.45-.05 3.45-1.5 5.95-8.75 12.45 3.05 2.3 8.35 1.65l10.1-3.55 22.1-16.65 15.3-15.55.25 1.35z"/></g><path fill-rule="evenodd" fill-opacity="0" fill="#f0f" d="M100 40H0V0h100v40" id="a"/><use xlink:href="#a" width="100" height="40" id="c"/></defs><path fill="none" d="M-1-1h259v262H-1z"/><g><use x="140.479" y="216.5" xlink:href="#b" width="381" transform="translate(-192.55 -294)" height="381"/><use x="73.642" y="113.493" xlink:href="#c" width="100" transform="translate(-94.65 -223.5) scale(1.9076)" height="40"/><use x="71.887" y="-107.332" xlink:href="#d" width="355" transform="matrix(-.7174 0 0 .7174 307.38 78.047)" height="358.85"/></g></svg>