<svg width="71" height="72" xmlns="http://www.w3.org/2000/svg" xmlns:xlink="http://www.w3.org/1999/xlink"><defs><linearGradient y2="-207.505" y1="19.905" x2="-4.626" x1="-8.182" spreadMethod="pad" id="a"><stop stop-opacity=".902" stop-color="#018bad" offset="0"/><stop stop-opacity=".502" stop-color="#ebf9fa" offset="1"/></linearGradient><linearGradient y2="-112.446" y1="-3.22" x2="19.857" x1=".197" spreadMethod="pad" id="b"><stop stop-opacity=".8" stop-color="#acdef0" offset="0"/><stop stop-opacity=".502" stop-color="#ebf9fa" offset="1"/></linearGradient><linearGradient y2="-78.345" y1="-8.987" x2="9.276" x1="1.31" spreadMethod="pad" id="c"><stop stop-opacity=".8" stop-color="#229ab7" offset="0"/><stop stop-opacity=".502" stop-color="#7cd8dc" offset="1"/></linearGradient><linearGradient y2=".977" y1=".178" x2=".631" x1=".189" spreadMethod="pad" id="d"><stop stop-color="#ffff52" offset="0"/><stop stop-color="#ffe300" offset="1"/></linearGradient><linearGradient y2=".067" y1=".9" x2=".881" x1=".12" spreadMethod="pad" id="e"><stop stop-opacity=".651" stop-color="#ffffba" offset="0"/><stop stop-opacity=".702" stop-color="#ffff52" offset=".322"/><stop stop-color="#ffe300" offset="1"/></linearGradient><linearGradient y2=".12" y1=".833" x2=".772" x1=".26" spreadMethod="pad" id="f"><stop stop-opacity=".651" stop-color="#ffffd5" offset="0"/><stop stop-opacity=".702" stop-color="#ffff52" offset=".478"/><stop stop-color="#ffe300" offset=".969"/></linearGradient><g id="i"><path stroke-opacity="0" stroke-linejoin="round" stroke-linecap="round" stroke="#f0f" fill="none" d="M187.95-293.5v380h-380v-380h380M92.95.6H-97" transform="translate(192.55 294)"/><path stroke-opacity="0" stroke-linejoin="round" stroke-linecap="round" stroke="#f0f" fill="none" d="m187.95-293.5-190 190 190 190m-380-380 190 190L-192 86.5" transform="translate(192.55 294)"/><path fill-rule="evenodd" fill="url(#a)" d="m-13.15-54.1.35.15-.45-.15h.1m-2 .2.05-.05h.05l-.1.05m.1 0 .1.05-.15-.05h.05" transform="translate(192.55 294)"/><path fill-rule="evenodd" fill="url(#b)" d="M-15.05-53.95h.1v.1l-.1-.05.1-.05-.1.05h-.1l.1-.05m.6-.2 1.15.05-.2.05-.95-.1" transform="translate(192.55 294)"/><path fill-rule="evenodd" fill="url(#c)" d="m-12.8-53.95-2.15.1-.2-.05h-.1l-.45-.1.55.1h.05l.15.05v-.1l.5-.2.95.1-1.35.1h-.1.1l1.35-.1.2-.05h.05l.45.15h-2.05 2.05" transform="translate(192.55 294)"/><path fill-rule="evenodd" fill="url(#d)" d="M-31.95-101.45q-.35-7.95 1.5-5.65l8.65 11.5 1.75 9.05q2.2 8.5 1 14.5-.7 3.25-2.35 5.8-4.8 7.1 3.5 10.9l2.8 1.4-.05.05-.55-.1q-4.45-1.05-7.25-3.75-1.3-1.2-2.2-2.75l-3.45-6.05-.6-.65-2.7-2.55q-3.55-3.35-1.1-8.65 2.4-5.35 2.05-11.8-.4-6.5-1-11.25m2.3 21-2.4 4.15q-.35 1.8.45 2.9l7.4 7.8-3.7-6.1-1.5-3.3q-1.15-2.1-.25-5.45" transform="translate(192.55 294)"/><path fill-rule="evenodd" fill="#ffffc8" d="m.2-116.65 11.65-5.45q3.2-1.15 6.35 5.45 1.35 2.8 9.3 5.25-5.75-.95-11.35-2.65-5.8-1.75-18.25-1.2l-4.55.15q4.55-.55 6.85-1.55m29.25 5.25q4.95 1.8 3.75 9.65l-.2 1.3q-1.8-3.4-12.55 1.95-10.7 5.3-18.3 2.9-4.75-2.3-8.35-1.65-3.85.75-5.5 1.95-1.7 1.2-3.05 1.55-3.7.15-3.1 6.85.55 7.05.5 9.05.45 2.9.25 5.7-.25 2.8-1.2 5.5-3.5 7.2.4 11.3-8.3-3.8-3.5-10.9 1.65-2.55 2.35-5.8 1.2-6-1-14.5l-1.75-9.05-8.65-11.5q-1.85-2.3-1.5 5.65-1.4-10.2.2-12.85 1.9-2.45 12.05-1.7-11.25.95-10.15 6.55Q-26-100-21.65-98.6l5.65 1.85h.45q1.95-.1 3.7-1.55 1.75-1.5 4.2-1.65 2.2-.25 4.7.5l4 1.45q1.75.75 4.3 1.05 2.7.2 6.15-.9 3.55-1.05 12.1-6.25 8.6-5.2 5.85-7.3m-3.8 34.25q1.15-.8 1.8 2.25.6 3-3.6 3.1L21.8-72l-1.15-.85q0-.4.35-.9 1.35-1.95 2.45-2.25 1-.35 2.2-1.15m-55.3-3.3q-.9 3.35.25 5.45l1.5 3.3 3.7 6.1-7.4-7.8q-.8-1.1-.45-2.9l2.4-4.15m20.55 13.8q-7.25-1-6.45-2.95 3.3-3.05 6.75-.15 3.45 2.85-.3 3.1" transform="translate(192.55 294)"/><path fill-rule="evenodd" fill="url(#e)" d="M-17.9-55.35q-3.9-4.1-.4-11.3.95-2.7 1.2-5.5.2-2.8-.25-5.7.05-2-.5-9.05-.6-6.7 3.1-6.85 1.35-.35 3.05-1.55 1.65-1.2 5.5-1.95 3.6-.65 8.35 1.65 7.6 2.4 18.3-2.9 10.75-5.35 12.55-1.95-3.1 10.85-2.1 16.55.95 5.6 2.7 10.3 1.75 4.65-2.6 9.25l-.7.55q-.4.65-1.5 1.15l-.05.05-.2.15-1.2.4-.15.1L24-61q-3.35.9-7.6 1.5h-.05l-6.4 3.75-7.65-.55h-.1l-15.35 2.2h-.15l-1.15-.05-.5.2h-.15l-2.8-1.4m43.55-21.8q-1.2.8-2.2 1.15-1.1.3-2.45 2.25-.35.5-.35.9l1.15.85 2.05.2q4.2-.1 3.6-3.1-.65-3.05-1.8-2.25M16.4-59.5l2.95-2.5-2.95 2.5m-25.5-7.15q3.75-.25.3-3.1-3.45-2.9-6.75.15-.8 1.95 6.45 2.95m5.65 9.7 5.65.65-5.65-.65" transform="translate(192.55 294)"/><path fill-rule="evenodd" fill="url(#f)" d="M.2-116.65q-2.3 1-6.85 1.55l4.55-.15q12.45-.55 18.25 1.2 5.6 1.7 11.35 2.65-7.95-2.45-9.3-5.25-3.15-6.6-6.35-5.45L.2-116.65m29.25 5.25q2.75 2.1-5.85 7.3-8.55 5.2-12.1 6.25-3.45 1.1-6.15.9-2.55-.3-4.3-1.05l-4-1.45q-2.5-.75-4.7-.5-2.45.15-4.2 1.65-1.75 1.45-3.7 1.55H-16l-5.65-1.85q-4.35-1.4-8.2-10.85-1.1-5.6 10.15-6.55 15.25.1 23.2-4.25 7.9-4.35 10.1-3.75 2.2.6 5.5 4.65 3.3 4.05 6.65 5.55l3.7 2.4" transform="translate(192.55 294)"/><path stroke-width=".05" stroke-linejoin="round" stroke-linecap="round" stroke="#ebb601" fill="none" d="m225.55 193.55.2-1.3q1.2-7.85-3.75-9.65m-49.15-4.6q-10.15-.75-12.05 1.7-1.6 2.65-.2 12.85m64.95 1q-3.1 10.85-2.1 16.55.95 5.6 2.7 10.3 1.75 4.65-2.6 9.25l-.7.55q-.4.65-1.5 1.15l-.05.05-.2.15-1.2.4-.15.1-3.2.95q-3.35.9-7.6 1.5h-.05m-14.15 3.2-15.35 2.2m-2.55.1q-4.45-1.05-7.25-3.75-1.3-1.2-2.2-2.75l-3.45-6.05-.6-.65-2.7-2.55q-3.55-3.35-1.1-8.65 2.4-5.35 2.05-11.8-.4-6.5-1-11.25M172.85 178q15.25.1 23.2-4.25 7.9-4.35 10.1-3.75 2.2.6 5.5 4.65 3.3 4.05 6.65 5.55l3.7 2.4m-44.5 57.45h.1l.5-.2 1.15.05h.15m-1.8.25v-.1l-.1.05h-.05l.15.05m-.2-.05.1-.05m-.1.05h.05m.15-.05h.1l1.35-.1m.7.1-.45-.15m-.05 0-.2.05m-1.35.1h2.05m-2.9-.05.55.1"/><path stroke-width=".05" stroke-linejoin="round" stroke-linecap="round" stroke="#f9c000" fill="none" d="m208.9 234.5-6.4 3.75-7.65-.55h-.1l-5.65-.65m22.8-5.05-2.95 2.5"/><path fill-rule="evenodd" fill="#38a8ad" d="m23.4-97.5.1.15q-.25.05-.4.25l.15-.25.15-.15m-.4.9h-.05v-.05l.05-.25v.3M11.4-67.85h-.15l.15-.55v.55M5.85-72.1l.05.1-.2.15.15-.25m-.25.75h-.05l.05-.25v.25M-11.2-61h-.1l.1-.4v.4" transform="translate(192.55 294)"/><path fill-rule="evenodd" fill="#fff" d="m23.5-97.35.5.1.3.45-.1.45q-.15.2-.4.25l-.5-.1-.3-.4v-.3l.1-.2q.15-.2.4-.25M11.6-68.8l.8-.5 1 .25.5.8q.1.5-.15.9-.3.4-.85.5l-.95-.2q-.45-.3-.55-.8v-.55l.2-.4M5.9-72l.25-.1.5.15.3.4-.1.5-.45.25-.5-.1-.3-.45v-.25l.1-.25.2-.15m-7.65-1.7.25-.05.5.1.25.45q.05.25-.05.45l-.45.3-.5-.15-.3-.4v-.3l.1-.2.2-.2m-8.65-20.6.8-.45.95.2q.4.3.5.8.1.45-.15.85l-.8.5-.95-.2q-.45-.3-.5-.8v-.5l.15-.4m-.65 32.6.6-.35.7.15.4.6q.1.35-.1.7l-.6.35-.75-.15-.4-.6v-.4l.15-.3" transform="translate(192.55 294)"/><path fill-rule="evenodd" fill="#86cfd9" d="m-1.8-73.75.05.05-.2.2.15-.25m-.25.75h-.1l.1-.3v.3m-8.5-20.4h-.15l.15-.5v.5" transform="translate(192.55 294)"/><path fill-rule="evenodd" fill="#ffc800" d="m23.4-97.5 1.3-.7q.9-.1 1.75.45.8.55 1 1.45.25.9-.25 1.6-.5.7-1.45.85-.95.1-1.75-.45t-1-1.45q-.15-.45-.05-.85H23l.3.4.5.1q.25-.05.4-.25l.1-.45-.3-.45-.5-.1-.1-.15m-12 29.65q.1.5.55.8l.95.2q.55-.1.85-.5.25-.4.15-.9l-.5-.8-1-.25-.8.5.3-.5q.95-1.4 2.8-1.65 1.85-.2 3.5.9 1.6 1.05 2 2.85.5 1.8-.45 3.2-1 1.4-2.9 1.65-1.85.25-3.5-.85-1.6-1.1-2-2.95-.25-.9-.1-1.7h.15M5.9-72l-.05-.1q.5-.75 1.5-.85.95-.1 1.8.45.8.55 1.05 1.5.25.9-.25 1.65-.55.75-1.5.85-1 .15-1.8-.4-.85-.6-1.05-1.55l-.05-.9h.05l.3.45.5.1.45-.25.1-.5-.3-.4-.5-.15-.25.1m-16.95 10.3.2-.35q.75-1.05 2.1-1.2 1.35-.15 2.55.65 1.15.75 1.5 2.05.35 1.35-.35 2.4-.75 1-2.1 1.2-1.4.15-2.6-.65-1.15-.8-1.5-2.15L-11.3-61h.1l.4.6.75.15.6-.35q.2-.35.1-.7l-.4-.6-.7-.15-.6.35" transform="translate(192.55 294)"/><path fill-rule="evenodd" fill="#fff24b" d="M-1.8-73.75q.5-.75 1.5-.9.95-.1 1.8.5.85.55 1.1 1.5.2.9-.3 1.65-.5.75-1.5.85-1 .15-1.85-.4-.85-.6-1.05-1.55l-.05-.9h.1l.3.4.5.15.45-.3q.1-.2.05-.45l-.25-.45-.5-.1-.25.05-.05-.05m-8.75-19.65q.05.5.5.8l.95.2.8-.5q.25-.4.15-.85-.1-.5-.5-.8l-.95-.2-.8.45.3-.45q.9-1.35 2.7-1.6 1.8-.2 3.35.85 1.5 1.05 1.95 2.7.45 1.75-.5 3.1t-2.75 1.55q-1.8.25-3.35-.8-1.5-1.05-1.9-2.8-.25-.85-.1-1.65h.15" transform="translate(192.55 294)"/></g><g id="g"><path fill-rule="evenodd" fill="#fff" d="m-3.25 2.2-.3-.75q-.85-2.15-.6-4.4.2-2.3 1.4-3.35Q-1.6-7.4-.2-6.6q1.4.7 2.3 2.85l.05.25q0 3.5-1.8 5.3-1.75 1.75-3.6.4" transform="translate(4.2 6.95)"/><path fill-rule="evenodd" fill="#f2e7a7" d="M2.15-3.5q.75 2 .55 4.15Q2.45 2.9 1.25 4 .1 5.05-1.3 4.35-2.45 3.7-3.25 2.2q1.85 1.35 3.6-.4 1.8-1.8 1.8-5.3" transform="translate(4.2 6.95)"/><path stroke-width=".05" stroke-linejoin="round" stroke-linecap="round" stroke="#fec849" fill="none" d="m.95 9.15-.3-.75Q-.2 6.25.05 4q.2-2.3 1.4-3.35Q2.6-.45 4 .35q1.4.7 2.3 2.85l.05.25q.75 2 .55 4.15-.25 2.25-1.45 3.35Q4.3 12 2.9 11.3 1.75 10.65.95 9.15z"/><path fill-rule="evenodd" d="M.4-1.15q-.1.35-.35.4l-.55-.4-.25-.75.05-.8q.15-.3.45-.3l.45.3.3.8-.1.75" transform="translate(4.2 6.95)"/></g><g id="k" fill-rule="evenodd"><path fill="#38a8ad" d="M-28.8-94.3h-.05l.05-.2v.2" transform="translate(28.9 115.4)"/><path fill="#fff" d="M-28.45-103.35q.3-.4.8-.45l.95.2.5.75q.1.5-.2.9-.3.4-.75.45l-.95-.2-.5-.75v-.5l.15-.4m1.3 23.9.85-.5 1 .2q.4.3.5.85.1.5-.15.9-.3.4-.85.5l-1-.2q-.45-.3-.5-.8v-.55l.15-.4M-28.7-94.7q.1-.2.35-.2l.45.1.25.35-.1.4-.35.2-.45-.1-.25-.35v-.2l.1-.2" transform="translate(28.9 115.4)"/><path fill-opacity=".6" fill="#ffc300" d="M-28.6-102.95v.5l.5.75.95.2q.45-.05.75-.45t.2-.9l-.5-.75-.95-.2q-.5.05-.8.45l.3-.45q.95-1.35 2.7-1.6 1.8-.2 3.3.85 1.55 1 1.95 2.7.45 1.75-.45 3.1-.95 1.35-2.75 1.55-1.8.25-3.35-.8-1.5-1.05-1.9-2.8-.25-.9-.1-1.65l.15-.5m1.45 23.5.3-.5q1-1.45 2.85-1.7 1.85-.2 3.5.9 1.6 1.1 2.05 2.85.5 1.85-.5 3.25-1 1.45-2.85 1.65-1.9.25-3.55-.85-1.6-1.1-2.05-2.95-.25-.9-.05-1.75l.15-.5v.55q.05.5.5.8l1 .2q.55-.1.85-.5.25-.4.15-.9-.1-.55-.5-.85l-1-.2-.85.5M-28.7-94.7l.15-.2 1.25-.75q.8-.1 1.5.4.7.45.9 1.25.2.8-.2 1.4-.45.65-1.25.75-.85.1-1.55-.4-.75-.45-.9-1.25l-.05-.8h.05l.25.35.45.1.35-.2.1-.4-.25-.35-.45-.1q-.25 0-.35.2" transform="translate(28.9 115.4)"/><path fill="#86cfd9" d="M-2.15-112.6v-.05l.05-.25v.3h-.05" transform="translate(28.9 115.4)"/><path fill="#fff" d="M5.25-111.75q.5-.7 1.35-.8l1.6.35q.7.5.9 1.35.15.85-.3 1.5-.5.7-1.35.85-.9.15-1.65-.35-.7-.5-.85-1.35-.15-.45 0-.85l.3-.7m-7.35-1.15.1-.2.4-.25.5.15.25.4q.05.2-.05.45l-.45.25-.5-.1-.25-.4v-.3m-18.9 1.25.15-.35.7-.45.85.2.45.7q.1.45-.15.8-.25.35-.7.45l-.85-.2q-.4-.25-.45-.7v-.45" transform="translate(28.9 115.4)"/><path fill="#ffffc1" d="m-2-113.1.15-.25q.5-.7 1.45-.85.9-.1 1.75.5.8.5 1 1.4.25.9-.25 1.65-.5.7-1.45.8-.95.15-1.75-.4-.85-.55-1.05-1.5v-.85h.05l.25.4.5.1.45-.25q.1-.25.05-.45l-.25-.4-.5-.15-.4.25m-18.85 1.1.25-.45q.85-1.2 2.45-1.45 1.65-.15 3.05.8 1.35.9 1.75 2.45.4 1.55-.45 2.8-.85 1.2-2.5 1.4-1.6.2-3-.7-1.4-.95-1.75-2.55-.25-.8-.1-1.5l.15-.45v.45q.05.45.45.7l.85.2q.45-.1.7-.45.25-.35.15-.8l-.45-.7-.85-.2-.7.45" transform="translate(28.9 115.4)"/><path fill-opacity=".6" fill="#ffd447" d="m5.25-111.75.5-.8q1.6-2.35 4.65-2.8 3.1-.3 5.75 1.5 5.6 6.9-1.95 12.7h-.25q-3.1.45-5.8-1.35-2.6-1.8-3.3-4.8-.45-1.55-.15-2.9l.25-.85q-.15.4 0 .85.15.85.85 1.35.75.5 1.65.35.85-.15 1.35-.85.45-.65.3-1.5-.2-.85-.9-1.35l-1.6-.35q-.85.1-1.35.8" transform="translate(28.9 115.4)"/><path fill-opacity=".6" fill="#e6bf40" d="M14.2-101.15q7.55-5.8 1.95-12.7 2.65 1.8 3.4 4.7.75 3-.85 5.35-1.6 2.25-4.5 2.65" transform="translate(28.9 115.4)"/></g><use xlink:href="#g" width="6.95" height="11.6" id="j"/><use xlink:href="#h" width="102.95" height="45" id="l"/><path fill-rule="evenodd" fill-opacity="0" fill="#f0f" d="M0 0h102.95v45H0V0" id="h"/></defs><path fill="none" d="M-1-1h73v74H-1z"/><use x="35.252" y="124.892" xlink:href="#i" width="381" transform="translate(-192.55 -294)" height="381"/><use x="45.477" y="31.808" xlink:href="#j" width="6.95" transform="matrix(-.2372 2.8151 1.4474 -.0984 4.387 -92.04)" height="11.6"/><use xlink:href="#j" width="6.95" transform="matrix(-.2565 3.043 1.6676 .0279 22.789 31.667)" height="11.6"/><use x="35.252" y="124.892" xlink:href="#k" width="48.7" transform="translate(-28.9 -115.4)" height="42.45"/><use x="-86.763" y="-101.952" xlink:href="#l" width="102.95" transform="matrix(1.8072 0 0 1.6538 96 166.6)" height="45"/></svg>