<svg width="271" height="258" xmlns="http://www.w3.org/2000/svg" xmlns:xlink="http://www.w3.org/1999/xlink"><defs><radialGradient spreadMethod="pad" r="819.2" id="e" gradientUnits="userSpaceOnUse" gradientTransform="scale(.0559)" cy="0" cx="0"><stop stop-color="#4bfed2" offset="0"/><stop stop-opacity="0" stop-color="#4bfed2" offset="1"/></radialGradient><radialGradient spreadMethod="pad" r="819.2" id="i" gradientUnits="userSpaceOnUse" gradientTransform="matrix(.0069 .004 -.0024 .0042 -.15 .15)" cy="0" cx="0"><stop stop-color="#fff" offset=".329"/><stop stop-opacity=".6" stop-color="#fff" offset=".369"/><stop stop-opacity=".6" stop-color="#5bf0d2" offset=".439"/><stop stop-opacity="0" stop-color="#6cf1d6" offset=".851"/></radialGradient><radialGradient spreadMethod="pad" r="819.2" id="j" gradientUnits="userSpaceOnUse" gradientTransform="matrix(.0189 0 0 .0085 11.05 11.65)" cy="0" cx="0"><stop stop-opacity=".153" offset=".133"/><stop stop-opacity=".059" offset=".224"/><stop stop-opacity="0" offset=".459"/></radialGradient><radialGradient spreadMethod="pad" r="819.2" id="g" gradientUnits="userSpaceOnUse" gradientTransform="translate(10.9 38.7) scale(.0079)" cy="0" cx="0"><stop stop-color="#fff" offset=".329"/><stop stop-opacity=".6" stop-color="#fff" offset=".369"/><stop stop-opacity=".6" stop-color="#87f4de" offset=".439"/><stop stop-opacity="0" stop-color="#93f5e1" offset=".851"/></radialGradient><radialGradient spreadMethod="pad" r="819.2" id="h" gradientUnits="userSpaceOnUse" cy="0" cx="0"><stop stop-color="#fff" offset=".329"/><stop stop-opacity=".6" stop-color="#fff" offset=".369"/><stop stop-opacity=".6" stop-color="#87f4de" offset=".439"/><stop stop-opacity="0" stop-color="#93f5e1" offset=".851"/></radialGradient><g id="m" stroke-opacity="0" stroke-linejoin="round" stroke-linecap="round" stroke="#f0f" fill="none"><path d="M187.95-293.5v380h-380v-380h380M92.95.6H-97" transform="translate(192.55 294)"/><path d="m187.95-293.5-190 190 190 190m-380-380 190 190L-192 86.5" transform="translate(192.55 294)"/></g><g id="n"><use xlink:href="#a" width="93.1" transform="scale(.3118 .156) rotate(45 -152.79 254.24)" height="93.15"/><use xlink:href="#a" width="93.1" transform="scale(.3118 .156) rotate(45 -180.06 319.73)" height="93.15"/><use xlink:href="#a" width="93.1" transform="scale(.3118 .156) rotate(45 -207.33 385.221)" height="93.15"/><use xlink:href="#a" width="93.1" transform="scale(.3118 .156) rotate(45 -216.9 227.507)" height="93.15"/><use xlink:href="#a" width="93.1" transform="scale(.3118 .156) rotate(45 -244.17 292.998)" height="93.15"/><use xlink:href="#a" width="93.1" transform="scale(.3118 .156) rotate(45 -310.308 265.745)" height="93.15"/><use xlink:href="#a" width="93.1" transform="scale(.3118 .156) rotate(45 -337.578 331.236)" height="93.15"/><use xlink:href="#b" width="13.15" transform="matrix(1.9207 -.4106 0 .6033 28.831 40.632)" height="10.9"/><use xlink:href="#b" width="13.15" transform="matrix(2.6141 -.5588 0 .8127 49.935 51.224)" height="10.9"/><use xlink:href="#b" width="13.15" transform="matrix(1.7879 -.3822 0 .8127 37.571 54.84)" height="10.9"/><use xlink:href="#b" width="13.15" transform="matrix(4.1514 -.8874 0 1.628 9.486 62.191)" height="10.9"/><use xlink:href="#b" width="13.15" transform="matrix(3.1963 -.6832 0 1.0959 2.735 52.9)" height="10.9"/><use xlink:href="#b" width="13.15" transform="matrix(1.1919 -.2548 0 .5418 17.864 45.027)" height="10.9"/><use xlink:href="#b" width="13.15" transform="matrix(.0455 .0351 -.0761 .2118 44.164 49)" height="10.9"/><use xlink:href="#c" width="22.9" transform="matrix(1.1305 -.3413 0 .5009 41.45 45.55)" height="22.9"/><use xlink:href="#c" width="22.9" transform="matrix(-1.092 -.2926 .7096 -.4229 40.9 56.6)" height="22.9"/><use xlink:href="#c" width="22.9" transform="matrix(-1.2973 1.2973 -2.2277 -.3562 80.7 46.25)" height="22.9"/><use xlink:href="#c" width="22.9" transform="matrix(2.3461 -.1787 .5667 .8389 23.65 41.8)" height="22.9"/><use xlink:href="#d" width="14.15" transform="translate(33.4)" height="51.4"/></g><g id="a" fill-rule="evenodd"><path fill="#4bfed2" d="M21.15-21.2q3.7 3.7 3.7 8.9v24.65q0 5.2-3.7 8.85-3.6 3.65-8.8 3.65h-24.7q-5.15 0-8.85-3.65-3.65-3.65-3.65-8.85V-12.3q0-5.2 3.65-8.9 3.7-3.65 8.85-3.65h24.7q5.2 0 8.8 3.65" transform="translate(46.5 46.75)"/><path fill="url(#e)" d="M32.95-33.15Q46.6-19.5 46.6-.2q0 19.3-13.65 32.95Q19.35 46.4.05 46.4q-19.3 0-32.95-13.65Q-46.5 19.1-46.5-.2q0-19.3 13.6-32.95 13.65-13.6 32.95-13.6 19.3 0 32.9 13.6M21.15-21.2q-3.6-3.65-8.8-3.65h-24.7q-5.15 0-8.85 3.65-3.65 3.7-3.65 8.9v24.65q0 5.2 3.65 8.85 3.7 3.65 8.85 3.65h24.7q5.2 0 8.8-3.65 3.7-3.65 3.7-8.85V-12.3q0-5.2-3.7-8.9" transform="translate(46.5 46.75)"/></g><g transform="translate(-2.15 1.35)" id="d"><use xlink:href="#f" width="12.2" transform="translate(4.1 .2)" height="49.85"/><use xlink:href="#b" width="13.15" transform="matrix(-.2667 -.7807 .2138 -.073 5.661 22.082)" height="10.9"/><use xlink:href="#b" width="13.15" transform="matrix(-.0025 -.3553 .3414 .2428 9.639 26.395)" height="10.9"/><use xlink:href="#b" width="13.15" transform="matrix(-.3161 -.4826 .2466 -.1501 8.961 34.809)" height="10.9"/><use xlink:href="#b" width="13.15" transform="matrix(-.004 -.5748 .5523 .3928 6.59 14.89)" height="10.9"/><use xlink:href="#b" width="13.15" transform="matrix(.1999 -.2497 .2721 .981 2.314 1.927)" height="10.9"/><use xlink:href="#b" width="13.15" transform="matrix(-.2113 -.3226 .1649 -.1003 11.309 24.513)" height="10.9"/><use xlink:href="#b" width="13.15" transform="matrix(.237 .005 .1597 .3602 10.384 32.385)" height="10.9"/></g><g id="f"><path fill-rule="evenodd" fill="#6ca69c" d="M12 19.95v2.95q-.15 7.55 1.6 14.9 1.95 1.45 2.55 2.55l.05.1-.5 1.7-2.7-.1q.6 2.45.45 4.9l1.05 1-.65 1.5q-.6.6-1 .45-.45.05-1.25-.8l-.95-1.2.9-.95q-.65-.25-1.45-6-3.8-2.1-4.3-4.4l-.2-1.8q.15-.2 2 0 .2-6-1.85-15.95L4.2 8.5q.65-3.35 0-8.2L7 4.8l2.85 6.15q.55 4.6 2.15 9m-1.9 21 2.9 1.1-2.9-1.1m4.4 7q-.95.9-2.1.75l-.2-.05-1.55-.75 1.55.75.2.05q1.15.15 2.1-.75M9.25 37.7H8.7l.15-.5-.2-.25-1.1-19.45-.15-1.15v-2q.05-.55-.1-.3.35-1.7-.3-3.85V4.8v5.4q.65 2.15.3 3.85.15-.25.1.3v2l.15 1.15 1.1 19.45.2.25.4.5h.05l4.25 1.6.05-1.5.2 1.6-.25-.1-4.85-1.6-.05-.75-.7-.85-.25-.2v-.4l-.1-.75h.1v.75l.25.6-.25-.6v-.75h-.1l.1.75v.4l.25.2.7.85.05.75 4.85 1.6.25.1-.2-1.6-.05 1.5-4.25-1.6h-.05l-.4-.5-.15.5h.55" transform="translate(-4.1 -.2)"/><path stroke-width=".25" stroke-linejoin="round" stroke-linecap="round" stroke="#5a7974" fill="none" d="M7.9 19.75v2.95q-.15 7.55 1.6 14.9 1.95 1.45 2.55 2.55l.05.1-.5 1.7-2.7-.1q.6 2.45.45 4.9l1.05 1-.65 1.5q-.6.6-1 .45-.45.05-1.25-.8l-.95-1.2.9-.95q-.65-.25-1.45-6-3.8-2.1-4.3-4.4l-.2-1.8q.15-.2 2 0 .2-6-1.85-15.95L.1 8.3Q.75 4.95.1.1l2.8 4.5 2.85 6.15M2.9 4.6V10q.65 2.15.3 3.85.15-.25.1.3v2l.15 1.15 1.1 19.45.2.25.4.5h.05l4.25 1.6.05-1.5.2 1.6-.25-.1-4.85-1.6-.05-.75-.7-.85-.25-.2v-.4l-.1-.75h.1v.75l.25.6m.9 1.1-.15.5h.55m1.4 10.2 1.55.75.2.05q1.15.15 2.1-.75m-1.5-5.9L6 40.75"/><path stroke-width=".25" stroke-linejoin="round" stroke-linecap="round" stroke="#556c67" fill="none" d="M5.75 10.75q.55 4.6 2.15 9l-2.15-9z"/><path fill-rule="evenodd" fill="#6ca69c" d="M7 10.2Q5.7 7.1 4.2 8.5q.7-3.35 0-8.2L7 4.8v5.4-5.4l2.85 6.15Q8.8 9.2 7 10.2" transform="translate(-4.1 -.2)"/><path fill-rule="evenodd" fill="#74b8a9" d="M4.4 9.85q2.15 5.55 2.9 4.2.2-.35.1.3v2q-.3 1.45-2.75-4.6l-.25-1.9" transform="translate(-4.1 -.2)"/><path fill-rule="evenodd" fill="#7bc9b6" d="M4.2 8.5Q5.7 7.1 7 10.2q.7 2.15.3 3.85-.75 1.35-2.9-4.2L4.2 8.5" transform="translate(-4.1 -.2)"/><path fill-rule="evenodd" fill="#6ba296" d="m7.85 24.8-1.1-2.7q-.25-.35-1-3.3l-1.1-7.05q2.45 6.05 2.75 4.6l.15 1.15.3 7.3m-.25 9.95h.1v.75l-.1-.75" transform="translate(-4.1 -.2)"/><path fill-rule="evenodd" fill="#5a7974" d="M7.3 14.05q.4-1.7-.3-3.85 1.8-1 2.85.75.5 4.8 2.15 9L7.55 17.5l-.15-1.15v-2q.1-.65-.1-.3M5.75 18.8q.75 2.95 1 3.3l1.1 2.7.8 12.15-.4-.45-.3-.4-.25-.2v-1.15h-.1q.2-6.2-1.85-15.95m2.2 17.3-.25-.6.25.6m.75 1.6.15-.5-.15.5-.05-.75.2.25.4.5H8.7" transform="translate(-4.1 -.2)"/><path fill-rule="evenodd" fill="#4d5b59" d="M12 19.95v2.95l-4.45-5.4L12 19.95" transform="translate(-4.1 -.2)"/><path fill-rule="evenodd" fill="#454545" d="m7.85 24.8-.3-7.3L12 22.9q-.15 7.65 1.6 14.9l.2 1.6-.25-.1-4.85-1.6h.55l-.4-.5-.2-.25-.8-12.15m5.5 20.3.1 1.8 1.05 1q-1.2.45-1.85-.95l.7-1.85m-2.7 2.75.5-.45.45-.55.2.25q-.6.25-.95.9l-.2-.15M9.25 37.7h.05l4.25 1.6-4.25-1.6h-.05m4.35.1-.05 1.5.05-1.5" transform="translate(-4.1 -.2)"/><path fill-rule="evenodd" fill="#5f8176" d="m7.95 36.1.3.4.4.45.05.75 4.85 1.6.25.1-.2-1.6q1.95 1.4 2.55 2.55-1.4.7-4.85-.4-2.75-1-4.4-2.7l-1.3-2.3v-.2q.15-.25 2 0l.1.75v.4l.25.2" transform="translate(-4.1 -.2)"/><path fill-rule="evenodd" fill="url(#g)" d="m16.15 40.35.05.1-.5 1.7-2.7-.1-.9-.3-.75-.25-1.25-.55q-3.75-2.1-4.3-4.4l-.2-1.6 1.3 2.3q1.65 1.7 4.4 2.7 3.45 1.1 4.85.4" transform="translate(-4.1 -.2)"/><path fill-rule="evenodd" fill="url(#h)" d="M12.85 49.85q-.45.05-1.25-.8l-.7-.85.9.5.6-.05q2.2.85.45 1.2M10.75 48l-.1-.15.2.15h-.1" transform="translate(-4.1 -.2)"/><path fill-rule="evenodd" fill="#648f86" d="m13 42.05.35 3.05-.7 1.85q.65 1.4 1.85.95l-.65 1.5q-.6.6-1 .45 1.75-.35-.45-1.2l-.6.05-.9-.5-.05-.1-.1-.1h.1q.35-.65.95-.9l-.2-.25-.65-1.3.95 1q1.45-1.45.25-4.55-.25.25-.8-.5l.75.25.9.3m-2.15 6.05.2.05-.2-.15.2.15-.2-.05" transform="translate(-4.1 -.2)"/><path fill-rule="evenodd" fill="#c5e7e1" d="m10.95 45.55-.85-4.6 1.25.55q.55.75.8.5 1.2 3.1-.25 4.55l-.95-1" transform="translate(-4.1 -.2)"/><path stroke-width=".05" stroke-opacity=".302" stroke-linejoin="round" stroke-linecap="round" stroke="#454545" fill="none" d="m.1 8.3.2 1.35m2.9 4.2q.4-1.7-.3-3.85V4.6L.1.1q.7 4.85 0 8.2m5.65 2.45L2.9 4.6M.55 11.55.3 9.65M3.75 24.6l-.3-7.3-.15-1.15v-2q.1-.65-.1-.3m-2.65-2.3 1.1 7.05Q3.7 28.35 3.5 34.55h.1v.75l.25.6.3.4.4.45-.8-12.15m4.15-4.85v2.95q-.15 7.65 1.6 14.9 1.95 1.4 2.55 2.55l.05.1-.5 1.7-2.7-.1.35 3.05.1 1.8 1.05 1-.65 1.5q-.6.6-1 .45-.45.05-1.25-.8L6.8 48l-.05-.1-.1-.1-.1-.15.5-.45m.45-.55-.65-1.3-.85-4.6q-3.75-2.1-4.3-4.4l-.2-1.6v-.2q.15-.25 2 0l.1.75v.4l.25.2m1.9-25.15q.5 4.8 2.15 9M4.75 37l-.15.5h.55l-.4-.5-.2-.25.05.75 4.85 1.6-4.25-1.6h-.05m3.75 4.35-.9-.3-.75-.25L6 40.75m3.5-3.15.2 1.6-.25-.1.05-1.5M6.75 47.8l-.2-.15m.2.15.2.15-.2-.05m.05.1.9.5.6-.05"/><path stroke-width=".25" stroke-linejoin="round" stroke-linecap="round" stroke="#5a7974" fill="none" d="m7.05 47.2.45-.55"/></g><path fill-rule="evenodd" fill="url(#i)" d="M-4.4-5.35Q-.6-6.1 3.4-3.6 11.6 8.95-2.2 4q-2.9-2.9-3.9-5-1.2-2.45 0-3.9l1.7-.45" transform="translate(6.7 5.5)" id="b"/><path fill-rule="evenodd" fill="url(#j)" d="M22.9 11.45q0 4.75-3.35 8.1-3.35 3.35-8.1 3.35t-8.1-3.35Q0 16.2 0 11.45t3.35-8.1Q6.7 0 11.45 0t8.1 3.35q3.35 3.35 3.35 8.1" id="k"/><path fill-rule="evenodd" fill-opacity="0" fill="#f0f" d="M0 0h102.95v45H0V0" id="l"/><use xlink:href="#k" width="22.9" height="22.9" id="c"/><use xlink:href="#l" width="102.95" height="45" id="o"/></defs><path fill="none" d="M-1-1h273v260H-1z"/><use x="128.051" y="215.901" xlink:href="#m" width="381" transform="translate(-192.55 -294)" height="381"/><use x="35.672" y="60.145" xlink:href="#n" width="90.35" transform="translate(-150.4 -219) scale(3.5897)" height="79.95"/><use x="42.241" y="77.83" xlink:href="#o" width="102.95" transform="matrix(3.0314 0 0 2.774 -172.1 -147.4)" height="45"/></svg>