<svg width="214" height="201" xmlns="http://www.w3.org/2000/svg" xmlns:xlink="http://www.w3.org/1999/xlink"><defs><g id="a"><path fill-rule="evenodd" fill="#7a4115" d="m-2.5-5.35 1.2-1 .2-.15.55-.15q1.1-.2 2.1.5l1.4.95 5.5 16.65 2.45 2.45-1.4 1.25-3.6.6-.55-8.5-7.85-12.6" transform="translate(6.35 9.4)"/><path fill-rule="evenodd" fill="#6b3812" d="m5.9 15.75-4.3-.35-3.6-1.05Q-5.8 7-6.35.7q.7-3.1 3.85-6.05l7.85 12.6.55 8.5" transform="translate(6.35 9.4)"/><path fill-rule="evenodd" fill="#8e5529" d="M2.95-5.2 4.6-4q2.25 1.3 5 7.2 3 6.35 2.15 9.9l-.85.8-2.45-2.45L2.95-5.2" transform="translate(6.35 9.4)"/><path stroke-width=".05" stroke-opacity=".451" stroke-linejoin="round" stroke-linecap="round" stroke="#422617" fill="none" d="M10.95 5.4q2.25 1.3 5 7.2 3 6.35 2.15 9.9M4.35 23.75Q.55 16.4 0 10.1"/><path fill-rule="evenodd" fill="#8e5529" d="M11.45 9.85 7.35.95l2.6-3.65.5 2.2-.45 4 2.5-.55-1.75 2.85 2.45-.85-.05 2.55-1.7 2.35M6.6.9 1.7-5.15 3.25-9.4l.8 1.75L4.3-4l2.05-1.5-1 3.2 1.9-1.8.4 2.3L6.6.9" transform="translate(6.35 9.4)"/></g><g id="b"><path fill-rule="evenodd" fill="#7a4115" d="M-2.3 2.1.55.45.9 3.4-.2 7.15 1.6 8.3l-2.05.65.8-.7q-1.1-1.5-2.55-.95l-.15.6-.35-.2.75-2.7-.35-2.9" transform="translate(6 4.05)"/><path fill-rule="evenodd" fill="#8e5529" d="M.55.45 3.35 3l-.4 2.35L1.6 8.3-.2 7.15.9 3.4.55.45" transform="translate(6 4.05)"/><path fill-rule="evenodd" fill="#fbf4ce" d="M-.45 8.95q-1.05.65-2.3.2l.4-1.25.15-.6q1.45-.55 2.55.95l-.8.7" transform="translate(6 4.05)"/><path stroke-width=".05" stroke-opacity=".451" stroke-linejoin="round" stroke-linecap="round" stroke="#421d17" fill="none" d="m9.35 7.05-.4 2.35-1.35 2.95-2.05.65m-1.9-1.05-.35-.2m0 0 .75-2.7-.35-2.9"/><path fill-rule="evenodd" fill="#7a4115" d="m.7 2.1 2-2.7 1.45 2.8.5 4.15 2.1.5-1.65 1.4.45-1-2.7.05.1.65-.45-.1-.35-3L.7 2.1" transform="translate(6 4.05)"/><path fill-rule="evenodd" fill="#8e5529" d="M2.7-.6 6.3.9l.55 2.55-.1 3.4-2.1-.5-.5-4.15L2.7-.6" transform="translate(6 4.05)"/><path fill-rule="evenodd" fill="#fbf4ce" d="M5.1 8.25q-.7 1.05-2.05 1.1l-.1-1.4-.1-.65 2.7-.05-.45 1" transform="translate(6 4.05)"/><path stroke-width=".05" stroke-opacity=".451" stroke-linejoin="round" stroke-linecap="round" stroke="#421d17" fill="none" d="m12.3 4.95.55 2.55-.1 3.4-1.65 1.4M8.95 12l-.45-.1m0 0-.35-3L6.7 6.15"/><path fill-rule="evenodd" fill="#8e5529" d="M1.7-2.3Q3-3.65 6.35-3.2L8.4 0l.75 3-2.1.4L5.2.25 5.25.2Q3.95-2.45 1.7-2.3" transform="translate(6 4.05)"/><path fill-rule="evenodd" fill="#7a4115" d="m9.15 3-.55.6v-.4q-2.05.1-2.95 1.15l.45.55-.4.05-2-2.35h-.05l-.15-.2L.6.2l1.1-2.5Q3.95-2.45 5.25.2L5.2.25 7.05 3.4l2.1-.4M3.5 2.4l.2.2-.2-.2" transform="translate(6 4.05)"/><path fill-rule="evenodd" fill="#fbf4ce" d="M8.6 3.6q0 1.95-1.25 2.85L6.1 4.9l-.45-.55Q6.55 3.3 8.6 3.2v.4" transform="translate(6 4.05)"/><path stroke-width=".05" stroke-opacity=".451" stroke-linejoin="round" stroke-linecap="round" stroke="#421e17" fill="none" d="m12.35.85 2.05 3.2.75 3-.55.6m-2.5 1.3-.4.05-2-2.35-.2-.2-2.9-2.2m3.05 2.4-.15-.2"/><path fill-rule="evenodd" fill="#7a4115" d="m.7.4-2.2.15-1.3.75-2.05-.8L-6-.8l.5-1.55 1.55-1.7Q-1.9-3.8 0-2.65.85-.9.7.4" transform="translate(6 4.05)"/><path stroke-width=".05" stroke-opacity=".451" stroke-linejoin="round" stroke-linecap="round" stroke="#421c17" fill="none" d="m6.7 4.45-2.2.15-1.3.75-2.05-.8L0 3.25.5 1.7 2.05 0"/><path fill-rule="evenodd" fill="#fbf4ce" d="M-3.3 1.1Q-3.5-.2-5.75-.1-6.2 1.1-4.7 2.2l1.4-1.1" transform="translate(6 4.05)"/><path stroke-width=".05" stroke-linejoin="round" stroke-linecap="round" stroke="#bcb58f" fill="none" d="M2.7 5.15q-.2-1.3-2.45-1.2-.45 1.2 1.05 2.3l1.4-1.1z"/></g><g id="c"><path fill-rule="evenodd" fill="#8e5529" d="m1.55-2.2 7.05-1q-.55 6.35-1.4 9.4Q5.55 8.6.25 8.75-1.1 6.5 1.55-2.2" transform="translate(7.5 4.5)"/><path fill-rule="evenodd" fill="#6b3812" d="M1.55-2.2Q-1.1 6.5.25 8.75q-7-1.25-7.5-3.1-.55-1.85.2-4 .75-2.2.5-3.45l8.1-.4" transform="translate(7.5 4.5)"/><path stroke-width=".05" stroke-linejoin="round" stroke-linecap="round" stroke="#4f1600" fill="none" d="M7.75 13.25q-7-1.25-7.5-3.1-.55-1.85.2-4 .75-2.2.5-3.45"/><path fill-rule="evenodd" fill="#6b3812" d="M8.2-.4 1.65 1.8l.55 3.6 1.35-.75 1.4-2.4 1.8 2.05-.2-2.7L8.2 3.75 9.3 2.4 8.2-.4" transform="translate(7.5 4.5)"/><path fill-rule="evenodd" fill="#6b3812" d="M8.8-3.75 4.4.7 6.6 4l.75-1.25.05-2.8 2.45 1.3-1.45-2.5L10.8.2l.3-1.7-2.3-2.25" transform="translate(7.5 4.5)"/><path fill-rule="evenodd" fill="#7a4115" d="m8.95-.05.85-2-1-2.45Q5-1.45 1.15.25L2.8 4.6l1.3-1.5L5.3.2l2.2 1-.25-2.55 1.7 1.3" transform="translate(7.5 4.5)"/></g><g id="d"><path fill-rule="evenodd" fill="#8e5529" d="M5.6 10Q7.1 6.05-.45-2l6.75-.9q4.35 3.55 6.35 9.45l-.5 2.2L5.6 10" transform="translate(4.8 2.9)"/><path fill-rule="evenodd" fill="#6b3812" d="M-4.8 5.1-.45-2Q7.1 6.05 5.6 10l-8.6.3-1.8-5.2" transform="translate(4.8 2.9)"/><path stroke-width=".05" stroke-opacity=".451" stroke-linejoin="round" stroke-linecap="round" stroke="#422117" fill="none" d="m0 8 1.8 5.2m15.65-3.75-.5 2.2M11.1 0q4.35 3.55 6.35 9.45"/><path fill-rule="evenodd" fill="#7a4115" d="M9.3 2.3 9.15.35 7.2-.9Q4.95 3.35 2.1 6.7l3.5 2.25.55-1.8L6 4.4 8.5 4 7.1 2.3h2.2" transform="translate(4.8 2.9)"/></g><g id="e"><path fill-rule="evenodd" fill="#8e5529" d="M2.5-2.55Q3.9-2.3 5.3-.9L4.1.05Q2.25-1.55.05-1.85l2.45-.7" transform="translate(5.05 2.55)"/><path fill-rule="evenodd" fill="#7a4115" d="M5.3-.9 5.2.8 3.9 2.3-.6.5l.65-2.35q2.2.3 4.05 1.9L5.3-.9" transform="translate(5.05 2.55)"/><path stroke-width=".05" stroke-opacity=".451" stroke-linejoin="round" stroke-linecap="round" stroke="#421917" fill="none" d="M7.55 0q1.4.25 2.8 1.65"/><path fill-rule="evenodd" fill="#fbf4ce" d="m3.75 1.85 2.7.25Q6.75.6 5.1-.8q-2.05.35-1.35 2.65" transform="translate(5.05 2.55)"/><path fill-rule="evenodd" fill="#8e5529" d="m5 .35-2.05.9Q2.25-.55-.4-1.3.85-2.05 2.05-2 4.45-1.35 5 .35" transform="translate(5.05 2.55)"/><path fill-rule="evenodd" fill="#7a4115" d="M-.4-1.3q2.65.75 3.35 2.55L5 .35 4.55 2.3l-2 1.4Q.4 2.75-1.4 1.3q.2-1.6 1-2.6" transform="translate(5.05 2.55)"/><path stroke-width=".05" stroke-opacity=".451" stroke-linejoin="round" stroke-linecap="round" stroke="#421a17" fill="none" d="M10.05 2.9Q9.5 1.2 7.1.55"/><path fill-rule="evenodd" fill="#8e5529" d="M-4.25-.55Q-2.4-1.4-.65-1 1.3-.45 1.9 1.9l-2.95.4q-.9-2.05-3.2-2.85" transform="translate(5.05 2.55)"/><path fill-rule="evenodd" fill="#6b3812" d="M-4.25-.55q2.3.8 3.2 2.85l2.95-.4-.5 2.3-2.85.6q-2.1-.7-3.6-2.1-.05-2 .8-3.25" transform="translate(5.05 2.55)"/><path stroke-width=".05" stroke-opacity=".451" stroke-linejoin="round" stroke-linecap="round" stroke="#421b17" fill="none" d="M6.95 4.45q-.6-2.35-2.55-2.9M0 5.25q1.5 1.4 3.6 2.1"/><path fill-rule="evenodd" fill="#fbf4ce" d="m-.55 4.7 2.35.85q.6-1.35-.5-3.05-1.95-.2-1.85 2.2M2.8 3l2.55.9Q6 2.55 4.8.8 2.7.6 2.8 3" transform="translate(5.05 2.55)"/></g><g id="f"><path fill-rule="evenodd" fill="#8e5529" d="M-5.4-.85q2.4-.55 6.7-.1 4.25.4 12.75-1.9L12.9 2.4l-.8 11.35q-3.35 3.85-7.7 5.2l.35-.85L-5 16.8l-1 2.25-.75-.2Q-8.4 10.05-5.4 3.8V-.85" transform="translate(20.15 5.15)"/><path fill-rule="evenodd" fill="#6b3812" d="M-6.75 18.85-14.3 14q-1.7-7.7-.95-15.85 6.05-1.7 9.85 1V3.8q-3 6.25-1.35 15.05" transform="translate(20.15 5.15)"/><path stroke-width=".05" stroke-linejoin="round" stroke-linecap="round" stroke="#4f1600" fill="none" d="m34.2 2.3-1.15 5.25m-27.2 11.6q-1.7-7.7-.95-15.85m28.15 4.25-.8 11.35"/><path fill-rule="evenodd" fill="#6b3812" d="M7.55 16.05 8.65 21l-1 2.7L5 19l.85 5.65-2.8-4.5-1.15 4.8L.35 26.4l-1.6-7.7 8.8-2.65" transform="translate(20.15 5.15)"/><path fill-rule="evenodd" fill="#6b3812" d="m4.75 18.1-2.2 4.95-2.7 2.05.65-5.35-2.85 5.45.35-5.25-4.2 3.9-2.35.65L-5 16.8l9.75 1.3M12.9 6.5 4.5 7.7l.5 6.5 1.8-.75 1.9-3.6 2.2 4.2-.1-4.7 1.95 4.3 1.45-1.9-1.3-5.25" transform="translate(20.15 5.15)"/><path fill-rule="evenodd" fill="#8e5529" d="m8.35 14.4-.45 5.35-1.8 2.9-1.15-5.3-.85 6.1-1.4-5.05-2.55 5.05-1.95 1.4.75-8.45 9.4-2" transform="translate(20.15 5.15)"/><path fill-rule="evenodd" fill="#6b3812" d="m3.25 6.25-.7 4.65 2.7-3.8-1 4.65 2.3-.65 2.1-5.05-4.95-8.3-5.95 9.75 1.9.5 3.6-1.75" transform="translate(20.15 5.15)"/><path fill-rule="evenodd" fill="#6b3812" d="M-5.15-2.2 3.7-1 .65 5.95l-2.35.85.9-4.5-2.7 3.8.6-4.45-3.7 1.95-2-.3 3.45-5.5" transform="translate(20.15 5.15)"/><path fill-rule="evenodd" fill="#8e5529" d="m2.45 15.75-9.7-1.3-3.6 7.7 2.4-.65 4.15-3.9-.3 5.3 2.75-5.5-.6 5.35 2.7-2.05 2.2-4.95" transform="translate(20.15 5.15)"/><path fill-rule="evenodd" fill="#6b3812" d="m-3.7 8.2-3.7-1.45 2.85 3.15-3.65-1.15 1.1 3.9-.55 1.9-4.15-4.05 2.3-8.6 5.4 3.85.4 2.45m-16.45-3.45 3.85-.85-3.3 2.65 3.8-.55-1.75 3.7.25 1.95 4.75-3.35-.9-8.85-5.95 2.9-.75 2.4" transform="translate(20.15 5.15)"/><path fill-rule="evenodd" fill="#6b3812" d="m-18.35-2.2 3.2.15L-18.8-.5l3 .4-3 2.75-.75 1.75 5.05-1.75 3.65-7.8-5.8 1.1-1.7 1.85" transform="translate(20.15 5.15)"/></g><g id="g"><path fill-rule="evenodd" fill="#6b3812" d="M-11.25-25.5-4.2-5.85-6.6 2.5l-9.05-.65-.6-10.15q-1.85-9.2 5-17.2" transform="translate(16.65 27.85)"/><path fill-rule="evenodd" fill="#8e5529" d="M-11.25-25.5q10-4 18.4-1.15 6.55 4.05 8.3 18.95L13.65.85-6.6 2.5l2.4-8.35-7.05-19.65" transform="translate(16.65 27.85)"/><path stroke-width=".05" stroke-opacity=".451" stroke-linejoin="round" stroke-linecap="round" stroke="#422017" fill="none" d="m30.3 28.7 1.8-8.55Q30.35 5.25 23.8 1.2 15.4-1.65 5.4 2.35q-6.85 8-5 17.2L1 29.7"/></g><g id="h"><path fill-rule="evenodd" fill="#ba811a" d="M11.95-9.4 1.75-15l1.35 2.4-6.25-3.4-8.1 4.25-3.9 3.9q-1.2 5.3.35 10l3.95 3.4 2.6.75 3.3 4.1 3.25.8.5-.3h.05v.1l-.3 2.5h2.9v2.45l5.1 4.7.95-1.1q-.55-.1-2.05-1.55l1.15-4.35-1.9.4-1.3-1.9q-1-.2-3.65-1.8L-5.4 3.2l4.5-9.1 12.85-3.5" transform="translate(15.65 21.5)"/><path fill-rule="evenodd" fill="#ffd56e" d="m-11.25-11.75 8.1-4.25 6.25 3.4L1.75-15l10.2 5.6Q4.15-17.6-.6-18.05q-4.65.85-10.65 6.3" transform="translate(15.65 21.5)"/><path fill-rule="evenodd" fill="#e7b43c" d="m-1.7 11.2-3.25-.8-3.3-4.1-2.6-.75-3.95-3.4q1.3 3.8 4.45 7.2l2.1-.45-1.2 1.25q2.7 1.25 5 2.75l2.75-1.7" transform="translate(15.65 21.5)"/><path fill-rule="evenodd" fill="#d6a32b" d="m6.55 20.65-5.1-4.7V13.5h-2.9l.3-2.5-1.25 3.35 2.2 1.8 1.1-.6.05 1.7.45.45q3.65 3.75 4.3 3.85l.85-.9" transform="translate(15.65 21.5)"/><path fill-rule="evenodd" fill="#814e00" d="M11.95-9.4-.9-5.9l-4.5 9.1 5.15 7.15q2.65 1.6 3.65 1.8l1.3 1.9 1.9-.4L5.45 18q1.5 1.45 2.05 1.55l1.95-3.9-.6-3.85 1.8 1.85q4.65-5.95 4.9-7.3.4-3.75-.5-7.25l-.1-.45-3-8.05" transform="translate(15.65 21.5)"/><path stroke-width=".05" stroke-linejoin="round" stroke-linecap="round" stroke="#7b4200" fill="none" d="m13.25 35.85 2.2 1.8m1.15 1.1.45.45q3.65 3.75 4.3 3.85M6.2 31.65q2.7 1.25 5 2.75m11.95 6.65-.95 1.1m-.85.9.85-.9m4.1-7q4.65-5.95 4.9-7.3.4-3.75-.5-7.25l-.1-.45-3-8.05m-4.45 28.95 1.95-3.9"/><path fill-rule="evenodd" fill="#ffd56e" d="m-6.3-18.75 2.4 1.65-.9-2.2 1.95.1 1.9 1.55-6.3 3.55-3-2.5 1.6-.4 3.1.55-.75-2.3" transform="translate(15.65 21.5)"/><path fill-rule="evenodd" fill="#e7b43c" d="m-1-18.25-1.3-.55-1.25 4.75 8.6 2.8-.2-3.2-.9-2.5-1.3 3.4-1.4-3.1-1.8 1.95-.45-3.55" transform="translate(15.65 21.5)"/><path fill-rule="evenodd" fill="#ffd56e" d="m6.5-18.65-.8 3.05 2.05-1.9.75 1.95L7.6-13 1-17.5l1.4-4 1.15 1.35.75 3.2 2.2-1.7" transform="translate(15.65 21.5)"/><path fill-rule="evenodd" fill="#e7b43c" d="m-7 2.1-.05 1.5 4.4.35-.4-9.9-2.65.85-1.85 1.55 3.35.7L-6.45-.7l2.3 1.55L-7 2.1M-8.7-12l-1.2.95 2.7 3.55 7.15-6.85-2.45-1.45-2.35-.35 1.65 2.95-3-.25.3 2.75-2.8-1.3" transform="translate(15.65 21.5)"/></g><g id="i"><path fill-rule="evenodd" fill="#fbf4ce" d="M11.1 10.1q.4 1.95 1.7 2.5l.95-2.1q-1-.7-2.65-.4" transform="translate(13.6 10.35)"/><path fill-rule="evenodd" fill="#7d4418" d="m10.35-10.1-1.5.6-3.05.45-.35.15Q4-8.25 3.5-8.4l.6 2.8q2.55-1.15 4.75-2.95 1.3-.9 2.85 1l-.05 1.2-.05.1Q11-4.6 8.25-2.4l1.15.5q2.95-2.5 3.3-5.35-.05-1.4-1.4-2.35l-.8-.4-.15-.1" transform="translate(13.6 10.35)"/><path fill-rule="evenodd" fill="#9a6118" d="m4.1-5.6 4.15 3.2Q11-4.6 11.6-6.25l-3.05.6-.4.25Q7.2-6.55 4.1-5.6" transform="translate(13.6 10.35)"/><path fill-rule="evenodd" fill="#895007" d="m11.65-6.35.05-1.2q-1.55-1.9-2.85-1-2.2 1.8-4.75 2.95 3.1-.95 4.05.2l.4-.25 3.05-.6.05-.1" transform="translate(13.6 10.35)"/><path fill-rule="evenodd" fill="#cd8e4b" d="m10.35-10.1-2.2-.25-2.35 1.3 3.05-.45 1.5-.6" transform="translate(13.6 10.35)"/><path stroke-width=".05" stroke-opacity=".451" stroke-linejoin="round" stroke-linecap="round" stroke="#4f1100" fill="none" d="M19.4 1.3 21.75 0l2.2.25m-4.9 1.2q-1.45.65-1.95.5m5.9 6.5q2.95-2.5 3.3-5.35-.05-1.4-1.4-2.35l-.8-.4"/><path stroke-width=".05" stroke-opacity=".451" stroke-linejoin="round" stroke-linecap="round" stroke="#4f1100" fill="none" d="m25.25 4 .05-1.2q-1.55-1.9-2.85-1-2.2 1.8-4.75 2.95m7.5-.65q-.6 1.65-3.35 3.85"/><path fill-rule="evenodd" fill="#8e5529" d="M-7-7.55q-3.1 8.1-1.65 13.5 1.45 5.25 6.5 5.65l9.3.3 2.5-.75v-8.3l-.7-2.3 2.9-1.7-.2-2.35h-1.6Q3.65-4.15-.4-6.45l-.85-3.4-.5.2L-7-7.55" transform="translate(13.6 10.35)"/><path fill-rule="evenodd" fill="#cd8e4b" d="M9.65 11.15q1.85-.9 3.6-2.6.65-1.6 0-4.15-1-2.4-1.4-5.55L8.95.55l.7 2.3v8.3" transform="translate(13.6 10.35)"/><path fill-rule="evenodd" fill="#7d4418" d="M11.65-3.5v-.3L5.6-8.9l-5.8-1.35-1.05.4.85 3.4q4.05 2.3 10.45 2.95h1.6" transform="translate(13.6 10.35)"/><path stroke-width=".05" stroke-opacity=".451" stroke-linejoin="round" stroke-linecap="round" stroke="#4f1100" fill="none" d="M26.85 18.9q.65-1.6 0-4.15-1-2.4-1.4-5.55l-.2-2.35v-.3l-6.05-5.1L13.4.1l-1.05.4m-.5.2L6.6 2.8"/><path fill-rule="evenodd" fill="#9a6146" d="M8.45 16.2 7.7 18q-.75.75-3.15.4l.5-1.8.45-.05 2.95-.35" transform="translate(13.6 10.35)"/><path fill-rule="evenodd" fill="#6f1515" d="M6.85 15.05V15q.55-1.3.15-2.85l1.45 4.05-2.95.35q.8-.3 1.3-1.4l.05-.1" transform="translate(13.6 10.35)"/><path fill-rule="evenodd" fill="#ac2222" d="m1.5 11.9 5.35 3.15-.05.1q-.5 1.1-1.3 1.4l-.45.05h-.1Q2.9 14.4 1.5 11.9" transform="translate(13.6 10.35)"/><path fill-rule="evenodd" fill="#80472c" d="m.5 9.85.8 1.7.2.35q1.4 2.5 3.45 4.7h.1l-.5 1.8-.4-.15q-.65-.3-2-3.05-1.4-2.85-3.8-4.15L.5 9.85" transform="translate(13.6 10.35)"/><path fill-rule="evenodd" fill="#941d1d" d="m6.9 10.4-.2 1.3.3.45q.4 1.55-.15 2.85v.05L1.5 11.9l-.2-.35-.8-1.7L2 7.3l4.9 3.1" transform="translate(13.6 10.35)"/><path stroke-width=".05" stroke-opacity=".302" stroke-linejoin="round" stroke-linecap="round" stroke="#4f1a00" fill="none" d="m20.6 22.5-.3-.45.2-1.3m-6.4-.55.8 1.7m5.55 3.5v-.05q.55-1.3.15-2.85l1.45 4.05m-2.95.35q.8-.3 1.3-1.4m-1.3 1.4 2.95-.35m-3.4.4h-.1q-2.05-2.2-3.45-4.7m3.55 4.7.45-.05"/><path stroke-width=".05" stroke-opacity=".302" stroke-linejoin="round" stroke-linecap="round" stroke="#4f1a00" fill="none" d="m22.05 26.55-.75 1.8q-.75.75-3.15.4l-.4-.15q-.65-.3-2-3.05-1.4-2.85-3.8-4.15l2.15-1.2"/><path fill-rule="evenodd" fill="#7d4418" d="M-.45-.8Q-1.3.95-1.6 2.6q-.3 1.55-.05 5.2.3 3.6 1.85 1.3Q1.8 6.8 3 5.8q1.25-1 1.7-2.15.45-1.15-.1-2L2.2-.85-.45-.8" transform="translate(13.6 10.35)"/><path fill-rule="evenodd" fill="#fbf4ce" d="M6.35 10.45q.4 1.95 1.7 2.5l.95-2.1q-1-.7-2.65-.4" transform="translate(13.6 10.35)"/><path fill-rule="evenodd" fill="#b77800" d="M12.3 2.45q-.25.8-1 .9-.75.1-1.45-.55-.8-.65-1.15-1.7-.4-1-.15-1.8t1-.9q.7-.15 1.5.5l1.1 1.7q.35 1.05.15 1.85" transform="translate(13.6 10.35)"/><path fill-rule="evenodd" fill="#fbf4ce" d="M9.9-.9q1.65-.45 1.85 1.85-1.55 1.1-3.15.2L9.9-.9" transform="translate(13.6 10.35)"/><path stroke-width=".05" stroke-linejoin="round" stroke-linecap="round" stroke="#bcb58f" fill="none" d="M23.5 9.45q1.65-.45 1.85 1.85-1.55 1.1-3.15.2l1.3-2.05z"/><path fill-rule="evenodd" fill="#9a6146" d="M14.6 9.3v.35l-.25 1.25q-1.55.7-4.3.95Q5.3 9.3 3.65 9.6l-2.7-.1q-1.1-.35-.5-1.6L4.5 5.65 7.2 5 5.9 2v-.05l2.5 2.6 4 1.35 2.2 3.4" transform="translate(13.6 10.35)"/><path fill-rule="evenodd" fill="#bc8368" d="M5.9 1.95 6 1.8l.75-.8Q7.6.4 9.5.7q.05 2.5 3.85 4.4 1.45 1.75 1.25 4.2l-2.2-3.4-4-1.35-2.5-2.6" transform="translate(13.6 10.35)"/><path fill-rule="evenodd" fill="#80472c" d="M.45 7.9q.65-1.4 3-3.5Q5 3.5 5.55 2.55L5.9 2l1.3 3-2.7.65L.45 7.9" transform="translate(13.6 10.35)"/><path stroke-width=".05" stroke-opacity=".302" stroke-linejoin="round" stroke-linecap="round" stroke="#4f1b00" fill="none" d="m28.2 20-.25 1.25q-1.55.7-4.3.95-4.75-2.55-6.4-2.25l-2.7-.1q-1.1-.35-.5-1.6.65-1.4 3-3.5 1.55-.9 2.1-1.85l.35-.55v-.05m.1-.15.75-.8q.85-.6 2.75-.3.05 2.5 3.85 4.4 1.45 1.75 1.25 4.2"/><path fill-rule="evenodd" fill="#531400" d="M11.75 8.5q1.6.3 2.4-.55.75-1.4.2-2.8Q12.8 5 11.5 5.7q-.55.9.25 2.8" transform="translate(13.6 10.35)"/><path fill-rule="evenodd" fill="#6c2d19" d="M10.15 4.95q-.5 1.45.7 2.6l.9.95q-.8-1.9-.25-2.8-.85-.15-1.35-.75" transform="translate(13.6 10.35)"/><path fill-rule="evenodd" fill="#d0917d" d="m14.35 5.15-1.4-.65q-1.45-.25-2.8.45.5.6 1.35.75 1.3-.7 2.85-.55" transform="translate(13.6 10.35)"/><path fill-rule="evenodd" fill="#7d4418" d="M11.8-3.75q-.65-1.05-2.15-1.2l-4.6-.1Q1.9-5 2.7-3.25q.8 1.75 1.5 2.8l.45 1.1q.3.6 1 1l2.25.25q1.4-.2 1.5-.7.3-2.35 1.45-3.05 1.7-.9.95-1.9" transform="translate(13.6 10.35)"/><path fill-rule="evenodd" fill="#8e5529" d="m8.4-.95-.35.9q.1 1.7.7 2.35.7-.2 1.3-1.25l.85-1.4.45-.2.85-.6q.5-.7.1-1.45L11-2.65h-.25Q9.6-2.6 8.4-.95" transform="translate(13.6 10.35)"/><path fill-rule="evenodd" fill="#b0774b" d="M12.3-2.6v-.05q-.45-.8-1.3-.65-1.65.4-2.6 2.35 1.2-1.65 2.35-1.7H11l1.3.05" transform="translate(13.6 10.35)"/><path stroke-width=".05" stroke-opacity=".451" stroke-linejoin="round" stroke-linecap="round" stroke="#4f1400" fill="none" d="M25.9 7.75V7.7q-.45-.8-1.3-.65-1.65.4-2.6 2.35l-.35.9m.7 2.35q.7-.2 1.3-1.25l.85-1.4.45-.2.85-.6q.5-.7.1-1.45l-3.55 4.9z"/><path fill-rule="evenodd" fill="#b77800" d="M-.25 3.9q.5.95 1.7 1.05 1.2.15 2.3-.6 1.15-.65 1.6-1.8.45-1.1.05-2-.5-.9-1.7-.9Q2.55-.6 1.4.1T-.2 1.9q-.45 1.15-.05 2" transform="translate(13.6 10.35)"/><path fill-rule="evenodd" fill="#fbf4ce" d="M3.9-.2Q1.85-.4 1.75 1.95q1.85.95 3.75-.2L3.9-.2" transform="translate(13.6 10.35)"/><path stroke-width=".05" stroke-linejoin="round" stroke-linecap="round" stroke="#bcb58f" fill="none" d="M17.5 10.15q-2.05-.2-2.15 2.15 1.85.95 3.75-.2l-1.6-1.95z"/><path fill-rule="evenodd" fill="#8e5529" d="M3.8-3.6h-.15q-1.9-.05-2.85.95Q-.35-1.5 1.25-.2 3.2.5 4.2 1.2l2.45 2.05 1.2-1.4.1-.4L5.4-.75 3.8-3.6" transform="translate(13.6 10.35)"/><path fill-rule="evenodd" fill="#b0774b" d="m7.95 1.45-.35-1Q5.35-3.15 3.9-3.6h-.1L5.4-.75l2.55 2.2" transform="translate(13.6 10.35)"/><path stroke-width=".05" stroke-opacity=".451" stroke-linejoin="round" stroke-linecap="round" stroke="#4f1600" fill="none" d="M17.25 6.75q-1.9-.05-2.85.95-1.15 1.15.45 2.45 1.95.7 2.95 1.4l2.45 2.05 1.2-1.4.1-.4-.35-1q-2.25-3.6-3.7-4.05h-.1"/><path fill-rule="evenodd" fill="#8e5529" d="m-8.6-2.95-3.4.75-1.35 1.5 3 .7-3.2.85 2.9.95-2.45 2.15-.5 1.6 5.45.15-.45-8.65" transform="translate(13.6 10.35)"/><path fill-rule="evenodd" fill="#8e5529" d="M-10 4.45-12.35 7l.7 1.95 3.25-.9-1.5 2.3 3.35-.7.65 2.95 1.45 1.6 2.5-2.95-8.05-6.8M-11.45-8.9q-.9.75-.9 2 .5 2.95 3.5 5.7l1.1-.4q-3.95-3.4-3.7-5.45l.05-.1Q-10-8.95-8.65-8q2.2 2 4.7 3.35l.45-2.85q-.35.15-1.55-.45l-1.9-.35-2.45-.75-1.85-.05-.2.2" transform="translate(13.6 10.35)"/><path fill-rule="evenodd" fill="#ab7229" d="m-7.75-1.6 2.2-1.8-1.25-1.2-.95-.35-.85-.3-2.85-1.8Q-11.7-5-7.75-1.6" transform="translate(13.6 10.35)"/><path fill-rule="evenodd" fill="#cd8e4b" d="M-5.05-7.95-8.1-9.8q-1.7-.25-3 .6l-.15.1 1.85.05 2.45.75 1.9.35" transform="translate(13.6 10.35)"/><path fill-rule="evenodd" fill="#9a6118" d="M-5.55-3.4h.05l1.55-1.25Q-6.45-6-8.65-8q-1.35-.95-2.75.85l-.05.1 2.85 1.8.85.3.95.35 1.25 1.2m-2.2-1.55q.8-.85 3.8.3-3-1.15-3.8-.3" transform="translate(13.6 10.35)"/><path stroke-width=".05" stroke-opacity=".451" stroke-linejoin="round" stroke-linecap="round" stroke="#4f1200" fill="none" d="m2.15 3.3.05-.1q1.4-1.8 2.75-.85 2.2 2 4.7 3.35-3-1.15-3.8-.3m-3.7-2.1q-.25 2.05 3.7 5.45"/><path stroke-width=".05" stroke-opacity=".451" stroke-linejoin="round" stroke-linecap="round" stroke="#4f1200" fill="none" d="M2.15 1.45q-.9.75-.9 2 .5 2.95 3.5 5.7m5.35-6.3Q9.75 3 8.55 2.4L5.5.55q-1.7-.25-3 .6l-.15.1"/><path fill-rule="evenodd" fill="#7d4418" d="m-6.5 3.85-.75 1.35 2.1.5-1.6.9 2.1.65-.55 2.05.4 1 1.95.65-.4-1-.5-.65L-4 7.55l-.1-.3-.5-2.1-.6-.6.35-1.1-.05-.25-.05-.25-1.55.9M-.7-3.7l-1.35.65 1.4 1.55-1.75-.1L-1.05.1l-1.6 1.35-.2 1.1 1.2 1.65.25-1.15-.05-.75.8-1.6.1-.3.75-2-.2-.85.9-.75.1-.2.1-.25-1.8-.05m11.55 6.9q-.05.2-.65.2l-1.3.15-1.3.4-.8.15q-1 0-.55-1.05.4-1.1.7-1.55.3-.4.95-.45.6-.05 1.15.35l1.2.95q.6.6.6.85" transform="translate(13.6 10.35)"/></g><g id="j"><path fill-rule="evenodd" fill="#8e5529" d="m-4-3.3.1 15.15 9.45 1.45 1.1-3.5.05-6.95Q3.1-2.65-1.85-4.1L-4-3.3" transform="translate(8.7 5.25)"/><path fill-rule="evenodd" fill="#6b3812" d="M-3.9 11.85-4-3.3q-1.65.85-2.6 2.35l-.7 12.25 3.4.55" transform="translate(8.7 5.25)"/><path stroke-width=".05" stroke-linejoin="round" stroke-linecap="round" stroke="#4f1600" fill="none" d="m15.4 8.1-.05 6.95m0 0-1.1 3.5m-12.85-2L2.1 4.3"/><path fill-rule="evenodd" fill="#7d4418" d="m-7.4 2.25 3.3-3.4-.7 4.6 3.25-4.95-1 4.75L.9.6l.4-3.15q-1.7-3.9-7.65-2.2L-8.7 2.1l1.3.15" transform="translate(8.7 5.25)"/><path fill-rule="evenodd" fill="#7d4418" d="m3.15 6.15 3-1.6.55-3.25L.65-4.1-1.7 2.4l1.1.65L2.2.75l-.8 4.7 2.9-4.1-1.15 4.8" transform="translate(8.7 5.25)"/></g><g id="k"><path fill-rule="evenodd" fill="#6b3812" d="m-5.5-1.2 3.6-.85-.85 8.5-2 .1-1.65-1.7q-.5-2.5.9-6.05" transform="translate(8 4.5)"/><path fill-rule="evenodd" fill="#8e5529" d="m-2.75 6.45.85-8.5.45-.15L7.9-.95q.4 3.65-1.35 6.8l-9.3.6" transform="translate(8 4.5)"/><path stroke-width=".05" stroke-linejoin="round" stroke-linecap="round" stroke="#4f1600" fill="none" d="M15.9 3.55q.4 3.65-1.35 6.8M2.5 3.3q-1.4 3.55-.9 6.05"/><path fill-rule="evenodd" fill="#6b3812" d="m.6.5-5.35-4.6L-8-1.95l1.4.85 3 .1-1.1 2.5L-2.15.05l-1.3 2.45 1.9.25L.6.5" transform="translate(8 4.5)"/><path fill-rule="evenodd" fill="#6b3812" d="m5.95 2.4-1.5.95-.5-2.7L3 3.35 2.3.7.2 2.55l-1.5.2.55-4.35 7.35.4-.65 3.6" transform="translate(8 4.5)"/><path fill-rule="evenodd" fill="#7a4115" d="m.9 1.9 2.25-.45L4.3-.75Q-1-2.2-5.3-4.5L-7.4-.65l2.15.25 3.2-.6.85 2.4L.6-.3l.3 2.2" transform="translate(8 4.5)"/></g><g id="l"><path fill-rule="evenodd" fill="#8e5529" d="M1.9-3.2q1.7-.9 3.3-.45Q7-3.1 7.7-.7q-1.45-.4-3.05.45Q3.4-2.9 1.9-3.2" transform="translate(7.65 3.8)"/><path fill-rule="evenodd" fill="#6b3812" d="M1.9-3.2q1.5.3 2.75 2.95Q6.25-1.1 7.7-.7 7.5.8 6.8 1.75q-1.25.7-2.65.6Q2.2 1.65 1.4.7q-.95-2.2.5-3.9" transform="translate(7.65 3.8)"/><path stroke-width=".05" stroke-opacity=".451" stroke-linejoin="round" stroke-linecap="round" stroke="#421f17" fill="none" d="M15.35 3.1q-.7-2.4-2.5-2.95m-1.05 6q1.4.1 2.65-.6.7-.95.9-2.45"/><path stroke-width=".05" stroke-opacity=".451" stroke-linejoin="round" stroke-linecap="round" stroke="#421f17" fill="none" d="M9.05 4.5q.8.95 2.75 1.65"/><path fill-rule="evenodd" fill="#8e5529" d="M-2.7-3q2.65-1.1 3.9-.25 1.25.85.85 3.55l-4-.15q-.45-.55-.45-1.8L-2.7-3" transform="translate(7.65 3.8)"/><path fill-rule="evenodd" fill="#6b3812" d="m-2.7-3 .3 1.35q0 1.25.45 1.8l4 .15q.2 1.35-.55 2.15-2.2.5-3.95-.05L-3.2.3q-.2-.75.5-3.3" transform="translate(7.65 3.8)"/><path stroke-width=".05" stroke-linejoin="round" stroke-linecap="round" stroke="#4f1600" fill="none" d="m4.45 4.1.75 2.1m4.5-2.1q.4-2.7-.85-3.55M5.2 6.2q1.75.55 3.95.05.75-.8.55-2.15"/><path fill-rule="evenodd" fill="#8e5529" d="M-6.75-3.55q1.75-.45 3.7 1 .2.1-.05 2.55-1.45-1.05-3.75-.55l.1-3" transform="translate(7.65 3.8)"/><path fill-rule="evenodd" fill="#6b3812" d="m-6.75-3.55-.1 3q2.3-.5 3.75.55.1 1.1-.75 1.35Q-6.2 1.7-7.5.9l-.15-2.25q.1-1.25.9-2.2" transform="translate(7.65 3.8)"/><path stroke-width=".05" stroke-linejoin="round" stroke-linecap="round" stroke="#4f1600" fill="none" d="M0 2.45.15 4.7m4.4-.9q.25-2.45.05-2.55M.15 4.7q1.3.8 3.65.45.85-.25.75-1.35"/><path fill-rule="evenodd" fill="#fbf4ce" d="m4.7 2 2.5.95Q8.05 1.6 7.05-.2 4.9-.45 4.7 2m-3.4-.6-.05 1.35-1.4 1.05q-1.55-.65-1.6-1.65Q-1.8.6-.3.4q1.5-.2 1.6 1m-8.4-.3q.25-1.15.95-1.3l2.3.45q.3.95 0 1.4-.25.5-1.5 1.15-1.45-.7-1.75-1.7" transform="translate(7.65 3.8)"/></g><g id="m"><path fill-rule="evenodd" fill="#7a4115" d="M2.2 12.55 5 10.8q2.65-7.35.85-12.1-1.45-3.9-3.6-3.45-2.85.6-5.65 3.45L-8 3.85q-.15 5.65 3.6 8.7h6.6" transform="translate(9.75 8.3)"/><path stroke-width=".05" stroke-opacity=".451" stroke-linejoin="round" stroke-linecap="round" stroke="#422817" fill="none" d="M1.75 12.15 6.35 7Q9.15 4.15 12 3.55 14.15 3.1 15.6 7q1.8 4.75-.85 12.1l-2.8 1.75"/><path fill-rule="evenodd" fill="#6b3812" d="m-.3-3.45 5.15.5L6-7.45l-1.2.25-1.9 2.1-.35-3.15-1 3.2-.2-3.25L.1-7.2l-.4 3.75" transform="translate(9.75 8.3)"/><path fill-rule="evenodd" fill="#8e5529" d="M-1.1 2.55Q-4.15 5.9-4.4 12.5q.05 4.3 4 6.55l-5.25 1.25q-3.3-1.65-4.1-4.85-.1-5.95 2.4-11.8l6.25-1.1" transform="translate(9.75 8.3)"/><path fill-rule="evenodd" fill="#7a4115" d="M-.4 19.05q-3.95-2.25-4-6.55.25-6.6 3.3-9.95l3.35 9.65-2.65 6.85" transform="translate(9.75 8.3)"/><path stroke-width=".05" stroke-opacity=".451" stroke-linejoin="round" stroke-linecap="round" stroke="#422717" fill="none" d="M2.4 11.95Q-.1 17.8 0 23.75m9.35 3.6L12 20.5"/><path fill-rule="evenodd" fill="#7a4115" d="m-5.2-3.1 1.3 2.55L-6-1.7l-.1 2 1.3 2.05 4.15-6L-2.6-6.9l-.6 1.55.1 3.15-2.1-.9M8.25 8l-2.2-1.85 2.35.25-.75-1.9-2-1.35-1.3 7.2 3.15 2.2-.15-1.7L6 8h2.25" transform="translate(9.75 8.3)"/><path fill-rule="evenodd" fill="#6b3812" d="m4.45-3.3 1.3 7.2 3.85-.1L9 2.25 6.75.45 9.1-1.2l-2.8-.15L8.75-2.8 7.5-4.15l-3.05.85m-9.2 7.2L1-.1l.6-4.55-1.3 1.2L-1.45-.1l-.9-2.25-.6 3.35-.7-2.4L-4.9.55l.15 3.35" transform="translate(9.75 8.3)"/></g><g id="n"><path fill-rule="evenodd" fill="#8e5529" d="m-2.6.85 2.65-2.7q1.1-1.1 2.55-.8l.2.1L1.45 3.3q1.6 8.7 3.5 16.15-3.15 1.05-8.35 1.7l-1.5 1.75Q-8 15.65-6.2 8.85q1.65-6.3 3.6-8" transform="translate(9.4 4.7)"/><path fill-rule="evenodd" fill="#7a4115" d="M4.95 19.45Q3.05 12 1.45 3.3L2.8-2.55Q7.6-.1 9.05 4.4q1.35 6.45.65 14.1l-4.75.95" transform="translate(9.4 4.7)"/><path stroke-width=".05" stroke-opacity=".451" stroke-linejoin="round" stroke-linecap="round" stroke="#422617" fill="none" d="M18.45 9.1q1.35 6.45.65 14.1M6.8 5.55q-1.95 1.7-3.6 8-1.8 6.8 1.3 14.05"/><path fill-rule="evenodd" fill="#8e5529" d="m-6.8 15.65 2.45-9.45-3.2-3.1-.15 2.2 1.2 3.9-2.55-.1 2.25 2.5-2.6-.4.55 2.5 2.05 1.95m3.2-9.6L.15-.8-2.2-4.7l-.45 1.85L-2.2.8-4.5-.3l1.55 2.95-2.2-1.35.1 2.35 1.45 2.4" transform="translate(9.4 4.7)"/><path fill-rule="evenodd" fill="#7a4115" d="M-2.15 1.9-.4 4.85-2.7 3.5l.25 2.3 1.7 2.45 3.2-6.85L-.2-2.45l-.35 1.8.7 3.7-2.3-1.15" transform="translate(9.4 4.7)"/><path fill-rule="evenodd" fill="#7a4115" d="M-3.65 9.2-.9 11h-2.45l1.2 2 2.5 1.4-.65-8.15-3.85-2.15.6 1.85L-1.3 9l-2.35.2" transform="translate(9.4 4.7)"/></g><g id="o"><path fill-rule="evenodd" fill="#8e5529" d="m-4.55 7.95 1.45-1.9-.4-3.75-2.05 3.3 1 2.35" transform="translate(5.55 1.3)"/><path fill-rule="evenodd" fill="#7a4115" d="m-3.5 2.3.4 3.75-1.45 1.9 3.05-.25L-.2 6l-.25-3-3.05-.7" transform="translate(5.55 1.3)"/><path stroke-width=".05" stroke-linejoin="round" stroke-linecap="round" stroke="#4f1600" fill="none" d="m5.1 4.3.25 3M1 9.25 0 6.9m5.35.4L4.05 9 1 9.25"/><path fill-rule="evenodd" fill="#8e5529" d="m-2.75 10.3 1.45-1.65-1.95-3.35-1.45 2.75 1.95 2.25" transform="translate(5.55 1.3)"/><path fill-rule="evenodd" fill="#7a4115" d="m-3.25 5.3 1.95 3.35-1.45 1.65 2.15.05L1.2 8.5-.3 5.85l-2.95-.55" transform="translate(5.55 1.3)"/><path stroke-width=".05" stroke-linejoin="round" stroke-linecap="round" stroke="#4f1600" fill="none" d="m5.25 7.15 1.5 2.65m0 0-1.8 1.85-2.15-.05L.85 9.35"/><path fill-rule="evenodd" fill="#fbf4ce" d="M.75 10.65-.2 9q-1.45-.1-2.15 1.65 1.55 1.15 3.1 0" transform="translate(5.55 1.3)"/><path stroke-width=".05" stroke-linejoin="round" stroke-linecap="round" stroke="#bcb58f" fill="none" d="m6.3 11.95-.95-1.65q-1.45-.1-2.15 1.65 1.55 1.15 3.1 0z"/><path fill-rule="evenodd" fill="#8e5529" d="m-4.9 5.1 1.95-1.65L-1.8.35q-1.9.3-3.15 1.9-.55 1.7.05 2.85" transform="translate(5.55 1.3)"/><path fill-rule="evenodd" fill="#7a4115" d="m-1.8.35-1.15 3.1L-4.9 5.1l3.15.5L0 4.35.35 1.2-1.8.35" transform="translate(5.55 1.3)"/><path stroke-width=".05" stroke-opacity=".451" stroke-linejoin="round" stroke-linecap="round" stroke="#422517" fill="none" d="M.65 6.4Q.05 5.25.6 3.55M5.9 2.5l-.35 3.15L3.8 6.9.65 6.4 5.9 2.5z"/><path fill-rule="evenodd" fill="#8e5529" d="m-3.55 7.9 1.8-1.25-1.1-4.05-2.2 2.3 1.5 3" transform="translate(5.55 1.3)"/><path fill-rule="evenodd" fill="#7a4115" d="m-2.85 2.6 1.1 4.05-1.8 1.25 2.15.75 2.15-1.4-.8-3.1-2.8-1.55" transform="translate(5.55 1.3)"/><path stroke-width=".05" stroke-opacity=".451" stroke-linejoin="round" stroke-linecap="round" stroke="#422417" fill="none" d="m5.5 5.45.8 3.1m0 0-2.15 1.4L2 9.2l-1.5-3"/><path fill-rule="evenodd" fill="#fbf4ce" d="m-.2 9.4-.55-2q-1.4-.6-2.55 1 1.35 1.65 3.1 1" transform="translate(5.55 1.3)"/><path stroke-width=".05" stroke-linejoin="round" stroke-linecap="round" stroke="#bcb58f" fill="none" d="m5.35 10.7-.55-2q-1.4-.6-2.55 1 1.35 1.65 3.1 1z"/><path fill-rule="evenodd" fill="#7a4115" d="M2.2-1.05.9 2.85l-2.65 1.4 3.1.35 2.25-1 .35-4.35-1.75-.3" transform="translate(5.55 1.3)"/><path fill-rule="evenodd" fill="#8e5529" d="M-1.75 4.25.9 2.85l1.3-3.9Q-.55-2-2 .85l.25 3.4" transform="translate(5.55 1.3)"/><path stroke-width=".05" stroke-opacity=".451" stroke-linejoin="round" stroke-linecap="round" stroke="#422217" fill="none" d="M9.5.55 9.15 4.9m-5.35.65-.25-3.4"/><path fill-rule="evenodd" fill="#8e5529" d="M1 2.55-1.8 4.2-.7 7l1.95-.8L1 2.55" transform="translate(5.55 1.3)"/><path fill-rule="evenodd" fill="#7a4115" d="m-.7 7 2 .55 1.9-.85.35-3.3L1 2.55l.25 3.65L-.7 7" transform="translate(5.55 1.3)"/><path stroke-width=".05" stroke-linejoin="round" stroke-linecap="round" stroke="#4f1600" fill="none" d="m8.75 8 .35-3.3M4.85 8.3l2 .55L8.75 8m-5-2.5 1.1 2.8"/><path fill-rule="evenodd" fill="#fbf4ce" d="M-.2 6.9q1.2 2 2.9 2l.15-2.75Q1.55 5.8-.2 6.9" transform="translate(5.55 1.3)"/><path stroke-width=".05" stroke-linejoin="round" stroke-linecap="round" stroke="#bcb58f" fill="none" d="M5.35 8.2q1.2 2 2.9 2l.15-2.75q-1.3-.35-3.05.75z"/><path fill-rule="evenodd" fill="#7a4115" d="m3.95 1.55 2.45 2.3.95 1.3L9.45 5l1.85-1-.45-1.95-.9-2.55L6-.35l-2.05 1.9" transform="translate(5.55 1.3)"/><path stroke-width=".05" stroke-opacity=".451" stroke-linejoin="round" stroke-linecap="round" stroke="#422317" fill="none" d="M16.4 3.35 15.5.8m-6 2.05 2.45 2.3.95 1.3L15 6.3l1.85-1-.45-1.95-6.9-.5z"/><path fill-rule="evenodd" fill="#fbf4ce" d="M7.9 5.15q.6-1.4 2.55-.5.05 1.55-1.65 2.3l-.9-1.8" transform="translate(5.55 1.3)"/><path stroke-width=".05" stroke-linejoin="round" stroke-linecap="round" stroke="#bcb58f" fill="none" d="M13.45 6.45q.6-1.4 2.55-.5.05 1.55-1.65 2.3l-.9-1.8z"/></g><g id="E"><path stroke-width="2" stroke-opacity=".49" stroke-linejoin="round" stroke-linecap="round" stroke="#1f1510" fill="none" d="m187.15 124.5 1.1.25.1-.65 3.75-1.55v.1l1.45-1.1 5.65-.35-2.55 5.95 6.7-4.35-2 6.15 8.9-1.35 4.55 1.05-7 5.35q4.65 3.25 9.6 7.6l1.85 1.7h.15l1.3.5-2.95-4.25 4.35.15 6.35 6.5h.05l1-.15h-.1l-1.3-10 3.8 2.25 4.95 6.75 2.8-5.35 1.35 6.55.4.15 2.15-5.05 3.5 3.9.3 2.3 9.4 1.8.1.05v.1l2 2.55.15.1q8.8 5.35 15.5 12.55l1.55-3 .85 5.7h.05l.05.05.2.25 1.1.4 1.6-4 3.45 5 .15 1.75h.05l2.7 1.75 1.55-8.5 3.65 4.55 3.4 10.1 5.35-4.15-.9 8.7 4.85-4.8 2.75 6.25-1.4 7.25q4.35 7.15 6.65 16.15v.05l.6.25.05-.05h.05l.05.1 1.7 6.65v.05l.5.25v-.05h.1l.05.05v.05l-.65 8.35v.05l-.95.75.8.5.05.05v.05q-1.5 5-6.75 4.75l-.05-.05h-.05l-.4-3.4-4.05-1.1-.05-.05q-.7 2.1-2.4 3.4h-.15l-3.6-4.55-1.1.2h-.05l-.05-.05-5.75-6.85-.55-.45-3.1 1-1.6.8-.55 3.45.3 4.6v.05l-1.1.7.9 5.55v.1h-.05q-4.85.85-7.35-2.9l-.05-.1h.05l.2-.4-3.1.15-.05-.05-.05-.05-2.3-5.15-2.3-7.35.05-.05.05-.05h.05l.05.05.15-.1q-9.6-12.25-15.25-24.85v-.1h.1q-1.05-3.35-1.3-6.75l-3.15-1.85-.1.05-8.5 1.05h-.05l-.1.45.05.05v.05l-.5 4.65.1 15.1 4.1 1.4 4.25 5.5-8.4-.7v.15l9.35 5.15-8.3-.05 4.15 4.5 5.1 3.3 1.7 6.5-10.35-3.75 8.5 8.3-10.25-2.95 3.95 10.2-.9 5.1-5.85-5.1-.35 1.55-.05.05 6.8 11.5-3.55.2-1.8-1.35 2.45 9.95.65-.4 2.2 3.3 5.6 3.55-2.35 1.5 1.15 1.7-4.1.45q3.4 7.25 3.25 12.75 2.35 1.8 3.7 5.5v.05q-.05 1.75-.5 3.35l-.05.05q1.5 3.35-.05 6.25l-4.7-1.4v.05l-.05.05-3.5.55q-3.3-.95-5.5-2.2-.2 1.75-1.25 3.1l-.05.05-.4.15h-.05l-.1.6q-.35.7-3.5 3.05-3.05-.95-4.05-2.7l-.05.05-2.2-.3q-.75-.35-2.1-4.35-.3 1.15-1.3 1.7l-.1.05-.25.85q-.6 1.35-3.8 3.35-3.7-1.45-4.75-3.9l-.05.05-1.15-.5h-.05l-.05-.1q-.05-2.15-.8-5.85l.05-.1.05-.05q0-3 1.5-5.35l-.05-.05q-3.9-6.8-4.3-14.55l-1.5-2.65-.35-1.75-.6-1.4-5.15-5.75.4 7.3-.55-.55-.05 6.9-1.45-3.35.05 2.15-4.1-3.55-.55 1.75.1 1.8-.5-.45-1.1 3.7-3.55-3.85q-.2 2-.85 3.85-1.65 4.8-20.05 8.2-3.65 2.6-8.2 4.15l-.05-.05-.1-.05v-.05l-2.4-.5v.2l-6.3 2.35q-1-2.65.65-5.95l-2.15.95-1.85-1.35-5.6 1.95q-.95-2.3.2-5.05l-2.75.25q-.45-3.7 3.7-7.15v-.55h-.1l-.05-.1.05-.1q2-1.85 3.9-2.95l-2-2.8 2.25-4.7-3.45 1.75 2.45-3.85-.45-1.45-4.35 2.55-.4-4.45 4.9-4.6.7-1.45-.25-2.9v-.05q4.65-9.3 11.4-15.8h.05l-.35-.45 3.8-10.7-.05-.15q-2.1-4.4-4.3-8.1l-.05-.05.05-.1h.15l1.75-10.35-2.95 2.85v.1q-1.3 1.9-2.15 2.25v.05l-.05.05-1.1.45h-.05q-6.3.9-8.3-1.15l-.05-.05-1.95-4.7v-.05l2.3-6.35-4.05-6.2-2.25 1.15-.05.05-4.35-.5q-1.2 1.7-3.05 2.4l-1.4-3.45h-.15l-2.4-.9v-.05h-.05l-.65-3.35.05-.05.05-.05-.05-.7-.1-.05-.05-.1q-.2-2.85.45-5.4l.05-.1h.05q-.8-2.7.15-5.4l2.65-1.15v-.05l.15-.7v-.05q1.45-3.4 2.4-7.35l.55-2.6.65-3.95-.7-.6q-1.35-1.8-.25-3.95v-.05.05l.6-1-3.8-1.1v-.1h-.05l.05-.1-4.4-8.6-1.1-2.35-4.95.4-6.55 3.3-.05.05-.05-.05-.75-.85-2.9 1.65q-1.7-3.1-.65-6l-.05-.05-.05-.05.75-5.55v-.05l3.45-2.55-2.7.25-.1-.05-.05-.05-.4-1.05-3.6.35q-.55-3.45 1.65-5.75l-.05-.05.05-.1 2.85-4.85.05-.05 2.8-.65-2.05-1.1q1.65-3.65 6.65-4.65h.05l1.3-1.7v-.05h.05l8.05.45 5.55 2.15 2.95-.2h.05l4.1-4.4 6.7-1.55-1 6.8 6.5-5.95-.2 6.8 10.1-3.25 5.85.25-6 6.35 3.05 1.1.05.05 1.7-1.1 6.1-.2-2.4 3.95 1 .6.05.05 3.1-1.65 1.25-4.9 3.2-3.7 3.85 10.35q2.45-.8 4.7-1z"/><path fill-rule="evenodd" fill-opacity=".302" fill="#33170a" d="m-60.75-123.95 1.4 1.35-4.5 4.9-.45 1.45 6.3-4 9.1 2.05 3.95 8.1 4.4-8.5 11.5 1.25-9.25-3.45q-2.2-1.6-2.5-4.7l-.9.3-8.5 2.05-2.5-4.15q-3.45 2.6-8.05 3.35m48.1 25.5-4.65 5-6.2-8.55-8.9 9.2.85 8.35 9.1 12.95 7.9 1.75 6.1 11.45 5.5 1-1.4-11.6 10 6.65 3.15-14.6 6.05 7.75 1.85-8.65 7.7 8.25-1.6 13.35 4.3 5.55 5.9 2.05 1.75 15.4-1.1 5.35.05.1 3.7 3.2.75 12.5 6 7.35 4 2 1.2 8.4 2.1 2.4 8.75-.2-2.05-7.1 1.2-2.1-4-7.4-3.5-11.7 3.5.15-.7-2.2 2.7-.2-6.3-4.45L46.6-39.3l4.85 1L44.2-50l.3-.4 6.45 3.85 1.3-4.15-4.1-10.75 9.3 2.65-7.25-8.4 10.3 4.75L58.45-70l-6.4-2.9-2.4-4.35 7.55.15-9.25-5.75 8.8.75L53-87.15l-4.85-1.6.6-20.05-11-6.75-6.7 3.4L20.4-110l-14.95-6.2-2.75.4 2.95 4.6-2.05 3.25-8.15-2.85L-1-104l-9.6-1-2.05 6.55m-20.4 54.7v10.6l-4.2 4.95 5.6 9-4.2 6.4v4.55l3 6.4 9.35-4.8 16.4-4.75 4.15-7.4 3.6 3.2 2.4-3.8-7.6-17.75L-9.7-25.2v-14.35l-5.2 11.75-4-8.35v-6l-8.95-8.8-5.2 7.2" transform="translate(192.55 294)"/><path fill-rule="evenodd" fill-opacity=".302" fill="#33170a" d="m1.6-45.05 17.45 3.7 6.85-8.85-4.45.4-7.05 3.75-.95-5.9L9.5-46.2l-.4-6-4.7 1.9-2.8 5.25" transform="translate(192.55 294)"/><path fill-rule="evenodd" fill-opacity=".302" fill="#33170a" d="m-12.55-59.1.75 6.4 6.2-6.05-3.55 9.65 6.45-5.3.2 10.3 2.15 4.4L5.2-52.45-8.9-67.1l-3.65 8" transform="translate(192.55 294)"/><path fill-rule="evenodd" fill-opacity=".302" fill="#33170a" d="m-1.3-37.25 3.6 4.85L5-40.85l1.3 9.95 3.2-8.05 5 8.5L18.45-28l-1-13.8-19.25-4.25.5 8.8M-37.25-52.6l1.6 5 5.95-8.7-2.65 10.25 6.25-8.25 1.55 8.75 2.9 2.5 4.4-14.2-17.1-4.4-2.9 9.05M69.2-109.55l-4.5 7.65.7 6.6 7.5-5.1-4.45 9.25 7.75-4.35v10.65l2.5 4.9 6.95-12.2-.2-.15 4.65-3.35-.05-4.7-7.1.4 4.8-4.45-7.25-.2-4.3-9.6-3.1-3.9-3.9 8.55m-26.85-23.4-1.75 5.1 3.75 4.35 6.3-3.35-1 6.15 6.95-2.9 4.7 7.1 5.05 3.25 2.5-8.15-.3-.05 3.85-2.25-2.15-3.1-7.95.25 3.5-3-8.35-.1-9.15-6.4-5.3-2.6-.65 5.7" transform="translate(192.55 294)"/><path stroke-opacity="0" stroke-linejoin="round" stroke-linecap="round" stroke="#f0f" fill="none" d="M187.95-293.5v380h-380v-380h380" transform="translate(192.55 294)"/><path stroke-opacity="0" stroke-linejoin="round" stroke-linecap="round" stroke="#f0f" fill="none" d="m187.95-293.5-190 190 190 190m-380-380 190 190L-192 86.5M92.95-38.4H-97" transform="translate(192.55 294)"/></g><use xlink:href="#a" width="19.55" height="25.2" id="p"/><use xlink:href="#b" width="15.15" height="13.4" id="q"/><use xlink:href="#c" width="18.6" height="13.25" id="r"/><use xlink:href="#d" width="17.45" height="13.2" id="s"/><use xlink:href="#e" width="11.55" height="8.1" id="t"/><use xlink:href="#f" width="34.35" height="31.55" id="u"/><use xlink:href="#g" width="32.1" height="30.35" id="v"/><use xlink:href="#h" width="31.3" height="43.05" id="w"/><use xlink:href="#i" width="28.2" height="28.85" id="x"/><use xlink:href="#j" width="15.4" height="18.55" id="y"/><use xlink:href="#k" width="15.95" height="11.05" id="z"/><use xlink:href="#l" width="15.35" height="7.6" id="A"/><use xlink:href="#m" width="19.35" height="28.6" id="B"/><use xlink:href="#n" width="19.35" height="27.6" id="C"/><use xlink:href="#o" width="16.85" height="12.5" id="D"/></defs><path fill="none" d="M-1-1h216v203H-1z"/><use x="-76.138" y="-19.656" xlink:href="#p" width="19.55" transform="matrix(-.5015 -2.5694 -2.5694 .5015 .387 -140.898)" height="25.2"/><use x="-76.138" y="-19.656" xlink:href="#q" width="15.15" transform="scale(-2.6179 2.6179) rotate(-78.956 -24.453 -38.856)" height="13.4"/><use x="42.162" y="-41.02" xlink:href="#r" width="18.6" transform="matrix(-2.6262 0 -.1795 2.6262 190.554 251.882)" height="13.25"/><use x="44.436" y="-35.497" xlink:href="#s" width="17.45" transform="scale(-2.625 2.625) rotate(-7.565 632.21 607.027)" height="13.2"/><use x="42.162" y="-41.02" xlink:href="#t" width="11.55" transform="matrix(-2.6262 0 -.1795 2.6262 170.77 271.503)" height="8.1"/><use x="-37.174" y="65.129" xlink:href="#u" width="34.35" transform="matrix(-2.7198 -.4194 -.1907 2.613 62.286 -88.756)" height="31.55"/><use x="-28.936" y="71.103" xlink:href="#v" width="32.1" transform="matrix(-2.6477 -.3146 .1698 2.4847 46.056 -152.361)" height="30.35"/><use x="-.158" y="-.167" xlink:href="#w" width="31.3" transform="matrix(-2.8611 0 -.0206 2.7176 126 7.45)" height="43.05"/><use x="39.359" y="-41.02" xlink:href="#x" width="28.2" transform="matrix(-2.6262 0 0 2.6262 200.416 135.22)" height="28.85"/><use x="-.031" y="-.205" xlink:href="#y" width="15.4" transform="matrix(-2.6238 -.0466 .3956 2.2219 137.586 131.717)" height="18.55"/><use x="34.723" y="-41.02" xlink:href="#z" width="15.95" transform="matrix(-2.6262 0 .2968 2.6262 248.824 263.732)" height="11.05"/><use x="-36.146" y="-44.5" xlink:href="#A" width="15.35" transform="matrix(2.6141 -.243 .1994 2.6182 210.344 288.11)" height="7.6"/><use x="17.478" y="76.572" xlink:href="#B" width="19.35" transform="scale(-2.621 2.621) rotate(38.377 85.333 -59.274)" height="28.6"/><use x="14.089" y="77.257" xlink:href="#C" width="19.35" transform="scale(-2.6213 2.6213) rotate(35.855 71.334 -79.907)" height="27.6"/><use x="13.051" y="70.537" xlink:href="#D" width="16.85" transform="matrix(-2.1452 1.5068 1.6542 2.3549 108.955 -101.774)" height="12.5"/><use x="88.686" y="185.773" xlink:href="#E" width="381" transform="translate(-192.55 -294)" height="381"/></svg>