<svg width="145" height="348" xmlns="http://www.w3.org/2000/svg" xmlns:xlink="http://www.w3.org/1999/xlink"><defs><linearGradient y2=".094" y1=".246" x2=".873" x1="-.014" spreadMethod="pad" id="a"><stop stop-color="#91805b" offset="0"/><stop stop-color="#555402" offset="1"/><stop stop-color="#565200" offset="1"/></linearGradient><linearGradient y2="-.218" y1=".279" x2="3.195" x1="-.053" spreadMethod="pad" id="b"><stop stop-color="#af9e85" offset="0"/><stop stop-color="#555402" offset="1"/><stop stop-color="#565200" offset="1"/></linearGradient><linearGradient y2="-.719" y1="-.454" x2="-.166" x1="-1.492" spreadMethod="pad" id="c"><stop stop-color="#a65233" offset="0"/><stop stop-color="#c7690e" offset="1"/><stop stop-color="#c7690e" offset="1"/></linearGradient><linearGradient y2="1.636" y1="1.636" x2="-.225" x1="1.203" spreadMethod="pad" id="d"><stop stop-color="#cf6247" offset="0"/><stop stop-color="#7e4501" offset="1"/><stop stop-color="#c7690e" offset="1"/></linearGradient><linearGradient y2="-13.861" y1="-13.861" x2="139.252" x1="-178.884" spreadMethod="pad" id="e"><stop stop-color="#b05635" offset="0"/><stop stop-color="#c7690e" offset="1"/><stop stop-color="#81440a" offset="1"/></linearGradient><linearGradient y2="-2.865" y1="-2.181" x2="2.097" x1="-.46" spreadMethod="pad" id="f"><stop stop-color="#79684f" offset="0"/><stop stop-color="#555402" offset="1"/><stop stop-color="#565200" offset="1"/></linearGradient><g id="h"><path fill-rule="evenodd" fill="#ffbe06" d="m33.25 66.3 4.6-7.45V56.8l3.7-4.95 4-1.55 2.4-8.85q-2.7-1-2.75-2.5 0-1.05 1.35-2.3l.15-.15-12.75-13.25q-.1-6.1 4.4-8.4l3.2 5.8q-1-2.65-1.5-4.95l-.45-2.1Q37.7 1.25 50.5.15l4.65-.1q5.3 1.4 9.9 4.15 8.65 5.25 14.7 15.45l.7.6q9.5 7.9 25.7 9.6 8.55-1.45 12.05-4.6l-.4 2.05q-1.15 3.5-5.05 5.15 3 1.75 8.55 2.2 3.65.25 8.45 0-5.15 3.05-11.55 2.8-5.8-.25-12.55-3.2l-.5-.2 12.4 7.8-1.05-.4-.25-.1-11.45-4.5h-.05l.1.1.7.8q2.9 2.55 5.45 6.2l.75 1.1-6.2-7.3-.85-.7-.05-.05-1.65-1.2q-3.85-2.6-8.25-3.55-12.35.4-21.7-3.6-4.45-1.95-8.2-4.85 4.25 7.8-2.4 12.95l-2.7 1.7-2.7 1.6 3.1 1.2 1 .8q4.4 3.65 2.15 6.75l3.4 1.95q1.25 3.3 3.6 6.25 1.1.15 1.65.6.95 4.3 2.3 8.35l8.05-5.25 32.7-6.65q-.5 1.6-2.05 2.95-2.6 2.15-8.05 3.6l-12.7 8.15-8.2 7.3 2.15 3.6q.45 2.85-.8 4-.7.7-2 .8L77.6 81.2l-.15-.1-.05.35-3.1 14.6-3.35 4.7.8 6.45 13.75 5.75 6.85 3.65q3.05 7.55.6 17.75l4.85 17.3 1.9 4.45 6.05 14.05 2.35 5.5v12.55l7.25-7.85L119.8 166l1.95 1.05q2.65 1.25 4.4 1.15l.3-.05q2.85-.4 3.15-4.85l-.1-2.95q-.2-8.1-2.35-16.65-1.6-6.2-4.2-12.6l-2.85-6.5-2.3-4.6v-3.45h-3.05Q112 106.05 102.3 96l-5.9-5.45 1.35.65q2.25 1.05 4.55 2.35 8.95 5 18.3 12.75 4.7 6.4 8.5 12.45 5.8 9.3 9.45 17.8l3 8.15q5.45 17.2 1.15 31.05-2.45 7.75-8 14.45 1.05-6.45-2.6-11.3l-1.55-1.25q-2.7-2.05-4.65-2.2l-1.4.2q-1.75.6-2.7 3.35-.8 2.3-1 6.15l-2.8.1q-2.55 1.05-3.65 5.95l-1.8 4.45v5.85l-3.05 5.65v3.45l-6.4 4.05-.25.15 1.7 2.1 1.75 2.15-1.85 2.15-.05.1-1.95 2.2-10.5-2.65 12.85 46.65 1.2 13.4 1.15 13.4-6.45 3.15-.9.4-3.65 1.5v9.1l-1.1-.15-1.05-.15.95.4 3.1 1.15v5.4l6.25 9.9 1.8 2.85 2.45 3v4.85h-3.45v.85l-3.65.35h3.65v-.35l6.25-.65v7.05l-4 .4v8.9l-22.8 2.4-.3-8.95-2.95.3v-7.05l-.2-4.05q.05-4.5.95-6.85l-.55-7.7h1.6v-8.45h-1.35V303l-10.1-.4-.3-7.9q-2.2 1.25-4.15 2.1-8 3.4-11.6-.05V267.1q-4.35 9.35-5.45 23.4l-.3 1.2.1.35-.9 6.2q.45 5.5 4.8 10.05v4.35l-1.05.6 2.25 2.1v3.9l-3.55 1.2.05 9.5-5.85 2.3-5.15-8.05-6.5 2.2v9.25l-5.85 2.3-5.1-7.85-1.35.45-8.9-8.7-.2-4.3 3.8-1.25v-1.65l1.6-2.1h2.2q4.65-.95 8.45-3.55l.55-.5q5.75-5.6 6.95-11.6.15-3.9-.05-7.85l-.25-3.15q-1.15-11.65-5.55-24.1l-5.75-2.05 2.5-14.95-2.7 3-2.55 8.75-2.7-3.2v-41.7h.8l.7-4.25-6.75-.8-5.25-5.05-.55-9.05q-2.05-4.15 1.15-10.55-2.2.15-3.95 1-2.85 1.4-4.3 4.85-3.25-17.9 4.95-42.6l.1-.35q9.2-26.55 24.85-42.7l-2.25-3.75v-4.6l.75-.15q-1.1-3.85-.85-7.7 1.3.85 1.35 2.6.6 1.8 2.6 3.25v-4.5l-.15.1-.2.1q-.75-2.45 0-4.1.1-.75 1.35-1.9l-3.85.2-10.9-7.05-12-10.05L0 58.95l3.55.8.3.05 22.4 5 6.05 3.4.5-.95.45-.95m55.55 70.9-1.5-.45h-.05l-11.95-3.7 2.15 5.25 3 5.45-3-5.45-2.15-5.25 11.95 3.7h.05l1.5.45m-7.95 8.45-.4-1.9q-5.25 8.2-12.3 12.55V169l1.3 2.4h3.35l5.65 3.7v6.85h-2v1.85l9.05 20.1 2.45-4.8.25-2.25-1.9.2-4.45-11.7 3.65-2.4v-8.7h3.85l-4.45-10.2 3.25-1.75v-2.6q.35.3-.2-2.2-3.9-3.25-5.9-8.1l-.2-.45-1-3.3M54.6 74.15l-.1-.2Q51.75 76 48.35 76.9l-1.95.35q-4.3 1.05-5.5 3.45l-1.45 2.7q-4.7 1.35-7.3 0 2.6 1.35 7.3 0l1.45-2.7q1.2-2.4 5.5-3.45l3.75-6.2q-.4-2.1-1.55-3.6l-.25-.3Q48.25 67 50 61.6l-4.15 3.5-3.1-.85-2.85.65-4.15.85-3.45 4.75v2.35l2.65-3.2 4.8-3.2q1.9.25 3.35 1 1.1.6 2 1.6 1 1.15 1.65 2.8-1.7 4.25-5 7.5-3.35 3.25-8.25 2.15 4.9 1.1 8.25-2.15 3.3-3.25 5-7.5-.65-1.65-1.65-2.8-.9-1-2-1.6-1.45-.75-3.35-1l-4.8 3.2-2.65 3.2V70.5l3.45-4.75 4.15-.85 2.85-.65 3.1.85L50 61.6q-1.75 5.4-1.65 5.55l.25.3q1.15 1.5 1.55 3.6l-3.75 6.2 1.95-.35q3.4-.9 6.15-2.95l13.9-8.7q3.65-.95 5.85.7-2.2-1.65-5.85-.7l-13.9 8.7.1.2.75 1.6-.75-1.6q-.45.5-.45.85 0-.35.45-.85M45.55 50.3l9.15-3.45h3.05q3.75.6 5.55 1.95-1.8-1.35-5.55-1.95H54.7l-9.15 3.45m1.15-13.8.9-1.7q.75-1.55 4.25-1.2l1.05.1 4.15 3.75v2.6l-3.1-1.2-6 2.6 6-2.6 3.1 1.2v-2.6L52.9 33.7l-1.05-.1q-3.5-.35-4.25 1.2l-.9 1.7M34.5 78.9l-2.2-6.05 2.2 6.05-1 2.6-1.75-1.45 1.75 1.45 1-2.6-3.6-1.7-10.7-8.4-13.45-4.2 13.45 4.2 10.7 8.4 3.6 1.7m-2.2-8.4v-2.3 2.3m10.45-6.25-.7-2.65-2.15 3.3 2.15-3.3.7 2.65m22.1-40.45q-1.15-2.05-3.1-4.35 1.95 2.3 3.1 4.35m67.9 148.25-6.6-3.85 6.6 3.85m-27-1.9-16.4 4.1 16.4-4.1M99.7 156.1l-11.55 6.2 11.55-6.2m-5.65-1.15-6.1 2.55 6.1-2.55m-23.65-82h-4.65l-10.4 2.8 10.4-2.8h4.65l.4.5-.4-.5m11.6 4.9-.7.6h-1.8l-2.05 2.65 2.05-2.65 4.05 3.4-1.55-4-1.05-2.6 3.05.8-3.05-.8 1.05 2.6m-8.05 2.5q.65 2.1 3.35 1.1h.1l-.45.6.45-.6h-.1q-2.7 1-3.35-1.1M104.9 60.6 83.7 66l-6.85 6.65L83.7 66l21.2-5.4m-41 41.5-3.9.5-8.35 2.4 8.35-2.4 3.9-.5.8-.1.85-.15-.85.15-.8.1m-8.65-18.95q-2.55-1.4-3.9.4l-1.05 1.4-.75 1 .75-1 1.05-1.4q1.35-1.8 3.9-.4m-.6 32.95h4.3l1.15-1.6-1.15 1.6h9.4l6.35-1.15q4.1-.15 6.55-1.2-2.45 1.05-6.55 1.2l-6.35 1.15h-13.7m-4.6-8.15 1.6-2.95H45l-10.6-2.75-2.9-.7-.6.6.6-.6 2.9.7-9.6 18.4Q14.4 143 12.5 157.5q-1.7 13.15 3.65 19.8.7 7 6.4 10.5l.25.15 1 .55v-16.95q2.3-3 4.6-1.65.9.45 1.8 1.65-.6-1.3-.95-2.95v-7l1.5 1.7v-2.75l1.9 1.4 2-1.4-2 1.4-1.9-1.4v2.75l-1.5-1.7v7q.35 1.65.95 2.95-.9-1.2-1.8-1.65-2.3-1.35-4.6 1.65v16.95l-1-.55-.25-.15q-5.7-3.5-6.4-10.5l8.45-16.1v-6.7h2.9l7.45 2.6.3-3.45-1.8-9.05-2.6-2.8 2.6 2.8 1.8 9.05-.3 3.45-.3 3.45 1.25-1 3.3 9.45q2.75-2.2 4.75 2.25-2-4.45-4.75-2.25l-3.3-9.45-1.25 1 .3-3.45-7.45-2.6 3.35-12.7-2.6-2.85.8-3.95-1.6-6.7q1.1-10.65 6.65-15.95h4l1.55-.55 10.4-3.85-1.65 4.4 1.65-4.4m-8.7-23q-.15-.75.15-.9h.05q.75-.15 3.45 2.2-2.7-2.35-3.45-2.2h-.05q-.3.15-.15.9m25.4 8.15Q58.9 91.6 52 91.15q-4.6-.3-8.8-.15l-9.35 1.8-1.35-1 1.35 1L43.2 91q4.2-.15 8.8.15 6.9.45 14.75 1.95m1.6 23-3.85.7.75 1.05-.75-1.05 3.85-.7m-15.2-9.65 2.4 2.6-2.4-2.6m-8.4 31.5v-3.4q.9-6.3 2.8-9.95l1.25-4.6-1.25 4.6q-1.9 3.65-2.8 9.95v3.4M29.4 93.65l4.45-.85-4.45.85M39.45 83.4q-4.5 1.45-7 3.85l-.1.15.1-.15q2.5-2.4 7-3.85m-1.35 31.15q-1.85 2.25-3.6 5.3-3.45 6.3-5.45 15.15 2-8.85 5.45-15.15 1.75-3.05 3.6-5.3m31.35 56.85 1.35 2.45-5.85 5.1-3-.4-5.85 3.4h-4.85L49 184.6l-5-3.45-1.2-7.3q-1.2-.7-2.2-.7-1.25-.05-2.25.95l-.75.9-.85 1.5q-4.65-.9-6.55-4.95l.05 5.35-1.9.4q-.7.25-1.2.85-1.15 1.35-1.15 4.2-2.1-1.55-2.2-4.1.1 2.55 2.2 4.1 0-2.85 1.15-4.2.5-.6 1.2-.85l1.9-.4-.05-5.35q1.9 4.05 6.55 4.95l.85-1.5.75-.9q1-1 2.25-.95L39.2 169l1.4 4.15q1 0 2.2.7l1.2 7.3 5 3.45 2.25-2.65h4.85l5.85-3.4 3 .4 5.85-5.1-1.35-2.45M8.1 192.5l4.55-12.4 3.5-2.8-3.5 2.8-4.55 12.4m34.45-26.9 2.65-11.3-2.65 11.3m33.9 16.35v-3.4l-3.2-4.7H70.8h2.45l3.2 4.7v3.4m-27.85-67.2-8.95-2.95 8.95 2.95M106 280.9l-6.55 4.35q-3.1 1.75-6.3 3.05-4.5 1.8-9.3 2.75L71.2 292l.15 2.7-.15-2.7-.45-6.2-4.25 3.4q-6.35 3.95-10.9-.1 4.55 4.05 10.9.1l4.25-3.4.45 6.2 12.65-.95q4.8-.95 9.3-2.75 3.2-1.3 6.3-3.05l6.55-4.35m-62-99.75h-4.25l-2 5.15-1.35 3.4 1.35-3.4 2-5.15-3-.65-1.7 1.15-.65.65q-1.9 2.3-2.1 6.7l3.8 2.7 1.3-.8.35-4.6-.35 4.6-1.3.8-3.8-2.7q.2-4.4 2.1-6.7l.65-.65 1.7-1.15 3 .65H44m11.6 85.95v-5.25l-14.65 1.5-4.85.5-5.75-2.05 5.75 2.05 4.85-.5 14.65-1.5v-8.9 14.15m-31.2-19.3 5.15-17.95-2.45 14.95 2.45-14.95-5.15 17.95m-3.75-40.4 3.15-18.9-3.15 18.9m17.45-5.55-2.55 4.5v1.85l3.15-2.1 3.1-2.15v-2.4l-3.25 2-.45-1.7q-2-5.1-2-10.15 0 5.05 2 10.15l.45 1.7 3.25-2v2.4l-3.1 2.15 5.9 10.35-5.9-10.35-3.15 2.1v-1.85l2.55-4.5m-.7-10.95 1.5 2.5 5.9 2.45q3.25-3.8 4.05-9.6l.15-1.65 3.45 5.2.8 2.05h2.45l6.65-3.65-.65-1.05.65 1.05-6.65 3.65h-2.45l-.8-2.05-3.45-5.2-.15 1.65q-.8 5.8-4.05 9.6l-1.2 2 1.85-.85q1.15-.6 2.35-1.15 3.5-1.85 4.65-6.05-1.15 4.2-4.65 6.05-1.2.55-2.35 1.15l-1.85.85 1.2-2-5.9-2.45-1.5-2.5m-10.25-6.05-.8-.65.8.65Q26 183.3 26 182.7v-.35.35q0 .6 1.15 2.15L32.3 189l-1.15 3.35-.45 1.3-.5 1.4-2.7 8-1.3 4.1-.75 2.3q-3.6 3.05-5.5 2.2 1.9.85 5.5-2.2l.75-2.3 1.3-4.1 2.7-8 .5-1.4.45-1.3L32.3 189l-5.15-4.15m54.35 29.6q-2.65 3.2-5.55 3.9 2.9-.7 5.55-3.9m4-10.55-2.8 2.65 2 7.65.95 2.45-3.15 2.8-1.85-1.4v3.4l3.25 3.95 3.2 3.95v-3.25l4.85-5.25-4.85 5.25v3.25l-3.2-3.95-3.25-3.95v-3.4l1.85 1.4 3.15-2.8-.95-2.45-2-7.65 2.8-2.65m-32.3 5.35 5.9 8 5.65-5.05v-4.05l-5.05-1.8-.85.8-1.15.8q-2.05 1.2-4.5 1.3l-3-.3v-7l-2.2-.45-2.55-4.5 2.55 4.5 2.2.45q1.7 0 3.15-1l1.05-.95 1.3-1.75-2.45-6.4 2.45 6.4-1.3 1.75-1.05.95q-1.45 1-3.15 1v7l3 .3q2.45-.1 4.5-1.3l1.15-.8.85-.8-2.2-5.25-4.15-.15 4.15.15 2.2 5.25 5.05 1.8v4.05l-5.65 5.05-5.9-8m3.5 47.35-1.1-3.65-11-36.5 5.6-7.5-5.6 7.5 11 36.5 1.1 3.65m17.55-41.3-1.9-4.8q-1.45-4-2.45-7.8-1.15-4.4-1.7-8.5l-.2-1.65-.05-.9-.2-3.45-6.05-1.05-2-3.15-3.6-2.05 3.6 2.05 2 3.15 6.05 1.05 1-1 1.25-1.3v-2.3l-5.05-4.65L70 183.6v2.3l-1.25 1.3-1 1 .2 3.45.05.9.2 1.65q.55 4.1 1.7 8.5 1 3.8 2.45 7.8l1.9 4.8m2.2-31.5L70 188.2q-.7-1.05-1.25-1 .55-.05 1.25 1l6.45-4.4M77.6 81.2l1.9-2.75-1.9 2.75M45.65 322.45l5.85-2-5.85 2 .05 9.8-.05-9.8-5.1 1.75 5.1-1.75m9.4-7.1-28.25 9.2.75-.5 3.3-3.25 9.3-3.3 2.85-2.3q3.4.25 6.5-.65l3.3-1.3-3.3 1.3q-3.1.9-6.5.65l-2.85 2.3-9.3 3.3-3.3 3.25-.75.5 28.25-9.2m53.05-129q-1.9 2-3.95 3.6l-1.5 1.15-1.5 1q-2.4 1.5-5 2.55-3.75 1.55-7.95 2.2 4.2-.65 7.95-2.2 2.6-1.05 5-2.55l1.5-1 1.5-1.15q2.05-1.6 3.95-3.6m2.05 12.9v-1.2 1.2m-2.05-11.05 4.45 7.45-4.45-7.45m-67.15 75.15.55 27.1q-.55-13.3-5.4-26.6 4.85 13.3 5.4 26.6l-.55-27.1m-19.4 62.9.2 4.3-.2-4.3-8.9-8.7 8.9 8.7 3.8-1.25q-1.55.2-3.1-.95l-2.2-3.8-1.7-2.3h-1.9v-1.65 1.65h1.9l1.7 2.3 2.2 3.8q1.55 1.15 3.1.95l-3.8 1.25m6.65 2.1 5.85-1.95-5.85 1.95v9.6-9.6l-5.1 1.75 5.1-1.75m56.75-2.95q-1.95.05-2.9 2.65v.05l2.9-2.7q1.45.25 2.7.8 3.5 1.5 5.15 5.25v6.35-6.35q-1.65-3.75-5.15-5.25-1.25-.55-2.7-.8l-2.9 2.7v-.05q.95-2.6 2.9-2.65m-61.25-7.6-3.65 2.45 3.65-2.45-.35-2.15 2.35-4.6 2.5-.25 1.05-2.3-1.05 2.3 5.05-.45 8.2 4.1 1.8-1.2q2.75 1.35 6.25 1.3-3.5.05-6.25-1.3l-1.8 1.2-8.2-4.1-5.05.45-2.5.25-2.35 4.6.35 2.15 2.05-1.45 1.25-2.7q7.55-.95 13.15 3.85-5.6-4.8-13.15-3.85l-1.25 2.7-2.05 1.45m17.75-3.35 1.55.75-1.55-.75m-14.65 10.1-1.45.45 1.45-.45M28.7 309l-.4.35-1.5 1.3-1.1.4 1.1-.4 1.5-1.3.4-.35m69.35 6.1-11.5-3.2H83.1h3.45l11.5 3.2m-14.95 5.25q7.55 2.05 11.95 8.1l3-3.45h6.25-6.25l-3 3.45q-4.4-6.05-11.95-8.1m7.15-19 5.9 1.85-3.05-.35-2.9.05q-4.75.5-8.45 3.55l10.55 1.5 1.7.2-1.7-.2-10.55-1.5q3.7-3.05 8.45-3.55l2.9-.05 3.05.35-5.9-1.85-.8.2-7.7 1.45 7.7-1.45.8-.2 3.8-1.2 2.1-.8-2.1.8-3.8 1.2M107 207.3l-.05-2.05.05 2.05m-15.05 13.55 1.85-2-2.4-5.05h-2.65l-3.1 2.85 3.1-2.85h2.65l-4.45-5.95 4.45 5.95 2.4 5.05-1.85 2m10-11.8v3.8l1.15 1.8-1.15-1.8v-3.8m6.6 121.8-2.3.1L104 330l-1.15-2.15h3.25-3.25L104 330l2.25.95 2.3-.1m-9.5 6.25 2.4-.2-2.4.2 1.95-.2-3.25.3.15-.05-.5.05.5-.05-.15.05h-.2l-.1.05.75-.05.85-.1m-1.95.2.35-.05-.05-.05-2.95-2.65q.15-1.75.85-3.1.65-1.25 1.8-2.15 1.05-.9 2.55-1.45l2.3 2 1.3 6.85-2.25.2h.45-.45l2.25-.2-1.3-6.85-2.3-2q-1.5.55-2.55 1.45-1.15.9-1.8 2.15-.7 1.35-.85 3.1l-1.65 1.35 1.65-1.35 2.65 2.7v.05l-4.25.6 4.25-.6m-5.5.6h1.25l-.05-.1-1.2.1-10.3 1.05 10.3-1.05h-5.05l-5.45-3 5.45 3h5.05m8.05-10.05h3.2-3.2m5.45 7.85v-3.65L104 330l1.1 2.05v3.65m-7.5 1.55h-.5l.3-.05.05.05.1-.05h.2l-.15.05M36.75 176.5v4-4m47.5 169.2 23.1-2.35-23.1 2.35m-54-168.8 4.8 4.75-4.8-4.75" transform="translate(.85 .85)"/><path stroke-width="1.75" stroke-linejoin="round" stroke-linecap="round" stroke="#4f3f24" fill="none" d="M119.05 26.1q1.15-1.1 1.75-2.4M34.1 67.15l4.6-7.45v-2.05l3.7-4.95 4-1.55 2.4-8.85q-2.7-1-2.75-2.5 0-1.05 1.35-2.3l.15-.15L34.8 24.1q-.1-6.1 4.4-8.4l3.2 5.8q-1-2.65-1.5-4.95l-.45-2.1Q38.55 2.1 51.35 1L56 .9q5.3 1.4 9.9 4.15 8.65 5.25 14.7 15.45l.7.6q9.5 7.9 25.7 9.6 8.55-1.45 12.05-4.6l-.4 2.05q-1.15 3.5-5.05 5.15 3 1.75 8.55 2.2 3.65.25 8.45 0-5.15 3.05-11.55 2.8-5.8-.25-12.55-3.2l-.5-.2 12.4 7.8-1.05-.4m-.25-.1-11.45-4.5h-.05l.1.1.7.8q2.9 2.55 5.45 6.2l.75 1.1-6.2-7.3-.85-.7-.05-.05-1.65-1.2q-3.85-2.6-8.25-3.55-12.35.4-21.7-3.6-4.45-1.95-8.2-4.85 4.25 7.8-2.4 12.95l-2.7 1.7-2.7 1.6 3.1 1.2 1 .8q4.4 3.65 2.15 6.75l3.4 1.95q1.25 3.3 3.6 6.25 1.1.15 1.65.6.95 4.3 2.3 8.35l8.05-5.25 32.7-6.65q-.5 1.6-2.05 2.95-2.6 2.15-8.05 3.6l-12.7 8.15-8.2 7.3L87 80.5q.45 2.85-.8 4-.7.7-2 .8l-5.75-3.25-.2.25-3.1 14.6-3.35 4.7.8 6.45 13.75 5.75 6.85 3.65q3.05 7.55.6 17.75l4.85 17.3 1.9 4.45L106.6 171l2.35 5.5v12.55l7.25-7.85 4.45-14.35 1.95 1.05q2.65 1.25 4.4 1.15l.3-.05q2.85-.4 3.15-4.85l-.1-2.95q-.2-8.1-2.35-16.65-1.6-6.2-4.2-12.6l-2.85-6.5-2.3-4.6v-3.45h-3.05q-2.75-10.5-12.45-20.55l-5.9-5.45 1.35.65q2.25 1.05 4.55 2.35 8.95 5 18.3 12.75 4.7 6.4 8.5 12.45 5.8 9.3 9.45 17.8l3 8.15q5.45 17.2 1.15 31.05-2.45 7.75-8 14.45 1.05-6.45-2.6-11.3l-1.55-1.25q-2.7-2.05-4.65-2.2m-1.4.2q-1.75.6-2.7 3.35-.8 2.3-1 6.15l-2.8.1q-2.55 1.05-3.65 5.95l-1.8 4.45v5.85l-3.05 5.65v3.45l-6.4 4.05 1.45 2.25 1.75 2.15-1.85 2.15-.05.1-1.95 2.2-10.5-2.65 12.85 46.65 1.2 13.4 1.15 13.4-6.45 3.15-.9.4-3.65 1.5v9.1l-1.1-.15-.1.25 3.1 1.15v5.4l6.25 9.9 1.8 2.85 2.45 3v2.4l2.8 2.65v7.05l-4 .4v8.9l-22.8 2.4-.3-8.95-2.95.3v-7.05l-.2-4.05q.05-4.5.95-6.85l-.55-7.7h1.6v-8.45H82.6v-8.9l-10.1-.4-.3-7.9q-2.2 1.25-4.15 2.1-8 3.4-11.6-.05v-29.65q-4.35 9.35-5.45 23.4l-.2 1.55-.9 6.2q.45 5.5 4.8 10.05v4.35l-1.05.6 2.25 2.1v3.9l-3.55 1.2-5.85 2-5.1 1.75-6.5 2.2v9.25l-5.85 2.3-5.1-7.85-1.35.45-8.9-8.7-.2-4.3 3.8-1.25v-1.65l1.6-2.1h2.2q4.65-.95 8.45-3.55l.55-.5q5.75-5.6 6.95-11.6.15-3.9-.05-7.85l-.25-3.15q-1.15-11.65-5.55-24.1l-5.75-2.05 2.5-14.95-2.7 3-2.55 8.75-2.7-3.2v-41.7h.8l.7-4.25-6.75-.8-5.25-5.05-.55-9.05Q6.9 189.2 10.1 182.8q-2.2.15-3.95 1-2.85 1.4-4.3 4.85-3.25-17.9 4.95-42.6l.1-.35q9.2-26.55 24.85-42.7l-2.25-3.75v-4.6l.75-.15q-1.1-3.85-.85-7.7 1.3.85 1.35 2.6.6 1.8 2.6 3.25v-4.4l-.35.1q-.75-2.45 0-4.1.1-.75 1.35-1.9l-3.85.2-10.9-7.05-12-10.05L.85 59.8l3.55.8m.3.05 22.4 5 6.05 3.4.5-.95.45-.95-.45.95m47.65 76.5-3-5.45-2.15-5.25 11.95 3.7h.05l1.5.45m-7.95 8.45-.4-1.9q-5.25 8.2-12.3 12.55v12.7l1.3 2.4h3.35l5.65 3.7v6.85h-2v1.85l9.05 20.1 2.45-4.8.25-2.25-1.9.2-4.45-11.7 3.65-2.4v-8.7h3.85l-4.45-10.2 3.25-1.75v-2.6q.35.3-.2-2.2-3.9-3.25-5.9-8.1l-.2-.45m6.1 8.55 6.1-2.55m-5.9 7.35 11.55-6.2M90.2 175.1l16.4-4.1m20.4-1.95 6.6 3.85m-71-152.6q1.95 2.3 3.1 4.35M32.6 80.9l1.75 1.45 1-2.6-3.6-1.7-10.7-8.4-13.45-4.2M33 84.25q2.6 1.35 7.3 0l1.45-2.7q1.2-2.4 5.5-3.45L51 71.9q-.4-2.1-1.55-3.6l-.25-.3q-.1-.15 1.65-5.55l-4.15 3.5-3.1-.85-2.85.65-4.15.85-3.45 4.75v2.35l2.65-3.2 4.8-3.2q1.9.25 3.35 1 1.1.6 2 1.6 1 1.15 1.65 2.8-1.7 4.25-5 7.5-3.35 3.25-8.25 2.15m6.4-16.6 2.15-3.3.7 2.65m-10.45 3.95v2.3m0 2.35 2.2 6.05M48.8 42.3l6-2.6 3.1 1.2v-2.6l-4.15-3.75-1.05-.1q-3.5-.35-4.25 1.2l-.9 1.7m16.6 12.3q-1.8-1.35-5.55-1.95h-3.05l-9.15 3.45m.85 26.95 1.95-.35q3.4-.9 6.15-2.95l13.9-8.7q3.65-.95 5.85.7m-18.9 9.8-.75-1.6q-.45.5-.45.85m.35-1.05.1.2m15.8-1.2.4.5m8.7 5h1.8l.7-.6-1.05-2.6 3.05.8m-7.15-3.4 6.85-6.65 21.2-5.4M77.8 82.9l.45-.6h-.1q-2.7 1-3.35-1.1m3.65.85-.15-.1-.05.35m-12.7 20.55.85-.15m-16-15.9.75-1 1.05-1.4q1.35-1.8 3.9-.4m-3.6 21.85 8.35-2.4 3.9-.5m-3.8 12.4-1.15 1.6h9.4l6.35-1.15q4.1-.15 6.55-1.2m-22.3 2.35h-4.3M35.25 103.1l10.6 2.75h6.65l-1.6 2.95-1.65 4.4m.4 7.65-1.25 4.6q-1.9 3.65-2.8 9.95v3.4m10.8-28.9-2.4-2.6m12.1 11.4-.75-1.05 3.85-.7m-35.85-24.3 1.35 1 9.35-1.8q4.2-.15 8.8.15 6.9.45 14.75 1.95M45.85 87.1q-2.7-2.35-3.45-2.2h-.05q-.3.15-.15.9m-9 2.45.15-.1v.1m-.35.1.2-.1.1-.15q2.5-2.4 7-3.85m-5.05 18.85-2.9-.7-.6.6m2.95-9.35-4.45.85m10.25 18.15-1.55.55h-4q-5.55 5.3-6.65 15.95l1.6 6.7q2-8.85 5.45-15.15 1.75-3.05 3.6-5.3M17 178.15q-5.35-6.65-3.65-19.8 1.9-14.5 12.3-36.85l9.6-18.4m-5.35 32.75-.8 3.95 2.6 2.85 2.6 2.8 1.8 9.05-.3 3.45-.3 3.45 1.25-1 3.3 9.45q2.75-2.2 4.75 2.25M17 178.15q.7 7 6.4 10.5l.25.15 1 .55V172.4q2.3-3 4.6-1.65.9.45 1.8 1.65-.6-1.3-.95-2.95v-7l1.5 1.7v-2.75l1.9 1.4 2-1.4m-7.15-6.05h-2.9v6.7L17 178.15l-3.5 2.8-4.55 12.4m15.7-14.25q.1 2.55 2.2 4.1 0-2.85 1.15-4.2.5-.6 1.2-.85l1.9-.4-.05-5.35q1.9 4.05 6.55 4.95l.85-1.5.75-.9q1-1 2.25-.95l-1.4-4.15m1.4 4.15q1 0 2.2.7l1.2 7.3 5 3.45 2.25-2.65h4.85l5.85-3.4 3 .4 5.85-5.1-1.35-2.45m-41.95-16.9 7.45 2.6m-4.1-15.3-3.35 12.7m43.3 19.35h2.45l3.2 4.7v3.4m-31.25-27.65-2.65 11.3m7.5-57.65-10.4 3.85 8.95 2.95M78.3 81.95l2.05-2.65 4.05 3.4-1.55-4m-2.5.6-1.9 2.75M56.95 182.8l3.6 2.05 2 3.15 6.05 1.05 1-1 1.25-1.3v-2.3l-5.05-4.65m3.8 8.25q.55-.05 1.25 1l6.45-4.4m-8.7 4.4.2 3.45.05.9.2 1.65q.55 4.1 1.7 8.5 1 3.8 2.45 7.8l1.9 4.8m-25.25-30.7 3.45 5.2.8 2.05h2.45l6.65-3.65-.65-1.05m-12.7-2.55-.15 1.65q-.8 5.8-4.05 9.6l-1.2 2 1.85-.85q1.15-.6 2.35-1.15 3.5-1.85 4.65-6.05m-7 7.2 2.55 4.5 2.2.45q1.7 0 3.15-1l1.05-.95 1.3-1.75-2.45-6.4m-3.05 10.1v7l3 .3q2.45-.1 4.5-1.3l1.15-.8.85-.8-2.2-5.25-4.15-.15m-3.15 8-5.6 7.5 11 36.5 1.1 3.65m3-50.25 5.05 1.8v4.05l-5.65 5.05-5.9-8m38.75 11.6-4.85 5.25v3.25l-3.2-3.95-3.25-3.95v-3.4l1.85 1.4 3.15-2.8-.95-2.45-2-7.65 2.8-2.65M76.8 219.2q2.9-.7 5.55-3.9m-45.1-24.75 1.35-3.4 2-5.15-3-.65-1.7 1.15-.65.65q-1.9 2.3-2.1 6.7l3.8 2.7 1.3-.8.35-4.6m-11.75-3.95v.35q0 .6 1.15 2.15l5.15 4.15L32 193.2l-.45 1.3-.5 1.4-2.7 8-1.3 4.1-.75 2.3q-3.6 3.05-5.5 2.2m6.4-27.45.8.65m8.95 6.85q0 5.05 2 10.15l.45 1.7 3.25-2v2.4l-3.1 2.15 5.9 10.35m.2-20.6-5.9-2.45-1.5-2.5m1.3 15.2-3.15 2.1v-1.85l2.55-4.5m-14.3-13.35-3.15 18.9m6.45 37.4 2.45-14.95-5.15 17.95m5.95 14 5.75 2.05 4.85-.5 14.65-1.5v-8.9m0 8.9v5.25M40.6 182h4.25M72.2 295.55l-.15-2.7-.45-6.2-4.25 3.4q-6.35 3.95-10.9-.1m15.6 2.9 12.65-.95q4.8-.95 9.3-2.75 3.2-1.3 6.3-3.05l6.55-4.35M51 291.35l-.3 1.2.1.35m2.85 21.2-3.3 1.3q-3.1.9-6.5.65l-2.85 2.3-9.3 3.3-3.3 3.25-.75.5 28.25-9.2m-42.4 2.2 8.9 8.7 3.8-1.25q-1.55.2-3.1-.95l-2.2-3.8-1.7-2.3h-1.9v-1.65m12.8-7.8-1.05 2.3 5.05-.45 8.2 4.1 1.8-1.2q2.75 1.35 6.25 1.3m-21.3-3.75-2.5.25-2.35 4.6.35 2.15 2.05-1.45 1.25-2.7q7.55-.95 13.15 3.85m-14.45-6.45 1.1-.4 1.5-1.3.4-.35m-3.35 16 1.45-.45m16.2-9.35-1.55-.75m-21.4 5.8 3.65-2.45m4.5 20.15v-9.6l-5.1 1.75m69.7 7.7v-6.35q-1.65-3.75-5.15-5.25-1.25-.55-2.7-.8l-2.9 2.7v-.05q.95-2.6 2.9-2.65m-50.9 1-5.85 1.95m-6.45 2.2-.2-4.3m14.55-62.4q4.85 13.3 5.4 26.6l-.55-27.1m71.6-67.7-4.45-7.45m2.05 9.85v1.2m-21.95-2.4q4.2-.65 7.95-2.2 2.6-1.05 5-2.55l1.5-1 1.5-1.15q2.05-1.6 3.95-3.6m-3.55 30.55-1.7-2.1.25-.15-1.15-1.8v-3.8m-16.3 7.6 3.1-2.85h2.65l-4.45-5.95m4.45 5.95 2.4 5.05-1.85 2m15-15.6.05 2.05m-25.25 95.7 7.7-1.45.8-.2 3.8-1.2 2.1-.8m-2.15 8.8-1.7-.2-10.55-1.5q3.7-3.05 8.45-3.55l2.9-.05 3.05.35-5.9-1.85m14.05 23.65H98.9l-3 3.45q-4.4-6.05-11.95-8.1m0-8.45h3.45l11.5 3.2m-3-6.8-1.05-.15.95.4m11.15 19.3h-3.25l1.15 2.15 2.25.95 2.3-.1m2.8 5.05-6.25.65v.35h-3.65l-2.4.2-.85.1-.75.05-.35.05-4.25.6h-1.25l-10.3 1.05m27.25-5.7v2.45h-3.45v.85l-3.65.35h-.45l2.25-.2-1.3-6.85-2.3-2q-1.5.55-2.55 1.45-1.15.9-1.8 2.15-.7 1.35-.85 3.1l2.95 2.65.5-.05-.15.05 3.25-.3-1.95.2m4.95-7.1 1.1 2.05v3.65m-2.25-7.85h-3.2m-2.2 9.4h.15-.15l-.05-.05-.3.05h.35m.3-.05h-.2l-.1.05m.15 0 .15-.05m-.15.05.6-.05m-5.4-1.3 1.65-1.35 2.65 2.7m-5.5.65 1.2-.1v.1m-1.2 0H87.4l-5.45-3M35.9 182.5l-4.8-4.75m77.1 166.45-23.1 2.35m-47.5-165.2v-4"/><path stroke-width="1.75" stroke-linejoin="round" stroke-linecap="round" stroke="#4f3f24" fill="none" d="m52.35 321.3.05 9.5-5.85 2.3-5.15-8.05M56.2 76.6l10.4-2.8h4.65m-6.5 29.15.8-.1M46.5 323.3l.05 9.8"/><path fill-rule="evenodd" fill="#52412d" d="m50.5.15 4.65-.1q5.3 1.4 9.9 4.15 8.65 5.25 14.7 15.45l.7.6q9.5 7.9 25.7 9.6 8.55-1.45 12.05-4.6l-.4 2.05q-1.15 3.5-5.05 5.15l-4.9-.2q-9.15-.8-19.2-4.25-10.75-.8-20.8-7.6-3.9-6.45-7.3-14.4l-.95-1.5q-5.55-2.55-13.15-.25 4.45-3.4 8.9-2.65Q53.3.75 50.5.15m54.65 33.9 12.4 7.8-1.05-.4-.25-.1-19.5-10.3 8.4 3m-.4 2.8.1.1.7.8-.85-.7-.05-.05.1-.15M64.85 23.8q4.25 7.8-2.4 12.95l-2.7 1.7-2.7 1.6v-2.6l-.6-.55 1.95-11.25q1.3-5.5-.2-9.4L54.55 9.2l7.2 10.25q1.95 2.3 3.1 4.35m-13 9.8q3.85-8.65 3.5-18.05l1 2.8q.8 8.25-3.45 15.4v-.05l-1.05-.1" transform="translate(.85 .85)"/><path fill-rule="evenodd" fill="#17110d" d="M112.75 32.45q3 1.75 8.55 2.2 3.65.25 8.45 0-5.15 3.05-11.55 2.8-5.8-.25-12.55-3.2l-.5-.2-8.4-3 19.5 10.3-11.45-4.5h-.05l-.1.15-1.65-1.2q-3.85-2.6-8.25-3.55-12.35.4-21.7-3.6-4.45-1.95-8.2-4.85-1.15-2.05-3.1-4.35L54.55 9.2l3.65 7.05q1.5 3.9.2 9.4L56.45 36.9l-3.55-3.15q4.25-7.15 3.45-15.4l-1-2.8q.35 9.4-3.5 18.05-3.5-.35-4.25 1.2l-.9 1.7-12.75-13.25q-.1-6.1 4.4-8.4l3.2 5.8q-1-2.65-1.5-4.95l-.45-2.1Q37.7 1.25 50.5.15q2.8.6 4.85 1.45-4.45-.75-8.9 2.65 7.6-2.3 13.15.25l.95 1.5q3.4 7.95 7.3 14.4 10.05 6.8 20.8 7.6 10.05 3.45 19.2 4.25l4.9.2m-7.2 5.3q2.9 2.55 5.45 6.2l.75 1.1-6.2-7.3M32.15 87.5q-.75-2.45 0-4.1 2.6 1.35 7.3 0-4.5 1.45-7 3.85l-.1.15-.2.1m.15-19.3.5-.95.45-.95 4.6-7.45V56.8l3.7-4.95 4-1.55 3.3-1.3 5.3-.55 5.45 1.15v2.1l2.1 1.5-6.25 2.25q4.75-1.05 9.45 0 5.25 2.1 1.05 1.1-4.25-.5-9.2 1.3 4.75 0 8.1 3.65.7 2 3.55 3.75l-1.5.9L56.05 73l-1.55.95Q51.75 76 48.35 76.9l-1.95.35 3.75-6.2q-.4-2.1-1.55-3.6l-.25-.3Q48.25 67 50 61.6l-4.15 3.5-3.1-.85-.7-2.65-2.15 3.3-4.15.85-3.45 4.75v-2.3m1.2 13.3 1-2.6-2.2-6.05 2.65-3.2 4.8-3.2q1.9.25 3.35 1 1.1.6 2 1.6 1 1.15 1.65 2.8-1.7 4.25-5 7.5-3.35 3.25-8.25 2.15m3.45-10.8q-1.35-1.2-2.5.7l.7 1q.55.6 1.2.65.7-1 .6-2.35m-1.1 6.25.85 1q1.3.95 3.65-.5l-.65-.8q-2.45 1.35-3.35 0h-.6l-1.2.05v-1.1h-.7q.25 3.1 2 1.35M38.8 74q2.2 1.6 5.3 1.1-1.75-6.1-5.3-1.1" transform="translate(.85 .85)"/><path fill-rule="evenodd" fill="#cdbc61" d="m76.15 64.75 6.15-4.05 32.7-6.65q-.5 1.6-2.05 2.95l-13.1 1.55-17.1 3.7-6.6 2.5m18.7 2.35-2.65 1.65-8.2 7.3-3.05-.8q4.7-2.15 6.8-5.55l7.1-2.6M77.4 81.45l-3.1 14.6-3.35 4.7.8 6.45 13.75 5.75 6.85 3.65q3.05 7.55.6 17.75l4.85 17.3 1.9 4.45q-1.15.6-2.25 1.25l-3.4-2.4q-4.9-5.2-5.9-9.5-.7-2.9-.9-8.7h.05l7.55 13.35-2.9-10.75-3.15-2.15q4.1-10.9-4.75-20.35l-5.5-1.35H71.8l2.9-.55-2.9.55-.25-.05 3.15-.5q4.1-.15 6.55-1.2l-12-5.25-1.45 3.35-2.5 2.75 2.1-10.3 1.75-1.05.8-2.4-4.4 1-5.55.75q4.2-1.9 4.1-2.65 1.9-.55 1.3-3.6l.7-1.6-14.1-3.6-.75-4.8-.95-1.4 1.05-1.4 9.1 5.5 9.35 2.45q.4-.5.3-1.05 1.3-1.45 2.2 1.1V86.2q2 .6 4.65-4.15l.45-.6m30.7 104.9v1.85l1.45 2.4 3 5.05v5.85l-3.05 5.65v3.45l-6.4 4.05-1.15-1.8 1.15 1.8-.25.15 1.7 2.1 1.75 2.15-1.85 2.15-.05.1-2.25-1.25-3.05-7.85 2.85-3.15v3.8l5.05-5.55-.05-2.05-5.3-9.45 7.15 9.45 1.35-6v-1.2 1.2l-6-9.3q2.05-1.6 3.95-3.6M98.05 315.1l6.25 9.9h-3.15l-6-10.7 2.9.8m8.05 12.75 2.45 3-2.3.1L104 330l1.1 2.05-2.95-1.15-.2-1.05-2.3-2 2.3 2 .2 1.05.2 1.1-4.15-.75-1.1-1.95q1.05-.9 2.55-1.45h6.45M55.6 267.1q-4.35 9.35-5.45 23.4l-.3 1.2.1.35-.9 6.2q.45 5.5 4.8 10.05v4.35l-1.05.6-6.1-5.3v-5.3q-.95-4.35-1.35-8.65-.6-5.85-.1-11.6.35-4.75 1.45-9.45l8.9-8.5v2.65M3.85 59.8l22.4 5 1.65.95-2.4.4L3.85 59.8M79.5 78.45l-2.6.65v-1.5l4.05-2.35 1.05 2.6-.7.6h-1.8m.95 65.3q-2.35 3.7-5.1 6.6-2.5 2.7-5.3 4.7l-1.9 1.25V169l1.3 2.4 1.35 2.45-2.95 2.6-2.9 2.5q-2.7-8.6-2-16.9v-.25q.35-3.75 1.8-6.75l1.5-2.55q4.8-2.1 9.1-4.95l5.1-3.8M66.9 66.15l1.5-.9q3.65-.95 5.85.7L69.9 69.1q-8.2.95-3-2.95m-14.3 13.1 1.65 1.9 1 2q-2.55-1.4-3.9.4.75-1.55.7-2.9-.1-1.55-1.25-2.85l1.8 1.45m24-2.85-.55.95q1.3-2.45-1.55-3.35 1-5.7 8.95-8.6 4-1.55 7.45-1.25-4.3.35-7.2 1.85l-7.65 7.5q.45.85 1.55 1.05l-1 1.85m-14.85 8.1q-2.95-.8-4.7-2.7-1.95-2.15-2.5-5.7 1.9 7.7 10.85 7.5-2.85 1.1-3.65.9m5 8.6Q58.9 91.6 52 91.15q6.9.45 14.75 1.95m-14.3 3.65q3.5 1.9 3.6 5l-3.3 1.05q.55-1.25.25-2.85l-4.95-3.2h4.4m3.65 61v7.65l-2.9 8.25.25 4.15-3.7-4.7q1.2-10.3 6.35-15.35m21.35-19.45-2.1 3.05q-5.95 6.9-17.8 4.6 8-1.15 14.15-6.6l.1-.05 4.55-3.65 1.1 2.65M92.8 331.45l-.6 1.05-6.5-1.35v-2.2l1.95-2.75q3.5 1.5 5.15 5.25m9.85-124.7-1.85 1.35v-.05l-2.55-10.2 4.4 8.9M98.05 325l-3.1-1.45-2.4-8.3 5.5 9.75m4.8 2.85L104 330l-1.15-2.15" transform="translate(.85 .85)"/><path fill-rule="evenodd" fill="url(#a)" d="m74.25 65.95 1.9-1.2 6.6-2.5 17.1-3.7 13.1-1.55q-2.6 2.15-8.05 3.6l-10.05 6.5-7.1 2.6q-2.1 3.4-6.8 5.55L76.9 77.6v1.5l2.6-.65-1 1.35-1.05 1.3-.15.35-.35.6Q74.3 86.8 72.3 86.2v5.35q-.9-2.55-2.2-1.1.1.55-.3 1.05l-9.35-2.45-9.1-5.5q2.2-.6 2.15 1.05l1.75-1.45-1-2-1.65-1.9.05-1.3 1.5-2.95q.05.55 1.2.75l.7 2.7q1.35 2.4 3.8 3.5 3.05.9 6.25-.55 3.45-3.4 4.7-7.95l-.4-.5 2.35-1.2v-1h-7.3L56.05 73l10.85-6.85q-5.2 3.9 3 2.95l4.35-3.15M104.4 221.3l-1.95 2.2-10.5-2.65 1.85-2-2.4-5.05h-2.65l-3.1 2.85-.95-2.45-2-7.65 2.8-2.65 2.45-4.8.25-2.25q4.2-.65 7.95-2.2 2.6-1.05 5-2.55l1.5-1 1.5-1.15 6 9.3-1.35 6-7.15-9.45 5.3 9.45.05 2.05-5.05 5.55v-3.8l-2.85 3.15 3.05 7.85 2.25 1.25m4.15 109.55v3.6l-3.45-.6v1.85l-2.3-1.35.45 2.35-2.25.2-.7-.1q-2.5-.55-3.75-2.05-1.05-1.3-1.25-3.3.65-1.25 1.8-2.15l1.1 1.95 4.15.75-.2-1.1 2.95 1.15L104 330l2.25.95 2.3-.1M81.1 334.9q.05-4.5.95-6.85v.05l2.9-2.7q1.45.25 2.7.8l-1.95 2.75v2.2l6.5 1.35.6-1.05v2.2q-.85 1-2.25 1.6-2.5 1-6.6.55l-1.75-.3-1.1-.6m2-14.55v-8.45h3.45l5.75 1.6 2.85.8 6 10.7h-3.1l-3 3.45q-4.4-6.05-11.95-8.1M13.9 206.6l-5.25-5.05-.55-9.05q-2.05-4.15 1.15-10.55-2.2.15-3.95 1-3.8-10.8.85-27.9 2.75-10.35 8.6-23 6.3-13.6 16.15-29.9l-2.25-3.75v-4.6l.75-.15 4.45-.85-1.35-1v-4.4l5.55-2.15 1.4-1.85 1.45-2.7q1.2-2.4 5.5-3.45l1.95-.35 2.45.9q1.15 1.3 1.25 2.85.05 1.35-.7 2.9-4.5 1.3-7.8-.8l-2 1.3q.75-.15 3.45 2.2v2.15q-.45 2.1 3.9.8 1.15-1.55.65-3.25l.75-1 .95 1.4.75 4.8 14.1 3.6-.7 1.6q.6 3.05-1.3 3.6.1.75-4.1 2.65l-5.15 1.5 6.8.95-1.55 9.45-1.15 1.6h5.55-5.55l1.15-1.6q4.25-5.3 5.45-12.65l4.4-1-.8 2.4-1.75 1.05-2.1 10.3 2.5-2.75 1.45-3.35 12 5.25q-2.45 1.05-6.55 1.2l-3.15.5.25.05h6.75l5.5 1.35q8.85 9.45 4.75 20.35l-1.5-.45 1.5.45 3.15 2.15 2.9 10.75-7.55-13.35-.05-.05v.05q.2 5.8.9 8.7 1 4.3 5.9 9.5l3.4 2.4-1.75.9-7.55 4.05v-2.6q.35.3-.2-2.2-3.9-3.25-5.9-8.1l-.2-.45-1-3.3-.4-1.9-5.1 3.8q-4.3 2.85-9.1 4.95l-1.5 2.55q-1.45 3-1.8 6.75v.25q-.7 8.3 2 16.9l-3-.4-2.95 1.7-2.9 1.7h-4.85L49 184.6l-5-3.45-1.2-7.3q-1.2-.7-2.2-.7L39.2 169l-2.55-7.35-.75-2.1-1.25 1 .3-3.45.3-3.45v-2.6l7.5-5.2q-4.9-1.6-8.4 3.25l-.9-4.5.9 4.5.35 1.6q-.4 2.7-1.55 4.35l-.95 1.1-4.7-1.65 3.35-12.7 2.6 2.8 3.2-2.35q3.45-.95 8.1-4.3v-3.4l.4-2.5q.85-4.55 2.4-7.45l1.25-4.6-1.25 4.6q-2.75 3.1-4.25 7.45-.8 2.45-1.25 5.3l-6.8 2.9q-4.9.9-6.85-1.15l-.15-.15.8-3.95.75-2.95q1.8-7 4.7-12.2L28 130.6l-.55-2.3q1.1-10.65 6.65-15.95h4l1.55-.55 10.4-3.85 1.6-2.95 3.2-.9-3.2.9H45l-10.6-2.75-2.9-.7-.6.6.6-.6 2.9.7-9.6 18.4q-2.8 6-4.95 11.4-5.3 13.15-6.95 23l-.4 2.45q-1.7 13.15 3.65 19.8.7 7 6.4 10.5l-.5 2.35-3.1 8.8-1.4 1v3.2l-3.65 3.45M33.5 81.5l-3.85.2-10.9-7.05-12-10.05L0 58.95l3.55.8.3.05 21.65 6.35 2.4-.4 4.4 2.45v4.65l2.2 6.05-3.6-1.7-10.7-8.4-8.15-2.55 18.3 11.9h-3.6l5 1.9 1.75 1.45m71.4-20.9-14 3.55 14-3.55m-36.55 55.5 3.45-.6-3.45.6H64.5v.7l3.85-.7m-3.1 1.75-.75-1.05.75 1.05 8.7 12 1.35 3.2 1.05 2.6-1.05-2.6 2.3.75-4.45-9.45-7.9-6.5m22 18.9-9.65-2.95 9.65 2.95m6.8 18.2-6.1 2.55 6.1-2.55M6.75 64.6l5.3 1.65-5.3-1.65m67.2 15.75q.65 2.1 3.35 1.1-2.7 1-3.35-1.1m16.95-16.2q-3.45-.3-7.45 1.25-7.95 2.9-8.95 8.6 2.85.9 1.55 3.35l.55-.95 1-1.85q-1.1-.2-1.55-1.05L83.7 66q2.9-1.5 7.2-1.85M61.75 84.5q.8.2 3.65-.9-8.95.2-10.85-7.5.55 3.55 2.5 5.7 1.75 1.9 4.7 2.7m-9.3 12.25h-4.4l4.95 3.2q.3 1.6-.25 2.85l3.3-1.05q-.1-3.1-3.6-5m-8.4-3.2-12.2 1.5 3.05 1.1h18.55l3.3 3.1v-4.6l-4.2-1.1h-8.5m9.1 12.9v3.2l2 3.8.4-4.4-2.4-2.6m1.5 9.65h4.3-4.3m-6.25-3.75 1.65-4.4-1.65 4.4m-4.45 58.9q-2-4.45-4.75-2.25l4.75 2.25m-2.6-86.3q-.15-.75.15-.9H40q-1.1.45 0 .9h1.35m.2-.9h-.05.05m-9.1 3.2.05.05-.15.1.1-.15M52 91.15q-4.6-.3-8.8-.15l-9.35 1.8L43.2 91q4.2-.15 8.8.15m-13.9 23.4q-1.85 2.25-3.6 5.3 1.75-3.05 3.6-5.3m18 43.2 2.65 4.3h4.2l-4.2-7.8q-5.6-6.25-12.6-8.4 6.9 3.3 9.2 9.2l.75 2.7q-5.15 5.05-6.35 15.35l3.7 4.7-.25-4.15 2.9-8.25v-7.65m21.35-19.45 3 5.45-3-5.45-1.1-2.65-4.55 3.65q-8.25 4.2-24.25.35 5.9 3.5 10 6.3 11.85 2.3 17.8-4.6l2.1-3.05m-34.9 27.3 2.65-11.3-2.65 11.3m6.05-50.85-8.95-2.95 8.95 2.95M8.1 192.5l4.55-12.4 3.5-2.8-3.5 2.8-4.55 12.4m5.65 2.85-2.8 4.9 3.4-3.3 3.3-7.1-3.9 5.5m88.9 11.4-4.4-8.9 2.55 10.2v.05l1.85-1.35m-15.7 1.1 4.45 5.95-4.45-5.95M98.05 325l-5.5-9.75 2.4 8.3 3.1 1.45m7.05 8.85v-1.8 1.8m-7.7 3.35.5-.05-.15.05h-.2l-.1.05h-.35l.3-.05.05.05-.05-.05m5.4-2.85-.45-2.35.45 2.35" transform="translate(.85 .85)"/><path fill-rule="evenodd" fill="#697e83" d="M126.45 168.15q2.85-.4 3.15-4.85l-.1-2.95q-.2-8.1-2.35-16.65-1.6-6.2-4.2-12.6l-2.85-6.5-2.3-4.6v-3.45h-3.05Q112 106.05 102.3 96l-5.9-5.45 1.35.65 14.6 12.45 8.8 10 8 16.2q2.75 4.9 4.4 9.85 2.25 6.75 2.45 13.6.25 9.3-3.25 18.75l-6.4-3.75.1-.15" transform="translate(.85 .85)"/><path fill-rule="evenodd" fill="#eccc3b" d="m84 76.05 2.15 3.6q.45 2.85-.8 4l-.7-1.05-.65-6.55m-27.55 1.6 3.45-.8q4.4-.4 5.55 2.95-3.25 2.9-6.1 1-1.55-1.05-2.9-3.15m22.1 2.2-.05-.05 1-1.35-.95 1.4.95-1.4 4.05 3.4v1.25l-3.35-1.55-1.65-1.7" transform="translate(.85 .85)"/><path fill-rule="evenodd" fill="#d29813" d="M85.35 83.65q-.7.7-2 .8L77.6 81.2l-.15-.1 1.05-1.3.05.05-.95 1.35.95-1.35 1.65 1.7 3.35 1.55v-1.25l-1.55-4-1.05-2.6 3.05.8.65 6.55.7 1.05m-28.9-6-1.1-1.9 10.4-2.8h4.65l-2.6 4.15-2.35 2.7q-1.15-3.35-5.55-2.95l-3.45.8" transform="translate(.85 .85)"/><path fill-rule="evenodd" fill="#f0ede3" d="M121.75 167.05q2.65 1.25 4.4 1.15l.2.1 6.4 3.75q3.5-9.45 3.25-18.75-.2-6.85-2.45-13.6-1.65-4.95-4.4-9.85l-8-16.2-8.8-10-14.6-12.45q2.25 1.05 4.55 2.35 8.95 5 18.3 12.75 4.7 6.4 8.5 12.45 5.8 9.3 9.45 17.8l3 8.15q5.45 17.2 1.15 31.05-2.45 7.75-8 14.45l1.75-5.8q-.55-5.2-3.3-7.15l-.25-.2-3.6-2.05-3.4.45-1.4.2q-1.75.6-2.7 3.35-.8 2.3-1 6.15-1-2.15-3.1-4.1l-.85-.7 4.9-13.3" transform="translate(.85 .85)"/><path fill-rule="evenodd" fill="#a3a752" d="M87.3 136.75h-.05v-.05l.05.05m-10.35-54.7.35-.6.15-.35-.05.35h-.1.1l-.45.6m26.3 254.65v.05l-1.8.15H101l2.25-.2" transform="translate(.85 .85)"/><path fill-rule="evenodd" fill="#fffbdf" d="m99.7 156.1 6.05 14.05 2.35 5.5v10.7q-1.9 2-3.95 3.6l-1.5 1.15q1.05-10-3.7-19.25l2.3-.55q-.7-7.35-5.55-13.05l1.75-.9q1.1-.65 2.25-1.25m6.05 14.05-4.5 1.15 4.5-1.15" transform="translate(.85 .85)"/><path fill-rule="evenodd" fill="#b8ad76" d="M96.15 299.35v3.85l-5.9-1.85 5.9 1.85-3.05-.35-.8 5.1 1.7.2.95.4-2.65 4.95-5.75-1.6h-4.8V303l7.7-1.45.8-.2 3.8-1.2 2.1-.8m15.2 36.55v7.05l-4 .4v8.9l-22.8 2.4-.3-8.95-2.95.3v-7.05l-.2-4.05 1.1.6 4.35 2.4h6.3l4.25-.6-4.25.6-.05-.1v-1.9l1.65-1.35 2.65 2.7v.05l.35-.05.75-.05.85-.1 2.4-.2h3.65v-.35l6.25-.65M51.5 320.45v2.6l-5.85 2.2v-2.8l5.85-2m-17.45 5.95v2.05l-5.85 2.4v-2.5l5.85-1.95M29.4 93.65q-1.1-3.85-.85-7.7 1.3.85 1.35 2.6.6 1.8 2.6 3.25l1.35 1-4.45.85m2.75-10.25q.1-.75 1.35-1.9 4.9 1.1 8.25-2.15 3.3-3.25 5-7.5-.65-1.65-1.65-2.8-.9-1-2-1.6-1.45-.75-3.35-1l-4.8 3.2-2.65 3.2V70.5l3.45-4.75 4.15-.85 2.15-3.3.7 2.65 3.1.85L50 61.6q-1.75 5.4-1.65 5.55l.25.3q1.15 1.5 1.55 3.6l-3.75 6.2q-4.3 1.05-5.5 3.45l-1.45 2.7q-4.7 1.35-7.3 0m13.4-33.1 2.4-8.85q-2.7-1-2.75-2.5 0-1.05 1.35-2.3l.15-.15.9-1.7q.75-1.55 4.25-1.2l1.05.1v.05q2.9 2.9-.6 5.85l1.65-.75 3.8 4.2v3.8H54.7L48.85 49l-3.3 1.3M88.2 196.85l-1.9.2-4.45-11.7q9.35 2.9 18.9-3.6-16.65 2.9-15.25 1.2v-8.7h3.85l-4.45-10.2 3.25-1.75 7.55-4.05q4.85 5.7 5.55 13.05l-2.3.55-9.6 2.4 9.6-2.4q4.75 9.25 3.7 19.25l-1.5 1q-2.4 1.5-5 2.55-3.75 1.55-7.95 2.2M39.9 64.9l2.85-.65-2.85.65m-2.95 5.8q.1 1.35-.6 2.35-.65-.05-1.2-.65l-.7-1q1.15-1.9 2.5-.7m-1.1 6.25q-1.75 1.75-2-1.35h.7v1.1l1.2-.05h.6q.9 1.35 3.35 0l.65.8q-2.35 1.45-3.65.5l-.85-1M52.3 39.6l-4.35 1.85 4.35-1.85M38.8 74q3.55-5 5.3 1.1-3.1.5-5.3-1.1m-3.85 83.1-.3 3.45-2 1.4-1.9-1.4v2.75l-1.5-1.7v2.1l-3.3-1.45q1.3 2.25 3.3 3.55v2.8q.35 1.65.95 2.95-.9-1.2-1.8-1.65-2.3-1.35-4.6 1.65v1.4l-2.5-1.7q.55 3.2 2.5 5.2v12.05l-1-.55-.25-.15q-5.7-3.5-6.4-10.5l8.45-16.1v-6.7h2.9l4.7 1.65 2.75.95M93.1 302.85l-2.9.05q-4.75.5-8.45 3.55 3.7-3.05 8.45-3.55l2.9-.05m-11.8 36.1 10.3-1.05-10.3 1.05m2.95 6.75 23.1-2.35-23.1 2.35m-2.5-39.25 10.55 1.5-10.55-1.5" transform="translate(.85 .85)"/><path fill-rule="evenodd" fill="#586d70" d="M115.35 180.35 119.8 166l1.95 1.05-4.9 13.3h-1.5" transform="translate(.85 .85)"/><path fill-rule="evenodd" fill="#608683" d="m126.15 168.2.3-.05-.1.15-.2-.1" transform="translate(.85 .85)"/><path fill-rule="evenodd" fill="#374d49" d="M134.7 190.2q1.05-6.45-2.6-11.3l-1.55-1.25q-2.7-2.05-4.65-2.2l3.4-.45 3.6 2.05.25.2q2.75 1.95 3.3 7.15l-1.75 5.8" transform="translate(.85 .85)"/><path fill-rule="evenodd" fill="#484824" d="m20.65 207.4-6.75-.8 3.65-3.45v-3.2l1.4-1 3.1-8.8.5-2.35.25.15 1 .55-3.15 18.9m44.6-89.55 7.9 6.5 4.45 9.45-2.3-.75-1.35-3.2-8.7-12m-53.2-51.6 8.15 2.55 10.7 8.4 3.6 1.7-1 2.6-1.75-1.45-5-1.9h3.6l-18.3-11.9m36.3 10.65q3.4-.9 6.15-2.95l.1.2L56.05 73l9.4-2.25h7.3v1l-2.35 1.2.4.5Q69.55 78 66.1 81.4q-3.2 1.45-6.25.55-2.45-1.1-3.8-3.5l-.7-2.7q-1.15-.2-1.2-.75l-1.5 2.95-.05 1.3-1.8-1.45-2.45-.9m6.9 6.25L53.5 84.6q.05-1.65-2.15-1.05 1.35-1.8 3.9-.4m.1-7.4 1.1 1.9q1.35 2.1 2.9 3.15 2.85 1.9 6.1-1l2.35-2.7 2.6-4.15h-4.65l-10.4 2.8-.75-1.6q-.45.5-.45.85 0-.35.45-.85l.75 1.6M60 102.6l5.55-.75q-1.2 7.35-5.45 12.65l1.55-9.45-6.8-.95 5.15-1.5m-8.65-19.05-1.05 1.4-.75 1q.5 1.7-.65 3.25-4.35 1.3-3.9-.8v-2.15q-2.7-2.35-3.45-2.2l2-1.3q3.3 2.1 7.8.8m-7.3 10h8.5l4.2 1.1v4.6l-3.3-3.1H34.9l-3.05-1.1 12.2-1.5m11.5 15.5-.4 4.4-2-3.8v-3.2l2.4 2.6m-8 15.55q-1.55 2.9-2.4 7.45l-.4 2.5v3.4q-4.65 3.35-8.1 4.3l-3.2 2.35-2.6-2.8-2.45-2.7q1.95 2.05 6.85 1.15l6.8-2.9q.45-2.85 1.25-5.3 1.5-4.35 4.25-7.45m-13.2 24.5q3.5-4.85 8.4-3.25l-7.5 5.2v2.6l-.3 3.45-2.75-.95.95-1.1q1.15-1.65 1.55-4.35l.55 2.95-.55-2.95-.35-1.6M39.2 169q2.75-2.2 4.75 2.25L39.2 169m2.3-84.95q-.3.15-.15.9H40q-1.1-.45 0-.9h1.5m-2.05-.65-1.4 1.85-5.55 2.15v-.1l-.05-.05q2.5-2.4 7-3.85M28 130.6l6.5-10.75q-2.9 5.2-4.7 12.2l-.75 2.95-1.05-4.4m34.95 31.45h-4.2l-2.65-4.3-.75-2.7q-2.3-5.9-9.2-9.2 7 2.15 12.6 8.4l4.2 7.8m-5.4-16.1q-4.1-2.8-10-6.3 16 3.85 24.25-.35l-.1.05q-6.15 5.45-14.15 6.6m-43.8 49.4 3.9-5.5-3.3 7.1-3.4 3.3 2.8-4.9m22.35 68.5 4.85-.5.55 27.1q-.55-13.3-5.4-26.6m13.4 50.7q-3.1.9-6.5.65l-1.55-.75 1.8-1.2q2.75 1.35 6.25 1.3m-12.4 4.05-6.25 2.2 1.2-2.05 5.05-.15m-20.65-2.3 1.7-1.75h4.4l-4.2 1.3v2.1h-1.9v-1.65m1.9 1.65h1.9l3.25-1.25.2 1.1-3.65 2.45-1.7-2.3m2.8 4.2h1.8l2.4 1.8 2.2.1-.75.5-1.45.45q-1.55.2-3.1-.95l-1.1-1.9m21.2-14.9 1.2-6.55q-.55 4.85.8 9.35l-2-2.8M82.2 335.5l1.75.3q4.1.45 6.6-.55 1.4-.6 2.25-1.6v4.15l-1.2.1h-5.05l-4.35-2.4m26.35-1.05v1.25h-3.45v-1.85l3.45.6m-5.75-.1 2.3 1.35v.85l-1.85.2v-.05l-.45-2.35m-5.05 2.85.15-.05-.5.05-2.95-2.65q.15-1.75.85-3.1.2 2 1.25 3.3 1.25 1.5 3.75 2.05l.7.1-3.25.3" transform="translate(.85 .85)"/><path fill-rule="evenodd" fill="#fff3d9" d="m57.05 40.05 3.1 1.2 1 .8q4.4 3.65 2.15 6.75-1.8-1.35-5.55-1.95v-3.8l-3.8-4.2-1.65.75q3.5-2.95.6-5.85l3.55 3.15.6.55v2.6l-3.1-1.2 3.1 1.2" transform="translate(.85 .85)"/><path fill-rule="evenodd" fill="#776c4e" d="m63.3 48.8 3.4 1.95q1.25 3.3 3.6 6.25 1.1.15 1.65.6.95 4.3 2.3 8.35-2.2-1.65-5.85-.7-2.85-1.75-3.55-3.75-3.35-3.65-8.1-3.65 4.95-1.8 9.2-1.3 4.2 1-1.05-1.1-4.7-1.05-9.45 0l6.25-2.25-2.1-1.5v-2.1l-5.45-1.15-5.3.55 5.85-2.15h3.05q3.75.6 5.55 1.95" transform="translate(.85 .85)"/><path fill-rule="evenodd" fill="#6f722c" d="m68.35 116.1-3.85.7v-.7h3.85M54.5 73.95l1.55-.95-1.45 1.15-.1-.2" transform="translate(.85 .85)"/><path fill-rule="evenodd" fill="url(#b)" d="M5.3 182.95q-2.85 1.4-4.3 4.85-2.6-14.2 2.1-32.75 1.15-4.8 2.85-9.85l.1-.35q2.35-6.75 5.1-12.8 8.05-17.85 19.75-29.9-9.85 16.3-16.15 29.9-5.85 12.65-8.6 23-4.65 17.1-.85 27.9" transform="translate(.85 .85)"/><path fill-rule="evenodd" fill="#7c6145" d="M78.45 178.5v3.45h-2v-3.4l-3.2-4.7 5.2 4.65m-43.8-17.95 1.25-1 .75 2.1q-1.75 2.7-.9 7.8-3.05-2.2-3.8-3.4l.3 1.55 4.3 3.8-5.9-2.55q1.55 1.1 1.85 2.2 4.6 2.65-1.35-.1 3.15 4.3 6.45 4.05l-.85 1.5q-4.65-.9-6.55-4.95-.6-1.3-.95-2.95v-7l1.5 1.7v-2.75l1.9 1.4 2-1.4m-10.85 17.7v-6.7q2.3-3 4.6-1.65-3.7 3.9-1.25 8.25.5-.6 1.2-.85-1.75 5 1.35 9.6l-2.55-2.05Q26 183.3 26 182.7v-.35q0-2.85 1.15-4.2-1.15 1.35-1.15 4.2-2.1-1.55-2.2-4.1m13.6 12.65.35-4.6 1.4-3.55q-1.05 6.9 3.2 12.1l-3.45-1.45-1.5-2.5m-1-1.2q1.15 1-.3 2l-3.8-2.7q.2-4.4 2.1-6.7-1.8 4.2 2 7.4" transform="translate(.85 .85)"/><path fill-rule="evenodd" fill="#8b7c49" d="m81.85 185.35 3.65-2.4q-1.4 1.7 15.25-1.2-9.55 6.5-18.9 3.6m-58.05-8.9q-1.95-2-2.5-5.2l2.5 1.7v3.5m5.45-10.65q-2-1.3-3.3-3.55l3.3 1.45v2.1" transform="translate(.85 .85)"/><path fill-rule="evenodd" fill="#5c4834" d="M36.65 161.65 39.2 169l1.4 4.15q-1.25-.05-2.25.95l-.75.9.75-.9q1-1 2.25-.95 1 0 2.2.7l1.2 7.3-2.45 2.7q-1.25 2.85 2.8 3L49 184.6l-.15 1.65 1 2.85-2.15 4.65 3.45-3.6.45-1.65.85 1.3.8 2.05-3.3 7.2q-1.9.95 3.4 1.9-1.45 1-3.15 1 1.7 0 3.15-1l2.05.05v3.05q-1.45 3.4 4.3 2.3l-.85.8-1.15.8 2.65 2.9q2.2 2.75 4.4-2.7v4.05l-2.85 2.6-2.8 2.45-5.9-8-3-.3v-7l-2.2-.45-2.55-4.5-1.85.85 1.2-2q3.25-3.8 4.05-9.6-.8 5.8-4.05 9.6l-2.45-1q-4.25-5.2-3.2-12.1l-1.4 3.55-.35 4.6-1.3.8q1.45-1 .3-2l1.35-3.4-1.35 3.4q-3.8-3.2-2-7.4l.65-.65 1.7-1.15 3 .65-.6 1.6.6-1.6-3-.65-1.7 1.15-.65.65q-1.9 2.3-2.1 6.7l-2.6-2.1q-3.1-4.6-1.35-9.6-.7.25-1.2.85-2.45-4.35 1.25-8.25.9.45 1.8 1.65l.05 5.35-1.9.4 1.9-.4-.05-5.35q1.9 4.05 6.55 4.95l.85-1.5q-3.3.25-6.45-4.05 5.95 2.75 1.35.1-.3-1.1-1.85-2.2l5.9 2.55-4.3-3.8-.3-1.55q.75 1.2 3.8 3.4-.85-5.1.9-7.8m15.8 28.15q-1.15 4.2-4.65 6.05-1.2.55-2.35 1.15 1.15-.6 2.35-1.15 3.5-1.85 4.65-6.05m.75 19.45q2.45-.1 4.5-1.3-2.05 1.2-4.5 1.3m-26.15-24.5-.35-.25-.35-.3.7.55m16.95-3.6h-4.25H44m-13.75-4.25 4.8 4.75-4.8-4.75m6.5-.4v4-4" transform="translate(.85 .85)"/><path fill-rule="evenodd" fill="#ac8a67" d="M69.45 171.4h3.35l5.65 3.7v3.4l-5.2-4.65 3.2 4.7v3.4q-5.25 2.1-5.7-1.9l-2.9-3.6 2.95-2.6h2.45-2.45l-1.35-2.45M44 181.15l5 3.45-4.65 2.25q-4.05-.15-2.8-3l2.45-2.7m7.25.8h4.85l3.6 2.05 1.35 2.1q-6.5 3.75-6.9-.65l-2.9-3.5m7.75-1.7 2.95-1.7 3 .4L70 183.6q-6.05 4.4-8.25-.75l-2.75-2.6m-5.75 11.6 2.45 6.4-1.3 1.75-1.05.95q-5.3-.95-3.4-1.9l3.3-7.2M49 184.6l2.6 3.9-.45 1.65-3.45 3.6 2.15-4.65-1-2.85.15-1.65m6.4 16.4 2.1.1 2.2 5.25q-5.75 1.1-4.3-2.3V201m4.3 5.35 5.05 1.8q-2.2 5.45-4.4 2.7l-2.65-2.9 1.15-.8.85-.8m-22.85-2.25 1.25-2.25.45 1.7 3.25-2v2.4l-3.1 2.15-2.25 1.5-.9.6v-1.85l1.3-2.25" transform="translate(.85 .85)"/><path fill-rule="evenodd" fill="#6d543d" d="M76.45 181.95v1.85L70 188.2q-.7-1.05-1.25-1l-1 1-6.05-1.05.65 1.05-6.65 3.65h-2.45l-.8-2.05-.85-1.3-2.6-3.9 2.25-2.65 2.9 3.5q.4 4.4 6.9.65L59.7 184l-3.6-2.05 2.9-1.7 2.75 2.6q2.2 5.15 8.25.75l-5.05-4.65 2.9-2.5 2.9 3.6q.45 4 5.7 1.9m-7.7 5.25 1.25-1.3v-2.3 2.3l-1.25 1.3m-7.7-1.1.65 1.05-.65-1.05" transform="translate(.85 .85)"/><path fill-rule="evenodd" fill="#77391a" d="m76.45 183.8 1 2.2-2.95 2.8-3.15 2.7q-1.05 7.95 1 19-1.45-4-2.45-7.8-1.15-4.4-1.7-8.5l-.2-1.65-.05-.9-2.2.4-2.2.4-7.85 5.8-2.45-6.4h2.45l6.65-3.65-.65-1.05 6.05 1.05 1-1q.55-.05 1.25 1l6.45-4.4m-49.3 1.05 2.55 2.05 2.6 2.1-1.15 3.35L32.3 189l3.8 2.7q0 5.05 2 10.15l-1.25 2.25-6.65-9.05.5-1.4.45-1.3-4-3.5v-4m40.6 3.35.2 3.45-.2-3.45m-5.85 26.6-2.95 7.25-3.4 3.8-4-4v-6l-4.15-3.15 2.8-3.75 3 .3 5.9 8 2.8-2.45m4.6 74.4q-.85-25.5-6.35-56.75 4.65 16.1 6.8 26.95l2.35 13.95 1.45 12.45-4.25 3.4" transform="translate(.85 .85)"/><path fill-rule="evenodd" fill="#ffbe06" d="m91.95 220.85 12.85 46.65 1.2 13.4-6.55 4.35q-3.1 1.75-6.3 3.05l-9.25-62.9 3.2 3.95v-3.25l4.85-5.25M77.45 186l8.05 17.9-2.8 2.65 2 7.65.95 2.45-3.15 2.8-1-5q-2.65 3.2-5.55 3.9-2.15.65-4.25-4.4l-1.9-5.7-4.05-16.2 2.2-.4.05.9.2 1.65q.55 4.1 1.7 8.5 1 3.8 2.45 7.8l1.9 4.8 3.5-.45 2.5-1.5-5.75-24.55 2.95-2.8m-26.3 52.2 4.45 14.75v8.9l-9.75 1 5.3-24.65" transform="translate(.85 .85)"/><path fill-rule="evenodd" fill="url(#c)" d="M55.6 289.1v-36.15l-4.45-14.75-4.95-16.55-1.6-5.2 2.8-3.75 4.15 3.15v6l4 4 3.4-3.8 2.95-7.25 2.85-2.6v-4.05l-5.05-1.8-2.2-5.25-2.1-.1-2.05-.05 1.05-.95 1.3-1.75 7.85-5.8 2.2-.4 4.05 16.2 1.9 5.7q2.1 5.05 4.25 4.4 2.9-.7 5.55-3.9l1 5-1.85-1.4v3.4l3.25 3.95 9.25 62.9q-4.5 1.8-9.3 2.75L71.2 292l-.45-6.2-1.45-12.45-2.35-13.95q-2.15-10.85-6.8-26.95 5.5 31.25 6.35 56.75-6.35 3.95-10.9-.1m16.75-78.6q-2.05-11.05-1-19l3.15-2.7 5.75 24.55-2.5 1.5-3.5.45-1.9-4.8M56.7 256.6l-1.1-3.65 1.1 3.65" transform="translate(.85 .85)"/><path fill-rule="evenodd" fill="#5a3f12" d="m81.75 303-10.1-.4-.3-7.9-.15-2.7 12.65-.95q4.8-.95 9.3-2.75l.9 11.85-3.8 1.2-.8.2-7.7 1.45m-14.55-6.2q-8 3.4-11.6-.05v-7.65q4.55 4.05 10.9.1l.7 7.6M44.8 195.85l-1.2 2 1.85-.85 2.55 4.5 2.2.45q-3.5 11-8.55 9.3l-2.95-5.15 3.1-2.15v-2.4l-3.25 2-.45-1.7q-2-5.1-2-10.15l1.3-.8 1.5 2.5 3.45 1.45 2.45 1" transform="translate(.85 .85)"/><path fill-rule="evenodd" fill="#3d260c" d="M71.35 294.7q-2.2 1.25-4.15 2.1l-.7-7.6 4.25-3.4.45 6.2.15 2.7m-23.95-82-2.8 3.75-2.95-5.2q5.05 1.7 8.55-9.3v7l-2.8 3.75" transform="translate(.85 .85)"/><path fill-rule="evenodd" fill="#87491d" d="m44.6 216.45 1.6 5.2-9.75-14.05 2.25-1.5 2.95 5.15 2.95 5.2" transform="translate(.85 .85)"/><path fill-rule="evenodd" fill="#44301c" d="m108.1 188.2 7.25-7.85h1.5v1.35l-7.3 8.9-1.45-2.4m-25.6 31.25 3.15-2.8 3.1-2.85h2.65l2.4 5.05-1.85 2h-3.1l-4.95 4.55-3.25-3.95v-3.4l1.85 1.4" transform="translate(.85 .85)"/><path fill-rule="evenodd" fill="#bf8b57" d="m120.8 185.15-2.8.1q-2.55 1.05-3.65 5.95l-1.8 4.45-3-5.05 7.3-8.9v-1.35l.85.7q2.1 1.95 3.1 4.1m-28.85 35.7-4.85 5.25v3.25l-3.2-3.95 4.95-4.55h3.1" transform="translate(.85 .85)"/><path fill-rule="evenodd" fill="url(#d)" d="m30.35 261.8-5.75-2.05 2.5-14.95 2.45-14.95-5.15 17.95-2.55 8.75-2.7-3.2v-41.7h.8l.7-4.25 3.15-18.9v-10.25q.1 2.55 2.2 4.1v.35q0 .6 1.15 2.15l-.1-.1.1.1v4l4 3.5-.45 1.3-.5 1.4 6.65 9.05-1.3 2.25v1.85l.9-.6 9.75 14.05 4.95 16.55-5.3 24.65-4.9.5-4.85.5-5.75-2.05m-3.65-77.3.35.25-.7-.55.35.3m-6.75 27.15q1.9.85 5.5-2.2l.75-2.3 1.3-4.1 2.7-8-2.7 8-1.3 4.1-.75 2.3q-3.6 3.05-5.5 2.2" transform="translate(.85 .85)"/><path fill-rule="evenodd" fill="url(#e)" d="m27.1 244.8-2.7 3 5.15-17.95-2.45 14.95" transform="translate(.85 .85)"/><path fill-rule="evenodd" fill="url(#f)" d="M16.45 316.3v-1.65l1.6-2.1h2.2q4.65-.95 8.45-3.55l-.4.35-1.5 1.3-1.1.4-2.35 4.6.15 1.05-3.25 1.25h-1.9v-2.1l4.2-1.3h-4.4l-1.7 1.75m12.8-7.8q5.75-5.6 6.95-11.6.15-3.9-.05-7.85l-.25-3.15q-1.15-11.65-5.55-24.1l5.75 2.05q4.85 13.3 5.4 26.6l-.55-27.1 4.9-.5 9.75-1v2.6l-8.9 8.5q-1.1 4.7-1.45 9.45-.5 5.75.1 11.6.4 4.3 1.35 8.65v5.3l6.1 5.3-3.3 1.3q-3.5.05-6.25-1.3l-1.8 1.2-8.2-4.1-5.05.45 1.05-2.3m10.9 9-3.05 1.1-5.05.15-1.2 2.05-3.3 3.25-2.2-.1-2.4-1.8h-1.8l-1.1-1.9 3.65-2.45 2.05-1.45 1.25-2.7q7.55-.95 13.15 3.85m2.2-10.25 2 2.8q-1.35-4.5-.8-9.35l-1.2 6.55" transform="translate(.85 .85)"/><path fill-rule="evenodd" fill="#eae3d7" d="m52.8 313.25 2.25 2.1-27.4 8.9-.1-.2 3.3-3.25 6.25-2.2 3.05-1.1 2.85-2.3q3.4.25 6.5-.65l3.3-1.3m-1.3 9.8.05 6.9-5.85 2.3-.05-7 5.85-2.2m-17.45 5.4v7.2l-5.85 2.3v-7.1l5.85-2.4" transform="translate(.85 .85)"/><path fill-rule="evenodd" fill="#d0c4a8" d="M55.05 315.35v3.9l-3.55 1.2-5.85 2-5.1 1.75-6.5 2.2-5.85 1.95-5.1 1.75-1.35.45-.2-4.3 3.8-1.25 1.45-.45.85-.3 27.4-8.9" transform="translate(.85 .85)"/><path fill-rule="evenodd" fill="#92824e" d="m45.7 332.25-5.15-8.05 5.1-1.75v2.8l.05 7m-17.5 5.7-5.1-7.85 5.1-1.75v9.6m-6.45-7.4-8.9-8.7-.2-4.3 3.8-1.25v1.65h1.9l1.7 2.3 1.1 1.9 1.1 1.9q1.55 1.15 3.1.95l-3.8 1.25.2 4.3m-9.1-13 8.9 8.7-8.9-8.7" transform="translate(.85 .85)"/><path fill-rule="evenodd" fill="#171000" d="m104.3 325 1.8 2.85h-6.45q-1.5.55-2.55 1.45-1.15.9-1.8 2.15-.7 1.35-.85 3.1l-1.65 1.35v-4.45q-1.65-3.75-5.15-5.25-1.25-.55-2.7-.8l-2.9 2.7v-.05l-.55-7.7h1.6q7.55 2.05 11.95 8.1l3-3.45h6.25m-75.6-16 .55-.5-1.05 2.3 5.05-.45 8.2 4.1 1.55.75-2.85 2.3q-5.6-4.8-13.15-3.85l-1.25 2.7-2.05 1.45-.2-1.1-.15-1.05 2.35-4.6 1.1-.4 1.5-1.3.4-.35m-3 2.05 2.5-.25-2.5.25m59.25 14.35q-1.95.05-2.9 2.65.95-2.6 2.9-2.65" transform="translate(.85 .85)"/><path fill-rule="evenodd" fill="#e5dfcf" d="M96.15 303.2v5.25l-1.1-.15-1.05-.15-1.7-.2.8-5.1 3.05.35m-1.2 5.35 3.1 1.15v5.4l-2.9-.8-2.85-.8 2.65-4.95m-67.4 15.5.1.2-.85.3.75-.5m73.9 12.85-2.4.2 1.95-.2h.45m-4 .35.1-.05h.2l-.15.05h-.15" transform="translate(.85 .85)"/><path fill-rule="evenodd" fill="#7a5b18" d="m106 280.9 1.15 13.4-6.45 3.15-.9.4-3.65 1.5-2.1.8-.9-11.85q3.2-1.3 6.3-3.05l6.55-4.35" transform="translate(.85 .85)"/><path stroke-width=".05" stroke-opacity=".361" stroke-linejoin="round" stroke-linecap="round" stroke="#000" fill="none" d="M119.05 26.1q1.15-1.1 1.75-2.4M51.35 1 56 .9q5.3 1.4 9.9 4.15 8.65 5.25 14.7 15.45l.7.6q9.5 7.9 25.7 9.6 8.55-1.45 12.05-4.6l-.4 2.05q-1.15 3.5-5.05 5.15 3 1.75 8.55 2.2 3.65.25 8.45 0-5.15 3.05-11.55 2.8-5.8-.25-12.55-3.2l-.5-.2 12.4 7.8-1.05-.4m-.25-.1-11.45-4.5h-.05l.1.1.7.8q2.9 2.55 5.45 6.2l.75 1.1-6.2-7.3-.85-.7-.05-.05-1.65-1.2q-3.85-2.6-8.25-3.55-12.35.4-21.7-3.6-4.45-1.95-8.2-4.85 4.25 7.8-2.4 12.95l-2.7 1.7-2.7 1.6 3.1 1.2 1 .8q4.4 3.65 2.15 6.75l3.4 1.95q1.25 3.3 3.6 6.25 1.1.15 1.65.6.95 4.3 2.3 8.35l1.9-1.2 6.15-4.05 32.7-6.65q-.5 1.6-2.05 2.95-2.6 2.15-8.05 3.6l-10.05 6.5-2.65 1.65-8.2 7.3L87 80.5q.45 2.85-.8 4-.7.7-2 .8l-5.75-3.25-.2.25-3.1 14.6-3.35 4.7.8 6.45 13.75 5.75 6.85 3.65q3.05 7.55.6 17.75l4.85 17.3 1.9 4.45L106.6 171l2.35 5.5v12.55l7.25-7.85 4.45-14.35 1.95 1.05q2.65 1.25 4.4 1.15l.3-.05q2.85-.4 3.15-4.85l-.1-2.95q-.2-8.1-2.35-16.65-1.6-6.2-4.2-12.6l-2.85-6.5-2.3-4.6v-3.45h-3.05q-2.75-10.5-12.45-20.55l-5.9-5.45 1.35.65q2.25 1.05 4.55 2.35 8.95 5 18.3 12.75 4.7 6.4 8.5 12.45 5.8 9.3 9.45 17.8l3 8.15q5.45 17.2 1.15 31.05-2.45 7.75-8 14.45 1.05-6.45-2.6-11.3l-1.55-1.25q-2.7-2.05-4.65-2.2m-1.4.2q-1.75.6-2.7 3.35-.8 2.3-1 6.15l-2.8.1q-2.55 1.05-3.65 5.95l-1.8 4.45v5.85l-3.05 5.65v3.45l-6.4 4.05 1.45 2.25 1.75 2.15-1.85 2.15-.05.1-1.95 2.2-10.5-2.65 12.85 46.65 1.2 13.4 1.15 13.4-6.45 3.15-.9.4-3.65 1.5v9.1l-1.1-.15-.1.25 3.1 1.15v5.4l6.25 9.9 1.8 2.85 2.45 3v2.4l2.8 2.65v7.05l-4 .4v8.9l-22.8 2.4-.3-8.95-2.95.3v-7.05l-.2-4.05q.05-4.5.95-6.85l-.55-7.7h1.6v-8.45H82.6v-8.9l-10.1-.4-.3-7.9q-2.2 1.25-4.15 2.1-8 3.4-11.6-.05v-29.65q-4.35 9.35-5.45 23.4l-.2 1.55-.9 6.2q.45 5.5 4.8 10.05v4.35l-1.05.6 2.25 2.1v3.9l-3.55 1.2v2.6l.05 6.9-5.85 2.3-5.15-8.05-6.5 2.2v9.25l-5.85 2.3-5.1-7.85-1.35.45-8.9-8.7-.2-4.3 3.8-1.25v-1.65l1.6-2.1h2.2q4.65-.95 8.45-3.55l.55-.5q5.75-5.6 6.95-11.6.15-3.9-.05-7.85l-.25-3.15q-1.15-11.65-5.55-24.1l-5.75-2.05 2.5-14.95-2.7 3-2.55 8.75-2.7-3.2v-41.7h.8l.7-4.25-6.75-.8-5.25-5.05-.55-9.05Q6.9 189.2 10.1 182.8q-2.2.15-3.95 1-2.85 1.4-4.3 4.85-2.6-14.2 2.1-32.75 1.15-4.8 2.85-9.85l.1-.35q2.35-6.75 5.1-12.8 8.05-17.85 19.75-29.9l-2.25-3.75v-4.6l.75-.15q-1.1-3.85-.85-7.7 1.3.85 1.35 2.6.6 1.8 2.6 3.25v-4.4l-.35.1q-.75-2.45 0-4.1.1-.75 1.35-1.9l-3.85.2-10.9-7.05-12-10.05L.85 59.8l3.55.8m.3.05 22.4 5 1.65.95 4.4 2.45.5-.95.45-.95 4.6-7.45v-2.05l3.7-4.95 4-1.55 2.4-8.85q-2.7-1-2.75-2.5 0-1.05 1.35-2.3l.15-.15L34.8 24.1q-.1-6.1 4.4-8.4l3.2 5.8q-1-2.65-1.5-4.95l-.45-2.1Q38.55 2.1 51.35 1m40.4 64 14-3.55m-17.6 76.15h-.05m10.2 20.6q1.1-.65 2.25-1.25m-12.4-19.35 1.5.45m-17-21.7-3.45.6-3.85.7.75 1.05m12.35 15.95 9.65 2.95m8.45 21.5 1.75-.9m-9.3 4.95v-2.6q.35.3-.2-2.2-3.9-3.25-5.9-8.1l-.2-.45m-1-3.3-.4-1.9q-2.35 3.7-5.1 6.6-2.5 2.7-5.3 4.7l-1.9 1.25v12.7l1.3 2.4h3.35l5.65 3.7v6.85h-2v1.85l1 2.2 8.05 17.9 2.45-4.8.25-2.25-1.9.2-4.45-11.7 3.65-2.4v-8.7h3.85l-4.45-10.2 3.25-1.75 7.55-4.05m5.55 13.05 4.5-1.15m-17.8-12.65 6.1-2.55m4.9 16.9 2.3-.55m-11.9 2.95 9.6-2.4m3.7 19.25 1.5-1.15q2.05-1.6 3.95-3.6M127 169.05l.2.1 6.4 3.75m-71-152.6q1.95 2.3 3.1 4.35M53.75 34.6l3.55 3.15.6.55v2.6l-3.1-1.2m3.8 8q3.75.6 5.55 1.95M12.9 67.1l-5.3-1.65m27.75 14.3-3.6-1.7-10.7-8.4-8.15-2.55m19.7 13.8 1.75 1.45 1-2.6-2.2-6.05v-4.65M43.6 65.1l-2.85.65-4.15.85-3.45 4.75m0 2.35 2.65-3.2 4.8-3.2q1.9.25 3.35 1 1.1.6 2 1.6 1 1.15 1.65 2.8-1.7 4.25-5 7.5-3.35 3.25-8.25 2.15m6.4-16.6 2.15-3.3.7 2.65 3.1.85 4.15-3.5Q49.1 67.85 49.2 68l.25.3q1.15 1.5 1.55 3.6l-3.75 6.2 1.95-.35q3.4-.9 6.15-2.95l1.55-.95L67.75 67l1.5-.9q3.65-.95 5.85.7M49.7 49.85l-3.3 1.3M33.65 68.1l.45-.95M53.75 34.6v-.05l-1.05-.1q-3.5-.35-4.25 1.2l-.9 1.7m5.6 3.1 1.65-.75m-6 2.6 4.35-1.85m5.45 7.25h-3.05l-5.85 2.15M78.15 82.3q-2.7 1-3.35-1.1m-22.6 3.2q1.35-1.8 3.9-.4m15.15-10.2.4.5M56.2 76.6l-.75-1.6q-.45.5-.45.85m.35-1.05.1.2m15.8-1.2H66.6l-10.4 2.8m23.15 4.05-1.05 1.3.15.1.95-1.35.95-1.4-1 1.35m5.2-13.8q2.9-1.5 7.2-1.85M81.8 76.1l3.05.8m-4.5 2.4h1.8l.7-.6-1.05-2.6m2.6 6.6-4.05-3.4m-2.05 2.65-.05.35h-.1m-.35.6.45-.6m-17.4 21.15 5.55-.75m15.7 11.9q-2.45 1.05-6.55 1.2l-2.9.55M51.15 85.8l1.05-1.4m-9.8.5q.75-.15 3.45 2.2m4.55-.3.75-1m1.7 6.2q6.9.45 14.75 1.95m-11.9 11 5.15-1.5m.1 11.9-1.15 1.6h9.4m-12.8-7.05-2.4-2.6m1.7-2.35-3.2.9-1.6 2.95-1.65 4.4m10.55 3.75h-4.3M35.25 103.1l10.6 2.75h6.65m-2.85 15-1.25 4.6q-1.55 2.9-2.4 7.45l-.4 2.5v3.4m-11.3 6.65.9 4.5.35 1.6.55 2.95-.3 3.45-.3 3.45 1.25-1 .75 2.1 2.55 7.35q2.75-2.2 4.75 2.25m-2.45-87.2q-.3.15-.15.9m.15-.9h.05m-2.1-.65 1.45-2.7q1.2-2.4 5.5-3.45m-6.95 6.15q-4.5 1.45-7 3.85m.05.05v.1m-.35.1.2-.1.1-.15m-.1.15.15-.1m1.9 14.95-2.9-.7-.6.6m8.55-18.75q-4.7 1.35-7.3 0m.35 8.4 1.35 1 9.35-1.8q4.2-.15 8.8.15M34.7 93.65l-4.45.85m10.25 18.15-1.55.55h-4q-5.55 5.3-6.65 15.95l.55 2.3 1.05 4.4.75-2.95q1.8-7 4.7-12.2 1.75-3.05 3.6-5.3M17 178.15q-5.35-6.65-3.65-19.8l.4-2.45q1.65-9.85 6.95-23 2.15-5.4 4.95-11.4l9.6-18.4m-6 36.85 2.45 2.7 2.6 2.8m-4.4-9.6-.8 3.95.15.15m3.8 17.05 2.75.95m-7.45-2.6h-2.9v6.7L17 178.15q.7 7 6.4 10.5l.25.15 1 .55V177.3m0-3.5v-1.4q2.3-3 4.6-1.65.9.45 1.8 1.65-.6-1.3-.95-2.95v-2.8m0-2.1v-2.1l1.5 1.7v-2.75l1.9 1.4 2-1.4m-5.4 3.15v2.1m-1.75-11.3 4.7 1.65m5.4 18.85.75-.9q1-1 2.25-.95l-1.4-4.15m-15.4 3.95v3.5m4.55.85q-.7.25-1.2.85-1.15 1.35-1.15 4.2v.35q0 .6 1.15 2.15l2.55 2.05m-1.35-9.6 1.9-.4-.05-5.35q1.9 4.05 6.55 4.95l.85-1.5m3-1.85q1 0 2.2.7l1.2 7.3 5 3.45 2.25-2.65h4.85l2.9-1.7 2.95-1.7 3 .4 5.05 4.65v2.3l-1.25 1.3q.55-.05 1.25 1l6.45-4.4m4-40.05-3-5.45-1.1-2.65-1.05-2.6 2.3.75m-46.75 8-3.35 12.7m43.3 19.35-2.95 2.6-2.9 2.5m11.5 3v-3.4l-3.2-4.7h-2.45l-1.35-2.45M50.9 108.8l-10.4 3.85 8.95 2.95m-3.4 39.55-2.65 11.3M82.85 78.7l1.55 4m-9.3 133.45-1.9-4.8q-1.45-4-2.45-7.8-1.15-4.4-1.7-8.5l-.2-1.65-.05-.9-.2-3.45 1-1m7.2 31.15q2.9-.7 5.55-3.9m1 5 3.15-2.8-.95-2.45-2-7.65 2.8-2.65M62.55 188l6.05 1.05m-6.7-2.1-1.35-2.1-3.6-2.05m-2.85 9.9h2.45l6.65-3.65-.65-1.05-.65-1.05m-9.45 2.4.85 1.3.8 2.05 2.45 6.4m-6.7-13.65 2.6 3.9m-2.75-2.25q-.8 5.8-4.05 9.6l-1.2 2 1.85-.85q1.15-.6 2.35-1.15 3.5-1.85 4.65-6.05m-3.45-5.2-.15 1.65m-3.4 10.75 2.55 4.5 2.2.45q1.7 0 3.15-1l1.05-.95 1.3-1.75m4 8.1-2.2-5.25-2.1-.1-2.05-.05m6.35 5.4 5.05 1.8v4.05l-2.85 2.6m-14.5-2.1-2.8 3.75 1.6 5.2L52 239.05l4.45 14.75 1.1 3.65m3-50.25-.85.8-1.15.8q-2.05 1.2-4.5 1.3l5.9 8 2.8-2.45m-8.7-5.55-3-.3-2.8 3.75m36.5 12.7-3.25-3.95v-3.4l1.85 1.4m-32.3-17.5v7m-12.8-18.05.35-4.6-1.35 3.4m-.3 2 1.3-.8 1.5 2.5 3.45 1.45 2.45 1M40 183.6l-1.4 3.55m1.4-3.55.6-1.6-3-.65-1.7 1.15-.65.65m-7.7 2.2-.35-.3.7.55.1.1m4 7.5 1.15-3.35-2.6-2.1m.5 8.15-2.7 8-1.3 4.1-.75 2.3q-3.6 3.05-5.5 2.2M32 193.2l-.45 1.3-.5 1.4m6.65 9.05 1.25-2.25q-2-5.1-2-10.15l-3.8-2.7q.2-4.4 2.1-6.7m3.7 19.55.45 1.7 3.25-2v2.4l-3.1 2.15 2.95 5.15 2.95 5.2M17 178.15l-3.5 2.8-4.55 12.4m28.35 15.1 2.25-1.5m-1.85-2-1.3 2.25v1.85l.9-.6m-12.65-19.1-3.15 18.9m6.45 37.4 2.45-14.95-5.15 17.95m11.7 16.05 4.85-.5 4.9-.5 9.75-1v-8.9m-25.25 8.85 5.75 2.05q4.85 13.3 5.4 26.6l-.55-27.1m11.85 49.9-3.3 1.3q-3.1.9-6.5.65l-2.85 2.3-3.05 1.1-6.25 2.2-3.3 3.25-.75.5.85-.3 27.4-8.9m.55-53.5v5.25m10.9 22.1 4.25-3.4.45 6.2 12.65-.95q4.8-.95 9.3-2.75 3.2-1.3 6.3-3.05l6.55-4.35m-22.1-55.5 3.2 3.95v-3.25l4.85-5.25M40.6 182h4.25M72.2 295.55l-.15-2.7M51 291.35l-.3 1.2.1.35m-4.3 30.4v2.8l.05 7m5.8-11.8-5.85 2-5.1 1.75m15.05-35.1q4.55 4.05 10.9.1m-50.05 27.1v1.65h1.9m5.15-1.25-.15-1.05 2.35-4.6 1.1-.4 1.5-1.3.4-.35m-3.35 16q-1.55.2-3.1-.95L22 323l-1.1-1.9-1.7-2.3m3.2 8.3-8.9-8.7m28.8-3.1 1.8-1.2q2.75 1.35 6.25 1.3m-8.05-.1-8.2-4.1-5.05.45-2.5.25m2.5-.25 1.05-2.3m-3.9 16.5 1.45-.45m-3.1-6.75 2.05-1.45 1.25-2.7q7.55-.95 13.15 3.85m2.85-2.3-1.55-.75m-21.4 5.8 3.65-2.45-.2-1.1m-1.95 9.55 3.8-1.25m2.85 3.35-5.1 1.75m5.1-1.75v9.6m54-2.45-1.1-.6m6.55-8.7q-1.25-.55-2.7-.8l-2.9 2.7v-.05q.95-2.6 2.9-2.65m7.85 8.25v-2.2m-5.15-5.25q3.5 1.5 5.15 5.25m-71.05-.9-.2-4.3m12.5.15-5.85 1.95m81.35-137.75 3 5.05m-3-5.05-1.45-2.4m2.05 9.85v1.2m-3.2 6 .05 2.05m-5.05 5.55 1.15 1.8-.25.15 1.7 2.1M89.05 197.7q4.2-.65 7.95-2.2 2.6-1.05 5-2.55l1.5-1m-.7 17.95v3.8m-16.3 3.8 3.1-2.85h2.65l-4.45-5.95m4.45 5.95 2.4 5.05-1.85 2m2.1 79.3 2.1-.8m-2.1.8-3.8 1.2 5.9 1.85-3.05-.35m-.8 5.1 1.7.2 1.05.15m-4.8-6.95-.8.2-7.7 1.45m13.4 11.3 2.9.8m-14.95-3.2h3.45l5.75 1.6m2.65-4.95-.95-.4m7.15 16.85h-3.1l-3 3.45q-4.4-6.05-11.95-8.1m21.2 4.65H102m-6-10.7-2.85-.8M82.6 307.3q3.7-3.05 8.45-3.55l2.9-.05m10.9 27.15 2.25.95 2.3-.1m2.8 5.05-6.25.65v.35h-3.65l-2.4.2-.85.1-.75.05-.35.05-4.25.6h-1.25l-10.3 1.05m23.8-3.25h3.45v-2.45m-3.45.6v1.85m-2.3-1.35.45 2.35-2.25.2-1.95.2m4.2-.35 1.85-.2v-.85m0-3.65v1.8m-5.45-6 2.3 2 .2 1.05m2.95 1.15-1.1-2.05-1.15-2.15h-3.2q-1.5.55-2.55 1.45m5.25 2.7-.2-1.1m-6.85.55q.65-1.25 1.8-2.15m.3 7.9.5-.05-.15.05 3.25-.3h.45l1.8-.15m-7.95-5.3q-.7 1.35-.85 3.1l2.95 2.65.05.05.1-.05h.2l-.15.05.6-.05m-.6.05h-.15.15m-.2-.05-.3.05h.35m4.9-5.25.45 2.35m-8.35.2-1.65 1.35v2m-1.2 0 1.2-.1m-1.2.1H87.4l-4.35-2.4m10.6.4v-2.25m1.65.9 2.65 2.7m5.75-9.4h3.25m-13.8-19.9-10.55-1.5m25.6 36.9-23.1 2.35m-47.5-165.2v-4m-1.7 5.15-4.8-4.75m-6.45 1.35q.1 2.55 2.2 4.1"/><path stroke-width=".05" stroke-opacity=".431" stroke-linejoin="round" stroke-linecap="round" stroke="#000" fill="none" d="m77.45 77.25 1-1.85q-1.1-.2-1.55-1.05"/></g><g id="i" stroke-opacity="0" stroke-linejoin="round" stroke-linecap="round" stroke="#f0f" fill="none"><path d="M227.95-253.5v380h-380v-380h380" transform="translate(152.55 254)"/><path d="m227.95-253.5-190 190 190 190m-380-380 190 190-189.95 190M132.95 1.6H-57" transform="translate(152.55 254)"/></g><path fill-rule="evenodd" fill-opacity="0" fill="#f0f" d="M100 40H0V0h100v40" id="g"/><use xlink:href="#g" width="100" height="40" id="j"/></defs><path fill="none" d="M-1-1h147v350H-1z"/><use x="-144.645" y="-21.26" xlink:href="#h" width="146.3" transform="translate(141.875 21.475) scale(.9709)" height="356.35"/><use x="11.614" y="232.859" xlink:href="#i" width="381" transform="translate(-152.55 -254)" height="381"/><use x="7.743" y="155.239" xlink:href="#j" width="100" transform="matrix(1.5 0 0 1.5 -38.75 -178.2)" height="40"/></svg>