<svg width="140" height="235" xmlns="http://www.w3.org/2000/svg" xmlns:xlink="http://www.w3.org/1999/xlink"><defs><linearGradient y2=".927" y1=".927" x2="-.05" x1="-.752" spreadMethod="pad" id="a"><stop stop-color="#090f0f" offset="0"/><stop stop-color="#2f555e" offset="1"/></linearGradient><linearGradient y2=".285" y1=".285" x2=".789" x1=".45" spreadMethod="pad" id="b"><stop stop-color="#badbdc" offset="0"/><stop stop-color="#678d96" offset="1"/></linearGradient><linearGradient y2=".995" y1=".326" x2=".846" x1=".311" spreadMethod="pad" id="c"><stop stop-color="#090f0f" offset="0"/><stop stop-color="#2f555e" offset="1"/></linearGradient><linearGradient y2=".5" y1=".5" x2="1" x1="0" spreadMethod="pad" id="d"><stop stop-color="#badbdc" offset="0"/><stop stop-color="#678d96" offset="1"/></linearGradient><linearGradient y2=".5" y1=".5" x2=".958" x1="-.025" spreadMethod="pad" id="e"><stop stop-color="#badbdc" offset="0"/><stop stop-color="#678d96" offset="1"/></linearGradient><linearGradient y2="-4.638" y1="-4.638" x2="26.024" x1="-38.354" spreadMethod="pad" id="f"><stop stop-color="#498b86" offset="0"/><stop stop-color="#445f60" offset="1"/></linearGradient><linearGradient y2=".466" y1=".466" x2="1" x1="0" spreadMethod="pad" id="g"><stop stop-color="#090f0f" offset="0"/><stop stop-color="#2f555e" offset="1"/></linearGradient><linearGradient y2="1.037" y1="-.081" x2=".749" x1=".246" spreadMethod="pad" id="h"><stop stop-color="#090f0f" offset="0"/><stop stop-color="#658d8d" offset="1"/></linearGradient><linearGradient y2="4.313" y1="-5.153" x2="3.128" x1="-.67" spreadMethod="pad" id="i"><stop stop-color="#badbdc" offset="0"/><stop stop-color="#678d96" offset="1"/></linearGradient><linearGradient y2=".743" y1=".24" x2=".839" x1=".123" spreadMethod="pad" id="j"><stop stop-color="#090f0f" offset="0"/><stop stop-color="#2f555e" offset="1"/></linearGradient><linearGradient y2="1.039" y1="1.832" x2="-2.974" x1="-.62" spreadMethod="pad" id="k"><stop stop-color="#142121" offset="0"/><stop stop-color="#244" offset="1"/></linearGradient><linearGradient y2="2.525" y1="4.453" x2="-1.785" x1=".367" spreadMethod="pad" id="l"><stop stop-color="#090f0f" offset="0"/><stop stop-color="#162c2b" offset="1"/></linearGradient><linearGradient y2=".664" y1=".664" x2=".996" x1=".004" spreadMethod="pad" id="m"><stop stop-color="#090f0f" offset="0"/><stop stop-color="#2f555e" offset="1"/></linearGradient><linearGradient y2="1.117" y1="1.973" x2="-1.056" x1=".471" spreadMethod="pad" id="n"><stop stop-color="#090f0f" offset="0"/><stop stop-color="#1e3a3c" offset="1"/></linearGradient><linearGradient y2=".208" y1="1.017" x2="-2.65" x1="-.818" spreadMethod="pad" id="o"><stop stop-color="#2b4848" offset="0"/><stop stop-color="#539ca6" offset="1"/></linearGradient><linearGradient y2="-.266" y1=".286" x2="-2.394" x1="-2.394" spreadMethod="pad" id="p"><stop stop-color="#203535" offset="0"/><stop stop-color="#539ca6" offset="1"/></linearGradient><linearGradient y2="-2.101" y1="-2.101" x2="38.897" x1="-52.379" spreadMethod="pad" id="q"><stop stop-color="#284444" offset="0"/><stop stop-color="#3a6d74" offset="1"/></linearGradient><linearGradient y2=".5" y1=".5" x2=".444" x1="0" spreadMethod="pad" id="r"><stop stop-color="#badbdc" offset="0"/><stop stop-color="#678d96" offset="1"/></linearGradient><linearGradient y2=".531" y1=".953" x2="-.179" x1=".461" spreadMethod="pad" id="s"><stop stop-color="#090f0f" offset="0"/><stop stop-color="#2f555e" offset="1"/></linearGradient><linearGradient y2=".659" y1=".659" x2="1" x1=".157" spreadMethod="pad" id="t"><stop stop-color="#090f0f" offset="0"/><stop stop-color="#2f555e" offset="1"/></linearGradient><linearGradient y2=".215" y1="3.176" x2=".098" x1="2.678" spreadMethod="pad" id="u"><stop stop-color="#090f0f" offset="0"/><stop stop-color="#4a8c95" offset="1"/></linearGradient><linearGradient y2=".293" y1=".293" x2="1.208" x1="-.208" spreadMethod="pad" id="v"><stop stop-color="#090f0f" offset="0"/><stop stop-color="#2f555e" offset="1"/></linearGradient><linearGradient y2="-.796" y1="4.732" x2="-9.226" x1="-3.838" spreadMethod="pad" id="w"><stop stop-color="#182928" offset="0"/><stop stop-color="#539ca6" offset="1"/></linearGradient><radialGradient spreadMethod="pad" r="819.2" id="x" gradientUnits="userSpaceOnUse" gradientTransform="translate(148.65 141.55) scale(.0533)" cy="0" cx="0"><stop stop-opacity="0" stop-color="#628ebb" offset="0"/><stop stop-opacity=".773" stop-color="#b76093" offset=".239"/><stop stop-opacity="0" stop-color="#be3a7d" offset="1"/></radialGradient><radialGradient spreadMethod="pad" r="819.2" id="y" gradientUnits="userSpaceOnUse" gradientTransform="translate(148.65 141.55) scale(.0438)" cy="0" cx="0"><stop stop-opacity="0" stop-color="#628ebb" offset="0"/><stop stop-opacity=".671" stop-color="#b76093" offset=".239"/><stop stop-opacity="0" stop-color="#be3a7d" offset="1"/></radialGradient><g id="A"><path fill-rule="evenodd" fill="#28405b" d="M172.15 29.75q14.15 20.85 15.1 47 1.1 12.15-2.65 21l-2.1-11.9q-3.3 23.2-15 33.75l-4.4 3.75 3.45-16.6.1-.25 1.1-3.95 2.4-16.05q-18.95-19.1-30.6-20l3.4 7.15q-3.9-4.15-8.3-4.8l2.9 3.55 6.05 59.4 7.2-2.9 1.7-1.2h6.05q3.25 1.45 0 4.9 1.8 1.55 0 5.8l-2.8.75q1.45 2.1 0 4.15l-1.8.6h-.05q.2 1-.2 2.05l12.05 3.5 8 4.45 2.05 2.7.15.2q7.55 11.15-2.4 20.65l-6 3.5-2.85.4 4 43.35 30.85 14.75-7.7 23.7-4.3 5.6-14.25 5.3-7.8 10.8L149.8 299l-15.25 8.95-4.75 10.55-12 19.75h-6.25l-15.5-14.75-3.75 2.75V319l-9.75 3.75h-7l-4.15-8h-3.35l-24.05-25-7.5-3.25-8.7-14.5-5.3-2.55H18l-1.5-6.1-9.5-3.4-7-16.25q6.95-.25 18.1-2.9l4.35-6.55 16.7-4.3-1.85-12.15.8-9.45-3.95-6.65-2.6-11.05q-4.75-.25-6.65-2.55-2-3.65-3.8-6.45l-1.65-3 2.9-1.55-3.7-1.6q-1.6-2.8-1.9-5.9-.4-4.25 1.25-7.65 3.15-6.65 14.5-11.05l14.25-3.05q-2.65-1.05-2.4-2.85 2-7.05 4.15-9.15l4.9-3.65q4.15-4.75 8.35-6.65.05-2 1.05-3.45l5.15-43.8 3.1-4.85v-.05l-.8.25-15.5-14.25h-3q-5 5.2-7.35 13.55-5.2 7.45-6.55 11.65-1.35 4.15-.5 9.4-3.15-7.15-3.7-10.6Q32 73 32.85 60.9q-5.35 6.6-8.55 18.5l-.5-.1v.05l-.5 4.1q-.85 7.2-1.05 14.7l9.25 25.55-8.75-11.75-6-21.55q-.3-5.95-.15-11.7.35-14.35 3.4-27.8l26.75-42H51l21.4 28.4.05.05 3.3 1.9-7.5-14.1 13.5 12.5q2.1-6.45 10.1-9.05 4.25-1.4 10.2-1.7l9-12.5v18.5l2 3.5-.95 7.55 6 1.3q9.4-3.75 17.5-11.05l7.5-16.45 4.8-14.55-1.05-3.2q11.2 8 24.7 28.9l.2.3.4.55m-21.6 153.95h.1l-.1-.05v.05" transform="translate(.75 .75)"/><path stroke-width="1.5" stroke-linejoin="round" stroke-linecap="round" stroke="#79855a" fill="none" d="M172.9 30.5q14.15 20.85 15.1 47 1.1 12.15-2.65 21l-2.1-11.9q-3.3 23.2-15 33.75l-4.4 3.75 3.45-16.6.1-.25 1.1-3.95 2.4-16.05q-18.95-19.1-30.6-20l3.4 7.15q-3.9-4.15-8.3-4.8l2.9 3.55 6.05 59.4 7.2-2.9 1.7-1.2h6.05q3.25 1.45 0 4.9 1.8 1.55 0 5.8l-2.8.75q1.45 2.1 0 4.15l-1.8.6h-.05q.2 1-.2 2.05l12.05 3.5 8 4.45 2.05 2.7.15.2q7.55 11.15-2.4 20.65l-6 3.5-2.85.4 4 43.35 30.85 14.75-7.7 23.7-4.3 5.6-14.25 5.3-7.8 10.8-15.7 14.15-15.25 8.95-4.75 10.55-12 19.75h-6.25l-15.5-14.75-3.75 2.75v-7.25l-9.75 3.75h-7l-4.15-8H68.8l-24.05-25-7.5-3.25-8.7-14.5-5.3-2.55h-4.5l-1.5-6.1-9.5-3.4-7-16.25q6.95-.25 18.1-2.9L23.2 235l16.7-4.3-1.85-12.15.8-9.45-3.95-6.65-2.6-11.05q-4.75-.25-6.65-2.55-2-3.65-3.8-6.45l-1.65-3 2.9-1.55-3.7-1.6q-1.6-2.8-1.9-5.9-.4-4.25 1.25-7.65 3.15-6.65 14.5-11.05l14.25-3.05q-2.65-1.05-2.4-2.85 2-7.05 4.15-9.15l4.9-3.65q4.15-4.75 8.35-6.65.05-2 1.05-3.45l5.15-43.8 3.1-4.85v-.05l-.8.25-15.5-14.25h-3q-5 5.2-7.35 13.55-5.2 7.45-6.55 11.65-1.35 4.15-.5 9.4-3.15-7.15-3.7-10.6-1.65-10.4-.8-22.5-5.35 6.6-8.55 18.5l-.5-.1v.05l-.5 4.1Q23.2 91.4 23 98.9l9.25 25.55-8.75-11.75-6-21.55q-.3-5.95-.15-11.7.35-14.35 3.4-27.8l26.75-42h4.25l21.4 28.4.05.05 3.3 1.9L69 25.9l13.5 12.5q2.1-6.45 10.1-9.05 4.25-1.4 10.2-1.7l9-12.5v18.5l2 3.5-.95 7.55 6 1.3q9.4-3.75 17.5-11.05l7.5-16.45 4.8-14.55-1.05-3.2q11.2 8 24.7 28.9l.2.3.4.55m-21.6 153.95v-.05l.1.05h-.1"/><path fill-rule="evenodd" fill="url(#a)" d="M146.85 0q11.2 8 24.7 28.9l.2.3.4.55q14.15 20.85 15.1 47 1.1 12.15-2.65 21l-2.1-11.9q-3.3 23.2-15 33.75l-4.4 3.75 3.45-16.6.1-.25 1.1-3.95 1.2-5.85.9-6.25 2.45-17q-.9-13.15-7.75-23.25l-5.45-6.9-4.35-10.3-3.3-26.85-4.6-6.15" transform="translate(.75 .75)"/><path fill-rule="evenodd" fill="url(#b)" d="m147.9 3.2 1.35 5.5-1.35-5.5-1.05-3.2 4.6 6.15 3.3 26.85 4.35 10.3 5.45 6.9q6.85 10.1 7.75 23.25l-2.45 17q2.5-23.15-8-41.2Q151 40.5 150.85 23q-.25-7.55-1.6-14.3L138 37.4q-4.4 7.75-17.75 11l-8.15-4.45 6 1.3q9.4-3.75 17.5-11.05l7.5-16.45 4.8-14.55M76.5 42.15l-4.25-1.9q-4.5-5.45-7.55-11.55v-.05l-1.85-4L72.4 37.3l.05.05 3.3 1.9.75 1.4v1.5m-3.25-3.75-.8-1.05.8 1.05" transform="translate(.75 .75)"/><path fill-rule="evenodd" fill="url(#c)" d="m108.05 18.6 3-4.2v18.5l2 3.5-.95 7.55-1 7.6-2.2 7.65 5.65 1.7 20.5-14.5q-7.65 9.95-18.75 17.3l-2.25 1.8q-2.45-2.85-6.95-3.55h-2q.25 4.3-3.05 9.4 1.55-3.1 1.5-6.9h-.9l-8.25 1.1 1.9 6.15q-2.75-3.9-4.2-8.5l-.6 1.55-3.3-1.85q1.25-1.3 3.05-1.8-1.8.5-3.05 1.8-1.25 1.25-1.95 3.35l-.7-.1q-12.65-2.6-21.8-11.9 10.25 6.1 21.35 8l1.45-.95-2.5-2.4-7.55-15.25v-3l-.75-1.4-7.5-14.1 13.5 12.5L87 40.9q6.15-7.4 15.05-10.5 1.75-5.15 6-11.8m-2.7 27.45q-3.8 7.45 0 8.6 5.1-2.35 4-8.25-1.05-2.6-2.65-2l-1.35 1.65-5.15 6.1 5.15-6.1m-6.1 6.35 8.85-12.5-1.35-.85q-7.2 1.7-8.15 11.85l.65 1.5m-1.1.5-.25-.15-.5-.05-.55.05-.2.15.2.15.55.05.5-.05.25-.15m-2.45-3.45q-5.8-7.6-11.2-7l-1.85 1.85 13.05 7.25v-2.1m1.8 4.25-1 .1-.4.3.4.25 1 .15 1-.15.4-.25-.4-.3-1-.1M92.65 58q-.55.7-.25 1.65.25.85 4.25 2-2.15-1.95-.55-2h1.5l1.75 4.6 1.25-5.5 1.55-.2q.5 1.1-.95 2.2l1.9-.85.1-.8q.3-3.05-.5-3.75l-1.25-1.4-7.8 2.1-1 1.95m12.9.15 3.35 1.05-3.35-1.05M83.3 47.9q1 5 4.55 8.1 3.05.25 2.05-4.15l3.95 2.3-3.95-2.3-3.95-2.35q-1.65-1.45-2.65-1.6-1.3-.2-1.7 1.6.4-1.8 1.7-1.6m26.65-5.15h-1.85l.6-.75-.6.75h1.85m-3.25 1.65 1.4-1.65-1.4 1.65M90.1 59l-3.55 2.3L90.1 59" transform="translate(.75 .75)"/><path fill-rule="evenodd" fill="url(#d)" d="M102.05 26.9v3.5Q93.15 33.5 87 40.9l-5.25-3.25q3.2-9.85 20.3-10.75" transform="translate(.75 .75)"/><path fill-rule="evenodd" fill="#678d96" d="M102.05 30.4v-3.5l6-8.3q-4.25 6.65-6 11.8m-17.6 38.4-.05-.05h.05v.05m-52.9 121.85 5.2-.2h7.6L41 193.2l4 19.8 8.25-.35 7.1 29.95-.25 1.65.25-1.65.4 1.65-1 2.15.35-2.15-19.4-.75-1.55-13.55-1.85-12.15.8-9.45-3.95-6.65-2.6-11.05m26.7 65.1L37.5 252.5V249l20.75.5v6.25m1.85-11.5h.65-.65" transform="translate(.75 .75)"/><path fill-rule="evenodd" fill="#9e051c" d="M106.4 47.15q-.4 0-.7.25-.25.3-.25.7l.25.65q.3.3.7.3l.65-.3.3-.65-.3-.7q-.25-.25-.65-.25m-1.05-1.1 1.35-1.65q1.6-.6 2.65 2 1.1 5.9-4 8.25-3.8-1.15 0-8.6m-15.45 5.8q1 4.4-2.05 4.15-3.55-3.1-4.55-8.1 1 .15 2.65 1.6l3.95 2.35m-4.7-1.35-.45.2-.2.45.2.45.45.2.45-.2.2-.45-.2-.45-.45-.2" transform="translate(.75 .75)"/><path fill-rule="evenodd" fill="#f96083" d="M106.4 47.15q.4 0 .65.25l.3.7-.3.65-.65.3q-.4 0-.7-.3l-.25-.65q0-.4.25-.7.3-.25.7-.25M85.2 50.5l.45.2.2.45-.2.45-.45.2-.45-.2-.2-.45.2-.45.45-.2" transform="translate(.75 .75)"/><path fill-rule="evenodd" fill="url(#e)" d="m98.15 52.9-.25.15-.5.05-.55-.05-.2-.15.2-.15.55-.05.5.05.25.15" transform="translate(.75 .75)"/><path fill-rule="evenodd" fill="url(#f)" d="m99.25 52.4-.65-1.5q.95-10.15 8.15-11.85l1.35.85-8.85 12.5m-3.55-2.95v2.1L82.65 44.3l1.85-1.85q5.4-.6 11.2 7m1.8 4.25 1 .1.4.3-.4.25-1 .15-1-.15-.4-.25.4-.3 1-.1" transform="translate(.75 .75)"/><path fill-rule="evenodd" fill="#0a2225" d="m102.15 58.55-1.55.2-1.25 5.5-1.75-4.6h-1.5q-1.6.05.55 2-4-1.15-4.25-2-.3-.95.25-1.65.95-1.25 4.7-1.65l4.75-1.25q.35 0 .6.25.8.7.5 3.75l-.1.8-1.9.85q1.45-1.1.95-2.2.85 0 1.05.55-.2-.55-1.05-.55" transform="translate(.75 .75)"/><path fill-rule="evenodd" fill="#97b4b7" d="m91.5 64.75.6-1.55q1.45 4.6 4.2 8.5l-2.2-1.4q-1.55-2.4-2.6-5.55m11.15-.3h.9q.05 3.8-1.5 6.9l.6-6.9" transform="translate(.75 .75)"/><path fill-rule="evenodd" fill="url(#g)" d="m84.05 58.9 2.5 2.4-1.45.95q-11.1-1.9-21.35-8 9.15 9.3 21.8 11.9l.7.1q.7-2.1 1.95-3.35l4.5 6.5.9 2.45-4.65 1.05q-.4-2.4-3.45-3.75l-1-.35-.05-.05.05.05 1 .35q3.05 1.35 3.45 3.75-2.25-.1-3.75.75-1.3.7-2.1 2.1-1.9-3.05 1.35-6.95v-.05h-.05q-1.4.3-2.4.9-1.9 1.1-2.1 3.35-4.35.5-6.25 4.05-.45-2.4.65-4.75.85-1.85 2.6-3.65-2.15-.05-3.5.6-2.35 1.1-2.35 4.15l-.8.25-15.5-14.25h-3q-5 5.2-7.35 13.55-5.2 7.45-6.55 11.65-1.35 4.15-.5 9.4-3.15-7.15-3.7-10.6Q32 73 32.85 60.9q-5.35 6.6-8.55 18.5l-.5-.1q4.6-32.7 21.95-60.15L47 14.7l1.35-4h1.9L64.7 28.65v.05q3.05 6.1 7.55 11.55l4.25 1.9v1.5l7.55 15.25m-2.5 10.35-4.65-.6 4.65.6" transform="translate(.75 .75)"/><path fill-rule="evenodd" fill="url(#h)" d="m88.2 62.9 3.3 1.85q1.05 3.15 2.6 5.55l2.2 1.4-1.9-6.15 8.25-1.1-.6 6.9q3.3-5.1 3.05-9.4h2l-.95 1.25-1.95 7.8-1.25 5.6.05-.85-2.4-3.8q1.35 3.4 0 4.3l-3.6.35v-4.3l-1.6 4.2-1.8-4.65-.9-2.45-4.5-6.5m15.15 8.1h.85-.85" transform="translate(.75 .75)"/><path fill-rule="evenodd" fill="url(#i)" d="M102.7 55.35q-.25-.25-.6-.25l-4.75 1.25q-3.75.4-4.7 1.65l1-1.95 7.8-2.1 1.25 1.4" transform="translate(.75 .75)"/><path fill-rule="evenodd" fill="url(#j)" d="m167.75 102.55 2.4-16.05q-18.95-19.1-30.6-20l3.4 7.15q-3.9-4.15-8.3-4.8l-3.1-.05-.5-1.15q-3.4-6.75-7.45-1.65-1.95-2-5.1-.45l-2.2 1.3-.4.3-.9.7-2.65 2.15 2.65-2.15.9-.7.4-.3 2.2-1.3q3.15-1.55 5.1.45 4.05-5.1 7.45 1.65l.5 1.15.65 1.65-6.7-.6.6 3q-4.3-4.2-9.8-3.2-1.25.2-2.55.7l-1.4-.35-8.15 1 1.95-7.8.95-1.25q4.5.7 6.95 3.55l2.25-1.8q11.1-7.35 18.75-17.3l-20.5 14.5-5.65-1.7 2.2-7.65 1-7.6 8.15 4.45q13.35-3.25 17.75-11l11.25-28.7q1.35 6.75 1.6 14.3.15 17.5 11 26.25 10.5 18.05 8 41.2l-.9 6.25-1.2 5.85m-42.25-32.7q-.6-2.2-1.55-3.4l-.35-.45.35.45q.95 1.2 1.55 3.4" transform="translate(.75 .75)"/><path fill-rule="evenodd" fill="#417470" d="m134.65 68.85 2.9 3.55 6.05 59.4-.6.25h-.1l-2.3-.5-.4-11.5-3.8-1.15 3.45-2.55-2.15-20.15-2.5-1.3 2.15-1.3-1.8-14.45-2.25-1.8.6-.8V72.5l-1.7-2.05-.65-1.65 3.1.05m19.05 77.1 12.05 3.5 2.55 1.4-5.6.8-11.1-3q1.55-1.35 2.1-2.7m20.05 7.95 2.05 2.7-11.3-2.7h9.25m-4.5 82.2 2.8 2.9v.65l-18.7 3-3.85-1.8-1.4-2 21.15-2.75" transform="translate(.75 .75)"/><path fill-rule="evenodd" fill="url(#k)" d="m132.2 70.45 1.7 2.05v4.05l-.6.8 2.25 1.8 1.8 14.45-2.15 1.3 2.5 1.3 2.15 20.15-3.45 2.55 3.8 1.15.4 11.5-2.3-.5-2.8-1.5q.1-4-3.7-3l-1.4-3.05-3.4-5.55q-2.15-3.55-4.6-5.8l-3.5-2.5-.25-.15q-1.3-18.85-2.35-38.85v-1q5.5-1 9.8 3.2l-.6-3 6.7.6m3 39.85-12.8 1.85 12.8-1.85m-12.6 34.15 3.7-1.3-3.7 1.3m3.7-1.3 1.6 1.55q1.75 10.05-3.2 16.8 4.95-6.75 3.2-16.8l1.5 1.45 6.1.85.3.65h4.4l4 2.1h2.95l1.65.75-6.65 3.7h-8.8l-3.05 12.25-5.6-4.95-2-1.75-1.55-17.55q1.7 1.3 5.15.95m13.9 4.5h-.1.1m-16.45-48.6h11-11m-.7-12.15h10.5-10.5m-3.1-9.55h13.35-13.35" transform="translate(.75 .75)"/><path fill-rule="evenodd" fill="url(#l)" d="M116.3 69.65v1q1.05 20 2.35 38.85l-.2-.1-2.55-.95L112.35 70l1.4.35q1.3-.5 2.55-.7M88.95 72.9l-1.5 20.6-.95 3.1q-1.35 3.8-3.4 6.3l.6-8.35 1.5-20.9q1.5-.85 3.75-.75" transform="translate(.75 .75)"/><path fill-rule="evenodd" fill="url(#m)" d="M100.6 76.25q1.35-.9 0-4.3l2.4 3.8-.05.85-.1 1.15q-2.25 1.95-7 0l-.45-1.25 1.6-4.2v4.3l3.6-.35" transform="translate(.75 .75)"/><path fill-rule="evenodd" fill="url(#n)" d="m104.2 71 8.15-1 3.55 38.45-2.65-.4q1.35-8.85-2.25-16.7l-5.2-6.1q-2-1.5-4.25-1.35-8.8.55-14.1 9.6l1.5-20.6 4.65-1.05 1.8 4.65.45 1.25q4.75 1.95 7 0l.1-1.15 1.25-5.6m-21.1 31.9-1.45 1.55-1 .75.4-10.65.1-2.6q-4.85-3.35-6.95-6.5-2.1-3.1-1.5-6.05.25-1.2.95-2.35 1.9-3.55 6.25-4.05-.2 2.6 1.95 6.65.3-2.4 1.25-3.9.8-1.4 2.1-2.1l-1.5 20.9-.6 8.35m38.05 39.3 1.55 17.55-.25-.25q-4.65-8.9-4.8-18.5l2-1.4q.3 1.7 1.5 2.6m-41-30.05.1-1.55.9 1.15-.5.2-.5.2m.9-27.15-6.85.45 6.85-.45m2.65 9.55h-2.65 2.65M78.1 139l2.5-1.9-.8 12.5-.05 1.05.05-1.05-.05 1v.05l-1.3 2.3-.85-7.95.5-6m-1.6 5.4-1.4-.75v-.05l1.4.8" transform="translate(.75 .75)"/><path fill-rule="evenodd" fill="#3f305a" d="M87.45 93.5q5.3-9.05 14.1-9.6 2.25-.15 4.25 1.35l5.2 6.1q3.6 7.85 2.25 16.7 1 2.45 4.05 4-.25 2.95-1.85 5.05-5.9-1.5-7.3-6.65l-.1-1.5q-.85-4-3.6-5.7l-.4-.65-1.8-.75q-2.65.65-5.25 1.9-3.45 1.6-6.15 3.95-.95.75-1.8 1.65l-1.9 2.1q.15 2.8 2.05 5.45l4.45 7.6-.5.75-1.1-.15 1.1.15-1.1-.15q-3.1-5.7-7.05-10.15l-3.85-3.2-.9-1.15-2.95-3.75 2.9 1.5h.05l1-.1.85-.1.65-.1q3.4-.75 6.25-2.95l8.5-6.65q-3.95 1.1-7.9 4.25l1.4-5.8 3.75-4.55q-.8-2.65-8.25 4.25l.95-3.1m17.9 3.75 5.25 7.4 1.1 4.35-.75-7.85q-2.35-3.9-5.6-3.9m1.65 6.55 1 .4v.6-.6l-1-.4m-19.85 47.65h6.45q8.15.1 16.05 2.25l4.2 1.3 2.65 2.35h3.5l2.45 2.15.3 1.25-.3-1.25.25.25 2 1.75 5.6 4.95.95.8h-.05q1.65 1.05 0 .5l-1.2-.05-3.4.3q-5.25 1.05-9 6.05-3.9 5.2-6.3 7.05-1.25.95-2.1 1l-4.3.05h-6.15l-2.75-1.4-2.75-1q-2.15-1.6-4.25-2.05l-2.6-.25q-2.4-5.05-4.55-6.9l-.4.2q-1.55.2-6.25-3.8l-.45-.35q-5.35-4.1-10.55 3.65-6.7 3.75-6.95 7.05h-.3v-3.35l9.1-9.4.75-.75.75-.8.25-.3 4.25-4.4 6.4-5.35 1.15-.2 7.55-1.3m17.35 3.4-6.4-1.25-10.6.25 6.85 6.9q8.4 0 14.65-2.15l-4.5-3.75m.7 8.1-1.9.5-7.85.2 3.2 2.55q6.35-.9 10.4-2.75 2.25-1.05 3.75-2.35l-7.6 1.85m11.3-5.6v3.3-3.3m4.6 11.35 5.05-1.2-9.65-6.85q-.75 1.4-2.9 2.8-4.15 2.7-13.35 5.45-7.75-.6 9.8 9 4.75-5.4 11.05-9.2m10.1-1.45v.5-.5m-2.5 22.25.25 1.4q-9.25 3.05-20 .7l-1.75-.6-12.5-4.25 10.2.35q4.05-1.05 11.85-1.3l5.95 1.85-11.45 2.1h9.15l6.85-.7 1.45.45m-38.55-16.9q10.65 6.9 16.6 5.2l-3.6-2.4q-9.15-1.2-14-3.8l1 1" transform="translate(.75 .75)"/><path fill-rule="evenodd" fill="#71715c" d="M97 103.75q2.6-1.25 5.25-1.9l1.8.75.4.65q-1.2.15-2.15 1-1.05 1.1-.1 1.7.9.55 1.9 1.85l1.65 2q.75.85 1.8-.3l.5-.55.1 1.5.25 3.45-3.45 2.1v-1.15l-3.2 1.7v1.75-1.75l3.2-1.7V116l3.45-2.1.15 1.35-3.75 5.7-1.85 1.9-2.3.6q3.3-1 1.6-2.35h-3l-1.75-1.45 1.05-.4.3.5.45-1.45h2.45q-1.2-3.45-4-3.95l-1.5-.45q1.2-.5.9-1.15v-3.9q-.05 1.4-.9 3.5-.7.7-1.25 0v1.4l-1.95-.2v.75l-1.6 2.5-2-2.2-.4-5.25q.85-.9 1.8-1.65-.65 4.1 2.65 3.45l2.05-2.9q2.3-2.75 1.45-4.5m-1.35 6.85q1.2-1.05 1.55-2.8-1.5 2.8-6.05 4.95 4.4-.2 4.5-2.15m6.85 1.95-.55-.9-.5.65h-.95l-1.2-4.3q-.6 3.7 1.05 5.85l1.1-.2 1.05-1.1m4.9-1.1q-4.2-1.15-7.05-4.95 1.5 4.15 5.4 5.75 1.7.1 1.65-.8m-11.05 12-1.95-.6v-.65l-2.15-4q.6.75 2.65 1l1.45 4.25" transform="translate(.75 .75)"/><path fill-rule="evenodd" fill-opacity=".741" fill="#bed8bf" d="M108.15 110.45q1.4 5.15 7.3 6.65l-2.2 2q-3.9-1.1-4.85-5.2l-.25-3.45M86.5 96.6q7.45-6.9 8.25-4.25L91 96.9l-1.4 5.8q3.95-3.15 7.9-4.25L89 105.1q-2.85 2.2-6.25 2.95l-.65.1-.85.1-1 .1h-.05l-2.9-1.5.2-.05.4-.15.7-.3.2-.05.35-.2.15-.05.15-.1.3-.15.9-.6 1-.75 1.45-1.55q2.05-2.5 3.4-6.3m-4.3 9.35q4-.45 7.4-3.25-3.4 2.8-7.4 3.25m12.1 31.9h1.25q12.95.05 3.5 1.9 2.55 1.1 4.7 4.7l2.2 3.4q-4.3-1.45-8.65-1.65l-4.7.2-3.05.55-.9-3.65 2.8-2.25 7.6-1.3-7.6 1.3-1.9 5.9 1.9-5.9q-4.3 1-4.1 2.15-3.7-1.9-2-6.05-4.35-2-4.05-4.95l-.25-.35-.9-1.5v-1.45l1.25-1.4q2.05-1.9 5.85-2.6.65 4.75 5.5 8 2.95.6 3.35 1.8l-.4.25-.35.25q-2.8 1.5-6.45 1.85l-3.3.1h-.2l.8.8 1.5 1.4q-.65-.6 2.85-1.1l1.9-.4h1.85M44.35 145q2-7.05 4.15-9.15l4.9-3.65q4.15-4.75 8.35-6.65.05-2 1.05-3.45l5.15-43.8 3.1-4.85-1.3 12.3-3.6 34.45h2.65q2.55-4.8 6.95-6.4l4.2-1.6.7-.25.5-.2.95 1.2-.1.05-1.95.55Q76.1 114.9 74 117.3l-1.85 3.25-.15.55v1.9l-4.4-1.5-.1-.05.4.25 2 1.3q-1.6 1.3-4 0-3.95.9-.3 2.55l-.15 1.45q-.3.45-1 .25l.9.7q4.35 3.75-.65 6.5-.8.4-3.1 2.95l-.8-.3 5.95 2.5h.1l-2 1.75-.85-.45-6.25-2.5q-8.85-.9-13.4 6.6m-27.6 24.6q-.4-4.25 1.25-7.65 3.15-6.65 14.5-11.05l14.25-3.05q-4.1 1.1 3 5l-3.65 1.25q-.9 0-2.05 1.15t-2.7 3.55q-1.6 2.35-1 5.9-6-.05-10.15 2.2l-13.45 2.7m36.35-34.35q4.65-.1 7.7 1.85-3.05-1.95-7.7-1.85m14.85 2.95h.2l-.2.25v-.25m-1.8-18v.3l-.15.4.15-.7m-3.35 1.9.4-.05h.2l.15-.05 2.45-1.1-2.45 1.1-.15.05h-.2l-.4.05m-8.35 80.6 3.45-2.9v8.85l2.1 3.65-6.15-2.4-.05-.1q-1.55-4.5.65-7.1m-15.3 27.25 1.55 13.55 19.4.75-.35 2.15-1.5 3.1-20.75-.5v3.5l20.75 3.25 11.2-1 .55-1.1-2.25 5.75v7.25l7.2 3.2-7.2-3.2v-7.25l2.25-5.75 17.25-1.25q1.15 5.3-7.25 12.25l-1.65.4-3.4 4.8 79.8-8.65-5.2 1.8-42 14.8H62.7l-10.45-5.05 3.5-8L51.5 269l-28.25-11.75H15l4-4.3-2.25-4.25-16.75-5q6.95-.25 18.1-2.9l4.35-6.55 16.7-4.3m1.55 13.55-3.2 5.5 3.2-5.5" transform="translate(.75 .75)"/><path fill-rule="evenodd" fill="#1f1e16" d="M104.45 103.25q2.75 1.7 3.6 5.7l-.5.55q-1.05 1.15-1.8.3l-1.65-2q-1-1.3-1.9-1.85-.95-.6.1-1.7.95-.85 2.15-1m-7.45.5q.85 1.75-1.45 4.5l-2.05 2.9q-3.3.65-2.65-3.45 2.7-2.35 6.15-3.95m-2 10v-1.4q.55.7 1.25 0 .85-2.1.9-3.5v3.9q.3.65-.9 1.15h-.1l-.35-.05-.8-.05v-.05m7.5-1.2-1.05 1.1-1.1.2Q98.7 111.7 99.3 108l1.2 4.3h.95l.5-.65.55.9m-5 7.1q-.35-.9-1.05-1.45-.35.65-1.8.25v-2.6L97 117.1l1.55 2.15-1.05.4" transform="translate(.75 .75)"/><path fill-rule="evenodd" fill-opacity=".741" fill="#d6d7b9" d="m91.45 116.8 1.6-2.5v-.75l1.95.2v.05l.8.05.35.05h.1l1.5.45q2.8.5 4 3.95H99.3l-.45 1.45-.3-.5L97 117.1l-2.35-1.25v2.6l-3.2-1.65m9.2 6.65-2.3.55-2-.55-1.45-4.25-.25-.75q1.45.4 1.8-.25.7.55 1.05 1.45l1.75 1.45h3q1.7 1.35-1.6 2.35" transform="translate(.75 .75)"/><path fill-rule="evenodd" fill="#262039" d="m89.05 109.35.4 5.25 2 2.2.8 1.4 2.15 4-.75 2.3-4.45-7.6q-1.9-2.65-2.05-5.45l1.9-2.1m22.65-.35-1.1-4.35-5.25-7.4q3.25 0 5.6 3.9l.75 7.85m-3.15 6.25-.15-1.35q.95 4.1 4.85 5.2-1.5 1-3.5 1.65-.85-2.05-1.2-5.5" transform="translate(.75 .75)"/><path fill-rule="evenodd" fill="#a0a08d" d="M95.65 110.6q-.1 1.95-4.5 2.15 4.55-2.15 6.05-4.95-.35 1.75-1.55 2.8m11.75.85q.05.9-1.65.8-3.9-1.6-5.4-5.75 2.85 3.8 7.05 4.95" transform="translate(.75 .75)"/><path fill-rule="evenodd" fill="#6b3610" d="m118.65 109.5.25.15q6.9 6.4 7.85 13.55l-7.25-1.5q-3.35-1.05-6.25-2.6l2.2-2q1.6-2.1 1.85-5.05-3.05-1.55-4.05-4l2.65.4 2.55.95.2.1m-12.7 38.35 3.4 1.4 1.9.95 2.65 1.55-.05 3.25-4.2-1.3q-7.9-2.15-16.05-2.25 12.5-2.25 3.7-5.25 4.35.2 8.65 1.65m-18.8-.3v3.9l-7.55 1.3-1.15.2-6.4 5.35-4.25 4.4-1 1.1 1-1.1-.25.3-.75.8-.75.75-2.5-2.95q.95-1.85 3.05-4.4 2 1.25 2 .4-1.45-3.45.1-5.85l-9.5-1.15v-1.1l.05-.25q.25-1.15.75-2.2l.55-1q1.2-2.15 3.35-3.95l.95-.75 7.8 4.2 5.8 7.4 1.3-2.3v-.05q1.8-.95 3.55-1.65 1.95-.85 3.85-1.4M72 121.1l.15-.55L74 117.3q2.1-2.4 6.05-3.75L82 113l.1-.05.3.25q3.25 2.6 5.05 5.9-2.55 1.2-5.6 1.75l-2.4.3q-3.45.3-7.45-.05" transform="translate(.75 .75)"/><path fill-rule="evenodd" fill="#88532d" d="m118.9 109.65 3.5 2.5q2.45 2.25 4.6 5.8l3.4 5.55-3.65-.3q-.95-7.15-7.85-13.55m-38.95 2.55.2-.05.5-.2-.7.25m-15.1 29.15 2-1.75q1.05-.35 1.1-1.15l.2-.25 4.45 4.05 2.5 1.4 1.4.75 1.1.6.85 7.95-5.8-7.4-7.8-4.2m8.7 92.4q-6.45-19.65 12.25-.35l6.6 15.2-3.55 17.5-13.9 3.75 3.4-4.8 1.65-.4q8.4-6.95 7.25-12.25L70 253.65l6.4-8.15v-6.1l-2.85-5.65M124 240.2v-4.55q12.7-32.15 12.15 0l15.3 14.7 15.75 2.4-2.35 1.05-7.95.8h-9.75l-9.55-6.65L124 244v-3.8" transform="translate(.75 .75)"/><path fill-rule="evenodd" fill="#92480b" d="m119.9 126.55-10.15-5.8q2-.65 3.5-1.65 2.9 1.55 6.25 2.6l7.25 1.5 1.8 3.35h-8.65m-31.7-6.1-2.4 2.25q-2.05 2.1-4.25 2.6-1.1.2-2.25 0h-.15q-3.15-.15-5.75-.9-1.9-.55-3.5-1.4l-2-1.3-.4-.25.1.05L72 123v-1.9q4 .35 7.45.05l2.4-.3q3.05-.55 5.6-1.75l.75 1.35m-20.3 1.25-.3-.2.3.2" transform="translate(.75 .75)"/><path fill-rule="evenodd" fill="#4f5455" d="m109.75 120.75 10.15 5.8 1.6 2.7-1.85 3.65v6.7l-2 1.4-2 1.45-2.15 1.9-.55.5-1.7 5.35-1.9-.95.85-1.5q-.8-3.85-3.6-6.05 5.5 3.75 5.8 1.3l-3.2-4.05q-4.7-1.3-13.65-1.1H94.3l.25-.25-.45.05.95-.4 4.8-2q3.9 2.4 10.7 1.5 6.05-2.15 9.15-6.25l-11.6-6.1-8.6 2.25v6.25l-3.9-7.4-2.45-.25.5-.75.75-2.3v.65l1.95.6 2 .55 2.3-.55 2.3-.6 1.85-1.9 3.75-5.7q.35 3.45 1.2 5.5m.7 18.6-1.25-.4 1.25.4m17.45 5.35-1.6-1.55 3.4.65 3.2-2.4q-.05 3.2 2.6 5.6l-6.1-.85-1.5-1.45m12.2 2.85.1.1h-.1v-.1m-69.8-17.5 1.9 1.8L76 137l-1.85 2.85-1.55 2.4-4.45-4.05h-.2q3.6-.25 2.35-3.4 1.7-2.2 0-4.75" transform="translate(.75 .75)"/><path fill-rule="evenodd" fill="#635a41" d="M119.9 126.55h4.3q-3.4 6.7 4.5 6.85-1.5 1.45-2.4 3.6-3.05 3.25 0 6.15-3.45.35-5.15-.95-1.2-.9-1.5-2.6v-6.7l1.85-3.65-1.6-2.7m-40.6-1.25.85 3.6v1.45l-.75 1.45q-.2.3 0 1.15l.75 2-.75.55.2.2 1 1.4-2.5 1.9-2.1 1.5h-2.25l.4-.65L76 137l-3.8-5.15-1.9-1.8q4.7.5 7.1-1.65l-4-4q2.6.75 5.75.9l.15.1v-.1M64.45 217 60 212.3l4-6.95v9.35l1.15 2.3h-.7m16.95-19.45v-2.85l5.1 2.75 3.05 11.15-2.3 2.4-1.65-1.15-2.35 2.9-1.9-2.9-4.35 5.7-1.1-2.6-6.3 3.25v-10.75h6.95v2.85l4.5-3.8h3.1l-2.75-6.95M92.3 319l-9.75 3.75h-7q10.25-10.3 14.95-29.8l8.05 1.45-4.75 18.8-1.5 5.8m31.25-112.7 7.15-3.7h6.65l4.25 4.05 4.1-2.85h2.9l3.15-6.75 1.25 2.55v10.2l-3.7 1.45-2-2.35-4.05 1.6-1.65-3.85-7.35 3.6v-3.6l-3.65 1.5-2.85-1.5-2.25 1.6-1.95-1.95" transform="translate(.75 .75)"/><path fill-rule="evenodd" fill="#898f92" d="M142.9 132.05h.05l-.05.05h-.05l.05-.05m-49.75-6.8 2.45.25 3.9 7.4v-6.25l8.6-2.25 11.6 6.1q-3.1 4.1-9.15 6.25-6.8.9-10.7-1.5l-4.8 2-.95.4-.2.05h.05l.25.15-.25-.15h-.05.05l.25.15h-1.75l-1.95.3.05.1q-3.5.5-2.85 1.1l-1.5-1.4-.8-.8h.2l3.3-.1q3.65-.35 6.45-1.85l.35-.25.4-.25q-.4-1.2-3.35-1.8-4.85-3.25-5.5-8-3.8.7-5.85 2.6l-1.25 1.4-.85-3.6q1.15.2 2.25 0 2.2-.5 4.25-2.6l2.4-2.25q1.65 2.55 3.85 4.65l1.1.15m2.4 12.6q8.95-.2 13.65 1.1l3.2 4.05q-.3 2.45-5.8-1.3 2.8 2.2 3.6 6.05l-.85 1.5-3.4-1.4-2.2-3.4q-2.15-3.6-4.7-4.7 9.45-1.85-3.5-1.9m-1.3 0h.05-.05m-1.45-.7 2.25.1-2.25-.1m-1.35 3.9-2.8 2.25.9 3.65-2.4.6q-1.9.55-3.85 1.4-1.75.7-3.55 1.65 2.6-2.15 2.2-6.5l-.45-4.9q-.15-.9-.8-1.95l-.1-.15.1-.1-1.1-1.3-.2-.2.75-.55-.75-2q-.2-.85 0-1.15l.75-1.45.9 1.5.25.35q-.3 2.95 4.05 4.95-1.7 4.15 2 6.05-.2-1.15 4.1-2.15m34.85 2.1q-3.05-2.9 0-6.15.9-2.15 2.4-3.6.9-.95 2.05-1.6 7.7-1.3 8.65.65-3.75 2.4-4.55 3.3l-.15.2-.5.7q-.35.65-.45 1.25l-.85 3.5-3.2 2.4-3.4-.65m-10.65-.7q-.35 1.25-1.7 3.95t-.05 4.85v.5l-2.65-1.55 1.7-5.35.55-.5 2.15-1.9m-68.9 5.4q-2.65-1.05-2.4-2.85 4.55-7.5 13.4-6.6l6.25 2.5.85.45-.95.75q-2.15 1.8-3.35 3.95l-.55 1q-.5 1.05-.75 2.2l-.05.25-.5-.05-8.9-.8-3.05-.8m20.1-8.25h-.1l-5.95-2.5.8.3q2.3-2.55 3.1-2.95 5-2.75.65-6.5l-.9-.7q.7.2 1-.25l.15-1.45 4.7 4.5q1.7 2.55 0 4.75 1.25 3.15-2.35 3.4v.25q-.05.8-1.1 1.15l1.1-1.15-1.1 1.15" transform="translate(.75 .75)"/><path fill-rule="evenodd" fill="#51513c" d="m91.45 116.8 3.2 1.65.25.75q-2.05-.25-2.65-1l-.8-1.4" transform="translate(.75 .75)"/><path fill-rule="evenodd" fill="#c5c5c8" d="M92.05 125.1q-2.2-2.1-3.85-4.65l-.75-1.35q-1.8-3.3-5.05-5.9l-.3-.25-.95-1.2 3.85 3.2q3.95 4.45 7.05 10.15m12.45 29.75 4.5 3.75q-6.25 2.15-14.65 2.15l-6.85-6.9 10.6-.25 6.4 1.25m-9.05 8.8 7.85-.2 1.9-.5 7.6-1.85q-1.5 1.3-3.75 2.35-4.05 1.85-10.4 2.75l-3.2-2.55m14.6 14.25q-17.55-9.6-9.8-9 9.2-2.75 13.35-5.45 2.15-1.4 2.9-2.8l9.65 6.85-5.05 1.2q-6.3 3.8-11.05 9.2m29.7-3 8.8 8.8-16.8-4.05h-12.5q3-6.75 8.1-9.15 6.6-.7 12.4 4.4" transform="translate(.75 .75)"/><path fill-rule="evenodd" fill="#e0e6e9" d="m140.6 131.55 2.3.5-.05.05-3.45.35q-.95-1.95-8.65-.65l4.75-2.25 2.8 1.5 2.3.5m-46.5 6.1.45-.05-.25.25h-.1l-.25-.15.15-.05-.15.05h-.05l.2-.05m-3.55.6-.05-.1 1.95-.3-1.9.4" transform="translate(.75 .75)"/><path fill-rule="evenodd" fill="#cc8245" d="m128.55 126.55-1.8-3.35 3.65.3 1.4 3.05h-3.25m-39 20.4 3.05-.55 4.7-.2q8.8 3-3.7 5.25h-6.45v-3.9l2.4-.6" transform="translate(.75 .75)"/><path fill-rule="evenodd" fill="#3e1445" d="M113.9 151.75v-.5q-1.3-2.15.05-4.85 1.35-2.7 1.7-3.95l2-1.45q.15 9.6 4.8 18.5l-2.45-2.15h-3.5l-2.65-2.35.05-3.25M80.6 137.1l.1.15q.65 1.05.8 1.95l.45 4.9q.4 4.35-2.2 6.5l.05-1 .8-12.5m9.55 35.5-1-1q4.85 2.6 14 3.8l3.6 2.4q-5.95 1.7-16.6-5.2" transform="translate(.75 .75)"/><path fill-rule="evenodd" fill="#733311" d="m143.6 131.8 7.2-2.9 1.7-1.2h6.05q3.25 1.45 0 4.9 1.8 1.55 0 5.8l-2.8.75q1.45 2.1 0 4.15l-1.35.45-.45.15h-.05q.2 1-.2 2.05-.55 1.35-2.1 2.7l-1.5 1.1h-5.9l-.55-1.2q-1.05-2.4.2-2.35-.5-1.3-.3-2.2.15-1.05 1.1-1.65.65-.5 1.75-.75l-1-1.2q-1-1.85 1.2-3.2.95.5 2.65.6l1.2.05 8.1-5.25-8.1 5.25-1.2-.05 1.2-1.6q1.45-4.8-4.95-2.45.3-.8.9-1.7l4.4-3.15-4.4 3.15q-.6.9-.9 1.7l-.3 1.2-1.9 1.2.05 1.35-.6 1.35q-1.6-3.4-7.15-2.3 2.1-2.3 5.15-1.6l-1.35-2.5 3.45-.35h.05l.05-.05h.05l.6-.25m12.15 7.35-9.35 2.45 9.35-2.45m-12.95-4.2.5 1.2-.5-1.2m11.1 8.95-10.05 2.3 10.05-2.3" transform="translate(.75 .75)"/><path fill-rule="evenodd" fill="#4e220c" d="M135.5 147q-2.65-2.4-2.6-5.6l.85-3.5q-.1.65.1 1.3-.15.65.35 1.25l.4.4 1.25 1q.3.25 1.75 0-.35.65.4 1.5l.7.65.05.05.9.65q-.85 1.25.45 2.85-1.3-1.6-.45-2.85l-.9-.65-.05-.05-.7-.65q-.75-.85-.4-1.5-1.45.25-1.75 0l-1.25-1-.4-.4q-.5-.6-.35-1.25-.2-.65-.1-1.3.1-.6.45-1.25l.5-.7.15-.2q.8-.9 4.55-3.3l1.35 2.5q-3.05-.7-5.15 1.6 5.55-1.1 7.15 2.3l.6-1.35-.05-1.35 1.9-1.2.3-1.2q6.4-2.35 4.95 2.45l-1.2 1.6q-1.7-.1-2.65-.6-2.2 1.35-1.2 3.2l1 1.2-5.4-1.15.4-.3 1.1-.95.25-.35-.25.35-1.1.95-.4.3 5.4 1.15q-1.1.25-1.75.75-.95.6-1.1 1.65-.2.9.3 2.2l-2.4-.55-1.8-.95 1.8.95 2.4.55q-1.25-.05-.2 2.35l.55 1.2-4-2.1-.1-.1v.1l-1.45-.2 1.45.2h-4.3l-.3-.65m9.7-12.05q-.1 1.5 1.4 2.25l-3.25.3 3.25-.3q-1.5-.75-1.4-2.25m-6.8 12.7.25-.2-.25.2m-.8-5.8q1.8-.4 3.4-1.4-1.6 1-3.4 1.4" transform="translate(.75 .75)"/><path fill-rule="evenodd" fill="#f9f1c3" d="M128.55 126.55h3.25q3.8-1 3.7 3-1.2-1.9-6.95-3M66 120.9l.15-.4v-.3l-.15.7" transform="translate(.75 .75)"/><path fill-rule="evenodd" fill="#a39b6d" d="M124.2 126.55h4.35q5.75 1.1 6.95 3l-4.75 2.25q-1.15.65-2.05 1.6-7.9-.15-4.5-6.85M69.9 123q1.6.85 3.5 1.4l4 4q-2.4 2.15-7.1 1.65l-4.7-4.5q-3.65-1.65.3-2.55 2.4 1.3 4 0m9.25 2.3h.15v.1l-.15-.1m1.45 11.8-1-1.4 1.1 1.3-.1.1m-19.5 61q3.05-1.2 6.4-.55l10-.55 1 .1 2.9.45 2.75 6.95h-3.1l-4.5 3.8v-2.85H69.6v10.75l-2.1-3.25-3.5-7.6-4 6.95-2.1-3.65v-8.85q1.55-1.1 3.2-1.7m-.35 18.9h-.05l-2.5-2.3 1 2.2-3.35-4.4-2-2.6 6.15 2.4 4.45 4.7h-3.7m68.45-24.3 2.25 1.75 2.85-.2q8.55-.5 15.05 1.3l2.4 1.5-3.15 6.75h-2.9l-4.1 2.85-4.25-4.05h-6.65l-7.15 3.7 1.55-11.85 4.1-1.75" transform="translate(.75 .75)"/><path fill-rule="evenodd" fill="url(#o)" d="m164.85 183.05 3.85 41.65v10.8l.55.6-21.15 2.75-2.05-2.8-.1-21.3 1.35-5.85 2 2.35 3.7-1.45V208l5.05-.25 1.7-12.5 5.1-12.2m-34.55-16.6 3.05-12.25h8.8l6.65-3.7 5.25 2.4 1.05 3.1q6.25 20.25-5.55 25.55l-1.25-2.5-15.25-10.55-1.85-.75q1.65.55 0-.5h.1-.05l-.95-.8m41.75 73.2V243l-12.5 2.55-6.2-2.9 18.7-3" transform="translate(.75 .75)"/><path fill-rule="evenodd" fill="url(#p)" d="m168.3 150.85 5.45 3.05h-9.25l11.3 2.7.15.2q7.55 11.15-2.4 20.65l-6 3.5-2.85.4-14.05 2.35-.1-.05-1-2.1q11.8-5.3 5.55-25.55l-1.05-3.1-5.25-2.4-1.65-.75h2.95l1.5-1.1 11.1 3 5.6-.8" transform="translate(.75 .75)"/><path fill-rule="evenodd" fill="url(#q)" d="M64.7 28.65 50.25 10.7h-1.9l-1.35 4q.6-3.5-.25-5.8H51l11.85 15.75 1.85 4" transform="translate(.75 .75)"/><path fill-rule="evenodd" fill="url(#r)" d="m47 14.7-1.25 4.45Q28.4 46.6 23.8 79.3v.05l-.5 4.1q-.85 7.2-1.05 14.7l9.25 25.55-8.75-11.75-6-21.55q-.3-5.95-.15-11.7.35-14.35 3.4-27.8l26.75-42q.85 2.3.25 5.8m24.05 58.7q0-3.05 2.35-4.15 1.35-.65 3.5-.6-1.75 1.8-2.6 3.65-1.1 2.35-.65 4.75-.7 1.15-.95 2.35l-1.65-5.95v-.05m13.35-4.65.05.05q-3.25 3.9-1.35 6.95-.95 1.5-1.25 3.9Q79.7 75.6 79.9 73q.2-2.25 2.1-3.35 1-.6 2.4-.9" transform="translate(.75 .75)"/><path fill-rule="evenodd" fill="url(#s)" d="m80.65 105.2-.9.6-.3.15-.15.1-.15.05-.35.2-.2.05-.7.3-.4.15-.2.05 2.95 3.75-.1 1.55-.2.05-4.2 1.6q-4.4 1.6-6.95 6.4h-2.65l3.6-34.45 4.45-.3-4.45.3 1.3-12.3 1.65 5.95q-.6 2.95 1.5 6.05 2.1 3.15 6.95 6.5l-.1 2.6-.4 10.65m-8.9-10.65h9.3-9.3m-22 58.3q-7.1-3.9-3-5l3.05.8 8.9.8-8.95 3.4m22.85-10.6 1.55-2.4-.4.65H76l2.1-1.5-.5 6-1.1-.6-1.4-.8v.05l-2.5-1.4m-18.2 50.5 3.5 6-3.45 3.95q-2.2 2.6-.65 7.1l.05.1 2 2.6 3.35 4.4-1-2.2 2.5 2.3h.05l1.8 11.95 2.2 14.8-2.2-14.8 1.9-11.95h.7l8.4 16.75 2.85 5.65v3.65l-11.65.7-6.5 12 1.5-9.35 1-2.15-.4-1.65-7.1-29.95L45 213l-4-19.8 13.4-.45m1.45 19.75-2.6.15 2.6-.15m29.75-2.65 1.65 1.15 2.3-2.4-3.05-11.15-5.1-2.75q-.05-1.65.3-2.85l25.5-.85 1.75.6 2.6 11.6 4 2.8.5 3.7 2.1 15.3 4.4-11.2v5.4l5.2-5.05v7.55L124 235.65v4.55L93.7 242l-2.1-14.2-5.6-16.7-.4-1.25m.4 1.25 30.05-1.4L86 211.1m74.55-21.9-.8 6.05-1.7 12.5-5.05.25v-8.4l-1.25-2.55-2.4-1.5 2.7-6.05 8.5-.3m-14.6 25.55.1 21.3-3.8-5.35 3.7-15.95" transform="translate(.75 .75)"/><path fill-rule="evenodd" fill="url(#t)" d="M40.35 164.7q-.6-3.55 1-5.9 1.55-2.4 2.7-3.55 1.15-1.15 2.05-1.15l3.65-1.25 8.95-3.4.5.05v1.1l9.5 1.15q-1.55 2.4-.1 5.85 0 .85-2-.4-2.1 2.55-3.05 4.4l2.5 2.95-9.1 9.4v3.5l.3-.15-4.45 4.5-.5 3.4-.5 3.1 2.6 4.45-13.4.45 3.35-2.75 2.05-1.7-4.45-7.5q-.25-6.85-1-11.25-.75-2.9-.6-5.2v-.1m41.35 27.15q.45-1.6 1.65-2.35l5-4.9 6.35 2.15 12.5 4.25-25.5.85M22.35 177.1l-3.7-1.6h6.55l-2.85 1.6m29.95 8.1-5.9 3.55 5.9-3.55m98.25-1.5h.1l9.9 5.5-8.5.3.6-1.45-2.1-4.35" transform="translate(.75 .75)"/><path fill-rule="evenodd" fill="url(#u)" d="m16.75 169.6 13.45-2.7q4.15-2.25 10.15-2.2v.1q-.15 2.3.6 5.2.75 4.4 1 11.25l4.45 7.5-2.05 1.7h-7.6l-5.2.2q-4.75-.25-6.65-2.55-2-3.65-3.8-6.45l-1.65-3 2.9-1.55 2.85-1.6h-6.55q-1.6-2.8-1.9-5.9m9.45 10.1h10-10" transform="translate(.75 .75)"/><path fill-rule="evenodd" fill="#1a293c" d="m81.45 170.75.4-.2q2.15 1.85 4.55 6.9l2.6.25q-4.8 8.8-12.25 13.25l1.75 6.15-1-.1-10 .55q-3.35-.65-6.4.55l-4.15-8.1h2.15l4.3-11 18.05-8.25" transform="translate(.75 .75)"/><path fill-rule="evenodd" fill="#28405b" d="M64.2 170.25q5.2-7.75 10.55-3.65l.45.35q4.7 4 6.25 3.8L63.4 179l-4.3 11h-2.15l4.15 8.1q-1.65.6-3.2 1.7l-3.45 2.9 3.45-3.95-3.5-6-2.6-4.45.5-3.1.5-3.4 4.45-4.5 6.95-7.05" transform="translate(.75 .75)"/><path fill-rule="evenodd" fill="#651f70" d="M131.25 167.25h.05-.1.05m-74 10.05-.3.15v-.15h.3" transform="translate(.75 .75)"/><path fill-rule="evenodd" fill="#21314d" d="m131.2 167.75 1.85.75 15.25 10.55 1.25 2.5 1 2.1v.05l2.1 4.35-.6 1.45-2.7 6.05q-6.5-1.8-15.05-1.3l3.95-6.7-19.05-2.85-7.9-3.6q2.4-1.85 6.3-7.05 3.75-5 9-6.05l3.4-.3 1.2.05m-67 2.5-6.95 7.05q.25-3.3 6.95-7.05m75.55 4.65q-5.8-5.1-12.4-4.4-5.1 2.4-8.1 9.15h12.5l16.8 4.05-8.8-8.8" transform="translate(.75 .75)"/><path fill-rule="evenodd" fill="#5b331e" d="M65.15 217 64 214.7v-9.35l3.5 7.6 2.1 3.25 6.3-3.25 1.1 2.6 4.35-5.7 1.9 2.9 2.35-2.9.4 1.25 5.6 16.7 2.1 14.2v.1l2.1 14.45-6.95 9.55 3.55-17.5-6.6-15.2q-18.7-19.3-12.25.35L65.15 217M124 235.65l3.75-13.95v-15.05l2.85 1.5 3.65-1.5v3.6l7.35-3.6 1.65 3.85 4.05-1.6-1.35 5.85-3.7 15.95 3.8 5.35 2.05 2.8 1.4 2 3.85 1.8 6.2 2.9 3.6 1.7 4.05 5.5-15.75-2.4-15.3-14.7q.55-32.15-12.15 0m27.8 7.25 1.55-.25-1.55.25" transform="translate(.75 .75)"/><path fill-rule="evenodd" fill="#0e1821" d="M89 177.7q2.1.45 4.25 2.05l-4.9 4.85-5 4.9q-1.2.75-1.65 2.35-.35 1.2-.3 2.85v2.85l-2.9-.45-1.75-6.15Q84.2 186.5 89 177.7m15.9 4.45 4.3-.05q.85-.05 2.1-1l7.9 3.6 19.05 2.85-3.95 6.7-2.85.2-2.25-1.75-.25-1.8-.25-1.4-1.45-.45-4.55-1.4-5.95-1.85-11.85-3.65" transform="translate(.75 .75)"/><path fill-rule="evenodd" fill="#afa961" d="m16.5 263.35-9.5-3.4-7-16.25 16.75 5 2.25 4.25-4 4.3 1.5 6.1m6.75-6.1L51.5 269l.3 14.5-12-5.75-12-5.75-5.3-2.55.75-12.2m29 15.5 10.45 5.05h44.85V296l-9-1.6-8.05-1.45-30.15-5.4-3.1-.55-2.5-7.15-2.5-7.1" transform="translate(.75 .75)"/><path fill-rule="evenodd" fill="#b8a057" d="m16.5 263.35-1.5-6.1h8.25l-.75 12.2H18l-1.5-6.1" transform="translate(.75 .75)"/><path fill-rule="evenodd" fill="url(#v)" d="M60.75 217h3.7l-1.9 11.95-1.8-11.95" transform="translate(.75 .75)"/><path fill-rule="evenodd" fill="#1f454e" d="m59.75 246.4-1.5 9.35v-6.25l1.5-3.1" transform="translate(.75 .75)"/><path fill-rule="evenodd" fill="#6b582e" d="m168.7 224.7 30.85 14.75-7.7 23.7-4.3 5.6-14.25 5.3-7.8 10.8L149.8 299l-15.25 8.95 5.7-12.55-5.7 12.55-4.75 10.55-12 19.75h-6.25l-15.5-14.75-3.75 2.75V319l1.5-5.8 8.45 7.75 30.1-27.7 2.6-12.05 8.05 8-2.75 6.2 19.25-18.7-20.9 2.5-31.05 16.8v-18.2l42-14.8 5.2-1.8-79.8 8.65 13.9-3.75 6.95-9.55-2.1-14.45v-.1l30.3-1.8v7.6l13.6 3.2 8.7 6.4h10.45l8.1-3.6 2.35-1.05-4.05-5.5-3.6-1.7 12.5-2.55v-4l-2.8-2.9-.55-.6v-10.8M58.25 255.75l6.5-12 11.65-.7v2.45l-6.4 8.15-.55 1.1-11.2 1m141.3-16.3-7.5 8.55-37.3 13.2 37.3-13.2 7.5-8.55M93.7 242.1v-.1.1m55.85 20.9-3.25 12-7.7 4.2 7.7-4.2 3.25-12m9.95 13.7 9.8-1.2 4-1.45-4 1.45-9.8 1.2m28.05-7.95 4.5-20.75-4.5 20.75" transform="translate(.75 .75)"/><path fill-rule="evenodd" fill="#887240" d="m51.5 269 4.25-4.25-3.5 8 2.5 7.1 2.5 7.15 3.1.55 2.7 8.2-2.7-8.2 30.15 5.4q-4.7 19.5-14.95 29.8l-4.15-8L65.8 304l-2.75-8.25-23.25-18 12 5.75-.3-14.5m.3 14.5 2.95-3.65-2.95 3.65m20.75 31.25H71.4h1.15" transform="translate(.75 .75)"/><path fill-rule="evenodd" fill="#a2874a" d="m39.8 277.75 23.25 18L65.8 304l5.6 10.75h-3.35l-24.05-25-7.5-3.25-8.7-14.5 12 5.75" transform="translate(.75 .75)"/><path fill-rule="evenodd" fill="url(#w)" d="m164.7 181.35.15 1.7-5.1 12.2.8-6.05-9.9-5.5 14.05-2.35" transform="translate(.75 .75)"/><path fill-rule="evenodd" fill="#2e2343" d="m93.25 179.75 2.75 1 2.75 1.4h6.15l11.85 3.65q-7.8.25-11.85 1.3l-10.2-.35-6.35-2.15 4.9-4.85m34.5 34.4-5.2 5.05v-5.4l-4.4 11.2-2.1-15.3-.5-3.7-4-2.8-2.6-11.6q10.75 2.35 20-.7l.25 1.8-4.1 1.75-1.55 11.85 1.95 1.95 2.25-1.6v7.5" transform="translate(.75 .75)"/><path fill-rule="evenodd" fill="#5b4a8a" d="m122.7 187.65 4.55 1.4-6.85.7h-9.15l11.45-2.1" transform="translate(.75 .75)"/><path fill-rule="evenodd" fill="#8d6d47" d="m164.85 253.8-8.1 3.6H146.3l-8.7-6.4-13.6-3.2V244l13.6 3.95 9.55 6.65h9.75l7.95-.8" transform="translate(.75 .75)"/><path fill-rule="evenodd" fill="#503f23" d="m107.55 296 31.05-16.8 20.9-2.5-19.25 18.7 2.75-6.2-8.05-8-2.6 12.05-30.1 27.7-8.45-7.75 4.75-18.8 9 1.6m38.25-13-2.8 6.2 2.8-6.2" transform="translate(.75 .75)"/><path stroke-width=".05" stroke-opacity=".482" stroke-linejoin="round" stroke-linecap="round" stroke="#000" fill="none" d="M147.6.75q11.2 8 24.7 28.9l.2.3.4.55q14.15 20.85 15.1 47 1.1 12.15-2.65 21l-2.1-11.9q-3.3 23.2-15 33.75l-4.4 3.75 3.45-16.6.1-.25 1.1-3.95 2.4-16.05q-18.95-19.1-30.6-20l3.4 7.15q-3.9-4.15-8.3-4.8l2.9 3.55 6.05 59.4 7.2-2.9 1.7-1.2h6.05q3.25 1.45 0 4.9 1.8 1.55 0 5.8l-2.8.75m0 4.15-1.35.45m11.35 5.7 2.55 1.4 5.45 3.05 2.05 2.7.15.2q7.55 11.15-2.4 20.65l-6 3.5-2.85.4.15 1.7 3.85 41.65 30.85 14.75-7.7 23.7-.8 2.35M150 9.45l-1.35-5.5-4.8 14.55-7.5 16.45q-8.1 7.3-17.5 11.05l-6-1.3M150 9.45q1.35 6.75 1.6 14.3.15 17.5 11 26.25 10.5 18.05 8 41.2l2.45-17q-.9-13.15-7.75-23.25l-5.45-6.9-4.35-10.3-3.3-26.85-4.6-6.15 1.05 3.2M106.1 46.8q-3.8 7.45 0 8.6 5.1-2.35 4-8.25-1.05-2.6-2.65-2l-1.35 1.65-5.15 6.1m-7.55 5.85q-.55.7-.25 1.65.25.85 4.25 2-2.15-1.95-.55-2h1.5l1.75 4.6 1.25-5.5 1.55-.2q.85 0 1.05.55.3-3.05-.5-3.75-.25-.25-.6-.25L98.1 57.1q-3.75.4-4.7 1.65m-4.45 4.9 3.3 1.85.6-1.55q1.45 4.6 4.2 8.5l-1.9-6.15 8.25-1.1h.9q.05 3.8-1.5 6.9M92 61.85q-1.8.5-3.05 1.8Q87.7 64.9 87 67l-.7-.1Q73.65 64.3 64.5 55q10.25 6.1 21.35 8l1.45-.95-2.5-2.4m-46.7 35.1q-.85-5.25.5-9.4 1.35-4.2 6.55-11.65 2.35-8.35 7.35-13.55m19.3 14q0-3.05 2.35-4.15 1.35-.65 3.5-.6l4.65.6m21.65-10.15-.1.8-1.9.85q1.45-1.1.95-2.2m4.95 3.4-.95 1.25-1.95 7.8 8.15-1 2.65-2.15.9-.7.4-.3 2.2-1.3q3.15-1.55 5.1.45 4.05-5.1 7.45 1.65l.5 1.15 3.1.05m-44.75-17q1 4.4-2.05 4.15-3.55-3.1-4.55-8.1-1.3-.2-1.7 1.6M94.6 54.9l-3.95-2.3-3.95-2.35q-1.65-1.45-2.65-1.6m25.4-5.9-.6.75h1.85m1.15 8.8-2.2 7.65m-.8-16.45-1.4 1.65m33.9 87.15 2.3.5h.1l.6-.25m-12.05-63 .65 1.65-6.7-.6.6 3q-4.3-4.2-9.8-3.2v1q1.05 20 2.35 38.85l.25.15 3.5 2.5 12.8-1.85m-11.6-44.3.35.45q.95 1.2 1.55 3.4m-9.2-.2q-1.25.2-2.55.7l-1.4-.35 3.55 38.45 2.55.95.2.1M101.35 77q1.35-.9 0-4.3l2.4 3.8-.05.85 1.25-5.6h-.85m-.4 5.6-.1 1.15q-2.25 1.95-7 0l-.45-1.25-1.8-4.65-4.65 1.05-1.5 20.6q5.3-9.05 14.1-9.6 2.25-.15 4.25 1.35l5.2 6.1q3.6 7.85 2.25 16.7l2.65.4m-27.7-45.55 4.5 6.5.9 2.45m-2.1-7.1q1.05 3.15 2.6 5.55l2.2 1.4m-.9 4.8 1.6-4.2v4.3m0 27.15q2.6-1.25 5.25-1.9l1.8.75.4.65q2.75 1.7 3.6 5.7l.1 1.5m7.3 6.65q1.6-2.1 1.85-5.05-3.05-1.55-4.05-4M87.25 97.35q-1.35 3.8-3.4 6.3m-4.3 3.4-.2.05-.7.3-.4.15-.2.05 2.9 1.5m8.8-3.25 8.5-6.65m-.5 5.3q.85 1.75-1.45 4.5l-2.05 2.9q-3.3.65-2.65-3.45-.95.75-1.8 1.65l.4 5.25 2 2.2 1.6-2.5m1.95-.55v-1.4q.55.7 1.25 0 .85-2.1.9-3.5v3.9q.3.65-.9 1.15h-.1l-.35-.05-.8-.05v-.05m6.75 4.55v-1.75l3.2-1.7v1.15l3.45-2.1-.25-3.45m-11.15-6.7q-3.45 1.6-6.15 3.95m11.65 4.85-1.05 1.1-1.1.2q-1.65-2.15-1.05-5.85l1.2 4.3h.95l.5-.65.55.9m9.2-3.55-1.1-4.35-5.25-7.4m2.65 7.55v-.6l-1-.4M109.3 116l-.15-1.35m4.85 5.2 2.2-2m-5.7 3.65 10.15 5.8h11.9q3.8-1 3.7 3l2.8 1.5 2.3.5m-13.85-8.35-7.25-1.5q-3.35-1.05-6.25-2.6-1.5 1-3.5 1.65-.85-2.05-1.2-5.5l-3.75 5.7-1.85 1.9-2.3.6-2.3.55-2-.55-1.95-.6v-.65l-.75 2.3-.5.75-1.1-.15 1.1.15m1.9 12-.95.4-.15.05h-.05m.4.15h1.25q8.95-.2 13.65 1.1l1.25.4m9.2.25v-6.7l1.85-3.65-1.6-2.7M99.3 120l.3.5.45-1.45h2.45m-3.2.95-1.55-2.15-2.35-1.25v2.6l-3.2-1.65.8 1.4m2.65 1-.25-.75m-7.5-7 1.9-2.1m5.35 12.85-2.15-4m-.2 6.9q-2.2-2.1-3.85-4.65l-2.4 2.25q-2.05 2.1-4.25 2.6-1.1.2-2.25 0l.85 3.6m5.25 8.25.8.8 1.5 1.4q-.65-.6 2.85-1.1m3.65-.4-.25-.15m.25.15h.1m-1.85 0-1.9.4m4.5-1-2.25-.1m-5.65 14.3h6.45q8.15.1 16.05 2.25l4.2 1.3 2.65 2.35h3.5l2.45 2.15q-4.65-8.9-4.8-18.5l-2 1.45m-10.45 20.5-1.9.5-7.85.2m30.85-20.5-3.7 1.3m5.3.25-1.6-1.55q-3.05-2.9 0-6.15.9-2.15 2.4-3.6m-2.4 9.75q-3.45.35-5.15-.95l1.55 17.55 2 1.75q4.95-6.75 3.2-16.8l1.5 1.45 6.1.85q-2.65-2.4-2.6-5.6m-19 10.35v-.5q-1.3-2.15.05-4.85 1.35-2.7 1.7-3.95m-2.15 1.9-.55.5m.95 6.9-.05 3.25m2.65 5.65v-3.3m4.6 11.35q-6.3 3.8-11.05 9.2m12.4-18.4.3 1.25m-.05-1-.25-.25m-1.3-17.3q-1.2-.9-1.5-2.6l-2 1.4m40.9-8.4-8.1 5.25-1.2-.05q-1.7-.1-2.65-.6-2.2 1.35-1.2 3.2l1 1.2 9.35-2.45m-23.95-12.6-1.4-3.05-3.65-.3m13.35 24.35q-1.3-1.6-.45-2.85l-.9-.65-.05-.05-.7-.65q-.75-.85-.4-1.5-1.45.25-1.75 0l-1.25-1-.4-.4q-.5-.6-.35-1.25-.2-.65-.1-1.3l-.85 3.5m2.6-11.85-4.75 2.25q-1.15.65-2.05 1.6m10.7-.95 3.45-.35h.05l.05-.05m-8.1 3.7q.8-.9 4.55-3.3m3.35 6.4.6-1.35-.05-1.35-.5-1.2m-9.05 2.95q.1-.6.45-1.25m11.3-2.9q.3-.8.9-1.7l4.4-3.15m-8.05 9.95-.25.35-1.1.95-.4.3 5.4 1.15q-1.1.25-1.75.75-.95.6-1.1 1.65-.2.9.3 2.2l10.05-2.3m-10.55-6.4 3.25-.3q-1.5-.75-1.4-2.25l.3-1.2m-1.65 12.45-2.4-.55-1.8-.95m.55 2.95-.1-.1m0 .1h.1l4 2.1-.55-1.2q-1.05-2.4.2-2.35m-3.75 1.45-1.45-.2m-.25.2h1.8m6.95 2.1h-2.95m-5.8-2.1h-2.6l-.3-.65m-5.2 19.45.95.8h.05-.1q1.65 1.05 0 .5m17.1 11.3 1.25 2.5q11.8-5.3 5.55-25.55l-1.05-3.1-5.25-2.4-1.65-.75h2.95m-9.1-9.3q-1.6 1-3.4 1.4m-7.2-18.35-3.4-5.55q-2.15-3.55-4.6-5.8m10.9-34.8H120.7m13.6 9.55h-10.5m11.7 12.15h-11m46.1-8.6-.9 6.25-1.2 5.85m-65.1-38.1-.6 6.9m-17.6-2.6h-.05q-1.4.3-2.4.9-1.9 1.1-2.1 3.35-.2 2.6 1.95 6.65.3-2.4 1.25-3.9m1.35-7 .05.05 1 .35q3.05 1.35 3.45 3.75-2.25-.1-3.75.75l-1.5 20.9-.6 8.35m2.1-29.25q-1.3.7-2.1 2.1M71.8 74.2v-.05m-26.7 71.6q2-7.05 4.15-9.15l4.9-3.65q4.15-4.75 8.35-6.65.05-2 1.05-3.45l5.15-43.8 3.1-4.85 1.65 5.95m.95-2.35q1.9-3.55 6.25-4.05m-5.7 12.45-4.45.3-3.6 34.45h2.65q2.55-4.8 6.95-6.4l4.2-1.6.2-.05.5-.2m-.4-1.35-2.95-3.75m-3.1-21.4 6.85-.45m-10-11.55-1.3 12.3m11.3 8.8h2.65m2.8 2.05.95-3.1m-7.2 17.1.9 1.15-.5.2m1.45 1-.95-1.2m.95 1.2.3.25q3.25 2.6 5.05 5.9l.75 1.35M81.8 95.3h-9.3m-25 53.3-14.25 3.05q-11.35 4.4-14.5 11.05-1.65 3.4-1.25 7.65m23.6-4.9q-.6-3.55 1-5.9 1.55-2.4 2.7-3.55 1.15-1.15 2.05-1.15l3.65-1.25m-3-5q-2.65-1.05-2.4-2.85m20.5-3.65 2-1.75h-.1l-5.95-2.5q-3.05-1.95-7.7-1.85m-8.75 55.2 2.05-1.7-4.45-7.5q-.25-6.85-1-11.25-.75-2.9-.6-5.2v-.1m47.1-45.6q-2.55 1.2-5.6 1.75l-2.4.3q-3.45.3-7.45-.05m-4.4.4.3.2 2 1.3q1.6.85 3.5 1.4 2.6.75 5.75.9h.15M74.9 140.6l1.85-2.85-3.8-5.15-1.9-1.8m-2.35 8.15h.2l4.45 4.05 1.55-2.4-.4.65h2.25l2.1-1.5 2.5-1.9-1-1.4-.2-.2.75-.55-.75-2q-.2-.85 0-1.15l.75-1.45v-1.45m-12.2 9.3v.25l.2-.25m12-7.85.9 1.5m-1.45 3.85 1.1 1.3-.1.1.1.15q.65 1.05.8 1.95l.45 4.9q.4 4.35-2.2 6.5l.05-1 .8-12.5m-14.6-16.2.15-.4v-.3m-.15.7-2.45 1.1-.15.05h-.2l-.4.05m2.8 3.45 4.7 4.5m-11.1 19.45-.5-.05-8.95 3.4m15.1-11.5-.95.75q-2.15 1.8-3.35 3.95l-.55 1q-.5 1.05-.75 2.2l-.05.25v1.1l9.5 1.15q-1.55 2.4-.1 5.85 0 .85-2-.4-2.1 2.55-3.05 4.4l2.5 2.95m1.75-1.85 4.25-4.4 6.4-5.35 1.3-2.3v-.05m-21.05-1.15-8.9-.8-3.05-.8m33 2.8.05-1.05m-1.35 3.35 1.15-.2 7.55-1.3m-9.55-6.45-1.1-.6-1.4-.75-2.5-1.4m2.5 1.35v.05m-7.3 19.05-.25.3-.75.8m10.8-18.8.85 7.95m-10.5-14.5q-.05.8-1.1 1.15l1.1-1.15m13.9 32.1q2.15 1.85 4.55 6.9l2.6.25q2.1.45 4.25 2.05m2.75 1 2.75 1.4h6.15l4.3-.05q.85-.05 2.1-1 2.4-1.85 6.3-7.05 3.75-5 9-6.05l3.4-.3 1.2.05m-67 2.5q5.2-7.75 10.55-3.65l.45.35q4.7 4 6.25 3.8m-20.35 27.35q3.05-1.2 6.4-.55l10-.55 1 .1m-21.55-19.8v.15l.3-.15-4.45 4.5-.5 3.4-.5 3.1 2.6 4.45 3.5 6-3.45 3.95 3.45-2.9q1.55-1.1 3.2-1.7m-4.15-20.8v-3.35m7.25-3.7L58 178.05q.25-3.3 6.95-7.05M54.6 210.65l-.05-.1q-1.55-4.5.65-7.1m-.6 7.2 2 2.6 3.35 4.4-1-2.2 2.5 2.3h3.75M54 213.4l2.6-.15m9.3 4.5-1.15-2.3v-9.35l3.5 7.6 2.1 3.25 6.3-3.25 1.1 2.6 4.35-5.7 1.9 2.9 2.35-2.9 1.65 1.15 2.3-2.4-3.05-11.15-5.1-2.75q-.05-1.65.3-2.85.45-1.6 1.65-2.35l5-4.9 4.9-4.85m-11.85 14.95v2.85l-2.9-.45m15.2 44.9-2.1-14.2-5.6-16.7-.4-1.25M23.1 177.85l2.85-1.6H19.4q-1.6-2.8-1.9-5.9m5.6 7.5-2.9 1.55 1.65 3q1.8 2.8 3.8 6.45 1.9 2.3 6.65 2.55l5.2-.2h7.6l-3.35 2.75 13.4-.45m5.95 49.85L54 213.4l-8.25.35-4-19.8m-9.45-2.55 2.6 11.05 3.95 6.65-.8 9.45 1.85 12.15 1.55 13.55m19.4.75.25-1.65.4 1.65-1 2.15-1.5 9.35 6.5-12-2.2-14.8-1.8-11.95m-24.55-37.3h-10m-9.7 83.65-9.5-3.4-7-16.25q6.95-.25 18.1-2.9L23.2 235l16.7-4.3m-22.65 33.4-1.5-6.1 4-4.3-2.25-4.25-16.75-5m15 13.55H24l28.25 11.75 4.25-4.25-3.5 8 10.45 5.05h44.85l42-14.8 5.2-1.8 37.3-13.2 7.5-8.55M70.75 254.4l-.55 1.1m-11.2 1-20.75-3.25v-3.5l3.2-5.5m48.15 22.6 6.95-9.55-2.1-14.45v-.1l30.3-1.8v-4.55l3.75-13.95v-7.55m-11.7-4.45-30.05 1.4m-9.6 31.95v-3.65l-2.85-5.65-8.4-16.75h-.7m-1.9 11.95 1.9-11.95M61.5 245h-.65l-.35 2.15-1.5 3.1v6.25m11.75-2.1 6.4-8.15v-2.45l-11.65.7m-18.35-55 5.9-3.55m2.45 94.65-2.95 3.65-12-5.75-12-5.75-5.3-2.55h-4.5l-1.5-6.1m46.55 32.4-2.7-8.2-3.1-.55-2.5-7.15-2.5-7.1m-.45 10.75-.3-14.5m19.9 45.75-5.6-10.75-2.75-8.25m-35.25-23.75 8.7 14.5 7.5 3.25 24.05 25h4.5m3 8-4.15-8m20.9 4.25-9.75 3.75h-7m14.95-29.8-30.15-5.4M170 236.85l2.8 2.9v4l-12.5 2.55 3.6 1.7 4.05 5.5-2.35 1.05-8.1 3.6h-10.45l-8.7-6.4-13.6-3.2v-7.6m25.55-58.65 1 2.1.1.05 14.05-2.35m-14.15 2.3v.05h.1l9.9 5.5-.8 6.05m-9.2-11.55 2.1 4.35-.6 1.45 8.5-.3m-31.35 3.5 2.25 1.75 2.85-.2m-5.35-3.35.25 1.8-4.1 1.75-1.55 11.85m28.2-9.25-2.4-1.5q-6.5-1.8-15.05-1.3m13 14.65-4.05 1.6-1.65-3.85L135 211v-3.6l-3.65 1.5-2.85-1.5v7.5m19.55-5.25-1.35 5.85.1 21.3 2.05 2.8 1.4 2 3.85 1.8 6.2 2.9m9.7-9.45-.55-.6v-10.8M152.5 197.8l1.25 2.55v8.4l5.05-.25 1.7-12.5m-6.75 12.75v1.8l-3.7 1.45-2-2.35m4.75-19.4-2.7 6.05m-20.65-6.05.25 1.4m-1.2 15.75-2.25 1.6-1.95-1.95m-29.85 35.7v.1m52.25-27.35-3.7 15.95 3.8 5.35m-7.45 43.15 7.7-4.2 3.25-12m-6.55 26.2-2.75 6.2 19.25-18.7-20.9 2.5-31.05 16.8-9-1.6-4.75 18.8-1.5 5.8V327l3.75-2.75L112.3 339h6.25l12-19.75 4.75-10.55 15.25-8.95 15.7-14.15 7.8-10.8-4 1.45-9.8 1.2m-24.55 4.5 8.05 8 2.8-6.2m-5.55 12.4-5.7 12.55m-27-11.95v-18.2M91.25 293.7l8.05 1.45m93.3-31.25-4.3 5.6-14.25 5.3m18.75-26.05-4.5 20.75m-112.6 1.1 13.9-3.75m41.45-99.65-5.6-4.95m-17.5 29.5-25.5.85M87.3 62.05l3.55-2.3"/><path stroke-width=".05" stroke-opacity=".482" stroke-linejoin="round" stroke-linecap="round" stroke="#000" fill="none" d="M156.5 139.9q1.45 2.1 0 4.15m-1.35.45-.45.15h-.05q.2 1-.2 2.05l12.05 3.5M108.8 19.35l3-4.2v18.5l2 3.5-.95 7.55-1 7.6m-9.05-21.15v-3.5q-17.1.9-20.3 10.75m26.3-19.05-6 8.3m0 44.45q3.3-5.1 3.05-9.4h2q4.5.7 6.95 3.55l2.25-1.8q11.1-7.35 18.75-17.3l-20.5 14.5-5.65-1.7-3.35-1.05m-21.5.75L77.25 44.4v-1.5m-11.8-13.45v-.05L51 11.45h-1.9l-1.35 4-1.25 4.45Q29.15 47.35 24.55 80.05m.5.1q3.2-11.9 8.55-18.5-.85 12.1.8 22.5.55 3.45 3.7 10.6m14.4-34.6h3L71 74.4l.8-.25m37 35.55-.5.55q-1.05 1.15-1.8.3l-1.65-2q-1-1.3-1.9-1.85-.95-.6.1-1.7.95-.85 2.15-1m1.5 44.6 3.4 1.4 1.9.95 2.65 1.55m-24.35-4.8 3.05-.55 4.7-.2q4.35.2 8.65 1.65m-16.4-.9-2.4.6m44.05 20.2 1.85.75 15.25 10.55m1.8-29.3 1.5-1.1q1.55-1.35 2.1-2.7M76.5 40l.75 1.4v1.5m-4.05-4.8.8 1.05m2.5.85L69 25.9l13.5 12.5m-18.9-13 9.55 12.65.05.05 3.3 1.9M63.6 25.4 51.75 9.65H47.5l-26.75 42q-3.05 13.45-3.4 27.8-.15 5.75.15 11.7l6 21.55 8.75 11.75L23 98.9q.2-7.5 1.05-14.7l.5-4.1v-.05m48.9.1q.25-1.2.95-2.35m6.5 35.1.1-1.55m-55.95-31.2-1 4.05m56.45 67.15q1.8-.95 3.55-1.65 1.95-.85 3.85-1.4m-21.1 17 .75-.75 1-1.1m8.7-18.3-1.4-.8m3-4.6-.5 6M94 180.5l2.75 1m35.2-13v-.5m-74.25 6.7 9.1-9.4m-47.4 10.95 3.7 1.6m52.6 92.75-7.2-3.2v-7.25l2.25-5.75m57.75-39.5-5.2 5.05v-5.4l-4.4 11.2-2.1-15.3m32.05 29.15 21.15-2.75m-60.3-44.5 2.6 11.6 4 2.8.5 3.7M128 189.8l-4.55-1.4m4.55 1.4 1.45.45m-11.95-3.7 5.95 1.85m-28-.9-6.35-2.15m6.35 2.15 12.5 4.25 1.75.6m-4.05-9.45 11.85 3.65m36.6 56.85-1.55.25m1.55-.25 18.7-3"/><path stroke-width=".05" stroke-opacity=".482" stroke-linejoin="round" stroke-linecap="round" stroke="#fff" fill="none" d="M90.35 103.45q-3.4 2.8-7.4 3.25m16.85 33.8-7.6 1.3-1.9 5.9"/><path stroke-width=".05" stroke-opacity=".58" stroke-linejoin="round" stroke-linecap="round" stroke="#fff" fill="none" d="m79.9 106.85-.35.2M96.2 164.4l3.2 2.55q6.35-.9 10.4-2.75 2.25-1.05 3.75-2.35l-7.6 1.85"/><path stroke-width=".05" stroke-linejoin="round" stroke-linecap="round" stroke="#0f0" fill="none" d="m139.4 148.2-.25.2"/><path fill-rule="evenodd" fill="url(#x)" d="M123.9 116.8q10.25-10.2 24.75-10.2t24.7 10.2q10.25 10.25 10.25 24.75t-10.25 24.7q-10.2 10.25-24.7 10.25t-24.75-10.25q-10.2-10.2-10.2-24.7t10.2-24.75m34.25 21.7.4-.1.35-1.05-.75 1.15m-4.75 1.25q3.3-2 1.1-4.55l4.75-3.45q.4-4.25-6.75-1.85l-5.85 3.5-1.45 1.55 1.4 2.25-1.4 2.4h-3.15l1.3-2.1q-.95-2.7-6-2.25l-3.2 1.6q-2.05 3.1-.35 8.15 1.4 3.75 6.3 2.55 3.6 2.55 7.6 2 3.25.1 4.7-1.6 1.25-1.1-.8-3.65 2.45.4 2.3-.4l1.85-.6q1.15-2.55-2.35-3.55" transform="translate(.75 .75)"/><path fill-rule="evenodd" fill="url(#y)" d="m138.8 141.5 2.2-1.05 4.7 1-1.9 1.75-5-1.7" transform="translate(.75 .75)"/></g><g id="B" stroke-opacity="0" stroke-linejoin="round" stroke-linecap="round" stroke="#f0f" fill="none"><path d="M187.95-293.5v380h-380v-380h380" transform="translate(192.55 294)"/><path d="m187.95-293.5-190 190 190 190m-380-380 190 190L-192 86.5M92.95-38.4H-97" transform="translate(192.55 294)"/><path d="M98.65-227.1V8.1h-204.1v-235.2h204.1z" transform="translate(192.55 294)"/></g><path fill-rule="evenodd" fill-opacity="0" fill="#f0f" d="M100 40H0V0h100v40" id="z"/><use xlink:href="#z" width="100" height="40" id="C"/></defs><path fill="none" d="M-1-1h142v237H-1z"/><use x="104.665" y="330.26" xlink:href="#A" width="201.05" transform="translate(-70.964 -225.714) scale(.6859)" height="339.75"/><use x="71.79" y="226.525" xlink:href="#B" width="381" transform="translate(-192.55 -294)" height="381"/><use x="58.063" y="183.214" xlink:href="#C" width="100" transform="translate(-67.3 -165.9) scale(1.2364)" height="40"/></svg>