<svg width="161" height="228" xmlns="http://www.w3.org/2000/svg" xmlns:xlink="http://www.w3.org/1999/xlink"><defs><linearGradient y2=".523" y1=".523" x2="1.039" x1="-1.89" spreadMethod="pad" id="d"><stop stop-color="#151309" offset=".561"/><stop stop-color="#554e24" offset=".984"/></linearGradient><linearGradient y2=".5" y1=".5" x2="1" x1="0" spreadMethod="pad" id="e"><stop stop-color="#151309" offset=".584"/><stop stop-color="#554e24" offset=".984"/></linearGradient><linearGradient y2=".067" y1=".193" x2=".406" x1="-.187" spreadMethod="pad" id="f"><stop stop-color="#d2bb88" offset=".027"/><stop stop-color="#857143" offset=".686"/></linearGradient><linearGradient y2=".5" y1=".5" x2="1" x1="0" spreadMethod="pad" id="g"><stop stop-color="#151309" offset=".584"/><stop stop-color="#554e24" offset=".984"/></linearGradient><linearGradient y2=".496" y1=".496" x2="1.001" x1="-.001" spreadMethod="pad" id="h"><stop stop-color="#f6f2d9" offset=".067"/><stop stop-color="#ccb583" offset=".718"/></linearGradient><linearGradient y2=".499" y1=".499" x2="1.003" x1="-.002" spreadMethod="pad" id="i"><stop stop-color="#f6f2d9" offset=".067"/><stop stop-color="#ccb583" offset=".718"/></linearGradient><linearGradient y2=".5" y1=".5" x2=".999" x1="0" spreadMethod="pad" id="j"><stop stop-color="#b6b63d" offset="0"/><stop stop-color="#636321" offset=".494"/></linearGradient><linearGradient y2=".5" y1=".5" x2="1" x1="-.001" spreadMethod="pad" id="k"><stop stop-color="#323110" offset=".494"/><stop stop-color="#686822" offset=".984"/></linearGradient><linearGradient y2="9.645" y1="9.645" x2="1.674" x1="-175.274" spreadMethod="pad" id="l"><stop stop-color="#d2bb88" offset=".027"/><stop stop-color="#857143" offset=".686"/></linearGradient><linearGradient y2=".526" y1=".526" x2=".999" x1=".001" spreadMethod="pad" id="m"><stop stop-color="#d2bb88" offset=".027"/><stop stop-color="#857143" offset=".686"/></linearGradient><linearGradient y2=".5" y1=".5" x2="1" x1=".014" spreadMethod="pad" id="n"><stop stop-color="#151309" offset=".584"/><stop stop-color="#554e24" offset=".984"/></linearGradient><linearGradient y2=".501" y1=".501" x2=".999" x1="0" spreadMethod="pad" id="o"><stop stop-color="#f6f2d9" offset=".067"/><stop stop-color="#ccb583" offset=".718"/></linearGradient><linearGradient y2="1" y1="0" x2=".498" x1=".498" spreadMethod="pad" id="J"><stop stop-opacity="0" stop-color="#d9d9a2" offset="0"/><stop stop-opacity=".145" stop-color="#d9d9a2" offset=".349"/><stop stop-opacity=".176" stop-color="#d9d9a2" offset=".663"/><stop stop-opacity="0" stop-color="#d9d9a2" offset="1"/></linearGradient><linearGradient y2="-3.64" y1="-3.64" x2="36.389" x1="-47.701" spreadMethod="pad" id="x"><stop stop-color="#3e1704" offset=".18"/><stop stop-opacity=".443" stop-color="#7c6137" offset=".627"/></linearGradient><linearGradient y2=".691" y1=".411" x2=".409" x1=".459" spreadMethod="pad" id="K"><stop stop-opacity=".749" offset=".114"/><stop stop-opacity=".749" stop-color="#3e1704" offset=".494"/><stop stop-opacity=".329" stop-color="#7c6137" offset="1"/></linearGradient><linearGradient y2=".999" y1=".44" x2="1.015" x1="0" spreadMethod="pad" id="y"><stop stop-color="#ecebdb" offset="0"/><stop stop-color="#a9a881" offset=".663"/><stop stop-color="#c7c4a5" offset=".937"/></linearGradient><linearGradient y2=".5" y1=".5" x2="1" x1="0" spreadMethod="pad" id="z"><stop stop-color="#757053" offset=".302"/><stop stop-color="#bebca0" offset=".984"/></linearGradient><linearGradient y2=".524" y1=".524" x2="1.017" x1=".027" spreadMethod="pad" id="A"><stop stop-color="#665f48" offset=".361"/><stop stop-color="#bebca0" offset=".984"/></linearGradient><linearGradient y2=".498" y1=".498" x2="1" x1="0" spreadMethod="pad" id="B"><stop stop-color="#f6f2d9" offset=".012"/><stop stop-color="#d2bb88" offset=".235"/><stop stop-color="#857143" offset=".686"/></linearGradient><linearGradient y2=".5" y1=".5" x2="1.013" x1="0" spreadMethod="pad" id="C"><stop stop-color="#323110" offset=".494"/><stop stop-color="#686822" offset=".984"/></linearGradient><linearGradient y2=".5" y1=".5" x2=".998" x1=".002" spreadMethod="pad" id="D"><stop stop-color="#b6b63d" offset="0"/><stop stop-color="#636321" offset=".494"/></linearGradient><linearGradient y2="1.766" y1="1.766" x2="1.687" x1=".086" spreadMethod="pad" id="E"><stop stop-color="#7d7757" offset=".286"/><stop stop-color="#bebca0" offset=".984"/></linearGradient><linearGradient y2="4.197" y1="4.197" x2="2.996" x1="-3.248" spreadMethod="pad" id="F"><stop stop-color="#d2bb88" offset=".027"/><stop stop-color="#857143" offset=".686"/></linearGradient><linearGradient y2="12.697" y1="12.697" x2="6.394" x1="-1.567" spreadMethod="pad" id="G"><stop stop-color="#797455" offset=".314"/><stop stop-color="#bebca0" offset=".984"/></linearGradient><linearGradient y2="10.125" y1="10.125" x2="9.843" x1="-8.969" spreadMethod="pad" id="H"><stop stop-color="#8c8860" offset=".267"/><stop stop-color="#bebca0" offset=".984"/></linearGradient><linearGradient y2="1.083" y1="1.083" x2="1.914" x1=".369" spreadMethod="pad" id="I"><stop stop-color="#151309" offset=".584"/><stop stop-color="#554e24" offset=".984"/></linearGradient><g id="O" stroke-opacity="0" stroke-linejoin="round" stroke-linecap="round" stroke="#f0f" fill="none"><path d="M187.95-293.5v380h-380v-380h380" transform="translate(192.55 294)"/><path d="m187.95-293.5-190 190 190 190m-380-380 190 190L-192 86.5M92.95-38.4H-97" transform="translate(192.55 294)"/><path d="M98.65-227.1V8.1h-204.1v-235.2h204.1z" transform="translate(192.55 294)"/></g><g transform="translate(.25 .2)" id="Q"><use xlink:href="#a" width="220.25" transform="translate(110.1 15.8)" height="314.4"/><use xlink:href="#b" width="119.95" transform="matrix(-.9763 -2.3379 2.3379 -.9763 116.84 349.91)" height="71.35"/><use xlink:href="#c" width="212.85" transform="translate(116.5 105.35)" height="92.05"/></g><g id="a"><path stroke-width="2" stroke-linejoin="round" stroke-linecap="round" stroke="#777457" fill="none" d="M58.95 8.4q-6.75 23.15-5.9 41l.25 1.05-.1 1.25-.05.15-.75 2.85q-1.45 5.65-2.3 11.4-.9 5.6-1.25 11.3-.55 7.85-.05 15.8l.15 2.2-.05.3.05.25.15 1.1.1.8-.05.4.05.4v.3l-.45 1.4-.45 1.8q-1.4 5.65-2.3 11.4l-.6 4.45h2.15q4.1-.1 6.4 5.65 1.55 3.95.6 7.5l4.8.85q4.3 1.1 8.55 3.35 3.3-1.4 6.45-2.05l2-.35 1.25-.15h-.15q2.25-3.2 8.7-7.1-.5-.35-3.65.4 2.45-2.3 4.2-3.65 1.35-1.15 2.95-1.95l1.55-6.1-.8.3v-1.9l-.65-.55v-.6l.5-1.5.9-2q.1-.55.35-.75v-.05l.95-1.2v-2.95l.5-.1-1.05-.05q-.9 0-4.85-1.85-3.95-1.85-2.5-10.15 2.9-1.65 5.5-1.5l2 .4 1.5.7q2.25 2.4 2.2 7.55l-.15.2q1.2-1.4 3-2.45l.05-.05q3.05-1.9 7.8-3 6-.45 11.3.2 4.8.65 8.95 2.2l.85.5q3.15-3.8 5.45-2.2 3.7 4.75-.95 5.75l2.2 2.55 1.6 4.5.25.35.7.85.6.8-.3 1.05v1.1h-.45v.05l-.75 1.8.15 2.95 1.45 4.65q5.8.2 12.15 2.7 1.95-4.7 3-8.8l-1.6-.05q-1.8-.2-3.6-.8-3.5-1.15-7.05-4-2.15-5.35 2.4-11.5 1.5-2.4 6.9-2.85l1.05.7 1.05.65V93.8q-1.95-5.35-1.5-9.95l3.35-3.65q7.45-2.45 11.15-.15 2.05 3.1 1.45 5.9 1.25-1.9 3.05-3.9 3.4-1.7 7.2 0h.05v.05l5.3 2.6.55 2.05q.55 4-3.15 7.35-1.45.7-4.05-.4l-.95-.45-1.55 4.45 1.85-.15q8.15 2.1 9.2 7.05l.3 1.15q.95 5.05-1.7 7.9l-.3.15q-.5.2-1.5.7l.2 1q2.3 11.1 1.4 19.4l2.6-1.55q8.2-5.4 12.15-15.6 4.3 8.2 0 16.4l2.6-.7q2.65-.9 4.55-2.55 2.6 1.85 4.8 2.65-5.15 3.5-11.7 5.55 9.4-1.55 14.95-3.1l2.35-.7q3.45-1.2 4.8-2.35-11.7 14.55-30.1 19.15 1.7 1.75 4.3 3.3 5.3 3.15 14.4 5.55h2.65q3.1-.7 6.55-2.65l-6.9 5.2q-11.15 7.35-23.4 9.05h-.2l-1.8.2-3.4.25h-.4l-10.2-.6-2.2-.4-5.25-1.2.3 1.2q.95 3.25 4.35 5.9l.4.3.3.2 1.65 1.05.45.25.55.3 3.25 1.55-3.8.05h-2.55l-3.75-.15q11.15 22.5 4.35 32.85 17.05 8.5 24 27.05.15 5.5-3 9.5l-15.5 15q6.85 6.45 7 10l-13.25-5-36.25-5.25q.35-2.1 2.45-5.1 1-.7 1.4-2.3 1.05-4.25-.4-8.7l-2.6.65q-1.85 4.65-4 8.4-4.15 7.25-8.55 8.5l-7.85 28.8-3.45 3.75q-4.25 2-9 2.55l-20.05-.7Q74 299.6 68.7 297.6q-5.2-2.25-5.65-4.55-2.5-15.1 0-31.95l-7-.25-.5-.05q-6.9-.9-10.25 6.05v-3q-2.45-7.95 13.5-23.25-5.85-2.55-9.15-6.05l-.3-.35-1.3-1.65q5.55-1.5 12 1-4.65-4.3-7.9-7.8l-1.3-1.45-3.35-4.3q-3.75-5.5-7.7-9.45h6.75l11.75 7.75q-2.6-6.65 3.75-15.25 1.55 5.25 5.15 8.5l1.7 1.35q1.65 1.1 3.65 1.9-1.65-2.55-2.75-5.05l-.2-.45-.7-1.8q-4.65-13.2 6.15-25l-4.25-6.4q-5.95.2-12.65-1.4l-1.95-.5q-4.75-1.3-15.45-5.35l-.3 3.2q-.4 5.65-.35 11.35 2.1 1.75 2.25 3.65l-.15 1.3-.1.2-.8 2.8q-.4 1.25-.65 2.55l-.2.65q-1.05 4.1-1.8 8.2-1.1 5.55-1.6 11.25-.8 7.75-.6 15.7l.05 1.25q.85 1.05.95 2.1l-.1 1.1-.05.05-.05.1-.75 2.4q-1.5 4.9-2.5 9.85-.95 4.8-1.4 9.7-.65 6.8-.35 13.7l.1 1.9.05.2.05.3.15 2-.05.6q-.25 2.25-3.9 3.45-1.15 3.7-1.95 7.5-.8 4.05-1.2 8.2-.55 5.65-.2 11.4l.1 1.6v.2l.05.2.15 1.75v.45q-.25 2.05-4 3.05l-5.7.65-3.2-.2-4.5-.95-3.6-1.4-.45-.2q-3.45-1.95-3.15-4l.35-1.05-.15-.1.65-2.2.05-.3q1.5-5.25 2.4-10.45.65-4.4.9-8.8.25-4.75-.05-9.5-1.35-1.4-1.2-2.85.1-.7.45-1.25l-.2-.1.85-2.7 1.2-3.4q1.15-3.2 2.1-8.95.9-5.75.9-10.65l-.15-9.6q-1-1.35-.85-2.85.1-.75.45-1.4l-.2-.15.85-3.1.1-.4q1.85-7.25 3-14.4.9-6.1 1.3-12.15l.25-6.35q-1.95-1.85-1.8-3.85.1-.75.45-1.4l-.2-.2.75-3.1.1-.45q1.65-7.2 2.6-14.35.75-6.15 1-12.2l.05-8.7q-2.2-.45-3.25-1.3l-2.35-2.45q-3.15-2.85-1.7-8.55.9-.95 1.05-1.9-5.65-4.25-3.85-10.05.3-.55 2.05-1.75-4.85-7.05 2.2-14.25l10.15-4.25L21 98l-.1-1.05q-.25-.75-.15-1.5l.05-.35v-.15l.25-.95v-.1l-.1-.05.75-3.05q0-.2 1.45-.35 1.7-6.6 2.55-13.15.8-6.55 1-12.05.15-5.5-.15-9.9l-.45-5.5q-.15-1.1-.7-1.5-.55-.45-.5-.8.2-2.6 3.8-4.1Q34.95 25.9 34.45 4.8q6.05-6.35 18.4-2.1 6.45 2.35 6.1 5.7M162 93.7l2.15-3.85-3.45.75 1.3 3.1"/><path fill-rule="evenodd" fill="url(#d)" d="m286.65 97.9 5.3 2.6.55 2.05q-1.3 6.65-7.2 6.95l-.95-.45V109l-1.55-.8-2.05 6.9 2.05-1.6 1.85-.15q8.15 2.1 9.2 7.05l.3 1.15q-1.55 6.6-8.8 10.05-2.4 1.5-6.65-2.1l3.05-.4 3.65-3.75q3.5-2.7 0-7.75l-1.15-1.8-1.45 3.9v2l-4.5 6.2q-.65 1.1 0 1.5 4.1 3.4 7.35 3.8l5-2.9.2.9v.1l-6.7 4q6.75 11.95 5.65 16.6l-5.1 19.65-14.55 17.55-1.95.7-.45-.85-.4 1.15q-2.85.8-5.9 1l-2.65.05-2.2-15.65 11.6-9.5q12.15-11.85 7.95-8 8.45-16.3-12.2-28.35l-1.2.05-1.6-.05q-1.8-.2-3.6-.8v-.05q-6.75-6.5-2.9-9.45 12.8 1.8 9.85-5.9l2.25 3.35.55 2.2h.05v3.2l-1.05 1.75q7.4 1.05 10.3-2.4l-8.45-8.35.5-6.2-4.1-.9 6.25.3 1.3 3.1 1.75 3.45 4.65 2.8 3-7.15-1.1-2.05-1.1-2.05 2.3 2.45q-3.9-4.95 5-9.05v-.05l.05.05m-10.3 3.85q-.35 1.45-.15 2.95l-1.9.9q.15-.5-.05 0-6.95-.9-4.5-9.75l3.7 1.2 1.45-1.2q2.05 3.1 1.45 5.9m6.45 6.45-2.4-1.65 2.4 1.65m-24.05 16.4q3.8 2.3 6.5 1.1l1.05-1.75-1.05 1.75q-2.7 1.2-6.5-1.1" transform="translate(-110.1 -15.8)"/><path fill-rule="evenodd" fill="#545035" d="M292.5 102.55q.55 4-3.15 7.35-1.45.7-4.05-.4 5.9-.3 7.2-6.95m-8.15 6.5-1.55 4.45-2.05 1.6 2.05-6.9 1.55.85m9.8 12.5q.95 5.05-1.7 7.9l-.3.15q-.5.2-1.5.7l-5 2.9q-3.25-.4-7.35-3.8-.65-.4 0-1.5l4.5-6.2v-2l1.45-3.9 1.15 1.8q3.5 5.05 0 7.75l-3.65 3.75-3.05.4-.4-.1.4.1q4.25 3.6 6.65 2.1 7.25-3.45 8.8-10.05m-3.3 9.75q2.45 11.75 1.3 20.4-1.3 9.35-5 16.9l-2.45 2.95 5.1-19.65q1.1-4.65-5.65-16.6l6.7-4m-11.95 98.8q17.05 8.5 24 27.05l-5.45.65q-3.8-15.3-23-21.75l.25-1.55.15-1.55q2.15-1.25 4.05-2.85m-25.3 53-11.7-1.7q.35-2.1 2.45-5.1 1-.7 1.4-2.3 1.05-4.25-.4-8.7l2.15-.55 14.4 5.45-.6 2.95q-1.7 5.65-7.7 9.95m-23.4-.25-7.85 28.8-3.45 3.75-2.85-6q9.5-19.5 11.2-52.8 5.65 14.4 2.95 26.25m-51.4 30.55q-5.2-2.25-5.65-4.55-2.5-15.1 0-31.95v-5.3q-.05-3.15.2-6.1.2-2.85.7-5.45 2.6-15.05 12.9-23.6l1.05-.9.1.05-.05-.1 1.6-1.15q3-1.85 6.85-2.45l5.8-.25 2.65.45 2.75.45q22.7 11.1 15.65 17.95-7.1 6.85-10.7 13.85-9.3 19.55-35.95 5.5-1.45 17.5-1.2 33.3l7.5 3.9q-3.4 3.25-4.2 6.35m6.35-115.1-4.25-6.4q-5.95.2-12.65-1.4l-1.95-.5q-5.5-1.5-19-6.7 3.3-.95.45-2.85l-1.2-.85.35.1q4.9 1.05 2.4-1.3 9 4.5 13.2 5.35l6.85 1.7 7.45.75 3.3-.05-.7-4q-.2-.3 4-6.05l3.8 3.55q-2 6.75 3.85 13.85v.3l.15 1.95q.45 3.85 1.7 6.25-2.5 1.35-3.5 2.65l-4.25-6.35m91.2-96.55q1.25-1.9 3.05-3.9 3.4-1.7 7.2 0v.05q-8.9 4.1-5 9.05l-2.3-2.45 1.1 2.05 1.1 2.05-3 7.15-4.65-2.8-1.75-3.45 2.15-3.85.05-.05-.05.05v-.05.05l-3.45.75-6.25-.3 4.1.9-.5 6.2 8.45 8.35q-2.9 3.45-10.3 2.4l1.05-1.75V119h-.05l-.55-2.2-2.25-3.35q2.95 7.7-9.85 5.9-3.85 2.95 2.9 9.45v.05q-3.5-1.15-7.05-4-2.15-5.35 2.4-11.5 1.5-2.4 6.9-2.85l1.05.7.25.15.8.5 2.6 1.6-2.6-1.6v-2.25q-1.95-5.35-1.5-9.95l3.35-3.65q7.45-2.45 11.15-.15l-1.45 1.2-3.7-1.2q-2.45 8.85 4.5 9.75h.05l1.9-.9q-.2-1.5.15-2.95m-13.6 27.95 1.2-.05q20.65 12.05 12.2 28.35 4.2-3.85-7.95 8l-11.6 9.5-2.2-15.6-1.25-8.8q7.25-12.05 9.6-21.4m-108.3 16.5 3.95.7q9.8-.9 19.6 4.25 3.3-1.4 6.45-2.05l4.85-.6q8.55-.25 15.6 5.55v3.05l-4.35-3.05q-4.5.5-7.1 2.35-2.4 1.75-3.85 3.4l-.45-.4q-5.05-4.15-6.85-5.95-6.9-2.05-15.05 3.1.75 2 .95 6.65-1.95-6.6-6.3-11.5l-6.75-1-3.35-4.8-6.5-.85 6.35.7 2.8.45M147 176.55l2.6-1.65q3.25 2.15 1.15 3.1l-.2.05-1.25.3-2.3-1.8 1.2.8 2.35.7-2.35-.7-1.2-.8 3.75 1.45-3.75-1.45m.75 3.9-.85-.75.85.75m41.7-20.5-.1.1-.7-.7.8.6" transform="translate(-110.1 -15.8)"/><path fill-rule="evenodd" fill="#353116" d="m141.7 175.35-1.35-.35.25-.55 1.1.9m144.9-77.5h.05v.05l-.05-.05.05.05-.05-.05m-3.8 10.35 1.55.8v.05l-1.55-.85m-8.55-2.6q.2-.5.05 0h-.05M150.75 178q1.25.5-.2.05l.2-.05m-1.45.35v.05l-.05-.05h.05" transform="translate(-110.1 -15.8)"/><path fill-rule="evenodd" fill="url(#e)" d="M302.9 257.15q-.05 5.65-3 9.5l-15.5 15q6.85 6.45 7 10l-13.25-5-24.55-3.55q6-4.3 7.7-9.95l.6-2.95-14.4-5.45 8.15-2.15 5.1-2.45q3.1-1.6 5.55-4.2 1.5-1.7 2.8-3.75 3.9-6.25 5.35-16.15 19.2 6.45 23 21.75l5.45-.65" transform="translate(-110.1 -15.8)"/><path fill-rule="evenodd" fill="url(#f)" d="m245.35 265.3-2.6.65q-1.1-18.75-12.1-31.6 26.5 6.55 41.35.05l2.85-1.45-.15 1.55h-.1q-1.7 2.35-4.2 3.75.35 6.9-4.15 17.65l.05.05q-2.45 2.6-5.55 4.2l-5.1 2.45-8.15 2.15-2.15.55m9.05-105.4 2.2 15.6 2.2 15.65q-5.3-.15-11.15-2.05l-7.45 1.65-4.1 1.1q-10.95 2.6-21.1 1.95-5.35-.4-10.5-1.65l-.7-.2h-.1l-1.3-.4-4.25-1.4q-3.1-2.1-5.65-4.9l-1.55-2.1q-2.6-4.4-.3-9.95l.55-1.2.55-.65 1.3-2.15.2-.4 1.3-1.85 2.35-2.9.95-.85q1.3-1.25 2.85-2.35 1.9-1.4 4.1-2.6h.15l1.4.55-8.55 6.55q6.9-3.15 13.9-4.3l.95.4 14.9-.55 11.25-.4h.2l15.4-.6m-15.6.6-7.3 16.45 7.3-16.45m-31.15 31.45q9.05 2.55 18.1-.65-12.6-1.75-25.65-9.75-13.05-8-6.35 2.45.3 4.3 13.9 7.95" transform="translate(-110.1 -15.8)"/><path fill-rule="evenodd" fill="#f6f2d9" d="M204.95 158.25h-.15l.1-.05.05.05m69.65 76.25-.15 1.55q-1.45 9.9-5.35 16.15-1.3 2.05-2.8 3.75l-.05-.05q4.5-10.75 4.15-17.65 2.5-1.4 4.2-3.75" transform="translate(-110.1 -15.8)"/><path fill-rule="evenodd" fill="url(#g)" d="M204.8 158.25q-2.2 1.2-4.1 2.6-1.55 1.1-2.85 2.35l-.95.85-2.35 2.9-1.3 1.85-.2.4-1.3 2.15-.55.65-.55 1.2q-2.3 5.55.3 9.95l1.55 2.1q-1.55 4.35-1.45 8.25-5.85-7.1-3.85-13.85l-3.8-3.55q-4.2 5.75-4 6.05l.7 4-3.3.05-7.45-.75-6.85-1.7q-4.2-.85-13.2-5.35v-.05l1.25-.3q1.45.45.2-.05 2.1-.95-1.15-3.1l-2.6 1.65-5.3-1.2-1.1-.9 3.05-6.1-.35-13.5q-12.45-10.55 2-9.8l6.5.85 3.35 4.8 6.75 1q4.35 4.9 6.3 11.5-.2-4.65-.95-6.65 8.15-5.15 15.05-3.1 1.8 1.8 6.85 5.95l.45.4q1.45-1.65 3.85-3.4 2.6-1.85 7.1-2.35l4.35 3.05v1.1l-.1.05m-15.35 1.7-.8-.6.7.7.1-.1" transform="translate(-110.1 -15.8)"/><path fill-rule="evenodd" fill="#bca46d" d="m204.95 158.25 1.95.15q.9.35 1.65 1.35l-2.2-.95-1.4-.55" transform="translate(-110.1 -15.8)"/><path fill-rule="evenodd" fill="url(#h)" d="m208.55 159.75 3.15 1.3q-7 1.15-13.9 4.3l8.55-6.55 2.2.95" transform="translate(-110.1 -15.8)"/><path fill-rule="evenodd" fill="#6f7225" d="M270.15 189.1q16.7 28.9 8.75 41-1.9 1.6-4.05 2.85L272 234.4q8.95-6 1.3-31.2-8.05-3.95-13.45-12l3.1 1.3-1.5-1.4q3.05-.2 5.9-1-1.2 2.8-2.8 2.9 6.25 1.85 3.65-3.2l1.95-.7m-62.3 8.35-1.35.35-.9.15 2.25-.5" transform="translate(-110.1 -15.8)"/><path fill-rule="evenodd" fill="#4d4f19" d="M268.2 189.8q2.6 5.05-3.65 3.2 1.6-.1 2.8-2.9l.85-.3-.85.3.4-1.15.45.85m-79.85 40.15.05-.1q-1.25-.55-1.5-1.3l.05.05-.1-.25q7.8-.55 12.5-3.45-3.4 4.3-11 5.05m-2.6-9.95v-.6q0-.8-.5-1.55 2.25-1.85 7.2-3.05l-6.7 5.2" transform="translate(-110.1 -15.8)"/><path fill-rule="evenodd" fill="url(#i)" d="M191.05 193.5q-.1-3.9 1.45-8.25l5.75 7.55 3.15 2.6q-.3 1.75 1.05 3l-1.6.25-7.95 3.35q-1.25-2.4-1.7-6.25l-.15-1.95v-.3" transform="translate(-110.1 -15.8)"/><path fill-rule="evenodd" fill="#ecebdb" d="M155.4 282.65v-3q-2.45-7.95 13.5-23.25l5.15 3.65q-.5 2.6-.7 5.45-2.55.1-4.85.9-4.9 1.65-8.85 6.2l-4.25 10.05m4.35-32.3-.3-.35-1.3-1.65q5.55-1.5 12 1l3.9.85-4.4 2.6q-7.6-.2-9.9-2.45m8.65-16.25q-2.6-6.65 3.75-15.25-1.95 6.8.05 13.3.6 2 1.6 4.05l1.85 3.2-7.25-5.3m10.6-10.8q-4.65-13.2 6.15-25l4.25 6.35-1.05 2.6q-2.85-.35-5.7 3.75-5.5 8.3 0 19.2-1.9-2.8-3.65-6.9m9 12.25.05-.05.05.1-.1-.05m-1.1-7-.05-.2.1.25-.05-.05" transform="translate(-110.1 -15.8)"/><path fill-rule="evenodd" fill="url(#j)" d="m188.35 207.25 1.05-2.6q1-1.3 3.5-2.65l7.95-3.35 1.6-.25h.05l.1.15.2-.05 1.85-.35.95-.2.9-.15q9.35-1.55 13.2-2.85 14.15 1.9-25.7 19.1 12.2-.45 14.05 2 1.85 2.45 23.15-2.6-26.25 11.3-28.9 18.2l-5.8.25q-3.85.6-6.85 2.45-.7-1.25-.8-2.2l-.5-2.2q7.6-.75 11-5.05-4.7 2.9-12.5 3.45-.5-1.55.35-1.85-1.45-3.7-1.45-6.5l6.7-5.2q-4.95 1.2-7.2 3.05.35-1.65 1.4-3.2.3-3.65 1.7-7.4" transform="translate(-110.1 -15.8)"/><path fill-rule="evenodd" fill="#dad8bc" d="M170.15 249.35q-4.65-4.3-7.9-7.8l-1.3-1.45-3.35-4.3q-3.75-5.5-7.7-9.45l13.35 7.05 10.8 16.8-3.9-.85m18.2-42.1q-1.4 3.75-1.7 7.4-1.05 1.55-1.4 3.2.5.75.5 1.55v.6q0 2.8 1.45 6.5-.85.3-.35 1.85l.05.2q.25.75 1.5 1.3l-.05.1.5 2.2q.1.95.8 2.2l-1.6 1.15-.05.05q-2.75-1.5-5.35-5.35-5.5-10.9 0-19.2 2.85-4.1 5.7-3.75" transform="translate(-110.1 -15.8)"/><path fill-rule="evenodd" fill="#a9a881" d="m173.15 276.9-7-.25-.5-.05q-6.9-.9-10.25 6.05l4.25-10.05q3.95-4.55 8.85-6.2 2.3-.8 4.85-.9-.25 2.95-.2 6.1v5.3m-4.25-20.5q-5.85-2.55-9.15-6.05 2.3 2.25 9.9 2.45l4.4-2.6-10.8-16.8-13.35-7.05h6.75l11.75 7.75 7.25 5.3-1.85-3.2q-1-2.05-1.6-4.05-2-6.5-.05-13.3 1.55 5.25 5.15 8.5l1.7 1.35q1.65 1.1 3.65 1.9-1.65-2.55-2.75-5.05l-.2-.45-.7-1.8q1.75 4.1 3.65 6.9 2.6 3.85 5.35 5.35l-1.05.9q-10.3 8.55-12.9 23.6l-5.15-3.65m13.75-26.2v.4-.4" transform="translate(-110.1 -15.8)"/><path fill-rule="evenodd" fill="url(#k)" d="M215 193.8q10.15.65 21.1-1.95l4.1-1.1 7.45-1.65q5.85 1.9 11.15 2.05l2.65-.05 1.5 1.4-3.1-1.3q5.4 8.05 13.45 12 7.65 25.2-1.3 31.2-14.85 6.5-41.35-.05-6.65-1.3-13.6-1.7-4.6-.25-9.35-.1l-2.75-.45-2.65-.45q2.65-6.9 28.9-18.2-21.3 5.05-23.15 2.6-1.85-2.45-14.05-2 39.85-17.2 25.7-19.1-3.85 1.3-13.2 2.85l1.35-.35 1.3-.3 5.85-3.35" transform="translate(-110.1 -15.8)"/><path fill-rule="evenodd" fill="url(#l)" d="m274.7 234.5-.25 1.55.15-1.55h.1" transform="translate(-110.1 -15.8)"/><path fill-rule="evenodd" fill="url(#m)" d="M192.5 185.25q2.55 2.8 5.65 4.9l4.25 1.4 1.3.4h.1l.7.2q5.15 1.25 10.5 1.65l-5.85 3.35-1.3.3-2.25.5-.95.2-1.85.35-.2.05-.1-.15h-.05q-1.35-1.25-1.05-3l-3.15-2.6-5.75-7.55m16.65 11.9-6.7 1.25 6.7-1.25" transform="translate(-110.1 -15.8)"/><path fill-rule="evenodd" fill="url(#n)" d="M242.75 265.95q-1.85 4.65-4 8.4-4.15 7.25-8.55 8.5 2.7-11.85-2.95-26.25-1.7 33.3-11.2 52.8l2.85 6q-4.25 2-9 2.55l-20.05-.7q-5.75-1.85-11.05-3.85.8-3.1 4.2-6.35l-7.5-3.9q-.25-15.8 1.2-33.3 26.65 14.05 35.95-5.5 3.6-7 10.7-13.85 7.05-6.85-15.65-17.95 4.75-.15 9.35.1 6.95.4 13.6 1.7 11 12.85 12.1 31.6" transform="translate(-110.1 -15.8)"/><path fill-rule="evenodd" fill="url(#o)" d="M207.65 191.95q-13.6-3.65-13.9-7.95-6.7-10.45 6.35-2.45 13.05 8 25.65 9.75-9.05 3.2-18.1.65" transform="translate(-110.1 -15.8)"/><path stroke-width=".05" stroke-opacity=".302" stroke-linejoin="round" stroke-linecap="round" stroke="#000" fill="none" d="m176.55 82.1 5.3 2.6.55 2.05q.55 4-3.15 7.35-1.45.7-4.05-.4l-.95-.45-1.55 4.45 1.85-.15q8.15 2.1 9.2 7.05l.3 1.15q.95 5.05-1.7 7.9l-.3.15q-.5.2-1.5.7l.2.9m0 .1q2.45 11.75 1.3 20.4-1.3 9.35-5 16.9l-2.45 2.95-14.55 17.55q16.7 28.9 8.75 41 17.05 8.5 24 27.05-.05 5.65-3 9.5l-15.5 15q6.85 6.45 7 10l-13.25-5-24.55-3.55-11.7-1.7q.35-2.1 2.45-5.1 1-.7 1.4-2.3 1.05-4.25-.4-8.7l-2.6.65q-1.85 4.65-4 8.4-4.15 7.25-8.55 8.5l-7.85 28.8-3.45 3.75q-4.25 2-9 2.55l-20.05-.7Q74 299.6 68.7 297.6q-5.2-2.25-5.65-4.55-2.5-15.1 0-31.95m12-78.6-4.25-6.4q-5.95.2-12.65-1.4l-1.95-.5q-5.5-1.5-19-6.7 3.3-.95.45-2.85l-1.2-.85.35.1m-5.2-4.35-1.35-.35M176.5 82.05q-3.8-1.7-7.2 0-1.8 2-3.05 3.9-.35 1.45-.15 2.95l-1.9.9-.05.05L162 93.7l1.75 3.45m12.75-15.1h.05v.05l-.05-.05.05.05m-3.85 10.3 1.55.8v.05l-1.55-.85m-2.4-1.65 2.4 1.65m0 11.5v2l-4.5 6.2q-.65 1.1 0 1.5l.4.1m-.4-.1q4.1 3.4 7.35 3.8l5-2.9m-16.4-24.7q.2-.5.05 0m-.05 0v.05l-3.45.75 1.3 3.1m2.8-13.65q2.05 3.1 1.45 5.9m-14.45 10.1V93.8q-1.95-5.35-1.5-9.95l3.35-3.65q7.45-2.45 11.15-.15m-13 16-.8-.5-.25-.15-1.05-.7q-5.4.45-6.9 2.85-4.55 6.15-2.4 11.5 3.55 2.85 7.05 4m6.95-15.4-2.6-1.6-.8-.5m5.2 12.6-1.05 1.75q-2.7 1.2-6.5-1.1m12.05-18.2-6.25-.3m2.8 12.9v3.2l-1.05 1.75m.45-7.15-2.25-3.35m-.55 16.2-1.2.05q-2.35 9.35-9.6 21.4l1.25 8.8 2.2 15.6m6.15-45.8-1.6-.05q-1.8-.2-3.6-.8m-21.85-3.6-1.15 7.4M105 97.75l-6.4-1.85m-16.95 59.65-.55.65-.55 1.2q-2.3 5.55.3 9.95l1.55 2.1q2.55 2.8 5.65 4.9l4.25 1.4 1.3.4h.1l.7.2q5.15 1.25 10.5 1.65 10.15.65 21.1-1.95l4.1-1.1 7.45-1.65q5.85 1.9 11.15 2.05l-2.2-15.65m-51.7-18.4v1.1l.05.05 1.4.55 2.2.95 3.15 1.3.95.4 14.9-.55 11.25-.4m.2 0 15.4-.6m-99.95-13.7 3.95.7q9.8-.9 19.6 4.25 3.3-1.4 6.45-2.05l4.85-.6q8.55-.25 15.6 5.55v3.05m-63.2 18.25 5.3 1.2 2.3 1.8v.05q2.5 2.35-2.4 1.3m3.85-1.7q1.25.5-.2.05l-2.35-.7-1.2-.8 3.75 1.45m119.4 11.1-1.95.7m-.85.3q-2.85.8-5.9 1l-2.65.05m13.2 43.25 2.85-1.45q2.15-1.25 4.05-2.85m-11.55-40 .85-.3m-79.85 17.45 1.05-2.6-4.25-6.35m.1 19.55q.35-1.65 1.4-3.2.3-3.65 1.7-7.4m-5.7 22.95q2.6 3.85 5.35 5.35l.05-.05 1.6-1.15q-.7-1.25-.8-2.2l-.5-2.2.05-.1q-1.25-.55-1.5-1.3l-.05-.2q-.5-1.55.35-1.85-1.45-3.7-1.45-6.5v-.6q0-.8-.5-1.55m4.15-13.2q1-1.3 3.5-2.65l7.95-3.35 1.6-.25 6.7-1.25-1.3.3-1.35.35m-23.85 32.8v-.4m19.65 1.45-5.8.25q-3.85.6-6.85 2.45m-1.65 1.2-1.05.9q-10.3 8.55-12.9 23.6-.5 2.6-.7 5.45-.25 2.95-.2 6.1v5.3m101.7-43.95-.15 1.55-.25 1.55m-8.15 19.9q1.5-1.7 2.8-3.75 3.9-6.25 5.35-16.15M104.9 178l-5.85 3.35m-6.85 34.5 2.65.45 2.75.45q4.75-.15 9.35.1 6.95.4 13.6 1.7 26.5 6.55 41.35.05m-69.2-35.9 1.85-.35.95-.2.9-.15m59.8 58.15q-2.45 2.6-5.55 4.2l-5.1 2.45-8.15 2.15-2.15.55"/><path stroke-width=".05" stroke-linejoin="round" stroke-linecap="round" stroke="#3f0" fill="none" d="m36.8 163.9-5.2-4.35m-1.1-.9-7.95-6.7-1.3 2.35m96.2-9.2 3.75-.7m-90.7 14.25 1.1.9m-9.05-7.6-1-.85m15.25 12.8.85.75"/><path stroke-width=".05" stroke-linejoin="round" stroke-linecap="round" stroke="#0f0" fill="none" d="M128.7 144.7h.2m-7.5 16.45 7.3-16.45"/><path stroke-width=".05" stroke-opacity=".302" stroke-linejoin="round" stroke-linecap="round" stroke="#000" fill="none" d="m63.05 261.1-7-.25-.5-.05q-6.9-.9-10.25 6.05v-3q-2.45-7.95 13.5-23.25-5.85-2.55-9.15-6.05l-.3-.35-1.3-1.65q5.55-1.5 12 1-4.65-4.3-7.9-7.8l-1.3-1.45-3.35-4.3q-3.75-5.5-7.7-9.45h6.75l11.75 7.75q-2.6-6.65 3.75-15.25 1.55 5.25 5.15 8.5l1.7 1.35q1.65 1.1 3.65 1.9-1.65-2.55-2.75-5.05l-.2-.45-.7-1.8q-4.65-13.2 6.15-25"/></g><g transform="translate(-13.55 -7.9)" id="b"><use xlink:href="#p" width="54" transform="matrix(.0886 -.155 -.1276 -.0719 34.076 26.554)" height="143"/><use xlink:href="#p" width="54" transform="matrix(.0958 -.1676 -.1523 -.0858 48.668 35.366)" height="143"/><use xlink:href="#p" width="54" transform="matrix(.1059 -.1852 -.1758 -.099 64.805 45.117)" height="143"/><use xlink:href="#p" width="54" transform="matrix(.1059 -.1852 -.1783 -.0945 79.723 52.422)" height="143"/><use xlink:href="#p" width="54" transform="matrix(-.0925 .1617 .1503 .092 112.021 57.378)" height="143"/><use xlink:href="#p" width="54" transform="matrix(-.0999 .1747 .1789 .0935 94.827 47.877)" height="143"/><use xlink:href="#p" width="54" transform="matrix(.1059 -.1852 -.1789 -.0935 96.312 61.105)" height="143"/><use xlink:href="#p" width="54" transform="matrix(-.1059 .1852 .0943 .0493 88.901 44.08)" height="143"/><use xlink:href="#p" width="54" transform="matrix(-.0996 .1741 .1232 .0644 85.366 42.577)" height="143"/><clipPath id="r"><use xlink:href="#q" width="111.15" transform="translate(18.55 9.35)" height="67.25"/></clipPath><g clip-path="url(#r)"><use xlink:href="#s" width="116.75" transform="translate(13.55 9.45)" height="69.5"/><use xlink:href="#t" width="20.95" transform="translate(67.85 39.05)" height="16.85"/></g></g><g transform="translate(27 66.35)" id="p"><use xlink:href="#u" width="54" transform="translate(-27 -61)" height="122"/><use xlink:href="#v" width="11.45" transform="translate(-10.65 -21.55)" height="77.2"/><use xlink:href="#v" width="11.45" transform="translate(-.1 -37)" height="77.2"/><use xlink:href="#v" width="11.45" transform="translate(5.5 -21.55)" height="77.2"/><use xlink:href="#v" width="11.45" transform="translate(-13.65 -30.7)" height="77.2"/><use xlink:href="#v" width="11.45" transform="translate(-5.95 -27.5)" height="77.2"/><use xlink:href="#v" width="11.45" transform="translate(7.3 -33.5)" height="77.2"/><use xlink:href="#v" width="11.45" transform="translate(11.35 -30.7)" height="77.2"/><use xlink:href="#v" width="11.45" transform="matrix(1 0 0 1.8526 -22.1 -66.368)" height="77.2"/><use xlink:href="#w" width="36.9" transform="translate(-18.65 -54.15)" height="16.4"/></g><g id="u"><path fill-rule="evenodd" fill="#cbbc81" d="M-6.85 60.05q-6.7-.85-11.9-3.5-7.75-4-7.75-9.55l.15-1.35.7-4.45.1-.6.1-.5.6-4.25q2.1-15.35 2.4-30.65.2-11.1-.5-22.2-.75-11.4-2.45-22.75l-.95-5.7q.95 4.6 7.6 8 5.2 2.65 11.9 3.5l.55 7.65.1 1.4.05.35.8 17.65q.4 12.4.3 24.8-.15 16.45-1.15 32.85l-.05 1.15v.15l-.25 3.35-.35 4.65M-16.9-32.7l-.2-.15h.15-.15l.2.15-.05-.15.05.15 1.6 1.35-1.6-1.35 3.05 11.85-1.3 24.35 1.3-24.35-3.05-11.85m-8.5-7.05 8.3 6.9-1.15-.15 1.15.15-8.3-6.9m17.1 7.85-.7-.05-7.95-.9 7.95.9.7.05m2 5.6L-9-31.95l2.7 5.65" transform="translate(27 61)"/><path fill-rule="evenodd" fill="#bca85c" d="m26.35-45.5-.65 4.4q-1.8 12.55-2.45 25.4-.6 11.8-.2 23.85.5 14.2 2.35 28.7l.1.9.85 6.1-.4.25q.55 1.4.55 2.9 0 5.55-7.75 9.55-.5.2-.95.45l-.5-4.05-.15-1.3-.2-2.1Q15.2 33.7 14.9 17.9l-.05-2.4q-.25-13.45.55-26.85.55-9.55 1.65-19.1v-.35l.75-6.2.95-.45q6.65-3.45 7.6-8.05m-.65 4.4L21-36.7l-.95.9.95-.9 4.7-4.4M21-36.7l-3.95 5.9L21-36.7" transform="translate(27 61)"/><path fill-rule="evenodd" fill="#a99545" d="m16.2-34.7-.6.3-.15-.45.15.45.6-.3m-4.35 2.1-16.4 1.2L-6-25.7l-.2.8-.1-1.4-.55-7.65L0-33.5q10.35 0 17.8-3.5l-.75 6.2v.35l-.1-.2.1-.15-.1.15-1.35-3.75-3.75 1.8M-6-25.7l-.3-.6.3.6m1.55-6.2-.1.5-.8.05.8-.05.1-.5" transform="translate(27 61)"/><path fill-rule="evenodd" fill="#857536" d="M-6.25 51.9v.15-.15" transform="translate(27 61)"/><path fill-rule="evenodd" fill="#d8cc9e" d="M17.8 57q-3.7 1.7-8.05 2.6L0 60.5l-6.85-.45.35-4.65.25-3.35v-.15l.05-1.15q1-16.4 1.15-32.85.1-12.4-.3-24.8l-.8-17.65-.05-.35.2-.8 1.45-5.7 16.4-1.2-.65.3.65-.3 3.75-1.8 1.35 3.75.1.2q-1.1 9.55-1.65 19.1-.8 13.4-.55 26.85l.05 2.4q.3 15.8 2.05 31.65l.2 2.1.15 1.3.5 4.05m-.85-87.65-.4.6.4-.6" transform="translate(27 61)"/><path fill-rule="evenodd" fill="#e6dbc4" d="M-26.4-48.25q.8-4.8 7.65-8.3Q-11-60.55 0-60.5q11-.05 18.75 3.95Q26.5-52.6 26.5-47l-.15 1.5q-.95 4.6-7.6 8.05l-.95.45Q10.35-33.5 0-33.5l-6.85-.45q-6.7-.85-11.9-3.5-6.65-3.4-7.6-8v-.15l-.05-.15v-2.5" transform="translate(27 61)"/><path stroke-opacity=".373" stroke-linejoin="round" stroke-linecap="round" stroke="#716242" fill="none" d="M-26.35-45.45v-.15l-.05-.15" transform="translate(27 61)"/><path stroke-linejoin="round" stroke-linecap="round" stroke="#7d6c46" fill="none" d="M-26.4-48.25q.8-4.8 7.65-8.3Q-11-60.55 0-60.5q11-.05 18.75 3.95Q26.5-52.6 26.5-47l-.15 1.5m-.4 89.6q.55 1.4.55 2.9 0 5.55-7.75 9.55-.5.2-.95.45-3.7 1.7-8.05 2.6L0 60.5l-6.85-.45q-6.7-.85-11.9-3.5-7.75-4-7.75-9.55l.15-1.35m-.05-91.4-.1-1.25.1-1.25m52.75 2.75-.65 4.4q-1.8 12.55-2.45 25.4-.6 11.8-.2 23.85.5 14.2 2.35 28.7l.1.9.85 6.1m-52.7 1.8.7-4.45.1-.6.1-.5.6-4.25q2.1-15.35 2.4-30.65.2-11.1-.5-22.2-.75-11.4-2.45-22.75l-.95-5.7" transform="translate(27 61)"/><path stroke-width=".05" stroke-linejoin="round" stroke-linecap="round" stroke="#5a512e" fill="none" d="m47.05 25.2.95-.9 4.7-4.4m-10.25 6.25.15.45.6-.3m-5 2.4.65-.3-16.4 1.2L21 35.3l-.2.8.05.35m22.7-5.5.4-.6-1.35-3.75-3.75 1.8m5.1 1.95.1.2m0-.35-.1.15m.1-.15L48 24.3M20.7 34.7l.3.6m-10.95-7.15H9.9l.2.15 1.6 1.35m-1.65-1.5 7.95.9.7.05M8.75 28l1.15.15-8.3-6.9m20.05 8.4.8-.05.1-.5M18 29.05l2.7 5.65"/><path stroke-width=".05" stroke-opacity=".451" stroke-linejoin="round" stroke-linecap="round" stroke="#5a512e" fill="none" d="m10.1 28.3-.05-.15m.05.15 3.05 11.85-1.3 24.35"/></g><g id="q"><path fill-rule="evenodd" fill="#bca85c" d="m82.35 41 .9.65.15.1 4.9 3.15 4.3 2.2 4.8 1.9-1.3.45-1.45.2 1.45-.2 1.3-.45.4.15q.3 0 .55.15l.15.1.3.3.1-.05 1 .7.15.1 4.9 3.15 4.3 2.2q2.35 1.05 4.8 1.9l.85.3q-.95-.3-2.25.65l-.2.15-1.15-.45-.1-.05-3.6-1.5q-2.5-1.1-4.85-2.4l-.4-.2-3-1.75-1.4-.9-1.05-.7-.1-.05-.25-.2-.25-.15-.5-.35-.15-.1h-.05l-.95-.35-.1-.05-3.6-1.5q-2.5-1.1-4.85-2.4l-.4-.2-2.95-1.75-1.4-.85-1.1-.75-.1-.05-.25-.2-.25-.15-.45-.35-.2-.1h.05l.15-.15q1.25-.9 2.15-.65-.9-.25-2.15.65l-.15.15-1-.4H78l-3.6-1.5q-2.5-1.15-4.85-2.45l-.4-.25-1.25-.7-1.6-.95-.6-.4-1.2-.8-.7-.45-.1-.05-.35-.25-.2-.15-.65-.45-.55.4-2.3-1.05-4.8-2.55-.4-.25-2.75-1.75-1.25-.8-.8-.6-.55-.4-.35-.2-.05-.05-.15-.15-.45-.3-.2-.15.15-.15q.7-.5 1.35-.6l1.15.1.45.4.1-.05 1 .75.1.1 4.8 3.3 4.25 2.3 2.25 1.05 1.7-.05.45.4.1-.05 1 .75.15.1 4.85 3.1L76 38.35l4.8 1.95.55.2.3.1h.05l.45.4.1-.05.1.05m-60-30.35.15-.1q1.2-1 1.95-.55l.3.3.1-.05.7.55.1.1 3.45 2.45L32.15 15l3.45 1.45q.7-.3 1.25 0l.35.35.1-.05.85.7.1.1 4.15 2.85 3.65 2.05 3.35 1.45q-.65.1-1.35.6l-.15.15-.3.2-3.05-1.35q-2.15-1-4.15-2.15l-.4-.25-3.1-2-1.1-.8-.4-.3-.1-.1-.15-.1-.2-.15-.45-.35-.1-.1-.2.15-.7-.25-.05-.05-2.6-1.1-3.45-1.85-.3-.15q-2-1.2-3.85-2.6l-.25-.2-.15-.1-.5-.4m91.7 47.05-1.3.45-1.45.2 1.45-.2 1.3-.45M95.65 50l.2-.15q1.1-.8 1.95-.7-.85-.1-1.95.7l-.2.15M63.5 31.85l-.85.5-.15.15.15-.15.85-.5m17.3 8.45-1.25.45-1.5.15 1.5-.15 1.25-.45M35.35 16.55l-.75.35-1.1.2 1.1-.2.75-.35.25-.1-.25.1-.8.55-.15.1.15-.1.8-.55" transform="translate(-18.55 -9.35)"/><path fill-rule="evenodd" fill="#d8cc9e" d="m79 41.3.2.1.45.35.25.15.25.2.1.05 1.1.75 1.4.85 2.95 1.75.4.2q2.35 1.3 4.85 2.4l3.6 1.5.05.05.5.6-.7.5-1.95 2.95-1.15-.25-.2-.05-.05-.05-3.05-1.8-4.4-2.4-2.65-1.3-1.2-.55-1.25-.6-.9-.4-.25-.1-.5-.2-.15-.05-.6-.3-.25-.1v-.05l.65-1.25 1.2-1.7L79 41.3M19.7 14.4l.6-1.15 1-1.5 1.05-1.1.5.4.15.1.25.2q1.85 1.4 3.85 2.6l.3.15 3.45 1.85 2.6 1.1.05.05.35.5-.6.45-1.65 2.55-.85-.2h-.15v-.05l-2.2-1.4-3.15-1.8q-2.1-1.2-4.3-2.2l-.15-.05-.45-.25-.65-.25m91.5 43.9.05.05.5.6-.7.5-1.95 2.95-1.15-.25-.2-.05-.05-.05-3.05-1.8-4.4-2.4q-1.35-.7-2.7-1.3l-1.2-.55-1.2-.55-.15-.1-.75-.35-.25-.1-.55-.2-.1-.05-.7-.3-.1-.05-.05-.05.65-1.3 1.2-1.7L95.6 50h.05l.15.1.5.35.25.15.25.2.1.05 1.05.7 1.4.9 3 1.75.4.2q2.35 1.3 4.85 2.4l3.6 1.5M47.9 24.65l.2.15.45.3.15.15.05.05.35.2.55.4.8.6 1.25.8 2.75 1.75.4.25 4.8 2.55 2.3 1.05.55-.4.65.45.2.15.35.25.1.05.7.45 1.2.8.6.4 1.6.95 1.25.7.4.25q2.35 1.3 4.85 2.45l3.6 1.5h.05l.5.65-.7.5L75.9 45l-1.2-.3-.15-.05h-.05l-3.05-1.85q-2.2-1.25-4.4-2.4l-.7-.35-1.15-.55-1-.5-.6-.3-1.35-.65-.75-.35-.45-.2-.2-.1h-.05l-.6-.25-.85-.4-.05.15-2.65-1.65-4.3-2.5-2.45-1.35-1-.5-.95-.45-.35-.2-1.15-.55-.05-.05-.2-.05h.05l-.05-.05-.5-.2-.1-.05-.85-.4v-.1l-.3-.05-.15-.05-.05-.05-2.6-1.65-3.75-2.2-3-1.55-.85-.45-1.3-.6-.15-.05v-.05h-.05l-.45-.2-.05-.05-.55-.2-.2-.1.25-.5.4-.8 1.15-1.75 1.1-1.15.2-.15.1.1.45.35.2.15.15.1.1.1.4.3 1.1.8 3.1 2 .4.25q2 1.15 4.15 2.15l3.05 1.35-1.05 1q-.65.75-1.15 1.75l-.65 1.2.65-1.2q.5-1 1.15-1.75l1.05-1 .3-.2m11.45 12.1.65-1.3q.5-1 1.15-1.7l.8-.85-.8.85q-.65.7-1.15 1.7l-.65 1.3" transform="translate(-18.55 -9.35)"/><path fill-rule="evenodd" fill="#cbbc81" d="m109.3 67.75-.9-.7-3.8-2.6-3.95-2.15q-2.8-1.4-5.75-2.45l-.8-.25-.1-.05-.1-.05-.45-.1-.45-.15-.15-.05-.1-.05-.45-.4-.55-.4-3.8-2.6Q86 54.55 84 53.6q-2.8-1.4-5.75-2.45l-.8-.25-.1-.05-.1-.05-.45-.15-.25-.05-.1-.05h-.1l-.25-.1-.55-.5-.4-.3-3.8-2.6-3.9-2.2q-2-1.05-4.05-1.85l-1.65-.65-.85-.25-.1-.05-.1-.05-.45-.15.05.35-.05-.35-.4-.1-.25-.1-.1-.05-.25-.2-2.7-1.9-3.85-2.3q-2.7-1.45-5.6-2.6l-.5-.15-.35-.15h-.1l-.1-.05-.85-.3-.15-.1-.1-.05-.45-.35q-.5-.7-.4-2v-.3l.55-2.05.05-.15-.05.15-.55 2.05v.3q-.1 1.3.4 2l.45.35.1.05.25.35-.8-.65-3.2-2.4-3.3-2q-2.4-1.25-4.95-2.2l-.7-.25h-.1l-.1-.05-.75-.25-.2-.1q-.8-.45-.65-1.95L28.1 22.5q-1.4-.9-2.8-1.65-2-1.1-4.15-1.85l-.6-.2h-.05l-.1-.05-.65-.2-.15-.05q-.75-.45-.5-1.95.1-1.05.6-2.15l.65.25.45.25.15.05q2.2 1 4.3 2.2l3.15 1.8 2.2 1.4v.05l.2.1.45.85-.6 1.35.6-1.35-.45-.85.75.55-.25.5.2.1.55.2.05.05.45.2.05.05.15.05 1.3.6.85.45 3 1.55 3.75 2.2 2.6 1.65.05.05.2.15.15.25-.15-.25.2.1.05-.05.85.4.1.05.5.2v.05l.2.05.05.05 1.15.55.35.2.95.45 1 .5 2.45 1.35 4.3 2.5 2.65 1.65.05-.15.85.4.6.25h.05l.2.1.45.2.75.35 1.35.65.6.3 1 .5 1.15.55.7.35q2.2 1.15 4.4 2.4l3.05 1.85h.05l.25.15 1.05.7v.05l.25.1.6.3.15.05.5.2.25.1.9.4 1.25.6 1.2.55 2.65 1.3 4.4 2.4 3.05 1.8.05.05.25.15 1.15.7.05.05.1.05.7.3.1.05.55.2.25.1.75.35.15.1 1.2.55 1.2.55q1.35.6 2.7 1.3l4.4 2.4 3.05 1.8.05.05.25.15.75 1-.55 1.25-.2.3.2-.3.55-1.25-.75-1 1.3.8q-.55 1.3-.6 2.55-.1 1.5.6 2.15m-48.1-24.8-.9-.75-.8-.6.1.05.25.1.4.1.45.15.5.95m46.85 21.9-.05-.05.05.05.15-.35-.15.35.35 2.2-.35-2.2-.05-.05.05.05m-6.3-3.75 4.5 2.05L108 64.8l-1.75-1.65-4.5-2.05m-9.45-2.35q-.55-.65-.45-1.95.1-1.25.65-2.55-.55 1.3-.65 2.55-.1 1.3.45 1.95m-.95-5.2.75 1-.55 1.25-.2.3.2-.3.55-1.25-.75-1m-15.8-3.6q-.4-.65-.35-1.85.1-1.25.65-2.55-.55 1.3-.65 2.55-.05 1.2.35 1.85m16.2 8.4-.35-2.2.15-.35-.15.35.35 2.2m-.35-2.2-.05-.05.05.05-.05-.05.05.05m-6.3-3.75 4.5 2.05 1.75 1.65-1.75-1.65-4.5-2.05m-25.85-11q-.65-.65-.55-2.1l.05-.55q.15-.95.55-1.85-.4.9-.55 1.85l-.05.55q-.1 1.45.55 2.1m-28.7-17.05v-.3l.15-.7q.15-.9.6-1.8-.45.9-.6 1.8l-.15.7v.3m13.95 9.1v.1-.1m-5.5-5.5 3.85 1.85 1.25 1.35-1.25-1.35L39 27.95M53.8 36l4.4 2.2.55.55-.55-.55-4.4-2.2m21.35 13.65-.35-2.2v-.05l.7-1.55-.7-1.05.7 1.05-.7 1.55v.05l.35 2.2m-.4-2.7.05.45-.05-.45m-6.2-3.3L73 45.7l1.8 1.7-1.8-1.7-4.45-2.05M26.2 19.8l3.2 1.55 1.25 1.35-1.25-1.35-3.2-1.55m4.45 2.9.05.65-.05-.65" transform="translate(-18.55 -9.35)"/><path fill-rule="evenodd" fill="#e6dbc4" d="m82.35 41-.1-.05-.1.05-.45-.4h-.05l.3.1.4.3m16.15 8.4h.05l.35.25-.1.05-.3-.3m16.4 8.6.3.1q.9.45.9 2l-.05.35q-.1 1.75-1.25 3.8-1.2 2.05-2.7 3.15-1.1.7-1.9.7l-.4-.1-.45-.2-.05-.05q-.7-.65-.6-2.15.05-1.25.6-2.55l.65-1.3q1.1-1.95 2.5-2.95l.2-.15q1.3-.95 2.25-.65m-21.45 1.4-.3-.1-.15-.05.45.15M76.8 50.65l-.2-.05h-.05l.25.05M63.4 43q-1 .5-1.7.25l-.45-.25-.05-.05-.5-.95.1.05.1.05.85.25 1.65.65m-16.8-8.55h-.9l-.4-.2v-.05l-.25-.35.15.1.85.3.1.05h.1l.35.15m67.5 25.1q.6.3.5 1.5-.15 1.25-.95 2.65-.85 1.4-1.85 2.2-1 .75-1.6.45-.6-.3-.45-1.55.1-1.2.95-2.6.8-1.45 1.8-2.2 1-.8 1.6-.45-.6-.35-1.6.45-1 .75-1.8 2.2-.85 1.4-.95 2.6-.15 1.25.45 1.55.6.3 1.6-.45 1-.8 1.85-2.2.8-1.4.95-2.65.1-1.2-.5-1.5M113.05 61q.45-.45.65-.35v.7l-.55 1.25-.85 1.15-.6.35q-.2-.1-.05-.65l.6-1.3.8-1.15-.8 1.15-.6 1.3q-.15.55.05.65l.6-.35.85-1.15.55-1.25v-.7q-.2-.1-.65.35" transform="translate(-18.55 -9.35)"/><path fill-rule="evenodd" fill="#a99545" d="M79.05 41.3H79l-1.3 1.25-1.2 1.7-.65 1.25-1.05-.7-.25-.15.15.05 1.2.3 1.95-2.95.7-.5-.5-.65H78h.05l1 .4m15.5 8.3.1.05h-.05.05l.95.35-1.25 1.25-1.2 1.7-.65 1.3-1.15-.7-.05-.1.05.1-.25-.15.2.05 1.15.25 1.95-2.95.7-.5-.5-.6-.05-.05m17.9 9.2q-1.4 1-2.5 2.95l-.65 1.3-1.3-.8-.25-.15.2.05 1.15.25 1.95-2.95.7-.5-.5-.6-.05-.05.1.05 1.15.45m-1.2-.45h.05-.05m-3.3 3.8.05.1-.05-.1M44.75 28.9l-.05.05-.2-.1-.2-.15.15.05.3.05v.1m-.25-.05-.05-.1.05.1M74.7 44.7l.1.1-.1-.1M33.45 17.05l.05.05-.05-.05M30.6 20.4h.15l.85.2 1.65-2.55.6-.45-.35-.5.7.25-1.1 1.15-1.15 1.75-.4.8-.75-.55-.2-.1m.15 0 .05.1-.05-.1" transform="translate(-18.55 -9.35)"/><path fill-rule="evenodd" fill="#857536" d="M46.2 29.6v-.05l.05.05h-.05m-13.6-7.45-.05-.05h.05v.05" transform="translate(-18.55 -9.35)"/><path fill-rule="evenodd" fill="url(#x)" d="M116.1 60.1q5.4 4.95 13.2 8 1.35 3.15-2.05 7-1.85 2-3 1.35-7.4-5.95-14.05-8.35.8 0 1.9-.7 1.5-1.1 2.7-3.15 1.15-2.05 1.25-3.8l.05-.35" transform="translate(-18.55 -9.35)"/><path stroke-linejoin="round" stroke-linecap="round" stroke="#7d6c46" fill="none" d="m97.4 49-4.8-1.9-4.3-2.2-4.9-3.15-.15-.1-.9-.65-.1-.05m-.1.05-.45-.4h-.05l-.3-.1q-.9-.25-2.15.65l-.15.15H79l-1.3 1.25-1.2 1.7-.65 1.25v.05q-.55 1.3-.65 2.55-.05 1.2.35 1.85l-.4-.3-3.8-2.6-3.9-2.2q-2-1.05-4.05-1.85-1 .5-1.7.25l-.25-.15-.2-.1m36.15 6 .4.15q.3 0 .55.15l.15.1h.05l.35.25 1 .7.15.1 4.9 3.15 4.3 2.2q2.35 1.05 4.8 1.9l.85.3.3.1q.9.45.9 2m-5.9 8-.4-.1-.25-.1-.2-.1m-.05-.05-.9-.7-3.8-2.6-3.95-2.15q-2.8-1.4-5.75-2.45l-.8-.25-.1-.05-.1-.05-.45-.1-.3-.1-.25-.1h-.05l-.1-.05-.45-.4-.55-.4-3.8-2.6Q86 54.55 84 53.6q-2.8-1.4-5.75-2.45l-.8-.25-.1-.05-.1-.05-.45-.15-.2-.05-.15-.05h-.1l-.25-.1-.55-.5m-14.35-7-.9-.75-.8-.6-.25-.2-2.7-1.9-3.85-2.3q-2.7-1.45-5.6-2.6l-.5-.15h-.9l-.2-.05-.2-.15m0-.05-.8-.65-3.2-2.4-3.3-2q-2.4-1.25-4.95-2.2l-.7-.25h-.1l-.1-.05-.75-.25-.2-.1q-.8-.45-.65-1.95L28.1 22.5q-1.4-.9-2.8-1.65-2-1.1-4.15-1.85l-.6-.2h-.05l-.1-.05-.65-.2-.15-.05q-.75-.45-.5-1.95.1-1.05.6-2.15l.6-1.15 1-1.5 1.05-1.1.15-.1q1.2-1 1.95-.55l.3.3m.1-.05.7.55.1.1 3.45 2.45L32.15 15l3.45 1.45q.7-.3 1.25 0l.35.35m.1-.05.85.7.1.1 4.15 2.85 3.65 2.05 3.35 1.45 1.15.1.45.4m.1-.05 1 .75.1.1 4.8 3.3 4.25 2.3 2.25 1.05 1.7-.05.45.4m.1-.05 1 .75.15.1 4.85 3.1L76 38.35l4.8 1.95.55.2m1 .5-.4-.3-.3-.1m28.55 27.5q.8 0 1.9-.7 1.5-1.1 2.7-3.15 1.15-2.05 1.25-3.8l.05-.35M95.65 50h-.05l-1.25 1.25-1.2 1.7-.65 1.3q-.55 1.3-.65 2.55-.1 1.3.45 1.95m5.5-9.6q-.85-.1-1.95.7l-.2.15M93 59.25l-.15-.05m.15.05.45.15m5.05-10 .3.3M47.9 24.65l.15-.15q.7-.5 1.35-.6m12.55 9 .55-.4.15-.15.85-.5M44.75 28.9l-.05.05-.05.15-.55 2.05v.3q-.1 1.3.4 2l.45.35.1.05.15.1.85.3.1.05h.1l.35.15m12.75 2.3-.05.15q-.4.9-.55 1.85l-.05.55q-.1 1.45.55 2.1m2.7-8.5-.8.85q-.65.7-1.15 1.7l-.65 1.3M47.6 24.85l-1.05 1q-.65.75-1.15 1.75l-.65 1.2v.1M31.3 21.55q-.45.9-.6 1.8l-.15.7v.3m29.7 17.5-.4-.1-.25-.1-.1-.05m.75.25.45.15.1.05.1.05.85.25 1.65.65M47.6 24.85l.3-.2m-12.55-8.1.25-.1m-1.2.75-.2.15-1.1 1.15-1.15 1.75-.4.8-.25.5m4.05-5-.8.55-.15.1m42.15 33.4-.1-.05m.1.05.25.05" transform="translate(-18.55 -9.35)"/><path stroke-width=".05" stroke-opacity=".451" stroke-linejoin="round" stroke-linecap="round" stroke="#5a512e" fill="none" d="m89.45 55.45.05.05m-.05-.05L87.7 53.8l-4.5-2.05m-10.4-5 .05.05m-.05-.05-1.75-1.65-4.5-2.05m-41-21.25-1.25-1.35-3.85-1.85M40.2 29.4l-.55-.55-4.4-2.2m21 11.4-1.8-1.7L50 34.3M12.1 13.35 10.85 12l-3.2-1.55"/><path stroke-width=".05" stroke-linejoin="round" stroke-linecap="round" stroke="#5a512e" fill="none" d="m76.1 40.3 1.45-.2 1.3-.45M92.75 49l1.45-.2 1.3-.45m-6.3 4.4.2.05 1.15.25 1.95-2.95.7-.5-.5-.6-.05-.05m-3.5 3.75.05.05m.25.15-.05-.1m3.35-3.8h-.05m-3.25 6.45.2-.3.55-1.25-.75-1m.05 2.6.15-.35m-.15.35.35 2.2m-.35-2.2-.05-.05M76.1 40.3h-.05l.5.6-.7.5-1.95 2.95-1.15-.25.05.1m3.25-3.9-.05-.05m-3.2 6.5.2-.3.55-1.25-.75-1m-.25-.15L72.5 44m.5 2.45-.15.35.35 2.2m-.35-2.2-.05-.05m-.25-2.7.2.05m-16.8-8.8H56l.15.05 1.2.3 1.95-2.95.7-.5-.5-.65h-.05M25.95 19.5l.15.25m.1-.3-.3-.05.05.1m-.2-.15-.05-.05m.2.1-.15-.05m.2 4.85v-.1m15.8 8.75-.05-.35m17.8-.95 1.5-.15 1.25-.45m-6 4.5.7 1.05-.7 1.55v.05l.35 2.2m-.35-4.85-.1-.1m.1 2.7-.05-.45M14.95 7.75l1.1-.2.75-.35M12.05 11v.05h.15l.85.2L14.7 8.7l.6-.45-.35-.5-.05-.05m-2.65 3.45-.05-.1m-.1 2.3.6-1.35-.45-.85m-.1 2.85-.05-.65"/><path stroke-opacity=".373" stroke-linejoin="round" stroke-linecap="round" stroke="#716242" fill="none" d="m109.35 67.8-.05-.05M61.25 43l-.05-.05m-15.9-8.7v-.05" transform="translate(-18.55 -9.35)"/><path stroke-width=".05" stroke-opacity=".212" stroke-linejoin="round" stroke-linecap="round" stroke="#5a512e" fill="none" d="m94.5 51.65-.8 1.15-.6 1.3q-.15.55.05.65l.6-.35.85-1.15.55-1.25v-.7q-.2-.1-.65.35m1.05-1.45q-.6-.35-1.6.45-1 .75-1.8 2.2-.85 1.4-.95 2.6-.15 1.25.45 1.55.6.3 1.6-.45 1-.8 1.85-2.2.8-1.4.95-2.65.1-1.2-.5-1.5"/><path stroke-width=".05" stroke-opacity=".302" stroke-linejoin="round" stroke-linecap="round" stroke="#000" fill="none" d="M97.55 50.75q5.4 4.95 13.2 8 1.35 3.15-2.05 7-1.85 2-3 1.35-7.4-5.95-14.05-8.35"/></g><g id="c"><path fill-rule="evenodd" fill="url(#y)" d="M309.6 149.25q2.65-.9 4.55-2.55 2.6 1.85 4.8 2.65-5.15 3.5-11.7 5.55h-7.8q7.4-2.05 10.15-5.65m-24.95 48.1-6.35.05q-32.85-.8-46.8-20.4.05-8.15 6.35-14.35.8 8.6 5 14.65 4.2 6.05 14.95 11.35t26.85 8.7m-89.15-47.6q-2.45-1.15-7.95-1.15 2.25-3.2 8.7-7.1-.5-.35-3.65.4 2.45-2.3 4.2-3.65 1.35-1.15 2.95-1.95 3.3-1.7 7.5-2.1 3.9-.45 8.6.2l5.15.95.3.05q-7.9-1.45-15.05 1.25-4.3 1.7-5.65 3 3.35-.55 8.25.65l-6.65 7.25q-1.55.2-6.7 2.2m52.1-13.95q10.15.35 22.05 7.75l-6.75-2.4 3.4 2.4 4.55 2.35q2.1.9 4.95 1.15-.15.8-.95 1.45h-.05q-2.6.15-4.75-.75l-5.5-2.95q-5.3-8.3-21.25-7.95l-6.05.4.05-.2 1.85-.25 2.85-.65 4.5-.35h1.1m59.4-2.25q4.3 8.2 0 16.4l-9.1 2.1q6.9-3.6 7.75-10.25l1.35-8.25m-72.05 9.3-1.55.15-2.05-.3-1.1-.2q-.35 0-.85.4l-.25.35-.35-.6.8-.7.75-.1 2.8.4q2.05.3 1.8.6m-9.7 4.8-4.4 3.8q-3.2 2.85-6.55 5.1l2.4-5h-2.8l4.8-3.8 6.25-3 4.35.75q-2.8 1.25-4.05 2.15" transform="translate(-116.5 -105.35)"/><path fill-rule="evenodd" fill="url(#z)" d="M309.6 149.25q-2.75 3.6-10.15 5.65h7.8q9.4-1.55 14.95-3.1l2.35-.7q3.45-1.2 4.8-2.35-11.7 14.55-30.1 19.15 5.1 5.3 18.7 8.85h2.65l-12.15 4.85q-17.9 3.6-35.05-3-1.35 3.25 0 8 .65 3.95 4.65 7.1l.4.3 1.95 1.25q1.85 1.1 4.25 2.1-16.1-3.4-26.85-8.7-10.75-5.3-14.95-11.35-4.2-6.05-5-14.65-6.3 6.2-6.35 14.35-1.55-2.15-2.85-4.5-1.65-3.05-2.95-6.45l.95-10.25q-6.15 7.75-5.2 16.2 1.35 5.85 5.7 9.85-3.55-3.1-6.35-6.4-4.7-5.6-7.3-11.9-6.9-2.3-11.15-7.15 4.4-5.7 9.1-7.55l9.65-4.05q6.5-2.7 11.25-3.7l3.75 1.15q2.55 1.8.9 2.4 1.65-.6-.9-2.4l15.25 7.8 3.05 1.2.2.1.2.05 9.6 3.65q33.3 2.6 42.6-21.5l-1.35 8.25q-.85 6.65-7.75 10.25l9.1-2.1 2.6-.7m-74.65-6.4q.25-.3-1.8-.6l-2.8-.4-.75.1-.8.7.35.6.25-.35q.5-.4.85-.4l1.1.2 2.05.3 1.55-.15m-3.5 1.8q-2.1 2.95 7.2 6.85-2.6-3.6-1.65-6.85h-5.55m-6.2 3q1.25-.9 4.05-2.15l-4.35-.75-6.25 3-4.8 3.8h2.8l-2.4 5q3.35-2.25 6.55-5.1l4.4-3.8" transform="translate(-116.5 -105.35)"/><path fill-rule="evenodd" fill="url(#A)" d="M320.6 176.75q3.1-.7 6.55-2.65-24.2 20.45-53.75 12.5-1.35-4.75 0-8 17.15 6.6 35.05 3l12.15-4.85m-94.9-10.7q-1.25 7.4 1.45 15.8-4.35-4-5.7-9.85-.95-8.45 5.2-16.2l-.95 10.25m-23.35-9.65-1.8-2.35-1.6-1.85q10.95-3.7 25.45-11.05l10.7-1.45q1.7 2.9 21.4 9.1 11.95 2 14.85 1.6h.05l-.3.1-3.25 1.15-5.6.25-7.45-.5-.4-.15.4.15-.2-.05-.2-.1-3.05-1.2-15.25-7.8-3.75-1.15q-4.75 1-11.25 3.7l-9.65 4.05q-4.7 1.85-9.1 7.55M237 144.65q-.95 3.25 1.65 6.85-9.3-3.9-7.2-6.85H237" transform="translate(-116.5 -105.35)"/><path fill-rule="evenodd" fill="#353116" d="m200.15 105.35 2 .4 1.5.7q2.25 2.4 2.2 7.55l-.15.2-.8 1-1.75 3.65v-3.2q1.8-5.2-4.65-7.7-.05-2.45 1.65-2.6m42.95 4.05q3.7 4.75-.95 5.75l-3.7-3.05q1.5-3.15 4.65-2.7m3.65 17-.75 1.8.15 2.95 1.45 4.65h-1.1l-4.5.35q1.95-.45 3.05-2.05.75-1.2 1.1-2.95-.35 1.75-1.1 2.95 1.4-3.3-.05-6.55l1.75-1.15q-4.45-.65-8.65 4.2l-1.6 2.15-.55.65-.55.65.55-.65q1 2.65 3.2 3.4l-1.85.25-.8-.55.1-.4q0-.55-.65-.95l-.55-1.1-.25-.55q-.15-4.6 1.5-8.6 5.5.3 10.1 1.45v.05m-34.35.3-1.1-.35-1.9-.5 1.9.5.05.65-3.9.85.35-1.4 1.6-.6 4.1-.35 3.3-.45q3-.4 8.75-.1 3.3 3.6 3.4 9.1l-.55 3.05-1.25-.05-1.7-.5q1.5-.45 2.45-1.85l-1.2-2.35q-4.65-3.6-9.05-5.65h-5.25m20.4 7.7 1.6.15.2.05.25.1.2.05q1.05.5 1.15 2.15l-.7.4h-.05l-1.65.45-1 .05-2.15-.3-.55-.2-.4-.2-.6-.65 2.85.45q4.25-.45.85-2.5M144.85 120v.05-.05" transform="translate(-116.5 -105.35)"/><path fill-rule="evenodd" fill="url(#B)" d="M208.7 111.75q3.1-1.95 7.85-3.05 6-.45 11.3.2 4.8.65 8.95 2.2l.85.5.8.5 3.7 3.05 2.2 2.55 1.6 4.5.25.35q-1.7-2.1-3.75-3.9-4.55-4.05-10.8-6.9l-3.8-.15-4.5.2q-4.1.4-7.7 1.5l-1.05.45q-1.7.6-3.25 1.45-.05-2.95-2.65-3.45" transform="translate(-116.5 -105.35)"/><path fill-rule="evenodd" fill="#545035" d="m203.05 118.9-1.05-.05q-.9 0-4.85-1.85-3.95-1.85-2.5-10.15 2.9-1.65 5.5-1.5-1.7.15-1.65 2.6 6.45 2.5 4.65 7.7v3.2l-.1.05m34.6-7.3q3.15-3.8 5.45-2.2-3.15-.45-4.65 2.7l-.8-.5m-1.7 21.8.55-.65q1 3.1 5.5 3.4l-2.85.65q-2.2-.75-3.2-3.4m2.15-2.8q4.2-4.85 8.65-4.2l-1.75 1.15q-2.3-.3-6.9 3.05m-25.7-3.9h5.25q4.4 2.05 9.05 5.65l1.2 2.35-1.1-.6-1.3-.95q-5.9-4.3-13.1-6.45m-1.05.3q.5 5.6 4.5 7.4-4.7-.65-8.6-.2-.6-2.9.2-6.35l3.9-.85m23.7 7.75.4.15.5.25q.65.4.65.95l-.1.4-.3.4q-.1-1.65-1.15-2.15m-5.95 1.7-.1-.35q0-.7 1.1-1.2 1.15-.5 2.7-.5 3.4 2.05-.85 2.5l-2.85-.45m-107.65 25.3q-3.15-2.85-1.7-8.55.9-.95 1.05-1.9-5.65-4.25-3.85-10.05.3-.55 2.05-1.75-4.85-7.05 2.2-14.25 8.2-3.5 10.75-4.5 7.05-2.95 12.9-.8v.1l-2.85 4.5q-1.1 1.15-3.45-.9l-11.4 5.55-4.95 5.75 1.35 2.5 4.7-1.9 7.4-1.9 4 1.1.65.2q6.65 2.25 7.65 5.15-4.3-3.75-12.9-3.55l-6.2 1.9q2.15 4.75-3.5 7.95l-2.75 4.2 6-1.25 12.15 1q-7.4.25-13.75 2-.55 4.05-.25 5.8-1.55 4.3-5.3 3.6m32.95-23.8 2.35.55q2.3 4.15 2.5 8.9l-1.3 3.7q-.55-7.9-3.7-11.55l.15-1.6" transform="translate(-116.5 -105.35)"/><path fill-rule="evenodd" fill="#6f7225" d="m246.2 122.55.7.85.6.8-.3 1.05v1.1h-.4l-3.65-1.3h3.75v-.7l-4.45-5.7q2.05 1.8 3.75 3.9" transform="translate(-116.5 -105.35)"/><path fill-rule="evenodd" fill="url(#C)" d="m201.3 130.2-.8.3 1.3-1.95 5.5-3.3q3.1-1 6.7-1.85v-1.15l-5.5 1.15 5.5-2 1.6-3.5-6.4 1.6 4.55-3.25 1.1-1.8q4.3-1.75 8.5-2.65l4.5-.2 3.8.15q6.25 2.85 10.8 6.9l4.45 5.7v.7h-3.75l3.65 1.3h-.05q-4.6-1.15-10.1-1.45l-11.1.05q-5.75-.3-8.75.1l-3.3.45-4.1.35-1.6.6q-2.5.9-4.05 1.75-1.85 1-2.45 2m34.1-13.6.4-.25q-.75-1.15-2.2-2.3-1.9-1.45-4.6-1.45l-1.15.1q-1.95.2-3.45 1.35l-2.25 1.4.25 1.05.1 1.15-.25.85.95 1.55 1.2 1.15.4.3q1.35.9 3.05 1.15l1.15.05q2.7 0 4.6-1.5l.6-.45 1.5-1.3-1.3-2.1 1-.75" transform="translate(-116.5 -105.35)"/><path fill-rule="evenodd" fill="#ffffef" d="m236.5 132.75 1.6-2.15q4.6-3.35 6.9-3.05 1.45 3.25.05 6.55-1.1 1.6-3.05 2.05-4.5-.3-5.5-3.4m-25.2-6.4 1.1.35q7.2 2.15 13.1 6.45-.35 2.35-4.5 2.2l-5.15-.95q-4-1.8-4.5-7.4l-.05-.65" transform="translate(-116.5 -105.35)"/><path fill-rule="evenodd" fill="#a90101" d="m222.15 115.45 2.25-1.4q1.5-1.15 3.45-1.35l1.15-.1q2.7 0 4.6 1.45 1.45 1.15 2.2 2.3l-.4.25-5.6-.5 4.6 1.25 1.3 2.1-1.5 1.3-9.4.75-.4-.3-1.2-1.15 6.8-1-7.75-.55.25-.85-.1-1.15 4.4-.65-4.65-.4" transform="translate(-116.5 -105.35)"/><path fill-rule="evenodd" fill="#7e0101" d="m235.4 116.6-1 .75-4.6-1.25 5.6.5m-1.2 4.15-.6.45q-1.9 1.5-4.6 1.5l-1.15-.05q-1.7-.25-3.05-1.15l9.4-.75m-11-.7-.95-1.55 7.75.55-6.8 1m-.8-3.55-.25-1.05 4.65.4-4.4.65" transform="translate(-116.5 -105.35)"/><path fill-rule="evenodd" fill="#f6f2d9" d="m199.75 136.3 1.35-5.2q1.4-1.1 3.2-1.95l3.15-1.3q-.8 3.45-.2 6.35-4.2.4-7.5 2.1m1.85-13.15.95-1.2V119l.5-.1.1-.05 1.75-3.65.8-1q1.2-1.4 3-2.45 2.6.5 2.65 3.45-5.5 2.75-8.95 6.95l-.8 1" transform="translate(-116.5 -105.35)"/><path fill-rule="evenodd" fill="url(#D)" d="M200.5 130.5v-1.9l7.7-8.45q-3.4 2-6.2 4.95-1.5 1.6-2.15 2.95v-.6l.5-1.5.9-2q.1-.55.35-.75v-.05l.8-1q3.45-4.2 8.95-6.95 1.55-.85 3.25-1.45l1.05-.45q3.6-1.1 7.7-1.5-4.2.9-8.5 2.65l-1.1 1.8-4.55 3.25 6.4-1.6-1.6 3.5-5.5 2 5.5-1.15v1.15q-3.6.85-6.7 1.85l-5.5 3.3-1.3 1.95" transform="translate(-116.5 -105.35)"/><path fill-rule="evenodd" fill="#4d4f19" d="m200.5 128.6-.65-.55q.65-1.35 2.15-2.95 2.8-2.95 6.2-4.95l-7.7 8.45" transform="translate(-116.5 -105.35)"/><path fill-rule="evenodd" fill="url(#E)" d="M198.95 152.2q-1.55-1.55-3.45-2.45 5.15-2 6.7-2.2l6.65-7.25q-4.9-1.2-8.25-.65 1.35-1.3 5.65-3 7.15-2.7 15.05-1.25l4.15 1.15 1.7.5 1.25.05h1.3l.4.2.55.2q-1.6.3-1.1-.25l-2.2-.1q7.45 2.4 7.6 1.85.35-1.7 8.35-2.15 15.95-.35 21.25 7.95l5.5 2.95q2.15.9 4.75.75h.05v.05h-.05l-1.35.95-2.05.9h-.05q-2.9.4-14.85-1.6-19.7-6.2-21.4-9.1l-10.7 1.45q-14.5 7.35-25.45 11.05" transform="translate(-116.5 -105.35)"/><path fill-rule="evenodd" fill="#bca46d" d="m201.1 131.1.2-.9q.6-1 2.45-2 1.55-.85 4.05-1.75l-.35 1.4-3.15 1.3q-1.8.85-3.2 1.95m35.1 5.8.3-.4.8.55-.45.05-1.35.2.7-.4.65.2-.65-.2" transform="translate(-116.5 -105.35)"/><path fill-rule="evenodd" fill="#363323" d="M227.9 134.7q-.95 1.4-2.45 1.85l-4.15-1.15-.3-.05q4.15.15 4.5-2.2l1.3.95 1.1.6" transform="translate(-116.5 -105.35)"/><path fill-rule="evenodd" fill="url(#F)" d="M236.65 124.9q-1.65 4-1.5 8.6l.25.55.55 1.1-.5-.25-.4-.15-.2-.05-.25-.1-.2-.05-1.6-.15q-1.55 0-2.7.5-1.1.5-1.1 1.2l.1.35.6.65h-1.3l.55-3.05q-.1-5.5-3.4-9.1l11.1-.05" transform="translate(-116.5 -105.35)"/><path fill-rule="evenodd" fill="url(#G)" d="m230.65 137.5 2.15.3 1-.05 1.65-.45h.05l1.35-.2.4.15 6.05-.4q-8 .45-8.35 2.15-.15.55-7.6-1.85l2.2.1q-.5.55 1.1.25" transform="translate(-116.5 -105.35)"/><path fill-rule="evenodd" fill="#a9a881" d="m236.85 137.1.45-.05-.05.2-.4-.15" transform="translate(-116.5 -105.35)"/><path fill-rule="evenodd" fill="url(#H)" d="M269.65 143.55h-3.35l-3.4-2.4 6.75 2.4" transform="translate(-116.5 -105.35)"/><path fill-rule="evenodd" fill="url(#I)" d="m140.3 134.95 4.65 1.6 3.7 2.05q.35-1.25.75-1.6l2.45-2.55 2.9-.65h2.9q4.1-.1 6.4 5.65 2.3 5.7-.75 10.6-3.1 4.85-11.25 4.6H152l-4.75-6.6-4.55 1.7 6.1 3.75-.65 5.3q-2.35 3.55-4.85 4.05l-4.6-.75q-4.6-1-8.1.1-3.35 1.15-3.5 3.3-2.25-.45-3.3-1.3l-2.35-2.45q3.75.7 5.3-3.6-.3-1.75.25-5.8 6.35-1.75 13.75-2l-12.15-1-6 1.25 2.75-4.2q5.65-3.2 3.5-7.95l6.2-1.9q8.6-.2 12.9 3.55-1-2.9-7.65-5.15l-.65-.2-4-1.1-7.4 1.9-4.7 1.9-1.35-2.5 4.95-5.75 11.4-5.55q2.35 2.05 3.45.9l2.85-4.5q4.75 6-.85 11.65l-3.7 3.25m14.1 3-.15 1.6q3.15 3.65 3.7 11.55l1.3-3.7q-.2-4.75-2.5-8.9l-2.35-.55" transform="translate(-116.5 -105.35)"/><path stroke-width=".05" stroke-opacity=".302" stroke-linejoin="round" stroke-linecap="round" stroke="#000" fill="none" d="M190.75 49.55q6.55-2.05 11.7-5.55-2.2-.8-4.8-2.65-1.9 1.65-4.55 2.55m-10.15 5.65h7.8q9.4-1.55 14.95-3.1l2.35-.7q3.45-1.2 4.8-2.35-11.7 14.55-30.1 19.15 5.1 5.3 18.7 8.85h2.65q3.1-.7 6.55-2.65-24.2 20.45-53.75 12.5.65 3.95 4.65 7.1m.4.3 1.95 1.25q1.85 1.1 4.25 2.1l-6.35.05q-32.85-.8-46.8-20.4-1.55-2.15-2.85-4.5-1.65-3.05-2.95-6.45-1.25 7.4 1.45 15.8-3.55-3.1-6.35-6.4-4.7-5.6-7.3-11.9-6.9-2.3-11.15-7.15l-1.8-2.35-1.6-1.85Q80.9 45.3 79 44.4q-2.45-1.15-7.95-1.15 2.25-3.2 8.7-7.1-.5-.35-3.65.4 2.45-2.3 4.2-3.65 1.35-1.15 2.95-1.95l1.35-5.2.2-.9-.8.3v-1.9l-.65-.55v-.6l.5-1.5.9-2q.1-.55.35-.75v-.05l.95-1.2v-2.95l.5-.1-1.05-.05q-.9 0-4.85-1.85Q76.7 9.8 78.15 1.5q2.9-1.65 5.5-1.5l2 .4 1.5.7q2.25 2.4 2.2 7.55l-.15.2q1.2-1.4 3-2.45 3.1-1.95 7.85-3.05 6-.45 11.3.2 4.8.65 8.95 2.2l.85.5q3.15-3.8 5.45-2.2 3.7 4.75-.95 5.75l2.2 2.55 1.6 4.5.25.35.7.85.6.8-.3 1.05V21h-.3l-.15.05-.75 1.8.15 2.95 1.45 4.65q10.15.35 22.05 7.75h-3.35l4.55 2.35q2.1.9 4.95 1.15-.15.8-.95 1.45m0 .05h-.05l-1.35.95-2.05.9-.3.1-3.25 1.15-5.6.25-7.45-.5 9.6 3.65q33.3 2.6 42.6-21.5 4.3 8.2 0 16.4l2.6-.7m-2.6.7-9.1 2.1m-24.5 26.55q-1.35 3.25 0 8m-34.95-74.5 3.7 3.05m-3.7-3.05-.8-.5M130.3 21h.1m-.15 0q-4.6-1.15-10.1-1.45m-1.25 9.15.55-.65.55-.65 1.6-2.15q4.2-4.85 8.65-4.2l.05-.05h-.05m-4.3-7.7q2.05 1.8 3.75 3.9m-4.2 13.6 4.5-.35h1.1m-2.55-1.7q-1.1 1.6-3.05 2.05-4.5-.3-5.5-3.4m9.65-1.6q-.35 1.75-1.1 2.95m-5.9 2.7 2.85-.65M106.85 6.45l4.5-.2 3.8.15q6.25 2.85 10.8 6.9M89.2 8.85l-.8 1-1.75 3.65-.1.05m8.3-3.7Q96.4 9 98.1 8.4l1.05-.45q3.6-1.1 7.7-1.5M94.8 21l1.1.35m13.05 9.85 1.7.5 1.25.05m-2.85-12.15q-5.75-.3-8.75.1l-3.3.45-4.1.35 1.9.5.05.65q.5 5.6 4.5 7.4l5.15.95q4.15.15 4.5-2.2-5.9-4.3-13.1-6.45m-4.6-.25 1.6-.6m-7.8-2.7.8-1q3.45-4.2 8.95-6.95M91.3 21.1q-2.5.9-4.05 1.75-1.85 1-2.45 2m5.95 4q-4.2.4-7.5 2.1m21.55-.9-.3-.05m-13.75-1.15q3.9-.45 8.6.2M109 27.8l1.3.95m-1.35 2.45-4.15-1.15m13.75-.65.4.15.5.25m-3.15-.75 1.6.15.2.05.25.1.2.05m1.15 2.15.3-.4.1-.4q0-.55-.65-.95m-6.85 1.3-.1-.35q0-.7 1.1-1.2 1.15-.5 2.7-.5m-3.7 2.05.6.65.4.2.55.2 2.15.3 1-.05 1.65-.45h.05l.7-.4.65.2.45-.05 1.85-.25m-1.9.45-.4-.15-1.35.2m-5.8-.2h-1.3m-2.85-12.15 11.1-.05m-.55 17.35q2.55 1.8.9 2.4m-5.55 0h5.55m-.9-2.4-3.75-1.15q-4.75 1-11.25 3.7l-9.65 4.05q-4.7 1.85-9.1 7.55m52.45-5-.4-.15.2.1.2.05m-.4-.15-3.05-1.2-15.25-7.8"/></g><path fill-rule="evenodd" fill-opacity="0" fill="#f0f" d="M100 40H0V0h100v40" id="L"/><path fill-rule="evenodd" fill="url(#J)" d="M5.75 38.65H-5.7v-77.2H5.75v77.2" transform="translate(5.7 38.55)" id="M"/><path stroke-width=".05" stroke-opacity=".212" stroke-linejoin="round" stroke-linecap="round" stroke="#5a512e" fill="none" d="M31.5 14q-5.4 2.4-13.05 2.4T5.4 14Q0 11.6 0 8.2t5.4-5.8Q10.8 0 18.45 0T31.5 2.4q5.4 2.4 5.4 5.8T31.5 14m-2.95-4.9q-2.75.75-6.6.75-3.85 0-6.6-.75-2.75-.75-2.75-1.8t2.75-1.8q2.75-.75 6.6-.75l6.6.75q2.75.75 2.75 1.8t-2.75 1.8" id="w"/><path fill-rule="evenodd" fill="url(#K)" d="M108.75 65.4q2.65 6.8-3.7 7.8l-3.95 2.6-15.2-9.4q-33.2-9.35-26.6-6.2l-39.2 1.75-21.5-45.6-1.85-2.4.3.05q-10-4.75 3.65-7.7 7.25 5.9 14.7 6.9l-2 .9q3.4 2.8 11.5 6.2l1.5-.4 2.4.85q-2.2.75-1.45 1.05 4.5 3.8 11.3 6.2 2.4-.8 4.75.65-2.3.6-1.65.85 10.15 7.4 13.35 5.3 18.05 1.1 13.65 10.6 1.15 1.8 7.15 2.35 2.65-1.05 1.45-2l1.1.2q.9 2.55.25 3.1l-.6 2.6q4.45 2.85 13.1 4.8 1.9-.25 3.45-2.4.8 2.7.45 3.05.1 3.1-.7 3.55 5.4 4.2 10.85 4.75 2.3-1.25 2.25-2.4 1.75 1.35 1.25 2.4" transform="translate(7.2 -6.3)" id="N"/><path fill-rule="evenodd" fill-opacity=".671" fill="#3c2500" d="M87.95 44.35q1.55 3.3.2 6.5-1.3 3.25-4.75 4.45l-6.85-.2q-3.5-1.45-6.5-4.05-3.05-2.65-1.9-5.75 1.1-3.15 6.25-5.1 5.1-2 8.55-.55 3.5 1.45 5 4.7" transform="translate(-67.85 -39.05)" id="t"/><use xlink:href="#L" width="100" height="40" id="P"/><use xlink:href="#M" width="11.45" height="77.2" id="v"/><use xlink:href="#N" width="116.75" height="69.5" id="s"/></defs><path fill="none" d="M-1-1h163v230H-1z"/><use x="86.735" y="222.974" xlink:href="#O" width="381" transform="translate(-192.55 -294)" height="381"/><use x="60.062" y="154.404" xlink:href="#P" width="100" transform="translate(-63.9 -169.1) scale(1.4441)" height="40"/><use x="-146.494" y="-98.102" xlink:href="#Q" width="330.6" transform="translate(26.92 59.856) scale(.7189)" height="350.1"/></svg>