<svg width="194" height="209" xmlns="http://www.w3.org/2000/svg" xmlns:xlink="http://www.w3.org/1999/xlink"><defs><linearGradient y2="-.011" y1="-.011" x2=".164" x1="-1.474" spreadMethod="pad" id="e"><stop stop-color="#c96625" offset=".02"/><stop stop-color="#a63404" offset=".808"/></linearGradient><linearGradient y2=".348" y1=".348" x2=".48" x1=".097" spreadMethod="pad" id="f"><stop stop-color="#1f70a5" offset=".039"/><stop stop-color="#01597e" offset=".596"/></linearGradient><linearGradient y2="-.322" y1="-.322" x2=".507" x1="-.484" spreadMethod="pad" id="g"><stop stop-color="#b34700" offset=".008"/><stop stop-color="#f17901" offset=".494"/></linearGradient><linearGradient y2=".5" y1=".5" x2=".977" x1="-.058" spreadMethod="pad" id="j"><stop stop-color="#c96625" offset=".02"/><stop stop-color="#a63404" offset=".808"/></linearGradient><linearGradient y2=".263" y1=".263" x2="1.479" x1="-.907" spreadMethod="pad" id="k"><stop stop-color="#b34700" offset=".008"/><stop stop-color="#f17901" offset=".333"/></linearGradient><linearGradient y2=".572" y1=".572" x2=".894" x1=".003" spreadMethod="pad" id="l"><stop stop-color="#c96625" offset=".02"/><stop stop-color="#a63404" offset=".808"/></linearGradient><linearGradient y2=".581" y1=".581" x2=".956" x1="-.504" spreadMethod="pad" id="o"><stop stop-color="#c96625" offset=".02"/><stop stop-color="#a63404" offset=".808"/></linearGradient><linearGradient y2="1" y1="0" x2=".498" x1=".498" spreadMethod="pad" id="z"><stop stop-opacity="0" stop-color="#d9d9a2" offset="0"/><stop stop-opacity=".145" stop-color="#d9d9a2" offset=".349"/><stop stop-opacity=".176" stop-color="#d9d9a2" offset=".663"/><stop stop-opacity="0" stop-color="#d9d9a2" offset="1"/></linearGradient><linearGradient y2=".254" y1=".691" x2=".842" x1=".062" spreadMethod="pad" id="B"><stop stop-opacity=".275" stop-color="#7c6137" offset="0"/><stop stop-opacity=".443" stop-color="#4d3a22" offset=".475"/></linearGradient><linearGradient y2=".162" y1=".838" x2=".295" x1=".705" spreadMethod="pad" id="D"><stop offset="0"/><stop stop-opacity="0" stop-color="#f0a675" offset=".863"/></linearGradient><linearGradient y2=".536" y1=".536" x2="1.131" x1=".131" spreadMethod="pad" id="E"><stop stop-color="#b34700" offset=".008"/><stop stop-color="#f17901" offset=".494"/></linearGradient><linearGradient y2="-3.185" y1="-3.185" x2="11.132" x1="-15.315" spreadMethod="pad" id="G"><stop stop-color="#c96625" offset=".02"/><stop stop-color="#a63404" offset=".808"/></linearGradient><linearGradient y2=".335" y1=".335" x2="1.976" x1="-.874" spreadMethod="pad" id="H"><stop stop-color="#b34700" offset=".008"/><stop stop-color="#f17901" offset=".494"/></linearGradient><linearGradient y2=".399" y1=".399" x2=".956" x1="-.098" spreadMethod="pad" id="I"><stop stop-color="#c96625" offset=".02"/><stop stop-color="#a63404" offset=".808"/></linearGradient><linearGradient y2=".499" y1=".499" x2="1" x1="-.001" spreadMethod="pad" id="J"><stop stop-color="#b34700" offset=".008"/><stop stop-color="#f17901" offset=".494"/></linearGradient><linearGradient y2=".942" y1=".942" x2="1.283" x1=".143" spreadMethod="pad" id="K"><stop stop-color="#c96625" offset=".02"/><stop stop-color="#a63404" offset=".706"/></linearGradient><linearGradient y2=".427" y1=".427" x2=".755" x1="-.246" spreadMethod="pad" id="L"><stop stop-color="#b34700" offset=".008"/><stop stop-color="#f17901" offset=".494"/></linearGradient><linearGradient y2="1.098" y1="1.098" x2="1.038" x1="-3.133" spreadMethod="pad" id="N"><stop stop-color="#c96625" offset=".02"/><stop stop-color="#802504" offset=".514"/></linearGradient><g id="O" stroke-opacity="0" stroke-linejoin="round" stroke-linecap="round" stroke="#f0f" fill="none"><path d="M187.95-293.5v380h-380v-380h380" transform="translate(192.55 294)"/><path d="m187.95-293.5-190 190 190 190m-380-380 190 190L-192 86.5M92.95-38.4H-97" transform="translate(192.55 294)"/><path d="M98.65 8.1h-204.1v-235.2h204.1V8.1z" transform="translate(192.55 294)"/></g><g transform="translate(348.8 184.8)" id="Q"><use xlink:href="#b" width="255.6" transform="translate(.85 48.55)" height="271.4"/><use xlink:href="#c" width="275.6" transform="scale(-2.226) rotate(-59.962 -177.265 174.455)" height="298.35"/><use xlink:href="#d" width="174.75" transform="translate(16.95 40.35)" height="208.95"/></g><g id="b"><path fill-rule="evenodd" fill="#cbbc81" d="m27.65 305.35 51.6-32.7-2.7-4.7L26.9 299.4l-.1.05q.2-2.15 1.35-3.15l.95-.6.05-.05h.05l2.4-1q4.7-2.05 9.2-4.45l8.55-5.15q5.75-3.85 11.1-8.35l1.45-1.3.15-.15.25-.15.7-.65.4-.4.1-.1.2-.15.1-.1.15-.1v-.05l.3-.2q.6-.4 1.35-.5l1.35-.55.6-.25 7.75-3.75.85-.45 1.1-.6q3.75-2.3 7.45-4.55l9.75-7.25 1.35-1.15 1.45-1.25.15-.1v-.05l.1-.05.1-.15.75-.65.3-.3.05-.05.15-.1.15-.15.1-.1q.2-.25.5-.4.7-.45 1.55-.5l1.05-.4 2.1-.95-.3-1.7q-1-4.65-2.85-10.45L84.2 221.5l2.6 2.65q-.7 2.45-3.8 5.05-4.65 1.65-11.4.3-2-.9-2.1-2.2l-3.1.25q-5.7-3.8-.2-7.15 2.1-.15 4.9-1.9l-4.1-1.3q-2.8-1-5.05-2.55-6.95-1.55-12.7-7.3l1.45-3.85q2.5-9.1 7.2-14.65 4.7-5.6 10.6-8.05.7-5.95-.85-7.15l.55-3.3-5.8-1.7-.9.2q-6.35-6.05-8.7-14.6l-7.35 2.05.05-.1-.55-.2.7 2.1q-1.3 2.1-5.05 2.3-3.25-2.9-3.3-8.6l-3.85-7.3-.4 2.7q-5.4-.65-12.4 1.15-6.05-1.9-10.6-8.9l-.15-8.5q-6.05 2.2-7.3-3.35.6-5.8 4-13.4l1.3-.7q4.35-2.35 7.1-1.2 2.4 1.35 4.15 3.25l5.9-3.05v-.05q1.1-1.55 1.7-1.8.75-.35 2.35-.85h.95q7.95-4.65 14.8-5.45l-2.1-4.25-.15-.95q-3.7-24.9-16.1-43.55l.6-.6 4.7-3.7 1.8-1 5.95 2.45q17.7 5.8 30.75 18.5l1.5 5.25-.05 1.55 20.4-3 16.15 1.4 1.2 1.4.75-1.35.05-.05.6-1.1q4.95-3.55 9.95-7.05l5.3-.9.65-.2.5.05H127.95l5.05-.05q9.45-.5 16.95-4l.05.05.25-.05 7.3 6.8 2.9.5 3 2.35.25 5.15q-1.65 11.1-5.45 21.15-3.7 9.65-9.4 18.3l-4.15.25 2.95 3.35q9.1 10.3 14.2 21.6 11.05-5.45 22.4-4.65l.05-1.1h.1q-5.15-7.9-4.9-15.2.25-7.3 9.3-17.85l4.45-.85q16.6-.55 21.05 3.35-6.55 9.6-7.7 19.95 9.65-9.85 22.75-12.75 7.2 5.6 20.6 14-2.45 4.45-7.25 8.15 8.3 3.65 12 18.35-9.65-7.15-14.4-6.5 5 2.6 5 2.7.35 4.45 1.95 11.15-4.35 2.65-10.65 3.65-6.3.95-17.7-4.15l-3.9 4.25-4.05 1.5q-.25 2.95-1.05 6.1l-.05.05-.85 2.8q-2.8 9-9.4 15.95l.2.1-40.55 23.95.15.25 19.5-11.5 2.55 4.45 21.5-12.65.65 1.1 27.15-16.1.15.1-.15-.1h.05l.1.1 2.15 2.95.4.6.25.5.95 1.85.55 1.3.55 1.65.4 1.6v.05l.05.4v2.75q-.3 1.1-1.05 1.6l-.95.3.05.15-1.9.7-.1.05-.2.1-1.8.7-4.3 1.95-2.45 1.25q-3.45 1.85-6.65 4.05l-1.3.9-5.3 4.15-.05.2-.45 1.3-.9.9-1.05.3v.2l-1.7.65-.6.2-.3.15-1.3.5-7.6 3.55-1.25.7-1.75.9-1.65 1q.2 1.55-.15 3.55h-.05q-3.5 5.3-4.3 5.3l-4.1-.1.1 1.1-.55 6.6-4.85 3.5-5.55-.95-.6 5.35q-1.6 3.15-10.4 10.1-1.15 5.95-4.05 9.55L154 268.8q15.6 14.7 10 19.45l-4.35-1.3q1.9 4.05.55 6.4-5.65 3.9-13.1 1.7l-.25 4.05q-8.1 3.6-16.95-2l-7.1-9.95q-2.05-9.55-4.8-18.85l-.3-.05-3.8 3.1-.35.3-.55.5-.65.55-.5.4-.6.3h-.1l-.2.1h-.1l-.95.45-.85.35-.5.25-.4.15-8.65 4.35-2.8 1.6q-4.65 2.75-9 5.85-4.7 3.35-9.05 7.1l-.75.65-.95.85-.2.15-.15.1-.65.3-.2.05-.05.05v.05l-2.5 1.1-.35.2q-5.95 2.7-11.45 5.9l-1.2.7-7.85 5.15L44.4 315l-1.1.95-1.45 1.35-.6.4q-.7.45-1.55.5l-1.75-.25-1.05-.45-1.15-.7q-3.35-2.25-5.95-6.75-1.3-2.2-2-4.25l-.15-.35v-.1.1-.1M184.25 138h.1v-.15l-.1.15m5-.35h-.05.2-.15m-4.75 0-.1.3q.05-.1.2-.1l.05-.4-.15.2m-157.6-26.2v.05l.3.1-.3-.15m122 39.9q1-.95 2.05-1.8-1.2.1-2.05 1.8m5.75-5.3.45.5.3-.25-.75-.25M15.4 128l-.3.25.1.15.2-.4M190 224.75l-.05.05h-.05.1v-.05" transform="translate(-.85 -48.55)"/><path stroke-width="3.5" stroke-linejoin="round" stroke-linecap="round" stroke="#724d16" fill="none" d="M183.4 89.45q-11.35-.8-22.4 4.65-5.1-11.3-14.2-21.6l-2.95-3.35 4.15-.25q5.7-8.65 9.4-18.3 3.8-10.05 5.45-21.15l-.25-5.15-3-2.35-2.9-.5-7.3-6.8-.25.05-.05-.05q-7.5 3.5-16.95 4l-5.05.05H126.45l-.5-.05-.65.2-5.3.9q-5 3.5-9.95 7.05l-.6 1.1-.05.05-.75 1.35-1.2-1.4-16.15-1.4-20.4 3 .05-1.55-1.5-5.25Q56.4 10 38.7 4.2l-5.95-2.45-1.8 1-4.7 3.7-.6.6q12.4 18.65 16.1 43.55l.15.95L44 55.8q-6.85.8-14.8 5.45h-.95q-1.6.5-2.35.85-.6.25-1.7 1.8v.05L18.3 67q-1.75-1.9-4.15-3.25-2.75-1.15-7.1 1.2l-1.3.7q-3.4 7.6-4 13.4Q3 84.6 9.05 82.4l.15 8.5q4.55 7 10.6 8.9 7-1.8 12.4-1.15l.4-2.7 3.85 7.3q.05 5.7 3.3 8.6 3.75-.2 5.05-2.3l-.7-2.1.55.2-.05.1 7.35-2.05q2.35 8.55 8.7 14.6l.9-.2 5.8 1.7-.55 3.3q1.55 1.2.85 7.15-5.9 2.45-10.6 8.05-4.7 5.55-7.2 14.65l-1.45 3.85q5.75 5.75 12.7 7.3 2.25 1.55 5.05 2.55l4.1 1.3q-2.8 1.75-4.9 1.9-5.5 3.35.2 7.15l3.1-.25q.1 1.3 2.1 2.2 6.75 1.35 11.4-.3 3.1-2.6 3.8-5.05l-2.6-2.65 16.95 15.45q1.85 5.8 2.85 10.45l.3 1.7-2.1.95-1.05.4q-.85.05-1.55.5-.3.15-.5.4l-.1.1-.15.15-.15.1-.05.05-.3.3-.75.65-.1.15-.1.05v.05l-.15.1-1.45 1.25-1.35 1.15-9.75 7.25q-3.7 2.25-7.45 4.55l-1.1.6-.85.45-7.75 3.75-.6.25-1.35.55q-.75.1-1.35.5l-.3.2v.05l-.15.1-.1.1-.2.15-.1.1-.4.4-.7.65-.25.15-.15.15-1.45 1.3q-5.35 4.5-11.1 8.35l-8.55 5.15q-4.5 2.4-9.2 4.45l-2.4 1h-.05l-.05.05-.95.6q-1.15 1-1.35 3.15l.1-.05L75.7 219.4l2.7 4.7-51.6 32.7m.15.45q.7 2.05 2 4.25 2.6 4.5 5.95 6.75l1.15.7 1.05.45 1.75.25q.85-.05 1.55-.5l.6-.4 1.45-1.35 1.1-.95 7.95-6.15 7.85-5.15 1.2-.7q5.5-3.2 11.45-5.9l.35-.2 2.5-1.1v-.05l.05-.05.2-.05.65-.3.15-.1.2-.15.95-.85.75-.65q4.35-3.75 9.05-7.1 4.35-3.1 9-5.85l2.8-1.6 8.65-4.35.4-.15.5-.25.85-.35.95-.45h.1l.2-.1h.1l.6-.3.5-.4.65-.55.55-.5.35-.3 3.8-3.1.3.05q2.75 9.3 4.8 18.85l7.1 9.95q8.85 5.6 16.95 2l.25-4.05q7.45 2.2 13.1-1.7 1.35-2.35-.55-6.4l4.35 1.3q5.6-4.75-10-19.45l3.15-3.45q2.9-3.6 4.05-9.55 8.8-6.95 10.4-10.1l.6-5.35 5.55.95 4.85-3.5.55-6.6-.1-1.1 4.1.1q.8 0 4.3-5.3h.05q.35-2 .15-3.55l1.65-1 1.75-.9 1.25-.7 7.6-3.55 1.3-.5.3-.15.6-.2 1.7-.65v-.2l1.05-.3.9-.9.45-1.3.05-.2 5.3-4.15 1.3-.9q3.2-2.2 6.65-4.05l2.45-1.25 4.3-1.95 1.8-.7.2-.1.1-.05 1.9-.7-.05-.15.95-.3q.75-.5 1.05-1.6v-2.75l-.05-.4v-.05l-.4-1.6-.55-1.65-.55-1.3-.95-1.85-.25-.5-.4-.6-2.15-2.95-.15-.1-27.15 16.1-.65-1.1-21.5 12.65-2.55-4.45-19.5 11.5-.15-.25 40.55-23.95-.2-.1q6.6-6.95 9.4-15.95l.85-2.8.05-.05q.8-3.15 1.05-6.1l4.05-1.5 3.9-4.25q11.4 5.1 17.7 4.15 6.3-1 10.65-3.65-1.6-6.7-1.95-11.15 0-.1-5-2.7 4.75-.65 14.4 6.5-3.7-14.7-12-18.35 4.8-3.7 7.25-8.15-13.4-8.4-20.6-14-13.1 2.9-22.75 12.75 1.15-10.35 7.7-19.95-4.45-3.9-21.05-3.35l-4.45.85q-9.05 10.55-9.3 17.85-.25 7.3 4.9 15.2h-.1l-.05 1.1m46.5 43.15h.05l.1.1m-30.85 11.25q13.35-4.8 24.6-15.05 3.9.45 6.1 3.7M26.8 256.9v-.1"/><path stroke-width="3.5" stroke-linejoin="round" stroke-linecap="round" stroke="#724d16" fill="none" d="M26.8 256.8v.1l.15.35m-.15-.45q-1.1-3.15-.75-5.95"/><path fill-rule="evenodd" fill="#f17901" d="M193.25 103q16.6-.55 21.05 3.35-6.55 9.6-7.7 19.95 9.65-9.85 22.75-12.75 7.2 5.6 20.6 14-2.45 4.45-7.25 8.15 8.3 3.65 12 18.35-9.65-7.15-14.4-6.5 5 2.6 5 2.7.35 4.45 1.95 11.15-4.35 2.65-10.65 3.65-6.3.95-17.7-4.15l3.9-4.2.55-6.55-.05-.7v-.2l-.7-3.65q-2.4-8.4-12.1-11.8l-1.2-.45-.2-.1q-4.7-1.5-12.3 1.15-21.1-17-3.55-31.4m-8.85 33.9-.05.75h.15l-.1.3-.05.05v-.15l-.1.15.05-1.1h.1m2.5 1.5.6.15-.65-.05.05-.1m2.35-.75.3-.2v.1l-.15.1h-.15m-4.9 0v.2-.2m0 .4V138l.05-.05v.05l-.05.05m0-.05h.05-.05" transform="translate(-.85 -48.55)"/><path fill-rule="evenodd" fill="#42c8ff" d="m209.1 133.25.2.1 1.2.45q9.7 3.4 12.1 11.8l.7 3.65v.2q-2.65 8.35-12.65 10.8-.9-4.95-3.8-9.45-3.55-5.5-9.15-8.65l-1.65-.9q-7-4.3 13.05-8m12.5 12.15 1 .2-1-.2m-32.05-7.95.25-.1.4-.4-.3.35-.1.05.1-.05-.35.25v-.1m.25-.1-.25.2.25-.2" transform="translate(-.85 -48.55)"/><path fill-rule="evenodd" fill="#876310" d="m184.6 137.85.2.25-.4-.1v-.05q.05-.1.2-.1" transform="translate(-.85 -48.55)"/><path fill-rule="evenodd" fill="#c0590e" d="m186.6 138.35.3.05-.05.1-.25-.15M46.65 132.6q-.8-3-1.8-5.3l1.8 4.35v.95m-30.85-3.2-.4-.5.4.5m126.25 136.5q9.8-3.1 16.3-7.95l2.85-2.15q-1.15 5.95-4.05 9.55L154 268.8l-.3-.35-1.3.5-1.3.45q-2.9 1.4-6.25 1.25l-2.35-.2-2.15-.65-3.15-1-2.2-1 7.05-1.9M81 218.55l.1.1-.2.05.1-.15" transform="translate(-.85 -48.55)"/><path fill-rule="evenodd" fill="#684d0f" d="M42.2 114.25q6.6 7.4 9.45 16.75l-1.6 24-4.4 1.25-.2.05.05-.1.15.05-.15-.05q2.95-5.75 2.25-15.6.1-3.7-1.1-8v-.95l-1.8-4.35-1.7-3.05q-2.6-4.35-6-7.3l4.95-2.6q.75.65.1-.1" transform="translate(-.85 -48.55)"/><path fill-rule="evenodd" fill="#906a14" d="M25.05 112.5v-.05q1.1-1.55 1.7-1.8.75-.35 2.35-.85h.95q7.15.4 11.9 4.4l.15.15-4.95 2.6-.15-.15q-4.3-3.65-9.8-5.2l-.3-.15v.05l-1.85 1" transform="translate(-.85 -48.55)"/><path fill-rule="evenodd" fill="#59420d" d="m45.5 156.2-.55-.2-.05-.15.6-5.65q2-4.3 2.25-9.6.7 9.85-2.25 15.6" transform="translate(-.85 -48.55)"/><path fill-rule="evenodd" fill="#a03900" d="M80.95 169.9q-4.45-4.3-4.9-9.2l-1.6-2.5 6.55 1.05V138l37.5 5.85-3.2 2.8-12.25 10.9-2.3 2.05-7.35 6.5-12.45 3.8m20.65-12.3 1.45-.05-1.45.05" transform="translate(-.85 -48.55)"/><path fill-rule="evenodd" fill="#bc7905" d="m74.45 158.2 1.6 2.5q.45 4.9 4.9 9.2-.7 2.3-.55 5 .1 2.7 1.95 6.2 5.5 9.35 12.2 11.7l2.25.7.1.05q13.35 4.05 17.95 3.55-.5.25 1.4 1.3l1.9.9h-.1q-4.45 1.45-18.05-.95l-3.3-1.7-7.1-4.25q-7.8-6.5-10-10.5l-13.65-25.05 8.5 1.35m41.8 40.2q.75.45 1.8.9-1.05-.45-1.8-.9m-11.8 2.15.1.05-2.1-1 2 .95" transform="translate(-.85 -48.55)"/><path fill-rule="evenodd" fill="#42c8ff" d="m100.75 159.6 2.3-2.05 12.25-10.9 3.2-2.8.5-.4 12.3 1.7 9.95 6.25-11 4.3-1.05 1.1q-15.1 6.8-7.6 6.7-14.15 6.4-20.85-3.9m-35.2-2.8.4.05-.35.1-.05-.15m77 40.5q2.45 2.7 5.6 4.65l-3.85 2-13.9-1.6 12.15-5.05m-17.6 11.1-4.2 2.05-.1.1-4.2 1.85q-13.5 3.9-14.15-.25 10.6-2 13.65-6.5l.05-.05 2.35 1.2q-.25 2.15 6.6 1.6" transform="translate(-.85 -48.55)"/><path fill-rule="evenodd" fill="#f5b833" d="M100 198.35q13.6 2.4 18.05.95 3.15 1.35 9.15 2.5l3.2.55 13.9 1.6 4.2-.1 2.8-.25q4.6 2 10.45 2.5l2.35.3q-1.15 2.15-3 3.6-2.95 2.35-7.7 3-4.25.55-9.9-.25l-18.55-4.4-6.6-1.55-2.35-1.2h.1q-2.25-1.05-.3-.1-1.95-.95.3.1l-.3-.1-2.8-1.1-8.55-3.85-2-.95-1.95-1-.85-.3.35.05.5.25-.5-.25m16.25.05q-1.9-1.05-1.4-1.3.45.65 1.4 1.3" transform="translate(-.85 -48.55)"/><path fill-rule="evenodd" fill="#fce7b8" d="M148.15 201.95q1.45.9 3.15 1.65l-2.8.25-4.2.1 3.85-2m-32.05 3.65h-.1l-.2-.1.3.1" transform="translate(-.85 -48.55)"/><path fill-rule="evenodd" fill="#9a5121" d="M61.95 214.65q6.4 1.35 13.85-.85l5.2 4.75-.1.15-1.15.05v.15l1.15-.2.2-.05 3.1 2.85 2.6 2.65q-.7 2.45-3.8 5.05-4.65 1.65-11.4.3-2-.9-2.1-2.2l-3.1.25q-5.7-3.8-.2-7.15 2.1-.15 4.9-1.9l-4.1-1.3q-2.8-1-5.05-2.55m17.8 4.1-5.55-.2-1.45-.1-1.45-.15-.2.2.2-.2 1.45.15 1.45.1 5.55.2" transform="translate(-.85 -48.55)"/><path fill-rule="evenodd" fill="#d26a02" d="M164 288.25q-2.7-8.2-9.55-12.2 3.6 3.75 3.8 7.75-6.2-4.3-14-3.85 3.95 4.65 1.9 11.95l-11.95-11.2 11.85-9.7-1.2-.35q3.35.15 6.25-1.25l1.3-.45 1.3-.5.3.35q15.6 14.7 10 19.45m-84.25-69.5 1.15-.05-1.15.2v-.15" transform="translate(-.85 -48.55)"/><path fill-rule="evenodd" fill="url(#e)" d="M193.25 103q-17.55 14.4 3.55 31.4-3.2 1.05-6.9 2.9l.3-.35-.4.4-.25.1-.3.2h-.05l-1.7.9-.6-.15-.3-.05-1.8-.25-.2-.25.05-.4-.15.2h-.15l.05-.75q-5.15-7.9-4.9-15.2.25-7.3 9.3-17.85l4.45-.85m16.6 69.8-.85 2.8q-4.5 14.45-18.65 23.55-12.45 8.05-25.15 7.3l-1.1-.05-2.35-.3q-5.85-.5-10.45-2.5-1.7-.75-3.15-1.65-3.15-1.95-5.6-4.65l-2.5-3.35q-2.75-4.25-3.75-9-1.05-5-.15-10.55 45.95 48.2 73.7-1.6" transform="translate(-.85 -48.55)"/><path fill-rule="evenodd" fill="url(#f)" d="M196.8 134.4q7.6-2.65 12.3-1.15-20.05 3.7-13.05 8-3.85-1.85-8.55-2.7l1.7-.9h.2l.15-.1.35-.25q3.7-1.85 6.9-2.9m26.5 15.05.05.7-.55 6.55-3.9 4.2-3.9 4.25-4.05 1.5q.2-3.15-.25-6.1l-.05-.3q10-2.45 12.65-10.8M80.95 169.9l12.45-3.8 7.35-6.5q6.7 10.3 20.85 3.9-7.5.1 7.6-6.7-18.65 19.3-46.85 24.3-1.85-3.5-1.95-6.2-.15-2.7.55-5M65.6 156.95l.35-.1L79.6 181.9l-5.95-.6-3.4-7.05-4.65-17.3m14.9 54.45-4.35-3.5-.65-.55q5.8 4.45 14.5 5.35 3.75.35 8.25 0l2.85-.35 1.2-.2q.65 4.15 14.15.25-8.65 3.85-12.6 4.6l-4.35.55-6.15-.35-2-.85-10.85-4.95" transform="translate(-.85 -48.55)"/><path fill-rule="evenodd" fill="url(#g)" d="M210.95 166.65q-.25 2.95-1.05 6.1l-.05.05q-27.75 49.8-73.7 1.6.45-2.8 1.35-5.75 2.2-6.85 6.85-12.55 4.6-5.6 11.6-10.15 13.9-9 28.3-7.95h.1v.05l.05-.05.4.1 1.8.25.25.15.65.05q4.7.85 8.55 2.7l1.65.9q5.6 3.15 9.15 8.65 2.9 4.5 3.8 9.45l.05.3q.45 2.95.25 6.1" transform="translate(-.85 -48.55)"/><path fill-rule="evenodd" fill="url(#h)" d="M144.35 156.1q-4.65 5.7-6.85 12.55-.9 2.95-1.35 5.75-.9 5.55.15 10.55l-1.9 1.3q-2.9 1.85-6.15 3.4-12.45 7.75-31.35 3.5l-2.35-.35q-6.7-2.35-12.2-11.7 28.2-5 46.85-24.3l1.05-1.1 11-4.3 3.1 4.7m-78.3-43.05 1 1-.05 36.2L50.05 155l1.6-24q-2.85-9.35-9.45-16.75 10.1-5.3 18.55-5.65l7.45-2.3-2.15 6.75q-2.65-2.65-5.3-4.45 2.65 1.8 5.3 4.45m-.5 43.75.05.15 4.65 17.3 3.4 7.05 5.95.6q2.2 4 10 10.5l7.1 4.25 3.3 1.7-.35-.05.85.3 1.95 1 2.1 1q.2 7.4-6.65 10.35-3.2 1.3-7.9 1.75-8.7-.9-14.5-5.35l.65.55 4.35 3.5-4.7 2.4 4.7-2.4 10.85 4.95 2 .85 6.15.35 4.35-.55q3.95-.75 12.6-4.6l4.2-1.85q-.5.6-5.55 2.55 18.2 10.75 12.65 34.1-5.75 24.05 14.3 18.7l-7.05 1.9-10 1.75-7-1.25-7.45-1.35q-5.3-11.05-6.55-19.55-1-4.65-2.85-10.45l-2.2-6.4q-2.65-7.3-5.6-13.35 2.95 6.05 5.6 13.35l2.2 6.4-6.3-5.7-1.3-1.2-2.8-2.55-1.45-1.3-5.1-4.7-3.1-2.85-.1-.1-5.2-4.75q-7.45 2.2-13.85.85-6.95-1.55-12.7-7.3l1.45-3.85q2.5-9.1 7.2-14.65 4.7-5.6 10.6-8.05.7-5.95-.85-7.15l.6-3.65-4.55-13.5 1.85.3M68 184.4q-3.15 9.8-.05 15.05t8.2 8.45q-5.1-3.2-8.2-8.45-3.1-5.25.05-15.05m67.6-10h.55-.55" transform="translate(-.85 -48.55)"/><path fill-rule="evenodd" fill="url(#i)" d="M60.75 108.6q-8.45.35-18.55 5.65.65.75-.1.1l-.15-.15q-4.75-4-11.9-4.4 11.75-6.9 21.05-5.35 4.85.85 9.65 4.15" transform="translate(-.85 -48.55)"/><path fill-rule="evenodd" fill="url(#j)" d="m44.95 156 .7 2.1q-1.3 2.1-5.05 2.3-3.25-2.9-3.3-8.6l-2.95-5.6 2.1-3.5q.4-.15.3-.6l-.5-.5-1.8-1.9-.35-.3q-4.75-2.75-10.8-1.95-1.9-5.05-7.5-8.05l-.6-1 .2-.4-.3.25-.6-1.05 1.15-1.75-2.75 3.95-.15.2.15-.2-.15.2-2.45 1.2-.4-.1v.25q-6.05 2.2-7.3-3.35.6-5.8 4-13.4l1.3-.7q4.8-1.55 5.8.7.65 9.2-4.1 16l3.25-1.25q4.25-4.65 5.75-10.45l13.1 11.75 1.05-1.3L39 120.8q-8.5-7-16.5-7.1l2.55-1.2 1.85-1 .3.1q5.5 1.55 9.8 5.2l.15.15q3.4 2.95 6 7.3l1.7 3.05q1 2.3 1.8 5.3.8 4.3 1.1 8-.3-3.7-1.1-8 1.2 4.3 1.1 8-.25 5.3-2.25 9.6l-.6 5.65.05.15m-10.4-17.3-.2.85-.25-.15.25.15.2-.85m-.2 7.5q2.2-2 2.1-3.5.1 1.5-2.1 3.5m2.95 5.6q-.05-2.9.7-6.5-.35-2.05-1.25-3.2-.3-.8-2.3-2.4l-.1-.15.1.15q2 1.6 2.3 2.4.9 1.15 1.25 3.2-.75 3.6-.7 6.5" transform="translate(-.85 -48.55)"/><path fill-rule="evenodd" fill="url(#k)" d="M7.9 113.5q4.35-2.35 7.1-1.2 2.4 1.35 4.15 3.25l3.35-1.85q8 .1 16.5 7.1l-6.25 8.15-1.05 1.3-13.1-11.75q-1.5 5.8-5.75 10.45L9.6 130.2q4.75-6.8 4.1-16-1-2.25-5.8-.7m24.85 15.45q-5.05-7.1-13-12.65l-.6-.75.6.75q7.95 5.55 13 12.65" transform="translate(-.85 -48.55)"/><path fill-rule="evenodd" fill="url(#l)" d="m34.35 146.2-1.3 1q-5.4-.65-12.4 1.15-6.05-1.9-10.6-8.9l-.15-8.5.4-.15-.4.15v-.25l.4.1 2.45-1.2.15-.2 2.75-3.95-1.15 1.75.6 1.05.1.15.6 1-.4-.5.4.5q5.6 3 7.5 8.05 6.05-.8 10.8 1.95l.35.3 1.8 1.9.5.5q.1.45-.3.6l-2.1 3.5m-15.3-5.35 4.25-3.4-4.25 3.4" transform="translate(-.85 -48.55)"/><path fill-rule="evenodd" fill="url(#m)" d="m96.9 193.55-.1-.05-2.25-.7 2.35.35v.4m28.05 14.8v.05q-6.85.55-6.6-1.6l6.6 1.55M116 205.6l-.05.05-.15-.15.2.1" transform="translate(-.85 -48.55)"/><path fill-rule="evenodd" fill="url(#n)" d="M165.2 206.45q3.15 2.1 5.45 4.7 2.45 2.75 3.95 6.05l-1.25 11.85-1.75 16.65q-1.6 3.15-10.4 10.1l-2.85 2.15q-6.5 4.85-16.3 7.95-20.05 5.35-14.3-18.7 5.55-23.35-12.65-34.1 5.05-1.95 5.55-2.55l.1-.1 4.2-2.05v-.05l18.55 4.4q5.65.8 9.9.25 4.75-.65 7.7-3 1.85-1.45 3-3.6l1.1.05m-50.35-9.35q-4.6.5-17.95-3.55v-.4q18.9 4.25 31.35-3.5 3.25-1.55 6.15-3.4l1.9-1.3q1 4.75 3.75 9l2.5 3.35-12.15 5.05-3.2-.55q-6-1.15-9.15-2.5h.1l-1.9-.9q-.95-.65-1.4-1.3m50.5 27.75 6.15-2.5 1.85 6.7-1.85-6.7-6.15 2.5M115.8 205.5l.15.15q-3.05 4.5-13.65 6.5l-1.2.2-2.85.35q-4.5.35-8.25 0 4.7-.45 7.9-1.75 6.85-2.95 6.65-10.35l-.1-.05 8.55 3.85 2.8 1.1" transform="translate(-.85 -48.55)"/><path fill-rule="evenodd" fill="url(#o)" d="m118 268.3 7 1.25 10-1.75 2.2 1 3.15 1 2.15.65 2.35.2 1.2.35-11.85 9.7 11.95 11.2q2.05-7.3-1.9-11.95 7.8-.45 14 3.85-.2-4-3.8-7.75 6.85 4 9.55 12.2l-4.35-1.3q1.9 4.05.55 6.4-5.65 3.9-13.1 1.7l-.25 4.05q-8.1 3.6-16.95-2l-7.1-9.95q-2.05-9.55-4.8-18.85" transform="translate(-.85 -48.55)"/><path stroke-width=".05" stroke-opacity=".302" stroke-linejoin="round" stroke-linecap="round" stroke="#000" fill="none" d="M218.05 112.35q11.4 5.1 17.7 4.15 6.3-1 10.65-3.65-1.6-6.7-1.95-11.15 0-.1-5-2.7 4.75-.65 14.4 6.5-3.7-14.7-12-18.35 4.8-3.7 7.25-8.15-13.4-8.4-20.6-14-13.1 2.9-22.75 12.75 1.15-10.35 7.7-19.95-4.45-3.9-21.05-3.35m29.55 53.7-3.9 4.2-3.9 4.25-4.05 1.5q-.25 2.95-1.05 6.1m-.05.05-.85 2.8q-4.5 14.45-18.65 23.55-12.45 8.05-25.15 7.3m23.6-102.6q-9.05 10.55-9.3 17.85-.25 7.3 4.9 15.2l-.05.75m.45.45 1.8.25.3.05.6.15q4.7.85 8.55 2.7m-6.25-3.9.4-.4m-.8.7h-.15m.3-.1.25-.2m-.25.2-.15.1h-.2m-4.9-.75-.05 1.1Q169 88.4 155.1 97.4q-7 4.55-11.6 10.15-4.65 5.7-6.85 12.55-.9 2.95-1.35 5.75m48.2-36.55v-.2m0 .35v.05m.05-.05h-.05v-.15m.05.1-.05.05h-.1m.55.1-.4-.1m0-.05q.05-.1.2-.1m26.05 22.4q-.9-4.95-3.8-9.45-3.55-5.5-9.15-8.65m13.25 24.5q.2-3.15-.25-6.1m-86.3-61.35-.45.75 8.85 6.45m-11-3 2.15-3.45m12.35 85q-1.05-5-.15-10.55m-6.95-17.6q-18.65 19.3-46.85 24.3m53.95 3.85q1 4.75 3.75 9l2.5 3.35q2.45 2.7 5.6 4.65 1.45.9 3.15 1.65 4.6 2 10.45 2.5l2.35.3 1.1.05m-75.9 19.75 1.45 1.3m2.8 2.55 1.3 1.2m-23.75-12.75q-2.8 1.75-4.9 1.9-5.5 3.35.2 7.15l3.1-.25q.1 1.3 2.1 2.2 6.75 1.35 11.4-.3 3.1-2.6 3.8-5.05l-2.6-2.65m79.8 66.75q5.6-4.75-10-19.45l-.3-.35-1.3.5-1.3.45q-2.9 1.4-6.25 1.25l-2.35-.2-2.15-.65-3.15-1-2.2-1m26.2-12q-1.15 5.95-4.05 9.55l-3.15 3.45m10 19.45-4.35-1.3q1.9 4.05.55 6.4-5.65 3.9-13.1 1.7l-.25 4.05q-8.1 3.6-16.95-2l-7.1-9.95q-2.05-9.55-4.8-18.85M61.1 166.1q2.25 1.55 5.05 2.55l4.1 1.3.2-.2 1.45.15 1.45.1 5.55.2 1.15-.05m.2-.05-.2.05"/><path stroke-width=".05" stroke-linejoin="round" stroke-linecap="round" stroke="#0f0" fill="none" d="m208.25 84.7.2.1m14 15.9v.2m-13.4 23.3-.05.05m-36.5 56.25 2.65 9.55m46.6-93-1-.2m-23.9-3.25-1.65-.9m14.65 19.3-.05-.3m-74.5 14.15h-.55m37.75 54.65-1.85-6.7-6.15 2.5"/><path stroke-width=".05" stroke-opacity=".302" stroke-linejoin="round" stroke-linecap="round" stroke="#000" fill="none" d="M195.95 85.85q7.6-2.65 12.3-1.15m.2.1 1.2.45q9.7 3.4 12.1 11.8l.7 3.65m0 .2.05.7-.55 6.55m-57.6 49.75q3.15 2.1 5.45 4.7 2.45 2.75 3.95 6.05l-1.25 11.85M186.65 90l1.7-.9h.05l.3-.2.25-.1.1-.05-.35.25v-.1m.65-.5-.3.35q3.7-1.85 6.9-2.9m-9.95 4.1-.25-.15m.3.05-.05.1.65.05M49.2 106.45l16.95-4.75.05-36.2-1-1q-2.65-2.65-5.3-4.45m-10.7 46.4-4.4 1.25-.2.05.05-.1-.55-.2.7 2.1q-1.3 2.1-5.05 2.3-3.25-2.9-3.3-8.6l-2.95-5.6-1.3 1Q26.8 98 19.8 99.8q-6.05-1.9-10.6-8.9l-.15-8.5Q3 84.6 1.75 79.05q.6-5.8 4-13.4l1.3-.7q4.35-2.35 7.1-1.2 2.4 1.35 4.15 3.25l3.35-1.85 2.55-1.2m0-.05q1.1-1.55 1.7-1.8.75-.35 2.35-.85h.95q11.75-6.9 21.05-5.35 4.85.85 9.65 4.15m-14.1 24q.8 4.3 1.1 8 .1-3.7-1.1-8-.8-3-1.8-5.3l-1.7-3.05q-2.6-4.35-6-7.3m-.15-.15q-4.3-3.65-9.8-5.2l-.3-.1M44 78.75l1.8 4.35v.95m-19.45-21-.3-.15M18.3 67l.6.75q7.95 5.55 13 12.65m-16.95.45-.4-.5.4.5q5.6 3 7.5 8.05 6.05-.8 10.8 1.95l.25.15.2-.85M14.25 79.7l.3-.25-.2.4.6 1m-2.9 0 2.75-3.95-1.15 1.75.6 1.05.1.15m-2.45 1.2.15-.2-.15.2-2.45 1.2-.4.15v-.25l.4.1m24.05 15.4 2.1-3.5q.4-.15.3-.6l-.5-.5-1.8-1.9-.35-.3m.35.3-.1-.15m.1.15q2 1.6 2.3 2.4.9 1.15 1.25 3.2-.75 3.6-.7 6.5m-.85-9.1q.1 1.5-2.1 3.5M22.45 88.9l-4.25 3.4m55.4 17.35 1.6 2.5q.45 4.9 4.9 9.2l12.45-3.8 7.35-6.5 2.3-2.05-1.45.05m-36.05-.8.05.15m53.4-13.5 12.3 1.7 9.95 6.25 3.1 4.7m-78.8.7-1.85-.3 4.55 13.5-.6 3.65q1.55 1.2.85 7.15-5.9 2.45-10.6 8.05-4.7 5.55-7.2 14.65l-1.45 3.85q5.75 5.75 12.7 7.3 6.4 1.35 13.85-.85l4.7-2.4-4.35-3.5q-5.1-3.2-8.2-8.45-3.1-5.25.05-15.05m-3.8-14.3 1.65.35M46.9 92.05q-.25 5.3-2.25 9.6l-.6 5.65.05.15m.55.2.15.05m33.95 25.65-5.95-.6-3.4-7.05-4.65-17.3m.35-.1 13.65 25.05q2.2 4 10 10.5l7.1 4.25 3.3 1.7.5.25m17.55.7q-1.05-.45-1.8-.9-.95-.65-1.4-1.3-4.6.5-17.95-3.55l-.1-.05-2.25-.7q-6.7-2.35-12.2-11.7-1.85-3.5-1.95-6.2-.15-2.7.55-5m-33.2-29.3q.7 9.85-2.25 15.6m69.8-9.55L102.2 109m48.25 46.05-2.8.25-4.2.1-13.9-1.6-3.2-.55q-6-1.15-9.15-2.5m6.9 9.05 18.55 4.4q5.65.8 9.9.25 4.75-.65 7.7-3 1.85-1.45 3-3.6m-39.15 2-4.2 2.05-.1.1m21.4 55.35q9.8-3.1 16.3-7.95l2.85-2.15q8.8-6.95 10.4-10.1l1.75-16.65m-57.25-23.45h-.1l2.35 1.2 6.6 1.55m-8.95-2.75-.2-.1q-1.95-.95.3.1l-.3-.1m.65 6.9 4.2-1.85m-16.2-10 8.55 3.85 2.8 1.1M103.6 152l.1.05-2.1-1-1.95-1m15.95 13.8q-8.65 3.85-12.6 4.6l-4.35.55-6.15-.35q2.95 6.05 5.6 13.35l2.2 6.4q1.85 5.8 2.85 10.45 1.25 8.5 6.55 19.55l7.45 1.35 7 1.25 10-1.75 7.05-1.9M80.15 170l.1.1 3.1 2.85 5.1 4.7m1.45 1.3 2.8 2.55m1.3 1.2 6.3 5.7m-20.65-25.55 10.85 4.95 2 .85m31.6-8.8q-6.85.55-6.6-1.6m-42.2 1.1-.65-.55m5.5 11.2-5.2-4.75"/></g><g transform="translate(61.6 95)" id="c"><clipPath id="q"><use xlink:href="#p" width="98" transform="translate(18.55 9.35)" height="59.2"/></clipPath><g clip-path="url(#q)"><use xlink:href="#r" width="54" transform="matrix(.0918 -.1604 -.1276 -.0719 33.992 26.702)" height="143"/><use xlink:href="#r" width="54" transform="matrix(.1065 -.1862 -.1523 -.0858 48.382 36.117)" height="143"/><use xlink:href="#r" width="54" transform="matrix(.1059 -.1852 -.1758 -.099 64.805 45.117)" height="143"/><use xlink:href="#r" width="54" transform="matrix(.1059 -.1852 -.1783 -.0945 79.723 52.422)" height="143"/><use xlink:href="#r" width="54" transform="matrix(.1059 -.1852 -.1789 -.0935 96.312 61.105)" height="143"/><use xlink:href="#r" width="54" transform="matrix(.1059 -.1852 -.1789 -.0935 112.962 69.805)" height="143"/><use xlink:href="#s" width="101.4" transform="translate(20.75 3.15)" height="71.65"/><use xlink:href="#t" width="194.2" transform="translate(-32.15 -66.7)" height="204"/><use xlink:href="#u" width="194.2" transform="matrix(.925 -.4033 .4704 1.0788 -61.6 -16.7)" height="204"/></g></g><g id="p"><path fill-rule="evenodd" fill="#bca85c" d="m82.35 41 .9.65.15.1 4.9 3.15 4.3 2.2 4.8 1.9-1.3.45-1.45.2 1.45-.2 1.3-.45.4.15q.3 0 .55.15l.15.1.3.3.1-.05 1 .7.15.1 4.9 3.15 4.3 2.2q2.35 1.05 4.8 1.9l.85.3q-.95-.3-2.25.65l-.2.15-1.15-.45-.1-.05-3.6-1.5q-2.5-1.1-4.85-2.4l-.4-.2-3-1.75-1.4-.9-1.05-.7-.1-.05-.25-.2-.25-.15-.5-.35-.15-.1h-.05l-.95-.35-.1-.05-3.6-1.5q-2.5-1.1-4.85-2.4l-.4-.2-2.95-1.75-1.4-.85-1.1-.75-.1-.05-.25-.2-.25-.15-.45-.35-.2-.1h.05l.15-.15q1.25-.9 2.15-.65-.9-.25-2.15.65l-.15.15-1-.4H78l-3.6-1.5q-2.5-1.15-4.85-2.45l-.4-.25-1.25-.7-1.6-.95-.6-.4-1.2-.8-.7-.45-.1-.05-.35-.25-.2-.15-.65-.45-.55.4-2.3-1.05-4.8-2.55-.4-.25-2.75-1.75-1.25-.8-.8-.6-.55-.4-.35-.2-.05-.05-.15-.15-.45-.3-.2-.15.15-.15q.7-.5 1.35-.6l1.15.1.45.4.1-.05 1 .75.1.1 4.8 3.3 4.25 2.3 2.25 1.05 1.7-.05.45.4.1-.05 1 .75.15.1 4.85 3.1L76 38.35l4.8 1.95.55.2.3.1h.05l.45.4.1-.05.1.05m-60-30.35.15-.1q1.2-1 1.95-.55l.3.3.1-.05.7.55.1.1 3.45 2.45L32.15 15l3.45 1.45q.7-.3 1.25 0l.35.35.1-.05.85.7.1.1 4.15 2.85 3.65 2.05 3.35 1.45q-.65.1-1.35.6l-.15.15-.3.2-3.05-1.35q-2.15-1-4.15-2.15l-.4-.25-3.1-2-1.1-.8-.4-.3-.1-.1-.15-.1-.2-.15-.45-.35-.1-.1-.2.15-.7-.25-.05-.05-2.6-1.1-3.45-1.85-.3-.15q-2-1.2-3.85-2.6l-.25-.2-.15-.1-.5-.4m91.7 47.05-1.3.45-1.45.2 1.45-.2 1.3-.45M95.65 50l.2-.15q1.1-.8 1.95-.7-.85-.1-1.95.7l-.2.15M63.5 31.85l-.85.5-.15.15.15-.15.85-.5m17.3 8.45-1.25.45-1.5.15 1.5-.15 1.25-.45M35.35 16.55l-.75.35-1.1.2 1.1-.2.75-.35.25-.1-.25.1-.8.55-.15.1.15-.1.8-.55" transform="translate(-18.55 -9.35)"/><path fill-rule="evenodd" fill="#d8cc9e" d="m79 41.3.2.1.45.35.25.15.25.2.1.05 1.1.75 1.4.85 2.95 1.75.4.2q2.35 1.3 4.85 2.4l3.6 1.5.05.05.5.6-.7.5-1.95 2.95-1.15-.25-.2-.05-.05-.05-3.05-1.8-4.4-2.4-2.65-1.3-1.2-.55-1.25-.6-.9-.4-.25-.1-.5-.2-.15-.05-.6-.3-.25-.1v-.05l.65-1.25 1.2-1.7L79 41.3M19.7 14.4l.6-1.15 1-1.5 1.05-1.1.5.4.15.1.25.2q1.85 1.4 3.85 2.6l.3.15 3.45 1.85 2.6 1.1.05.05.35.5-.6.45-1.65 2.55-.85-.2h-.15v-.05l-2.2-1.4-3.15-1.8q-2.1-1.2-4.3-2.2l-.15-.05-.45-.25-.65-.25m91.5 43.9.05.05.5.6-.7.5-1.95 2.95-1.15-.25-.2-.05-.05-.05-3.05-1.8-4.4-2.4q-1.35-.7-2.7-1.3l-1.2-.55-1.2-.55-.15-.1-.75-.35-.25-.1-.55-.2-.1-.05-.7-.3-.1-.05-.05-.05.65-1.3 1.2-1.7L95.6 50h.05l.15.1.5.35.25.15.25.2.1.05 1.05.7 1.4.9 3 1.75.4.2q2.35 1.3 4.85 2.4l3.6 1.5M47.9 24.65l.2.15.45.3.15.15.05.05.35.2.55.4.8.6 1.25.8 2.75 1.75.4.25 4.8 2.55 2.3 1.05.55-.4.65.45.2.15.35.25.1.05.7.45 1.2.8.6.4 1.6.95 1.25.7.4.25q2.35 1.3 4.85 2.45l3.6 1.5h.05l.5.65-.7.5L75.9 45l-1.2-.3-.15-.05h-.05l-3.05-1.85q-2.2-1.25-4.4-2.4l-.7-.35-1.15-.55-1-.5-.6-.3-1.35-.65-.75-.35-.45-.2-.2-.1h-.05l-.6-.25-.85-.4-.05.15-2.65-1.65-4.3-2.5-2.45-1.35-1-.5-.95-.45-.35-.2-1.15-.55-.05-.05-.2-.05h.05l-.05-.05-.5-.2-.1-.05-.85-.4v-.1l-.3-.05-.15-.05-.05-.05-2.6-1.65-3.75-2.2-3-1.55-.85-.45-1.3-.6-.15-.05v-.05h-.05l-.45-.2-.05-.05-.55-.2-.2-.1.25-.5.4-.8 1.15-1.75 1.1-1.15.2-.15.1.1.45.35.2.15.15.1.1.1.4.3 1.1.8 3.1 2 .4.25q2 1.15 4.15 2.15l3.05 1.35-1.05 1q-.65.75-1.15 1.75l-.65 1.2.65-1.2q.5-1 1.15-1.75l1.05-1 .3-.2m11.45 12.1.65-1.3q.5-1 1.15-1.7l.8-.85-.8.85q-.65.7-1.15 1.7l-.65 1.3" transform="translate(-18.55 -9.35)"/><path fill-rule="evenodd" fill="#cbbc81" d="m109.3 67.75-.9-.7-3.8-2.6-3.95-2.15q-2.8-1.4-5.75-2.45l-.8-.25-.1-.05-.1-.05-.45-.1-.45-.15-.15-.05-.1-.05-.45-.4-.55-.4-3.8-2.6Q86 54.55 84 53.6q-2.8-1.4-5.75-2.45l-.8-.25-.1-.05-.1-.05-.45-.15-.25-.05-.1-.05h-.1l-.25-.1-.55-.5-.4-.3-3.8-2.6-3.9-2.2q-2-1.05-4.05-1.85l-1.65-.65-.85-.25-.1-.05-.1-.05-.45-.15.05.35-.05-.35-.4-.1-.25-.1-.1-.05-.25-.2-2.7-1.9-3.85-2.3q-2.7-1.45-5.6-2.6l-.5-.15-.35-.15h-.1l-.1-.05-.85-.3-.15-.1-.1-.05-.45-.35q-.5-.7-.4-2v-.3l.55-2.05.05-.15-.05.15-.55 2.05v.3q-.1 1.3.4 2l.45.35.1.05.25.35-.8-.65-3.2-2.4-3.3-2q-2.4-1.25-4.95-2.2l-.7-.25h-.1l-.1-.05-.75-.25-.2-.1q-.8-.45-.65-1.95L28.1 22.5q-1.4-.9-2.8-1.65-2-1.1-4.15-1.85l-.6-.2h-.05l-.1-.05-.65-.2-.15-.05q-.75-.45-.5-1.95.1-1.05.6-2.15l.65.25.45.25.15.05q2.2 1 4.3 2.2l3.15 1.8 2.2 1.4v.05l.2.1.45.85-.6 1.35.6-1.35-.45-.85.75.55-.25.5.2.1.55.2.05.05.45.2.05.05.15.05 1.3.6.85.45 3 1.55 3.75 2.2 2.6 1.65.05.05.2.15.15.25-.15-.25.2.1.05-.05.85.4.1.05.5.2v.05l.2.05.05.05 1.15.55.35.2.95.45 1 .5 2.45 1.35 4.3 2.5 2.65 1.65.05-.15.85.4.6.25h.05l.2.1.45.2.75.35 1.35.65.6.3 1 .5 1.15.55.7.35q2.2 1.15 4.4 2.4l3.05 1.85h.05l.25.15 1.05.7v.05l.25.1.6.3.15.05.5.2.25.1.9.4 1.25.6 1.2.55 2.65 1.3 4.4 2.4 3.05 1.8.05.05.25.15 1.15.7.05.05.1.05.7.3.1.05.55.2.25.1.75.35.15.1 1.2.55 1.2.55q1.35.6 2.7 1.3l4.4 2.4 3.05 1.8.05.05.25.15.75 1-.7 1.6.7-1.6-.75-1 1.3.8q-.55 1.3-.6 2.55-.1 1.5.6 2.15m-48.1-24.8-.9-.75-.8-.6.1.05.25.1.4.1.45.15.5.95M108 64.8l.05.05.35 2.2-.35-2.2-.05-.05-.05-.4.05.4-1.75-1.65-4.5-2.05 4.5 2.05L108 64.8l.05.05-.05-.05m-15.7-6.05q-.55-.65-.45-1.95.1-1.25.65-2.55-.55 1.3-.65 2.55-.1 1.3.45 1.95m-.95-5.2.75 1-.7 1.6.7-1.6-.75-1m-15.8-3.6q-.4-.65-.35-1.85.1-1.25.65-2.55-.55 1.3-.65 2.55-.05 1.2.35 1.85m16.2 8.4-.35-2.2.35 2.2m-.35-2.2-.05-.05.05.05-.05-.05.05.05m-6.3-3.75 4.5 2.05 1.75 1.65-1.75-1.65-4.5-2.05m6.2 3.3.05.4-.05-.4M59.25 41.4q-.65-.65-.55-2.1l.05-.55q.15-.95.55-1.85-.4.9-.55 1.85l-.05.55q-.1 1.45.55 2.1m-28.7-17.05v-.3l.15-.7q.15-.9.6-1.8-.45.9-.6 1.8l-.15.7v.3m13.95 9.1v.1-.1m-5.5-5.5 3.85 1.85 1.25 1.35-1.25-1.35L39 27.95M53.8 36l4.4 2.2.55.55-.55-.55-4.4-2.2m21.35 13.65-.35-2.2v-.05l.7-1.55-.7-1.05.7 1.05-.7 1.55v.05l.35 2.2m-.4-2.7.05.45-.05-.45m-6.2-3.3L73 45.7l1.8 1.7-1.8-1.7-4.45-2.05M26.2 19.8l3.2 1.55 1.25 1.35-1.25-1.35-3.2-1.55m4.45 2.9.05.65-.05-.65" transform="translate(-18.55 -9.35)"/><path fill-rule="evenodd" fill="#e6dbc4" d="m82.35 41-.1-.05-.1.05-.45-.4h-.05l.3.1.4.3m16.15 8.4h.05l.35.25-.1.05-.3-.3m16.4 8.6.3.1q.95.5.85 2.35-.1 1.75-1.25 3.8-1.2 2.05-2.7 3.15-1.35.9-2.3.6l-.45-.2-.05-.05q-.7-.65-.6-2.15.05-1.25.6-2.55l.65-1.3q1.1-1.95 2.5-2.95l.2-.15q1.3-.95 2.25-.65m-21.45 1.4-.3-.1-.15-.05.45.15M76.8 50.65l-.2-.05h-.05l.25.05M63.4 43q-1 .5-1.7.25l-.45-.25-.05-.05-.5-.95.1.05.1.05.85.25 1.65.65m-16.8-8.55h-.9l-.4-.2v-.05l-.25-.35.15.1.85.3.1.05h.1l.35.15m67.5 25.1q.6.3.5 1.5-.15 1.25-.95 2.65-.85 1.4-1.85 2.2-1 .75-1.6.45-.6-.3-.45-1.55.1-1.2.95-2.6.8-1.45 1.8-2.2 1-.8 1.6-.45-.6-.35-1.6.45-1 .75-1.8 2.2-.85 1.4-.95 2.6-.15 1.25.45 1.55.6.3 1.6-.45 1-.8 1.85-2.2.8-1.4.95-2.65.1-1.2-.5-1.5M113.05 61q.45-.45.65-.35v.7l-.55 1.25-.85 1.15-.6.35q-.2-.1-.05-.65l.6-1.3.8-1.15-.8 1.15-.6 1.3q-.15.55.05.65l.6-.35.85-1.15.55-1.25v-.7q-.2-.1-.65.35" transform="translate(-18.55 -9.35)"/><path fill-rule="evenodd" fill="#a99545" d="M79.05 41.3H79l-1.3 1.25-1.2 1.7-.65 1.25-1.05-.7-.25-.15.15.05 1.2.3 1.95-2.95.7-.5-.5-.65H78h.05l1 .4m15.5 8.3.1.05h-.05.05l.95.35-1.25 1.25-1.2 1.7-.65 1.3-1.15-.7-.05-.1.05.1-.25-.15.2.05 1.15.25 1.95-2.95.7-.5-.5-.6-.05-.05m17.9 9.2q-1.4 1-2.5 2.95l-.65 1.3-1.3-.8-.25-.15.2.05 1.15.25 1.95-2.95.7-.5-.5-.6-.05-.05.1.05 1.15.45m-1.2-.45h.05-.05m-3.3 3.8.05.1-.05-.1M44.75 28.9l-.05.05-.2-.1-.2-.15.15.05.3.05v.1m-.25-.05-.05-.1.05.1M74.7 44.7l.1.1-.1-.1M33.45 17.05l.05.05-.05-.05M30.6 20.4h.15l.85.2 1.65-2.55.6-.45-.35-.5.7.25-1.1 1.15-1.15 1.75-.4.8-.75-.55-.2-.1m.15 0 .05.1-.05-.1" transform="translate(-18.55 -9.35)"/><path fill-rule="evenodd" fill="#857536" d="M46.2 29.6v-.05l.05.05h-.05m-13.6-7.45-.05-.05h.05v.05" transform="translate(-18.55 -9.35)"/><path stroke-linejoin="round" stroke-linecap="round" stroke="#7d6c46" fill="none" d="m97.4 49-4.8-1.9-4.3-2.2-4.9-3.15-.15-.1-.9-.65-.1-.05m-.1.05-.45-.4h-.05l-.3-.1q-.9-.25-2.15.65l-.15.15H79l-1.3 1.25-1.2 1.7-.65 1.25v.05q-.55 1.3-.65 2.55-.05 1.2.35 1.85l-.4-.3-3.8-2.6-3.9-2.2q-2-1.05-4.05-1.85-1 .5-1.7.25l-.25-.15-.2-.1m36.15 6 .4.15q.3 0 .55.15l.15.1h.05l.35.25 1 .7.15.1 4.9 3.15 4.3 2.2q2.35 1.05 4.8 1.9l.85.3.3.1q.95.5.85 2.35-.1 1.75-1.25 3.8-1.2 2.05-2.7 3.15-1.35.9-2.3.6l-.25-.1-.2-.1m-.05-.05-.9-.7-3.8-2.6-3.95-2.15q-2.8-1.4-5.75-2.45l-.8-.25-.1-.05-.1-.05-.45-.1-.3-.1-.25-.1h-.05l-.1-.05-.45-.4-.55-.4-3.8-2.6Q86 54.55 84 53.6q-2.8-1.4-5.75-2.45l-.8-.25-.1-.05-.1-.05-.45-.15-.2-.05-.15-.05h-.1l-.25-.1-.55-.5m-14.35-7-.9-.75-.8-.6-.25-.2-2.7-1.9-3.85-2.3q-2.7-1.45-5.6-2.6l-.5-.15h-.9l-.2-.05-.2-.15m0-.05-.8-.65-3.2-2.4-3.3-2q-2.4-1.25-4.95-2.2l-.7-.25h-.1l-.1-.05-.75-.25-.2-.1q-.8-.45-.65-1.95L28.1 22.5q-1.4-.9-2.8-1.65-2-1.1-4.15-1.85l-.6-.2h-.05l-.1-.05-.65-.2-.15-.05q-.75-.45-.5-1.95.1-1.05.6-2.15l.6-1.15 1-1.5 1.05-1.1.15-.1q1.2-1 1.95-.55l.3.3m.1-.05.7.55.1.1 3.45 2.45L32.15 15l3.45 1.45q.7-.3 1.25 0l.35.35m.1-.05.85.7.1.1 4.15 2.85 3.65 2.05 3.35 1.45 1.15.1.45.4m.1-.05 1 .75.1.1 4.8 3.3 4.25 2.3 2.25 1.05 1.7-.05.45.4m.1-.05 1 .75.15.1 4.85 3.1L76 38.35l4.8 1.95.55.2m1 .5-.4-.3-.3-.1m14 9.4h-.05l-1.25 1.25-1.2 1.7-.65 1.3q-.55 1.3-.65 2.55-.1 1.3.45 1.95m5.5-9.6q-.85-.1-1.95.7l-.2.15M93 59.25l-.15-.05m.15.05.45.15m5.05-10 .3.3M47.9 24.65l.15-.15q.7-.5 1.35-.6m12.55 9 .55-.4.15-.15.85-.5M44.75 28.9l-.05.05-.05.15-.55 2.05v.3q-.1 1.3.4 2l.45.35.1.05.15.1.85.3.1.05h.1l.35.15m12.75 2.3-.05.15q-.4.9-.55 1.85l-.05.55q-.1 1.45.55 2.1m2.7-8.5-.8.85q-.65.7-1.15 1.7l-.65 1.3M47.6 24.85l-1.05 1q-.65.75-1.15 1.75l-.65 1.2v.1M31.3 21.55q-.45.9-.6 1.8l-.15.7v.3m29.7 17.5-.4-.1-.25-.1-.1-.05m.75.25.45.15.1.05.1.05.85.25 1.65.65M47.6 24.85l.3-.2m-12.55-8.1.25-.1m-1.2.75-.2.15-1.1 1.15-1.15 1.75-.4.8-.25.5m4.05-5-.8.55-.15.1m42.15 33.4-.1-.05m.1.05.25.05" transform="translate(-18.55 -9.35)"/><path stroke-width=".05" stroke-opacity=".451" stroke-linejoin="round" stroke-linecap="round" stroke="#5a512e" fill="none" d="M89.45 55.45 87.7 53.8l-4.5-2.05m6.25 3.7.05.05m-16.7-8.75.05.05m-.05-.05-1.75-1.65-4.5-2.05m-41-21.25-1.25-1.35-3.85-1.85M40.2 29.4l-.55-.55-4.4-2.2m21 11.4-1.8-1.7L50 34.3M12.1 13.35 10.85 12l-3.2-1.55"/><path stroke-width=".05" stroke-linejoin="round" stroke-linecap="round" stroke="#5a512e" fill="none" d="m76.1 40.3 1.45-.2 1.3-.45M92.75 49l1.45-.2 1.3-.45m-6.3 4.4.2.05 1.15.25 1.95-2.95.7-.5-.5-.6-.05-.05m-3.5 3.75.05.05m.25.15-.05-.1m3.35-3.8h-.05m-3.2 6.5.7-1.6-.75-1m0 2.55-.05-.4m.45 2.65-.35-2.2-.05-.05M76.1 40.3h-.05l.5.6-.7.5-1.95 2.95-1.15-.25.05.1m3.25-3.9-.05-.05m-3.15 6.55.7-1.6-.75-1m-.25-.15L72.5 44m.35 2.8.35 2.2m-.35-2.2-.05-.05-.05-.4m-.2-2.3.2.05m-16.8-8.8H56l.15.05 1.2.3 1.95-2.95.7-.5-.5-.65h-.05M25.95 19.5l.15.25m.1-.3-.3-.05.05.1m-.2-.15-.05-.05m.2.1-.15-.05m.2 4.85v-.1m15.8 8.75-.05-.35m17.8-.95 1.5-.15 1.25-.45m-6 4.5.7 1.05-.7 1.55v.05l.35 2.2m-.35-4.85-.1-.1m.1 2.7-.05-.45M14.95 7.75l1.1-.2.75-.35M12.05 11v.05h.15l.85.2L14.7 8.7l.6-.45-.35-.5-.05-.05m-2.65 3.45-.05-.1m-.1 2.3.6-1.35-.45-.85m-.1 2.85-.05-.65"/><path stroke-opacity=".373" stroke-linejoin="round" stroke-linecap="round" stroke="#716242" fill="none" d="m109.35 67.8-.05-.05M61.25 43l-.05-.05m-15.9-8.7v-.05" transform="translate(-18.55 -9.35)"/><path stroke-width=".05" stroke-opacity=".212" stroke-linejoin="round" stroke-linecap="round" stroke="#5a512e" fill="none" d="m94.5 51.65-.8 1.15-.6 1.3q-.15.55.05.65l.6-.35.85-1.15.55-1.25v-.7q-.2-.1-.65.35m1.05-1.45q-.6-.35-1.6.45-1 .75-1.8 2.2-.85 1.4-.95 2.6-.15 1.25.45 1.55.6.3 1.6-.45 1-.8 1.85-2.2.8-1.4.95-2.65.1-1.2-.5-1.5"/></g><g transform="translate(27 66.35)" id="r"><use xlink:href="#v" width="54" transform="translate(-27 -61)" height="122"/><use xlink:href="#w" width="11.45" transform="translate(-10.65 -21.55)" height="77.2"/><use xlink:href="#w" width="11.45" transform="translate(-.1 -37)" height="77.2"/><use xlink:href="#w" width="11.45" transform="translate(5.5 -21.55)" height="77.2"/><use xlink:href="#w" width="11.45" transform="translate(-13.65 -30.7)" height="77.2"/><use xlink:href="#w" width="11.45" transform="translate(-5.95 -27.5)" height="77.2"/><use xlink:href="#w" width="11.45" transform="translate(7.3 -33.5)" height="77.2"/><use xlink:href="#w" width="11.45" transform="translate(11.35 -30.7)" height="77.2"/><use xlink:href="#w" width="11.45" transform="matrix(1 0 0 1.8526 -22.1 -66.368)" height="77.2"/><use xlink:href="#x" width="36.9" transform="translate(-18.65 -54.15)" height="16.4"/></g><g id="v"><path fill-rule="evenodd" fill="#cbbc81" d="M-6.85 60.05q-6.7-.85-11.9-3.5-7.75-4-7.75-9.55l.15-1.35.7-4.45.1-.6.1-.5.6-4.25q2.1-15.35 2.4-30.65.2-11.1-.5-22.2-.75-11.4-2.45-22.75l-.95-5.7q.95 4.6 7.6 8 5.2 2.65 11.9 3.5l.55 7.65.1 1.4.05.35.8 17.65q.4 12.4.3 24.8-.15 16.45-1.15 32.85l-.05 1.15v.15l-.25 3.35-.35 4.65M-16.9-32.7l-.2-.15h.15-.15l.2.15-.05-.15.05.15 1.6 1.35-1.6-1.35 3.05 11.85-1.3 24.35 1.3-24.35-3.05-11.85m-8.5-7.05 8.3 6.9-1.15-.15 1.15.15-8.3-6.9m17.1 7.85-.7-.05-7.95-.9 7.95.9.7.05m2 5.6L-9-31.95l2.7 5.65" transform="translate(27 61)"/><path fill-rule="evenodd" fill="#bca85c" d="m26.35-45.5-.65 4.4q-1.8 12.55-2.45 25.4-.6 11.8-.2 23.85.5 14.2 2.35 28.7l.1.9.85 6.1-.4.25q.55 1.4.55 2.9 0 5.55-7.75 9.55-.5.2-.95.45l-.5-4.05-.15-1.3-.2-2.1Q15.2 33.7 14.9 17.9l-.05-2.4q-.25-13.45.55-26.85.55-9.55 1.65-19.1v-.35l.75-6.2.95-.45q6.65-3.45 7.6-8.05m-.65 4.4L21-36.7l-.95.9.95-.9 4.7-4.4M21-36.7l-3.95 5.9L21-36.7" transform="translate(27 61)"/><path fill-rule="evenodd" fill="#a99545" d="m16.2-34.7-.6.3-.15-.45.15.45.6-.3m-4.35 2.1-16.4 1.2L-6-25.7l-.2.8-.1-1.4-.55-7.65L0-33.5q10.35 0 17.8-3.5l-.75 6.2v.35l-.1-.2-1.35-3.75-3.75 1.8m5.1 1.95.1-.15-.1.15M-6-25.7l-.3-.6.3.6m1.55-6.2-.1.5-.8.05.8-.05.1-.5" transform="translate(27 61)"/><path fill-rule="evenodd" fill="#857536" d="M-6.25 51.9v.15-.15" transform="translate(27 61)"/><path fill-rule="evenodd" fill="#d8cc9e" d="M17.8 57q-3.7 1.7-8.05 2.6L0 60.5l-6.85-.45.35-4.65.25-3.35v-.15l.05-1.15q1-16.4 1.15-32.85.1-12.4-.3-24.8l-.8-17.65-.05-.35.2-.8 1.45-5.7 16.4-1.2-.65.3.65-.3 3.75-1.8 1.35 3.75.1.2q-1.1 9.55-1.65 19.1-.8 13.4-.55 26.85l.05 2.4q.3 15.8 2.05 31.65l.2 2.1.15 1.3.5 4.05m-.85-87.65-.4.6.4-.6" transform="translate(27 61)"/><path fill-rule="evenodd" fill="#e6dbc4" d="M-26.4-48.25q.8-4.8 7.65-8.3Q-11-60.55 0-60.5q11-.05 18.75 3.95Q26.5-52.6 26.5-47l-.15 1.5q-.95 4.6-7.6 8.05l-.95.45Q10.35-33.5 0-33.5l-6.85-.45q-6.7-.85-11.9-3.5-6.65-3.4-7.6-8v-.15l-.05-.15v-2.5" transform="translate(27 61)"/><path stroke-opacity=".373" stroke-linejoin="round" stroke-linecap="round" stroke="#716242" fill="none" d="M-26.35-45.45v-.15l-.05-.15" transform="translate(27 61)"/><path stroke-linejoin="round" stroke-linecap="round" stroke="#7d6c46" fill="none" d="M-26.4-48.25q.8-4.8 7.65-8.3Q-11-60.55 0-60.5q11-.05 18.75 3.95Q26.5-52.6 26.5-47l-.15 1.5m-.4 89.6q.55 1.4.55 2.9 0 5.55-7.75 9.55-.5.2-.95.45-3.7 1.7-8.05 2.6L0 60.5l-6.85-.45q-6.7-.85-11.9-3.5-7.75-4-7.75-9.55l.15-1.35m-.05-91.4-.1-1.25.1-1.25M26.35-45.5l-.65 4.4q-1.8 12.55-2.45 25.4-.6 11.8-.2 23.85.5 14.2 2.35 28.7l.1.9.85 6.1m-52.7 1.8.7-4.45.1-.6.1-.5.6-4.25q2.1-15.35 2.4-30.65.2-11.1-.5-22.2-.75-11.4-2.45-22.75l-.95-5.7" transform="translate(27 61)"/><path stroke-width=".05" stroke-linejoin="round" stroke-linecap="round" stroke="#5a512e" fill="none" d="m47.05 25.2.95-.9 4.7-4.4m-10.25 6.25.15.45.6-.3m-5 2.4.65-.3-16.4 1.2L21 35.3l-.2.8.05.35m22.7-5.5.4-.6-1.35-3.75-3.75 1.8m5.2 1.8-.1.15.1.2M20.7 34.7l.3.6m23.05-5.1L48 24.3m-37.95 3.85H9.9l.2.15 1.6 1.35m-1.65-1.5 7.95.9.7.05M8.75 28l1.15.15-8.3-6.9m20.05 8.4.8-.05.1-.5M18 29.05l2.7 5.65"/><path stroke-width=".05" stroke-opacity=".451" stroke-linejoin="round" stroke-linecap="round" stroke="#5a512e" fill="none" d="m10.1 28.3-.05-.15m.05.15 3.05 11.85-1.3 24.35"/></g><g id="d"><path fill-rule="evenodd" fill="#906a14" d="M167.3 187.2q4.3 4.3 6.6 9.4l-.7-.75-.7-.75-1.3-.9-.25-.1-.55-.3-.65-.05-.1-.1v.15l-.95-.35-.3-.15-1.4-.55.1-.3-.35-.3.15-.1q.45-.4-.7-.35-3.05-1.65-7.2-1.6-5.25.7-11 3.25-14.6 6.9-1.05-5.75l.35-.25q10.15-6.45 20-.15m-19.45 7.75.1-.15.05.1-.15.05M133.6 215.2l-.15.05.15-.2v.15" transform="translate(-16.95 -40.35)"/><path fill-rule="evenodd" fill="#684d0f" d="m173.9 196.6.2.15.15.4.1.2v.05l.25.65.05.35-.3-1.05-.25-.3-.9-1.2.7.75.05.05.3.5-.3-.5-.05-.05.05.05.15.4-.15-.4-.05-.05m-9.05-4.8-.15-.05-.3-.05q-5.85-.3-9.8.95-3.75 1.05-6.55 2.2v-.15.15l-.05.05-.05-.1-.1.15h.2q-4.15 2.4-6.25 5.35-5.6 7.05-7.2 11.4l-.55 2.05-.6 1.5.6-1.5-.3.9-.15.4-.15.2-.2.2q1.55-21.65 13.7-27.85-13.55 12.65 1.05 5.75 5.75-2.55 11-3.25 4.15-.05 7.2 1.6 1.15-.05.7.35l-.15.1.35.3-.1.3-.55-.25h-.05l-.95-.4-.6-.3m-16.8 2.7-.2.1.1.2-.1-.2.2-.1v.2l.45-.65-.3.35-.2-.2.05.3m0 .2-.1.1.1-.1m-.05.2.05-.05v.1l-.05-.05" transform="translate(-16.95 -40.35)"/><path fill-rule="evenodd" fill="#c0590e" d="M191.5 224.9h-.05.05m-8.45 5.2.1 1.1-.45-.9.35-.2m-53.5-4.15 1.6-2.35 1-1.5.35-.4-.35.4.15-.4h.2l1.35-1.4v.2l-2.65 3.3-1.65 2.15m35.3-34.15h-.15.15l.6.3-.75-.3-.3-.1.3.05.15.05m4.8 2v-.15l.1.1-.1.05.1-.05-.1.05m-2.05.7.3.15.15.25-.3-.15-.2-.15.05-.1m-19.55.45h-.2l.15-.05.05.05m0-.45-.05-.3.2.2.3-.35-.45.65v-.2h.05l-.1-.3.1.3h-.05m0 .2.15-.3-.1.1.1-.1-.1.1.1-.1-.15.3m-16.85 29.1-.05-.2.05.2" transform="translate(-16.95 -40.35)"/><path fill-rule="evenodd" fill="#4a370b" d="m174.6 198.05.15.3.3 1.9-5.75-2.7-1.25-2.65-.15-.25-.3-.15-2.9-2.7.75.3.95.4h.05l.55.25 1.4.55.3.15.95.35.1-.05.65.05.55.3.25.1 1.3.9.7.75.9 1.2.55 1.35-.05-.35m-41.35 17.4.2-.2.15-.05.15-.55.3-.9.55-2.05q1.6-4.35 7.2-11.4l-2.05 12.05-5.9 7.95-1.35 1.4h-.2l-.15.4.05-.4 1.05-6.25" transform="translate(-16.95 -40.35)"/><path fill-rule="evenodd" fill="#f17901" d="m157.55 225.2 4.45 1.45-4.3.35-.15-1.8M110.3 76.4l.6-1.05 1.75-1.25-2.35 2.3m-57.7 77.05.3.2-.2.3-.1-.5" transform="translate(-16.95 -40.35)"/><path fill-rule="evenodd" fill="#f8c674" d="m97 154.2-.2.1h.05l.05.05-15.5 8.1q-2.5 4.95-6.2 7.45l-.8.75v-.1l-4.65.15-.7-.05-1.25-.45-5.4-1.55-.9.2q-6.45-6.15-8.8-14.9l.2-.3 3.5-7.7 8.3-8.35.4-.3.55.3.25-1L76 138l.6.8 1.5.6q3.05 1 5.75 2.35-1 .75-1.75 1.65.75-.9 1.75-1.65 8.6 4.4 13.15 12.45M92.65 96q2.15-1.5 4.3-1 2.3.45 3.75 2.65.65 2.5-.15 5.7-.75 3.2-2.4 4.8-2.4 1.95-4.6 1.6-2.2-.55-3.4-3.25-1.3-2.15-.5-5.3.7-3.25 3-5.2M68.8 98.5l-.25 1.05q-.7 3.25-2.4 4.85-2.35 1.95-4.6 1.55-2.1-.5-3.25-2.95l-.15-.25-.35-.65q2.1-4.65 11.35-5.75l-.15 1.2-.25 1 .05-.05m1.8 58.75-.55-1.75q-6.05-3.85-14.7-3.6l-.75 2.05 7.9 7.6 8.1-4.3" transform="translate(-16.95 -40.35)"/><path fill-rule="evenodd" fill="#fce7b8" d="M96.9 154.35q1.7 1.65.25 4.1-2.95 6-7 7.85h.3l-7.3 2v-.05l-1.8.55-1.8.5-2.1.05.05.2-2.3.35q3.7-2.5 6.2-7.45l15.5-8.1M57.8 102.1v-.2l-.05-.25q-.7-1.8-.1-4.25.75-3.25 3.05-5.2 1.8-1.25 3.55-1.05l.7.05.25.05q2.15.5 3.5 2.6l.1.4.15.7.05.5.05.45.1.45q-9.25 1.1-11.35 5.75" transform="translate(-16.95 -40.35)"/><path fill-rule="evenodd" d="m70.6 157.25-8.1 4.3-7.9-7.6.75-2.05q8.65-.25 14.7 3.6l.55 1.75" transform="translate(-16.95 -40.35)"/><path fill-rule="evenodd" fill="#c89851" d="m63.9 169.25 3.9.95-1.15 2.1-1.25-.15-1.5-2.9" transform="translate(-16.95 -40.35)"/><path fill-rule="evenodd" fill="#edd2ab" d="m77.5 169.55-.05-.2 2.1-.05 1.8-.5 1.8-.55v.05l-2.4 6.4-1.8.45-1.45-5.6 2.05-.25-2.05.25m3.85-.75 1.8-.5-1.8.5" transform="translate(-16.95 -40.35)"/><path fill-rule="evenodd" fill="url(#E)" d="M133 67.2q9.45-.5 16.95-4l.05.05.25-.05 3.8 3.5 3.5 3.3 2.9.5 3 2.35.25 5.15q-3.2 21.8-14.85 39.45l-4.15.25 2.95 3.35q11.75 13.25 16.75 28.15l-.35-.1.05.1-9.45-3.15q1.65 1.65 4.2 5.9l-.4-.15.1.15q-4.5-1.65-7.2-2.3l-.4-.1q-2.15.2-3.2 5.5l-5.55 2.3-11 3.4-5.1 1.4-4.7 1.05-30.95 3.1h-.3q4.05-1.85 7-7.85 1.45-2.45-.25-4.1l-.05-.05h-.05l.2-.1q19.7-9.8 33.75-16.85l8-13.4 1.4 1.3-1.25-9.3 6.35-7.9q9.4-13.8 7.35-23.95l-4.7-3.85q-2.55-1-5.3-1.3h-3.2l-1.7.15-3.15.6q-3.5.75-7.25 2.4l-2.05.25-6.65 5.85-.6.6.1.45-.4 3.1v.1q-.15 2.2.25 3.75.55 2.35 3.65 8.65l.05.15.3.6 3.1 5.8 4 6.45q-13.1-9.2-18.95-19.15l.1.05-.5-.4q.65-13.7 5.6-18.8l.15.15.15-.15 4.5-4.95q14.85-6.25 12.9-7.4m-6.85.2.65-.2.5.05-1.15.15" transform="translate(-16.95 -40.35)"/><path fill-rule="evenodd" fill="url(#F)" d="m131.2 160.75 11-3.4q5.2.45 10.75 13.75 7.45 5.1 11.7 12.85l.25.45 2.4 2.8q-9.85-6.3-20 .15 1.45-6.4-6.8-8.65 1.4-1.4-3.15-2.9-4.1-2.35-7.4-5.6-3.3-3.25 1.25-9.45m14.3 10.5 7.15.25-7.15-.25" transform="translate(-16.95 -40.35)"/><path fill-rule="evenodd" fill="url(#G)" d="M191.45 224.9q-3.5 5.3-4.3 5.3l-4.1-.1-.35.2q-2.55-4.9-3.15-10.5-.95-2.6-2.65-3.7l5.3.85.05-.05q2.95 3.7 5.7 9 1.15-.8 1.95-1.1h.1q.85-.3 1.35 0h.15l-.05.1m-13.7 16.4-9.6-1.65-.75-2.3-.25-1.25-2-11.55.15-.1q.4-1.1-.2-2.9 1.9 2 7.8.95-1.2 2.4.5 4.85l4.35 13.95m-9.35 3.75-5.3 4.25-4.25-.55-7.65-2.3q4.5-3.05 3.7-3.95-.9-.9-4.5-10.9-8.65-3.15-9.45-4.4l.8 1.4-11.8 2.75-.4-5.4 1.65-2v-.15l2.65-3.3v-.2l5.9-7.95 2.05-12.05q2.1-2.95 6.25-5.35v-.1q2.8-1.15 6.55-2.2 3.95-1.25 9.8-.95l.3.1 2.9 2.7-.05.1q-4.9-2.65-9.95.8 2.2 3.8 18.75 13.45-16.45-8.4-22.45-12.6l-1.8.2q2.95 6.6 8.9 11.4l7.15 5.7q-.9-.5-2.3.55-7.25-5.55-11.9-12.4-7.2-5.25-4.55 1.8 9.65 15.2 9.1 15.7-5-10.85-12.7-15.65 1.35-.55-.7-.15 2.85 10 2.45 14.45l10 7.35.15 1.8 4.3-.35 6.4 18.4" transform="translate(-16.95 -40.35)"/><path fill-rule="evenodd" fill="url(#H)" d="m175.05 200.25 8.75 6.1 2.3 1.1q2.15 6.1 4.8 11.65 1.25 2.2.6 5.8h-.05l.05-.1h-.15q-.5-.3-1.35 0v-.05l-.05.05h-.05q-.8.3-1.95 1.1-2.75-5.3-5.7-9l-.05.05-5.3-.85q1.7 1.1 2.65 3.7.6 5.6 3.15 10.5l.45.9-.55 6.6-4.85 3.5-4.35-13.95q-1.7-2.45-.5-4.85-5.9 1.05-7.8-.95.6 1.8.2 2.9l-.15.1 2 11.55.25 1.25.75 2.3.25 5.4-6.4-18.4-4.45-1.45-10-7.35q.4-4.45-2.45-14.45 2.05-.4.7.15 7.7 4.8 12.7 15.65.55-.5-9.1-15.7-2.65-7.05 4.55-1.8 4.65 6.85 11.9 12.4 1.4-1.05 2.3-.55l-7.15-5.7q-5.95-4.8-8.9-11.4l1.8-.2q6 4.2 22.45 12.6-16.55-9.65-18.75-13.45 5.05-3.45 9.95-.8l.2.15.3.15 1.25 2.65 5.75 2.7m-4.3 17 3 .85-3-.85" transform="translate(-16.95 -40.35)"/><path fill-rule="evenodd" fill="url(#I)" d="M133 67.2q1.95 1.15-12.9 7.4l-4.5 4.95-.15.15-.15-.15q-4.95 5.1-5.6 18.8l.5.4-.1-.05q5.85 9.95 18.95 19.15l-4-6.45-3.1-5.8-.3-.6-.05-.15q-3.1-6.3-3.65-8.65-.4-1.55-.25-3.75v-.1l14-4.25.1.1 9.15 11.65q12.45-9.9-1.55-20.9h3.2q2.75.3 5.3 1.3l4.7 3.85q2.05 10.15-7.35 23.95l-6.35 7.9 1.25 9.3-1.4-1.3-8 13.4Q116.7 144.4 97 154.2q-4.55-8.05-13.15-12.45-2.7-1.35-5.75-2.35l-1.5-.6-.6-.8-10.1-1.4-.25 1-.55-.3-.4.3-8.3 8.35-3.5 7.7-.3-.2-.05.25q-6.8-6.15-10.35-16.65l-3.1-1.65 1.3-3.15-2.6-1.3 7.55-12.65q1.5-4.15 3.6-8.25l1.1-2.05.3-.6 1.05-2.1 6.4-3.4v.2l.35.65.15.25q1.15 2.45 3.25 2.95 2.25.4 4.6-1.55 1.7-1.6 2.4-4.85l.25-1.05q6.4-5.2 16.3-8.45 9.9-3.25 19.2-4 .55-1.75 1.65-3.55 1.5-2.5 3.55-4.65l.75-1.35.05-.05v-.05l2.35-2.3 8.2-5.8 5.3-.9 1.15-.15H127.95l5.05-.05M92.65 96q-2.3 1.95-3 5.2-.8 3.15.5 5.3 1.2 2.7 3.4 3.25 2.2.35 4.6-1.6 1.65-1.6 2.4-4.8.8-3.2.15-5.7-1.45-2.2-3.75-2.65-2.15-.5-4.3 1m11.9-5.4-.3-.4-.35-2.6.4-1.55-.4 1.55.35 2.6.3.4m-50.8 35.65Q61.1 130 64.7 137.6q-3.6-7.6-10.95-11.35M69 97.55l.15-1.2-.1-.45q.35-.2-.05 1.65m35.6 38.65q-14.9 1-20.75 5.55 5.85-4.55 20.75-5.55" transform="translate(-16.95 -40.35)"/><path fill-rule="evenodd" fill="url(#J)" d="m71.75 78.05 20.4-3 16.15 1.4 1.2 1.4q-2.05 2.15-3.55 4.65-1.1 1.8-1.65 3.55-9.3.75-19.2 4-9.9 3.25-16.3 8.45l-.05.05.25-1q.4-1.85.05-1.65l-.05-.45-.05-.5-.15-.7-.1-.4q-1.35-2.1-3.5-2.6l-.25-.05-.7-.05q-1.75-.2-3.55 1.05-2.3 1.95-3.05 5.2-.6 2.45.1 4.25l.05.25-6.4 3.4-.05-.25q4.25-11.45 9.45-17.7l1.7-1.95q6.2-6.25 8.75-7.25l.5-.1" transform="translate(-16.95 -40.35)"/><path fill-rule="evenodd" fill="url(#K)" d="m51.4 105.3-1.05 2.1-.3.6-1.1 2.05-1.65-.65-4.55-9.3Q39.1 74.65 26.5 55.6l.6-.6 4.7-3.7 1.8-1 3.4 1.4q-8.15-3 1 6.65Q51.05 66.65 56.5 74q4.85 8.65 4.3 13.35-5.2 6.25-9.45 17.7l.05.25m-.05-13-2.9-13.5L35.05 64l13.4 14.8 2.9 13.5" transform="translate(-16.95 -40.35)"/><path fill-rule="evenodd" fill="url(#L)" d="M60.8 87.35q.55-4.7-4.3-13.35-5.45-7.35-18.5-15.65-9.15-9.65-1-6.65l2.55 1.05q17.7 5.8 30.75 18.5l1.5 5.25v.2l-.05 1.35-.5.1q-2.55 1-8.75 7.25l-1.7 1.95" transform="translate(-16.95 -40.35)"/><path fill-rule="evenodd" fill="url(#M)" d="m126.1 162.15 5.1-1.4q-4.55 6.2-1.25 9.45 3.3 3.25 7.4 5.6 4.55 1.5 3.15 2.9 8.25 2.25 6.8 8.65l-.35.25q-12.15 6.2-13.7 27.85l-1.05 6.25-.05.4-1 1.5-4.45-24.4-4.75-14.2q-8.7-3.85 4.15-22.85m4.95 27.2 5.85-9.2-5.85 9.2" transform="translate(-16.95 -40.35)"/><path fill-rule="evenodd" fill="url(#N)" d="m117.7 92.35.4-3.1-.1-.45.6-.6 6.65-5.85 2.05-.25q3.75-1.65 7.25-2.4l3.15-.6 1.7-.15q14 11 1.55 20.9L131.8 88.2l-.1-.1-14 4.25" transform="translate(-16.95 -40.35)"/><path stroke-width=".25" stroke-linejoin="round" stroke-linecap="round" stroke="#fadfb4" fill="none" d="m146.5 32.5 11.25-3.6m-20.65-2.55 6.6-10.7m-133.55-1H.1m14.75-3.7L9.65.1"/><path stroke-width=".05" stroke-opacity=".302" stroke-linejoin="round" stroke-linecap="round" stroke="#000" fill="none" d="m125.25 117 5.55-2.3q1.05-5.3 3.2-5.5l.4.1q2.7.65 7.2 2.3l-.1-.15.4.15q-2.55-4.25-4.2-5.9l9.45 3.15-.05-.1.35.1q-5-14.9-16.75-28.15l-2.95-3.35 4.15-.25q11.65-17.65 14.85-39.45l-.25-5.15-3-2.35-2.9-.5-3.5-3.3-3.8-3.5-.25.05-.05-.05q-7.5 3.5-16.95 4 1.95 1.15-12.9 7.4l-4.5 4.95-.15.15-.15-.15q-4.95 5.1-5.6 18.8m19.35 19.5-4-6.45-3.1-5.8-.3-.6-.05-.15q-3.1-6.3-3.65-8.65-.4-1.55-.25-3.75V52l.4-3.1-.1-.45.6-.6L108.3 42l2.05-.25q3.75-1.65 7.25-2.4l3.15-.6 1.7-.15h3.2q2.75.3 5.3 1.3l4.7 3.85q2.05 10.15-7.35 23.95l-6.35 7.9m1.25 9.3-1.4-1.3m-41.75 30.25-.2.1h.05l.05.05q1.7 1.65.25 4.1-2.95 6-7 7.85h.3l30.95-3.1 4.7-1.05 5.1-1.4 11-3.4q5.2.45 10.75 13.75 7.45 5.1 11.7 12.85l.25.45 2.4 2.8q4.3 4.3 6.6 9.4l.2.15.15.4.1.2v.05l.25.65.15.3.3 1.9 8.75 6.1 2.3 1.1q2.15 6.1 4.8 11.65 1.25 2.2.6 5.8h-.05m-4.3 5.3-4.1-.1.1 1.1-.55 6.6-4.85 3.5-9.6-1.65.25 5.4-5.3 4.25-4.25-.55-7.65-2.3q4.5-3.05 3.7-3.95-.9-.9-4.5-10.9-8.65-3.15-9.45-4.4l.8 1.4L113 191l-.4-5.4 1.6-2.35-4.45-24.4-4.75-14.2m42.75 6.8h.15l-.15-.05-.3-.05m.3.1.75.3-.6-.3m2.25.65-.1.3 1.4.55.3.15.95.35v-.15l.1.1-.1.05m4.25 2.8.05.05.3.5m-8.8-5.05.95.4h.05l.55.25m2.75 1-.1.05m-2.05.7.3.15.15.25 1.25 2.65 5.75 2.7m-7.45-5.75-2.9-2.7m9.4 5.25-.15-.4-.05-.05m.75 1.8-.3-1.05-.25-.3.55 1.35-.05-.35m-.5-1-.9-1.2M95.7 33.75l8.2-5.8 5.3-.9M92.55 37.5l.75-1.35.05-.05v-.05l.6-1.05 1.75-1.25M54.8 37.7l20.4-3 16.15 1.4 1.2 1.4Q90.5 39.65 89 42.15q-1.1 1.8-1.65 3.55l-.4 1.55.35 2.6.3.4m-53.15 14.7-1.05 2.1-.3.6L32 69.7q-2.1 4.1-3.6 8.25L20.85 90.6l2.6 1.3-1.3 3.15 3.1 1.65q3.55 10.5 10.35 16.65l.05-.25.1.5q2.35 8.75 8.8 14.9l.9-.2 5.4 1.55 1.25.45.7.05M43.85 47l1.7-1.95q6.2-6.25 8.75-7.25l.5-.1.05-1.35v-.2l-1.5-5.25Q40.3 18.2 22.6 12.4l-2.55-1.05-3.4-1.4-1.8 1-4.7 3.7-.6.6q12.6 19.05 16.25 44.5l4.55 9.3 1.65.65M18.1 23.65l13.4 14.8 2.9 13.5m20.45-15.8.25-.2-.25.4m-20.4 28.6-.05-.25q4.25-11.45 9.45-17.7m4.85 50.25-.55-.3m9.3 33.25v.1l.8-.75 2.3-.35 1.45 5.6 1.8-.45 2.4-6.4-1.8.5 1.8-.55v.05l7.3-2m-26.55 2.95 1.5 2.9 1.25.15 1.15-2.1m11.75-.9 1.8-.5m-1.8.5-2.05.25m75.15 1.95-7.15-.25m1.8 16.1q10.15-6.45 20-.15m-30.4-7.05-5.85 9.2m16.25-2-.35.25q-12.15 6.2-13.7 27.85l.2-.2.6-1.5.55-2.05q1.6-4.35 7.2-11.4 2.1-2.95 6.25-5.35h-.2l.1-.15-.1-.2.2-.1-.05-.3m.2.2.3-.35-.45.65v.15q2.8-1.15 6.55-2.2 3.95-1.25 9.8-.95m-16.35 2.8h.05l-.1-.3m-.05.6.1-.1v-.2m-.05.4-.05-.1m.1.05-.05.05.05.05v-.1m.15-.45-.1.1.1-.1-.15.3m-.2.25.15-.05m-14.4 20.3-.15.05.15-.2.15-.4.3-.9m-.3.9-.15.55m-1.1 6.5-.35.4-1 1.5.05.2 2.65-3.3v-.2l-1.35 1.4m-.2 0-.15.4.05-.4 1.05-6.25m8.55-15.15L122.8 172l-5.9 7.95m-2.65 3.5v.15l-1.65 2 1.65-2.15m45.7-7.7q1.7 1.1 2.65 3.7.6 5.6 3.15 10.5l.45.9m-9.4-13.1-3-.85m-5.45 7.2-.15.1 2 11.55.25 1.25.75 2.3m21.85-14.9-.05.05m1.55 0h-.15"/><path stroke-width=".25" stroke-opacity=".451" stroke-linejoin="round" stroke-linecap="round" stroke="#000" fill="none" d="M47.75 97.25q-3.6-7.6-10.95-11.35M66.9 101.4q5.85-4.55 20.75-5.55m-22.5 7.2q.75-.9 1.75-1.65"/></g><radialGradient spreadMethod="pad" r="819.2" id="h" gradientUnits="userSpaceOnUse" gradientTransform="translate(151.5 216) scale(.1539)" cy="0" cx="0"><stop stop-color="#b3894d" offset=".408"/><stop stop-color="#dacbb6" offset="1"/></radialGradient><radialGradient spreadMethod="pad" r="819.2" id="i" gradientUnits="userSpaceOnUse" gradientTransform="matrix(.0432 .1325 -.0743 .0242 123 197)" cy="0" cx="0"><stop stop-color="#fce7b8" offset=".118"/><stop stop-color="#fff" offset="1"/></radialGradient><radialGradient spreadMethod="pad" r="819.2" id="m" gradientUnits="userSpaceOnUse" gradientTransform="translate(147.75 171.6) scale(.0249)" cy="0" cx="0"><stop stop-color="#fce7b8" offset=".118"/><stop stop-color="#fff" offset="1"/></radialGradient><radialGradient spreadMethod="pad" r="819.2" id="n" gradientUnits="userSpaceOnUse" gradientTransform="matrix(.0432 .1325 -.0743 .0242 127 195.5)" cy="0" cx="0"><stop stop-color="#fce7b8" offset=".118"/><stop stop-color="#fff" offset="1"/></radialGradient><radialGradient spreadMethod="pad" r="819.2" id="F" gradientUnits="userSpaceOnUse" gradientTransform="matrix(.0432 .1325 -.0743 .0242 123 197)" cy="0" cx="0"><stop stop-color="#fce7b8" offset=".118"/><stop stop-color="#fff" offset="1"/></radialGradient><radialGradient spreadMethod="pad" r="819.2" id="M" gradientUnits="userSpaceOnUse" gradientTransform="translate(151.5 216) scale(.1539)" cy="0" cx="0"><stop stop-color="#b3894d" offset=".408"/><stop stop-color="#dacbb6" offset="1"/></radialGradient><path fill-rule="evenodd" fill-opacity="0" fill="#f0f" d="M100 40H0V0h100v40" id="a"/><path fill-rule="evenodd" fill="url(#z)" d="M5.75 38.65H-5.7v-77.2H5.75v77.2" transform="translate(5.7 38.55)" id="y"/><path stroke-width=".05" stroke-opacity=".212" stroke-linejoin="round" stroke-linecap="round" stroke="#5a512e" fill="none" d="M31.5 14q-5.4 2.4-13.05 2.4T5.4 14Q0 11.6 0 8.2t5.4-5.8Q10.8 0 18.45 0T31.5 2.4q5.4 2.4 5.4 5.8T31.5 14m-2.95-4.9q-2.75.75-6.6.75-3.85 0-6.6-.75-2.75-.75-2.75-1.8t2.75-1.8q2.75-.75 6.6-.75l6.6.75q2.75.75 2.75 1.8t-2.75 1.8" id="x"/><path fill-rule="evenodd" fill="url(#B)" d="M89.7 56.95q-8.95-4.2-15.25-9.95-17.55-7.7-17.05-8.65l-11.9-4.7q-6.7 2.55-3.25 9.15-6.5 6.15-8.2 13.5l-9.9-14 6.2-13.85-3.25-6.7q-7.8-1.65-14-7.8Q5.3 12.35 0 6.1l3 .25L53.05 0l19.6 33.95q-7.15-4.5 28.75 27.3-3.95-2.8-13.4 10.4-2.15-10.6 1.7-14.7" id="A"/><path stroke-width=".05" stroke-opacity=".302" stroke-linejoin="round" stroke-linecap="round" stroke="#000" fill="none" d="M79.7 204 0 66.2 114.5 0l79.7 137.8L79.7 204z" id="t"/><path fill-rule="evenodd" fill="url(#D)" d="M79.7 204 0 66.2 114.5 0l79.7 137.8L79.7 204" id="C"/><use xlink:href="#a" width="100" height="40" id="P"/><use xlink:href="#y" width="11.45" height="77.2" id="w"/><use xlink:href="#A" width="101.4" height="71.65" id="s"/><use xlink:href="#C" width="194.2" height="204" id="u"/></defs><path fill="none" d="M-1-1h196v211H-1z"/><g><use x="98.674" y="197.48" xlink:href="#O" width="381" transform="translate(-192.55 -294)" height="381"/><use x="57.126" y="114.329" xlink:href="#P" width="100" transform="translate(-102.45 -180.35) scale(1.7273)" height="40"/><use x="146.373" y="262.327" xlink:href="#Q" width="882.05" transform="matrix(.7528 0 -.0439 .7528 -346.742 -371.46)" height="863.55"/></g></svg>