<svg xmlns:xlink="http://www.w3.org/1999/xlink" height="1655.5" width="1484.5" xmlns="http://www.w3.org/2000/svg"><g transform="matrix(10 0 0 10 580 934)"><use height="90.6" transform="matrix(1.3518 .0219 -.0045 .2785 -40.55 44.95)" width="90.6" xlink:href="#a"/><use height="160.85" transform="translate(-58 -93.4)" width="148.45" xlink:href="#b"/><use height="20.8" transform="matrix(.9996 .0162 -.0162 .9996 -50.4 22.45)" width="26.25" xlink:href="#c"/><use height="32" transform="matrix(.9996 .0162 -.0162 .9996 48.202 -20.16)" width="41.4" xlink:href="#d"/><use height="84.5" transform="matrix(.9996 .0162 -.0162 .9996 -31.832 -18.296)" width="109.4" xlink:href="#e"/><use height="100.7" transform="matrix(.9996 .0162 -.0162 .9996 -56.05 -93.2)" width="122.15" xlink:href="#f"/><clipPath id="h" transform="matrix(10 0 0 10 580 934)"><use height="87.45" transform="translate(-28.25 -92.4)" width="82.2" xlink:href="#g"/></clipPath><g clip-path="url(#h)"><use height="90.6" transform="matrix(.4011 .0065 -.0046 .2824 -7.5 -57.15)" width="90.6" xlink:href="#a"/><use height="90.6" transform="matrix(.4011 .0065 -.0046 .2824 -7.5 -57.15)" width="90.6" xlink:href="#a"/><use height="90.6" transform="matrix(.5349 .0087 -.0061 .3765 -13.5 -61.5)" width="90.6" xlink:href="#a"/><use height="90.6" transform="matrix(.257 .0733 -.0516 .1809 31.45 -56.3)" width="90.6" xlink:href="#a"/><use height="90.6" transform="matrix(.257 .0733 -.0516 .1809 31.45 -56.3)" width="90.6" xlink:href="#a"/><use height="90.6" transform="matrix(.257 .0733 -.0516 .1809 31.45 -56.3)" width="90.6" xlink:href="#a"/></g><use height="20.75" transform="matrix(.9996 .0162 -.0162 .9996 .6 -54.25)" width="46.4" xlink:href="#i"/><use height="17.2" transform="translate(-10.6 7.95)" width="8.55" xlink:href="#j"/><use height="41.9" transform="matrix(.9996 .0162 -.0162 .9996 -32.438 -5.312)" width="49.05" xlink:href="#k"/></g><defs><linearGradient gradientTransform="matrix(-.0065 .0018 -.0008 -.003 12.85 19.95)" gradientUnits="userSpaceOnUse" id="s" spreadMethod="pad" x1="-819.2" x2="819.2"><stop offset=".035" stop-color="#603920"/><stop offset=".894" stop-color="#26160d"/></linearGradient><linearGradient gradientTransform="matrix(-.0055 .0015 -.0013 -.0048 19.3 7.4)" gradientUnits="userSpaceOnUse" id="t" spreadMethod="pad" x1="-819.2" x2="819.2"><stop offset=".035" stop-color="#603920"/><stop offset=".894" stop-color="#26160d"/></linearGradient><linearGradient gradientTransform="matrix(-.0047 .0012 -.0008 -.0031 9.05 8.6)" gradientUnits="userSpaceOnUse" id="u" spreadMethod="pad" x1="-819.2" x2="819.2"><stop offset=".035" stop-color="#603920"/><stop offset=".894" stop-color="#26160d"/></linearGradient><linearGradient gradientTransform="matrix(-.0055 .0023 -.0035 -.0082 94.2 65.75)" gradientUnits="userSpaceOnUse" id="v" spreadMethod="pad" x1="-819.2" x2="819.2"><stop offset=".035" stop-color="#f8b4a2"/><stop offset=".894" stop-color="#d86b76"/></linearGradient><linearGradient gradientTransform="matrix(-.0055 .0023 -.0035 -.0082 94.2 65.75)" gradientUnits="userSpaceOnUse" id="w" spreadMethod="pad" x1="-819.2" x2="819.2"><stop offset=".035" stop-color="#f8b4a2"/><stop offset=".894" stop-color="#c13544"/></linearGradient><linearGradient gradientTransform="matrix(.0504 .0008 -.0009 .0533 12.8 -48.45)" gradientUnits="userSpaceOnUse" id="z" spreadMethod="pad" x1="-819.2" x2="819.2"><stop offset=".035" stop-color="#d19e32"/><stop offset=".894" stop-color="#ba812c"/></linearGradient><linearGradient gradientTransform="matrix(-.0259 .007 -.0053 -.0198 15.5 20.2)" gradientUnits="userSpaceOnUse" id="x" spreadMethod="pad" x1="-819.2" x2="819.2"><stop offset=".035" stop-color="#603920"/><stop offset=".894" stop-color="#26160d"/></linearGradient><use height="90.6" width="90.6" xlink:href="#l" id="a"/><use height="20.8" width="26.25" xlink:href="#m" id="c"/><use height="32" width="41.4" xlink:href="#n" id="d"/><use height="84.5" width="109.4" xlink:href="#o" id="e"/><use height="100.7" width="122.15" xlink:href="#p" id="f"/><use height="20.75" width="46.4" xlink:href="#q" id="i"/><use height="41.9" width="49.05" xlink:href="#r" id="k"/><g id="m"><path d="M24.3 8.05Q20.4 9.5 17.9 9.9l2.35.45 1.9.6-3.8.2L8.4 8v-.1h3.1L7.85 4.5h.05V0q3.4.55 7.3 3 4.5 2.9 9.1 5.05" fill="#fffbb7" fill-rule="evenodd"/><path d="m7.85 4.5 3.65 3.4H8.4V8l9.95 3.15 3.8-.2-1.9-.6-2.35-.45q2.5-.4 6.4-1.85l.25.15 1 .45q-.5 1.15-.75 3.3l-.25 2.35-.15 1.85V19l-.2.1q-3.05 1.7-5.65 1.7-2.7 0-4.95-2.75-2.85-3.4-4-3.95-.85 3-4.55 3.9v-7.9l-2.5 1.75Q1 12.95 0 13v-2.3l3.4-3.45h-.55L1.1 7Q.25 6.55 0 6.15l3.75-.9q2.65-.9 4.1-.75" fill="#d4d08c" fill-rule="evenodd"/><path d="M7.85 4.5q-1.45-.15-4.1.75L0 6.15q.25.4 1.1.85l1.75.25h.55L0 10.7V13q1-.05 2.55-1.15l2.5-1.75V18q3.7-.9 4.55-3.9 1.15.55 4 3.95 2.25 2.75 4.95 2.75 2.6 0 5.65-1.7m1.35-10.45-1-.45m-.25-.15Q19.7 5.9 15.2 3 11.3.55 7.9 0v4.5h-.05m18.4 4.45-.7-.3M24.4 19l1.5-1" fill="none" stroke="#000" stroke-linecap="round" stroke-linejoin="round" stroke-opacity=".4" stroke-width=".05"/></g><g id="n"><path d="m6.3 12 .25-.1.05.15-.3-.05" fill="#ffdf73" fill-rule="evenodd" transform="translate(6.75)"/><path d="M31.7 11h1.7l1.25 1.15-2.55.6v-.2q0-.95-.4-1.55M15.95 29.9q.05 1.15.9 2l-.8.1q-1.9 0-2.25-1.85l1.2.25q.45 0 .95-.5M8.6 5.15q.1-1.5.8-1.5.35 0 .55.65-.7.15-1.35.85M20.2.8l1.7-.8q.05 0 1.15.55-.2.45-1.3.95Q21 .95 20.2.8" fill="#fff" fill-rule="evenodd" transform="translate(6.75)"/><path d="M32.1 12.75q-.45 1.35-6.05 6.4-1.6 1.4-4.5 2.85-1.2.4-1.65.75-.7.45-1.3 2.05-1.5 3.9-2.65 5.1-.5.5-.95.5l-1.2-.25-2.05-1.35q-1.55-1.4-1.65-2.2-.25-1.95-.8-2.65-.6-.85-2-.95l3.7-.5v-.25l-.75-.7H15q3.3 0 3.8-.85-3.2-2.15-6.55-3.2-2.25-.75-4.55-.95l-.5-.05-.2.15-.8.55L5 17v-.5q1.05-1.9 5.75-4l-4.15-.45-.05-.15q1.15-.55 3.75-3.55l1-1.75.95-1.4 1.3-1.4Q16.7.7 19.25.7l.95.1q.8.15 1.55.7h.05l.9.85q-2.1.2-4.75 4Q15.5 9.85 15.5 11q0 .95 1.95.95l1.65-.25.05-.1.7.1 8.75-1.85q2.3 0 3.1 1.15.4.6.4 1.55v.2M6.95 7.95l.2-.5q.7-1.5 1.45-2.3.65-.7 1.35-.85l.4-.05q.75 0 1.8.85-2.6.1-5.2 2.85" fill="#744826" fill-rule="evenodd" transform="translate(6.75)"/><path d="m7.3 23-.65-.05q-1.8 0-4.4 1.05l.7-2.3Q-.35 20.4-1 20.4h.1l3.4-3.65-.05-.2-3.8-.25Q.6 15.25 5.2 13.15l-2.25-.6 1.6-.2 1.3-.2.45-.15.3.05 4.15.45q-4.7 2.1-5.75 4v.5l1.2.2-.15.05q-.65.4-.65 1.3 0 1.05.8 3h4.05l.75.7v.25l-3.7.5" fill="#ba871b" fill-rule="evenodd" transform="translate(6.75)"/><path d="m6.2 17.2.8-.55.2-.15.5.05q2.3.2 4.55.95l-6.05-.3" fill="#603920" fill-rule="evenodd" transform="translate(6.75)"/><path d="M2.25 24q-1.05.4-2.15.95-1.1-1.65-4.6-4.8-2.25-2-2.25-4.55 0-2.4 2.4-3.6 1.7-.85 3.6-.85 2.5 0 3.4 1.2l.15.2h.15l2.25.6q-4.6 2.1-6.55 3.15l3.8.25.05.2-3.4 3.65H-1q.65 0 3.95 1.3l-.7 2.3m8-2.45H6.2q-.8-1.95-.8-3 0-.9.65-1.3l.15-.05 6.05.3q-1.4 1.3-5 2.75v.25q1.4-.2 3 1.05" fill="#956215" fill-rule="evenodd" transform="translate(6.75)"/><path d="M12.25 17.5q3.35 1.05 6.55 3.2-.5.85-3.8.85h-4.75q-1.6-1.25-3-1.05v-.25q3.6-1.45 5-2.75" fill="url(#s)" fill-rule="evenodd" transform="translate(6.75)"/><path d="m22.7 2.35.25.95-3.8 7.7v.6l-.05.1-1.65.25q-1.95 0-1.95-.95 0-1.15 2.45-4.65 2.65-3.8 4.75-4" fill="url(#t)" fill-rule="evenodd" transform="translate(6.75)"/><path d="M5.85 12.15v-.9q.2-1.3 1.1-3.3 2.6-2.75 5.2-2.85l.1.1-.95 1.4-1 1.75q-2.6 3-3.75 3.55l-.25.1-.45.15" fill="url(#u)" fill-rule="evenodd" transform="translate(6.75)"/><path d="M38.45 11h1.7l1.25 1.15-2.55.6q-.45 1.35-6.05 6.4-1.6 1.4-4.5 2.85-1.2.4-1.65.75-.7.45-1.3 2.05-1.5 3.9-2.65 5.1.05 1.15.9 2l-.8.1q-1.9 0-2.25-1.85L18.5 28.8q-1.55-1.4-1.65-2.2-.25-1.95-.8-2.65-.6-.85-2-.95l-.65-.05q-1.8 0-4.4 1.05-1.05.4-2.15.95m2.7-12.4h.15l1.6-.2 1.3-.2v-.9q.2-1.3 1.1-3.3l.2-.5q.7-1.5 1.45-2.3.1-1.5.8-1.5.35 0 .55.65l.4-.05q.75 0 1.8.85l.1.1 1.3-1.4Q23.45.7 26 .7l.95.1 1.7-.8q.05 0 1.15.55-.2.45-1.3.95h.05l.9.85.25.95-3.8 7.7v.6l.7.1 8.75-1.85q2.3 0 3.1 1.15.4.6.4 1.55v.2M13.3 11.9q1.15-.55 3.75-3.55l1-1.75.95-1.4m-2.3-.9q-.7.15-1.35.85m-2.75 7 .45-.15.25-.1m9.4 18q-.5.5-.95.5l-1.2-.25M26.95.8q.8.15 1.55.7" fill="none" stroke="#000" stroke-linecap="round" stroke-linejoin="round" stroke-opacity=".4" stroke-width=".05"/></g><g id="o"><path d="m47.85 37.3.4-.7q2.3 1.9 3.4 1.9l2.45-.25q.35 0 1.85 1.65 1.55 1.6 2.25 1.6 1.15 0 6.9-3.5l.25 2.75h.5q2.45-1.55 5.1-7.5 2.85-6.45 3.9-7.5v.5l-.35 1.35.75-1q5.85-8.1 8.6-24.1 1.05 3.85 4.25 10.35 4.15 8.5 4.5 11-1.75-1.4-2.95-2.05l-.1-.2v.15l.1.05L93 29.1q2.55 5.6 2.55 6.6l-.15 1.1-1.45-.95-.25-.2-2.45-1.9h-.35l.2 3.75q0 3-2.1 5.45h-.15q0-1.2-.5-2.9l-1.3 3.1-.3.6q-2.75 6.1-4.4 8l-.3.35-3.25 3.05-.7.55-2.35 1.85q-1.2.9-1.65 1 1.4-1.05 1.4-3.95-.5-1.65-.5-2.4-1.45.35-5.8 6.2l-.1.1q-2.65 3.6-4.3 4.95-1 .8-1.65.75v-1.65l-.05-4.25-.1-1.6-.15-.15-2.6 2.35 2.6-2.35.15.15.1 1.6h-.45l-2.4.6-.95.9-2.45 2.2h-.4l-.6-2.3L54.7 56l-.65-1.4-.5.4-5.05-4.5H54V50l-4.9-4.2q-2.1-2-2.1-5.3 0-1.5.85-3.2m33.4-39.5Q80.75 1 79 4.35q-2.15 3.8-2.75 5.65V7.6l-3.3 7.95q-2 4.45-3 4.45l-2.7-2.75-1.65-1.4q-.45 0-3.15 4.7-2.8 4.85-2.85 6.2l-.1.1q-.3-.75-2.75-2.75l-2.65-2.35H54q0 1.55-.65 2.85l-4.85-2.5-3-4.4Q38 6.1 38-2.25l.5-7.95q7.35.45 13.7 2.2l15.8.7q9.7-.2 13.25 5.1m26.25 60.45-.1-.2.15.15-.05.05M11.6 73.4v-.05.05m38.85-14.3v.15-.15" fill="#ffdf73" fill-rule="evenodd" transform="translate(0 10.4)"/><path d="m107.4 58.05-1.2-.6v-.75l1.6.55.2.1 1.4.55v.15h-2m-5.15 1.7-.4-.3q0-.25.9-.8l.65.55 1.2.95h-1.2l-1.15-.4m-1.9 1.8 1.05.7-1.4.45-2.15-.4-1.1-.45q.15-.55 2-.6l.8-.05h.4l.4.35M11.6 73.35 7 73.7l2.25-1.25.85-.4.75-.3q1-.45 1.65-.45.85 0 1.1 1.2l-1.1.6-.5.25h-.4M6.7 71.8H5.65l-.5-.1q-.65.05-1.35.4h-2q.8-1.3 1.3-1.65l.15-.05-3.2.1-.05-.2 2.4-1h.45l.95-.1.9.1-.25.65 1.75-.25h1v1.6l-.5.5m-2.25-1.85q-.75.15-1.2.45.45-.3 1.2-.45" fill="#fff" fill-rule="evenodd" transform="translate(0 10.4)"/><path d="m78.15 59.65 6.15-4.1v3.3h.5l3.55-3.05v1.25q.75-.35 1.6-1.45l1.55-2.85 5.25.5H101l4.9 1.8q2.1.95 2.1 2.25v.05l-.2-.1-1.6-.55v.75l1.2.6.1.2q-.85.55-3.2.45l.45-.55q0-.6-4.1-2.65t-5.5-2.05l-2.55.4 2.55-.4q1.4 0 5.5 2.05t4.1 2.65l-.45.55-.9.5-.65-.55q-.9.55-.9.8l.4.3-.7.25v.05q0 .8-1.2 1.5l-.4-.35h-.4l-.8.05q-1.85.05-2 .6l1.1.45q-2.55 1.15-5.35 1.15l-2.65-.85q-5.8-1.85-11.7-2.95m23.4.35q-.05-1-3.25-2.9-3.45-2.05-5.7-2.05l-2.65.55 2.65-.55q2.25 0 5.7 2.05 3.2 1.9 3.25 2.9m-73.9 6.95.35.15-1-2.6v-1.4q1 1.9 1.75 2.9l.55.3 1.25.5 1.95.6.8-.15.65-.25h2.25q-.5 1.15-.5 1.85l1.55.3.15.85q0 2.25-23.3 4.1-1.7 0-2.5-.7v-.05h.4l.5-.25 1.1-.6q-.25-1.2-1.1-1.2-.65 0-1.65.45l-.75.3-3.4-.25.5-.5v-1.6h-1l-1.75.25.25-.65-.9-.1q.05-3 3.15-4.35 1.75-.8 3.85-.9l.8-.2.65-.15.35.3-.05-.35 2.3-.2L16 64.7v-1.45l2.55-.65 3.4 1.85q2.5 1.2 5.7 2.5m-16.85-3q-1.05.3-1.6.75-3.6 2.9-4.5 4.6.9-1.7 4.5-4.6.55-.45 1.6-.75m.05 7.8-.05-.45q0-2.2 5.05-4.55 4.1-1.9 6.1-2.3-2 .4-6.1 2.3-5.05 2.35-5.05 4.55l.05.45" fill="#744826" fill-rule="evenodd" transform="translate(0 10.4)"/><path d="m87.05 43.15 1.3-3.1q.5 1.7.5 2.9H89q2.1-2.45 2.1-5.45l-.2-3.75h.35l2.45 1.9.25.2 1 2.75q.75 2 .75 4.85 0 4.55-2.65 7.35l.1-2.45.15-.5h-.15v.5l-1.65 4.4-1.55 2.85q-.85 1.1-1.6 1.45V55.8l-3.55 3.05h-.5v-3.3l-6.15 4.1-1.2-.25 1.6-3.7.25-.55 3.25-3.05q2.55 2.75 2.45 3.4h.25q.7-1.35 1.4-6l.6-5.75.3-.6m1.3 11.65v1-1m-60.7 12.15-2.5-4.55q-2.8-5.6-2.9-8.4h.25l4.5 4.25q.9-4.05 1-5.5l7.6 5.8Q43.25 64 45.35 64q1.15 0 1.85-1.55.65-1.45.3-2.7l2.55 1.5q1.1.65 2.4 1L47.2 66.1l.6-1.95q-8.1 5-10.45 5h-.1l-1.55-.3q0-.7.5-1.85h-2.25l-.65.25-.8.15-1.95-.6-1.25-.5-.55-.3Q28 65 27 63.1v1.4l1 2.6-.35-.15" fill="#ba871b" fill-rule="evenodd" transform="translate(0 10.4)"/><path d="m38.35 18.85-.1-.25v-.05l.1.3" fill="#fcc95d" fill-rule="evenodd" transform="translate(0 10.4)"/><path d="M8.8 28.1q1.25 12.15 5 12.9.05-.5 2.55-3.95 2.35-3.25 3.25-4.15 4.4 13.15 6.55 17.65h.75q-.05-1.6 1.5-4.45l1.75-3.1 3.15 4.25 2.95 4.55h.25v-2.3l-1-3.1v-1.1q.05 1.2 4.35 7.4 4.7 6.75 6.95 6.9 1.25-2.1 1.45-3.2l.45.4q1.55 1.55 1.75 2.35v.1-.15q2-3.05 3.1-4.1l.5-.4.65 1.4 1.15 3.7-3.4 2.55q-1.3-.35-2.4-1l-2.55-1.5q.35 1.25-.3 2.7Q46.5 64 45.35 64q-2.1 0-9.75-5.45l-7.6-5.8q-.1 1.45-1 5.5L22.5 54h-.25q.1 2.8 2.9 8.4l2.5 4.55q-3.2-1.3-5.7-2.5l-3.4-1.85-2.75-1.9.2 2.55v1.45l-1.15-1.35-2.05-2.45q-.6.6-.45 1.5l.2 1.15.05.35-.35-.3-2.95-2.95Q8 58.95 8 56.6q0-5.2.6-7.5v-1.8l-.4.2-.6 1.65-1.2 1.75-.4-5q0-4.45 1.4-10.7l1.4-7.1m77.95 15.65-.6 5.75q-.7 4.65-1.4 6h-.25q.1-.65-2.45-3.4l.3-.35q1.65-1.9 4.4-8m-7.95 11.4-.25.55-1.6 3.7-7.75-1q4.35-5.85 5.8-6.2 0 .75.5 2.4 0 2.9-1.4 3.95.45-.1 1.65-1l2.35-1.85.7-.55" fill="#95680d" fill-rule="evenodd" transform="translate(0 10.4)"/><path d="m74.85 26.25.4.35-.75 1 .35-1.35m2.85-11.1-.25-.05.25-.55v.6m-25.35 12.4-.3.25.1-.4.05-.2.15.35m-14.1-8.95h-.05l.05-.05v.05" fill="#d19e32" fill-rule="evenodd" transform="translate(0 10.4)"/><path d="M33.3 47.25 34 41l4 1q-2.5-3.65-2.5-6.9 0-1.1.5-1.35l2.6-.25 5 .45 4.25 3.35Q47 39 47 40.5q0 3.3 2.1 5.3L54 50v.5h-5.5l5.05 4.5q-1.1 1.05-3.1 4.1v.05q-.2-.8-1.75-2.35l-.45-.4q-.2 1.1-1.45 3.2-2.25-.15-6.95-6.9-4.3-6.2-4.35-7.4v1.1l1 3.1v2.3h-.25l-2.95-4.55M82.6.75q0 4.05-1.35 9.05-1.8 6.75-3.85 10.05h-.15v-2.4l.45-2.3v-.6l-.25.55Q69.8 31.35 68.1 33.05h-.3v-11.3q-1.2 1.4-3.75 8.3l-2.4 6.9q-1.8-1.3-3.4-5.1-1.45-3.55-1.25-5.3l-.3 4.25q-.65 2.5-1.45 3.45h-.35l-1.9-4.9-.5-1.35-.15-.45-.15-.35-.05.2-.1.4q-.35 1.25-.6 3.35l-.35 1.2q-.25.35-.6.35-1.55 0-4.65-3.9l-5.95-7.75-1.55-2.2-.1-.3q-2.8-8.45-4-17.8-.35.6-3.25 3V2.5q0-2.15 5.3-12.85h.2l2 .15-.5 7.95q0 8.35 7.5 19.95l3 4.4 4.85 2.5q.65-1.3.65-2.85h.1l2.65 2.35q2.45 2 2.75 2.75l.1-.1q.05-1.35 2.85-6.2 2.7-4.7 3.15-4.7l1.65 1.4 2.7 2.75q1 0 3-4.45l3.3-7.95V10q.6-1.85 2.75-5.65Q80.75 1 81.25-2.2L82.4.1l.2.65m-35.9 54.2 1.55 1.45-1.55-1.45" fill="#efc054" fill-rule="evenodd" transform="translate(0 10.4)"/><path d="M11.55 1.65 11 1.6q2.65-6.1 5.45-8.2 5.1-3.8 16.65-3.8l3.2.05Q31 .35 31 2.5v1.25q2.9-2.4 3.25-3 1.2 9.35 4 17.8l-.05.05h.05l.1.25 1.55 2.2 5.95 7.75q3.1 3.9 4.65 3.9.35 0 .6-.35l.35-1.2q.25-2.1.6-3.35l.3-.25.15.45.5 1.35 1.9 4.9h.35q.8-.95 1.45-3.45l.3-4.25q-.2 1.75 1.25 5.3 1.6 3.8 3.4 5.1l2.4-6.9q2.55-6.9 3.75-8.3v11.3h.3q1.7-1.7 9.35-17.95l.25.05-.45 2.3v2.4h.15q2.05-3.3 3.85-10.05 1.35-5 1.35-9.05.05-.15.75-.4l.5 2.15q-2.75 16-8.6 24.1l-.4-.35v-.5q-1.05 1.05-3.9 7.5-2.65 5.95-5.1 7.5h-.5L65.1 38q-5.75 3.5-6.9 3.5-.7 0-2.25-1.6-1.5-1.65-1.85-1.65l-2.45.25q-1.1 0-3.4-1.9l-.4.7-4.25-3.35-5-.45-2.6.25q-.5.25-.5 1.35 0 3.25 2.5 6.9l-4-1-.7 6.25L30.15 43l-1.75 3.1q-1.55 2.85-1.5 4.45h-.75Q24 46.05 19.6 32.9q-.9.9-3.25 4.15-2.5 3.45-2.55 3.95-3.75-.75-5-12.9v-1.2L3 31.5v-1.2l2.8-9.8v-1.6q-.4 0-2.55 1.7T.6 22.3v-1.8Q9.3 8.55 11.55 1.65M23.25 0q3.25 9.3 8.9 13.35.7-.75.7-3.25l-.55-5.7 2.85 7.7q1.5 3.9 3.05 6.5-1.55-2.6-3.05-6.5L32.3 4.4l.55 5.7q0 2.5-.7 3.25Q26.5 9.3 23.25 0" fill="#cb9630" fill-rule="evenodd" transform="translate(0 10.4)"/><path d="M11.55 12.05Q9.3 18.95.6 30.9v1.8q.5 0 2.65-1.7t2.55-1.7v1.6L3 40.7v1.2l5.8-4.6v1.2m75.05-25.6-.5-2.15m-.75.4q0 4.05-1.35 9.05-1.8 6.75-3.85 10.05h-.15v-2.4l.45-2.3m-.25-.05Q69.8 41.75 68.1 43.45h-.3v-11.3q-1.2 1.4-3.75 8.3l-2.4 6.9q-1.8-1.3-3.4-5.1-1.45-3.55-1.25-5.3l-.3 4.25q-.65 2.5-1.45 3.45h-.35l-1.9-4.9-.5-1.35-.15-.45m-.3.25q-.35 1.25-.6 3.35l-.35 1.2q-.25.35-.6.35-1.55 0-4.65-3.9l-5.95-7.75-1.55-2.2-.1-.25h-.05q-1.55-2.6-3.05-6.5l-2.85-7.7.55 5.7q0 2.5-.7 3.25-5.65-4.05-8.9-13.35m70.7 35.85 1.45.95.15-1.1q0-1-2.55-6.6l-3.35-7.3-.1-.05V32l.1.2q1.2.65 2.95 2.05-.35-2.5-4.5-11-3.2-6.5-4.25-10.35m10.1 33.35-.25-.2-2.45-1.9h-.35l.2 3.75q0 3-2.1 5.45h-.15q0-1.2-.5-2.9l-1.3 3.1m-5 8.95-3.25 3.05m-1.85 4.25 1.2.25m10.2-3.85v-1m3.15-2.05 1.65-4.4v-.5h.15l-.15.5-.1 2.45q2.65-2.8 2.65-7.35 0-2.85-.75-4.85l-1-2.75m-1.35 18 2.55-.4q1.4 0 5.5 2.05t4.1 2.65l-.45.55q2.35.1 3.2-.45m-.1-.2-1.2-.6v-.75l1.6.55.2.1v-.05q0-1.3-2.1-2.25l-4.9-1.8h-4.25l-5.25-.5L89.95 66l2.65-.55q2.25 0 5.7 2.05 3.2 1.9 3.25 2.9l.7-.25-.4-.3q0-.25.9-.8l.65.55.9-.5m-.9.5 1.2.95h-1.2l-1.15-.4m-.7.25v.05q0 .8-1.2 1.5l1.05.7-1.4.45-2.15-.4q-2.55 1.15-5.35 1.15L89.85 73q-5.8-1.85-11.7-2.95m29.85-2.3 1.4.55v.15h-1.7l-.15.15-.05.05m.2-.2h-.3M93.05 61.2l-.05.25v-.2l.05-.05m4.8 11.5-1.1-.45q.15-.55 2-.6l.8-.05h.4l.4.35m-13.6-17.8q-2.75 6.1-4.4 8l-.3.35m7.9 3.5q-.85 1.1-1.6 1.45V66.2m-10.9-40.7.25-.55v.6M52.05 38.2l.1-.4.05-.2.15.35m1.2 27.45.5-.4.65 1.4 1.15 3.7.6 2.3h.4l2.45-2.2.95-.9 2.6-2.35.15.15.1 1.6.05 4.25v1.65q.65.05 1.65-.75 1.65-1.35 4.3-4.95l.1-.1q4.35-5.85 5.8-6.2 0 .75.5 2.4 0 2.9-1.4 3.95.45-.1 1.65-1l2.35-1.85.7-.55M12.25 74 9.3 71.05Q8 69.35 8 67q0-5.2.6-7.5v-1.8l-.4.2-.6 1.65-1.2 1.75-.4-5q0-4.45 1.4-10.7l1.4-7.1m39.45 28.3-1.55-1.45m-19.05 12 .35.15-1-2.6v-1.4m6.95 3.9h2.25q-.5 1.15-.5 1.85l1.55.3h.1q2.35 0 10.45-5l-.6 1.95 5.25-3.85 3.4-2.55M18.55 73l3.4 1.85q2.5 1.2 5.7 2.5m9.6 2.2.15.85q0 2.25-23.3 4.1-1.7 0-2.5-.7v-.05L7 84.1l2.25-1.25.85-.4-3.4-.25H5.65l-.5-.1q-.65.05-1.35.4h-2q.8-1.3 1.3-1.65l.15-.05-3.2.1H0v-.2l2.4-1h.45l.95-.1q.05-3 3.15-4.35 1.75-.8 3.85-.9l.8-.2.65-.15.35.3-.05-.35-.2-1.15q-.15-.9.45-1.5l2.05 2.45L16 75.1v-1.45l-.2-2.55 2.75 1.9-2.55.65M3.25 80.8q.45-.3 1.2-.45l.25-.65-.9-.1m.65.75 1.75-.25h1v1.6l-.5.5m-2-2.5q.9-1.7 4.5-4.6.55-.45 1.6-.75m1.75-.4 2.3-.2m7.1 1.1q-2 .4-6.1 2.3-5.05 2.35-5.05 4.55l.05.45q1-.45 1.65-.45.85 0 1.1 1.2l-1.1.6-.5.25h-.4m-1.5-1.3.75-.3M63.1 68.7h-.45l-2.4.6m16.7.5-7.75-1m-18.75.75q-.2-.8-1.75-2.35l-.45-.4m2.2 2.7v.15-.1m0-.05q2-3.05 3.1-4.1" fill="none" stroke="#000" stroke-linecap="round" stroke-linejoin="round" stroke-opacity=".4" stroke-width=".05"/></g><g id="p"><path d="m87.7 6.5 2 1.05q4.05 2.2 14.9 9.4 1.75 2 3.85 5.7l.3.55.9 1.65q1.7 3.45 1.7 5.65v.35l-.25 1-1.4-1.4-.05-.05-.95-1-3.5-3.7q-2.95-3.1-6.55-3.1-.25-.6-1.35-1.3l-1.7-.8q1.65-1.25 2.55-1.25 1.15 0 2.1.6.45.25 1.35.85-.4-1-1.85-2.3-1.7-1.55-3.1-1.55-2.3 0-6.25 5.25-1.6 2.1-2.5 3.7-2.45-1.1-3.1-1.7-4-3.45-4.2-4.8l-.1.35-2.6-5.2Q76 11.5 73.7 9.8q2.25-1.55 5.9-3.3h8.1m27.35 64.8q.75 3.5.75 7.8l-2.05 1.35q-3 1.9-4.1 1.9-1.55 0-3.9-1.2-2.25-1.15-3.1-2.8.2-4 1.1-6.15l.05-.2.75-2.45-.85.25-.7-.1-.3-.05-.15-.2-.65-.4.25-2.35-.05-1.3.25-.15.15-.1 1.45-.9-.05-.15q-.55-2.35-2.55-4.35h-1.2l.35.6.7 1 .1.15q.85 1.3.5 2.7-1.15-3.65-6-3.65l-1.25.15-.15-.1-1-.45q-1 0-3.2 1.55-2.2 1.5-3.6 1.5l-3.1-.6q-1.8 0-1.8 1l.6 1.55q-1.5-.9-3.4-.95l.3.55 1.25 1.7q1.05 1.35.9 2.8l-.2.1-.9.35L77.8 71l2.45-1.3.9-.35.2-.1 1.85-.5 1.3-.15h.65l1.3-.1 1.35-.1q1.3.3 2.45 1.6 1.15 1.3 1.25 2.3l-1.2-.1q-3.8-.65-7.1 1.85l-.35.25.05.05v.05l-2.2.5q-.9 0-1.95-1-1.05-1-1.05-1.95l.1-.95-.4.2.25-2.2-.25 2.2-.7 5.5.7.8q.8.8 1.4.8l2.7-1 2.85-1.75 1.95.7 3.1.6q2 0 5.05-1.65l.5.65q1.4 1.6 2.55 1.6.9 0 1.7-1.1.9-1.25.9-3.05l-.35-1.55.85-.65 1.85.9q-.6 2.95-1.7 5.85-1.05 2.7-1.05 5.25 0 2.25 2.25 4.35l.25.25q-9.9 6.8-23.2 6.8-5.1 0-11.05-2.2l1.15-1.85 1.6.25q3.15 0 4.25-3.15l1.15-7.1.2-.95v-.05h-.15q-1.1 2.4-1.9 3.25-1.5 1.65-4.5 1.65l-3.1-.45q-1.45-1.8-1.45-3.6 0-1.4 1.25-5.05l.05.5 1.05.95.15.1.3.2-.35-.4-.2-.8.2-.8.35-1.2 1.3-4.8-.05 1.2v.4h.05l.1-.4q.9-3.8 1.3-4.6 1.3-2.95 3.5-5.35 2.6-2.85 4.75-2.85.75 0 1.55.55h.05q.55 1.15 1.3 1.7 1.55 1.2 5.3 1.2 6.15 0 7.85-3.35l3.6 2.4q-.95-.75-3.05-4.05l.05-.4.05-.05.1-.4.55.1 1.8-.55.05.05 1.65 2 .5.55h.05q1.7 1.8 2.1 1.8 1.1 0 1.9-2 .6-1.6.6-2.7 0-1.75-.7-2.6l-.1-.15.05-.35q2 2.55 3.3 2.9-.45 1.6-1.85 3.5l-2 2.3-.2.2-.45.2-.45.45q0 .6 1.05.6 2.95 0 5.15-4.35.3-.7 1-1.25l.25-.2-.05-.05 1.65-.9q-.85 2.1-.85 5 0 1.3 2.55 6.55l.15.35q1 2.2 1.6 4.85m-33.6-47.75-.15.15q.9 1.55.9 2.9 0 1-.45 1.55-.7-1.2-1.6-1.8-3.45-2.6-5.9-4.05-4.5-2.7-7.85-2.7-2.4 0-4.85 1.1l.2-1.45q.4-3 3.85-1.95l-.1-.85q2.9.3 5.4 1.25-2.75-1.95-5.3-2.75l.3-1.25q.45-1.35 1.1-1.95l2.45.55.85.3q3.85 1.5 7.15 5.5l3.3 4.45.7 1M84 40.1l.4 1.1.7 1.85q-1.55-.25-3.35-2.1l-3.9-4.7q-5.6-6.9-11-6.9-1.9 0-5.25 1.2l-3.8 1.2q.2-1.45.7-3.1.85-3.1 1.9-4.15l.75-1.75q2.05-1.05 3.4-1.05 4.9 0 8.25 2.2 5.1-.9 7.85 6.05l.85 2.55.05.15.9 2.9L84 40.1m17.3-12.8-.75-1.3q-.7-.95-2.25-.8l.75-.1q1 0 2.4.85 1.3.75 1.65 1.5l-1.8-.15 1.8.15.1.05q3.9.5 6.2 3.1l1.4 1.9.55 1.2q1.4 3.35 1.4 9.85 0 4.5-.9 7l-.3.6-.7 1.15-.8-.25q.95-3.1.95-7.05 0-6.15-4-12.25-4.85-3.35-5.25-4.25l-.45-1.2m-24.25 1.2q-1.65-2.95-4.25-4.6 2.6 1.65 4.25 4.6m4.3 21.25.7-.35.5-.25q1.85-.9 3.55-1.35v-.05h.1l3.7.3-3.7-.3 2.6-.45h.2l1.25.05.5.05q.15.85.8 1.6l.6.6H84.4q-10.6 3.9-14.95 11.65l-.45-.1q-1.8-.3-1.8-2l.15-.3.05-.05q1.65-3.35 5.7-5.7 1.55-.95 3.5-1.75l.45-.2 2.25-.8 2.05-.6M70.85 77.4q-1.45-3.6-1.6-6.65v-.15.15q.15 3.05 1.6 6.65m33.1-25.35q.5 1.15.5 2.65 0 3.1-2.4 3.1-.8 0-1.6-.8-.85-.85-1.7-2.5l1.15.1q3.05 0 4.05-2.55m1.25 13-.6-.25-.4.1.85 2.75-.5 1.9.5-1.9.3-1.35-.15-1.25-.05-.65.05.65m-28.75 13.3.25-1.65-.25 1.65m20.9 4.3-.65.55q-4.2 3.05-7 3.05-.95 0-3.6-1.05l-1.05-.4.05.05q-1.6-.65-2.4-.7.25 1.8 2.1 4.4 2.25 3.05 4.45 3.05l4.8-.9q4.1-1.3 4.1-3.25l-.8-4.8M72.6 18.5q2.15 1.1 3.05 2.6-.9-1.5-3.05-2.6M65 65.2q-2.9 1.55-3.25 1.55-2.05 0-3.6-2.45-1.2-1.9-1.65-4.5l.9.55q2 1.05 8.2 3.15l-.6 1.7m3.65 12.2L68 77l.65.4" fill="#ffdf73" fill-rule="evenodd"/><path d="m110.8 32.5-1.4-1.9.3-.15 1.4 1.4-.3.65M93.75 51.3l.6.5-.85-.45.25-.05m2 1.95 1.85.3.3.75.2.25-1.8.55-.55-.1v-.05l.05-.05.15-.75-.05-.55-.15-.35m4.35-13.35-.95-.2.25-.35.7.55M69.4 70.2l-.1.4h-.05v-.4h.15m35.65-2.55-.85-2.75.4-.1.6.25.15 1.25-.3 1.35m-76.7-39.4h-.1.1m39.2 48.45.1-.1.35.4-.3-.2-.15-.1m-8.8.3L57 78.4l.15-.35q.4-.75 1-1.15l.6.1m17.55 2.5-.15-.05h.15v.05" fill="#fcc95d" fill-rule="evenodd"/><path d="M115.8 79.1q0 4.5-.8 5.95-.9 1.6-3.75 1.6-1.2 0-2.7-.6-1.9 0-3.2-.75l-3.15 2.4-.25-.25q-2.25-2.1-2.25-4.35 0-2.55 1.05-5.25 1.1-2.9 1.7-5.85l-1.85-.9-.85.65.35 1.55q0 1.8-.9 3.05-.8 1.1-1.7 1.1-1.15 0-2.55-1.6l-.5-.65q-3.05 1.65-5.05 1.65l-3.1-.6-1.95-.7-2.85 1.75-2.7 1q-.6 0-1.4-.8l-.7-.8.7-5.5.4-.2-.1.95q0 .95 1.05 1.95t1.95 1l2.2-.5v-.05l-.05-.05.35-.25q3.3-2.5 7.1-1.85l1.2.1q-.1-1-1.25-2.3-1.15-1.3-2.45-1.6l2.4-.25 3.05-.3.15.1.1.05 3.8 2.4q1.4.8 1.95.8h.35l.95-.25.35-.25q.65-.55 1-1.65l.65.4.15.2.3.05.7.1.85-.25-.75 2.45-.05.2q-.9 2.15-1.1 6.15.85 1.65 3.1 2.8 2.35 1.2 3.9 1.2 1.1 0 4.1-1.9l2.05-1.35M61.55 20.7q2.45-1.1 4.85-1.1 3.35 0 7.85 2.7 2.45 1.45 5.9 4.05.9.6 1.6 1.8 1.05 1.9 1.65 5.25.4 2.45.6 6.7l-1.55-4.55-.9-2.9-.05-.15-.85-2.55Q77.9 23 72.8 23.9q-3.35-2.2-8.25-2.2-1.35 0-3.4 1.05l-2.8 1.65q-1.45.95-3.15 2.25l-1.05.85-.25-.35 3.5-3.8q2.1-1.7 4.15-2.65m26.2 14.2-.25-2.6-.3-.6-.05-.1q-.5-1-.5-2.5l.1-.65q.25-1.1 1.15-2.65.9-1.6 2.5-3.7 3.95-5.25 6.25-5.25 1.4 0 3.1 1.55 1.45 1.3 1.85 2.3-.9-.6-1.35-.85-.95-.6-2.1-.6-.9 0-2.55 1.25l-3.1 2.8-1.45 1.6-1.25 1.7q-1.9 2.9-1.9 5.5l-.15 2.8m23.1 17.4.7-1.15-.3 1.2-.05.05-1.25 3.05.05.05-.25.2q-.7.55-1 1.25-2.2 4.35-5.15 4.35-1.05 0-1.05-.6l.45-.45.45-.2q4.15-1.35 4.65-5.95l.05-.65-.05.65q-.5 4.6-4.65 5.95l.2-.2 2-2.3q1.4-1.9 1.85-3.5-1.3-.35-3.3-2.9l-.05.35.1.15q.7.85.7 2.6 0 1.1-.6 2.7-.8 2-1.9 2-.4 0-2.1-1.8h-.05l-.5-.55-1.65-2-.05-.05-.2-.25-.3-.75h.35q2.35 0 3.7-2.1l1.5-3 .45-1.1.15.45.65 1.4q1.25 2.3 3.3 3.8l.45.35v.1h.6l.85-.25 1.25-.9M85.7 44.6v.3-.3m6.45 5 .05.05.2.2.3.35.25.3.8.8-.25.05q-2.15-1-4.4-1-2.6 0-6 1.4-2.45 1-3.4 2.2-.6.75-.6 1.6 0 .4.85 1.1l.75.5q1.15.75 1.8.95l.4.05q1.35 0 1.65-1.2.35-1.55 1.15-2l1.55 2.95q1 1.65 2.75 1.65 1.3 0 1.3-1.1l-.3-1.7q-.15-1.1.7-1.6 1.15 1.15 2.05 1.35l.35.05q.9 0 1.4-.85l.1-.25-.05.4q2.1 3.3 3.05 4.05L95 57.5q-1.7 3.35-7.85 3.35-3.75 0-5.3-1.2-.75-.55-1.3-1.7h-.05q-.8-.55-1.55-.55-2.15 0-4.75 2.85-2.2 2.4-3.5 5.35-.4.8-1.3 4.6h-.15l.05-1.2q.4-4.7 3.95-9.75 3.3-4.7 6.45-5.3-3.15.6-6.45 5.3Q69.7 64.3 69.3 69L68 73.8l-.35 1.2-.2.8.2.8-.1.1-1.05-.95-.05-.5-.05-1.3q0-7.3 3.05-12.7Q73.8 53.5 84.4 49.6h7.75m7-9.9.2-.35h.05l-.25.35m10.25-9.1.25-.2.05.05-.3.15m-5.45 21.45q-1 2.55-4.05 2.55l-1.15-.1q.85 1.65 1.7 2.5.8.8 1.6.8 2.4 0 2.4-3.1 0-1.5-.5-2.65M97.3 70.4q-3.35 1.85-5.8 1.9 2.45-.05 5.8-1.9M85.05 84.8l1.05.4q2.65 1.05 3.6 1.05 2.8 0 7-3.05l.65-.55.8 4.8q0 1.95-4.1 3.25l-4.8.9q-2.2 0-4.45-3.05-1.85-2.6-2.1-4.4.8.05 2.4.7l-.05-.05m20.3.5q-2.8-1.65-2.7-6.95-.1 5.3 2.7 6.95M88.9 88.05q3.7-.2 7.65-2.7-3.95 2.5-7.65 2.7M60.5 6l.1-.3.15.05-.25.25M28.25 28.2l.1.05h-.1v-.05M67.4 58.8l-.05.05-.05-.05h.1M56 53.45l.35-.05-.35.1v-.05M66.65 83.9l3.1.45q3 0 4.5-1.65.8-.85 1.9-3.25l.15.05-.2.95-1.15 7.1q-1.1 3.15-4.25 3.15l-1.6-.25q-1.6-.6-2.55-2.45l-1.05-2.95-.45-.8-.35-.95 1.95.6m9.45-3.45q-1.9 7.6-5.85 7.6H70q-1.6-.1-3.2-1.55l-1.3-1.45 1.3 1.45q1.6 1.45 3.2 1.55h.25q3.95 0 5.85-7.6" fill="#d19e32" fill-rule="evenodd"/><path d="m115.4 35.7.05-.4v.4h-.05m1.45 25.6v.5l-.25-.35.25-.15m-3.3 4.85-.1.3-.15-.35.25.05M37 41.95l.25-.2v.6l-.25-.4M28.75 57.5h-.5l.1-.2.4.2" fill="#95680d" fill-rule="evenodd"/><path d="m109.65 24.85 3.95 5.45q4.55 6.55 4.55 8.2 0 .85-.4 1.65l-1.2-.3q5.6 4.55 5.6 10.7 0 .6-.2.8-1.85-.3-1.6-1.2h-.2q1.6 6.85 1.6 10.95 0 1.95-.6 2.7-.75-.35-.6-1.6l-.2-.2-.2 1.3.4 5.3q0 1.7-.55 2.95l-.85 1.85q-.65-.9-2-3.8v-.2q-.2 1.9-1.2 2.8l-.9-.9q-.6-2.65-1.6-4.85l.1-.3.1-.6q.75-3.8.15-7.4h.2l2.6 3.3.25.35v-.5l-1.2-12.15v-1q1.1 0 3.65 1-.45-2.9-3.35-7.05-2.75-3.95-2.75-4.8 0-.85.85-1.35.7-.55 1.35-.25h.05v-.4l-2.35-2.8-1.75-1.65v-.35q0-2.2-1.7-5.65M44.5 77.9l-.9 2.35q-2.75 6.65-6.65 10.65-.45 2.55-1.6 2.55-1.35 0-2.85-4l-1.95-5.8q-1.15 1.6-3.1 7.25-5.6-11.5-5.9-15.45l-.05.05Q21 77 21 81h-.5q-1.2-2.15-1.2-9.1l.2-7.9q0 2.1-3.45 7.95Q12.5 78 10.5 78.5v-7q1.05-6 4.95-13.7l5.05-10.3-5.5 5q12.5-22.5 13.5-24l-.25-.25h.1l11.9-5L38 29q.65-.7 4-2.5l.25.05q0 1.85-1 2.95v1.75l1.35-.6q-.45 1.85-.45 4.65 0 6.55 1.8 11.45 3.45 3.75 3.45 12.7 0 10.1-2.9 18.45M2.1 46.35h-.3l.05-.05.25.05m114.45-6.5-1-.75.95.75h.05m-79.3 2.5v-.6l-.25.2q-3 2.25-8.65 15.35l-.1.2h.5l2.5-1.75 2-1.95-1.55 6.65-1.95 6.8.15.1q4.15-5.45 6.1-9.1 1.85-3.85 3.5-6.75.05 2.25 1.25 4.5v-2.5q-.85-11.2-1.25-12.25-.65.2-1.15 1l-.85 1.25v.25l-.25-1.4m-4 11.45v-.25.25" fill="#ab7e23" fill-rule="evenodd"/><path d="M101.3 61.5q.95 1.25 1.2 3.65l-.15.1-.25.15-.3-1.2q.35-1.4-.5-2.7m-19.95 7.75q.15-1.45-.9-2.8l-1.25-1.7h.3q2.9 2.6 3.7 4l-1.85.5" fill="#cecab0" fill-rule="evenodd"/><path d="M102.5 65.15q-.25-2.4-1.2-3.65l-.1-.15-.7-1-.35-.6h1.2q2 2 2.55 4.35l.05.15-1.45.9m-8.45-4.3q.55 0 1.85 1.8 0 .5-.55.5l-1.85-1.8q0-.5.55-.5m-14.85 3.9-.3-.55q1.9.05 3.4.95 1.65.95 2.8 3.4l.05.05h-.65l-1.3.15q-.8-1.4-3.7-4h-.3m19.75-1.55-.6-.8q0-.5.55-.5 1.4 0 1.6 2.45l.2 2.65q0 1.65-1.05 1.65l-.6-.85.45-3q0-.85-.55-1.6M57.2 49.15l.05.05-.05.15v-.2" fill="#fff" fill-rule="evenodd"/><path d="M94.35 51.8q1.05.65 1.4 1.45l.15.35.05.55-.15.75-.05.05V55l-.1.4-.05.05-.1.25q-.5.85-1.4.85l-.35-.05q-.9-.2-2.05-1.35-.85.5-.7 1.6l.3 1.7q0 1.1-1.3 1.1-1.75 0-2.75-1.65l-1.55-2.95q-.8.45-1.15 2-.3 1.2-1.65 1.2l-.4-.05q-.65-.2-1.8-.95l-.75-.5q-.85-.7-.85-1.1 0-.85.6-1.6.95-1.2 3.4-2.2 3.4-1.4 6-1.4 2.25 0 4.4 1l.85.45" fill-rule="evenodd"/><path d="m101.8 64.2.3 1.2.05 1.3-.25 2.35q-.35 1.1-1 1.65l-.35.25-.95.25h-.35q-.55 0-1.95-.8L93.5 68l-.1-.05-.15-.1Q88.7 64.8 86.7 64.8h-.2q-1.6.05-1.6 1.2l.75 1.1.8 1.4-1.3.1-.05-.05q-1.15-2.45-2.8-3.4l-.6-1.55q0-1 1.8-1l3.1.6q1.4 0 3.6-1.5 2.2-1.55 3.2-1.55l1 .45.15.1 1.25-.15q4.85 0 6 3.65m-7.75-3.35q-.55 0-.55.5l1.85 1.8q.55 0 .55-.5-1.3-1.8-1.85-1.8M89.1 63.5q-.7 0-.7.55l4.9 3.1 2.45 1.75q1.8 1.2 3.6 1.2 1.15 0 1.15-.55t-.9-.6q-1.5-.15-2.65-.8l-2.25-1.5q-3.95-3.15-5.6-3.15m9.85-.3q.55.75.55 1.6l-.45 3 .6.85q1.05 0 1.05-1.65l-.2-2.65q-.2-2.45-1.6-2.45-.55 0-.55.5l.6.8m-.6.6-3.8-3.1 3.8 3.1" fill="url(#v)" fill-rule="evenodd"/><path d="M89.1 63.5q1.65 0 5.6 3.15l2.25 1.5q1.15.65 2.65.8.9.05.9.6 0 .55-1.15.55-1.8 0-3.6-1.2l-2.45-1.75-4.9-3.1q0-.55.7-.55m-2.6 1.3-.4.05v.05q0 .35 1.75 1.95l1.75 1.35.6-.05-2.4.25-1.35.1-.8-1.4-.75-1.1q0-1.15 1.6-1.2" fill="url(#w)" fill-rule="evenodd"/><path d="M86.5 64.8h.2q2 0 6.55 3.05l-3.05.3-.6.05-1.75-1.35q-1.75-1.6-1.75-1.95v-.05l.4-.05" fill="#992b36" fill-rule="evenodd"/><path d="M67.95 92.3Q63.2 90.5 58 87.4l.75-.6Q61 85.15 61 84.35q0-1.1-5-3.6l1-2.35 1.75-1.4.7-.7.15-.15.55-.6.85-1.05 1.1-1.65.6-1.2.4-1.15.45-1.25-3.45.45q-2.85 0-3.95-2.4-1.4-2.85-1.4-5.5 0-1.3.3-2.65l.15-.65 1.3 1.3q.45 2.6 1.65 4.5 1.55 2.45 3.6 2.45.35 0 3.25-1.55l.6-1.7 1.25-3.55.35-.8q0 1.7 1.8 2l.45.1q-3.05 5.4-3.05 12.7l.05 1.3Q65.2 78.9 65.2 80.3q0 1.8 1.45 3.6l-1.95-.6.35.95.45.8L66.55 88q.95 1.85 2.55 2.45l-1.15 1.85m-9.4-90-.3.45L65.4.25q-.6.3-1.15.95l5.4-.15q8 .4 18.05 5.45h-8.1q-3.65 1.75-5.9 3.3-3.25-2.45-7.3-2.45-5.8 0-10 3.5-.95.75-2.45 2.95l-.75 1.1q-1.7-.85-1.7-1.65 0-2.9 9-7.25l.25-.25-.15-.05Q58.6 5 57 5q-.25.25-.25-.4 0-.8 1.8-2.3m23.2 25.85q.45-.55.45-1.55 0-1.35-.9-2.9l.15-.15 2.55 3.8-3.5-7.7.1-.35q.2 1.35 4.2 4.8.65.6 3.1 1.7-.9 1.55-1.15 2.65l-.1.65q0 1.5.5 2.5l.05.1.3.6.25 2.6.05 1q0 2.6-1.15 6.35L84.4 41.2l-.4-1.1q-.2-4.25-.6-6.7-.6-3.35-1.65-5.25M67 11.75q-.65.6-1.1 1.95l-.3 1.25-3.6-.6q-6.1 0-9.9 4.3l-.1-.55q0-1.05.4-1.6 2.45-2.1 6.05-3.45 3.8-1.4 6.9-1.4l1.65.1m-1.5 4.7.1.85q-3.45-1.05-3.85 1.95l-.2 1.45q-2.05.95-4.15 2.65l-3.5 3.8q-2.65-3.05-2.65-4.65 0-1.6 1.5-2.75l-.2-.25q4.15-3.25 9.85-3.25l3.1.2m25.55 8.45 1.45-1.6 3.1-2.8 1.7.8q1.1.7 1.35 1.3-2.45 0-4.2 1.45l-1.05-.1q-.9 0-2.35.95m7.25.3q1.55-.15 2.25.8l.75 1.3h-.45q-.95 0-2.05.65 1.1-.65 2.05-.65h.45l.45 1.2q.4.9 5.25 4.25 4 6.1 4 12.25 0 3.95-.95 7.05-2.05-.85-2.95-3.65l-1.45-7.8-.8-3.05-.65-1.55-.35-.55-.15-.15.15.1.15-.25-.9-2.9q-1.4-2.5-5.5-3.4v-.05l1.2-.85q-.3-1.85-1.85-1.85l-.95.25q1.3-.9 2.3-1.15m-13.6 3.3v1h-.4l-.8-.6.8.6h.4v-1m.4 14.55.6 1.55-.45.3-.85.2-.2-.25L80 40q-5-5.4-8.95-6.7-3-.95-5.65-.95-3.55 0-7.55 3.25l-1.45 1.25q-1.8 1.65-2.95 3.35l-2.2-.7q.85-2.5 3.25-7.55 2.55-5.3 3.85-7.55l2.8-1.65-.75 1.75q-1.05 1.05-1.9 4.15-.5 1.65-.7 3.1l3.8-1.2q3.35-1.2 5.25-1.2 5.4 0 11 6.9l3.9 4.7q1.8 1.85 3.35 2.1M58.25 2.75 58 2.8h.2l.05-.05M65 65.2l-1.45 4.05L65 65.2" fill="#efc054" fill-rule="evenodd"/><path d="m58 87.4-1.1-.65-12.4-8.85q2.9-8.35 2.9-18.45 0-8.95-3.45-12.7-1.8-4.9-1.8-11.45 0-2.8.45-4.65l-1.35.6V29.5q1-1.1 1-2.95L42 26.5q-3.35 1.8-4 2.5l2.25-5.75-11.9 5-.1-.05q0-1.05 3.1-5.25 3.05-4.2 5.65-6.7v-1.5h-.5Q34.35 16.1 32 16.8q2.3-2.05 6.45-7.25 5.05-6.2 7.1-7.75v.7L44.1 6.95Q46.35 3.3 51.6 0v2.8L50.4 5v.2q1.85-2.1 9.4-4.8l-1.25 1.9q-1.8 1.5-1.8 2.3 0 .65.25.4 1.6 0 3.6.7l-.1.3q-9 4.35-9 7.25 0 .8 1.7 1.65l.75-1.1q1.5-2.2 2.45-2.95 4.2-3.5 10-3.5 4.05 0 7.3 2.45 2.3 1.7 4.2 4.65l2.6 5.2 3.5 7.7-2.55-3.8-.7-1-3.3-4.45q-3.3-4-7.15-5.5l-.85-.3-2.45-.55-1.65-.1q-3.1 0-6.9 1.4-3.6 1.35-6.05 3.45-.4.55-.4 1.6l.1.55q3.8-4.3 9.9-4.3l3.6.6q2.55.8 5.3 2.75-2.5-.95-5.4-1.25l-3.1-.2q-5.7 0-9.85 3.25l.2.25q-1.5 1.15-1.5 2.75t2.65 4.65l.25.35 1.05-.85q1.7-1.3 3.15-2.25-1.3 2.25-3.85 7.55-2.4 5.05-3.25 7.55l2.2.7q1.15-1.7 2.95-3.35l1.45-1.25q4-3.25 7.55-3.25 2.65 0 5.65.95Q75 34.6 80 40l4.2 4.85.2.25.85-.2.45-.3v.3-.3l-.6-1.55-.7-1.85 2.25 1.05q1.15-3.75 1.15-6.35l-.05-1 .15-2.8q0-2.6 1.9-5.5l1.25-1.7q1.45-.95 2.35-.95l1.05.1q1.75-1.45 4.2-1.45 3.6 0 6.55 3.1l3.5 3.7.95 1-.25.2q-2.3-2.6-6.2-3.1l-.1-.05q-.35-.75-1.65-1.5-1.4-.85-2.4-.85l-.75.1q-1 .25-2.3 1.15l.95-.25q1.55 0 1.85 1.85l-1.2.85v.05q4.1.9 5.5 3.4l.9 2.9-.15.25-.15-.1.15.15.35.55.65 1.55.8 3.05 1.45 7.8q.9 2.8 2.95 3.65l.8.25-1.25.9-.85.25h-.4l-.2-.1-.45-.35q-2.05-1.5-3.3-3.8l-.65-1.4-.15-.45-.45 1.1-1.5 3q-1.35 2.1-3.7 2.1h-.35l-1.85-.3q-.35-.8-1.4-1.45l-.6-.5-.8-.8-.25-.3-.3-.35-.2-.2-.05-.05-.6-.6q-.65-.75-.8-1.6l-.5-.05L89 47.3h-.2l-2.6.45h-.1v.05q-1.7.45-3.55 1.35l-.5.25-.7.35-2.05.6-2.25.8-.45.2q-1.95.8-3.5 1.75-4.05 2.35-5.7 5.7h-.1l.05.05-.15.3-.35.8-1.25 3.55q-6.2-2.1-8.2-3.15l-.9-.55-1.3-1.3-.15.65q-.3 1.35-.3 2.65 0 2.65 1.4 5.5 1.1 2.4 3.95 2.4l3.45-.45-.45 1.25-.4 1.15-.6 1.2L61 74.5l-.85 1.05-.55.6-.15.15-.7.7-.6-.1q-.6.4-1 1.15l-.15.35-1 2.35q5 2.5 5 3.6 0 .8-2.25 2.45l-.75.6m32.95-56.15q.6-1.25 2.45-2.85l1.05-.9.1-.05.95-.7-.95.7-.1.05-1.05.9q-1.85 1.6-2.45 2.85m5.25-1.2 1.4-1.2-1.4 1.2m-17.1 11.3q3.45 5 5.7 5l.45-.1q.4-.35.45-1.35-.05 1-.45 1.35l-.45.1q-2.25 0-5.7-5m2.95 6.85 4.05-.45-4.05.45m18.4-7.95q.9.95 1.7 3l.25.8.45 1.35.2.55.55 1.4-.55-1.4-.2-.55-.45-1.35-.25-.8q-.8-2.05-1.7-3l-.35-.35.1.1.25.25m-1.3-.55.95.2-.7-.55h-.05l-.2.35M86.7 44.55q4.75-6.2 8.4-6.2 1.9 0 3.3.55l.95.45-.95-.45q-1.4-.55-3.3-.55-3.65 0-8.4 6.2m-34.15-15.7q.7-.65 1.6-1.35-.9.7-1.6 1.35M46.5 27.5q1.15-2.5 2.6-4.4 1.55-2.15 3.45-3.6-1.9 1.45-3.45 3.6-1.45 1.9-2.6 4.4m4.5-9.65.95-.95.45-.4-.45.4-.95.95m-6.9-10.9q-.9 1.4-1.35 2.85.45-1.45 1.35-2.85m1.1 23.55.75-1.75-.75 1.75m5 15.05q-3.6-2.35-3.6-9.15l.2-.65-.2.65q0 6.8 3.6 9.15m-2.1-10.5q.15-.9.65-1.75-.5.85-.65 1.75M46.8 23.3q-2.95 4.25-3.65 5.65-.35.7-.55 1.7.2-1 .55-1.7.7-1.4 3.65-5.65m10.4 26.05.05-.15-.05-.05v.4l-.55 1.4.55-1.4v-.2m-.8 2.05q-.4.6-.4 1.7v.35-.35q0-1.1.4-1.7m-.4 2.1.35-.1-.35.05v.05q.1 3.1 2.6 5.05 1.85 1.45 6.85 3.25-5-1.8-6.85-3.25-2.5-1.95-2.6-5.05m-2.6-.95q-.55.65-1.25 2.65l-.95 2.75.95-2.75q.7-2 1.25-2.65m3-2.6-.85 2.1-.2.5q-.7 1.85-1.1 3.55-.65 2.6-.65 4.85 0 4.2 1.8 7.05 1.9 3 4.9 3l2.8-.5-2.8.5q-3 0-4.9-3-1.8-2.85-1.8-7.05 0-2.25.65-4.85.4-1.7 1.1-3.55l.2-.5.85-2.1m-5.3 8.1.05.05.05-.15-.1.1-1.45-1.55q-.45-.7-.45-2.15 0-2.25 1.35-4.35-1.35 2.1-1.35 4.35 0 1.45.45 2.15l1.45 1.55m.05.05q-1.2 2.25-1.45 4.95.25-2.7 1.45-4.95m9 17.45q-4.7-.6-7.55-3.3-2.35-2.3-2.85-5.65l-.15-1.4.15 1.4q.5 3.35 2.85 5.65 2.85 2.7 7.55 3.3m-6.95 4.9L57 78.4l-3.8 2.05" fill="#cb9730" fill-rule="evenodd"/><path d="m27.45 90.9-.35.9q-1.85 5.3-2.7 5.3-1.8 0-3.15-2.95l-2.55-6.3v6.75q.1 5.6-1.4 6.1l-5.85-8.25q-.55-.45-.55-2.4-.05-2-.65-2.6-.3.45-1.05 4.7-.65 3.6-2.15 4.15-2.2-6.75-2.2-9.75 0-3.6.65-5.6l1.55-4.15h-.2q-.7 1.25-4.25 2.85l1.45-3.75q0-1-2-5.1Q0 66.75 0 59.95q0-7.4 3.85-14.8h-.2l-1.55 1.2-.25-.05q.3-.95 6.4-9.6-.8.8-1.8.8.6-5.05 12.35-12.8 5.9-3.9 12.35-7.25l.2-.15.65-.5q2.35-.7 4.5-2.05h.5v1.5q-2.6 2.5-5.65 6.7-3.1 4.2-3.1 5.25v.05l.25.25q-1 1.5-13.5 24l5.5-5-5.05 10.3q-3.9 7.7-4.95 13.7v7q2-.5 5.55-6.55Q19.5 66.1 19.5 64l-.2 7.9q0 6.95 1.2 9.1h.5q0-4 .5-5.5l.05-.05q.3 3.95 5.9 15.45m84.1-39.75.3-.6q.9-2.5.9-7 0-6.5-1.4-9.85l-.55-1.2.3-.65.25-1 1.75 1.65 2.35 2.8-.05.4q-.65-.3-1.35.25-.85.5-.85 1.35 0 .85 2.75 4.8 2.9 4.15 3.35 7.05-2.55-1-3.65-1v1l1.2 12.15-.25.15-2.6-3.3h-.2q.6 3.6-.15 7.4l-.1.6-.25-.05q-2.55-5.25-2.55-6.55 0-2.9.85-5l-1.65.9 1.25-3.05.05-.05.3-1.2m.25 2.85.6-1.05-.6 1.05M37 41.95l.25.4.25 1.4v-.25l.85-1.25q.5-.8 1.15-1 .4 1.05 1.25 12.25V56q-1.2-2.25-1.25-4.5-1.65 2.9-3.5 6.75-1.95 3.65-6.1 9.1l-.15-.1 1.95-6.8 1.55-6.65-2 1.95-2.5 1.75-.4-.2Q34 44.2 37 41.95M33.25 53.8v-.25.25" fill="#886310" fill-rule="evenodd"/><path d="m87.7 6.5 2 1.05q4.05 2.2 14.9 9.4 1.75 2 3.85 5.7l.3.55.9 1.65 3.95 5.45q4.55 6.55 4.55 8.2 0 .85-.4 1.65l-1.2-.3q5.6 4.55 5.6 10.7 0 .6-.2.8-1.85-.3-1.6-1.2h-.2q1.6 6.85 1.6 10.95 0 1.95-.6 2.7-.75-.35-.6-1.6l-.2-.2-.2 1.3.4 5.3q0 1.7-.55 2.95l-.85 1.85q-.65-.9-2-3.8v-.2q-.2 1.9-1.2 2.8l-.9-.9q.75 3.5.75 7.8 0 4.5-.8 5.95-.9 1.6-3.75 1.6-1.2 0-2.7-.6-1.9 0-3.2-.75M44.5 77.9l-.9 2.35q-2.75 6.65-6.65 10.65-.45 2.55-1.6 2.55-1.35 0-2.85-4l-1.95-5.8q-1.15 1.6-3.1 7.25l-.35.9q-1.85 5.3-2.7 5.3-1.8 0-3.15-2.95l-2.55-6.3v6.75q.1 5.6-1.4 6.1l-5.85-8.25q-.55-.45-.55-2.4-.05-2-.65-2.6-.3.45-1.05 4.7-.65 3.6-2.15 4.15-2.2-6.75-2.2-9.75 0-3.6.65-5.6l1.55-4.15h-.2q-.7 1.25-4.25 2.85l1.45-3.75q0-1-2-5.1Q0 66.75 0 59.95q0-7.4 3.85-14.8h-.2l-1.55 1.2h-.3l.05-.05q.3-.95 6.4-9.6-.8.8-1.8.8.6-5.05 12.35-12.8 5.9-3.9 12.35-7.25l.2-.15.65-.5q2.3-2.05 6.45-7.25 5.05-6.2 7.1-7.75v.7L44.1 6.95Q46.35 3.3 51.6 0v2.8L50.4 5v.2q1.85-2.1 9.4-4.8l-1.25 1.9-.3.45L65.4.25l.65-.25m15.4 23.55-.7-1-3.3-4.45q-3.3-4-7.15-5.5m-.85-.3L67 11.75m3.9 5.95q-2.5-.95-5.4-1.25l-3.1-.2q-5.7 0-9.85 3.25-1.9 1.45-3.45 3.6-1.45 1.9-2.6 4.4M84 40.1l.4 1.1.7 1.85.6 1.55v.3q-.05 1-.45 1.35l-.45.1q-2.25 0-5.7-5m4.9-14-2.55-3.8M95.6 20.5l-3.1 2.8-1.45 1.6-1.25 1.7q-1.9 2.9-1.9 5.5l-.15 2.8m7.85-14.4q1.65-1.25 2.55-1.25 1.15 0 2.1.6.45.25 1.35.85m-.3 6.6 1.8.15q-.35-.75-1.65-1.5-1.4-.85-2.4-.85l-.75.1q-1 .25-2.3 1.15m2.8 1.6q1.1-.65 2.05-.65h.45m9.55 25 .7-1.15m.3-.6q.9-2.5.9-7 0-6.5-1.4-9.85l-.55-1.2-1.4-1.9q-2.3-2.6-6.2-3.1l-.1-.05m-4.3.5-1.2.85m0 .05-1.4 1.2m-.7-3.3-.95.7-.1.05-1.05.9q-1.85 1.6-2.45 2.85M83.5 28.9l.8.6h.4v-1M84 40.1l-1.55-4.55-.9-2.9-.05-.15-.85-2.55Q77.9 23 72.8 23.9q2.6 1.65 4.25 4.6m9.05 19.25-4.05.45m4.15-.45 3.7.3m4.45 3.75q1.05.65 1.4 1.45l.15.35.05.55-.15.75-.05.05m7.85-7.6-.55-1.4-.2-.55-.45-1.35-.25-.8q-.8-2.05-1.7-3l-.25-.25-.1-.1-.95-.2m.2-.35-.95-.45q-1.4-.55-3.3-.55-3.65 0-8.4 6.2m-.6 3.2h.1m13.9-7.85-.7-.55h-.05m1.1.9-.35-.35m11.25-9.05-.25 1-.3.65m.55-1.65v-.35q0-2.2-1.7-5.65m-6.05 22.5.15.45.65 1.4q1.25 2.3 3.3 3.8l.45.35.2.1h.4l.85-.25 1.25-.9m5.7-12.45h-.05l-.95-.75 1 .75m-3.1 26.6q1 2.2 1.6 4.85m-2.65-18.35-.6 1.05m-.2.55q-.85 2.1-.85 5 0 1.3 2.55 6.55l.15.35m-5.3-13-.05.65q-.5 4.6-4.65 5.95l-.45.2m5.15-6.9v.1m-4-1.95.1.15q.7.85.7 2.6 0 1.1-.6 2.7-.8 2-1.9 2-.4 0-2.1-1.8h-.05l-.5-.55-1.65-2m-2.4.4-.1.4-.05.05-.1.25q-.5.85-1.4.85l-.35-.05q-.9-.2-2.05-1.35-.85.5-.7 1.6l.3 1.7q0 1.1-1.3 1.1-1.75 0-2.75-1.65l-1.55-2.95q-.8.45-1.15 2-.3 1.2-1.65 1.2l-.4-.05q-.65-.2-1.8-.95l-.75-.5q-.85-.7-.85-1.1 0-.85.6-1.6-3.15.6-6.45 5.3Q69.7 64.3 69.3 69l-.05 1.2v.55q.15 3.05 1.6 6.65m30.45-15.9q.85 1.3.5 2.7l.3 1.2.25-.15m.15-.1 1.45-.9-.05-.15q-.55-2.35-2.55-4.35h-1.2l.35.6m.7 1 .1.15m3.9 3.55-.05-.65m-3.05 1 .05 1.3-.25 2.35.65.4.15.2.3.05m1.55-.15.5-1.9.3-1.35-.15-1.25m-.65 4.5L103.8 72l-.05.2q-.9 2.15-1.1 6.15-.1 5.3 2.7 6.95M97.6 53.55l.3.75.2.25m-4.6-3.2.85.45M82.3 65.15l-.6-1.55q0-1 1.8-1l3.1.6q1.4 0 3.6-1.5 2.2-1.55 3.2-1.55l1 .45.15.1 1.25-.15q4.85 0 6 3.65M79.7 53.95q.95-1.2 3.4-2.2 3.4-1.4 6-1.4 2.25 0 4.4 1m-.25 16.5Q88.7 64.8 86.7 64.8h-.2q-1.6.05-1.6 1.2l.75 1.1m4.55 1.05 3.05-.3.15.1.1.05 3.8 2.4q1.4.8 1.95.8h.35l.95-.25.35-.25q.65-.55 1-1.65m-15.45-.55 1.35-.1 2.4-.25M77.8 71l2.45-1.3.9-.35.2-.1q.15-1.45-.9-2.8l-1.25-1.7-.3-.55q1.9.05 3.4.95 1.65.95 2.8 3.4l.05.05 1.3-.1m-5.1.75 1.85-.5 1.3-.15h.65m-2.3 5.7.35-.25q3.3-2.5 7.1-1.85l1.2.1q2.45-.05 5.8-1.9m-20.6 6.3-.25 1.65m18.1-17.65 3.8 3.1m-13.3 21 1.05.4q2.65 1.05 3.6 1.05 2.8 0 7-3.05l.65-.55m-.8 2.7q-3.95 2.5-7.65 2.7M52.4 16.5q2.45-2.1 6.05-3.45 3.8-1.4 6.9-1.4l1.65.1m2.65-10.7-.6-.05h.6v.05q8 .4 18.05 5.45M65.4.25q-.6.3-1.15.95l5.4-.15M72.8 23.9q-3.35-2.2-8.25-2.2-1.35 0-3.4 1.05l-2.8 1.65q-1.45.95-3.15 2.25l-1.05.85q-.9.7-1.6 1.35m23.1-7.75q-.9-1.5-3.05-2.6M58.25 2.75l-.05.05H58l.25-.05M42.75 9.8q.45-1.45 1.35-2.85m8.3 9.55-.45.4-.95.95m-8.4 12.8q.2-1 .55-1.7.7-1.4 3.65-5.65m1.95 10q-.5.85-.65 1.75m-1.3.7-.2.65q0 6.8 3.6 9.15m-4.25-16.8-.75 1.75m-.7 47.4q2.9-8.35 2.9-18.45 0-8.95-3.45-12.7-1.8-4.9-1.8-11.45 0-2.8.45-4.65m14.6 18.7v.2l-.55 1.4m.55-1.6v-.2m10.2 9.65q1.65-3.35 5.7-5.7 1.55-.95 3.5-1.75l.45-.2 2.25-.8 2.05-.6m-14 9.1.05-.05h-.1m.05.05-.15.3m.45 17.45-.2-.8.2-.8m.35-1.2 1.3-4.8m-3.7-5.5 1.25-3.55.35-.8M65 65.2l.6-1.7m-2.05 5.75L65 65.2m-1.45 4.05-.45 1.25-.4 1.15-.6 1.2L61 74.5l-.85 1.05-.55.6m-.15.15-.7.7L57 78.4l-3.8 2.05m24.2-9.25.4-.2m-.15-2-.25 2.2-.7 5.5M56 53.45v-.35q0-1.1.4-1.7m-.4 2.1q.1 3.1 2.6 5.05 1.85 1.45 6.85 3.25M56 53.5v-.05m7.1 17.05-2.8.5q-3 0-4.9-3-1.8-2.85-1.8-7.05 0-2.25.65-4.85.4-1.7 1.1-3.55l.2-.5.85-2.1m-5.2 8 .95-2.75q.7-2 1.25-2.65m-2.3 5.5.05.05.05-.15m-.1.1-1.45-1.55q-.45-.7-.45-2.15 0-2.25 1.35-4.35m-.95 15.2.15 1.4q.5 3.35 2.85 5.65 2.85 2.7 7.55 3.3M49.7 63.05q.25-2.7 1.45-4.95M64.7 83.3l.35.95m.45.8 1.3 1.45q1.6 1.45 3.2 1.55h.25q3.95 0 5.85-7.6l.2-.95m0-.05v.05M68 77l-.35-.4m.35.4.65.4" fill="none" stroke="#000" stroke-linecap="round" stroke-linejoin="round" stroke-opacity=".4" stroke-width=".05"/><path d="m98.15 54.6-.05-.05m-2.35.4V55" fill="none" stroke="red" stroke-linecap="round" stroke-linejoin="round" stroke-width=".05"/></g><g id="q"><path d="M33.5 8.5q.15-2.7 3.2-4.9l1.65-1q1.9-1 3.6-1l.95.2.1.1.25.25.65.9-.1-.05-1.1-.1-1.6.15q-1 .2-1.7.75-3.5.85-5.9 4.7m12.35-.65.55 1.4-.05.1-.5-1.4v-.1m.1 2.5-.05.1-1.45 2.9q-1.35 2.1-3.7 2.1h-.35l-1.85-.3q-.35-.8-1.4-1.45l-.6-.5-.8-.8-.25-.3q2.1 1.25 3.75 1.25 2.75 0 5.3-1.85l1.05-.85h.05l.3-.3M15.9 15q-4.05 2.35-5.7 5.7h-.1q-2.8.45-6-2.1l-.05-.05Q.2 15.45 0 11.45v-.2l.05-.15-.05-.05Q0 9 .55 7.3q.7-2.2 2.25-3.9l.65-.65L4.7 1.8q.15-.15.4-.25Q7.65 0 11.25 0q2.15 0 3.6 1.3.95.75 1.35 1.8l.05.2q1.45.5 3.15 2.1 2.1 1.95 2.1 3.15l-.55 2.1q-3.85-5.3-7.35-7.4l-1.8-.9-.2-.05-.05.05q-6.7 0-10.15 5.9L2.9 9.7l.3.25V10l.1 1.25q.75 3.7 6.05 3.75l.75-.05.8-.15.85-.3.95.25 2.65.25h.55" fill="#cecab0" fill-rule="evenodd"/><path d="m45.65 7.3.2.55v.1q-.2.7-1 1.4l-.45.3q-1.25.8-2.4.8-1.05 0-2.1-.8-1.2-.9-1.2-2.1 0-2.9 2.45-3.4l1.15-.1.8.1.55.2.25.2.1.05-1.05.2q-.55.25-.75.6l-.1.35q0 .45 1.45 1.9h1.4l.2-.55.5.2M8.3 6l1.75-.55q3.2 0 3.2 3 0 4.4-2.65 5.2l-.15.05-.65.15h-.6q-4.1 0-4.7-2.9l-.05-.3-.05-.8q0-1.5 1.2-2.35h.15Q5.8 8.65 6 9.05h1.6l.4-.3q1.25-1 1.25-1.9 0-.6-.4-.7L8.5 6.1l-.25-.05L8.3 6" fill-rule="evenodd"/><path d="M33.5 8.5q2.4-3.85 5.9-4.7l-.1.05q-1.6 1.2-1.55 3.9-.05 1.65 1.65 2.9 1.45 1.1 2.9 1.1 1.55 0 3.3-1.1l-1.05.85q-2.55 1.85-5.3 1.85-1.65 0-3.75-1.25l-.3-.35-.2-.2-.05-.05-.6-.6q-.65-.75-.8-1.6l-.05-.55V8.5m11.25-3.75.2.4.25.8.45 1.35-.5-.2v-.05L44.9 7l.25.1-.2.55h-1.4Q42.1 6.2 42.1 5.75l.1-.35q.2-.35.75-.6L44 4.6v-.05l.75.2M15.9 15h-.55l-2.65-.25-.95-.25.25-.15q2.5-1.45 2.5-6.25 0-3.85-4.1-3.85-.5-.05-2.2.65l-1.15.7L8.3 6l-.05.05.25.05.35.05q.4.1.4.7 0 .9-1.25 1.9l-.4.3H6q-.2-.4-.25-1.55v-.1l.4-1.3-1.4.75q-1.55 1.1-1.55 3v.1l-.3-.25-1.5-1.45q3.45-5.9 10.15-5.9l.05-.05.2.05 1.8.9q3.5 2.1 7.35 7.4l-.2.45-.9 1.95-.45.2q-1.95.8-3.5 1.75" fill="#fff" fill-rule="evenodd"/><path d="m44.6 4.3.15.45-.75-.2v.05l-.1-.05-.25-.2-.55-.2-.8-.1-1.15.1q-2.45.5-2.45 3.4 0 1.2 1.2 2.1 1.05.8 2.1.8 1.15 0 2.4-.8l.45-.3q.8-.7 1-1.4l.5 1.4-.4 1-.3.3h-.05q-1.75 1.1-3.3 1.1-1.45 0-2.9-1.1-1.7-1.25-1.65-2.9-.05-2.7 1.55-3.9l.1-.05v.05h3.7l1.5.45M3.2 10v-.15q0-1.9 1.55-3l1.4-.75-.4 1.3-.05.05-.1.05q-1.2.85-1.2 2.35l.05.8L3.2 10m5.1-4-1.25-.4 1.15-.7q1.7-.7 2.2-.65 4.1 0 4.1 3.85 0 4.8-2.5 6.25l-1.4-.7q2.65-.8 2.65-5.2 0-3-3.2-3L8.3 6" fill="#e7ec00" fill-rule="evenodd"/><path d="M39.4 3.8q.7-.55 1.7-.75l1.6-.15 1.1.1.1.05.15.25.55 1-1.5-.45h-3.7V3.8M11.75 14.5l-.85.3-.8.15-.75.05q-5.3-.05-6.05-3.75L3.2 10l1.25.65.05.3q.6 2.9 4.7 2.9h.6l.65-.15.15-.05 1.4.7-.25.15" fill="#cac902" fill-rule="evenodd"/><path d="M41.15 4.15q-2.45.5-2.45 3.4 0 1.2 1.2 2.1 1.05.8 2.1.8 1.15 0 2.4-.8l.45-.3q.8-.7 1-1.4v-.1m-2.3-.2Q42.1 6.2 42.1 5.75l.1-.35q.2-.35.75-.6L44 4.6m1.15 2.5.5.2m-.7.35h-1.3M8.3 6l1.75-.55q3.2 0 3.2 3 0 4.4-2.65 5.2l-.15.05-.65.15h-.6q-4.1 0-4.7-2.9l-.05-.3-.05-.8q0-1.5 1.2-2.35l.1-.05.05-.05v.1Q5.8 8.65 6 9.05h1.6l.4-.3q1.25-1 1.25-1.9 0-.6-.4-.7L8.5 6.1l-.25-.05L8.3 6" fill="none" stroke="#000" stroke-linecap="round" stroke-linejoin="round" stroke-opacity=".4" stroke-width=".05"/></g><g id="r"><path d="m19.75 13.3-1.05-.85-2.2-1.15-1.15-1Q14.3 9 14.3 6.95q0-1.65.75-3l-.65-.8-.9-1.55.1-.6h.95q.8-.1 2.15.75 1.1-1 2.4-1 4.25 0 8.05 3.35.45.4.7 1.65.25 1.15.8 1.45l1.55 1.05q.85.55 1.7.55 1.55 0 5.05-2.85 3.45-2.9 4.6-2.9 1.7 0 3.65 1.7l3.1-.05v1.15L47.25 7q.55.85.55 1.55 0 1.4-.85 2.7-1.05 1.55-3.45 2.9-3.5 1.95-6.5 2.1l-2.25.4q-1.85.65-2.9 2.25-1.1 3.4-2.15 4.7-1.3 1.3-1.3 2.05l-.35 4.15q-.1 1-1.35 1.5l-2.55.9q-.6.25-1.35 1.7-.85 1.75-1.85 2.55-3.8 3.05-5.05 3.1v.05q-.25.9-1.6 1.55.15-1.5.5-2.2v-.05l-.15-.25-.25-.6q0-.65.8-3l.75-2.1-1.4.55q-3.45 1.25-5.9 1.25-.5 0-1.1-1.05l-.05-.1-.55.15-.65.05q-.55 0-1.5-.55.45-.75 1.95-1.9l.05-.45.3-1.65q.55-1.5 1.9-2.3l3.75-2.15.85-.5.25-.55.2-.9M45.2 4.75l.55.5L47.25 7M16.4 4.65q.45 0 1-.8l.45-1.35q-.45-.35-.85-.55l-.3-.2m-1 2.7-.65-.5m-8.6 11.6-.15-.8-1.3-.3-4.25.3 1.8 1.35 1.2.75 1.3.45h.3q1.1-.15 1.1-1.4m7.6 6.55q0-1-2.4-1.05l-2.7.15q-5.45 0-5.45-3 0-.9.25-1.7M5 14.45l.75-.75.05-.1.35-.3q1.8-1.5 3.65-1.5 1 0 4.75 1.8 3.75 1.75 4.4 1.75 1.5 0 1.1-1.3L20 13.8m-1.7 17.25q-.1.8-1.85 1.65l-.5.25m-8.45.65q.6-.3.6-1l-.25-1.1-.6-.5-.25.2-.25.15m9.15 8.2h-.05l-1-.6-.05-.05" fill="none" stroke="#140000" stroke-linecap="round" stroke-linejoin="round" stroke-width="1.5"/><path d="m44.45 4 3.1-.05V5.1L46.5 6.25 45 4.5l-.55-.5m-29.3 34.85q-.25.9-1.6 1.55.15-1.5.5-2.2h.05l1 .6.05.05m-8.4-6L6.2 33l-.65.05q-.55 0-1.5-.55.45-.75 1.95-1.9l.25-.15.25-.2.6.5.25 1.1q0 .7-.6 1M3 16.1l-1.2-.75L0 14l4.25-.3 1.3.3.15.8v.35q0 1.25-1.1 1.4h-.3L3 16.1M14.3 3.2l-.65-.8-.9-1.55.1-.6h.95q.8-.1 2.15.75l.3.2q.4.2.85.55l-.45 1.35q-.55.8-1 .8h-.2l-.5-.2-.65-.5" fill="#fff" fill-rule="evenodd" transform="translate(.75 .75)"/><path d="M46.5 6.25q.55.85.55 1.55 0 1.4-.85 2.7v-.05q0-1.65-3.8-1.65-2.25 0-5.45 1.55l-3.75 1.5q-.95 0-2.6-1.3-2.25-1.75-4.05-4.8-.15-.3-1.85-1-1.75-.7-2.6-.7-.35 0-1.65 1.55l-.25.3-.35.25-1 .05L17 5.9l-1.5-1.7v-.25l-.05-.05h.05v.05l.5.45q.55 0 1.3-.9.8-.95.8-1.75Q18.1.7 17.45.7l-1.2.5-.3-.2q1.1-1 2.4-1 4.25 0 8.05 3.35.45.4.7 1.65.25 1.15.8 1.45l1.55 1.05q.85.55 1.7.55 1.55 0 5.05-2.85 3.45-2.9 4.6-2.9 1.7 0 3.65 1.7l.55.5 1.5 1.75M34 15.9q-1.85.65-2.9 2.25-1.1 3.4-2.15 4.7-1.3 1.3-1.3 2.05l-.35 4.15q-.1 1-1.35 1.5l-2.55.9q-.6.25-1.35 1.7-.85 1.75-1.85 2.55-3.8 3.05-5.05 3.1h-.05l-1-.6-.05-.05-.15-.25q1.45.05 2.55-1l2.4-2.6 2.05-1.45q.45-.5.45-2.7 0-.25 1.9-1.1 2-.9 2.35-2.2.5-2 .7-5.6.05-.9.5-1.4l1.85-2 1.4-1.8q.55-.45 1.85-.45l2.1.3M6.8 32.95l-.05-.1q.6-.3.6-1l-.25-1.1.2-.7q0-1.35-.95-1.55.55-1.5 1.9-2.3L12 24.05l.85-.5.25-.55.2-.9q.25.75 1.5 1.55 1.55 1 1.55 2.1 0 1.55-3.4 3.75-3.4 2.15-4.85 1.55.15 1.3-1.3 1.9m-1.4-20.4q1.8-1.5 3.65-1.5 1 0 4.75 1.8 3.75 1.75 4.4 1.75 1.5 0 1.1-1.3l-.05-.25q.7 1.25.7 2.3 0 1.7-3.1 1.7-4.05 0-6.9-1-.75 0-1.95.65-1.15.6-1.95.6l-1.45-.1v-.65q1.1-.15 1.1-1.4v-.35l.15-.8q-.35-.85-.35-1.45h-.1" fill="#86532c" fill-rule="evenodd" transform="translate(.75 .75)"/><path d="m6 30.6.05-.45.3-1.65q.95.2.95 1.55l-.2.7-.6-.5-.25.2-.25.15M4.25 13.7l.75-.75.05-.1.35-.3h.1q0 .6.35 1.45l-.15.8-.15-.8-1.3-.3m12-12.5 1.2-.5q.65 0 .65 1.05 0 .8-.8 1.75-.75.9-1.3.9l-.5-.45V3.9h.15q.45 0 1-.8l.45-1.35q-.45-.35-.85-.55" fill="#603920" fill-rule="evenodd" transform="translate(.75 .75)"/><path d="M46.2 10.5q-1.05 1.55-3.45 2.9-3.5 1.95-6.5 2.1l-2.25.4-2.1-.3q-1.3 0-1.85.45l-1.4 1.8-1.85 2q-.45.5-.5 1.4-.2 3.6-.7 5.6-.35 1.3-2.35 2.2-1.9.85-1.9 1.1 0 2.2-.45 2.7l-2.05 1.45-2.4 2.6q-1.1 1.05-2.55 1l-.25-.6q0-.65.8-3l.75-2.1-1.4.55Q10.35 34 7.9 34q-.5 0-1.1-1.05 1.45-.6 1.3-1.9 1.45.6 4.85-1.55 3.4-2.2 3.4-3.75 0-1.1-1.55-2.1-1.25-.8-1.5-1.55v-.4q0-1-2.4-1.05l-2.7.15q-5.45 0-5.45-3 0-.9.25-1.7l1.3.45h.3v.65l1.45.1q.8 0 1.95-.6 1.2-.65 1.95-.65 2.85 1 6.9 1 3.1 0 3.1-1.7 0-1.05-.7-2.3l-.25-.5-1.05-.85-2.2-1.15-1.15-1q-1.05-1.3-1.05-3.35 0-1.65.75-3l.65.5.5.2.05.05v.25L17 5.9l1.85.3 1-.05.35-.25.25-.3q1.3-1.55 1.65-1.55.85 0 2.6.7 1.7.7 1.85 1 1.8 3.05 4.05 4.8 1.65 1.3 2.6 1.3l3.75-1.5q3.2-1.55 5.45-1.55 3.8 0 3.8 1.65v.05m-31 21.7.5-.25q1.75-.85 1.85-1.65-.1.8-1.85 1.65l-.5.25" fill="url(#x)" fill-rule="evenodd" transform="translate(.75 .75)"/><path d="m45.2 4.75 3.1-.05v1.15L47.25 7q.55.85.55 1.55 0 1.4-.85 2.7-1.05 1.55-3.45 2.9-3.5 1.95-6.5 2.1l-2.25.4q-1.85.65-2.9 2.25-1.1 3.4-2.15 4.7-1.3 1.3-1.3 2.05l-.35 4.15q-.1 1-1.35 1.5l-2.55.9q-.6.25-1.35 1.7-.85 1.75-1.85 2.55-3.8 3.05-5.05 3.1v.05q-.25.9-1.6 1.55.15-1.5.5-2.2v-.05l-.15-.25-.25-.6q0-.65.8-3l.75-2.1-1.4.55q-3.45 1.25-5.9 1.25-.5 0-1.1-1.05l-.05-.1-.55.15-.65.05q-.55 0-1.5-.55.45-.75 1.95-1.9l.05-.45.3-1.65q.55-1.5 1.9-2.3l3.75-2.15.85-.5.25-.55.2-.9m0-.4q0-1-2.4-1.05l-2.7.15q-5.45 0-5.45-3 0-.9.25-1.7l-1.2-.75-1.8-1.35 4.25-.3.75-.75.05-.1.35-.3q1.8-1.5 3.65-1.5 1 0 4.75 1.8 3.75 1.75 4.4 1.75 1.5 0 1.1-1.3L20 13.8m-.25-.5-1.05-.85-2.2-1.15-1.15-1Q14.3 9 14.3 6.95q0-1.65.75-3l-.65-.8-.9-1.55.1-.6h.95q.8-.1 2.15.75 1.1-1 2.4-1 4.25 0 8.05 3.35.45.4.7 1.65.25 1.15.8 1.45l1.55 1.05q.85.55 1.7.55 1.55 0 5.05-2.85 3.45-2.9 4.6-2.9 1.7 0 3.65 1.7l.55.5L47.25 7M15.7 4.45l-.65-.5m1.2.7h-.05m.8-2.7-.3-.2m-.45 2.9h.15q.45 0 1-.8l.45-1.35q-.45-.35-.85-.55M5.35 17.3h-.3l-1.3-.45m2.7-.95q0 1.25-1.1 1.4m1.1-1.75-.15-.8-1.3-.3m13.3 16.6q-.1.8-1.85 1.65l-.5.25m-8.1-1.45.25 1.1q0 .7-.6 1m.35-2.1-.6-.5-.25.2-.25.15m8.1 7.6-.05-.05m1.05.65-1-.6m1.05.6h-.05" fill="none" stroke="#000" stroke-linecap="round" stroke-linejoin="round" stroke-opacity=".4" stroke-width=".05"/></g><path d="M45.3 0q18.8 0 32 13.2 13.3 13.3 13.3 32.1t-13.3 32q-13.2 13.3-32 13.3T13.2 77.3Q0 64.1 0 45.3t13.2-32.1Q26.5 0 45.3 0" fill="url(#y)" fill-rule="evenodd" id="l"/><path d="m68 1.2-.65.25-1.15.95 5.35-.1-.55-.05h.6l-.05.05q8 .55 18 5.75l2 1.1q4 2.25 14.7 9.6 1.75 2.05 3.8 5.8l.3.5.8 1.7 3.9 5.55q4.45 6.6 4.4 8.25 0 .85-.4 1.65l-1.2-.35q5.5 4.6 5.45 10.8l-.25.8q-1.85-.35-1.55-1.2h-.2q1.45 6.85 1.4 10.95-.05 1.95-.65 2.7-.75-.4-.55-1.6-.2-.05-.2-.25l-.25 1.3.35 5.35q-.05 1.65-.6 2.9l-.9 1.85q-.65-.9-1.95-3.85v-.2q-.2 1.9-1.2 2.8l-.95-.95q.7 3.55.65 7.8v.05q-.05 3.05-.45 4.75l1.35-.15 1.3-.2v-.85q.2-1.35 1.15-3.3l.2-.5q.75-1.5 1.5-2.25.1-1.55.85-1.5.35 0 .5.65l.4-.05q.75 0 1.8.9l.1.1 1.35-1.4q3.15-3.05 5.75-3l.9.1 1.75-.75 1.15.55-1.35.9.05.05.85.85.3.95-3.95 7.65v.6l.7.1 8.8-1.7q2.25 0 3.05 1.2l1.7.05 1.25 1.15-2.6.55q-.45 1.35-6.1 6.3l-4.55 2.8q-1.25.35-1.7.7-.7.45-1.3 2.05-1.6 3.85-2.75 5 .05 1.2.85 2.05l-.8.1q-1.9-.05-2.2-1.9l-2.05-1.4q-1.5-1.4-1.6-2.2-.2-1.95-.75-2.65-.55-.85-2-1.05h-.65q-1.8-.05-4.4.95-.9.3-1.8.75l.8 1.75q4 8.55 4.35 11.05l-2.95-2.1 3.25 7.35q2.45 5.65 2.45 6.65l-.15 1.1-1.5-1 1 2.8q.7 2 .65 4.85-.1 4.55-2.8 7.3v.25-.25l.2-2.45-1.75 4.35 5.25.65 4.25.05 4.9 1.85q2.05 1 2.05 2.3v.05l1.4.6v.15l-1.7-.05-.2.15h-.05q-.9.6-3.2.4l-.9.55 1.2.95h-1.2l-1.15-.45-.7.25v.05q-.05.8-1.25 1.5l1.05.7-1.4.45-2.15-.45q-2.6 1.1-5.35 1.05l-2.65-.9q-5.75-1.95-11.65-3.15l-1.2-.25L94.2 145l-.05.15q-2.75 3.5-4.4 4.85-1.05.75-1.65.75v-5.9l-.4-.05-2.4.6-1 .85-2.45 2.2-.4-.05-.6-2.3-3.4 2.5-5.35 3.75.65-1.9q-8.2 4.85-10.55 4.8h-.1l.15.85q-.05 2.25-23.35 3.75-1.7-.05-2.5-.8l-4.6.25q1.1-.65 2.3-1.2l.8-.4-3.35-.3H30.5l-.5-.1q-.65 0-1.35.35h-2l1.3-1.65.15-.05q-2.4-.15-3.2.05h-.05v-.2l2.45-.95h.4l1-.1q.1-3 3.2-4.3 1.75-.75 3.85-.85l.8-.2.65-.1-2.9-3q-1.25-1.7-1.2-4.05.05-5.2.7-7.5l.05-1.8q-.25.2-.4.2l-.35 1-.15.3-.15.35q-.7 1.35-1.2 1.7l-.15-1.15q-3 1.6-5.6 1.55-2.7-.05-4.9-2.8-2.8-3.45-3.9-4-.95 2.95-4.65 3.8l.15-7.9-2.55 1.7q-1.55 1.05-2.55 1.1l.05-2.25 3.45-3.4-.55-.05-1.75-.25-1.1-.85 3.8-.85q2.6-.85 4.05-.7h.1l.05-4.5q3.4.6 7.25 3.1l9.25 5.25.55-2.35-.05-.1-.05-.05-.55.1-.65.05-1.5-.55 2-1.9.05-.45.35-1.65q.55-1.5 1.9-2.25l.25-1.4v-1.2l-5.85 4.5v-1.2l2.05-6.65q-1.85-.8-1.8-2.55v-.4l-2.5 1.6v-1.8l1.45-1.95-1.65-1.25 2.7-.2q3.7-5.15 5.95-9.2-.8-1-1.65-3.35l-1.9-5.85q-1.2 1.6-3.2 7.2l-.35.9q-1.95 5.25-2.8 5.25-1.8-.05-3.1-3-1.4-4.1-2.45-6.35l-.1 6.75q0 5.6-1.5 6.1-5.45-8.35-5.7-8.35-.55-.45-.5-2.4-.05-2-.65-2.6L9.7 92.4Q9 96 7.5 96.55q-2.1-6.8-2.05-9.8.05-3.6.75-5.6l1.6-4.1h-.2q-.75 1.2-4.3 2.75 1.5-3.25 1.5-3.7 0-1-1.9-5.15-2-4.1-1.9-10.85.15-7.45 4.1-14.75h-.2L3.35 46.5h-.3v-.05q.35-.95 6.6-9.5-.85.8-1.8.8.65-5.05 12.55-12.6l12.4-7.1.25-.1.65-.5q2.3-2 6.55-7.15 5.15-6.1 7.25-7.6v.7l-1.55 4.4q2.3-3.6 7.6-6.8v2.8L52.3 5.95v.2q1.85-2.05 9.45-4.65l-1.3 1.9-.3.4 7.2-2.35m45.6 51Q113.9 50 114 45.5q.1-6.5-1.25-9.85l-.55-1.2-1.35-1.95q-2.25-2.6-6.15-3.2l-.1-.05-2.25-.2-2.05.65-1.25.8m4.15-8.05-1.3-.85q-.95-.6-2.1-.6-1.65-.05-5.7 3.95l-1.5 1.55-1.3 1.7q-1.95 2.8-1.95 5.45l-.2 2.8m8.4-8.4q1.85-1.25 3.05-1.2 1 0 2.4.9 1.25.7 1.6 1.5m13.25 12.6h-.05q-.7-.15-.95-.75l1 .75m-5.65-7.4.35-.7.25-.95v-.35q.05-2.2-1.65-5.7m-51-22.95-.05.1h-.2l.25-.1m11.05 9.75L68.8 13l-1.65-.15q-3.15-.05-6.95 1.3-3.6 1.25-6.1 3.3M72.6 19q-2.5-1-5.4-1.35l-3.1-.25q-5.7-.1-9.9 3.1m24.35 9.4q-1.6-3-4.15-4.7-3.35-2.25-8.25-2.3-1.35-.05-3.45 1l-2.8 1.55-3.15 2.25-1.05.8m21.55-6.05q-.9-1.5-3-2.65M85 30.4l.8.6h.4v-1m-.7-1.15L83.05 25l-.75-1.05-3.2-4.45q-3.2-4.1-7.05-5.65m11.5 22.2L83 34.1l-.05-.15-.8-2.55q-2.65-7-7.75-6.2m25.25 18.7q-2.45.45-2.5 3.35 0 1.2 1.2 2.1 1 .8 2.05.85 1.15 0 2.45-.75l.45-.35q.85-.7 1-1.45M99.25 65.5l-3.75-3.15-.1-.1-1-.45q-1.05-.05-3.25 1.5-2.2 1.45-3.6 1.45l-3.1-.65q-1.8-.05-1.8.95-.05.3.55 1.55 1.65 1 2.75 3.45v.05l2.7-.2 5.45-.45q-4.5-3.1-6.5-3.1-1.8-.05-1.8 1.15l.75 1.2m-8.05 1.7-.3 2.15.4-.2 2.5-1.25.85-.35.2-.05q.2-1.5-.8-2.8l-1.25-1.75-.3-.55q1.9.1 3.4 1m12.3-4.25 1.3-.1q4.85.05 5.9 3.7.35-1.4-.45-2.7m-5.6-6.1q-.45 1.05-1.5 1.05-1 0-2.4-1.45-.85.5-.7 1.6l.25 1.7q0 1.1-1.3 1.1-1.8-.05-2.75-1.7M71.7 47.7q-.05 4.55-2.9 5.25l-.6.1h-.6q-4.15-.05-4.65-3l-.1-1.05q0-1.55 1.25-2.35l.15-.1v.1q0 1.15.2 1.55l1.6.05.4-.3q1.25-1.05 1.3-1.9 0-.6-.4-.7l-.6-.15 1.8-.55q3.2.05 3.15 3.05m-.6 18.65q-.75 1.95-.95 3.9l-.05 1.2-.05.4v.1q.05 2.25.8 4.75l.7 1.95m-2.2 0-.65-.45-.3-.4q-.25-.35-.2-.8l.15-.7m9.85-3.75-.8 5.5v.05l-.25 1.6m-8.4-4.7 1.4-4.75M65.9 66.3l-1.5 4.1-.45 1.2-.45 1.2-.65 1.15-1.1 1.65-.1.15-.15.2-.3.3-.2.25-.1.1-.75.8-.7.65-1.75 1.35m-8.45 6.5q1.05 3.3 2.5 5.95l.9.75q.4.4.65 1.65l.1.3 1 1.4 1.2.85q.85.55 1.7.6l1.35-.35.05-.9-.5-5.7 2.05 5.7 1.3-.85.85-.7 3.1-2.25.15-.05q.9-.55 1.4-.5 1 0 2.1.65l1.5 1.1h3.1v1.15l-1.1 1.15q.55.85.55 1.55-.05 1.4-.9 2.65l-2.2 2.1-1.3.75q-2.6 1.4-4.9 1.85l.15.2q.7 1.3 1.5 2.25l5.8 7.85q3.05 3.95 4.6 4l.6-.4.4-1.15q.25-2.1.6-3.35l.15-.4.05-.2.3.8.45 1.35 1.85 4.95h.35q.8-.95 1.5-3.4l.35-4.25q-.25 1.7 1.15 5.3 1.55 3.8 3.35 5.15l2.5-6.85q2.65-6.85 3.9-8.25l-.2 11.3h.3q1.75-1.7 9.9-18.3v.6q-.05 1-.5 2.25l-.05 2.4.15.05q2.1-3.3 4-10l.9-3.5q.55-2.8.6-5.3-1.15-.05-2-.45l-.65-.3q-2.5-1.55-2.6-5.95V80.1q.25-3.95 1.25-6.1l.05-.2.75-2.45.55-1.9.35-1.3-.2-1.3v-.6m-40 19.95q.5.8 1.3 1.5 1.55 1.45 3.2 1.6h.25q3.95.05 5.95-7.5l.25-.95m-11.7 3.6.35.95m17.95-9.65.35-.25q3.35-2.4 7.15-1.7l1.2.1q2.45-.05 5.8-1.8l-3.75-2.45-.1-.1-.15-.1M82.15 70.7l1.9-.5 1.3-.1.35-.05.25.05m-.35 16.15 1.05.45q2.65 1.1 3.6 1.1 2.8.05 7.05-2.95l.65-.5M97.1 87q-4 2.45-7.65 2.6m19.35-34.75.45.35.15.15h.2l.2-.05q1.25-.15 2.15-1.1l.7-1.1m-3.4 2.1v.1l-.05.7q-.6 4.6-4.8 5.85l-.45.2m9.55-7.15-.6 1.05m-9.3-9.1.5.2m-.7.4-1.3-.05q-1.55-1.45-1.5-1.9l.1-.4q.2-.35.75-.55l1.05-.2m3.5 12.1q-.1 1-.6 2.3-.85 2-1.95 2-.4-.05-2.1-1.85l-.5-.55-.8-.95m1.45 4.7-.35-.6h1.2q1.9 2 2.45 4.4l.05.15-1.45.85-.45.3.05 1.3-.3 2.3.7.45.15.15.3.05m-1.15-5.5.25 1.25m9.7-10.7q-.9 2.05-.9 4.95-.05 1.3 2.45 6.6l.1.35q.95 2.2 1.5 4.85m-13.1-2.45q-.35 1.1-1 1.65l-.35.25-1.3.25q-.55-.05-1.95-.85M116 85.85v.1l-.45 1.1q-.95 1.55-3.75 1.5-1.05 0-2.35-.5l.3 1.35q.9 3.35 3.3 8.65m-3.6-10-.35-.15-.55-.05m24.6-13.45 1.55.7m-11.85 2.65q-.7.15-1.35.85m-2.85 6.9.4-.1.3-.1q1.15-.55 3.8-3.5l1.05-1.75.95-1.35m19.35 6.1q.4.6.4 1.55l-.05.2m-16.4 16.85q-.5.5-.95.5l-1.2-.25m-11.05 5.1-.1-.05v-.15l.1.2m4.05 14.1-.25-.2-2.35-1.9h-.35l.1 3.75q-.05 3-2.15 5.4h-.15l-.45-2.9-1.4 3.05m-.3.6q-2.85 6.05-4.5 7.95l-.3.35-3.35 2.95-.65.55-2.4 1.85-1.65.95q1.4-1.05 1.45-3.9-.5-1.7-.45-2.45-1.45.35-5.95 6.1m24.15-9.65v-.5h.15l-.15.5m-1.75 4.35-1.6 2.85 2.7-.5q2.2.05 5.65 2.15 3.15 1.95 3.2 2.95m-8.85-6.3 2.55-.35q1.4 0 5.45 2.15 4.1 2.1 4.1 2.7l-.5.5m-58.65-52.3.55.5 1.45 1.8m-8.75 8.9-1.6.15-2.25.4q-1.9.6-2.95 2.2-1.2 3.35-2.25 4.65-1.3 1.25-1.3 2l-.45 4.15q-.1 1-1.35 1.5l-2.55.85q-.65.25-1.4 1.7L46.75 124l-.85.85q-3.85 2.95-5.1 3v.05q-.3.9-1.6 1.55l.55-2.25-.2-.25-.2-.6v-.1l.85-2.9.75-2.1-1.4.55-3.6.95-2.3.2q-.5 0-1.05-1m26.05-24.9 1.6-.9M71.8 141.2l1.5 1.5.45.4q1.55 1.55 1.7 2.35l.05.1v-.15q2-3 3.15-4l.5-.4.6 1.35 1.1 3.75m4.45-.7 2.6-2.3.15.15.05 1.6m-29.25 8.2 2.25.05q-.5 1.1-.5 1.85l1.5.3m70.65-9.95h-.3l-1.2-.6v-.75l1.6.55.2.1m-10.25 4.8-1.1-.5q.2-.5 2.05-.55l.75-.05.45.05.35.35m1.95-1.8-.4-.3q0-.25.9-.8l.65.6m-13.4-3.85-1.6 1.45.05-2.25M44.65 46q-1.2-4.4-1.1-9.9.05-2.8.5-4.6m4.1 33.75.15-2.1.1-2.8v-1.6M41.9 93q.4 0 1-.8.45-.8.45-1.35l-.8-.6-.3-.2q-1.4-.85-2.15-.75h-.95l-.1.55v.05l.85 1.55.6.8.65.5M39.5 89.3q2.65-3.4 4.75-8.2l.95-2.4m-2.95 11.35q1.1-.95 2.4-.9 3.7.05 7.1 2.7m-17.05 1.6q.55.65 1.1.7 1.15 0 1.65-2.55l1.6-1.75m14.35 4.7q.2.9.7 1.2l.3.2m-9.35 5.7-1-.85-2.2-1.15-1.1-1.05q-1.05-1.3-1-3.35 0-1.65.75-3m-11.75 10.4 1.55-.05.75-.75.1-.1.35-.3q1.8-1.45 3.65-1.4 1 0 4.75 1.85 3.7 1.8 4.35 1.8 1.5.05 1.15-1.25l-.05-.25M34.1 115.15l.35-.2 3.45-1.9.85-.5.25-.55.2-.85m-11.5-7.05.15.1 1.15.75 1 .45.35.05h.25q.6-.1.9-.45l.25-.95m0-.35-.15-.8-1.3-.3m8.95 8.15q0-1-2.4-1.1l-2.7.1-3.6-.55m-1.8-2.95.25-1.3m2.8 14.55.25-.15.25-.2.6.55.1.3q.15.35.15.8-.05.6-.5.9l-.15.1m-1.05 13.55-.2-3.85q.05-3.1.8-7.1v-.1m11.3-4.9q-.1.8-1.85 1.65l-.55.2m-.15 6.6h-.05l-.95-.6-.05-.05m-2.55 22.1.35.3-.05-.35-.15-1.15q-.15-.9.45-1.5l2 2.45 1.15 1.4V149l-.15-2.55 2.75 1.95 3.35 1.9 5.65 2.6.35.15-.95-2.6v-1.4m-11-.05 2.6-.6m3.35 1.9q-2 .35-6.15 2.2-5.1 2.25-5.1 4.5v.4l1.7-.4q.85 0 1.1 1.2l-1.15.6-.5.2-.4.05m-7.7-4.3.9.1q.9-1.7 4.55-4.5.55-.45 1.6-.75m-.85 8.1.75-.3m-6.05-2.55-.3.65 1.75-.2h1v1.6l-.5.5m-3.45-1.45q.45-.3 1.2-.45m8.2-6.25 2.3-.2" fill="none" stroke="#140000" stroke-linecap="round" stroke-linejoin="round" stroke-width="2" id="b"/><path d="m48.75-65.85 3.4 3.7.95 1.05-.25.2q-2.25-2.6-6.15-3.2l-.1-.05q-.35-.8-1.6-1.5-1.4-.9-2.4-.9-1.2-.05-3.05 1.2l.95-.25q1.5 0 1.8 1.9l-1.25.8.05.05q4.05.95 5.45 3.5l.8 2.9-.1.25-.15-.1.1.15.35.55.65 1.55.75 3.1 1.3 7.8q1.05 3.35 3.7 3.95-.9.95-2.15 1.1l-.2.05h-.2l-.15-.15-.45-.35q-2.05-1.55-3.25-3.85l-.6-1.4-.2-.45-.45 1.1-1.55 3q-1.4 2.05-3.7 2h-.4l-1.8-.3q-.4-.8-1.4-1.5l-.55-.55-.8-.8-.3-.3-.3-.3-.15-.25-.05-.05-.6-.6q-.65-.75-.75-1.6l-.5-.05-1.3-.1h-.2l-2.55.45h-.1v-.05.05q-1.7.4-3.6 1.3l-.5.25-.7.35-2.05.55-2.25.8-.45.15q-1.95.75-3.55 1.7-4.1 2.3-5.8 5.6h-.1l.05.05-.15.3-.35.8L8.5-28.7Q2.35-30.9.4-32q-1.4-.75-2.2-1.9l-.15.65-.35 2.65q-.05 2.65 1.35 5.55 1.05 2.4 3.9 2.45L6.4-23l-.45 1.2-.45 1.2-.65 1.15-1.1 1.65-.85 1-.55.6-.2.2-.7.65-.6-.1-1 1.15-.15.3-1.05 2.4Q3.6-9.05 3.6-7.95q0 .8-2.3 2.4l-.75.6-1.1-.65q-9.65-7.25-12.25-9.1 3.05-8.3 3.2-18.35.15-8.95-3.25-12.75-1.7-4.95-1.6-11.5.05-2.8.5-4.6-1.05.55-1.35.55l.05-1.75q1-1.1 1.05-2.95l-.25-.05q-3.4 1.75-4.05 2.45.75-1.5 2.35-5.7l-12 4.75h-.1q.05-1.1 3.2-5.2 3.1-4.15 5.75-6.6l.05-1.5h-.5q-2.2 1.3-4.55 1.95 2.3-2 6.55-7.15 5.15-6.1 7.25-7.6v.7l-1.55 4.4q2.3-3.6 7.6-6.8v2.8l-1.25 2.15v.2q1.85-2.05 9.45-4.65L2.45-90q-1.8 1.45-1.8 2.25-.05.65.25.4 1.55.05 3.55.8l-.1.25q-9.05 4.2-9.1 7.15 0 .8 1.7 1.65l.75-1.1q1.5-2.15 2.5-2.9 4.25-3.45 10.05-3.35 4.05.05 7.25 2.6 2.25 1.75 4.15 4.7l2.5 5.25 3.35 7.75-2.45-3.85-.75-1.05-3.2-4.45q-3.2-4.1-7.05-5.65l-.85-.3-2.4-.55-1.65-.15Q6-80.6 2.2-79.25q-3.6 1.25-6.1 3.3-.4.55-.4 1.65l.05.55Q-.4-78 5.75-77.9l3.55.65q2.55.85 5.3 2.85-2.5-1-5.4-1.35L6.1-76q-5.7-.1-9.9 3.1l.2.25q-1.5 1.1-1.55 2.7-.05 1.6 2.55 4.7l.3.35 1.05-.8 3.15-2.25-3.95 7.5q-2.5 5.05-3.4 7.5l2.2.7q1.15-1.65 3-3.25l1.45-1.25q4.1-3.2 7.65-3.1 2.65 0 5.65 1.05 3.9 1.35 8.8 6.85l4.1 4.85.25.3.85-.2.4-.3-1.2-3.4q1.45.75 2.25 1.05 1.2-3.7 1.25-6.3l-.05-1 .2-2.8q0-2.65 1.95-5.45l1.3-1.7q1.45-.9 2.35-.9l1.05.1q1.75-1.4 4.25-1.35 3.55.05 6.5 3.2M42.7-52.3l-.05-.05-.2.4.95.2-.7-.55m.8.65.25.25-.35-.35.1.1M.35-43l.05-.15-.05-.05v.2m28.55-4.3.05.3v-.25l-.05-.05M-5.75-34.5l-.1.1v.05l.1-.15" fill="url(#z)" fill-rule="evenodd" transform="translate(28.25 92.4)" id="g"/><path d="M8.55 0q-.3 2-4.9 6.75L2 9.1q-.55 1.1-.6 5.3 0 1-1.4 2.8" fill="none" stroke="#000" stroke-linecap="round" stroke-linejoin="round" stroke-width=".05" id="j"/><radialGradient cx="0" cy="0" gradientTransform="matrix(.056 0 0 .056 45.3 45.3)" gradientUnits="userSpaceOnUse" id="y" r="819.2" spreadMethod="pad"><stop offset="0" stop-color="#71520d" stop-opacity=".651"/><stop offset="1" stop-color="#71520d" stop-opacity="0"/></radialGradient></defs></svg>