<svg width="240" height="178" xmlns="http://www.w3.org/2000/svg" xmlns:xlink="http://www.w3.org/1999/xlink"><defs><g transform="translate(51.1 36.65)" id="v"><use xlink:href="#a" width="167.25" transform="translate(-51.1 -36.65)" height="123.15"/><use xlink:href="#b" width="27.25" transform="translate(-7.7 -10.15)" height="10.3"/><use xlink:href="#c" width="108.85" transform="translate(-49.75 -26.05)" height="100.35"/><use xlink:href="#d" width="21.4" transform="matrix(.7117 -.1417 .1175 .5904 65.107 -18.265)" height="17.05"/><use xlink:href="#d" width="21.4" transform="matrix(.5838 .1981 -.1643 .4843 74.297 -15.542)" height="17.05"/><use xlink:href="#e" width="21.4" transform="rotate(-30.007 13.889 -89.395) scale(.5327)" height="17.05"/><use xlink:href="#e" width="21.4" transform="rotate(-30.007 49.318 57.075) scale(.5327)" height="17.05"/><use xlink:href="#e" width="21.4" transform="rotate(-30.007 4.759 -154.93) scale(.5327)" height="17.05"/><use xlink:href="#f" width="27.6" transform="translate(-2.4 44.45)" height="22.85"/><use xlink:href="#g" width="8.1" transform="translate(-1.6 55.65)" height="6.75"/><use xlink:href="#g" width="8.1" transform="rotate(60 -31.082 35.701)" height="6.75"/><use xlink:href="#g" width="8.1" transform="rotate(104.999 -9.946 36.344)" height="6.75"/><use xlink:href="#h" width="47.5" transform="matrix(1.0088 -.5824 .3361 .5822 33.91 -3.644)" height="47.5"/><use xlink:href="#h" width="47.5" transform="matrix(1.1251 -.3015 .0758 .283 -41.072 -16.06)" height="47.5"/><use xlink:href="#h" width="47.5" transform="matrix(.6676 -.3855 .3663 .6345 -19.207 47.985)" height="47.5"/><use xlink:href="#i" width="7" transform="matrix(1.9628 .7354 -.4113 2.3606 -23.242 -25.475)" height="5.05"/><use xlink:href="#j" width="59.8" transform="translate(-22.65 -19.25)" height="23.65"/></g><g id="a"><path stroke-linejoin="round" stroke-linecap="round" stroke="#323224" fill="none" d="m31.1-31.95 1.5 7.35 2.85.3 4.3.5q7.9 1.05 14.65 2.6l1.05.25 1.35.3 2.7.75q.85.3 1.3 1.3.45 1 0 2-.55 1.55-3.3 3.05-4.6 2.5-10.45 4.4l-7.7 2.4.2.1.25.1 3.05 1.25-2.15 1.75h-1.9l1.45 1.15L37.4.1l.3 1.8-.05.8 1.05.45q.45 1.25 1.55 2.3l1.5-1.4L48.65-2l-1.1-1.4.6-.35 1.2 1.15.35-.25-1.25-3.2.95-.25 1.45 2.5 7.1-5.5L63-12.8l3.5-.8-.9-2.55.95-.2 1.4 2.45h.1L68-18.75l1.3.05.9 4.45 9.65-.9h.45l-1.2-1.6.6-.35 1.9 1.85L80-19.4l.95-.25L82-17.8l-.3-1.25 1.85-1.3L85.8-19l2.65-9.45h6.45q-2 5.85-.8 10.35l10.05-9.05 3.7.85-2.5 5.25 1.8 2.8-9.45 6.6 2.25-.2q6.6-.35 12.1 2.45l1.15 5.1-12.35 2.35 5 2.3-.7.65 2.4.55 8.1 9.4q-2.1 6.65-7.35 14l-3.25-1.55-1.15.05 1.15 1.1q1.4 3.6.8 7.15l-7.95.95q.4-4.85-2.85-8.95l-5.6.2L84.3 30l-3.95-1.7 2.7-4.35q-3.85-.25-7.2-1.2-3.4-.95-6.3-2.65l-.15 1.05q-7.35 7.65-14.25 12-4.95 3.1-9.65 4.5v.95q.65 2.7-1.3 5.85l-.35.5 2.45 1.35.65 2.2.55.55.15.8-.2.35 1.45.6 1.05 2.55v3.8L48.7 58.7l-8.4 3.65-.4-.05q-1.25 2.2-1.05 3.35l.05.25h.8l.55.45 1.5 1v1.5L40.5 70.3l-.25.15v.15l-.25.7q-.9 3.4-.4 6.45l1.7 3.1.4 1.1-.4.9q-.65 1.65-6.05 2.55l-.8.1q-3.8.2-5.8-1l-1.95-1.15q-1.3-.95-1.9-2l.4-1.1 2.85-4.1 1.2-6.65-1.4-1.25.1-1.85 1.55-.35q.5-1.6.2-3.4l-.65-2.25-1.5-.65.1-.8-1.9 2.9-.9 1.05-2.35 1.7-2.05.65-1.6.1q-3.8 0-6.95-2.7l-.25.25q-2.05 2-4.3 2.95l-1.95.55-1.75.15q-1.7 0-3.05-.55-1.15-.45-2.1-1.25l-1.6-1.85-.6-1.05q-2.5 3.2-2.15 6.15l.1.3v.15l.05.15q.25 1.05.95 1.9l.2.3 1.05 1.3.8 1.75-2.65 3.35q-.6 2.35-.15 3.8l.5 1.1v2.25q-1.6.6-3.15 1l-1.3.25-1.4.25-2.25.15h-.35l-1.25-.1-2.2-.45-.6-.2-1.7-.8-.1-.1-.6-.4-.6-.6h-.05l-.45-1.2 1.1-.5 1.55-1.7q1.7-2.4 1.3-5l-1.1-2.45-.1-.55.45-.8 1.05-.9 2-.6v.05l.05-.05.95-2.3.2-.75-.6-3.1-.9.35h-2l-7.65-2.95-.85-1.05-1-3.75.75-1.55 4.45-2.05-.05-.1-.1-.3q.05-1 .9-1.25.8-.2 1.1.2l.05.05h.05l1.05-.8.35-1.35 2.4-1.2-2.7-4.5q-.55-1.55-.55-3.35l.3-2.5.05-.2-2.45-3.25.6-.35 1.9 1.85-1.6-4.15.95-.25 1.8 3.2q.65-1.1 1.6-2.05l.5-.45q-1.3-1.3-1.3-3.05 0-1.8 1.25-3.05l.85-.65q.95-.6 2.2-.6l1.2.15.1-.35q.3-.8 1-.95.7-.2 1.3.4l.35.4q1.4 0 1.75.9l-.1-2.35q-2.5-.35-4.05-1.75Q-12.7 19-12.7 16.4q0-2.65 2.05-4.5l.45-.55-1.15-.15q.7 1.55-.95-.05-3.55-.3-7.15-.15l-.7-.6 2.9-1.75-.2-.35-6.1-2.55-4.65.5-2.6.15-3.6.15h-5.65l-7.15-.75-1.3-.4q-1.7-.6-2-1.55-.3-1 .3-1.9.6-.9 3.3-3.25l.6-.5 7.2-5.3.3-.2q8.55-5.75 19-10.3l-.5-1.55q-.85-3.3.05-6.15L-22-28.4h1.65l1.45 1.45h.8l1.25-2.6h.55l.4 3.2 5.75 4.9 8.05-2.65 6.7-1.95 16.15.5q2.65-4.4 7.55-7.55l.8-3.05h1.05v2.6l1.85-1.7 1.1.8-2 2.5m-23.7 11 .6.5-4.25.8.35-.8 3.3-.5m76.1 5.75-.2-.35.3.35h-.1M29.1 13l-.05.05-.3-.25.35.2M.6 44.85Q1.9 43.7 3.25 43l-6.5.85 1.45 2.8.25.5.9-1.05.35-.35.25-.3.6-.55.05-.05m20.25-2.4q4.2.1 9.05-.95-.95 1.85-.95 4.1l-.25.85q-1.5.7-2.1 2.2l-1.35-2-1.15-1.35-.3-.35q-1.4-1.4-2.95-2.5m5.6 7.05v-.2l-.05.25.05.15v-.2M-17.7-16.4l1.45-1.1q1.8-1.05 4.5-2l.75-.25-6.7 3.35m2.55 72.35-.9-.4h-.05v-.05l.05.05.9.4m.4 13.75-.4.45-.1.1.2-.05.3-.5" transform="translate(51.1 36.65)"/><path fill-rule="evenodd" fill="#313124" d="M29.65-36.15h.5v2.6l1.85-1.7 1.1.8-2 2.5 1.5 7.35-9.45-.8q.75-2.05 3.3-4.45l2.5-2.4.7-3.9m9.7 29.4.2.1.25.1 3.05 1.25-2.15 1.75h-1.9l1.45 1.15L37.4.1q-.4-1.1-1.3-2-1.55-1.55-3.75-1.55-1.7 0-6.15 1.7-1.5.55-1.85 1.4-.5 1.1-.1 2.15l.5.85V3l-.6.35q-.6.5-.45 1.45.15.95.95 1.75.7.8 1.65 1l1.55-.3.4-.7h.3l.15.25.9.45-.1.8-.15.85-3.2 2.5-1.9-.25q-1.45 0-2.7.5l-.35.2-2.3.95-2.25.5-1.6-.05 3.05-2.65 2.45-2.55q.9-1.2.85-2.9-.05-.85-.4-1.4Q13.45-.9 12.05-2.1q-1.4-2.25-1.8-3.7-.8-1.5-2.05-1.4l-.25.05q-1.1.1-1.7 1L4.8-2.95Q1.6.35-3.75 3.6q-.9.5-1.45 2.05-.1 1.85 1.25 3.5l2.6 2.25 2.55 2.25-3.7-1-1.3-.3-7.4-5.85 2.5-3.25-5.4-1.45 3.25-2.5-4.6 2L-19.4 3q-1.6.75-5.35 2.2l-.05.05-1.95-.85-.55-.6 3.6-2.65q3.5-2.7 6.15-5.35 2-2 3.55-3.9l2.95-4L5.2-15.5l18.5-3.05 8-.95q-.95 2.9-3.6 6.2 3.25 2.85 7.35 4.75l2.15.95.8.4.95.45m6.15 44.4v.95q.65 2.7-1.3 5.85l-.35.5-2.5-1.45-6.55 1q-2.75 1.5-3.9 3l-.5.7q-.7 1.15-1.65 3.3l-1.45-.45q-.8-.45-.85-1.35v-.4l.1-.6.05-.05q.6-1.5 2.1-2.2l.25-.85q0-2.25.95-4.1-4.85 1.05-9.05.95-4.2-.15-7.75-1.5-.1 1.15-.55 2-.6 1.05-1.4 1.05-.9 0-1.45-1.05l-.5-1.45L3.25 43l-6.5.85 1.45 2.8.25.5-1 1.55-1.25 2.6-.7-.9-2.5-2.85-.05-.2h-.1l-3.15-.5h-.05q1.8-2.1 2.1-3.55.5-2.85-4.8-3.4l3.05-1.15q-7.6-5.25.5-9.6l1.5-.1 2.55.25.65 1.35 1.35 2.1.1.2.05.05.3.55 1.85 3.15.7.55Q1.45 38.5 4.9 39q4-1.15 4.3-4.65.25 3.7 6.5 3.85h.9q2.75-.05 4.25-.95 1.05-.65 3.5-.65-.15-1.55-3-2.4 3.1.55 5-1.2 1.05-2.1-1.35-3.35l.75-.6q1.4-1.05 3.05-1.65 2-.75 4.4-.75 5.05 0 8.7 3.5 3.25 3.15 3.6 7.5m1.45 10.85.55.55.15.8-.2.35-.5.65-1.45-.05-.2.2q-.35.4-1.35.45l-.85-.1.4-.95q.05-.6-.3-1.05-.4-.4-1.05-.35.65-.05 1.05.35.35.45.3 1.05l-.4.95-.1.1q-.4.45-1.5.5l-1-.15-.4.55q-.5.55-1.85.6h-.75q-.9.45-1.7.35l-2.25-.7.8-2.75 2.6-2.85 5.35-1.5 3.45 1.2.2.25 1 1.55M-19.3 9.9l.25-.15 1.8-1.1-.2-.35-.9-.35-.95-.4h.05l.9.4-.9-.4 5.65 1.25-3.3.65-2.4.45m.8-36.85h.4l1.25-2.6h.55l.4 3.2 5.75 4.9-6 2.3-2.65 1.1-.25-3.15q-.3-3.1.55-5.75m1.95 16.15 5.5-1.3-2.95 4-2.55-2.7m44.65-2.5q-2.15-1.9-4.4-5.25 2.25 3.35 4.4 5.25m16.45 62.05q.6-.05.9.35.35.35.3.95l-.25.75.25-.75q.05-.6-.3-.95-.3-.4-.9-.35M36.2 51.5q-.3.6.15 1l1.15.45-1.15-.45q-.45-.4-.15-1M9.15 40.95l.05.55-.05-.55M31.65 39q-1.1 1.15-1.75 2.5.65-1.35 1.75-2.5m8.85 12.8.2-.75q.05-.75-.4-1.3-.45-.5-1.25-.45.8-.05 1.25.45.45.55.4 1.3l-.2.75M-17.25 8.65l.35.8-.35-.8m9 34.65 5 .55-5-.55" transform="translate(51.1 36.65)"/><path fill-rule="evenodd" fill="#e03a23" d="m-18.15 49.6.15-.65 2.4-1.2 3-1.25 2.25.35h.05l3.15.5.15.2-2.1 1.6-.75-.75-4.65-.55-3.65 1.75m-5.4-43.85-4.65.5-2.6.15-3.6.15h-5.65l-7.15-.75-1.3-.4q-1.7-.6-2-1.55-.3-1 .3-1.9.6-.9 3.3-3.25l.6-.5 7.2-5.3.3-.2q8.55-5.75 19-10.3l1-.45 2.65-1.1 6-2.3 8.05-2.65q10.85-2.4 10.85-.55 0 1.25-4.8 3.85l.15.35-.35.8-2.65.55-.8.2-2.75 1.25Q-13-12.8-27.65-7.75l-6.1 1.95-3.8 1.35-1.55.6Q-49.8.25-49.8 3q0 1.55 3.5 2.3l7.2.55 3.9-.05 1.45-.05 3.8-.15 5.05-.35h.15l1.2.5m50-29 .05.3-2.1.2-2.6.3-.05-.35 2.6-.15 2.1-.3M30.9 47.5l2.9 1.4-1.3 1.35-.75 3.1v7l-4.1-1.4v-.35l.45-5.55.15-.4.3-.6.2-.55q.95-2.15 1.65-3.3l.5-.7M29.5 8.05l2.65.55 1.05.35q-.55 1.1-2.8 1.6l3.35-.25q.9.7.9 1.3l-.35.85-.4.45-2.35.35L30 12.8l-.25-.15-1.05-1.25.65-2.5.15-.85M.3-18.9q-18.6 4-31.75 8.85L-38.8-7.3l7.35-2.75Q-18.3-14.9.3-18.9m-5.1-1.65-2.25-.2-4.7 1.25q-2.7.95-4.5 2-1.75 1-1.55 1.55l2.2.2q2.05-.3 4.75-1.25 2.65-1 4.4-2 1.8-1.05 1.65-1.55" transform="translate(51.1 36.65)"/><path fill-rule="evenodd" fill="#181812" d="m21.75-22.8-5-.15q-2.15-.3-2.35-.7-.2-.45 1.7-.8l4.75-.5 4.95.2q2.2.2 2.4.65.15.45-1.75.85l-2.1.3-2.6.15M4.1-20.45l3.3-.5.6.5 1.55 1.25-6.5 1.2.7-1.65.35-.8m3.9 0-4.25.8 4.25-.8m-12.8-.1q.15.5-1.65 1.55-1.75 1-4.4 2-2.7.95-4.75 1.25l-2.2-.2q-.2-.55 1.55-1.55 1.8-1.05 4.5-2l4.7-1.25 2.25.2" transform="translate(51.1 36.65)"/><path fill-rule="evenodd" fill="#ebd7ab" d="M57.95-9.3 63-12.8q8.6-2.2 16.85-2.35 8.5 1.25 11.45 4.7l-16.9.9-9.95 1.2-2.7 1.7q1.35-2.3 5-4.9l-8.8 2.25m-69.3 20.5q.7 1.55-.95-.05l.95.05" transform="translate(51.1 36.65)"/><path fill-rule="evenodd" fill="#d6b65c" d="m-18.25 71.95.45-.8 1.05-.9 2-.6v.05l-.4.45-.1.1.2-.05-.65.95q0 .65.7 1.25l.95.6.5.25q1.35.6 3.15.85l-.3-2q1.4 1.4 3.1 2.15h.05l-.05.05q3.05-.1.45.55-4.9.55-7.05-.1-2.15-.7-3.1-1.5-1-.8-.95-1.3M-25.7 54.5l4.35-2 .4.65.6.75q-3.25 1.5 1.3 2.1l5.55 1.85-1.4.5-4.5-.65-1.95-.75-1.4-.55.85-.8-1.3.6-.25-.1q-.6-.2-1.15-.45l-.55-.6-.55-.55m49.45-3.55.85-.6 1.2 1.45-.95-.05-2.05-.2.95-.6M38.2 55.9l1.75.6-.6 1.9-.55-1.25-.6-1.25m2 14.55h.05-.05m-47.8 3.8-2-.05-.8-.1.8.1 2 .05m-13.35-21.1-4.2 1.9 4.2-1.9m12.9 28.3-.35.1-2.4 1.7h-.05v-5.3l1.65.35q.9 1.35 1.15 3.15" transform="translate(51.1 36.65)"/><path fill-rule="evenodd" fill="#5a5a41" d="M41.75 4.05q8.3-7.65 16.2-13.35l8.8-2.25q-3.65 2.6-5 4.9l-8.2 5.3-11.8 5.4M83.7-15.1l-1.45-1.65-.55-2.3 1.85-1.3L85.8-19l2.65-9.45h3.45L89.7-18.2 85.25-17l-.55 1.95-1-.05m10.4-3 10.05-9.05 3.7.85-1.2 2.6-10.35 5.6h-2.2m5.85 6.25q6.6-.35 12.1 2.45v.25l-10.9-1.65-1.2-1.05M-21.35 52.5l-.05-.1-.1-.3q.05-1 .9-1.25.8-.2 1.1.2l.05.05h.05l.6.3.1-.05.2.05.7.15.4.35.6.2-.45.5q-.25 1 0 1.85l.1.25 1.05.8v.05q-1.05-.5-2.65-1l-1.4-.45-.2-.2-.6-.75-.4-.65M85.8-19l-.55 2 .55-2M-17.25 54.45l-1.5-.15-.75-.5q-.25-.6 0-1.35.35-.8.7-1.05-.35.25-.7 1.05-.25.75 0 1.35l.75.5 1.5.15" transform="translate(51.1 36.65)"/><path fill-rule="evenodd" fill="#68170f" d="m37.65 2.7 1.05.45q.45 1.25 1.55 2.3l1.4 1.05.1 1.3-.65.8q-2.85 3.25-7.2 4.3l.4-.45.35-.85q0-.6-.9-1.3l-3.35.25q2.25-.5 2.8-1.6l-1.05-.35-2.65-.55.1-.8 1.85.35q1.7-.55 2.05-1.6l.1-.25V5.7l1.4-.8.55-.2q1.2-.6 2.1-2m6.2 42.25 2.45 1.35.65 2.2-1-1.55-.2-.25-3.45-1.2-5.35 1.5-2.6 2.85-.8 2.75-.5 1.6-.15.5-.05 5.8 1.5.5-1.7.85-3.6-1.45-1.5-.65.1-.8 4.1 1.4v-7l.75-3.1 1.3-1.35-2.9-1.4q1.15-1.5 3.9-3l6.55-1 2.5 1.45m-62.2 5.35.2-.7 3.65-1.75 4.65.55.75.75 2.1-1.6 2.5 2.85.7.9-.8 2.9-.2 1.75q-.2 2.45.5 4.55l-2.8.9-.9-.55 1.4-.6 1.4-.6-1.95-5.6L-8 51.7l-1.75-1.9-.1-.15-.4-.45-5-.35-.95.5-.25.1-.35.2-.2.05-1.35.6" transform="translate(51.1 36.65)"/><path fill-rule="evenodd" fill="#666649" d="m21.4 17.95-.1-.1h.1v.1m-34.85 8.65-.05.05v-.05h.05m3.7 23.2-.1-.15.1.15M-7 47.55l-.15-.2h.1l.05.2" transform="translate(51.1 36.65)"/><path fill-rule="evenodd" fill="#7f6f45" d="m11.9 62.65-.25.25q-3.7 3.65-8 3.65-4.35 0-6.75-3.65l-.6-1.05-.6-1.35q-.7-2.1-.5-4.55l.2-1.75.8-2.9 1.25-2.6 1-1.55 1.25-1.4.25-.3.65-.6q4.05-1.65 6.9-1.05 3.2 6.8 5.15 5.8l-.25.65q3.2-1.4 3.15-4.8l1.05-1.15q5.65.5 7.15 6.65l-.95.6v3.9l1.1 1.75.85.35.15.05 1 .35q-.2 3.05-5.5 5.75l-.1-.05q-3.55.9-5.2-1.6l-.4-3.25-1.75 2.7-1.05 1.15M-19.4 51.1l1.05-.8 1.35-.6.2-.05.35-.2.25-.1 4.4.4.4 1-.05.05-3.05 1.85-.1.05-1.35-1-.6.25-.25.15-.6-.2-.4-.35-.7-.15-.2-.05-.1.05-.6-.3m3.8-3.35-2.7-4.5q-.55-1.55-.55-3.35 0-4.5 3.15-7.7l.5-.45q1.55-1.4 3.4-2.05l2-.5.3-.05q-8.1 4.35-.5 9.6l-3.05 1.15q5.3.55 4.8 3.4-.3 1.45-2.1 3.55l-2.25-.35-3 1.25m9-25.15q-2.5-.35-4.05-1.75Q-12.7 19-12.7 16.4q0-2.65 2.05-4.5l.45-.55-1.15-.15-.95-.05q-3.55-.3-7.15-.15l-.7-.6.85-.5 2.4-.45 3.3-.65-5.65-1.25-.85-.35-3.45-1.45-1.2-.5h-.05l.05-.05Q-21 3.75-19.4 3l3.95-1.7 4.6-2-3.25 2.5 5.4 1.45-2.5 3.25 7.4 5.85q-1.05 1.2-1.6 2.85l-.1.25q-.5 1.35-.65 3.05l-.4 3.5-.05.6M-19.3 7.55l-.8-.35.85.35h-.05M15.15 57.9l.2-.55-.2.55m-4.65-.2q1.3-3.65-1.55-8.1-9.05 5.1-10.5 8.15-1.45 3 1 4.5 2.35 1.45 5.3 1.6 4.2-2 5.75-6.15m-20.7-46.35 6.4 1-6.4-1" transform="translate(51.1 36.65)"/><path fill-rule="evenodd" fill="#948052" d="M8.25-5.95v-.1l-.3-1.1.25-.05q1.25-.1 2.05 1.4.4 1.45 1.8 3.7Q13.45-.9 21 3.75q.35.55.4 1.4.05 1.7-.85 2.9L18.1 10.6l-3.05 2.65-.7.6-.75.55-1.45 1.2-.75.3-.45.2h-1L15.4 10V5.85L9.65 0l-1.4-5.95" transform="translate(51.1 36.65)"/><path fill-rule="evenodd" fill="#9e8958" d="M8.25-5.95 9.65 0l5.75 5.85V10l-5.45 6.1-4.95.15.6-.3.7-.35q-1.9-.7-2.45-1.55-2.5-4-1.4-10.35-2.85-1.45-5.9.3Q-6.5 5.7-1.3 9.9l-.05 1.5-2.6-2.25Q-5.3 7.5-5.2 5.65q.55-1.55 1.45-2.05Q1.6.35 4.8-2.95l1.45-3.2q.6-.9 1.7-1l.3 1.1-1 .2L5.8 3.5l.15-.3q.25-.4.75-.5l1.55-.2v-8.45" transform="translate(51.1 36.65)"/><path fill-rule="evenodd" fill="#be2f1b" d="m32.6-24.6 2.85.3 4.3.5q7.9 1.05 14.65 2.6l1.05.25 1.35.3 2.7.75q.85.3 1.3 1.3.45 1 0 2-.55 1.55-3.3 3.05-4.6 2.5-10.45 4.4l-7.7 2.4-.95-.45 5.7-1.7q7.35-2.5 11.35-4.5 4.75-2.45 4.75-4.3 0-1.85-4.75-2.45l-2.05-.25q-3.7-.25-9.3-.05l-8.65.55-3.75.4-8 .95L5.2-15.5l-16.25 3.4-5.5 1.3-2.2.6-8.9 2.45q14.65-5.05 25.2-9.9L.3-18.9l.8-.2 2.65-.55-.7 1.65 6.5-1.2L8-20.45l-.6-.5-3.3.5-.15-.35q4.8-2.6 4.8-3.85 0-1.85-10.85.55l6.7-1.95 16.15.5 2.4.15 9.45.8m-6.15 1.35q1.9-.4 1.75-.85-.2-.45-2.4-.65l-4.95-.2-4.75.5q-1.9.35-1.7.8.2.4 2.35.7l5 .15.05.35 2.6-.3 2.1-.2-.05-.3m13.3-.55-13.25.85 13.25-.85M21.8-22.45l-13.8 2 13.8-2" transform="translate(51.1 36.65)"/><path fill-rule="evenodd" fill="#aa9566" d="M8.25-6.05V2.5l-1.55.2q-.5.1-.75.5l-.15.3 1.45-9.35 1-.2M5 16.25 2.8 15l-1.6-1.35-2.55-2.25.05-1.5q1.7 2.35 5.15 4.15.55.85 2.45 1.55l-.7.35-.6.3" transform="translate(51.1 36.65)"/><path fill-rule="evenodd" fill="#494936" d="m37.55.5.15 1.4-.05.8q-.9 1.4-2.1 2l-.15-.25 1-1.3-1 1.3-.4.45-1.4.8v.05l-.1.25q-.35 1.05-2.05 1.6l-1.85-.35-.9-.45-.15-.25-.2-.45q-.45-1.55.6-3.05l.75-.45h.05l.1-.05q4-2.25 7.7-2.05M-14.4 25q.95-.6 2.2-.6l1.2.15.1-.35q.3-.8 1-.95.7-.2 1.3.4l.35.4q.35.5.55 1.15.2.95-.1 1.8-.25.8-.95 1-.6.15-1.15-.3.35.45.2 1.15l-.1.35-2 .5q.65-1.05-.7-1.25v-.05q1-.85 2.3-1l.15.15.1.1.05.05-.05-.05-.1-.1-.15-.15q-1.3.15-2.3 1 .25-2.05-1-1.75l.05-.05q1-.85 2.5-.8l.05.2.7 1.4-.7-1.4-.05-.2q-1.5-.05-2.5.8h-.05q.7-1.2-.9-1.6m25.8-9.1.75-.3 1.45-1.2.75-.55.7-.6 1.6.05 2.25-.5 2.3-.95.35-.2q1.25-.5 2.7-.5l1.9.25q1.6.45 2.9 1.65l.15.15.2.2.4.35-.4-.35-.2-.2-.15-.15.7-.4.25.15 2.6 2.85h5.15l-1.6 3.8q-2.8 3.4-8.95 4.15h-.05q-1.7-.7-3.15-1.9l-.4-.35q-2.1-1.5-2.2-3.4v-.1q2.5-1.9-.15-4.55l-1.95.55-1.2.55-6.7 1.5M31.3 5.45l.75.3h1.55-1.55l-.75-.3M-11 24.55l.05 1.25-.05-1.25" transform="translate(51.1 36.65)"/><path fill-rule="evenodd" fill="#cdad67" d="m92.25 23.8-2.8.1-3.8.1-2.6-.05q-3.85-.25-7.2-1.2-1.9-1.6 4.65-3.25l-7.25-5.75 8.3-1.45Q70.15 8.9 67.5 2.9q-.8-3.95 3-6.75-4.55 3-9.15 1.35-.9-1.9.4-4.15l2.7-1.7 9.95-1.2 16.9-.9q.25 3.75-5.05 5.4Q96.9-7.45 94.05.2 92 4.7 85.85 6.15 105.2 11 96.35 14.1q10.25 6.05-4.1 9.7" transform="translate(51.1 36.65)"/><path fill-rule="evenodd" fill="#3f3e2e" d="M91.9-28.45h3q-2 5.85-.8 10.35l-3 2.65-6.4.4.55-1.95 4.45-1.2 2.2-10.25M112.05-9.4l.05.2-.05.05v-.25m-11.2 7.45 5 2.3-.7.65-6.7-1.55 2.4-1.4m3.05 25.4 1.15 1.1q1.4 3.6.8 7.15l-7.95.95q.4-4.85-2.85-8.95l8.85-.25m-14.45.45-.8.85L84.3 30l-3.95-1.7 2.7-4.35 2.6.05 3.8-.1" transform="translate(51.1 36.65)"/><path fill-rule="evenodd" fill="#ffffb6" d="m-19.75 81.5 1.4-1.55q1.7-2.4 1.3-5 .1.6 1 1.15-.45 3.3-1.3 5.4l-.1.3-.35-.3h-1.95m5.05-11.85.95-2.3.15.2q.25 2.55-1.4 4.85-.7-.6-.7-1.25l.65-.95.3-.5.05-.05M-26.55 56.1l.75-1.55.1-.05.55.55.55.6-1.95.45m9.85 4.55-.8-.85-1.9-2.1 4.5.65-1.8 2.3" transform="translate(51.1 36.65)"/><path fill-rule="evenodd" fill="#c49733" d="m33.05 54.2 2 .65.75 3.1-.15 3.55.15-3.55.75-2.6 1.65.55.6 1.25.55 1.25-.05 3.8-.9-.15-.2-.05.6-4.85-.6 4.85-1.75-.3h-.15l-.2-.05h-.05l-.4-.15-1.3-.5-1.5-.5.05-5.8.15-.5m-4.8-1.55-.15.4-.45 5.55-1.75-.65-.95-2.95-.1-3.25.1 3.25-.2-.6v3.15l-.85-.35-1.1-1.75v-3.9l2.05.2.95.05 1.5.5.95.35M26.8 57.7l.5-5.4-.5 5.4" transform="translate(51.1 36.65)"/><path fill-rule="evenodd" fill="#98700a" d="m24.6 50.35 1.8-.8.05.15q.05.9.85 1.35l1.45.45-.2.55-.3.6-.95-.35-1.5-.5-1.2-1.45" transform="translate(51.1 36.65)"/><path fill-rule="evenodd" fill="#dfc791" d="M3.85 14.05Q.4 12.25-1.3 9.9-6.5 5.7-3.45 4q3.05-1.75 5.9-.3-1.1 6.35 1.4 10.35" transform="translate(51.1 36.65)"/><path fill-rule="evenodd" fill="#d8b76b" d="M-16.1 63.85h-.95l-.6-.2-.6-.25-1.25-2.6v2.15l-1.25-.5-2.75-1.05-.7-2.85-.4-2.9.4 2.9-.2-.85v3.35l-.3-.15-.85-1.05-1-3.75 1.95-.45q.55.25 1.15.45l.25.1-.2.1v.05l.45 3.25.2-3.2 1.4.55 1.95.75 1.9 2.1.8.85.6 3.2m-4.65-1.4-.6-5.5.6 5.5m3.25-2.65-.15 3.85.15-3.85" transform="translate(51.1 36.65)"/><path fill-rule="evenodd" fill="#785607" d="m48.9 50.8 1.05 2.55-1.85-.4.8-2.15" transform="translate(51.1 36.65)"/><path fill-rule="evenodd" fill="#5c430a" d="M39.9 62.3q-1.25 2.2-1.05 3.35l.05.25h.8l.55.45 1.5 1v1.5L40.5 70.3l-.25.15v.15l-.25.7q-.9 3.4-.4 6.45l.5.85-2.85 2.05-1.8-1.1-1.85.5-.3-.3.8-1q1.65-2.55 1.15-7h-.5l-.85-.15-.7-.5q4.9-.1 6.5-3.3l-3.7.7-2.05-1.25v-.35q-3.4-2.1-4.25-4.25l-.65-2.25 3.6 1.45 1.7-.85 1.3.5.4.15h.05l.2.05h.15l1.75.3.2.05.9.15.6.1m-.6 4.4-.4-.8.4.8m.95 3.75h-.05.05m-5 1.3 2.65-.4 2.3-.9-2.3.9-2.65.4" transform="translate(51.1 36.65)"/><path fill-rule="evenodd" fill="#6c4f0b" d="m47.45 50.2 1.45.6-.8 2.15 1.85.4v3.8L48.7 58.7l-3.15 1.4q-1.1-1.55-.55-3.95l-1.1 4.65-3.6 1.55-.4-.05-.6-.1.05-3.8.6-1.9-1.75-.6-1.65-.55-1.5-.5-2-.65.5-1.6 2.25.7q.8.1 1.7-.35h.75q1.35-.05 1.85-.6l.4-.55 1 .15q1.1-.05 1.5-.5l.1-.1.85.1q1-.05 1.35-.45l.2-.2 1.45.05.5-.65m-18.2 19.3-1.4-1.25.1-1.85 1.55-.35q.5-1.6.2-3.4.85 2.15 4.25 4.25v.35L36 68.5l-.35.05-4.55-.5q-1.75-.55-1.85-1.45l.25-.55-.25.55q.1.9 1.85 1.45l4.55.5.35-.05 3.7-.7q-1.6 3.2-6.5 3.3l.7.5.85.15h.5q.5 4.45-1.15 7l-.8 1 .3.3-4.75 1.25.25-.55.45-1.1 1.25-8.05-1.55-2.1M-3.7 61.85q-2.5 3.2-2.15 6.15l.1.3v.15l.05.15q.25 1.05.95 1.9-5.15-.3-9.25-6.25l-.15-.75-.9.35h-1.05l-.6-3.2 1.8-2.3 1.4-.5-5.55-1.85q-4.55-.6-1.3-2.1l.2.2 1.4.45q1.6.5 2.65 1h.05l.9.4.75.2v.05l2.2.15q1.45-.55 2-1.35l1.65-.8 1.4-.15 1.95 5.6-1.4.6-1.4.6.9.55 2.8-.9.6 1.35m40.9 7.7q-5.4.3-7.4-.85l.95 1.4 6.45-.55m-50-6.65-.7-5.05.7 5.05 2.8-1.2-2.8 1.2-1.35.6 1.35-.6m1.65-5.45L-10 61.7l-1.15-4.25m3.15 3.4-2 .85 2-.85m1.4-.6L-8 55.5l1.4 4.75" transform="translate(51.1 36.65)"/><path fill-rule="evenodd" fill="#bc9232" d="m-18.25 63.4-1.25-.45V60.8l1.25 2.6m-5.25-2-.9-.35V57.7l.2.85.7 2.85m.75-5-.2 3.2-.45-3.25v-.05l.2-.1 1.3-.6-.85.8" transform="translate(51.1 36.65)"/><path fill-rule="evenodd" fill="#dcbd78" d="m-12.8 69.75 2.1 2.35.3 2q-1.8-.25-3.15-.85l.75-3.5m1.95 8.2v5.3l-1.1-.5-1.15-.05-2.35-.1q1.25-2.95 1.2-5.65l3.4 1m-2.25 3.9v.85-.85" transform="translate(51.1 36.65)"/><path fill-rule="evenodd" fill="#e4cd9a" d="M-13.6 67.55v-.05l.05.05q-.05 1.1.75 2.2l-.75 3.5-.5-.25-.95-.6q1.65-2.3 1.4-4.85m-2.45 8.55 1.8.85q.05 2.7-1.2 5.65l-.3.75-1.7-1.55.1-.3q.85-2.1 1.3-5.4" transform="translate(51.1 36.65)"/><path fill-rule="evenodd" fill="#70530d" d="m-4.75 70.5.2.3 1.05 1.3.8 1.75-2.65 3.35q-.6 2.35-.15 3.8l-2.55.45q-.25-1.8-1.15-3.15l-1.65-.35-3.4-1-1.8-.85q-.9-.55-1-1.15l-.3-.7-.8-1.75-.1-.55q-.05.5.95 1.3.95.8 3.1 1.5 2.15.65 7.05.1 2.6-.65-.45-.55l.05-.05h-.05q-1.7-.75-3.1-2.15l-2.1-2.35q-.8-1.1-.75-2.2l-.05-.05v.05l-.15-.2.2-.75-.45-2.35q4.1 5.95 9.25 6.25m-.75 3.4-2.05.35 2.05-.35m-11.85.35 1.75 1.05 1.65.55 3.45.35 2.2-.15 2.35-.6-2.35.6-2.2.15-3.45-.35-1.65-.55-1.75-1.05" transform="translate(51.1 36.65)"/><path fill-rule="evenodd" fill="#ac8939" d="M55.15 33.15q-4.95 3.1-9.65 4.5-.35-4.35-3.6-7.5-3.65-3.5-8.7-3.5-2.4 0-4.4.75l-1.65-3.75v-.05h.05q1.95.8 4.3.8 4.65 0 7.95-3.05 3.25-3.05 3.3-7.3-.05-3-1.65-5.45l.65-.8.6-.9-.7-.4-1.4-1.05q7.45-1.9 9.9 0 .15 6.45-6.5 14.4 5.75-2.25 10.45 0 .7 4.15-4.7 8.3 8.45-2.75 9.35-.5.95 2.4-3.6 5.5" transform="translate(51.1 36.65)"/><path fill-rule="evenodd" fill="#312f24" d="m40.25 5.45 1.5-1.4 11.8-5.4 8.2-5.3q-1.3 2.25-.4 4.15 4.6 1.65 9.15-1.35-3.8 2.8-3 6.75 2.65 6 14.05 9.4l-8.3 1.45 7.25 5.75q-6.55 1.65-4.65 3.25-3.4-.95-6.3-2.65l-.15 1.05q-7.35 7.65-14.25 12 4.55-3.1 3.6-5.5-.9-2.25-9.35.5 5.4-4.15 4.7-8.3-4.7-2.25-10.45 0 6.65-7.95 6.5-14.4-2.45-1.9-9.9 0m39.6-20.6 3.85.05 1 .05 6.4-.4 3-2.65h2.2l10.35-5.6-1.3 2.65 1.8 2.8-9.45 6.6 2.25-.2 1.2 1.05 10.9 1.65.05-.05 1.1 4.9-12.35 2.35-2.4 1.4 6.7 1.55 2.4.55 8.1 9.4q-2.1 6.65-7.35 14l-3.25-1.55-1.15.05-8.85.25-2.8.1q14.35-3.65 4.1-9.7 8.85-3.1-10.5-7.95Q92 4.7 94.05.2q2.85-7.65-7.8-5.25 5.3-1.65 5.05-5.4-2.95-3.45-11.45-4.7M69.8 17.75l-.25 2.35.25-2.35" transform="translate(51.1 36.65)"/><path fill-rule="evenodd" fill="#5c5c42" d="m-16.2 49.35.95-.5 5 .35.4.45.1.15-1.65.95-.4-1-4.4-.4" transform="translate(51.1 36.65)"/><path fill-rule="evenodd" fill="#3a3929" d="m-11.4 50.75 1.65-.95L-8 51.7l.85 2.35-1.4.15-1.65.8q-.55.8-2 1.35l-2.2-.15v-.05l-.75-.2-.9-.4-.05-.05-1.05-.8-.1-.25q-.25-.85 0-1.85l.45-.5.25-.15.6-.25 1.35 1 .1-.05 3.05-1.85.05-.05m-3 5.4q-.75-.75-.55-1.45-.2.7.55 1.45" transform="translate(51.1 36.65)"/><path fill-rule="evenodd" fill="#4e3807" d="m45.55 60.1-1.65.7 1.1-4.65q-.55 2.4.55 3.95m-10.5-5.25 1.5.5-.75 2.6-.75-3.1m-10.1.15.95 2.95-1-.35-.15-.05V54.4l.2.6" transform="translate(51.1 36.65)"/><path fill-rule="evenodd" fill="#ffea91" d="m-6.5 24.95-.1-2.35.05-.6.4-3.5q.15-1.7.65-3.05l.1-.25q.9 2 5.1 3.35-9.25 6.65.1 16.05-1.45-.45-4.6-3.95l-.65-1.35q-.85-2.05-1.05-4.35" transform="translate(51.1 36.65)"/><path fill-rule="evenodd" fill="#40402f" d="M41.1 8.6q1.6 2.45 1.65 5.45-.05 4.25-3.3 7.3-3.3 3.05-7.95 3.05-2.35 0-4.3-.8 6.15-.75 8.95-4.15l1.6-3.8H32.6L30 12.8l1.55.45 2.35-.35q4.35-1.05 7.2-4.3" transform="translate(51.1 36.65)"/><path fill-rule="evenodd" fill="#987012" d="m27.15 77.45.15-.2.75-1.1 1.2-6.65 1.55 2.1-1.25 8.05-.45 1.1-1.95-3.3m10.05-7.9-6.45.55-.95-1.4q2 1.15 7.4.85" transform="translate(51.1 36.65)"/><path fill-rule="evenodd" fill="#430f0a" d="m-18.75-10.2 2.2-.6L-14-8.1q-1.55 1.9-3.55 3.9-2.65 2.65-6.15 5.35l-3.6 2.65.55.6 1.95.85h.05-.15l-5.05.35-3.8.15-1.45.05q-9.35-.7-5.15-4.6Q-29.2-7-18.75-10.2m50.45-9.3 3.75-.4 8.65-.55q5.6-.2 9.3.05Q55-14.2 37.6-7.6l-2.15-.95q-4.1-1.9-7.35-4.75 2.65-3.3 3.6-6.2" transform="translate(51.1 36.65)"/><path fill-rule="evenodd" fill="#861e13" d="m-27.65-7.75 8.9-2.45Q-29.2-7-40.35 1.2q-4.2 3.9 5.15 4.6l-3.9.05-7.2-.55q-3.5-.75-3.5-2.3 0-2.75 10.7-6.85l1.55-.6 3.8-1.35 6.1-1.95M53.4-20.4l2.05.25q4.75.6 4.75 2.45t-4.75 4.3q-4 2-11.35 4.5l-5.7 1.7-.8-.4Q55-14.2 53.4-20.4" transform="translate(51.1 36.65)"/><path fill-rule="evenodd" fill="#868546" d="m-10.85 85.85-2.25.15h-.35l-1.25-.1-2.2-.45.9-1.6.2-.4.05-.1.3-.75 2.35.1 1.15.05 1.1.5v2.6m-2.25-3.15V86v-3.3" transform="translate(51.1 36.65)"/><path fill-rule="evenodd" fill="#97974f" d="m-16.9 85.45-.6-.2-1.7-.8q1-.95 1.75-2.65l1.7 1.55-.05.1-.2.4-.9 1.6m.9-1.6-1.5 1.4 1.5-1.4" transform="translate(51.1 36.65)"/><path fill-rule="evenodd" fill="#adac63" d="m-19.2 84.45-.1-.1-.6-.4-.6-.6h-.05l-.45-1.2 1.1-.5.15-.15h1.95l.35.3q-.75 1.7-1.75 2.65m.3-2.05-1 1.55 1-1.55" transform="translate(51.1 36.65)"/><path fill-rule="evenodd" fill="#656434" d="M26.7 83.35q-1.3-.95-1.9-2l.4-1.1 1.95-2.8 1.95 3.3-.25.55q-.95 1.75-2.15 2.05m-34.85 2-1.3.25-1.4.25v-2.6h.05l2.4-1.7.35-.1q.25 1.75-.1 3.9m-1.3-1.55v1.8-1.8" transform="translate(51.1 36.65)"/><path fill-rule="evenodd" fill="#434223" d="m40.1 78.6 1.2 2.25.4 1.1-.4.9q-.65 1.65-6.05 2.55.55-3.1-1.65-5.35l1.85-.5 1.8 1.1 2.85-2.05M-5.5 81l.5 1.1v2.25q-1.6.6-3.15 1 .35-2.15.1-3.9L-5.5 81" transform="translate(51.1 36.65)"/><path fill-rule="evenodd" fill="#54532c" d="m35.25 85.4-.8.1q-3.8.2-5.8-1l-1.95-1.15q1.2-.3 2.15-2.05l4.75-1.25q2.2 2.25 1.65 5.35" transform="translate(51.1 36.65)"/><path fill-rule="evenodd" fill="#d3b367" d="M-15.2 31.75q-1.3-1.3-1.3-3.05 0-1.8 1.25-3.05l.85-.65q1.6.4.9 1.6v.05l-.6.7.6-.7q1.25-.3 1 1.75v.05q1.35.2.7 1.25-1.85.65-3.4 2.05m43.75-25.2h-.3l-.4.7-1.55.3q-.95-.2-1.65-1-.8-.8-.95-1.75-.15-.95.45-1.45l.6-.35v-.35l-.5-.85q-.4-1.05.1-2.15.35-.85 1.85-1.4l4.3 3.9-.65.4-.1.05h-.05l-.75.45q-1.05 1.5-.6 3.05l.2.45M26.35-.1l-.6.4q-.85.7-.95 1.9l-.05.45.05-.45q.1-1.2.95-1.9l.6-.4m-.2 5.1.55.8q.65.65 1.55.75-.9-.1-1.55-.75l-.55-.8-.9-.65-.5-1.35.5 1.35.9.65-.2-1.05q0-1.1.75-1.85l.5-.4-.5.4q-.75.75-.75 1.85l.2 1.05" transform="translate(51.1 36.65)"/><path fill-rule="evenodd" fill="#992f1c" d="M-8.25 24.05q1.4 0 1.75.9.2 2.3 1.05 4.35L-8 29.05l-1.5.1-.3.05.1-.35q.15-.7-.2-1.15.55.45 1.15.3.7-.2.95-1 .3-.85.1-1.8-.2-.65-.55-1.15" transform="translate(51.1 36.65)"/><path fill-rule="evenodd" fill="#9c7d38" d="M20.75-25.55q2.65-4.4 7.55-7.55l.8-3.05h.55l-.7 3.9-2.5 2.4q-2.55 2.4-3.3 4.45l-2.4-.15M-19.8-17.6l-.5-1.55q-.85-3.3.05-6.15L-22-28.4h1.65l1.45 1.45h.4q-.85 2.65-.55 5.75l.25 3.15-1 .45" transform="translate(51.1 36.65)"/><path fill-rule="evenodd" fill="#bf9637" d="m37.4.1.15.4q-3.7-.2-7.7 2.05l.65-.4-4.3-3.9q4.45-1.7 6.15-1.7 2.2 0 3.75 1.55.9.9 1.3 2" transform="translate(51.1 36.65)"/><path fill-rule="evenodd" fill="#b28e3c" d="m41.65 6.5.7.4-.6.9-.1-1.3" transform="translate(51.1 36.65)"/><path fill-rule="evenodd" fill="#6c5624" d="M9.95 16.1h1l.45-.2 6.7-1.5 1.2-.55 1.95-.55q2.65 2.65.15 4.55h-.1l.1.1q.1 1.9 2.2 3.4l.4.35q1.45 1.2 3.15 1.9v.05l1.65 3.75q-1.65.6-3.05 1.65l-.75.6q2.4 1.25 1.35 3.35-1.9 1.75-5 1.2 2.85.85 3 2.4-2.45 0-3.5.65-1.5.9-4.25.95h-.9q-6.25-.15-6.5-3.85-.3 3.5-4.3 4.65-3.45-.5-5.35-1.75l-.7-.55L-3 33.55l-.3-.55-.05-.05-.1-.2-1.35-2.1q3.15 3.5 4.6 3.95-9.35-9.4-.1-16.05-4.2-1.35-5.1-3.35.55-1.65 1.6-2.85l1.3.3 3.7 1L2.8 15 5 16.25l4.95-.15m4.8.65q1.4-1.4 3.35-2.35-1.95.95-3.35 2.35M3.15 18.1Q2.1 17.1.6 16.6q-.65-.25-1.3-.35l-1.4-.15 1.4.15q.65.1 1.3.35 1.5.5 2.55 1.5" transform="translate(51.1 36.65)"/><path fill-rule="evenodd" fill="#5c5034" d="m27.65 58.95-1.9 2.9q-2.65 3.5-6.9 3.5-3.8 0-6.95-2.7l1.05-1.15 1.75-2.7.4 3.25q1.65 2.5 5.2 1.6l.1.05q5.3-2.7 5.5-5.75l1.75.65v.35m-3.9-8q-1.5-6.15-7.15-6.65l-1.05 1.15q.05 3.4-3.15 4.8l.25-.65q-1.95 1-5.15-5.8-2.85-.6-6.9 1.05Q1.9 43.7 3.25 43l5.95-1.5.5 1.45Q10.25 44 11.15 44q.8 0 1.4-1.05.45-.85.55-2 3.55 1.35 7.75 1.5 1.55 1.1 2.95 2.5 1.6 1.65 2.8 3.7l-.05.05-.1.6-.05.25-1.8.8-.85.6" transform="translate(51.1 36.65)"/><path fill-rule="evenodd" fill="#8d7a50" d="M10.5 57.7q-1.55 4.15-5.75 6.15-2.95-.15-5.3-1.6-2.45-1.5-1-4.5Q-.1 54.7 8.95 49.6q2.85 4.45 1.55 8.1" transform="translate(51.1 36.65)"/><path stroke-width=".25" stroke-linejoin="round" stroke-linecap="round" stroke="#313124" fill="none" d="M71.85 11.1q2.65-4.4 7.55-7.55L80.2.5h1.05v2.6l1.85-1.7 1.1.8-2 2.5 1.5 7.35 2.85.3 4.3.5q7.9 1.05 14.65 2.6l1.05.25 1.35.3M88.5 36.75l.15.4.15 1.4-.05.8M101.05 90v3.8m-1.25 1.55-3.15 1.4-1.65.7L91.4 99m-.4-.05q-1.25 2.2-1.05 3.35l.05.25.4.8m.4-.8.55.45m0 4.25-.25.7q-.9 3.4-.4 6.45l.5.85 1.2 2.25.4 1.1-.4.9q-.65 1.65-6.05 2.55l-.8.1q-3.8.2-5.8-1L77.8 120q-1.3-.95-1.9-2l.4-1.1 1.95-2.8m.15-.2.75-1.1 1.2-6.65-1.4-1.25.1-1.85 1.55-.35q.5-1.6.2-3.4l-.65-2.25M31.2 118.3l.15-.15 1.4-1.55q1.7-2.4 1.3-5l-.3-.7-.8-1.75m1.4-2.25 2-.6h.05l.95-2.3.2-.75-.45-2.35-.15-.75-.9.35m-2 0-.6-.2-.6-.25-1.25-.45-1.25-.5-2.75-1.05-.9-.35-.3-.15M4.2 35.35l.6-.5 7.2-5.3.3-.2q8.55-5.75 19-10.3l-.5-1.55q-.85-3.3.05-6.15l-1.75-3.1h1.65L32.2 9.7h.8l1.25-2.6h.55l.4 3.2 5.75 4.9L49 12.55l6.7-1.95 16.15.5 2.4.15 9.45.8M79.65 43.2h-.3l-.4.7-1.55.3q-.95-.2-1.65-1-.8-.8-.95-1.75-.15-.95.45-1.45l.6-.35v-.35l-.5-.85q-.4-1.05.1-2.15.35-.85 1.85-1.4 4.45-1.7 6.15-1.7 2.2 0 3.75 1.55.9.9 1.3 2m8.55 46.85-.2-.25-3.45-1.2-5.35 1.5-2.6 2.85-.8 2.75-.5 1.6-.15.5m2.1-49.8-1.4.8m0 .05h-1.55l-.75-.3m4.1-1-.4.45m1.4-1.75-1 1.3m-6.45-1.4q-1.05 1.5-.6 3.05l.2.45.15.25m-3.95-3.8.5 1.35.9.65-.2-1.05q0-1.1.75-1.85l.5-.4m1.05 4.85q-.9-.1-1.55-.75l-.55-.8m-1.4-2.35.05-.45q.1-1.2.95-1.9l.6-.4m-4.8 11.75q1.25-.5 2.7-.5l1.9.25m2.9 1.65.15.15.2.2.4.35m-.75-.7q-1.3-1.2-2.9-1.65m-4.9 1.9-1.95.55-1.2.55q-1.95.95-3.35 2.35M49 52.75l1.4.15q.65.1 1.3.35 1.5.5 2.55 1.5m29.7 42.4 1.5.5 1.3.5.4.15h.05M77 94.6l1.75.65M73.9 88.2v3.9m1.1 1.75.85.35m.15.05 1 .35m3.6 8.1-.25.55q.1.9 1.85 1.45l4.55.5.35-.05m-.75 3.25h-.5l-.85-.15m5.8-3.8-3.7.7m4.25 1.95h-.05l-2.3.9-2.65.4m5-1.3.25-.15M66.45 94l-.2.55M31.3 19.05l1-.45 2.65-1.1 6-2.3m.3 71.1-.4-.45-5-.35-.95.5m6.35.3.1.15 1.75 1.9m2.8 7.95-1.4.6-1.4.6m-4.8 2.05 2.8-1.2 2-.85m-8.55-8.9.6-.25 1.35 1 .1-.05m.35 10.85 1.35-.6m5.2 11.35h.05l2.05-.35m-9.2-4.25-.05.05-.4.45-.1.1.2-.05m-.65.95q0 .65.7 1.25l.95.6.5.25q1.35.6 3.15.85l.8.1 2 .05m1.65 1.2-2.35.6-2.2.15-3.45-.35-1.65-.55-1.75-1.05"/><path stroke-width=".25" stroke-linejoin="round" stroke-linecap="round" stroke="#313124" fill="none" d="m107.9 16 2.7.75q.85.3 1.3 1.3.45 1 0 2-.55 1.55-3.3 3.05-4.6 2.5-10.45 4.4l-7.7 2.4m.9 4.35-2.85 2.5m.25 2.6 1.05.45m45-18.25-1.45-1.65m23.6 17.1-.7.65M155 60.1l1.15 1.1m-15.6-.65-.8.85M97.4 82.95l.65 2.2-1-1.55m4 10.2-1.25 1.55m-9.8 7.2h.8m.55.45 1.5 1v1.5l-1.25 1.45-.25.3m-11.2-10.2-1.5-.65.1-.8M31.8 121l-.6-.4-.6-.6m-.05 0-.45-1.2 1.1-.5m1.75-9.15-.1-.55.45-.8 1.05-.9m1.7-6.4h-2m-7.65-2.95-.85-1.05m7.2-9.55.2-.7.15-.65m-5.55-43.2-4.65.5-2.6.15-3.6.15h-5.65l-7.15-.75-1.3-.4q-1.7-.6-2-1.55-.3-1 .3-1.9.6-.9 3.3-3.25m80.45 53.9 2.25.7m1.85-50.6q-.9 1.4-2.1 2l-.55.2m-1.4.8v.05l-.1.25q-.35 1.05-2.05 1.6l-1.85-.35-.1.8m-.8-1.25.9.45m-3.45 4.15 3.2-2.5.15-.85m-14.45 5.2 1.6.05 2.25-.5 2.3-.95.35-.2m8.2 1-.7.4m-27.85.6-3.7-1M84 91.35l-.05 5.8m-3.8-.1 3.6 1.45 1.7-.85M79.2 89.7l-.45 5.55v.35m-4.85-3.5 1.1 1.75m-31.9-5.5.85 2.35 1.95 5.6m-2.8 1.2.9.55 2.8-.9m-.2-10.1.7.9m-3.35 2.75-1.4.15m-6.2 15.5-.3.5-.65.95"/><path stroke-width=".05" stroke-opacity=".263" stroke-linejoin="round" stroke-linecap="round" stroke="#ffc" fill="none" d="m77.6 13.7 13.25-.85M59.1 16.2l13.8-2 2.6-.3 2.1-.2M54.85 17l-2.65.55-.8.2m-39.1 11.6 7.35-2.75q13.15-4.85 31.75-8.85"/><path stroke-opacity=".102" stroke-linejoin="round" stroke-linecap="round" stroke="#fff296" fill="none" d="m-24.8 5.25.05-.05Q-21 3.75-19.4 3l3.95-1.7 4.6-2-3.25 2.5 5.4 1.45-2.5 3.25 7.4 5.85" transform="translate(51.1 36.65)"/><path stroke-width=".05" stroke-linejoin="round" stroke-linecap="round" stroke="#f60" fill="none" d="m72.85 13.85-5-.15q-2.15-.3-2.35-.7-.2-.45 1.7-.8l4.75-.5 4.95.2q2.2.2 2.4.65.15.45-1.75.85M55.2 16.2l3.3-.5.6.5 1.55 1.25-6.5 1.2.7-1.65 4.25-.8m13.75-2.35 2.6-.15 2.1-.3M55.2 16.2l-.35.8M82 84.15l2.9 1.4-1.3 1.35-.75 3.1v7l-4.1-1.4m8.45 2.7.2.05M46.3 16.1q.15.5-1.65 1.55-1.75 1-4.4 2-2.7.95-4.75 1.25l-2.2-.2q-.2-.55 1.55-1.55 1.8-1.05 4.5-2l4.7-1.25 2.25.2M32.95 86.25l3.65-1.75 4.65.55.75.75 2.1-1.6"/><path stroke-width=".05" stroke-linejoin="round" stroke-linecap="round" stroke="#4e3807" fill="none" d="m74.85 87.6.85-.6m13.6 11.65.2.05.9.15m-3-.5h.15l1.75.3M73.9 88.2l.95-.6"/><path stroke-width=".05" stroke-opacity=".471" stroke-linejoin="round" stroke-linecap="round" stroke="#4e3807" fill="none" d="m86.75 98.15.15-3.55m3-.8-.6 4.85M75.95 88.4l.1 3.25m2.35-2.7-.5 5.4m-40.3.15.7 5.05m2.8-1.2-1.15-4.25m3.15-1.95 1.4 4.75m-14.75-3.3.6 5.5m3.1 1.2.15-3.85m-7.65-4.75 4.2-1.9m-3.65 2.5.4 2.9"/><path stroke-width=".05" stroke-opacity=".314" stroke-linejoin="round" stroke-linecap="round" stroke="#4e3807" fill="none" d="M41.65 122.25v-1.8m-3.65-1.1v-.85m-4.4 3.4 1.5-1.4m-3.9.1 1-1.55m5.8 3.6v-3.3"/><path stroke-opacity=".102" stroke-linejoin="round" stroke-linecap="round" stroke="#ffea91" fill="none" d="m29.75 2.6.1-.05.65-.4-4.3-3.9m3.5 4.35-.75.45M-5.4 15.2q.9 2 5.1 3.35-9.25 6.65.1 16.05-1.45-.45-4.6-3.95M10.5 57.7q1.3-3.65-1.55-8.1-9.05 5.1-10.5 8.15-1.45 3 1 4.5 2.35 1.45 5.3 1.6 4.2-2 5.75-6.15m-20.85-10.85q1.8-2.1 2.1-3.55.5-2.85-4.8-3.4l3.05-1.15q-7.6-5.25.5-9.6" transform="translate(51.1 36.65)"/><path stroke-width=".25" stroke-opacity=".682" stroke-linejoin="round" stroke-linecap="round" stroke="#40402f" fill="none" d="m90.45 29.9.2.1.25.1 3.05 1.25-2.15 1.75h-1.9l1.45 1.15M89.8 39.8q.45 1.25 1.55 2.3l1.5-1.4q8.3-7.65 16.2-13.35l5.05-3.5q8.6-2.2 16.85-2.35l3.85.05 1 .05 6.4-.4 3-2.65 10.05-9.05 3.7.85-1.2 2.6-1.3 2.65 1.8 2.8-9.45 6.6 2.25-.2q6.6-.35 12.1 2.45l.05.2 1.1 4.9-12.35 2.35 5 2.3m-23.6-17.1-.55-2.3 1.85-1.3 2.25 1.35 2.65-9.45H146q-2 5.85-.8 10.35m11.05 19.1 2.4.55 8.1 9.4q-2.1 6.65-7.35 14l-3.25-1.55-1.15.05-8.85.25-2.8.1-2.8.1-3.8.1-2.6-.05q-3.85-.25-7.2-1.2-3.4-.95-6.3-2.65l-.15 1.05q-7.35 7.65-14.25 12-4.95 3.1-9.65 4.5v.95q.65 2.7-1.3 5.85l-.35.5 2.45 1.35m58.75-21.75q1.4 3.6.8 7.15l-7.95.95q.4-4.85-2.85-8.95m-6.4 1.05-4.35 5.25-3.95-1.7 2.7-4.35m-36.1 24.55.55.55.15.8-.2.35 1.45.6M78.75 95.6l-1.9 2.9q-2.65 3.5-6.9 3.5-3.8 0-6.95-2.7l-.25.25q-3.7 3.65-8 3.65-4.35 0-6.75-3.65l-.6-1.05q-2.5 3.2-2.15 6.15l.1.3v.15l.05.15q.25 1.05.95 1.9l.2.3 1.05 1.3.8 1.75-2.65 3.35q-.6 2.35-.15 3.8l.5 1.1V121q-1.6.6-3.15 1l-1.3.25-1.4.25-2.25.15h-.35l-1.25-.1-2.2-.45-.6-.2-1.7-.8-.1-.1m-6.25-24.5-1-3.75.75-1.55.1-.05 4.35-2-.05-.1-.1-.3q.05-1 .9-1.25.8-.2 1.1.2l.05.05h.05l1.05-.8m.35-1.35 2.4-1.2-2.7-4.5q-.55-1.55-.55-3.35 0-4.5 3.15-7.7l.5-.45q-1.3-1.3-1.3-3.05 0-1.8 1.25-3.05l.85-.65q.95-.6 2.2-.6l1.2.15.1-.35q.3-.8 1-.95.7-.2 1.3.4l.35.4q1.4 0 1.75.9l-.1-2.35q-2.5-.35-4.05-1.75-2.05-1.85-2.05-4.45 0-2.65 2.05-4.5l.45-.55-1.15-.15-.95-.05q-3.55-.3-7.15-.15l-.7-.6m1.1-.65 1.8-1.1-.2-.35-.9-.35-.9-.4-.85-.35-3.45-1.45m-4.1-13.5 8.9-2.45 2.2-.6 5.5-1.3 16.25-3.4 18.5-3.05 8-.95 3.75-.4 8.65-.55q5.6-.2 9.3.05l2.05.25q4.75.6 4.75 2.45t-4.75 4.3q-4 2-11.35 4.5l-5.7 1.7.95.45m-29.4 22.85h1l.45-.2.75-.3 1.45-1.2.75-.55.7-.6 3.05-2.65 2.45-2.55q.9-1.2.85-2.9-.05-.85-.4-1.4-7.55-4.65-8.95-5.85-1.4-2.25-1.8-3.7-.8-1.5-2.05-1.4l-.25.05m-9.3 18.55-2.6-2.25q-1.35-1.65-1.25-3.5.55-1.55 1.45-2.05Q52.7 37 55.9 33.7l1.45-3.2q.6-.9 1.7-1M74.8 18.1q2.25 3.35 4.4 5.25 2.65-3.3 3.6-6.2m-3.6 6.2q3.25 2.85 7.35 4.75l2.15.95.8.4m46.3-7.85.55-1.95.55-2m15.05 17.05-2.4 1.4 6.7 1.55m-35.6 19.1.25-2.35M92.75 43.15l.1 1.3-.65.8q1.6 2.45 1.65 5.45-.05 4.25-3.3 7.3-3.3 3.05-7.95 3.05-2.35 0-4.3-.8h-.05v.05l1.65 3.75q2-.75 4.4-.75 5.05 0 8.7 3.5 3.25 3.15 3.6 7.5m-1.65 7.3-2.5-1.45-6.55 1q-2.75 1.5-3.9 3m11.25 1.5q.65-.05 1.05.35.35.45.3 1.05l-.4.95.85.1q1-.05 1.35-.45l.2-.2.25-.75q.05-.6-.3-.95-.3-.4-.9-.35m-8.75 4.55q.8.1 1.7-.35l-1.15-.45q-.45-.4-.15-1M85 49.55q4.35-1.05 7.2-4.3m-11.75.3-.65 2.5 1.05 1.25.25.15 1.55.45 2.35-.35M74.7 58l.4.35q1.45 1.2 3.15 1.9M56.1 52.9l4.95-.15M52.3 50.3l1.6 1.35 2.2 1.25m-6.35-4.85 2.55 2.25m-3.7-1-1.3-.3-6.4-1m5.4 19.3 1.35 2.1.1.2.05.05.3.55m28-3.9.75-.6q1.4-1.05 3.05-1.65m-19.6 14.1-.05-.55M75.7 87l1.8-.8m.05-.25.1-.6.05-.05q-1.2-2.05-2.8-3.7-1.4-1.4-2.95-2.5-4.2-.15-7.75-1.5-.1 1.15-.55 2-.6 1.05-1.4 1.05-.9 0-1.45-1.05l-.5-1.45-5.95 1.5q-1.35.7-2.65 1.85l-.65.6-.25.3-1.25 1.4-1 1.55-1.25 2.6-.8 2.9-.2 1.75q-.2 2.45.5 4.55l.6 1.35m30.3-13.2q.6-1.5 2.1-2.2l.25-.85q0-2.25.95-4.1-4.85 1.05-9.05.95m7.9 9.05q.95-2.15 1.65-3.3l.5-.7m-1-6q.65-1.35 1.75-2.5M94.2 88l-.1.1q-.4.45-1.5.5l-1-.15-.4.55q-.5.55-1.85.6h-.75m-8.75-1.45-.2.55-.3.6-.15.4m-1.65-3.75v.4q.05.9.85 1.35l1.45.45m-2.3-2-.05.05m-11.7 9.25-1.75 2.7L63 99.3m33.6-11.85 1.45.05.5-.65m-8.4-.9q.8-.05 1.25.45.45.55.4 1.3l-.2.75m1.15-45.3-1.4-1.05m-75.45.35-3.9.05-7.2-.55q-3.5-.75-3.5-2.3 0-2.75 10.7-6.85l1.55-.6 3.8-1.35 6.1-1.95m13.65-.35q-1.55 1.9-3.55 3.9-2.65 2.65-6.15 5.35l-3.6 2.65.55.6 1.95.85h.05-.15l-5.05.35-3.8.15-1.45.05m21.2-13.9 2.95-4m-5.5 1.3 2.55 2.7M34.2 46.1l-.35-.8m-7.5-3.4 1.2.5M41.2 64.35l-.05-.05-.1-.1-.15-.15q-1.3.15-2.3 1m.7 1.3 2-.5.1-.35q.15-.7-.2-1.15.55.45 1.15.3.7-.2.95-1 .3-.85.1-1.8-.2-.65-.55-1.15m-1.55 5.15.3-.05 1.5-.1 2.55.25q-.85-2.05-1.05-4.35m1.05 4.35.65 1.35m-5.4-3.25-.7-1.4-.05-.2q-1.5-.05-2.5.8l-.05.05m-.6.7.6-.7m-1.7 5.1q1.55-1.4 3.4-2.05M34.65 86.1l-.35.2-.2.05-1.35.6m2.75-2.55 3-1.25 2.25.35m3.2.5-3.15-.5h-.05m3.35.7-.15-.2m.15.2 2.5 2.85m2.95-3.25-.25-.5-1.45-2.8-5-.55m-2.7-17.5-.05-1.25m2.45 29.65-1.65.8q-.55.8-2 1.35l-2.2-.15v-.05l-.75-.2-.9-.4H35q-1.05-.5-2.65-1l-1.4-.45-.2-.2m2.55-2.35-.7-.15-.2-.05-.1.05q-.35.25-.7 1.05-.25.75 0 1.35l.75.5 1.5.15q-.25-.85 0-1.85l.45-.5m.7 3.4.05.05.9.4m-.95-.45-1.05-.8-.1-.25m2.3.25q-.2.7.55 1.45m-6.95-3.65.4.65.6.75m23.6-10.9-6.5.85"/></g><g id="n"><path fill-rule="evenodd" fill="#4f4f39" d="M-5.4-5.55q2.95.3 3.8 2.45.8 2.1.5 3.75-.35 1.6-2.8 2.95-2.45 1.35-4.7 1.05-2.25-.35-3.65-2.05-1.4-1.7-.8-3.65.55-1.95 2.65-3.4 2.05-1.45 5-1.1" transform="translate(13.25 5.6)"/><path stroke-width=".25" stroke-opacity=".333" stroke-linejoin="round" stroke-linecap="round" stroke="#fff297" fill="none" d="M27.15 4.2q-2.75.05-5.9 1.6M4.2 5.1q2.7-.35 5.8 1.35m-6.05-.4q2.7-.35 5.8 1.35m17-4.3q-2.75.05-5.9 1.6"/></g><g id="c"><path stroke-width=".25" stroke-linejoin="round" stroke-linecap="round" stroke="#313124" fill="none" d="m50.1 49.25 1.15 1m16.1-1.85.95.7"/><path stroke-width=".25" stroke-opacity=".573" stroke-linejoin="round" stroke-linecap="round" stroke="#312f24" fill="none" d="m58.65 58.6.6-.6-.85-1.3.25 1.9-.4.35m-.05-2.55.2.3"/><path fill-rule="evenodd" fill="url(#k)" d="M11.65 2.55q.55.65.5 1.3l-3 2.95h-1.8L4.2 3.7l.1-.3.25-.45Q4.9 2.4 5.6 2.2l2.25-.25h1.3l2.15.25.35.35" transform="translate(49.75 26.05)"/><path fill-rule="evenodd" fill="#ebd7ab" d="m6.8 3.6-.3.2q-.25 0-.4-.2L6 3.3l.1-.4.4-.1.3.1.2.4-.2.3" transform="translate(49.75 26.05)"/><path fill-rule="evenodd" fill="#d3b367" d="M-11 12.7q-1.3 3.7.1 5.9l2.25 2.95-.55-.2-1.8-1.25q-1.45-1.55-1.45-3.7 0-2.2 1.45-3.7" transform="translate(49.75 26.05)"/><path fill-rule="evenodd" fill="#787252" d="M38.9 51.45q-.55.2-1.25 0t-1.1-.65q-.4-.35-.3-.8.15-.4.65-.6l1.3.1 1.05.55q.45.45.3.85l-.65.55m3.5-1.1h-.95l-.75-.45q-.3-.3-.25-.6l.5-.4.9.05.8.4q.3.3.2.6l-.45.4m-62.2 1.15-.35.55-.6.4-.45-.05-.1-.5.4-.6.55-.35.5.1q.15.15.05.45m1.55 1.1-.6.4-.45-.05-.1-.5.4-.6.55-.35.5.1q.15.15.05.45l-.35.55m2.55-.05-.35.55-.6.4-.45-.05-.1-.5.4-.6.55-.35.5.1q.15.15.05.45" transform="translate(49.75 26.05)"/><path fill-rule="evenodd" fill="#ffffb6" d="m-16.3 72.05 1.4 1.2 2.7 1.05q-2.4 0-4.1-1.35-1.7-1.4-.15-2.05l.2-.45q-.45 1-.05 1.6" transform="translate(49.75 26.05)"/><path fill-rule="evenodd" fill="#787252" d="m10.45 43.45-.4-.5-.25-.6.1-.4.35.1.45.5.2.6-.1.4-.35-.1" transform="translate(49.75 26.05)"/><path stroke-width=".25" stroke-linejoin="round" stroke-linecap="round" stroke="#f60" fill="none" d="m43.1 12.95 11.85-2.4 14.85-2.5"/><path stroke-width=".25" stroke-linejoin="round" stroke-linecap="round" stroke="#ca5202" fill="none" d="m97.5 5.5 7.7.4q1.95.25 3.1.7l.45.2"/><path stroke-width=".25" stroke-linejoin="round" stroke-linecap="round" stroke="#ec6002" fill="none" d="m69.8 8.05 3.65-.55 8-.95 3.75-.4 6.35-.45 2.3-.1 3.65-.1"/><path stroke-width=".25" stroke-linejoin="round" stroke-linecap="round" stroke="#fd751c" fill="none" d="M.1 28.4q1.05-2.6 10.55-6.2l1.1-.45"/><path stroke-width=".25" stroke-linejoin="round" stroke-linecap="round" stroke="#feb381" fill="none" d="m11.75 21.75.2-.05.25-.1 3.8-1.35 3.2-1.05.2-.05m12.05-3.45 1.75-.45.7-.15 3.65-.9 1.15-.25 4.4-1"/><path stroke-width=".25" stroke-linejoin="round" stroke-linecap="round" stroke="#febc92" fill="none" d="m19.4 19.15 1.15-.35m2.85-.85 1.55-.45 6.5-1.8"/><path stroke-width=".25" stroke-linejoin="round" stroke-linecap="round" stroke="#fff" fill="none" d="m20.55 18.8 1.55-.5 1.3-.35"/><path fill-rule="evenodd" fill="#fe7878" d="M7.45 19.3q-.35-.25-.8-1.55l-.3-1.2h1.7l.45 1.2.35-1.2h1.25l-.45 1.35v.1Q9 19.25 8.2 19.35l-.75-.05" transform="translate(49.75 26.05)"/><path fill-rule="evenodd" fill="#d04949" d="M6.35 16.55v-.95h4.5l-.1.95-.3 1.3-.2.5-.05.1q-.65 1.25-1.5 1.35-.65.1-1.25-.5l.75.05q.8-.1 1.45-1.35v-.1l.45-1.35H8.85l-.35 1.2-.45-1.2h-1.7" transform="translate(49.75 26.05)"/><path stroke-width=".25" stroke-opacity=".471" stroke-linejoin="round" stroke-linecap="round" stroke="#3d2a23" fill="none" d="M57.2 45.35q-.35-.25-.8-1.55l-.3-1.2v-.95h-1.15m2.25 3.7q.6.6 1.25.5.85-.1 1.5-1.35l.05-.1.2-.5.3-1.3.1-.95h-4.5m5.55 0H60.6"/><path fill-rule="evenodd" fill="#ebd7ab" d="m7.35 16.9-.3.2q-.25 0-.4-.2l-.1-.3.1-.4.4-.1.3.1.2.4-.2.3" transform="translate(49.75 26.05)"/><path fill-rule="evenodd" fill-opacity=".431" fill="#5c5034" d="M10.25 36.15Q17 37.7 21.45 34.7q-.35.9-3.05 2.45-2.75 1.5-8.15-1" transform="translate(49.75 26.05)"/><path fill-rule="evenodd" fill="#d3b367" d="m-9.75 26.9-.7-.55-.25-1.3.25-1.3q.3-.55.7-.55.4 0 .65.55.3.55.3 1.3t-.3 1.3q-.25.55-.65.55" transform="translate(49.75 26.05)"/><path fill-rule="evenodd" fill-opacity=".482" fill="#fcc" d="M.1 23.45Q-.15 23 0 22.7q.1-.3.45-.3l.75.3.65.75.05.75-.45.3q-.35 0-.75-.3l-.6-.75m17.5-.1-.6-.75q-.25-.45-.1-.75.1-.3.45-.3t.75.3l.65.75q.2.4.05.75l-.45.3q-.35 0-.75-.3" transform="translate(49.75 26.05)"/><path stroke-width=".25" stroke-opacity=".133" stroke-linejoin="round" stroke-linecap="round" stroke="#f30" fill="none" d="M49.85 49.5q-.25-.45-.1-.75.1-.3.45-.3l.75.3.65.75.05.75-.45.3q-.35 0-.75-.3l-.6-.75m17.5-.1-.6-.75q-.25-.45-.1-.75.1-.3.45-.3t.75.3l.65.75q.2.4.05.75l-.45.3q-.35 0-.75-.3"/><path fill-rule="evenodd" fill="url(#l)" d="M36.85 12.4q-2.4 1.95-5 3.25-6.15-8.3-20.4-.45l2.5-1.45.75-9.4q-1.15-1.3-3.75-1.75-8.2-22.95 12.1-11.15Q43.3 3.2 36.85 12.4" transform="translate(49.75 26.05)"/><path stroke-width=".05" stroke-opacity=".263" stroke-linejoin="round" stroke-linecap="round" stroke="#313124" fill="none" d="M70.6 7.85Q63.45 1.8 54.35 0l-.95.35q-6.35 2.45-11.95 13m56.5-8.7Q79.3 1.6 54.35 0m-.95.35Q32.9 7.3 13.75 21.1"/></g><g id="o"><path fill-rule="evenodd" fill-opacity=".314" fill="#51350d" d="M2.8 4.35q9.15 3.6 15.65 6.8L3.85 8.7l-5.5-2.9-.05-.6 4.5-.85" transform="translate(2.95 5.9)"/><path fill-rule="evenodd" fill="#f6f2d9" d="m-1.9 5.8-.95-8.15h1.3l1.35 4.8L1.05-5.8l1.75.5V5.5H-.7v-.05l-1.2.35m2.4-.7-.7-2.65.7 2.65" transform="translate(2.95 5.9)"/><path stroke-width=".25" stroke-opacity=".4" stroke-linejoin="round" stroke-linecap="round" stroke="#353116" fill="none" d="M1.05 11.7.1 3.55h1.3l1.35 4.8L4 .1l1.75.5v10.8m-3-3.05.7 2.65"/></g><g id="p"><path fill-rule="evenodd" fill-opacity=".314" fill="#51350d" d="m2.8 4.35.4.15q8.85 3.5 15.25 6.65L3.85 8.7l-5.5-2.9-.05-.6 4.5-.85" transform="translate(2.95 5.9)"/><path fill-rule="evenodd" fill="#393524" d="m-1.9 5.8-.95-8.15h1.3l1.35 4.8L1.05-5.8l1.75.5V5.5H-.7v-.05l-1.2.35m2.35-.85-.65-2.5.65 2.5" transform="translate(2.95 5.9)"/><path stroke-width=".25" stroke-opacity=".4" stroke-linejoin="round" stroke-linecap="round" stroke="#353116" fill="none" d="M1.05 11.7.1 3.55h1.3l1.35 4.8L4 .1l1.75.5v10.8m-3-3.05.65 2.5"/></g><g transform="translate(4.05 3.35)" id="g"><use xlink:href="#m" width="5.9" transform="matrix(.2224 0 .1254 .2633 -1.576 -1.177)" height="5.9"/><use xlink:href="#m" width="5.9" transform="matrix(.2224 0 .1254 .2633 1.974 1.123)" height="5.9"/><use xlink:href="#m" width="5.9" transform="matrix(.2224 0 .1254 .2633 1.524 -3.327)" height="5.9"/><use xlink:href="#m" width="5.9" transform="matrix(.2224 0 .1254 .2633 -4.026 -3.327)" height="5.9"/><use xlink:href="#m" width="5.9" transform="matrix(.2224 0 .1254 .2633 -1.626 1.823)" height="5.9"/></g><g id="s"><path fill-rule="evenodd" fill-opacity=".561" fill="#fff" d="M2.5-1.55Q1.65-1.1.55.2-.6 1.45-1.65 2.1q-1.1.6-1.5 0-.45-.55.1-1.6.55-1.15 2.1-1.9l3-.9 1.3.1-.85.65" transform="translate(3.5 2.5)"/><path stroke-width=".3" stroke-linejoin="round" stroke-linecap="round" stroke="#f4f3ed" fill="none" d="M6 .95q-.85.45-1.95 1.75-1.15 1.25-2.2 1.9-1.1.6-1.5 0-.45-.55.1-1.6.55-1.15 2.1-1.9l3-.9 1.3.1L6 .95z"/></g><g id="j" fill-rule="evenodd"><path fill="#fff" d="M-20.8-17.55q-.6.35-1.15.4-.5.05-.65-.25l.15-.65.9-.8 1.1-.4.7.2q.15.3-.15.75l-.9.75" transform="translate(22.65 19.25)"/><path fill-opacity=".373" fill="#bf9637" d="M30.95 3.5q-.15-.7.6-1.55.8-.9 2.1-1.45 1.3-.55 2.25-.4 1.05.1 1.25.8.1.75-.7 1.65l-2.05 1.4-2.35.45q-.95-.2-1.1-.9" transform="translate(22.65 19.25)"/></g><g id="w" stroke-opacity="0" stroke-linejoin="round" stroke-linecap="round" stroke="#f0f" fill="none"><path d="M200.7-15.4v220h-220v-220h220" transform="translate(19.8 15.9)"/><path d="m200.7-15.4-110 110 110 110m-220-220 110 110-109.95 110m164.95-72.35H35.75" transform="translate(19.8 15.9)"/><path d="M149 159.2H30.85V23H149v136.2z" transform="translate(19.8 15.9)"/></g><use xlink:href="#n" width="27.25" height="10.3" id="b"/><use xlink:href="#o" width="21.4" height="17.05" id="d"/><use xlink:href="#p" width="21.4" height="17.05" id="e"/><use xlink:href="#q" width="5.9" height="5.9" id="m"/><use xlink:href="#r" width="47.5" height="47.5" id="h"/><use xlink:href="#s" width="7" height="5.05" id="i"/><use xlink:href="#t" width="100" height="40" id="x"/><path stroke-width=".05" stroke-linejoin="round" stroke-linecap="round" stroke="#393829" fill="none" d="M26 1.2 27.55 0M3.5.85 2.4 0m23.5 3.5 1.7-1.3m-3.05 17.65.95.85m1-2.7 1.05.6m-3.5-12.8h.6M3 20.55v2.05m4.35-1.3 1 1.55m1.2-1.8.6.95m12.45-2.55.4 2.3m-21.8-1.8L0 21.3m1.65-6.55H.35m1.95.7-1.35 1M2.7 2.15 1.2 1.3m2.55 5.1-1.7-.85M2.75 7H1.9" id="f"/><path fill-rule="evenodd" fill-opacity=".337" fill="#fcc" d="M2.05-2.1q.9.9.9 2.1 0 1.2-.9 2.05-.85.9-2.05.9-1.2 0-2.1-.9-.85-.85-.85-2.05 0-1.2.85-2.1.9-.85 2.1-.85 1.2 0 2.05.85" transform="translate(2.95 2.95)" id="q"/><path fill-rule="evenodd" fill="url(#u)" d="M16.8 16.8Q9.85 23.75 0 23.75q-9.85 0-16.8-6.95-6.95-6.95-6.95-16.8 0-9.85 6.95-16.8 6.95-6.95 16.8-6.95 9.85 0 16.8 6.95Q23.75-9.85 23.75 0q0 9.85-6.95 16.8" transform="translate(23.75 23.75)" id="r"/><path fill-rule="evenodd" fill-opacity="0" fill="#f0f" d="M100 40H0V0h100v40" id="t"/><radialGradient spreadMethod="pad" r="819.2" id="k" gradientUnits="userSpaceOnUse" gradientTransform="translate(6.3 3.45) scale(.0071)" cy="0" cx="0"><stop stop-color="#6b6b50" offset="0"/><stop offset="1"/></radialGradient><radialGradient spreadMethod="pad" r="819.2" id="u" gradientUnits="userSpaceOnUse" gradientTransform="scale(.0299)" cy="0" cx="0"><stop stop-opacity=".349" stop-color="#ead895" offset="0"/><stop stop-opacity="0" stop-color="#d9c689" offset="1"/></radialGradient><linearGradient y2=".607" y1=".752" x2=".678" x1=".195" spreadMethod="pad" id="l"><stop stop-opacity=".412" stop-color="#313124" offset="0"/><stop stop-opacity="0" stop-color="#948052" offset="1"/></linearGradient></defs><path fill="none" d="M-1-1h242v180H-1z"/><g stroke="null"><use x="-26.938" y="15.876" xlink:href="#v" width="167.25" transform="matrix(-1.42425 0 0 1.42425 200.742 -21.73)" height="123.15"/><use x="-30.132" y="-52.501" xlink:href="#w" width="221" transform="translate(-40.5 -32.523) scale(2.04545)" height="221"/><use x="-69.301" y="-95.193" xlink:href="#x" width="100" transform="translate(173.761 166.807) scale(1.45902)" height="40"/></g></svg>