<svg width="216" height="262" xmlns="http://www.w3.org/2000/svg" xmlns:xlink="http://www.w3.org/1999/xlink"><defs><linearGradient y2=".499" y1=".499" x2="1" x1="0" spreadMethod="pad" id="b"><stop stop-color="#ffc" offset="0"/><stop stop-color="#fefd9a" offset="1"/></linearGradient><linearGradient y2=".5" y1=".5" x2=".999" x1="0" spreadMethod="pad" id="c"><stop stop-color="#eee204" offset="0"/><stop stop-color="#bca313" offset="1"/></linearGradient><linearGradient y2=".5" y1=".5" x2="1" x1="0" spreadMethod="pad" id="d"><stop stop-color="#ffc" offset="0"/><stop stop-color="#fefd9a" offset="1"/></linearGradient><linearGradient y2="1.246" y1=".686" x2="-.064" x1=".73" spreadMethod="pad" id="e"><stop stop-color="#37220d" offset="0"/><stop stop-color="#5a3614" offset="1"/></linearGradient><linearGradient y2=".72" y1=".19" x2="-.115" x1=".735" spreadMethod="pad" id="f"><stop stop-color="#885b1e" offset="0"/><stop stop-color="#7b3e2f" offset="1"/></linearGradient><linearGradient y2=".5" y1=".5" x2="1.001" x1="0" spreadMethod="pad" id="g"><stop stop-color="#cde2e2" offset="0"/><stop stop-color="#bdd698" offset="1"/></linearGradient><linearGradient y2=".497" y1=".497" x2=".999" x1="0" spreadMethod="pad" id="h"><stop stop-color="#7eb4b3" offset="0"/><stop stop-color="#78bb77" offset="1"/></linearGradient><linearGradient y2="3.777" y1="3.777" x2="1.031" x1="-.526" spreadMethod="pad" id="i"><stop stop-color="#804a27" offset="0"/><stop stop-color="#885b1e" offset="1"/></linearGradient><linearGradient y2=".5" y1=".5" x2="1" x1=".021" spreadMethod="pad" id="j"><stop stop-color="#960" offset="0"/><stop stop-color="#928407" offset="1"/></linearGradient><linearGradient y2=".499" y1=".499" x2=".999" x1="0" spreadMethod="pad" id="k"><stop stop-color="#5c2707" offset="0"/><stop stop-color="#816607" offset="1"/></linearGradient><linearGradient y2=".493" y1=".493" x2=".997" x1=".003" spreadMethod="pad" id="l"><stop stop-color="#cc0" offset="0"/><stop stop-color="#928407" offset="1"/></linearGradient><linearGradient y2=".5" y1=".5" x2="1.001" x1=".059" spreadMethod="pad" id="m"><stop stop-color="#ffebc1" offset="0"/><stop stop-color="#fff8ee" offset="1"/></linearGradient><linearGradient y2=".498" y1=".498" x2="1" x1="0" spreadMethod="pad" id="n"><stop stop-color="#cc0" offset="0"/><stop stop-color="#928407" offset="1"/></linearGradient><linearGradient y2=".498" y1=".498" x2="1" x1="-.001" spreadMethod="pad" id="o"><stop stop-color="#ce7037" offset="0"/><stop stop-color="#d2b02d" offset="1"/></linearGradient><linearGradient y2=".499" y1=".499" x2=".993" x1="-.006" spreadMethod="pad" id="p"><stop stop-color="#cde2e2" offset="0"/><stop stop-color="#bdd698" offset="1"/></linearGradient><linearGradient y2=".499" y1=".499" x2=".998" x1=".001" spreadMethod="pad" id="q"><stop stop-color="#7eb4b3" offset="0"/><stop stop-color="#78bb77" offset="1"/></linearGradient><linearGradient y2=".498" y1=".498" x2="1" x1="0" spreadMethod="pad" id="r"><stop stop-color="#ffc" offset="0"/><stop stop-color="#fefd9a" offset="1"/></linearGradient><linearGradient y2="-.443" y1=".467" x2="-.125" x1=".368" spreadMethod="pad" id="s"><stop stop-color="#f90606" offset="0"/><stop stop-color="#d6d2ab" offset="1"/></linearGradient><linearGradient y2=".439" y1=".439" x2=".996" x1=".181" spreadMethod="pad" id="t"><stop stop-color="#37220d" offset="0"/><stop stop-color="#5a3614" offset="1"/></linearGradient><linearGradient y2=".5" y1=".5" x2=".999" x1="-.001" spreadMethod="pad" id="u"><stop stop-color="#e4bc85" offset="0"/><stop stop-color="#ead5a6" offset="1"/></linearGradient><linearGradient y2="-.33" y1="1.087" x2=".337" x1=".746" spreadMethod="pad" id="v"><stop stop-color="#f90606" offset="0"/><stop stop-color="#d6d2ab" offset="1"/></linearGradient><linearGradient y2=".19" y1=".697" x2=".013" x1=".504" spreadMethod="pad" id="w"><stop stop-color="#f90606" offset="0"/><stop stop-color="#d6d2ab" offset="1"/></linearGradient><linearGradient y2=".312" y1=".942" x2=".093" x1=".706" spreadMethod="pad" id="x"><stop stop-color="#ce7037" offset="0"/><stop stop-color="#d2b02d" offset="1"/></linearGradient><linearGradient y2=".496" y1=".496" x2=".991" x1="0" spreadMethod="pad" id="y"><stop stop-color="#cc0" offset="0"/><stop stop-color="#928407" offset="1"/></linearGradient><linearGradient y2=".5" y1=".5" x2=".998" x1="-.001" spreadMethod="pad" id="z"><stop stop-color="#5c2707" offset="0"/><stop stop-color="#816607" offset="1"/></linearGradient><linearGradient y2=".5" y1=".5" x2="1" x1="-.001" spreadMethod="pad" id="A"><stop stop-color="#cc0" offset="0"/><stop stop-color="#928407" offset="1"/></linearGradient><linearGradient y2=".491" y1=".491" x2=".991" x1="0" spreadMethod="pad" id="B"><stop stop-color="#b97b28" offset="0"/><stop stop-color="#e7ca97" offset="1"/></linearGradient><linearGradient y2=".496" y1=".496" x2=".999" x1="-.004" spreadMethod="pad" id="C"><stop stop-color="#cde2e2" offset="0"/><stop stop-color="#bdd698" offset="1"/></linearGradient><linearGradient y2=".499" y1=".499" x2=".998" x1="-.003" spreadMethod="pad" id="D"><stop stop-color="#cde2e2" offset="0"/><stop stop-color="#bdd698" offset="1"/></linearGradient><linearGradient y2=".498" y1=".498" x2="1.001" x1="-.003" spreadMethod="pad" id="E"><stop stop-color="#ffebc1" offset="0"/><stop stop-color="#fff8ee" offset="1"/></linearGradient><linearGradient y2=".5" y1=".5" x2="1" x1="0" spreadMethod="pad" id="F"><stop stop-color="#ffebc1" offset="0"/><stop stop-color="#fff8ee" offset="1"/></linearGradient><linearGradient y2=".499" y1=".499" x2=".999" x1="-.001" spreadMethod="pad" id="G"><stop stop-color="#cc0" offset="0"/><stop stop-color="#928407" offset="1"/></linearGradient><linearGradient y2=".501" y1=".501" x2=".999" x1=".001" spreadMethod="pad" id="H"><stop stop-color="#cc0" offset="0"/><stop stop-color="#928407" offset="1"/></linearGradient><linearGradient y2=".5" y1=".5" x2=".998" x1="-.001" spreadMethod="pad" id="I"><stop stop-color="#5c2707" offset="0"/><stop stop-color="#816607" offset="1"/></linearGradient><linearGradient y2=".5" y1=".5" x2=".999" x1="-.005" spreadMethod="pad" id="J"><stop stop-color="#cc0" offset="0"/><stop stop-color="#928407" offset="1"/></linearGradient><linearGradient y2=".946" y1="-.046" x2=".161" x1=".702" spreadMethod="pad" id="K"><stop stop-color="#ce7037" offset="0"/><stop stop-color="#d2b02d" offset="1"/></linearGradient><linearGradient y2=".87" y1=".129" x2=".17" x1=".887" spreadMethod="pad" id="L"><stop stop-color="#ce7037" offset="0"/><stop stop-color="#d2b02d" offset="1"/></linearGradient><path fill-rule="evenodd" fill-opacity="0" fill="#f0f" d="M102.95 45H0V0h102.95v45" id="a"/><use xlink:href="#a" width="102.95" height="45" id="N"/><g id="M"><path stroke-opacity="0" stroke-linejoin="round" stroke-linecap="round" stroke="#f0f" fill="none" d="M187.95-293.5v380h-380v-380h380M92.95.6H-97" transform="translate(192.55 294)"/><path stroke-opacity="0" stroke-linejoin="round" stroke-linecap="round" stroke="#f0f" fill="none" d="m187.95-293.5-190 190 190 190m-379.95 0 189.95-190-190-190" transform="translate(192.55 294)"/><path fill-rule="evenodd" fill="#ffc" d="m9.9-180.45 2.4 2.5q.9 2.95-9.1 6.3l-4.65.85 7.7-4.15q4-2.25 3.65-5.5" transform="translate(192.55 294)"/><path fill-rule="evenodd" fill="#960" d="m3.75-139.7.85 2.15-2.25 1.4-.4 1.3-.4 1.3H-4.3l4.5-1.2 2.15-1.4-2.15 1.4-4.5 1.2-1.15.3-1.7.5q-3.8-2.4-3.1-3.95h4.95q7.25.1 9.05-3m-43.65 6.75q3.75 1.4 8.15 2.3l-8.7-.6.55-1.7" transform="translate(192.55 294)"/><path fill-rule="evenodd" fill="#cc0" d="m1.55-133.55.4-1.3 4.85 5.3-2.45 2.2-2.8-6.2m-5.85 0h2.95L-2-124.3l-2.3-9.25m-1.15.3-6.2 7.55.75-2.15.95-2.8-3.35 1.25-9.05 3.4 11.35-7.8 2.1 1.5 1.75-.45 1.7-.5" transform="translate(192.55 294)"/><path fill-rule="evenodd" fill="#ffffd5" d="m50.1-118.45 16.9-3.7-8.5 4.2-13.6 1.2 3.15-1.25 2.05-.45m4 2.65h15.65l-14.95 2.7-3.25.55-5.7-.5-2.05-1.25 10.3-1.5m-104.25-16.5 8.45 3.5-1.1 1.4-2.4-.5-13.75-4.4h8.8m9.7 1.05-11.4-4.3-5.7-3.9 17.65 6.5-.55 1.7m-.1 173.2 3.6-.1 13.45-3.6-6.05 4.1h6.35L-30.35 44q-15.7 2.55-23.1 0l-3.3-6.85 7.7 4.4 3.8-8 .6 4.25.55 4.3 3.55-.15" transform="translate(192.55 294)"/><path fill-rule="evenodd" fill="#6c4900" d="M36.5-84.7q-3.7-3.95 0-18.45l3.9-9.9 4.75 13.6q-.8 4.9-2.85 8.55L40.25-88q-1.65 1.85-3.75 3.3m-78.15 8.25L-45.2-64.1v-3.3l-4.4 5.25 4.1-9.65 3.85-4.65" transform="translate(192.55 294)"/><path fill-rule="evenodd" fill="#5c2707" d="M109.65-100.7q3.1 8.4 0 9.65-2.65-1.4-2.45-4.65.05-1.6.4-2.7.6-1.95 2.05-2.3" transform="translate(192.55 294)"/><path fill-rule="evenodd" fill="#538a7e" d="m3.45-122.65-6.3 1.35-3.85-1.65 10.15.3" transform="translate(192.55 294)"/><path fill-rule="evenodd" fill="url(#b)" d="m9.85-203.55-3.35-1.4-6.05 1.65-4.15 8.3v-6.05l-9.35 3.55q-1.25 1-8.25 0l-10.6 5.35 4-4.8h-6.3q-3.5.1-2.75 4.4.25 3.55 4.7 8.55l-4.55 10.05q-1 2.1-1 2.85-2.05 3.35 9.3 3.35h9.7l-9.35.8h-5.25q-11.3-.35-8.75-3.55 2.45-2.1 4.05-4.5 2.3-3.45 2.8-7.65l-4.65-7.15q-1.2-1.85 0-5.75l-24.5-3.35h16.5l22.55-5.2-3.85-6.6 8.25 5.8 22.55-3.6 8.55-4.4-2.75 5.5 9.65-5.5-7.15 9.35" transform="translate(192.55 294)"/><path fill-rule="evenodd" fill="url(#c)" d="m-28.15-166.95 9.35-.8h-9.7q-11.35 0-9.3-3.35 0-.75 1-2.85l4.55-10.05q-4.45-5-4.7-8.55-.75-4.3 2.75-4.4h6.3l-4 4.8 10.6-5.35q7 1 8.25 0l9.35-3.55v6.05l4.15-8.3 6.05-1.65 3.35 1.4-3.6 15.4 1.25 5.25 2.4 2.45q.35 3.25-3.65 5.5l-7.7 4.15 4.65-.85q10-3.35 9.1-6.3l31.6 4.4-4.95 3.55 8.55-3 7.7 2.2q1.45 1.6-16.15 9.35l-20.15 4.1-4.55-.85-15.5-2.85-3.6-.7 3.1 1.85 5.4 3.1-6.35.65-2 .15-2.35.2-14.5.9-4.5.25-8.4.25-2.3.1-9.9.15 7.95-4.85 15.1-1.9-18.15-1.35 8.25-4.7h5.25" transform="translate(192.55 294)"/><path fill-rule="evenodd" fill="url(#d)" d="M7.5-182.9H50l18.15-3.05-5.8 4.95 13.75 2.5 13.5-6.6-15.4 16.5-35.15 7.15q17.6-7.75 16.15-9.35l-7.7-2.2-8.55 3 4.95-3.55-31.6-4.4-2.4-2.5-2.4-2.45" transform="translate(192.55 294)"/><path fill-rule="evenodd" fill="url(#e)" d="M14.35-158.2q.05 3.05-.9 6l-4.5 2.15-6.9-3.35 4.35 4.7-17.55 2.85q-6.15 1.15-13.95.05l-1.8-1 3.85-5.45 4.8 4q-4.55-5.2-3.2-6.65l14.5-.9 1.65 1.35-1.4 5.4 3.1-4.05 4 2.4-3-4.6v-.85l6.35-.65-5.4-3.1.5-1.15 15.5 2.85" transform="translate(192.55 294)"/><path fill-rule="evenodd" fill="url(#f)" d="M13.45-152.2q-2.2 6.6-9.7 12.5-1.8 3.1-9.05 3h-2.5l-17.3-9.1q7.8 1.1 13.95-.05L6.4-148.7l-4.35-4.7 6.9 3.35 4.5-2.15" transform="translate(192.55 294)"/><path fill-rule="evenodd" fill="url(#g)" d="M2.35-136.15q24.85.1 33.6 8.25l5.75 4.95q-3.85-1.5-8.85-2.1l-3.5-3.95-9.35-3.3 3.3 3.85-10.2-3.85-11.15-2.55.4-1.3" transform="translate(192.55 294)"/><path fill-rule="evenodd" fill="url(#h)" d="m1.95-134.85 11.15 2.55 10.2 3.85-3.3-3.85 9.35 3.3 3.5 3.95-.9-.15q-4.1-.4-8.95-.2-4.1 4.45-18.95 6.3-10.25 1.4-19.65 1.05l-7.6-3.25-2.2-1.65q-2.3-4.05 3.85-6.05l8.45-6.3 2.1 1.5-11.35 7.8 9.05-3.4-5.8 4.8 8.2-3.25-.75 2.15 6.2-7.55 1.15-.3 2.3 9.25.65-9.25h2.9l2.8 6.2 2.45-2.2-4.85-5.3m1.5 12.2 6.35-1.4L23-125.4l-13.2 1.35-6.35 1.4-10.15-.3 3.85 1.65 6.3-1.35" transform="translate(192.55 294)"/><path fill-rule="evenodd" fill="url(#i)" d="m41.7-122.95 1.9 1h-9.15l-10.65.65q-3.15 5.65-16.4 7.7h-26.3q-12.6-3.4-8.3-5.8l1 .3 10.6 1.05q9.4.35 19.65-1.05 14.85-1.85 18.95-6.3 4.85-.2 8.95.2l.9.15q5 .6 8.85 2.1" transform="translate(192.55 294)"/><path fill-rule="evenodd" fill="url(#j)" d="M-27.2-119.4q-4.3 2.4 8.3 5.8H7.4q13.25-2.05 16.4-7.7l10.65-.65 8.85 5.8-1.6.65 2.1 1.2 2.05 1.25H40.4l-3.9 9.9q-3.7 14.5 0 18.45l-8.8-6.6-4-.95-9.5 28.7L7.35-42.6l5.25 10.15-7.45-7.4-12.45 1.7-9.3 1.3 2.2-2.75-7.7.8-5.45.55-1.75.2-3.65.35-3.35.35L-49.85-36l-6.55.65 22.45-6.75-25.8 5.55 5.2-5h-13.9l7-3.2 15.7-17.7 2.5 4.15 2.45-16.25 6.85-9.35-5.45 1.65 3.8-9.35q5.4-3.55 10.75-7.15L-35-95.2l8.8-13.45-9.4 1.15-13.7 3-5.8 4.1 6.6-10.7h-8.25l8.95-6.6 8.95-6.6h-8q2.45-1.4 4.05-3.1l1.1-1.4 10.6 4.3.05.05q.45 3.7 3.85 5.05m45 30 4.1-3.3 1.8.45-1.8-.45-4.1 3.3" transform="translate(192.55 294)"/><path fill-rule="evenodd" fill="url(#k)" d="m54.8-113.1 5.95 1.35-3.35 1.45 50.2 11.9q-.35 1.1-.4 2.7-.2 3.25 2.45 4.65l-55.2-14.1L68.1-107H48.3v-4.95l3.25-.6 3.25-.55" transform="translate(192.55 294)"/><path fill-rule="evenodd" fill="url(#l)" d="m58.5-117.95-4.4 2.15-10.3 1.5-2.1-1.2 1.6-.65 1.6-.6 13.6-1.2" transform="translate(192.55 294)"/><path fill-rule="evenodd" fill="url(#m)" d="m43.6-121.95 6.5 3.5-2.05.45-3.15 1.25-1.6.6-8.85-5.8h9.15" transform="translate(192.55 294)"/><path fill-rule="evenodd" fill="url(#n)" d="m54.45-105.15-6.65.9 4.65 5.5H47.5l3 8.7-5.35-9.4-4.75-13.6h5.45l5.7.5-3.25.6v4.95h19.8l-13.65 1.85" transform="translate(192.55 294)"/><path fill-rule="evenodd" fill="url(#o)" d="m60.75-111.75 48.9 11.05q-1.45.35-2.05 2.3l-50.2-11.9 3.35-1.45" transform="translate(192.55 294)"/><path fill-rule="evenodd" fill="url(#p)" d="m40.25-88 2.05-2.9 5.45 38.65-4.95-8.25-3.25-12.65 4.4 6.35-3.7-21.2" transform="translate(192.55 294)"/><path fill-rule="evenodd" fill="url(#q)" d="M36.5-84.7q2.1-1.45 3.75-3.3l3.7 21.2-4.4-6.35L42.8-60.5l-2.2 17.6q-.1-10.3-6.85-26.4h-6.1L24.1-54.75l-1.65-7.7-8.25-1.1 9.5-28.7 4 .95 8.8 6.6m-11.3 8.25q2 2.8.75-4.85l-1.05-6.15.3 11" transform="translate(192.55 294)"/><path fill-rule="evenodd" fill="url(#r)" d="M-38.1-175q-1.6 2.4-4.05 4.5-2.55 3.2 8.75 3.55l-8.25 4.7 18.15 1.35-15.1 1.9-7.95 4.85q-13.95.1-28.1-.45l-18.1 5 15.65-6.35h-5.25l-18.65-2.3h18.95l12.35-7.6-9.05-9.35 13.45 7.15 27.2-6.95" transform="translate(192.55 294)"/><path fill-rule="evenodd" fill="url(#s)" d="m-26.9-146.8 2.4-6.65-1.45-1.2 4.5-.25q-1.35 1.45 3.2 6.65l-4.8-4-3.85 5.45" transform="translate(192.55 294)"/><path fill-rule="evenodd" fill="url(#t)" d="m-25.95-154.65 1.45 1.2-2.4 6.65q-6.2-5.2-7.45-7.6l8.4-.25" transform="translate(192.55 294)"/><path fill-rule="evenodd" fill="url(#u)" d="M-34.35-154.4q1.25 2.4 7.45 7.6l1.8 1 17.3 9.1h-2.45l-2.85-1.2q-16.55-7.35-23.55-16.4l2.3-.1" transform="translate(192.55 294)"/><path fill-rule="evenodd" fill="url(#v)" d="m-1.65-159.9-3.1-1.85 3.6.7-.5 1.15" transform="translate(192.55 294)"/><path fill-rule="evenodd" fill="url(#w)" d="M-2.6-156.15v.85l3 4.6-4-2.4-3.1 4.05 1.4-5.4-1.65-1.35 2.35-.2 2-.15" transform="translate(192.55 294)"/><path fill-rule="evenodd" fill="url(#x)" d="m-51.85-135.55.85 1.65-29.7-6.4v1.4l8.5 4.95-12.2-3.85q-.15-3.9 3.45-4.95l29.1 7.2" transform="translate(192.55 294)"/><path fill-rule="evenodd" fill="url(#y)" d="m-51-133.9-.85-1.65 11.4 4.3q-.45 1.3-1.25 2.45l-8.45-3.5-.85-1.6" transform="translate(192.55 294)"/><path fill-rule="evenodd" fill="url(#z)" d="m-84.4-137.8 12.2 3.85-8.5-4.95v-1.4l29.7 6.4.85 1.6h-8.8l13.75 4.4h-3.3l-3.95 1-31.3-7.3q-.65-2.05-.65-3.6" transform="translate(192.55 294)"/><path fill-rule="evenodd" fill="url(#A)" d="m-52.45-126.9 3.95-1h3.3l2.4.5q-1.6 1.7-4.05 3.1h8l-8.95 6.6-19.95 2.2 17.6-6.05v-2.5l-21.45 1.65 19.15-4.5" transform="translate(192.55 294)"/><path fill-rule="evenodd" fill="url(#B)" d="m-13.1-137.9 2.85 1.2q-.7 1.55 3.1 3.95l-1.75.45-2.1-1.5-2.1-1.5v-2.6" transform="translate(192.55 294)"/><path fill-rule="evenodd" fill="url(#C)" d="m-13.3-129.4 3.35-1.25-.95 2.8-8.2 3.25 5.8-4.8" transform="translate(192.55 294)"/><path fill-rule="evenodd" fill="url(#D)" d="m-15.6-118.05-10.6-1.05-1-.3q-3.4-1.35-3.85-5.05l-.05-.05.5-1.2 6.6-6.35 1.95-.85 8.95-3.7v1.3l-8.45 6.3q-6.15 2-3.85 6.05l2.2 1.65 7.6 3.25" transform="translate(192.55 294)"/><path fill-rule="evenodd" fill="url(#E)" d="M-41.7-128.8q.8-1.15 1.25-2.45l8.7.6q-4.4-.9-8.15-2.3l-5-6.2 22.85 6.25-1.95.85-6.6 6.35-.5 1.2-10.6-4.3" transform="translate(192.55 294)"/><path fill-rule="evenodd" fill="url(#F)" d="m-35.6-107.5 9.4-1.15L-35-95.2l10.15-3.55q-5.35 3.6-10.75 7.15l-3.8 9.35 5.45-1.65-6.85 9.35-2.45 16.25-2.5-4.15-15.7 17.7-7 3.2h13.9l-5.2 5 25.8-5.55-22.45 6.75-.3.05-11.85 1.2 9.3-5.2-12.1-1.4 8.55-6.3q18.85-27.6 27.2-57.75v-2.75m-6.05 31.05-3.85 4.65-4.1 9.65 4.4-5.25v3.3l3.55-12.35" transform="translate(192.55 294)"/><path fill-rule="evenodd" fill="url(#G)" d="m-49.85-36 13.55-1.35-2.3 14-2.2-11-7.05 5.15 1.8-4.1h-2.4l-11.6 13 10.2-15.7" transform="translate(192.55 294)"/><path fill-rule="evenodd" fill="url(#H)" d="m-7.3-38.15 6.2 9.45-11.95-4.85 8.55 11-14.9-13.75-2.7-2.5 7.7-.8-2.2 2.75 9.3-1.3" transform="translate(192.55 294)"/><path fill-rule="evenodd" fill="url(#I)" d="m-27.55-38.25 5.45-.55 2.7 2.5-17.55 78.15-3.6.1 9.15-42.7-3.3-4.7.8-3.4 3.15 5.25 2.3-10.9h-4.15l3.5-15.1 4.8 10.05-3.8-14.15.55-4.55" transform="translate(192.55 294)"/><path fill-rule="evenodd" fill="url(#J)" d="m-32.95-37.7 3.65-.35 1.2 4.35 3.8 14.15-4.8-10.05-3.85-8.1" transform="translate(192.55 294)"/><path fill-rule="evenodd" fill="url(#K)" d="M-32.6-14.5h4.15l-2.3 10.9-3.15-5.25 1.3-5.65" transform="translate(192.55 294)"/><path fill-rule="evenodd" fill="url(#L)" d="m-34.7-5.45 3.3 4.7-9.15 42.7-3.55.15-.55-4.3 9.95-43.25" transform="translate(192.55 294)"/><path stroke-width=".05" stroke-opacity=".541" stroke-linejoin="round" stroke-linecap="round" stroke="#333" fill="none" d="m202.4 90.45 7.15-9.35-9.65 5.5 2.75-5.5-8.55 4.4-22.55 3.6-8.25-5.8 3.85 6.6-22.55 5.2h-16.5l24.5 3.35q-1.2 3.9 0 5.75l4.65 7.15q-.5 4.2-2.8 7.65-1.6 2.4-4.05 4.5-2.55 3.2 8.75 3.55h5.25m67.2 5.5 35.15-7.15 15.4-16.5-13.5 6.6-13.75-2.5 5.8-4.95-18.15 3.05h-42.5l2.4 2.45 2.4 2.5m26.75 16.5-20.15 4.1-4.55-.85q.05 3.05-.9 6-2.2 6.6-9.7 12.5l.85 2.15-2.25 1.4q24.85.1 33.6 8.25l5.75 4.95 1.9 1 6.5 3.5 16.9-3.7-8.5 4.2-4.4 2.15h15.65l-14.95 2.7 5.95 1.35 48.9 11.05q3.1 8.4 0 9.65l-55.2-14.1-6.65.9 4.65 5.5h-4.95l3 8.7.85 1.5m-43.85-94.35-1.25-5.25 3.6-15.4m-6.65 31.9q10-3.35 9.1-6.3m20.55 52.9q5 .6 8.85 2.1m-8.85-2.1-.9-.15q-4.1-.4-8.95-.2-4.1 4.45-18.95 6.3-10.25 1.4-19.65 1.05l-10.6-1.05-1-.3q-3.4-1.35-3.85-5.05l-.05-.05.5-1.2 6.6-6.35 1.95-.85 8.95-3.7v-1.3l2.85 1.2h4.95q7.25.1 9.05-3m-2.2 6.15.4-1.3.4-1.3-2.15 1.4-4.5 1.2h5.85l2.8 6.2 2.45-2.2-4.85-5.3m38.45 21.8-3.9 9.9q-3.7 14.5 0 18.45 2.1-1.45 3.75-3.3l2.05-2.9q2.05-3.65 2.85-8.55l-4.75-13.6h5.45l-2.05-1.25-2.1-1.2 1.6-.65m-20.3-9.25-13.2 1.35-6.35 1.4-6.3 1.35-3.85-1.65m58.25 10.4 3.25-.55m-4.7-5.35-2.05.45-3.15 1.25-1.6.6m64.3 17.75q.6-1.95 2.05-2.3m-55.2-4.45 13.65-1.85h-19.8v-4.95l3.25-.6m-9.25 21.65 5.45 38.65-4.95-8.25-2.2 17.6q-.1-10.3-6.85-26.4h-6.1l-3.55 14.55-1.65-7.7-8.25-1.1-6.85 20.95 5.25 10.15-7.45-7.4-12.45 1.7 6.2 9.45 1 .4m36.6-56.4-8.8-6.6-4-.95-9.5 28.7m11-12.9q2 2.8.75-4.85l-1.05-6.15.3 11m-1.5-15.8-1.8-.45-4.1 3.3m91.85-1.65q-2.65-1.4-2.45-4.65.05-1.6.4-2.7m-62.45-1.05 5.35 9.4m-76.45-64.6 1.45 1.2-2.4 6.65 3.85-5.45 4.8 4q-4.55-5.2-3.2-6.65m-15.2.6q7 9.05 23.55 16.4m11.45-22-3.1-1.85 3.6.7 15.5 2.85m-16.95 2.05v.85l3 4.6-4-2.4-3.1 4.05 1.4-5.4-1.65-1.35m10.7-1-5.4-3.1.5-1.15m-99.85 2.8h18.95l12.35-7.6-9.05-9.35 13.45 7.15 27.2-6.95m-12.9 41.1-.85-1.65-29.1-7.2q-3.6 1.05-3.45 4.95 0 1.55.65 3.6l31.3 7.3-19.15 4.5 21.45-1.65v2.5l-17.6 6.05 19.95-2.2 8.95-6.6h-8q2.45-1.4 4.05-3.1m-8.2-6.5.85 1.6m8.45 3.5q.8-1.15 1.25-2.45l.55-1.7-5-6.2 22.85 6.25m-29.8-2.65-5.7-3.9 17.65 6.5m-5.3 5.05h-3.3l-3.95 1m7.25-1-13.75-4.4h8.8m8.45 3.5-1.1 1.4m-5 9.7-8.95 6.6h8.25l-6.6 10.7 5.8-4.1 13.7-3m-20.8 72.15 6.55-.65 13.55-1.35 3.35-.35 3.65-.35 1.75-.2 5.45-.55 7.7-.8-2.2 2.75 9.3-1.3m-3.6-89.7-.75 2.15 6.2-7.55-1.7.5-1.75.45-2.1-1.5-11.35 7.8 9.05-3.4 3.35-1.25-.95 2.8m-2.2-7.45 2.1 1.5m6.7.25 2.3 9.25.65-9.25m-4.1.3 1.15-.3m-8.8-3.05v1.3m-43.6 100L124 259.9l9.3-5.2-12.1-1.4 8.55-6.3q18.85-27.6 27.2-57.75v-2.75m-39.05-47.1-18.1 5 15.65-6.35h-5.25l-18.65-2.3-1.7-.2m61.05 82-3.85 4.65-4.1 9.65 4.4-5.25v3.3l3.55-12.35M142.7 258l-10.2 15.7 11.6-13h2.4l-1.8 4.1 7.05-5.15 2.2 11 2.3-14m16.9 1.05 14.9 13.75-8.55-11 11.95 4.85m-28-.9-3.85-8.1m4.85 4-1.2-4.35m1.2 4.35.55-4.55m-13 80.2 3.6-.1 17.55-78.15-2.7-2.5m-11.8 29.95-.8 3.4-9.95 43.25.55 4.3 3.55-.15m6.65-50.8 1.3-5.65 3.5-15.1 4.8 10.05-3.8-14.15m-8.85 75.55 13.45-3.6-6.05 4.1h6.35L162.2 338q-15.7 2.55-23.1 0l-3.3-6.85 7.7 4.4 3.8-8 .6 4.25"/><path stroke-width=".05" stroke-opacity=".541" stroke-linejoin="round" stroke-linecap="round" stroke="#333" fill="none" d="m171.1 139.1-4.5.25-8.4.25m-2.3.1 2.3-.1m-12.2.25 9.9-.15m29.7-1.5-14.5.9m14.5-.9 2.35-.2 2-.15 6.35-.65m-78.4 2.2q14.15.55 28.1.45"/></g></defs><path fill="none" d="M-1-1h218v264H-1z"/><use x="103.178" y="214.594" xlink:href="#M" width="381" transform="translate(-192.55 -294)" height="381"/><use x="-49.177" y="-47.712" xlink:href="#N" width="102.95" transform="matrix(1.8072 0 0 1.6538 98 127.6)" height="45"/></svg>