<svg width="158" height="211" xmlns="http://www.w3.org/2000/svg" xmlns:xlink="http://www.w3.org/1999/xlink"><defs><g transform="translate(7.4 9.9)" id="G"><use xlink:href="#a" width="12.2" transform="matrix(-.0372 .2637 .4942 .0696 1.459 3.785)" height="9.2"/><use xlink:href="#b" width="9.55" transform="matrix(-.1042 -.3889 -.3889 .1042 5.89 5.613)" height="8.95"/><use xlink:href="#c" width="5.55" transform="rotate(45.001 -2.646 -5.595)" height="3.75"/><use xlink:href="#d" width="5.9" transform="translate(-1.7 .6)" height="6.55"/><use xlink:href="#e" width="9.45" transform="translate(-2.824 6.85) scale(.4026)" height="7.4"/><use xlink:href="#f" width="9.55" transform="translate(-2.623 4.558) scale(.4026)" height="8.95"/><use xlink:href="#f" width="9.55" transform="matrix(-.3949 .0768 .0607 .3117 .22 1.663)" height="8.95"/><use xlink:href="#g" width="11.45" transform="matrix(.285 .2804 .2804 -.285 -5.835 4.08)" height="8.8"/><use xlink:href="#g" width="11.45" transform="rotate(165.463 4.12 1.319) scale(.3998)" height="8.8"/><use xlink:href="#h" width="12.2" transform="translate(-4.55 -9.9)" height="14.8"/></g><g id="a"><use xlink:href="#i" width="12.2" height="9.2"/><use xlink:href="#j" width="12.2" height="9.2"/></g><g id="b"><use xlink:href="#k" width="9.55" height="8.95"/><use xlink:href="#l" width="9.55" height="8.95"/></g><g id="l"><path fill-rule="evenodd" fill-opacity=".353" fill="#2e1700" d="M-7.5 2.85h-.05q-1.25-1.5-1.2-3 0-1.5 1.15-3.05 1.15-1.5 3.5-1.5l2.2.45q.95.4 1.7 1.25Q1.35-1.3.45.35-.45 2-1.7 3.05-2.95 4.1-3.75 4.2l-.95.05Q-6.2 4.3-7.4 3l-.1-.15" transform="translate(8.75 4.7)"/><path stroke-width=".05" stroke-opacity=".4" stroke-linejoin="round" stroke-linecap="round" stroke="#2e1700" fill="none" d="M1.25 7.55H1.2q-1.25-1.5-1.2-3 0-1.5 1.15-3.05Q2.3 0 4.65 0l2.2.45q.95.4 1.7 1.25 1.55 1.7.65 3.35-.9 1.65-2.15 2.7Q5.8 8.8 5 8.9"/></g><g transform="translate(5.55 1.9)" id="c"><use xlink:href="#m" width="1.6" transform="translate(-4.75 -1.55)" height="3.35"/><use xlink:href="#n" width="3.55" transform="translate(-3.55 -1.85)" height="3.7"/><use xlink:href="#o" width="5.55" transform="translate(-5.55 -1.9)" height="3.7"/></g><g id="o"><path fill-rule="evenodd" fill-opacity=".302" fill="#2e1700" d="m-3.55-1.6 1-.25q.95-.15 1.7.35.75.45.85 1.2.05.75-.55 1.4-.65.6-1.65.7l-.95-.05-.4-3.35" transform="translate(5.55 1.9)"/><path stroke-width=".05" stroke-opacity=".502" stroke-linejoin="round" stroke-linecap="round" stroke="#2e1700" fill="none" d="m2 .3 1-.25Q3.95-.1 4.7.4q.75.45.85 1.2Q5.6 2.35 5 3q-.65.6-1.65.7l-.95-.05-.8-.35-.4-.3M1.35.75 2 .3M.85 1.5 0 1.3m.8.85L0 2.2m.6.75-.4.4"/></g><g id="d"><use xlink:href="#p" width="5.9" height="6.55"/><use xlink:href="#q" width="5.9" height="6.55"/></g><g id="q"><path fill-rule="evenodd" fill-opacity=".4" fill="#fff" d="m1.85 1.3-.45.85-1 .55-.5-.45L.65.8l.9-.3.3.8" transform="translate(2.95 3.25)"/><path fill-rule="evenodd" fill-opacity=".353" fill="#2e1700" d="M1.8-2.5 2.95-.4l-1.1 2.55L-.5 3.3l-2.15-1.2-.3-3.2.95-1.15 1.35-1 2.45.75m.05 3.8-.3-.8-.9.3-.75 1.45.5.45 1-.55.45-.85" transform="translate(2.95 3.25)"/><path stroke-width=".05" stroke-opacity=".4" stroke-linejoin="round" stroke-linecap="round" stroke="#2e1700" fill="none" d="M4.75.75 2.3 0 .95 1 0 2.15l.3 3.2 2.15 1.2L4.8 5.4l1.1-2.55L4.75.75z"/></g><g transform="translate(9.25 3.6)" id="e"><use xlink:href="#r" width="9.45" transform="translate(-9.25 -3.6)" height="7.4"/><use xlink:href="#s" width="9.45" transform="translate(-9.25 .1)" height="3.7"/></g><g id="f"><use xlink:href="#t" width="9.55" height="8.95"/><use xlink:href="#u" width="9.55" height="8.95"/></g><g id="u"><path fill-rule="evenodd" fill-opacity=".302" fill="#2e1700" d="M-1.9-4.25q.95.4 1.7 1.25Q1.35-1.3.45.35-.45 2-1.7 3.05-2.95 4.1-3.75 4.2l-.95.05Q-6.2 4.3-7.4 3q5.2-1.6 5.5-7.25" transform="translate(8.75 4.7)"/><path stroke-width=".05" stroke-opacity=".4" stroke-linejoin="round" stroke-linecap="round" stroke="#2e1700" fill="none" d="M1.35 7.7Q-.05 6.05 0 4.55q0-1.5 1.15-3.05Q2.3 0 4.65 0l2.2.45q.95.4 1.7 1.25 1.55 1.7.65 3.35-.9 1.65-2.15 2.7Q5.8 8.8 5 8.9l-.95.05Q2.55 9 1.35 7.7z"/></g><g transform="translate(7.55 3.15)" id="g"><use xlink:href="#v" width="1.1" transform="translate(.35 -3.15)" height=".3"/><use xlink:href="#w" width="11.3" transform="translate(-7.55 -3.15)" height="8.8"/><use xlink:href="#x" width="10.1" transform="translate(-6.2 -3.1)" height="6.55"/></g><g id="x"><path fill-rule="evenodd" fill-opacity=".302" fill="#2e1700" d="m3.2-.6.2.3-.9.9 1.1 1.6-3-.75L.8 1 .85.95.25.3 3.2-.6" transform="translate(6.2 3.1)"/><path stroke-width=".05" stroke-opacity=".502" stroke-linejoin="round" stroke-linecap="round" stroke="#2e1700" fill="none" d="M2.5 4.55 4 2.7l-.65-.65L1 2.4M0 2l2.65-.65.7.7M4 2.7l.1-.15h1.45l.4.35-1.1-1L5.2.75 5.3.7l1-.7 1.1.3m-.95 3.1-.1-.1-.4-.4m.5.5.6.65L7 4.1l-.2.45v2M5.2.75 5.3.7M7.4.3l.7.15L9.4 2.5l.2.3-.9.9 1.1 1.6.3.5"/></g><g transform="translate(6.1 7.4)" id="h"><use xlink:href="#y" width="24.25" transform="translate(-5.473 -1.689) scale(.4771)" height="19.05"/><use xlink:href="#z" width="6.4" transform="translate(-1.55 -7.407) scale(.4771)" height="12.3"/><use xlink:href="#A" width="10.05" transform="rotate(19.286 9.355 2.166) scale(.3849)" height="10.1"/><use xlink:href="#z" width="6.4" transform="rotate(-37.868 -9.128 6.802) scale(.4749)" height="12.3"/><use xlink:href="#A" width="10.05" transform="rotate(16.015 8.229 -6.254) scale(.4767)" height="10.1"/></g><g transform="translate(12.1 19.05)" id="y"><use xlink:href="#B" width="23.95" transform="translate(-12.1 -16.8)" height="12"/><use xlink:href="#C" width="24.25" transform="translate(-12.1 -19.05)" height="19.05"/><use xlink:href="#D" width="24.25" transform="translate(-12.1 -19.05)" height="19.05"/></g><g id="B"><path fill-rule="evenodd" fill="#648461" d="m10.65-10.4.75-.2.45 2.15-.15 1.3q-.3.75-1.05 1.2L8.6-4.8 6.4-7.85q1.25-1.2 2.6-1.9l1.15.6.85-.65-.35-.6" transform="translate(12.1 16.8)"/><path fill-rule="evenodd" fill="#ffffed" d="m9-9.75 1.65-.65.35.6-.85.65L9-9.75" transform="translate(12.1 16.8)"/><path stroke-width=".05" stroke-linejoin="round" stroke-linecap="round" stroke="#634620" fill="none" d="m0 8.05 3.5-1M7.5 0v1.4"/></g><g id="D"><path fill-rule="evenodd" fill-opacity=".2" fill="#2e1700" d="m-9.9-6.65 1.3-3.1-3.5 1 4.6-5 2.8-1.6.1-.05v-1.4L.2-19l.2-.05 6.5 5.9.2.05-5.85 2.2L-.4-7.1l.7.25.15.35.4.95-3.9.15-6.85-1.25M8.4-.5 7.25-6.7 8.6-4.8l2.05-1.15q.75-.45 1.05-1.2L10.95-2 8.4-.5" transform="translate(12.1 19.05)"/><path stroke-width=".05" stroke-opacity=".302" stroke-linejoin="round" stroke-linecap="round" stroke="#2e1700" fill="none" d="m2.2 12.4 6.85 1.25 3.9-.15-.4-.95m11.25-.65.45-3.55L23 7.25m.8 4.65-.75 5.15-2.55 1.5-.9.5-5.45-1.4L13 13.5h-.05"/></g><g transform="translate(3.25 16.05)" id="z"><use xlink:href="#E" width="6.4" transform="translate(-3.25 -12.55)" height="8.8"/><use xlink:href="#F" width="5.35" transform="translate(-3.25 -16.05)" height="12.3"/></g><g id="F" stroke-width=".05" stroke-linejoin="round" stroke-linecap="round" fill="none"><path stroke="#72562c" d="M4.05 2.25 5.35.8M2.9 2.35 2.75 0"/><path stroke="#503514" d="M.3 11.15 0 7.1l2.35-3.5m1.55 8.7-.85-4.45"/></g><g id="P"><path fill-rule="evenodd" fill="#fffff1" d="M-3.3 1.45q-.65-1.1-.65-2.5 0-2.1 1.45-3.55 1.45-1.5 3.55-1.5 1.5 0 2.65.75.65 1.1.65 2.5Q4.35-.75 2.9.7 1.4 2.15-.7 2.2q-1.45-.05-2.6-.75" transform="translate(3.95 6.1)"/><path fill-rule="evenodd" fill="#ffffed" d="M-3.3 1.45q1.15.7 2.6.75Q1.4 2.15 2.9.7 4.35-.75 4.35-2.85q0-1.4-.65-2.5l.95.75Q6.1-3.15 6.1-1.05q0 2.1-1.45 3.55-1.5 1.45-3.6 1.5-2.1-.05-3.55-1.5l-.8-1.05" transform="translate(3.95 6.1)"/><path stroke-width=".05" stroke-opacity=".373" stroke-linejoin="round" stroke-linecap="round" stroke="#997240" fill="none" d="M7.65.75Q6.5 0 5 0 2.9 0 1.45 1.5 0 2.95 0 5.05q0 1.4.65 2.5m7-6.8.95.75q1.45 1.45 1.45 3.55 0 2.1-1.45 3.55-1.5 1.45-3.6 1.5-2.1-.05-3.55-1.5l-.8-1.05"/><path fill-rule="evenodd" fill="#648461" d="M5-.4 4.6.75q-.4.5-.95.5-.6 0-.95-.5Q2.3.3 2.3-.4t.4-1.2q.35-.45.95-.45.55 0 .95.45L5-.4" transform="translate(3.95 6.1)"/></g><g id="R" stroke-opacity="0" stroke-linejoin="round" stroke-linecap="round" stroke="#f0f" fill="none"><path d="M187.95-293.5v380h-380v-380h380" transform="translate(192.55 294)"/><path d="m187.95-293.5-190 190 190 190m-380-380 190 190L-192 86.5M92.95-38.4H-97" transform="translate(192.55 294)"/></g><path fill-rule="evenodd" fill="#dde1bf" d="M3.9-2.8 5.95.9l.15 1.4-1.6 1.6-1.65-.6L1.7 4.35l-.8-.3-1.4.55-5.6-4.75L.25-4.6 3.9-2.8" transform="translate(6.1 4.6)" id="H"/><path stroke-width=".05" stroke-linejoin="round" stroke-linecap="round" stroke="#2e1700" fill="none" d="M0 4.45 6.35 0M10 1.8l2.05 3.7.15 1.4-1.6 1.6-1.65-.6L7.8 8.95l-.8-.3-1.4.55m3.35-1.3L6.5 7.25m.5 1.4-1.8-.8" id="j"/><path fill-rule="evenodd" fill="#dde1bf" d="M3.8-2.75q1.55 1.7.65 3.35-.9 1.65-2.15 2.7Q1.05 4.35.25 4.45l-.95.05q-1.5.05-2.7-1.25l-.1-.15h-.05q-1.25-1.5-1.2-3 0-1.5 1.15-3.05 1.15-1.5 3.5-1.5L2.1-4q.95.4 1.7 1.25" transform="translate(4.75 4.45)" id="I"/><path fill-rule="evenodd" fill="#edd6bf" d="m-4.7-.35.15-.35.2-.25.15-.15.65-.45.4 3.35-.8-.35-.4-.3-.4-.85V.25l.05-.5v-.1" transform="translate(4.75 1.55)" id="m"/><path fill-rule="evenodd" fill="#c4c5a5" d="M1.75-.25q.05.75-.55 1.4-.65.6-1.65.7l-.95-.05-.4-3.35 1-.25 1.7.35q.75.45.85 1.2" transform="translate(1.8 1.85)" id="J"/><path fill-rule="evenodd" fill="#f7ffdc" d="M1.8-2.5 2.95-.4l-1.1 2.55L-.5 3.3l-2.15-1.2-.3-3.2.95-1.15 1.35-1 2.45.75" transform="translate(2.95 3.25)" id="K"/><path fill-rule="evenodd" fill="#f7ffdc" d="M2.25-3.7 4.7 0l-.35 2.4-2.6.75L1 2.4-.35 3.45l-.95-.3-1.65.55-1.8-.95.15-2.6 1.45-2.6 5.4-1.25" transform="translate(4.75 3.7)" id="L"/><path stroke-width=".05" stroke-linejoin="round" stroke-linecap="round" stroke="#634620" fill="none" d="M9.45 0 9.1 2.4l-2.6.75-.75-.75L4.4 3.45l-.95-.3-1.65.55L0 2.75.15.15m5.6 2.25L6.6.45m-3.15 2.7L3.85.5" id="s"/><path fill-rule="evenodd" fill="#fa7d33" d="M.35-3.15H.4l1.05.3-1.1-.3" transform="translate(-.35 3.15)" id="v"/><path fill-rule="evenodd" fill="#f7ffdc" d="m1.85-4.4 1.8.45 1.5 2.35-.9.9 1.4 2.1-2.6 2.85-3.8.15L-4 3.05-5.65 1.1l1.2-3.5 2.65-.65L-.45-1.7l.1-.15H1.1l.4.35-1.1-1 .35-1.15.1-.05 1-.7" transform="translate(5.65 4.4)" id="M"/><path fill-rule="evenodd" fill="#f7ffdc" d="m.2-9.5.2-.05 6.5 5.9.2.05 3.8 1.3 1.25 1.1-.3 2.25-.45-2.15-.75.2L9-.25q-1.35.7-2.6 1.9L8.6 4.7l2.05-1.15 1.05-1.2-.75 5.15-3.45 2-5.45-1.4L.9 3.95l-3.95.15-6.85-1.25 1.3-3.1-3.5 1 4.6-5 2.8-1.6.1-.05v-1.4L.2-9.5" transform="translate(12.1 9.55)" id="N"/><path fill-rule="evenodd" fill="#b0ae8e" d="M1.6-3.55 3.2 2.1.7 4.4l-3.6-1.15-.3-4.05 2.35-3.5.05-.1 2.2.8.2.05" transform="translate(3.2 4.4)" id="O"/><use xlink:href="#G" width="15.85" height="19.75" id="Q"/><use xlink:href="#H" width="12.2" height="9.2" id="i"/><use xlink:href="#I" width="9.55" height="8.95" id="k"/><use xlink:href="#J" width="3.55" height="3.7" id="n"/><use xlink:href="#K" width="5.9" height="6.55" id="p"/><use xlink:href="#L" width="9.45" height="7.4" id="r"/><use xlink:href="#I" width="9.55" height="8.95" id="t"/><use xlink:href="#M" width="11.3" height="8.8" id="w"/><use xlink:href="#N" width="24.25" height="19.05" id="C"/><use xlink:href="#O" width="6.4" height="8.8" id="E"/><use xlink:href="#P" width="10.05" height="10.1" id="A"/></defs><path fill="none" d="M-1-1h160v213H-1z"/><use x="6.649" y="20.516" xlink:href="#Q" width="15.85" transform="translate(-73.16 -212.848) scale(10.4541)" height="19.75"/><use x="69.513" y="214.48" xlink:href="#R" width="381" transform="translate(-192.55 -294)" height="381"/></svg>