<svg width="179" height="171" xmlns="http://www.w3.org/2000/svg" xmlns:xlink="http://www.w3.org/1999/xlink"><defs><g transform="translate(12.55 15.9)" id="C"><use xlink:href="#a" width="12.2" transform="matrix(-.0372 .2637 .4942 .0696 .159 -3.515)" height="9.2"/><use xlink:href="#b" width="9.55" transform="matrix(-.1042 -.3889 -.3889 .1042 4.59 -1.687)" height="8.95"/><use xlink:href="#c" width="10.15" transform="rotate(45.001 7.986 -14.387)" height="6.65"/><use xlink:href="#d" width="5.9" transform="translate(-3 -6.7)" height="6.55"/><use xlink:href="#e" width="9.45" transform="translate(-4.124 -.45) scale(.4026)" height="7.4"/><use xlink:href="#f" width="9.55" transform="translate(-3.923 -2.742) scale(.4026)" height="8.95"/><use xlink:href="#f" width="9.55" transform="matrix(-.3949 .0768 .0607 .3117 -1.08 -5.638)" height="8.95"/><use xlink:href="#g" width="11.3" transform="matrix(.285 .2804 .2804 -.285 -7.02 -3.107)" height="8.8"/><use xlink:href="#g" width="11.3" transform="rotate(165.463 3.855 -2.404) scale(.3998)" height="8.8"/><use xlink:href="#h" width="5.15" transform="matrix(1.0073 -.0158 .171 .9858 1.081 -15.835)" height="8.65"/><use xlink:href="#i" width="13.5" transform="translate(-4.85 -14.4)" height="13.25"/><use xlink:href="#h" width="5.15" transform="matrix(.9752 .2552 -.0998 .9962 -5.31 -13.624)" height="8.65"/></g><g id="D"><path fill-rule="evenodd" fill="#5d7554" d="m-6.5-5.4 3.65 1.8L-.8.1l.15 1.4-1.6 1.6-1.65-.6-1.15 1.05-.8-.3-1.4.55-5.6-4.75L-6.5-5.4m-1.15 7.85 1.8.8-1.8-.8m1.3-.6 2.45.65-2.45-.65" transform="translate(12.85 5.4)"/><path stroke-width=".05" stroke-opacity=".302" stroke-linejoin="round" stroke-linecap="round" stroke="#2e1700" fill="none" d="M8.95 7.9 6.5 7.25m.5 1.4-1.8-.8M10 1.8l2.05 3.7.15 1.4-1.6 1.6-1.65-.6L7.8 8.95l-.8-.3-1.4.55M0 4.45 6.35 0"/></g><g id="E"><path fill-rule="evenodd" fill="#a8c49d" d="M-7.5 2.85h-.05q-1.25-1.5-1.2-3 0-1.5 1.15-3.05 1.15-1.5 3.5-1.5l2.2.45q.95.4 1.7 1.25Q1.35-1.3.45.35-.45 2-1.7 3.05-2.95 4.1-3.75 4.2l-.95.05Q-6.2 4.3-7.4 3l-.1-.15" transform="translate(8.75 4.7)"/><path stroke-width=".05" stroke-opacity=".302" stroke-linejoin="round" stroke-linecap="round" stroke="#2e1700" fill="none" d="M1.25 7.55H1.2q-1.25-1.5-1.2-3 0-1.5 1.15-3.05Q2.3 0 4.65 0l2.2.45q.95.4 1.7 1.25 1.55 1.7.65 3.35-.9 1.65-2.15 2.7Q5.8 8.8 5 8.9"/></g><g id="c"><use xlink:href="#j" width="10.15" height="6.65"/><use xlink:href="#k" width="10.15" height="6.65"/></g><g id="k"><path fill-rule="evenodd" fill-opacity=".2" fill="#2e1700" d="M1.35.55q-2.15 2.1-4.5 3.3L-3.7 2.7-6 4.05l-.25-2.25-2.55.15 3.3-1.7 2.2.05-1.05-.9 2.65.3 3.05.85" transform="translate(8.8 2.6)"/><path stroke-width=".05" stroke-opacity=".4" stroke-linejoin="round" stroke-linecap="round" stroke="#644520" fill="none" d="M8.4.95 8.3 0l1.25 1.1.35-.65V1.6l.25 1.55Q8 5.25 5.65 6.45L5.1 5.3 2.8 6.65 2.55 4.4 0 4.55l2.35-2H1.2M2.65.95 2.55.5l3.3-.45"/><path stroke-width=".05" stroke-opacity=".4" stroke-linejoin="round" stroke-linecap="round" stroke="#644520" fill="none" d="M1.2 2.55 2.65.95m3.2-.9 2.55.9-2.55-.9z"/></g><g transform="translate(2.95 3.25)" id="d"><use xlink:href="#l" width="5.9" transform="translate(-2.95 -3.25)" height="6.55"/><use xlink:href="#m" width="5.9" transform="translate(-2.95 -3.25)" height="6.55"/><use xlink:href="#n" width="1.95" transform="translate(-.3 .5)" height="2.2"/></g><g id="H"><path fill-rule="evenodd" fill="#648461" d="m-9.1.25 1.45-2.6 5.4-1.25L.2.1l-.35 2.4-2.6.75-.75-.75-1.35 1.05-.95-.3-1.65.55-1.8-.95.15-2.6m3.7.35-.4 2.65.4-2.65m2.75-.05L-3.5 2.5l.85-1.95" transform="translate(9.25 3.6)"/><path stroke-width=".05" stroke-opacity=".302" stroke-linejoin="round" stroke-linecap="round" stroke="#644620" fill="none" d="m5.75 6.1.85-1.95m-3.15 2.7.4-2.65m5.6-.5L9.1 6.1l-2.6.75-.75-.75L4.4 7.15l-.95-.3-1.65.55L0 6.45l.15-2.6"/></g><g id="f"><use xlink:href="#o" width="9.55" height="8.95"/><use xlink:href="#p" width="9.55" height="8.95"/></g><g transform="translate(7.15 3.15)" id="g"><use xlink:href="#q" width="1.1" transform="translate(.35 -3.15)" height=".3"/><use xlink:href="#r" width="11.3" transform="translate(-7.15 -3.15)" height="8.8"/><use xlink:href="#s" width="11.3" transform="translate(-7.15 -1.65)" height="7.3"/></g><g id="s"><path fill-rule="evenodd" fill-opacity=".8" fill="#2e1700" d="m.5.4 2.95-.9.2.3-.9.9 1.1 1.6-3-.75.2-.45.05-.05L.5.4" transform="translate(7.15 1.65)"/><path stroke-width=".05" stroke-opacity=".302" stroke-linejoin="round" stroke-linecap="round" stroke="#644620" fill="none" d="M1.65 6.1 0 4.15 1.2.65 3.85 0l.7.7.65.65.1-.15h1.45l.8.75.1.1.6.65-.05.05-.2.45 3 .75.3.5L8.7 7.3M4.55.7l-2.35.35M8 3.2v2M5.2 1.35 3.7 3.2"/></g><g id="h"><use xlink:href="#t" width="5.15" height="8.65"/><use xlink:href="#u" width="5.15" height="8.65"/><use xlink:href="#v" width="4.15" height="7.75"/></g><g transform="translate(6.75 6.6)" id="L"><use xlink:href="#w" width="13.5" transform="translate(-6.75 -6.6)" height="13.25"/><use xlink:href="#x" width="13.5" transform="translate(-6.75 -6.6)" height="13.25"/><use xlink:href="#y" width="12.35" transform="translate(-6.75 -6.6)" height="13.25"/><use xlink:href="#z" width="10.05" transform="matrix(.3844 .1345 -.1345 .3844 1.402 -4.426)" height="10.1"/><use xlink:href="#z" width="10.05" transform="matrix(.4621 .1617 -.1617 .4621 -1.79 -3.558)" height="10.1"/><use xlink:href="#A" width="5.25" transform="translate(.45 .85)" height="5.35"/><use xlink:href="#B" width="5.25" transform="translate(.45 .05)" height="6.15"/></g><g id="y" fill-rule="evenodd"><path fill-opacity=".153" fill="#2e1700" d="M-2.9-2.65-3.8.8l1.05.05.4 2.2 1.1-.1.05-.45L1.2.05 4.5-1l1.1.3L1.95.95l-2.25 2-.95 3.7-.2-2.2-2.5 1.2.45-2.9-3.25.45 1.6-6.85 2.25 1" transform="translate(6.75 6.6)"/><path fill-opacity=".2" fill="#fff" d="M-5.15-3.65Q-3.8-5.15.6-6.6q1-.15 2.6 1.3-3.65 1.1-6.1 2.65l-2.25-1" transform="translate(6.75 6.6)"/></g><g id="z"><path fill-rule="evenodd" fill="#fff" d="M-3.3 1.45q-.65-1.1-.65-2.5 0-2.1 1.45-3.55 1.45-1.5 3.55-1.5 1.5 0 2.65.75.65 1.1.65 2.5Q4.35-.75 2.9.7 1.4 2.15-.7 2.2q-1.45-.05-2.6-.75" transform="translate(3.95 6.1)"/><path fill-rule="evenodd" fill="#fce1b0" d="m3.7-5.35.95.75Q6.1-3.15 6.1-1.05q0 2.1-1.45 3.55-1.5 1.45-3.6 1.5-2.1-.05-3.55-1.5l-.8-1.05q1.15.7 2.6.75Q1.4 2.15 2.9.7 4.35-.75 4.35-2.85q0-1.4-.65-2.5" transform="translate(3.95 6.1)"/><path stroke-width=".05" stroke-opacity=".302" stroke-linejoin="round" stroke-linecap="round" stroke="#644420" fill="none" d="m7.65.75.95.75q1.45 1.45 1.45 3.55 0 2.1-1.45 3.55-1.5 1.45-3.6 1.5-2.1-.05-3.55-1.5l-.8-1.05Q0 6.45 0 5.05q0-2.1 1.45-3.55Q2.9 0 5 0q1.5 0 2.65.75z"/><path fill-rule="evenodd" fill="#2e1700" d="M4.1-.25Q3.75.2 3.25.2T2.4-.25q-.3-.4-.3-1t.3-1.05q.35-.4.85-.4t.85.4l.3 1.05-.3 1" transform="translate(3.95 6.1)"/></g><g id="N"><path fill-rule="evenodd" fill="#648461" d="m.1-2.6 1.9.25q.8.5.6 1.35l-.85.9.4.1-.4 1.7-1.65 1-.55-.35-.35-.85-.55.45L-2.5 2q-.25-1.4.15-2.3l.7-.95.2-.3.95-.75.55-.3H.1M1.75-.1.9.2.85-.4.6-1.3l.25.9.05.6.85-.3M.9.2-.45 1.25l-.35.25.35-.25L.9.2" transform="translate(2.6 2.65)"/><path stroke-width=".05" stroke-opacity=".302" stroke-linejoin="round" stroke-linecap="round" stroke="#4d361f" fill="none" d="m4.75 2.65-.4 1.7-1.65 1L2.15 5l-.35-.85"/><path stroke-width=".05" stroke-opacity=".4" stroke-linejoin="round" stroke-linecap="round" stroke="#b46a2c" fill="none" d="M2.7.05 4.6.3q.8.5.6 1.35l-.85.9m-.85.3-.05-.6-.25-.9m.3 1.5.85-.3M1.8 4.15l-.55.45-1.15.05q-.25-1.4.15-2.3l.7-.95.2-.3.95-.75.55-.3m-.85 4.1.35-.25L3.5 2.85"/></g><g id="B"><path fill-rule="evenodd" fill="#f7e0c3" d="m3.55.2.15.2-.35.25-.45-.2.65-.25" transform="translate(-.45 -.05)"/><path fill-rule="evenodd" fill="#4b3417" d="m2.9.45.45.2L3.7.4 3.55.2l.3-.15L4 .8l-.05.5-.4.45-.8.45q-.85-.05-.9-1L2.9.45" transform="translate(-.45 -.05)"/><path fill-rule="evenodd" fill-opacity=".8" fill="#2e1700" d="m4.8 3.4.4.1L3 4.85l.15 1.35-.55-.35L2.25 5l.35-.25L3.95 3.7l.85-.3M1.6 1.95Q.4 5 1.7 5.45L.55 5.5Q.3 4.1.7 3.2l.7-.95.2-.3" transform="translate(-.45 -.05)"/><path stroke-width=".05" stroke-opacity=".4" stroke-linejoin="round" stroke-linecap="round" stroke="#4d361f" fill="none" d="m3.5 3.65-.05-.6-.25-.9M2.7.85l1.9.25q.8.5.6 1.35l-.85.9M1.8 4.95l.35-.25L3.5 3.65l.85-.3"/><path stroke-width=".05" stroke-opacity=".302" stroke-linejoin="round" stroke-linecap="round" stroke="#4d361f" fill="none" d="m2.7 6.15-.55-.35-.35-.85"/></g><g id="P" stroke-linejoin="round" stroke-linecap="round" fill="none"><path stroke-opacity=".302" stroke="#000" d="M-24.9-133.35h-.15v.2l.1.05 3.25 4.4-6.55.85-.05-.05h-.1l-.1.05v.05l.05.1 4.8 4.35-5.6 8.1-5.3 14.9-2.75-2.15h-.15l-.05.05-1.2 2.15-11.95.5h-.05l-.05.05v.15l4.3 4.35-16.6-1.35h-.05l-.05.1v.1l.1.05.1.05-.05-.05 10.35 9.2-7.75 9.7v.05l.05.1.05.05h.05l14.1 3.55-2.25 6.5v.1l.05.1q11.35 3.8 24.7 4.55.5 1.75 1.9 3.55l-2.8 4.95h-.1l-.05.1-.25 5.8v.05l.05.05 3.95 2.1.05.05h.05l3.65-1.25 2 .7h.1l.05-.05 2.9-2.3 1.6 1.6.1.05h.05l5.7-1.65.05-.05.05-.05.85-5.3-.05-.1-.05-.05h-.1L-7-58.8l.9-.95.8-.95v.05l.05.1.1-.05 6.7-3.35 9.65 4.5h.05l3.8.75h.05l4.65-1.7.05-.05.05-.05v-.1l-1.3-2.55 3-1.2.05-.05.05-.1-.05-.05-.6-1.15 1.75-1.75.05-.1-.05-.1h-.2l-3.35-2.8.2-.25q1.25-1.65 1.6-3.65l1.45 3.75.05.05 3.1 1.8.05.05h.05l.1-.05 9.1-5.5.05-.05L37-83.7l-.05-.1-.05-.05h-.1l-.05.05-1.8-.5 2.25-1.95 2.25-2.9.05-.05.2-.9 5.85-.25.1-.05.05-.05v-.1l-6.45-16.25-.05-.05h-.05l-2.9-.8-2.55-13.95 3.45 2.95.05.15.05.05q0 .05.1.05l.05-.05.05-.1q-2.4-10.7-7.7-23.5l-.05-.05-1-.75h-.05l-5.6-2h-.1l-.05.05-.35-.1-.55-.05-.8-.1-.8-.05h-2.05l-.05-.05-.05-.05-2.2-.6h-.1l-.05.05-5.45-1.55.05.05h-.05l4.5 3.45-6.25 2.6h-.15l-.05.05v.1l.05.05 2.95 1.5q-17 5.7-25.8 11.55l-.05.05-1.55-.6-1.2-.3-.95-.25-6.5-4h-.05l-.2-.25-.05-.05h-.05m-5.65 35.95-1.6-1.15 1.1.2v.05l.5.9m64.4-12.1-.1.35-.3.8 2.25.6-1.85-1.75" transform="translate(192.55 294)"/><path stroke-opacity="0" stroke="#f0f" d="M187.95-293.5v380h-380v-380h380" transform="translate(192.55 294)"/><path stroke-opacity="0" stroke="#f0f" d="m187.95-293.5-190 190 190 190m-380-380 190 190L-192 86.5M92.95-38.4H-97" transform="translate(192.55 294)"/></g><path d="M3.4.5q.7.1 1.1.55l.65 4.3-.6-.6.05 2.65-.55-.6-.25 1.85-1.1-1.2h-.05l-1 .3M.75 6.5 0 6.55.75 3.4m.9-1.7L.7 1.15l1.2-.5L1.2 0l1.35.45m-.9 7.3L.75 6.5m0-3.1.9-1.7" id="t" stroke-width=".05" stroke-opacity=".4" stroke-linejoin="round" stroke-linecap="round" stroke="#648461" fill="none"/><path fill-rule="evenodd" fill="#fffff1" d="m4.45-2.2.35-.65v1.15l.25 1.55Q2.9 1.95.55 3.15L0 2l-2.3 1.35-.25-2.25-2.55.15 2.35-2H-3.9l1.45-1.6-.1-.45 3.3-.45 2.55.9-.1-.95 1.25 1.1" transform="translate(5.1 3.3)" id="F"/><path stroke-width=".05" stroke-opacity=".302" stroke-linejoin="round" stroke-linecap="round" stroke="#2e1700" fill="none" d="M4.75.75 2.3 0 .95 1 0 2.15l.3 3.2 2.15 1.2L4.8 5.4l1.1-2.55L4.75.75z" id="l"/><path fill-rule="evenodd" fill="#f7ffdc" d="M1.8-2.5 2.95-.4l-1.1 2.55L-.5 3.3l-2.15-1.2-.3-3.2.95-1.15 1.35-1 2.45.75" transform="translate(2.95 3.25)" id="G"/><path fill-rule="evenodd" fill-opacity=".302" fill="#fff" d="m1.65 1.3-.45.85-1 .55-.5-.45L.45.8l.9-.3.3.8" transform="translate(.3 -.5)" id="n"/><path stroke-width=".05" stroke-opacity=".302" stroke-linejoin="round" stroke-linecap="round" stroke="#644620" fill="none" d="m4.65 0 2.2.45q.95.4 1.7 1.25 1.55 1.7.65 3.35-.9 1.65-2.15 2.7Q5.8 8.8 5 8.9l-.95.05q-1.5.05-2.8-1.4H1.2q-1.25-1.5-1.2-3 0-1.5 1.15-3.05Q2.3 0 4.65 0z" id="o"/><path fill-rule="evenodd" fill="#f7ffdc" d="M3.8-2.75q1.55 1.7.65 3.35-.9 1.65-2.15 2.7Q1.05 4.35.25 4.45l-.95.05q-1.5.05-2.7-1.25l-.1-.15h-.05q-1.25-1.5-1.2-3 0-1.5 1.15-3.05 1.15-1.5 3.5-1.5L2.1-4q.95.4 1.7 1.25" transform="translate(4.75 4.45)" id="I"/><path fill-rule="evenodd" fill="#fa7d33" d="M.35-3.15H.4l1.05.3-1.1-.3" transform="translate(-.35 3.15)" id="q"/><path fill-rule="evenodd" fill="#648461" d="m.4-2.5.35-1.15.1-.05 1-.7 1.8.45 1.5 2.35-.9.9 1.4 2.1-2.6 2.85-3.8.15L-4 3.05-5.65 1.1l1.2-3.5 2.65-.65L-.45-1.7l.1-.15H1.1l.4.35-1.1-1" transform="translate(5.65 4.4)" id="J"/><path fill-rule="evenodd" fill="#648461" d="M.7-3.8h.1q.7.1 1.1.55l.65 4.3-.6-.6L2 3.1l-.55-.6-.25 1.85-1.1-1.2H.05l-1 .3-.9-1.25-.75.05.75-3.15.9-1.7-.95-.55 1.2-.5-.7-.65 1.35.45h.4l.35.05" transform="translate(2.6 4.3)" id="K"/><path fill-rule="evenodd" fill-opacity=".153" fill="#648461" d="m.35-.65.75 2L.7 2.8l-.65-.15L.55 5-.5 4.45l.15 1.25-.65.75-.4.15-.9-1.25-.75.05.75-3.15.9-1.7-.95-.55 1.2-.5-.7-.65L-.5-.7l.75.05h.1" transform="translate(3.05 1.15)" id="v"/><path stroke-width=".05" stroke-opacity=".502" stroke-linejoin="round" stroke-linecap="round" stroke="#644520" fill="none" d="m11.25 5.6 1.1.3 1.15 2.95-2.5.1-5.5 4.3-.2-2.2-2.5 1.2.45-2.9L0 9.8l1.6-6.85Q2.95 1.45 7.35 0q1-.15 2.6 1.3.65 1.4 1.3 4.3z" id="w"/><path fill-rule="evenodd" fill="#f7ffdc" d="m4.5-1 1.1.3 1.15 2.95-2.5.1-5.5 4.3-.2-2.2-2.5 1.2.45-2.9-3.25.45 1.6-6.85Q-3.8-5.15.6-6.6q1-.15 2.6 1.3.65 1.4 1.3 4.3" transform="translate(6.75 6.6)" id="M"/><use xlink:href="#C" width="21.2" height="18.45" id="O"/><use xlink:href="#D" width="12.2" height="9.2" id="a"/><use xlink:href="#E" width="9.55" height="8.95" id="b"/><use xlink:href="#F" width="10.15" height="6.65" id="j"/><use xlink:href="#G" width="5.9" height="6.55" id="m"/><use xlink:href="#H" width="9.45" height="7.4" id="e"/><use xlink:href="#I" width="9.55" height="8.95" id="p"/><use xlink:href="#J" width="11.3" height="8.8" id="r"/><use xlink:href="#K" width="5.15" height="8.65" id="u"/><use xlink:href="#L" width="13.5" height="13.25" id="i"/><use xlink:href="#M" width="13.5" height="13.25" id="x"/><use xlink:href="#N" width="5.25" height="5.35" id="A"/></defs><path fill="none" d="M-1-1h181v173H-1z"/><g stroke="null"><use x="11.713" y="27.387" xlink:href="#O" width="21.2" transform="translate(-113.212 -235.662) scale(8.77346)" height="18.45"/><use x="192.05" y="293.5" xlink:href="#P" width="381" transform="translate(-509.56 -695.079) scale(1.5921)" height="381"/></g></svg>