<svg width="148" height="196" xmlns="http://www.w3.org/2000/svg" xmlns:xlink="http://www.w3.org/1999/xlink"><defs><g id="D" stroke-opacity="0" stroke-linejoin="round" stroke-linecap="round" stroke="#f0f" fill="none"><path d="M187.95-293.5v380h-380v-380h380M92.95.6H-97" transform="translate(192.55 294)"/><path d="m187.95-293.5-190 190 190 190m-380-380 190 190L-192 86.5" transform="translate(192.55 294)"/></g><g transform="translate(7.5 17.95)" id="t"><use xlink:href="#a" width="5.55" transform="translate(3 -13.1)" height="9.5"/><use xlink:href="#b" width="10.4" transform="matrix(.558 -.0457 0 .558 -4.084 -1.849)" height="6.35"/><use xlink:href="#c" width="10.6" transform="matrix(.558 -.0457 0 .558 -1.46 -.988)" height="7.85"/><use xlink:href="#d" width="7.75" transform="translate(-2.85 -6.5)" height="6.5"/><use xlink:href="#e" width="11.65" transform="translate(-7.5 -12)" height="11.05"/><use xlink:href="#a" width="5.55" transform="matrix(-.7784 -.273 -.2132 .611 1.592 -16.42)" height="9.5"/></g><g transform="translate(7.05 1.65)" id="b"><use xlink:href="#f" width="7" transform="translate(-3.65 -1.65)" height="5.7"/><use xlink:href="#g" width="7" transform="translate(-3.65 -1.25)" height="5.3"/><use xlink:href="#h" width="6.6" transform="translate(-7.05 -.2)" height="4.9"/></g><g id="f"><path fill-rule="evenodd" fill="#fffff1" d="M0 .5-2.55.1l-.4-.4q.15-.8.95-1.25 1.3-.35 2.1.8L0 .5" transform="translate(3.65 1.65)"/><path stroke-width=".05" stroke-linejoin="round" stroke-linecap="round" stroke="#f7ffdc" fill="none" d="m3.65 2.15-2.55-.4-.4-.4Q.85.55 1.65.1q1.3-.35 2.1.8"/><path stroke-width=".05" stroke-linejoin="round" stroke-linecap="round" stroke="#bbdeb5" fill="none" d="M.35 1.35Q-.5 3.1.6 4.95q1.5 1 3.3.65l2.7-.5.35-1.3q.2-.9-.35-1.75-.65-.9-2.15-1.65l-1.5.2L.8.8l-.45.55z"/></g><g id="h"><path fill-rule="evenodd" fill="#fffff1" d="M-1.95 1.05q.65.1 1.3.7l.2 2.15q-1.7.85-3.9.8l-.7-.45.15-1.05q.25-.85.85-1.6 1.1-.75 2.1-.55-1-.2-2.1.55-.6.75-.85 1.6l-1.5-.15-.65-.55q.2-1.35 1.5-2.4 2.15-.9 3.6.75v.2" transform="translate(7.05 .2)"/><path stroke-width=".05" stroke-linejoin="round" stroke-linecap="round" stroke="#f7ffdc" fill="none" d="M6.4 1.95q-.65-.6-1.3-.7-1-.2-2.1.55-.6.75-.85 1.6L2 4.45l.7.45q2.2.05 3.9-.8m-4.45-.7-1.5-.15L0 2.7Q.2 1.35 1.5.3q2.15-.9 3.6.75"/></g><g transform="translate(6.65 1.15)" id="c"><use xlink:href="#i" width="8.15" transform="translate(-4.7 -1)" height="6.05"/><use xlink:href="#j" width="10.6" transform="translate(-6.65 -1.15)" height="7.85"/></g><g id="j"><path stroke-width=".05" stroke-linejoin="round" stroke-linecap="round" stroke="#bbdeb5" fill="none" d="M4.65.4q-1.9.3-2.5 1.7Q1.5 3.5 3 5.4q1.65 1 4.2.5l2.75-.45.15-1.55q.1-1.05-.7-2Q8.5.9 6.6 0L4.65.4z"/><path fill-rule="evenodd" fill="#fffff1" d="m2.8 2.25.7.65.35.6.1.75q-.15.65-.65.85l-.5.05q-.9-.05-1-.55-.1-1.4.25-1.9.35-.55.7-.5l.05.05m-4.75.1q.7-.8 1.45-.4.5.2 1 1l.7.95q.25.5.15 1.25Q1.05 6.3.05 6.6l-.95.1q-1.7-.1-1.85-.95l.05-1.7q-2.15.95-3.1.85-.65-.1-.85-.6-.1-1.55.85-2.9 1.9-1.3 3.75.45l.1.5-.25.25q-.4.5-.5 1.45.1-.95.5-1.45l.25-.25" transform="translate(6.65 1.15)"/><path stroke-width=".05" stroke-linejoin="round" stroke-linecap="round" stroke="#f4ffdb" fill="none" d="m9.45 3.4.7.65.35.6.1.75q-.15.65-.65.85l-.5.05q-.9-.05-1-.55-.1-1.4.25-1.9.35-.55.7-.5m-4.7.15q.7-.8 1.45-.4.5.2 1 1l.7.95q.25.5.15 1.25-.3 1.15-1.3 1.45l-.95.1q-1.7-.1-1.85-.95l.05-1.7q-2.15.95-3.1.85-.65-.1-.85-.6-.1-1.55.85-2.9 1.9-1.3 3.75.45m.1.5-.25.25q-.4.5-.5 1.45"/></g><g transform="translate(3.85 3.25)" id="d"><use xlink:href="#k" width=".05" transform="translate(.5 -3.25)" height=".05"/><use xlink:href="#l" width="7.75" transform="translate(-3.85 -3.25)" height="6.5"/><use xlink:href="#m" width="6.5" transform="translate(-3.85 -3.25)" height="6.5"/></g><g id="k" fill-rule="evenodd"><path fill="#ffcf9a" d="M.5-3.2v-.05h.05L.5-3.2" transform="translate(-.5 3.25)"/><path fill="#ff6000" d="M.5-3.2v-.05.05" transform="translate(-.5 3.25)"/></g><g transform="translate(5.8 5.5)" id="e"><use xlink:href="#n" width="11.5" transform="translate(-5.65 -5.4)" height="9.65"/><use xlink:href="#o" width="9.2" transform="translate(-5.65 -5.4)" height="9.6"/><use xlink:href="#p" width="8.65" transform="translate(-5.8 .65)" height="4.9"/><use xlink:href="#q" width="7.95" transform="translate(-5.1 4.2)" height="1.25"/><use xlink:href="#r" width="7.4" transform="translate(-4.15 -5.5)" height="2.65"/><use xlink:href="#s" width="10.45" transform="translate(-4.95 -1.1)" height="5.35"/></g><g id="o" fill-rule="evenodd"><path fill-opacity=".153" fill="#2e1700" d="M-.05-5.4q1.35-.1 2.55.75-1.75-.1-1.9.8-.4 5.4 2.25 8.05l-6.8-1.85Q-6.65 1.6-5-.5l3.2-3.85Q-.85-5.4-.05-5.4" transform="translate(5.65 5.4)"/><path fill="#fff" d="m-4.35.2-.15-.35q-.4-.9 0-1.95.35-1.05 1.05-1.65.65-.65 1.3-.5l.35.15Q-3.75-2.35-4.35.2" transform="translate(5.65 5.4)"/><path fill="#ffffed" d="M-4.35.2q.6-2.55 2.55-4.3l.5.85q.25.85.1 2.4-.15 1.5-.9 1.7L-3.5.9l-.85-.7" transform="translate(5.65 5.4)"/><path fill="#fff" d="m.75 2.45-1.5-.65q-1-.6-.65-2.25.3-1.65 1-2.4.6-.8 1.5-.65Q.2.9.75 2.45" transform="translate(5.65 5.4)"/><path fill="#ffffed" d="M1.1-3.5h.05q.9.15 1.55 1.15.7 1 .85 2.25.1 1.3-.7 2.05-.8.7-1.7.6l-.4-.1Q.2.9 1.1-3.5" transform="translate(5.65 5.4)"/></g><g id="s" fill-rule="evenodd"><path fill="#2e1700" d="m-.4.2-.35.2-.35-.2-.15-.3.15-.4.35-.1.35.1.15.4-.15.3m-1.3-.5-.35.2-.35-.2-.15-.3.15-.4.35-.1.35.1q.15.15.15.4l-.15.3" transform="translate(4.95 1.1)"/><path fill-opacity=".302" fill="#fff" d="M2.45 2.45q-.1-.25.35-.55.4-.35 1.05-.6l1.1-.25.55.2-.35.55-1.05.6-1.1.25q-.5 0-.55-.2" transform="translate(4.95 1.1)"/><path fill-opacity=".4" fill="#fff" d="M-2 2.25-3 3.3l-1.25.8-.65.05q-.15-.2.25-.7l1-1.05 1.2-.8.7-.05q.1.15-.25.7" transform="translate(4.95 1.1)"/></g><path fill-rule="evenodd" fill="#648461" d="M-2.15-3.75q.35-1 .65-1 .3 0 .35 1.1l-.2 2.85-.3 3.2q-.1 1.45-.45 1.45-.3 0-.5-1.7-.25-1.7-.1-3.3l.55-2.6m4.9 1.15q.2.65-.3 1.7L1 1.5-.75 4q-.8 1.15-.95.5-.2-.6.45-2.7Q-.55-.3.3-1.5q.85-1.25 1.6-1.45.65-.25.85.35" transform="translate(2.75 4.75)" id="v"/><path fill-rule="evenodd" fill="#ffffed" d="M.95-2.65 3.1-1q.55.85.35 1.75l-.35 1.3-2.7.5q-1.8.35-3.3-.65Q-4 .05-3.15-1.7l.45-.55 2.15-.2 1.5-.2" transform="translate(3.5 2.65)" id="w"/><path fill-rule="evenodd" fill="#ffffed" d="M.55-3q1.9.9 2.8 1.9.8.95.7 2L3.9 2.45l-2.75.45q-2.55.5-4.2-.5Q-4.55.5-3.9-.9q.6-1.4 2.5-1.7L.55-3" transform="translate(4.1 3)" id="x"/><path fill-rule="evenodd" fill="#f7ffdc" d="M.55-3.25q1.3.1 2.25.95 1.1.95 1.1 2.3-.05 1.3-1.15 2.3l-.1.05q-1.15.9-2.7.9l-1.1-.15q-.9-.2-1.6-.8-1.1-1-1.1-2.3.05-1.35 1.2-2.3 1.15-1 2.75-.95h.4v.05l.05-.05" transform="translate(3.85 3.25)" id="y"/><path fill-rule="evenodd" fill-opacity=".153" fill="#2e1700" d="M-2.65-2.3q1.15-1 2.75-.95h.4v.05Q.25 1.35 2.65 2.35q-1.15.9-2.7.9l-1.1-.15q-.9-.2-1.6-.8-1.1-1-1.1-2.3.05-1.35 1.2-2.3" transform="translate(3.85 3.25)" id="m"/><path fill-rule="evenodd" fill="#f7ffdc" d="M4.55-.3q1.6 2.3 1.1 3.5-.95 1.95-2.9 1.6l-6.8-1.85Q-6.75 2.2-5.1.1l3.2-3.85Q-.95-4.8-.15-4.8q1.35-.1 2.55.75.5 1.4 2.15 3.75" transform="translate(5.75 4.8)" id="z"/><path fill-rule="evenodd" fill="#fffff1" d="M2-.95q2.1 1.25 2.3 2l-1.7.85-6.25.4-.6.15q-.3-2.5.55-4.35l3.15-.55.8.5L2-.95" transform="translate(4.35 2.45)" id="A"/><path fill-rule="evenodd" fill-opacity=".2" fill="#2e1700" d="m1.15 5.05-6.25.4q3.8-1 7.95-1.25l-1.7.85" transform="translate(5.1 -4.2)" id="q"/><path fill-rule="evenodd" fill="#648461" d="m-3.45-.65-.25-.5.55-.15 1 .3 1.1.85.4.75-.65-.1-1.15-.6-1-.55M.3 1.1.7.65l1-.3 1.3.1q.65.2.7.45 0 .2-.6.25l-1.25.15-1.1.05L.3 1.1" transform="translate(3.7 1.3)" id="B"/><path stroke-opacity=".302" stroke-linejoin="round" stroke-linecap="round" stroke="#000" fill="none" d="M-21.3-131.45q1.4-1.85 3.9.05 2.55 1.8 4.7 7.35 2.1 5.6 2.55 13.7v5.25l.5.05.45-2.7 2.4-11.35q1.1-6.25 2.3-10.05 1.2-3.7 2.45-3.15 1.2.4 1.55 4.3.4 4-.7 9.8-1.15 5.7-3.9 11.15l-1.55 2.9 4.15 2.2 1.35 1q.85 2.65 2.5 6 1.2.75 1.2 1.55l-.2.55q2.8 5.55 7.35 12.7l.5.75q-.4-6.3.15-12.35.85-9.1 2.8-14.65 1.8-5.5 3.35-5.45 1.6-.1 1.65 6-.05 6.2-1 15.9-.95 9.65-1.45 17.9l-.35 3.4.55.65q.65-3.15 1.85-7.3 3.45-11.6 7.95-18.55 4.4-6.95 8.05-8.1 3.55-1.35 4.5 2.1 1.05 3.55-1.55 9.5Q34-84.4 29.15-77.1q-4.85 7.2-8.8 13.95l-1.1 1.7q.45 2.1.45 4.45-.1 7.55-5.9 12.85l-.5.45-1.3 1 2.15 1.95q2.2 2.5 2.15 5.5v.05l-.05.45v.35l.05.1 1 1.75h.05q.4 1 .25 2.45-.45 2.15-1.85 2.85v.05l-1.5.35q-2.45 0-2.85-1.35l-.05-.05-1.05.3v.05l-.1 1.25v.05q-.9 3.75-3.75 4.95l-2.75.55q-5 .1-5.4-2.55v-.05l-.05-2.95v-.05L-4-27.55l-.05.05h-.05q-4.1 2-6.25 2-1.95-.1-2.45-1.7v-.05l.15-3.6q-2.75.85-5.75 1.05-1.8.05-2.1-1.4v-.05q-.05-1.6.4-3.05l-4.15-.2q-1.95-.25-2.05-1.6v-.05q.65-4.3 4.35-7.9 3.45-1.9 6.3-1.2l.1-.25-.7-.85-23.9 1.7 1.55-.45-1.55.1-2.95 1q-1.6-13.6 2.4-23.7l-2-2.2 2.4-6.8.75-1.1 1.6-2.1q-.2-3.25 1-6.8 1.9-5.85 5.25-9.35 1.8-1.95 3.55-2.6l-.6-.35q-3.25-1.7-5.15-3.2-1.8-1.55-1.25-2.65.45-1.1 2.65-1 2.3.05 5.25 1.7 2.6 1.4 4.85 3.9 3.95-4.25 7.35-4.95-1.6-4.6-3.65-9.65-2.35-5.9-3.25-10.35-.9-4.4.65-6.25m33.1 88.9h.05l2.1 1.95q1.45 1.65 1.9 3.5-.5-1.65-1.8-3.1l-2.45-2.2.2-.15" transform="translate(44.05 132.85)" id="F"/><path fill-rule="evenodd" fill-opacity="0" fill="#f0f" d="M0 0h102.95v45H0V0" id="C"/><use xlink:href="#t" width="16.05" transform="matrix(-.7 0 0 .7 11.25 -.015)" height="21.35" id="E"/><use xlink:href="#u" width="5.55" height="9.5" id="a"/><use xlink:href="#v" width="5.55" height="9.5" id="u"/><use xlink:href="#w" width="7" height="5.3" id="g"/><use xlink:href="#x" width="8.15" height="6.05" id="i"/><use xlink:href="#y" width="7.75" height="6.5" id="l"/><use xlink:href="#z" width="11.5" height="9.65" id="n"/><use xlink:href="#A" width="8.65" height="4.9" id="p"/><use xlink:href="#B" width="7.4" height="2.65" id="r"/><use xlink:href="#C" width="102.95" height="45" id="G"/></defs><path fill="none" d="M-1-1h150v198H-1z"/><g stroke="null"><use x="54.05" y="142.5" xlink:href="#D" width="381" transform="translate(-342.166 -515.229) scale(1.7079)" height="381"/><use x="18.884" y="-18.928" xlink:href="#E" width="11.25" transform="matrix(-12.48112 0 0 13.62524 380.525 248.42)" height="14.95"/><use x="54.05" y="142.5" xlink:href="#F" width="83.1" transform="translate(-88.543 -240.002) scale(1.7079)" height="112.25"/><use x="-4.085" y="29.473" xlink:href="#G" width="102.95" transform="matrix(4.57443 0 0 4.18605 -169.17 -159.796)" height="45"/></g></svg>