<svg width="150" height="222" xmlns="http://www.w3.org/2000/svg" xmlns:xlink="http://www.w3.org/1999/xlink"><defs><g transform="translate(37.2 53.1)" id="n"><use xlink:href="#a" width="98.95" transform="translate(-37.2 -53.1)" height="121.85"/><use xlink:href="#b" width="17.35" transform="translate(-.1 -.1)" height="26.15"/></g><g transform="translate(39.45 56.3)" id="k"><use xlink:href="#c" width="9.15" transform="matrix(.6614 0 0 .7349 -1.927 -2.006)" height="4.35"/><use xlink:href="#d" width="5.2" transform="matrix(-.9977 -.0072 -.0072 .9977 -1.225 -16.952)" height="16"/><use xlink:href="#e" width="3.4" transform="translate(2.7 -4.5)" height="3.35"/><use xlink:href="#f" width="8.95" transform="matrix(-.1299 -.3375 -.4678 -.1227 4.208 2.827)" height="5.3"/><use xlink:href="#f" width="8.95" transform="matrix(.352 .0635 -.0753 .4176 -4.06 -2.697)" height="5.3"/><use xlink:href="#g" width="10.8" transform="translate(-4.4 -9.75)" height="10.9"/><use xlink:href="#h" width="8" transform="translate(-3.55 -12.5)" height="6.9"/></g><g transform="translate(2.9 11.3)" id="d"><use xlink:href="#i" width="19.3" transform="scale(.201 -.201) rotate(27.343 17.95 -25.04)" height="10.75"/><use xlink:href="#j" width="4.35" transform="translate(-2.05 -11.3)" height="16"/></g><g id="j"><path fill-rule="evenodd" fill="#ffffed" d="M.05-4.3h.5v8.8l-.85.15.35-8.95" transform="translate(2.05 11.3)"/><path fill-rule="evenodd" fill="#bbffb5" d="m-.3 4.65-.3-.15v-8.8h.65L-.3 4.65" transform="translate(2.05 11.3)"/><path stroke-width=".05" stroke-opacity=".502" stroke-linejoin="round" stroke-linecap="round" stroke="#827302" fill="none" d="M2.6 7v8.8"/><path fill-rule="evenodd" fill="#f4ffdb" d="m1.1-5.65.5 1.35-.55 1.5-1.15.3-.95-.3-.65-1.5.55-1.35L-.1-5.9l1.2.25" transform="translate(2.05 11.3)"/><path stroke-width=".05" stroke-opacity=".482" stroke-linejoin="round" stroke-linecap="round" stroke="#6b8701" fill="none" d="M3.15 5.65 3.65 7 3.1 8.5l-1.15.3L1 8.5.35 7 .9 5.65"/><path fill-rule="evenodd" fill="#bbffb5" d="M2.3-8.7v.45L1.9-8l.2.5-.7 1.7-.2.05-.2.15-1.5.2-1.55-.65.05-.35.35-.35 1.9-.45.1-.85H.3l.05-.1v-.05l.9.2 1.05-.7M-.3-6.4l.75-.65v-.05l.2-.8-.3-.15.3.15-.2.8v.05l-.75.65-.1.05.6.2.55-.3L.5-6.8l-.8.4m1.25-.7.4.75L1.6-7l-.2-.4-.35.25-.1.05m.1-.05L1.9-8l-.85.85" transform="translate(2.05 11.3)"/><path fill-rule="evenodd" fill="#f7ffdc" d="m1.2-10.9-.5-.3.05.7.35.1.1-.5m-.75.55v-.3l.15-.65.6.05.4.65-.1 1-.25.2-.05.1-.05.2.6-.35.55.4v.35L1.25-8l-.9-.2.8-.9-.8.9v.05l-.05.1h.05l-.1.85-1.9.45-.35.35.15-.85.2-.25-.2-1.5-.1-1.05.5-1.25.65.35v1.05h.05l.15.65.05.1H0L.4-10l.05-.35m.9 1.2.2.25.5-.1-.3-.35-.4.2m-1.9 1.2.2-.15.1-.15.5.2H.3.25l-.5-.2-.1.15-.2.15-.3.2-.25.05-.55.2.85.05.45-.3-.2-.2M-.3-6.4l.8-.4.25.35-.55.3-.6-.2.1-.05m1.25-.7.1-.05.35-.25.2.4-.25.65-.4-.75m-2.5-3.6v.55l.3-.05.25-.6-.3-.2-.25.3" transform="translate(2.05 11.3)"/><path fill-rule="evenodd" fill="#fffff1" d="m1.2-10.9-.1.5-.35-.1-.05-.7.5.3m.15 1.75.4-.2.3.35-.5.1-.2-.25m-1.9 1.2.2.2-.45.3-.85-.05.55-.2.25-.05.3-.2m-1-2.75.25-.3.3.2-.25.6-.3.05v-.55" transform="translate(2.05 11.3)"/><path stroke-width=".05" stroke-opacity=".643" stroke-linejoin="round" stroke-linecap="round" stroke="#827302" fill="none" d="M2.5.95v-.3L2.65 0l.6.05.4.65-.1 1-.25.2-.05.1-.05.2.6-.35.55.4v.35m-.4.7.2.5-.7 1.7-.2.05-.2.15-1.5.2L0 5.25l.05-.35.15-.85.2-.25-.2-1.5-.1-1.05L.6 0l.65.35v.85m.05.2.15.65.05.1h.55l.4-.85m-.1 1.95H2.3l-.5-.2-.1.15-.2.15m-.3.2.3-.2M3.2 2.2l-.8.9v.05l-.05.1h.05l.3.15-.2.8v.05l-.75.65m2.2-1.6-.85.85"/><path fill-rule="evenodd" fill="#ffffed" d="m-.05-4.3 1.7-.6v1.05l-1.7.55v-1" transform="translate(2.05 11.3)"/><path fill-rule="evenodd" fill="#bbffb5" d="M-.05-4.3v1l-1.75-.6v-1l1.75.6" transform="translate(2.05 11.3)"/><path stroke-width=".05" stroke-linejoin="round" stroke-linecap="round" stroke="#64ad61" fill="none" d="m2 8 1.7-.55V6.4L2 7m0 1L.25 7.4v-1L2 7"/><path fill-rule="evenodd" fill="#3b5417" d="M.25.6-.1.9-.75.1l.3-.35.7.85" transform="translate(2.05 11.3)"/></g><g id="e"><path fill-rule="evenodd" fill="#fffff9" d="M2.8-2.85q0-.65.5-1.1.4-.45 1.1-.45.65 0 1.1.45l.5 1-.4.3q-.55.35-1.25.35-.75 0-1.25-.35l-.3-.2" transform="translate(-2.7 4.5)"/><path fill-rule="evenodd" fill="#f0fda3" d="M6-2.95v.15q-.05.65-.5 1.1-.45.45-1.1.45-.7 0-1.1-.45-.5-.45-.5-1.1v-.05l.3.2q.5.35 1.25.35.7 0 1.25-.35l.4-.3" transform="translate(-2.7 4.5)"/><path stroke-width=".25" stroke-linejoin="round" stroke-linecap="round" stroke="#b4bb59" fill="none" d="M.1 1.65Q.1 1 .6.55 1 .1 1.7.1q.65 0 1.1.45l.5 1v.15q-.05.65-.5 1.1-.45.45-1.1.45-.7 0-1.1-.45-.5-.45-.5-1.1v-.05z"/></g><g id="g"><path fill-rule="evenodd" fill="#ffffbf" d="M.75 2.85H.7h.05" transform="translate(4.8 4.45)"/><path fill-rule="evenodd" fill="#567f44" d="M3.5-.1v-.05l.05.05h.05-.1" transform="translate(4.8 4.45)"/><path fill-rule="evenodd" fill="#2e4000" d="M3.55-.1 3.5-.15l.05-.05v.1" transform="translate(4.8 4.45)"/><path fill-rule="evenodd" fill="#64945c" d="M3.5-.15v.05h-.15l-.4.15v1.7L1.8 4.15H.6q-2.3 0-3-.8L-3.75 1.7Q-3.5-.6-2.7-2.4l.15-.25 1.8.15 2.15.7q.15-.35 2.1 1.65m-2.75 3H.7h.05M-1.8.55l.1-.65-.1.65m1.45.55L-.3.5l-.05.6" transform="translate(4.8 4.45)"/><path fill-rule="evenodd" fill="#48672b" d="m-3.75 1.7 1.35 1.65q.7.8 3 .8h1.2l1.15-2.4V.05l.4-.15h.2l.15 3.5q.1.85-.65 1.5l-.9.7-2.1-.15-2.85-1.2q-.75-.3-.95-2.55" transform="translate(4.8 4.45)"/><path stroke-width=".25" stroke-opacity=".451" stroke-linejoin="round" stroke-linecap="round" stroke="#2e4000" fill="none" d="m6.2 2.65-2.15-.7m4.3 2.3v.1l.15 3.5q.1.85-.65 1.5l-.9.7-2.1-.15L2 8.7q-.75-.3-.95-2.55"/><path stroke-width=".25" stroke-linejoin="round" stroke-linecap="round" stroke="#2e4000" fill="none" d="m4.5 4.95-.05.6M3.1 4.35 3 5"/><path fill-rule="evenodd" fill="#64945c" d="M2.5-.55 1.25-.9l.5-.95 1.55-.4Q4.8-1.6 5.9-.7l-3.4.15" transform="translate(4.8 4.45)"/><path fill-rule="evenodd" fill="#48672b" d="M2.5-.55 5.9-.7l-2.75.65q-.25.05-.2.2l-.45-.7" transform="translate(4.8 4.45)"/><path stroke-width=".25" stroke-opacity=".451" stroke-linejoin="round" stroke-linecap="round" stroke="#2e4000" fill="none" d="m10.7 3.75-2.75.65q-.25.05-.2.2"/><path fill-rule="evenodd" fill="#64945c" d="m-1-3.15.35 1.25Q-1.8-.7-4.05-3.45l-.35-.9q1.3.65 3.4 1.2" transform="translate(4.8 4.45)"/><path stroke-width=".25" stroke-opacity=".451" stroke-linejoin="round" stroke-linecap="round" stroke="#2e4000" fill="none" d="M.4.1q1.3.65 3.4 1.2"/><path fill-rule="evenodd" fill="#f4ffdb" d="M.45 5.25.4 5.5l-.1.8-1.35-1.9-.5 2.05-.85-.1.1-2.5-1.4.8-.75-.9 1.2-1.2L-4.8 2l.05-.25 2.3.7-.65 1.3 1.2-.4.5 1.5.6-.75L.45 5.25" transform="translate(4.8 4.45)"/><path fill-rule="evenodd" fill="#fffff1" d="M-4.75 1.7v-.45l2.75.1 1.55.45 2 1.8-.15.55-.8-.5-.15 1.6L-.8 4.1l-.6.75-.5-1.5-1.2.4.65-1.3-2.3-.7V1.7" transform="translate(4.8 4.45)"/><path stroke-width=".05" stroke-linejoin="round" stroke-linecap="round" stroke="#9da135" fill="none" d="M.05 6.15V5.7l2.75.1 1.55.45 2 1.8-.15.55-.8-.5-.15 1.6m-.05.25-.1.8-1.35-1.9-.5 2.05-.85-.1.1-2.5-1.4.8-.75-.9L1.55 7 0 6.45l.05-.25"/></g><g id="h"><path fill-rule="evenodd" fill="#ffffc7" d="m-.25-.75.15.15.15.2-.45-.35h.15" transform="translate(7.15 1.7)"/><path fill-rule="evenodd" fill="#ffc103" d="M-1.25 2.1h.05v.05l-.05-.05" transform="translate(7.15 1.7)"/><path fill-rule="evenodd" fill="#fffe7e" d="m-.65-.9.4.15H-.4L-.65-.9" transform="translate(7.15 1.7)"/><path fill-rule="evenodd" fill="#fff" d="M-4.85 1.3q1.25.8 2.1.75l.35-.1q-.25.65-.8.8l-.95-.15-.95-.8.25-.5" transform="translate(7.15 1.7)"/><path fill-rule="evenodd" fill="#ffffed" d="M-4-.7q-.7-.6-1.9-.25.5-.25 1.05-.45 1.8-.7 3.6.35l-.7.15h-.2L-3.3-.95-4-.7m2.15 5.75-.4.1q-1.6.2-2.9-.35-.8-1.75.05-3l.95.8.95.15q.55-.15.8-.8l-.35.1q-.85.05-2.1-.75.35-.6 1.05-1l.45.1-.05-.3V.05l-.35-.55.45-.2.85.25L-3 .5l.1.05q.35.1.65.3.5.3 1 1.25l.05.05V2.1q-.05-.3.65-.95.95-.95.8.35-.15 1.3-1.3.85l-.1-.1q.3.95-.7 2.8" transform="translate(7.15 1.7)"/><path fill-rule="evenodd" fill="#bbffb5" d="M-7.15 1.75-7.1 1q.05-.75.75-1.5l.45-.45Q-4.7-1.3-4-.7l-.8.7q-1.85-.9-2.35 1.75m5.9-2.8H-1l.35.15.25.15-1.55-.15.7-.15m-1.2.6.05.05.45.25h.05q.45.55-.35 1-.3-.2-.65-.3L-3 .5l.55-.95m-1.3-.05.35.55V.1l.05.3-.45-.1h-.55l.6-.8M-5.1 1.8v-.3l.1-.25V1.2l.15.1-.25.5" transform="translate(7.15 1.7)"/><path fill-rule="evenodd" fill="#d3ffc6" d="M-7.15 1.75Q-6.65-.9-4.8 0l.8-.7.25.2-.6.8h.55q-.7.4-1.05 1L-5 1.2v.05l-.1.25v.3q-.85 1.25-.05 3-.45-.2-.85-.45l-.7-.85q-.45-.8-.45-1.75M.05-.4.5.2q.45.8.35 1.9L.1 4.05q-.5.8-1.95 1 1-1.85.7-2.8l.1.1Q.1 2.8.25 1.5.4.2-.55 1.15q-.7.65-.65.95h-.05q-.5-.95-1-1.25.8-.45.35-1h-.05L-2.4-.4v-.1l.45-.4 1.55.15.45.35" transform="translate(7.15 1.7)"/><path fill-rule="evenodd" fill="#fffff1" d="M-2.45-.45-3.3-.7l-.45.2L-4-.7l.7-.25 1.15.05h.2l-.45.4v.1l-.05-.05" transform="translate(7.15 1.7)"/><path stroke-width=".05" stroke-opacity=".741" stroke-linejoin="round" stroke-linecap="round" stroke="#918f2e" fill="none" d="M1.25.75.8 1.2q-.7.75-.75 1.5L0 3.45M1.25.75Q1.75.5 2.3.3q1.8-.7 3.6.35h.25L6.5.8l.4.15.15.15.15.2.45.6q.45.8.35 1.9l-.75 1.95q-.5.8-1.95 1l-.4.1q-1.6.2-2.9-.35-.45-.2-.85-.45l-.7-.85Q0 4.4 0 3.45"/><path fill-rule="evenodd" fill="#f7ffdc" d="m-3.15-.45.6.15.25.35-.25.35-.6.1-.6-.15L-4 0l.25-.35.6-.1" transform="translate(7.15 1.7)"/><path stroke-width=".05" stroke-opacity=".573" stroke-linejoin="round" stroke-linecap="round" stroke="#827a00" fill="none" d="m4 1.25-.6.1-.25.35.25.35.6.15.6-.1.25-.35-.25-.35-.6-.15z"/><path fill-rule="evenodd" fill="#64ad61" d="m-3.65-.05.15-.2.35-.05.3.1.15.2-.15.15-.3.1-.35-.1-.15-.2" transform="translate(7.15 1.7)"/></g><g id="o" stroke-opacity="0" stroke-linejoin="round" stroke-linecap="round" stroke="#f0f" fill="none"><path d="M200.7-15.4v220h-220v-220h220" transform="translate(19.8 15.9)"/><path d="m200.7-15.4-110 110 110 110m-220-220 110 110-109.95 110m164.95-72.35H35.75" transform="translate(19.8 15.9)"/><path d="M149 23v136.2H30.85V23H149z" transform="translate(19.8 15.9)"/></g><path fill-rule="evenodd" fill-opacity=".282" fill="#666c16" d="M3.4-1.7q1.35.5 1.4 1.4 0 .85-1.3 1.6-1.3.75-3.2.95L-3 1.9Q-4.35 1.4-4.35.55q-.05-.9 1.3-1.6Q-1.75-1.8.15-2l3.25.3" transform="translate(4.35 2.05)" id="l"/><path fill-rule="evenodd" fill="#3b5417" d="m9.95-10.75 1.8 3.3 1.5-.25 1.85-2.95 1 .65-.95 2.95L19.3-4.9l-.5 1.65-3.05-.7-6.5 2.15L0 0v-2.05l9-2.1.8-2.45-1.3-3.75 1.45-.4" transform="translate(0 10.75)" id="i"/><path fill-rule="evenodd" fill="#2e4000" d="M.15-1.85q1.45-.7 2.4.9T.8 1.6L-3.55 3l-2.4.05Q-6.75 2.6-4 .7-1.3-1.2.15-1.85" transform="translate(6.15 2.05)" id="f"/><path stroke-width=".25" stroke-linejoin="round" stroke-linecap="round" stroke="#002900" fill="none" d="m4.15 7.45-.2.15-.25.3-.6.85q-.65 1.05-.45 2.55.1.8.55 1.75-1.8.8-3.1 1.9l3.15.75v.05l-.05.05h.05l-.05 1.35-.5-.05q-.9 0-1.5.65-.6.55-.65 1.3v.2q0 .85.65 1.5.6.6 1.5.65l.4-.05q.2.65.85 1.2l.7.5q-.65.5-.5.9l.9 1.5q.7.9 1.1.5.4-.45.45-1.1l-.1-1.5 1-.05.15 1.1 1-1.35 1.05-.35.45 1.9 1.15-.1-.1-2.4 2.15.4 1.15-.2q.2-.2-.3-.6l.85-.3-.05-5.15.35.2.15-.25-.5-.5v-.25l.65-.9-.35-.35-.3.3-.05-2.8.65-.15.5-1.3.3-.1v-1.4l-.3.1-.45-1.1-.05-.05.2-.15.3-.05.9-2.3-.3-.65.55-.3V3.1l-.7-.5-.85.45.1-.2.05-.2.3-.25.15-1.35-.55-.9-.8-.05-.2.9v.4l-.1.45v.05l-.5 1.15h-.75l-.05-.15-.25-.9V.6l-.95-.45-.65 1.65.2 1.45.25 2v.05l-.25.3-.25 1.15V7l-1.15-.45Q7.85 5.6 5.5 7l-.35.05-1 .4m8 .05.2.25.2.2.05-.2h.1l-.55-.25m.4 7.65.3-.1.6-.1-.05-3.2h-.1l-.5 1.45-.55.85.3 1.1m.55.5.35.35v1.65h-.4l-.35-1.9.4-.1m-.2 4.15.6.6-.05-1.4-.4.15-.15.65" id="b"/><path fill-rule="evenodd" fill-opacity="0" fill="#f0f" d="M100 40H0V0h100v40" id="m"/><use xlink:href="#k" width="73.3" transform="matrix(-1.35 0 0 1.35 98.957 -.004)" height="90.25" id="a"/><use xlink:href="#l" width="9.15" height="4.35" id="c"/><use xlink:href="#m" width="100" height="40" id="p"/></defs><path fill="none" d="M-1-1h152v224H-1z"/><g stroke="null"><use x="-18.412" y="-18.001" xlink:href="#n" width="98.95" transform="translate(-153.764 -290.159) scale(8.33427)" height="121.85"/><use x="-73.073" y="-71.44" xlink:href="#o" width="221" transform="matrix(2.1 0 0 2.1 -1.65 6.65)" height="221"/><use x="-46.507" y="-41.835" xlink:href="#p" width="100" transform="translate(85.92 151.865) scale(2.53197)" height="40"/></g></svg>