<svg width="164" height="265" xmlns="http://www.w3.org/2000/svg" xmlns:xlink="http://www.w3.org/1999/xlink"><defs><g id="d" stroke-opacity="0" stroke-linejoin="round" stroke-linecap="round" stroke="#f0f" fill="none"><path d="M187.95-293.5v380h-380v-380h380M92.95.6H-97" transform="translate(192.55 294)"/><path d="m187.95-293.5-190 190 190 190m-380-380 190 190L-192 86.5" transform="translate(192.55 294)"/></g><g id="f"><path fill-rule="evenodd" fill="#795200" d="M2.45-.05 2.4.3q-.85 1.8-2.05 3L.3 3.25Q-1.85 1.95-2.75 0q2.8-4.85 5.2-.05" transform="translate(3.25 2.45)"/><path stroke-linejoin="round" stroke-linecap="round" stroke="#312c11" fill="none" d="M2.45-.05 2.4.3q-.85 1.8-2.05 3L.3 3.25Q-1.85 1.95-2.75 0" transform="translate(3.25 2.45)"/></g><g id="a"><path fill-rule="evenodd" fill="#960" d="m-.4 3.85-.3-.1Q-3.75 2.7-4.3.3l.75-19.95.2-2.6q1.65 2.9 5.25 2.4Q1.8-1.3-.05 1.9l-.3.45-.05 1.5m.35-1.95Q-1.9.45-2.85.35q.95.1 2.8 1.55" transform="translate(4.8 39.85)"/><path fill-rule="evenodd" fill="#795200" d="m4.6-33.2.1 12.8.2 9.05L5.25.3Q5.5 5.05.55 4.1l-.2-.05-.75-.2.05-1.5.3-.45Q1.8-1.3 1.9-19.85q-3.6.5-5.25-2.4v-.25l1.3-16.85q1.25-.6 3.3.8l.75.6q2.35 1.7 2.6 4.75M1 2.75.45 2.3l-.5-.4.5.4.55.45" transform="translate(4.8 39.85)"/><path stroke-linejoin="round" stroke-linecap="round" stroke="#554d1e" fill="none" d="m-4.3.3.75-19.95.2-2.6v-.25l1.3-16.85" transform="translate(4.8 39.85)"/><path stroke-linejoin="round" stroke-linecap="round" stroke="#312c11" fill="none" d="m4.6-33.2.1 12.8.2 9.05L5.25.3Q5.5 5.05.55 4.1l-.2-.05-.75-.2-.3-.1Q-3.75 2.7-4.3.3" transform="translate(4.8 39.85)"/><path stroke-linejoin="round" stroke-linecap="round" stroke="#312c11" fill="none" d="M-2.85.35q.95.1 2.8 1.55l.5.4.55.45" transform="translate(4.8 39.85)"/><path stroke-opacity=".8" stroke-linejoin="round" stroke-linecap="round" stroke="#000" fill="none" d="M-3.8-15.65q1.5-1.3 1.85.3" transform="translate(4.8 39.85)"/></g><g id="j"><path fill-rule="evenodd" fill="#211a28" d="M-10.15-12.45q1.3-2 7.2 1.85l-4.1 2.4q5.05 2.5 6 10.05-5.5.45-8.7-2.85 1.1 6.25-3.45 11.95-3.9-6.6-3.4-11.9Q-21.3 1.3-26.9.7q1.85-5.75 7.5-8.3-5.65-.35-8.9-4.65 4.35-2.9 8.65-1.1 0-4.55 4.55-6.7 4.05 1.75 4.95 7.6" transform="translate(28.3 36.05)"/><path stroke-width=".05" stroke-linejoin="round" stroke-linecap="round" stroke="#38243e" fill="none" d="M18.15 23.6q-.9-5.85-4.95-7.6-4.55 2.15-4.55 6.7-4.3-1.8-8.65 1.1 3.25 4.3 8.9 4.65-5.65 2.55-7.5 8.3 5.6.6 10.3-1.65-.5 5.3 3.4 11.9 4.55-5.7 3.45-11.95 3.2 3.3 8.7 2.85-.95-7.55-6-10.05l4.1-2.4q-5.9-3.85-7.2-1.85z"/><path fill-rule="evenodd" fill="#542550" d="M-8.95-3.25 1.6.7Q3.1 3.55.45 7.35-2.35 6.4-2.9 2.8q.15 5.45-4.95 9.05-1.3-4.75.35-10.15l-2.85 2.95q-1.1-5.5 1.4-7.9" transform="translate(28.3 36.05)"/><path stroke-width=".05" stroke-linejoin="round" stroke-linecap="round" stroke="#38243e" fill="none" d="m19.35 32.8 10.55 3.95q1.5 2.85-1.15 6.65-2.8-.95-3.35-4.55.15 5.45-4.95 9.05-1.3-4.75.35-10.15l-2.85 2.95q-1.1-5.5 1.4-7.9z"/><path fill-rule="evenodd" fill="#70477c" d="M7.6-4.7q9.6 6.05 13.35 3.75 2.1-6.1-6.2-10.4 10.1-.95 10-9.05-3.75-5.55-9.4-.55 4.3-6.75 3.6-15.1-5.5 4.2-8.55 11.45.1-4.8-2.5-7.15-4.8 4.4-5.35 10.45-2.45-2.45-6.3-.25 1.15 8 6.35 13.2l5 3.65" transform="translate(28.3 36.05)"/><path stroke-width=".05" stroke-linejoin="round" stroke-linecap="round" stroke="#38243e" fill="none" d="M35.9 31.35q9.6 6.05 13.35 3.75 2.1-6.1-6.2-10.4 10.1-.95 10-9.05-3.75-5.55-9.4-.55 4.3-6.75 3.6-15.1-5.5 4.2-8.55 11.45.1-4.8-2.5-7.15-4.8 4.4-5.35 10.45-2.45-2.45-6.3-.25 1.15 8 6.35 13.2l5 3.65z"/><path fill-rule="evenodd" fill="#6d4277" d="M7.95-10.4q4.75-4.1 11.15-.4-3.5 7.7-10.3 7.75 2.6 1.75 2.4 6.35Q8 4.45 6.25 2.35 7.15 6.05 4 7.8.35 5.2 1.05.85q-1.6 3.4-8 1.65.25-4.45 4.35-7.45Q-6.4-5.9-8.75-10q4.35-2 6.7.3-1.1-1.4-1-5.05l.05-.4.55.1q4.05.15 5.7 3.85-.95-4.6 2-6.55 5.05 2.35 2.7 7.35" transform="translate(28.3 36.05)"/><path stroke-width=".05" stroke-linejoin="round" stroke-linecap="round" stroke="#38243e" fill="none" d="M36.25 25.65q4.75-4.1 11.15-.4-3.5 7.7-10.3 7.75 2.6 1.75 2.4 6.35-3.2 1.15-4.95-.95.9 3.7-2.25 5.45-3.65-2.6-2.95-6.95-1.6 3.4-8 1.65.25-4.45 4.35-7.45-3.8-.95-6.15-5.05 4.35-2 6.7.3-1.1-1.4-1-5.05l.05-.4.55.1q4.05.15 5.7 3.85-.95-4.6 2-6.55 5.05 2.35 2.7 7.35z"/><path fill-rule="evenodd" fill="#a25aa9" d="M-10.3-23.8q-6.25-3.75-4.55-12.25 9.8.95 12.35 8.6 1.05-3.65 6.2-4.95 2.45 3 .75 5.8 3.8-2.45 6.9.55-1.5 4.9-6.7 5.75 4.4.5 4.85 8.2-5.05 1.45-9.9-2 .35 4.45-3.35 8.65-3.85-4.15-2.1-7.5-1.2 1.7-5.25 2.9l-.45.15-.2-.7Q-13-15.2-9.5-18.35q-4.7 2.75-7.95.2.7-6.5 7.15-5.65" transform="translate(28.3 36.05)"/></g><g id="k"><path fill-rule="evenodd" fill="#211a28" d="M-6.35 5q1.9-.4.8-5.85L-8.6 1.4q-.4-4.5-5.7-7.45-1.95 3.95-.45 7.35-4.4-2.65-9.95-1.05 3.75 4.9 7.85 6.15-3.1 2.75-4.35 7.1 4.85.4 8.45-3.1-1.4 4.35.8 8.1 3.5-2.45 3.4-6.15 3.4 1.4 6.35-1.35-.1-3.6-4.15-6" transform="translate(31.85 34.75)"/><path stroke-width=".05" stroke-linejoin="round" stroke-linecap="round" stroke="#38243e" fill="none" d="M25.5 39.75q4.05 2.4 4.15 6-2.95 2.75-6.35 1.35.1 3.7-3.4 6.15-2.2-3.75-.8-8.1-3.6 3.5-8.45 3.1 1.25-4.35 4.35-7.1Q10.9 39.9 7.15 35q5.55-1.6 9.95 1.05-1.5-3.4.45-7.35 5.3 2.95 5.7 7.45l3.05-2.25q1.1 5.45-.8 5.85z"/><path fill-rule="evenodd" fill="#492f5b" d="M-22.1-12.3q-5.85-3.05-9.75.3 1.35 7.85 9.1 6.45-7.35 4.95-4.7 15.2Q-15.6 7.75-13-1.65-11.5 2.7-5.1 4q2.8-3.8.55-7.1Q.2-.45 3.75-4.25q-2.15-5.95-8.5-6.6Q.6-11.75.6-21.1q-6.15-1.4-11.85 3.1.15-5.55-4.65-10.35-4.4 5.2-2.1 9.3-1.5-2-6.6-3.2l-.5-.15-.2.85q-1.25 5.55 3.2 9.25" transform="translate(31.85 34.75)"/><path stroke-width=".05" stroke-linejoin="round" stroke-linecap="round" stroke="#38243e" fill="none" d="M9.75 22.45Q3.9 19.4 0 22.75q1.35 7.85 9.1 6.45-7.35 4.95-4.7 15.2 11.85-1.9 14.45-11.3 1.5 4.35 7.9 5.65 2.8-3.8.55-7.1 4.75 2.65 8.3-1.15-2.15-5.95-8.5-6.6 5.35-.9 5.35-10.25-6.15-1.4-11.85 3.1.15-5.55-4.65-10.35-4.4 5.2-2.1 9.3-1.5-2-6.6-3.2l-.5-.15-.2.85q-1.25 5.55 3.2 9.25z"/><path fill-rule="evenodd" fill="#3e304e" d="M-7.45-23.3q-1.2-7.95-8.6-11.45-2.4 7.85 1.75 13.9-6.7-3.7-11.2-1.15 4.4 4.65 11.9 4.55-8.4 2.1-9.75 8.7l.85.1q5.9-1.05 10.05-4.55-.15 4.4 3.2 5.9 3.55-2 2.8-6.85l-1-9.15" transform="translate(31.85 34.75)"/><path stroke-width=".05" stroke-linejoin="round" stroke-linecap="round" stroke="#311e31" fill="none" d="M24.4 11.45Q23.2 3.5 15.8 0q-2.4 7.85 1.75 13.9-6.7-3.7-11.2-1.15 4.4 4.65 11.9 4.55-8.4 2.1-9.75 8.7l.85.1q5.9-1.05 10.05-4.55-.15 4.4 3.2 5.9 3.55-2 2.8-6.85l-1-9.15z"/><path fill-rule="evenodd" fill="#5f4a79" d="m-4.2 1.55.3-1.8q1.1-6.55-.4-8.95-3.55 2.05-3.55 4.25-1.8-3.85-5.2-4.1-1.9 3.95 1.15 6.25-4-1.05-6 .45Q-16.55.9-14.1.2q-3.95 1.4-3.55 5.2 4.05 1.35 7.05-.65-2.25 2.5 0 4.9 3.8-1.2 5.55-5.6l.75-2.2.1-.3" transform="translate(31.85 34.75)"/><path stroke-width=".05" stroke-linejoin="round" stroke-linecap="round" stroke="#311e31" fill="none" d="m27.65 36.3-.1.3-.75 2.2q-1.75 4.4-5.55 5.6-2.25-2.4 0-4.9-3 2-7.05.65-.4-3.8 3.55-5.2-2.45.7-3.8-2.55 2-1.5 6-.45-3.05-2.3-1.15-6.25 3.4.25 5.2 4.1 0-2.2 3.55-4.25 1.5 2.4.4 8.95l-.3 1.8z"/></g><g id="l"><path fill-rule="evenodd" fill="#211a28" d="M7.8 4.5q1.1-.5 2.5 2.7l-2.35-.05Q9.4 9.6 7.75 13 5.3 11.7 4.9 9.45 3.6 12.4.15 13.55.3 9.7 1.95 7.6q-2.6-.25-4.8-2.05 2.3-1.95 5.45-1.5Q.25 2.35.05-.3 2.7-.35 4 1.6q1.2-2 3.7-1.7 1.3 1.9.1 4.6" transform="translate(2.85 14.65)"/><path stroke-width=".05" stroke-linejoin="round" stroke-linecap="round" stroke="#38243e" fill="none" d="M10.65 19.15q1.2-2.7-.1-4.6-2.5-.3-3.7 1.7-1.3-1.95-3.95-1.9.2 2.65 2.55 4.35Q2.3 18.25 0 20.2q2.2 1.8 4.8 2.05-1.65 2.1-1.8 5.95 3.45-1.15 4.75-4.1.4 2.25 2.85 3.55 1.65-3.4.2-5.85l2.35.05q-1.4-3.2-2.5-2.7z"/><path fill-rule="evenodd" fill="#4e3049" d="M13.05-6.05 7.45-3.2Q1.1-4.55-.4-7.9q4.65-2.85 8.35.05-1.55-4.25.15-6.6 3.25 1.5 3.05 5.2.55-4.1 3.55-5.4 3.1 4.85-1.65 8.6" transform="translate(2.85 14.65)"/><path stroke-width=".05" stroke-linejoin="round" stroke-linecap="round" stroke="#38243e" fill="none" d="M15.9 8.6q4.75-3.75 1.65-8.6-3 1.3-3.55 5.4.2-3.7-3.05-5.2-1.7 2.35-.15 6.6-3.7-2.9-8.35-.05 1.5 3.35 7.85 4.7l5.6-2.85z"/><path fill-rule="evenodd" fill="#73336c" d="m2.5 1 4.85.2Q6.8-.9 8.3-3.15 10.4-1.5 9.9.25q.4-.9 2.25-1.8l.2-.05.15.3q.95 2.05-.45 3.85 2-1.7 3.75-.7.15 3.15-2.95 3.25 3.25 1.3 3.1 5.5-4.8.25-6.6-3.15-.2 1.8-2.55 2.85Q5.35 9 5.95 7.55q-1.6 1.45-3.3.3Q3 5.3 5.4 4.55 3.25 4.65 2.5 1" transform="translate(2.85 14.65)"/><path stroke-width=".05" stroke-linejoin="round" stroke-linecap="round" stroke="#38243e" fill="none" d="m5.35 15.65 4.85.2q-.55-2.1.95-4.35 2.1 1.65 1.6 3.4.4-.9 2.25-1.8l.2-.05.15.3q.95 2.05-.45 3.85 2-1.7 3.75-.7.15 3.15-2.95 3.25 3.25 1.3 3.1 5.5-4.8.25-6.6-3.15-.2 1.8-2.55 2.85-1.45-1.3-.85-2.75-1.6 1.45-3.3.3.35-2.55 2.75-3.3-2.15.1-2.9-3.55z"/></g><path fill-rule="evenodd" d="M4.5-2.3 3.75.55l-8.25 1.8L.35-1.9l4.15-.4" transform="translate(4.5 2.3)" id="e"/><path fill-rule="evenodd" fill="#554d1e" d="M9.2-4.65 7.9-8.4l1.45-.4 1.8 3.3 1.5-.25L14.5-8.7l1 .65-.95 2.95 4.15 2.15-.5 1.65-3.05-.7Q6.85 2.55-1.3 3.25l.8-7.05q4.05 2 8.9 1.6l.8-2.45" transform="translate(1.3 8.8)" id="g"/><path stroke-opacity=".8" stroke-linejoin="round" stroke-linecap="round" stroke="#000" fill="none" d="M0 .6Q1.5-.7 1.85.9M5.8 2.7q-1.45-2-2.85-.8" transform="translate(.5 .5)" id="b"/><path fill-rule="evenodd" fill-opacity="0" fill="#f0f" d="M0 0h102.95v45H0V0" id="c"/><use xlink:href="#a" width="10.55" height="44.6" id="h"/><use xlink:href="#b" width="6.8" height="3.7" id="i"/><use xlink:href="#c" width="102.95" height="45" id="m"/></defs><path fill="none" d="M-1-1h166v267H-1z"/><use x="97.05" y="270.5" xlink:href="#d" width="381" transform="translate(-192.55 -294)" height="381"/><use x="-188.625" y="66.782" xlink:href="#e" width="9" transform="matrix(-2.0043 -.7886 -4.2079 1.8231 -4.152 -16.545)" height="4.65"/><use x="-55.206" y="117.308" xlink:href="#e" width="9" transform="matrix(-1.9915 .9764 -.1099 2.7654 7.415 -38.254)" height="4.65"/><use x="38.326" y="87.701" xlink:href="#f" width="6.2" transform="scale(-3.0026 3.0026) rotate(43.343 22.286 -5.7)" height="6.25"/><use x="-117.534" y="-181.647" xlink:href="#g" width="20" transform="matrix(.806 -1.0558 -1.0558 -.806 -2.307 -63.735)" height="12.05"/><use x="31.587" y="-7.647" xlink:href="#h" width="10.55" transform="matrix(-3.0076 0 0 3.0076 190.887 134.047)" height="44.6"/><use x="62.317" y="38.849" xlink:href="#g" width="20" transform="rotate(161.67 64.974 132.178) scale(1.331)" height="12.05"/><use x="31.587" y="-7.647" xlink:href="#i" width="6.8" transform="matrix(-3.0076 0 0 3.0076 188.354 202.596)" height="3.7"/><use x="31.587" y="-7.647" xlink:href="#j" width="53.05" transform="matrix(-3.0076 0 0 3.0076 255.815 26.126)" height="47.9"/><use x="-14.057" y="96.898" xlink:href="#k" width="35.6" transform="matrix(-2.9679 .4592 .571 2.8582 50.335 -264.297)" height="53.25"/><use x="31.416" y="-8.613" xlink:href="#l" width="18.8" transform="matrix(-3.0055 .0922 .0674 3.0067 162.029 100.99)" height="28.2"/><use x="31.587" y="-7.647" xlink:href="#f" width="6.2" transform="matrix(-3.0076 0 0 3.0076 179.125 255.381)" height="6.25"/><use x="-52.568" y="-13.907" xlink:href="#m" width="102.95" transform="matrix(1.8072 0 0 1.6538 81 145.3)" height="45"/></svg>