<svg width="84" height="98" xmlns="http://www.w3.org/2000/svg" xmlns:xlink="http://www.w3.org/1999/xlink"><defs><g id="b"><path fill-rule="evenodd" fill-opacity=".4" d="M61.1 63.25 49.7 57.7l-7.85 4.2q-12.2-7.95-26-8.1L9.8 55.05q-22.1-3.7-38.7-3.65-13.95 2-15.3 6.9l-40.5-19.5 40.25 27.75-7.7 20.85 12.05-10.8 12.8 7.9 4.6 1.8-19.5 19.5 26.6-16.6 20.15 2.1 14.8-1.05 20.05 16.5L26.55 87.2q9.05-1.55 16.6-6.95 9.4-8.35 7.15-14.45l15.5 3.5 20.8-2.4-15.95-6.05q-4.8 2.8-9.55 2.4" transform="translate(99.6 115.5)"/><path fill-rule="evenodd" fill="#5d6c35" d="m38.6 112.35-.15-.3 9.5-.25-4.6-.95 4.1-2.05-7.35.75 9.75-6.35-16.05 6.45 2.8 1.45-2.15 3.45 4.15-2.2" transform="translate(99.6 115.5)"/><path fill-rule="evenodd" fill="#ff995e" d="M-3-69.6q4.8-4.35 8.55-10.35 15.4-25.8 26-33.65-6.75 2-13.15 9.95-11.3 14.1-16.95 20.2-3.7 4-7.5 7.45 5-2.6 5.65 0-.5 3.7-2.6 6.4m-27.05 10.75Q-18.3-59.5-9.3-64.9l-.05-.1q-7.95 3.3-9.2-1.45-5.85 2.8-18.5 4.1-14.7 1.45-18 4.4 11.25-1.85 24.7-.95l.3.05" transform="translate(99.6 115.5)"/><path fill-rule="evenodd" fill="#e84628" d="M31.55-113.6q-10.6 7.85-26 33.65Q1.8-73.95-3-69.6q-1.05 1.35-2.6 2.5 20.85-1 41.4 10.15.2-3.05 2.85-9.9 7.3-14.95 9.25-21.05 2-6.15 2.2-11.05.2-4.95-.95-7.55-2.45-3.95-6.45-6.6-5.7-2.15-11.15-.5M-9.35-65l.05.1q-9 5.4-20.75 6.05 18.7 1.3 41.55 7.95 16.75 5.15 34.15 13.35l-.1-.05-.1-.05q-9.35-6.8-9.95-12.6-12.45-7.9-24.65-10.95L-8.2-65.55l-.4.2-.75.35" transform="translate(99.6 115.5)"/><path fill-rule="evenodd" fill="#ffffe2" d="M-3-69.6Q-.9-72.3-.4-76q-.65-2.6-5.65 0-5.05 4.65-10.3 8.3l-2.2 1.25q1.25 4.75 9.2 1.45l.75-.35.4-.2q1.45-.7 2.6-1.55 1.55-1.15 2.6-2.5" transform="translate(99.6 115.5)"/><path fill-rule="evenodd" fill="#a21212" d="M49.15-106.5q1.15 2.6.95 7.55-.2 4.9-2.2 11.05-1.95 6.1-9.25 21.05Q36-60 35.8-56.95 15.25-68.1-5.6-67.1q-1.15.85-2.6 1.55l19.05 4.35q12.2 3.05 24.65 10.95.6 5.8 9.95 12.6l.7.3 2.25 1.1q18.7 9.6 31.4 21.8l.4.35.05.1 1.25 2.9q-.6-5.9-8.7-12.7-8.05-6.85-14.75-13.6-6.7-6.8-9.25-17.85-.2-4.85.7-10.45l1.95-9.8.35-1.85q1.95-11.75.05-22.75-.95-3.55-2.7-6.4" transform="translate(99.6 115.5)"/><path fill-rule="evenodd" fill="#605827" d="m-10.75-45.4-1.8-2.55 2.8 2.8q7.1 1.75 14.75 4.1 8.65 2.65 16.7 5.65 2.35-1.4 5.1-2.5-28.7-11.8-54.2-13.55-21.15-2.05-28.1 1.5l-2.35 1.85q-1.25 1.55-.95 3.75 2.4 5.55 17.65 14.1 8.55 4.85 21.2 10.6L-17.9-22q.6-.7.9-1.75-9.6-6.85-19.7-11.5 2.05 3.35-2.85 3.2-6.65-3.6-12.25-7.25-5.2-4.15-4-9.5 7.25-2.15 20.35-.9 11.3 1.05 24.7 4.3m64.2 27.55q-13.2.7-20.1 4.45 12 1.6 19.5 8.5l1 .95L51.5-5.1q-11.5-5.5-21-6.4-1.55 1.3-2.8 2.9l-1.3 2Q54.25-.1 65.2-3.75q3.6-1.25 5.4-3.6.55-1 .3-2.25l-.25-.9q-2.3-5.7-19.45-15.85-11.6-6.2-24.4-11.55l-3.35 3.15q12.2 4.55 23.1 10 15.1 7.5 23.8 14.7-3.55 5.2-9.3 4.75-11.9-5.6-11.3-8.15-.9-2.1 3.7-4.4m-87.95-28.8q11.55 9.95 1.85 11 7.55 2.4 15.95 7.2-.75-4.3-5-8.5-5.85-5.8-12.8-9.7" transform="translate(99.6 115.5)"/><path fill-rule="evenodd" fill="#b6ae7d" d="m-9.75-45.15-2.8-2.8 1.8 2.55q4.5 6.85 5.8 14.2-1.75 5.1-6.5 7.75.45-3.75-1.8-8.4l-2.3-3q-7.65-8.45-19-12.15l-1.4-.45 1.45.8q6.95 3.9 12.8 9.7 4.25 4.2 5 8.5.4 2.35-.3 4.7-.3 1.05-.9 1.75l-2.05 2.35-3.55 3.25-5.4 4.9Q-9.9-8.15.05-2.8q10 5.35 11.75 10.4 1.8 5.05-.75 23.45l-7.8 11.5q-.9 3.1-3.6 4.4l.4.3q1 .7 2.25 1.15v-2.5l4.75 4.35v.1l2.25-.4q2.5-.35 4.75-1.1l1.4-3.4h-1.5q.75-2.7.7-7.75l-.05-.65v-.25l4-12.4 3.55.8 2.5-6.25q-.85-8.1-.7-15.2.1-3.45.85-6.35.6-2.15 1.6-4l1.3-2q1.25-1.6 2.8-2.9l1.7-1.2 1.15-.7q6.9-3.75 20.1-4.45L56.2-18q-7.55-3.7-26.05 1.8-3.55 5.35-10.1 7-4.7 1.8-6.15-5.3-1.3-6.8 2.25-11.1h.05l.2-.35q3.35-5 7.05-8.8l3.35-3.15q-2.75 1.1-5.1 2.5-5 2.9-8.15 7.15-6.4 8.05-16.25 7.8 2.7-6.8 1.25-11.9-1.9-6.05-8.3-12.8M14.45 33l.15 3.8-.15-3.8m-.5 12.45-.6 1.55.6-1.55m-5.9-5.05.5 1.85-.5-1.85" transform="translate(99.6 115.5)"/><path fill-rule="evenodd" fill="#716938" d="M-10.75-45.4q-13.4-3.25-24.7-4.3-13.1-1.25-20.35.9-1.2 5.35 4 9.5 5.6 3.65 12.25 7.25 4.9.15 2.85-3.2l-6.15-2.6q4.9.5 10.2 2.2 9.7-1.05-1.85-11l-1.45-.8 1.4.45q11.35 3.7 19 12.15l2.3 3q4.3 4.45 8.3.65-1.3-7.35-5.8-14.2m32.45 10q-8.05-3-16.7-5.65-7.65-2.35-14.75-4.1 6.4 6.75 8.3 12.8 7.7 7.75 15 4.1 3.15-4.25 8.15-7.15m-5.5 9.8q-.5 3.6 3.4 6.65 3.9 3 9.75 3l.8-.25q18.5-5.5 26.05-1.8l-2.75.15q-4.6 2.3-3.7 4.4-.6 2.55 11.3 8.15 5.75.45 9.3-4.75-8.7-7.2-23.8-14.7-10.9-5.45-23.1-10-3.7 3.8-7.05 8.8l-.2.35m-60.75-12.9 1.7.65-1.7-.65" transform="translate(99.6 115.5)"/><path fill-rule="evenodd" fill="#908857" d="M-36.7-35.25q10.1 4.65 19.7 11.5.7-2.35.3-4.7-8.4-4.8-15.95-7.2-5.3-1.7-10.2-2.2l6.15 2.6m35.25 2.9Q0-27.25-2.7-20.45q9.85.25 16.25-7.8-7.3 3.65-15-4.1M16.2-25.6h-.05q-3.55 4.3-2.25 11.1 1.45 7.1 6.15 5.3 6.55-1.65 10.1-7l-.8.25q-5.85 0-9.75-3-3.9-3.05-3.4-6.65m17.15 12.2-1.15.7-1.7 1.2q9.5.9 21 6.4l2.35 1.15-1-.95q-7.5-6.9-19.5-8.5m-8.7 32.35-2.5 6.25-3.55-.8-4 12.4v.25l.05.65q4.55-3.15 9.15-7.2l3.15 7.25-.2-3.15-.4-3.15-.55-3.95-.25-1.5-.9-7.05M-4.95-31.2q-4 3.8-8.3-.65 2.25 4.65 1.8 8.4 4.75-2.65 6.5-7.75m-6.4 82.4q4.15.35 8.65.15l9.7-1 .05-.1L2.3 45.9v2.5q-1.25-.45-2.25-1.15l-.4-.3-11 4.25m25.4-2.35q6.3-2.15 10.5-7.25l-1.85-4q-1.3 2.6-3.2 4.65l-.25.25q-1.65 1.7-3.8 2.95l-1.4 3.4m4.15-3.4h-2.75 2.75" transform="translate(99.6 115.5)"/><path fill-rule="evenodd" fill="#600" d="M45.65-37.55q-17.4-8.2-34.15-13.35-22.85-6.65-41.55-7.95l-.3-.05q-13.45-.9-24.7.95-15.8 6.45-6.85 18Q-47.3-25.3-23.5-16.4l3.55-3.25q-12.65-5.75-21.2-10.6-15.25-8.55-17.65-14.1-.3-2.2.95-3.75l2.35-1.85q6.95-3.55 28.1-1.5Q-1.9-49.7 26.8-37.9q12.8 5.35 24.4 11.55Q68.35-16.2 70.65-10.5l.25.9q.25 1.25-.3 2.25-1.8 2.35-5.4 3.6Q54.25-.1 26.4-6.6q-1 1.85-1.6 4 17.05 4.85 39 5.7 20-1.95 18.25-12.2l-.55-2-1.25-2.9-.45-.45q-12.7-12.2-31.4-21.8l-2.75-1.3" transform="translate(99.6 115.5)"/><path fill-rule="evenodd" fill="#900000" d="m45.45-37.65.1.05.1.05 2.75 1.3-2.25-1.1-.7-.3" transform="translate(99.6 115.5)"/><path fill-rule="evenodd" fill="#00001d" d="M-44.25 9.05Q-51-.4-65.4-8.6l.6 3.9q-19.15 37.5-21.25 47.5l3.6-3.25V37.3l19.9-39.15L-49.2 8.4v1.75l3.15 3.35.45-1.15 1.35-3.3m71.6 29.8 3.55-5.55q-2.05.6-4.15 1.3l.2 3.15.4 1.1M41 30.9q5.5 11.9 8.85 25.25l-1 2.4 2.25 3.75q.1-14.5-5-32.15l-5.1.75m3.2-5.85q-2.05-7.8-6.25-12.75l-11.1 13.85-.05.1-1 1.25.55 3.95q3.8-1.75 7.35-3.05l3.65-5.1 2 3.1 4.85-1.35" transform="translate(99.6 115.5)"/><path fill-rule="evenodd" fill="#121e59" d="M30.9 33.3q5.05-1.5 10.1-2.4l5.1-.75 9.75-.6q2 .75 1.6 3h1.4q2.75 2.7 3.75 6.25v-3.75l18.75 24.5 1.25 5.1 3.35 2.75q-3.2-9.6-8.35-18.4l-2.15-.75-8.55-11.9-4.9-5.6V28.5l-3.3-3.3.65-1.65Q52.6 23 44.2 25.05l-4.85 1.35q-2.75.85-5.65 2-3.55 1.3-7.35 3.05l.4 3.15q2.1-.7 4.15-1.3m27.2-6.4.6-1.7-.6 1.7" transform="translate(99.6 115.5)"/><path fill-rule="evenodd" fill="#5268a3" d="M-60.8 23.55v7.75q.3 15.3 1.45 27.1l.65-33.25-2.1-1.6M24.55 41.6Q27.05 47.05 29 53q.55-2.3-1.95-11.05l-4.3-8-4.6 6.85 1.35 1.45q1.9-2.05 3.2-4.65l1.85 4M77.6 49q-2.65-4.5-5.8-8.85Q67.4 34.1 62 28.5v2.25l4.9 5.6 8.55 11.9 2.15.75M23.05 36.85l-.35.75.35-.75" transform="translate(99.6 115.5)"/><path fill-rule="evenodd" fill="#203671" d="m-48.4 22.4-9.4-7.1-.95 1.9-2.05-.15v6.5l2.1 1.6-.65 33.25q2 19.75 6.45 29.75l1.1-4.85-1.5-1.5q-4.95-30.3-3.65-61.7l5.9 9.45 1.15-3.4 1.5 1.45q-.35-2.2 0-5v-.2M29 53q1.9 5.55 3.35 11.5l7.45 36.15-.75 1.7.8 3.4q1.1-1.35 1.3-4.7l-.1-.5Q38.85 79.2 34.2 60.7q-2.9-11-6.85-21.85l-.4-1.1-3.15-7.25q-4.6 4.05-9.15 7.2.05 5.05-.7 7.75h1.5q2.15-1.25 3.8-2.95l.25-.25-1.35-1.45 4.6-6.85 4.3 8Q29.55 50.7 29 53m-85.95-32.9-1.8-2.9 1.8 2.9" transform="translate(99.6 115.5)"/><path fill-rule="evenodd" fill="#ffffe5" d="m-28.9-11.5-5.4 4.9q-5.95 6.55-9.95 15.65l-1.35 3.3-.45 1.15-1.5 4.8 6.25-10.05Q-37-.35-27.85-8.5l-1.05-3m-4.9 22.25-.7.25q-12.65 4.9-8.3 15.45 3.9 6.2 14.7 5.75 5.9-2.3 6.5-10.5-.65-7.25-2.5-11.5l-.15-.05-4.05-.5q-8.05 5.55-10.25 13.2l-1-4.85q1.45-4.8 5.75-7.25m12.9 16.95q1.9 9.15 10.7 9.55l2.9.15 6.1-.3q10.55-4.8-3.65-21.3-2.5-1.3-4.85-1.25-7.8 8.15-6.75 18.1l-2.1-7.65q.95-5.05 3.9-9.1-3.15 1.45-4.95 5.1l-.35.7q-1.3 2.9-.95 6" transform="translate(99.6 115.5)"/><path fill-rule="evenodd" fill="#faf2c1" d="m-47.55 18.3-.85 4.1v.2q-.35 2.8 0 5l.45 1.8Q-36.1 47.15-15.9 50.6l4.55.6 11-4.25q2.7-1.3 3.6-4.4l7.8-11.5q2.55-18.4.75-23.45Q10.05 2.55.05-2.8-9.9-8.15-28.9-11.5l1.05 3Q-37-.35-41.3 8.25l-6.25 10.05m13.75-7.55q2.9-1.05 5.5-1.1l4.05.5.15.05q3.6 1.25 4.1 10.6l.4.2q1.8-3.65 4.95-5.1l.7-.3q2.05-1.1 4.25-1.05 2.35-.05 4.85 1.25 3.4 1.7 7 5.8 5.7 7.65 3.75 11.9-1.65 2.8-7.1 3.6l-6.1.3-2.9-.15q-8.8-.4-10.7-9.55-1.5 3.45-5.6 4.4l-1.6.1q-10.8.45-14.7-5.75Q-47.15 15.9-34.5 11l.7-.25" transform="translate(99.6 115.5)"/><path fill-rule="evenodd" fill="#fff" d="M-28.3 9.65q-2.6.05-5.5 1.1-4.3 2.45-5.75 7.25l1 4.85q2.2-7.65 10.25-13.2m18.6 4.9q-2.2-.05-4.25 1.05l-.7.3q-2.95 4.05-3.9 9.1l2.1 7.65q-1.05-9.95 6.75-18.1" transform="translate(99.6 115.5)"/><path fill-rule="evenodd" fill="#c9c1a5" d="m-28.1 32.2 1.6-.1q4.1-.95 5.6-4.4-.35-3.1.95-6l-.05-.9q-.5-9.35-4.1-10.6 1.85 4.25 2.5 11.5-.6 8.2-6.5 10.5m26.9 4.9q5.45-.8 7.1-3.6 1.95-4.25-3.75-11.9-3.6-4.1-7-5.8Q9.35 32.3-1.2 37.1" transform="translate(99.6 115.5)"/><path fill-rule="evenodd" fill="#e8e0af" d="M7 50.35h.05v-.1l-.05.1" transform="translate(99.6 115.5)"/><path stroke-linejoin="round" stroke-linecap="round" stroke="#917e3c" fill="none" d="M-3-69.6Q-.9-72.3-.4-76q-.65-2.6-5.65 0m.45 8.9q1.55-1.15 2.6-2.5M-9.35-65l.75-.35.4-.2m-10.35-.9q1.25 4.75 9.2 1.45m3.75-2.1q-1.15.85-2.6 1.55" transform="translate(99.6 115.5)"/><path stroke-linejoin="round" stroke-linecap="round" stroke="#6b0c0c" fill="none" d="M-6.05-76q3.8-3.45 7.5-7.45 5.65-6.1 16.95-20.2 6.4-7.95 13.15-9.95 5.45-1.65 11.15.5 4 2.65 6.45 6.6m-3.5 68.95q-17.4-8.2-34.15-13.35-22.85-6.65-41.55-7.95m-.3-.05q-13.45-.9-24.7.95 3.3-2.95 18-4.4 12.65-1.3 18.5-4.1l2.2-1.25q5.25-3.65 10.3-8.3m-49 18.05q-15.8 6.45-6.85 18Q-47.3-25.3-23.5-16.4m105 5.3q-.6-5.9-8.7-12.7-8.05-6.85-14.75-13.6-6.7-6.8-9.25-17.85-.2-4.85.7-10.45l1.95-9.8.35-1.85q1.95-11.75.05-22.75-.95-3.55-2.7-6.4M80.25-14l-.45-.45.4.35.05.1 1.25 2.9.55 2Q83.8 1.15 63.8 3.1q-21.95-.85-39-5.7m23.6-33.65-2.75-1.3m2.75 1.3q18.7 9.6 31.4 21.8" transform="translate(99.6 115.5)"/><path stroke-linejoin="round" stroke-linecap="round" stroke="#756424" fill="none" d="m-9.75-45.15-2.8-2.8 1.8 2.55M-36.7-35.25q10.1 4.65 19.7 11.5m-.9 1.75-2.05 2.35M26.8-37.9q-2.75 1.1-5.1 2.5m-31.45-9.75q6.4 6.75 8.3 12.8 7.7 7.75 15 4.1 3.15-4.25 8.15-7.15m-5.5 9.8q-.5 3.6 3.4 6.65 3.9 3 9.75 3l.8-.25q18.5-5.5 26.05-1.8l-2.75.15q-13.2.7-20.1 4.45l-1.15.7-1.7 1.2q-1.55 1.3-2.8 2.9l-1.3 2q-1 1.85-1.6 4-.75 2.9-.85 6.35-.15 7.1.7 15.2m-37.9-50.8-2.3-3q-7.65-8.45-19-12.15l-1.4-.45 1.45.8m1.85 11q-5.3-1.7-10.2-2.2l-1.7-.65m21.05 22.1 3.55-3.25m6.7-12.2q4.3 4.45 8.3.65-1.3-7.35-5.8-14.2m-5.95 16.95q-8.4-4.8-15.95-7.2m-4.05.4-6.15-2.6M-23.5-16.4l-5.4 4.9-5.4 4.9q-5.95 6.55-9.95 15.65m-1.8 4.45-1.5 4.8-.85 4.1m0 5.2.45 1.8Q-36.1 47.15-15.9 50.6l4.55.6q4.15.35 8.65.15l9.7-1h.05l2.25-.4q2.5-.35 4.75-1.1 6.3-2.15 10.5-7.25m1.25-14.1-.25-1.5-.9-7.05m-46.35-55.9q-5.85-5.8-12.8-9.7m57.95 11.9 3.35-3.15M16.2-25.6l.2-.35q3.35-5 7.05-8.8M30.5-11.5q9.5.9 21 6.4l2.35 1.15-1-.95q-7.5-6.9-19.5-8.5M-28.3 9.65q-2.6.05-5.5 1.1l-.7.25q-12.65 4.9-8.3 15.45 3.9 6.2 14.7 5.75l1.6-.1q4.1-.95 5.6-4.4 1.9 9.15 10.7 9.55l2.9.15 6.1-.3q5.45-.8 7.1-3.6 1.95-4.25-3.75-11.9-3.6-4.1-7-5.8-2.5-1.3-4.85-1.25-2.2-.05-4.25 1.05l-.7.3q-3.15 1.45-4.95 5.1l-.35.7-.05-.9q-.5-9.35-4.1-10.6l-.15-.05-4.05-.5m8.35 12.05q-1.3 2.9-.95 6m3.9-51.45q-.3 1.05-.9 1.75m1.2-6.45q.4 2.35-.3 4.7m-4.7-13.2q4.25 4.2 5 8.5" transform="translate(99.6 115.5)"/><path stroke-linejoin="round" stroke-linecap="round" stroke="#66281a" fill="none" d="M-19.95-19.65q-12.65-5.75-21.2-10.6-15.25-8.55-17.65-14.1-.3-2.2.95-3.75l2.35-1.85q6.95-3.55 28.1-1.5Q-1.9-49.7 26.8-37.9q12.8 5.35 24.4 11.55Q68.35-16.2 70.65-10.5l.25.9q.25 1.25-.3 2.25-1.8 2.35-5.4 3.6Q54.25-.1 26.4-6.6" transform="translate(99.6 115.5)"/><path stroke-linejoin="round" stroke-linecap="round" stroke="#17284f" fill="none" d="M-44.25 9.05Q-51-.4-65.4-8.6l.6 3.9q-19.15 37.5-21.25 47.5l3.6-3.25V37.3l19.9-39.15L-49.2 8.4v1.75l3.15 3.35.45-1.15 1.35-3.3M-48.4 22.4l-9.4-7.1-.95 1.9-2.05-.15V31.3q.3 15.3 1.45 27.1 2 19.75 6.45 29.75l1.1-4.85-1.5-1.5q-4.95-30.3-3.65-61.7l5.9 9.45 1.15-3.4 1.5 1.45q-.35-2.2 0-5v-.2m72.95 19.2Q27.05 47.05 29 53q1.9 5.55 3.35 11.5l7.45 36.15-.75 1.7.8 3.4q1.1-1.35 1.3-4.7l-.1-.5Q38.85 79.2 34.2 60.7q-2.9-11-6.85-21.85l3.55-5.55q5.05-1.5 10.1-2.4 5.5 11.9 8.85 25.25l-1 2.4 2.25 3.75q.1-14.5-5-32.15l9.75-.6q2 .75 1.6 3h1.4q2.75 2.7 3.75 6.25v-3.75l18.75 24.5 1.25 5.1 3.35 2.75q-3.2-9.6-8.35-18.4-2.65-4.5-5.8-8.85Q67.4 34.1 62 28.5l-3.3-3.3.65-1.65Q52.6 23 44.2 25.05q-2.05-7.8-6.25-12.75l-11.1 13.85m-.05.1-1 1.25m13.55-1.1 4.85-1.35m-4.85 1.35-2-3.1-3.65 5.1q-3.55 1.3-7.35 3.05l-.55-3.95m20.3 2.65-5.1.75m-14.25 3.7q2.1-.7 4.15-1.3m-8.2 4.3.35-.75m3.7-2.25-.4-3.15m-11.7 6.25q4.55-3.15 9.15-7.2l3.15 7.25.4 1.1M33.7 28.4q2.9-1.15 5.65-2m19.35-1.2-.6 1.7M19.5 42.25q1.9-2.05 3.2-4.65l1.85 4m-83.3-24.4 1.8 2.9m70.9 25.35h1.5q2.15-1.25 3.8-2.95m-5.3 2.95q.75-2.7.7-7.75" transform="translate(99.6 115.5)"/><path stroke-width=".5" stroke-linejoin="round" stroke-linecap="round" stroke="#756424" fill="none" d="m114.2 152.3-.15-3.8m12.5 4.75-.2-3.15m-12.1 3.1-.05-.65m-6.05 5.2-.5-1.85m5.3 6.6.6-1.55m1.5 0h2.75"/><path fill-rule="evenodd" d="M-14.45 25.2q.4.4 1 .4t1-.4q.4-.4.4-1t-.4-1q-.4-.4-1-.4t-1 .4q-.4.4-.4 1t.4 1" transform="translate(99.6 115.5)"/><path fill-rule="evenodd" fill-opacity=".902" fill="#ffcbc2" d="M-47.15 24.8q-.5.7.5 2.2.9 1.55 2.7 3.05 1.9 1.4 3.5 1.95 1.65.55 2.15-.2.55-.7-.4-2.2-.95-1.55-2.8-3-1.8-1.45-3.45-2-1.65-.5-2.2.2m33 13.25q-.25.7 1.55 1.35 1.75.65 4.45.9 2.75.2 4.8-.1 2.1-.25 2.3-1 .25-.7-1.5-1.35Q-4.35 37.2-7 37q-2.75-.3-4.8.05-2.1.3-2.35 1" transform="translate(99.6 115.5)"/><path fill-rule="evenodd" d="M-25 22.15q.35.4.85.4h.05q.55 0 .95-.4.35-.35.35-.9t-.35-.95q-.35-.3-.75-.35h-.2q-.55 0-.9.35-.4.4-.4.95 0 .55.4.9" transform="translate(99.6 115.5)"/><path fill-rule="evenodd" fill-opacity=".671" fill="#b5ad7c" d="M-30.1 33.75q.1.85 2.3 1.8 2.2 1 5.25 1.6l5.25.3q2.15-.15 2.05-1-.05-.85-2.25-1.85-2.15-.95-5.25-1.45l-5.2-.45q-2.15.2-2.15 1.05" transform="translate(99.6 115.5)"/><path fill-rule="evenodd" fill="#d2cda6" d="m53.75-40.65-4.1-8.75Q45-53.3 40.2-52.85l-1.7.3-.35.1-1.05.35q-7.2 2.35 7.8 12.45l2.95 1.6 2.25 1.25q7.55 1.8 3.65-3.85" transform="translate(99.6 115.5)"/><path stroke-linejoin="round" stroke-linecap="round" stroke="#917e3c" fill="none" d="M53.75-40.65q3.9 5.65-3.65 3.85l-2.25-1.25-2.95-1.6q-15-10.1-7.8-12.45l1.05-.35.35-.1 1.7-.3q4.8-.45 9.45 3.45l4.1 8.75z" transform="translate(99.6 115.5)"/><path fill-rule="evenodd" fill="#d2cda6" d="m51.4-101.1-1.15-.35q-.95 11.8-5.75 23 3.45 4.85 6.85.1 1.9-11.75.05-22.75" transform="translate(99.6 115.5)"/><path fill-rule="evenodd" fill="#ffffe2" d="m50.25-101.45-1.4.2q-.9.4-1.8 1.4-2.6 3.3-3.65 10.8-.8 6 .2 9 .25.7.65 1.25l.25.35q4.8-11.2 5.75-23" transform="translate(99.6 115.5)"/><path stroke-linejoin="round" stroke-linecap="round" stroke="#917e3c" fill="none" d="m51.4-101.1-1.15-.35-1.4.2q-.9.4-1.8 1.4-2.6 3.3-3.65 10.8-.8 6 .2 9 .25.7.65 1.25l.25.35q3.45 4.85 6.85.1" transform="translate(99.6 115.5)"/><path fill-rule="evenodd" fill="#ffffe2" d="M16.05-94.85q-1.95 2.45-2.75 4.5-.85 2.35.5 2.5 6.8-.65 8.7-10.15-1.35-3.35-6.45 3.15" transform="translate(99.6 115.5)"/><path stroke-linejoin="round" stroke-linecap="round" stroke="#917e3c" fill="none" d="M16.05-94.85q5.1-6.5 6.45-3.15-1.9 9.5-8.7 10.15-1.35-.15-.5-2.5.8-2.05 2.75-4.5z" transform="translate(99.6 115.5)"/><path fill-rule="evenodd" fill="#ffffe2" d="M10.25-75.95q-2.65 2.25-3.3 4.9-.8 2.85 1.35 4.1Q19.2-62.9 19.8-76q-3.05-6.25-9.55.05" transform="translate(99.6 115.5)"/><path stroke-linejoin="round" stroke-linecap="round" stroke="#917e3c" fill="none" d="M10.25-75.95q6.5-6.3 9.55-.05-.6 13.1-11.5 9.05-2.15-1.25-1.35-4.1.65-2.65 3.3-4.9z" transform="translate(99.6 115.5)"/><path fill-rule="evenodd" fill="#ffffe2" d="M37.55-106.6q2.1.1 3.35-1.15 1.1-1.2.9-2.75-.3-4.35-5.9-2.55-5.05 1.7-4.25 4.05.85 2.3 5.9 2.4" transform="translate(99.6 115.5)"/><path stroke-linejoin="round" stroke-linecap="round" stroke="#917e3c" fill="none" d="M37.55-106.6q2.1.1 3.35-1.15 1.1-1.2.9-2.75-.3-4.35-5.9-2.55-5.05 1.7-4.25 4.05.85 2.3 5.9 2.4z" transform="translate(99.6 115.5)"/><path fill-rule="evenodd" fill="#ffffe2" d="m-29.95-59 3.35-.45q1.1-.6.9-1.35-.3-2.1-5.9-1.35-5.05.7-4.25 1.85.85 1.15 5.9 1.3" transform="translate(99.6 115.5)"/><path stroke-linejoin="round" stroke-linecap="round" stroke="#917e3c" fill="none" d="m-29.95-59 3.35-.45q1.1-.6.9-1.35-.3-2.1-5.9-1.35-5.05.7-4.25 1.85.85 1.15 5.9 1.3z" transform="translate(99.6 115.5)"/><path fill-rule="evenodd" fill="#ffffe2" d="M22.55-51.35q2.1.7 3.35 0 1.1-.75.9-2.15-.3-3.85-5.9-3.95-5.05-.05-4.25 2.2.85 2.25 5.9 3.9" transform="translate(99.6 115.5)"/><path stroke-linejoin="round" stroke-linecap="round" stroke="#917e3c" fill="none" d="M22.55-51.35q2.1.7 3.35 0 1.1-.75.9-2.15-.3-3.85-5.9-3.95-5.05-.05-4.25 2.2.85 2.25 5.9 3.9z" transform="translate(99.6 115.5)"/><path fill-rule="evenodd" fill="#ffffe2" d="M36.25-70.5q-2.1 3.35-1.5 5.4.65 2.1 3.75 1.6 1.85-.4 2.75-2.15.85-1.65.5-3.35-.45-2.5-2.15-3.2-1.8-.75-3.35 1.7" transform="translate(99.6 115.5)"/><path stroke-linejoin="round" stroke-linecap="round" stroke="#917e3c" fill="none" d="M36.25-70.5q-2.1 3.35-1.5 5.4.65 2.1 3.75 1.6 1.85-.4 2.75-2.15.85-1.65.5-3.35-.45-2.5-2.15-3.2-1.8-.75-3.35 1.7z" transform="translate(99.6 115.5)"/><path fill-rule="evenodd" fill="#ffffe2" d="M67.5-28.4q1.4 1.6 1.75 2.6.3 1.1-1.1.65-6.8-2.95-6.5-6.85 2.15-.65 5.85 3.6" transform="translate(99.6 115.5)"/><path stroke-linejoin="round" stroke-linecap="round" stroke="#917e3c" fill="none" d="M67.5-28.4q-3.7-4.25-5.85-3.6-.3 3.9 6.5 6.85 1.4.45 1.1-.65-.35-1-1.75-2.6z" transform="translate(99.6 115.5)"/><path stroke-linejoin="round" stroke-linecap="round" stroke="#756424" fill="none" d="M-2.75 2.1Q-.5 3.9.5 6.85m-23-10.65q-1.7-.5-3.35.9" transform="translate(99.6 115.5)"/><path fill-rule="evenodd" fill="#5268a3" d="m-12.05 40.8-2.8 5.35-4.45 5.2q-10.45 13.2-16.5 30.85L-16.85 51l5.3-7.6-.5-2.6" transform="translate(99.6 115.5)"/><path fill-rule="evenodd" fill="#203671" d="m-12.05 40.8.5 2.6-5.3 7.6-18.95 31.2-.3.95-4.35 8.35 2.25-1.25-4.15 15.4q11.25-30.2 27.55-53.7l3.35-4.7 2.25-4.1 3.5 1.9q.65 1.55 1.95 2.65l.4.3 2.25 1.15v-2.5L3.65 51q3.4-.75 1.5-8l-5.3.3-1.95-.4-8.6-4.65-1.35 2.55" transform="translate(99.6 115.5)"/><path stroke-linejoin="round" stroke-linecap="round" stroke="#17284f" fill="none" d="M-35.8 82.2q6.05-17.65 16.5-30.85l4.45-5.2 2.8-5.35M-35.8 82.2l-.3.95-4.35 8.35 2.25-1.25-4.15 15.4q11.25-30.2 27.55-53.7l3.35-4.7 2.25-4.1 3.5 1.9q.65 1.55 1.95 2.65l.4.3 2.25 1.15v-2.5L3.65 51q3.4-.75 1.5-8l-5.3.3-1.95-.4-8.6-4.65-1.35 2.55" transform="translate(99.6 115.5)"/><path stroke-width=".05" stroke-opacity=".502" stroke-linejoin="round" stroke-linecap="round" stroke="#756424" fill="none" d="M118.45 141.7q1.1-8.2.6-17.75m-47.7-16.7q3.25-4.5 6.45-7.5m5.65.9Q76.3 108.3 69.4 119.9m45.15 6.05q1.3-7.25 1.45-14.4"/><path stroke-width="2" stroke-opacity=".302" stroke-linejoin="round" stroke-linecap="round" stroke="#000" fill="none" d="m93.2 39.45.05-.05q3.75-3.45 7.4-7.4 5.65-6.1 16.95-20.15 6.5-8.1 13.4-10.1 5.6-1.75 11.45.5l.1.05q4.1 2.7 6.6 6.75 1.55 2.4 2.45 5.4v.05l.05.05.25 1.05.05.05q1.9 11.05-.05 22.9l-.35 1.85-1.95 9.8q-.9 5.5-.7 10.35l-.05-.1q2.55 10.9 9.15 17.6l6.35 6.15.05.05 2.8 2.55 5.5 4.85q8.25 6.9 8.9 12.95l.55 2.05q.95 5.4-3.9 8.65-4.65 3.1-14.8 4.1h-.1q-21.65-.85-38.6-5.6l.1-.45-.45-.15-.1.5.45.1q-.6 2.65-.7 5.8-.15 7.05.7 15.1l.9 7.05.15 1 11.75-14.65q4.1 4.8 6.1 12.3h.05q8.5-2.1 15.3-1.55l.25.15.15.25v.3l-.5 1.35 3.05 3.05q5.45 5.6 9.85 11.7 3.15 4.35 5.8 8.9 5.2 8.85 8.4 18.5v.3l-.2.3-.3.05-.3-.1-3.35-2.75-.15-.25-1.2-5-17.8-23.25v2.25l-.15.35-.3.15-.35-.05-.2-.3q-.9-3.35-3.45-5.9h-1.2l-.3-.05-.15-.25-.05-.25q.3-1.8-1.2-2.45l-9 .55q4.95 17.35 4.85 31.7l-.1.3-.3.2-.3-.05-.25-.2-2.25-3.75-.05-.2.05-.25.9-2.25q-3.25-13-8.6-24.6-4.75.85-9.5 2.25l-3.3 5.2q3.9 10.7 6.75 21.65 4.7 18.5 6.9 39.85l.1.5v.15q-.2 3.55-1.4 5l-.35.15-.35-.05-.2-.3-.8-3.4.05-.35.65-1.55-7.4-36v.05q-1.45-5.95-3.35-11.5-1.8-5.55-4.1-10.6-4.15 4.7-10.2 6.8l-4.85 1.1-2.25.4h-.05l-2.6.4-.7.25-.35-.05-.1-.05-6 .45q-4.5.2-8.7-.15h-.05l-2.7-.35-.2-.05-.45.65q-16.3 23.5-27.55 53.7l4.15-15.4-2.25 1.25 4.35-8.35.3-.95q6.05-17.65 16.5-30.85l.95-1.2-.55-.15-.35.5q-18.1-4.3-29.15-20.8l-.05-.1-.45-1.75-.8-.8-.9 2.65-.2.3-.4.05-.3-.2-5.05-8.1Q42 168 46.75 197.4l1.4 1.35.1.2v.25l-1.1 4.85-.15.3-.25.1-.3-.05-.2-.25q-4.5-10.05-6.5-29.9-1.15-11.8-1.45-27.15v-14.25l.05-.25.2-.2.25-.05 1.75.15.8-1.6.2-.2.25-.1.3.1 8.75 6.6.7-3.3 1.4-4.55L50 126.3l-.1-.35v-1.5l-12.7-9.7-19.55 38.5v2.1l-.05.2-.15.2-3.6 3.25-.25.1-.3-.05-.2-.25-.05-.3q2.1-10 21.2-47.45l-.55-3.75.05-.35.3-.2.4.05q14 7.95 20.8 17.1 3.95-8.7 9.65-15l.05-.05 10.2-9.25q-23.4-8.9-37.8-23.4l-.05-.05q-4.65-6.05-2.85-10.75 1.75-4.7 9.85-8 3.5-3 18.2-4.45 12.55-1.3 18.3-4.05l2.15-1.2q5.25-3.65 10.25-8.25"/><path stroke-width=".05" stroke-opacity=".302" stroke-linejoin="round" stroke-linecap="round" stroke="#000" fill="none" d="m136.9 140-2.25 3.15 3.5-1.2-1.25-1.95"/><path fill-rule="evenodd" fill="#5d6c35" d="m-92.25 44.55-4.8-.7L-94.5 46l-5.1 1.5 7.55.3 2-1.8 1.1-.3 2.65 1.35.65-2.35.35-.1 5.6.6-2.85-2.4 1-2.75-2.85 1.65-4.55-9.9 1.75 11.45-3.9-7.05.35 6.4-1.5 1.95M-58.8 90.4l2.9-.4.45-1.15.35-.2 5.9-1.75-3.2.1.8-1.45-2.8 1.65-5.6-2.25 2.8 3.85-4.7-1.35.95 2.4-1.4 1.3-5.1 1.4 2.9-.05-5.2 2.4 7.9-2.6 1.95-1.4 1.1-.5m25 14.4 9.05-8.4-12.25 4.9 1.8-8.4-8.55 12.9 5.2 2.7 19.5-1.7v-.25l-9.7-.5 3.25-1.6-8.3.35m96.55-42.65-7.65.5 10.15-4.1-16.7 4.15 2.9.95-2.25 2.25 4.35-1.45-.15-.2 9.85-.15-4.75-.6 4.25-1.35M86.6 68.5l-.25.5h.05l5.15.45.5-1.1q2.35-3.85 7.55-7.15-3.6-.1-7.9 3.05l7.5-10.85Q91 59.75 86.6 68.5m-.25.55V69l-1.25-.1-4.2-6.75 1.3 6.15-2.4-.4 2.2 2.8 4.35-1.65" transform="translate(99.6 115.5)"/></g><g id="c" stroke-opacity="0" stroke-linejoin="round" stroke-linecap="round" stroke="#f0f" fill="none"><path d="M200.7-15.4v220h-220v-220h220" transform="translate(19.8 15.9)"/><path d="m200.7-15.4-110 110 110 110m-220-220 110 110-109.95 110m164.95-72.35H35.75" transform="translate(19.8 15.9)"/><path d="M149 159.2H30.85V23H149v136.2z" transform="translate(19.8 15.9)"/></g><path fill-rule="evenodd" fill-opacity="0" fill="#f0f" d="M100 40H0V0h100v40" id="a"/><use xlink:href="#a" width="100" height="40" id="d"/></defs><path fill="none" d="M-1-1h86V99H-1z"/><use x="-113.204" y="-96.009" xlink:href="#b" width="199.2" transform="translate(46.212 40.935) scale(.4105)" height="230.05"/><use x="-46.47" y="-39.411" xlink:href="#c" width="221" transform="translate(-19.8 -15.9)" height="221"/><use xlink:href="#d" width="100" transform="translate(-28.37 16.689) scale(1.3601)" height="40"/></svg>