<svg width="136" height="150" xmlns="http://www.w3.org/2000/svg" xmlns:xlink="http://www.w3.org/1999/xlink"><defs><path stroke-opacity=".561" stroke-linejoin="round" stroke-linecap="round" stroke="#613b16" fill="none" d="M-1.7-1q-2.75 2.3-1.15 6.4l1 2.75 1.4-1.25 1.1 1.25q4.3-5.2 1.75-9.25" transform="translate(3.95 1.6)" id="e"/><path fill-rule="evenodd" fill="#d3f1c6" d="M-1.65-4.5v-.1h4.1Q5-.55.7 4.65L-.4 3.4l-1.4 1.25-1-2.75q-1.6-4.1 1.15-6.4" transform="translate(3.4 4.6)" id="t"/><path fill-rule="evenodd" fill="#d3f1c6" d="M4.05-2.4q1 1.1 1.25 2.4l.05 1.05-.3 1.2Q4.6 3.4 3.5 4.2q-1.7 1.25-3.7.75-2.1-.55-3.45-1.9Q-5 1.7-5.25-.3v-1.05l.65-1.5L-3.5-4q1.95-1.7 4.05-.8 2.05.9 3.5 2.4" transform="translate(5.3 5.1)" id="u"/><path fill-rule="evenodd" fill-opacity=".302" fill="#2e1700" d="M-5.25-1.35Q-4.8-.2-3.9.75-2.15 2.6.4 2.6q2.5 0 4.25-1.85L5.3 0l.05 1.05-.3 1.2Q4.6 3.4 3.5 4.2q-1.7 1.25-3.7.75-2.1-.55-3.45-1.9Q-5 1.7-5.25-.3v-1.05" transform="translate(5.3 1.35)" id="i"/><path stroke-width=".5" stroke-linejoin="round" stroke-linecap="round" stroke="#fffff1" fill="none" d="M1.35.25q2.2-.2 6.5 3.2M.25 1.6Q.95 6.25 8 5.5" id="v"/><path fill-rule="evenodd" fill="#d3f1c6" d="m.55-1.4-.1 2.8-1-1.9 1.1-.9" transform="translate(.55 1.4)" id="w"/><path fill-rule="evenodd" fill="#d3f1c6" d="m.45-3 2.1.8.35.15h-.45Q1.8-1.9.85-.65-.15.55-.3 1.7q-.15 1 .4 1.35l-.15.05q-1.45.05-2.2-.75l-.05-.1q-.5-.6-.6-1.35l.05-.75.2-.9.95-1.5.7-.65L.45-3" transform="translate(2.9 3.15)" id="y"/><path fill-rule="evenodd" fill="#fffff1" d="m1.1-2.6.65.2q.45.3.45 1.25 0 .9-.65 1.95L0 2.35q-.9.5-1.6.25l-.1-.1q-.55-.35-.4-1.35Q-1.95 0-.95-1.2l1.6-1.4h.45" transform="translate(2.15 2.65)" id="z"/><path stroke-opacity=".561" stroke-linejoin="round" stroke-linecap="round" stroke="#613b16" fill="none" d="m1.95 2.15-.3.5Q.95 3.75 0 3.75t-1.65-1.1Q-2.2 1.8-2.3.75L-2.35 0q0-1.55.7-2.65l.7-.75" transform="translate(2.85 3.9)" id="q"/><path fill-rule="evenodd" fill="#d3f1c6" d="m1.2-3.25.45.6.25.45.45 2.15V0L2.3.95l-.15.55-.2.65-.3.5Q.95 3.75 0 3.75t-1.65-1.1Q-2.2 1.8-2.3.75L-2.35 0q0-1.55.7-2.65l.7-.75.45-.25.3-.05.2-.05q.65 0 1.2.5" transform="translate(2.35 3.75)" id="A"/><g transform="translate(6.25 12.7)" id="s"><use xlink:href="#a" width="7.8" transform="matrix(.3391 -.1187 .1187 .3391 -1.78 -2.824)" height="10.25"/><use xlink:href="#a" width="7.8" transform="matrix(.3595 .011 -.011 .3595 1.347 -2.319)" height="10.25"/><use xlink:href="#a" width="7.8" transform="matrix(.3391 -.1187 .1187 .3391 -5.08 -1.774)" height="10.25"/><use xlink:href="#a" width="7.8" transform="matrix(.3595 .011 -.011 .3595 -2.103 -1.319)" height="10.25"/><use xlink:href="#b" width="11.15" transform="translate(-6.25 -12.7)" height="13.55"/><use xlink:href="#c" width="12" transform="rotate(34.128 17.246 -.123) scale(.4355)" height="11.65"/><use xlink:href="#d" width="8.2" transform="translate(-1.05 -11.8)" height="12.65"/><use xlink:href="#c" width="12" transform="rotate(18.745 25.18 -5.53) scale(.4355)" height="11.65"/></g><g transform="translate(3.95 1.6)" id="a"><use xlink:href="#e" width="7.8" transform="translate(-3.95 -1.6)" height="10.25"/><use xlink:href="#f" width="6.8" transform="translate(-3.45 -1.1)" height="9.25"/></g><g transform="translate(5.55 8.2)" id="b"><use xlink:href="#g" width="11.15" transform="translate(-5.55 -7.8)" height="13.15"/><use xlink:href="#h" width="10.65" transform="translate(-5.35 -5.2)" height="10.2"/><use xlink:href="#i" width="10.65" transform="translate(-5.3 -1.35)" height="6.45"/><use xlink:href="#j" width="8.25" transform="translate(-4.85 -3.95)" height="5.85"/><use xlink:href="#k" width="1.1" transform="translate(-4.5 -8.2)" height="2.8"/></g><g id="g" stroke-linejoin="round" stroke-linecap="round" stroke="#613b16" fill="none"><path stroke-opacity=".561" d="m-4.5-7.3 1 1.9" transform="translate(5.55 7.8)"/><path stroke-width=".5" stroke-opacity=".412" d="m.3 6.45.65-1.5 1.1-1.15Q4 2.1 6.1 3q2.05.9 3.5 2.4 1 1.1 1.25 2.4"/><path stroke-width=".5" stroke-opacity=".561" d="m10.85 7.8.05 1.05-.3 1.2Q10.15 11.2 9.05 12q-1.7 1.25-3.7.75-2.1-.55-3.45-1.9Q.55 9.5.3 7.5V6.45"/></g><g id="x"><path fill-rule="evenodd" fill="#fff" d="m4.9-4.15-.1.05q1.5 2.2-.4 4Q2.5 1.65 1.25 2l-2.8-.1q-1.6-.45-3-2.25l-.15.05v-.35q0-2.2 1.65-3.75Q-1.45-5.95.8-5.95T4.7-4.4l.1.15.1.1" transform="translate(5.2 6.45)"/><path fill-rule="evenodd" fill="#ffffed" d="m-4.7-.3.15-.05q1.4 1.8 3 2.25l2.8.1Q2.5 1.65 4.4-.1q1.9-1.8.4-4l.1-.05Q6.3-2.7 6.3-.65q0 2.2-1.6 3.75Q3.05 4.65.8 4.7q-2.25-.05-3.85-1.6-1.5-1.45-1.65-3.4" transform="translate(5.2 6.45)"/><path stroke-opacity=".341" stroke-linejoin="round" stroke-linecap="round" stroke="#504b37" fill="none" d="m4.9-4.15-.1-.1-.1-.15Q3.05-5.95.8-5.95T-3.05-4.4Q-4.7-2.85-4.7-.65v.35q.15 1.95 1.65 3.4Q-1.45 4.65.8 4.7q2.25-.05 3.9-1.6Q6.3 1.55 6.3-.65q0-2.05-1.4-3.5z" transform="translate(5.2 6.45)"/><path fill-rule="evenodd" fill="#648461" d="M4.85-.25 4.8 1l-.9 1-1.25-.05Q2 1.6 1.75.85q-.25-.6-.2-1.2l.1-.35q.25-.75.9-1.05l1.25.1.95 1.05.1.35" transform="translate(5.2 6.45)"/></g><g transform="translate(4.1 6.3)" id="d"><use xlink:href="#l" width="7.15" transform="translate(-3.05 -.55)" height="6.9"/><use xlink:href="#m" width="5.3" transform="matrix(.4302 .2644 -.3806 .3587 .758 -6.302)" height="8.15"/><use xlink:href="#m" width="5.3" transform="matrix(.4873 -.1288 .1288 .4873 -4.091 -5.483)" height="8.15"/></g><g transform="translate(3.45 3.45)" id="l"><use xlink:href="#n" width="5.8" transform="translate(-3.45 -3.2)" height="6.25"/><use xlink:href="#o" width="4.35" transform="translate(-.9 -2.15)" height="5.35"/><use xlink:href="#p" width="6.75" transform="translate(-3.05 -3.45)" height="6.9"/></g><g id="p" stroke-width=".5" stroke-linejoin="round" stroke-linecap="round" stroke="#648461" fill="none"><path stroke-opacity=".502" d="M.25 5.75q.75.8 2.2.75l.15-.05.1.1q.7.25 1.6-.25l1.55-1.55Q6.5 3.7 6.5 2.8q0-.95-.45-1.25l-.65-.2-.35-.15-2.1-.8L1.5.5"/><path d="m3.65 4.2-.05.65m1.8-1.5L5.3 4"/></g><g transform="translate(2.85 3.9)" id="m"><use xlink:href="#q" width="5.3" transform="translate(-2.85 -3.9)" height="8.15"/><use xlink:href="#r" width="4.7" transform="translate(-2.35 -3.75)" height="7.5"/></g><g id="C" stroke-opacity="0" stroke-linejoin="round" stroke-linecap="round" stroke="#f0f" fill="none"><path d="M187.95-293.5v380h-380v-380h380" transform="translate(192.55 294)"/><path d="m187.95-293.5-190 190 190 190m-380-380 190 190L-192 86.5M92.95-38.4H-97" transform="translate(192.55 294)"/></g><use xlink:href="#s" width="13.5" height="15.15" id="B"/><use xlink:href="#t" width="6.8" height="9.25" id="f"/><use xlink:href="#u" width="10.65" height="10.2" id="h"/><use xlink:href="#v" width="8.25" height="5.85" id="j"/><use xlink:href="#w" width="1.1" height="2.8" id="k"/><use xlink:href="#x" width="12" height="11.65" id="c"/><use xlink:href="#y" width="5.8" height="6.25" id="n"/><use xlink:href="#z" width="4.35" height="5.35" id="o"/><use xlink:href="#A" width="4.7" height="7.5" id="r"/></defs><path fill="none" d="M-1-1h138v152H-1z"/><g stroke="null"><use x="-7.52" y="23.581" xlink:href="#B" width="13.5" transform="matrix(-9.72013 0 0 9.72013 59.915 -228.23)" height="15.15"/><use x="39.343" y="123.37" xlink:href="#C" width="381" transform="translate(-357.738 -546.221) scale(1.8579)" height="381"/></g></svg>