<svg width="296" height="332" xmlns="http://www.w3.org/2000/svg" xmlns:xlink="http://www.w3.org/1999/xlink"><defs><linearGradient y2="-.882" y1=".811" x2=".222" x1=".818" spreadMethod="pad" id="b"><stop stop-color="#f93" offset=".016"/><stop stop-color="#fc6" offset="1"/></linearGradient><linearGradient y2="-8.429" y1="13.02" x2=".556" x1=".65" spreadMethod="pad" id="c"><stop stop-color="#944a00" offset="0"/><stop stop-color="#d96c00" offset=".773"/></linearGradient><linearGradient y2=".175" y1="1.127" x2="-.749" x1="3.654" spreadMethod="pad" id="d"><stop stop-color="#944a00" offset="0"/><stop stop-color="#d96c00" offset=".773"/></linearGradient><linearGradient y2="-186.065" y1="-33.931" x2="-68.367" x1="17.922" spreadMethod="pad" id="e"><stop stop-color="#f93" offset=".016"/><stop stop-color="#fc6" offset="1"/></linearGradient><linearGradient y2="-1.435" y1=".184" x2="-.134" x1="1.99" spreadMethod="pad" id="f"><stop stop-color="#f93" offset=".016"/><stop stop-color="#fc6" offset="1"/></linearGradient><linearGradient y2="-1.175" y1=".859" x2="1.562" x1=".377" spreadMethod="pad" id="g"><stop stop-color="#005100" offset="0"/><stop stop-color="#008c00" offset=".894"/></linearGradient><linearGradient y2="-91.559" y1="-19.106" x2="-60.673" x1="48.006" spreadMethod="pad" id="h"><stop stop-color="#005100" offset="0"/><stop stop-color="#008c00" offset=".894"/></linearGradient><linearGradient y2=".004" y1="1.113" x2="-.008" x1="1.039" spreadMethod="pad" id="i"><stop offset="0"/><stop stop-color="#2f0462" offset=".918"/></linearGradient><linearGradient y2=".059" y1=".727" x2=".017" x1=".637" spreadMethod="pad" id="j"><stop offset="0"/><stop stop-color="#2f0462" offset=".918"/></linearGradient><linearGradient y2=".438" y1=".701" x2=".657" x1=".828" spreadMethod="pad" id="k"><stop offset="0"/><stop stop-color="#2f0462" offset=".918"/></linearGradient><linearGradient y2=".168" y1=".807" x2=".038" x1=".727" spreadMethod="pad" id="l"><stop offset="0"/><stop stop-color="#2f0462" offset=".918"/></linearGradient><linearGradient y2=".413" y1=".699" x2=".263" x1=".57" spreadMethod="pad" id="m"><stop offset="0"/><stop stop-color="#2f0462" offset=".918"/></linearGradient><linearGradient y2="1.09" y1=".417" x2="-.193" x1=".694" spreadMethod="pad" id="n"><stop offset="0"/><stop stop-color="#2f0462" offset=".918"/></linearGradient><path fill-rule="evenodd" fill-opacity="0" fill="#f0f" d="M0 0h102.95v45H0V0" id="a"/><use xlink:href="#a" width="102.95" height="45" id="p"/><g id="o"><path stroke-opacity="0" stroke-linejoin="round" stroke-linecap="round" stroke="#f0f" fill="none" d="M187.95-293.5v380h-380v-380h380M92.95.6H-97" transform="translate(192.55 294)"/><path stroke-opacity="0" stroke-linejoin="round" stroke-linecap="round" stroke="#f0f" fill="none" d="m187.95-293.5-190 190 190 190m-380-380 190 190L-192 86.5" transform="translate(192.55 294)"/><path fill-rule="evenodd" fill="#d96c00" d="m22.2-140.5-.1.05H22l.1-.05.1-.05v.05m-9.6-7.35 1 .1-.05.35-.95-.45M-30.1-99.6l.1.05.05.1-.15-.15" transform="translate(192.55 294)"/><path fill-rule="evenodd" fill="#fffbf1" d="M32.95-172.35q5.9-1.95 7 .6l.2.6.15.6-4.8.2q-.5-1.1-1.75-1.65l-.8-.3v-.05m6.55 4.15.9.3q1.25.5 1.65 1.6l.2.65.1 1.3q-2.2-1.35-4.9-.65l-.45-1.65-.3-.65-.5-.95h.1q1.9-.2 3.2.05m-2.45 5.5.2-.4.15-.4 2.05.4 1.05.6-3.25-.1-.2-.1" transform="translate(192.55 294)"/><path fill-rule="evenodd" fill="#dbd2d2" d="M40.3-170.55q.1.85-.2 1.6l-.6.75q-1.3-.25-3.2-.05h-.1l-.2-.35-.1-.2v-.15l-.3-1.15v-.05l-.1-.2 4.8-.2m2.05 6.2q-.1 1.2-1.3 1.8l-.55.05.65 1.05.1.6.1.35-3.05-1.2-.4-.15-.5-.2-.7-.2.35-.45.2.1 3.25.1-1.05-.6-2.05-.4.1-.75-.05-.75q2.7-.7 4.9.65m-1.5 32.3.6.85q1.1 1.55 1.85 3.25 1.2 2.75 1.45 5.85l.05 1.75v1.2q-.15 2.1-.7 4.05-.85 2.9-2.7 5.5-1.4 1.9-3.3 3.6l-.8.65-3.55 2.5q-2.7 1.55-5.45 2.25l-4.55.55q-3.25-.05-6.05-1.1-2.75-1.05-5.1-3.1L10.85-106q-1.4-1.55-2.4-3.25l-.5-.9-1.05-2.4 1 1.2.1.15 2.25 2.1q3.15 2.55 7 3.35l3.55.35 2.15-.15q4.65-.5 8.95-3.35l1.4-.95 1.8-1.5.85-.75q2.65-2.6 4.1-5.6l1-2.5.55-2.15.25-3.35-.05-1.2q-.1-1.9-.55-3.65l-.4-1.5M1.4-136.3l.2.25.3.45.6.95q1.7 2.7 2.35 5.85l.15 1.4.1 1.05v.8q.05 2.1-.4 4.05l-.15.6q-1.25 4.75-5.25 8.45l-.05.1q-6.05 5.4-12.9 5.4h-.75q-4.45-.2-8-2.75-.7-.45-1.35-1.05l-1.15-1.15-.45-.45q-2.4-2.75-3.65-6l.9 1.05q2.1 2.35 4.6 3.7v.05q.7.35 1.4.6 2.65 1.05 5.75 1.1 5.55-.05 10.55-3.6l.45-.35 1.85-1.5q1.8-1.7 3.1-3.6l1.6-3 .65-2.15.3-1.25.1-.95.05-.75.1-1.45q-.05-2.15-.5-4.1l-.5-1.75" transform="translate(192.55 294)"/><path fill-rule="evenodd" fill="#fffaeb" d="M22.1-140.45v.3q0 1.95-1.2 3.35-1.2 1.45-2.9 1.45t-2.9-1.45l-.55-.75 1.6-1q1.2-.65 2.45-1.1l.75-.25.85-.25.9-.15.9-.15h.1m18.25 7.8.3.4.2.2.4 1.5q.45 1.75.55 3.65l.05 1.2-.25 3.35-.55 2.15-1 2.5q-1.45 3-4.1 5.6l-.85.75-1.8 1.5-1.4.95q-4.3 2.85-8.95 3.35l-2.15.15-3.55-.35q-3.85-.8-7-3.35L8-111.2l-.1-.15-1-1.2q-1.3-3.6-1.25-7.8v-.05l.2.2q4.75 5.15 11.05 6.2l3.3.25q8.4 0 14.35-6.45 4.95-5.3 5.8-12.45m-80.6-25.55-2.15 1.65q-3.75 4.4-4.8-2.4l-.1-.3v-.05q-.4-2.15 2.3-3.9 1.25 1.5 5.05 2.25v.1l-.3 2.65m-5.3-6.05-3.05.95q-2.75 1.5-5.85-1.6 1.55-3.95 5.5-4.7.25 2.2 2.65 4.4l.7.6.05.35m28.45 20.45.95-.15q.25.45.25 1.05 0 1.3-1.15 2.2-1.15.95-2.7.95-1.65 0-2.75-.95l-.4-.35q2.25-1.75 4.9-2.5l.7-.2.2-.05m16.75 5.6.35.3.55.65.85.95.5 1.75q.45 1.95.5 4.1L2.3-129l-.05.75-.1.95-.3 1.25-.65 2.15-1.6 3q-1.3 1.9-3.1 3.6l-1.85 1.5-.45.35q-5 3.55-10.55 3.6-3.1-.05-5.75-1.1-.7-.25-1.4-.6v-.05q-2.5-1.35-4.6-3.7l-.9-1.05-.55-1.85-.6-3.55q4.95 4.5 11.7 4.5h.35q7.25-.1 12.4-5.55 5.3-5.55 5.35-13.4" transform="translate(192.55 294)"/><path fill-rule="evenodd" fill="#fff" d="m-36.1-79.95-.2.1q-2.25.7-3.8-1.1l-.6-.8-.9-1.85-.55-1.5-.2-.8-.05-.25h-.05l-.4-.15-.25-1.45 2.75.45.7-1.65.25.05.5.1q2 2.05 2.6 5.3.3 1.6.2 3.5h.1l-.1.05M-55.05-83l-1.35-1.1-.75-.75q-1.15-2.5-.9-4.55.1-1.75 1.25-3.1l.05-.1 1.1-1.1.05-.05.35-.05 2-.25.45 2.9h.25q.2 1.45 0 2.75l-.45 1.95-1 2-.45.65-.6.8M-69.9-95.15q-2.8-3.55 1.5-8.45 1.45-.8 2.65-1.05l-.05.5.05-.5q1.9-.3 3.3.9-.45 2.05.55 3.75l-.35.45q-1.15 1.5-2.25 2.55-2.85 2.6-5.4 1.85" transform="translate(192.55 294)"/><path fill-rule="evenodd" fill="#ffdc9b" d="m-49.7-89.35-.1-.05h-.05l.15.05" transform="translate(192.55 294)"/><path fill-rule="evenodd" fill="#ccc" d="m-35.25-86.7.35.95.35 2.2q0 .8-.15 1.5l-.2.5-.45.85-.3.4-.35.3h-.1q.1-1.9-.2-3.5-.6-3.25-2.6-5.3l1.35-.15q.45-.25.65-.9v-.1.05l.4.65 1.25 2.55M-50-88.05q-.1 1.7-.35 2.95-.6 2.45-1.9 2.9-1 .35-2.5-.6l-.3-.2.6-.8.45-.65 1-2 .45-1.95q.2-1.3 0-2.75l1.5.1.9 1.2.2.3v.15l-.05 1.3v.05m-11-8.3q-1.65 2.5-4.4 3.35l-1.25.25-.3.05-.25-.15q-1.8-1.05-2.7-2.3 2.55.75 5.4-1.85 1.1-1.05 2.25-2.55l.35-.45.1.25.2.25-.4 1.05 1.55.5.2.25-.75 1.35" transform="translate(192.55 294)"/><path fill-rule="evenodd" fill="url(#b)" d="m51.1-142.5-.4.1v-1.45l.4 1.35m-23.45-6.6h-.15.05l.15-.05v.05h-.05m23.5 9.8.25-.1.95 2.6-1.2-2.5m-.9 10.85.05-.5.3.3-.35.2m-63.85-64.1.3-.35.05.25-.35.1m-17.8 10.4.25-.4-.1.4h-.15m7.65 41.85-.15.1.05-.15.1.05m-14.45 11.35-.15-.05.15.05" transform="translate(192.55 294)"/><path fill-rule="evenodd" fill="url(#c)" d="m50.7-141.35-.1-.15h.05l.1.15h-.05m0-1.05-.1-.1.1.1m-73.6 1.35-.85.75-.1-.05.3-.95.65.25" transform="translate(192.55 294)"/><path fill-rule="evenodd" fill="url(#d)" d="m24.3-140.6-2.1.1v-.05l1.95-.65.15.6M-9.15-73.9l-.3-.1-.35-.1.65.2m-5.15-2.05-.45-.2v-.05l.45.25m-3.05-68.2.25.35-.2.05-.05-.4m-9.1 47.8.1.05-.6 1.2-.55-.2 1.05-1.05" transform="translate(192.55 294)"/><path fill-rule="evenodd" fill="url(#e)" d="m53.9-67.2-.45-.2.15-.15.3.35" transform="translate(192.55 294)"/><path fill-rule="evenodd" fill="url(#f)" d="m-42.4-86.15-.35.35-.1-.5.4.15h.05m-18.05-11.8.25.1-.05.15-.2-.25" transform="translate(192.55 294)"/><path fill-rule="evenodd" fill="url(#g)" d="m59.35-217.15-.05-.1v-.1l.05.2m-9.3 76.05.65-.25.7 1.95-.25.1-1.1-1.8m-81.2-41.45-.1.4.1-.4" transform="translate(192.55 294)"/><path fill-rule="evenodd" fill="url(#h)" d="m53.7-67.65.2.45-.3-.35.1-.1" transform="translate(192.55 294)"/><path fill-rule="evenodd" fill="#004600" d="m50.75-141.35.85 1.35-.2.6-.7-1.95h.05m-.15-1.15.1.05v.05l-.1-.1m-37-5.25.8.1-.35.55-.5-.3.05-.35m-36.5 6.7-.65-.25.65.25m-7.2 41.45h.3l-.2.05-.1-.05" transform="translate(192.55 294)"/><path fill-rule="evenodd" fill="#333" d="m22.1-140.45.1-.05 2.1-.1 1.8.1q.4 1.4.4 2.95 0 4.25-2.85 7.35-2.85 3.05-6.85 3.05-3.2 0-5.65-1.95l-1-.9-.25-.2q-.6-.65-1.05-1.35l.45-.65.05-.1.75-1.05.5-.6.25-.3.4-.4.95-1 1.55-1.35.8-.55.55.75q1.2 1.45 2.9 1.45t2.9-1.45q1.2-1.4 1.2-3.35v-.3m-38.25-3.5 1.1-.15 1.4-.05 1.25.05q1.65 2.1 1.7 4.9-.05 3.3-2.3 5.6t-5.4 2.35q-3.2-.05-5.45-2.35l-.9-1.05q-1.05-1.5-1.25-3.3l.65-.75 1.45-1.5.15-.1.85-.75.4.35q1.1.95 2.75.95 1.55 0 2.7-.95 1.15-.9 1.15-2.2 0-.6-.25-1.05" transform="translate(192.55 294)"/><path fill-rule="evenodd" fill="url(#i)" d="M59.3-217.35q-1.6-2.45-4-3.6-1.75-.85-3.95-.95-2.65-.2-5.85.7l-2.7.9-.65.35q-2.9 1.5-5.45.95-4.1-.9-7.2-7.25-.2-15.8 8.7-7.3 6.15-5.65 21.05-2.2 6.7 2.85 11 6.75l1 .95 2.55 3.1 2 3.45q2 18.2-9.35 26.55l-.3.2q-9.65 5.9-37.7 4.6-23.95.65-28.75 17l-.05.15.8 2.4q1.4 2.55 4.8 4.05l.15.05.65.3 2.85.85.55.15.8.1 5.55.65 1.45.05h2.15l6.05-.2 1 .1.15.05h.05l4.85.75 2.2.55 3 .9.7.2.5.2.4.15 3.05 1.2q9.05 10.1 9.25 18l.1.1.4-.1q.8 2.7.5 2.5l-.85-1.35-.1-.15h-.05l.1.15-.65.25-1.95-2.5-1.1-1.2-1.05-1.05-.15-.1q-1.95-1.35-3.85-2.25l-2.65-1.1-.15-.1-1.45-.4-4.1-.55-3.95-2.6-.5-.25-1.9-.95-3.3-1.25-.9-.25-.9-.25-1.75-.3-.55-.1-1.75-.2q-2.3-.15-4.6.05l-5.25.85-1.1.3H7.1l-3.35 1.1-.95.4-.35-.15H2.4l-.6-.25-3.95-1.1-.6-.1-6.65-.7-1.1.7-.9.95-.35.55q-.3.75-.1 1.5l-.7.25q-2.6.75-4.9 2.5l-.8.7-1.6 1.6-.7.8-1.05 1.45q-1.2 1.8-1.95 3.8l-.3.95-.05.15-1.45 1.5-.65.75-1.1 1.5q-1.55 2.3-2.3 5.05l-.15.45-.2.75v.1l-.4 2.95h-.05l-.4-.15-1.8-.7-1.55-.4-3.7-.55-.7-.05q-.8-1.8 1-4.4l.25-.35.9-1 .55-.65-.85-1.85-1.4-3.75-1.15-3.8-.7-3.4-.05-.2q-.8-4.95-.45-9.8l.3-2.65v-.1q1.2-9 6.45-17.9l2.1-3.3h.15l.1-.4 6.95-5.35q5.2-3.3 10.4-4.6l.2-.05.35-.1-.05-.25q2.65-3.2 5.75-5.8 4.5-3.85 9.95-6.25 3.1-1.45 6.5-2.4l4.25-1q5.65-1.1 12.05-1.1l7.6.45 4.75.6 7.05 1.3.2.05q8.25-1.15 11.85-3.95l1.25-1.15q1.8-2.15 1.45-5l-.05-.2-.2-1.05.2 1.05M46.75-206.6l-1.95-.45 1.95.45m-8.2-26.6-.35-.35q-1.8 1.6-2.95 4.2 1.15-2.6 2.95-4.2l.35.35m22.1 15.65-.1.25.1-.25m-24.3 55.6.35-.3-.35.3M-9.9-193.2l-3.35.55 3.35-.55m-21 11.1-.35-.05.35.05" transform="translate(192.55 294)"/><path fill-rule="evenodd" fill="url(#j)" d="m-26.05-108.8 1.05 1.6 1.85.8 1 .35 1 .3q2.6.8 5.45 1.15 3.65.4 7.7.15 6.85-2.2 10.75-7.35l1-1.4 1.1 3.3.3.85q1.3 3.25 3.85 5.95 1.8 1.9 4.25 3.5 1.55 1.05 3.4 2 3.4.95 7.2 1.2 6.2.3 13.55-1.2l.5.2q1.5.85-1.8 4.15v.05q.15.75 1.3 1.2l4 .45h.15l-.3.25-.55.55-.3.25q-6.1 5.45-13.55 9.05l-4 1.8q-6.6 2.65-14.15 4l-3-.15-7.8-.85-3-.55-.2-.05q-3.9-.85-7.45-2.05l-1.75-.65q-4.05-1.55-7.6-3.7-1.95-1.1-3.7-2.45l-1.3-1.75q-.6-1.1-.75-2.3-.25-1.85.5-4l.1-.15.3-.8.6-1.2-.1-.05-.2-.7.2.7q-2.1-1.1-1.55-4.05.2-1.15.8-2.5-.8-.25-1.25-.65-1.55-1.35 1.45-4.4l.95-.85m-.85 5.15-.3.7v.05-.05l.3-.7m1.35 7.7-.8-.35.8.35" transform="translate(192.55 294)"/><path fill-rule="evenodd" fill="url(#k)" d="m14.55-137.55-.8.55-1.55 1.35-.95 1-.4.4-2.15-.35-2.45-2.6-.05-.05-.8-.85q-1.8-1.55-3.55-2.7l-1.2-.8-1.4-.8-3.2-1.35-2.7-.7-1.7-.7-1.25-.45-4.9-.45-.5.05-1.9.2.95-1 1.05-.65h.05l6.6.65.65.15 3.95 1.05.6.25.35.15 1-.4 3.35-1.05 1.1-.35 1.85-.35 3.4-.5q2.35-.2 4.6 0l.95.45.5.3q1.75 1 2.85 2.3l.55.75v.1q1.2 1.9 1.15 4.3-1.25.45-2.45 1.1l-1.6 1m-11.35-4.7-1.05-.65-.95-.5-2.55-1.25-1.35-.55 1.35.55 2.55 1.25.95.5 1.05.65" transform="translate(192.55 294)"/><path fill-rule="evenodd" fill="url(#l)" d="m48.2-107.5.65-.9q2.85-3.55 6.6-4.35l.85-.1 4.2.2-.55.55.55-.55q2.05.45 4.45 1.55l.55.5 1.35 1.5.85 1.3q.95 1.55 1.55 3.45 1.25 4.3.35 10l3.7 7.7q.75-1.1 1.55-1.65l.85-.55q2.25-.95 4.55 1.7l1.3 2.6q.95 2.65.55 5.5-.6 4.4-4.7 9.05l-.8.8-.15.3q-2 3-6.4 3.75-2.65.4-6.15.05-4.35-.45-10-2.1l-.2-.45v-2.95q-1.55-2-7.7-2.2l-.65 2.6-2-.8-1-.4-.4-.15-1.25-.5q-7.05-5.15 2.65-6.5-2.9-3.15-3.05-7.2l2.3-1.35q3.45-2.05 5.7-3.85l1.55-1.3.15-.15q3.55-3.45 1.95-5.8-.8-1.15-2.9-2 5.25-2.1-1.1-6.85l.25-.45m21.4 13.15-.65-1.05.65 1.05q-.6 3.55-2 7.7 1.4-4.15 2-7.7m-23.1 18.4q-.95-.6-1.7-1.25l-1.45-1.35.1-.7-.1.7 1.45 1.35q.75.65 1.7 1.25m31.5-7.7q-2.6.7-3.95-1.45-.45-.65-.75-1.55.3.9.75 1.55 1.35 2.15 3.95 1.45" transform="translate(192.55 294)"/><path fill-rule="evenodd" fill="url(#m)" d="m23.5-179.25 1.1.8.75 1.1.4.7.35 1 .5 2.25.1 1.05.05.05 1.25-.15 2.45-.15h.7l.7.1.75.1.2.05.15.05.8.3q1.25.55 1.75 1.65l.1.2v.05l.3 1.15v.15l.1.2.2.35.5.95.3.65.45 1.65.05.75-.1.75-.15.4-.2.4-.35.45-3-.9-2.2-.55-4.85-.75h-.05l-.15-.05-1-.1-.6-.4.6.4-6.05.2h-2.15l-1.45-.05-5.55-.65-.7-.9-.3-.45q-.7-1.2-.9-2.5l-.15-.9q-.1-1.7.5-3.6l.85-2 .1-.25 3.35-2.25 1.7-.65q5.75-2.5 8.8-.65l-.3.3.3-.3m3.3 7.7-.05-.75.05.75" transform="translate(192.55 294)"/><path fill-rule="evenodd" fill="url(#n)" d="m-45-163.2-.1-.05-.45-1-.05-.35-.7-.6q-2.4-2.2-2.65-4.4v-.1l.1-1.7.2-.55.05-.35q.5-3.1 5.15-1.25-.35-1.1 1.9-1.7-1.15-3.8 3.9-7.85l.65-.45.2-.1q3.1-1.35 5.4 1.5l-2.1 3.3q-5.25 8.9-6.45 17.9-3.8-.75-5.05-2.25m4.4-10.25-.95-1.8.95 1.8m-2.5-.25-.35.15.35-.15" transform="translate(192.55 294)"/><path fill-rule="evenodd" fill="#05000b" d="m75.8-221.5 1 2.7.7 3.3q.3 2.7.05 5.7l-.3 2.4-.3 1.9-.1.6-.55 2.25q-1.1 4-3.3 7.15-1.15 1.7-2.65 3.1l-3.75 2.9q-5.05 3.1-12.5 4.1l-5.15.4h-1.1l-.75-.1-1.6-.25q-5.9-.75-10.55-.05l-3.35.8q-2.95.95-5.3 2.7-1.55 1.1-2.8 2.65-3.05-1.85-8.8.65l-1.7.65-3.35 2.25-.1.25-.85 2q-.6 1.9-.5 3.6l.15.9q.2 1.3.9 2.5l.3.45.7.9-.8-.1-.55-.15-2.85-.85-.65-.3-.15-.05q-3.4-1.5-4.8-4.05l-.8-2.4.05-.15q4.8-16.35 28.75-17 28.05 1.3 37.7-4.6l.3-.2q11.35-8.35 9.35-26.55m-34.45 61 1.65.8 4.1 2.25 1.4.9 1.55 1.2 3.75 3.05.15.15.45.45.15.1 3.05 3.2.35.4 2.2 2.7.35.45v.05l.5.65 1 1.65.35.6.45.7.05.1 1.9 3.85v.05l.4.9v.05q2.35 6.05 1.7 11.4-.8 6.65-6.35 12.2l-4.2-.2-.85.1q-3.75.8-6.6 4.35l-.65.9-.3.45-1.45-1.05q-.7-.45-1.45-.95l1.1-2.3q1.55-3.65 2-7.1l.15-2-.05-1.85-.5-3.4-.5-1.55-1.55-3.45q-1.2-2.15-2.95-4.2l-.05-.05-1.1-1.2-1.05-1.1h-.05l-.1-.1-3.85-2.25-2.7-1.1-.1-.05-1.45-.45-4.15-.55q-1.9-1.4-3.9-2.5l-.55-.35-1.85-.9-1.7-.75-1.65-.55-.9-.2-.85-.25-1.75-.35-.55-.05.55.05 1.75.35.85.25.9.2 1.65.55 1.7.75 1.85.9.55.35q2 1.1 3.9 2.5l4.15.55 1.45.45.1.05 2.7 1.1 3.85 2.25.1.1h.05l1.05 1.1 1.1 1.2.05.05q1.75 2.05 2.95 4.2l1.55 3.45.5 1.55.5 3.4.05 1.85-.15 2q-.45 3.45-2 7.1l-1.1 2.3q.75.5 1.45.95l1.45 1.05h.05q6.35 4.75 1.1 6.85 2.1.85 2.9 2 1.6 2.35-1.95 5.8l-.15.15-1.55 1.3q-2.25 1.8-5.7 3.85l-2.3 1.35-.85.6-3.25 2.4q-5.25 3.7-10.5 6.2l-4.15 1.75-.45.15q-2.8 1.05-5.6 1.75l-3.25.65-6.15.65h-.25l-4.25-.1-1.5-.15-5-.85-4.25-1.2-.65-.2-4.5-1.85-.45-.25-4.35-2.25-4.55-2.9-.35-.25-1.6-1.2-1.25-.9q-1.7-2.4-2.3-4.5l-.15-.55-1.15 1.1-.3.25q-.65.45-1.85.65l-2.65.05-1.25-2.55-.4-.65v-.05.1q-.2.65-.65.9l-1.35.15-.5-.1-.25-.05-.7 1.65-2.75-.45.25 1.45.1.5-.45.15-1.15.1-1.4-.4-1.35-.55q-1.3-.6-2.9-1.55v-.05l.05-1.3v-.15l-.2-.3-.9-1.2-1.5-.1h-.25l-.45-2.9-2 .25-.35.05-.05.05-1.1 1.1-.05.1q-3.35-.2-4.2-3.85l.75-1.35.05-.15-.25-.1-1.55-.5.4-1.05-.2-.25-.1-.25q-1-1.7-.55-3.75l.55.3-.55-.3q-1.4-1.2-3.3-.9l.3-1.2q1.45-5.95 4.9-6.9l.1-.1q2.5-1.65 5.95.45l.05-.05q3.1-15 10.8-15.9h.35l.25-.1 4.65-.55h.05l.15.05h.55l3.7.55 1.55.4 1.8.7.4.15.05.05-.05 1.55v1.15l.05.65.6 3.55.55 1.85q1.25 3.25 3.65 6l.45.45 1.15 1.15q.65.6 1.35 1.05 3.55 2.55 8 2.75h.75q6.85 0 12.9-5.4l.05-.1q4-3.7 5.25-8.45l.15-.6q.45-1.95.4-4.05v-.8L5-127.4l-.15-1.4q-.65-3.15-2.35-5.85l-.6-.95-.3-.45-.2-.25-.85-.95-.55-.65-.35-.3-.55-.5q-1.6-1.5-3.25-2.6-2.2-1.4-4.55-2.1l-.55-.2-3.15-.5-1.25-.05-1.4.05-1.1.15-.95.15-.25-.35.15-1.1.3-.55-.3.55-.15 1.1.05.4-.7.2q-2.65.75-4.9 2.5l-.65-.25q.75-2 1.95-3.8l1.05-1.45.7-.8 1.6-1.6.8-.7q2.3-1.75 4.9-2.5l.7-.25q-.2-.75.1-1.5l.35-.55.9-.95 1.1-.7 6.65.7.6.1 3.95 1.1.6.25h.05l.35.15.95-.4 3.35-1.1h.05l1.1-.3 5.25-.85q2.3-.2 4.6-.05l1.75.2.55.1 1.75.3.9.25.9.25 3.3 1.25 1.9.95.5.25 3.95 2.6 4.1.55 1.45.4.15.1 2.65 1.1q1.9.9 3.85 2.25l.15.1L47-144.8l1.1 1.2 1.95 2.5 1.1 1.8 1.2 2.5-.95-2.6.2-.6q.3.2-.5-2.5l-.4-1.35v1.4l-.1-.05q-.2-7.9-9.25-18m-13.7 11.4h.05v-.05l-.15.05h-.05.15m.45 7.35-2.3.25-1.65.3 1.65-.3 2.3-.25m-17.25 7.5-.25.3-.5.6-.75 1.05-.05.1-.45.65-1.05 1.9-.45.9-.45 1.15-.2.7-.35 1.2q-.45 1.75-.6 3.7l-.1 1.6v.05q-.05 4.2 1.25 7.8l1.05 2.4.5.9q1 1.7 2.4 3.25l1.75 1.75q2.35 2.05 5.1 3.1 2.8 1.05 6.05 1.1l4.55-.55q2.75-.7 5.45-2.25l3.55-2.5.8-.65q1.9-1.7 3.3-3.6 1.85-2.6 2.7-5.5.55-1.95.7-4.05v-1.2l-.05-1.75q-.25-3.1-1.45-5.85-.75-1.7-1.85-3.25l-.6-.85-.2-.2-.3-.4-1.3-1.4-.65-.6q-2.6-2.4-5.4-3.8l-.95-.5q-2.85-1.25-5.95-1.55l-1.8-.1-.15-.6-1.95.65-.1.05-.1.05-.9.15-.9.15-.85.25-.75.25q.05-2.4-1.15-4.3v-.1l-.55-.75q-1.1-1.3-2.85-2.3l.35-.55-.8-.1-1-.1q-2.25-.2-4.6 0l-3.4.5-1.85.35-1.1.35-3.35 1.05-1 .4-.35-.15-.6-.25-3.95-1.05-.65-.15-6.6-.65h-.05l-1.05.65-.95 1 1.9-.2.5-.05 4.9.45 1.25.45 1.7.7 2.7.7 3.2 1.35 1.4.8 1.2.8q1.75 1.15 3.55 2.7l.8.85.05.05 2.45 2.6 2.15.35m39.4 5.8.35-.2-.3-.3-.05.5m-2.4 27.85.35.1.85.3-.65.25-.55.15.55-.15.65-.25-.85-.3-.35-.1M45-109.05l.1.75-.1-.75M-26.95-95.1l-.3.8-.1.15q-.75 2.15-.5 4 .15 1.2.75 2.3l1.3 1.75q1.75 1.35 3.7 2.45 3.55 2.15 7.6 3.7l1.75.65q3.55 1.2 7.45 2.05l.2.05 3 .55 7.8.85 3 .15q7.55-1.35 14.15-4l4-1.8q7.45-3.6 13.55-9.05l.3-.25.55-.55.3-.25h-.15l-4-.45q-1.15-.45-1.3-1.2v-.05q3.3-3.3 1.8-4.15l-.5-.2q-7.35 1.5-13.55 1.2-3.8-.25-7.2-1.2-1.85-.95-3.4-2-2.45-1.6-4.25-3.5-2.55-2.7-3.85-5.95l-.3-.85-1.1-3.3-1 1.4q-3.9 5.15-10.75 7.35-4.05.25-7.7-.15-2.85-.35-5.45-1.15l-1-.3-1-.35-1.85-.8-1.05-1.6-.95.85q-3 3.05-1.45 4.4.45.4 1.25.65-.6 1.35-.8 2.5l-1.3.6-.5.2h-.3q-1.95-1.4-5.95-.8l-1.15.2 1.15-.2q4-.6 5.95.8l.15.15.3.2.2.2.05.1q1.25 1.55 1.9 3.65l.55.2m.9-13.7 2.3-1.95-2.3 1.95m-28.8-1.65.35-1.95-.35 1.95m5.15 21.1-.15-.05h.05l.1.05m20.4.6-.05-.5q-.55-3.35 1.85-6.05-2.4 2.7-1.85 6.05l.05.5m-.9.35-.1.4-.15.35.15-.35.1-.4" transform="translate(192.55 294)"/><path fill-rule="evenodd" fill="#ff6" d="M8.85-131.55q.45.7 1.05 1.35l.25.2 1 .9q2.45 1.95 5.65 1.95 4 0 6.85-3.05 2.85-3.1 2.85-7.35 0-1.55-.4-2.95 3.1.3 5.95 1.55l.95.5q2.8 1.4 5.4 3.8l.65.6 1.3 1.4q-.85 7.15-5.8 12.45-5.95 6.45-14.35 6.45l-3.3-.25q-6.3-1.05-11.05-6.2l-.2-.2.1-1.6q.15-1.95.6-3.7l.35-1.2.2-.7.45-1.15.45-.9 1.05-1.9M-12.4-144.1l3.15.5.55.2q2.35.7 4.55 2.1 1.65 1.1 3.25 2.6l.55.5q-.05 7.85-5.35 13.4-5.15 5.45-12.4 5.55h-.35q-6.75 0-11.7-4.5l-.05-.65v-1.15l.05-1.55v-.05l.4-2.95v-.1l.2-.75.15-.45q.75-2.75 2.3-5.05l1.1-1.5q.2 1.8 1.25 3.3l.9 1.05q2.25 2.3 5.45 2.35 3.15-.05 5.4-2.35 2.25-2.3 2.3-5.6-.05-2.8-1.7-4.9" transform="translate(192.55 294)"/><path stroke-width=".05" stroke-opacity=".302" stroke-linejoin="round" stroke-linecap="round" stroke="#000" fill="none" d="M251.85 76.65q-1.6-2.45-4-3.6-1.75-.85-3.95-.95-2.65-.2-5.85.7l-2.7.9-.65.35q-2.9 1.5-5.45.95-4.1-.9-7.2-7.25-.2-15.8 8.7-7.3 6.15-5.65 21.05-2.2 6.7 2.85 11 6.75l1 .95 2.55 3.1 2 3.45 1 2.7.7 3.3q.3 2.7.05 5.7l-.3 2.4-.3 1.9-.1.6-.55 2.25q-1.1 4-3.3 7.15-1.15 1.7-2.65 3.1l-3.75 2.9q-5.05 3.1-12.5 4.1l-5.15.4h-1.1l-.75-.1-1.6-.25q-5.9-.75-10.55-.05l-3.35.8q-2.95.95-5.3 2.7-1.55 1.1-2.8 2.65l1.1.8.75 1.1.4.7.35 1 .5 2.25.1 1.05.05.05 1.25-.15 2.45-.15h.7l.7.1.75.1m2.65-56.95q1.15-2.6 2.95-4.2l.35.35m6.25 26.15 1.95.45m-60.05 13.7q2.65-3.2 5.75-5.8 4.5-3.85 9.95-6.25 3.1-1.45 6.5-2.4l4.25-1q5.65-1.1 12.05-1.1l7.6.45 4.75.6 7.05 1.3.2.05Q245.6 85.8 249.2 83l1.25-1.15q1.8-2.15 1.45-5l-.05-.1v-.1l-.2-1.05m-17.75 57.9 1.65.8 4.1 2.25 1.4.9 1.55 1.2 3.75 3.05.15.15.45.45.15.1 3.05 3.2.35.4 2.2 2.7.35.45v.05l.5.65V149m-20.5-17.5.65 1.05.1.6.1.35-3.05-1.2-.4-.15-.5-.2-.7-.2-.35.3m-12.85-17.3-.3.3m9.75 6.65.8.3q1.25.55 1.75 1.65m-8.75-1.95.05.75m6-.8.15.05m-7.5 7.7 1 .1.15.05h.05l4.85.75 2.2.55 3 .9.35-.45.2-.4.15-.4.1-.75-.05-.75-.45-1.65-.3-.65-.5-.95-.2-.35-.1-.2v-.15l-.3-1.15v-.05l-.1-.2M217.4 129l.6.4-6.05.2h-2.15l-1.45-.05-5.55-.65-.8-.1-.55-.15-2.85-.85-.65-.3-.15-.05q-3.4-1.5-4.8-4.05l-.8-2.4.05-.15m37.7 9.65 2.05.4 1.05.6m-26.1 14.85.55.05 1.75.35.85.25.9.2 1.65.55 1.7.75 1.85.9.55.35q2 1.1 3.9 2.5l4.15.55 1.45.45.1.05 2.7 1.1 3.85 2.25.1.1h.05l1.05 1.1 1.1 1.2.05.05q1.75 2.05 2.95 4.2l1.55 3.45.5 1.55.5 3.4.05 1.85-.15 2q-.45 3.45-2 7.1l-1.1 2.3q.75.5 1.45.95l1.45 1.05m.3-.45.65-.9q2.85-3.55 6.6-4.35l.85-.1 4.2.2q5.55-5.55 6.35-12.2.65-5.35-1.7-11.4v-.05l-.4-.9v-.05l-1.9-3.85-.05-.1-.45-.7-.35-.6-1-1.65m-36.85 2.95 1.65-.3 2.3-.25m-5.9 1.25-.1.05m-7.55 2.9-.8.55-1.55 1.35-.95 1-.4.4-.25.3-.5.6-.75 1.05-.05.1-.45.65m17.25-8.95-1.8-.1-2.1.1m0-.05-.1.05-.1.05h.1m-3.5.8.75-.25.85-.25.9-.15.9-.15m.2-.1 1.95-.65m1.95.7q3.1.3 5.95 1.55l.95.5q2.8 1.4 5.4 3.8l.65.6 1.3 1.4.3.4.2.2.6.85q1.1 1.55 1.85 3.25 1.2 2.75 1.45 5.85l.05 1.75v1.2q-.15 2.1-.7 4.05-.85 2.9-2.7 5.5-1.4 1.9-3.3 3.6l-.8.65-3.55 2.5q-2.7 1.55-5.45 2.25l-4.55.55q-3.25-.05-6.05-1.1-2.75-1.05-5.1-3.1L203.4 188q-1.4-1.55-2.4-3.25l-.5-.9-1.05-2.4q-1.3-3.6-1.25-7.8v-.05l.1-1.6q.15-1.95.6-3.7l.35-1.2.2-.7.45-1.15.45-.9 1.05-1.9m56.1 20.45.55.5 1.35 1.5.85 1.3q.95 1.55 1.55 3.45 1.25 4.3.35 10l3.7 7.7q.75-1.1 1.55-1.65l.85-.55q2.25-.95 4.55 1.7l-1.15-1.7M257.5 182.9l-.1-1m-4.35-.55-.55.55m-12 5.05.25-.45m-.25.45h-.05m-7.6 21.3 2.3-1.35q3.45-2.05 5.7-3.85l1.55-1.3.15-.15q3.55-3.45 1.95-5.8-.8-1.15-2.9-2l-.65.25-.55.15m1.2-.4-.85-.3-.35-.1m21.75 6.25q-.6 3.55-2 7.7m1.35-8.75.65 1.05m-9.1-18.3q2.05.45 4.45 1.55m-15.9 10.9q5.25-2.1-1.1-6.85m-2.85-1.25-.1-.75m-71.05.25-.95.85q-3 3.05-1.45 4.4.45.4 1.25.65v-.05l.3-.7m67.6 31.6q-7.05-5.15 2.65-6.5-2.9-3.15-3.05-7.2l-.85.6-3.25 2.4q-5.25 3.7-10.5 6.2l-4.15 1.75-.45.15q-2.8 1.05-5.6 1.75l-3.25.65-6.15.65h-.25l-4.25-.1-1.5-.15-5-.85-4.25-1.2-.3-.1-.35-.1-4.5-1.85-.45-.2v-.05l-4.35-2.25-4.55-2.9-.35-.25-1.6-1.2-1.25-.9q-1.7-2.4-2.3-4.5l-.15-.55-1.15 1.1-.3.25q-.65.45-1.85.65l-2.65.05.35.95.35 2.2q0 .8-.15 1.5l-.2.5-.45.85-.3.4-.35.3-.1.05-.2.1q-2.25.7-3.8-1.1l-.6-.8-.9-1.85-.55-1.5-.2-.8-.05-.25-.35.35-.45.15-1.15.1-1.4-.4-1.35-.55q-1.3-.6-2.9-1.55-.1 1.7-.35 2.95-.6 2.45-1.9 2.9-1 .35-2.5-.6l-.3-.2-1.35-1.1-.7-.7-.05-.05q-1.15-2.5-.9-4.55.1-1.75 1.25-3.1-3.35-.2-4.2-3.85-1.65 2.5-4.4 3.35l-1.25.25-.3.05-.25-.15q-1.8-1.05-2.7-2.3-2.8-3.55 1.5-8.45 1.45-.8 2.65-1.05l.3-1.2q1.45-5.95 4.9-6.9l.1-.1q2.5-1.65 5.95.45l.05-.05q3.1-15 10.8-15.9h.35l.25-.1 4.65-.55h.05q-.8-1.8 1-4.4l.25-.35.9-1 .55-.65-.85-1.85-1.4-3.75-1.15-3.8-.7-3.4m-.05-.2q-.8-4.95-.45-9.8l-2.15 1.65q-3.75 4.4-4.8-2.4l-.1-.3v-.05q-.4-2.15 2.3-3.9l-.1-.05-.45-1-3.05.95q-2.75 1.5-5.85-1.6l-.25.9M236 214.75l-.1.7 1.45 1.35q.75.65 1.7 1.25m7.4 8.75q5.65 1.65 10 2.1 3.5.35 6.15-.05 4.4-.75 6.4-3.75l.15-.3.8-.8q4.1-4.65 4.7-9.05.4-2.85-.55-5.5l-1.3-2.6 1-.05m-35.9 17-2-.8-1-.4-.4-.15-1.25-.5-.75-.05m13.5 4.7.45.2m19.4-19.45q.3.9.75 1.55 1.35 2.15 3.95 1.45m-91.6-108.9.3-.35m.05.25 3.35-.55m-3.7.65-.2.05q-5.2 1.3-10.4 4.6l-6.95 5.35m-.1.4.35.05m17.65-10.55-.35.1m26.6 14.6 1.7-.65q5.75-2.5 8.8-.65m-54.9-2.9.25-.4m-.25.4-2.1 3.3q-5.25 8.9-6.45 17.9v.1l-.3 2.65m9-23.95h-.15q-2.3-2.85-5.4-1.5l-.2.1-.65.45q-5.05 4.05-3.9 7.85l.95 1.8m23.7 27.65.95-1 1.05-.65h.05l6.6.65.65.15 3.95 1.05.6.25.35.15 1-.4 3.35-1.05 1.1-.35 1.85-.35 3.4-.5q2.35-.2 4.6 0l1 .1.8.1m4.2 8q-1.25.45-2.45 1.1l-1.6 1m-31.45-8.25-.3.55-.15 1.1.25.35.95-.15 1.1-.15 1.4-.05 1.25.05 3.15.5.55.2q2.35.7 4.55 2.1 1.65 1.1 3.25 2.6l.55.5.35.3.55.65.85.95.2.25m.3.45.6.95q1.7 2.7 2.35 5.85l.15 1.4.1 1.05v.8q.05 2.1-.4 4.05l-.15.6q-1.25 4.75-5.25 8.45l-.05.1q-6.05 5.4-12.9 5.4h-.75q-4.45-.2-8-2.75-.7-.45-1.35-1.05l-2.3 1.95m3.15-32.25-.85.75-.15.1-1.45 1.5-.65.75-1.1 1.5q-1.55 2.3-2.3 5.05l-.15.45-.2.75v.1l-.4 2.95v.05l-.05 1.55v1.15l.05.65m7.25-17.3q2.25-1.75 4.9-2.5l.7-.2-.05-.4m.05.4.2-.05m-20.55 14.85 3.7.55 1.55.4 1.8.7.4.15m1.2 8.8-.55-1.85-.6-3.55m27.45-21.45 1.35.55 2.55 1.25.95.5 1.05.65m-32.2 23.9q1.25 3.25 3.65 6l.45.45 1.15 1.15m-25.2-58.85v-.1l.1-1.7.2-.55.05-.35q.5-3.1 5.15-1.25-.35-1.1 1.9-1.7m-1.9 1.7.35-.15m-11.75 8.75.4.05q1.55-3.95 5.5-4.7.25 2.2 2.65 4.4l.7.6.05.35m.55 1.05q1.25 1.5 5.05 2.25m1.6 31.95.15.05m.55 0h-.55m-16.3 16.55-.35 1.95m-7.6 6.7.55.3m1.7 5.6-.05.15-.75 1.35m10.85 6.5.2.3v.15l-.05 1.3v.05m-6.8-4.45.05-.1 1.1-1.1.05-.05.35-.05m18.05-6.4 1.15-.2q4-.6 5.95.8l.1.05.2-.05.5-.2 1.3-.6q.2-1.15.8-2.5m-9.7 12.95v.05l.4.65 1.25 2.55m-.75 6.7-.1.05m-6.3-6.2h-.05l-.4-.15m-22.9-18.35-.05.5m8.65 19.3.75.75m-6.05-19.65q-1.4-1.2-3.3-.9m39.1 7.6.2.7.1.05.8.35m-1.95.65 1.05-1.05q-2.1-1.1-1.55-4.05m.5 5.1q-2.4 2.7-1.85 6.05l.05.5m-.7-10.8.05.1.3.2.2.2.05.1q1.25 1.55 1.9 3.65m-2.95 7.65.15-.35.1-.4"/><path stroke-width=".05" stroke-opacity=".302" stroke-linejoin="round" stroke-linecap="round" stroke="#d96c00" fill="none" d="m218.3 117.35.45-.1M253.1 76.7l.1-.25"/><path stroke-width=".05" stroke-opacity=".302" stroke-linejoin="round" stroke-linecap="round" stroke="#000" fill="none" d="M225.5 121.65q5.9-1.95 7 .6l.2.6.15.6q.1.85-.2 1.6l-.6.75.9.3q1.25.5 1.65 1.6l.2.65.1 1.3q-.1 1.2-1.3 1.8l-.55.05m-7.9-9.9.2.05h.15m3.25 4.1h.1q1.9-.2 3.2.05m14.1 100.65-.15.15m.25-.25-.1.1"/><path fill-rule="evenodd" fill-opacity=".498" fill="#fff" d="M-1-130q.5 2.9-.95 4-1.55 1.15-4.2-.2-2.6-1.3-4.85-4.3-2.25-3-2.75-5.9-.55-2.9.95-4l4.1.15q2.65 1.35 4.9 4.35 2.25 3 2.8 5.9" transform="translate(192.55 294)"/><path fill-rule="evenodd" fill-opacity=".302" fill="#fff" d="M-24-127.15q1.9 0 3.2 1.45 1.3 1.45 1.3 3.5t-1.3 3.5q-1.3 1.45-3.2 1.45-1.85 0-3.2-1.45-1.3-1.45-1.3-3.5t1.3-3.5q1.35-1.45 3.2-1.45m5.6-8.25q1.9 0 3.2 1.45 1.3 1.45 1.3 3.5t-1.3 3.5q-1.3 1.45-3.2 1.45-1.85 0-3.2-1.45-1.3-1.45-1.3-3.5t1.3-3.5q1.35-1.45 3.2-1.45" transform="translate(192.55 294)"/><path fill-rule="evenodd" fill-opacity=".498" fill="#fff" d="M30.6-125.6q-1.55 1.15-4.2-.2-2.6-1.3-4.85-4.3-2.25-3-2.75-5.9-.55-2.9.95-4l4.1.15q2.65 1.35 4.9 4.35 2.25 3 2.8 5.9.5 2.9-.95 4" transform="translate(192.55 294)"/><path fill-rule="evenodd" fill-opacity=".302" fill="#fff" d="M16.55-129.3q1.3 1.45 1.3 3.5t-1.3 3.5q-1.3 1.45-3.2 1.45-1.85 0-3.2-1.45-1.3-1.45-1.3-3.5t1.3-3.5q1.35-1.45 3.2-1.45 1.9 0 3.2 1.45m24.85-1.9q1.3 1.45 1.3 3.5t-1.3 3.5q-1.3 1.45-3.2 1.45-1.85 0-3.2-1.45-1.3-1.45-1.3-3.5t1.3-3.5q1.35-1.45 3.2-1.45 1.9 0 3.2 1.45" transform="translate(192.55 294)"/><path fill-rule="evenodd" fill="#fd6" d="m-30.15-127.15-.05 1.55v1.2l.1.65q.1 1.8.55 3.5l.55 1.85.05.05q-1.8 7.55-13.1.3l-.1-.1q-5.4 8.7-10.75.1l1.55-3.9q3.05-6.3 7.95-6.85l.35-.05.25-.05 4.3-.55h.4l-.2-.55q5 .45 8.2 2.2l-.05.65m72.9-8.15q1.15-9.05 5.9-5.25l2.05-1.35v-.95l.05-1.4q3-4.15 5-.9 5.15 10.1 9.45 8.5 2.4 6.05 1.75 11.4-.85 6.65-6.4 12.15l-4.15-.2-.9.15q-3.75.8-6.55 4.35l-.7.9-.3.4-1.4-1-1.5-.95 1.15-2.3q1.55-3.65 1.95-7.1l.15-2.05v-1.8l-.55-3.45-.45-1.55-1.55-3.4q-1.2-2.2-3-4.2" transform="translate(192.55 294)"/><path fill-rule="evenodd" fill="#fff" d="M43.95-60.5h-.1q-2.5-5.55-.55-9.75l.9-2.55 4.35.3q1.75 3.95-4.6 12" transform="translate(192.55 294)"/><path fill-rule="evenodd" fill="#ccc" d="M53.7-67.7q-.8.05-.35.25-2.35 4.5-9.4 6.95 6.35-8.05 4.6-12 3.9.55 5.15 1.9v2.9" transform="translate(192.55 294)"/><path stroke-width=".05" stroke-opacity=".302" stroke-linejoin="round" stroke-linecap="round" stroke="#000" fill="none" d="M246.25 226.3q-.8.05-.35.25"/><path stroke-width=".05" stroke-opacity=".302" stroke-linejoin="round" stroke-linecap="round" stroke="#000" fill="none" d="M245.9 226.55q-2.35 4.5-9.4 6.95h-.1q-2.5-5.55-.55-9.75l.9-2.55 4.35.3q3.9.55 5.15 1.9v2.9l-.35.25z"/><path fill-rule="evenodd" fill="#fff" d="M71.25-58.85Q64.3-64.4 64.4-68.7l-.2-2.6 7.05.2q2.2 4.35 0 12.25" transform="translate(192.55 294)"/><path fill-rule="evenodd" fill="#ccc" d="M71.25-71.1q2.45.35 3.8 1.15 1.35 1.2 1.3 2.95-.8.1-.25.25-.4 4.7-4.7 8l-.15-.1q2.2-7.9 0-12.25" transform="translate(192.55 294)"/><path stroke-width=".05" stroke-opacity=".302" stroke-linejoin="round" stroke-linecap="round" stroke="#000" fill="none" d="M268.9 227q-.8.1-.25.25"/><path stroke-width=".05" stroke-opacity=".302" stroke-linejoin="round" stroke-linecap="round" stroke="#000" fill="none" d="M263.8 235.15q-6.95-5.55-6.85-9.85l-.2-2.6 7.05.2q2.45.35 3.8 1.15 1.35 1.2 1.3 2.95m-.25.25q-.4 4.7-4.7 8l-.15-.1"/><path fill-rule="evenodd" fill="#fff" d="M76.05-79.15q3.6-.4 10.95 5.3l.05.15q-6.4 2.7-10.1.5l-2.3-1.15q.6-2.95 1.4-4.8" transform="translate(192.55 294)"/><path fill-rule="evenodd" fill="#ccc" d="M87-73.85q-7.35-5.7-10.95-5.3.9-2.2 2.1-2.9 1.35-.5 2.8.45-.05.65.2.3 3.9 2.65 5.85 7.45" transform="translate(192.55 294)"/><path stroke-width=".05" stroke-opacity=".302" stroke-linejoin="round" stroke-linecap="round" stroke="#000" fill="none" d="M273.7 212.7q-.25.35-.2-.3"/><path stroke-width=".05" stroke-opacity=".302" stroke-linejoin="round" stroke-linecap="round" stroke="#000" fill="none" d="M268.6 214.85q-.8 1.85-1.4 4.8l2.3 1.15q3.7 2.2 10.1-.5l-.05-.15q-1.95-4.8-5.85-7.45m-.2-.3q-1.45-.95-2.8-.45-1.2.7-2.1 2.9"/><path fill-rule="evenodd" fill="#fd6" d="M59.3-235.45q5.1 2.1 8.8 4.85-.85 9.4-7.35 2.85-7.85-.1-3.65-8.2l2.2.5m-26.45 26.7 4.8.6 4.05.65q6.5 12.35-9.45 11l-.25.15q-14.15 6.6-9.85-8.05-3.3-1.1-1.65-4.6l4.75-.15 7.6.4m33.85 19.5q-5.1 3.05-12.5 4.05l-3.7.35q-4.4-8.9 8.4-9.15 4.7-12.15 11.3-6.25l-.05.2q1.85 2.7 1.6 6.5l-1.3 1.4q-1.7 1.6-3.75 2.9M-31.6-182q11.95-4.75 11.75 4.8 12.3 4.15 9.95 11.65v.1l-.55 1.1q-2.5 3.95-8.35 3.6-12.05 10.85-21.4 6.65-.15-14.95 8.25-27.35l.35-.55" transform="translate(192.55 294)"/><path stroke-width="3.25" stroke-linejoin="round" stroke-linecap="round" stroke="#000" fill="none" d="M268.65 227.25q-.4 4.7-4.7 8l-.15-.1q-4.15-3.3-5.8-6.15l-1.55-.1q-4.35-.5-10-2.15l-.5-.2.3-.25q-.8.05-.35.25-2.35 4.5-9.4 6.95h-.1q-2.5-5.55-.55-9.75l.25-.7-.2-.1-1-.35-1.65-.7q-7.05-5.1 2.65-6.5-2.9-3.15-3-7.2h-.1l-.75.65-3.3 2.35q-5.25 3.7-10.5 6.2l-4.15 1.75-.45.15q-2.8 1.05-5.6 1.75l-3.25.7-6.15.6h-.2l-4.3-.1-1.45-.15-5.05-.85-4.25-1.2-.3-.1-.35-.15q-2.25-.8-4.5-1.8l-.45-.2-4.35-2.3q-2.3-1.3-4.55-2.9l-.3-.25-1.65-1.15-1.25-.95q-1.7-2.35-2.3-4.5l-.15-.55-1.15 1.1-.3.3q-.6.45-1.85.6l-2.65.1.3.95q.35 1.15.4 2.2l-.2 1.5-.15.45-.45.85-.3.4-.35.35h-.1l-.2.1q-2.25.7-3.8-1.1l-.6-.75-.9-1.9-.55-1.45-.2-.85-.05-.25-.35.35-.45.2-1.15.05-1.4-.35-1.35-.6q-1.25-.6-2.9-1.55-.05 1.7-.35 2.95-.55 2.5-1.9 2.9-1 .35-2.45-.6l-.35-.2-2.1-1.85q-1.15-2.5-.9-4.55.15-1.7 1.25-3.1-3.35-.2-4.2-3.85-1.6 2.5-4.4 3.35l-1.25.25-.3.1-.25-.2q-1.8-1.05-2.7-2.3-2.8-3.55 1.5-8.4 1.45-.85 2.7-1.05l.25-1.2q1.45-6 4.9-6.9l.1-.2q2.5-1.55 5.95.55 1.25-5.85 3.1-9.55 3.05-6.3 8-6.85l.35-.05.25-.05 4.3-.55q-.4-1.7 1.15-3.95l.3-.4.8-1 .6-.65-.85-1.85-1.4-3.75-1.15-3.8-.7-3.35v-.25q-.85-4.9-.5-9.8l-2.15 1.65q-3.75 4.45-4.8-2.35l-.1-.35v-.05q-.4-2.15 2.3-3.85l-.1-.1-.4-.95-3.1.95q-2.75 1.45-5.8-1.6 1.5-4 5.45-4.75v-.1q-.15-.9.1-1.7l.2-.55.05-.35q.5-3.05 5.15-1.25-.3-1.05 1.9-1.7-1.15-3.75 3.9-7.8l.6-.5.25-.1q3.1-1.35 5.4 1.5l.25-.35q3.45-3.15 6.95-5.4 5.2-3.3 10.4-4.6l.2-.05.3-.35q2.65-3.2 5.75-5.8 4.55-3.8 9.95-6.25 3.1-1.45 6.5-2.4l4.3-1q5.65-1.1 12-1.05l7.6.4 4.8.6 7 1.3.2.05q8.25-1.15 11.85-3.9l1.25-1.2q1.8-2.1 1.45-5l-.05-.2q-1.6-2.45-3.95-3.6-1.85-.85-4-.95-2.65-.15-5.85.7l-2.7.9-.65.35q-2.9 1.55-5.45 1-4.1-.9-7.2-7.3-.2-15.75 8.7-7.3 6.15-5.6 21.05-2.2 6.7 2.85 11 6.75l.95.95 2.6 3.1 2 3.5.95 2.65.7 3.3q.35 2.7.1 5.75l-.3 2.35-.3 1.95-.1.55-.5 2.25q-1.15 4.05-3.35 7.2l-1.25 1.6v.4l-1.35 1.35q-1.65 1.6-3.7 2.85-5.1 3.1-12.5 4.1l-3.7.35-.1-.25-1.4.05h-.6l-.5.05-.85-.15-1.55-.25q-5.9-.75-10.55 0l-3.35.8q-3 .9-5.3 2.65-1.55 1.15-2.8 2.65l1.1.85.75 1.05.4.7.35 1 .5 2.3.1 1 .05.05 1.3-.15 2.4-.15h.7l.7.1.75.1.2.1h.15v-.05q5.9-1.95 7 .6l.2.6.1.6q.2.9-.15 1.6l-.6.8.9.25q1.25.5 1.7 1.65l.1.65.2 1.25q-.15 1.25-1.35 1.8l-.6.1.7 1 .15.65.05.35 1.7.75 4.05 2.25 1.4.95 1.55 1.15 3.7 3.05.2.2.45.4.15.15 3.05 3.15.35.45 2.15 2.65.35.45.05.05.45.65 1.1 1.7.3.55.45.7.05.15 1.9 3.8.05.1.25.55.15-.05q2.15 5.55 1.75 10.55l-.1 1.25q-.8 6.65-6.35 12.2 2.1.45 4.45 1.6l.55.45 1.35 1.55.85 1.25q.95 1.55 1.55 3.45 1.25 4.3.35 10l3.7 7.75 1.55-1.7q.4-.35.85-.5 2.2-1 4.6 1.7l1.25 2.55q.7 2 .65 4.1 3.1 2.5 4.8 6.65l.05.15q-4.6 2-7.8 1.35l-2.6 3.15-.2.3-.35.45.25 1.45"/></g></defs><path fill="none" d="M-1-1h298v334H-1z"/><g stroke="null"><use x="20.027" y="216.541" xlink:href="#o" width="381" transform="translate(-252.164 -490.958) scale(1.81053)" height="381"/><use x="-95.188" y="-46.535" xlink:href="#p" width="102.95" transform="matrix(3.27198 0 0 2.99425 243.105 304.406)" height="45"/></g></svg>