<svg width="322" height="227" xmlns="http://www.w3.org/2000/svg" xmlns:xlink="http://www.w3.org/1999/xlink"><defs><linearGradient y2="2.178" y1="-.064" x2=".638" x1="1.169" spreadMethod="pad" id="b"><stop stop-opacity=".6" offset=".094"/><stop stop-opacity="0" offset=".91"/></linearGradient><linearGradient y2="-3.794" y1="-5.748" x2="-30.572" x1="69.317" spreadMethod="pad" id="c"><stop stop-color="#717d1a" offset=".047"/><stop stop-color="#adad27" offset=".337"/><stop stop-color="#e1d897" offset=".91"/></linearGradient><linearGradient y2="-.203" y1="1.223" x2="1.161" x1=".052" spreadMethod="pad" id="e"><stop stop-color="#717d1a" offset=".047"/><stop stop-color="#adad27" offset=".337"/><stop stop-color="#e1d897" offset=".91"/></linearGradient><linearGradient y2="-1.179" y1="2.737" x2="1.579" x1="-2.083" spreadMethod="pad" id="f"><stop stop-color="#717d1a" offset=".047"/><stop stop-color="#adad27" offset=".337"/><stop stop-color="#ecec7b" offset=".91"/></linearGradient><linearGradient y2="-5.839" y1="-3.584" x2="25.858" x1="-65.955" spreadMethod="pad" id="g"><stop stop-color="#717d1a" offset=".047"/><stop stop-color="#adad27" offset=".337"/><stop stop-color="#e1d897" offset=".91"/></linearGradient><linearGradient y2="-1040.497" y1="-101.608" x2="283.089" x1="-943.089" spreadMethod="pad" id="h"><stop stop-color="#adad27" offset=".337"/><stop stop-color="#e1d897" offset=".91"/></linearGradient><linearGradient y2="-.536" y1="1.336" x2="1.173" x1=".01" spreadMethod="pad" id="i"><stop stop-color="#717d1a" offset=".047"/><stop stop-color="#adad27" offset=".337"/><stop stop-color="#ecec7b" offset=".91"/></linearGradient><linearGradient y2=".348" y1=".348" x2=".861" x1="-.139" spreadMethod="pad" id="j"><stop stop-color="#c677e3" offset=".094"/><stop stop-color="#cbb2cb" offset=".91"/></linearGradient><linearGradient y2=".498" y1=".498" x2="1.207" x1="-.204" spreadMethod="pad" id="k"><stop stop-color="#c677e3" offset=".094"/><stop stop-color="#cbb2cb" offset=".91"/></linearGradient><linearGradient y2=".479" y1=".479" x2="1.491" x1=".131" spreadMethod="pad" id="l"><stop stop-color="#c677e3" offset=".094"/><stop stop-color="#cbb2cb" offset=".91"/></linearGradient><linearGradient y2=".369" y1=".369" x2=".858" x1="-.143" spreadMethod="pad" id="m"><stop stop-color="#c677e3" offset=".094"/><stop stop-color="#cbb2cb" offset=".91"/></linearGradient><linearGradient y2=".42" y1=".42" x2="1.026" x1="-.254" spreadMethod="pad" id="n"><stop stop-color="#c677e3" offset=".094"/><stop stop-color="#cbb2cb" offset=".91"/></linearGradient><linearGradient y2=".022" y1=".022" x2="3.561" x1="-.517" spreadMethod="pad" id="o"><stop stop-color="#717d1a" offset=".047"/><stop stop-color="#adad27" offset=".337"/><stop stop-color="#e1d897" offset=".91"/></linearGradient><use xlink:href="#a" width="454.6" height="317.05" id="q"/><use xlink:href="#p" width="102.95" height="45" id="s"/><g id="a"><path fill-rule="evenodd" d="m259.35 148.15.2 1-.15-.35-.05-.65m-115.8 27.3-.5.9v-.25l.5-.65m133.9 125.85.15.1v.15l-.1-.1-.05-.15m71.35-7.05h.35l-.4.4.05-.4m18.4-129.1v.8l-.1-.3.1-.5" transform="translate(-.05 2.15)"/><path fill-rule="evenodd" fill="url(#b)" d="M259.35 148.15V148q-.4-2.55.6-5.45l.05-.1q1-2.95 4-5.65 3.2-3.05 7.3-5 1.75-.85 3.8-1.45l.35-.1q1.85-.55 4-.85l.3-.05h.15l2.2.4 2.35 1.35q3.5 3.6 4.55 6.9l.35 3.05v.05l-.05.65 6.8-.7.6-.45.35-.35.1-.05q1.45-1.4 3.9-3 4.3-2.9 10.7-6l5.15-1.65.1.05.85-.1 1.95.1 2 .4.15.05q1.85.8 2.85 2.2.5.95.55 2.05l-.35 1.2q-.1.15.05.1l-.4.8-.8 1.65-1 1.45-.45.5-.5.65-.7.6 1.6.6 3.75-1.25 15.85-.5 1.95.55.8.35.2.15.95.9.05.25.05.1.05.55-.25.85-.75 1.7-.7 1.35-1.75 2.55-1.7 1.9-1.4 1.4-11.8 6.65-5.95 1.05-1.15 1.75-1.6.95q-2.5 1.25-6.65 2.05l-.9.4.7.85-3.35 2.55 33.7 2.4 9.8 2.85.05.05 11.2 3.3 1.1-.55q-2.1-1.75-2.85-3.35-2.25-4.45 5-7.7v-.9q.3-2.1 1.55-4.45l.05-.05q1.3-2.35 3.75-4.35 2.6-2.3 5.75-3.65 1.45-.65 3-1l2.75-.5h.3l1.35.45 1.2 1.2q1.55 3.1 1.6 5.9v.05l-.4 2.5-.15.55 4.5-.15.45-.4.4-.25h.1q1.2-1.1 3.1-2.25 3.35-2.1 8.15-4.3l2.2-.7 1.4-.3h.05l.15.05h.45l1.3.1.5.2.75.35q1.1.7 1.45 1.95l-.05 1.7-.45.95-.05.1-.4.6-.8 1.25-1 1.15-.35.4-.55.55-.55.45q.55.25.95.55l.1-.05 2.55-.75 10.4.55.7.2.45.35.5.35.05.1.35.75v.25l.1.05-.1.45-.35.75-.8 1.3-.75 1.05-1.65 2-1.45 1.45-1.2 1-9 4.75-4.15.55-1.05 1.35-1.25.7q-1.95.85-4.75 1.25l-.65.25.35.75-3.4 2.35.2.5-.6 1.75-.35.45-.05.2 4.5-2.45 12.85-.95 38.25 7.35q4 1.2 2.95 4.55l-.75 1.75q-1.05 1.7-2.9 3.7l-8.6 2.1q-2.25 2.4-5.4 4.8l2.95 10.75-4.15 5.95-3.25 1.95-.6.8q-2.25 2.75-6.3 6.2-.85 1.75-3.35 3.25l-1.75.8-14.15 9.55-2.75 1.65q-6.95 4.25-14.9 6.6l-1.65.45-5.5 4.9-3.9.65-8.7 7.25q-5.85 11.65-17.6 24.3h-.35l-.1-1.85-.4-1.5-.45-1.3q-1.15-2.65-3.45-5.6l-3.25-1.05q-3.8-1.3-6-2.6l-38.25 4.25-3.35-1.55-8.05 5.65q-6.7 7.8-7.9 12.7l-.15-.1q-2.6-3.8-4.35-7.9l-5.35 3.75-26.3 13.4q9.25-6.5 16.35-12.8 4.5-4.05 8.05-8l-6.45 2.8q-22.8 9.3-51.95 15.95l-20.6 3.6q7.75-3.45 14.55-7.55l9.3-6.35-7.55 2.05-3.05.65q-22.35 5.05-53.2 6.85 5.65-2.85 10.75-5.9l1.15-.8 1.15-.7q9-5.85 15.7-12.65-3.55 2.25-9 3.85-5 1.45-11.45 2.35l-13.5 2.35q8.2-3.55 15.15-7.65 5.05-3.1 9.45-6.55l-7.1.75q-16.15 1.15-37.5-.35l9.9-4.85q13.95-7.35 24.1-15.75l1-.9-1.95.6-5.4 1.05-10.15.6-4.6-.1q7-2.25 11.6-5l.6-.4 1.45-.95-4.3-1.95q-15.9-7.6-17.05-14l6.05.95q7.8 1.05 11.25.2l-5-5.1q-8.65-9.45-9.15-17.15l3.25.7 12.8 1.6.4-8.25 2.85-3.25-2.9-3.65-25.75-9.05-10.5-.45-49.1 15.9-8.3 6.1L28 253.8l-2.45 7.8 5.4 29 1.85 1.05.1-.05 3.3 1.75L68 290.2l34.1-32.3 3.25-6.15 4.95-21.45-9.45-3.85-5.65.6-23.85 10.65-3.55 3.4-15.05 25.2-.9 2.9 15.9.6 14.75-9.7 2-6.35-.2-2.95-2.1-2.3-5.45 1.7-2.75 4.85-1.35 4.2-7.65 3.8-2.1-1.85 2.75-8.55 12.1-10.25 12.5-3.8 8.55 3.95-2.3 12.1-4.45 7-27.25 20.3-26.15 2.6-6.35-14.5 1.35-8 22.45-35.9 4.05-4.2 37.2-13 27.25 6.4-1.05 23.25-1.95 6-37.45 48.85-3.85 3.4-40.1 17.55-5.4.5L6.6 298 .05 261.35l13.55-26.3 27.35-34.15 71.4-23.15 18.35-1.8 12.3.5.05-.05v-.05l.5-.9q1.45-2.4 4.3-4.3 1.2-.85 2.95-1.7l3.2-1.3h.2l.15-.05 1.95-.15 2.55.4q4.3 1.6 6.45 3.3l1.55 1.75q-.1.35.05.4l5.2-1.55.35-.35.35-.3q.55-1 2.1-2.45 2.35-2.35 6.75-5.3l2.05-1.2 1.45-.6h.1l.15-.1.5-.15 1.65-.3 1.85.05q1.65.2 2.95.85l1.05 1-.05.95.05-.05-.05.5-.15 1.15-.4.95-.3.4-.15.45-.3.4 1.35.1 2.6-1.35q10-2.55 11.75-2.75h1.6l.7.15.15.05.95.3q-.15.15.05.15l.3.85q-.3.7-.3 1.15l-.1.8-.7 1.6-.9 1.35-.65 1-7 5.4-5 2 .35.55 8.05-3.7 29.85-7.05 20.75-1.25q1.35-2.85 2.75-3.85l1.9-1.05q-3.75-1.85-5.55-3.7-5.1-5.15 4.6-9.75l-.2-1" transform="translate(-.05 2.15)"/><path stroke-width="4.5" stroke-opacity=".6" stroke-linejoin="round" stroke-linecap="round" stroke="#000" fill="none" d="m409.6 54.8 3.25 5.25 1.1.35q5.45 1.85 9.85 6.15l1.75 1.75q5.15 5.25 8.7 9.8l1.2.8q1.55 1.4 1.9 3.45 2.4 3.7 3.6 6.85l.3.8 2.05 1.95 2.05 6.65-3.9 13.35q1.9 2.55 3.2 5.15l5.95 1.5q1 2.2 1.45 4.05 1.3 5.5-2.6 7.9l-29.25 13.4-9.3.45-.4-.3-1.7 4.95 1.15 3.15v2.4l-.4.75 2.7 2.75-.55 1.15.6.3q2.75.15 4.4 1.05l1 .75.75 1.75 3.95.2 7.65 5.35.85 1.3 1.05 1.85 1 2.45.4 1.45.45 1.65.15.95-.1.65-.05.1q-.1.1-.05.3l-.7 1.1-.1.2-.6.55-.55.5-.8.45q-1.5.7-10.7 2.15l-2.45-.75h-.05l-1.1.9.4.55.35.7.2.45.65 1.45.5 1.65.2.8-.05.1.15 1.3-.45 2.35q-.75 1.75-2.15 2.9l-.8.55-.7.4-1.25.4h-.55q-.15-.05-.15.05H413l-1.3-.15-2-.75q-4.15-2.35-6.9-4.8l-2.5-2.65-.1-.05-.2-.3-.35-.45-4.65.4v.75l-.35 3.3-.05.15q-.9 3.8-3.5 8.35l-1.65 1.9-1.55.85h-.05l-.2-.05-2.7-.25q-1.45-.3-2.7-1-2.65-1.45-4.7-4.25-1.8-2.5-2.35-5.6l-.05-.1q-.5-3.05-.1-5.95l.05-.8.15-.4q-6.3-3.5-2.55-10.05 1.35-2.35 3.95-5.05l-.9-.6-12.45 6.1-.1.05-10.95 5.35-35.05 7.9 2.6 3.1-1.05 1.35.85.45q3.95.5 6.1 1.85l1.35 1.1.6 2.25 5.7.75 9.85 7.6.95 1.75 1.15 2.4.9 3.3.25 1.8.25 2.25-.05 1.15-.2.8-.05.1-.2.4-1.25 1.35q-.15.05-.2.25l-.95.6q-.95.6-2.2 1l-15.95 1.5-3.4-1.2-1.8 1.05.5.7.3.9.25.6.6 1.9.3 2.15.1 1.05v.1l-.1 1.7q-.4 1.55-1.25 2.9-1.4 2.1-3.65 3.45l-.1.05-2.25.9-2 .35-.8.05q-.1-.1-.1.05l-2-.45-2.7-1.15q-5.5-3.45-8.95-6.85-1.95-1.9-3-3.7h-.1l-.3-.45-.4-.6h-6.7l-.15.85v.1l-1.4 4.35q-2.15 4.7-6.9 10.15l-2.8 2.2-2.35.85h-.45l-3.85-.65-.25-.1q-1.9-.55-3.45-1.5-3.5-2.1-5.8-5.9-2.1-3.35-2.25-7.3v-.1q-.05-3.95 1.15-7.55l.3-1.1.3-.5q-8.35-5.15-1.5-12.95 2.45-2.8 6.85-5.9l-1.7-1.15q-1.05-1.25-1.5-5.1l-20.75 1.15-28.1-5.75-6.95-4-.55.85.9.55 3.55 1.55 5.35 6.5.4 1.3.45 1.75.15 2.15-.05 1.15-.1 1.45-.6 1.25-.15.25q-.65.2-1.05.55-.15-.05-.2.1l-.7.25-1.65.2q-1.75 0-11.1-2.25l-2.15-1.5-1.45.35.2.5.05.6.1.55.1 1.35-.15 1.5q-.15.2-.15.75l-.05-.1q-.2.6-.25 1.3l-1.45 1.6q-1.5 1.1-3.2 1.55l-1.95.3-1.55-.2q-.35-.25-.45-.15l-.2-.1h-.1l-1.25-.6-1.65-1.4-.75-.8q-2.95-3.05-4.45-5.7-1.05-1.75-1.35-3.05l-.2-.35-.2-.5-4.85-1.4q-.1.1-.25.55l-2.1 2.6q-2.7 2.65-7.65 5.5l-2.7.95-2 .05q-.05-.15-.1-.05-.25-.15-.25 0l-2.75-1.4q-1.55-.9-2.45-1.95-2.3-2.3-3.05-5.4l-.25-.8.05-.45v-.05q-6.45 1.65-12.7 2.45H119.6L54.35 182.3 37.6 138.55l-5.3-34.75 18.65-51.9 34.2-27.35h5.3l35.1 18.9 2.8 4.2 22.35 62.8v8.1l-6.5 32.2-29.8 12.6-33.65-12.95-2.75-5.25L66.75 98.2 68 87.25 79.05 66.5l.15-.25H105l21.15 24.5 2.2 9.2-1.55 16.5-9.95 6.65-11.55-3.55-9-12.6V95.4l2.8-2.9 6.5 4.3v5.65l1.25 6.3 4.95 1.7 2.85-3.5 1.3-4.2v-8.5l-11.9-11.55-16.45 3.15v3.9l7.15 33 2.5 4.2 20.85 11.6h5.55l10.9-6.7 1.9-29.1-1.25-8.1L111 54.3H79.5l-3.95 2.9-.05.05-2.2 1.65-14.9 41.05v10.5l14 44.5 6.5 7.4 44.75 15.35 10.9-2.05 29.2-16.15 4.1-5.4-1.9-4.1 2.4-11.5q-5.9 1.25-13.6 4.05-1.75.6-3.55 1.35 3.1-10.7 14.9-25.1l6.7-7.7q-3.1-.75-11.45 1.75l-6.55 2.2q3.3-9.15 22-21.85l4.95-3.25-1.1-1.1-.55-.45q-3.75-3.25-10.2-5.5l4.75-.75 10.1-.5 5.25.75 1.75.5-.8-1.1q-7.5-10.3-19.3-18.6l-8.6-5.4q22.3-5 38.4-5.6l6.95-.05q-3.35-4.1-7.55-7.65h-.05q-5.65-4.85-12.85-8.65l12.95 1.4q6.3.4 10.85 1.75 5.1 1.45 8 4.1-4.65-8.5-11.95-15.4l-.85-.85-1-.85q-4.15-3.65-9-6.85 30.9-1.75 52 2.25l2.9.55 7 1.8q-3.4-4.05-7.4-7.55-5.6-4.75-12.4-8.55L258.9 9.8q27.5 5.3 47.7 15.15 2.95 1.45 5.7 3-2.35-5.05-5.6-10.1-5.1-7.8-12.5-15.6l22.4 15.15q9.5 9.75 17.7 19.55 2.85-9.1 7.1-17.4l.2-.35q0 5.8 3.65 14.55l5.05 5.95 2.6-2.3 27.35.6q1.85-1.85 4.8-3.85 1.2-.8 2.55-1.65 2.25-3.8 3.5-7.2l.55-1.55.5-1.85.4-2.7.25.4q6.5 13.9 8.85 27.2l5.2 7.7 2.75.3z"/><path fill-rule="evenodd" fill="#717d1a" d="M195.7 200.55q6.05-6.35 6.05-11.55 0-1.85-1.55-3.8h1.7l.95-.6.45.4q2.45 1.05 3.75 2.5l.55.6-.7 1.2-1.7 7q-.15.3-.05.85-.35 2.05-1.1 3.8l-1.35 1.9q-1.2 1.05-2.8 1.7l-1.45.3-.35-1.45-.4-.55-2-2.3m3.15-33.6 1.6 1.55q3.65 4.95 3.2 10.75l-.8 1.55q-.4 0-.55.35l1.5 2.9-.95.55-.95.6h-1.7q-1.1-1.45-1.4-2.9l-.1-.95q2.65-5.2 2.65-8.45-1.7-3.35-2.5-5.95m3.45 14.2q-1.7.75-3.5 1.15 1.8-.4 3.5-1.15" transform="translate(-.05 2.15)"/><path fill-rule="evenodd" fill="#e1d897" d="m155.55 190.35 1.6-1.05q.25-.15.55-.25l3.55-.6 2.8.6 2.55.75q2.3.85 4.35 2.1l2.45 1.9 1.05 1.3 1.2 1.35.05.95-.25.85-.7 2.25-.25.55-2.15 2.6q-2.65 2.7-7.6 5.5l-2.7.95-1.95.05-.2-.05q-.2-.15-.2 0l-2.8-1.35-2.4-2q-2.35-2.3-3.05-5.4l-.25-.8.05-.45-.05-.35q-.25-1.25.15-2.3 0-.85.4-1.5l-.1-.05q1.05-2.8 3.05-4.7l.4-.65.45-.2m24.05 11.55q-.55-1.35-.4-2.3-.15-.7.1-.95-.1-.55.15-.95l1.65-.4 1.25-.4 3.1.1q2-.1 4.4.85.15-.15.6.2l2.55 1 2.45 1.2.25.3 2 2.3.4.55.35 1.45.25.55v.55l.15.55.1 1.35-.15 1.5q-.15.2-.15.75l-.1-.1-.25 1.3-1.4 1.65q-1.5 1-3.2 1.5l-1.95.3-1.55-.2-.45-.2-.25-.05h-.05q-.65-.35-1.3-.55l-1.6-1.45-.75-.8q-2.95-3.1-4.45-5.7-1.05-1.75-1.35-3l-.25-.4-.15-.5m28.15-12.1 3.6 1.55 4.95 6.05.4.45.4 1.3.4 1.75.15 2.1-.05 1.2-.1 1.45-.55 1.25q-.25 0-.15.25-.7.25-1.05.55l-.2.1-.75.2-1.65.25q-1.75 0-11.05-2.2l-2.2-1.5q1.6-.65 2.8-1.7l1.35-1.9q.75-1.75 1.1-3.8-.1-.55.05-.85l1.7-7 .85.5" transform="translate(-.05 2.15)"/><path fill-rule="evenodd" fill="#545e13" d="m167.05 183.1-3-3.4 3 3.4m-11.5 7.25q-2.55-2.65-1.9-4.7.4-2.2 3.95-3.8 2.5-1.3 6.45-2.15l-.95-1.1q-.9-1.85 1.75-7.85l6.55-9.2 9.2-5.25.75.25 10.55 3.3 6.95 7.1q.8 2.6 2.5 5.95 0 3.25-2.65 8.45l.1.95q.3 1.45 1.4 2.9 1.55 1.95 1.55 3.8 0 5.2-6.05 11.55l-.25-.3-2.45-1.2-2.55-1q-.45-.35-.6-.2-2.4-.95-4.4-.85l-3.1-.1-1.25.4-1.65.4q-.25.4-.15.95-.25.25-.1.95-.15.95.4 2.3l-4.85-1.4.7-2.25.25-.85-.05-.95-1.2-1.35-1.05-1.3-2.45-1.9q-2.05-1.25-4.35-2.1l-2.55-.75-2.8-.6-3.55.6q-.3.1-.55.25l-1.6 1.05m42.05-5.1 2.6-.05-2.6.05m-6.35-3.55 4.35.85 3.2-.25-3.2.25-4.35-.85" transform="translate(-.05 2.15)"/><path stroke-width=".05" stroke-opacity=".302" stroke-linejoin="round" stroke-linecap="round" stroke="#000" fill="none" d="m164 181.85 3 3.4m14.3-26.55-.75-.25-9.2 5.25-6.55 9.2q-2.65 6-1.75 7.85l.95 1.1q-3.95.85-6.45 2.15-3.55 1.6-3.95 3.8-.65 2.05 1.9 4.7l1.6-1.05q.25-.15.55-.25l3.55-.6 2.8.6 2.55.75q2.3.85 4.35 2.1l2.45 1.9 1.05 1.3 1.2 1.35.05.95-.25.85-.7 2.25 4.85 1.4q-.55-1.35-.4-2.3-.15-.7.1-.95-.1-.55.15-.95l1.65-.4 1.25-.4 3.1.1q2-.1 4.4.85.15-.15.6.2l2.55 1 2.45 1.2.25.3 2 2.3.4.55.35 1.45.25.55v.55l.15.55.1 1.35-.15 1.5q-.15.2-.15.75l-.1-.1-.25 1.3-1.4 1.65q-1.5 1-3.2 1.5l-1.95.3-1.55-.2-.45-.2-.25-.05h-.05q-.65-.35-1.3-.55l-1.6-1.45-.75-.8q-2.95-3.1-4.45-5.7-1.05-1.75-1.35-3l-.25-.4-.15-.5m20.6-16.7-2.6.05m-22.85 15.25-.25.55-2.15 2.6q-2.65 2.7-7.6 5.5l-2.7.95-1.95.05-.2-.05q-.2-.15-.2 0l-2.8-1.35-2.4-2q-2.35-2.3-3.05-5.4l-.25-.8.05-.45-.05-.35q-.25-1.25.15-2.3 0-.85.4-1.5l-.1-.05q1.05-2.8 3.05-4.7l.4-.65.45-.2m44.9-21.85q3.65 4.95 3.2 10.75l-.8 1.55q-.4 0-.55.35l1.5 2.9-.95.55.45.4m13 12.4.4.45.4 1.3.4 1.75.15 2.1-.05 1.2-.1 1.45-.55 1.25q-.25 0-.15.25-.7.25-1.05.55l-.2.1-.75.2-1.65.25q-1.75 0-11.05-2.2m-2.2-1.5-1.45.3m8.45-15.55.7-1.2m-7.7 16.45q1.6-.65 2.8-1.7l1.35-1.9q.75-1.75 1.1-3.8-.1-.55.05-.85l1.7-7m-8.1-7q1.8-.4 3.5-1.15m.55 3.45-.95.6h-1.7m-1.4-2.9-3.2.25-4.35-.85"/><path stroke-width=".05" stroke-opacity=".302" stroke-linejoin="round" stroke-linecap="round" stroke="#000" fill="none" d="M203.25 187.15q2.45 1.05 3.75 2.5l.55.6.1.15.05 1.55 3.6 1.55 4.95 6.05m-14.2 8.65-2.2-1.5m7-15.25.85.5"/><path fill-rule="evenodd" fill="url(#c)" d="M344.95 56.95q9.35-2.75 10.65-11.15-1.2-5.35-9.55-14.35-3.6-8.7-3.65-14.5l-.2.35q-1.65 4.7-.65 15.75l-3 2.2q4.65-.45 4.6 1.1 5.05 15.5 1.8 20.6" transform="translate(-.05 2.15)"/><path fill-rule="evenodd" fill="#ffc" d="M342.2 17.3q-7.6 14.95-10.7 32.25 5.95 8.15 12 7.8l1.45-.4q3.25-5.1-1.8-20.6.05-1.55-4.6-1.1l3-2.2q-1-11.05.65-15.75" transform="translate(-.05 2.15)"/><path stroke-width=".05" stroke-opacity=".302" stroke-linejoin="round" stroke-linecap="round" stroke="#000" fill="none" d="M344.9 59.1q9.35-2.75 10.65-11.15-1.2-5.35-9.55-14.35-3.6-8.7-3.65-14.5l-.2.35q-7.6 14.95-10.7 32.25 5.95 8.15 12 7.8l1.45-.4z"/><path fill-rule="evenodd" fill="#adad27" d="m409.65 56.9.3-.25.25.35-.55-.1" transform="translate(-.05 2.15)"/><path fill-rule="evenodd" fill="#ecec7b" d="M442.35 109.75q1.9 2.5 3.15 5.15 1.3 2.55 1.9 5.15l-1.55 1.35q-1.35-7.6-6.35-15l2.85 3.35M350 38.5l3.8-3.35 43 .95 10.95 16.1-4.85-.55 4.85.55 2.8.35 3.25 5.2q-1.75-.55-3.6-.75l-.25-.35-1.65-2.45-7.35-2.8 1.95.25-5.85-10.8L350 38.5" transform="translate(-.05 2.15)"/><path fill-rule="evenodd" fill="#e7e374" d="M408.05 78.65q-.2 4.6.4 9.35 1.3 9.2 4.95 18.8.2.8 1.55 2.2l-4.6.1-8.15-4.35-2.7-1.5-.25-.1q-1.65-3.55-3.25-9.6-1.95-7.05-2.7-12.05-.6-4.55.65-12.6 1.35-9.4 4.2-10.9 1.45-1.2 5.45-1.35l4.55.1.7.05.8.1q-3.65 6.1-3.4 8.8.8 7.6 1.8 12.95" transform="translate(-.05 2.15)"/><path fill-rule="evenodd" fill="#ffc" d="m413.8 57.75 1 .4q-1 1.15-1.9 2.7-1.5 2.4-2.6 5.9-1.9 5.75-2.25 11.9-1-5.35-1.8-12.95-.25-2.7 3.4-8.8l.55.1q1.85.2 3.6.75" transform="translate(-.05 2.15)"/><path fill-rule="evenodd" fill="#717d1a" d="M414.95 109q7.1-.45 18.65-2.85 5.25-6.1 7.05-10.95l2.25-3.55 1.25-1.9.9 2.6q-1.2 4.75-4.45 9.75-3.75 5.65-6.25 6.45l-18.85 6.25q-3.95 1.2-14.1-1.8 7.4 6.4 10.45 11.5 3.1 5 5.8 5.2l7.25.2 5.85-.4q10.8-.55 15.5-3.05 3.6-1.9 6.7-6 1.3 5.45-2.6 7.85l-29.25 13.4-9.3.5-1.85-1.55-37.35-33.95 1.9-3.1 6.65-1.5 2.55-.45q2.05-.95 3.5-2.8l1.25-1.55.25-.35-.25-.3q-2.9-3.4-3.7-9.6l-.25-1.85q-.45-3.8-.3-6.1.25-2.7 1.65-7.2 3.55-11.25 4.85-13.5 1.9-3.4 6-3.55 2.55-.15 11.45 1.9l-4.55-.1q-4 .15-5.45 1.35-2.85 1.5-4.2 10.9-1.25 8.05-.65 12.6.75 5 2.7 12.05 1.6 6.05 3.25 9.6l.25.1 2.7 1.5 8.15 4.35 4.6-.1m-15.7-5.85-3.3-1.75 3.3 1.75m35.4 10.65q.25-2.15.7-3.3l1.3 1q1.8 1.8 3.05 6l-3.15.4-2.4-.15.5-3.95" transform="translate(-.05 2.15)"/><path fill-rule="evenodd" fill="#544868" d="m441.85 86.95.35.8.6 2.8.1 1.1-2.25 3.55q-1.8 4.85-7.05 10.95-11.55 2.4-18.65 2.85-1.35-1.4-1.55-2.2-3.65-9.6-4.95-18.8-.6-4.75-.4-9.35 1.15 6 2.55 8.85 5.9 8.35 9.9 8.6 7.1 1.75 11.2-.55l10.15-8.6" transform="translate(-.05 2.15)"/><path fill-rule="evenodd" fill="#78781b" d="m442.9 91.65-.1-1.1-.6-2.8 1.95 2-1.25 1.9" transform="translate(-.05 2.15)"/><path fill-rule="evenodd" fill="url(#d)" d="m441.85 86.95-10.15 8.6q-4.1 2.3-11.2.55-4-.25-9.9-8.6-1.4-2.85-2.55-8.85.35-6.15 2.25-11.9 1.1-3.5 2.6-5.9.9-1.55 1.9-2.7 5.5 1.85 9.85 6.2l1.75 1.75q12.3 12.45 15.45 20.85" transform="translate(-.05 2.15)"/><path fill-rule="evenodd" fill="url(#e)" d="m445.05 92.35 1.2 4.05-3.9 13.35-2.85-3.35q5 7.4 6.35 15l1.55-1.35q-.6-2.6-1.9-5.15l5.95 1.5q1.05 2.15 1.5 4.05-3.1 4.1-6.7 6-4.7 2.5-15.5 3.05l-5.85.4-7.25-.2q-2.7-.2-5.8-5.2-3.05-5.1-10.45-11.5 10.15 3 14.1 1.8l18.85-6.25q2.5-.8 6.25-6.45 3.25-5 4.45-9.75m-10.4 21.45-.5 3.95 2.4.15 3.15-.4q-1.25-4.2-3.05-6l-1.3-1q-.45 1.15-.7 3.3" transform="translate(-.05 2.15)"/><path fill-rule="evenodd" fill="url(#f)" d="m350 38.5 47.05 2.35 5.85 10.8-1.95-.25 7.35 2.8 1.65 2.45-.3.25-.8-.1-.7-.05q-8.9-2.05-11.45-1.9-4.1.15-6 3.55-1.3 2.25-4.85 13.5-1.4 4.5-1.65 7.2-.15 2.3.3 6.1l.25 1.85q.8 6.2 3.7 9.6l.25.3-.25.35-1.25 1.55q-1.45 1.85-3.5 2.8l-2.55.45-6.65 1.5-1.9 3.1-40.35-36.65-.2-15.85L350 38.5" transform="translate(-.05 2.15)"/><path stroke-width=".05" stroke-opacity=".302" stroke-linejoin="round" stroke-linecap="round" stroke="#000" fill="none" d="m442.15 89.9-.35-.8m-1.2 8.25 2.25-3.55-.1-1.1-.6-2.8 1.95 2 .9 2.6 1.2 4.05-3.9 13.35q1.9 2.5 3.15 5.15l5.95 1.5q1.05 2.15 1.5 4.05 1.3 5.45-2.6 7.85l-29.25 13.4-9.3.5-1.85-1.55-41.85-33.55m39.65-54.9-10.95-16.1-43-.95-3.8 3.35L332 56.35l.2 15.85 40.35 36.65 37.35 33.95m-7.05-89 4.85.55 2.8.35 3.25 5.2 1 .4q5.5 1.85 9.85 6.2l1.75 1.75q12.3 12.45 15.45 20.85m-33-30.15.8.1m-8.7-5.5 1.95.25m5.25 5.1-4.55-.1q-4 .15-5.45 1.35-2.85 1.5-4.2 10.9-1.25 8.05-.65 12.6.75 5 2.7 12.05 1.6 6.05 3.25 9.6m.25.1 2.7 1.5m8-47.75q1.85.2 3.6.75m-3.6-.75-.55-.1m-13.7 44.5 3.3 1.75m40.25 3.25 2.85 3.35m3.15 5.15q1.3 2.55 1.9 5.15m-3.25-30.3-1.25 1.9"/><path stroke-width=".05" stroke-linejoin="round" stroke-linecap="round" stroke="#0f0" fill="none" d="m399.2 105.3.25.1"/><path fill-rule="evenodd" fill="#2f2f20" d="M436.65 88.35q-1.35.05-2.85-1.7-1.45-1.7-2.2-4.2-.8-2.55-.3-4.4.45-1.75 1.8-1.85 1.35-.05 2.8 1.65 1.45 1.75 2.25 4.3.75 2.5.25 4.3-.4 1.8-1.75 1.9" transform="translate(-.05 2.15)"/><path fill-rule="evenodd" fill-opacity=".8" fill="#fff" d="M397.95 88.25q2.2-.1 3.95 1t2 2.8q.25 1.7-1.2 2.9-1.4 1.3-3.6 1.4l-2.4-.25q-1.1-3.35-1.75-6.95 1.2-.8 3-.9" transform="translate(-.05 2.15)"/><path fill-rule="evenodd" fill-opacity=".6" fill="#fff" d="M436.35 76.6q1.6 1.45 1.9 3.5l-3.1-4.25 1.2.75" transform="translate(-.05 2.15)"/><path fill-rule="evenodd" fill="#fff" d="M431.1 83.3q1.85-.65 3.35.3 1.55 1 1.85 2.95.25 1.95-.9 3.75-1.1 1.85-2.95 2.5-1.85.6-3.4-.35-1.45-.95-1.75-2.85-.25-1.95.8-3.8 1.15-1.9 3-2.5" transform="translate(-.05 2.15)"/><path fill-rule="evenodd" fill="#ffc" d="M393.7 17.35q7.55 16.1 9.45 31.45l-.15.1-3.1 1.75q-3.25 1.55-6.2 1.8l-1.85-.1-1.6-.25-1.5-.55q-3.2-4.85 2.8-16.4 0-1.5 4.95.05l.15.05-3.25-2.6.65-4.55q.35-3.35.3-5.9-.15-2.9-.65-4.85" transform="translate(-.05 2.15)"/><path fill-rule="evenodd" fill="url(#g)" d="m379.55 37.5 1.6-1.75Q383 33.9 386 31.9l2.5-1.7q2.25-3.8 3.5-7.15l.55-1.6.45-1.8.45-2.75.25.45q.5 1.95.65 4.85.05 2.55-.3 5.9l-.65 4.55 3.25 2.6-.15-.05q-4.95-1.55-4.95-.05-6 11.55-2.8 16.4-9.4-4.35-10.65-11.15.3-1.4 1.45-2.9" transform="translate(-.05 2.15)"/><path fill-rule="evenodd" fill-opacity=".302" d="m403 48.9.2 1.6.1.8q-5.7 3.35-10.8 3.7l-2.15-.05-1.8-.3-1.7-.5q-10.6-4.3-11.9-11.1.75-2.55 4.6-5.55-1.15 1.5-1.45 2.9 1.25 6.8 10.65 11.15l1.5.55 1.6.25 1.85.1q2.95-.25 6.2-1.8l3.1-1.75" transform="translate(-.05 2.15)"/><path stroke-width=".05" stroke-opacity=".302" stroke-linejoin="round" stroke-linecap="round" stroke="#000" fill="none" d="m379.5 39.65 1.6-1.75q1.85-1.85 4.85-3.85l2.5-1.7q2.25-3.8 3.5-7.15l.55-1.6.45-1.8.45-2.75.25.45q7.55 16.1 9.45 31.45l-.15.1m-23.45-11.4q-1.15 1.5-1.45 2.9 1.25 6.8 10.65 11.15l1.5.55 1.6.25 1.85.1q2.95-.25 6.2-1.8l3.1-1.75"/><path fill-rule="evenodd" fill="#adad27" d="m231.85 147.1-.2-.25h.4l-.2.25m149.3 14.85h.25l-.25.3v-.3M316.5 185l-1.65 1.05-.65.25 2.3-1.3m-32.65-96.7v-.25l.15.25h-.15m-31.25 29.5-.5-.3h.4l.1.3m14.75 58.8 1.25.15h.15l-.15.1-1.25-.25m1.25.15h.15-.15m-12.2-4.05.05-.05v.3l-.05-.25" transform="translate(-.05 2.15)"/><path fill-rule="evenodd" fill="#717d1a" d="m410.15 145.45-2.65 7.7-.55.3.15-4.75q0-17.25-6.15-26.85 3.15 4 5.15 10.5l4.05 13.1m-4.55 8.7-41.4 20.25-.1.05-10.95 5.35-71.8 16.25-5.6.3-10.95-1.8q-11.35-2.15-16.25-2-10.25.3-13.9-4.7-3.5-4.8-4.05-18.15.15 11.05-.45 15.4-.5 2.55-1.45 4.75-12.05-1.05-12.05-3.65 0-1.75 2.2-8.65l-1.1.1q-1.65.3-3.15 1.35l5-7.4 1.25-4.6 3.15-12.05q4.15-3.1 7.4-7.2v-.1l.45-.55.2-.25h-.4q1.25-4.3 1.25-8.7 0-5.4-3.5-20.5 5.8 8.1 8.65 16.5 2.25 6.6 2.05 11.5 1.6 1.6 5.2 3.85l4.25 2.35q-1.65.4-3.25.95l-1.75.7q-7.9 3.35-7.9 8.25 0 5.9 4.35 7.65 2.75 1 11.35 1 1.35 0 6.8-3.85l3.4-2.65 2.15-1.8 2.15-.15.1-2.1v-.45l1.4.4q-.8-4-2.15-7.95-1.95-5.3-7.35-15.85-2.25 2.7-3.35 3.3l-9.35-17.1q-4.7-8.65-8.4-13l-5.25-6.15q4.85 3.1 12 12.55l11.95 16.35q-.15-3.35-1.95-8.65l-1.9-5.5q6.55 4.55 16.8 23.2 8.1 14.65 9.3 24.65 7.3-.05 29.25-3.7 7.3-1.2 14.2-7.25 5-4.35 8.25-9.5l.25-.4q3.95 10.15 5.4 26.15l.15 1.7-.55 2.55v2.1q8.1-3.7 9.65-5.3 2.4-2.3 2.4-8.1l-.25-2.3-2.45 1.5.3-.6q2.3-2.55 2.4-9 2.7 5.95 4.1 16.9l4.15-3.4q2.85-2.35 2.85-5.55l-1.1-5-2.45 1.3q-.5.05-1.05 1.5h-.15q.8-12.7-3.95-22.25 7.5 10.5 11.1 22.25 1.15 3.85 1.95 8 6.7-.8 9.6-2.4l9-5.05v.6l-.6 1.45v.4l.25-.3q4.35.3 12.4-7.8 8.5-8.5 8.5-15.15l-.5-4.3-.1-2.2.25-1.35q2.15 6.1 2.95 13.15l.7 9.85M321.05 57.6q10.4 5.65 20.15 13.75 5.8 4.75 18.3 25.15-.6-.55-2.35-.55-1.9 0-1.9 3.65-2.1-11.05-13.1-23.75-9.3-10.7-21.1-18.25m43.15 116.8-1.05-7.15 1.05 7.15m-30.25-64.5q-1.55-2.25-2.5-2.25-.4.8-.25 4 0 2.2-1.6 3-7.2-30.3-34.4-51.35 10.15 5.35 19.8 14.05 10.25 9.2 18.95 32.55m-55.2 57.25-.05-1.5.05 1.5M265.5 75.6q8.5 5.5 18.5 23.35 9.6 17.15 16.4 37.9l.75 2.4-4.55 1-3.65-2.3q-.8-3.4-4.45-13.55-6.95-19.6-10.7-25.8l-.85 1.2q-3.35-12.5-3.65-12.9l-4.45-5q-2.85-3.45-3.35-6.3m53.3 87.35-.85-.45.85.45m33.2 8.6-.2-1.15.2 1.15M316.5 185l-2.3 1.3.65-.25 1.65-1.05m-32.65-96.7v.1q-.35.25-.35.95l-3.25-8q-2.7-5.8-5.8-7.85 7.3 3.4 15.35 18 3.85 7.1 7.85 16.25l-.75.25q-1.5 0-12.9-19.7l-.15-.25v.25m-43.95 59.45.2-2.1-.2 2.1m-18.4 20.55q.05-.6-.65-1.3.7.7.65 1.3m-3.75 9.35q1.9-2.85 2.85-5.35-.95 2.5-2.85 5.35m52.3 2.35q.15-.15.3-.2l2.7-1.75q-.25-1.85-2.3-1.85l-2 .55h-.15l-1.25-.15h-.8l-1.2 1.3q-2.05 2.1-2.05 3.4h3.25q1.75-.35 3.5-1.3m-9.6-4.2 2.9-3-5.75.15-.1-.45q-.4.3-.95.45h-.1v-.3l-.05.05h-.1l-1.9 1.6q-2 1.75-1.9 3 0 1.75 2 1.75 2.75 0 5.45-2.75l.5-.5" transform="translate(-.05 2.15)"/><path fill-rule="evenodd" fill="#ffc" d="M249.55 151.85q4.55-1.2 9.3-1.2 7.85-.05 8.1 8.75v.45l-.1 2.1-2.15.15-2.15 1.8-6.4-1.4q-5.1-1.05-6.05-2.15l-2.05-5.65-1.75-1.9q1.6-.55 3.25-.95m134-46.3-1.25.05q-2.15 0-4.8-3-3-3.6-3-8.2l.1-1.1h1.1q3 .15 5.65 5.55 1.9 3.75 2.2 6.7m-25.95 4 1.1-.05h.25l2.4.15q4.85.95 10.15 7 5.8 6.65 5.95 10.95h-4.15q-5 0-11.15-5.4-5.75-5.1-5.75-7.85.4-2.5 1.2-4.8m-91.75 51.5-1.15 1.05 1.15-1.05m2.9 15.7 2-.55q2.05 0 2.3 1.85l-2.7 1.75q-.15.05-.3.2-3.05-.2-4.7-2.1l1.2-1.3h.8l1.25.25.15-.1m-12.2-3.8q.55-.15.95-.45l.1.45 5.75-.15-2.9 3q-2.95-.05-3.9-2.85m-.25-.25h.1l.05.25-.15-.25" transform="translate(-.05 2.15)"/><path fill-rule="evenodd" fill="#e7e374" d="m374.6 93.3-.1 1.1q0 4.6 3 8.2 2.65 3 4.8 3l1.25-.05.1 1.1q-.1.85-3.65 1.8l-4.45.75q-2-.1-4.55-6.05l-2.2-6.05q0-.95 1.6-2.75l.45-.5.55-.15 3.2-.4m2.85 34.3v.2q0 4-4.3 7.8-3.8 3.1-6.25 3.15-2.15 0-6.1-2.9-5.35-4.05-7.45-5-4.8-2.25-5.75-4.55-.4-.85-.4-4.85 0-5.85 4.7-9.4 2.8-2.25 5.7-2.5-.8 2.3-1.2 4.8 0 2.75 5.75 7.85 6.15 5.4 11.15 5.4h4.15M246.3 152.8l1.75 1.9 2.05 5.65q.95 1.1 6.05 2.15l6.4 1.4-3.4 2.65q-5.45 3.85-6.8 3.85-8.6 0-11.35-1-4.35-1.75-4.35-7.65 0-4.9 7.9-8.25l1.75-.7m23.75 27.2q-1.75.95-3.5 1.3h-3.25q0-1.3 2.05-3.4 1.65 1.9 4.7 2.1m-9.6-4.2-.5.5q-2.7 2.75-5.45 2.75-2 0-2-1.75-.1-1.25 1.9-3l1.9-1.6.15.25h.1q.95 2.8 3.9 2.85" transform="translate(-.05 2.15)"/><path fill-rule="evenodd" fill="url(#h)" d="M381.4 161.95h-.25v-.1l.25.1" transform="translate(-.05 2.15)"/><path fill-rule="evenodd" fill="#545e13" d="m275.75 196.35-33.25 1.85-17.15-3.5-10.95-2.3-22.65-12.95-19.85-20.85-5.1-10.85.5-2.1q3.15 5.65 8 10.35 6.5 6.15 11.75 7.2l1.65.25 5.4.3q18.35 0 29.9-8.8L220.85 167l-1.25 4.6-5 7.4q1.5-1.05 3.15-1.35l1.1-.1q-2.2 6.9-2.2 8.65 0 2.6 12.05 3.65.95-2.2 1.45-4.75.6-4.35.45-15.4.55 13.35 4.05 18.15 3.65 5 13.9 4.7 4.9-.15 16.25 2l10.95 1.8m-50.4-1.65q2.1-2.15 3.35-4.85-1.25 2.7-3.35 4.85m-16-8.1q3.3-1.75 7.45-7.55l.95-1.4-.95 1.4q-4.15 5.8-7.45 7.55" transform="translate(-.05 2.15)"/><path fill-rule="evenodd" fill="url(#i)" d="m167.3 145.65 2.75-13.7 27.1-40.45 34.55-34.2 38.55-22.7h27.3l31.75 8.95 22.05 12.3 20.2 13.65L382.7 80l6.1 8.95q13.25 16.75 21.95 35.75l1.85 13.65-2.45 7.1-4.05-13.1q-2-6.5-5.15-10.5l-1.2-1.35-1.7-1.55 1.7 1.55 1.2 1.35q6.15 9.6 6.15 26.85l-.15 4.75q-.7.3-1.35.7l-.7-9.85q-.8-7.05-2.95-13.15l-.25 1.35.1 2.2.5 4.3q0 6.65-8.5 15.15-8.05 8.1-12.4 7.8l-.25-.1.6-1.45v-.6l-9 5.05q-2.9 1.6-9.6 2.4-.8-4.15-1.95-8-3.6-11.75-11.1-22.25 4.75 9.55 3.95 22.25h.15q.55-1.45 1.05-1.5l2.45-1.3 1.1 5q0 3.2-2.85 5.55l-4.15 3.4q-1.4-10.95-4.1-16.9-.1 6.45-2.4 9l-.3.6 2.45-1.5.25 2.3q0 5.8-2.4 8.1-1.55 1.6-9.65 5.3v-2.1l.55-2.55-.15-1.7q-1.45-16-5.4-26.15l-.9-2.05.9 2.05-.25.4q-3.25 5.15-8.25 9.5-6.9 6.05-14.2 7.25-21.95 3.65-29.25 3.7-1.2-10-9.3-24.65-10.25-18.65-16.8-23.2l1.9 5.5q1.8 5.3 1.95 8.65L244.5 115.6q-7.15-9.45-12-12.55l5.25 6.15q3.7 4.35 8.4 13l9.35 17.1q1.1-.6 3.35-3.3 5.4 10.55 7.35 15.85 1.35 3.95 2.15 7.95l-1.4-.4q-.25-8.8-8.1-8.75-4.75 0-9.3 1.2l-4.25-2.35q-3.6-2.25-5.2-3.85.2-4.9-2.05-11.5-2.85-8.4-8.65-16.5 3.5 15.1 3.5 20.5 0 4.4-1.25 8.7l.2.25-.45.55v.1q-3.25 4.1-7.4 7.2-11.55 8.8-29.9 8.8l-5.4-.3-1.65-.25q-5.25-1.05-11.75-7.2-4.85-4.7-8-10.35m64.35-43.7.85 1.1-.85-1.1M359.5 96.5Q347 76.1 341.2 71.35q-9.75-8.1-20.15-13.75 11.8 7.55 21.1 18.25 11 12.7 13.1 23.75 0-3.65 1.9-3.65 1.75 0 2.35.55l.1.15q.45.8 1.35 1.2-.9-.4-1.35-1.2l-.1-.15m-42.45-40.95-1.5-.8 1.5.8m66.5 50q-.3-2.95-2.2-6.7-2.65-5.4-5.65-5.55h-1.1l-3.2.4-.55.15-.45.5q-1.6 1.8-1.6 2.75l2.2 6.05q2.55 5.95 4.55 6.05l4.45-.75q3.55-.95 3.65-1.8l-.1-1.1m-25.95 4q-2.9.25-5.7 2.5-4.7 3.55-4.7 9.4 0 4 .4 4.85.95 2.3 5.75 4.55 2.1.95 7.45 5 3.95 2.9 6.1 2.9 2.45-.05 6.25-3.15 4.3-3.8 4.3-7.8v-.2q-.15-4.3-5.95-10.95-5.3-6.05-10.15-7l-2.4-.15h-.25l-1.1.05M295.2 63.3q27.2 21.05 34.4 51.35 1.6-.8 1.6-3-.15-3.2.25-4 .95 0 2.5 2.25-8.7-23.35-18.95-32.55-9.65-8.7-19.8-14.05m52.1 89.5.4.7-.4-.7m-46.15-13.55-.75-2.4q-6.8-20.75-16.4-37.9-10-17.85-18.5-23.35.5 2.85 3.35 6.3l4.45 5q.3.4 3.65 12.9l.85-1.2q3.75 6.2 10.7 25.8 3.65 10.15 4.45 13.55l3.65 2.3 4.55-1M350.1 137l-1.35-1.9 1.35 1.9m-84.6-61.4-1.1-.7 1.1.7m8.95-2.1q3.1 2.05 5.8 7.85l3.25 8q0-.7.35-.95v-.1h.15q11.4 19.7 12.9 19.7l.75-.25q-4-9.15-7.85-16.25-8.05-14.6-15.35-18m23.8 35.7-.6-1.45.6 1.45m-45.65 8.6-.1-.3h-.4l.5.3" transform="translate(-.05 2.15)"/><path stroke-width=".05" stroke-opacity=".302" stroke-linejoin="round" stroke-linecap="round" stroke="#000" fill="none" d="m167.25 147.8 2.75-13.7 27.1-40.45 34.55-34.2 38.55-22.7h27.3l31.75 8.95L351.3 58m59.4 68.85 1.85 13.65-2.45 7.1-2.65 7.7-.55.3q-.7.3-1.35.7l-41.4 20.25-.1.05-10.95 5.35-71.8 16.25-5.6.3-33.25 1.85-17.15-3.5-10.95-2.3-22.65-12.95-19.85-20.85-5.1-10.85.5-2.1m62.1-28q5.8 8.1 8.65 16.5 2.25 6.6 2.05 11.5l-.2 2.1m9.65 4.1q4.55-1.2 9.3-1.2 7.85-.05 8.1 8.75v.45l-.1 2.1-2.15.15 1.15-1.05m-33.35-58-.85-1.1m127.85-5.45q-12.5-20.4-18.3-25.15-9.75-8.1-20.15-13.75m38.45 38.9.1.15q.45.8 1.35 1.2m-45.4-43.1 1.5.8m81 63.4 1.7 1.55 1.2 1.35q3.15 4 5.15 10.5l4.05 13.1m-26.6-39.9q-.3-2.95-2.2-6.7-2.65-5.4-5.65-5.55h-1.1l-3.2.4-.55.15-.45.5q-1.6 1.8-1.6 2.75l2.2 6.05q2.55 5.95 4.55 6.05l4.45-.75q3.55-.95 3.65-1.8l-.1-1.1m-6.1 22.05v.2q0 4-4.3 7.8-3.8 3.1-6.25 3.15-2.15 0-6.1-2.9-5.35-4.05-7.45-5-4.8-2.25-5.75-4.55-.4-.85-.4-4.85 0-5.85 4.7-9.4 2.8-2.25 5.7-2.5l1.1-.05h.25l2.4.15q4.85.95 10.15 7 5.8 6.65 5.95 10.95m24.5 3.55q2.15 6.1 2.95 13.15l.7 9.85m-42.45 13.1 1.05 7.15m-69-111.1q10.15 5.35 19.8 14.05 10.25 9.2 18.95 32.55m-4.2 32.85.9 2.05q3.95 10.15 5.4 26.15m11.65-17.45-.4-.7m-68.6 12.85.05 1.5m22.4-27.9-.75-2.4q-6.8-20.75-16.4-37.9-10-17.85-18.5-23.35m52.45 86.9.85.45m29.95-27.85 1.35 1.9q7.5 10.5 11.1 22.25 1.15 3.85 1.95 8m-11.35 3.15.2 1.15m-4.3-18.05q2.7 5.95 4.1 16.9m-87.4-95.5 1.1.7m32.15 32.15q-4-9.15-7.85-16.25-8.05-14.6-15.35-18m23.2 34.25.6 1.45m-65.75-6.15q4.85 3.1 12 12.55l11.95 16.35q-.15-3.35-1.95-8.65l-1.9-5.5-.5-.3h.4l.1.3q6.55 4.55 16.8 23.2 8.1 14.65 9.3 24.65m-16.15-1.75 2.15-1.8m-18.4-9.3q1.6-.55 3.25-.95m13 12.05-3.4 2.65q-5.45 3.85-6.8 3.85-8.6 0-11.35-1-4.35-1.75-4.35-7.65 0-4.9 7.9-8.25l1.75-.7m-25.45 14.2q.7.7.65 1.3m9.1 1.4q.15 11.05-.45 15.4-.5 2.55-1.45 4.75-1.25 2.7-3.35 4.85m-7.6-17.05-.95 1.4q-4.15 5.8-7.45 7.55m11.25-14.3q-.95 2.5-2.85 5.35m51-.9 2-.55q2.05 0 2.3 1.85l-2.7 1.75q-.15.05-.3.2-1.75.95-3.5 1.3h-3.25q0-1.3 2.05-3.4l1.2-1.3h.8l1.25.15m.15 0-.15.1-1.25-.25m1.4.15h-.15m-12.05-3.8q.55-.15.95-.45l.1.45 5.75-.15-2.9 3-.5.5q-2.7 2.75-5.45 2.75-2 0-2-1.75-.1-1.25 1.9-3l1.9-1.6h.1l.05-.05v.3h.1"/><path fill-rule="evenodd" fill="#7a6897" d="M266.95 43.25v.15l-.65-.25-.1-.05.2-.5.55.65m-17.15-24.1 2.95.55 3 4.65q-2.8-2.75-5.95-5.2m-48 23.05-.05.1v-.1h.05m18.65 5.95.15-.05-.15.05m-11.2 9 .35.2-.2.1-.15-.3" transform="translate(-.05 2.15)"/><path fill-rule="evenodd" fill="#544868" d="M259.7 21.5q3.85 4.45 6.75 9.7.95 6.25.5 12.05l-.55-.65q-4-8.25-7.95-14.25l1.25.3-3.95-4.3-3-4.65 6.95 1.8m7.25 21.9 7.6 2.65q-10.25.15-18.7 1.9l9.65 2.85-24.1 6.1 34.2-1.45q-5.65 1.2-10.15 2.5l-2.3.7q-8.75 2.55-12.65 5.05l-1.55 1.2q-18.1 8.35-26.3 15.9l13.75-4.4-3.65 2.95h11.5q-13.35 4.2-20.7 7.85-4.3 2.05-6.6 4.05-8.7 7.35-11.9 13.3l10.8-3.6-2.95 3.25 18.4-5.1q-9.75 4.75-16.8 9.45-8.25 5.55-12.7 11.1 5.4-1.85 10.8-3.55-17.95 7.5-23.8 15.05l-10.5 10.8-.35.4-6.05 6.1 2.85-9.7-4.3 3.25.8-6.15q-6.55 1.15-15.6 4.4l-3.6 1.35q3.1-10.6 14.95-25.05l6.7-7.7q-3.15-.8-11.5 1.75l-6.5 2.25q3.25-9.15 22-21.9 2.3-1.6 4.9-3.25l-1.1-1.15-.5-.4q-3.7-3.25-10.2-5.45l4.75-.8q2.6 1.6 7.15 3.5l1.65.7 6.5-3.95 1.75.55-.8-1.1q-7.45-10.35-19.25-18.65 21.65-4.3 36.7-3.8l.15.3.2-.1-.35-.2q-3.1-3.8-6.9-7.15l6.9-.1q2.3 2.85 4.3 6.05l9.85-3.6-.35-.55q-1.15-2.05-2.6-3.65l.15-.05q-3.3-6.1-7.95-11.35 5.1 1.5 7.95 4.1-4.6-8.45-11.9-15.35 8.2 2.3 18 14.65l6.45 8.65 13.4-5-5.65-2.3q-2.45-1.1-8.4-5.25l.15-.3q7.4-2.05 25.1 4.2l8.45 2.95.1.05.65.25m-41.75 8.25q-1.8-5.7-4.6-10.8 2.8 5.1 4.6 10.8m-10.45 6.45-1.2-2.15 1.2 2.15M195.7 85.45l-3.1-4.75 3.1 4.75m-10.15 7.45q-.8-2.85-2.95-5.2 2.15 2.35 2.95 5.2m-6.85 42.2-7.45.75 7.45-.75" transform="translate(-.05 2.15)"/><path fill-rule="evenodd" fill="#8b45ba" d="M307.45 22.7q2.95 1.45 5.75 3l2.85 7.15-2.85-7.15q-2.3-5.05-5.65-10.05l9.9 6.65q16.75 17.2 29.45 34.45-11.2-7-20.7-9.3l2.75 3.4q-13.2-7.05-22.35-7.2l3.95 4.35-9-3 2.2 2.95q-16.05-2.25-29.2-1.9l-7.6-2.65v-.15q.45-5.8-.5-12.05-2.9-5.25-6.75-9.7-3.3-4.05-7.35-7.5l7.45.75q31.5 6.05 53.4 18.1-2.4-5.05-5.75-10.15m-8.8 21.35 2.9.95-2.9-.95M208.7 25.5l-.85-.9-1.05-.85q31.4-.95 51.65 4.6 3.95 6 7.95 14.25l-.2.5-8.45-2.95q-17.7-6.25-25.1-4.2l-.15.3q5.95 4.15 8.4 5.25l5.65 2.3-13.4 5-6.45-8.65q-9.8-12.35-18-14.65m-6.9 16.7q6.25.4 10.85 1.75 3.5 1.05 5.95 2.65l2 1.5-.15.05q1.45 1.6 2.6 3.65l.35.55-9.85 3.6q-2-3.2-4.3-6.05-3.3-4.1-7.5-7.6l.05-.1m-26.25 37.7 10.05-.45 5.25.7-6.5 3.95-1.65-.7q-4.55-1.9-7.15-3.5" transform="translate(-.05 2.15)"/><path fill-rule="evenodd" fill="url(#j)" d="M307.45 22.7q3.35 5.1 5.75 10.15-21.9-12.05-53.4-18.1l-7.45-.75q-5.65-4.8-12.4-8.6l19.85 2.15q27.45 5.3 47.65 15.15" transform="translate(-.05 2.15)"/><path fill-rule="evenodd" fill="url(#k)" d="m220.6 48.1-2-1.5q-2.45-1.6-5.95-2.65-4.6-1.35-10.85-1.75h-.05q-5.75-4.8-12.95-8.65l13 1.45q6.25.4 10.85 1.75Q217.3 42 220.6 48.1" transform="translate(-.05 2.15)"/><path fill-rule="evenodd" fill="url(#l)" d="m172.55 60.95-8.6-5.4q22.3-5 38.4-5.55 3.8 3.35 6.9 7.15-15.05-.5-36.7 3.8" transform="translate(-.05 2.15)"/><path fill-rule="evenodd" fill="url(#m)" d="M206.8 23.75q-4.1-3.65-8.95-6.85 30.85-1.75 51.95 2.25 3.15 2.45 5.95 5.2l3.95 4.3-1.25-.3q-20.25-5.55-51.65-4.6" transform="translate(-.05 2.15)"/><path fill-rule="evenodd" fill="url(#n)" d="M346.9 56.75Q334.2 39.5 317.45 22.3l-9.9-6.65Q302.5 7.8 295.1 0l22.35 15.15q19.05 19.6 32.85 39.2l3.2 6.9-6.6-4.5" transform="translate(-.05 2.15)"/><path stroke-width=".05" stroke-opacity=".302" stroke-linejoin="round" stroke-linecap="round" stroke="#000" fill="none" d="M313.15 27.85q-2.8-1.55-5.75-3Q287.2 15 259.75 9.7L239.9 7.55q6.75 3.8 12.4 8.6 4.05 3.45 7.35 7.5 3.85 4.45 6.75 9.7m8.1 14.85q13.15-.35 29.2 1.9l-2.2-2.95m11.65-19.3L316 35m-8.5-17.2q3.35 5 5.65 10.05m33.7 31.05 6.6 4.5-3.2-6.9q-13.8-19.6-32.85-39.2L295.05 2.15q7.4 7.8 12.45 15.65m39.35 41.1q-11.2-7-20.7-9.3M207.8 26.75l-1.05-.85q-4.1-3.65-8.95-6.85 30.85-1.75 51.95 2.25l2.95.55 6.95 1.8m-57.95 20.8q4.2 3.5 7.5 7.6 2.3 2.85 4.3 6.05l1.2 2.15m-2.1-21.35q-4.6-1.35-10.85-1.75l-13-1.45q7.2 3.85 12.95 8.65m6.95-16.7q7.3 6.9 11.9 15.35 2.8 5.1 4.6 10.8M212.6 38.9q5.1 1.5 7.95 4.1m-18.85 1.45v-.1m-26.2 37.7 10.05-.45 5.25.7 1.75.55-.8-1.1Q184.3 71.4 172.5 63.1l-8.6-5.4q22.3-5 38.4-5.55l6.9-.1m-31.3 92.45-6.05 6.1 2.85-9.7-4.3 3.25.8-6.15q-6.55 1.15-15.6 4.4l-3.6 1.35q3.1-10.6 14.95-25.05l6.7-7.7q-3.15-.8-11.5 1.75l-6.5 2.25q3.25-9.15 22-21.9 2.3-1.6 4.9-3.25l-1.1-1.15-.5-.4q-3.7-3.25-10.2-5.45l4.75-.8m17.05.8 3.1 4.75m78.85-39.4q-10.25.15-18.7 1.9l9.65 2.85-24.1 6.1 34.2-1.45q-5.65 1.2-10.15 2.5l-2.3.7q-8.75 2.55-12.65 5.05l-1.55 1.2q-18.1 8.35-26.3 15.9l13.75-4.4-3.65 2.95h11.5q-13.35 4.2-20.7 7.85-4.3 2.05-6.6 4.05-8.7 7.35-11.9 13.3l10.8-3.6-2.95 3.25 18.4-5.1q-9.75 4.75-16.8 9.45-8.25 5.55-12.7 11.1 5.4-1.85 10.8-3.55-17.95 7.5-23.8 15.05l-10.5 10.8m-7.05-6.1 7.45-.75m3.9-47.4q2.15 2.35 2.95 5.2"/><path stroke-width=".05" stroke-opacity=".302" stroke-linejoin="round" stroke-linecap="round" stroke="#000" fill="none" d="m301.5 47.15-2.9-.95m27.55 3.4 2.75 3.4q-13.2-7.05-22.35-7.2l3.95 4.35-9-3"/><path fill-rule="evenodd" fill="#adad27" d="M117.3 47q3.1-4 4.05-8.5l5.1 2.7 2.75 4.2 16.45 46q-2.55 1.2-3.75 1.3h-.4q-.95-11.05-7.05-23.5-6.65-13.4-15.15-20.55l-2-1.65m-44.8 2.85q2.4 2.6 3.9 5.05v.1q-1.15.8-2.25 1.65L60.45 94.4h-13.4l-1.9.6q1.25-7.65 4.25-19.2Q56 50.4 63 50.45q1.7-.05 10.3 3.25l-.8-3.85m39.25 2.2h.1-.1m-31.8 12.2 3.55 4.45 4.25 5.8q-6.3 1.75-6.45 3.1-.4 3.1.7 15.65.15 2.75-.7 5.35 0 8.45.3 13.1-4.35 2.3-7.7 6.45l-.75.95-5.5-23.15L68.95 85l11-20.75m28.1 10.8q1.4-3.85.8-7.6l18.25 21.1 1.65 7-4.35.15q-1.7-5.55-11.75-15.1l-4.6-5.55M72 148.7l1.3 4.05 6.5 7.35 30.15 10.3q-.9 4.85-1.7 15.55l-.35 4.95-3.65-.65q-2.8 0-15.8-5.05-11.35-4.55-16.1-7-4.95-2.45-9.3-6.45-2.6-1.4-4.6-4.8l-1.8-2.25.3-.45 3.15-4q3.85-4.5 8.45-8.65l3.45-2.9m75.45-12-2.35 11.8-29.85 12.65-14.65-5.65q-.6-3.35-.5-8.65-.1-2.6.55-5.45 4.3 3.4 6.6 3.7h.05q32.15-4.9 32.65-13.8l7.1 5.4h.4m-29.2-25.05 2.55 3 2.4 2.55-5.5 3.65-11.5-3.5-8.8-12.3 3.25-2.8h.9q.55 3.1 1.55 4.25 4.7 5.45 11.45 10.3 1.4-1.1 3.7-5.15m-21.1-17.3v-1.2l2.8-2.85.7.45q0 2.65.15 4.85-2.1-.8-3.65-1.25" transform="translate(-.05 2.15)"/><path fill-rule="evenodd" fill="#e7e374" d="m72.5 49.85-1.35-6.35q-.1-3.75 11.65-6.3v-.05h.25l16.65 2.2q10.1 2 17.6 7.65l-.3.4q-2.3 2.6-5.15 4.65H80.45l-3.65 2.7-.35.25h-.05v-.1q-1.5-2.45-3.9-5.05m69 42.85h.4q1.2-.1 3.75-1.3l5.95 16.8v8.1l-4.15 20.4h-.4l-7.1-5.4-.1-1.25q1.75-19.2 1.75-33.8l-.1-3.55M87.75 74.5l-4.25-5.8-3.55-4.45.15-.2h25.8l2.95 3.4q.6 3.75-.8 7.6l-.35-.3q-2.45-2.55-6.8-2.55-3.8-.05-11.35 1.85l-1.8.45m-14.6 44.6.75-.95q3.35-4.15 7.7-6.45.1 2.45.35 4 1.1 9.2 5.45 13.15l8.8 8.75 4.45 3.8q-.65 2.85-.55 5.45-.1 5.3.5 8.65l-19-7.35-2.75-5.25-5.7-23.8m51.25-23.4 4.35-.15.45 2.2-1.5 16.4-4.5 3.05-2.4-2.55-2.55-3q2.65-4.85 6.55-13.9 0-.95-.4-2.05m-63.95-1.3-1.2 3.35v10.45L72 148.7l-3.45 2.9q-4.6 4.15-8.45 8.65l-3.15 4q-4.15-8.25-7.8-23.4Q44 119 44 104.65q0-3.55 1.15-9.65l1.9-.6h13.4m49.5 76 14.6 5.1 10.85-2.05 16.2-9q7.15 10.5 17.5 13.45l4 .85q-3.6 4.3-11.6 7.95-14.65 6.55-34.35 6.55-6.25 0-14.75-1.5l-4.5-.85.35-4.95q.8-10.7 1.7-15.55M97.4 105.05l-.25-.3v-10.4q1.55.45 3.65 1.25.25 4.05.75 6.65h-.9l-3.25 2.8M56.65 164.7l-.1-.15.4-.3-.3.45" transform="translate(-.05 2.15)"/><path fill-rule="evenodd" fill="#717d1a" d="m62.25 41.25 5.55 4.2q2.65 2.25 4.7 4.4l.8 3.85q-8.6-3.3-10.3-3.25-7-.05-13.6 25.35-3 11.55-4.25 19.2l-9.3 2.6-1.45.45L51.8 49.7l10.45-8.45m49.6 10.8Q114.7 50 117 47.4l.3-.4 2 1.65q8.5 7.15 15.15 20.55 6.1 12.45 7.05 23.5-3.1-.2-6.15-1.45l-23.5-39.2M81.6 111.7q-.3-4.65-.3-13.1.85-2.6.7-5.35-1.1-12.55-.7-15.65.15-1.35 6.45-3.1 3 4.45 5.15 8.25l-4.45.9v3.85l4.65 21.45H91q-5.2.45-9.4 2.75m24.3 17.3 13.1 7.3h5.55l10.85-6.65.15-1.9 4.4 3.55q-.5 8.9-32.65 13.8h-.05q-2.3-.3-6.6-3.7.65-3.25 2.15-6.75 1.45-3.5 3.1-5.65m-.95-48.55.05.1q2-2.8 3.05-5.5l4.6 5.55q10.05 9.55 11.75 15.1h-1.15q-3.95 0-6.4-1.05v-2.6l-11.9-11.6m9.6 25.55q1 2.2 3.7 5.65-2.3 4.05-3.7 5.15-6.75-4.85-11.45-10.3-1-1.15-1.55-4.25h5.4l.75 4.25 5 1.7 1.85-2.2m-13.9-15.25 5.8 3.85v2.9l-4.7-1.55-.95-.35q-.15-2.2-.15-4.85M52.2 172.1q1.55-3.6 4.45-7.4l1.8 2.25q2 3.4 4.6 4.8 4.35 4 9.3 6.45 4.75 2.45 16.1 7 13 5.05 15.8 5.05l3.65.65q-.35 3.95-.4 7.15L55.2 180.1l-3-8m140.3 9.2-19.4-2.55q2.85-3.4 2.9-7.15-.05-3.7-4.8-9.1 4.65.55 12.3-2.25 2.5 1.85 6.7-1 6.45-4.6 10.4-15.8l4.95 1.05 13.95 13.6-11.65 11.85-15.35 11.35" transform="translate(-.05 2.15)"/><path fill-rule="evenodd" fill="#d2c059" d="M117.3 47q-7.5-5.65-17.6-7.65l-16.65-2.2h-.25v.05q-11.75 2.55-11.65 6.3l1.35 6.35q-2.05-2.15-4.7-4.4l-5.55-4.2 23.8-18.95h5.35l29.95 16.2q-.95 4.5-4.05 8.5M87.75 74.5l1.8-.45q7.55-1.9 11.35-1.85 4.35 0 6.8 2.55l.35.3q-1.05 2.7-3.05 5.5l-.05-.1-12.05 2.3q-2.15-3.8-5.15-8.25m5.35 34.45 2.55 11.55 2.45 4.2 7.8 4.3q-1.65 2.15-3.1 5.65-1.5 3.5-2.15 6.75l-4.45-3.8-8.8-8.75q-4.35-3.95-5.45-13.15-.25-1.55-.35-4 4.2-2.3 9.4-2.75h2.1m42.45 18.8 1.75-27.2-1.25-8.1-.7-1.2q3.05 1.25 6.15 1.45l.1 3.55q0 14.6-1.75 33.8l.1 1.25-4.4-3.55M124.4 95.7q.4 1.1.4 2.05-3.9 9.05-6.55 13.9-2.7-3.45-3.7-5.65l1-1.25 1.3-4.2v-5.9q2.45 1.05 6.4 1.05h1.15m-17.95 1.8v2.7l.5 2.05h-5.4q-.5-2.6-.75-6.65l.95.35 4.7 1.55M45.15 95Q44 101.1 44 104.65q0 14.35 5.15 36.2 3.65 15.15 7.8 23.4l-.4.3.1.15q-2.9 3.8-4.45 7.4l-13.75-35.8-5.3-34.75 1.25-3.5 1.45-.45 9.3-2.6m62.75 95.9 4.5.85q8.5 1.5 14.75 1.5 19.7 0 34.35-6.55 8-3.65 11.6-7.95l19.4 2.55-1.15.85q-27.85 17.25-52.85 20.3h-18l-13-4.4q.05-3.2.4-7.15" transform="translate(-.05 2.15)"/><path fill-rule="evenodd" fill="url(#o)" d="m151.6 164.45 13.1-7.2 5.7-7.55q5.95 7.7 8.3 9.15 2.4 1.35 4.8 1.4-7.65 2.8-12.3 2.25 4.75 5.4 4.8 9.1-.05 3.75-2.9 7.15l-4-.85q-10.35-2.95-17.5-13.45" transform="translate(-.05 2.15)"/><path stroke-width=".05" stroke-linejoin="round" stroke-linecap="round" stroke="#000" fill="none" d="m180.9 141.7.95-.7"/><path stroke-width=".05" stroke-opacity=".302" stroke-linejoin="round" stroke-linecap="round" stroke="#000" fill="none" d="m121.3 40.65-29.95-16.2H86L62.2 43.4m14.15 13.75h.05m.35-.25 3.65-2.7h31.3m33.9 39.35-16.45-46-2.75-4.2-5.1-2.7M34.35 100.2l17.4-48.35L62.2 43.4m17.7 23-11 20.75-1.3 10.95 5.5 23.15m35.7-51.65-2.95-3.4h-25.8l-.15.2m12.95 18.5-4.45.9v3.85l4.65 21.45 2.55 11.55 2.45 4.2 7.8 4.3 13.1 7.3h5.55l10.85-6.65.15-1.9 1.75-27.2-1.25-8.1-.7-1.2-23.5-39.2h-.1m17 43.5-1.65-7-18.25-21.1m-3.9 13-12.05 2.3m-16.5-27.75q-1.15.8-2.25 1.65L60.4 96.55l-1.2 3.35v10.45l12.75 40.5 1.3 4.05 6.5 7.35 30.15 10.3 14.6 5.1 10.85-2.05 16.2-9 13.1-7.2 5.7-7.55 3.55-4.65 7-5.5m-35.3-48.15 5.95 16.8v8.1l-4.15 20.4-2.35 11.8-29.85 12.65-14.65-5.65-19-7.35-2.75-5.25-5.7-23.8m43.7-24.45v5.9l-1.3 4.2m7.65 12.45 4.5-3.05 1.5-16.4-.45-2.2m-11.9-.9v-2.6l-11.9-11.6m18.25 36.75-5.5 3.65-11.5-3.5-8.8-12.3-.25-.3V95.3l2.8-2.85.7.45 5.8 3.85v5.6m-72.05-2.15-1.25 3.5 5.3 34.75 13.75 35.8m55.3 25.95-52.3-17.95-3-8m55.3 25.95 13 4.4h18q25-3.05 52.85-20.3"/><path stroke-width=".05" stroke-opacity=".302" stroke-linejoin="round" stroke-linecap="round" stroke="#000" fill="none" d="m115.5 106.9-1 1.25m-7.6-3.75.75 4.25 5 1.7 1.85-2.2m-8.1-5.8.5 2.05m84.4 79.9 1.15-.85m27-23.2L207.8 172.1l-15.35 11.35"/><path fill-rule="evenodd" fill="#adad27" d="m304.55 193.1 4.15-.6q4.75-1.45 8.15-4.95 1 1.5 1 2l-4.05 5.7 4.7-1.75.35-.4q3.7.35 4.6 1.65.55.65.65 2.65v7.2q0 7.3-.35 9.3-.8 4.25-3.45 7.85l-7.25-5.6q-1.4-.95-8.5-.95-7.5 0-9.05.85-1.25.65-3.5 2.6l-1.15 1.1q-.85-2.6-2.3-4.35l-1.1-1.2q-5.6-3.15-7.25-5.6l.25.25 4.85.6 4.8-.6q-6.7-4.65-11.45-13-4.5-8-4.5-14.3 0-6.7 2.2-10.7 1.75-3.1 5.65-5.9l1.8-.4 24.9 2.45q3.7 2.95 3.7 11.9 0 5.1-3.2 9.75-2.15 3.15-4.65 4.45-.95.4-1.95 1.3-2.9-.15-3.45-.9l-1.95-1.9-.3.05q-4.1 1.35-5.25 2.15v1.25q3.15 1.5 7.75 1.5 6.95 0 10.9-2.75l-6.2.6h-1.5q1-.9 1.95-1.3m8.55 3 .7-.85-.7.85m1 2.4q-3.9 4.05-13.15 2.8 0 .35-.3.35l4.15 3.9q1.15 0 5.8-3 4.5-2.95 4.5-3.6 0-.4.3-.65l-1.2.65q-.5 0-.1-.45" transform="translate(-.05 2.15)"/><path fill-rule="evenodd" fill="#ffc" d="m272.1 216.6 2.25.1 4.1.65-.7 3.35v2.65l.9-.6v-.2q0 .8 1.25 3.25 1.3 2.6 2.1 3l-.3-2.15q0-4.15 2.25-7.25l.65.35 1.7 1 2 1.6.45 1.2.2 1.45v3.25l-.1.95-.1.05q-.35 2-1.35 4.35-2.1 4.65-6.95 10.15l-2.7 2.2-2.4.9h-.2l-.25-.1-3.85-.65-.25-.05q-2-12.4-1.5-21.2-.15 0-1.8.95v-1.25l2.45-5.1q1-1.8 2.15-2.85m35.45 1.55.35.1 3.85.4 3.75.65 3.95 2.9.3.3.35.25 1.2 1.9.5.65q0 .4.3.95l.2.65.6 1.85.35 2.15.15 1q-.2 0-.05.1l-.1 1.7q-.4 1.55-1.2 2.9-1.45 2.15-3.7 3.45l-.05.1-1.5-6.05q-2.35-8.45-5.5-10.75l1.75.35-5.5-5.55m20.95-20.4 5.7.8 9.1 7 .8.6.9 1.7 1.15 2.45.9 3.25.25 1.8.25 2.25v1.2l-.15.45q-5.05-7.3-7.85-8.95-3.7-.5-6.95-3.5l.6-.3 2.75-.6q-1.55-.7-4.6-3.25-1.75-1.35-4.2-2.3v-2.7l1.35.1" transform="translate(-.05 2.15)"/><path fill-rule="evenodd" fill="#717d1a" d="M302.6 194.4h1.5l6.2-.6q-3.95 2.75-10.9 2.75-4.6 0-7.75-1.5v-1.25q1.15-.8 5.25-2.15l.3-.05 1.95 1.9q.55.75 3.45.9m-24.95-28.6 4.35-.85q-3.9 2.8-5.65 5.9-2.2 4-2.2 10.7 0 6.3 4.5 14.3 4.75 8.35 11.45 13l-4.8.6-4.85-.6-.25-.25q1.65 2.45 7.25 5.6l1.1 1.2q1.45 1.75 2.3 4.35l1.15-1.1q2.25-1.95 3.5-2.6 1.55-.85 9.05-.85 7.1 0 8.5.95l7.25 5.6-.55.75-.3-.3-3.95-2.9-3.75-.65-3.85-.4-.35-.1-.45.1q-3.2-.15-5.9.65-2.3.35-4 1.35-1.05.3-1.6.95-1.15.55-1.9 1.45l.15 1.25.45 1.55q.3 1.2 1.35 2.85l-6.7-.05V225l-.2-1.45-.45-1.2-2-1.6-1.7-1-.65-.35-3.35-1.4-2.15-.65-4.1-.65-2.25-.1-1.35.05-3.75.2q-1.95 1.25-3.8 2.45l-.65.75-1.45 2.05q-8.35-5.15-1.5-12.95 2.45-2.8 6.8-5.9l-1.7-1.15q-1.9-2.3-1.9-12.75 2.9-11.4 5.2-14.4l9.65-9.15m-5.9 41.1-5.35-3.65 5.35 3.65m42.35-8.4q-.4.45.1.45l1.2-.65q-.3.25-.3.65 0 .65-4.5 3.6-4.65 3-5.8 3l-4.15-3.9q.3 0 .3-.35 9.25 1.25 13.15-2.8" transform="translate(-.05 2.15)"/><path fill-rule="evenodd" fill="#ecec7b" d="M316.85 187.55q-3.4 3.5-8.15 4.95l-4.15.6q2.5-1.3 4.65-4.45 3.2-4.65 3.2-9.75 0-8.95-3.7-11.9l.95.1q7.55 6.35 9 16l-.5 3-.75.85-.55.6.55-.6 3.25 3.85-1.05 1.35.85.45q3.95.5 6.1 1.85l1.3 1.1.65 2.2-1.35-.1v2.7l.15 8.8.15 1.15q.35 3.55-.15 6.3-.35 1.9-1.15 3.45-1.1 2.05-3.05 3.5l-1.8 1.1-1.2-1.9-.35-.25.55-.75q2.65-3.6 3.45-7.85.35-2 .35-9.3v-7.2q-.1-2-.65-2.65-.9-1.3-4.6-1.65l-.35.4-4.7 1.75 4.05-5.7q0-.5-1-2m2 5.55.75-.95-.75.95m8.3 2.85v1.7-1.7" transform="translate(-.05 2.15)"/><path fill-rule="evenodd" fill="#e1d897" d="m261.1 222.1 1.45-2.05.65-.75q1.85-1.2 3.8-2.45l3.75-.2 1.35-.05q-1.15 1.05-2.15 2.85l-2.45 5.1v1.25q1.65-.95 1.8-.95-.5 8.8 1.5 21.2-1.85-.6-3.45-1.5-3.5-2.1-5.85-5.95-2.05-3.3-2.2-7.25v-.15q-.1-3.9 1.15-7.5l.3-1.15.35-.45m17.35-4.75 2.15.65 3.35 1.4q-2.25 3.1-2.25 7.25l.3 2.15q-.8-.4-2.1-3-1.25-2.45-1.25-3.25v.2l-.9.6v-2.65l.7-3.35m17.2 10.95q-1.05-1.65-1.35-2.85l-.45-1.55-.15-1.25q.75-.9 1.9-1.45.55-.65 1.6-.95 1.7-1 4-1.35 2.7-.8 5.9-.65l.45-.1 5.5 5.55-1.75-.35q3.15 2.3 5.5 10.75l1.5 6.05-2.3.85-1.95.35-.8.1q-.15-.15-.15.05l-2-.45-2.7-1.2q-5.55-3.4-8.9-6.8-2.05-1.9-3.05-3.7h-.05l-.35-.45-.4-.6m51.75-9.05-.1.35-.05.05-.2.45-1.25 1.3-.2.2-.95.65-2.25 1.05-15.9 1.5-3.4-1.25q1.95-1.45 3.05-3.5.8-1.55 1.15-3.45.5-2.75.15-6.3l-.15-1.15-.15-8.8q2.45.95 4.2 2.3 3.05 2.55 4.6 3.25l-2.75.6-.6.3q3.25 3 6.95 3.5 2.8 1.65 7.85 8.95" transform="translate(-.05 2.15)"/><path stroke-width=".05" stroke-opacity=".302" stroke-linejoin="round" stroke-linecap="round" stroke="#000" fill="none" d="m304.5 195.25 4.15-.6q4.75-1.45 8.15-4.95l.55-.6.75-.85.5-3q-1.45-9.65-9-16m-5.1 26q-.95.4-1.95 1.3m-24.95-28.6-9.65 9.15q-2.3 3-5.2 14.4 0 10.45 1.9 12.75l1.7 1.15 5.35 3.65m47.1-13.8-.35.4-4.7 1.75-.7.85m-46.7 7.15q-4.35 3.1-6.8 5.9-6.85 7.8 1.5 12.95l1.45-2.05.65-.75q1.85-1.2 3.8-2.45l3.75-.2 1.35-.05 2.25.1 4.1.65 2.15.65 3.35 1.4.65.35 1.7 1 2 1.6.45 1.2.2 1.45v3.25l6.7.05q-1.05-1.65-1.35-2.85l-.45-1.55-.15-1.25q.75-.9 1.9-1.45.55-.65 1.6-.95 1.7-1 4-1.35 2.7-.8 5.9-.65l.45-.1.35.1 3.85.4 3.75.65 3.95 2.9.3.3m-48.95 23.55.25.05 3.85.65.25.1h.2l2.4-.9 2.7-2.2q4.85-5.5 6.95-10.15 1-2.35 1.35-4.35l.1-.05.1-.95m-18.15 17.8q-1.85-.6-3.45-1.5-3.5-2.1-5.85-5.95-2.05-3.3-2.2-7.25v-.15q-.1-3.9 1.15-7.5l.3-1.15.35-.45m34.55 6.2.4.6.35.45h.05q1 1.8 3.05 3.7 3.35 3.4 8.9 6.8l2.7 1.2 2 .45q0-.2.15-.05l.8-.1 1.95-.35 2.3-.85m-.9-53.2 3.25 3.85-1.05 1.35.85.45m22.85 12.95.8.6.9 1.7 1.15 2.45.9 3.25.25 1.8.25 2.25v1.2l-.15.45-.1.35-.05.05-.2.45-1.25 1.3-.2.2-.95.65-2.25 1.05-15.9 1.5m-3.4-1.25-1.8 1.1.5.65q0 .4.3.95l.2.65.6 1.85.35 2.15.15 1q-.2 0-.05.1l-.1 1.7q-.4 1.55-1.2 2.9-1.45 2.15-3.7 3.45l-.05.1m1.3-48-.75.95m8.3 4.55v2.7l.15 8.8.15 1.15q.35 3.55-.15 6.3-.35 1.9-1.15 3.45-1.1 2.05-3.05 3.5m4.05-25.9v-1.7m-5.85 28.7-1.2-1.9-.35-.25"/><path stroke-width=".05" stroke-opacity=".302" stroke-linejoin="round" stroke-linecap="round" stroke="#000" fill="none" d="M320.4 194.75q3.95.5 6.1 1.85l1.3 1.1.65 2.2 5.7.8 9.1 7m-16.8 19.25-3.4-1.25m5.4-25.8-1.35-.1"/><path fill-rule="evenodd" fill="#adad27" d="M414.3 176.9q-1.85-.9-4.25-.9-3.75 0-8.4 1.05-3.6.7-5.35 1.85l-.2-.45q-6.85-4.3-6.85-6.7 0-.85 1.7-2.15 2.1-1.45 4.5-1.05l-.15-.25q-4.95-2.3-6.05-3.75-4.2-5.4-4.2-11.15 0-5.85 3.35-5.85-2.45-2.15-2.45-3.8 0-2.4 1.85-5.35.7-1.15 1.35-1.85 6-.2 14.55 2.95 2.6 4.4 2.6 8.65 0 2.85-1.4 7.25l-1.1 2.85 1.35-.3q2.95-1.4 4.9-4.25l1.1 3.15q0 1.1-.6 2l1.4-.75.25-.45q4.5 2.75 4.5 9.8 0 4.15-1.6 7.5l-.8 1.95q2.75 1.2 4.4 4.3l-.05.1-1.1.9-1.1-1.35-.5-.45-2.2-1.45.55-2.05M401 158.95l2.8-.7-2.8.7m-6.2-10.4q-1.8 0-3.3-1 .1 1.3 1.9 2.4 1.9 1.2 4.25 1.2 3.2 0 3.2-1.4 0-.55-.6-1.3-.65-.9-1.15-.9-1.2 1-4.3 1m12.95 15.75q-1.35 0-3.45 1.55-2.15 1.6-3.45 1.6l-1.5-.2-.9.65q.95 1.65 4.7 1.65 1.45 0 3.75-.9 2.8-1.05 2.8-2.45 0-1.9-1.95-1.9m.45-4.15 1.05-.55-1.05.55" transform="translate(-.05 2.15)"/><path fill-rule="evenodd" fill="#ffc" d="m387.15 179.2 1.8.35 2.95 1.1 1.3.7 1.6 1.1.4.9.3 1.1.35 2.6V187.85l-.35 3.3-.05.15q-.85 3.8-3.45 8.35l-1.55 1.65q-4-4.7-4-12.55l.4-4.9-.7.6v-1.5l1-3.75m20.6-1.15 2.6.15 2.6.25.8.5 2.2 1.45.5.45 1.1 1.35.45.5.3.75.25.4.6 1.45.5 1.65.2.8-.05.1.15 1.35-.45 2.3q-.7 1.8-2.1 2.95l-.85.6-.6-2.6q-1.55-7.55-4.1-8.7h.15l1.4-.15-5.65-5.55M430.3 166l.6.35.85 1.3 1.1 1.9 1 2.45.35 1.45.45 1.65.1.9-.05.65v.1q-.15.15-.15.35l-.65 1.1-.15.2-.55.55-.6.45q-1-4.15-2.1-5.75-1.55-2.4-3.35-3.95l-1.9-1.4h1.1q-4.35-5.4-5.75-7.4l2.65.15 7.05 4.95" transform="translate(-.05 2.15)"/><path fill-rule="evenodd" fill="#717d1a" d="M389.15 136.55q-.65.7-1.35 1.85-1.85 2.95-1.85 5.35 0 1.65 2.45 3.8-3.35 0-3.35 5.85 0 5.75 4.2 11.15 1.1 1.45 6.05 3.75l.15.25q-2.4-.4-4.5 1.05-1.7 1.3-1.7 2.15 0 2.4 6.85 6.7l.2.45q1.75-1.15 5.35-1.85 4.65-1.05 8.4-1.05 2.4 0 4.25.9l-.55 2.05-.8-.5-2.6-.25-2.6-.15h-.65q-2.2.15-3.95.9-1.5.45-2.6 1.3-.65.3-1 .9l-1.1 1.2.3 1 .45 1.1v.05l1.3 2.2-4.65.35-.35-2.6-.3-1.1-.4-.9-1.6-1.1-1.3-.7-2.95-1.1-1.8-.35-2.6-.3-2.5.2-2.55.45-.2.2q-2.65-2.35-2.65-3.9 0-1.2.5-2.15 1.15-.7 3.15-.9 2.1-.25 5.5.05-2.4-.85-3.55-2.25l-.7-1.15.5-.4q1.8-1.15 2.6-1.15-2.25-1.6-5-6-3.3-5.35-3.3-9.3 0-5.55 1.8-10l1.95-2.65.8-.75q3.15-2.6 8.25-2.65m29.2 24.2-.2-1.25.5-.2.65 1.5-.95-.05m-23.55-12.2q3.1 0 4.3-1 .5 0 1.15.9.6.75.6 1.3 0 1.4-3.2 1.4-2.35 0-4.25-1.2-1.8-1.1-1.9-2.4 1.5 1 3.3 1m12.95 15.75q1.95 0 1.95 1.9 0 1.4-2.8 2.45-2.3.9-3.75.9-3.75 0-4.7-1.65l.9-.65 1.5.2q1.3 0 3.45-1.6 2.1-1.55 3.45-1.55" transform="translate(-.05 2.15)"/><path fill-rule="evenodd" fill="#ecec7b" d="m414.3 176.9.8-1.95q1.6-3.35 1.6-7.5 0-7.05-4.5-9.8l-.25.45-1.4.75q.6-.9.6-2l-1.1-3.15q-1.95 2.85-4.9 4.25l-1.35.3 1.1-2.85q1.4-4.4 1.4-7.25 0-4.25-2.6-8.65l1.25.45q4.2 4.1 5.85 10v2.35l-.4.75 2.7 2.8-.6 1.15.65.3q2.75.15 4.4 1.05l1 .75.1.2-.5.2.2 1.25 1.45 9 .2.85q.65 2.75.65 5 0 1.5-.35 2.7-.5 1.7-1.6 2.9-1.65-3.1-4.4-4.3m-2.1-19.25.3-.65-.3.65m-2.15-3.95.35-.65-.35.65" transform="translate(-.05 2.15)"/><path fill-rule="evenodd" fill="#545e13" d="M378.15 142.6q-1.8 4.45-1.8 10 0 3.95 3.3 9.3 2.75 4.4 5 6-.8 0-2.6 1.15l-.5.4.7 1.15q1.15 1.4 3.55 2.25-3.4-.3-5.5-.05-2 .2-3.15.9-.5.95-.5 2.15 0 1.55 2.65 3.9l-2.1 1.9-.35.55-.7 1.75q-6.35-3.45-2.6-10 1.35-2.4 3.95-5.05l-1.3-.8q-1.5-1.65-2.8-9.8.65-9.1 1.8-11.55l2.95-4.15m2.75 28.45-3.4-2.15 3.4 2.15" transform="translate(-.05 2.15)"/><path fill-rule="evenodd" fill="#e1d897" d="m379.3 179.75.2-.2 2.55-.45 2.5-.2 2.6.3-1 3.75v1.5l.7-.6-.4 4.9q0 7.85 4 12.55l-.1.2-1.55.9h-.15l-.15-.1-2.7-.2q-1.45-.35-2.7-1-2.65-1.45-4.65-4.25-1.9-2.55-2.4-5.65l-.05-.05q-.5-3.05-.1-5.9l.1-.85.15-.45.7-1.75.35-.55 2.1-1.9m21.2 6.95-1.3-2.2v-.05l-.45-1.1-.3-1 1.1-1.2q.35-.6 1-.9 1.1-.85 2.6-1.3 1.75-.75 3.95-.9h.65l5.65 5.55-1.4.15h-.15q2.55 1.15 4.1 8.7l.6 2.6-.65.25-1.3.45-.55.1H413.9l-1.4-.15-1.95-.8q-4.15-2.3-6.9-4.75-1.6-1.4-2.5-2.7l-.1-.05-.2-.3-.35-.4m18.2-5.5q1.1-1.2 1.6-2.9.35-1.2.35-2.7 0-2.25-.65-5l-.2-.85-1.45-9 .95.05.85.1h.45q1.4 2 5.75 7.4h-1.1l1.9 1.4q1.8 1.55 3.35 3.95 1.1 1.6 2.1 5.75l-.8.5q-1.4.65-10.65 2.1l-2.45-.7h-.05l.05-.1" transform="translate(-.05 2.15)"/><path stroke-width=".05" stroke-opacity=".302" stroke-linejoin="round" stroke-linecap="round" stroke="#000" fill="none" d="m412.15 159.8-.25.45-1.4.75m-.5-5.15q-1.95 2.85-4.9 4.25l-1.35.3-2.8.7m-20.9-19-1.95 2.65-2.95 4.15q-1.15 2.45-1.8 11.55 1.3 8.15 2.8 9.8l1.3.8 3.4 2.15m-1.6 8.7.2-.2 2.55-.45 2.5-.2 2.6.3 1.8.35 2.95 1.1 1.3.7 1.6 1.1.4.9.3 1.1.35 2.6 4.65-.35-1.3-2.2v-.05l-.45-1.1-.3-1 1.1-1.2q.35-.6 1-.9 1.1-.85 2.6-1.3 1.75-.75 3.95-.9h.65l2.6.15 2.6.25.8.5 2.2 1.45.5.45 1.1 1.35.45.5.3.75.25.4.6 1.45.5 1.65.2.8-.05.1.15 1.35-.45 2.3q-.7 1.8-2.1 2.95l-.85.6-.65.25-1.3.45-.55.1H413.85l-1.4-.15-1.95-.8q-4.15-2.3-6.9-4.75-1.6-1.4-2.5-2.7l-.1-.05-.2-.3-.35-.4m18.2-5.5q1.1-1.2 1.6-2.9.35-1.2.35-2.7 0-2.25-.65-5l-.2-.85-1.45-9-.2-1.25m-5-2.2-.65-.3-.3.65m-9.5-19.6.75.6 1.5 1.3q4.2 4.1 5.85 10v2.35l-.4.75 2.7 2.8-.6 1.15m-2.1-3.95-.35.65m20.25 12.3.6.35.85 1.3 1.1 1.9 1 2.45.35 1.45.45 1.65.1.9-.05.65v.1q-.15.15-.15.35l-.65 1.1-.15.2-.55.55-.6.45-.8.5q-1.4.65-10.65 2.1m-2.5-.7-1.1.9m-8.3-22.6-1.05.55m10.45 21.15.05-.1m-41.2-12.3q-2.6 2.65-3.95 5.05-3.75 6.55 2.6 10l.7-1.75.35-.55 2.1-1.9m11.15 21.55 1.55-1.65q2.6-4.55 3.45-8.35l.05-.15.35-3.3V189.2m-5.4 14.25-.1.2-1.55.9h-.15l-.15-.1-2.7-.2q-1.45-.35-2.7-1-2.65-1.45-4.65-4.25-1.9-2.55-2.4-5.65l-.05-.05q-.5-3.05-.1-5.9l.1-.85.15-.45"/><path stroke-width=".05" stroke-opacity=".302" stroke-linejoin="round" stroke-linecap="round" stroke="#000" fill="none" d="m418.6 161.45-.1-.2-1-.75q-1.65-.9-4.4-1.05m8 24.7-2.45-.7h-.05m1.95-20.4 2.65.15 7.05 4.95m-11-5.2.85.1m-1.5-1.6.65 1.5-.95-.05"/></g><g id="r" stroke-opacity="0" stroke-linejoin="round" stroke-linecap="round" stroke="#f0f" fill="none"><path d="M187.95-293.5v380h-380v-380h380M92.95.6H-97" transform="translate(192.55 294)"/><path d="m187.95-293.5-190 190 190 190m-380-380 190 190L-192 86.5" transform="translate(192.55 294)"/></g><radialGradient spreadMethod="pad" r="819.2" id="d" gradientUnits="userSpaceOnUse" gradientTransform="matrix(.3064 -.0141 .052 .368 251.55 2.55)" cy="0" cx="0"><stop stop-color="#544868" offset=".165"/><stop stop-color="#8b45ba" offset=".431"/><stop stop-color="#caa9ce" offset=".714"/><stop stop-color="#e1d897" offset=".91"/></radialGradient><path fill-rule="evenodd" fill-opacity="0" fill="#f0f" d="M0 0h102.95v45H0V0" id="p"/></defs><path fill="none" d="M-1-1h324v229H-1z"/><g><use x="292.732" y="251.321" xlink:href="#q" width="454.6" transform="translate(-203.565 -173.506) scale(.7003)" height="317.05"/><use x="205" y="176" xlink:href="#r" width="381" transform="translate(-192.55 -294)" height="381"/><use y="-4.837" xlink:href="#s" width="102.95" transform="matrix(1.8072 0 0 1.6538 142 33.05)" height="45"/></g></svg>