<svg width="168" height="189" xmlns="http://www.w3.org/2000/svg" xmlns:xlink="http://www.w3.org/1999/xlink"><defs><g id="a"><path fill-rule="evenodd" fill="#eb9301" d="m72.55-204.8 3.7-3 4.75-3.85.05-.05 9.85-7.9.45-.4 3.4-2.75 2.05-1.65h3.15l-.15.85-1 .8-3.35 2.75L81-208.3l-3.5 2.85-4.95.65M-63.8-94.95v-.1l13.85-12.7 1.15 1.55.1.1-11.85 11.6-3.25-.45M47.8-184.8l4.85-3.95 1-.8 13.95-11.3.45-.35v.35l3.5.15-26.3 21.2Q27-167.05 47.8-184.8" transform="translate(192.55 294)"/><path fill-rule="evenodd" fill="#95752d" d="m99.8-223.55-.35 2.5-1.3 1.05-7.25 5.85-3.05 2.45-6.85 5.5-.4.35-4.35 3.5-2.2 1.75-6 4.85L53.7-184.2l-19.05 15.4-1.1-3.5-.4-.75L47.8-184.8q-20.8 17.75-2.55 5.3l26.3-21.2-3.5-.15v-.35l4.5-3.6 4.95-.65 3.5-2.85L95.45-220l3.35-2.75 1-.8M-42.6-108.4l-13.15 13.15-3.75 5.15-2.55-.6-1.75-4.25 3.25.45 11.85-11.6-.1-.1-1.15-1.55 3.05-2.8 4.3 2.15" transform="translate(192.55 294)"/><path fill-rule="evenodd" fill="#a1af8a" d="M34.65-168.8q.65 3.2.45 7.05l-.25 2.4q-.95 7.2-3.75 11.5l-.15.25q-.95 1.4-2.85 3.05-3.9 3.15-11.6 7.15l-.45.25-5.15 1.7-1.65.5-4.4 1.35-9.75 2.8 8.45-4.35q5.9-3.35 1.7-12.7-1.6-3.5-4.6-7.8l24.95-7.45 2.35-13.85-1.5 1.45-4.95 3.4-.1-.75-.3-3-1.05.55-1.1-2q-6.55 1.05-8.15 7.7-.5 1.15-.35 1.45v.45l-1.25 2.1-2.35.6-.25.3-.15.15-.2.25-1.1 1.25-1.1 1.25-.75-2.5-.25-1.2q-1.2-7.2 4.55-13.5l.4-.25q3.35-1.95 5.7-3.05l.75-.35 2.05-.9 2-.4L9.95-193l8.2 2.1q6.55 5.25 11.45 12.25l3.55 5.6.4.75 1.1 3.5M12.7-70.35l-.15 3.2q4.2 5.5 5.2 11.05.6 3.6-.15 7.2l1.95 1.65-1.2 3.85-3.45 1.2-4.7-1.2-.3.4-4.1-3.6 3.9-1.5.25-1.3L3.6-63.1l-10.4-6.55 2.55-4.05 6.2-2.7 6.1-1 .15 3.55.75.15v-.1q.7.45 1.95-2.2-.4-7.6.7-9.9l2 .65.1-.15 4.4-5.35.45-5.6Q11.05-113.2 8.2-110.6v-2.4h.05l7.6-4.75 7.75 4 .9 1.2.55.85.8 3.2q1.3 5.05.1 13.25 0 1.8-.7 4.5L23.4-85.1l-.3 5.75-3.75 2.75-1.75.9-3 1.65-1.65 1h-.15l-.1 2.7m-48.85-39.4-.45.8-4.75 1.2-1.25-.65-4.3-2.15-1.45-.75-.85-2.3 5.55.3 5-5.3-2.6-6 5.15 1.95 1.15 9.7h1.5l-2.35 2.8-.1-.05-.25.45m48.95 36.7-3.85-.65 3.85.65m5.65-7.1-.85 4.45.85-4.45m3.05-1.5-2.15 5.05 2.15-5.05m-5.8 3.35-1.1 4.25 1.1-4.25" transform="translate(192.55 294)"/><path fill-rule="evenodd" fill="#d3f1c6" d="m.05-44.2-2.1 1.3q-.1-2.35-1.1-3.4-.75-.85-2.05-.9-1.3-.1-3.1.55l-.1-.05-.55-.25-2.8-10.9-.65-2.7 3-11.6 2.25 3.05.3-.45.05-.1L3.6-63.1l6.35 13.7-.25 1.3-3.9 1.5-.95.35-1.85.7-3 1.2.05.15m-49.25-69.4-1.1-2.8 3.25-.7 1.05-3.55 3.15-1.2.8-3.05.8.3 2.6 6-5 5.3-5.55-.3m25.85-17.4q-4.15-2.8-6.9-5.15-4.45-3.8-5.15-6.55-1-3.65-.55-7.6v-.25l.1-.6v-.05h.05l3.55 2.05 2.1-2.05q1.9-1.8 5.6-4 3.7-2.3 10.8-3.05l13 2.05 1.9-2.15-5.85-2.4-.1-.05-13.05-1.55.95-.45-.95.45-.1-.25-9.45 3.55q-2.3 1.15-3.2 2.45v-1.15l-.2-.05-.4-.1-2.65-8.9 3.8-7.55q12.4-12.35 24.8-20.05 5.25-.85 15.2 1.4l8.55 9.05-2 .4-2.05.9-.75.35q-2.35 1.1-5.7 3.05l-.4.25q-5.75 6.3-4.55 13.5l.25 1.2.75 2.5 1.1-1.25 1.1-1.25.2-.25.15-.15.25-.3 2.35-.6 1.1-.3 1.45-.45.5-.5 1.1-1q3.3-2.75 7.25-3.85l2.6-.6-1.7.2 4.95-3.4 1.5-1.45-2.35 13.85-24.95 7.45q3 4.3 4.6 7.8 4.2 9.35-1.7 12.7l-8.45 4.35-.85.25-2.45.65-3.7.55-1.15.15-4.15.55-1.25-.5-.55-.2-4.35-1.65M9-163l.95-1.3.25-.3 1.55-1.75-1.55 1.75-.25.3L9-163m4.25-.1.8 1.8 7.35-1.9-7.3-2.4-.85 2.5m-28.1 7.65-1.45.05q-.9.2-1.5.6-.55.4-.45.75l.75.5q.7.15 1.55 0 .85-.25 1.4-.7.6-.35.5-.65l-.8-.55m8.8 23.85q-5.1-4.05-8.45-2.6l-6.05-9.1-3.25-9.3 3.25 9.3 6.05 9.1q3.35-1.45 8.45 2.6M11.6-85.9q-1.1 2.3-.7 9.9-1.25 2.65-1.95 2.2-.65-.45-.9-3.6v-.4l-.1-2.45-.2-.05-.4-3.3-1.9-.8 1.9.8.4 3.3-3.5-.95Q1.1-85.9 5.65-87.8l3.4 1.1 3.1.05-.55.75m-26.1-48.3q-2.45 1.05-3.95 5.05 1.5-4 3.95-5.05m-10.35-16.6q.35-.6.15-.85l-.95-.15-1.3.65-1.1 1.15q-.35.55-.1.85l.85.15q.75-.15 1.45-.65.65-.55 1-1.15m17.9 86.2.45 5.95 3.9-5.15-4.35-.8" transform="translate(192.55 294)"/><path fill-rule="evenodd" fill="#e1dbbb" d="M10.8-169.6q1.6-6.65 8.15-7.7l1.1 2 1.05-.55.3 3 .1.75 1.7-.2-2.6.6q-3.95 1.1-7.25 3.85l-2.55-1.75m7.15-2.3 3.45-.95-3.45.95" transform="translate(192.55 294)"/><path fill-rule="evenodd" fill="#fffff1" d="m-35.85-151.2.1-.7.6-3.25q.7-.15.25-.6l2.8-.3.15-.05h.4l.95-.1v-.4q.9-1.3 3.2-2.45l9.45-3.55.1.25 13.05 1.55.1.05 5.85 2.4-1.9 2.15-13-2.05q-7.1.75-10.8 3.05-3.7 2.2-5.6 4l-2.1 2.05-3.55-2.05h-.05m1.3-7.5-.2-.4-.05-.1q-2-4.35-2.6-7.05-.3-1.45-.2-2.4l.1-.6q.45-1.3 3.85-5.3l.25-.3.45-.5.3-.25 4.85-5.5q4.6-5 7.6-7.65l.95-.8q1.7-1.5 2.8-2l2-.7 8.6-2.05.6-.1q-12.4 7.7-24.8 20.05l-3.8 7.55 2.65 8.9-3.35-.8m47.8-4.4.85-2.5 7.3 2.4-7.35 1.9-.8-1.8M8.2-110.6q2.85-2.6 10.35 14.25l-.45 5.6-4.4 5.35-.1.15-2-.65.55-.75-3.1-.05-3.4-1.1 1.8-2.8q3.2-9.55.75-20m-15.15 46 4.35.8-3.9 5.15-.45-5.95" transform="translate(192.55 294)"/><path fill-rule="evenodd" fill="#b5bf64" d="m-16.45-191.55.55-.25 1.45-.45-2 .7M9.2-165.6l1.25-2.1-.15 1.8-1.1.3" transform="translate(192.55 294)"/><path fill-rule="evenodd" fill="#a3a745" d="m-35.15-155.15.1-.5.15-.1q.45.45-.25.6m17.3-7.2.95-.45-.95.45" transform="translate(192.55 294)"/><path fill-rule="evenodd" fill="#f0c0b0" d="M10.45-167.7v-.45q-.15-.3.35-1.45l2.55 1.75-1.1 1-.5.5-1.45.45.15-1.8" transform="translate(192.55 294)"/><path fill-rule="evenodd" fill="#2e2d01" d="m15.35-134.8 1.05.5 8.9 4.3-.05 1.1 1.95 5.75.7 1.95-2.05 12.7-.8-3.2-.55-.85-1.1-8.55-.6-.9h.2v-.05l-.5-2.9-5.65-6.05v-.05l-.2.2-2.55 2.35-.8-2.4 2.05-3.9m-31.05 8.85-.6.4-3.25 1.95-.25 2.6-.9 1.05-4.7.3 5.75-4.9 3.95-1.4m10.2 1.2.05.1-5.85-1.1 4.5-1.4 1.3 2.4" transform="translate(192.55 294)"/><path fill-rule="evenodd" fill="#3a341b" d="m-11.75-57.85-3.6-1-9.05 1.75 2.25-4.25 5.05-1.55-.8-7.4 1.55-6.25 3.95.75h.4l2.6 3.65-3 11.6.65 2.7m6.85-72.95 9.75-2.8 4.4-1.35 1.65-.5 5.15-1.7.2.6-.9 1.75-2.05 3.9.8 2.4-2.9 2.65-.75.5-13.65 1.15-1.35-.25h-.1l-.1-.05h-.1l-.65-.25-1.3-2.4-.8-1.55-.6-1.2 2.45-.65.85-.25" transform="translate(192.55 294)"/><path fill-rule="evenodd" fill="#a1cd94" d="m28.1-144.55 9.55 1.2.75 1.35-8.65 10.75 3.15 17.9-7.15 24.65.25 1 .9 3.7 1.25 4.85h.1l5.3-.6.3.6 7.65-8.05-6.9 13.05v.05l-.25.4-2.3 1.15-.3.15-10.6 5.35-8.45-3.3.1-2.7h.15l1.65-1 3-1.65 1.75-.9 3.75-2.75.3-5.75 1.85-5.65q.7-2.7.7-4.5 1.2-8.2-.1-13.25l2.05-12.7-.7-1.95-1.95-5.75.05-1.1-8.9-4.3-1.05-.5.9-1.75-.2-.6.45-.25q7.7-4 11.6-7.15m26.35 59v.2q-.1.6-.6.85l-2.05.4q2.1 1.45 4.25 2.75L58-83l.85-.3.9.3q.5.2.5.8l-2 2.05-.35.4-.8.3-.85.55-.55.6-.3.2-1.1.25q-3.5.7-6.75-.7l-.6-.8-.5-.9q-.3-3.9 3.35-5.4l2.55-.7q1.2-.3 1.9.5l.2.3M48.4-81.2l.5 1.35q.6 1.3 2.75 1.4 2.15.05 3.3-1.2l-6.45-1.5-.15-.3.05.25" transform="translate(192.55 294)"/><path fill-rule="evenodd" fill="#6f7d58" d="m-14.85-155.45.8.55q.1.3-.5.65-.55.45-1.4.7-.85.15-1.55 0l-.75-.5q-.1-.35.45-.75.6-.4 1.5-.6l1.45-.05m-10 4.65q-.35.6-1 1.15-.7.5-1.45.65l-.85-.15q-.25-.3.1-.85l1.1-1.15 1.3-.65.95.15q.2.25-.15.85" transform="translate(192.55 294)"/><path fill-rule="evenodd" fill="#474601" d="m22.8-122 .6.9 1.1 8.55-.9-1.2-3.45-5v-3.5l2.65.25m-28.25-2.65-.05-.1.65.25-.6-.15" transform="translate(192.55 294)"/><path fill-rule="evenodd" fill="#60532b" d="m-16.35-76.55-5-2.9-7.9-11.15-.1-5.5v-.3l-.1-4.2-.05-4.2-.1-.6v-.85l.7-1.2 4.9-8.8 3.3-3.7.9-1.05.25-2.6 3.25-1.95.6-.4 1.65-1 6.45-1.75.8 1.55-4.5 1.4 5.85 1.1.6.15h.1l.1.05h.1l1.35.25 13.65-1.15.3-.05.45-.45 2.9-2.65 2.55-2.35.2-.15 5.65 6.05.5 2.9-.2.05-2.65-.25-.5-1.05-8.35 4.85-3.1 5.35v2.5q2.45 10.45-.75 20l-1.8 2.8q-4.55 1.9-1.4 6.55l3.5.95.2.05.1 2.45v.4l-6.1 1-13.95.6h-.4l-3.95-.75m-3.5-8q6.1 4.65 16.05.8-18.4-11.2-16.7-27.65-3.2 2.4-4.75 10-1.85 12.75 5.4 16.85" transform="translate(192.55 294)"/><path fill-rule="evenodd" fill="#584e27" d="m-28.9-107.45-6.9-2.7 2.35-2.8h2.35l1.35-5.2.15.05 4.2-1.55 4.7-.3-3.3 3.7-4.9 8.8" transform="translate(192.55 294)"/><path fill-rule="evenodd" fill="#8d8d3a" d="m8.2-113.1.05.1H8.2v-.1m.75 39.3v.1l-.75-.15-.15-3.55q.25 3.15.9 3.6m-.9-4v.4-.4" transform="translate(192.55 294)"/><path fill-rule="evenodd" fill="#6f7d58" d="m-36.1-122.65.25-.35 2.45.9 1.95.65 1.15.55-.45.55-.15-.1.1.15.35.65.75 1.4-.05.1-1.35 5.2h-3.85l-1.15-9.7m59.7 8.9-7.75-4-7.6 4.75-.05-.1 3.1-5.35 8.35-4.85.5 1.05v3.5l3.45 5m-33 41.6L-12-75.8l13.95-.6-6.2 2.7-2.55 4.05-.05.1-.3.45-2.25-3.05" transform="translate(192.55 294)"/><path fill-rule="evenodd" fill="#584a1b" d="m-33.4-122.1 10.05-8.9 4.35 1.65-11.45 9.7-.35-.65.05-.05.45-.55-1.15-.55-1.95-.65" transform="translate(192.55 294)"/><path fill-rule="evenodd" fill="#d3ffc6" d="m38.4-142 1 1.9.15.35 7.3 14-.75 26.9-2 6-.95 2.85-.15.4-1.5 2.4-7.65 8.05-.3-.6-5.3.6h-.1L26.9-84l-.9-3.7-.25-1 7.15-24.65-3.15-17.9L38.4-142m6.35 32.8.4-16.3-6.9-13.4 6.9 13.4-.4 16.3M41.3-90.1l2.7-8-2.7 8" transform="translate(192.55 294)"/><path fill-rule="evenodd" fill="#84921d" d="m39.4-140.1.25.05-.1.3-.15-.35M64-87.55l-.1.2-.4-.4.5.2" transform="translate(192.55 294)"/><path fill-rule="evenodd" fill="#3d6930" d="m39.65-140.05 13.55 3.5.65.15.55.15.25.05 5.6 1.45v.15h.05l.25-.05L65.1-126l-1.2.95h-.05l-.15-.5-.6-1.75q-2.25-4.95-8.45-6.5l-3.45-.55q-1.8 1.8-.7 5.05 1.3 3.55 1.85 7.35l2.3.9q3.05 1.05 6 1.25l-8.05 2.9-3.9 6.8.3 6.35.3 6.55q1.05 3.6 4.35 6.5l1.45.3q2.4.7 4.85.1h.1l-.4 1.3v.1l1.35.15-14.95 2.3q-8.3 11.85-2.7 13.05-6.35.95-16.4 4l7.4-4.3.25-.4v-.05l6.9-13.05 1.1-1.15.4-1.25.15-.4.95-2.85 2-6 .75-26.9-7.3-14 .1-.3M5.35-39.15 4.7-39l-1.5.25L.4-43.6 3-45.55l1.85-.7L7.7-43.6l-2.35 4.45m-15.1-.25-4.7-.35 6-6.75.15-.15q1.8-.65 3.1-.55l.7 2.3-5.25 5.5m61.7-67.65.4-1.35q4.4 1.5 9 .65l1.55 8.1-2.5 8.15-.25-.1q-4.6.7-7.2-2.45-1.05-1.25-1.85-2.65-.4-5.4.85-10.35m-3.45 25.9 6.45 1.5q-1.15 1.25-3.3 1.2-2.15-.1-2.75-1.4l-.5-1.35.1.05m13.45-42.6L57.9-124l-.1-.3q-.6-4.15-2.6-7.15 6.05 1.5 6.8 7.65l-.05.05" transform="translate(192.55 294)"/><path fill-rule="evenodd" fill="#d3ffc6" d="M60.65-119.8q-2.95-.2-6-1.25l-2.3-.9q-.55-3.8-1.85-7.35-1.1-3.25.7-5.05l3.45.55q6.2 1.55 8.45 6.5l.6 1.75.15.5.15.6.3 2.5v1.8l-.1.3q-1.75.2-3.55.05m-8.7 12.75q-1.25 4.95-.85 10.35.8 1.4 1.85 2.65 2.6 3.15 7.2 2.45l.25.1 2.5-8.15-1.55-8.1q-4.6.85-9-.65l-.4 1.35m-2.95 3.3.4-1.9q1.2-4.55 3.55-8.8l.3-.2q1.3-.75 2.55-1.05 2.2-.9 4-.4l.15-.25 1 .7H61l4.25.5 1.95 4.85q.3 2.6.2 5.35v.45l-.1.85q-.4 5.35-2.25 11.2L59.65-89l.4-1.3v-.1l-.1.1q-2.45.6-4.85-.1l-1.45-.3q-3.3-2.9-4.35-6.5l-.3-6.55m13-20.05q-.75-6.15-6.8-7.65 2 3 2.6 7.15l.1.3 4.05.25H62v-.05" transform="translate(192.55 294)"/><path fill-rule="evenodd" fill="#eff38b" d="m16.65-130.85.2-.2v.05l-.2.15" transform="translate(192.55 294)"/><path fill-rule="evenodd" fill="#81ad74" d="m65.1-126 2.75 5.45-1.8 2.1h-.1v.15l.35.45 2 2.7 2.25 7.65-2.5 13.95-.6 3.4-3.4 2.65-.05-.05-.5-.2.4.4.2 4.55-5.75 4.5q-2.45 1.65-4.5 2.7l-1.6.8q-1.9.75-3.35.95h-.3l-5.25.45q-5.6-1.2 2.7-13.05L61-88.75l-1.35-.15v-.1l5.4-3.45q1.85-5.85 2.25-11.2l.1-.85v-.45q.1-2.75-.2-5.35l-1.95-4.85-4.25-.5h-.05l-1-.7-.2-.15.05.4q-1.8-.5-4 .4-1.25.3-2.55 1.05l-.3.2q-2.35 4.25-3.55 8.8l-.4 1.9-.3-6.35 3.9-6.8 8.05-2.9q1.8.15 3.55-.05l.1-.3v-1.8l-.3-2.5-.15-.6h.05l1.2-.95M54.45-85.55l-.2-.3q-.7-.8-1.9-.5l-2.55.7q-3.65 1.5-3.35 5.4l.5.9.6.8q3.25 1.4 6.75.7l1.1-.25.3-.2.55-.6.85-.55.8-.3.35-.4 2-2.05q0-.6-.5-.8l-.9-.3-.85.3-1.95 1.65q-2.15-1.3-4.25-2.75l2.05-.4q.5-.25.6-.85v-.2m5.45-32.7.9 2.15-.85-2.2-.1-.1.05.15" transform="translate(192.55 294)"/><path fill-rule="evenodd" fill="#fff" d="M-35.05-155.75v-.05l.5-2.9 3.35.8.4.1.2.05v1.55l-.95.1h-.4l-.15.05-2.8.3h-.15" transform="translate(192.55 294)"/><path fill-rule="evenodd" fill="#cbca34" d="M-35.05-155.65v-.1h.15l-.15.1" transform="translate(192.55 294)"/><path fill-rule="evenodd" fill="#68702e" d="m-29.7-118.25.1.15-.15-.05.05-.1" transform="translate(192.55 294)"/><path fill-rule="evenodd" fill="#b9b15e" d="m43-89.6-.4 1.25-1.1 1.15 1.5-2.4" transform="translate(192.55 294)"/><path fill-rule="evenodd" fill="#a99a49" d="M32.05-72.55 30.4-71.5l1.35-.9.3-.15" transform="translate(192.55 294)"/><path fill-rule="evenodd" fill="#27635e" d="m48.5-81.15-.1-.05-.05-.25.15.3m13.45-42.6.05-.05v.05h-.05m-1.9 33.45h-.1l.1-.1v.1" transform="translate(192.55 294)"/><path fill-rule="evenodd" fill="#8a7c53" d="M-19.85-84.55q-7.25-4.1-5.4-16.85 1.55-7.6 4.75-10-1.7 16.45 16.7 27.65-9.95 3.85-16.05-.8" transform="translate(192.55 294)"/><path fill-rule="evenodd" fill="#787732" d="m.4-43.6-.35-.6-.05-.15 3-1.2L.4-43.6" transform="translate(192.55 294)"/><path fill-rule="evenodd" fill="#0b3700" d="m9.9-43-2.45 3.45-2.1.4L7.7-43.6l-2.85-2.65.95-.35L9.9-43m-11.95.1-5.9 3.6-1.8-.1 5.25-5.5-.7-2.3q1.3.05 2.05.9 1 1.05 1.1 3.4" transform="translate(192.55 294)"/><path fill-rule="evenodd" fill="#747818" d="M60.25-134.6v-.15l.05.1-.05.05" transform="translate(192.55 294)"/><path fill-rule="evenodd" fill="#656432" d="M60.25-134.75h.05l.25.1-.25.05h-.05l.05-.05-.05-.1" transform="translate(192.55 294)"/><path fill-rule="evenodd" fill="#4d4d26" d="m59.9-118.25-.05-.15.1.1.85 2.2-.9-2.15" transform="translate(192.55 294)"/><path fill-rule="evenodd" fill="#2e7061" d="m59.8-116.1-.05-.4.2.15-.15.25" transform="translate(192.55 294)"/><path stroke-width=".05" stroke-linejoin="round" stroke-linecap="round" stroke="#656f4d" fill="none" d="m265.1 89.2 3.7-3 4.75-3.85.05-.05 9.85-7.9.45-.4 3.4-2.75 2.05-1.65h3.15l-.15.85-.35 2.5-1.3 1.05-7.25 5.85-3.05 2.45-6.85 5.5-.4.35-4.35 3.5-2.2 1.75-6 4.85-14.35 11.55-19.05 15.4q.65 3.2.45 7.05l-.25 2.4q-.95 7.2-3.75 11.5l-.15.25q-.95 1.4-2.85 3.05l9.55 1.2.75 1.35 1 1.9m.25.05 13.55 3.5.65.15.55.15.25.05 5.6 1.45m.3.1 4.55 8.65 2.75 5.45-1.8 2.1h-.1m.35.6 2 2.7 2.25 7.65-2.5 13.95-.6 3.4-3.4 2.65-.05-.05m-.1.2.2 4.55-5.75 4.5q-2.45 1.65-4.5 2.7l-1.6.8q-1.9.75-3.35.95h-.3l-5.25.45q-6.35.95-16.4 4l7.4-4.3-2.3 1.15-.3.15-10.6 5.35-8.45-3.3-.15 3.2q4.2 5.5 5.2 11.05.6 3.6-.15 7.2l1.95 1.65-1.2 3.85-3.45 1.2-4.7-1.2-.3.4-2.45 3.45-2.1.4m-.65.15-1.5.25-2.8-4.85-.35-.6-2.1 1.3-5.9 3.6-1.8-.1-4.7-.35 6-6.75.15-.15-.1-.05-.55-.25-2.8-10.9-3.6-1-9.05 1.75 2.25-4.25 5.05-1.55-.8-7.4 1.55-6.25m-12.55-30.9-6.9-2.7-.35.4-.45.8-4.75 1.2-1.25-.65-13.15 13.15-3.75 5.15-2.55-.6-1.75-4.25v-.1l13.85-12.7 3.05-2.8-1.45-.75-.85-2.3-1.1-2.8 3.25-.7 1.05-3.55 3.15-1.2.8-3.05.8.3 5.15 1.95.25-.35 2.45.9m10.05-8.9q-4.15-2.8-6.9-5.15-4.45-3.8-5.15-6.55-1-3.65-.55-7.6v-.25l.1-.6v-.05l.1-.7.6-3.25.1-.5v-.15l.5-2.9-.2-.4-.05-.1q-2-4.35-2.6-7.05-.3-1.45-.2-2.4l.1-.6q.45-1.3 3.85-5.3l.25-.3.45-.5.3-.25 4.85-5.5q4.6-5 7.6-7.65l.95-.8q1.7-1.5 2.8-2l2-.7 8.6-2.05.6-.1q5.25-.85 15.2 1.4l8.2 2.1q6.55 5.25 11.45 12.25l3.55 5.6 14.65-11.75 4.85-3.95 1-.8 13.95-11.3.45-.35 4.5-3.6m-77.45 74 9.75-2.8 4.4-1.35 1.65-.5 5.15-1.7.45-.25q7.7-4 11.6-7.15m5.05-28.5.4.75 1.1 3.5m-8.8 60.3q1.3 5.05.1 13.25 0 1.8-.7 4.5l-1.85 5.65-.3 5.75-3.75 2.75-1.75.9-3 1.65-1.65 1h-.15m11.7-39.5.55.85.8 3.2m-34.05-21.4 2.45-.65.85-.25m-2.7 2.1-.6-1.2-3.7.55-1.15.15-4.15.55-1.25-.5-.55-.2m-11.45 9.7.75 1.4.1.15 4.2-1.55 5.75-4.9 3.95-1.4m24.65 52.25 3.85.65m26.75-66.7 7.3 14-.75 26.9-2 6m-.95 2.85-.15.4-.4 1.25m-1.1 1.15-6.9 13.05v.05l-.25.4m-70.15-36.45-.1-.05-.25.45m6.4-8.4.05-.1m-.05.1-1.35 5.2h-2.35l-2.35 2.8m-.3-12.5 1.15 9.7h1.5m76.45 23.35-1.5 2.4m-23.9 11.5.85-4.45m.9 3.55 2.15-5.05M200 203.4q3.2-9.55.75-20m-.45 30.3-.4-3.3-1.9-.8m.2-3.4q-4.55 1.9-1.4 6.55l3.5.95m.3 2.9.15 3.55.75.15m5.65-.35 1.1-4.25"/><path stroke-width=".05" stroke-linejoin="round" stroke-linecap="round" stroke="#656f4d" fill="none" d="m201.75 128.4 1.25-2.1m9.6-7.6 1.05-.55m.4 3.75 1.7-.2-2.6.6q-3.95 1.1-7.25 3.85l-1.1 1m-.5.5-1.55 1.75-.25.3-.95 1.3m12.4-9.85-3.45.95m-41.75 19.3 3.25 9.3 6.05 9.1q3.35-1.45 8.45 2.6m-12.4 2.45q1.5-4 3.95-5.05m-16.3-23.6-.4-.1-3.35-.8"/><path stroke-linejoin="round" stroke-linecap="round" stroke="#656f4d" fill="none" d="M10.8-169.6q1.6-6.65 8.15-7.7l1.1 2m18.2 36.4 6.9 13.4-.4 16.3M44-98.1l-2.7 8" transform="translate(192.55 294)"/><path stroke-width=".05" stroke-linejoin="round" stroke-linecap="round" stroke="#463a20" fill="none" d="m176.2 217.45-5-2.9-7.9-11.15-.1-5.5v-.3l-.1-4.2-.05-4.2-.1-.6v-.85l.7-1.2m21.3-21.25-6.45 1.75-1.65 1m26.15.6-13.65 1.15-1.35-.25h-.1l-.1-.05h-.1m16.05-1.35-.45.45-.3.05m.75-.5 2.9-2.65m6.05 6.25-.5-1.05-8.35 4.85-3.1 5.35v2.5m11.95-11.65 2.65.25m-17.15 34.2 1.8-2.8m-5.5 14.2-13.95.6m13.95-.6 6.1-1"/><path stroke-width=".5" stroke-linejoin="round" stroke-linecap="round" stroke="#463a20" fill="none" d="M176.25 168.45 173 170.4l-.25 2.6-.9 1.05-3.3 3.7-4.9 8.8"/><path stroke-width="3" stroke-linejoin="round" stroke-linecap="round" stroke="#545025" fill="none" d="m211.4 119.45.6 1.4"/><path stroke-width=".5" stroke-linejoin="round" stroke-linecap="round" stroke="#545025" fill="none" d="m161.45 135.7.3 2.3"/><path stroke-width=".05" stroke-linejoin="round" stroke-linecap="round" stroke="#fff" fill="none" d="m207.15 124.05 4.6-1.7"/><path fill-rule="evenodd" fill="#b49e56" d="m71.8-203.8-5.6-13.15 2.1 2q.85.65 1.45.9l.25.75q2.2 6.25 2.45 8.4.05.85-.2.9l-.45.2" transform="translate(192.55 294)"/><path fill-rule="evenodd" fill="#786936" d="M71.5-203.8q-.95-.15-2.55-1.45-2.2-1.9-2.65-4.3-.6-2.55-.7-6.65l-.05-1.6.65.85 5.6 13.15h-.3" transform="translate(192.55 294)"/><path stroke-width=".05" stroke-linejoin="round" stroke-linecap="round" stroke="#3f6f00" fill="none" d="m258.75 77.05-.65-.85.05 1.6q.1 4.1.7 6.65.45 2.4 2.65 4.3 1.6 1.3 2.55 1.45m-5.3-13.15 2.1 2q.85.65 1.45.9l.25.75q2.2 6.25 2.45 8.4"/><path fill-rule="evenodd" fill-opacity=".573" fill="#ff99ca" d="M19.7-157.6q1.15-1.45 3-2.55 1.8-1.2 3.35-1.3l.15-.05q1.65-.25 2.25.55.45.7-.6 1.95-.95 1.55-2.75 2.8-1.9 1.05-3.7 1.25-1.65.25-2.1-.6-.2-.25-.1-.6l.5-1.45" transform="translate(192.55 294)"/><path stroke-opacity=".302" stroke-linejoin="round" stroke-linecap="round" stroke="#000" fill="none" d="m53.5-189.6 13.95-11.3.45-.35 3.3-2.65-.15-.05-.1.1q-.95-.3-2.15-1.4-2.3-1.9-2.75-4.35-.6-2.55-.7-6.7l-.05-1.5v-.05l.05-.05h.1l.05.05.65.8 2.1 1.9 1.35.95.1.05.25.7q2.15 6.05 2.55 8.4l3.55-2.9 4.75-3.85h-.05l.05-.05h.05l9.85-7.9.4-.4h.05l3.4-2.75 2.05-1.65h3.3l.05.05v.1l-.5 3.35-.05.05-1.3 1.05-7.25 5.85-3.05 2.45-6.85 5.5-.4.35-4.35 3.5-2.2 1.75-6 4.85-14.35 11.55-19.05 15.4-.1.05q.65 3.15.45 6.9l-.25 2.4q-.95 7.2-3.75 11.5l-.15.25q-.9 1.35-2.75 2.95l9.5 1.2h.05v.05l1.75 3.25.05.1.05-.1h.1l13.55 3.5.65.15.55.15.2.05h.05l5.6 1.45.05.05.05.1h.05l.05-.05h.1l.05.05 7.3 14.1.05.1-.05.05-1.8 2.1-.1.05-.05-.05-.05-.1v.15l.25.35h.15l.05.05 2 2.7.05.05 2.25 7.65v.05l-2.5 13.95-.6 3.4-.05.05-3.35 2.6.05 4.7-.05.05-5.75 4.5q-2.5 1.65-4.55 2.7l-1.6.85q-1.9.75-3.35.95h-.05l-.25-.05-.05.05-5.2.45q-6.4.95-16.4 4h-.1l-.05-.1v-.1l.05-.05h.05l3.7-2.15.05-.05-9.5 4.75-.05.05h-.05L12.7-70.2l-.15 2.95q4.15 5.5 5.2 11.1.55 3.55-.15 7.15l1.9 1.6.05.1v.05l-1.2 3.85-.05.05-.05.05-3.45 1.2h-.05l-4.65-1.2-2.7 3.8-.05.05-2.1.4q-.1 0-.1-.05l-.05-.05-.4.05v.05l-.05.1-.05.05-1.5.25H3l-.05-.1-3.05-5.3-7.9 4.8-.1.05-6.5-.45-.1-.05v-.15l1.95-2.2 4.05-4.55.05-.05-.5-.2-.05-.05v-.05L-12-57.8l-3.5-.95-9 1.75-.1-.05-.05-.05v-.1l2.25-4.25.1-.05 4.95-1.55-.8-7.25v-.05l1.5-6.2-4.9-2.85h-.05l-7.9-11.15v-.1l-.1-5.45v-.4l-.1-4.15-.05-4.15-.1-.6v-.95l.6-1-.05-.05v-.05l-6.6-2.6-.25.3-.1.1-.4.7v.05l-.05.05-4.75 1.2-.1-.05-1.15-.6-13.1 13.1-3.75 5.15-.05.05h-.05l-2.55-.6-.05-.05-.05-.05-1.75-4.25v-.2l.05-.05 16.75-15.35-1.3-.7-.05-.05-1.95-5.1v-.15h.1l3.15-.7 1.05-3.45v-.05l.05-.05 3.1-1.2.8-2.95.05-.1h.1l5.85 2.2.2-.3h.15l2.45.9h.05l9.85-8.7q-4.15-2.8-6.85-5.15-4.5-3.85-5.2-6.6l-.6-3.35q-.25-2.1.05-4.3v-.25l.1-.6v-.05l.1-.7.7-3.75v-.15l.5-2.9.05-.1-.15-.3-.05-.1q-2-4.35-2.6-7.05-.3-1.45-.2-2.4l.1-.6q.45-1.3 3.85-5.3l.25-.3.45-.5.3-.25 4.85-5.5q4.6-5 7.6-7.65l.95-.8q1.7-1.5 2.8-2l.55-.25 1.45-.45 8.6-2.05q5.25-1.05 15.8 1.3l8.2 2.1q6.55 5.25 11.45 12.25l3.55 5.6 14.65-11.75 4.85-3.95 1-.8m-61.95 59.7.55 1.1-6.3 1.7h-.05l-1.6 1h-.05l-.45.15-.1-.05-.15.05-.35.25-2.9 1-5.75 4.9-4.1 1.5-.05-.1-.75-1.35 11.25-9.55.05.05.55.2h.1l.1-.1 1.1.45 4.15-.55 1.15-.15 3.6-.5m19 4.35.05-.05-.05.05m12.25 3.45h.05v.05h-.05v-.05m-53.75 1.75-.1-.15.15.1-.05.05m103.25-84.4v-.05.05M63.75-87.4l.05-.05v.85l-.05-.8" transform="translate(192.55 294)"/><path stroke-opacity="0" stroke-linejoin="round" stroke-linecap="round" stroke="#f0f" fill="none" d="M187.95-293.5v380h-380v-380h380" transform="translate(192.55 294)"/><path stroke-opacity="0" stroke-linejoin="round" stroke-linecap="round" stroke="#f0f" fill="none" d="m187.95-293.5-190 190 190 190m-380-380 190 190L-192 86.5M92.95-38.4H-97" transform="translate(192.55 294)"/></g></defs><path fill="none" d="M-1-1h170v191H-1z"/><use x="65.65" y="226.1" xlink:href="#a" width="381" transform="translate(-192.55 -294)" height="381"/></svg>