<svg width="369" height="324" xmlns="http://www.w3.org/2000/svg" xmlns:xlink="http://www.w3.org/1999/xlink"><defs><linearGradient y2=".45" y1=".668" x2=".701" x1=".354" spreadMethod="pad" id="c"><stop stop-color="#f0c621" offset="0"/><stop stop-color="#feefba" offset="1"/></linearGradient><linearGradient y2=".316" y1=".581" x2=".735" x1=".339" spreadMethod="pad" id="d"><stop stop-color="#b5930b" offset="0"/><stop stop-color="#d3ab0b" offset="1"/></linearGradient><linearGradient y2=".493" y1=".493" x2="1" x1="-.001" spreadMethod="pad" id="e"><stop stop-color="#690" offset="0"/><stop stop-color="#746d00" offset="1"/></linearGradient><linearGradient y2=".435" y1=".693" x2=".502" x1=".328" spreadMethod="pad" id="f"><stop stop-color="#fe9090" offset=".541"/><stop stop-color="#fecdcd" offset="1"/></linearGradient><linearGradient y2=".308" y1=".681" x2=".921" x1=".27" spreadMethod="pad" id="g"><stop stop-color="#bf0606" offset="0"/><stop stop-color="#900" offset="1"/></linearGradient><linearGradient y2=".144" y1="1.821" x2="-.888" x1="-4.242" spreadMethod="pad" id="h"><stop stop-color="#fe9090" offset="0"/><stop stop-color="#fecdcd" offset="1"/></linearGradient><linearGradient y2=".002" y1=".865" x2=".688" x1=".43" spreadMethod="pad" id="i"><stop stop-color="#494100" offset="0"/><stop stop-color="#3e5b00" offset="1"/></linearGradient><linearGradient y2="-.054" y1=".965" x2=".528" x1=".349" spreadMethod="pad" id="j"><stop stop-color="#494100" offset="0"/><stop stop-color="#3e5b00" offset="1"/></linearGradient><linearGradient y2=".5" y1=".5" x2="1.005" x1="-.005" spreadMethod="pad" id="k"><stop stop-color="#690" offset="0"/><stop stop-color="#746d00" offset="1"/></linearGradient><linearGradient y2=".413" y1=".56" x2=".769" x1=".264" spreadMethod="pad" id="l"><stop stop-color="#f0c621" offset="0"/><stop stop-color="#feefba" offset="1"/></linearGradient><linearGradient y2=".346" y1=".534" x2=".889" x1=".236" spreadMethod="pad" id="m"><stop stop-color="#b5930b" offset="0"/><stop stop-color="#d3ab0b" offset="1"/></linearGradient><linearGradient y2=".155" y1="1.07" x2=".545" x1=".313" spreadMethod="pad" id="n"><stop stop-color="#494100" offset="0"/><stop stop-color="#3e5b00" offset="1"/></linearGradient><linearGradient y2=".331" y1=".698" x2=".596" x1="-.349" spreadMethod="pad" id="o"><stop stop-color="#fe9090" offset=".541"/><stop stop-color="#fecdcd" offset="1"/></linearGradient><linearGradient y2=".498" y1=".498" x2=".999" x1=".001" spreadMethod="pad" id="p"><stop stop-color="#690" offset="0"/><stop stop-color="#746d00" offset="1"/></linearGradient><linearGradient y2="0" y1=".928" x2=".829" x1=".41" spreadMethod="pad" id="q"><stop stop-color="#494100" offset="0"/><stop stop-color="#3e5b00" offset="1"/></linearGradient><linearGradient y2=".5" y1=".5" x2=".988" x1="-.017" spreadMethod="pad" id="r"><stop stop-color="#690" offset="0"/><stop stop-color="#746d00" offset="1"/></linearGradient><linearGradient y2=".406" y1=".653" x2=".749" x1=".057" spreadMethod="pad" id="s"><stop stop-color="#bf0606" offset="0"/><stop stop-color="#900" offset="1"/></linearGradient><linearGradient y2=".784" y1=".354" x2="1.006" x1=".3" spreadMethod="pad" id="t"><stop stop-color="#580202" offset="0"/><stop stop-color="#8b0505" offset="1"/></linearGradient><linearGradient y2=".151" y1=".864" x2=".651" x1=".12" spreadMethod="pad" id="u"><stop stop-color="#f9af06" offset="0"/><stop stop-color="#cf9305" offset="1"/></linearGradient><linearGradient y2=".303" y1=".83" x2=".525" x1=".31" spreadMethod="pad" id="v"><stop stop-color="#f9af06" offset="0"/><stop stop-color="#cf9305" offset="1"/></linearGradient><linearGradient y2=".242" y1="1.275" x2="0" x1="-2.274" spreadMethod="pad" id="w"><stop stop-color="#6c4b02" offset="0"/><stop stop-color="#b07d04" offset=".976"/></linearGradient><linearGradient y2=".317" y1=".856" x2=".627" x1="-.114" spreadMethod="pad" id="x"><stop stop-color="#f9af06" offset="0"/><stop stop-color="#cf9305" offset="1"/></linearGradient><linearGradient y2=".013" y1=".987" x2="1.142" x1=".158" spreadMethod="pad" id="y"><stop stop-color="#f9af06" offset="0"/><stop stop-color="#cf9305" offset="1"/></linearGradient><linearGradient y2=".28" y1=".72" x2=".532" x1=".105" spreadMethod="pad" id="z"><stop stop-color="#f9af06" offset="0"/><stop stop-color="#cf9305" offset="1"/></linearGradient><linearGradient y2=".499" y1=".499" x2="1" x1="-.001" spreadMethod="pad" id="A"><stop stop-color="#fbb94f" offset="0"/><stop stop-color="#fdd293" offset="1"/></linearGradient><linearGradient y2="-.486" y1=".655" x2=".499" x1=".499" spreadMethod="pad" id="B"><stop stop-color="#42552e" offset="0"/><stop stop-color="#121207" offset="1"/></linearGradient><linearGradient y2=".5" y1=".5" x2="1.001" x1="-.001" spreadMethod="pad" id="C"><stop stop-color="#690" offset="0"/><stop stop-color="#746d00" offset="1"/></linearGradient><linearGradient y2=".269" y1=".945" x2=".708" x1=".347" spreadMethod="pad" id="D"><stop stop-color="#f0c621" offset="0"/><stop stop-color="#feefba" offset="1"/></linearGradient><linearGradient y2=".04" y1=".679" x2=".801" x1=".311" spreadMethod="pad" id="E"><stop stop-color="#b5930b" offset="0"/><stop stop-color="#d3ab0b" offset="1"/></linearGradient><linearGradient y2=".063" y1=".82" x2=".779" x1=".073" spreadMethod="pad" id="F"><stop stop-color="#df6262" offset=".541"/><stop stop-color="#fecdcd" offset="1"/></linearGradient><linearGradient y2="-.001" y1="1.138" x2=".689" x1=".462" spreadMethod="pad" id="G"><stop stop-color="#494100" offset="0"/><stop stop-color="#3e5b00" offset="1"/></linearGradient><linearGradient y2=".498" y1=".498" x2=".999" x1="-.001" spreadMethod="pad" id="H"><stop stop-color="#690" offset="0"/><stop stop-color="#746d00" offset="1"/></linearGradient><linearGradient y2=".492" y1=".492" x2="1.004" x1="-.004" spreadMethod="pad" id="I"><stop stop-color="#690" offset="0"/><stop stop-color="#746d00" offset="1"/></linearGradient><linearGradient y2="-.178" y1=".853" x2=".562" x1=".394" spreadMethod="pad" id="J"><stop stop-color="#494100" offset="0"/><stop stop-color="#3e5b00" offset="1"/></linearGradient><linearGradient y2=".109" y1="1.01" x2=".558" x1=".258" spreadMethod="pad" id="K"><stop stop-color="#494100" offset="0"/><stop stop-color="#3e5b00" offset="1"/></linearGradient><linearGradient y2=".5" y1=".5" x2=".999" x1="-.001" spreadMethod="pad" id="L"><stop stop-color="#fbb94f" offset="0"/><stop stop-color="#fdd293" offset="1"/></linearGradient><linearGradient y2=".497" y1=".497" x2=".999" x1=".001" spreadMethod="pad" id="M"><stop stop-color="#fbb94f" offset="0"/><stop stop-color="#fdd293" offset="1"/></linearGradient><linearGradient y2=".499" y1=".499" x2=".999" x1="0" spreadMethod="pad" id="N"><stop stop-color="#fbb94f" offset="0"/><stop stop-color="#fdd293" offset="1"/></linearGradient><linearGradient y2=".142" y1=".831" x2=".446" x1=".531" spreadMethod="pad" id="O"><stop stop-color="#bf0606" offset="0"/><stop stop-color="#900" offset="1"/></linearGradient><linearGradient y2=".5" y1=".5" x2="1" x1="0" spreadMethod="pad" id="P"><stop stop-color="#542201" offset="0"/><stop stop-color="#98651c" offset=".976"/></linearGradient><linearGradient y2=".747" y1=".424" x2="1.214" x1=".278" spreadMethod="pad" id="Q"><stop stop-color="#580202" offset="0"/><stop stop-color="#8b0505" offset="1"/></linearGradient><linearGradient y2=".484" y1=".069" x2=".372" x1=".857" spreadMethod="pad" id="R"><stop stop-color="#ce8e31" offset="0"/><stop stop-color="#fb9703" offset=".976"/></linearGradient><linearGradient y2=".5" y1=".5" x2="1" x1="-.005" spreadMethod="pad" id="S"><stop stop-color="#fbb94f" offset="0"/><stop stop-color="#fdd293" offset="1"/></linearGradient><linearGradient y2=".497" y1=".497" x2=".995" x1="-.007" spreadMethod="pad" id="T"><stop stop-color="#9b3e00" offset="0"/><stop stop-color="#867802" offset="1"/></linearGradient><linearGradient y2=".492" y1=".492" x2="1.004" x1="-.004" spreadMethod="pad" id="U"><stop stop-color="#fbb94f" offset="0"/><stop stop-color="#fdd293" offset="1"/></linearGradient><linearGradient y2=".499" y1=".499" x2=".999" x1="0" spreadMethod="pad" id="V"><stop stop-color="#fbb94f" offset="0"/><stop stop-color="#fdd293" offset="1"/></linearGradient><linearGradient y2=".491" y1=".188" x2=".229" x1=".834" spreadMethod="pad" id="W"><stop stop-color="#580202" offset="0"/><stop stop-color="#8b0505" offset="1"/></linearGradient><linearGradient y2=".499" y1=".499" x2="1.001" x1="-.001" spreadMethod="pad" id="X"><stop stop-color="#542201" offset="0"/><stop stop-color="#98651c" offset=".976"/></linearGradient><linearGradient y2=".686" y1=".546" x2=".317" x1=".538" spreadMethod="pad" id="Y"><stop stop-color="#ce8e31" offset="0"/><stop stop-color="#fb9703" offset=".976"/></linearGradient><linearGradient y2=".573" y1=".237" x2=".323" x1=".601" spreadMethod="pad" id="Z"><stop stop-color="#ac4d24" offset="0"/><stop stop-color="#683509" offset=".976"/></linearGradient><linearGradient y2=".362" y1=".937" x2=".431" x1=".737" spreadMethod="pad" id="aa"><stop stop-color="#690" offset="0"/><stop stop-color="#786401" offset="1"/></linearGradient><linearGradient y2="1.12" y1=".127" x2=".244" x1=".637" spreadMethod="pad" id="ab"><stop stop-color="#653201" offset="0"/><stop stop-color="#430101" offset="1"/></linearGradient><linearGradient y2=".5" y1=".5" x2=".999" x1="-.001" spreadMethod="pad" id="ac"><stop stop-color="#fbb94f" offset="0"/><stop stop-color="#fdd293" offset="1"/></linearGradient><linearGradient y2=".496" y1=".496" x2=".664" x1=".294" spreadMethod="pad" id="ad"><stop stop-color="#ac4d24" offset="0"/><stop stop-color="#683509" offset=".976"/></linearGradient><linearGradient y2=".913" y1=".279" x2=".562" x1=".218" spreadMethod="pad" id="ae"><stop stop-color="#ac4d24" offset="0"/><stop stop-color="#683509" offset=".976"/></linearGradient><linearGradient y2=".728" y1="-.263" x2=".186" x1=".633" spreadMethod="pad" id="af"><stop stop-color="#653201" offset="0"/><stop stop-color="#430101" offset="1"/></linearGradient><linearGradient y2=".498" y1=".498" x2=".998" x1="-.008" spreadMethod="pad" id="ag"><stop stop-color="#690" offset="0"/><stop stop-color="#786401" offset="1"/></linearGradient><linearGradient y2=".632" y1=".461" x2=".613" x1=".52" spreadMethod="pad" id="ah"><stop stop-color="#3e5b00" offset="0"/><stop stop-color="#4b3d01" offset="1"/></linearGradient><linearGradient y2=".5" y1=".5" x2=".998" x1="0" spreadMethod="pad" id="ai"><stop stop-color="#ce8e31" offset="0"/><stop stop-color="#fb9703" offset=".976"/></linearGradient><linearGradient y2=".493" y1=".493" x2="1.001" x1="-.001" spreadMethod="pad" id="aj"><stop stop-color="#fff2c4" offset="0"/><stop stop-color="#edbe00" offset="1"/></linearGradient><linearGradient y2="1.09" y1=".2" x2=".322" x1=".674" spreadMethod="pad" id="ak"><stop stop-color="#9e810c" offset="0"/><stop stop-color="#deb40b" offset="1"/></linearGradient><linearGradient y2="-.041" y1=".566" x2=".538" x1=".376" spreadMethod="pad" id="al"><stop stop-color="#690" offset="0"/><stop stop-color="#786401" offset="1"/></linearGradient><linearGradient y2=".757" y1=".192" x2=".331" x1=".475" spreadMethod="pad" id="am"><stop stop-color="#3e5b00" offset="0"/><stop stop-color="#4b3d01" offset="1"/></linearGradient><linearGradient y2=".755" y1=".608" x2=".672" x1=".273" spreadMethod="pad" id="an"><stop stop-color="#8b0505" offset="0"/><stop stop-color="#580202" offset="1"/></linearGradient><linearGradient y2="1.2" y1="-2.574" x2=".256" x1=".704" spreadMethod="pad" id="ao"><stop stop-color="#726605" offset="0"/><stop stop-color="#a8980b" offset="1"/></linearGradient><linearGradient y2=".991" y1=".001" x2="-.053" x1=".786" spreadMethod="pad" id="ap"><stop stop-color="#3e5b00" offset="0"/><stop stop-color="#4b3d01" offset="1"/></linearGradient><linearGradient y2=".932" y1=".306" x2=".503" x1=".503" spreadMethod="pad" id="aq"><stop stop-color="#2f1404" offset="0"/><stop stop-color="#622f06" offset="1"/></linearGradient><linearGradient y2=".165" y1=".847" x2=".499" x1=".499" spreadMethod="pad" id="ar"><stop stop-color="#470701" offset="0"/><stop stop-color="#653201" offset="1"/></linearGradient><linearGradient y2=".713" y1=".214" x2=".557" x1=".435" spreadMethod="pad" id="as"><stop stop-color="#3e2308" offset="0"/><stop stop-color="#845214" offset="1"/></linearGradient><linearGradient y2=".135" y1=".826" x2=".849" x1=".313" spreadMethod="pad" id="at"><stop stop-color="#a57001" offset="0"/><stop stop-color="#9d5401" offset="1"/></linearGradient><linearGradient y2=".497" y1=".497" x2=".999" x1=".001" spreadMethod="pad" id="au"><stop stop-color="#ce8e31" offset="0"/><stop stop-color="#fb9703" offset=".976"/></linearGradient><linearGradient y2=".498" y1=".498" x2=".995" x1=".001" spreadMethod="pad" id="av"><stop stop-color="#690" offset="0"/><stop stop-color="#746d00" offset="1"/></linearGradient><linearGradient y2=".168" y1=".878" x2=".69" x1=".502" spreadMethod="pad" id="aw"><stop stop-color="#494100" offset="0"/><stop stop-color="#3e5b00" offset="1"/></linearGradient><linearGradient y2=".498" y1=".498" x2="1" x1="-.004" spreadMethod="pad" id="ax"><stop stop-color="#690" offset="0"/><stop stop-color="#746d00" offset="1"/></linearGradient><linearGradient y2=".361" y1=".713" x2=".917" x1=".118" spreadMethod="pad" id="ay"><stop stop-color="#f0c621" offset="0"/><stop stop-color="#feefba" offset="1"/></linearGradient><linearGradient y2="-.003" y1=".419" x2="1.01" x1="-.207" spreadMethod="pad" id="az"><stop stop-color="#b5930b" offset="0"/><stop stop-color="#d3ab0b" offset="1"/></linearGradient><linearGradient y2=".5" y1=".5" x2=".999" x1=".001" spreadMethod="pad" id="aA"><stop stop-color="#690" offset="0"/><stop stop-color="#746d00" offset="1"/></linearGradient><linearGradient y2=".498" y1=".498" x2=".999" x1=".001" spreadMethod="pad" id="aB"><stop stop-color="#494100" offset="0"/><stop stop-color="#3e5b00" offset="1"/></linearGradient><linearGradient y2=".069" y1=".821" x2=".593" x1=".507" spreadMethod="pad" id="aC"><stop stop-color="#bf0606" offset="0"/><stop stop-color="#900" offset="1"/></linearGradient><linearGradient y2=".244" y1=".887" x2=".659" x1=".068" spreadMethod="pad" id="aD"><stop stop-color="#df6262" offset=".541"/><stop stop-color="#fecdcd" offset="1"/></linearGradient><linearGradient y2=".5" y1=".5" x2="1" x1="0" spreadMethod="pad" id="aE"><stop stop-color="#494100" offset="0"/><stop stop-color="#3e5b00" offset="1"/></linearGradient><linearGradient y2=".5" y1=".5" x2=".997" x1=".003" spreadMethod="pad" id="aF"><stop stop-color="#690" offset="0"/><stop stop-color="#746d00" offset="1"/></linearGradient><linearGradient y2=".496" y1=".496" x2="1.322" x1=".158" spreadMethod="pad" id="aG"><stop stop-color="#580202" offset="0"/><stop stop-color="#8b0505" offset="1"/></linearGradient><linearGradient y2="8.793" y1="4.082" x2="-1.056" x1="10.943" spreadMethod="pad" id="aH"><stop stop-color="#fe9090" offset="0"/><stop stop-color="#bf3232" offset="1"/></linearGradient><linearGradient y2=".5" y1=".5" x2=".995" x1="0" spreadMethod="pad" id="aI"><stop stop-color="#fbb94f" offset="0"/><stop stop-color="#fdd293" offset="1"/></linearGradient><linearGradient y2=".897" y1=".382" x2="1.098" x1=".194" spreadMethod="pad" id="aJ"><stop stop-color="#580202" offset="0"/><stop stop-color="#8b0505" offset="1"/></linearGradient><linearGradient y2=".402" y1=".692" x2="1.117" x1="-.099" spreadMethod="pad" id="aK"><stop stop-color="#f0c621" offset="0"/><stop stop-color="#feefba" offset="1"/></linearGradient><linearGradient y2=".066" y1="1.122" x2=".69" x1=".428" spreadMethod="pad" id="aL"><stop stop-color="#494100" offset="0"/><stop stop-color="#3e5b00" offset="1"/></linearGradient><linearGradient y2=".5" y1=".5" x2=".997" x1="0" spreadMethod="pad" id="aM"><stop stop-color="#690" offset="0"/><stop stop-color="#746d00" offset="1"/></linearGradient><linearGradient y2=".098" y1=".547" x2="1.535" x1="-.457" spreadMethod="pad" id="aN"><stop stop-color="#b5930b" offset="0"/><stop stop-color="#d3ab0b" offset="1"/></linearGradient><linearGradient y2="-.182" y1=".892" x2=".546" x1=".392" spreadMethod="pad" id="aO"><stop stop-color="#494100" offset="0"/><stop stop-color="#3e5b00" offset="1"/></linearGradient><linearGradient y2=".691" y1=".29" x2=".093" x1=".552" spreadMethod="pad" id="aP"><stop stop-color="#580202" offset="0"/><stop stop-color="#8b0505" offset="1"/></linearGradient><linearGradient y2=".5" y1=".5" x2="1" x1="0" spreadMethod="pad" id="aQ"><stop stop-color="#542201" offset="0"/><stop stop-color="#98651c" offset=".976"/></linearGradient><linearGradient y2=".632" y1=".277" x2=".462" x1=".77" spreadMethod="pad" id="aR"><stop stop-color="#6c3600" offset="0"/><stop stop-color="#331a00" offset="1"/></linearGradient><linearGradient y2=".444" y1="1.062" x2=".848" x1=".05" spreadMethod="pad" id="aS"><stop stop-color="#6c4b02" offset="0"/><stop stop-color="#5b4002" offset="1"/></linearGradient><linearGradient y2="-.002" y1=".697" x2=".602" x1=".4" spreadMethod="pad" id="aT"><stop stop-color="#f9af06" offset="0"/><stop stop-color="#cf9305" offset="1"/></linearGradient><linearGradient y2=".497" y1=".497" x2=".998" x1=".002" spreadMethod="pad" id="aU"><stop stop-color="#3d1f00" offset="0"/><stop stop-color="#331a00" offset="1"/></linearGradient><linearGradient y2=".542" y1=".139" x2=".727" x1=".151" spreadMethod="pad" id="aV"><stop stop-color="#ce8e31" offset="0"/><stop stop-color="#fb9703" offset=".976"/></linearGradient><linearGradient y2=".495" y1=".495" x2=".999" x1="-.004" spreadMethod="pad" id="aW"><stop stop-color="#fbb94f" offset="0"/><stop stop-color="#fdd293" offset="1"/></linearGradient><linearGradient y2=".499" y1=".499" x2="1.044" x1=".309" spreadMethod="pad" id="aX"><stop stop-color="#7c5703" offset="0"/><stop stop-color="#b07d04" offset="1"/></linearGradient><linearGradient y2=".497" y1=".497" x2=".998" x1="-.002" spreadMethod="pad" id="aY"><stop stop-color="#fbb94f" offset="0"/><stop stop-color="#fdd293" offset="1"/></linearGradient><linearGradient y2=".772" y1=".198" x2=".317" x1=".62" spreadMethod="pad" id="aZ"><stop stop-color="#653201" offset="0"/><stop stop-color="#430101" offset="1"/></linearGradient><linearGradient y2=".457" y1="1.408" x2=".632" x1="-1.017" spreadMethod="pad" id="ba"><stop stop-color="#7c5703" offset="0"/><stop stop-color="#b07d04" offset="1"/></linearGradient><linearGradient y2=".269" y1=".884" x2=".536" x1=".183" spreadMethod="pad" id="bb"><stop stop-color="#f9af06" offset="0"/><stop stop-color="#cf9305" offset="1"/></linearGradient><linearGradient y2=".356" y1=".611" x2="1.219" x1=".293" spreadMethod="pad" id="bc"><stop stop-color="#7c5703" offset="0"/><stop stop-color="#b07d04" offset="1"/></linearGradient><linearGradient y2=".845" y1=".289" x2=".305" x1=".601" spreadMethod="pad" id="bd"><stop stop-color="#3e5b00" offset="0"/><stop stop-color="#4b3d01" offset="1"/></linearGradient><linearGradient y2=".994" y1=".403" x2=".501" x1=".501" spreadMethod="pad" id="be"><stop stop-color="#690" offset="0"/><stop stop-color="#786401" offset="1"/></linearGradient><linearGradient y2=".544" y1=".268" x2=".233" x1=".875" spreadMethod="pad" id="bf"><stop stop-color="#3e5b00" offset="0"/><stop stop-color="#4b3d01" offset="1"/></linearGradient><linearGradient y2="-.11" y1=".773" x2=".419" x1=".638" spreadMethod="pad" id="bg"><stop stop-color="#690" offset="0"/><stop stop-color="#786401" offset="1"/></linearGradient><linearGradient y2=".458" y1=".294" x2=".448" x1="-.122" spreadMethod="pad" id="bh"><stop stop-color="#fe7f7f" offset="0"/><stop stop-color="#9a0404" offset="1"/></linearGradient><linearGradient y2="1.092" y1=".041" x2=".447" x1=".822" spreadMethod="pad" id="bi"><stop stop-color="#653201" offset="0"/><stop stop-color="#430101" offset="1"/></linearGradient><linearGradient y2=".995" y1=".38" x2=".729" x1=".439" spreadMethod="pad" id="bj"><stop stop-color="#690" offset="0"/><stop stop-color="#786401" offset="1"/></linearGradient><linearGradient y2=".498" y1=".498" x2=".983" x1=".004" spreadMethod="pad" id="bk"><stop stop-color="#fe5353" offset="0"/><stop stop-color="#fe9292" offset="1"/></linearGradient><linearGradient y2=".959" y1=".095" x2=".448" x1=".644" spreadMethod="pad" id="bl"><stop stop-color="#653201" offset="0"/><stop stop-color="#430101" offset="1"/></linearGradient><linearGradient y2=".305" y1=".151" x2=".675" x1=".277" spreadMethod="pad" id="bm"><stop stop-color="#900" offset="0"/><stop stop-color="#d60707" offset="1"/></linearGradient><linearGradient y2=".5" y1=".5" x2=".997" x1=".003" spreadMethod="pad" id="bn"><stop stop-color="#fe5353" offset="0"/><stop stop-color="#fe9292" offset="1"/></linearGradient><linearGradient y2="1.049" y1="-.192" x2=".383" x1=".574" spreadMethod="pad" id="bo"><stop stop-color="#653201" offset="0"/><stop stop-color="#430101" offset="1"/></linearGradient><linearGradient y2="-.145" y1="1.166" x2=".595" x1=".401" spreadMethod="pad" id="bp"><stop stop-color="#a57001" offset="0"/><stop stop-color="#9d5401" offset="1"/></linearGradient><linearGradient y2="-.011" y1=".967" x2=".95" x1=".073" spreadMethod="pad" id="bq"><stop stop-color="#f9af06" offset="0"/><stop stop-color="#cf9305" offset="1"/></linearGradient><linearGradient y2="52" y1="52" x2="-33.909" x1="15.243" spreadMethod="pad" id="br"><stop stop-color="#fb9804" offset="0"/><stop stop-color="#f60" offset="1"/></linearGradient><linearGradient y2="24.348" y1="49.252" x2="-73.392" x1="45.392" spreadMethod="pad" id="bs"><stop stop-color="#ce8e31" offset="0"/><stop stop-color="#fb9703" offset=".976"/></linearGradient><linearGradient y2=".5" y1=".5" x2="1" x1="0" spreadMethod="pad" id="bt"><stop stop-color="#542201" offset="0"/><stop stop-color="#98651c" offset=".976"/></linearGradient><linearGradient y2=".5" y1=".5" x2=".999" x1="-.005" spreadMethod="pad" id="bu"><stop stop-color="#fbb94f" offset="0"/><stop stop-color="#fdd293" offset="1"/></linearGradient><linearGradient y2=".569" y1=".456" x2=".17" x1=".803" spreadMethod="pad" id="bv"><stop stop-color="#ce8e31" offset="0"/><stop stop-color="#fb9703" offset=".976"/></linearGradient><linearGradient y2=".641" y1=".404" x2=".056" x1=".864" spreadMethod="pad" id="bw"><stop stop-color="#ce8e31" offset="0"/><stop stop-color="#fb9703" offset=".976"/></linearGradient><linearGradient y2=".889" y1=".182" x2=".377" x1=".553" spreadMethod="pad" id="bx"><stop stop-color="#653201" offset="0"/><stop stop-color="#430101" offset="1"/></linearGradient><linearGradient y2=".272" y1=".922" x2=".5" x1=".5" spreadMethod="pad" id="by"><stop stop-color="#6c4b02" offset="0"/><stop stop-color="#3a2801" offset="1"/></linearGradient><linearGradient y2=".169" y1=".757" x2=".5" x1=".5" spreadMethod="pad" id="bz"><stop stop-color="#42552e" offset="0"/><stop stop-color="#121207" offset="1"/></linearGradient><linearGradient y2="-.006" y1="1.016" x2=".602" x1=".198" spreadMethod="pad" id="bA"><stop stop-color="#f9af06" offset="0"/><stop stop-color="#cf9305" offset="1"/></linearGradient><linearGradient y2=".5" y1=".5" x2=".999" x1="-.005" spreadMethod="pad" id="bB"><stop stop-color="#fbb94f" offset="0"/><stop stop-color="#fdd293" offset="1"/></linearGradient><linearGradient y2=".599" y1=".287" x2=".598" x1=".266" spreadMethod="pad" id="bC"><stop stop-color="#ccc" offset="0"/><stop stop-color="#331a00" offset="1"/></linearGradient><linearGradient y2=".072" y1=".698" x2=".667" x1=".414" spreadMethod="pad" id="bD"><stop stop-color="#6c3600" offset="0"/><stop stop-color="#331a00" offset="1"/></linearGradient><linearGradient y2="-.097" y1="1.097" x2=".649" x1=".351" spreadMethod="pad" id="bE"><stop stop-color="#6c3600" offset="0"/><stop stop-color="#331a00" offset="1"/></linearGradient><linearGradient y2=".5" y1=".5" x2="1" x1="-.005" spreadMethod="pad" id="bF"><stop stop-color="#3d1f00" offset="0"/><stop stop-color="#331a00" offset="1"/></linearGradient><linearGradient y2=".5" y1=".5" x2=".996" x1="-.004" spreadMethod="pad" id="bG"><stop stop-color="#3d1f00" offset="0"/><stop stop-color="#331a00" offset="1"/></linearGradient><linearGradient y2="1.24" y1=".686" x2=".498" x1=".498" spreadMethod="pad" id="bH"><stop stop-color="#cc0" offset="0"/><stop stop-color="#8e9415" offset="1"/></linearGradient><linearGradient y2=".601" y1=".165" x2=".625" x1=".625" spreadMethod="pad" id="bI"><stop stop-color="#6d6d01" offset="0"/><stop stop-color="#8e9415" offset="1"/></linearGradient><linearGradient y2=".384" y1=".759" x2=".494" x1=".494" spreadMethod="pad" id="bJ"><stop stop-color="#42552e" offset="0"/><stop stop-color="#121207" offset="1"/></linearGradient><linearGradient y2=".824" y1=".328" x2=".683" x1=".409" spreadMethod="pad" id="bK"><stop stop-color="#6d6d01" offset="0"/><stop stop-color="#8e9415" offset="1"/></linearGradient><linearGradient y2=".813" y1=".288" x2=".744" x1=".452" spreadMethod="pad" id="bL"><stop stop-color="#cc0" offset="0"/><stop stop-color="#8e9415" offset="1"/></linearGradient><linearGradient y2=".999" y1=".001" x2=".506" x1=".506" spreadMethod="pad" id="bM"><stop stop-color="#653201" offset="0"/><stop stop-color="#430101" offset="1"/></linearGradient><linearGradient y2=".554" y1=".414" x2="-.178" x1=".962" spreadMethod="pad" id="bN"><stop stop-color="#ce8e31" offset="0"/><stop stop-color="#fb9703" offset=".976"/></linearGradient><linearGradient y2=".986" y1=".296" x2=".668" x1=".221" spreadMethod="pad" id="bO"><stop stop-color="#cc0" offset="0"/><stop stop-color="#8e9415" offset="1"/></linearGradient><linearGradient y2="-.289" y1=".657" x2=".495" x1=".495" spreadMethod="pad" id="bP"><stop stop-color="#42552e" offset="0"/><stop stop-color="#121207" offset="1"/></linearGradient><linearGradient y2=".605" y1=".037" x2=".479" x1="-.1" spreadMethod="pad" id="bQ"><stop stop-color="#6d6d01" offset="0"/><stop stop-color="#8e9415" offset="1"/></linearGradient><linearGradient y2=".5" y1=".5" x2=".999" x1="0" spreadMethod="pad" id="bR"><stop stop-color="#542201" offset="0"/><stop stop-color="#98651c" offset=".976"/></linearGradient><linearGradient y2=".834" y1=".396" x2=".048" x1=".955" spreadMethod="pad" id="bS"><stop stop-color="#ce8e31" offset="0"/><stop stop-color="#fb9703" offset=".976"/></linearGradient><linearGradient y2=".498" y1=".498" x2=".999" x1="-.001" spreadMethod="pad" id="bT"><stop stop-color="#542201" offset="0"/><stop stop-color="#98651c" offset=".976"/></linearGradient><linearGradient y2=".393" y1=".755" x2=".148" x1=".898" spreadMethod="pad" id="bU"><stop stop-color="#653201" offset="0"/><stop stop-color="#430101" offset="1"/></linearGradient><linearGradient y2="-.018" y1="1.059" x2=".733" x1=".326" spreadMethod="pad" id="bV"><stop stop-color="#a57001" offset="0"/><stop stop-color="#9d5401" offset="1"/></linearGradient><linearGradient y2=".05" y1=".985" x2=".671" x1="-.083" spreadMethod="pad" id="bW"><stop stop-color="#a57001" offset="0"/><stop stop-color="#9d5401" offset="1"/></linearGradient><linearGradient y2=".328" y1=".661" x2="-.078" x1="1.16" spreadMethod="pad" id="bX"><stop stop-color="#653201" offset="0"/><stop stop-color="#430101" offset="1"/></linearGradient><linearGradient y2=".279" y1=".785" x2=".061" x1="1.193" spreadMethod="pad" id="bY"><stop stop-color="#653201" offset="0"/><stop stop-color="#430101" offset="1"/></linearGradient><linearGradient y2=".088" y1=".915" x2=".69" x1=".254" spreadMethod="pad" id="bZ"><stop stop-color="#a57001" offset="0"/><stop stop-color="#9d5401" offset="1"/></linearGradient><linearGradient y2="-.181" y1="1.139" x2=".599" x1=".398" spreadMethod="pad" id="ca"><stop stop-color="#f9af06" offset="0"/><stop stop-color="#cf9305" offset="1"/></linearGradient><linearGradient y2="-.298" y1="1.314" x2=".575" x1=".419" spreadMethod="pad" id="cb"><stop stop-color="#f9af06" offset="0"/><stop stop-color="#cf9305" offset="1"/></linearGradient><linearGradient y2=".152" y1=".326" x2=".422" x1=".497" spreadMethod="pad" id="cc"><stop stop-color="#807941" offset="0"/><stop stop-color="#38351d" offset="1"/></linearGradient><linearGradient y2=".779" y1=".229" x2=".102" x1=".496" spreadMethod="pad" id="cd"><stop stop-color="#ffc" offset="0"/><stop stop-color="#ccc896" offset="1"/></linearGradient><linearGradient y2=".997" y1=".021" x2="-.047" x1="1.154" spreadMethod="pad" id="ce"><stop stop-color="#ffc" offset="0"/><stop stop-color="#ccc896" offset="1"/></linearGradient><linearGradient y2="-.091" y1=".443" x2=".518" x1=".858" spreadMethod="pad" id="cf"><stop stop-color="#cad57d" offset="0"/><stop stop-color="#6a5e2f" offset="1"/></linearGradient><linearGradient y2=".97" y1=".024" x2="-.169" x1=".895" spreadMethod="pad" id="cg"><stop stop-color="#ffc" offset="0"/><stop stop-color="#ccc896" offset="1"/></linearGradient><linearGradient y2=".944" y1=".04" x2="-.232" x1="1.547" spreadMethod="pad" id="ch"><stop stop-color="#ffc" offset="0"/><stop stop-color="#ccc896" offset="1"/></linearGradient><linearGradient y2=".901" y1=".094" x2="-.023" x1="1.223" spreadMethod="pad" id="ci"><stop stop-color="#ffc" offset="0"/><stop stop-color="#ccc896" offset="1"/></linearGradient><linearGradient y2=".439" y1=".553" x2=".08" x1=".803" spreadMethod="pad" id="cj"><stop stop-color="#ca0505" offset="0"/><stop stop-color="#8b0505" offset="1"/></linearGradient><linearGradient y2=".927" y1=".054" x2=".389" x1=".664" spreadMethod="pad" id="ck"><stop stop-color="#653201" offset="0"/><stop stop-color="#430101" offset="1"/></linearGradient><linearGradient y2=".499" y1=".499" x2="1" x1="0" spreadMethod="pad" id="cl"><stop stop-color="#fe5353" offset="0"/><stop stop-color="#fe9292" offset="1"/></linearGradient><linearGradient y2=".431" y1=".798" x2=".727" x1=".123" spreadMethod="pad" id="cm"><stop stop-color="#6c3600" offset="0"/><stop stop-color="#331a00" offset="1"/></linearGradient><linearGradient y2=".493" y1=".493" x2=".984" x1=".016" spreadMethod="pad" id="cn"><stop stop-color="#ac4d24" offset="0"/><stop stop-color="#683509" offset=".976"/></linearGradient><linearGradient y2=".5" y1=".5" x2=".987" x1="-.001" spreadMethod="pad" id="co"><stop stop-color="#ac4d24" offset="0"/><stop stop-color="#683509" offset=".976"/></linearGradient><linearGradient y2=".608" y1=".156" x2=".212" x1=".831" spreadMethod="pad" id="cp"><stop stop-color="#ac4d24" offset="0"/><stop stop-color="#683509" offset=".976"/></linearGradient><linearGradient y2=".927" y1=".073" x2="-.56" x1=".909" spreadMethod="pad" id="cq"><stop stop-color="#ffc" offset="0"/><stop stop-color="#ccc896" offset="1"/></linearGradient><linearGradient y2=".384" y1=".748" x2=".131" x1=".809" spreadMethod="pad" id="cr"><stop stop-color="#653201" offset="0"/><stop stop-color="#430101" offset="1"/></linearGradient><linearGradient y2=".492" y1=".492" x2="1.005" x1="-.005" spreadMethod="pad" id="cs"><stop stop-color="#ac4d24" offset="0"/><stop stop-color="#683509" offset=".976"/></linearGradient><linearGradient y2=".23" y1=".923" x2=".143" x1=".839" spreadMethod="pad" id="ct"><stop stop-color="#653201" offset="0"/><stop stop-color="#430101" offset="1"/></linearGradient><linearGradient y2="-.17" y1="1.181" x2=".609" x1=".42" spreadMethod="pad" id="cu"><stop stop-color="#a57001" offset="0"/><stop stop-color="#9d5401" offset="1"/></linearGradient><linearGradient y2="-.079" y1="1.066" x2=".654" x1=".341" spreadMethod="pad" id="cv"><stop stop-color="#a57001" offset="0"/><stop stop-color="#9d5401" offset="1"/></linearGradient><linearGradient y2=".36" y1=".853" x2=".181" x1=".795" spreadMethod="pad" id="cw"><stop stop-color="#653201" offset="0"/><stop stop-color="#430101" offset="1"/></linearGradient><linearGradient y2="-.242" y1="1.255" x2=".583" x1=".422" spreadMethod="pad" id="cx"><stop stop-color="#a57001" offset="0"/><stop stop-color="#9d5401" offset="1"/></linearGradient><linearGradient y2="-.024" y1="1.021" x2=".763" x1=".174" spreadMethod="pad" id="cy"><stop stop-color="#a57001" offset="0"/><stop stop-color="#9d5401" offset="1"/></linearGradient><linearGradient y2="-.052" y1="1.091" x2=".695" x1=".364" spreadMethod="pad" id="cz"><stop stop-color="#a57001" offset="0"/><stop stop-color="#9d5401" offset="1"/></linearGradient><linearGradient y2="-.051" y1="1.162" x2=".646" x1=".408" spreadMethod="pad" id="cA"><stop stop-color="#a57001" offset="0"/><stop stop-color="#9d5401" offset="1"/></linearGradient><linearGradient y2=".787" y1=".165" x2=".666" x1=".147" spreadMethod="pad" id="cB"><stop stop-color="#ac4d24" offset="0"/><stop stop-color="#683509" offset=".976"/></linearGradient><g id="cF" stroke-opacity="0" stroke-linejoin="round" stroke-linecap="round" stroke="#f0f" fill="none"><path d="M187.95-293.5v380h-380v-380h380M92.95.6H-97" transform="translate(192.55 294)"/><path d="m187.95-293.5-190 190 190 190m-379.95 0 189.95-190-190-190" transform="translate(192.55 294)"/></g><g transform="translate(119.9 106.35)" id="cG"><use xlink:href="#a" width="41.8" transform="translate(27.6 -58.95)" height="41.8"/><use xlink:href="#a" width="41.8" transform="translate(27.6 -58.95)" height="41.8"/><use xlink:href="#a" width="41.8" transform="matrix(4.9142 0 0 1.3776 -97.607 48.309)" height="41.8"/><use xlink:href="#b" width="239.8" transform="translate(-119.9 -106.35)" height="204.95"/><use xlink:href="#a" width="41.8" transform="matrix(.8466 0 0 .5335 -12.893 -33.1)" height="41.8"/><use xlink:href="#a" width="41.8" transform="matrix(.6052 -.0371 0 .4263 -56.4 -28.433)" height="41.8"/><use xlink:href="#a" width="41.8" transform="translate(70.65 -88.05) scale(.6579)" height="41.8"/><use xlink:href="#a" width="41.8" transform="translate(75.05 -100.95) scale(.6579)" height="41.8"/><use xlink:href="#a" width="41.8" transform="translate(90.4 -61.25) scale(.6579)" height="41.8"/><use xlink:href="#a" width="41.8" transform="translate(34.2 -104.3) scale(.6579)" height="41.8"/><use xlink:href="#a" width="41.8" transform="translate(-13.7 -96.6) scale(.6579)" height="41.8"/><use xlink:href="#a" width="41.8" transform="translate(-5.176 -34.627) scale(.3242)" height="41.8"/><use xlink:href="#a" width="41.8" transform="translate(-82.6 -55) scale(.6579)" height="41.8"/></g><g id="b"><path fill-rule="evenodd" fill="url(#c)" d="M92-83.3q-.1-1.65-1.9-3.65-.05 1.4-1.9.5-2.35-1.15-1.1-2.3-6.6-2.2-12.05 0l-1.1-1.2q5.5-2.3 11.05-1 6.15 1.35 8.3 7.8L92-83.3" transform="translate(119.9 106.35)"/><path fill-rule="evenodd" fill="url(#d)" d="M75.05-88.75q5.45-2.2 12.05 0-1.25 1.15 1.1 2.3 1.85.9 1.9-.5 1.8 2 1.9 3.65-6.4-.6-13.15.25-1.4-2.85-3.8-5.7" transform="translate(119.9 106.35)"/><path fill-rule="evenodd" fill="url(#e)" d="m92-83.3 1.3.15q7.1.8 13.7 3.45-22.6-4-24.9-.45l-2.5-1.1-.75-1.8Q85.6-83.9 92-83.3" transform="translate(119.9 106.35)"/><path fill-rule="evenodd" fill="url(#f)" d="M83.75-37.7q5.5-6.4 8.1-17 .85-7.85-2.75-15.25-2.5 1.3-6.55-2.6-4.05-3.9-1.6-5.15-9.05-4.55-21.2.25-4.3 1.45-7.8 5.65l-1.1-.75q1.55-2 3.5-3.6L58-78.7q1.4-.85 3-1.5 5.35-2.3 12.4-2.9l2.45.6 3.75 1.25 2.5 1.1q4.45 2.25 7.45 5.65 2.7 4.7 3.85 9.4.6 2.55.7 5.1l.05 1.3-.25 3.6q-.75 5.3-3.55 10.65-1.2 3.5-3.25 6.35-2.05 2.85-4.9 5l-1.6-1.5q1.65-1.4 3.15-3.1" transform="translate(119.9 106.35)"/><path fill-rule="evenodd" fill="url(#g)" d="M51.95-71.8q3.5-4.2 7.8-5.65 12.15-4.8 21.2-.25-2.45 1.25 1.6 5.15 4.05 3.9 6.55 2.6 3.6 7.4 2.75 15.25-2.6 10.6-8.1 17-5.75-6.25-17.1-8.5l-1.15-3.45q2.15-.2 4.3 1.8-2.9-6.5-9.55-12.5 2.2-1.1 4.6 0Q59.8-66.9 50.2-69.3l.7-1.15q1.85.15 3.7.95l-2.65-2.3m35.35 9.35q-.5-.05-.8.35-.4.35-.4.85 0 .45.4.8.3.35.8.4.5-.05.85-.4.35-.35.35-.8l-.35-.85q-.35-.4-.85-.35m1.15-2.5q.65-.6.65-1.45 0-.9-.65-1.5-.65-.65-1.5-.65t-1.45.65q-.65.6-.65 1.5 0 .85.65 1.45.6.65 1.45.65t1.5-.65" transform="translate(119.9 106.35)"/><path fill-rule="evenodd" fill="url(#h)" d="M88.45-64.95q-.65.65-1.5.65t-1.45-.65q-.65-.6-.65-1.45 0-.9.65-1.5.6-.65 1.45-.65t1.5.65q.65.6.65 1.5 0 .85-.65 1.45m-1.15 2.5q.5-.05.85.35l.35.85q0 .45-.35.8-.35.35-.85.4-.5-.05-.8-.4-.4-.35-.4-.8 0-.5.4-.85.3-.4.8-.35" transform="translate(119.9 106.35)"/><path fill-rule="evenodd" fill="url(#i)" d="M94.15-58.7 94.1-60q4.4-3.5 9.35-4.15 4.25 9.3 3.95 15l-4.1-2.2q-3.7-4.85-9.15-7.35" transform="translate(119.9 106.35)"/><path fill-rule="evenodd" fill="url(#j)" d="M93.4-65.1q-1.15-4.7-3.85-9.4-3-3.4-7.45-5.65 2.3-3.55 24.9.45l.75.3q-4.3 9.95-14.35 14.3" transform="translate(119.9 106.35)"/><path fill-rule="evenodd" fill="url(#k)" d="m103.45-64.15 1.2-.15q2.05 4.4 3.25 8.25l.45 1.55q.95 3.65 1.1 6.7-1.05-.7-2.05-1.35.3-5.7-3.95-15" transform="translate(119.9 106.35)"/><path fill-rule="evenodd" fill="url(#l)" d="m108.35-54.5-.45-1.55q6.95 2.45 5.15 11.1l-.95-.8q.7-1.2.45-3.5-.7 1.2-1.25.4-.4-2.9.65-2.45-.7-2.6-3.6-3.2" transform="translate(119.9 106.35)"/><path fill-rule="evenodd" fill="url(#m)" d="M109.45-47.8q-.15-3.05-1.1-6.7 2.9.6 3.6 3.2-1.05-.45-.65 2.45.55.8 1.25-.4.25 2.3-.45 3.5l-2.65-2.05" transform="translate(119.9 106.35)"/><path fill-rule="evenodd" fill="url(#n)" d="m119.4-38.3-2.5 1.3q-3.85 1.8-7.8 2.45l-.8.15-1.35.15q1.45-4.4.15-10.6l-1.1-2.3q7.45 2 13.4 8.85" transform="translate(119.9 106.35)"/><path fill-rule="evenodd" fill="url(#o)" d="m93.9-55.1.25-3.6q5.45 2.5 9.15 7.35 1.5 1.9 2.7 4.2l1.1 2.3q1.3 6.2-.15 10.6-1 2.95-2.85 5.25-.4 1-2.65 3.35t-7.2 4.45l-1.1-2.05q2.6-1.25 4.6-2.65 8.95-6.15 7.35-15l-.2-.85q-2.75 1.3-4.8-2.15-.55-4.2 2.45-3.6-3-5.25-8.65-7.6m10.2 17.3q0 .7-.55 1.3-.6.55-1.3.55-.75 0-1.3-.55-.55-.6-.55-1.3 0-.75.55-1.3.55-.6 1.3-.55.7-.05 1.3.55.55.55.55 1.3" transform="translate(119.9 106.35)"/><path fill-rule="evenodd" fill="url(#p)" d="M107.4-49.15q1 .65 2.05 1.35l2.65 2.05.95.8 3.85 3.75 2.5 2.9q-5.95-6.85-13.4-8.85-1.2-2.3-2.7-4.2l4.1 2.2" transform="translate(119.9 106.35)"/><path fill-rule="evenodd" fill="url(#q)" d="M108.75-26.1q-2.95-.4-4.65-2.9 1.85-2.3 2.85-5.25l1.35-.15q1.5 5.3.45 8.3" transform="translate(119.9 106.35)"/><path fill-rule="evenodd" fill="url(#r)" d="M109.1-34.55q1.7 4.65.9 8.5l-1.25-.05q1.05-3-.45-8.3l.8-.15" transform="translate(119.9 106.35)"/><path fill-rule="evenodd" fill="url(#s)" d="M87.1-38.1q2.05-2.85 3.25-6.35 2.8-5.35 3.55-10.65 5.65 2.35 8.65 7.6-3-.6-2.45 3.6 2.05 3.45 4.8 2.15l.2.85q1.6 8.85-7.35 15 .05-3.95-4.45-6.8-1.55-4.25-6.2-5.4m17 .3q0-.75-.55-1.3-.6-.6-1.3-.55-.75-.05-1.3.55-.55.55-.55 1.3 0 .7.55 1.3.55.55 1.3.55.7 0 1.3-.55.55-.6.55-1.3" transform="translate(119.9 106.35)"/><path fill-rule="evenodd" fill="url(#t)" d="M82.2-33.1q2.85-2.15 4.9-5 4.65 1.15 6.2 5.4 4.5 2.85 4.45 6.8-2 1.4-4.6 2.65-3.75-6.6-8.35-6.25-1.1-1.95-2.6-3.6" transform="translate(119.9 106.35)"/><path fill-rule="evenodd" fill="url(#u)" d="m94.25-21.2 1.2 2.7q2.5 12.6-3.1 20.45L91.25-.3q4.35-4.8 2.9-14.05-1.5-9.25-8-10.45l-1.35-4.7q4.6-.35 8.35 6.25l1.1 2.05" transform="translate(119.9 106.35)"/><path fill-rule="evenodd" fill="url(#v)" d="m80.6-34.6 1.6 1.5q1.5 1.65 2.6 3.6l1.35 4.7q2.3 10.75-2.95 19l-1.05-1.4q4.75-10.75.55-20.75l-2-1.75q1.35 5.35-.05 9.5.35-4.55-1.45-10.65l-2.9-1.95q1.45 3.7.5 5.9-.05-2.95-2-6.8-4.85-2.55-9.85-3.15-.25-2.1-.95-3.8 10.8 1.3 16.6 6.05" transform="translate(119.9 106.35)"/><path fill-rule="evenodd" fill="url(#w)" d="M86.15-24.8q6.5 1.2 8 10.45Q95.6-5.1 91.25-.3l-.85-1.25q1.25-2.15 1.35-7.4l-2 6.6q-2.6-2.8-6.55-3.45 5.25-8.25 2.95-19M83-3.25q3.15 1.45 5.7 5.3.85 5.7.3 9 1-3.25.5-7.7l.9 1.7q1.4 7.65-2.6 12.7-1.9 2.8-4.6 4.7-6.8-2.15-8.65-6.3Q81.7 8.4 83-3.25" transform="translate(119.9 106.35)"/><path fill-rule="evenodd" fill="url(#x)" d="M92.35 1.95q2.9 16.9-10.9 23.55l-1.85-1.1 3.6-1.95q2.7-1.9 4.6-4.7 4-5.05 2.6-12.7l-.9-1.7q.5 4.45-.5 7.7.55-3.3-.3-9-2.55-3.85-5.7-5.3l.2-2.55q3.95.65 6.55 3.45l.65.8.85 1.25 1.1 2.25" transform="translate(119.9 106.35)"/><path fill-rule="evenodd" fill="url(#y)" d="m90.4-1.55-.65-.8 2-6.6q-.1 5.25-1.35 7.4" transform="translate(119.9 106.35)"/><path fill-rule="evenodd" fill="url(#z)" d="M83.2-5.8 83-3.25q-1.3 11.65-8.45 19.4l-1.5-1.65q9.3-12.45 7.1-18.25l-.95-1.5q.25 3.45-1.05 6.3V-6.7q-3.35-4.45-7.25-6.85-.35 5.8-1.85 9.25 1.2-4.2 0-9.3.3 3.05-.9 5.2 1-2.7.05-6.55-3.05-1.3-6.35-1.55l-.15-3.85q12.9 3.6 20.45 13.15l1.05 1.4" transform="translate(119.9 106.35)"/><path fill-rule="evenodd" fill="#ffc742" d="m84.45 27.1.35.2-.45-.05.1-.15" transform="translate(119.9 106.35)"/><path fill-rule="evenodd" fill="url(#A)" d="m81.45 25.5 3 1.6-.1.15-2.7-.75Q68.3 19.8 63.6 9.4 54.65.65 41.95-2.55q-2.1-1.75 3.6-.6 4.75 1.2 8.7 3.2L55.7.8q7.75 4.35 12 11.9l.15.3.6.9 2.45 3.05 1.35 1.45q3.2 3.3 7.35 6l1.85 1.1" transform="translate(119.9 106.35)"/><path fill-rule="evenodd" fill="#5d6f34" d="M78.1 34.85q9.5 1.45 18.2-.4v2.05l1 .4 1-2.65 6.35 2.05q2.25 2.15 2.25 4.3-4.05 4.85-4.3-1.85-2.85 4.25-6.85 0-6.1 3.95-18.55 1.7l.9-5.6M42.45 31.2l5.75 1.05 1.95 2.85q.65 5.45-4.3 1.7-4.2 1.3-11.4-6.05l.7-1.75 1.35-3.45 2.9 1.55 3.05 4.1m1.25 19.25q3.3-8.7 4.1 1.05.4 3.6-2.95 2.3-1.25 4.45-6.95 3.25-1.1-1.3-2.65-2.4V52.9l5.8-1.25.3-.15 2.35-1.05M27.95 21.2l.85 4.6q-5.8 5-6.75-3.15l1-3.5h2.05l2.85 2.05m2.3 36.9 2.2 3.6q-3.65 7.3-8.4.25v-3.2l1.65-3.25 1.6-1.25 2 2.6.95 1.25" transform="translate(119.9 106.35)"/><path fill-rule="evenodd" fill="url(#B)" d="m106.9 40.6-1.65 6.15-2.85 2.05-6.1-1.65 1.4-2.85h-1.85q-.05 2.25-2.05 3.25l-5.3-1.45H76.25l.95-5.65q12.45 2.25 18.55-1.7 4 4.25 6.85 0 .25 6.7 4.3 1.85" transform="translate(119.9 106.35)"/><path fill-rule="evenodd" fill="url(#C)" d="m-26-90.9.15-1.25q3.5 2.65 7.4 4.55l1.7.8q3.1 1.3 6.45 2.2l-.25.5-3.05 1.35q-7.75-3.7-12.4-8.15" transform="translate(119.9 106.35)"/><path fill-rule="evenodd" fill="url(#D)" d="M-18.45-87.6q6.9-8.85 14.5-6.45l-2.1 2.55q-1.9.15-2.55-1.3-5.45 1.25-8.15 6l-1.7-.8" transform="translate(119.9 106.35)"/><path fill-rule="evenodd" fill="url(#E)" d="M-10.3-84.6q-3.35-.9-6.45-2.2 2.7-4.75 8.15-6 .65 1.45 2.55 1.3l-.45.6q-2.15 2.9-3.8 6.3" transform="translate(119.9 106.35)"/><path fill-rule="evenodd" fill="url(#F)" d="M-24.75-66.5q-.3-1.85-.2-3.95.1-2.3 1.4-4.45 2.6-4.35 9.95-7.85l3.05-1.35q11-2.3 19.3.35l2 1.6-5.6-1.2q.6 2.05-2.75 2.4-6-.05-4.3-2.6-6.95.45-14.1 3.6-6.45 4.15-7.5 9.05l-.2 1.8.45 3-1.5-.4m31.5-11.55q-.7-.05-1.2-.55Q5-79.1 5-79.8t.55-1.2q.5-.55 1.2-.5.7-.05 1.2.5.5.5.5 1.2t-.5 1.2q-.5.5-1.2.55m-5.25.8q-.4-.35-.4-.85 0-.55.4-.95.35-.4.9-.35.55-.05.95.35l.35.95q0 .5-.35.85-.4.4-.95.45-.55-.05-.9-.45" transform="translate(119.9 106.35)"/><path fill-rule="evenodd" fill="url(#G)" d="m-10.55-84.1.25-.5q1.65-3.4 3.8-6.3 4.8-5.15 9.55-7.8Q8.3-91.65 9-86.85l-1.7.7-.8.35 2.25 2.05q-8.3-2.65-19.3-.35" transform="translate(119.9 106.35)"/><path fill-rule="evenodd" fill="url(#H)" d="m-3.95-94.05 3.1-3.05 3.85-3 3 3q4 4.4 5.85 9.2L9-86.85q-.7-4.8-5.95-11.85-4.75 2.65-9.55 7.8l.45-.6 2.1-2.55" transform="translate(119.9 106.35)"/><path fill-rule="evenodd" fill="url(#I)" d="m-30.35-73.2-1-.5 7.65-2.55.15 1.35-6.8 1.7" transform="translate(119.9 106.35)"/><path fill-rule="evenodd" fill="url(#J)" d="m-24.95-70.45-5.4-2.75 6.8-1.7q-1.3 2.15-1.4 4.45" transform="translate(119.9 106.35)"/><path fill-rule="evenodd" fill="url(#K)" d="M-23.7-76.25q-3.15-6.7-2.3-14.65 4.65 4.45 12.4 8.15-7.35 3.5-9.95 7.85l-.15-1.35" transform="translate(119.9 106.35)"/><path fill-rule="evenodd" fill="url(#L)" d="m-36.65-71.4-1.85-2.85q5.95 5.9 13.75 7.75l1.5.4 3 .85q5.4 1.7 9.15 4l3.25 3.2q-6.7-4.25-17.85-6.65-6.45-2.85-10.95-6.7" transform="translate(119.9 106.35)"/><path fill-rule="evenodd" fill="url(#M)" d="M-32.5-60.35q3.3.3 6.6.15.25 1.15-.25 2-12.9-.5-26.1-7.65l-.65-.8q2.4 1.2 4.75 2.25 3.85 1.6 7.75 2.65l4.55.95 3.35.45" transform="translate(119.9 106.35)"/><path fill-rule="evenodd" fill="url(#N)" d="m-64.75-80.6-2.7.2q6.2-3.1 10.95-2.45-1.05-3.3-4.4-6.65 8.65 1.35 13 9.95 6.25 11.35 15.4 19.2l-3.35-.45q-10.6-8.1-15.7-19.2-1.85-4.5-6.6-7.75 2.85 4.45 2.7 6.2-3.25-1.35-9.3.95" transform="translate(119.9 106.35)"/><path fill-rule="evenodd" fill="url(#O)" d="m-23.25-66.1-.45-3q.9 2.1 3.45 3.85l-3-.85m-.25-4.8q1.05-4.9 7.5-9.05 7.15-3.15 14.1-3.6-1.7 2.55 4.3 2.6 3.35-.35 2.75-2.4l5.6 1.2q3.1 2.25 6.2 3.55-.65 1.8-.8 3.75Q7.5-75.65-1-69.4l-4.05-.4q-3-2.6-4-6.65.2 3.5 1.9 6.95-1.7.2-3.8 1.65l-1.15-3.1-.05 1.2.05 2.5q-6.9-.3-11.4-3.65m25-6.35q.35.4.9.45.55-.05.95-.45.35-.35.35-.85l-.35-.95q-.4-.4-.95-.35-.55-.05-.9.35-.4.4-.4.95 0 .5.4.85m5.25-.8q.7-.05 1.2-.55t.5-1.2q0-.7-.5-1.2-.5-.55-1.2-.5-.7-.05-1.2.5-.55.5-.55 1.2t.55 1.2q.5.5 1.2.55" transform="translate(119.9 106.35)"/><path fill-rule="evenodd" fill="url(#P)" d="M-25.9-60.2q-5-3.95-8.65-8.4l13.35 8.15q5.95 6.3 6.8 11.3-4.35-5.85-8.75-6.4 6.95 7.1 7.15 12.15-8.5 5.15-7.8 8.4-.85 2 2.75 3.1l2.7.45q5.6 1.3 6.7 3.05l-3.55-.05q-1.35-.85-3.45-1.55-4.65.15-5.9-1.15-4.4-.4-6.3 2.3l-.2.3-.7 1.55-1.55 1.15q-4.4-.25-7.85-1.65l-.05-.05q-2.75-1.1-4.9-3-1.45 2.7 0 5.4 2 3.05 6.8 4.8 3.3 1.25 5.3-.4-2.1 7.4-2.15 16.5-10.35-3-16.1-12.8v3.7q-3.6-5.45-3.3-12.15L-57-22.7q.25-13.3 7.45-25.45l7.8 1.3Q-48.7-50-57.15-49.3q13.05-5 21.15-4.2 1.3-.4-.8-1.6l-3.65-1.65-1.5.35q-4.1-2.45-7.3-5.3-3-2.7-5.2-5.8l1.55.85.65.8q3.85 4.1 21.1 9.95 4.05-.5 5-2.3.5-.85.25-2M8.05-23.55Q25-19.4 18.65-14.1q-3.05 2.2-5.55 4.65-2.55.8-3.3 2.95L8.75-4.95l-1.1.5Q-1.75-.25-11.1.1h-2.5l.25-.5-.15-1.9-.45-8.5q.15-5.6 3.25-9.4 3.4 2.35 9.55 2.2 7.4-1.9 9.2-5.55m-32.6-7.6q-1.3-3.3 0-5.4-1.3 2.1 0 5.4" transform="translate(119.9 106.35)"/><path fill-rule="evenodd" fill="url(#Q)" d="m-23.7-69.1.2-1.8q4.5 3.35 11.4 3.65l.1 1.15q.25 2.45.9 4.85-3.75-2.3-9.15-4Q-22.8-67-23.7-69.1" transform="translate(119.9 106.35)"/><path fill-rule="evenodd" fill="url(#R)" d="m-34.55-68.6-2.1-2.8q4.5 3.85 10.95 6.7 11.15 2.4 17.85 6.65l.75.75-.65-.85q-3.2-4.55-4.25-7.95l-.1-1.15-.05-2.5q3.55 10.9 9.45 13.9l-3.75-4.35 3.5-.4q0 1.65 2.95 2.15 12.75-10.05 27.9-13.8l10.45-3.85-2.45 3.4q9.75-2.05 14.2 2.2l-2.75.3H43.2q8.4 5.25 11.65 13.5-1.15-1.85-3.4-4-.25 6.7-2.15 12.25l-1.15 3.05q-4.3 9.65-13.95 15.45-2.1 1.25-4.4 2.3 1.55 4.45 0 7.8-.15-1.75-1.5-3-.25 3-2 4.85l-1.55-.1q-3.3 1.9-6.1 4 6.35-5.3-10.6-9.45 2.7-2.3 2.3-6.2-.4-3.7-4.35-3.7Q-2.15-29-11.65-28.4q-1.1-1.75-6.7-3.05l-2.7-.45q-3.6-1.1-2.75-3.1-.7-3.25 7.8-8.4-.2-5.05-7.15-12.15 4.4.55 8.75 6.4-.85-5-6.8-11.3l-13.35-8.15m62.1 45.15.75.6-.75-.6M21.7-37.1q.45 2.4 4.45 3.15 11.2-4.05 14.6-15.2 1.75-6.1.35-10.55l4.2 1.7-5.4-4.85 5.4 1.05q-3.45-2.3-8.55-4.05-10.45-2.1-21.1 2Q8.8-61.15 3.7-56.8l5.25 3.95Q20.8-42.55 21.7-37.1" transform="translate(119.9 106.35)"/><path fill-rule="evenodd" fill="url(#S)" d="m-12.15-69.75.05-1.2 1.15 3.1q1.45 3.5 3.3 6l1.2 1.65 3.75 4.35q-5.9-3-9.45-13.9" transform="translate(119.9 106.35)"/><path fill-rule="evenodd" fill="url(#T)" d="M-11.1-61.25q-.65-2.4-.9-4.85 1.05 3.4 4.25 7.95l-.1.1-3.25-3.2" transform="translate(119.9 106.35)"/><path fill-rule="evenodd" fill="url(#U)" d="m-6.45-60.2-1.2-1.65q4.55-.75 6.5-.15l-1.8 1.4-3.5.4" transform="translate(119.9 106.35)"/><path fill-rule="evenodd" fill="#9b3e00" d="m-7.75-58.15.65.85-.75-.75.1-.1m-45.4 81.8.8 2.2-1.15.9-.85-2.5 1.2-.6M-50 33.5l.65 2.8-1.65-2.15 1-.65" transform="translate(119.9 106.35)"/><path fill-rule="evenodd" fill="url(#V)" d="m50.85-72.55 1.1.75 2.65 2.3q-1.85-.8-3.7-.95l-.8-.05q-4.45-4.25-14.2-2.2l2.45-3.4-10.45 3.85Q12.75-68.5 0-58.45q-2.95-.5-2.95-2.15l1.8-1.4q7.75-5.75 17.25-9.85l1.75-.7q7.2-2.95 15.35-4.9l4.65-1.05q3.3-1.05 5.1-4 .1 2.7-1 4.65L40.7-76.2q5.65.65 10.15 3.65m-11.45-2.6 1.3-1.05-1.3 1.05" transform="translate(119.9 106.35)"/><path fill-rule="evenodd" fill="url(#W)" d="M-7.65-61.85q-1.85-2.5-3.3-6 2.1-1.45 3.8-1.65-1.7-3.45-1.9-6.95 1 4.05 4 6.65l4.05.4q8.5-6.25 17.15-5.45-.2 1.45-.05 3Q6.6-67.75-1.15-62q-1.95-.6-6.5.15" transform="translate(119.9 106.35)"/><path fill-rule="evenodd" fill="url(#X)" d="M-40.4-61.75q-3.9-1.05-7.75-2.65-2.35-1.05-4.75-2.25l-1.55-.85q2.2 3.1 5.2 5.8-3.4-1.85-6.3-.75-3.95 1.35-4.35 7.25-.15 2.35 1.8 4.55l-2.15 1.25q-3.25-3.75-6.95-6.5 1.1-12.5 4.65-17.55l.45-1.45.55-.95q.5-.85 3-.2l4.35 4 .1.05v-.05q.35-2.5-1.9-6.3 4.05 4.6 4.7 7.15l.95 1.1.7.95q3.6 4.5 9.25 7.4" transform="translate(119.9 106.35)"/><path fill-rule="evenodd" fill="url(#Y)" d="M-64.55-72.15q1.65-4.05 4.15-7.7-1.95-.75-4.35-.75 6.05-2.3 9.3-.95.15-1.75-2.7-6.2 4.75 3.25 6.6 7.75 5.1 11.1 15.7 19.2l-4.55-.95q-5.65-2.9-9.25-7.4l-.7-.95-.95-1.1q-.65-2.55-4.7-7.15 2.25 3.8 1.9 6.3h-.1l-4.35-4q-2.5-.65-3 .2l-.55.95-.45 1.45-2 1.3" transform="translate(119.9 106.35)"/><path fill-rule="evenodd" fill="url(#Z)" d="m-67.85-56.35.1-1.45q.5-7.7 3.2-14.35l2-1.3Q-66.1-68.4-67.2-55.9l-.65-.45" transform="translate(119.9 106.35)"/><path fill-rule="evenodd" fill="url(#aa)" d="m-70.75-57.65-.2-.75 3.1 2.05.65.45q3.7 2.75 6.95 6.5l-1.2.7q-3.05-4.5-9.3-8.95" transform="translate(119.9 106.35)"/><path fill-rule="evenodd" fill="#f60" d="M-54.2-72.05h.1v.05l-.1-.05M69.5 28.25l.4.2-.45-.05.05-.15" transform="translate(119.9 106.35)"/><path fill-rule="evenodd" fill="url(#ab)" d="M-58.1-50.65q-1.95-2.2-1.8-4.55.4-5.9 4.35-7.25 2.9-1.1 6.3.75 3.2 2.85 7.3 5.3-9 1.95-16.15 5.75" transform="translate(119.9 106.35)"/><path fill-rule="evenodd" fill="url(#ac)" d="m-60.25-49.4 2.15-1.25q7.15-3.8 16.15-5.75l1.5-.35 3.65 1.65q-9.3.15-25.45 7.5l-1.1.15 1.9-1.25 1.2-.7" transform="translate(119.9 106.35)"/><path fill-rule="evenodd" fill="url(#ad)" d="m-51.75-48.25-5.5.05-1.55.15-1.95.2 3.6-1.45q8.45-.7 15.4 2.45l-7.8-1.3-2.2-.1" transform="translate(119.9 106.35)"/><path fill-rule="evenodd" fill="#612f06" d="m-58.8-48.05 1.55-.15 3 4.25-1.45 3.15q-.5-3.15-3.1-7.25" transform="translate(119.9 106.35)"/><path fill-rule="evenodd" fill="url(#ae)" d="m-51.75-48.25 2.2.1Q-56.75-36-57-22.7l1.45-2.8q-.3 6.7 3.3 12.15v-3.7q5.75 9.8 16.1 12.8v2l.1.5q-1.6-.6-3.05-1.3-1.75-.8-3.4-1.75-4.9-2.9-9.1-7.25 0 2.8 1.05 4.4-4.6-4.75-6.55-13.5-1.1 1.75-1.45 4.3-.6-5.4-.25-10.4.35-5.15 1.8-9.85l1.3-3.7 1.45-3.15 2.5-4.3" transform="translate(119.9 106.35)"/><path fill-rule="evenodd" fill="url(#af)" d="m-57.25-48.2 5.5-.05-2.5 4.3-3-4.25" transform="translate(119.9 106.35)"/><path fill-rule="evenodd" fill="url(#ag)" d="m-60.75-47.85 1.95-.2q2.6 4.1 3.1 7.25l-1.3 3.7q.45-4.95-3.75-10.75" transform="translate(119.9 106.35)"/><path fill-rule="evenodd" fill="url(#ah)" d="M-72.75-46.85q3.55-3.85 2-10.8 6.25 4.45 9.3 8.95l-1.9 1.25 1.1-.15 1.5-.25q4.2 5.8 3.75 10.75-1.45 4.7-1.8 9.85l-3.95 2.6-1.85.35-1.45.15q5.65-3.1 5.25-10.6-2.3-7.2-9.1-11.25l-2.85-.85" transform="translate(119.9 106.35)"/><path fill-rule="evenodd" fill="url(#ai)" d="m-57.15-49.3-3.6 1.45-1.5.25q16.15-7.35 25.45-7.5 2.1 1.2.8 1.6-8.1-.8-21.15 4.2" transform="translate(119.9 106.35)"/><path fill-rule="evenodd" fill="url(#aj)" d="m-80-46.6 7.25-.25 2.85.85q6.8 4.05 9.1 11.25.4 7.5-5.25 10.6l-.95.05 2.35-2.15q2.55-2.95 2.85-6.8-.95-3.55-3.25-6.8-1.7-2.55-5.15-4.45l-.9-.45q-11.05-2.9-17.85 6.3-6.5 8.75.55 14l1.3.9-.9.35q-5.1-1.05-5.8-6.55.6-9 7.8-14.3l1.05-.75Q-82.4-46-80-46.6" transform="translate(119.9 106.35)"/><path fill-rule="evenodd" fill="#f0c621" d="M-65.05-39.85q-.95 4.6-5.15 1.4-2.9-2.5 0-5.85 3.45 1.9 5.15 4.45m-.05 2.9q.7 0 1.2.5.55.55.55 1.25t-.55 1.2q-.5.55-1.2.55t-1.25-.55q-.5-.5-.5-1.2t.5-1.25q.55-.5 1.25-.5m1 7q-.4.4-.95.45-.6-.05-1-.45-.45-.45-.45-1l.45-1q.4-.45 1-.4.55-.05.95.4.45.45.45 1t-.45 1" transform="translate(119.9 106.35)"/><path fill-rule="evenodd" fill="url(#ak)" d="M-70.2-44.3q-2.9 3.35 0 5.85 4.2 3.2 5.15-1.4 2.3 3.25 3.25 6.8-.3 3.85-2.85 6.8-8.3.75-12.1-2.25-7.35.85-11.65 4.05-7.05-5.25-.55-14 6.8-9.2 17.85-6.3l.9.45m6.1 14.35q.45-.45.45-1t-.45-1q-.4-.45-.95-.4-.6-.05-1 .4l-.45 1q0 .55.45 1 .4.4 1 .45.55-.05.95-.45m-1-7q-.7 0-1.25.5-.5.55-.5 1.25t.5 1.2q.55.55 1.25.55t1.2-.55q.55-.5.55-1.2t-.55-1.25q-.5-.5-1.2-.5" transform="translate(119.9 106.35)"/><path fill-rule="evenodd" fill="url(#al)" d="m-66.05-24.15 1.45-.15q-9.45 10.05-9.7 22.65l-.35-.75q-4.7-11.35-1.75-22.8-6.15.45-11.35 2.9l-1.15-.5.9-.4.9-.35q5.1-2.05 10.75-2.65 2.15 1.15 4.5 1.65-2.75 6.1-2.65 12.9.45-6.85 4.1-12.65l3.4.2.95-.05" transform="translate(119.9 106.35)"/><path fill-rule="evenodd" fill="url(#am)" d="m-64.6-24.3 1.85-.35v1.55l-1-.4Q-73.2-12.8-73.9-.85q-11.45-6.6-14.15-15.95l-.65-3.25-.2-2.75 1.15.5q5.2-2.45 11.35-2.9-2.95 11.45 1.75 22.8l.35.75q.25-12.6 9.7-22.65" transform="translate(119.9 106.35)"/><path fill-rule="evenodd" fill="url(#an)" d="M-58.8-27.25q-.35 5 .25 10.4.35-2.55 1.45-4.3 1.95 8.75 6.55 13.5-1.05-1.6-1.05-4.4 4.2 4.35 9.1 7.25l1.05 3.15q-1.65-.65-3.3-.8l-.7-.05q-2.75-.75-4.6-3.15v1.7Q-53.3-5-54.8-7.6v2.9q-3.65-2.55-4.15-6Q-67-3.5-66.2 8.4-80.35 3.65-86.85-7.5q-.8 2.8-3.55 4.6l-.7-1.2q.25-9.35 3.05-12.7 2.7 9.35 14.15 15.95.7-11.95 10.15-22.65l1 .4v-1.55l3.95-2.6" transform="translate(119.9 106.35)"/><path fill-rule="evenodd" fill="url(#ao)" d="M-88.4-24.45q4.3-3.2 11.65-4.05 3.8 3 12.1 2.25L-67-24.1l-3.4-.2-1.45-.25q-2.35-.5-4.5-1.65-5.65.6-10.75 2.65l-1.3-.9" transform="translate(119.9 106.35)"/><path fill-rule="evenodd" fill="url(#ap)" d="M-70.4-24.3q-3.65 5.8-4.1 12.65-.1-6.8 2.65-12.9l1.45.25" transform="translate(119.9 106.35)"/><path fill-rule="evenodd" fill="url(#aq)" d="M-34-20.75q-2 1.65-5.3.4-4.8-1.75-6.8-4.8-1.45-2.7 0-5.4 2.15 1.9 4.9 3l.05.05q-1.8 3.55 4.75 4.9 2.25.45 3.25-.85l-.55 1.6-.3 1.1" transform="translate(119.9 106.35)"/><path fill-rule="evenodd" fill="url(#ar)" d="m-36.05-1.75-.1-.5v-2q.05-9.1 2.15-16.5l.3-1.1.55-1.6 1.4-3.55.7-1.55.2-.3q1.9-2.7 6.3-2.3 1.25 1.3 5.9 1.15 2.1.7 3.45 1.55 1.75 1.15 2.1 2.6l-.4 4q-.65-4.5-4.4-6.5-3.8-2-5.2 5.55-1.45 7.55-.25 20.3.5 7.55 9.85.2l.15 1.9-.25.5-1.25 1.65Q-16.15 3-18 3.8l-.5.2-1.55.55-2.15.55-1.7.3-1.8.15-5.05-.45q-4.5-2.55-5.3-6.85" transform="translate(119.9 106.35)"/><path fill-rule="evenodd" fill="#fff" d="M-33.15-23.45q-1 1.3-3.25.85-6.55-1.35-4.75-4.9 3.45 1.4 7.85 1.65l1.55-1.15-1.4 3.55m24.1-3.05Q-.8-28.1 4.3-31.15q3.35 3.8-3.5 7.1-7.25 1.45-9.85-2.45" transform="translate(119.9 106.35)"/><path fill-rule="evenodd" fill="url(#as)" d="m-13.5-21.85.4-4q-.35-1.45-2.1-2.6l3.55.05Q-2.15-29 6-33.45q3.95 0 4.35 3.7.4 3.9-2.3 6.2-1.8 3.65-9.2 5.55-6.15.15-9.55-2.2-3.1 3.8-3.25 9.4-.05-5.6.45-11.05m4.45-4.65-4.05.65 4.05-.65q2.6 3.9 9.85 2.45 6.85-3.3 3.5-7.1Q-.8-28.1-9.05-26.5" transform="translate(119.9 106.35)"/><path fill-rule="evenodd" fill="url(#at)" d="M-13.5-2.3q-9.35 7.35-9.85-.2-1.2-12.75.25-20.3 1.4-7.55 5.2-5.55 3.75 2 4.4 6.5-.5 5.45-.45 11.05l.45 8.5" transform="translate(119.9 106.35)"/><path fill-rule="evenodd" fill="url(#au)" d="M-52.25-65.85q13.2 7.15 26.1 7.65-.95 1.8-5 2.3-17.25-5.85-21.1-9.95" transform="translate(119.9 106.35)"/><path fill-rule="evenodd" fill="url(#av)" d="m73.95-89.95 1.1 1.2q2.4 2.85 3.8 5.7l.75 1.8-3.75-1.25q-1.55-5.25-9.1-12.7l.5-.8q3.95 3 6.7 6.05" transform="translate(119.9 106.35)"/><path fill-rule="evenodd" fill="url(#aw)" d="m75.85-82.5-2.45-.6q-7.05.6-12.4 2.9l.25-1.7.25-1.4q2-6.5 5.25-11.9 7.55 7.45 9.1 12.7" transform="translate(119.9 106.35)"/><path fill-rule="evenodd" fill="url(#ax)" d="m49.4-96.25 1.35-.85q4.45-2.55 10.1-3.2l.25 3.2q.35 7.45-1.95 12.85l-2.35-1-.5-.6q2.95-4.8 1.85-12.65-4.35 0-8.7 2.3l-.05-.05" transform="translate(119.9 106.35)"/><path fill-rule="evenodd" fill="url(#ay)" d="M39.35-101.7q5.5.75 9.3 4.6l.75.85-.9.6q-2.35.05-2.75-1.05-.25-.7.25-1-1.5-1.75-4.1-1.8l-2.55-2.2" transform="translate(119.9 106.35)"/><path fill-rule="evenodd" fill="url(#az)" d="M41.9-99.5q2.6.05 4.1 1.8-.5.3-.25 1 .4 1.1 2.75 1.05l-1.55 1.2-2.45-2.65-2.6-2.4" transform="translate(119.9 106.35)"/><path fill-rule="evenodd" fill="url(#aA)" d="m32.95-105 .7-.85q3.95 2.7 5.7 4.15l2.55 2.2 2.6 2.4 2.45 2.65 2.1 2.8q-2.9-1.45-6.25-1.85-2.45-4.95-9.85-11.5" transform="translate(119.9 106.35)"/><path fill-rule="evenodd" fill="#690" d="m48.5-95.65.9-.6.05.05-.95.55" transform="translate(119.9 106.35)"/><path fill-rule="evenodd" fill="url(#aB)" d="M49.45-96.2q4.35-2.3 8.7-2.3 1.1 7.85-1.85 12.65-3.15-3.85-7.25-5.8l-2.1-2.8 1.55-1.2.95-.55" transform="translate(119.9 106.35)"/><path fill-rule="evenodd" fill="url(#aC)" d="m58-78.7-3.65 2.55Q52.8-78.8 48.9-79.4q1.45 1.65 1.15 2.7-3.6-1.7-8.1-1.15 1.1-1.95 1-4.65-1.8 2.95-5.1 4l-4.65 1.05q-7.4-.15-15.1 2.65 1.2-6.9 7.65-12.15Q32.45-91.5 41.8-92l1 .2q-3.85 1.5.35 3.15 6.7 2.6 6.6-.4l2.35 1.85 1.45 2.1L58-78.7m-7.8-5.4q.7-.05 1.2-.55t.5-1.2q0-.7-.5-1.2-.5-.55-1.2-.5-.7-.05-1.2.5-.55.5-.55 1.2t.55 1.2q.5.5 1.2.55" transform="translate(119.9 106.35)"/><path fill-rule="evenodd" fill="url(#aD)" d="M16.15-74.85q.15-1.95.8-3.75 1.7-4.85 6.5-8.75l1.2-.9q3.6-2.7 8.8-4.9l9.35-.35q3.35.4 6.25 1.85 4.1 1.95 7.25 5.8l.5.6-4.7-1.95-2.35-1.85q.1 3-6.6.4-4.2-1.65-.35-3.15l-1-.2q-9.35.5-16.05 5.05Q19.3-81.7 18.1-74.8l-.25 2.25-1.75.7q-.15-1.55.05-3M50.2-84.1q-.7-.05-1.2-.55-.55-.5-.55-1.2t.55-1.2q.5-.55 1.2-.5.7-.05 1.2.5.5.5.5 1.2t-.5 1.2q-.5.5-1.2.55" transform="translate(119.9 106.35)"/><path fill-rule="evenodd" fill="url(#aE)" d="M61-80.2q-1.6.65-3 1.5l-4.45-6.4q6.25 1.2 7.7 3.2L61-80.2" transform="translate(119.9 106.35)"/><path fill-rule="evenodd" fill="url(#aF)" d="m59.15-84.25 2.35.95-.25 1.4q-1.45-2-7.7-3.2l-1.45-2.1 4.7 1.95 2.35 1" transform="translate(119.9 106.35)"/><path fill-rule="evenodd" fill="url(#aG)" d="M54.35-76.15q-1.95 1.6-3.5 3.6-4.5-3-10.15-3.65l1.25-1.65q4.5-.55 8.1 1.15.3-1.05-1.15-2.7 3.9.6 5.45 3.25" transform="translate(119.9 106.35)"/><path fill-rule="evenodd" fill="url(#aH)" d="m50.9-70.45-.7 1.15-.7 1.2-2.15-2.1 2.75-.3.8.05" transform="translate(119.9 106.35)"/><path fill-rule="evenodd" fill="url(#aI)" d="M54.85-56.7Q51.6-64.95 43.2-70.2h4.15l2.15 2.1q6 6.4 6.05 12.8l-.7-1.4" transform="translate(119.9 106.35)"/><path fill-rule="evenodd" fill="url(#aJ)" d="M83.75-37.7q-1.5 1.7-3.15 3.1-5.8-4.75-16.6-6.05-3.9-4.75-10.9-6.85l-3.8-.95Q51.2-54 51.45-60.7q2.25 2.15 3.4 4l.7 1.4q-.05-6.4-6.05-12.8l.7-1.2q9.6 2.4 14.65 8.95-2.4-1.1-4.6 0 6.65 6 9.55 12.5-2.15-2-4.3-1.8l1.15 3.45q11.35 2.25 17.1 8.5" transform="translate(119.9 106.35)"/><path fill-rule="evenodd" fill="url(#aK)" d="M20.65-89.85q1.75-4.5 4.85-7.25l3.5-2.35-1.3 2.35-.45.9q-2.8 1.65-5.1 6.2l-1.5.15" transform="translate(119.9 106.35)"/><path fill-rule="evenodd" fill="url(#aL)" d="M29-99.45q1.65-2.85 3.95-5.55 7.4 6.55 9.85 11.5l-9.35.35q-5.2 2.2-8.8 4.9l.4-1.8q.75-3.15 2.2-6.15l.45-.9 1.3-2.35" transform="translate(119.9 106.35)"/><path fill-rule="evenodd" fill="url(#aM)" d="M11.85-87.9q4.5-1.55 8.8-1.95l1.5-.15 2.9-.05-.4 1.8-1.2.9q-5.15-1.2-16.15 1.2l1.7-.7 2.85-1.05" transform="translate(119.9 106.35)"/><path fill-rule="evenodd" fill="url(#aN)" d="m25.05-90.05-2.9.05q2.3-4.55 5.1-6.2-1.45 3-2.2 6.15" transform="translate(119.9 106.35)"/><path fill-rule="evenodd" fill="url(#aO)" d="M8.75-83.75 6.5-85.8l.8-.35q11-2.4 16.15-1.2-4.8 3.9-6.5 8.75-3.1-1.3-6.2-3.55l-2-1.6" transform="translate(119.9 106.35)"/><path fill-rule="evenodd" fill="url(#aP)" d="m17.85-72.55.25-2.25q7.7-2.8 15.1-2.65-8.15 1.95-15.35 4.9" transform="translate(119.9 106.35)"/><path fill-rule="evenodd" fill="url(#aQ)" d="M8.95-52.85 3.7-56.8q5.1-4.35 11.95-7.05 10.65-4.1 21.1-2 5.1 1.75 8.55 4.05l-5.4-1.05L45.3-58l-4.2-1.7q1.4 4.45-.35 10.55-3.4 11.15-14.6 15.2-4-.75-4.45-3.15 18-7.55 11.45-21.95-5.95-5.45-24.2 6.2" transform="translate(119.9 106.35)"/><path fill-rule="evenodd" fill="url(#aR)" d="M18.65-14.1q2.8-2.1 6.1-4l1.55.1q4.05.3 7.45 1.9.35 2.7 2.25 4.8-4.3-2.15-9-2.3-5.2 2.55-10.4 7.05l-3.5-2.9q2.5-2.45 5.55-4.65" transform="translate(119.9 106.35)"/><path fill-rule="evenodd" fill="url(#aS)" d="m80.75 26.85-.15 2.1-2.45-.35q.1 1.25-.8 2-.9-2.25-2.7-4.85l4.3.85 1.8.25m2.45-4.4-3.6 1.95q-4.15-2.7-7.35-6l2.3-2.25-2.3 2.25-1.35-1.45-2.45-3.05-.6-.9-.15-.3Q63.45 5.15 55.7.8L54.25.05q-3.95-2-8.7-3.2 4.25-.6 6.05-2.35l.05-.05.25-.25-.45.05Q45-5.1 39.25-9.3q1.9-.6 3.3-1.65 1 2 5.15.9L43.85-8.4q4.9 2.05 12.6 1.35l-4.4 3.3 3.35 1.6 1.75 1.05q9.4 4.85 12.55 11.8l.65.75 2.7 3.05 1.5 1.65q1.85 4.15 8.65 6.3M26.3-18q1.75-1.85 2-4.85 1.35 1.25 1.5 3 1.55-3.35 0-7.8 2.3-1.05 4.4-2.3 9.65-5.8 13.95-15.45l1.15-3.05 3.8.95-.6 2.65q-3.25 9.4-12.65 14.7h-1.3L35.1-26.9q-.3 4.55-3.55 7.25l3.25 1.4 5.95 6.7-4.25.75-.5-.5q-1.9-2.1-2.25-4.8-3.4-1.6-7.45-1.9m12.25-12.15-4.35.2 4.35-.2M55.7.8l1.45-1.9L55.7.8" transform="translate(119.9 106.35)"/><path fill-rule="evenodd" fill="url(#aT)" d="m61.7-20.35.15 3.85q-.15 8.6-4.7 15.4L55.4-2.15q6.45-11.4 3.1-17.75-9.25-7.2-23.4-7l3.45-3.25h1.3q12.95.3 20.1 7.75l1.75 2.05" transform="translate(119.9 106.35)"/><path fill-rule="evenodd" fill="url(#aU)" d="M21.65-8.5q-2.6 1.65-4.75 3.65l.3-1.2-.6-.5q5.2-4.5 10.4-7.05 4.7.15 9 2.3l.5.5-3.5.15h-.35q-2.2-1.3-5.85-.7-2.55 1.2-4.75 2.6l-.4.25" transform="translate(119.9 106.35)"/><path fill-rule="evenodd" fill="url(#aV)" d="M81.65 26.5q-16-4.8-28-12.95l6.6 1.2Q51.7 6.25 31.7 4.35L36.6.7q-9.2 2.8-14.65-2.65-1.7-2.85-.3-6.55l.4-.25q2.2-1.4 4.75-2.6 3.65-.6 5.85.7H33q-1.25 1.5 4.1 1.25 4-.9 6.7-2.75l-1.25 1.2q-1.4 1.05-3.3 1.65l-2.55.6q9.95 5.2 14.75 2.95l.15.25q-1.8 1.75-6.05 2.35-5.7-1.15-3.6.6Q54.65.65 63.6 9.4q4.7 10.4 18.05 17.1M49.3 4q0-1.3-4.2-2.65-3.45-.15-7.45 1.05Q44.7 2.6 49.3 4" transform="translate(119.9 106.35)"/><path fill-rule="evenodd" fill="url(#aW)" d="m33-10.65 3.5-.15 4.25-.75 3.45-1.15-.4.55q-2.7 1.85-6.7 2.75-5.35.25-4.1-1.25" transform="translate(119.9 106.35)"/><path fill-rule="evenodd" fill="url(#aX)" d="M35.1-26.9q14.15-.2 23.4 7 3.35 6.35-3.1 17.75l-3.35-1.6 4.4-3.3q-7.7.7-12.6-1.35l3.85-1.65q-4.15 1.1-5.15-.9l1.25-1.2.4-.55-3.45 1.15-5.95-6.7-3.25-1.4q3.25-2.7 3.55-7.25" transform="translate(119.9 106.35)"/><path fill-rule="evenodd" fill="url(#aY)" d="m36.7-8.7 2.55-.6Q45-5.1 51.45-5.75 46.65-3.5 36.7-8.7" transform="translate(119.9 106.35)"/><path fill-rule="evenodd" fill="url(#aZ)" d="M8.95-52.85q18.25-11.65 24.2-6.2Q39.7-44.65 21.7-37.1q-.9-5.45-12.75-15.75" transform="translate(119.9 106.35)"/><path fill-rule="evenodd" fill="url(#ba)" d="M82.15-7.2Q74.6-16.75 61.7-20.35q3.85-10.15 3.25-16.5 5 .6 9.85 3.15 1.95 3.85 2 6.8.95-2.2-.5-5.9l2.9 1.95q1.8 6.1 1.45 10.65 1.4-4.15.05-9.5l2 1.75q4.2 10-.55 20.75m-20.3-9.3q3.3.25 6.35 1.55.95 3.85-.05 6.55 1.2-2.15.9-5.2 1.2 5.1 0 9.3 1.5-3.45 1.85-9.25 3.9 2.4 7.25 6.85v7.75q1.3-2.85 1.05-6.3l.95 1.5q2.2 5.8-7.1 18.25l-2.7-3.05Q72.5 8.4 74 4.75q-1.95 3.3-4.3 5.95-3.15-6.95-12.55-11.8 4.55-6.8 4.7-15.4" transform="translate(119.9 106.35)"/><path fill-rule="evenodd" fill="url(#bb)" d="m52.5-44.85.6-2.65q7 2.1 10.9 6.85.7 1.7.95 3.8.6 6.35-3.25 16.5l-1.75-2.05q5.8-10.5 1.25-16.65-3.6-4.5-8.7-5.8" transform="translate(119.9 106.35)"/><path fill-rule="evenodd" fill="url(#bc)" d="M39.85-30.15q9.4-5.3 12.65-14.7 5.1 1.3 8.7 5.8 4.55 6.15-1.25 16.65-7.15-7.45-20.1-7.75" transform="translate(119.9 106.35)"/><path fill-rule="evenodd" fill="url(#bd)" d="M-96.05-29.35q-2.65-2.6-2.6-8.6 5.8-14.8 14.35-19.7l-.75 1.2q-2.55 5.55-.95 12.4-7.2 5.3-7.8 14.3l-1.15.2-1.1.2" transform="translate(119.9 106.35)"/><path fill-rule="evenodd" fill="url(#be)" d="M-84.3-57.65q-.55 7.5 4.3 11.05-2.4.6-4.95 1.8l-1.05.75q-1.6-6.85.95-12.4l.75-1.2" transform="translate(119.9 106.35)"/><path fill-rule="evenodd" fill="url(#bf)" d="m-99.85-14-3.8 1-15.75 2.65q10.45-7.95 14.85-19.6l.45.85q1.7 4.85 6.4 8.8l3.65-2.6q-1.4-3.2-.9-6.65l1.15-.2q.7 5.5 5.8 6.55l-.9.4.2 2.75-2.35 1.7-1.05.7-1 .6-.95.55-.8.4q-2.4 1.2-5 2.1m6.45-3.2 1.7-1.9-1.95-2.9-3.7 2.05 3.95 2.75" transform="translate(119.9 106.35)"/><path fill-rule="evenodd" fill="url(#bg)" d="m-104.55-29.95 4.6.8q1.55 3 1.65.2l2.25-.4 1.1-.2q-.5 3.45.9 6.65l-3.65 2.6q-4.7-3.95-6.4-8.8l-.45-.85" transform="translate(119.9 106.35)"/><path fill-rule="evenodd" fill="url(#bh)" d="M-88.05-16.8q-2.8 3.35-3.05 12.7-.9-1.85-1.05-4.05v-5.95l-.5-.8.55-2.75 1.05-.7 2.35-1.7.65 3.25" transform="translate(119.9 106.35)"/><path fill-rule="evenodd" fill="url(#bi)" d="M-95.6-4.45q-1.9-1.6-3.4-3.8l-.85-5.75q2.6-.9 5-2.1 1.3 0 2.2 1.2l.5.8v5.95q.15 2.2 1.05 4.05l-2-2.1q-3.05-2.7-3.45-5.7-.1 1.75 1.3 4.85-1.9-1-2.6-2.55.15 2.85 2.25 5.15" transform="translate(119.9 106.35)"/><path fill-rule="evenodd" fill="url(#bj)" d="m-93.4-17.2-3.95-2.75 3.7-2.05 1.95 2.9-1.7 1.9" transform="translate(119.9 106.35)"/><path fill-rule="evenodd" fill="#8b5701" d="m-94.15-3.3-1.45-1.15q-2.1-2.3-2.25-5.15.7 1.55 2.6 2.55-1.4-3.1-1.3-4.85.4 3 3.45 5.7l2 2.1.7 1.2.9 1.15h-1.85q-1.5-.65-2.8-1.55m49.4.85q1.65.15 3.3.8 1.55 1.05 2.8 2.6 1.1 1.35 1.9 3.05v3.55l-1.1 1.55q.55-2.35-2.85-6.25L-44-.55-41.1.5q.3-1.2-3.65-2.95" transform="translate(119.9 106.35)"/><path fill-rule="evenodd" fill="url(#bk)" d="m-94.1.5-.05-3.8q1.3.9 2.8 1.55l1.05 8.7-.85-.5Q-93.4 3.8-94.1.5" transform="translate(119.9 106.35)"/><path fill-rule="evenodd" fill="#a16401" d="M-91.4 16.75q.55-.9 1.75-.9 2.2.85 4.2.85 3.4-.05 6.35-2.6h2.65q-2.45 5.7-8.05 6.8l3.4-2.75q-2.8 2.1-7.15 1.45l2.85-1.45q-4.4.45-6-1.4M-96.1.45h.1l1.9.05q.7 3.3 2.95 5.95l.85.5 5 3-.8.55-5.75-1.15-3.25-1.2h3.4q-3.75-1.75-4.15-3.85l1.9 1Q-96.6 2.4-96.1.45" transform="translate(119.9 106.35)"/><path fill-rule="evenodd" fill="url(#bl)" d="m-91.55 11.3-3.05-1.15q-3.25-.75-3.95-4.65-.55-2.85 1.9-5.1l.55.05q-.5 1.95 2.15 4.85l-1.9-1q.4 2.1 4.15 3.85h-3.4l3.25 1.2 5.75 1.15-.75.55-2.05.35-2.65-.1" transform="translate(119.9 106.35)"/><path fill-rule="evenodd" fill="url(#bm)" d="M-90.4-2.9q2.75-1.8 3.55-4.6 6.5 11.15 20.65 15.9-.8-11.9 7.25-19.1.5 3.45 4.15 6v-2.9q1.5 2.6 4.75 3.65v-1.7q1.85 2.4 4.6 3.15l-1.95.05-1.1 1.1q3.55 2.1 5.6 5.55.85 1.55 1.35 2.85Q-59.9 31-78.3 19.7q1.7-2.6 1.85-5.6h-2.65q-2.95 2.55-6.35 2.6l-3.45-5.3 2.05-.35.75-.55.8-.55-5-3-1.05-8.7h1.85l-.9-1.15m18.15 24-1.95-.45 1.95.45m25.3-11.75q-4.55 11.5-17.6 12.5 13.05-1 17.6-12.5" transform="translate(119.9 106.35)"/><path fill-rule="evenodd" fill="url(#bn)" d="M-89.65 15.85q-1.5-2.3-1.9-4.55l2.65.1 3.45 5.3q-2 0-4.2-.85" transform="translate(119.9 106.35)"/><path fill-rule="evenodd" fill="url(#bo)" d="M-82.95 22.7q-2.55.7-5.65.1-2.2-.5-3.2-2.15-.3-2.7.4-3.9 1.6 1.85 6 1.4l-2.85 1.45q4.35.65 7.15-1.45l-3.4 2.75q5.6-1.1 8.05-6.8-.15 3-1.85 5.6-2 2.25-4.65 3" transform="translate(119.9 106.35)"/><path fill-rule="evenodd" fill="url(#bp)" d="m-82.6 68-1.5-.05q5.25-5.95 13.75-9l1.2-.45 1.1.35-8.4 3.7Q-80.3 65-82.6 68" transform="translate(119.9 106.35)"/><path fill-rule="evenodd" fill="url(#bq)" d="m70.35 11.45-.65-.75q2.35-2.65 4.3-5.95-1.5 3.65-3.65 6.7" transform="translate(119.9 106.35)"/><path fill-rule="evenodd" fill="url(#br)" d="m51.65-5.55-.2-.2.45-.05-.25.25" transform="translate(119.9 106.35)"/><path fill-rule="evenodd" fill="url(#bs)" d="m51.6-5.5-.15-.25.2.2-.05.05" transform="translate(119.9 106.35)"/><path fill-rule="evenodd" fill="#814e13" d="M49.3 4q-4.6-1.4-11.65-1.6 4-1.2 7.45-1.05Q49.3 2.7 49.3 4" transform="translate(119.9 106.35)"/><path fill-rule="evenodd" fill="url(#bt)" d="m84.35 27.25-3.6-.4-1.8-.25-4.3-.85q-4.8-1.15-9.05-2.95-1.3-1-2.1-1.25h-.15q-1.3-.35-1.35 1.25v1.55q2.75 2.4 7.45 4.05-4.8-.95-8.6-3.75l-.35-1.85-2.1-1.55q-4.85-3.3-3.55 1 2.8 4.4 8 9.15l2.65 2.35q-6.65-3.3-10.55-8l-1-1.3 1 1.3-6.3 3 1.2 3.05-4.1-3.45-1.6 1.45-1.05-2.7-6.15-2.65q.3-1.05-2.05-2.45l-1.25 1.05q-2.9-1.4-3.9-3.5h-1.8v1.65l-2.85-2.05h-2.05l-1 3.5L21 26.1l1.2 7.55.8.35Q10.45 47.1-4.7 55.25q-9.35 5.05-16.6 11.55l-2.9-2.5q-.75 1.15 0 2.25-2.65-.95-4.25-4-1.9 5.45-14.2 5.85-1.5 3.25-4.2 5.85l-3.7-1 1.85-1.65-.5-2.5-.6-1.5q-.7-1.3-1.75-1.85l-4.85.25-1.3.75-1.1-1.4-1.05-1.35-.7-.85q-2.1-1-4.7 0l-1.25.6.6-2.7-.45-1q-.55-.75-1.7-1.2 2.5-2.7 5-.75-.6-2.25-3.05-1.7 1.8-7.75 8.15-14.75l-3.5 1.35q4-4.85 10.45-6.2l2.35 3.45q.35 2.45.45 4.75l1-1.75.45-1.05q7 9.7 21.15 15.15-12.6-6.15-20.45-17.65.3-1.5.25-3.15 4.3 7.65 12.15 12.2l.5.25q2.5-10.65 7.35-20.1 1.35 3.3 1.4 6.8l-.2 2.65q5.7-7.2 7.5-22.55.5 4.4 1.6 7.9 1.35 4.25 3.55 7.05-.75-7.3 2.85-16.35l2.85-4.55L4.25 3q-1.2 2.5-2.1 5.05V9.7l6.25 2.55.3-.95q1.35-6.25 4.45-12.8v-.05q2.8 0 3.65-2.85l.1-.45q2.15-2 4.75-3.65-1.4 3.7.3 6.55Q27.4 3.5 36.6.7l-4.9 3.65q20 1.9 28.55 10.4l-6.6-1.2q12 8.15 28 12.95l2.7.75m-64.95-6.3q.8-1.95 2.95-3.45l2.75 1.65-2.75-1.65Q20.2 19 19.4 20.95m7.75-5.9q-2.95 1.05-4.8 2.45 1.85-1.4 4.8-2.45m-68.7 50.45-1.1 2.9 1.1-2.9m13.1-2.95-1.25-3.35 1.25 3.35" transform="translate(119.9 106.35)"/><path fill-rule="evenodd" fill="url(#bu)" d="m58.4 21.25 2.1 1.55.35 1.85q1.25 5.65 6.2 9.8l-1.55-.7-2.65-2.35L61 28.65q-2.25-3.5-2.6-7.4" transform="translate(119.9 106.35)"/><path fill-rule="evenodd" fill="url(#bv)" d="M62.85 31.4q-5.2-4.75-8-9.15-1.3-4.3 3.55-1 .35 3.9 2.6 7.4l1.85 2.75" transform="translate(119.9 106.35)"/><path fill-rule="evenodd" fill="url(#bw)" d="M69.45 28.4q-4.7-1.65-7.45-4.05V22.8q.05-1.6 1.35-1.25h.15q.4 3.25 6 6.7l-.05.15" transform="translate(119.9 106.35)"/><path fill-rule="evenodd" fill="url(#bx)" d="m70 53.7-.65-.25-1.3-.4-4.7 1.85-3.45-1.65-5.75 2.7-3.1-1.85v-1.4L52.7 48l-.65-4.1v-5.95l-1.9-2.85-1.95-2.85-5.75-1.05 1.7-1.4 1.6-1.45 4.1 3.45-1.2-3.05 6.3-3q3.9 4.7 10.55 8l1.55.7q-4.95-4.15-6.2-9.8 3.8 2.8 8.6 3.75l.45.05 2.25.3Q67.35 27 65.6 22.8q4.25 1.8 9.05 2.95 1.8 2.6 2.7 4.85l.5 1.7q-2.95-.8-4.55-3.55 0 2.9 2.5 5.25-2.45 1.1-4.9-1.3v5.85q-1.45 7.15-5.35 12.15l2.35-.95q2.95.1 4.75-3.65 1.55-.8-.15 3.05L70 53.7m-11.7-2.65L61.65 49l3.45-4.6-6.8 6.65" transform="translate(119.9 106.35)"/><path fill-rule="evenodd" fill="url(#by)" d="M69.35 53.45 68.1 56l-3.6.75q-4.95 6.6-14.35 9.3l2.95.5-1.65 1.15-2.3-.05q-2.25 2-6.15 3.05-4.1.35-8.3-1.25L35.9 67l4.1-2.65V62.5l5.3-1.35 2.5-.7 3.25-3.05v-3.3l3.1 1.85 5.75-2.7 3.45 1.65 4.7-1.85 1.3.4M44.15 29.8l-1.7 1.4-3.05-4.1-2.9-1.55.45-1.1 6.15 2.65 1.05 2.7M32.4 35.95 36.35 40h3.45q-1.7 5.8.35 9.7-6.05.9-12.05-2.05 6 2.95 12.05 2.05.45.95 1.2 1.8l-.3.15-5.8 1.25v1.75l-1.15-.75-1.45 2.25H31.4l-1.2-1.4q-.1-3.3-2.1-7.1l-2.95-4.45 1.4-6.8 2.1-2.85.75.75h1.4q.45 2.2 1.6 1.65m17.75 30.1q-4.8-1.3-4.85-4.9.05 3.6 4.85 4.9" transform="translate(119.9 106.35)"/><path fill-rule="evenodd" fill="url(#bz)" d="m50.15 35.1 1.9 2.85v5.95l.65 4.1-1.65 4.7v4.7l-3.25 3.05-2.5.7L40 62.5v-1.85l-.7-1.55-1.4-2.05q5.7 1.2 6.95-3.25 3.35 1.3 2.95-2.3-.8-9.75-4.1-1.05v-4.1l1-3.9L41.05 40h-4.7l-3.95-4.05 2.05-5.2q7.2 7.35 11.4 6.05 4.95 3.75 4.3-1.7" transform="translate(119.9 106.35)"/><path fill-rule="evenodd" fill="url(#bA)" d="M80.6 28.95q-.5 2.35-2.55 4.3l-.2-.95-.5-1.7q.9-.75.8-2l2.45.35" transform="translate(119.9 106.35)"/><path fill-rule="evenodd" fill="url(#bB)" d="M63.5 21.55q.8.25 2.1 1.25 1.75 4.2 6.55 5.95l-2.25-.3-.4-.2q-5.6-3.45-6-6.7" transform="translate(119.9 106.35)"/><path fill-rule="evenodd" fill="#a57001" d="m78.05 33.25.05 1.6-.9 5.6-.95 5.65-2.05 4.3-3.5 3.5-.7-.2 2.5-4.55q1.7-3.85.15-3.05-1.8 3.75-4.75 3.65l-2.35.95q3.9-5 5.35-12.15V32.7q2.45 2.4 4.9 1.3-2.5-2.35-2.5-5.25 1.6 2.75 4.55 3.55l.2.95M58.3 51.05l6.8-6.65-3.45 4.6-3.35 2.05" transform="translate(119.9 106.35)"/><path fill-rule="evenodd" fill="url(#bC)" d="m16.9-4.85-.1.45q-.85 2.85-3.65 2.85l.65-1.95-4-3q.75-2.15 3.3-2.95l3.5 2.9.6.5-.3 1.2" transform="translate(119.9 106.35)"/><path fill-rule="evenodd" fill="url(#bD)" d="M13.15-1.5q-3.1 6.55-4.45 12.8L2.15 8.05Q3.05 5.5 4.25 3L5 1.45q1.65-3.25 3.75-6.4L9.8-6.5l4 3-.7 1.95.05.05" transform="translate(119.9 106.35)"/><path fill-rule="evenodd" fill="url(#bE)" d="M8.75-4.95Q6.65-1.8 5 1.45l-9.95 6.5q1.9-2.6 4-4.9 3.95-4.3 8.6-7.5l1.1-.5" transform="translate(119.9 106.35)"/><path fill-rule="evenodd" fill="url(#bF)" d="m4.25 3-10.5 6.85 1.3-1.9L5 1.45 4.25 3" transform="translate(119.9 106.35)"/><path fill-rule="evenodd" fill="url(#bG)" d="m8.7 11.3-.3.95L2.15 9.7V8.05L8.7 11.3" transform="translate(119.9 106.35)"/><path fill-rule="evenodd" fill="url(#bH)" d="m36.95 24.45-.45 1.1L35.15 29q-1.65-.6-1.05-2.7-2.3.75-4.3-2.25 1.05 3.65-.9 3.3l-.1-1.55-.85-4.6v-1.65h1.8q1 2.1 3.9 3.5L34.9 22q2.35 1.4 2.05 2.45" transform="translate(119.9 106.35)"/><path fill-rule="evenodd" fill="url(#bI)" d="m35.15 29-.7 1.75-2.05 5.2q-1.15.55-1.6-1.65h-1.4l-.75-.75-.7-.7q.9-2.55.95-5.5 1.95.35.9-3.3 2 3 4.3 2.25-.6 2.1 1.05 2.7" transform="translate(119.9 106.35)"/><path fill-rule="evenodd" fill="url(#bJ)" d="m28.8 25.8.1 1.55q-.05 2.95-.95 5.5L25.5 30.8l-1.45 2.85 1.05 1.25-1.05-.45L23 34l-.8-.35L21 26.1l1.05-3.45Q23 30.8 28.8 25.8" transform="translate(119.9 106.35)"/><path fill-rule="evenodd" fill="url(#bK)" d="M3.95 79q-14 8.9-29.7 9-4-1.95-5.5-4.8 2.45 1.45 5.6 1.55l11.2-1.05 18.5-7.5 20-10.25v2.45l.5.95-4.05 1.45Q12.75 73.75 5.45 78l-1.5 1m24-46.15.7.7-2.1 2.85q-2.75 3.35-6.2 6Q5.55 55.1-10.7 63.45q-4.3 1.8-7.7 4.55-6.9 5.55-10.05 14.85-3.2-1.2-2.3-4.25 3.95-6.75 19.55-18.55 12.65-6.4 22.5-14l12.75-11.6 1.05.45-1.05-1.25 1.45-2.85 2.45 2.05" transform="translate(119.9 106.35)"/><path fill-rule="evenodd" fill="url(#bL)" d="M-25.75 88h-1.1q-9.05-4.55-2.65-12.65 3.7-4.55 8.2-8.55 7.25-6.5 16.6-11.55Q10.45 47.1 23 34l1.05.45-12.75 11.6q-9.85 7.6-22.5 14-15.6 11.8-19.55 18.55-.9 3.05 2.3 4.25L-14 82.3q7.95-2.85 15.8-6.5 9.05-4.25 17.95-9.6l4.3-2.65v2.4l-20 10.25-18.5 7.5-11.2 1.05q-3.15-.1-5.6-1.55 1.5 2.85 5.5 4.8" transform="translate(119.9 106.35)"/><path fill-rule="evenodd" fill="url(#bM)" d="M39.8 40h1.25l3.65 2.45-1 3.9v4.1l-2.35 1.05q-.75-.85-1.2-1.8-2.05-3.9-.35-9.7" transform="translate(119.9 106.35)"/><path fill-rule="evenodd" fill="url(#bN)" d="m25.15 43.2 2.95 4.45q2 3.8 2.1 7.1l-.8 2-.1.1-2-2.6-1.6 1.25-1.65 3.25v4.8l-4.3 2.65q1.85-6.6 1.35-13.7l-2.25.9q4.3-5.3 5.05-11.8l1.25 1.6" transform="translate(119.9 106.35)"/><path fill-rule="evenodd" fill="url(#bO)" d="m37.9 57.05 1.4 2.05q-.45 1.7-3.95-2.4.1 2.2-3 1.35l2.35 3.5q.15 4.1-1.65 3.4l-.6-3.25-2.2-3.6-.85-1.35.8-2 1.2 1.4h1.25l1.45-2.25 1.15.75q1.55 1.1 2.65 2.4" transform="translate(119.9 106.35)"/><path fill-rule="evenodd" fill="url(#bP)" d="m32.45 70.25-1.25.6-1.2.6 1 2.05h-1.65l.85 2.05-3.7-2.45-1-1.9-.95-1.85-.5-.95v-6.45q4.75 7.05 8.4-.25l.6 3.25q.35 3.5-.6 5.3" transform="translate(119.9 106.35)"/><path fill-rule="evenodd" fill="url(#bQ)" d="m34.7 69.45-2.25.8q.95-1.8.6-5.3 1.8.7 1.65-3.4l-2.35-3.5q3.1.85 3-1.35 3.5 4.1 3.95 2.4l.7 1.55v3.7L35.9 67l-1.2 2.45" transform="translate(119.9 106.35)"/><path fill-rule="evenodd" fill="url(#bR)" d="m26.55 36.4-1.4 6.8-1.25-1.6q-.75 6.5-5.05 11.8l2.25-.9q.5 7.1-1.35 13.7-8.9 5.35-17.95 9.6Q-6 72.6-8 65.95q-1.15 1.75 0 3.5-4.35.45-7.8-2.05v2l-2.6-1.4q3.4-2.75 7.7-4.55Q5.55 55.1 20.35 42.4q3.45-2.65 6.2-6" transform="translate(119.9 106.35)"/><path fill-rule="evenodd" fill="url(#bS)" d="M31.2 70.85q3.45 4.5 3.5 7.4l-.95 1.95-.9-1.35-3.65-2.45-.65.2q-1 .25-1.7.7.7-.9-1.05-1.8-3.2 1.7-3.65 4-4.35-1.05-4.5-3.5l-.1-.7 7.95-4.1 1 1.9 3.7 2.45-.85-2.05H31l-1-2.05 1.2-.6" transform="translate(119.9 106.35)"/><path fill-rule="evenodd" fill="url(#bT)" d="m2.8 84.6-1-1.85L3.95 79l1.5-1q7.3-4.25 15.05-7.2l4.05-1.45.95 1.85-7.95 4.1.1.7q.15 2.45 4.5 3.5.45-2.3 3.65-4 1.75.9 1.05 1.8-1.55.85-2.15 2.35l-1.55 4.25q-.95-1.75-3.3-3.65-1.05-.8-2-.9-1.25-.1-2.4.9-1.6 1.45-2.2 3.55L12 82.15l-1.2-1.65q-1-1.35-4.1 0l-3.9 4.1" transform="translate(119.9 106.35)"/><path fill-rule="evenodd" fill="url(#bU)" d="m13.05 89.45-1.45 1.9Q7.05 94.95.15 95.2 0 90.7 2.8 84.6l3.9-4.1q3.1-1.35 4.1 0l-3.75 5.1-2.7 5.85 4.6-3.8-1.1 3 3.6-6.15-2.05 1.4 2.6-3.75 1.25 1.65q-.4 1.2-.45 2.6l.25 3.05" transform="translate(119.9 106.35)"/><path fill-rule="evenodd" fill="url(#bV)" d="M12 82.15 9.4 85.9l2.05-1.4-3.6 6.15 1.1-3-4.6 3.8 2.7-5.85 3.75-5.1 1.2 1.65" transform="translate(119.9 106.35)"/><path fill-rule="evenodd" fill="url(#bW)" d="M23.5 87.1q-1.1 7.4-5.55 11l-.6-.55L19.8 93l1.6-6-2.05 3.65 1.25-5.55q.25-2.85-2.75-5.75.95.1 2 .9 2.35 1.9 3.3 3.65l.5 1.7-.15 1.5" transform="translate(119.9 106.35)"/><path fill-rule="evenodd" fill="url(#bX)" d="M17.35 97.55q-3.5-3.5-4.3-8.1l-.25-3.05q.05-1.4.45-2.6.6-2.1 2.2-3.55 1.15-1 2.4-.9 3 2.9 2.75 5.75l-1.25 5.55L21.4 87l-1.6 6-2.45 4.55" transform="translate(119.9 106.35)"/><path fill-rule="evenodd" fill="url(#bY)" d="M35.75 92.45q-4.4.3-8.8-2.15l-3.45-3.2.15-1.5-.5-1.7 1.55-4.25q.6-1.5 2.15-2.35.7-.45 1.7-.7l4.7 8.85-1.1-4.3q2 1.6 2.8 4.6l.8 6.7" transform="translate(119.9 106.35)"/><path fill-rule="evenodd" fill="url(#bZ)" d="M33.75 80.2q4.25 6.6 2.6 12.15l-.6.1-.8-6.7q-.8-3-2.8-4.6l1.1 4.3-4.7-8.85.65-.2 3.65 2.45.9 1.35" transform="translate(119.9 106.35)"/><path fill-rule="evenodd" fill="url(#ca)" d="M68.1 56q-4.7 8.1-15 10.55l-2.95-.5q9.4-2.7 14.35-9.3l3.6-.75" transform="translate(119.9 106.35)"/><path fill-rule="evenodd" fill="url(#cb)" d="M51.45 67.7q-4.15 2.6-8.45 3 3.9-1.05 6.15-3.05l2.3.05" transform="translate(119.9 106.35)"/><path fill-rule="evenodd" fill="url(#cc)" d="M-39.1-3.05q1.45.7 3.05 1.3.8 4.3 5.3 6.85l5.05.45 1.8-.15 1.7-.3 2.15-.55L-18.5 4l.5-.2q1.85-.8 3.15-2.05L-13.6.1h2.5q9.35-.35 18.75-4.55Q3-1.25-.95 3.05l-2.45.6q-2.85 1.65-5.1 5.7.1-2.7 2.4-5.4-4.55.5-5.85 2.2h-2.5q-.5 1.1-.85 3.75-.3-1.65-.2-3.45l-3.6 1.3q-.5 2.45-.45 4.9-.65-2.25-.7-4.75h-2.4l-1.25 8V8.1l-3.15 1q-2.55 7.25-3.45 15-.8-5.9.65-14.05-3.05 6.2-3.55 11.6-1-3.7-.7-8.5-2.3 7.95-2.4 14.7L-38 19.5q-1.2 9.25 0 16.65-2.4-4.2-3.4-12.9.3 9.25 2.6 18.45-3.35-6.55-4.75-13.7l1 7.5q-2.85-4.4-4.6-12.4v7.2q-1.45-2.4-2.3-4.95L-51 29.9q-.6-2-1.35-4.05l-.8-2.2 2.8-1.85q5.35-4 9.5-11.15 1.8-.4 3-1.55l1.1-1.55V4q-.8-1.7-1.9-3.05l-.45-4" transform="translate(119.9 106.35)"/><path fill-rule="evenodd" fill="url(#cd)" d="M-6.25 9.85-9.1 14.4q-3.6 9.05-2.85 16.35-2.2-2.8-3.55-7.05v-6.25l1.4 5.2-.35-4.3q-.4-5.5 2.5-12.2 1.3-1.7 5.85-2.2-2.3 2.7-2.4 5.4 2.25-4.05 5.1-5.7l2.45-.6q-2.1 2.3-4 4.9l-1.3 1.9" transform="translate(119.9 106.35)"/><path fill-rule="evenodd" fill="url(#ce)" d="M-17.1 15.8q-1.8 15.35-7.5 22.55l.2-2.65q3.55-6.05 3.95-14.35l.65 4.15 2.45-12 .25 2.3" transform="translate(119.9 106.35)"/><path fill-rule="evenodd" fill="url(#cf)" d="M-15.5 23.7q-1.1-3.5-1.6-7.9l-.25-2.3-2.45 12-.65-4.15q-.4 8.3-3.95 14.35-.05-3.5-1.4-6.8l-.35-.8-1.8-2.65q-1.8 4.8-1.6 9.6l-.6-5.3q-1.75 7.05-3.5 19-7.85-4.55-12.15-12.2l-.45-.85-1.55-1.85q1.25 5 .6 9.4l-1 1.75q-.1-2.3-.45-4.75l-.7-3.95-.65-2.8-1-3.6 1.55-4.55q.85 2.55 2.3 4.95v-7.2q1.75 8 4.6 12.4l-1-7.5q1.4 7.15 4.75 13.7-2.3-9.2-2.6-18.45 1 8.7 3.4 12.9-1.2-7.4 0-16.65l1.5 8.35q.1-6.75 2.4-14.7-.3 4.8.7 8.5.5-5.4 3.55-11.6-1.45 8.15-.65 14.05.9-7.75 3.45-15l3.15-1v7.8l1.25-8h2.4q.05 2.5.7 4.75-.05-2.45.45-4.9l3.6-1.3q-.1 1.8.2 3.45.35-2.65.85-3.75h2.5q-2.9 6.7-2.5 12.2l.35 4.3-1.4-5.2v6.25m-7.2-5.65q-1.45 1.1-1.75 4.85l1 4.4q-.7-4.85.75-9.25m-13.65 15.6q-.8 2.45 0 6.4l2.1 3.75q-1.65-4.5-2.1-10.15" transform="translate(119.9 106.35)"/><path fill-rule="evenodd" fill="url(#cg)" d="M-25.8 28.9q-4.85 9.45-7.35 20.1l-.5-.25q1.75-11.95 3.5-19l.6 5.3q-.2-4.8 1.6-9.6l1.8 2.65.35.8" transform="translate(119.9 106.35)"/><path fill-rule="evenodd" fill="url(#ch)" d="M-22.7 18.05q-1.45 4.4-.75 9.25l-1-4.4q.3-3.75 1.75-4.85" transform="translate(119.9 106.35)"/><path fill-rule="evenodd" fill="url(#ci)" d="M-36.35 33.65q.45 5.65 2.1 10.15l-2.1-3.75q-.8-3.95 0-6.4" transform="translate(119.9 106.35)"/><path fill-rule="evenodd" fill="url(#cj)" d="M-42.5-4.8q1.65.95 3.4 1.75l.45 4q-1.25-1.55-2.8-2.6L-42.5-4.8" transform="translate(119.9 106.35)"/><path fill-rule="evenodd" fill="url(#ck)" d="m-45.45-2.5.7.05Q-40.8-.7-41.1.5L-44-.55l3.3 3.4q3.4 3.9 2.85 6.25-1.2 1.15-3 1.55.1-1.5-.7-3.6-.5-1.3-1.35-2.85-2.05-3.45-5.6-5.55l1.1-1.1 1.95-.05" transform="translate(119.9 106.35)"/><path fill-rule="evenodd" fill="url(#cl)" d="M-55.7 24.85q-11.4 4.75-27.25-2.15 2.65-.75 4.65-3Q-59.9 31-41.55 7.05q.8 2.1.7 3.6-4.15 7.15-9.5 11.15l-2.8 1.85-1.2.6-1.35.6" transform="translate(119.9 106.35)"/><path fill-rule="evenodd" fill="url(#cm)" d="m-54.25 35.6-6.15.5q-1.65-1.5.45-3.7 1.95-.9 1.2-4.05 1.75.1 3.5-.65l1.75-.95 1.15-.9q.75 2.05 1.35 4.05l1 3.6-1 .65-1.3.7-1.95.75" transform="translate(119.9 106.35)"/><path fill-rule="evenodd" fill="url(#cn)" d="m-55.25 27.7-.45-2.85 1.35-.6.85 2.5-1.75.95" transform="translate(119.9 106.35)"/><path fill-rule="evenodd" fill="url(#co)" d="M-48.65 40.25-51 36.8l-1.3-1.95 1.3-.7 1.65 2.15.7 3.95" transform="translate(119.9 106.35)"/><path fill-rule="evenodd" fill="url(#cp)" d="M-66.85 56.6q-.45-5.25 4-12.1-.45.45-3.45 1.6 4.1-6.75 12.05-10.5l1.95-.75 1.3 1.95q-6.45 1.35-10.45 6.2l3.5-1.35q-6.35 7-8.15 14.75l-.75.2" transform="translate(119.9 106.35)"/><path fill-rule="evenodd" fill="url(#cq)" d="M-45.8 36.55q.05 1.65-.25 3.15l-.7 2.5-.45 1.05q.65-4.4-.6-9.4l1.55 1.85.45.85" transform="translate(119.9 106.35)"/><path fill-rule="evenodd" fill="url(#cr)" d="M-50.55 73.25q-5 4.15-11.45 6.45l1.65-6.25L-56.4 66l4.85-.25q1.05.55 1.75 1.85l-5.35 6.45 5.95-4.95.5 2.5-1.85 1.65" transform="translate(119.9 106.35)"/><path fill-rule="evenodd" fill="url(#cs)" d="m-70.35 58.95 1.8-2.35h1.7l.75-.2q2.45-.55 3.05 1.7-2.5-1.95-5 .75l-1.1-.35-1.2.45" transform="translate(119.9 106.35)"/><path fill-rule="evenodd" fill="url(#ct)" d="m-71.4 68.3-11.2-.3q2.3-3 6.15-5.45l8.4-3.7q1.15.45 1.7 1.2l-8.2 4.85 8.65-3.85-.6 2.7q-2.8 2.2-4.9 4.55" transform="translate(119.9 106.35)"/><path fill-rule="evenodd" fill="url(#cu)" d="m-66.35 60.05.45 1-8.65 3.85 8.2-4.85" transform="translate(119.9 106.35)"/><path fill-rule="evenodd" fill="url(#cv)" d="m-74.5 74.6-1.2-.05q1.55-3.2 4.3-6.25 2.1-2.35 4.9-4.55l1.25-.6-6.65 7.1-2.6 4.35" transform="translate(119.9 106.35)"/><path fill-rule="evenodd" fill="url(#cw)" d="m-60.85 72.4-3.95 1.05 2.4-3-3 1.55-2.05.8 2.2-2.35-6.3 4.05-2.95.1 2.6-4.35 6.65-7.1q2.6-1 4.7 0l.7.85-4.45 4.05 5.5-2.7 1.1 1.4q-1.95 2.9-3.15 5.65" transform="translate(119.9 106.35)"/><path fill-rule="evenodd" fill="url(#cx)" d="m-64.8 73.45-6.75 1.05 6.3-4.05-2.2 2.35 2.05-.8 3-1.55-2.4 3" transform="translate(119.9 106.35)"/><path fill-rule="evenodd" fill="url(#cy)" d="m-62 79.7-.8.25q.15-3.6 1.95-7.55 1.2-2.75 3.15-5.65l1.3-.75-3.95 7.45L-62 79.7" transform="translate(119.9 106.35)"/><path fill-rule="evenodd" fill="url(#cz)" d="m-49.8 67.6.6 1.5-5.95 4.95 5.35-6.45" transform="translate(119.9 106.35)"/><path fill-rule="evenodd" fill="url(#cA)" d="m-59.85 64 1.05 1.35-5.5 2.7 4.45-4.05" transform="translate(119.9 106.35)"/><path fill-rule="evenodd" fill="url(#cB)" d="M-46.05 39.7q7.85 11.5 20.45 17.65-14.15-5.45-21.15-15.15l.7-2.5" transform="translate(119.9 106.35)"/><path stroke-opacity=".498" stroke-linejoin="round" stroke-linecap="round" stroke="#ff9" fill="none" d="M75.05-88.75q5.45-2.2 12.05 0-1.25 1.15 1.1 2.3 1.85.9 1.9-.5 1.8 2 1.9 3.65m16.35 28.8q2.9.6 3.6 3.2-1.05-.45-.65 2.45.55.8 1.25-.4.25 2.3-.45 3.5M-6.05-91.5q-1.9.15-2.55-1.3-5.45 1.25-8.15 6M41.9-99.5q2.6.05 4.1 1.8-.5.3-.25 1 .4 1.1 2.75 1.05m-21.25-.55q-2.8 1.65-5.1 6.2" transform="translate(119.9 106.35)"/><path stroke-width=".05" stroke-opacity=".561" stroke-linejoin="round" stroke-linecap="round" stroke="#000" fill="none" d="m211.9 23.05 1.3.15q-2.15-6.45-8.3-7.8-5.55-1.3-11.05 1l1.1 1.2q2.4 2.85 3.8 5.7 6.75-.85 13.15-.25m-11.4 48.7 1.6 1.5q2.85-2.15 4.9-5 2.05-2.85 3.25-6.35 2.8-5.35 3.55-10.65l.25-3.6-.05-1.3q-.1-2.55-.7-5.1-1.15-4.7-3.85-9.4-3-3.4-7.45-5.65l-2.5-1.1-3.75-1.25-2.45-.6q-7.05.6-12.4 2.9-1.6.65-3 1.5l-3.65 2.55q-1.95 1.6-3.5 3.6m57.05 16.5q-1.2-3.85-3.25-8.25l-1.2.15q-4.95.65-9.35 4.15m13.3 10.85q1 .65 2.05 1.35-.15-3.05-1.1-6.7l-.45-1.55q6.95 2.45 5.15 11.1l3.85 3.75 2.5 2.9-2.5 1.3q-3.85 1.8-7.8 2.45 1.7 4.65.9 8.5l-1.25-.05q-2.95-.4-4.65-2.9-.4 1-2.65 3.35t-7.2 4.45l1.2 2.7q2.5 12.6-3.1 20.45 2.9 16.9-10.9 23.55l3 1.6.35.2-.45-.05-3.6-.4-.15 2.1q-.5 2.35-2.55 4.3l.05 1.6q9.5 1.45 18.2-.4v2.05l1 .4 1-2.65 6.35 2.05q2.25 2.15 2.25 4.3l-1.65 6.15-2.85 2.05-6.1-1.65 1.4-2.85h-1.85q-.05 2.25-2.05 3.25l-5.3-1.45h-12.25l-2.05 4.3-3.5 3.5-.7-.2-.65-.25-1.25 2.55q-4.7 8.1-15 10.55l-1.65 1.15q-4.15 2.6-8.45 3-4.1.35-8.3-1.25l-2.25.8-1.25.6q3.45 4.5 3.5 7.4l-.95 1.95q4.25 6.6 2.6 12.15l-.6.1q-4.4.3-8.8-2.15l-3.45-3.2q-1.1 7.4-5.55 11l-.6-.55q-3.5-3.5-4.3-8.1l-1.45 1.9q-4.55 3.6-11.45 3.85-.15-4.5 2.65-10.6l-1-1.85 2.15-3.75q-14 8.9-29.7 9h-1.1Q84 189.8 90.4 181.7q3.7-4.55 8.2-8.55l-2.9-2.5q-.75 1.15 0 2.25-2.65-.95-4.25-4-1.9 5.45-14.2 5.85m-24.2-11.8q-.45-5.25 4-12.1-.45.45-3.45 1.6 4.1-6.75 12.05-10.5l-6.15.5q-1.65-1.5.45-3.7 1.95-.9 1.2-4.05 1.75.1 3.5-.65l-.45-2.85q-11.4 4.75-27.25-2.15-2.55.7-5.65.1-2.2-.5-3.2-2.15-.3-2.7.4-3.9.55-.9 1.75-.9-1.5-2.3-1.9-4.55l-3.05-1.15q-3.25-.75-3.95-4.65-.55-2.85 1.9-5.1l.55.05m.1 0 1.9.05-.05-3.8-1.45-1.15q-1.9-1.6-3.4-3.8l-.85-5.75-3.8 1L.5 96q10.45-7.95 14.85-19.6l4.6.8q1.55 3 1.65.2l2.25-.4q-2.65-2.6-2.6-8.6 5.8-14.8 14.35-19.7-.55 7.5 4.3 11.05l7.25-.25q3.55-3.85 2-10.8l-.2-.75 3.1 2.05.1-1.45q.5-7.7 3.2-14.35 1.65-4.05 4.15-7.7-1.95-.75-4.35-.75l-2.7.2q6.2-3.1 10.95-2.45-1.05-3.3-4.4-6.65 8.65 1.35 13 9.95Q78.25 38.15 87.4 46q3.3.3 6.6.15-5-3.95-8.65-8.4l-2.1-2.8-1.85-2.85q5.95 5.9 13.75 7.75-.3-1.85-.2-3.95l-5.4-2.75-1-.5 7.65-2.55q-3.15-6.7-2.3-14.65l.15-1.25q3.5 2.65 7.4 4.55 6.9-8.85 14.5-6.45l3.1-3.05 3.85-3 3 3q4 4.4 5.85 9.2 4.5-1.55 8.8-1.95 1.75-4.5 4.85-7.25l3.5-2.35q1.65-2.85 3.95-5.55l.7-.85q3.95 2.7 5.7 4.15 5.5.75 9.3 4.6l.75.85 1.35-.85q4.45-2.55 10.1-3.2l.25 3.2q.35 7.45-1.95 12.85l2.35.95q2-6.5 5.25-11.9l.5-.8q3.95 3 6.7 6.05m33.05 10.25.75.3q-4.3 9.95-14.35 14.3m-.1-18.05q7.1.8 13.7 3.45M232 60.6l.95.8m-7.05-2.2 1.1 2.3q1.3 6.2-.15 10.6l1.35-.15.8-.15m.35-13.25L232 60.6m-8.8-5.6q1.5 1.9 2.7 4.2m-2.7-4.2 4.1 2.2m-14.25 25.9 1.1 2.05m-9.45-8.3 1.35 4.7q2.3 10.75-2.95 19l-.2 2.55q-1.3 11.65-8.45 19.4l-2.3 2.25m19-18.7 1.1 2.25m-7.55-31.45q4.6-.35 8.35 6.25M224 77.35q1.85-2.3 2.85-5.25m-12.8-24.45q5.45 2.5 9.15 7.35m-13.55 49 .65.8.85 1.25m-1.5-2.05q-2.6-2.8-6.55-3.45l-1.05-1.4Q194.5 89.6 181.6 86l.15 3.85m-40.2 8q-2.6 1.65-4.75 3.65l-.1.45q-.85 2.85-3.65 2.85v.05q-3.1 6.55-4.45 12.8l-.3.95-6.25-2.55v-1.65q.9-2.55 2.1-5.05l-10.5 6.85-2.85 4.55q-3.6 9.05-2.85 16.35-2.2-2.8-3.55-7.05-1.1-3.5-1.6-7.9-1.8 15.35-7.5 22.55l.2-2.65q-.05-3.5-1.4-6.8-4.85 9.45-7.35 20.1l-.5-.25q-7.85-4.55-12.15-12.2.05 1.65-.25 3.15M94.3 163.7q-14.15-5.45-21.15-15.15l-.45 1.05-1 1.75q-.1-2.3-.45-4.75l-2.35-3.45m40.45-120.9.25-.5q-3.35-.9-6.45-2.2l-1.7-.8m4.85 4.85 3.05-1.35q11-2.3 19.3.35l-2.25-2.05.8-.35 1.7-.7m-15.5-4.05q-2.15 2.9-3.8 6.3m4.25-6.9 2.1-2.55m-2.55 3.15.45-.6M94.95 35.9q.1-2.3 1.4-4.45l-.15-1.35m.15 1.35q2.6-4.35 9.95-7.85m24.35.6-2-1.6M117.2 50.5l-3.75-4.35-1.2-1.65m23.8-13q.15-1.95.8-3.75-3.1-1.3-6.2-3.55M119.9 47.9q-2.95-.5-2.95-2.15l1.8-1.4m-39.3 5.25-1.5.35m-9.8 8.15 2.2.1 7.8 1.3m5.7 45.1-.1-.5v-2M52.05 50l.65.45m-5.55 9.05 2.85.85q6.8 4.05 9.1 11.25.4 7.5-5.25 10.6l1.45-.15 1.85-.35 3.95-2.6m-8.2 3.15.95-.05m3.3-.5v1.55l-1-.4Q46.7 93.55 46 105.5q-11.45-6.6-14.15-15.95m-3.05 12.7.7 1.2m44.95.4.7.05q1.65.15 3.3.8M52.9 82.25l-3.4-.2-1.45-.25q-2.35-.5-4.5-1.65-5.65.6-10.75 2.65l-.9.35-.9.4.2 2.75.65 3.25M85.9 85.6l.3-1.1.55-1.6q-1 1.3-3.25.85-6.55-1.35-4.75-4.9l-.05-.05q-2.75-1.1-4.9-3m14.35 3.55L86.6 80.5q-4.4-.25-7.85-1.65m9.4.5-1.4 3.55m17.95-5q-1.35-.85-3.45-1.55-4.65.15-5.9-1.15-4.4-.4-6.3 2.3l-.2.3-.7 1.55m18.25 5.15.4-4q-.35-1.45-2.1-2.6m43.5 5.6-.75-.6m-41.05 1.6q-.5 5.45-.45 11.05l.45 8.5.15 1.9-.25.5m.5-25.95 4.05-.65q8.25-1.6 13.35-4.65 3.35 3.8-3.5 7.1-7.25 1.45-9.85-2.45M95.35 69.8q-1.3 2.1 0 5.4m73.05-64.5.9-.6m6.9 10.4.5.6 2.35 1M161.8 6.85l2.6 2.4 2.45 2.65 1.55-1.2m.55 4q-2.9-1.45-6.25-1.85l-9.35.35q-5.2 2.2-8.8 4.9l-1.2.9q-4.8 3.9-6.5 8.75m35.15-8.6 4.7 1.95m4.45 3.35.25-1.4m-.25 1.4-.25 1.7m-8.9-7 1.45 2.1 4.45 6.4m-8.95-12.95q4.1 1.95 7.25 5.8m-9.35-8.6 2.1 2.8m30.55 10.4-.75-1.8m-39.5-18.65 2.55 2.2m-14.65 3.3.45-.9 1.3-2.35m-3.95 9.4-2.9.05-1.5.15m4 1.6.4-1.8q.75-3.15 2.2-6.15m-15.4 8.3-2.85 1.05m7.15 12q-.2 1.45-.05 3m24.6-4.35-1.3 1.05m-5.2 45.2 4.35-.2h1.3M173 58.85l-3.8-.95m7.85 47.35q4.55-6.8 4.7-15.4m-39.8 7.75q2.2-1.4 4.75-2.6 3.65-.6 5.85.7h.35l3.5-.15-.5-.5q-4.3-2.15-9-2.3-5.2 2.55-10.4 7.05l.6.5-.3 1.2m22.35-4.45-2.55.6m27.3-31.95q10.8 1.3 16.6 6.05m-16.6-6.05q.7 1.7.95 3.8m-5 14.45L181.6 86q3.85-10.15 3.25-16.5M173 58.85q7 2.1 10.9 6.85m-4.05 18.25q-7.15-7.45-20.1-7.75M33.9 62.3l1.05-.75q2.55-1.2 4.95-1.8M26.1 76.6l-1.15.2-1.1.2m7.35 9.3L28.85 88l-1.05.7-.55 2.75.5.8v5.95q.15 2.2 1.05 4.05m-1-13.55-1 .6-.95.55-.8.4q1.3 0 2.2 1.2m4.65-8.3q-5.1-1.05-5.8-6.55.6-9 7.8-14.3m-8.85 27.95q-2.4 1.2-5 2.1m8.5 12.25q-1.5-.65-2.8-1.55m.05 3.8q.7 3.3 2.95 5.95l.85.5 5 3-.8.55-.75.55-2.05.35-2.65-.1m.2-13.05h1.85l-.9-1.15m4.95 19.6q3.4-.05 6.35-2.6h2.65q-.15 3-1.85 5.6-2 2.25-4.65 3m41.4-15.65q-.5-1.3-1.35-2.85-2.05-3.45-5.6-5.55l1.1-1.1 1.95-.05m-44.2 18.35q2.2.85 4.2.85m142.6-17.8-1.45 1.9m-4.1-6.3.05-.05m-.2-.2.45-.05m8.6 28.6.35 1.85q3.8 2.8 8.6 3.75l.45.05 2.25.3q-4.8-1.75-6.55-5.95 4.25 1.8 9.05 2.95m-20.7-1.3 1 1.3q3.9 4.7 10.55 8l1.55.7q-4.95-4.15-6.2-9.8m-18.4 6.55 5.75 1.05 1.95 2.85 1.9 2.85v5.95l.65 4.1-1.65 4.7v1.4m3.9-28.35-6.3 3 1.2 3.05-4.1-3.45-1.6 1.45M198 141.2l-.9 5.6-.95 5.65M133 104.8h.05l.65-1.95-.7 1.95m-8.1 3-.75 1.55m4.5-7.95q-2.1 3.15-3.75 6.4l-9.95 6.5-1.3 1.9m13.9-14.3 1.1-.5m4.35-4.5 3.5 2.9m-14.45 14.6 6.55 3.25m1.1-17.8 4 3m22.7 29.05-1.35 3.45-.7 1.75-2.05 5.2m7.4 4.05h1.25l3.65 2.45-1 3.9v4.1m-5.8 6.6 1.4 2.05.7 1.55v1.85m-12.05-41.3.85 4.6.1 1.55q-.05 2.95-.95 5.5l.7.7M145 125.5l-2.75-1.65q-2.15 1.5-2.95 3.45m3.6 13.05 1.05.45 1.05.45-1.05-1.25 1.45-2.85 2.45 2.05M148 154q6 2.95 12.05 2.05m-17.8-32.2q1.85-1.4 4.8-2.45m13.9 36.6.3-.15 2.35-1.05m-14.3 6.3.85 1.35 2.2 3.6.6 3.25q.35 3.5-.6 5.3m-2.2-12.15-.95-1.25m-5.25 6.7v4.85l.5.95m13.35-12.3q-1.1-1.3-2.65-2.4m-8.4 22.65q.7-.45 1.7-.7l.65-.2 3.65 2.45.9 1.35m-21.75 1.95-1.2-1.65q-1-1.35-4.1 0l-3.9 4.1m20.35-.7q-.95-1.75-3.3-3.65-1.05-.8-2-.9m-5.85 2.8 1.25 1.65q.6-2.1 2.2-3.55 1.15-1 2.4-.9m-4.6 4.45q-.4 1.2-.45 2.6l.25 3.05m10.1-5.55 1.55-4.25q.6-1.5 2.15-2.35m-3.35 9.8.15-1.5-.5-1.7m27-17.85 2.95.5m-7.8-5.4q.05 3.6 4.85 4.9m-78.6 16.8q-3.2-1.2-2.3-4.25m54.65-37 1.25 1.6m-26.1-40.15q3.95-4.3 8.6-7.5m-24.75 20.25-.25-2.3m16.4-10.45q-2.1 2.3-4 4.9m-33.7-7q-1.25-1.55-2.8-2.6m15.65 30.55-.35-.8m-15.4-21.05q.8 2.1.7 3.6m-11.5 15.2-.8-2.2m-.35 3.1 1.15-.9q.75 2.05 1.35 4.05l1 3.6.65 2.8.7 3.95m-6.6-12.55 1.75-.95m2.5 7.4-1.3.7 1.3 1.95m-1.3-1.95-1.95.75m4.25-2.1-1 .65m5.2 2.4-.45-.85m16.55 23.5 1.25 3.35m-18.3-20.35.7-2.5M85.9 85.6q-2.1 7.4-2.15 16.5M202.1 73.25q1.5 1.65 2.6 3.6"/><path stroke-width=".5" stroke-opacity=".569" stroke-linejoin="round" stroke-linecap="round" stroke="#000" fill="none" d="m170.75 33.8 1.1.75 2.65 2.3q-1.85-.8-3.7-.95l-.8-.05m29.5 94.9 1.85 1.1m-9.2-7.1q3.2 3.3 7.35 6M87.4 46l-3.35-.45-4.55-.95q-3.9-1.05-7.75-2.65Q69.4 40.9 67 39.7m32.65 1.4-3-.85-1.5-.4m4.5 1.25q5.4 1.7 9.15 4-.65-2.4-.9-4.85l-.1-1.15m1.15-.6-1.15-3.1-.05 1.2.05 2.5m4.45 5.4q-1.85-2.5-3.3-6m9.8 5.85q-1.95-.6-6.5.15M52.7 50.45q3.7 2.75 6.95 6.5l2.15-1.25m8.85-11.05q-3-2.7-5.2-5.8l1.55.85m10.95 10.25q-9 1.95-16.15 5.75m.85 2.45 5.5-.05m-9 .4 1.95-.2 1.55-.15m3 4.25 2.5-4.3m-3.95 7.45-1.3 3.7q-1.45 4.7-1.8 9.85-.35 5 .25 10.4.35-2.55 1.45-4.3 1.95 8.75 6.55 13.5-1.05-1.6-1.05-4.4 4.2 4.35 9.1 7.25 1.65.95 3.4 1.75 1.45.7 3.05 1.3m-18.2-42.2-1.45 3.15q-.5-3.15-3.1-7.25m-1.45-1.35-1.2.7-1.9 1.25 1.1-.15 1.5-.25m79.4 33.75q2.8-2.1 6.1-4l1.55.1q1.75-1.85 2-4.85M70.65 44.65q3.2 2.85 7.3 5.3m96.8-.3.7 1.4q-.05-6.4-6.05-12.8l-2.15-2.1 2.75-.3m-8.15-7.35-1.25 1.65q5.65.65 10.15 3.65m-17.65-4.9 4.65-1.05q3.3-1.05 5.1-4 .1 2.7-1 4.65m-25.85 6 1.75-.7m15.35-4.9q-8.15 1.95-15.35 4.9M133 96.9q2.5-2.45 5.55-4.65M169.2 57.9l-1.15 3.05q-4.3 9.65-13.95 15.45-2.1 1.25-4.4 2.3 1.55 4.45 0 7.8-.15-1.75-1.5-3m7.7 11.55q-1.9-2.1-2.25-4.8-3.4-1.6-7.45-1.9m25.15 12.25q-6.45.65-12.2-3.55 1.9-.6 3.3-1.65l1.25-1.2.4-.55-3.45 1.15-4.25.75m18.35-45.9q-1.15-1.85-3.4-4-.25 6.7-2.15 12.25m-50.45-13.55Q126.5 38.6 136 34.5m56.15 90.25-1.35-1.45-2.45-3.05-.6-.9-.15-.3q-4.25-7.55-12-11.9l-1.45-.75q-3.95-2-8.7-3.2m6.35-2.65-.25.25m-.05.05q-1.8 1.75-6.05 2.35m29.1 28.9 4.3.85 1.8.25m-36.6 2.95-1.7 1.4m8.6 22.9 3.1 1.85 5.75-2.7 3.45 1.65 4.7-1.85 1.3.4m-25.2-23.65-1.05-2.7-6.15-2.65-.45 1.1 2.9 1.55 3.05 4.1m35.4 1.1.2.95m-.7-2.65.5 1.7m-3.2-6.55q1.8 2.6 2.7 4.85m-68.6-35.55 1.05-1.55q.75-2.15 3.3-2.95m19.3 45.4 3.95 4.05h3.45m.2 22.5 5.3-1.35 2.5-.7 3.25-3.05v-3.3m-14.1-29.65q.3-1.05-2.05-2.45l-1.25 1.05q-2.9-1.4-3.9-3.5h-1.8v1.65m.7 12.35.75.75h1.4q.45 2.2 1.6 1.65M141.95 129l1-3.5H145l2.85 2.05m-5.9 1.45-1.05 3.45 1.2 7.55.8.35q-12.55 13.1-27.7 21.25-9.35 5.05-16.6 11.55m49.95-33.25-2.1 2.85-1.4 6.8L148 154m12.05 2.05q-2.05-3.9-.35-9.7M155.15 161v-1.75l5.8-1.25m.3-.15q-.75-.85-1.2-1.8m-9.95 5.05-.8 2m5.85-2.1-1.15-.75-1.45 2.25h-1.25l-1.2-1.4q-.1-3.3-2.1-7.1m1.2 9.2-2-2.6-1.6 1.25-1.65 3.25v4.8m.5 5.8.95 1.85 1 1.9 3.7 2.45-.85-2.05h1.65l-1-2.05 1.2-.6m3.5-1.4 1.2-2.45 4.1-2.65v-1.85m-20.25 3.7 4.3-2.65m-20.1 15.45 1.5-1q7.3-4.25 15.05-7.2l4.05-1.45m-22.75 6.45q9.05-4.25 17.95-9.6m6.8-29.8q-2.75 3.35-6.2 6-14.8 12.7-31.05 21.05-4.3 1.8-7.7 4.55l2.6 1.4v-2q3.45 2.5 7.8 2.05-1.15-1.75 0-3.5 2 6.65 9.8 9.85-7.85 3.65-15.8 6.5l-14.45.55q3.15-9.3 10.05-14.85m26.05-72.45q-9.4 4.2-18.75 4.55h-2.5l-1.25 1.65q-1.3 1.25-3.15 2.05l-.5.2-1.55.55-2.15.55-1.7.3-1.8.15-5.05-.45q-4.5-2.55-5.3-6.85m-1.8 10.85 1.1-1.55v-3.55q-.8-1.7-1.9-3.05l-.45-4M79.05 117q1.8-.4 3-1.55m-16.5 15.15-1.35.6m2.55-1.2-1.2.6m13.5-13.6q-4.15 7.15-9.5 11.15l-2.8 1.85"/><path stroke-opacity=".498" stroke-linejoin="round" stroke-linecap="round" stroke="#fb9804" fill="none" d="M81.65 26.5q-16-4.8-28-12.95l6.6 1.2Q51.7 6.25 31.7 4.35L36.6.7q-9.2 2.8-14.65-2.65-1.7-2.85-.3-6.55m-33.3-19.9q-1.1-1.75-6.7-3.05l-2.7-.45q-3.6-1.1-2.75-3.1-.7-3.25 7.8-8.4-.2-5.05-7.15-12.15 4.4.55 8.75 6.4-.85-5-6.8-11.3l-13.35-8.15m-19.65-3.45-4.35-4q-2.5-.65-3 .2l-.55.95-.45 1.45m8.45 1.4q.35-2.5-1.9-6.3 4.05 4.6 4.7 7.15l.95 1.1.7.95q3.6 4.5 9.25 7.4m3.6 6.65q2.1 1.2.8 1.6-8.1-.8-21.15 4.2m45.5 20.9Q-2.15-29 6-33.45q3.95 0 4.35 3.7.4 3.9-2.3 6.2Q25-19.4 18.65-14.1m-70.9-51.75q3.85 4.1 21.1 9.95 4.05-.5 5-2.3M21.7-37.1q.45 2.4 4.45 3.15 11.2-4.05 14.6-15.2 1.75-6.1.35-10.55l4.2 1.7-5.4-4.85 5.4 1.05q-3.45-2.3-8.55-4.05-10.45-2.1-21.1 2Q8.8-61.15 3.7-56.8l5.25 3.95m60.5 81.25q-4.7-1.65-7.45-4.05V22.8q.05-1.6 1.35-1.25h.15q.4 3.25 6 6.7l-.05.15m-6.6 3q-5.2-4.75-8-9.15-1.3-4.3 3.55-1M23.9 41.6q-.75 6.5-5.05 11.8l2.25-.9q.5 7.1-1.35 13.7m5.75 5-7.95 4.1.1.7q.15 2.45 4.5 3.5.45-2.3 3.65-4 1.75.9 1.05 1.8" transform="translate(119.9 106.35)"/><path stroke-opacity=".369" stroke-linejoin="round" stroke-linecap="round" stroke="#ffff93" fill="none" d="M-70.2-44.3q-2.9 3.35 0 5.85 4.2 3.2 5.15-1.4m-5.15-4.45-.9-.45q-11.05-2.9-17.85 6.3-6.5 8.75.55 14m23.75-1.8q2.55-2.95 2.85-6.8-.95-3.55-3.25-6.8m.4 13.6L-67-24.1m-20.1.55-1.3-.9" transform="translate(119.9 106.35)"/><path stroke-width=".05" stroke-opacity=".561" stroke-linejoin="round" stroke-linecap="round" stroke="#000" fill="none" d="M77.25 174.75q-1.5 3.25-4.2 5.85l-3.7-1q-5 4.15-11.45 6.45l-.8.25q.15-3.6 1.95-7.55l-3.95 1.05-6.75 1.05-2.95.1-1.2-.05q1.55-3.2 4.3-6.25l-11.2-.3-1.5-.05q5.25-5.95 13.75-9l1.8-2.35h1.7m.75-.2q2.45-.55 3.05 1.7m-5 .75q1.15.45 1.7 1.2l.45 1-.6 2.7 1.25-.6q2.6-1 4.7 0l.7.85 1.05 1.35 1.1 1.4 1.3-.75 4.85-.25q1.05.55 1.75 1.85l.6 1.5.5 2.5-1.85 1.65m-19.8-14.3 1.2-.45 1.1.35m1.95-2.45-.75.2m24.2 11.8 1.1-2.9M53.4 170.1q-2.8 2.2-4.9 4.55m13.7-1.55q-1.95 2.9-3.15 5.65"/><path stroke-width="6" stroke-opacity=".761" stroke-linejoin="round" stroke-linecap="round" stroke="#fff4df" fill="none" d="m45.7 127 1.95.45m7.7.75q13.05-1 17.6-12.5"/><path stroke-opacity=".588" stroke-linejoin="round" stroke-linecap="round" stroke="#370906" fill="none" d="M93.4-65.1q.6 2.55.7 5.1 4.4-3.5 9.35-4.15l1.2-.15q2.05 4.4 3.25 8.25 6.95 2.45 5.15 11.1l3.85 3.75 2.5 2.9-2.5 1.3q-3.85 1.8-7.8 2.45 1.7 4.65.9 8.5l-1.25-.05q-2.95-.4-4.65-2.9-.4 1-2.65 3.35t-7.2 4.45l1.2 2.7q2.5 12.6-3.1 20.45 2.9 16.9-10.9 23.55l3 1.6.35.2-.45-.05-3.6-.4-.15 2.1q-.5 2.35-2.55 4.3l.05 1.6q9.5 1.45 18.2-.4v2.05l1 .4 1-2.65 6.35 2.05q2.25 2.15 2.25 4.3l-1.65 6.15-2.85 2.05-6.1-1.65 1.4-2.85h-1.85q-.05 2.25-2.05 3.25l-5.3-1.45H76.25l-2.05 4.3-3.5 3.5-1.35-.45L68.1 56q-4.7 8.1-15 10.55l-1.65 1.15q-4.15 2.6-8.45 3-4.1.35-8.3-1.25l-2.25.8-1.25.6q3.45 4.5 3.5 7.4l-.95 1.95q4.25 6.6 2.6 12.15l-.6.1q-4.4.3-8.8-2.15l-3.45-3.2q-1.1 7.4-5.55 11l-.6-.55q-3.5-3.5-4.3-8.1l-1.45 1.9Q7.05 94.95.15 95.2 0 90.7 2.8 84.6l-1-1.85L3.95 79q-14 8.9-29.7 9h-1.1q-9.05-4.55-2.65-12.65 3.7-4.55 8.2-8.55l-2.9-2.5q-.75 1.15 0 2.25-2.65-.95-4.25-4-1.9 5.45-14.2 5.85-1.5 3.25-4.2 5.85l-3.7-1q-5 4.15-11.45 6.45l-.8.25q.15-3.6 1.95-7.55l-3.95 1.05-6.75 1.05-2.95.1-1.2-.05q1.55-3.2 4.3-6.25l-12.7-.35q5.25-5.95 13.75-9l1.8-2.35h1.7q-.45-5.25 4-12.1-.45.45-3.45 1.6 4.1-6.75 12.05-10.5l-6.15.5q-1.65-1.5.45-3.7 1.95-.9 1.2-4.05 1.75.1 3.5-.65l-.45-2.85q-11.4 4.75-27.25-2.15-2.55.7-5.65.1-2.2-.5-3.2-2.15-.3-2.7.4-3.9.55-.9 1.75-.9-1.5-2.3-1.9-4.55l-3.05-1.15q-3.25-.75-3.95-4.65-.55-2.85 1.9-5.1l2.55.1-.05-3.8-1.45-1.15q-1.9-1.6-3.4-3.8l-.85-5.75-3.8 1-15.75 2.65q10.45-7.95 14.85-19.6l4.6.8q1.55 3 1.65.2l2.25-.4q-2.65-2.6-2.6-8.6 5.8-14.8 14.35-19.7-.55 7.5 4.3 11.05l7.25-.25q3.55-3.85 2-10.8l-.2-.75 3.1 2.05.1-1.45q.5-7.7 3.2-14.35 1.65-4.05 4.15-7.7-1.95-.75-4.35-.75l-2.7.2q6.2-3.1 10.95-2.45-1.05-3.3-4.4-6.65 8.65 1.35 13 9.95 6.25 11.35 15.4 19.2 3.3.3 6.6.15-5-3.95-8.65-8.4l-2.1-2.8-1.85-2.85q5.95 5.9 13.75 7.75-.3-1.85-.2-3.95l-6.4-3.25 7.65-2.55q-3.15-6.7-2.3-14.65l.15-1.25q3.5 2.65 7.4 4.55 6.9-8.85 14.5-6.45l3.1-3.05 3.85-3 3 3q4 4.4 5.85 9.2 4.5-1.55 8.8-1.95 1.75-4.5 4.85-7.25l3.5-2.35q1.65-2.85 3.95-5.55l.7-.85q3.95 2.7 5.7 4.15 5.5.75 9.3 4.6l.75.85 1.35-.85q4.45-2.55 10.1-3.2l.25 3.2q.35 7.45-1.95 12.85l2.35.95q2-6.5 5.25-11.9l.5-.8q3.95 3 6.7 6.05 5.5-2.3 11.05-1 6.15 1.35 8.3 7.8 7.1.8 13.7 3.45l.75.3q-4.3 9.95-14.35 14.3m-188.25 49q1.3 0 2.2 1.2l.55-2.75-1 .6-.95.55-.8.4" transform="translate(119.9 106.35)"/></g><path fill-rule="evenodd" fill="url(#cC)" d="M14.75-14.8Q20.9-8.65 20.9 0t-6.15 14.75Q8.65 20.9 0 20.9t-14.8-6.15Q-20.9 8.65-20.9 0t6.1-14.8q6.15-6.1 14.8-6.1t14.75 6.1" transform="translate(20.9 20.9)" id="cD"/><path fill-rule="evenodd" fill-opacity="0" fill="#f0f" d="M102.95 45H0V0h102.95v45" id="cE"/><use xlink:href="#cD" width="41.8" height="41.8" id="a"/><use xlink:href="#cE" width="102.95" height="45" id="cH"/><radialGradient spreadMethod="pad" r="819.2" id="cC" gradientUnits="userSpaceOnUse" gradientTransform="scale(.0256)" cy="0" cx="0"><stop stop-opacity=".702" stop-color="red" offset=".004"/><stop stop-opacity="0" stop-color="#ff5151" offset="1"/></radialGradient></defs><path fill="none" d="M-1-1h371v326H-1z"/><g stroke="null"><use x="102.293" y="169.743" xlink:href="#cF" width="381" transform="translate(-331.56 -519.758) scale(1.7079)" height="381"/><use x="114.949" y="190.744" xlink:href="#cG" width="239.8" transform="translate(-174.254 -288.06) scale(1.51986)" height="212.25"/><use x="-70.725" y="-111.652" xlink:href="#cH" width="102.95" transform="matrix(3.0865 0 0 2.82452 226.253 370.898)" height="45"/></g></svg>