<svg width="299" height="296" xmlns="http://www.w3.org/2000/svg" xmlns:xlink="http://www.w3.org/1999/xlink"><defs><linearGradient y2=".409" y1=".614" x2=".498" x1=".498" spreadMethod="pad" id="f"><stop stop-color="#699601" offset="0"/><stop stop-color="#919100" offset="1"/></linearGradient><linearGradient y2=".241" y1=".812" x2=".5" x1=".5" spreadMethod="pad" id="g"><stop stop-color="#060" offset="0"/><stop stop-color="#660" offset="1"/></linearGradient><linearGradient y2=".222" y1=".85" x2=".679" x1=".303" spreadMethod="pad" id="h"><stop stop-color="#68668e" offset="0"/><stop stop-color="#63738f" offset="1"/></linearGradient><linearGradient y2=".499" y1=".499" x2="1" x1="-.001" spreadMethod="pad" id="i"><stop stop-color="#545272" offset="0"/><stop stop-color="#4f6675" offset="1"/></linearGradient><linearGradient y2=".346" y1=".695" x2=".774" x1=".183" spreadMethod="pad" id="j"><stop stop-color="#699601" offset="0"/><stop stop-color="#919100" offset="1"/></linearGradient><linearGradient y2=".621" y1=".42" x2="1.139" x1=".047" spreadMethod="pad" id="k"><stop stop-color="#060" offset="0"/><stop stop-color="#660" offset="1"/></linearGradient><linearGradient y2=".956" y1=".121" x2=".175" x1=".654" spreadMethod="pad" id="l"><stop stop-color="#ae5b00" offset="0"/><stop stop-color="#a79603" offset="1"/></linearGradient><linearGradient y2=".32" y1=".791" x2=".569" x1=".28" spreadMethod="pad" id="m"><stop stop-color="#699601" offset="0"/><stop stop-color="#919100" offset="1"/></linearGradient><linearGradient y2=".46" y1=".805" x2=".62" x1=".424" spreadMethod="pad" id="n"><stop stop-color="#060" offset="0"/><stop stop-color="#660" offset="1"/></linearGradient><linearGradient y2=".32" y1=".892" x2=".545" x1=".371" spreadMethod="pad" id="o"><stop stop-color="#060" offset="0"/><stop stop-color="#660" offset="1"/></linearGradient><linearGradient y2=".41" y1=".735" x2=".685" x1=".196" spreadMethod="pad" id="p"><stop stop-color="#699601" offset="0"/><stop stop-color="#919100" offset="1"/></linearGradient><linearGradient y2=".011" y1="1.012" x2=".984" x1=".143" spreadMethod="pad" id="q"><stop stop-color="#060" offset="0"/><stop stop-color="#660" offset="1"/></linearGradient><linearGradient y2=".595" y1=".439" x2=".512" x1=".343" spreadMethod="pad" id="r"><stop stop-color="#060" offset="0"/><stop stop-color="#660" offset="1"/></linearGradient><linearGradient y2=".493" y1=".493" x2=".827" x1=".178" spreadMethod="pad" id="s"><stop stop-color="#699601" offset="0"/><stop stop-color="#919100" offset="1"/></linearGradient><linearGradient y2=".5" y1=".5" x2=".997" x1="-.002" spreadMethod="pad" id="t"><stop stop-color="#c90" offset="0"/><stop stop-color="#e0ca05" offset="1"/></linearGradient><linearGradient y2=".5" y1=".5" x2=".999" x1="0" spreadMethod="pad" id="u"><stop stop-color="#c90" offset="0"/><stop stop-color="#e0ca05" offset="1"/></linearGradient><linearGradient y2=".5" y1=".5" x2="1" x1="0" spreadMethod="pad" id="v"><stop stop-color="#ae5b00" offset="0"/><stop stop-color="#a79603" offset="1"/></linearGradient><linearGradient y2=".632" y1=".307" x2=".803" x1=".232" spreadMethod="pad" id="w"><stop stop-color="#fff" offset="0"/><stop stop-color="#dada9c" offset="1"/></linearGradient><linearGradient y2=".099" y1=".654" x2=".318" x1=".764" spreadMethod="pad" id="x"><stop stop-color="#68668e" offset="0"/><stop stop-color="#63738f" offset="1"/></linearGradient><linearGradient y2=".341" y1=".568" x2=".715" x1=".237" spreadMethod="pad" id="y"><stop stop-color="#282736" offset="0"/><stop stop-color="#3f4559" offset="1"/></linearGradient><linearGradient y2=".19" y1=".885" x2=".959" x1=".028" spreadMethod="pad" id="z"><stop stop-color="#282736" offset="0"/><stop stop-color="#3f4559" offset="1"/></linearGradient><linearGradient y2=".249" y1=".637" x2="1.018" x1="-.023" spreadMethod="pad" id="A"><stop stop-color="#282736" offset="0"/><stop stop-color="#3f4559" offset="1"/></linearGradient><linearGradient y2=".5" y1=".5" x2="1" x1="0" spreadMethod="pad" id="B"><stop stop-color="#545272" offset="0"/><stop stop-color="#4f6675" offset="1"/></linearGradient><linearGradient y2=".454" y1=".578" x2="1.027" x1=".078" spreadMethod="pad" id="C"><stop stop-color="#282736" offset="0"/><stop stop-color="#3f4559" offset="1"/></linearGradient><linearGradient y2=".499" y1=".499" x2="1" x1="0" spreadMethod="pad" id="D"><stop stop-color="#960" offset="0"/><stop stop-color="#958604" offset="1"/></linearGradient><linearGradient y2=".499" y1=".499" x2=".999" x1=".001" spreadMethod="pad" id="E"><stop stop-color="#ec9f00" offset="0"/><stop stop-color="#c9b503" offset="1"/></linearGradient><linearGradient y2=".499" y1=".499" x2="1.001" x1="-.001" spreadMethod="pad" id="F"><stop stop-color="#352e00" offset="0"/><stop stop-color="#5a4f00" offset="1"/></linearGradient><linearGradient y2=".5" y1=".5" x2=".999" x1=".001" spreadMethod="pad" id="G"><stop stop-color="#ec9f00" offset="0"/><stop stop-color="#c9b503" offset="1"/></linearGradient><linearGradient y2=".499" y1=".499" x2=".636" x1=".301" spreadMethod="pad" id="H"><stop stop-color="#68668e" offset="0"/><stop stop-color="#63738f" offset="1"/></linearGradient><linearGradient y2=".145" y1=".831" x2=".302" x1=".652" spreadMethod="pad" id="I"><stop stop-color="#68668e" offset="0"/><stop stop-color="#63738f" offset="1"/></linearGradient><linearGradient y2=".499" y1=".499" x2=".999" x1="-.001" spreadMethod="pad" id="J"><stop stop-color="#666" offset="0"/><stop stop-color="#7c836b" offset="1"/></linearGradient><linearGradient y2=".5" y1=".5" x2=".998" x1=".002" spreadMethod="pad" id="K"><stop stop-color="#fff" offset="0"/><stop stop-color="#dada9c" offset="1"/></linearGradient><linearGradient y2="-12.141" y1=".917" x2="-1.476" x1=".532" spreadMethod="pad" id="L"><stop stop-color="#68668e" offset="0"/><stop stop-color="#63738f" offset="1"/></linearGradient><linearGradient y2=".747" y1=".943" x2=".53" x1=".774" spreadMethod="pad" id="M"><stop stop-color="#666" offset="0"/><stop stop-color="#444" offset="1"/></linearGradient><linearGradient y2=".554" y1=".833" x2=".45" x1=".332" spreadMethod="pad" id="N"><stop stop-color="#68668e" offset="0"/><stop stop-color="#63738f" offset="1"/></linearGradient><linearGradient y2=".5" y1=".5" x2="1" x1="-.002" spreadMethod="pad" id="O"><stop stop-color="#545272" offset="0"/><stop stop-color="#4f6675" offset="1"/></linearGradient><linearGradient y2=".5" y1=".5" x2="1.008" x1="-.008" spreadMethod="pad" id="P"><stop stop-color="#fff" offset="0"/><stop stop-color="#dada9c" offset="1"/></linearGradient><linearGradient y2=".264" y1=".642" x2="1.015" x1=".001" spreadMethod="pad" id="Q"><stop stop-color="#282736" offset="0"/><stop stop-color="#3f4559" offset="1"/></linearGradient><linearGradient y2=".5" y1=".5" x2="1.001" x1="-.003" spreadMethod="pad" id="R"><stop stop-color="#545272" offset="0"/><stop stop-color="#4f6675" offset="1"/></linearGradient><linearGradient y2=".5" y1=".5" x2=".996" x1=".001" spreadMethod="pad" id="S"><stop stop-color="#68668e" offset="0"/><stop stop-color="#63738f" offset="1"/></linearGradient><linearGradient y2=".5" y1=".5" x2=".999" x1=".001" spreadMethod="pad" id="T"><stop stop-color="#68668e" offset="0"/><stop stop-color="#63738f" offset="1"/></linearGradient><linearGradient y2=".5" y1=".5" x2="1.001" x1="-.001" spreadMethod="pad" id="U"><stop stop-color="#545272" offset="0"/><stop stop-color="#4f6675" offset="1"/></linearGradient><linearGradient y2=".4" y1=".628" x2="1.059" x1="-.1" spreadMethod="pad" id="V"><stop stop-color="#282736" offset="0"/><stop stop-color="#3f4559" offset="1"/></linearGradient><linearGradient y2=".5" y1=".5" x2="1.001" x1="-.003" spreadMethod="pad" id="W"><stop stop-color="#ec9f00" offset="0"/><stop stop-color="#c9b503" offset="1"/></linearGradient><linearGradient y2=".498" y1=".498" x2="1.002" x1="-.002" spreadMethod="pad" id="X"><stop stop-color="#ec9f00" offset="0"/><stop stop-color="#c9b503" offset="1"/></linearGradient><linearGradient y2=".492" y1=".492" x2="1.001" x1="-.001" spreadMethod="pad" id="Y"><stop stop-color="#960" offset="0"/><stop stop-color="#958604" offset="1"/></linearGradient><linearGradient y2=".497" y1=".497" x2="1.003" x1="-.003" spreadMethod="pad" id="Z"><stop stop-color="#68668e" offset="0"/><stop stop-color="#63738f" offset="1"/></linearGradient><linearGradient y2=".087" y1=".769" x2=".989" x1=".039" spreadMethod="pad" id="aa"><stop stop-color="#282736" offset="0"/><stop stop-color="#3f4559" offset="1"/></linearGradient><linearGradient y2=".497" y1=".497" x2=".995" x1=".001" spreadMethod="pad" id="ab"><stop stop-color="#545272" offset="0"/><stop stop-color="#4f6675" offset="1"/></linearGradient><linearGradient y2=".496" y1=".496" x2=".997" x1="-.005" spreadMethod="pad" id="ac"><stop stop-color="#7e6b01" offset="0"/><stop stop-color="#7b7b04" offset="1"/></linearGradient><linearGradient y2=".335" y1=".844" x2=".892" x1=".048" spreadMethod="pad" id="ad"><stop stop-color="#68668e" offset="0"/><stop stop-color="#63738f" offset="1"/></linearGradient><linearGradient y2=".5" y1=".5" x2=".999" x1="-.004" spreadMethod="pad" id="ae"><stop stop-color="#7e6b01" offset="0"/><stop stop-color="#7b7b04" offset="1"/></linearGradient><linearGradient y2=".5" y1=".5" x2=".993" x1=".005" spreadMethod="pad" id="af"><stop stop-color="#ec9f00" offset="0"/><stop stop-color="#c9b503" offset="1"/></linearGradient><linearGradient y2=".575" y1=".575" x2=".999" x1="-.004" spreadMethod="pad" id="ag"><stop stop-color="#352e00" offset="0"/><stop stop-color="#5a4f00" offset="1"/></linearGradient><linearGradient y2=".496" y1=".496" x2="1" x1=".001" spreadMethod="pad" id="ah"><stop stop-color="#352e00" offset="0"/><stop stop-color="#5a4f00" offset="1"/></linearGradient><linearGradient y2=".498" y1=".498" x2=".999" x1=".001" spreadMethod="pad" id="ai"><stop stop-color="#960" offset="0"/><stop stop-color="#958604" offset="1"/></linearGradient><linearGradient y2=".498" y1=".498" x2="1" x1="0" spreadMethod="pad" id="aj"><stop stop-color="#960" offset="0"/><stop stop-color="#958604" offset="1"/></linearGradient><linearGradient y2=".5" y1=".5" x2=".994" x1="-.003" spreadMethod="pad" id="ak"><stop stop-color="#ec9f00" offset="0"/><stop stop-color="#c9b503" offset="1"/></linearGradient><linearGradient y2=".5" y1=".5" x2=".994" x1=".001" spreadMethod="pad" id="al"><stop stop-color="#7e6b01" offset="0"/><stop stop-color="#7b7b04" offset="1"/></linearGradient><linearGradient y2=".498" y1=".498" x2=".999" x1=".001" spreadMethod="pad" id="am"><stop stop-color="#ec9f00" offset="0"/><stop stop-color="#c9b503" offset="1"/></linearGradient><linearGradient y2=".496" y1=".496" x2=".996" x1="-.005" spreadMethod="pad" id="an"><stop stop-color="#7e6b01" offset="0"/><stop stop-color="#7b7b04" offset="1"/></linearGradient><linearGradient y2=".5" y1=".5" x2=".996" x1="0" spreadMethod="pad" id="ao"><stop stop-color="#ec9f00" offset="0"/><stop stop-color="#c9b503" offset="1"/></linearGradient><linearGradient y2=".5" y1=".5" x2="1.012" x1="-.012" spreadMethod="pad" id="ap"><stop stop-color="#352e00" offset="0"/><stop stop-color="#5a4f00" offset="1"/></linearGradient><linearGradient y2=".5" y1=".5" x2=".998" x1=".002" spreadMethod="pad" id="aq"><stop stop-color="#7e6b01" offset="0"/><stop stop-color="#7b7b04" offset="1"/></linearGradient><linearGradient y2=".5" y1=".5" x2="1" x1="-.001" spreadMethod="pad" id="ar"><stop stop-color="#ec9f00" offset="0"/><stop stop-color="#c9b503" offset="1"/></linearGradient><linearGradient y2=".494" y1=".494" x2="1.005" x1="-.005" spreadMethod="pad" id="as"><stop stop-color="#352e00" offset="0"/><stop stop-color="#5a4f00" offset="1"/></linearGradient><linearGradient y2=".317" y1=".714" x2=".962" x1=".078" spreadMethod="pad" id="at"><stop stop-color="#282736" offset="0"/><stop stop-color="#3f4559" offset="1"/></linearGradient><linearGradient y2=".487" y1=".487" x2=".998" x1="-.003" spreadMethod="pad" id="au"><stop stop-color="#68668e" offset="0"/><stop stop-color="#63738f" offset="1"/></linearGradient><linearGradient y2=".497" y1=".497" x2="1" x1="0" spreadMethod="pad" id="av"><stop stop-color="#545272" offset="0"/><stop stop-color="#4f6675" offset="1"/></linearGradient><linearGradient y2="1.031" y1=".198" x2=".201" x1=".726" spreadMethod="pad" id="aw"><stop stop-color="#ae5b00" offset="0"/><stop stop-color="#a79603" offset="1"/></linearGradient><linearGradient y2=".504" y1=".222" x2=".533" x1=".867" spreadMethod="pad" id="ax"><stop stop-color="#c90" offset="0"/><stop stop-color="#e0ca05" offset="1"/></linearGradient><linearGradient y2=".5" y1=".5" x2=".998" x1=".001" spreadMethod="pad" id="ay"><stop stop-color="#545272" offset="0"/><stop stop-color="#4f6675" offset="1"/></linearGradient><linearGradient y2=".498" y1=".498" x2="1.003" x1="-.002" spreadMethod="pad" id="az"><stop stop-color="#960" offset="0"/><stop stop-color="#958604" offset="1"/></linearGradient><linearGradient y2=".497" y1=".497" x2="1" x1="-.002" spreadMethod="pad" id="aA"><stop stop-color="#7e6b01" offset="0"/><stop stop-color="#7b7b04" offset="1"/></linearGradient><linearGradient y2=".5" y1=".5" x2=".997" x1=".003" spreadMethod="pad" id="aB"><stop stop-color="#352e00" offset="0"/><stop stop-color="#5a4f00" offset="1"/></linearGradient><linearGradient y2=".5" y1=".5" x2="1" x1=".001" spreadMethod="pad" id="aC"><stop stop-color="#7e6b01" offset="0"/><stop stop-color="#7b7b04" offset="1"/></linearGradient><linearGradient y2=".501" y1=".501" x2="1" x1="-.003" spreadMethod="pad" id="aD"><stop stop-color="#352e00" offset="0"/><stop stop-color="#5a4f00" offset="1"/></linearGradient><linearGradient y2=".136" y1=".785" x2=".983" x1=".007" spreadMethod="pad" id="aE"><stop stop-color="#282736" offset="0"/><stop stop-color="#3f4559" offset="1"/></linearGradient><linearGradient y2=".501" y1=".501" x2="1" x1="-.004" spreadMethod="pad" id="aF"><stop stop-color="#68668e" offset="0"/><stop stop-color="#63738f" offset="1"/></linearGradient><linearGradient y2=".501" y1=".501" x2="1" x1="-.007" spreadMethod="pad" id="aG"><stop stop-color="#352e00" offset="0"/><stop stop-color="#5a4f00" offset="1"/></linearGradient><linearGradient y2=".492" y1=".492" x2="1.001" x1="-.008" spreadMethod="pad" id="aH"><stop stop-color="#ec9f00" offset="0"/><stop stop-color="#c9b503" offset="1"/></linearGradient><g id="aN" stroke-opacity="0" stroke-linejoin="round" stroke-linecap="round" stroke="#f0f" fill="none"><path d="M187.95-293.5v380h-380v-380h380M92.95.6H-97" transform="translate(192.55 294)"/><path d="m187.95-293.5-190 190 190 190m-379.95 0 189.95-190-190-190" transform="translate(192.55 294)"/></g><g transform="translate(106.35 105.7)" id="aO"><use xlink:href="#a" width="26.9" transform="matrix(4.3494 0 0 1 -61.2 78.8)" height="26.9"/><use xlink:href="#b" width="212.25" transform="translate(-106.35 -105.7)" height="204.1"/></g><g transform="translate(106.35 101.8)" id="b"><use xlink:href="#c" width="205.35" transform="translate(-105.85 -101.15)" height="202.95"/><use xlink:href="#d" width="5.4" transform="translate(75.15 -81.45)" height="5.4"/><use xlink:href="#d" width="5.4" transform="translate(79.05 -101.8)" height="5.4"/><use xlink:href="#d" width="5.4" transform="translate(79.25 -96)" height="5.4"/><use xlink:href="#d" width="5.4" transform="translate(75.7 -93.6)" height="5.4"/><use xlink:href="#d" width="5.4" transform="translate(79.25 -90)" height="5.4"/><use xlink:href="#d" width="5.4" transform="translate(71.8 -86.1)" height="5.4"/><use xlink:href="#d" width="5.4" transform="translate(94.7 -73.65)" height="5.4"/><use xlink:href="#d" width="5.4" transform="translate(92.25 -66.95)" height="5.4"/><use xlink:href="#d" width="5.4" transform="translate(86.45 -68.8)" height="5.4"/><use xlink:href="#d" width="5.4" transform="translate(85.8 -59.45)" height="5.4"/><use xlink:href="#d" width="5.4" transform="translate(98.95 -71.95)" height="5.4"/><use xlink:href="#d" width="5.4" transform="translate(100.5 -76.55)" height="5.4"/><use xlink:href="#d" width="5.4" transform="translate(91.2 -63.4)" height="5.4"/><use xlink:href="#d" width="5.4" transform="translate(84.45 -54.05)" height="5.4"/><use xlink:href="#d" width="5.4" transform="translate(70.3 -76.55)" height="5.4"/><use xlink:href="#e" width="206.35" transform="translate(-106.35 -87.25)" height="189.55"/></g><g id="c"><path fill-rule="evenodd" fill="#960" d="m84.9-58.9 12.05-10.25 1.2 1.2-13.45 11.7q.3-1.8.2-2.65m-12.55-9.9 10.05-32.35 1.7 1.05-9.2 28.9-2.55 2.4m-40.2 143 5.1-2.6q1.6.85-3.15 4.55-1.6-.75-1.95-1.95m-62.4 10.7q1.65-1.3 3.25-1.2l-3.25 1.2m52.15-5.45-.15.05.15-.05" transform="translate(105.85 101.15)"/><path fill-rule="evenodd" fill="url(#f)" d="M39.15-33.8q-.55-1.1-.9-2.7v-11.6q-.4-8.8-4.1-18.45l6.25 11.2q2 5.85 1.3 10.75-.6 2.7-.2 3.6-2.45 2.9-2.35 7.2" transform="translate(105.85 101.15)"/><path fill-rule="evenodd" fill="url(#g)" d="m34.15-66.55-1-2.45 7.15 5.5q6.15 6.4 5.5 10.25l-3.4 6.15-.7 2.5q.7-4.9-1.3-10.75l-6.25-11.2" transform="translate(105.85 101.15)"/><path fill-rule="evenodd" fill="url(#h)" d="M-4.75-24Q6.2-34.95 22.85-38.2q1.35 3.55-3.45 6.65.85-.7-.55-2.15-1-2.05-7.75 1.7-8.7 4.9-15.35 10.5l-.5-2.5" transform="translate(105.85 101.15)"/><path fill-rule="evenodd" fill="url(#i)" d="m-6.15-30.05 1.4 6.05.5 2.5Q2.4-27.1 11.1-32q6.75-3.75 7.75-1.7 1.4 1.45.55 2.15l-1.8 1-1.25.6 2.45-.15q8.35 3.25 9.35 5.6l-4 .6q4.1 2.75 3.1 5.55-5.15.6-10.6 2.05l-1.35-2.5q-4.25-5.9-15.45 0 4.1 3.2 4.7 6.4-9.3 3.55-19.3 9.1-2.85-5.95-6.5-9.25-4.55-1.85-6.5 0l-11.85 8-3.45-2.35q-5.2-4.7-4.05-6.15 7.85-4 11.6-1.55-.65-4.05-10.8-2.35 2.5-3.35 10-4.75.9-2.65-5.5-3.95 8.5-3.5 18.7-2.55.6-1.4-3.15-5.1 5.25-.25 15.3 3.1-1.4-6.15.85-7.45l3.95 7.6m-6.95 19.6q-1.05 0-1.8.8t-.75 1.9q0 1.1.75 1.9.75.8 1.8.8t1.8-.8q.75-.8.75-1.9 0-1.1-.75-1.9-.75-.8-1.8-.8m-10.95-4.75q7.5-2.75 15.15.4 3.7-1.45-4.15-3.35-13.8 1-11 2.95m-13.05 3.5q-.7-.7-1.75-.7t-1.8.7q-.7.75-.7 1.8t.7 1.75q.75.75 1.8.75t1.75-.75q.75-.7.75-1.75t-.75-1.8" transform="translate(105.85 101.15)"/><path fill-rule="evenodd" fill="url(#j)" d="m45.8-53.25 5.8-10.6q4.75-10.35 4.1-22.9l3.05 7.15q.55 11.1-4.35 20.2l-7.75 10.05q-5.75 5.75-.8 12.5-1.75 3.65-3.45-.65-.7-1.05-.9-3.5-.4-.9.2-3.6l.7-2.5 3.4-6.15" transform="translate(105.85 101.15)"/><path fill-rule="evenodd" fill="url(#k)" d="M43.05-31.7q-2.5.6-3.9-2.1-.1-4.3 2.35-7.2.2 2.45.9 3.5 1.7 4.3 3.45.65-.6 2.1.05 5.65-1.65-1.05-2.85-.5" transform="translate(105.85 101.15)"/><path fill-rule="evenodd" fill="url(#l)" d="m49.25-28.3-3.7 4.65q-3-.2-4.5-1.15 3.2-2.35.25-4.7l1.75-2.2q1.2-.55 2.85.5.4 1.25 2.05 2.25.55.35 1.3.65" transform="translate(105.85 101.15)"/><path fill-rule="evenodd" fill="url(#m)" d="m70.15-66.7.3-.25 1.9-1.85 2.55-2.4q13.05-11.85 24.6-14.9-5.75 4.15-9.55 9.55l-12.4 8.3q-6.2 3.2-8.45 10.2.55 9.45-4 16.45-6 6.35-15.55 5.55-3.2 1.9-1.6 7.1-1.65-1-2.05-2.25-.65-3.55-.05-5.65.55-2.1 2.35-2.7 12.6-2.6 14.35-14.7l.65-2.3q1.85-5.5 6.95-10.15" transform="translate(105.85 101.15)"/><path fill-rule="evenodd" fill="url(#n)" d="M58.75-79.6q2.45 6.25 3.85 11.8l.6 2.6.15.7q.65 4.25-.15 7.95l-.65 2.3q-1.75 12.1-14.35 14.7-1.8.6-2.35 2.7-4.95-6.75.8-12.5L54.4-59.4q4.9-9.1 4.35-20.2" transform="translate(105.85 101.15)"/><path fill-rule="evenodd" fill="url(#o)" d="M84.7-56.25q-.8 4.7-2.3 9.15-4.6 8.1-12.35 13.85l-1.7 1.2q-5.3 3.15-12.1 3.75-3.35.3-7 0-.75-.3-1.3-.65-1.6-5.2 1.6-7.1 9.55.8 15.55-5.55 4.55-7 4-16.45 2.25-7 8.45-10.2l12.4-8.3q-2.75 3.8-4.45 8.25.1 4.3-.6 9.4.1.85-.2 2.65" transform="translate(105.85 101.15)"/><path fill-rule="evenodd" fill="url(#p)" d="M62.6-67.8q3.65-6.8 5.9-14.35l.8 3.5-2.85 10.15-3.1 4-.15-.7-.6-2.6" transform="translate(105.85 101.15)"/><path fill-rule="evenodd" fill="url(#q)" d="M69.3-78.65q1.15 6 .85 11.95-5.1 4.65-6.95 10.15.8-3.7.15-7.95l3.1-4 2.85-10.15" transform="translate(105.85 101.15)"/><path fill-rule="evenodd" fill="url(#r)" d="M70.05-33.25q.95.5 2.05.85l-5.45 2.15q5.2 3.65 14.75 2-3.9 1.45-9.6 2.35-14.7-.3-15.55-2.4 6.8-.6 12.1-3.75l1.7-1.2" transform="translate(105.85 101.15)"/><path fill-rule="evenodd" fill="url(#s)" d="M72.1-32.4q5.7 1.85 15.75.35-2.15 2.2-6.45 3.8-9.55 1.65-14.75-2l5.45-2.15" transform="translate(105.85 101.15)"/><path fill-rule="evenodd" fill="url(#t)" d="m39.6-27.4 1.7-2.1q2.95 2.35-.25 4.7-1.45-.95-1.45-2.6" transform="translate(105.85 101.15)"/><path fill-rule="evenodd" fill="#624" d="m45.55-23.65-3.75 4.6q-2-1.1-3.1-2.15l-.05-.05 2.4-3.55q1.5.95 4.5 1.15" transform="translate(105.85 101.15)"/><path fill-rule="evenodd" fill="url(#u)" d="m32.7-18.85 4.45-5.55q-.15 1.55 1.5 3.15l.05.05-49.3 60.05-2.35-1.1 1.5-1.9Q11.9 9 32.7-18.85" transform="translate(105.85 101.15)"/><path fill-rule="evenodd" fill="#936" d="m37.15-24.4 2.45-3q0 1.65 1.45 2.6l-2.4 3.55q-1.65-1.6-1.5-3.15" transform="translate(105.85 101.15)"/><path fill-rule="evenodd" fill="url(#v)" d="m41.8-19.05-1.15 1.4-44.05 54.6-3.15 3.85-4.05-1.95L38.7-21.2q1.1 1.05 3.1 2.15" transform="translate(105.85 101.15)"/><path fill-rule="evenodd" fill="url(#w)" d="M40.65-17.65q5.45 4.7-4.85 7.5 9.15 4.85 8.8 9.3-.3 3.85-13.85 4.7Q49.45 8.2 48.9 16.2q-2.65 7.2-16.1 4.8 19.4 6.8 11.3 10.9-6.1 1.9-13.6 1.75-6.35-.15-13.75-1.75 9.3 5.4 3.75 8.25-3.45 1.5-8.4 1.15-6.45-.55-15.5-4.35l44.05-54.6m-69.15 60.9q-16.9 4.15-27.95-5.85-19.55 7.55-26.7 0-4.35-4.1 6.15-8.2-25.7 3.1-25.65-5.5 4.35-7.35 18.5-8.2-24.9-1.8-21.2-6.15 2.5-7.95 26-7.2-10.5-2.55-9.3-6.25Q-87.5-7.6-78-9.8q-17.1-8.95-4.8-11.25 9.1.9 17.6 3.6l2.35.75 5.4 2.1q3.2 1.35 6.35 2.95 4.1 2.1 8.05 4.75l3.45 2.35-8 5.35q-6.8 4.7-7.5 11.95-.95 4.75 2.05 6.85 4.5 5.4 20.85 6.5 4.05-.05 5.85-2.4 7.45-5.15 14.9-3.15 3.45-.75 4.1-5 .15-.95.15-2.1-1-7-7.55-16.75 10-5.55 19.3-9.1 6.2-2.4 12.1-3.9 5.45-1.45 10.6-2.05l5.45-.5Q11.9 9-11.45 35.85q-.25-1.85-5.5-3.7l-.5-.2q-5.05 2.05-4.45 3.4l-5.4 2.05v2.85q-1.1 1.5-1.2 3" transform="translate(105.85 101.15)"/><path fill-rule="evenodd" fill="url(#x)" d="M18.8-30.1q8.15-.25 12.05 3.8.45 1.1-2.7 1.8-1-2.35-9.35-5.6" transform="translate(105.85 101.15)"/><path fill-rule="evenodd" fill="url(#y)" d="M4.55-12.4q-.6-3.2-4.7-6.4 11.2-5.9 15.45 0l1.35 2.5q-5.9 1.5-12.1 3.9" transform="translate(105.85 101.15)"/><path fill-rule="evenodd" fill="url(#z)" d="m11.35 42.4-.75 1.15-17.15-2.75 3.15-3.85q9.05 3.8 15.5 4.35l-.75 1.1" transform="translate(105.85 101.15)"/><path fill-rule="evenodd" fill="url(#A)" d="M30.5 33.65q.3 2.4-1.3 6l-2.25-.05q-.35 3.25-4.75 5.1-6.2 2.25-10.85-2.3l.75-1.1q4.95.35 8.4-1.15 5.55-2.85-3.75-8.25 7.4 1.6 13.75 1.75" transform="translate(105.85 101.15)"/><path fill-rule="evenodd" fill="url(#B)" d="m29.2 39.65-.9 1.85-1.9 3.25q-2.2 3.35-4.95 6.5-3.05 3.5-6.75 6.7-2-.7-4.1-1.15-8.9-2.1-19.5-.9l-1.9 2q-3.15 2.35-9.4 2.8l-2.05-.85q-5.7-2.6-7.55-5.85l-.65-1.55-.45-1.4 6.05 3.5q-3.25-3.05-2.75-6.9.75-3.45 2.15-2.35 1.35 4.15 5.1 3.55-1.35-2.95 0-7.5l2.6.4q.85 2.2 6.3 4.35 2.65-.1 2.95-2.6.55 3.9 5.7 4.15l14.15-1.35q3.45-.9-.75-2.75l.75-1.15Q16 46.95 22.2 44.7q4.4-1.85 4.75-5.1l2.25.05" transform="translate(105.85 101.15)"/><path fill-rule="evenodd" fill="url(#C)" d="m28.3 41.5 1.9 3.3-.55 4.65L28 47.1l-1.6-2.35 1.9-3.25" transform="translate(105.85 101.15)"/><path fill-rule="evenodd" fill="url(#D)" d="M28 47.1v3.7q-.5 1.15 4.05 4.9l3.75 1q1 1.65-1.35 5.1l-2.4 3.15q-.65 1.95 2.55 0l3-3.9 1.35-3.45 1.4 2.85q.8 4.5-1.6 7.45l-8.2 4.6-.25.1q-3.3-2.8-7.65 4.1L11.2 81.5l-1.65.9H9.5l-2.25-3.05q4.2-.9 7.05-3.3 2.25-1.65 1.05-2.8l-2.2 1.55q-3.15 1.3-6 1.95-2.35-2.8-6.25-1.9L-2 77.1l-3.05-1-4.9-2.1-3.2-5.45q2.55 3.8 7.2 4.9 4.1.1 6.9-2.95L6 65.25l1.15 1.3q2.3 1.75 8 1 2.2-.8 3.1-2.3Q20 63.45 20.1 61q2.05.9 4.75-.3.9-1.95 0-4.6-1.05-2.4-3.4-4.85 2.75-3.15 4.95-6.5L28 47.1" transform="translate(105.85 101.15)"/><path fill-rule="evenodd" fill="url(#E)" d="M35.5 54.15h3.45v3.45l-1.35 3.45-3 3.9q-3.2 1.95-2.55 0l2.4-3.15q2.35-3.45 1.35-5.1l-3.75-1Q27.5 51.95 28 50.8v-3.7l1.65 2.35 1.8 2.65 4.05 2.05" transform="translate(105.85 101.15)"/><path fill-rule="evenodd" fill="url(#F)" d="M21.45 51.25q2.35 2.45 3.4 4.85.9 2.65 0 4.6-2.7 1.2-4.75.3-.1 2.45-1.85 4.25-.9 1.5-3.1 2.3-5.7.75-8-1L6 65.25l3.4-3.65q.9-2.15-3.9-.15l5.1-4.65q2.1.45 4.1 1.15 3.7-3.2 6.75-6.7" transform="translate(105.85 101.15)"/><path fill-rule="evenodd" fill="#545272" d="m30.2 44.8 5.3 9.35-4.05-2.05-1.8-2.65.55-4.65m-54.5-5.65 4.15-1.7-2.1 1.7h-2.05" transform="translate(105.85 101.15)"/><path fill-rule="evenodd" fill="url(#G)" d="m38.95 57.6 3.1 2.05v7.85l12.3 17.1-3.05 2.75-2.2.35q2.8-2 1.65-5.4l-6.65-8.65-3.55-1.2-4.15 4.95-1.3 1.3q.55-2.45-1-2.55 4.75-3.7 3.15-4.55l-5.1 2.6q.15-1.75-1.6-1.7l8.2-4.6q2.4-2.95 1.6-7.45l-1.4-2.85" transform="translate(105.85 101.15)"/><path fill-rule="evenodd" fill="url(#H)" d="m-30.9 51.05-1.25-3.7q2.05-2.65 4.1-1.7-.55-1.2-.45-2.4.1-1.5 1.2-3l.95-1.1h4.1l2.1-1.7 2-1.75 1.7 2.05h3.5l2.35 1.1 4.05 1.95 17.15 2.75q4.2 1.85.75 2.75L-2.8 47.65q-5.15-.25-5.7-4.15-.3 2.5-2.95 2.6-5.45-2.15-6.3-4.35l-2.6-.4q-1.35 4.55 0 7.5-3.75.6-5.1-3.55-1.4-1.1-2.15 2.35-.5 3.85 2.75 6.9l-6.05-3.5" transform="translate(105.85 101.15)"/><path fill-rule="evenodd" fill="url(#I)" d="M-65.2-17.45q-.5-1.95 2.05-3.9-6.7 0-8.45-2.8-1.4-4.05 16.9-6.7-6.9-4.9-3.9-6.1 6.55-.85 17.3 8.7l-2.45 1.15q-1.9-3.4-9.25-6.8-2.95-1.45 1.75 4.55-21.8 4.35-14 5.1 6.5-.2 4.35 3.35l-1.95 4.2-2.35-.75" transform="translate(105.85 101.15)"/><path fill-rule="evenodd" fill="url(#J)" d="m-39.6-4.55 11.85-8q1.95-1.85 6.5 0 10.6 19.05-10.8 31l-1.8.85q-11.3 3.25-21.25-6.55.7-7.25 7.5-11.95l8-5.35" transform="translate(105.85 101.15)"/><path fill-rule="evenodd" fill="url(#K)" d="M-13.1-10.45q1.05 0 1.8.8t.75 1.9q0 1.1-.75 1.9-.75.8-1.8.8t-1.8-.8q-.75-.8-.75-1.9 0-1.1.75-1.9.75-.8 1.8-.8M-14-7.8q0 .35.2.55.25.25.6.25t.55-.25q.25-.2.25-.55l-.25-.6q-.2-.2-.55-.2l-.6.2-.2.6" transform="translate(105.85 101.15)"/><path fill-rule="evenodd" fill="#900" d="m-14-7.8.2-.6.6-.2q.35 0 .55.2l.25.6q0 .35-.25.55-.2.25-.55.25-.35 0-.6-.25-.2-.2-.2-.55m-25.6-2.1.2-.55.55-.2.5.2.25.55q0 .3-.25.5-.2.25-.5.25t-.55-.25l-.2-.5" transform="translate(105.85 101.15)"/><path fill-rule="evenodd" fill="url(#L)" d="M-24.05-15.2q-2.8-1.95 11-2.95 7.85 1.9 4.15 3.35-7.65-3.15-15.15-.4" transform="translate(105.85 101.15)"/><path fill-rule="evenodd" fill="url(#M)" d="M-32.05 18.45q21.4-11.95 10.8-31 3.65 3.3 6.5 9.25Q-8.2 6.45-7.2 13.45q0 1.15-.15 2.1-14.55-1.7-24.7 2.9" transform="translate(105.85 101.15)"/><path fill-rule="evenodd" fill="url(#N)" d="M-41.3-28.25q6-2.45 14.95-1.95-9.95-5.1-6.05-6.05 10.7.2 21.45 6.05-10.05-3.35-15.3-3.1 3.75 3.7 3.15 5.1-10.2-.95-18.7 2.55 6.4 1.3 5.5 3.95-7.5 1.4-10 4.75 10.15-1.7 10.8 2.35-3.75-2.45-11.6 1.55-1.15 1.45 4.05 6.15-3.95-2.65-8.05-4.75 1.6-1.85.75-4.45 4.2-5.4 11.25-6.7-6.4-.1-7.3-1.4-.35-.5.15-1.2l2.5-1.7 2.45-1.15" transform="translate(105.85 101.15)"/><path fill-rule="evenodd" fill="url(#O)" d="m-43.75-27.1-2.5 1.7q-.5.7-.15 1.2-3.8-1.8-6.75.05t-3.45 3.05q-2.3 1.9-.85 6.5l-5.4-2.1 1.95-4.2q2.15-3.55-4.35-3.35-7.8-.75 14-5.1-4.7-6-1.75-4.55 7.35 3.4 9.25 6.8" transform="translate(105.85 101.15)"/><path fill-rule="evenodd" fill="url(#P)" d="M-37.1-11.7q.75.75.75 1.8t-.75 1.75q-.7.75-1.75.75t-1.8-.75q-.7-.7-.7-1.75t.7-1.8q.75-.7 1.8-.7t1.75.7m-2.5 1.8.2.5q.25.25.55.25.3 0 .5-.25.25-.2.25-.5l-.25-.55-.5-.2-.55.2-.2.55" transform="translate(105.85 101.15)"/><path fill-rule="evenodd" fill="url(#Q)" d="M-46.4-24.2q.9 1.3 7.3 1.4-7.05 1.3-11.25 6.7.85 2.6-.75 4.45-3.15-1.6-6.35-2.95-1.45-4.6.85-6.5.5-1.2 3.45-3.05 2.95-1.85 6.75-.05" transform="translate(105.85 101.15)"/><path fill-rule="evenodd" fill="url(#R)" d="M-31.5 75.7q-.6 1.95-3.1 3.1l-2.55-1.9-5-3.75-1.65-1.2q3.35.5 3-1.25 1.4-1.95-2.95-5.3 2.45-.4 2.35-3.35l3.75 4.1q5.1 1.3 4.7-1.95l-2.35-3.35q1.2-1.6 0-3.95h1.4q0 1.7 4.7 3.35 2.1-1.8-1.95-5.9l1.35-.35q1.85 3.25 7.55 5.85v5.6l-3.8 2.4-1.7 4.1h-4.1q.8 2.15.35 3.75M-33.55 61l7.5 6.85-7.5-6.85m-6.15 5.8 7.5 5.15h.35-.35l-7.5-5.15" transform="translate(105.85 101.15)"/><path fill-rule="evenodd" fill="url(#S)" d="M-43.8 71.95q-2.8-1.5-3.45-6.15l2.4-3.45V59.6q2.75-2.95 5.5-1.7v-4.1q5.9-3.3 8.9-1.35l.65 1.55-1.35.35q4.05 4.1 1.95 5.9-4.7-1.65-4.7-3.35h-1.4q1.2 2.35 0 3.95l2.35 3.35q.4 3.25-4.7 1.95l-3.75-4.1q.1 2.95-2.35 3.35 4.35 3.35 2.95 5.3.35 1.75-3 1.25" transform="translate(105.85 101.15)"/><path fill-rule="evenodd" d="M-55.1 12.75q9.95 9.8 21.25 6.55l1.8-.85q10.15-4.6 24.7-2.9-.65 4.25-4.1 5-7.45-2-14.9 3.15-1.8 2.35-5.85 2.4-16.35-1.1-20.85-6.5-3-2.1-2.05-6.85" transform="translate(105.85 101.15)"/><path fill-rule="evenodd" fill="url(#T)" d="M-27.3 40.25V37.4l5.4-2.05q-.6-1.35 4.45-3.4l.5.2 1.15 1.9-2.35 1.65-2 1.75-4.15 1.7h-2.05l-.95 1.1" transform="translate(105.85 101.15)"/><path fill-rule="evenodd" fill="url(#U)" d="m-18.15 35.7 2.35-1.65-1.15-1.9q5.25 1.85 5.5 3.7l-1.5 1.9h-3.5l-1.7-2.05" transform="translate(105.85 101.15)"/><path fill-rule="evenodd" fill="url(#V)" d="m-20.2 60.7.65 7.8-3.4 2.05-4.45 5.15h-4.1q.45-1.6-.35-3.75h4.1l1.7-4.1 3.8-2.4v-5.6l2.05.85" transform="translate(105.85 101.15)"/><path fill-rule="evenodd" fill="url(#W)" d="M-13.75 67.5v-3.65h4.9V65l-1.8.8v2.35l2.2 1.25 3.3 1.85 8.8-8.1 1.15-1 1.2 3.1L.95 70.5q-2.8 3.05-6.9 2.95-4.65-1.1-7.2-4.9l-.6-1.05" transform="translate(105.85 101.15)"/><path fill-rule="evenodd" fill="url(#X)" d="M-17.5 67.5h3.75l.6 1.05 3.2 5.45 4.9 2.1 3.05 1-2.6 2.15h-.1l-2.2-.45q-5.6-3.1-7.2-6.2l-.65-1.7-2.75-3.4" transform="translate(105.85 101.15)"/><path fill-rule="evenodd" fill="url(#Y)" d="M-10.65 68.15V65.8l1.8-.8v1.15l-1.8 2" transform="translate(105.85 101.15)"/><path fill-rule="evenodd" fill="url(#Z)" d="m-8.85 63.85-1-3 .65.55 4.25 3.6q-.35 3.25-3.5 4.4l-2.2-1.25 1.8-2v-2.3" transform="translate(105.85 101.15)"/><path fill-rule="evenodd" fill="url(#aa)" d="m-9.85 60.85-.95-2.95 1.9-2q10.6-1.2 19.5.9l-5.1 4.65-.7.7-1.15 1-3.9-1.75H-9.2l-.65-.55" transform="translate(105.85 101.15)"/><path fill-rule="evenodd" fill="url(#ab)" d="m3.65 63.15-8.8 8.1-3.3-1.85q3.15-1.15 3.5-4.4l-4.25-3.6h8.95l3.9 1.75" transform="translate(105.85 101.15)"/><path fill-rule="evenodd" fill="url(#ac)" d="M5.5 61.45q4.8-2 3.9.15L6 65.25l-1.2-3.1.7-.7" transform="translate(105.85 101.15)"/><path fill-rule="evenodd" fill="url(#ad)" d="M-10.95-30.2q-3.6-7.6 0-10.8 1.9-.35 4.8 10.95l-3.95-7.6q-2.25 1.3-.85 7.45" transform="translate(105.85 101.15)"/><path fill-rule="evenodd" fill="url(#ae)" d="m-2 77.1 9.15-.35q.95 1.55.1 2.6-5 1.05-11.85-.1L-2 77.1" transform="translate(105.85 101.15)"/><path fill-rule="evenodd" fill="url(#af)" d="M7.15 76.75q2.85-.65 6-1.95l2.2-1.55q1.2 1.15-1.05 2.8-2.85 2.4-7.05 3.3.85-1.05-.1-2.6" transform="translate(105.85 101.15)"/><path fill-rule="evenodd" fill="url(#ag)" d="m-2 77.1 2.9-2.25q3.9-.9 6.25 1.9L-2 77.1" transform="translate(105.85 101.15)"/><path fill-rule="evenodd" fill="url(#ah)" d="M7.25 79.35 9.5 82.4l-2.45 1.3q-2.35 1.4 2.45.4.7 2.2-.35 3.8Q7.9 90 4.9 90.75l-4.45-.8v-.2q.75-.7-.5-1.4l-6.15-4.9h-.05q-.3-2.5 1.55-4.2h.1q6.85 1.15 11.85.1" transform="translate(105.85 101.15)"/><path fill-rule="evenodd" fill="url(#ai)" d="M-17.5 69.7v-2.2l2.75 3.4.65 1.7q1.6 3.1 7.2 6.2l2.2.45q-1.85 1.7-1.55 4.2l-.9-.9-6.25-4.2-2.05-3.05.15-.3q.5-1.5-.25-3.5-.95-1.55-1.95-1.8" transform="translate(105.85 101.15)"/><path fill-rule="evenodd" fill="url(#aj)" d="m22.45 95.85-2.3 1.05Q8.45 98.6-2.1 95.2l-2.45-1.4-9.85-7.55q-4.85-4.1-11.65-5.1l1.75-1.35 3.15-.05q2.45-.4 4.15-1.55.9.25 1.8.75 5.25 6.05 9.7 9.2l.05.05q2.25 1.55 4.25 2.4 1-.35 1.5-.7l.15.05 4.45.8q3-.75 4.25-2.85 1.05-1.6.35-3.8l6.2-1.55 6.05-3.05.15-.05q1.3 2.6.35 4.45l-1.45.85q-3.3 1.9-1.35 2.3l2.85-1.1q1.4 6.4 10.45 5.9-5.15 1.7-10.3 4" transform="translate(105.85 101.15)"/><path fill-rule="evenodd" fill="url(#ak)" d="M-5.45 88.2q2.9 1.5 5.75 1.55v.15q-.5.35-1.5.7-2-.85-4.25-2.4" transform="translate(105.85 101.15)"/><path fill-rule="evenodd" fill="url(#al)" d="m-6.2 83.45 6.15 4.9q1.25.7.5 1.4H.3q-2.85-.05-5.75-1.55l-.05-.05-.7-4.7" transform="translate(105.85 101.15)"/><path fill-rule="evenodd" fill="url(#am)" d="m-15.45 75.3 2.05 3.05 6.25 4.2.9.9h.05l.7 4.7q-4.45-3.15-9.7-9.2-.9-.5-1.8-.75 1.45-.95 1.55-2.9" transform="translate(105.85 101.15)"/><path fill-rule="evenodd" fill="url(#an)" d="M9.5 82.4h.05l-.05 1.7q-4.8 1-2.45-.4l2.45-1.3" transform="translate(105.85 101.15)"/><path fill-rule="evenodd" fill="url(#ao)" d="m9.55 82.4 1.65-.9 11.45-4.8q-1.95 1.35-.95 2.75l.05.05-6.05 3.05-6.2 1.55.05-1.7" transform="translate(105.85 101.15)"/><path fill-rule="evenodd" fill="#352e00" d="M.45 89.75v.2L.3 89.9l.15-.15" transform="translate(105.85 101.15)"/><path fill-rule="evenodd" fill="#ec9f00" d="M.3 89.75h.15l-.15.15v-.15" transform="translate(105.85 101.15)"/><path fill-rule="evenodd" fill="url(#ap)" d="M-17.5 72.3v-2.6q1 .25 1.95 1.8.75 2 .25 3.5l-.15.3-2.05-3" transform="translate(105.85 101.15)"/><path fill-rule="evenodd" fill="url(#aq)" d="m-26.15 79.2 8.65-6.9 2.05 3q-.1 1.95-1.55 2.9-3.45-1-7.3 1.6-.3-.65-1.85-.6" transform="translate(105.85 101.15)"/><path fill-rule="evenodd" fill="url(#ar)" d="m-4.55 93.8-4.4-2.5-6.85-3.95q-3.85-3.2-11.2-3.65-1.6-.1-3.25 1.2l-.2.05q-1.4-2.4 1.35-3.45l2.95-2.3q1.55-.05 1.85.6l-1.75 1.35q6.8 1 11.65 5.1l9.85 7.55" transform="translate(105.85 101.15)"/><path fill-rule="evenodd" fill="url(#as)" d="M-17 78.2q-1.7 1.15-4.15 1.55l-3.15.05q3.85-2.6 7.3-1.6" transform="translate(105.85 101.15)"/><path fill-rule="evenodd" fill="url(#at)" d="M-8.95 91.3v3.55L-12 96.9q.1-3.6-4.8-7.9l-9.45-3.2-.7-.3-5.35.3 1.85-.85-.05.1.25-.15 3.25-1.2q7.35.45 11.2 3.65l6.85 3.95" transform="translate(105.85 101.15)"/><path fill-rule="evenodd" fill="url(#au)" d="M-39.5 96.5q-1.8-1.9.1-4.05 1.15-3.7 7.1-6.65l5.35-.3.7.3q3.55 1.7 4.55 3.4 1.15 2 1.45 3.95.65 3.95-19.25 3.35" transform="translate(105.85 101.15)"/><path fill-rule="evenodd" fill="url(#av)" d="M-12 96.9q-13.5 2.35-27.05 0l-.45-.4q19.9.6 19.25-3.35-.3-1.95-1.45-3.95-1-1.7-4.55-3.4l9.45 3.2q4.9 4.3 4.8 7.9" transform="translate(105.85 101.15)"/><path fill-rule="evenodd" fill="url(#aw)" d="M-37.15 76.9Q-45.75 87-52.2 97.6q-5.2 1.85-8.05 0l4.45-4.8 11.85-13.2q-.8-.95-.35-3.65l2.15-2.8 5 3.75" transform="translate(105.85 101.15)"/><path fill-rule="evenodd" fill="url(#ax)" d="m-60.35 96.05-1.25.85v-2.8q9.45-7.75 17.3-18.15-.45 2.7.35 3.65L-55.8 92.8l-4.55 3.25" transform="translate(105.85 101.15)"/><path fill-rule="evenodd" fill="#512b00" d="m-60.25 97.6-.1-1.55 4.55-3.25-4.45 4.8" transform="translate(105.85 101.15)"/><path fill-rule="evenodd" fill="url(#ay)" d="M51.15 91.6q2.8 2.55 2.55 4.65-.35 2.85-3.2 3.8-8.7 2.95-21.8.95-2.85-.65-4.4-1.95 1.15-2.4 4.5-4.05-.5.75-.1 2.1 1.65 1.8 5.65 2.5 5.35.7 10.1-.75 8.2-3.85-2.8-7.2l9.5-.05" transform="translate(105.85 101.15)"/><path fill-rule="evenodd" fill="url(#az)" d="m49.1 87.7-2.7.5-1.45.3q.8-2.1.7-5.05-1.35-3-4-3.35-3.5-.15-6.55-1.4l1.3-1.3 4.15-4.95 3.55 1.2 6.65 8.65q1.15 3.4-1.65 5.4" transform="translate(105.85 101.15)"/><path fill-rule="evenodd" fill="url(#aA)" d="M30.55 72.5q1.75-.05 1.6 1.7L21.9 79.45h-.2q-1-1.4.95-2.75l1.15-.5 6.5-3.6.25-.1" transform="translate(105.85 101.15)"/><path fill-rule="evenodd" fill="url(#aB)" d="M32.15 74.2q.35 1.2 1.95 1.95-3.85 2.95-11.85 7.75.95-1.85-.35-4.45l10.25-5.25" transform="translate(105.85 101.15)"/><path fill-rule="evenodd" fill="url(#aC)" d="M34.1 76.15q1.55.1 1 2.55-4.25 3.95-11.5 6.75l-1.3.5q-1.3-.25-.05-2.05 8-4.8 11.85-7.75" transform="translate(105.85 101.15)"/><path fill-rule="evenodd" fill="url(#aD)" d="m22.3 85.95 1.3-.5q7.25-2.8 11.5-6.75 3.05 1.25 6.55 1.4 2.65.35 4 3.35.1 2.95-.7 5.05-6.15 1.3-12.2 3.35-9.05.5-10.45-5.9" transform="translate(105.85 101.15)"/><path fill-rule="evenodd" fill="url(#aE)" d="M46.4 88.2q3 1.8 4.75 3.4l-9.5.05-.35-.1-.8.1q-5.5.45-11 2.7l-.7.65q-3.35 1.65-4.5 4.05-1.55-1.3-1.85-3.2 5.15-2.3 10.3-4 6.05-2.05 12.2-3.35l1.45-.3" transform="translate(105.85 101.15)"/><path fill-rule="evenodd" fill="url(#aF)" d="m28.8 95 .7-.65q5.5-2.25 11-2.7l.8-.1.35.1q11 3.35 2.8 7.2-4.75 1.45-10.1.75-4-.7-5.65-2.5-.4-1.35.1-2.1" transform="translate(105.85 101.15)"/><path fill-rule="evenodd" fill="#7e6b01" d="m21.75 79.5-.05-.05h.2l-.15.05" transform="translate(105.85 101.15)"/><path fill-rule="evenodd" fill="url(#aG)" d="M22.65 76.7q4.35-6.9 7.65-4.1l-6.5 3.6-1.15.5" transform="translate(105.85 101.15)"/><path fill-rule="evenodd" fill="url(#aH)" d="M22.25 83.9q-1.25 1.8.05 2.05l-2.85 1.1q-1.95-.4 1.35-2.3l1.45-.85" transform="translate(105.85 101.15)"/><path stroke-width=".05" stroke-opacity=".49" stroke-linejoin="round" stroke-linecap="round" stroke="#000" fill="none" d="M190.75 42.25 202.8 32l1.2 1.2-13.45 11.7q-.8 4.7-2.3 9.15-4.6 8.1-12.35 13.85.95.5 2.05.85 5.7 1.85 15.75.35-2.15 2.2-6.45 3.8-3.9 1.45-9.6 2.35-14.7-.3-15.55-2.4-3.35.3-7 0l-3.7 4.65-3.75 4.6-1.15 1.4q5.45 4.7-4.85 7.5 9.15 4.85 8.8 9.3-.3 3.85-13.85 4.7 18.7 4.35 18.15 12.35-2.65 7.2-16.1 4.8 19.4 6.8 11.3 10.9-6.1 1.9-13.6 1.75.3 2.4-1.3 6l-.9 1.85 1.9 3.3 5.3 9.35h3.45v3.45l3.1 2.05v7.85l12.3 17.1-3.05 2.75-2.2.35-2.7.5q3 1.8 4.75 3.4 2.8 2.55 2.55 4.65-.35 2.85-3.2 3.8-8.7 2.95-21.8.95-2.85-.65-4.4-1.95-1.55-1.3-1.85-3.2l-2.3 1.05q-11.7 1.7-22.25-1.7l-2.45-1.4-4.4-2.5V196l-3.05 2.05q-13.5 2.35-27.05 0l-.45-.4q-1.8-1.9.1-4.05 1.15-3.7 7.1-6.65l1.85-.85q-1.4-2.4 1.35-3.45l2.95-2.3 8.65-6.9v-4.8h3.75V165H97l-1-3-.95-2.95q-3.15 2.35-9.4 2.8l.65 7.8-3.4 2.05-4.45 5.15h-4.1q-.6 1.95-3.1 3.1l-2.55-1.9q-8.6 10.1-15.05 20.7-5.2 1.85-8.05 0m-.1-1.55-1.25.85v-2.8q9.45-7.75 17.3-18.15l2.15-2.8-1.65-1.2q-2.8-1.5-3.45-6.15l2.4-3.45v-2.75q2.75-2.95 5.5-1.7v-4.1q5.9-3.3 8.9-1.35l-.45-1.4-1.25-3.7q2.05-2.65 4.1-1.7-.55-1.2-.45-2.4-16.9 4.15-27.95-5.85-19.55 7.55-26.7 0-4.35-4.1 6.15-8.2-25.7 3.1-25.65-5.5 4.35-7.35 18.5-8.2-24.9-1.8-21.2-6.15 2.5-7.95 26-7.2-10.5-2.55-9.3-6.25 1.15-3.5 10.65-5.7-17.1-8.95-4.8-11.25 9.1.9 17.6 3.6-.5-1.95 2.05-3.9-6.7 0-8.45-2.8-1.4-4.05 16.9-6.7-6.9-4.9-3.9-6.1 6.55-.85 17.3 8.7 6-2.45 14.95-1.95-9.95-5.1-6.05-6.05 10.7.2 21.45 6.05-3.6-7.6 0-10.8 1.9-.35 4.8 10.95l1.4 6.05q10.95-10.95 27.6-14.2 1.35 3.55-3.45 6.65l-1.8 1-1.25.6 2.45-.15q8.15-.25 12.05 3.8.45 1.1-2.7 1.8l-4 .6q4.1 2.75 3.1 5.55l5.45-.5 4.45-5.55 2.45-3 1.7-2.1 1.75-2.2q-2.5.6-3.9-2.1-.55-1.1-.9-2.7v-11.6q-.4-8.8-4.1-18.45l-1-2.45 7.15 5.5q6.15 6.4 5.5 10.25l5.8-10.6q4.75-10.35 4.1-22.9l3.05 7.15q2.45 6.25 3.85 11.8 3.65-6.8 5.9-14.35l.8 3.5q1.15 6 .85 11.95l.3-.25 1.9-1.85L188.25 0l1.7 1.05-9.2 28.9q13.05-11.85 24.6-14.9-5.75 4.15-9.55 9.55-2.75 3.8-4.45 8.25.1 4.3-.6 9.4.1.85-.2 2.65m-43 11.65.7-2.5 3.4-6.15m-3.4 15.75q-.7-1.05-.9-3.5-.4-.9.2-3.6m4.2 13.4q-.65-3.55-.05-5.65.55-2.1 2.35-2.7 12.6-2.6 14.35-14.7l.65-2.3q.8-3.7.15-7.95l-.15-.7-.6-2.6m-16.7 36.6q-1.65-1.05-2.85-.5m29.3-37.1 2.55-2.4m-11.7 14.65q1.85-5.5 6.95-10.15m-.1 33.45-1.7 1.2q-5.3 3.15-12.1 3.75m-8.3-.65q.55.35 1.3.65m-8.2 3.5q1.5.95 4.5 1.15m-8.4-.75q-.15 1.55 1.5 3.15l.05.05q1.1 1.05 3.1 2.15m-.75-5.75q-1.45-.95-1.45-2.6m-22.95 11.1q5.45-1.45 10.6-2.05m-16.65 61.9.75-1.15.75-1.1q-6.45-.55-15.5-4.35l-3.15 3.85 17.15 2.75m19.9-9.9q-6.35-.15-13.75-1.75 9.3 5.4 3.75 8.25-3.45 1.5-8.4 1.15m9.35 9.95q2.75-3.15 4.95-6.5l1.9-3.25m-1.9 3.25 1.6 2.35 1.65 2.35 1.8 2.65 4.05 2.05m-14.05-2.9q-3.05 3.5-6.75 6.7-2-.7-4.1-1.15l-5.1 4.65m-.7.7-1.15 1-8.8 8.1-3.3-1.85-2.2-1.25v-2.35m1.8-.8V165m54.75-95.05q.4 1.25 2.05 2.25m-52.2 7.45-.5-2.5M84.6 88.6q-4.55-1.85-6.5 0l-11.85 8-8 5.35q-6.8 4.7-7.5 11.95 9.95 9.8 21.25 6.55l1.8-.85m10.8-31q3.65 3.3 6.5 9.25 10-5.55 19.3-9.1 6.2-2.4 12.1-3.9m-24 31.85q.15-.95.15-2.1-1-7-7.55-16.75M64.55 72.9l-2.45 1.15-2.5 1.7q-.5.7-.15 1.2.9 1.3 7.3 1.4-7.05 1.3-11.25 6.7.85 2.6-.75 4.45 4.1 2.1 8.05 4.75m-14.4-7.7q3.2 1.35 6.35 2.95M43 84.45l-2.35-.75m7.75 2.85-5.4-2.1M66.25 96.6l-3.45-2.35M50.75 113.9q-.95 4.75 2.05 6.85 4.5 5.4 20.85 6.5 4.05-.05 5.85-2.4 7.45-5.15 14.9-3.15 3.45-.75 4.1-5-14.55-1.7-24.7 2.9m15.1 13.7-.5-.2q-5.05 2.05-4.45 3.4l-5.4 2.05v2.85l.95-1.1h2.05m4.15-1.7 2-1.75m1.2-3.55q5.25 1.85 5.5 3.7 23.35-26.85 44.15-54.7m-60 59.1q-1.1 1.5-1.2 3m8.35-5.8-2.1 1.7h-2.05m11.35-1.4 1.5-1.9m-1.5 1.9h-3.5l-1.7-2.05m7.55 3.15-2.35-1.1m-17.5 14.7.65 1.55q1.85 3.25 7.55 5.85l2.05.85M83.6 161v5.6l-3.8 2.4-1.7 4.1H74q.8 2.15.35 3.75m17.75-8.2.6 1.05m4.3-3.55v1.15l-1.8 2m15.45-6 .7-.7m-16.3-3.55 1.9-2q10.6-1.2 19.5.9m-17.15-16L95.25 140M79.8 169l-7.5-6.85m23.6 13-3.2-5.45m-17.3 16.4-.05.1.25-.15-.2.05m3.45-1.25q-1.6-.1-3.25 1.2l3.25-1.2q7.35.45 11.2 3.65l6.85 3.95M74 173.1h-.35l-7.5-5.15m-16.1 26-4.45 4.8m18.1-24.45 5 3.75m-18.65 15.9-4.55 3.25m105.3-7.55 1.45-.3M138.6 193q6.05-2.05 12.2-3.35M138.6 193q-5.15 1.7-10.3 4m18.2-113.5-44.05 54.6"/><path stroke-width=".05" stroke-opacity=".459" stroke-linejoin="round" stroke-linecap="round" stroke="#000" fill="none" d="m45.6 198.75-.1-1.55"/></g><g id="aK"><path fill-rule="evenodd" fill="#f99" d="m-1.75 2.05-.15-.15q-.8-.8-.8-1.9 0-1.1.8-1.9.8-.8 1.9-.8 1.1 0 1.9.8l.1.1q.55 4.2-3.75 3.85" transform="translate(2.7 2.7)"/><path fill-rule="evenodd" fill="#ff6c6c" d="M2-1.8q.7.75.7 1.8 0 1.1-.8 1.9-.8.8-1.9.8-1 0-1.75-.65Q2.55 2.4 2-1.8" transform="translate(2.7 2.7)"/><path stroke-width=".05" stroke-opacity=".459" stroke-linejoin="round" stroke-linecap="round" stroke="#000" fill="none" d="M.95 4.75.8 4.6Q0 3.8 0 2.7 0 1.6.8.8 1.6 0 2.7 0q1.1 0 1.9.8l.1.1q.7.75.7 1.8 0 1.1-.8 1.9-.8.8-1.9.8-1 0-1.75-.65z"/></g><use xlink:href="#aI" width="107.2" transform="translate(-.01 -.01) scale(.2511)" height="107.2" id="a"/><use xlink:href="#aJ" width="107.2" height="107.2" id="aI"/><use xlink:href="#aK" width="5.4" height="5.4" id="d"/><use xlink:href="#aL" width="102.95" height="45" id="aP"/><path fill-rule="evenodd" fill="url(#aM)" d="M-53.6 0q0-22.2 15.7-37.9T0-53.6q22.2 0 37.9 15.7T53.6 0q0 22.2-15.7 37.9T0 53.6q-22.2 0-37.9-15.7T-53.6 0" transform="translate(53.6 53.6)" id="aJ"/><path stroke-opacity=".549" stroke-linejoin="round" stroke-linecap="round" stroke="#000" fill="none" d="M84.7-56.25q-.8 4.7-2.3 9.15-4.6 8.1-12.35 13.85.95.5 2.05.85 5.7 1.85 15.75.35-2.15 2.2-6.45 3.8-3.9 1.45-9.6 2.35l-2.25-.05q-12.5-.45-13.3-2.35-3.35.3-7 0l-8.6 10.65q5.45 4.7-4.85 7.5 9.15 4.85 8.8 9.3-.3 3.85-13.85 4.7Q49.45 8.2 48.9 16.2q-2.65 7.2-16.1 4.8 19.4 6.8 11.3 10.9-6.1 1.9-13.6 1.75.3 2.4-1.3 6l-.9 1.85 7.2 12.65h3.45v3.45l3.1 2.05v7.85l12.3 17.1-3.05 2.75-2.2.35-2.7.5q3 1.8 4.75 3.4 2.8 2.55 2.55 4.65-.35 2.85-3.2 3.8-8.7 2.95-21.8.95-2.85-.65-4.4-1.95-1.55-1.3-1.85-3.2l-2.3 1.05Q8.45 98.6-2.1 95.2l-6.85-3.9v3.55L-12 96.9q-13.5 2.35-27.05 0l-.45-.4q-1.8-1.9.1-4.05 1.15-3.7 7.1-6.65l1.85-.85q-1.4-2.4 1.35-3.45l11.6-9.2v-4.8h3.75v-3.65h4.9l-1.95-5.95q-3.15 2.35-9.4 2.8l.65 7.8-3.4 2.05-4.45 5.15h-4.1q-.6 1.95-3.1 3.1l-2.55-1.9Q-45.75 87-52.2 97.6q-5.2 1.85-8.05 0l-.1-1.55-1.25.85v-2.8q9.45-7.75 17.3-18.15l2.15-2.8-1.65-1.2q-2.8-1.5-3.45-6.15l2.4-3.45V59.6q2.75-2.95 5.5-1.7v-4.1q5.9-3.3 8.9-1.35l-1.7-5.1q2.05-2.65 4.1-1.7-.55-1.2-.45-2.4-16.9 4.15-27.95-5.85-19.55 7.55-26.7 0-4.35-4.1 6.15-8.2-25.7 3.1-25.65-5.5 4.35-7.35 18.5-8.2-24.9-1.8-21.2-6.15 2.5-7.95 26-7.2-10.5-2.55-9.3-6.25Q-87.5-7.6-78-9.8q-17.1-8.95-4.8-11.25 9.1.9 17.6 3.6-.5-1.95 2.05-3.9-6.7 0-8.45-2.8-1.4-4.05 16.9-6.7-6.9-4.9-3.9-6.1 6.55-.85 17.3 8.7 6-2.45 14.95-1.95-9.95-5.1-6.05-6.05 10.7.2 21.45 6.05-3.6-7.6 0-10.8 1.9-.35 4.8 10.95l1.4 6.05Q6.2-34.95 22.85-38.2q1.35 3.55-3.45 6.65l-1.8 1-1.25.6 2.45-.15q8.15-.25 12.05 3.8.45 1.1-2.7 1.8l-4 .6q4.1 2.75 3.1 5.55l5.45-.5L43.05-31.7q-2.5.6-3.9-2.1-.55-1.1-.9-2.7v-11.6q-.4-8.8-4.1-18.45l-1-2.45 7.15 5.5q6.15 6.4 5.5 10.25l5.8-10.6q4.75-10.35 4.1-22.9l3.05 7.15q2.45 6.25 3.85 11.8 3.65-6.8 5.9-14.35l.8 3.5.25 1.4q.85 5.3.6 10.55l.3-.25 1.9-1.85m2.55-2.4q13.05-11.85 24.6-14.9-5.75 4.15-9.55 9.55-2.75 3.8-4.45 8.25.1 4.3-.6 9.4M-30.45 84.95l-.05.1.25-.15-.2.05" transform="translate(106.35 87.25)" id="e"/><path fill-rule="evenodd" fill-opacity="0" fill="#f0f" d="M102.95 45H0V0h102.95v45" id="aL"/><radialGradient spreadMethod="pad" r="819.2" id="aM" gradientUnits="userSpaceOnUse" gradientTransform="scale(.066)" cy="0" cx="0"><stop stop-opacity=".408" offset="0"/><stop stop-opacity="0" offset="1"/></radialGradient></defs><path fill="none" d="M-1-1h301v298H-1z"/><g stroke="null"><use x="72.05" y="188.206" xlink:href="#aN" width="381" transform="matrix(1.7 0 0 1.7 -327.335 -499.8)" height="381"/><use x="87.919" y="229.659" xlink:href="#aO" width="212.25" transform="translate(-121.308 -317.687) scale(1.39315)" height="211.4"/><use x="-66.401" y="-63.668" xlink:href="#aP" width="102.95" transform="matrix(3.07224 0 0 2.81146 163.2 283.22)" height="45"/></g></svg>