<svg width="294" height="429" xmlns="http://www.w3.org/2000/svg" xmlns:xlink="http://www.w3.org/1999/xlink"><defs><linearGradient y2=".042" y1=".852" x2="-.037" x1=".939" spreadMethod="pad" id="i"><stop stop-color="#fb5e8c" offset="0"/><stop stop-color="#ff9194" offset="1"/></linearGradient><linearGradient y2=".732" y1=".452" x2=".842" x1=".408" spreadMethod="pad" id="j"><stop stop-color="#cb3452" offset="0"/><stop stop-color="#792032" offset="1"/></linearGradient><linearGradient y2="-.176" y1=".84" x2=".249" x1=".921" spreadMethod="pad" id="k"><stop stop-color="#fb5e8c" offset="0"/><stop stop-color="#ff9194" offset="1"/></linearGradient><linearGradient y2=".834" y1=".443" x2=".619" x1=".407" spreadMethod="pad" id="l"><stop stop-color="#cb3452" offset="0"/><stop stop-color="#792032" offset="1"/></linearGradient><linearGradient y2=".711" y1=".323" x2=".283" x1=".448" spreadMethod="pad" id="m"><stop stop-color="#cb3452" offset="0"/><stop stop-color="#792032" offset="1"/></linearGradient><linearGradient y2=".5" y1=".5" x2=".443" x1=".786" spreadMethod="pad" id="n"><stop stop-color="#fb5e8c" offset="0"/><stop stop-color="#ff9194" offset="1"/></linearGradient><linearGradient y2=".5" y1=".5" x2=".185" x1=".505" spreadMethod="pad" id="o"><stop stop-color="#cb3452" offset="0"/><stop stop-color="#792032" offset="1"/></linearGradient><linearGradient y2=".506" y1=".506" x2="1" x1="-.001" spreadMethod="pad" id="p"><stop stop-color="#d38a67" offset="0"/><stop stop-color="#e8b67d" offset="1"/></linearGradient><linearGradient y2=".977" y1=".315" x2="-.283" x1=".763" spreadMethod="pad" id="q"><stop stop-color="#a95849" offset="0"/><stop stop-color="#854f45" offset="1"/></linearGradient><linearGradient y2="-.16" y1=".653" x2="-.018" x1=".788" spreadMethod="pad" id="r"><stop stop-color="#6c2e25" offset="0"/><stop stop-color="#462320" offset="1"/></linearGradient><linearGradient y2="-.166" y1=".422" x2=".202" x1=".582" spreadMethod="pad" id="s"><stop stop-color="#6c2e25" offset="0"/><stop stop-color="#462320" offset="1"/></linearGradient><linearGradient y2=".389" y1=".537" x2=".433" x1=".559" spreadMethod="pad" id="t"><stop stop-color="#fb5e8c" offset="0"/><stop stop-color="#ff9194" offset="1"/></linearGradient><linearGradient y2="-.199" y1=".667" x2=".098" x1=".454" spreadMethod="pad" id="u"><stop stop-color="#6c2e25" offset="0"/><stop stop-color="#462320" offset="1"/></linearGradient><linearGradient y2=".218" y1=".422" x2=".161" x1=".382" spreadMethod="pad" id="v"><stop stop-color="#cb3452" offset="0"/><stop stop-color="#792032" offset="1"/></linearGradient><linearGradient y2=".928" y1=".324" x2=".598" x1=".368" spreadMethod="pad" id="w"><stop stop-color="#ffcf88" offset="0"/><stop stop-color="#fde6c6" offset="1"/></linearGradient><linearGradient y2=".497" y1=".497" x2=".997" x1="0" spreadMethod="pad" id="x"><stop stop-color="#f90" offset="0"/><stop stop-color="#9b550a" offset="1"/></linearGradient><linearGradient y2=".657" y1=".353" x2=".355" x1=".482" spreadMethod="pad" id="y"><stop stop-color="#cb3452" offset="0"/><stop stop-color="#792032" offset="1"/></linearGradient><linearGradient y2="17.4" y1="17.4" x2="38.43" x1="-5.573" spreadMethod="pad" id="z"><stop stop-color="#f90" offset="0"/><stop stop-color="#d9760e" offset="1"/></linearGradient><linearGradient y2="-.134" y1=".622" x2=".368" x1=".544" spreadMethod="pad" id="A"><stop stop-color="#fb5e8c" offset="0"/><stop stop-color="#ff9194" offset="1"/></linearGradient><linearGradient y2=".494" y1="-.032" x2=".295" x1=".82" spreadMethod="pad" id="B"><stop stop-color="#cb3452" offset="0"/><stop stop-color="#792032" offset="1"/></linearGradient><linearGradient y2=".888" y1=".428" x2=".733" x1=".536" spreadMethod="pad" id="C"><stop stop-color="#cb3452" offset="0"/><stop stop-color="#792032" offset="1"/></linearGradient><linearGradient y2=".444" y1=".134" x2=".282" x1=".714" spreadMethod="pad" id="D"><stop stop-color="#cb3452" offset="0"/><stop stop-color="#792032" offset="1"/></linearGradient><linearGradient y2=".411" y1=".543" x2=".821" x1="-.025" spreadMethod="pad" id="E"><stop stop-color="#743a32" offset="0"/><stop stop-color="#6a3939" offset="1"/></linearGradient><linearGradient y2=".229" y1=".828" x2=".577" x1=".32" spreadMethod="pad" id="F"><stop stop-color="#d38a67" offset="0"/><stop stop-color="#e8b67d" offset="1"/></linearGradient><linearGradient y2=".433" y1=".533" x2="-.229" x1=".734" spreadMethod="pad" id="G"><stop stop-color="#a95849" offset="0"/><stop stop-color="#854f45" offset="1"/></linearGradient><linearGradient y2=".23" y1=".328" x2=".746" x1=".631" spreadMethod="pad" id="H"><stop stop-color="#743a32" offset="0"/><stop stop-color="#6a3939" offset="1"/></linearGradient><linearGradient y2=".497" y1=".497" x2="1.002" x1=".417" spreadMethod="pad" id="I"><stop stop-color="#a95849" offset="0"/><stop stop-color="#854f45" offset="1"/></linearGradient><linearGradient y2=".759" y1=".233" x2="1.274" x1=".177" spreadMethod="pad" id="J"><stop stop-color="#a95849" offset="0"/><stop stop-color="#854f45" offset="1"/></linearGradient><linearGradient y2=".267" y1=".553" x2=".363" x1=".716" spreadMethod="pad" id="K"><stop stop-color="#728a26" offset="0"/><stop stop-color="#56641c" offset="1"/></linearGradient><linearGradient y2="1.618" y1=".286" x2="1.676" x1=".082" spreadMethod="pad" id="L"><stop stop-color="#d38a67" offset="0"/><stop stop-color="#e8b67d" offset="1"/></linearGradient><linearGradient y2=".391" y1=".548" x2=".567" x1=".289" spreadMethod="pad" id="M"><stop stop-color="#a95849" offset="0"/><stop stop-color="#854f45" offset="1"/></linearGradient><linearGradient y2="1.271" y1=".405" x2=".847" x1=".469" spreadMethod="pad" id="N"><stop stop-color="#8e493e" offset="0"/><stop stop-color="#854747" offset="1"/></linearGradient><linearGradient y2=".499" y1=".499" x2=".268" x1=".818" spreadMethod="pad" id="O"><stop stop-color="#344422" offset="0"/><stop stop-color="#171d0e" offset="1"/></linearGradient><linearGradient y2="1.245" y1="-.312" x2=".901" x1=".125" spreadMethod="pad" id="P"><stop stop-color="#d38a67" offset="0"/><stop stop-color="#e8b67d" offset="1"/></linearGradient><linearGradient y2=".5" y1=".5" x2=".996" x1=".001" spreadMethod="pad" id="Q"><stop stop-color="#840" offset="0"/><stop stop-color="#6d3701" offset="1"/></linearGradient><linearGradient y2=".5" y1=".5" x2=".724" x1=".196" spreadMethod="pad" id="R"><stop stop-color="#840" offset="0"/><stop stop-color="#6d3701" offset="1"/></linearGradient><linearGradient y2="1.097" y1=".259" x2="1.556" x1=".152" spreadMethod="pad" id="S"><stop stop-color="#b16507" offset="0"/><stop stop-color="#f8a95c" offset="1"/></linearGradient><linearGradient y2="1.124" y1=".188" x2="1.405" x1="-.044" spreadMethod="pad" id="T"><stop stop-color="#b16507" offset="0"/><stop stop-color="#f8a95c" offset="1"/></linearGradient><linearGradient y2=".5" y1=".5" x2=".552" x1=".069" spreadMethod="pad" id="U"><stop stop-color="#840" offset="0"/><stop stop-color="#6d3701" offset="1"/></linearGradient><linearGradient y2=".501" y1=".501" x2="-.063" x1=".875" spreadMethod="pad" id="V"><stop stop-color="#743a32" offset="0"/><stop stop-color="#6c3737" offset="1"/></linearGradient><linearGradient y2="-.001" y1=".653" x2=".309" x1=".557" spreadMethod="pad" id="W"><stop stop-color="#c468a8" offset="0"/><stop stop-color="#983f61" offset="1"/></linearGradient><linearGradient y2=".907" y1=".252" x2=".942" x1=".241" spreadMethod="pad" id="X"><stop stop-color="#b16507" offset="0"/><stop stop-color="#f8a95c" offset="1"/></linearGradient><linearGradient y2=".533" y1=".404" x2=".28" x1=".538" spreadMethod="pad" id="Y"><stop stop-color="#743a32" offset="0"/><stop stop-color="#6a3939" offset="1"/></linearGradient><linearGradient y2=".497" y1=".497" x2=".994" x1="-.001" spreadMethod="pad" id="Z"><stop stop-color="#840" offset="0"/><stop stop-color="#6d3701" offset="1"/></linearGradient><linearGradient y2=".798" y1=".239" x2=".79" x1=".232" spreadMethod="pad" id="aa"><stop stop-color="#b16507" offset="0"/><stop stop-color="#f8a95c" offset="1"/></linearGradient><linearGradient y2=".178" y1="1.011" x2="-.076" x1=".987" spreadMethod="pad" id="ab"><stop stop-color="#344422" offset="0"/><stop stop-color="#171d0e" offset="1"/></linearGradient><linearGradient y2=".072" y1=".505" x2=".555" x1=".508" spreadMethod="pad" id="ac"><stop stop-color="#d280ad" offset="0"/><stop stop-color="#e09c9c" offset="1"/></linearGradient><linearGradient y2=".497" y1=".497" x2="1" x1="0" spreadMethod="pad" id="ad"><stop stop-color="#e9bdc1" offset="0"/><stop stop-color="#f2d9dc" offset=".565"/><stop stop-color="#eac1c5" offset="1"/></linearGradient><linearGradient y2=".093" y1=".658" x2=".574" x1=".034" spreadMethod="pad" id="ae"><stop stop-color="#c468a8" offset="0"/><stop stop-color="#ae5384" offset="1"/></linearGradient><linearGradient y2=".147" y1=".643" x2=".813" x1=".442" spreadMethod="pad" id="af"><stop stop-color="#c468a8" offset="0"/><stop stop-color="#ae5384" offset="1"/></linearGradient><linearGradient y2=".036" y1=".97" x2="-.44" x1="1.425" spreadMethod="pad" id="ag"><stop stop-color="#c468a8" offset="0"/><stop stop-color="#983f61" offset="1"/></linearGradient><linearGradient y2=".368" y1=".701" x2="-.039" x1=".908" spreadMethod="pad" id="ah"><stop stop-color="#a95849" offset="0"/><stop stop-color="#854f45" offset="1"/></linearGradient><linearGradient y2=".022" y1=".538" x2=".499" x1=".499" spreadMethod="pad" id="ai"><stop stop-color="#c468a8" offset="0"/><stop stop-color="#ae5384" offset="1"/></linearGradient><linearGradient y2=".086" y1=".921" x2="-.056" x1=".761" spreadMethod="pad" id="aj"><stop stop-color="#344422" offset="0"/><stop stop-color="#171d0e" offset="1"/></linearGradient><linearGradient y2=".016" y1="1.014" x2="1.002" x1=".086" spreadMethod="pad" id="ak"><stop stop-color="#d280ad" offset="0"/><stop stop-color="#e09c9c" offset="1"/></linearGradient><linearGradient y2=".068" y1=".937" x2="-1.386" x1="1.386" spreadMethod="pad" id="al"><stop stop-color="#c468a8" offset="0"/><stop stop-color="#983f61" offset="1"/></linearGradient><linearGradient y2=".558" y1=".939" x2=".476" x1=".313" spreadMethod="pad" id="am"><stop stop-color="#728a26" offset="0"/><stop stop-color="#56641c" offset="1"/></linearGradient><linearGradient y2=".173" y1=".98" x2="-.026" x1="1.063" spreadMethod="pad" id="an"><stop stop-color="#344422" offset="0"/><stop stop-color="#171d0e" offset="1"/></linearGradient><linearGradient y2=".804" y1=".326" x2=".503" x1=".503" spreadMethod="pad" id="ao"><stop stop-color="#98b933" offset="0"/><stop stop-color="#b4cd4b" offset="1"/></linearGradient><linearGradient y2=".386" y1=".823" x2=".728" x1=".53" spreadMethod="pad" id="ap"><stop stop-color="#3a602b" offset="0"/><stop stop-color="#487634" offset="1"/></linearGradient><linearGradient y2="1.073" y1="-.073" x2=".626" x1=".13" spreadMethod="pad" id="aq"><stop stop-color="#98b933" offset="0"/><stop stop-color="#b4cd4b" offset="1"/></linearGradient><linearGradient y2=".056" y1="1.148" x2=".525" x1=".46" spreadMethod="pad" id="ar"><stop stop-color="#3a602b" offset="0"/><stop stop-color="#487634" offset="1"/></linearGradient><linearGradient y2="-.001" y1="1.008" x2=".5" x1=".5" spreadMethod="pad" id="as"><stop stop-color="#728a26" offset="0"/><stop stop-color="#56641c" offset="1"/></linearGradient><linearGradient y2=".84" y1=".558" x2=".549" x1=".421" spreadMethod="pad" id="at"><stop stop-color="#98b933" offset="0"/><stop stop-color="#b4cd4b" offset="1"/></linearGradient><linearGradient y2=".285" y1=".805" x2=".428" x1=".594" spreadMethod="pad" id="au"><stop stop-color="#344422" offset="0"/><stop stop-color="#171d0e" offset="1"/></linearGradient><linearGradient y2=".357" y1=".667" x2=".484" x1=".516" spreadMethod="pad" id="av"><stop stop-color="#3a602b" offset="0"/><stop stop-color="#487634" offset="1"/></linearGradient><linearGradient y2=".811" y1=".357" x2=".575" x1=".466" spreadMethod="pad" id="aw"><stop stop-color="#98b933" offset="0"/><stop stop-color="#b4cd4b" offset="1"/></linearGradient><linearGradient y2="-.017" y1=".608" x2=".321" x1=".5" spreadMethod="pad" id="ax"><stop stop-color="#3a602b" offset="0"/><stop stop-color="#487634" offset="1"/></linearGradient><linearGradient y2=".126" y1=".803" x2=".574" x1=".457" spreadMethod="pad" id="ay"><stop stop-color="#d280ad" offset="0"/><stop stop-color="#e09c9c" offset="1"/></linearGradient><linearGradient y2=".489" y1=".828" x2=".499" x1=".499" spreadMethod="pad" id="az"><stop stop-color="#728a26" offset="0"/><stop stop-color="#56641c" offset="1"/></linearGradient><linearGradient y2="-.008" y1="1.018" x2=".022" x1=".915" spreadMethod="pad" id="aA"><stop stop-color="#344422" offset="0"/><stop stop-color="#171d0e" offset="1"/></linearGradient><linearGradient y2=".375" y1=".187" x2=".385" x1=".197" spreadMethod="pad" id="aB"><stop stop-color="#98b933" offset="0"/><stop stop-color="#b4cd4b" offset="1"/></linearGradient><linearGradient y2=".772" y1=".062" x2=".564" x1=".373" spreadMethod="pad" id="aC"><stop stop-color="#98b933" offset="0"/><stop stop-color="#b4cd4b" offset="1"/></linearGradient><linearGradient y2=".236" y1=".86" x2=".367" x1=".604" spreadMethod="pad" id="aD"><stop stop-color="#344422" offset="0"/><stop stop-color="#171d0e" offset="1"/></linearGradient><linearGradient y2=".5" y1=".5" x2=".521" x1=".799" spreadMethod="pad" id="aE"><stop stop-color="#743a32" offset="0"/><stop stop-color="#6a3939" offset="1"/></linearGradient><linearGradient y2=".908" y1=".108" x2=".346" x1=".654" spreadMethod="pad" id="aF"><stop stop-color="#a95849" offset="0"/><stop stop-color="#854f45" offset="1"/></linearGradient><linearGradient y2=".136" y1=".986" x2=".5" x1=".5" spreadMethod="pad" id="aG"><stop stop-color="#840" offset="0"/><stop stop-color="#6d3701" offset="1"/></linearGradient><linearGradient y2="-.606" y1=".828" x2=".498" x1=".498" spreadMethod="pad" id="aH"><stop stop-color="#840" offset="0"/><stop stop-color="#6d3701" offset="1"/></linearGradient><linearGradient y2=".502" y1=".502" x2=".119" x1=".874" spreadMethod="pad" id="aI"><stop stop-color="#8e493e" offset="0"/><stop stop-color="#854747" offset="1"/></linearGradient><linearGradient y2="1.626" y1=".36" x2="1.236" x1=".38" spreadMethod="pad" id="aJ"><stop stop-color="#b16507" offset="0"/><stop stop-color="#f8a95c" offset="1"/></linearGradient><linearGradient y2=".207" y1=".868" x2=".627" x1=".411" spreadMethod="pad" id="aK"><stop stop-color="#840" offset="0"/><stop stop-color="#6d3701" offset="1"/></linearGradient><linearGradient y2="1.014" y1=".239" x2=".614" x1=".402" spreadMethod="pad" id="aL"><stop stop-color="#b16507" offset="0"/><stop stop-color="#f8a95c" offset="1"/></linearGradient><linearGradient y2="1.181" y1=".252" x2=".499" x1=".499" spreadMethod="pad" id="aM"><stop stop-color="#b16507" offset="0"/><stop stop-color="#f8a95c" offset="1"/></linearGradient><linearGradient y2="-.505" y1="1.618" x2=".301" x1=".731" spreadMethod="pad" id="aN"><stop stop-color="#344422" offset="0"/><stop stop-color="#171d0e" offset="1"/></linearGradient><linearGradient y2=".673" y1=".306" x2=".694" x1=".301" spreadMethod="pad" id="aO"><stop stop-color="#a95849" offset="0"/><stop stop-color="#854f45" offset="1"/></linearGradient><linearGradient y2=".437" y1=".517" x2=".478" x1=".238" spreadMethod="pad" id="aP"><stop stop-color="#d38a67" offset="0"/><stop stop-color="#e8b67d" offset="1"/></linearGradient><linearGradient y2=".158" y1=".7" x2=".971" x1="-.043" spreadMethod="pad" id="aQ"><stop stop-color="#d38a67" offset="0"/><stop stop-color="#e8b67d" offset="1"/></linearGradient><linearGradient y2=".812" y1=".439" x2="1.081" x1=".347" spreadMethod="pad" id="aR"><stop stop-color="#574f3e" offset="0"/><stop stop-color="#786d56" offset="1"/></linearGradient><linearGradient y2=".213" y1=".801" x2=".288" x1=".731" spreadMethod="pad" id="aS"><stop stop-color="#344422" offset="0"/><stop stop-color="#171d0e" offset="1"/></linearGradient><linearGradient y2=".5" y1=".5" x2=".996" x1=".001" spreadMethod="pad" id="aT"><stop stop-color="#3a602b" offset="0"/><stop stop-color="#487634" offset="1"/></linearGradient><linearGradient y2=".746" y1=".279" x2=".624" x1=".238" spreadMethod="pad" id="aU"><stop stop-color="#98b933" offset="0"/><stop stop-color="#b4cd4b" offset="1"/></linearGradient><linearGradient y2=".502" y1=".502" x2="-.61" x1=".974" spreadMethod="pad" id="aV"><stop stop-color="#d38a67" offset="0"/><stop stop-color="#e8b67d" offset="1"/></linearGradient><linearGradient y2=".75" y1=".33" x2="1.238" x1=".341" spreadMethod="pad" id="aW"><stop stop-color="#a95849" offset="0"/><stop stop-color="#854f45" offset="1"/></linearGradient><linearGradient y2=".452" y1=".576" x2=".476" x1=".702" spreadMethod="pad" id="aX"><stop stop-color="#728a26" offset="0"/><stop stop-color="#56641c" offset="1"/></linearGradient><linearGradient y2=".243" y1=".501" x2=".687" x1=".374" spreadMethod="pad" id="aY"><stop stop-color="#ae006d" offset="0"/><stop stop-color="#82065e" offset="1"/></linearGradient><linearGradient y2=".512" y1=".409" x2=".511" x1=".207" spreadMethod="pad" id="aZ"><stop stop-color="#ff3cb6" offset="0"/><stop stop-color="#fb84d8" offset="1"/></linearGradient><linearGradient y2="-28.979" y1="-13.687" x2="10.402" x1="95.599" spreadMethod="pad" id="ba"><stop stop-color="#ae006d" offset="0"/><stop stop-color="#82065e" offset="1"/></linearGradient><linearGradient y2="-.06" y1="1.17" x2=".137" x1=".89" spreadMethod="pad" id="bb"><stop stop-color="#344422" offset="0"/><stop stop-color="#171d0e" offset="1"/></linearGradient><linearGradient y2=".335" y1=".561" x2=".792" x1=".306" spreadMethod="pad" id="bc"><stop stop-color="#728a26" offset="0"/><stop stop-color="#56641c" offset="1"/></linearGradient><linearGradient y2=".5" y1=".5" x2="1.001" x1="-.001" spreadMethod="pad" id="bd"><stop stop-color="#3a602b" offset="0"/><stop stop-color="#487634" offset="1"/></linearGradient><linearGradient y2=".385" y1=".626" x2=".611" x1=".376" spreadMethod="pad" id="be"><stop stop-color="#98b933" offset="0"/><stop stop-color="#b4cd4b" offset="1"/></linearGradient><linearGradient y2=".29" y1=".811" x2=".694" x1=".433" spreadMethod="pad" id="bf"><stop stop-color="#c468a8" offset="0"/><stop stop-color="#ae5384" offset="1"/></linearGradient><linearGradient y2=".082" y1=".595" x2="1.009" x1=".586" spreadMethod="pad" id="bg"><stop stop-color="#c468a8" offset="0"/><stop stop-color="#ae5384" offset="1"/></linearGradient><linearGradient y2=".15" y1=".85" x2=".201" x1=".774" spreadMethod="pad" id="bh"><stop stop-color="#c468a8" offset="0"/><stop stop-color="#983f61" offset="1"/></linearGradient><linearGradient y2=".957" y1=".163" x2=".361" x1=".517" spreadMethod="pad" id="bi"><stop stop-color="#a95849" offset="0"/><stop stop-color="#854f45" offset="1"/></linearGradient><linearGradient y2=".636" y1=".409" x2=".09" x1=".793" spreadMethod="pad" id="bj"><stop stop-color="#b16507" offset="0"/><stop stop-color="#f8a95c" offset="1"/></linearGradient><linearGradient y2=".343" y1=".691" x2=".383" x1=".514" spreadMethod="pad" id="bk"><stop stop-color="#840" offset="0"/><stop stop-color="#6d3701" offset="1"/></linearGradient><linearGradient y2=".064" y1=".542" x2=".694" x1=".366" spreadMethod="pad" id="bl"><stop stop-color="#c468a8" offset="0"/><stop stop-color="#ae5384" offset="1"/></linearGradient><linearGradient y2=".204" y1=".468" x2=".931" x1=".377" spreadMethod="pad" id="bm"><stop stop-color="#743a32" offset="0"/><stop stop-color="#6a3939" offset="1"/></linearGradient><linearGradient y2=".526" y1=".194" x2=".376" x1=".73" spreadMethod="pad" id="bn"><stop stop-color="#d280ad" offset="0"/><stop stop-color="#e09c9c" offset="1"/></linearGradient><linearGradient y2=".565" y1=".734" x2=".206" x1=".492" spreadMethod="pad" id="bo"><stop stop-color="#840" offset="0"/><stop stop-color="#6d3701" offset="1"/></linearGradient><linearGradient y2=".017" y1=".947" x2="1.04" x1="-.118" spreadMethod="pad" id="bp"><stop stop-color="#c468a8" offset="0"/><stop stop-color="#983f61" offset="1"/></linearGradient><linearGradient y2=".154" y1=".652" x2="1.053" x1=".256" spreadMethod="pad" id="bq"><stop stop-color="#c468a8" offset="0"/><stop stop-color="#ae5384" offset="1"/></linearGradient><linearGradient y2=".345" y1=".649" x2="1.213" x1="-.759" spreadMethod="pad" id="br"><stop stop-color="#c468a8" offset="0"/><stop stop-color="#ae5384" offset="1"/></linearGradient><linearGradient y2=".064" y1=".923" x2="1.143" x1="-.168" spreadMethod="pad" id="bs"><stop stop-color="#c468a8" offset="0"/><stop stop-color="#983f61" offset="1"/></linearGradient><linearGradient y2=".346" y1=".652" x2="2.066" x1="-1.266" spreadMethod="pad" id="bt"><stop stop-color="#c468a8" offset="0"/><stop stop-color="#983f61" offset="1"/></linearGradient><linearGradient y2=".354" y1=".889" x2=".611" x1=".444" spreadMethod="pad" id="bu"><stop stop-color="#3a602b" offset="0"/><stop stop-color="#487634" offset="1"/></linearGradient><linearGradient y2=".498" y1=".498" x2="1.001" x1="-.001" spreadMethod="pad" id="bv"><stop stop-color="#728a26" offset="0"/><stop stop-color="#56641c" offset="1"/></linearGradient><linearGradient y2=".321" y1=".731" x2=".687" x1=".331" spreadMethod="pad" id="bw"><stop stop-color="#344422" offset="0"/><stop stop-color="#171d0e" offset="1"/></linearGradient><linearGradient y2=".499" y1=".777" x2=".585" x1=".3" spreadMethod="pad" id="bx"><stop stop-color="#3a602b" offset="0"/><stop stop-color="#487634" offset="1"/></linearGradient><linearGradient y2=".031" y1=".653" x2=".808" x1=".463" spreadMethod="pad" id="by"><stop stop-color="#344422" offset="0"/><stop stop-color="#171d0e" offset="1"/></linearGradient><linearGradient y2=".091" y1=".746" x2=".84" x1=".378" spreadMethod="pad" id="bz"><stop stop-color="#344422" offset="0"/><stop stop-color="#171d0e" offset="1"/></linearGradient><linearGradient y2=".171" y1=".634" x2=".793" x1=".483" spreadMethod="pad" id="bA"><stop stop-color="#98b933" offset="0"/><stop stop-color="#b4cd4b" offset="1"/></linearGradient><linearGradient y2=".367" y1=".731" x2=".658" x1=".193" spreadMethod="pad" id="bB"><stop stop-color="#344422" offset="0"/><stop stop-color="#171d0e" offset="1"/></linearGradient><linearGradient y2="-.149" y1="1.131" x2=".191" x1=".781" spreadMethod="pad" id="bC"><stop stop-color="#98b933" offset="0"/><stop stop-color="#b4cd4b" offset="1"/></linearGradient><linearGradient y2=".395" y1=".662" x2=".63" x1=".386" spreadMethod="pad" id="bD"><stop stop-color="#3a602b" offset="0"/><stop stop-color="#487634" offset="1"/></linearGradient><linearGradient y2=".23" y1=".832" x2=".347" x1=".773" spreadMethod="pad" id="bE"><stop stop-color="#728a26" offset="0"/><stop stop-color="#56641c" offset="1"/></linearGradient><linearGradient y2=".612" y1=".754" x2=".613" x1=".668" spreadMethod="pad" id="bF"><stop stop-color="#344422" offset="0"/><stop stop-color="#171d0e" offset="1"/></linearGradient><linearGradient y2=".253" y1=".605" x2=".299" x1=".575" spreadMethod="pad" id="bG"><stop stop-color="#344422" offset="0"/><stop stop-color="#171d0e" offset="1"/></linearGradient><linearGradient y2=".107" y1=".74" x2=".274" x1=".631" spreadMethod="pad" id="bH"><stop stop-color="#728a26" offset="0"/><stop stop-color="#56641c" offset="1"/></linearGradient><linearGradient y2=".426" y1=".601" x2=".447" x1=".531" spreadMethod="pad" id="bI"><stop stop-color="#98b933" offset="0"/><stop stop-color="#b4cd4b" offset="1"/></linearGradient><linearGradient y2="-.302" y1="1.42" x2=".294" x1=".872" spreadMethod="pad" id="bJ"><stop stop-color="#344422" offset="0"/><stop stop-color="#171d0e" offset="1"/></linearGradient><linearGradient y2=".433" y1=".868" x2=".67" x1=".397" spreadMethod="pad" id="bK"><stop stop-color="#98b933" offset="0"/><stop stop-color="#b4cd4b" offset="1"/></linearGradient><linearGradient y2=".678" y1=".448" x2=".904" x1=".469" spreadMethod="pad" id="bL"><stop stop-color="#743a32" offset="0"/><stop stop-color="#6a3939" offset="1"/></linearGradient><linearGradient y2=".051" y1=".687" x2=".53" x1=".488" spreadMethod="pad" id="bM"><stop stop-color="#3a602b" offset="0"/><stop stop-color="#487634" offset="1"/></linearGradient><linearGradient y2="-.662" y1="1.662" x2=".31" x1=".681" spreadMethod="pad" id="bN"><stop stop-color="#344422" offset="0"/><stop stop-color="#171d0e" offset="1"/></linearGradient><linearGradient y2="-.28" y1="1.359" x2=".259" x1=".775" spreadMethod="pad" id="bO"><stop stop-color="#344422" offset="0"/><stop stop-color="#171d0e" offset="1"/></linearGradient><linearGradient y2=".103" y1="1.054" x2=".971" x1=".219" spreadMethod="pad" id="bP"><stop stop-color="#728a26" offset="0"/><stop stop-color="#56641c" offset="1"/></linearGradient><linearGradient y2=".51" y1=".785" x2=".498" x1=".498" spreadMethod="pad" id="bQ"><stop stop-color="#3a602b" offset="0"/><stop stop-color="#487634" offset="1"/></linearGradient><linearGradient y2="-.008" y1="1.027" x2=".869" x1=".243" spreadMethod="pad" id="bR"><stop stop-color="#d280ad" offset="0"/><stop stop-color="#e09c9c" offset="1"/></linearGradient><linearGradient y2=".819" y1=".283" x2=".45" x1=".261" spreadMethod="pad" id="bS"><stop stop-color="#98b933" offset="0"/><stop stop-color="#b4cd4b" offset="1"/></linearGradient><linearGradient y2=".15" y1=".924" x2=".511" x1=".511" spreadMethod="pad" id="bT"><stop stop-color="#6f8725" offset="0"/><stop stop-color="#56641c" offset="1"/></linearGradient><linearGradient y2="-.334" y1="1.085" x2=".637" x1=".368" spreadMethod="pad" id="bU"><stop stop-color="#728a26" offset="0"/><stop stop-color="#56641c" offset="1"/></linearGradient><linearGradient y2="1.641" y1="-.684" x2=".693" x1=".319" spreadMethod="pad" id="bV"><stop stop-color="#98b933" offset="0"/><stop stop-color="#b4cd4b" offset="1"/></linearGradient><linearGradient y2=".791" y1=".321" x2=".497" x1=".726" spreadMethod="pad" id="bW"><stop stop-color="#98b933" offset="0"/><stop stop-color="#b4cd4b" offset="1"/></linearGradient><linearGradient y2=".662" y1=".286" x2=".149" x1=".622" spreadMethod="pad" id="bX"><stop stop-color="#b16507" offset="0"/><stop stop-color="#f8a95c" offset="1"/></linearGradient><linearGradient y2="-.078" y1="1.085" x2=".663" x1=".339" spreadMethod="pad" id="bY"><stop stop-color="#d280ad" offset="0"/><stop stop-color="#e09c9c" offset="1"/></linearGradient><linearGradient y2="-.011" y1=".808" x2=".989" x1=".059" spreadMethod="pad" id="bZ"><stop stop-color="#3a602b" offset="0"/><stop stop-color="#487634" offset="1"/></linearGradient><linearGradient y2=".454" y1=".754" x2=".884" x1=".606" spreadMethod="pad" id="ca"><stop stop-color="#98b933" offset="0"/><stop stop-color="#b4cd4b" offset="1"/></linearGradient><linearGradient y2="-.153" y1=".871" x2=".278" x1=".874" spreadMethod="pad" id="cb"><stop stop-color="#344422" offset="0"/><stop stop-color="#171d0e" offset="1"/></linearGradient><linearGradient y2=".5" y1=".5" x2=".002" x1="1.001" spreadMethod="pad" id="cc"><stop stop-color="#8e493e" offset="0"/><stop stop-color="#854747" offset="1"/></linearGradient><linearGradient y2=".711" y1=".979" x2=".51" x1=".603" spreadMethod="pad" id="cd"><stop stop-color="#840" offset="0"/><stop stop-color="#6d3701" offset="1"/></linearGradient><linearGradient y2=".57" y1=".776" x2=".473" x1=".396" spreadMethod="pad" id="ce"><stop stop-color="#840" offset="0"/><stop stop-color="#6d3701" offset="1"/></linearGradient><linearGradient y2=".862" y1=".394" x2="-.468" x1=".736" spreadMethod="pad" id="cf"><stop stop-color="#b16507" offset="0"/><stop stop-color="#f8a95c" offset="1"/></linearGradient><linearGradient y2="1.399" y1=".286" x2="-.317" x1=".714" spreadMethod="pad" id="cg"><stop stop-color="#b16507" offset="0"/><stop stop-color="#f8a95c" offset="1"/></linearGradient><linearGradient y2="1.078" y1=".323" x2="-.068" x1=".816" spreadMethod="pad" id="ch"><stop stop-color="#b16507" offset="0"/><stop stop-color="#f8a95c" offset="1"/></linearGradient><path fill-rule="evenodd" fill="url(#a)" d="M14.75-14.8Q20.9-8.65 20.9 0t-6.15 14.75Q8.65 20.9 0 20.9t-14.8-6.15Q-20.9 8.65-20.9 0t6.1-14.8q6.15-6.1 14.8-6.1t14.75 6.1" transform="translate(20.9 20.9)" id="c"/><path fill-rule="evenodd" fill="url(#b)" d="M14.75-14.8Q20.9-8.65 20.9 0t-6.15 14.75Q8.65 20.9 0 20.9t-14.8-6.15Q-20.9 8.65-20.9 0t6.1-14.8q6.15-6.1 14.8-6.1t14.75 6.1" transform="translate(20.9 20.9)" id="d"/><path fill-rule="evenodd" fill-opacity="0" fill="#f0f" d="M102.95 45H0V0h102.95v45" id="e"/><use xlink:href="#c" width="41.8" height="41.8" id="f"/><use xlink:href="#d" width="41.8" height="41.8" id="h"/><use xlink:href="#e" width="102.95" height="45" id="ck"/><g id="ci" stroke-opacity="0" stroke-linejoin="round" stroke-linecap="round" stroke="#f0f" fill="none"><path d="M187.95-293.5v380h-380v-380h380M92.95.6H-97" transform="translate(192.55 294)"/><path d="m187.95-293.5-190 190 190 190m-379.95 0 189.95-190-190-190" transform="translate(192.55 294)"/></g><g transform="translate(102.9 136.15)" id="cj"><use xlink:href="#f" width="41.8" transform="matrix(4.3134 0 0 1.4398 -102.9 85.71)" height="41.8"/><use xlink:href="#g" width="191.4" transform="translate(-95.7 -136.15)" height="272.3"/><use xlink:href="#f" width="41.8" transform="matrix(.6651 0 0 .4258 8.4 -55.2)" height="41.8"/><use xlink:href="#f" width="41.8" transform="matrix(.5219 0 0 .4258 -36.207 -60.4)" height="41.8"/><use xlink:href="#h" width="41.8" transform="translate(15.25 -107.15) scale(.6914)" height="41.8"/><use xlink:href="#h" width="41.8" transform="translate(42.6 58.7) scale(.6914)" height="41.8"/></g><g id="g"><path fill-rule="evenodd" fill="url(#i)" d="M12.15-133.65 10-134.8q3.05-1.4 6.45-.45 10.9 7.3 17 16.6 1.85 5.05 2.05 8.55-4.65 3.3-6.85-.85-.75-1.75-1.85 1.05-.45 6.3.05 12.65l-.8.05q-.75-6.45.1-13.95l.05-.35-.1.35q-1.4-9.1-6.4-17.5 6.05 16.65 3.65 21.55-1.95 1.5-4.5.5.85-6.55-1.15-14.75-2.65-7.75-5.55-12.3" transform="translate(95.7 136.15)"/><path fill-rule="evenodd" fill="url(#j)" d="M12.15-133.65q2.9 4.55 5.55 12.3 2 8.2 1.15 14.75 2.55 1 4.5-.5 2.4-4.9-3.65-21.55 5 8.4 6.4 17.5h.05q-.85 7.5-.1 13.95l-1 .25-1.4.7q-1.45-7.45-7.05-11.95l-3.25-1.4q2.9-10.05-1.2-24.05" transform="translate(95.7 136.15)"/><path fill-rule="evenodd" fill="url(#k)" d="M-12.05-111.95q2.75-.85 1.8-2.15l.15-.15q12.2.2 23.45 4.65l3.25 1.4q2.5 7.25-.65 7.75l1.9 1.15q1.1 5.45-8.8 9.9-8.4-17.5-21.1-22.55m19.1 6.15 8.9 5.35-8.9-5.35" transform="translate(95.7 136.15)"/><path fill-rule="evenodd" fill="url(#l)" d="M15.95-100.45q3.15-.5.65-7.75 5.6 4.5 7.05 11.95l-.55.45-1.35 1.45v.05l-1.1 2q.2-2.8-2.8-7l-1.9-1.15" transform="translate(95.7 136.15)"/><path fill-rule="evenodd" fill="url(#m)" d="M26.85-97.25q-.5-6.35-.05-12.65 1.1-2.8 1.85-1.05 2.2 4.15 6.85.85.15 3-.85 4.9-1.85 2.6-3.4 6.1l-1.15 2.7-2.6-.85h-.65" transform="translate(95.7 136.15)"/><path fill-rule="evenodd" fill="#cb3452" d="m26.1-111.15.1-.35-.05.35h-.05m6.85 25.5 2.3-3.9.2-.35 3-.1q-2.3 1.35-2.25 3.95 7.25 4.2 7.9 7.2-2.75-3.35-9.6-6.15l-1.55-.65" transform="translate(95.7 136.15)"/><path fill-rule="evenodd" fill="url(#n)" d="M34.65-105.2q6.1-8.75 15.6-11.4 6 7.05 8.7 14.6l1.35 3.95.2.7 1.75 6.3.6 2.8.95 5.2-.5 2.25q-4.15-7.4-10.7-12.05 1.8-15.75-2.1-21 2.25 11.3-.3 18.7Q45.05-92 39.55-91.9q.2-2-3.85-3.35l8.65-4.75.9-.55q.4-1.65-2.15-1.25-3.75 1.3-6.55 3.75-4.3 1-5.3-1.05 1.55-3.5 3.4-6.1" transform="translate(95.7 136.15)"/><path fill-rule="evenodd" fill="url(#o)" d="M36.55-98.05q2.8-2.45 6.55-3.75 2.55-.4 2.15 1.25l-.9.55-8.65 4.75q4.05 1.35 3.85 3.35 5.5-.1 10.65-3.25 2.55-7.4.3-18.7 3.9 5.25 2.1 21 6.55 4.65 10.7 12.05l-.3 1.25q-1.9-3.15-4.1-5.55-3-3.35-6.6-5.25-5.5-.9-11.05 1.7l-2.6-1.25-.2-.1-3 .1-.25.05q-.3-1.8-1.15-3.2l-.9-1.2q1.5-2.15 3.4-3.8m12.35 5.9 1.3-3-1.3 3" transform="translate(95.7 136.15)"/><path fill-rule="evenodd" fill="url(#p)" d="M58.95-102q9.35-2.55 12.4.8 5.05 5.45 2.4 6.55l-2.5.05-4.4-.7q7.4-.05 1.4-4.45-2.5-1.85-7.95 1.7L58.95-102" transform="translate(95.7 136.15)"/><path fill-rule="evenodd" fill="url(#q)" d="m73.75-94.65.95 1.8q4.8 16.4 2.7 22.25-1.1-.3-1.7-2.6-2.4 11.25-11.55 17.4-2.05.8-4.15 1.15-4.35.75-9.1-.2 3.1 3.3 1 3.2-2.45-.45-4.5-1.3v-4.1q1.2.8 2.05 3.5.9-3.8-2.25-11.7l5.3 4.7v-.8q-.1-3.05-2-4.6 3.45 1.55 4.5 6.85.05-11.3-3.5-18.75l5.4 1.5L59.8-71l-.1 1.25 1.2 4 1.55-3.1-.7-9.25-1.4-1.6-1.45-5.4q2.2 2.4 4.1 5.55l.3-1.25.5-2.25-.95-5.2-.6-2.8-1.75-6.3-.2-.7q5.45-3.55 7.95-1.7 6 4.4-1.4 4.45l4.4.7 2.5-.05m-15.35 29q1.05-1.75 1.3-4.1-.25 2.35-1.3 4.1m3.35-12.45q2.55 3.25 3.35 7.15-.8-3.9-3.35-7.15" transform="translate(95.7 136.15)"/><path fill-rule="evenodd" fill="url(#r)" d="m57.6-82.1-4.75-2.95q-3.25-.6-5.55 1-2.6-2.75-6.05-4.6 5.55-2.6 11.05-1.7 3.6 1.9 6.6 5.25l1.45 5.4-2.75-2.4" transform="translate(95.7 136.15)"/><path fill-rule="evenodd" fill="url(#s)" d="m59.8-71-2.9-5.35-5.4-1.5q-1.7-3.55-4.2-6.2 2.3-1.6 5.55-1l4.75 2.95q2.35 6.55 2.2 11.1" transform="translate(95.7 136.15)"/><path fill-rule="evenodd" fill="#743a32" d="M59.8-71q.15-4.55-2.2-11.1l2.75 2.4 1.4 1.6.7 9.25-1.55 3.1-1.2-4 .1-1.25" transform="translate(95.7 136.15)"/><path fill-rule="evenodd" fill="url(#t)" d="M47.3-84.05q2.5 2.65 4.2 6.2Q55.05-70.4 55-59.1q-1.05-5.3-4.5-6.85 1.9 1.55 2 4.6-4.1-6.65-17.35-16.3Q33.6-79.7 34.5-85q6.85 2.8 9.6 6.15-.65-3-7.9-7.2-.05-2.6 2.25-3.95l.2.1 2.6 1.25q3.45 1.85 6.05 4.6" transform="translate(95.7 136.15)"/><path fill-rule="evenodd" fill="url(#u)" d="M47.4-52.95q-5.75-2.3-8.25-7.4v-.05l-1.1-2.2q-2.65-3.9-7.9-5.7-5.35 2.65-8.55 7.5-2.8-1.15-5.15 2.2-1.35 4.5 2.55 4.9v1.6q-2.5 2.4-7.55 2.2-1.3-2.8-.8-6.85 2.5-.85 4.15-2.05 3.65-11.1 13.85-19.3l.1.05q9.45 5.25 18.45 12.8 3.15 7.9 2.25 11.7-.85-2.7-2.05-3.5v4.1M40.1-64.1q-.15 1.95-.95 3.7.8-1.75.95-3.7" transform="translate(95.7 136.15)"/><path fill-rule="evenodd" fill="url(#v)" d="M52.5-61.35v.8l-5.3-4.7q-9-7.55-18.45-12.8l.15-.2q1.9-1.55 4.1-3 1.3-1.5-2.45-4.4l-.5-.2.05-.15q1.9-.55 2.85.35l1.55.65q-.9 5.3.65 7.35Q48.4-68 52.5-61.35" transform="translate(95.7 136.15)"/><path fill-rule="evenodd" fill="#d38a67" d="M74.7-92.85q8 15.45 4.2 21.75-.85.65-1.5.5 2.1-5.85-2.7-22.25M-83.55 23.8q-1.15-1.7 1.9-4.5 5.3-1.85 9.9-1.45.55-1.05 1.7-2.2l8.85-2.4 2.5-3.35v2q-4.85 4.5-5.1 13.55l-.2-1.7q-3.1 1.85-3.6 5.3l-1.15 1.35q-.9-.75.05-2.7 2.15-4.35 4.7-5.5.05-2.5 1-5.05-7-1.05-7.9 6.15l-1.5-.75q1.5 2.8-.15 4.85.2-1.85-2.1-6.05l-2.25-1.15q-3.15-.8-4.55 1.45l-.45 1.4-1.65.75m53.25-42.3q1.25-6.4 7.95-7.85l2.7 1q-1.95.55-3.25 1.3-2.45 1.3-2.85 3l1.9-.6q-3.1 1.75-4.75 4.55l-.9-.7h.05l-.65-.55-.2-.15m91.95 57.6q.2-1.9-1.2-3.85-1.85-2.65-3.9-3.35-4.45-.7-10 1.5 5.8-3.5 10.85-2.85 3.55.6 4.05 3.5l.4 2.3q.15 1.7-.2 2.75m-36 67.8-.1.2-.8-.8.9.6M-19.7-93.7l.45 2q-2.7-1.75-5.4 0-.8 1.3.3 2.55-2.35-1-2.1-2.35l.95-1.15q1.75-1.5 5.8-1.05m-9.75 75.9q1.55-2.25 3.7-3.25-2.15 1-3.7 3.25m27.8-.6q-.05 1.65-4.7 3.3l-6.6 1.85q-4.2-.3 0-3.5 3.55-2.4 6.35-2.45 4.7-.35 4.95.8m-33.8 40.2.4-1.15q.85-1.8 3.5-2.35.7-2.2.75-5.35 1.3 7.05-.45 9.85l-2.7.15 1.1-1.65q-.25-1.8-2.6.5m3.9-3.5q-.5 1.6-1.3 3 .8-1.4 1.3-3m-40.65 1.2.45-1.65-.45 1.65m8.2 2.7v1.55-1.55m2.8-8.95q-1.15 1.95-1.8 3.9.65-1.95 1.8-3.9" transform="translate(95.7 136.15)"/><path fill-rule="evenodd" fill="url(#w)" d="m26.05-97.2.8-.05h.65l2.6.85q1.85.8 3.05 2.15l.9 1.2-.2 1q.85 1.55.6 2.35-.4-1.05-1.15-1.25-2.5 3.15-5.1 2.55-2.65-.6-3.6-1.75-1.1.1-1.4 1.6-.3-1.25.4-2.3l-.65-.75q-1.15.2-2 1.5.15-2.95 1.15-4l1.2-1.45.55-.55 1.2-.85 1-.25" transform="translate(95.7 136.15)"/><path fill-rule="evenodd" fill="url(#x)" d="m35.2-89.85.05.3-2.3 3.9q-.95-.9-2.85-.35l-.1.1q-1.7-.65-3.6-.75h-1.85l-1.5.15q-1.25-2.2-3.25-3.25l.85-2.55 1.1-2 .35.2q-1 1.05-1.15 4 .85-1.3 2-1.5l.65.75q-.7 1.05-.4 2.3.3-1.5 1.4-1.6.95 1.15 3.6 1.75 2.6.6 5.1-2.55.75.2 1.15 1.25.25-.8-.6-2.35l.2-1q.85 1.4 1.15 3.2" transform="translate(95.7 136.15)"/><path fill-rule="evenodd" fill="#f81d9a" d="m35.25-89.55-.05-.3.25-.05-.2.35m-6.6 11.45.25-.15-.15.2-.1-.05" transform="translate(95.7 136.15)"/><path fill-rule="evenodd" fill="url(#y)" d="M33.15-94.25q-1.2-1.35-3.05-2.15l1.15-2.7q1 2.05 5.3 1.05-1.9 1.65-3.4 3.8" transform="translate(95.7 136.15)"/><path fill-rule="evenodd" fill="#f90" d="m23.65-96.25 1.4-.7-1.2.85-.55.55-1.2 1.45-.35-.25 1.35-1.45.55-.45" transform="translate(95.7 136.15)"/><path fill-rule="evenodd" fill="url(#z)" d="m22.1-94.1-.35-.2v-.05l.35.25" transform="translate(95.7 136.15)"/><path fill-rule="evenodd" fill="url(#A)" d="m23.05-86.5 1.5-.15h1.85q4.15 2.35 1.8 6.1-4.35 3.75-7.95 8.25l-.3.35q-3.4 4.05-6.8 3.7l3.3-5.7q-9.6 5.25-13.4-4.85 1.4-3.05 3.95-5.65l.15-.15 2.25-2.05q2.15-1.75 4.95-3.25l1.6-.85q3.9 1.6 1.65 3.6-3.25 2.45-4.6 6.7l-2.1 6.65q4.5-11.4 12.15-12.7" transform="translate(95.7 136.15)"/><path fill-rule="evenodd" fill="url(#B)" d="M26.4-86.65q1.9.1 3.6.75l.05.05.5.2q3.75 2.9 2.45 4.4-2.2 1.45-4.1 3l-.25.15q-10.2 8.2-13.85 19.3-1.65 1.2-4.15 2.05l-.75.25-1.3.35 1.6-5.45L7-57.65l-.95-1.9q-.95-2.1-1.65-4.25-1.5-4.65-1.65-9.45l.3-5.55q3.8 10.1 13.4 4.85l-3.3 5.7q3.4.35 6.8-3.7l.3-.35q3.6-4.5 7.95-8.25 2.35-3.75-1.8-6.1" transform="translate(95.7 136.15)"/><path fill-rule="evenodd" fill="url(#C)" d="M2.45-97.1q-6.3-9.45-15.9-14.5l1.4-.35Q.65-106.9 9.05-89.4q9.9-4.45 8.8-9.9 3 4.2 2.8 7l-.85 2.55q-1.7-.9-3.85-1l-1.6.85q-2.8 1.5-4.95 3.25l-1.9-.25q-1.2-3.3-2.75-6.25l-.65-1.3-1.65-2.65" transform="translate(95.7 136.15)"/><path fill-rule="evenodd" fill="url(#D)" d="M19.8-89.75q2 1.05 3.25 3.25-7.65 1.3-12.15 12.7l2.1-6.65q1.35-4.25 4.6-6.7 2.25-2-1.65-3.6 2.15.1 3.85 1" transform="translate(95.7 136.15)"/><path fill-rule="evenodd" fill="url(#E)" d="M4.75-93.15Q6.3-90.2 7.5-86.9l1.9.25-2.25 2.05-.15.15-1.6-1.25q.6-2.1-.65-7.45" transform="translate(95.7 136.15)"/><path fill-rule="evenodd" fill="url(#F)" d="M-30-32q-13.55-13.55 2.7-30.3-2-4.55-1.75-9.05.25-4.7 2.95-9.3l2.8-4.1 4.15-4.4q2.65-2.5 6.05-4.95-4.95-.55-.85-2.3l1.2-.4 8.45-.95 6.75.65 1.65 2.65-7.6-.55q-3.65.45-7.05 2.4l2 1.15q-5.6.95-9.65 3.85-5.65 4.2-4.45 6.95.85 1.15 2.6.45-4.85 2.7-7.4 9.9-.5 3.15 1.4 9 1.4 3.25.95 10.85-1.9 8.75-9.75 6.9l.15 1.15q.8 4.35 4.7 10.4" transform="translate(95.7 136.15)"/><path fill-rule="evenodd" fill="url(#G)" d="m39.15-60.35-.5.85q7.9 12.85 8.85 22.2-1.8 1.45-3.6-2.2 1.45 4.9 0 8.4-3.1 1.7-3-2.2-2.8 4.55-6.7 7L31.7-25q-5.85 2.55-13.8 1.1-18 5.65-35.2-.8l-2.35-.65-2.7-1q-2.15-.9-3.45-1.95l-.7-.6q-1.95-1.5-3.5-3.1-3.9-6.05-4.7-10.4l-.15-1.15q7.85 1.85 9.75-6.9.45-7.6-.95-10.85-1.9-5.85-1.4-9 2.55-7.2 7.4-9.9-1.75.7-2.6-.45-1.2-2.75 4.45-6.95 4.05-2.9 9.65-3.85l-2-1.15q3.4-1.95 7.05-2.4l7.6.55.65 1.3Q6-87.8 5.4-85.7L7-84.45q-2.55 2.6-3.95 5.65l-.3 5.55q.15 4.8 1.65 9.45.7 2.15 1.65 4.25l.95 1.9 3.2-3.95-1.6 5.45 1.3-.35.75-.25q-.5 4.05.8 6.85 5.05.2 7.55-2.2v-1.6l2.1-.05q3-1.5 2.4-3.75 2.45.2 3.4-1.8-2.5 1.15-4.25 0 2.8-.35 4.05-3-2.55 2.3-5.1 1.5 3.2-4.85 8.55-7.5 5.25 1.8 7.9 5.7l1.1 2.2v.05M37.3-57.7l1.35-1.8-1.35 1.8m-34 17.8.35-.85.3-4.9q-.2-11.85-9.4-13.85l-2-.35q-7.6 2.15-9.45 6.8l-2.85 7.15q-1 2.55 1.15 6.2.7 1.2 2.4 2.1.65.35 1.5.65 6.15 2.45 11.05-.7 1.05-.7 2.05-.45 3.85-.3 4.9-1.8m-23.25-20.3q-.25.25-1.35-.75.55 1.55 1.3 1.85l.25 1.45q.35 1.2 2.2 1.2 1.8-.05 1.5-3.65-.75-2.35-3.05-1.6-1.3-.05-2.45-.85.7 1.3 1.65 2.15l-.05.2m4.55 33.4q.85.55 2.2 1.15 4.45 2.15 8.6-1.55l1.2-1.25Q.1-32.6-5.55-34.4l-1-.25q-4.45-1.2-7.15-.4-1.75-.95-2.7-.65-1.15.35-1.05 2.65 1.35 2.9.5 3.3-.95 1.1 1.05 2.6l.45.3.05.05" transform="translate(95.7 136.15)"/><path fill-rule="evenodd" d="M19-53.7q-3.9-.4-2.55-4.9 2.35-3.35 5.15-2.2l1.05 1.5.85 1.8q.6 2.25-2.4 3.75l-2.1.05M3.3-39.9q-1.05 1.5-4.9 1.8-1-.25-2.05.45-4.9 3.15-11.05.7-.85-.3-1.5-.65-1.7-.9-2.4-2.1 1.45.85 3 1.35 6.45 2.15 13.55-2.3 4.5-2.85 5.35.75M-20-59.1l.05-1.1.05-.2.8-1.3q2.3-.75 3.05 1.6.3 3.6-1.5 3.65-1.85 0-2.2-1.2L-20-59.1m5.6 27.65 2.95-.2q2.1 1.15 5.4.75-1.4 4.3-8.35 1.25.8-.7 0-1.8m8.7-5.95Q.1-41.2.35-39.25.1-41.2-5.7-37.4" transform="translate(95.7 136.15)"/><path fill-rule="evenodd" fill="#333" d="M22.65-59.3q1.75 1.15 4.25 0-.95 2-3.4 1.8l-.85-1.8-1.05-1.5q2.55.8 5.1-1.5-1.25 2.65-4.05 3m-28.1-.2q9.2 2 9.4 13.85l-.3 4.9-.35.85q-.85-3.6-5.35-.75-7.1 4.45-13.55 2.3 12.7-.15 14-5.65Q1-55.2-5.45-59.5m25.8 57.35q1.25-.45 2 2.75.1 4.3-1.25 7l-.55.85-.5.6q-1.5.7-2.8-.9l1.4-2.5.85-2.15-.85 2.15-.6-1.65q-.55-2.2 1.45-.5l.45-1.85-1-1.7q-.55-1.9 1.3-.4l.1-1.7m-.4 3.8.3-2.1-.3 2.1m-39.9-61.85-.05 1.1q-.75-.3-1.3-1.85 1.1 1 1.35.75m.85-1.5-.8 1.3q-.95-.85-1.65-2.15 1.15.8 2.45.85M-30.55-.65q-1.7-.8-3.2-.75-1.4-.1.2-1.6l2.85.05 1.35 1.1q1.25 1.75-.2 1.75l-1-.55m-.15-3.55q-.75-.65-2.15-1-1.35-.45.6-1.5 1.5.1 2.45.65l.8.65.4.65.15.25q.7 2-.7 1.65L-30.7-4.2" transform="translate(95.7 136.15)"/><path fill-rule="evenodd" fill="url(#H)" d="m34.2-26.3 2.45 2.1q-.8 2-3.4 2.9-4.2 1.5-9.55 1.35-.35 2.05-1.4 3.9-.25 4.5.35 8.1l-.45.1-1.1-1.2-1.4-.5-.5-1.3q.75-1.15 1.1-2.65.35-1.85.05-4.2-.5 5.1-2.55 4.4l-.1-.1q-5.35-5.2-13.25-6.65Q-3.9-21.6-11.5-19q-1.95.7-3.75 2.6 1.3-3.35-4.5-6l-3.15-1.65q1.3-.75 3.25-1.3l2.35.65q17.2 6.45 35.2.8 7.95 1.45 13.8-1.1l2.5-1.3m-21.5 6.7q2.8 2.25 5 6.2-2.2-3.95-5-6.2" transform="translate(95.7 136.15)"/><path fill-rule="evenodd" fill="#a95849" d="M93 29.1q-.1.75-1.25.9L91 28.6q-2.8-2.3-7.1-1.5l-.85-1.2q1.5-1.55 5.85-.05L93 29.1m-65.35 71.05q.75 4.4-1 7.5l-.95-.75h-.05.05l-.15.2.1-.2q1.3-1.95 1.05-6.75h.95m-40 1.6q2.2 3.05 3 6.55.25 1.9-.1 3.35l-2.6 1.7q3.45-3.65-.3-11.6m-46.9-.85q-.55-.95 3.15-2.1h2.85l3.7-2.35 1.2.5-4.75 2.5q-3.45-.25-3.4 1.5l-2.75-.05m-23.85-69-.3-1.15 1.35-.15v2.65l1.75 3.2q-1.3-.8-2.15-2.2l-.65-2.35M17.8-13.3h-.05l-.05-.1.1.1m-51.75 36.25-1.15.05q-.5-.35-.35-1.2 2.35-2.3 2.6-.5l-1.1 1.65M-53 101.25h-.15l.15-.15v.15" transform="translate(95.7 136.15)"/><path fill-rule="evenodd" fill="url(#I)" d="M-15.25-16.4q1.8-1.9 3.75-2.6 7.6-2.6 15.95-1.05 7.9 1.45 13.25 6.65l.05.1h.05l.5.5.9 1.95.5 1.3-.8-.25Q9.6-13.05 0-12.6q-8.55.35-17.35 3.6l-3 1.2q1.65-5.15 5.1-8.6m13.6-2q-.25-1.15-4.95-.8-2.8.05-6.35 2.45-4.2 3.2 0 3.5l6.6-1.85q4.65-1.65 4.7-3.3" transform="translate(95.7 136.15)"/><path fill-rule="evenodd" fill="url(#J)" d="M17.8-13.3q2.05.7 2.55-4.4.3 2.35-.05 4.2-.35 1.5-1.1 2.65l-.9-1.95-.5-.5" transform="translate(95.7 136.15)"/><path fill-rule="evenodd" fill="url(#K)" d="m19.7-9.55 1.4.5 1.1 1.2q.25.5-.1.95-.2.8-.8 1.3l-1 .4q-3.4-3.75-10.9-5.25l-9.8-.4q2.05-.9.4-1.75 9.6-.45 18.9 2.8l.8.25" transform="translate(95.7 136.15)"/><path fill-rule="evenodd" fill="url(#L)" d="M36.65-24.2q3.55 3.75 5.25 10.5L52.35 2.7q7.2 6 10.6 11.85 6.15 1.65 10.95 5 4.55 1.85 7.5 4.55l1.65 1.8.85 1.2.65 1.1q1.5.85 2.15 2.7l-.15 1.25-1.55-2.6q-1.8-1.5-6.65-1.5-2.2.75-4.35 2.6 1.7-3.4 6.45-4.25l-9.1-5.8q-6.2-4.05-21.65-2.7 1.75-2.6 7.85-3.9-1.35-1.15-4.95 0 1-5.25-2.45-11.95l-9.9-14.25q-6.75-3.9-7-9.1 2.6-.9 3.4-2.9m45.5 51.7 1.6.35.8.35-.8-.35-1.6-.35m-23.1-13.8 3.9.85-3.9-.85" transform="translate(95.7 136.15)"/><path fill-rule="evenodd" fill="url(#M)" d="M22.65-7.95q-.6-3.6-.35-8.1 1.05-1.85 1.4-3.9 5.35.15 9.55-1.35.25 5.2 7 9.1l9.9 14.25Q53.6 8.75 52.6 14q3.6-1.15 4.95 0-6.1 1.3-7.85 3.9 15.45-1.35 21.65 2.7l9.1 5.8q-4.75.85-6.45 4.25 2.15-1.85 4.35-2.6 4.85 0 6.65 1.5l1.55 2.6q-.2.65-.75.9l-1-1.8Q82.3 29.4 78.25 30q-4.4 2.6-4.3 6.45l1.45 2.45-2.35-1.05q-1.2-1-1.35-2.65-2.95.7-4.8 1.65-2 1.2-5.05-.5l-.4-2.3q-.5-2.9-4.05-3.5-5.05-.65-10.85 2.85 5.55-2.2 10-1.5 2.05.7 3.9 3.35 1.4 1.95 1.2 3.85-.45 1.3-1.65 1.7l-.35-2.5q-.8-3.35-4.5-3.25H48.6q-4.65 1.25-6 4.1-1.3 2.3.75 4.95-2.45-1.55-2.1-4.15l.35-1.65.2-.6q.65-1.7 1.95-3.1l1.8-1.6q-3.9-1.2-3.3-8.3l1-1.65q-8.2-5.15-11.15-15.4L24.75-1.7q-1.45-2.65-2.1-6.25m49.4 40.5q-.45 1.5-.35 2.65-.1-1.15.35-2.65" transform="translate(95.7 136.15)"/><path fill-rule="evenodd" fill="url(#N)" d="m22.2-7.85.45-.1q.65 3.6 2.1 6.25l7.35 9.35q2.95 10.25 11.15 15.4l-1 1.65q-1.3 2.4-1.55 5.55-6.8-4.9-9.7-16l-.35-1.45-.25-1L22.35.6q-.75-3.2-2-2.75v-.05l-.05-3 1-.4q.6-.5.8-1.3.35-.45.1-.95" transform="translate(95.7 136.15)"/><path fill-rule="evenodd" fill="url(#O)" d="m20.3-5.2.05 3v.05l-.1 1.7q-1.85-1.5-1.3.4l1 1.7-.45 1.85q-2-1.7-1.45.5l.6 1.65-1.4 2.5q-4.1 6.6-17.5 7.75-5.65.2-9.85-1.2-12.15-7.65-10.45-20.3 2.3-1.35 5-2.25L-11.5-9q5.6-1.55 11.1-1.85l9.8.4q7.5 1.5 10.9 5.25" transform="translate(95.7 136.15)"/><path fill-rule="evenodd" fill="url(#P)" d="M81.4 24.1q6.95-.9 10.95 3.4.65 1 .65 1.6l-4.1-3.25q-4.35-1.5-5.85.05l-1.65-1.8" transform="translate(95.7 136.15)"/><path fill-rule="evenodd" fill="url(#Q)" d="m93.95 45.75-.7.65q-2.05-5.8-6-8.7l-.9-3.3-.55-1.35q.55-.25.75-.9l.15-1.25q-.65-1.85-2.15-2.7l-.65-1.1q4.3-.8 7.1 1.5l.75 1.4q-2.55-2.1-2.25.85l1 2.9q1.85 5.35 2.85 3.15 1.8 5.35.6 8.85" transform="translate(95.7 136.15)"/><path fill-rule="evenodd" fill="url(#R)" d="m79.9 52.55-1.15.7q.65-3 0-5.6l-.9-3-1.95-4.75-.5-1-1.45-2.45q-.1-3.85 4.3-6.45 4.05-.6 6.55 1.25l1 1.8.55 1.35q-3.8-4.05-5.7-2.95-1.2 3.9 0 7.8 1.1 3.25 4 2.3-.35 5.9-2.85 9.15l-1.9 1.85" transform="translate(95.7 136.15)"/><path fill-rule="evenodd" fill="url(#S)" d="M91.75 30q4.85 9.35 2.85 15l-.65.75q1.2-3.5-.6-8.85-1 2.2-2.85-3.15l-1-2.9q-.3-2.95 2.25-.85" transform="translate(95.7 136.15)"/><path fill-rule="evenodd" fill="url(#T)" d="m87.25 37.7.15 2.05Q86.5 46.8 82.1 51l-.3-.3q2.5-3.25 2.85-9.15-2.9.95-4-2.3-1.2-3.9 0-7.8 1.9-1.1 5.7 2.95l.9 3.3" transform="translate(95.7 136.15)"/><path fill-rule="evenodd" fill="#a76203" d="m82.1 51-1 .85-1.2.7 1.9-1.85.3.3m-165.55-2.2-.35.5-.65-1.95.65-.05.35 1.5" transform="translate(95.7 136.15)"/><path fill-rule="evenodd" fill="url(#U)" d="m63.3 57.65-1.2.3-2.15-.15Q48.7 56.3 44.7 44.75 43 39.1 48.5 36.8q3.95-1.7 6.55-1.75h.1q3.7-.1 4.5 3.25l.35 2.5.1 1.1q-3.05-6.75-5.75-1.35-1.75 8.95 4.85 9.7.3 4 4.1 7.4" transform="translate(95.7 136.15)"/><path fill-rule="evenodd" fill="#934d40" d="M40.7 30.25q.25-3.15 1.55-5.55-.6 7.1 3.3 8.3l-1.8 1.6q-1.3 1.4-1.95 3.1l-1.1-3.35q-.15-2.4 0-4.1m14.35 4.8q-2.6.05-6.55 1.75-5.5 2.3-3.8 7.95l-1.35-.65q-2.05-2.65-.75-4.95 1.35-2.85 6-4.1h6.45m-75.2-130.1.45 1.35q-4.05-.45-5.8 1.05-2.05-1.2-6.7.4 2.25-2.05 4.85-2.75 4.75-1.5 7.2-.05m-54.4 121.3q1.65 2.75.3 5.2l1.55-1.5q.2 2-2.45 3.15-3.75-.6-3.6-2.5 2.05.45 3.25 0 1.2-2.45.95-4.35" transform="translate(95.7 136.15)"/><path fill-rule="evenodd" fill="url(#V)" d="M-58.7 9.9q.05-.5.9-1.5 1.5 1.05 3.35 1.95l3 .75q16.3 3.5 23.35-9.6l6.65.2q2.4 10.05 11.35 13 4.2 1.4 9.85 1.2 13.4-1.15 17.5-7.75 1.3 1.6 2.8.9l.5-.6q2 .5 3.9 1.35Q28 11.4 31 14.25q2.9 11.1 9.7 16-.15 1.7 0 4.1h-.85l-1-.6-7-2.7-3.1-4.05q-3.1-5.45-4.05-11.45L20 13.2q-10.7 15.75-32.15 7-10.4-6.45-11.5-15.25h-2.85l-3.65 6.1q-4.6 5.35-15.45 6.7-9.7-.35-13.1-5.85v-2" transform="translate(95.7 136.15)"/><path fill-rule="evenodd" fill="url(#W)" d="M64.1 64q-5.8-1.75-10.15-4.05-2.7-1.45-4.9-3.1l.6 5.45q-1-4.15-3.65-5.55l1.2 3.65q-5.05-7.8-10.15-11.85l1.35-2.5Q34.35 45 33.85 41.5L35 38q-.55-1.9-2.9-4.8 10.15 3.1-4.25-3.55l4 1.4 7 2.7 1 .6h.85l1.1 3.35-.2.6-.35 1.65q-.35 2.6 2.1 4.15l1.35.65q4 11.55 15.25 13.05l2.65 3.05-3.7-2.05 5.2 5.2m-17.95-9.7q1.3 1.3 2.9 2.55-1.6-1.25-2.9-2.55" transform="translate(95.7 136.15)"/><path fill-rule="evenodd" fill="url(#X)" d="M60.25 44.05q1 9.4 4.25 13.25l-1.2.35q-3.8-3.4-4.1-7.4-6.6-.75-4.85-9.7 2.7-5.4 5.75 1.35l.15 2.15" transform="translate(95.7 136.15)"/><path fill-rule="evenodd" fill="url(#Y)" d="M73.9 41.35Q69.75 43 66.1 42.5q-2.5 1.7-5.85 1.55l-.15-2.15-.1-1.1q1.2-.4 1.65-1.7.35-1.05.2-2.75 3.05 1.7 5.05.5 1.85-.95 4.8-1.65.15 1.65 1.35 2.65l2.35 1.05.5 1-.95.95-1.05.5m-6.75.25-1.05.9 1.05-.9" transform="translate(95.7 136.15)"/><path fill-rule="evenodd" fill="url(#Z)" d="M77.85 44.65Q75.5 47.9 72 49.05h-.9q2.65-3.1 3.85-8.2l.95-.95 1.95 4.75" transform="translate(95.7 136.15)"/><path fill-rule="evenodd" fill="url(#aa)" d="M71.1 49.05h-.85q2.35-3.35 3.65-7.7l1.05-.5q-1.2 5.1-3.85 8.2" transform="translate(95.7 136.15)"/><path fill-rule="evenodd" fill="url(#ab)" d="m22.35.6 8.05 11.2.25 1Q27.1 9.6 21.1 7.6q1.35-2.7 1.25-7" transform="translate(95.7 136.15)"/><path fill-rule="evenodd" fill="#344422" d="m30.65 12.8.35 1.45q-3-2.85-6.55-4.45-1.9-.85-3.9-1.35l.55-.85q6 2 9.55 5.2m19 49.55v-.05.05M-28.1 1.5l-1.45-.3-.5-.55 8.45.25.15.8-6.65-.2m-.35-6.25v.25l-.15-.25h.15M-52 80.6l18.75-.45-.35 1.35q-8.55-.3-17.1-.15h-1.5l.2-.75" transform="translate(95.7 136.15)"/><path fill-rule="evenodd" fill="url(#ac)" d="M-84.45 47.35q-5.2.8-8.4-1.6l3.65-.75 9.05-3.75 6.95-5.1 6.35-6.25q6.05-2.1 11.5-2.55v5.05l1.35-5.25q3.85-1.5 5.6-1.25l1.9.25 2.45 3.55-1.5-3.65q4.15-1.6 7.85-1.1l.8 1.75.1-1.85q1.7-.75 3.35-.3v8l.55-8.05q2.75-1.4 4.85-.2l.7 3.75v-3.8q5.5-1.1 9.1.2l-2.05 10.2-4 10q.15-2.3.15-4.6l2.55-14.5-2.9 8.8-.45-3.35-3.1 6.15q.55-4.4-.6-9.4-.55 8.1-2.9 14.4l-1.35-5.3q-.55 9.3-2.9 15.7l2.05-3.95Q-36.7 61.55-44.8 70.45l-2.05 1.75V70q4.65-7.15 7.55-15.15 1.75-5.05 2.85-10.4l.7-4.25q1.8-5.95.65-15.5l-1.45 9.5-1.75-8.05q.35 6.25-1.05 10.6-1.9 5.75-6.9 10.8l4.55-2.5q-4.8 7.25-12.75 13.35l2.05-5.55q-5 8.55-11.65 13.7 3.5-4.5 5.55-9.6l1.25-3.65q.95-3.4 1.3-7.1l.2-3.55V36.1q-2.3 5.8-6.4 10.5l-1.95 2.1q-2.2 2.45-4.6 5.9l2.35-5q-4.35 3.35-7.15 10.25-1.45 3.45-1.35 6.9-.55-1.3-.75-3-.4-2.8 0-6.65.3-2.65 2-6.95 4.15-8 10.05-15.1-4.55 5.15-6.6 5.45 4.95-4.85 7.95-10.55l-2.6 1-3.9 4.4 2.1-3.7-1.8.65q-2.25 4.55-11.7 10 4.45-.85 8.35-3.4-5.3 5.5-18.9 6.9 1.2.95 6.2 1.55M32.1 33.2q2.35 2.9 2.9 4.8l-1.15 3.5q.5 3.5 4.55 4.55l-1.35 2.5q5.1 4.05 10.15 11.85L46 56.75q2.65 1.4 3.65 5.55v.05Q50 68.2 49.2 72.7q.3-6.1-8.1-17.6l4.45 8.85Q42.25 59 34.4 52.35l-6.5-4.75-3.3-4.05 2.8 5-5.15-6.15q3 5.5 2.65 8.8l-4.4-6.6q2.75 12.65.15 20.8l2.75-5.7q-1.15 9.45-4.8 13.65l3.5-2.95q-1.65 6.45-7.55 10.8l.65-1.9q1.6-6.95 1-17.1-.15 10.25-2.35 18.1l-1.3 1q1.55-7 1.55-14.25-.05-5.9-1.05-11.95l-.5-2.8-.4-2.35-3.7 3.75 3.3-6.05-.8-4.65-2.05 5.75 1-12.35L8 38.3v-4.4Q3.7 40.15.95 51.4l2.65-3.85Q.05 54.75-.5 62.5l-1.3-3.95q-2.05 10.4-1.35 16.2l-.9.05Q-4.9 58.6 0 45.3q.8-2.2 1.75-4.3l2.3-5.3 1.75-3.5q1.85-3.65 3-5 6.1 0 10.55 2.05 3.2 4.85 4 9.35-.35-3.85-2.55-9 1.7-.7 4.05 1.1 3.6 3.15 5.35 5.75-.6-2.45-3.1-5.05 2.6.85 5 1.8M7.35 27v-.05h.05l-.05.05-2.1 5.55-6.6 7.55 2.65-8.65-7.8 9.65q-2.25 2.3-2.2 0l1.9-4.85-7 8.5q-1.85 2.35-2.5 0l3.05-13.15-4.4 10.85.75-8.55-3.1 10.3q-2.05 9.55-2.05 14.5l1.8-4.55q-1.55 11.15-1.55 20.5-2.5-11.55-.7-23.45l1.2-6.4 1-5.45v-4.7q1.65-5.85 4.15-10 1.95-.95 1.45.15-1.75 3.05-2.25 6.55 1.3-3.4 3.25-6.45l4.65-.1q3.85-.2 7.55 1.1-4 5.5-6.35 10.35Q-4.5 30.4-.45 26q4.9-.2 6.4.75L1.9 32.5 7.35 27m7.3 17.9 2.05 8.05v-5.3l-3.25-11 1.2 8.25M19 58.65l-1.3-5.85v10.55l1.3-4.7M-7.25 30.1l.3-2.2-2.2 2.8-1.8 5.4 3.7-6M-68.8 45.2q-1.85 4.35-2.2 6.45 3.3-8.2 8.35-14.1-2.7 1.45-6.15 7.65m25.05-9.1q.75-3.2-2.2-8.05 1.75 9.8-2.05 16.7 3-2.55 4.25-8.65m-12-5.2-2.2 2.8-1.8 5.4 3.7-6 .3-2.2m3.35 3.6q.25 6.3-.85 11.2l-1.65 7.55 2.5-8.05q1-5.1 0-10.7" transform="translate(95.7 136.15)"/><path fill-rule="evenodd" fill="url(#ad)" d="m-92.85 45.75-.35-.25q4.35-1 8.25-2.65l.6-.25 4.7-2.5 3.6-2.7 1.8-1.25 3.15-3.05 2.35-2.7 1.15-1.35Q-50.5 24.1-35.1 23l1.15-.05 2.7-.15 16.65.5q23.3 2 34.9 4.4 4.3.85 7 1.8l.55.15q14.4 6.65 4.25 3.55-2.4-.95-5-1.8 2.5 2.6 3.1 5.05-1.75-2.6-5.35-5.75-2.35-1.8-4.05-1.1 2.2 5.15 2.55 9-.8-4.5-4-9.35Q14.9 27.2 8.8 27.2q-1.15 1.35-3 5l-.25-.05-.3.4L7.35 27 1.9 32.5l4.05-5.75q-1.5-.95-6.4-.75-4.05 4.4-7.4 10.25Q-5.5 31.4-1.5 25.9q-3.7-1.3-7.55-1.1l-4.65.1q-1.95 3.05-3.25 6.45.5-3.5 2.25-6.55.5-1.1-1.45-.15-2.5 4.15-4.15 10l2.05-10.2q-3.6-1.3-9.1-.2v3.8l-.7-3.75q-2.1-1.2-4.85.2l-.55 8.05v-8q-1.65-.45-3.35.3l-.1 1.85-.8-1.75q-3.7-.5-7.85 1.1l1.5 3.65-2.45-3.55-1.9-.25q-1.75-.25-5.6 1.25l-1.35 5.25v-5.05q-5.45.45-11.5 2.55l-6.35 6.25-6.95 5.1L-89.2 45l-3.65.75M7.35 27l.05-.05h-.05V27" transform="translate(95.7 136.15)"/><path fill-rule="evenodd" fill="#e9bcc0" d="m5.55 32.15.25.05-1.75 3.5 1.5-3.55" transform="translate(95.7 136.15)"/><path fill-rule="evenodd" fill="url(#ae)" d="m5.25 32.55.3-.4-1.5 3.55-2.3 5.3Q.8 43.1 0 45.3q-6 4.05-10.5 9.55-7.45 9.1-10.8 22.1l-.5-2.3q0-9.35 1.55-20.5l-1.8 4.55q0-4.95 2.05-14.5l3.1-10.3-.75 8.55 4.4-10.85-3.05 13.15q.65 2.35 2.5 0l7-8.5-1.9 4.85q-.05 2.3 2.2 0l7.8-9.65-2.65 8.65 6.6-7.55" transform="translate(95.7 136.15)"/><path fill-rule="evenodd" fill="url(#af)" d="M-3.15 74.75q-.7-5.8 1.35-16.2l1.3 3.95q.55-7.75 4.1-14.95L.95 51.4Q3.7 40.15 8 33.9v4.4l1.9-1.9-1 12.35L10.95 43l.8 4.65-3.3 6.05 3.7-3.75.4 2.35.5 2.8q-3.6 3.75-6.75 8.4-4.6 6.85-8.2 15.6-.5-3.65-1.25-4.35m9.85-23.8-.45-2.8-2.5 8.2 2.95-5.4" transform="translate(95.7 136.15)"/><path fill-rule="evenodd" fill="url(#ag)" d="m14.65 44.9-1.2-8.25 3.25 11v5.3l-2.05-8.05" transform="translate(95.7 136.15)"/><path fill-rule="evenodd" fill="url(#ah)" d="m31.85 31.05-4-1.4-.55-.15q-2.7-.95-7-1.8-11.6-2.4-34.9-4.4l-16.65-.5q1.75-2.8.45-9.85-.05 3.15-.75 5.35-2.65.55-3.5 2.35l-.4 1.15q-.15.85.35 1.2-15.4 1.1-32.5 6.05.5-3.45 3.6-5.3l.2 1.7q.25-9.05 5.1-13.55 3.4 5.5 13.1 5.85 10.85-1.35 15.45-6.7l3.65-6.1h2.85q1.1 8.8 11.5 15.25Q9.3 28.95 20 13.2l4.7 2.35q.95 6 4.05 11.45l3.1 4.05" transform="translate(95.7 136.15)"/><path fill-rule="evenodd" fill="url(#ai)" d="M14.55 81.2q5.9-4.35 7.55-10.8l-3.5 2.95q3.65-4.2 4.8-13.65l-2.75 5.7q2.6-8.15-.15-20.8l4.4 6.6q.35-3.3-2.65-8.8l5.15 6.15-2.8-5 3.3 4.05 6.5 4.75q7.85 6.65 11.15 11.6L41.1 55.1q8.4 11.5 8.1 17.6l-.85 3.3q-2.3-5.9-6.2-11.1-4.35-5.85-10.7-10.8 1.6 3.7 0 8.65l-3.8 6.55q-5.5 8.45-12.9 15.05l-1.9 1.6 1.7-4.75M26.6 56.1 24 67.75l3.4-7.6-.8-4.05" transform="translate(95.7 136.15)"/><path fill-rule="evenodd" fill="url(#aj)" d="m27.65 69.3 3.8-6.55q1.6-4.95 0-8.65 6.35 4.95 10.7 10.8l5.35 16.95-1.4.45q-6.5 2.15-12.65 4.95l-.85-2.65 12.8-3.9-11.45-12.35-4.15 7.5-2.15-6.55" transform="translate(95.7 136.15)"/><path fill-rule="evenodd" fill="url(#ak)" d="m26.6 56.1.8 4.05-3.4 7.6 2.6-11.65" transform="translate(95.7 136.15)"/><path fill-rule="evenodd" fill="url(#al)" d="m19 58.65-1.3 4.7V52.8l1.3 5.85" transform="translate(95.7 136.15)"/><path fill-rule="evenodd" fill="#d280ad" d="m6.7 50.95-2.95 5.4 2.5-8.2.45 2.8" transform="translate(95.7 136.15)"/><path fill-rule="evenodd" fill="url(#am)" d="M13.05 55.1q1 6.05 1.05 11.95 0 7.25-1.55 14.25l1.3-1 1.35-1-.65 1.9-1.7 4.75 1.9-1.6q7.4-6.6 12.9-15.05l2.15 6.55-.5.85-8.25 7.95 9.65.5 1.9-.55.85 2.65-1.1.5q-6.65 3.15-12.9 7.05l-.65.4.7-.3.7-.3 11.3-3.5-4.2 7.95-18.8.35-2-5.7 2 .1q1.95-.8-2-2 1.1-2.65-1.2-6.7l.1-1.4 5.05.7 1.05-3.55-1.45.65 1.55-3.1 1.25-10.45-7 5.25.45-9.7q3.15-4.65 6.75-8.4" transform="translate(95.7 136.15)"/><path fill-rule="evenodd" fill="url(#an)" d="M0 45.3q-4.9 13.3-4.05 29.5l.9-.05q.75.7 1.25 4.35 3.6-8.75 8.2-15.6l-.45 9.7-5.8 9.95 5.35.55-.1 1.4q2.3 4.05 1.2 6.7l-17.75-2.45q2.9-1.7-.15-6.4l-1.9-.2.1-1.05 11.25 1.2q-1.15-4.7-2.8-4.65L-5.7 60.2l-6.05 7.2 1.25-12.55Q-6 49.35 0 45.3" transform="translate(95.7 136.15)"/><path fill-rule="evenodd" fill="url(#ao)" d="m5.85 73.2 7-5.25L11.6 78.4l-1.55 3.1 1.45-.65-1.05 3.55-5.05-.7.45-10.5" transform="translate(95.7 136.15)"/><path fill-rule="evenodd" fill="#c468a8" d="M13.85 80.3q2.2-7.85 2.35-18.1.6 10.15-1 17.1l-1.35 1" transform="translate(95.7 136.15)"/><path fill-rule="evenodd" fill="url(#ap)" d="m5.4 83.7-5.35-.55 5.8-9.95-.45 10.5" transform="translate(95.7 136.15)"/><path fill-rule="evenodd" fill="url(#aq)" d="M6.5 91.8q3.95 1.2 2 2l-2-.1v-1.9" transform="translate(95.7 136.15)"/><path fill-rule="evenodd" fill="url(#ar)" d="M6.5 91.8v1.9l-14.15-1.4h-4.4l-1.45-3.25 2.25.3L6.5 91.8" transform="translate(95.7 136.15)"/><path fill-rule="evenodd" fill="url(#as)" d="m20.2 94.6-.7.3-.05-.1q6.25-3.9 12.9-7.05l-.05 1.8q-6.05 2.25-12.1 5.05" transform="translate(95.7 136.15)"/><path fill-rule="evenodd" fill="#728a26" d="m19.5 94.9-.7.3.65-.4.05.1m-98-33.05 1.3-4.2 1.6-.55q-.4 3.85 0 6.65l-.8 1.55v-4.4l-2.1.95" transform="translate(95.7 136.15)"/><path fill-rule="evenodd" fill="url(#at)" d="m32.6 84.6-1.9.55-9.65-.5 8.25-7.95.5-.85 2.8 8.75" transform="translate(95.7 136.15)"/><path fill-rule="evenodd" fill="url(#au)" d="M33.45 87.25q6.15-2.8 12.65-4.95l-.8 3q-6.45 1.8-13 4.25l.05-1.8 1.1-.5" transform="translate(95.7 136.15)"/><path fill-rule="evenodd" fill="url(#av)" d="m31.5 91.1.8-1.55q6.55-2.45 13-4.25l2-.55-.65 1.7Q39.05 88 31.5 91.1" transform="translate(95.7 136.15)"/><path fill-rule="evenodd" fill="url(#aw)" d="m31.5 91.1-11.3 3.5q6.05-2.8 12.1-5.05l-.8 1.55" transform="translate(95.7 136.15)"/><path fill-rule="evenodd" fill="url(#ax)" d="m29.8 75.85 4.15-7.5L45.4 80.7l-12.8 3.9-2.8-8.75" transform="translate(95.7 136.15)"/><path fill-rule="evenodd" fill="url(#ay)" d="M62.1 57.95q2.3 4.15 7.95 7.6L64.1 64l-5.2-5.2 3.7 2.05-2.65-3.05 2.15.15" transform="translate(95.7 136.15)"/><path fill-rule="evenodd" fill="url(#az)" d="M49.2 72.7q.8-4.5.45-10.35l6.35 5.2 1.6 3-4.55-1.9L50.5 79.1l6.75-2.15H61q-.5 6.75-3.7 10.65-3.35 0-8.35 1.85l6.15-4.85-10.4 7.2 1.95-5.35 4.85-1.5q3.3-1.2 1.1-1.5l-5.3 1.3-2 .55.8-3 1.4-.45-5.35-16.95q3.9 5.2 6.2 11.1l.85-3.3" transform="translate(95.7 136.15)"/><path fill-rule="evenodd" fill="url(#aA)" d="m53.95 59.95 2.25 5.45-1.2.25 1 1.9-6.35-5.2v-.05l-.6-5.45q2.2 1.65 4.9 3.1" transform="translate(95.7 136.15)"/><path fill-rule="evenodd" fill="#3a602b" d="m56.2 65.4 2 3.95-2.2-1.8-1-1.9 1.2-.25M44.15 93.2l-8.45 6.65-1.35.05-6.7.25h-.95l.6-1.1 8.4-.15 8.95-7.05-.5 1.35m-50.75 6.9-2-.1-.5-.6H8.5l.35.95-15.45-.25m-55.35-8.5H-72.1l-.1-.3 7.75-.7.45.2 2.05.8m34.3-97.25 4.25.3.5.2.7.5v.8q-2.05-1.25-6.25-.9h-.15l-.4-.65 1.35-.25m5.6 3.95.15 1.05q-1.05-1.6-5-2.8h1.85q2.2.35 3 1.75m-19.9 99.6-.75-1.15L-26.75 98l.65 1.15-15.85-1.25" transform="translate(95.7 136.15)"/><path fill-rule="evenodd" fill="url(#aB)" d="M58.2 69.35q2 3.75 4.5 7.3-.8 7.8-5.3 11.9.25-.35-.1-.95 3.2-3.9 3.7-10.65h-3.75L50.5 79.1l2.55-10.45 4.55 1.9-1.6-3 2.2 1.8" transform="translate(95.7 136.15)"/><path fill-rule="evenodd" fill="url(#aC)" d="m46.65 86.45.65-1.7 5.3-1.3q2.2.3-1.1 1.5l-4.85 1.5" transform="translate(95.7 136.15)"/><path fill-rule="evenodd" fill="#98b933" d="M57.4 88.55Q52.3 88.4 46 91.8l-1.85 1.4.5-1.35.05-.05 10.4-7.2-6.15 4.85q5-1.85 8.35-1.85.35.6.1.95M-8.6 100l-5.35-.2-12.15-.65-.65-1.15 17.65 1.4.5.6m-40.95-3.55L-61 92l.05-.05 13.55 4.4 4.7.4.75 1.15-5.2-.5-1.2-.45-1.2-.5M8.5 99.4l18.8-.35-.6 1.1-17.85.2-.35-.95m40.45-9.95L46 91.8l2.95-2.35m-99.2-4.15-5.65-1.85 4.85.65.8 1.2" transform="translate(95.7 136.15)"/><path fill-rule="evenodd" fill="url(#aD)" d="m27.3 99.05 4.2-7.95q7.55-3.1 15.15-4.65L44.7 91.8l-.05.05-8.95 7.05-8.4.15" transform="translate(95.7 136.15)"/><path fill-rule="evenodd" fill="url(#aE)" d="M-6.45 120.5q-2.4-1.4-.45-5.05 1.65-4.25 4.15-6.65-2.6-2.6-3.85-8.7l15.45.25 17.85-.2q.25 4.8-1.05 6.75l-.9-.6.8.8q2.4 2.7 2.6 5.35L25 113.6q-1.9.25-2.85 1.45-1.6-1.95-5.85-3-7.3-.8-12.3 3.55-4.65-2.55-9.05.6v1.9l-1.4 2.4m3.7-11.7q1.3-1.25 2.85-2-1.55.75-2.85 2" transform="translate(95.7 136.15)"/><path fill-rule="evenodd" fill="url(#aF)" d="M26.65 107.65q4.65 3.6 6.75 8.6.45 2.3-1.1 3.15.35-6.2-7.3-5.8l3.15-1.15q-.2-2.65-2.6-5.35l.15-.2.95.75" transform="translate(95.7 136.15)"/><path fill-rule="evenodd" fill="url(#aG)" d="M21.7 127.3q-.6 1.9-1.4 3.4-2.6 4.6-7.45 4.95-2.85-1-4.65-3.7-1.45-2.2-2.2-5.45-.55-2.1-.75-4.65l-.05-.65q.1-.65.45-1.25 1.15-2.2 5.55-3.7 7.9-.55 10.5 3.1.8 1.15 1.1 2.7l-.2 1.35-.9 3.9m-14.15 1.9q1.7 3.2 5.6 4.25 4.4.95 7.45-5.05l-.35-2.2q-1.4-4.85-5.8-6.35-4.25-.2-6.45 5.45-.7 1.85-.45 3.9" transform="translate(95.7 136.15)"/><path fill-rule="evenodd" fill="url(#aH)" d="M32.45 129.4q-1 1.05-2.35 1.6h-3.35q-2.25-.2-5.05-3.7l.9-3.9.2-1.35q-.3-1.55-1.1-2.7 6.7-6.2 10.6.05l-.25.25q-1.7-1.3-4.2-.55-1.75.45-2.65 4.65-.2 2.5 1.5 4.7 1.7 2.15 5.75.95" transform="translate(95.7 136.15)"/><path fill-rule="evenodd" fill="url(#aI)" d="M25 113.6q7.65-.4 7.3 5.8-3.9-6.25-10.6-.05-2.6-3.65-10.5-3.1-4.4 1.5-5.55 3.7-4.3-5.4-10.05-2.7l-.65.85v-1.9q4.4-3.15 9.05-.6 5-4.35 12.3-3.55 4.25 1.05 5.85 3 .95-1.2 2.85-1.45" transform="translate(95.7 136.15)"/><path fill-rule="evenodd" fill="#840" d="m32.3 119.4.7 1.2-.95-.95.25-.25m-98.2-8.8q-1.35 1.1-2.65-.85v-1.1l.35-.65q-.05.85 1.95 1.15 3.5-2.15 5.95-5.05 1.55-2.7-.45-2.9l1.5-.3 2.75.05q1.7.45 1.25 2.55l-1.3.4q-4.05 1.4-7.2 4.1-1.55 1.3-2.15 2.6M-82.25 47l-1.2 1.8-.35-1.5 1.55-.3" transform="translate(95.7 136.15)"/><path fill-rule="evenodd" fill="url(#aJ)" d="m33 120.6 1.55 3.75q-.45 3.25-2.1 5.05-4.05 1.2-5.75-.95-1.7-2.2-1.5-4.7.9-4.2 2.65-4.65 2.5-.75 4.2.55l.95.95" transform="translate(95.7 136.15)"/><path fill-rule="evenodd" fill="url(#aK)" d="M6 126.5q-2.15 6.3-4.35 7.35l-8.15.35q-1.5-1.65-1.95-3.25.85 1.35 3.9 1.9 3.85-.15 5.2-1.3 2.65-2.2 3-6.15.3-3.95-4.15-6.35-2.25-1.2-6.35 2.4l.4-.95 1.4-2.4.65-.85q5.75-2.7 10.05 2.7-.35.6-.45 1.25l.05.65q.2 2.55.75 4.65" transform="translate(95.7 136.15)"/><path fill-rule="evenodd" fill="url(#aL)" d="M7.55 129.2q-.25-2.05.45-3.9 2.2-5.65 6.45-5.45 4.4 1.5 5.8 6.35l.35 2.2q-3.05 6-7.45 5.05-3.9-1.05-5.6-4.25" transform="translate(95.7 136.15)"/><path fill-rule="evenodd" fill="url(#aM)" d="M-8.45 130.95q-.35-1.25-.1-2.45.4-4.05 1.7-7.05 4.1-3.6 6.35-2.4 4.45 2.4 4.15 6.35-.35 3.95-3 6.15-1.35 1.15-5.2 1.3-3.05-.55-3.9-1.9" transform="translate(95.7 136.15)"/><path fill-rule="evenodd" fill="url(#aN)" d="m6.5 93.7 2 5.7H-9.1l-2.95-7.1h4.4L6.5 93.7" transform="translate(95.7 136.15)"/><path fill-rule="evenodd" fill="#8e493e" d="M-36.95-99.8q5.2-2.4 9.9-1.1 3.4 1.05 5.2 3.2l-4.5.35q-4.65-2.4-13.65 0 .8-1.5 3.05-2.45m17.7 8.1.1 2.55-4.15 4.4q-1.9-.05-2.9-.55 1 .5 2.9.55l-2.8 4.1q-3.25 0-2.35-2.55.4-1.8 2.25-2.1-1.2-.55-1.15-1.75 1.05-1.95 3-2.1-1.1-1.25-.3-2.55 2.7-1.75 5.4 0m-15 79.45q2.95-.3 1.6-5.1 4.7 5.3 3.65 8.05-1.75-1.55-5.25-2.95M-49.3 100.5q3 1.15 2.2 2.9-1.85-2.35-5.9-2.15v-.15q2.05-1.35 3.7-.6" transform="translate(95.7 136.15)"/><path fill-rule="evenodd" fill="url(#aO)" d="M-29.05-71.35q-10 .75-12.45-6.1-1.8-.9-3-2.5-2.6-8.2.4-16.75-2.25-3.25 7.85-6.25-2.35-3.65 7.75-3.6 10.1 0 15.75 9.75l-1.2.4q-4.1 1.75.85 2.3-3.4 2.45-6.05 4.95l-.1-2.55-.45-2-.45-1.35-1.7-2.65q-1.8-2.15-5.2-3.2-4.7-1.3-9.9 1.1-2.25.95-3.05 2.45 9-2.4 13.65 0-5.4 1.2-7.05 6.3l1.2-1.2q4.65-1.6 6.7-.4l-.95 1.15q-.25 1.35 2.1 2.35-1.95.15-3 2.1-.05 1.2 1.15 1.75-1.85.3-2.25 2.1-.9 2.55 2.35 2.55-2.7 4.6-2.95 9.3" transform="translate(95.7 136.15)"/><path fill-rule="evenodd" fill="url(#aP)" d="M-44.5-79.95q-3.05-4.1-2.15-12.7-2.6 2.95-1.75-1.75 2.1-11.15 19.15-17.85.75-3.95 8.9-1.15 12.9 5.65 16.05 15.65l-8.45.95q-5.65-9.75-15.75-9.75-10.1-.05-7.75 3.6-10.1 3-7.85 6.25-3 8.55-.4 16.75" transform="translate(95.7 136.15)"/><path fill-rule="evenodd" fill="#fb5e8c" d="m-10.25-114.1-.3-.25.45.1-.15.15" transform="translate(95.7 136.15)"/><path fill-rule="evenodd" fill="url(#aQ)" d="m-26.35-97.35 4.5-.35 1.7 2.65q-2.45-1.45-7.2.05-2.6.7-4.85 2.75l-1.2 1.2q1.65-5.1 7.05-6.3" transform="translate(95.7 136.15)"/><path fill-rule="evenodd" fill="url(#aR)" d="M-18.6-39.7q-2.15-3.65-1.15-6.2l2.85-7.15q1.85-4.65 9.45-6.8l2 .35Q1-55.2-1.6-44q-1.3 5.5-14 5.65-1.55-.5-3-1.35" transform="translate(95.7 136.15)"/><path fill-rule="evenodd" fill="url(#aS)" d="M-51.45 11.1q-5.2-2.1-8.45-6.05-4.9-5.25-3.9-15.3.3-2.9 1.6-4.95 8.55.55 16.1 2.3 8.2 1.9 15.15 5.3 1.35.8 1.15 1.55-.95-.55-2.45-.65-1.95 1.05-.6 1.5 1.4.35 2.15 1-.5.35 0 1.25L-33.55-3q-1.6 1.5-.2 1.6 1.5-.05 3.2.75-.05.65.5 1.3l.5.55 1.45.3q-7.05 13.1-23.35 9.6" transform="translate(95.7 136.15)"/><path fill-rule="evenodd" fill="url(#aT)" d="M-57.8 8.4Q-68.45.8-63.6-15.3l1.4.1q-1.3 2.05-1.6 4.95-1 10.05 3.9 15.3 3.25 3.95 8.45 6.05l-3-.75q-1.85-.9-3.35-1.95" transform="translate(95.7 136.15)"/><path fill-rule="evenodd" fill="url(#aU)" d="M-63.6-15.3q-1.15-.25-.95-1.5.2-1.05 1.95-1.35l3.5.45 11.6 1.9 5.4 1.15q3 1.95-4 1.75-7.55-1.75-16.1-2.3l-1.4-.1" transform="translate(95.7 136.15)"/><path fill-rule="evenodd" fill="url(#aV)" d="M-59.1-17.7q15.25-12.25 28.8-.8l.2.15.6.55.9.7-.85 1.6q-4.85-6.35-13.65-7.25 5.3 5-4.4 6.95l-11.6-1.9" transform="translate(95.7 136.15)"/><path fill-rule="evenodd" fill="url(#aW)" d="m-22.9-24.05 3.15 1.65q5.8 2.65 4.5 6-3.45 3.45-5.1 8.6l-2.05.65q-1 .25-.9 1.45l-.1.35-4.25-.3q.8-.6 0-1.95L-29-9.3q1.05-2.75-3.65-8.05 1.35 4.8-1.6 5.1-3.2-1.25-7.85-2.4l-5.4-1.15q9.7-1.95 4.4-6.95 8.8.9 13.65 7.25l.85-1.6q1.65-2.8 4.75-4.55l.8-.15-.8.15-1.9.6q.4-1.7 2.85-3" transform="translate(95.7 136.15)"/><path fill-rule="evenodd" fill="url(#aX)" d="M-29.8-6.05q.2-.75-1.15-1.55-6.95-3.4-15.15-5.3 7 .2 4-1.75 4.65 1.15 7.85 2.4 3.5 1.4 5.25 2.95l1.35 1.7q.8 1.35 0 1.95L-29-5.4l-.8-.65" transform="translate(95.7 136.15)"/><path fill-rule="evenodd" fill="url(#aY)" d="M-14.4-31.45q.8 1.1 0 1.8 6.95 3.05 8.35-1.25-3.3.4-5.4-.75l-2.95.2-.9-.2.9.2m-.95 4.5q4.55 1.7 3.9-.3-.2-.9-4.3-2.5.9-.3.45-1.9l-.1-.4-.8-.65q2.7 1.25 4.85 0 5.8 2.1 6.3.05.1-.9-.55-1.5l.05-.25Q.1-32.6-3.4-28.45l-1.2 1.25q-4.15 3.7-8.6 1.55-1.35-.6-2.2-1.15l.05-.15" transform="translate(95.7 136.15)"/><path fill-rule="evenodd" fill="url(#aZ)" d="M-15.3-31.65q.45 1.6-.45 1.9 4.1 1.6 4.3 2.5.65 2-3.9.3l-.55-.2q-2-1.5-1.05-2.6.85-.4-.5-3.3-.1-2.3 1.05-2.65.95-.3 2.7.65 2.7-.8 7.15.4l.95.5q.65.6.55 1.5-.5 2.05-6.3-.05-2.15 1.25-4.85 0l.8.65.1.4" transform="translate(95.7 136.15)"/><path fill-rule="evenodd" fill="url(#ba)" d="m-15.35-26.95-.05.15-.05-.05.1-.1" transform="translate(95.7 136.15)"/><path fill-rule="evenodd" fill="#ae006d" d="m-5.55-34.4-.05.25-.95-.5 1 .25m-9.9 7.55-.45-.3.55.2-.1.1" transform="translate(95.7 136.15)"/><path fill-rule="evenodd" fill="url(#bb)" d="M-30.05.65q-.55-.65-.5-1.3l1 .55q1.45 0 .2-1.75l-1.35-1.1q-.5-.9 0-1.25l1.55 1.35q1.4.35.7-1.65v-.25q4.2-.35 6.25.9l.15 2.15q-.8-1.4-3-1.75h-1.85q3.95 1.2 5 2.8l.3 1.55-8.45-.25" transform="translate(95.7 136.15)"/><path fill-rule="evenodd" fill="url(#bc)" d="M-15.55-7.85q-2.7.9-5 2.25l-1.65.95-.7-.5-.4-.55q-.1-1.2.9-1.45l2.05-.65 3-1.2q-.35 1.05 1.8 1.15" transform="translate(95.7 136.15)"/><path fill-rule="evenodd" fill="url(#bd)" d="M-20.55-5.6q-1.7 12.65 10.45 20.3-8.95-2.95-11.35-13l-.15-.8-.3-1.55-.15-1.05-.15-2.15v-.8l1.65-.95" transform="translate(95.7 136.15)"/><path fill-rule="evenodd" fill="#f4c4ae" d="m-23.4-5.35.1-.35.4.55-.5-.2" transform="translate(95.7 136.15)"/><path fill-rule="evenodd" fill="url(#be)" d="M-.4-10.85q-5.5.3-11.1 1.85l-4.05 1.15q-2.15-.1-1.8-1.15 8.8-3.25 17.35-3.6 1.65.85-.4 1.75" transform="translate(95.7 136.15)"/><path fill-rule="evenodd" fill="url(#bf)" d="M-20.3 34.65v4.7l-1 5.45-1.2 6.4q-2.75 4.35-5.7 8-6.4 7.75-14.15 12.3-.3-1.15-.95-1.4-.6-.2-1.5.35 8.1-8.9 11.05-21.85l-2.05 3.95q2.35-6.4 2.9-15.7l1.35 5.3q2.35-6.3 2.9-14.4 1.15 5 .6 9.4l3.1-6.15.45 3.35 2.9-8.8-2.55 14.5q0 2.3-.15 4.6l4-10m-11.85 23.3q2.8-4.15 2.65-9.3-1.75 7.15-5.75 13.15l3.1-3.85" transform="translate(95.7 136.15)"/><path fill-rule="evenodd" fill="url(#bg)" d="M-64.05 66.55q6.65-5.15 11.65-13.7l-2.05 5.55q7.95-6.1 12.75-13.35l-4.55 2.5q5-5.05 6.9-10.8 1.4-4.35 1.05-10.6l1.75 8.05 1.45-9.5q1.15 9.55-.65 15.5l-.7 4.25q-4.6 5.9-10.1 10.75-5.65 4.9-12.25 8.65-2.55 1.45-5.25 2.7" transform="translate(95.7 136.15)"/><path fill-rule="evenodd" fill="url(#bh)" d="m-7.25 30.1-3.7 6 1.8-5.4 2.2-2.8-.3 2.2" transform="translate(95.7 136.15)"/><path fill-rule="evenodd" fill="url(#bi)" d="m-77.5 22.25-.8-.45-3.6 1.25.45-1.4q1.4-2.25 4.55-1.45l2.25 1.15q2.3 4.2 2.1 6.05 1.65-2.05.15-4.85l1.5.75q.9-7.2 7.9-6.15-.95 2.55-1 5.05-2.55 1.15-4.7 5.5-.95 1.95-.05 2.7-3.2 2.15-3.95-.45l-1.55 1.5q1.35-2.45-.3-5.2-.3-2.45-2.95-4m4.65 7 .15.7-.15-.7" transform="translate(95.7 136.15)"/><path fill-rule="evenodd" fill="url(#bj)" d="M-91.9 34.05h-1q2.15-6.75 9.35-10.25l1.65-.75 3.6-1.25.8.45-2.8 1q1.4 1.35-.9 2.2-6.25 2.2-10.7 8.6" transform="translate(95.7 136.15)"/><path fill-rule="evenodd" fill="url(#bk)" d="M-83.4 30.75q-3.8.7-7.5 3.3h-1q4.45-6.4 10.7-8.6 2.3-.85.9-2.2l2.8-1q2.65 1.55 2.95 4 .25 1.9-.95 4.35-1.2.45-3.25 0l-2.5-.05-.8.05-1.35.15" transform="translate(95.7 136.15)"/><path fill-rule="evenodd" fill="url(#bl)" d="M-82.75 60.3q-6.1 3.35-12.45 9.05l.6-1.15 9.8-11.1q-3.1 1.75-6 5.1 4-6.1 8.8-10.7l-1.5 2.8q5.35-5.95 12.05-10.25-2.15.25-6.6 2.75l2.55-3.3-2.35 2.05-4.4 1.45-1.55.3-.65.05q-5-.6-6.2-1.55 13.6-1.4 18.9-6.9-3.9 2.55-8.35 3.4 9.45-5.45 11.7-10l1.8-.65-2.1 3.7 3.9-4.4 2.6-1q-3 5.7-7.95 10.55 2.05-.3 6.6-5.45-5.9 7.1-10.05 15.1-1.7 4.3-2 6.95l-1.6.55-5.15 2.4-.4.25m1.15-3.95q3.6-3.25 3.25-4.25-4.5 3.35-7.05 7.75l3.8-3.5" transform="translate(95.7 136.15)"/><path fill-rule="evenodd" fill="url(#bm)" d="m-68.75 30.4-2.35 2.7-3.15 3.05-1.8 1.25h-2l-2.25-.95-1.75-3.2V30.6l.8-.05 2.5.05q-.15 1.9 3.6 2.5 2.65-1.15 2.45-3.15.75 2.6 3.95.45m-8.9 4.5q1.35 1.25 3.4 1.25-2.05 0-3.4-1.25m-2.65-2.3-.95-2.05.95 2.05" transform="translate(95.7 136.15)"/><path fill-rule="evenodd" fill="url(#bn)" d="m-94.6 68.2 1.4-2.8q1.4-2.4 1.15-3.65 7.35-10.1 14.2-16.2l2.35-2.05-2.55 3.3q4.45-2.5 6.6-2.75-6.7 4.3-12.05 10.25l1.5-2.8q-4.8 4.6-8.8 10.7 2.9-3.35 6-5.1l-9.8 11.1" transform="translate(95.7 136.15)"/><path fill-rule="evenodd" fill="url(#bo)" d="m-83.95 33.25.85-1.35.65 2.35q.85 1.4 2.15 2.2l2.25.95-1.6 2.7-4.7 2.5.4-4.45q2.15-3.1 0-4.9" transform="translate(95.7 136.15)"/><path fill-rule="evenodd" fill="url(#bp)" d="M-68.8 45.2q3.45-6.2 6.15-7.65-5.05 5.9-8.35 14.1.35-2.1 2.2-6.45" transform="translate(95.7 136.15)"/><path fill-rule="evenodd" fill="url(#bq)" d="M-74.85 66.75q-.1-3.45 1.35-6.9 2.8-6.9 7.15-10.25l-2.35 5q2.4-3.45 4.6-5.9l1.95-2.1q4.1-4.7 6.4-10.5v6.55l-.2 3.55q-9.8 5.4-18.9 20.55" transform="translate(95.7 136.15)"/><path fill-rule="evenodd" fill="url(#br)" d="M-43.75 36.1Q-45 42.2-48 44.75q3.8-6.9 2.05-16.7 2.95 4.85 2.2 8.05" transform="translate(95.7 136.15)"/><path fill-rule="evenodd" fill="url(#bs)" d="m-55.75 30.9-.3 2.2-3.7 6 1.8-5.4 2.2-2.8" transform="translate(95.7 136.15)"/><path fill-rule="evenodd" fill="url(#bt)" d="M-52.4 34.5q1 5.6 0 10.7l-2.5 8.05 1.65-7.55q1.1-4.9.85-11.2" transform="translate(95.7 136.15)"/><path fill-rule="evenodd" fill="url(#bu)" d="M-47.95 61.7v-.05l8.65-6.8q-2.9 8-7.55 15.15v2.2l2.05-1.75q.9-.55 1.5-.35l-1.5 2.8q2.95.6 2.2 2.1 4.75-.45 8.7-3.9l3.5-2.75-2.85 11.8-18.75.45 4.05-18.9" transform="translate(95.7 136.15)"/><path fill-rule="evenodd" fill="url(#bv)" d="M-58.8 63.85q6.6-3.75 12.25-8.65l-1.4 6.45v.05q-7 4.7-14.3 6.75l3.45-4.6" transform="translate(95.7 136.15)"/><path fill-rule="evenodd" fill="url(#bw)" d="M-46.55 55.2q5.5-4.85 10.1-10.75-1.1 5.35-2.85 10.4l-8.65 6.8 1.4-6.45" transform="translate(95.7 136.15)"/><path fill-rule="evenodd" fill="url(#bx)" d="m-57.25 53.3-1.25 3.65q-9.1 9.9-11.1 20.5l-11-3.1-.25-.1 4.45-8.9 1.7 6.9L-69 62.1q5.6-5.7 11.75-8.8" transform="translate(95.7 136.15)"/><path fill-rule="evenodd" fill="url(#by)" d="m-30.4 68.35-3.5 2.75q-3.95 3.45-8.7 3.9.75-1.5-2.2-2.1l1.5-2.8q.65.25.95 1.4 7.75-4.55 14.15-12.3l-2.2 9.15" transform="translate(95.7 136.15)"/><path fill-rule="evenodd" fill="url(#bz)" d="m-77.2 57.65-1.3 4.2-1.8 5.9q-3.95.65-7.9 3.4 1.25-4.4 5.85-11.1l5.15-2.4" transform="translate(95.7 136.15)"/><path fill-rule="evenodd" fill="url(#bA)" d="m-76.4 65.35-4.45 8.9-1.25 2.55-.65-1.1 1.65-5.25.8-2.7 1.8-5.9 2.1-.95v4.45" transform="translate(95.7 136.15)"/><path fill-rule="evenodd" fill="url(#bB)" d="M-74.85 66.75q9.1-15.15 18.9-20.55-.35 3.7-1.3 7.1-6.15 3.1-11.75 8.8l-5.7 10.15-1.7-6.9v-.05l.8-1.55q.2 1.7.75 3" transform="translate(95.7 136.15)"/><path fill-rule="evenodd" fill="url(#bC)" d="m-67.9 84.6-1.05-2.2 4 2.3q3.3 3.35-.4 1.55l-2.55-1.65" transform="translate(95.7 136.15)"/><path fill-rule="evenodd" fill="url(#bD)" d="m-80.85 74.25.25.1-.3 1.15 11.95 6.9 1.05 2.2-13.2-8.45q-.35.4 1.6 2.15l5.15 6.3L-64 90.8l-.45-.2-6.05-2.35-4.15-2.85q-3.65-2.95-6.25-6.75l-1.2-1.85 1.25-2.55" transform="translate(95.7 136.15)"/><path fill-rule="evenodd" fill="url(#bE)" d="M-65.35 86.25q3.7 1.8.4-1.55l-4-2.3-1.05-2.25.4-2.7 11.65 3.25 5.95-.1-.2.75h1.5q2.25 1.45.75 2.9l-1.1-.15-4.85-.65 5.65 1.85 7.55 11.45-4.7-.4-13.55-4.4-.05.05-.05-.1-4.3-5.65" transform="translate(95.7 136.15)"/><path fill-rule="evenodd" fill="url(#bF)" d="m-80.6 74.35 11 3.1-.4 2.7 1.05 2.25-11.95-6.9.3-1.15" transform="translate(95.7 136.15)"/><path fill-rule="evenodd" fill="url(#bG)" d="m-61 92-.95-.4-2.05-.8-10.35-6.2-5.15-6.3q-1.95-1.75-1.6-2.15l13.2 8.45 2.55 1.65 4.3 5.65.05.1" transform="translate(95.7 136.15)"/><path fill-rule="evenodd" fill="url(#bH)" d="M-80.9 78.65q2.6 3.8 6.25 6.75l2.45 5.9.1.3-2.6-1.45-12.55-11.6 1.05-1.95 5.3 2.05" transform="translate(95.7 136.15)"/><path fill-rule="evenodd" fill="url(#bI)" d="M-72.1 91.6h-2.4q-8.75-6.2-13.25-12.05l.5-1 12.55 11.6 2.6 1.45" transform="translate(95.7 136.15)"/><path fill-rule="evenodd" fill="url(#bJ)" d="m-72.2 91.3-2.45-5.9 4.15 2.85 6.05 2.35-7.75.7" transform="translate(95.7 136.15)"/><path fill-rule="evenodd" fill="url(#bK)" d="M-64.05 66.55q2.7-1.25 5.25-2.7l-3.45 4.6q7.3-2.05 14.3-6.75L-52 80.6l-5.95.1-11.65-3.25q2-10.6 11.1-20.5-2.05 5.1-5.55 9.6" transform="translate(95.7 136.15)"/><path fill-rule="evenodd" fill="url(#bL)" d="m-13.95 99.8 1.6 1.95q3.75 7.95.3 11.6l2.6-1.7q-.4 1.55-1.4 2.6l-2.2.9q-6.3 2.2-13.4 1.95l-2.9 1.85q-.8 1.25-5.2 1.45-2.7-.3-4.3-1.7l1.3-.3q3.35-1.3 2.85-5.1-2.8-6.9-8.8-7.5l-3.45.55-1 .35.8-1.05q-.9-1.9-4.3-3l-2.4.45-1.4.4q.45-2.1-1.25-2.55-.05-1.75 3.4-1.5l4.75-2.5 1.2.45 5.2.5 15.85 1.25 12.15.65m-26.45 4.1q6.4 2.55 8.2 10.75 2.95.65 0-6.75-3.45-4.1-8.2-4m11.15 14q.2.6-.1 1.05.3-.45.1-1.05m-13.45-15.4q-1.65-.3-3.6 2.1l-.85 1.05.85-1.05q1.95-2.4 3.6-2.1m-10.3-1.25q4.05-.2 5.9 2.15.8-1.75-2.2-2.9-1.65-.75-3.7.6l-.15.15h.15m-.85 1.85q-.3-1.05.7-1.85-1 .8-.7 1.85" transform="translate(95.7 136.15)"/><path fill-rule="evenodd" fill="url(#bM)" d="m-51.05 84.1 1.1.15 16.85 2.2 1.5 2.8-18.65-3.95-.8-1.2" transform="translate(95.7 136.15)"/><path fill-rule="evenodd" fill="url(#bN)" d="M-49.95 84.25q1.5-1.45-.75-2.9 8.55-.15 17.1.15 3.85 3.55 3.05 5.3l-2.55-.35-16.85-2.2" transform="translate(95.7 136.15)"/><path fill-rule="evenodd" fill="url(#bO)" d="m-42.7 96.75-7.55-11.45 18.65 3.95 4.85 8.75-15.95-1.25" transform="translate(95.7 136.15)"/><path fill-rule="evenodd" fill="url(#bP)" d="M-22.5 51.2q-1.8 11.9.7 23.45l.5 2.3q3.35-13 10.8-22.1l-1.25 12.55-7.85 13.65 6.4.65-.1 1.05-20.3-1.25.35-1.35 4.55-.1 7.55.8-2.45-4.65-3-10.95-3.8 3.1 2.2-9.15q2.95-3.65 5.7-8" transform="translate(95.7 136.15)"/><path fill-rule="evenodd" fill="url(#bQ)" d="m-11.75 67.4 6.05-7.2.95 18.05q1.65-.05 2.8 4.65l-11.25-1.2 1.45-14.3" transform="translate(95.7 136.15)"/><path fill-rule="evenodd" fill="url(#bR)" d="m-32.15 57.95-3.1 3.85q4-6 5.75-13.15.15 5.15-2.65 9.3" transform="translate(95.7 136.15)"/><path fill-rule="evenodd" fill="url(#bS)" d="m-33.25 80.15 2.85-11.8 3.8-3.1 3 10.95 2.45 4.65-7.55-.8-4.55.1" transform="translate(95.7 136.15)"/><path fill-rule="evenodd" fill="url(#bT)" d="m-26.75 98-4.85-8.75 19.55 3.05 2.95 7.1-17.65-1.4" transform="translate(95.7 136.15)"/><path fill-rule="evenodd" fill="url(#bU)" d="m-11.25 89.35-2.25-.3-17.05-2.25q.8-1.75-3.05-5.3l20.3 1.25 1.9.2q3.05 4.7.15 6.4" transform="translate(95.7 136.15)"/><path fill-rule="evenodd" fill="url(#bV)" d="m-13.5 89.05 1.45 3.25-19.55-3.05-1.5-2.8 2.55.35 17.05 2.25" transform="translate(95.7 136.15)"/><path fill-rule="evenodd" fill="url(#bW)" d="m-13.2 81.7-6.4-.65 7.85-13.65-1.45 14.3" transform="translate(95.7 136.15)"/><path fill-rule="evenodd" fill="url(#bX)" d="M-84.95 42.85V38.2q0-2.95 1-4.95 2.15 1.8 0 4.9l-.4 4.45-.6.25" transform="translate(95.7 136.15)"/><path fill-rule="evenodd" fill="#3f682e" d="M-89.75 72.25q2.55-6.7 7-11.95l.4-.25q-4.6 6.7-5.85 11.1l-1.55 1.1" transform="translate(95.7 136.15)"/><path fill-rule="evenodd" fill="url(#bY)" d="m-81.6 56.35-3.8 3.5q2.55-4.4 7.05-7.75.35 1-3.25 4.25" transform="translate(95.7 136.15)"/><path fill-rule="evenodd" fill="url(#bZ)" d="M-87.75 79.55q-1.85-2.4-2.95-4.7l.95-2.6 1.55-1.1q3.95-2.75 7.9-3.4l-.8 2.7q-2.55 1.65-5.1 6.15l-3.3-1.25 2.25 3.2-.5 1" transform="translate(95.7 136.15)"/><path fill-rule="evenodd" fill="url(#ca)" d="m-80.9 78.65-5.3-2.05q2.55-4.5 5.1-6.15l-1.65 5.25.65 1.1 1.2 1.85" transform="translate(95.7 136.15)"/><path fill-rule="evenodd" fill="url(#cb)" d="m-86.2 76.6-1.05 1.95-2.25-3.2 3.3 1.25" transform="translate(95.7 136.15)"/><path fill-rule="evenodd" fill="url(#cc)" d="M-40.4 103.9q4.75-.1 8.2 4 2.95 7.4 0 6.75-1.8-8.2-8.2-10.75" transform="translate(95.7 136.15)"/><path fill-rule="evenodd" fill="url(#cd)" d="M-38.85 118.7q-6.8 1.2-15.9-.3-1.05-.95-1.1-2.15 5.6 2.65 13.1-2.15 1.5-1.8.45-5.15-.8-2.4-7.9-1.1 1.05-.7 2.25-1.15l1-.35 3.45-.55q6 .6 8.8 7.5.5 3.8-2.85 5.1l-1.3.3" transform="translate(95.7 136.15)"/><path fill-rule="evenodd" fill="url(#ce)" d="M-55.7 114.9q-8 1.4-10.5-1.45l-.15-.95q4.9 1.25 9.45-.75 3.15-1.35 4-4.8.55-3.45-3.65-3.05l1.3-.4 1.4-.4 2.4-.45q3.4 1.1 4.3 3l-.8 1.05q-1.2.45-2.25 1.15-3.4 2.3-5.5 7.05" transform="translate(95.7 136.15)"/><path fill-rule="evenodd" fill="url(#cf)" d="M-55.85 116.25q-.1-.65.15-1.35 2.1-4.75 5.5-7.05 7.1-1.3 7.9 1.1 1.05 3.35-.45 5.15-7.5 4.8-13.1 2.15" transform="translate(95.7 136.15)"/><path fill-rule="evenodd" fill="url(#cg)" d="M-68.2 108q2.25-4.45 7.45-6.8 2 .2.45 2.9-2.45 2.9-5.95 5.05-2-.3-1.95-1.15" transform="translate(95.7 136.15)"/><path fill-rule="evenodd" fill="url(#ch)" d="M-66.35 112.5q-.05-.95.45-1.9.6-1.3 2.15-2.6 3.15-2.7 7.2-4.1 4.2-.4 3.65 3.05-.85 3.45-4 4.8-4.55 2-9.45.75" transform="translate(95.7 136.15)"/><path stroke-width=".05" stroke-opacity=".722" stroke-linejoin="round" stroke-linecap="round" stroke="#581003" fill="none" d="M145.9 41q2.55-7.4.3-18.7m-.3 18.7-1.3 3M90.25 76.65q9.2 2 9.4 13.85l-.3 4.9-.35.85q-1.05 1.5-4.9 1.8-1-.25-2.05.45-4.9 3.15-11.05.7-.85-.3-1.5-.65-1.7-.9-2.4-2.1-2.15-3.65-1.15-6.2l2.85-7.15q1.85-4.65 9.45-6.8l2 .35M80.1 97.8q6.45 2.15 13.55-2.3 4.5-2.85 5.35.75M80.1 97.8q-1.55-.5-3-1.35m4.2 8.25 2.95-.2q2.1 1.15 5.4.75-1.4 4.3-8.35 1.25.8-.7 0-1.8l-.9-.2m-.1 4.85q.85.55 2.2 1.15 4.45 2.15 8.6-1.55l1.2-1.25q3.5-4.15-2.15-5.95M79.8 109q-2-1.5-1.05-2.6.85-.4-.5-3.3-.1-2.3 1.05-2.65.95-.3 2.7.65 2.7-.8 7.15.4l1 .25M79.8 109l.45.3.05.05M96.05 96.9q-.25-1.95-6.05 1.85"/><path stroke-width=".5" stroke-opacity=".722" stroke-linejoin="round" stroke-linecap="round" stroke="#581003" fill="none" d="M131.2 26.05q-.2-3.5-2.05-8.55-6.1-9.3-17-16.6-3.4-.95-6.45.45l2.15 1.15m13.9 36.45.8-.05q-.5-6.35-.05-12.65 1.1-2.8 1.85-1.05m6.85.85q.15 3-.85 4.9 6.1-8.75 15.6-11.4 6 7.05 8.7 14.6 9.35-2.55 12.4.8 5.05 5.45 2.4 6.55l.95 1.8q8 15.45 4.2 21.75-.85.65-1.5.5-1.1-.3-1.7-2.6-2.4 11.25-11.55 17.4-2.05.8-4.15 1.15-4.35.75-9.1-.2 3.1 3.3 1 3.2-2.45-.45-4.5-1.3-5.75-2.3-8.25-7.4l-.5.85q7.9 12.85 8.85 22.2-1.8 1.45-3.6-2.2 1.45 4.9 0 8.4-3.1 1.7-3-2.2-2.8 4.55-6.7 7l2.45 2.1q3.55 3.75 5.25 10.5l10.45 16.4q7.2 6 10.6 11.85 6.15 1.65 10.95 5 4.55 1.85 7.5 4.55 6.95-.9 10.95 3.4.65 1 .65 1.6-.1.75-1.25.9 4.85 9.35 2.85 15l-.65.75-.7.65q-2.05-5.8-6-8.7l.15 2.05q-.9 7.05-5.3 11.25l-1 .85-1.2.7-1.15.7q.65-3 0-5.6l-.9-3q-2.35 3.25-5.85 4.4h-1.75q2.35-3.35 3.65-7.7-4.15 1.65-7.8 1.15-2.5 1.7-5.85 1.55 1 9.4 4.25 13.25l-1.2.35-1.2.3q2.3 4.15 7.95 7.6l-5.95-1.55q-5.8-1.75-10.15-4.05l2.25 5.45 2 3.95q2 3.75 4.5 7.3-.8 7.8-5.3 11.9-5.1-.15-11.4 3.25l-1.85 1.4-8.45 6.65-1.35.05-6.7.25q.75 4.4-1 7.5 4.65 3.6 6.75 8.6.45 2.3-1.1 3.15l.7 1.2 1.55 3.75q-.45 3.25-2.1 5.05-1 1.05-2.35 1.6h-3.35q-2.25-.2-5.05-3.7-.6 1.9-1.4 3.4-2.6 4.6-7.45 4.95-2.85-1-4.65-3.7-1.45-2.2-2.2-5.45-2.15 6.3-4.35 7.35l-8.15.35q-1.5-1.65-1.95-3.25-.35-1.25-.1-2.45.4-4.05 1.7-7.05l.4-.95q-2.4-1.4-.45-5.05 1.65-4.25 4.15-6.65-2.6-2.6-3.85-8.7l-2-.1-5.35-.2 1.6 1.95q2.2 3.05 3 6.55.25 1.9-.1 3.35-.4 1.55-1.4 2.6l-2.2.9q-6.3 2.2-13.4 1.95l-2.9 1.85q-.8 1.25-5.2 1.45-2.7-.3-4.3-1.7-6.8 1.2-15.9-.3-1.05-.95-1.1-2.15-.1-.65.15-1.35-8 1.4-10.5-1.45l-.15-.95q-.05-.95.45-1.9-1.35 1.1-2.65-.85v-1.1l.35-.65q2.25-4.45 7.45-6.8l1.5-.3q-.55-.95 3.15-2.1h2.85l3.7-2.35-11.45-4.45-.95-.4H21.2q-8.75-6.2-13.25-12.05Q6.1 213.3 5 211l.95-2.6q2.55-6.7 7-11.95Q6.85 199.8.5 205.5l.6-1.15 1.4-2.8q1.4-2.4 1.15-3.65 7.35-10.1 14.2-16.2l-4.4 1.45-1.2 1.8-.35.5-.65-1.95q-5.2.8-8.4-1.6l-.35-.25q4.35-1 8.25-2.65v-4.65q0-2.95 1-4.95l.85-1.35-.3-1.15q-3.8.7-7.5 3.3h-2q2.15-6.75 9.35-10.25-1.15-1.7 1.9-4.5 5.3-1.85 9.9-1.45.55-1.05 1.7-2.2l8.85-2.4 2.5-3.35q.05-.5.9-1.5-10.65-7.6-5.8-23.7-1.15-.25-.95-1.5.2-1.05 1.95-1.35l3.5.45q15.25-12.25 28.8-.8 1.25-6.4 7.95-7.85-2.15-.9-3.45-1.95l-.7-.6q-1.95-1.5-3.5-3.1-13.55-13.55 2.7-30.3-2-4.55-1.75-9.05-10 .75-12.45-6.1-1.8-.9-3-2.5-3.05-4.1-2.15-12.7-2.6 2.95-1.75-1.75Q49.4 30.6 66.45 23.9q.75-3.95 8.9-1.15Q88.25 28.4 91.4 38.4l6.75.65q-6.3-9.45-15.9-14.5l1.4-.35q2.75-.85 1.8-2.15l-.3-.25.45.1q12.2.2 23.45 4.65 2.9-10.05-1.2-24.05m4.45 25.45-3.25-1.4m4.5 10.3-1.9-1.15-8.9-5.35m24.2 6.7q1.55-3.5 3.4-6.1m1.9 7.15q2.8-2.45 6.55-3.75 2.55-.4 2.15 1.25l-.9.55M159 55.35l.5-2.25-.95-5.2-.6-2.8-1.75-6.3-.2-.7-1.35-3.95m-.05 16.9q2.2 2.4 4.1 5.55l.3-1.25m7.95-13.8 2.5-.05M155.5 65.15q.15-4.55-2.2-11.1l-4.75-2.95q-3.25-.6-5.55 1 2.5 2.65 4.2 6.2 3.55 7.45 3.5 18.75-1.05-5.3-4.5-6.85 1.9 1.55 2 4.6v.8l-5.3-4.7m10.4-16.85 2.75 2.4m-1.45-5.4q-3-3.35-6.6-5.25-5.5-.9-11.05 1.7 3.45 1.85 6.05 4.6m12.4 14.3q-.25 2.35-1.3 4.1m1.4-5.35-.1 1.25m2.05-8.35-1.4-1.6m4.75 8.75q-.8-3.9-3.35-7.15m-27.7-14.95-.9-1.2q-1.2-1.35-3.05-2.15l-2.6-.85h-.65m8.4 7.7-.05-.3q-.3-1.8-1.15-3.2m-12.3-1.25-1.1 2-.85 2.55q2 1.05 3.25 3.25l1.5-.15h1.85q1.9.1 3.6.75l.1-.1q1.9-.55 2.85.35l2.3-3.9.2-.35m3-.1.2.1 2.6 1.25m-2.8-1.35-3 .1m-2.3-4.35q1.5-2.15 3.4-3.8m-5.3-1.05-1.15 2.7m-6.45.15 1.4-.7 1-.25m-4.3 2.85v.05m1.9-1.95-.55.45-1.35 1.45m6.9 16.25.25-.15q1.9-1.55 4.1-3 1.3-1.5-2.45-4.4l-.5-.2-.05-.05m-1.25 7.85q9.45 5.25 18.45 12.8m-18.45-12.8-.1-.05q-10.2 8.2-13.85 19.3-1.65 1.2-4.15 2.05m28.5-3.65q.8-1.75.95-3.7m-5.6-20.9-1.55-.65m-29.9 6.85-.3 5.55q.15 4.8 1.65 9.45.7 2.15 1.65 4.25l.95 1.9 3.2-3.95-1.6 5.45 1.3-.35.75-.25m5.3-34q2.15.1 3.85 1m-10.4 3.1q2.15-1.75 4.95-3.25l1.6-.85m-5.05 16.95q4.5-11.4 12.15-12.7M99.8 41.7l-1.65-2.65m2.3 3.95-.65-1.3m5.3 7.8-1.9-.25q-1.2-3.3-2.75-6.25m2.25 8.7.15-.15 2.25-2.05m-6.35 7.85q1.4-3.05 3.95-5.65m32.15 24.05v.05m-.5.85-1.35 1.8m-3.1 31.4-2.5 1.3q-5.85 2.55-13.8 1.1-18 5.65-35.2-.8l-2.35-.65-2.7-1m7.1 9.95q1.8-1.9 3.75-2.6m29.2 5.6q-2.2-3.95-5-6.2m5.1 6.3h-.05l-.05-.1m2.65-4.3q.3 2.35-.05 4.2-.35 1.5-1.1 2.65l.5 1.3 1.4.5 1.1 1.2q.25.5-.1.95-.2.8-.8 1.3l-1 .4.05 3v.05q1.25-.45 2 2.75l8.05 11.2.25 1 .35 1.45q2.9 11.1 9.7 16 .25-3.15 1.55-5.55l1-1.65m-24.05-33.9-.9-1.95-.5-.5m-17.8.7q9.6-.45 18.9 2.8l.8.25m.65 7.4-.1 1.7-.3 2.1-.45 1.85-.85 2.15-1.4 2.5q1.3 1.6 2.8.9l.5-.6.55-.85q1.35-2.7 1.25-7m64.2 31.55.15-1.25q-.65-1.85-2.15-2.7l-.8-.35-1.6-.35m-62.2-25.85-1-1.7q-.55-1.9 1.3-.4m.05-4.75q-3.4-3.75-10.9-5.25l-9.8-.4q-5.5.3-11.1 1.85l-4.05 1.15q-2.7.9-5 2.25m10.45 20.3q4.2 1.4 9.85 1.2 13.4-1.15 17.5-7.75m17.25-93.15q6.85 2.8 9.6 6.15m-26.25-20.45q3 4.2 2.8 7m-4.05-15.9q5.6 4.5 7.05 11.95m60.9 124.45-.65-1.1-.85-1.2-1.65-1.8m4.4 8.95-1-1.8q-2.5-1.85-6.55-1.25-4.4 2.6-4.3 6.45l1.45 2.45.5 1 1.95 4.75m8.5-10.25-.55-1.35q.55-.25.75-.9m-2.65-5.05q4.3-.8 7.1 1.5l.75 1.4m-4.5 7.7-.9-3.3m-24.7 4.7q.35-1.05.2-2.75l-.4-2.3m-6.4 1q-2.6.05-6.55 1.75-5.5 2.3-3.8 7.95 4 11.55 15.25 13.05l2.15.15m-21.4-23.6q-.15-2.4 0-4.1m3.05 4.35q-1.3 1.4-1.95 3.1l-.2.6-.35 1.65q-.35 2.6 2.1 4.15l1.35.65m15.4-2.85-.1-1.1-.35-2.5q-.8-3.35-4.5-3.25m5.1 9-.15-2.15m-18.3-4.2-1.1-3.35h-.85l-1-.6-7-2.7-4-1.4m21.8 32.65-.6-5.45q-1.6-1.25-2.9-2.55m25.55-19.1q-.1-1.15.35-2.65m-5.95 9.95 1.05-.9m6.75-.25 1.05-.5.95-.95m-.5-1-2.35-1.05q-1.2-1-1.35-2.65m-11.7 5.6q1.2-.4 1.65-1.7m1.3-24.55-3.9-.85m-28.4-.9q-3.55-3.2-9.55-5.2m-.55.85q2 .5 3.9 1.35 3.55 1.6 6.55 4.45m-12.35-8.6-.6-1.65q-.55-2.2 1.45-.5m-17.75 37.5q-.95 2.1-1.75 4.3-4.9 13.3-4.05 29.5l.9-.05m15.7-22.45.5 2.8q1 6.05 1.05 11.95 0 7.25-1.55 14.25l1.3-1m1.35-1-.65 1.9m34.65-8.5q.8-4.5.45-10.35v-.05m-70.95-17.5-1.2 6.4q-1.8 11.9.7 23.45m-9.45-51.85 16.65.5q23.3 2 34.9 4.4 4.3.85 7 1.8l.55.15m14.3 35.25q-4.35-5.85-10.7-10.8 1.6 3.7 0 8.65l-3.8 6.55q-5.5 8.45-12.9 15.05l-1.9 1.6 1.7-4.75m27.6-16.3q3.9 5.2 6.2 11.1l.85-3.3m-36.15-17.6q-3.6 3.75-6.75 8.4-4.6 6.85-8.2 15.6-.5-3.65-1.25-4.35m18.35 4.55-1.35 1m40.1-20.35q-2.7-1.45-4.9-3.1m6.05 27.75-6.15 4.85m-2.95 2.35 2.95-2.35m-22.25 10.7h.95m-1.95 6.75.95.75m-1-.75h.05m6.6 12.5q-3.9-6.25-10.6-.05.8 1.15 1.1 2.7l-.2 1.35-.9 3.9m3.05-21 .9.6m-16.8-6.55 17.85-.2m-21.05 19.8q-.35.6-.45 1.25l.05.65q.2 2.55.75 4.65m15.7-7.15q-2.6-3.65-10.5-3.1-4.4 1.5-5.55 3.7-4.3-5.4-10.05-2.7l-.65.85-1.4 2.4m-15.4-218.2q-1.8-2.15-5.2-3.2-4.7-1.3-9.9 1.1m10.6 2.45 4.5-.35 1.7 2.65.45 1.35.45 2 .1 2.55q2.65-2.5 6.05-4.95-4.95-.55-.85-2.3l1.2-.4 8.45-.95m-21.2 5.1-.95 1.15Q69 46 71.35 47q-1.95.15-3 2.1-.05 1.2 1.15 1.75 1 .5 2.9.55l4.15-4.4M62.3 45.1q1.65-5.1 7.05-6.3m.25 16.7 2.8-4.1m-2.2-7.9q1.75-1.5 5.8-1.05M69.6 55.5q-2.7 4.6-2.95 9.3m-22.4 82.45q16.3 3.5 23.35-9.6l-1.45-.3-.5-.55q-.55-.65-.5-1.3-1.7-.8-3.2-.75-1.4-.1.2-1.6l2.85.05q-.5-.9 0-1.25-.75-.65-2.15-1-1.35-.45.6-1.5 1.5.1 2.45.65.2-.75-1.15-1.55-6.95-3.4-15.15-5.3-7.55-1.75-16.1-2.3l-1.4-.1m35-1.8-.9-.7-.6-.55-.2-.15m-17.2 2.7-11.6-1.9m17 3.05-5.4-1.15m5.4 1.15q4.65 1.15 7.85 2.4m5.25 2.95 1.35 1.7q.8 1.35 0 1.95l4.25.3m.1-.35q-.1-1.2.9-1.45l2.05-.65q1.65-5.15 5.1-8.6m-8.6-5.25.8-.15m-6.45 4h.05m5.6-3.85-1.9.6q-2.15 1-3.7 3.25M65 133.2l1.35 1.1q1.25 1.75-.2 1.75l-1-.55m2.1-3.85q.7 2-.7 1.65L65 131.95m1.7-1.2 1.35-.25m-1.35.25-.8-.65m1.2 1.3-.4-.65m.4.65.15.25m6.25.65v-.8l-.7-.5-.5-.2m1.2.7 1.65-.95m-2.75-.1.4.55m1 4.5-.15-1.05q-.8-1.4-3-1.75m3.15 2.8.3 1.55.15.8q2.4 10.05 11.35 13m-11.95-16.4-.15-2.15m-6.8-5.45q-1.75-1.55-5.25-2.95m13.9 4.45 3-1.2q8.8-3.25 17.35-3.6m-21.6 13.5-8.45-.25m1.95.85 6.65.2m-14 20.1.4-1.15q.85-1.8 3.5-2.35.7-2.2.75-5.35m-.45 9.85-2.7.15-1.15.05q-15.4 1.1-32.5 6.05l-1.15 1.35-2.35 2.7-3.15 3.05-1.8 1.25-3.6 2.7-4.7 2.5-.6.25m51-19.9 1.1-1.65q.8-1.4 1.3-3m-3.9 3.5q-.15.85.35 1.2M31.65 202.7q2.7-1.25 5.25-2.7 6.6-3.75 12.25-8.65 5.5-4.85 10.1-10.75l.7-4.25m-22.05-31.8q1.5 1.05 3.35 1.95l3 .75M31.9 161.6l-.2-1.7v-1.55q.05-2.5 1-5.05.65-1.95 1.8-3.9m-20.7 9.8 3.6-1.25.8.45q2.65 1.55 2.95 4 .25 1.9-.95 4.35-1.2.45-3.25 0-.15 1.9 3.6 2.5 2.65-1.15 2.45-3.15l-.15-.7m-9.05-6.2-1.65.75m11.8-5.95-.45 1.65m3.45 10.9q-.9-.75.05-2.7 2.15-4.35 4.7-5.5M11.25 183.5l.65-.05 1.55-.3m8-10.85q-2.05 0-3.4-1.25m2.15 8.6-2.35 2.05m-.2-8.15-1.6 2.7m3.6-2.7h-2l-2.25-.95q-1.3-.8-2.15-2.2l-.65-2.35m8.25 34.85q9.1-15.15 18.9-20.55l.2-3.55m12.45 27.45q-.6-.2-1.5.35l-2.05 1.75v-2.2Q53.5 199 56.4 191q1.75-5.05 2.85-10.4M37.2 193.1l1.25-3.65q.95-3.4 1.3-7.1M37.2 193.1q-2.05 5.1-5.55 9.6m35.85-7.35q-6.4 7.75-14.15 12.3-.3-1.15-.95-1.4m-32.3-13q.3-2.65 2-6.95m-3.6 7.5-1.3 4.2m2.9 1.9q-.4-2.8 0-6.65l-1.6.55-5.15 2.4-.4.25m2.45 7.45 1.8-5.9m3.65 4.9q-.55-1.3-.75-3m11.6 27.05 2.05.8m-12.7-6.2q-3.65-2.95-6.25-6.75m6.25 6.75 4.15 2.85 6.05 2.35.45.2m15.65 6.15 1.2.45 5.2.5 15.85 1.25 12.15.65m-34.4-2.85-1.2-.5m27.05-45.25q-2.75 4.35-5.7 8M85.2 191q-7.45 9.1-10.8 22.1l-.5-2.3m21.8-29.35q-6 4.05-10.5 9.55m-71.55-24.25-1.35.15m2.15-.2-.8.05m.95 39.85.8-2.7m-.8 2.7-1.65 5.25.65 1.1 1.2 1.85m42.05 40.05 1.3-.3q3.35-1.3 2.85-5.1-2.8-6.9-8.8-7.5l-3.45.55-1 .35q-1.2.45-2.25 1.15-3.4 2.3-5.5 7.05m26.35 4.05q.3-.45.1-1.05m-18.7-11.2.8-1.05q-.9-1.9-4.3-3l-2.4.45-1.4.4-1.3.4q-4.05 1.4-7.2 4.1-1.55 1.3-2.15 2.6m18.75-4.95.85-1.05q1.95-2.4 3.6-2.1m-10.45-1.25q-1 .8-.7 1.85m.85-2-.15.15m-6.1-.35 2.75.05q1.7.45 1.25 2.55m2.25-2.4q2.05-1.35 3.7-.6m-29.45-69.9-2.5-.05.95 2.05m73.7 67.5 15.45.25m-8.75 6.45q-1.55.75-2.85 2"/><path fill-rule="evenodd" fill="#fff" d="m-16.65-59.85-.45.2-.5-.2-.15-.45.15-.5.5-.15.45.15.2.5-.2.45m38 1.55q-.25.3-.65.3t-.65-.3q-.25-.25-.25-.65t.25-.65l.65-.25.65.25.25.65-.25.65" transform="translate(95.7 136.15)"/><path stroke-opacity=".549" stroke-linejoin="round" stroke-linecap="round" stroke="#582b0a" fill="none" d="m10-134.8 2.15 1.15q4.1 14 1.2 24.05-11.25-4.45-23.45-4.65l-.45-.1.3.25q.95 1.3-1.8 2.15l-1.4.35q9.6 5.05 15.9 14.5l-6.75-.65q-3.15-10-16.05-15.65-8.15-2.8-8.9 1.15-17.05 6.7-19.15 17.85-.85 4.7 1.75 1.75-.9 8.6 2.15 12.7 1.2 1.6 3 2.5 2.45 6.85 12.45 6.1-.25 4.5 1.75 9.05Q-43.55-45.55-30-32q1.55 1.6 3.5 3.1l.7.6q1.3 1.05 3.45 1.95-6.7 1.45-7.95 7.85-13.55-11.45-28.8.8l-3.5-.45q-1.75.3-1.95 1.35-.2 1.25.95 1.5Q-68.45.8-57.8 8.4q-.85 1-.9 1.5l-2.5 3.35-8.85 2.4q-1.15 1.15-1.7 2.2-4.6-.4-9.9 1.45-3.05 2.8-1.9 4.5-7.2 3.5-9.35 10.25h2q3.7-2.6 7.5-3.3l.3 1.15-.85 1.35q-1 2-1 4.95v4.65q-3.9 1.65-8.25 2.65l.35.25q3.2 2.4 8.4 1.6l.65 1.95 1.55-2.3 4.4-1.45q-6.85 6.1-14.2 16.2.25 1.25-1.15 3.65l-2 3.95q6.35-5.7 12.45-9.05-4.45 5.25-7 11.95l-.95 2.6q1.1 2.3 2.95 4.7 4.5 5.85 13.25 12.05h12.55l12.4 4.85-3.7 2.35h-2.85q-3.7 1.15-3.15 2.1l-1.5.3q-5.2 2.35-7.45 6.8l-.35.65v1.1q1.3 1.95 2.65.85-.5.95-.45 1.9l.15.95q2.5 2.85 10.5 1.45-.25.7-.15 1.35.05 1.2 1.1 2.15 9.1 1.5 15.9.3 1.6 1.4 4.3 1.7 4.4-.2 5.2-1.45l2.9-1.85q7.1.25 13.4-1.95l2.2-.9q1-1.05 1.4-2.6.35-1.45.1-3.35-.8-3.5-3-6.55l-1.6-1.95 5.35.2 2 .1q1.25 6.1 3.85 8.7-2.5 2.4-4.15 6.65-1.95 3.65.45 5.05l-.4.95q-1.3 3-1.7 7.05-.25 1.2.1 2.45.45 1.6 1.95 3.25l8.15-.35q2.2-1.05 4.35-7.35.75 3.25 2.2 5.45 1.8 2.7 4.65 3.7 4.85-.35 7.45-4.95.8-1.5 1.4-3.4 2.8 3.5 5.05 3.7h3.35q1.35-.55 2.35-1.6 1.65-1.8 2.1-5.05L33 120.6l-.7-1.2q1.55-.85 1.1-3.15-2.1-5-6.75-8.6 1.75-3.1 1-7.5l6.7-.25 1.35-.05L46 91.8q6.3-3.4 11.4-3.25 4.5-4.1 5.3-11.9-2.5-3.55-4.5-7.3l-2-3.95-2.25-5.45Q58.3 62.25 64.1 64l5.95 1.55q-5.65-3.45-7.95-7.6l2.4-.65q-3.25-3.85-4.25-13.25 3.35.15 5.85-1.55 3.65.5 7.8-1.15-1.3 4.35-3.65 7.7H72q3.5-1.15 5.85-4.4l.9 3q.65 2.6 0 5.6l2.35-1.4 1-.85q4.4-4.2 5.3-11.25l-.15-2.05q3.95 2.9 6 8.7L94.6 45q2-5.65-2.85-15 1.15-.15 1.25-.9 0-.6-.65-1.6-4-4.3-10.95-3.4-2.95-2.7-7.5-4.55-4.8-3.35-10.95-5-3.4-5.85-10.6-11.85L41.9-13.7q-1.7-6.75-5.25-10.5l-2.45-2.1q3.9-2.45 6.7-7-.1 3.9 3 2.2 1.45-3.5 0-8.4 1.8 3.65 3.6 2.2-.95-9.35-8.85-22.2l.5-.85q2.5 5.1 8.25 7.4 2.05.85 4.5 1.3 2.1.1-1-3.2 4.75.95 9.1.2 2.1-.35 4.15-1.15 9.15-6.15 11.55-17.4.6 2.3 1.7 2.6.65.15 1.5-.5 3.8-6.3-4.2-21.75l-.95-1.8q2.65-1.1-2.4-6.55-3.05-3.35-12.4-.8-2.7-7.55-8.7-14.6-9.5 2.65-15.6 11.4 1-1.9.85-4.9-.2-3.5-2.05-8.55-6.1-9.3-17-16.6-3.4-.95-6.45.45z" transform="translate(95.7 136.15)"/></g><radialGradient spreadMethod="pad" r="819.2" id="a" gradientUnits="userSpaceOnUse" gradientTransform="scale(.0256)" cy="0" cx="0"><stop stop-opacity=".702" offset=".004"/><stop stop-opacity="0" offset="1"/></radialGradient><radialGradient spreadMethod="pad" r="819.2" id="b" gradientUnits="userSpaceOnUse" gradientTransform="scale(.0256)" cy="0" cx="0"><stop stop-opacity=".49" stop-color="#fff" offset=".004"/><stop stop-opacity="0" stop-color="#fff" offset="1"/></radialGradient></defs><path fill="none" d="M-1-1h296v431H-1z"/><g stroke="null"><use x="55.288" y="197.908" xlink:href="#ci" width="381" transform="translate(-406.889 -621.268) scale(2.11316)" height="381"/><use x="77.142" y="276.139" xlink:href="#cj" width="198.6" transform="translate(-126.787 -416.777) scale(1.5145)" height="282.05"/><use x="-1.571" xlink:href="#ck" width="102.95" transform="matrix(3.8189 0 0 3.49474 -97.042 52.847)" height="45"/></g></svg>