<svg width="332" height="245" xmlns="http://www.w3.org/2000/svg" xmlns:xlink="http://www.w3.org/1999/xlink"><defs><linearGradient y2=".214" y1=".809" x2=".745" x1=".241" spreadMethod="pad" id="f"><stop stop-color="#990" offset="0"/><stop stop-color="#baba01" offset="1"/></linearGradient><linearGradient y2=".612" y1=".517" x2=".423" x1=".645" spreadMethod="pad" id="g"><stop stop-color="#535300" offset="0"/><stop stop-color="#220" offset="1"/></linearGradient><linearGradient y2=".5" y1=".5" x2=".999" x1=".001" spreadMethod="pad" id="h"><stop stop-color="#723e27" offset="0"/><stop stop-color="#8d662e" offset="1"/></linearGradient><linearGradient y2=".831" y1=".158" x2=".033" x1=".899" spreadMethod="pad" id="i"><stop stop-color="#3d2014" offset="0"/><stop stop-color="#613320" offset="1"/></linearGradient><linearGradient y2=".397" y1=".607" x2=".784" x1=".323" spreadMethod="pad" id="j"><stop stop-color="#990" offset="0"/><stop stop-color="#baba01" offset="1"/></linearGradient><linearGradient y2=".266" y1=".777" x2=".79" x1=".269" spreadMethod="pad" id="k"><stop stop-color="#990" offset="0"/><stop stop-color="#baba01" offset="1"/></linearGradient><linearGradient y2=".592" y1=".399" x2="-.168" x1=".943" spreadMethod="pad" id="l"><stop stop-color="#535300" offset="0"/><stop stop-color="#220" offset="1"/></linearGradient><linearGradient y2=".499" y1=".499" x2="1" x1="0" spreadMethod="pad" id="m"><stop stop-color="#535300" offset="0"/><stop stop-color="#220" offset="1"/></linearGradient><linearGradient y2=".603" y1=".718" x2=".674" x1=".924" spreadMethod="pad" id="n"><stop stop-color="#5a633c" offset="0"/><stop stop-color="#3c4026" offset="1"/></linearGradient><linearGradient y2=".477" y1=".858" x2=".719" x1=".308" spreadMethod="pad" id="o"><stop stop-color="#a37849" offset="0"/><stop stop-color="#b08e55" offset="1"/></linearGradient><linearGradient y2=".408" y1=".589" x2=".094" x1=".698" spreadMethod="pad" id="p"><stop stop-color="#535300" offset="0"/><stop stop-color="#220" offset="1"/></linearGradient><linearGradient y2=".453" y1=".573" x2=".525" x1=".345" spreadMethod="pad" id="q"><stop stop-color="#990" offset="0"/><stop stop-color="#baba01" offset="1"/></linearGradient><linearGradient y2=".74" y1=".482" x2=".2" x1=".566" spreadMethod="pad" id="r"><stop stop-color="#3d2014" offset="0"/><stop stop-color="#613320" offset="1"/></linearGradient><linearGradient y2=".496" y1=".496" x2="1" x1="0" spreadMethod="pad" id="s"><stop stop-color="#723e27" offset="0"/><stop stop-color="#8d662e" offset="1"/></linearGradient><linearGradient y2=".501" y1=".501" x2=".998" x1="-.001" spreadMethod="pad" id="t"><stop stop-color="#723e27" offset="0"/><stop stop-color="#8d662e" offset="1"/></linearGradient><linearGradient y2=".5" y1=".5" x2=".999" x1="0" spreadMethod="pad" id="u"><stop stop-color="#723e27" offset="0"/><stop stop-color="#8d662e" offset="1"/></linearGradient><linearGradient y2=".499" y1=".499" x2=".998" x1="0" spreadMethod="pad" id="v"><stop stop-color="#723e27" offset="0"/><stop stop-color="#8d662e" offset="1"/></linearGradient><linearGradient y2=".421" y1=".736" x2=".17" x1=".719" spreadMethod="pad" id="w"><stop stop-color="#990" offset="0"/><stop stop-color="#baba01" offset="1"/></linearGradient><linearGradient y2=".497" y1=".497" x2="1.004" x1="-.002" spreadMethod="pad" id="x"><stop stop-color="#723e27" offset="0"/><stop stop-color="#8d662e" offset="1"/></linearGradient><linearGradient y2=".5" y1=".5" x2="1" x1="0" spreadMethod="pad" id="y"><stop stop-color="#b95800" offset="0"/><stop stop-color="#baba01" offset="1"/></linearGradient><linearGradient y2=".809" y1=".418" x2=".817" x1=".159" spreadMethod="pad" id="z"><stop stop-color="#432316" offset="0"/><stop offset="1"/></linearGradient><linearGradient y2=".458" y1=".551" x2=".644" x1=".176" spreadMethod="pad" id="A"><stop stop-color="#333" offset="0"/><stop stop-color="#626262" offset="1"/></linearGradient><linearGradient y2=".548" y1=".409" x2=".178" x1=".774" spreadMethod="pad" id="B"><stop stop-color="#333" offset="0"/><stop offset="1"/></linearGradient><linearGradient y2=".269" y1=".912" x2=".102" x1=".79" spreadMethod="pad" id="C"><stop stop-color="#a37849" offset="0"/><stop stop-color="#b08e55" offset="1"/></linearGradient><linearGradient y2=".831" y1=".287" x2=".5" x1=".5" spreadMethod="pad" id="D"><stop stop-color="#7e5e38" offset="0"/><stop stop-color="#64482d" offset="1"/></linearGradient><linearGradient y2="-.184" y1="1.042" x2=".414" x1=".606" spreadMethod="pad" id="E"><stop stop-color="#432316" offset="0"/><stop offset="1"/></linearGradient><linearGradient y2=".133" y1=".805" x2=".498" x1=".498" spreadMethod="pad" id="F"><stop stop-color="#7e5e38" offset="0"/><stop stop-color="#64482d" offset="1"/></linearGradient><linearGradient y2=".5" y1=".5" x2="1.001" x1="-.001" spreadMethod="pad" id="G"><stop stop-color="#723e27" offset="0"/><stop stop-color="#8d662e" offset="1"/></linearGradient><linearGradient y2=".499" y1=".499" x2=".999" x1="0" spreadMethod="pad" id="H"><stop stop-color="#723e27" offset="0"/><stop stop-color="#8d662e" offset="1"/></linearGradient><linearGradient y2=".5" y1=".5" x2=".999" x1="0" spreadMethod="pad" id="I"><stop stop-color="#a6b08a" offset="0"/><stop stop-color="#7e8c5d" offset="1"/></linearGradient><linearGradient y2=".586" y1=".12" x2=".137" x1=".818" spreadMethod="pad" id="J"><stop stop-color="#3d2014" offset="0"/><stop stop-color="#613320" offset="1"/></linearGradient><linearGradient y2=".352" y1=".59" x2=".335" x1=".785" spreadMethod="pad" id="K"><stop stop-color="#814612" offset="0"/><stop stop-color="#592b0d" offset="1"/></linearGradient><linearGradient y2=".499" y1=".499" x2=".376" x1=".681" spreadMethod="pad" id="L"><stop stop-color="#814612" offset="0"/><stop stop-color="#592b0d" offset="1"/></linearGradient><linearGradient y2=".498" y1=".498" x2="1" x1="0" spreadMethod="pad" id="M"><stop stop-color="#e07a1f" offset="0"/><stop stop-color="#df9320" offset="1"/></linearGradient><linearGradient y2=".583" y1=".583" x2=".971" x1="-.273" spreadMethod="pad" id="N"><stop stop-color="#a6b08a" offset="0"/><stop stop-color="#7e8c5d" offset="1"/></linearGradient><linearGradient y2=".5" y1=".5" x2=".999" x1=".004" spreadMethod="pad" id="O"><stop stop-color="#723e27" offset="0"/><stop stop-color="#8d662e" offset="1"/></linearGradient><linearGradient y2=".499" y1=".499" x2=".998" x1="0" spreadMethod="pad" id="P"><stop stop-color="#e07a1f" offset="0"/><stop stop-color="#df9320" offset="1"/></linearGradient><linearGradient y2=".5" y1=".5" x2=".52" x1=".751" spreadMethod="pad" id="Q"><stop stop-color="#814612" offset="0"/><stop stop-color="#592b0d" offset="1"/></linearGradient><linearGradient y2=".494" y1=".494" x2=".999" x1=".003" spreadMethod="pad" id="R"><stop stop-color="#e07a1f" offset="0"/><stop stop-color="#df9320" offset="1"/></linearGradient><linearGradient y2=".502" y1=".502" x2=".999" x1="-.002" spreadMethod="pad" id="S"><stop stop-color="#e07a1f" offset="0"/><stop stop-color="#df9320" offset="1"/></linearGradient><linearGradient y2=".503" y1=".503" x2=".002" x1=".998" spreadMethod="pad" id="T"><stop stop-color="#814612" offset="0"/><stop stop-color="#592b0d" offset="1"/></linearGradient><linearGradient y2=".499" y1=".499" x2="1.001" x1="-.001" spreadMethod="pad" id="U"><stop stop-color="#e07a1f" offset="0"/><stop stop-color="#df9320" offset="1"/></linearGradient><linearGradient y2=".503" y1=".503" x2="0" x1="1" spreadMethod="pad" id="V"><stop stop-color="#814612" offset="0"/><stop stop-color="#592b0d" offset="1"/></linearGradient><linearGradient y2=".745" y1=".256" x2=".187" x1=".855" spreadMethod="pad" id="W"><stop stop-color="#3d2014" offset="0"/><stop stop-color="#613320" offset="1"/></linearGradient><linearGradient y2=".248" y1="1" x2=".248" x1=".824" spreadMethod="pad" id="X"><stop stop-color="#432316" offset="0"/><stop offset="1"/></linearGradient><linearGradient y2=".497" y1=".497" x2=".993" x1="-.001" spreadMethod="pad" id="Y"><stop stop-color="#b95800" offset="0"/><stop stop-color="#b38e00" offset="1"/></linearGradient><linearGradient y2=".5" y1=".5" x2="1" x1="-.002" spreadMethod="pad" id="Z"><stop stop-color="#723e27" offset="0"/><stop stop-color="#8d662e" offset="1"/></linearGradient><linearGradient y2=".498" y1=".498" x2="1" x1="0" spreadMethod="pad" id="aa"><stop stop-color="#b95800" offset="0"/><stop stop-color="#b38e00" offset="1"/></linearGradient><linearGradient y2="-.128" y1=".509" x2=".115" x1=".595" spreadMethod="pad" id="ab"><stop stop-color="#3d2014" offset="0"/><stop stop-color="#613320" offset="1"/></linearGradient><linearGradient y2=".499" y1=".499" x2=".995" x1=".001" spreadMethod="pad" id="ac"><stop stop-color="#723e27" offset="0"/><stop stop-color="#8d662e" offset="1"/></linearGradient><linearGradient y2=".5" y1=".5" x2="1" x1="-.003" spreadMethod="pad" id="ad"><stop stop-color="#723e27" offset="0"/><stop stop-color="#8d662e" offset="1"/></linearGradient><linearGradient y2=".5" y1=".5" x2=".999" x1="-.003" spreadMethod="pad" id="ae"><stop stop-color="#b95800" offset="0"/><stop stop-color="#b38e00" offset="1"/></linearGradient><linearGradient y2=".499" y1=".499" x2=".995" x1="-.001" spreadMethod="pad" id="af"><stop stop-color="#b95800" offset="0"/><stop stop-color="#b38e00" offset="1"/></linearGradient><linearGradient y2=".5" y1=".5" x2="1.002" x1="-.002" spreadMethod="pad" id="ag"><stop stop-color="#b95800" offset="0"/><stop stop-color="#b38e00" offset="1"/></linearGradient><linearGradient y2=".493" y1=".493" x2="1" x1="-.004" spreadMethod="pad" id="ah"><stop stop-color="#b95800" offset="0"/><stop stop-color="#b38e00" offset="1"/></linearGradient><linearGradient y2=".695" y1=".721" x2=".231" x1=".185" spreadMethod="pad" id="ai"><stop stop-color="#814612" offset="0"/><stop stop-color="#592b0d" offset="1"/></linearGradient><linearGradient y2=".498" y1=".498" x2="1" x1="-.002" spreadMethod="pad" id="aj"><stop stop-color="#e07a1f" offset="0"/><stop stop-color="#df9320" offset="1"/></linearGradient><linearGradient y2=".278" y1=".805" x2="1.12" x1="-.151" spreadMethod="pad" id="ak"><stop stop-color="#814612" offset="0"/><stop stop-color="#592b0d" offset="1"/></linearGradient><linearGradient y2=".5" y1=".5" x2="1.001" x1="-.001" spreadMethod="pad" id="al"><stop stop-color="#814612" offset="0"/><stop stop-color="#592b0d" offset="1"/></linearGradient><linearGradient y2=".499" y1=".499" x2=".999" x1="0" spreadMethod="pad" id="am"><stop stop-color="#e07a1f" offset="0"/><stop stop-color="#df9320" offset="1"/></linearGradient><linearGradient y2=".445" y1=".769" x2=".463" x1=".428" spreadMethod="pad" id="an"><stop stop-color="#5a633c" offset="0"/><stop stop-color="#3c4026" offset="1"/></linearGradient><linearGradient y2=".499" y1=".499" x2="1" x1="-.001" spreadMethod="pad" id="ao"><stop stop-color="#814612" offset="0"/><stop stop-color="#592b0d" offset="1"/></linearGradient><linearGradient y2=".287" y1=".287" x2="1.231" x1="-.004" spreadMethod="pad" id="ap"><stop stop-color="#a6b08a" offset="0"/><stop stop-color="#7e8c5d" offset="1"/></linearGradient><linearGradient y2=".953" y1=".367" x2=".744" x1=".236" spreadMethod="pad" id="aq"><stop stop-color="#3d2014" offset="0"/><stop stop-color="#613320" offset="1"/></linearGradient><linearGradient y2=".498" y1=".498" x2="1" x1="-.001" spreadMethod="pad" id="ar"><stop stop-color="#e07a1f" offset="0"/><stop stop-color="#df9320" offset="1"/></linearGradient><linearGradient y2=".5" y1=".5" x2="1" x1="0" spreadMethod="pad" id="as"><stop stop-color="#814612" offset="0"/><stop stop-color="#592b0d" offset="1"/></linearGradient><linearGradient y2=".498" y1=".498" x2=".999" x1="0" spreadMethod="pad" id="at"><stop stop-color="#e07a1f" offset="0"/><stop stop-color="#df9320" offset="1"/></linearGradient><linearGradient y2=".499" y1=".499" x2=".998" x1=".046" spreadMethod="pad" id="au"><stop stop-color="#a6b08a" offset="0"/><stop stop-color="#7e8c5d" offset="1"/></linearGradient><linearGradient y2=".498" y1=".498" x2="1" x1="-.004" spreadMethod="pad" id="av"><stop stop-color="#a6b08a" offset="0"/><stop stop-color="#7e8c5d" offset="1"/></linearGradient><linearGradient y2=".477" y1=".477" x2="1" x1="0" spreadMethod="pad" id="aw"><stop stop-color="#a6b08a" offset="0"/><stop stop-color="#7e8c5d" offset="1"/></linearGradient><linearGradient y2=".5" y1=".5" x2="1.001" x1="-.001" spreadMethod="pad" id="ax"><stop stop-color="#723e27" offset="0"/><stop stop-color="#8d662e" offset="1"/></linearGradient><linearGradient y2=".499" y1=".499" x2=".999" x1="0" spreadMethod="pad" id="ay"><stop stop-color="#e07a1f" offset="0"/><stop stop-color="#df9320" offset="1"/></linearGradient><linearGradient y2=".823" y1=".475" x2=".721" x1=".417" spreadMethod="pad" id="az"><stop stop-color="#814612" offset="0"/><stop stop-color="#592b0d" offset="1"/></linearGradient><linearGradient y2=".946" y1=".017" x2=".818" x1=".084" spreadMethod="pad" id="aA"><stop stop-color="#814612" offset="0"/><stop stop-color="#592b0d" offset="1"/></linearGradient><linearGradient y2=".5" y1=".5" x2=".999" x1="-.002" spreadMethod="pad" id="aB"><stop stop-color="#e07a1f" offset="0"/><stop stop-color="#df9320" offset="1"/></linearGradient><linearGradient y2=".498" y1=".498" x2="1.001" x1="-.001" spreadMethod="pad" id="aC"><stop stop-color="#e07a1f" offset="0"/><stop stop-color="#df9320" offset="1"/></linearGradient><linearGradient y2=".245" y1=".558" x2=".268" x1=".762" spreadMethod="pad" id="aD"><stop stop-color="#814612" offset="0"/><stop stop-color="#592b0d" offset="1"/></linearGradient><linearGradient y2=".497" y1=".497" x2="1.006" x1="-.006" spreadMethod="pad" id="aE"><stop stop-color="#723e27" offset="0"/><stop stop-color="#8d662e" offset="1"/></linearGradient><linearGradient y2=".223" y1=".894" x2=".957" x1=".157" spreadMethod="pad" id="aF"><stop stop-color="#3d2014" offset="0"/><stop stop-color="#613320" offset="1"/></linearGradient><linearGradient y2=".5" y1=".5" x2="1" x1="-.001" spreadMethod="pad" id="aG"><stop stop-color="#723e27" offset="0"/><stop stop-color="#8d662e" offset="1"/></linearGradient><linearGradient y2=".618" y1=".386" x2=".684" x1=".342" spreadMethod="pad" id="aH"><stop stop-color="#432316" offset="0"/><stop offset="1"/></linearGradient><linearGradient y2=".703" y1="-.17" x2=".78" x1=".111" spreadMethod="pad" id="aI"><stop stop-color="#432316" offset="0"/><stop offset="1"/></linearGradient><linearGradient y2=".5" y1=".5" x2="1.007" x1="-.007" spreadMethod="pad" id="aJ"><stop stop-color="#b95800" offset="0"/><stop stop-color="#baba01" offset="1"/></linearGradient><linearGradient y2=".498" y1=".498" x2=".999" x1="-.001" spreadMethod="pad" id="aK"><stop stop-color="#e07a1f" offset="0"/><stop stop-color="#df9320" offset="1"/></linearGradient><linearGradient y2=".498" y1=".498" x2="1" x1="0" spreadMethod="pad" id="aL"><stop stop-color="#814612" offset="0"/><stop stop-color="#592b0d" offset="1"/></linearGradient><linearGradient y2=".491" y1=".491" x2=".999" x1="0" spreadMethod="pad" id="aM"><stop stop-color="#e07a1f" offset="0"/><stop stop-color="#df9320" offset="1"/></linearGradient><linearGradient y2=".498" y1=".498" x2="1.001" x1="-.001" spreadMethod="pad" id="aN"><stop stop-color="#814612" offset="0"/><stop stop-color="#592b0d" offset="1"/></linearGradient><linearGradient y2=".497" y1=".497" x2=".998" x1=".003" spreadMethod="pad" id="aO"><stop stop-color="#e07a1f" offset="0"/><stop stop-color="#df9320" offset="1"/></linearGradient><linearGradient y2=".501" y1=".501" x2="1.001" x1="-.001" spreadMethod="pad" id="aP"><stop stop-color="#814612" offset="0"/><stop stop-color="#592b0d" offset="1"/></linearGradient><linearGradient y2=".501" y1=".501" x2=".998" x1=".001" spreadMethod="pad" id="aQ"><stop stop-color="#814612" offset="0"/><stop stop-color="#592b0d" offset="1"/></linearGradient><linearGradient y2=".5" y1=".5" x2=".984" x1=".337" spreadMethod="pad" id="aR"><stop stop-color="#814612" offset="0"/><stop stop-color="#592b0d" offset="1"/></linearGradient><linearGradient y2=".499" y1=".499" x2=".999" x1=".001" spreadMethod="pad" id="aS"><stop stop-color="#e07a1f" offset="0"/><stop stop-color="#df9320" offset="1"/></linearGradient><linearGradient y2="-.104" y1="1.037" x2=".862" x1=".071" spreadMethod="pad" id="aT"><stop stop-color="#3d2014" offset="0"/><stop stop-color="#613320" offset="1"/></linearGradient><linearGradient y2=".499" y1=".499" x2="1.003" x1="-.002" spreadMethod="pad" id="aU"><stop stop-color="#b95800" offset="0"/><stop stop-color="#b38e00" offset="1"/></linearGradient><linearGradient y2=".399" y1=".867" x2=".618" x1=".203" spreadMethod="pad" id="aV"><stop stop-color="#432316" offset="0"/><stop offset="1"/></linearGradient><linearGradient y2=".499" y1=".499" x2=".997" x1="-.005" spreadMethod="pad" id="aW"><stop stop-color="#b95800" offset="0"/><stop stop-color="#b38e00" offset="1"/></linearGradient><linearGradient y2=".024" y1=".497" x2=".843" x1=".461" spreadMethod="pad" id="aX"><stop stop-color="#3d2014" offset="0"/><stop stop-color="#613320" offset="1"/></linearGradient><linearGradient y2=".5" y1=".5" x2="1" x1="-.001" spreadMethod="pad" id="aY"><stop stop-color="#723e27" offset="0"/><stop stop-color="#8d662e" offset="1"/></linearGradient><linearGradient y2=".499" y1=".499" x2=".997" x1=".003" spreadMethod="pad" id="aZ"><stop stop-color="#b95800" offset="0"/><stop stop-color="#b38e00" offset="1"/></linearGradient><linearGradient y2=".5" y1=".5" x2="1" x1="0" spreadMethod="pad" id="ba"><stop stop-color="#814612" offset="0"/><stop stop-color="#592b0d" offset="1"/></linearGradient><linearGradient y2=".5" y1=".5" x2="1" x1="-.002" spreadMethod="pad" id="bb"><stop stop-color="#e07a1f" offset="0"/><stop stop-color="#df9320" offset="1"/></linearGradient><linearGradient y2=".499" y1=".499" x2="1.001" x1="-.009" spreadMethod="pad" id="bc"><stop stop-color="#814612" offset="0"/><stop stop-color="#592b0d" offset="1"/></linearGradient><linearGradient y2=".498" y1=".498" x2=".996" x1=".004" spreadMethod="pad" id="bd"><stop stop-color="#e07a1f" offset="0"/><stop stop-color="#df9320" offset="1"/></linearGradient><linearGradient y2=".498" y1=".498" x2=".997" x1=".001" spreadMethod="pad" id="be"><stop stop-color="#b95800" offset="0"/><stop stop-color="#b38e00" offset="1"/></linearGradient><linearGradient y2=".499" y1=".499" x2="1.002" x1="-.002" spreadMethod="pad" id="bf"><stop stop-color="#723e27" offset="0"/><stop stop-color="#8d662e" offset="1"/></linearGradient><linearGradient y2=".5" y1=".5" x2="1" x1="-.002" spreadMethod="pad" id="bg"><stop stop-color="#723e27" offset="0"/><stop stop-color="#8d662e" offset="1"/></linearGradient><linearGradient y2=".498" y1=".498" x2="1.001" x1="-.003" spreadMethod="pad" id="bh"><stop stop-color="#b95800" offset="0"/><stop stop-color="#b38e00" offset="1"/></linearGradient><linearGradient y2=".493" y1=".493" x2=".994" x1="0" spreadMethod="pad" id="bi"><stop stop-color="#b95800" offset="0"/><stop stop-color="#b38e00" offset="1"/></linearGradient><use xlink:href="#a" width="107.2" height="107.2" id="d"/><use xlink:href="#b" width="268.3" height="187.95" id="e"/><use xlink:href="#c" width="102.95" height="45" id="bm"/><g id="bk" stroke-opacity="0" stroke-linejoin="round" stroke-linecap="round" stroke="#f0f" fill="none"><path d="M187.95-293.5v380h-380v-380h380M92.95.6H-97" transform="translate(192.55 294)"/><path d="m187.95-293.5-190 190 190 190m-379.95 0 189.95-190-190-190" transform="translate(192.55 294)"/></g><g transform="translate(139.65 101.8)" id="bl"><use xlink:href="#d" width="107.2" transform="matrix(2.5494 0 0 .4871 -133.65 49.592)" height="107.2"/><use xlink:href="#e" width="268.3" transform="translate(-139.65 -101.8)" height="187.95"/></g><g id="b"><path fill-rule="evenodd" fill="url(#f)" d="m85.2-80.25-2.45 1.9q-5.25 7.3-13.5 12.4l7.2-9.65-4.65.75h-8.05q-4.2 1.25-7.6 4.95l-4.2 4.2-1.55-2.8q2.95-1.05 4.3-2.9l4.85-5.75 1-1.2 3-2.2q2 .75 6.1 1.65h3.8q7.05-1.35 13.35-4.7l-1.6 3.35" transform="translate(134.15 93.95)"/><path fill-rule="evenodd" fill="url(#g)" d="m51.95-65.7 4.2-4.2q3.4-3.7 7.6-4.95h8.05l4.65-.75-7.2 9.65q8.25-5.1 13.5-12.4l2.45-1.9q-2.05 3.75-5.15 7.15L68-61.9l-2.45 2.3h-2.2L52.7-62.05l.55-1.25-.55-1-.75-1.4m15.8-5.3 1.6-2.1q-4.25-.05-11.3 3.25-3.4 2.6-5.35 5.55 1.95-2.95 5.35-5.55 7.05-3.3 11.3-3.25l-1.6 2.1" transform="translate(134.15 93.95)"/><path fill-rule="evenodd" fill="url(#h)" d="m60.55-78.35-1 1.2q-1.2-1.65-3.95-2.75 2.7-2.3 0-3.2-3.75.05-7.5 3.05.65-2.1-1.15-3.3-4.85 1.4-7.45 11.15l-4.6-.7q3.35-9.2 11.65-15.6 4.2-4.25 4.1 4.45 5.15-1.45 9.25-.45 2.35 1.35-2.35 4 2.25.55 3 2.15" transform="translate(134.15 93.95)"/><path fill-rule="evenodd" fill="url(#i)" d="M59.55-77.15 54.7-71.4q-1.35 1.85-4.3 2.9l-1.6-3-2.6-1.4-3.25 2.15q-1.3-.9-3.45-1.45 2.6-9.75 7.45-11.15 1.8 1.2 1.15 3.3 3.75-3 7.5-3.05 2.7.9 0 3.2 2.75 1.1 3.95 2.75" transform="translate(134.15 93.95)"/><path fill-rule="evenodd" fill="url(#j)" d="m50.4-68.5 1.55 2.8.75 1.4.55 1-.55 1.25-.35.85-.4.85-.9.7q1.1-1.8-1-5.95-1.5-2.15-3.45-2.3l-1.5.95-1.5-3.3-.65-.5 3.25-2.15 2.6 1.4 1.6 3" transform="translate(134.15 93.95)"/><path fill-rule="evenodd" fill="url(#k)" d="m42.95-70.75.65.5 1.5 3.3.7 2.85q-.8-4.05-3.95-4.4l-6 6.45Q29.5-58.7 22.4-58.9q-.1-2.5-1.45-5.2l5.65-1.45 6.95-2.95 1.1-.45q.8-.7-.05-2.6l-2-2.1q1.05.6 2.3.75l4.6.7q2.15.55 3.45 1.45m-3.1 1.45h-4.4l-.8.35.8-.35h4.4" transform="translate(134.15 93.95)"/><path fill-rule="evenodd" fill="url(#l)" d="m45.1-66.95 1.5-.95q1.95.15 3.45 2.3 2.1 4.15 1 5.95l-.9.7-2.6 1.95-3.35.1.65-1.25q.7-1.1.95-2.6l.1-2.25-.1-1.1-.7-2.85m3 3.75.8-1.6-1.05-.4-2.05 4.45 2.05-4.45 1.05.4-.8 1.6" transform="translate(134.15 93.95)"/><path fill-rule="evenodd" fill="url(#m)" d="m45.8-64.1.1 1.1-.1 2.25q-.25 1.5-.95 2.6l-.65 1.25q-.95 1.4-2.25 2.4l-.8.55-8 4.4-1.55.75q-2.05.9-4.35 1.55l-3.5.85h-.1l-1.55.25Q10.3-46.3-1.15-49.1l-13.15-5.3-6.1-3.3-.85-.45q-1.7-1.25-3.4-4.6l-.05-.05q-.4-.75-.05-2.35l.4-1.5q2.6-4 5.25-3.5-1.45 1.05-1.95 2.65l1.1.65q.3 3.6 2.95 6.6-1-2.85-.65-5.25l4.4 2.55q.1 3.5 1.45 6.6-.55-2.95.35-5.9l19.25 2.9 7-.05q3.5 4.65 5.4 5.1.9.2 1.45-.6.8-1.95.75-4 7.1.2 13.45-3.15l6-6.45q3.15.35 3.95 4.4" transform="translate(134.15 93.95)"/><path fill-rule="evenodd" fill="url(#n)" d="M41.95-54.5q1.3-1 2.25-2.4l3.35-.1 2.6-1.95 2.1 2.5 2.85 6.3q2.05 3.1 5.5 3.35l1.2.1Q65.65-33.3 75-22.4q-3.65.95-7.35-2.5l.5 3.8q.7 4 2.3 8l.75 1.8.6 1.3 1.1 2.15-1.75-1.8-1.8-1.8.6 2.8.4 4v2.15l-.4 3.4q-.65 3.15-2.35 5.6-1.2-.9-3.55.3 2.75-5.7 2.1-13.65l2.95 3.8q-.5-6.05-3.2-13.6l2.05 2.55-2.7-13.3 1.3 1.1-2.05-6.35L63-29.5q-.1-3.05-2.4-5.7 1.4 9.55 0 17.55l-2.45-11.6q-1.05 19.1-9 25.05l3.65-2.3Q48.75 2.1 42.15 8.65l3.15-1.3q-3.75 5.75-10.15 10.3l9.9-3.05-3.3 4.25q-3.25 1.95-7 4.95-2.8-.75-5.85-.8-6.4-.1-13.85 2.95-2.3-1.65-5.8-1.7-6.55-.1-16.8 3.9-2.05-2.15-6.75-2.5l-8.05.35q-2.9-2-6.85-2.75l-5-.5 21.25-4.3-3.8 3.6 22.3-10.1Q7.8 10.2 10 8.4l2.7-2.15L7.9 7.3 14 2.4l2.95-2.45L20.1-5.3l-4.45 3.15 5.05-9 5.05.85q15.35-3.8 20-12.5 3 3 4.95-1.15 1.8-4 2.7-14.5 7.25-.4-6.15-11.7 5.95-2.65-5.3-4.35m-.5 44.85Q36.1-2.5 30.15 1.5l5.65-3.35q7.25-4.15 5.65-7.8m-12.9 27.1L34.3 8.2q-6.1 8.35-16.05 13.95l10.3-4.7" transform="translate(134.15 93.95)"/><path fill-rule="evenodd" fill="url(#o)" d="m31.6-48.8 1.55-.75 8-4.4.8-.55q11.25 1.7 5.3 4.35 13.4 11.3 6.15 11.7-.9 10.5-2.7 14.5 2-11.2-4.85-14.3 2.9.5 3.05-1.15-1-4.1-6.9-5.6-10.45 2-22.25 10.5l-.6-1.3-1.1-2.15q2.8-3.65 6.85-6.7l2.9-1.95q1.8-1.2 3.8-2.2" transform="translate(134.15 93.95)"/><path fill-rule="evenodd" fill="url(#p)" d="m51.05-59.65.9-.7.4-.85.35-.85 10.65 2.45h2.2L68-61.9q.2.95 1.55 1.85L67.2-58.2q.8 2.25 3.8 3.05-4.4 2.45-10.65 1.65-.7 1.55 3.4 2.8l10.85-.35q5.4-1.25 10-5.45l-2.05 3.1q-1.15 1.6-2.75 2.8-1.1.85-2.4 1.55-1.65.85-3.65 1.4l-1 .2-10.95.75-1.2-.1q-3.45-.25-5.5-3.35l-2.85-6.3-2.1-2.5.9-.7m13 2.15 2 .8-2.65.85-11.05-5.35 11.05 5.35 2.65-.85-2-.8" transform="translate(134.15 93.95)"/><path fill-rule="evenodd" fill="url(#q)" d="M84.6-56.5q-4.6 4.2-10 5.45l-10.85.35q-4.1-1.25-3.4-2.8 6.25.8 10.65-1.65-3-.8-3.8-3.05l2.35-1.85q1.1.75 2.9 1.5 7.25 1.3 13.2-1.7-.15 1.9-1.05 3.75" transform="translate(134.15 93.95)"/><path fill-rule="evenodd" fill="url(#r)" d="M20.2-54.3q-1.9-.45-5.4-5.1L11-64.9l-15.1-2.4-5.85-2.7q1-6.35 3.1-6.6l1.4.65.4.2 1.05 1.4Q4.85-90.4 7.45-89.85q1.55.85-.9 5.4l-.35.55-2.6 2.7 2.3 1.15Q23.95-93.7 23.15-85.2l-4.55 4.1-2.5 1.15 2 1.05q21.45-3.7 13.75 1.45l-4.3 1.2v2.7q7.4 1.25 6 5.05l-6.95 2.95-5.65 1.45q-1.3-2.55-3.8-5.25-5.25-5.25-3.5-2.05 8.95 9 6.55 17.1M7.25-68.4q2.9 2.05 3.75 3.5-.85-1.45-3.75-3.5" transform="translate(134.15 93.95)"/><path fill-rule="evenodd" fill="url(#s)" d="M18.6-81.1q4.15-1.7 9.8-2.3 6.5.45 9.35 2.6 1.1 1.15-5.9 3.35 7.7-5.15-13.75-1.45l-2-1.05 2.5-1.15" transform="translate(134.15 93.95)"/><path fill-rule="evenodd" fill="url(#t)" d="M6.75-84.3q1.95-1.65 4.4-3 14.6-7.25 14.9-2.75.2 1.65-2.9 4.85.8-8.5-17.25 5.15L3.6-81.2l2.6-2.7.55-.4" transform="translate(134.15 93.95)"/><path fill-rule="evenodd" fill="url(#u)" d="M-5.35-76.15Q-4.2-82 1.4-87.55q4.8-5.4 8.4-6.1 1.45-.6 2.5 0 3 .35-5.55 9.35l-.2-.15q2.45-4.55.9-5.4Q4.85-90.4-4-74.35l-1.05-1.4-.4-.2.1-.2" transform="translate(134.15 93.95)"/><path fill-rule="evenodd" fill="#723e27" d="m6.55-84.45.2.15-.55.4.35-.55M-106.4 21.3h.05l.2.2-.25-.2m13.5 33.35.65-3.3 1.9 6.85-2.55-3.55" transform="translate(134.15 93.95)"/><path fill-rule="evenodd" fill="url(#v)" d="M22.4-58.9q.05 2.05-.75 4-.55.8-1.45.6 2.4-8.1-6.55-17.1-1.75-3.2 3.5 2.05 2.5 2.7 3.8 5.25 1.35 2.7 1.45 5.2" transform="translate(134.15 93.95)"/><path fill-rule="evenodd" fill="url(#w)" d="m14.8-59.4-7 .05-19.25-2.9q-.9 2.95-.35 5.9-1.35-3.1-1.45-6.6l-4.4-2.55q-.35 2.4.65 5.25-2.65-3-2.95-6.6l-1.1-.65q.5-1.6 1.95-2.65-2.65-.5-5.25 3.5l.9-2.35.65-.7 1.5-1.6q2.25-2.15 6.8-3.2l3.6.45-1.25 3.05-1.4-.65q-1.2-.7-2.45 0 1.25-.7 2.45 0l1.4.65 2.2 1 5.85 2.7L11-64.9l3.8 5.5" transform="translate(134.15 93.95)"/><path fill-rule="evenodd" fill="url(#x)" d="m27.55-76.25 5.05 2.6 2 2.1q.85 1.9.05 2.6l-1.1.45q1.4-3.8-6-5.05v-2.7" transform="translate(134.15 93.95)"/><path fill-rule="evenodd" fill="#3d2014" d="M23.65-46.4h.1l-.05.3-.05-.3m3.6-.85q2.3-.65 4.35-1.55-2 1-3.8 2.2l-.55-.65M67.6 6.5q1.7-2.45 2.35-5.6l5 .75q-2.6.55-3.3 2.5-1.25 1.5-1.85 3.3l-2.2-.95m2.85-19.6q-1.6-4-2.3-8 1.6 5.5 6.55 5.95l-4.25 2.05" transform="translate(134.15 93.95)"/><path fill-rule="evenodd" fill="url(#y)" d="m23.75-46.4 3.5-.85.55.65-2.9 1.95-.6-.35q-.6-.45-.6-1.1l.05-.3" transform="translate(134.15 93.95)"/><path fill-rule="evenodd" fill="url(#z)" d="m-20.4-57.7 6.1 3.3 13.15 5.3q11.45 2.8 23.25 2.95l1.55-.25.05.3q0 .65.6 1.1l.6.35q-4.05 3.05-6.85 6.7-3-4.55-9-4.05-1.8.5-3.25 1.8-1.5 1.3-2.6 3.45-8.75-8.7-21.8-11.25l-.45-.1q-1.45-.55-1.45-2.45l-.25-.5v-.1l-.05.05q-1.35-3.15.4-6.6m16.65 11.35q0-.65-.65-1.15l-1.45-.45q-.85 0-1.5.45-.6.5-.6 1.15 0 .65.6 1.1.65.5 1.5.5t1.45-.5q.65-.45.65-1.1" transform="translate(134.15 93.95)"/><path fill-rule="evenodd" fill="url(#A)" d="m18.05-37.95 1.1 2.15.6 1.3 3.05 7q-.5 7.8-4.7 9.45-4.45 1.4-8.9-.65-3.7-1.8-4.45-5.95-.6-7.8 1.05-15.55 1.45-1.3 3.25-1.8 6-.5 9 4.05" transform="translate(134.15 93.95)"/><path fill-rule="evenodd" fill="url(#B)" d="m2.6-32.1.6-4.65q1.1-2.15 2.6-3.45-1.65 7.75-1.05 15.55.75 4.15 4.45 5.95 4.45 2.05 8.9.65 4.2-1.65 4.7-9.45 1.65 3.7 1.3 7.05-1.4 4.5-6.5 5.4-5.15 1.2-8.05.2-2.3-2-5-3.25-.6.3.4 1.3-1.55-.2-2.4-2.05-.75-5.95.05-13.25" transform="translate(134.15 93.95)"/><path fill-rule="evenodd" fill="url(#C)" d="m3.2-36.75-.6 4.65q-18.15-11.65-32.3-4.5v-3.9q-2.6 1.85-3.05 6.2L-34-36.7q-1.25 6.3 2.45 12.6l-2.25-3.4-1.35-2.15q-3.35 3.4-1.45-8-3.85 1.5-3.8-2.1-.1-.9 1.3-2.1 1.8-1.7 6.45-4 4.55-2.3 11.85-5.25l.05.05.25.5q0 1.9 1.45 2.45l.45.1q13.05 2.55 21.8 11.25" transform="translate(134.15 93.95)"/><path fill-rule="evenodd" fill="url(#D)" d="M50.7-23.95q-1.95 4.15-4.95 1.15-4.65 8.7-20 12.5l-5.05-.85-4.85-.8q-5.3.15-10.1 2.05-2 .75-3.9 1.8-16.2 1.45-28.6-13.35.5 5.05-4.8-2.65-3.7-6.3-2.45-12.6l1.25 2.4q.45-4.35 3.05-6.2v3.9q14.15-7.15 32.3 4.5-.8 7.3-.05 13.25.85 1.85 2.4 2.05-1-1-.4-1.3 2.7 1.25 5 3.25 2.9 1 8.05-.2 5.1-.9 6.5-5.4.35-3.35-1.3-7.05l-3.05-7Q31.55-43 42-45q5.9 1.5 6.9 5.6-.15 1.65-3.05 1.15 6.85 3.1 4.85 14.3" transform="translate(134.15 93.95)"/><path fill-rule="evenodd" fill="url(#E)" d="m20.7-11.15-5.05 9L20.1-5.3 16.95-.05 14 2.4Q2.75 6.6-6.75 4.3l-5.05-6.35h-5.5q-10.55-6.1-9.3-12.2l-1.65 5.05-5.55-10.95v-7.35l2.25 3.4q5.3 7.7 4.8 2.65 12.4 14.8 28.6 13.35 1.9-1.05 3.9-1.8 7.8 3.25 14.95-1.25" transform="translate(134.15 93.95)"/><path fill-rule="evenodd" fill="url(#F)" d="M5.75-9.9q4.8-1.9 10.1-2.05l4.85.8Q13.55-6.65 5.75-9.9" transform="translate(134.15 93.95)"/><path fill-rule="evenodd" fill="url(#G)" d="m77.4-49.05 3.45 3.45q1.9 2.25 2.2 3.65-3.35-3.35-10.3-5.5l1-.2q2-.55 3.65-1.4" transform="translate(134.15 93.95)"/><path fill-rule="evenodd" fill="url(#H)" d="m80.85-45.6-3.45-3.45q1.3-.7 2.4-1.55l3.4 1.7q6.5-2.6 12.25 0 8.45 5.5 10.7 10.95 4.4 6.15 4.2 10.8-6.5.55-13 2.2 6.7-6.75-3.2-20.4-4.3-1.35-5.7 1.25l-7.6-1.5" transform="translate(134.15 93.95)"/><path fill-rule="evenodd" fill="url(#I)" d="m41.75 18.85 3.3-4.25-9.9 3.05q6.4-4.55 10.15-10.3l-3.15 1.3Q48.75 2.1 52.8-6.5l-3.65 2.3q7.95-5.95 9-25.05l2.45 11.6q1.4-8 0-17.55 2.3 2.65 2.4 5.7l1.5-3.15 2.05 6.35-1.3-1.1 2.7 13.3-2.05-2.55q2.7 7.55 3.2 13.6l-2.95-3.8q.65 7.95-2.1 13.65-3.4 1.75-9.25 8.05l-.65.95q-1.95-.8-4.55-.3-3.4.65-7.85 3.35" transform="translate(134.15 93.95)"/><path fill-rule="evenodd" fill="url(#J)" d="m68.15-21.1-.5-3.8q3.7 3.45 7.35 2.5-9.35-10.9-13.2-24.3l10.95-.75q6.95 2.15 10.3 5.5-.3-1.4-2.2-3.65l7.6 1.5q1.4-2.6 5.7-1.25 9.9 13.65 3.2 20.4l-3.7 1q.6-3.85-2.95-8.1 1.6 6.1-.75 9.6l-15.25 7.3q-4.95-.45-6.55-5.95" transform="translate(134.15 93.95)"/><path fill-rule="evenodd" fill="url(#K)" d="m69.95.9.4-3.4v-2.15Q77.9-6.8 85.15-8.2l3.3.75L83.6-5.6q16.55 2.55 30.1 7.4-3.7 3.35-9.5 2.25 11.2 5.1 8.5 8.3-.8 1.75-4.95 1.35Q97.4 6.65 84.3 2.45q-6.1-1.5-9.35-.8l-5-.75M94.8 3.7l3.35-1.5q-12.5-4.8-27.8-4.7 15.3-.1 27.8 4.7L94.8 3.7" transform="translate(134.15 93.95)"/><path fill-rule="evenodd" fill="#e07a1f" d="m69.95-8.65-.6-2.8 1.8 1.8-1.2 1" transform="translate(134.15 93.95)"/><path fill-rule="evenodd" fill="url(#L)" d="m70.35-4.65-.4-4 1.2-1 1.75 1.8L71.8-10l-.6-1.3q13.25-6.85 26-8 19.55-.8 8.65 3.4 6.2 3.1 14.1 2.65l.55.95q.65 2.15-5.7 1.45-14.2-.4-29.65 2.65-7.25 1.4-14.8 3.55m22.55-10.2 3.15-1.85Q83.95-15.55 71.8-10q12.15-5.55 24.25-6.7l-3.15 1.85" transform="translate(134.15 93.95)"/><path fill-rule="evenodd" fill="url(#M)" d="m71.2-11.3-.75-1.8 4.25-2.05 15.25-7.3 2.1-1 1.6-.5 3.7-1q6.5-1.65 13-2.2l7.2-.3 1.25 2.3-1.05 2.1q-.85 4.2 2.2 9.8-7.9.45-14.1-2.65 10.9-4.2-8.65-3.4-12.75 1.15-26 8" transform="translate(134.15 93.95)"/><path fill-rule="evenodd" fill="url(#N)" d="M41.45-9.65q1.6 3.65-5.65 7.8L30.15 1.5q5.95-4 11.3-11.15" transform="translate(134.15 93.95)"/><path fill-rule="evenodd" fill="url(#O)" d="m93.65-23.95-1.6.5-2.1 1q2.35-3.5.75-9.6 3.55 4.25 2.95 8.1" transform="translate(134.15 93.95)"/><path fill-rule="evenodd" fill="url(#P)" d="m114.9-1.1 4.1 1 1.05 3.15-4.2 6.55q1.35 4.9-1.7 6.1h-4.35l-.65-1.05-1.4-.95q4.15.4 4.95-1.35 2.7-3.2-8.5-8.3 5.8 1.1 9.5-2.25-13.55-4.85-30.1-7.4l4.85-1.85L114.9-1.1" transform="translate(134.15 93.95)"/><path fill-rule="evenodd" fill="url(#Q)" d="M114.8-10.85Q114.2-8.8 114-7q-9.8.2-8.95 2.3l9.15 1.85q.2.95.7 1.75L88.45-7.45l-3.3-.75q15.45-3.05 29.65-2.65" transform="translate(134.15 93.95)"/><path fill-rule="evenodd" fill="url(#R)" d="M114-7q-.3 2.35.2 4.15l-9.15-1.85Q104.2-6.8 114-7" transform="translate(134.15 93.95)"/><path fill-rule="evenodd" fill="url(#S)" d="m116.8 9.4 17.35-3.75q-2.55 2.65-3.85 5.3-6.5 1.7-11.9.1l-1.6-1.65" transform="translate(134.15 93.95)"/><path fill-rule="evenodd" fill="url(#T)" d="m121.75 17.8 2.2 2.05q-2.35-.75-3.25.9l-.2 4.25q-.85.8-1.5 1.9l-7.25-7.55-.8-1.6 10.8.05" transform="translate(134.15 93.95)"/><path fill-rule="evenodd" fill="url(#U)" d="m123.95 19.85 3.25 3.05q-4.25-.3-6.7 2.1l.2-4.25q.9-1.65 3.25-.9" transform="translate(134.15 93.95)"/><path fill-rule="evenodd" fill="url(#V)" d="m115.85 9.6.95-.2 1.6 1.65q5.4 1.6 11.9-.1-1.75 3.45-1.4 6.9l-7.15-.05-10.8-.05-1.15-2.05h4.35q3.05-1.2 1.7-6.1" transform="translate(134.15 93.95)"/><path fill-rule="evenodd" fill="url(#W)" d="m111.75 19.35.7 1.45q-8.9-8.7-18.7-13.2-10.05-2 2.45 4.45 4.85 5.05 4.55 8.8 2.55-.6 5.1.75 8.1 5.65 7.15 12.6l-3.15 1.3-1.8.75q1.8-2 1.95-5.2-.7-3.7-3.8-5.85l-1.05-.65q-2.4-1.3-5.5.6-1.4 3.15-2.45 6l-1.6-2.9 1.1-1.6q2.05-3.65 0-9.05-1.25-2.35-3.2-2.95l-2.05-.2q-3.3 1.2-5.65 4l-.95 4.4-2.6-.6 2.5-5.7-.85-6.1q-1.8-3-3.85-3.75l-3.3.15q-4 2.1-5.3 6.1v2.75q-1.15 1.4-2.3-4.65.05-1.85.6-3.5l.05-.1q.6-1.8 1.85-3.3.7-1.95 3.3-2.5 3.25-.7 9.35.8 13.1 4.2 23.45 11.25l1.4.95.65 1.05 1.15 2.05.8 1.6" transform="translate(134.15 93.95)"/><path fill-rule="evenodd" fill="#3e1e00" d="M115.3 89q-3.3-.3-6.6-2.8-1.35-1.35-2.05-2.7-.55-1.1-.7-2.15-.8-4 1.5-6.25l4.6 3.2-.7-2.4 2.7 4.6 1.25 8.5m-14.1 2q-4.2.75-7.25-2.9-1.7-2-2.2-4-.3-.95-.3-1.9 1.4-4.95 4.9-5.85l1.7 7.4-1.75-2.1 1.5 4.45 3.4 4.9M84 92.15l-.75.35q-3.65-.4-6.55-3.15-1.9-1.7-2.05-5-.1-2.3.6-5.35L78 75.45l1.75-.7-.6 10.35 1.2-2.9 1.15 5.15 2.5 4.8M-68.5 90q-3.25 2.75-7.75 3.65l-.7-3.45 1.55-6.5 1.05 2.8 1.75-6.1q3.85 2.5 4.1 4.35 1.8 3.4 0 5.25m-15.85-2.15-.35 1.95q-1.4 2.3-3.65 3.55l-.9-5.25.25-3.2.9 1.6V79q1 .2 1.9.7l2.55 3.75-.7 4.4m-12.7-.75Q-97.6 88.95-99 90l-7.65 1.3.5-6.2 2-5.65.3 3.5 2.75-6.2q1.85.55 2.9 1.65l1.5 5.7q0 1.7-.35 3m-6.7-46-2.2-2.2q-2.25-3.6 0-7.2l1.2-.5q-.35 4.65 3.45 7.85l-1-3.05q4.15 4.95 9.7 7.2l.35 2.2q-4.6 1.1-9.25-2.1l-2.25-2.2M80.05 6.7q2.05.75 3.85 3.75l.85 6.1-2.5 5.7q-2.9 5.25-7.2 8.4-1.3-.85-2.15-2.85 4.2-2.9 6.1-9.65.75-3.7 0-7.45 1.45 1.7 1.1 2.8 1-2.95-.05-6.8m13.45 7.95q1.95.6 3.2 2.95 2.05 5.4 0 9.05l-1.1 1.6q-4.4 5.7-9.8 7.45l-.5-1.35 3.75-6.6q1.55-2.7 1.65-6.25l.9 4.05q2.6-4.4 1.9-10.9m12.7 10.55q3.1 2.15 3.8 5.85-.15 3.2-1.95 5.2l-1.45 1.15q-2.25 2.05-4.75 3.25-2.95 1.45-6.25 1.75l2.9-3.25q3.85-5.15 5.4-11.65l.7 4.7q1.5-2.75 1.6-7m7.4 48.3 1.75.3 1.85 4.85-3.6-5.15m-27.3 3-1.45 6.25.1-7.3 1.35 1.05M-83.55 15.35l2.85 7.95v-3.2l4.35 9.05q1.9 3.25 4.65 4.25l-.35 1.05q-4.35-1.15-8.75-5.7l-2-2.3-2.75-5.25q-.25-3.95 2-5.85M-91.9 35.3q-1.8-1.65-3.3-4-2.05-4.8 0-8l1.05-1.2q.5 5.3 2.9 8.05l2.95 2.05h-2.15l6.95 4.1-.35 2.6q-4.55-.4-8.05-3.6m1.85-14.4 1.35.3 1.1.65.05 5-2.5-5.95m-1.45 58.2-.45 6.05-.65-5.7 1.1-.35" transform="translate(134.15 93.95)"/><path fill-rule="evenodd" fill="url(#X)" d="M53.7 60.35Q50.2 57 47.8 53.5q5.6-9.5 13.35-17.6L70 25.4l-.8-2.55 2.25-3.9v3.3q.5 3.4 1.45 5.55.85 2 2.15 2.85 4.3-3.15 7.2-8.4l2.6.6q-1.05 6.65.45 11.5l.5 1.35q5.4-1.75 9.8-7.45l1.6 2.9q-2.4 6.45-2.8 11.3l1.2-.05q3.3-.3 6.25-1.75l-5.7 7.5-4.25-5.9-6.75 4.65q-7.95 6-14.3 0l-2.95 7.15q-3.95 6.3-14.2 6.3" transform="translate(134.15 93.95)"/><path fill-rule="evenodd" fill="url(#Y)" d="m84.85 22.85.95-4.4q2.35-2.8 5.65-4l2.05.2q.7 6.5-1.9 10.9l-.9-4.05q-.1 3.55-1.65 6.25l-3.75 6.6q-1.5-4.85-.45-11.5" transform="translate(134.15 93.95)"/><path fill-rule="evenodd" fill="url(#Z)" d="M112.45 20.8q1.9 4.15 2.35 7.3.85 3.75-.8 5.7l-1 .4q.95-6.95-7.15-12.6-2.55-1.35-5.1-.75.3-3.75-4.55-8.8Q83.7 5.6 93.75 7.6q9.8 4.5 18.7 13.2" transform="translate(134.15 93.95)"/><path fill-rule="evenodd" fill="url(#aa)" d="M97.2 31.15q1.05-2.85 2.45-6 3.1-1.9 5.5-.6l1.05.65q-.1 4.25-1.6 7l-.7-4.7q-1.55 6.5-5.4 11.65l-2.9 3.25-1.2.05q.4-4.85 2.8-11.3" transform="translate(134.15 93.95)"/><path fill-rule="evenodd" fill="url(#ab)" d="m109.85 35.5 1 6.8-2.35 3.75-1.5 4.45-1.3-2.55-1.15 8.8q-1.7 6.55-6.35 10.1 4.05-1.4 6.6-3.7 4.85 2 5.65 5.55-5.4.15-6.4 4.3 0 2.8 1.4 2.05l5.2-3.2q3.75-.15 6.25 1.55l1.7 2.05q-1.45-1.2-3.25-1.65l-1.75-.3-4.45.3-1.7 1.3q-2.3 2.25-1.5 6.25.15 1.05.7 2.15l-1.6.35-.55-3.75-1.9-2.95q-3.7-1.5-6.25-.8-3.5.9-4.9 5.85 0 .95.3 1.9l-2-.85v-4L86.3 76.5l-1.35-1.05q-2.3-1.55-5.2-.7l-1.75.7L75.25 79q-.7 3.05-.6 5.35-1.8-.2-3.6-3.85v-4.4q.7-4.3 3.9-6.25-9.05-1.1-14.85-8.25 3.65 4.9 0 4-3.55-2.6-6.4-5.25 10.25 0 14.2-6.3l2.95-7.15q6.35 6 14.3 0l6.75-4.65 4.25 5.9 5.7-7.5q2.5-1.2 4.75-3.25l1.45-1.15 1.8-.75m-26.4 33.85-3.8.6-4.7-.1 4.7.1 3.8-.6" transform="translate(134.15 93.95)"/><path fill-rule="evenodd" fill="url(#ac)" d="M110.85 42.3q2 15.5-1.65 10.7-.05 2.6-.75 4.8-1.1 3.1-3.65 5.35-2.55 2.3-6.6 3.7 4.65-3.55 6.35-10.1l1.15-8.8 1.3 2.55 1.5-4.45 2.35-3.75m-2.15 10 .5.7-.5-.7" transform="translate(134.15 93.95)"/><path fill-rule="evenodd" fill="url(#ad)" d="M108.45 57.8q3.5 3.55 7 10.95 4.3 1.2 6.3 7.25.95 2.95-1.6 3.9l-1.55-4.45-1.7-2.05q-2.5-1.7-6.25-1.55l-5.2 3.2q-1.4.75-1.4-2.05 1-4.15 6.4-4.3-.8-3.55-5.65-5.55 2.55-2.25 3.65-5.35" transform="translate(134.15 93.95)"/><path fill-rule="evenodd" fill="url(#ae)" d="M120.15 79.9q.6 2.25.55 3.75-.05 4.15-3.35 5.3l-2.05.05-1.25-8.5-2.7-4.6.7 2.4-4.6-3.2 1.7-1.3 4.45-.3 3.6 5.15-1.85-4.85q1.8.45 3.25 1.65l1.55 4.45" transform="translate(134.15 93.95)"/><path fill-rule="evenodd" fill="url(#af)" d="m105.05 83.85.3 1.95q-.35 3.7-3.6 5.05l-.55.15-3.4-4.9-1.5-4.45 1.75 2.1-1.7-7.4q2.55-.7 6.25.8l1.9 2.95.55 3.75" transform="translate(134.15 93.95)"/><path fill-rule="evenodd" fill="url(#ag)" d="M89.75 83.25q-.65 6-5.75 8.9l-2.5-4.8-1.15-5.15-1.2 2.9.6-10.35q2.9-.85 5.2.7l-.1 7.3 1.45-6.25 3.45 2.75v4" transform="translate(134.15 93.95)"/><path fill-rule="evenodd" fill="url(#ah)" d="M71.45 15.7v-2.75q1.3-4 5.3-6.1l3.3-.15q1.05 3.85.05 6.8.35-1.1-1.1-2.8.75 3.75 0 7.45-1.9 6.75-6.1 9.65-.95-2.15-1.45-5.55V15.7" transform="translate(134.15 93.95)"/><path fill-rule="evenodd" fill="url(#ai)" d="M64.05 6.8q2.35-1.2 3.55-.3l2.2.95-.05.1q-8.5 9.85-13.85 21l-.95 1.7q-6 9.35-16.65 6.55l1.4-1.7 10-13.35q-2 6.95 6.45.9 6.1-6.6 9.75-13.75 1.4-1.65-1.85-2.1" transform="translate(134.15 93.95)"/><path fill-rule="evenodd" fill="url(#aj)" d="M64.05 6.8q3.25.45 1.85 2.1-3.65 7.15-9.75 13.75-8.45 6.05-6.45-.9l4.45-5.95.65-.95q5.85-6.3 9.25-8.05" transform="translate(134.15 93.95)"/><path fill-rule="evenodd" fill="url(#ak)" d="M69.75 7.55q-.55 1.65-.6 3.5 1.15 6.05 2.3 4.65v3.25l-2.25 3.9q-5.05 7.05-14.25 7.4l.95-1.7q5.35-11.15 13.85-21" transform="translate(134.15 93.95)"/><path fill-rule="evenodd" fill="url(#al)" d="m49.7 21.75-10 13.35-1.4 1.7q-7.05 7.4-24.25 5.35l3.35-2.2q5.35-5.55 10-9.8-.05 4.9 10.15-.25 8.9-6.15 13.85-13.25.55-.55-1.8-1.15 2.6-.5 4.55.3l-4.45 5.95" transform="translate(134.15 93.95)"/><path fill-rule="evenodd" fill="url(#am)" d="M34.75 23.8q3.75-3 7-4.95 4.45-2.7 7.85-3.35 2.35.6 1.8 1.15-4.95 7.1-13.85 13.25-10.2 5.15-10.15.25l7.35-6.35" transform="translate(134.15 93.95)"/><path fill-rule="evenodd" fill="url(#an)" d="M47.8 53.5q-2.5 4.2-4.55 8.7v-6.5q-9.65 11.4-24.6 13.65L23 62.7q-9.1 4.25-17.2 14.05l-1.9-4v4.2L-6.4 66.2V74l-12.85-9.05 2.55 6.75-17.05-13.05 2.1 4.8-6-4.4q-14.3-11.3-23.85-27 3.55 1.15 10.05 1.75 6.85 7.5 16.4 6.5 3.65 7.4 21.85 2.75 14.9 6.05 27.25-.9 17.2 2.05 24.25-5.35 10.65 2.8 16.65-6.55 9.2-.35 14.25-7.4l.8 2.55-8.85 10.5Q53.4 44 47.8 53.5m-27 8.8 6.35-2.9q8.15-7.6 8-10.95L20.8 62.3M12 64.7l5.85-5.2 6.6-12.95-9.6 10.3Q9.9 63.45 12 64.7m41.85-25.15-18.2 18.7q.35 2.8 6.1-3.2l12.1-15.5" transform="translate(134.15 93.95)"/><path fill-rule="evenodd" fill="url(#ao)" d="M28.9 23q3.05.05 5.85.8l-7.35 6.35q-4.65 4.25-10 9.8l-3.35 2.2q-12.35 6.95-27.25.9l3.45-1q6.25-5.3 12-9.15-.15 7.05 10.15 2.95 11.5-5.5 17.65-11.05 1.45-.75-1.15-1.8" transform="translate(134.15 93.95)"/><path fill-rule="evenodd" fill="url(#ap)" d="m28.55 17.45-10.3 4.7Q28.2 16.55 34.3 8.2l-5.75 9.25" transform="translate(134.15 93.95)"/><path fill-rule="evenodd" fill="url(#aq)" d="M14 2.4 7.9 7.3l4.8-1.05L10 8.4q-2.2 1.8-4.45 3.55l-28.2 1.45-14.5-1.05q-8.55-4.9-10.3-9.85-.95-6.85-8.65-13.7-5.7-3.55-6.55-8.05-1.65 1.25-2.55 3-7.55-6.95-16.35-11.25 10.7-10.05-.15-22.05h11.3q4.6 4.7 17.8 3.8 5 2.9 13.5 3.9-1.4 1.2-1.3 2.1-.05 3.6 3.8 2.1-1.9 11.4 1.45 8l1.35 2.15v7.35l5.55 10.95 1.65-5.05q-1.25 6.1 9.3 12.2h5.5l5.05 6.35Q2.75 6.6 14 2.4m-71.55-24.1q-3.1.85-5.1 2.45 2-1.6 5.1-2.45" transform="translate(134.15 93.95)"/><path fill-rule="evenodd" fill="url(#ar)" d="M15.05 25.95Q22.5 22.9 28.9 23q2.6 1.05 1.15 1.8-6.15 5.55-17.65 11.05-10.3 4.1-10.15-2.95 6.75-4.5 12.8-6.95" transform="translate(134.15 93.95)"/><path fill-rule="evenodd" fill="url(#as)" d="M9.25 24.25q3.5.05 5.8 1.7Q9 28.4 2.25 32.9q-5.75 3.85-12 9.15l-3.45 1q-18.2 4.65-21.85-2.75 2.05-.2 4.2-.8 5.7-3.15 10.75-5.65-3 6.1 11.15 2Q3.15 30.6 9.8 26.4q1.75-1.15-.55-2.15" transform="translate(134.15 93.95)"/><path fill-rule="evenodd" fill="url(#at)" d="M-7.55 28.15q10.25-4 16.8-3.9 2.3 1 .55 2.15-6.65 4.2-18.75 9.45-14.15 4.1-11.15-2 6.9-3.5 12.55-5.7" transform="translate(134.15 93.95)"/><path fill-rule="evenodd" fill="url(#au)" d="M12 64.7q-2.1-1.25 2.85-7.85l9.6-10.3-6.6 12.95L12 64.7" transform="translate(134.15 93.95)"/><path fill-rule="evenodd" fill="url(#av)" d="m20.8 62.3 14.35-13.85q.15 3.35-8 10.95l-6.35 2.9" transform="translate(134.15 93.95)"/><path fill-rule="evenodd" fill="url(#aw)" d="m53.85 39.55-12.1 15.5q-5.75 6-6.1 3.2l18.2-18.7" transform="translate(134.15 93.95)"/><path fill-rule="evenodd" fill="url(#ax)" d="M-104.8-33.9q4.75-12.95 17.15-20.65 8.05 1.55 14.7 0 5.35-4.3 12-5.85-.1 3.1 1.3 6.35l1.35 2.65q1.8 3.4 5.7 5.65-13.2.9-17.8-3.8h-11.3q10.85 12 .15 22.05-9.4-4.6-20.2-6.25l-3.05-.15" transform="translate(134.15 93.95)"/><path fill-rule="evenodd" fill="url(#ay)" d="m-112.65-15.05-2.15.05q-3.75-.4-2.7-2.3 5.75-6.25 7.15-14.75 1.4-1.8 5.55-1.85l3.05.15q10.8 1.65 20.2 6.25 8.8 4.3 16.35 11.25l3.05 2.95-.1 2.85q-12.7-10.45-27.3-16.1-15.45-5.25-16.15 0v4.05q-.25 2.7-4.6 2.45-2.25 1.85 6.85 5.2l-9.2-.2" transform="translate(134.15 93.95)"/><path fill-rule="evenodd" fill="url(#az)" d="M-103.45-14.85q-9.1-3.35-6.85-5.2 4.35.25 4.6-2.45v-4.05q.7-5.25 16.15 0 14.6 5.65 27.3 16.1l-.15 1.4q-.4 2.4-1.25 4.35l-1.4-.65Q-71-8.1-77.2-10.05q-12.55-3.95-26.25-4.8" transform="translate(134.15 93.95)"/><path fill-rule="evenodd" fill="url(#aA)" d="m-113.15 3.95-.6.4-1.85-.85V.35q9.55-6.7 20.3-9.6 2.4.1.25-1.95l-.25-.25q-14.2-1.9-23.6 5.25l-.95-1.85q1.7-4.7 7.2-7l9.2.2q13.7.85 26.25 4.8-17.5 3.8-30.3 10.7l-5.65 3.3" transform="translate(134.15 93.95)"/><path fill-rule="evenodd" fill="url(#aB)" d="m-115.6.35-3.3-6.55q9.4-7.15 23.6-5.25l.25.25q2.15 2.05-.25 1.95-10.75 2.9-20.3 9.6" transform="translate(134.15 93.95)"/><path fill-rule="evenodd" fill="url(#aC)" d="M-83.2-5.05Q-87.3-3.6-86.25-.6l-11.35-.8q7.05-4 14.4-3.65" transform="translate(134.15 93.95)"/><path fill-rule="evenodd" fill="url(#aD)" d="M-77.2-10.05q6.2 1.95 12.15 4.7-1.55 3.55-1.5 6.6 0 2.2.8 4.15l-1.45 2.35Q-71.45 5.2-77.35 3.6-89.15.35-107.5.65q12.8-6.9 30.3-10.7m-6 5q-7.35-.35-14.4 3.65l11.35.8q-1.05-3 3.05-4.45" transform="translate(134.15 93.95)"/><path fill-rule="evenodd" fill="url(#aE)" d="m-5.45-75.95-1.4-.65q-2.1.25-3.1 6.6l-2.2-1 1.25-3.05q1.7-3.3 4.8-6.3.8-.7.75 4.2l-.1.2" transform="translate(134.15 93.95)"/><path fill-rule="evenodd" fill="url(#aF)" d="M-24.75-65.15q-.35 1.6.05 2.35l.05.05-7-4.2q-6.75-.8-12.2 5.45-3.8 3.8 2.1 10.95l9.1 4.7q-4.65 2.3-6.45 4-8.5-1-13.5-3.9-3.9-2.25-5.7-5.65l-1.35-2.65q-.05-17 11.5-19.8 0-1.65-3.55-3.3 7-5.15 16.9-3.9l-1.4-2.55q9.5 6.25 11.45 18.45" transform="translate(134.15 93.95)"/><path fill-rule="evenodd" fill="url(#aG)" d="m-24.35-66.65-.4 1.5Q-26.7-77.35-36.2-83.6l1.4 2.55q-9.9-1.25-16.9 3.9 3.55 1.65 3.55 3.3-11.55 2.8-11.5 19.8-1.4-3.25-1.3-6.35.2-7.6 8.95-14.7-14.5-3.65 13.35-7.9-9.95-9.5 6.05-1.45 7.8 5.55 9.8 14.75l-.65.7-.9 2.35" transform="translate(134.15 93.95)"/><path fill-rule="evenodd" fill="url(#aH)" d="M-24.65-62.75q1.7 3.35 3.4 4.6l.85.45q-1.75 3.45-.4 6.6-7.3 2.95-11.85 5.25l-9.1-4.7q-5.9-7.15-2.1-10.95 5.45-6.25 12.2-5.45l7 4.2" transform="translate(134.15 93.95)"/><path fill-rule="evenodd" fill="url(#aI)" d="m5.55 11.95-22.3 10.1 3.8-3.6-21.25 4.3-5.5.25q.05-2.5-5.2-3.5l-9.05-.7q-1.7-6.2-12.95-6l1.35-4-1.65-1.05 1.45-2.35q-.8-1.95-.8-4.15 1.9-4.65 4.15-5.95v-4.35l.15-1.4.1-2.85-3.05-2.95q.9-1.75 2.55-3 .85 4.5 6.55 8.05 7.7 6.85 8.65 13.7 1.75 4.95 10.3 9.85l14.5 1.05 28.2-1.45" transform="translate(134.15 93.95)"/><path fill-rule="evenodd" fill="url(#aJ)" d="M-3.75-46.35q0 .65-.65 1.1-.6.5-1.45.5t-1.5-.5q-.6-.45-.6-1.1 0-.65.6-1.15.65-.45 1.5-.45l1.45.45q.65.5.65 1.15" transform="translate(134.15 93.95)"/><path fill-rule="evenodd" fill="url(#aK)" d="m-34.2 22.75 5 .5q3.2 1.2 2.05 2.05L-43.9 29q-13.25 2.15-10.25-3.7Q-46 23.5-39.7 23l5.5-.25" transform="translate(134.15 93.95)"/><path fill-rule="evenodd" fill="url(#aL)" d="M-14.3 25.65q4.7.35 6.75 2.5-5.65 2.2-12.55 5.7-5.05 2.5-10.75 5.65-2.15.6-4.2.8-9.55 1-16.4-6.5 5.75-2 10.8-3.5-4 4.7 14.4 3.25 10.05-2.25 15-6.35.5-.8-3.05-1.55" transform="translate(134.15 93.95)"/><path fill-rule="evenodd" fill="url(#aM)" d="m-22.35 26 8.05-.35q3.55.75 3.05 1.55-4.95 4.1-15 6.35-18.4 1.45-14.4-3.25Q-29.8 27-22.35 26" transform="translate(134.15 93.95)"/><path fill-rule="evenodd" fill="url(#aN)" d="M-29.2 23.25q3.95.75 6.85 2.75-7.45 1-18.3 4.3-5.05 1.5-10.8 3.5-6.5-.6-10.05-1.75-4.4-1.45-4.55-3.75l11.9-3q-3 5.85 10.25 3.7l16.75-3.7q1.15-.85-2.05-2.05" transform="translate(134.15 93.95)"/><path fill-rule="evenodd" fill="url(#aO)" d="m-53.95 18.8 9.05.7q1.7 1.05 1 1.25-4.7 2.4-13.35 2.15-7.1-1.25-3.15-4.5l6.45.4" transform="translate(134.15 93.95)"/><path fill-rule="evenodd" fill="url(#aP)" d="M-39.7 23q-6.3.5-14.45 2.3l-11.9 3q-5-.85-4.5-6.6l1.45-1.75.25-1.6q4.2-.15 8.45.05-3.95 3.25 3.15 4.5 8.65.25 13.35-2.15.7-.2-1-1.25 5.25 1 5.2 3.5" transform="translate(134.15 93.95)"/><path fill-rule="evenodd" fill="url(#aQ)" d="m-53.95 18.8-6.45-.4q-4.25-.2-8.45-.05-3.75-1.1.8-5.55h1.15q11.25-.2 12.95 6" transform="translate(134.15 93.95)"/><path fill-rule="evenodd" fill="url(#aR)" d="m-106.35 21.3-1.5-1.55V18.3q11.1-4.85 6.7-10.65l-4.05-2.15q8-2.9 19.55-.8l8.3 1.8q1.6-1.2 0-2.9 5.9 1.6 10.15 4.15l1.65 1.05-1.35 4h-1.15q-2.5-3.35-9.9-2.75-15.1.45-26.95 9.7l-1.45 1.55" transform="translate(134.15 93.95)"/><path fill-rule="evenodd" fill="url(#aS)" d="M-107.85 18.3v-2.35l-1.9-3.7v-.05q-1.15-1.95-2.6-3.8l-1.8-2.15 1-2.3 5.65-3.3q18.35-.3 30.15 2.95 1.6 1.7 0 2.9l-8.3-1.8q-11.55-2.1-19.55.8l4.05 2.15q4.4 5.8-6.7 10.65" transform="translate(134.15 93.95)"/><path fill-rule="evenodd" fill="url(#aT)" d="M-105.95 38.9q-2.95.55-3.9-3.05.2-2.65 2.1-4.8 3.5-2.65 7.35-2.9.1-1.1-2.55-1.3 1.75-2.9 4.1-2.4-1.05 2.1.75 2.65l1.4-4.45q1.05-2.4 4.05-2.8l4.35-.6q2.05-.45 1.65-2.2.8-.75-1.15-2.4-3.2-.9-7.9 1-5.65 1.5-10.45 5.85l-.2-.2 1.45-1.55q11.85-9.25 26.95-9.7 7.4-.6 9.9 2.75-4.55 4.45-.8 5.55l-.25 1.6-1.45 1.75-1.45 1.75q-.8-3.05-2.4-6.5-3.05-3.2-7.75-2.5l-1.4.9q-2.25 1.9-2 5.85l2.75 5.25 2 2.3q.15 1.9-2.55 1.6l-1.1-4.95Q-86 23-87.6 21.85l-1.1-.65-1.35-.3q-2.35-.4-4.1 1.2l-1.05 1.2q-2.05 3.2 0 8 1.5 2.35 3.3 4 .05 2.65-2.2 1.3l-3-5.95q-2.55-1.65-7.65.55l-1.2.5q-2.25 3.6 0 7.2" transform="translate(134.15 93.95)"/><path fill-rule="evenodd" fill="url(#aU)" d="M-71.7 33.4q-2.75-1-4.65-4.25l-4.35-9.05v3.2l-2.85-7.95 1.4-.9q4.7-.7 7.75 2.5 1.6 3.45 2.4 6.5 1.5 5.65.3 9.95" transform="translate(134.15 93.95)"/><path fill-rule="evenodd" fill="url(#aV)" d="M-37.65 59.05q-9.05 18.15-7.7 7.6-1.9 3-4.3 5.1-14.5-9.55-18.65-21.9l-11-6.75-3.8 5.45-9.95-8.05-.45-2.7-.6-1.2q2.25 1.35 2.2-1.3 3.5 3.2 8.05 3.6l.35-2.6.55-4.15-.4-1.8q2.7.3 2.55-1.6 4.4 4.55 8.75 5.7l.35-1.05q1.2-4.3-.3-9.95l1.45-1.75q-.5 5.75 4.5 6.6.15 2.3 4.55 3.75 9.55 15.7 23.85 27" transform="translate(134.15 93.95)"/><path fill-rule="evenodd" fill="url(#aW)" d="m-76.25 93.65-1.1.15q-2.4-2.3-3.15-4.85-.55-1.65-.4-3.4.3-4.55 3.2-5 1.25-1.5 4.95-.25l.15.1-1.75 6.1-1.05-2.8-1.55 6.5.7 3.45" transform="translate(134.15 93.95)"/><path fill-rule="evenodd" fill="url(#aX)" d="M-49.65 71.75q-4.05 3.45-9.45 4.35 3.3 7.1 1.1 9.45Q-61.65 89-68.5 90q1.8-1.85 0-5.25-.25-1.85-4.1-4.35l-.15-.1q-3.7-1.25-4.95.25-2.9.45-3.2 5-.15 1.75.4 3.4-1.95.7-3.85-1.1l.7-4.4-2.55-3.75q-.9-.5-1.9-.7l-3.4.1-1.1.35q-.95.3-2 .85l-1.25 4.2 1.05 3.15q-2 .95-2.25-.55.35-1.3.35-3l-1.5-5.7q-1.05-1.1-2.9-1.65-1.9-.6-4.65-.65l-2.95 2.95-.9 2.35q-1.65.3-1.2-3l.8-1.05q2.1-1.9 5.3-2.45 6 .05 7.1 2l.65 2.55q.75 1.3 2.4 0 2.65-1.9 6.1-1.8 2 .05 0-1.5-2.9-1.2-5.85 1-2.45-.4-1.5-2.15l.65-1.15q-.75-2.4-5.85-3.45l2.25-1q2.2 1.6 6.25 2.9l3.45-.2q-4.7-1.95-4.35-6.9l1.8-2q-5.65.05-7.9-4.7v-7.4l-5.7-5.55 1.45-4.45 2.25 2.2q4.65 3.2 9.25 2.1l-.35-2.2-.45-2.7 9.95 8.05 3.8-5.45 11 6.75q4.15 12.35 18.65 21.9M-68.9 75.9q5.35.95 9.8.2-4.45.75-9.8-.2m-24-21.25 2.55 3.55-1.9-6.85-.65 3.3" transform="translate(134.15 93.95)"/><path fill-rule="evenodd" fill="url(#aY)" d="m-109.85 35.85-.3-1.8 1.45-5.9q-.3-3 1.45-5.65l.85-1.2.25.2q4.8-4.35 10.45-5.85 4.7-1.9 7.9-1 1.95 1.65 1.15 2.4.4 1.75-1.65 2.2l-4.35.6q-3 .4-4.05 2.8l-1.4 4.45q-1.8-.55-.75-2.65-2.35-.5-4.1 2.4 2.65.2 2.55 1.3-3.85.25-7.35 2.9-1.9 2.15-2.1 4.8" transform="translate(134.15 93.95)"/><path fill-rule="evenodd" fill="url(#aZ)" d="M-94.15 22.1q1.75-1.6 4.1-1.2l2.5 5.95-.05-5Q-86 23-84.45 25.4l1.1 4.95.4 1.8-.55 4.15-6.95-4.1h2.15l-2.95-2.05q-2.4-2.75-2.9-8.05" transform="translate(134.15 93.95)"/><path fill-rule="evenodd" fill="url(#ba)" d="M-109.75 12.2q-11.35 1.95-24.4 8.55l1.5-4.35q9.75-5.2 20.45-5.85l-1.45-2.3 1.3.15q1.45 1.85 2.6 3.8" transform="translate(134.15 93.95)"/><path fill-rule="evenodd" fill="url(#bb)" d="m-132.65 16.4 1.85-5.3q8.45-3.65 17.15-2.85l1.45 2.3q-10.7.65-20.45 5.85" transform="translate(134.15 93.95)"/><path fill-rule="evenodd" fill="url(#bc)" d="M-107.85 15.95q-5.45 6.2-4.4 15.75l-4.4-2.65q-.95-8.55 5.1-12.9-1.3-.65-2.6-1.25 1.95-1.5 4.4-2.65l1.9 3.7" transform="translate(134.15 93.95)"/><path fill-rule="evenodd" fill="url(#bd)" d="m-116.65 29.05-5.3-3.25q2.15-6.75 7.8-10.9 1.3.6 2.6 1.25-6.05 4.35-5.1 12.9" transform="translate(134.15 93.95)"/><path fill-rule="evenodd" fill="url(#be)" d="M-104.75 31.2q5.1-2.2 7.65-.55l3 5.95.6 1.2.45 2.7.45 2.7q-5.55-2.25-9.7-7.2l1 3.05q-3.8-3.2-3.45-7.85" transform="translate(134.15 93.95)"/><path fill-rule="evenodd" fill="url(#bf)" d="M-98.75 69.4q-2.3-1.65-2.6-3.6-6.3-4-6.3-12.85l2.45-7.4 5.7 5.55v7.4q2.25 4.75 7.9 4.7l-1.8 2q-.35 4.95 4.35 6.9l-3.45.2q-4.05-1.3-6.25-2.9" transform="translate(134.15 93.95)"/><path fill-rule="evenodd" fill="url(#bg)" d="M-110 77.35q3.45-4.4 9-6.95 5.1 1.05 5.85 3.45L-95.8 75q-.95 1.75 1.5 2.15 2.95-2.2 5.85-1 2 1.55 0 1.5-3.45-.1-6.1 1.8-1.65 1.3-2.4 0l-.65-2.55q-1.1-1.95-7.1-2-3.2.55-5.3 2.45" transform="translate(134.15 93.95)"/><path fill-rule="evenodd" fill="url(#bh)" d="m-106.65 91.3-2.05.35q-2.2-5.6-.9-10.25l.9-2.35 2.95-2.95q2.75.05 4.65.65l-2.75 6.2-.3-3.5-2 5.65-.5 6.2" transform="translate(134.15 93.95)"/><path fill-rule="evenodd" fill="url(#bi)" d="m-88.35 93.35-1.4.65-4-3.15-1.05-3.2-1.05-3.15 1.25-4.2q1.05-.55 2-.85l.65 5.7.45-6.05 3.4-.1v7.5l-.9-1.6-.25 3.2.9 5.25" transform="translate(134.15 93.95)"/><path stroke-width=".05" stroke-opacity=".671" stroke-linejoin="round" stroke-linecap="round" stroke="#000" fill="none" d="m219.35 13.7 1.6-3.35q-6.3 3.35-13.35 4.7h-3.8q-4.1-.9-6.1-1.65l-3 2.2-1 1.2-4.85 5.75q-1.35 1.85-4.3 2.9l1.55 2.8.75 1.4q1.95-2.95 5.35-5.55 7.05-3.3 11.3-3.25l-1.6 2.1m-32.85-1.9q3.35-9.2 11.65-15.6 4.2-4.25 4.1 4.45 5.15-1.45 9.25-.45 2.35 1.35-2.35 4 2.25.55 3 2.15m-7.85 16.3.55-1.25-.55-1m-2.3-4.2-1.6-3-2.6-1.4-3.25 2.15.65.5 1.5 3.3m5.95 7.3.9-.7.4-.85.35-.85 10.65 2.45h2.2l2.45-2.3 12.05-11.2q3.1-3.4 5.15-7.15m-39.4 19.5 2.05-4.45 1.05.4-.8 1.6m-3.9 6.3.65-1.25q.7-1.1.95-2.6l.1-2.25-.1-1.1-.7-2.85m-22.7 8.05q.05 2.05-.75 4-.55.8-1.45.6-1.9-.45-5.4-5.1l-3.8-5.5q-.85-1.45-3.75-3.5m-31.6 1.75-.4 1.5q-.35 1.6.05 2.35l.05.05q1.7 3.35 3.4 4.6l.85.45 6.1 3.3 13.15 5.3q11.45 2.8 23.25 2.95l1.55-.25h.1m3.5-.85q2.3-.65 4.35-1.55l1.55-.75 8-4.4.8-.55q1.3-1 2.25-2.4l3.35-.1 2.6-1.95.9-.7m-9.1 5.15q11.25 1.7 5.3 4.35 13.4 11.3 6.15 11.7-.9 10.5-2.7 14.5-1.95 4.15-4.95 1.15-4.65 8.7-20 12.5l-5.05-.85-5.05 9 4.45-3.15-3.15 5.25-2.95 2.45-6.1 4.9 4.8-1.05-2.7 2.15q-2.2 1.8-4.45 3.55L117.4 116l3.8-3.6-21.25 4.3 5 .5q3.95.75 6.85 2.75l8.05-.35q4.7.35 6.75 2.5 10.25-4 16.8-3.9 3.5.05 5.8 1.7 7.45-3.05 13.85-2.95 3.05.05 5.85.8 3.75-3 7-4.95m22.3-12.05q2.35-1.2 3.55-.3 1.7-2.45 2.35-5.6l.4-3.4V89.3l-.4-4-.6-2.8 1.8 1.8 1.75 1.8-1.1-2.15-.6-1.3-.75-1.8q-1.6-4-2.3-8l-.5-3.8q3.7 3.45 7.35 2.5-9.35-10.9-13.2-24.3l-1.2-.1q-3.45-.25-5.5-3.35l-2.85-6.3-2.1-2.5m2.2-2.25 11.05 5.35 2.65-.85-2-.8m20.55 1q.9-1.85 1.05-3.75-5.95 3-13.2 1.7-1.8-.75-2.9-1.5-1.35-.9-1.55-1.85M140.9 9.65q1.95-1.65 4.4-3Q159.9-.6 160.2 3.9q.2 1.65-2.9 4.85l-4.55 4.1q4.15-1.7 9.8-2.3 6.5.45 9.35 2.6 1.1 1.15-5.9 3.35l-4.3 1.2 5.05 2.6q1.05.6 2.3.75l4.6.7q2.15.55 3.45 1.45m-48.3-5.4q1.15-5.85 6.75-11.4 4.8-5.4 8.4-6.1 1.45-.6 2.5 0 3 .35-5.55 9.35m-.55.4.55-.4m-3.15 3.1 2.6-2.7m9.9 3.95 2.5-1.15m-28.55 11.1 5.85 2.7 15.1 2.4M168.8 25l.8-.35h4.4m-6.3.8 1.1-.45q.8-.7-.05-2.6l-2-2.1m-11.65 9.55 5.65-1.45 6.95-2.95m-11.15 9.6q-.1-2.5-1.45-5.2-1.3-2.55-3.8-5.25m10.65 22.75q1.8-1.2 3.8-2.2m-6.7 4.15Q155 52.35 152.2 56l1.1 2.15.6 1.3m-16.55-2.25-.6 4.65q-.8 7.3-.05 13.25.85 1.85 2.4 2.05-1-1-.4-1.3 2.7 1.25 5 3.25 2.9 1 8.05-.2 5.1-.9 6.5-5.4.35-3.35-1.3-7.05l-3.05-7m-13.95-5.7q-1.5 1.3-2.6 3.45-8.75-8.7-21.8-11.25l-.45-.1q-1.45-.55-1.45-2.45l-.25-.5-.05-.05q-7.3 2.95-11.85 5.25-4.65 2.3-6.45 4-1.4 1.2-1.3 2.1-.05 3.6 3.8 2.1-1.9 11.4 1.45 8l1.35 2.15 2.25 3.4q5.3 7.7 4.8 2.65 12.4 14.8 28.6 13.35 1.9-1.05 3.9-1.8 4.8-1.9 10.1-2.05l4.85.8q-7.15 4.5-14.95 1.25M152.2 56q-3-4.55-9-4.05-1.8.5-3.25 1.8m71.6-8.85 3.45 3.45M231.5 69q6.5-1.65 13-2.2.2-4.65-4.2-10.8-2.25-5.45-10.7-10.95-5.75-2.6-12.25 0l-3.4-1.7q-1.1.85-2.4 1.55-1.65.85-3.65 1.4l-1 .2m10.3 5.5q-.3-1.4-2.2-3.65m-19.05-1.1 10.95-.75m-2.3 34.35 4.25-2.05q-4.95-.45-6.55-5.95m1.8 12.45 1.2-1m8.65-40.95q1.6-1.2 2.75-2.8l2.05-3.1M244.5 66.8l7.2-.3 1.25 2.3-1.05 2.1q-.85 4.2 2.2 9.8l.55.95q.65 2.15-5.7 1.45-.6 2.05-.8 3.85-.3 2.35.2 4.15.2.95.7 1.75l4.1 1L254.2 97l-4.2 6.55.95-.2 17.35-3.75q-2.55 2.65-3.85 5.3-1.75 3.45-1.4 6.9l-7.15-.05 2.2 2.05 3.25 3.05q-4.25-.3-6.7 2.1-.85.8-1.5 1.9l-7.25-7.55.7 1.45q1.9 4.15 2.35 7.3.85 3.75-.8 5.7l-1 .4-3.15 1.3 1 6.8q2 15.5-1.65 10.7-.05 2.6-.75 4.8 3.5 3.55 7 10.95 4.3 1.2 6.3 7.25.95 2.95-1.6 3.9.6 2.25.55 3.75-.05 4.15-3.35 5.3l-2.05.05q-3.3-.3-6.6-2.8-1.35-1.35-2.05-2.7l-1.6.35.3 1.95q-.35 3.7-3.6 5.05l-.55.15q-4.2.75-7.25-2.9-1.7-2-2.2-4l-2-.85q-.65 6-5.75 8.9l-.75.35q-3.65-.4-6.55-3.15-1.9-1.7-2.05-5-1.8-.2-3.6-3.85v-4.4q.7-4.3 3.9-6.25-9.05-1.1-14.85-8.25 3.65 4.9 0 4-3.55-2.6-6.4-5.25-3.5-3.35-5.9-6.85-2.5 4.2-4.55 8.7v-6.5q-9.65 11.4-24.6 13.65l4.35-6.65q-9.1 4.25-17.2 14.05l-1.9-4v4.2l-10.3-10.75v7.8l-12.85-9.05 2.55 6.75-17.05-13.05 2.1 4.8-6-4.4q-9.05 18.15-7.7 7.6-1.9 3-4.3 5.1-4.05 3.45-9.45 4.35 3.3 7.1 1.1 9.45-3.65 3.45-10.5 4.45-3.25 2.75-7.75 3.65l-1.1.15q-2.4-2.3-3.15-4.85-1.95.7-3.85-1.1l-.35 1.95q-1.4 2.3-3.65 3.55l-1.4.65-4-3.15-1.05-3.2q-2 .95-2.25-.55-.55 1.85-1.95 2.9l-7.65 1.3-2.05.35q-2.2-5.6-.9-10.25-1.65.3-1.2-3l.8-1.05q3.45-4.4 9-6.95l2.25-1q-2.3-1.65-2.6-3.6-6.3-4-6.3-12.85l2.45-7.4 1.45-4.45-2.2-2.2q-2.95.55-3.9-3.05L24 128l1.45-5.9q-.3-3 1.45-5.65l.85-1.2h.05l-1.5-1.55v-3.8q-5.45 6.2-4.4 15.75L17.5 123l-5.3-3.25q2.15-6.75 7.8-10.9 1.95-1.5 4.4-2.65v-.05Q13.05 108.1 0 114.7l1.5-4.35 1.85-5.3q8.45-3.65 17.15-2.85l1.3.15-1.8-2.15 1-2.3-.6.4-1.85-.85V94.3l-3.3-6.55-.95-1.85q1.7-4.7 7.2-7l-2.15.05q-3.75-.4-2.7-2.3Q22.4 70.4 23.8 61.9q1.4-1.8 5.55-1.85Q34.1 47.1 46.5 39.4q8.05 1.55 14.7 0 5.35-4.3 12-5.85.2-7.6 8.95-14.7-14.5-3.65 13.35-7.9-9.95-9.5 6.05-1.45 7.8 5.55 9.8 14.75l1.5-1.6q2.25-2.15 6.8-3.2l3.6.45q1.7-3.3 4.8-6.3.8-.7.75 4.2m90.5 67.95 3.3.75 26.45 6.35M224.1 71.5l2.1-1 1.6-.5 3.7-1m-7.4 2.5-15.25 7.3m-2.9 5.15q12.15-5.55 24.25-6.7l-3.15 1.85m14.85 28.55 1.4.95.65 1.05h4.35q3.05-1.2 1.7-6.1m-30.7-17.8q15.45-3.05 29.65-2.65m-44.45 6.2q7.55-2.15 14.8-3.55m24.65 23.9 1.15 2.05 10.8.05m-10 1.55-.8-1.6m-40.6-20.25q15.3-.1 27.8 4.7l-3.35 1.5m-14.75 3q2.05.75 3.85 3.75l.85 6.1-2.5 5.7 2.6.6.95-4.4q2.35-2.8 5.65-4l2.05.2q1.95.6 3.2 2.95 2.05 5.4 0 9.05l-1.1 1.6 1.6 2.9q1.05-2.85 2.45-6 3.1-1.9 5.5-.6l1.05.65q3.1 2.15 3.8 5.85-.15 3.2-1.95 5.2l1.8-.75m-24.55-1.15.5 1.35q5.4-1.75 9.8-7.45m-10.3 6.1q-1.5-4.85-.45-11.5m10.75 19.55-1.2.05q.4-4.85 2.8-11.3m-1.6 11.25q3.3-.3 6.25-1.75 2.5-1.2 4.75-3.25l1.45-1.15m-9.85 30.6q4.05-1.4 6.6-3.7 2.55-2.25 3.65-5.35m-.7-44.1q-10.35-7.05-23.45-11.25-6.1-1.5-9.35-.8-2.6.55-3.3 2.5-1.25 1.5-1.85 3.3l-.05.1q-.55 1.65-.6 3.5 1.15 6.05 2.3 4.65v-2.75q1.3-4 5.3-6.1l3.3-.15m-7.15 21.1q.85 2 2.15 2.85 4.3-3.15 7.2-8.4m26.95 30.75-.5-.7m4.9 21.2 1.75.3q1.8.45 3.25 1.65l1.55 4.45m-12.7-4.8 1.7-1.3 4.45-.3m-21.85 10.6q-.3-.95-.3-1.9 1.4-4.95 4.9-5.85 2.55-.7 6.25.8l1.9 2.95.55 3.75m-18.75-7.35-1.35-1.05q-2.3-1.55-5.2-.7m6.55 1.75 3.45 2.75v4m16.9.25q-.55-1.1-.7-2.15-.8-4 1.5-6.25m-39.85-68.6 2.2.95m-20.1 14.3-10 13.35-1.4 1.7q10.65 2.8 16.65-6.55l.95-1.7q5.35-11.15 13.85-21m1.7 11.4v3.3q.5 3.4 1.45 5.55m-1.45-8.85v-3.25m-1.5-14.8 5 .75m-5.75 21.2 2.25-3.9m-21.85-3.45q-3.4.65-7.85 3.35m12.4-3.05-4.45 5.95m4.45-5.95.65-.95q5.85-6.3 9.25-8.05m-14.45 8.7q2.6-.5 4.55.3m15.05 7.05.8 2.55-8.85 10.5q-7.75 8.1-13.35 17.6m7.15-23.25q9.2-.35 14.25-7.4m-55.15 19.3 3.35-2.2q5.35-5.55 10-9.8l7.35-6.35m-19.7 2.15q-6.05 2.45-12.8 6.95-5.75 3.85-12 9.15l-3.45 1q14.9 6.05 27.25-.9 17.2 2.05 24.25-5.35m-58.4-2.95q-5.05 2.5-10.75 5.65-2.15.6-4.2.8 3.65 7.4 21.85 2.75m88.15 26.8 4.7.1 3.8-.6m-8.8 15q-.1-2.3.6-5.35l2.75-3.55 1.75-.7M29.35 60.05l3.05.15q10.8 1.65 20.2 6.25M81.55 48.2q-3.9-2.25-5.7-5.65L74.5 39.9q-1.4-3.25-1.3-6.35M30.7 79.1q13.7.85 26.25 4.8 6.2 1.95 12.15 4.7l1.4.65q.85-1.95 1.25-4.35l.15-1.4.1-2.85-3.05-2.95Q61.4 70.75 52.6 66.45M30.7 79.1l-9.2-.2m89.85-54.65-.65.7-.9 2.35m3.6 15.6v-.1l-.05.05q-1.35-3.15.4-6.6m8.25-13.3 1.25-3.05M122 22.95l-1.4-.65q-1.2-.7-2.45 0m6.05 1.65-2.2-1M68.95 77.7q.9-1.75 2.55-3 2-1.6 5.1-2.45m-9 22.95q1.9-4.65 4.15-5.95V84.9m-.25-10.2q.85 4.5 6.55 8.05m8.65 13.7q1.75 4.95 10.3 9.85l14.5 1.05M81.55 48.2q5 2.9 13.5 3.9m4.9 64.6-5.5.25q-6.3.5-14.45 2.3m34.05 8.55q6.9-3.5 12.55-5.7m-33.1 2.15q-5.05 1.5-10.8 3.5 6.85 7.5 16.4 6.5m-9.85-20.8-9.05-.7-6.45-.4m15.5 1.1q5.25 1 5.2 3.5m-27.5-15.25 1.45-2.35q-.8-1.95-.8-4.15-.05-3.05 1.5-6.6m-1.85 18.15 1.35-4-1.65-1.05q-4.25-2.55-10.15-4.15Q45 94.3 26.65 94.6q12.8-6.9 30.3-10.7m5.5 43.45q1.2-4.3-.3-9.95-.8-3.05-2.4-6.5-3.05-3.2-7.75-2.5l-1.4.9q-2.25 1.9-2 5.85l2.75 5.25 2 2.3q4.4 4.55 8.75 5.7l.35-1.05m1.15-11.7 1.45-1.75.25-1.6q-3.75-1.1.8-5.55-2.5-3.35-9.9-2.75-15.1.45-26.95 9.7l-1.45 1.55m39.45-8.5H66.1m-3.95 10.65 1.45-1.75q-.5 5.75 4.5 6.6l11.9-3M72.65 126q-4.4-1.45-4.55-3.75m14.6 5.5q-6.5-.6-10.05-1.75 9.55 15.7 23.85 27m-16.3-40.25q-1.7-6.2-12.95-6m-1.95 5.55q4.2-.15 8.45.05m-12.2 62-.15-.1q-3.7-1.25-4.95.25-2.9.45-3.2 5-.15 1.75.4 3.4m12 1.05q1.8-1.85 0-5.25-.25-1.85-4.1-4.35m13.5-4.3q-4.45.75-9.8-.2m46.55-49.9q-7.45 1-18.3 4.3m-51.25 5q-1.8-1.65-3.3-4-2.05-4.8 0-8l1.05-1.2q1.75-1.6 4.1-1.2l1.35.3 1.1.65q1.6 1.15 3.15 3.55l1.1 4.95q2.7.3 2.55-1.6M24.4 106.2l1.9 3.7m-5.3-12 5.65-3.3m-4.85 7.75q1.45 1.85 2.6 3.8m3.8 26.7q-2.25-3.6 0-7.2l1.2-.5q5.1-2.2 7.65-.55l3 5.95q2.25 1.35 2.2-1.3 3.5 3.2 8.05 3.6l.35-2.6m-9.1 6.9.35 2.2q-4.6 1.1-9.25-2.1l-2.25-2.2m11.15 2.1-.45-2.7-.45-2.7-.6-1.2m10.75-6.25.4 1.8-.55 4.15m-9 36q-4.05-1.3-6.25-2.9m-10.85 12 .9-2.35 2.95-2.95q2.75.05 4.65.65 1.85.55 2.9 1.65l1.5 5.7q0 1.7-.35 3m12.7.75.7-4.4-2.55-3.75q-.9-.5-1.9-.7l-3.4.1-1.1.35q-.95.3-2 .85l-1.25 4.2 1.05 3.15"/><path stroke-width=".05" stroke-linejoin="round" stroke-linecap="round" stroke="#000" fill="none" d="m157.9 47.55 3.5-.85m.55.65-2.9 1.95"/></g><path fill-rule="evenodd" fill="url(#bj)" d="M-53.6 0q0-22.2 15.7-37.9T0-53.6q22.2 0 37.9 15.7T53.6 0q0 22.2-15.7 37.9T0 53.6q-22.2 0-37.9-15.7T-53.6 0" transform="translate(53.6 53.6)" id="a"/><path fill-rule="evenodd" fill-opacity="0" fill="#f0f" d="M102.95 45H0V0h102.95v45" id="c"/><radialGradient spreadMethod="pad" r="819.2" id="bj" gradientUnits="userSpaceOnUse" gradientTransform="scale(.066)" cy="0" cx="0"><stop offset="0"/><stop stop-opacity="0" offset="1"/></radialGradient></defs><path fill="none" d="M-1-1h334v247H-1z"/><use x="168" y="193" xlink:href="#bk" width="381" transform="translate(-192.55 -294)" height="381"/><use x="142.482" y="163.684" xlink:href="#bl" width="279.3" transform="translate(-167.014 -191.935) scale(1.1791)" height="203.6"/><use x="-2.213" xlink:href="#bm" width="102.95" transform="matrix(1.8072 0 0 1.6538 79.2 27.1)" height="45"/></svg>