<svg width="87" height="121" xmlns="http://www.w3.org/2000/svg" xmlns:xlink="http://www.w3.org/1999/xlink"><defs><g transform="translate(.25 .25)" id="n"><use xlink:href="#a" width="18.1" transform="translate(-.256 -.246) scale(1.2992)" height="25.8"/><use xlink:href="#b" width="23.25" transform="translate(-.1 -.1)" height="32.5"/></g><g transform="translate(7.4 35.05)" id="h"><use xlink:href="#c" width="4.3" transform="matrix(-.6093 .7897 .7897 .6093 4.45 -9.701)" height="4.15"/><use xlink:href="#d" width="3.7" transform="matrix(-.9543 .6149 .6149 .9543 4.174 -5.742)" height="4.65"/><use xlink:href="#e" width="7.3" transform="matrix(-1 0 0 1 3.7 -12)" height="10.7"/><use xlink:href="#d" width="3.7" transform="matrix(-1.0823 -.3428 -.3428 1.0823 .872 -3.239)" height="4.65"/><use xlink:href="#f" width="4.3" transform="matrix(-.8549 -.5155 -.5155 .8549 -.675 -6.327)" height="4.15"/><use xlink:href="#g" width="25.85" transform="matrix(-1 0 0 1 18.45 -35.05)" height="32.1"/></g><g id="i"><path fill-rule="evenodd" fill="#649b61" d="M.55 1.05Q-.65 2.35-2.4 3q-1.75.6.2-3.55 2.05-.8 2.75 1.6" transform="translate(3.5 .8)"/><path stroke-width=".5" stroke-opacity=".412" stroke-linejoin="round" stroke-linecap="round" stroke="#2e2e00" fill="none" d="M4.05 1.85Q2.85 3.15 1.1 3.8q-1.75.6.2-3.55"/></g><g id="j"><path fill-rule="evenodd" fill="#649b61" d="M-1.6-1.25q1.8-1.7 3.2 0-.35 4.6-1.6 3.2Q-1.2.5-1.6-1.25" transform="translate(1.85 2.1)"/><path stroke-width=".5" stroke-opacity=".412" stroke-linejoin="round" stroke-linecap="round" stroke="#2e2e00" fill="none" d="M.25.85q.4 1.75 1.6 3.2 1.25 1.4 1.6-3.2"/></g><g id="k"><path fill-rule="evenodd" fill="#649b61" d="M-2.5-4.7q.65-.8 2.3-1.2l.8.15q1.2.35 2.15 1.65l.4.85q.3.55.25 2.15L3.3.05l-.05.1-.15.95-.05.2-.05.25-.8 1.65q-.45.6-2 1.05V4.2l-1.1-.1-1.95-1.35-.5-1.25V.35l.05-.45v-.15l.3-2.9.05-.25q.15-1.15.45-1.3" transform="translate(3.65 6.2)"/><path stroke-width=".5" stroke-opacity=".451" stroke-linejoin="round" stroke-linecap="round" stroke="#2e2e00" fill="none" d="m6.95 6.25.1-1.15q.05-1.6-.25-2.15l-.4-.85Q5.45.8 4.25.45L3.45.3Q1.8.7 1.15 1.5m2.7 8.9v.05q1.55-.45 2-1.05l.8-1.65.05-.25.05-.2.15-.95M1.15 1.5q-.3.15-.45 1.3l-.05.25-.3 2.9m0 .15-.05.45V7.7l.5 1.25 1.95 1.35 1.1.1"/></g><g id="l"><path fill-rule="evenodd" fill="#649b61" d="M-.5-5.05q2 4.15.25 3.55-1.8-.65-3-1.95.7-2.4 2.75-1.6" transform="translate(3.5 5.3)"/><path stroke-width=".5" stroke-opacity=".412" stroke-linejoin="round" stroke-linecap="round" stroke="#2e2e00" fill="none" d="M.25 1.85q1.2 1.3 3 1.95Q5 4.4 3 .25"/></g><g id="g"><path fill-rule="evenodd" fill="#a99610" d="M9.85 3.35 6.65 4.9l-3.4.85 6.6-2.4" transform="translate(14.8 21.75)"/><path fill-rule="evenodd" fill="#bbf5b5" d="M-9.6-5.1q.6-1.55 2.75-3.25 2.1-1.75 4.7-1.95l5.05.5q2.5.65 2.7 1.35.2.65.9 1.35.85 2.05-3.25 4.2Q-3.2-1.3-9.6-5.1" transform="translate(14.8 21.75)"/><path fill-rule="evenodd" fill="#649b61" d="M-9.6-5.1q6.4 3.8 12.85 2.2v8.65l-4.15.1q-3.7-.3-6.55-1.6-2.8-1.4-2.8-3v-.1l.1-.3.15-4.55h-.05l.4-1.3.05-.1" transform="translate(14.8 21.75)"/><path fill-rule="evenodd" fill="#527842" d="M3.25-2.9q4.1-2.15 3.25-4.2 1 .45 2.85 2.4t.5 8.05l-6.6 2.4V-2.9" transform="translate(14.8 21.75)"/><path stroke-width=".5" stroke-opacity=".451" stroke-linejoin="round" stroke-linecap="round" stroke="#2e2e00" fill="none" d="M21.3 14.65q-.7-.7-.9-1.35-.2-.7-2.7-1.35l-5.05-.5q-2.6.2-4.7 1.95-2.15 1.7-2.75 3.25m16.1-2q1 .45 2.85 2.4t.5 8.05l-3.2 1.55-3.4.85 6.6-2.4"/><path fill-rule="evenodd" fill="#649b61" d="M6.85-4.7 5.1-4.8q.15-5 5.3-11.2.4 4.2.25 8.4l-.3-.9-.8-2.3-1.4 2.7-.2.4-.85 2.3-.15.45-.1.25" transform="translate(14.8 21.75)"/><path fill-rule="evenodd" fill="#f7ffdc" d="m6.85-4.7.1-.25.15-.45.85-2.3.2-.4 1.4-2.7.8 2.3.3.9-.1 1.5-.35 3.35Q8.95-4.3 6.85-4.7m3.5-3.8q-1.4-.35-2.4.8 1-1.15 2.4-.8m.2 2.4q-2.45 0-3.6 1.15Q8.1-6.1 10.55-6.1" transform="translate(14.8 21.75)"/><path stroke-width=".5" stroke-opacity=".451" stroke-linejoin="round" stroke-linecap="round" stroke="#2e2e00" fill="none" d="M25.45 14.15q.15-4.2-.25-8.4m.25 8.4-.1 1.5L25 19"/><path stroke-width=".5" stroke-opacity=".251" stroke-linejoin="round" stroke-linecap="round" stroke="#2e2e00" fill="none" d="m21.65 17.05.1-.25.15-.45.85-2.3.2-.4 1.4-2.7m-2.6 5.85q1.15-1.15 3.6-1.15m-2.6-1.6q1-1.15 2.4-.8"/><path fill-rule="evenodd" fill="#649b61" d="M-4.3-21.5q2 5.65 2.5 11.75-4.5.05-5.45 2.3.9-9.45 2.95-14.05" transform="translate(14.8 21.75)"/><path stroke-width=".5" stroke-opacity=".451" stroke-linejoin="round" stroke-linecap="round" stroke="#2e2e00" fill="none" d="M10.5.25Q12.5 5.9 13 12"/><path fill-rule="evenodd" fill="#f4ffdb" d="m-7.3.3-1.6 3.15L-14.55 2l3.25-2.4-2.5-3.5L-7.3.3" transform="translate(14.8 21.75)"/><path fill-rule="evenodd" fill="#ffffed" d="M-10.2-3.9v-3.3l4.3 3.8L-7.3.3l-6.5-4.2h3.6" transform="translate(14.8 21.75)"/><path stroke-width=".5" stroke-opacity=".333" stroke-linejoin="round" stroke-linecap="round" stroke="#2e2e00" fill="none" d="M4.6 17.85v-3.3l4.3 3.8-1.4 3.7-1.6 3.15-5.65-1.45m3.25-2.4L1 17.85"/><path fill-rule="evenodd" fill="#ffffed" d="M-5.3-7.5q1.35 1.3.85 4v2.65Q-5.4.6-6.45.45L-8.15-1Q-9-1.35-8.7-4.85q-.15-1.8.9-2.9 1.1-1.1 2.5.25" transform="translate(14.8 21.75)"/><path stroke-width=".5" stroke-opacity=".302" stroke-linejoin="round" stroke-linecap="round" stroke="#2e2e00" fill="none" d="M9.5 14.25q1.35 1.3.85 4v2.65q-.95 1.45-2 1.3l-1.7-1.45q-.85-.35-.55-3.85-.15-1.8.9-2.9 1.1-1.1 2.5.25z"/><path fill-rule="evenodd" fill="#fffff1" d="M-3.3-3.15q2.9-1.4 5.55.5Q3.55.4 2.05 5H1.8l-4.5-1.85q-.65-.8-.75-1.95l-.2-1.55q-.15-1.6.35-2.8" transform="translate(14.8 21.75)"/><path fill-rule="evenodd" fill="#ffffed" d="m-3.3-3.15.6-1.15q.55-1.1 2.5-1.2 2-.15 3.25 1.15 1.25 1.3 1.4 3.6.1 2.15-.9 5.05l-.15.2h-.05l-1.3.5q1.5-4.6.2-7.65-2.65-1.9-5.55-.5" transform="translate(14.8 21.75)"/><path stroke-width=".5" stroke-opacity=".302" stroke-linejoin="round" stroke-linecap="round" stroke="#2e2e00" fill="none" d="m16.85 26.75 1.3-.5h.05l.15-.2q1-2.9.9-5.05-.15-2.3-1.4-3.6-1.25-1.3-3.25-1.15-1.95.1-2.5 1.2l-.6 1.15m5.35 8.15h-.25l-4.5-1.85q-.65-.8-.75-1.95l-.2-1.55q-.15-1.6.35-2.8m6.85 7.45-.2.2"/><path fill-rule="evenodd" fill="#ffffed" d="m10.8 4.7-.45.15L2.9 3.9q.05-.9.4-1.8l5.1-3-1.2 3.8 3.6 1.8M7 6.35 7.75 9 5.5 7.1 7 6.35" transform="translate(14.8 21.75)"/><path fill-rule="evenodd" fill="#f4ffdb" d="m10.35 4.85-3.4 1.2.05.3-1.5.75L7.75 9l.3 1.1-4.6-2.55Q2.75 5.3 2.9 3.9l7.45.95" transform="translate(14.8 21.75)"/><path stroke-width=".5" stroke-opacity=".333" stroke-linejoin="round" stroke-linecap="round" stroke="#2e2e00" fill="none" d="m25.6 26.45-.45.15-3.4 1.2m1.1 4.05-4.6-2.55m-.15-5.45 5.1-3-1.2 3.8"/><path fill-rule="evenodd" fill="#fffea0" d="M-7.05 4.25H-7v.05l-.05-.05" transform="translate(14.8 21.75)"/><path fill-rule="evenodd" fill="#ffd46a" d="M-7.95 3.6h.05l-.05.05V3.6" transform="translate(14.8 21.75)"/><path fill-rule="evenodd" fill="#f4ffdb" d="M-8.65-1.45q4.8 2.7 11.1 4.3 3.2 4.6-.7 5.95-3.1-.3-7.55-2.3-4.45-2-4.9-4.55-.4-2.6.9-3.7l1.15.3m7.8 5-1.35-.3Q-4.9 2.7-7.55.9L-8.1.45q-.45-1.15-1.5.4-.1 1.1.3 1.9l1.35.9.05-.05v.05l.2.15.15.1.5.35.05.05.3.15q2.3 1.25 6.3 2.3l1.6.35q.95-.5.45-1.4 0-.85-.4-1.25Q.8 4-.85 3.55" transform="translate(14.8 21.75)"/><path fill-rule="evenodd" fill="#fffff1" d="M-.6 5.3Q-3.05 4.85-4.75 4L-7.2 2.8-4.75 4q1.7.85 4.15 1.3l.2 1.45q-4-1.05-6.3-2.3L-7 4.3v-.05l-.2-1.45-.35-1.9Q-4.9 2.7-2.2 3.25l1.35.3.25 1.75" transform="translate(14.8 21.75)"/><path fill-rule="evenodd" fill="#ffffed" d="m-.6 5.3-.25-1.75q1.65.45 2.1.9.4.4.4 1.25.5.9-.45 1.4l-1.6-.35-.2-1.45 2.25.4-2.25-.4M-7.55.9l.35 1.9-1.2-.75 1.2.75.2 1.45h-.05l-.5-.35-.15-.1-.2-.15V3.6h-.05l-.45-1.55q-.1-.85.3-1.6l.55.45" transform="translate(14.8 21.75)"/><path fill-rule="evenodd" fill="#bbf5b5" d="m-8.4 2.05.45 1.55v.05l-1.35-.9q-.4-.8-.3-1.9Q-8.55-.7-8.1.45q-.4.75-.3 1.6" transform="translate(14.8 21.75)"/><path stroke-opacity=".212" stroke-linejoin="round" stroke-linecap="round" stroke="#2e2e00" fill="none" d="m-.85 3.55-1.35-.3Q-4.9 2.7-7.55.9M-8.1.45l.55.45m9.2 4.8q0-.85-.4-1.25Q.8 4-.85 3.55m2.5 2.15q.5.9-.45 1.4" transform="translate(14.8 21.75)"/><path stroke-width=".5" stroke-opacity=".412" stroke-linejoin="round" stroke-linecap="round" stroke="#2e2e00" fill="none" d="M6.15 20.3q4.8 2.7 11.1 4.3 3.2 4.6-.7 5.95-3.1-.3-7.55-2.3-4.45-2-4.9-4.55-.4-2.6.9-3.7l1.15.3"/><path stroke-width=".25" stroke-opacity=".212" stroke-linejoin="round" stroke-linecap="round" stroke="#2e2e00" fill="none" d="m7.6 24.55 2.45 1.2q1.7.85 4.15 1.3l2.25.4m-8.85-2.9-1.2-.75"/><path fill-rule="evenodd" fill="#d3ffc6" d="M-4.85 1.35V.9v.45m1.45.8q-1.95.2-3.35-.9l.6-1 .9-1.65Q-3.75.25-3.4 2.15M-5.75.85l-.4-.6.4.6" transform="translate(14.8 21.75)"/><path stroke-width=".5" stroke-opacity=".451" stroke-linejoin="round" stroke-linecap="round" stroke="#2e2e00" fill="none" d="M9.95 22.65v.45M8.65 22l.4.6"/><path stroke-width=".5" stroke-opacity=".412" stroke-linejoin="round" stroke-linecap="round" stroke="#2e2e00" fill="none" d="m8.65 22-.6 1q1.4 1.1 3.35.9m-1.85-3.55L8.65 22"/><path stroke-width=".25" stroke-opacity=".6" stroke-linejoin="round" stroke-linecap="round" stroke="#2e2e00" fill="none" d="M10.5 25.25v1.05m-2.1-2.05v.9m4.85 1.1v1"/><path stroke-opacity=".922" stroke-linejoin="round" stroke-linecap="round" stroke="#2e2e00" fill="none" d="M-6.55-2.7v.8M-.6-.4v.8" transform="translate(14.8 21.75)"/></g><g id="o" stroke-opacity="0" stroke-linejoin="round" stroke-linecap="round" stroke="#f0f" fill="none"><path d="M200.7-15.4v220h-220v-220h220" transform="translate(19.8 15.9)"/><path d="m200.7-15.4-110 110 110 110m-220-220 110 110-109.95 110m164.95-72.35H35.75" transform="translate(19.8 15.9)"/><path d="M149 23v136.2H30.85V23H149z" transform="translate(19.8 15.9)"/></g><use xlink:href="#h" width="25.85" transform="matrix(.7 0 0 .7 .02 .015)" height="36.85" id="a"/><use xlink:href="#i" width="4.3" height="4.15" id="c"/><use xlink:href="#j" width="3.7" height="4.65" id="d"/><use xlink:href="#k" width="7.3" height="10.7" id="e"/><use xlink:href="#l" width="4.3" height="4.15" id="f"/><use xlink:href="#m" width="100" height="40" id="p"/><path stroke-width=".25" stroke-linejoin="round" stroke-linecap="round" stroke="#001700" fill="none" d="M.3 14.1.6 17q-.45 2 .35 5.7l.8.4-1.65.8 3.15 1.15q-3.1 2.05-1.5 2.4l1.2.15-.35 1.25 1.4-.8.1.35q-.2.05-.35.2-1.1 4.6.55 3.6 1.25-.75 2.1-1.85h.1l1-.1.8-.45q2.45 3 2.75 1.3.25-1.9-.4-3.65l-.55-.1q2.2-.5 5.1-1.8 3.1-1.4 4.05-3.05l3.9-1-2.95-2.2 2.3-3.2h-3.3v-3l-1.1.95-.6-.75-.5-.7-.55-.35Q15.6 4.15 13.85.1 12.05 5 11.6 10.25q-2.2-.1-4.3.5-2.3.6-2.5 1.2l-.1.3Q3.6 8.9.45 5.1.1 8.9.25 12.75L.3 14.1z" id="b"/><path fill-rule="evenodd" fill-opacity="0" fill="#f0f" d="M100 40H0V0h100v40" id="m"/></defs><path fill="none" d="M-1-1h89v123H-1z"/><g stroke="null"><use x="-41.574" y="-33.139" xlink:href="#n" width="23.5" transform="translate(152.526 121.611) scale(3.6447)" height="33.5"/><use x="-97.02" y="-77.338" xlink:href="#o" width="221" transform="translate(9.52 9.372) scale(1.56177)" height="221"/><use x="-59.733" y="-59.167" xlink:href="#p" width="100" transform="translate(62.152 140.795) scale(1.88302)" height="40"/></g></svg>