<svg width="215" height="205" xmlns="http://www.w3.org/2000/svg" xmlns:xlink="http://www.w3.org/1999/xlink"><defs><linearGradient y2="1.297" y1=".436" x2=".1" x1=".531" spreadMethod="pad" id="c"><stop stop-color="#564745" offset="0"/><stop stop-color="#432121" offset="1"/></linearGradient><linearGradient y2=".44" y1=".592" x2="1.04" x1=".113" spreadMethod="pad" id="d"><stop stop-color="#564745" offset="0"/><stop stop-color="#432121" offset="1"/></linearGradient><linearGradient y2="1.082" y1=".169" x2=".687" x1=".424" spreadMethod="pad" id="e"><stop stop-color="#564745" offset="0"/><stop stop-color="#432121" offset="1"/></linearGradient><linearGradient y2=".799" y1=".486" x2=".678" x1=".291" spreadMethod="pad" id="f"><stop stop-color="#564745" offset="0"/><stop stop-color="#432121" offset="1"/></linearGradient><linearGradient y2=".99" y1=".188" x2=".136" x1=".977" spreadMethod="pad" id="g"><stop stop-color="#564745" offset="0"/><stop stop-color="#432121" offset="1"/></linearGradient><linearGradient y2="-.165" y1=".575" x2=".673" x1=".496" spreadMethod="pad" id="h"><stop stop-color="#6f673c" offset="0"/><stop stop-color="#620000" offset="1"/></linearGradient><linearGradient y2="1.066" y1=".255" x2=".883" x1=".252" spreadMethod="pad" id="i"><stop stop-color="#564745" offset="0"/><stop stop-color="#432121" offset="1"/></linearGradient><linearGradient y2=".621" y1=".104" x2=".513" x1=".485" spreadMethod="pad" id="j"><stop stop-color="#564745" offset="0"/><stop stop-color="#432121" offset="1"/></linearGradient><linearGradient y2="-.177" y1=".619" x2="-.132" x1=".658" spreadMethod="pad" id="k"><stop stop-color="#6f673c" offset="0"/><stop stop-color="#620000" offset="1"/></linearGradient><linearGradient y2=".812" y1=".511" x2="1.059" x1=".494" spreadMethod="pad" id="l"><stop stop-color="#564745" offset="0"/><stop stop-color="#432121" offset="1"/></linearGradient><linearGradient y2=".415" y1=".67" x2=".859" x1=".212" spreadMethod="pad" id="n"><stop stop-color="#fff" offset="0"/><stop stop-color="#eeddac" offset="1"/></linearGradient><linearGradient y2=".185" y1=".807" x2=".214" x1=".727" spreadMethod="pad" id="p"><stop stop-color="#fff" offset="0"/><stop stop-color="#eeddac" offset="1"/></linearGradient><radialGradient spreadMethod="pad" r="819.2" id="m" gradientUnits="userSpaceOnUse" gradientTransform="translate(-53.4 102.3) scale(.0299)" cy="0" cx="0"><stop stop-color="#f40202" offset="0"/><stop stop-color="#432121" offset="1"/></radialGradient><radialGradient spreadMethod="pad" r="819.2" id="o" gradientUnits="userSpaceOnUse" gradientTransform="matrix(.0166 .0023 0 .0193 -155.7 103.55)" cy="0" cx="0"><stop stop-color="#f40202" offset="0"/><stop stop-color="#432121" offset="1"/></radialGradient><radialGradient spreadMethod="pad" r="819.2" id="q" gradientUnits="userSpaceOnUse" gradientTransform="scale(.0582)" cy="0" cx="0"><stop stop-opacity=".247" stop-color="#e97351" offset="0"/><stop stop-opacity="0" stop-color="#e97757" offset="1"/></radialGradient><g id="t" stroke-opacity="0" stroke-linejoin="round" stroke-linecap="round" stroke="#f0f" fill="none"><path d="M187.95-293.5v380h-380v-380h380M92.95.6H-97" transform="translate(192.55 294)"/><path d="m187.95-293.5-190 190 190 190m-379.95 0 189.95-190-190-190" transform="translate(192.55 294)"/></g><g transform="translate(236.45 228.15)" id="u"><use xlink:href="#a" width="472.85" transform="translate(-236.45 -228.15)" height="456.35"/><use xlink:href="#b" width="92" transform="matrix(2.4765 1.4298 -1.3978 2.421 -3.027 -137.069)" height="95"/></g><g id="a"><path fill-rule="evenodd" fill="#fff" d="M-147.95-36.4q55.9-56.35 72.1-125.55l1.25 5.75q-1.45 42.6-21.85 71.85l11.6-10.15q-8.7 21.35-28.15 45.3-8.55 7.95-18 14.55 12.85-15.2 16.45-30.4-15.55 19.95-33.4 28.65m72.1-61.45q38.6-54.65 90.5-93.4 5.25-3.95 10.65-7.7l-7.35 7.7q-13.7 15.15-23.85 33-14.3 25.15-22.5 57.7 5.15-6.5 10.8-12.65 6.25-6.85 13.15-13.2Q17-146.35 44.4-161.95q20.35-13.5 36.6-29.3 10.4-10.15 19.1-21.2l-8 20.05-.7 1.15q-16.3 25.8-42.2 46.75l-13.05 9.75 13.05-9.75q11.9-8.5 23.85-15.4 34.1-19.9 68.2-27.15-66.5 47.65-71.55 81.5l-2.95 4.2q-6.75 10.7-7.2 23-3.45-5.95 0-19Q42.8-85.25 26-61.25 13.75-73.8 19.7-102.4q-13.75 6-23.45 26.6L5.1-110Q-28.45-80.55-43-38.45q-9.25-10.05-6.35-27.25-7.9 3.85-15.8 19-4.7-19.15 0-40.5 6.45-20.5 22.35-36.3-18.7 11.55-44.15 62.55-16.6 22.25-31.4 49.7l10.8-34.85q6.6-12.4 13.7-24.2 8.6-14.25 18-27.55m121.5-19.1q-10.6 19.9-5.05 16.45l15.95-12.85q11.05-19.05 35.55-43.5l-20.5 13.9q-10.1 3.45-25.95 26" transform="translate(236.45 228.15)"/><path fill-rule="evenodd" fill="#e3e6bf" d="M-113-49.2q19.45-23.95 28.15-45.3l-11.6 10.15q20.4-29.25 21.85-71.85 6.45 32.25-1.25 58.35-9.4 13.3-18 27.55-8.9 11.55-19.15 21.1M25.3-198.95l5.15-3.55-7.3 11.25Q0-154.25-4.45-126.4q-6.9 6.35-13.15 13.2-5.65 6.15-10.8 12.65 8.2-32.55 22.5-57.7 10.15-17.85 23.85-33l7.35-7.7m74.8-13.5q5.4-6.9 10.15-14.1-3.8 18.6-13.15 35.3-9.3 16.6-24.05 31.35Q61.1-153 49.2-144.5q25.9-20.95 42.2-46.75l.7-1.15 8-20.05m41.15 25.4 4.45-.9q-24.85 21.5-44.2 49.6-2.55 3.75-4.55 7.35-8.7 5.1-11.55 23.35-2.75 17.45 4.55 28.05-10.75-3.8-20.25-25.95 5.05-33.85 71.55-81.5m-228.2 126.1q25.45-51 44.15-62.55-15.9 15.8-22.35 36.3-11.3 12.05-21.8 26.25m132.6-56q15.85-22.55 25.95-26l20.5-13.9q-24.5 24.45-35.55 43.5L40.6-100.5q-5.55 3.45 5.05-16.45" transform="translate(236.45 228.15)"/><path fill-rule="evenodd" fill="#432121" d="M96.95-131q-15.65 28.25 3.15 49.7-8.5 7.45-17.8 14.35-17.2-13.2-15.55-34.4l2.95-4.2Q79.2-83.4 89.95-79.6q-7.3-10.6-4.55-28.05Q88.25-125.9 96.95-131m46.25 15.75 4.3-4.75q-21.8 54.05-38.3 75.95 1.2-4.6 1.75-9.8-8.7 15.7-22.5 23.9Q72.25-32.4 72.5-43q29.7-19.9 57.3-52.95L116-68.4q18.75-18.3 27.2-46.85m-271.55 293-9.85 1.9-23.9 2.95-16.75 3.2q-3.6-2.35-2.8-6.45 70.5-22.45 138.15-17.2-8.55-18.4-60.2-28.25-30.85-3.35-63.9 10.35-2-12.6-17.75-36.65-7.4-19.3-8.1-40.65 34.85 25.8 92.5 20.9Q-47.9 83.55.65 70.2q88.5-26.05 108.1-73.3 1.4-11.95-10.85-21.05 7.2.6 12.35-6.7l9.3-16.9q21.4 33.6 17.8 77.7-2.8 1.35-5.55 2.85-15.45 11.6-14.35 17.7 74.3.15 103.85-13.95-11.1 12.2-37.85 20.05-41.05 9.65-72.1-4.7-6.4 3.8 4.05 9.55l1.75.9q6.45 2.4 12.95 3.95-20.45 69.6-111.45 115.8-76 30.2-135.95-6.05 25-3.5 49.35-3 16.45.35 32.55 2.5-16.1-2.15-32.55-2.5-24.35-.5-49.35 3l-11.05 1.7M-233.55 8.1l1.1-2.7q9.9 15.9 31.6 27V21.5q2.45 6.65 10.6 7.6-2.9 9.4-4.3 18.75-16.25-5.2-32.45-20-7.55-12-6.55-19.75M114 43.85q8.8-6.15 17.8-11.05-9 4.9-17.8 11.05M-3.75 29.45q-8.3 3.8-11.4 1.2-.4-10.85 5.45-20.6 5.1-8.6 7.9-3.1l-6.35 8.4q-4.5 12.7 4.4 14.1m13.25 9.1-.55.15q-20.75-1.65-48.8 28.55-7.85 11-9.95 5.75 16.35-19.8 35-34.7 25.25-10.2 36.7-4 9.8 6.7-12.4 4.25m-194.55-84.5q4.05 8.55 14.65 13.8l13.45 4.45-10.55 9.35-12.35-7.25 8.35 15-3.65 6q-11.55-22.85-9.9-41.35" transform="translate(236.45 228.15)"/><path fill-rule="evenodd" fill="#514128" d="M-147.95-36.4q17.85-8.7 33.4-28.65-3.6 15.2-16.45 30.4 9.45-6.6 18-14.55 10.25-9.55 19.15-21.1-7.1 11.8-13.7 24.2l-10.8 34.85q14.8-27.45 31.4-49.7 10.5-14.2 21.8-26.25-4.7 21.35 0 40.5 7.9-15.15 15.8-19-2.9 17.2 6.35 27.25Q-28.45-80.55 5.1-110l-8.85 34.2q9.7-20.6 23.45-26.6-5.95 28.6 6.3 41.15 16.8-24 33.55-36.1-3.45 13.05 0 19 .45-12.3 7.2-23-1.65 21.2 15.55 34.4-7.6 5.55-15.75 10.75 8.15-5.2 15.75-10.75 9.3-6.9 17.8-14.35 17.55-15.55 31.7-33.8l-4.45 12.7q7.9-4.6 15.85-12.85Q134.75-86.7 116-68.4l13.8-27.55Q102.2-62.9 72.5-43q-.25 10.6 15.95 13.05 13.8-8.2 22.5-23.9-.55 5.2-1.75 9.8-3.3 12.4-11.3 19.9 12.25 9.1 10.85 21.05Q89.15 44.15.65 70.2q-48.55 13.35-101.6 17.65-57.65 4.9-92.5-20.9l-2.45-1.9q0-6.45.75-12.95l.6-4.25q1.4-9.35 4.3-18.75-8.15-.95-10.6-7.6v10.9q-21.7-11.1-31.6-27 1.35-2.9 3.45-5.85 6.1 11.5 19.15 16.1-11.8-11.25-9.8-18 19.2 5.65 31.7 24.65 3.85-10.5 9.55-21.1l3.25-5.8 3.65-6-8.35-15 12.35 7.25 10.55-9.35-13.45-4.45q-10.6-5.25-14.65-13.8-2.45-5.15-2.5-11.5l.8-11.4q5.8 21 13.95 24.65-1.8-9.8-1.9-17.75 11.8 18.65 24.9 27.4l1.85-1.85M145.2 26.35q23.85-10.15 49.25-11.6-11.15 7.15-10.8 16.45 9.7-9.7 29.15-14.55 16.9 5.2 20.85 11.5-4.1 4.15-10.6 7.5l-1.75.9q-29.55 14.1-103.85 13.95-1.1-6.1 14.35-17.7 2.75-1.5 5.55-2.85 3.9-1.9 7.85-3.6m-326.85 153 7.6-32.3 6.45-2.8q33.05-13.7 63.9-10.35 51.65 9.85 60.2 28.25-67.65-5.25-138.15 17.2m173.5-164 6.35-8.4q-2.8-5.5-7.9 3.1-5.85 9.75-5.45 20.6 3.1 2.6 11.4-1.2-8.9-1.4-4.4-14.1M8.3 28Q.65 30.1-3.75 29.45.65 30.1 8.3 28m-48.15 39.25q28.05-30.2 48.8-28.55l.55-.15Q31.7 41 21.9 34.3q-11.45-6.2-36.7 4-18.65 14.9-35 34.7 2.1 5.25 9.95-5.75M-149.8-34.55l-7.15 6.85 7.15-6.85m134.05 48Q-22.6 42.65-44.9 62.2q22.3-19.55 29.15-48.75m-194.1 2.2.35.35-.35-.35m19.6 13.45 2.3-6.8-2.3 6.8" transform="translate(236.45 228.15)"/><path fill-rule="evenodd" fill="url(#c)" d="m147.5-120 5.2-6.5q-11.5 36-29.15 71l-4 7.75-9.3 16.9q-5.15 7.3-12.35 6.7 8-7.5 11.3-19.9 16.5-21.9 38.3-75.95" transform="translate(236.45 228.15)"/><path fill-rule="evenodd" fill="url(#d)" d="M233.65 28.15q4.6 7.45-8.85 16.35-43.25 28.75-83.95 23.7-5.4-.65-10.75-1.9-6.5-1.55-12.95-3.95l-1.75-.9q-10.45-5.75-4.05-9.55 31.05 14.35 72.1 4.7 26.75-7.85 37.85-20.05l1.75-.9q6.5-3.35 10.6-7.5" transform="translate(236.45 228.15)"/><path fill-rule="evenodd" fill="url(#e)" d="M123.55-55.5q25.65 40.9 21.65 81.85-3.95 1.7-7.85 3.6 3.6-44.1-17.8-77.7l4-7.75" transform="translate(236.45 228.15)"/><path fill-rule="evenodd" fill="url(#f)" d="M-178.4 1.2q-11.15-19.85-9.15-58.65.05 6.35 2.5 11.5-1.65 18.5 9.9 41.35l-3.25 5.8" transform="translate(236.45 228.15)"/><path fill-rule="evenodd" fill="url(#g)" d="M140.85 68.2q-24.5 50.7-66.75 85.65l-4.25 3.4q-8.2 6.5-17 12.45-19.2 12.8-41.35 22.95-40.8 13.15-75.9 9.35l-9.2-1.3q-22.45-4-42.5-15.25-6.25-3.5-12.25-7.7l11.05-1.7q59.95 36.25 135.95 6.05 91-46.2 111.45-115.8 5.35 1.25 10.75 1.9" transform="translate(236.45 228.15)"/><path fill-rule="evenodd" fill="url(#h)" d="M-64.4 202q-1.05 16.45-22 21.6l-4.95 1q22.75-9.2 17.75-23.9l9.2 1.3" transform="translate(236.45 228.15)"/><path fill-rule="evenodd" fill="url(#i)" d="M-174.05 147.05q2.95-8.05-3.8-18.35-18.2-31.35-18.05-63.65l2.45 1.9q.7 21.35 8.1 40.65 15.75 24.05 17.75 36.65l-6.45 2.8" transform="translate(236.45 228.15)"/><path fill-rule="evenodd" fill="url(#j)" d="M-138.2 179.65q-16.85 3.4-33.95 8.55-4.35-.8-6.7-2.4l16.75-3.2 23.9-2.95" transform="translate(236.45 228.15)"/><path fill-rule="evenodd" fill="#6f2c0b" d="M47 219.1q-2.75-3.6-2-9.95 7.7-17.25 7.85-39.45 8.8-5.95 17-12.45 20.75 11.5 25.8 24.7-8.35-4.75-16.6-4.6-20 1.35-32.05 41.75m-138.35 5.5-8.65 1q-17.65 2.4-26.8-1 28.5 1.45 36.25-13.05-.4-13.4-40.75-17.6 6.25-5.6 15.2-8.5 20.05 11.25 42.5 15.25 5 14.7-17.75 23.9" transform="translate(236.45 228.15)"/><path fill-rule="evenodd" fill="#b6620e" d="M90.45 224.45q-17.7 2-37.2-1.4-4.15-1.15-6.25-3.95 12.05-40.4 32.05-41.75 8.25-.15 16.6 4.6 14.55 31.15-5.2 42.5m-217.25.15q-2.65-1-4.6-2.5-11.4-8.55-9.75-14.25 3.55-8.3 9.85-13.9 40.35 4.2 40.75 17.6-7.75 14.5-36.25 13.05" transform="translate(236.45 228.15)"/><path fill-rule="evenodd" fill="url(#k)" d="M74.1 153.85q24.75 17.65 37.4 41.35-8-8.8-15.85-13.25-5.05-13.2-25.8-24.7l4.25-3.4" transform="translate(236.45 228.15)"/><path fill-rule="evenodd" fill="#cb8321" d="M111.5 195.2q7.5 18.55 0 24.7-10.2 3.3-21.05 4.55 19.75-11.35 5.2-42.5 7.85 4.45 15.85 13.25" transform="translate(236.45 228.15)"/><path fill-rule="evenodd" fill="url(#l)" d="M-195.15 52.1q-46.95-19.45-38.4-44-1 7.75 6.55 19.75 16.2 14.8 32.45 20l-.6 4.25" transform="translate(236.45 228.15)"/><path stroke-width="3.25" stroke-opacity=".498" stroke-linejoin="round" stroke-linecap="round" stroke="#ffc" fill="none" d="m161.85 71.95-1.25-5.75q-16.2 69.2-72.1 125.55m73.35-119.8q6.45 32.25-1.25 58.35 38.6-54.65 90.5-93.4 5.25-3.95 10.65-7.7l5.15-3.55-7.3 11.25q-23.15 37-27.6 64.85 21.45-19.95 48.85-35.55 20.35-13.5 36.6-29.3 10.4-10.15 19.1-21.2 5.4-6.9 10.15-14.1-3.8 18.6-13.15 35.3-9.3 16.6-24.05 31.35 34.1-19.9 68.2-27.15l4.45-.9q-24.85 21.5-44.2 49.6-2.55 3.75-4.55 7.35"/><path stroke-width=".05" stroke-opacity=".498" stroke-linejoin="round" stroke-linecap="round" stroke="#ffc" fill="none" d="M285.65 83.65 272.6 93.4m-40.6 8.35q-6.9 6.35-13.15 13.2-5.65 6.15-10.8 12.65M309.5 68.25q-11.95 6.9-23.85 15.4m-143.05 74.2q-7.1 11.8-13.7 24.2m31.7-51.75q-9.4 13.3-18 27.55"/><path stroke-width="3.25" stroke-linejoin="round" stroke-linecap="round" stroke="#3c0000" fill="none" d="M333.4 97.15q-15.65 28.25 3.15 49.7 17.55-15.55 31.7-33.8l-4.45 12.7q7.9-4.6 15.85-12.85l4.3-4.75 5.2-6.5q-11.5 36-29.15 71 25.65 40.9 21.65 81.85 23.85-10.15 49.25-11.6-11.15 7.15-10.8 16.45 9.7-9.7 29.15-14.55 16.9 5.2 20.85 11.5 4.6 7.45-8.85 16.35-43.25 28.75-83.95 23.7-24.5 50.7-66.75 85.65m-21.25 15.85q-19.2 12.8-41.35 22.95-40.8 13.15-75.9 9.35m-51.7-16.55q-6.25-3.5-12.25-7.7l-9.85 1.9q-16.85 3.4-33.95 8.55-4.35-.8-6.7-2.4-3.6-2.35-2.8-6.45l7.6-32.3q2.95-8.05-3.8-18.35m-17.3-76.6q-46.95-19.45-38.4-44l1.1-2.7q1.35-2.9 3.45-5.85 6.1 11.5 19.15 16.1-11.8-11.25-9.8-18 19.2 5.65 31.7 24.65m9.55-21.1Q46.9 209.5 48.9 170.7l.8-11.4q5.8 21 13.95 24.65-1.8-9.8-1.9-17.75 11.8 18.65 24.9 27.4l1.85-1.85m279.75 69.2q-9 4.9-17.8 11.05m-3.75-74.7 9.3-16.9 4-7.75m-41.25-11.45q-7.6 5.55-15.75 10.75m70.8 86.15q-2.8 1.35-5.55 2.85m-16.4 28.65 1.75.9q6.45 2.4 12.95 3.95 5.35 1.25 10.75 1.9m-297.8-95.9 7.15-6.85m76.2 235.25 9.2 1.3m-52.9-25.95q25-3.5 49.35-3 16.45.35 32.55 2.5m-92.95 2.2 11.05-1.7m1.2 9.4q20.05 11.25 42.5 15.25M306.3 385.4l4.25-3.4m-4.25 3.4q-8.2 6.5-17 12.45m92.35-143.35q-3.95 1.7-7.85 3.6m-37.25-111.25q-8.5 7.45-17.8 14.35m-291.8 82.95-.35-.35"/><path stroke-width=".05" stroke-linejoin="round" stroke-linecap="round" stroke="#000" fill="none" d="M232.7 257.6q-8.9-1.4-4.4-14.1m4.4 14.1q4.4.65 12.05-1.45m1.2 10.55-.55.15q-20.75-1.65-48.8 28.55m-5.05-5.05q22.3-19.55 29.15-48.75"/><path stroke-width="3.25" stroke-linejoin="round" stroke-linecap="round" stroke="#3c0000" fill="none" d="M58.6 356.85Q40.4 325.5 40.55 293.2q0-6.45.75-12.95m7.2-29.8q3.85-10.5 9.55-21.1m3.25-5.8 3.65-6m-3.65 6-3.25 5.8m-9.55 21.1-2.3 6.8q-2.9 9.4-4.3 18.75l-.6 4.25"/><path stroke-width="3.25" stroke-linejoin="round" stroke-linecap="round" stroke="#620000" fill="none" d="M310.55 382q24.75 17.65 37.4 41.35 7.5 18.55 0 24.7-10.2 3.3-21.05 4.55-17.7 2-37.2-1.4-4.15-1.15-6.25-3.95-2.75-3.6-2-9.95 7.7-17.25 7.85-39.45m-117.25 32.3q-1.05 16.45-22 21.6l-4.95 1-8.65 1q-17.65 2.4-26.8-1-2.65-1-4.6-2.5-11.4-8.55-9.75-14.25 3.55-8.3 9.85-13.9 6.25-5.6 15.2-8.5"/><path fill-rule="evenodd" fill="url(#m)" d="M-31.65 91.05q-5.7 14.45-18.7 19.15-13.05 4.7-20.8-7.4l-.2-.65.55-.15q13.35-4.35 26.35-7.8l4.5-1.15.85-.2 3.75-.95 3.7-.85" transform="translate(236.45 228.15)"/><path fill-rule="evenodd" fill="url(#n)" d="M6.65 83q-5.1 18.35-27.2 34.2L-94 123.55l13.6-17.7q3.4-4.45 7.1-5.65 17.75-5.8 34.85-9.8 23.2-5.4 45.1-7.4m-42 8.9-3.75.95-.85.2-4.5 1.15q-13 3.45-26.35 7.8l-.55.15.2.65q7.75 12.1 20.8 7.4 13-4.7 18.7-19.15l-.05-.1-3.65.95" transform="translate(236.45 228.15)"/><path stroke-width="6" stroke-linejoin="round" stroke-linecap="round" stroke="#000" fill="none" d="m142.45 351.7 73.45-6.35q22.1-15.85 27.2-34.2"/><path stroke-width="8.25" stroke-linejoin="round" stroke-linecap="round" stroke="#000" fill="none" d="M243.1 311.15q-21.9 2-45.1 7.4-17.1 4-34.85 9.8-3.7 1.2-7.1 5.65"/><path stroke-width="8" stroke-linejoin="round" stroke-linecap="round" stroke="#000" fill="none" d="m156.05 334-13.6 17.7 13.6-17.7z"/><path fill-rule="evenodd" fill="url(#o)" d="m-168.35 95.8 1.7.6 1.75.7q.2 0 .4.15l2.1.85q6 2.5 12.4 5.9l.25.1.05.7q-.45 12.55-6.8 8.8-6.3-3.75-11.85-17.8" transform="translate(236.45 228.15)"/><path fill-rule="evenodd" fill="url(#p)" d="m-166.65 96.4-1.7-.7v.1q5.55 14.05 11.85 17.8 6.35 3.75 6.8-8.8l-.05-.7-.25-.1q-6.4-3.4-12.4-5.9l-2.1-.85q-.2-.15-.4-.15l-1.75-.7m-19-5.95q9.3.45 19.95 4.2 7.8 2.8 16.3 7.35 1.75.95 4.15 5.2l9.45 16.7-29.9-4.25q-13.85-11.3-19.95-29.2" transform="translate(236.45 228.15)"/><path stroke-width="6" stroke-linejoin="round" stroke-linecap="round" stroke="#000" fill="none" d="m100.65 352.05-29.9-4.25Q56.9 336.5 50.8 318.6"/><path stroke-width="8" stroke-linejoin="round" stroke-linecap="round" stroke="#000" fill="none" d="M50.8 318.6q9.3.45 19.95 4.2 7.8 2.8 16.3 7.35 1.75.95 4.15 5.2l9.45 16.7L50.8 318.6z"/></g><path fill-rule="evenodd" fill="url(#q)" d="M32.5-33.65Q46-19.7 46 0T32.5 33.55Q19.05 47.5 0 47.5t-32.5-13.95Q-46 19.7-46 0q0-19.7 13.5-33.65Q-19.05-47.5 0-47.5t32.5 13.85" transform="translate(46 47.5)" id="r"/><path fill-rule="evenodd" fill-opacity="0" fill="#f0f" d="M102.95 45H0V0h102.95v45" id="s"/><use xlink:href="#r" width="92" height="95" id="b"/><use xlink:href="#s" width="102.95" height="45" id="v"/></defs><path fill="none" d="M-1-1h217v207H-1z"/><g stroke="null"><use x="45.579" y="167.882" xlink:href="#t" width="381" transform="translate(-337.458 -540.316) scale(1.78947)" height="381"/><use x="183.788" y="676.945" xlink:href="#u" width="472.85" transform="translate(-80.305 -300.595) scale(.44379)" height="456.35"/><use x="-81.048" y="-75.957" xlink:href="#v" width="102.95" transform="matrix(3.23394 0 0 2.95943 178.895 283.916)" height="45"/></g></svg>