<svg width="174" height="245" xmlns="http://www.w3.org/2000/svg" xmlns:xlink="http://www.w3.org/1999/xlink"><defs><linearGradient y2=".421" y1=".938" x2=".424" x1=".546" spreadMethod="pad" id="c"><stop stop-color="#bbeb8d" offset="0"/><stop stop-color="#a3e362" offset="1"/></linearGradient><linearGradient y2=".363" y1=".852" x2=".516" x1=".403" spreadMethod="pad" id="d"><stop stop-color="#72b649" offset="0"/><stop stop-color="#476c2d" offset="1"/></linearGradient><linearGradient y2=".118" y1=".906" x2=".087" x1=".692" spreadMethod="pad" id="e"><stop stop-color="#72b649" offset="0"/><stop stop-color="#476c2d" offset="1"/></linearGradient><linearGradient y2=".263" y1=".88" x2=".183" x1=".473" spreadMethod="pad" id="f"><stop stop-color="#72b649" offset="0"/><stop stop-color="#476c2d" offset="1"/></linearGradient><linearGradient y2="-.342" y1=".633" x2=".961" x1=".482" spreadMethod="pad" id="g"><stop stop-color="#bbeb8d" offset="0"/><stop stop-color="#a3e362" offset="1"/></linearGradient><linearGradient y2="-.005" y1=".528" x2=".96" x1=".504" spreadMethod="pad" id="h"><stop stop-color="#5f3307" offset="0"/><stop stop-color="#7e5e19" offset="1"/></linearGradient><linearGradient y2=".5" y1=".5" x2=".828" x1=".169" spreadMethod="pad" id="i"><stop stop-color="#a85a0d" offset="0"/><stop stop-color="#a59330" offset="1"/></linearGradient><linearGradient y2=".24" y1=".481" x2=".703" x1=".623" spreadMethod="pad" id="j"><stop stop-color="#72b649" offset="0"/><stop stop-color="#476c2d" offset="1"/></linearGradient><linearGradient y2=".265" y1=".783" x2=".999" x1=".074" spreadMethod="pad" id="k"><stop stop-color="#72b649" offset="0"/><stop stop-color="#476c2d" offset="1"/></linearGradient><linearGradient y2=".294" y1=".805" x2=".197" x1=".779" spreadMethod="pad" id="l"><stop stop-color="#5f3307" offset="0"/><stop stop-color="#7e5e19" offset="1"/></linearGradient><linearGradient y2=".5" y1=".5" x2="-.005" x1=".751" spreadMethod="pad" id="m"><stop stop-color="#a85a0d" offset="0"/><stop stop-color="#a59330" offset="1"/></linearGradient><linearGradient y2="-713.281" y1="-27.119" x2="-192.258" x1="-170.092" spreadMethod="pad" id="n"><stop stop-color="#bbeb8d" offset="0"/><stop stop-color="#95df4a" offset="1"/></linearGradient><linearGradient y2=".133" y1=".706" x2=".221" x1=".495" spreadMethod="pad" id="o"><stop stop-color="#72b649" offset="0"/><stop stop-color="#476c2d" offset="1"/></linearGradient><g id="s" stroke-opacity="0" stroke-linejoin="round" stroke-linecap="round" stroke="#f0f" fill="none"><path d="M187.95-293.5v380h-380v-380h380M92.95.6H-97" transform="translate(192.55 294)"/><path d="m187.95-293.5-190 190 190 190m-379.95 0 189.95-190-190-190" transform="translate(192.55 294)"/></g><g transform="translate(193.55 276.4)" id="t"><use xlink:href="#a" width="387.15" transform="translate(-193.55 -276.4)" height="551.85"/><use xlink:href="#b" width="92" transform="matrix(1.2778 -.3424 .1184 .696 -15.201 128.64)" height="95"/></g><g id="a"><path fill-rule="evenodd" fill="url(#c)" d="M-46.85-120.1q5.8 21.25 27.65 18.55-18-48.7 37.6-140.7L-2.45-220.2q-31.45 44.5-44.4 100.05h-.05l.05.05m-2.1-12.85 1.4 10.05.65 2.75-.65-2.75-1.4-10.05q26.4-88.5 75.65-122.6 16.6-11.55 35.8-16.85 16.75 28.05 0 65.8l-27.1 20.65 25.8-9q-7.3 50.25-49.35 75 72.9-29.5 79.05-14.35 1.75 3.75 2.05 7.3Q61.85-97.7 2.2-92.85-6.2-84.3 8.3-82.7q13.3-2.45 24.55-5.15 36.75-3.5 59.75 5.65l-19.35-19.7 3.15-1.7q15 13.15 27.15 26.95Q147.7-26.55 154.1 32.2q40 73.9 34.9 132.7l-.85-.05q-29.2-9.45-43.65-38.35-6.75 16.75-19 29.8 4.8 11.8 7 21.8-41.85 13.2-79.95-5.25Q36.6 167.6 36.9 190.2q-137.45-3.8-107.65-123.3-99.8-52.8-2.25-158.6l-2.15-7.45-1.65-6.1q-15.2-57.3.65-69.8l2.15-1.45q16.9-9.1 25.05 43.55m60.8 13-15.2 6.3 15.2-6.3m111.3 270.85 2.35 5.4-2.35-5.4m-199.3-319.55q-4.5 1.7-4.45 17.3 5 45.95 15.7 64.1 11.1 4.5 13.3-5.6-23.6-33.15-24.55-75.8m229 247.3-.05 5.05.05-5.05M10.5-8.1Q-6.5-3.4-19.8 11q-19.65 21.35-19.65 51.55 0 30.2 19.65 51.55 19.7 21.35 47.5 21.35 16.55 0 30.2-7.55 9.3-5.15 17.25-13.8 19.7-21.35 19.7-51.55 0-30.2-19.7-51.55Q55.5-10.35 27.7-10.35q-9.05 0-17.2 2.25m135.05 131.9-1.05 2.7 1.05-2.7q13.75 25.85 41.85 35.45-8.35-61.05-34.6-75.55-.55 22.1-7.25 40.1" transform="translate(193.55 276.4)"/><path fill-rule="evenodd" fill="url(#d)" d="M-46.85-120.15Q-33.9-175.7-2.45-220.2l20.85-22.05q-55.6 92-37.6 140.7-21.85 2.7-27.65-18.55v-.05" transform="translate(193.55 276.4)"/><path fill-rule="evenodd" fill="#72b649" d="m-46.85-120.1-.05-.05h.05v.05" transform="translate(193.55 276.4)"/><path fill-rule="evenodd" fill="url(#e)" d="M-76.15-168.65q.95 42.65 24.55 75.8-2.2 10.1-13.3 5.6-10.7-18.15-15.7-64.1-.05-15.6 4.45-17.3" transform="translate(193.55 276.4)"/><path fill-rule="evenodd" fill="url(#f)" d="M-75.15-99.15-73-91.7q-97.55 105.8 2.25 158.6-29.8 119.5 107.65 123.3-.3-22.6 15.65-17.35 38.1 18.45 79.95 5.25 3.35 15.5.4 26.7-42.95-.1-85.9-17.75 5.95 4.05 12.65 7.4-89.85 53.35-187.5-4 4-5.9 7.05-12.45v-6.95q-24.6 40.05-57.4 51.25 48.9-61.25 47.85-109.1-2.8-15.95-22.7-6.15-7.25 8.4-13.05 17.05-15.55-22.95-3-80.35 31.05-86.3 93.95-142.9" transform="translate(193.55 276.4)"/><path fill-rule="evenodd" fill="#bbeb8d" d="m-76.8-105.25 1.65 6.1q-62.9 56.6-93.95 142.9-12.55 57.4 3 80.35l-6.05 9.7Q-209.1 30.15-76.8-105.25m-52.5 297.8 1.45-2.1q97.65 57.35 187.5 4l5.4 2.55-5.4-2.55q-6.7-3.35-12.65-7.4 42.95 17.65 85.9 17.75-.8 2.9-2 5.5-38.4-1.15-65.85-13.3-7.9 4.9-15.8 9-14.4 7.45-28.8 12.15-18.4 6-36.8 7.5-21 1.7-41.95-2.4-35.5-7-71-30.7" transform="translate(193.55 276.4)"/><path fill-rule="evenodd" fill="url(#g)" d="M-166.1 124.1q5.8-8.65 13.05-17.05 19.9-9.8 22.7 6.15 1.05 47.85-47.85 109.1 32.8-11.2 57.4-51.25V178q-3.05 6.55-7.05 12.45l-1.45 2.1q-18.5 25.5-56 38.4-12.9-51.55 13.15-97.15l6.05-9.7" transform="translate(193.55 276.4)"/><path fill-rule="evenodd" fill="url(#h)" d="M-16.35 225.65q23.3 19.15 16.9 28.5-49.05 23.5-98.1 16.8-.95-4.15-.6-8.2 38.75 5.35 73.15-10.5-1.15-12.15-50.45-19.55 7.4-4.85 17.15-9.45 20.95 4.1 41.95 2.4" transform="translate(193.55 276.4)"/><path fill-rule="evenodd" fill="url(#i)" d="M-98.15 262.75q1.3-16 22.7-30.05 49.3 7.4 50.45 19.55-34.4 15.85-73.15 10.5" transform="translate(193.55 276.4)"/><path fill-rule="evenodd" fill="url(#j)" d="M73.25-101.9 92.6-82.2q-23-9.15-59.75-5.65 25.7-6.3 40.4-14.05" transform="translate(193.55 276.4)"/><path fill-rule="evenodd" fill="url(#k)" d="M92.95-127q1.15 13-16.55 23.4l-3.15 1.7q-14.7 7.75-40.4 14.05Q21.6-85.15 8.3-82.7q-14.5-1.6-6.1-10.15Q61.85-97.7 92.95-127" transform="translate(193.55 276.4)"/><path fill-rule="evenodd" fill="#ecffc7" d="M57.9 127.9q-13.65 7.55-30.2 7.55-27.8 0-47.5-21.35-19.65-21.35-19.65-51.55 0-30.2 19.65-51.55Q-6.5-3.4 10.5-8.1-14.4 33.45-7.05 63.5-9.7 65.05-12 67.35q-6.8 6.8-6.8 16.45 0 9.65 6.8 16.45 6.8 6.8 16.45 6.8l1.7-.05q16.75 23.25 51.75 20.9" transform="translate(193.55 276.4)"/><path fill-rule="evenodd" d="m6.15 107-1.7.05q-9.65 0-16.45-6.8-6.8-6.8-6.8-16.45 0-9.65 6.8-16.45 2.3-2.3 4.95-3.85 5.15-2.95 11.5-2.95 9.65 0 16.45 6.8 6.8 6.8 6.8 16.45 0 9.65-6.8 16.45-6.2 6.2-14.75 6.75" transform="translate(193.55 276.4)"/><path fill-rule="evenodd" fill="#f8ffea" d="M10.5-8.1q8.15-2.25 17.2-2.25 27.8 0 47.45 21.35 19.7 21.35 19.7 51.55 0 30.2-19.7 51.55-7.95 8.65-17.25 13.8-35 2.35-51.75-20.9 8.55-.55 14.75-6.75 6.8-6.8 6.8-16.45 0-9.65-6.8-16.45-6.8-6.8-16.45-6.8-6.35 0-11.5 2.95Q-14.4 33.45 10.5-8.1" transform="translate(193.55 276.4)"/><path fill-rule="evenodd" fill="url(#l)" d="M20.45 218.15q14.4-4.7 28.8-12.15 9.1 5.3 16.05 10.35-33.05 3.35-32.1 18.8 22.55 25.6 53.95 8.65.3 2.65-.15 5.2-17.15 21.25-78.7-6.45-1.5-12.2 12.15-24.4" transform="translate(193.55 276.4)"/><path fill-rule="evenodd" fill="url(#m)" d="M87.15 243.8q-31.4 16.95-53.95-8.65-.95-15.45 32.1-18.8 20.2 14.75 21.85 27.45" transform="translate(193.55 276.4)"/><path fill-rule="evenodd" fill="url(#n)" d="m189 164.9-.05.2-.8-.25.85.05" transform="translate(193.55 276.4)"/><path fill-rule="evenodd" fill="url(#o)" d="M145.55 123.8q6.7-18 7.25-40.1 26.25 14.5 34.6 75.55-28.1-9.6-41.85-35.45" transform="translate(193.55 276.4)"/><path stroke-width="8" stroke-opacity=".561" stroke-linejoin="round" stroke-linecap="round" stroke="#deff9b" fill="none" d="m146.65 156.25-.65-2.75-1.4-10.05q-8.15-52.65-25.05-43.55m206.5 354.6q-2.2-10-7-21.8l-2.35-5.4M190.2 162.75l15.2-6.3q42.05-24.75 49.35-75l-25.8 9 27.1-20.65q16.75-37.75 0-65.8-19.2 5.3-35.8 16.85-49.25 34.1-75.65 122.6m60.8 13q72.9-29.5 79.05-14.35 1.75 3.75 2.05 7.3 1.15 13-16.55 23.4 15 13.15 27.15 26.95 44.15 50.1 50.55 108.85 40 73.9 34.9 132.7l-.05.2-.8-.25q-29.2-9.45-43.65-38.35-6.75 16.75-19 29.8M40.5 383.45q-7.25 8.4-13.05 17.05l-6.05 9.7q-26.05 45.6-13.15 97.15 37.5-12.9 56-38.4l1.45-2.1q4-5.9 7.05-12.45m62.5 45.25q-35.5-7-71-30.7m52.5-297.8Q-15.55 306.55 21.4 410.2m324.95-50.1.05-5.05m-120-166.5q-11.25 2.7-24.55 5.15m68.1-20.9-3.15 1.7q-14.7 7.75-40.4 14.05m-12.4 306q14.4-4.7 28.8-12.15 7.9-4.1 15.8-9l-5.4-2.55m-76 31.2q18.4-1.5 36.8-7.5m44.6-21.15q27.45 12.15 65.85 13.3 1.2-2.6 2-5.5 2.95-11.2-.4-26.7m-85.5 8.95q5.95 4.05 12.65 7.4m84.85-67.95 1.05-2.7q6.7-18 7.25-40.1m-211.1 139.55q20.95 4.1 41.95 2.4"/><path stroke-width="8" stroke-opacity=".561" stroke-linejoin="round" stroke-linecap="round" stroke="#deff9b" fill="none" d="m119.55 99.9-2.15 1.45q-15.85 12.5-.65 69.8l1.65 6.1 2.15 7.45"/><path stroke-width=".05" stroke-linejoin="round" stroke-linecap="round" stroke="#0f0" fill="none" d="M146.7 156.3v-.05"/><path stroke-width="6" stroke-opacity=".369" stroke-linejoin="round" stroke-linecap="round" stroke="#cef695" fill="none" d="M177.2 502.05q23.3 19.15 16.9 28.5-49.05 23.5-98.1 16.8-.95-4.15-.6-8.2 1.3-16 22.7-30.05 7.4-4.85 17.15-9.45m78.75-5.1q-13.65 12.2-12.15 24.4 61.55 27.7 78.7 6.45.45-2.55.15-5.2-1.65-12.7-21.85-27.45-6.95-5.05-16.05-10.35"/><path stroke-width="4" stroke-opacity=".529" stroke-linejoin="round" stroke-linecap="round" stroke="#ecffc7" fill="none" d="M251.45 404.3q-13.65 7.55-30.2 7.55-27.8 0-47.5-21.35-19.65-21.35-19.65-51.55 0-30.2 19.65-51.55 13.3-14.4 30.3-19.1 8.15-2.25 17.2-2.25 27.8 0 47.45 21.35 19.7 21.35 19.7 51.55 0 30.2-19.7 51.55-7.95 8.65-17.25 13.8"/><path stroke-width=".05" stroke-linejoin="round" stroke-linecap="round" stroke="#000" fill="none" d="m199.7 383.4-1.7.05q-9.65 0-16.45-6.8-6.8-6.8-6.8-16.45 0-9.65 6.8-16.45 2.3-2.3 4.95-3.85 5.15-2.95 11.5-2.95 9.65 0 16.45 6.8 6.8 6.8 6.8 16.45 0 9.65-6.8 16.45-6.2 6.2-14.75 6.75"/><path fill-rule="evenodd" fill="#fff" d="M21.45 76q-2.65 2.65-6.4 2.65-3.75 0-6.4-2.65Q6 73.35 6 69.6q0-3.75 2.65-6.4 2.65-2.65 6.4-2.65 3.75 0 6.4 2.65 2.65 2.65 2.65 6.4 0 3.75-2.65 6.4m-9.25 25.6q-1.7 1.75-4.15 1.75T3.9 101.6q-1.7-1.7-1.7-4.15t1.7-4.15q1.7-1.7 4.15-1.7t4.15 1.7q1.75 1.7 1.75 4.15t-1.75 4.15" transform="translate(193.55 276.4)"/><path fill-rule="evenodd" fill="#fff" d="M6.9 102.35q-1.15 1.15-2.8 1.15t-2.8-1.15q-1.15-1.2-1.15-2.8 0-1.65 1.15-2.85 1.15-1.15 2.8-1.15t2.8 1.15q1.15 1.2 1.15 2.85 0 1.6-1.15 2.8M22.95 90.5q-1.15 1.15-2.8 1.15t-2.8-1.15q-1.15-1.2-1.15-2.8 0-1.65 1.15-2.85 1.15-1.15 2.8-1.15t2.8 1.15q1.15 1.2 1.15 2.85 0 1.6-1.15 2.8" transform="translate(193.55 276.4)"/></g><path fill-rule="evenodd" fill="url(#p)" d="M32.5-33.65Q46-19.7 46 0T32.5 33.55Q19.05 47.5 0 47.5t-32.5-13.95Q-46 19.7-46 0q0-19.7 13.5-33.65Q-19.05-47.5 0-47.5t32.5 13.85" transform="translate(46 47.5)" id="q"/><path fill-rule="evenodd" fill-opacity="0" fill="#f0f" d="M102.95 45H0V0h102.95v45" id="r"/><use xlink:href="#q" width="92" height="95" id="b"/><use xlink:href="#r" width="102.95" height="45" id="u"/><radialGradient spreadMethod="pad" r="819.2" id="p" gradientUnits="userSpaceOnUse" gradientTransform="scale(.0582)" cy="0" cx="0"><stop stop-opacity=".51" stop-color="#d2401c" offset="0"/><stop stop-opacity="0" stop-color="#e97757" offset="1"/></radialGradient></defs><path fill="none" d="M-1-1h176v247H-1z"/><g stroke="null"><use x="79.565" y="188.592" xlink:href="#s" width="381" transform="translate(-330.375 -504.442) scale(1.71579)" height="381"/><use x="-9.175" xlink:href="#t" width="387.15" transform="translate(5.344 .957) scale(.43598)" height="551.85"/><use x="-1.29" xlink:href="#u" width="102.95" transform="matrix(3.10077 0 0 2.83757 -24.284 105.85)" height="45"/></g></svg>