<svg width="205" height="195" xmlns="http://www.w3.org/2000/svg" xmlns:xlink="http://www.w3.org/1999/xlink"><defs><linearGradient y2=".497" y1=".497" x2="1.014" x1="-.016" spreadMethod="pad" id="f"><stop stop-color="#d5d1d6" offset=".114"/><stop stop-color="#919aa2" offset=".471"/><stop stop-color="#485271" offset="1"/></linearGradient><linearGradient y2="-143.558" y1="-402.409" x2="1.222" x1="-150.822" spreadMethod="pad" id="g"><stop stop-color="#d5d1d6" offset=".114"/><stop stop-color="#919aa2" offset=".471"/><stop stop-color="#485271" offset="1"/></linearGradient><linearGradient y2=".499" y1=".499" x2=".984" x1=".021" spreadMethod="pad" id="h"><stop stop-color="#d0bc93" offset=".18"/><stop stop-color="#5e5342" offset=".773"/></linearGradient><linearGradient y2=".497" y1=".497" x2=".987" x1="-.001" spreadMethod="pad" id="i"><stop stop-color="#d0bc93" offset=".18"/><stop stop-color="#5e5342" offset=".773"/></linearGradient><linearGradient y2=".72" y1=".278" x2=".993" x1=".045" spreadMethod="pad" id="j"><stop stop-color="#919aa2" offset="0"/><stop stop-color="#485271" offset="1"/></linearGradient><linearGradient y2=".499" y1=".499" x2=".997" x1=".003" spreadMethod="pad" id="k"><stop stop-color="#919aa2" offset="0"/><stop stop-color="#485271" offset="1"/></linearGradient><linearGradient y2=".712" y1=".286" x2="1.01" x1=".001" spreadMethod="pad" id="l"><stop stop-color="#919aa2" offset="0"/><stop stop-color="#485271" offset="1"/></linearGradient><linearGradient y2=".499" y1=".499" x2="1" x1="-.003" spreadMethod="pad" id="m"><stop stop-color="#919aa2" offset="0"/><stop stop-color="#485271" offset="1"/></linearGradient><linearGradient y2=".497" y1=".497" x2=".998" x1=".002" spreadMethod="pad" id="n"><stop stop-color="#919aa2" offset="0"/><stop stop-color="#485271" offset="1"/></linearGradient><use xlink:href="#a" width="107.2" transform="matrix(1.0943 0 0 .3248 -.004 -.01)" height="107.2" id="q"/><use xlink:href="#b" width="107.2" height="107.2" id="a"/><use xlink:href="#d" width="112.35" height="76.45" id="r"/><use xlink:href="#o" width="102.95" height="45" id="t"/><g id="p" stroke-opacity="0" stroke-linejoin="round" stroke-linecap="round" stroke="#f0f" fill="none"><path d="M187.95-293.5v380h-380v-380h380M92.95.6H-97" transform="translate(192.55 294)"/><path d="m187.95-293.5-190 190 190 190m-379.95 0 189.95-190-190-190" transform="translate(192.55 294)"/></g><g id="d"><path fill-rule="evenodd" fill="#b5aa96" d="m87.3 10.1 3.5.95.05.15.55 2.2L87 25.9l2.7 1-8.45 21.25v8.95l-1 .15-1.35-8.75 6.9-15.95-3.2-4.6 1.65-3.35 1.7-3.35L88 12.6l-.7-2.5m3.45 55.15L89.7 68.4 87.3 62l6.1-20.45-2.35.55-.55-1.4 3.45-1.55-.55 2.4.9-.1-4.6 20.5 1.05 3.3m-72.1-56.4 7.7-6.8 1.25.7 1.9 1.05L24.95 7l-4 2.85 24.9 6.95.65 1-24.55-4.05-2.35 7.4-6.8.4 4.75-11.8.75-.6h.25l.1-.3m14.1-7.9L32.4 0l6.45.85.9.1h.05l1.65 1.65-3.75-.2-2.25-.1 1.7 5.8-2.55-1.45-1.85-5.7M86.15 33l-.35-.45 1.85-4.3-1.85 4.3.35.45M18.55 9.15l2.4.7-2.4-.7" transform="translate(.5 .5)"/><path fill-rule="evenodd" fill="#948569" d="m91.05 11.1 7.75 4.2v5.9l-4.4 3.7 4.05 4.7 2.05 5.4-2.05 3.35L95.1 51.5l-1.95 12.4-1.45-1.6-.95 2.95-1.05-3.3 4.6-20.5.6-2.7-.95.4-3.45 1.55-1.15-3-5.05 18.9-3.05.5v-8.95L89.7 26.9l-2.7-1 4.4-12.5-.55-2.2.2-.1M68.3 33.5l.8 9.25 4.75 20.6L71.2 70l-3.8-1.35-1.3 6.8L61 73.4l1.75-12.45-2.6-14.4 6.3-3.45-2.05-8.45 3.9-1.15M37.15 8.1l-1.7-5.8 2.25.1 12.6 10.05-1.9.45-.25.1-1.5.4-9.5-5.3m10.45 7.35-.65 2.8-.15.1-.3-.55-.65-1-24.9-6.95 4-2.85 22.65 8.45m-1.75 1.35-1-1.65 1 1.65M67.4 68.65l.7-3.65-.7 3.65" transform="translate(.5 .5)"/><path fill-rule="evenodd" fill="#596169" d="m84.25 24.6-1.55-.7 2.3-3.7 1.65-8.1L85 9.45l2.3.65.7 2.5-2.05 8.65-1.7 3.35m-28.2 18.6-2.8.55-.25.05-1.15-1.4 2.7-.5 5.15-.95v-2.9l-2.35-3-4.05-1.2-.7.3-3.2 1.3-.65 1.1-.7-1.85L46 33.3l-.1-.05.15-1.6 4.55-2.85-6.3.7h-.1l-4.05-7.1-4.35.15.95 2 .3.65.25.55 6.2 12.95 2.25 6.5 1.8 5.3-2.05 3.4-8.75.85-.35-1.55.75-1.3.35-.05 2.25-.2L42 51.4l1.35-3.95-1.7-5.5-2.35-1.7-1.4 1.35-.95.85-1.85-1.2 1.5-4.55-5.05.15-3.2-.85 8.75-.8-2.05-2.35.25-.6 2-.75-1.75.15.55-1.35-1.95-4.6-1.95-3.05-15.5.55-1.15 2.2-2.7-2.2h-2.1l-3.3 5.05-.3 3.75-2.7-.65.1-2.9 1.2-3.55L12.3 18l3.6-7.55 2.35-1.35.05.05-.75.6-4.75 11.8 6.8-.4 27.95-1.6L52.1 27l-1.2-.1 1.2.1.15.25L61.7 37.7v4.4l-5.65 1.1m-32.2 4.9-.6.05-7.35.2 1.35-2.65 4.2.15q.45-.3.95-.65l1-.7.45 3.6M27.6 2.75l5.15-1.8 1.85 5.7-5.1-2.85-1.9-1.05M39.8.9l7.55.55 8 9.7 8.35-2.1 4 4.85-2.3-.8-10.1.7-8.35 4.45.65-2.8.3-1.35.25-1.1.25-.1 1.9-.45 1-.3-9.85-9.55L39.8.95V.9m11.5 11.25 4.05-1-4.05 1M18.1 31l-.2-1.05 3.5-4.05 1.3 1.9.2.3-.65 6.6.6 5.2-1.25-1.55-.3-.95-.3.25-1.6 1.1-1.9-1.05-.1-.05-.55.05-.65-1.85 1.2-1.25 1.15-1.25-.3-1.65 2-.55L18.1 31m2.5 3.55-3.2.05 3.2-.05M12.5 20.5l-1.75 2.7 1.75-2.7m9.95 25.35-.05-.65.05.65m16-10.8-1.35.15 1.35-.15m14.7-3.55L46 33.3l7.15-1.8" transform="translate(.5 .5)"/><path fill-rule="evenodd" fill="#757c82" d="m82.7 23.9-1.45-.7-11.15-1.25.7 2.95-2.35 3.05-.65-.05-.05-.65.05.65-15.5-.9h-.2l-4.55-7.45-.65-1.05.05-.25 8.35-4.45 10.1-.7 2.3.8-4-4.85-8.35 2.1-8-9.7 11.3.85 25.9 7.05.45.1 1.65 2.65L85 20.2l-2.3 3.7M53 43.8l-7.25 1.4-2.25-6.5-6.2-12.95-.25-.55-.3-.65-.95-2 4.35-.15 4.05 7.1h.1l6.3-.7-4.55 2.85-.15 1.6.1.05 2.05 1.4.7 1.85-.2.3-.15.2-1.95-.85-1.05-.5 1.05.5.3 4.75 3 1.85 2.1-.4L53 43.8M36.75 54.75l-9.45.85-3-3.4-.45-4.1-.45-3.6-.55-4.6-.6-5.2.65-6.6-.2-.3-1.3-1.9-3.5 4.05.2 1.05 2.15.15-2 .55.3 1.65-1.15 1.25-1.2 1.25.65 1.85-5.5.35L9.8 42.8l.6 1.3.6 1.4 6.25.2-1.35 2.65-6.1.15-3.7-5.05L7.15 32l.3-3.75 3.3-5.05h2.1l2.7 2.2 1.15-2.2 15.5-.55 1.95 3.05 1.95 4.6-.55 1.35 1.75-.15-2 .75-.25.6 2.05 2.35-8.75.8 3.2.85 5.05-.15-1.5 4.55-2.4-1.55-5 1.9.65 8.8 3.2 2 5.6-.5-.75 1.3.35 1.55m-32.3-23.4-1.75-.4-2.7-5.7 4.4-8.1 1.6-.9 3-1.75 6.9-4.05L12.3 18l-6.55 6.9-1.2 3.55-.1 2.9M28.35 36l-2.35.2 2.35-.2M9.5 16.5l.3 2.35-3.8-2.6 3.8 2.6-.3-2.35m2 .15L9 14.5l2.5 2.15M31.2 33.7l4.1-1.45-4.1 1.45m2.55 5.55-1.05.45 1.05-.45M17.4 34.6l-6.9.1 6.9-.1m.7-3.6-7.1-.5 7.1.5M13 33l5.25-1.3L13 33m56.45-11.15.65.1-1.65-7.15-.75-.9.75.9 1.65 7.15-.65-.1M44.2 29.5l-1.35.15 1.35-.15m.15 4.2 1.65-.4-1.65.4m.55-1.35 1.15-.7-1.15.7m-9.35-.7-9.7.7 9.7-.7" transform="translate(.5 .5)"/><path fill-rule="evenodd" fill="#786956" d="m98.8 15.3 12.55 6.75v.05l-5.5 13.95-5.4 4-3.35 9.8-2 16.2-1.95-2.15 1.95-12.4 3.35-13.15L100.5 35l-2.05-5.4-4.05-4.7 4.4-3.7v-5.9m-31 12.6v.1l.5 5.5-3.9 1.15 2.05 8.45-6.3 3.45 2.6 14.4L61 73.4l-2.35-.95 1.35-9.8-3.95-19.45 5.65-1.1v-4.4l-9.45-10.45.05-.25 15.5.9" transform="translate(.5 .5)"/><path fill-rule="evenodd" fill="#a89876" d="m34.6 6.65 2.55 1.45 9.5 5.3 1.25.7-.3 1.35L24.95 7l4.55-3.2 5.1 2.85m3.1-4.25 3.75.2 9.85 9.55-1 .3L37.7 2.4M18.3 9.15l.05-.05.2.05h-.25m1.3 12 2.35-7.4L46.5 17.8l.3.55.1.15.65 1.05-27.95 1.6" transform="translate(.5 .5)"/><path fill-rule="evenodd" fill="#b5ae96" d="m16.85 37.7.55-.05.1.05-.95 2.35 1.35 3.05-7.5 1-.6-1.3 1.55-4.75 5.5-.35m18.25 3.55 1.85 1.2.95-.85-1.8 3.5 2.35 1.35 1.3 5.2-2.25.2-.35.05-5.6.5-3.2-2-.65-8.8 5-1.9 2.4 1.55m19.45.65-2.7.5-2.1.4-3-1.85-.3-4.75 1.95.85.15-.2.2-.3.65-1.1 3.2-1.3-1.35 2.2 3.3 5.55" transform="translate(.5 .5)"/><path fill-rule="evenodd" fill="#bfbbad" d="m17.5 37.7 1.9 1.05 1.6-1.1.6.7 1.25 1.55.55 4.6-1 .7q-.5.35-.95.65l-4.2-.15-6.25-.2-.6-1.4 7.5-1-1.35-3.05.95-2.35m20.4 3.9 1.4-1.35 2.35 1.7 1.7 5.5L42 51.4l-2.25.25-1.3-5.2-2.35-1.35 1.8-3.5m14.7-7.45.7-.3 4.05 1.2 2.35 3v2.9l-5.15.95-3.3-5.55 1.35-2.2" transform="translate(.5 .5)"/><path stroke-width=".05" stroke-opacity=".302" stroke-linejoin="round" stroke-linecap="round" stroke="#000" fill="none" d="m87.8 10.6 3.5.95.25.05 7.75 4.2 12.55 6.75v.05l-5.5 13.95-5.4 4-3.35 9.8-2 16.2-1.95-2.15-1.45-1.6-.95 2.95-1.05 3.15-2.4-6.4 6.1-20.45-2.35.55-.55-1.4-1.15-3-5.05 18.9-3.05.5-1 .15L79.4 49l6.9-15.95-3.2-4.6 1.65-3.35-1.55-.7-1.45-.7-11.15-1.25.7 2.95-2.35 3.05-.65-.05v.1l.5 5.5.8 9.25 4.75 20.6-2.65 6.65-3.8-1.35-1.3 6.8-5.1-2.05-2.35-.95 1.35-9.8-3.95-19.45-2.8.55m-.25.05-7.25 1.4 1.8 5.3L46 54.4l-8.75.85-9.45.85-3-3.4-.45-4.1m-.6.05-7.35.2-6.1.15-3.7-5.05L7.65 32.5l-2.7-.65-1.75-.4-2.7-5.7 4.4-8.1 1.6-.9 3-1.75 6.9-4.05 2.35-1.35.4-.25 7.7-6.8 1.25.7 5.15-1.8L32.9.5l6.45.85.95.05 7.55.55 11.3.85 25.9 7.05m.45.1 2.3.65m-1.35 11.15-1.7 3.35m3.4 3.65-1.85 4.3.35.45m7.8 6.15-.55 2.4.9-.1M39.35 1.35l.9.1h.05m-5.2 5.7 2.55 1.45 9.5 5.3 1.25.7M41.95 3.1 40.3 1.45m10.5 11.5 1-.3-9.85-9.55m6.95 10.3 1.9-.45m-3.65.95 1.5-.4m19.55.9-4-4.85-8.35 2.1-4.05 1m-32.75-3-.2-.05-.05.05-.75.6-4.75 11.8 6.8-.4 27.95-1.6 4.55 7.45h.2M19.15 9.35l-.3.25h-.1M47 18.3l-.65-1-24.9-6.95-2.4-.7M30 4.3l-1.9-1.05M30 4.3l5.1 2.85-1.85-5.7m-22 22.25-3.3 5.05-.3 3.75m10.95-1 2.15.15-2 .55-5.25 1.3m4.4 1.6 3.2-.05m2.25 5.35-.6-5.2.65-6.6-.2-.3m-5.85 9.9.55-.05.1.05 1.9 1.05 1.6-1.1.3-.25.3.95 1.25 1.55.55 4.6.45 3.6m11.25-6.85 1.85 1.2.95-.85 1.4-1.35 2.35 1.7 1.7 5.5-1.35 3.95-2.25.25-2.25.2M26.5 36.7l2.35-.2 8.75-.8 1.35-.15m-3.15-2.8-4.1 1.45M9.5 15l2.5 2.15m-5.5-.4 3.8 2.6L10 17m1.25 6.7L13 21m-2.1 23.6.6 1.4 6.25.2 4.2.15q.45-.3.95-.65l1-.7m-6.55-6.8-5.5.35-1.55 4.75.6 1.3m26.75 7.8-5.6.5-3.2-2-.65-8.8 5-1.9 1.05-.45M22.9 45.7l.05.65M11.5 31l7.1.5M11 35.2l6.9-.1m3.6 3.05.6.7M68.2 14.4l.75.9 1.65 7.15-.65-.1M53.1 34.65l.7-.3 4.05 1.2 2.35 3v2.9l-5.15.95-2.7.5-2.1.4-3-1.85-.3-4.75 1.95.85.15-.2m19.2-9.6.05.65-15.5-.9m-.05.25L62.2 38.2v4.4l-5.65 1.1M47.3 18.85l.1.15.65 1.05m-.75-1.2-.3-.55m-1.65-2.65 1 1.65m-8.8 8.4-.3-.65M44.7 30h.1l6.3-.7-4.55 2.85-1.15.7m1.1.95 7.15-1.8m-17.6.15L37.8 32l-2 .75m7.55-2.6L44.7 30m7.9-2.5-1.2-.1m1.2.1.15.25M45.9 36.2l1.05.5m-.45-2.9-1.65.4m4.4 2.85.65-1.1 3.2-1.3M46.25 45.7 44 39.2l-6.2-12.95M33.2 40.2l2.4 1.55m-9.25-8.9 9.7-.7M68.6 65.5l-.7 3.65"/><path stroke-opacity=".8" stroke-linejoin="round" stroke-linecap="round" stroke="#000" fill="none" d="M111.35 22.05 91.05 11.1l-.2.1-.05-.15L58.65 2.3 39.8.9v.05h-.05L32.4 0l.35.95-5.15 1.8-1.25-.7-7.7 6.8-.1.3-.2-.05-.05.05-.05-.05L4.4 17.15 0 25.25l2.7 5.7L7.15 32 6.1 43.45l3.7 5.05 13.45-.35.6-.05.45 4.1 3 3.4 18.2-1.7 2.05-3.4-1.8-5.3 10.3-2L60 62.65l-1.35 9.8 7.45 3 1.3-6.8L71.2 70l2.65-6.65-4.75-20.6L67.8 28v-.1l.65.05 2.35-3.05-.7-2.95 11.15 1.25 3 1.4-1.65 3.35 3.2 4.6-6.9 15.95 1.35 8.75 4.05-.65 5.05-18.9 1.7 4.4 2.35-.55.55-2.4.95-.4-.6 2.7-.9.1L87.3 62l2.4 6.4 2-6.1 3.4 3.75 2-16.2 3.35-9.8 5.4-4 5.5-13.95v-.05z" transform="translate(.5 .5)"/></g><g id="s"><path fill-rule="evenodd" fill="#e0d3ba" d="M29.25-86.55h-.55l-3-1.05-.25 2.35-3.1-1.6-3.7-1.95 1-2.25 4.2 2.95-.05-1.4 4.75 1.35.1.05 6.35.25 1.35-.9.7 1.85-1.95.6-5.85-.25m-7.75 7.6 2.4.8-.05-1.95 2.2-.75 2.45 3.25 1.55.3 1.9.35.85-.7.85-.2-.1 1.95-3.85.2-1.3.05-2.2-1.6-1.9 1.3-2.5-.8-10.55-3.45 1.55-1.65 8.7 2.9m15.5 3.2.95.2.25 2.4.05.15.25 3.05 1.5 1.9-.1.6-.35 1.8 2.2 9.5 1.15 2.1 2.15 4.2 1.6 1.3 4.45 3.5.95 4.55-2.2 2.85-.1-.15.1.15-.1.15v-.3l-.05-.25-.1-5.8-6.45-5.05-2.2-5.45L39-63.9l-.2-3.15-1.1-1-.7-7.7M35.7-54l1 1.05.05.05-.65 1.7-4.55-2.25-9.1-2.6-1.35.1-1.75.15-.1-1.8-5.95 2.85-2.05-3.1-19.15-9.4 3.1-.8 16.2 7.9 2.8 3.35q3.3-1.5 6.6-3.1l.05 2.45 2.05-.85 9.9 3 .15.05 2.65 1.7.1-.45m2.85-15.05-.05-.9.05.9M12.25-99.6h.05l2.05-.15-6.75 11.4-.7 4.65-4.75 1.3-8.55 8.25-12.25 4.3.15-1.55 2.4-.95 3.1-1.2 5.5-2.15 9.25-8.05 3.2-.75-.3-2.6 6.6-12.4 1-.1" transform="translate(55.35 203.25)"/><path fill-rule="evenodd" fill="#6f7882" d="m26.25-100.75.35-.05 6.85 4 2.9 8.05-1.35.9-6.35-.25-.1-.05-1.1-2.55 1.6-2.85-2.8-7.2M41.5-69.7l1.8 1 3.4 6.7-.05 3.25-.55.75-3.2 3.95-1.15-2.1-2.2-9.5.35-1.8 1.3-1 .3-1.25m8.35 32.05 1.05 1.35-2.65 2.65-1.4 2.85-3.6-.35-.8-.15-6.35-6.75-4.3 2.15h-.15l-2.35.2-.05.55-.35 1.8 3.2.75 1.2 3.2-1.8-1.25L29-29q-1.25 2.3-1 3.7l.1.5.25 1.15 5.95.8.35.7-.5.5.2.85q-5.1.6-10.75-.95l-1.65-3.2 1.9-8.45L26.5-36l.2-.15-.1-.05.8-2.3-.85-1.35 1.15-2.05h2.85l-1.1 2.4 1.4 2.1 5.55-2.85 6.3 7.65 3.1 1.45.55-1.25.05-.2.55-1.4 2.8-3.5.1-.15M58.3-26.2l-3.05 1.65h-1q-1.55-.05-2.75-.9l1-1.1-1.7-1.85-.4-.5-.65-2.55 1.8-1.55 1.15 2.6-.05.25-1.6-.25 1.5 3.2 1.85 1.25.25.25.15.1.1.4 3-1.4.4.4m-10.15 3q-2.75.95-6.3.45l-1.8-1.7-1-4.1-.95-3 2.65.75 1.15 1.6 1.95.65v.1h-.1l-3.1-.55.15 2.6 1.65 1.35.25.15.5.65 5.15-.5-.65.8.45.75m-14.9-44.9 1.9 1.35 1.3 8.95-.75 3.8-.1.45-2.65-1.7-.15-.05-.7-8.35-1.25-1.4-.15-1.5-.55-1.55 1.3.05 1.65 1.35.55-.55-.4-.85m-.65 1.9.5-.5-.5.5m-4.95 26.85-.25.85.25-.85m.15 1.4-.4-.55.4.55m3.85 2.05-4.95-.25 4.95.25m-4.8.95 2.4-.2-2.4.2" transform="translate(55.35 203.25)"/><path fill-rule="evenodd" fill="#95836b" d="m30.05-77.3-.25-7.75-.55-1.5 5.85.25 1.95-.6 1.8 5-1.3 3.1-2.35.55-.6.15.3 1-.25 2.95L33-72.2l.9 2.85 2.55.9 1.3 10.85-.85 2.1 1.9-.65-.45 1.3-.05.2-.35.35 1 .6v.05l-1.85 1.5-.6 2.8.5-.3.2-.1 1.35.35-4.25 2.55-2.3 7 5-2.25 6.2 8.2 3.15 1.5-.55 1.25-3.1-1.45-6.3-7.65-5.55 2.85-1.4-2.1 1.1-2.4H26.9l-1.45-.65 5.8-7.3-1.55-.75 1.85-2.85 4.55 2.25.65-1.7.1-.15-.15.1-1-1.05.75-3.8-1.3-8.95-1.9-1.35-1.95-3.55 2.2-2.75.05-1.5-.05 1.5-2.2 2.75 1.95 3.55.4.85-.55.55-1.65-1.35-1.3-.05-1.95-5.3 1.5-2.3 3.85-.2.1-1.95-.05-.45-.8.65-.85.7-1.9-.35m1.95-.2.8-.15-.8.15m6.25 4.5 3.35 3-.1.3-.3 1.25-1.3 1 .1-.6-1.5-1.9-.25-3.05m7.85 15 .15 1.95 2.6 1.7-.75 4-1.45 1.8-1.6-1.3-2.15-4.2L46.1-58M34.6-78.1l-.95.25.95-.25m3.35 23.8-1.1 1.25 1.1-1.25m-10 11.85-.25.55.25-.55m8.15-8.75L35-48.5l-1.95 1.15-2.5 5.45 2.5-5.45L35-48.5l1.1-2.7m.4 1.85-1.5.85 1.5-.85m-5.45 7.45h-.5.5" transform="translate(55.35 203.25)"/><path fill-rule="evenodd" fill="#b8a582" d="m29.25-86.55.55 1.5.25 7.75-1.55-.3-2.45-3.25-2.2.75.05 1.95-2.4-.8-.85-5.3 1.7-2.6 3.1 1.6.25-2.35 3 1.05h.55m5.95 8.3 1 1-.3 1.3.15.05-.5 4.05.1 1.85 1.65 1.55 2.3 12.15-.65 2.6-1-.6.35-.35.05-.2.45-1.3-1.9.65.85-2.1-1.3-10.85-2.55-.9-.9-2.85 1.65-1.95.25-2.95-.3-1 .6-.15m-13.4 1.5 2.5.8 1.9-1.3 2.2 1.6 1.3-.05-1.5 2.3 1.95 5.3-7.4-.5-.95-8.15M35.35-74l.55-1.95-.55 1.95m3.6 20.35-.55 2.3 2.1 1.8-2.4 3.35 4.65 5.95 3.65 7.65-.05.2-3.15-1.5-6.2-8.2-5 2.25 2.3-7 4.25-2.55-1.35-.35-.2.1-.5.3.6-2.8 1.85-1.5m-7.4.2L29.7-50.6l1.55.75-5.8 7.3-6.1-2.65 2.15-3.3-1.35-4.95.95-2.5 1.35-.1 9.1 2.6" transform="translate(55.35 203.25)"/><path fill-rule="evenodd" fill="#6f624e" d="M38.95-53.65v-.05.05" transform="translate(55.35 203.25)"/><path fill-rule="evenodd" fill="#d0bc93" d="m22.35-86.85-1.7 2.6.85 5.3-8.7-2.9-1.55 1.65 10.55 3.45.95 8.15-1.3-.1-3.4 1.7-1.65-2.45-3.25-2.6-14.1 1.2-3.1 2.65-.75.15-3.1.8-12.6 3.15 12.6-3.15 19.15 9.4 2.05 3.1 5.95-2.85.1 1.8 1.75-.15-.95 2.5 1.35 4.95-2.15 3.3-5.4-2.4-2.55.9-3.3-3.1L3-48.25l-12.15-6.3-11.9-1.25.55-8.3.1-1.8-.1-.05 1.75-3.05.1-.85 12.25-4.3 8.55-8.25 4.75-1.3.7-4.65 6.75-11.4 4.55-.35.75-.05 2-.15-.25 5.15-1.75 4.1-1 2.25 3.7 1.95m13.7 10.95.95.15.7 7.7 1.1 1 .2 3.15 1.95 9.55 2.2 5.45 6.45 5.05.1 5.8.05.25v.3l-2.8 3.5-.55 1.4-.05.2.05-.2-3.65-7.65-4.65-5.95 2.4-3.35-2.1-1.8.55-2.3v-.05l.65-2.6-2.3-12.15L35.65-70l-.1-1.85.5-4.05M-6.1-68.7l1.3.65-1.3-.65m5.15-2.15 5.85-5.1-.25 2.8 6.6-7.05-6.6 7.05.25-2.8-5.85 5.1" transform="translate(55.35 203.25)"/><path fill-rule="evenodd" fill="#919aa2" d="m26.25-100.75 2.8 7.2-1.6 2.85 1.1 2.55-4.75-1.35.05 1.4-4.2-2.95 1.75-4.1.25-5.15v-.05l4.6-.4M50.9-36.3l1.2 1.5.05.05 2.95 1.1 4.3 3.5q.8 1.8-.45 3.6l-.65.35-.4-.4-3 1.4-.1-.4h.05l3.1-1.6.2-.8.45-1.4v-.1l-3-2.65-.2-.15h-.05l-.4.45-1 .9-1.1-1-.15 1.55-1.15-2.6-1.8 1.55.65 2.55.4.5 1.7 1.85-1 1.1-1 1.1q-1.15.75-2.35 1.15l-.45-.75.65-.8-5.15.5-.5-.65.4.35 6.45-.75.5-.1L51-27l-3.05-3.3v-.05l-.4-.3-1 1.3-3-.35.15.6.15.55-1.95-.65-1.15-1.6-2.65-.75.95 3 1 4.1.3 1.4-2.1 1.45-3.9.8-.2-.85.5-.5-.35-.7-5.95-.8-.25-1.15.25.35 3.1.75q3 .45 6 0l1.45-1.25-2.35-5.7-.9-.35-.55-.25-1.75 1.9-.05-.05-1.2-3.2-3.2-.75.35-1.8.05-.55 2.35-.2h.15l4.3-2.15 6.35 6.75.8.15 3.6.35 1.4-2.85 2.65-2.65M22.75-68.6l7.4.5.55 1.55.15 1.5 1.25 1.4.7 8.35-9.9-3-2.05.85-.05-2.45q-3.3 1.6-6.6 3.1l-2.8-3.35-16.2-7.9.75-.15 3.1-2.65 14.1-1.2 3.25 2.6L18.05-67l3.4-1.7 1.3.1M52.6-34l-.45-.75.45.75m-20.8-1.9 3.15.2-5.7.55 5.7-.55-3.15-.2m3.8 4.1-.5.55.5-.55m-1.45-2.65h-3.5 3.5m9.1 3.3.3 1.45-.3-1.45m-45.1-69.55 13.15 1.05-.05.15-6.6 12.4.3 2.6-3.2.75-9.25 8.05-5.5 2.15 1.2-4.25 2 1.05 1.65-.85.25-.2.25-2.45q-1.45-.3-1.5-1.25l-2.4-1.45.25-2.6 9.1-15.2.35.05" transform="translate(55.35 203.25)"/><path fill-rule="evenodd" fill="#d5d1d6" d="m-5.5-101 2.95.25h.35l-9.1 15.2-.25 2.6 2.4 1.45q.05.95 1.5 1.25l-.25 2.45-.25.2-1.65.85-2-1.05-1.2 4.25-3.1 1.2 3.7-8.4-1.55-1.15.15-4.45L-5.5-101m-2.65 23.4-4.25-3.15 4.25 3.15" transform="translate(55.35 203.25)"/><path fill-rule="evenodd" fill="#ede8d6" d="m58.15-28-2.6 1.55-.2-.85-1.7-.4-.75-1.15.5-.5.35-.85 1.85-1.95 3 2.65v.1l-.45 1.4m-26.7 4.3-.7-.75 3.2-.6-3.6-1.2 2.7-1.3L29.9-28l1.85-1.9 1.75 1.1 2.15-2.2.9.35 2.35 5.7-1.45 1.25q-3 .45-6 0m12.4-4.85-.15-.55 3 .25 1.25-1.45L51-27l-.95 1.6-.5.1-.85-.55-4.95.45.2-.55-1.85-.65-.6-1.7 2.4.45-.15-.6h.1v-.1" transform="translate(55.35 203.25)"/><path fill-rule="evenodd" fill="#e0d8ba" d="m54.95-31.85.4-.45h.05l.2.15-1.85 1.95-.35.85-.5.5.75 1.15 1.7.4.2.85 2.6-1.55-.2.8-3.1 1.6h-.05l-.15-.1-.25-.25-1.85-1.25-1.5-3.2 1.6.25.05-.25.15-1.55 1.1 1 1-.9M33.3-29.4l.05.05 1.75-1.9.55.25-2.15 2.2-1.75-1.1L29.9-28l3.15.45-2.7 1.3 3.6 1.2-3.2.6.7.75-3.1-.75-.25-.35-.1-.5q-.25-1.4 1-3.7l2.5-1.65 1.8 1.25m10.4.3-.15-.6 3 .35 1-1.3.4.3v.05l-1.25 1.45-3-.25m.05.65.15.6-2.4-.45.6 1.7 1.85.65-.2.55 4.95-.45.85.55-6.45.75-.4-.35-.25-.15-1.65-1.35-.15-2.6 3.1.55" transform="translate(55.35 203.25)"/><path stroke-width=".05" stroke-opacity=".302" stroke-linejoin="round" stroke-linecap="round" stroke="#000" fill="none" d="m88.8 106.45-.4-.9M76.85 124.3l2.4.8-.05-1.95 2.2-.75 2.45 3.25 1.55.3 1.9.35.85-.7-.8.15M84 115.15l6.35.25 1.35-.9-2.9-8.05m-9.65 7.3.05 1.4-4.2-2.95-1 2.25m17.7.05.7 1.85 1.8 5-1.3 3.1-2.35.55 1 1-.3 1.3.15.05.95.15.95.2.25 2.4m8.45 24.6 4.45 3.5.95 4.55-2.2 2.85-.1.15-2.8 3.5-.55 1.4-.05.2-.55 1.25-3.1-1.45-6.3-7.65-5.55 2.85-1.4-2.1 1.1-2.4 2.5-5.45 1.95-1.15 1.1-2.7.65-1.7-.05-.05m18.4 19.3 4.3 3.5q.8 1.8-.45 3.6l-.65.35-3.05 1.65h-1M90.55 125l-.6.15m3.75 23.25-.05.2m-5.5-23 .8-.65.05.45.95-.25m-.95.25-.85.2m.85-.2-.1 1.95-.05 1.5-2.2 2.75 1.95 3.55 1.9 1.35 1.3 8.95-.75 3.8 1 1.05m.15-.1 1.1-1.25m-15.2-14.3 7.4.5m2.65 12.8.15.05 2.65 1.7.1-.45m-2.6-12.7-1.65-1.35-1.3-.05m3.1 0 .4.85-.55.55-.5.5m5.9-3.75.05.9m-.3-3.95.25 3.05 1.5 1.9-.1.6-.35 1.8 2.2 9.5 1.15 2.1 2.15 4.2 1.6 1.3m-10.75-27.4-.55 1.95m20.25 41.85-.2-.15h-.05l-.4.45m-.55 5.9.25.25m.15.1h.05l3.1-1.6.2-.8m-2.55-4.15 3 2.65v.1l-.45 1.4m-21.4-24.9.1-.15m-1.85 4.55 1.5-.85.5-.3m-41.8-18.4 16.2 7.9 2.8 3.35q3.3-1.5 6.6-3.1l.05 2.45 2.05-.85 9.9 3m-37.65-46.8-.65 1.1-8.3 14.65-.15 4.45 1.55 1.15 4.25 3.15m.5-2.65q-1.45-.3-1.5-1.25m-3.85 7.95 5.5-2.15 9.25-8.05 3.2-.75-.3-2.6 6.6-12.4 1-.1m-30.75 28.2-1.7.6m1.55.95.15-1.55 2.4-.95 3.7-8.4m-8.1 14.8 1.75-3.05.1-.85m-1.85 5.75 12.6-3.15 3.1-.8-1.3-.65m-10-3.65 3.1-1.2M77 102.95l-.25 5.15-1.75 4.1m0-9.1h-.35m.35 0 2-.15m-10.4 20.1L60 130.1l.25-2.8-5.85 5.1 14.1-1.2 3.25 2.6 1.65 2.45 3.4-1.7 1.3.1m-23.7-2.25-3.1 2.65-.75.15m26.3-10.9-8.7-2.9-1.55 1.65m-31.75 16.1-1.3.3 1.3-2.15"/><path stroke-width=".05" stroke-opacity=".302" stroke-linejoin="round" stroke-linecap="round" stroke="#000" fill="none" d="m81.6 102.5.35-.05 6.85 4 1 .65m3.75 23 .05.15 3.35 3-.1.3 1.8 1 3.4 6.7-.05 3.25-.55.75.15 1.95 2.6 1.7-.75 4-1.45 1.8m3.2 10.9 1.05 1.35 1.2 1.5.05.05 2.95 1.1m-.85 9.1q-1.55-.05-2.75-.9l-1 1.1q-1.15.75-2.35 1.15-2.75.95-6.3.45l-1.8-1.7.3 1.4-2.1 1.45-3.9.8q-5.1.6-10.75-.95l-1.65-3.2 1.9-8.45 2.65-2.6.05-.15-.85-.1m14.2-31.2 1.3-1 .3-1.25m8.2 31.65.05.25.1.15m-19.3-4.25h-2.85l-1.15 2.05.85 1.35.25-.85m15.25-14.7 3.2-3.95m8.85 26.15-1 .9-1.1-1-.15 1.55-.05.25-1.6-.25 1.5 3.2 1.85 1.25m-2.25-8.8.45.75M80.8 160.7l1.45.65h.8l.25-.55m-8.6-2.75 6.1 2.65m5.1.65h.5m-3.65 3.4.4.55m-1.1 1.8-.2.15m.1-.2-.05.05h.15l4.95.25h.15m-2.55.75 5.7-.55-3.15-.2m1.5 6.5.05.05 1.75-1.9.5-.55m.05.8-.55-.25m-1.8 1.85-1.8-1.25-2.5 1.65q-1.25 2.3-1 3.7m.1.5.25.35 3.1.75q3 .45 6 0l1.45-1.25-2.35-5.7-.9-.35m-5-3.45h3.5m-4.9-.7-2.4.2m.55-3.55-.8 2.3m17.25 7.65-.15-.55-.15-.6-.3-1.45m.5 2.7-3.1-.55.15 2.6 1.65 1.35m.25.15.4.35 6.45-.75m.5-.1.95-1.6-3.05-3.3m-4.1 1.75v.1h-.1m4.2-1.9-.4-.3-1 1.3-3-.35m7.95 4.25 1-1.1-1.7-1.85M95.4 178.8l-1-4.1m-44.55-72.45 2.95.25.7.05 13.15 1.05.95.05h.05l2.05-.15 4.55-.35.4-.05 2.35-.2 4.6-.4m-32.75-.35 1 .1m-14.9 35.1-.1 1.8-.55 8.3 11.9 1.25 12.15 6.3 5.1-1.55 3.3 3.1 2.55-.9 5.4 2.4"/><path fill-rule="evenodd" fill-opacity=".302" d="m11-99.4 10.4-.8v-.05l5-.45 6.75 4 3.95 10.8-8.9 3.6-3.35 1.9-1.3.4.05.2-2.25 1-8.8-2.95-5.85 6.3-2.05.05.05-.5-.55.5-8.65-.75-2.15-.4-2.45-.6.75-.4-5.85-4.3.15-4.4 8.35-14.65 16.75 1.35-.05.15" transform="translate(55.35 203.25)"/><path stroke-opacity=".702" stroke-linejoin="round" stroke-linecap="round" stroke="#000" fill="none" d="M46.2-55.55 46-57.5l.65-.75v-3.25l-3.4-6.7-1.75-.95.05-.35-3.4-2.95-.25-2.6-2.05-.4.3-1.3-1-1 2.35-.5 1.35-3.15-5.5-14.85-6.8-4.05-4.95.45v.05l-10.4.8.05-.15-16.75-1.35-8.35 14.65-.15 4.45 1.55 1.15-3.7 8.4-2.45.95-.2 2.4-1.8 3.05.15.1-.65 10.1 11.9 1.2 12.15 6.3L8-49.3l3.35 3.1 2.55-.9 12.9 5.7h.85l-1.15 2.05.85 1.35-.8 2.3.1.05-2.8 2.75-1.95 8.45 1.65 3.25q5.65 1.5 10.7.9l3.95-.8 2.15-1.45-.35-1.4 1.75 1.7q3.55.5 6.35-.45 1.2-.4 2.35-1.15l1-1.1q1.2.85 2.75.95l1.05-.05L58.9-26q1.3-1.85.5-3.65l-4.35-3.5-2.95-1.1h-.05l-2.25-2.9L52.05-40l-1-4.5-4.45-3.55 1.45-1.75.75-4.05-2.6-1.7z" transform="translate(55.35 203.25)"/><path stroke-opacity=".702" stroke-linejoin="round" stroke-linecap="round" stroke="#000" fill="none" d="m35.85-75.5 1.9.35.55 5.6 1.5 1.9-.45 2.4 2.2 9.45 3.25 6.3 6.05 4.85 1 4.55-2.2 2.8-2.9 3.65-.6 1.45M38.3-69.55l.05.85M46.1-32l-.5 1.2-3.15-1.4-6.25-7.65L30.6-37l-1.4-2.1 1.1-2.45m19.2 3.9v.2l.15.15" transform="translate(55.35 203.25)"/><path fill-rule="evenodd" fill="#485271" d="m41.75-202.85.25-.1.95 1.2-.75.9-.1 5-1.5.8.3-4.4-1.15.15 2-3.55m1.45 6.4 2.35-1.95-.1.9 3.1-1.8 2.45 1.15.15 1.3q5.55 3.05 9.5 9.55 3.2-.2 4.9 4.05 1.8 17.25-9.6 26.65l-4.4-.8-1.1-3.4.4-1.1.8 2.35 2-.95-.05 2.1 4.05-6.25.45 2.1 3.75-8.3.75-9.05-3.4-3.2-.2-.2v-.25l-.05-.5v-.1h-.05l-1.75-.3-.45-2.05-8.8-8.8-2.6.55-.4-1.6-1.9 2.1.2-1.9v-.3m-7.85 37.75-2.55 4.8 1.55.3q6.55 3.05 7.5 8.6l.05.35-1.05 1.05-.1.1-2.1-1-.75.05-1.55-.3-.9.2-.5-3.1-2.55-4.65-.85 1.05-2.2-2.9.3-.5 4.15-6.65.1-.05.9.05.65 2.4-.1.2m-23.65 7.75 1.1-.5-1.15-1.3 2.7-.15.05 2.5 1.7 2.15 1.75-.35 1.75-1.45 1.6 1.45.25.95-2.05 1.4-2.05 2.7-3.95-.2-.1-2.25-1.4-1.15 1.5-1-1.7-2.8m21.1-2.95-3.15-.75 3.15.75" transform="translate(55.35 203.25)"/><path fill-rule="evenodd" fill="#272d3d" d="m-24.65-190.35-1.9-1 2.2.55q10.95 3.15 16.75 14.15l.05.2q.35.9 1.05 1.6l3.45 3.4-1.5.1-2.15 2.1q-1.95-5.7-5.6-8.8-5.8-.6-9.15 11.35l-.3.45q-.65.8-1.1-.6l-.1-.45v-.15q-.15-6.85 5.95-15.45-2.45-4.55-7.65-7.45m62 10.4q4.7-8.55 11.75-10.6l.2-.05 1.15.7q-4.3.95-5.2 2.5 4.1 2.4 4.85 7.75.8 4.35-2.05 7.9-.05-4.1-1.5-8.95-.85-2.2-3.25-3.35l-2 3-.8 2.15-.6-.75-2.55-.3m4.9-4.35 1.05.25-1.05-.25m1.05.25 1.15-.4-1.15.4m-3.5 7.9-.4 3.2-3-2.25q1.85-.1 3.4-.95m-56.5-6.2-.3-.55.3-.85-.3.85.3.55m38.15 34.7.9-.6.55-.2q4.9-1.65 7.45 1.95l1.65 2.45.15.2.05.05.7 1.15q2.1 3.45 3.8 7.25l.85 2.1-.15 1.6q-.35 1.8-1.6 2.8-12.6 5.1-23.65-.4l-.25-.1q-2.2-1.35-1.3-4.75l.3-.95 6.45-8.45 2.05-2.7 2.05-1.4m11.8 3.5.7-.05.2.3 1.15.25.4-.1.65 2-.95.15q-1.05 0-1.7-.6l-.45-.7-.1-.75.1-.5M6.4-144l1.85-.05 1.3-.45.45.6h.4q.2.95-1.1 1.9-1.8 1.55-4.9 1.8-3.05 0-4.35-3.2l1.05-.4 2.05-.05q.05.4.4.7.45.4 1.1.4.65 0 1.15-.4l.6-.85" transform="translate(55.35 203.25)"/><path fill-rule="evenodd" fill="#d5d1d6" d="M-40.5-157.8q-3.55-3.45-6.8-8.5l-.1-11.75 1.35-2.9.2-.05q14.9-6.2 21.95-20.2l2.15-.25 4.8 6.55 3.85-2.45 1.75.65.95-4.55q6.6 12.85 12.7 17.2l-.7 1.2.7-1.2 3-4q3.15-2.25 4.75-.75l-4.7 4.4 1.7.1-4.3 6.75 1.4 1-1.75 1.45 1.85 2.6-1.1.75.4 2.6-.15.05-5.7-2.35h-.75l-3.45-3.4q-.7-.7-1.05-1.6l-.05-.2q-.4-1.15-.2-2.55 1.65-1.6 4-1.35 2.2 1.6 2.65 3.15.85-2.5 2.75-5.45l-7.35-3.3-.75-4.75-1.7.25-1.7-5.3-4.45 5.15-6.35-5.55-.2 1.8-1.45.65-2 3.1-2.2-.55 1.9 1-4.5 6.95-3.4.15-8 5.55-.55 8.9-1.3 1.2 1.5 1.65.4 8.15m50.25-24.5q4.3-5.15 11.4-10.65 1.9-1.25 3.7-1.4l-.55 1.75q4.8-3.4 7.45-1.95l-.35.7-9.3 5.05 1.4 1.55-5.2 1.55-7.2 6.35-2.6-.25.75-1.9.5-.8m27.6 2.35 2.55.3.6.75q.7 1.1.1 2.25l-.8.5q-1.55.85-3.4.95l3 2.25q3.7 3.3 3.1 6.05l-3.35-3.4-.2 1.95-3.9-5.45-2.35.25-.3-2.2h-3.8l-3.45 1.3-.4-.6-1-1.6-.05-.25.2-.45 2.05 1.1q4.25-3.95 11.1-3.7h.3M2.7-183.5l-.4-.55.4.55m-3.85 6.1-.35 1.3.35-1.3m24.85-14.65.6-.55-.6.55m2.25 15.8-1.2 1.2 1.2-1.2m9.5 1 .75.05h.2-.2l-.75-.05" transform="translate(55.35 203.25)"/><path fill-rule="evenodd" fill="#fff" d="M1.35-136.8q-3.75-2.8-7.7-4.2l6.4-2.4q1.3 3.2 4.35 3.2 3.1-.25 4.9-1.8 1.3-.95 1.1-1.9l3 .15.05.5-3.25 6.35-1.75.6-.1-.1-.9-.9q-1.4-.7-2 .15l-.25.5q-.35 1.65.2 3l-.2.15-1-.95-.2-.15-.6-.55-1.9-1.55-.15-.1m35-4.95.8 2.5.3 3.25-.75.6q-1.7-3.8-3.8-7.25l-.7-1.15v-.25l.7-.05.35-.05-.1.5.1.75.45.7q.65.6 1.7.6l.95-.15m-2.4-2.45 1.5-.35.25.8-.4.1-1.15-.25-.2-.3M6.4-144l-.6.85q-.5.4-1.15.4-.65 0-1.1-.4-.35-.3-.4-.7L6.4-144" transform="translate(55.35 203.25)"/><path fill-rule="evenodd" d="m37.9-144.45.1.8q-.1.8-.9 1.45l-.75.45-.65-2 .7-.3-.05-.7 1.55.3" transform="translate(55.35 203.25)"/><path fill-rule="evenodd" fill="#ccc" d="M40.75-143.5h.1l-.65 2.45.95 2.05-3.7 3-.3-3.25-.8-2.5.75-.45q.8-.65.9-1.45l-.1-.8.75-.05 2.1 1m-27.35-.25 3.95.2-6.45 8.45-.3.95-2.15-2.15 1.75-.6 3.25-6.35-.05-.5" transform="translate(55.35 203.25)"/><path fill-rule="evenodd" fill="#e4dec5" d="m-21.8-101.6 1.9-6.6-11.9 1.8 1.7-3.7-4.3 2.25q.35-5.35 7.75-15.05l-3.95-1.15q-2.1.1-2.25-3.3 4.45-5.95 13.6-8.05l2.65-2-2.6-4.2 5.75-.25 10 5.85 4.8-.8.15.1-.15 4.65 2.5-1.55.35-.85 1 .95.45.45-.25-.55v-.05q-.55-1.35-.2-3l.25-.5 1.5 2.05 1.4-1.3.1.1 2.15 2.15q-.9 3.4 1.3 4.75l-1.35.9-1.6-1.85-1.2 2.7-2.3.95.1-3.5-4.55.25-9.25-5.05-5.3-.25 2.45 3.25-2.35 1.25q-8.35.85-12.35 4.8.2 2.5 2.1 2.6l3.65 1.15q-3.75 3.7-5.45 6.6-1.25 2.1-1.35 3.8l3.9-1.3-1.55 2.55 10.9-.4-1.95 5.6q-.2 4.1 2.5 5l6.3-3.3 1.65 1.8-.15 1.65 2-.65-.9 6.9 2.05 1.4-.8 1.55q1.3 3.9 3.95 4.85-1.4 1.3-3.7 1.05l-.9-.1q-4.1-1.4-4.4-9.6L-8-96.15l-1.1-1-1.95 2.35.15-1.95-1.7-2.3-7 5.3q-1.05-.3-1.65-1.25-.1-3.15 1.85-8h-1.15l-.1.1-1.15 1.3M37.45-136l3.7-3q2.15-.65 2.15.65l-.65 2q5.15-4.55 7.5-3.4 3.65.7 3.85 2.75v.65q-.3 2.45-1.85 4.1 10.15-3 15.25-.15l.15.05.15.25q.75 1.05.3 2.15-1.45 1.9-4.7 3.5l7.5 5.3 1.55 6.5-1.8-3.9-3.1-2.7-3.7-.45 1.4-1-5.4-3.75 1.55-2.2-2.45-.25.25-1.4-2 1-6.65 1.85-3.25-2.65.5-1.85-4.55 3.3-3.05-.65-2.15 1.3.75-4.25-1.3.55.15-1.6-.85-2.1.75-.6m5.2-.35-.5.2.5-.2m20.1 10.15.55-.25-.55.25m-.1-.75.65.5-.65-.5" transform="translate(55.35 203.25)"/><path fill-rule="evenodd" fill="#e0d3ba" d="M-3.05-171.45h.75l5.7 2.35h.15l9.1.65 4.35-.85 2.75 1.05 4.55-.25 2.15.15q.8 1 2.15 1.85-2.3.2-5.55 1.9 3.25-1.7 5.55-1.9l.3.2q1.15.65 2.75 1.3l-3.45 2.2.1-1.3-8.55 5.7.15-1.4-3.95 3.5-1.95-1.2 1.05-1.4-4.55.15-16.4 8.15 1.35-3.5-7 2.7 1.5.9-1.95 3.65 1 2.3-1.35 2.2q-4.85-.45-10.05.9h-.1l.1-.35.45-1.85 2.7-1.15-.3-1.2-.75-.9-3.25-3.65-.9-1.9-.25-.55 2.2.15-.95-2.45 1.95-1.6 7.25.35 1.05-.65v-5.95l1.75-1.6 4.35-.1-1.85-2.2 2.25-2.2 2.15-2.1 1.5-.1m26.1 6.85-4.1-.15-.95-.9-2.5 1.3-10.7-.5-2.25.9-.25-1.3-4.25-.4 1.25 3.15-4.75 1 .4 2.3q-4 2.15-8.5 5.95l-2.5 2.35-4.25 4 4.25-4 2.5-2.35q4.5-3.8 8.5-5.95l2.8-1.3 4.1-1.15.3 2.3L0-156.3q8.8-5.2 18.1-7.8l-.65 4.55 3.6-3.9 2-1.15m-39.1 13.7.35 1.3 1.25.4 2.95-1.1-2.6 4.45 1.7.9-.7 1.95.75.65-.75-.65.7-1.95-1.7-.9 2.6-4.45-2.95 1.1-1.25-.4-.35-1.3m14.35-4.4 1.7-1-1.7 1" transform="translate(55.35 203.25)"/><path fill-rule="evenodd" fill="#dbd2b0" d="M-21.8-101.6q-3.1 3.15-7.55 5.45-6.9 4.2-8.75 2.45-2.9-3.05-2.05-8.55l-1.4.8-.5-6.35h-.05q-2.65.1-5.6 3.1l2.35-5.95-1.65.3q2.2-4.85 9.4-9.3-6.85 2.8-4.65-5.05 6.9-9.8 13.5-10.25 2.9-1.65 6.95-.9-2.85-1.2-3.55-3.15l-.1-.25.05-.05 2.55-2.25.35.1h.1q5.2-1.35 10.05-.9l4.55.85 1.3.4.15.1q3.95 1.4 7.7 4.2l-4.8.8-10-5.85-5.75.25 2.6 4.2-2.65 2q-9.15 2.1-13.6 8.05.15 3.4 2.25 3.3l3.95 1.15q-7.4 9.7-7.75 15.05l4.3-2.25-1.7 3.7 11.9-1.8-1.9 6.6m13.2-39.45.8-.45-.8.45M-20.75-136l-1.05.15 1.05-.15m-16.35 16.15-.5.2.5-.2m42.55-17.3q.6-.85 2-.15l.9.9-1.4 1.3-1.5-2.05m-3.95.45 1.9 1.55.6.55.2.15-.35.85-2.5 1.55.15-4.65M-21.25-95q.6.95 1.65 1.25l7-5.3 1.7 2.3-.15 1.95q-2.45 2.55-5.9 4.7-2.7 1.25-3.85-2.4-.45-1.05-.45-2.5" transform="translate(55.35 203.25)"/><path fill-rule="evenodd" fill="url(#e)" d="m37.4-131.7 1.3-.55-.75 4.25 2.15-1.3 3.05.65 4.55-3.3-.5 1.85 3.25 2.65 6.65-1.85 2-1-.25 1.4 2.45.25-1.55 2.2 5.4 3.75-1.4 1 3.7.45 3.1 2.7 1.8 3.9.25.9-3.2 3.5-3.75-1.3.95 6.25-3.7 5.3-3.4-3.9-11.2 4.55Q27.45-86.65 1.75-97.3L3-95.35 1.5-95l1.65 1.65q-.05 5.3-2.1 7.2Q-1.6-87.1-2.9-91l.8-1.55-2.05-1.4.9-6.9-2 .65.15-1.65-1.65-1.8-6.3 3.3q-2.7-.9-2.5-5l1.95-5.6-10.9.4 1.55-2.55-3.9 1.3q.1-1.7 1.35-3.8 1.7-2.9 5.45-6.6l-3.65-1.15q-1.9-.1-2.1-2.6 4-3.95 12.35-4.8l2.35-1.25-2.45-3.25 5.3.25L1-129.95l4.55-.25-.1 3.5 2.3-.95 1.2-2.7 1.6 1.85 1.35-.9.25.1q11.05 5.5 23.65.4 1.25-1 1.6-2.8" transform="translate(55.35 203.25)"/><path fill-rule="evenodd" fill="url(#f)" d="m-24.35-190.8 2-3.1 1.45-.65.2-1.8 6.35 5.55 4.45-5.15 1.7 5.3 1.7-.25.75 4.75 7.35 3.3q-1.9 2.95-2.75 5.45-.45-1.55-2.65-3.15-2.35-.25-4 1.35-.2 1.4.2 2.55-5.8-11-16.75-14.15" transform="translate(55.35 203.25)"/><path fill-rule="evenodd" fill="url(#g)" d="m42.15-166-.25.05.25-.05" transform="translate(55.35 203.25)"/><path fill-rule="evenodd" fill="url(#h)" d="m36.15-159.35-.6.5-.1-.05-.65-2.4-.55-.7-.45.7-3.2 1.95-11 9.3-1.75 1.45-1.75.35-1.7-2.15-.05-2.5-2.7.15 1.15 1.3-1.1.5-9.65 4.05 1.25.4-1.95 1.3-3.55.75-5.6 2.95-4.55-.85 1.35-2.2-1-2.3 1.95-3.65-1.5-.9 7-2.7-1.35 3.5 16.4-8.15 4.55-.15-1.05 1.4 1.95 1.2 3.95-3.5-.15 1.4 8.55-5.7-.1 1.3 3.45-2.2 1.6.5-.25-1.25-.3-1.2q2.15.7 4.1 1l1.4 2.75-1.15.85.25 1.1.15.75-1.3 1.15M15-152.95l-.65.05.65-.05m22.3-8.3-2.5-.05 2.5.05" transform="translate(55.35 203.25)"/><path fill-rule="evenodd" fill="url(#i)" d="m-5.05-159.2-.4-2.3 4.75-1-1.25-3.15 4.25.4.25 1.3 2.25-.9 10.7.5 2.5-1.3.95.9 4.1.15-2 1.15-3.6 3.9.65-4.55q-9.3 2.6-18.1 7.8l2.15-3.05-.3-2.3-4.1 1.15-2.8 1.3" transform="translate(55.35 203.25)"/><path fill-rule="evenodd" fill="url(#j)" d="m10.05-188.8.1.15q.55 2.4-.15 5.55l-.55 1.1-.2.5-.75 1.9 2.6.25 7.2-6.35 5.2-1.55-1.4-1.55 9.3-5.05.65-.4.35.55q1.35 2.7-.1 6l-.2.4-.25.4-.15.3q-1.6 3-3.85 4.4l-.75.75q-2.35 2.45-3.2 4.1l-.2.45-.05.15.1.1 1 1.6.4.6 3.45-1.3h3.8l.3 2.2 2.35-.25 3.9 5.45.2-1.95 3.35 3.4-.05.2-.3.7-.25.05q-2.4.4-5.1 0-1.95-.3-4.1-1l.3 1.2-.4.1-.95.65q-1.6-.65-2.75-1.3l-.3-.2q-1.35-.85-2.15-1.85l.35-.25h-.5l-2 .1-4.55.25L17-169.3l-4.35.85-9.1-.65v-.05l-.4-2.6 1.1-.75-1.85-2.6 1.75-1.45-1.4-1 4.3-6.75-1.7-.1 4.7-4.4m14 14.6.7-.85-.7.85" transform="translate(55.35 203.25)"/><path fill-rule="evenodd" fill="url(#k)" d="M31.75-194.55q2.2-5 10-8.3l-2 3.55 1.15-.15-.3 4.4 1.5-.8v.3l.75-.6h.35l-.2 1.9 1.9-2.1.4 1.6 2.6-.55 8.8 8.8.45 2.05 1.75.3h.05v.1l.05.5v.25l.2.2 3.4 3.2-.75 9.05-3.75 8.3-.45-2.1-4.05 6.25.05-2.1-2 .95-.8-2.35-.4 1.1-.15-.35.05.55v.6q0 4.9-1.6 4.7l1.45 1.3-2.3-.4q-7.05 0-11.75-4.95l1.3-1.15-.15-.75-.25-1.1 1.15-.85-1.4-2.75q2.7.4 5.1 0l.25-.05.3-.7.05-.2q.6-2.75-3.1-6.05l.4-3.2.8-.5q.6-1.15-.1-2.25l.8-2.15 2-3q2.4 1.15 3.25 3.35 1.45 4.85 1.5 8.95 2.85-3.55 2.05-7.9-.75-5.35-4.85-7.75.9-1.55 5.2-2.5l-1.15-.7-.2.05q-7.05 2.05-11.75 10.6h-.3q-6.85-.25-11.1 3.7l-2.05-1.1q.85-1.65 3.2-4.1l.75-.75q2.25-1.4 3.85-4.4l.15-.3.25-.4.2-.4q1.45-3.3.1-6l-.35-.55-.1-.15-.2-.15M50-190.8l-.7.2.7-.2m-2.9 20.05.95-1-.95 1" transform="translate(55.35 203.25)"/><path fill-rule="evenodd" fill="url(#l)" d="m-40.5-157.8-.4-8.15-1.5-1.65 1.3-1.2.55-8.9 8-5.55 3.4-.15 4.5-6.95q5.2 2.9 7.65 7.45-6.1 8.6-5.95 15.45v.15l.1.45q.45 1.4 1.1.6l.3-.45q3.35-11.95 9.15-11.35 3.65 3.1 5.6 8.8l-2.25 2.2 1.85 2.2-4.35.1-1.75 1.6v5.95l-1.05.65-7.25-.35-1.95 1.6.95 2.45-2.2-.15.25.55q-3.35 1.75-7.85.35l-.35.05-.35-.2q-3.9-1.95-7.5-5.55" transform="translate(55.35 203.25)"/><path fill-rule="evenodd" fill="url(#m)" d="m33.8-161.3-4.15 6.65-.3.5 2.2 2.9.85-1.05 2.55 4.65.5 3.1-1.5.35-.7.05.05-.15-.4.2-.7.05H32l-1.65-2.45q-2.55-3.6-7.45-1.95l-.55.2-.9.6-.25-.95-1.6-1.45 11-9.3 3.2-1.95" transform="translate(55.35 203.25)"/><path fill-rule="evenodd" fill="url(#n)" d="m-6.35-141-.15-.1-1.3-.4 5.6-2.95 3.55-.75 1.95-1.3-1.25-.4 9.65-4.05 1.7 2.8-1.5 1 1.4 1.15.1 2.25-3-.15.35-.55-.35.55H10l-.45-.6-1.3.45-1.85.05-3.25.15-2.05.05-1.05.4-6.4 2.4m14.85-4.85 1.05 1.35-1.05-1.35" transform="translate(55.35 203.25)"/><path stroke-width=".05" stroke-opacity=".302" stroke-linejoin="round" stroke-linecap="round" stroke="#000" fill="none" d="M57.65 19.2q-6.1-4.35-12.7-17.2L44 6.55l-1.75-.65-3.85 2.45-4.8-6.55-2.15.25q-7.05 14-21.95 20.2l-.2.05-1.35 2.9.1 11.75q3.25 5.05 6.8 8.5 3.6 3.6 7.5 5.55l.35.2.35-.05q4.5 1.4 7.85-.35l.9 1.9 3.25 3.65.75.9.3 1.2-2.7 1.15-.45 1.85-.1.35h.1q5.2-1.35 10.05-.9l-.75-.65.7-1.95-1.7-.9 2.6-4.45-2.95 1.1-1.25-.4-.35-1.3L41.8 50q4.5-3.8 8.5-5.95l2.8-1.3 4.1-1.15.3 2.3-2.15 3.05q8.8-5.2 18.1-7.8l-.65 4.55 3.6-3.9 2-1.15q3.25-1.7 5.55-1.9-1.35-.85-2.15-1.85l-2.15-.15-4.55.25-2.75-1.05-4.35.85-9.1-.65h-.15M30.7 12.9l-1.9-1 2.2.55Q41.95 15.6 47.75 26.6l.05.2q.35.9 1.05 1.6l3.45 3.4h.75l5.7 2.35m1.9-18.95q3.15-2.25 4.75-.75l.1.15q.55 2.4-.15 5.55l-.25.8q4.3-5.15 11.4-10.65 1.9-1.25 3.7-1.4l-.55 1.75q4.8-3.4 7.45-1.95 2.2-5 10-8.3l.25-.1.95 1.2-.75.9-.1 5v.3l.75-.6.35-.3 2.35-1.95-.1.9 3.1-1.8 2.45 1.15.15 1.3q5.55 3.05 9.5 9.55 3.2-.2 4.9 4.05 1.8 17.25-9.6 26.65l-4.4-.8-1.1-3.4-.15-.35.05.55m0 .6q0 4.9-1.6 4.7l1.45 1.3-2.3-.4q-7.05 0-11.75-4.95l-.6.5-.2.15-2.55 4.8 1.55.3q6.55 3.05 7.5 8.6l.05.35.1.75M17.75 83.6q-7.2 4.45-9.4 9.3l1.65-.3-2.35 5.95q2.95-3 5.6-3.1h.05l.5 6.35 1.4-.8q-.85 5.5 2.05 8.55 1.85 1.75 8.75-2.45 4.45-2.3 7.55-5.45l1.15-1.3.1-.1h1.15q-1.95 4.85-1.85 8 0 1.45.45 2.5 1.15 3.65 3.85 2.4 3.45-2.15 5.9-4.7l1.95-2.35 1.1 1 .05 1.35q.3 8.2 4.4 9.6l.9.1q2.3.25 3.7-1.05 2.05-1.9 2.1-7.2l-1.65-1.65 1.5-.35-1.25-1.95q25.7 10.65 46.55-2.05l11.2-4.55 3.4 3.9 3.7-5.3-.95-6.25 3.75 1.3 3.2-3.5-.25-.9-1.55-6.5-7.5-5.3-.55.25m-61.4-10.6q-3.75-2.8-7.7-4.2l-.15-.1-1.3-.4-.8.45m57.9-49.55.7-.2m-6.7 6.75q2.4 1.15 3.25 3.35 1.45 4.85 1.5 8.95 2.85-3.55 2.05-7.9-.75-5.35-4.85-7.75.9-1.55 5.2-2.5l-1.15-.7-.2.05Q97.4 14.75 92.7 23.3l2.55.3.6.75.8-2.15 2-3-1.05-.25m16.7.15v.1m.05.5v.25l.2.2M99.8 18.8l-1.15.4m-2.8 5.15q.7 1.1.1 2.25l-.8.5-.4 3.2q3.7 3.3 3.1 6.05m-.05.2-.3.7-.25.05q-2.4.4-5.1 0l1.4 2.75-1.15.85.25 1.1.15.75-1.3 1.15M80.1 28.2l-.7.85m24 2.45-.95 1M96.1 59.75l-2.1-1-.75.05.1.8q-.1.8-.9 1.45l-.75.45m1.1 5.75 3.7-3-.95-2.05.65-2.45v-.1l-.1.1m.1-.1 1.05-1.05m.25 8.5.5-.2.65-2q0-1.3-2.15-.65M98 66.9q5.15-4.55 7.5-3.4 3.65.7 3.85 2.75v.65q-.3 2.45-1.85 4.1 10.15-3 15.25-.15l.15.05.15.25q.75 1.05.3 2.15-1.45 1.9-4.7 3.5l-.65-.5M57.65 19.2l.4.55m-3.85 6.1q-.45-1.55-2.65-3.15-2.35-.25-4 1.35-.2 1.4.2 2.55m16.85-4.85.2-.5.55-1.1M86.75 9.4l.35-.7.2.15.1.15.35.55q1.35 2.7-.1 6l-.2.4-.25.4-.15.3q-1.6 3-3.85 4.4l-.75.75q-2.35 2.45-3.2 4.1L81.3 27q4.25-3.95 11.1-3.7h.3m-27.6-2.35-.5.8m.2-.5.3-.3m14.55-10.3-.6.55m0 15.15.2-.45m-.15.7-.1-.1.05-.15m1.05 1.85 1.2-1.2M45.15 1.25l-.2.75m-6.3 17.5-.3.85.3.55m-7.95-8q5.2 2.9 7.65 7.45-6.1 8.6-5.95 15.45v.15l.1.45q.45 1.4 1.1.6l.3-.45q3.35-11.95 9.15-11.35 3.65 3.1 5.6 8.8l2.15-2.1 1.5-.1m-21.4 19-.25-.55 2.2.15-.95-2.45 1.95-1.6 7.25.35 1.05-.65V40.1l1.75-1.6 4.35-.1-1.85-2.2 2.25-2.2M43 60.9l4.55.85 5.6-2.95 3.55-.75 1.95-1.3-1.25-.4 9.65-4.05 1.1-.5L67 50.5l2.7-.15.65-.05m-35.3 6.05 4.25-4m-6.45 9.45-.35-.1-2.55 2.25-.05.05.1.25q.7 1.95 3.55 3.15l1.05-.15m-1.65-5.8-.45.25m1.05 5.7q-4.05-.75-6.95.9-6.6.45-13.5 10.25-2.2 7.85 4.65 5.05l.5-.2m73.5-55.35h-.2L90.8 28m-6.85 8.75.3.2q1.15.65 2.75 1.3m1.35-.75-.3-1.2q2.15.7 4.1 1m-3.8.2.25 1.25-1.6-.5m-7.35-3.5 2-.1h.5l-.35.25-.15-.25m7.5 7.3.1-.05.9.05-.55-.7M85 48.6l3.15.75m2.65-5-.1.2m-.55-2.6 2.5.05m-2.5-.05.65 2.4m-1.65-2.4-3.2 1.95-11 9.3-1.75 1.45-1.75.35-1.7-2.15-.05-2.5m7.1 5.25.9-.6.55-.2q4.9-1.65 7.45 1.95l1.65 2.45h.2l.7-.05.4-.2-.05.15.7-.05 1.5-.35.9-.2 1.55.3m-37.9-11.85-1.7 1m12.1 11.4.35-.55m-.35.55h-.4l-.45-.6-1.3.45-1.85.05-.6.85q-.5.4-1.15.4-.65 0-1.1-.4-.35-.3-.4-.7l-2.05.05-1.05.4q1.3 3.2 4.35 3.2 3.1-.25 4.9-1.8 1.3-.95 1.1-1.9l3 .15 3.95.2 2.05-2.7 2.05-1.4m-13 11.35 2.15 2.15.3-.95 6.45-8.45m-7.8-.95-1.05-1.35m-2.1 1.85-3.25.15m2.25 10.2q-.55-1.35-.2-3l.25-.5q.6-.85 2-.15l.9.9.1.1m-6.95-.4 1.9 1.55.6.55.2.15 1 .95m.2-.15v.05l.25.55-.45-.45m-3.85-3.3.15.1m35.9 5q-.35 1.8-1.6 2.8-12.6 5.1-23.65-.4l-.25-.1q-2.2-1.35-1.3-4.75m21.4-9.9.15.2.05.05.7 1.15q2.1 3.45 3.8 7.25l.75-.6m-1.75-7.75.7-.3-.05-.7m-.65 1-.4.1-1.15-.25-.2-.3m-.7.05-.1.5.1.75.45.7q.65.6 1.7.6l.95-.15m-3.45-2.35.35-.05m3.45 8.75.85 2.1-.15 1.6M55.4 59.85l-6.4 2.4m9.5 47.65-.05-1m36.7-81.8q-1.55.85-3.4.95l3 2.25"/><path stroke-width=".05" stroke-opacity=".302" stroke-linejoin="round" stroke-linecap="round" stroke="#000" fill="none" d="m56.95 20.4.7-1.2 3-4M54.2 25.85q.85-2.5 2.75-5.45m-3.1 6.75.35-1.3"/><path fill-rule="evenodd" fill-opacity=".302" fill="#fff" d="m32.25-135.5.4.9-.1.7q-.15.75-.65 1.2-5.25 2.25-9.9-.15l-.05-.05q-.95-.6-.6-2.1l.15-.4 3.55-4.85 1.25-.9.25-.05q2-.75 3.05.85l.7 1.05.1.1.3.5 1.55 3.2" transform="translate(55.35 203.25)"/><path fill-rule="evenodd" fill-opacity=".302" fill="#fff" d="m34.25-135.4.45 1.35-.05 1q-.2 1.1-.95 1.8-7.2 3.2-13.55-.25l-.15-.1q-1.25-.85-.7-3l.15-.6 4.95-7.05 1.7-1.25.3-.15q2.8-1 4.25 1.25l.95 1.55.1.15.4.75 2.15 4.55" transform="translate(55.35 203.25)"/><path fill-rule="evenodd" fill-opacity=".302" fill="#fff" d="m32.5-134.55.15.5-.05.35-.3.65q-2.35 1.2-4.45-.05v-.05q-.45-.3-.25-1.1l.05-.2L29.3-137l.6-.5h.1q.9-.4 1.35.4l.35.6v.05l.1.25.7 1.65" transform="translate(55.35 203.25)"/><path stroke-opacity=".702" stroke-linejoin="round" stroke-linecap="round" stroke="#000" fill="none" d="m45.45-197.3 3.05-1.8 2.45 1.15.15 1.35q5.55 3.05 9.5 9.55 3.25-.2 4.9 4 1.8 17.25-9.6 26.65l-4.4-.8-1.2-3.7v1.15q0 4.9-1.6 4.65l1.45 1.3-2.3-.35q-7.05 0-11.75-4.95l-.6.5-.05-.1-2.7 5.05 1.55.25q6.8 3.15 7.6 8.95l-1.15 1.15.05.05-.65 2.45 1 2.05q2.1-.65 2.1.65l-.6 2q5.15-4.6 7.5-3.45 3.6.75 3.8 2.75v.7q-.25 2.4-1.85 4.05 10.15-3 15.3-.1h.1l.2.3q.75 1.05.3 2.1-1.5 1.95-4.7 3.5l7.5 5.35 1.75 7.4-3.15 3.5-3.75-1.3.95 6.2-3.75 5.3-3.4-3.9-11.2 4.6Q27.4-86.4 1.7-97.1l1.3 2-1.5.3 1.6 1.65q-.05 5.3-2.05 7.25-1.4 1.3-3.75 1.05l-.85-.15q-4.1-1.35-4.4-9.55l-.05-1.4-1.1-1-1.95 2.35Q-13.5-92-17-89.85q-2.7 1.2-3.85-2.45-.45-1.05-.45-2.5-.05-3.1 1.85-8h-1.15l-.05.15-1.2 1.25q-3.1 3.15-7.5 5.45-6.95 4.25-8.8 2.5-2.85-3.05-2-8.6l-1.4.8-.55-6.3v-.05q-2.7.1-5.65 3.1l2.4-5.95-1.7.35q2.25-4.85 9.45-9.3-6.85 2.8-4.7-5.1 6.95-9.8 13.55-10.25 2.85-1.65 6.95-.85-2.9-1.25-3.6-3.15l-.05-.3v-.05l2.6-2.2.35.1.55-2.25 2.65-1.15-.25-1.2-4-4.55-.9-1.85q-3.4 1.7-7.9.35l-.35.05-.35-.2q-3.85-1.95-7.5-5.55-3.5-3.5-6.75-8.5l-.1-11.8 1.3-2.85.2-.05q14.95-6.2 21.95-20.25l2.2-.25 4.75 6.6 3.85-2.45 1.8.65.95-4.55q6.6 12.8 12.7 17.2l3-4.05q3.15-2.2 4.7-.7l.15.1q.55 2.45-.2 5.6l-.5 1.1-.2.45.5-.75q4.25-5.15 11.4-10.7 1.85-1.25 3.7-1.4-.2 1.15-.6 1.8 4.85-3.4 7.5-1.95 2.2-5.05 9.95-8.3l.3-.15.9 1.2-.7.9-.15 5.35.8-.65h.35v-.3l2.3-1.9-.05.85m-13.7 3 .2.15.1.15-.7.35.4-.65" transform="translate(55.35 203.25)"/><path fill-rule="evenodd" fill="#ffc" d="m100.3-115.6 5.4 6.05-.15.35-1.45-.55h-.1l-.2-.1-3.65-3.8-.2-.5.35-1.45" transform="translate(55.35 203.25)"/><path fill-rule="evenodd" fill="#d2cfd4" d="m64.55-120.9-.9.3-6.4 7.2-.9-1.85 7.75-7.7.4-.1.4 2-.4-2 9.9-2.75.55-.15 1.75.45 1.3.35 6.05 6.9 9.25-2.55.1-.05 2.7.75.3.05 3.9 4.45-.35 1.45-1-.75-4-3.45-.25-.2-1.85-.35-.35-.1-1.05-.2-6.1 2.15-.15.05-.05-.1.05.1-.05-.1-.7-1 .25.55-.65-.7.65.7.5.55q2.5 2.85 1.5 4.15l-.65.2-8.7 2.9-1.1-.55 8.1-3.45.3-1.7-7.55-8-1-.15 1.1-.9-1.1.9-.25-.05.85-1.85-.85 1.85-1.25-.2-.7-.1-9 2.9-.35.15-.3-.5.3.5m41 11.7-.4 1.45-9.4 3.1-5-2.85.55-.25-.55.25-.9-.5-1.2-.65-.75-2.1 8.25 4.75 7.7-2.85.25-.9 1.45.55m-14.1 8.65 1.65.9 2 5.6.5 1.5.15 3.9-2.95 8-3.2.9-12.15-5.8-.15-2.6 1.25-2 2.9-4.7.2-2.1 1.1.5.1 1.5-3.45 6.7 2.35.9-1.2 1.15q3.5 2.05 7.1 4.05l2.4.25 1-1.15.55-.05.6-.85 1.55-2.4.25-2.2.55.05-.05-.85-.15-2.5-.35-1.1-.4-1.25-.1-.25 1.6.4-1.6-.4-2.05-6.1m-62.8-.8-1.6-.4v-3.95l3.1-11.3 2.6-1.8 6.85 5.85 6.6.95-2.05 1.7-2.3-.25-2.65-.35-7.65-4.15-1.15 1.3-2.2 9.45.45 2.95M74.4-125.8l-.5 1.85.5-1.85m.9 1.05-.7.9.7-.9m17.1 5 .1.75-.1-.75m.9-1.05-.45 1.9.45-1.9m1.55 1.2-.15 1.05.15-1.05m1.25-.5-1.15 1.75 1.15-1.75" transform="translate(55.35 203.25)"/><path fill-rule="evenodd" fill="#919aa2" d="m57.25-113.4 6.4-7.2.9-.3.6.95-.25-1.1.25 1.1-.6-.95.35-.15 9-2.9.7.1-1.1 1.4.4-1.5-.4 1.5 1.1-1.4 1.25.2.25.05 1 .15 7.55 8-.3 1.7-8.1 3.45-1.95-1.15-2.85-1.65-1.2-.7-.4-1.05L66-114l-5.3 5.7-1.6-1.2-1.85-3.9m12.2-2.7.4 1.25-.4-1.25m21.3 8.6-4.9 2.15-2.25 3.2 4.2-.35 3.65 1.95 2.05 6.1-6.4-1.6 6.5 1.85-6.5-1.85 6.4 1.6.1.25.4 1.25.35 1.1.15 2.5.05.85-.55-.05.1-.3-3-1-6.9-2.3L82-88l1.35.25L82-86.6l6.5 3.9 1.2-.2 1.35-.15-1 1.15-2.4-.25q-3.6-2-7.1-4.05l1.2-1.15-2.35-.9 3.45-6.7-.1-1.5-1.1-.5-.4-.15-.55-1.85-.3-1.3-.15-.45-.1-.35H77.9L74-102.3l.85-2.4 3.75-3 4.65.3-.55-2.2 6.75-3.25-2.1-1.85-2-2.35 6.1-2.15 1.05.2.1 1.05.25-.95-.25.95-.1-1.05.35.1 1.85.35.25.2 4 3.45 1 .75-.05.25.25.25 3.65 3.8.2.1h.1l-.25.9-7.7 2.85-8.25-4.75.75 2.1 1.2.65-2.85.65-1.2-1.05 1.2 1.05 2.85-.65.9.5m-52.9 8.25-9.2-2.1-.45-2.95 2.2-9.45 1.15-1.3 7.65 4.15 2.65.35-2.75 3.05 2.6.1-1.15 2.35 1.3 3.3-1.7 1.45-2.3 1v.05m36.45-12.2-1.4-1.4 1.4 1.4m1.55-12.2-.2.45.45-.4-.45.4.2-.45m4.05 21.75.25.85-.25-.85m14.8-16.65-.1.8.35-.6-.35.6.1-.8m-.2 29.2-.4.5.4-.5m-1.3-2.45-5.3-1.5 5.3 1.5m-5.5-2 6.3.85-6.3-.85" transform="translate(55.35 203.25)"/><path fill-rule="evenodd" fill="#e0d3ba" d="m57.25-113.4 1.85 3.9 1.6 1.2.85.65 3.15 2.3.85.3 3.6 1.15 4.85 1.6 3.9 1.25h2.25l.1.35-2.3.45-6.1-2.1-6.15-2.1-5.6-1.9-4.35-6.25-1.5 1.05 1.2 2.2-1.25-.25-7.15-1.4-2.4 1.4 1.4.1.2 3.55-.7-.3.7.3 9.4 4.1-.6 1.45 5.65 1.65h18.25l1.45-1.5.3 1.3-1.5 1.25H59.8l-5.35-1.55-1.05-1.45 1.1-.85-8.25-2.85v1.15l3.25 5.45v1l-.7-.15-.3-.35-4.3-6.6 1.35-2.35-1.45-.6v-1.6l-2.3.1 2.35-1.95 2.05-1.7 5.8.7 1.55.5-.65-1.25 3.05-4.05.4.85.9 1.85m9.9 44.7-2.45 4-1.7-.15-4.5-21.05.6-2.35-1.85-3.95 2.8 1 .9 2.35.9 2.4-1.5 1.3 4.15 18.4 2.35-2.55.3.6m-17-6.25-.7 1.45-3.8-6.6 3.95-13.35.05-.05.9-3.2 1.1.1h.15v.15l-1 3.65-3.45 12.3 2.8 5.55m3.4-35.85.65 1.2-.65-1.2M49.1-97.3h-.6.6m10.95 11.1-.95-2.05.95 2.05" transform="translate(55.35 203.25)"/><path fill-rule="evenodd" fill="#6f7882" d="M48.5-97.3h-.85l-1.4-1.45-8.4-.5v-.05l2.3-1 1.7-1.45-1.3-3.3 1.15-2.35-2.6-.1 2.75-3.05 2.3.25-2.35 1.95 2.3-.1v1.6l1.45.6-1.35 2.35 4.3 6.6m-4.45-8.95.05-.6-.05.6M74-102.3l-4.85-1.6 1.2-2.35 1.4-.25-.95-1.45 4.15-1.7 2.6.95 8.2-3.1.3-.85.65-.2q1-1.3-1.5-4.15l.15-.05 2 2.35 2.1 1.85-6.75 3.25.55 2.2-4.65-.3-3.75 3-.85 2.4m-8.45-2.75-.85-.3-3.15-2.3 4.65-4.15 1.9.75 2.4-1.05 2.15 1.3-3.7 1.4-3.4 4.35m18.9-13.05.7 1-.45-.45.45.45.05.1-.5-.55-.25-.55" transform="translate(55.35 203.25)"/><path fill-rule="evenodd" fill="#515968" d="M60.7-108.3 66-114l3.85-.85.4 1.05 1.2.7-2.9.65-1.2-1.05 1.2 1.05 2.9-.65 2.85 1.65 1.95 1.15 1.1.55 8.7-2.9-.3.85-8.2 3.1-2.6-.95-4.15 1.7.95 1.45-1.4.25-1.2 2.35-3.6-1.15 3.4-4.35 3.7-1.4-2.15-1.3-2.4 1.05-1.9-.75-4.65 4.15-.85-.65m11.95-2.5 1.65-.65-1.65.65" transform="translate(55.35 203.25)"/><path fill-rule="evenodd" fill="#d0bc93" d="m57.25-92.2-1.75-.6-.1-.05-3.05-1.1-.55-2.5v-.15h-.15l-1.1-.1-1.05-.1v-1l-3.25-5.45v-1.15l8.25 2.85-1.1.85 1.05 1.45 5.35 1.55h6.25l-.85 2.75 1.95 2.5v2.25h-4.4l-2.7-1-2.8-1m-6.6 16.3-.5.95-2.8-5.55 3.45-12.3 2.15 1.1-1.75 13.05.25.85.05.3-.85 1.6m3.55-33.7 1.25.25-1.2-2.2 1.5-1.05 4.35 6.25 5.6 1.9.65 2.4-2.5 1.3.65 2h-3.8l-5.65-1.65.6-1.45-9.4-4.1-.2-3.55-1.4-.1 2.4-1.4 7.15 1.4.3.65-.3-.65m12.65 40.3-2.35 2.55-4.15-18.4 1.5-1.3-.9-2.4 2.3.7 2.35 7.4.75 6.9 1.95 2.95.1.1-1.25 2.1-.3-.6M56.3-94.75l-1.9-1.5-2.55-.3-.05-.05.05.05 2.55.3 1.9 1.5m-5.75-1.95.25-.9-.25.9" transform="translate(55.35 203.25)"/><path fill-rule="evenodd" fill="#ede8d6" d="m94-88.55-.25 2.2-1.55 2.4-1.15.9-1.35.15.25-1.6-.8-2.55 2.1-.55-.15-2.25 3 1-.1.3" transform="translate(55.35 203.25)"/><path fill-rule="evenodd" fill="#e0d8ba" d="m91.1-89.85.15 2.25-2.1.55.8 2.55-.25 1.6-1.2.2-6.5-3.9 1.35-1.15L82-88l2.2-4.15 6.9 2.3" transform="translate(55.35 203.25)"/><path fill-rule="evenodd" fill="#b8a582" d="M73.6-90.15 68-90.2h-.85v-2.25l-1.95-2.5.85-2.75h6.2l1.6 2.55-.25 5m.6 26.6-5.65-2.3-1.4-2.85 1.25-2.1-.1-.1-1.95-2.95-.75-6.9-2.35-7.4 2.9.85 4.05 15.35L72.7-70l1.5 6.45M55.5-92.8l-1.85 10.4.45 7.05-2.65 1.45-.8-2 .85-1.6-.05-.3-.25-.85 1.75-13.05-2.15-1.1 1-3.65.55 2.5 3.05 1.1.1.05m9-5.95-.65-2 2.5-1.3-.65-2.4 6.15 2.1.45 2-.4 1.6h-7.4m3.35 8.15.15.4-.15-.4" transform="translate(55.35 203.25)"/><path fill-rule="evenodd" fill="#95836b" d="M78.55-90.15H73.6l.25-5-1.6-2.55h6.95l1.5-1.25.55 1.85.4.15-.2 2.1-2.9 4.7M68-90.2l6.45 19.3 4 6.55 1.15.45-2.6 1.5-2.8-1.15L72.7-70l-2.5-1.95-4.05-15.35-2.9-.85-2.3-.7-.9-2.35 2.7 1H68m3.85-12.15 6.1 2.1 2.3-.45.15.45-1.45 1.5H71.9l.4-1.6-.45-2m5.05 37.4 1.55.6-1.55-.6" transform="translate(55.35 203.25)"/><path stroke-width=".05" stroke-opacity=".302" stroke-linejoin="round" stroke-linecap="round" stroke="#000" fill="none" d="m112.6 89.85 1.85 3.9 1.6 1.2m9.15-6.55-.4-1.25m-4.55-4.95.25 1.1-.6-.95-.3-.5m.25-1.65-.4.1-7.75 7.7.9 1.85m7.65-7.65-.4-2 9.9-2.75.55-.15 1.75.45 1.3.35 6.05 6.9 9.25-2.55.1-.05 2.7.75.3.05 3.9 4.45 5.4 6.05-.15.35-.4 1.45-9.4 3.1-5-2.85-4.9 2.15-2.25 3.2 4.2-.35 3.65 1.95 1.65.9 2 5.6.5 1.5.15 3.9-2.95 8-3.2.9-12.15-5.8-.15-2.6 1.25-2h-4.95l-5.6-.05 6.45 19.3 4 6.55 1.15.45-2.6 1.5-2.8-1.15-5.65-2.3-1.4-2.85-2.45 4-1.7-.15-4.5-21.05.6-2.35-1.85-3.95-1.75-.6-1.85 10.4.45 7.05-2.65 1.45-.8-2-.5.95-.7 1.45-3.8-6.6 3.95-13.35m.05-.05.9-3.2-1.05-.1-.7-.15-.3-.35H103l-1.4-1.45-8.4-.5-9.2-2.1-1.6-.4v-3.95l3.1-11.3 2.6-1.8 6.85 5.85 6.6.95 5.8.7 1.55.5-.65-1.25 3.05-4.05.4.85m17.55-8.7.5-1.85m-.5 1.85-.4 1.5 1.1-1.4.7-.9m-21.1 15.15.3.65m-8.3-3.05-2.05 1.7-2.35 1.95 2.3-.1v1.6l1.45.6.7.3 9.4 4.1-.6 1.45 5.65 1.65h3.8m-10.3-10.85-.65-1.2m-8 4.55-1.35 2.35 4.3 6.6h.6m-5-9.55-.05.6m36.2 5.55-.1-.35h-2.25l-3.9-1.25-4.85-1.6-3.6-1.15-.85-.3-3.15-2.3-.85-.65m10.75-4.8-1.2-.7-.4-1.05m1.6 1.75-2.9.65-1.2-1.05m6.95 2.05-2.85-1.65m1.45.25 1.4 1.4m1.8-12.15-.45.4.2-.45m.25.05 1.1-.9m-.5-1-.85 1.85m8.85 6.1-.65-.7m8.45-.75-.1-.75m-7.95 1.65.7 1m-.45-.45.5.55-.05-.1m1.55 4.25-.65.2m-5.9 11.6-.25-.85m9.95-6.1-2.85.65-1.2-1.05m4.05.4-1.2-.65-.75-2.1m16.1 1-.2-.1-3.65-3.8-.25-.25.05-.25m-5-4.2-.35.6.1-.8.15-1.05m-2 .7-.25.95-.1-1.05m.35.1.45-1.9m7 5.2-.35 1.45m-5-4.2 1.15-1.75m-4.8 12.35-.55.25-.9-.5m14.25-1.75 1.45.55m-12.05 14.75 1.6.4m-1.6-.4-6.4-1.6 6.5 1.85m.4 5.65-.25 2.2-1.55 2.4-.6.85-.55.05m-8.3-13.4-1.1-.5-.2 2.1-2.9 4.7m15.45 1.6.1-.3-3-1-6.9-2.3-2.2 4.15 1.35.25-1.35 1.15 6.5 3.9 1.2-.2 1.35-.15m3.05-5.8.4-.5m-14.1-10.9-.15-.45m-8.35 1.95h7.05l1.45-1.5m.85 3.15.4.15m-3.2 32.6-1.55-.6m17.1-28-6.3-.85m.2.5 5.3 1.5m-21.3-6.95h-7.4m2.65 8.55h.85l-.15-.4m-1 21.3.3.6m1.25-2.1-.1-.1m-8.25-20.3-2.8-1m2.8 1 2.7 1h4.4m-16.6-6.5 1.1.1h.15l.05.05 2.55.3 1.9 1.5m-4.5-1.85v.15l.55 2.5 3.05 1.1.1.05m-4.7-4.8-.25.9m.9 18.9.05.3-.85 1.6m8.45-12.35.95 2.05"/><path stroke-opacity=".8" stroke-linejoin="round" stroke-linecap="round" stroke="#000" fill="none" d="m74.3-111.45 1.95 1.15m-1.95-1.15-1.65.65-3.7 1.4-3.4 4.35m19.6-12.05.05.1q2.5 2.85 1.5 4.15m-1.55-4.25-.45-.45-.25-.55m1.6 5.45-8.7 2.9-1.1-.55" transform="translate(55.35 203.25)"/><path stroke-opacity=".8" stroke-linejoin="round" stroke-linecap="round" stroke="#000" fill="none" d="m53.25-112 3.1-4 .4.85 7.75-7.75 10.85-2.95 3.05.8 6.05 6.85 9.3-2.55 3.05.8 9.25 10.45-.55 1.8-9.35 3.15-5.05-2.85-4.85 2.15-2.25 3.2 4.2-.35 5.3 2.8 2.45 7.15.2 3.85-3 8.05-3.2.9-12.1-5.85-.15-2.55 1.25-2.05-10.55-.05 6.45 19.35 4 6.55 1.15.4-2.6 1.55-8.45-3.5-1.45-2.85-2.45 4-1.65-.1-4.5-21.1.6-2.3-1.85-4-1.75-.6-1.9 10.4.45 7.1-2.65 1.45-.75-2-1.25 2.35-3.75-6.6L50.9-96.6l-1.75-.25-.25-.4H48l-1.4-1.45-8.4-.5-10.75-2.45v-4l3.1-11.3 2.6-1.8L40-112.9l12.4 1.7 1.55.5-.7-1.3z" transform="translate(55.35 203.25)"/><path fill-rule="evenodd" fill="#6f7882" d="m-14.5-55.2 4.6 8.8-6.65 1.15-7.2-.2-3.55-.1.7-.7L-23-49l7.35-5.6 1.15-.6M-31-84.85l-2.05 2.15 1.05 4.35 2.05 1.1-8.05 6.1-4.45-.65-.4-.35-3 4.05-.65 3.1h-4.25l3.05-3.2.55-3.7-5.75-2.9.95-1.65 4.65-.15-.1.55 4.55 3.9.4-.55-.25-.45 5.2-3.9 2.1-5.25-3.45-4.55 1.85-.9 6 2.9" transform="translate(55.35 203.25)"/><path fill-rule="evenodd" fill="#919aa2" d="m-24.1-91.95 6.75 3.2 2.25 5.3-2.7 8.15-1 .45-2 .95h-.35l-2.8-.1-6-3.25-2.05-1.1-1.05-4.35 2.05-2.15 6.9-7.1m3.45 17.3-.5.75.5-.75m-26.75-1.4.15-.55 1.5-6.75 6.9-3.5 3.45 4.55-2.1 5.25-5.2 3.9.25.45-.4.55-4.55-3.9m10.4 11.7.65-3.8 6.8-5.2 6.55 2.4-6.15 7.05-1.6-.1-6.2-.35H-37M-52.9-74.8l5.75 2.9-.55 3.7-3.05 3.2h-1.35l-2.8-6.45 2-3.35" transform="translate(55.35 203.25)"/><path fill-rule="evenodd" fill="#e0d3ba" d="m-17.8-75.3 1.65-.75 5.95-1.6v-2.75l3.3 1.65-2.55 10-.25.3.15.1 3 2.1-.4 7.2-7.55 3.85-4.8-9.15-.15-1.95 2.85-6.35-1.4-1.95.2-.7m15 27.65.05.15 3.6 6.8-.65.5.5 4.6-1.35 1.35.35.3 1.55 4.8-4 1.65-.5.2-4.6-.7 4.6.7.05.15-3.5 2.9-2.2-.2L-7.85-28l.65-2.15-1.05-4.3.3-1.15 2.3.1L.2-40.2l-5.85 4.7-2.3-.1 1.3-4.55-3.25-6.25 7.1-1.25m-10.15-16.9 3.25-3.9-3.25 3.9m12.3 30.3-1.4 1.5 1.4-1.5" transform="translate(55.35 203.25)"/><path fill-rule="evenodd" fill="#d5d1d6" d="m-24.1-91.95.7-.7h9.8l3.4 7.15v7.85l-5.95 1.6-1.65.75 2.7-8.15-2.25-5.3-6.75-3.2m17.15 32.9-.05.95 4.2 10.45-7.1 1.25-4.6-8.8 7.55-3.85" transform="translate(55.35 203.25)"/><path fill-rule="evenodd" fill="#d0bc93" d="m-8.9-24.45-9.65-.9h.5l.35-3.6-1.85-3.3-1.85-3.3.25-2.5 1.7.1 2.85 2.2 8.65.15-8.65-.15-2.85-2.2-1.7-.1.4-3.7 4.2-3.5 6.65-1.15 3.25 6.25-1.3 4.55-.3 1.15 1.05 4.3-.65 2.15-5.5-.9-2.05-2.4 2.05 2.4 5.5.9-1.05 3.55m-10.4-39.9 4.8 9.15-1.15.6L-23-49l-4.1-3.75 2.55-6.4-7.25-2.3 1.05-2.55 1.6.1 6.15-7.05 1.85-2.95h.35l2-.95 2.2 2.2-3.4 6.85.7 1.45.35 2.95-.35-2.95m2.5 31.45 1.4 1.6-4.15-.95 4.15.95-1.4-1.6m-9.65-30.85-2.7-.15 2.7.15" transform="translate(55.35 203.25)"/><path fill-rule="evenodd" fill="#596168" d="m-29.95-77.25 6 3.25 2.8.1-1.85 2.95-6.55-2.4-6.8 5.2-.65 3.8-8.9-.55v.05l-.6-.15.65-3.1 3-4.05.4.35 4.45.65 8.05-6.1" transform="translate(55.35 203.25)"/><path fill-rule="evenodd" fill="#95836b" d="m-25.05-28.9-3.35-1.85-.2-3.5-.3-4.15-.35-5.4 1.95-1.75 3.55.1-2 5.1.15 2.1-3.3-.15 3.3.15.25 4.7-3.25-.7 3.25.7.3 4.65M-45.9-64.85v-.05l8.9.55h.05l-3 4.3.95 3.9 3.4-1.35 8.7-.35-2.5 3-9.6 1.95 2 2.9-3.95 1-1 .25-4.75-2.4 1.05-2.5-1.35.25.5-3.7.8-1.1-.95-.85-2.4-.2 3.15-5.6m2.1 4.25-1.9 2.4 1.9-2.4m2.8 11.1.05.5-.05-.5m2-6.65-6.65 2.5 6.65-2.5" transform="translate(55.35 203.25)"/><path fill-rule="evenodd" fill="#b8a582" d="m-18.55-25.35-6.5-3.55-.3-4.65 5.8 1.3-5.8-1.3-.25-4.7-.15-2.1 2-5.1 7.2.2-4.2 3.5-.4 3.7-.25 2.5 1.85 3.3 1.85 3.3-.35 3.6h-.5m-10.7-18.45-.05-1.15-11.45-2.9h-.1l-.1-1.15 3.95-1-2-2.9 9.6-1.95 2.5-3 .9-.05-.9.05-8.7.35-3.4 1.35-.95-3.9 3-4.3 6.2.35-1.05 2.55 7.25 2.3-2.55 6.4L-23-49l-3.6 2.75-.7.7-1.95 1.75m1.5-4.95-6.85-1.85-2.4.6 2.4-.6 6.85 1.85m6.6 10.7-4.45-.2 4.45.2" transform="translate(55.35 203.25)"/><path stroke-width=".05" stroke-opacity=".702" stroke-linejoin="round" stroke-linecap="round" stroke="#4c4c4c" fill="none" d="M45.15 122.85v-5.1l-3.4-7.15h-9.8l-.7.7-6.9 7.1-2.05 2.15 1.05 4.35 2.05 1.1 6 3.25 2.8.1.5-.75m2.85-.65 1.65-.75 5.95-1.6v-2.75l3.3 1.65-2.55 10-.1.4 3 2.1-.4 7.2-.05.95 4.2 10.45.05.15 3.6 6.8-.65.5.5 4.6L54.7 169m.35.3 1.55 4.8-4 1.65-.45.35-3.5 2.9-2.2-.2-9.65-.9-6.5-3.55-3.35-1.85-.2-3.5-.3-4.15-.35-5.4-.05-1.15-11.45-2.9m-.1 0-1-.25m25.25-24.55-2.85 6.35.15 1.95.35 2.95m4.45 6.2 7.55-3.85m-2.6-9.3-.15-.1-3.25 3.9m3.25-3.9.25-.3m-5.05 13.55-1.15.6-7.35 5.6-3.6 2.75-.7.7 3.55.1 7.2.2 6.65-1.15 7.1-1.25m-5.05 19.65 4.6.7.5-.2m2.95-12.7-5.85 4.7-2.3-.1-8.65-.15-2.85-2.2-1.7-.1m1.6 5.8 4.15.95-1.4-1.6m-2.75.65-5.8-1.3m9.95 2.25 2.05 2.4 5.5.9m5.8-4.75 1.4-1.5m-38.2-52.6-6.9 3.5-1.5 6.75-.15.55 4.55 3.9.4-.55m3.6-14.15 1.85-.9 6 2.9M8.1 126.65h-.05l-4.65.15-.95 1.65-2 3.35 2.8 6.45h5.6l.65-3.1 3-4.05.4.35 4.45.65 8.05-6.1M8.85 138.25l.6.15v-.05l8.9.55h.05l6.2.35 1.6.1 6.15-7.05 1.85-2.95h.35l2-.95 1-.45m-11.35 11.4 2.7.15m-10.55 13.75 2.4-.6 6.85 1.85m.45 3.2-1.95 1.75m2.35-14.05.9-.05m-13 1.75 3.4-1.35 8.7-.35m-18.8-.35 1.9-2.4m2.85 11.6-1 .25-4.75-2.4 1.05-2.5-1.35.25.5-3.7.8-1.1-.95-.85-2.4-.2 3.15-5.6m8.9 14.85-3.95 1m-4.7-4.65 6.65-2.5m13.4 17.9 4.45.2m-4.45-.2-3.3-.15m.3 4.15 3.25.7m6.55-41.3 2.2 2.2"/><path stroke-width=".05" stroke-linejoin="round" stroke-linecap="round" stroke="#0c0" fill="none" d="M14.6 155.4h-.1m-.1-1.15-.05-.5m.05.5.1 1.15"/><path stroke-opacity=".8" stroke-linejoin="round" stroke-linecap="round" stroke="#000" fill="none" d="m-13.5-92.75-9.8.05-7.6 7.8-6-2.9-8.75 4.4-1.55 6.7v.05l-.1.55.05-.55-4.65.1-2.95 5.1 2.8 6.35 5.65.1.6.1-3.2 5.6 2.4.2 1 .85-.8 1.1-.5 3.7 1.3-.25-1 2.55 4.75 2.35.95-.25.1 1.15 11.55 2.9.95 14.2 9.8 5.45 11.9 1.05 3.5-2.9-.1-.15 4.55-1.85L-.2-34l-.35-.3L.8-35.65l-.5-4.6.1-.15.5-.35-3.55-6.85-.05-.1-4.2-10.45.45-8.15-3.2-2.2.25-.35 2.55-9.95-3.25-1.6v-5.15l-3.4-7.2z" transform="translate(55.35 203.25)"/></g><radialGradient spreadMethod="pad" r="819.2" id="c" gradientUnits="userSpaceOnUse" gradientTransform="scale(.066)" cy="0" cx="0"><stop stop-opacity=".447" offset="0"/><stop stop-opacity="0" offset="1"/></radialGradient><radialGradient spreadMethod="pad" r="819.2" id="e" gradientUnits="userSpaceOnUse" gradientTransform="matrix(.1188 0 -.0059 .0635 27.3 -111.05)" cy="0" cx="0"><stop stop-color="#f3f2d8" offset=".365"/><stop stop-color="#f3f2d8" offset=".627"/><stop stop-color="#cc9" offset=".773"/><stop stop-color="#cc9" offset="1"/></radialGradient><path fill-rule="evenodd" fill="url(#c)" d="M-53.6 0q0-22.2 15.7-37.9T0-53.6q22.2 0 37.9 15.7T53.6 0q0 22.2-15.7 37.9T0 53.6q-22.2 0-37.9-15.7T-53.6 0" transform="translate(53.6 53.6)" id="b"/><path fill-rule="evenodd" fill-opacity="0" fill="#f0f" d="M102.95 45H0V0h102.95v45" id="o"/></defs><path fill="none" d="M-1-1h207v197H-1z"/><g><use x="97.05" y="205.5" xlink:href="#p" width="381" transform="translate(-192.55 -294)" height="381"/><use x="89.045" y="188.549" xlink:href="#q" width="117.3" transform="translate(-50.273 -47.014) scale(1.0899)" height="34.8"/><use x="-134.329" y="-114.613" xlink:href="#r" width="112.35" transform="matrix(.7678 0 -.071 .7678 98.052 176.766)" height="76.45"/><use x="97.05" y="205.5" xlink:href="#s" width="161.9" transform="translate(-55.35 -203.25)" height="183.6"/><use x="-52.568" y="-53.211" xlink:href="#t" width="102.95" transform="matrix(1.8072 0 0 1.6538 114.95 124.6)" height="45"/></g></svg>