<svg width="261" height="239" xmlns="http://www.w3.org/2000/svg" xmlns:xlink="http://www.w3.org/1999/xlink"><defs><linearGradient y2="4.937" y1="4.378" x2=".244" x1="2.098" spreadMethod="pad" id="c"><stop stop-color="#521507" offset=".431"/><stop stop-color="#c68d39" offset="1"/></linearGradient><linearGradient y2="12.239" y1="10.352" x2="3.146" x1="5.146" spreadMethod="pad" id="d"><stop stop-color="#005570" offset=".255"/><stop stop-color="#0d1e62" offset="1"/></linearGradient><linearGradient y2="-11.597" y1="-7.077" x2="-12.638" x1="-14.849" spreadMethod="pad" id="e"><stop stop-color="#001142" offset=".255"/><stop stop-color="#005c69" offset="1"/></linearGradient><linearGradient y2="5.639" y1="5.252" x2=".237" x1="1.628" spreadMethod="pad" id="f"><stop stop-color="#066" offset=".255"/><stop stop-color="#1e4066" offset=".753"/></linearGradient><linearGradient y2="-2.115" y1="-.827" x2="-1.002" x1="-1.639" spreadMethod="pad" id="j"><stop stop-color="#001142" offset=".255"/><stop stop-color="#03476c" offset=".753"/></linearGradient><linearGradient y2="-9.832" y1="-9.832" x2="20.529" x1="-34.863" spreadMethod="pad" id="k"><stop stop-color="#00091a" offset=".502"/><stop stop-color="#005c69" offset="1"/></linearGradient><linearGradient y2="-11.179" y1="-11.179" x2="19.627" x1="-33.308" spreadMethod="pad" id="l"><stop stop-color="#013d4b" offset=".255"/><stop stop-color="#0d1e62" offset="1"/></linearGradient><linearGradient y2="-40.776" y1="-25.61" x2="-15.107" x1="-17.694" spreadMethod="pad" id="m"><stop stop-color="#001142" offset=".553"/><stop stop-color="#005c69" offset="1"/></linearGradient><linearGradient y2="-5.156" y1="-5.156" x2="18.071" x1="-33.097" spreadMethod="pad" id="o"><stop stop-color="#373737" offset=".255"/><stop stop-color="#0d1e62" offset="1"/></linearGradient><linearGradient y2="-4.856" y1="-10.643" x2="31.041" x1="-51.455" spreadMethod="pad" id="p"><stop stop-color="#373737" offset=".255"/><stop stop-color="#0d1e62" offset="1"/></linearGradient><linearGradient y2="1.348" y1=".569" x2=".257" x1="1.979" spreadMethod="pad" id="q"><stop stop-color="#fc0" offset=".255"/><stop stop-color="#ca7135" offset="1"/></linearGradient><linearGradient y2="1.775" y1=".376" x2=".565" x1="1.688" spreadMethod="pad" id="r"><stop stop-color="#d78727" offset=".255"/><stop stop-color="#951515" offset="1"/></linearGradient><linearGradient y2="-15.792" y1="-16.236" x2="6.24" x1="4.096" spreadMethod="pad" id="s"><stop stop-color="#7a311f" offset="0"/><stop stop-color="#c68d39" offset="1"/></linearGradient><linearGradient y2="-12.469" y1="-12.684" x2="3.347" x1="1.666" spreadMethod="pad" id="t"><stop stop-color="#7a311f" offset="0"/><stop stop-color="#c68d39" offset="1"/></linearGradient><linearGradient y2="1.172" y1="-.1" x2=".148" x1=".52" spreadMethod="pad" id="u"><stop stop-color="#431c12" offset=".255"/><stop stop-color="#900" offset="1"/></linearGradient><linearGradient y2="-8.172" y1="-9.247" x2="10.729" x1="10.021" spreadMethod="pad" id="v"><stop stop-color="#7a311f" offset="0"/><stop stop-color="#c68d39" offset="1"/></linearGradient><linearGradient y2="-3.47" y1="-5.938" x2="10.883" x1="10.132" spreadMethod="pad" id="w"><stop stop-color="#521507" offset=".431"/><stop stop-color="#c68d39" offset="1"/></linearGradient><linearGradient y2="-25.528" y1="-14.014" x2="-14.684" x1="-22.298" spreadMethod="pad" id="x"><stop stop-color="#001142" offset=".255"/><stop stop-color="#03476c" offset=".753"/></linearGradient><linearGradient y2="-27.772" y1="-47.561" x2="25.177" x1="23.295" spreadMethod="pad" id="y"><stop stop-color="#521507" offset=".431"/><stop stop-color="#c68d39" offset="1"/></linearGradient><linearGradient y2="-14.038" y1="-19.902" x2="21.318" x1="-35.27" spreadMethod="pad" id="z"><stop stop-color="#7a311f" offset="0"/><stop stop-color="#c68d39" offset="1"/></linearGradient><linearGradient y2="-37.454" y1="-22.162" x2="-17.194" x1="-24.979" spreadMethod="pad" id="A"><stop stop-color="#001142" offset=".255"/><stop stop-color="#03476c" offset=".753"/></linearGradient><linearGradient y2="-10.065" y1="-11.364" x2="6.078" x1="5.619" spreadMethod="pad" id="B"><stop stop-color="#7a311f" offset="0"/><stop stop-color="#c68d39" offset="1"/></linearGradient><radialGradient spreadMethod="pad" r="819.2" id="C" gradientUnits="userSpaceOnUse" gradientTransform="matrix(-.0004 .0398 -.1623 -.0023 109.75 17.9)" cy="0" cx="0"><stop stop-opacity=".478" stop-color="#53453e" offset=".227"/><stop stop-opacity="0" stop-color="#53443e" offset=".961"/></radialGradient><radialGradient spreadMethod="pad" r="819.2" id="g" gradientUnits="userSpaceOnUse" gradientTransform="matrix(.0685 0 -.0013 .0685 139.95 102.5)" cy="0" cx="0"><stop stop-color="#ffc" offset=".255"/><stop stop-color="#deae5f" offset=".753"/></radialGradient><radialGradient spreadMethod="pad" r="819.2" id="h" gradientUnits="userSpaceOnUse" gradientTransform="matrix(.111 0 -.002 .111 179.45 109.5)" cy="0" cx="0"><stop stop-color="#81b04f" offset=".224"/><stop stop-color="#20352d" offset=".91"/></radialGradient><radialGradient spreadMethod="pad" r="819.2" id="i" gradientUnits="userSpaceOnUse" gradientTransform="matrix(.901 0 -.0164 .901 -106.3 -60.25)" cy="0" cx="0"><stop stop-color="#81b04f" offset=".224"/><stop stop-color="#20352d" offset=".91"/></radialGradient><radialGradient spreadMethod="pad" r="819.2" id="n" gradientUnits="userSpaceOnUse" gradientTransform="matrix(.028 0 -.0005 .028 140.75 103.35)" cy="0" cx="0"><stop stop-color="#5f66a9" offset=".255"/><stop stop-color="#0c0e16" offset=".8"/></radialGradient><g transform="translate(2.1 2.05)" id="F"><use xlink:href="#a" width="227.05" transform="matrix(.901 0 -.0164 .901 26.75 168.25)" height="46.7"/><use xlink:href="#b" width="231.25" transform="translate(-2.1 -2.05)" height="210.75"/></g><g id="b"><path fill-rule="evenodd" fill="#331c19" d="m177.8 149.35 1.3.45 1.1-.45q1.55-.45 2.95-1.35l1.65-1.1 1.35-1.25.65-.7q1.25-1.5 1.6-3.3l.3-1.9q.1-1.9.55-3.75 3.1.65 6.15 1.65 3.05.95 5.8 2.45 2.85 1.5 5.4 3.45l5.05 4.4.3.2-.1-3.4 1.7 1.4 3.1 2.75q2.2 2.05 3.85 4.55l2.05 3.25.9 1.75 1.45 3.65q1.45 3.85 1.7 7.95l.45 9.95-6-6.5-4.5-4.85-1.65-1.65-4.5-4.85-6.2-6.5q-3.7-4-7.9-7.65l-1.6 2.65q-1.65 2.65-4.25 4.2-2.7 1.6-5.55 2.4l-3.65-4.15-3.8-3.9.35.15-.35-.15 3.8 3.9 3.65 4.15 3.6 5.2q.45-1.6 1.05-3.05l1.2-2.75.75-.45q1.6 1 2.95 2.35 2.6 2.45 4.45 5.55 1.8 3.05 3.1 6.3l1.8 5.4q.8 2.65 1.2 5.35l.5 5.3-.05 4.9-.35 7.2-1.3 8.05-2-4.1-3.2-6.2-3.55-6.2-5.35-8.15-14-18.75-3.4-3.8-.55 1.2-.55 1.3q-1.55 3.4-3.7 6.55-2.5 3.7-5.75 6.85l-2.15.45-4.4.35-6.65-.65-4.1-.55-2.55-.05-4.65.75-5 .35-4.8.05-6.05-.1-1.05 1.35q-1.75 2.25-4.15 3.9-1.5 1-3.35 1.65l-2.6.7-5.9.75-4.35.1-6.8-.4q-3.05-.3-5.8-1.35l13.4-6.35.25-.2-4.95.35-3.9-.6-2.5-.75 9.95-4.35-1.1-.55-2.35-1.2-4.95-2.65q-2.95-1.6-5.8-3.7-1.1 1.15-2.6 1.45l-1.1-.15-3.05.65.4-.1-4.2 1.05-.5.25-.2.4 1.2 2.7q1.3 2.4 3.25 4.45l3 3.1q-3.5.45-7-.15-2.2-.4-4.3-1.4l-.15.25-.3-.55-.6-.65.6.65.3.55v.05l.15.15 6.55 5.55-3.8-.45-4.8-.6-1.85 4.55-.75-5.1q-2.65-.8-4.9-2.45-2.75-1.95-4.6-4.85-.6-1.05-.8-2.15-.25-1.2.1-2.25.5-1.25 1.45-2.15 1.35-1.2 3-2.1l2-1.1-2.05-1.95-2.2-2.3-2.25-2.5-1.1-1.3-1.2-1.5q-2.2 2.55-4.1 5.35-2.65 3.85-5.1 8.1l-2.7 4.85-2.7 5.3-2.25 4.9-2.4 5.35-1.2 2.85-1.25 3-1.3 3.1-.05-.1q-1.55-3.2-2.1-6.85-.6-4.35-.25-8.75.25-3.1.85-6.2.6-2.95 1.6-5.75 1.05-2.8 2.45-5.4 1.05-1.85 2.25-3.55l.7-.8.65-.5.55-.2.55.05 1 1.6 2.55-4.6 2.75-4.55 1.6-2.15 1.6-2.2 1.75-2.1 1.8-2.2 5.35 3.7 3.15 2.2 3.05 1.9 3.25 1.75q1.55.8 3.25 1.5l2.25-5.4q-4.2-7.3-8.05-14.7l-2.8-6.15q-1.3-3.2-1.5-6.65-.05-.8.2-1.45.1-.5.55-.75 1.65-1 3.65-.8l6.25 1.2 6.05 1.85-4.05-3.6q-1.1-1.1-1.5-2.8l-.1-1.1q.3-2.25 2.25-3.5-2.05-.95-4.1-2.45l-6.1-4.85q-3.45-2.7-5.3-6.75-.9-1.85-1.3-3.85-.45-2.1-.55-4.25v-3.9l.1-4V76.9l-3-1.5q-5.95-2.45-12.35-2.55-5.75-.1-11.5.95l-3.8.65Q17 74.9 10.6 72.6q-3.45-1.1-6.45-3.15l-1.95-1.5Q.95 66.9.4 65.15q-.55-1.9-.3-3.65.45-3.45 1.35-6.8 1.9-7.25 6.5-13.25l4.1-4.85q1.85-2 4-3.8l4.3-3.55q2.25-1.6 4.65-3.15 3.4-2.15 7.2-4.1 3.45-1.6 6.85-3.25 3.25-1.55 6.7-2.75 5.25-.25 10.65-.25 2 3.15 2.55 7 .35 2.65 0 5.35-3.35 2.1-6.85 4-9.75 5.25-17.7 12.9-1.45 1.35-2.65 2.85l-1.65 2.3q-1.1 1.55 0 3 .7 1.1 1.9 1.75 1.05.75 2.3 1.3l13.9-4.25 6.45-3.1 4.4-2.45q3-1.55 6.1-2.35 2.7-.75 5.35-.75l6.75.45q3.25.75 6.25 2.3l1.9.7 6.95.6 6.95-.85 7.05-1.5q3.1-.75 6-1.85 1.75-.75 2.55-2.1l1.35-2.75 1.1-2.55 2.35-5.9q1.15-3.15 2.65-6l3.7-6.1 2.25-3.1 2.55-3.05 2.95-3 4.85-4.6 1.75-1.55v-.1.05l3.8-2.35q2.45.15 4.85.9l2.2.6q3.45.75 5.5 3.3l.55.9q-.85 3.6-2.3 7-2.9 6.85-5.5 13.7-2.05 5.5-3.55 10.95-1.25 4.8-2.15 9.55-.35 1.75-1.2 3.5l.9-1.75-1.3 5q-1 3.15-2.8 5.65l-2.25 2.7-3.05 2.65q-2.5 1.75-5.35 2.95-2.75 1.3-5.7 2.1-3.15.85-6.35 1.1-3.4.3-6.85.1l-5.3-.45-5.35-.5-6.65-.55-6.3-.35-3.95.15-1.65.9-2.75 1.6-1.2.9-.85.95 1.1 5.9 2 8.9 1.3-1.15q.65 2.65 2.05 5.15l2.55 3.7q2 2.75 4.85 4.25 2.9 1.6 6.1 1.9l1.75.1-2.35 4.8 2.55-.1 5.5.45 3.2.95q3.2 1.2 5.9 3.4l2.4-3.35-1.5.55-2.8-6.4q4.15-.7 7.75-3l3.3-2.4 3.15-2.95q2.05-2.15 3.7-4.7 1.55-2.25 2.55-4.85l1.25-3.2 7.15 5.15q-1.2 3.65-3.7 6.9l-3.15 3.6-2.9 2.65-2.2 1.75 5.25-.5h1.8q2.15.05 4.25.8l1.3.6 1.75 2.2q.35.15.7.4l2.5 1.95q3.05-1.05 6.35-1.55l6.2.2 6.9-.5 4.2.25q3.05.5 5.6 1.8 2.7 1.35 4.95 3.35 2.1 1.85 3.45 4.2 1.4 2.3 2.15 5 .85 3.1.8 6.35l-.1 3.85v.45l.05-.8-.3 2.95q-.45 3.5-1.85 6.7l-1.9 3.9-3.6 6.15M78.95 88.4l1.55 4.7 2.65 6.55 3.05 6.15-3.05-6.15-2.65-6.55-1.55-4.7m-24.3-39.55-3.1 1.8-3.35 1.3 3.35-1.3 3.1-1.8M140.4 2.4v.05-.05m45 127.6-1.05 2.3 1.05-2.3m-99.2-24.2 1.95 3.4 3.75-1.4-5.7-2m-16.3 68.75.45.3-.45-.3m-2.4-2.85 1.8 2.2.9 1.25-.9-1.25-1.8-2.2m3.55-24.15-.35-.7.35.7m21.55-21.8-7.9-2.2 7.9 2.2m-8.15 31.8-.1.15-3.65 1-2.4 1 .15.65.4.15 1.55.6q1.3.3 2 1.4.3.45.05.9l-.7.5.7-.5q.25-.45-.05-.9-.7-1.1-2-1.4l-1.55-.6-.4-.15-14.55 1.6-1.95.25 1.95-.25 14.55-1.6-.15-.65 2.4-1-3.75-3.85-8.5-2.6 8.5 2.6 3.75 3.85 3.65-1 .1-.15-.9-.35-4.6-3.25 4.6 3.25.9.35.1-.75-.1.75m2.2-.85.55-2.45 5.95 4.1 1.65-3.65 3.65 2.05 3.7 2.15 3.95-4.05q1.65 1.8 2.8 3.95 1.55 2.85 2 6.15l-4.35.85-1.35-.35q-2.8-.75-5.45-2.05l-2.05 1.9-2.75-1.2.5-2q.8-3 3-5.35-2.2 2.35-3 5.35l-.5 2 2.75 1.2 2.05-1.9q2.65 1.3 5.45 2.05l1.35.35 4.35-.85q-.45-3.3-2-6.15-1.15-2.15-2.8-3.95l-3.95 4.05-3.7-2.15-3.65-2.05-1.65 3.65-5.95-4.1-.55 2.45 3.75 6.8 1.05.3 1.35-.9 2.15 1.2-2.15-1.2-1.35.9-1.05-.3-3.75-6.8-.2 1.15-1.45-.25 1.45.25.2-1.15m-1.2 5.9 1.2-1.75-1.2 1.75m-10.4-43.2.95.75-.95-.75m23.6 6.75 3.85-.7-.15-.9q-.6-2.95 1.45-5.15-2.05 2.2-1.45 5.15l.15.9 6.05.2-6.05-.2-3.85.7m.6-3.55 1.4 1.25-1.4-1.25-3.25-3.4-2.5-2.7q-2-2.25-3.7-4.8l-1.65-2.5 1.65 2.5q1.7 2.55 3.7 4.8l2.5 2.7 3.25 3.4 2.3-4.85.6-.55 2.5-.15q3.35 0 5.95-1.9l1.75-3.3-1.75 3.3q-2.6 1.9-5.95 1.9l-2.5.15-.6.55-2.3 4.85m47.5-.55-2.65 3.05q-.45 1.55-1.45 2.75-2.5 2.75-5.5 4.6-3.2 1.9-6.5 2.7l-6.75.8q-3 0-5.75-1.15-2.55-1.1-4.8-2.8l-3.9-3.25 3.9 3.25q2.25 1.7 4.8 2.8 2.75 1.15 5.75 1.15l6.75-.8q3.3-.8 6.5-2.7 3-1.85 5.5-4.6 1-1.2 1.45-2.75l-2.75 1.85q-2.65 1.95-5.75 3.05l-3.2 1q-3.4 1.1-6.95 1.05l-2.9-.5-2.65-.75q-3.35-1.35-6.1-3.3-2.95-2.15-3.5-5.75.55 3.6 3.5 5.75 2.75 1.95 6.1 3.3l2.65.75 2.9.5q3.55.05 6.95-1.05l3.2-1q3.1-1.1 5.75-3.05l2.75-1.85 2.65-3.05m-47.1 48.65.4-.15 3.45-1.25q2.75-.9 5.3-2.2l4.8-2.45 1.25-.9 1.75-1.95-1.75 1.95-1.25.9-4.8 2.45q-2.55 1.3-5.3 2.2l-3.45 1.25-.4.15m22.9.1.25.5q.55 2.65-1.4 4.6 1.95-1.95 1.4-4.6l-.25-.5q-1.55-1.75-3.75-2.45l-2.15-.7 3.5-3.1.45-1.65-.45 1.65-3.5 3.1 2.15.7q2.2.7 3.75 2.45l1-.25q3.1-.9 6.1-2.35 2.85-1.45 5.75-3.5 2.9-2.1 5.45-4.65l3.65-4.05 2.35-3.1 3.3-4.6-3.3 4.6-2.35 3.1-3.65 4.05q-2.55 2.55-5.45 4.65-2.9 2.05-5.75 3.5-3 1.45-6.1 2.35l-1 .25m-11.95-55.65q-1.05 2.65-.65 5.6l.15.9.4-.85q1.35-2.95 3.3-5.65 2.1-2.75 4.65-5l2.2-1.85q1.45-1.15 3.1-2.15 2.85-1.75 6-2.75 2.65-.9 5.45-.9 3.4.55 6.5 2.2-3.1-1.65-6.5-2.2-2.8 0-5.45.9-3.15 1-6 2.75-1.65 1-3.1 2.15l-2.2 1.85q-2.55 2.25-4.65 5-1.95 2.7-3.3 5.65l-.4.85.2.1q1.3 1.1 2.85 1.7l2.3.9q1.75.85 3.65 1.1l6.15.5 5.55-.15 4.8-.95q4-.7 7.5-2.8 2.45-1.55 4.5-3.65l.4-2.2v-1.95q0-2.25-1.05-4.4l-2.05-2.8 2.05 2.8q1.05 2.15 1.05 4.4v1.95l-.4 2.2q-2.05 2.1-4.5 3.65-3.5 2.1-7.5 2.8l-4.8.95-5.55.15-6.15-.5q-1.9-.25-3.65-1.1l-2.3-.9q-1.55-.6-2.85-1.7l-.2-.1-.15-.9q-.4-2.95.65-5.6m31.3 59.7h-1.35v-.2l-.55-3.25 3.05-6 2.95.9q5.15-2.15 10.2-4.7l2.2-1.75q2.2-2.5 3.85-5.45l3.35-6.15q1.45-2.85 2.45-6l2.35 1.55 4.35 3.25 2.7 2.15-2.7-2.15-4.35-3.25-2.35-1.55q-1 3.15-2.45 6l-3.35 6.15q-1.65 2.95-3.85 5.45l-2.2 1.75q-5.05 2.55-10.2 4.7l-2.95-.9-3.05 6 .55 3.25v.2h1.35m5.2-53.2 1.3-1.8.4-.95-.05-.75-.75-1.95.75 1.95.05.75-.4.95-1.3 1.8m-.15-11.8 4.55-2.1q2.75-1.15 5.95-2.05-3.2.9-5.95 2.05l-4.55 2.1m-4.35-59.4-.9 1.6.9-1.6m-65.65 104.4-5.2-6.4 5.2 6.4m-1.55 14-4.15-4.55 4.15 4.55m-1.2-2.7v-.3l.2-.1-.2.1v.3m25.85 4.4-1.5-.4 1.5.4m6.95 3q-3.25.7-5.85 2.45l-.1.05.1-.05q2.6-1.75 5.85-2.45m-41.3 5.7 2.6.55-2.6-.55" transform="translate(2.1 2.05)"/><path stroke-width="4.25" stroke-linejoin="round" stroke-linecap="round" stroke="#331c19" fill="none" d="M187 159.3q2.85-.8 5.55-2.4 2.6-1.55 4.25-4.2l1.6-2.65q4.2 3.65 7.9 7.65l6.2 6.5 4.5 4.85 1.65 1.65 4.5 4.85 6 6.5-.45-9.95q-.25-4.1-1.7-7.95l-1.45-3.65-.9-1.75-2.05-3.25q-1.65-2.5-3.85-4.55l-3.1-2.75-1.7-1.4.1 3.4-.3-.2-5.05-4.4q-2.55-1.95-5.4-3.45-2.75-1.5-5.8-2.45-3.05-1-6.15-1.65-.45 1.85-.55 3.75l-.3 1.9q-.35 1.8-1.6 3.3l-.65.7-1.35 1.25-1.65 1.1q-1.4.9-2.95 1.35l-1.1.45-1.3-.45-.35-.15 3.8 3.9 3.65 4.15 3.6 5.2q.45-1.6 1.05-3.05l1.2-2.75.75-.45q1.6 1 2.95 2.35 2.6 2.45 4.45 5.55 1.8 3.05 3.1 6.3l1.8 5.4q.8 2.65 1.2 5.35l.5 5.3-.05 4.9-.35 7.2-1.3 8.05-2-4.1-3.2-6.2-3.55-6.2-5.35-8.15-14-18.75-3.4-3.8-.55 1.2-.55 1.3q-1.55 3.4-3.7 6.55-2.5 3.7-5.75 6.85l-2.15.45-4.4.35-6.65-.65-4.1-.55-2.55-.05-4.65.75-5 .35-4.8.05-6.05-.1-1.05 1.35q-1.75 2.25-4.15 3.9-1.5 1-3.35 1.65l-2.6.7-5.9.75-4.35.1-6.8-.4q-3.05-.3-5.8-1.35l13.4-6.35.25-.2-4.95.35-3.9-.6-2.5-.75 9.95-4.35-1.1-.55-2.35-1.2-4.95-2.65q-2.95-1.6-5.8-3.7-1.1 1.15-2.6 1.45l-1.1-.15-3.05.65m.4-.1-4.2 1.05-.5.25-.2.4 1.2 2.7q1.3 2.4 3.25 4.45l3 3.1q-3.5.45-7-.15-2.2-.4-4.3-1.4l-.15.25.15.2L79 182.9l-3.8-.45-4.8-.6-1.85 4.55-.75-5.1q-2.65-.8-4.9-2.45-2.75-1.95-4.6-4.85-.6-1.05-.8-2.15-.25-1.2.1-2.25.5-1.25 1.45-2.15 1.35-1.2 3-2.1l2-1.1L62 162.3l-2.2-2.3-2.25-2.5-1.1-1.3-1.2-1.5q-2.2 2.55-4.1 5.35-2.65 3.85-5.1 8.1l-2.7 4.85-2.7 5.3-2.25 4.9-2.4 5.35-1.2 2.85-1.25 3-1.3 3.1-.05-.1q-1.55-3.2-2.1-6.85-.6-4.35-.25-8.75.25-3.1.85-6.2.6-2.95 1.6-5.75 1.05-2.8 2.45-5.4 1.05-1.85 2.25-3.55l.7-.8.65-.5.55-.2.55.05 1 1.6 2.55-4.6 2.75-4.55 1.6-2.15 1.6-2.2 1.75-2.1 1.8-2.2 5.35 3.7 3.15 2.2 3.05 1.9 3.25 1.75q1.55.8 3.25 1.5l2.25-5.4q-4.2-7.3-8.05-14.7l-2.8-6.15q-1.3-3.2-1.5-6.65-.05-.8.2-1.45.1-.5.55-.75 1.65-1 3.65-.8l6.25 1.2 6.05 1.85-4.05-3.6q-1.1-1.1-1.5-2.8l-.1-1.1q.3-2.25 2.25-3.5-2.05-.95-4.1-2.45l-6.1-4.85q-3.45-2.7-5.3-6.75-.9-1.85-1.3-3.85-.45-2.1-.55-4.25v-3.9l.1-4v-1.45l-3-1.5Q47.55 75 41.15 74.9q-5.75-.1-11.5.95l-3.8.65q-6.75.45-13.15-1.85-3.45-1.1-6.45-3.15L4.3 70q-1.25-1.05-1.8-2.8-.55-1.9-.3-3.65.45-3.45 1.35-6.8 1.9-7.25 6.5-13.25l4.1-4.85q1.85-2 4-3.8l4.3-3.55q2.25-1.6 4.65-3.15 3.4-2.15 7.2-4.1 3.45-1.6 6.85-3.25 3.25-1.55 6.7-2.75 5.25-.25 10.65-.25 2 3.15 2.55 7 .35 2.65 0 5.35-3.35 2.1-6.85 4-9.75 5.25-17.7 12.9-1.45 1.35-2.65 2.85l-1.65 2.3q-1.1 1.55 0 3 .7 1.1 1.9 1.75 1.05.75 2.3 1.3L50.3 54l3.35-1.3 3.1-1.8 4.4-2.45q3-1.55 6.1-2.35 2.7-.75 5.35-.75l6.75.45q3.25.75 6.25 2.3l1.9.7 6.95.6 6.95-.85 7.05-1.5q3.1-.75 6-1.85 1.75-.75 2.55-2.1l1.35-2.75 1.1-2.55 2.35-5.9q1.15-3.15 2.65-6l3.7-6.1 2.25-3.1 2.55-3.05 2.95-3 4.85-4.6 1.75-1.55v-.05l3.8-2.35q2.45.15 4.85.9l2.2.6q3.45.75 5.5 3.3l.55.9q-.85 3.6-2.3 7-2.9 6.85-5.5 13.7-2.05 5.5-3.55 10.95-1.25 4.8-2.15 9.55-.35 1.75-1.2 3.5l.9-1.75-1.3 5q-1 3.15-2.8 5.65l-2.25 2.7-3.05 2.65q-2.5 1.75-5.35 2.95-2.75 1.3-5.7 2.1-3.15.85-6.35 1.1-3.4.3-6.85.1l-5.3-.45-5.35-.5-6.65-.55-6.3-.35-3.95.15-1.65.9L80 73.8l-1.2.9-.85.95 1.1 5.9 2 8.9M97.3 109.2l2.55-.1 5.5.45 3.2.95q3.2 1.2 5.9 3.4l2.4-3.35m12.6-6.9 5.25-.5h1.8q2.15.05 4.25.8m1.3.6 1.75 2.2q.35.15.7.4l2.5 1.95q3.05-1.05 6.35-1.55l6.2.2 6.9-.5 4.2.25q3.05.5 5.6 1.8 2.7 1.35 4.95 3.35 2.1 1.85 3.45 4.2 1.4 2.3 2.15 5 .85 3.1.8 6.35l-.1 3.85.05-.35-.3 2.95q-.45 3.5-1.85 6.7l-1.9 3.9-3.6 6.15m7.6-19.35v.25m0 .05v.15l.05-.8m-1.1 2.65 1.05-2.3m-99.2-24.2-3.05-6.15-2.65-6.55-1.55-4.7m9.2 20.8-1.95-3.4m5.7 2-3.75 1.4 1.65 2.5q1.7 2.55 3.7 4.8l2.5 2.7 3.25 3.4 2.3-4.85.6-.55 2.5-.15q3.35 0 5.95-1.9l1.75-3.3m29.35-59.8.9-1.6m-.9 54.25q-3.1-1.65-6.5-2.2-2.8 0-5.45.9-3.15 1-6 2.75-1.65 1-3.1 2.15l-2.2 1.85q-2.55 2.25-4.65 5-1.95 2.7-3.3 5.65l-.4.85.2.1q1.3 1.1 2.85 1.7l2.3.9q1.75.85 3.65 1.1l6.15.5 5.55-.15 4.8-.95q4-.7 7.5-2.8 2.45-1.55 4.5-3.65l.4-2.2v-1.95q0-2.25-1.05-4.4l-2.05-2.8m12.55-1.35q-3.2.9-5.95 2.05l-4.55 2.1m1.05 6.35.75 1.95.05.75-.4.95-1.3 1.8m-26.5 41.25-.45 1.65-3.5 3.1 2.15.7q2.2.7 3.75 2.45l1-.25q3.1-.9 6.1-2.35 2.85-1.45 5.75-3.5 2.9-2.1 5.45-4.65l3.65-4.05 2.35-3.1 3.3-4.6m27.3.9-2.7-2.15-4.35-3.25-2.35-1.55q-1 3.15-2.45 6l-3.35 6.15q-1.65 2.95-3.85 5.45l-2.2 1.75q-5.05 2.55-10.2 4.7l-2.95-.9-3.05 6 .55 3.25v.2H144m-32.45-46.1 3.9 3.25q2.25 1.7 4.8 2.8Q123 138 126 138l6.75-.8q3.3-.8 6.5-2.7 3-1.85 5.5-4.6 1-1.2 1.45-2.75l-2.75 1.85q-2.65 1.95-5.75 3.05l-3.2 1q-3.4 1.1-6.95 1.05l-2.9-.5-2.65-.75q-3.35-1.35-6.1-3.3-2.95-2.15-3.5-5.75m-.2-.1-.15-.9q-.4-2.95.65-5.6m10.8 60.75q1.95-1.95 1.4-4.6l-.25-.5m-5.95-9-1.75 1.95-1.25.9-4.8 2.45q-2.55 1.3-5.3 2.2l-3.45 1.25-.4.15m9.25-11.9q-1.15-2.15-2.8-3.95l-3.95 4.05-3.7-2.15q-2.2 2.35-3 5.35l-.5 2 2.75 1.2 2.05-1.9q2.65 1.3 5.45 2.05l1.35.35L113 167q-.45-3.3-2-6.15m35.2-33.7 2.65-3.05m-46.1 1.8-1.4-1.25m4.55-3.2q-2.05 2.2-1.45 5.15l.15.9 6.05.2m-6.05-.2-3.85.7m-22.65-6-.95-.75m6.7 44.5.7-.5q.25-.45-.05-.9-.7-1.1-2-1.4l-1.55-.6-.4-.15L66 164l-1.95.25m16.5-1.85-.15-.65 2.4-1-3.75-3.85-8.5-2.6m26.5 11.85-2.15-1.2-1.35.9-1.05-.3-3.75-6.8-.2 1.15-1.45-.25M81.05 156l4.6 3.25.9.35.1-.75m2.1 4.05-1.2 1.75m13-5.85-3.65-2.05-1.65 3.65-5.95-4.1-.55 2.45m-5.95 2 3.65-1 .1-.15m.25-34 7.9 2.2m-21.9 21.1.35.7m-.85 27.6-.9-1.25-1.8-2.2m2.7 3.4-.3-.55-.6-.65m1.05.95-.45-.3m.3.6v-.05m0 .05.15.15m-2.05 4.5-2.6-.55m35.35-3.2.1-.05q2.6-1.75 5.85-2.45m-8.45-3.4 1.5.4m-25.65-4.8-.2.1v.3m-2.95-1.85 4.15 4.55m-3.65-20.4 5.2 6.4"/><path fill-rule="evenodd" fill="#420f0f" d="m80.5 149.7-.25 2.7-.5 2.2-1.85 3.8q-6.5 13.1-11.45 25.95-1.15-5.55-1.15-11.45l.05-3.15.05-.75.5-5q.25-2.9 1.65-5 0-8.25 4.65-14.4 2.3-1.1 3-1.25 2.7 0 4 2.15l.6 1.15.7 3.05" transform="translate(2.1 2.05)"/><path stroke-width=".05" stroke-linejoin="round" stroke-linecap="round" stroke="#2c1010" fill="none" d="m82.6 151.75-.25 2.7-.5 2.2-1.85 3.8q-6.5 13.1-11.45 25.95-1.15-5.55-1.15-11.45l.05-3.15.05-.75.5-5q.25-2.9 1.65-5 0-8.25 4.65-14.4 2.3-1.1 3-1.25 2.7 0 4 2.15l.6 1.15.7 3.05z"/><path fill-rule="evenodd" fill="#c68d39" d="m65.2 164.85-2-1.55.15-.3 1.85 1.85m-25.6 9.1q-4.4 8.65-9.45 21.5l-.05-.1q1.6-9.05 4.9-14.8 1.5-2.6 4.6-6.6m12.85-31.35.15.4-.2-.3.05-.1" transform="translate(2.1 2.05)"/><path fill-rule="evenodd" fill="url(#c)" d="M30.1 195.35q-2.35-4.4-2.5-12.4-.35-13.25 6.4-23.2 3.4-4.45 4.3-.75 4.6-9.45 12.05-17.8l2.1 1.4 3.35 2.25q10.55 8.4 24 10.5l.7.1 1.25 6.9-12.45 5.7-3.9-3.05-.2-.15-1.85-1.85-.15.3q-4.85-3.95-10-10.65l-2.6 3.15q-3.1 4.15-6.5 9.9l-.2.4-1.25 2.05-3.05 5.8q-3.1 4-4.6 6.6-3.3 5.75-4.9 14.8m22.35-52.75-.05.1.2.3-.15-.4" transform="translate(2.1 2.05)"/><path stroke-width=".05" stroke-opacity=".851" stroke-linejoin="round" stroke-linecap="round" stroke="#4d281a" fill="none" d="M32.2 197.4q-2.35-4.4-2.5-12.4-.35-13.25 6.4-23.2 3.4-4.45 4.3-.75 4.6-9.45 12.05-17.8l2.1 1.4 3.35 2.25q10.55 8.4 24 10.5l.7.1 1.25 6.9-12.45 5.7-3.9-3.05-.2-.15-2-1.55q-4.85-3.95-10-10.65l-2.6 3.15q-3.1 4.15-6.5 9.9l-.2.4-1.25 2.05-3.05 5.8q-4.4 8.65-9.45 21.5l-.05-.1z"/><path fill-rule="evenodd" fill="#0f5e71" d="m110.1 121.65-.15-.9h.45l-.3.9" transform="translate(2.1 2.05)"/><path fill-rule="evenodd" fill="#395e82" d="m185.45 129.65-.05 1.05-.05-.05.1-1" transform="translate(2.1 2.05)"/><path fill-rule="evenodd" fill="#ffc" d="m86.7 124.1.45.25-.5-.1.05-.15" transform="translate(2.1 2.05)"/><path fill-rule="evenodd" fill="#031641" d="m137.15 132.45-.1.15-.1-.05.2-.1m-36.3-6.55.4-.1v.1h-.4" transform="translate(2.1 2.05)"/><path fill-rule="evenodd" fill="url(#d)" d="m58.75 122.45-.25-1.25-.2-.95q1.1-1.25 4.3-1.35l3.1-.5q5.25 0 15.75 3.8l.4.15 1.9.85 2.9 1.05.5.1 3 .9q4.05 1 7.45.9H99l1.85-.25h.4v-.1l-.15-1.25 1.15-4.7q.05-1.55-1.25-1.65l.4-.55q.5-.7 1.8-.7h.15l4.7-.45-1.15.35q-.35.95-.45 2.15l-1.1-.25q-.9 0-1.55.65l-.1.2q-1.1 1.2-1.15 4.6l.1.8v.45l5.9.2h-.7l1.6 3.1 1.45 2.4q2.15 3.2 7.4 4.95 5.15 1.7 10.85.6 5.7-1.15 6.75-2.8l1.15-1.3.1-.15-.2.1q-7.85 2.75-12.4 2.55-4.6-.25-7.45-1.2-2.45-.9-3.35-2.65-.45-1-.45-2.15l.45-1.55-.3-.2.9.6v.05q2 1.35 5.5 2.9 4.85 2.15 12.55.1 6.55-1.75 11.7-5.9l1.4-1.65q15.2 3.1 3.35 17.4-12.15 14.5 1.3 7.45l-3.2 4.65-4.85 5.85-1.25 1.25q-2.55-.05-21.45-5.65-18.95-5.6-35.2-19.9-16.3-14.25-19.15-14.9-2.45-.6-4.5 0l-.3.1-.75.75-.75 2m60.55-17.85.7-.45q2.75-1.6 6.3-2.35l-.4.4 6.15.2-12.75 2.2m-33.95 13.35q.25-1.1.75-2l-.7 2h-.05m63.3-.35.2.5q.2.4-.1 1.25l-1.65 2.3-.1-.15q-.7.9-4.3 2.95-7.2 4.1-16.15 3.95-8-.2-11.1-3.4l3.45.9q5.1 1.15 7.9 1.15 10.15 0 17.65-5.6 2.7-2.05 4.2-3.85m-1.6 20.4q1.7-1.95 1-3.2-.75-1.3-3.35-1-2.55.4-5.35 2-2.95 1.7-4.65 3.7-1.6 2.15-.9 3.4.75 1.2 3.3.8 2.6-.25 5.55-1.9 2.85-1.65 4.4-3.8m3.8-10.05q-.1-2.5-2.55-2.5-2.4 0-2.45 2.55 0 2.55 2.6 2.55 2.4 0 2.4-2.6m-13.7 4.5 1.8-1.3q4.65-3.75 5.15-6.05-.5 2.3-5.15 6.05l-1.8 1.3m-23.4-4.9.6.45-.6-.45m-9.95-8.15q-2.4 2.2-1.3 6.05l-1.25.35 1.25-.35q-1.1-3.85 1.3-6.05m-1.3 6.05h.15-.15" transform="translate(2.1 2.05)"/><path fill-rule="evenodd" fill="url(#e)" d="M112.35 111.85q1.35-2.35 3.2-4.25l2.2-1.9 1.55-1.1 12.75-2.2.65-.15 5.95-.35 1.3.6 1.55 1.75.2.45q-.95-.5-2-.9l-.9-.35-3.6-.95q-3.25-.2-7.55 1.65-4.35 1.9-7.05 4.1l-2.05 1.8-.1.1-2.8 2.8q-1.9 2.2-3.4 4.55-1.1 1.6-1.85 3.25h-.45l.15.9.2.1q.75 3.55 2.8 5.3l.25.25.1.05.3.2-.45 1.55q0 1.15.45 2.15.9 1.75 3.35 2.65 2.85.95 7.45 1.2 4.55.2 12.4-2.55-4.35 2.6-11.15 3.35-3.95.4-7.6-1.15l-1.1-.45q-3.7-1.9-7.65-5.55 3.95 3.65 7.65 5.55l1.1.45q3.65 1.55 7.6 1.15 6.8-.75 11.15-3.35l.1.05-1.15 1.3q-1.05 1.65-6.75 2.8-5.7 1.1-10.85-.6-5.25-1.75-7.4-4.95l-1.45-2.4-1.6-3.1h.7l-5.9-.2V125l-.1-.8q.05-3.4 1.15-4.6l.1-.2q.65-.65 1.55-.65l1.1.25q.1-1.2.45-2.15l1.15-.35 2.1-1.1.45-.25.05-.2.7-1.45.35-.6.65-1.05M98.65 126q-.05-.45.05-1v-.9l2.3-5.9q1.3.1 1.25 1.65l-1.15 4.7.15 1.25-.4.1-1.85.25h-.35V126m11.95-10.85q-.95 2.4-.75 4.9l.1.7-.1-.7q-.2-2.5.75-4.9" transform="translate(2.1 2.05)"/><path fill-rule="evenodd" fill="url(#f)" d="M168.75 160.5q-4.65 4.35-10.05 7.65l-6.15 3.2q4.9-3.3 10.2-7.85 5.3-4.55 8.45-8.8 3.1-4.3 4.05-6.4-5.55 3.4-13.95 6.55-9.15 3.35-19.2 3.95l4.85-5.85q11.3-9 24.45-13.25 10.05-3.25 12.95-7.4-2.4 9.15-7.95 16.95-5.55 7.75-7.65 11.25m-63.5 12.6q-3.35-1.3-6.7-2.95l6.6 1.4-.15.55.25 1m79.9-42.45.1-.05.15-.6v.25l-.25.4" transform="translate(2.1 2.05)"/><path fill-rule="evenodd" fill="#12405c" d="m152.55 171.35-5.6 2.15q-6.6 2.2-14.7 2.45-5.1.2-9.1 0l-4.35-.25q-6.75.05-12.05-2l-1.5-.6-.25-1 .15-.55.45.1 7.1.45q4.6-.05 9-1.05l.25-.05.2-.05.15-.05.2-.1.2-.05h.2l.25-.05.1-.05.3-.1 1.9-.7q8.35-2.9 15.4-9.8l1.25-1.25q10.05-.6 19.2-3.95 8.4-3.15 13.95-6.55-.95 2.1-4.05 6.4-3.15 4.25-8.45 8.8-5.3 4.55-10.2 7.85" transform="translate(2.1 2.05)"/><path fill-rule="evenodd" fill="#b1d9d1" d="M185.4 130.7q-.35 3.85-1.35 6.55-1.45 4.1-3.5 7.95l-5.95 8.85-.1.2-.15.15-.15.2-.15.2-.15.15-.7.8-4.45 4.75q2.1-3.5 7.65-11.25 5.55-7.8 7.95-16.95l.8-1.65.25-.4v.05l-.05.35.05.05" transform="translate(2.1 2.05)"/><path fill-rule="evenodd" fill="url(#g)" d="M79.55 121.2v-.05q-.05-2.85 1.3-5.3l.6-1.05.1-.2 1.4-1.7q.8-.85 1.8-1.6l.75-.55q-1.85 7.65-.4 11.2l.6 1.05 1 1.1-.05.15-2.9-1.05-1.9-.85-2.3-1.15m62.85-16.1 1.8 1.25.7.7.85.9.05.1 1.15 1.8.35.75.1.25.4 1.3q.5 2.05.2 4.05l-.4 2.2q-6.8 6.7-16.8 7.4l-12.95-.65q-1.5-5.2-1.35-7.8.2-2.6 1.1-4.25 7.55-8.95 21.2-9.65l.9.35q1.05.4 2 .9v.1l.7.3" transform="translate(2.1 2.05)"/><path fill-rule="evenodd" fill="#daa672" d="m110.3 121.75-.2-.1.3-.9q.75-1.65 1.85-3.25 1.5-2.35 3.4-4.55l2.8-2.8.1-.1 2.05-1.8q2.7-2.2 7.05-4.1 4.3-1.85 7.55-1.65l3.6.95q-13.65.7-21.2 9.65-.9 1.65-1.1 4.25-.15 2.6 1.35 7.8l-2.3-.7-.1-.1-.65-.15q-1.8-.65-3.25-1.5l-.4-.2-.4-.4-.45-.35" transform="translate(2.1 2.05)"/><path fill-rule="evenodd" fill="url(#h)" d="M155.9 106.15q16.3 0 19.9 2.4.9.75 1.9 2.25-2.35-2-6.9-2-4.05 0-4.1 3.2 0 1.8 1.6 4.6 2.25 4.1 6.3 4.1 2.7 0 4.15-2.1 1-1.45 1.05-2.9l-.15-1.45 1.5 2q.6.75 1.65 6.55l1 7q-2.9 4.7-10.95 7.3-13.65 5.1-22.7 11.2-13.45 7.05-1.3-7.45 11.85-14.3-3.35-17.4l1.25-1.4.35-.4 1.65-2.3 3.05-2.85q6.4-6.1 6.4-7.15.05-2.85-2.3-3.2m11.85 14.1q-.1-1.35-1.4-1.35-1.5 0-1.55 1.35 0 1.3 1.5 1.3 1.45 0 1.45-1.3M147.05 138q-1.55 2.15-4.4 3.8-2.95 1.65-5.55 1.9-2.55.4-3.3-.8-.7-1.25.9-3.4 1.7-2 4.65-3.7 2.8-1.6 5.35-2 2.6-.3 3.35 1 .7 1.25-1 3.2" transform="translate(2.1 2.05)"/><path fill-rule="evenodd" fill="url(#i)" d="m157.25 105.65.2.05-.5.15.3-.2" transform="translate(2.1 2.05)"/><path fill-rule="evenodd" fill="#4b6141" d="M144.9 107.05q6.45-2.5 12.35-1.4l-.3.2-.8.25-.25.05q-4.5 1.15-8.95 3.7l-1.15-1.8-.05-.1-.85-.9" transform="translate(2.1 2.05)"/><path fill-rule="evenodd" fill="#5f7a52" d="M148 116.2q.3-2-.2-4.05l-.4-1.3-.1-.25-.35-.75q4.45-2.55 8.95-3.7 2.35.35 2.3 3.2 0 1.05-6.4 7.15l-3.05 2.85q.3-.85.1-1.25l-.2-.5-.65-1.4" transform="translate(2.1 2.05)"/><path fill-rule="evenodd" fill="#9ac072" d="m157.45 105.7 6.9-.5q8.5-.25 14.75 5.4 5.55 4.9 6.3 13.05V130l-.15.6-.1.05-.8 1.65q-2.9 4.15-12.95 7.4-13.15 4.25-24.45 13.25l3.2-4.65q9.05-6.1 22.7-11.2 8.05-2.6 10.95-7.3l-1-7q-1.05-5.8-1.65-6.55l-1.5-2 .15 1.45q-.05 1.45-1.05 2.9-1.45 2.1-4.15 2.1-4.05 0-6.3-4.1-1.6-2.8-1.6-4.6.05-3.2 4.1-3.2 4.55 0 6.9 2-1-1.5-1.9-2.25-3.6-2.4-19.9-2.4l.25-.05.8-.25.5-.15m10.3 14.55q0 1.3-1.45 1.3-1.5 0-1.5-1.3.05-1.35 1.55-1.35 1.3 0 1.4 1.35" transform="translate(2.1 2.05)"/><path fill-rule="evenodd" fill="url(#j)" d="M98.55 170.15q-4.85-2.3-9.8-5.3-4.8-2.95-9.3-7.35-2.75-2.7-5.35-5.9l-2.35-3.15-.7-.9-8.6-15.25-.25-.55-.2-.5-.25-.45-.1-.45q-2.1-4.8-2.9-7.9l.75-2 .75-.75.3-.1q2.05-.6 4.5 0 2.85.65 19.15 14.9 16.25 14.3 35.2 19.9 18.9 5.6 21.45 5.65-7.05 6.9-15.4 9.8l-1.9.7-.3.1-.1.05-.25.05h-.2l-.2.05-.2.1-.15.05-.2.05-.25.05q-4.4 1-9 1.05l-7.1-.45-.45-.1-6.6-1.4" transform="translate(2.1 2.05)"/><path fill-rule="evenodd" fill="url(#k)" d="m85.35 117.95-.65-.85q0-2.7 5.15-5.45 5.15-2.7 10.6-2.7 3.95 0 8.45 2.7l2.45 1.85-.7 1.45-.05.2-.45.25-2.1 1.1-4.7.45h-.15q-1.3 0-1.8.7l-.4.55-2.3 5.9v.9q-.1.55-.05 1l-.65.15h-.4q-3.4.1-7.45-.9l-3-.9-.45-.25-1-1.1-.6-1.05-.1-.8q.05-1.8.4-3.2l.7-2q-.5.9-.75 2" transform="translate(2.1 2.05)"/><path fill-rule="evenodd" fill="url(#l)" d="M85.5 110.75q5.2-3.6 12.25-3.75 7.6-.2 13 3.7l1.6 1.15-.65 1.05-.35.6-2.45-1.85q-4.5-2.7-8.45-2.7-5.45 0-10.6 2.7-5.15 2.75-5.15 5.45l.65.85h.05q-.35 1.4-.4 3.2l.1.8q-1.45-3.55.4-11.2" transform="translate(2.1 2.05)"/><path fill-rule="evenodd" fill="url(#m)" d="m113.45 127.35-.1-.05-.25-.25q-2.05-1.75-2.8-5.3l.45.35.4.4.4.2q1.45.85 3.25 1.5l.1.15.55.65q3.1 3.2 11.1 3.4 8.95.15 16.15-3.95 3.6-2.05 4.3-2.95l.1.15-.35.4-1.25 1.4-1.4 1.65q-5.15 4.15-11.7 5.9-7.7 2.05-12.55-.1-3.5-1.55-5.5-2.9v-.05l-.9-.6" transform="translate(2.1 2.05)"/><path fill-rule="evenodd" fill="#477c9e" d="M58.3 120.25q-.3-2.1.3-2.95.1-.25.35-.35 2.45-1.55 10.05.6 7.6 2.15 10.55 3.6v.05l2.3 1.15-.4-.15q-10.5-3.8-15.75-3.8l-3.1.5q-3.2.1-4.3 1.35m68-18.45 5.45-.7h.85q3.75-.15 6.05.8l-5.95.35-.65.15-6.15-.2.4-.4M98 126.15l.65-.15v.15H98m19.85-1 12.95.65q10-.7 16.8-7.4l.4-2.2.65 1.4q-1.5 1.8-4.2 3.85-7.5 5.6-17.65 5.6-2.8 0-7.9-1.15l-3.45-.9-.55-.65-.1-.15.65.15.1.1 2.3.7m33 2.8q0 2.6-2.4 2.6-2.6 0-2.6-2.55.05-2.55 2.45-2.55 2.45 0 2.55 2.5" transform="translate(2.1 2.05)"/><path stroke-width=".05" stroke-opacity=".302" stroke-linejoin="round" stroke-linecap="round" stroke="#000" fill="none" d="m159.55 107.75 6.9-.5q8.5-.25 14.75 5.4 5.55 4.9 6.3 13.05v6.35l.05-.35-.05 1.05q-.35 3.85-1.35 6.55-1.45 4.1-3.5 7.95l-5.95 8.85-.1.2-.15.15-.15.2-.15.2-.15.15-.7.8-4.45 4.75q-4.65 4.35-10.05 7.65l-6.15 3.2-5.6 2.15q-6.6 2.2-14.7 2.45-5.1.2-9.1 0l-4.35-.25q-6.75.05-12.05-2l-1.5-.6q-3.35-1.3-6.7-2.95-4.85-2.3-9.8-5.3-4.8-2.95-9.3-7.35-2.75-2.7-5.35-5.9l-2.35-3.15m-.7-.9-8.6-15.25-.25-.55-.2-.5-.25-.45-.1-.45q-2.1-4.8-2.9-7.9l-.25-1.25-.2-.95q-.3-2.1.3-2.95.1-.25.35-.35 2.45-1.55 10.05.6 7.6 2.15 10.55 3.6v.05-.05q-.05-2.85 1.3-5.3l.6-1.05.1-.2 1.4-1.7q.8-.85 1.8-1.6l.75-.55q5.2-3.6 12.25-3.75 7.6-.2 13 3.7l1.6 1.15q1.35-2.35 3.2-4.25l2.2-1.9 1.55-1.1.7-.45q2.75-1.6 6.3-2.35l5.45-.7h.85q3.75-.15 6.05.8m1.3.6 1.55 1.75.2.45q.35.15.7.4l1.8 1.25.7.7q6.45-2.5 12.35-1.4l.2.05-.5.15-.8.25-.25.05q-4.5 1.15-8.95 3.7l-1.15-1.8-.05-.1-.85-.9m5.25 41.25-3.2 4.65-4.85 5.85-1.25 1.25q-7.05 6.9-15.4 9.8l-1.9.7-.3.1-.1.05-.25.05h-.2l-.2.05-.2.1-.15.05-.2.05-.25.05q-4.4 1-9 1.05l-7.1-.45m78.75-39.35.8-1.65.1-.05.15-.6v.25m0 .05-.05.35.1-1m-74.1-16.15.35-.6.65-1.05m-25.2 12.5 3 .9q4.05 1 7.45.9m1.05-.15q-.05-.45.05-1v-.9l2.3-5.9.4-.55q.5-.7 1.8-.7h.15l4.7-.45 2.1-1.1.45-.25.05-.2.7-1.45m-8.7 11.95 5.9.2m.9 3.1q3.95 3.65 7.65 5.55l1.1.45q3.65 1.55 7.6 1.15 6.8-.75 11.15-3.35l.2-.1m-23.4-4.9-.3-.2-.1-.05-.25-.25q-2.05-1.75-2.8-5.3l-.2-.1-.15-.9-.1-.7q-.2-2.5.75-4.9m-.2 5.6q.75-1.65 1.85-3.25 1.5-2.35 3.4-4.55l2.8-2.8.1-.1 2.05-1.8q2.7-2.2 7.05-4.1 4.3-1.85 7.55-1.65l3.6.95.9.35q1.05.4 2 .9v.1l.7.3m-24.55 20.05 12.95.65q10-.7 16.8-7.4l.4-2.2q.3-2-.2-4.05l-.4-1.3-.1-.25-.35-.75m1.8 9.5q.3-.85.1-1.25l-.2-.5-.65-1.4m-.9 5.45 1.65-2.3m-2 2.7-1.25 1.4-1.4 1.65q-.5 2.3-5.15 6.05l-1.8 1.3m6.95-7.35q-5.15 4.15-11.7 5.9-7.7 2.05-12.55-.1-3.5-1.55-5.5-2.9l-.6-.45m-3.65-5.9.3-.9m-.1 1 .45.35.4.4.4.2q1.45.85 3.25 1.5l.65.15.1.1 2.3.7m-16.6.65 1.25-.35q-1.1-3.85 1.3-6.05m-2.95 6.5.4-.1m-.4.1-1.85.25h-.35v-.15m4-.55h-.15m-15.35-1.1-.5-.1-2.9-1.05-1.9-.85m-2.3-1.15 2.3 1.15m23.3 49.2-6.6-1.4"/><path fill-rule="evenodd" fill="url(#n)" d="m140.6 109.85.55 1.5q.55 2.35-.3 4.35-.85 2.05-2.6 2.55-1.8.45-2.9-.95-1.05-1.4-2.05-3.7-1.05-2.35-.4-4.3.65-2 2.45-2.5 1.8-.45 3.5.9.95.7 1.5 1.8l-.1-.2q-.55-.75-1.4-.75-.85 0-1.4.75-.55.65-.3 1.45l.8 1.85q.55 1 1.1 1t1.15-.7q.55-.8.6-1.8l-.2-1.25" transform="translate(2.1 2.05)"/><path fill-rule="evenodd" fill="#a2a6cc" d="m140.6 109.85.2 1.25q-.05 1-.6 1.8-.6.7-1.15.7-.55 0-1.1-1l-.8-1.85q-.25-.8.3-1.45.55-.75 1.4-.75.85 0 1.4.75l.1.2.25.35" transform="translate(2.1 2.05)"/><path fill-rule="evenodd" fill="url(#o)" d="m132.15 81.55 7.15 5.15q-2.95 8.5-12.65 15.4-6 4.25-13.4 6.95l-2.8-6.4q8.4-1.7 14.2-8.3 5.65-6.45 7.5-12.8" transform="translate(2.1 2.05)"/><path fill-rule="evenodd" fill="url(#p)" d="m73.65 92.95 6.6-5.7q1.1 5.3 5.6 10.1t11.7 5l-2.9 6.05q-6.25-1.15-11.15-3.9-7.95-4.6-9.85-11.55" transform="translate(2.1 2.05)"/><path fill-rule="evenodd" fill="#9d630d" d="m144.2.05-.2.1v-.1h.2" transform="translate(2.1 2.05)"/><path fill-rule="evenodd" fill="url(#q)" d="M142.45 1.3q9.55 2.65 8.6 5.4-.95 2.75-2.55 15.75l-2.6 14.95-1.1 4.55-.15.85-.05.35-.05.6q-11.85 8.05-13.8-8.05-1.95-16.1 3.65-24.3l6-8.95v-.1.1-.05.8l2.05-1.9m-48.8 45.85q-7.2 5.3-16.6 2.05-10.2-5.4-22.4-.35 9-5.75 15.85-5.6 8.1.15 10.65 1.8 2.45 1.65 7.85 2.3l4.65-.2m-45.45 4.8q-11 5.45-15.35 6.6-9.1 2.45-13.3-2.05-5.15-5.6-.2-12.5t8.25-10.05l4.9-5.2L23 34.7q8.15-7.95 17.9-14.9l1.8-1.3-.65.45q8-2 11.35-1.05 3.3.95 3.25 5.55v6.1q-.8.45-1.65 1-1.3.7-2.9 1.55-11.65 6.4-17.85 12.75-6.25 6.35-4.4 8.5 1.75 2.1 4.45 2.85l13.9-4.25M5.85 44.2l-1.25 3q-2.8 7.4-2.45 14.15.25 6.75 6.5 9.5t9.6 3q3.35.3 3.6.65-9.35.05-17.75-5-4.45-2.75-3.95-8 .85-9.4 5.7-17.3m65.55 64.1q.3-.5.8 1.25-3.05 1.55-2.85 3.2-.3-1.8 1.25-3.45l1.05-.9-.25-.1m29.6 16.15q-7.55-1.5-14.25-5.45-10.2-8.2-1.8-9.3-4.8-5.85-5.55-11.3-2.9-9.85-2.55-18.85 3.55 18.85 13.3 32.55l1.05 1.45q2.2 3 4.75 5.7l4.05 4.05.65.55.35.6" transform="translate(2.1 2.05)"/><path fill-rule="evenodd" fill="url(#r)" d="M144 .15q-.75.45-1.55 1.15l-2.05 1.9v-.8L144 .05v.1m-50.35 47q5-.2 12.7-2.15 7.6-2.05 8.6-3.9.95-1.9 5.9-14.2 4.95-12.4 19.55-24.45l-6 8.95q-5.6 8.2-3.65 24.3 1.95 16.1 13.8 8.05-.4 3.2-1.8 6.25l-.2.4-.25.6 1.2-2.3q-1.4 7-4.7 12-11.95 11.9-31.4 10-24.3-2.35-25.1-1.45-.9.9-4.55 2.25l-.25.2-1.65 1.9 1 5.95q-.35 9 2.55 18.85.75 5.45 5.55 11.3-8.4 1.1 1.8 9.3 6.7 3.95 14.25 5.45l.5 1q0 .25-3.25.7h-.2l-.95.1-2-.1h-.25q-3.35-.45-8.45-2.05-8.15-2.65-10.4-3.95-4.25-3.1-5.85-5.45l-.1-.25q-.45-.7-.65-1.4l-.05-.3q-.2-1.65 2.85-3.2-.5-1.75-.8-1.25-2.55-1.25-9.95-7.2-7.4-5.9-7.2-14.85l.15-9.7Q42.3 71 29.45 73.6l-7.6.9q-.25-.35-3.6-.65-3.35-.25-9.6-3t-6.5-9.5Q1.8 54.6 4.6 47.2l1.25-3q1.85-2.95 4.2-5.7 7.35-8.4 17.35-13.85 9.7-5.35 18.2-8.85h1.05l-.25.2h-.05l-3.65 2.5-1.8 1.3Q31.15 26.75 23 34.7l9.5-5.95-4.9 5.2Q24.3 37.1 19.35 44t.2 12.5q4.2 4.5 13.3 2.05 4.35-1.15 15.35-6.6l3.5-1 2.95-2.1-2.95 2.1-3.5 1q1.65-.85 3.6-1.75 1.45-.75 2.85-1.35 12.2-5.05 22.4.35 9.4 3.25 16.6-2.05M142.3 51l-.6 1.05V52l.6-1-.6 1v.05l.6-1.05M49.2 15.8q-.3.45-.1 0h.1" transform="translate(2.1 2.05)"/><path fill-rule="evenodd" fill="#f5ca89" d="m144 .15.2-.1q1.15-.2 5.9 1.15 4.7 1.35 6 2.7.8.85 1.2 1.85l-.6 2.1q-.7 2.65-3.4 9.25l-2.3 5.65-2.85 7.55-1.1 3.45q-.65 1.85-1.15 3.65l2.6-14.95q1.6-13 2.55-15.75.95-2.75-8.6-5.4.8-.7 1.55-1.15M42.7 18.5l3.65-2.5h.05l.25-.2h2.45q-.2.45.1 0l7.2-.05q2.95 4.5 2.55 12.35l-2.3 1.45v-6.1q.05-4.6-3.25-5.55-3.35-.95-11.35 1.05l.65-.45" transform="translate(2.1 2.05)"/><path stroke-width=".05" stroke-opacity=".851" stroke-linejoin="round" stroke-linecap="round" stroke="#8c522e" fill="none" d="M148 39.45q.5-1.8 1.15-3.65l1.1-3.45 2.85-7.55 2.3-5.65q2.7-6.6 3.4-9.25l.6-2.1q-.4-1-1.2-1.85-1.3-1.35-6-2.7-4.75-1.35-5.9-1.15h-.2m-3.6 2.4v-.05l3.6-2.35m-3.6 2.4q-14.6 12.05-19.55 24.45-4.95 12.3-5.9 14.2-1 1.85-8.6 3.9-7.7 1.95-12.7 2.15m-39 1.7L53.8 53l-3.5 1m-1.55-36.15H47.7q-8.5 3.5-18.2 8.85-10 5.45-17.35 13.85-2.35 2.75-4.2 5.7m16 30.3 7.6-.9q12.85-2.6 24.95 2.95l-.15 9.7q-.2 8.95 7.2 14.85 7.4 5.95 9.95 7.2l.25.1-1.05.9q-1.55 1.65-1.25 3.45l.05.3q.2.7.65 1.4l.1.25q1.6 2.35 5.85 5.45m.85-40.6-1-5.95 1.65-1.9.25-.2q3.65-1.35 4.55-2.25.8-.9 25.1 1.45 19.45 1.9 31.4-10 3.3-5 4.7-12l-1.2 2.3-.6 1v.05l.6-1.05.25-.6.2-.4q1.4-3.05 1.8-6.25l.05-.6.05-.35.15-.85 1.1-4.55M58.75 31.6l2.3-1.45q.4-7.85-2.55-12.35l-7.2.05h-2.55m10 13.75q-.8.45-1.65 1-1.3.7-2.9 1.55-11.65 6.4-17.85 12.75-6.25 6.35-4.4 8.5 1.75 2.1 4.45 2.85L50.3 54m6.45-3.1q9-5.75 15.85-5.6 8.1.15 10.65 1.8 2.45 1.65 7.85 2.3l4.65-.2m-16.8 32.4q3.55 18.85 13.3 32.55l1.05 1.45q2.2 3 4.75 5.7l4.05 4.05.65.55m-78.8-49.35q-9.35.05-17.75-5-4.45-2.75-3.95-8 .85-9.4 5.7-17.3"/><path fill-rule="evenodd" fill="#5b1c1c" d="m211.7 147.9.25.25v-.4l.05.45-.3-.3m15.3 30.6.05 1.45q-12.05-13.05-24.5-25.9-2.9-3.2-6.2-6.1-2.55 5.8-8.9 8.4-2.7.85-5.2 2-5.3-2.25-10.6-4l-3.25-.75 3.45-6.4 7.2 2.55q9.25-2.7 9.9-11.15 8.6 1.15 14.65 5.05 1.35.9 4.9 3.65l3.95 2.8.1.05.6.2q.65.2 0-2.75 3.85 4.6 6.7 9.6 2.8 5 4.6 11.75l2.55 9.85v-.3" transform="translate(2.1 2.05)"/><path fill-rule="evenodd" fill="url(#s)" d="m188.95 138.6.05-1.35q-.05-.65.25-1.25 12.9 1.7 22.45 11.9l.3.3-.05-.45-.05-3.05q13.95 10.1 14.85 27.45l.25 6.35v.3l-2.55-9.85q-1.8-6.75-4.6-11.75-2.85-5-6.7-9.6.65 2.95 0 2.75l-.6-.2-.1-.05-3.95-2.8q-3.55-2.75-4.9-3.65-6.05-3.9-14.65-5.05" transform="translate(2.1 2.05)"/><path stroke-width=".05" stroke-linejoin="round" stroke-linecap="round" stroke="#600" fill="none" d="m191.05 140.65.05-1.35q-.05-.65.25-1.25 12.9 1.7 22.45 11.9l.25.25v-.4l-.05-3.05q13.95 10.1 14.85 27.45l.25 6.35.05 1.45q-12.05-13.05-24.5-25.9-2.9-3.2-6.2-6.1-2.55 5.8-8.9 8.4-2.7.85-5.2 2-5.3-2.25-10.6-4l-3.25-.75 3.45-6.4 7.2 2.55q9.25-2.7 9.9-11.15z"/><path fill-rule="evenodd" fill="#c68d39" d="M204.8 200.9q-.95-1.65-1.85-4.1-2.6-9.05-3.55-11.4-6.05-13.85-7.25-20.15l-.55-5q-.5-2.75.3-3.75 5.3 3.45 8.9 11.15 5.15 10.75 4.85 21.35l-.1 2.35-.5 7.2-.25 2.35.25-2.35-.25 2.45v-.1m-17-39.65q-.4.85-1.75.9-3.05.2-11.7-10.25l-6.7-8.35.4-1.3q11 6.7 18 16.7l1.75 2.3m-22.75 10.45 3.9-8.1q1.8-2.45 2.85-3l-.55 1.05-.1.25-1.55 3q-2.05 3.5-4.55 6.8" transform="translate(2.1 2.05)"/><path fill-rule="evenodd" fill="#5b1c1c" d="M165.75 148.3q2.75-.35-7.9 20.55-.65 3.65 7.2 2.85l-.55.65-2.75 2.95-8.9.8q-4.55-.5-8.3-1.65l-4 .4q0-.85-.6-3.45.8-2.05 1.55-3.3l1.55-2.7 2.95.9 8.4-2.55q3.95-3.25 7.9-9.3l2.3-3.75 1.15-2.4m6.25 11.85-.05-.1h.05l.3-.65.65-1.35q1.1.45 4 4.15 4.7 6.1 8.3 11.75 3.5 5.65 5.3 9.25l-.85-1.25.85 1.25v.1l-.85-1.35-14.05-18.75-3.35-3.8-.3.75" transform="translate(2.1 2.05)"/><path fill-rule="evenodd" fill="url(#t)" d="M191.9 156.5q-.8 1-.3 3.75l.55 5q1.2 6.3 7.25 20.15.95 2.35 3.55 11.4.9 2.45 1.85 4.1l-1 5.7q-3.9-8.4-8.75-16.5l-4.5-6.9q-1.8-3.6-5.3-9.25-3.6-5.65-8.3-11.75-2.9-3.7-4-4.15l-.65 1.35-.3.65h-.05l.05.1-.2.45q-1.05.55-2.85 3l-3.9 8.1q-7.85.8-7.2-2.85 10.65-20.9 7.9-20.55l.75-1.55 1.15-3.2 6.7 8.35q8.65 10.45 11.7 10.25 1.35-.05 1.75-.9l.7 1.2q.35-1.7 1-3.1.55-1.45 1.25-2.7l.75-.45.4.3" transform="translate(2.1 2.05)"/><path stroke-width=".05" stroke-opacity=".851" stroke-linejoin="round" stroke-linecap="round" stroke="#26140d" fill="none" d="m194 158.55-.4-.3-.75.45q-.7 1.25-1.25 2.7-.65 1.4-1 3.1l-.7-1.2m-20.15-17.7-1.15 3.2-.75 1.55m6.05 12.3.2-.45m18.55 23.05 4.5 6.9q4.85 8.1 8.75 16.5l1-5.7.25-2.35.5-7.2.1-2.35q.3-10.6-4.85-21.35-3.6-7.7-8.9-11.15m-24.25-12.95.4-1.3q11 6.7 18 16.7l1.75 2.3m2.75 21.95-.85-1.25-14.05-18.75-3.35-3.8-.3.75m-6.95 11.55-.55.65-2.75 2.95-8.9.8q-4.55-.5-8.3-1.65l-4 .4q0-.85-.6-3.45.8-2.05 1.55-3.3l1.55-2.7 2.95.9 8.4-2.55q3.95-3.25 7.9-9.3l2.3-3.75 1.15-2.4m6.05 12.3-.55 1.05-.1.25-1.55 3q-2.05 3.5-4.55 6.8"/><path fill-rule="evenodd" fill="url(#u)" d="m98.45 156.75 3.75 2.1 4-3.9q2.3 2.3 3.35 5.15 1.1 3.05 1.35 4.8l-3.8.85q-1.95.25-7.4-2.4-1.2.7-2 1.9l-2.65-1.15q.4-4.25 3.4-7.35m.95 1.95q-2.6.1-2.3 2.35.25 1.6 1.85 1.55 3.25-.2 3-1.95-.3-2.1-2.55-1.95" transform="translate(2.1 2.05)"/><path fill-rule="evenodd" fill="#7e0101" d="M99.4 158.7q2.25-.15 2.55 1.95.25 1.75-3 1.95-1.6.05-1.85-1.55-.3-2.25 2.3-2.35" transform="translate(2.1 2.05)"/><path fill-rule="evenodd" fill="#4d1600" d="m86.65 156.7.6-2.45 2.95 2.25q1.3.9 3.1 1.85l1.6-3.7 3.55 2.1q-3 3.1-3.4 7.35l-2.25-1.2q-1 1.2-2.4.6l-3.75-6.8" transform="translate(2.1 2.05)"/><path stroke-width=".05" stroke-opacity=".302" stroke-linejoin="round" stroke-linecap="round" stroke="#000" fill="none" d="m81.05 156.05 4.55 3.35 2.95.5.2-1.15.6-2.45 2.95 2.25q1.3.9 3.1 1.85l1.6-3.7 3.55 2.1 3.75 2.1 4-3.9q2.3 2.3 3.35 5.15 1.1 3.05 1.35 4.8l-3.8.85q-1.95.25-7.4-2.4-1.2.7-2 1.9l-2.65-1.15-2.25-1.2q-1 1.2-2.4.6l-3.75-6.8m8.4 7.4q.4-4.25 3.4-7.35"/><path fill-rule="evenodd" fill="#5b1c1c" d="m82.45 162.75.1.3h-.05l-.05-.3" transform="translate(2.1 2.05)"/><path fill-rule="evenodd" fill="url(#v)" d="M82.5 163.05q0 .65-.75.85l-3.05.65.4-.1-4.95 1.3q.3 1.45 1.25 3.1l.15.3.8 1.3q1.85 2.8 5.3 5.95l-2.35.15-5.1-1.4q-1.4-.35-4.5-2.05l-1.75-.9.6.7.75 1q.35.8 1.05 1.4l1.4 1.3.6.5 4.55 3.75-3.85-.05h.6q-6.95-4.25-11.15-9.1-4-4.6 2.6-6.2-.45-.95.05-1.1 4.25-1.4 8.05-1.9l-.45-.4 1.9.25 4.1.45 3.75.25m-15 8.65.45.5-.45-.5m3.75-7.4q2.25 2.05 4.15 4.55-1.9-2.5-4.15-4.55" transform="translate(2.1 2.05)"/><path fill-rule="evenodd" fill="url(#w)" d="m78.45 160.35-.05.15-2.15.15-.05 1.65-3.45-.2.45.4q-3.8.5-8.05 1.9-.5.15-.05 1.1-6.6 1.6-2.6 6.2 4.2 4.85 11.15 9.1h-.6l-7.5-1.55-.25-.1q-4.9-1.9-8.1-5.75l-.1-.1-.1-.1-.25-.25-.4-.5-.05-.2-.2-.25-.6-.95q-3-5.7 8.35-9.5l14.6-1.2M69.3 173.9l-.75-1-.6-.7 1.75.9q3.1 1.7 4.5 2.05l5.1 1.4q-5.05.05-8.5-1.5l-.9-.5-.6-.65" transform="translate(2.1 2.05)"/><path fill-rule="evenodd" fill="url(#x)" d="M78.45 160.35q.15-.4-.15-.65 2.35-1.25 6.1-1.85l.15-1.05 1.05 1.95 1.05 2.1-.2.1q-.95 2.4-3.6 3.05l-1.1-.1q.75-.2.75-.85h.05l-.1-.3v-.2l-.05-.05q-.4-1.15-3.6-1.9l-.4-.1.05-.15" transform="translate(2.1 2.05)"/><path fill-rule="evenodd" fill="url(#y)" d="m78.4 160.5.4.1q3.2.75 3.6 1.9l.05.05v.2l.05.3-3.75-.25-4.1-.45-1.9-.25 3.45.2.05-1.65 2.15-.15" transform="translate(2.1 2.05)"/><path stroke-width=".05" stroke-opacity=".302" stroke-linejoin="round" stroke-linecap="round" stroke="#000" fill="none" d="m86.65 158.85-.15 1.05q-3.75.6-6.1 1.85.3.25.15.65l-.05.15.4.1q3.2.75 3.6 1.9l.05.05v.2l.05.3q0 .65-.75.85l1.1.1q2.65-.65 3.6-3.05l.2-.1m-13.6 19.95 3.85.05-4.55-3.75-.6-.5-1.4-1.3q-.7-.6-1.05-1.4l-.75-1-.6-.7-.45-.5m10.95-11.35-14.6 1.2q-11.35 3.8-8.35 9.5l.6.95.2.25.05.2.4.5.25.25.1.1.1.1q3.2 3.85 8.1 5.75l.25.1 7.5 1.55M72 176.6l.45.75m-1.05-1.4.6.65.9.5q3.45 1.55 8.5 1.5l2.35-.15q-3.45-3.15-5.3-5.95l-.8-1.3-.15-.3q-1.9-2.5-4.15-4.55m4.15 4.55q-.95-1.65-1.25-3.1l4.95-1.3m-.4.1 3.05-.65"/><path fill-rule="evenodd" fill="#db9b3e" d="M111.9 165.55h.05-.05M101.15 176l.05.05h-.15l.1-.05" transform="translate(2.1 2.05)"/><path fill-rule="evenodd" fill="url(#z)" d="m118.95 178.85-.45.5-2.3 1.85q-1.95 1.2-4.7 1.95l-2.65.6-6.2.55q-11.25.15-15.25-1.7 8.75-3.7 13.4-6.35l.4-.2-.05-.05-.1.05q-4.85 1-10.2-.65 3.2-1.05 10.95-5.05l6.75-2.3q-1.45 1.3-1.25 2.3.15 1.05 2.7 1.2-3.6 3.05-1.8 6.4 1.75 3.3 6.65 2.3 2.75-.55 4.1-1.4m-11.95-5.3q-3 .65-5.05 1.85l-.35.3q-.3.1-.45.3.15-.2.45-.3l.35-.3q2.05-1.2 5.05-1.85" transform="translate(2.1 2.05)"/><path fill-rule="evenodd" fill="url(#A)" d="M111.95 165.55q1.75-1.05 3.05-1.65l1.35-1.9.25-.2 4 1.1-.45 1.65-2.5 2.2-.7-.85q-.75-.75-2.25-.9-1.5-.15-2.75.55" transform="translate(2.1 2.05)"/><path fill-rule="evenodd" fill="url(#B)" d="m117.65 166.75-1 .9q6.85 1.85 6.25 5.05.05 1.3-2.1 4l-.45.55-1.4 1.6q-1.35.85-4.1 1.4-4.9 1-6.65-2.3-1.8-3.35 1.8-6.4-2.55-.15-2.7-1.2-.2-1 1.25-2.3l-6.75 2.3q-7.75 4-10.95 5.05l-1.15-.35q6.85-3.85 17.65-6.7 1.65-1.1 3.1-1.95l.4-.2.85-.5.2-.15h.05q1.25-.7 2.75-.55 1.5.15 2.25.9l.7.85" transform="translate(2.1 2.05)"/><path stroke-width=".05" stroke-opacity=".302" stroke-linejoin="round" stroke-linecap="round" stroke="#000" fill="none" d="M114.05 167.6q1.75-1.05 3.05-1.65l1.35-1.9.25-.2m4 1.1-.45 1.65-2.5 2.2-1 .9q6.85 1.85 6.25 5.05.05 1.3-2.1 4l-.45.55-1.4 1.6-.45.5-2.3 1.85q-1.95 1.2-4.7 1.95l-2.65.6-6.2.55q-11.25.15-15.25-1.7 8.75-3.7 13.4-6.35.05-.05.25-.2-4.85 1-10.2-.65l-1.15-.35q6.85-3.85 17.65-6.7 1.65-1.1 3.1-1.95l.4-.2.85-.5.2-.15h.05m-10.75 10.5-.4.2m.35-.25-.1.05h.15m-.05-.05q.15-.2.45-.3l.35-.3q2.05-1.2 5.05-1.85"/></g><g id="G" stroke-opacity="0" stroke-linejoin="round" stroke-linecap="round" stroke="#f0f" fill="none"><path d="M200.7-15.4v220h-220v-220h220" transform="translate(19.8 15.9)"/><path d="m200.7-15.4-110 110 110 110m-220-220 110 110-109.95 110m164.95-72.35H35.75" transform="translate(19.8 15.9)"/><path d="M149 159.2H30.85V23H149v136.2z" transform="translate(19.8 15.9)"/></g><path fill-rule="evenodd" fill="url(#C)" d="M186.75 39.15q-37.1 7.3-85.3 7.55-44.4.15-73.65-5.95Q0 34.95 0 26.3q0-8.65 28-15.9Q57.75 2.65 102.75.65q48.85-2.25 85.8 3.4 39.15 5.95 38.5 16.6-.65 10.6-40.3 18.5" id="D"/><path fill-rule="evenodd" fill-opacity="0" fill="#f0f" d="M100 40H0V0h100v40" id="E"/><use xlink:href="#D" width="227.05" height="46.7" id="a"/><use xlink:href="#E" width="100" height="40" id="H"/></defs><path fill="none" d="M-1-1h263v241H-1z"/><g stroke="null"><use x="-29.543" y="25.718" xlink:href="#F" width="233.45" transform="matrix(-1.11595 0 0 1.11595 226.65 -27.606)" height="212.4"/><use x="17.69" y="14.863" xlink:href="#G" width="221" transform="translate(-115.9 -126.632) scale(1.86364)" height="221"/><use x="-36.493" y="-43.614" xlink:href="#H" width="100" transform="translate(104.457 203.323) scale(2.24699)" height="40"/></g></svg>