<svg width="232" height="250" xmlns="http://www.w3.org/2000/svg" xmlns:xlink="http://www.w3.org/1999/xlink"><defs><linearGradient y2=".884" y1=".472" x2=".852" x1=".364" spreadMethod="pad" id="a"><stop stop-color="#cbccae" offset="0"/><stop stop-color="#ccbda9" offset="1"/></linearGradient><linearGradient y2=".327" y1=".841" x2=".178" x1=".775" spreadMethod="pad" id="b"><stop stop-color="#728760" offset="0"/><stop stop-color="#8c9074" offset="1"/></linearGradient><linearGradient y2=".738" y1=".412" x2=".853" x1=".37" spreadMethod="pad" id="c"><stop stop-color="#576b38" offset="0"/><stop stop-color="#3d4626" offset="1"/></linearGradient><linearGradient y2="1.026" y1=".644" x2=".817" x1=".599" spreadMethod="pad" id="g"><stop stop-color="#f54569" offset="0"/><stop stop-color="#5c0126" offset="1"/></linearGradient><linearGradient y2=".444" y1=".875" x2=".409" x1=".883" spreadMethod="pad" id="h"><stop stop-color="#f86883" offset="0"/><stop stop-color="#ffb7d3" offset="1"/></linearGradient><linearGradient y2=".421" y1="1.175" x2=".253" x1=".744" spreadMethod="pad" id="i"><stop stop-color="#b3c9a2" offset="0"/><stop stop-color="#fffdd6" offset="1"/></linearGradient><linearGradient y2=".297" y1=".805" x2=".136" x1=".81" spreadMethod="pad" id="j"><stop stop-color="#95b178" offset="0"/><stop stop-color="#fef4a3" offset="1"/></linearGradient><g id="q" stroke-opacity="0" stroke-linejoin="round" stroke-linecap="round" stroke="#f0f" fill="none"><path d="M187.95-293.5v380h-380v-380h380M92.95.6H-97" transform="translate(192.55 294)"/><path d="m187.95-293.5-190 190 190 190m-380-380 190 190L-192 86.5" transform="translate(192.55 294)"/></g><g id="s"><path fill-rule="evenodd" fill="#795200" d="M2.45-.05 2.4.3q-.85 1.8-2.05 3L.3 3.25Q-1.85 1.95-2.75 0q2.8-4.85 5.2-.05" transform="translate(3.25 2.45)"/><path stroke-linejoin="round" stroke-linecap="round" stroke="#312c11" fill="none" d="M2.45-.05 2.4.3q-.85 1.8-2.05 3L.3 3.25Q-1.85 1.95-2.75 0" transform="translate(3.25 2.45)"/></g><g id="k"><path fill-rule="evenodd" fill="#960" d="m-.4 3.85-.3-.1Q-3.75 2.7-4.3.3l.75-19.95.2-2.6q1.65 2.9 5.25 2.4Q1.8-1.3-.05 1.9l-.3.45-.05 1.5m.35-1.95Q-1.9.45-2.85.35q.95.1 2.8 1.55" transform="translate(4.8 39.85)"/><path fill-rule="evenodd" fill="#795200" d="m4.6-33.2.1 12.8.2 9.05L5.25.3Q5.5 5.05.55 4.1l-.2-.05-.75-.2.05-1.5.3-.45Q1.8-1.3 1.9-19.85q-3.6.5-5.25-2.4v-.25l1.3-16.85q1.25-.6 3.3.8l.75.6q2.35 1.7 2.6 4.75M1 2.75.45 2.3l-.5-.4.5.4.55.45" transform="translate(4.8 39.85)"/><path stroke-linejoin="round" stroke-linecap="round" stroke="#554d1e" fill="none" d="m-4.3.3.75-19.95.2-2.6v-.25l1.3-16.85" transform="translate(4.8 39.85)"/><path stroke-linejoin="round" stroke-linecap="round" stroke="#312c11" fill="none" d="m4.6-33.2.1 12.8.2 9.05L5.25.3Q5.5 5.05.55 4.1l-.2-.05-.75-.2-.3-.1Q-3.75 2.7-4.3.3" transform="translate(4.8 39.85)"/><path stroke-linejoin="round" stroke-linecap="round" stroke="#312c11" fill="none" d="M-2.85.35q.95.1 2.8 1.55l.5.4.55.45" transform="translate(4.8 39.85)"/><path stroke-opacity=".8" stroke-linejoin="round" stroke-linecap="round" stroke="#000" fill="none" d="M-3.8-15.65q1.5-1.3 1.85.3" transform="translate(4.8 39.85)"/></g><g id="m"><path fill-rule="evenodd" fill="url(#a)" d="M-108.8-58.3q-2.85-1.05-1.9 3.1l-.2-.15.15.2q11 13.4 41.75 40 7.65 10.2 20.95 19.9 10.8 7.9 24.25 15 4.25 5.3 28.55 19.2 24.3 13.9 64.55 11.8 14 5.4 28.25 7.2-3.45-4.8-9.45-7.1Q27.5 28.8-48.05-15.1l-27.5-16.45Q-90-40.9-101-48.4q-2.1-3.55 1.75-2.6Q-73.9-32.15-32-7.65 18.3 21.75 98.05 47.4 90.2 38.7 75.6 30.95 42.65 5.4 9.65-2.45-3.45-13.4-20.2-21.85q-.8-2.65.75-2.9Q-3.3-16.5 10.3-5.7q30.95 7.55 66.05 34.5Q93 36.45 104.9 49.65q5 2.3 12.9 12.35 3.35 1.7 3.35 3.25-4.75 5.3-21.25-3.1L68.05 54q-25.1 1.75-45.7-4.5-32.15-11.1-48-27.95Q-38.1 15.4-48.05 8.5-62.7-1.7-71.85-13.45q-35.1-29.8-47.9-50l-.65-1.05q-1.95-3.65 1.7-2.5 34.1 17.75 70.65 30.25l.55.2 7.45 2.65q1.95 2.6.95 3.7l-5.45-2-3.5-1.05q-31.05-9.5-60.75-25.05m81.7 33.1-8.75-3.7q-.8-2.3.45-3.15l7.7 3.3q1.8 2.05.6 3.55" transform="translate(121.1 67.3)"/><path fill-rule="evenodd" fill="url(#b)" d="m-110.7-55.2 9.7 6.8q11 7.5 25.45 16.85l27.5 16.45Q27.5 28.8 88.1 50.85q6 2.3 9.45 7.1-14.25-1.8-28.25-7.2-40.25 2.1-64.55-11.8-24.3-13.9-28.55-19.2-13.45-7.1-24.25-15-13.3-9.7-20.95-19.9-30.75-26.6-41.75-40l-.15-.2.2.15" transform="translate(121.1 67.3)"/><path fill-rule="evenodd" fill="url(#c)" d="m-99.25-51-9.55-7.3q29.7 15.55 60.75 25.05l3.5 1.05 5.45 2q2.9 7.55 2.8 12.65.8-5.75.45-11.35l8.75 3.7q3.6 9.7 3.1 17.5 2.95-5.45 3.8-14.15Q-3.45-13.4 9.65-2.45q33 7.85 65.95 33.4Q90.2 38.7 98.05 47.4 18.3 21.75-32-7.65-73.9-32.15-99.25-51" transform="translate(121.1 67.3)"/><path fill-rule="evenodd" fill="#576b38" d="M-110.7-55.2q-.95-4.15 1.9-3.1l9.55 7.3q-3.85-.95-1.75 2.6l-9.7-6.8" transform="translate(121.1 67.3)"/><path stroke-width=".05" stroke-opacity=".322" stroke-linejoin="round" stroke-linecap="round" stroke="#282828" fill="none" d="M12.3 9q-2.85-1.05-1.9 3.1l-.2-.15.15.2m9.75 6.75q-2.1-3.55 1.75-2.6M82 37.1q1-1.1-.95-3.7l-7.45-2.65-.55-.2Q36.5 18.05 2.4.3-1.25-.85.7 2.8l.65 1.05q12.8 20.2 47.9 50Q58.4 65.6 73.05 75.8q9.95 6.9 22.4 13.05 15.85 16.85 48 27.95 20.6 6.25 45.7 4.5l31.85 8.15q16.5 8.4 21.25 3.1 0-1.55-3.35-3.25-7.9-10.05-12.9-12.35-11.9-13.2-28.55-20.85-35.1-26.95-66.05-34.5-13.6-10.8-29.75-19.05-1.55.25-.75 2.9M94 42.1q1.2-1.5-.6-3.55l-7.7-3.3q-1.25.85-.45 3.15"/></g><g transform="translate(91.2 59.75)" id="x"><use xlink:href="#d" width="26.2" transform="matrix(-.2225 -1.2974 .9853 -.169 -49.485 46.794)" height="40.85"/><use xlink:href="#d" width="26.2" transform="matrix(.456 -1.2349 .9378 .3463 -61.405 22.362)" height="40.85"/><use xlink:href="#d" width="26.2" transform="matrix(.9549 0 0 -.7622 -45.21 48.7)" height="40.85"/><use xlink:href="#d" width="26.2" transform="matrix(.7643 .4413 -.3993 .6915 -9.768 -55.588)" height="40.85"/><use xlink:href="#d" width="26.2" transform="matrix(1.2719 -.3408 .2588 .9659 -51.692 -45.64)" height="40.85"/><use xlink:href="#d" width="26.2" transform="matrix(1.2719 .3408 -.2588 .9659 -28.432 -59.77)" height="40.85"/><use xlink:href="#d" width="26.2" transform="matrix(1.6797 -.4501 .3438 1.2832 -67.319 -40.93)" height="40.85"/><use xlink:href="#d" width="26.2" transform="matrix(1.2719 .3408 -.2588 .9659 -36.982 -50.02)" height="40.85"/><use xlink:href="#d" width="26.2" transform="matrix(.6911 .8314 1.1815 -.982 -79.055 28.09)" height="40.85"/><use xlink:href="#d" width="26.2" transform="matrix(.456 -1.2349 .9378 .3463 -63.455 4.662)" height="40.85"/><use xlink:href="#d" width="26.2" transform="matrix(1.6797 -.4501 .3438 1.2832 -72.919 -29.13)" height="40.85"/><use xlink:href="#d" width="26.2" transform="matrix(.6915 1.0179 .8267 -.5616 -70.423 -2.428)" height="40.85"/><use xlink:href="#d" width="26.2" transform="matrix(.6915 1.0179 .8267 -.5616 -70.123 7.222)" height="40.85"/><use xlink:href="#d" width="26.2" transform="matrix(.6911 .8314 1.1815 -.982 -85.855 20.59)" height="40.85"/><use xlink:href="#d" width="26.2" transform="matrix(.456 -1.2349 .9378 .3463 -68.805 14.112)" height="40.85"/><use xlink:href="#d" width="26.2" transform="matrix(1.6797 -.4501 .3438 1.2832 -78.269 -19.68)" height="40.85"/><use xlink:href="#d" width="26.2" transform="matrix(.6911 .8314 1.1815 -.982 -91.205 30.04)" height="40.85"/><use xlink:href="#d" width="26.2" transform="matrix(1.6797 -.4501 .3438 1.2832 -68.969 -31.48)" height="40.85"/><use xlink:href="#d" width="26.2" transform="matrix(.8813 -.9759 .7411 .6693 -61.063 -7.669)" height="40.85"/><use xlink:href="#d" width="26.2" transform="matrix(.6911 .8314 1.1815 -.982 -81.905 18.24)" height="40.85"/><use xlink:href="#d" width="26.2" transform="matrix(-.2225 -1.2974 .9853 -.169 -55.585 45.644)" height="40.85"/><use xlink:href="#d" width="26.2" transform="matrix(.9549 0 0 -.7622 -51.71 50)" height="40.85"/><use xlink:href="#d" width="26.2" transform="matrix(1.0142 .3745 .45 -1.2186 -68.767 50.003)" height="40.85"/><use xlink:href="#e" width="130.8" transform="translate(-31.5 -19.55)" height="84.75"/><use xlink:href="#f" width="28.4" transform="translate(-32.55 -21.55)" height="48.05"/><use xlink:href="#f" width="28.4" transform="translate(-30.35 -17.17) scale(.8592)" height="48.05"/></g><g id="n" fill-rule="evenodd"><path fill="url(#g)" d="m12.6 17.6.5 1.8-3.4 1.05Q-1.7.9-13.1-13.45l.85.8 18 23.05-2.6-7.1L6.5 8.05 3.1-.8q5.2 6.95 9.5 18.4" transform="translate(13.1 20.4)"/><path fill="url(#h)" d="M12.6 17.6Q8.3 6.15 3.1-.8l3.4 8.85L3.15 3.3l2.6 7.1-18-23.05q7.1 6.5 15.4 15.95Q-1.5-6.3-10.7-20.4q17.15 16.3 23.3 38" transform="translate(13.1 20.4)"/></g><g id="e"><path fill-rule="evenodd" fill="#51663c" d="M88.15 40.75q3.15 2 3.1 7.25l6.55 6.4q-2 1.35-1.8 2.7l-6.75-1.95-1 1.05 11.05 6.9q-6.35-.7-3.3 2.1l-12.45-6.65Q79.8 55.1 82.3 44.8q2.25-4.8 5.85-4.05m-.95 3q-1.3-.05-2.45 1.65-1.05 1.7-1.3 4.25-.25 2.45.45 4.25.8 1.8 2.1 1.85 1.25.05 2.35-1.65 1.1-1.75 1.35-4.2.25-2.55-.5-4.3-.75-1.8-2-1.85" transform="translate(31.5 19.55)"/><path fill-rule="evenodd" fill="url(#i)" d="M-12.15-15.7q3.9-1.7 8.9.65-5-2.35-8.9-.65M-22.5 28.1l-2.3.25q-6.9-3.8-6.7-17.8 1-13.45 6.4-22.65 5.65-8.75 18.05-7.25 4.75 1.55 3.8 4.3Q28.3-1.4 33.4 13.9q30.1 11.05 54.75 26.85-3.6-.75-5.85 4.05-25.6-18.2-58.45-25.65-2.4-6.8-8-8.8-31.75-11.95-42-4.8-1.4-4.45 0-9.6-3.8 7.4-3.85 17.3 0 9.5 7.5 14.85m55.9-14.2q-2.4-2.55-6.85.35 4.45-2.9 6.85-.35" transform="translate(31.5 19.55)"/><path fill-rule="evenodd" fill="url(#j)" d="M83.55 58.55Q54.75 40.7 25.3 28.85q-1.15 1.8-7.1 2-10.55.3-36.15-4.3l-2.8-.5q-.75 1.5-1.75 2.05-7.5-5.35-7.5-14.85.05-9.9 3.85-17.3-1.4 5.15 0 9.6 10.25-7.15 42 4.8 5.6 2 8 8.8Q56.7 26.6 82.3 44.8q-2.5 10.3 1.25 13.75M-26.85 20.3q2.95 6.1 6.1 5.75-3.15.35-6.1-5.75m52.15 8.55q-1.3.35-2-1.3-.4-.9-.55-2.35.15 1.45.55 2.35.7 1.65 2 1.3" transform="translate(31.5 19.55)"/><path fill-rule="evenodd" fill="#799959" d="M87.2 43.75q1.25.05 2 1.85.75 1.75.5 4.3-.25 2.45-1.35 4.2-1.1 1.7-2.35 1.65-1.3-.05-2.1-1.85-.7-1.8-.45-4.25.25-2.55 1.3-4.25 1.15-1.7 2.45-1.65" transform="translate(31.5 19.55)"/><path stroke-width=".05" stroke-opacity=".302" stroke-linejoin="round" stroke-linecap="round" stroke="#500f03" fill="none" d="M28.25 4.5q-5-2.35-8.9-.65M9 47.65l-2.3.25Q-.2 44.1 0 30.1 1 16.65 6.4 7.45 12.05-1.3 24.45.2q4.75 1.55 3.8 4.3Q59.8 18.15 64.9 33.45 95 44.5 119.65 60.3m-4.6 17.8Q86.25 60.25 56.8 48.4q-1.15 1.8-7.1 2-10.55.3-36.15-4.3l-2.8-.5Q10 47.1 9 47.65M58.05 33.8q4.45-2.9 6.85-.35m-10.65 11.3q.15 1.45.55 2.35.7 1.65 2 1.3m-46.05-2.8q-3.15.35-6.1-5.75m118.1 27.7 6.55 6.4q-2 1.35-1.8 2.7l-6.75-1.95m-1 1.05 11.05 6.9q-6.35-.7-3.3 2.1l-12.45-6.65"/></g><use xlink:href="#k" width="10.55" height="44.6" id="u"/><use xlink:href="#l" width="6.8" height="3.7" id="v"/><use xlink:href="#m" width="242.25" height="134.6" id="w"/><use xlink:href="#n" width="26.2" height="40.85" id="d"/><use xlink:href="#o" width="28.4" height="48.05" id="f"/><use xlink:href="#p" width="102.95" height="45" id="y"/><path fill-rule="evenodd" d="M4.5-2.3 3.75.55l-8.25 1.8L.35-1.9l4.15-.4" transform="translate(4.5 2.3)" id="r"/><path fill-rule="evenodd" fill="#554d1e" d="M9.2-4.65 7.9-8.4l1.45-.4 1.8 3.3 1.5-.25L14.5-8.7l1 .65-.95 2.95 4.15 2.15-.5 1.65-3.05-.7Q6.85 2.55-1.3 3.25l.8-7.05q4.05 2 8.9 1.6l.8-2.45" transform="translate(1.3 8.8)" id="t"/><path stroke-opacity=".8" stroke-linejoin="round" stroke-linecap="round" stroke="#000" fill="none" d="M0 .6Q1.5-.7 1.85.9M5.8 2.7q-1.45-2-2.85-.8" transform="translate(.5 .5)" id="l"/><path fill-rule="evenodd" fill="#e6668d" d="M14.05-19.5q-5-2.35-8.9-.65-8.1-.5-14 11.65-3.8 7.4-3.85 17.3 0 9.5 7.5 14.85l-2.3.25q-6.9-3.8-6.7-17.8 1-13.45 6.4-22.65 5.65-8.75 18.05-7.25 4.75 1.55 3.8 4.3" transform="translate(14.2 24)" id="o"/><path fill-rule="evenodd" fill-opacity="0" fill="#f0f" d="M0 0h102.95v45H0V0" id="p"/></defs><path fill="none" d="M-1-1h234v252H-1z"/><use x="132.05" y="248.5" xlink:href="#q" width="381" transform="translate(-192.55 -294)" height="381"/><use xlink:href="#r" width="9" transform="matrix(-2.2996 -.9047 -4.8277 2.0917 128.402 238.81)" height="4.65"/><use x="-.446" y=".158" xlink:href="#r" width="9" transform="matrix(-2.2849 1.1202 -.1261 3.1728 140.672 213.912)" height="4.65"/><use x="21.633" y="78.769" xlink:href="#s" width="6.2" transform="scale(-3.445 3.445) rotate(43.343 18.736 -4.76)" height="6.25"/><use x="-77.036" y="-167.824" xlink:href="#t" width="20" transform="scale(1.524 -1.524) rotate(52.642 -42.88 19.939)" height="12.05"/><use x="-38.269" y="72.016" xlink:href="#u" width="10.55" transform="matrix(-3.4506 0 0 3.4506 -.237 -173.657)" height="44.6"/><use x="-30.914" y="-181.667" xlink:href="#t" width="20" transform="rotate(161.672 -8.707 -29.782) scale(1.527)" height="12.05"/><use x="-38.269" y="72.016" xlink:href="#v" width="6.8" transform="matrix(-3.4506 0 0 3.4506 -3.125 -94.975)" height="3.7"/><use x="-327.315" y="-17.729" xlink:href="#w" width="242.25" transform="matrix(.1982 .1147 -.2749 .4206 130.204 56.15)" height="134.6"/><use x="1291.861" y="33.516" xlink:href="#w" width="242.25" transform="matrix(.1146 .1865 -.4773 .2258 -12.759 -226.029)" height="134.6"/><use x="696.584" y="355.681" xlink:href="#x" width="190.5" transform="matrix(.3692 .2585 -.3518 .1924 -77.45 -242.626)" height="124.95"/><use xlink:href="#w" width="242.25" transform="matrix(.0006 .2763 -.605 -.1326 153.945 40.21)" height="134.6"/><use x="716.064" y="-446.695" xlink:href="#w" width="242.25" transform="matrix(-.1139 .1743 -.4782 -.2769 32.225 -168.77)" height="134.6"/><use x="-7.123" y="521.456" xlink:href="#x" width="190.5" transform="matrix(.305 -.4356 .2574 .4706 -134.047 -143.693)" height="124.95"/><use x="-135.904" y="-74.825" xlink:href="#w" width="242.25" transform="matrix(.5592 0 -.2138 .6014 62.716 67.573)" height="134.6"/><use xlink:href="#w" width="242.25" transform="matrix(-.2443 .072 .1997 .5702 158.542 24.802)" height="134.6"/><use x="406.523" y="430.276" xlink:href="#w" width="242.25" transform="matrix(-.1702 .1805 .4677 .407 -30.111 -225.298)" height="134.6"/><use x="187.033" y="647.529" xlink:href="#x" width="190.5" transform="matrix(-.4659 .1858 .3385 .3301 40.17 -222.87)" height="124.95"/><use x="140.713" y="432.664" xlink:href="#x" width="190.5" transform="matrix(-.4443 .4174 .4497 .4386 22.196 -268.124)" height="124.95"/><use x="752.217" y="263.084" xlink:href="#w" width="242.25" transform="matrix(-.067 .3192 .6935 .0319 -72.31 -215.597)" height="134.6"/><use x="1.131" y="1.538" xlink:href="#w" width="242.25" transform="matrix(.0827 .2363 .5895 -.1738 37.862 75.536)" height="134.6"/><use xlink:href="#w" width="242.25" transform="matrix(-.6115 -.171 .0891 .7605 229.11 58.729)" height="134.6"/><use x="451.188" y="-92.717" xlink:href="#x" width="190.5" transform="matrix(.1718 .5871 -.5882 .1768 -7.825 -236.853)" height="124.95"/><use x="-1062.18" y="-325.546" xlink:href="#w" width="242.25" transform="matrix(-.2136 -.0907 .2913 -.4674 -33.64 -83.854)" height="134.6"/><use x="71.231" y="-412.1" xlink:href="#w" width="242.25" transform="matrix(-.2428 .228 -.3624 -.5636 59.749 -139.825)" height="134.6"/><use x="-118.248" y="-373.974" xlink:href="#w" width="242.25" transform="matrix(.5737 -.1701 -.5345 -.6107 -94.054 -53.603)" height="134.6"/><use x="-385.909" y="-310.36" xlink:href="#w" width="242.25" transform="matrix(-.3651 -.0102 .0285 -.788 30.088 -67.736)" height="134.6"/><use x="-38.269" y="72.016" xlink:href="#s" width="6.2" transform="matrix(-3.4506 0 0 3.4506 -13.736 -34.454)" height="6.25"/><use x="-33.201" y="-27.21" xlink:href="#y" width="102.95" transform="matrix(1.8072 0 0 1.6538 81 145.3)" height="45"/></svg>