<svg width="212" height="258" xmlns="http://www.w3.org/2000/svg" xmlns:xlink="http://www.w3.org/1999/xlink"><defs><g id="d" stroke-opacity="0" stroke-linejoin="round" stroke-linecap="round" stroke="#f0f" fill="none"><path d="M187.95-293.5v380h-380v-380h380M92.95.6H-97" transform="translate(192.55 294)"/><path d="m187.95-293.5-190 190 190 190m-380-380 190 190L-192 86.5" transform="translate(192.55 294)"/></g><g id="f"><path fill-rule="evenodd" fill="#795200" d="M2.45-.05 2.4.3q-.85 1.8-2.05 3L.3 3.25Q-1.85 1.95-2.75 0q2.8-4.85 5.2-.05" transform="translate(3.25 2.45)"/><path stroke-linejoin="round" stroke-linecap="round" stroke="#312c11" fill="none" d="M2.45-.05 2.4.3q-.85 1.8-2.05 3L.3 3.25Q-1.85 1.95-2.75 0" transform="translate(3.25 2.45)"/></g><g id="a"><path fill-rule="evenodd" fill="#960" d="m-.4 3.85-.3-.1Q-3.75 2.7-4.3.3l.75-19.95.2-2.6q1.65 2.9 5.25 2.4Q1.8-1.3-.05 1.9l-.3.45-.05 1.5m.35-1.95Q-1.9.45-2.85.35q.95.1 2.8 1.55" transform="translate(4.8 39.85)"/><path fill-rule="evenodd" fill="#795200" d="M-2.05-39.35q1.25-.6 3.3.8l.75.6q2.35 1.7 2.6 4.75l.1 12.8.2 9.05L5.25.3Q5.5 5.05.55 4.1l-.2-.05-.75-.2.05-1.5.3-.45.5.4.55.45-.55-.45-.5-.4Q1.8-1.3 1.9-19.85q-3.6.5-5.25-2.4v-.25l1.3-16.85" transform="translate(4.8 39.85)"/><path stroke-linejoin="round" stroke-linecap="round" stroke="#554d1e" fill="none" d="m-4.3.3.75-19.95.2-2.6v-.25l1.3-16.85" transform="translate(4.8 39.85)"/><path stroke-linejoin="round" stroke-linecap="round" stroke="#312c11" fill="none" d="m4.6-33.2.1 12.8.2 9.05L5.25.3Q5.5 5.05.55 4.1l-.2-.05-.75-.2-.3-.1Q-3.75 2.7-4.3.3" transform="translate(4.8 39.85)"/><path stroke-linejoin="round" stroke-linecap="round" stroke="#312c11" fill="none" d="m-.05 1.9.5.4.55.45M-2.85.35q.95.1 2.8 1.55" transform="translate(4.8 39.85)"/><path stroke-opacity=".8" stroke-linejoin="round" stroke-linecap="round" stroke="#000" fill="none" d="M-3.8-15.65q1.5-1.3 1.85.3" transform="translate(4.8 39.85)"/></g><g id="j"><path fill-rule="evenodd" fill="#436402" d="M6.5-1.7Q5.1 4.2 7.8 7.45q2.65 3.2.25 2.2-2.4-1.05-4.4-3.45-2-2.45-2.1 2.45-.1 4.85-1.45 5.2l-3.2.35Q-9.85 4.65-9 10.75q-1.1 1.65-3.7-.75-2.65-2.45-.25-1.9 2.4.5-.7-11.7 1.95 1.3 3.2.2 1.25-1.05.95-5.35 3.15 1.65 5.6-.9.4.1 1.7-.95 1.3-1.05 3.7 3.7 2.2 5.65 3.4 5.1l1.6.1" transform="translate(32.55 30.75)"/><path fill-rule="evenodd" fill="#330d00" d="m7.55-27.3.7 2.95.05 2.05-.7-.05q-.55-.6-1.05-2.1t-.7-2.95q-.25-1.5-.05-2.05.2-.6.7 0l1.05 2.15m-4.35 1L5.15-24l1.65 3q.6 1.45.45 1.95-.2.5-1.05-.25-.9-.7-1.95-2.25Q3.2-23.1 2.6-24.6 2-26 2.15-26.5q.15-.5 1.05.2m10.9 1.05q-.15.6-1.1 1.45l-2.05 1.4q-1.15.6-1.8.6-.7-.1-.5-.65.15-.65 1.05-1.45.95-.85 2.1-1.4 1.15-.65 1.8-.6.7.05.5.65m.35 4.45q1 .25.9.8-.15.5-1.35 1-1.2.5-2.8.7-1.6.2-2.65 0-1-.3-.85-.8.15-.5 1.35-1 1.2-.55 2.8-.7 1.6-.25 2.6 0m-3.1 7.1 2.75.45q.4-.7.75-.85.55-.25.7 1.3.75.35.7.7-.1.25-.7.4l-.2 1.95.7.25.25.1q.5-1.65 1.15-3 .8-1.75 1.45-1.95.55-.25.6 1.15.05 1.4-.5 3.65-.6 2.25-1.4 4l-.25.45.9.75-1.4.15-.7.7q-.55.2-.6-.85l-1.5-.2-.15.4-.55 1.2q1.05.45 1 .6l-1.3-.1q-.3.4-.55.5-.45.2-.6-.8l-.3-.05-1.35-.4-.05.3-.35 1.35q1.3-1.3 1.7-1.05.4.2-.3 1.85L10.7.45l.9.75.2.2q1-.9 1.35-.7.35.2-.2 1.55l-.1.25 1.5 1.9q.95-.5 1.3-.3.45.25-.05 1.25l-.25.45.7 1.1.45-.2q1.15-.55 1.55-.3.45.2 0 1.1L17 8.8q.6 1.55.15 1.8-.4.2-1.5-.7l-1.5.9-.25.1.75 1.65.1.3q.05-.35.45-.2L16.6 14l1.6 2.4.8 2.05q.05.7-.45.45-.5-.25-1.4-1.3l-1.6-2.4-.35-.7-.2.55q-.35.15-1.05-.4L14.3 16l.35 2.8q-.05 1-.5.85-.45-.2-1.05-1.5-.65-1.4-1.05-3.1-.4-1.65-.35-2.65L9.3 9.15 8.6 8q-.8.65-1.15.55l.95 1.75.5.95.05.15.05-.2q.05-1.25.55-1.05.4.15 1 1.7.55 1.4.9 3.35l.25 3.2v.2q-.15.95-.55.8-.45-.2-1-1.65l-.15-.4-.3-.45-1.45-2.2-.1-.2v.25l-.1 3.75q-.25 1.4-.6 1.25-.4-.15-.75-1.75l-.2-1.1q-.2.1-1.05-1.45l-.3 4.15q-.3 1.75-.7 1.6-.45-.15-.75-2.15l-.2-1.65-1.1-.9-.25-.25-.5 3.25q-.4 1.95-.7 1.85-.35-.1-.4-2.05l-.95-.8-2.85-3.6-2.45-4.15q-.9-1.85-.65-2.2.25-.4 1.55.95l1.9 2.25.1.15v-.15l.05-.1.1-.9-1.5-2.05q-1.2-1.85-1-2.1.2-.25 1.75 1.15l1.05 1.1.25-1.2-1.15-1.3-.95-1.45q.15-.15 1.4 1l.9.85.15-.55.15-.55-.1-.55.2.15.1-.1-.2-.2-1-1.05-.7-.95q.1-.05.95.7l.15.1-.2-.75-.7-3.55-.5-3.4-1.95 1.35-2.4 1.45-.9.45 2 1.2 2.25 1.45q.9.65.85.75l-.95-.35L-7 1-9.2-.5q-.95-.65-.9-.75l1 .4.15.1h.05l.75-.65 2.3-1.6 2.2-1.4v-1.25l.35 1.05.85-.35-.75.7.75 3.6.5 3.55.05 1.15.7.65.85.8.75.75h.05l.1.15L1.6 7.5l.15.25.1-.2-.05-.1-.55-1.5-.2-.6-.3.3q-.15-.1.15-.9L.8 3.9q.1-.1.3.15v.05-.05l1.2-2.9-.4-1.7-.2-1.15-.2.6-.95 2.4-.1 1.75q-.15 0-.35-.7L-.6 3.8l-.6.85.3-1.1.8-2-.15-.6-.95-5.15-.2-1.6-.75.55.5-.85-1.4-.9-.7.4.3-.7-.3-.2q-.85-.6-.9-.75l-.45.1q-.3-.2.7-1.85l.1-.2-.85-.6-.15.15q-1.2 1.2-1.55.95-.4-.3.25-1.95l.1-.2-.7-.75q.05-.15.9.3l.85-1.55-.75-.65-1.6 2.1q-.95.95-1.25.7-.35-.25.1-1.6l1.25-2.6-.9-1-.15.4q-.65 1.6-1.35 2.5-.75.85-1.1.55-.4-.35-.25-1.65.15-1.35.8-2.9.6-1.6 1.3-2.45.75-.9 1.15-.55.35.3.2 1.65l-.45 1.95 1.3.6 1.4-2q-.5-.8-.4-1.1.15-.35 1.2.25.6-.55.9-.35.2.15.05.95l1.35 1 .7-.8.3-.3-.3-.4Q-3-21-2.8-21.4q.1-.4 1.4.5l3.05 2.55.4.4.85-.6-.2-.25Q1.4-20.45.65-22-.1-23.5.1-23.95q.15-.5 1.15.25 1.05.8 2.3 2.5l2.05 3.15.6 1.55q.4.2.7 2.15l.1.6.6-.1h1.85q.25-.75.55-.85.35-.15.6.9l.75.1m3-3.65q1.15.3 1 .85-.1.5-1.45.95l-3.15.5-3-.2q-1.15-.35-1-.85.1-.5 1.45-.95l3.2-.5 2.95.2m-11.05-.7-.5.9 1.6 1.95.65 1 .5-1.8-.6-.4-1.65-1.65m-.95 3.65.1.65.7-.6-.95-.8.15.75m.6 1.9q1.4 1.75 1.25 2.2-.15.3-1.15-.25l-.15.2.2 1.6.3.7-.25.05v.25l.2 4.05.6.15.55.15-.05-1.9-1-.55q0-.2 1 0V-7.6l-.15-.25.15-.15q.1-2.95.45-5.25-.4-.15-1.05-.6l-.4-.3-.7 1-.15.2.35.45m5.95.6-1.65-.45-.15-.05.1 1.6 1.5.05.2-1.15m-1.7 4 1.2.2.1-.9-1.3-.3v1M.75-12.1l-.95-.8-.5.65.9.75.55-.6m.2 3.25-.05-.3-1.05-.7-.7.75v.1l1.15.8.65-.65M.7-7.9l.3.25v-.5l-.3.25m-.55.6-.6.55.15.85 1.55 1.05-.15-1.9-.95-.55m3.2 3.9v2.25L4.3-2.9l.05-.05-.4-.2-.6-.25m-2.1-1L-.2-5.2l.15.8.5 4.55.75-1.5.4-.75-.3-2.25-.05-.05M4.6-2 3.35 1l-.25.5-.2.5-1.25 2.45-.15.25.45.8 1.8 3.65q.25-1.3.6-1.2.4.15.75 2.25l.3 2.75.65 1.75.35 1.25-.1-1.9q-.1-1.65.05-2.85Q4.7 8.1 3.8 5.7l-.1-.3q-.85 1.05-1.05.9-.3-.2.4-2.05l.2-.5q-.1-.6.1-.7h.2L5 .15 4.7-1.3 4.6-2m3.55-2.85.2-.2v-.9l-1.2-.4-.1 1.15 1.1.35M7-4.25 6.85-3l.7-1.05-.55-.2M8.55-2l-.05-.3-.1-.65-.3.8.45.15m-.7.3L6.6.8 4.65 4.1l.55.75.1.15.9-1.7q-.4-1.3.05-1.55.25-.15.8.2l.15-.15L8.95-.6q-.2-.2-.3-.85l-.8-.25m7.8-6.1H15l-.45 1.65 1 .35.35-2h-.25m-2.35-3.65-2.45-.15.05 1.05.7.1 1.3.2.4-1.2m-2.45 3.3v.1l-.05.9.65.15.65.15.1-.6.1-.5-1.2-.15-.25-.05m-.2 2.8-.2 1.25 1.35.5.05-1.45-.75-.15-.45-.15m4.4 4.45q1.5.9 3.1 2.5 1.55 1.55 2.25 2.9.65 1.35.05 1.65-.55.3-2.1-.6-1.5-.9-3.05-2.45l-2-2.45-.05-.05L13 .15q-.65-1.35-.05-1.6.6-.35 2.1.55m4.45-5q.1-.95 1.1-2.65l2.15-3.15q1.15-1.4 1.85-1.65.7-.3.6.65-.2.95-1.15 2.65t-2.1 3.1Q20.7-5.5 20.05-5.2q-.75.3-.55-.7m-.85 3.15L21.6-.7q1.5 1.3 2.1 2.4.6 1.15.05 1.5-.6.25-2.1-.45-1.45-.7-2.9-2Q17.2-.55 16.6-1.7q-.6-1.15 0-1.4.55-.35 2.05.35m4-2.45 3.05.75q1.5.55 2 1.2.5.65-.2 1l-2.2.2q-1.55-.15-3-.75-1.5-.55-2.05-1.2-.5-.7.2-1l2.2-.2M11.15 5.15l-.5.65.7 1 .4-.4.45-.45-.8-1.15-.25.35m9.75 5.35q.5.25.15.8-.45.45-1.55.9l-2.3.55-1.7-.2q-.55-.25-.15-.75.45-.5 1.6-.9l.25-.1 2-.45 1.7.15m-7.3-2.7-1.05.9.45.7 1.05-1.05-.45-.55M9.85 1.85l-.7 1.1-.4.55.6.7.05-.1.95-1.15-.4-.85-.1-.25M.5 7.95.4 9l.9.95.15-.95.25-.95-.35-.3-.8-.7-.05.9m.6 3v.1-.1m-.9-.4-.15 1L.9 12.6l.05-.35-.75-1.7m2.5 1.05.65.85.1-1.1-.3-.6L2.6 9.4l-.05 2.05.15.15m.65 2.6v-1.3l-.85-.65-.15 2.2.75 1.1.3.45-.05-1.8M7.6 7.05l.2-.35-.65-1.15-.7.75-.2.2 1 1.75q0-.4.35-1.2M.55 17.35l.15-2.6-1-1.1-.3 1.5 1.1 2.1.05.1M-23-17.9q-.45-.4.3-.6l2.2-.05 2.8.55q1.35.4 1.75.8.45.4-.3.6l-2.15.05-2.85-.55q-1.35-.45-1.75-.8m1.65 3.45 2.75-.75 3.2-.25q1.5.05 1.85.4.35.3-.65.8-.95.4-2.7.7l-3.25.25q-1.45-.05-1.8-.4-.35-.35.6-.75m2 9.95-.65-.4-2.2-1.5q-.95-.65-.9-.75l1 .4 2.25 1.35.9.55.65-.45q1.55-1 4.1-2.05l4.55-1.5 2.35-.2q.3.3-1.3 1.3-1.5.95-4.05 2.05-2.6 1.05-4.6 1.55l-.45.1.1.1.85.75q0 .1-.95-.35l-.65-.35-1.2-.1.2-.5m2.15 3.6-1.15.15q-.15-.15.3-.55l-1.15-.45-3.35-1.85-3.2-2.05L-27-6.8q.05-.15 1.45.55l3.3 1.8 3.3 2.05 1.1.95.95-.7.75-.5-.15-.3.3.15 3.45-1.95 4.65-2.2q2-.8 2.25-.55.2.25-1.5 1.45-1.65 1.15-4.3 2.55-1.85 1-3.4 1.7l.95.9.6.2.7-.55 3.35-2.2 3.4-2 1.6-.6-1.25 1.1-3.25 2.2q-2 1.25-3.5 2l-.4.2-.1.1.2.1q1.35.65 3.3 1.8l3.3 2.05q1.25.9 1.2 1.1-.1.15-1.45-.45L-9.55 2.3-12.6.35l-.75-.75-.55-.5h-.1l.4.5-.2.25-1.45-1.5-.9.4-.85.3 1.2.95 1 .9 3.2 1.5q2.5 1.25 4.2 2.35 1.6 1.1 1.5 1.45-.15.3-1.95-.3l-3.6-1.55 1.15 1.35.2.25q1 .45 1.8.95 1.45.9 1.25 1.35l-1.95.1-2.2-.55 1.15 1.6.55.3q1.2.75 1 1.1-.1.2-.55.25l.15.65q-.2.2-1.2-.7l-2.9-.7.5 1.05.15.25q1.05.25 1.75.65.95.5.75.95-.2.45-1.5.6l-3-.2-.7-.15v.65q-.25.35-1.25-.7l-.35-.4-.4-.2q-1-.55-.75-1l.1-.15-.85-1.25L-20.4 7q-.7-1.6-.5-1.95.2-.3 1.25.8 1 1.05 2.25 2.95l1.4 2.45h1.45l-1.65-2.2-.45-.25q-1.2-.75-1-1.15l.4-.2-1.45-2.6q-.9-1.85-.65-2.2.25-.4 1.55.95l.1.1 1.3.15-.75-1.05q-1.2-1.85-1-2.1.2-.25 1.75 1.15l2.45 2.6 1.75.6.5.2-1.9-1.9-.15-.15-2.65-1.6Q-18.1.45-17.95.15l1.65.2-.9-1.25m-3.2-.25q1.6 1.1 1.5 1.45-.15.3-1.95-.3-1.9-.65-4.4-1.95Q-27.8-3.2-29.4-4.3q-1.7-1.15-1.55-1.45l2 .35q1.8.6 4.35 1.9l4.2 2.35m-4.8.3q2.35.9 3.9 1.85 1.45.9 1.25 1.35l-1.95.1-4.15-1.25Q-28.55.35-30-.55q-1.5-1-1.3-1.4l2-.1q1.7.3 4.1 1.2m24.05-15.9.6.55.5.45.7-.8L-.6-17.9l-.05.05-.5 1.1m-3.5-.6-.8 1.55.85.55.1-.2.65-.95-.8-.95m1.85 3.45.5.4.25.2.45-.6.15-.15-.8-.75-.45.7-.1.2m-8.45-8.45q.4.3.35 1.55-.05 1.2-.5 2.65t-1.05 2.25q-.6.7-1 .4-.4-.3-.35-1.55.05-1.25.5-2.65.45-1.45 1.05-2.2.6-.8 1-.45m-5.9 1q-.05-1.25.25-1.8.3-.6.75-.2.45.35.8 1.5.35 1.1.4 2.35.05 1.2-.25 1.8-.3.5-.75.15-.45-.4-.8-1.5l-.4-2.3M-11.4-13q.35.3-.75.9-1.05.55-2.95 1l-3.55.45-1.9-.3q-.35-.35.7-.85 1.1-.6 3.05-1l3.45-.5 1.95.3m0 1.9 2-.05q.25.25-1.05 1.05-1.25.75-3.35 1.6-2.1.75-3.8 1.1l-1.9.05q-.3-.3.95-1.05 1.3-.8 3.4-1.55l3.75-1.15m9.6 1.45-.05-1.3-.7.8.6.4.15.1m.9-.7-.35-.2.15.45.2-.25m-2.2-1.6-.7-.55-.8 1.1.8.5.7-1.05m-.1 4.3.2-.25.75-.9-.2-.15-.75-.5-.2.2q-.75.65-1.2.95l1.1.5.3.15m2.9.1-.3-.2.05.45.25-.25m-2.15 0-.2.2 1.15.7-.2-1.6-.75.7m1.1 12.75v.3l.4.75.8 1.7.05-.1.3-1.1-.9-.9-.65-.65m-5.3 6.55q1 1.05 2.25 2.95 1.2 1.85 1.9 3.45.65 1.55.45 1.85-.25.35-1.25-.7l-2.25-3-1.85-3.4q-.7-1.6-.5-1.95.2-.3 1.25.8m4.35-.55-.15.5-.1.5.6.85.75 1.15.2-1.4-.05-.05-1.25-1.55m.6-3.1-.15.85-.05.35 1.2 1.35.25-1.25-.15-.15-1.1-1.15m.3-1.8-.1.8.55.55-.4-1.1-.05-.25m-13.15 1.45 1.7.5-1.2-1.4-.1-.1L-15.8 6l.85 1.15.4.6m1.35 10.2q.6.2.3.7l-1.25 1.1-2.2.85-1.8.2q-.6-.2-.3-.75.25-.5 1.3-1.05 1-.6 2.15-.9l1.8-.15m2.35-2.15q.25-.45.9.45.65.8 1.3 2.45.65 1.65.9 3.1.25 1.45 0 1.85-.25.4-.9-.4l-1.3-2.5q-.65-1.65-.9-3.1-.25-1.45 0-1.85m-7.5-.9q.35-.35 1.35-.5l2.65-.1q1.5.15 2.4.6.85.4.65.85-.25.45-1.45.7l-2.7.05-2.35-.55-.5-.35-.1.3q-.3.4-1.05-.5-.8-.95-1.6-2.7l-1.15-3.3q-.4-1.6-.15-2 .25-.4 1.05.55.75.9 1.55 2.7.85 1.75 1.25 3.35l.15.9m5.45 5.55q.1-1.4.4-1.9.25-.5.6.2.35.6.5 2.1l.1 2.9q-.15 1.35-.45 1.85-.3.5-.6-.15-.35-.7-.5-2.15l-.05-2.85m3.55-7.15q.25-.4 1.05.55.75.9 1.55 2.7.85 1.75 1.25 3.35.35 1.5.1 1.9-.3.4-1.05-.5-.8-.95-1.6-2.7l-1.15-3.3q-.4-1.6-.15-2M-23.1 5.1l-3.4-.85q-1.95-.65-3.15-1.35-1.2-.75-1-1.15L-29 1.6q1.4.15 3.35.8 1.9.65 3.15 1.4 1.2.75 1 1.1l-1.6.2m-3.2.45q1.7.25 2.7.8.95.5.75.95-.2.45-1.5.6l-3-.2q-1.7-.3-2.7-.8-1-.55-.75-1 .2-.45 1.55-.55l2.95.2m-2.15 5.05-2.35-.55q-.9-.45-.65-.9.2-.45 1.45-.65l2.65-.1q1.5.15 2.4.6.85.4.65.85-.25.45-1.45.7l-2.7.05m2.25 1.45q.6.2.3.7-.25.5-1.25 1.1l-2.2.85-1.8.2q-.6-.2-.3-.75.25-.5 1.3-1.05 1-.6 2.15-.9l1.8-.15m3.25-1.7q.65.8 1.3 2.45.65 1.65.9 3.1.25 1.45 0 1.85-.25.4-.9-.4l-1.3-2.5q-.65-1.65-.9-3.1-.25-1.45 0-1.85.25-.45.9.45m-1.45 4.6.1 2.9q-.15 1.35-.45 1.85-.3.5-.6-.15-.35-.7-.5-2.15l-.05-2.85q.1-1.4.4-1.9.25-.5.6.2.35.6.5 2.1" transform="translate(32.55 30.75)"/><path stroke-width="2" stroke-linejoin="round" stroke-linecap="round" stroke="#464701" fill="none" d="m40.1 3.45.7 2.95.05 2.05-.7-.05q-.55-.6-1.05-2.1t-.7-2.95q-.25-1.5-.05-2.05.2-.6.7 0l1.05 2.15m-4.35 1 1.95 2.3 1.65 3q.6 1.45.45 1.95-.2.5-1.05-.25-.9-.7-1.95-2.25-1.05-1.55-1.65-3.05-.6-1.4-.45-1.9.15-.5 1.05.2m10.9 1.05q-.15.6-1.1 1.45l-2.05 1.4q-1.15.6-1.8.6-.7-.1-.5-.65.15-.65 1.05-1.45.95-.85 2.1-1.4 1.15-.65 1.8-.6.7.05.5.65M47 9.95q1 .25.9.8-.15.5-1.35 1-1.2.5-2.8.7-1.6.2-2.65 0-1-.3-.85-.8.15-.5 1.35-1 1.2-.55 2.8-.7 1.6-.25 2.6 0m-3.1 7.1 2.75.45q.4-.7.75-.85.55-.25.7 1.3.75.35.7.7-.1.25-.7.4L47.9 21l.7.25.25.1q.5-1.65 1.15-3 .8-1.75 1.45-1.95.55-.25.6 1.15.05 1.4-.5 3.65-.6 2.25-1.4 4l-.25.45.9.75-1.4.15-.7.7q-.55.2-.6-.85l-1.5-.2-.15.4-.55 1.2q1.05.45 1 .6l-1.3-.1q-.3.4-.55.5-.45.2-.6-.8l-.3-.05-1.35-.4-.05.3-.35 1.35q1.3-1.3 1.7-1.05.4.2-.3 1.85l-.55 1.2.9.75.2.2q1-.9 1.35-.7.35.2-.2 1.55l-.1.25 1.5 1.9q.95-.5 1.3-.3.45.25-.05 1.25l-.25.45.7 1.1.45-.2q1.15-.55 1.55-.3.45.2 0 1.1l-1.05 1.3q.6 1.55.15 1.8-.4.2-1.5-.7l-1.5.9-.25.1.75 1.65.1.3q.05-.35.45-.2l1.4 1.35 1.6 2.4.8 2.05q.05.7-.45.45-.5-.25-1.4-1.3l-1.6-2.4-.35-.7-.2.55q-.35.15-1.05-.4l.35 1.35.35 2.8q-.05 1-.5.85-.45-.2-1.05-1.5-.65-1.4-1.05-3.1-.4-1.65-.35-2.65l-2.4-3.25-.7-1.15q-.8.65-1.15.55l.95 1.75.5.95.05.15.05-.2q.05-1.25.55-1.05.4.15 1 1.7.55 1.4.9 3.35l.25 3.2v.2q-.15.95-.55.8-.45-.2-1-1.65l-.15-.4-.3-.45-1.45-2.2-.1-.2v.25l-.1 3.75q-.25 1.4-.6 1.25-.4-.15-.75-1.75l-.2-1.1q-.2.1-1.05-1.45l-.3 4.15q-.3 1.75-.7 1.6-.45-.15-.75-2.15l-.2-1.65-1.1-.9-.25-.25-.5 3.25q-.4 1.95-.7 1.85-.35-.1-.4-2.05l-.95-.8-2.85-3.6-2.45-4.15q-.9-1.85-.65-2.2.25-.4 1.55.95l1.9 2.25.1.15v-.15l.05-.1.1-.9-1.5-2.05q-1.2-1.85-1-2.1.2-.25 1.75 1.15l1.05 1.1.25-1.2-1.15-1.3-.95-1.45q.15-.15 1.4 1l.9.85.15-.55.15-.55-.1-.55.2.15.1-.1-.2-.2-1-1.05-.7-.95q.1-.05.95.7l.15.1-.2-.75-.7-3.55-.5-3.4L27 28.15l-2.4 1.45-.9.45 2 1.2 2.25 1.45q.9.65.85.75l-.95-.35-2.3-1.35-2.2-1.5q-.95-.65-.9-.75l1 .4.15.1h.05l.75-.65 2.3-1.6 2.2-1.4V25.1l.35 1.05.85-.35-.75.7.75 3.6.5 3.55.05 1.15.7.65.85.8.75.75H33l.1.15 1.05 1.1.15.25.1-.2-.05-.1-.55-1.5-.2-.6-.3.3q-.15-.1.15-.9l-.1-.85q.1-.1.3.15v.05-.05l1.2-2.9-.4-1.7-.2-1.15-.2.6-.95 2.4-.1 1.75q-.15 0-.35-.7l-.7 1.45-.6.85.3-1.1.8-2-.15-.6-.95-5.15-.2-1.6-.75.55.5-.85-1.4-.9-.7.4.3-.7-.3-.2q-.85-.6-.9-.75l-.45.1q-.3-.2.7-1.85l.1-.2-.85-.6-.15.15q-1.2 1.2-1.55.95-.4-.3.25-1.95l.1-.2-.7-.75q.05-.15.9.3l.85-1.55-.75-.65-1.6 2.1q-.95.95-1.25.7-.35-.25.1-1.6l1.25-2.6-.9-1-.15.4q-.65 1.6-1.35 2.5-.75.85-1.1.55-.4-.35-.25-1.65.15-1.35.8-2.9.6-1.6 1.3-2.45.75-.9 1.15-.55.35.3.2 1.65l-.45 1.95 1.3.6 1.4-2q-.5-.8-.4-1.1.15-.35 1.2.25.6-.55.9-.35.2.15.05.95l1.35 1 .7-.8.3-.3-.3-.4q-1.05-1.45-.85-1.85.1-.4 1.4.5l3.05 2.55.4.4.85-.6-.2-.25q-1.3-1.65-2.05-3.2-.75-1.5-.55-1.95.15-.5 1.15.25 1.05.8 2.3 2.5l2.05 3.15.6 1.55q.4.2.7 2.15l.1.6.6-.1H42q.25-.75.55-.85.35-.15.6.9l.75.1m3-3.65q1.15.3 1 .85-.1.5-1.45.95l-3.15.5-3-.2q-1.15-.35-1-.85.1-.5 1.45-.95l3.2-.5 2.95.2m-11.05-.7-.5.9 1.6 1.95.65 1 .5-1.8-.6-.4-1.65-1.65m-.95 3.65.1.65.7-.6-.95-.8.15.75m.6 1.9q1.4 1.75 1.25 2.2-.15.3-1.15-.25l-.15.2.2 1.6.3.7-.25.05V23l.2 4.05.6.15.55.15-.05-1.9-1-.55q0-.2 1 0v-1.75l-.15-.25.15-.15q.1-2.95.45-5.25-.4-.15-1.05-.6l-.4-.3-.7 1-.15.2.35.45m5.95.6-1.65-.45-.15-.05.1 1.6 1.5.05.2-1.15m-1.7 4 1.2.2.1-.9-1.3-.3v1m-6.45-4.2-.95-.8-.5.65.9.75.55-.6m.2 3.25-.05-.3-1.05-.7-.7.75v.1l1.15.8.65-.65m-.25.95.3.25v-.5l-.3.25m-.55.6-.6.55.15.85 1.55 1.05-.15-1.9-.95-.55m3.2 3.9v2.25l.95-1.75.05-.05-.4-.2-.6-.25m-2.1-1-1.45-.8.15.8.5 4.55.75-1.5.4-.75-.3-2.25-.05-.05m3.35 2.4-1.25 3-.25.5-.2.5-1.25 2.45-.15.25.45.8 1.8 3.65q.25-1.3.6-1.2.4.15.75 2.25l.3 2.75.65 1.75.35 1.25-.1-1.9q-.1-1.65.05-2.85-1.65-3.1-2.55-5.5l-.1-.3q-.85 1.05-1.05.9-.3-.2.4-2.05l.2-.5q-.1-.6.1-.7h.2l1.45-2.9-.3-1.45-.1-.7m3.55-2.85-1.1-.35.1-1.15 1.2.4v.9l-.2.2m-1.15.6-.15 1.25.7-1.05-.55-.2m1.55 2.25-.05-.3-.1-.65-.3.8.45.15m-.7.3-1.25 2.5-1.95 3.3.55.75.1.15.9-1.7q-.4-1.3.05-1.55.25-.15.8.2l.15-.15 1.75-2.4q-.2-.2-.3-.85l-.8-.25m7.8-6.1h-.65l-.45 1.65 1 .35.35-2h-.25m-2.35-3.65-2.45-.15.05 1.05.7.1 1.3.2.4-1.2m-2.45 3.3v.1l-.05.9.65.15.65.15.1-.6.1-.5-1.2-.15-.25-.05m-.2 2.8-.2 1.25 1.35.5.05-1.45-.75-.15-.45-.15m4.4 4.45q1.5.9 3.1 2.5 1.55 1.55 2.25 2.9.65 1.35.05 1.65-.55.3-2.1-.6-1.5-.9-3.05-2.45l-2-2.45-.05-.05-.25-.45q-.65-1.35-.05-1.6.6-.35 2.1.55m4.45-5q.1-.95 1.1-2.65l2.15-3.15q1.15-1.4 1.85-1.65.7-.3.6.65-.2.95-1.15 2.65t-2.1 3.1q-1.25 1.45-1.9 1.75-.75.3-.55-.7M51.2 28l2.95 2.05q1.5 1.3 2.1 2.4.6 1.15.05 1.5-.6.25-2.1-.45-1.45-.7-2.9-2-1.55-1.3-2.15-2.45-.6-1.15 0-1.4.55-.35 2.05.35m4-2.45 3.05.75q1.5.55 2 1.2.5.65-.2 1l-2.2.2q-1.55-.15-3-.75-1.5-.55-2.05-1.2-.5-.7.2-1l2.2-.2m-1.75 15.7-1.7-.15-2 .45-.25.1q-1.15.4-1.6.9-.4.5.15.75l1.7.2 2.3-.55q1.1-.45 1.55-.9.35-.55-.15-.8M43.7 35.9l.25-.35.8 1.15-.45.45-.4.4-.7-1 .5-.65m2.45 2.65-1.05.9.45.7 1.05-1.05-.45-.55M42.4 32.6l-.7 1.1-.4.55.6.7.05-.1.95-1.15-.4-.85-.1-.25m-9.35 6.1.05-.9.8.7.35.3-.25.95-.15.95-.9-.95.1-1.05m.6 3v.1-.1m-.9-.4-.15 1 .85 1.05.05-.35-.75-1.7m2.5 1.05.65.85.1-1.1-.3-.6-.55-1.35-.05 2.05.15.15m4.9-4.55q-.35.8-.35 1.2l-1-1.75.2-.2.7-.75.65 1.15-.2.35m-4.25 7.15.05 1.8-.3-.45-.75-1.1.15-2.2.85.65v1.3m-2.8 3.15.15-2.6-1-1.1-.3 1.5 1.1 2.1.05.1M9.55 12.85q-.45-.4.3-.6l2.2-.05 2.8.55q1.35.4 1.75.8.45.4-.3.6l-2.15.05-2.85-.55q-1.35-.45-1.75-.8m1.65 3.45 2.75-.75 3.2-.25q1.5.05 1.85.4.35.3-.65.8-.95.4-2.7.7l-3.25.25q-1.45-.05-1.8-.4-.35-.35.6-.75m2.4 9.6.65-.45q1.55-1 4.1-2.05l4.55-1.5 2.35-.2q.3.3-1.3 1.3-1.5.95-4.05 2.05-2.6 1.05-4.6 1.55l-.45.1m-.65.15-1.2-.1.2-.5m2.15 3.6L14.2 30q-.15-.15.3-.55L13.35 29 10 27.15 6.8 25.1l-1.25-1.15q.05-.15 1.45.55l3.3 1.8 3.3 2.05 1.1.95.95-.7.75-.5m.15-.15L20 26l4.65-2.2q2-.8 2.25-.55.2.25-1.5 1.45-1.65 1.15-4.3 2.55-1.85 1-3.4 1.7m.95.9.6.2.7-.55 3.35-2.2 3.4-2 1.6-.6-1.25 1.1L23.8 28q-2 1.25-3.5 2l-.4.2-.1.1.2.1q1.35.65 3.3 1.8l3.3 2.05q1.25.9 1.2 1.1-.1.15-1.45-.45L23 33.05l-3.05-1.95m-2.65-2-.9.4-.85.3m2.2 1.85 3.2 1.5q2.5 1.25 4.2 2.35 1.6 1.1 1.5 1.45-.15.3-1.95-.3l-3.6-1.55m1.35 1.6q1 .45 1.8.95 1.45.9 1.25 1.35l-1.95.1-2.2-.55m1.15 1.6.55.3q1.2.75 1 1.1-.1.2-.55.25m-1.05-.05-2.9-.7m.65 1.3q1.05.25 1.75.65.95.5.75.95-.2.45-1.5.6l-3-.2-.7-.15m-1.6-.45-.4-.2q-1-.55-.75-1l.1-.15-.85-1.25-1.85-3.4q-.7-1.6-.5-1.95.2-.3 1.25.8 1 1.05 2.25 2.95l1.4 2.45H18m-1.65-2.2-.45-.25q-1.2-.75-1-1.15l.4-.2m-.45-3.75 1.3.15m2.45.6 1.75.6.5.2m-2.05-2.05-2.65-1.6q-1.7-1.15-1.55-1.45l1.65.2m-4.1-1.5q1.6 1.1 1.5 1.45-.15.3-1.95-.3-1.9-.65-4.4-1.95-2.55-1.25-4.15-2.35Q1.45 25.3 1.6 25l2 .35q1.8.6 4.35 1.9l4.2 2.35m-4.8.3q2.35.9 3.9 1.85 1.45.9 1.25 1.35l-1.95.1-4.15-1.25Q4 31.1 2.55 30.2q-1.5-1-1.3-1.4l2-.1q1.7.3 4.1 1.2M31.4 14l.6.55.5.45.7-.8-1.25-1.35-.05.05-.5 1.1m-3.5-.6-.8 1.55.85.55.1-.2.65-.95-.8-.95m1.85 3.45.5.4.25.2.45-.6.15-.15-.8-.75-.45.7-.1.2M15.4 9.4q-.05-1.25.25-1.8.3-.6.75-.2.45.35.8 1.5.35 1.1.4 2.35.05 1.2-.25 1.8-.3.5-.75.15-.45-.4-.8-1.5l-.4-2.3m5.75 8.35q.35.3-.75.9-1.05.55-2.95 1l-3.55.45-1.9-.3q-.35-.35.7-.85 1.1-.6 3.05-1l3.45-.5 1.95.3m0 1.9 2-.05q.25.25-1.05 1.05-1.25.75-3.35 1.6-2.1.75-3.8 1.1l-1.9.05q-.3-.3.95-1.05 1.3-.8 3.4-1.55l3.75-1.15m9.6 1.45-.05-1.3-.7.8.6.4.15.1m.9-.7-.35-.2.15.45.2-.25m-2.2-1.6-.7-.55-.8 1.1.8.5.7-1.05m-.1 4.3.2-.25.75-.9-.2-.15-.75-.5-.2.2q-.75.65-1.2.95l1.1.5.3.15m2.9.1-.3-.2.05.45.25-.25m-2.15 0-.2.2 1.15.7-.2-1.6-.75.7m1.1 12.75.65.65.9.9-.3 1.1-.05.1-.8-1.7-.4-.75v-.3m-5.3 6.55q1 1.05 2.25 2.95 1.2 1.85 1.9 3.45.65 1.55.45 1.85-.25.35-1.25-.7l-2.25-3-1.85-3.4q-.7-1.6-.5-1.95.2-.3 1.25.8m5.25-5.45.05.25.4 1.1-.55-.55.1-.8m-.3 1.8 1.1 1.15.15.15-.25 1.25-1.2-1.35.05-.35.15-.85m-.6 3.1 1.25 1.55.05.05-.2 1.4-.75-1.15-.6-.85.1-.5.15-.5M18 38.5l1.7.5-1.2-1.4-.1-.1-1.65-.75m4.95 9.8q.25-.45.9.45.65.8 1.3 2.45.65 1.65.9 3.1.25 1.45 0 1.85-.25.4-.9-.4l-1.3-2.5q-.65-1.65-.9-3.1-.25-1.45 0-1.85m-7.45-.2-.1.3q-.3.4-1.05-.5-.8-.95-1.6-2.7l-1.15-3.3q-.4-1.6-.15-2 .25-.4 1.05.55.75.9 1.55 2.7.85 1.75 1.25 3.35l.15.9m5.45 5.55q.1-1.4.4-1.9.25-.5.6.2.35.6.5 2.1l.1 2.9q-.15 1.35-.45 1.85-.3.5-.6-.15-.35-.7-.5-2.15l-.05-2.85m3.55-7.15q.25-.4 1.05.55.75.9 1.55 2.7.85 1.75 1.25 3.35.35 1.5.1 1.9-.3.4-1.05-.5-.8-.95-1.6-2.7l-1.15-3.3q-.4-1.6-.15-2m-13.75-8.2L6.05 35q-1.95-.65-3.15-1.35-1.2-.75-1-1.15l1.65-.15q1.4.15 3.35.8 1.9.65 3.15 1.4 1.2.75 1 1.1l-1.6.2m-3.2.45q1.7.25 2.7.8.95.5.75.95-.2.45-1.5.6l-3-.2q-1.7-.3-2.7-.8-1-.55-.75-1 .2-.45 1.55-.55l2.95.2M4.1 41.35l-2.35-.55q-.9-.45-.65-.9.2-.45 1.45-.65l2.65-.1q1.5.15 2.4.6.85.4.65.85-.25.45-1.45.7l-2.7.05m2.25 1.45q.6.2.3.7-.25.5-1.25 1.1l-2.2.85-1.8.2q-.6-.2-.3-.75.25-.5 1.3-1.05 1-.6 2.15-.9l1.8-.15m3.25-1.7q.65.8 1.3 2.45.65 1.65.9 3.1.25 1.45 0 1.85-.25.4-.9-.4l-1.3-2.5q-.65-1.65-.9-3.1-.25-1.45 0-1.85.25-.45.9.45m-1.45 4.6.1 2.9q-.15 1.35-.45 1.85-.3.5-.6-.15-.35-.7-.5-2.15l-.05-2.85q.1-1.4.4-1.9.25-.5.6.2.35.6.5 2.1"/></g><g id="k" fill-rule="evenodd"><path fill="#405f01" d="M.95 8.5.8 9.95Q.6 10 .25 8.6l-.7-3.4-.45-3.45L-.75.3Q-.6.25-.2 1.65l.7 3.4.45 3.45" transform="translate(1 9.95)"/><path fill="#335502" d="m.5-5.05-.75 3.4Q-.7-.3-.85-.3q-.25-.05-.1-1.5l.45-3.4.8-3.45q.4-1.35.6-1.3L1-8.5.5-5.05" transform="translate(1 9.95)"/></g><path fill-rule="evenodd" d="M4.5-2.3 3.75.55l-8.25 1.8L.35-1.9l4.15-.4" transform="translate(4.5 2.3)" id="e"/><path fill-rule="evenodd" fill="#554d1e" d="M9.2-4.65 7.9-8.4l1.45-.4 1.8 3.3 1.5-.25L14.5-8.7l1 .65-.95 2.95 4.15 2.15-.5 1.65-3.05-.7Q6.85 2.55-1.3 3.25l.8-7.05q4.05 2 8.9 1.6l.8-2.45" transform="translate(1.3 8.8)" id="g"/><path stroke-opacity=".8" stroke-linejoin="round" stroke-linecap="round" stroke="#000" fill="none" d="M0 .6Q1.5-.7 1.85.9M5.8 2.7q-1.45-2-2.85-.8" transform="translate(.5 .5)" id="b"/><path fill-rule="evenodd" fill-opacity="0" fill="#f0f" d="M0 0h102.95v45H0V0" id="c"/><use xlink:href="#a" width="10.55" height="44.6" id="h"/><use xlink:href="#b" width="6.8" height="3.7" id="i"/><use xlink:href="#c" width="102.95" height="45" id="l"/></defs><path fill="none" d="M-1-1h214v260H-1z"/><use x="125.05" y="268.5" xlink:href="#d" width="381" transform="translate(-192.55 -294)" height="381"/><use x="-185.846" y="60.163" xlink:href="#e" width="9" transform="matrix(-2.1003 -.8263 -4.4094 1.9104 -5.507 -20.876)" height="4.65"/><use xlink:href="#e" width="9" transform="matrix(-2.0869 1.0231 -.1151 2.8979 131.656 224.88)" height="4.65"/><use x="29.666" y="89.338" xlink:href="#f" width="6.2" transform="scale(-3.1465 3.1465) rotate(43.343 23.897 -5.79)" height="6.25"/><use x="-98.815" y="-188.457" xlink:href="#g" width="20" transform="scale(1.392 -1.392) rotate(52.643 -52.402 22.659)" height="12.05"/><use x="21.259" y="-7.932" xlink:href="#h" width="10.55" transform="matrix(-3.1516 0 0 3.1516 189.628 122.857)" height="44.6"/><use x="-24.573" y="-210.935" xlink:href="#g" width="20" transform="matrix(-1.324 .4386 -.4386 -1.324 -26.219 -62.52)" height="12.05"/><use x="21.259" y="-7.932" xlink:href="#i" width="6.8" transform="matrix(-3.1516 0 0 3.1516 187.026 194.724)" height="3.7"/><use x="95.709" y="-5.517" xlink:href="#j" width="61.45" transform="matrix(1.1187 2.8678 -3.259 1.0826 40.5 -295.336)" height="57.55"/><use x="-5.538" y="-14.567" xlink:href="#k" width="2" transform="matrix(-.6896 5.2362 4.8616 -.2746 101.516 140.746)" height="19.9"/><use xlink:href="#k" width="2" transform="matrix(-.9195 6.9815 4.2997 -.2429 39.438 122.285)" height="19.9"/><use xlink:href="#k" width="2" transform="matrix(-.8222 6.2431 3.4438 -.1945 47.006 130.893)" height="19.9"/><use x="36.864" y="58.648" xlink:href="#k" width="2" transform="matrix(-.9919 7.5313 2.7557 -.1557 -72.277 -129.882)" height="19.9"/><use x="36.647" y="67.831" xlink:href="#k" width="2" transform="matrix(-.9977 7.5757 2.3826 -.1346 -69.51 -120.937)" height="19.9"/><use x="31.08" y="107.379" xlink:href="#k" width="2" transform="matrix(-1.1765 8.9327 1.5051 -.085 -62.05 -111.787)" height="19.9"/><use x="101.224" y="41.605" xlink:href="#k" width="2" transform="matrix(-.3612 2.7427 3.8844 -.2194 -80.589 -158.91)" height="19.9"/><use x="-18.504" y="-26.102" xlink:href="#k" width="2" transform="matrix(-.2064 1.5673 2.7132 -.1533 124.46 127.758)" height="19.9"/><use x="41.784" y="19.112" xlink:href="#k" width="2" transform="matrix(5.3917 4.8579 -5.2447 3.4281 23.043 -192.117)" height="19.9"/><use x="-6.155" y="4.905" xlink:href="#k" width="2" transform="matrix(7.1889 6.4772 -4.6385 3.0318 215.914 111.856)" height="19.9"/><use x="35.044" y="26.98" xlink:href="#k" width="2" transform="matrix(6.4286 5.7922 -3.7152 2.4284 23.788 -167.004)" height="19.9"/><use x="-.108" y=".39" xlink:href="#k" width="2" transform="matrix(7.755 6.9873 -2.9728 1.9431 151.874 113.879)" height="19.9"/><use x="28.88" y="38.998" xlink:href="#k" width="2" transform="matrix(7.8008 7.0285 -2.5703 1.68 29.874 -143.395)" height="19.9"/><use x="-4.811" y="14.011" xlink:href="#k" width="2" transform="matrix(9.198 8.2875 -1.6237 1.0613 222.458 165.203)" height="19.9"/><use x="79.77" y="23.92" xlink:href="#k" width="2" transform="matrix(2.8242 2.5446 -4.1905 2.739 7.271 -190.848)" height="19.9"/><use x="139.596" y="34.243" xlink:href="#k" width="2" transform="matrix(1.6138 1.4541 -2.927 1.9132 -12.14 -187.99)" height="19.9"/><use x="-33.625" y="48.389" xlink:href="#k" width="2" transform="matrix(2.2745 -4.9165 4.1648 2.1324 -45.764 -212.9)" height="19.9"/><use x="-25.219" y="54.712" xlink:href="#k" width="2" transform="matrix(3.0326 -6.5554 3.6834 1.8859 -37.782 -216.81)" height="19.9"/><use x="-28.201" y="68.31" xlink:href="#k" width="2" transform="matrix(2.7119 -5.862 2.9502 1.5105 -26.317 -221.567)" height="19.9"/><use x="-23.377" y="85.368" xlink:href="#k" width="2" transform="matrix(3.2714 -7.0716 2.3607 1.2087 -16.96 -226.205)" height="19.9"/><use x="-.233" y="-1.584" xlink:href="#k" width="2" transform="matrix(3.2907 -7.1133 2.0411 1.045 119.45 35.465)" height="19.9"/><use x="-19.711" y="156.3" xlink:href="#k" width="2" transform="matrix(3.8802 -8.3875 1.2894 .6601 2.09 -238.231)" height="19.9"/><use x="-64.194" y="60.563" xlink:href="#k" width="2" transform="matrix(1.1914 -2.5753 3.3276 1.7037 -40.301 -203.577)" height="19.9"/><use x="-112.34" y="86.706" xlink:href="#k" width="2" transform="matrix(.6808 -1.4716 2.3243 1.19 -32.608 -192.47)" height="19.9"/><use x="-37.449" y="-57.828" xlink:href="#k" width="2" transform="matrix(-5.7993 -.8034 1.5931 -4.1228 -65.052 -136.525)" height="19.9"/><use x="-28.086" y="-65.386" xlink:href="#k" width="2" transform="matrix(-7.7323 -1.0711 1.4089 -3.6463 -70.737 -142.499)" height="19.9"/><use x="10.524" y="5.109" xlink:href="#k" width="2" transform="matrix(-6.9145 -.9579 1.1285 -2.9205 114.036 142.167)" height="19.9"/><use x="8.724" y="6.384" xlink:href="#k" width="2" transform="matrix(-8.3412 -1.1555 .903 -2.3369 107.257 135.107)" height="19.9"/><use x="-25.883" y="-117.998" xlink:href="#k" width="2" transform="matrix(-8.3904 -1.1623 .7807 -2.0205 -93.578 -163.134)" height="19.9"/><use x="-21.952" y="-186.787" xlink:href="#k" width="2" transform="matrix(-9.8933 -1.3705 .4932 -1.2764 -101.364 -172.03)" height="19.9"/><use x=".937" y="-.12" xlink:href="#k" width="2" transform="matrix(-3.0377 -.4208 1.2729 -3.2941 72.273 124.997)" height="19.9"/><use x="-125.115" y="-103.616" xlink:href="#k" width="2" transform="matrix(-1.7358 -.2405 .8891 -2.3009 -45.01 -152.815)" height="19.9"/><use x="25.53" y="60.607" xlink:href="#k" width="2" transform="matrix(6.2826 -.3777 -.5832 4.5893 11.62 -211.836)" height="19.9"/><use x="-.481" y="-.06" xlink:href="#k" width="2" transform="matrix(8.3767 -.5035 -.5158 4.0589 148.206 61.668)" height="19.9"/><use xlink:href="#k" width="2" transform="matrix(7.4908 -.4503 -.4131 3.251 154.12 69.253)" height="19.9"/><use x="17.75" y="106.924" xlink:href="#k" width="2" transform="matrix(9.0364 -.5432 -.3306 2.6013 38.053 -193.34)" height="19.9"/><use xlink:href="#k" width="2" transform="matrix(9.0897 -.5464 -.2858 2.2491 173.554 78.267)" height="19.9"/><use x="-6.598" y="-20.588" xlink:href="#k" width="2" transform="matrix(10.7178 -.6443 -.1806 1.4208 251.029 110.807)" height="19.9"/><use x="48.741" y="75.852" xlink:href="#k" width="2" transform="matrix(3.2908 -.1978 -.466 3.6669 3.746 -202.687)" height="19.9"/><use x="-2.143" y="-.095" xlink:href="#k" width="2" transform="matrix(1.8805 -.113 -.3255 2.5613 123.958 77.678)" height="19.9"/><use x="-37.449" y="-57.828" xlink:href="#k" width="2" transform="matrix(-5.7993 -.8034 1.5931 -4.1228 -60.352 -180.225)" height="19.9"/><use x="-28.086" y="-65.386" xlink:href="#k" width="2" transform="matrix(-7.7323 -1.0711 1.4089 -3.6463 -66.037 -186.198)" height="19.9"/><use x="10.524" y="5.109" xlink:href="#k" width="2" transform="matrix(-6.9145 -.9579 1.1285 -2.9205 118.736 98.467)" height="19.9"/><use x="8.724" y="6.384" xlink:href="#k" width="2" transform="matrix(-8.3412 -1.1555 .903 -2.3369 111.957 91.407)" height="19.9"/><use x="-25.883" y="-117.998" xlink:href="#k" width="2" transform="matrix(-8.3904 -1.1623 .7807 -2.0205 -88.878 -206.834)" height="19.9"/><use x="-21.952" y="-186.787" xlink:href="#k" width="2" transform="matrix(-9.8933 -1.3705 .4932 -1.2764 -96.664 -215.73)" height="19.9"/><use x=".937" y="-.12" xlink:href="#k" width="2" transform="matrix(-3.0377 -.4208 1.2729 -3.2941 76.973 81.297)" height="19.9"/><use x="-125.115" y="-103.616" xlink:href="#k" width="2" transform="matrix(-1.7358 -.2405 .8891 -2.3009 -40.31 -196.516)" height="19.9"/><use x="21.259" y="-7.932" xlink:href="#f" width="6.2" transform="matrix(-3.1516 0 0 3.1516 177.293 250.029)" height="6.25"/><use x="-37.074" y="-15.117" xlink:href="#l" width="102.95" transform="matrix(1.8072 0 0 1.6538 81 145.3)" height="45"/></svg>