<svg width="121" height="215" xmlns="http://www.w3.org/2000/svg" xmlns:xlink="http://www.w3.org/1999/xlink"><defs><path fill-rule="evenodd" d="M4.5-2.3 3.75.55l-8.25 1.8L.35-1.9l4.15-.4" transform="translate(4.5 2.3)" id="e"/><path fill-rule="evenodd" fill="#554d1e" d="M9.2-4.65 7.9-8.4l1.45-.4 1.8 3.3 1.5-.25L14.5-8.7l1 .65-.95 2.95 4.15 2.15-.5 1.65-3.05-.7Q6.85 2.55-1.3 3.25l.8-7.05q4.05 2 8.9 1.6l.8-2.45" transform="translate(1.3 8.8)" id="g"/><path stroke-opacity=".8" stroke-linejoin="round" stroke-linecap="round" stroke="#000" fill="none" d="M0 .6Q1.5-.7 1.85.9M5.8 2.7q-1.45-2-2.85-.8" transform="translate(.5 .5)" id="b"/><path stroke-width=".25" stroke-linejoin="round" stroke-linecap="round" stroke="#665631" fill="none" d="M.1.1q2.15 4.5 2.25 10.2" id="j"/><path stroke-width=".25" stroke-linejoin="round" stroke-linecap="round" stroke="#665631" fill="none" d="M4.8 6.3.1.1" id="l"/><path stroke-width=".25" stroke-linejoin="round" stroke-linecap="round" stroke="#665631" fill="none" d="M.1 6.3 4.85.1" id="m"/><path fill-rule="evenodd" fill-opacity="0" fill="#f0f" d="M0 0h102.95v45H0V0" id="c"/><g id="d" stroke-opacity="0" stroke-linejoin="round" stroke-linecap="round" stroke="#f0f" fill="none"><path d="M187.95-293.5v380h-380v-380h380M92.95.6H-97" transform="translate(192.55 294)"/><path d="m187.95-293.5-190 190 190 190m-380-380 190 190L-192 86.5" transform="translate(192.55 294)"/></g><g id="f"><path fill-rule="evenodd" fill="#795200" d="M2.45-.05 2.4.3q-.85 1.8-2.05 3L.3 3.25Q-1.85 1.95-2.75 0q2.8-4.85 5.2-.05" transform="translate(3.25 2.45)"/><path stroke-linejoin="round" stroke-linecap="round" stroke="#312c11" fill="none" d="M2.45-.05 2.4.3q-.85 1.8-2.05 3L.3 3.25Q-1.85 1.95-2.75 0" transform="translate(3.25 2.45)"/></g><g id="a"><path fill-rule="evenodd" fill="#960" d="m-.4 3.85-.3-.1Q-3.75 2.7-4.3.3l.75-19.95.2-2.6q1.65 2.9 5.25 2.4Q1.8-1.3-.05 1.9l-.3.45-.05 1.5m.35-1.95Q-1.9.45-2.85.35q.95.1 2.8 1.55" transform="translate(4.8 39.85)"/><path fill-rule="evenodd" fill="#795200" d="M-2.05-39.35q1.25-.6 3.3.8l.75.6q2.35 1.7 2.6 4.75l.1 12.8.2 9.05L5.25.3Q5.5 5.05.55 4.1l-.2-.05-.75-.2.05-1.5.3-.45.5.4.55.45-.55-.45-.5-.4Q1.8-1.3 1.9-19.85q-3.6.5-5.25-2.4v-.25l1.3-16.85" transform="translate(4.8 39.85)"/><path stroke-linejoin="round" stroke-linecap="round" stroke="#554d1e" fill="none" d="m-4.3.3.75-19.95.2-2.6v-.25l1.3-16.85" transform="translate(4.8 39.85)"/><path stroke-linejoin="round" stroke-linecap="round" stroke="#312c11" fill="none" d="m4.6-33.2.1 12.8.2 9.05L5.25.3Q5.5 5.05.55 4.1l-.2-.05-.75-.2-.3-.1Q-3.75 2.7-4.3.3" transform="translate(4.8 39.85)"/><path stroke-linejoin="round" stroke-linecap="round" stroke="#312c11" fill="none" d="m-.05 1.9.5.4.55.45M-2.85.35q.95.1 2.8 1.55" transform="translate(4.8 39.85)"/><path stroke-opacity=".8" stroke-linejoin="round" stroke-linecap="round" stroke="#000" fill="none" d="M-3.8-15.65q1.5-1.3 1.85.3" transform="translate(4.8 39.85)"/></g><g id="k"><path fill-rule="evenodd" fill="#2f581d" d="M10.9 5q-.4.95-2.05 1-1.65.1-3.6-.7Q3.3 4.45 2.2 3.2q-1.05-1.25-.65-2.15Q1.9.1 3.55 0 5.2-.1 7.2.75q1.95.85 3 2.05 1.1 1.3.7 2.2" transform="translate(-1.35 .1)"/><path stroke-width=".25" stroke-linejoin="round" stroke-linecap="round" stroke="#233d14" fill="none" d="M9.55 5.1q-.4.95-2.05 1-1.65.1-3.6-.7Q1.95 4.55.85 3.3-.2 2.05.2 1.15.55.2 2.2.1 3.85 0 5.85.85q1.95.85 3 2.05 1.1 1.3.7 2.2z"/></g><use xlink:href="#a" width="10.55" height="44.6" id="h"/><use xlink:href="#b" width="6.8" height="3.7" id="i"/><use xlink:href="#c" width="102.95" height="45" id="n"/></defs><path fill="none" d="M-1-1h123v217H-1z"/><use x="82.05" y="223.5" xlink:href="#d" width="381" transform="translate(-192.55 -294)" height="381"/><use x="-149.199" y="52.459" xlink:href="#e" width="9" transform="matrix(-2.1003 -.8263 -4.4094 1.9104 -5.507 -20.876)" height="4.65"/><use xlink:href="#e" width="9" transform="matrix(-2.0869 1.0231 -.1151 2.8979 88.656 179.88)" height="4.65"/><use x="29.789" y="69.557" xlink:href="#f" width="6.2" transform="scale(-3.1465 3.1465) rotate(43.343 23.897 -5.79)" height="6.25"/><use x="-91.863" y="-144.285" xlink:href="#g" width="20" transform="scale(1.392 -1.392) rotate(52.643 -52.402 22.659)" height="12.05"/><use x="34.903" y="-22.211" xlink:href="#h" width="10.55" transform="matrix(-3.1516 0 0 3.1516 189.628 122.857)" height="44.6"/><use x="-5.453" y="-170.613" xlink:href="#g" width="20" transform="matrix(-1.324 .4386 -.4386 -1.324 -26.219 -62.52)" height="12.05"/><use x="34.903" y="-22.211" xlink:href="#i" width="6.8" transform="matrix(-3.1516 0 0 3.1516 187.026 194.724)" height="3.7"/><use x="34.903" y="-22.211" xlink:href="#j" width="2.45" transform="matrix(-3.1516 0 0 3.1516 176.38 117.304)" height="10.4"/><use x="25.869" y="109.246" xlink:href="#k" width="9.75" transform="matrix(3.9492 .3714 -.1841 1.9579 -14.75 -182.044)" height="6.2"/><use xlink:href="#k" width="9.75" transform="matrix(-1.1871 -2.4145 2.4146 -1.1871 63.256 45.41)" height="6.2"/><use xlink:href="#k" width="9.75" transform="matrix(1.8284 -4.5331 4.5332 1.8284 67.765 39.747)" height="6.2"/><use x="-11.664" y="76.496" xlink:href="#l" width="4.9" transform="matrix(-3.1101 .4812 .5984 2.9951 2.629 -120.971)" height="6.4"/><use x="-39.394" y="64.876" xlink:href="#k" width="9.75" transform="matrix(2.0396 -2.3363 2.5032 2.0264 1.653 -124.057)" height="6.2"/><use x="21.059" y="110.254" xlink:href="#k" width="9.75" transform="matrix(2.158 -.2542 .332 2.0757 -2.17 -110.15)" height="6.2"/><use x="34.406" y="-23.272" xlink:href="#m" width="4.95" transform="matrix(-3.1494 .0966 .0706 3.1507 161.426 164.926)" height="6.4"/><use x="-63.523" y="38.524" xlink:href="#k" width="9.75" transform="matrix(-2.5082 -1.9864 -2.006 2.5262 -45.785 -131.434)" height="6.2"/><use x="-64.081" y="-89.03" xlink:href="#k" width="9.75" transform="matrix(1.2208 -1.8114 -1.8003 -1.2066 -45.622 -130.675)" height="6.2"/><use xlink:href="#k" width="9.75" transform="matrix(-2.1678 .1479 .1299 2.168 43.01 105.483)" height="6.2"/><use x="34.903" y="-22.211" xlink:href="#f" width="6.2" transform="matrix(-3.1516 0 0 3.1516 177.293 250.029)" height="6.25"/><use x="-60.868" y="-42.327" xlink:href="#n" width="102.95" transform="matrix(1.8072 0 0 1.6538 81 145.3)" height="45"/></svg>