<svg width="195" height="261" xmlns="http://www.w3.org/2000/svg" xmlns:xlink="http://www.w3.org/1999/xlink"><defs><g id="d" stroke-opacity="0" stroke-linejoin="round" stroke-linecap="round" stroke="#f0f" fill="none"><path d="M187.95-293.5v380h-380v-380h380M92.95.6H-97" transform="translate(192.55 294)"/><path d="m187.95-293.5-190 190 190 190m-380-380 190 190L-192 86.5" transform="translate(192.55 294)"/></g><g id="f"><path fill-rule="evenodd" fill="#795200" d="M2.45-.05 2.4.3q-.85 1.8-2.05 3L.3 3.25Q-1.85 1.95-2.75 0q2.8-4.85 5.2-.05" transform="translate(3.25 2.45)"/><path stroke-linejoin="round" stroke-linecap="round" stroke="#312c11" fill="none" d="M2.45-.05 2.4.3q-.85 1.8-2.05 3L.3 3.25Q-1.85 1.95-2.75 0" transform="translate(3.25 2.45)"/></g><g id="a"><path fill-rule="evenodd" fill="#960" d="m-.4 3.85-.3-.1Q-3.75 2.7-4.3.3l.75-19.95.2-2.6q1.65 2.9 5.25 2.4Q1.8-1.3-.05 1.9l-.3.45-.05 1.5m.35-1.95Q-1.9.45-2.85.35q.95.1 2.8 1.55" transform="translate(4.8 39.85)"/><path fill-rule="evenodd" fill="#795200" d="m4.6-33.2.1 12.8.2 9.05L5.25.3Q5.5 5.05.55 4.1l-.2-.05-.75-.2.05-1.5.3-.45Q1.8-1.3 1.9-19.85q-3.6.5-5.25-2.4v-.25l1.3-16.85q1.25-.6 3.3.8l.75.6q2.35 1.7 2.6 4.75M1 2.75.45 2.3l-.5-.4.5.4.55.45" transform="translate(4.8 39.85)"/><path stroke-linejoin="round" stroke-linecap="round" stroke="#554d1e" fill="none" d="m-4.3.3.75-19.95.2-2.6v-.25l1.3-16.85" transform="translate(4.8 39.85)"/><path stroke-linejoin="round" stroke-linecap="round" stroke="#312c11" fill="none" d="m4.6-33.2.1 12.8.2 9.05L5.25.3Q5.5 5.05.55 4.1l-.2-.05-.75-.2-.3-.1Q-3.75 2.7-4.3.3" transform="translate(4.8 39.85)"/><path stroke-linejoin="round" stroke-linecap="round" stroke="#312c11" fill="none" d="M-2.85.35q.95.1 2.8 1.55l.5.4.55.45" transform="translate(4.8 39.85)"/><path stroke-opacity=".8" stroke-linejoin="round" stroke-linecap="round" stroke="#000" fill="none" d="M-3.8-15.65q1.5-1.3 1.85.3" transform="translate(4.8 39.85)"/></g><g id="j"><path fill-rule="evenodd" fill="#82a826" d="M11.3-29.45h1.4l.75-.55-.1-.7 1.1.05q1.2-.5 3.15 0l.15.05.15 4.25h-.15l.15.05.1 3.55-1.25.8-1.85.55-.4-1.4-1.65.4q-.45-.4.5-2 .9-1.65 2.55-1.85l.85-.1-1.4-.1q-2.8-.3-3.4-1.6l-.65-1.4m6.8 9.5-.05.1.05.05.15 5.3-.15.35-1.5 2.7q-.4.2-1.05-.9l-.3-.8h-.1q-1.2-.2-1.25-.8-.1-.7.75-3.8.85-3 2.25-3.3l1.15-.3.05 1.4m-6.8-1.6q.5-.35 1.8 1.1 1.3 1.4 1.2 3.3-.15 1.9-.5 2.3l-2-.05q-.6-.15-1-.5l-.1.25q1.7.25 2.65 2.15l.15.35q2 1.65 2.25 2.55l.05.65 1.3.15 1.2-.25 3 .15q-.35.8-.85 1.25l1.95.7-1.2 1.4q-.65.75-1.75.9l.65.7q.3-.4 1.3-.95 1.6-.9 3.1-.55l.85.2-1.25-.55q-2.2-1.05-2-2.15l.25-1.2 1.2.4.85-.15.25-.55q.4 0 1 .4 1.2.05 2.5.95l1.75 1.5-1.1.7-.75.15-.05.05q-.5.9-1.05.95l-.9-.25.15.15q.15.35-.65 1.65-.85 1.2-2.6 1.1l-1.6-.1Q22.95-.3 23 .65l-1.5-.1 1 3.25-1.8-.4Q18.95 3 17.45-.65l-.8-2.1-.15-.2.35 1.45q.4 2.25-.95 4l-.55.7.2.2q-.85.65-1.75.9l2.3 1.4-2.2.9-2.7.25 1 2.1q1.05 2.75 1.05 4.1.4-.3 1.2-.5 1.7-.5 3.05 1.05l.15.15.1.15q1.9.85 2.3 1.55l.15.55.9-.15 1.1-.55q1.9-.8 2.45-.55L24.2 16l1.75.15-.65 1.35q-.4.75-1.25 1.1l1.45 1.05q2.35 2 2.65 2.9l-1.25.2 1.5 2.4-1.55.05q-1.5.05-3.45-2.55l-1.05-1.45-.1-.05.5.95q.85 1.7.15 3.45l-.35.7.2.15-1.2 1.1 2.15.65-1.6 1.2q-.9.65-2.2.8l1.35 1.5q1.9 2.65 1.8 3.65l-1.7-.15L22 38l-2-.35q-1.9-.35-3-3.6l-.65-1.9-.05-.1.15 1.2q.15 2-1.7 3.55-1.85 1.5-2.5 1.1-.15-1.25.05-2.05l-1.95-.1.25-2.35q.2-2.2 2.45-2.55l1.5-.2-.1-.45-.05-.3q-1.4 1.25-3.6 1.25-2.9-.05-3.15-1.05.85-1.45 1.7-2.15l-1.65-1.8-.95-.25q-2.6-.75-2.8-1.05l1.65-.1-1.45-.9 2-.05 2.8.5.35-.35q-.6-.6-1.05-1.8.35-.85 2.8-.8 2.35 0 3.25 1.9l.1.2q2.05 1.5 2.2 2.35l-.3 1.2q1.05-.55 3.05-.75l1.8-.1-.35-.95-1.4.3-.65-1.95-1.05 1.05q-.45.15-1.05-.8l-.2-.75h-.1q-1.3-.15-1.35-.7l.4-1.15-.3.35q-.5.3-2.3 0-1.8-.35-1.6-2.15l.2-1.95.65-.05-1.3-.3q.55-.3 1.15-.4l-.8-.3v.15l-.6-.3-1.6-.8q-1.05-.5-1.65-1.7-.6-1.3-.75-3.35l-.1-2.2-.1-.25-.2 1.4q-.45 2.35-3.05 3.55-2.6 1.15-3.25.5.25-1.5.75-2.35l-2.25-.7 1-2.65q.9-2.5 3.65-2.25l1.8.3V5.2l.05-.4Q2.75 5.85.25 5.15q-2.3-.65-3-1.45l-.2-.05q-1.9-.55-1.3-1.7l.5-.85-.55-.05h-.35Q-4 2-4.95 3.1q-.6.7-1.15 1.05.3 2.6.1 3.45l-1-1-.2 3.4-1.15-1.4q-1.05-1.25-1-5.15l-.55.15q-.5 1.05-1.4 1.55-1.4.7-1.75 0l-.45.2.55-.85-1.4.55.8-1 .9-.85.1-.3-.3-.3-1.4.1q-.6-.35.4-1.55l.4-.4.05-.1-2.1.05-1.65-.45.6-.8q-.65-.15-1.4-.45-.05-.4 1.65-.8l3 .15.55.2-.85-.55q-1.8-1.2-1.35-2.05l.45-.9.65.35q-.35-.6-.3-1.15l1.55-1.45-.6-2.65-.6-.85q-1.4-2.1-1.4-2.55l1 .7-.7-1.7.15.05q-.35-.45-.35-1.55-.05-1.8 1.8-2.65l.2-.1q1.4-1.8 2.2-2h.55l.1-.95-.25-1.1q-.25-2.1.15-2.5.65.25 1.05.7l.6-1.65 1.15 1q.65.55.75 1.5l1.45-1.15q2.5-1.8 3.4-1.85.2.7-.05 1.3l2.65-.85-.3 1.5q-.35 1.45-3.4 2.7l-1.65.65-.05.05.95-.25q1.9-.35 3.4.8l.6.5.15-.15.75 1.45 1.2-1.9.75 1.85q.4 1 .15 2.3L5-17.4q3.05-1.2 4-.85-.1.95-.55 1.65l1.7.05-.1-.75-.15-2.25 1.45-.05q-.15-.8-.05-1.95m-7.2 9 1.25.2.45.1h.55q1.15-.05 2.45.5l.3-.4-.65-.95-2.2.4-2.05.1-.1.05m-2.2 1.3-.4-.05q.95 1.7.35 3.85l-.25.9 1.9.35q2.8.75 3.2 3.2l.05.3q2 2.4 1.9 3.4l-.8 1.4q1.4-.35 3.8.05l2 .4-.05-1.1-1.7-.05-.15-2.45-1.45.75q-.6.05-.95-1.25-.15-.4-.05-.9l-.15-.05q-1.45-.6-1.3-1.25l.7-1.05-.35.2q-.65.2-2.65-.75-1-.45-1.25-1.2l-.35-.1q-2.1-.8-1.85-3.05l.25-1.55H1.9M.7-3.7l-.4-1-.3.05-1.6-2.2-2.2 1.15-.35.6 1.25.3q1.55.4 3.05 1.4l.55-.3m24.1 1.35q.65-1.7 2.75-2.3l.2-.05q2.1-1.5 2.95-1.6l1.2.25q-.3-.75.1-2.2.55-2.05 1.1-2.4l.75.85 1.2-1.5.75 1.1q.4.6.15 1.5l1.8-.85q3.15-1.4 4.1-1.3-.1.65-.6 1.2l3-.45-.95 1.4q-.9 1.3-4.35 2.1L37-6.2l-.2.1 1.2-.1q2-.1 3 1.2.95 1.25.4 1.75l-2-.05-.65 1.4-2.25-.2q-2.15-.15-1.85-1.7l.3-1.1-.45.05-.45.05q.95 1 .3 2.6-.85 2-1.95 2.2-1.15-.65-1.6-1.2L28.7-.15l-.6.8-1.8 1.95q.05-.6.35-1.15l-1.3 1.05.55-1.4q.35-1 1.25-1.95l-.25-.3q-.75.4-2.1.75-.7-.3 0-1.95m-4.3-1.6.35.5.35.5.35-.9-1.05-.1m10.05-7.6h2.1q-.7 2.65-1 2.85l-.1-2L30.6-9l-.05-2.45v-.1m-9.7 20.3q.45 1.1.2 2.95l-.45 2.05-.15.45q-.3.25-1-.45l-.05-.05-.45-.65-.1.05q-.95.1-1.15-.4-.15-.3-.15-1l-.1.25q-.25.35-1.6.4-1.4.05-1.95-1.55l-.6-1.75 1.15-.4q-.3-.6-.45-1.55.3-.4 1.7.5 1.35.85 1.65 2.4l.15.8V9.45q0-2.6 1.05-3.15.6-.35 1.15-.6l.1 1.4.45.65.6-.1v1.1M1.3 18l-.45 1.6q-.25.1-1.35-.65-1.05-.8-1.05-2.4V14.8l.95.4.05-1.5h.2l1 1.4q.8 1.5.65 2.9m2.9-2-.3 1.25.15.65.55.3-.35 1.05q0 1.05-.6 2.2L2.5 23.1q-.25.05-.65-1.05l-.15-.7q-.8-.5-.85-1.05 0-.55.7-2.65.7-2.05 1.65-1.85l1 .2M2 23.9l-.1 1.05 1.7.1q1.7.55 2.05 1.05l-.65.7L6.3 28l-.85.65-1.25.15.85 1.75q1.3 3 1.3 3.85-.55-.1-1-.55l.55 2.8-1.25-.9q-1.15-.85-1.95-4.1l-.45-1.85-.05-.05.15 1q.15 1.9-.8 2.8-1 .9-1.4.35-.2-1.2-.1-1.9l-1.15-.6v-2.1q0-1.45.65-1.7l.2-.05-.85-.25q-1.75-.8-1.95-1.85.4-1.1.9-1.5l-1.05-2-.65-.55-1.75-1.75 1 .35-.95-1.2 1.2.5q.8.3 1.65 1.15l.25-.25-.75-1.95q.15-.65 1.6 0 1.4.65 2.05 2.65l.05.2q1.35 1.95 1.5 2.8m10.8-10.1V13.65q-.95-.1-1.55-.6l-.1 2.95.8-.25 2.1-.1.2-.45-1.45-1.4M-.3-18.75l-1 .05-.05 1.45-2.05.15.7 1.25q.05.5-1.05.8l-.15.05h.05l1.1.55-.2.35 1.1-.35q.45.05 1.15.65Q-1-15-.65-17l.35-1.75M.2 27.6h.1l.75.25L1 27.6l-.05-.2-.05-.3q-.4.4-.9.45l.2.05m-6.5-41.8q.1.3-.1 1l.05-.15.5-.7-.6-.45v.05l.15.25m-7.15-5.75q-.2.95-.7 1.05-.6.05-3.15-.65-2.55-.75-2.8-1.85l-.25-1.25 1.25.25.85-.25.05-.6 1.05.25q1.2-.15 2.85.6l2.3 1.25q.15.3-.75.85l-.7.25v.1m-5.4 3.2h-1.6q-.35-.4.9-1.5 1.2-1.1 2.75-.95l1.9.35q.3.3 0 1.7-.3 1.35-2.05 1.45l-1.85.15-.05-1.2m4.55 2.9h-.05l.7.55.95 1v-.25q-.05-.8.25-1.65l.1-.2.1-.25-.35-.2q-.55.5-1.7 1m2.4 1.7-.35.5.15.25.3-.2v-.2l-.1-.35m-7.25 4.9h1.75l-.4.95 1.5.05q.1.35-1.4 1.2-1.25.65-2.35.65l-.05-2.75.95-.1m-.8 5.45-.1-2.25q1.8.65 1.65 1.55l-.25 1-1.25-.3h-.05m12-8.7.2-.5-.95.2.1.9v.35q.9 2.6.8 3.55-.05.5-.45 1.25.65-.1 1.65.45l.15-.55q.3-1.35 1.15-2.55l-.2-.35Q-6.55-6.7-6.85-6.7q-.25 0-.35-.7l-.35.05q-.65-.5-.25-2.3-.25-.45-.15-.85m3.2 6.4.9.2-.65-.65-.25.45m-.95 0-.25.2.15.1.1-.3m.6.5-.15.2.25.2.2-.2-.3-.2M-2 .5l1.35.2h.1l-.1-.2H-2m-17.75 4.6v-.05l.45 1.15.5-1.4.4 1.45q.3.9.15 2.1l.45.2 1.35-1.45q.8-.05 1.3 1.65.45 1.7-1.05 3.05l-.35.25q-.85 1.9-1.5 2.3l-.6.15.15.9.55 1.1q.8 1.9.55 2.45l-1.2-.45-.15 1.75-.6-.25-.4-14.9m8.45 3.65 1.55-.45q.4.3-.45 1.7-.9 1.35-2.45 1.65l-.75.15h1.3q2.6 0 3.15 1.05l.45.85.15.3-1.35.1-.65.45.1.6h-1.15l-2.8.2h-.1l-2.55-.6q-.25-.3.5-1.05l.65-.45v-.1q-.15-.95.4-1.15l1-.15-.25-.1q-.4-.25-.45-1.6-.05-1.4 1.6-1.95l1.75-.6.35 1.15" transform="translate(25.15 31.9)"/><path stroke-width="3" stroke-linejoin="round" stroke-linecap="round" stroke="#737818" fill="none" d="M36.45 10.35q.5-.35 1.8 1.1 1.3 1.4 1.2 3.3-.15 1.9-.5 2.3l-2-.05q-.6-.15-1-.5l-.1.25q1.7.25 2.65 2.15l.15.35q2 1.65 2.25 2.55l.05.65 1.3.15 1.2-.25 3 .15q-.35.8-.85 1.25l1.95.7-1.2 1.4q-.65.75-1.75.9l.65.7q.3-.4 1.3-.95 1.6-.9 3.1-.55l.85.2-1.25-.55q-2.2-1.05-2-2.15l.25-1.2 1.2.4.85-.15.25-.55q.4 0 1 .4 1.2.05 2.5.95l1.75 1.5-1.1.7-.75.15-.05.05q-.5.9-1.05.95l-.9-.25.15.15q.15.35-.65 1.65-.85 1.2-2.6 1.1l-1.6-.1q1.6 2.4 1.65 3.35l-1.5-.1 1 3.25-1.8-.4q-1.75-.4-3.25-4.05l-.8-2.1-.15-.2.35 1.45q.4 2.25-.95 4l-.55.7.2.2q-.85.65-1.75.9l2.3 1.4-2.2.9-2.7.25 1 2.1q1.05 2.75 1.05 4.1.4-.3 1.2-.5 1.7-.5 3.05 1.05l.15.15.1.15q1.9.85 2.3 1.55l.15.55.9-.15 1.1-.55q1.9-.8 2.45-.55l-.45 1.25 1.75.15-.65 1.35q-.4.75-1.25 1.1l1.45 1.05q2.35 2 2.65 2.9l-1.25.2 1.5 2.4-1.55.05q-1.5.05-3.45-2.55L47.5 53.1l-.1-.05.5.95q.85 1.7.15 3.45l-.35.7.2.15-1.2 1.1 2.15.65-1.6 1.2q-.9.65-2.2.8l1.35 1.5q1.9 2.65 1.8 3.65l-1.7-.15.65 2.85-2-.35q-1.9-.35-3-3.6l-.65-1.9-.05-.1.15 1.2q.15 2-1.7 3.55-1.85 1.5-2.5 1.1-.15-1.25.05-2.05l-1.95-.1.25-2.35q.2-2.2 2.45-2.55l1.5-.2-.1-.45-.05-.3q-1.4 1.25-3.6 1.25Q33.05 63 32.8 62q.85-1.45 1.7-2.15l-1.65-1.8-.95-.25q-2.6-.75-2.8-1.05l1.65-.1-1.45-.9 2-.05 2.8.5.35-.35q-.6-.6-1.05-1.8.35-.85 2.8-.8 2.35 0 3.25 1.9l.1.2q2.05 1.5 2.2 2.35l-.3 1.2q1.05-.55 3.05-.75l1.8-.1-.35-.95-1.4.3-.65-1.95-1.05 1.05q-.45.15-1.05-.8l-.2-.75h-.1q-1.3-.15-1.35-.7l.4-1.15-.3.35q-.5.3-2.3 0-1.8-.35-1.6-2.15l.2-1.95.65-.05-1.3-.3q.55-.3 1.15-.4l-.8-.3v.15l-.6-.3-1.6-.8q-1.05-.5-1.65-1.7-.6-1.3-.75-3.35l-.1-2.2-.1-.25-.2 1.4q-.45 2.35-3.05 3.55-2.6 1.15-3.25.5.25-1.5.75-2.35l-2.25-.7 1-2.65q.9-2.5 3.65-2.25l1.8.3v-.55l.05-.4q-2.05 1.05-4.55.35-2.3-.65-3-1.45l-.2-.05q-1.9-.55-1.3-1.7l.5-.85-.55-.05h-.35q.65.95-.3 2.05-.6.7-1.15 1.05.3 2.6.1 3.45l-1-1-.2 3.4-1.15-1.4q-1.05-1.25-1-5.15l-.55.15q-.5 1.05-1.4 1.55-1.4.7-1.75 0l-.45.2.55-.85-1.4.55.8-1 .9-.85.1-.3-.3-.3-1.4.1q-.6-.35.4-1.55l.4-.4.05-.1-2.1.05L8 32.15l.6-.8q-.65-.15-1.4-.45-.05-.4 1.65-.8l3 .15.55.2-.85-.55q-1.8-1.2-1.35-2.05l.45-.9.65.35q-.35-.6-.3-1.15l1.55-1.45-.6-2.65-.6-.85q-1.4-2.1-1.4-2.55l1 .7-.7-1.7.15.05q-.35-.45-.35-1.55-.05-1.8 1.8-2.65l.2-.1q1.4-1.8 2.2-2h.55l.1-.95-.25-1.1q-.25-2.1.15-2.5.65.25 1.05.7l.6-1.65 1.15 1q.65.55.75 1.5l1.45-1.15q2.5-1.8 3.4-1.85.2.7-.05 1.3l2.65-.85-.3 1.5q-.35 1.45-3.4 2.7l-1.65.65-.05.05.95-.25q1.9-.35 3.4.8l.6.5.15-.15.75 1.45 1.2-1.9.75 1.85q.4 1 .15 2.3l1.8-.85q3.05-1.2 4-.85-.1.95-.55 1.65l1.7.05-.1-.75-.15-2.25 1.45-.05q-.15-.8-.05-1.95m13.5 19.2q.65-1.7 2.75-2.3l.2-.05q2.1-1.5 2.95-1.6l1.2.25q-.3-.75.1-2.2.55-2.05 1.1-2.4l.75.85 1.2-1.5.75 1.1q.4.6.15 1.5l1.8-.85q3.15-1.4 4.1-1.3-.1.65-.6 1.2l3-.45-.95 1.4q-.9 1.3-4.35 2.1l-1.95.4-.2.1 1.2-.1q2-.1 3 1.2.95 1.25.4 1.75l-2-.05-.65 1.4-2.25-.2q-2.15-.15-1.85-1.7l.3-1.1-.45.05-.45.05q.95 1 .3 2.6-.85 2-1.95 2.2-1.15-.65-1.6-1.2l-2.1 1.05-.6.8-1.8 1.95q.05-.6.35-1.15l-1.3 1.05.55-1.4q.35-1 1.25-1.95l-.25-.3q-.75.4-2.1.75-.7-.3 0-1.95m7.85-9.2q-.7 2.65-1 2.85l-.1-2-.95 1.7-.05-2.45v-.1M27.15 55.8l-.1 1.05 1.7.1q1.7.55 2.05 1.05l-.65.7 1.3 1.2-.85.65-1.25.15.85 1.75q1.3 3 1.3 3.85-.55-.1-1-.55l.55 2.8-1.25-.9q-1.15-.85-1.95-4.1l-.45-1.85-.05-.05.15 1q.15 1.9-.8 2.8-1 .9-1.4.35-.2-1.2-.1-1.9l-1.15-.6v-2.1q0-1.45.65-1.7l.2-.05-.85-.25q-1.75-.8-1.95-1.85.4-1.1.9-1.5l-1.05-2-.65-.55-1.75-1.75 1 .35-.95-1.2 1.2.5q.8.3 1.65 1.15l.25-.25-.75-1.95q.15-.65 1.6 0 1.4.65 2.05 2.65l.05.2q1.35 1.95 1.5 2.8M5.2 30.1h.05l1.25.3.25-1q.15-.9-1.65-1.55m.7 24.05.6.25.15-1.75 1.2.45Q8 50.3 7.2 48.4l-.55-1.1-.15-.9.6-.15q.65-.4 1.5-2.3l.35-.25q1.5-1.35 1.05-3.05-.5-1.7-1.3-1.65l-1.35 1.45-.45-.2q.15-1.2-.15-2.1l-.4-1.45-.5 1.4-.45-1.15V37"/><path fill-rule="evenodd" fill="#82a826" d="M-17.05-6.4h2.1q1.65 0 1.75.9l.25-.9q.8-1.75 1.85-1.95l1.55.9 2-1.05.55-.65 1.75-1.75-.35 1 1.2-.95-.5 1.2q-.35.8-1.15 1.65l.2.25 1.95-.75q.65.15.05 1.6-.7 1.4-2.65 2.05l-.2.05-2.8 1.5-1.1-.1q.25.6-.1 1.7-.55 1.7-1.05 2.05l-.7-.65L-13.6 1l-.7-.85q-.4-.5-.15-1.25-.7.4-1.75.85-3 1.3-3.85 1.3.1-.55.55-1l-2.75.55.85-1.25q.85-1.15 4.15-1.95l1.8-.45.05-.05-1 .15q-1.9.15-2.8-.8-.9-1-.35-1.4l1.9-.1.6-1.15m3.85 1.3-.25.85.4-.1.3-.05q-.4-.4-.45-.9v.2m10.85 25.5-.8-.4q-.75-.4-1.1-1.25L-5.3 20.2q-2 2.35-2.85 2.65l-.25-1.25-2.35 1.5-.1-1.55q-.05-1.5 2.6-3.45l1.45-1.05.05-.1-.95.5-3.45.15-.75-.35-.1.2-1.15-1.2-.6 2.15-1.2-1.6q-.7-.9-.8-2.2l-1.55 1.35q-2.65 1.9-3.6 1.8-.2-.95.1-1.7l-2.8.65.35-2q.3-1.9 3.55-3l1.95-.65.1-.05-1.25.15q-2 .15-3.5-1.7-1.55-1.85-1.15-2.5l2.1.05.05-1.95 2.35.25q2.2.2 2.6 2.45l.15 1.5.45-.1.35-.05q-1.3-1.4-1.3-3.6.05-2.9 1.05-3.15 1.45.85 2.15 1.7l1.85-1.65.25-.95q.7-2.6 1.05-2.8l.1 1.65.9-1.45v2q.05 1.35-.45 2.8l.3.35q.6-.6 1.8-1.05.85.35.85 2.8Q-7 8.1-8.85 9l-.25.1q-1.5 2.05-2.3 2.2l-1.25-.3q.55 1.05.75 3.05l.15 1.8.95-.35-.35-1.4 1.95-.65-1-1.05q-.2-.45.8-1.05l.7-.2v-.1q.15-1.3.75-1.35l1.15.4-.35-.3q-.35-.5 0-2.3.3-1.8 2.15-1.6l1.95.2v.65l.3-1.25.4 14.9m-.6-21.8-.6.15-.3.55-1-.35q-1.1 0-2.25-.6-1.55-.85-1.6-1.15-.1-.25 1-.65l.75-.15q.45-.8 1-.85l2.65.7.25.1.1 2.25M-5.2-4.45q-.15-.25.65-1.35l1.45-.95.05 2.75h-.55q-1.45-.2-1.6-.45" transform="translate(25.15 31.9)"/><path stroke-width="3" stroke-linejoin="round" stroke-linecap="round" stroke="#737818" fill="none" d="m8.1 25.5-.6 1.15-1.9.1q-.55.4.35 1.4.9.95 2.8.8l1-.15-.05.05-1.8.45q-3.3.8-4.15 1.95L2.9 32.5l2.75-.55q-.45.45-.55 1 .85 0 3.85-1.3 1.05-.45 1.75-.85-.25.75.15 1.25l.7.85 1.15-1.3.7.65q.5-.35 1.05-2.05.35-1.1.1-1.7l1.1.1 2.8-1.5.2-.05Q20.6 26.4 21.3 25q.6-1.45-.05-1.6l-1.95.75-.2-.25q.8-.85 1.15-1.65l.5-1.2-1.2.95.35-1-1.75 1.75-.55.65-2 1.05-1.55-.9q-1.05.2-1.85 1.95l-.25.9q-.1-.9-1.75-.9H8.1m14.3 11.9-.3 1.25V38l-1.95-.2q-1.85-.2-2.15 1.6-.35 1.8 0 2.3l.35.3-1.15-.4q-.6.05-.75 1.35v.1l-.7.2q-1 .6-.8 1.05l1 1.05L14 46l.35 1.4-.95.35-.15-1.8q-.2-2-.75-3.05l1.25.3q.8-.15 2.3-2.2l.25-.1q1.85-.9 1.9-3.25 0-2.45-.85-2.8-1.2.45-1.8 1.05l-.3-.35q.5-1.45.45-2.8v-2l-.9 1.45-.1-1.65q-.35.2-1.05 2.8l-.25.95-1.85 1.65q-.7-.85-2.15-1.7-1 .25-1.05 3.15 0 2.2 1.3 3.6l-.35.05-.45.1-.15-1.5q-.4-2.25-2.6-2.45l-2.35-.25-.05 1.95-2.1-.05q-.4.65 1.15 2.5 1.5 1.85 3.5 1.7l1.25-.15-.1.05-1.95.65q-3.25 1.1-3.55 3l-.35 2 2.8-.65q-.3.75-.1 1.7.95.1 3.6-1.8L9.4 46.5q.1 1.3.8 2.2l1.2 1.6.6-2.15 1.15 1.2.1-.2.75.35 3.45-.15.95-.5-.05.1L16.9 50q-2.65 1.95-2.6 3.45l.1 1.55 2.35-1.5.25 1.25q.85-.3 2.85-2.65l1.05-1.45q.35.85 1.1 1.25l.8.4m-.7-24.05-.25-.1-2.65-.7q-.55.05-1 .85l-.75.15q-1.1.4-1 .65.05.3 1.6 1.15 1.15.6 2.25.6l1 .35.3-.55.6-.15"/><path fill-rule="evenodd" fill="#82a826" d="M21.9-3.3q-.05-1.65.5-3.25l-.4-.5-1.9 1.2q-.9-.55-.9-3.5t2-3.85l.25-.1q1.6-2.45 2.45-2.55.45-.05 1.3.45-.6-1.35-.8-3.75l-.15-2.15-.9.25.35 1.75-2.1.65 1.05 1.35q.2.55-.8 1.2l-.8.2v.2q-.2 1.55-.8 1.55-.3-.05-1.05-.5l.25.3q.3.6-.05 2.8-.3 2.15-2.25 1.8l-2.05-.4v-.45l-.3 1.15-.45-1.4-.5 1.6-.5-1.75q-.3-1.2-.15-2.55l-.4-.25q-.45.75-1.45 1.65-.85 0-1.35-2.1-.55-2.15 1.05-3.6l.25-.25q.95-2.4 1.7-2.8l.5-.15-.15-1.3.05.05-.55-1.25q-.9-2.45-.6-3.05.75.15 1.3.6l.15-2.1 1.45.9q.8.5 1.2 1.6l1.1-1.65q2.1-2.7 3-3 .4.75.3 1.55l2.5-1.7.05 1.95q.1 1.75-2.7 4l-1.55 1.2-.1.15 1.1-.55 3.65.1.7.45.15-.2 1.15 1.55.65-2.55 1.3 2q.7 1.15.85 2.75.6-.75 1.6-1.45 2.8-2.15 3.85-2 .2 1.2-.1 2.1l3-.55-.4 2.4q-.35 2.3-3.75 3.4l-2.05.6-.1.1 1.3-.05q2.1-.05 3.75 2.3 1.65 2.35 1.25 3.15l-2.2-.2-.1 2.35-2.5-.45q-2.35-.45-2.75-3.2l-.2-1.9-.45.1-.35.05q1.35 1.8 1.35 4.45 0 3.55-1.1 3.8-1.55-1.2-2.3-2.25L24.4-4.95l-.3 1.2-.1.45h-2.1M9.3-18q.4.3.5 2.05 0 .9-.45 1.45l-.1-3.55.05.05m1.15-1.75.05.15q.1 1.15-.4 1.4l-.85.1-.15-4.25q2.2.55 2.55.9.25.3-.55 1.2l-.65.5m0 9.15-.35 1.35q.15 1.25-.5 3l-.15-5.3.3.9.7.05m-1-1.1-.05-1.4.3-.05-.25 1.45" transform="translate(25.15 31.9)"/><path stroke-width="3" stroke-linejoin="round" stroke-linecap="round" stroke="#737818" fill="none" d="m49.15 28.6.1-.45.3-1.2 1.85-1.85q.75 1.05 2.3 2.25 1.1-.25 1.1-3.8 0-2.65-1.35-4.45l.35-.05.45-.1.2 1.9q.4 2.75 2.75 3.2l2.5.45.1-2.35 2.2.2q.4-.8-1.25-3.15-1.65-2.35-3.75-2.3l-1.3.05.1-.1 2.05-.6q3.4-1.1 3.75-3.4l.4-2.4-3 .55q.3-.9.1-2.1-1.05-.15-3.85 2-1 .7-1.6 1.45-.15-1.6-.85-2.75l-1.3-2-.65 2.55L49.7 8.6l-.15.2-.7-.45-3.65-.1-1.1.55.1-.15 1.55-1.2q2.8-2.25 2.7-4L48.4 1.5l-2.5 1.7q.1-.8-.3-1.55-.9.3-3 3L41.5 6.3q-.4-1.1-1.2-1.6l-1.45-.9-.15 2.1q-.55-.45-1.3-.6-.3.6.6 3.05l.55 1.25-.05-.05.15 1.3-.5.15q-.75.4-1.7 2.8l-.25.25q-1.6 1.45-1.05 3.6.5 2.1 1.35 2.1 1-.9 1.45-1.65l.4.25q-.15 1.35.15 2.55l.5 1.75.5-1.6.45 1.4.3-1.15v.45l2.05.4q1.95.35 2.25-1.8.35-2.2.05-2.8l-.25-.3q.75.45 1.05.5.6 0 .8-1.55V16l.8-.2q1-.65.8-1.2l-1.05-1.35 2.1-.65-.35-1.75.9-.25.15 2.15q.2 2.4.8 3.75-.85-.5-1.3-.45-.85.1-2.45 2.55l-.25.1q-2 .9-2 3.85t.9 3.5l1.9-1.2.4.5q-.55 1.6-.5 3.25"/></g><g id="k"><path fill-rule="evenodd" fill="#8eba22" d="m-.75-3.65.95-1.2q.6.05 1.1 1.75.45 1.7-.6 2.75Q-.35.75-.85.75q-.55 0-1.8-1.2Q-3.95-1.65-3-3l.95-1.45 1.3.8" transform="translate(3.5 4.95)"/><path stroke-width=".25" stroke-linejoin="round" stroke-linecap="round" stroke="#91a420" fill="none" d="M2.75 1.3 3.7.1q.6.05 1.1 1.75.45 1.7-.6 2.75-1.05 1.1-1.55 1.1-.55 0-1.8-1.2Q-.45 3.3.5 1.95L1.45.5"/></g><path fill-rule="evenodd" d="M4.5-2.3 3.75.55l-8.25 1.8L.35-1.9l4.15-.4" transform="translate(4.5 2.3)" id="e"/><path fill-rule="evenodd" fill="#554d1e" d="M9.2-4.65 7.9-8.4l1.45-.4 1.8 3.3 1.5-.25L14.5-8.7l1 .65-.95 2.95 4.15 2.15-.5 1.65-3.05-.7Q6.85 2.55-1.3 3.25l.8-7.05q4.05 2 8.9 1.6l.8-2.45" transform="translate(1.3 8.8)" id="g"/><path stroke-opacity=".8" stroke-linejoin="round" stroke-linecap="round" stroke="#000" fill="none" d="M0 .6Q1.5-.7 1.85.9M5.8 2.7q-1.45-2-2.85-.8" transform="translate(.5 .5)" id="b"/><path fill-rule="evenodd" fill-opacity="0" fill="#f0f" d="M0 0h102.95v45H0V0" id="c"/><use xlink:href="#a" width="10.55" height="44.6" id="h"/><use xlink:href="#b" width="6.8" height="3.7" id="i"/><use xlink:href="#c" width="102.95" height="45" id="l"/></defs><path fill="none" d="M-1-1h197v263H-1z"/><g><use x="116.05" y="270.5" xlink:href="#d" width="381" transform="translate(-192.55 -294)" height="381"/><use x="-184.752" y="61.683" xlink:href="#e" width="9" transform="matrix(-2.1003 -.8263 -4.4094 1.9104 -5.507 -20.876)" height="4.65"/><use xlink:href="#e" width="9" transform="matrix(-2.0869 1.0231 -.1151 2.8979 122.656 226.88)" height="4.65"/><use x="32.183" y="87.837" xlink:href="#f" width="6.2" transform="scale(-3.1465 3.1465) rotate(43.343 23.897 -5.79)" height="6.25"/><use x="-103.881" y="-184.19" xlink:href="#g" width="20" transform="scale(1.392 -1.392) rotate(52.643 -52.402 22.659)" height="12.05"/><use x="24.115" y="-7.298" xlink:href="#h" width="10.55" transform="matrix(-3.1516 0 0 3.1516 189.628 122.857)" height="44.6"/><use x="-17.996" y="-210.267" xlink:href="#g" width="20" transform="matrix(-1.324 .4386 -.4386 -1.324 -26.219 -62.52)" height="12.05"/><use x="24.115" y="-7.298" xlink:href="#i" width="6.8" transform="matrix(-3.1516 0 0 3.1516 187.026 194.724)" height="3.7"/><use x="59.289" y="92.339" xlink:href="#j" width="70.9" transform="matrix(-1.5679 2.1208 2.2635 1.5677 -36.224 -290.998)" height="71.4"/><use x="-.65" y="86.158" xlink:href="#k" width="5.05" transform="matrix(-3.8517 -.7287 1.3179 3.1341 -2.343 -232.913)" height="5.8"/><use x="72.975" y="85.615" xlink:href="#k" width="5.05" transform="matrix(-1.5699 1.1489 2.6936 2.1802 -28.089 -237.213)" height="5.8"/><use x="-160.995" y="21.626" xlink:href="#k" width="5.05" transform="matrix(-1.1365 -1.8856 -3.0945 -1.5293 18.545 -200.58)" height="5.8"/><use x="107.808" y="-93.502" xlink:href="#k" width="5.05" transform="matrix(3.2749 1.4326 2.5348 -1.2412 -37.71 -217.67)" height="5.8"/><use x="36.017" y="61.307" xlink:href="#k" width="5.05" transform="matrix(4.8405 2.6636 -.9508 2.8474 -12.035 -236.767)" height="5.8"/><use x="-9.647" y="17.992" xlink:href="#k" width="5.05" transform="matrix(2.3266 2.9696 -2.9767 .3139 212.292 75.103)" height="5.8"/><use x="-146.925" y="72.684" xlink:href="#k" width="5.05" transform="matrix(1.0198 -1.3908 3.6581 .9102 -31.327 -214.238)" height="5.8"/><use x="45.294" y="-81.377" xlink:href="#k" width="5.05" transform="matrix(-3.9169 -1.2055 -3.6062 -3.995 37.91 -183.655)" height="5.8"/><use x="-61.969" y="10.403" xlink:href="#k" width="5.05" transform="matrix(1.4149 .9491 1.1228 3.4429 177.09 48.936)" height="5.8"/><use x="30.11" y="-16.577" xlink:href="#k" width="5.05" transform="matrix(-2.1271 -2.263 .7211 -2.7229 197.975 102.049)" height="5.8"/><use x="18.135" y="4.478" xlink:href="#k" width="5.05" transform="matrix(-3.9685 -2.0617 -.9004 3.2129 158.897 107.562)" height="5.8"/><use x="7.136" y="92.443" xlink:href="#k" width="5.05" transform="matrix(-2.7494 .4164 1.4676 2.894 -60.142 -199.183)" height="5.8"/><use x="-24.488" y="29.658" xlink:href="#k" width="5.05" transform="matrix(.1369 -2.0605 -2.4495 -2.4768 158.196 143.422)" height="5.8"/><use x="107.432" y="-44.984" xlink:href="#k" width="5.05" transform="matrix(2.7378 2.4597 3.9587 -.1389 -86.778 -185.821)" height="5.8"/><use x="53.726" y="23.404" xlink:href="#k" width="5.05" transform="matrix(3.6191 4.1103 -3.3494 2.1224 -41.537 -192.842)" height="5.8"/><use x="-1.842" y="20.043" xlink:href="#k" width="5.05" transform="matrix(.4171 3.444 -3.7536 -.831 174.17 128.61)" height="5.8"/><use x="-91.554" y="90.533" xlink:href="#k" width="5.05" transform="matrix(2.2906 -.8308 3.5983 2.1477 -81.979 -180.423)" height="5.8"/><use x="2.266" y="-1.178" xlink:href="#k" width="5.05" transform="matrix(-3.6722 -2.5003 -1.1224 -4.8099 98.708 142.36)" height="5.8"/><use x="153.243" y="18.676" xlink:href="#k" width="5.05" transform="matrix(.9245 1.3497 -1.372 3.4091 -38.944 -200.749)" height="5.8"/><use x="-107.6" y="12.396" xlink:href="#k" width="5.05" transform="matrix(-.7351 -2.7558 2.9812 -2.0994 -55.884 -146.813)" height="5.8"/><use x="-26.697" y="62.511" xlink:href="#k" width="5.05" transform="matrix(-4.9089 -.168 -.24 4.2555 .92 -197.027)" height="5.8"/><use x="27.057" y="84.526" xlink:href="#k" width="5.05" transform="matrix(-2.963 2.0356 2.3214 2.5486 -32.27 -197.34)" height="5.8"/><use x="-93.531" y="-25.502" xlink:href="#k" width="5.05" transform="matrix(-.3367 -2.4808 -3.3158 -1.5085 8.641 -154.8)" height="5.8"/><use x="100.801" y="-57.167" xlink:href="#k" width="5.05" transform="matrix(3.6328 1.3261 4.3756 -2.3935 -58.724 -166.643)" height="5.8"/><use x="44.874" y="33.659" xlink:href="#k" width="5.05" transform="matrix(5.0061 2.7547 -3.2263 4.3639 -10.051 -200.393)" height="5.8"/><use x="73.063" y="-5.113" xlink:href="#k" width="5.05" transform="matrix(1.282 3.7825 -4.3774 1.1465 22.931 -181.114)" height="5.8"/><use x="-102.933" y="79.328" xlink:href="#k" width="5.05" transform="matrix(2.3537 -2.2603 4.517 .477 -52.147 -163.1)" height="5.8"/><use x="15.189" y="2.037" xlink:href="#k" width="5.05" transform="matrix(-4.683 -.8467 -2.3916 -4.9782 216.53 158.856)" height="5.8"/><use x="-52.661" y="6.835" xlink:href="#k" width="5.05" transform="matrix(1.3499 1.0533 -.7187 4.7502 183.033 82.45)" height="5.8"/><use x="-88.853" y="-5.249" xlink:href="#k" width="5.05" transform="matrix(-1.4728 -2.8004 2.8217 -4.1295 -15.063 -138.608)" height="5.8"/><use x="17.593" y="31.685" xlink:href="#k" width="5.05" transform="matrix(.5359 -3.0592 -2.6962 .9727 215.32 91.192)" height="5.8"/><use x="44.443" y="16.248" xlink:href="#k" width="5.05" transform="matrix(-1.041 -1.284 -1.83 2.0965 218.452 70.766)" height="5.8"/><use x="218.043" y="-188.187" xlink:href="#k" width="5.05" transform="matrix(1.6134 -.8597 1.2527 -2.4335 -4.348 -186.395)" height="5.8"/><use x="13.324" y="114.767" xlink:href="#k" width="5.05" transform="matrix(-1.1638 2.5802 1.1463 2.0574 9.1 -230.915)" height="5.8"/><use x="51.195" y="-91.218" xlink:href="#k" width="5.05" transform="matrix(-2.196 3.7997 -2.5047 -.8329 26.384 -209.876)" height="5.8"/><use x="-27.398" y="-133.797" xlink:href="#k" width="5.05" transform="matrix(-2.527 1.7829 -.3499 -2.3868 11.226 -184.576)" height="5.8"/><use x="125.626" y="56.428" xlink:href="#k" width="5.05" transform="matrix(1.2377 .8507 -.6989 2.8998 6.278 -225.931)" height="5.8"/><use x="-157.63" y="78.443" xlink:href="#k" width="5.05" transform="matrix(.9495 -3.0991 3.3874 -2.7792 -18.64 -171.396)" height="5.8"/><use x="-49.041" y="38.638" xlink:href="#k" width="5.05" transform="matrix(-.7904 1.1063 -2.9702 .8089 225.12 81.374)" height="5.8"/><use x="1.138" y="-32.707" xlink:href="#k" width="5.05" transform="matrix(1.9166 -1.6416 2.3903 .6461 179.41 96.747)" height="5.8"/><use x="-65.981" y="-80.736" xlink:href="#k" width="5.05" transform="matrix(1.694 -3.1183 -2.8218 -.802 -18.46 -228.116)" height="5.8"/><use x="23.598" y="26.488" xlink:href="#k" width="5.05" transform="matrix(-.4333 -2.2077 -2.4832 1.0985 184.458 44.19)" height="5.8"/><use x="209.946" y="-124.853" xlink:href="#k" width="5.05" transform="matrix(1.7984 .1622 2.0946 -1.8938 -49.712 -229.594)" height="5.8"/><use x="-43.678" y="114.714" xlink:href="#k" width="5.05" transform="matrix(-2.0723 2.1246 .2226 3.167 -19.949 -270.913)" height="5.8"/><use x="13.84" y="-84.927" xlink:href="#k" width="5.05" transform="matrix(-3.4875 2.7865 -1.9348 -2.731 -12.617 -234.634)" height="5.8"/><use x="27.52" y="9.986" xlink:href="#k" width="5.05" transform="matrix(-2.9893 .2449 .6275 -2.9782 155.707 77.085)" height="5.8"/><use x="146.975" y="-.586" xlink:href="#k" width="5.05" transform="matrix(.7825 1.8517 -1.7784 2.8203 -24.486 -267.291)" height="5.8"/><use x="1.076" y="-2.702" xlink:href="#k" width="5.05" transform="matrix(2.0837 -2.8702 4.161 -.7734 56.51 48.974)" height="5.8"/><use x="194.115" y="-113.036" xlink:href="#k" width="5.05" transform="matrix(-1.1519 .7041 -3.0048 -1.1839 -5.744 -232.354)" height="5.8"/><use x="-34.282" y="103.763" xlink:href="#k" width="5.05" transform="matrix(2.3817 -.5167 1.9053 2.4362 -53.117 -247.25)" height="5.8"/><use x="4.295" y="20.492" xlink:href="#k" width="5.05" transform="matrix(.0203 -3.9184 -3.713 -.3011 184.158 92.855)" height="5.8"/><use x="-92.776" y="25.695" xlink:href="#k" width="5.05" transform="matrix(-1.8492 -2.42 -2.1604 1.7896 -8.434 -227.088)" height="5.8"/><use x="-1.946" y=".153" xlink:href="#k" width="5.05" transform="matrix(2.1523 -.2054 1.2289 -2.6109 75.534 74.943)" height="5.8"/><use x="17.999" y="61.513" xlink:href="#k" width="5.05" transform="matrix(-1.0618 2.8689 2.1973 3.558 -35.86 -249.054)" height="5.8"/><use x="34.552" y="-50.08" xlink:href="#k" width="5.05" transform="matrix(-2.2711 3.9296 -3.8842 -2.6902 -5.225 -209.287)" height="5.8"/><use x="19.346" y="11.606" xlink:href="#k" width="5.05" transform="matrix(-3.2619 .9273 -1.1111 -3.5274 170.917 110.065)" height="5.8"/><use x="-4.108" y="2.214" xlink:href="#k" width="5.05" transform="matrix(2.0293 1.9388 -.2995 3.5973 86.23 26.607)" height="5.8"/><use x="-92.093" y="40.444" xlink:href="#k" width="5.05" transform="matrix(.6173 -3.7204 4.275 -1.7833 -61.622 -183.4)" height="5.8"/><use x="-8.561" y="20.105" xlink:href="#k" width="5.05" transform="matrix(-.8829 1.0516 -4.1562 -.6962 196.063 85.316)" height="5.8"/><use x="-73.9" y="79.987" xlink:href="#k" width="5.05" transform="matrix(2.4015 -1.105 3.6696 2.3609 -59.17 -214.919)" height="5.8"/><use x="-28.965" y="83.048" xlink:href="#k" width="5.05" transform="matrix(-2.9638 -1.3787 .3637 2.7763 53.873 -161.117)" height="5.8"/><use x="29.94" y="-17.73" xlink:href="#k" width="5.05" transform="matrix(-1.534 .5931 1.6961 2.2988 226.023 123.645)" height="5.8"/><use x="-130.033" y="-23.667" xlink:href="#k" width="5.05" transform="matrix(-.4978 -1.7414 -2.1684 -1.8617 63.526 -130.94)" height="5.8"/><use x="128.32" y="-78.595" xlink:href="#k" width="5.05" transform="matrix(2.3367 1.8218 2.3385 -.4673 21.746 -156.263)" height="5.8"/><use x="54.969" y="47.402" xlink:href="#k" width="5.05" transform="matrix(3.3307 3.129 -1.4142 2.078 46.893 -166.188)" height="5.8"/><use x="94.774" y="-.171" xlink:href="#k" width="5.05" transform="matrix(1.22 2.8535 -2.4883 -.3649 68.997 -144.881)" height="5.8"/><use x="-137.66" y="98.792" xlink:href="#k" width="5.05" transform="matrix(1.1418 -.9002 2.7657 1.4837 26.113 -152.144)" height="5.8"/><use x="11.666" y="-73.955" xlink:href="#k" width="5.05" transform="matrix(-2.9093 -1.7731 -2.0281 -3.9373 75.422 -113.404)" height="5.8"/><use x="116.908" y="49.503" xlink:href="#k" width="5.05" transform="matrix(.9352 1.0508 .1357 2.9827 46.255 -172.992)" height="5.8"/><use x="-108.396" y="-13.256" xlink:href="#k" width="5.05" transform="matrix(-1.2173 -2.2477 1.1995 -2.026 51.273 -126.304)" height="5.8"/><use x="21.106" y="12.218" xlink:href="#k" width="5.05" transform="matrix(-2.7582 -2.4678 -1.4556 2.3805 210.309 163.554)" height="5.8"/><use x="31.278" y="-5.973" xlink:href="#k" width="5.05" transform="matrix(-2.3268 -.2359 .5395 2.6154 191.473 147.38)" height="5.8"/><use x="-41.641" y="36.36" xlink:href="#k" width="5.05" transform="matrix(.5757 -1.6177 -1.4309 -2.4852 201.668 192.064)" height="5.8"/><use x="-2.967" y="-21.885" xlink:href="#k" width="5.05" transform="matrix(1.6689 2.5312 3.2464 .7078 166.789 152.587)" height="5.8"/><use x="-10.042" y="17.441" xlink:href="#k" width="5.05" transform="matrix(2.0126 4.0321 -3.1987 1.0028 205.09 156.324)" height="5.8"/><use x="69.355" y="-51.172" xlink:href="#k" width="5.05" transform="matrix(-.4377 2.8376 -2.8611 -1.4402 25.995 -110.003)" height="5.8"/><use x="-23.796" y="-11.187" xlink:href="#k" width="5.05" transform="matrix(2.0476 -.1899 2.4382 2.4599 169.415 157.838)" height="5.8"/><use xlink:href="#k" width="5.05" transform="matrix(-2.4186 -2.7569 .1729 -4.0746 128.46 188.518)" height="5.8"/><use x="227.75" y="-7.627" xlink:href="#k" width="5.05" transform="matrix(.4465 1.2694 -1.8828 2.4396 16.907 -142.92)" height="5.8"/><use xlink:href="#k" width="5.05" transform="matrix(.0243 -2.3536 2.8945 -1.0605 107.087 167.137)" height="5.8"/><use x="2.151" y=".439" xlink:href="#k" width="5.05" transform="matrix(-3.9489 -1.1495 -1.1543 3.3499 173.435 139.741)" height="5.8"/><use x="7.326" y="104.557" xlink:href="#k" width="5.05" transform="matrix(-2.8653 1.0134 1.3107 2.5161 21.59 -138.851)" height="5.8"/><use x="-77.696" y="-58.762" xlink:href="#k" width="5.05" transform="matrix(.2858 -2.0514 -2.3528 -1.8909 45.196 -96.41)" height="5.8"/><use x="121.416" y="-50.295" xlink:href="#k" width="5.05" transform="matrix(2.6514 1.8107 4.0933 -1.0071 -6.842 -119.852)" height="5.8"/><use x="60.92" y="26.025" xlink:href="#k" width="5.05" transform="matrix(3.4446 3.236 -3.6041 2.8189 40.284 -136.73)" height="5.8"/><use x="-7.06" y="19.58" xlink:href="#k" width="5.05" transform="matrix(.1884 3.2868 -3.8136 .0105 254.768 178.994)" height="5.8"/><use x="-102.855" y="102.52" xlink:href="#k" width="5.05" transform="matrix(2.4211 -1.3189 3.561 1.3153 -2.35 -115.645)" height="5.8"/><use x="2.663" y="-.756" xlink:href="#k" width="5.05" transform="matrix(-3.6124 -1.6449 -.82 -4.4715 178.552 194.491)" height="5.8"/><use x="174.643" y="20.509" xlink:href="#k" width="5.05" transform="matrix(.8588 1.1207 -1.6546 3.6461 43.484 -145.02)" height="5.8"/><use x="-122.045" y="14.621" xlink:href="#k" width="5.05" transform="matrix(-.5648 -2.5417 3.2226 -2.7153 22.225 -88.363)" height="5.8"/><use x="-11.187" y="-31.533" xlink:href="#k" width="5.05" transform="matrix(-1.3489 2.7976 2.8887 -.2631 180.022 73.86)" height="5.8"/><use x="180.003" y="-1.685" xlink:href="#k" width="5.05" transform="matrix(.6667 1.4882 2.349 -1.5545 -20.56 -200.814)" height="5.8"/><use x="69.053" y="-25.853" xlink:href="#k" width="5.05" transform="matrix(-1.8037 .4234 -1.8779 2.0205 211.258 65.566)" height="5.8"/><use x="20.592" y="-139.879" xlink:href="#k" width="5.05" transform="matrix(1.831 -2.1831 -.5601 -2.2552 -5.936 -188.696)" height="5.8"/><use x="-38.271" y="107.137" xlink:href="#k" width="5.05" transform="matrix(3.1659 -3.0953 2.2141 1.4191 -17.09 -213.091)" height="5.8"/><use xlink:href="#k" width="5.05" transform="matrix(2.9431 -1.0812 -.3046 2.3732 120.557 36.937)" height="5.8"/><use x="-166.951" y="-31.95" xlink:href="#k" width="5.05" transform="matrix(-.9754 -1.1218 1.4646 -2.6045 -1.836 -192.731)" height="5.8"/><use xlink:href="#k" width="5.05" transform="matrix(-1.7625 2.7333 -4.0503 1.8222 153.168 31.714)" height="5.8"/><use x="-319.657" y="147.114" xlink:href="#k" width="5.05" transform="matrix(1.0689 -.8638 3.1114 -.0382 -24.242 -212.688)" height="5.8"/><use x="85.582" y="-145.726" xlink:href="#k" width="5.05" transform="matrix(-2.3104 1.0973 -2.1532 -1.2118 24.445 -215.992)" height="5.8"/><use x="50.637" y="95.709" xlink:href="#k" width="5.05" transform="matrix(-2.4928 2.5671 2.5314 1.4681 21.645 -184.602)" height="5.8"/><use xlink:href="#k" width="5.05" transform="matrix(-.1748 2.2224 2.7153 -.4364 121.371 103.482)" height="5.8"/><use x="41.938" y="1.719" xlink:href="#k" width="5.05" transform="matrix(-1.7076 -.6015 -2.5519 1.2947 243.758 118.047)" height="5.8"/><use x="75.532" y="-124.763" xlink:href="#k" width="5.05" transform="matrix(2.5926 -1.5213 .6394 -3.0891 11.51 -143.185)" height="5.8"/><use x="-1.945" y="-.811" xlink:href="#k" width="5.05" transform="matrix(4.1498 -1.8044 1.1459 3.0961 139.253 89.69)" height="5.8"/><use x="-2.775" y=".521" xlink:href="#k" width="5.05" transform="matrix(2.9775 .5069 -1.4163 2.6973 167.29 79.174)" height="5.8"/><use x="-170.389" y="28.668" xlink:href="#k" width="5.05" transform="matrix(-.2614 -1.9679 2.4944 -2.2606 16.968 -145.622)" height="5.8"/><use x="108.303" y="-98.529" xlink:href="#k" width="5.05" transform="matrix(-2.8053 2.2328 -4.2614 -.2911 71.913 -177.524)" height="5.8"/><use x="-23.821" y="-17.167" xlink:href="#k" width="5.05" transform="matrix(1.3122 -.3888 2.6063 1.8793 200.156 109.808)" height="5.8"/><use x="2.894" y="-.099" xlink:href="#k" width="5.05" transform="matrix(-2.4592 -.0957 -1.1969 -2.8063 173.282 112.876)" height="5.8"/><use x="56.049" y="49.943" xlink:href="#k" width="5.05" transform="matrix(-1.0791 3.7486 3.5347 1.2093 18.83 -213.456)" height="5.8"/><use x="98.011" y="1.415" xlink:href="#k" width="5.05" transform="matrix(1.1467 2.7769 2.5878 -1.1785 12.227 -187.986)" height="5.8"/><use x="-143.389" y="101.154" xlink:href="#k" width="5.05" transform="matrix(-2.1516 -.3371 -1.9027 2.1963 55.849 -209.292)" height="5.8"/><use x="13.901" y="-77.16" xlink:href="#k" width="5.05" transform="matrix(1.8097 -2.485 -1.178 -3.9534 32.947 -160.133)" height="5.8"/><use x="-19.448" y="58.82" xlink:href="#k" width="5.05" transform="matrix(3.2741 -3.2012 3.0555 3.5404 13.866 -205.82)" height="5.8"/><use x="31.061" y="74.688" xlink:href="#k" width="5.05" transform="matrix(3.4275 -.0793 .1284 3.6547 36.418 -226.663)" height="5.8"/><use x="-93.044" y="-15.084" xlink:href="#k" width="5.05" transform="matrix(-1.4522 -2.3606 1.2642 -3.3718 37.275 -164.397)" height="5.8"/><use xlink:href="#k" width="5.05" transform="matrix(-1.607 3.4109 -4.6455 .6481 191.87 53.804)" height="5.8"/><use x="-169.88" y="80.427" xlink:href="#k" width="5.05" transform="matrix(1.1441 -.7885 3.8595 1.6978 5.141 -209.244)" height="5.8"/><use x="43.803" y="-78.891" xlink:href="#k" width="5.05" transform="matrix(-2.6376 .463 -2.9355 -3.1717 64.912 -187.12)" height="5.8"/><use x="-88.657" y="-67.765" xlink:href="#k" width="5.05" transform="matrix(1.151 -3.1704 -3.2184 .1561 -14.947 -129.576)" height="5.8"/><use x="-145.432" y="8.857" xlink:href="#k" width="5.05" transform="matrix(-.9466 -1.7577 -2.4407 1.6794 -7.806 -150.911)" height="5.8"/><use x="-5.462" y=".968" xlink:href="#k" width="5.05" transform="matrix(1.9754 -.3976 1.8489 -2.2433 76.034 148.996)" height="5.8"/><use x="-8.002" y="109.823" xlink:href="#k" width="5.05" transform="matrix(-1.7747 2.4339 .9274 2.6404 -25.83 -165.739)" height="5.8"/><use x="4.885" y="22.602" xlink:href="#k" width="5.05" transform="matrix(-3.1579 3.4217 -2.68 -1.7572 181.969 156.672)" height="5.8"/><use x="-37.691" y="-114.173" xlink:href="#k" width="5.05" transform="matrix(-3.172 1.1008 .0307 -2.7326 -31.75 -114.226)" height="5.8"/><use x="128.007" y="33.249" xlink:href="#k" width="5.05" transform="matrix(1.246 1.3493 -1.3067 2.9408 -29.943 -161.23)" height="5.8"/><use x="2.103" y="-2.874" xlink:href="#k" width="5.05" transform="matrix(1.6252 -3.0746 4.3213 -1.9019 57.271 161.676)" height="5.8"/><use x="271.719" y="-117.822" xlink:href="#k" width="5.05" transform="matrix(-1.09 .9453 -3.4987 -.1158 -2.116 -136.986)" height="5.8"/><use x="-78.136" y="119.21" xlink:href="#k" width="5.05" transform="matrix(2.4574 -1.1519 2.5842 1.5141 -56.493 -135.613)" height="5.8"/><use x="-46.359" y="-75.741" xlink:href="#k" width="5.05" transform="matrix(2.4695 -2.8446 -3.0437 -1.8303 -57.427 -171.884)" height="5.8"/><use x=".038" y="2.998" xlink:href="#k" width="5.05" transform="matrix(-.0955 -2.5646 -3.0003 .3658 83.686 78.116)" height="5.8"/><use x="183.17" y="-92.719" xlink:href="#k" width="5.05" transform="matrix(2.002 .7843 2.7034 -1.368 -92.489 -184.073)" height="5.8"/><use x="-54.356" y="101.29" xlink:href="#k" width="5.05" transform="matrix(-2.7194 1.6284 -.3136 3.5444 -51.43 -219.294)" height="5.8"/><use x="12.295" y="12.641" xlink:href="#k" width="5.05" transform="matrix(-4.4357 1.8762 -1.6978 -3.6443 142.379 116.473)" height="5.8"/><use x="-60.745" y="-73.931" xlink:href="#k" width="5.05" transform="matrix(-3.4196 -.74 1.24 -3.0508 -79.72 -165.108)" height="5.8"/><use x="135.71" y="-16.309" xlink:href="#k" width="5.05" transform="matrix(.5533 2.2924 -2.5116 2.4896 -57.304 -216.797)" height="5.8"/><use x="5.146" y="-18.76" xlink:href="#k" width="5.05" transform="matrix(2.8653 -2.4414 4.8371 .5563 77.028 110.841)" height="5.8"/><use x="131.306" y="-95.33" xlink:href="#k" width="5.05" transform="matrix(-1.4265 .3827 -3.1822 -2.3104 -42.305 -172.203)" height="5.8"/><use x="-3.58" y=".559" xlink:href="#k" width="5.05" transform="matrix(2.7819 .2373 1.717 3.3114 31.914 64.978)" height="5.8"/><use x="-1.326" y="18.128" xlink:href="#k" width="5.05" transform="matrix(.722 -4.2856 -4.1396 -1.5822 141.564 155.281)" height="5.8"/><use x="-80.29" y="6.149" xlink:href="#k" width="5.05" transform="matrix(-1.6567 -3.2747 -2.7591 1.2317 -46.394 -167.435)" height="5.8"/><use x="112.777" y="-87.504" xlink:href="#k" width="5.05" transform="matrix(2.4673 .501 1.8537 -2.4456 -92.711 -144.998)" height="5.8"/><use x="-2.967" y="60.093" xlink:href="#k" width="5.05" transform="matrix(-1.711 2.7846 1.8467 4.6388 -73.403 -200.758)" height="5.8"/><use x="20.294" y="-46.673" xlink:href="#k" width="5.05" transform="matrix(-3.2659 3.5387 -3.9065 -4.257 -45.932 -146.813)" height="5.8"/><use x="2.346" y="-.047" xlink:href="#k" width="5.05" transform="matrix(-3.8492 -.0844 -.6254 -4.2389 56.568 146.628)" height="5.8"/><use x="69.513" y="19.606" xlink:href="#k" width="5.05" transform="matrix(1.9459 2.8084 -.9801 3.8397 -77.66 -196.036)" height="5.8"/><use x="-75.573" y="42.536" xlink:href="#k" width="5.05" transform="matrix(1.3609 -3.8673 5.1461 -.5116 -114.236 -137.482)" height="5.8"/><use x="9.186" y="14.25" xlink:href="#k" width="5.05" transform="matrix(-1.1847 .8542 -4.5695 -2.1646 156.416 150.975)" height="5.8"/><use x="-44.649" y="66.063" xlink:href="#k" width="5.05" transform="matrix(2.9093 -.4005 3.7229 3.8239 -105.811 -171.177)" height="5.8"/><use x="23.483" y="-117.899" xlink:href="#j" width="70.9" transform="matrix(2.3075 -.5235 -.5247 -2.3986 -85.396 -72.219)" height="71.4"/><use x="69.644" y="-26.894" xlink:href="#k" width="5.05" transform="matrix(2.0684 2.7603 1.0412 -2.91 -72.293 -131.706)" height="5.8"/><use x="45.776" y="-86.061" xlink:href="#k" width="5.05" transform="matrix(1.7196 .1399 -.4338 -3.0687 -58.122 -113.65)" height="5.8"/><use x="58.66" y="-48.081" xlink:href="#k" width="5.05" transform="matrix(-.4025 1.9528 1.0896 2.8608 125.766 127.404)" height="5.8"/><use x="1.031" y="31.066" xlink:href="#k" width="5.05" transform="matrix(-1.2658 -2.901 -2.4044 -.6441 152.082 172.192)" height="5.8"/><use x="-60.869" y="9.516" xlink:href="#k" width="5.05" transform="matrix(-1.5398 -4.6599 2.3459 -1.3813 -68.323 -123.403)" height="5.8"/><use x="-1.804" y="-3.984" xlink:href="#k" width="5.05" transform="matrix(.2841 -3.3909 2.1302 1.5357 46.811 115.566)" height="5.8"/><use x="36.163" y="-93.1" xlink:href="#k" width="5.05" transform="matrix(-1.5078 .3483 -1.8322 -2.7702 -42.053 -127.456)" height="5.8"/><use x="-40.864" y="21.613" xlink:href="#k" width="5.05" transform="matrix(1.8219 3.1235 -.0717 4.8416 123.429 104.502)" height="5.8"/><use x="-234.899" y="25.533" xlink:href="#k" width="5.05" transform="matrix(-.3467 -1.4783 1.3555 -3.0059 -71.096 -116.397)" height="5.8"/><use x="124.504" y="-53.883" xlink:href="#k" width="5.05" transform="matrix(.0143 2.7921 -2.1207 1.4314 -52.553 -164.858)" height="5.8"/><use x="-.994" y="-2.238" xlink:href="#k" width="5.05" transform="matrix(1.3364 3.7373 2.5346 -1.66 99.326 124.887)" height="5.8"/><use x="79.444" y="-58.093" xlink:href="#k" width="5.05" transform="matrix(2.0443 1.3322 .798 -2.8345 -14.255 -120.782)" height="5.8"/><use x="54.626" y="-30.473" xlink:href="#k" width="5.05" transform="matrix(-1.3384 1.3235 .0948 3.1273 190.565 123.838)" height="5.8"/><use x="-13.381" y="29.998" xlink:href="#k" width="5.05" transform="matrix(-.293 -3.2851 -2.6642 -2.2321 203.313 179.247)" height="5.8"/><use x="-51.138" y="35.412" xlink:href="#k" width="5.05" transform="matrix(.1333 -4.9278 3.4696 .5225 -22.49 -135.989)" height="5.8"/><use x="-20.228" y="78.659" xlink:href="#k" width="5.05" transform="matrix(1.8162 -2.5918 1.9424 2.7724 -20.922 -168.952)" height="5.8"/><use x="-21.032" y="-71.009" xlink:href="#k" width="5.05" transform="matrix(-1.9964 -.7802 -1.043 -3.5783 11.4 -120.707)" height="5.8"/><use x="88.117" y="-17.731" xlink:href="#k" width="5.05" transform="matrix(.8774 3.862 -2.1846 3.937 5.543 -190.205)" height="5.8"/><use x="45.787" y="-29.005" xlink:href="#k" width="5.05" transform="matrix(.2158 -1.463 2.9609 -1.5165 163.088 161.327)" height="5.8"/><use x="106.58" y="-75.582" xlink:href="#k" width="5.05" transform="matrix(-1.1916 2.3098 -3.2157 -.3218 14.788 -158.942)" height="5.8"/><use x="63.294" y="-29.233" xlink:href="#k" width="5.05" transform="matrix(3.0973 2.9997 2.7363 -2.7585 -52.586 -158.144)" height="5.8"/><use x="-2.843" y="-.003" xlink:href="#k" width="5.05" transform="matrix(3.1651 .3545 .0322 -3.1009 93.813 133.059)" height="5.8"/><use x="31.983" y="-28.015" xlink:href="#k" width="5.05" transform="matrix(-1.2845 1.8882 1.2464 2.9767 160.026 102.057)" height="5.8"/><use x="-90.895" y="6.06" xlink:href="#k" width="5.05" transform="matrix(-1.5636 -3.0387 -4.3027 -.9409 4.621 -143.757)" height="5.8"/><use x="7.768" y="-13.401" xlink:href="#k" width="5.05" transform="matrix(-1.5925 -4.8193 4.7482 -1.0772 144.57 144.1)" height="5.8"/><use x="-3.782" y="-19.867" xlink:href="#k" width="5.05" transform="matrix(1.4576 -3.3308 3.5479 1.7917 134.686 111.639)" height="5.8"/><use x="41.041" y="-88.617" xlink:href="#k" width="5.05" transform="matrix(-2.9042 .1567 -2.6546 -2.9799 2.505 -150.098)" height="5.8"/><use x="-2.62" y="1.61" xlink:href="#k" width="5.05" transform="matrix(2.5387 3.3293 -1.4594 4.7977 94.889 56.999)" height="5.8"/><use x="-214.758" y="19.196" xlink:href="#k" width="5.05" transform="matrix(-.2411 -1.5111 3.3482 -2.8142 -54.63 -142.78)" height="5.8"/><use x="-16.769" y="20.351" xlink:href="#k" width="5.05" transform="matrix(-.7379 2.7737 -4.3424 1.1553 185.278 104.973)" height="5.8"/><use x="2.603" y="-29.941" xlink:href="#k" width="5.05" transform="matrix(-2.2038 1.7695 2.3468 .922 121.597 125.893)" height="5.8"/><use x="-.487" y="-2.049" xlink:href="#k" width="5.05" transform="matrix(-.1 1.4868 2.4636 -.353 36.205 114.993)" height="5.8"/><use x="53.839" y="-3.784" xlink:href="#k" width="5.05" transform="matrix(-1.5727 -.3624 -2.2917 .9219 149.298 131.305)" height="5.8"/><use x="-4.361" y="2.256" xlink:href="#k" width="5.05" transform="matrix(2.3227 -1.074 .5003 -2.0756 46.494 130.733)" height="5.8"/><use x="-7.517" y="127.839" xlink:href="#k" width="5.05" transform="matrix(3.7347 -1.2983 1.1274 2.0396 -77.102 -164.252)" height="5.8"/><use xlink:href="#k" width="5.05" transform="matrix(2.7278 .2704 -1.219 1.8319 64.237 97.886)" height="5.8"/><use x="-233.049" y="21.801" xlink:href="#k" width="5.05" transform="matrix(-.2909 -1.3071 2.2135 -1.565 -73.689 -141.478)" height="5.8"/><use x="-.48" y="2.62" xlink:href="#k" width="5.05" transform="matrix(-2.4976 1.5535 -3.8925 -.0973 100.66 107.494)" height="5.8"/><use xlink:href="#k" width="5.05" transform="matrix(1.1858 -.2892 2.4261 1.1946 33.29 103.799)" height="5.8"/><use xlink:href="#k" width="5.05" transform="matrix(-2.2443 -.0079 -1.1661 -1.8452 72.427 120.211)" height="5.8"/><use x="13.535" y="115.745" xlink:href="#k" width="5.05" transform="matrix(-2.9945 1.1291 1.3528 2.205 -58.866 -125.466)" height="5.8"/><use x="1.342" y="-3.32" xlink:href="#k" width="5.05" transform="matrix(-1.056 1.759 2.2843 .711 46.239 153.074)" height="5.8"/><use x="20.785" y="21.361" xlink:href="#k" width="5.05" transform="matrix(-1.0736 -1.1675 -2.5132 .0593 152.648 187.393)" height="5.8"/><use x="-3.343" y="-.101" xlink:href="#k" width="5.05" transform="matrix(2.6386 -.2297 1.7749 -2.2887 41.18 174.083)" height="5.8"/><use x="-19.846" y="-6.672" xlink:href="#k" width="5.05" transform="matrix(3.9622 .1511 -.3948 2.998 125.387 169.03)" height="5.8"/><use x="113.062" y="54.638" xlink:href="#k" width="5.05" transform="matrix(2.0966 1.5901 -2.2145 1.6604 -40.127 -122.934)" height="5.8"/><use x=".398" y="-.782" xlink:href="#k" width="5.05" transform="matrix(.6127 -1.7216 2.8688 -.8764 39.405 175.264)" height="5.8"/><use x="77.119" y="-111.605" xlink:href="#k" width="5.05" transform="matrix(-3.0981 .731 -3.1806 -1.9186 -22.863 -99.861)" height="5.8"/><use x="-13.284" y="106.161" xlink:href="#k" width="5.05" transform="matrix(1.1776 .1973 1.2405 2.5727 -69.712 -130.076)" height="5.8"/><use x="-71.106" y="-70.507" xlink:href="#k" width="5.05" transform="matrix(-1.8654 -1.0478 .2353 -2.7798 -47.886 -92.073)" height="5.8"/><use x="11.158" y="-22.056" xlink:href="#k" width="5.05" transform="matrix(-2.3888 2.6579 2.2373 2.3875 142.936 143.08)" height="5.8"/><use x="97.827" y="56.83" xlink:href="#k" width="5.05" transform="matrix(-.2619 2.7358 2.4929 .0504 -64.773 -132.025)" height="5.8"/><use x="-178.649" y="65.773" xlink:href="#k" width="5.05" transform="matrix(-1.5272 -1.1251 -2.3837 1.0567 -22.155 -132.443)" height="5.8"/><use x="-37.064" y="19.463" xlink:href="#k" width="5.05" transform="matrix(2.4313 -1.3307 .7251 -3.7158 131.802 192.5)" height="5.8"/><use x="13.685" y="70.185" xlink:href="#k" width="5.05" transform="matrix(3.8624 -1.3427 .9004 4.1159 -56.075 -146.124)" height="5.8"/><use x="73.482" y="57.6" xlink:href="#k" width="5.05" transform="matrix(2.688 1.2853 -1.4144 3.0565 -30.057 -154.328)" height="5.8"/><use x="-143.754" y="39.941" xlink:href="#k" width="5.05" transform="matrix(-.1471 -2.5138 2.3761 -2.2751 -55.147 -102.79)" height="5.8"/><use x=".659" y="1.874" xlink:href="#k" width="5.05" transform="matrix(-2.6578 2.1722 -3.8672 -1.2975 121.445 140.92)" height="5.8"/><use x="-70.158" y="87.974" xlink:href="#k" width="5.05" transform="matrix(1.213 -.1976 2.2865 2.9172 -61.464 -152.349)" height="5.8"/><use x="-22.772" y="-67.855" xlink:href="#k" width="5.05" transform="matrix(-2.235 -.6586 -.9602 -3.7654 -24.324 -110.556)" height="5.8"/><use x="-31.251" y="-28.876" xlink:href="#k" width="5.05" transform="matrix(1.0957 2.6814 1.4461 -2.1054 126.657 79.837)" height="5.8"/><use x="103.497" y="-85.444" xlink:href="#k" width="5.05" transform="matrix(1.3593 .4975 .2883 -2.5632 -57.734 -195.953)" height="5.8"/><use x="-95.661" y="162.014" xlink:href="#k" width="5.05" transform="matrix(-.7313 1.4792 .2845 2.543 -53.399 -239.865)" height="5.8"/><use x="-1.797" y="5.396" xlink:href="#k" width="5.05" transform="matrix(-.4184 -2.6147 -1.8073 -1.056 83.56 73.429)" height="5.8"/><use x=".339" y="-4.083" xlink:href="#k" width="5.05" transform="matrix(-.2737 -4.0896 2.1814 -.5847 61.16 63.408)" height="5.8"/><use x="-33.833" y="105.456" xlink:href="#k" width="5.05" transform="matrix(.9349 -2.6614 1.4004 1.7112 -65.354 -233.655)" height="5.8"/><use x="53.64" y="7.548" xlink:href="#k" width="5.05" transform="matrix(-1.2898 -.0578 -.9029 -2.6365 150.134 90.053)" height="5.8"/><use x="117.298" y="-18.527" xlink:href="#k" width="5.05" transform="matrix(.8211 2.9181 -1.0653 3.8748 -50.55 -258.794)" height="5.8"/><use xlink:href="#k" width="5.05" transform="matrix(.0276 -1.2657 1.7198 -2.1121 48.39 69.435)" height="5.8"/><use x="-.985" y="4.757" xlink:href="#k" width="5.05" transform="matrix(-.5694 2.247 -2.01 .6755 82.493 33.642)" height="5.8"/><use x="-13.931" y="-30.02" xlink:href="#k" width="5.05" transform="matrix(.3014 3.3026 2.3918 -.7665 168.806 79.485)" height="5.8"/><use x="121.079" y="-40.703" xlink:href="#k" width="5.05" transform="matrix(1.3733 1.5284 1.234 -2.0992 -20.815 -191.908)" height="5.8"/><use xlink:href="#k" width="5.05" transform="matrix(-1.3559 .7639 -.5741 2.5344 115.738 42.181)" height="5.8"/><use x="-31.756" y="-77.221" xlink:href="#k" width="5.05" transform="matrix(.4469 -2.7056 -1.6866 -2.3903 -1.565 -180.948)" height="5.8"/><use x="-49.374" y="63.874" xlink:href="#k" width="5.05" transform="matrix(1.1329 -3.9303 2.6926 1.1968 -24.293 -205.968)" height="5.8"/><use x="5.83" y="105.251" xlink:href="#k" width="5.05" transform="matrix(2.0056 -1.6762 .9915 2.6629 -16.177 -232.115)" height="5.8"/><use x="6.356" y="-2.196" xlink:href="#k" width="5.05" transform="matrix(-1.4496 -1.074 -.0976 -3.1091 124.957 84.45)" height="5.8"/><use x="122.028" y="-49.423" xlink:href="#k" width="5.05" transform="matrix(-.0951 3.3 -2.5829 2.6747 9.618 -243.24)" height="5.8"/><use x="-286.003" y="93.467" xlink:href="#k" width="5.05" transform="matrix(.4786 -1.1274 2.7061 -.5557 -30.32 -204.354)" height="5.8"/><use x="105.048" y="-105.801" xlink:href="#k" width="5.05" transform="matrix(-1.4427 1.5894 -2.5293 -.9786 10.57 -216.069)" height="5.8"/><use x="80.603" y="-12.651" xlink:href="#k" width="5.05" transform="matrix(1.8766 3.1042 2.7832 -1.6041 -44.045 -230.475)" height="5.8"/><use x="-29.895" y="-2.698" xlink:href="#k" width="5.05" transform="matrix(2.4817 .9936 .6712 -2.4848 161.192 83.672)" height="5.8"/><use x="-47.794" y="123.269" xlink:href="#k" width="5.05" transform="matrix(-1.43 1.2298 .387 2.6712 -20.51 -252.627)" height="5.8"/><use x="-1.512" y="3.036" xlink:href="#k" width="5.05" transform="matrix(-.6302 -2.7921 -3.2782 -1.7196 124.233 65.435)" height="5.8"/><use xlink:href="#k" width="5.05" transform="matrix(-.2831 -4.2295 4.0578 .1976 74.355 48.225)" height="5.8"/><use x="-41.33" y="77.591" xlink:href="#k" width="5.05" transform="matrix(1.8699 -2.3503 2.4917 2.2343 -42.929 -250.634)" height="5.8"/><use x="30.462" y="2.35" xlink:href="#k" width="5.05" transform="matrix(-2.3774 -.5244 -1.5233 -2.9892 190.862 81.882)" height="5.8"/><use x="-2.864" y="2.349" xlink:href="#k" width="5.05" transform="matrix(1.357 3.244 -2.1765 3.5287 110.874 .829)" height="5.8"/><use x="4.234" y="-2.891" xlink:href="#k" width="5.05" transform="matrix(.1197 -1.2684 3.2888 -1.5118 76.202 52.973)" height="5.8"/><use x="-10.641" y="23.617" xlink:href="#k" width="5.05" transform="matrix(-1.1728 2.0638 -3.7464 -.044 191.35 48.844)" height="5.8"/><use x="-60.823" y="-133.53" xlink:href="#k" width="5.05" transform="matrix(2.5752 -1.1134 -2.0421 -1.5186 -57.955 -135.036)" height="5.8"/><use x="-.177" y=".775" xlink:href="#k" width="5.05" transform="matrix(.4677 -1.4059 -2.4733 -.3214 77.056 127.612)" height="5.8"/><use x="-33.796" y="-11.27" xlink:href="#k" width="5.05" transform="matrix(1.4322 .7716 2.4488 -.273 108.716 145.8)" height="5.8"/><use xlink:href="#k" width="5.05" transform="matrix(-2.5168 .4113 -1.0022 1.8658 72.92 110.775)" height="5.8"/><use x="-11.633" y="-120.526" xlink:href="#k" width="5.05" transform="matrix(-3.9398 .2483 -.5826 -2.2683 -50.677 -136.491)" height="5.8"/><use x="2.737" y="-1.195" xlink:href="#k" width="5.05" transform="matrix(-2.5735 -.9931 1.6372 -1.438 47.903 136.194)" height="5.8"/><use x="236.333" y="-49.948" xlink:href="#k" width="5.05" transform="matrix(-.0444 1.3377 -2.5335 .9138 -48.303 -159.355)" height="5.8"/><use x="-140.011" y="135.904" xlink:href="#k" width="5.05" transform="matrix(2.8057 -.8264 3.7444 1.139 -101.605 -150.845)" height="5.8"/><use x="6.691" y=".407" xlink:href="#k" width="5.05" transform="matrix(-1.2202 -.0397 -2.0509 -1.8027 79.223 138.912)" height="5.8"/><use x="-1.012" y=".295" xlink:href="#k" width="5.05" transform="matrix(2.1709 .6103 .6686 2.0913 38.542 111.562)" height="5.8"/><use x="-2.661" y=".706" xlink:href="#k" width="5.05" transform="matrix(3.1809 -.284 -.7597 -2.4881 66.477 92.71)" height="5.8"/><use x="-83.782" y="-117.235" xlink:href="#k" width="5.05" transform="matrix(1.4613 -1.4115 -2.0342 -1.2986 -37.245 -181.132)" height="5.8"/><use x="2.671" y="-4.493" xlink:href="#k" width="5.05" transform="matrix(.7482 1.4134 2.448 .6177 52.464 66.845)" height="5.8"/><use x="-145.605" y="115.42" xlink:href="#k" width="5.05" transform="matrix(-2.6119 -.4872 -2.2895 1.729 -26.875 -201.003)" height="5.8"/><use x="-52.662" y="-74.307" xlink:href="#k" width="5.05" transform="matrix(-3.7984 -1.2095 1.1302 -2.7831 -50.85 -177.64)" height="5.8"/><use x="19.315" y="-17.377" xlink:href="#k" width="5.05" transform="matrix(-1.6332 -2.0954 2.5583 -1.0055 115.953 107.21)" height="5.8"/><use x="186.061" y="-102.241" xlink:href="#k" width="5.05" transform="matrix(-1.0227 1.4946 -2.9962 .0742 -31.89 -202.598)" height="5.8"/><use x="-47.139" y="102.296" xlink:href="#k" width="5.05" transform="matrix(3.1819 .1274 2.6007 2.703 -87.06 -213.126)" height="5.8"/><use xlink:href="#k" width="5.05" transform="matrix(-1.0909 -.5064 -.5592 -2.8124 66.886 99.094)" height="5.8"/><use x="-40.498" y="14.596" xlink:href="#k" width="5.05" transform="matrix(1.5446 1.5106 -.9213 2.6156 131.204 79.565)" height="5.8"/><use x="-15.828" y="18.4" xlink:href="#k" width="5.05" transform="matrix(2.9759 -1.9199 -1.5705 -2.9015 117.758 136.132)" height="5.8"/><use x="-82.85" y="-80.639" xlink:href="#k" width="5.05" transform="matrix(.9362 -2.5661 -2.401 -.718 -54.542 -170.865)" height="5.8"/><use x="172.147" y="-35.063" xlink:href="#k" width="5.05" transform="matrix(1.1979 1.4943 2.5715 -.3782 -95.872 -182.008)" height="5.8"/><use x="-103.31" y="99.091" xlink:href="#k" width="5.05" transform="matrix(-2.6859 .6295 -1.6291 3.3861 -51.185 -202.015)" height="5.8"/><use xlink:href="#k" width="5.05" transform="matrix(-4.0745 .2568 .1551 -4.2082 49.593 110.832)" height="5.8"/><use x="24.32" y="-9.618" xlink:href="#k" width="5.05" transform="matrix(-2.2818 -1.9604 2.132 -2.5657 98.333 134.812)" height="5.8"/><use x="-2.218" y="3.513" xlink:href="#k" width="5.05" transform="matrix(-.4847 2.462 -2.8681 1.5544 68.544 68.839)" height="5.8"/><use x="-55.67" y="84.629" xlink:href="#k" width="5.05" transform="matrix(3.1152 -1.3796 3.4205 2.2888 -113.335 -188.701)" height="5.8"/><use x="4.292" y="-.169" xlink:href="#k" width="5.05" transform="matrix(-1.2237 -.1352 -1.486 -3.4252 58.288 118.228)" height="5.8"/><use x="-2.996" y=".952" xlink:href="#k" width="5.05" transform="matrix(1.9996 1.2348 -.0098 3.8864 33.7 68.04)" height="5.8"/><use x="10.628" y="-21.715" xlink:href="#k" width="5.05" transform="matrix(-2.6721 1.4837 2.1921 1.7853 190.752 98.82)" height="5.8"/><use x="142.795" y="69.047" xlink:href="#k" width="5.05" transform="matrix(-.4487 1.754 2.6087 .2902 -18.943 -184.376)" height="5.8"/><use x="-251.863" y="104.837" xlink:href="#k" width="5.05" transform="matrix(-1.5284 -.8901 -2.5649 .4418 25.796 -180.172)" height="5.8"/><use x="-3.976" y="1.47" xlink:href="#k" width="5.05" transform="matrix(2.6322 -.6153 .9964 -2.3442 108.906 107.807)" height="5.8"/><use x="-2.06" y="-.714" xlink:href="#k" width="5.05" transform="matrix(4.1324 -.4754 .6813 2.7725 116.114 78.89)" height="5.8"/><use xlink:href="#k" width="5.05" transform="matrix(2.7345 1.1143 -1.6767 1.8438 134.979 75.223)" height="5.8"/><use x="-197.065" y="44.499" xlink:href="#k" width="5.05" transform="matrix(.006 -1.6517 2.6345 -1.2358 -10.711 -164.352)" height="5.8"/><use x="113.886" y="-113.106" xlink:href="#k" width="5.05" transform="matrix(-2.9231 1.1397 -3.9693 -1.244 45.079 -177.081)" height="5.8"/><use x="-127.359" y="126.483" xlink:href="#k" width="5.05" transform="matrix(1.2835 -.0034 2.2099 2.1352 -14.181 -197.207)" height="5.8"/><use x="-16.548" y="-101.779" xlink:href="#k" width="5.05" transform="matrix(-2.2998 -.6595 -.7663 -2.5505 22.092 -166.167)" height="5.8"/><use x="-10.99" y="90.86" xlink:href="#k" width="5.05" transform="matrix(-3.3339 .4868 .874 3.036 .642 -140.882)" height="5.8"/><use x="66.785" y="99.092" xlink:href="#k" width="5.05" transform="matrix(-1.4926 1.8036 2.1771 1.5142 -21.653 -136.958)" height="5.8"/><use x="2.489" y="28.533" xlink:href="#k" width="5.05" transform="matrix(-.8292 -1.7111 -2.5912 -.6568 208.179 181.54)" height="5.8"/><use x="122.558" y="-94.407" xlink:href="#k" width="5.05" transform="matrix(2.7595 .4888 2.3531 -2.2307 -31.956 -112.019)" height="5.8"/><use x="45.346" y="60.399" xlink:href="#k" width="5.05" transform="matrix(4.0282 1.3287 -1.1029 3.481 -7.49 -141.881)" height="5.8"/><use x="96.379" y="20.885" xlink:href="#k" width="5.05" transform="matrix(1.78 2.5141 -2.6576 1.3499 19.276 -132.331)" height="5.8"/><use x="15.602" y="-29.261" xlink:href="#k" width="5.05" transform="matrix(1.0292 -1.8872 3.1461 -.2202 165.425 183.145)" height="5.8"/><use x="36.129" y="-84.185" xlink:href="#k" width="5.05" transform="matrix(-3.3474 -.0206 -2.8151 -3.222 31.65 -99.679)" height="5.8"/><use x="-68.178" y="4.757" xlink:href="#k" width="5.05" transform="matrix(1.1617 .5777 .6732 3.4445 182.652 143.978)" height="5.8"/><use x="38.118" y="-13.931" xlink:href="#k" width="5.05" transform="matrix(-1.6691 -1.7968 .8885 -3.2654 196.194 195.903)" height="5.8"/><use x="4.157" y="74.087" xlink:href="#k" width="5.05" transform="matrix(-3.0687 2.4957 1.7386 3.5111 16.534 -167.865)" height="5.8"/><use x="67.409" y="69.591" xlink:href="#k" width="5.05" transform="matrix(-.9056 3.205 2.5448 .7825 -3.827 -150.39)" height="5.8"/><use x="-142.619" y="25.998" xlink:href="#k" width="5.05" transform="matrix(-1.3042 -1.7915 -2.6907 .5769 39.984 -138.435)" height="5.8"/><use x="88.641" y="-82.321" xlink:href="#k" width="5.05" transform="matrix(2.8033 -.8917 1.6088 -4.2461 -6.425 -111.86)" height="5.8"/><use x="27.601" y="54.663" xlink:href="#k" width="5.05" transform="matrix(4.2737 -.4916 -.0349 5.1967 8.365 -164.703)" height="5.8"/><use x="-2.251" y="1.604" xlink:href="#k" width="5.05" transform="matrix(2.4574 2.3199 -2.1622 3.2558 162.052 103.414)" height="5.8"/><use x="27.287" y="-29.615" xlink:href="#k" width="5.05" transform="matrix(.4344 -3.0572 2.9665 -2.0402 191.295 181)" height="5.8"/><use x="44.273" y="-70.722" xlink:href="#k" width="5.05" transform="matrix(-3.2315 1.8352 -3.6639 -2.676 58.547 -130.877)" height="5.8"/><use x="-6.912" y="-.05" xlink:href="#k" width="5.05" transform="matrix(1.2899 .1143 1.6657 4.1606 129.34 97.805)" height="5.8"/><use x="-2.374" y=".712" xlink:href="#k" width="5.05" transform="matrix(-2.1388 -1.437 -.108 -4.7937 143.72 157.608)" height="5.8"/><use x="24.115" y="-7.298" xlink:href="#f" width="6.2" transform="matrix(-3.1516 0 0 3.1516 177.293 250.029)" height="6.25"/><use x="-42.054" y="-13.907" xlink:href="#l" width="102.95" transform="matrix(1.8072 0 0 1.6538 81 145.3)" height="45"/></g></svg>