<svg width="216" height="290" xmlns="http://www.w3.org/2000/svg" xmlns:xlink="http://www.w3.org/1999/xlink"><defs><g id="d" stroke-opacity="0" stroke-linejoin="round" stroke-linecap="round" stroke="#f0f" fill="none"><path d="M187.95-293.5v380h-380v-380h380M92.95.6H-97" transform="translate(192.55 294)"/><path d="m187.95-293.5-190 190 190 190m-380-380 190 190L-192 86.5" transform="translate(192.55 294)"/></g><g id="f"><path fill-rule="evenodd" fill="#795200" d="M2.45-.05 2.4.3q-.85 1.8-2.05 3L.3 3.25Q-1.85 1.95-2.75 0q2.8-4.85 5.2-.05" transform="translate(3.25 2.45)"/><path stroke-linejoin="round" stroke-linecap="round" stroke="#312c11" fill="none" d="M2.45-.05 2.4.3q-.85 1.8-2.05 3L.3 3.25Q-1.85 1.95-2.75 0" transform="translate(3.25 2.45)"/></g><g id="a"><path fill-rule="evenodd" fill="#960" d="m-.4 3.85-.3-.1Q-3.75 2.7-4.3.3l.75-19.95.2-2.6q1.65 2.9 5.25 2.4Q1.8-1.3-.05 1.9l-.3.45-.05 1.5m.35-1.95Q-1.9.45-2.85.35q.95.1 2.8 1.55" transform="translate(4.8 39.85)"/><path fill-rule="evenodd" fill="#795200" d="M-2.05-39.35q1.25-.6 3.3.8l.75.6q2.35 1.7 2.6 4.75l.1 12.8.2 9.05L5.25.3Q5.5 5.05.55 4.1l-.2-.05-.75-.2.05-1.5.3-.45.5.4.55.45-.55-.45-.5-.4Q1.8-1.3 1.9-19.85q-3.6.5-5.25-2.4v-.25l1.3-16.85" transform="translate(4.8 39.85)"/><path stroke-linejoin="round" stroke-linecap="round" stroke="#554d1e" fill="none" d="m-4.3.3.75-19.95.2-2.6v-.25l1.3-16.85" transform="translate(4.8 39.85)"/><path stroke-linejoin="round" stroke-linecap="round" stroke="#312c11" fill="none" d="m4.6-33.2.1 12.8.2 9.05L5.25.3Q5.5 5.05.55 4.1l-.2-.05-.75-.2-.3-.1Q-3.75 2.7-4.3.3" transform="translate(4.8 39.85)"/><path stroke-linejoin="round" stroke-linecap="round" stroke="#312c11" fill="none" d="m-.05 1.9.5.4.55.45M-2.85.35q.95.1 2.8 1.55" transform="translate(4.8 39.85)"/><path stroke-opacity=".8" stroke-linejoin="round" stroke-linecap="round" stroke="#000" fill="none" d="M-3.8-15.65q1.5-1.3 1.85.3" transform="translate(4.8 39.85)"/></g><g id="j"><path fill-rule="evenodd" fill="#121700" d="m4.25-15.15.4-.55.45.05.3.25.1 1.15-.25.65-.3.55-.4-.1q-.35-.2-.35-.35-.2-.5-.15-1.1l.2-.55m-11.55-1.2v-.05l.2-.6 1.05-.25 1-.05 1.6.65q.2.1.25.6l-.1.6-1 .15-.6.05-.05.25-.2.45-.25.05.05.15q0 .05-.5.2l-.6.05-1.15-.4-.3-.4-.1-.35-.15-.1v-.45l.4-.45.45-.1m-.65 2.2.1-.15.25-.05.75.2.35.2.25.2-.2.15-.25.05-.75-.2-.3-.2-.2-.2M-12.5-4.5l.3-.45 1.2-.45.7.1.7.3q.1.15.05.55l-.2.4-1.25.4-.8-.15-.7-.2v-.5" transform="translate(15.75 25.3)"/><path stroke-width="1.75" stroke-linejoin="round" stroke-linecap="round" stroke="#3e5900" fill="none" d="m19.25 9.25.55.4.45-.1.3-.45v-.45l1.75-.55.5.05.4-.15-.1.1-.15.3-.8.5-.65.75q-.2.95 0 1.9-.05.2.55.75.6.45.8.45l.4-.3.3.3 1.2-.25.6-.15.55.65 1.15 1.1q.3.1 1.5-.5l1.2-.95q.5-1.3.35-2.7l-.9-1.25-1.4-1q-.55-.1-1.6.35l-.1.05-.55-.45q-.4-.2-1.35 0l-.95.3.2-.2 1.85-.6h.05q.55.25 1.05 0l.35-.45.4-.1h.05q.35.65 1.1.85h1.3l-.05.1q-.15.6.2 1.35.3.75 1.7 1.85 1.4 1.05 2.05 1.3l1.8.2 1.35-.25q.25-.15-.05-1.35-.3-1.3-.7-1.5-.8-.65-2.75-1.55l-2.1-.8.85-.7q1.1-1.15 1.3-1.9l-.4-1.4-.7-1.3-1.75.2q-1.55.3-1.7.6-.6.6-1.2 2.1-.45 1.1-.4 1.75l-.1.05.15-.85V3.2l-.9-1.3L25.1.85q-.25 0-1 .6l-.8.85q-.2.6.15 2.05.3 1.4.8 2l.25.25-.85.15-.1-.55-.45-1.5-.9-.6-1-.25-.5.75-.35.95q0 .5.55 1.4l.15.25-.1.05-.8.3-.1-.1-.5-.15-.5.05-.15.6M5.3 14.9l.85.25.15-2.05-.25.05.25-.1.1-1.7-.1-.05-.3-.2.1-.15.25-.15h.1v-.3l.05-.05h-.25l-1-.1-.5-.3-.35-.35.45-.25.6-.2 1.1.15.35.1.15-.3h-.2l-1.5-.1-1.3-.4-.3-.45-.1-.45.95-.15h1.05l1.35.4.45.25.05-.05-.95-.5-1-.8q-.15-.15.1-.7L6 5.6l1 .05 1 .15.8.8.2.4 1.05-.5 1.7-.6 1.15.05q.8.15.85.3l-.2.5q-.25.35-.6.55l-1.4.4-1.6.2-.9-.2L9 7.65q-.1.25-.35.45l-.8.2h-.1v.15l.15.2q.05.2-.25.35H7.6l-.15.75.1.3-.2.15-.1.7.25.1.2.15-.05.2-.4.1.05 1.2-.8 2.6 4.75 1.45.1-.1.3-.25.35.2.3.3V17l.65.2.1.05v-.2l.1-1 .6-.35.65-.15.55.6.4.7-.25 1.05-.15.3.65.35-.1-.3q-.1-.55.2-1.45.3-.95.65-1.2l.9-.05.85.15.35 1.05.1 1.1-.8 1.2-.4.35.1.05.9-.75 1.55-.6 1.4.45 1.2.7v1l-.25 1-1.55.4h-.85l1.1 1.35 1.25 2.1q.15.3-.1 1.15l-.45.75-1-.5q-.8-.45-1.15-.9l-.85-1.7q-.55-1.2-.45-1.75.05-.55.35-.8l.05-.05-.8-.6q-.45-.45-.45-.95L17 19.6l-.35.05q-.45-.05-.75-.45l-1.4-.55-.15.05.65.25.9.6.2.5.1.05 1.15.5.6 1.2q.25.9.1 1.1-.45.85-1.25 1.3l-.1.05-.55.8-1.3 1.35-2.4.5h-.95l.05.15q.75-.25 2.1 0 1.8.35 2.6.85.35.15 1.1 1.8l.65 1.9-1.25 1.1q-1.2.8-1.55.8-.85-.05-2.4-1.05l-1.05-.8q.05.9-.35 2.6-.6 2.4-1.1 3.45-.2.5-1.55 1.15-1.3.6-1.5.35l-.6-1.45q-.4-1.25-.2-2.05.1-.85 1-2.65.85-1.85 1.65-2.35.75-.55 1.45-.55l.15.05-.25-1.5q0-.85.65-1.4v-.05l-.2-.4-.6-.3q-.45-.5-.3-1.2v-.1l-1.05-1.9-.65-.65-.1-.65-1-1.8-.5.1q-.35-.05-.5-.2l-.25-.5.3-.7-2.35-3.1-.55-1.2-2.5-1.05 2.3.65m0 9.55.35-.95.7-.85 2.1-.4q.25-.05 1 .55l.75.8.35.1q.35.05.8 1.15.4 1 .35 1.5l-.4.7.1.15Q10 27.6 10 28.2q0 .6-.75 1.85-.85 1.25-1.2 1.3l-3.15.25-1.35-1.15q-.95-1.2-.9-1.55l.95-1.55.6-.75-.35-.65-.55-1.35.3-.4-.45-.4m8.55-5.6.3.2.1.3-.35.7-.1.05.15.05h.05l.6-.7.7-.1.7.05.25-.05-.25-.1-.4-.35-1.3-.45-.15.2-.35.1-.35-.15-.2-.4-2.55-.65-2.3-.95-.1.3 1.35 2h.15l.7.05.2.55q.05.45-.05.55l-.15.15.55.85.05.1.3-.25 1.35-.95v-.1l.3-.7.35-.2.45-.1m-5.6-2.35-.05.25-.2-.35.25.1m3.95 7.45.4.95.2-.3q.5-.7 2.05-1.4l1.3-.5V22l-.45-.2-.9-.45v-.05q-.2.8-.4.9-.4.4-1.55.9l-.65.2"/></g><g id="k"><path fill-rule="evenodd" fill="#85721f" d="m2.55 1.15-9.85 3.1-4.35 2.05-10.15 2.45 14.9-5.9 9.45-1.7" transform="translate(21.8 -.35)"/><path fill-rule="evenodd" fill="#a5d203" d="M1.9 2.75q.25-.25.7-.35.75-.15 2.7.8 1.95.9 2.75 1.55.4.2.7 1.5.3 1.2.05 1.35l-1.35.25-1.8-.2Q5 7.4 3.6 6.35 2.2 5.25 1.9 4.5q-.35-.75-.2-1.35l.2-.4L3 3.1l-1.1-.35" transform="translate(21.8 -.35)"/><path stroke-width=".25" stroke-linejoin="round" stroke-linecap="round" stroke="#626015" fill="none" d="m23.7 2.4 1.1.35M24.35.8 25.6.1M10.15 5.95 14.5 3.9 24.35.8"/><path stroke-width=".25" stroke-linejoin="round" stroke-linecap="round" stroke="#690" fill="none" d="m23.7 2.4-.2.4q-.15.6.2 1.35.3.75 1.7 1.85 1.4 1.05 2.05 1.3l1.8.2 1.35-.25q.25-.15-.05-1.35-.3-1.3-.7-1.5-.8-.65-2.75-1.55-1.95-.95-2.7-.8-.45.1-.7.35z"/></g><g id="l"><path fill-rule="evenodd" fill="#7abc00" d="M.4-8.35 1.5-7.2l.9 1.55q.15.95-.2 2.9-.4 1.95-.95 2.6L.05.7Q-.6.85-1.15.25q-.55-.6-.7-2.75-.2-2.15 0-3.15 0-.45 1.05-1.6l1.2-1.1" transform="translate(2.05 8.45)"/><path fill-rule="evenodd" fill="#a5d203" d="M-.75 7.5q-.9-1.7-1-3.55-.15-.45.5-1.45.6-1.1 1-1.25.45-.1 1.5.5 1.1.6 1.2 1.05.7 1.65.85 3.45.15.4-.5 1.75l-.9 1.35L.6 8.6-.75 7.5" transform="translate(2.05 8.45)"/><path stroke-width=".25" stroke-linejoin="round" stroke-linecap="round" stroke="#719d01" fill="none" d="m2.45.1-1.2 1.1Q.2 2.35.2 2.8q-.2 1 0 3.15Q.35 8.1.9 8.7q.55.6 1.2.45l1.2-.85q.55-.65.95-2.6.35-1.95.2-2.9l-.9-1.55L2.45.1M1.3 15.95l1.35 1.1 1.3.75.9-1.35q.65-1.35.5-1.75-.15-1.8-.85-3.45-.1-.45-1.2-1.05-1.05-.6-1.5-.5-.4.15-1 1.25-.65 1-.5 1.45.1 1.85 1 3.55"/></g><path fill-rule="evenodd" d="M4.5-2.3 3.75.55l-8.25 1.8L.35-1.9l4.15-.4" transform="translate(4.5 2.3)" id="e"/><path fill-rule="evenodd" fill="#554d1e" d="M9.2-4.65 7.9-8.4l1.45-.4 1.8 3.3 1.5-.25L14.5-8.7l1 .65-.95 2.95 4.15 2.15-.5 1.65-3.05-.7Q6.85 2.55-1.3 3.25l.8-7.05q4.05 2 8.9 1.6l.8-2.45" transform="translate(1.3 8.8)" id="g"/><path stroke-opacity=".8" stroke-linejoin="round" stroke-linecap="round" stroke="#000" fill="none" d="M0 .6Q1.5-.7 1.85.9M5.8 2.7q-1.45-2-2.85-.8" transform="translate(.5 .5)" id="b"/><path fill-rule="evenodd" fill-opacity="0" fill="#f0f" d="M0 0h102.95v45H0V0" id="c"/><use xlink:href="#a" width="10.55" height="44.6" id="h"/><use xlink:href="#b" width="6.8" height="3.7" id="i"/><use xlink:href="#c" width="102.95" height="45" id="m"/></defs><path fill="none" d="M-1-1h218v292H-1z"/><use x="130.05" y="288.452" xlink:href="#d" width="381" transform="translate(-192.55 -294)" height="381"/><use x="-205.246" y="67.279" xlink:href="#e" width="9" transform="matrix(-2.0321 -.7995 -4.2663 1.8484 -7.493 -10.604)" height="4.65"/><use x="-71.475" y="128.114" xlink:href="#e" width="9" transform="matrix(-2.0192 .9899 -.1114 2.8038 4.192 -32.603)" height="4.65"/><use x="33.966" y="98.23" xlink:href="#f" width="6.2" transform="matrix(-2.214 2.0895 2.0895 2.214 -9.924 -45.165)" height="6.25"/><use x="-111.666" y="-206.738" xlink:href="#g" width="20" transform="scale(1.3466 -1.3466) rotate(52.643 -46.034 17.455)" height="12.05"/><use x="-42.649" y="94.596" xlink:href="#h" width="10.55" transform="matrix(-3.0493 0 0 3.0493 -4.513 -155.516)" height="44.6"/><use x="6.331" y="2.097" xlink:href="#g" width="20" transform="matrix(-1.281 .4244 -.4244 -1.281 111.5 237.573)" height="12.05"/><use x="-42.649" y="94.596" xlink:href="#i" width="6.8" transform="matrix(-3.0493 0 0 3.0493 -7.025 -85.975)" height="3.7"/><use x="-65.854" y="-33.647" xlink:href="#j" width="37.6" transform="matrix(-2.8541 -2.2163 1.7209 -4.2352 -30.087 -97.642)" height="40.1"/><use x="-40.346" y="50.039" xlink:href="#k" width="30.8" transform="matrix(1.2656 -5.2914 3.6194 1.4981 -48.173 -128.574)" height="8.4"/><use x="43.517" y="86.135" xlink:href="#l" width="5.5" transform="matrix(-1.9163 4.4659 2.478 1.0926 -33.71 -246.137)" height="17.9"/><use x="-9.453" y="80.65" xlink:href="#l" width="5.5" transform="matrix(3.002 -5.0268 1.9644 2.9874 -34.554 -259.039)" height="17.9"/><use x="77.552" y="70.025" xlink:href="#l" width="5.5" transform="matrix(-.0792 3.7638 1.9449 -.0491 -32.322 -219.4)" height="17.9"/><use x="153.193" y="36.406" xlink:href="#l" width="5.5" transform="matrix(.5955 1.9418 1.0664 -.2477 -23.932 -198.188)" height="17.9"/><use x="-90.721" y="14.756" xlink:href="#k" width="30.8" transform="matrix(-1.1096 -3.4173 1.9914 -1.4616 -25.864 -144.714)" height="8.4"/><use x="-1.285" y="-4.52" xlink:href="#l" width="5.5" transform="matrix(.5789 3.4022 1.3842 -.9672 80.767 76.151)" height="17.9"/><use x="-62.086" y="63.616" xlink:href="#l" width="5.5" transform="matrix(-.2953 -4.3455 1.7561 .2933 -60.584 -218.22)" height="17.9"/><use x="133.07" y="-26.157" xlink:href="#l" width="5.5" transform="matrix(1.1355 1.9294 .8048 -1.2122 -47.428 -199.762)" height="17.9"/><use x="234.524" y="-188.572" xlink:href="#l" width="5.5" transform="matrix(.8542 .6068 .3727 -.775 -37.25 -194.345)" height="17.9"/><use x="-65.854" y="-33.647" xlink:href="#k" width="30.8" transform="matrix(-2.8541 -2.2163 1.7209 -4.2352 -39.177 -131.167)" height="8.4"/><use x="73.149" y="-26.211" xlink:href="#l" width="5.5" transform="matrix(2.2143 2.9074 1.218 -2.8911 -105.731 -163.73)" height="17.9"/><use x="-63.593" y="-7.237" xlink:href="#l" width="5.5" transform="matrix(-2.2984 -4.3056 2.2262 -2.0237 -113.55 -164.323)" height="17.9"/><use x="-3.881" y="-.933" xlink:href="#l" width="5.5" transform="matrix(2.2186 .5728 .4171 -2.3837 49.527 126.42)" height="17.9"/><use x="-4.779" y="1.727" xlink:href="#l" width="5.5" transform="matrix(1.2907 -.4825 .0975 -1.335 61.08 118.822)" height="17.9"/><use x="13.745" y="30.364" xlink:href="#k" width="30.8" transform="matrix(-1.3596 .7957 -1.4264 -2.2374 185.34 182.874)" height="8.4"/><use x="-15.697" y="39.23" xlink:href="#l" width="5.5" transform="matrix(1.5338 -.2425 -.9667 -1.55 161.324 207.447)" height="17.9"/><use x="-27.863" y="-157.475" xlink:href="#l" width="5.5" transform="matrix(-2.1112 -.1545 -.4523 -1.8044 -32.25 -134.086)" height="17.9"/><use x="-6.389" y="65.192" xlink:href="#l" width="5.5" transform="matrix(.5932 -.9813 -.8929 -.9705 164.68 199.515)" height="17.9"/><use x="-202.716" y="-255.321" xlink:href="#l" width="5.5" transform="matrix(.0163 -.8282 -.5223 -.4722 -28.07 -156.012)" height="17.9"/><use x="-54.343" y="75.14" xlink:href="#j" width="37.6" transform="matrix(1.776 -2.8342 3.0152 1.7891 -53.707 -142.875)" height="40.1"/><use x="-1.397" y=".521" xlink:href="#k" width="30.8" transform="matrix(3.8138 1.3471 -1.2897 3.6131 106.008 127.85)" height="8.4"/><use x="-60.854" y="67.712" xlink:href="#l" width="5.5" transform="matrix(-3.1741 -1.9887 -.932 2.4727 55.433 -144.367)" height="17.9"/><use x="65.712" y="44.36" xlink:href="#l" width="5.5" transform="matrix(3.5281 3.087 -2.2946 1.9297 64.906 -145.034)" height="17.9"/><use x=".362" y=".025" xlink:href="#l" width="5.5" transform="matrix(-2.7561 -.1337 -.0666 1.9537 166.763 145.067)" height="17.9"/><use x="36.364" y="-72.342" xlink:href="#l" width="5.5" transform="matrix(-1.4555 .5701 .1254 1.0745 211.774 210.255)" height="17.9"/><use x="-11.297" y="-34.161" xlink:href="#k" width="30.8" transform="matrix(2.5647 -1.0651 .9668 2.0208 172.628 207.478)" height="8.4"/><use x="13.071" y="-45.557" xlink:href="#l" width="5.5" transform="matrix(-2.5256 .5323 .6363 1.4039 223.8 177.898)" height="17.9"/><use xlink:href="#l" width="5.5" transform="matrix(3.2024 -.234 -.3078 1.7592 166.336 116.616)" height="17.9"/><use x="63.363" y="264.003" xlink:href="#l" width="5.5" transform="matrix(-1.4749 1.1125 .8466 .8256 22.12 -158.807)" height="17.9"/><use x="165.154" y="384.531" xlink:href="#l" width="5.5" transform="matrix(-.4901 .849 .5487 .3855 17.568 -148.698)" height="17.9"/><use x="-54.343" y="75.14" xlink:href="#k" width="30.8" transform="matrix(1.776 -2.8342 3.0152 1.7891 -28.612 -151.537)" height="8.4"/><use x="58.47" y="127.215" xlink:href="#l" width="5.5" transform="matrix(-2.2491 2.1817 2.056 1.2647 -1.213 -217.91)" height="17.9"/><use x="-9.5" y="117.947" xlink:href="#l" width="5.5" transform="matrix(3.2789 -2.2461 1.3667 2.2647 -.37 -225.782)" height="17.9"/><use x="107.724" y="108.863" xlink:href="#l" width="5.5" transform="matrix(-.5372 2.2197 1.7262 .4532 -3.335 -201.63)" height="17.9"/><use x="215.039" y="70.452" xlink:href="#l" width="5.5" transform="matrix(.2857 1.303 .9739 .1172 1.485 -186.961)" height="17.9"/><use x="3.183" y="-3.13" xlink:href="#k" width="30.8" transform="matrix(-.5118 -1.3768 1.7162 -1.4002 129.758 170.027)" height="8.4"/><use x="-65.702" y="-46.841" xlink:href="#l" width="5.5" transform="matrix(.0969 1.5437 1.1877 -.9484 168.015 202.602)" height="17.9"/><use x="-161.163" y="123.414" xlink:href="#l" width="5.5" transform="matrix(.2247 -2.1178 1.3472 -.4283 -26.844 -144.44)" height="17.9"/><use x="311.724" y="-111.399" xlink:href="#l" width="5.5" transform="matrix(.6884 .6099 .7589 -.8827 -18.373 -139.391)" height="17.9"/><use x="539.733" y="-527.676" xlink:href="#l" width="5.5" transform="matrix(.6065 .0283 .3739 -.5177 -11.003 -139.983)" height="17.9"/><use x="24.215" y="1.903" xlink:href="#j" width="37.6" transform="matrix(-2.3593 -2.5411 -2.5591 2.3818 190.154 200.117)" height="40.1"/><use x="9.185" y="78.687" xlink:href="#k" width="30.8" transform="matrix(-3.4376 2.0835 2.054 3.4226 -28.942 -158.872)" height="8.4"/><use x="-11.562" y="110.681" xlink:href="#l" width="5.5" transform="matrix(2.6709 -2.6141 1.454 2.3331 -109.062 -126.356)" height="17.9"/><use x="39.773" y="90.117" xlink:href="#l" width="5.5" transform="matrix(-2.7767 3.7947 2.6686 1.5261 -118.458 -125.225)" height="17.9"/><use x="20.408" y="153.242" xlink:href="#l" width="5.5" transform="matrix(2.6683 -.6538 .4933 1.9694 -89.538 -129.05)" height="17.9"/><use x="66.411" y="240.878" xlink:href="#l" width="5.5" transform="matrix(1.5495 .3047 .1127 1.1135 -72.13 -123.784)" height="17.9"/><use x="-67.787" y="111.082" xlink:href="#k" width="30.8" transform="matrix(-2.7436 -.5982 -.5035 2.2317 -34.366 -133.877)" height="8.4"/><use x="72.619" y="183.791" xlink:href="#l" width="5.5" transform="matrix(2.5886 .0652 -.3152 1.5437 -90.943 -154.228)" height="17.9"/><use x="-4.604" y="168.027" xlink:href="#l" width="5.5" transform="matrix(-3.1857 .3647 .6867 1.7267 -96.372 -157.738)" height="17.9"/><use x="141.712" y="168.383" xlink:href="#l" width="5.5" transform="matrix(1.6873 .8512 -.6477 .9967 -79.536 -147.167)" height="17.9"/><use x="-83.355" y="14.384" xlink:href="#l" width="5.5" transform="matrix(.6657 .7691 -.4526 .4942 119.16 207.65)" height="17.9"/><use x="24.215" y="1.903" xlink:href="#k" width="30.8" transform="matrix(-2.3593 -2.5411 -2.5591 2.3818 163.737 196.033)" height="8.4"/><use x="94.678" y="71.249" xlink:href="#l" width="5.5" transform="matrix(2.6794 1.7903 -1.7352 1.6695 -69.68 -211.577)" height="17.9"/><use x="-52.972" y="78.464" xlink:href="#l" width="5.5" transform="matrix(-3.7014 -1.662 -.8414 2.5542 -72.252 -219.426)" height="17.9"/><use x="133.061" y="2.906" xlink:href="#l" width="5.5" transform="matrix(1.0121 2.1507 -1.5902 .7842 -64.038 -195.486)" height="17.9"/><use x="240.154" y="-138.673" xlink:href="#l" width="5.5" transform="matrix(.0059 1.3755 -.9276 .302 -65.524 -179.671)" height="17.9"/><use x="14.187" y="32.633" xlink:href="#k" width="30.8" transform="matrix(.1992 -1.4928 -1.9865 -1.0977 150.111 233.612)" height="8.4"/><use x="150.279" y="-68.213" xlink:href="#l" width="5.5" transform="matrix(.2434 1.5841 -1.3703 -.7388 -30.87 -139.755)" height="17.9"/><use x="-.445" y="5.172" xlink:href="#l" width="5.5" transform="matrix(-.684 -2.1061 -1.4124 -.1812 108.587 146.55)" height="17.9"/><use x="-6.045" y="69.72" xlink:href="#l" width="5.5" transform="matrix(-.5401 .7481 -.9361 -.7527 156.368 210.23)" height="17.9"/><use x="10.843" y="3.402" xlink:href="#l" width="5.5" transform="matrix(-.5874 .1427 -.4794 -.4548 95.005 154.053)" height="17.9"/><use x="-42.649" y="94.596" xlink:href="#f" width="6.2" transform="matrix(-3.0493 0 0 3.0493 -16.44 -32.47)" height="6.25"/><use x="-34.307" y="-34.466" xlink:href="#m" width="102.95" transform="matrix(1.8072 0 0 1.6538 81 197.252)" height="45"/></svg>