<svg width="178" height="175" xmlns="http://www.w3.org/2000/svg" xmlns:xlink="http://www.w3.org/1999/xlink"><defs><linearGradient y2="-.442" y1="1.021" x2=".626" x1=".396" spreadMethod="pad" id="j"><stop stop-color="#606b5f" offset="0"/><stop stop-color="#8c9989" offset=".475"/><stop stop-color="#ccd1cb" offset="1"/></linearGradient><linearGradient y2="-.036" y1="-.067" x2="1.68" x1="-1.245" spreadMethod="pad" id="k"><stop offset="0"/><stop stop-color="#c90" offset=".647"/><stop stop-color="#fff" offset="1"/></linearGradient><linearGradient y2="4.728" y1="-2.55" x2="6.405" x1="-3.546" spreadMethod="pad" id="l"><stop offset="0"/><stop stop-color="#c90" offset=".647"/><stop stop-color="#fff" offset="1"/></linearGradient><linearGradient y2=".327" y1=".531" x2="-.629" x1=".698" spreadMethod="pad" id="m"><stop offset="0"/><stop stop-color="#c90" offset=".647"/><stop stop-color="#fff" offset="1"/></linearGradient><linearGradient y2="-.017" y1=".451" x2="-.486" x1="4.133" spreadMethod="pad" id="n"><stop stop-color="#cfc6b4" offset="0"/><stop stop-color="#e3d9c4" offset=".475"/><stop stop-color="#f9f7f3" offset="1"/></linearGradient><linearGradient y2="1.301" y1="-.656" x2="1.018" x1="-1.681" spreadMethod="pad" id="o"><stop offset="0"/><stop stop-color="#c90" offset=".647"/><stop stop-color="#fff" offset="1"/></linearGradient><linearGradient y2="1.159" y1="-1.118" x2="2.058" x1="-1.975" spreadMethod="pad" id="p"><stop offset="0"/><stop stop-color="#c90" offset=".647"/><stop stop-color="#fff" offset="1"/></linearGradient><linearGradient y2="-2.054" y1="2.237" x2="-.676" x1="1.454" spreadMethod="pad" id="q"><stop stop-color="#606b5f" offset="0"/><stop stop-color="#8c9989" offset=".475"/><stop stop-color="#ccd1cb" offset="1"/></linearGradient><linearGradient y2="-.309" y1=".958" x2="-.378" x1="1.663" spreadMethod="pad" id="r"><stop stop-color="#606b5f" offset="0"/><stop stop-color="#8c9989" offset=".475"/><stop stop-color="#ccd1cb" offset="1"/></linearGradient><linearGradient y2="-.454" y1="1.101" x2="-.336" x1="1.101" spreadMethod="pad" id="s"><stop stop-color="#606b5f" offset="0"/><stop stop-color="#8c9989" offset=".475"/><stop stop-color="#ccd1cb" offset="1"/></linearGradient><linearGradient y2="-683.958" y1="-683.958" x2="571.05" x1="-81.043" spreadMethod="pad" id="t"><stop stop-opacity=".6" offset="0"/><stop stop-opacity=".478" stop-color="#8d998a" offset=".204"/><stop stop-opacity="0" offset="1"/></linearGradient><linearGradient y2="1.955" y1="-.965" x2=".767" x1=".231" spreadMethod="pad" id="u"><stop stop-color="#606b5f" offset="0"/><stop stop-color="#8c9989" offset=".475"/><stop stop-color="#ccd1cb" offset="1"/></linearGradient><linearGradient y2="-2.822" y1="3.591" x2="-.111" x1=".96" spreadMethod="pad" id="v"><stop stop-color="#606b5f" offset="0"/><stop stop-color="#8c9989" offset=".475"/><stop stop-color="#ccd1cb" offset="1"/></linearGradient><linearGradient y2="-124.827" y1="63.737" x2="-84.056" x1="137.456" spreadMethod="pad" id="w"><stop stop-color="#606b5f" offset="0"/><stop stop-color="#8c9989" offset=".475"/><stop stop-color="#ccd1cb" offset="1"/></linearGradient><linearGradient y2="-2.9" y1="3.897" x2=".538" x1="2.492" spreadMethod="pad" id="x"><stop stop-color="#606b5f" offset="0"/><stop stop-color="#8c9989" offset=".475"/><stop stop-color="#ccd1cb" offset="1"/></linearGradient><use xlink:href="#a" width="293.55" transform="matrix(1 0 -.1846 1 53.75 0)" height="291.35" id="B"/><use xlink:href="#b" width="107.2" transform="matrix(1.0943 0 0 .3248 -.004 -.01)" height="107.2" id="f"/><use xlink:href="#c" width="107.2" height="107.2" id="b"/><use xlink:href="#d" width="62.8" height="63.6" id="h"/><use xlink:href="#e" width="102.95" height="45" id="C"/><g id="A" stroke-opacity="0" stroke-linejoin="round" stroke-linecap="round" stroke="#f0f" fill="none"><path d="M187.95-293.5v380h-380v-380h380M92.95.6H-97" transform="translate(192.55 294)"/><path d="m187.95-293.5-190 190 190 190m-379.95 0 189.95-190-190-190" transform="translate(192.55 294)"/></g><g transform="translate(.75)" id="a"><use xlink:href="#f" width="117.3" transform="matrix(1.7493 0 0 1.6322 75.356 234.55)" height="34.8"/><use xlink:href="#g" width="292.05" height="276.7"/><use xlink:href="#h" width="62.8" transform="matrix(.2279 -.4938 .3167 .2994 124.65 115.45)" height="63.6"/><use xlink:href="#i" width="293.55" transform="translate(-.75)" height="277.45"/></g><g id="g"><path fill-rule="evenodd" fill="#8d998a" d="m151.3 101.35.1-.05-.05.15-.05-.1"/><path fill-rule="evenodd" fill="#626c60" d="M151.95 46.8q7.5 3.65 11.9 8.9 7.5-25.1 26.9-30.4 4.3 1.15 1.1 3.2l-.4.25q-5.9 3.6-10.2 8.05 9.8 2.1 11.25 18.95l-.3 1.65q-.5 2-1.4 1.2l-.35-.4q-3.15-11.55-14.1-15.3-6.95 10.5-6.85 24.95 8.3 5.3 12.15 10.5l.45.65 1.9 3.15 1.5 2.6 2.65 5.3-.55.45.55-.45q2.95 6.5 4.45 12.75l.4 1.9.3 1.45-91.05 18.7-1.35-1.1 1.35 1.1 4.4 3.35 1.05.7.85.55-1.05 2.45-.7 1.85q-2.55 7.05-3.8 16.25v.05l-.15.9q.1 2.3 1.05 3.9.5.9 1.35 1.6l.8.5.05.05.15.1q.15 1.5-.3 3.3l-.9 2.4-1.7 3.05q6.3-2.4 11.6-3.65l5.8-1.05-1.35-5.2.45-.15h.05q10.5-2.55 25.45-2.6l2 .6q-11.85.4-18.35 2-3.4.85-5.3 2l2 4.8q6.15.05 13.75 7.45l-.15.55 1-.1 10.2-1.1q5.2-2.05 10.05-3.6 13.95-4.6 24.75-5.2.75-1.8-4-2-.25-2.2 8.4-3.2.75-.8-1.6-1.6l-2.05-.3-.45.05-1.5.25q-2.05-.4-2.15-1.85l-.45-3 .1-.15q1.5-2.5 5.7-5 4.3-1.8 10.55-1.6h.25l-.25-1.3.2-.8q.95-5.5-2.75-12.7l-6.4-10.6 4-5.1 7.2 6.55.5.45v.05l1.5 5-1.2-.95 1.2.95 4.5 15.2v.05q.6 5.5-4.45 6.95l-1.05.25-2.45-.3-.7 2.3-.25 1.05v.05q-.6 2.35-.7 4.15-.1 1.4.05 2.45l.05.3.35 3.95.05.7-.7.15-.4.2-1.9 1-.3.15-2.05 1.05q-5.1 2.55-9.9 4.7l-3.95 1.65-.85.35-3.7 1.4q-14.35 5.25-25.3 5.45h-2.3l-3.65-.3-.3-.2q-9.65-6.5-15.65-9.25-2.55-1.2-3.7-1.5l-.2-.05-.15-.05-.1-.1-.6-.65-.15-.1-3.6-.2-.25.05q-1.3.45-2.15 1.75l-.4.7-.15.35-.3.65-.15.55 1.2 2.8 1.55 2.85.85 1.35.65.9-.45 1.2-1.45 2.55-.25.4q-2.8 4.35-8.6 10.7l-1.5.1-.95.05q-19.05.75-26.15-8.6l.7-.5.05.05 4.8 3.95q6.65 3.35 10.2 2.8l8.8-3q-.05-3.15 5.4-7-3.2-1.05-2.8-4.2l.8-3.2q-5.15-2.85-17.55.2l.05-.1 1.65-2.35q-.85-10.4 12.2-37.55-4.5-3.55-2.95-8.25-4.55-3.9-7.7-8.15l-.15-.2-.25-.3-.7-1.05-2-3.3q-3.85-7.25-3.95-15.4v-.05q11.6 3.3 26.4 9.15-3-9.75 4.25-4.65 3.75 2.8 6.85 6.2l1.55 1.8 1 1.25.05-.35 2.2-8.15 1.1-1.25q6-6.15 16.45-4.35l5.2 6.3.1.1.05.1.05-.15q2.55-7.75 6.5-8.45 3.85 1.1 2.65 5.15 7.55-8.65 15.1-14.95l-.4-.65-1.9-3.15q-4.25-6.15-14.75-12.5.75-3.6-1-7.25-3.35-5.75-9.8-9.9-3.4 2.2-4.65 1.9 1.85-.25 4.65-1.9l4.05-2.75.1-.05m17.55 21.05-2.15-1.35q.75-3.6-1-7.25-1.1-1.85-2.5-3.55 1.4 1.7 2.5 3.55 1.75 3.65 1 7.25l2.15 1.35m50.75 67.85 12.5-2.85 1.15 1.15-14.6 2.4h13.8l.45.25 1.95 1.15-16.75-.75.1-.65 1.4-.7m10.85 11.7.8.25.85-.5h.05l.6-.4 1.1-1.7q4.3-6.05 10.05-3.15l1.5.9.45-1.2q-8.05-16-25.2-24.8l-27.45-6.25v-.05l-.05-.4-.15-1.5-.2-1.45 28.65 4.05q12.65 6.5 24.8 19.8 3.2 4.6 4.8 8.15l.7 1.85.65 2.25q-.6.05-1.1.4l-.15.05-.35.2-.1.1q-.6.4-1.15 1.15l-.3.45q-.55.65-1 1.6l-.6 1.2q-1.65-1.45-3.15-2.2l-.15-.1q-2.7-1.35-5.1-.6-2.3.85-4.55 3.5l-.05.1-.2.25-1.1 1.7-.6.4h-.05.05-.05l-.85.5-1.6-.55-2.6-3.75-.2-.25h-.05q-5.35-6.15-9.3.45-.3-.65-.45-1.65l-.1-.85q-.1-.8-.05-1.75l.05-.1q3.9-6.55 9.25-.4h.05l.2.25 2.6 3.75.8.3m-11.8-11h-.45.45m-18.6 3.5-2.55.95-.3.05.3-.05 2.55-.95m-1.85 4.55-.2 1.45-.75-.05h-1q-5 0-9.55 2.35l-5.4 3.75 5.4-3.75q4.55-2.35 9.55-2.35h1l.75.05.2-1.45m-77.6 16.5-.5.2.5-.2m104.9 11L228 170l-.7-2 2.3-2-.6-8.8-.7-2.1 1.95-3.15 1.55.55 1.3 2 .4 3.2.9 1.8-.8.4.7 6.4.65 1.95-1.45-1.05-.8-8-1.85.3-.55-1.3.55 1.3 1.25 8.1-1.5 3-.7-.2.7.2-.3.6-4.15.75m6.35-14.35.2 1.6-.2-1.6m11.55 79.7.3.2q6.8 4.5 7.55 10.7.1 4.8-1 6l-.6-.15.1.5-.1-.5.6.15-.5.35-.5.05.5-.05q.95 4.25-1.55 7.9l-1.7 1.25q2.7-6.3-.05-12.25-2.6-5.6-10-10.85-8.6-12.85-36.8-9 10.55-5.55 23.95-1.65l.5.15 1 .25q11.8 2.7 18.3 6.95m8.7-67 .05-1 .55-1.4-2.65-7.3-.7-.4.1-3.9-.9-1.3.7-2.85 1.8 1.15 5.1 11.4.4 2.1 1.4 1.7-2.85-1.95.55 1.25-3.2 2.4-.35.1m-1.85-15.1 4.85 11.35-4.85-11.35m-156-81q-1.55 1.95-2.85 4.4Q88.4 68.9 78.8 62q-7.85 2.75-8.85 12.35l-1.7-1.45q1.85-15.4 8.6-13-7.4-4.2-17-7.05Q82.3 50.1 94.9 74.2m40.25-31.1.45-.35-.85 2.2-1.3 2.1.65-1.7.1-.2.95-2.05m-14.4 118.05.9 3.6-.9-3.6m-29.1 8.4q5.55-1.4 11.7-3.7-6.15 2.3-11.7 3.7m62.6 54.35.75-.7q8.6 3.15 13.3 0l-3 7.8q4.35 2.85 5.6 7.2 1.6 4.7-.8 9.4-4.7 5.6-11.15 5.4-7.85 13.65-32.75 21.85l-.55.25q-11.95 5.05-21.55-5.8-1.95-2.2-3.8-5.05l-.2-.8q-.35-1.35-.25-2.6-.1 1.25.25 2.6l-3.85-1.35q.85-6.85 2.45-7.7 6.05-7 13.6-8.6l2.85 1.5q-7.65 2.9-11.45 6.45-3.6 3.25-3.85 7.1 3.6 4.95 7.25 7.9 3.5 2.85 7 3.85 9.95-.35 15.8-3.4 22.85-11.4 34.2-28.6-.45-4.75-6.4-7.4l2.7-1.35-1.5-1.65 1.6-2-7.35-1.25-.2-2.3.2-.15.4-.3.2.15.5-.45m6.45 25.5-1.75 3.6 1.75-3.6m-70.4 4.8 2.8-5.6q4.5-5.35 10.4-6.4l4.2.2q-15.2 7-15.6 13.2l-1.8-1.4M237 265.1l-.55 2.5-.2.05q-42.2 9.05-51.35-17.25-5.15.5-7.8-1.8-2.15-1.95-1.2-5.4.5-5.1 3.4-7l2.95-1.35-.75 1.95 5 2.8q2.65 4.3 2.2 9.4 7.75 13.15 13.4 14 16.85 4.7 28 .8 2.4-1.7 1-7.2-1.55-3.45-4.6-6.9l-.15-.15-2.05-2.15-.6-2.7 1.05.65.3.2Q238.65 254 237 265.1m-55-39.05v-.1l-.2-1.9 13.5 1.05h.05l1.25 8.8q-2.4 1.7-4.65 3.95l-.75.8.1-1.85-3.2-1.2 3.4-2.4-.2-3.6-2.6-1.2 1.8-1.2-8.5-1.15m68.3 28q-1.7-6.4-11-14.25 9.3 7.85 11 14.25"/><path fill-rule="evenodd" fill="#ccd1cb" d="M209.5 11.35q-11.95-3.6-31.65.65l1.55-3.1.05-.15h.35q17.45-5.3 27.7-1.25 1.7 1.9 2 3.85M179.75 2.6Q166.2 4.45 154.8 37l-1.35-.65 1.35.65-.2.25-1.7.2q-8.35 1.05-18.15 7.5l.85-2.2q5.1-4.15 10-5.75 3.6-1.15 7-1l.85.35q2.55-24.9 19.6-34.75h.05q5.3-2.1 6.65 1m-39.1 19.7q-2.8-3.15-6.55-3.55-8.45-1.25-16.3 14.5l-.5.95q-2.2 7.25-.45 11.55l-3.4-3.2q-.85-20.45 14.65-26.3l1.95-.85q11.35-4.55 10.6 6.9m-33.6 13.4q-4.55-.5-5.7 3.3-2.2 4.7 2 15.75l-2.55 1.85q-2.35.45-2.7 1.9-2.5 6.2.75 13.25l-3 1.2q-3.4-5.6-1.25-13.95 2-4.6 4.95-4.45-.75-1.4-1.15-3.05-.55-1.9-.65-4.15.1 2.25.65 4.15-11.9-17.45-33.55-28-3.6-.1.05 9.15l-2.8.1q-10.9.2-20.5 4.75-3.2 2.8 1.55 6.5l.05.05-.25.5-1.05.1-.3.05q-6.75.4-5.1-5.85l.25-.95q5.7-6.75 24.6-6.9-4.65-11.25 4-9.95l.95.15q14.35 3.55 31.45 26.15-.15-2.15.1-4.6 0-4.25.85-6.55 1.55-4.55 6.15-1.7l.25.1 1.95 1.1m-6.25 20.9-1.25-2.05 1.25 2.05m-58.35 45.65q-16.35-21.75-6-37.7-3.9 2.9-5.3-.9l-.3-1.1q.2-7.1 10.75-17.85l.3-.05 1.05-.1q-8 9.95-8.6 17.2 5.35-2.6 7.75-1.25-10.75 18.95.45 41.7l-.1.05M37.1 64l-.45.4-.2.15.2-.15.45-.4m25-31.25L61.35 31l.75 1.75"/><path fill-rule="evenodd" fill="#99a597" d="m193.85 110.5-.05.05-.9 1.15-4 5.1-3.9 4.9-.05.1-4.35 5.45-4.65 4.05q-17.35 13.9-34.1 12.4-7.5-.7-14.85-4.5l-1.85-1q-8.15-3.55-14.55-7.45l-2.05-1.3-.85-.55-1.05-.7-4.4-3.35 91.05-18.7.15 1 .2 1.45.15 1.5.05.4m-1.35-3.5.95.15-.95-.15m.4 4.7-.8-.75.8.75"/><path fill-rule="evenodd" fill="#758372" d="m220.25 135.7-2.05.5-.45-.15V136h-.05l-.55-.25 9.55-3.55v-.1l.4-3.7q-3-4.35-10.4-7.2-7.45-3.9-15.6-3.1l-1 .15-7.2-6.55.9-1.15.05-.05v.05l27.45 6.25q17.15 8.8 25.2 24.8l-.45 1.2-1.5-.9q-5.75-2.9-10.05 3.15l-1.1 1.7-.6.4h-.05l-.85.5-.8-.25 2.8-4.8-1.6-4q-8.35-2.1-13.8.2l.25-1.75 16.75.75-1.95-1.15-.45-.25h-13.8l14.6-2.4-1.15-1.15-12.5 2.85m8.05 11.95 2.6 3.75 1.6.55.85-.5h.05l1.3 3.95 2.4 2.8-1 2 1.6 5.6 1.45 2.3.3 1.5 10.05-.4-2.8-5.8.8-2.2q.65-3-1.8-5.2l-2.4-2.2 1.6-3.4-.15-.05.65-2.35-.25-1.8q1.5.75 3.15 2.2l.6-1.2q.45-.95 1-1.6l-.1 1.3.5 1.6-.1.4 3.3 4.3 2.2 1.6-2 .4 4 9.6 2.8 3.55q3.4.15 6.8-.95l-.4-2.6-2.2-1.8-.4-4.2-6.2-7.8-1.8.6.2-3.4-3.4-3.15.2-.05-1.35-1.35q.5-.35 1.1-.4 1.65-.2 3.45 1.65l.6.7 2.4 3.05.8 1.05 10.8 13.7.05.75v.05q-.05 2.65-2.85 4.2-4.15 2.45-9 .6l-.3-.2-.4-.3-1.4-1.7-.4-2.1-5.1-11.4-1.8-1.15-.7 2.85.9 1.3-.1 3.9.7.4 2.65 7.3-.55 1.4-.05 1q-3.9 1.1-7.5 1.1l-1.8-.05-1.2-.1-1.6-.25-2.95-.8-2.75-1.95-.65-1.95-.7-6.4.8-.4-.9-1.8-.4-3.2-1.3-2-1.55-.55-1.95 3.15.7 2.1.6 8.8-2.3 2 .7 2-1.85 1.95-.25.05q-7.45.8-14.45-2l.3-.8q6.15 1.3 10.35.6l1-1.8-2.2-2.2 4.2-1.8q1.7-2.95.4-7.4l-1.2-2.4 3.6-2.6.4-3.95M185 121.7l3.9-4.9 6.4 10.6q3.7 7.2 2.75 12.7l-.2.8.25 1.3h-.25q-6.25-.2-10.55 1.6-4.2 2.5-5.7 5l-.1.15.45 3q.1 1.45 2.15 1.85l1.5-.25.45-.05 2.05.3q2.35.8 1.6 1.6-8.65 1-8.4 3.2 4.75.2 4 2-10.8.6-24.75 5.2l1.15-2.4 2.6-1.1 5.8-2.5-6-1.6 12.8-5.2-7.6.4 6-8-7.6-2 10.4-9.6q-11.05 9.25-25.2 12.4-13 1.2-21.6-2l-23.8-12.3 1.05-2.45 2.05 1.3q6.4 3.9 14.55 7.45l1.85 1q7.35 3.8 14.85 4.5 16.75 1.5 34.1-12.4l4.65-4.05 4.35-5.45.05-.1m-16.7 40.95q-2.9 1.3-4-.35 1.1 1.65 4 .35m29.55-21.75q-3.25.75-2.8-2-.45 2.75 2.8 2m47.25 29.9.15.6-.15-.6m13.8-22 .6-.15-.6.15m-146.3 3.1q-4.75.5-4.05-2.75.45 2.9 4.05 2.75m40.55 75.05 7.35 1.25-1.6 2 1.5 1.65-2.7 1.35q5.95 2.65 6.4 7.4-11.35 17.2-34.2 28.6-5.85 3.05-15.8 3.4-3.5-1-7-3.85-3.65-2.95-7.25-7.9.25-3.85 3.85-7.1.5 3.1 4.6 5.65 4.3 3.85 12.6 3.1 17.45-10.3 26.9-24.65-.45-4.75-6.4-7.4l2.05-1 10.05 1.95-.35-4.45m71.9 18.6 7.65 2.65q5.55 2.4 6.6 7.8 3.45.7 6.2-1.2l1.6-3.35q2.75 5.95.05 12.25-6.1 4.15-10.15 1.4 1.65-11.1-11.95-19.55m-42.8-10.7.4-.15.15-.05h-.15v-.25l-.05-.4-.05-.75-.55-7.2 8.5 1.15-1.8 1.2 2.6 1.2.2 3.6-3.4 2.4 3.2 1.2-.1 1.85-.05.05-1.2.85.15.2q1.85 3.05 1.8 6.45 7.1 8.3 17.6 11.2 11.55 1.55 14-1.4l3-6.3q3.05 3.45 4.6 6.9 1.4 5.5-1 7.2-11.15 3.9-28-.8-5.65-.85-13.4-14 .45-5.1-2.2-9.4l-5-2.8.75-1.95m.45.35-.05-.5.05.5m1-1-.9.45.9-.45"/><path fill-rule="evenodd" fill="#930" d="M179.35 178.3q1.7.1 2.25 1.3l.05.05.05.15.1.4q1.95 2.85-4.3 8.4l-1.05.65-.1.05.05-.05-.15-.1q-1-.55-1.55-2.55.75-4.45 4.65-8.3"/><path fill-rule="evenodd" fill="#aba4bd" d="m177.05 172.95.75-.7.95-.1.45-.05-1.75 1.75-.05.05-.1.15q-4 4.4-6.8 10.6l-1.05 2.6-.55 1.4-.1.3-.4 1.15q-.75 2.2-1.35 4.6l.1.55.05.1.3 1.3.8 2.05q1.5 2.75 4.7 2.25-4.8 1.8-6.7-2.05l-.55-1.4-.4-1.75-.1-.55.25-.95v-.05l1.4-4.5.15-.35.4-1.2 1.25-3q2.75-6.1 6.6-10.45l.15-.1.45-.5 1.15-1.15m2.3 5.35h-.65l.1-.1 1.8-.1q1.15.05 1.85.6l.2.2q.5.45.65 1.3 1.1 1.6-.2 4.05l-.5.85q-1.35 1.95-3.95 4.3-1.75 1.3-2.95 1-.75-.25-1.25-1.05l1.9-.05.1-.05 1.05-.65q6.25-5.55 4.3-8.4l-.1-.4-.05-.15-.05-.05q-.55-1.2-2.25-1.3"/><path fill-rule="evenodd" fill="#dedbe6" d="m185.3 174.65.05.1.05.3.05.25.25 1.25.1.4v.15l.2 1.5q.85 10.35-8.65 19.75l-.1.25-3.25 1.95-1 .4q-3.2.5-4.7-2.25l-.8-2.05-.3-1.3-.05-.1-.1-.55q.6-2.4 1.35-4.6l.4-1.15.1-.3.55-1.4 1.05-2.6q2.8-6.2 6.8-10.6l.1-.15.05-.05 1.75-1.75 2.55.05h.15q2.65.4 3.3 2.25l.1.25m-10.85 14.7q.5.8 1.25 1.05 1.2.3 2.95-1 2.6-2.35 3.95-4.3l.5-.85q1.3-2.45.2-4.05-.15-.85-.65-1.3l-.2-.2q-.7-.55-1.85-.6l-1.8.1-.1.1-1.05.1-.05.1q-3.95 3.85-4.7 8.3.55 2 1.55 2.55"/><path fill-rule="evenodd" fill="#6a2300" d="M178.7 178.3h.65q-3.9 3.85-4.65 8.3.55 2 1.55 2.55l.15.1-.05.05-1.9.05q-1-.55-1.55-2.55.75-4.45 4.7-8.3l.05-.1 1.05-.1"/><path fill-rule="evenodd" fill="#f9f7f3" d="m197.45 160.15.15.05-.1.65-.05-.7m-1.3 25.6.05-.25.2.05-.05.05-.15.1-.05.05m1 6.95-.05-.3.2.15-.15.15"/><path fill-rule="evenodd" fill="#e3d9c4" d="M185.3 174.65h.1l.35-.1q2.65-.6 5.65-2.95l1.75-2.15.05-.95h-1.6l.4-.3h.05l1.2-1.05.8-.8.65-1.2-.05-.8-10.35 5.1-1.25.6-4.3 2.1-.95.1-.75.7-3.7 1.7-2.65 1.2-2.05.95-1.35.6q-12.05 5.2-15.4 5.25h-.05l-.75-.1-.2-.1-3.2-2.1-2.05-1.4-3.15-2.3 3.65.3h2.3q10.95-.2 25.3-5.45l3.7-1.4.85-.35 3.95-1.65q4.8-2.15 9.9-4.7l2.05-1.05.3-.15 1.9-1 .4-.2.65.35.1.05.3.2.1.05.35.25 1 .9.05.05.35.6v.1l.05.15v.55l-.15.45-.35.55-.3.35q-2.1 1.9-6.3 6.9-1.2 1.35-5.15 3.55l-1.45.8H186l-.2.1-.1-.4-.25-1.25-.05-.25-.05-.3-.05-.1m5.85 30.8q2-1.2 4.05-6.3.3-1.6.1-3.15l-.55-1.95-.3-.65.05-1.65.05-.45v-.25q.3-3.4 1.6-5.3l.05-.05.15-.1.05-.05q-.9 1.95-1.3 5.1l-.1.75-.1.9.05.05.65 1.6q.5 1.6.5 3.55l-.05.8q-.45 3.7-2.45 6.1l-1.15 1.15-.7.65-1.05-.5.45-.25 1.3.1-1.3-.1m6-12.75-.9-1.4.75-.6.4.2q1.85.95 3.1 3.7l-.5-2.6-2.1-3.8h.5l1 .15q1.75.45 4.2 2.05l-1.3-1.6-3.6-1.7q.7-2.15 3.3-4.3l4.9-1.4-3.2-1 2.8-1.4 1.55.3 1.5.35q2.45.7 3.75 1.65 3.3 2.95 4.4 6.3 1.25 3.95.35 8.55 1.5-2.05 1.85-7.55-.35-2.5-4.4-6.8l1 .45q2.5 1.15 4.4 2.75 3.6 2.8 4 6l-.05.95q-.25 2.6-1.55 4.65l2.2-1-1.8 5.4-2.25 3.3-4.15 5.2q-3.1 3.45-6.4 6.1l.05-.1.35-3.1h-2l-2.35-3.15 3.15 1.15 4.6-.8q4.6-6.1 4.8-10l-4 2.8q.7-5.65-2.4-6.6l-4.9-2.25q-.35 3.9-1.7 7.85l-1-5.4q-1 .55-2.6-1.4-.3-.7.2 3.8l-.95 5.45-1.05 3.15q.7-4.6.2-8.6-.7-3.9-4-5.85l-.2-.15.05.3m5.35 15.05 6.05 9.3.1.25.25.6-1.6.45-.35.2q-3.7 1.85-6.7 1.75l1.9 1.15q-7.35 2.25-20.4.95l-3.5-.4-1.55-1.2-2.8-4.4 2 .6 1.6 2.6 15.8 1.4 2.4-1.6-1.85-2.8-2.55-1.55 3.4-.25q2.85 2.65 6.4 4l-.6-1.8 3.15 1.55.05.05 2.4-.8 1.2.55v-1.55l-5.2-8.8.4-.25m-6.3-22.05.1-.05.05-.05-.05.05-.1.05m30.85 8.4-.15.4v-.5l.15.1m-120.3 4.4q.05-.65.85-2.05l1.5-2.35q2.8-4.25 8.95-12l.25-.3 1-4.8q3.2 4.2 7.55 6.45 4.9 4 9.75 3.5l-5.9 2.25-8.2.8-5.6 4.4-2.2-1q-.4 6.95 2 9l4.8 2.6-2.2 5q.8 5.7 9.7 10.85l1.7.95 7.8.8q7.75-.55 7.9-2.65 10.3.35 7.15 4.25l-.4.3-.2.15-.15.1-.7.45-.95.55-.5.2-.2.15-.25.1-5.35 2-1.75-.2q-9.8-1.35-18-4.3-6.4-4.3-11.45-12.6-.6-1.65-.9-3.8l-.15-1.2q-.2-2.35-.15-5.25l.2-4.15-1.05.65-.2.15-.3.2-.75.35-.3.15q-1.75.85-2.7.6l-.6-.3m6.6-2.3-.7.5.7-.5m89 25.25-.15.05-.05-.05h.2m-8.5-4.85 6.4 3.7-6.4-3.7"/><path fill-rule="evenodd" fill="#cfc6b4" d="m185.8 176.95.2-.1h.05l1.45-.8q3.95-2.2 5.15-3.55 4.2-5 6.3-6.9l.3-.35.35-.55.15-.45v-.55l-.05-.15v-.1l-.35-.6-.05-.05-1-.9-.35-.25-.1-.05.05-.2.25.05.15.05 1.25.25.15.05 1.45.35.15 3.45q-2.5 4.5-7.4 9l-6.95 4.1v.05l.35 1.6v.15q1.85 11.2-9 21.25l-.1.25-3.45 1.95-1.1.4q-6.7 2.4-8.1-5.2l-.05-.25-.05-.3.3-1.1.55 1.4q1.9 3.85 6.7 2.05l1-.4 3.25-1.95.1-.25q9.5-9.4 8.65-19.75l-.2-1.5v-.15m-17.1 8.2-1.25 3-1.2.9-1.35 1q-7.55 5.2-14 6.75l2.6-3.4-3-.6 3.5-1.85 2.2-.85 9.6-3.75.2-.1 1.45-.6 1.25-.5m27.7.4q6.5-4.95 10.45-9.4l2.05-2.5q1.35.5 2.65 1.15l1.45.7q5.25 2.85 10 7.8 1.95 2 3.8 4.35l1.15 1.8.6 1.65.15 1.35q0 1.7-1.15 3.2-2.8 10.6-17.35 22.9l-.8.7-.05-.15-.2-.5-.1-.3-.15-.4.15.4.1.3.2.5.05.15.25 1.5q0 1.75-2.95 0l-.85-.55-2.3.8-1.2.45h-.2l-1.9-1.15q3 .1 6.7-1.75l.35-.2 1.6-.45-.25-.6-.1-.25-6.05-9.3.1-.05 3.7.7.65.85 2.35 3.15h2l-.35 3.1-.05.1q3.3-2.65 6.4-6.1l4.15-5.2 2.25-3.3 1.8-5.4-2.2 1q1.3-2.05 1.55-4.65l.05-.95q-.4-3.2-4-6-1.9-1.6-4.4-2.75l-1-.45q4.05 4.3 4.4 6.8-.35 5.5-1.85 7.55.9-4.6-.35-8.55-1.1-3.35-4.4-6.3-1.3-.95-3.75-1.65l-1.5-.35-1.55-.3-2.8 1.4 3.2 1-4.9 1.4q-2.6 2.15-3.3 4.3l3.6 1.7 1.3 1.6q-2.45-1.6-4.2-2.05l-1-.15h-.5l2.1 3.8.5 2.6q-1.25-2.75-3.1-3.7l-.4-.2-.75.6.9 1.4.95 4.9q.25 3.15-.8 5.6l-.6.7-2 1.9-1.6 1-1.35-.6.7-.65 1.15-1.15q2-2.4 2.45-6.1l.05-.8q0-1.95-.5-3.55l-.65-1.6-.05-.05.1-.9.1-.75q.4-3.15 1.3-5.1m30.65 8.55-.15-.1v.5l.15-.4m-45.25 29.95-1.1-.15-5.1-.7-3.15-2.8.4-1.45-1-3.25 2.05.7 2.8 4.4 1.55 1.2 3.5.4q13.05 1.3 20.4-.95l.05.05.1.05 1.55.9.2.65q.1 1.2-1.95 1.1l-1.45.5-5.3.4h-.05l-13.5-1.05-.05-1.65.05 1.65"/><path fill-rule="evenodd" fill="#fff" d="m197.6 160.2.55.05.9.1h.35l4.2.7q4.7 1 6.8 2.85l.8.8.5.8.2.55v.05l.05.2.1 1.55v.1l-.3 1.25-.3.8-.3.55-.35.65-.65.55-1.25 1.9-2.05 2.5q-3.95 4.45-10.45 9.4l-.2-.05-.05.25q-1.3 1.9-1.6 5.3v.25l-.05.45-.05 1.65.3.65.55 1.95q.2 1.55-.1 3.15-2.05 5.1-4.05 6.3l-.85.05h-.05l-2.35.1 5.8-8-1-2.8-.2-4.2-5.8 1.4.4-2.1 4.85-3.5.9-.7 1.45-1.1q6.85-5.55 10.4-10.3l1.25-1.9.65-.55.55-1.05q1.2-2.6.4-4.5l-.85-1.3-.6-.55q-1.7-1.4-4.95-2.3l-1.45-.35-.15-.05-1.25-.25-.15-.05-.25-.05-.35-.05-.05-.5.1-.65m-55.1 16.45 3.15 2.3 2.05 1.4 3.2 2.1-3 .75-8.55-4.5-.15-.05-.3-.2-.25-.2-4.7-3.65q-4.55-3.5-8.9-5.05l-1.55-.55-3.65-1.2-.3-.1-.2-.05-.15-.05-.1-.1-.3-.35-.45-.4-2.7-.4q.85-1.3 2.15-1.75l.25-.05 3.6.2.15.1.6.65.1.1.15.05.2.05q1.15.3 3.7 1.5 6 2.75 15.65 9.25l.3.2m48.15 12.7q.95-.35 1.8-.9l1.45-1.05.9-.65 1.35-1-1.35 1-.9.65-1.45 1.05q-.85.55-1.8.9m13.05-27.75-.1-.55.1.55m-95.55 29.75q5.8-6.35 8.6-10.7l.25-.4 1.45-2.55.45-1.2.4.5-1 4.8-.25.3q-6.15 7.75-8.95 12l-1.5 2.35q-.8 1.4-.85 2.05-.75-.75-.4-3l.2-1.05.55-2 1.05-1.1m3.25 6.15.2-.15 1.05-.65-.2 4.15q-.05 2.9.15 5.25l.15 1.2q.3 2.15.9 3.8l-1-1.65-.65-.5-.2-.3q-.85-1.35-.85-4.75v-.75l.05-1.5.4-4.15"/><path fill-rule="evenodd" fill="#899686" d="M218.5 138.8q5.45-2.3 13.8-.2l1.6 4-2.8 4.8-.8-.3-2.6-3.75-.2-.25h-.05q-5.35-6.15-9.25.4l-.05.1v-.65l.35-4.15m-18.4-20.55 1-.15q8.15-.8 15.6 3.1 7.4 2.85 10.4 7.2l-.4 3.7v.1l-9.55 3.55q-8.3-4.1-14-10.75l-1.05-1.25-1.5-5v-.05l-.5-.45m17.85 31.05.05-.05.15-.3.45-.8.15-.3q3.95-6.6 9.3-.45h.05l.2.25-.4 3.95-3.6 2.6 1.2 2.4q1.3 4.45-.4 7.4l-4.2 1.8 2.2 2.2-1 1.8q-4.2.7-10.35-.6l.3-1.25v-.1l-.1-1.55-.05-.2v-.05l-.2-.55-.5-.8-.8-.8.65-1.75.2-.55q2.7-7 5.85-10.4l.85-1.9m15.45 2.15.6-.4 1.1-1.7.2-.25.05-.1q2.25-2.65 4.55-3.5 2.4-.75 5.1.6l.15.1.25 1.8-.65 2.35.15.05-1.6 3.4 2.4 2.2q2.45 2.2 1.8 5.2l-.8 2.2 2.8 5.8-10.05.4-.3-1.5-1.45-2.3-1.6-5.6 1-2-2.4-2.8-1.3-3.95m16.5-5.85.3-.45q.55-.75 1.15-1.15l.1-.1.35-.2.15-.05-.5.25.5-.25 1.35 1.35-.2.05 3.4 3.15-.2 3.4 1.8-.6 6.2 7.8.4 4.2 2.2 1.8.4 2.6q-3.4 1.1-6.8.95l-2.8-3.55-4-9.6 2-.4-2.2-1.6-3.3-4.3.1-.4-.5-1.6.1-1.3m-10-.1q2.45-.7 5.25.7-2.8-1.4-5.25-.7"/><path fill-rule="evenodd" fill="#473500" d="m234.95 168.25 2.75 1.95 2.95.8 1.6.25 1.2.1 1.8.05.9 4.2h-1.9l2.65 14.6-1.6-2.2q-1.95-.7-2.25-12.5l-1.45.25q1.15 17.45 4.9 23.65l-1.6-2q-3.4-6.05-4.8-21.6l-1 2.2-2.25.55-1.5-6.8-4.75-1.15 1.5-3-1.25-8.1 1.85-.3.8 8 1.45 1.05m2.15 3.95-1.75-.45 1.75.45m23.2-22.5-.8-1.05 5.6-1.85 1.5.65 1.95.85.55-1.5q1.15-1.35 5.4-.35l-1.2 1.95 1.8.2q-.25 6.35 1.8 10.4l2.05 2.55-6.6-5.45 1.15 3.3h-3l-8.45-10.3-1.75.6"/><path fill-rule="evenodd" fill="#161000" d="m271.15 164.15-.05-.75-10.8-13.7 1.75-.6 8.45 10.3h3l-1.15-3.3 6.6 5.45 5.2 4.3-.85 1.55-3.8-3.6-4.6-.6-3.75.95m4.35-4.15 4 3.8-4-3.8"/><path fill-rule="evenodd" fill="url(#j)" d="m206.4 17.6-.55-.6.55.6-.8.65.8-.65q19.7 13.15 24.1 24.85-1.1 6.35-6.15 6.4h-.1q4.75 12.4-5.85 16.75l-.35.15-.35.5q-11.55 16.55-29.55 23.8l-2.65-5.3-1.5-2.6-1.9-3.15-.45-.65q-3.85-5.2-12.15-10.5-.1-14.45 6.85-24.95 10.95 3.75 14.1 15.3l.35.4q.9.8 1.4-1.2l.3-1.65q-1.45-16.85-11.25-18.95 4.3-4.45 10.2-8.05l.4-.25q3.2-2.05-1.1-3.2-19.4 5.3-26.9 30.4-4.4-5.25-11.9-8.9l.65-.55q7.65-6 2.2-9.25 11.4-32.55 24.95-34.4.7 1.7.25 5l-.2 1.15h-.35l-.05.15-1.55 3.1q19.7-4.25 31.65-.65.4 3.1-3.1 6.25m16.7 31.15 1.15.1-1.15-.1"/><path fill-rule="evenodd" fill="url(#k)" d="m266.6 147.45 1.9-2.65 9.8-.2-1.3 3 2.1 10.6 5.2 7.4-.15.25-5.2-4.3-2.05-2.55q-2.05-4.05-1.8-10.4l-1.8-.2 1.2-1.95q-4.25-1-5.4.35l-.55 1.5-1.95-.85"/><path fill-rule="evenodd" fill="url(#l)" d="m236.85 178.55 2.25-.55 1-2.2q1.4 15.55 4.8 21.6l1.6 2q-3.75-6.2-4.9-23.65l1.45-.25q.3 11.8 2.25 12.5l1.6 2.2-2.65-14.6h1.9l4.95 23-.8 2.8 2.8 2 14.85 41 .1 1.05q2.85 5.35 1.05 8.35-1.15 2.1-2.9 3.25l-4.9-16.45.8-2.8q-4.9-9.4-9.8-28l-.4 3.8 8.6 23.8-.4 3.6 4.6 16.8-2.1.5-6.1-19.5q-.55 3.05-3.6-6.4-2.35-2.5-6.6-23.4l-2.4-2.6 1 2.8 3 18.2 6.4 18.2 2.4 2.2 3.05 10.5-1.85-.3q-4.7-1.1-7-3.8 1.1-1.2 1-6-.75-6.2-7.55-10.7l-.3-.2-1.95-32.1 1.8-.4-2.2-4.6-4.85-21.65"/><path fill-rule="evenodd" fill="url(#m)" d="m203.6 161.05-.1-.65 2.6-2.2-1-3.8 4.7-7.9-1.3-1.9 2.8-3.2 1.4 3.4 5.25 4.5-.85 1.9q-3.15 3.4-5.85 10.4l-.2.55-.65 1.75q-2.1-1.85-6.8-2.85m6.7-13.85-.5-.7.3-.5-.3.5.5.7"/><path fill-rule="evenodd" fill="url(#n)" d="m178.75 172.15 4.3-2.1 1.25-.6 10.35-5.1.05.8-.65 1.2-.8.8-1.2 1.05H192l-.4.3h1.6l-.05.95-1.75 2.15q-3 2.35-5.65 2.95l-.35.1h-.1l-.1-.25q-.65-1.85-3.3-2.25h-.15l-2.55-.05-.45.05m19.1-10.55-.3-.2v-.05l.35.05-.05.2m-46.95 20.85.2.1.75.1h.05q3.35-.05 15.4-5.25l1.35-.6 2.05-.95 2.65-1.2 3.7-1.7-1.15 1.15-.45.5-.15.1q-3.85 4.35-6.6 10.45l-1.25.5-1.45.6-.2.1-9.6 3.75-2.2.85-3.5 1.85 3 .6-2.6 3.4q6.45-1.55 14-6.75l1.35-1 1.2-.9-.4 1.2-.15.35-1.4 4.5v.05l-.25.95.1.55.4 1.75-.3 1.1.05.3.05.25q1.4 7.6 8.1 5.2l1.1-.4 3.45-1.95.1-.25q10.85-10.05 9-21.25v-.15l-.35-1.6v-.05l6.95-4.1q4.9-4.5 7.4-9l-.15-3.45q3.25.9 4.95 2.3l.6.55.85 1.3q.8 1.9-.4 4.5l-.55 1.05-.65.55-1.25 1.9q-3.55 4.75-10.4 10.3l-1.45 1.1-.9.7-4.85 3.5-.4 2.1 5.8-1.4.2 4.2 1 2.8-5.8 8 2.35-.1h.05l.85-.05-.45.25 1.05.5 1.35.6 1.6-1 2-1.9.6-.7q1.05-2.45.8-5.6l-.95-4.9.15-.15q3.3 1.95 4 5.85.5 4-.2 8.6l1.05-3.15.95-5.45q-.5-4.5-.2-3.8 1.6 1.95 2.6 1.4l1 5.4q1.35-3.95 1.7-7.85l4.9 2.25q3.1.95 2.4 6.6l4-2.8q-.2 3.9-4.8 10l-4.6.8-3.15-1.15-.65-.85-3.7-.7-.1.05-.4.25 5.2 8.8v1.55l-1.2-.55-2.4.8-.05-.05-3.15-1.55.6 1.8q-3.55-1.35-6.4-4l-3.4.25 2.55 1.55 1.85 2.8-2.4 1.6-15.8-1.4-1.6-2.6-2-.6-2.05-.7-.25-.75.25.75 1 3.25-.4 1.45-.85 2.8h-3.3q-4.7 3.15-13.3 0l-.75.7q-.4.05-.7.3 3.15-3.9-7.15-4.25-.15 2.1-7.9 2.65l-7.8-.8-1.7-.95q-8.9-5.15-9.7-10.85l2.2-5-4.8-2.6q-2.4-2.05-2-9l2.2 1 5.6-4.4 8.2-.8 5.9-2.25q-4.85.5-9.75-3.5-4.35-2.25-7.55-6.45l-.4-.5-.65-.9-.85-1.35-1.55-2.85-1.2-2.8.15-.55.3-.65.15-.35.4-.7 2.7.4.45.4.3.35.1.1.15.05.2.05.3.1 3.65 1.2 1.55.55q4.35 1.55 8.9 5.05l4.7 3.65.25.2.3.2.15.05 8.55 4.5 3-.75m34.9-5.35v-.1.1m-29.95 45.35-.85.75.85-.75m34.45-16.95.4.2-.4-.2"/><path fill-rule="evenodd" fill="url(#o)" d="m259.75 258.3-3.05-10.5-2.4-2.2-6.4-18.2-3-18.2-1-2.8 2.4 2.6q4.25 20.9 6.6 23.4 3.05 9.45 3.6 6.4l6.1 19.5h-2.85"/><path fill-rule="evenodd" fill="url(#p)" d="m264.7 257.8-4.6-16.8.4-3.6-8.6-23.8.4-3.8q4.9 18.6 9.8 28l-.8 2.8 4.9 16.45-.1.05-1.4.7"/><path fill-rule="evenodd" fill="url(#q)" d="m247.1 251.45-1.6 3.35q-2.75 1.9-6.2 1.2-1.05-5.4-6.6-7.8l-7.65-2.65-.3-.2-1.05-.65.6 2.7 2.05 2.15.15.15-3 6.3q-2.45 2.95-14 1.4-10.5-2.9-17.6-11.2.05-3.4-1.8-6.45l-.15-.2 1.2-.85.05-.05.75-.8q2.25-2.25 4.65-3.95 1.8-1.3 3.7-2.3 28.2-3.85 36.8 9 7.4 5.25 10 10.85m-50.4-16.85-.1-.7.1.7m-14.05.1v-.05h.15l-.15.05"/><path fill-rule="evenodd" fill="url(#r)" d="M154.8 37q5.45 3.25-2.2 9.25l-.65.55-.1.05-4.05 2.75q-2.8 1.65-4.65 1.9 1.25.3 4.65-1.9 6.45 4.15 9.8 9.9 1.75 3.65 1 7.25 10.5 6.35 14.75 12.5l1.9 3.15.4.65q-7.55 6.3-15.1 14.95 1.2-4.05-2.65-5.15-3.95.7-6.5 8.45l-.1.05-.1-.1-5.2-6.3q-10.45-1.8-16.45 4.35l-1.1 1.25-2.2 8.15-.05.35-1-1.25-1.55-1.8q-3.1-3.4-6.85-6.2-7.25-5.1-4.25 4.65-14.8-5.85-26.4-9.15l.05-.2q2.2-9.9 5.85-16.5 1.3-2.45 2.85-4.4l.55-.65.4-.55v-.05l3-1.2Q95.6 64.7 98.1 58.5q.35-1.45 2.7-1.9l2.55-1.85q-4.2-11.05-2-15.75 1.15-3.8 5.7-3.3 3.65 2.4 5.7 6.4l.75 1.7-.05-.55v-.7l3.4 3.2q-1.75-4.3.45-11.55l.5-.95q7.85-15.75 16.3-14.5 3.75.4 6.55 3.55l-.05.45q-.9 7.9-3 14.3l-1.45 3.85-1 2.2-.95 2.05-.1.2-.65 1.7 1.3-2.1q9.8-6.45 18.15-7.5l1.7-.2.2-.25m-12.7 14.5h1.05-1.05"/><path fill-rule="evenodd" fill="url(#s)" d="M95.85 72.95V73l-.4.55-.55.65Q82.3 50.1 59.85 52.85q9.6 2.85 17 7.05-6.75-2.4-8.6 13l1.7 1.45q1-9.6 8.85-12.35 9.6 6.9 13.25 16.6-3.65 6.6-5.85 16.5l-.05.2v.05q.1 8.15 3.95 15.4l-6.25 1.75-41.05-9.8-.3-.45.05-.05q-11.2-22.75-.45-41.7-2.4-1.35-7.75 1.25.6-7.25 8.6-17.2l.25-.5-.05-.05q-4.75-3.7-1.55-6.5 9.6-4.55 20.5-4.75l2.8-.1q-3.65-9.25-.05-9.15 21.65 10.55 33.55 28 .4 1.65 1.15 3.05Q96.6 54.4 94.6 59q-2.15 8.35 1.25 13.95M44.6 44.25l-.9.2-.75.1.75-.1.9-.2"/><path fill-rule="evenodd" fill="url(#t)" d="m42.55 102.2-.05.05h-.05l.1-.05"/><path fill-rule="evenodd" fill="url(#u)" d="M93.2 115.6q3.15 4.25 7.7 8.15-1.55 4.7 2.95 8.25-13.05 27.15-12.2 37.55L90 171.9l-.05.1q12.4-3.05 17.55-.2l-.8 3.2q-.4 3.15 2.8 4.2-5.45 3.85-5.4 7l-8.8 3q-3.55.55-10.2-2.8l-4.8-3.95-.05-.05-.7.5q-5.85 3.65-5.3-3.25v-.4l.2-1.35q-.2-.25-.25-.6-.25-.95-.1-2.45.25-1.95 1.1-4.85l.4-.85q13.35-27.7 17.6-53.55"/><path fill-rule="evenodd" fill="url(#v)" d="m107.5 131.9 23.8 12.3q8.6 3.2 21.6 2 14.15-3.15 25.2-12.4l-10.4 9.6 7.6 2-6 8 7.6-.4-12.8 5.2 6 1.6-5.8 2.5q-.5-.75-.6-2.15.1 1.4.6 2.15l-2.6 1.1-1.15 2.4q-4.85 1.55-10.05 3.6l-10.2 1.1-.85-.45q-7.6-7.4-13.75-7.45l-2-4.8q1.9-1.15 5.3-2 6.5-1.6 18.35-2l-2-.6q-14.95.05-25.45 2.6h-.05l-.45.15q-1.9.45-3.65 1.05l-3.4 1.2q-3.85.15-6.1-1.1l-.15-.1-.05-.05-.8-.5q-.85-.7-1.35-1.6-.95-1.6-1.05-3.9l.15-.9V150q1.25-9.2 3.8-16.25l.7-1.85m11.6 23.3.3.75-.3-.75m-5.05-3.55-1.45.25 1.45-.25m-5.5-2.5q-.7 3.25 4.05 2.75-3.6.15-4.05-2.75m42.05 5.6-3.25-.95 3.25.95"/><path fill-rule="evenodd" fill="url(#w)" d="m140.3 170.5-1 .1.15-.55.85.45"/><path fill-rule="evenodd" fill="url(#x)" d="m143.45 229.45-2.05 1q5.95 2.65 6.4 7.4-9.45 14.35-26.9 24.65-8.3.75-12.6-3.1-4.1-2.55-4.6-5.65 3.8-3.55 11.45-6.45l-2.85-1.5q-7.55 1.6-13.6 8.6-1.6.85-2.45 7.7l-.25-.05q-4.15-3.1-3.9-6.45.4-6.2 15.6-13.2l-4.2-.2q-5.9 1.05-10.4 6.4l-2.8 5.6q-7.15-6.8 7.85-18.55 14.3-11.25 45.3-6.2M108.5 242l-.8.4.8-.4m6.65 5.3.75-.3-.75.3"/><path stroke-width=".05" stroke-opacity=".302" stroke-linejoin="round" stroke-linecap="round" stroke="#000" fill="none" d="M154.8 37q5.45 3.25-2.2 9.25l-.65.55q7.5 3.65 11.9 8.9 1.4 1.7 2.5 3.55 1.75 3.65 1 7.25l2.15 1.35q8.3 5.3 12.15 10.5l.45.65 1.9 3.15 1.5 2.6 2.65 5.3q2.95 6.5 4.45 12.75l.4 1.9.3 1.45.15 1 .2 1.45.15 1.5.05.4-.05.05-.9 1.15m-49.75-60.2h-1.05m42.9 70.2-.05.1m-71.5-79.25v.7l.05.55-.75-1.7q-2.05-4-5.7-6.4m-11.2 37.25V73l-.4.55-.55.65q-1.55 1.95-2.85 4.4-3.65 6.6-5.85 16.5l-.05.2v.05q.1 8.15 3.95 15.4l2 3.3.7 1.05.25.3m47.6-93.1-.05.45q-.9 7.9-3 14.3l-1.45 3.85-1 2.2.45-.35q5.1-4.15 10-5.75 3.6-1.15 7-1l.85.35 1.35.65m-21.35 10.05.65-1.7m.1-.2.95-2.05m-21.7-.55q-.85-20.45 14.65-26.3l1.95-.85q11.35-4.55 10.6 6.9m11.3 24.5-.1.05-4.05 2.75q-2.8 1.65-4.65 1.9m-45.4-4.15q-.15-2.15.1-4.6 0-4.25.85-6.55 1.55-4.55 6.15-1.7l.25.1 1.95 1.1m-7.5 18.85 1.25 2.05m-2.4-5.1q.4 1.65 1.15 3.05Q96.6 54.4 94.6 59q-2.15 8.35 1.25 13.95M93.2 115.6q3.15 4.25 7.7 8.15l1.35 1.1m-4.5-77.5q.1 2.25.65 4.15"/><path stroke-width=".05" stroke-opacity=".302" stroke-linejoin="round" stroke-linecap="round" stroke="#000" fill="none" d="m207.6 6.75-.1.75 1.1.5m-2.2 9.6-.8.65m.25-1.25.55.6q3.5-3.15 3.1-6.25M179.4 8.9l.05-.15h.35l.2-1.15q.45-3.3-.25-5m8.4 87.45q18-7.25 29.55-23.8l.35-.5.35-.15q10.6-4.35 5.85-16.75l-1.15-.1M207.5 7.5q1.7 1.9 2 3.85m21 31.1q-1.1 6.35-6.15 6.4h-.1m6.25-6.4.35 1.05M206.4 17.6q19.7 13.15 24.1 24.85M173.1 1.6q1.45-.85 3-1.6m-22.65 36.35q2.55-24.9 19.6-34.75h.05q5.3-2.1 6.65 1m8.4 87.45-.55.45m-7.8-81.75q17.45-5.3 27.7-1.25m9.65 128.25.55.25h.05v.05l.45.15 2.05-.5 12.5-2.85m-13.45 3.55h13.8l.45.25m-14.8.4-.25 1.75m-25.6-27.1 7.2 6.55m17.05 17.5q-8.3-4.1-14-10.75l-1.05-1.25 4.5 15.2v.05q.6 5.5-4.45 6.95l-1.05.25-2.45-.3-.7 2.3-.25 1.05v.05q-.6 2.35-.7 4.15-.1 1.4.05 2.45l.05.3.35 3.95.15.05.55.05.9.1h.35l4.2.7-.1-.65 2.6-2.2-1-3.8 4.7-7.9-1.3-1.9 2.8-3.2 1.4 3.4 5.25 4.5m.8-1.45q-.3-.65-.45-1.65l-.1-.85q-.1-.8-.05-1.75v-.55m0-.1.35-4.15m-8.4 7.2-.3.5.5.7m8.55-10.8-.1.65m-.55-.85.65.2 1.4-.7m-2.5.35.35.15h.1m.65.2h.45m14.05 15.05h.05m16.8-6.3q.55-.75 1.15-1.15l.1-.1.5-.25m1.1-.4-.65-2.25-.7-1.85q-1.6-3.55-4.8-8.15-12.15-13.3-24.8-19.8l-28.65-4.05-.95-.15m-83.95 22.45-1.05 2.45-.7 1.85q-2.55 7.05-3.8 16.25v.05l-.15.9q.1 2.3 1.05 3.9.5.9 1.35 1.6l.8.5.05.05.15.1q2.25 1.25 6.1 1.1l3.4-1.2q1.75-.6 3.65-1.05l-.3-.75m45.2 7.1q1.1 1.65 4 .35m33.8-38.9-1.5-5v-.05l-.5-.45m.8 4.55 1.2.95m-4.25 17.15.3-.05 2.55-.95m-8.6-28.95.8.75m-10.95 40.25 5.4-3.75q4.55-2.35 9.55-2.35h1l.75.05.2-1.45m-3.8-5.55q-.45 2.75 2.8 2m-.4 19.25.05.7-.7.15-.4.2-1.9 1-.3.15-2.05 1.05q-5.1 2.55-9.9 4.7l-3.95 1.65-.85.35-3.7 1.4q-14.35 5.25-25.3 5.45h-2.3l-3.65-.3 3.15 2.3 2.05 1.4 3.2 2.1m-3.55-28.65-2-.6q-14.95.05-25.45 2.6h-.05l-.45.15 1.35 5.2.5-.2m64.05 13.7.05.1.05.3.05.25.25 1.25.1.4.2-.1h.05l1.45-.8q3.95-2.2 5.15-3.55 4.2-5 6.3-6.9l.3-.35.35-.55.15-.45v-.55l-.05-.15v-.1l-.35-.6-.05-.05-1-.9-.35-.25-.1-.05-.3-.2-.1-.05-.65-.35m-19.75 11.95.75-.7.95-.1.45-.05 2.55.05h.15q2.65.4 3.3 2.25l.1.25m5.85 30.8q2-1.2 4.05-6.3.3-1.6.1-3.15l-.55-1.95-.3-.65.05-1.65.05-.45v-.25q.3-3.4 1.6-5.3l-1.35 1-.9.65-1.45 1.05q-.85.55-1.8.9m6.9-28v.05m-.05-.55.05.5m-33.85-1.2q.1 1.4.6 2.15m8.7 38.65 1-.4 3.25-1.95.1-.25q9.5-9.4 8.65-19.75l-.2-1.5v-.15m-7.1 1.35h.65q1.7.1 2.25 1.3l.05.05.05.15.1.4q1.95 2.85-4.3 8.4l-1.05.65-.1.05-1.9.05m4.25-11.05-1.05.1-.05.1q-3.95 3.85-4.7 8.3.55 2 1.55 2.55m2.6-16.4-1.15 1.15-.45.5-.15.1q-3.85 4.35-6.6 10.45l-1.25 3-.4 1.2-.15.35-1.4 4.5v.05l-.25.95.1.55.4 1.75.55 1.4q1.9 3.85 6.7 2.05m-4.3-15.8-1.25.5-1.45.6-.2.1-9.6 3.75m39.95-4.35.05-.05m.15-.1.05-.05q6.5-4.95 10.45-9.4l2.05-2.5 1.25-1.9.65-.55.35-.65.3-.55m-1.05-6.1q-2.1-1.85-6.8-2.85l.1.55m-1.2 46.15 6.05 9.3.1.25.25.6.15.4.1.3.2.5.05.15.8-.7q14.55-12.3 17.35-22.9 1.15-1.5 1.15-3.2l-.15-1.35-.6-1.65-1.15-1.8q-1.85-2.35-3.8-4.35-4.75-4.95-10-7.8l-1.45-.7q-1.3-.65-2.65-1.15m-12.55 11.95-.05.05-.1.05m49.05-14.3-.15-.6m-14.5-.2 4.75 1.15 1.75.45m-7.2-1.8.7.2m6.25 7.95 4.85 21.65 2.2 4.6-1.8.4 1.95 32.1.3.2q6.8 4.5 7.55 10.7.1 4.8-1 6 2.3 2.7 7 3.8l1.85.3-3.05-10.5-2.4-2.2-6.4-18.2-3-18.2-1-2.8m18.7 51.9 2.1-.5-4.6-16.8.4-3.6-8.6-23.8.4-3.8m13.9 47.25q1.75-1.15 2.9-3.25 1.8-3-1.05-8.35l-.1-1.05-14.85-41-2.8-2 .8-2.8-4.95-23-.9-4.2m25.9-7.2v-.05m-11.65-15.5-.6.15m-22.05 29.75-1.5-6.8m24.15-23.1 5.6-1.85 1.5.65 1.9-2.65 9.8-.2-1.3 3 2.1 10.6 5.2 7.4-.15.25-.85 1.55-3.8-3.6-4.6-.6-3.75.95m-4.55-16.7 1.95.85m10.95 15.5-4-3.8M93.05 115.4l.15.2M42.95 44.55l.75-.1.9-.2m-2.15 58q-16.35-21.75-6-37.7-3.9 2.9-5.3-.9l-.3-1.1q.2-7.1 10.75-17.85-6.75.4-5.1-5.85l.25-.95q5.7-6.75 24.6-6.9-4.65-11.25 4-9.95l.95.15q14.35 3.55 31.45 26.15m-54.8-2.8-1.05.1-.3.05M61.35 31l.75 1.75m-25.65 31.8.2-.15.45-.4m5.4 38.25.3.45 41.05 9.8 6.25-1.75m-47.6-8.5h-.05m37.1 80.65q-5.85 3.65-5.3-3.25v-.4l.2-1.35q-.2-.25-.25-.6-.25-.95-.1-2.45.25-1.95 1.1-4.85l.4-.85q13.35-27.7 17.6-53.55m-12.9 66.85-.05-.05-.7.5q7.1 9.35 26.15 8.6l.95-.05 1.5-.1q5.8-6.35 8.6-10.7l.25-.4 1.45-2.55.45-1.2-.65-.9-.85-1.35-1.55-2.85-1.2-2.8.15-.55.3-.65.15-.35.4-.7q.85-1.3 2.15-1.75l.25-.05 3.6.2-.9-3.6-5.8 1.05q-5.3 1.25-11.6 3.65-6.15 2.3-11.7 3.7L90 171.9m22.6-20 1.45-.25m-7.8 5.45q.15 1.5-.3 3.3l-.9 2.4-1.7 3.05m5.2-16.7q-.7 3.25 4.05 2.75m-5.85 46.6.6.3q.95.25 2.7-.6l.3-.15.75-.35.3-.2.2-.15 1.05-.65.7-.5m5.55-19.7.4.5q3.2 4.2 7.55 6.45 4.9 4 9.75 3.5m16.95 37.25q.3-.25.7-.3m.75-.7.85-.75m-49.1-23.95q-.75-.75-.4-3l.2-1.05.55-2 1.05-1.1m39.2-37.55 3.25.95m-28.95 10 .15.1.6.65.1.1.15.05.2.05q1.15.3 3.7 1.5 6 2.75 15.65 9.25l.3.2m11.05 47.55.2.15.5-.45m-1.3.75.2-.15.4-.3m-.6.45-.15.1-.7.45-.95.55-.5.2m-.45.25-5.35 2-1.75-.2q-9.8-1.35-18-4.3-6.4-4.3-11.45-12.6l-1-1.65-.65-.5-.2-.3q-.85-1.35-.85-4.75v-.75l.05-1.5.4-4.15m41.75 29.45-.2-2.3m-53.1 36.2q-.1 1.25.25 2.6l.2.8q1.85 2.85 3.8 5.05 9.6 10.85 21.55 5.8l.55-.25q24.9-8.2 32.75-21.85l1.75-3.6m-17.25-19.95 10.05 1.95-.35-4.45m-9.7 2.5q-31-5.05-45.3 6.2-15 11.75-7.85 18.55m17.4-11.8.8-.4m-12.25 20.1 3.85 1.35M115.9 247l-.75.3q-7.65 2.9-11.45 6.45-3.6 3.25-3.85 7.1m-7.75-5.25-1.8-1.4m5.95 7.9-.25-.05q-4.15-3.1-3.9-6.45.4-6.2 15.6-13.2m157 15.4.2.8m1.3-1.55-.1.05-1.4.7m-4.95.5h2.85l.3.9m-2.8.4-.35-1.3m-8.85-4.1-.6-.15.1.5.5-.35m-.5.35-.5.05m-49.6-23q-1.9 1-3.7 2.3l.1.7m53.7 19.95q.95 4.25-1.55 7.9l-1.7 1.25q-6.1 4.15-10.15 1.4l-.55 2.5-.2.05q-42.2 9.05-51.35-17.25-5.15.5-7.8-1.8-2.15-1.95-1.2-5.4.5-5.1 3.4-7l2.95-1.35.4-.15v-.15m0-.15-.05-.4m-.05-.75-.55-7.2m0-.1-.2-1.9-1.1-.15-5.1-.7-3.15-2.8-.85 2.8h-3.3l-3 7.8q4.35 2.85 5.6 7.2 1.6 4.7-.8 9.4-4.7 5.6-11.15 5.4m50.45-33.75.25 1.5q0 1.75-2.95 0l-.85-.55-2.3.8m-1.2.45-.15.05.1.05 1.55.9.2.65q.1 1.2-1.95 1.1l-1.45.5-5.3.4 1.25 8.8q-2.4 1.7-4.65 3.95m31.75 6.85 1.05.65m.3.2Q238.65 254 237 265.1m-36.7-33.5q10.55-5.55 23.95-1.65l.5.15 1 .25q11.8 2.7 18.3 6.95m-53.35-31.6-.4-.2m.85-.05-.45.25m3.15 10.9-2.55-1.55m10.85 6.4-1.9-1.15-6.4-3.7m8.35 4.9-.05-.05m-20.4.95.05 1.65 13.5 1.05h.05m-23.5-9.4-.25-.75m.85 5.45.4-1.45-1-3.25m10.8 19 .15-.05.9-.45m-1.05.5.05.5m56.6 4.6q9.3 7.85 11 14.25M155 223.2q8.6 3.15 13.3 0"/><path stroke-width=".05" stroke-linejoin="round" stroke-linecap="round" stroke="#0c0" fill="none" d="m190.3 205.5.85-.05 1.3.1"/><path stroke-width="2" stroke-opacity=".302" stroke-linejoin="round" stroke-linecap="round" stroke="#000" fill="none" d="m188.9 116.8-3.9 4.9m-.05.1-4.35 5.45-4.65 4.05q-17.35 13.9-34.1 12.4-7.5-.7-14.85-4.5l-1.85-1q-8.15-3.55-14.55-7.45l-2.05-1.3m84.35-17.75-4 5.1m-86.65 8.05 4.4 3.35 1.05.7.85.55"/><path stroke-opacity=".302" stroke-linejoin="round" stroke-linecap="round" stroke="#000" fill="none" d="m217.95 149.3.05-.05.15-.3.45-.8.15-.3q3.95-6.6 9.3-.45h.05l.2.25 2.6 3.75 1.6.55.85-.5m.05 0 .6-.4 1.1-1.7.2-.25.05-.1q2.25-2.65 4.55-3.5m5.25.7q1.5.75 3.15 2.2l.6-1.2q.45-.95 1-1.6m2.05-1.95q.5-.35 1.1-.4 1.65-.2 3.45 1.65l.6.7 2.4 3.05M211.45 170l.3-.8.3-1.25v-.1l-.1-1.55-.05-.2v-.05l-.2-.55-.5-.8-.8-.8.65-1.75.2-.55q2.7-7 5.85-10.4l.85-1.9m27.2-3.1q-2.8-1.4-5.25-.7m-4.95 22.75 2.75 1.95 2.95.8 1.6.25 1.2.1 1.8.05q3.6 0 7.5-1.1m-21.9-10.8 1.85-.3-.2-1.6m-2.2.6.55 1.3 1.25 8.1-1.5 3-.3.6-4.15.75m-.25.05q-7.45.8-14.45-2m21.25-10.8.8 8 1.45 1.05m24.05.55.3.2q4.85 1.85 9-.6 2.8-1.55 2.85-4.2m0-.05-.05-.75-10.8-13.7-.8-1.05m-.9 19.85-2.85-1.95.55 1.25-3.2 2.4-.35.1m3-3.75-4.85-11.35"/><path fill-rule="evenodd" fill-opacity=".498" fill="#fff" d="M160.1 68.65q4.3 5.4 4.8 13.1.45 7.65-3.25 13.05t-9.35 5.45q-3.35-.05-6.2-1.9l-.8-.5q-1.6-1.25-3.05-3.05-4.2-5.25-4.75-15.35l-.05-.7q.3-5.7 3.2-10l.05-.1q.95-1.4 2.05-2.4 3.1-3 7.3-3 5.7 0 10.05 5.4M141.65 79.7l1.65 2.05 7-6.65-4.5 15.3q9.35-12.3 14.35-11.45l-.2-2.75q-4.5 1.2-10.25 7.95-2.05.2 3.1-12.75-4.15.95-11.15 8.3m-16.6-3.3q1.5 1.85 2.6 4l.2.4q2.35 5.9 2.7 9.7.75 8.25-2.85 14.15-2.7 4.3-6.6 5.45l-2.9.4q-5.95 0-10.65-5.85-4.75-5.9-5.55-14.15-.8-8.25 2.85-14.1 1.75-2.9 4.1-4.35 2.4-1.55 5.45-1.55 5.9 0 10.65 5.9M108.4 90.75q3.25-5.65 6.3-7.3l-2.9 16.8q7.8-11.75 13.1-12.75l-.45-2.85q-4.25 2.3-9.4 8.8-1.3-4.75 1.75-14.1-3.65 1.8-10.25 9.15l1.85 2.25"/><path fill-rule="evenodd" fill-opacity=".788" fill="#fff" d="M141.65 79.7q7-7.35 11.15-8.3-5.15 12.95-3.1 12.75 5.75-6.75 10.25-7.95l.2 2.75q-5-.85-14.35 11.45l4.5-15.3-7 6.65-1.65-2.05M108.4 90.75l-1.85-2.25q6.6-7.35 10.25-9.15-3.05 9.35-1.75 14.1 5.15-6.5 9.4-8.8l.45 2.85q-5.3 1-13.1 12.75l2.9-16.8q-3.05 1.65-6.3 7.3"/><path fill-rule="evenodd" fill="#300" d="M160.1 68.65q-4.35-5.4-10.05-5.4-4.2 0-7.3 3-1.1 1-2.05 2.4l-.05.1q-2.9 4.3-3.2 10l.05.7q.55 10.1 4.75 15.35 1.45 1.8 3.05 3.05l.8.5q2.85 1.85 6.2 1.9 5.65-.05 9.35-5.45 3.7-5.4 3.25-13.05-.5-7.7-4.8-13.1m4.3 1.1q3.05 5.25 3.45 12 .55 8.85-3.85 15.2-4.4 6.3-11.15 6.3t-11.95-6.3q-5.15-6.35-5.7-15.2v-.55l-.9-.2q-1.85-.25-3.05 1.45 1.5 3.75 1.95 8.05.95 9.1-3.35 15.55-2.15 3.15-4.85 4.8-2.9 1.65-6.5 1.65-7 0-12.65-6.45-5.6-6.45-6.55-15.55-.65-6.2 1.15-11.15L93.2 74.6l-2.15-.15-1.25 1.9-2.25-1 2.15-2.5 4-.15q4.95 1.85 7.6 4.65l1.4-2.4q3.15-4.75 7.85-6l3.45-.45q7 0 12.65 6.45 2.1 2.4 3.5 5.15l.05.1q1.2-1.55 2.8-1.65 1-.05 2.15.5.2-7.2 3.9-12.5 4.4-6.35 11.15-6.3 6.75-.05 11.95 6.3l.85 1.1 5.45-6.05 3.75-.25 2.25 1.6-1.5 1.75-1.4-.85-2.75.1-4.4 5.8m-39.35 6.65q-4.75-5.9-10.65-5.9-3.05 0-5.45 1.55-2.35 1.45-4.1 4.35-3.65 5.85-2.85 14.1.8 8.25 5.55 14.15 4.7 5.85 10.65 5.85l2.9-.4q3.9-1.15 6.6-5.45 3.6-5.9 2.85-14.15-.35-3.8-2.7-9.7l-.2-.4q-1.1-2.15-2.6-4"/><path stroke-width=".05" stroke-opacity=".702" stroke-linejoin="round" stroke-linecap="round" stroke="#000" fill="none" d="M160.1 68.65q4.3 5.4 4.8 13.1.45 7.65-3.25 13.05t-9.35 5.45q-3.35-.05-6.2-1.9l-.8-.5q-1.6-1.25-3.05-3.05-4.2-5.25-4.75-15.35l-.05-.7q.3-5.7 3.2-10l.05-.1q.95-1.4 2.05-2.4 3.1-3 7.3-3 5.7 0 10.05 5.4m-35.05 7.75q1.5 1.85 2.6 4l.2.4q2.35 5.9 2.7 9.7.75 8.25-2.85 14.15-2.7 4.3-6.6 5.45l-2.9.4q-5.95 0-10.65-5.85-4.75-5.9-5.55-14.15-.8-8.25 2.85-14.1 1.75-2.9 4.1-4.35 2.4-1.55 5.45-1.55 5.9 0 10.65 5.9"/><path fill-rule="evenodd" fill="#f4f0e8" d="M223.95 66.75q5.05 1.05 3.3 7.75 8.35-3.4 15.85-5.05 19.1-4.35 33.05 2l1.15.65q3.6 2.15 6.6 4.6 6.8 8.5 7.95 19.65-16.6 13.05-53.75 3.9-3.9 1.3-1 14.5-19.4 6.9-55-6-4.6-.35-3.5 5-.9 2.8-12.75-1.2l-4.7-1.7-.05-.25-1.65-4.35q-2.4-5.55-6.05-10.6l.05-.15 1.1.15q2.95 3.15 5.35 6.5 2.55-7.85 6.55-8.6 3.85 1.1 2.65 5.15 24.6-28.1 48.5-31.7l1-.15 2.45-.3-.3 1.45q1.6-.7 3.2-1.25m-3.35 1.75.15-.5-.15.5m-.5-.5h.65-.65m-94.4 32.2 1.55 1.8 1 1.25q-2.6 11-1.65 17.25l.35 1.5-5.85 6.25q-5.75 4.2-7.5-3.5-25.4 17.75-60.35 29.8l-.65.2 1-2.3.4-1.05q4.55-12 1.1-18.65-16.25 7.65-39 4-6.75-8.7 2.95-26.8l.1-.15 2.2-1.65q5.4-3.75 12.95-5.4 12.75-2.8 31.6.2-5.2-3.4-1.4-10.55 16.7-3.05 56.6 12.75-3-9.75 4.25-4.65l.35-.3"/><path fill-rule="evenodd" fill="#e3d9c4" d="m161.15 110.85 4.7 1.7q11.85 4 12.75 1.2-1.1-5.35 3.5-5 35.6 12.9 55 6-2.9-13.2 1-14.5 37.15 9.15 53.75-3.9.35 3.8.1 7.9-7.55 17.55-40.1 6 2.45 3.15 3.05 5.2.45 1.75-.4 2.7-1.95 2-1.55 2.65l-.85.05q-20.3 12.05-39.75 4.25l-1.75-.75q-13.55-2.6-23.7-8.55 9.25 13.2-6.25 10.5l-.7-.1-.75-.35q-5.65-1.6-10.35-4.1-3.2-1.8-5.95-4l-.05-.3q-.65-3.4-1.7-6.6m-30 19.15q-1.8 4.25-7.2 7.6l-1.9 1.85q-2.5 2.3-4.4 3.45-3.6 2.1-5.2-.1-1.85-2.55-1.05-10.7-38.85 30.1-58.2 32.75l-.3-.05-2.45-.4q-7.75-1.95-6.3-9.45.7-3.9 3.95-9.35-24.75 8.35-38.05-.95-4.5-3.15-7.65-8.25l-.9-1.5q-3.35-5.1.8-15.55 5.4-5.45 16.75-9.4-9.7 18.1-2.95 26.8 22.75 3.65 39-4 3.45 6.65-1.1 18.65l-.4 1.05-1 2.3.65-.2q34.95-12.05 60.35-29.8 1.75 7.7 7.5 3.5l5.85-6.25q1.4 5.4 4.2 8m112.95-22.75q4.05 1.7 7.75 3-3.7-1.3-7.75-3m-196 38.35-.25-.6.25.6"/><path fill-rule="evenodd" fill="#fbfaf7" d="M283.9 76.7q-3-2.45-6.6-4.6l-1.15-.65q-13.95-6.35-33.05-2-7.5 1.65-15.85 5.05 1.75-6.7-3.3-7.75 6.6-2.45 12.65-3.8 19.1-4.35 33.05 2l1.15.65q8.05 4.85 13.1 11.1m-62.85-10.15-2.45.3-1 .15q-23.9 3.6-48.5 31.7 1.2-4.05-2.65-5.15-4 .75-6.55 8.6-2.4-3.35-5.35-6.5l-1.1-.15q2.55-7.75 6.5-8.45 3.85 1.1 2.65 5.15 24.6-28.1 48.5-31.7l1-.15q10.3-1.7 8.95 6.2M2.3 119.35q1.6-4.15 4.4-9.1 6.55-10.85 21.1-14 12.75-2.8 31.6.2-5.2-3.4-1.4-10.55 16.7-3.05 56.6 12.75-3-9.75 4.25-4.65 3.75 2.8 6.85 6.2l-.35.3q-7.25-5.1-4.25 4.65-39.9-15.8-56.6-12.75-3.8 7.15 1.4 10.55-18.85-3-31.6-.2-7.55 1.65-12.95 5.4l-2.2 1.65-.1.15Q7.7 113.9 2.3 119.35m112.3-20.7.5.1-.5-.1m47.5-5.15.5-1.3-.5 1.3"/><path fill-rule="evenodd" fill="#303" d="M153.4 95.65q3.65 5.05 6.05 10.6l1.65 4.35.05.25q1.05 3.2 1.7 6.6l.05.3.45 3.25q.5 4.95-2.5 7.25-11.3 5.1-26.2 3.75h-.05q-1.95-.6-3.45-2-2.8-2.6-4.2-8l-.35-1.5q-.95-6.25 1.65-17.25l.05-.35 2.2-8.15 1.1-1.25q6-6.15 16.45-4.35 2.85 3.05 5.2 6.3l.15.2m-25.15 7.6.8.3-.8-.3m3.35 26.25-.45.5.45-.5"/><path stroke-width=".05" stroke-opacity=".302" stroke-linejoin="round" stroke-linecap="round" stroke="#000" fill="none" d="M283.9 76.7q-5.05-6.25-13.1-11.1l-1.15-.65q-13.95-6.35-33.05-2-6.05 1.35-12.65 3.8-1.6.55-3.2 1.25l-.15.5m-67.15 27-.05.15q3.65 5.05 6.05 10.6l1.65 4.35m130.75-14.25Q290.7 85.2 283.9 76.7M153.45 95.5q2.55-7.75 6.5-8.45 3.85 1.1 2.65 5.15 24.6-28.1 48.5-31.7l1-.15q10.3-1.7 8.95 6.2l-.3 1.45h-.65m71.75 28.35q.35 3.8.1 7.9-7.55 17.55-40.1 6 2.45 3.15 3.05 5.2.45 1.75-.4 2.7-1.95 2-1.55 2.65l-.85.05q-20.3 12.05-39.75 4.25l-1.75-.75q-13.55-2.6-23.7-8.55 9.25 13.2-6.25 10.5l-.7-.1-.75-.35q-5.65-1.6-10.35-4.1-3.2-1.8-5.95-4l.45 3.25q.5 4.95-2.5 7.25-11.3 5.1-26.2 3.75h-.05q-1.95-.6-3.45-2-1.8 4.25-7.2 7.6l-1.9 1.85q-2.5 2.3-4.4 3.45-3.6 2.1-5.2-.1-1.85-2.55-1.05-10.7-38.85 30.1-58.2 32.75l-.3-.05-2.45-.4q-7.75-1.95-6.3-9.45.7-3.9 3.95-9.35-24.75 8.35-38.05-.95-4.5-3.15-7.65-8.25l-.9-1.5q-3.35-5.1.8-15.55 1.6-4.15 4.4-9.1 6.55-10.85 21.1-14 12.75-2.8 31.6.2-5.2-3.4-1.4-10.55 16.7-3.05 56.6 12.75-3-9.75 4.25-4.65 3.75 2.8 6.85 6.2l1.55 1.8 1 1.25.05-.35 2.2-8.15 1.1-1.25q6-6.15 16.45-4.35 2.85 3.05 5.2 6.3l.15.2m98.45 14.6q-3.7-1.3-7.75-3m-129-8.5-.5-.1m14.45 4.9-.8-.3q-2.6 11-1.65 17.25l.35 1.5q1.4 5.4 4.2 8l.45-.5m29.55-18.65q1.05 3.2 1.7 6.6l.05.3m-.3-25.55-.5 1.3M47.85 145l.25.6"/></g><g id="i" stroke-linejoin="round" stroke-linecap="round" stroke="#000" fill="none"><path stroke-width="2.75" d="m198.3 161.4-.1-.05-.65-.35.7-.15.05.5v.05m-44 62.8q.3-.25.7-.3l-.5.45-.2-.15"/><path stroke-width="1.5" stroke-opacity=".631" d="M271.55 65.6q8.05 4.85 13.1 11.1 6.8 8.5 7.95 19.65.35 3.8.1 7.9-7.55 17.55-40.1 6 2.45 3.15 3.05 5.2.45 1.75-.4 2.7-1.95 2-1.55 2.65l-.85.05q-5.2 3.1-10.3 4.85l5.1 5.3q3.2 4.6 4.8 8.15l.7 1.85.65 2.25q1.65-.2 3.45 1.65l.6.7 2.4 3.05 5.6-1.85 1.5.65 1.9-2.65 9.8-.2-1.3 3 2.1 10.6 5.2 7.4-1 1.8-3.8-3.6-4.6-.6-3.75.95v.05q-.05 2.65-2.85 4.2-4.15 2.45-9 .6l-3.55-2.45.55 1.25-3.2 2.4-.35.1q-3.9 1.1-7.5 1.1l5.85 27.2-.8 2.8 2.8 2 14.85 41 .1 1.05q2.85 5.35 1.05 8.35-1.15 2.1-2.9 3.25l-.1.05-1.4.7-2.1.5h-2.85l-1.85-.3q-4.7-1.1-7-3.8l-.5.35q.95 4.25-1.55 7.9l-1.7 1.25q-6.1 4.15-10.15 1.4l-.55 2.5-.2.05q-42.2 9.05-51.35-17.25-5.15.5-7.8-1.8-2.15-1.95-1.2-5.4.5-5.1 3.4-7l3.35-1.5v-.15l-.65-8.5v-.1l-.2-1.9-1.1-.15-5.1-.7-3.15-2.8-.85 2.8h-3.3l-3 7.8q4.35 2.85 5.6 7.2 1.6 4.7-.8 9.4-4.7 5.6-11.15 5.4-7.85 13.65-32.75 21.85l-.55.25q-11.95 5.05-21.55-5.8-1.95-2.2-3.8-5.05l-.2-.8-4.1-1.4q-4.15-3.1-3.9-6.45l-1.8-1.4q-7.15-6.8 7.85-18.55 14.3-11.25 45.3-6.2l10.05 1.95-.55-6.75-.15.1-.7.45-.95.55-.5.2-.2.15-.25.1-5.35 2-1.75-.2q-9.8-1.35-18-4.3-6.4-4.3-11.45-12.6l-1-1.65-.65-.5-.2-.3q-.85-1.35-.85-4.75v-.75l.05-1.5.4-4.15-.3.2-.75.35-.3.15q-1.75.85-2.7.6l-.6-.3q-.75-.75-.4-3l.2-1.05.55-2 1.05-1.1-1.5.1-.95.05q-19.05.75-26.15-8.6-5.85 3.65-5.3-3.25v-.4l.2-1.35q-.2-.25-.25-.6-.25-.95-.1-2.45.25-1.95 1.1-4.85l.4-.85q4.2-8.65 7.45-17.1-18.35 11.25-29.85 12.8l-.3-.05-2.45-.4q-7.75-1.95-6.3-9.45.7-3.9 3.95-9.35-24.75 8.35-38.05-.95-4.5-3.15-7.65-8.25l-.9-1.5q-3.35-5.1.8-15.55 1.6-4.15 4.4-9.1 6.55-10.85 21.1-14 4.55-1 9.85-1.25-9.8-17.2-1.2-30.45-3.9 2.9-5.3-.9l-.3-1.1q.2-7.1 10.75-17.85-6.75.4-5.1-5.85l.25-.95q5.7-6.75 24.6-6.9-4.65-11.25 4-9.95l.95.15Q81.4 24.75 98.5 47.35q-.15-2.15.1-4.6 0-4.25.85-6.55 1.55-4.55 6.15-1.7l.25.1 1.95 1.1q3.65 2.4 5.7 6.4l.75 1.7-.05-.55v-.7q-.85-20.45 14.65-26.3l1.95-.85q11.35-4.55 10.6 6.9l-.05.45q-.9 7.9-3 14.3l-1.45 3.85-1 2.2.45-.35q5.1-4.15 10-5.75 3.6-1.15 7-1l.85.35q2.55-24.9 19.6-34.75h.05q5.3-2.1 6.65 1 .7 1.7.25 5l-.2 1.15q17.45-5.3 27.7-1.25 1.7 1.9 2 3.85.4 3.1-3.1 6.25 19.7 13.15 24.1 24.85-1.1 6.35-6.15 6.4h-.1q4.05 10.6-3.05 15.3l-.15 2.4-.3 1.45q1.6-.7 3.2-1.25 6.6-2.45 12.65-3.8 19.1-4.35 33.05 2l1.15.65m-53.05 70.45.45.15 2.05-.5-1.4.7-.1.65-.25 1.75-.35 4.15v.65q-.05.95.05 1.75l.1.85q.15 1 .45 1.65l-.15.3-.45.8-.15.3-.05.05-5.25-4.5-1.4-3.4-2.8 3.2 1.3 1.9-4.7 7.9 1 3.8-2.6 2.2.1.65-4.2-.7h-.35l-.9-.1-.55-.05-.15-.05-.35-3.95-.05-.3q-.15-1.05-.05-2.45.1-1.8.7-4.15v-.05l.25-1.05.7-2.3 2.45.3 1.05-.25q5.05-1.45 4.45-6.95v-.05l-4.5-15.2 1.05 1.25q5.7 6.65 14 10.75l.55.25h.05v.05m12.55 35.15-4.15.75-.25.05q-7.45.8-14.45-2l-.3.55-.35.65-.65.55-1.25 1.9q1.35.5 2.65 1.15l1.45.7q5.25 2.85 10 7.8 1.95 2 3.8 4.35l1.15 1.8.6 1.65.15 1.35q0 1.7-1.15 3.2-2.8 10.6-17.35 22.9l-.8.7.25 1.5q0 1.75-2.95 0l-.85-.55-3.65 1.3.1.05 1.55.9.2.65q.1 1.2-1.95 1.1l-1.45.5-5.3.4 1.25 8.8q1.8-1.3 3.7-2.3 10.55-5.55 23.95-1.65l.5.15 1 .25q11.8 2.7 18.3 6.95l-1.95-32.1 1.8-.4-2.2-4.6-6.35-28.45-4.75-1.15-.3.6M116.5 157q1.75-.6 3.65-1.05l1.35 5.2-5.8 1.05q-5.3 1.25-11.6 3.65l1.7-3.05.9-2.4q.45-1.8.3-3.3 2.25 1.25 6.1 1.1l3.4-1.2"/></g><path fill-rule="evenodd" fill="url(#y)" d="M-53.6 0q0-22.2 15.7-37.9T0-53.6q22.2 0 37.9 15.7T53.6 0q0 22.2-15.7 37.9T0 53.6q-22.2 0-37.9-15.7T-53.6 0" transform="translate(53.6 53.6)" id="c"/><path fill-rule="evenodd" fill="url(#z)" d="M53.6 54.25q-9.2 9.35-22.2 9.35T9.2 54.25Q0 44.95 0 31.8 0 18.65 9.2 9.3 18.4 0 31.4 0t22.2 9.3q9.2 9.35 9.2 22.5t-9.2 22.45" id="d"/><path fill-rule="evenodd" fill-opacity="0" fill="#f0f" d="M102.95 45H0V0h102.95v45" id="e"/><radialGradient spreadMethod="pad" r="819.2" id="y" gradientUnits="userSpaceOnUse" gradientTransform="scale(.066)" cy="0" cx="0"><stop stop-opacity=".447" offset="0"/><stop stop-opacity="0" offset="1"/></radialGradient><radialGradient spreadMethod="pad" r="819.2" id="z" gradientUnits="userSpaceOnUse" gradientTransform="translate(31.4 31.8) scale(.0391)" cy="0" cx="0"><stop stop-opacity=".408" stop-color="#fff" offset=".227"/><stop stop-opacity="0" stop-color="#fff" offset="1"/></radialGradient></defs><path fill="none" d="M-1-1h180v177H-1z"/><use x="91.05" y="151.5" xlink:href="#A" width="381" transform="translate(-192.55 -294)" height="381"/><use x="158.43" y="263.616" xlink:href="#B" width="347.3" transform="translate(-105.79 -147.95) scale(.5747)" height="291.35"/><use x="-55.888" y="-85.863" xlink:href="#C" width="102.95" transform="matrix(1.8072 0 0 1.6538 96 166.6)" height="45"/></svg>