<svg width="163" height="153" xmlns="http://www.w3.org/2000/svg" xmlns:xlink="http://www.w3.org/1999/xlink"><defs><linearGradient y2=".5" y1=".5" x2=".998" x1=".001" spreadMethod="pad" id="c"><stop stop-color="#ffdb6c" offset="0"/><stop stop-color="#f8c031" offset="1"/></linearGradient><linearGradient y2=".499" y1=".499" x2=".999" x1="0" spreadMethod="pad" id="d"><stop stop-color="#c90" offset="0"/><stop stop-color="#f4ab02" offset="1"/></linearGradient><linearGradient y2=".497" y1=".497" x2=".999" x1=".001" spreadMethod="pad" id="e"><stop stop-color="#ffdb6c" offset="0"/><stop stop-color="#f8c031" offset="1"/></linearGradient><linearGradient y2=".5" y1=".5" x2=".998" x1="-.005" spreadMethod="pad" id="f"><stop stop-color="#ffdb6c" offset="0"/><stop stop-color="#f8c031" offset="1"/></linearGradient><linearGradient y2=".5" y1=".5" x2=".997" x1=".001" spreadMethod="pad" id="g"><stop stop-color="#c90" offset="0"/><stop stop-color="#f4ab02" offset="1"/></linearGradient><linearGradient y2=".497" y1=".497" x2=".996" x1="-.002" spreadMethod="pad" id="h"><stop stop-color="#ffdb6c" offset="0"/><stop stop-color="#f8c031" offset="1"/></linearGradient><linearGradient y2=".5" y1=".5" x2=".99" x1="-.001" spreadMethod="pad" id="i"><stop stop-color="#826200" offset="0"/><stop stop-color="#bb9018" offset="1"/></linearGradient><linearGradient y2=".5" y1=".5" x2="1.001" x1="-.003" spreadMethod="pad" id="j"><stop stop-color="#ffdb6c" offset="0"/><stop stop-color="#f8c031" offset="1"/></linearGradient><linearGradient y2=".5" y1=".5" x2=".996" x1=".004" spreadMethod="pad" id="k"><stop stop-color="#c90" offset="0"/><stop stop-color="#f4ab02" offset="1"/></linearGradient><linearGradient y2=".5" y1=".5" x2="1" x1="-.003" spreadMethod="pad" id="l"><stop stop-color="#fff" offset="0"/><stop stop-color="#fdf5e2" offset="1"/></linearGradient><linearGradient y2=".5" y1=".5" x2="1" x1="0" spreadMethod="pad" id="m"><stop stop-color="#ffe8b0" offset="0"/><stop stop-color="#e0c06b" offset="1"/></linearGradient><linearGradient y2=".5" y1=".5" x2=".996" x1="-.001" spreadMethod="pad" id="n"><stop stop-color="#666" offset="0"/><stop stop-color="gray" offset="1"/></linearGradient><linearGradient y2=".501" y1=".501" x2=".999" x1=".001" spreadMethod="pad" id="o"><stop stop-color="#333" offset="0"/><stop stop-color="#1e1e1e" offset="1"/></linearGradient><linearGradient y2=".5" y1=".5" x2="1.004" x1="-.006" spreadMethod="pad" id="p"><stop stop-color="#fff" offset="0"/><stop stop-color="#fdf5e2" offset="1"/></linearGradient><linearGradient y2=".492" y1=".492" x2=".992" x1=".008" spreadMethod="pad" id="q"><stop stop-color="#ffdb6c" offset="0"/><stop stop-color="#f8c031" offset="1"/></linearGradient><linearGradient y2=".498" y1=".498" x2=".997" x1="0" spreadMethod="pad" id="r"><stop stop-color="#fff" offset="0"/><stop stop-color="#fdf5e2" offset="1"/></linearGradient><linearGradient y2=".5" y1=".5" x2=".999" x1="-.001" spreadMethod="pad" id="s"><stop stop-color="#c90" offset="0"/><stop stop-color="#f4ab02" offset="1"/></linearGradient><linearGradient y2=".501" y1=".501" x2="1" x1="-.001" spreadMethod="pad" id="t"><stop stop-color="#fff" offset="0"/><stop stop-color="#fdf5e2" offset="1"/></linearGradient><linearGradient y2=".502" y1=".502" x2=".993" x1="0" spreadMethod="pad" id="u"><stop stop-color="#ffdb6c" offset="0"/><stop stop-color="#f8c031" offset="1"/></linearGradient><linearGradient y2=".5" y1=".5" x2="1" x1="-.001" spreadMethod="pad" id="v"><stop stop-color="#c90" offset="0"/><stop stop-color="#f4ab02" offset="1"/></linearGradient><linearGradient y2=".499" y1=".499" x2=".997" x1="-.001" spreadMethod="pad" id="w"><stop stop-color="#ffdb6c" offset="0"/><stop stop-color="#f8c031" offset="1"/></linearGradient><linearGradient y2=".5" y1=".5" x2=".999" x1=".001" spreadMethod="pad" id="x"><stop stop-color="#ffdb6c" offset="0"/><stop stop-color="#f8c031" offset="1"/></linearGradient><linearGradient y2=".496" y1=".496" x2="1.001" x1="0" spreadMethod="pad" id="y"><stop stop-color="#ffdb6c" offset="0"/><stop stop-color="#f8c031" offset="1"/></linearGradient><linearGradient y2=".501" y1=".501" x2=".999" x1="0" spreadMethod="pad" id="z"><stop stop-color="#97450f" offset="0"/><stop stop-color="#8e5c13" offset="1"/></linearGradient><linearGradient y2=".499" y1=".499" x2="1.003" x1="-.003" spreadMethod="pad" id="A"><stop stop-color="#960" offset="0"/><stop stop-color="#6d4201" offset="1"/></linearGradient><linearGradient y2=".496" y1=".496" x2=".994" x1="-.003" spreadMethod="pad" id="B"><stop stop-color="#dc9510" offset="0"/><stop stop-color="#e2c371" offset="1"/></linearGradient><linearGradient y2=".499" y1=".499" x2="1" x1="-.006" spreadMethod="pad" id="C"><stop stop-color="#960" offset="0"/><stop stop-color="#6d4201" offset="1"/></linearGradient><linearGradient y2=".497" y1=".497" x2="1" x1="-.002" spreadMethod="pad" id="D"><stop stop-color="#c90" offset="0"/><stop stop-color="#f4ab02" offset="1"/></linearGradient><linearGradient y2=".505" y1=".505" x2="1" x1="0" spreadMethod="pad" id="E"><stop stop-color="#c90" offset="0"/><stop stop-color="#f4ab02" offset="1"/></linearGradient><linearGradient y2=".497" y1=".497" x2=".999" x1=".001" spreadMethod="pad" id="F"><stop stop-color="#826200" offset="0"/><stop stop-color="#bb9018" offset="1"/></linearGradient><linearGradient y2=".495" y1=".495" x2=".995" x1="-.001" spreadMethod="pad" id="G"><stop stop-color="#c90" offset="0"/><stop stop-color="#f4ab02" offset="1"/></linearGradient><linearGradient y2=".5" y1=".5" x2="1" x1="0" spreadMethod="pad" id="H"><stop stop-color="#826200" offset="0"/><stop stop-color="#bb9018" offset="1"/></linearGradient><linearGradient y2=".5" y1=".5" x2="1" x1="0" spreadMethod="pad" id="I"><stop stop-color="#b9af91" offset="0"/><stop stop-color="#536130" offset="1"/></linearGradient><linearGradient y2=".5" y1=".5" x2="1.001" x1="-.004" spreadMethod="pad" id="J"><stop stop-color="#97450f" offset="0"/><stop stop-color="#8e5c13" offset="1"/></linearGradient><linearGradient y2=".499" y1=".499" x2=".999" x1="-.003" spreadMethod="pad" id="K"><stop stop-color="#826200" offset="0"/><stop stop-color="#bb9018" offset="1"/></linearGradient><linearGradient y2=".5" y1=".5" x2=".999" x1="0" spreadMethod="pad" id="L"><stop stop-color="#c5c1a7" offset="0"/><stop stop-color="#bdcc99" offset="1"/></linearGradient><linearGradient y2=".498" y1=".498" x2=".998" x1="-.001" spreadMethod="pad" id="M"><stop stop-color="#ffdb6c" offset="0"/><stop stop-color="#f8c031" offset="1"/></linearGradient><linearGradient y2=".499" y1=".499" x2=".997" x1=".001" spreadMethod="pad" id="N"><stop stop-color="#dc9510" offset="0"/><stop stop-color="#e2c371" offset="1"/></linearGradient><linearGradient y2=".496" y1=".496" x2="1.002" x1="-.001" spreadMethod="pad" id="O"><stop stop-color="#960" offset="0"/><stop stop-color="#6d4201" offset="1"/></linearGradient><linearGradient y2=".5" y1=".5" x2=".997" x1=".003" spreadMethod="pad" id="P"><stop stop-color="#dc9510" offset="0"/><stop stop-color="#e2c371" offset="1"/></linearGradient><linearGradient y2=".498" y1=".498" x2=".999" x1="-.004" spreadMethod="pad" id="Q"><stop stop-color="#960" offset="0"/><stop stop-color="#6d4201" offset="1"/></linearGradient><linearGradient y2=".499" y1=".499" x2=".999" x1="-.001" spreadMethod="pad" id="R"><stop stop-color="#c90" offset="0"/><stop stop-color="#f4ab02" offset="1"/></linearGradient><linearGradient y2=".5" y1=".5" x2=".999" x1=".001" spreadMethod="pad" id="S"><stop stop-color="#dc9510" offset="0"/><stop stop-color="#e2c371" offset="1"/></linearGradient><linearGradient y2=".5" y1=".5" x2="1.001" x1="-.006" spreadMethod="pad" id="T"><stop stop-color="#960" offset="0"/><stop stop-color="#6d4201" offset="1"/></linearGradient><linearGradient y2=".498" y1=".498" x2=".995" x1="-.001" spreadMethod="pad" id="U"><stop stop-color="#c90" offset="0"/><stop stop-color="#f4ab02" offset="1"/></linearGradient><linearGradient y2=".5" y1=".5" x2=".997" x1="-.002" spreadMethod="pad" id="V"><stop stop-color="#dc9510" offset="0"/><stop stop-color="#e2c371" offset="1"/></linearGradient><linearGradient y2=".5" y1=".5" x2=".998" x1=".003" spreadMethod="pad" id="W"><stop stop-color="#960" offset="0"/><stop stop-color="#6d4201" offset="1"/></linearGradient><linearGradient y2=".491" y1=".491" x2=".997" x1="-.005" spreadMethod="pad" id="X"><stop stop-color="#dc9510" offset="0"/><stop stop-color="#e2c371" offset="1"/></linearGradient><linearGradient y2=".497" y1=".497" x2=".997" x1="-.001" spreadMethod="pad" id="Y"><stop stop-color="#960" offset="0"/><stop stop-color="#6d4201" offset="1"/></linearGradient><linearGradient y2=".5" y1=".5" x2=".999" x1="0" spreadMethod="pad" id="Z"><stop stop-color="#dc9510" offset="0"/><stop stop-color="#e2c371" offset="1"/></linearGradient><linearGradient y2=".497" y1=".497" x2=".997" x1="0" spreadMethod="pad" id="aa"><stop stop-color="#dc9510" offset="0"/><stop stop-color="#e2c371" offset="1"/></linearGradient><linearGradient y2=".5" y1=".5" x2="1.001" x1="-.005" spreadMethod="pad" id="ab"><stop stop-color="#960" offset="0"/><stop stop-color="#6d4201" offset="1"/></linearGradient><linearGradient y2=".497" y1=".497" x2=".999" x1="-.003" spreadMethod="pad" id="ac"><stop stop-color="#960" offset="0"/><stop stop-color="#6d4201" offset="1"/></linearGradient><linearGradient y2=".5" y1=".5" x2=".999" x1="0" spreadMethod="pad" id="ad"><stop stop-color="#dc9510" offset="0"/><stop stop-color="#e2c371" offset="1"/></linearGradient><linearGradient y2=".499" y1=".499" x2=".994" x1="-.002" spreadMethod="pad" id="ae"><stop stop-color="#dc9510" offset="0"/><stop stop-color="#e2c371" offset="1"/></linearGradient><linearGradient y2=".5" y1=".5" x2=".998" x1="-.004" spreadMethod="pad" id="af"><stop stop-color="#960" offset="0"/><stop stop-color="#6d4201" offset="1"/></linearGradient><linearGradient y2=".499" y1=".499" x2=".996" x1="0" spreadMethod="pad" id="ag"><stop stop-color="#ffdb6c" offset="0"/><stop stop-color="#f8c031" offset="1"/></linearGradient><linearGradient y2=".5" y1=".5" x2="1" x1="0" spreadMethod="pad" id="ah"><stop stop-color="#c90" offset="0"/><stop stop-color="#f4ab02" offset="1"/></linearGradient><linearGradient y2=".5" y1=".5" x2="1.001" x1="-.01" spreadMethod="pad" id="ai"><stop stop-color="#ffdb6c" offset="0"/><stop stop-color="#f8c031" offset="1"/></linearGradient><linearGradient y2=".498" y1=".498" x2=".987" x1="-.001" spreadMethod="pad" id="aj"><stop stop-color="#ffdb6c" offset="0"/><stop stop-color="#f8c031" offset="1"/></linearGradient><linearGradient y2=".494" y1=".494" x2=".999" x1=".001" spreadMethod="pad" id="ak"><stop stop-color="#ffdb6c" offset="0"/><stop stop-color="#f8c031" offset="1"/></linearGradient><linearGradient y2=".5" y1=".5" x2=".995" x1=".001" spreadMethod="pad" id="al"><stop stop-color="#ffdb6c" offset="0"/><stop stop-color="#f8c031" offset="1"/></linearGradient><linearGradient y2=".499" y1=".499" x2="1.002" x1="-.008" spreadMethod="pad" id="am"><stop stop-color="#960" offset="0"/><stop stop-color="#6d4201" offset="1"/></linearGradient><linearGradient y2=".5" y1=".5" x2="1.008" x1="-.005" spreadMethod="pad" id="an"><stop stop-color="#dc9510" offset="0"/><stop stop-color="#e2c371" offset="1"/></linearGradient><linearGradient y2=".497" y1=".497" x2="1.003" x1="-.005" spreadMethod="pad" id="ao"><stop stop-color="#960" offset="0"/><stop stop-color="#6d4201" offset="1"/></linearGradient><linearGradient y2=".5" y1=".5" x2=".991" x1="0" spreadMethod="pad" id="ap"><stop stop-color="#dc9510" offset="0"/><stop stop-color="#e2c371" offset="1"/></linearGradient><linearGradient y2=".499" y1=".499" x2=".999" x1=".001" spreadMethod="pad" id="aq"><stop stop-color="#960" offset="0"/><stop stop-color="#6d4201" offset="1"/></linearGradient><linearGradient y2=".5" y1=".5" x2=".998" x1=".006" spreadMethod="pad" id="ar"><stop stop-color="#dc9510" offset="0"/><stop stop-color="#e2c371" offset="1"/></linearGradient><g id="au" stroke-opacity="0" stroke-linejoin="round" stroke-linecap="round" stroke="#f0f" fill="none"><path d="M187.95-293.5v380h-380v-380h380M92.95.6H-97" transform="translate(192.55 294)"/><path d="m187.95-293.5-190 190 190 190m-379.95 0 189.95-190-190-190" transform="translate(192.55 294)"/></g><g transform="translate(79.4 74.5)" id="av"><use xlink:href="#a" width="158.8" transform="translate(-79.4 -74.5)" height="149"/><use xlink:href="#b" width="88.95" transform="translate(-18.9 -52.5)" height="110.85"/></g><g id="a"><path fill-rule="evenodd" fill="url(#c)" d="M27.35-31.8Q26.6-43.9 21-47.75q1.45 3.4 0 5.45-.55-1.95-3.6-3.9l-.8-.5.25-1.2-1.2-3q-1.7-2.55-4.05-1v2.85Q4.15-51.65.4-46.2L-.65-38l-2.1-3.7q-2.05-2.65-6-2.75 1.3-4.3 3.65-8.15-4-.1-3.75-1.8 3.3-4.55 18.35-2.65Q4.95-59.7 8-61.2q4.25-1.95 16.3 10.15.5-4.65 2.95-1 1.55 6.55.75 15.1L27.8-35l-.45 3.2" transform="translate(79.4 74.5)"/><path fill-rule="evenodd" fill="url(#d)" d="m16.6-46.7.8.5q3.05 1.95 3.6 3.9 1.45-2.05 0-5.45 5.6 3.85 6.35 15.95l.45-3.2q2.25-1.1 4.5-1.85l1.35.75q-.3 2 2 4l3.8.8 2-1.8q1.25-.8-.8-3.6l1.05-1.95 5.55.3-1.75-1.55q8.55 1.25 8.85 4.05h-3.8l5.4 3.7-1.5.65q2.15 1.5 1 3l-1.6 2q-2.2.7-1.25 3.3-1.9-1.65-4.1-1.5-1.4.05-2.9.9L42.65-21l-.8.8q-.45-3.35-3.7-7.1-7.6.9-11.4 6.95l-.7-3.15q-.95-2.2-4.4-3.8l-5.2-1.65 1.15-2q.9-5.55-3-11.75l1.45-1.8.55-2.2m30.3 19.15q-3.85-2.35-3.8-.4-.3 1.2 4.5 2.4.35-.8-.7-2m1.6-.35q.95 1.95 0 3.2.95-1.25 0-3.2" transform="translate(79.4 74.5)"/><path fill-rule="evenodd" fill="#ffdb6c" d="M-8.75-44.45q3.95.1 6 2.75l2.1 3.7-.8 6.35.65 2.7q-1.5.75-2.95 1.45-4.95-1.2-6.85-3.1-.2-7.45 1.85-13.85m20.35-4.6v-2.85q2.35-1.55 4.05 1l1.2 3-.25 1.2q-2.7-1.55-5-2.35m29.1 7.65 1 2.75q-4.7.15-9.4 1.8l-1.75-1.1q5.85-2.2 10.15-3.45m21.85 1.1-2.8-2q4.15-2.85 6.6-3.15l-.5 2.15v1.4l-.45-.05q-1.45.6-2.85 1.65m6 10.35q-.7-2.7-1.95-5.55l1.45.4q1.15 2.85 1.65 5.5.85 4.7-.25 8.85l-.65 1.9.4-2.2q.45-4.25-.65-8.9M10.75 9.3l.15-.55 3.25-.7 3.05 1.7 1.3 4.2q-.55.7-1.95-.45l-.3-1.55q-1.2-1.15-2.35-1.55l-2.9-.05-.6.45.35-1.5m13.05-.65Q30.2 11 34.45 15.1l-2.2.2-.4.7q-3.05-1.9-6.4-3.2v-2.1L23.8 8.65m12.15 7.95 7.65-1 3.25 2.9-.9 3.15-7.25-1.15q-.4-1.7-2.75-3.9M46.9-27.55q1.05 1.2.7 2-4.8-1.2-4.5-2.4-.05-1.95 3.8.4m-60.1 35.3q1.25 3.4-1.65 2.1l-.7-3.75 1.1-1.6q.25 1.6 1.25 3.25m-5.7 21.55q2.1-1.05 3.45.2 3.3-2.4 7.1-2.65l2 3.05-2 2.6-3.8-1h-3.6l-1.4-.45q-.7-.85-1.75-1.75M2.5 52.25 3.6 50l4.25-.9.85.65q-.9.65-1.6 1.5l-2.2 7.1L.8 55.7l1.7-3.45" transform="translate(79.4 74.5)"/><path fill-rule="evenodd" fill="url(#e)" d="m41.7-38.65-1-2.75q7.75-2.2 10.6-1.35 2.2 2.05-1.15 2.55l5.05 1.35q2.9.9 4 1.75t.5 1.65q-1.65 1.85-5.45.75l2.7 2.1-1 .45-5.4-3.7h3.8q-.3-2.8-8.85-4.05l1.75 1.55-5.55-.3" transform="translate(79.4 74.5)"/><path fill-rule="evenodd" fill="url(#f)" d="M59.2-37.1q-1.1-.85-4-1.75l4.55-3.45 2.8 2q-1.75 1.25-3.35 3.2" transform="translate(79.4 74.5)"/><path fill-rule="evenodd" fill="#c90" d="M11.6-49.05q2.3.8 5 2.35l-.55 2.2-1.45 1.8-.35-.55q-2.75-.8-5.25.5l2.65-3.55-.05-2.75m20.7 12.2q4.7-1.65 9.4-1.8l-1.05 1.95q2.05 2.8.8 3.6l-2 1.8-3.8-.8q-2.3-2-2-4l-1.35-.75m30.25-3.45q1.4-1.05 2.85-1.65l.45.05v1.6q-1.65 3.3-3.3 2v-2m6 10.35q1.1 4.65.65 8.9l-2.35-3.05-2.4-1.65q-.1-2-.9-3.85l1.7.9 3.3-1.25M59.1-26.2l-.1.05q1.1 2.15 1.8 4.25.6 2.1.8 4.15l.05 2.65-.5-.35-1.05.55q-.3-3.8-1.75-6.65-1.6-3.05-4.5-4.95l1.6-2q1.15-1.5-1-3l1.5-.65q2.4 1.95 3.9 3.95h-2.1l1.35 2m-8.55 39.65q2.7-2.65 3.6-6.45.5 4.05-1.4 7-.25-1.5-2.2-.55m8.55 1.65 5.25.05-.15 3.45-3.75 1.3-2.8-2.2 1.45-2.6M23.45-17.45l-1.6-1.65-3.6-1q-3.75-1.6-2.8-7.1l1-1.75 5.2 1.65q3.45 1.6 4.4 3.8l.7 3.15q-.95 1.5-1.65 3.35l-1.65-.45m2 30.25q3.35 1.3 6.4 3.2l-1 1.7-2.8.8-2.6-3v-2.7m21.7 16.4.7-3.9 4.4-2.4 3.05 1v3.55l-4.5 1-2.75 3.7-.7 1.35-1.55 2.85-5.6-3.2-.75-.4q1-1.05 1.45-2.2l6.25-1.35m-1.2-7.55-2.3 2.05q-3.35 2.2-5.2 0l.3-2.5-.05-.7 7.25 1.15M38.4 46l.45.4q-3.05 5-3.5 10.3l-.1 1.35-4.8-2.95 1.8-3.4-.5-3.2 3.6-1.1L38.4 46m-19.7.3 2.95-1.2h3.6l1.25 4.05H25l-.95 1.15-4.4 1.4-1.8-4.7 1.7.1-.85-.8m-10 3.45 2.55 1.95-.8 4.8-5.55 1.85 2.2-7.1q.7-.85 1.6-1.5M-.65-38l1.9 3.3q.3 3.55-2.05 5.75l-.65-2.7.8-6.35m-.5 34.6 2.3.65L2.85-1l-1.1.15-1.15.2-1.75-2.75M-16.5 40.45l-.25-.55.4.5-.15.05m7.35 12.45.6-3.2 1.4-1.8 3.8.6 1.6 2 .5 1.65q-4.05-.5-7.9.75" transform="translate(79.4 74.5)"/><path fill-rule="evenodd" fill="url(#g)" d="m56.95-32.6-2.7-2.1q3.8 1.1 5.45-.75.6-.8-.5-1.65 1.6-1.95 3.35-3.2v2q1.65 1.3 3.3-2v-1.6q2.4.4-.9 4.4 4.7-1.2 8.05 1.25-1.9 1.35-4.95 1.15l-1.45-.4q1.25 2.85 1.95 5.55l-3.3 1.25-1.7-.9-1.25-2.1q-2.3-1.05-3.05 1.15l-2.3-2.05" transform="translate(79.4 74.5)"/><path fill-rule="evenodd" fill="url(#h)" d="M65.85-41.9v-1.4l.5-2.15q1.6-.2 2.5.7Q69.9-42 68.25-40q3.25-.3 4.75 3.75-3.35-2.45-8.05-1.25 3.3-4 .9-4.4" transform="translate(79.4 74.5)"/><path fill-rule="evenodd" fill="url(#i)" d="M61.6-17.75q-.2-2.05-.8-4.15-.7-2.1-1.8-4.25l.1-.05q2.75 2.65 2.55.6-.35-2.9-2.4-4.95.75-2.2 3.05-1.15l1.25 2.1q.8 1.85.9 3.85.1 2.3-.85 4.85l-2 3.15" transform="translate(79.4 74.5)"/><path fill-rule="evenodd" fill="url(#j)" d="m55.95-32.15 1-.45 2.3 2.05q2.05 2.05 2.4 4.95.2 2.05-2.55-.6l-1.35-2h2.1q-1.5-2-3.9-3.95" transform="translate(79.4 74.5)"/><path fill-rule="evenodd" fill="url(#k)" d="m69.2-21.05-.4 2.2q-1.35 3.35-4.1 6.3l-3.05-2.55-.05-2.65 2-3.15q.95-2.55.85-4.85l2.4 1.65 2.35 3.05" transform="translate(79.4 74.5)"/><path fill-rule="evenodd" fill="url(#l)" d="m60.1-14.9 1.05-.55.5.35 3.05 2.55Q72.25-5.9 76.35 2.8l2.3 2.85Q73.95.5 67-3.25h3.7q-2.25-2.75-8-5l.45-2.85-2.5 1.7L58.4-14l1.7-.9" transform="translate(79.4 74.5)"/><path fill-rule="evenodd" fill="url(#m)" d="M62.35-3.2q.15-2.3-1.3-5.2l-.4-1 2.5-1.7-.45 2.85q5.75 2.25 8 5H67Q73.95.5 78.65 5.65l.25.3h-1.7l1.7 4.2-1-.65q-4.85 4.4-11.95 5.5l-1.6.15-5.25-.05q-3.4-.25-6.35-1.1 1.9-2.95 1.4-7-.9 3.8-3.6 6.45l-.05.05-.55.2-1.85.7-4.5 1.2-7.65 1-1.5-1.5Q30.2 11 23.8 8.65q-4.05-1-6.6 1.1l-3.05-1.7-3.25.7-.15.55-.85-.65.8-5.3Q9.9.15 7-2q-.3-2.15-1.1-4.45l-.5-.8q3.3-1.4 7-.8L8.35-11q7.5-1.3 13.45.55l-3.85-3.95q9.55 1.7 16 6.6-.45 1.6-.5 3.35.2 2.25 3.35 3.85l1.9.4q2-.6 3.95.95l.95.9 6.9.5 1.9-.1h2.35q4.65-.65 7.3-3.75l.3-1.5" transform="translate(79.4 74.5)"/><path fill-rule="evenodd" fill="url(#n)" d="m60.65-9.4.4 1q1.45 2.9 1.3 5.2-24.65.15-19.7-17.8l2.95-2.8q1.5-.85 2.9-.9 2.2-.15 4.1 1.5l1.5 2.15.9 1.35 3.4 5.7 2.25 4.6" transform="translate(79.4 74.5)"/><path fill-rule="evenodd" fill="url(#o)" d="m62.35-3.2-.3 1.5q-2.65 3.1-7.3 3.75H52.4L55.75-.9 50.5 2.15l-6.9-.5-.95-.9Q39.05-2.5 36.8-2.8q-.85.5 1.9 2.6l-1.9-.4q-3.15-1.6-3.35-3.85.05-1.75.5-3.35.75-2.7 2.55-4.95l1.4-1.55q1.55-3.15 3.95-5.9l.8-.8Q37.7-3.05 62.35-3.2" transform="translate(79.4 74.5)"/><path fill-rule="evenodd" d="m55-19.7-.9-1.35q0-.5.4-.9t.95-.4q.55 0 .95.4.4.4.4.95 0 .55-.4.95-.4.4-.95.4L55-19.7" transform="translate(79.4 74.5)"/><path fill-rule="evenodd" fill="url(#p)" d="M53.85-26.5q2.9 1.9 4.5 4.95 1.45 2.85 1.75 6.65l-1.7.9-3.4-5.7.45.05q.55 0 .95-.4.4-.4.4-.95 0-.55-.4-.95-.4-.4-.95-.4-.55 0-.95.4-.4.4-.4.9l-1.5-2.15q-.95-2.6 1.25-3.3" transform="translate(79.4 74.5)"/><path fill-rule="evenodd" fill="url(#q)" d="m27.8-35 .2-1.95 2.55-1 1.75 1.1q-2.25.75-4.5 1.85" transform="translate(79.4 74.5)"/><path fill-rule="evenodd" fill="url(#r)" d="M25.1-17q.7-1.85 1.65-3.35 3.8-6.05 11.4-6.95 3.25 3.75 3.7 7.1-2.4 2.75-3.95 5.9l-1.4 1.55q-5.05-2.6-11.4-4.25m2.95-3.3q-.4.4-.4.95 0 .55.4.95.4.4.95.4.55 0 .95-.4.4-.4.4-.95 0-.55-.4-.95-.4-.4-.95-.4-.55 0-.95.4" transform="translate(79.4 74.5)"/><path fill-rule="evenodd" fill="url(#s)" d="M-.65-38 .4-46.2q3.75-5.45 11.2-2.85l.05 2.75L9-42.75Q6.85-41.7 4.9-39.1q-2.3 4.2-1.1 8.35 2.65 6.15 8.5 8.95l3.15-5.4q-.95 5.5 2.8 7.1l3.6 1 1.6 1.65L20.9-18q-6.5-.35-12.15 1l-5.5-4.7Q.4-24.8-.8-28.95q2.35-2.2 2.05-5.75L-.65-38" transform="translate(79.4 74.5)"/><path fill-rule="evenodd" fill="url(#t)" d="M33.95-7.8q-6.45-4.9-16-6.6l3.85 3.95Q15.85-12.3 8.35-11l4.05 2.95q-3.7-.6-7 .8l-.8-1Q3.3-9.7 1.55-10.5l-2.05-.4q-1.8-.15-3.8.5l-.15-.15q4.3-3.45 8.35-5L8.75-17q5.65-1.35 12.15-1l2.55.55 1.65.45q6.35 1.65 11.4 4.25-1.8 2.25-2.55 4.95" transform="translate(79.4 74.5)"/><path fill-rule="evenodd" fill="#333" d="m52.4 2.05-1.9.1L55.75-.9 52.4 2.05M42.65.75Q40.7-.8 38.7-.2q-2.75-2.1-1.9-2.6 2.25.3 5.85 3.55M28.05-20.3q.4-.4.95-.4.55 0 .95.4.4.4.4.95 0 .55-.4.95-.4.4-.95.4-.55 0-.95-.4-.4-.4-.4-.95 0-.55.4-.95" transform="translate(79.4 74.5)"/><path fill-rule="evenodd" fill="url(#u)" d="M17.2 9.75q2.55-2.1 6.6-1.1l1.65 2.05v2.1l-3.7-1.3q.95 2.5-1.25 2.65l-3.3-4.4" transform="translate(79.4 74.5)"/><path fill-rule="evenodd" fill="url(#v)" d="m48.1 14.4 1.85-.7.55-.2.05-.05q1.95-.95 2.2.55 2.95.85 6.35 1.1l-1.45 2.6 2.8 2.2 3.75-1.3q-.4 4-1.95 6.1-1.65.75-1.1-1.95L56.9 27.1l-1.6.35V23.9l-3.05-1-4.4 2.4-.7 3.9-6.25 1.35q-.45 1.15-1.45 2.2l-4.35-2.5-3.8-.7-2.2 2.15-2.15-1.25 1.5-1.8-1.2-6q-1.75-1.65-3.5-1.9l-1.85.05-.75-3.7q-1.5-1.4-3-1.8l-.6-.15-.7-.05-.3-1.6q1.4 1.15 1.95.45l-1.3-4.2 3.3 4.4q2.2-.15 1.25-2.65l3.7 1.3v2.7l2.6 3 2.8-.8 1-1.7q3.65 2.2 6.9 5.2l-.3 2.5q1.85 2.2 5.2 0l2.3-2.05q4.3.3 7.4-.7 1.15-1.65-1.6-2.55 1.15-1.05 3.5-.55Q55 16.1 48.1 14.4m-6.85 13.95-.35 2.2.35-2.2" transform="translate(79.4 74.5)"/><path fill-rule="evenodd" fill="url(#w)" d="m43.6 15.6 4.5-1.2q6.9 1.7 7.15 3.45-2.35-.5-3.5.55 2.75.9 1.6 2.55-3.1 1-7.4.7l.9-3.15-3.25-2.9" transform="translate(79.4 74.5)"/><path fill-rule="evenodd" fill="url(#x)" d="m34.45 15.1 1.5 1.5q2.35 2.2 2.75 3.9l.05.7q-3.25-3-6.9-5.2l.4-.7 2.2-.2" transform="translate(79.4 74.5)"/><path fill-rule="evenodd" fill="#5e2b09" d="m9.9 8.65.85.65-.35 1.5q-2.55 2-2.55 5.25l.25 3.25-3.05-1.95v-6.9q1.1-2.1 2.45-3.65l2.4 1.85m29.55 24.1.75.4q-6.95-2.3-9.75.35l11.65 7.3 10.95 7.55-2.35 7.5-.45-.35-11.4-9.1-.45-.4-9.1-7.25-5.6-4.45 3.25-3.85 2.15 1.25 2.2-2.15 3.8.7 4.35 2.5m-74-59.85q-1.7-3-5.1-6-.15-7.1 3.05-9.2l6.25 10.5q-2.8 1.15-2.8 5.15l-1.4-.45m3-15.85 1.05-1.7 1.5 4.85-2.55-3.15M-3.4-4l2.25.6L.6-.65q-3.4.75-6.55 2.9L-7 3.5V.95Q-5.4-2-3.4-4m2.25 12.55V5.9Q.3 3.2 2.15 1.3L4.5 4.55Q2.4 5.35.25 6.8l-1.4 1.75" transform="translate(79.4 74.5)"/><path fill-rule="evenodd" fill="url(#y)" d="m45.8 36.35 1.55-2.85q8.05-.45 10.05 3.55 2.1 3.3-2.25 1.7l.65 1.85-2.95-2.3.45-1.85q-3.45-1.05-5.4 1.15l-2.1-1.25" transform="translate(79.4 74.5)"/><path fill-rule="evenodd" fill="url(#z)" d="m40.2 33.15 5.6 3.2 2.1 1.25 8.55 4.85 5.15 2.95-6.75 1.6-12.75-6.2-11.65-7.3q2.8-2.65 9.75-.35" transform="translate(79.4 74.5)"/><path fill-rule="evenodd" fill="url(#A)" d="M23.75 20.75q1.75.25 3.5 1.9l1.2 6-1.5 1.8-3.25 3.85-.4.4-1.75 4.3-.8-1.1-.6-7.65 1.1 1.85.75-4.2-1.4.6 2.3-4.85L20.15 25l3.6-4.25" transform="translate(79.4 74.5)"/><path fill-rule="evenodd" fill="url(#B)" d="m21.9 20.8 1.85-.05-3.6 4.25 2.75-1.35-2.3 4.85 1.4-.6-.75 4.2-1.1-1.85.6 7.65-.8-1.05Q18.15 32.7 18 28.2v-1q0-3.95 3.45-6.3l.45-.1" transform="translate(79.4 74.5)"/><path fill-rule="evenodd" fill="url(#C)" d="M18.15 15.3q1.5.4 3 1.8l.75 3.7-.45.1Q18 23.25 18 27.2v1l-.8.95-1.75 4.3-1.7-8.15 1.35 2.3.9-7.45-1.95 1.1 4.1-5.95" transform="translate(79.4 74.5)"/><path fill-rule="evenodd" fill="#ffd87d" d="M18 28.2q.15 4.5 1.95 8.65l.8 1.05.8 1.1 1.75-4.3.4-.4 5.6 4.45q-.05 1.6-1.4 3l-3.4-2.25-2.3 1.35-8-5.6-1.4 1.1-2.2-2.3-1.95 2.2q-3.6-5.35-2.3-11.4l-3.95.55-5.1-1.95 1.1-2.1.25.35q3.75 1.15 7.2-.5l2.25-1.85q.4 2.75 1.55 5.4l1.15 1.6.3.35.95-2.35.1.95q.45 3.1 1.7 6l1.6 2.15 1.75-4.3.8-.95" transform="translate(79.4 74.5)"/><path fill-rule="evenodd" fill="url(#D)" d="m35.35 47.4-3.6 1.1-5.25.65-1.25-4.05h-3.6l-2.95 1.2q-3.75-2.8-11.8-.5l.75-.6q3.3-2.5 7.85-2.05 3.8.4 6.05-1.55l-.85 2.25q2.65-.5 3.9-3.05l.8 2.65 2.5-1.7 7.45 5.65" transform="translate(79.4 74.5)"/><path fill-rule="evenodd" fill="#ffe8b0" d="m-2.7 23.45 5.1 1.95 3.95-.55q-1.3 6.05 2.3 11.4l1.95-2.2 2.2 2.3 1.4-1.1 8 5.6 2.3-1.35 3.4 2.25-2.5 1.7-.8-2.65q-1.25 2.55-3.9 3.05l.85-2.25q-2.25 1.95-6.05 1.55-4.55-.45-7.85 2.05l-.75.6-2.85.1v-2.25l-1.45 1.2q-1.9-2.3-1.2-4.65L0 42l-1.85-7.1v2.85q-2.35-3.5-2.55-7.7l.4-2.85q.4-1.9 1.3-3.75" transform="translate(79.4 74.5)"/><path fill-rule="evenodd" fill="url(#E)" d="m31.75 48.5.5 3.2-1.8 3.4 4.8 2.95q3.15 6.9-.85 10.6-.95-6.85-6.15-6.75l-.6.05q-2.4.3-4.05 3.3-.45 2.7.3 5.15-1.7 1.8-3.35.6l.3-.85q-.55-8.35-6.3-8.25-2.8 0-4.65 3.35-.5 3.05.5 5.85l-4.15-.15.75-1.5q.25-7.2-3.95-8.1 5.5.75 1.85-3l5.55-1.85.8-4.8-2.55-1.95q3.45-2.85 9.15-2.75l1.8 4.7 4.4-1.4.95-1.15h1.5l5.25-.65" transform="translate(79.4 74.5)"/><path fill-rule="evenodd" fill="url(#F)" d="M29.3 38.75 38.4 46l-3.05 1.4-7.45-5.65q1.35-1.4 1.4-3" transform="translate(79.4 74.5)"/><path fill-rule="evenodd" fill="url(#G)" d="m55.8 40.6.65 1.85-8.55-4.85q1.95-2.2 5.4-1.15l-.45 1.85 2.95 2.3" transform="translate(79.4 74.5)"/><path fill-rule="evenodd" fill="url(#H)" d="m38.85 46.4 11.4 9.1q-2.3 1.8-5.75.75v1.7q-.7 1.95-4.05 1.85l-5.1-3.1q.45-5.3 3.5-10.3" transform="translate(79.4 74.5)"/><path fill-rule="evenodd" fill="#401e06" d="m50.7 55.85 2.35-7.5L42.1 40.8 54.85 47l6.75-1.6.35.2.95 7.7-2.15 2.55q-4.3 3.35-10.05 0M54.85 47l1.95 2.25-3.75-.9 3.75.9L54.85 47" transform="translate(79.4 74.5)"/><path fill-rule="evenodd" fill="url(#I)" d="M-57.7-74q-9.4 9.15-.5 24.35l-3.85 1.45 4.7.7q9.85 15.75 22.8 20.4l1.4.45q0-4 2.8-5.15l2.3-.5 6.9 1.95 2.2 3.15-.8-3.75 2.35.9q4.25 10.5 12.95 19.5l-.5.4-.1.05Q-7.3-7.95-6.3-5.4q-2.75.85-5.5 2.7l-.55.6-6.85-10.25Q-34.65-1.75-50.8-14l.9-1.7-4.85 2.3 1.6-1.8q-19.05-19-18.25-40.1.85-11.15 13.7-18.7m29.75 48.5-5.2-1.15 5.2 1.15" transform="translate(79.4 74.5)"/><path fill-rule="evenodd" fill="url(#J)" d="m-36.6-42.3 4.15-1.75.9 1.1L-29-39.8l-1.5-4.85 4.15 2.35 5.9 11.65-.7.3-6.9-1.95-2.3.5-6.25-10.5" transform="translate(79.4 74.5)"/><path fill-rule="evenodd" fill="url(#K)" d="M9-42.75q2.5-1.3 5.25-.5l.35.55q3.9 6.2 3 11.75l-1.15 2-1 1.75-3.15 5.4q-5.85-2.8-8.5-8.95-1.2-4.15 1.1-8.35 1.95-2.6 4.1-3.65" transform="translate(79.4 74.5)"/><path fill-rule="evenodd" fill="url(#L)" d="M-13.5-.45Q-20.75 5.1-31.95 7.6l-4.75-5.3 1.95 5.4q-38.3-1.95-43.95-47.45l7.55-2.25-7.75-1.45q-.7-24.8 21.2-30.55-12.85 7.55-13.7 18.7-.8 21.1 18.25 40.1l-1.6 1.8 4.85-2.3-.9 1.7q16.15 12.25 31.6 1.65l6.85 10.25-1.15 1.65" transform="translate(79.4 74.5)"/><path fill-rule="evenodd" fill="url(#M)" d="M3.9-15.55Q-4.3-18-10.3-26l-.3-4.6q1.9 1.9 6.85 3.1 1.45-.7 2.95-1.45Q.4-24.8 3.25-21.7l5.5 4.7-4.85 1.45" transform="translate(79.4 74.5)"/><path fill-rule="evenodd" fill="#c5c1a7" d="m-20.45-30.65.7-.3.8 3.75-2.2-3.15.7-.3" transform="translate(79.4 74.5)"/><path fill-rule="evenodd" fill="url(#N)" d="m5.4-7.25.5.8Q6.7-4.15 7-2 7.25.3 7 2.45l-.7.4Q6.15-.5 3.7-5.3V-4Q2.15-6.2-.85-8.05v1.45Q-2.65-8-5.7-8.15l.75-2 .65-.25q2-.65 3.8-.5l2.05.4q1.75.8 3.05 2.25l.8 1" transform="translate(79.4 74.5)"/><path fill-rule="evenodd" fill="url(#O)" d="M-6.3-5.4q-1-2.55 1.25-4.7l.1-.05-.75 2Q-2.65-8-.85-6.6v-1.45Q2.15-6.2 3.7-4v-1.3Q6.15-.5 6.3 2.85l-.65.4q-.8-1.7-2.05-3.3L2.85-1l-1.7-1.75-2.3-.65L-3.4-4l1.05-.95-.55-.55-.55-.55-2.85.65" transform="translate(79.4 74.5)"/><path fill-rule="evenodd" fill="url(#P)" d="m-12.35-2.1.55-.6q2.75-1.85 5.5-2.7l2.85-.65.55.55Q-6.4-3.95-9.4.6l.55-2.3Q-10.9-.55-10.4 5.2L-11.5 4l1.45 5.65q-1.2-.05-2.45-.8l-.7-1.1q-1-1.65-1.25-3.25l-.15-1.95q.3-1.6 1.1-3l1.15-1.65" transform="translate(79.4 74.5)"/><path fill-rule="evenodd" fill="url(#Q)" d="m-2.9-5.5.55.55L-3.4-4Q-5.4-2-7 .95V3.5q-1.35 1.8-1.75 4l.1 1.9-1.4.25L-11.5 4l1.1 1.2q-.5-5.75 1.55-6.9L-9.4.6q3-4.55 6.5-6.1" transform="translate(79.4 74.5)"/><path fill-rule="evenodd" fill="url(#R)" d="m-10.05 9.65 1.4-.25q.4 2.2 2 4.4l1.95.75q1.2.2 2.3-.4.4 2.1 1.95 4.2 1.45.85 2.75.8 1.45-.1 2.75-1.4v-.4L8.1 19.3v.05L5.85 21.2q-3.45 1.65-7.2.5l-.25-.35-2.5-3.7q-2.05.5-4.15-2.05-.95-1.25 0-2.5-3.3-.55-6.6-3.25 2.9 1.3 1.65-2.1l.7 1.1q1.25.75 2.45.8" transform="translate(79.4 74.5)"/><path fill-rule="evenodd" fill="url(#S)" d="m-8.65 9.4-.1-1.9q.4-2.2 1.75-4l1.05-1.25Q-2.8.1.6-.65l1.15-.2-4.5 4.4-.75-1.4Q-5.95 5.75-5.35 9l-1.3-1.5q0 3.95 1.95 7.05l-1.95-.75q-1.6-2.2-2-4.4" transform="translate(79.4 74.5)"/><path fill-rule="evenodd" fill="url(#T)" d="m2.85-1 .75.95L2.15 1.3Q.3 3.2-1.15 5.9v2.65q-1.05 1.6-1.4 3.5l.15 2.1q-1.1.6-2.3.4-1.95-3.1-1.95-7.05l1.3 1.5q-.6-3.25 1.85-6.85l.75 1.4 4.5-4.4L2.85-1" transform="translate(79.4 74.5)"/><path fill-rule="evenodd" fill="url(#U)" d="M7-2Q9.9.15 10.7 3.35l-.8 5.3L7.5 6.8l2.2-2.25-1.1-1.1q-2.05.25-4.1 1.1L2.15 1.3 3.6-.05q1.25 1.6 2.05 3.3l.65-.4.7-.4Q7.25.3 7-2" transform="translate(79.4 74.5)"/><path fill-rule="evenodd" fill="url(#V)" d="M2.3 19.15q-1.3.05-2.75-.8-1.55-2.1-1.95-4.2l-.15-2.1q.35-1.9 1.4-3.5L.25 6.8Q2.4 5.35 4.5 4.55q2.05-.85 4.1-1.1-3.25 1.5-4.9 5l-1.3-1.2q-1.75 2.9-1.3 6.6L0 11.45q-.2 6.2 2.3 7.7" transform="translate(79.4 74.5)"/><path fill-rule="evenodd" fill="url(#W)" d="M5.05 17.35v.4q-1.3 1.3-2.75 1.4-2.5-1.5-2.3-7.7l1.1 2.4q-.45-3.7 1.3-6.6l1.3 1.2q1.65-3.5 4.9-5l1.1 1.1L7.5 6.8q-1.35 1.55-2.45 3.65v6.9" transform="translate(79.4 74.5)"/><path fill-rule="evenodd" fill="url(#X)" d="M8.1 19.35v-.05l-.25-3.25q0-3.25 2.55-5.25l.6-.45 2.9.05q-4 2.35-4.9 5.85l1.85-1q-1.7 3.3-1.3 6.25l1.2-1.45.05 6.3-1.15-1.6Q8.5 22.1 8.1 19.35" transform="translate(79.4 74.5)"/><path fill-rule="evenodd" fill="url(#Y)" d="m-22.75 35.3-2.45-2.25-2.65-1.95 4-1.4-1.75 1.3 4.4-1.4 2.8 2.85-1.6-1.25 4.3 4.85q-.35.85-1.2 1.35l-1.55.25-3-2.4-1.3.05" transform="translate(79.4 74.5)"/><path fill-rule="evenodd" fill="url(#Z)" d="M-27.85 31.1q1.95-3.3 7-3.25l1.95 1.45q1.05.9 1.75 1.75.9 1 1.25 2 .4 1.2.35 2.1l-.15.9-4.3-4.85 1.6 1.25-2.8-2.85-4.4 1.4 1.75-1.3-4 1.4" transform="translate(79.4 74.5)"/><path fill-rule="evenodd" fill="url(#aa)" d="m-16.4 43.7-5.6-3.85 1.35-.55-4.05-.85 1.4-1-5.15 1.05q1.7-2.85 5.7-3.2l1.3-.05 3 2.4q1.15 1.15 1.7 2.25l.25.55q.7 2 .1 3.25" transform="translate(79.4 74.5)"/><path fill-rule="evenodd" fill="url(#ab)" d="m-18.9 45.05-1.45-1.1-1.8.1q-1.15-1.45-3.65-3.6l-2.65-1.95 5.15-1.05-1.4 1 4.05.85-1.35.55 5.6 3.85-.4.55-.7.55-1.4.25" transform="translate(79.4 74.5)"/><path fill-rule="evenodd" fill="url(#ac)" d="m-26.75 47.65 3.35-2.1-1.45 1.75 3.2-1.2 3.15 1.4h-1.75l4.95 4.85-1.1 1.15-1.3.2-2.55.4q-.55-1.6-4.45-4.95l-2.05-1.5" transform="translate(79.4 74.5)"/><path fill-rule="evenodd" fill="url(#ad)" d="m-15.3 52.35-4.95-4.85h1.75l-3.15-1.4-3.2 1.2 1.45-1.75-3.35 2.1-.6-.45q1.6-2.7 5.2-3.15l1.8-.1 1.45 1.1q2.35 1.8 3.25 3.5l.25.6q.65 2 .1 3.2" transform="translate(79.4 74.5)"/><path fill-rule="evenodd" fill="url(#ae)" d="m16.85 15.1.7.05.6.15-4.1 5.95 1.95-1.1-.9 7.45-1.35-2.3 1.7 8.15-1.6-2.15q-1.25-2.9-1.7-6l-.1-.95-.15-2.7q0-3.95 3.45-6.3l1.5-.25" transform="translate(79.4 74.5)"/><path fill-rule="evenodd" fill="url(#af)" d="m16.55 13.5.3 1.6-1.5.25q-3.45 2.35-3.45 6.3l.15 2.7-.95 2.35-.3-.35-.05-6.3-1.2 1.45q-.4-2.95 1.3-6.25l-1.85 1q.9-3.5 4.9-5.85 1.15.4 2.35 1.55l.3 1.55" transform="translate(79.4 74.5)"/><path fill-rule="evenodd" fill="url(#ag)" d="m-8.35 26.85 4.35.35-.4 2.85q-.15 2.05.25 4.15-5.35 2.25-10.3-2.25 1.6 1.95 1.55 3.5-.95 2.6-2.65-.3.05-.9-.35-2.1-.35-1-1.25-2l1.4.45h3.6l3.8 1 2-2.6-2-3.05" transform="translate(79.4 74.5)"/><path fill-rule="evenodd" fill="url(#ah)" d="m-17.7 53.7 1.3-.2 1.1-1.15q.55-1.2-.1-3.2l-.25-.6q3.3 2.1 1.7-1.15.6-2.15-2.85-3.15l.4-.55q.6-1.25-.1-3.25l.15-.05q4.15 5.6 3 0 .25-1.5-3.55-3 .85-.5 1.2-1.35l.15-.9q1.7 2.9 2.65.3.05-1.55-1.55-3.5 4.95 4.5 10.3 2.25-.4-2.1-.25-4.15.2 4.2 2.55 7.7V34.9L0 42l1.4-1.8q-.7 2.35 1.2 4.65l1.45-1.2v2.25l2.85-.1Q5.05 47.4 3.6 50l-1.1 2.25-3.75-.1-.5-1.65-1.6-2-3.8-.6-1.4 1.8-.6 3.2-3.15 1.3q-.05 1.7-2.9 1.85l-2.5-2.35m14.35-16.55-.8-2.95.8 2.95" transform="translate(79.4 74.5)"/><path fill-rule="evenodd" fill="url(#ai)" d="M-16.75 39.9q-.55-1.1-1.7-2.25l1.55-.25q3.8 1.5 3.55 3 1.15 5.6-3 0l-.4-.5" transform="translate(79.4 74.5)"/><path fill-rule="evenodd" fill="url(#aj)" d="M-15.65 48.55q-.9-1.7-3.25-3.5l1.4-.25.7-.55q3.45 1 2.85 3.15 1.6 3.25-1.7 1.15" transform="translate(79.4 74.5)"/><path fill-rule="evenodd" fill="url(#ak)" d="M6.9 45.8q8.05-2.3 11.8.5l-.85.7q-5.7-.1-9.15 2.75l-.85-.65-4.25.9q1.45-2.6 3.3-4.2" transform="translate(79.4 74.5)"/><path fill-rule="evenodd" fill="url(#al)" d="M4.9 58.35q3.65 3.75-1.85 3l-1.5-.15q-2.8 0-5 3.35l-.35 1.75q-1.8-.4-1.7-2.85Q-3.8 59-.75 58.4L.8 55.7l4.1 2.65" transform="translate(79.4 74.5)"/><path fill-rule="evenodd" fill="url(#am)" d="M14.55 61.9q5.75-.1 6.3 8.25l-.3.85q-1.3 3.25-4.75 3l-1.75-.1-.5-4.75 1.2 1.55-.4-6.25-1.45 1.3 1.65-3.85" transform="translate(79.4 74.5)"/><path fill-rule="evenodd" fill="url(#an)" d="M10.4 71.1q-1-2.8-.5-5.85 1.85-3.35 4.65-3.35l-1.65 3.85 1.45-1.3.4 6.25-1.2-1.55.5 4.75q-2.75-.45-3.45-2.25l-.2-.55" transform="translate(79.4 74.5)"/><path fill-rule="evenodd" fill="url(#ao)" d="M3.05 61.35q4.2.9 3.95 8.1l-.75 1.5Q4.6 73.5 1.55 73.3l.2-6L.2 68.95l.9-4.4-1.4 1 3.35-4.2" transform="translate(79.4 74.5)"/><path fill-rule="evenodd" fill="url(#ap)" d="m-3.8 66.3.35-1.75q2.2-3.35 5-3.35l1.5.15-3.35 4.2 1.4-1-.9 4.4 1.55-1.65-.2 6-1.8-.1-1.4-4.8v4.4q-1.4-.6-1.75-1.85-.7-2.25-.4-4.65" transform="translate(79.4 74.5)"/><path fill-rule="evenodd" fill="#960" d="M-1.65 72.8v-4.4l1.4 4.8-1.4-.4" transform="translate(79.4 74.5)"/><path fill-rule="evenodd" fill="url(#aq)" d="m27.65 61.95.6-.05q5.2-.1 6.15 6.75l.15 1.5q-1.2 4.1-5.05 3.85l-1.05-.05-1.55-4.8 1.65 1.65-1.4-5.45-1.3 1.4 1.8-4.8" transform="translate(79.4 74.5)"/><path fill-rule="evenodd" fill="url(#ar)" d="M23.9 70.4q-.75-2.45-.3-5.15 1.65-3 4.05-3.3l-1.8 4.8 1.3-1.4 1.4 5.45-1.65-1.65 1.55 4.8q-3.4-.3-4.15-2.3l-.4-1.25" transform="translate(79.4 74.5)"/><path stroke-width=".05" stroke-opacity=".522" stroke-linejoin="round" stroke-linecap="round" stroke="#000" fill="none" d="m106.75 42.7.45-3.2.2-1.95q.8-8.55-.75-15.1-2.45-3.65-2.95 1-12.05-12.1-16.3-10.15-3.05 1.5 1.5 4.15-15.05-1.9-18.35 2.65-.25 1.7 3.75 1.8-2.35 3.85-3.65 8.15m49.45 3.05q-4.3 1.25-10.15 3.45m26.4 5.35-2.7-2.1q3.8 1.1 5.45-.75.6-.8-.5-1.65-1.1-.85-4-1.75l-5.05-1.35q3.35-.5 1.15-2.55-2.85-.85-10.6 1.35m25.65-4.05q-2.45.3-6.6 3.15l-4.55 3.45m17.8 2.6q-1.5-4.05-4.75-3.75 1.65-2 .6-4.75-.9-.9-2.5-.7m2.45 26.6.65-1.9q1.1-4.15.25-8.85-.5-2.65-1.65-5.5 3.05.2 4.95-1.15M138.5 48.3l-.1.05q1.1 2.15 1.8 4.25.6 2.1.8 4.15m-2.35-12.8q2.05 2.05 2.4 4.95.2 2.05-2.55-.6m-.75 4.65q1.45 2.85 1.75 6.65l1.05-.55.5.35-.05-2.65m-.95 8.35.4 1q1.45 2.9 1.3 5.2l-.3 1.5q-2.65 3.1-7.3 3.75h-2.35l-1.9.1-6.9-.5-.95-.9q-1.95-1.55-3.95-.95l-1.9-.4q-3.15-1.6-3.35-3.85.05-1.75.5-3.35.75-2.7 2.55-4.95l1.4-1.55q1.55-3.15 3.95-5.9-.45-3.35-3.7-7.1-7.6.9-11.4 6.95M84.8 67.25l.5.8q.8 2.3 1.1 4.45 2.9 2.15 3.7 5.35l-.8 5.3.85.65.15-.55 3.25-.7 3.05 1.7q2.55-2.1 6.6-1.1m10.65 6.45 1.5 1.5m7.65-1 4.5-1.2 1.85-.7.55-.2.05-.05q2.7-2.65 3.6-6.45.5 4.05-1.4 7 2.95.85 6.35 1.1m5.25.05 1.6-.15q7.1-1.1 11.95-5.5l1 .65-1.7-4.2h1.7l-.25-.3m-18-15.05-2.25-4.6-3.4-5.7-.9-1.35-1.5-2.15q-1.9-1.65-4.1-1.5-1.4.05-2.9.9l-2.95 2.8m22.05 8.45q7.55 6.65 11.65 15.35l2.3 2.85m-17-20.75 3.05 2.55q2.75-2.95 4.1-6.3m-26.95-1.35.8-.8m9.95-2.2q-.95-2.6 1.25-3.3m-5.35 1.8q.95-1.25 0-3.2M88.15 57.5q5.65-1.35 12.15-1l2.55.55m1.65.45q6.35 1.65 11.4 4.25m15.9 14.8 3.35-2.95-5.25 3.05m-7.85-1.4q-3.6-3.25-5.85-3.55-.85.5 1.9 2.6m8.45 29.4-6.25 1.35q-.45 1.15-1.45 2.2l.75.4 5.6 3.2 1.55-2.85.7-1.35 2.75-3.7 4.5-1 1.6-.35 4.25-4.35q-.55 2.7 1.1 1.95 1.55-2.1 1.95-6.1m-11.45-4.6q-.25-1.5-2.2-.55m-34 .05.3 1.6.7.05.6.15q1.5.4 3 1.8l.75 3.7 1.85-.05q1.75.25 3.5 1.9l1.2 6-1.5 1.8 2.15 1.25 2.2-2.15 3.8.7 4.35 2.5m1.45-2.2.35-2.2M101.3 95.3l-.45.1q-3.45 2.35-3.45 6.3v1q.15 4.5 1.95 8.65l.8 1.05.8 1.1 1.75-4.3.4-.4 5.6 4.45 9.1 7.25m-14.7-11.7 3.25-3.85m11.9 15.95 11.4 9.1.45.35 2.35-7.5-10.95-7.55m-6.75 15.9q.45-5.3 3.5-10.3m-12.35 2.75 5.25-.65m-28.7 12.85q4.2.9 3.95 8.1l-.75 1.5 4.15.15q-1-2.8-.5-5.85 1.85-3.35 4.65-3.35 5.75-.1 6.3 8.25l-.3.85q1.65 1.2 3.35-.6-.75-2.45-.3-5.15 1.65-3 4.05-3.3l.6-.05q5.2-.1 6.15 6.75 4-3.7.85-10.6m20.55-17.45.65 1.85 5.15 2.95.35.2.95 7.7-2.15 2.55q-4.3 3.35-10.05 0M126.75 108q8.05-.45 10.05 3.55 2.1 3.3-2.25 1.7l.65 1.85m-7.9-3 8.55 4.85m-6.2 13.05q-2.3 1.8-5.75.75v1.7q-.7 1.95-4.05 1.85l-5.1-3.1m17.7-8.35 3.75.9-1.95-2.25-12.75-6.2m3.7-4.45 2.1 1.25m16.45-22.45-.15 3.45m-7.25-51.2 2.3 2.05M141 119.9l-6.75 1.6m3.55-61 1.7-.9m-32.1-22.05 2.55-1M21.7.5q-9.4 9.15-.5 24.35l-3.85 1.45 4.7.7q9.85 15.75 22.8 20.4-1.7-3-5.1-6-.15-7.1 3.05-9.2l4.15-1.75.9 1.1 1.05-1.7 4.15 2.35 5.9 11.65.7-.3 2.35.9q4.25 10.5 12.95 19.5 4.3-3.45 8.35-5-8.2-2.45-14.2-10.45l-.3-4.6q-.2-7.45 1.85-13.85m-22.8 1.5 2.55 3.15-1.5-4.85m17 44.2q-7.25 5.55-18.45 8.05l-4.75-5.3 1.95 5.4Q6.35 80.25.7 34.75l7.55-2.25L.5 31.05Q-.2 6.25 21.7.5m38.5 61.65 6.85 10.25.55-.6q2.75-1.85 5.5-2.7-1-2.55 1.25-4.7l.1-.05.5-.4.15.15q2-.65 3.8-.5l2.05.4q1.75.8 3.05 2.25l.8 1m3.35-9.75-4.85 1.45m-25.05-14.8.7-.3m-.7.3-6.9-1.95-2.3.5q-2.8 1.15-2.8 5.15l5.2 1.15m23 15.35.65-.25m1.4 4.9.55.55-1.05.95 2.25.6 2.3.65 1.7 1.75.75.95q1.25 1.6 2.05 3.3l.65-.4.7-.4q.25-2.15 0-4.45m-13.3-3.4 2.85-.65.55.55m-7.15 15.15 1.4-.25-.1-1.9q.4-2.2 1.75-4v-2.55Q74 72.5 76 70.5m-9.8 11.75q-1-1.65-1.25-3.25l-1.1 1.6.7 3.75q3.3 2.7 6.6 3.25-.95 1.25 0 2.5 2.1 2.55 4.15 2.05l2.5 3.7.25.35q3.75 1.15 7.2-.5l2.25-1.85v-.05l-3.05-1.95v.4q-1.3 1.3-2.75 1.4-1.3.05-2.75-.8-1.55-2.1-1.95-4.2-1.1.6-2.3.4l-1.95-.75q-1.6-2.2-2-4.4m-4.55-1.65.7 1.1q1.25.75 2.45.8M64.95 79l-.15-1.95q.3-1.6 1.1-3l1.15-1.65m14.1 1.25-1.15.2q-3.4.75-6.55 2.9L72.4 78m9.85-4.5-1.1.15m-1.15.2-1.75-2.75m0 11.95V80.4q1.45-2.7 3.3-4.6L83 74.45m.9 4.6q-2.1.8-4.25 2.25l-1.4 1.75q-1.05 1.6-1.4 3.5l.15 2.1m7.45 3.2v-6.9q1.1-2.1 2.45-3.65l2.2-2.25-1.1-1.1q-2.05.25-4.1 1.1l-2.35-3.25m11.75 9.1-2.9-.05-.6.45q-2.55 2-2.55 5.25l.25 3.25m2.3-8.5.35-1.5m-.85-.65-2.4-1.85M46.25 47.85l-1.4-.45m11.8 62.4-2.45-2.25-2.65-1.95q1.95-3.3 7-3.25l1.95 1.45q2.1-1.05 3.45.2 3.3-2.4 7.1-2.65l4.35.35q.4-1.9 1.3-3.75l1.1-2.1m-25.15 26.3 2.05 1.5q3.9 3.35 4.45 4.95l2.55-.4 1.3-.2 1.1-1.15q.55-1.2-.1-3.2l-.25-.6q-.9-1.7-3.25-3.5l-1.45-1.1-1.8.1q-3.6.45-5.2 3.15l.6.45M63 118.2q.6-1.25-.1-3.25l-.25-.55q-.55-1.1-1.7-2.25l-3-2.4-1.3.05q-4 .35-5.7 3.2l2.65 1.95q2.5 2.15 3.65 3.6M95.95 88l-.3-1.55q-1.2-1.15-2.35-1.55m-3.1 15.95.3.35.95-2.35-.15-2.7q0-3.95 3.45-6.3l1.5-.25m-1.4 18.35 1.75-4.3.8-.95m-9.9-8.85q.4 2.75 1.55 5.4l1.15 1.6m1.25-2 .1.95q.45 3.1 1.7 6l1.6 2.15m-31 1.7-.15.9q-.35.85-1.2 1.35 3.8 1.5 3.55 3m-3.8-9.35q.9 1 1.25 2 .4 1.2.35 2.1m11.4-.95q-.4-2.1-.25-4.15l.4-2.85m-13.15 3.85q-.7-.85-1.75-1.75m17.65 22.85 3.75.1 1.1-2.25q1.45-2.6 3.3-4.2m-25.8-.75 1.4-.25.7-.55.4-.55m-.4.55q3.45 1 2.85 3.15m-4.5-9.75 1.55-.25m7.75 15.5-3.15 1.3q-.05 1.7-2.9 1.85l-2.5-2.35m18.5 2-1.55 2.7q-3.05.6-4.75 5.05-.1 2.45 1.7 2.85l.35-1.75q2.2-3.35 5-3.35l1.5.15m-1.5 11.95q3.05.2 4.7-2.35M80.2 130.2l1.7-3.45m-6.65-18.05.8 2.95m2.1 15q-4.05-.5-7.9.75m23.2 21 1.75.1q3.45.25 4.75-3m-6.5 2.9q-2.75-.45-3.45-2.25l-.2-.55m-12.05 1.7 1.4.4 1.8.1m-3.2-.5q-1.4-.6-1.75-1.85-.7-2.25-.4-4.65m38.2 2.35.15 1.5q-1.2 4.1-5.05 3.85l-1.05-.05q-3.4-.3-4.15-2.3l-.4-1.25"/><path stroke-opacity=".51" stroke-linejoin="round" stroke-linecap="round" stroke="#402c00" fill="none" d="M24.3-51.05Q12.25-63.15 8-61.2q-3.05 1.5 1.5 4.15-15.05-1.9-18.35 2.65-.25 1.7 3.75 1.8-2.35 3.85-3.65 8.15-2.05 6.4-1.85 13.85l.3 4.6q6 8 14.2 10.45-4.05 1.55-8.35 5l.15.15-.65.25.5-.4q-8.7-9-12.95-19.5l-2.35-.9-.7.3-5.9-11.65-4.15-2.35-1.05 1.7-.9-1.1-4.15 1.75q-3.2 2.1-3.05 9.2 3.4 3 5.1 6-12.95-4.65-22.8-20.4l-4.7-.7 3.85-1.45q-8.9-15.2.5-24.35-21.9 5.75-21.2 30.55l7.75 1.45-7.55 2.25q5.65 45.5 43.95 47.45l-1.95-5.4 4.75 5.3q11.2-2.5 18.45-8.05-.8 1.4-1.1 3l.15 1.95-1.1 1.6.7 3.75q3.3 2.7 6.6 3.25-.95 1.25 0 2.5 2.1 2.55 4.15 2.05l2.5 3.7-1.1 2.1Q-3.6 25.3-4 27.2l-4.35-.35q-3.8.25-7.1 2.65-1.35-1.25-3.45-.2l-1.95-1.45q-5.05-.05-7 3.25l2.65 1.95 2.45 2.25q-4 .35-5.7 3.2l2.65 1.95q2.5 2.15 3.65 3.6-3.6.45-5.2 3.15l2.65 1.95q3.9 3.35 4.45 4.95l2.55-.4 2.5 2.35q2.85-.15 2.9-1.85l3.15-1.3q3.85-1.25 7.9-.75l3.75.1L.8 55.7l-1.55 2.7q-3.05.6-4.75 5.05-.1 2.45 1.7 2.85-.3 2.4.4 4.65.35 1.25 1.75 1.85l1.4.4 1.8.1q3.05.2 4.7-2.35l4.15.15.2.55q.7 1.8 3.45 2.25l1.75.1q3.45.25 4.75-3 1.65 1.2 3.35-.6l.4 1.25q.75 2 4.15 2.3l1.05.05q3.85.25 5.05-3.85l-.15-1.5q4-3.7.85-10.6l.1-1.35 5.1 3.1q3.35.1 4.05-1.85v-1.7q3.45 1.05 5.75-.75l.45.35q5.75 3.35 10.05 0l2.15-2.55-.95-7.7-5.5-3.15-1.3-3.7q4.35 1.6 2.25-1.7-2-4-10.05-3.55l.7-1.35 2.75-3.7 6.1-1.35 4.25-4.35q-.55 2.7 1.1 1.95 1.55-2.1 1.95-6.1l.15-3.45 1.6-.15q7.1-1.1 11.95-5.5l1 .65-1.7-4.2h1.7L76.35 2.8q-4.1-8.7-11.65-15.35 2.75-2.95 4.1-6.3l.65-1.9q1.1-4.15.25-8.85-.5-2.65-1.65-5.5 3.05.2 4.95-1.15-1.5-4.05-4.75-3.75 1.65-2 .6-4.75-.9-.9-2.5-.7-2.45.3-6.6 3.15l-4.55 3.45-5.05-1.35q3.35-.5 1.15-2.55-2.85-.85-10.6 1.35-4.3 1.25-10.15 3.45l-2.55 1q.8-8.55-.75-15.1-2.45-3.65-2.95 1" transform="translate(79.4 74.5)"/><path stroke-width=".05" stroke-linejoin="round" stroke-linecap="round" stroke="#402c00" fill="none" d="m98.95 121.6-1.7-.1.85-.7.85.8"/></g><path fill-rule="evenodd" fill-opacity=".537" fill="#330" d="M40.3-46.2v3q-1.65 3.3-3.3 2v-2l-2.8-2q4.15-2.85 6.6-3.15l-.5 2.15M29.9-31.4q1.15-1.5-1-3l1.65-.7 1 1.6 1.85 2.55.85 2.45-.7-.6-.3-.3.2.35 1.8 4.25-2.45.35q-1.6-3.05-4.5-4.95l1.6-2m8.1-1.1 1.7.9 3.3-1.25 1.15.35q.85 4.7-.25 8.85L41.3-27l-2.4-1.65q-.1-2-.9-3.85m-22.9-7.1q2.05 2.8.8 3.6l-2 1.8-3.8-.8q-2.3-2-2-4L5-40.85q5.85-2.2 10.15-3.45l1 2.75-1.05 1.95M1.2-23.25q-.95 1.5-1.65 3.35l-1.65-.45L-3.7-22l-3.6-1q-3.75-1.6-2.8-7.1l1-1.75 5.2 1.65q3.45 1.6 4.4 3.8l.7 3.15M22.3 22.4l4.4-2.4 3.05 1v3.55L21.6 26.3q-1.85-1.95.7-3.9m11.25-10.2 5.25.05-.15 3.45L34.9 17l-2.8-2.2 1.45-2.6M20.4 18.75l-2.3 2.05q-3.35 2.2-5.2 0l.3-2.5-.05-.7q-.4-1.7-2.75-3.9l7.65-1q3.8.7 3.25 2.9l-.9 3.15M6.7 48.8q-1.9-.95-.5-3.2l3.6-1.1 3.05-1.4.45.4q-3.05 5-3.5 10.3l-.1 1.35q-8.35-.3-4.8-2.95 3.7-1.7 1.8-3.4m0-36.4-1.4 2.4-2.8.8-2.6-3V7.8l-1.65-2.05Q4.65 8.1 8.9 12.2l-2.2.2M-8.7-50.8l-.8 3.4-1.45 1.8-.35-.55q-2.75-.8-5.25.5l2.65-3.55-.05-5.6q2.35-1.55 4.05 1l1.2 3m-15.6 13.2q.3 3.55-2.05 5.75l-2.95 1.45q-4.95-1.2-6.85-3.1-.2-7.45 1.85-13.85 3.95.1 6 2.75l4 7m-13.4 66.2h-3.6l-1.4-.45q-.7-.85-1.75-1.75 2.1-1.05 3.45.2 3.3-2.4 7.1-2.65l2 3.05-2 2.6-3.8-1m10.4 19 .5 1.65q-4.05-.5-7.9.75l.6-3.2 1.4-1.8 3.8.6 1.6 2m21.4 1.2q-3.1-2.35-1.8-4.7l.85-.7 2.95-1.2h3.6l1.25 4.05h-1.5l-.95 1.15-4.4 1.4m-17.15.55 1.1-2.25 4.25-.9 3.4 2.6q1.2 2.8-.8 4.8-1.8 1.9-5.55 1.85l-4.1-2.65 1.7-3.45" transform="translate(44.45 55.4)" id="as"/><path fill-rule="evenodd" fill-opacity="0" fill="#f0f" d="M102.95 45H0V0h102.95v45" id="at"/><use xlink:href="#as" width="88.95" height="110.85" id="b"/><use xlink:href="#at" width="102.95" height="45" id="aw"/></defs><path fill="none" d="M-1-1h165v155H-1z"/><g><use x="102.05" y="156.5" xlink:href="#au" width="381" transform="translate(-192.55 -294)" height="381"/><use x="102.05" y="156.5" xlink:href="#av" width="158.8" transform="translate(-100.45 -154.5)" height="149"/><use x="-49.801" y="-82.84" xlink:href="#aw" width="102.95" transform="matrix(1.8072 0 0 1.6538 96 166.6)" height="45"/></g></svg>