<svg width="133" height="178" xmlns="http://www.w3.org/2000/svg" xmlns:xlink="http://www.w3.org/1999/xlink"><defs><linearGradient y2="1.766" y1="-.207" x2="1.9" x1="-.781" spreadMethod="pad" id="a"><stop stop-color="#c30" offset=".188"/><stop stop-color="#fc3" offset=".565"/><stop stop-color="#ff9" offset=".745"/><stop stop-color="#fff" offset=".973"/></linearGradient><linearGradient y2=".476" y1=".476" x2="2.462" x1="-1.335" spreadMethod="pad" id="b"><stop stop-color="#c30" offset=".188"/><stop stop-color="#fc3" offset=".565"/><stop stop-color="#ff9" offset=".745"/><stop stop-color="#fff" offset=".973"/></linearGradient><linearGradient y2=".212" y1=".788" x2="2.541" x1="-1.541" spreadMethod="pad" id="c"><stop stop-color="#c30" offset=".188"/><stop stop-color="#fc3" offset=".565"/><stop stop-color="#ff9" offset=".745"/><stop stop-color="#fff" offset=".973"/></linearGradient><linearGradient y2="1.521" y1="-.159" x2="1.013" x1=".122" spreadMethod="pad" id="d"><stop offset="0"/><stop stop-color="#960" offset=".698"/><stop stop-color="#fc3" offset=".902"/><stop stop-color="#fff" offset=".973"/></linearGradient><linearGradient y2="-1.474" y1="1.493" x2="-2.519" x1="2.071" spreadMethod="pad" id="e"><stop offset="0"/><stop stop-color="#e07a47" offset=".047"/><stop stop-color="#fc3" offset=".071"/><stop stop-color="#fff" offset=".384"/><stop stop-color="#fff" offset=".973"/></linearGradient><linearGradient y2="3.943" y1="-1.306" x2="-1.192" x1="1.236" spreadMethod="pad" id="f"><stop offset="0"/><stop stop-color="#e07a47" offset=".047"/><stop stop-color="#fc3" offset=".071"/><stop stop-color="#fff" offset=".384"/><stop stop-color="#fff" offset=".973"/></linearGradient><linearGradient y2="-2.402" y1="2.015" x2="-.776" x1="1.142" spreadMethod="pad" id="g"><stop offset="0"/><stop stop-color="#e07a47" offset=".047"/><stop stop-color="#fc3" offset=".071"/><stop stop-color="#fff" offset=".384"/><stop stop-color="#fff" offset=".973"/></linearGradient><linearGradient y2="-2.423" y1="2.216" x2="5.595" x1="-1.294" spreadMethod="pad" id="h"><stop offset="0"/><stop stop-color="#e07a47" offset=".047"/><stop stop-color="#fc3" offset=".071"/><stop stop-color="#fff" offset=".384"/><stop stop-color="#fff" offset=".973"/></linearGradient><linearGradient y2="2.542" y1="-1.076" x2="2.113" x1="-.413" spreadMethod="pad" id="i"><stop stop-color="#900" offset="0"/><stop stop-color="#c63" offset=".443"/><stop stop-color="#f96" offset=".753"/><stop stop-color="#fc3" offset=".898"/></linearGradient><linearGradient y2="2.966" y1="-1.026" x2=".977" x1=".261" spreadMethod="pad" id="j"><stop offset="0"/><stop stop-color="#e07a47" offset=".047"/><stop stop-color="#fc3" offset=".071"/><stop stop-color="#fff" offset=".384"/><stop stop-color="#fff" offset=".973"/></linearGradient><linearGradient y2="-2.736" y1="3.736" x2="-.441" x1="1.441" spreadMethod="pad" id="k"><stop stop-color="#c30" offset=".188"/><stop stop-color="#fc3" offset=".565"/><stop stop-color="#ff9" offset=".745"/><stop stop-color="#fff" offset=".973"/></linearGradient><linearGradient y2="-1.408" y1="2.408" x2=".5" x1=".5" spreadMethod="pad" id="l"><stop stop-color="#c30" offset=".188"/><stop stop-color="#fc3" offset=".565"/><stop stop-color="#ff9" offset=".745"/><stop stop-color="#fff" offset=".973"/></linearGradient><linearGradient y2=".082" y1="1.61" x2="-3.1" x1="2.112" spreadMethod="pad" id="m"><stop offset="0"/><stop stop-color="#e07a47" offset=".047"/><stop stop-color="#fc3" offset=".071"/><stop stop-color="#fff" offset=".384"/><stop stop-color="#fff" offset=".973"/></linearGradient><linearGradient y2="-3.095" y1="2.489" x2="2.839" x1="-.978" spreadMethod="pad" id="n"><stop offset="0"/><stop stop-color="#e07a47" offset=".047"/><stop stop-color="#fc3" offset=".071"/><stop stop-color="#fff" offset=".384"/><stop stop-color="#fff" offset=".973"/></linearGradient><linearGradient y2="-2.866" y1="2.146" x2="-1.804" x1="1.542" spreadMethod="pad" id="o"><stop offset="0"/><stop stop-color="#e07a47" offset=".047"/><stop stop-color="#fc3" offset=".071"/><stop stop-color="#fff" offset=".384"/><stop stop-color="#fff" offset=".973"/></linearGradient><linearGradient y2="-1.732" y1="2.791" x2=".751" x1=".257" spreadMethod="pad" id="p"><stop stop-color="#c30" offset=".188"/><stop stop-color="#fc3" offset=".565"/><stop stop-color="#ff9" offset=".745"/><stop stop-color="#fff" offset=".973"/></linearGradient><linearGradient y2="-1.233" y1="1.939" x2="1.112" x1="-.095" spreadMethod="pad" id="q"><stop stop-color="#c30" offset=".188"/><stop stop-color="#fc3" offset=".565"/><stop stop-color="#ff9" offset=".745"/><stop stop-color="#fff" offset=".973"/></linearGradient><linearGradient y2=".399" y1=".399" x2="3.854" x1="-1.503" spreadMethod="pad" id="r"><stop offset="0"/><stop stop-color="#e07a47" offset=".047"/><stop stop-color="#fc3" offset=".071"/><stop stop-color="#fff" offset=".384"/><stop stop-color="#fff" offset=".973"/></linearGradient><path fill-rule="evenodd" fill-opacity="0" fill="#f0f" d="M0 0h102.95v45H0V0" id="s"/><use xlink:href="#s" width="102.95" height="45" id="u"/><g id="t"><path stroke-opacity="0" stroke-linejoin="round" stroke-linecap="round" stroke="#f0f" fill="none" d="M187.95-293.5v380h-380v-380h380M92.95.6H-97" transform="translate(192.55 294)"/><path stroke-opacity="0" stroke-linejoin="round" stroke-linecap="round" stroke="#f0f" fill="none" d="m187.95-293.5-190 190 190 190m-380-380 190 190L-192 86.5" transform="translate(192.55 294)"/><path stroke-width="2" stroke-opacity=".6" stroke-linejoin="round" stroke-linecap="round" stroke="#000" fill="none" d="M125.05 127.6q3.3 1.6 5.1 7.2l.3.9-.2-.85q-.85-4.05 1.05-5.35l.7-1.2.1-.1q2-2.65 5-1.65 7.8-.2 13.35 4.9 3 2.25 3.65 5.3l.25.75 5.7-.5 4.3.35.15.05q4.65.7 9.5 2.95l.2.05q2.5 1.15 5.15 2.75l.4.2q2.05.9 3.8 2.1 3.9 2.75 6.15 6.95 1.4 2.7 2.1 6.05 1.3 5.05-4.15 15.85l-.1.15q-.5 1 .6 1.3 5.85 1.35 9.85 3.55l.9.5.75.5 2.45 1.95 2 2.25.15.1.05.05.1.05.2.2 1.6 2.2q2.1 3.7.95 8.15l.05.25-.1.3q-2.95 7.3-11.2 10.9-3.35 1.4-7.5 2.25l-.2.05-.75.15-6.5 1.05-8.65.35q1.25 3.2-5.35 5.55 3.1 3.5-1.5 6-4.1 3.25-9.05 4.2l.85 1.1q3.75 5.7 5.3 13.2l.45 2.7q9.75.35 12.95 2.55-.4 4.45-7.2 13 5.35 9.35 12.7 15.25l2.65 1.9q3.05-5.75 5.95-5.8 1 .65 1.45 2 1.15 3.6-1.75 12.25l2.75-2.3q4.6-3.2 6 .6l-.2 12.8h-68.1v-1.5q-11.65-8.15-10.25-10.65l.9-.7.45-.05q3.6-.15 11.6 5v-.5q-.35-5.3.95-5.7 1.45-.45 4.9 5.25l1-2q-1.8-9.3 3-16.2-3.85-4.9-4.8-16.4 6.7.35 14.25 4.85 3.15-7 2-16.35l-.25-1.75-.8-3.15q-7.5-.05-7.2-1.1 1.2-3 5.1-6l-.65-1.95v-.1l-.2.05-10.45-2.35q-2.9 6.7-13.9 5.1-11.05-1.65-13.4-7-5.4-6.35-.45-13.6-2.2 1.4-5.35 2.65l-.3.15q-4.75 2.15-14.15-3.2-3.6-4.9-6.5-16.25-.2-7.25 7.25-14.45-7.4-.8-11-5.3-1.4-17.65 2-23.55l.65-1q7.45-4.6 14-4.25-.55-3-.05-5.2.2-1.1.75-2 4.3-8.05 16.95-10.25 5.8-.5 8.8 1.5z"/><path fill-rule="evenodd" fill="#ffe76a" d="M-60.45-165.8q2-2.65 5-1.65 7.8-.2 13.35 4.9 3 2.25 3.65 5.3l.25.75-2.7.65q-1.2-5.1-4.7-7.05-7.8-3.75-14.85-2.9m-48.15 20.6.65-1q7.45-4.6 14-4.25l.4.05 3.95.75q10.15 3.35 15.4 11.6l-.6 1.2q-17.35-17.5-33.8-8.35m14.6-10.45q.2-1.1.75-2 4.3-8.05 16.95-10.25 5.8-.5 8.8 1.5 3.3 1.6 5.1 7.2l-4.95-3.7q-4.8-3.35-14-1.5-9.75 4.4-12.65 8.75" transform="translate(192.55 294)"/><path fill-rule="evenodd" fill="url(#a)" d="M-93.95-150.45q-.55-3-.05-5.2 2.9-4.35 12.65-8.75 9.2-1.85 14 1.5l4.95 3.7.3.9-.2-.85q-.85-4.05 1.05-5.35l.7-1.2.1-.1q7.05-.85 14.85 2.9 3.5 1.95 4.7 7.05-2.3.65-4.5 1.7l-4.65 1.85q-3.7 1.7-6.6 4.1l-.6.5q-10.85.45-16.25 8.4l-.7 1.25q-5.25-8.25-15.4-11.6l-3.95-.75-.4-.05" transform="translate(192.55 294)"/><path fill-rule="evenodd" fill="#d6976f" d="M-62.65-144.5q-2.05.05-4.95 1.85l-7.45 6.25.25-.45.6-1.2.7-1.25q5.4-7.95 16.25-8.4l-3.6 3.6-1.8-.4" transform="translate(192.55 294)"/><path fill-rule="evenodd" fill="#b94020" d="m-75.05-136.4 7.45-6.25q2.9-1.8 4.95-1.85-3 1.5-5.95 8.35-2.55 7.4-2.25 25.5 1.05 6.4 6.75 16.75 2.35 4.35 8.25 8.25l-3.5 1.75q-1.7 2.15 1.4 3.3l2.85.2 1.75 1.45h-.4q-13.65-.05-20-7.75l-2.4-3q-5.4-6.9-8.7-13.1-3.25-6.1 1.05-16.55l2.5-5.25 6.25-11.8m45.6 54.4-.2.05q-3.6 1.3-8.2 2.05l2-2.5 7.85-.2-1.45.6" transform="translate(192.55 294)"/><path fill-rule="evenodd" fill="#99992f" d="m-38.2-156.5 5.7-.5 4.3.35.15.05q4.65.7 9.5 2.95l.2.05q2.5 1.15 5.15 2.75l.4.2q2.05.9 3.8 2.1 3.9 2.75 6.15 6.95 1.4 2.7 2.1 6.05 1.3 5.05-4.15 15.85l-.1.15q-.5 1 .6 1.3 6 1.35 10 3.65 3.9 2.15 5.95 5.15l.3.15.2.2 1.6 2.2q2.1 3.7.95 8.15l.05.25-.1.3q-2.95 7.3-11.2 10.9-3.35 1.4-7.5 2.25l-.2.05-.75.15-6.5 1.05-8.65.35-5.25-.45-9.6-2.65-.8-.2-.9-.05-.25-.05-1.25-.35q-2.7-.8-5.2-1.7-12.75-4.75-19.9-13.1l-.8-1-.05-.05q-3.75-3.95-3.9-13.3-.15-6.4 1.4-15.25l.4-2.05.05-.4q1.9-5.75 5.45-10.05l3.6-3.6.6-.5q2.9-2.4 6.6-4.1l4.65-1.85q2.2-1.05 4.5-1.7l2.7-.65m-16.65 49.95q4.55 5.55 7.65 7.45 2.55 1.5 5.25 2.75 3.85 1.7 8.1 2.8l1.4.35q5.4 1.25 11.35 1.55l2.1.1.85-.1 4.45-.55 5.2-1.2q3.95-1.2 6.85-3.1 3.4-2.3 5.35-5.5l1.25-1.7.95-3.1.1-2.45q-.05-2.05-.6-2.8l-1.85-2.1Q2.1-115.3 0-115.95l-5.75-2.25.65-2.75q1.9-7.7 1-8.75-.75-3.35-1.6-5.55-.7-1.9-1.55-2.95-1.55-2.35-3.3-4.1-2.6-2.55-5.7-3.9-7.45-1.8-12.6-1.6l-4.4.6q-4.65 1.7-7.95 3.5-3.9 2-6.05 4.15-4.8 6.3-7 11.3l-1.35 3.95q-.7 4.75-.65 8.85.1 4.7 1.25 8.45v.25l.15.2m-.3 17.1q2.45.7 5.3 3l.1.1.1-.1q2.25-2.4 3.4-2.45l-1.1 3.25 2 1.5 2.7 6.35q5.05 11.6 10.05 19.9l2.7 12.1 4.8 15.4 13.5 14.5-2.25 2q-2.2-1.4-3.5-.25l-1.7 3.45-.45-.2q-1.15-.35-2.9.75l-4.6-11.6q1.05-.65 2.05-1.35h.05l-5.75-9.65-1.95-8.8-.2 2.15-.3 2.45-4.05 5.4 4.05-5.4.3-2.45.8 7.35q2.1 6.05 3.4 8l-4.65.5q-3.45.75-5.1 2.4l-.5-3.15 1.7-7.25-3.45 4.5 5.7-18.3-2.6-13.7-8.35-21.25-.05-.45 3.65 5.55q2.45 8.75 5.75 11.5 4.15 7.85 4.15 20.75 0-12.9-4.15-20.75-3.3-2.75-5.75-11.5l-3.65-5.55-.35-2.45-2.5-.75-6.4-5.5m18.05 2.8q-.3 1-4.25 2.75 3.2.5 3.5 1.75-1.05.9-4.75 1.2l-.35-1.05.35 1.05-.35-1.05-.7-2q-1.5-2 5.05-2.95l1.5.3m10.9 79.8-1.4 1.5-.95 1.1-.45-.7-3.35-1.5-.9-1.75 7.05 1.35" transform="translate(192.55 294)"/><path fill-rule="evenodd" fill="#8d3018" d="m-62.65-144.5 1.8.4q-3.55 4.3-5.45 10.05l-.05.4-.4 2.05q-1.55 8.85-1.4 15.25.15 9.35 3.9 13.3l.05.05.8 1q7.15 8.35 19.9 13.1 2.5.9 5.2 1.7l-.3.25-7.75.3q.8-1.7.25-2.25h-.15q-1.15.05-3.4 2.45l-.1.1-.1-.1q-2.85-2.3-5.3-3l-.65-.15-.3-.05q.9 3.35 4.5 5.5-4 .15-5 1.75 2.5 1 6.5.05-1.65 1.6-2.5 1.45l1.75.45.75.15 2.5-.3h.1l.7 1.5-2.3.05h-1.05l-.45.05-2.75.05-1.75-1.45-2.85-.2q-3.1-1.15-1.4-3.3l3.5-1.75q-5.9-3.9-8.25-8.25-5.7-10.35-6.75-16.75-.3-18.1 2.25-25.5 2.95-6.85 5.95-8.35m25.6 57.65.25.05.9.05.8.2 9.6 2.65-1.75.95-.75.35-7.85.2-2 2.5-4.2.5-.3-.75-.05-.25-.2-.55q3.7-.3 4.75-1.2-.3-1.25-3.5-1.75 3.95-1.75 4.25-2.75l.05-.2" transform="translate(192.55 294)"/><path fill-rule="evenodd" fill="url(#b)" d="M-99.6-116.35q-7.4-.8-11-5.3-1.4-17.65 2-23.55 16.45-9.15 33.8 8.35l-.25.45-6.25 11.8-2.5 5.25-14.8 3.45q-.5-.25-1-.45" transform="translate(192.55 294)"/><path fill-rule="evenodd" fill="url(#c)" d="M-80.55-85.25q-2.2 1.4-5.35 2.65l-.3.15q-4.75 2.15-14.15-3.2-3.6-4.9-6.5-16.25-.2-7.25 7.25-14.45.5.2 1 .45l14.8-3.45q-4.3 10.45-1.05 16.55 3.3 6.2 8.7 13.1-1.15 2.35-4.4 4.45" transform="translate(192.55 294)"/><path fill-rule="evenodd" fill="url(#d)" d="M-47.65-103.1q-3.25-1.95-6.15-4.4-.3-3.65.1-7.35.35-3.15 1.25-6.3 3.15 2.3 11.6-.25-3.5-7.2-7.9-9.15 1.3-2.55 3.4-4.95 1.85-2.45 4.25-4.15 3.15 4.5 7.8 7.7 3.1 1.7 5.3-3.7 1.35-5.35.5-8.8 5.75-.15 11.9 2.8l.85.5q-1.15.95-1.85 6.75.5 6.25 4.75 3.5 3.6-2.5 3.5-3.15l.35.7q1.5 3.25 2.05 7.55l-.1.9q-.65 5.4-1.8 6.6v.05q-8.8-2.25-12.25 1.75-9.5-.75-17.9 6.4-2.05-2.25-4.1-2.8-5.95 6.95-5.55 9.8" transform="translate(192.55 294)"/><path fill-rule="evenodd" fill="#70701f" d="m-11.1-19.9 2.65 1.9q-1.85 3.35-3.7 8.6-2.35-4.55-4.7 1.5l-.4 1-.55-1.55-.1-.3-.05-.15q-.3-1.1-.85-1.6l-.25-.2 1.7-3.45q1.3-1.15 3.5.25l2.25-2 .5-4M-52.8-9.3q-1.8-9.3 3-16.2l1.45-1.85q5.4-4.1 8-9.7 3.15-7 2-16.35l-.25-1.75-.8-3.15-2.1-7.1-.65-1.95v-.1q-2.1-6.15-4.65-11.65l-.7-1.5h-.1l-2.5.3-.75-.15-1.75-.45q.85.15 2.5-1.45-4 .95-6.5-.05 1-1.6 5-1.75-3.6-2.15-4.5-5.5l.3.05.65.15 6.4 5.5 2.5.75.35 2.45.05.45 8.35 21.25 2.6 13.7-5.7 18.3 3.45-4.5-1.7 7.25.5 3.15q1.65-1.65 5.1-2.4l4.65-.5q-1.3-1.95-3.4-8l-.8-7.35.2-2.15 1.95 8.8 5.75 9.65h-.05q-1 .7-2.05 1.35l-.35-.9q-8.9-.3-10.7 3.6l-.1.3q-1.05 2.65 1.05 7.1l13.85 2.1-2.95 2.7-7.05-1.35.9 1.75 3.35 1.5.45.7-1.35 1.6-.35.45-.5.6-.75-2.1q-2.05-4.5-5.15 0l-.55.85q-.85-3.2-2.65-5.95l-1.55-2.1-1.4-1.45q-3.6-3.05-5 .6-1.1 2.95-.85 10.2l-1.3-1.75q-.85-.95-1.5-1.1l-1.35-4.9m.35-111.85q-.9 3.15-1.25 6.3-.4 3.7-.1 7.35 2.9 2.45 6.15 4.4 3.7 2.2 7.8 3.75 3.35 1.3 6.95 2.15l.75.2q5.05 1.1 10.6 1.35l2.1.1.85-.1 2.7-.3q3.8-.5 6.95-1.45 2.35-.75 4.35-1.7 6-2.95 8.55-8.3l.25-.5v-.05l.1-1.05q-.1-2.3-2.35-3.95-2.6-1.9-8.05-2.95-1.7-.95-1.75-2.35v-.05q1.15-1.2 1.8-6.6l.1-.9q-.55-4.3-2.05-7.55l-.35-.7q-1.6-3.15-4.05-5.35l-2.35-1.75-.85-.5q-6.15-2.95-11.9-2.8l-1.65.1q-5.55.5-10.8 3.9l-1.15.8q-2.4 1.7-4.25 4.15-2.1 2.4-3.4 4.95l-1.9 4.15q-1.1 2.65-1.8 5.25M-55-107q-1.15-3.75-1.25-8.45-.05-4.1.65-8.85l1.35-3.95q2.2-5 7-11.3 2.15-2.15 6.05-4.15 3.3-1.8 7.95-3.5l4.4-.6q5.15-.2 12.6 1.6 3.1 1.35 5.7 3.9 1.75 1.75 3.3 4.1.85 1.05 1.55 2.95.85 2.2 1.6 5.55.9 1.05-1 8.75l-.65 2.75L0-115.95q2.1.65 3.55 1.8l1.85 2.1q.55.75.6 2.8l-.1 2.45-.95 3.1L3.7-102q-1.95 3.2-5.35 5.5-2.9 1.9-6.85 3.1l-5.2 1.2-4.45.55-.85.1-2.1-.1q-5.95-.3-11.35-1.55l-1.4-.35q-4.25-1.1-8.1-2.8-2.7-1.25-5.25-2.75-3.1-1.9-7.65-7.45l-.15-.2v-.25m7.4 26.4-.75-.8.75.8" transform="translate(192.55 294)"/><path fill-rule="evenodd" fill="url(#e)" d="M-48.75-130.55q4.4 1.95 7.9 9.15-8.45 2.55-11.6.25.7-2.6 1.8-5.25l1.9-4.15" transform="translate(192.55 294)"/><path fill-rule="evenodd" fill="url(#f)" d="M-47.65-103.1q-.4-2.85 5.55-9.8 2.05.55 4.1 2.8l1.25 1.55q3.55 4.95 3.85 11.35-3.6-.85-6.95-2.15-4.1-1.55-7.8-3.75" transform="translate(192.55 294)"/><path fill-rule="evenodd" fill="#c4c475" d="m-36.15-67.7.85 1.1q3.75 5.7 5.3 13.2l.45 2.7q.3 2.05.45 4.2 2.35 6.2 5.3 11.35 5.35 9.35 12.7 15.25l-.5 4-13.5-14.5-4.8-15.4-2.7-12.1q-5-8.3-10.05-19.9l-2.7-6.35-2-1.5 1.1-3.25h.15q.55.55-.25 2.25l7.75-.3q-6.55.95-5.05 2.95l.7 2 .35 1.05.2.55.05.25.3.75q2.75 7.6 5.9 11.7" transform="translate(192.55 294)"/><path fill-rule="evenodd" fill="url(#g)" d="M-27.5-144.45q.85 3.45-.5 8.8-2.2 5.4-5.3 3.7-4.65-3.2-7.8-7.7l1.15-.8q5.25-3.4 10.8-3.9l1.65-.1" transform="translate(192.55 294)"/><path fill-rule="evenodd" fill="url(#h)" d="M-8.35-134.05q.1.65-3.5 3.15-4.25 2.75-4.75-3.5.7-5.8 1.85-6.75l2.35 1.75q2.45 2.2 4.05 5.35" transform="translate(192.55 294)"/><path fill-rule="evenodd" fill="url(#i)" d="M-38-110.1q8.4-7.15 17.9-6.4 3.45-4 12.25-1.75.05 1.4 1.75 2.35 5.45 1.05 8.05 2.95Q4.2-111.3 4.3-109l-.1 1.05v.05l-.25.5q-2.55 5.35-8.55 8.3-2 .95-4.35 1.7-.95-2.55-4.15-5.4-2.1-2.6-4.75-2.6-3.5 5.95-3.7 9.75-5.55-.25-10.6-1.35l-.75-.2q-.3-6.4-3.85-11.35L-38-110.1m25.25-4.7q-3.75-1.4-7.35-1.7 3.6.3 7.35 1.7" transform="translate(192.55 294)"/><path fill-rule="evenodd" fill="url(#j)" d="M-21.55-95.65q.2-3.8 3.7-9.75 2.65 0 4.75 2.6 3.2 2.85 4.15 5.4-3.15.95-6.95 1.45l-2.7.3-.85.1-2.1-.1" transform="translate(192.55 294)"/><path fill-rule="evenodd" fill="url(#k)" d="M-20.25-83.45q1.25 3.2-5.35 5.55l-3.85-4.1 1.45-.6.75-.35 1.75-.95 5.25.45" transform="translate(192.55 294)"/><path fill-rule="evenodd" fill="url(#l)" d="M-25.6-77.9q3.1 3.5-1.5 6-4.1 3.25-9.05 4.2-3.15-4.1-5.9-11.7l4.2-.5q4.6-.75 8.2-2.05l.2-.05 3.85 4.1" transform="translate(192.55 294)"/><path fill-rule="evenodd" fill="url(#m)" d="M-29.55-50.7q9.75.35 12.95 2.55-.4 4.45-7.2 13-2.95-5.15-5.3-11.35-.15-2.15-.45-4.2" transform="translate(192.55 294)"/><path fill-rule="evenodd" fill="url(#n)" d="M-39.4-58.3q-7.5-.05-7.2-1.1 1.2-3 5.1-6l2.1 7.1" transform="translate(192.55 294)"/><path fill-rule="evenodd" fill="#cfcf00" d="M-8.45-18q3.05-5.75 5.95-5.8 1 .65 1.45 2-2.85.1-5.9 5.8-1.85 3.35-3.7 8.6l-.6-1.05-.75-.7-.15-.25-.05.15q-1.8-.8-3.55 4.35l-.55-1.55-.1-.3-.45-1.15q2.35-6.05 4.7-1.5 1.85-5.25 3.7-8.6m8.4 6.15q4.6-3.2 6 .6l-.05.15q-2.3-1-7.2 3.55l1.25-4.3m-59.9 13.4h-2.4V.05Q-74-8.1-72.6-10.6l.9-.7.45-.05q2.3 4.5 10.4 8.95l.9 3.95m.3-8.4q-.35-5.3.95-5.7 1.25 2.4.6 7.65l-1.55-1.95m37.25-3.3q1.75-1.1 2.9-.75-8.3 7.1-10.1 11l-1.85-.6-.1.1-.45.55q-.75-2.5-1.65-3.55l-2.95-.1-.6.65.55-.85q3.1-4.5 5.15 0l.75 2.1.5-.6.35-.45 1.35-1.6.95-1.1 1.4-1.5 2.95-2.7 1.15.15-.3-.75m-25.4-1.6q1.4-3.65 5-.6l1.4 1.45 1.55 2.1q1.8 2.75 2.65 5.95l-1.25 1.75q-1.15-4.45-4.2-8.05l-1.4-1.45-1.1-.8q-1.6-1-2.65-.35m-3.65 7.35q.65.15 1.5 1.1v.9l.05 2.6-1.3-1.75q-.85-.95-1.5-1.1l-.25-.05q.45-1.95 1.5-1.7" transform="translate(192.55 294)"/><path fill-rule="evenodd" fill="#a3a30c" d="M-1.05-21.8Q.1-18.2-2.8-9.55l2.75-2.3-1.25 4.3q4.9-4.55 7.2-3.55l.05-.15-.2 12.8h-65.7l-.9-3.95q-8.1-4.45-10.4-8.95 3.6-.15 11.6 5v-.5l1.55 1.95q.65-5.25-.6-7.65 1.45-.45 4.9 5.25l1-2 1.35 4.9q-1.05-.25-1.5 1.7l.25.05q.65.15 1.5 1.1L-49.9.2l-.05-2.6v-.9l1.3 1.75q-.25-7.25.85-10.2 1.05-.65 2.65.35l1.1.8 1.4 1.45q3.05 3.6 4.2 8.05l1.25-1.75.6-.65 2.95.1q.9 1.05 1.65 3.55l.45-.55.1-.1 1.85.6q1.8-3.9 10.1-11l.45.2.25.2q.55.5.85 1.6l.05.15.1.3.55 1.55.4-1 .45 1.15.1.3.55 1.55q1.75-5.15 3.55-4.35l.05-.15.15.25.75.7.6 1.05q1.85-5.25 3.7-8.6 3.05-5.7 5.9-5.8M-36.75-.3l-.45-2.55.45 2.55m19.25.35q1.25-3.4.25-6.95 1 3.55-.25 6.95M-52.95-2.7q-.4 1.5-.4 4.25 0-2.75.4-4.25M-47.3.2l-1.2-1.55-.15-.2.15.2L-47.3.2m-6.2-7-.3-.5.3.5m-6.15.45.05.8-.05-.8" transform="translate(192.55 294)"/><path fill-rule="evenodd" fill="url(#o)" d="m-27-21.75 4.6 11.6.3.75-1.15-.15-13.85-2.1q-2.1-4.45-1.05-7.1l.1-.3q1.8-3.9 10.7-3.6l.35.9" transform="translate(192.55 294)"/><path fill-rule="evenodd" fill="url(#p)" d="m-42.35-67.4-10.45-2.35v-.05l-.95-9.15h.4l2.75-.05.45-.05h1.05l2.3-.05q2.55 5.5 4.65 11.65l-.2.05" transform="translate(192.55 294)"/><path fill-rule="evenodd" fill="url(#q)" d="M-52.8-69.75q-2.9 6.7-13.9 5.1-11.05-1.65-13.4-7-5.4-6.35-.45-13.6 3.25-2.1 4.4-4.45l2.4 3q6.35 7.7 20 7.75l.95 9.15v.05" transform="translate(192.55 294)"/><path fill-rule="evenodd" fill="url(#r)" d="M-49.8-25.5q-3.85-4.9-4.8-16.4 6.7.35 14.25 4.85-2.6 5.6-8 9.7l-1.45 1.85" transform="translate(192.55 294)"/><path stroke-width=".25" stroke-opacity=".302" stroke-linejoin="round" stroke-linecap="round" stroke="#000" fill="none" d="M132.1 128.2q2-2.65 5-1.65 7.8-.2 13.35 4.9 3 2.25 3.65 5.3l.25.75 5.7-.5 4.3.35.15.05q4.65.7 9.5 2.95l.2.05q2.5 1.15 5.15 2.75l.4.2q2.05.9 3.8 2.1 3.9 2.75 6.15 6.95 1.4 2.7 2.1 6.05 1.3 5.05-4.15 15.85l-.1.15q-.5 1 .6 1.3 6 1.35 10 3.65 3.9 2.15 5.95 5.15l.3.15.2.2 1.6 2.2q2.1 3.7.95 8.15l.05.25-.1.3q-2.95 7.3-11.2 10.9-3.35 1.4-7.5 2.25l-.2.05-.75.15-6.5 1.05-8.65.35q1.25 3.2-5.35 5.55 3.1 3.5-1.5 6-4.1 3.25-9.05 4.2l.85 1.1q3.75 5.7 5.3 13.2l.45 2.7q9.75.35 12.95 2.55-.4 4.45-7.2 13 5.35 9.35 12.7 15.25l2.65 1.9q3.05-5.75 5.95-5.8 1 .65 1.45 2 1.15 3.6-1.75 12.25l2.75-2.3q4.6-3.2 6 .6m-68.3 12.8v-1.5q-11.65-8.15-10.25-10.65l.9-.7.45-.05q3.6-.15 11.6 5v-.5q-.35-5.3.95-5.7 1.45-.45 4.9 5.25l1-2q-1.8-9.3 3-16.2-3.85-4.9-4.8-16.4 6.7.35 14.25 4.85 3.15-7 2-16.35l-.25-1.75-.8-3.15q-7.5-.05-7.2-1.1 1.2-3 5.1-6l-.65-1.95-.2-.05-10.45-2.35q-2.9 6.7-13.9 5.1-11.05-1.65-13.4-7-5.4-6.35-.45-13.6-2.2 1.4-5.35 2.65l-.3.15q-4.75 2.15-14.15-3.2-3.6-4.9-6.5-16.25-.2-7.25 7.25-14.45-7.4-.8-11-5.3-1.4-17.65 2-23.55l.65-1q7.45-4.6 14-4.25-.55-3-.05-5.2.2-1.1.75-2 4.3-8.05 16.95-10.25 5.8-.5 8.8 1.5 3.3 1.6 5.1 7.2l.3.9-.2-.85q-.85-4.05 1.05-5.35l.7-1.2m19.65 9.85 2.7-.65m-22.65 12.4 3.6-3.6q-10.85.45-16.25 8.4l-.7 1.25-.6 1.2-.25.45-6.25 11.8-2.5 5.25q-4.3 10.45-1.05 16.55 3.3 6.2 8.7 13.1l2.4 3q6.35 7.7 20 7.75h.4l2.75-.05.45-.05h1.05l2.3-.05q2.55 5.5 4.65 11.65v.1m1.25-88.5q-2.3.65-4.5 1.7l-4.65 1.85q-3.7 1.7-6.6 4.1l-.6.5m-16.95 9.65q-5.25-8.25-15.4-11.6L99 143.6l-.4-.05m-5.65 34.1q.5.2 1 .45l14.8-3.45m31.35-1.8q-.9 3.15-1.25 6.3-.4 3.7-.1 7.35 2.9 2.45 6.15 4.4-.4-2.85 5.55-9.8 2.05.55 4.1 2.8 8.4-7.15 17.9-6.4 3.45-4 12.25-1.75v-.05q1.15-1.2 1.8-6.6l.1-.9q-.55-4.3-2.05-7.55l-.35-.7q.1.65-3.5 3.15-4.25 2.75-4.75-3.5.7-5.8 1.85-6.75l-.85-.5q-6.15-2.95-11.9-2.8.85 3.45-.5 8.8-2.2 5.4-5.3 3.7-4.65-3.2-7.8-7.7-2.4 1.7-4.25 4.15-2.1 2.4-3.4 4.95 4.4 1.95 7.9 9.15-8.45 2.55-11.6.25.7-2.6 1.8-5.25l1.9-4.15m-6.25 23.8V187m-5.85-37.1q-3.55 4.3-5.45 10.05l-.05.4-.4 2.05q-1.55 8.85-1.4 15.25.15 9.35 3.9 13.3l.05.05.8 1q7.15 8.35 19.9 13.1 2.5.9 5.2 1.7l1.25.35.25.05.9.05.8.2 9.6 2.65 5.25.45m-26.55 4.35-.7-1.5h-.1l-2.5.3-.75-.15-1.75-.45q.85.15 2.5-1.45-4 .95-6.5-.05 1-1.6 5-1.75-3.6-2.15-4.5-5.5l.3.05m.65.15q2.45.7 5.3 3l.1.1.1-.1q2.25-2.4 3.4-2.45m.15 0q.55.55-.25 2.25l7.75-.3m11.1-57.5-1.65.1q-5.55.5-10.8 3.9l-1.15.8m32.75 5.6q-1.6-3.15-4.05-5.35l-2.35-1.75m-5.35 24.65q3.6.3 7.35 1.7m3.8 17.4q2.35-.75 4.35-1.7 6-2.95 8.55-8.3l.25-.5v-.05l.1-1.05q-.1-2.3-2.35-3.95-2.6-1.9-8.05-2.95-1.7-.95-1.75-2.35m-25.05 21.05.75.2q5.05 1.1 10.6 1.35.2-3.8 3.7-9.75 2.65 0 4.75 2.6 3.2 2.85 4.15 5.4-3.15.95-6.95 1.45l-2.7.3-.85.1-2.1-.1m-11.35-1.55q-.3-6.4-3.85-11.35l-1.25-1.55m-9.65 7q3.7 2.2 7.8 3.75 3.35 1.3 6.95 2.15m7.3 19.3-3.85-4.1-.2.05q-3.6 1.3-8.2 2.05l-4.2.5q2.75 7.6 5.9 11.7m6.7-14.3 1.45-.6m.75-.35 1.75-.95m-17.1 2.95q3.7-.3 4.75-1.2-.3-1.25-3.5-1.75 3.95-1.75 4.25-2.75l-1.5-.3m-3.75 6.8.3.75m15.05 57.65 4.6 11.6q1.75-1.1 2.9-.75l.45.2.25.2q.55.5.85 1.6l.05.15.1.3.55 1.55q1 3.55-.25 6.95M163 243.3q.3 2.05.45 4.2 2.35 6.2 5.3 11.35m-15.6-23.15-2.1-7.1m3.45 46.35q1.8-3.9 10.7-3.6l.35.9m-1.55 17.5.95-1.1 1.4-1.5 2.95-2.7-13.85-2.1q-2.1-4.45-1.05-7.1m9.6 14.5-1.35 1.6-.35.45-.5.6-.75-2.1q-2.05-4.5-5.15 0l-.55.85.45 2.55m13.5-9.25 1.15.15-.3-.75m-25.4-1.6q1.4-3.65 5-.6l1.4 1.45 1.55 2.1q1.8 2.75 2.65 5.95m25.05-6.55.15.25m-.15-.25q-2.35-4.55-4.7 1.5l-.4 1m5.1-2.5q1.85-5.25 3.7-8.6m-39.9-63.4.75.8m4.65-1.4.35 1.05.2.55m-10.4 10.65v-.05l-.95-9.15m13.4 41.9q-2.6 5.6-8 9.7l-1.45 1.85m-.15 22.2q-.85-.95-1.5-1.1-1.05-.25-1.5 1.7m3-.6 1.3 1.75q-.25-7.25.85-10.2m-11.8 6.2-.05-.8m5.85-.95.3.5m4.85 5.25.15.2 1.2 1.55m-6.05 1.35q0-2.75.4-4.25m.15-6.6 1.35 4.9M112 208.75q3.25-2.1 4.4-4.45"/><path stroke-width=".05" stroke-opacity=".302" stroke-linejoin="round" stroke-linecap="round" stroke="#000" fill="none" d="m137.7 187.45-.15-.2m-.8 17.15.65.15 6.4 5.5 2.5.75.35 2.45.05.45 8.35 21.25 2.6 13.7-5.7 18.3 3.45-4.5 4.05-5.4.3-2.45.8 7.35q2.1 6.05 3.4 8l-4.65.5q-3.45.75-5.1 2.4l-.5-3.15 1.7-7.25m-9.1-57.35h.15m7.5 1.95.3-.25m-.3.25q-6.55.95-5.05 2.95l.7 2 .35 1.05.2.55.05.25m30.75 64.25-13.5-14.5-4.8-15.4-2.7-12.1q-5-8.3-10.05-19.9l-2.7-6.35-2-1.5 1.1-3.25m13.45 49.5.2-2.15 1.95 8.8 5.75 9.65h-.05q-1 .7-2.05 1.35m7.95 11.05 1.7-3.45q1.3-1.15 3.5.25l2.25-2m-34.3-64.85 3.65 5.55q2.45 8.75 5.75 11.5 4.15 7.85 4.15 20.75m-5.8 24.2.1-.3"/><path fill-rule="evenodd" fill-opacity=".2" d="m-42.4-96.05 2.4-3.4q3.35 1.3 6.95 2.15l.75.2-2.35 4.7-.6 5.75-.8-.2-.9-.05-1.5-.4q-2.7-.8-5.2-1.7l1.25-7.05m26.35 0q3.8-.5 6.95-1.45 2.35-.75 4.35-1.7l4.6 4.05L3.2-87.4Q-.15-86-4.3-85.15l-.2.05-.75.15-6.5 1.05-1.25-6.9-3.05-5.25m19.9-18.6 1.6-.05q3.9 2.15 5.95 5.15l.3.15.2.2 1.6 2.2-6-2.55-3.35.45q-.1-2.3-2.35-3.95l2.05-1.6M-28.75-148.9l-.4 4.7q-5.55.5-10.8 3.9l-1.9-4.85-8.2-7 4.65-1.85q3.55-1.7 7.2-2.35l5.7-.5 3.75 7.95M-8-133.2l-.35-.7q-1.6-3.15-4.05-5.35l1.75-2.05.1-.85L-9-148.4q3.9 2.75 6.15 6.95l-1.9 5.55-3.25 2.7m-42.65 6.95q-1.1 2.65-1.8 5.25-.9 3.15-1.25 6.3l-7.05-1.7-7.4.2q-.15-6.4 1.4-15.25l6.25.15 9.85 5.05" transform="translate(192.55 294)"/></g></defs><path fill="none" d="M-1-1h135v180H-1z"/><g><use x="114.05" y="171.5" xlink:href="#t" width="381" transform="translate(-192.55 -294)" height="381"/><use x="-43.161" y="-73.77" xlink:href="#u" width="102.95" transform="matrix(1.8072 0 0 1.6538 53 136.3)" height="45"/></g></svg>