<svg width="140" height="119" xmlns="http://www.w3.org/2000/svg" xmlns:xlink="http://www.w3.org/1999/xlink"><defs><g id="b" stroke-opacity="0" stroke-linejoin="round" stroke-linecap="round" stroke="#f0f" fill="none"><path d="M187.95-293.5v380h-380v-380h380M92.95.6H-97" transform="translate(192.55 294)"/><path d="m187.95-293.5-190 190 190 190m-379.95 0 189.95-190-190-190" transform="translate(192.55 294)"/></g><g id="c"><path fill-rule="evenodd" fill="#e9af50" d="m79.3-6.75-.2.4-.1-.3.3-.1" transform="translate(-15.25 40.6)"/><path fill-rule="evenodd" fill="#b6620e" d="m70.9 29.6 7.75-5.9-.2-.25.25.2.1.05q2.65 2.15 3.75 4.75 1.1 2.75-.2 4.45-1.35 1.7-3.55.4-2.2-1.4-5.8-2.7v-.05h-.2L71 29.7l-.1-.1m7.75-5.9.05-.05-.05.05M41.3 43.1q-.1 0-.15.1l-2 .2q-2.4-.1-4-1.35l-.75-.6q-1.65-1.55-1.4-3.3.3-2.1 3.1-3.3 2-.85 4.45-.8l2 .1q3.65.5 6 2.3 2.35 1.85 2.05 4-.3 2.15-2.85 2.1l-6.45.6v-.05" transform="translate(-15.25 40.6)"/><path fill-rule="evenodd" fill="#c7d1d8" d="m28.7-22.5 1.45-1.55h.05l.25-.2q2.2-1.75 4.75-2.65 2.55-.95 3.25-.45.7.45.7 2.95l-.1 1.4-.4-.35q-.7-.25-2.25.7-1.6 1.05-3.05 2.7-1.5 1.6-2 2.9-.3.65-.3 1.1-1.65-.05-2.7-1-1.35-1.3-.75-3.45.35-1.15 1.1-2.1m8.75 2.95-.85 1.05-1 .95 1.25-1.25.6-.75m1.2 1.85q2-1 4.35-.65l3.85.8q1.45.5.5 2.65l-.3.55.15-.45q.3-1.45-.7-1.8l-1.9.1q-1.55-1.85-5.95-1.2" transform="translate(-15.25 40.6)"/><path fill-rule="evenodd" d="M31.05-15.95q0-.45.3-1.1.5-1.3 2-2.9 1.45-1.65 3.05-2.7 1.55-.95 2.25-.7l.4.35-.15 1.2-.4.8-.1.2-.75 1.05-.2.2-.6.75-1.25 1.25-1.75 1.3q-1.65 1-2.35.8-.4-.15-.45-.5m8-7.05-.55 2 .55-2m8 8.65q-.45 1.25-1.7 2.65-1.45 1.6-3.2 2.45-1.75.9-2.75.6l-.1-.05q-1-.4-.65-1.85.35-1.4 1.85-3 1.45-1.65 3.25-2.6l.85-.35 1.9-.1q1 .35.7 1.8l-.15.45m29.1-18.5-4.25.9 1.55-3.1 2.7 2.2M58.1-11.95q2.65-3.35 1.6-7.25 2.9 4.05-1.6 7.25m21 5.6.2-.4q2.4-.7 4.2.35l1.8 1.9 1.75 3.2q1.35-3.3 1.1-6.45-.35-3.5-3.85-4.5 3.5 1 3.85 4.5.25 3.15-1.1 6.45L85.3-4.5l-1.8-1.9q-1.8-1.05-4.2-.35l.95-2.6 4.05-2.9 3.45-1.5.75 3.15q1.7 7.8.55 15.35l-.1.8q-1.5 8.4-6.95 14.8l-2.3 2.5-1 .8 1-.8-.9.85-.1-.05-.25-.2.2.25-7.75 5.9-.4-.25-.5.25-1.4.6q-1.65-8.65-8.65-14.1l-.1-.1 9.05 2.25Q79 16.4 85.7 9.1L79.1-6.35m1.25-13.3q-4.05-3.85-6.4-3.45 5.55-3.45 16.25-1.8-3.2.9-6.2 2.4l-1.45.9-2.2 1.95 2.2-1.95 1.65-.45 1.45-.1 2.5.35q4.85 1 7.25 4.95-7.75-2.9-12.85-2.25l-2.2-.55m-25.2 14.4Q62.65-13.1 69-9.8q-7.85-1.1-13.85 4.55M23.8 13.55q11.95 11.1 28.05 9.75l1-5.85q-.05.95.2 1.9l3.15 13.3Q50.4 32.6 45 30.6q-6.6-2.1-12.15-6.4-5.8-4.4-9.05-10.65" transform="translate(-15.25 40.6)"/><path fill-rule="evenodd" fill="#fff" d="m38.05-17.15.6-.5v-.05q4.4-.65 5.95 1.2l-.85.35q-1.8.95-3.25 2.6-1.5 1.6-1.85 3-.35 1.45.65 1.85l.1.05h-.05l-1 .1-1-.1q-1.1-.2-1.85-.9-1.4-1.25-.75-3.4.55-2 3.3-4.2" transform="translate(-15.25 40.6)"/><path fill-rule="evenodd" fill="#333" d="m39.05-23 .1-1.4q0-2.5-.7-2.95-.7-.5-3.25.45-2.55.9-4.75 2.65l-.25.2h-.05L28.7-22.5q-.75.95-1.1 2.1-.6 2.15.75 3.45 1.05.95 2.7 1 .05.35.45.5.7.2 2.35-.8l1.75-1.3 1-.95.85-1.05.2-.2.75-1.05.1-.2.4-.8.15-1.2m-20 19.55q-3.2-4.1-3.55-9.1 6.45-.8 8.3-4 1.8-3.25 5-7.4 3.2-4.1 8.45-8 5.2-3.95 11.45-5.4 6.25-1.45 9.05-1.7l3.3-.2h1.5l18.35-1.1-2.15 1.1q-3.3 1.45-5.3 4.2l-1.55 3.1 4.25-.9 5-.5q7.35-.5 14.55 1.4 7.55 2.2 14.1 6.8l4.55 3.25q-3.8-1.55-7.75-2.5-3.75-1.25-7.55-1.85l-6.15.7-2.7.65q-10.7-1.65-16.25 1.8 2.35-.4 6.4 3.45l2.2.55q5.1-.65 12.85 2.25l1.2 2.5Q97.85-10.9 98.3-7q-1.65-3.4-4.85-5.65-2.55-1.8-5.7-1.1l-3.45 1.5-4.05 2.9-.95 2.6-.3.1.1.3L85.7 9.1q-6.7 7.3-16.8 9.15L59.85 16l.1.1q7 5.45 8.65 14.1.7 2.65-.35 5.45l-.9 2-5.15 1.1-2.35-1.35q-2.5-1.85-3.65-4.75l-3.15-13.3q-.25-.95-.2-1.9v-.65q.05-.85.45-1.5 1.25-1.9 3.5-.95l2.15 1.05.9.6-.9-.6-2.15-1.05q-2.25-.95-3.5.95-.4.65-.45 1.5v.65l-1 5.85q-16.1 1.35-28.05-9.75l-.9-1.7q-3.35-7.25-3.85-15.3l7.6 7.05-7.6-7.05m19.6-14.25v.05l-.6.5q-2.75 2.2-3.3 4.2-.65 2.15.75 3.4.75.7 1.85.9h-.45q-2.35 0-2.85 1.2T35.2-4.6q1.65 1.7 4.5 2.9 2.8 1.1 5.15 1.1 2.35-.05 2.85-1.25.45-1.2-1.2-2.85-1.65-1.7-4.45-2.85-1.95-.8-3.7-1l1-.1h.05q1 .3 2.75-.6 1.75-.85 3.2-2.45 1.25-1.4 1.7-2.65l.3-.55q.95-2.15-.5-2.65l-3.85-.8q-2.35-.35-4.35.65m17.1 7.1 2.15-1.2.2-.15-.2.15-2.15 1.2m3.95-8.6q1.05 3.9-1.6 7.25 4.5-3.2 1.6-7.25m11.05 7.45q-6.05-1.95-7.55-7.1 1.5 5.15 7.55 7.1M69-9.8q-6.35-3.3-13.85 4.55 6-5.65 13.85-4.55" transform="translate(-15.25 40.6)"/><path fill-rule="evenodd" fill="#dc90c5" d="M38.35-8.55q1.75.2 3.7 1 2.8 1.15 4.45 2.85 1.65 1.65 1.2 2.85-.5 1.2-2.85 1.25-2.35 0-5.15-1.1-2.85-1.2-4.5-2.9-1.65-1.65-1.15-2.85.5-1.2 2.85-1.2h.45l1 .1" transform="translate(-15.25 40.6)"/><path stroke-linejoin="round" stroke-linecap="round" stroke="#000" fill="none" d="m39.05-23 .1-1.4q0-2.5-.7-2.95-.7-.5-3.25.45-2.55.9-4.75 2.65l-.25.2h-.05L28.7-22.5m9.8 1.5-.1.2-.75 1.05-.2.2-.85 1.05-1 .95M38.5-21l.55-2m-1 5.85.6-.5v-.05q2-1 4.35-.65l3.85.8q1.45.5.5 2.65l-.3.55" transform="translate(-15.25 40.6)"/><path stroke-width=".5" stroke-linejoin="round" stroke-linecap="round" stroke="#000" fill="none" d="M58.2 5.55q2-2.75 5.3-4.2l2.15-1.1-18.35 1.1h-1.5l-3.3.2q-2.8.25-9.05 1.7Q27.2 4.7 22 8.65q-5.25 3.9-8.45 8-3.2 4.15-5 7.4-1.85 3.2-8.3 4 .35 5 3.55 9.1l7.6 7.05M58.2 5.55l-1.55 3.1 4.25-.9-2.7-2.2m5.85 28.3-.2.4M44.6 56.6l.1.1q7 5.45 8.65 14.1m11.1-7.35 2.3-2.5q5.45-6.4 6.95-14.8l.1-.8q1.15-7.55-.55-15.35l-.75-3.15-3.45 1.5q3.5 1 3.85 4.5.25 3.15-1.1 6.45l-1.75-3.2-1.8-1.9q-1.8-1.05-4.2-.35m.95-2.6 4.05-2.9m-5.3 5.6.3-.1m1.05-12.9L67.3 19l1.45-.9q3-1.5 6.2-2.4l2.7-.65 6.15-.7q3.8.6 7.55 1.85 3.95.95 7.75 2.5l-4.55-3.25q-6.55-4.6-14.1-6.8-7.2-1.9-14.55-1.4l-5 .5m11.6 19.1q3.15-.7 5.7 1.1 3.2 2.25 4.85 5.65-.45-3.9-1.7-7.35l-1.2-2.5q-2.4-3.95-7.25-4.95l-2.5-.35-1.45.1-1.65.45m1.65-.45-.2-.45m-5.2 46.2.9-.85m-26.85-5.4v-.65q.05-.85.45-1.5 1.25-1.9 3.5-.95L43.7 56l.9.6M8.55 54.15Q11.8 60.4 17.6 64.8q5.55 4.3 12.15 6.4 5.4 2 11.2 2.05l-3.15-13.3q-.25-.95-.2-1.9m3.35 15.2q1.15 2.9 3.65 4.75l2.35 1.35 5.15-1.1.9-2q1.05-2.8.35-5.45M3.8 37.15q.5 8.05 3.85 15.3l.9 1.7"/><path stroke-width="2" stroke-linejoin="round" stroke-linecap="round" stroke="#000" fill="none" d="m53.35 70.8 1.4-.6.5-.25.4.25m-29.6 13.5v.05m31.7-12.6v.05"/><path stroke-width=".05" stroke-linejoin="round" stroke-linecap="round" stroke="#000" fill="none" d="m42.85 28.65-.2.15L40.5 30m2.35-1.35q4.5-3.2 1.6-7.25m3.5.35q1.5 5.15 7.55 7.1m7.95 35.4 1-.8M39.9 35.35q7.5-7.85 13.85-4.55m9.7 33.45-.05.05m-7.75 5.9-1.25.95"/><path stroke-width="2" stroke-linejoin="round" stroke-linecap="round" stroke="#84471a" fill="none" d="M57.75 71.2q3.6 1.3 5.8 2.7 2.2 1.3 3.55-.4 1.3-1.7.2-4.45-1.1-2.6-3.75-4.75m-37.5 19.45 6.45-.6q2.55.05 2.85-2.1.3-2.15-2.05-4-2.35-1.8-6-2.3l-2-.1q-2.45-.05-4.45.8-2.8 1.2-3.1 3.3-.25 1.75 1.4 3.3l.75.6q1.6 1.25 4 1.35l2-.2q.05-.1.15-.1m29.6-13.5.1.1 1.8.85h.2"/></g><path fill-rule="evenodd" fill-opacity="0" fill="#f0f" d="M0 0h102.95v45H0V0" id="a"/><use xlink:href="#a" width="102.95" height="45" id="d"/></defs><path fill="none" d="M-1-1h142v121H-1z"/><g stroke="null"><use x="47.288" y="122.127" xlink:href="#b" width="381" transform="translate(-361.791 -552.41) scale(1.87895)" height="381"/><use x="202.833" y="-240.118" xlink:href="#c" width="99.35" transform="matrix(-1.341 0 0 1.341 408.044 325.386)" height="85"/><use xlink:href="#d" width="102.95" transform="matrix(3.39563 0 0 3.1074 -116.047 -11.41)" height="45"/></g></svg>