<svg width="154" height="180" xmlns="http://www.w3.org/2000/svg" xmlns:xlink="http://www.w3.org/1999/xlink"><defs><linearGradient y2="-4.039" y1="-4.589" x2="2.07" x1=".163" spreadMethod="pad" id="c"><stop stop-opacity=".122" stop-color="#99caff" offset="0"/><stop stop-color="#1a0600" offset="1"/></linearGradient><linearGradient y2="-3.793" y1="-3.793" x2="20.382" x1="-50.391" spreadMethod="pad" id="d"><stop stop-color="#b5623d" offset="0"/><stop stop-color="#ba854a" offset=".976"/></linearGradient><linearGradient y2="-3.499" y1="-3.499" x2="8.928" x1="-20.147" spreadMethod="pad" id="e"><stop stop-color="#f2d08c" offset="0"/><stop stop-color="#c98b4e" offset="1"/></linearGradient><linearGradient y2="-1.385" y1="-3.987" x2="5.236" x1="4.064" spreadMethod="pad" id="f"><stop stop-color="#f2d08c" offset="0"/><stop stop-color="#c98b4e" offset="1"/></linearGradient><linearGradient y2="-5.613" y1="-5.613" x2="8.458" x1="-18.894" spreadMethod="pad" id="g"><stop stop-color="#b5623d" offset="0"/><stop stop-color="#dea158" offset=".976"/></linearGradient><linearGradient y2="-7.281" y1="-7.281" x2="13.514" x1="-29.773" spreadMethod="pad" id="h"><stop stop-color="#f2d08c" offset="0"/><stop stop-color="#c98b4e" offset="1"/></linearGradient><linearGradient y2="-7.148" y1="-7.148" x2="10.714" x1="-21.923" spreadMethod="pad" id="i"><stop stop-color="#f5bd78" offset="0"/><stop stop-color="#fad17f" offset="1"/></linearGradient><linearGradient y2="3.84" y1="7.931" x2="-4.396" x1="-2.813" spreadMethod="pad" id="j"><stop stop-color="#b5623d" offset="0"/><stop stop-color="#d6a66a" offset="1"/></linearGradient><linearGradient y2="1.933" y1="3.986" x2="-8.339" x1="-5.764" spreadMethod="pad" id="k"><stop stop-color="#b5623d" offset="0"/><stop stop-color="#c98b4e" offset="1"/></linearGradient><linearGradient y2="-7.12" y1="-7.12" x2="10.723" x1="-21.785" spreadMethod="pad" id="l"><stop stop-color="#b5623d" offset="0"/><stop stop-color="#dea158" offset=".976"/></linearGradient><linearGradient y2="-10.219" y1="-26.514" x2="9.476" x1="5.554" spreadMethod="pad" id="m"><stop stop-color="#f2d08c" offset="0"/><stop stop-color="#c98b4e" offset="1"/></linearGradient><linearGradient y2="-1.846" y1="-4.982" x2="7.122" x1="5.722" spreadMethod="pad" id="n"><stop stop-color="#f2d08c" offset="0"/><stop stop-color="#c98b4e" offset="1"/></linearGradient><linearGradient y2="-11.534" y1="-11.534" x2="19.505" x1="-39.009" spreadMethod="pad" id="o"><stop stop-color="#f5bd78" offset="0"/><stop stop-color="#fad17f" offset="1"/></linearGradient><linearGradient y2="5.008" y1="6.435" x2="-2.691" x1="-.657" spreadMethod="pad" id="p"><stop stop-color="#b5623d" offset="0"/><stop stop-color="#dea158" offset=".976"/></linearGradient><linearGradient y2="-2.441" y1="-2.441" x2="1.131" x1=".607" spreadMethod="pad" id="q"><stop stop-color="#f2d08c" offset="0"/><stop stop-color="#ffae63" offset="1"/></linearGradient><linearGradient y2="-2.713" y1="-2.713" x2="6.281" x1="-10.592" spreadMethod="pad" id="r"><stop stop-color="#d1a166" offset="0"/><stop stop-color="#c98b4e" offset="1"/></linearGradient><linearGradient y2="-2.457" y1="-2.457" x2="9.715" x1="-18.292" spreadMethod="pad" id="s"><stop stop-color="#b5623d" offset="0"/><stop stop-color="#c98b4e" offset="1"/></linearGradient><linearGradient y2="-5.848" y1="-.89" x2="-2.596" x1="-3.665" spreadMethod="pad" id="t"><stop stop-color="#f2d08c" offset="0"/><stop stop-color="#c98b4e" offset="1"/></linearGradient><linearGradient y2="-10.611" y1="-10.611" x2="10.584" x1="-17.209" spreadMethod="pad" id="u"><stop stop-color="#f5bd78" offset="0"/><stop stop-color="#fad17f" offset="1"/></linearGradient><linearGradient y2="-1.783" y1="-1.783" x2="3.111" x1="-.66" spreadMethod="pad" id="v"><stop stop-color="#f2d08c" offset="0"/><stop stop-color="#c98b4e" offset="1"/></linearGradient><linearGradient y2="-1.611" y1="-1.611" x2="6.856" x1="-10.962" spreadMethod="pad" id="w"><stop stop-color="#b5623d" offset="0"/><stop stop-color="#c98b4e" offset="1"/></linearGradient><linearGradient y2="-2.128" y1="-2.128" x2="20.617" x1="-37.793" spreadMethod="pad" id="x"><stop stop-color="#b5623d" offset="0"/><stop stop-color="#754724" offset="1"/></linearGradient><linearGradient y2="-428.7" y1="-428.7" x2="21.746" x1="-39.848" spreadMethod="pad" id="y"><stop stop-color="#e0764c" offset="0"/><stop stop-color="#c98b4e" offset="1"/></linearGradient><linearGradient y2="-3.19" y1="-3.19" x2="22.753" x1="-41.878" spreadMethod="pad" id="z"><stop stop-color="#b5623d" offset="0"/><stop stop-color="#a96d34" offset="1"/></linearGradient><linearGradient y2="-2.994" y1="-2.994" x2="2.083" x1="1.144" spreadMethod="pad" id="A"><stop stop-color="#f2d08c" offset="0"/><stop stop-color="#ffae63" offset="1"/></linearGradient><linearGradient y2="-4.828" y1="-4.828" x2="10.3" x1="-16.297" spreadMethod="pad" id="B"><stop stop-color="#f5bd78" offset="0"/><stop stop-color="#fad17f" offset="1"/></linearGradient><linearGradient y2="-4.108" y1="-4.108" x2="6.79" x1="-10.827" spreadMethod="pad" id="C"><stop stop-color="#d1a166" offset="0"/><stop stop-color="#c98b4e" offset="1"/></linearGradient><linearGradient y2="-10.676" y1="-10.676" x2="16.709" x1="-30.919" spreadMethod="pad" id="D"><stop stop-color="#b5623d" offset="0"/><stop stop-color="#805127" offset="1"/></linearGradient><linearGradient y2="-12.22" y1="-12.22" x2="14.112" x1="-23.21" spreadMethod="pad" id="E"><stop stop-color="#d1a166" offset="0"/><stop stop-color="#ad7643" offset="1"/></linearGradient><linearGradient y2="-4.341" y1="-6.034" x2="11.698" x1="10.514" spreadMethod="pad" id="F"><stop stop-color="#ffdc94" offset="0"/><stop stop-color="#c98b4e" offset="1"/></linearGradient><linearGradient y2="-4484.726" y1="-4484.726" x2="1071.495" x1="-466.986" spreadMethod="pad" id="G"><stop stop-color="#ffdc94" offset="0"/><stop stop-color="#c98b4e" offset="1"/></linearGradient><linearGradient y2="-4.234" y1="-4.234" x2="37.188" x1="-49.5" spreadMethod="pad" id="H"><stop stop-color="#a35815" offset="0"/><stop stop-color="#861e13" offset="1"/></linearGradient><linearGradient y2="-20.269" y1="-20.269" x2="9.726" x1="-4.2" spreadMethod="pad" id="I"><stop stop-color="#d2761c" offset="0"/><stop stop-color="#861e13" offset="1"/></linearGradient><linearGradient y2="-1.82" y1="-1.82" x2="6.963" x1="-13.698" spreadMethod="pad" id="O"><stop stop-color="#bd5100" offset="0"/><stop stop-color="#f5b72b" offset="1"/></linearGradient><linearGradient y2="-.387" y1="-2.993" x2="4.916" x1="-1.514" spreadMethod="pad" id="P"><stop stop-color="#fc3" offset="0"/><stop stop-color="#d97715" offset="1"/></linearGradient><linearGradient y2="1.665" y1="-.189" x2="2.418" x1="-.523" spreadMethod="pad" id="Q"><stop stop-color="#ffc238" offset="0"/><stop stop-color="#d97715" offset="1"/></linearGradient><linearGradient y2="3.464" y1="3.866" x2="-.265" x1=".966" spreadMethod="pad" id="R"><stop stop-color="#e33d00" offset="0"/><stop stop-color="#eea966" offset="1"/></linearGradient><linearGradient y2="-264.997" y1="-264.997" x2="364.85" x1="-895.47" spreadMethod="pad" id="S"><stop stop-color="#e33d00" offset="0"/><stop stop-color="#eea966" offset="1"/></linearGradient><linearGradient y2="1.004" y1="-.89" x2="1.577" x1=".054" spreadMethod="pad" id="T"><stop stop-color="#f60" offset="0"/><stop stop-color="#bf0900" offset="1"/></linearGradient><linearGradient y2="1.234" y1="3.66" x2="-2.137" x1="1.745" spreadMethod="pad" id="U"><stop stop-color="#9c553c" offset="0"/><stop stop-color="#f5b72b" offset="1"/></linearGradient><linearGradient y2="-6.201" y1="-4.712" x2=".374" x1="-.313" spreadMethod="pad" id="V"><stop stop-color="#402615" offset="0"/><stop stop-color="#59371d" offset="1"/></linearGradient><linearGradient y2="-2.015" y1="-4.49" x2="2.907" x1=".26" spreadMethod="pad" id="W"><stop stop-color="#ffefcc" offset="0"/><stop stop-color="#91593f" offset="1"/></linearGradient><linearGradient y2="2.221" y1="6.47" x2="-1.953" x1="-1.337" spreadMethod="pad" id="X"><stop stop-color="#95762f" offset="0"/><stop stop-color="#592f10" offset="1"/></linearGradient><linearGradient y2="75.296" y1="99.326" x2="-15.456" x1="68.165" spreadMethod="pad" id="Y"><stop stop-color="#8c4600" offset="0"/><stop stop-color="#c60" offset="1"/></linearGradient><linearGradient y2="4.63" y1="6.572" x2=".184" x1="2.565" spreadMethod="pad" id="Z"><stop stop-color="#7a0c01" offset="0"/><stop stop-color="#984b01" offset="1"/></linearGradient><linearGradient y2="-1.208" y1="-1.208" x2=".731" x1="-6.642" spreadMethod="pad" id="aa"><stop stop-color="#c44b2e" offset="0"/><stop stop-color="#fadb96" offset="1"/><stop stop-color="#fde3bd" offset="1"/></linearGradient><linearGradient y2="-1.545" y1="-1.545" x2="10.248" x1="-16.744" spreadMethod="pad" id="ab"><stop stop-color="#c44b2e" offset="0"/><stop stop-color="#fadb96" offset="1"/><stop stop-color="#fac14d" offset="1"/></linearGradient><linearGradient y2=".789" y1="3.67" x2=".122" x1="2.911" spreadMethod="pad" id="ac"><stop stop-color="#c44b2e" offset="0"/><stop stop-color="#fadb96" offset="1"/><stop stop-color="#fde3bd" offset="1"/></linearGradient><linearGradient y2=".933" y1="-.24" x2="4.008" x1=".211" spreadMethod="pad" id="ad"><stop stop-color="#ffd95e" offset="0"/><stop stop-color="#d97715" offset="1"/></linearGradient><linearGradient y2="4.64" y1="5.536" x2="-.046" x1="1.29" spreadMethod="pad" id="ae"><stop stop-color="#8c4600" offset="0"/><stop stop-color="#f57a00" offset="1"/></linearGradient><linearGradient y2="1.208" y1="2.73" x2="-2.552" x1="-.809" spreadMethod="pad" id="af"><stop stop-color="#285e43" offset="0"/><stop stop-color="#528352" offset="1"/></linearGradient><linearGradient y2="1.489" y1="3.504" x2="-5.344" x1="-2.738" spreadMethod="pad" id="ag"><stop stop-color="#0e2117" offset="0"/><stop stop-color="#528352" offset="1"/></linearGradient><linearGradient y2="1.923" y1="4.357" x2="-2.661" x1="-.856" spreadMethod="pad" id="ah"><stop stop-color="#37805b" offset="0"/><stop stop-color="#71b371" offset="1"/></linearGradient><linearGradient y2="1.567" y1="3.54" x2="-4.273" x1="-2.117" spreadMethod="pad" id="ai"><stop stop-color="#285e43" offset="0"/><stop stop-color="#426942" offset="1"/></linearGradient><radialGradient spreadMethod="pad" r="819.2" id="J" gradientUnits="userSpaceOnUse" gradientTransform="translate(29.05 34.45) scale(.5644)" cy="0" cx="0"><stop stop-color="#cc1010" offset="0"/><stop stop-color="#1a0600" offset="1"/></radialGradient><radialGradient spreadMethod="pad" r="819.2" id="K" gradientUnits="userSpaceOnUse" gradientTransform="translate(29.05 34.45) scale(.5644)" cy="0" cx="0"><stop stop-color="#990c0c" offset="0"/><stop stop-color="#050100" offset="1"/></radialGradient><radialGradient spreadMethod="pad" r="819.2" id="L" gradientUnits="userSpaceOnUse" gradientTransform="translate(29.05 34.45) scale(.5644)" cy="0" cx="0"><stop stop-color="#e31c11" offset="0"/><stop stop-color="#380c00" offset="1"/></radialGradient><radialGradient spreadMethod="pad" r="819.2" id="M" gradientUnits="userSpaceOnUse" gradientTransform="translate(29.05 34.45) scale(.5644)" cy="0" cx="0"><stop stop-color="#fc4613" offset="0"/><stop stop-color="#380c00" offset="1"/></radialGradient><radialGradient spreadMethod="pad" r="819.2" id="N" gradientUnits="userSpaceOnUse" gradientTransform="translate(29.05 34.45) scale(.5644)" cy="0" cx="0"><stop stop-color="#b30e0e" offset="0"/><stop stop-color="#d12c10" offset="0"/><stop stop-color="#591100" offset=".988"/></radialGradient><use xlink:href="#a" width="279.7" height="327.2" id="aj"/><use xlink:href="#b" width="100" height="40" id="al"/><g id="a"><path fill-rule="evenodd" fill="url(#c)" d="m80.35 306.65 43.6-8.1 40.15-6.3 4.25-10.25 6.35-8.05-.1-.3 40.8-10.95 62.05 1.5L236 292.65l-6.2 19.9-63.5 12.4q-57.75-6.5-85.95-18.3" transform="translate(2.25 2.25)"/><path fill-rule="evenodd" fill="#331c19" d="m190.75 45.95.9 6.5-10.45-3.1.1-.05-.1.05 10.45 3.1-.9-6.5L208 52l.75 6.35 7.75 7.75-2.45-.8L164 48.95l-4.05-1.35-4.1-1.3-11.75-3.85-1.6-.55-.75-.2-2.65-.9h-.05l-6.4-2.1-6.9-4.4.8-9.3.65.2 7.65 2.45-7.65-2.45-.65-.2-.8 9.3 6.9 4.4 6.4 2.1h.05l2.65.9.75.2 1.6.55 11.75 3.85 4.1 1.3 4.05 1.35 50.05 16.35 2.45.8.65 18.85 4.95 4.2q2.8 7.1 4.5 19.6l-.7.85q-3.15 3.35-8.95 5.95l-12.2 1.1-16.2-3.6 9.6-1.15 15.35-2.15 3.3-2.15 1.75-1.15-.1-.25-.4-1.6-1.6-5-1.4-3.25q-.95-1.9-1.95-3.1L198 88.3l-8.65-2.8-26.2-8.5-11.1-3.7-5.9 2.9-1.7 2-9.35 11.1-4.75 5.6q-23.65 9.05-47.25 11.85l-4.9-2.1-2.5-1.8-.35-1.95-.4-2.1.25-.3q1.05-1.35 2.95-2.15l6.15 2.05q18.95-2.2 41.5-11.75l8.15-12.05 3.95-5.85 12.4-6.15 62.45 20.9-62.45-20.9-12.4 6.15-3.95 5.85-8.15 12.05Q103.25 96.2 84.3 98.4l-6.15-2.05q-1.9.8-2.95 2.15l-.25.3.4 2.1.35 1.95 2.5 1.8 4.9 2.1q23.6-2.8 47.25-11.85l4.75-5.6 9.35-11.1 1.7-2 5.9-2.9 11.1 3.7 26.2 8.5 8.65 2.8 15.1 4.95q1 1.2 1.95 3.1l1.4 3.25 1.6 5 .4 1.6.1.25-1.75 1.15-3.3 2.15-15.35 2.15-9.6 1.15 16.2 3.6 7.45 1.55-.15 1.35-.7 7.95-7.55 10.05-6.2 4.25-6.1-.55 3.95 6.5-1.2 1.7q-12.35-2.4-26.7-4.35 1.05 11.75 1.35 26.05-1.15-.05-2.1.4l-19.95-17.3q-2.55 12.85-7.7 28.5l-.55-.05-.2 6.45-.1 3.75 12.9 1-.25 4.15-1.7.85-.75 4.5-10.35 5.8-.45 1.1 12.2 1.8.25-.3q6.8-6.8 16.45-6.8l3 .2q7.7.85 13.45 6.6l2.55 3 12.35 2.15 11.45-17.9 31.5 6.35.05 6.75-.95 2.2-.1 12.3 3 .55-.55 3.4-19.5 42.65-9.85-2.9-2.5 3.05q-3.7 3.65-8.35 4.9l-1.9 3.6.65 1.55-1.3 2.8-31.7-7.2-3.3-5.75-39.95 44.2-56.05-16.8-.7-2.85-2.2-4.4v.05l3.9-3.1-.8-3.25 2.8-1.85-12.7-26.5 2.7-13.25 12.3-6.9-.95-15.8-2.8-7.85-10.4-1.4-1.55-5.25-1.65-.2-1.4-5.25 12.55-3.7-2.6-14.6 3.15-7.8-3.3-8.25q-2.7 1.55-5.6 2.85l-.7-.35-.75-.75.7-33.25-1 .9q-19.65 6.1-42.5 7.35l-.7.05q9.65-19.05 21.1-33.5L0 105.95l.35-.35q15-14.25 30.15-23.9l-.85-1Q16.55 65.65 5.1 48.1l1.95-1.7q21 1.95 37.65 5.2l-.65-.9q-3.45-21.8-1.6-43.35l2-.5q17.6 11.5 31.15 28.3l13.15-33.9Q90-.15 91.3.05q9.85 18.55 16 34.5L127.4 6.4l3.1-.75q2.55 11.65 4.35 22l13.5 4.35.2 2.15q8.25-5.75 16.15-11l2.55-.1q-.95 11.1-2.45 21.15l14.2 4.4 2.3.7 9.45-3.35m-9.55 3.4-2.2-.75 2.2.75m-32.65-15.2.3 2.95.2 2.15 8.9 2.8 6.85 2.15-6.85-2.15-8.9-2.8-.2-2.15-.3-2.95M198 88.3l.1 10.75 3.75.95 3.25-1.2v-1.45l.5.15v1.3h-.5.5v-1.3l-.5-.15v1.45l-3.25 1.2-3.75-.95-.1-10.75m-35.35-6.05v.1l-1.95 1.85-1.75-.35v.7l-3.25 2.3-11.2-3.05-.05-5.6.05 5.6 11.2 3.05 3.25-2.3v-.7l.05-2.5 3.65.9.5-5.25-.5 5.25-3.65-.9-.05 2.5 1.75.35 1.95-1.85v-.1m38.4 10.35v-.5.5m12.2-8.95 3.9 1.3-3.9-1.3m-1.2 35.9-8.8-.5-38.3-5.7-15.45-1.5q-1.65 0-12.65 6.65-6.2 4.35-13.5 7.1l-14.3 1.65-12.95.75-1.95.1-10.3.2-6.8.05-6.5-.15-2.65-.3-.2-.05-.25-1.6-1.8-11.3-1.75-10.75 11.45-3.3-11.45 3.3 1.75 10.75 1.8 11.3.25 1.6.2.05 2.65.3 6.5.15 6.8-.05 10.3-.2 1.95-.1 12.95-.75 14.3-1.65q7.3-2.75 13.5-7.1 11-6.65 12.65-6.65l15.45 1.5 38.3 5.7 8.8.5m1.05-26.3-.2 7.6-3.6 1.1-3.7-1V98.8v2.15l3.7 1 3.6-1.1.2-7.6m-130 13.5 5.7 3.75 41 3.6 11.15-6.4 4.7-2.7.6-.35 1.75-1 26.15 5.6 5.45 1.15 8.95 2.65-8.95-2.65-5.45-1.15-26.15-5.6-1.75 1-.6.35-4.7 2.7-11.15 6.4-41-3.6-5.7-3.75m83.75 32.1.5 4 .2 2.25-.2-2.25-.5-4-9.05-1 9.05 1 9.75 1.1-9.75-1.1m.4 27.9q-2.2-11.55-6.15-21l-3.35 1.25-2.95-6.4 4-.6-1-2.15 1 2.15-4 .6 2.95 6.4 3.35-1.25q3.95 9.45 6.15 21m24.7-21.4-3.85-4.4 3.4.3-3.4-.3 3.85 4.4m24.85-37.75q-6.35 2.1-30.45 2.1l-12.2-.45 12.2.45q24.1 0 30.45-2.1M95.35 54.45V47.7l-.45-6.1 4.7 1.5-.5-12.3-4.8 1.6-3.05-24.6 3.05 24.6 4.8-1.6.5 12.3-4.7-1.5.45 6.1v6.75L109.7 42.7 95.35 54.45l-1 .85 1-.85m33.1-40.15-1.25 10.9 1.25-10.9m2.05-8.65-1.4 2 1.4-2m64.95 142.1-28.1-4.9 28.1 4.9m-18.85-7.8 11.5 1-11.5-1m-69.3-105.4 1.2 3.15 1.2 3.5v1.5-1.5l-1.2-3.5-1.2-3.15m7.7 2.75-4.55 4.75-.75.65.75-.65L115 37.3M95.35 47.8l-1 7.5-.55 4.3-1.4 10.35L84.8 71l-.7.15-3.95 1L75 73.8l-3.2 1.15h-1.45L57.9 74.9l.55-14.5.9-.85 2-1.7q4.65-3.5 8.3-2.1 1.45.55 2.75 1.9l.05-8.7 7.35-4.85h.1l15.45 3.6-15.45-3.6h-.1l-7.35 4.85-.05 8.7q-1.3-1.35-2.75-1.9-3.65-1.4-8.3 2.1l-2 1.7-.9.85-.55 14.5 12.45.05h1.45L75 73.8l5.15-1.65 3.95-1 .7-.15 7.6-1.05 1.4-10.35.55-4.3 1-7.5M75 73.8l-.8 4.3-.15 1.35q-.5 5.95.75 10.3 1.3 4.35 3.65 4.6 2.35.15 4.35-3.9 2-4.05 2.55-10 .45-5.4-.55-9.45 1 4.05.55 9.45-.55 5.95-2.55 10-2 4.05-4.35 3.9-2.35-.25-3.65-4.6-1.25-4.35-.75-10.3l.15-1.35.8-4.3m40.3-36.85L126.55 25 115.3 36.95m18.65 37.65-.2-14.25-1.1-21.65 1.1 21.65.2 14.25m14.15 6.8v.05l.1-.05h-.1.1l-.1.05v-.05m-13 7.9 3.65 4.05 2.2 14.35-2.2-14.35-3.65-4.05M93.8 59.6l8.1-2.9.25 18.9 20.8-12.7-1.2-26.45-11.3 5.6 11.3-5.6 1.2 26.45-20.8 12.7-.25-18.9-8.1 2.9M57.15 85.7l-1.1-.05q-10.95 2-24.6-2.8l-.95-1.15.95 1.15q13.65 4.8 24.6 2.8l-.4-.05-3.45-.3-10.35-1.55-8.8-1.95-1.5-.35-.1-.15-.25-.35.25.35.1.15 1.5.35 8.8 1.95L52.2 85.3l3.45.3.4.05 1.1.05M44.7 51.6l2.85.55 3.45.8.35.25q4.75 2.9 8 6.35-3.25-3.45-8-6.35l-.35-.25-3.45-.8-2.85-.55m36.05 2.45.1-3.75-.1 3.75m-68.3-4.85L38.6 65.7l1.2-5.35 10.1 6.75-3.7 3.55 14.7 8.05-14.7-8.05 3.7-3.55-10.1-6.75-1.2 5.35-26.15-16.5M60.6 94.15l-18.7 3.6.65-5.25-11.2 2 1.85 4.3q-13.3 3.35-28.65 5.85 15.35-2.5 28.65-5.85l-1.85-4.3 11.2-2-.65 5.25 18.7-3.6m9.05-38.4L65.8 46.9l5.45-.65Q69.3 40.1 65.9 34.9l-4.05 4.4L46.8 10.6l15.05 28.7 4.05-4.4q3.4 5.2 5.35 11.35l-5.45.65 3.85 8.85m7.95-18.3.15.35.8 1.9 1.35 4.4-1.35-4.4-.8-1.9-.15-.35-.15-.35-.5-.55.5.55.15.35.3-.75-.3.75m-1.05-1.3-.95-1 .95 1m-6.2 38.8L68.5 76.5l-4.65 27.4.05.3-.05-.3 4.65-27.4 1.85-1.55m-11 96.45.15-1.1-.15 1.1m5.6-2.85q7.6-4.25 13.8-10.1 4.6-4.45 8.45-9.75l.9 4.15q3 14.25 3.9 25.55l.3 5.6 2.2 1.45 3.95-3.05 4-3.45 2.9-2.85 4.15-4.85.15-.15 2.65-3.6.7-1.1.7-1.15q3.5-5.6 5.8-11.85 7.65 10.3 12.95 20.1l3.55 6.95.9 2 1.7.25-1.7-.25-.9-2-3.55-6.95q-5.3-9.8-12.95-20.1-2.3 6.25-5.8 11.85l-.7 1.15-.7 1.1-2.65 3.6-.15.15-4.15 4.85-2.9 2.85-4 3.45-3.95 3.05-2.2-1.45-.3-5.6q-.9-11.3-3.9-25.55l-.9-4.15q-3.85 5.3-8.45 9.75-6.2 5.85-13.8 10.1m-29.45-56.7.65.1.2.05 6.95 1.1q10.45-4.65 16.9-11l1.25-1.35 1.15-1.35.6-.7-.6.7-1.15 1.35-1.25 1.35q-6.45 6.35-16.9 11l-6.95-1.1-.2-.05Q24.4 128.35 16.2 143.3l-1.1 2 1.1-2q8.2-14.95 19.95-31.35l-.65-.1M63.45 166l.3-.4q6.85-8.3 10.85-15.1l2.55-4.8.3-.55-4.8-.95 4.35-7.8 3.05 3.5.8-2.05 1.95-5.8.7-2.45-.7 2.45-1.95 5.8-.8 2.05-3.05-3.5-4.35 7.8 4.8.95-.3.55-2.55 4.8q-4 6.8-10.85 15.1l-.3.4m-4.85-28.95 2.2-2.3 4.4-5.25 1.15-1.6.55-.8.55-.85-.55.85-.55.8-1.15 1.6-4.4 5.25-2.2 2.3m4-37.65-.95.95q-7.05 6.55-17.55 11.6L.35 105.6l43.75 6.35q10.5-5.05 17.55-11.6l.95-.95M22 141.05q11.35-3.6 22.45-10.3l-4.05-3 8.65-5.35 1.1 4.8q7.65-4.45 13-9.7l2.5-2.55-2.5 2.55q-5.35 5.25-13 9.7l-1.1-4.8-8.65 5.35 4.05 3q-11.1 6.7-22.45 10.3m99.8-7.2 12.45 1.4-12.45-1.4-.35.8q1.1 3.45.25 9l-.45 2.35-.65 2.65-.3 2.5q7.7 10.05 13.7 21.2l3.75 7.45.05.05.85 1.85.5 1.05-.5-1.05-.85-1.85-.05-.05-3.75-7.45q-6-11.15-13.7-21.2l.3-2.5.65-2.65.45-2.35q.85-5.55-.25-9l.35-.8-.55-.05.55.05m24.45-29.2-.6.35.6-.35m-12 30.6q1.85 4.8 2.65 8.95l.05.1-4.75-.6 2.4 10.6 3.85-2.95v.05l.45 4.1q1.3 13.55.25 20.35 1.05-6.8-.25-20.35l-.45-4.1v-.05l-3.85 2.95-2.4-10.6 4.75.6-.05-.1q-.8-4.15-2.65-8.95l10.5 1.15 13.05 1.45-13.05-1.45-10.5-1.15m-44.9 15.95-.9-4 .05-.05 3-3.5.3-1.15.6-2.1 1.15-5.8.45-3.8-.45 3.8-1.15 5.8-.6 2.1-.3 1.15-3 3.5-.05.05.9 4m79.55 19.95-21.3-20.85.55-3.95q-1.05-5.7-3.4-9.95 2.35 4.25 3.4 9.95l-.55 3.95 21.3 20.85M70.55 128.2l12.95 1.4 10.5 1.2-10.5-1.2-12.95-1.4m27.25 52.2.75-1.25.2-.35q2.5-4.25 4.35-9l1.7-4.95 1.6-6.35 1-5.85-4.65 1.35 1.55-10.1 3.9 2.05.6-13.55-.6 13.55-3.9-2.05-1.55 10.1 4.65-1.35-1 5.85-1.6 6.35-1.7 4.95q-1.85 4.75-4.35 9l-.2.35-.75 1.25M94 130.8l14.8 1.6 12.45 1.4-12.45-1.4-14.8-1.6m27.25 3 .2.85-.2-.85M87.2 148.7l1.25-1.5-1.25 1.5m51.05 44.2h.05-.05v2.5l-24.75 10.65 24.75-10.65v-2.5l.15-3.75-.15 3.75m9.35-42.6-.75 3.95.75-3.95m-27.3.85q-.3 1.5-.8 2.25.5-.75.8-2.25M98.05 186.8l-32.95-2.2 32.95 2.2m-28.1 54.65 4-2.35-.05-.45.05.45.1 1.75-.1-1.75-4 2.35Q70.3 243 71 244.7l45.2 7.45 25.05-20.75.35-3.1-3.5-.55.1 1.75-.1-1.75 3.5.55-.35 3.1-25.05 20.75L71 244.7q-.7-1.7-1.05-3.25l45.9 6.9-45.9-6.9M67.7 199.2l.5 2.9-.5-2.9m58.5 94.5-.3.3.3-.3m-3.75 3.65-1.05 1-3.05-26.8 2.05-14.2-2.05 14.2 3.05 26.8 1.05-1M115 220.8h-.95.95m22.8 5.15.3 1.8-.3-1.8m-.1-15.65-1.6 4.05 1.65 11.25-1.65-11.25 1.6-4.05m-11.05 92.5-3.75 3.95v-5.55 5.55l3.75-3.95m-2 14.7-.6-3.9v-4l3.35-3.65-3.35 3.65v4l.6 3.9M72.2 286.7l-.6-1.4.6 1.4m-2.3 5.7-.3-2 .3 2m46.65-82.9-61.4-6.6 61.4 6.6m3.85 47.85-58.8-11.8 58.8 11.8m3.65 52.25L65.7 293.5l58.35 16.1m-1.8-8.6L68.8 287.15 122.25 301m79.9-22.7 11.4-21.75-2.95-9.8-8.6-29.05-4.05-.75 4.05.75 8.6 29.05.4.35q5 5.4 5 12.9 0 5.8-3 10.35 3-4.55 3-10.35 0-7.5-5-12.9l-.4-.35 2.95 9.8-11.4 21.75M171 250.85l.25-1.75 3.4-26.65-1.1-6.9-23.65-3.45 23.65 3.45 1.1 6.9-3.4 26.65 2.35.7v.7l1.7-.6q4.25-1.7 7.75-5.2 6.8-6.8 6.8-16.45 0-3.05-.65-5.8l-1.3-3.7q-.95-2.1-2.3-3.95 1.35 1.85 2.3 3.95l1.3 3.7q.65 2.75.65 5.8 0 9.65-6.8 16.45-3.5 3.5-7.75 5.2l-1.7.6v-.7l-2.35-.7-.25 1.75m-6.4 22.45 11.85-13.1-.25-3.8.6-3.5.05-.4v-.05l-3.25-.95.05 2.1-.05-2.1v-1 1l3.25.95v.05l-.05.4-.6 3.5.25 3.8-11.85 13.1m75.3-46.65-.4 3.85.4-3.85M189.35 85.5l-50.6 7.85 50.6-7.85m-22.1-62.45-18.4 14.05 18.4-14.05m-2.75 5.8-6.55 13.2 6.55-13.2" transform="translate(2.25 2.25)"/><path stroke-width="4.5" stroke-linejoin="round" stroke-linecap="round" stroke="#331c19" fill="none" d="M150.8 36.4q8.25-5.75 16.15-11l2.55-.1q-.95 11.1-2.45 21.15m32.8 97.6-6.1-.55 3.95 6.5-1.2 1.7q-12.35-2.4-26.7-4.35 1.05 11.75 1.35 26.05-1.15-.05-2.1.4l-19.95-17.3q-2.55 12.85-7.7 28.5l-.55-.05-.2 6.45m-.1 3.75 12.9 1-.25 4.15-1.7.85-.75 4.5-10.35 5.8-.45 1.1 12.2 1.8.25-.3q6.8-6.8 16.45-6.8l3 .2q7.7.85 13.45 6.6l2.55 3 12.35 2.15 11.45-17.9 31.5 6.35.05 6.75-.95 2.2-.1 12.3 3 .55-.55 3.4-19.5 42.65-9.85-2.9-2.5 3.05q-3.7 3.65-8.35 4.9l-1.9 3.6.65 1.55-1.3 2.8-31.7-7.2-3.3-5.75-39.95 44.2-56.05-16.8-.7-2.85-2.2-4.4v.05l3.9-3.1-.8-3.25 2.8-1.85-12.7-26.5 2.7-13.25 12.3-6.9-.95-15.8-2.8-7.85-10.4-1.4-1.55-5.25-1.65-.2-1.4-5.25 12.55-3.7-2.6-14.6 3.15-7.8-3.3-8.25q-2.7 1.55-5.6 2.85l-.7-.35-.75-.75.7-33.25-1 .9q-19.65 6.1-42.5 7.35l-.7.05q9.65-19.05 21.1-33.5l-35.5-5.9.35-.35q15-14.25 30.15-23.9l-.85-1Q18.8 67.9 7.35 50.35l1.95-1.7q21 1.95 37.65 5.2l-.65-.9q-3.45-21.8-1.6-43.35l2-.5q17.6 11.5 31.15 28.3L91 3.5q1.25-1.4 2.55-1.2 9.85 18.55 16 34.5l20.1-28.15 3.1-.75q2.55 11.65 4.35 22m32.7 117.45-.2-2.25-.5-4m-9.05-1 1 2.15-4 .6 2.95 6.4 3.35-1.25q3.95 9.45 6.15 21m24.25-25.5-3.4-.3 3.85 4.4m-3.85-4.4-11.5-1m-9.25 2.9 28.1 4.9M131.35 9.9l1.4-2m-3.3 19.55 1.25-10.9m-37.2-6.5 3.05 24.6 4.8-1.6.5 12.3-4.7-1.5.45 6.1v6.75m14.35-11.75v-1.5l-1.2-3.5-1.2-3.15M97.6 49.95l-15.45-3.6h-.1L74.7 51.2l-.05 8.7q-1.3-1.35-2.75-1.9-3.65-1.4-8.3 2.1l-2 1.7-.9.85-.55 14.5 12.45.05h1.45l3.2-1.15 5.15-1.65 3.95-1 .7-.15 7.6-1.05 1.4-10.35.55-4.3 1-7.5m-10.55 23.2q1 4.05.55 9.45-.55 5.95-2.55 10-2 4.05-4.35 3.9-2.35-.25-3.65-4.6-1.25-4.35-.75-10.3l.15-1.35.8-4.3m.6-38.65.95 1m.4.4.5.55.15.35.3-.75m2 7.4-1.35-4.4-.8-1.9-.15-.35m-30.8-26.85 15.05 28.7 4.05-4.4q3.4 5.2 5.35 11.35l-5.45.65L71.9 58M6.8 106.9q15.35-2.5 28.65-5.85l-1.85-4.3 11.2-2-.65 5.25 18.7-3.6m-30.1-12.45.95 1.15q13.65 4.8 24.6 2.8l-.4-.05-3.45-.3L44.1 86l-8.8-1.95-1.5-.35-.1-.15-.25-.35m29.7-2.25-14.7-8.05 3.7-3.55-10.1-6.75-1.2 5.35-26.15-16.5m68.4 1.1L83 56.3m-21.4 5.5q-3.25-3.45-8-6.35l-.35-.25-3.45-.8-2.85-.55M58.3 87.9l1.1.05m8.5 29.25-2.5 2.55q-5.35 5.25-13 9.7l-1.1-4.8-8.65 5.35 4.05 3q-11.1 6.7-22.45 10.3m41.2-42.35-.6.7L63.7 103l-1.25 1.35q-6.45 6.35-16.9 11l-6.95-1.1-.2-.05q-11.75 16.4-19.95 31.35l-1.1 2M2.6 107.85l43.75 6.35q10.5-5.05 17.55-11.6l.95-.95m4.85 26.85-.55.85-.55.8-1.15 1.6-4.4 5.25-2.2 2.3m24.9-7.45-.7 2.45-1.95 5.8-.8 2.05-3.05-3.5-4.35 7.8 4.8.95-.3.55-2.55 4.8q-4 6.8-10.85 15.1l-.3.4M38.4 114.2l-.65-.1m103.1 70.85-1.7-.25-.9-2-3.55-6.95q-5.3-9.8-12.95-20.1-2.3 6.25-5.8 11.85l-.7 1.15-.7 1.1-2.65 3.6-.15.15-4.15 4.85-2.9 2.85-4 3.45-3.95 3.05-2.2-1.45-.3-5.6q-.9-11.3-3.9-25.55l-.9-4.15q-3.85 5.3-8.45 9.75-6.2 5.85-13.8 10.1m-5.45 1.75-.15 1.1m62.45-37.55-.35.8q1.1 3.45.25 9l-.45 2.35-.65 2.65-.3 2.5q7.7 10.05 13.7 21.2l3.75 7.45.05.05.85 1.85.5 1.05m0-6.9q1.05-6.8-.25-20.35l-.45-4.1v-.05l-3.85 2.95-2.4-10.6 4.75.6-.05-.1q-.8-4.15-2.65-8.95m10.5 1.15q2.35 4.25 3.4 9.95l-.55 3.95 21.3 20.85m-74.9-40.35-.45 3.8-1.15 5.8-.6 2.1-.3 1.15-3 3.5-.05.05.9 4m19.45-18.8-.6 13.55-3.9-2.05-1.55 10.1 4.65-1.35-1 5.85-1.6 6.35-1.7 4.95q-1.85 4.75-4.35 9l-.2.35-.75 1.25m23.65-45.75-.2-.85m-1.75 19.6q.5-.75.8-2.25m26.55 3.1.75-3.95m-34.1 55.75 24.75-10.65v-2.5l.15-3.75m-.1 3.75h-.05m-49.8-45.7-1.25 1.5m50.55 76.9-1.65-11.25 1.6-4.05M72.2 243.7q.35 1.55 1.05 3.25l45.2 7.45 25.05-20.75.35-3.1-3.5-.55.1 1.75m-.1-1.75-.3-1.8m-23.75-5.15h.95m5.4 36.55-2.05 14.2 3.05 26.8 1.05-1m3.45-3.35.3-.3m-58-91.6-.5-2.9m6.2 39.45.05.45.1 1.75m-.1-1.75-4 2.35m-.35 48.95.3 2m1.7-7.1.6 1.4m55.2 19.25-3.35 3.65v4l.6 3.9m-1.75-16.3V309l3.75-3.95m112.85-72.3.4-3.85m-41.95-9.7 4.05.75 8.6 29.05.4.35q5 5.4 5 12.9 0 5.8-3 10.35m-63.1-58.25 23.65 3.45 1.1 6.9-3.4 26.65 2.35.7v.7l1.7-.6q4.25-1.7 7.75-5.2 6.8-6.8 6.8-16.45 0-3.05-.65-5.8l-1.3-3.7q-.95-2.1-2.3-3.95m-11.95 38.8-.05-2.1v-1m0 1 3.25.95v.05l-.05.4-.6 3.5.25 3.8-11.85 13.1m6.65-24.2-.25 1.75m39.6-4.1 2.95 9.8-11.4 21.75M160.2 44.3l6.55-13.2m-15.65 8.25 18.4-14.05"/><path stroke-width="4.5" stroke-linejoin="round" stroke-linecap="round" stroke="#331c19" fill="none" d="m183.55 51.55-.1.05 10.45 3.1-.9-6.5-9.45 3.35m-2.3-.7 2.2.75m-16.4-5.15 14.2 4.4m-14.2-4.4-6.85-2.15-8.9-2.8-.2-2.15-.3-2.95-.2-2.15-13.5-4.35-7.65-2.45-.65-.2-.8 9.3 6.9 4.4 6.4 2.1h.05l2.65.9.75.2 1.6.55 11.75 3.85 4.1 1.3 4.05 1.35 50.05 16.35 2.45.8L211 60.6l-.75-6.35L193 48.2m22 37.55-62.45-20.9-12.4 6.15-3.95 5.85-8.15 12.05q-22.55 9.55-41.5 11.75L80.4 98.6q-1.9.8-2.95 2.15l-.25.3.4 2.1.35 1.95 2.5 1.8 4.9 2.1q23.6-2.8 47.25-11.85l4.75-5.6 9.35-11.1 1.7-2 5.9-2.9 11.1 3.7 26.2 8.5 8.65 2.8 15.1 4.95q1 1.2 1.95 3.1l1.4 3.25 1.6 5 .4 1.6.1.25-1.75 1.15-3.3 2.15-15.35 2.15-9.6 1.15 16.2 3.6 12.2-1.1q5.8-2.6 8.95-5.95l.7-.85q-1.7-12.5-4.5-19.6l-4.95-4.2-3.9-1.3m-12.2 8.45v.5m-56.6-14.4.05 5.6 11.2 3.05 3.25-2.3v-.7l.05-2.5 3.65.9.5-5.25m-4.2 6.85 1.75.35 1.95-1.85v-.1m42.45 16.55h.5v-1.3l-.5-.15v1.45l-3.25 1.2-3.75-.95-.1-10.75m18.5-22.2.65 18.85m-11.55 13.85v2.15l3.7 1 3.6-1.1.2-7.6M77.6 103.15l-11.45 3.3 1.75 10.75 1.8 11.3.25 1.6.2.05 2.65.3 6.5.15 6.8-.05 10.3-.2 1.95-.1 12.95-.75 14.3-1.65q7.3-2.75 13.5-7.1 11-6.65 12.65-6.65l15.45 1.5 38.3 5.7 8.8.5.15-1.35-7.45-1.55m7.3 2.9-.7 7.95-7.55 10.05-6.2 4.25m-9.05-28.75-8.95-2.65-5.45-1.15-26.15-5.6-1.75 1-.6.35-4.7 2.7-11.15 6.4-41-3.6-5.7-3.75m83.75 32.1-9.05-1m18.8 2.1-9.75-1.1m7.3-29.6 12.2.45q24.1 0 30.45-2.1M97.6 56.7l14.35-11.75.75-.65 4.55-4.75m-20.65 18 1-.85m15.1-12.4 11.3-5.6 1.2 26.45-20.8 12.7-.25-18.9-8.1 2.9m47.15 48.1L141 95.6l-3.65-4.05m13-7.9h.1l-.1.05v-.05m-15.45-42.7L136 62.6l.2 14.25m-7.4-49.6L117.55 39.2m-51.4 67.25-.05-.3 4.65-27.4 1.85-1.55m75.3 30.05.6-.35m-12 30.6-12.45-1.4m12.45 1.4 10.5 1.15 13.05 1.45m-63.8-7.05-10.5-1.2-12.95-1.4m50.7 5.6-12.45-1.4-14.8-1.6m27.25 3 .55.05m-56.7 50.75 32.95 2.2M72.2 243.7l45.9 6.9m-47.05 38.8 53.45 13.85m-56.55-7.5 58.35 16.1M63.85 247.8l58.8 11.8M57.4 205.15l61.4 6.6M141 95.6l50.6-7.85"/><path fill-rule="evenodd" fill="url(#d)" d="m240.9 205.4.05 6.75-.95 2.2-.1 12.3-.4 3.85-18.95 38.25-2.75-13.3.8-1.7.05-4.8 22.25-43.55" transform="translate(2.25 2.25)"/><path fill-rule="evenodd" fill="url(#e)" d="m242.9 227.2-.55 3.4-19.5 42.65-.35-2.25 20.4-43.8m-5.1-22.45 3.1.65-22.25 43.55-32.1-7.7 8.95-6.8q24.95-18.85 32.65-23.4l9.65-6.3" transform="translate(2.25 2.25)"/><path fill-rule="evenodd" fill="url(#f)" d="m183 240.4 26.4-41.35 28.4 5.7-9.65 6.3q-7.7 4.55-32.65 23.4l-8.95 6.8-3.55-.85" transform="translate(2.25 2.25)"/><path fill-rule="evenodd" fill="url(#g)" d="m239.9 226.65 3 .55-20.4 43.8.35 2.25-32-9.4-2.25-2.25 2.7-3.7-3.85-10.35-1.2-1.2-3.25-5.95 3.55.85 32.1 7.7-.05 4.8-.8 1.7 2.75 13.3 18.95-38.25.4-3.85m-47.25 34.7-1.35-3.45 1.35 3.45" transform="translate(2.25 2.25)"/><path stroke-width=".05" stroke-linejoin="round" stroke-linecap="round" stroke="#9e6b53" fill="none" d="m193.55 260.15-3.85-10.35-1.2-1.2-3.25-5.95 3.55.85m52.95-10.75.4-3.85m-48.6 31.25 1.35 3.45"/><path stroke-width=".05" stroke-linejoin="round" stroke-linecap="round" stroke="#744e3f" fill="none" d="m243.15 207.65.05 6.75-.95 2.2-.1 12.3 3 .55-.55 3.4-19.5 42.65-32-9.4-2.25-2.25 2.7-3.7m-8.3-17.5 26.4-41.35 28.4 5.7 3.1.65"/><path fill-rule="evenodd" fill="url(#h)" d="M197.1 241.05q7.85 0 13.4 5.55 5.5 5.55 5.5 13.4 0 7.85-5.5 13.4-5.55 5.5-13.4 5.55-7.9-.05-13.4-5.55-5.55-5.55-5.55-13.4 0-7.85 5.55-13.4 5.5-5.55 13.4-5.55" transform="translate(2.25 2.25)"/><path stroke-width=".05" stroke-linejoin="round" stroke-linecap="round" stroke="#744e3f" fill="none" d="M199.35 243.3q7.85 0 13.4 5.55 5.5 5.55 5.5 13.4 0 7.85-5.5 13.4-5.55 5.5-13.4 5.55-7.9-.05-13.4-5.55-5.55-5.55-5.55-13.4 0-7.85 5.55-13.4 5.5-5.55 13.4-5.55z"/><path fill-rule="evenodd" fill="url(#i)" d="M198.4 225.7q-1.55-.6-3.8-1.3v-.35q0-2.2-3.4-3.9l-.9-.4q-1.8-1.15-3.65-1.15l-.1.05-5.85-.5q-10.45 0-19.35 12.65-3 4.3-5.25 9.15-1.75 3.95-1.8 5.05l-2.5-.55 10.55-33.8L202 217.7l-3.6 8m-5.3 11.95.25-.55-.25.55" transform="translate(2.25 2.25)"/><path fill-rule="evenodd" fill="url(#j)" d="M154.3 245q.05-1.1 1.8-5.05 2.25-4.85 5.25-9.15 8.9-12.65 19.35-12.65l5.85.5.1-.05q1.85 0 3.65 1.15l.9.4q3.4 1.7 3.4 3.9v.35q2.25.7 3.8 1.3l-5.05 11.4-.25.55-6.65 14.9L154.3 245" transform="translate(2.25 2.25)"/><path fill-rule="evenodd" fill="url(#k)" d="m198.4 225.7 3.6-8 11.55 38.85-13.3 25.35.65 1.55-1.3 2.8-12.95-31.15.9-2.3-1.1-.25 6.65-14.9.25-.55 5.05-11.4" transform="translate(2.25 2.25)"/><path fill-rule="evenodd" fill="url(#l)" d="m149.2 246.7 37.45 8.4 12.95 31.15-31.7-7.2-18.7-32.35" transform="translate(2.25 2.25)"/><path fill-rule="evenodd" fill="url(#m)" d="m151.8 244.45 2.5.55 32.15 7.55 1.1.25-.9 2.3-37.45-8.4.95-2.65 1.65.4" transform="translate(2.25 2.25)"/><path stroke-width=".05" stroke-linejoin="round" stroke-linecap="round" stroke="#9e6b53" fill="none" d="m154.05 246.7 2.5.55m-2.5-.55-1.65-.4-.95 2.65"/><path stroke-width=".05" stroke-linejoin="round" stroke-linecap="round" stroke="#744e3f" fill="none" d="m204.25 219.95-39.65-7.05-10.55 33.8m47.8 41.8-31.7-7.2-18.7-32.35m50.4 39.55 1.3-2.8-.65-1.55 13.3-25.35-11.55-38.85"/><path fill-rule="evenodd" fill="url(#n)" d="M143.5 225.5q.3.3.75.3.55 0 1.95-3.55 1.75-4.55 3.4-6.9 1.8-2.45 6.2-5.1 6.35-3.8 12.95-3.8l2.75.15-.35-.3-.7-.5-.45-.35-.2-.1-.05-.05-.1-.05-.05-.05q7.7.85 13.45 6.6 4.65 4.65 6.15 10.65l-1.85-2.45-4.75-6.45q-2.9-3.25-7.8-5.3l-2.1-.6.25.25q5.55 5.55 5.55 13.4 0 7.8-5.55 13.35-5.5 5.5-13.35 5.55-7.85-.05-13.35-5.55-1.6-1.6-2.7-3.35l-.2-3.05q0-1.4.15-2.75" transform="translate(2.25 2.25)"/><path fill-rule="evenodd" fill="url(#o)" d="m169.6 205.2.05.05.1.05.05.05.2.1.45.35.7.5.35.3-2.75-.15q-6.6 0-12.95 3.8-4.4 2.65-6.2 5.1-1.65 2.35-3.4 6.9-1.4 3.55-1.95 3.55-.45 0-.75-.3.85-7.9 6.65-13.7 6.8-6.8 16.45-6.8l3 .2" transform="translate(2.25 2.25)"/><path fill-rule="evenodd" fill="url(#p)" d="M143.55 231.3q1.1 1.75 2.7 3.35 5.5 5.5 13.35 5.55 7.85-.05 13.35-5.55 5.55-5.55 5.55-13.35 0-7.85-5.55-13.4l-.25-.25 2.1.6q4.9 2.05 7.8 5.3l4.75 6.45 1.85 2.45q.65 2.75.65 5.8 0 9.65-6.8 16.45-6.8 6.8-16.45 6.8-9.65 0-16.45-6.8-5.7-5.7-6.6-13.4" transform="translate(2.25 2.25)"/><path stroke-width=".05" stroke-linejoin="round" stroke-linecap="round" stroke="#9e6b53" fill="none" d="M145.75 227.75q-.15 1.35-.15 2.75l.2 3.05m26.05-26.1-3-.2q-9.65 0-16.45 6.8-5.8 5.8-6.65 13.7"/><path stroke-width=".05" stroke-linejoin="round" stroke-linecap="round" stroke="#744e3f" fill="none" d="M191.45 224.7q-1.5-6-6.15-10.65-5.75-5.75-13.45-6.6m19.6 17.25q.65 2.75.65 5.8 0 9.65-6.8 16.45-6.8 6.8-16.45 6.8-9.65 0-16.45-6.8-5.7-5.7-6.6-13.4"/><path fill-rule="evenodd" fill="url(#q)" d="m92.05 245.55-1.25-.25 1.3.25h-.05m80.45-29.2h-.55q-16.15 2-29.2 2l-25.7 1.45q-5.45 3.05-12.75 7.2-7.7 4.2-13.45 7.7-11.1 6.75-11.1 9.05l.2 1.2q.55 1.1 2 1.1l2-.5q9.3 2.85 29.1 6.55l11.4 2.1-4.05 3.15-58.8-11.8 58.8 11.8-2.05 14.2L58.9 258.8l2.7-13.25 65.45-36.8 46.5 6.8-1.05.8m-56.05 10.55-.1-.15.05-.05.05.2m4.95 71.45.3-.3.5 2.9.05.05-53.45-13.85 2.8-1.85.6 1.4 49.2 11.65m4.5-4.35.3-.3h.05l-.35.3m-56.3-3.6.3 2 53 14.35 1-1.1.5 2.45.25.85-.6.65-58.35-16.1 3.9-3.1m56.85 7.2-.05.05-.05-.15.1.1" transform="translate(2.25 2.25)"/><path fill-rule="evenodd" fill="url(#r)" d="M92.05 245.55h.05l-1.3-.25 1.25.25m32.4 8.65-11.4-2.1q-19.8-3.7-29.1-6.55l-2 .5q-1.45 0-2-1.1l-.2-1.2q0-2.3 11.1-9.05 5.75-3.5 13.45-7.7 7.3-4.15 12.75-7.2l25.7-1.45q13.05 0 29.2-2h.55l-48.05 37.85m-8-27.3-.05-.2-.05.05.1.15m5.25 71.15V298l.75-.65 3.45-3.35.35-.3h-.05l44.8-42.85.25-1.75 2.35.7-47.15 47.8-.1-.1.05.15-3.5 3.55-.65-.2-.05-.05-.5-2.9.75-.7-.75.7m2.95 10.9-.25-.85-.5-2.45 2.25-2.3.5-.6v.05l47-49.2-.05-2.1 3.25.95v.05l-49.45 53.45-2.75 3m2-6.15-.5.55.5-.55" transform="translate(2.25 2.25)"/><path fill-rule="evenodd" fill="url(#s)" d="m172.5 216.35 1.05-.8 1.1 6.9-3.4 26.65-.25 1.75-44.8 42.85-.3.3-3.45 3.35-.75.65v.05l-.3.3-3.05-26.8 2.05-14.2 4.05-3.15 48.05-37.85m-49.6 90.4v-5.55l3.5-3.55.05-.05 47.15-47.8v1.7l.05 2.1-47 49.2v-.05l-.5.6-2.25 2.3-1 1.1m1.15 2.85.6-.65 2.75-3 49.45-53.45-.65 3.9.25 3.8-51.8 57.3-.6-3.9v-4" transform="translate(2.25 2.25)"/><path fill-rule="evenodd" fill="url(#t)" d="m118.35 271.55 3.05 26.8-49.2-11.65-.6-1.4-12.7-26.5 59.45 12.75" transform="translate(2.25 2.25)"/><path fill-rule="evenodd" fill="url(#u)" d="m69.9 292.4-.3-2-.8-3.25L122.25 301l.65.2v5.55l-53-14.35m-4.2 1.1 58.35 16.1v4l.6 3.9-56.05-16.8-.7-2.85-2.2-4.4v.05" transform="translate(2.25 2.25)"/><path stroke-width=".05" stroke-linejoin="round" stroke-linecap="round" stroke="#9e6b53" fill="none" d="m129.3 211-65.45 36.8m58.8 11.8-2.05 14.2 3.05 26.8.3-.3m4.2-4.05.3-.3m44.8-42.85.25-1.75m-101.65 41.3.3 2m53 14.35v-5.55m-54.1-14.05.8 3.25-3.9 3.1m58.35 16.1.6-.65 2.75-3m-3.5-.3-1 1.1m-51.3-21.45.6 1.4m-.6-1.4-12.7-26.5 2.7-13.25m7.2 41.6 2.8-1.85m53.05 32.2-56.05-16.8-.7-2.85-2.2-4.4v.05m107.95-39.9-.05-2.1v-1.7m-47.15 47.8-.05.05m-3.95-.3-.75.7m2.2 7.6 2.25-2.3.5-.55m50.2-50.3v-.05m-52.8 57.15v4l.6 3.9"/><path stroke-width=".05" stroke-linejoin="round" stroke-linecap="round" stroke="#f0e7c1" fill="none" d="m63.85 247.8 58.8 11.8m1.85 43.65L71.05 289.4m-3.1 6.35 58.35 16.1"/><path stroke-width=".05" stroke-linejoin="round" stroke-linecap="round" stroke="#744e3f" fill="none" d="m175.8 217.8-46.5-6.8m44.2 40.35 3.4-26.65-1.1-6.9m3.3 36.9-3.25-.95m-48.95 66 51.8-57.3-.25-3.8.65-3.9m-3.25-2.7-2.35-.7"/><path fill-rule="evenodd" fill="url(#v)" d="m59.25 145 12.9.5q2.65 5.5 7.25 14.2 7.9 12.85 12.4 18.65l-23.55-1.55-9.75-24.45.75-7.35m52.1 2 .9-.1 1.1 2.85 2.1 5.1q0 1.7-2.15 12.45l-1.95 12.15-.15.05 2.9 8.15-.5.15 1.5-.5-.7 10.65v6.5l-.05 1.25-.85.35h-.35L68.2 202.1l-.5-2.9-2.6-14.6 32.95 2.2q-.7 7.6-.7 9.65 0 1.8 1.65 1.8 3.35 0 13.95-8.3l.45-.35v-1.75l-.45-1.5h-.05l-2.15-6.75.05-.35 3.15-25.1-2.6-7.15m22.7 26.05-.15-.45q.45-1.05 1.75-6.9l2.3-11.5q.3-2.6 1.45-6.45l.7 2.5-5.2 22.55q1.05 3 3.15 5.85l.45.95-.7.25.9-.3-.3 9.6-.1 3.75h-.05v2.5l-.65.3q-.35-.35-.4-1.95l-.05-5.2q0-3.6.35-8.25l.05-.35.25-.1-.05-.05-2.2-3.6q-1.1-1.9-1.5-3.15m-60.1 66.05-1-16.25L70.5 216q6.5 3 18.1 7.25 6.2 2.65 25.05 12.2l1.4 11.85-41-6.45-.1-1.75m30.7-58.5.05.05h-.05v-.05m33.75 8.55-.15 3.75.15-3.75" transform="translate(2.25 2.25)"/><path fill-rule="evenodd" fill="url(#w)" d="m72.15 145.5-12.9-.5 25.3-2.8 53.85 2.05-26.15 2.65-.9.1-39.2-1.5 39.2 1.5 2.6 7.15-3.15 25.1-12.25-.45-6.75-.45q-4.5-5.8-12.4-18.65-4.6-8.7-7.25-14.2m39.2 33.95 22.7-6.4q.4 1.25 1.5 3.15l2.2 3.6-.2.15-.15.05-23.3 7.65-2.9-8.15.15-.05m26.7-.8.65.9-.9.3.7-.25-.45-.95m13.15 15.25-.25 4.15-1.7.85-32.5 15.85-.2-5.25 2.65-1.2 32-14.4m-9.6 34.4-.35 3.1-25.05 20.75-.35-3.8h.05l25.7-20.05" transform="translate(2.25 2.25)"/><path fill-rule="evenodd" fill="url(#x)" d="m112.25 146.9 26.15-2.65 1 3.5q-1.15 3.85-1.45 6.45l-2.3 11.5q-1.3 5.85-1.75 6.9l.15.45-22.7 6.4 1.95-12.15q2.15-10.75 2.15-12.45l-2.1-5.1-1.1-2.85m25.9 62.3-2.05 5.15 1.65 11.25.05.35h-.05l-24.9 2.5-.15-1.15 1.35-6.5h1.9l22.2-11.6m-24.05-21.55 23.3-7.65.1.3q-.35 4.65-.35 8.25l.05 5.2q.05 1.6.4 1.95l-23.25 10 .05-1.25v-6.5l.7-10.65-1.5.5.5-.15" transform="translate(2.25 2.25)"/><path fill-rule="evenodd" fill="url(#y)" d="m111.35 179.45-.15.05.15-.05m26.2.5.2-.15.05.05-.25.1" transform="translate(2.25 2.25)"/><path fill-rule="evenodd" fill="url(#z)" d="m137.8 225.95.3 1.8.1 1.75-23.15 17.8-1.4-11.85-.8-7 24.9-2.5h.05m-.4-45.95.15-.05-.05.35-.1-.3" transform="translate(2.25 2.25)"/><path fill-rule="evenodd" fill="url(#A)" d="m68.25 176.8 23.55 1.55 6.75.45-.1 4.85-.2 3.15h-.2l-32.95-2.2 3.15-7.8m1.7 64.65 4-2.35.1 1.75 41 6.45h-.25q.1.7 1.1 1.05h-.05l-45.9-6.9m-14.8-38.55 12.55-3.7.5 2.9 44.95 3.95q.05.8 3.8 1.75l2.25.5-2.65 1.2-61.4-6.6" transform="translate(2.25 2.25)"/><path fill-rule="evenodd" fill="url(#B)" d="M116.2 252.15 71 244.7q-.7-1.7-1.05-3.25l45.9 6.9.35 3.8m-58-43.8-1.65-.2-1.4-5.25 61.4 6.6.2 5.25-1.9-.2-56.65-6.2" transform="translate(2.25 2.25)"/><path fill-rule="evenodd" fill="url(#C)" d="m138.3 192.9 12.9 1-32 14.4-2.25-.5q-3.75-.95-3.8-1.75h.35l.85-.35 23.25-10 .65-.3v-2.5h.05m-.2 34.85 3.5.55-25.7 20.05q-1-.35-1.1-1.05h.25l23.15-17.8-.1-1.75M70.15 215l-10.4-1.4-1.55-5.25 56.65 6.2.15 6.25h-.95l-43.9-5.8" transform="translate(2.25 2.25)"/><path fill-rule="evenodd" fill="url(#D)" d="m149.25 198.9-.75 4.5-10.35 5.8-22.2 11.6H115l-.15-6.25 1.9.2 32.5-15.85" transform="translate(2.25 2.25)"/><path fill-rule="evenodd" fill="url(#E)" d="m70.5 216-.35-1 43.9 5.8-1.35 6.5.15 1.15.8 7q-18.85-9.55-25.05-12.2Q77 219 70.5 216" transform="translate(2.25 2.25)"/><path fill-rule="evenodd" fill="url(#F)" d="m98.25 186.8.2-3.15.1-4.85 12.25.45-.05.35 2.15 6.75h.05l.45 1.5v1.75l-.45.35q-10.6 8.3-13.95 8.3-1.65 0-1.65-1.8 0-2.05.7-9.65l.2.05v-.05m6.4-6.2v.05h.05l-.05-.05" transform="translate(2.25 2.25)"/><path fill-rule="evenodd" fill="url(#G)" d="M98.05 186.8h.2v.05l-.2-.05" transform="translate(2.25 2.25)"/><path stroke-width=".05" stroke-linejoin="round" stroke-linecap="round" stroke="#9e6b53" fill="none" d="m61.5 147.25 12.9.5 39.2 1.5.9-.1 26.15-2.65-53.85-2.05-25.3 2.8-.75 7.35 9.75 24.45-3.15 7.8m74.3-36.85-1-3.5m1 3.5.7 2.5-5.2 22.55q1.05 3 3.15 5.85l.65.9-.3 9.6m-.1 3.75 12.9 1-.25 4.15-1.7.85-.75 4.5-10.35 5.8-2.05 5.15 1.65 11.25m.05.35.3 1.8 3.5.55-.35 3.1-25.05 20.75-45.2-7.45q-.7-1.7-1.05-3.25l4-2.35-1-16.25-2.45-6.85-.35-1-10.4-1.4-1.55-5.25-1.65-.2-1.4-5.25 12.55-3.7-2.6-14.6m72.5 11.1.65-.3v-2.5l.15-3.75m-.1 3.75h-.05m-24.3-38.75-2.6-7.15m26.85 82.5-.1-1.75m-69.9-25.65-.5-2.9m46.65 6.5-.85.35m1.5 14.75h-.95m1.85 27.55h-.05m-41.9-9.25.1 1.75m63.55-45.15-23.25 10"/><path stroke-width=".05" stroke-linejoin="round" stroke-linecap="round" stroke="#f0e7c1" fill="none" d="m67.35 186.85 32.95 2.2m17.8 61.55-45.9-6.9m-14.8-38.55 61.4 6.6"/><path fill-rule="evenodd" fill="url(#H)" d="m134.8 192.75-17.7 7.5V191l18.15-6.2-.45 7.95M132 226.7l-4.2.6-7.65.65-3.5.45-.05.05-.25-1.6 17.75-9.1.85 6.9-2.95 2.05" transform="translate(2.25 2.25)"/><path fill-rule="evenodd" fill="url(#I)" d="m116.6 228.45.05-.05 3.5-.45 7.65-.65 4.2-.6-14.2 9.65-1.2-7.9" transform="translate(2.25 2.25)"/><path fill-rule="evenodd" fill="url(#J)" d="m107.3 34.55 1.2 3.15 20.6-30.05.5 13.55q0 5.9-.85 11.7l-.6 2.5-.75 3.65-2.35-.25q2.25-12.4 3.4-24.5-1.15 12.1-3.4 24.5l2.35.25q-.8 4.2-1.65 9.8l-.3 1.35-1.1-.4-1.3 3.2-2.3 4.9-.15.55-.1.4.25-.9-2.2 4.45-.05.15.6-.45-53.6 42 .4 6.45.1 2.65.05 1.25-.05.1v11.85q-2.75 3.95-6.2 7.3-2 2.05-12.45 4.75l-14.75 3.5-9.55 1.1-6.85.25q8.2-14.95 19.95-31.35l.2.05 6.95 1.1q10.45-4.65 16.9-11l1.25-1.35 1.15-1.35-.95.95q-7.05 6.55-17.55 11.6L.35 105.6q15-14.25 30.15-23.9l.95 1.15q13.65 4.8 24.6 2.8l-.4-.05-3.45-.3-10.35-1.55-8.8-1.95 8.8 1.95-.7-.1q-3.9-.45-7.4-1.65h-.05l-.65-.2-1.5-.35-.1-.15-.25-.35Q19.05 64.35 7.05 46.4q21 1.95 37.65 5.2l2.85.55 3.45.8.35.25-.35-.25-3.45-.8q-3.65-18.5-3.1-45.3 17.6 11.5 31.15 28.3l.95 1-.1.3q0 .7 2.1 3.25 3.65 9.7 1.55 17.9l2.35 3.5-.05.05v.5q.1.5.5.5l.3-.1q1.3-.85 1.45-10.05l-.1-3.7q-.2-1.4-1.65-4.3-3.05-6.2-4.9-7.6L91.3.05q9.85 18.55 16 34.5m13.45 23.35 2.05-8.65 1.55.55-1.55-.55-2.05 8.65m16.35-15.7.2-.15.35 3.55.15 1.85-.05.05-.2-1.85.1-.05-.1.05-.45-3.45m4.7-3.35 22.9-15.7 2.55-.1-25.5 19.4.05-3.6M105.35 176.1q-4.85 5-10.85 9.35-1.3-16.55-5.15-34.25l1.05-1.5 6.55 8.9q3.95 5.55 5.55 9.6l.6 1.6 2.25 6.3m-31.5-108q-2.45-9.2-8.05-21.2l5.45-.65Q69.3 40.1 65.9 34.9l-4.05 4.4L46.8 10.6l15.05 28.7 4.05-4.4q3.4 5.2 5.35 11.35l-5.45.65q5.6 12 8.05 21.2m-8.15 1.3.95.9 1.95.55q1.35 0 1.3-1.05-.1-1.1-1.9-4.35-1.8-3.25-3.25-4.9-1.5-1.7-6.75-4.7Q53 53 52.3 53l-.95.2Q61.7 59.55 65 68.45l.7.95m29.15-7.85q1.1-10.25.05-19.95l4.7 1.5-.5-12.3-4.8 1.6-3.05-24.6 3.05 24.6 4.8-1.6.5 12.3-4.7-1.5q1.05 9.7-.05 19.95m-15.15-2.7.4-1.25-.4 1.25M102.95 62l2.3-3.1q4.5-7.1 4.45-17.7l-1.2-3.5 1.2 3.5q.05 10.6-4.45 17.7.95 3 2.3 5.7-1.35-2.7-2.3-5.7l-2.3 3.1m-19.25.7-.5-.65.5.65m-26.55 23-1.1-.05 1.1.05m-44.7-36.5L38.6 65.7l1.2-5.35 10.1 6.75-3.7 3.55 14.7 8.05-14.7-8.05 3.7-3.55-10.1-6.75-1.2 5.35-26.15-16.5M60.6 94.15l-18.7 3.6.65-5.25-11.2 2 1.85 4.3q-13.3 3.35-28.65 5.85 15.35-2.5 28.65-5.85l-1.85-4.3 11.2-2-.65 5.25 18.7-3.6M22 141.05q11.35-3.6 22.45-10.3l-4.05-3 8.65-5.35 1.1 4.8q7.65-4.45 13-9.7l2.85-2.95-2.85 2.95q-5.35 5.25-13 9.7l-1.1-4.8-8.65 5.35 4.05 3q-11.1 6.7-22.45 10.3M63.2 98.7l-.6.7.6-.7m-5.9 11.8.15.05.05-.2-.2.15m7.9 19q1.45-.5 7.2 2.05 5.7 2.5 8.45 6.3l6 7.2q-4.45 6.15-11.3 13.55l-9.7 6.75q-4.1 2.95-6.35 4.95 2.15-15.85 1.3-35.55l4.4-5.25M63.45 166q9.9-11.95 14-20.85l-4.8-.95 4.35-7.8 3.05 3.5.8-2.05-.8 2.05-3.05-3.5-4.35 7.8 4.8.95q-4.1 8.9-14 20.85m34.35 14.4q3.1-4.95 5.3-10.6-2.2 5.65-5.3 10.6" transform="translate(2.25 2.25)"/><path fill-rule="evenodd" fill="url(#K)" d="m129.1 7.65 1.4-2q4.45 20.15 6.6 36.45v.1l.45 3.45.2 1.85.05-.05-.15-1.85-.35-3.55 4.5-3.2-.05 3.6 25.5-19.4q-2.1 24.7-7.1 44-4.5 6.85-10.05 10.55 2.15 3.7 4.7 9.5l3.35 7.9q3.95 9.8 7.25 19.65 3.9.95 8.1 3.2 11.45 12 21.95 29.9l-1.2 1.7q-12.35-2.4-26.7-4.35 1.05 11.75 1.35 26.05-1.15-.05-2.1.4l-19.95-17.3q-2.55 12.85-7.7 28.5-7.65-16.9-18.85-31.6-.3 1.5-.8 2.25-2.55 6.9-6.5 13l-3.35 4.7-.15.15-4.15 4.85-2.25-6.3-.6-1.6q-1.6-4.05-5.55-9.6l-6.55-8.9-1.05 1.5-.9-4 .05-.05 3-3.5.9-3.25 1.15-5.8.5-4.4q2.45-2.85 5.2-5.05.85-.7 1.8-1.35-.95.65-1.8 1.35-2.75 2.2-5.2 5.05l-.5 4.4-1.15 5.8-.9 3.25-3 3.5-.05.05.9 4-1.25 1.65-.9-4.15q-10.75 14.9-27.85 22.7l-.7-.35.85-.75q2.25-2 6.35-4.95l9.7-6.75q6.85-7.4 11.3-13.55l-6-7.2q-2.75-3.8-8.45-6.3-5.75-2.55-7.2-2.05l1.15-1.6.55-.8 2-3.3 2.6-5.95-2.6 5.95-2 3.3-.55.8-1.15 1.6-4.4 5.25-2.2 2.3-1 .9q-19.65 6.1-42.5 7.35l1.1-2 6.85-.25 9.55-1.1 14.75-3.5q10.45-2.7 12.45-4.75 3.45-3.35 6.2-7.3v-11.85l.05-.1-.05-1.25-.1-2.65-.4-6.45 53.6-42-.6.45.05-.15 2.2-4.45-.25.9.1-.4.15-.55 2.3-4.9 1.3-3.2 1.1.4 1.9.7q2.25-5.5 2.9-11.55l-2.85-.3 2.85.3q-.65 6.05-2.9 11.55l-1.9-.7.3-1.35q.85-5.6 1.65-9.8l.75-3.65.6-2.5q.85-5.8.85-11.7l-.5-13.55M118 67.05l1.7-5.45.9-3.15-.9 3.15-1.7 5.45M66.35 114.1l-.3.35.3-.35m-30.85-2.25L0 105.95l.35-.35 43.75 6.35q10.5-5.05 17.55-11.6l.95-.95-1.15 1.35-1.25 1.35q-6.45 6.35-16.9 11l-6.95-1.1-.2-.05-.65-.1m-5-30.15-.85-1-.4-.45 1.95.7.25.35-.25-.35.25.35.1.15 1.5.35.65.2h.05q3.5 1.2 7.4 1.65l.7.1L52.2 85.3l3.45.3.4.05q-10.95 2-24.6-2.8l-.95-1.15m95.95-10.4-.25-2.95q8.6-5.85 11.75-18.55l-.2-2.3.2 2.3q-3.15 12.7-11.75 18.55l.25 2.95m15.3-28.85-4.1 3.15 4.1-3.15m7.55 17.05 15.2-30.65-15.2 30.65m-97.95-6.3.95-.2q.7 0 5.7 2.85 5.25 3 6.75 4.7 1.45 1.65 3.25 4.9 1.8 3.25 1.9 4.35.05 1.05-1.3 1.05l-1.95-.55-.95-.9-.7-.95q-3.3-8.9-13.65-15.25M77.6 37.45l.15.35.8 1.9-.8-1.9-.15-.35.3-.75.1-.3q1.85 1.4 4.9 7.6 1.45 2.9 1.65 4.3l.1 3.7q-.15 9.2-1.45 10.05l-.3.1q-.4 0-.5-.5v-.5l.05-.05-2.35-3.5q2.1-8.2-1.55-17.9-2.1-2.55-2.1-3.25l.1-.3.4.4.5.55.15.35m5.6 24.6-.75-.95.75.95M57.3 110.5l.2-.15-.05.2-.15-.05m28.45 9q-.75 4.5-1.9 8.9l-1.05 3.65-1.95 5.8 1.95-5.8 1.05-3.65q1.15-4.4 1.9-8.9m1.45 29.2 1.25-1.5-1.25 1.5m6.85-18.5q.4-5.75-.6-10.8 1 5.05.6 10.8m15.05-4.25-.9 20-3.9-2.05-1.55 10.1 4.65-1.35-1 5.85-1.6 6.35-1.7 4.95 1.7-4.95 1.6-6.35 1-5.85-4.65 1.35 1.55-10.1 3.9 2.05.9-20m12.35 8.7q.75-1.8 1.7-3.35-.95 1.55-1.7 3.35 1.6 4.9-.85 14l-.3 2.5.3-2.5q2.45-9.1.85-14-.7-2.85-2.05-5.4 1.35 2.55 2.05 5.4m21.6-53.8q3.7-1.05 7.05-3.25-3.35 2.2-7.05 3.25m3.5 42.65q6.55 3.85 12.25 16.5l-4 .6 2.95 6.4 3.35-1.25q3.95 9.45 6.15 21-2.2-11.55-6.15-21l-3.35 1.25-2.95-6.4 4-.6q-5.7-12.65-12.25-16.5m5.95-2.8q8.3 3.35 13.65 13.3l1.2 8.85.2 2.25-.2-2.25-1.2-8.85q-5.35-9.95-13.65-13.3m2.2-6.5q5.15-1 10.7.45-5.55-1.45-10.7-.45m37.25 31.15q-6.85-8.5-15.55-14.05l-1.95 2.1-5.85-4.3 3.2-3.05q-6.6-6.6-14.1-8.65 7.5 2.05 14.1 8.65l-3.2 3.05 5.85 4.3 1.95-2.1q8.7 5.55 15.55 14.05m-60.8-16.9q4.5 8.9 5.8 15.85l-4.75-.6 2.4 10.6 3.85-2.95q1.9 16.75.7 24.5 1.2-7.75-.7-24.5l-3.85 2.95-2.4-10.6 4.75.6q-1.3-6.95-5.8-15.85m8.05 1.15q6.9 5.65 8.95 16.75l-.55 3.95-.75 3.95.75-3.95.55-3.95q-2.05-11.1-8.95-16.75m-79.85 41.8.15-1.1-.15 1.1m136.1-23.65-28.1-4.9 28.1 4.9m-26.55 23.4-21.3-20.85 21.3 20.85" transform="translate(2.25 2.25)"/><path fill-rule="evenodd" fill="url(#L)" d="m130.5 5.65-1.4 2-20.6 30.05-1.2-3.15L127.4 6.4l3.1-.75" transform="translate(2.25 2.25)"/><path fill-rule="evenodd" fill="url(#M)" d="M29.65 80.7Q16.55 65.65 5.1 48.1l1.95-1.7q12 17.95 24.15 34.55l-1.95-.7.4.45M44.7 51.6l-.65-.9q-3.45-21.8-1.6-43.35l2-.5q-.55 26.8 3.1 45.3l-2.85-.55m30.9-16.45 13.15-33.9Q90-.15 91.3.05L78 36.4l-.1.3-.3.75-.15-.35-.5-.55-.4-.4-.95-1" transform="translate(2.25 2.25)"/><path fill-rule="evenodd" fill="url(#N)" d="m139.15 182.75-2.25-.3q-6.2-14-17.4-29.05.5-.75.8-2.25 11.2 14.7 18.85 31.6m-44.65 2.7L92.3 184q-.4-13.2-4.2-31.15l1.25-1.65q3.85 17.7 5.15 34.25m-35.85-14.4-.75-.75.7-33.25 2.2-2.3q.85 19.7-1.3 35.55l-.85.75M15.1 145.3l-.7.05q9.65-19.05 21.1-33.5l.65.1Q24.4 128.35 16.2 143.3l-1.1 2" transform="translate(2.25 2.25)"/><path stroke-width=".05" stroke-linejoin="round" stroke-linecap="round" stroke="#760a0a" fill="none" d="m131.35 9.9 1.4-2-3.1.75-20.1 28.15 1.2 3.15 1.2 3.5q.05 10.6-4.45 17.7.95 3 2.3 5.7m19.85-25.55 2.85.3q-.65 6.05-2.9 11.55l-1.9-.7-1.1-.4-1.55-.55-2.05 8.65-.15.55-.9 3.15-1.7 5.45m10.45-52.75q-1.15 12.1-3.4 24.5l2.35.25M68.3 116.7l.3-.35M132.75 7.9q4.45 20.15 6.6 36.45v.1l.2-.15 4.5-3.2 22.9-15.7 2.55-.1q-2.1 24.7-7.1 44-4.5 6.85-10.05 10.55-3.35 2.2-7.05 3.25m22.35 33.8q3.9.95 8.1 3.2 11.45 12 21.95 29.9l-1.2 1.7q-12.35-2.4-26.7-4.35 1.05 11.75 1.35 26.05-1.15-.05-2.1.4l-19.95-17.3q-2.55 12.85-7.7 28.5l-2.25-.3q-6.2-14-17.4-29.05-2.55 6.9-6.5 13l-3.35 4.7-.15.15-4.15 4.85q-4.85 5-10.85 9.35l-2.2-1.45q-.4-13.2-4.2-31.15l-.9-4.15q-10.75 14.9-27.85 22.7l-.7-.35-.75-.75.7-33.25-1 .9q-19.65 6.1-42.5 7.35l-.7.05q9.65-19.05 21.1-33.5l-35.5-5.9.35-.35q15-14.25 30.15-23.9l-.85-1Q18.8 67.9 7.35 50.35l1.95-1.7q21 1.95 37.65 5.2l-.65-.9q-3.45-21.8-1.6-43.35l2-.5q17.6 11.5 31.15 28.3L91 3.5q1.25-1.4 2.55-1.2 9.85 18.55 16 34.5M140 49.75l.2 2.3q-3.15 12.7-11.75 18.55l.25 2.95m11.2-25.7-.1.05.2 1.85m-.1-1.9 4.1-3.15 25.5-19.4m-30.15 19.15.45 3.45m26.95-16.8-15.2 30.65m-102.5-48.9 15.05 28.7 4.05-4.4q3.4 5.2 5.35 11.35l-5.45.65q5.6 12 8.05 21.2m-22.5-14.9-.35-.25-3.45-.8-2.85-.55m21 17.8-.7-.95q-3.3-8.9-13.65-15.25m39.9-45.4 3.05 24.6 4.8-1.6.5 12.3-4.7-1.5q1.05 9.7-.05 19.95M80.8 41.95l-.8-1.9-.15-.35-.15-.35-.5-.55m1.6 3.15q3.65 9.7 1.55 17.9l2.35 3.5.75.95.5.65m-5.8-26-.3.75m-2-2.3.95 1m3.55 21.45-.4 1.25m25.55.05-2.3 3.1M58.3 87.9l1.1.05M44.1 86l10.35 1.55 3.45.3.4.05q-10.95 2-24.6-2.8l-.95-1.15m2.55.1L44.1 86m-8.8-1.95-1.5-.35-.1-.15-.25-.35m29.7-2.25-14.7-8.05 3.7-3.55-10.1-6.75-1.2 5.35-26.15-16.5m23.7 62.75-.65-.1M6.8 106.9q15.35-2.5 28.65-5.85l-1.85-4.3 11.2-2-.65 5.25 18.7-3.6m2 5.25L63.7 103l-1.25 1.35q-6.45 6.35-16.9 11l-6.95-1.1-.2-.05q-11.75 16.4-19.95 31.35m49.8-28.75-2.85 2.95q-5.35 5.25-13 9.7l-1.1-4.8-8.65 5.35 4.05 3q-11.1 6.7-22.45 10.3M2.6 107.85l43.75 6.35q10.5-5.05 17.55-11.6l.95-.95.6-.7m2.8 15.85.05-.1m5.45 3.4-2.6 5.95-2 3.3-.55.8-1.15 1.6-4.4 5.25-2.2 2.3m22.25.8 1.95-5.8 1.05-3.65q1.15-4.4 1.9-8.9m-4.9 18.35-.8 2.05-3.05-3.5-4.35 7.8 4.8.95q-4.1 8.9-14 20.85m37.6-42.2q-.95.65-1.8 1.35-2.75 2.2-5.2 5.05l-.5 4.4-1.15 5.8-.9 3.25-3 3.5-.05.05.9 4m13.75 18.6 1.7-4.95 1.6-6.35 1-5.85-4.65 1.35 1.55-10.1 3.9 2.05.9-20m-15.65-6.55q1 5.05.6 10.8m-5.6 17-1.25 1.5m33.1 2.45.3-2.5q2.45-9.1.85-14-.7-2.85-2.05-5.4m3.75 2.05q-.95 1.55-1.7 3.35m-1.95 18.75q.5-.75.8-2.25 11.2 14.7 18.85 31.6m7.7-28.5.75-3.95.55-3.95q-2.05-11.1-8.95-16.75m-.05 46.25q1.2-7.75-.7-24.5l-3.85 2.95-2.4-10.6 4.75.6q-1.3-6.95-5.8-15.85m26.55-11.05q7.5 2.05 14.1 8.65l-3.2 3.05 5.85 4.3 1.95-2.1q8.7 5.55 15.55 14.05m-26.55-30.7q-5.55-1.45-10.7-.45m12.85 30.9-.2-2.25-1.2-8.85q-5.35-9.95-13.65-13.3M169.5 169q-2.2-11.55-6.15-21l-3.35 1.25-2.95-6.4 4-.6q-5.7-12.65-12.25-16.5m-131.45 21.8 1.1-2m86.9 26.5q-2.2 5.65-5.3 10.6m-38.3-10.1-.15 1.1m88.25-21.1 21.3 20.85m-1.55-28.3 28.1 4.9"/><path fill-rule="evenodd" fill="#fc3" d="M217.15 84.75v.2l-.6-.15h.25l.35-.05m-4-1.1h.1-.1" transform="translate(2.25 2.25)"/><path fill-rule="evenodd" fill="#ffefcc" d="m122 41.7.95 21.2-19.55 11.9.05-4.25.3-15.05v-.6L114.1 47l7.9-5.3" transform="translate(2.25 2.25)"/><path fill-rule="evenodd" fill="#95762f" d="M205.1 98.8v-1.45l.5.15v1.3h-.5" transform="translate(2.25 2.25)"/><path fill-rule="evenodd" fill="#59371d" d="m146.25 104.65-.6.35.6-.35" transform="translate(2.25 2.25)"/><path fill-rule="evenodd" fill="#8c4011" d="m192.95 113.9.05.15-.45-.1.4-.05" transform="translate(2.25 2.25)"/><path fill-rule="evenodd" fill="#8c2211" d="M225.9 109.6q-3.15 3.35-8.95 5.95l-12.2 1.1-11.75-2.6-.05-.15 11.95-1.3 9.75-1.4 6.25-4.95q-4.4-7.15-6.55-11.75l.7 1.85q-.95-1.9-1.95-3.1l-12.1-4.1-3-.85-8.65-2.8-24.8-8.05L219.7 89.9q1.6 1.65 1.9 2.55l2.7 9.05q.95 3.5 1.6 8.1" transform="translate(2.25 2.25)"/><path fill-rule="evenodd" fill="#763c01" d="m70.55 128.2-2.65-.3 2.65.15v.15" transform="translate(2.25 2.25)"/><path fill-rule="evenodd" fill="#a08467" d="M162.65 82.25v.1l-1.95 1.85-1.75-.35.05-2.5 1.65.4 2 .5m-3.7 2.3-3.25 2.3-11.2-3.05 3.6-2.35.1-.05 10.75 3.15m42.05 4.6 12.1 4.1-.1 4.95q-3.05-1.4-6.7-3.6l-5.25-2.5-.05-2.95m.1 8.6 4 1.05-3.25 1.2-3.75-.95 3-1.3m7.8-.95.1 3 3.9 1.05-3.6 1.1-3.7-1V97.5l3.3-.7" transform="translate(2.25 2.25)"/><path fill-rule="evenodd" fill="#ffead5" d="m144.5 83.8-.05-5.6 1.7-2 1.9-.95v.25l.05 5.9v.05l-3.6 2.35m53.55 10.15q1.05-.3 2.7-1.2l.3-.15.05 5.15-3 1.3-.05-5.1" transform="translate(2.25 2.25)"/><path fill-rule="evenodd" fill="#c2b19a" d="m162.65 82.25-2-.5-3.7-2.05q-.55-.35-7.65-3.6l-1.25-.6v-.25l4-1.95 11.1 3.7-.5 5.25M198 88.3l3 .85.05 2.95v.5l-.3.15q-1.65.9-2.7 1.2L198 88.3" transform="translate(2.25 2.25)"/><path fill-rule="evenodd" fill="#402615" d="m158.95 83.85 1.75.35 1.95-1.85v-.1l.5-5.25 1.4.45 24.8 8.05-50.6 7.85-3.65-4.05 9.35-11.1.05 5.6 11.2 3.05 3.25-2.3v-.7" transform="translate(2.25 2.25)"/><path fill-rule="evenodd" fill="#db6f02" d="m78.05 104.5.15.15 3.3 1.4 3.95 2.25 3.35 2.2 41 3.6 8.1-4.65 3.05-1.75 4.7-2.7.6-.35 1.75-1 22.7 4.85.7.15-.7-.15.8.15h-.1q-14.75-1.4-22.2-2.9l-2 1.1q-9.1 6-13.8 8.8L109.3 114l-19.1-1.3-9.1-6-3.05-2.2" transform="translate(2.25 2.25)"/><path fill-rule="evenodd" fill="#fffcf7" d="m85.45 62.55 25-20.5 11.3-5.6.2 4.9.05.35-7.9 5.3-10.35 7.9v.6l-.3 15.05-.05 4.25-1.25.8-.25-18.4v-.5l-16.45 5.85" transform="translate(2.25 2.25)"/><path fill-rule="evenodd" fill="#8d7258" d="m205.1 97.35.25-1.75 3.55 1.2-3.3.7-.5-.15" transform="translate(2.25 2.25)"/><path fill-rule="evenodd" fill="url(#O)" d="m173.1 46.8 5.9 1.8 2.2.75 2.7.75 7.75 2.35-.15-.85-.1-.85 2.15.55q-1.05-.8-1.05-1.4 0-1.4 2.7-1.4 1.95 0 12.85 4l.05.4.65 5.45 3.55 3.55.6.6.4 1.05Q172.45 50 154.95 43.6l-1.35-.45.1-.3q1.25 0 18.45 3.65l.95.3m40.95 18.5q0 3.35 1.9 14.55l.85 4.9-.15.05-1.3-.45-2.1-.7h-.1l-.4-.15-62.45-20.9-9.2 4.6-.85-2.35q-1.6-15.9-2.75-22.5 1.85.15 22.45 5.25l54.1 17.7" transform="translate(2.25 2.25)"/><path fill-rule="evenodd" fill="url(#P)" d="m172.15 46.5.95.3-.95-.3m18.6-.55L208 52l.1.9-.05-.4q-10.9-4-12.85-4-2.7 0-2.7 1.4 0 .6 1.05 1.4l-2.15-.55.1.85-.75-5.65M212.3 61.9l.6.6-.6-.6m4.2 4.2.65 18.65-.35.05v-.05l-.85-4.9q-1.9-11.2-1.9-14.55l2.45.8" transform="translate(2.25 2.25)"/><path fill-rule="evenodd" fill="url(#Q)" d="m212.9 62.5 3.6 3.6-2.45-.8-54.1-17.7-15.85-5.15-5-1.65-3.8-1.25 3.8 1.25 5 1.65 15.85 5.15q-20.6-5.1-22.45-5.25 1.15 6.6 2.75 22.5l.85 2.35-3.2 1.55-1.4 2.1-.5-10.6-1.05-13.9q-.65-6.75.35-6.8l-2.65-.85-4.7-2.9-2-1.5q1.2-1.35 1.65-3.4l.7-3.2-.45-.15.65.2 10 2.9 9.15 1.65.75.15.65 6.8 23.1 7.25q-17.2-3.65-18.45-3.65h-.8l.7.3 1.35.45q17.5 6.4 58.35 19.95l-.4-1.05" transform="translate(2.25 2.25)"/><path fill-rule="evenodd" fill="url(#R)" d="M216.55 84.8 209.8 83l-7.6-2.6q-9.75-2.5-16.2-4.9l-19.3-6.35-9.6-2.8q-4.55-1.4-6.45-2.3L139.9 70.7q-.35 5.8-10.95 20.3-4.35 3.1-14.65 6.45-23.2 6.55-29.05 7.05-5.85.45-8.15-.65l-1.4-1v-.1l-.35-1.85-.4-2.1.25-.3q1.05-1.35 2.95-2.15l6.15 2.05q18.95-2.2 41.5-11.75l8.15-12.05 2.55-3.75 1.4-2.1 3.2-1.55 9.2-4.6 62.45 20.9.4.15h.1l2.1.7 1.2.45" transform="translate(2.25 2.25)"/><path fill-rule="evenodd" fill="url(#S)" d="m215.35 84.35 1.3.45h-.1l-1.2-.45" transform="translate(2.25 2.25)"/><path fill-rule="evenodd" fill="url(#T)" d="m217.15 84.95 4.95 4.2q2.8 7.1 4.5 19.6l-.7.85q-.65-4.6-1.6-8.1l-2.7-9.05q-.3-.9-1.9-2.55l-55.15-12.45-1.4-.45-11.1-3.7-4 1.95-1.9.95-1.7 2-9.35 11.1-4.75 5.6q-23.65 9.05-47.25 11.85l-1.6-.7-3.3-1.4-.15-.15-.95-.65q2.3 1.1 8.15.65 5.85-.5 29.05-7.05 10.3-3.35 14.65-6.45 10.6-14.5 10.95-20.3l10.75-6.65q1.9.9 6.45 2.3l9.6 2.8L186 75.5q6.45 2.4 16.2 4.9l7.6 2.6 6.75 1.8.6.15m-2.1 11.4-.7-1.85q2.15 4.6 6.55 11.75l-6.25 4.95-9.75 1.4-11.95 1.3-.4.05-4-.9 9.6-1.15 15.35-2.15 3.3-2.15 1.75-1.15-.1-.25-.4-1.6-1.6-5-1.4-3.25" transform="translate(2.25 2.25)"/><path fill-rule="evenodd" fill="url(#U)" d="m179 48.6 2.3.7-.1.05.1-.05 2.6.8-2.7-.75-2.2-.75m37.8 36.15v.05h-.15l.15-.05m-63.2-41.6-.7-.3h.8l-.1.3" transform="translate(2.25 2.25)"/><path fill-rule="evenodd" fill="url(#V)" d="m135.1 89.3 3.65 4.05 50.6-7.85 8.65 2.8.05 5.65.05 5.1 3.75.95 3.25-1.2h.5v2.15l3.7 1 3.6-1.1.1-2.65.1-4.95q1 1.2 1.95 3.1l1.4 3.25 1.6 5 .4 1.6.1.25-1.75 1.15q-6.35 2.1-30.45 2.1l-12.2-.45-2.75-.6h.1l-.8-.15-22.7-4.85-1.75 1-.6.35-4.7 2.7-2.2-14.2q1.7 13.7-.85 15.95l-8.1 4.65-41-3.6-3.35-2.2-2.35-1.55q23.6-2.8 47.25-11.85l4.75-5.6m3.65 4.05v.15-.15" transform="translate(2.25 2.25)"/><path fill-rule="evenodd" fill="url(#W)" d="m160.65 81.75-1.65-.4-.05 2.5v.7L148.2 81.4h-.1l-.05-5.9 1.25.6q7.1 3.25 7.65 3.6l3.7 2.05m40.4 10.85v-.5l5.25 2.5q3.65 2.2 6.7 3.6l-.1 2.65-3.9-1.05-.1-3-3.55-1.2-.25 1.75v1.45l-4-1.05-.05-5.15" transform="translate(2.25 2.25)"/><path fill-rule="evenodd" fill="url(#X)" d="m216.8 107.6-3.3 2.15-15.35 2.15-9.6 1.15-8.95-2.65-5.45-1.15 12.2.45q24.1 0 30.45-2.1m-75.85.1-3.05 1.75q2.55-2.25.85-15.95l2.2 14.2" transform="translate(2.25 2.25)"/><path fill-rule="evenodd" fill="url(#Y)" d="m81.5 106.05 1.6.7 2.35 1.55-3.95-2.25" transform="translate(2.25 2.25)"/><path fill-rule="evenodd" fill="url(#Z)" d="m212.05 119.55-.7 7.95-7.55 10.05-6.2 4.25-63.5-10.4-57.05-3.05q29.5 0 46.3-2.75 7.3-2.75 13.5-7.1 11-6.65 12.65-6.65 9.05 0 53.75 7.2l8.8.5" transform="translate(2.25 2.25)"/><path fill-rule="evenodd" fill="url(#aa)" d="m181.3 49.3 9.45-3.35.75 5.65.15.85-7.75-2.35-2.6-.8m-70.85-7.25L115 37.3l.3-.35L126.55 25l21.8 7 .05.45-.75-.15-9.15-1.65-10-2.9-.65-.2.45.15-.7 3.2q-.45 2.05-1.65 3.4l2 1.5.25.3-6.25 5.25-.2-4.9-11.3 5.6m26.05 28.8-2.55 3.75q.15-12.15-1.3-35.9l2.65.85q-1 .05-.35 6.8l1.05 13.9.5 10.6M126.55 25l-.8 9.45.8-9.45" transform="translate(2.25 2.25)"/><path fill-rule="evenodd" fill="url(#ab)" d="M67.65 81.55h-.05l.25-1.25-.2 1.25M128.2 36.1l-.25-.3.35.25-.1.05" transform="translate(2.25 2.25)"/><path fill-rule="evenodd" fill="url(#ac)" d="m67.85 80.3.65-3.8 16.95-13.95 16.45-5.85v.5q-.35.25-.75.55L83.1 71.9q-10.85 8-15.45 9.65l.2-1.25" transform="translate(2.25 2.25)"/><path fill-rule="evenodd" fill="#541a01" d="m197.6 141.8-21-1.85L70.55 128.2v-.15l6.5.3 57.05 3.05 63.5 10.4" transform="translate(2.25 2.25)"/><path fill-rule="evenodd" fill="url(#ad)" d="m63.9 104.2-.05-.3 3.8-22.35q4.6-1.65 15.45-9.65l18.05-14.15q.4-.3.75-.55l.25 18.4 1.25-.8 19.55-11.9-.95-21.2-.05-.35 6.25-5.25.1-.05-.35-.25 4.7 2.9q1.45 23.75 1.3 35.9l-8.15 12.05Q103.25 96.2 84.3 98.4l-6.15-2.05q-1.9.8-2.95 2.15l-.25.3.4 2.1-11.45 3.3" transform="translate(2.25 2.25)"/><path fill-rule="evenodd" fill="url(#ae)" d="m204.75 116.65 7.45 1.55-.15 1.35-8.8-.5q-44.7-7.2-53.75-7.2-1.65 0-12.65 6.65-6.2 4.35-13.5 7.1-16.8 2.75-46.3 2.75l-6.5-.3-1.65-9.35-1.05-9.25-.3-1.65 4.05-2.75q.75-.6 4.05-2.3h.05v.1l1.4 1 .95.65 3.05 2.2 9.1 6 19.1 1.3 24.1 1.65q4.7-2.8 13.8-8.8l2-1.1q7.45 1.5 22.2 2.9l2.75.6 5.45 1.15 8.95 2.65 4 .9.45.1 11.75 2.6" transform="translate(2.25 2.25)"/><path fill-rule="evenodd" fill="#fca047" d="m67.9 127.9-.2-.05-3.8-23.65 11.45-3.3.35 1.85h-.05q-3.3 1.7-4.05 2.3l-4.05 2.75.3 1.65 1.05 9.25 1.65 9.35-2.65-.15" transform="translate(2.25 2.25)"/><path stroke-width=".05" stroke-linejoin="round" stroke-linecap="round" stroke="#000" fill="none" d="m207.85 99.75-.5-.15"/><path stroke-width=".05" stroke-linejoin="round" stroke-linecap="round" stroke="#622f0d" fill="none" d="m166.8 79.7-1.4-.45"/><path stroke-width=".05" stroke-linejoin="round" stroke-linecap="round" stroke="#805f2b" fill="none" d="m174.4 48.75.95.3 5.9 1.8m2.3.7L193 48.2m21.55 15.95.6.6 3.6 3.6M219.4 87v.2l-.6-.15m-152.65 19.4-.05-.3 3.8-22.35.2-1.25.65-3.8L87.7 64.8m25-20.5 4.55-4.75m.3-.35 11.25-11.95 21.8 7 .05.45.65 6.8 23.1 7.25m9.15 2.8-.1.05-2.2-.75M161.2 86.1l1.75.35 1.95-1.85v-.1l-2-.5-1.65-.4-.05 2.5v.7l-3.25 2.3-11.2-3.05-.05-5.6m18.7-1.2-.5 5.25m35.35 6.05 3 .85m.05 3.45v-.5m4.05 6.7V99.6m8.15-13.7h-.05m-7.6 15.15v-1.3m-57.5-16.1h.1m-.1.05.1-.05m-.1.05v-.05"/><path stroke-width=".05" stroke-opacity=".302" stroke-linejoin="round" stroke-linecap="round" stroke="#855713" fill="none" d="m87.7 64.8 25-20.5 11.3-5.6.2 4.9.05.35.95 21.2-19.55 11.9-1.25.8-.25-18.4v-.5L87.7 64.8"/><path stroke-width=".05" stroke-opacity=".302" stroke-linejoin="round" stroke-linecap="round" stroke="#875421" fill="none" d="m183.45 51.6 2.7.75"/><path stroke-width=".05" stroke-opacity=".502" stroke-linejoin="round" stroke-linecap="round" stroke="#695037" fill="none" d="m214.45 120.45-.15 1.35m-144.15 8.35-.2-.05-3.8-23.65m134.1-15.9.05 5.65.05 5.1 3.75.95 3.25-1.2h.5v2.15l3.7 1 3.6-1.1.1-2.65.1-4.95m-136 10.6.95.65M77.95 105v.1m1.35 25.5q29.5 0 46.3-2.75 7.3-2.75 13.5-7.1 11-6.65 12.65-6.65 9.05 0 53.75 7.2l8.8.5m-19.5-5.6.45.1m-22.3-5.55.7.15m-25.15-4-.6.35.6-.35m27.9 4.6 12.2.45q24.1 0 30.45-2.1M141 95.75v-.15m-68.2 34.7 6.5.3m-1.7-27.45-11.45 3.3m19.2 2.55 2.35 1.55"/><path stroke-width=".05" stroke-linejoin="round" stroke-linecap="round" stroke="#a0501b" fill="none" d="m228.85 111-.7.85"/><path stroke-linejoin="round" stroke-linecap="round" stroke="#351406" fill="none" d="m212.05 119.55-.7 7.95-7.55 10.05-6.2 4.25-21-1.85m0 0L70.55 128.2l-2.65-.3" transform="translate(2.25 2.25)"/><path stroke-width=".05" stroke-opacity=".502" stroke-linejoin="round" stroke-linecap="round" stroke="#000" fill="none" d="M137.35 91.55 141 95.6m2.2 14.35-2.2-14.2"/><path stroke-width=".05" stroke-opacity=".502" stroke-linejoin="round" stroke-linecap="round" stroke="#1c150f" fill="none" d="m207 118.9 7.45 1.55m-19.2-4.15 11.75 2.6m-16.2-3.6 4 .9m-18.4-4.7 5.45 1.15 8.95 2.65m-17.15-4.4 2.75.6"/><path stroke-width=".05" stroke-opacity=".651" stroke-linejoin="round" stroke-linecap="round" stroke="#541800" fill="none" d="m219.4 87.2 4.95 4.2q2.8 7.1 4.5 19.6m-.7.85q-3.15 3.35-8.95 5.95l-12.2 1.1m-60.3-38.45-9.35 11.1m54.25-3.8-24.8-8.05m36.45 11.7 12.1 4.1q1 1.2 1.95 3.1l1.4 3.25 1.6 5 .4 1.6.1.25-1.75 1.15-3.3 2.15-15.35 2.15-9.6 1.15m-110.5-8.55.15.15 3.3 1.4 1.6.7q23.6-2.8 47.25-11.85l4.75-5.6m54.25-3.8 8.65 2.8m15.25-4.65 2.1.7m-2.6-.85-62.45-20.9-9.2 4.6-3.2 1.55-1.4 2.1-2.55 3.75-8.15 12.05q-22.55 9.55-41.5 11.75L80.4 98.6q-1.9.8-2.95 2.15l-.25.3.4 2.1.35 1.85m0 .1 1.4 1M218.8 87.05l-1.2-.45m-44.65 24.15-22.7-4.85-1.75 1m-.6.35-4.7 2.7-3.05 1.75-8.1 4.65-41-3.6-3.35-2.2m59-30.1 1.7-2 1.9-.95 4-1.95 11.1 3.7"/><path stroke-width=".05" stroke-opacity=".573" stroke-linejoin="round" stroke-linecap="round" stroke="#964423" fill="none" d="m193 48.2 17.25 6.05.1.9.65 5.45 3.55 3.55m4.2 4.2L219.4 87m-25.65-33.15.15.85-7.75-2.35m7.6 1.5L193 48.2"/><path stroke-width=".05" stroke-opacity=".482" stroke-linejoin="round" stroke-linecap="round" stroke="#8d5925" fill="none" d="m216.3 67.55 2.45.8m-90.55-31.8 2 1.5m4.7 2.9 2.65.85 3.8 1.25 5 1.65 15.85 5.15 54.1 17.7M128 36.7l.8-9.45"/><path fill-rule="evenodd" fill="#fff" d="M76.6 69.45q2.05-4.05 4.4-3.85 2.3.2 3.6 4.55 1.25 4.35.75 10.3-.55 5.95-2.55 10-2 4.05-4.35 3.9-2.35-.25-3.65-4.6-1.25-4.35-.75-10.3.55-5.95 2.55-10" transform="translate(2.25 2.25)"/><path stroke-width=".05" stroke-opacity=".373" stroke-linejoin="round" stroke-linecap="round" stroke="#5e3f39" fill="none" d="M78.85 71.7q2.05-4.05 4.4-3.85 2.3.2 3.6 4.55 1.25 4.35.75 10.3-.55 5.95-2.55 10-2 4.05-4.35 3.9-2.35-.25-3.65-4.6-1.25-4.35-.75-10.3.55-5.95 2.55-10z"/><path fill-rule="evenodd" fill="#300" d="M81.45 90.85q-1.1 2.8-2.35 2.65-1.3-.15-2-3.15-.7-2.9-.4-7 .25-4.05 1.35-6.75 1.1-2.8 2.4-2.65 1.25.15 1.95 3.05.65 3 .4 7.1-.3 4-1.35 6.75" transform="translate(2.25 2.25)"/><path fill-rule="evenodd" fill="url(#af)" d="M58.3 63.55q2.7-1.6 5.8-2.45 4.7-1.35 9.85-1.1l-.6-10.35 6.1-5.35.35-.2-2.15 23.3q-8.15.5-19.75 7.5l.4-11.35" transform="translate(2.25 2.25)"/><path fill-rule="evenodd" fill="#323d29" d="M57.9 74.9q11.6-7 19.75-7.5l2.65.45 12.1 2.1q-5.45.25-12.25 2.2-3.95 1.1-8.35 2.8l-13.9-.05" transform="translate(2.25 2.25)"/><path fill-rule="evenodd" fill="url(#ag)" d="m94.95 50.75-2.55 19.2-12.1-2.1.6-20.25 2.4 3.85-2.05-4.75 13.7 4.05" transform="translate(2.25 2.25)"/><path fill-rule="evenodd" fill="url(#ah)" d="m79.45 44.3-6.1 5.35.6 10.35q-5.15-.25-9.85 1.1-3.1.85-5.8 2.45l.15-3.15q8.45-8.45 13.95-2.75l.05-8.7 7-4.65" transform="translate(2.25 2.25)"/><path fill-rule="evenodd" fill="url(#ai)" d="m77.65 67.4 2.15-23.3 15.55 3.6-.4 3.05-13.7-4.05 2.05 4.75-2.4-3.85-.6 20.25-2.65-.45" transform="translate(2.25 2.25)"/><path stroke-width=".05" stroke-linejoin="round" stroke-linecap="round" stroke="#212100" fill="none" d="m81.7 46.55-7 4.65-.05 8.7q-5.5-5.7-13.95 2.75l-.15 3.15-.4 11.35m21.9-30.8-.35.2m.35-.2 15.55 3.6-.4 3.05-2.55 19.2q-5.45.25-12.25 2.2-3.95 1.1-8.35 2.8l-13.9-.05"/></g><g id="ak" stroke-opacity="0" stroke-linejoin="round" stroke-linecap="round" stroke="#f0f" fill="none"><path d="M200.7-15.4v220h-220v-220h220" transform="translate(19.8 15.9)"/><path d="m200.7-15.4-110 110 110 110m-220-220 110 110-109.95 110m164.95-72.35H35.75" transform="translate(19.8 15.9)"/><path d="M149 159.2H30.85V23H149v136.2z" transform="translate(19.8 15.9)"/></g><path fill-rule="evenodd" fill-opacity="0" fill="#f0f" d="M100 40H0V0h100v40" id="b"/></defs><path fill="none" d="M-1-1h156v182H-1z"/><use x="27.202" y="-19.615" xlink:href="#aj" width="279.7" transform="matrix(-.5404 0 0 .5404 167.366 12.734)" height="327.2"/><use x="-14.7" y="-10.6" xlink:href="#ak" width="221" transform="translate(-19.8 -15.9)" height="221"/><use x="-28.199" y="-21.564" xlink:href="#al" width="100" transform="translate(44.95 49.55) scale(1.2057)" height="40"/></svg>