<svg width="294" height="290" xmlns="http://www.w3.org/2000/svg" xmlns:xlink="http://www.w3.org/1999/xlink"><defs><linearGradient y2=".531" y1=".271" x2=".667" x1=".461" spreadMethod="pad" id="h"><stop stop-opacity="0" stop-color="#6a4f2f" offset="0"/><stop stop-opacity=".047" stop-color="#6a4f2f" offset=".675"/><stop stop-opacity=".235" stop-color="#4c3111" offset="1"/></linearGradient><linearGradient y2=".504" y1=".344" x2=".482" x1=".224" spreadMethod="pad" id="i"><stop stop-opacity="0" stop-color="#6a4f2f" offset="0"/><stop stop-opacity=".137" stop-color="#6a4f2f" offset=".722"/><stop stop-opacity=".239" stop-color="#4c3111" offset="1"/></linearGradient><linearGradient y2=".599" y1=".461" x2=".218" x1=".789" spreadMethod="pad" id="j"><stop stop-opacity="0" stop-color="#6a4f2f" offset="0"/><stop stop-opacity=".11" stop-color="#6a4f2f" offset=".557"/><stop stop-opacity=".271" stop-color="#4c3111" offset="1"/></linearGradient><linearGradient y2=".604" y1=".203" x2=".205" x1=".81" spreadMethod="pad" id="k"><stop stop-opacity="0" stop-color="#6a4f2f" offset="0"/><stop stop-opacity=".082" stop-color="#6a4f2f" offset=".431"/><stop stop-opacity=".294" stop-color="#4c3111" offset="1"/></linearGradient><linearGradient y2=".599" y1=".461" x2=".218" x1=".789" spreadMethod="pad" id="l"><stop stop-opacity=".125" stop-color="#ab852e" offset="0"/><stop stop-opacity=".051" stop-color="#ab852e" offset=".408"/><stop stop-opacity="0" stop-color="#ab852e" offset="1"/></linearGradient><linearGradient y2=".531" y1=".271" x2=".667" x1=".461" spreadMethod="pad" id="m"><stop stop-opacity=".086" stop-color="#ab852e" offset="0"/><stop stop-opacity=".024" stop-color="#ab852e" offset=".792"/><stop stop-opacity="0" stop-color="#ab852e" offset="1"/></linearGradient><linearGradient y2=".504" y1=".344" x2=".482" x1=".224" spreadMethod="pad" id="n"><stop stop-opacity=".075" stop-color="#ab852e" offset="0"/><stop stop-opacity=".063" stop-color="#ab852e" offset=".506"/><stop stop-opacity="0" stop-color="#ab852e" offset="1"/></linearGradient><linearGradient y2=".604" y1=".203" x2=".205" x1=".81" spreadMethod="pad" id="o"><stop stop-opacity=".122" stop-color="#ab852e" offset="0"/><stop stop-opacity=".039" stop-color="#ab852e" offset=".431"/><stop stop-opacity="0" stop-color="#ab852e" offset="1"/></linearGradient><linearGradient y2=".263" y1=".89" x2=".472" x1=".401" spreadMethod="pad" id="q"><stop stop-opacity=".271" offset=".078"/><stop stop-opacity=".153" stop-color="#717171" offset=".62"/><stop stop-opacity="0" stop-color="#fff" offset="1"/></linearGradient><g transform="translate(210.65 234.55)" id="w"><use xlink:href="#a" width="439.15" transform="translate(-209.15 -233.55)" height="429.65"/><use xlink:href="#b" width="18.25" transform="matrix(.6879 0 .1408 1 62.441 -71.45)" height="22"/><use xlink:href="#b" width="18.25" transform="matrix(.8934 -.4463 .677 .9105 -80.977 -172.604)" height="22"/><use xlink:href="#b" width="18.25" transform="matrix(.3747 .2841 -.3377 .4039 -79.195 -139.128)" height="22"/><use xlink:href="#b" width="18.25" transform="matrix(.1984 .2342 -.2725 .2094 -137.208 -126.984)" height="22"/><use xlink:href="#b" width="18.25" transform="matrix(.2639 -.1553 .1596 .3035 -37.757 -142.475)" height="22"/><use xlink:href="#b" width="18.25" transform="matrix(.1146 -.0674 .0693 .1318 -21.355 -139.886)" height="22"/><use xlink:href="#c" width="11.15" transform="translate(-128.85 -185.9)" height="11.45"/><use xlink:href="#b" width="18.25" transform="matrix(-1.3075 .0521 .1584 1.2794 52.706 108.353)" height="22"/><use xlink:href="#b" width="18.25" transform="matrix(.646 -.0169 .1228 .686 62.22 49.808)" height="22"/><use xlink:href="#b" width="18.25" transform="matrix(.2822 .0076 .0538 .3158 80.04 65.506)" height="22"/><use xlink:href="#b" width="18.25" transform="matrix(.1752 .2293 -.1382 .1402 69.726 -46.328)" height="22"/><use xlink:href="#d" width="37.05" transform="translate(-183.4 -77.25)" height="20.25"/><use xlink:href="#e" width="438.65" transform="translate(-209.15 -233.05)" height="429.15"/><use xlink:href="#f" width="438.65" transform="translate(-209.5 -232.7)" height="429.15"/><use xlink:href="#g" width="442.2" transform="translate(-210.65 -234.55)" height="432.15"/></g><g id="a"><path fill-rule="evenodd" fill="#776a53" d="m122.45-183.9 3.65 11.25q-14.3 6.4-22.8 13.1-2.15 1.7-3.95 3.4l33.35-5.9 6.75 29.75-16.7-6.95L126-155.8l-38.4 7.5q.1-1.5-.3-3.1-1.25-4.8-4.25-7.65-3.05-2.85-7.25-4.1-3.2-.95-5.1 1.3l3.55-15-20 29.3-1.25-1.4 25.5-43.2-7.65-7.25-30.35 25-5.6-4.45q3.15-7.55 5.3-14.9 12.15-2.1 40.4-20.9 5.85 7.7 14.95 14-2.1 12.75 7 17.45 9.05 4.65 19.9-.7m17.15 52.35 2.6 11.4q-12.15 8.7-30.25 13.25l-3.75 8.15-13.65 3.45L110-113.5l-26.05 2.15 37.5-7.15 18.15-13.05m-159.8-99.6 3.15 1.1q6.2 1.6 15 0l4.8 8.4-3.85 3.7-5.4 5.2 7.8-2.6q-3.25 4.45-3.1 10.85l-15.65-2.95.25-2.95 9.75-4.2-2.95-8.9-9.8-7.65" transform="translate(209.15 233.55)"/><path fill-rule="evenodd" fill="#e79a29" d="M95.55-200.65q11.4 7.9 27.9 13.6l-1 3.15q-10.85 5.35-19.9.7-9.1-4.7-7-17.45M6.5-200.8l.8 8.75-1.25.3-2.15-13.8-5.7 1.05q-.15-6.4 3.1-10.85l3.8-1.3 1.4 15.85m64.2 38.95q1.9-2.25 5.1-1.3 4.2 1.25 7.25 4.1 3 2.85 4.25 7.65.4 1.6.3 3.1l-5 .3-11.9-13.85" transform="translate(209.15 233.55)"/><path fill-rule="evenodd" fill="#c0b385" d="M125.85-71.55q-.65 11.3 2.15 19.15l-2.05 3.1q-3.6-6.35-2.65-19.7l2.55-2.55m-93-125.25q10.2-1.1 41.25-20.7l6.5 2.85q-28.25 18.8-40.4 20.9-6.55-.95-7.35-3.05" transform="translate(209.15 233.55)"/><path fill-rule="evenodd" fill="#3c2f18" d="m30.5-187.9-1.6 4.95q-4.2 12.1-11.35 25.7-.2-1.7-.8-3.3l-4.1-3.25q-3.7-2.6-6.15-2.9l-1.15-.05Q-.5-165-5.7-166l1.3-15.7.55-.35 11.2-6.3.25-.15-.3-3.55-.8-8.75 13.85 2.15L30.5-187.9m-137.9-17.75-1.6-9.65 8.5-3.85 10.75 7.75-.85 4.25-1.3-.35-15.5 1.85m36-7.75 12.35-8.6 13.5 6.1 1.45 5.55-.1 1.15q-1.35 11.45-7.85 18.95l-1-.45q-3.3-2.5-7.15-4.75-3.7-2.15-7.85-4.05l-3.35-13.9" transform="translate(209.15 233.55)"/><path fill-rule="evenodd" fill="#3f3428" d="m103.3-159.55 25.8-6.25 3.6 3.75-33.35 5.9q1.8-1.7 3.95-3.4m-16.9 83.5q7.35 1.5 17.8-6.1l21.65 10.6L123.3-69l-18.2-9.15q-5.5 6.85-16.2 7.35l-2.5-5.25m-68.85-81.2q7.15-13.6 11.35-25.7l1.6-4.95 2.35-8.9q.8 2.1 7.35 3.05-2.15 7.35-5.3 14.9-3.1 7.3-7.05 14.75l-5.1 9-.25.45-3.75 6q-.7-2.2-1.25-4.55l.05-4.05m-61.65-53.1q.25-3.05.2-6.4 11.95-5.9 17.5-16.3l4.1.75q-5 9.7-15.95 17.4-.6 10.3-4 17.8l-.05.15q-2.25 4.8-5.65 8.45l-.1.1-4-1.85q6.5-7.5 7.85-18.95l.1-1.15" transform="translate(209.15 233.55)"/><path fill-rule="evenodd" fill="#645740" d="m139.45-132.3.75.3-.6.45-.15-.75.15.75-18.15 13.05-37.5 7.15L110-113.5 94.55-95.3l-6.5 1.65 1.7-15.8-14.05 2.5-.45-2.45-4.55-2.3 24.35-3.35L114-137l-23.25-5.5-27.5 12.25 2.45-4.85-4.3-8.1-11.1 8.65-.45-1.45q-2.3-3.7-3.95-8.45l6.75-16.15-4.5-6.5-7.9 11.65-1.95-1.05-.25-.05-5.95-.65 1.15-2.65v-.05l-5.4-4.2q3.95-7.45 7.05-14.75l5.6 4.45 30.35-25 7.65 7.25-25.5 43.2 1.25 1.4 20-29.3-3.55 15-1 1.65q-1.95 4.2-2.1 9.3-.15 5.1 2.85 7.8 2.95 2.7 7.1 3.15 4.1.4 7.55-3.15 2.25-2.35 2.5-5.2l38.4-7.5-3.25 16.55 16.7 6.95M7.35-188.35l-11.2 6.3-1.2.7-2.6 1.45-1.7.55-.4.15-5.4 1.7-.45.15.45-.15-.55.75.1-.6 1-8.5 4.85-4.65-5.5-7-8.75-5.75-.55.6q-3.05-3.7-8.5.1-4.85 2.75-5.45 9.25l-2 .55-1.8-4.2.05-.15q3.4-7.5 4-17.8 10.95-7.7 15.95-17.4 1 .65 2.1 1.15l9.8 7.65 2.95 8.9-9.75 4.2-.25 2.95 15.65 2.95.3 3.6q1.55 10.3 7.55 9.15l1.3 3.4m-151.5-10.45q-.95-1.4.75-4.5 2.2-2.9 4.4-2.9h.35q1.5 1.65.65 4.45-.35 1.8-3.65 3.2h-.25l-2.25-.2v-.05" transform="translate(209.15 233.55)"/><path fill-rule="evenodd" fill="#9b5400" d="m128.15 5.65-1.2-2.4 6.15 3.25.4 3.9q.15 3.15-.15 5.55l-.25 1.3-2.9-2.5q-.4-5.1-2.05-9.1M87.6-148.3q-.25 2.85-2.5 5.2-3.45 3.55-7.55 3.15-4.15-.45-7.1-3.15-3-2.7-2.85-7.8.15-5.1 2.1-9.3l1-1.65L82.6-148l5-.3m-41.7 3.85q1.65 4.75 3.95 8.45l.45 1.45q.25 1.15.1 2.35l-6.9-2.95 2.4-9.3m-5.65-11-8.5 8.95-2.95-2.55-.1-.1 3.4-8.05 5.95.65.25.05 1.95 1.05M-1.8-204.5l5.7-1.05 2.15 13.8q-6 1.15-7.55-9.15l-.3-3.6m-36.7 11.2q.6-6.5 5.45-9.25 5.45-3.8 8.5-.1l-7.5 7.45-6.45 1.9M171.2-24.55h-4.5q.35-2.7-2.05-6.8-2.5-3.5-6.45-6.3l6.8-1.5q2.7 1.55 3.55 2.85l2 3.75q1.1 4.6.65 8" transform="translate(209.15 233.55)"/><path fill-rule="evenodd" fill="#594c35" d="m88.05-93.65-1 .25H78.1l-2.4-13.55 14.05-2.5-1.7 15.8m-65.3-61.45 5.1-9 5.4 4.2v.05l-1.15 2.65q-3.1-.05-5.65.8l-3.7 1.3m27.55 20.55 11.1-8.65 4.3 8.1-2.45 4.85 27.5-12.25L114-137l-18.95 21.95-24.35 3.35-.25-.15-4.6-2.3q-10.45-3.15-21.6-10.5 5.6-3.45 6.15-7.55.15-1.2-.1-2.35m-10.05-20.9 7.9-11.65 4.5 6.5-6.75 16.15q-1.1-3.05-1.95-6.5-.8-2.65-3.7-4.5m-82.55-41.5 1.8 4.2 2-.55q-.45 4.2.95 10.05l-9.5-4.65-.3-.15-.6-.45q3.4-3.65 5.65-8.45m17.75-5.7.55-.6 8.75 5.75 5.5 7-4.85 4.65-1 8.5-.1.6-2.95 4.15-.35-.2q-6.35-3.95-13.7-7.9 14.8.35 10.8-15.1-.9-4.7-2.65-6.85m6.9 25.9 2.05-.6-2.05.6" transform="translate(209.15 233.55)"/><path fill-rule="evenodd" fill="#853e00" d="m18.75-148.65 3.75-6 .25-.45 3.7-1.3q2.55-.85 5.65-.8l-3.4 8.05.1.1 2.95 2.55 8.5-8.95q2.9 1.85 3.7 4.5.85 3.45 1.95 6.5l-2.4 9.3 6.9 2.95q-.55 4.1-6.15 7.55-8.85-5.85-18.15-14.25l-5.75-5.45-1.6-4.3m-56.3-34.6q-1.4-5.85-.95-10.05l6.45-1.9 7.5-7.45q1.75 2.15 2.65 6.85 4 15.45-10.8 15.1l-4.85-2.55" transform="translate(209.15 233.55)"/><path fill-rule="evenodd" fill="#5e5e5e" d="m12.65-163.8 4.1 3.25q.6 1.6.8 3.3l-.05 4.05q.55 2.35 1.25 4.55l1.6 4.3 5.75 5.45 3.95 7.6-11.4-5.2-8.4-10.2 3.1-12.25-.7-4.85m11.1 26.25q-1.95-3.15-3.4-6.8 1.45 3.65 3.4 6.8M69.2-75.1q-2.45-2.5-4.25-3.45h-.05l-.6-.25-.4-.15-5.15-1.25q-2.85-.6-5.75-2.7-4.65-3.4-8.35-6.95l-3.4-2.9Q53.1-97.9 65-87.1q4.85 5.6 4.2 12m-35.65 5q8.8-3.55 17.05-1.85 8.5 2.4 9.4 4.8l-11.25-2.3-15.2-.65m30.75-8.7.5.45 4.3 3.9L71.55-72q9.95 10.15 12.6 18.8 1.75 5.7.3 10.7l-4.6 4.4v-5.25l-.2-.25L78-45.2q-1.15-.85-2.55-1.15l2-6.95q-3.8-16.35-13.15-25.5m-126.05-53.45-1.25 1.4-1.25.9-4.95 1.2-5.35-.2 2.5-.6 5.25-1.35 1.3-.05 2.35-.1 1.4-1.2m-44.7 8.5-11.2 2.25-5.65-.15-3.7 1.15-2.45-1.55 1.75-.25.65-.1 20.6-1.35m-37.9 2.5-1 1.65-13.2 3.85 5.45-3.6.65-.05 1.75-.15 1.85-.5 4.5-1.2m-14.55 5.6-3.35.9-8.75-1-24.1 2.65-8.4 3.1-5-1.5-.15-.15 1.65-2.4q.7 1.05 1.75 1.8l2.85-1.5.5-.1 8.65-2.3.55-.05 23.45-1.9.5.05 4.55.5 5.3 1.9m223.4 95.8 3.95-11 6.45-5.05.35-.25 4.4-7.45.2.25v7.6q-5.25 5.35-11.4 8.1l-3.95 7.8m4.45-8.75-.5.95.5-.95M48.5 24.15q3.55.2 6.35 1.25.9.35 1.7.8l9.25 7 1.9.9 3.15 1.65L76 41.1q-4.6-.9-9.8.05 5.2-.95 9.8-.05l2.35.6q2.9 5.7 6.35 11.05 2.25 3.55 4.8 6.95 5.15 6.95 11.35 13.25v10.9l-6.1-11L83 65.8l-6.55-15.25-9.55-7.8-.7-1.6-1.9-4.5-6.95-1.9L56.5 31l-8-6.85m17.3 9.05q-3-1.25-5.2-1.5 2.2.25 5.2 1.5" transform="translate(209.15 233.55)"/><path fill-rule="evenodd" fill="#4c4c4c" d="M78.1-93.4v.1l8.3 17.25 2.5 5.25 1.6 3.3-3.05 18.4-3.3-4.1Q81.5-61.85 71.55-72l-2.45-2.45-4.3-3.9-.5-.45.6.25h.05q1.8.95 4.25 3.45.65-6.4-4.2-12-11.9-10.8-23.75-5.65l3.4 2.9q3.7 3.55 8.35 6.95 2.9 2.1 5.75 2.7l5.15 1.25.4.15q9.35 9.15 13.15 25.5l-2 6.95q1.4.3 2.55 1.15l1.65 1.6-4.4 7.45-.35.25-6.45 5.05-3.95 11-4.35 4.95-7.9 2.4-3.8-1.15.15 3.75 3 3.45-1.55 2.75-4.5 2.75L36.85.5q2.6-7.35-4.45-12.7l6.75-9.4-6.45 4.55q1.3-3.5 1.7-6.3.45-3.4-.7-6.2-.85-2-2.5-3.75.45-6.1 6.2-7.8 6 6.4 4.35 15.35l1.2 1.05 2-2.7-3.45-13.1 1.75-6.75-4.2-.9-5.6-5.25.05.9v.3l-5.7 5.8-6.85 1.55q.1-2.8-.8-5.7L19-53.45l-.35-.7Q16.5-58 12.6-59.35q-1.95-3.4 4.3-8.95v-.05l-4.65 1.2-.2.1-.35.1-1.2.5-8.2 8.3-.3.75.3-.75-.3.75-2.75-.05h-.55q-7.55 1.85-11.15 7.65-1.75 2-1.6 6.15l1.85 1.1q-2.65.65-4.2 3.3-1.45 5.65-1.8 10.5-3.9 3.85-5.8 7l-4.5 9.4Q-31-3.4-31-2v.05l.05 1.8q-1.15-.4-1.6-.9Q-37.5 2.15-34 7l3.95-.65 1.15 1.75.05.05.05-.05 1.7-2.25 1.65-.3q8.9-1.1 10.45.45 1.05 1.05 5 6l-1 10q4 2.25 9 0 3.25-1.45 10.9 4.4 4.6 3.55 6.8 5.95l3.85-1.55-1.75 4.05-4.55 10.45Q.65 63.7 4.55 111l-.7 5.6 3.35 4.65q-.25 2.5-.35 5.05l-.6-.05q-10.6.2-20.2-2-4.8-7-7.05-19 .1 11.25 3 18.3l-6.9-1.4-.3-.05-.55-.15q-1.3-1.3-3.9-11-3.2-12.1-4.1-33.4-.85 12.05 1.5 32.95 1.6 9.9 3.25 10.6l-3.05-.9-4.95-1.7-4-1.4-2.75-3.65-5.4-24.2q1.25 15 3.75 23.35-3.25-7.25-4.6-14.6-.4-2.15-2.75-5.35l-4.4-5.85Q-62.65 78.6-60 70q2.4-7.65.3-14.7l-.95-4.2q0-2.1 1.65-4.1 1.25-1.5 4.7-2.8l.7-.3q4.9-1.8 13.8-3.25l10.7-1.6q-3.6 5.8-3.65 16 1.45-12.5 5.85-16.3L-21 38q1.5-.35-1.05-1.55l-4.3-1.75-2.75-1.15Q-41.5 28.6-44 25q-1.1-1.6-8-8.5-4.7-4.7-5-8.5-.35-4.3 8-11.05l4.35-3.3-.65-.9q-.9-1.45-4.4-9-3.95-2.5-5.3-4.75-.55-.9-2-20-1-12.9 6-22 3-3.9 12-6.5l12-3.5q5.4-2.7 19 1 8.7 2.4 8-14-.35-7.7-1.5-13.2 2.95-5.2 4.1-9.7l3.7 2.35.2-1.55.05-.3-.25-.35q-7.45-9.15-13.6-15.5-9.65-9.85-16.15-12.75l3.25 7.35-6.8-1.1-13.5-4.25-1.1-.25-4.35-.9 5.85 3.35 14.25 13.25.3.35q10.15 13.45 13.5 21.6l-12.45-5.6-22.2-16-18.25-2.75h-.1l-17.2 3.15-25.5 6.55-12.75-.75-36.2 6.35-17.3 6.05-.65.2-19.1-6-11.4-1.5-3.35-3.6 5 1.5 8.4-3.1 24.1-2.65 8.75 1 3.35-.9.1.05.15-.1h.05l.05-.05 13.2-3.85 1-1.65 1.6-.45 9.75.45 1.5-.35 1.8-.4.25-.05 2.45 1.55 3.7-1.15 5.65.15 11.2-2.25 2.5-.15 5.65-.4 3.4-1.85 9.45-.8 1.15.5 9.75-2.5 5.35.2 4.95-1.2 1.25-.9 1.25-1.4q15-13.35 14.25-21.15-2.15-11.85-11.75-24.5l-2.25-2.1q-1.3-1.95-2.55-3.15l-3.7-4.9-10.5-1.95-14.25 1 22.05 11.4-3.15 11.15-23.4 12.2-11.95-7.55-12.75-3.1 3.9 9.3-5.5 8.15-18.45-5.05-21.45-2.25-5.3 2.25-7.3-7.75.05-.05 2.15-2.85-2.3-1.2-1.6 1.55 1.75 2.5-.05.05-.2.35-1.3 2.2-7.7 10.2-7.7 31.3-.55.05-3.6-3.1q1.55-23.85 12.2-41.9l-2.45-5.35q10.05-1.7 20.35-1.75h.2l2.3.05 3.05-1.7.95-.1.75-.05.8-.1 1.85.25 5.6.75 1.25-1.3 10.45.9 9.1 2.65 3.5-.7-3.4-1.3 16.7 1.4 14.05-2.7q3.3.95 7.1-.1 2.55-.8.6-2.9l-1.65-1.25 2.45-2.9 4.6-1.15-4.05-3.45-.05-.35h-.9l-2.8.25 2.8-.25-2.65 2.55-3.65 3.55-1.75-.45-6-.9-.85 2.75q.45 1 1.35 1.85l-5.95 1.45-16.8.5-14.3-2.2h-.2l-2.6.95-.3.6h-.7l-7.1-6.5 1.25-5.35.35-6.4 6.25-7.65 1-1.2 2.25.2h.25q3.3-1.4 3.65-3.2.85-2.8-.65-4.45l-.1-.2 5.75-4.45 5.9.95 11.7-.9 3.15 4 4.85 1.15 15.5-1.85 1.3.35q9.4 2.35 17.3 5.45l5.25 2.2q4.15 1.9 7.85 4.05l9.3 12.15 2.1 8.95 20.55 17.85-2.6 7.35q2.05 2.2 2.35 4.15v.9l11.8 4.4-7.15-8 8-2 12.4 1.15 1.75-6.2 4.75-.4L6.5-166.7q2.45.3 6.15 2.9l.7 4.85-3.1 12.25 8.4 10.2 11.4 5.2-3.95-7.6q9.3 8.4 18.15 14.25 11.15 7.35 21.6 10.5l4.6 2.3.25.15 4.55 2.3.45 2.45 2.4 13.55m149.35 32.85h-.1q-1.9.65-3.8.45l-3.1-.5q-3.7-.45-8.6 3.7-7.7 28.95-8.15 44.5-2.05 19.55-10.7 39.5-13.15 20.2-22.65 35.3-7.35 19.15-16.25 9.3 1 5-6 12.4l-2.2-12.4v-.05l-.05.05q.6 6.7-2.1 13.55l-3.7 3.15-3.15-5.65-4.85 13.6-10.8 8.3-5.15 3.15q-.25-1.85-.7-3.35-.8-2.7-2.3-4.6l-7.75 6.9-1.05.4-2.95-4.4-.05-.1-.15.1h-2.8v-2.7l2.5-4.6v-22.5q2.4-7.75 3.1-17.75 2.5-21.65 7.55-21.25 5 .4 10.25 1.7 5.25 1.3 3.2-4.1-2.1-5.4 6.85-1.35 8.95 4 6.75-2.75-2.2-6.8 6.6-5.6 8.8 1.2 12-3.4 3.2-4.6 1.35-4.55 8.45-8.45 11.4-10.2 3.15-1.95 12.3-6.4 6.45-7 4.8-13.3-1.65-6.4 5.25-21.55.75-25.3 5.2-23.2 4.4 2.05 7.15-.75l3.8-3.75q-.75-8.7 4.9-7.85l7.15.25 5.2 6.2.1.3q2.6 4.35 1.7 5.8M114.6 151.95v6.75l-12.75 21.6-6.7 2.25.3 1.9q-.05 3.95-4.95 7.9-3.05 1.7-6.35.55l.2-.7q2.6-4.1 1.4-7.75l-.1-.35q-1.1-2.75-4.3-5.2l-2.6-1.7q-2.8-.45-5.1-.05h-.15l-.25.05q-3.5 2.5-5.15 6.4-.4-3.1-1.55-5.3-2.65-4.9-9.25-5.9l-5-.25h-.15q-3.4 1.25-5.15 4.4-.95-2.6-2.65-4.45l-1.55-1.4q-1.95-1.5-4.65-2.3l-1.2-.3q-3.2-.8-6.4.65l-.95.45-1.4-3.6 3.15-3.9 7-1.85 2.85-.2 12.55 1.4 11.6 1.8 17.35 6.7-2.75.45-.2 2.8 7.05 4 5 4.7.35-3.75-.7-1.55.05.05 3-4.25q12.4-14.2 12.4-16.5 0-.95-.9-2.5l-7.2-10-1.6-2.2-12.7 6.55q-.45.2-.95.45.5-.25.95-.45l-.95.5v-.05q.65-1.35-1.45-2.7-2-1.15-5.9 0-5.9 4 0 6.5l-.45.25.45-.25h.05l-.5.25-6.8 3.5h-17.7Q36.4 154.2 33.9 137.5l-.25-1.65-5.75-2.15Q16.65 121.9 23 94.25V94q-.3-10.95.9-13.5 1.85-1.75 1.2-5-.65-3.25 2.2-8.2 2.85-4.95 6.9-8.3 4-3.35 3.65-6.85L37 48q-.2-3-.55-4l-.3-.5q-1.4-.25-3.15-1.5l-3.1-2.5q-.35-.75 2.1-2.5l3.2-1.8q.4-.25-.2-1.2-.65-1-2.3-2.15 3-.55 4.3-1.85l3.75-2.8 3-3q2.5-.2 4.75-.05-2.25-.15-4.75.05.85-1.15 9.65-2 8.75-.85 14.05-8.95 1.45-2.3 2.9-4l10.2 8.85 8.95 14.3v27.3q-2.55-3.4-4.8-6.95-3.45-5.35-6.35-11.05L76 41.1l-5.15-5.35-3.15-1.65-1.9-.9-9.25-7q-.8-.45-1.7-.8-2.8-1.05-6.35-1.25l8 6.85.85 3.75 6.95 1.9 1.9 4.5-1.7.35Q67 46.45 68 47l4.15 4q3.7 3.85 3.85 5 .2 1.55 3.75 9.2l.55 1.15Q83.55 73.4 85 75q.75.8 1.05 4.75.3 4-.05 8.25-.35 4.05 1.45 20.2Q89.2 123.95 90 126q.65 1.65 6.85 5.9 4.8 3.3 8.15 5.1l.6.5q1.95 1.95 6.8 10.45l2.2 4M-144.15 108q-2.05-.75-.9-5.4 4.8-4.9 9.25-5.6l-1.6-6.5q-1.9-4.5 4.2-9-1.6-9.75 4.25-12.2-2.7-4.25-.6-12.8 1.85-14.85 18.65-28.25 3.85-7.7 12.5-10.3 6.45-14.4 18.4-13.8-.6 7.5 2.2 12.75-15.2-2.85-25.95 14.65 1.4-5.1 4.35-11.2l1-2.4-1 2.4q-2.95 6.1-4.35 11.2-4.95-.7-9.9 13.6l-.95 9.3-7.85 8.7-1.35 1.95q-3.65 7.6-.75 8.4-2.25 5.05-1.25 8.1 1.4 6.05 9.15 8.9l.6.2.75.65q-2.35.85-4.7.65l-5.45-1q-1.7-.2-3.55 2-1.8 2.15-4.35 7l-2.65 5.15-2.75.1-.4.05q-1.65.3-3 1.1l-.1.05-1.9 1.55M7.3-192.05l.3 3.55-.25.15-1.3-3.4 1.25-.3m16.2 114.1Q18.9-71 21-67.65l-3.9-.6-.2-.1.2.1 3.9.6q-2.1-3.35 2.5-10.3m10.05 7.85 15.2.65L60-67.15q-.9-2.4-9.4-4.8-8.25-1.7-17.05 1.85M-110.3-203.15l-11.9-1.3-12.9 4.9-4.9 8.8v9.3l-2.1 8.25 4.45-3.8 2.6 1.75.35.2v.05l.3.15.25.2 4.15 1.35 6.95-.55.25-.05 2.9-.35q9.8-1.25 14.35-3.3 3.7-1.75 3.9-4.1l-.3-1.45 2.3-4-3.45-9.7-.25-.35q-2.55-3.05-6.15-5.5l-.8-.5q-1.55-1-3.25-1.85 1.7.85 3.25 1.85m-56.45 34.75q-4-3.35-2.15-11.55 7.9-8.8 13.75-19.95l4.15.5-8.15 14.25-7.25 9.1-.35 7.65m4.45.25-1.95-.05 1.95.05m-3.6 12.9-1.5-2.4 1.5 2.4m101.4 32.5-.45.8.45-.8m-63.25 62.7 7.85-1 4.25 4.9-7.7 3.3-.5.2q-1.85-1.2-4.4-2l-.65-.2q-1.15-.25-2.75 0l3.9-5.2m17.3 15.8q3.15-6.3 4.55-5.8 2.1 1 4.05 2.2l.7-3.6 5.1-.85 5.45-8.55q1.65-11.3 13.45-19.4l.6-3.85q1.25-7.15 10.5-8.15l.45.25-3.1 6.55q-2.9 7.05-3.45 12.75l-.15 9.3q-1.65 6.45-2.8 12.85Q-77.4-60-77-63q-4.4 2.25-8.75 12.75l.5 4.85-6.5 5.9-.5-.05-4.5-1.45-4.95 5.35-.1-.2-4.35-.5-3.55-6.55-.75-1.35m-1.8-162.55 2.75 4.15-2.75-4.15m14.35 26.75 3.75.3-3.75-.3m1.4-11.6-5.95-4.35-.65-.8.65.8 5.95 4.35m7.6 9.65-1.7-.3 1.7.3m-2.45 18.1q-.7-2.5-2.7-2.4-2.45 4.6 1 5.65 2.4-.7 1.7-3.25m64.85 25.85 3.05 1.05-3.05-1.05M21-67.65q7.15 2.3 11.25 10.4.95 1.9 1.2 3.85-.25-1.95-1.2-3.85-4.1-8.1-11.25-10.4m-22.3 10.2q-14.15.45-16.8 15.7l1.7 2.5-1.7-2.5Q-15.45-57-1.3-57.45M-50.5-18l.8 1.75-.8-1.75m11.25 16q-3.35-1.6-5.4-4.35Q-42.6-3.6-39.25-2m-53-37.55q-4.3-5-9.6-8.3 5.3 3.3 9.6 8.3m-9.55 3.7q-3.55-6.7-7.9-7.05 4.35.35 7.9 7.05M-128.95 69.3l.55.8-.55-.8M15.7 32.35Q5.5 36.05-4.25 36.5h-.55.55q9.75-.45 19.95-4.15m-22.2 4.2.25 20.7L-4.3 37.3l-.5-.8-2.45-5.5.5 5.55h.25m-2-.05 1.75.05-1.75-.05m-5.65.45-4-6.2q.25 5.6 2.5 6.45-5.5 9.3-4.1 31.8 1.55-20.15 5.5-31.8l.1-.25m224.9-102.2h-2.35 2.35m1.1 8.35v-2.65 2.65M74.1 37.7l-3.25-1.95 3.25 1.95m-10.5 4 .9-.2-.9.2m16.7 24.65-3.45-2.5 3.45 2.5m-40.1-22.5-3.75.15 3.75-.15m62.65 94-5.65 2.95 5.65-2.95M82.1 103.5l-2.15-2.25 2.15 2.25m-21.15 24.2q-.7-.4-1.85-.5l-1.1.9q-1.8.75-2.4 1.7-.65.95-.1 2.15l.75 1.05q1.85 2.05 4.1-1.05 2.6-3.2.6-4.25m84.3-59.95.6 3.05.1.7-.05.15.05-.15-.1-.7-.6-3.05m-.9-3.5-1.4-4.75 1.4 4.75m-36.5-4.9q-1.65 14.85-7 18.25 5.35-3.4 7-18.25m28.9 10.9q3.45 7.7 3.3 18.15.15-10.45-3.3-18.15m-67 96.85-3.3-2.9-4.85.35 3.75 1.65 3.2 2.7 1.2-1.8M37.1-107.65q-15.8-1.35-52-30 36.2 28.65 52 30M-77-63q-1.55-7.35-.15-17.25-1.4 9.9.15 17.25" transform="translate(209.15 233.55)"/><path fill-rule="evenodd" fill="#50432c" d="m125.95-49.3-12.7 22.15-20.65-4.6-4.15-4.1-2-7.4 1-5.85 3.05-18.4-1.6-3.3q10.7-.5 16.2-7.35L123.3-69q-.95 13.35 2.65 19.7" transform="translate(209.15 233.55)"/><path fill-rule="evenodd" fill="#2f2f2f" d="m88.45-35.85.8 2.95Q87.8-28.5 86-26q-5.95 8.25-5.45 10.45.5 2.2.65 10.8.1 8.55-4.2 9.25-3.1.45-6.65 4.75-1.45 1.7-2.9 4-5.3 8.1-14.05 8.95-8.8.85-9.65 2l-3 3L37 30q-1.3 1.3-4.3 1.85Q34.35 33 35 34q.6.95.2 1.2L32 37q-2.45 1.75-2.1 2.5L33 42q1.75 1.25 3.15 1.5l.1.55.2-.05q.35 1 .55 4l.85 4.15q.35 3.5-3.65 6.85-4.05 3.35-6.9 8.3-2.85 4.95-2.2 8.2.65 3.25-1.2 5-1.2 2.55-.9 13.5v.25q-6.35 27.65 4.9 39.45l5.75 2.15.25 1.65q2.5 16.7 17.35 17.85h-11.3l-.8-.25-21.2-7.15-2.55-10-.35-.45q-3.3-4.25-8.3-9.5l.1-1.7q.1-2.55.35-5.05l-3.35-4.65.7-5.6q-3.9-47.3 8.7-65.7 3.25-4.85 7.7-7.7l-1.2-1-1.95-1.75 1.75-4.05.4-.15-1.4-2Q16.8 25.6 17 24q.35-2.75-4-6l-2.3-2.2-1.6-1.7Q7.85 12.75.75 15q-5.55.75-7.1 0Q-5 13.8-3 6l-4-3.1-7.25-.6-8.75-.85L-25 3l-2.1 2.85-1.7 2.25-.05.05-.05-.05-1.15-1.75q-.8-2.2-.9-6.5l-.05-1.8V-2q0-1.4 2.5-10.35l4.5-9.4q1.9-3.15 5.8-7-.7 8.75 2.35 14.7l.2.4q2.2 4.1 6.25 6.8 1.05-7.45 3.95-14.7l7.95 5.3 10.2 12.7-6.85 6.2-.05.05.15.1L8.5 4.2-7 2.9 8.5 4.2q8.55 4.1 19 1.8l4.1-1.1.8-.3 2.1.35q10.8-3.85 15-7.7l.55-.95 1.55-2.75 1.45-2.7 1.7-1.65q2.75-1.55 5.4-4.1l4.35-4.95 3.95-7.8q6.15-2.75 11.4-8.1v-2.35l4.6-4.4q1.45-5-.3-10.7l3.3 4.1-1 5.85 2 7.4m12.9 47.3 6.25-.4.5 1.75-2.4.45 2.4-.45q7.5-1 15.85-3.2l.25-1.75 3.95-2.2q1.65 4 2.05 9.1l2.9 2.5 16.65-1.3q3.9-6.1 6.85-13.75v-.1l3.1-7.85-1.25-2.75-2.6-3.25q-6.55 1.4-11.5 1.2 5.3-3.25 10-8.15 4.55-4.85 10.3-12.65 2.4 4.1 2.05 6.8h4.5l3.85-4.35 5.65-13.65-5.9-4.75-.4-.55-.4-.6q7.35-14.2 16.3-20.7 7.6-5.55 18-5.9 7.05-.3 11.85 1.85l.6.3-.3.05-7.15-.25q-5.65-.85-4.9 7.85l-3.8 3.75q-2.75 2.8-7.15.75-4.45-2.1-5.2 23.2Q185.35-22.4 187-16q1.65 6.3-4.8 13.3-9.15 4.45-12.3 6.4-2.95 1.75-11.4 10.2 1.85-.05-1.35 4.55t-12 3.4q-8.8-1.2-6.6 5.6 2.2 6.75-6.75 2.75-8.95-4.05-6.85 1.35 2.05 5.4-3.2 4.1-5.25-1.3-10.25-1.7-5.05-.4-7.55 21.25.4-5.35.3-11.35l.7-6.35q2.85-11.7-3.6-26.05m-144.05 105-.45-.2-.95-.35q-13.7-5.5-21.5-11.95-3.9 8.9-13.25 14.25l-1.15 3-5.4 4.55-1.65-.1v-.7q-1.9-8-8-11.2l-1.1-.55q-3.8-1.65-6.85-.7l-.15.05q-2.6.85-4.65 3.45-2.5-7.45-9.9-11.25-1.5-.75-4.9-.85-3.1-.05-4.85.9-1.7.5-2.95 1.45-3.1-1-5.6-1.1l2.65-5.15q2.55-4.85 4.35-7 1.85-2.2 3.55-2l5.45 1q2.35.2 4.7-.65 3.15-1.2 6.3-4.35 1.65-1.65-.45-3.25L-117 79q-4.3-2.75-2.25-6.05Q-117.5 71.5-116 68q1.8-4.15 3.95-4.7l2.15-.3q1.5-.25 2.9-1 1.45-.8 3.3-5.05 1.8-4.25 1.8-6.7-.05-4.95 2.2-6.7 2.25-1.8 3.5-4.35 1.2-2.55 5.55-4.6 4.4-2.1 6.1-1.8 2.35-8 7.2-15.05l-.45-.85q-2.8-5.25-2.2-12.75l.6-4.35 1-4.1q-14.9 14.55-24.15 9.4Q-115.1 8.95-123 7.05l-.15-.05-2.4-.8q-6.5.2-10.95-1.85-3.75-8.1 7.6-21.3l6.9-5.6 5.95-8.15-3.7-8.8.05-.05.05-.05.05-.2q2.4-8.15-3.45-12.35l-.3-.7 7.7-3.3.85 1 1.9 6.5 2.45 4.4.75 1.35 3.55 6.55 4.35.5.1.2 4.95-5.35 4.5 1.45.25.25.25-.2 6.5-5.9-.5-4.85Q-81.4-60.75-77-63q-.4 3 1.9 12.45 1.15-6.4 2.8-12.85l.15-9.3q.55-5.7 3.45-12.75l3.1-6.55 2.95-5.4h.3v-.05q-.55-4.8-3.9-9.4l-.3-.1-2.15-.7-.35-.25-5.7-4.35-19.4 1.1-79.7 11-.15-.45 17.3-6.05 36.2-6.35 12.75.75 25.5-6.55 17.2-3.15-3.7 5.2 3.7-5.2h.1l18.25 2.75 22.2 16 12.45 5.6 7.45 3.35q-2.95 4.3-6.9 9.15l-6.8 5.7-4.3-.05 8.85-9.3-23.35 10.1-16.15 2.05q-7.85 7.95-10 16.7-5.2 11.25-4.55 18.6-3 19.85 0 23.8l2.35 6.4.15.8q-3.3.9-5 3.85-.6 1.05-3 8.45-.7 2.2.5 7.05 1.15 4.8 6.75 8.1t8.85 6.9q3.2 3.5 6.55 5.45l.1.05-.05.05.9 3.45-.75 1.25q-11.95-3.1-20.4 2.65-9.3 6.3-8.65 29.3.6 23 17.45 29.7l5.85 8.35q2.5 3.75 12 11l1.05.8.45.35m25.65-346.5q5.85 0 9.9-1.2l5.1 1.2q-8.8 1.6-15 0m15.95 12.1 6.2 1.3-3.8 1.3-7.8 2.6 5.4-5.2M-66.9-112.4l-7.85.15 7.85-.15m46.4 19q-8.85-5.5-25.4-10.1l-8.75-1.9 8.75 1.9q16.55 4.6 25.4 10.1m-41.85-4q.25 2.05-.05 4.1.3-2.05.05-4.1m49.85 5.35q-14.15 3.65-32.65 10.4-6.2.2-7.6-1.5l1.6-2.9 5.15-3.6-5.15 3.6-1.6 2.9q1.4 1.7 7.6 1.5 18.5-6.75 32.65-10.4m-50.15 4.65 1.9 1.75-2.75 1.6-5.2-1.4 5.2 1.4 2.75-1.6-1.9-1.75m21.9-2.4q-10.6-11.7-25.5-17.05 14.9 5.35 25.5 17.05m9.8 89.65 7.95 1.6-7.95-1.6m-18.5 34.7.95-1.8-1.35-2.8q3.5 1.7 11.15 3.25l7.55.85q3.7.25 4.65.95l.75.55q2 1.7-.75 2l-1.45.05h-.85l-12.25-1.45L-48 35l-1.45-.45M-71.2-14.7q2.2 2.15 5.75 3.6-3.55-1.45-5.75-3.6l-.35-.3.1.15.25.15m-7.2 10.4q.85-3 2.2-5.5 2.2-4.25 4.65-5.2-2.45.95-4.65 5.2-1.35 2.5-2.2 5.5M7.1-9.05l.15.1-.1-.1H7.1M-88.65-34.8q-1.6-2.4-3.35-4.5 1.75 2.1 3.35 4.5m-9.25 9q-1.75-5.95-3.8-9.85 2.05 3.9 3.8 9.85m-9.75 1q3.25-4.7 3-8.85l-1.5-2.7 1.5 2.7q.25 4.15-3 8.85m32.55-25.75Q-77-40-77.5-29.8q1.1 9 5.95 14.8-4.85-5.8-5.95-14.8.5-10.2 2.4-20.75m-67.7 14.7q.05 6.25 4 12.45l1.25-5.8.4 5.55 5.4-4.15.35 4.5q-5.75 5.5-7.45 12.95l-4.9 3.6q-5-4.85-13.5-9.4 4.5-.6 8.2-2.2 3.7-1.65 6.65-4.3-4.65-7.7-19.95-11 10.75-3.05 19.55-2.2m37.05 10.55q.65 18.8-13.1 28.35l-1.65 1.6 1.65-1.6q13.75-9.55 13.1-28.35m37 50.25q-4.2-2.1-6.65-4.6l-1.95-2.6 1.95 2.6q2.45 2.5 6.65 4.6l.25 1.3q-5.3 2.5-6.95 11.45 5.5-8.45 9.15-10.4l-.6-1.5-3.05-7.55q-.35 5.7 1.2 6.7m9.35 3.45q-4.2-1.2-7.5-2.6 3.3 1.4 7.5 2.6m-6.2 75.55Q-71.45 99.1-74 93.7l-1.45-2.05q-9.3-14-11.3-39.9-.4-10.05 2.2-18.95-2.6 8.9-2.2 18.95 2 25.9 11.3 39.9L-74 93.7q2.55 5.4 8.4 10.25m-55.7-4.85q-4.6-1.25-7.25.7-2.75 2-1.85 6.45-.9-4.45 1.85-6.45 2.65-1.95 7.25-.7m45.85-7.45q-2.55-.25-8.3 2.05-6.75 2.8-14.9 3.4-6.55.35-8.95-1.25 2.4 1.6 8.95 1.25 8.15-.6 14.9-3.4 5.75-2.3 8.3-2.05m-8.1 24.45-2.4-3.4 2.4 3.4m-8.1-8.5q-9.15-5.1-13.5-.15 4.35-4.95 13.5.15M206.5-65l-3.5 2.75 3.5-2.75m-21.55 14.2q-2.1 3.15-4.25 8.25 2.15-5.1 4.25-8.25m-35.2 66.75q4-.15 8.75-2.05-4.75 1.9-8.75 2.05m35.75-45.7q-1.55 5.8-8.5 14.25-6.7 9.55-5.75 10-.95-.45 5.75-10 6.95-8.45 8.5-14.25M25.8 28.45q10.35-3.65 17.95-4.25-7.6.6-17.95 4.25-2.7.9-5.55 2.05l-.3.15.3-.15q2.85-1.15 5.55-2.05M49 10q-3.75 1.45-7.5 0 3.75 1.45 7.5 0M36.25 44.05l-1.8.3 1.8-.3M29 34.25q-4.4 1-8.05 3.35 3.65-2.35 8.05-3.35m1.1 11.1Q12.15 52.4 4.55 111q7.6-58.6 25.55-65.65m-11.5 36q-9.35 19.25-11.4 39.9 2.05-20.65 11.4-39.9m-3.2 56.6q2.75 3.7 4.2 6.65-1.45-2.95-4.2-6.65" transform="translate(209.15 233.55)"/><path fill-rule="evenodd" fill="#656565" d="M220.75-72.9q1.6.75 2.95 1.85 3.65 2.95 5.15 5.75 1.85 3.55-1.4 4.75.9-1.45-1.7-5.8l-.1-.3-5.2-6.2.3-.05M145.9 71.65v.05h-.05l.05-.05m-44.55 31.1h-.2l.15-.1.05.1m-9.9 73.45.7 1.55-.35 3.75-5-4.7-7.05-4 .2-2.8 2.75-.45.55.2 8.2 6.45m-21.7-9.1-1.2 1.8-3.2-2.7-3.75-1.65 4.85-.35 3.3 2.9" transform="translate(209.15 233.55)"/><path fill-rule="evenodd" fill="#303030" d="M-5.7-166q5.2 1 11.05-.75l1.15.05-3.45 11.55-4.75.4h-.25q-5.9-.7-10.8-2.7-2.1-.9-4.05-2l-.15-.15-10.05-5.15-3.95-7.55-11.1-6.35-5-9.25 9.5 4.65 4.85 2.55q7.35 3.95 13.7 7.9l.35.2 6.15 3.95 2.75 1.45q1.95.8 4.05 1.2m-139.45-31.55-6.25 7.65-.35 6.4-1.25 5.35 7.1 6.5h.7l.3-.6 2.6-.95h.2l14.3 2.2 16.8-.5 5.95-1.45q1.5 1.4 4.25 2.3l1.2.45-14.05 2.7-16.7-1.4 3.4 1.3-3.5.7-9.1-2.65-10.45-.9-1.25 1.3-5.6-.75-1.85-.25-.8.1-.75.05-.95.1-3.05 1.7-2.3-.05-.2-.15.35-7.65 7.25-9.1 8.15-14.25q3.15.6 5.85 1.85m-20.4 28.15 4.35-.5-4.35.5m14.25-1.15 1.3.1-1.3-.1m53.5-5.65 3.65-3.55q2.65.4 5 1.35-2.35-.95-5-1.35l2.65-2.55h.9l.05.35 4.05 3.45-4.6 1.15-2.45 2.9-.05-.05q-1.6-.95-4.2-1.7" transform="translate(209.15 233.55)"/><path fill-rule="evenodd" fill="#262626" d="m-166.75-168.4.2.15-.1-.1-.1-.05m-9 8.1-1.75-2.5 1.6-1.55 2.3 1.2-2.15 2.85m1.1 59.9.65-.2.15.45-.8-.25m109.6-21.55h.1-.1m2.4 24.55.3-.05v.05h-.3m-54.65-96.15-2.25-1.4-.1-.05-.35-.15q-4.75-2.25-8.5-1-3.3 1.15-4.4 2.8 3.25-5.05 8.35-6.35 10.95-2.85 17.3 6.65 4.15 5.55 5.3 9.95l.3 1.45q-.2 2.35-3.9 4.1-4.55 2.05-14.35 3.3 4.35-1 6.8-3.55 2.05-2.15 1.95-4.6l-.2-1.25q-1.65-6.6-5.95-9.9M16.9-68.35v.05q-6.25 5.55-4.3 8.95-2.55-.3-6.75 1l-3.3 2.3L2-57.4l.55 1.35q-5.1 3.95-8.15 9.25l-2.1 4.4-2.55-.35-1.95.2-1.85-1.1q-.15-4.15 1.6-6.15 3.6-5.8 11.15-7.65h.55L2-57.4l.3-.75 8.2-8.3 1.2-.5.35-.1.2-.1 4.65-1.2m4.05 23.5 6.85-1.55 5.7-5.8v-.3l-.05-.9 5.6 5.25 4.2.9-1.75 6.75 3.45 13.1-2 2.7-1.2-1.05Q43.4-34.7 37.4-41.1q-5.75 1.7-6.2 7.8-2.75-2.2-7.75-2.95-3.35 1.9-6.1 3.9-5.8 4.25-8.85 9L7.4-21.5q-1.65 3.05-2.1 6.3l-.2 1.45q8.1 2.8 16.65 1 3.2-.7 6.5-2.05 1.35-.55 2.8-1.25l.6-.3.95-.5.1-.2 6.45-4.55-6.75 9.4Q39.45-6.85 36.85.5l8.7-1.45 4.5-2.75-.55.95q-4.2 3.85-15 7.7l-2.1-.35 1.3-.45q1.6-2.05 2.45-3.9 2.55-6.15-3.3-11.2l-6.3.4Q20.8-7.4 15.2-5.8l-2.5 2.25-10.2-12.7-7.95-5.3q1.5-3.85 3.5-7.55l3.3-5.65q5.6-1.05 13.5-3.4l5.1-1.6q.85-2.3 1-4.55v-.55M-65.3-10.3l-.15-.8 1.5.55-1.35.25m-5.9-4.4-.25-.15-.1-.15.35.3m-20.55-24.8-.25.2-.25-.25.5.05m-31.6-13.35.3.7-.8-.5.5-.2m140.7 20.5 1.5-3.75-4-2.05 4 2.05-1.5 3.75m16.1-19.05.05-.8-.05.8M26.9-41.35q8.75-2.85 10.5.25-1.75-3.1-10.5-.25m24.7 34.9-3-3.45-.15-3.75 3.8 1.15 7.9-2.4q-2.65 2.55-5.4 4.1l-1.7 1.65-1.45 2.7m-15.35 50.5-.1-.55.3.5-.2.05" transform="translate(209.15 233.55)"/><path fill-rule="evenodd" fill="#424242" d="m89.25-32.9 11.7 43.5.4.85q6.45 14.35 3.6 26.05l-.7 6.35q.1 6-.3 11.35-.7 10-3.1 17.75-6.2-6.3-11.35-13.25V32.4l-8.95-14.3-10.2-8.85Q73.9 4.95 77 4.5q4.3-.7 4.2-9.25-.15-8.6-.65-10.8-.5-2.2 5.45-10.45 1.8-2.5 3.25-6.9M193 27.1q-6.25 14.4-15.9 29-16 30.4-46.85 49.9-8.45 11.3-18.85 16.8l-1.25-.7q2.9-2.2 5.95-6.45.45-4.4 0-7.85l5.15-3.15 10.8-8.3 4.85-13.6 3.15 5.65.35.65-.35-.65 3.7-3.15q2.7-6.85 2.1-13.55h.05l2.2 12.4q7-7.4 6-12.4 8.9 9.85 16.25-9.3 9.5-15.1 22.65-35.3m-206.95 97.15-4.05-.7q-2.9-7.05-3-18.3 2.25 12 7.05 19m-11.8-2.3-3.25-.85q-1.65-.7-3.25-10.6-2.35-20.9-1.5-32.95.9 21.3 4.1 33.4 2.6 9.7 3.9 11M-41 117.1l-1.7-.65-.45-.35-1.05-.8q-9.5-7.25-12-11l-5.85-8.35q-16.85-6.7-17.45-29.7-.65-23 8.65-29.3 8.45-5.75 20.4-2.65L-53 38.25l-1.3 5.95q-3.45 1.3-4.7 2.8-1.65 2-1.65 4.1l.95 4.2q2.1 7.05-.3 14.7-2.65 8.6 2.85 16.8l4.4 5.85Q-50.4 95.85-50 98q1.35 7.35 4.6 14.6-2.5-8.35-3.75-23.35l5.4 24.2 2.75 3.65m-101.1-290.3 2.1-8.25v-9.3l4.9-8.8 12.9-4.9 11.9 1.3.8.5q3.6 2.45 6.15 5.5l.25.35 3.45 9.7-2.3 4q-1.15-4.4-5.3-9.95-6.35-9.5-17.3-6.65-5.1 1.3-8.35 6.35l-.05.05-.05.1q-3.55 5.5-4.6 15.75l-.05.45-4.45 3.8m-33.9 13.3.2-.35 7.3 7.75 5.3-2.25 21.45 2.25 18.45 5.05 5.5-8.15-3.9-9.3 12.75 3.1 11.95 7.55 23.4-12.2 3.15-11.15L-92.5-189l14.25-1 10.5 1.95 3.7 4.9q1.25 1.2 2.55 3.15l2.25 2.1q9.6 12.65 11.75 24.5.75 7.8-14.25 21.15l-1.4 1.2-2.35.1-1.3.05-5.25 1.35-2.5.6-9.75 2.5-1.15-.5-9.45.8-3.4 1.85-5.65.4-2.5.15-20.6 1.35-.65.1-1.75.25-.25.05-1.8.4-1.5.35-9.75-.45-1.6.45-4.5 1.2-1.85.5-1.75.15-.65.05-5.45 3.6-.05.05h-.05l-.15.1-.1-.05-5.3-1.9-4.55-.5-.5-.05-23.45 1.9 7.7-31.3 7.7-10.2 1.3-2.2m9.2 27.4q.4 5.65.3 10.2.1-4.55-.3-10.2m13.7 13.15-1.15.1 1.15-.1m-18.45-3.9q.15-15.1-1.6-28.75 1.75 13.65 1.6 28.75m124.2-64.8.3.15 5 9.25 11.1 6.35 3.95 7.55 10.05 5.15.15.15q1.95 1.1 4.05 2 4.9 2 10.8 2.7h.25l-1.75 6.2-12.4-1.15-8 2 7.15 8-11.8-4.4v-.9q-.3-1.95-2.35-4.15l2.6-7.35-20.55-17.85-2.1-8.95-9.3-12.15q3.85 2.25 7.15 4.75l1 .45 4 1.85.7.35M-81.5-135l-3.75.5 3.75-.5m10 .5-4.25-.75 4.25.75m29.9-.75 1.1.25 13.5 4.25 6.8 1.1-3.25-7.35q6.5 2.9 16.15 12.75 6.15 6.35 13.6 15.5l.25.35-.05.3-.2 1.55-3.7-2.35q-1.15 4.5-4.1 9.7l-3.1 4.95 3.1-4.95Q-.35-93.7 0-86q.7 16.4-8 14-13.6-3.7-19-1l-12 3.5q-9 2.6-12 6.5-7 9.1-6 22 1.45 19.1 2 20 1.35 2.25 5.3 4.75 3.5 7.55 4.4 9l.65.9-4.35 3.3Q-57.35 3.7-57 8q.3 3.8 5 8.5 6.9 6.9 8 8.5 2.5 3.6 14.9 8.55l2.75 1.15 4.3 1.75Q-19.5 37.65-21 38l-5.9.75q-4.4 3.8-5.85 16.3.05-10.2 3.65-16l-10.7 1.6q-8.9 1.45-13.8 3.25l2.7-6.6 1.45-2.75L-48 35l6.95 1.15 12.25 1.45h.85l1.45-.05q2.75-.3.75-2l-.75-.55q-.95-.7-4.65-.95l-7.55-.85q-7.65-1.55-11.15-3.25l-1.55-3.25.75 2.8q-3.35-1.95-6.55-5.45-3.25-3.6-8.85-6.9-5.6-3.3-6.75-8.1Q-74 4.2-73.3 2q2.4-7.4 3-8.45 1.7-2.95 5-3.85l1.35-.25q5.55 1.75 13.9 1.9-8.35-.15-13.9-1.9l-1.5-.55-2.35-6.4q-3-3.95 0-23.8-.65-7.35 4.55-18.6 2.15-8.75 10-16.7l16.15-2.05 23.35-10.1-8.85 9.3 4.3.05 6.8-5.7q3.95-4.85 6.9-9.15l-7.45-3.35q-3.35-8.15-13.5-21.6l-.3-.35-14.25-13.25-5.85-3.35 4.35.9m8.6 6-4.75-3 4.75 3m-31.05-53.9q-.85-.8-1.7-1.25.85.45 1.7 1.25m31.5 182.1q.45.5 1.6.9.1 4.3.9 6.5L-34 7q-3.5-4.85 1.45-8.05m5.45 6.9L-25 3l2-1.55 8.75.85 7.25.6L-3 6q-2 7.8-3.35 9 1.55.75 7.1 0 7.1-2.25 8.35-.9l1.6 1.7L13 18q4.35 3.25 4 6-.2 1.6 1.55 4.65l1.4 2-.4.15-3.85 1.55q-2.2-2.4-6.8-5.95Q1.25 20.55-2 22q-5 2.25-9 0l1-10q-3.95-4.95-5-6-1.55-1.55-10.45-.45l-1.65.3M-77.8 16.9l.45.85q-4.85 7.05-7.2 15.05-1.7-.3-6.1 1.8-4.35 2.05-5.55 4.6-1.25 2.55-3.5 4.35-2.25 1.75-2.2 6.7 0 2.45-1.8 6.7-1.85 4.25-3.3 5.05-1.4.75-2.9 1l-2.15.3q-2.15.55-3.95 4.7-1.5 3.5-3.25 4.95-2.05 3.3 2.25 6.05l7.55 4.75q2.1 1.6.45 3.25-3.15 3.15-6.3 4.35l-.75-.65-.6-.2q-7.75-2.85-9.15-8.9-1-3.05 1.25-8.1-2.9-.8.75-8.4l1.35-1.95 7.85-8.7.95-9.3q4.95-14.3 9.9-13.6Q-93 14.05-77.8 16.9m-26.5 28.85q-1.8-5.75.55-14.2-2.35 8.45-.55 14.2m-20.25 27.75.75-1.55-.75 1.55m119.75-37 .5.8-1.95 19.95-.25-20.7h-.25l-.5-5.55 2.45 5.5-1.7.05 1.7-.05m-9.35.45-.1.25q-3.95 11.65-5.5 31.8-1.4-22.5 4.1-31.8-2.25-.85-2.5-6.45l4 6.2m27.4 8.35 4.55-10.45 1.95 1.75 1.2 1q-4.45 2.85-7.7 7.7" transform="translate(209.15 233.55)"/><path fill-rule="evenodd" fill="#736003" d="M-204.8-129.15q0 9.3 2.9 15.3l-.5.1-2.85 1.5q-1.05-.75-1.75-1.8-1.5-2.3-1.5-6 0-5.6 3.35-9.7l.35.6" transform="translate(209.15 233.55)"/><path fill-rule="evenodd" fill="#474701" d="m-196.85-119.25 3.6 3.1-8.65 2.3q-2.9-6-2.9-15.3 3.6 5.75 7.95 9.9" transform="translate(209.15 233.55)"/><path fill-rule="evenodd" fill="#c7c7b0" d="M-162.85-55.65q-.35-1.15-.35-2.35 0-3.3 2.35-5.65 1.6-1.6 3.6-2.1-4.95 4.05-4.8 11.9l-.55-1.1-.25-.65v-.05m14.15-7.05q.25-2.8 2.15-4.95l.5-.55q2.45-2.5 5.9-2.65-7.35 3-7.9 12.8-.7-1.7-.7-3.65l.05-1" transform="translate(209.15 233.55)"/><path fill-rule="evenodd" fill="#504539" d="m-47.95-188.5.6.45-.7-.35.1-.1" transform="translate(209.15 233.55)"/><path fill-rule="evenodd" fill="#131313" d="M-4.4-181.7-5.7-166q-2.1-.4-4.05-1.2v-12l.4-.15 1.7-.55 2.6-1.45.65-.35m-68.9-20-1.1-9.2 3-2.5 3.35 13.9-5.25-2.2" transform="translate(209.15 233.55)"/><path fill-rule="evenodd" fill="#cda70f" d="m-120.15-191.4-2.3-.35q-2.95 0-5.1 2.1-2.1 2.1-2.05 5.1v.55l-4.55 9.35-.25-.2-.3-.2-.35-.2q-2.65-2.55 2.3-10.25 3.25-5.45 5.95-6.65 5.7-3.4 7.15-2.85l.1.05 2.25 1.4-2.85 2.15m-2.65 17.5q6.95-2.65 11.65-8.5.1 2.45-1.95 4.6-2.45 2.55-6.8 3.55l-2.9.35" transform="translate(209.15 233.55)"/><path fill-rule="evenodd" fill="#cd7000" d="M-129.6-184v-.55q-.05-3 2.05-5.1 2.15-2.1 5.1-2.1l2.3.35q-6.4.7-8.75 6.6l-.7.8m5.1 6.3q-1.4-.4-2.5-1.35 3.3-2.25 6.05-5.8-.8 3.55-3.55 7.15" transform="translate(209.15 233.55)"/><path fill-rule="evenodd" fill="#ffd941" d="m-120.15-191.4 2.85-2.15q4.3 3.3 5.95 9.9l.2 1.25q-4.7 5.85-11.65 8.5l-.25.05-6.95.55-4.15-1.35 4.55-9.35q.15 2.6 2.05 4.45l.55.5q1.1.95 2.5 1.35l2.05.3q2.95 0 5.05-2.15l.3-.3q1.85-2 1.85-4.7l-.2-1.8q-.5-1.85-1.95-3.3-1.25-1.25-2.75-1.75m-14.55 16.35.3.2-.3-.15v-.05" transform="translate(209.15 233.55)"/><path fill-rule="evenodd" fill="#9b7500" d="M-119.65-195q-1.45-.55-7.15 2.85-2.7 1.2-5.95 6.65-4.95 7.7-2.3 10.25l-2.6-1.75.05-.45q1.05-10.25 4.6-15.75l.05-.1.05-.05q1.1-1.65 4.4-2.8 3.75-1.25 8.5 1l.35.15" transform="translate(209.15 233.55)"/><path fill-rule="evenodd" fill="#ffa226" d="m-129.6-184 .7-.8q2.35-5.9 8.75-6.6 1.5.5 2.75 1.75 1.45 1.45 1.95 3.3-1.85-.1-5.5 1.5 2.4 2.35 3.85 5l-.3.3q-2.1 2.15-5.05 2.15l-2.05-.3q2.75-3.6 3.55-7.15-2.75 3.55-6.05 5.8l-.55-.5q-1.9-1.85-2.05-4.45" transform="translate(209.15 233.55)"/><path fill-rule="evenodd" fill="#ed9014" d="m-115.45-186.35.2 1.8q0 2.7-1.85 4.7-1.45-2.65-3.85-5 3.65-1.6 5.5-1.5" transform="translate(209.15 233.55)"/><path fill-rule="evenodd" fill="#8f8f8f" d="m-99.6-170.2-1.2-.45q-2.75-.9-4.25-2.3-.9-.85-1.35-1.85l.85-2.75 6 .9 1.75.45q2.6.75 4.2 1.7l.05.05 1.65 1.25q1.95 2.1-.6 2.9-3.8 1.05-7.1.1M76.2 151.6q-5.9-2.5 0-6.5 3.9-1.15 5.9 0 2.1 1.35 1.45 2.7v.05l-7.3 3.75h-.05l7.35-3.8-7.35 3.8" transform="translate(209.15 233.55)"/><path fill-rule="evenodd" fill="#7d7d7d" d="M-91.35-163.9q.7 2.55-1.7 3.25-3.45-1.05-1-5.65 2-.1 2.7 2.4M56.25 133l-.75-1.05q-.55-1.2.1-2.15.6-.95 2.4-1.7l1.1-.9q1.15.1 1.85.5-.65 3.75-4.7 5.3" transform="translate(209.15 233.55)"/><path fill-rule="evenodd" fill="#9a9a83" d="M-136.5-70.35q1.85.65 3.4 2.15l1.4 1.8q1.25 2.05 1.3 4.7-.05 3.75-2.7 6.45l-1.15 1-1.1.7-.1.05q-1.9.95-4.15.95-3.25 0-5.65-1.95 7.8.7 9.85-4.2 1.75-4.25-1.1-11.65m-10.8 13.65q-.25 1.6-1.1 2.95l-1.15 1.4Q-151.9-50-155.2-50l-1.2-.05q10.95-4.7 3.15-15.7 2.05.45 3.7 2.1l.85.95-.05 1q0 1.95.7 3.65l.25.45.5.9" transform="translate(209.15 233.55)"/><path fill-rule="evenodd" fill="#aeae97" d="m-157.25-65.75.15-.05 1.25-.15.65-.05 1.95.25q7.8 11-3.15 15.7-2.55-.4-4.45-2.3l.05-.15h-.2l-1.05-1.35q-.15-7.85 4.8-11.9m17.1-5.1.55-.05 3.1.55q2.85 7.4 1.1 11.65-2.05 4.9-9.85 4.2l-.8-.75-1.25-1.45-.5-.9-.25-.45q.55-9.8 7.9-12.8m4.8 17.3-.1.05.1-.05m-24.8 1.15-.65-.1.65.1" transform="translate(209.15 233.55)"/><path fill-rule="evenodd" fill="#7d888a" d="M-171.6-30.7q-13.2.1-20.85-3.7 7.45-5.8 22.3-1.85 3.55.95 7.5 2.45l.05.1.15.15-3.95 2.7-5.2.15m4.1-22.6-5.15-.6q-14-.95-11-11 10.25-.65 20.8 9.25v.05l.25.65-4.9 1.65m35.8-13.1q1.25-6.3 5.45-18.25 3.25-7.55 8.85-7.75 5.2 4.05 1 17.05l-11.35 15.3-3.9 5.2-.4.1-.9.15-1.3.35 1.15-1q2.65-2.7 2.7-6.45-.05-2.65-1.3-4.7" transform="translate(209.15 233.55)"/><path fill-rule="evenodd" fill="#ab9a34" d="M-144.5 122.15q-2.35-5.5.35-14.15l1.9-1.55q-2.15 8.3-2.25 15.7M2.55-56.05l3.3-2.3q4.2-1.3 6.75-1Q2.4-54.75-3.85-44.6l-5.8 9.35q.65-3.8 1.95-7.15l2.1-4.4q3.05-5.3 8.15-9.25m-14.75 13.5 1.95-.2q-3.5 3.9-4.9 10.95-1.5 7.2-.7 17.75-3.05-5.95-2.35-14.7.35-4.85 1.8-10.5 1.55-2.65 4.2-3.3M7.4-21.5q4.9-5.6 12.6-9.9 5.5-3 11.2-1.9 1.65 1.75 2.5 3.75-4.55 8.05-11.7 10.8l-5.3 2.2L5.3-15.2q.45-3.25 2.1-6.3M8.5 4.2 5.95 2.8q14.4 4.45 30.2-2.55-.85 1.85-2.45 3.9l-1.3.45-.8.3L27.5 6q-10.45 2.3-19-1.8m-138.9 102.05q1.25-.95 2.95-1.45-6.1 5.75-10.45 17.95-.15-11.1 7.5-16.5m245.8-1.8q.45 1.5.7 3.35.45 3.45 0 7.85-3.05 4.25-5.95 6.45-1.55 1.1-3 1.65-2.8-1.25-4.85-5.4 8.95-2.15 13.1-13.9M81.35 178.9q3.2 2.45 4.3 5.2l-1.2.35q-5.6 2-12.65 8.05 1.3-2.05 2.7-5.6.5-1.25 1.3-2.45 1.9-2.85 5.55-5.55m-24.05-6.5q6.6 1 9.25 5.9-3.45 2.55-7 6.15-3.25 3.3-6.55 7.45h-.15q.6-2.25 2.6-5.4l1.3-2.05q3.5-5.2 6.4-5.4 1.8-3.6-5.85-6.65" transform="translate(209.15 233.55)"/><path fill-rule="evenodd" fill="#92811b" d="m70.95 195.55-4.05-.05-.05-.5q1.2-5.8 3.05-10.55 1.55-3.95 3.5-7.15l.1-.15h.15q2.3-.4 5.1.05l2.6 1.7q-3.65 2.7-5.55 5.55-.8 1.2-1.3 2.45-1.4 3.55-2.7 5.6-1.35 2-.85 3.05m-19.1-.2q-2.8.35-4.7.05-.8-5.25.45-10.95 1.25-5.85 4.65-12.25l.05-.05 5 .25q7.65 3.05 5.85 6.65-2.9.2-6.4 5.4l-1.3 2.05q-2 3.15-2.6 5.4l-.05.3.2-.3-1.15 3.45m-18.5-3.95q-3.05.35-6.25-.65v-.15q-.2-3.1-.05-6.15.4-7.95 3.5-15.7 3.2-1.45 6.4-.65l1.2.3q-5.35 1.4-6.05 16.05l-.05 1.5.7-1.5Q37 175.8 41.7 173.1q-4.9 5.3-6.95 11.35-1.15 3.35-1.4 6.95m-141.8-58.2-.5-3.8-.05-.5q1.85-10.5 5.85-16.35l.15-.05q3.05-.95 6.85.7l1.1.55q-8.6 4.3-13.4 19.45m-28.3-1.6-.55-2.7q-.55-3.25-.6-6.15 4.35-12.2 10.45-17.95 1.75-.95 4.85-.9 3.4.1 4.9.85-4.75.7-10.75 10.7-2.55 5.5-3.95 9.55v-5.05l-4.35 11.65m-1.65-3.25q-4.4-2.3-6.1-6.2.1-7.4 2.25-15.7l.1-.05q1.35-.8 3-1.1l.1.35q-.75.8-1.2 8.1-.45 7.25 1.85 14.6m128.15-171.1 2.55.35q-1.3 3.35-1.95 7.15l-.15.9 2.2.4-.55 1.85Q-12.3-17.75-9.4-6.85q-4.05-2.7-6.25-6.8l-.2-.4q-.8-10.55.7-17.75 1.4-7.05 4.9-10.95M7.4-21.5l1.1-1.85q3.05-4.75 8.85-9 2.75-2 6.1-3.9 5 .75 7.75 2.95-5.7-1.1-11.2 1.9-7.7 4.3-12.6 9.9m25.2 4.65-.95.5-.6.3q-1.45.7-2.8 1.25-3.3 1.35-6.5 2.05-8.55 1.8-16.65-1l.2-1.45 11.4-1.35 2.55-.3q9.05-1.45 15.15-6.5-.4 2.8-1.7 6.3l-.1.2M5.95 2.8l-.1-.15 6.85-6.2 2.5-2.25q5.6-1.6 11.35-4.75l6.3-.4Q38.7-5.9 36.15.25q-15.8 7-30.2 2.55l6.75-6.35L5.95 2.8m98.35 104.35 1.05-.4 7.75-6.9q1.5 1.9 2.3 4.6-4.15 11.75-13.1 13.9l-.15-.35q-2.55-5.45-1.25-9.6l3.4-1.25" transform="translate(209.15 233.55)"/><path fill-rule="evenodd" fill="#92811b" d="M12.6-59.35q3.9 1.35 6.05 5.2Q14.7-49.6 5.35-43.2l14.8-7.35q.9 2.9.8 5.7v.5h-.3L-2.9-34.1l-4.7.15-2.2-.4.15-.9 5.8-9.35Q2.4-54.75 12.6-59.35" transform="translate(209.15 233.55)"/><path fill-rule="evenodd" fill="#6e5d00" d="M83.4 192.6q-6.4 2.6-12.45 2.95-.5-1.05.85-3.05 7.05-6.05 12.65-8.05l1.2-.35.1.35q1.2 3.65-1.4 7.75l-.95.4M66.85 195l-.3-4.1q-9.1 3.65-14.7 4.45L53 191.9q3.3-4.15 6.55-7.45 3.55-3.6 7-6.15 1.15 2.2 1.55 5.3 1.65-3.9 5.15-6.4l.15.1q-1.95 3.2-3.5 7.15-1.85 4.75-3.05 10.55m-19.7.4-.8-.2q-1.25-6.15-1.15-10.75v-.1l-.1.1q-3.6 3.65-8.5 6.15l-3.25.8q.25-3.6 1.4-6.95 2.05-6.05 6.95-11.35-4.7 2.7-8.95 11.35l-.7 1.5.05-1.5q.7-14.65 6.05-16.05 2.7.8 4.65 2.3l1.55 1.4q1.7 1.85 2.65 4.45 1.75-3.15 5.15-4.4l.1.05q-3.4 6.4-4.65 12.25-1.25 5.7-.45 10.95m-20.45-4.8q-1.05-3.25-1.45-6.15-1.25-9.3 4.35-15.25l.95-.45q-3.1 7.75-3.5 15.7-.15 3.05.05 6.15h-.4m-114.55-65q-8.9 6.85-20.6 7.6 4.8-15.15 13.4-19.45 6.1 3.2 8 11.2l-.8.65m-19.95-9.6q-7.1 10.9-17.3 13.55-10.25 2.6-11.65 2.05l4.35-11.65V125q1.4-4.05 3.95-9.55 6-10 10.75-10.7 7.4 3.8 9.9 11.25m-29.5 12.9-1.1-.55q-2.3-7.35-1.85-14.6.45-7.3 1.2-8.1l.3-.4 2.75-.1q2.5.1 5.6 1.1-7.65 5.4-7.5 16.5.05 2.9.6 6.15M-169.65-6.65q-1-4.85 1.9-9.35 5.7.5 10.5-.15 8.5 4.55 13.5 9.4l1.8 1.9q1.85 2.1 3.05 4.3-26-2-30.75-6.1m-2.6-22.35.65-1.7 5.2-.15 3.95-2.7.1-.1q15.3 3.3 19.95 11-2.95 2.65-6.65 4.3-9.35-.75-18.2-5.65-3.55-2.5-5-5m-.15-11.9q-1.75-6.45 4.9-12.4l4.9-1.65.55 1.1 1.05 1.35.15.15q1.9 1.9 4.45 2.3l1.2.05q3.3 0 5.65-2.35l1.15-1.4q5.8 2.4 8.75 6.3l-.5.9-9.9-2.5-13.6 2.9-8.75 5.25m164.8 6.95 4.7-.15 23.55-10.25.3.05q-.15 2.25-1 4.55l-5.1 1.6q-7.9 2.35-13.5 3.4l-3.3 5.65q-2 3.7-3.5 7.55-2.9 7.25-3.95 14.7-2.9-10.9 1.25-25.25l.55-1.85m4.7-.15 4.25-.65-4.25.65m-120.95-18.55.8.5-8.95 12-6.7 11.7 4-19.25 5.8-7.15.65.2q2.55.8 4.4 2M66.55 190.9q.1-3.55 1.2-6.45l.35-.85-.35.85q-1.1 2.9-1.2 6.45M47 176.55q-1.65 3-1.8 7.8.15-4.8 1.8-7.8" transform="translate(209.15 233.55)"/><path fill-rule="evenodd" fill="#242424" d="m-49.85 29.95 1.35 2.8-.95 1.8-1.45 2.75-2.7 6.6-.7.3 1.3-5.95 2.55-3.95.75-1.25-.9-3.45.05-.05-.1-.05-.75-2.8 1.55 3.25m-18.9-5q-1.55-1-1.2-6.7l3.05 7.55-1.85-.85 1.85.85.6 1.5q-3.65 1.95-9.15 10.4 1.65-8.95 6.95-11.45l-.25-1.3" transform="translate(209.15 233.55)"/><path fill-rule="evenodd" fill="#81811b" d="M20.65-44.35h.3v.05l-.3-.05m-14.8 47 .1.15-.15-.1.05-.05m-145 102.65.4-.05-.3.4-.1-.35" transform="translate(209.15 233.55)"/><path fill-rule="evenodd" fill="#5a4900" d="m-142.1.05-17.45 2.05q-6.2-2.75-10.1-8.75 4.75 4.1 30.75 6.1l-3.2.6M-167.75-16q-7.4-4.6-4.5-13 1.45 2.5 5 5 8.85 4.9 18.2 5.65-3.7 1.6-8.2 2.2-4.8.65-10.5.15m-2.4-20.25q-1.65-2.35-2.25-4.65l8.75-5.25 13.6-2.9 9.9 2.5.5-.9q1.65-3.05 4.2-6.05l.1-.05 1.1-.7 1.3-.35.9-.15.4-.1q1.6-.25 2.75 0l-5.8 7.15-4 19.25 6.7-11.7 8.95-12q5.85 4.2 3.45 12.35l-.05.2-.05.05-.05.05q-5.75 6.55-12 11.7l-5.4 4.15-.4-5.55-1.25 5.8q-3.95-6.2-4-12.45-.1-5.35 2.65-10.7-2.75 5.35-2.65 10.7-8.8-.85-19.55 2.2l-.25-.1-.05-.05q-3.95-1.5-7.5-2.45" transform="translate(209.15 233.55)"/><path fill-rule="evenodd" fill="#505041" d="M-135.45-53.5q-2.55 3-4.2 6.05-2.95-3.9-8.75-6.3.85-1.35 1.1-2.95l1.25 1.45.8.75q2.4 1.95 5.65 1.95 2.25 0 4.15-.95" transform="translate(209.15 233.55)"/><path fill-rule="evenodd" fill="#383838" d="M-136.5 4.35q-3.35-1.55-5.6-4.3l3.2-.6q-1.2-2.2-3.05-4.3l-1.8-1.9 4.9-3.6-.45 2.45.45-2.45q1.7-7.45 7.45-12.95l-.35-4.5q6.25-5.15 12-11.7l3.7 8.8-5.95 8.15-6.9 5.6q-11.35 13.2-7.6 21.3" transform="translate(209.15 233.55)"/><path fill-rule="evenodd" fill="#9a9a34" d="M-109 128.9q-.5-6.45 1.2-12.9 2.05-2.6 4.65-3.45-4 5.85-5.85 16.35" transform="translate(209.15 233.55)"/><path fill-rule="evenodd" fill="#e6f1f2" d="m-162.35-33.65-.1.1-.15-.15.25.05" transform="translate(209.15 233.55)"/><path fill-rule="evenodd" fill="#bd8f00" d="m170.55-32.55 1.5-3.7 2 3.3 1.05-2.75-4.4-7.7.25-4.25 3.45-.2.4.55 5.9 4.75-5.65 13.65-3.85 4.35q.45-3.4-.65-8" transform="translate(209.15 233.55)"/><path fill-rule="evenodd" fill="#d6a809" d="m171.6-51.85 2.4 3.4.4.6-3.45.2-.25 4.25 4.4 7.7-1.05 2.75-2-3.3-1.5 3.7-2-3.75-.05-2.55 1.7-1.8-1-3 2.4-8.2" transform="translate(209.15 233.55)"/><path fill-rule="evenodd" fill="#ffd132" d="M126.95 3.25q7.45-6.65 10.75-15l4.4 4.85q-3.05 8.15-9 13.4l-6.15-3.25M169.2-55.3l2.4 3.45-2.4 8.2 1 3-1.7 1.8.05 2.55q-.85-1.3-3.55-2.85 4.3-8.8 4.2-16.15" transform="translate(209.15 233.55)"/><path fill-rule="evenodd" fill="#ffea4b" d="M137.7-11.75q2.85 1.05 6.65 1.2 4.95.2 11.5-1.2l2.6 3.25q-11.7 4.05-16.35 1.6l-4.4-4.85m21.65-28.3q3.1-7.25 3.7-13.8l6.15-1.45q.1 7.35-4.2 16.15l-6.8 1.5 1.15-2.4" transform="translate(209.15 233.55)"/><path fill-rule="evenodd" fill="#7a3300" d="M154.35-18.7q-5.05-6.1-12.05-7.85 1.9-4.5 2.9-14 6.25-.85 11-3.6l3.15 4.1-1.15 2.4q3.95 2.8 6.45 6.3-5.75 7.8-10.3 12.65" transform="translate(209.15 233.55)"/><path fill-rule="evenodd" fill="#904900" d="M107.6 11.05Q105.35 4.2 100.35-.9L104.2-3l7.75-11.15 14.9 6.4L125.6-4l-1.4 11.85-.25 1.75q-8.35 2.2-15.85 3.2l-.5-1.75" transform="translate(209.15 233.55)"/><path fill-rule="evenodd" fill="#bc5e00" d="m150.05 3.6-.35 4.55-3 1.3-1.75-3-3.7 3.15-4.15 5.35-3.75 1q.3-2.4.15-5.55l1.2 2.65 5.25-4.35 1.85-10.1 7.75-1.3-1.85 9.15 2.35-2.85m6.5-1.45-2.3-3.25-2.6 1.25 2.2-3.8 5.85-2.1-3.1 7.85v.05h-.05" transform="translate(209.15 233.55)"/><path fill-rule="evenodd" fill="#9f4c00" d="m133.35 15.95 3.75-1 4.15-5.35 3.7-3.15 1.75 3 3-1.3.35-4.55.15-2.75 1.45-.7 2.6-1.25 2.3 3.25.05.05q-2.95 7.65-6.85 13.75l-16.65 1.3.25-1.3" transform="translate(209.15 233.55)"/><path fill-rule="evenodd" fill="#dd7f04" d="m150.05 3.6-2.35 2.85 1.85-9.15-7.75 1.3-1.85 10.1-5.25 4.35-1.2-2.65-.4-3.9q5.95-5.25 9-13.4 4.65 2.45 16.35-1.6l1.25 2.75-5.85 2.1-2.2 3.8-1.45.7-.15 2.75m6.55-1.4-.05-.05h.05v.05" transform="translate(209.15 233.55)"/><path fill-rule="evenodd" fill="#c4b34d" d="m18.65-54.15.35.7 1.15 2.9-14.8 7.35q9.35-6.4 13.3-10.95m15.75 30.8q-6.1 5.05-15.15 6.5l-2.55.3 5.3-2.2q7.15-2.75 11.7-10.8 1.15 2.8.7 6.2" transform="translate(209.15 233.55)"/><path fill-rule="evenodd" fill="#505050" d="m111.4 122.8-.3.15 1.15 3-1.75 4.1 5.6 5.75-1.5 2.65v13.5l-2.2-4q-4.85-8.5-6.8-10.45l-.6-.5q-3.35-1.8-8.15-5.1-6.2-4.25-6.85-5.9-.8-2.05-2.55-17.8Q85.65 92.05 86 88q.35-4.25.05-8.25Q85.75 75.8 85 75q-1.45-1.6-4.7-8.65l-.55-1.15Q76.2 57.55 76 56q-.15-1.15-3.85-5L68 47q-1-.55-3.5-5.5l1.7-.35.7 1.6 9.55 7.8L83 65.8l11.75 7.05 6.1 11v11.6l-2.5 4.6v-2.7 5.4h3l2.95 4.4-3.4 1.25q-1.3 4.15 1.25 9.6l.15.35q2.05 4.15 4.85 5.4 1.45-.55 3-1.65l1.25.7M83.7 68.85l-3.4-2.5 3.4 2.5m7.4 7.25-1-1.1 1 1.1m1 33.35q.5 3.95-2 6.9 2.5-2.95 2-6.9m2.7-1.75q.95 3.7-.2 7.25 1.15-3.55.2-7.25m6.1.7.3-.9-.3.9m8.55 15.85-2.3-.5 2.3.5" transform="translate(209.15 233.55)"/><path fill-rule="evenodd" fill="#404040" d="m38.35 159.85-1-1.75 1.8-3 .8.25h29l6.8-3.5.5-.25 7.3-3.75.95-.5 12.7-6.55 1.6 2.2 7.2 10q.9 1.55.9 2.5 0 2.3-12.4 16.5l-3 4.25-.05-.05-8.2-6.45-.55-.2-17.35-6.7-11.6-1.8-12.55-1.4-2.85.2m61-4v-4.9 4.9m-8.85 14.7q-2.65-3.85-25.15-7.7 22.5 3.85 25.15 7.7m-.55-3.35 9.5-7.85-9.5 7.85m-15-6.6q-3.6-3.2-33.75-.95 30.15-2.25 33.75.95" transform="translate(209.15 233.55)"/><path fill-rule="evenodd" fill="#656500" d="m27.1 190.75-.4-.15h.4v.15m46.4-13.6-.1.15-.15-.1.25-.05m-21.2-5-.05.05-.1-.05h.15" transform="translate(209.15 233.55)"/><path fill-rule="evenodd" fill="#a09a34" d="M52.85 191.9H53l-.2.3.05-.3" transform="translate(209.15 233.55)"/><path fill-rule="evenodd" fill="#616161" d="M56.25 133q4.05-1.55 4.7-5.3 2 1.05-.6 4.25-2.25 3.1-4.1 1.05" transform="translate(209.15 233.55)"/><path stroke-opacity=".514" stroke-linejoin="round" stroke-linecap="round" stroke="#000" fill="none" d="m122.45-183.9 3.65 11.25q-14.3 6.4-22.8 13.1l25.8-6.25 3.6 3.75 6.75 29.75.15.75 2.6 11.4q-12.15 8.7-30.25 13.25l-3.75 8.15-13.65 3.45-6.5 1.65-1 .25H78.1v.1l8.3 17.25q7.35 1.5 17.8-6.1l21.65 10.6q-.65 11.3 2.15 19.15l-2.05 3.1-12.7 22.15-20.65-4.6-4.15-4.1.8 2.95 11.7 43.5.4.85 6.25-.4Q105.35 4.2 100.35-.9L104.2-3l7.75-11.15 14.9 6.4L125.6-4l-1.4 11.85 3.95-2.2-1.2-2.4q7.45-6.65 10.75-15 2.85 1.05 6.65 1.2 5.3-3.25 10-8.15-5.05-6.1-12.05-7.85 1.9-4.5 2.9-14 6.25-.85 11-3.6l3.15 4.1q3.1-7.25 3.7-13.8l6.15-1.45 2.4 3.45 2.4 3.4q7.35-14.2 16.3-20.7 7.6-5.55 18-5.9 7.05-.3 11.85 1.85l.6.3q1.6.75 2.95 1.85 3.65 2.95 5.15 5.75 1.85 3.55-1.4 4.75h-.1q-1.9.65-3.8.45l-3.1-.5q-3.7-.45-8.6 3.7-7.7 28.95-8.15 44.5-2.05 19.55-10.7 39.5-6.25 14.4-15.9 29-16 30.4-46.85 49.9-8.45 11.3-18.85 16.8l-.3.15 1.15 3-1.75 4.1 5.6 5.75-1.5 2.65v20.25l-12.75 21.6m20.6-364.2 1-3.15q-16.5-5.7-27.9-13.6m-62.7 3.85q10.2-1.1 41.25-20.7l6.5 2.85q5.85 7.7 14.95 14M6.5-200.8l.8 8.75.3 3.55-.25.15-11.2 6.3M-5.7-166q5.2 1 11.05-.75l1.15.05q2.45.3 6.15 2.9l4.1 3.25q.6 1.6.8 3.3l-.05 4.05q.55 2.35 1.25 4.55l1.6 4.3 5.75 5.45q9.3 8.4 18.15 14.25 11.15 7.35 21.6 10.5l4.6 2.3m-37.6-84.95-2.35 8.9m40.2 76.2 4.55 2.3.45 2.45 2.4 13.55m-57.75-50.95q1.45 3.65 3.4 6.8m63.7 88.45 3.05-18.4-1.6-3.3-2.5-5.25m12.95-80.1q1.8-1.7 3.95-3.4m-147.2-57.2q11.95-5.9 17.5-16.3l4.1.75q1 .65 2.1 1.15l3.15 1.1q5.85 0 9.9-1.2l5.1 1.2 4.8 8.4-3.85 3.7 6.2 1.3 1.4 15.85m-1.4-15.85-3.8 1.3m-16.45 37.85 5.4-1.7m.4-.15 1.7-.55 2.6-1.45 1.2-.7m-43.2-5.85 9.5 4.65 4.85 2.55q7.35 3.95 13.7 7.9l.35.2 2.95-4.15.55-.75m5.4 10.3-2.75-1.45-6.15-3.95m8.9 5.4q1.95.8 4.05 1.2M211.85-59.55v2.65M180.7-42.55q2.15-5.1 4.25-8.25m-10.55 2.95-.4-.6m.4.6.4.55 5.9 4.75-5.65 13.65-3.85 4.35h-4.5q.35-2.7-2.05-6.8-5.75 7.8-10.3 12.65m3.85-18.95q3.95 2.8 6.45 6.3m-6.45-6.3 1.15-2.4M108.1 12.8l-.5-1.75m.5 1.75-2.4.45m27.4 4 16.65-1.3q3.9-6.1 6.85-13.75m1.9 11.7q-4.75 1.9-8.75 2.05m-16.65 1.3-2.9-2.5q-.4-5.1-2.05-9.1m-3.95 2.2-.25 1.75q-8.35 2.2-15.85 3.2m51.6-18.55-3.1 7.85v.1m-12.25-12.75q4.95.2 11.5-1.2l2.6 3.25 1.25 2.75M87.45-49.1l-1 5.85 2 7.4m-22.25 77q5.2-.95 9.8-.05m13.5 18.6q5.15 6.95 11.35 13.25 2.4-7.75 3.1-17.75.4-5.35.3-11.35m.7-6.35q2.85-11.7-3.6-26.05M89.5 59.7q-2.55-3.4-4.8-6.95-3.45-5.35-6.35-11.05L76 41.1m-9.8.05-1.7.35-.9.2m37.25 42.15v-10.9m0 4.65q5.35-3.4 7-18.25m-9.5 40.7 2.5-4.6v-11.6m-2.5 16.2v-2.7m2.4 5.4h-2.4v-2.7" transform="translate(209.15 233.55)"/><path stroke-width=".05" stroke-linejoin="round" stroke-linecap="round" stroke="#6d3701" fill="none" d="M304.7 32.9q-2.1 12.75 7 17.45 9.05 4.65 19.9-.7M227.9 84.9l3.75-6 .25-.45m47.95-6.75q1.9-2.25 5.1-1.3 4.2 1.25 7.25 4.1 3 2.85 4.25 7.65.4 1.6.3 3.1-.25 2.85-2.5 5.2-3.45 3.55-7.55 3.15-4.15-.45-7.1-3.15-3-2.7-2.85-7.8.15-5.1 2.1-9.3l1-1.65m-24.8 17.4q1.65 4.75 3.95 8.45l.45 1.45q.25 1.15.1 2.35-.55 4.1-6.15 7.55m1.65-19.8q-1.1-3.05-1.95-6.5-.8-2.65-3.7-4.5l-1.95-1.05-.25-.05-5.95-.65q-3.1-.05-5.65.8l-3.7 1.3"/><path stroke-width=".05" stroke-linejoin="round" stroke-linecap="round" stroke="#000" fill="none" d="m53.3 167.6-6.55-5.6-7.1 2.85.95 2.05-.9 1.35-1.45-1.35 1-1.9.4-.15M226.7 76.3q7.15-13.6 11.35-25.7l1.6-4.95L229.5 34.9l-13.85-2.15m-10.9 19.1-1.3 15.7m129 97L335 162M101.75 27.9l-1.6-9.65 8.5-3.85 10.75 7.75-.85 4.25m17.3 5.45-1.1-9.2 3-2.5 12.35-8.6 13.5 6.1 1.45 5.55M42.6 65.3l2.3.05 1.95.05m1.1-1.75-4.35.5m6.05-.65-.75.05m1.55-.15 1.85.25m6.85-.55-1.3-.1m-16.1 12.9 1.5 2.4m-9.9-5 .05-.05-1.75-2.5 1.6-1.55 2.3 1.2-2.15 2.85m-.25.4.2-.35m28.75 92.2-7.8-11.45 2.15-4.45 2.65-.1 2.25 1.65-.05.1 1.45.75-.7 2.25-1.95-.35 1.2-2.65M207.1 3.5q-8.8 1.6-15 0m1.45 52.7.45-.15m-.45.15-2.05.6m-26.55-32.45.1-1.15m34.35 31.15v12m11.05-48.15-7.8 2.6 5.4-5.2m-98.5 47.75-1.2-.45q-2.75-.9-4.25-2.3-.9-.85-1.35-1.85l.85-2.75 6 .9 1.75.45q2.6.75 4.2 1.7M115 53.8l-3.75-.3m29.85-19.45-3.35-13.9m-22.9 31.35 2.8-.25h.9l1.7.3M115 53.8q2.65.4 5 1.35m-4.4 3.95 1.65 1.25q1.95 2.1-.6 2.9-3.8 1.05-7.1.1m8.25 6.3q-.7-2.5-2.7-2.4-2.45 4.6 1 5.65 2.4-.7 1.7-3.25M146 102.5l-2.35.1M215 175.2q4.2-1.3 6.75-1 3.9 1.35 6.05 5.2l.35.7 1.15 2.9q.9 2.9.8 5.7m12.55-7.65-.05-.9q-.25-1.95-1.2-3.85-4.1-8.1-11.25-10.4m-171-102.8 10.45.9m127.35 127 1.95-.2 2.55.35m28.65-1.95v-.5m-1 5.1q.85-2.3 1-4.55m10.25 11q-2.75-2.2-7.75-2.95m-39.85-3q1.55-2.65 4.2-3.3m-20.35 41.5q.45.5 1.6.9m7.95 1.6-7.95-1.6m46.65 32.5 3.85-1.55m-26.55-27.9-7.25-.6-8.75-.85m-21.65-7.8-.65-.9q-.9-1.45-4.4-9l-.8-1.75M145.2 223q5.55 1.75 13.9 1.9m-15.4-2.45q-3.55-1.45-5.75-3.6m26.55 8.35q2.05 2.75 5.4 4.35m71.95-15.05q1.3-3.5 1.7-6.3m1.75 23.6q2.55-6.15-3.3-11.2m-39.85 13.85 15.5 1.3m25.2-.05q1.6-2.05 2.45-3.9m-113.15-63.25q-.4 3 1.9 12.45m-16.9 11.25q1.75 2.1 3.35 4.5m-3.6-4.75.25.25m-9.7 3.65q2.05 3.9 3.8 9.85m-3.95-22.05q5.3 3.3 9.6 8.3m-17.45-3.35q4.35.35 7.9 7.05m24.45 53.6 1.95 2.6q2.45 2.5 6.65 4.6m1.85.85q3.3 1.4 7.5 2.6m-7.5-2.6-1.85-.85m63.95 11.55h.55q9.75-.45 19.95-4.15m-22.2 4.2h-.25l-1.75-.05m2 .05 1.7-.05M46.8 199.9l-.1.1m-.15-.2-.05-.05m371.05-31.45h2.35m-7.75 3 3.5-2.75m-35.25 59.5q-.95-.45 5.75-10 6.95-8.45 8.5-14.25m-154.3-3.55q1.65 1.75 2.5 3.75 1.15 2.8.7 6.2m-13.45-21v.05m12.55-7.9-.05.8M224 195.4l4 2.05-1.5 3.75m15.05 20.15q7.05 5.35 4.45 12.7m6.9 23.7q-7.6.6-17.95 4.25m17.95-4.25q2.5-.2 4.75-.05m-7-14.15q3.75 1.45 7.5 0m31.3 56.35 3.4 2.5m6.4 6.15 1 1.1M286 297.4l3.45 2.5m-4.1 85.25q-5.9-2.5 0-6.5 3.9-1.15 5.9 0 2.1 1.35 1.45 2.7v.05m-3.6-46.6 2.15 2.25m-21.15 24.2q-.7-.4-1.85-.5l-1.1.9q-1.8.75-2.4 1.7-.65.95-.1 2.15l.75 1.05m4.7-5.3q2 1.05-.6 4.25-2.25 3.1-4.1 1.05m38.35-18.05q1.15-3.55.2-7.25m-4.7 8.65q2.5-2.95 2-6.9m50.85-49.95 1.4 4.75m1.55 7.4.05-.15-.1-.7-.6-3.05m.65 3.9-.05.05m-5.8 16.7q.15-10.45-3.3-18.15m3.3 18.15.35.65m-41.05 61.9v4.9m-23.1-4.25h-.05m-35 8.05q30.15-2.25 33.75.95m24.5-1.25-9.5 7.85M132 153.3q-1.4 9.9.15 17.25"/><path stroke-opacity=".431" stroke-linejoin="round" stroke-linecap="round" stroke="#000" fill="none" d="m16.9-68.35.2.1 3.9.6q-2.1-3.35 2.5-10.3m45.7 2.85q.65-6.4-4.2-12-11.9-10.8-23.75-5.65M64.3-78.8l.5.45 4.3 3.9L71.55-72q9.95 10.15 12.6 18.8m-211.9-6.85 7.85-1 4.25 4.9.85 1 1.9 6.5 2.45 4.4q3.15-6.3 4.55-5.8 2.1 1 4.05 2.2l.7-3.6 5.1-.85 5.45-8.55q1.65-11.3 13.45-19.4l.6-3.85q1.25-7.15 10.5-8.15m.45.25 2.95-5.4m-9.5 24.7q.55-5.7 3.45-12.75l3.1-6.55m82.5 23.65-4.65 1.2-.2.1-.35.1-1.2.5-8.2 8.3m-.3.75.55 1.35 3.3-2.3M2-57.4l.3-.75m-.3.75-2.75-.05M-7.7-42.4l2.1-4.4q3.05-5.3 8.15-9.25m-12.2 20.8-.15.9 2.2.4 4.7-.15m4.25-.65-4.25.65m-15.3 5.35q.35-4.85 1.8-10.5l-1.7-2.5Q-15.45-57-1.3-57.45M-7.7-42.4q-1.3 3.35-1.95 7.15m-8.55 6.5q-.7 8.75 2.35 14.7m-90.3-22.3 1.5 2.7q.25 4.15-3 8.85m-2.8-19.45.75 1.35 3.55 6.55m-32.7 26q1.7-7.45 7.45-12.95l-.35-4.5m11.25 32.45 1.65-1.6q13.75-9.55 13.1-28.35M-139.3-7.9l.45-2.45M79.85-38.1v-5.25l-.2-.25m.2 5.5 4.6-4.4q1.45-5-.3-10.7m-15.7 25.55.5-.95m-4.45 8.75 3.95-7.8q6.15-2.75 11.4-8.1v-2.35" transform="translate(209.15 233.55)"/><path stroke-opacity=".671" stroke-linejoin="round" stroke-linecap="round" stroke="#222" fill="none" d="m-145.15-197.55-6.25 7.65-.35 6.4-1.25 5.35 7.1 6.5m35.6-31.5q-1.55-1-3.25-1.85m-37.45 5.6q3.15.6 5.85 1.85l1-1.2v-.05q-.95-1.4.75-4.5 2.2-2.9 4.4-2.9l.25-.2 5.75-4.45 5.9.95 11.7-.9 3.15 4 4.85 1.15 15.5-1.85 1.3.35q9.4 2.35 17.3 5.45l5.25 2.2q4.15 1.9 7.85 4.05 3.85 2.25 7.15 4.75l1 .45 4 1.85m-118.7 20q-4-3.35-2.15-11.55 7.9-8.8 13.75-19.95l4.15.5m-45.85 80.15q1.55-23.85 12.2-41.9l-2.45-5.35q10.05-1.7 20.35-1.75h.2l-.1-.1-.1-.05m-41.75 56.9 3.35 3.6 11.4 1.5 19.1 6m-18.05-15.8 23.45-1.9.5.05m-24.5 1.9-3.6-3.1m-5.05 5.4 8.65-2.3.55-.05m-12.55 3.95 2.85-1.5.5-.1m-6.6 2.35-.15-.15 1.65-2.4m33.15 13.9-.8-.25m.8.25 79.7-11 19.4-1.1 7.85-.15m4.55 14.95q-.55-4.8-3.9-9.4l-.3-.1-2.15-.7-.35-.25-5.7-4.35m27.4-75.8-.7-.35m-55.3-8.75q-2.55-3.05-6.15-5.5l-.8-.5m.8.5-2.75-4.15m-26.75.6h.35q1.5 1.65.65 4.45-.35 1.8-3.65 3.2m-.25 0-2.25-.2M-62.4-93.3q.3-2.05.05-4.1v-.05m-3.9-9.4q14.9 5.35 25.5 17.05" transform="translate(209.15 233.55)"/><path stroke-width=".05" stroke-opacity=".341" stroke-linejoin="round" stroke-linecap="round" stroke="#000" fill="none" d="M42.65 111.25q.1-4.55-.3-10.2M36 81.55q1.75 13.65 1.6 28.75"/><path stroke-opacity=".282" stroke-linejoin="round" stroke-linecap="round" stroke="#000" fill="none" d="M-64.05-183.15q1.25 1.2 2.55 3.15m2.25 2.1q9.6 12.65 11.75 24.5.75 7.8-14.25 21.15l-1.4 1.2m-91.1 11.8 1.15-.1m.65-.05 1.75-.15 1.85-.5m14.7-54.6 4.15 1.35 6.95-.55m19.95-22.95.65.8 5.95 4.35m91.9 97.4 3.1-4.95q2.95-5.2 4.1-9.7m3.7.15q-7.45-9.15-13.6-15.5-9.65-9.85-16.15-12.75l-3.05-1.05m-28.15 32.65 8.75 1.9q16.55 4.6 25.4 10.1m9 8.3q3.95-4.85 6.9-9.15m-61.15-90.15q.85.45 1.7 1.25m49.15 45.5q36.2 28.65 52 30" transform="translate(209.15 233.55)"/><path stroke-opacity=".671" stroke-linejoin="round" stroke-linecap="round" stroke="#474701" fill="none" d="M-196.85-119.25q-4.35-4.15-7.95-9.9m-2.2 15.1q-1.5-2.3-1.5-6 0-5.6 3.35-9.7l.35.6m-2.2 15.1q.7 1.05 1.75 1.8" transform="translate(209.15 233.55)"/><path stroke-linejoin="round" stroke-linecap="round" stroke="#818165" fill="none" d="M-162.85-55.65q-.35-1.15-.35-2.35 0-3.3 2.35-5.65 1.6-1.6 3.6-2.1m.15-.05 1.25-.15.65-.05 1.95.25q2.05.45 3.7 2.1l.85.95-.05 1q0 1.95.7 3.65m-.65-4.65q.25-2.8 2.15-4.95l.5-.55q2.45-2.5 5.9-2.65l.55-.05 3.1.55q1.85.65 3.4 2.15l1.4 1.8q1.25 2.05 1.3 4.7-.05 3.75-2.7 6.45l-1.15 1-1.1.7-.1.05q-1.9.95-4.15.95-3.25 0-5.65-1.95l-.8-.75-1.25-1.45q-.25 1.6-1.1 2.95m1.1-2.95-.5-.9m-8.6 7.55 1.2.05q3.3 0 5.65-2.35l1.15-1.4m-13.65-.1-.55-1.1m6.2 4.9q-2.55-.4-4.45-2.3m-.15-.15-1.05-1.35" transform="translate(209.15 233.55)"/><path stroke-width=".05" stroke-linejoin="round" stroke-linecap="round" stroke="#653201" fill="none" d="M210.45 18.2q-3.25 4.45-3.1 10.85m7.85 12.75 1.25-.3m-45.8-1.25q.6-6.5 5.45-9.25 5.45-3.8 8.5-.1 1.75 2.15 2.65 6.85 4 15.45-10.8 15.1m-4.85-2.55q-1.4-5.85-.95-10.05m44.55 1.55q-6 1.15-7.55-9.15l-.3-3.6m-127.8 20.5V49q-.05-3 2.05-5.1 2.15-2.1 5.1-2.1l2.3.35q1.5.5 2.75 1.75 1.45 1.45 1.95 3.3l.2 1.8q0 2.7-1.85 4.7l-.3.3q-2.1 2.15-5.05 2.15l-2.05-.3q-1.4-.4-2.5-1.35l-.55-.5q-1.9-1.85-2.05-4.45"/><path stroke-linejoin="round" stroke-linecap="round" stroke="#000" fill="none" d="M-44.1-210.35q.25-3.05.2-6.4m-8.15 26.5q6.5-7.5 7.85-18.95m-91.15 155.65-.1.05m-25.55 1 .15.15" transform="translate(209.15 233.55)"/><path stroke-width=".05" stroke-linejoin="round" stroke-linecap="round" stroke="#544301" fill="none" d="m91.85 40-2.25-1.4-.1-.05M76.25 40.2q1.1-1.65 4.4-2.8 3.75-1.25 8.5 1l.35.15m8.5 12.6-.2-1.25q-1.65-6.6-5.95-9.9M98 51.15q.1 2.45-1.95 4.6-2.45 2.55-6.8 3.55"/><path stroke-linejoin="round" stroke-linecap="round" stroke="#222" fill="none" d="M-101.95-183.1q-1.15-4.4-5.3-9.95-6.35-9.5-17.3-6.65-5.1 1.3-8.35 6.35l-.05.05-.05.1q-3.55 5.5-4.6 15.75l-.05.45m-4.45 3.8 4.45-3.8m17.75 2.75q9.8-1.25 14.35-3.3 3.7-1.75 3.9-4.1l-.3-1.45m-20.85 9.2 2.9-.35" transform="translate(209.15 233.55)"/><path stroke-width=".05" stroke-opacity=".282" stroke-linejoin="round" stroke-linecap="round" stroke="#000" fill="none" d="m134.6 104.6-9.75 2.5-1.15-.5-9.45.8-3.4 1.85-5.65.4m-25.75 1.9-1.8.4M137.1 104l-2.5.6m-53.15 6.65.65-.1 20.6-1.35m113 15.35-.25-.35"/><path stroke-width=".05" stroke-opacity=".373" stroke-linejoin="round" stroke-linecap="round" stroke="#000" fill="none" d="m144.2 111.6.45-.8m-.55.8-3.7 5.2m-7-18.5 4.25.75m-13.75 0 3.75-.5m39.9-.25-4.35-.9m8.2 3.9 4.75 3"/><path stroke-width=".05" stroke-linejoin="round" stroke-linecap="round" stroke="#5c6667" fill="none" d="M37.55 202.85q-13.2.1-20.85-3.7 7.45-5.8 22.3-1.85m2.65-17.05-5.15-.6q-14-.95-11-11 10.25-.65 20.8 9.25m31.15-10.75q1.25-6.3 5.45-18.25 3.25-7.55 8.85-7.75 5.2 4.05 1 17.05L81.4 173.5m-3.9 5.2 3.9-5.2M46.7 200l-3.95 2.7-5.2.15m8.95-3.1q-3.95-1.5-7.5-2.45"/><path stroke-width=".05" stroke-opacity=".431" stroke-linejoin="round" stroke-linecap="round" stroke="#000" fill="none" d="m140.45 148.1 5.2 1.4 2.75-1.6-1.9-1.75m16.65-2.25-5.15 3.6-1.6 2.9q1.4 1.7 7.6 1.5 18.5-6.75 32.65-10.4"/><path stroke-linejoin="round" stroke-linecap="round" stroke="#000" fill="none" d="m95.15 182.55.3 1.9q-.05 3.95-4.95 7.9-3.05 1.7-6.35.55l-.75-.3M6.25 126.25q-10.6.2-20.2-2l-4.05-.7-6.9-1.4M-123.15 7l-2.4-.8q-6.5.2-10.95-1.85-3.35-1.55-5.6-4.3M6.5-108.1l.05-.3m13 139.2.4-.15m-121.65-66.3-.1-.2m36.35 24.75 1.5.55m89.75 39q-2.7.9-5.55 2.05l-.3.15m28.55-6.5q3.55.2 6.35 1.25m16 10.35 3.25 1.95m27.25 65.05h-.2m.2 0 2.95 4.4m-3.1.35-.3.9m1.4 9.95-.15-.35q-2.55-5.45-1.25-9.6m6.25 15.35q-2.8-1.25-4.85-5.4m4.85 5.4 2.3.5M60.6 31.7q2.2.25 5.2 1.5" transform="translate(209.15 233.55)"/><path stroke-opacity=".533" stroke-linejoin="round" stroke-linecap="round" stroke="#000" fill="none" d="M-9.4-6.85q1.05-7.45 3.95-14.7 1.5-3.85 3.5-7.55l3.3-5.65q5.6-1.05 13.5-3.4l5.1-1.6m3.5 3.5q-3.35 1.9-6.1 3.9-5.8 4.25-8.85 9L7.4-21.5m-23.05 7.85q2.2 4.1 6.25 6.8M5.3-15.2l-.2 1.45q8.1 2.8 16.65 1 3.2-.7 6.5-2.05 1.35-.55 2.8-1.25l.6-.3.95-.5M5.3-15.2q.45-3.25 2.1-6.3M5.85 2.65l-.05.05.15.1 6.75-6.35m20.15-7.4-6.3.4Q20.8-7.4 15.2-5.8l-2.5 2.25M8.5 4.2 5.95 2.8M8.5 4.2q8.55 4.1 19 1.8l4.1-1.1.8-.3 1.3-.45M50.05-3.7l1.55-2.75m8.55-8.45 4.35-4.95M50.05-3.7l-.55.95q-4.2 3.85-15 7.7l-2.1-.35m27.75-19.5q-2.65 2.55-5.4 4.1l-1.7 1.65-1.45 2.7" transform="translate(209.15 233.55)"/><path stroke-width=".05" stroke-opacity=".533" stroke-linejoin="round" stroke-linecap="round" stroke="#000" fill="none" d="m221.85 230-10.2-12.7-7.95-5.3m48.4-3.15-1.2-1.05q1.65-8.95-4.35-15.35-1.75-3.1-10.5-.25"/><path stroke-opacity=".58" stroke-linejoin="round" stroke-linecap="round" stroke="#000" fill="none" d="m-25.75 121.95-3.25-.85-3.05-.9-4.95-1.7-4-1.4-1.7-.65-.45-.2-.95-.35q-13.7-5.5-21.5-11.95-3.9 8.9-13.25 14.25l-1.15 3-5.4 4.55-1.65-.1-.8-.05m-56.3-17.6q-2.05-.75-.9-5.4 4.8-4.9 9.25-5.6l-1.6-6.5q-1.9-4.5 4.2-9-1.6-9.75 4.25-12.2-2.7-4.25-.6-12.8 1.85-14.85 18.65-28.25 3.85-7.7 12.5-10.3 6.45-14.4 18.4-13.8l.6-4.35 1-4.1q-14.9 14.55-24.15 9.4Q-115.1 8.95-123 7.05m51.8-21.75-.25-.15-.1-.15q-2.45.95-4.65 5.2-1.35 2.5-2.2 5.5m3.3-46.25q1.15-6.4 2.8-12.85m.75 48.4q-4.85-5.8-5.95-14.8.5-10.2 2.4-20.75m-24.3 70.9 1-2.4m20.6-1.05.45.85q-4.85 7.05-7.2 15.05-2.6 8.9-2.2 18.95 2 25.9 11.3 39.9L-74 93.7q2.55 5.4 8.4 10.25M-77.8 16.9q-2.8-5.25-2.2-12.75m-48.4 65.95-.55-.8m5.15 2.65-.75 1.55q-2.25 5.05-1.25 8.1 1.4 6.05 9.15 8.9m9.05 5.35q2.4 1.6 8.95 1.25 8.15-.6 14.9-3.4 5.75-2.3 8.3-2.05" transform="translate(209.15 233.55)"/><path stroke-linejoin="round" stroke-linecap="round" stroke="#4b3d01" fill="none" d="m-142.1.05-17.45 2.05q-6.2-2.75-10.1-8.75-1-4.85 1.9-9.35-7.4-4.6-4.5-13l.65-1.7m1.45-5.55q-1.65-2.35-2.25-4.65-1.75-6.45 4.9-12.4m44.45 1.15q5.85 4.2 3.45 12.35l-.05.2-.05.05-.05.05m-3.3-12.65-.8-.5q-1.85-1.2-4.4-2l-.65-.2q-1.15-.25-2.75 0m-3.8 1.35q-2.55 3-4.2 6.05l-.5.9q-2.75 5.35-2.65 10.7.05 6.25 4 12.45m1.65-.25 5.4-4.15q6.25-5.15 12-11.7m-28.65-14.25q5.8 2.4 8.75 6.3m.75 46.9-3.2.6m-1.65-6.8 1.8 1.9q1.85 2.1 3.05 4.3m-4.85-6.2q-5-4.85-13.5-9.4-4.8.65-10.5.15m5.15-38.95-4.9 1.65m18.45 34.95q3.7-1.65 6.65-4.3-4.65-7.7-19.95-11l-.25-.1m0 .05.25.05-.25-.05m13.55 15.35q-3.7 1.6-8.2 2.2m-5.1-17.5q10.75-3.05 19.55-2.2m8.55-18.4 1.3-.35.9-.15.4-.1" transform="translate(209.15 233.55)"/><path stroke-width=".05" stroke-linejoin="round" stroke-linecap="round" stroke="#4b3d01" fill="none" d="m70.35 210.15 1.25-5.8.4 5.55"/><path stroke-width=".05" stroke-opacity=".58" stroke-linejoin="round" stroke-linecap="round" stroke="#000" fill="none" d="M105.4 265.1q1.4-5.1 4.35-11.2m-31 85.9q-.9-4.45 1.85-6.45 2.65-1.95 7.25-.7m17.55-67.55q-2.35 8.45-.55 14.2m18.35 66.95 2.4 3.4M104 341q4.35-4.95 13.5.15"/><path stroke-linejoin="round" stroke-linecap="round" stroke="#330" fill="none" d="M-87.85 125.6q-8.9 6.85-20.6 7.6l-.5-3.8m-.05-.5q-.5-6.45 1.2-12.9-7.1 10.9-17.3 13.55-10.25 2.6-11.65 2.05l-.55-2.7-1.1-.55q-4.4-2.3-6.1-6.2-2.35-5.5.35-14.15l1.9-1.55m6.25-1.3q2.5.1 5.6 1.1 1.25-.95 2.95-1.45 1.75-.95 4.85-.9 3.4.1 4.9.85 7.4 3.8 9.9 11.25 2.05-2.6 4.65-3.45m.15-.05q3.05-.95 6.85.7l1.1.55q6.1 3.2 8 11.2m-51.7-19.7 2.75-.1m-6.15 1.25q1.35-.8 3-1.1l.4-.05m.85 17.5q.05 2.9.6 6.15m6.9-22.65q-7.65 5.4-7.5 16.5m50.05 2.85.8-.65" transform="translate(209.15 233.55)"/><path stroke-opacity=".561" stroke-linejoin="round" stroke-linecap="round" stroke="#000" fill="none" d="m101.85 180.3-6.7 2.25M29.6 169.2l-1.4-3.6 3.15-3.9 7-1.85-1-1.75 1.8-3-21.2-7.15-2.55-10-.35-.45q-3.3-4.25-8.3-9.5l.1-1.7q.1-2.55.35-5.05l-3.35-4.65.7-5.6q-3.9-47.3 8.7-65.7 3.25-4.85 7.7-7.7 3.65-2.35 8.05-3.35m22.25 121.1h17.7l6.8-3.5.45-.25 7.35-3.8q.5-.25.95-.45l12.7-6.55 5.65-2.95m-37.5 25-11.6-1.8m-12.55-1.4-2.85.2m27 3q22.5 3.85 25.15 7.7M39.15 155.1l.8.25h11.3M19.6 144.6q-1.45-2.95-4.2-6.65" transform="translate(209.15 233.55)"/><path stroke-linejoin="round" stroke-linecap="round" stroke="#5c6667" fill="none" d="m-162.6-54.95-.25-.65v-.05m.25 21.95-.05-.1" transform="translate(209.15 233.55)"/><path stroke-width=".05" stroke-linejoin="round" stroke-linecap="round" stroke="#818165" fill="none" d="M48.35 181.05h-.2m.2 0 .65.1"/><path stroke-width=".05" stroke-opacity=".361" stroke-linejoin="round" stroke-linecap="round" stroke="#000" fill="none" d="m243.6 277.9 1.8-.3.2-.05 3.75-.15m-33 77.4q2.05-20.65 11.4-39.9m-14.05 29.65q7.6-58.6 25.55-65.65"/><path stroke-linejoin="round" stroke-linecap="round" stroke="#2b2b00" fill="none" d="M83.4 192.6q-6.4 2.6-12.45 2.95l-4.05-.05-.05-.5-.3-4.1q-9.1 3.65-14.7 4.45-2.8.35-4.7.05l-.8-.2q-1.25-6.15-1.15-10.75v-.1l-.1.1q-3.6 3.65-8.5 6.15l-3.25.8q-3.05.35-6.25-.65l-.4-.15q-1.05-3.25-1.45-6.15-1.25-9.3 4.35-15.25m74.7-62.05 1.05-.4 7.75-6.9q1.5 1.9 2.3 4.6.45 1.5.7 3.35.45 3.45 0 7.85-3.05 4.25-5.95 6.45-1.55 1.1-3 1.65m-6.25-15.35 3.4-1.25m-30.8 70-.25.05m.4-.05q2.3-.4 5.1.05l2.6 1.7q3.2 2.45 4.3 5.2l.1.35q1.2 3.65-1.4 7.75m-46.2-23.8-1.2-.3q-3.2-.8-6.4.65l-.95.45m17.4 7.35q-.95-2.6-2.65-4.45l-1.55-1.4q-1.95-1.5-4.65-2.3m14.15 3.75h-.15m.15 0 5 .25q6.6 1 9.25 5.9 1.15 2.2 1.55 5.3 1.65-3.9 5.15-6.4M47 176.55q1.75-3.15 5.15-4.4M83.4 192.6l.95-.4m-16.25-8.6-.35.85q-1.1 2.9-1.2 6.45m-21.35-6.55q.15-4.8 1.8-7.8" transform="translate(209.15 233.55)"/><path stroke-width=".05" stroke-linejoin="round" stroke-linecap="round" stroke="red" fill="none" d="m319.3 355.65 1.25.7"/></g><g id="s"><path fill-rule="evenodd" fill="#68635d" d="M1.9-8.9Q-1-10-1.8-8.9l-.95 1.15-.05-.4-.4-.6v-.05q-2.2-2.9-3.2 3.15-.2 14.6 8.2 14.5.8.6 1.55.8 1.3.35 2.5-.6-1.15 1.2-2.85 1.4-2 .2-4.65-.85-2.9-2.15-4.6-5.6-2.1-4.25-2.35-9.7-.15-2.5 1.45-3.75l1.1-.65q2.6-1.1 5.35.65.2-.4 1.8 0l.75.35 1.1.65L1.9-8.9" transform="translate(9.1 11)"/><path fill-rule="evenodd" fill="#807b75" d="M3.35 9.65q-.75-.2-1.55-.8-8.4.1-8.2-14.5 1-6.05 3.2-3.15v.05l.4.6.05.4.95-1.15q.8-1.1 3.7 0Q10.75 1.2 5.4 6l.05.2-2.1 3.45m-4.5-14.7q-2.75-.8.55 2.85Q2.1-1 3.7 1.65q3.7.15-2.45-6.7-2.3-1-2.4 0" transform="translate(9.1 11)"/><path fill-rule="evenodd" fill="#8d8882" d="m3.35 9.65 2.1-3.45L5.4 6q5.35-4.8-3.5-14.9l1.05.45Q7.9-5.25 8.65 2.1q.15 2.45-1 3.15l-.8 2.35L6 8.9l-.15.15q-1.2.95-2.5.6" transform="translate(9.1 11)"/><path fill-rule="evenodd" fill="#79746e" d="M-1.15-5.05q.1-1 2.4 0Q7.4 1.8 3.7 1.65 2.1-1-.6-2.2q-3.3-3.65-.55-2.85" transform="translate(9.1 11)"/><path stroke-linejoin="round" stroke-linecap="round" stroke="#55504a" fill="none" d="m2.95-8.45-1.1-.65-.75-.35q-1.6-.4-1.8 0-2.75-1.75-5.35-.65l-1.1.65Q-8.75-8.2-8.6-5.7-8.35-.25-6.25 4q1.7 3.45 4.6 5.6Q1 10.65 3 10.45q1.7-.2 2.85-1.4m-2.9-17.5Q7.9-5.25 8.65 2.1q.15 2.45-1 3.15l-.8 2.35L6 8.9" transform="translate(9.1 11)"/></g><g id="c" fill-rule="evenodd"><path d="M-121-184q-.4 0-.65-.3l-.3-.65.3-.7.65-.25.65.25.3.7q0 .35-.3.65-.25.3-.65.3" transform="translate(128.85 185.9)"/><path fill-opacity=".443" fill="#fff3d6" d="M-125.25-174.45h-3.6l8.2-11.1q-2.25 7.95-4.6 11.1" transform="translate(128.85 185.9)"/><path fill-opacity=".322" fill="#fff3d6" d="M-120.3-185.7q3.05 5.8 2.55 10.55l-4.3.4q2.5-5.85 1.75-10.95" transform="translate(128.85 185.9)"/></g><g id="d"><path fill-rule="evenodd" fill="#5e5e4d" d="m-146.55-59.25-.55.25q-.3 0-.5-.25l-.2-.5.2-.5.5-.25.55.25.2.5-.2.5m-1.7.6q.3.3.3.7 0 .4-.3.65-.25.3-.65.3t-.7-.3l-.25-.65.25-.7.7-.25.65.25" transform="translate(183.4 77.25)"/><path fill-rule="evenodd" fill="#fff" d="M-178.65-75.7q-.05-.6.4-1.1.6-.65 1.75-.35 1 .3 2 1.1l1 1.2q-4.55-2.85-5.15-.85" transform="translate(183.4 77.25)"/><path fill-rule="evenodd" fill="#f0f3f4" d="M-178.65-75.7q.6-2 5.15.85l2.6 4.05.4-.1-1.35.4q-2.3-.95-4.9-2.7-1.9-1.35-1.9-2.5" transform="translate(183.4 77.25)"/><path stroke-width=".05" stroke-opacity=".471" stroke-linejoin="round" stroke-linecap="round" stroke="#5a6466" fill="none" d="m9.9 2.4-1-1.2q-1-.8-2-1.1-1.15-.3-1.75.35-.45.5-.4 1.1m5.15.85 2.6 4.05m-.95.3q-2.3-.95-4.9-2.7-1.9-1.35-1.9-2.5"/><path fill-rule="evenodd" fill="#fff" d="M-179.15-63.9q-4.5.75-4 2.3l-.25-.85q.15-.75 1.1-1.2l1.85-.35 1.3.1" transform="translate(183.4 77.25)"/><path fill-rule="evenodd" fill="#f0f3f4" d="M-183.15-61.6q-.5-1.55 4-2.3l3.7 1.1.2-.25-.8.95q-2 .65-4.65.95-1.9.25-2.45-.45" transform="translate(183.4 77.25)"/><path stroke-width=".05" stroke-opacity=".471" stroke-linejoin="round" stroke-linecap="round" stroke="#5a6466" fill="none" d="m4.25 13.35-1.3-.1-1.85.35q-.95.45-1.1 1.2l.25.85q.55.7 2.45.45 2.65-.3 4.65-.95m.6-.7-3.7-1.1 3.7 1.1z"/></g><g id="t" fill-rule="evenodd"><path fill="url(#h)" d="M-89.7 15.95q-14.1 13.05-23.1 8.2-12.5 3.8-20.6 1.85h-.1l-2.35-.8q-6.55.2-11.05-1.9-3.35-1.55-5.6-4.2l-17.2 2-.25-.05q-6.35-2.8-10.3-8.9l-.1-.2q-1-4.8 1.7-9.3-7.25-4.8-4.25-13.3l.5-1.4q-12.8 0-20.3-3.75l-.05-.05v-.05l.05-.1q7.25-5.7 21.55-2.1l.1.2.7.15q-1.65-2.35-2.25-4.65-1.75-6.45 4.9-12.4l-.65-.05-.1.1-4.4-.5q-7.05-.5-9.85-3.25-2.8-2.8-1.25-7.9l.05-.1h.05q9.9-.65 20.1 8.55l-.15-1.55q0-3.5 2.5-6 1.7-1.7 3.85-2.2l.8-.2.15-.15.2.15.3-.05.7-.05 2.1.3v-.05q2.15.5 3.9 2.25l.15.2q.5-2.3 2.1-4.1l.55-.65h.05q2.5-2.6 6.1-2.8l.65-.05q1.75 0 3.3.6 1.9.65 3.55 2.25h.05l1.05 1.3q1.35-6.25 5.3-17.45 3.25-7.65 8.95-7.8h.1q5.25 4.1 1.05 17.2l-.05.05-10.9 14.6 7.25-.9.25.05.2.15 5.1 5.9.1.15 1.9 6.5 1.95 3.5q3.05-5.95 4.75-5.2h.05l3.45 1.85.55-2.9.15-.25.3-.15 4.85-.8 5.3-8.25Q-99.6-53.85-87.8-62l.55-3.7q1.3-7.5 10.95-8.55l.3.05.05.05-6.1 16-.45 13.25-5.1 33.8 5.75 14.75-7.35 9.85-.5 2.45m-31.2-42.1.25.4.2-.45h-.05l-.4.05" transform="translate(219.35 214.55)"/><path fill="url(#i)" d="m-76.15 122.75.15.15v.05l.3.5q-4 8.4-12.9 13.6l-1.1 2.85-.15.2-5.4 4.55-.35.1-2.3-.15q-8.95 6.85-20.7 7.6l-.35-.1-.2-.3-.5-3.85.05-.25-.1-.25q-.4-5.25.65-10.5-6.8 9.15-16.1 11.6-10.55 2.65-11.95 2.05l-.2-.15-.15-.25-.5-2.45-.9-.45h.05q-4.6-2.4-6.35-6.45-2.4-5.5.2-14.05-1.95-1.1-.75-5.8l.1-.25q4.65-4.75 9-5.65l-1.45-5.9q-2.05-4.75 4.1-9.4-1.45-9.55 4.1-12.2-2.45-4.4-.35-12.7l-.05.05q1.85-15 18.75-28.5 3.9-7.75 12.55-10.4 6.45-14.25 18.3-13.9-1.1 9.85 1.7 16-11.85 16-6.9 45.8l.15 1q7.55 24.8 19.55 37.8" transform="translate(219.35 214.55)"/><path fill="url(#j)" d="m-75.95-74.15 1.5-2q-.25-.65 1.2-3l.15-.15q-.65-4.4-3.65-8.6l-.15-.05-2.1-.7-.15-.05-.35-.25-.05-.05-5.55-4.25-19.2 1.1-79.65 11h-.25L-204-87.4l-11.4-1.5q-.2 0-.3-.15l-3.5-3.75-.15-.3.1-.3 1.45-2.15.2.3.1.15.3-.45q-1.5-2.3-1.5-6 0-5.6 3.35-9.7l.35.6q3.6 5.75 7.95 9.9 1.55-23.85 12.2-41.9l-2.45-5.35q10.05-1.7 20.35-1.75h.2l-.1-.1-.1-.05q-4-3.35-2.15-11.55 7.9-8.8 13.75-19.95l4.15.5q3.15.6 5.85 1.85l1-1.2v-.05q-.95-1.4.75-4.5 2.2-2.9 4.4-2.9h.35l-.1-.2 5.75-4.45 5.9.95 11.7-.9 3.15 4 4.85 1.15-.05-.5-.15-.05-1.5-9.05v-.1l.05-.05 8.5-3.85h.15l10.75 7.75.05.05v.1l-.75 3.75h-.1l-.05-.05-.1.5q9.4 2.35 17.3 5.45l-.05-.55-.15-.05-1-8.55v-.1l.05-.05 2.95-2.45.05-.05 12.35-8.6h.1l13.5 6.1.05.05.05.05.95 3.6.05-3.95h.5v-.5q11.95-5.9 17.5-16.3l4.1.75 2.1 1.15q1.45.6 3.05 1.05l.05-.05h.1l.4.1q5.55-.05 9.45-1.2l4.8 1.15.4.15 4.7 8.3-3.75 3.65.05.05v.05l5.1 1.05.75-.25-.15.15-.15.2.5.1 1.4 15.85.5.05.05-.1 13.35 2.1.05.05 9.7 10.25q1.3-4.3 2.2-8.45l.2-.25.25-.15q10.15-1.1 41.05-20.6l.25-.1.2.05 6.5 2.85.2.15q5.8 7.65 14.85 13.9Q97-174.7 113.45-169l.25.25.05.35-.95 3 3.6 11.1-.05.35-.25.25q-13.45 6.05-21.75 12.35l24.55-5.95 3.6 3.75 9.5 41.9q-12.15 8.7-30.25 13.25L98-80.25 76.85-74.9H67.9v.1l8.3 17.25q7.35 1.5 17.8-6.1l21.65 10.6q-.65 11.3 2.15 19.15L103.05-8.65l-20.65-4.6-4.15-4.1 12.5 46.45.4.85h.55q6.2 15.45 2.5 32.45l-.1.35.15 1.2q1.5 13.15-3.95 31.55l.35 17.75-2.5 3.95.15 3.8h3.5l2.3 4.65 8.8-7.3q4.45 5.3 3.3 15.8-2.45 3.75-6.85 6.8l1.6.35-.05.15 1.15 3-1.75 4.1 5.6 5.75-1.5 2.65v20.25l-12.5 21.2.25.25v.35l-.05.05-.3.25-6.25 2.1.2 1.55q0 4.15-5.1 8.3l-.1.05q-3.25 1.8-6.75.6l-.55-.25q-6.4 2.55-12.45 2.9l-4.1-.05-.3-.1-.2-.3-.05-.5-.3-4q-8.8 3.45-14.2 4.25-2.8.35-4.7.05l-.8-.2q-1.2-5.75-1.15-10.15-3.6 3.55-8.35 6l-.05.05q-1.7.6-3.4.8-3.15.35-6.45-.65l-.05-.05-.3-.1-.25-.1-.1-.25q-1.1-3.3-1.5-6.2-1.25-9.4 4.25-15.45l-1.25-3.3-.05-.25.15-.25 3.15-3.9q.05-.15.25-.15l6.35-1.7-.65-1.2-.1-.25.1-.25 1.45-2.45-20.6-6.95-.2-.15-.1-.2-2.55-9.9-.3-.4q-3.3-4.25-8.25-9.45l-.1-.15-.05-.2.1-1.25h-.1q-10.65.2-20.3-2h.05l-4.1-.7-6.9-1.4-.3-.2-.05-.15v-.25l-.4-.1-3.25-.85-3.05-.9-4.95-1.7-4-1.4-1.7-.65-.45-.2-.95-.35q-13.7-5.5-21.5-11.95l-.35.3q-12-13-19.55-37.8l-.15-1q-4.95-29.8 6.9-45.8-2.8-6.15-1.7-16l.5-3.65.05-.3.55-2.4-.15.15.5-2.45 7.35-9.85-5.75-14.75 5.1-33.8.45-13.25 6.1-16m47.1-79.95 6.15 3.95q1.35.8 2.75 1.45v-.55l-.1-.05v-10.85l.1-.05v-.5l-5.4 1.7-3.5 4.9M-2.95 9.55l-.1-.1h-.05l.15.1m59.3 200.35v-.5l-.45.2.1.15.35.15" transform="translate(219.35 214.55)"/><path fill="url(#k)" d="m91.7 29.95 5.7-.4q-2.25-6.85-7.25-11.95L94 15.5l7.75-11.15 14.9 6.4-1.25 3.75-1.4 11.85 3.95-2.2-1.2-2.4q7.45-6.65 10.75-15 2.7 1 6.15 1.15l.25-.35q5.25-3.25 9.9-8.1h.05q-4.95-5.8-11.75-7.5 1.9-4.5 2.9-14 6.25-.85 11-3.6l2.85 3.7.5-.05q2.9-7 3.5-13.35L159-36.8l4.8 6.85q7.35-14.2 16.3-20.7 7.6-5.55 18-5.9 7.05-.3 11.85 1.85l.6.3q1.6.75 2.95 1.85 3.65 2.95 5.15 5.75 1.85 3.55-1.4 4.75h-.1q-1.9.65-3.8.45l-3.1-.5q-3.5-.45-8.1 3.3v.4l-.15.35q-.15.15-.35.15h-.1q-7.6 28.55-8.05 44-2.05 19.55-10.7 39.5-6.25 14.4-15.9 29-16 30.4-46.85 49.9-8.45 11.3-18.85 16.8h-.25l-1.6-.35q4.4-3.05 6.85-6.8 1.15-10.5-3.3-15.8l-8.8 7.3-2.3-4.65h-3.5l-.15-3.8 2.5-3.95-.35-17.75q5.45-18.4 3.95-31.55l-.15-1.2.1-.35q3.7-17-2.5-32.45" transform="translate(219.35 214.55)"/></g><g id="u" fill-rule="evenodd"><path fill="url(#l)" d="m-75.95-74.15 1.5-2q-.25-.65 1.2-3l.15-.15q-.65-4.4-3.65-8.6l-.15-.05-2.1-.7-.15-.05-.35-.25-.05-.05-5.55-4.25-19.2 1.1-79.65 11h-.25L-204-87.4l-11.4-1.5q-.2 0-.3-.15l-3.5-3.75-.15-.3.1-.3 1.45-2.15.2.3.1.15.3-.45q-1.5-2.3-1.5-6 0-5.6 3.35-9.7l.35.6q3.6 5.75 7.95 9.9 1.55-23.85 12.2-41.9l-2.45-5.35q10.05-1.7 20.35-1.75h.2l-.1-.1-.1-.05q-4-3.35-2.15-11.55 7.9-8.8 13.75-19.95l4.15.5q3.15.6 5.85 1.85l1-1.2v-.05q-.95-1.4.75-4.5 2.2-2.9 4.4-2.9h.35l-.1-.2 5.75-4.45 5.9.95 11.7-.9 3.15 4 4.85 1.15-.05-.5-.15-.05-1.5-9.05v-.1l.05-.05 8.5-3.85h.15l10.75 7.75.05.05v.1l-.75 3.75h-.1l-.05-.05-.1.5q9.4 2.35 17.3 5.45l-.05-.55-.15-.05-1-8.55v-.1l.05-.05 2.95-2.45.05-.05 12.35-8.6h.1l13.5 6.1.05.05.05.05.95 3.6.05-3.95h.5v-.5q11.95-5.9 17.5-16.3l4.1.75 2.1 1.15q1.45.6 3.05 1.05l.05-.05h.1l.4.1q5.55-.05 9.45-1.2l4.8 1.15.4.15 4.7 8.3-3.75 3.65.05.05v.05l5.1 1.05.75-.25-.15.15-.15.2.5.1 1.4 15.85.5.05.05-.1 13.35 2.1.05.05 9.7 10.25q1.3-4.3 2.2-8.45l.2-.25.25-.15q10.15-1.1 41.05-20.6l.25-.1.2.05 6.5 2.85.2.15q5.8 7.65 14.85 13.9Q97-174.7 113.45-169l.25.25.05.35-.95 3 3.6 11.1-.05.35-.25.25q-13.45 6.05-21.75 12.35l24.55-5.95 3.6 3.75 9.5 41.9q-12.15 8.7-30.25 13.25L98-80.25 76.85-74.9H67.9v.1l8.3 17.25q7.35 1.5 17.8-6.1l21.65 10.6q-.65 11.3 2.15 19.15L103.05-8.65l-20.65-4.6-4.15-4.1 12.5 46.45.4.85h.55q6.2 15.45 2.5 32.45l-.1.35.15 1.2q1.5 13.15-3.95 31.55l.35 17.75-2.5 3.95.15 3.8h3.5l2.3 4.65 8.8-7.3q4.45 5.3 3.3 15.8-2.45 3.75-6.85 6.8l1.6.35-.05.15 1.15 3-1.75 4.1 5.6 5.75-1.5 2.65v20.25l-12.5 21.2.25.25v.35l-.05.05-.3.25-6.25 2.1.2 1.55q0 4.15-5.1 8.3l-.1.05q-3.25 1.8-6.75.6l-.55-.25q-6.4 2.55-12.45 2.9l-4.1-.05-.3-.1-.2-.3-.05-.5-.3-4q-8.8 3.45-14.2 4.25-2.8.35-4.7.05l-.8-.2q-1.2-5.75-1.15-10.15-3.6 3.55-8.35 6l-.05.05q-1.7.6-3.4.8-3.15.35-6.45-.65l-.05-.05-.3-.1-.25-.1-.1-.25q-1.1-3.3-1.5-6.2-1.25-9.4 4.25-15.45l-1.25-3.3-.05-.25.15-.25 3.15-3.9q.05-.15.25-.15l6.35-1.7-.65-1.2-.1-.25.1-.25 1.45-2.45-20.6-6.95-.2-.15-.1-.2-2.55-9.9-.3-.4q-3.3-4.25-8.25-9.45l-.1-.15-.05-.2.1-1.25h-.1q-10.65.2-20.3-2h.05l-4.1-.7-6.9-1.4-.3-.2-.05-.15v-.25l-.4-.1-3.25-.85-3.05-.9-4.95-1.7-4-1.4-1.7-.65-.45-.2-.95-.35q-13.7-5.5-21.5-11.95l-.35.3q-12-13-19.55-37.8l-.15-1q-4.95-29.8 6.9-45.8-2.8-6.15-1.7-16l.5-3.65.05-.3.55-2.4-.15.15.5-2.45 7.35-9.85-5.75-14.75 5.1-33.8.45-13.25 6.1-16m47.1-79.95 6.15 3.95q1.35.8 2.75 1.45v-.55l-.1-.05v-10.85l.1-.05v-.5l-5.4 1.7-3.5 4.9M-2.95 9.55l-.1-.1h-.05l.15.1m59.3 199.85-.45.2.1.15.35.15v-.5" transform="translate(219.35 214.55)"/><path fill="url(#m)" d="M-89.7 15.95q-14.1 13.05-23.1 8.2-12.5 3.8-20.6 1.85h-.1l-2.35-.8q-6.55.2-11.05-1.9-3.35-1.55-5.6-4.2l-17.2 2-.25-.05q-6.35-2.8-10.3-8.9l-.1-.2q-1-4.8 1.7-9.3-7.25-4.8-4.25-13.3l.5-1.4q-12.8 0-20.3-3.75l-.05-.05v-.05l.05-.1q7.25-5.7 21.55-2.1l.1.2.7.15q-1.65-2.35-2.25-4.65-1.75-6.45 4.9-12.4l-.65-.05-.1.1-4.4-.5q-7.05-.5-9.85-3.25-2.8-2.8-1.25-7.9l.05-.1h.05q9.9-.65 20.1 8.55l-.15-1.55q0-3.5 2.5-6 1.7-1.7 3.85-2.2l.8-.2.15-.15.2.15.3-.05.7-.05 2.1.3v-.05q2.15.5 3.9 2.25l.15.2q.5-2.3 2.1-4.1l.55-.65h.05q2.5-2.6 6.1-2.8l.65-.05q1.75 0 3.3.6 1.9.65 3.55 2.25h.05l1.05 1.3q1.35-6.25 5.3-17.45 3.25-7.65 8.95-7.8h.1q5.25 4.1 1.05 17.2l-.05.05-10.9 14.6 7.25-.9.25.05.2.15 5.1 5.9.1.15 1.9 6.5 1.95 3.5q3.05-5.95 4.75-5.2h.05l3.45 1.85.55-2.9.15-.25.3-.15 4.85-.8 5.3-8.25Q-99.6-53.85-87.8-62l.55-3.7q1.3-7.5 10.95-8.55l.3.05.05.05-6.1 16-.45 13.25-5.1 33.8 5.75 14.75-7.35 9.85-.5 2.45m-31.2-42.1.25.4.2-.45h-.05l-.4.05" transform="translate(219.35 214.55)"/><path fill="url(#n)" d="m-76.15 122.75.15.15v.05l.3.5q-4 8.4-12.9 13.6l-1.1 2.85-.15.2-5.4 4.55-.35.1-2.3-.15q-8.95 6.85-20.7 7.6l-.35-.1-.2-.3-.5-3.85.05-.25-.1-.25q-.4-5.25.65-10.5-6.8 9.15-16.1 11.6-10.55 2.65-11.95 2.05l-.2-.15-.15-.25-.5-2.45-.9-.45h.05q-4.6-2.4-6.35-6.45-2.4-5.5.2-14.05-1.95-1.1-.75-5.8l.1-.25q4.65-4.75 9-5.65l-1.45-5.9q-2.05-4.75 4.1-9.4-1.45-9.55 4.1-12.2-2.45-4.4-.35-12.7l-.05.05q1.85-15 18.75-28.5 3.9-7.75 12.55-10.4 6.45-14.25 18.3-13.9-1.1 9.85 1.7 16-11.85 16-6.9 45.8l.15 1q7.55 24.8 19.55 37.8" transform="translate(219.35 214.55)"/><path fill="url(#o)" d="m91.7 29.95 5.7-.4q-2.25-6.85-7.25-11.95L94 15.5l7.75-11.15 14.9 6.4-1.25 3.75-1.4 11.85 3.95-2.2-1.2-2.4q7.45-6.65 10.75-15 2.7 1 6.15 1.15l.25-.35q5.25-3.25 9.9-8.1h.05q-4.95-5.8-11.75-7.5 1.9-4.5 2.9-14 6.25-.85 11-3.6l2.85 3.7.5-.05q2.9-7 3.5-13.35L159-36.8l4.8 6.85q7.35-14.2 16.3-20.7 7.6-5.55 18-5.9 7.05-.3 11.85 1.85l.6.3q1.6.75 2.95 1.85 3.65 2.95 5.15 5.75 1.85 3.55-1.4 4.75h-.1q-1.9.65-3.8.45l-3.1-.5q-3.5-.45-8.1 3.3v.4l-.15.35q-.15.15-.35.15h-.1q-7.6 28.55-8.05 44-2.05 19.55-10.7 39.5-6.25 14.4-15.9 29-16 30.4-46.85 49.9-8.45 11.3-18.85 16.8h-.25l-1.6-.35q4.4-3.05 6.85-6.8 1.15-10.5-3.3-15.8l-8.8 7.3-2.3-4.65h-3.5l-.15-3.8 2.5-3.95-.35-17.75q5.45-18.4 3.95-31.55l-.15-1.2.1-.35q3.7-17-2.5-32.45" transform="translate(219.35 214.55)"/></g><g id="g"><path fill-rule="evenodd" fill="url(#p)" d="M-112.9-195.25q5.1 3.7 6.95 8.05 1.85 4.4-.6 6.95-2.5 2.55-7.8 1.85-5.3-.8-10.4-4.55-5.05-3.6-6.95-8.05-1.85-4.4.65-6.9 2.45-2.65 7.8-1.75 5.3.75 10.35 4.4" transform="translate(210.65 234.55)"/><path fill-rule="evenodd" d="m5.05-217.15.3.05.1.1-.4-.15m-152.2 137.7.6-2.05-1.2-.6-1.1 2.35 1.7.3m-5.6-4.6h.05l2.65-.1h.1l2.25 1.65v.05l.05.05-.05.05 1.35.7.1.05v.1l-.7 2.25-.05.05-.1.05-1.95-.35-.05-.05-.05-.05v-.1l1.2-2.65-2.15-1.55-2.5.1-2.1 4.3 7.75 11.4.05.1-.05.05-.1.05-.1-.05-7.8-11.45v-.15l2.15-4.45.05-.05" transform="translate(210.65 234.55)"/><path stroke-width="3" stroke-opacity=".6" stroke-linejoin="round" stroke-linecap="round" stroke="#000" fill="none" d="m200.9 67.35-2.75-1.45-6.15-3.95 3.5-4.9 5.4-1.7v.5l-.1.05v10.85l.1.05v.55q1.95.8 4.05 1.2 5.2 1 11.05-.75l1.15.05q2.45.3 6.15 2.9l4.1 3.25q.6 1.6.8 3.3l-.05 4.05q.55 2.35 1.25 4.55l1.6 4.3 5.75 5.45q9.3 8.4 18.15 14.25 11.15 7.35 21.6 10.5l9.4 4.75 2.85 16h8.95l21.15-5.35 3.75-8.15q18.1-4.55 30.25-13.25l-9.5-41.9-3.6-3.75-24.55 5.95q8.3-6.3 21.75-12.35l.25-.25.05-.35-3.6-11.1.95-3-.05-.35-.25-.25q-16.45-5.7-27.8-13.55-9.05-6.25-14.85-13.9l-.2-.15-6.5-2.85-.2-.05-.25.1q-30.9 19.5-41.05 20.6l-.25.15-.2.25q-.9 4.15-2.2 8.45l-9.7-10.25-.05-.05-13.35-2.1h-.05v.1l-.5-.05-1.4-15.85-.5-.1.15-.2.05-.1.1-.05-.75.25-5.1-1.05v-.05l-.05-.05 3.75-3.65-4.7-8.3.05-.1-.05-.1h-.1l-.3.05-4.8-1.15q-3.9 1.15-9.45 1.2l-.4-.1h-.1l-.05.05q-1.6-.45-3.05-1.05-1.1-.5-2.1-1.15l-4.1-.75q-5.55 10.4-17.5 16.3v.5h-.15l-.15-.1-.15-.15-.05-.2q.05 2.25-.05 4.4l-.95-3.6-.05-.05-.05-.05-13.5-6.1h-.1l-12.35 8.6-.05.05-2.95 2.45-.05.05v.1l1 8.55.15.05.05.55q-7.9-3.1-17.3-5.45l.1-.5.05.05h.1l.75-3.75v-.1l-.05-.05-10.75-7.75h-.15l-8.5 3.85-.05.05v.1l1.5 9.05.15.05.05.5-4.85-1.15-3.15-4-11.7.9-5.9-.95-5.75 4.45.1.2h-.35q-2.2 0-4.4 2.9-1.7 3.1-.75 4.5v.05l-1 1.2q-2.7-1.25-5.85-1.85l-4.15-.5Q49.65 45.8 41.75 54.6q-1.85 8.2 2.15 11.55l.1.05.1.1h-.2q-10.3.05-20.35 1.75L26 73.4q-10.65 18.05-12.2 41.9-4.35-4.15-7.95-9.9l-.35-.6-.15.25q-3.2 4-3.2 9.45 0 3.55 1.35 5.8l.15.2-.3.45-.1-.15-.2-.3-1.45 2.15-.1.3.15.3 3.5 3.75q.1.15.3.15l11.4 1.5 19.8 6.25h.25l79.65-11 19.2-1.1 5.55 4.25.05.05.35.25.15.05 2.1.7.15.05q3 4.2 3.65 8.6l-.15.15-2.75 4.95-.3-.05q-9.65 1.05-10.95 8.55l-.55 3.7q-11.8 8.15-13.45 19.5l-5.3 8.25-4.85.8-.3.15-.15.25-.55 2.9-3.45-1.85h-.05q-1.7-.75-4.75 5.2l-1.95-3.5-1.9-6.5-.1-.15-5.1-5.9-.2-.15-.25-.05-7.25.9m205.3-32.75v.1l8.3 17.25m2.05 40.2 12.5 46.45.4.85 5.75-.35.05-.3q.1-.15.3-.2v-.05l-.5.05m4.6-25 .3-.2h.3m14.9 6.4.25.25.05.35m-2.5 14.55 2.65-1.5-.95-1.95-.1-.3.2-.3q7.3-6.6 10.6-14.8l.25-.3h.4q2.7 1 6.35 1.15 5-3.1 9.45-7.65m2.9-25.75 2.65 3.45q2.75-6.8 3.3-12.9l.15-.25.25-.2 6.15-1.45.3.05.2.2 4.35 6.15q7.25-13.75 16.05-20.15 7.7-5.65 18.3-6 7.15-.3 12.05 1.9h.05l.6.3h-.05l3.1 1.9q3.7 3.05 5.25 5.95 1.05 1.95.6 3.3-.4 1.4-2.25 2.15h-.2q-2 .65-3.95.45h-.05l-3.05-.5q-3.5-.4-8.1 3.5-7.65 28.75-8.1 44.25-2.05 19.6-10.75 39.65-6.25 14.45-15.9 29.1-16.05 30.45-46.95 50-8.45 11.25-18.85 16.8l1 2.6-.05.35-1.6 3.8 5.35 5.5.15.3-.05.3-1.45 2.55v20.1l-.05.25-12.7 21.55-.05.05-.3.25-6.25 2.1.2 1.55q0 4.15-5.1 8.3l-.1.05q-3.25 1.8-6.75.6l-.55-.25q-6.4 2.55-12.45 2.9l-4.1-.05-.3-.1-.2-.3-.05-.5-.3-4q-8.8 3.45-14.2 4.25-2.8.35-4.7.05l-.8-.2q-1.2-5.75-1.15-10.15-3.6 3.55-8.35 6l-.05.05q-1.7.6-3.4.8-3.15.35-6.45-.65l-.05-.05-.3-.1-.25-.1-.1-.25q-1.1-3.3-1.5-6.2-1.25-9.4 4.25-15.45l-1.25-3.3-.05-.25.15-.25 3.15-3.9q.05-.15.25-.15l6.35-1.7-.65-1.2-.1-.25.1-.25 1.45-2.45-20.6-6.95-.2-.15-.1-.2-2.55-9.9-.3-.4q-3.3-4.25-8.25-9.45l-.1-.15-.05-.2.1-1.25h-.1q-10.65.2-20.25-2h-.05.05l-4.1-.7-6.9-1.4-.3-.2-.05-.15v-.25l-.4-.1-3.25-.85-3.05-.9-4.95-1.7-4-1.4-1.7-.65-.45-.2-.95-.35q-13.65-5.45-21.4-11.9l-.1-.05-.2.45.4.35q-4 8.55-13 13.8l-1.1 2.85-.15.2-5.4 4.55-.35.1-2.3-.15q-8.95 6.85-20.7 7.6l-.35-.1-.2-.3-.5-3.85.05-.25-.1-.25q-.4-5.25.65-10.5-6.8 9.15-16.1 11.6-10.55 2.65-11.95 2.05l-.2-.15-.15-.25-.5-2.45-.9-.45h.05q-4.6-2.4-6.35-6.45-2.4-5.5.2-14.05-1.95-1.1-.75-5.8l.1-.25q4.65-4.75 9-5.65l-1.45-5.9q-2.05-4.75 4.1-9.4-1.45-9.55 4.1-12.2-2.45-4.4-.35-12.7l-.05.05q1.85-15 18.75-28.5 3.9-7.75 12.55-10.4 6.45-14.25 18.3-13.9l.55-3.95.55-2.35.65-.65.15-.5-.2-.15q-14.7 14.15-23.8 9.05-12.3 3.8-20.1 2v.05l-.25.3-.3.05h-.1l-2.35-.8q-6.55.2-11.05-1.9-3.35-1.55-5.6-4.2l-17.2 2-.25-.05q-6.35-2.8-10.3-8.9l-.1-.2q-1-4.8 1.7-9.3-7.25-4.8-4.25-13.3l.5-1.4m61.8-14.2-.3.1.25.4.2-.45h-.05l-.1-.05m-59.75 8.5q-1.65-2.35-2.25-4.65-1.7-6.3 4.6-12.1l.3-.3m326.7 12.8-.15.05.3.4.2-.45-.3-.05-.05.05m-93.1 231.6.1.15.35.15v-.5l-.45.2"/><path stroke-width="2.8" stroke-opacity=".6" stroke-linejoin="round" stroke-linecap="round" stroke="#000" fill="none" d="M234.15 156.6q-4.6 6.95-2.5 10.3l-3.9-.6-.2-.1q-11.75 2.05-14.9 10.95l-2.75-.05m80.6 21.7q-5.25 5.35-11.4 8.1l-3.95 7.8-4.35 4.95q-2.65 2.55-5.4 4.1l-1.7 1.65-3.55 6.4q-4.2 3.85-15 7.7l-2.1-.35M213.2 178.5q-5.1 3.95-8.15 9.25l-2.1 4.4q-1.3 3.35-1.95 7.15m-6.2 21.2q-3.05-5.95-2.35-14.7.35-4.85 1.8-10.5m6.6 4.9 2.2.4 4.7-.15 4.25-.65q5.6-1.05 13.5-3.4l5.1-1.6m-2.6 7.4q-5.8 4.25-8.85 9l-1.1 1.85q-1.65 3.05-2.1 6.3l-.2 1.45q8.1 2.8 16.65 1 3.2-.7 6.5-2.05 1.35-.55 2.8-1.25l.6-.3.95-.5M195 220.9q2.2 4.1 6.25 6.8 1.05-7.45 3.95-14.7 1.5-3.85 3.5-7.55l3.3-5.65m5.5 161.05q.1-2.55.35-5.05l-3.35-4.65.7-5.6q-3.9-47.3 8.7-65.7 3.25-4.85 7.7-7.7 3.65-2.35 8.05-3.35m39.45-61.9.5-.95M309 331.9v2.7l2.5-4.6v-22.5q-6.2-6.3-11.35-13.25-2.55-3.4-4.8-6.95-3.45-5.35-6.35-11.05l-2.35-.6q-4.6-.9-9.8.05l-1.7.35-.9.2M312 337.3l2.95 4.4 1.05-.4 7.75-6.9q1.5 1.9 2.3 4.6.45 1.5.7 3.35.45 3.45 0 7.85-3.05 4.25-5.95 6.45m-9.4-19.35H309v-2.7"/><path stroke-width="2" stroke-opacity=".6" stroke-linejoin="round" stroke-linecap="round" stroke="#000" fill="none" d="m274.95 155.75.5.45 4 3.65.3.25 2.45 2.45q9.95 10.15 12.6 18.8 1.75 5.7.3 10.7l-4.6 4.4v2.35m-47.45 40.35-.8.3-4.1 1.1q-10.45 2.3-19-1.8l-2.55-1.4 6.75-6.35m56.5-71.55q.65-6.4-4.2-12-11.9-10.8-23.75-5.65m-57.65 53.5-1.7-2.5q2.65-15.25 16.8-15.7m81.15 19.35v-5.25M276 397.4q22.5 3.85 25.15 7.7m-50.55-15.2h29l33.9-17.5"/><path stroke-opacity=".514" stroke-linejoin="round" stroke-linecap="round" stroke="#000" fill="none" d="m86.4-76.05 4.1 8.55-4.05 24.25 2 7.4" transform="translate(210.65 234.55)"/><path stroke-width="2.5" stroke-opacity=".6" stroke-linejoin="round" stroke-linecap="round" stroke="#000" fill="none" d="M297.05 158.5q7.35 1.5 17.8-6.1L336.5 163q-.65 11.3 2.15 19.15L323.9 207.4l-20.65-4.6-4.15-4.1m18.5 46.45q-2.25-6.35-6.95-11.15l-.15-.25.05-.3.25-.25 3.75-2.05 7.65-11m.6-.2 14.9 6.4m.3.6-1.25 3.7-1.25 10.85m28.85-25.65q-4.85-5.7-11.5-7.35l-.25-.15-.15-.25.05-.3q1.85-4.45 2.85-13.85l.15-.3.3-.15q6.1-.85 10.8-3.5l.35-.1.3.2"/><path stroke-width="2" stroke-opacity=".4" stroke-linejoin="round" stroke-linecap="round" stroke="#000" fill="none" d="M86.8 181.9q-1.85-1.2-4.4-2l-.65-.2q-1.15-.25-2.75 0l-.4.1-.9.15-1.3.35-1.1.7-.1.05q-2.55 3-4.2 6.05l-.5.9q-2.75 5.35-2.65 10.7.05 6.25 4 12.45l1.25-5.8.4 5.55 5.4-4.15q6.25-5.15 12-11.7l.05-.05.05-.05.05-.2q2.4-8.15-3.45-12.35m-19.75 16.3q-8.8-.85-19.55 2.2 15.3 3.3 19.95 11-2.95 2.65-6.65 4.3-3.7 1.6-8.2 2.2 8.5 4.55 13.5 9.4l1.8 1.9q1.85 2.1 3.05 4.3l-3.2.6M42.9 218.55q5.7.5 10.5-.15m8.85-37.6q5.8 2.4 8.75 6.3"/><path fill-rule="evenodd" fill="url(#q)" d="m-48.5-2.5 38.5 5 52.5 9.15V22l-35 14.55H-30l-39-8.05-9.5-15q-4.7-6.35 6.5-29l23.5 13" transform="translate(210.65 234.55)"/><path fill-rule="evenodd" fill="url(#r)" d="M-72.7 95.5q-7.9-7.25-11.85-34.4l25.25 14.75 34.45 5.65L3.3 87.45 2.1 89.4l1.25.15Q3.5 102.05 5 108.5l-1.35 9.4 3.85 3.85-.4 4.25-3.1.2q-19.7.95-40.65-6.6L-57.8 110l-14.9-14.5" transform="translate(210.65 234.55)"/></g><g id="x" stroke-opacity="0" stroke-linejoin="round" stroke-linecap="round" stroke="#f0f" fill="none"><path d="M187.95-293.5v380h-380v-380h380" transform="translate(192.55 294)"/><path d="m187.95-293.5-190 190 190 190m-380-380 190 190L-192 86.5M92.95-38.4H-97" transform="translate(192.55 294)"/></g><use xlink:href="#s" width="18.25" height="22" id="b"/><use xlink:href="#t" width="438.65" height="429.15" id="e"/><use xlink:href="#u" width="438.65" height="429.15" id="f"/><use xlink:href="#v" width="100" height="40" id="y"/><radialGradient spreadMethod="pad" r="819.2" id="p" gradientUnits="userSpaceOnUse" gradientTransform="matrix(.0158 .0023 .0055 .0131 -118.8 -189.1)" cy="0" cx="0"><stop stop-opacity=".463" stop-color="#fff" offset="0"/><stop stop-opacity=".451" stop-color="#fff8bd" offset=".188"/><stop stop-opacity=".153" stop-color="#fff06c" offset=".62"/><stop stop-opacity="0" stop-color="#fff06c" offset="1"/></radialGradient><radialGradient spreadMethod="pad" r="819.2" id="r" gradientUnits="userSpaceOnUse" gradientTransform="matrix(.1224 .0108 -.0085 .097 -29.5 59)" cy="0" cx="0"><stop stop-opacity="0" stop-color="#fff" offset="0"/><stop stop-opacity="0" stop-color="#707070" offset=".353"/><stop stop-opacity=".341" offset=".62"/></radialGradient><path fill-rule="evenodd" fill-opacity="0" fill="#f0f" d="M100 40H0V0h100v40" id="v"/></defs><path fill="none" d="M-1-1h296v292H-1z"/><use x="206.293" y="364.67" xlink:href="#w" width="442.2" transform="translate(-135.627 -237.34) scale(.6595)" height="432.15"/><use x="136.05" y="240.5" xlink:href="#x" width="381" transform="translate(-192.55 -294)" height="381"/><use x="-35.134" y="-33.252" xlink:href="#y" width="100" transform="translate(54.65 77.85) scale(1.5939)" height="40"/></svg>