<svg width="282" height="171" xmlns="http://www.w3.org/2000/svg" xmlns:xlink="http://www.w3.org/1999/xlink"><defs><linearGradient y2="1.127" y1=".176" x2=".666" x1=".392" spreadMethod="pad" id="g"><stop stop-color="#e8f3f4" offset="0"/><stop stop-color="#c1dde3" offset="1"/></linearGradient><linearGradient y2=".532" y1=".468" x2=".601" x1=".401" spreadMethod="pad" id="h"><stop stop-color="#e8f3f4" offset="0"/><stop stop-color="#c1dde3" offset="1"/></linearGradient><linearGradient y2="1.007" y1=".055" x2=".599" x1=".335" spreadMethod="pad" id="i"><stop stop-color="#c3e0e6" offset="0"/><stop stop-color="#84bccc" offset="1"/></linearGradient><linearGradient y2=".203" y1=".079" x2="1.024" x1=".965" spreadMethod="pad" id="j"><stop stop-color="#c3e0e6" offset="0"/><stop stop-color="#84bccc" offset="1"/></linearGradient><linearGradient y2="1.012" y1=".251" x2=".587" x1=".451" spreadMethod="pad" id="k"><stop stop-color="#85c1d1" offset="0"/><stop stop-color="#69a3b5" offset="1"/></linearGradient><linearGradient y2="1.016" y1=".217" x2=".617" x1=".534" spreadMethod="pad" id="l"><stop stop-color="#85c1d1" offset="0"/><stop stop-color="#69a3b5" offset="1"/></linearGradient><linearGradient y2="1.073" y1=".048" x2=".649" x1=".471" spreadMethod="pad" id="m"><stop stop-color="#85c1d1" offset="0"/><stop stop-color="#69a3b5" offset="1"/></linearGradient><linearGradient y2=".933" y1=".53" x2=".694" x1=".435" spreadMethod="pad" id="n"><stop stop-color="#4d8da3" offset="0"/><stop stop-color="#3c6c80" offset="1"/></linearGradient><linearGradient y2=".998" y1=".368" x2=".799" x1=".449" spreadMethod="pad" id="o"><stop stop-color="#4d8da3" offset="0"/><stop stop-color="#3c6c80" offset="1"/></linearGradient><linearGradient y2="1.254" y1=".126" x2=".657" x1=".4" spreadMethod="pad" id="p"><stop stop-color="#4d8da3" offset="0"/><stop stop-color="#3c6c80" offset="1"/></linearGradient><linearGradient y2=".017" y1=".292" x2=".961" x1=".001" spreadMethod="pad" id="q"><stop stop-color="#4d8da3" offset="0"/><stop stop-color="#3c6c80" offset="1"/></linearGradient><linearGradient y2=".695" y1=".391" x2=".516" x1=".308" spreadMethod="pad" id="r"><stop stop-color="#85c1d1" offset="0"/><stop stop-color="#69a3b5" offset="1"/></linearGradient><linearGradient y2=".6" y1=".333" x2=".981" x1=".326" spreadMethod="pad" id="s"><stop stop-color="#abd0d9" offset="0"/><stop stop-color="#7caebd" offset="1"/></linearGradient><linearGradient y2=".484" y1=".403" x2=".885" x1=".376" spreadMethod="pad" id="t"><stop stop-color="#88bac9" offset="0"/><stop stop-color="#74aec2" offset="1"/></linearGradient><linearGradient y2=".679" y1="-.009" x2=".962" x1=".567" spreadMethod="pad" id="u"><stop stop-color="#abd0d9" offset="0"/><stop stop-color="#7caebd" offset="1"/></linearGradient><linearGradient y2=".713" y1="-.068" x2=".986" x1=".803" spreadMethod="pad" id="v"><stop stop-color="#88bac9" offset="0"/><stop stop-color="#74aec2" offset="1"/></linearGradient><linearGradient y2="1.013" y1="-.749" x2="8.569" x1="5.163" spreadMethod="pad" id="w"><stop stop-color="#d9f7ff" offset="0"/><stop stop-color="#84bccc" offset="1"/></linearGradient><linearGradient y2=".768" y1=".429" x2=".885" x1=".479" spreadMethod="pad" id="x"><stop stop-color="#4d8da3" offset="0"/><stop stop-color="#3c6c80" offset="1"/></linearGradient><linearGradient y2=".751" y1="-.001" x2=".56" x1=".309" spreadMethod="pad" id="y"><stop stop-color="#85c1d1" offset="0"/><stop stop-color="#69a3b5" offset="1"/></linearGradient><linearGradient y2=".64" y1=".066" x2=".723" x1="-.183" spreadMethod="pad" id="z"><stop stop-color="#85c1d1" offset="0"/><stop stop-color="#69a3b5" offset="1"/></linearGradient><linearGradient y2=".839" y1=".368" x2="1.249" x1=".319" spreadMethod="pad" id="A"><stop stop-color="#94d4e8" offset="0"/><stop stop-color="#69a3b5" offset="1"/></linearGradient><linearGradient y2="1.092" y1=".351" x2=".752" x1=".54" spreadMethod="pad" id="B"><stop stop-color="#91d0e3" offset="0"/><stop stop-color="#69a3b5" offset="1"/></linearGradient><linearGradient y2=".752" y1=".239" x2="1.139" x1="-.026" spreadMethod="pad" id="C"><stop stop-color="#93d3e6" offset="0"/><stop stop-color="#69a3b5" offset="1"/></linearGradient><linearGradient y2=".667" y1=".066" x2=".833" x1="-.478" spreadMethod="pad" id="D"><stop stop-color="#85c1d1" offset="0"/><stop stop-color="#69a3b5" offset="1"/></linearGradient><linearGradient y2=".755" y1=".442" x2=".965" x1=".126" spreadMethod="pad" id="E"><stop stop-color="#c3e0e6" offset="0"/><stop stop-color="#84bccc" offset="1"/></linearGradient><linearGradient y2=".497" y1=".497" x2=".999" x1="-.01" spreadMethod="pad" id="F"><stop stop-color="#c3e0e6" offset="0"/><stop stop-color="#84bccc" offset="1"/></linearGradient><linearGradient y2=".5" y1=".5" x2=".999" x1="-.01" spreadMethod="pad" id="G"><stop stop-color="#c3e0e6" offset="0"/><stop stop-color="#84bccc" offset="1"/></linearGradient><linearGradient y2=".929" y1="-.061" x2="1.003" x1=".507" spreadMethod="pad" id="H"><stop stop-color="#e8f3f4" offset="0"/><stop stop-color="#c1dde3" offset="1"/></linearGradient><linearGradient y2=".511" y1=".212" x2=".709" x1=".088" spreadMethod="pad" id="I"><stop stop-color="#c3e0e6" offset="0"/><stop stop-color="#84bccc" offset="1"/></linearGradient><linearGradient y2=".282" y1="1.167" x2=".888" x1=".375" spreadMethod="pad" id="J"><stop stop-color="#c3e0e6" offset="0"/><stop stop-color="#84bccc" offset="1"/></linearGradient><linearGradient y2=".325" y1="1.178" x2=".48" x1=".222" spreadMethod="pad" id="K"><stop stop-color="#c3e0e6" offset="0"/><stop stop-color="#84bccc" offset="1"/></linearGradient><linearGradient y2=".492" y1=".492" x2=".994" x1=".006" spreadMethod="pad" id="L"><stop stop-color="#c3e0e6" offset="0"/><stop stop-color="#84bccc" offset="1"/></linearGradient><linearGradient y2=".5" y1=".5" x2=".991" x1="-.001" spreadMethod="pad" id="M"><stop stop-color="#c3e0e6" offset="0"/><stop stop-color="#84bccc" offset="1"/></linearGradient><linearGradient y2=".912" y1="-.017" x2="-.244" x1="1.497" spreadMethod="pad" id="N"><stop stop-opacity="0" stop-color="#f2f8f8" offset="0"/><stop stop-color="#e8feff" offset="1"/></linearGradient><linearGradient y2=".92" y1=".523" x2=".914" x1="-.958" spreadMethod="pad" id="O"><stop stop-opacity="0" stop-color="#96dede" offset="0"/><stop stop-color="#dbe8e7" offset="1"/></linearGradient><linearGradient y2=".699" y1="-.11" x2=".712" x1=".063" spreadMethod="pad" id="P"><stop stop-opacity=".173" stop-color="#fff" offset=".353"/><stop stop-opacity="0" stop-color="#fff" offset=".604"/><stop stop-opacity=".192" stop-color="#fff" offset="1"/></linearGradient><linearGradient y2=".288" y1=".712" x2=".216" x1=".783" spreadMethod="pad" id="Q"><stop stop-opacity=".49" stop-color="#80adb5" offset="0"/><stop stop-opacity=".592" stop-color="#b9cbcf" offset="1"/></linearGradient><linearGradient y2=".238" y1=".762" x2=".175" x1=".824" spreadMethod="pad" id="R"><stop stop-opacity=".49" stop-color="#80adb5" offset="0"/><stop stop-opacity=".592" stop-color="#c2d5d9" offset="1"/></linearGradient><path fill-rule="evenodd" fill-opacity=".271" fill="#0564ab" d="M372.25 198.5q36.2 5.25 57.5 9 21.3 3.75-53.85 5.35-75.2 1.55-40.1 8.4 35.05 6.8-1.55 6.85.35.55 16.25 3t-42.95 2.25q-58.85-.2-27.75 6.3 49.15 3.25-2.55 4.85-51.7 1.55 16.55 6.7 68.15 5.15-44.85 2.7-113.05-2.5-85.65-5.85 27.35-3.35 70.05-6.8 42.65-3.45-28.95-6.05-43.35 3.9-73.15 3.5-70.55-1.05-19.7-9.35 50.8-8.3 7.4-8-43.45.25-42.15-1.1 38.35-9.85-26.7-11.15-65.05-1.3-45.6-5.7 19.4-4.45 58.55-7.1 39.15-2.7-14.3-6.15l42.35-3.2-.05-.4q0-4.35 15.1-5.2 15.1-.85 37.3.9 22.2 1.75 41.15.85t18.95 3.45l-.05.55q15.3-2.45 34.55-2.45l15.35.75 15.95 1.55q8.4.8 12.4 1.85l4.25 1.1q1.65-4.2 16.1-2.55l22.3 1.5q7.85-.15 41.25 3.6t26.65 4.7l-20.05 1.35" transform="translate(0 -181.05)" id="b"/><path fill-rule="evenodd" fill="url(#a)" d="m204.5 15.6.8 1.7.4.9-2.35-.15-3.45-.25v-.05l.1-2.15.25-1.8.3-1.05q1.05-2.75 3.95 2.85m6.5 1.15.75-1.05q1.5-2 2.4.1l.2.5.55 2.75-4.85-.5.95-1.8m12.75 3.35q2.15-2.25 2.25.55.05 1.7-.7 5.35l-1.15 5.1-.15.55-6.8 8.4-3.5 4.45-.1.15-1 1.3.65-1.45.05-.05q5-10.8 6.4-16.4l.45-1.95.1-1.2 2.05-3 1.45-1.8m-20.05.9-2.05-.15 1.35-.05 1.15-.05 2.6-.1.25.6-3.3-.25m33.05 16.05q.9-.4 1.55-.45 2.95-.25-2.4 7l-.1.05-2.05.6q-2.2.7-5.1 1.85l-7.2 2.95-1.25.55 1-.7 3.95-2.9 8.75-6.6 2.85-2.35m-27.9-15.65.35-.85 1.45-.05 3.75-.25.65-.05.15 1.9-2.85-.35-3.5-.35m-3.4 1.2 2.05.05.45 1.1.4-1.1h1.05l5.7-.1h.1l.05.45q-2.35 1.35-5.75 4.25-4.05 3.45-9.65 9.1-2.35-9.5-4.15-11.8l1.95.1h.45l1.4.05.7 2.25-.15-2.25.95.05 4.45.05q3.85-.15-5.25-1.4h-.2l-.05-.85 5.5.05m24.05 12.6-1.9.85.9-1.65 2.2-4.2q3-4.35 3-1.95 0 1.5-1.25 5.7l-2.7 1.15-.25.1m-45.05-19.35.1-.2q1.45-2.3 2.85-3.45 3.05-2.5 5.95.15l1.8 2.2.7 1.1-3 .05h-.4l-1.4.05H190l-5.55.1m-1.5-.1v.1l-.7.05h-.55.1l.4-.05.75-.1m-.4-5.25.15 1.65h-1l-.3.05-3.9-.05.15-.9.25-1.35.5-2.4.2-.7q2.45-10 3.85 2.85l.1.85m54.5 36.5.3-.3.8.3q3.15 1.25 1.45 4.9l-.1.25-.7-.25-5.8-1.6 4.05-3.3M195.7 24.55l-2.05-.1-.4.8q1.65.7.1 1l-.5.1q-1 3.15-1.65 10.25-12.3-14.6-22.5 7.15 2.4-23.25-10.2-2.6-5.4-9.15-7.8-6.95l-2.8-3.8-.45-.65-.4-.75 7.5.8 6.5 4.35-3.5-4.1-1.8-2.2-.25-.3 10.95 1.3.4.8-.25-.8-.2-.8-.2-.65q15.3 1.45 2.7-1.85l18.75.9 1.05.05 3.45-.1.7-.05.4-1.1q-1.1-.45-3.45-1l3.85.2q.9-1.35 2.05.1m3.1-2.05.25.75-7-.9 4.4.1 2 .05h.35m-26.05-10.6.2.3h-2.2l2-.3m-5.1-6.35-6.45.65-.05-.5-.15-2.45q-.1-7.5 7.3 2.25l-.65.05m.95 1.8-4.85.5 5.1-1.6.75 1-1 .1m69.7 81.55q1.35 2 1.9 3.7l.15.4-.8-.4-10.15-.8q4.7-1.5 7.85-2.9l.8-.35.25.35m-4-30.25-.65.6-2.1 2 1.45.25q16.25 2.95 3.05 10.95l-.25.15.1.1q3.85 5 4.6 7.7l.1.3-.7-.3q-3.75-1.75-11.55-3.25 3.95-2.35 5.95-4.45l.25-.25q6.2-7.05-9.75-11.85l.25-.05 6.55-1.3 2.7-.6m-68.55-31.3.3.6-2.95-.85 2.65.25m5.4-17.9.55.85-6.8.55 6.25-1.4m69.45 85.1q0 3.4-4.35 4.9l-.5.15-1-.15-4.85-.55q8.05-2.7 10.1-4.35l.55-.6.05.6m-.9 10.7.15.2q3.55 5.9-7.35 6.5h-.55l1.95.95-3.7-.95-8.45-1.95q12-2.5 17.35-4.55l.6-.2m-.25 11.15.2.2q5.3 4.75-3.85 7.75 10.3 9.7 5.5 10.15h-.45q-.45-4.8-19.1-16.9l17.15-1 .55-.2m-36.95 61.7q-3.6 20.4-4.65.1-5.35 19.5-6.5-1.45 1.45 1.05 2.65 1.35l1.2.05q3.2-.5 3.6-8.8l4.3 5.1-.6 3.65m-39.15-4.6-.2.2q1.05-3.3 1.5-11.1 5.55 22.45 7.15 4.15 7.35 16.55 8.7-2.8 6.05 8.9 10.15 12.25-12.65 29.3-13.35 5.2-13.05 26.55-5.4-6.85-20.5 29.5-8.55-1.05m72.35-35.95.05.05q11.7 14.75 4.15 11.35l-2-1q-5.4-4.25-19.7-12 10.3 1.75 15.95 1.65l1.55-.05m2.35 15.45q7.6 31.2-9.35-1.2l8.25 1.15 1.1.05m-7.55 13.8v.05q5.15 20.3-6.05-.9l3.4.9 2.65-.05m-4.5-15.55.8 2.55-2-2.8.4.05.8.2m-16 16.05 4.5 3.7v.3l-.45 7.45q-1 12.3-2.4-2.3l-.25-2.3-.35 1.6q-3.3 14.1-5.2 13.85-1.7-.2-2.35-11.45l-.15-3.45.95 1.05.75.7q1.8 1.8 2.9 2.3 3.1 1.3.55-7.45-.9-3.15-2.55-7.55l2.8 2.45 1.25 1.1m9.15-3.45 3.3 1.4-.55 5.95-3.75-6.75-.95-1.5 1.05.5.9.4m-2 9.15q2.75 1.95 4.2 2.4-1.95 13.65-4.75-2.85l.55.45M153.5 3.55l-2.3.15q-1.55-6.45 2.3-.15M123.15 42.8q-.85 1.8-7 3.25l-1.4.3-3.45.6h-.1l-1 .15-3.7.5 2.65 1.3 3.2 1.95.35.25 2 1.6q6.6 6.35-3.2 13.2l-.05.05-.6.35-1 .65q8.4 2.75 11.9 5.35v.05l1.55 1.45q2.6 3.3-3 6.45-2.4 1.35-6.25 2.65H114l-1.5.45-1.65.5 6.65.9q7.75 1.6.6 4.85-2.5 1.15-6.8 2.5 4.5.9 7.45 1.85 11.55 3.65-1.45 7.35l-11.95 2.55q-1.2-2.15-5.8-5.3 13.1-2.4-2.35-14.55 15 4.25 3.55-7.65 2.45-1.2 3.95-2.2l.2-.15q6.75-4.95-8.5-6.9 16.3-11.85 2.35-12.15 12.7-12.8-3.5-4.75 10.65-25.25-12.6 9.7 17.5-44.85-2.75-15.4.75-25.8-7.45-7.85-9.7-20.65-7.85 2.6-7.85-21.75-17.35-7.15-1.85-25.5-6.65-.25l-6.25-7.75q-.05-5.35.4-8.55L35 14l.05-.3.35-1.25.1-.25q.25-.75.65-1.15l2.2.1q1.4 1.1 3.25 4.45l.65 1.2.65 1.35.7 1.45.8-1.5 4.75-.15 1.9-.1q-.85.75-1 1.25-.45 1.25 3.45.9l-.2 3.45 1.55-3.6 5.5-1 .85-.15-.45.2q-1.9 1-2.4 1.7-.85 1 1.35 1.35l3 .15 1.3-.05 5.65-.4q-3.4 1.4-2.75 2l1.4.3 6.3-.3 2.3-.25 3.55-.45-4.05 1.1q-5.2 1.55-1.65 1.75l4.2-.1 4.6-.3q-1.3.6-2.05 1.1-4.1 2.5 6.8.45l2.8-.55 2.9-.65-.75.6-1.35 1.05-1.05.95-.45.5-.35.6q-.4 1.4 4.95-.05l-.1.35.25-.4 1.85-.5 1.05.6 1.7.95 3 1.35 2.2.6-2.8 2.2q5.35-2.3 9.2-3.7l1.3-.5 2.25-.75 2.95 1.75.45.2.85.35-.15.2-2 2-.65.6-1.75 1.5-.4.3.55.2 4.35 1.8q.9.45 1.6.85 2.9 1.7 2.55 3.15l-.1.3M111.4 27.05l.05.05-.4.35-1.5 1.2-.2.2.05-.65-.05-.45v-.35l-.05-.7-.25-1.55 2 1.65.35.25m37.4 17.5q-9.9-4.6 1.05-8.95-1.05 2.6-1.05 8.95m-95.45-32.8-4.8-.2L49 11l4.3.45v.1l.05.2m-4.3 3.8-.95.15-2.6.45.35-.6h3.2M13.9 28.65q-5.95-14.6 2.45-4.15l2.85 7.05-5.3-2.9m-7 4.45h.05l.05-.05q-6.35-7.6 2.8-3.4 1.05 1.5 3.2 3.8 4.05 4.35 11.9 11.65-13.65-7.6-14.95-6.3l-.1.5q.25 1.55 5.2 6.5-3.9 1.1-5.7 2.25L8 46.85Q-2.8 36.7 11.25 37.7l.35-.65-2.2-1.25-.55-.6-.4-.45L7 33.2l-.1-.1m20.4 2.55q-12.15-32-.6-18.25-3.85-.95.35 12.9 1.4 4.7 3.75 11.15l-3.5-5.8M4.9 59.8q-9.4-6.35 4.6-7.6l2.6 1.25q3.35 1.3 9.3 2.65-16.2 6.35-2.75 16.55-22.8 5.7-.8 14.65-17.2-.1-.4 7.1Q6.9 95.7 7 98.05-3.1 95 10.25 87.75q-16.05-4.2 2.6-16.2l.3-.25-.5.1-3.1.4-1 .1h-2.9q-1.65-.15-2.4-.75l-.15-.2Q1.15 68.8 8.8 62.1l-1.85-1.05-.3-.15L5 59.85l-.1-.05m8.8 58.55q-24.6 4.25-4.9-7.9-14.8-5 .7-9.9 3.95 2.15 14.25 4.95l-4.05 1.15q-9.4 2.8-10 4.4-.85 2.1 14.05 2.05-28 23.5-2.85 19.45l-5.05 6.8-2.1 2.7-4.85 5.65-1.2 1.15q-9.35 8.9.15-17.15-16.6 6 1.95-9.55l4.8-3.95-.9.15m9.3 13.8 3.45-.7-4.55 3.25 1.1-2.55m-1.6 14.35q-2.5 4.4-3.9 7.6l-.1.25q-1.15 2.7-1.45 4.5-5.05 4.4-.15-9.2l.75-1.9 4.85-1.25m14.25 13.7-.05-.6.3-.35-.25.95m-9-1.4.6-.35-.5 1-.1-.65m43.7 12.7.95-.5q1.85-2.05 4.7-12.05 2.3 21 3.5-11.05 2.1 13.95 3.85 16.5 1.5 2.25 2.7-4.25.7-3.85 1.3-10.65l5.1 7.55q7.1 9.5 3.15-3.3-2.45-7.85-9-24.05 10.7 17.6 15.35 22.55 5.75 6.2 1.9-7.6L101.5 137q4.2 2 5.65 1.95 4.8 3.75 8.05 6.65l2.9 2.7 1.05 1.1.5.55h.05q5.95 6.65-3.55 4.5-3.7-.8-9.65-2.95l.1.25q16 28.05-6.2 13.6l-1.15-.8 1.25 2.55v.05l.35.65.05.2 1.25 2.65q8.95 20.15-13.1-5.55l-.45-.55.75 2.55v.05l.25.85.05.3.65 2.4q3.25 12.3.65 11.45l-.3-.1q-2.4-1.3-8.8-11.7-.2 4.15-.85 6.55-2.85 10.15-14.7-10.9l-.2-.35 1.65-7.55q.3 8.65 1.35 11.75.5 1.6 1.25 1.65m-6.85-1.35.1.15q-1.6 8.3-5.5-.4 1.6-.25 4.15-7.65.4 6.55 1.25 7.9m-22.45-4.7.35-.6.15 2-.5-1.4m7.15 6.05-.1.3q-1.2 4.85-3.4 1.9 1.45-.15 3.6-2.65l-.1.45m2.9-4.3 4.45-7.75q.2 3.85.6 6.3L56 167.4l-.05.15v.3l-.3 3.35-.15.1q-1.45 7.7-4.4-4.05v-.05m64.5-58.45q5.5 2.45 5.3 3.7-.35 1.9-15.15.6-2.05-2.1-8.95-4.7 9.35-.3 8.9-3.45l1.95.7.05.05 1.6.55q3.25 1.25 5.6 2.25l.7.3m4.9 21.9q1.1 1.9 1.2 3.25.15 2.7-3.75 3.05-3.85.3-11.55-1.6l-.25-.05q-2.8-3.6-10.15-10.6 13.8 3.95 11.55.05-.85-1.4-3.65-3.8l-3.15-2.5q4.95-1.35 5.75-3 6.75 6.1 10.5 10.5 2.3 2.65 3.5 4.7m39.85 45.05q-12.95 8.75-5.6-10.2 3.35 8.75 5.6 10.2m-11.15-22.6.2-.2.5 8.15-2.55.25q-5.2-.2 1.85-8.2" id="S"/><path stroke-width="4" stroke-linejoin="round" stroke-linecap="round" stroke="#698991" fill="none" d="m220.05 32.15 3.9 1.6h.05l27.35 11.35 7.15 10.65V79.9l-3.5 22.35 3.5 12.9v17.2l-3 10.9 3 7.45v26.6l2 10.95-2 12.45v.05l-6.7 4.55-104.35 28.15-15.25-3.1-3.6-3.05-16.25-1.05-26.8-5.55-1.55-3.9-5.05 2.55h-.05l-25.25-5.2-13.15-4.9-26.05-3.2L2 203.5v-26.9l2.5-10.35-2.5-16.5v-37.5l3.5-10L2 77.75v-38l3.5-3.5V29.7l6.15-2.55 30.7-6.25h.05l15.35-1.05 6.35-3.4 20.4-4.2h18l13.8-6.5L134.7 2l15.6 1.3 39.05 16.15 5.35 5.4 25.35 7.3m-91.75 194.9.3.25" id="d"/><path fill-rule="evenodd" fill-opacity="0" fill="#f0f" d="M0 0h102.95v45H0V0" id="U"/><g transform="translate(0 2)" id="V"><use xlink:href="#b" width="434.45" transform="translate(0 181.05)" height="73.65"/><use xlink:href="#c" width="242.85" transform="translate(98.8 22.75)" height="193.15"/><use xlink:href="#d" width="262.5" transform="translate(89.7 -2)" height="235.45"/><use xlink:href="#e" width="231.15" transform="matrix(-1 0 0 1 339.25 19.85)" height="198.35"/><use xlink:href="#f" width="258.5" transform="translate(91.7)" height="231.45"/></g><g id="T"><path stroke-width="3" stroke-opacity=".722" stroke-linejoin="round" stroke-linecap="round" stroke="#3d6e87" fill="none" d="M72.4 41.45q12.95-7.8 28.9-16.3.9-1.35 2.55-2.65 19.2-5.65 38.35-7.65-.9-3.15-6.85-6.35 7.45 1.05 9.9 5.1 5.65-5.1 4.6-12.1 3.7 6.65 2.75 13.25-2.65 12.05-10.75 25-2.3 7.8 1.2 14.65l2.25-.65 1.25-.2q7.7-8.15 17.75-12.3 10.05-8.75 21.8-10.75.45.5.6 1.1.55 3-7.85 8.4 12.85-7.1 24-3.75 1.45 3.4-5.75 6.75 12.6 5.35 14.5 14.25-.15.95-.8 1.35-1.8 1.1-7.4-2.65 3.85 6.4 3.95 13.55l-.3 1.3q-1.15 3.75-3.75.8.05 4.8-2.4 8.5 18.1-17.25 27.2-17.35 4 2.65-2.25 21.75-2.3 7-6 16.25l-.8 1.7q-5 42.8-9.25 51.9l-.5.95q-3.4-11.3.1-34.6-12.55 32.5-20.35 40.85-.2-6.2 2.6-19.3-17 35.05-21.85 35.55l-.35-.4q-2.5-3.35.25-11.85-9.05 15.4-15.3 21.55l-.3 2.9q.5-.15 0 .05V190l-1.5.55-3.3 6.3-2.15-6.3q-1.55-1.4-2.65-4.75v-3.95q-9.35 13.25-12.35 13.25-1.3-7.8 5-22.55l.3-.7q-6.45 2.3-12.9.7-4.05-.3-7.85-2.05M5.6 79.85q-6.1-17.9-3.1-35.8 5 5 10 3.5-5.5-.2-7.5-6.5Q10.85 25.9 34.55 23q.4 6.2-.8 13.75-1.3 1.75-2.6 1.75l2.1.75Q32.6 47.4 28.5 55.5 21.05 70.05 8.4 80.25q-3.35 32.6 23.15 63.8 8.8 9.5 18.95 15.4m-15-69.8-4.95 1.15q2.85-4.65 7.1-9.7m1.2-5.75q-10.5 5.6-20.8 10.4l.7-1.15q5.3-9.05 19.8-20.45M72.6 55.5q14.5-9.3 29.45-20.05l1.05-1.55q1.5-2 3.75-3.9-3.85.25-5.7-.5l-1.1-.75q-.05-1.8 1.25-3.6M98.65 52.1l9.35-7.75q-3.2.9-6.15-1.25l-1.8-1.6.15-1.45q.45-2.35 1.85-4.6m29.3-6.7q-11.25 5.95-21.5 14.75-.75 2.3-.05 4.6l1 2.2v.05l.8 1.15q2.65 1.45 5.3.8l1.95-.8q8.4-10.3 17.75-17.75M108 44.35l1.85-.85m32.35-28.65.15.9M106.85 30q11-4.35 22-6m17.7 29.55 4.25-.8q1.6-.3 2.8.6 2.2 1.75 2.95 7.9.9 5.6 4.5 10.25l1.05.3h.05l8.2 2.35.05-.85-.3-1.55q-.45-4.6 1.05-8.35 1.3-3.25 4-5.8 1.9-1.85 4.45-3.35l4.05-.35.6.1q2.5.3 3.85 2m-58 .5q-1.8 1.1-3.8 1.4Q111 72.5 98.45 82.65q-5.8 8.55-7.65 17.1 7.95-3.2 19.25-14.65l1.3-1.4q1.8-4.75 4.5-9 1.8-2.95 4.05-5.65 4.4-5.4 10.8-9.2l2.75-1.55-3.35-1.8 5-6.25m-16.25 1.25q-.2 3.55 1.9 5.35l1.35.9 4.2.15m3.75 26.35-6 5 5-7 1 2m3.4-25.95q4.4-2.3 9.6-3.9M94.3 71.35q11.25-8.8 22.6-19.05M82.8 84.1q-5.1 7.95-7.15 13.7l-.35 1q10.1-5.7 23.15-16.15m17.1-3.65-1 1.75 2 5.75-1-7.5m-5.5 6.1q-4.9 8.45-5.25 14.15l3.75-.65-.5-2.05q.5-3.45 1.35-6.7.8-3.15 1.95-6.15M98.8 136.3l.15-1.6q-1.4-8.05 1.1-14.15.2-6.9-3-13.8-2.45-1.35-4.9-1.45l1 1.5-3.1 2.1-3-1.6.3-1.15-1.3.6q-1.05 2-1.25 4.3l.05 2.65.2 1.3 1.1.8 2.4 1.05 3.5-.1m-10 .25q-2.15 1.15-4.2 1.2 2 3 1.1 6 4.6-3 8.6-1.6l.95.4q2.7-3.1.05-6.15m-30.1 46.55q7.7 3.3 16.1 4.65 15.85 1.9 31.7-5.8-2.25-3.45-3.3-8.55-.45-2.1-.65-4.4-3.45-3.65-9.4-2.15l-2.35 6.65q-2.65 2.75-5.85 2.65l-5.65 1.85.35-3.85q-2.3-1.85-2.1-4.9 2.4-.85 3.8-3.35.95-1.7 1.45-4.15v-6.5q-6.2-5-3.6-11.35m14.85 20.35-.9 2.6m56.9-40.1q-3.75 1.15-7.15 3.55l-1 .7-.45.35q-4.4 3.55-6.1 7.85-.85 2.05-1.05 4.25h-3.25l2 2.05q-13.7.2-20.5 3.5-3.8 3.9-6.3 7.85l-1.85 3.35q-1.45 2.9-2.1 5.8l.25 3M88.5 123q1.85.9 3.55 2.8M106 137.15q-3.1-2.9-7.05-2.45m69.9-25.7q-1.25-.95-2.95-1.6-2.25-.85-5.3-1.15l-.6-.05q-3.5-.4-6.7.1m-44.75-7.7q2.05 8.6 4.75 12.45 6.6-3.6 13.5-5.45 4.3-1.15 8.75-1.6l2.8-.2 15.75-1.3 3.2-.25q18.2-4.1 30.3-14.75 4.55-.65 4.75 1.2l2.5-2.55q2.3-2.6-4.55-5.1-6.9-2.45-11.4-.5l2.2.95m-27 21 3 .75 3 .75 16.05-5.35 10.05-3.35 2-2.2 4.15-4.4m-35.25 14.55 2.9 2.95m-11.3 9q-4.75-.1-8.1 2.2 3.4-.25 6.1 2.15m-8.35-15.75q-3.45 4.85 2.95 5.2l3-2.5m-3 2.5.35 2.3m-14.85-5.7q-2.95 2.5-2 6.9 3.4 2.8 6.75 2l9.75-5.5m-9.75 5.5q-3.05 2.4-1.5 4.8 2.5 2.6 5.05.2m14.15 25.7-.6 5.05q8.75-15 22-34.1L182.85 99l3.35-3.7m-47.8 48.9v7.35q-1.3 1.75-1.9 3.5-.7 1.75-.7 3.5 1.6 6.85 3.95 8.3 2.8-5.85 6.6-12.6l1.2-2.1q-2.2-1.5-5.1-.9l-.95.6m7.3-6.3-3.5 1m-6.25-1.55 3.5 1.05m-50.4-40.75-4.8-5.15v6m115.5-38.4.35 2.35.1 1.5m-19.65-17.7.3.35.7.8q5.3 6.45 3.45 13.7l-2.4 4.95q-3.75 6.05-8.65 5.9l1.85.95m-8.55-6.4.5.1-.45-.95m6.65 6.3-1.85-1.1q-3.15-2.05-4.35-4.25m24 11.9 6.05-6.05m8.45.65L191.1 104.5q-.3 1 1 2l2.75 1.5q2.7 0 4.3-1.35l15.2-24.9M182.85 99q-.55 2.15 0 4.05.4 1.55 1.5 2.95 2.6.75 6.75-1.5-24.4 43.25-38.9 65.85-4.65 12.45-3.1 20.45 2.35-.85 5.3-3.7m11.5-79.7q.95.2 1.95 0 3.85-.95 8.3-8.75m42.9 3.8q-1.9 3.35-4.15 3.45l-.7 1.95-4.8 12.85m9.45-37.7-10.75 23.5q1.15.65 2.35.8l.4-1.05m-11.7.4q2.05 2.4 4.2 1.85 2.85.45 4.75-2-9.3 20.95-16.45 35.75m18.8-34.95q2.2.25 4.45-1.4l6.95-22.15m-20.25-30.5 1.8 2.7m-54.75 94.3-1.1 1.9m-7.8 14.7-2.2 4.8-.1.2m9.7 18.7q1.7 1.45 3.9.6l1.55-.6m-8.1-8.7 7.7-11.5m-45.95-8.1 1.8 2.3.45.4 2.25 1.9q1.4 1.1 2.85 2l3.1 1.65m-37.3-16.05 2.55-1.75 2.75 3.75m85 9.1q12.2-20.95 29.45-58.9M41.25 79.3l-1.35 5-.85 4.3q9.85-3.25 21.55-9.85M72.55 29Q60.9 40.3 52.8 53.8q-5.4 9-9.25 18.95l-1.1 3.05-1.2 3.5M57.9 96l-5.1 2.8q2.1-6.7 8-14.3m2.3 8.45 3.55-2.2M34.55 23Q14.8 45.3 9 75.55l-.6 4.7m76.4 30.8-3.75-3.55q-1.95-.65-3.9-.7l1.25 1.35-2.35 2.5-2.9-1.85.2-1.55-.8.25q-1.05 2.35-.85 5 .1 1.8.85 3.75 2.55 2 5.3 1.95m-.7-11.4-4.45-3.75.65 4.2M39.05 88.6q-1.85 10.6-1 23.95m20.4 50.85-.45-.15m-3.85-1.8-3.65-2"/><path stroke-width="3" stroke-opacity=".722" stroke-linejoin="round" stroke-linecap="round" stroke="#3d6e87" fill="none" d="M116.7 170.5q-8.75 14.75-22.15 18.55-24.4 1.5-36.05-15.5l-3-7.9-.4-.2q-13.85-7.25-29.7-24.85Q1.9 114.5 5.35 81.85l.25-2m44.9 79.6q-12.45-16.65-16.15-45.4-.85-13.55 1.15-24.4m2.15-8.55L39 77.35l-.15-2-.25-4.15-.05-7.05q.3-11.4 3.45-18.65Q56.7 29.45 72.55 29q.75 5.2-.15 12.45l-1.15 6.7-1.45 6.1-6.05-4 4.8 7.25.25.4 3.8-2.4q10.5-6.2 21.55-7.6l4.4-.4.1 4.6q-.1 4.3-.9 8.5-1.1 5.45-3.45 10.75-2.05 4.55-5 8.9l-6.5 3.85m70.5 22.2q3.5.75 6.6 2.85m-6.6-2.85-7.3-.35q2.2.4 3.8 1.1 3.5 1.6 4.15 4.9-6.1-.9-13.25 2.15 4.8-.85 8 1.1m-10.3 29-1.8-2.2.1-1.15.4-1.7q.75-2.85 2.8-4.9l5.75-.15 1 .3 2.35.95q3.4 3.85 2.75 7.75l-2.5 2.1-.45.35m-9.75-.55-.65-.8m9.5-5.5-2.5 3-4.15-1.65 3.6-4.15 3.05 2.8m35.7-71.95q0 .7-.55 1.2-.5.55-1.2.55t-1.25-.55q-.5-.5-.5-1.2t.5-1.25q.55-.5 1.25-.5t1.2.5q.55.55.55 1.25M58 163.25l.1.3 1.6 4 5.7 1.85 2.55.55q19 3.3 40.3-4.9.1-.1.25-.1m2.25 1.9q-10.45 17.9-35.4 11.2-8.05-2.95-14.55-8l1.7 3.5q6.75 12.5 29.8 13.1 13.7-3.95 21.3-17.8m-48.2.55q6.15 4.45 13.65 7.15 11.4 1.2 18.5-.9 5.65-3.05 10.95-10.7m-47.9-86.2q.2-5.05 1.65-9.65 1.65-5.35 4.95-10.15l1.15-.8-1.2.75-1.65 1.05.25.8q-9.7 8.2-24.5 18.55m19.35-.55q-.1 2.8.2 5.75l.55 3.9q3.55-7.1 7.85-13.3l2-2.8q11.3-15.25 27.35-24.8-12.25 8.35-21.6 20.95Q69.6 78.3 64 90.85l2.65-.1q5.7-.8 16.15-6.65M68.35 58.15l.45-.25m-.25-.4-6.75-5.7q1.7 1.5 3.7 8.15M57.9 96l2.05-4.6 1.4-3M64 90.85l-.9 2.1q-3.1 7.15-5.6 15.1-9.95 26.65.35 54.75l.6.6m-20.8-82.3-1.55 5.65-.6 2.9M72.55 29q-13 11.95-22.3 26.55-5.75 9.05-10.1 19.1L39 77.35m-.95 35.2q3.1 27.7 14.8 44.15-6.2-24.85.65-48.65 2-6.3 4.4-12.05m.1 67.25-.15-.45M34.55 23Q9.6 48.35 5.6 79.85m48.55 81.6-1.3-4.75m2.65 8.95-.2-.55-1.15-3.65m5.55 6.1 1.1 2.5"/><path fill-rule="evenodd" fill="#fff" d="m-26.05 213.65-.4-.2.2-.35.2.55M61.5 102.4l2.25-.65 1.25-.2 4.25-.8q1.6-.3 2.8.6-33.45 6.45-39.2 45.75l-.6-.1q-4.75-4.55-4.4-9.15.8-3.15 1.95-6.15 1.8-4.75 4.5-9 1.8-2.95 4.05-5.65 4.4-5.4 10.8-9.2l2.75-1.55q4.4-2.3 9.6-3.9m40.6-.5.6.1-.3.25-.3-.35M33 128.75l2 5.75-1-7.5-1 1.75m34.65 64.85-.4-.05.45-.35-.05.4m35.45-90.55q5.3 6.45 3.45 13.7l-2.4 4.95q-5.8 3.9-9.65.3-3.7-3-1.75-10.75 2.7-10.05 10.35-8.2m-1.05 11.7q0-.7-.55-1.25-.5-.5-1.2-.5t-1.25.5q-.5.55-.5 1.25t.5 1.2q.55.55 1.25.55t1.2-.55q.55-.5.55-1.2 0 .7-.55 1.2-.5.55-1.2.55t-1.25-.55q-.5-.5-.5-1.2t.5-1.25q.55-.5 1.25-.5t1.2.5q.55.55.55 1.25m-75.55 97.8.45.4q-.15 0-.25.1l-.2-.5m-50.05-1.3.45.15-.35.15-.1-.3" transform="translate(81.55 -48)"/><path fill-rule="evenodd" fill="#85c1d1" d="m64.1 182.1.25-.3.75.6-1-.3" transform="translate(81.55 -48)"/><path fill-rule="evenodd" fill="#deedf0" d="M80.55 119.8h.05l-.1.2.05-.2M10.6 153.3l1 1.5-1.55 1.05-4.25-7.7 4.8 5.15m-12.75 49.15L.4 200.7l2.75 3.75-5.65 1.85.35-3.85m57.7-15.3q.75-2.85 2.8-4.9l5.75-.15 1 .3 2.35.95q3.4 3.85 2.75 7.75l-3.15-3.6-1.05-.35.35-.45-3.05-2.8-1.8 2.05 1.8-2.05 3.05 2.8-.35.45-2-.6-4.3 1.5 1.8-2.1-6.35 2.9.4-1.7m-.6 15.9 5-3.2.95-.6q2.9-.6 5.1.9l-1.2 2.1q-5.25.75-10.55 4.3 0-1.75.7-3.5m-63.8-52 4.45 3.75 1.25 1.35-1.15 1.25-4.55-6.35" transform="translate(81.55 -48)"/><path fill-rule="evenodd" fill="#abd0d9" d="M-51 138.8q2.85-4.65 7.1-9.7l-1.55 5.65-5.55 4.05m8.3-15.45q-10.5 5.6-20.8 10.4l.7-1.15 19.85-13.4.25 4.15m28.35-16.4q-3.3 4.8-4.95 10.15l-22.35 15.2 1.35-5q14.8-10.35 24.5-18.55l-.25-.8 1.65-1.05.05.05m-6.4 25.55.55 3.9-1.4 3-7.15 7.4q2.1-6.7 8-14.3" transform="translate(81.55 -48)"/><path fill-rule="evenodd" fill="#4d8da3" d="m48.5 132.25-6 5 5-7 1 2m-15.5-3.5 1-1.75 1 7.5-2-5.75" transform="translate(81.55 -48)"/><path fill-rule="evenodd" fill="#88bac9" d="M-46.05 137.65-51 138.8l5.55-4.05-.6 2.9m26.75-20.55q-1.45 4.6-1.65 9.65-11.7 6.6-21.55 9.85l.85-4.3 22.35-15.2m1.75 21.75 2.65-.1-3.55 2.2.9-2.1M51.1 105.9l.8.4-2.75 1.55 1.95-1.95m-72.7 33.5-2.05 4.6-5.1 2.8 7.15-7.4" transform="translate(81.55 -48)"/><path fill-rule="evenodd" fill="#81afbf" d="M45.25 153.6q4.3-1.15 8.75-1.6l2.8-.2q-3.45 4.85 2.95 5.2l.35 2.3-.45.35q-4.4 3.55-6.1 7.85-2.55 2.4-5.05-.2-1.55-2.4 1.5-4.8-3.35.8-6.75-2-.95-4.4 2-6.9m14.5 3.4L50 162.5l9.75-5.5" transform="translate(81.55 -48)"/><path fill-rule="evenodd" fill="#e8e8e8" d="M89.6 111.4q1.3-3.25 4-5.8 1.9-1.85 4.45-3.35l4.05-.35.3.35.7.8q-7.65-1.85-10.35 8.2Q90.8 119 94.5 122q3.85 3.6 9.65-.3-3.75 6.05-8.65 5.9l-1.85-1.1q-3.15-2.05-4.35-4.25l-.45-.95-.3-1.55q-.45-4.6 1.05-8.35" transform="translate(81.55 -48)"/><path fill-rule="evenodd" fill="url(#g)" d="M72.05 101.35q2.2 1.75 2.95 7.9.9 5.6 4.5 10.25l1.05.3-.05.2q7.4 3.6 11.05 8 1.4 1.4-1 2.75-9.35 8.2-25.05 12.75-25.2 4.25-32.65 3.6 5.75-39.3 39.2-45.75m-23.55 30.9-1-2-5 7 6-5" transform="translate(81.55 -48)"/><path fill-rule="evenodd" fill="url(#h)" d="M50.6 243.1q-1.3-7.8 5-22.55l.3-.7.1-.2 2.2-4.8q2.8-5.85 6.6-12.6l1.2-2.1 1.1-1.9q8.75-15 22-34.1L101.3 147q-.55 2.15 0 4.05.4 1.55 1.5 2.95l-52.2 89.1" transform="translate(81.55 -48)"/><path fill-rule="evenodd" fill="url(#i)" d="M32.85 147.1q7.45.65 32.65-3.6 15.7-4.55 25.05-12.75 2.4-1.35 1-2.75-3.65-4.4-11.05-8l.1-.2 8.2 2.35.5.1q1.2 2.2 4.35 4.25l1.85 1.1 1.85.95q4.5-1.95 11.4.5 6.85 2.5 4.55 5.1l-2.5 2.55q-.2-1.85-4.75-1.2-12.1 10.65-30.3 14.75l-3.2.25 3.2-.25q18.2-4.1 30.3-14.75 4.55-.65 4.75 1.2l-4.15 4.4-2 2.2-10.05 3.35L78.55 152l-3-.75-3-.75-15.75 1.3-2.8.2q-4.45.45-8.75 1.6-6.9 1.85-13.5 5.45.25-6.35 1.1-11.95m66.7-17.6-2.2-.95 2.2.95" transform="translate(81.55 -48)"/><path fill-rule="evenodd" fill="url(#j)" d="M-62.8 132.6q5.3-9.05 19.8-20.45l.05 7.05-19.85 13.4m53.65-43.15q12.95-7.8 28.9-16.3-1.3 1.8-1.25 3.6l1.1.75-29.9 18.65 1.15-6.7" transform="translate(81.55 -48)"/><path fill-rule="evenodd" fill="url(#k)" d="M97.3 88q12.85-7.1 24-3.75-3.85 4.05-11.5 4.25l5.75 2.5q12.6 5.35 14.5 14.25-.15.95-.8 1.35-5.15-2.4-11.2-10.1l2 4.75 1.8 2.7q3.85 6.4 3.95 13.55l-.3 1.3q-2.1-2.7-4.2-11.3v8.25l.35 2.35q-2.95 5.65-6.85 3.9-2.35.35-3.75-5.25 2.5-4-4.5-12.75-1.35-1.7-3.85-2l-.6-.1-4.05.35q-2.55 1.5-4.45 3.35-2.7 2.55-4 5.8-4.5 5.8-9 8.4h-.05l-1.05-.3q-3.6-4.65-4.5-10.25-.75-6.15-2.95-7.9-1.2-.9-2.8-.6l-4.25.8q7.7-8.15 17.75-12.3 10.05-8.75 21.8-10.75.45.5.6 1.1-3.7 4.2-11.1 8.4h3.25" transform="translate(81.55 -48)"/><path fill-rule="evenodd" fill="url(#l)" d="M19.75 73.15q.9-1.35 2.55-2.65 19.2-5.65 38.35-7.65-.9-3.15-6.85-6.35 7.45 1.05 9.9 5.1 5.65-5.1 4.6-12.1 3.7 6.65 2.75 13.25-2.65 12.05-10.75 25l5.2-16.85q.8-2.5-1.5-4.65-1.2-1.2-3.25 2h-11Q34.3 69.7 18.5 76.75q-.05-1.8 1.25-3.6m1.8 8.75 23.2-6.4-26.1 12.55q.45-2.35 1.85-4.6l1.05-1.55m6.7 14.2L50.5 80 29.25 98.3l-1-2.2M60.8 63.75l-.15-.9.15.9" transform="translate(81.55 -48)"/><path fill-rule="evenodd" fill="url(#m)" d="M119.35 128.1q18.1-17.25 27.2-17.35 4 2.65-2.25 21.75 2.35-15.8-.5-18-8.25 1.15-16.5 10l-26 26.55q-.55-1.9 0-4.05l3.35-3.7 2-2.2 4.15-4.4 2.5-2.55 6.05-6.05m-8.8 26.4 16.75-22-14 23.5-2.75-1.5" transform="translate(81.55 -48)"/><path fill-rule="evenodd" fill="url(#n)" d="M105.15 79.6q.55 3-7.85 8.4h-3.25q7.4-4.2 11.1-8.4m16.15 4.65q1.45 3.4-5.75 6.75l-5.75-2.5q7.65-.2 11.5-4.25m7.95 22.35q-1.8 1.1-7.4-2.65l-1.8-2.7-2-4.75q6.05 7.7 11.2 10.1m-3.75 12.2q-1.15 3.75-3.75.8.05 4.8-2.4 8.5l-6.05 6.05q2.3-2.6-4.55-5.1-6.9-2.45-11.4-.5l-1.85-.95q4.9.15 8.65-5.9l2.4-4.95q1.85-7.25-3.45-13.7l-.7-.8.3-.25q2.5.3 3.85 2 7 8.75 4.5 12.75 1.4 5.6 3.75 5.25 3.9 1.75 6.85-3.9l-.35-2.35v-8.25q2.1 8.6 4.2 11.3m-44.9 1q4.5-2.6 9-8.4-1.5 3.75-1.05 8.35l.3 1.55-.05.85-8.2-2.35m41.15-.2-.1-1.5.1 1.5" transform="translate(81.55 -48)"/><path fill-rule="evenodd" fill="url(#o)" d="M144.3 132.5q-2.3 7-6 16.25l-.8 1.7q-1.9 3.35-4.15 3.45-2.25 1.65-4.45 1.4-1.2-.15-2.35-.8-1.9 2.45-4.75 2-2.15.55-4.2-1.85-1.6 1.35-4.3 1.35l14-23.5-16.75 22q-1.3-1-1-2-4.15 2.25-6.75 1.5-1.1-1.4-1.5-2.95l26-26.55q8.25-8.85 16.5-10 2.85 2.2.5 18m-11.5-2.75-15.2 24.9 15.2-24.9m-5-1-18.25 23.75 18.25-23.75m12.5 3-6.95 22.15 6.95-22.15m-3-.75-10.75 23.5L137.3 131m-8 23.25-.4 1.05.4-1.05" transform="translate(81.55 -48)"/><path fill-rule="evenodd" fill="url(#p)" d="M60.3 87.75q-2.3 7.8 1.2 14.65-5.2 1.6-9.6 3.9l-.8-.4-2.55-1.4q-1.8 1.1-3.8 1.4l-4.2-.15-1.35-.9q-2.1-1.8-1.9-5.35l-1.95.8q-2.65.65-5.3-.8l-.8-1.15v-.05L50.5 80 28.25 96.1q-.7-2.3.05-4.6l-1.85.85q-3.2.9-6.15-1.25l-1.8-1.6.15-1.45 26.1-12.55-23.2 6.4q1.5-2 3.75-3.9-3.85.25-5.7-.5l-1.1-.75q15.8-7.05 31.25-8.5h11q2.05-3.2 3.25-2 2.3 2.15 1.5 4.65l-5.2 16.85M47.3 72q-11 1.65-22 6 11-4.35 22-6m2.5 4.75Q38.55 82.7 28.3 91.5q10.25-8.8 21.5-14.75m5.25 5Q45.7 89.2 37.3 99.5q8.4-10.3 17.75-17.75m-1.5 16.5-5 6.25 5-6.25" transform="translate(81.55 -48)"/><path fill-rule="evenodd" fill="#3f7388" d="m56.8 151.8 15.75-1.3 3 .75 2.9 2.95q-3.5-.4-6.7.1l-7.3-.35q2.2.4 3.8 1.1-3.75 1.15-7.15 3.55l-1 .7-.35-2.3q-6.4-.35-2.95-5.2m5.95 2.7-3 2.5 3-2.5" transform="translate(81.55 -48)"/><path fill-rule="evenodd" fill="url(#q)" d="M55.9 219.85q-6.45 2.3-12.9.7-4.05-.3-7.85-2.05l-3.1-1.65q-1.45-.9-2.85-2l-2.25-1.9-.45-.4-1.8-2.3q-2.25-3.45-3.3-8.55 4.4 7.95 8.85 4.35 4.85-11.55 8-12.75 7.7-4.9 17.3-6.15l-.4 1.7-.1 1.15 1.8 2.2v7.35q-1.3 1.75-1.9 3.5-.7 1.75-.7 3.5 1.6 6.85 3.95 8.3l-2.2 4.8-.1.2m8.45-38.05-6.85-5.3q7.05 3.15 13.3-2.1 2.6-6.6 8.95-10.25 3.8-2.1 6.8-1.3 2.5-1.5-2.2-7.45 1.7.65 2.95 1.6-1.25-.95-2.95-1.6.95.2 1.95 0 3.85-.95 8.3-8.75l10.05-3.35-3.35 3.7-12.2 17.15q-13.25 19.1-22 34.1l.55-4.65.05-.4 2.5-2.1q.65-3.9-2.75-7.75l-2.35-.95-.75-.6" transform="translate(81.55 -48)"/><path fill-rule="evenodd" fill="url(#r)" d="m22.6 188.5 1.85-3.35q2.5-3.95 6.3-7.85 6.8-3.3 20.5-3.5l-2-2.05h3.25q.2-2.2 1.05-4.25 1.7-4.3 6.1-7.85l.45-.35 1-.7q3.4-2.4 7.15-3.55-1.6-.7-3.8-1.1l7.3.35q3.2-.5 6.7-.1l.6.05q3.05.3 5.3 1.15 4.7 5.95 2.2 7.45-3-.8-6.8 1.3-6.35 3.65-8.95 10.25-6.25 5.25-13.3 2.1l6.85 5.3-.25.3-5.75.15q-2.05 2.05-2.8 4.9-9.6 1.25-17.3 6.15-3.15 1.2-8 12.75-4.45 3.6-8.85-4.35-.45-2.1-.65-4.4l-.25-3q.65-2.9 2.1-5.8m55.75-31.35q-3.1-2.1-6.6-2.85 3.5.75 6.6 2.85m-11.2 6.05q-3.2-1.95-8-1.1 7.15-3.05 13.25-2.15-.65-3.3-4.15-4.9 3.5 1.6 4.15 4.9-6.1-.9-13.25 2.15 4.8-.85 8 1.1-4.75-.1-8.1 2.2 3.4-.25 6.1 2.15-2.7-2.4-6.1-2.15 3.35-2.3 8.1-2.2" transform="translate(81.55 -48)"/><path fill-rule="evenodd" fill="url(#s)" d="m128.25 202.35-.5.95q-3.4-11.3.1-34.6l4.8-12.85-4.4 46.5m-20.75 7.2q-.2-6.2 2.6-19.3 7.15-14.8 16.45-35.75 1.15.65 2.35.8l-21.4 54.25M87.9 225.4q-2.5-3.35.25-11.85 12.2-20.95 29.45-58.9 2.05 2.4 4.2 1.85l-33.9 68.9m-24.95 4.45Q53.6 243.1 50.6 243.1l52.2-89.1q2.6.75 6.75-1.5-.3 1 1 2l2.75 1.5-45.75 82.8q-1.55-8 3.1-20.45l-7.7 11.5m46.6-77.35q-24.4 43.25-38.9 65.85 14.5-22.6 38.9-65.85" transform="translate(81.55 -48)"/><path fill-rule="evenodd" fill="url(#t)" d="M137.5 150.45q-5 42.8-9.25 51.9l4.4-46.5-4.8 12.85q-12.55 32.5-20.35 40.85l21.4-54.25q2.2.25 4.45-1.4 2.25-.1 4.15-3.45m-27.4 39.8q-17 35.05-21.85 35.55l-.35-.4 33.9-68.9q2.85.45 4.75-2-9.3 20.95-16.45 35.75m-21.95 23.3q-9.05 15.4-15.3 21.55-2.95 2.85-5.3 3.7L113.3 156q2.7 0 4.3-1.35-17.25 37.95-29.45 58.9m44.5-57.7.7-1.95-.7 1.95" transform="translate(81.55 -48)"/><path fill-rule="evenodd" fill="url(#u)" d="m17.1 100.1 9.35-7.75 1.85-.85q-.75 2.3-.05 4.6l1 2.2v.05L16.2 108.6q.8-4.2.9-8.5m3.2-9-7.7 4.8q-11.05 1.4-21.55 7.6l-3.8 2.4-.45.25-1.2.75-1.65 1.05q-2-6.65-3.7-8.15l6.75 5.7-4.8-7.25 6.05 4 1.45-6.1L19.6 77.5q1.85.75 5.7.5-2.25 1.9-3.75 3.9l-1.05 1.55q-1.4 2.25-1.85 4.6l-.15 1.45 1.8 1.6m-19.05 41 6.5-3.85q2.95-4.35 5-8.9 11.25-8.8 22.6-19.05l1.95-.8q-.2 3.55 1.9 5.35L-5.9 145.8q2.05-5.75 7.15-13.7m-10.2-28.6q14.5-9.3 29.45-20.05Q5.55 94.2-8.95 103.5m53.7 2.4q2-.3 3.8-1.4l2.55 1.4-1.95 1.95q-6.4 3.8-10.8 9.2-2.25 2.7-4.05 5.65L9.25 147.75q1.85-8.55 7.65-17.1 12.55-10.15 27.85-24.75m-57.75-.4.25.4-.25-.4" transform="translate(81.55 -48)"/><path fill-rule="evenodd" fill="url(#v)" d="m17 95.5-4.4.4 7.7-4.8q2.95 2.15 6.15 1.25l-9.35 7.75-.1-4.6m-4.25 23.85q2.35-5.3 3.45-10.75l13.05-10.25.8 1.15q2.65 1.45 5.3.8-11.35 10.25-22.6 19.05m26.45-14.5 1.35.9 4.2.15q-15.3 14.6-27.85 24.75Q3.85 141.1-6.25 146.8l.35-1 45.1-40.95m-29.95 42.9L34.3 122.7q-2.7 4.25-4.5 9-1.15 3-1.95 6.15-.85 3.25-1.35 6.7l.5 2.05-3.75.65q.35-5.7 5.25-14.15-11.3 11.45-19.25 14.65M29.8 131.7l-1.3 1.4 1.3-1.4" transform="translate(81.55 -48)"/><path fill-rule="evenodd" fill="url(#w)" d="M27.85 137.85q-.35 4.6 4.4 9.15l.6.1q-.85 5.6-1.1 11.95-2.7-3.85-4.75-12.45l-.5-2.05q.5-3.45 1.35-6.7" transform="translate(81.55 -48)"/><path fill-rule="evenodd" fill="url(#x)" d="M35.15 218.5Q26.4 233.25 13 237.05q-24.4 1.5-36.05-15.5l-3-7.9-.2-.55-1.15-3.65-1.3-4.75 1.3 4.75 1.15 3.65-.2.35q-13.85-7.25-29.7-24.85-23.5-26.1-20.05-58.75l.25-2q4-31.5 28.95-56.85-19.75 22.3-25.55 52.55l-.6 4.7q-3.35 32.6 23.15 63.8 8.8 9.5 18.95 15.4-12.45-16.65-16.15-45.4-.85-13.55 1.15-24.4l.6-2.9 1.55-5.65 1.35-3.75 1.15-2.7q4.35-10.05 10.1-19.1Q-22 88.95-9 77q-11.65 11.3-19.75 24.8-5.4 9-9.25 18.95l-1.1 3.05-1.2 3.5-1.35 5-.85 4.3q-1.85 10.6-1 23.95 3.1 27.7 14.8 44.15-6.2-24.85.65-48.65 2-6.3 4.4-12.05l2.05-4.6 1.4-3q3.55-7.1 7.85-13.3l2-2.8Q.95 105.05 17 95.5q-12.25 8.35-21.6 20.95-7.35 9.85-12.95 22.4l-.9 2.1q-3.1 7.15-5.6 15.1-9.95 26.65.35 54.75l.15.45.1.3.35-.15q7.7 3.3 16.1 4.65 15.85 1.9 31.7-5.8l1.8 2.3.2.5q-21.3 8.2-40.3 4.9l-2.55-.55q6.15 4.45 13.65 7.15 11.4 1.2 18.5-.9 5.65-3.05 10.95-10.7l2.25 1.9q-10.45 17.9-35.4 11.2-8.05-2.95-14.55-8l1.7 3.5q6.75 12.5 29.8 13.1 13.7-3.95 21.3-17.8l3.1 1.65m-51.3-1.1-5.7-1.85-1.6-4 1.6 4 5.7 1.85m-4.6.65-1.1-2.5 1.1 2.5m-10.3-10.6 3.65 2-3.65-2" transform="translate(81.55 -48)"/><path fill-rule="evenodd" fill="url(#y)" d="m17 95.5.1 4.6q-.1 4.3-.9 8.5-1.1 5.45-3.45 10.75-2.05 4.55-5 8.9l-6.5 3.85q-10.45 5.85-16.15 6.65l-2.65.1q5.6-12.55 12.95-22.4Q4.75 103.85 17 95.5" transform="translate(81.55 -48)"/><path fill-rule="evenodd" fill="url(#z)" d="M-9 77q.75 5.2-.15 12.45l-1.15 6.7-1.45 6.1-6.05-4 4.8 7.25-6.75-5.7q1.7 1.5 3.7 8.15l.25.8q-9.7 8.2-24.5 18.55l1.2-3.5 1.1-3.05q3.85-9.95 9.25-18.95Q-20.65 88.3-9 77" transform="translate(81.55 -48)"/><path fill-rule="evenodd" fill="url(#A)" d="m-42.55 125.35-.15-2-.25-4.15-.05-7.05q.3-11.4 3.45-18.65Q-24.85 77.45-9 77q-13 11.95-22.3 26.55-5.75 9.05-10.1 19.1l-1.15 2.7" transform="translate(81.55 -48)"/><path fill-rule="evenodd" fill="url(#B)" d="m12.6 95.9 4.4-.4q-16.05 9.55-27.35 24.8l-2 2.8q-4.3 6.2-7.85 13.3l-.55-3.9q-.3-2.95-.2-5.75.2-5.05 1.65-9.65 1.65-5.35 4.95-10.15l1.15-.8.45-.25 3.8-2.4q10.5-6.2 21.55-7.6" transform="translate(81.55 -48)"/><path fill-rule="evenodd" fill="url(#C)" d="M-75.95 127.85q-6.1-17.9-3.1-35.8 5 5 10 3.5-5.5-.2-7.5-6.5Q-70.7 73.9-47 71q-24.95 25.35-28.95 56.85" transform="translate(81.55 -48)"/><path fill-rule="evenodd" fill="url(#D)" d="M-47 71q.4 6.2-.8 13.75-1.3 1.75-2.6 1.75l2.1.75q-.65 8.15-4.75 16.25-7.45 14.55-20.1 24.75l.6-4.7Q-66.75 93.3-47 71" transform="translate(81.55 -48)"/><path fill-rule="evenodd" fill="url(#E)" d="M11.6 154.8 14 158l1.5 5.25-2 8.05v7.75l3.5 6.25 1.5-1.5 4.1 4.7q-1.45 2.9-2.1 5.8l.25 3q-3.45-3.65-9.4-2.15L9 201.8q-2.65 2.75-5.85 2.65L.4 200.7l-2.55 1.75q-2.3-1.85-2.1-4.9L7 199.3l-7.45-5.1q.95-1.7 1.45-4.15v-6.5q-6.2-5-3.6-11.35 4.6-3 8.6-1.6-4-1.4-8.6 1.6.9-3-1.1-6-2.75.05-5.3-1.95-.75-1.95-.85-3.75l1.1-1H-.5l3.8 2.2-.05-2.65q.2-2.3 1.25-4.3l1.3-.6-.3 1.15 3 1.6 1.55-1.05 1.55-1.05m-7 9-1.1-.8-.2-1.3.2 1.3 1.1.8 1.4 6.8.95.4q2.7-3.1.05-6.15l-2.4-1.05m5.9.95-3.5.1 3.5-.1m1.75 27.8-.9 2.6.9-2.6M10.5 173.8q-1.7-1.9-3.55-2.8 1.85.9 3.55 2.8M.5 165q-2.15 1.15-4.2 1.2 2.05-.05 4.2-1.2" transform="translate(81.55 -48)"/><path fill-rule="evenodd" fill="url(#F)" d="m5.8 148.15 4.25 7.7-1.55 1.05-3-1.6.3-1.15v-6" transform="translate(81.55 -48)"/><path fill-rule="evenodd" fill="url(#G)" d="m-8.2 155.25-.65-4.2 4.55 6.35-1.2 1.25-2.9-1.85.2-1.55" transform="translate(81.55 -48)"/><path fill-rule="evenodd" fill="url(#H)" d="m22.6 188.5-4.1-4.7-1.5 1.5-3.5-6.25v-7.75l2-8.05L14 158l-2.4-3.2-1-1.5q2.45.1 4.9 1.45 3.2 6.9 3 13.8-2.5 6.1-1.1 14.15 3.95-.45 7.05 2.45l-1.85 3.35m-5.35-4.2.15-1.6-.15 1.6m-14-25.25.05 2.65-3.8-2.2h-8.25l-1.1 1q-.2-2.65.85-5l.8-.25-.2 1.55 2.9 1.85 1.2-1.25 1.15-1.25-1.25-1.35q1.95.05 3.9.7l3.75 3.55m1.35 4.75 2.4 1.05q2.65 3.05-.05 6.15l-.95-.4-1.4-6.8m-5.05 30.4L7 199.3l-11.25-1.75q2.4-.85 3.8-3.35" transform="translate(81.55 -48)"/><path fill-rule="evenodd" fill="url(#I)" d="M64.8 202.25q-3.8 6.75-6.6 12.6-2.35-1.45-3.95-8.3 5.3-3.55 10.55-4.3" transform="translate(81.55 -48)"/><path fill-rule="evenodd" fill="url(#J)" d="m72.85 235.1-.3 2.9-1.5.55-1.55.6q-2.2.85-3.9-.6-1.55-1.4-2.65-4.75v-3.95l7.7-11.5Q66 230.8 67.55 238.8q2.35-.85 5.3-3.7" transform="translate(81.55 -48)"/><path fill-rule="evenodd" fill="url(#K)" d="m56.85 192.2.65.8-.65-.8-1.8-2.2.1-1.15 6.35-2.9-1.8 2.1 4.15 1.65 2.15-2.55 1.05.35 3.15 3.6-2.5 2.1-.45.35.4.05-.55 4.65-1.1 1.9q-2.2-1.5-5.1-.9l-.95.6-5 3.2q.6-1.75 1.9-3.5v-7.35m6.9 2.35 3.5-1-3.5 1m-2.75-.5L57.5 193l3.5 1.05" transform="translate(81.55 -48)"/><path fill-rule="evenodd" fill="url(#L)" d="m59.7 188.05 4.3-1.5 2 .6-2.15 2.55-4.15-1.65" transform="translate(81.55 -48)"/><path fill-rule="evenodd" fill="url(#M)" d="m71.05 238.55-3.3 6.3-2.15-6.3q1.7 1.45 3.9.6l1.55-.6" transform="translate(81.55 -48)"/><path stroke-width=".5" stroke-opacity=".502" stroke-linejoin="round" stroke-linecap="round" stroke="#000" fill="none" d="M116.7 170.5q-8.75 14.75-22.15 18.55-24.4 1.5-36.05-15.5l-3-7.9-.4-.2q-13.85-7.25-29.7-24.85Q1.9 114.5 5.35 81.85l.25-2m44.9 79.6q-12.45-16.65-16.15-45.4-.85-13.55 1.15-24.4m2.15-8.55L39 77.35l-.15-2-.25-4.15-.05-7.05q.3-11.4 3.45-18.65Q56.7 29.45 72.55 29q.75 5.2-.15 12.45l-1.15 6.7m22.9-.25 4.4-.4.1 4.6m-4.5-4.2Q83.1 49.3 72.6 55.5l-3.8 2.4-.45.25-1.15.8q-3.3 4.8-4.95 10.15-1.45 4.6-1.65 9.65-.1 2.8.2 5.75l.55 3.9q3.55-7.1 7.85-13.3l2-2.8q11.3-15.25 27.35-24.8-12.25 8.35-21.6 20.95Q69.6 78.3 64 90.85l2.65-.1q5.7-.8 16.15-6.65l6.5-3.85q2.95-4.35 5-8.9 2.35-5.3 3.45-10.75.8-4.2.9-8.5m38.45 87.05q.75-2.85 2.8-4.9l5.75-.15 1 .3 2.35.95q3.4 3.85 2.75 7.75l-2.5 2.1-.45.35m4.5-39.25q3.5.75 6.6 2.85m-6.6-2.85-7.3-.35q2.2.4 3.8 1.1 3.5 1.6 4.15 4.9-6.1-.9-13.25 2.15 4.8-.85 8 1.1m-9.65 29.8-.65-.8-1.8-2.2.1-1.15.4-1.7m5.95-1.2 1.8-2.05 3.05 2.8-.35.45m-6.3.9 4.15 1.65 2.15-2.55m-6.3.9 1.8-2.1m40.55-71.2q0 .7-.55 1.2-.5.55-1.2.55t-1.25-.55q-.5-.5-.5-1.2t.5-1.25q.55-.5 1.25-.5t1.2.5q.55.55.55 1.25m-75.35 98.3q.1-.1.25-.1m-.25.1q-21.3 8.2-40.3 4.9l-2.55-.55q6.15 4.45 13.65 7.15 11.4 1.2 18.5-.9 5.65-3.05 10.95-10.7m2.25 1.9q-10.45 17.9-35.4 11.2-8.05-2.95-14.55-8l1.7 3.5q6.75 12.5 29.8 13.1 13.7-3.95 21.3-17.8M65.5 59.95l.25.8q-9.7 8.2-24.5 18.55m25.9-20.4-1.65 1.05q-2-6.65-3.7-8.15l6.75 5.7-4.8-7.25 6.05 4 1.45-6.1m-2.9 10-1.2.75m1.65-1-.25-.4M57.9 96l2.05-4.6 1.4-3M57.9 96q-2.4 5.75-4.4 12.05-6.85 23.8-.65 48.65l1.3 4.75 1.15 3.65.2.55m8.5-74.8-.9 2.1q-3.1 7.15-5.6 15.1-9.95 26.65.35 54.75l.6.6M36.1 86.75l-.6 2.9m.6-2.9 1.55-5.65M72.55 29q-13 11.95-22.3 26.55-5.75 9.05-10.1 19.1L39 77.35m-.95 35.2q3.1 27.7 14.8 44.15M34.55 23Q9.6 48.35 5.6 79.85m52.25 82.95.15.45.1.3 1.6 4 5.7 1.85m-5.7-1.85 1.1 2.5"/><path stroke-width=".5" stroke-opacity=".502" stroke-linejoin="round" stroke-linecap="round" stroke="#000" fill="none" d="M186.7 31.6q.55 3-7.85 8.4 12.85-7.1 24-3.75 1.45 3.4-5.75 6.75 12.6 5.35 14.5 14.25-.15.95-.8 1.35-1.8 1.1-7.4-2.65 3.85 6.4 3.95 13.55l-.3 1.3q-1.15 3.75-3.75.8.05 4.8-2.4 8.5 18.1-17.25 27.2-17.35 4 2.65-2.25 21.75-2.3 7-6 16.25l-.8 1.7q-5 42.8-9.25 51.9l-.5.95q-3.4-11.3.1-34.6-12.55 32.5-20.35 40.85-.2-6.2 2.6-19.3-17 35.05-21.85 35.55l-.35-.4q-2.5-3.35.25-11.85-9.05 15.4-15.3 21.55l-.3 2.9q.5-.15 0 .05V190l-1.5.55-3.3 6.3-2.15-6.3q-1.55-1.4-2.65-4.75v-3.95q-9.35 13.25-12.35 13.25-1.3-7.8 5-22.55l.3-.7q-6.45 2.3-12.9.7-4.05-.3-7.85-2.05M5.6 79.85q-6.1-17.9-3.1-35.8 5 5 10 3.5-5.5-.2-7.5-6.5Q10.85 25.9 34.55 23q.4 6.2-.8 13.75-1.3 1.75-2.6 1.75l2.1.75Q32.6 47.4 28.5 55.5 21.05 70.05 8.4 80.25q-3.35 32.6 23.15 63.8 8.8 9.5 18.95 15.4m-15-69.8-4.95 1.15q2.85-4.65 7.1-9.7m1.2-5.75q-10.5 5.6-20.8 10.4l.7-1.15q5.3-9.05 19.8-20.45m33.85-22.7q12.95-7.8 28.9-16.3.9-1.35 2.55-2.65 19.2-5.65 38.35-7.65-.9-3.15-6.85-6.35 7.45 1.05 9.9 5.1 5.65-5.1 4.6-12.1 3.7 6.65 2.75 13.25-2.65 12.05-10.75 25-2.3 7.8 1.2 14.65l2.25-.65 1.25-.2q7.7-8.15 17.75-12.3 10.05-8.75 21.8-10.75.45.5.6 1.1M98.65 52.1l9.35-7.75q-3.2.9-6.15-1.25m-1.8-14.35 1.1.75q1.85.75 5.7.5 11-4.35 22-6M100.2 40.05l-.15 1.45 1.8 1.6m6.15 1.25 1.85-.85q10.25-8.8 21.5-14.75M106.85 30q-2.25 1.9-3.75 3.9l-1.05 1.55Q87.1 46.2 72.6 55.5m27.6-15.45q.45-2.35 1.85-4.6m7.8 8.05q-.75 2.3-.05 4.6l1 2.2v.05l.8 1.15q2.65 1.45 5.3.8l1.95-.8q8.4-10.3 17.75-17.75m-35.3-8.6q-1.3 1.8-1.25 3.6m42.15-13.9.15.9m11.25 37.6q2.2 1.75 2.95 7.9.9 5.6 4.5 10.25l1.05.3h.05l8.2 2.35.05-.85-.3-1.55q-.45-4.6 1.05-8.35 1.3-3.25 4-5.8 1.9-1.85 4.45-3.35l4.05-.35.6.1q2.5.3 3.85 2m15.1 14.1-.35-2.35m-56.3-14.2 4.25-.8q1.6-.3 2.8.6m-32.85 3.5 1.35.9 4.2.15q2-.3 3.8-1.4l5-6.25m-1.65 8.05-.8-.4-2.55-1.4m.6 3.35 2.75-1.55q4.4-2.3 9.6-3.9m-13 29.85-6 5 5-7 1 2m-14.2-9.55q1.8-2.95 4.05-5.65 4.4-5.4 10.8-9.2m-11.85-8.35q-.2 3.55 1.9 5.35M75.65 97.8l-.35 1q10.1-5.7 23.15-16.15Q111 72.5 126.3 57.9M98.45 82.65q-5.8 8.55-7.65 17.1 7.95-3.2 19.25-14.65l1.3-1.4q-1.15 3-1.95 6.15m6.45-15.15q-2.7 4.25-4.5 9m1.95 27.35q6.6-3.6 13.5-5.45 4.3-1.15 8.75-1.6l2.8-.2 15.75-1.3 3.2-.25q18.2-4.1 30.3-14.75 4.55-.65 4.75 1.2l2.5-2.55q2.3-2.6-4.55-5.1-6.9-2.45-11.4-.5l2.2.95m-66.55-.75 2 5.75-1-7.5-1 1.75m-6 17.85-.5-2.05q.5-3.45 1.35-6.7m.65-4.75q-4.9 8.45-5.25 14.15l3.75-.65q2.05 8.6 4.75 12.45m-19-39.7q11.25-8.8 22.6-19.05m-12.75 88.2 1.85-3.35q-3.1-2.9-7.05-2.45l-.15 1.6m-5.65-29.5-1-1.5-4.8-5.15v6l-1.3.6q-1.05 2-1.25 4.3l.05 2.65.2 1.3 1.1.8 2.4 1.05 3.5-.1m-.45-8.9 1.55-1.05m5.8 27.9q-1.4-8.05 1.1-14.15.2-6.9-3-13.8-2.45-1.35-4.9-1.45m-4.8.85-.3 1.15 3 1.6 1.55-1.05m-4.05 14.75.95.4q2.7-3.1.05-6.15m-1 5.75q-4-1.4-8.6 1.6-2.6 6.35 3.6 11.35v6.5q-.5 2.45-1.45 4.15m-3.8 3.35q-.2 3.05 2.1 4.9l2.55-1.75 2.75 3.75q3.2.1 5.85-2.65l2.35-6.65.9-2.6m41.3-25.05q-.85 2.05-1.05 4.25h-3.25l2 2.05q-13.7.2-20.5 3.5-3.8 3.9-6.3 7.85m-3.7 12.15-.25-3q.65-2.9 2.1-5.8M88.5 123q1.85.9 3.55 2.8m.85 21.35q5.95-1.5 9.4 2.15.2 2.3.65 4.4 1.05 5.1 3.3 8.55l1.8 2.3.45.4 2.25 1.9q1.4 1.1 2.85 2l3.1 1.65m49.2-63.1q-2.25-.85-5.3-1.15l-.6-.05q-3.5-.4-6.7.1m3.8-3.05 3 .75 16.05-5.35 10.05-3.35 2-2.2 4.15-4.4m-38.25 13.8 3 .75 2.9 2.95m-11.3 9q-4.75-.1-8.1 2.2 3.4-.25 6.1 2.15m3.1-12.5q-3.75 1.15-7.15 3.55l-1 .7-.45.35q-4.4 3.55-6.1 7.85-2.55 2.4-5.05-.2-1.55-2.4 1.5-4.8-3.35.8-6.75-2-.95-4.4 2-6.9m11.55-1.8q-3.45 4.85 2.95 5.2l3-2.5m-3 2.5.35 2.3m-10.1 3.2 9.75-5.5m-2.9 35.2v7.35q-1.3 1.75-1.9 3.5m5-3.2.95-.6q2.9-.6 5.1.9l1.1-1.9.55-4.65m-.4-.05-3.5 1m3.95-1.35-.05.4m-10.15-.6 3.5 1.05M203.2 70.1l.1 1.5m-19.65-17.7.3.35.7.8q5.3 6.45 3.45 13.7l-2.4 4.95q-3.75 6.05-8.65 5.9l1.85.95m-8.55-6.4.5.1-.45-.95m6.65 6.3-1.85-1.1q-3.15-2.05-4.35-4.25m24 11.9 6.05-6.05M182.85 99l3.35-3.7m8.65 12.7q2.7 0 4.3-1.35l15.2-24.9m-30 24.25q2.6.75 6.75-1.5l18.25-23.75m-26.5 22.3q.4 1.55 1.5 2.95m6.75-1.5q-.3 1 1 2m2.75 1.5-2.75-1.5m-23.25 2.5q-1.25-.95-2.95-1.6.95.2 1.95 0 3.85-.95 8.3-8.75m34.3 8.65q2.2.25 4.45-1.4l6.95-22.15m-7.65 24.1-4.8 12.85m-6.05-12.2q2.85.45 4.75-2L218.85 83m-10.75 23.5q1.15.65 2.35.8m8.6-4.85q-1.9 3.35-4.15 3.45l-.7 1.95m-15.05-1.2q2.05 2.4 4.2 1.85m4.75-2q-9.3 20.95-16.45 35.75M182.85 99q-.55 2.15 0 4.05m-34.2 47.2q8.75-15 22-34.1L182.85 99m20.55-43.05-1.8-2.7m-54.05 98.9-1.2 2.1q-3.8 6.75-6.6 12.6l-2.2 4.8-.1.2m2.3-5q-2.35-1.45-3.95-8.3 0-1.75.7-3.5m10.65 35.5q1.7 1.45 3.9.6l1.55-.6m-3.5.25q2.35-.85 5.3-3.7m-2.2-16.75q-4.65 12.45-3.1 20.45m-4.6-8.95 7.7-11.5q14.5-22.6 38.9-65.85m-21.4 61.05q12.2-20.95 29.45-58.9M41.25 79.3l-1.35 5-.85 4.3q9.85-3.25 21.55-9.85M72.55 29Q60.9 40.3 52.8 53.8q-5.4 9-9.25 18.95l-1.1 3.05-1.2 3.5M52.8 98.8q2.1-6.7 8-14.3m-8 14.3 5.1-2.8m5.2-3.05 3.55-2.2m-8.2 72.65q7.7 3.3 16.1 4.65 15.85 1.9 31.7-5.8M34.55 23Q14.8 45.3 9 75.55l-.6 4.7m63.3 32.25q-.2-2.65.85-5l.8-.25-.65-4.2 4.45 3.75q1.95.05 3.9.7l3.75 3.55m-11.45-3.8-.2 1.55 2.9 1.85 1.2-1.25 1.15-1.25-1.25-1.35m1.8 17.4q.9-3-1.1-6-2.75.05-5.3-1.95-.75-1.95-.85-3.75m5.6 37.05q2.4-.85 3.8-3.35M39.05 88.6q-1.85 10.6-1 23.95m46.65 43.9-5.65 1.85.35-3.85m-21.4 8.8.45.15m-4.3-1.95-3.65-2m27.35-41.25q2.05-.05 4.2-1.2m.75-32.9q-5.1 7.95-7.15 13.7"/><path stroke-width=".05" stroke-opacity=".502" stroke-linejoin="round" stroke-linecap="round" stroke="#000" fill="none" d="m210.45 107.3.4-1.05"/></g><g id="f"><path fill-rule="evenodd" fill="#fff" d="m279.05 17.45 10.65 10.8 23.95 3.5h.05l27.35 11.35 7.15 10.65V77.9l-3.5 22.35 3.5 12.9v17.2l-3 10.9 3 7.45v26.6l2 10.95-2 12.45v.05l-6.7 4.55-104.35 28.15-15.25-3.1-3.9-3.3-.05-.05-3.25-2.75-12.65 2-26.8-5.55-6.65-16.45v15.1l-25.25-5.2-13.15-4.9-26.05-3.2-12.45-2.55v-26.9l2.5-10.35-2.5-16.5v-37.5l3.5-10-3.5-24.5v-38l3.5-3.5V27.7l6.15-2.55 30.7-6.25h.05l9.1 6.35 6.25-7.4 6.35-3.4 20.4-4.2h18l13.8-6.5L224.4 0l8.55 9.75L240 1.3l39.05 16.15m-28.9 40.35q-17.15 6 6.2 12.6-15.95 7.8-2.7 20.35-22.45 7.05-.75 18.05-16.95-.15-.4 8.7-23.35 3.65 6.2 13.7-27.75 9.5 0 9.3-30.35 31.8 2.7 22.55-32.2 28.2-5.05 18.55-13.3 29.5 5.8 14.65-11.95 30.55 8.55 1.05-7.65 33.4 5.4 6.85.7 24.65 13.95-6.6 1 23.8 6.6 3.4 1.2 22.5 5.45-5.05.5 16.2 2.55 16.45 2 .25 5.55-15.45 2.3 25.8 3.5-13.55 4.95 41 7.75 1.95 19.35 37.65-.8-24.4 27 55.4 14.75 9 14.8 8.95-5.45-15.1 20.7 7.45 4.65-7.7 13.3-4.35-3.85-12.4 16.1-.65 2.7-12.05 12.95-2.95-2.35-17.9 14.8 5.2 3.5-9.4 14.2-8.45-4.25-11.35 16.05-14.6 2.3-15 12.5-15.7-3.45-5.85 10.5-31.05-12.4 11.95 17.2-55.15-2.7-18.9.7-31.75-7.35-9.7-9.6-25.35-7.75 3.2-7.75-26.7-17.1-8.8-1.85-31.3-6.55-.25-25.1-40.9-9.7 11.75Q240.9.8 254.25 40.25q-23.45-17.1 5.6 16.65-23.6-16.4-9.7.9M105.7 55.95l-3.35-.05q-12.15.45 4.5 13.8l1.8 1.55v.15q-23.5.7-7 10.15l1.55.85q-11.3 9.85-3.35 10.55.55.65 2 .9l.2.05q.75.6 2.4.75-15.6 11.3.3 15.45-18.15 9.9 3.7 12.55-23.25 6-5.25 12.05-21.75 13.35 6.3 8.35-15.45 12.35-15.8 15.45-.3 2.35 8.45-.8-11.5 31.45 2.45 15.85l1.9-1.95q4.55-4.3 13.65-16.95-24.35 54.7.8 20.4h.05l.9 8.2q2.45 18.25 6 7.2l1.2-2.45.1-.25q1.15-1.85 2.5-7.7 1.3 26.4 3.55 14.45.4-.2.95-2.6v-.1l.6-1.55q7.4 24.15 9.6 7.05l.55-2.75.05-.3.6-3.8q5.3 24.95 6.85 3.55v-.2q7.55 21.35 8.95-2.6 17.3 32.25 18.75 9.85l.75-.45.8 1.3q15.7 24.6 5.85-8.6 27.65 32.3 11.55 0l-.05.05.05-.05q25.8 17.35 7.8-14.15 26.15 9.35 11.55-4.5l-1.95-1.95v-.05l-.55-.5q-4-4.25-13.6-11.65 41.3 11.75 1.45-23.2 36.25 3.5 2.35-8.6l-.05.15-.1-.05-1.45-.5-.75-.3v-.1q39.9-6.55 8.35-13.1 22.35-6.95-.5-8.9 29.25-8.45-1.05-18.3 15.7-9.75.95-18.5 7.45-1.55 8.4-3.55l.25-.15q1.7-.9 1.95-1.85 8.1-3.45-6.05-8.6l.3-.8.3-.3 1.95-2.15q10.85-10.2-10.8-1.5 9.35-7.75 10.85-10.5l.25-.25 2-2.7q9.5-9.75-11.15-.3 18-38.3-15.45 10.9 17.2-42.55-3-23.65-4.25 3.95-10.05 10.55-5.65-27.95-8.2-7.45l-.5 2.95v.05l-.05.3-.5 3.15q-11.75-17.45-21.6 4.7l-.35-3.65-.05-.25-.35-2.8q-.5-14.5-10.85 5.1-10.9-23.3-9.95 8.9-26.95-39.1-3.65 18.8-31-46.3-16.75-13.6-21.55-11.9-4.8 5.4v.1m136.5 99.3-6.8-16.45-6.7 12.95 6.9-2.5 6.6 6m-8.4-101h-.15v.65l-5.95 30.35 6.85 9 2.65-21-3.4-17.55v-1.45" transform="translate(-91.7)"/><path fill-rule="evenodd" fill="#fff" d="m132.1 18.9 15.35-1.05-6.25 7.4-9.1-6.35M224.4 0 240 1.3l-7.05 8.45L224.4 0m60 22.85 25.35 7.3 3.9 1.6-23.95-3.5-5.3-5.4" transform="translate(-91.7)"/><path fill-rule="evenodd" fill="#d2e3e3" d="m234.6 59.8 2.6 13.45-2.65 21-6.85-9 5.8-29.6.3.05.05.55.75 3.55" transform="translate(-91.7)"/><path fill-rule="evenodd" fill="#c6d6d6" d="m217.9 225.3-15.85-1.05 12.65-2 3.25 2.75-.05.3m-44.2-10.5-5.05 2.55h-.05v-15.1l5.1 12.55m61.7-76 6.8 16.45-6.6-5.95v-.05l-6.9 2.5 6.7-12.95" transform="translate(-91.7)"/><path fill-rule="evenodd" fill="#e1ecf0" d="m174.6 29.75.5-2.95q2.55-20.5 8.2 7.45 5.8-6.6 10.05-10.55 20.2-18.9 3 23.65 33.45-49.2 15.45-10.9 20.65-9.45 11.15.3l-2 2.7-.1-.05q1.5-3.55-12.9 3.05 16.1-34.3-12.45 7.4l-1.8 2.65 1.95-5.05q11.4-29.75-1.55-19.55-4.65 3.65-12.5 12.5-4.6-22.85-7-10.6v-.05m35.25 20.45q21.65-8.7 10.8 1.5l-1.95 2.15h-.05q4.7-6.2-17.7 3.45l3.95-3.1 1.2-.95 3.75-3.05m8.25 4.75q14.15 5.15 6.05 8.6-.25.95-1.95 1.85l-.15-.15q.6-2.6-9.05-6l2.15-1.8.65-.6 2-2 .3.1m-4.55 14.15q14.75 8.75-.95 18.5 30.3 9.85 1.05 18.3 22.85 1.95.5 8.9 31.55 6.55-8.35 13.1v.1l-1.45-.5-.55-.2v.1l-1.4-.5q36.85-6.05 7.7-12.05 20.65-6.45-.45-8.25l1.65-.5 1.5-.45h.05q22.05-7.4-4.2-15.95l1.6-1 .05.1h.1v-.05l-.1-.1q13.8-9.65-5-18.3l3.7-.5 1.1-.15 3.45-.6m-5.45 59.75.05-.15q33.9 12.1-2.35 8.6 39.85 34.95-1.45 23.2l-2.25-1.75-.85-.65-2.25-1.7q41.2 12.3 3.4-20.8 31.45 3.05 5.7-6.65v-.1m10.4 43.8v.05l1.95 1.95q14.6 13.85-11.55 4.5 18 31.5-7.8 14.15l-.05.05.05-.05q16.1 32.3-11.55 0 9.85 33.2-5.85 8.6l-.8-1.3-.65-1.05-.1 1.5q-1.45 22.4-18.75-9.85-1.4 23.95-8.95 2.6v.2q-1.55 21.4-6.85-3.55l.3-3.2.1-1.25.2-3.5q4.3 21.25 6.1 11.55l.15-.05v-.05l.3-3.35v-.3l.25-2.5q6.55 18.55 8.05 0h.25-.25l.1-.85.1-1.55 1.85 3.35q11.85 21.05 14.7 10.9.65-2.4.85-6.55 6.4 10.4 8.8 11.7l.2.1h.1q2.6.85-.65-11.45l.25-.1-1.05-3.55-.15.05-.75-2.55q22.6 26.45 13.55 6.1l.1-.05-1.75-3.55v.05l-1.25-2.55q23.85 16.05 7.25-13.05 21.45 7.7 13.2-1.55h-.05l.05-.05m-71.55 21.9-.55 2.75q-2.2 17.1-9.6-7.05l.65-3.15.15-1.15.45-3.45q6.4 21.8 8.85 12.05h.05m-10.75-2.65q-.55 2.4-.95 2.6-2.25 11.95-3.55-14.45l.9-4.3.3-1.5.8-4.8q.9 23.05 2.4 22.4l.1.05m-7.1-3.9-1.2 2.45q-3.55 11.05-6-7.2l-.9-8.2v-.1h-.2l.15.1q-25.15 34.3-.8-20.4l2.1-3 .65-.9 2.1-3.05q-23.25 51.45-4.35 27.2l.15.05 1.45-1.9.5-.75-.05-.05 1.35-1.85q.5 5.5 1.1 9.35 1.65 11.15 3.9 8.2l.05.05m-22.6-16.4-1.9 1.95q-13.95 15.6-2.45-15.85-8.75 3.15-8.45.8.35-3.1 15.8-15.45-28.05 5-6.3-8.35-18-6.05 5.25-12.05-21.85-2.65-3.7-12.55-15.9-4.15-.3-15.45h2.9l1-.1 3.6-.5q-19.1 12.2-2.9 16.45-16.75 9.15 3.4 11.6-21.45 5.55-4.85 11.1-20.05 12.35 5.8 7.75-25.25 20.2-6.75 13.5-9.5 26.05-.15 17.15m-4.65-77.75q-1.45-.25-2-.9-7.95-.7 3.35-10.55l-1.55-.85q-16.5-9.45 7-10.15h.2l1.75 1.45.55.45 1.8 1.4q-20.05.55-9.25 7.85l.1.05h-.15l1.8 1.05.3.15 1.85 1.05q-7.65 6.7-5.7 8.85l-.05.15m5-24.15q-16.65-13.35-4.5-13.8l3.35.05h.1l1.45 1.55.4.45.55.6 1.85 1.9q-14.05-1-3.25 9.15l.05.1m-1.15-13.85q-16.75-17.3 4.8-5.4-14.25-32.7 16.75 13.6-23.3-57.9 3.65-18.8-.95-32.2 9.95-8.9 10.35-19.6 10.85-5.1l.35 2.8q-1.65-6.85-9.65 8.3-10.05-21.5-9.15 8.2-24.95-36.1-3.4 17.4l-1.15-1.7Q101.5 25.8 114.4 55.4q-16.6-9.2-8.6.4l-.05.05h-.05m46.75-17.9q9.85-22.15 21.6-4.7l-.3 2.9-.1.9-.25 2.85q-11.7-17.8-21.3 6.3l.25-3.8.05-1.1.05-3.35m-50.6 43.55-.15-.1-.05.15.2-.05" transform="translate(-91.7)"/><path fill-rule="evenodd" fill="#d0dcde" d="M194.1 27.9q12.95-10.2 1.55 19.55.4-8-1.55-19.55m-84.05 32.55-1.85-1.9 2.2 1.25-.35.65m79.4 144.35.3.1h-.1l-.2-.1" transform="translate(-91.7)"/><path fill-rule="evenodd" fill="url(#N)" d="m237.15 231.45-15.25-3.1-3.2-2.7-.7-.6-.05-.05-3.25-2.75-12.65 2-26.8-5.55-1.55-3.9-5.1-12.55v15.1l-25.25-5.2-13.15-4.9-26.05-3.2-12.45-2.55v-26.9l2.5-10.35-2.5-16.5v-37.5l3.5-10-3.5-24.5v-38l3.5-3.5V27.7l6.15-2.55 30.7-6.25h.05l9.1 6.35 6.25-7.4 6.35-3.4 20.4-4.2h18l13.8-6.5L224.4 0l8.55 9.75.7 44.5v.65l-.15.75-5.8 29.6 6.85 9-3.25 28.55 4.1 16-6.7 12.95 6.9-2.5v.05l-2.8 47.5 4.35 34.65m-16.2-192 2-2.7q9.5-9.75-11.15-.3 18-38.3-15.45 10.9 17.2-42.55-3-23.65-4.25 3.95-10.05 10.55-5.65-27.95-8.2-7.45l-.5 2.95v.05l-.05.3-.5 3.15q-11.75-17.45-21.6 4.7l-.35-3.65-.05-.25-.35-2.8q-.5-14.5-10.85 5.1-10.9-23.3-9.95 8.9-26.95-39.1-3.65 18.8-31-46.3-16.75-13.6-21.55-11.9-4.8 5.4v.1l-3.35-.05q-12.15.45 4.5 13.8l1.8 1.55v.15q-23.5.7-7 10.15l1.55.85q-11.3 9.85-3.35 10.55.55.65 2 .9l.2.05q.75.6 2.4.75-15.6 11.3.3 15.45-18.15 9.9 3.7 12.55-23.25 6-5.25 12.05-21.75 13.35 6.3 8.35-15.45 12.35-15.8 15.45-.3 2.35 8.45-.8-11.5 31.45 2.45 15.85l1.9-1.95q4.55-4.3 13.65-16.95-24.35 54.7.8 20.4h.05l.9 8.2q2.45 18.25 6 7.2l1.2-2.45.1-.25q1.15-1.85 2.5-7.7 1.3 26.4 3.55 14.45.4-.2.95-2.6v-.1l.6-1.55q7.4 24.15 9.6 7.05l.55-2.75.05-.3.6-3.8q5.3 24.95 6.85 3.55v-.2q7.55 21.35 8.95-2.6 17.3 32.25 18.75 9.85l.75-.45.8 1.3q15.7 24.6 5.85-8.6 27.65 32.3 11.55 0l-.05.05.05-.05q25.8 17.35 7.8-14.15 26.15 9.35 11.55-4.5l-1.95-1.95v-.05l-.55-.5q-4-4.25-13.6-11.65 41.3 11.75 1.45-23.2 36.25 3.5 2.35-8.6l-.05.15-.1-.05-1.45-.5-.75-.3v-.1q39.9-6.55 8.35-13.1 22.35-6.95-.5-8.9 29.25-8.45-1.05-18.3 15.7-9.75.95-18.5 7.45-1.55 8.4-3.55l.25-.15q1.7-.9 1.95-1.85 8.1-3.45-6.05-8.6l.3-.8.3-.3 1.95-2.15q10.85-10.2-10.8-1.5 9.35-7.75 10.85-10.5l.25-.25" transform="translate(-91.7)"/><path fill-rule="evenodd" fill="url(#O)" d="M313.65 31.75h.05l27.35 11.35 7.15 10.65V77.9l-3.5 22.35 3.5 12.9v17.2l-3 10.9 3 7.45v26.6l2 10.95-2 12.45v.05l-6.7 4.55-104.35 28.15-4.35-34.65 2.8-47.5 6.6 5.95-6.8-16.45-4.1-16 3.25-28.55 2.65-21-2.6-13.45-.8-4.1v-1.45h-.15l-.7-44.5L240 1.3l39.05 16.15 5.35 5.4 5.3 5.4 23.95 3.5M281.9 40.9q-1.85-31.3-6.55-.25-25.1-40.9-9.7 11.75Q240.9.8 254.25 40.25q-23.45-17.1 5.6 16.65-23.6-16.4-9.7.9-17.15 6 6.2 12.6-15.95 7.8-2.7 20.35-22.45 7.05-.75 18.05-16.95-.15-.4 8.7-23.35 3.65 6.2 13.7-27.75 9.5 0 9.3-30.35 31.8 2.7 22.55-32.2 28.2-5.05 18.55-13.3 29.5 5.8 14.65-11.95 30.55 8.55 1.05-7.65 33.4 5.4 6.85.7 24.65 13.95-6.6 1 23.8 6.6 3.4 1.2 22.5 5.45-5.05.5 16.2 2.55 16.45 2 .25 5.55-15.45 2.3 25.8 3.5-13.55 4.95 41 7.75 1.95 19.35 37.65-.8-24.4 27 55.4 14.75 9 14.8 8.95-5.45-15.1 20.7 7.45 4.65-7.7 13.3-4.35-3.85-12.4 16.1-.65 2.7-12.05 12.95-2.95-2.35-17.9 14.8 5.2 3.5-9.4 14.2-8.45-4.25-11.35 16.05-14.6 2.3-15 12.5-15.7-3.45-5.85 10.5-31.05-12.4 11.95 17.2-55.15-2.7-18.9.7-31.75-7.35-9.7-9.6-25.35-7.75 3.2-7.75-26.7-17.1-8.8" transform="translate(-91.7)"/><path fill-rule="evenodd" fill="url(#P)" d="m218.4 54.15-.3.8-.3-.1.6-.7M182.9 200.6l-.75.45.1-1.5.65 1.05M121 175.05h-.05l-.15-.1h.2v.1M108.65 71.4v-.15l.2.15h-.2m-2.95-15.45v-.1l.1.1h-.1m127.95-1.7h.15l-.15.65v-.65M101.85 81.5l-.2.05.05-.15.15.1" transform="translate(-91.7)"/><path stroke-width=".05" stroke-opacity=".243" stroke-linejoin="round" stroke-linecap="round" stroke="#000" fill="none" d="M221.95 31.75h.05l27.35 11.35 7.15 10.65V77.9l-3.5 22.35 3.5 12.9v17.2l-3 10.9 3 7.45v26.6l2 10.95-2 12.45v.05l-6.7 4.55-104.35 28.15-15.25-3.1-3.2-2.7-.4-.35h-.4l-15.85-1.05-26.8-5.55-1.55-3.9-5.05 2.55h-.05l-25.25-5.2-13.15-4.9-26.05-3.2L0 201.5v-26.9l2.5-10.35-2.5-16.5v-37.5l3.5-10L0 75.75v-38l3.5-3.5V27.7l6.15-2.55 30.7-6.25h.05l15.35-1.05 6.35-3.4 20.4-4.2h18l13.8-6.5L132.7 0l15.6 1.3 39.05 16.15 5.35 5.4 25.35 7.3 3.9 1.6M126.25 225l.05.05.3.25"/><path fill-rule="evenodd" fill-opacity=".522" fill="#fff" d="m307.25 45.1.4-.95.35-.85.85-2 .95-1.8.75-1.05q1.5-2 2.4.1l.2.5.55 2.75.15 1.15.15 1.9v.05-.05l.15 5.15-.05 6.2 3.45-6.05.75-1.3.75-1.2 2.05-3 1.45-1.8q2.15-2.25 2.25.55.05 1.7-.7 5.35l-.2.9-2.7 6.65q-9.85 25.85-10.35 52.5-5 21 0 42 17.95 65.6-10.05 3-7.2-25.25 2.9-46.5 8.25-27.3 2.95-55.8v-.05q-.4-3.9.6-6.05v-.3m-12.4 161.65q-3.75 9.85-4.7-7.25l-.1-1.95-.6 1.4q-12.65 29.3-13.35 5.2-13.05 26.55-5.4-6.85l-1.65 2.35q1.5-3.15 2.7-7.7 5.2-20.45 3.05-69.15 3.7-20.05 19.1 78.15l.95 5.8m-187.2-148.8-.4-.45-1.45-1.7q-8-9.6 8.6-.4-12.9-29.6 14.3 10.85l1.15 1.7q-21.55-53.5 3.4-17.4-.9-29.7 9.15-8.2 8-15.15 9.65-8.3l.05.25.35 3.65-.05 3.35-.05 1.1-.25 3.8q9.6-24.1 21.3-6.3l.25-2.85.1-.9.3-2.9.5-3.15.05-.3q2.4-12.25 7 10.6 7.85-8.85 12.5-12.5 1.95 11.55 1.55 19.55l-1.95 5.05 1.8-2.65q-1.5 14.3-11.6 15.55-36.5 6.25-36.4 26.3Q137 142 146 165.3q7.3 12.3 17.15 21.65l-.1.85q-1.5 18.55-8.05 0l-.25 2.5v.3l-.1.7v.15l-.35 2.55v.05q-1.8 9.7-6.1-11.55l-.2 3.5-.1 1.25-.3 3.2-.6 3.8-.1.3q-2.45 9.75-8.85-12.05l-.45 3.45-.15 1.15-.65 3.15-.6 1.55-.1.05q-1.5.65-2.4-22.4l-.8 4.8-.3 1.5-.9 4.3q-1.35 5.85-2.5 7.7l-.15.2q-2.25 2.95-3.9-8.2 3.75-7.35 7.6-29.95 6.65-23.35 3-57-7.2-22.45-25.35-33l-2.2-1.25-.55-.6m66.7 65.5q2.85 108.7-16.2 7.25 2.95-37.1 25.5-51.5-9.6 32.1-9.3 44.25" transform="translate(-91.7)"/><path fill-rule="evenodd" fill-opacity=".753" fill="#fff" d="M307.25 45.4h-.1l.1-.3v.3" transform="translate(-91.7)"/><path stroke-width=".05" stroke-opacity=".243" stroke-linejoin="round" stroke-linecap="round" stroke="#000" fill="none" d="M215.55 45.4v-.3"/><path fill-rule="evenodd" fill="url(#Q)" d="M281.65 40.2q9.35-17.9 17.1 8.8-1.85-28.55 7.75-3.2 8.05-22.05 7.35 9.7 19.9-36.25 2.7 18.9 22.9-43 12.4-11.95 15.95-9.85 3.45 5.85 13.75.4-2.3 15 18.45 2.9 4.25 11.35 11.3 14.6-3.5 9.4 15.3 14.95 2.35 17.9 13.4 11.4-2.7 12.05 17.15 8.05 3.85 12.4 16.05 15.15-4.65 7.7 20.25 24.05 5.45 15.1 12.25 46.4-14.75-9 20.15 62.05.8 24.4-2.8 39.05-7.75-1.95-1.2 39.35-3.5 13.55-3.55 15.7-5.55 15.45-2.05-.25-2.55-16.45-4.25 27.55-5.45 5.05-5.6 20.4-6.6-3.4-13.25 31.25-13.95 6.6-13.05 26.55-5.4-6.85-20.5 29.5-8.55-1.05-19.1 14.85-5.8-14.65-27.15 9.65 5.05-18.55-33.05 9.25-2.7-22.55-27.75.2 0-9.3-29.55-10.05-6.2-13.7-16.55-8.85.4-8.7-21.7-11 .75-18.05-13.25-12.55 2.7-20.35-23.35-6.6-6.2-12.6-13.9-17.3 9.7-.9-29.05-33.75-5.6-16.65Q240.65.1 265.4 51.7 250-.95 275.1 39.95q4.7-31.05 6.55.25" transform="translate(-91.7)"/><path fill-rule="evenodd" fill="url(#R)" d="m220.95 39.45-.25.25q-1.5 2.75-10.85 10.5l-3.75 3.05-1.2.95-3.95 3.1q22.35-9.6 17.7-3.5v.05l-2.85 3-.65.6-2.15 1.8q9.65 3.4 9.05 6l.1.2-.2.1q-.95 2-8.4 3.55l-3.45.6-1.1.15-3.7.5q18.8 8.65 5 18.3l-.05.05-1.6 1q26.25 8.55 4.2 15.95h-.05l-1.5.45-1.65.5q21.1 1.8.45 8.25 29.15 6-7.7 12.05l1.4.5v-.1l.55.2 1.45.5.75.3 1.45.5.1.15q25.75 9.7-5.7 6.65 37.8 33.1-3.4 20.8l2.25 1.7.85.65 2.25 1.75q9.6 7.4 13.6 11.65l.55.5-.05.05h.05q8.25 9.25-13.2 1.55 16.6 29.1-7.25 13.05l1.25 2.55v-.05l1.75 3.55-.1.05q9.05 20.35-13.55-6.1l.75 2.55.15-.05 1.05 3.55-.25.1q3.25 12.3.65 11.45-2.7-1.4-9.1-11.8-.2 4.15-.85 6.55-2.85 10.15-14.7-10.9l-1.85-3.35-.1 1.55-.1.85q-1.5 18.55-8.05 0l-.25 2.5v.3l-.3 3.35v.05l-.15.05q-1.8 9.7-6.1-11.55l-.2 3.5-.1 1.25-.3 3.2-.6 3.8-.05.3h-.05q-2.45 9.75-8.85-12.05l-.45 3.45-.15 1.15-.65 3.15-.6 1.55v.1l-.1-.05q-1.5.65-2.4-22.4l-.8 4.8-.3 1.5-.9 4.3q-1.35 5.85-2.5 7.7l-.1.25-.05-.05q-2.25 2.95-3.9-8.2-.6-3.85-1.1-9.35l-1.35 1.85.05.05-.5.75-1.45 1.9-.15-.05q-18.9 24.25 4.35-27.2l-2.1 3.05-.65.9-2.1 3q-9.1 12.65-13.65 16.95-9.35 8.9.15-17.15-18.5 6.7 6.75-13.5-25.85 4.6-5.8-7.75-16.6-5.55 4.85-11.1-20.15-2.45-3.4-11.6-16.2-4.25 2.9-16.45l-3.6.5-1 .1h-2.9q-1.65-.15-2.4-.75l-.2-.05.05-.15q-1.95-2.15 5.7-8.85l-1.85-1.05-.3-.15-1.8-1.05h.15l-.1-.05q-10.8-7.3 9.25-7.85l-1.8-1.4-.55-.45-1.95-1.6-1.8-1.55-.05-.1q-10.8-10.15 3.25-9.15l.35-.65-2.2-1.25-.55-.6-.4-.45-1.5-1.65.05-.05q-8-9.6 8.6-.4-12.9-29.6 14.3 10.85l1.15 1.7q-21.55-53.5 3.4-17.4-.9-29.7 9.15-8.2 8-15.15 9.65-8.3l.05.25.35 3.65-.05 3.35-.05 1.1-.25 3.8q9.6-24.1 21.3-6.3l.25-2.85.1-.9.3-2.9.5-3.15.05-.3v-.05.05q2.4-12.25 7 10.6 7.85-8.85 12.5-12.5 1.95 11.55 1.55 19.55l-1.95 5.05 1.8-2.65q28.55-41.7 12.45-7.4 14.4-6.6 12.9-3.05l.1.05" transform="translate(-91.7)"/></g><g id="W" stroke-opacity="0" stroke-linejoin="round" stroke-linecap="round" stroke="#f0f" fill="none"><path d="M187.95-293.5v380h-380v-380h380M92.95.6H-97" transform="translate(192.55 294)"/><path d="m187.95-293.5-190 190 190 190m-380-380 190 190L-192 86.5" transform="translate(192.55 294)"/></g><use xlink:href="#S" width="242.85" height="193.15" id="c"/><use xlink:href="#T" width="231.15" height="198.35" id="e"/><use xlink:href="#U" width="102.95" height="45" id="X"/><radialGradient spreadMethod="pad" r="819.2" id="a" gradientUnits="userSpaceOnUse" gradientTransform="translate(125.2 100.95) scale(.1712)" cy="0" cx="0"><stop stop-color="#80afb5" offset="0"/><stop stop-color="#d4e9ed" offset="1"/></radialGradient></defs><path fill="none" d="M-1-1h284v173H-1z"/><use x="-221.047" y="292.274" xlink:href="#V" width="434.45" transform="matrix(-.6381 0 0 .6381 136.85 -184.226)" height="256.7"/><use x="141.05" y="186.5" xlink:href="#W" width="381" transform="translate(-192.55 -294)" height="381"/><use x="-28.22" y="-64.699" xlink:href="#X" width="102.95" transform="matrix(1.8072 0 0 1.6538 91.05 142.55)" height="45"/></svg>