<svg width="65" height="61" xmlns="http://www.w3.org/2000/svg" xmlns:xlink="http://www.w3.org/1999/xlink"><defs><g id="c" stroke-opacity="0" stroke-linejoin="round" stroke-linecap="round" stroke="#f0f" fill="none"><path d="M187.95-293.5v380h-380v-380h380M92.95.6H-97" transform="translate(192.55 294)"/><path d="m187.95-293.5-190 190 190 190m-380-380 190 190L-192 86.5" transform="translate(192.55 294)"/></g><g id="d"><path fill-rule="evenodd" fill="#578fd2" d="m80.75 25.25.5 1.8q2 7.55.4 14.9-.9 4.4-3.1 8.8L76.9 53.6q-39.5 5.05-47.15-11.55-2.45-5.25-1.7-12.6.3-3.2 1.2-6.75Q35.1 12.9 45.6 8.9l.9-.35q4.6-1.65 9.05-1.7l5.7.8q3.25.6 5.75 2.8 2.45 2.25 3.05 6.3.6 4 1.4 5.85.75 1.8 1.5 2.3 4.3 3 7.8.35m-27-17.1q-.9-.45-2.15-.35-1.3.1-2.15.75-.85.7-.75 1.65.1.9 1.1 1.3l2.25-.2q1.35-.65 2.15-.75.75-.05.65-.95-.1-.9-1.1-1.45m2.9 9.8q-.85.7-.75 1.65.1.9 1.1 1.3l2.3-.25q1.3-.6 2.1-.7.75-.1.65-1-.1-.9-1.05-1.45l-2.2-.3q-1.3.1-2.15.75" transform="translate(-14.45 -3.55)"/><path fill-rule="evenodd" fill="#94f5d8" d="M53.75 8.15q1 .55 1.1 1.45.1.9-.65.95-.8.1-2.15.75l-2.25.2q-1-.4-1.1-1.3-.1-.95.75-1.65.85-.65 2.15-.75 1.25-.1 2.15.35M40.2 8l-1.35 1.2q-.75.85-1.5.8-.8 0-1.1-.6-.25-.65.15-1.45.5-.75 1.4-1.25.85-.5 1.6-.4.8.1 1.05.75T40.2 8" transform="translate(-14.45 -3.55)"/><path fill-rule="evenodd" fill="#3a7dbe" d="M26.55 15.45Q31 9.6 37.6 6.45l2.3-1 .85-.25q1.7-.45 5.95-.05 4.2.35-.2 3.4l-.9.35q-10.5 4-16.35 13.8l-1.15 2.25-1.45 3.1L25 31q-2.85 4.45-3.85 2-.6-1.6-.45-5.95.85-3.1 2.5-6.15 1.45-3 3.35-5.45M40.2 8q.5-.3.25-.95-.25-.65-1.05-.75-.75-.1-1.6.4-.9.5-1.4 1.25-.4.8-.15 1.45.3.6 1.1.6.75.05 1.5-.8L40.2 8" transform="translate(-14.45 -3.55)"/><path fill-rule="evenodd" fill="#2f6ab0" d="M40.75 5.2q10.6-3.75 20.2 1.15L63.2 7.7l-.15.25 1.05.35q1.75.6 3.5 1.5 4.85 2.45 8.15 6.4 3.25 3.8 5 9.05-3.5 2.65-7.8-.35-.75-.5-1.5-2.3-.8-1.85-1.4-5.85-.6-4.05-3.05-6.3-2.5-2.2-5.75-2.8l-5.7-.8q-4.45.05-9.05 1.7 4.4-3.05.2-3.4-4.25-.4-5.95.05m14.8 1.65q3.8-.05 7.5 1.1-3.7-1.15-7.5-1.1" transform="translate(-14.45 -3.55)"/><path fill-rule="evenodd" fill="#af7030" d="m63.2 7.7.9.6-1.05-.35.15-.25" transform="translate(-14.45 -3.55)"/><path fill-rule="evenodd" fill="#2b659d" d="m44.8 68.1-2.3-.7-2.25-.9-1.25-.6q-6.35-3.25-10.05-8.95-1.75-1.45-3.2-3.2-2.4-1.35-4.3-3.05-4-3.75-5.8-9.25-.85-2.6-1.1-5.05-.35-3.3.45-6.45.55-2.55 1.85-5 3.25-6.5 9.7-9.5-1.9 2.45-3.35 5.45-1.65 3.05-2.5 6.15-.15 4.35.45 5.95 1 2.45 3.85-2l1.65-2.95 1.45-3.1 1.15-2.25q-.9 3.55-1.2 6.75-.75 7.35 1.7 12.6Q37.4 58.65 76.9 53.6q-5.8 9.3-15.85 13.1-6.55 2.55-12.7 1.95l-3.55-.55M20.7 27.05q-1 3.35-1.2 6.75-.25 4.7 1.1 9.5.85 3.15 2.25 5.9 1.2 2.45 2.9 4.55-1.7-2.1-2.9-4.55-1.4-2.75-2.25-5.9-1.35-4.8-1.1-9.5.2-3.4 1.2-6.75M40.45 60.7l-2.25-5.95 2.25 5.95m-13.8-32.65-.9 2.55q-2.6 8.1-.75 16.3l.4 1.6q1.2 4.75 3.55 8.45-2.35-3.7-3.55-8.45l-.4-1.6q-1.85-8.2.75-16.3l.9-2.55" transform="translate(-14.45 -3.55)"/><path stroke-width="4" stroke-linejoin="round" stroke-linecap="round" stroke="#002e4f" fill="none" d="M61.3 12.65q1.95.6 3.8 1.45 8.15 3.65 12.85 11.5 4.6 7.75 5.25 16.85l.75 5.5Q85 53.1 81.8 56.7q-1.95 2.4-4.45 3.9h.05q2.1 1.6-3.95 4.3l-1.15.45-1.7 6.1-4.75 1.35-3.5-.15-1.8-5.4 2.15-.2-2.3.15q-7.15.45-14.65.4l-.65-.05-.95 5.3-3.45.05-4.85-1.4-1.15-5.15-.1-.05-3.45-1.2-.8-.55m18.4-60.4.9.6"/><path stroke-width=".05" stroke-linejoin="round" stroke-linecap="round" stroke="#002e4f" fill="none" d="m30.35 64.55-2.3-.7-2.25-.9-1.25-.6Q18.2 59.1 14.5 53.4q-1.75-1.45-3.2-3.2-2.4-1.35-4.3-3.05-4-3.75-5.8-9.25-.85-2.6-1.1-5.05-.35-3.3.45-6.45.55-2.55 1.85-5 3.25-6.5 9.7-9.5 4.45-5.85 11.05-9l2.3-1 .85-.25Q36.9-2.1 46.5 2.8l2.25 1.35m.9.6q1.75.6 3.5 1.5Q58 8.7 61.3 12.65q3.25 3.8 5 9.05l.5 1.8q2 7.55.4 14.9-.9 4.4-3.1 8.8l-1.65 2.85q-5.8 9.3-15.85 13.1-6.55 2.55-12.7 1.95l-3.55-.55M41.1 3.3q-4.45.05-9.05 1.7l-.9.35q-10.5 4-16.35 13.8M48.6 4.4l1.05.35M48.6 4.4q-3.7-1.15-7.5-1.1M11.3 50.2q-1.7-2.1-2.9-4.55-1.4-2.75-2.25-5.9-1.35-4.8-1.1-9.5.2-3.4 1.2-6.75.85-3.1 2.5-6.15 1.45-3 3.35-5.45m.1 12.6 1.45-3.1 1.15-2.25m-.3 34.25q-2.35-3.7-3.55-8.45l-.4-1.6q-1.85-8.2.75-16.3l.9-2.55m11.55 26.7L26 57.15"/><path fill-rule="evenodd" fill="#578fd2" d="M49.1 69.75q-6.9-3.75-1.5-4.2l.15.2-.15-.2 5.75-.8q-8.9-5.45-7.2-6.55l5.1 1.9q4.15 1.5 10.4 2.7Q67.9 63.95 80 60.55q12-3.5 12.45-12.35.35-8.95-.7-12.2-1.15-3.3-6.45-6.25-5.35-2.95-8.8-1-3.45 1.95-9.65 2.7-6.25.6-7.6-1.35-1.35-2.05-4.65-1.8-3.35.25-6 2.6-2.7 2.35-6.4 8.4 1.55-9.2 8-15.9 5.7-5.95 13.5-8.55 8.35-.7 15.85 2.8 8.15 3.65 12.9 11.45 4.6 7.8 5.2 16.95l.8 5.45q1 5.2-2.15 8.8-5 2.95-10.45 3.65l-3.8.35q10.95-.15 5.85 4.15l-1.15.4q-3.95 1.2-9.6 1.75l-2.25.15q-7.15.45-14.7.35h-.6v-.25l-10.5-1.1m24-49.35 2.25-.35q.7 0 .8-.8 0-1-.9-1.7-.8-.55-2.05-.6-1.35-.1-2.25.45-.95.5-.95 1.4-.1.9.9 1.55l2.2.05" transform="translate(-14.45 -3.55)"/><path fill-rule="evenodd" fill="#2f6ab0" d="M45.6 68.6q-.85-.6-1.75-1.05l-.8-.9q.05-1.65.25-3.15l-3.6-2.6-.6-.55Q32.45 53.4 36.75 44l2.05-5.65q1.55-7.1 6.45-12.9Q50 19.6 56.8 16.95q3.4-1.2 6.9-2.1-7.8 2.6-13.5 8.55-6.45 6.7-8 15.9 3.7-6.05 6.4-8.4 2.65-2.35 6-2.6 3.3-.25 4.65 1.8 1.35 1.95 7.6 1.35 6.2-.75 9.65-2.7 3.45-1.95 8.8 1 5.3 2.95 6.45 6.25 1.05 3.25.7 12.2Q92 57.05 80 60.55q-12.1 3.4-18.35 2.25-6.25-1.2-10.4-2.7l-5.1-1.9q-1.7 1.1 7.2 6.55l-5.75.8.15.2-.15-.2q-5.4.45 1.5 4.2l.1.1-3.6-1.25m50.7-8.3q-1.95 2.3-4.45 3.85 2.15 1.6-3.95 4.3 5.1-4.3-5.85-4.15l3.8-.35q5.45-.7 10.45-3.65" transform="translate(-14.45 -3.55)"/><path fill-rule="evenodd" fill="#94f5d8" d="m73.1 20.4-2.2-.05q-1-.65-.9-1.55 0-.9.95-1.4.9-.55 2.25-.45 1.25.05 2.05.6.9.7.9 1.7-.1.8-.8.8l-2.25.35" transform="translate(-14.45 -3.55)"/><path fill-rule="evenodd" fill="#b19172" d="m49.2 69.85-.1-.1 10.5 1.1v.25l-.45 2.35q-4.5-2.95-9.4-1.15l-.55-2.45m37.55-1-.9 3.35q-6.2-2.5-10.05.9l-.8-2.35 2.15-.15q5.65-.55 9.6-1.75" transform="translate(-14.45 -3.55)"/><path fill-rule="evenodd" fill="#e9dbad" d="m85.85 72.2-.75 2.75-4.8 1.35-3.5-.1-1-3.1q3.85-3.4 10.05-.9m-26.7 1.25-.55 2.95-3.4.1-4.9-1.45-.55-2.75q4.9-1.8 9.4 1.15" transform="translate(-14.45 -3.55)"/><path stroke-width=".05" stroke-opacity=".463" stroke-linejoin="round" stroke-linecap="round" stroke="#1a2340" fill="none" d="M49.25 11.3q-3.5.9-6.9 2.1-6.8 2.65-11.55 8.5-4.9 5.8-6.45 12.9l-2.05 5.65q-4.3 9.4 2.35 16.35l.6.55 3.6 2.6q-.2 1.5-.25 3.15l.8.9q.9.45 1.75 1.05m18.1-53.75q8.35-.7 15.85 2.8 8.15 3.65 12.9 11.45 4.6 7.8 5.2 16.95l.8 5.45q1 5.2-2.15 8.8-1.95 2.3-4.45 3.85 2.15 1.6-3.95 4.3l-1.15.4-.9 3.35-.75 2.75-4.8 1.35-3.5-.1-1-3.1-.8-2.35 2.15-.15-2.25.15q-7.15.45-14.7.35h-.6l-.45 2.35-.55 2.95-3.4.1-4.9-1.45-.55-2.75-.55-2.45m27.95.75q5.65-.55 9.6-1.75m-27.15 2.25v-.25l-10.5-1.1"/><path fill-rule="evenodd" fill="#dfaf0d" d="M88.7 47.85q1.9-1.4-.2-2.3l-7.75 1.6q4.9-1.25 5.45-3.3.55-2.9-1.8-5.4-1.5-2.15-3.95-1.25-2.4.8-4.9 2.95-2.6 2.15-2.6 5.2 0 3.05 2.85 2.8l-2.95.45q-2.05 1.15-.1 1.85l.75.2-.75.1-2.75-.2q-.9-1.8-.2-2.35.65-.5 1.35-.9-.25-7.7 2.6-12.6 2.85-4.95 7.5-4.1 4.7.7 6.9 4.55 2.15 3.75 2.5 8.95v.25q1.1.75 1.1 1.25l-.35 1.55-.65.15-2.05.55m-43 .55q-.35-.8-.25-1.35 0-.6 1.05-1.45.4-5.35 2.9-9.4 1.95-3.05 3.75-3.4 6.1-1.6 9.5 2.5 3.3 4.05 3.2 12.65.8.25 1.45.8.7.55-.2 2.25l-2.5.25H63q.9-.35 1.15-.7.65-.8-.9-2.05l-2.6-.3q1.55.1 2.55-.95l-.4-2.7q-.35-2.25-3.1-3.75l-5.5-3.05q-2.65-1.6-4.3 1.5-1.7 3.15-.35 4.85 2.5 2.5 7.25 3.85l-9.2-1.35q-2.05.7 0 2.25l.15.1-.15-.1-1.9-.45" transform="translate(-14.45 -3.55)"/><path fill-rule="evenodd" fill="#ca9e0b" d="m90.75 47.3.65-.15q1.95 1.05-1.1 3.15-.7 3.4-2.6 5.45-2.95 3.15-6.95 4.2h-.1q-2.25.55-4.05-.35-1.5-.8-2.65-2.5-1.2-1.8-1.9-3.7-3.6-1.6-2.05-2.85l2.75.2q-1.8.85.3 1.5 5.45.45 11.8-1.5 4.05-.75 6.1-2.25l-.2-1.2M45.7 48.4l1.9.45q-2.8.55-.25 1.95l2.2.8 3.8.9 8.3.65 2.25-.25q2.15-.9.7-1.65l2.5-.25q1.45 1.25-2.15 2.95-.7 1.95-1.85 3.75-1.8 2.6-4.2 3.15-1.25.25-2.7 0l-.55-.2q-3.75-.95-6.35-3.75l-1.15-1.5v-.1q-1-1.6-1.35-3.75-3.05-1.9-1.1-3.15m5.3 6.65q.9 2.5 3.05 3.2 2.05.7 3.3.65 1.25-.1 2.7-1.1 1.45-1.05.55-1.6-1-.65-4.95-1.7l-4.9-1 .25 1.55" transform="translate(-14.45 -3.55)"/><path fill-rule="evenodd" fill="#fed225" d="m73.5 50.65-.75-.2q-1.95-.7.1-1.85l2.95-.45q-2.85.25-2.85-2.8t2.6-5.2q2.5-2.15 4.9-2.95 2.45-.9 3.95 1.25 2.35 2.5 1.8 5.4-.55 2.05-5.45 3.3l7.75-1.6q2.1.9.2 2.3l2.05-.55.2 1.2q-2.05 1.5-6.1 2.25-6.35 1.95-11.8 1.5-2.1-.65-.3-1.5l.75-.1q5.55-.2 15.2-2.8-9.65 2.6-15.2 2.8m-25.9-1.8.15.1Q57.2 51.2 63 51.25h1.6q1.45.75-.7 1.65l-2.25.25-8.3-.65-3.8-.9-2.2-.8q-2.55-1.4.25-1.95" transform="translate(-14.45 -3.55)"/><path fill-rule="evenodd" fill="#ffe242" d="m47.75 48.95-.15-.1q-2.05-1.55 0-2.25l9.2 1.35q-4.75-1.35-7.25-3.85-1.35-1.7.35-4.85 1.65-3.1 4.3-1.5l5.5 3.05q2.75 1.5 3.1 3.75l.4 2.7q-1 1.05-2.55.95l2.6.3q1.55 1.25.9 2.05-.25.35-1.15.7-5.8-.05-15.25-2.3" transform="translate(-14.45 -3.55)"/><path fill-rule="evenodd" fill="url(#a)" d="m51 55.05-.25-1.55 4.9 1q3.95 1.05 4.95 1.7.9.55-.55 1.6-1.45 1-2.7 1.1-1.25.05-3.3-.65-2.15-.7-3.05-3.2" transform="translate(-14.45 -3.55)"/><path stroke-width=".05" stroke-linejoin="round" stroke-linecap="round" stroke="#916606" fill="none" d="m74.25 44.3 2.05-.55.65-.15M55.55 47l2.75.2.75-.1q5.55-.2 15.2-2.8m-43 .55 1.9.45.15.1q9.45 2.25 15.25 2.3h1.6l2.5-.25"/><path stroke-width=".05" stroke-opacity=".514" stroke-linejoin="round" stroke-linecap="round" stroke="#272d45" fill="none" d="m76.95 43.6.35-1.55q0-.5-1.1-1.25v-.25q-.35-5.2-2.5-8.95-2.2-3.85-6.9-4.55-4.65-.85-7.5 4.1-2.85 4.9-2.6 12.6-.7.4-1.35.9-.7.55.2 2.35-1.55 1.25 2.05 2.85.7 1.9 1.9 3.7 1.15 1.7 2.65 2.5 1.8.9 4.05.35h.1q4-1.05 6.95-4.2 1.9-2.05 2.6-5.45 3.05-2.1 1.1-3.15m-24.3 3.85q.9-1.7.2-2.25-.65-.55-1.45-.8.1-8.6-3.2-12.65-3.4-4.1-9.5-2.5-1.8.35-3.75 3.4-2.5 4.05-2.9 9.4Q31 42.9 31 43.5q-.1.55.25 1.35m21.4 2.6q1.45 1.25-2.15 2.95-.7 1.95-1.85 3.75-1.8 2.6-4.2 3.15-1.25.25-2.7 0l-.55-.2q-3.75-.95-6.35-3.75l-1.15-1.5m0-.1q-1-1.6-1.35-3.75-3.05-1.9-1.1-3.15"/></g><linearGradient y2="1.356" y1=".143" x2=".657" x1=".609" spreadMethod="pad" id="a"><stop stop-color="#fed225" offset="0"/><stop stop-color="#ca9e0b" offset="1"/></linearGradient><path fill-rule="evenodd" fill-opacity="0" fill="#f0f" d="M0 0h102.95v45H0V0" id="b"/><use xlink:href="#b" width="102.95" height="45" id="e"/></defs><path fill="none" d="M-1-1h67v63H-1z"/><use x="38.05" y="93.5" xlink:href="#c" width="381" transform="translate(-192.55 -294)" height="381"/><use x="215.777" y="-280.23" xlink:href="#d" width="86.2" transform="matrix(-.7137 0 0 .7137 217.737 204.684)" height="74.9"/><use x="-85.215" y="-120.934" xlink:href="#e" width="102.95" transform="matrix(1.8072 0 0 1.6538 83 191.3)" height="45"/></svg>