<svg width="108" height="86" xmlns="http://www.w3.org/2000/svg" xmlns:xlink="http://www.w3.org/1999/xlink"><defs><path fill-rule="evenodd" d="m1.85 1.65-.05.25L.1.55l1.75 1.1m-.4.45L-.2.65l1.7 1.2-.05.25M0 2.3l-.05.05L-1.1.45l.75 1.05L-.8.45l1.05 1.8-.2.2L0 2.3m-2.35-2V.25l-.1-.75.15.55.5-1.85-.3 2.05h-.15l.35 1.25-.25.15-.2-1.35m.55 1.9L-1.85 0l.25 2.05-.2.15m1.5.35L-1.1.5l.95 1.85-.15.2M-2.25 1.5l-.25.15-.2-2.15.45 2" transform="translate(2.7 1.8)" id="c"/><path fill-rule="evenodd" d="m8.7-1.85-2.2.15q8.7-2.7 14.4-8-4.35 5.15-12.2 7.85M2.3-.6l1.95-.45q.45 1 18.15 2.95L3.25.75Q9.45 3.2 22 15.15 10.5 5.3 3 3.1q1.35 6.05 3.15 12.75L.9 2.1-.9 22.85q.65-10.1.75-19.25-5.3 5.15-13.2 11.5Q4.55-.95-3.25 2.8q-9.7 3.65-22.8 1.75Q7.45 2.45-3.45.3-7.9-1.55-20.5-5.45-6.15-1.3-3.4-1.2q-4.95-3.7-12-15.25Q-6.55-5.6-.55-.65q-.15-9.6-3.35-22.2Q.35-13.8.05-1.2 2-9.6 2.8-14.55L1.05-1.25q3.15-3 5.45-5.8L2.3-.6" transform="translate(26.05 22.85)" id="d"/><path fill-rule="evenodd" d="m5.85-6.25.65-.8-.55.85-.1-.05M1.9-9.45l.9-5.1-.7 5.3-.2-.2m8.1 6.5Q16.4-5.5 20.9-9.7q3.9 5.2-10.4 7.2l-.5-.45M13.25.2Q17.7.85 23-3.05 22.9 5.1 12.7.85l.55-.65m-9.1 7.75q6.05 7.95 2.5 13.5 0-11.35-3.15-12.7l.65-.8m9.75-3.3q1.05 9.9 8.35 3.05-6.8 10.6-13.4.85l5.05-3.9m-18.35-21q4.05-2.45 2.65-8 2.4 5.15 3.35 11.4l-6-3.4M-14.5-3.55l-6-1.9 6.15 1.75-.15.15m2.55-3.15q-7.05-5.75-3.45-9.75 1.55 3.85 5.1 7.7l-1.65 2.05m7.2 14.6q-8.15 16.55-8.6 7.2 3.5 3.6 8.15-7.55l.45.35m-3.9-3.15q-13.75 4.4-14.85-2l12.1-.2 2.75 2.2m7.75 18.1q3.05-6.4.55-11.4l.4.35Q5.3 19.4-.9 22.85" transform="translate(23.5 24.35)" id="f"/><path fill-rule="evenodd" fill-opacity="0" fill="#f0f" d="M0 0h102.95v45H0V0" id="a"/><g id="b" stroke-opacity="0" stroke-linejoin="round" stroke-linecap="round" stroke="#f0f" fill="none"><path d="M187.95-293.5v380h-380v-380h380M92.95.6H-97" transform="translate(192.55 294)"/><path d="m187.95-293.5-190 190 190 190m-380-380 190 190L-192 86.5" transform="translate(192.55 294)"/></g><g id="e" fill-rule="evenodd"><path d="M9.9.3q-.65 1.15 2 .9l3.9-.65q1.2-.5 1.45-1.4.25-.85-.65-1.5-.8-.7-2.6.3-1.85.95-2.4.2l-.85.05L9.9.3M17.3 14q-.3.95 2.7 1.8l4.2.8q1.2-.05 1.15-.8-.05-.8-1.25-1.8-1.2-.95-2.95-.7-1.65.3-2.65-.75-1-1-.95-.2L17.3 14" transform="translate(.4 14.45)"/><path d="m14.25-.6.4-.35 2.7 2.2q3.45 3.3 3 7.2l-.8 3.15q-.25.95-1.35 1.4l-.6-.3q1.35-1.9 1.8-4.25.45-2.75-1.6-5.3l-2.85-3q-.9 2.8-4.2 3.85l-1.1.3q-1.25.45-1.95-.2.2-.55 1.05-.45l1.8-.25q1.95-.75 2.9-2.35l.35-.8.45-.85m-7.1-13.6.4-.25 3.2 2.5Q14.8-8.5 14.3-5.2q-.2 1.4-.8 2.6-.3.8-1.5 1-.35-.15-.75-.4 1.55-1.35 1.95-3.35.5-2.3-1.9-4.9L7.9-13.4q-.95 2.3-4.7 2.55l-1.3.1q-1.45.15-2.3-.6.25-.45 1.2-.2l2.1.15q2.3-.3 3.25-1.5l.5-.65.5-.65" transform="translate(.4 14.45)"/></g><g id="g" fill-rule="evenodd"><path d="M-16.85 4.4q1.2.7-1.15 1.9-2.35 1.25-3.65 1.5-1.3.25-1.95-.35-.65-.6-.3-1.65.35-1 2.4-1.15 2.05-.1 2.05-1.15.1-.95.75-.35l1.85 1.25M-5 18.95q.5 1.15-2.15 2.65-2.65 1.4-3.8 1.6-1.2.2-1.3-.75-.1-.95.85-2.3.95-1.4 2.65-1.35 1.65 0 2.4-1.4.7-1.4.8-.45l.55 2" transform="translate(24 9.35)"/><path d="m-1.95 4.55-.4-.35-2.7 2.2q-3.45 3.3-3 7.2l.8 3.15q.25.95 1.35 1.4l.6-.3q-1.35-1.9-1.8-4.25-.45-2.75 1.6-5.3l2.85-3q.9 2.8 4.2 3.85l1.1.3q1.25.45 1.95-.2-.2-.55-1.05-.45l-1.8-.25Q-.2 7.8-1.15 6.2l-.35-.8-.45-.85M-13.75-9.1l-.4-.25-3.2 2.5Q-21.4-3.4-20.9-.1q.2 1.4.8 2.6.3.8 1.5 1l.75-.4Q-19.4 1.75-19.8-.25q-.5-2.3 1.9-4.9l3.4-3.15q.95 2.3 4.7 2.55l1.3.1q1.45.15 2.3-.6-.25-.45-1.2-.2l-2.1.15q-2.3-.3-3.25-1.5l-.5-.65-.5-.65" transform="translate(24 9.35)"/><path fill="#fff" d="M3.75-3.15v-.1l.15.1h-.1.05-.1M7-3.95q.8-1.45 1.85-1.7Q10.2-5.95 10.9-4q.65 1.95-.1 4-.55 1.45-1.55 2.35l-.9.65q-1.7.9-2.55-.25h-.05l-.1-.2v.1Q5.7 4.3 4 5.25l-3.35.2q-1.7-.7-2.35-2.65-.6-1.75 0-3.55l.05-.1.1-.25q.6-1.5 2.7-.6l-.05.1L.95-.45l.15.7q.3.9 1.05 1.25l1.6-.15.65-.5.15-.2L4.8.2V.15L4.9 0 5-.5l.05-.25.15.6.15.5 1-.25q.8-.45 1.15-1.4.3-.9.05-1.75l-.05-.1-.5-.8" transform="translate(24 9.35)"/><path d="M3.75-3.15h.1-.05.1l.75 1.25q.8 1.45 1.8-.85l.05-.1.5-1.1.5.8.05.1q.25.85-.05 1.75-.35.95-1.15 1.4l-1 .25-.15-.5-.15-.6L5-.5l-.1.5-.1.15V.2l-.25.45-.15.2-.65.5-1.6.15Q1.4 1.15 1.1.25l-.15-.7.15-1.15.05-.1q.35-.9 1.1-1.3l1.5-.15" transform="translate(24 9.35)"/></g><use xlink:href="#a" width="102.95" height="45" id="h"/></defs><path fill="none" d="M-1-1h110v88H-1z"/><use x="60.05" y="122.5" xlink:href="#b" width="381" transform="translate(-192.55 -294)" height="381"/><use x="-28.427" y="57.991" xlink:href="#c" width="4.55" transform="matrix(-2.1124 0 0 2.1124 .254 -91.552)" height="4.35"/><use x="109.933" y="86.952" xlink:href="#d" width="48.45" transform="matrix(.8782 .4197 -.4197 .8782 -16.938 -123.951)" height="45.7"/><use x="-65.943" y="94.527" xlink:href="#d" width="48.45" transform="matrix(-1.1698 -.1808 -.1808 1.1698 30.956 -114.971)" height="45.7"/><use x="98.916" y="59.513" xlink:href="#d" width="48.45" transform="rotate(32.852 217.009 -91.374) scale(1.1818)" height="45.7"/><use x="-59.207" y="-173.241" xlink:href="#d" width="48.45" transform="rotate(-18.797 633.963 -362.52) scale(1.18)" height="45.7"/><use x="11.567" y="-139.906" xlink:href="#d" width="48.45" transform="rotate(149.161 26.715 -39.366) scale(.9718)" height="45.7"/><use x="-212.516" y="65.238" xlink:href="#d" width="48.45" transform="rotate(69.4 -23.237 228.548) scale(.9717)" height="45.7"/><use x="-113.222" y="22.506" xlink:href="#d" width="48.45" transform="matrix(-.7171 -.9394 -.9394 .7171 35.094 -84.014)" height="45.7"/><use xlink:href="#d" width="48.45" transform="rotate(76.712 40.695 44.012) scale(1.1799)" height="45.7"/><use x="90.236" y="72.608" xlink:href="#d" width="48.45" transform="rotate(25.07 280.525 -113.027) scale(1.178)" height="45.7"/><use xlink:href="#d" width="48.45" transform="rotate(-166.991 40.607 24.59) scale(.9702)" height="45.7"/><use x="129.821" y="53.939" xlink:href="#d" width="48.45" transform="rotate(41.324 160.69 -75.885) scale(.9705)" height="45.7"/><use x="-89.424" y="73.252" xlink:href="#d" width="48.45" transform="scale(-1.1802 1.1802) rotate(-24.563 -215.38 21.236)" height="45.7"/><use xlink:href="#d" width="48.45" transform="rotate(48.634 38.153 55.006) scale(1.1783)" height="45.7"/><use x="45.489" y="106.683" xlink:href="#d" width="48.45" transform="matrix(1.1747 -.062 .062 1.1747 -37.768 -116.88)" height="45.7"/><use xlink:href="#d" width="48.45" transform="rotate(164.938 39.196 28.415) scale(.96899)" height="45.7"/><use x="-28.427" y="57.991" xlink:href="#e" width="25.75" transform="matrix(-2.1124 0 0 2.1124 -4.605 -118.275)" height="31.05"/><use x="74.04" y="119.177" xlink:href="#d" width="48.45" transform="matrix(.9675 .0972 -.0972 .9675 -27.082 -118.09)" height="45.7"/><use x="-30.047" y="111.39" xlink:href="#d" width="48.45" transform="matrix(-1.1607 .226 .226 1.1607 20.972 -125.86)" height="45.7"/><use x="3" y="-183.252" xlink:href="#d" width="48.45" transform="rotate(-38.604 356.473 -110.999) scale(1.17866)" height="45.7"/><use x="58.348" y="-127.84" xlink:href="#d" width="48.45" transform="matrix(-.6156 .7507 -.7507 -.6156 29.09 -98.94)" height="45.7"/><use x="136.193" y="34.689" xlink:href="#d" width="48.45" transform="rotate(49.596 133.957 -67.996) scale(.9707)" height="45.7"/><use x="-99.007" y="59.599" xlink:href="#d" width="48.45" transform="matrix(-.9919 -.6402 -.6402 .9919 35.317 -98.288)" height="45.7"/><use x="114.89" y="14.058" xlink:href="#d" width="48.45" transform="matrix(.6435 .9875 -.9875 .6435 .65 -132.728)" height="45.7"/><use x="-46.579" y="-132.832" xlink:href="#d" width="48.45" transform="rotate(173.209 13.444 -35.978) scale(.9692)" height="45.7"/><use x="103.971" y="94.831" xlink:href="#d" width="48.45" transform="rotate(21.518 308.99 -116.02) scale(.9695)" height="45.7"/><use x="94.875" y="66.581" xlink:href="#d" width="48.45" transform="rotate(28.825 242.942 -102.97) scale(1.177)" height="45.7"/><use x="6.666" y="115.906" xlink:href="#d" width="48.45" transform="rotate(-22.823 -280.82 57.477) scale(1.1751)" height="45.7"/><use x="113.884" y="82.242" xlink:href="#d" width="48.45" transform="rotate(28.053 241.347 -93.985) scale(.9712)" height="45.7"/><use x="-70.172" y="91.754" xlink:href="#d" width="48.45" transform="scale(-1.181 1.181) rotate(-11.294 -499.247 86.858)" height="45.7"/><use x="101.647" y="55.252" xlink:href="#d" width="48.45" transform="rotate(35.358 201.618 -87.429) scale(1.1792)" height="45.7"/><use x="89.739" y="96.905" xlink:href="#f" width="46.5" transform="scale(-1.033 1.033) rotate(68.915 97.042 -47.203)" height="47.2"/><use x="5.447" y="-140.59" xlink:href="#d" width="48.45" transform="matrix(-.8535 .4602 -.4602 -.8535 28.799 -85.535)" height="45.7"/><use x="-209.933" y="74.664" xlink:href="#d" width="48.45" transform="rotate(71.913 -17.368 222.909) scale(.96951)" height="45.7"/><use x="-114.355" y="17.57" xlink:href="#d" width="48.45" transform="matrix(-.6738 -.9677 -.9677 .6738 34.314 -82.587)" height="45.7"/><use x="111.758" y="-30.645" xlink:href="#d" width="48.45" transform="rotate(79.22 84.739 -54.511) scale(1.1773)" height="45.7"/><use x="93.536" y="68.743" xlink:href="#f" width="46.5" transform="rotate(27.574 257.74 -99.086) scale(1.1753)" height="47.2"/><use xlink:href="#d" width="48.45" transform="matrix(-.9328 -.2592 .2592 -.9328 73.078 58.166)" height="45.7"/><use x="132.351" y="48.311" xlink:href="#d" width="48.45" transform="rotate(43.833 151.157 -73.917) scale(.9683)" height="45.7"/><use x="-92.756" y="69.425" xlink:href="#d" width="48.45" transform="matrix(-1.0485 -.5359 -.5359 1.0485 33.36 -101.847)" height="45.7"/><use x="49.093" y="105.146" xlink:href="#f" width="46.5" transform="matrix(-.7376 .9155 .9155 .7376 -11.157 -131.324)" height="47.2"/><use x="50.234" y="104.816" xlink:href="#d" width="48.45" transform="matrix(1.1737 -.0104 .0104 1.1737 -37.014 -118.397)" height="45.7"/><use x="-33.078" y="-137.176" xlink:href="#d" width="48.45" transform="matrix(-.9437 .2102 -.2102 -.9437 23.186 -75.76)" height="45.7"/><use x="-28.427" y="57.991" xlink:href="#g" width="35.2" transform="matrix(-2.1124 0 0 2.1124 45.249 -107.501)" height="32.6"/><use x="-73.041" y="-103.398" xlink:href="#h" width="102.95" transform="matrix(1.8072 0 0 1.6538 64 171.3)" height="45"/></svg>