<svg width="123" height="138" xmlns="http://www.w3.org/2000/svg" xmlns:xlink="http://www.w3.org/1999/xlink"><defs><g id="b" stroke-opacity="0" stroke-linejoin="round" stroke-linecap="round" stroke="#f0f" fill="none"><path d="M187.95-293.5v380h-380v-380h380M92.95.6H-97" transform="translate(192.55 294)"/><path d="m187.95-293.5-190 190 190 190m-380-380 190 190L-192 86.5" transform="translate(192.55 294)"/></g><g id="c"><path stroke-width="2" stroke-linejoin="round" stroke-linecap="round" stroke="#54483a" fill="none" d="M19.15 4.35q.65-.4 6.45 5.65l1.3 1.35 3.05 2.95L33 12l1.15-.65 2.15-1.15q1.9-1 6.95-1.35l8.75-.5.9-2.15q1.95-4.1 3.25-3.85l.8.8 1.2 3.2.5 2.8 8.5 2.2 2.55.95 1.15-.95 3.3-3 3.4-4.3Q80.2.4 80.9 1.1l.25.45q.55 1.3.95 5.9l.25 3.9-.2 4-.9 3.4 5.9 4.6q3.05 2.85 3.7 8.1L91 33.1q.25 4.55-.85 8.25-.85 2.85-9 11-1 1-4.55 3.3l-.35.25-.65.4-2.45 1.5v3.55l-2 1 .75 1.55q.65 1.85.25 3.45-.45 1.85-1.85 4.55l-.2.4-1.95 3.05-.95.95 2.3 2.05.65.65v.05q2.75 2.8 3 4.3l.05.35q-.05 1.5-1.5 6.9l-.05.05-.05-.1-2.8-.4.35 1.2-4 4-.15-.2-1.9.5v-.05l-1.3-4.1-.15-.15.5 6q-6.15 3.9-11 4h-6l1-2q-1.45 1.9-4 2l-3.45-.45-1.55-.55.1-1.15-.2-.05h-.15l-5.75-1.8q-1.6-.6-3.45-2.85l-1.55-2.15-2.1-4.15-.95-.4-.95-.45q-1.85-.85-1.8-3.3.05-1.55.8-3.7.4-1.1 2.25-1.65l1.5-.3.05.1.2-.15v-.1l-1-2.9 3-1 .65-2.45-2.45.15H21.5l-5.9-.55-5.45-1.15Q4.9 68.9 2.5 63q-2-4.8-1.35-9.65.15-1 .7-2.25.85-2.05 2.8-4.65l.6-.75-3.1-5.35 6.25 1.6 1.2-1.3 2.2-2.25.25-.25 1.9-2-.2.4 1-.85.1-.1.1-.05.05-.05.15-.15q2.5-2.1 4.75-6.75l.7-1.45 2.05-4.65-.35-.8-.55-1.4-.6-1.95-1.55-7-.05-.15q-1.1-5.45-.6-6.6l.2-.25z"/><path fill-rule="evenodd" fill="#ccc" d="M35.15-49.6q.55 1.3.95 5.9l.25 3.9-.2 4-.9 3.4-1.05 2.7v-.15l-.15.35q-.35.85 1.35-6.75-4.25 9.75-6.45 10.35l-.2.05-.15-.7-4.3 1.65-2.8-1.55q-.5-1.2 0-2.55l13.65-20.6m-62.2 3.05.2-.25q.65-.4 6.45 5.65l1.3 1.35 3.05 2.95q2.1 1.95 3.2 2.5l2.05 1.5q4.65.9 8.95 1.05Q-.6-30.5-.7-28.4-3.05-19-7.8-24q2.15 2.8 1.15 4.45-2.3 1.85-6.75-5 3.15 5.05 2.2 4.75l-.6-.25q-1.8-.8-2.9-2.6-5.1-8.25-9.3-17.15l-3.05-6.75m38-1.45 1.2 3.2.5 2.8.4 2.55-.6.25-2.95-1.6q-2.1-3.65 1.45-7.2m21.55 5q-1.65 1.15-2.7 3.2l-.5 1-.45.65-2.25 5.45-.95 2.1-.05.15q1.25-.4 2.35-1.1 2.4-1.75 3.7-5.35l.3-1.65 1.15-1.55v-.95L32.5-43m1.4 28.65 4.6-2.45-5.5 6.45h-1.55v-1.5l2.45-2.5M-16.2-35.1l-.75-.15-1-1-1.7-.75q4.1 6.2 9.4 11.75l.2.2q2-.55 4.1-1.9.6-.3.7-1-.45-1-1.45-1.5l-.45-.25-5.05-2.95q-1.75-1-3.8-1.85l-.2-.6m7.6 3.35-2.2-1.1 2.2 1.1" transform="translate(46 51.15)"/><path fill-rule="evenodd" fill="#999" d="m23.7-38.85 1.15-.95 3.3-3 3.4-4.3q2.65-3.65 3.35-2.95l.25.45L21.5-29q-.5 1.35 0 2.55l-1.45-1.15.2-.75q-.2-.55-.75 0l-.1-.1.85-1.55-.4.2-1.65 1.65q-1-.7-1.15-1.85-.25-1.95.05-3.85l.2-.2 3.4-2.75 1.6-1.05 1.4-1m-47.05 10.2-.35-.8-.55-1.4-.6-1.95-1.55-7-.05-.15q-1.1-5.45-.6-6.6L-24-39.8q4.2 8.9 9.3 17.15 1.1 1.8 2.9 2.6.25 1.9-1.1 2.35h-1.5q-3.5-3.6-6.6-7.45l-.7-.35-1.65-3.15M6-42.8l.9-2.15q1.95-4.1 3.25-3.85l.8.8Q7.4-44.45 9.5-40.8l2.95 1.6-2 .7-1.5.1q-1.25-.05-2.15-.75l1.15.55q-1.5-3.9.25-6.6l-.8 1.1.1-.15-1.8 2.2.3-.75m22.75 16.95.2-.05q2.2-.6 6.45-10.35-1.7 7.6-1.35 6.75l.15-.35v.15l-.75 1.6-1.3 2.3q-.85 1.4-2 2.35l-.5.35-.35-.15-.85.2h-.05q.75-.4.35-2.8m-13.05-3.7 1.25 2.35-.2-.3-1.05-2.05m9.05 6.6-.1-.1 1.7.2-1.6-.1m6.1 9.5 2.2-1.4q2.25-1.45 4.3-3.35l1.4-1.15q.75-.4 1.05.2.4.95.65 3.5.25 2.5.1 3.75L40-9.85l-.1.25-.65 1.85q-1.1 2.9-2.05 2.95h-.05l-.75-.25 1.05-.2L38.9-10l-3.25 3.65 1.25-4.05-1.55 2.8q.1.9-.8.9L31.6-7.8l-.35-.55-.6-.2-.4-.75-.3-2.35.85-1.7.9-.55-.9.5.05-.05m-24.5 6.2.25-.6.05.05-.15.4-.15.15m27.55-7.1-2.45 2.5v1.5H33l5.5-6.45-4.6 2.45" transform="translate(46 51.15)"/><path fill-rule="evenodd" fill="#d7d7d7" d="m32.5-43 .6 1.95v.95l-1.15 1.55-.3 1.65q-1.3 3.6-3.7 5.35-1.1.7-2.35 1.1l.05-.15.95-2.1 2.25-5.45.45-.65.5-1q1.05-2.05 2.7-3.2m-48.7 7.9.2.6q2.05.85 3.8 1.85l5.05 2.95.45.25q1 .5 1.45 1.5-.1.7-.7 1-2.1 1.35-4.1 1.9l-.2-.2q-5.3-5.55-9.4-11.75l1.7.75 1 1 .75.15" transform="translate(46 51.15)"/><path fill-rule="evenodd" fill="#666" d="m-40.75-5.45-3.1-5.35.7.2Q-41.95-7.8-36-7v.05q-1.6 1.65-2.75 2.5-.6.4-1.1.65l-.9-1.65M20.7-36.8l-3.4 2.75-.2.2q-.3 1.9-.05 3.85.15 1.15 1.15 1.85l1.65-1.65.4-.2-.85 1.55.1.1q.55-.55.75 0l-.2.75 1.45 1.15 2.8 1.55 4.3-1.65.15.7q.4 2.4-.35 2.8l-1.65.2h-.4l-1.7-.2.1.1q-3.1-.35-5.7-2.35l-1.75-1.6-.35-.3-1.25-2.35-.05-.1q-.6-1.6-.4-2.75l.05-.2q.3-1.35 1.65-2.05l.2-.15 2.8-1.5.15-.1.6-.4-.6.4-.25-.1 2.4-1.4-1.55 1.1M6.8-39.15l-.65-.65-.35-.45-.65-.2.2-.6-.45.1V-41l.1-.35.7-.7 1.8-2.2-.1.15.8-1.1q-1.75 2.7-.25 6.6l-1.15-.55m-1.45-1.9.35-1-.35 1m25.25 27.8.25-.2-.05.05v.05l-.85 1.7.3 2.35-.3-.6-.05-.15q-.5-1.1-.45-1.75 0-.5.25-.75l.15-.2.2-.15.2-.1.25-.2.1-.05M5.9-7.6q.3.5.45.35l.15-.15-1.2 2.85.1.25Q3.1-.95 4.15 2.15q.3.05.6.4l.1.3 2.2.9 2-1.5-.55 2.4h1.3l.7-.25v.1q.5.65 3.65-2.6l-3 4.35h-.05L6.95 6l-.5-.15-.2-.05-.45-.15Q4.85 5.3 3.95 4.6l-.35-.3-.15-.15-1.4-1.55-.8-1.15Q0-.5-.25-2.05q.45-1.5 1.8-3.45 1.7-.6 2.85-1.6 1.15-1.05 1.5-.5m24.75-.95.6.2.35.55 2.95 1.1q.9 0 .8-.9l1.55-2.8-1.25 4.05L38.9-10l-1.45 4.75-1.05.2L35-5.5l-.75-.45L34.1-6q-.85-.3-1.7-.85l-1.3-1-.45-.7M-.7-28.4q-.1 1.05-.5 2.3l-.35.95-.25.65q-1.25 2.7-2.7 4.55l-.7.75q-.9.95-1.9 1.6-1.35.8-2.85 1.25l-.55.15-.15.05h-.1l-3.55.3q-.8-.15-1.3-.6l-.3-.3-.6-.9v-.05l-.05-.05-1.7-2.35-.55-.75-2.9-4.65.7.35q3.1 3.85 6.6 7.45h1.5q1.35-.45 1.1-2.35l.6.25q.95.3-2.2-4.75 4.45 6.85 6.75 5 1-1.65-1.15-4.45 4.75 5 7.1-4.4m-3.9 11.25-.15.7.05-.6-.35.6h-.05l.5-.7m-26.7 19.1q-.05-1 .3-2.05l-.3-5.15q1.7 9 6.05 8.05l.35.2q.25-.25-2.1-4.85Q-23.85 2-22.4 2q1.4 0 1.85-2.65.4-2.65-.1-2.4l.35-.95h.05l.45 1 .05.2.05.3q.3.75.1 1.85l-.25.9-.3.7-.9 1.65q-.8 1.15-1.8 1.6l-2.2 1.3-.55.25-1.1.2q-1.05-.05-2.25-.85-1.45-.95-2.15-2.6l-.15-.05-.05.1v-.6l.2.55-.2-.55" transform="translate(46 51.15)"/><path fill-rule="evenodd" fill="#b31702" d="m-18.2 20.75-2.45.15h-3.85l-5.9-.55-5.45-1.15q-5.25-1.45-7.65-7.35-2-4.8-1.35-9.65.15-1 .7-2.25.85-2.05 2.8-4.65l.6-.75.9 1.65q.5-.25 1.1-.65 1.15-.85 2.75-2.5V-7q-.2-.1.15-1.8l-1.75-.4 1.2-1.3 2.2-2.25.25-.25 1.7-1.6 1-.85.2-.1.05-.1.15-.15q2.5-2.1 4.75-6.75l.7-1.45 2.05-4.65 1.65 3.15 2.9 4.65.55.75 1.7 2.35.05.05v.05l.6.9.3.3q.5.45 1.3.6l3.55-.3h.1l.15-.05.55-.15q1.5-.45 2.85-1.25 1-.65 1.9-1.6l.7-.75q1.45-1.85 2.7-4.55h.05l-2.85 7.35-.5.7q-2.3 2.7-6.6 3.15l-2.55.45-2.7 1.1q-2.75 2.3-5.9 3.35l-2.6.3-1.4-1.7-.5-.5 1.05-2.2.35-1 .1-.05-.95-.35-3.65.5-.3-.3-.1-.1-.1.25-.05.2q-1.35 3.05-1.7 6.45-2.85 5.05-5.95 9.55l.45 7.15.3.25-.15-.4q.2-.35.65-.45l.35-.15.4-.6q2.25-1.7 4-3.8l1.35-2.1.2-.05q.7 1.65 2.15 2.6 1.2.8 2.25.85l1.1-.2.55-.25 2.2-1.3q1-.45 1.8-1.6l.9-1.65.3-.7.25-.9q.2-1.1-.1-1.85l-.05-.3-.05-.2 1.05 1.2.25.15.25.15.8 3 1 .55-12.45 12.6 3 .9 7.2 1.25q2.4-1.2 10.4-1.8l13.85-1.8L8 12.5l.45-.15q.8-.35 1.65-.65l.05.15 20.25-7.4Q22.95 8.6 22.5 9.4q-5.7 3.25-9.35 4.8l-1.6.65-.8.3-4.5 1.4-3.4.85-11.1 2.15-4.6.65-1.05.15-2.4.25-1.2.1-.7.05" transform="translate(46 51.15)"/><path fill-rule="evenodd" fill="#9a9a9a" d="m-43.15-10.6 5.55 1.4 1.75.4Q-36.2-7.1-36-7q-5.95-.8-7.15-3.6m15.8.3.5.5 1.4 1.7 2.6 2.3 1 .25q1.05.6 1.6 1.55h-.05l-.35.95q.5-.25.1 2.4Q-21 2-22.4 2q-1.45 0-4.6-3.85 1.7 4.15.95 3.7L-28-.05l-2.95-13.5.2-.15.3.3 3.1 3.1" transform="translate(46 51.15)"/><path fill-rule="evenodd" fill="#cd2401" d="m44.85-19.7.15 1.65q.25 4.55-.85 8.25-.85 2.85-9 11-1 1-4.55 3.3l-.35.25-.65.4-2.45 1.5-1.2.7L22.5 9.4q.45-.8 7.9-4.95l-20.25 7.4 1.9-1-1.95.85q-.85.3-1.65.65L8 12.5l-2.45.7L-8.3 15q-8 .6-10.4 1.8l-7.2-1.25-3-.9 12.45-12.6-1-.55-.8-3-.25-.15-.25-.15L-19.8-3l-.45-1q-.55-.95-1.6-1.55l-1-.25-2.6-2.3 2.6-.3q3.15-1.05 5.9-3.35l2.7-1.1 2.55-.45q4.3-.45 6.6-3.15h.05L-6.4-14.5q-2.6 2.8-6.45 3.45l-4.2.35v.35l-.65 2 .1.5-1.1 2.5 1.95.85 3.35-.55 2.8-1.15q-3.4 2.9-5.6 7.25L-10.9-2q-1.05 2.55-4.2 5 4-1.35 4.75-.25L-8.1 4.6Q-5-.05-.7-3.1-2.15-1.7-2.85.6L-3 .95q.1 1.05.95 1.75-.8.4-1.35 1.15l-.4.6-.05-.15-.1.15-.15.6Q-7 7.85-9 11.15l-.15.75 16.8-1.45 2.85-.95h.6q.8-.6 1-1.25l.45-.15.65-.8.6-1.1-.1-.9.85-1.3.05-.15q5-1.85 9.5-5.6-.75-.05-2.25-.8t-2.2-2.6q-.7-1.95 8.8-5.65l.15-1q0-.3 2-1.45l-.1.05-.25.2-.2.1-.2.15-.15.2q-.25.25-.25.75-.05.65.45 1.75l-.1 1.2q-.5 3.8-3.55 6.5l-.05.1-.35.35q5.5-.25 10.65-2.25l.45-.15.25-.5q.95-.05 2.05-2.95l.65-1.85.2-.2 1.7-3.3.5-.6v-1.65q1.55-2.05 2.55-4.35m-76.1 4.25.1-.1h.1v-.05l.05-.05-.05.1-.2.1M29.6-22.9l.5-.1-3.5.95-5.25.65q-8.1-.35-14.85 2.25l-.55.15q.8-2.3 1.3-6.5l.05-.1q2.8-4.3 7.7-6.8h.25q-.2 1.15.4 2.75l.05.1 1.05 2.05.2.3.35.3 1.75 1.6q2.6 2 5.7 2.35l1.6.1h.1l.1.05 3.05-.1M10.45-38.5l.1.15-.2.2-.2.15-.55.2-1.15.6-10.2 1.15q-2.25.9-1.9-1 .2-1.35 4.5-2.75l4.05-1.15.45-.1-.2.6.65.2.35.45.65.65q.9.7 2.15.75l1.5-.1M30.8-13.4l.9-.5-.9.55v-.05m-61.25 0 3.65-.5.95.35-.1.05-.35 1-1.05 2.2-3.1-3.1m-.5-.15.1-.25.1.1-.2.15M-32.7-6.9l-.15 2.1L-31.7.6l.2.7.2.65v.6l-1.35 2.1q-1.75 2.1-4 3.8l-.4.6-.35.15q-.45.1-.65.45l.15.4-.3-.25-.45-7.15q3.1-4.5 5.95-9.55m13.85 2.1-3-.75 3 .75m15 9.1.4-.8-.2.1-.2.7" transform="translate(46 51.15)"/><path fill-rule="evenodd" fill="#a31401" d="m-33.95-13 1.9-2-.2.4-1.7 1.6m2.8-2.55.1-.05v.05h-.1m30.9 13.5Q0-.5 1.25 1.45l.8 1.15 1.4 1.55.15.15.35.3q.9.7 1.85 1.05l.45.15.2.05.5.15 4.15.25h.05l1-.05q.8-.05 1.55-.9l.1.9-.6 1.1-.65.8-.45.15q-.2.65-1 1.25h-.6l-2.85.95-16.8 1.45.15-.75q2-3.3 4.9-6.1l.15-.6.1-.15.05.15.4-.6q.55-.75 1.35-1.15Q-2.9 2-3 .95l.15-.35q.7-2.3 2.15-3.7l.45-.45v1.5m30.5-7.25.4.75.45.7 1.3 1q.85.55 1.7.85l.15.05.75.45 1.4.45.75.25h.05l-.25.5-.45.15q-5.15 2-10.65 2.25l.35-.35.05-.1q3.05-2.7 3.55-6.5l.1-1.2.05.15.3.6M-1.2-26.1l.25-.45-.8 2.05h-.05l.25-.65.35-.95M-36-7v.05V-7M-3.85 4.3l.2-.7.2-.1-.4.8m14 7.55-.05-.15 1.95-.85-1.9 1M-31.1 2.5l-.2.05.05-.1.15.05" transform="translate(46 51.15)"/><path fill-rule="evenodd" fill="#878787" d="m-.25-3.55.2-.7q.9-2.35 4.2-3.55Q5.6-8.35 7.2-9.2l.45-1.15q1.8-3.75 3.5-4.45l1.9-.45q2.45-.1 3.1 3.45 1.55 8.5 0 12L14.6 3.85l-.05.15-.85 1.3q-.75.85-1.55.9l-1 .05 3-4.35Q11 5.15 10.5 4.5v-.1l-.7.25H8.5l.55-2.4-2 1.5-2.2-.9-.1-.3q-.3-.35-.6-.4Q3.1-.95 5.4-4.3l-.1-.25L6.5-7.4l.15-.4-.05-.05-.25.6q-.15.15-.45-.35-.35-.55-1.5.5-1.15 1-2.85 1.6Q.2-3.55-.25-2.05v-1.5M7.2-9.2l-.6 1.35.6-1.35m5.45-3.75-2.6 5.35Q4.9-1.65 9.5 1q4.7 1.8 3.15-13.95M-32.7-6.9q.35-3.4 1.7-6.45l.05-.2L-28-.05l1.95 1.9q.75.45-.95-3.7 2.35 4.6 2.1 4.85l-.35-.2q-4.35.95-6.05-8.05L-31-.1q-.35 1.05-.3 2.05l-.2-.65-.2-.7-1.15-5.4.15-2.1" transform="translate(46 51.15)"/><path fill-rule="evenodd" fill="#fa6230" d="m35.25-32.4 5.9 4.6q3.05 2.85 3.7 8.1-1 2.3-2.55 4.35v1.65l-.5.6-1.7 3.3-.1-.05.55-2.05q.15-1.25-.1-3.75-.25-2.55-.65-3.5-.3-.6-1.05-.2l-1.4 1.15q-2.05 1.9-4.3 3.35l-2.2 1.4-.25.2q-2 1.15-2 1.45l-.15 1q-9.5 3.7-8.8 5.65.7 1.85 2.2 2.6 1.5.75 2.25.8-4.5 3.75-9.5 5.6L16.15.2q1.55-3.5 0-12-.65-3.55-3.1-3.45l-1.9.45q-1.7.7-3.5 4.45L7.2-9.2q-1.6.85-3.05 1.4-3.3 1.2-4.2 3.55l-.2.7-.45.45Q-5-.05-8.1 4.6l-2.25-1.85q-.75-1.1-4.75.25 3.15-2.45 4.2-5l-5.3 3.05Q-14-3.3-10.6-6.2l-2.8 1.15-3.35.55-1.95-.85 1.1-2.5-.1-.5.65-2v-.35l4.2-.35Q-9-11.7-6.4-14.5l1.35-1.95h.3l.15-.7 2.85-7.35.8-2.05-.25.45q.4-1.25.5-2.3.1-2.1-1.15-3.4-4.3-.15-8.95-1.05l-2.05-1.5q-1.1-.55-3.2-2.5l3.05-2.3 1.15-.65 2.15-1.15q1.9-1 6.95-1.35L6-42.8l-.3.75-.7.7-.1.35v.05L.85-39.8q-4.3 1.4-4.5 2.75-.35 1.9 1.9 1l10.2-1.15 1.15-.6.55-.2.2-.15.2-.2-.1-.15 2-.7.6-.25-.4-2.55 8.5 2.2 2.55.95-1.4 1-.05-.05-2.4 1.4-4.05-1.05-2.45-.25.2-.2-.65.2h.45q-5.1 3.6-11 5.65l-.25.2.3-.1q.8-.25 1.55.3l.6.5q.7.6 1.6.65l.2.2-.2 1.35.05.9q0 .5.15 1l.35.65.55.85v.15q-.5 4.2-1.3 6.5l.55-.15-.15 1.55 8.75-.65 5.2.45-.45 1.35v1.1q2.8.9 5.65-.3l2.85-.35-1.5 1.75q6.3-3.5 11.4-8.7l.2-.25 1.15-.65q-1.9-5.5-5.4-5.85l1.05-2.7M3.85-16.65l-5-1.3.5 2.3q3.55 1.3-1.8 4.3-3.7 2-4.75 3.85l6.4-.2.35-2.35q1.15-.2 2.05-.8 1.7-1 2.9-2.65.4-1.15-.2-2.15l-.45-1m23 2.4-.95.5.9-.45.05-.05" transform="translate(46 51.15)"/><path fill-rule="evenodd" fill="#7b7b3e" d="M27.15 6.65v3.55l-2 1 .75 1.55q.65 1.85.25 3.45-.45 1.85-1.85 4.55l-.2.4-2.4.1q-6 3.75-11.4 4.3l-9.05-.7 3.45 1h-.9l-1.5.45-2.55 1-2.8.15-6.7.4h-2.75l-8.35-.75-1-2.9 3-1 .65-2.45.7-.05 1.2-.1 2.4-.25 1.05-.15 4.6-.65 11.1-2.15 3.4-.85 4.5-1.4.8-.3 1.6-.65q3.65-1.55 9.35-4.8l3.45-2.05 1.2-.7m-4 8.55-2-1-.6-.1.6.1 2 1m-19.4 4.05-.45.95q-.55 1 .85 1l1.5-.2-1.5.2q-1.4 0-.85-1l.45-.95M5.65 21q3.05 1.65 7.1-.1 2.7-1.1 6.15-.9l1.65-5.9q-.95 0-2.85.7-2.7.95-4.55 2.4-2.85 2.15-5.8 3.25l-1.7.55" transform="translate(46 51.15)"/><path fill-rule="evenodd" fill="#b8b872" d="M24.15 27.85v.05l-.5.05.5-.1m-47.05 8.8-.95-.45q-1.85-.85-1.8-3.3.05-1.55.8-3.7.4-1.1 2.25-1.65l1.5-.3.05.1.2-.15v-.1l8.35.75h2.2q.25.1.5.3l.15.1.2.15 2.6.2-4.55 2.55 9.05.4-.55.05-4.95.6-5.65.1-1.35-.1-1.25-.35-.6-.3-.15-.35-2.15-.8-1.65-2.5-.1.05.15.5.15.05.65 2.9.65 1.7-.25-1.35q3.75 1.85 4.65 1.8l2.1.1 3.75.1h7.1l4.65-.25q2.45-.3 4.8-1.2l1.05-.45q1.55.65 2.3 2.05l.15.05 1.25-1.05.1-.1-.25-.45-.25-.65 1.2-.6-.05.35.5 1.45.1.1.05.4.15.6v.8l-.6 1.6-2.4 1q-.25-.3-.6-.2-.5.1-.4-.4v-2.6l-1.4-.4q-2.1.6-2 .9.1.3-6.75-.1l-5.9 1.3q-.1.25-1.45-.5-2.45-1.4-7.35.05l1.85.95.4 1-.6 2.2q0 2.15.85 4.45l.8 1.65q-2.7.05-5.25-1.5l-.35-.85q-.95-1.5-.85-3.15l.25-.05 2.1-.7.05-.05-.15-.1-.05-.1h-.05.05l.05.1-.1-.1-3.95-3-2.8-.4-.25.85m2.25-8.75-.4-.55.4.55m-3.7 4.6.35 1.55.05.05 2.75-.3q-.3-.95-1.15-1.8-.65-.7-1.6-1.35V31q-.4.75-.4 1.5m9.5 8.7-.85-1.75.85 1.75m28-6q.75-.9.5-2.3.25 1.4-.5 2.3m4.9-7.5-1.7-.1L18 25.95 19.55 24Q13.2 27.3 6.6 26.95l-1.2-.1-3.1-.55 1.5-.45h.9l-3.45-1 9.05.7q5.4-.55 11.4-4.3l-1.95 2.9-1.4 2.05-.3 1.5" transform="translate(46 51.15)"/><path fill-rule="evenodd" fill="#cc9" d="M24.15 27.9q2.75 2.8 3 4.3l.05.35q-.05 1.5-1.5 6.9l-.05.05-.05-.1-4.6-6.2 1.8 5.8.35 1.2-3.2 3.25-.45.45-.35.3L19 44l-3.2-3.65-.15-.15.2 2.3-.25-2.4q-1.6 1.75-1.85 5.1v.2q-3.3 1.5-7 2h-1.6Q3.05 48.6.55 49h-.4l-.65.5.65-1.3q-1.45 1.9-4 2l-3.45-.45-1.55-.55.1-1.15-.2-.05.5-2.4q-.15-.3-.85-.2l-2.3.3-.8-1.65q-.85-2.3-.85-4.45l.6-2.2-.4-1-1.85-.95Q-10 34-7.55 35.4q1.35.75 1.45.5l5.9-1.3q6.85.4 6.75.1-.1-.3 2-.9l1.4.4v2.6q-.1.5.4.4.35-.1.6.2l2.4-1 .6-1.6V34l-.15-.6-.05-.4-.1-.1-.5-1.45.05-.35-2.7.45-1.35-1.35-.1.1-1.9.9q-1.95.2-4.75.05l-.25-.05-4.5.35-9.05-.4 4.55-2.55-2.6-.2-.2-.15-.15-.1q-.25-.2-.5-.3h.55l6.7-.4 2.8-.15 2.55-1 3.1.55 1.2.1q6.6.35 12.95-2.95L18 25.95l-1.65 1.65 1.7.1-.1.5h3l.6.2 2.1-.45.5-.05m-48.5 4.6q0-.75.4-1.5v-.35q.95.65 1.6 1.35.85.85 1.15 1.8l-2.75.3-.05-.05-.35-1.55m20.15 5.45q.8 2.15 1.4 5.25l.5 2.85 5.55-1.25 7.9-1 1.3-.95q-.15-.9-1-1.35l-.3-.15-.15-.2q-.8.05-1.5-.5l-.75-.5-.3-.15-1.2-2.4-.55-1.05q-.25-.6-.6-.7l.1.85-7.25.9-3.15.35m-3.65 7.25q-.7 1.2-.9 2.75v.1-.1q.2-1.55.9-2.75" transform="translate(46 51.15)"/><path fill-rule="evenodd" fill="#4e4d27" d="m25.6 39.4-2.8-.4-1.8-5.8 4.6 6.2M19 44l-1.9.5v-.05l-1.3-4.1L19 44m-39.65-16.1 1.65 2.5 2.15.8.15.35.6.3 1.25.35 1.35.1 5.65-.1 4.95-.6.55-.05 4.5-.35.25.05q2.8.15 4.75-.05l1.9-.9.1-.1 1.35 1.35 2.7-.45-1.2.6.25.65.25.45-.1.1-1.25 1.05-.15-.05q-.75-1.4-2.3-2.05l-1.05.45q-2.35.9-4.8 1.2l-4.65.25h-7.1l-3.75-.1-2.1-.1q-.9.05-4.65-1.8l.25 1.35-.65-1.7-.65-2.9-.15-.05-.15-.5.1-.05" transform="translate(46 51.15)"/><path fill-rule="evenodd" fill="#9c9c4e" d="m24.1 21.15-1.95 3.05-.95.95 2.3 2.05.65.65-.5.1-2.1.45-.6-.2h-3l.1-.5.3-1.5 1.4-2.05 1.95-2.9 2.4-.1M15.85 42.5l.3 3.7q-6.15 3.9-11 4h-6l.35-.7.65-.5h.4q2.5-.4 4.6-1.6h1.6q3.7-.5 7-2v-.2q.25-3.35 1.85-5.1l.25 2.4M-8.95 48h-.15l-5.75-1.8q-1.6-.6-3.45-2.85l-1.55-2.15-2.1-4.15-.95-.4.25-.85 2.8.4 3.95 3 .1.1.15.1-.05.05-.1-.15.1.15-2.1.7-.25.05q-.1 1.65.85 3.15l.35.85q2.55 1.55 5.25 1.5l2.3-.3q.7-.1.85.2l-.5 2.4m-6.95-8.8-6.05-2.15 6.05 2.15m35.05-12 2.05-2.05-2.05 2.05" transform="translate(46 51.15)"/><path fill-rule="evenodd" fill="#fe6a4b" d="m29.65-23.1-.05.2-3.05.1-.1-.05h.3l1.65-.2h.05l.85-.2.35.15M20.1-36.4l-.15.1-.1-.2.25.1m-6.75-1.4h-.45l.65-.2-.2.2m-6.1 12.15.05.05-.05.1v-.15m-4.9-6.5.05.1-.3.1.25-.2m24.5 17.9-.05.05-.9.45.95-.5" transform="translate(46 51.15)"/><path fill-rule="evenodd" fill="#fa8d3f" d="m29.65-23.1.5-.35q1.15-.95 2-2.35l1.3-2.3.75-1.6q3.5.35 5.4 5.85l-1.15.65-.2.25q-5.1 5.2-11.4 8.7l1.5-1.75-2.85.35q-2.85 1.2-5.65.3v-1.1l.45-1.35-5.2-.45-8.75.65.15-1.55q6.75-2.6 14.85-2.25l5.25-.65 3.5-.95-.5.1.05-.2m-9.7-13.2-2.8 1.5-.2.15q-1.35.7-1.65 2.05l-.05.2H15q-4.9 2.5-7.7 6.8l-.05-.05-.55-.85-.35-.65q-.15-.5-.15-1l-.05-.9.2-1.35-.2-.2q-.9-.05-1.6-.65l-.6-.5q-.75-.55-1.55-.3l-.05-.1q5.9-2.05 11-5.65l2.45.25 4.05 1.05.1.2M3.85-16.65l.45 1q.6 1 .2 2.15-1.2 1.65-2.9 2.65-.9.6-2.05.8L-.8-7.7l-6.4.2q1.05-1.85 4.75-3.85 5.35-3 1.8-4.3l-.5-2.3 5 1.3" transform="translate(46 51.15)"/><path fill-rule="evenodd" fill="#f30" d="m22.3-37.85-1.6 1.05 1.55-1.1.05.05m17.7 28 .1.05-.2.2.1-.25m-44.75-6.6h-.3l.35-.6-.05.6m23.1 33.25q-3.35.5-5.75 2.05L9.95 20.4l1.4-1q3.1-2.55 6.2-3.4l.8.8" transform="translate(46 51.15)"/><path fill-rule="evenodd" fill="#b1b1b1" d="M12.65-12.95Q14.2 2.8 9.5 1q-4.6-2.65.55-8.6l2.6-5.35" transform="translate(46 51.15)"/><path fill-rule="evenodd" fill="#9e1c01" d="m5.65 21 1.7-.55q2.95-1.1 5.8-3.25 1.85-1.45 4.55-2.4 1.9-.7 2.85-.7L18.9 20q-3.45-.2-6.15.9-4.05 1.75-7.1.1m12.7-4.2-.8-.8q-3.1.85-6.2 3.4l-1.4 1 2.65-1.55q2.4-1.55 5.75-2.05" transform="translate(46 51.15)"/><path fill-rule="evenodd" fill="#d5d5aa" d="m-4.2 37.95 3.15-.35 7.25-.9-.1-.85q.35.1.6.7l.55 1.05 1.2 2.4.3.15.75.5q.7.55 1.5.5l.15.2.3.15q.85.45 1 1.35l-1.3.95-7.9 1-5.55 1.25-.5-2.85q-.6-3.1-1.4-5.25" transform="translate(46 51.15)"/><path stroke-width=".5" stroke-opacity=".502" stroke-linejoin="round" stroke-linecap="round" stroke="#52371d" fill="none" d="m69.7 12.3 1.15-.95 3.3-3 3.4-4.3Q80.2.4 80.9 1.1l.25.45q.55 1.3.95 5.9l.25 3.9-.2 4-.9 3.4 5.9 4.6q3.05 2.85 3.7 8.1L91 33.1q.25 4.55-.85 8.25-.85 2.85-9 11-1 1-4.55 3.3l-.35.25-.65.4-2.45 1.5v3.55l-2 1 .75 1.55q.65 1.85.25 3.45-.45 1.85-1.85 4.55l-.2.4-1.95 3.05-.95.95 2.3 2.05.65.65v.05q2.75 2.8 3 4.3l.05.35q-.05 1.5-1.5 6.9l-.05.05-.05-.1-4.6-6.2 1.8 5.8.35 1.2-3.2 3.25m-.45.45-.35.3-.15-.2-3.2-3.65-.15-.15.2 2.3.3 3.7q-6.15 3.9-11 4h-6l.35-.7.65-1.3q-1.45 1.9-4 2l-3.45-.45-1.55-.55.1-1.15-.2-.05h-.15l-5.75-1.8q-1.6-.6-3.45-2.85l-1.55-2.15-2.1-4.15-.95-.4-.95-.45q-1.85-.85-1.8-3.3.05-1.55.8-3.7.4-1.1 2.25-1.65l1.5-.3.25-.05v-.1l-1-2.9 3-1 .65-2.45-2.45.15H21.5l-5.9-.55-5.45-1.15Q4.9 68.9 2.5 63q-2-4.8-1.35-9.65.15-1 .7-2.25.85-2.05 2.8-4.65l.6-.75-3.1-5.35.7.2 5.55 1.4 1.2-1.3 2.2-2.25.25-.25m1.7-1.6 1-.85.1-.1.1-.05.05-.05.15-.15q2.5-2.1 4.75-6.75l.7-1.45 2.05-4.65-.35-.8-.55-1.4-.6-1.95-1.55-7-.05-.15q-1.1-5.45-.6-6.6l.2-.25q.65-.4 6.45 5.65l1.3 1.35 3.05 2.95L33 12l1.15-.65 2.15-1.15q1.9-1 6.95-1.35l8.75-.5.9-2.15q1.95-4.1 3.25-3.85l.8.8 1.2 3.2.5 2.8 8.5 2.2 2.55.95-1.4 1-1.6 1.05-.6.4-.15.1-2.8 1.5-.2.15q-1.35.7-1.65 2.05l-.05.2q-.2 1.15.4 2.75l.05.1m18.5-.15 1.05-2.7m-1.05 2.7-.75 1.6-1.3 2.3q-.85 1.4-2 2.35l-.5.35-.35-.15m-12.35-3.95.35.3M51.7 9.1l.3-.75m7.05 3.35-.4-2.55M51.7 9.1l-.35 1m11.6 13.85-.2-.3-1.05-2.05m-15.95 26 .2-.7q.9-2.35 4.2-3.55 1.45-.55 3.05-1.4l.45-1.15q1.8-3.75 3.5-4.45l1.9-.45q2.45-.1 3.1 3.45 1.55 8.5 0 12L60.6 55l-.05.15-.85 1.3q-.75.85-1.55.9l-1 .05M76.6 37.9l.25-.2 2.2-1.4q2.25-1.45 4.3-3.35l1.4-1.15q.75-.4 1.05.2.4.95.65 3.5.25 2.5.1 3.75L86 41.3m-33.65 2.6.25-.6.6-1.35m-.85 1.95q-.15.15-.45-.35m-6.15 5.55q.25 1.55 1.5 3.5l.8 1.15 1.4 1.55.15.15.35.3q.9.7 1.85 1.05l.45.15.2.05.5.15 4.15.25h.05m19.1-15.55.4.75m5.75 3.5.75.25h.05q.95-.05 2.05-2.95l.65-1.85.1-.25m-10.1-.2q-.5-1.1-.45-1.75 0-.5.25-.75l.15-.2.2-.15.2-.1.25-.2.1-.05m-.35 3.95-.3-.6-.05-.15m1.2 2.2-.45-.7m5.75 3.5-1.4-.45-.75-.45m-50.3-30.9q2.1 1.95 3.2 2.5l2.05 1.5q4.65.9 8.95 1.05 1.25 1.3 1.15 3.4-.1 1.05-.5 2.3m.95 22.55v1.5M44.2 26.65l.25-.65.35-.95m-9.6-6.75 2.2 1.1m-13.1 6.25-1.65-3.15m1.65 3.15 2.9 4.65.55.75 1.7 2.35.05.05v.05l.6.9m1.6.9 3.55-.3m.8-.2q1.5-.45 2.85-1.25 1-.65 1.9-1.6l.7-.75q1.45-1.85 2.7-4.55m-25.55 14.2.5.5 1.4 1.7m-7.25 1.2q.35-3.4 1.7-6.45l.05-.2.1-.25.1.1.3.3 3.1 3.1m-4.9-4.3-1.7 1.6m-3.65 3.8 1.75.4q-.35 1.7-.15 1.8v.05q-1.6 1.65-2.75 2.5-.6.4-1.1.65l-.9-1.65m9.45 7.4-.2-.65-.2-.7-1.15-5.4.15-2.1m1.4 8.85.2.55q.7 1.65 2.15 2.6 1.2.8 2.25.85l1.1-.2.55-.25 2.2-1.3q1-.45 1.8-1.6l.9-1.65.3-.7.25-.9q.2-1.1-.1-1.85l-.05-.3m-2.1-2.75-1-.25-2.6-2.3m3.6 2.55 3 .75m.65 25.55.7-.05 1.2-.1 2.4-.25 1.05-.15 4.6-.65 11.1-2.15 3.4-.85 4.5-1.4.8-.3 1.6-.65q3.65-1.55 9.35-4.8l3.45-2.05 1.2-.7m-48.2 20.7.4.55 1.65 2.5 2.15.8.15.35.6.3 1.25.35 1.35.1 5.65-.1 4.95-.6.55-.05m-18.7-4.2-.05-.1m34.3 3.85-2.7.45-1.35-1.35-.1.1-1.9.9q-1.95.2-4.75.05l-.25-.05-4.5.35M30.1 90.35h.05l.05.1.1.15.85 1.75m28.5-8.3q.25 1.4-.5 2.3M37.25 99.2v-.1q.2-1.55.9-2.75m-14.1-8.15 6.05 2.15m36.45-25.1.6.1 2 1m-17.5 5.8-1.5.2q-1.4 0-.85-1l.45-.95m1.9 1.75 1.7-.55q2.95-1.1 5.8-3.25 1.85-1.45 4.55-2.4 1.9-.7 2.85-.7l-1.65 5.9q-3.45-.2-6.15.9-4.05 1.75-7.1.1m7.55 10.1-.05.35.5 1.45m7.55-7.75-2.05 2.05"/></g><path fill-rule="evenodd" fill-opacity="0" fill="#f0f" d="M0 0h102.95v45H0V0" id="a"/><use xlink:href="#a" width="102.95" height="45" id="d"/></defs><path fill="none" d="M-1-1h125v140H-1z"/><use x="66.05" y="175.5" xlink:href="#b" width="381" transform="translate(-192.55 -294)" height="381"/><use x="-51.229" y="136.12" xlink:href="#c" width="92.05" transform="matrix(-1.2893 0 0 1.2893 54.31 -173.75)" height="102.35"/><use xlink:href="#d" width="102.95" transform="matrix(2.1181 0 0 1.9383 -48 36.85)" height="45"/></svg>