<svg width="73" height="71" xmlns="http://www.w3.org/2000/svg" xmlns:xlink="http://www.w3.org/1999/xlink"><defs><g id="d" stroke-opacity="0" stroke-linejoin="round" stroke-linecap="round" stroke="#f0f" fill="none"><path d="M187.95-293.5v380h-380v-380h380M92.95.6H-97" transform="translate(192.55 294)"/><path d="m187.95-293.5-190 190 190 190m-380-380 190 190L-192 86.5" transform="translate(192.55 294)"/></g><g id="e"><path stroke-width="4" stroke-linejoin="round" stroke-linecap="round" stroke="#422e00" fill="none" d="M53.05 5.05 55.6 6.5l1 .7q1.85.6 3.85 1.6 5.3 2.75 8.95 7.05 2.05.6 4.15 1.6 8.95 4.05 14.15 12.6 5 8.55 5.7 18.6.3 2.95.9 6 1.1 5.7-2.35 9.65-2.2 2.55-4.95 4.2 2.35 1.8-4.3 4.75l-1.3.5-1.75 6.45-9.35 9.65-1.8-14.05 2.35-.2-2.45.2q-7.85.5-16.15.4h-.65l.1 11.8-7-3.05-3.35-4.45-1.2-5.7h-.1l-3.8-1.35-.9-.6q-3.25-.8-6.4-2.35-7-3.65-11-9.85-2-1.7-3.55-3.55-2.65-1.5-4.75-3.35-4.3-4.15-6.3-10.15Q2.4 40.75 2.1 38q-.3-3.65.5-7.1.55-2.75 2.05-5.4Q8.2 18.35 15.25 15 20.2 8.6 27.5 5.15l2.45-1.1.95-.3q11.65-4.1 22.15 1.3z"/><path fill-rule="evenodd" fill="#457924" d="m48.2-36.05 6.3.65 1.95.6 1.2.4.3.1-.1.2q-1.55-.8-3.35-1.1l-6.3-.85" transform="translate(-1.05 41.6)"/><path fill-rule="evenodd" fill="#ac510f" d="m57.65-34.4-1.2-.4-1.95-.6-6.3-.65-4.4.5h-.1l-5.45 1.35q4.85-3.35.2-3.75-4.6-.4-6.5.1 11.65-4.1 22.15 1.3l2.55 1.45 1 .7m.2.3.1-.2 3.55 1.5q5.3 2.75 8.95 7.05-3.35-1.05-6.7-1.35-.9-3.05-2.95-4.95l-2.95-2.05M16.3-26.6q-2.05 2.75-3.6 6-1.8 3.35-2.75 6.75-1.1 3.65-1.3 7.4-.3 5.2 1.2 10.45.85 3.55 2.45 6.5 1.25 2.75 3.15 5-2.65-1.5-4.75-3.35Q6.4 8 4.4 2 3.45-.85 3.15-3.6q-.3-3.65.5-7.1.55-2.75 2.05-5.4 3.55-7.15 10.6-10.5" transform="translate(-1.05 41.6)"/><path fill-rule="evenodd" fill="#f5931b" d="m48.2-36.05 6.3.85q1.8.3 3.35 1.1l2.95 2.05q2.05 1.9 2.95 4.95-3.25-.4-6.6-.1-3.85.95-7.55 2.25Q42.1-22 36.9-15.6q-5.4 6.4-7.1 14.15-.9 3.25-2.25 6.2-1.3 2.8-1.7 5.25-4-2.95-6-7.4Q17.1-3.1 18-11.15q.2-2.4.7-4.75l.6-2.75q6.45-10.7 18-15.15l.95-.4 5.45-1.35h.1l4.4-.5m-3.85 4.9q1.5-.7 2.4-.8.75-.1.65-1.05-.1-1-1.15-1.6-1.1-.5-2.35-.4-1.5.1-2.4.8-.95.8-.75 1.85.1 1 1.15 1.4 1 .5 2.45-.2" transform="translate(-1.05 41.6)"/><path fill-rule="evenodd" fill="#ee870b" d="M31.95-37.85q1.9-.5 6.5-.1 4.65.4-.2 3.75l-.95.4q-11.55 4.45-18 15.15l-1.2 2.45q-1 1.7-1.7 3.45l-1.45 2.65-.3.6Q11.5-4.65 10.4-7.35q-.65-1.75-.45-6.5.95-3.4 2.75-6.75 1.55-3.25 3.6-6 4.95-6.4 12.25-9.85v-.1l2.45-1 .95-.3m-.3 2.1q-.25-.8-1.15-.9-.9-.1-1.8.5-.95.5-1.55 1.35-.5.8-.1 1.6.3.7 1.2.7.75 0 1.65-.9.8-1 1.5-1.4.45-.3.25-.95" transform="translate(-1.05 41.6)"/><path fill-rule="evenodd" fill="#fed225" d="M44.35-31.15q-1.45.7-2.45.2-1.05-.4-1.15-1.4-.2-1.05.75-1.85.9-.7 2.4-.8 1.25-.1 2.35.4 1.05.6 1.15 1.6.1.95-.65 1.05-.9.1-2.4.8m-12.7-4.6q.2.65-.25.95-.7.4-1.5 1.4-.9.9-1.65.9-.9 0-1.2-.7-.4-.8.1-1.6.6-.85 1.55-1.35.9-.6 1.8-.5.9.1 1.15.9m7.8 45.85.2.1q9.35 0 16.7 2.55h1.8q1.55.8-.8 1.75l-2.45.3-8.95-1.25-4.35-.4-2.45-.9q-2.75-1.55.3-2.15m27.65 2.05.8-.1-.8-.2q-2.15-.8.1-2.05l3.25-.5q-3.15.3-3.15-3.05 0-3.35 4.35-4.55 4.2-1.25 5.5-3.3 1.25-2.2 3.35.45 1.95 2.6 1.35 5.75-.6 2.25-6 3.6l8.55-1.75q2.3 1 .2 2.55l2.3-.6.2 1.3q-2.3 1.65-6.7 2.45l-13 1.7q-2.25-.7-.3-1.7m.8-.1Q74.4 10 84.6 9q-10.2 1-16.7 3.05" transform="translate(-1.05 41.6)"/><path fill-rule="evenodd" fill="#303a74" d="M25.85 10q.4-2.45 1.7-5.25 1.35-2.95 2.25-6.2 1.7-7.75 7.1-14.15 5.2-6.4 12.7-9.35 3.7-1.3 7.55-2.25-3.35 1.05-6.2 2.75l-2.05 1.2q-3.55 2.25-6.6 5.4-7.1 7.35-8.75 17.5 4.05-6.7 7-9.25t6.55-2.85q3.65-.3 5.25 4.45 1.25 3.7 6.1 5.1 2.45-.2 3.05-10.05Q63.95-1.6 66.8-3.1q2.35-1.3 3.85-4.25 2.95-6 6.1-5.2 1.85.5 4.15 1.7 5.8 3.2 7.05 6.85 1.2 3.55.8 13.4l-.1.3h.1q-.7 9.15-12.7 13h-.1l-.9.3q-7.55 2.05-12.95 2.65l-7.2-.2q-6.9-1.3-11.4-2.95l-5.65-2.1q-1.85 1.2 7.9 7.2l-6.3.9q-4.8.4-.7 3.25l2.35 1.35.1.1-3.9-1.35-.9-.6-1.1-.6-.85-1 .3-3.4-3.95-2.9-.7-.55q-5.4-5.75-4.25-12.8m35.05 2.45q1-1.85.2-2.45-.7-.6-1.6-.9-.55-7.5-5.1-8.45-4.6-1.1-7.65-4.45-3.15-3.35-5.35 0Q38.65.65 38.25 6.55q-1.15.9-1.15 1.55-.1.6.3 1.5-2.2 1.35 1.15 3.45.4 2.35 1.5 4.1v.1l1.25 1.7q2.85 3.05 7 4.15l.6.15q1.55.3 2.95 0 2.65-.55 4.6-3.4 1.3-2 2.1-4.15 3.95-1.85 2.35-3.25M93 22.7q-2.2 2.55-4.95 4.2 2.35 1.8-4.3 4.75 5.6-4.75-6.4-4.55l4.1-.4q6-.75 11.55-4M87.55 8.2q.4-.95.4-1.65 0-.6-1.15-1.4v-.3q-.4-5.7-2.75-9.8-2.5-4.25-6.3.1-3.85 4.2-8.2 4.8-4.3.6-4.2 8.45l-1.5 1q-.8.6.2 2.55-1.65 1.4 2.25 3.15.8 2.05 2.1 4.05 1.25 1.85 2.95 2.75 1.65.8 3.6.6l.8-.2h.1q4.45-1.2 7.7-4.65 2.05-2.25 2.85-6 1.65-1.15 1.95-1.95.3-.9-.8-1.5" transform="translate(-1.05 41.6)"/><path fill-rule="evenodd" fill="#6470a2" d="M57.15-27.2q3.35-.3 6.6.1 3.35.3 6.7 1.35 2.05.6 4.15 1.6 8.95 4.05 14.15 12.6 5 8.55 5.7 18.6.3 2.95.9 6 1.1 5.7-2.35 9.65-5.55 3.25-11.55 4l-4.1.4q12-.2 6.4 4.55l-1.3.5Q78.1 33.4 71.9 34l-2.45.2q-7.85.5-16.15.4l-.65-.3-11.55-1.2-2.35-1.35q-4.1-2.85.7-3.25l.2.2-.2-.2 6.3-.9q-9.75-6-7.9-7.2l5.65 2.1q4.5 1.65 11.4 2.95l7.2.2q5.4-.6 12.95-2.65l.9-.3h.1q12-3.85 12.7-13v-.3q.4-9.85-.8-13.4-1.25-3.65-7.05-6.85-2.3-1.2-4.15-1.7-3.15-.8-6.1 5.2-1.5 2.95-3.85 4.25-2.85 1.5-5.3-9.85-.6 9.85-3.05 10.05-4.85-1.4-6.1-5.1-1.6-4.75-5.25-4.45-3.6.3-6.55 2.85-2.95 2.55-7 9.25 1.65-10.15 8.75-17.5 3.05-3.15 6.6-5.4l2.05-1.2q2.85-1.7 6.2-2.75m7.2 3.45-.3.85q-.1 1 .9 1.6l.1.1 2.45.1 2.45-.4q.8 0 .9-.9 0-1.05-1-1.85-.9-.6-2.25-.7-1.5-.1-2.45.5l-.8.7" transform="translate(-1.05 41.6)"/><path fill-rule="evenodd" fill="#c45c11" d="m19.3-18.65-.6 2.75q-.5 2.35-.7 4.75-.9 8.05 1.85 13.75 2 4.45 6 7.4-1.15 7.05 4.25 12.8l.7.55 3.95 2.9-.3 3.4.85 1-.1.3q-2.65-.8-5.2-2.05-7-3.65-11-9.85-2-1.7-3.55-3.55-1.9-2.25-3.15-5Q10.7 7.55 9.85 4q-1.5-5.25-1.2-10.45.2-3.75 1.3-7.4-.2 4.75.45 6.5 1.1 2.7 4.25-2.15l.3-.6 1.45-2.65q.7-1.75 1.7-3.45l1.2-2.45m-2.9 5.9-.95 2.85-.2.6Q12.7-.75 14.65 8l.4 1.8q1.35 5.1 3.95 9.25-2.6-4.15-3.95-9.25l-.4-1.8q-1.95-8.75.6-17.3l.2-.6.95-2.85" transform="translate(-1.05 41.6)"/><path fill-rule="evenodd" fill="#dfaf0d" d="M37.4 9.6q-.4-.9-.3-1.5 0-.65 1.15-1.55.4-5.9 3.15-10.35 2.2-3.35 5.35 0Q49.8-.45 54.4.65q4.55.95 5.1 8.45.9.3 1.6.9.8.6-.2 2.45l-2.75.3h-1.8q1.7-.4 2.7-1 .85-.7-2.4-2.05l-2.85-.3q1.7.1 2.75-1.1l-.2-3.65q-.25-3.2-4.3-3.9-4.05-.7-6.1-2.55Q43.8-3.9 42-.45q-1.85 3.45-.4 5.3 2.75 2.8 8 4.25L39.45 7.65q-2.25.75 0 2.45l.2.1-.2-.1-2.05-.5m26.65 2.35q-1-1.95-.2-2.55l1.5-1q-.1-7.85 4.2-8.45 4.35-.6 8.2-4.8 3.8-4.35 6.3-.1 2.35 4.1 2.75 9.8v.3q1.15.8 1.15 1.4 0 .7-.4 1.65l-.65.2-2.3.6q2.1-1.55-.2-2.55L75.85 8.2q5.4-1.35 6-3.6.6-3.15-1.35-5.75-2.1-2.65-3.35-.45-1.3 2.05-5.5 3.3-4.35 1.2-4.35 4.55 0 3.35 3.15 3.05l-3.25.5q-2.25 1.25-.1 2.05l.8.2-.8.1-3.05-.2" transform="translate(-1.05 41.6)"/><path fill-rule="evenodd" fill="#ffe242" d="m39.65 10.2-.2-.1q-2.25-1.7 0-2.45L49.6 9.1q-5.25-1.45-8-4.25Q40.15 3 42-.45q1.8-3.45 3.95-1.35Q48 .05 52.05.75q4.05.7 4.3 3.9l.2 3.65Q55.5 9.5 53.8 9.4l2.85.3q3.25 1.35 2.4 2.05-1 .6-2.7 1Q49 10.2 39.65 10.2" transform="translate(-1.05 41.6)"/><path fill-rule="evenodd" fill="#ceebec" d="m64.35-23.75.8-.7q.95-.6 2.45-.5 1.35.1 2.25.7 1 .8 1 1.85-.1.9-.9.9l-2.45.4-2.45-.1-.1-.1q-1-.6-.9-1.6l.3-.85" transform="translate(-1.05 41.6)"/><path fill-rule="evenodd" fill="#51a02e" d="M88.75 9.7h-.1l.1-.3v.3" transform="translate(-1.05 41.6)"/><path fill-rule="evenodd" fill="#ca9e0b" d="m37.4 9.6 2.05.5q-3.05.6-.3 2.15l2.45.9 4.35.4 8.95 1.25 2.45-.3q2.35-.95.8-1.75l2.75-.3q1.6 1.4-2.35 3.25-.8 2.15-2.1 4.15-1.95 2.85-4.6 3.4-1.4.3-2.95 0l-.6-.15q-4.15-1.1-7-4.15l-1.25-1.7v-.1q-1.1-1.75-1.5-4.1-3.35-2.1-1.15-3.45m26.65 2.35 3.05.2q-1.95 1 .3 1.7l13-1.7q4.4-.8 6.7-2.45l-.2-1.3.65-.2q1.1.6.8 1.5-.3.8-1.95 1.95-.8 3.75-2.85 6-3.25 3.45-7.7 4.65h-.1l-.8.2q-1.95.2-3.6-.6-1.7-.9-2.95-2.75-1.3-2-2.1-4.05-3.9-1.75-2.25-3.15M43.2 16.9q.95 2.75 3.35 3.5 2.25.8 3.65.7 1.35-.1 2.95-1.15 1.55-1.2.55-1.8-1.05-.7-5.4-1.85l-5.4-1.1.3 1.7" transform="translate(-1.05 41.6)"/><path fill-rule="evenodd" fill="#e9dbad" d="m81.45 35.75-.75 3.05-9.15 9.25-1.1-11.3q3.75 1.7 11-1m-29.3 1.4.6 9.55-7.4-3.65-2.95-4.15-.6-3.05q4.55 2 10.35 1.3" transform="translate(-1.05 41.6)"/><path fill-rule="evenodd" fill="#b19172" d="m82.45 32.15-1 3.6q-7.25 2.7-11 1l-.9-2.55 2.35-.2q6.2-.6 10.55-1.85m-29.8 2.45-.5 2.55q-5.8.7-10.35-1.3l-.6-2.65-.1-.1 11.55 1.2v.3" transform="translate(-1.05 41.6)"/><path fill-rule="evenodd" fill="url(#a)" d="m43.2 16.9-.3-1.7 5.4 1.1q4.35 1.15 5.4 1.85 1 .6-.55 1.8-1.6 1.05-2.95 1.15-1.4.1-3.65-.7-2.4-.75-3.35-3.5" transform="translate(-1.05 41.6)"/><path fill-rule="evenodd" fill="#2b659d" d="m36.4 31.25-1.2-.3.1-.3 1.1.6" transform="translate(-1.05 41.6)"/><path fill-rule="evenodd" fill="#578fd2" d="M53.3 34.6h-.65v-.3l.65.3" transform="translate(-1.05 41.6)"/><path fill-rule="evenodd" fill="#2f6ab0" d="m39.45 28.5.2.2-.2-.2" transform="translate(-1.05 41.6)"/><path stroke-width=".05" stroke-opacity=".463" stroke-linejoin="round" stroke-linecap="round" stroke="#1a2340" fill="none" d="m56.6 7.2-1.2-.4-1.95-.6-6.3-.65M37.2 7.4l5.45-1.35h.1l4.4-.5M37.2 7.4l-.95.4q-11.55 4.45-18 15.15M24.8 51.6q.4-2.45 1.7-5.25 1.35-2.95 2.25-6.2 1.7-7.75 7.1-14.15 5.2-6.4 12.7-9.35 3.7-1.3 7.55-2.25 3.35-.3 6.6.1 3.35.3 6.7 1.35 2.05.6 4.15 1.6 8.95 4.05 14.15 12.6 5 8.55 5.7 18.6.3 2.95.9 6 1.1 5.7-2.35 9.65-2.2 2.55-4.95 4.2 2.35 1.8-4.3 4.75l-1.3.5-1 3.6-.75 3.05-9.15 9.25-1.1-11.3-.9-2.55 2.35-.2-2.45.2q-7.85.5-16.15.4h-.65l-.5 2.55.6 9.55-7.4-3.65-2.95-4.15-.6-3.05-.6-2.65M15.25 15q-2.05 2.75-3.6 6-1.8 3.35-2.75 6.75m6.45 1.1q.7-1.75 1.7-3.45l1.2-2.45m18 50.5-.9-.6m-17.4-12.2Q15.35 56.5 14 51.4l-.4-1.8q-1.95-8.75.6-17.3l.2-.6.95-2.85M14.4 57.1q-1.9-2.25-3.15-5-1.6-2.95-2.45-6.5-1.5-5.25-1.2-10.45.2-3.75 1.3-7.4M70.85 75.6q6.2-.6 10.55-1.85M24.8 51.6q-1.15 7.05 4.25 12.8l.7.55 3.95 2.9-.3 3.4.85 1 1.1.6M51.6 76.2v-.3l-11.55-1.2"/><path stroke-width=".05" stroke-linejoin="round" stroke-linecap="round" stroke="#002e4f" fill="none" d="m56.9 7.3-.3-.1m-1-.7-2.55-1.45q-10.5-5.4-22.15-1.3l-.95.3-2.45 1v.1Q20.2 8.6 15.25 15m54.15.85q-3.65-4.3-8.95-7.05L56.9 7.3M35.35 72.85l-1.2-.3q-2.65-.8-5.2-2.05-7-3.65-11-9.85-2-1.7-3.55-3.55-2.65-1.5-4.75-3.35-4.3-4.15-6.3-10.15Q2.4 40.75 2.1 38q-.3-3.65.5-7.1.55-2.75 2.05-5.4Q8.2 18.35 15.25 15"/><path stroke-width=".05" stroke-opacity=".514" stroke-linejoin="round" stroke-linecap="round" stroke="#272d45" fill="none" d="M59.85 54.05q1-1.85.2-2.45-.7-.6-1.6-.9-.55-7.5-5.1-8.45-4.6-1.1-7.65-4.45-3.15-3.35-5.35 0-2.75 4.45-3.15 10.35-1.15.9-1.15 1.55-.1.6.3 1.5m23.5 2.85q1.6 1.4-2.35 3.25-.8 2.15-2.1 4.15-1.95 2.85-4.6 3.4-1.4.3-2.95 0l-.6-.15q-4.15-1.1-7-4.15L39 58.85m0-.1q-1.1-1.75-1.5-4.1-3.35-2.1-1.15-3.45m50.15-1.4q.4-.95.4-1.65 0-.6-1.15-1.4v-.3q-.4-5.7-2.75-9.8-2.5-4.25-6.3.1-3.85 4.2-8.2 4.8-4.3.6-4.2 8.45l-1.5 1q-.8.6.2 2.55m23.5-3.75q1.1.6.8 1.5-.3.8-1.95 1.95-.8 3.75-2.85 6-3.25 3.45-7.7 4.65h-.1l-.8.2q-1.95.2-3.6-.6-1.7-.9-2.95-2.75-1.3-2-2.1-4.05-3.9-1.75-2.25-3.15"/><path stroke-width=".05" stroke-linejoin="round" stroke-linecap="round" stroke="#916606" fill="none" d="m36.35 51.2 2.05.5.2.1q9.35 0 16.7 2.55h1.8l2.75-.3m3.15-.5 3.05.2.8-.1m16.7-3.05 2.3-.6.65-.2m-2.95.8q-10.2 1-16.7 3.05"/></g><linearGradient y2="1.349" y1=".157" x2=".656" x1=".612" spreadMethod="pad" id="a"><stop stop-color="#fed225" offset="0"/><stop stop-color="#ca9e0b" offset="1"/></linearGradient><path fill-rule="evenodd" fill-opacity="0" fill="#f0f" d="M0 0h102.95v45H0V0" id="b"/><use xlink:href="#b" width="102.95" height="45" id="c"/></defs><path fill="none" d="M-1-1h75v73H-1z"/><use x="-86.875" y="-102.794" xlink:href="#c" width="102.95" transform="matrix(1.8072 0 0 1.6538 83 165.3)" height="45"/><use x="35.05" y="123.5" xlink:href="#d" width="381" transform="translate(-192.55 -294)" height="381"/><use x="219.98" y="-238.195" xlink:href="#e" width="96.55" transform="matrix(-.7137 0 0 .7137 227.3 172.46)" height="91.85"/></svg>