<svg width="75" height="66" xmlns="http://www.w3.org/2000/svg" xmlns:xlink="http://www.w3.org/1999/xlink"><defs><g id="c" stroke-opacity="0" stroke-linejoin="round" stroke-linecap="round" stroke="#f0f" fill="none"><path d="M187.95-293.5v380h-380v-380h380M92.95.6H-97" transform="translate(192.55 294)"/><path d="m187.95-293.5-190 190 190 190m-380-380 190 190L-192 86.5" transform="translate(192.55 294)"/></g><g id="d"><path stroke-width="4" stroke-linejoin="round" stroke-linecap="round" stroke="#164800" fill="none" d="M31.1 3.8Q42.8-.35 53.4 5.1q1.3.6 2.6 1.5l.95.7q1.9.55 3.9 1.55 5.35 2.8 9 7.15 2.1.6 4.15 1.6 9.05 4.05 14.3 12.65Q93.35 38.9 94.05 49l.85 6.05q1.1 5.75-2.35 9.7-2.2 2.55-4.95 4.25 2.35 1.8-4.35 4.75l-1.3.5-1.8 6.75-5.35 1.5-3.85-.1-2-6.05 2.4-.2-2.5.2q-7.9.5-16.25.4h-.7l-1.05 5.85-3.8.05-5.45-1.55-1.15-5.75h-.1l-3.9-1.4-.9-.6q-3.25-.8-6.4-2.35-7.05-3.7-11.1-9.9-2-1.7-3.6-3.6Q11.8 56 9.7 54.15 5.35 50 3.35 43.95q-.95-2.9-1.25-5.65-.3-3.7.5-7.15.6-2.75 2.05-5.45 3.6-7.25 10.7-10.6 4.95-6.45 12.3-9.9l2.45-1.1 1-.3z"/><path fill-rule="evenodd" fill="#457924" d="m47.9-30.85 6.35.7 2 .6 1.15.4-1.15-.4-2-.6-6.35-.7-4.45.5h-.1q-2.65.4-5.45 1.35 4.85-3.35.2-3.75-4.65-.4-6.55.1 11.7-4.15 22.3 1.3 1.3.6 2.6 1.5l.95.7.3.05-.1.2q-1.55-.75-3.35-1.05l-6.35-.9M18.8-13.3l-.6 2.75q-.5 2.4-.7 4.75-.9 8.15 1.9 13.9 1.95 4.45 6 7.4-1.15 7.15 4.3 12.9l.7.6 3.95 2.85-.3 3.5.9.95-.1.3q-2.7-.8-5.25-2.05-7.05-3.7-11.1-9.9-2-1.7-3.6-3.6-2.65-1.5-4.75-3.35Q5.8 13.55 3.8 7.5q-.95-2.9-1.25-5.65-.3-3.7.5-7.15.6-2.75 2.05-5.45Q8.7-18 15.8-21.35q-2.05 2.8-3.65 6.05-1.8 3.35-2.8 6.85-.2 4.75.5 6.5 1.1 2.7 4.3-2.15l.25-.6 1.5-2.7 1.7-3.45 1.2-2.45M9.35-8.45Q8.3-4.8 8.1-1.05 7.8 4.2 9.25 9.45q.9 3.6 2.5 6.55 1.3 2.8 3.15 5.05-1.85-2.25-3.15-5.05-1.6-2.95-2.5-6.55Q7.8 4.2 8.1-1.05q.2-3.75 1.25-7.4M15.9-7.4l-1 2.9-.2.6q-2.55 8.6-.55 17.45l.35 1.75q1.4 5.15 4 9.35-2.6-4.2-4-9.35l-.35-1.75q-2-8.85.55-17.45l.2-.6 1-2.9" transform="translate(-.45 36.45)"/><path fill-rule="evenodd" fill="#60b02f" d="m47.9-30.85 6.35.9q1.8.3 3.35 1.05l3 2.1q2.1 1.9 2.95 4.95-3.25-.4-6.6-.1l-7.65 2.3q-7.55 2.95-12.8 9.4Q31.05-3.8 29.4 4q-.9 3.3-2.3 6.25-1.3 2.8-1.7 5.25-4.05-2.95-6-7.4-2.8-5.75-1.9-13.9.2-2.35.7-4.75l.6-2.75q6.5-10.8 18.1-15.3l1-.4q2.8-.95 5.45-1.35h.1l4.45-.5m-3.85 4.95q1.5-.7 2.4-.8.75-.1.65-1.1-.1-1-1.15-1.55-1.1-.5-2.4-.4-1.5.1-2.35.75-1 .8-.8 1.9.1 1 1.15 1.4 1 .5 2.5-.2" transform="translate(-.45 36.45)"/><path fill-rule="evenodd" fill="#64992f" d="M31.55-32.65q1.9-.5 6.55-.1T37.9-29l-1 .4q-11.6 4.5-18.1 15.3l-1.2 2.45-1.7 3.45-1.5 2.7-.25.6q-3.2 4.85-4.3 2.15-.7-1.75-.5-6.5 1-3.5 2.8-6.85 1.6-3.25 3.65-6.05 4.95-6.45 12.3-9.9v-.1l2.45-1 1-.3m-.3 2.1q-.3-.8-1.15-.9-.9-.1-1.8.5-1 .5-1.6 1.4-.5.75-.1 1.55.3.7 1.2.7.8 0 1.7-.9l1.45-1.35q.5-.3.3-1" transform="translate(-.45 36.45)"/><path fill-rule="evenodd" fill="#fed225" d="M44.05-25.9q-1.5.7-2.5.2-1.05-.4-1.15-1.4-.2-1.1.8-1.9.85-.65 2.35-.75 1.3-.1 2.4.4 1.05.55 1.15 1.55.1 1-.65 1.1-.9.1-2.4.8m-12.8-4.65q.2.7-.3 1L29.5-28.2q-.9.9-1.7.9-.9 0-1.2-.7-.4-.8.1-1.55.6-.9 1.6-1.4.9-.6 1.8-.5.85.1 1.15.9M39.1 15.6l.2.1q9.4 0 16.85 2.6h1.75q1.6.8-.75 1.75l-2.5.3-9-1.25-4.4-.4-2.45-.9q-2.8-1.6.3-2.2m25.85-34.75q1-.6 2.5-.5 1.35.1 2.25.7 1 .75 1 1.85-.1.9-.9.9l-2.45.4-2.5-.1-.1-.1q-1-.6-.9-1.6 0-.5.3-.85l.8-.7m2 36.85.8-.1-.8-.2q-2.2-.8.1-2.1l3.25-.5q-3.15.3-3.15-3.05 0-3.35 3.05-7.45 3-4.15 5.45-3.55 2.5.6 4.75 3.15 2 3 1.4 6.15-.6 2.3-6.05 3.7l8.6-1.8q2.3 1 .2 2.55l2.3-.6.2 1.3q-2.3 1.7-6.75 2.5l-13.05 1.65q-2.3-.65-.3-1.65m.8-.1q6.5-2.1 16.8-3.1-10.3 1-16.8 3.1" transform="translate(-.45 36.45)"/><path fill-rule="evenodd" fill="#499229" d="m57.6-28.9.1-.2 3.6 1.5q5.35 2.8 9 7.15-3.35-1.1-6.75-1.4-.85-3.05-2.95-4.95l-3-2.1M25.4 15.5q.4-2.45 1.7-5.25Q28.5 7.3 29.4 4q1.65-7.8 7.1-14.25 5.25-6.45 12.8-9.4l7.65-2.3q-3.4 1.1-6.25 2.8L48.6-18q-3.55 2.3-6.65 5.45-7.1 7.45-8.8 17.65 4.05-6.75 7.05-9.3 2.95-2.6 6.6-2.9 3.7-.3 5.2 2 1.45 2.2 8.4 1.5 6.85-.8 10.7-3 2.4-1.35 5.55-.6 1.9.5 4.15 1.7 5.85 3.3 7.15 6.95 1.2 3.55.8 13.45l-.1.3h.1q-.7 9.25-12.8 13.1h-.1q-.5.1-.9.3-7.6 2.05-13.05 2.65l-7.25-.2q-6.95-1.25-11.5-2.95L37.5 26q-1.85 1.2 7.95 7.25l-6.35.9q-4.85.4-.7 3.25l2.4 1.4.1.1-4-1.4-.9-.6-1.05-.6-.9-.95.3-3.5L30.4 29l-.7-.6q-5.45-5.75-4.3-12.9M60.7 18q1-1.9.2-2.5-.7-.6-1.6-.9.1-9.5-3.55-13.95Q52-3.9 45.25-2.15q-2 .4-4.15 3.8-2.8 4.45-3.2 10.4-1.2.9-1.2 1.6-.1.55.3 1.45-2.15 1.4 1.2 3.5.4 2.35 1.5 4.15v.1l1.3 1.7q2.85 3.05 7 4.15l.6.2q1.6.3 3 0 2.65-.6 4.65-3.5l2.05-4.15q4-1.9 2.4-3.25M93 28.3q-2.2 2.55-4.95 4.25 2.35 1.8-4.35 4.75 5.65-4.75-6.45-4.55l4.15-.4q6.05-.8 11.6-4.05m-5.45-14.55.4-1.7q0-.6-1.2-1.4v-.3Q86.35 4.6 84 .45 81.5-3.8 76.35-4.6q-5.15-.9-8.3 4.55-3.2 5.45-2.9 13.95-.8.4-1.5 1-.8.6.2 2.6-1.65 1.4 2.3 3.15.8 2.1 2.05 4.05 1.3 1.9 3 2.8 1.7.8 3.65.6l.8-.2h.1q4.45-1.2 7.75-4.65 2.05-2.3 2.85-6.05 1.7-1.2 2-2 .3-.9-.8-1.45" transform="translate(-.45 36.45)"/><path fill-rule="evenodd" fill="#5ec032" d="M56.95-21.95q3.35-.3 6.6.1 3.4.3 6.75 1.4 2.1.6 4.15 1.6Q83.5-14.8 88.75-6.2q5.05 8.65 5.75 18.75l.85 6.05q1.1 5.75-2.35 9.7-5.55 3.25-11.6 4.05l-4.15.4q12.1-.2 6.45 4.55l-1.3.5q-4.35 1.3-10.6 1.9l-2.5.2q-7.9.5-16.25.4l-.7-.3-11.55-1.2-2.4-1.4q-4.15-2.85.7-3.25l6.35-.9Q35.65 27.2 37.5 26l5.65 2.1q4.55 1.7 11.5 2.95l7.25.2q5.45-.6 13.05-2.65.4-.2.9-.3h.1q12.1-3.85 12.8-13.1v-.3q.4-9.9-.8-13.45-1.3-3.65-7.15-6.95-2.25-1.2-4.15-1.7-3.15-.75-5.55.6-3.85 2.2-10.7 3-6.95.7-8.4-1.5-1.5-2.3-5.2-2-3.65.3-6.6 2.9-3 2.55-7.05 9.3 1.7-10.2 8.8-17.65 3.1-3.15 6.65-5.45l2.1-1.15q2.85-1.7 6.25-2.8m8 2.8-.8.7q-.3.35-.3.85-.1 1 .9 1.6l.1.1 2.5.1 2.45-.4q.8 0 .9-.9 0-1.1-1-1.85-.9-.6-2.25-.7-1.5-.1-2.5.5M39.1 34.15l.2.2-.2-.2" transform="translate(-.45 36.45)"/><path fill-rule="evenodd" fill="#dfaf0d" d="M37 15.1q-.4-.9-.3-1.45 0-.7 1.2-1.6.4-5.95 3.2-10.4 2.15-3.4 4.15-3.8Q52-3.9 55.75.65 59.4 5.1 59.3 14.6q.9.3 1.6.9.8.6-.2 2.5l-2.8.3h-1.75q1.65-.4 2.65-1 .9-.7-2.35-2.1l-2.9-.3q1.7.1 2.8-1.05l-.1-3.9q-.1-3.45-3-5.85-2.85-2.25-6.35-2.35-3.45-.2-5.25 3.25-1.85 3.5-.4 5.35 2.8 2.8 8.05 4.25l-10.2-1.45q-2.3.75 0 2.45l.2.1-.2-.1-2.1-.5m26.85 2.4q-1-2-.2-2.6.7-.6 1.5-1-.3-8.5 2.9-13.95 3.15-5.45 8.3-4.55Q81.5-3.8 84 .45q2.35 4.15 2.75 9.9v.3q1.2.8 1.2 1.4l-.4 1.7-.7.15-2.3.6q2.1-1.55-.2-2.55l-8.6 1.8q5.45-1.4 6.05-3.7.6-3.15-1.4-6.15-2.25-2.55-4.75-3.15Q73.2.15 70.2 4.3q-3.05 4.1-3.05 7.45 0 3.35 3.15 3.05l-3.25.5q-2.3 1.3-.1 2.1l.8.2-.8.1-3.1-.2" transform="translate(-.45 36.45)"/><path fill-rule="evenodd" fill="#ffe242" d="m39.3 15.7-.2-.1q-2.3-1.7 0-2.45l10.2 1.45q-5.25-1.45-8.05-4.25-1.45-1.85.4-5.35 1.8-3.45 5.25-3.25 3.5.1 6.35 2.35 2.9 2.4 3 5.85l.1 3.9q-1.1 1.15-2.8 1.05l2.9.3q3.25 1.4 2.35 2.1-1 .6-2.65 1-7.45-2.6-16.85-2.6" transform="translate(-.45 36.45)"/><path fill-rule="evenodd" fill="#51a02e" d="M88.75 14.9v.3h-.1l.1-.3" transform="translate(-.45 36.45)"/><path fill-rule="evenodd" fill="#ca9e0b" d="m37 15.1 2.1.5q-3.1.6-.3 2.2l2.45.9 4.4.4 9 1.25 2.5-.3q2.35-.95.75-1.75l2.8-.3q1.6 1.35-2.4 3.25l-2.05 4.15q-2 2.9-4.65 3.5-1.4.3-3 0l-.6-.2q-4.15-1.1-7-4.15l-1.3-1.7v-.1q-1.1-1.8-1.5-4.15-3.35-2.1-1.2-3.5m26.85 2.4 3.1.2q-2 1 .3 1.65L80.3 17.7q4.45-.8 6.75-2.5l-.2-1.3.7-.15q1.1.55.8 1.45-.3.8-2 2-.8 3.75-2.85 6.05-3.3 3.45-7.75 4.65h-.1l-.8.2q-1.95.2-3.65-.6-1.7-.9-3-2.8-1.25-1.95-2.05-4.05-3.95-1.75-2.3-3.15m-21 4.95q1 2.75 3.4 3.55 2.25.8 3.65.7 1.4-.1 2.95-1.2 1.6-1.15.6-1.75-1.1-.7-5.45-1.9l-5.45-1.1.3 1.7" transform="translate(-.45 36.45)"/><path fill-rule="evenodd" fill="#e9dbad" d="m81.4 41.45-.8 3.1-5.35 1.5-3.85-.1-1.1-3.5q4.25-3.75 11.1-1m-29.5 1.4-.6 3.3-3.8.05-5.45-1.55-.6-3.1q5.45-1.95 10.45 1.3" transform="translate(-.45 36.45)"/><path fill-rule="evenodd" fill="#b19172" d="m82.4 37.8-1 3.65q-6.85-2.75-11.1 1l-.9-2.55 2.4-.2q6.25-.6 10.6-1.9m-30.05 2.5q-.3 1.25-.45 2.55-5-3.25-10.45-1.3l-.55-2.65-.1-.1L52.35 40v.3" transform="translate(-.45 36.45)"/><path fill-rule="evenodd" fill="url(#a)" d="m42.85 22.45-.3-1.7 5.45 1.1q4.35 1.2 5.45 1.9 1 .6-.6 1.75-1.55 1.1-2.95 1.2-1.4.1-3.65-.7-2.4-.8-3.4-3.55" transform="translate(-.45 36.45)"/><path fill-rule="evenodd" fill="#2b659d" d="m36 36.9-1.15-.3.1-.3 1.05.6" transform="translate(-.45 36.45)"/><path fill-rule="evenodd" fill="#578fd2" d="M53.05 40.3h-.7V40l.7.3" transform="translate(-.45 36.45)"/><path fill-rule="evenodd" fill="#2f6ab0" d="m39.1 34.15.2.2-.2-.2" transform="translate(-.45 36.45)"/><path stroke-width=".05" stroke-opacity=".463" stroke-linejoin="round" stroke-linecap="round" stroke="#1a2340" fill="none" d="m56.95 7.3-1.15-.4-2-.6-6.35-.7m-10 1.85q2.8-.95 5.45-1.35h.1l4.45-.5m-10 1.85-1 .4q-11.6 4.5-18.1 15.3m6.6 28.8q.4-2.45 1.7-5.25 1.4-2.95 2.3-6.25 1.65-7.8 7.1-14.25 5.25-6.45 12.8-9.4l7.65-2.3q3.35-.3 6.6.1 3.4.3 6.75 1.4 2.1.6 4.15 1.6 9.05 4.05 14.3 12.65Q93.35 38.9 94.05 49l.85 6.05q1.1 5.75-2.35 9.7-2.2 2.55-4.95 4.25 2.35 1.8-4.35 4.75l-1.3.5-1 3.65-.8 3.1-5.35 1.5-3.85-.1-1.1-3.5-.9-2.55 2.4-.2-2.5.2q-7.9.5-16.25.4h-.7q-.3 1.25-.45 2.55l-.6 3.3-3.8.05-5.45-1.55L41 78l-.55-2.65M15.35 15.1q-2.05 2.8-3.65 6.05Q9.9 24.5 8.9 28m6.55 1.05 1.7-3.45 1.2-2.45m18.1 50.8-.9-.6M18.05 61.1q-2.6-4.2-4-9.35L13.7 50q-2-8.85.55-17.45l.2-.6 1-2.9m-1 28.45q-1.85-2.25-3.15-5.05-1.6-2.95-2.5-6.55-1.45-5.25-1.15-10.5.2-3.75 1.25-7.4m31.45 47.25 11.55 1.2m19.45-.3q6.25-.6 10.6-1.9m-57-22.3q-1.15 7.15 4.3 12.9l.7.6 3.95 2.85-.3 3.5.9.95 1.05.6m16.35 3.4v-.3"/><path stroke-width=".05" stroke-linejoin="round" stroke-linecap="round" stroke="#002e4f" fill="none" d="m57.25 7.35-.3-.05M56 6.6q-1.3-.9-2.6-1.5Q42.8-.35 31.1 3.8l-1 .3-2.45 1v.1q-7.35 3.45-12.3 9.9m54.5.9q-3.65-4.35-9-7.15l-3.6-1.5m-21.7 66-1.15-.3q-2.7-.8-5.25-2.05-7.05-3.7-11.1-9.9-2-1.7-3.6-3.6Q11.8 56 9.7 54.15 5.35 50 3.35 43.95q-.95-2.9-1.25-5.65-.3-3.7.5-7.15.6-2.75 2.05-5.45 3.6-7.25 10.7-10.6"/><path stroke-width=".05" stroke-opacity=".514" stroke-linejoin="round" stroke-linecap="round" stroke="#272d45" fill="none" d="M60.25 54.45q1-1.9.2-2.5-.7-.6-1.6-.9.1-9.5-3.55-13.95-3.75-4.55-10.5-2.8-2 .4-4.15 3.8-2.8 4.45-3.2 10.4-1.2.9-1.2 1.6-.1.55.3 1.45m23.7 2.9q1.6 1.35-2.4 3.25l-2.05 4.15q-2 2.9-4.65 3.5-1.4.3-3 0l-.6-.2q-4.15-1.1-7-4.15l-1.3-1.7m0-.1q-1.1-1.8-1.5-4.15-3.35-2.1-1.2-3.5M87.1 50.2l.4-1.7q0-.6-1.2-1.4v-.3q-.4-5.75-2.75-9.9-2.5-4.25-7.65-5.05-5.15-.9-8.3 4.55-3.2 5.45-2.9 13.95-.8.4-1.5 1-.8.6.2 2.6m23.7-3.75q1.1.55.8 1.45-.3.8-2 2-.8 3.75-2.85 6.05-3.3 3.45-7.75 4.65h-.1l-.8.2q-1.95.2-3.65-.6-1.7-.9-3-2.8-1.25-1.95-2.05-4.05-3.95-1.75-2.3-3.15"/><path stroke-width=".05" stroke-linejoin="round" stroke-linecap="round" stroke="#916606" fill="none" d="m36.55 51.55 2.1.5.2.1q9.4 0 16.85 2.6h1.75l2.8-.3m3.15-.5 3.1.2.8-.1m16.8-3.1 2.3-.6.7-.15m-3 .75q-10.3 1-16.8 3.1"/></g><linearGradient y2="1.351" y1=".142" x2=".655" x1=".612" spreadMethod="pad" id="a"><stop stop-color="#fed225" offset="0"/><stop stop-color="#ca9e0b" offset="1"/></linearGradient><path fill-rule="evenodd" fill-opacity="0" fill="#f0f" d="M0 0h102.95v45H0V0" id="b"/><use xlink:href="#b" width="102.95" height="45" id="e"/></defs><path fill="none" d="M-1-1h77v68H-1z"/><use x="35.05" y="119.5" xlink:href="#c" width="381" transform="translate(-192.55 -294)" height="381"/><use x="219.98" y="-243.8" xlink:href="#d" width="97.15" transform="matrix(-.7137 0 0 .7137 227.729 176.136)" height="84.65"/><use x="-86.875" y="-105.212" xlink:href="#e" width="102.95" transform="matrix(1.8072 0 0 1.6538 83 165.3)" height="45"/></svg>