<svg width="76" height="81" xmlns="http://www.w3.org/2000/svg" xmlns:xlink="http://www.w3.org/1999/xlink"><defs><use xlink:href="#a" width="72.3" height="75.8" id="d"/><use xlink:href="#b" width="102.95" height="45" id="e"/><g id="c"><path stroke-opacity="0" stroke-linejoin="round" stroke-linecap="round" stroke="#f0f" fill="none" d="M187.95-293.5v380h-380v-380h380M92.95.6H-97" transform="translate(192.55 294)"/><path stroke-opacity="0" stroke-linejoin="round" stroke-linecap="round" stroke="#f0f" fill="none" d="m187.95-293.5-190 190 190 190m-380-380 190 190L-192 86.5" transform="translate(192.55 294)"/><path fill-rule="evenodd" fill="#dec696" d="M-24.65-114.8v-.1h-.2q-2.7 0-4.6 2.05l-.9 1.15-.05.2q-.85 1.45-.95 3.2l1.2-.1.95.05q1.15-3.2 3.5-2.4v-.2q0-2.15 1.05-3.85m-8.7 7.35-.4.3-.95.95q-1 .8-2.45 3.2-1.9 3.1-1.1 6.95-2.7 2.3-3.45 5.45-.7 3.15 1.05 5.35.65 1.95 3.1 3.85-1 2-.25 4.35l.65 1.9.25.55.35.7h.1l.4.65.8 1.05-.8-1.05.05.2.3.45.45.4.05.05 1.35 1.2.3.25h.1-.1.1q.8.5 1.75.85 1.4.5 3.05.55l.35 3.25q.4 2.55.3 3l-.1 1.05v.15q.55 1.05 1.75 2.1l1 .55q.2-3-.15-5.15 2.15-1.95 3.05-1.75l-.55-.75.55.75.6.65.05.4 1.1.65-1.15-1.05 1.15 1.05.05.05 2 1.2.45.25h.1q3 1.3 7.05 1.4l.5 3.25q.5 2.35.45 2.95 1.4.2 3.6-.05l.25.25q2.55 2.25 5.45 2.65l1.1.1.65.05 2.2-.3q1-.3 1.8-.9l.2-.15q.85-.65 1.2-1.4l1.2.05q2.85 0 4.8-1.35l1.5-1.5q.45-.75.5-1.55v-.25q0-.95-.55-1.75l-.15-.3h-.45l-1.15-.05-1.55-.2-2.1-.7-.55 1.25-1.75 1.5-1.25.6q-1.55.6-3.45.75l-.5.05H.4l-1.6-.1-2.1-.45 2.1.45 1.6.1h.5l.5-.05q1.9-.15 3.45-.75l1.25-.6 1.75-1.5.55-1.25 2.1.7 1.55.2 1.15.05h.55l2.75-.4q.35.25.55-.1l.05-.05.05.05q1.1.15 1.95-.45 2.05-1.5 2.35-3.5 2.2-.25 3.8-1.65 1.95-1.65 1.9-3.95l-.25-1.6q-.4-1.3-1.6-2.35l-.7 1.15q-1.8 2.35-4.5 2.5h-.25l-1.45 2q-2.55 2.7-6.3 2.9-3.7.15-6.5-2.3l-1.35-1.5-1.9 1.5q-1.4.8-3.1.9h-.3q-2.95 0-5.2-2.2l-1.35-1.6q-1.1-.25-2.75-1.15h-.1l-.45.05-1-.05-.9-.3q.15 1.65-.9 2.65-.9.8-2.55.4l-.05.15-.05.5.1.75q-1.15.8-4.5-2.05-.4-1-1.15-1.8-1.05-1.2-2.4-1.65l-.2-2.4v-.15l.3-3.05-.25-.4q-.9-1.6-1-3.55v-.9q.1-1.65.8-3.05l.15-.2.05-.15h-.05l-.2.05-.55.05-1.05-.05q-.4-2.1.35-4.4l-1.35.1q-.85 1.65-1.2 3.45h-.25q-7.5-7.35-4.6-17.95m56.85 30.6q1.4-.25 2.55-1.05l.4-.25.9-.85q-4.1 1.7-6.7.4l1.75 1.1 1.1.65m1.1-9.4.35-.35.15-.1q2.05-1.9 2.05-4.55L27-92.6q-.95 4.15-6 5.6l3 .65h.2l.4.1M-11.65-71.5q.05-1.05-.25-2 .3.95.25 2m-8.85-26.6.1 2.65 1.4 2.5 1.35.25.25-.25 3.15-3.6.25-.5 1.25-2.2q-2.2 1.25-2.6 1.3-.45.45-1.4 1-1.55.8-2.2.65-.65-.15-1.2-.95l-.35-.85M-36-81.4h-1.55H-36m-.9 6.8.45.7-.45-.7m9.2 5.3h-.95.95m-3.3-2.75-.7 2.2.7-2.2m12.9 9.15h-.1.1m39.55-3.25h-.9l-2.25-.3 2.25.3h.9M6.7-63.65l.7.45 1 .55-1-.55-.7-.45M-5.25-59.9q-1.8-1.05-2.25-2.4.45 1.35 2.25 2.4l-.05.05.05-.05q.9.55 1.95.85-.15.15-2-.75v-.05.05q1.85.9 2 .75-1.05-.3-1.95-.85m-4.45-1.6h-1.35 1.35m16.25 5.85-.2.6.2-.6" transform="translate(192.55 294)"/><path fill-rule="evenodd" fill="#425a68" d="m-38.6-58.55.65 3.2q.3 1.2 1.3 1.5l3.15.7.3.05.6-2.05.75 2q1.1-.2 2-.9 1.3-1.1 1.45-2v-2.7l-1.5 1.6q-1.5.95-3.65.95-2.1 0-3.65-.95l-1.4-1.4m13 7.8.9 3.2q.5 1.2 1.95 1.5l4.55.7.5.05.85-2.05 1.1 2q1.65-.2 2.9-.9 1.9-1.1 2.15-2v-2.7l-2.15 1.6q-2.2.95-5.35.95-3.1 0-5.35-.95l-2.05-1.4m24.8-1.7.3.9q.5 1.2 1.95 1.5l4.55.7h2.45l2.2-.55.7-3.1.7 2.3q1.25-.85 1.45-1.55v-2.7l-2.15 1.6q-2.2.95-5.35.95l-2.85-.2-2.2.3-.65-.05-1.1-.1m18.15-54.65q.3-.95.2-2.05l-.05-.05q-.6-3.75-3.35-8.05l-.3-.5q-1.95-2.9-2.9.35-.05 1.75-.8 3.35l.3.55.3.9.1 1.15q0 1.15-.45 2.15l.1.2v.05l.2.95h.5l2.15-.3q2.25-.05 4 1.3m-37.8 3.9q-.3 1.8-.15 4.3v.05l.1.75.35.85q.55.8 1.2.95.65.15 2.2-.65.95-.55 1.4-1l.35-.5-.95.15h-.35q-2.3.3-3.1-.5l-.25-.35q-.6-1.3-.6-2.75.05-1.5-.2-1.3m33.05-15.2.45.25.3.6v.6l-.7 1.1q-.55.8-.85.75l-.1-.05q-.15-.25.1-1.35l.15-.8.25-.85.4-.25" transform="translate(192.55 294)"/><path fill-rule="evenodd" fill="#82c4cc" d="M-18.55-108.25q-.55 1.45-.3 1.5.3.05.95-.8l.85-1.1q.2-.3.15-.65.05-.4-.15-.65l-.4-.3-.4.3-.7 1.7M12.6-118.4l-.4.25-.25.85-.15.8q-.25 1.1-.1 1.35l.1.05q.3.05.85-.75l.7-1.1v-.6l-.3-.6-.45-.25" transform="translate(192.55 294)"/><path fill-rule="evenodd" fill="#f5eed3" d="m-24.6-114.9-.05.1q-1.05 1.7-1.05 3.85v.2q-2.35-.8-3.5 2.4l-.95-.05-1.2.1q-1.05.2-2 .85-2.9 10.6 4.6 17.95h.25q.35-1.8 1.2-3.45l1.35-.1q-.75 2.3-.35 4.4l1.05.05.55-.05.2-.05h.05l-.05.15-.15.2q-.7 1.4-.8 3.05v.9q.1 1.95 1 3.55l.25.4-.3 3.05v.15l.2 2.4q1.35.45 2.4 1.65.75.8 1.15 1.8 3.35 2.85 4.5 2.05l-.1-.75.05-.5.05-.15q1.65.4 2.55-.4 1.05-1 .9-2.65l.9.3 1 .05.45-.05h.1l-2.05-1.25q-.6-1.1-1.65-2.05-1.5-1.35-3.45-1.85l-.3-2.65v-.15l.45-3.4 1.25-3.25.9-1.45 1-1.35.7-.8v-.05l.5-.55.85-.8v-.05l1.35-1.15 2.7-.15q2.05 3.35 6.4 4.7l1.05.35.4-.3q1.4-1.1 3.1-1.55-1.7.45-3.1 1.55l-.4.3q-3.2 3.1-1.25 6.85l.5.75-.4.65q-.9 1.6-.5 3.2l.4 1-1.4.45-.3.1-.55.3-.15.1-.8.6q-.75.7-.95 1.5l-.1.55.15.85-1.6.15 1.35 1.6q2.25 2.2 5.2 2.2h.3q1.7-.1 3.1-.9l1.9-1.5 1.35 1.5q2.8 2.45 6.5 2.3 3.75-.2 6.3-2.9l1.45-2h.25q2.7-.15 4.5-2.5l.7-1.15-.05-.05q-.8-.7-1.8-1.05h-.05l.05-.05h.05l-1.1-.65-1.75-1.1q2.6 1.3 6.7-.4.7-.8.95-1.75l.1-.95q0-2.1-1.95-3.55L25.2-86l-.45-.2-.15-.05h-.05l-.35-.1.35.1h.05l-.4-.1H24L21-87q5.05-1.45 6-5.6-.25-1.4-1.2-2.5l-.85-.85q-1.2-1.1-2.7-1.55l-.35-.1-2.25-.3h-.15l-.4.05h-.25l.05-.1.15-.2.2-.35q.8-1.45.8-3.2l-.1-1.35-.3-1-.3-.65-.15-.5v-.05q-.3-.95-.1.05l-1-1.25-.75-.65q-1.75-1.35-4-1.3l-2.15.3-.5.2v-.2l-.2-.95v-.05l-.1-.2-1.05-1.65q-1.35-1.35-3.3-1.3-1.4-.05-2.5.65-.5-1.9-2-3.35-2.2-2.2-5.4-2.2-2.95 0-5.1 1.9l-1.3-1.4q-2.65-2.4-6.4-2.35-3.75-.05-6.4 2.35l-1.55 1.75m-.9 5.9-.2-1.75.2 1.75m-3.7.65.85.25-.85-.25m37.85 1.9q.95-.95 2.05-1.45-1.1.5-2.05 1.45m-29.1 3.25 1.2-4.25q1.7-5.2 3-2.15l.5 1.5q.35 1.5 1.3 3.05l.6.8h1.3l.4.7q1.2.8 1 2.6l-.1.5-1.4 1.15-.1.05-1.25 2.2-.25.5-3.15 3.6-.25.25-1.35-.25-1.4-2.5-.1-2.65-.1-.75v-.05q-.15-2.5.15-4.3m1 24.3 1.95.25-1.95-.25m21-30.1q.35-1.1 1.2-1.95l.8-.65-.8.65q-.85.85-1.2 1.95M17.1-97.5l.55-.15 1.2-.2-1.2.2-.55.15m-24.05.55.05-.1.05.05v.05h-.1m2-3.75v.2-.2m.6-.75v-.1.1m-4.6-13.8.95 1.8-.95-1.8m12.1 31Q1.15-84-.4-82.8l-1 1 1-1q1.55-1.2 3.55-1.45M.9-74.4q-.7-.35-1.3-.85l-.45-.35-1.05-1.35 1.05 1.35.45.35q.6.5 1.3.85m-12.8.9-.5-1.25.5 1.25m7.6 2.8q-1.3-.8-1.7-1.8.4 1 1.7 1.8m27.7-6.1-1-.7 1 .7" transform="translate(192.55 294)"/><path fill-rule="evenodd" fill="#5f829a" d="m-38.25-60.7-.45 1.3.1.85 1.4 1.4q1.55.95 3.65.95 2.15 0 3.65-.95l1.5-1.6v-.65l-.25-1.05-.75 1-1 1.05q-1.3 1-3 1-1.6 0-2.9-.95l-1.1-1.1-.85-1.25m13.15 7.8q-.6.6-.65 1.3l.15.85 2.05 1.4q2.25.95 5.35.95 3.15 0 5.35-.95l2.15-1.6v-.65q.05-.55-.4-1.05l-1 1q-.75.6-1.55 1.05-1.95 1-4.35 1-2.35 0-4.25-.95l-1.65-1.1-1.2-1.25m38.6-2.05v-.65q.05-.55-.4-1.05l-1 1-1.55 1.05q-1.95 1-4.35 1l-1.05-.05-.2.15q-.8.6-1.8.9l2.85.2q3.15 0 5.35-.95l2.15-1.6m-32.05-53.3.7-1.7.4-.3.4.3q.2.25.15.65.05.35-.15.65l-.85 1.1q-.65.85-.95.8-.25-.05.3-1.5m6 4h-1.3l-.6-.8q-.95-1.55-1.3-3.05l-.5-1.5q-1.3-3.05-3 2.15l-1.2 4.25q.25-.2.2 1.3 0 1.45.6 2.75l.25.35q.8.8 3.1.5h.35l.95-.15-.35.5q.4-.05 2.6-1.3l.1-.05 1.4-1.15.1-.5q.2-1.8-1-2.6l-.4-.7m-1.3 0 .25.3.4.55 1.25 1.3-1.25-1.3-.4-.55-.25-.3" transform="translate(192.55 294)"/><path fill-rule="evenodd" fill="#c4964a" d="m-.65-89.4-1.05-.35q-4.35-1.35-6.4-4.7l-2.7.15-1.35 1.15.35.4q3.9 4.25 7.4 4.8-.85 1.95-.75 4.85.15 2.85 1.85 6.6l1.4-.45-.4-1q-.4-1.6.5-3.2l.4-.65-.5-.75Q-3.85-86.3-.65-89.4" transform="translate(192.55 294)"/><path fill-rule="evenodd" fill="#eedfb5" d="M-12.15-93.15v.05l-.85.8.35.5q0 3 1.05 5.9 1.25 3.2 3.85 6.25l3.6 3.55.55-.3.3-.1q-1.7-3.75-1.85-6.6-.1-2.9.75-4.85-3.5-.55-7.4-4.8l-.35-.4" transform="translate(192.55 294)"/><path fill-rule="evenodd" fill="#ccc" d="m-13-92.3-.5.55v.05l-.7.8-1 1.35 2.45 5.7 1.15-2.05q-1.05-2.9-1.05-5.9l-.35-.5m5.25 12.65-1.1 1.15 3.75 3.1.8-.6.15-.1-3.6-3.55" transform="translate(192.55 294)"/><path fill-rule="evenodd" d="m-11.6-85.9-1.15 2.05q-.95 2.2-.15 3.65.95 1.7 1.95 2.15-.9-1.4.85-2l.6.25q1.15.4.65 1.3l1.1-1.15q-2.6-3.05-3.85-6.25" transform="translate(192.55 294)"/><path fill-rule="evenodd" fill="#fff" d="m-15.2-89.55-.9 1.45-1.25 3.25-.45 3.4v.15q4.65 4.8 11.75 7.4.2-.8.95-1.5l-3.75-3.1q.5-.9-.65-1.3l-.6-.25q-1.75.6-.85 2-1-.45-1.95-2.15-.8-1.45.15-3.65l-2.45-5.7" transform="translate(192.55 294)"/><path fill-rule="evenodd" fill="#d1ad72" d="m-17.8-81.3.3 2.65q1.95.5 3.45 1.85 1.05.95 1.65 2.05l2.05 1.25q1.65.9 2.75 1.15l1.6-.15-.15-.85.1-.55q-7.1-2.6-11.75-7.4" transform="translate(192.55 294)"/><path fill-rule="evenodd" fill="#957959" d="M-36.55-73.9q-.6-.05-1.95-3.25.25 7.5.05 11.15-.15 3.65.2 5.3l.85 1.25 1.1 1.1q1.3.95 2.9.95 1.7 0 3-1l1-1.05.75-1q.5-.85.55-1.4V-62l.1-1.05q.1-.45-.3-3l-.35-3.25q-1.65-.05-3.05-.55-.95-.35-1.75-.85h-.1l-.3-.25-1.35-1.2-.05-.05-.45-.4-.3-.25v-.2l-.05-.2-.4-.65h-.1m11.2 14.7-.05 1q-.2 3.65.3 5.3l1.2 1.25 1.65 1.1q1.9.95 4.25.95 2.4 0 4.35-1 .8-.45 1.55-1.05l1-1q.8-.95.85-1.55l.15-1.05v-.05q.05-.6-.45-2.95l-.5-3.25q-4.05-.1-7.05-1.4h-.1l-.45-.25-2-1.2-.05-.05-1.1-.65-.05-.4-.6-.65q-.9-.2-3.05 1.75.35 2.15.15 5.15m38.45 2.55.75-1.2-1.5 1.5Q10.4-55 7.55-55l-1.2-.05q-.35.75-1.2 1.4l1.05.05q2.4 0 4.35-1l1.55-1.05 1-1m.7-4.75-.05-.3h-.1l.15.3m-43.7-4.65h.05q1.15 1.05 1.15 2.6v.3q-.1 1.3-1.2 2.25-1.2 1.1-2.9 1.15-1.65-.05-2.85-1.15-1.2-1.05-1.25-2.55.05-1.05.55-1.85l5.15-.15q.7-.25 1.3-.6m6.8 10.4q0-1.05.8-1.85l7.65-.2 1.8-.55q1.75 1.05 1.7 2.6v.05q0 1.45-1.7 2.5-1.75 1.1-4.25 1.15-2.5-.05-4.2-1.15-1.8-1.05-1.8-2.55" transform="translate(192.55 294)"/><path fill-rule="evenodd" fill="#c5b69e" d="M-29.9-66.05q-.6.35-1.3.6l-5.15.15q-.5.8-.55 1.85.05 1.5 1.25 2.55 1.2 1.1 2.85 1.15 1.7-.05 2.9-1.15 1.1-.95 1.2-2.25v-.3q0-1.55-1.15-2.6h-.05m6.8 10.4q0 1.5 1.8 2.55 1.7 1.1 4.2 1.15 2.5-.05 4.25-1.15 1.7-1.05 1.7-2.5v-.05q.05-1.55-1.7-2.6l-1.8.55-7.65.2q-.8.8-.8 1.85" transform="translate(192.55 294)"/><path stroke-width=".5" stroke-opacity=".502" stroke-linejoin="round" stroke-linecap="round" stroke="#423213" fill="none" d="M167.9 179.1h.05l-.05.1q-1.05 1.7-1.05 3.85v.2l.2 1.75m-3.7.65-.95-.05-1.2.1q.1-1.75.95-3.2l.05-.2.9-1.15q1.9-2.05 4.6-2.05h.2m35.05 5.6-1.05-1.65q-1.35-1.35-3.3-1.3-1.4-.05-2.5.65-.5-1.9-2-3.35-2.2-2.2-5.4-2.2-2.95 0-5.1 1.9l-1.3-1.4q-2.65-2.4-6.4-2.35-3.75-.05-6.4 2.35l-1.55 1.75m-8.75 7.45-.4.3-.95.95q-1 .8-2.45 3.2-1.9 3.1-1.1 6.95-2.7 2.3-3.45 5.45-.7 3.15 1.05 5.35.65 1.95 3.1 3.85-1 2-.25 4.35l.65 1.9.25.55.35.7m-1.95-3.25q.25 7.5.05 11.15-.15 3.65.2 5.3l-.45 1.3.1.85.65 3.2q.3 1.2 1.3 1.5l3.15.7.3.05.6-2.05.75 2q1.1-.2 2-.9 1.3-1.1 1.45-2v-3.35l-.25-1.05q.5-.85.55-1.4.55 1.05 1.75 2.1l1 .55-.05 1q-.2 3.65.3 5.3-.6.6-.65 1.3l.15.85.9 3.2q.5 1.2 1.95 1.5l4.55.7.5.05.85-2.05 1.1 2q1.65-.2 2.9-.9 1.9-1.1 2.15-2v-3.35q.05-.55-.4-1.05.8-.95.85-1.55l.15-1.05v-.05q1.4.2 3.6-.05l.25.25q2.55 2.25 5.45 2.65l.3.9q.5 1.2 1.95 1.5l4.55.7h.25-.3l.55.05-.25-.05h2.2l2.2-.55.7-3.1.7 2.3q1.25-.85 1.45-1.55v-3.35q.05-.55-.4-1.05l.75-1.2q.45-.75.5-1.55v-.25q0-.95-.55-1.75l-.05-.3 2.75-.4q.35.25.55-.1h.1q1.1.15 1.95-.45 2.05-1.5 2.35-3.5 2.2-.25 3.8-1.65 1.95-1.65 1.9-3.95l-.25-1.6q-.4-1.3-1.6-2.35l-.05-.05q-.8-.7-1.8-1.05h-.05l.05-.05h.05q1.4-.25 2.55-1.05l.4-.25.9-.85q.7-.8.95-1.75l.1-.95q0-2.1-1.95-3.55l-1.25-.75-.45-.2-.15-.05.35-.35.15-.1q2.05-1.9 2.05-4.55l-.15-1.35q-.25-1.4-1.2-2.5l-.85-.85q-1.2-1.1-2.7-1.55l-.35-.1-2.25-.3h-.15l-.4.05h-.25l.05-.1.15-.2.2-.35q.8-1.45.8-3.2l-.1-1.35-.3-1-.3-.65-.15-.5v-.05m-.1.05-1-1.25-.75-.65q.3-.95.2-2.05m-.05-.05q-.6-3.75-3.35-8.05l-.3-.5q-1.95-2.9-2.9.35-.05 1.75-.8 3.35m.25 4.75.1.2v.05m.2 1.15q-1.1.5-2.05 1.45m-37-1.65-.85-.25m-2.15.05q-1.05.2-2 .85m21.45 33.95q.3.95.25 2m-.9-32.75h-1.3l-.6-.8q-.95-1.55-1.3-3.05l-.5-1.5q-1.3-3.05-3 2.15l-1.2 4.25q-.3 1.8-.15 4.3m0 .05.1.75.35.85q.55.8 1.2.95m7-5.8-1.25-1.3-.4-.55-.25-.3m.85 11.95-.5.55v.05l-.7.8-1 1.35-.9 1.45-1.25 3.25-.45 3.4v.15l.3 2.65-1.95-.25m-18.1-2.5h1.55m2.45 10.7-.3-.25-1.35-1.2-.05-.05-.8-1.05-.4-.65-.45-.7m.9 1.55.3.45m13.85 7.15 1.15 1.05.05.05 2 1.2.45.25h.1q3 1.3 7.05 1.4l.5 3.25q.5 2.35.45 2.95m-12.35-10.8-.55-.75m1.15 1.4-.6-.65m-3.05 1.75q.35 2.15.15 5.15m-2.75-2.65V232l.1-1.05q.1-.45-.3-3l-.35-3.25h.95m-5.85-1.4h.1m1.75.85q-.95-.35-1.75-.85m4.8 1.4q-1.65-.05-3.05-.55l.7-2.2m20.65-1.45-2.05-1.25q-.6-1.1-1.65-2.05-1.5-1.35-3.45-1.85m-10.9 19.9-1.5 1.6q-1.5.95-3.65.95-2.1 0-3.65-.95l-1.4-1.4m9.95-1.9-.75 1-1 1.05q-1.3 1-3 1-1.6 0-2.9-.95l-1.1-1.1-.85-1.25m27.55 9.75-2.15 1.6q-2.2.95-5.35.95-3.1 0-5.35-.95l-2.05-1.4m14.5-1.9-1 1q-.75.6-1.55 1.05-1.95 1-4.35 1-2.35 0-4.25-.95l-1.65-1.1-1.2-1.25m36.3-55.2-.5.2m6.65.8q-1.75-1.35-4-1.3l-2.15.3m7.65 10.25-1.2.2-.55.15m-13.55-14.1-.8.65q-.85.85-1.2 1.95m1.3 17.75q-1.7.45-3.1 1.55l-.4.3-1.05-.35q-4.35-1.35-6.4-4.7m-2.7.15-1.35 1.15v.05l-.85.8.35.5q0 3 1.05 5.9l-1.15 2.05m4.75-29.6-.95-1.8m-2 37.2q-1-.45-1.95-2.15-.8-1.45.15-3.65m5 4.2-1.1 1.15m3.75 3.1q-.75.7-.95 1.5-7.1-2.6-11.75-7.4m6.2-4.6q1.25 3.2 3.85 6.25l3.6 3.55-.15.1-.8.6m3.7-6.4 1-1q1.55-1.2 3.55-1.45m-3.8-5.15q-3.2 3.1-1.25 6.85l.5.75-.4.65q-.9 1.6-.5 3.2l.4 1-1.4.45-.3.1-.55.3m2.25-.85 1.05 1.35.45.35q.6.5 1.3.85m-11.25.9q1.65.9 2.75 1.15l1.6-.15q.4 1 1.7 1.8m-8.1-4.05.5 1.25m5.85-.4-.1.55.15.85m30.2-13.85.35.1h.05l-.4-.1h-.2m-5.7 19.9 2.25.3h.9m.95-11.35 1 .7m-26.7 17.75 2.1.45 1.6.1h.5l.5-.05q1.9-.15 3.45-.75l1.25-.6 1.75-1.5.55-1.25 2.1.7 1.55.2 1.15.05h.45l.15.3m-5.4-1.25-1-.55-.7-.45m6.95 1.95h.1m-8.6 8.05q.85-.65 1.2-1.4l1.2.05q2.85 0 4.8-1.35l1.5-1.5m-.75 1.2-1 1-1.55 1.05q-1.95 1-4.35 1l-1.05-.05-.2.15q-.8.6-1.8.9l-2.2.3-.65-.05-1.1-.1m3.95-.15 2.85.2q3.15 0 5.35-.95l2.15-1.6m3.6-7.3.05.05m-28.2.7h1.35m2.2-.8q.45 1.35 2.25 2.4m-.05.05v.05q1.85.9 2 .75-1.05-.3-1.95-.85m11.6 4.85.2-.6"/></g><g id="a" stroke-linejoin="round" stroke-linecap="round" stroke="#54483a" fill="none"><path stroke-width=".5" d="M18.7 12.2V12h-.5l.5.2"/><path stroke-width="2" d="M67.9 42.95q-.25 7.5-.05 11.15.15 3.65-.2 5.3.4.6.45 1.3l-.1.85-.65 3.2q-.3 1.2-1.3 1.5l-3.15.7-.3.05-.6-2.05-.75 2q-1.1-.2-2-.9-1.3-1.1-1.45-2V60.7q0-.55.25-1.05-.5-.85-.55-1.4-.55 1.05-1.75 2.1l-1 .55.05 1q.2 3.65-.3 5.3.6.6.65 1.3l-.15.85-.9 3.2q-.5 1.2-1.95 1.5l-4.55.7-.5.05-.85-2.05-1.1 2q-1.65-.2-2.9-.9-1.9-1.1-2.15-2V68.5q-.05-.55.4-1.05-.8-.95-.85-1.55l-.15-1.05v-.05l-3.6-.05-.25.25q-2.55 2.25-5.45 2.65l-.3.9q-.5 1.2-1.95 1.5l-4.55.7h-2.45l-2.2-.55-.7-3.1-.7 2.3-1.45-1.55V64.5q-.05-.55.4-1.05l-.75-1.2q-.45-.75-.5-1.55v-.25q0-.95.55-1.75l.05-.3-2.75-.4q-.35.25-.55-.1l-.05-.05-.05.05q-1.1.15-1.95-.45-2.05-1.5-2.35-3.5-2.2-.25-3.8-1.65-1.95-1.65-1.9-3.95-.05-.85.25-1.6.4-1.3 1.6-2.35l.05-.05q.8-.7 1.8-1.05H6l-.05-.05H5.9Q4.5 43 3.35 42.2l-.4-.25-.9-.85q-.7-.8-.95-1.75L1 38.4q0-2.1 1.95-3.55l1.25-.75.45-.2.15-.05-.35-.35-.15-.1q-2.05-1.9-2.05-4.55l.15-1.35q.25-1.4 1.2-2.5l.85-.85q1.2-1.1 2.7-1.55l.35-.1 2.25-.3h.15l.4.05h.25l-.05-.1-.15-.2-.2-.35q-.8-1.45-.8-3.2l.1-1.35.3-1 .3-.65.15-.5v-.05q.3-.95.1.05l1-1.25.75-.65q-.3-.95-.2-2.05l.05-.05q.6-3.75 3.35-8.05l.3-.5q1.95-2.9 2.9.35.05 1.75.8 3.35l-.3.55-.3.9-.1 1.15q0 1.15.45 2.15l1.05-1.65q1.35-1.35 3.3-1.3 1.4-.05 2.5.65.5-1.9 2-3.35 2.2-2.2 5.4-2.2 2.95 0 5.1 1.9l1.3-1.4q2.65-2.4 6.4-2.35 3.75-.05 6.4 2.35L54 5.2l.05.1v-.1h.2q2.7 0 4.6 2.05l.9 1.15.05.2q.85 1.45.95 3.2l2 .85.4.3.95.95q1 .8 2.45 3.2 1.9 3.1 1.1 6.95 2.7 2.3 3.45 5.45.7 3.15-1.05 5.35-.65 1.95-3.1 3.85 1 2 .25 4.35l-.65 1.9-.25.55-.35.7"/></g><path fill-rule="evenodd" fill-opacity="0" fill="#f0f" d="M0 0h102.95v45H0V0" id="b"/></defs><path fill="none" d="M-1-1h78v83H-1z"/><use x="44.05" y="122.5" xlink:href="#c" width="381" transform="translate(-192.55 -294)" height="381"/><use x="-44.05" y="122.5" xlink:href="#d" width="72.3" transform="matrix(-1 0 0 1 29.4 -120.1)" height="75.8"/><use x="-81.895" y="-103.398" xlink:href="#e" width="102.95" transform="matrix(1.8072 0 0 1.6538 80.75 168.75)" height="45"/></svg>