<svg width="159" height="203" xmlns="http://www.w3.org/2000/svg" xmlns:xlink="http://www.w3.org/1999/xlink"><defs><g id="d" stroke-opacity="0" stroke-linejoin="round" stroke-linecap="round" stroke="#f0f" fill="none"><path d="M187.95-293.5v380h-380v-380h380M92.95.6H-97" transform="translate(192.55 294)"/><path d="m187.95-293.5-190 190 190 190m-380-380 190 190L-192 86.5" transform="translate(192.55 294)"/></g><g id="e"><path stroke-width="1.75" stroke-linejoin="round" stroke-linecap="round" stroke="#40341a" fill="none" d="M60.5 40.05h.5q6.25 0 10.4 4.4l.85 1.25.45.4 1.6 1.4q1.45 1.6 2.4 3.4l1.75 1.7q4.55 5.1 4.25 13l-.1.75q1.65 3.9-.6 6.6-1.15 1.35-3.25 2.45l.35.75.1.35q.05.6-.3.9h-.05l-.75.55 1.1 1.1q1.3 1.45 1.25 4.35-.1 2.85-.55 4.15-.45 1.15-1.5.9l-.2-.05q-1.25-.5-2.3-2.85-.9-1.9-2.3-3.3l-.3-.3.05.7q.05 2.65-2.5 5.55-2.6 2.85-4.15 3.75-1.45.8-2.25-.4l-.15-.25q-.75-1.45 0-4.3l.15-.65.2-1-1.7 1.45q-3.15 2.15-4.85 2.65-1.6.4-2.1-.95l-.05-.3q-.45-1.75 1.3-4.8l.25-.5.75-1.7-.8.55Q55 83.2 53.7 83.5q-1.2.25-1.5-.8l-.05-.25q-.25-1.3 1.2-3.5l.15-.25.8-1.55-1.45-.3-.75-1.1-.15-.3q-.1-.55.15-1.05-1.9-1.1-3.45-2.75-2.7-2.9-3.55-6.6L44 62.8l-1.7-2.45q-1.4-2.7-1.3-5.95 0-1.5.35-2.85.45-1.8 1.45-3.3.75-1.25 1.9-2.3 2.95-2.8 6.9-3.2 4-2.6 8.9-2.7m11.75 5.65h-.05q-1.7-1.3-3.7-2-2.4-.8-5.1-.8h-.55q-6.25.15-11.2 4.2l-1 .95-1.35 1.4-.95 1.15q-2.9 3.75-3.5 8.45l-.1.9q-.25 2.7.35 5.1M50 72.2q-3.7-3.6-1-7.4l.35-1.65Q49.85 56 55 51.4q3.35-3.1 7.45-4l1.95-.3h2.55q5.6.25 9.75 3.8m1.4 27.05q-5.5-2.15-10.35-1.65l-.85.1.25 1-.2 3-.25 1.55q-.4 1.8-2.05 3.4m2.25-8.95-.9.2-.9.2-4.45.75-.2.8-.55 1.15-1.65 1.7m-7.9-8.7q.8.75 1.95 1.5l-.2.4m2.2 2.75 6.35.4M72.1 77l.65 1.1v.05l.4 1.85.15 1.95"/><path fill-rule="evenodd" d="m4.05 22.35.25-1.15h1.8l.95-1.05.9 1L6.7 22.5q1.05 4.8 3 7.95-.45.65-1.9.35.3-2.9-1.85-7.9l-1.9-.55" transform="translate(48 46.1)"/><path fill-rule="evenodd" fill="#ee870b" d="M15.4-3.2h-.55Q8.6-3.05 3.65 1l-1 .95-1.35 1.4-1.45 1.2q-2.35 1.8-2.4.35 0-.95.9-3.2L.8-1.1l2.8-2.25q4-2.6 8.9-2.7h.5q-.25.35-.15.8Q14-4 15.4-3.2" transform="translate(48 46.1)"/><path fill-rule="evenodd" fill="#ffaf2b" d="M20.5-2.4q-2.4-.8-5.1-.8Q14-4 12.85-5.25q-.1-.45.15-.8 6.25 0 10.4 4.4l.95 1.1-.15.15q-1.7-1.3-3.7-2 2 .7 3.7 2l.5.4 1.6 1.4q4.1 4.4 3.95 10.6-2.3.75-4-1.65-.3-.35-.35-1.45l-.35-3.7q-.3-2.55-2.3-3.7-2-1.2-2.8-2.5-.45-.75.05-1.4" transform="translate(48 46.1)"/><path fill-rule="evenodd" fill="#f5931b" d="M15.4-3.2q2.7 0 5.1.8-.5.65-.05 1.4.8 1.3 2.8 2.5 2 1.15 2.3 3.7l.35 3.7q.05 1.1.35 1.45 1.7 2.4 4 1.65l-.05 1.05q-.35 4.35-2.55 7.95-1.35 2.15-3.3 4l-1.4 1.2Q1.2 21.45.25 11.25q-.3-3.2 1.5-6.95.75-1.6 1.9-3.3 4.95-4.05 11.2-4.2h.55" transform="translate(48 46.1)"/><path fill-rule="evenodd" fill="#af7030" d="m24.2-.4.15-.15.35.55-.5-.4" transform="translate(48 46.1)"/><path fill-rule="evenodd" fill="#d7720f" d="M3.65 1Q2.5 2.7 1.75 4.3q-1.8 3.75-1.5 6.95.95 10.2 22.7 14.95-4.8 3.8-10.85 3.95-3.9.1-7.05-1.35l-2.55-4-.05-1.7q-3.4-4.95-2.9-11.55l-2.7 1.4q.6-4.7 3.5-8.45l.95-1.15 1.35-1.4 1-.95m-1.3 18.55.1 3.55-.1-3.55" transform="translate(48 46.1)"/><path fill-rule="evenodd" fill="#ac510f" d="M3.6-3.35.8-1.1l-2.45 2.8Q-2.8 3.25-3.55 5q-1 2.45-1.2 5.2-.2 1.85.05 3.55.15 1.5.7 2.95l-1.7-2.45Q-7.1 11.55-7 8.3q0-1.5.35-2.85.45-1.8 1.45-3.3.75-1.25 1.9-2.3 2.95-2.8 6.9-3.2" transform="translate(48 46.1)"/><path fill-rule="evenodd" fill="#c45c11" d="M-1.65 1.7q-.9 2.25-.9 3.2.05 1.45 2.4-.35l1.45-1.2L.35 4.5q-2.9 3.75-3.5 8.45l-.1.9q-.25 2.7.35 5.1L-4 16.7q-.55-1.45-.7-2.95-.25-1.7-.05-3.55.2-2.75 1.2-5.2.75-1.75 1.9-3.3" transform="translate(48 46.1)"/><path fill-rule="evenodd" fill="#913a0d" d="m-3.15 12.95 2.7-1.4q-.5 6.6 2.9 11.55l.05 1.7-.55-.8.55.8 2.55 4Q2.6 27.65.65 25.55q-2.7-2.9-3.55-6.6-.6-2.4-.35-5.1l.1-.9M2.5 25.8v-1 1" transform="translate(48 46.1)"/><path stroke-width=".05" stroke-opacity=".482" stroke-linejoin="round" stroke-linecap="round" stroke="#521c07" fill="none" d="M68.5 43.7q-2.4-.8-5.1-.8h-.55q-6.25.15-11.2 4.2m19.3 25.2 1.4-1.2q1.95-1.85 3.3-4 2.2-3.6 2.55-7.95l.05-1.05M68.5 43.7q2 .7 3.7 2m.15-.15-.95-1.1q-4.15-4.4-10.4-4.4h-.5q-4.9.1-8.9 2.7L48.8 45l-2.45 2.8m2.95 1.65 1.35-1.4 1-.95m21.05-1 1.6 1.4q4.1 4.4 3.95 10.6m-5.55-12-.5-.4m-1.25 26.6q-4.8 3.8-10.85 3.95-3.9.1-7.05-1.35l3.95 6m-5.4-38.15q-3.95.4-6.9 3.2-1.15 1.05-1.9 2.3-1 1.5-1.45 3.3Q41 52.9 41 54.4q-.1 3.25 1.3 5.95L44 62.8q-.55-1.45-.7-2.95-.25-1.7-.05-3.55.2-2.75 1.2-5.2.75-1.75 1.9-3.3m-1.5 11.25-.1.9q-.25 2.7.35 5.1.85 3.7 3.55 6.6 1.95 2.1 4.4 3.25l-2.55-4v1M44 62.8l1.1 2.25m-.25-6q.6-4.7 3.5-8.45l.95-1.15m1.2 21.45-.05-1.7-.1-3.55m-.4 4.45.55.8"/><path fill-rule="evenodd" fill="#ffd779" d="M19.05-.7 17.8-.75q-.8.1-1.25-.3-.4-.4-.3-.9.15-.5.7-.7.55-.2 1.25 0l1.1.55q.45.5.3 1-.1.5-.55.4M12.15-4.7l-.9.4-1 .15q-.4-.2-.4-.6-.05-.4.3-.7l1-.4.9.1q.4.2.45.6 0 .4-.35.45" transform="translate(48 46.1)"/><path fill-rule="evenodd" fill="#1f3036" d="m-5.85 25.4 5.3-3.45-.15-1.45 1.25-.3.1 1.1.4.25.3-.2.45.7.1.05v.1l.05.1 1.6.2v.95l-1.85.2Q-.85 26.7-1.65 28.8l-.55-.9.15-.2.15-.15q1.55-1.85 3-4.3l-.3-.4-1.05-.25q-3.7 2-5.35 3.75l-.25-.95m2.45-6.6.45-1.4 1.1.05-.35 1.1.75 1.1-.65.65-1.25-.85q-4.65 1.05-6.6 2.6l-.1-.1-1.5 1.5-1.1 1.4-.05.1-.4.55.6 2.2-1.1.5-.5-1.25.05-.05-.1-.05.05.1-1.5 1.1.45-1.45-1.6-.35.2-.9 2.8-.25 1.2-1.1 1.05-1.2 1-1.4-.05-.65.3-.05h.2q2.95-.45 6.65-1.9" transform="translate(48 46.1)"/><path fill-rule="evenodd" fill="#46868e" d="m-5.85 25.4.25.95-.7.8q-1.3-.4-1.15-1.05l1.6-.7m3.65 2.5.55.9-.25.9q-1.45.1-1.6-.45l1.3-1.35m-6.75 4.6-2.35 1.3-1.5-.1-.05-.9 3-.7q1.45-1.9 2-3.35l.3.5L-9 32.4l.05.1m5.65-1.2.45.35-.15.65-.4 2.05-.1.95.3.3-3.75 1.7-.15-.55 2.7-1.5.3-.8.65-2.05.15-1.1" transform="translate(48 46.1)"/><path fill-rule="evenodd" fill="#2c424e" d="m-8.95 32.5 1.5 2-1.1.65-1-1.2.05-.05h-.15l.1.05-1.3 1.35v-1.5h-.45l2.35-1.3m1.1-3.75.3-1.55q.7-.15 1.3.7-.65.3-1.3 1.35l-.3-.5m15.5 3.1v-.55q1-.15 1.4.4l.1.2q-1 .7-1.9 2.15-.9 1.4-1.7 3.45l1.1 3.1-.95.6-1.3-1.5-1.55 1.05.55-2H1.6v-1.4l3.1-.3 2-2.95.95-2.25M-3.3 31.3q.05-.8-.05-1.45.65-.35 1.4.35l-.9 1.45-.45-.35m.1 4.3 1.65 1.35-.9.9L-3.7 37l-.85 1.65L-5 37.2l-1.85.35-.1-.25 3.75-1.7m-.5 1.4.05-.1h-.15l.1.1m7.15 1.6-.05.15h.15l-.1-.15" transform="translate(48 46.1)"/><path fill-rule="evenodd" fill="#94b4b4" d="m32.2 12 .85.05v-.9q3.05 1.45 5.05 2.75l2.35 1.85 1.5 2.2-3.15.4 5.95 4.35 3.1 6.2-7.15-4.45-1.85-3.55-1.3 3.3-1.7-4.3q-1.8-4.75-3.65-7.9" transform="translate(48 46.1)"/><path fill-rule="evenodd" fill="#50558f" d="M33.05 11.15v.9L32.2 12q-.55.15-1 .55l-.1 1.2-1.2 4.05q-.2.15-.4-.6l-.15-7.55.25-1.15q1.7.45 3.4 2.2l.05.45" transform="translate(48 46.1)"/><path fill-rule="evenodd" fill-opacity=".761" fill="#94b4b4" d="m37.55 24.2 1.3-3.3 1.85 3.55 1.6 3.05 1.35 1.35-.7 4.15q-1.2-1.05-3-3.85-.8-1.25-1.85-3.6l-.55-1.35m7.2-1.5-5.95-4.35 3.15-.4 2.8 4.75" transform="translate(48 46.1)"/><path fill-rule="evenodd" fill-opacity=".6" fill="#94b4b4" d="m40.7 24.45 7.15 4.45.2.5q-2.65 4.1-3.85 4.2-.55 0-1.25-.6l.7-4.15-1.35-1.35-1.6-3.05" transform="translate(48 46.1)"/><path fill-rule="evenodd" fill="#f4fdfd" d="m-46.95 21.65 10.15-.4 3.65-2.05 9.7-3.45-5.1 6.2-8 4.7q-4-1-11.45-4.2l1.05-.8" transform="translate(48 46.1)"/><path fill-rule="evenodd" fill="#e6f5f9" d="m-34.95 19.85 1.8-.65-1.8.65m29.1-8.6q-4.25 2.25-7.65 5.7-4.7 4.8-8.4 6.75l-.95.5q-7.15 3.25-11.4 2.9l-2.3-.45 8-4.7 5.1-6.2-9.7 3.45-3.65 2.05-10.15.4q7.35-5.45 17.6-9.5L-21.9 11l11.1-.95 1-.05-.05.25-.1.45 2.55.2 1.55.35m-6.45.55-11.15 3.95 11.15-3.95" transform="translate(48 46.1)"/><path fill-rule="evenodd" fill="#707dab" d="m-9.85 10.25.05-.25.1-.45q4.65-1.1 9.45-1.1l.55 1-.15.4-10 .4" transform="translate(48 46.1)"/><path fill-rule="evenodd" fill="#303a74" d="m-5.85 11.25-1.55-.35-2.55-.2.1-.45 10-.4q-1 3-.95 6.05-.65.6-1.05.4-1.75-1.6-3-3.7v-1.05l-1-.3" transform="translate(48 46.1)"/><path stroke-width=".05" stroke-linejoin="round" stroke-linecap="round" stroke="#bfd4db" fill="none" d="m95.85 75-3.1-6.2m-2.8-4.75-1.5-2.2L86.1 60q-2-1.3-5.05-2.75m8.9 6.8 2.8 4.75m3.1 6.2.2.5"/><path stroke-width=".05" stroke-linejoin="round" stroke-linecap="round" stroke="#fff" fill="none" d="M80.2 58.1q1.85 3.15 3.65 7.9l1.7 4.3m5.4 8.8q-1.2-1.05-3-3.85-.8-1.25-1.85-3.6l-.55-1.35m-70.7-5-1.8.65m-1.6 6.8 2.3.45q4.25.35 11.4-2.9l.95-.5q3.7-1.95 8.4-6.75 3.4-3.45 7.65-5.7m-27.3 7.95 9.7-3.45L35.7 57.9M0 68.55q7.45 3.2 11.45 4.2m8-4.7 5.1-6.2"/><path stroke-width=".05" stroke-linejoin="round" stroke-linecap="round" stroke="#7bcadd" fill="none" d="m38.2 56.1-1 .05-11.1.95-7.45 1.15Q8.4 62.3 1.05 67.75l-1.05.8"/><path stroke-width=".05" stroke-linejoin="round" stroke-linecap="round" stroke="#272d45" fill="none" d="M42.15 57.35 40.6 57l-2.55-.2.1-.45.05-.25.1-.45q4.65-1.1 9.45-1.1l.55 1-.15.4q-1 3-.95 6.05-.65.6-1.05.4-1.75-1.6-3-3.7v-1.05l-1-.3"/><path fill-rule="evenodd" fill="#ceb886" d="m24.75 32.05.7-.7q1.2-.85 2.15-.9h.15l.05.05.8.25q1.2.7 2.6 2.2 1.3 1.45 1.25 4.35-.1 2.85-.55 4.15-.45 1.15-1.5.9l-.2-.05q-1.25-.5-2.3-2.85-.9-1.9-2.3-3.3l-.3-.3-.15-1.95-.4-1.85" transform="translate(48 46.1)"/><path fill-rule="evenodd" fill="#ddc7a2" d="m18.75 30.05.8-.15 1.55-.1q1.9.25 2.85 1.05l.15.05.65 1.1v.05l.4 1.85.15 1.95.05.7q.05 2.65-2.5 5.55-2.6 2.85-4.15 3.75-1.45.8-2.25-.4 6.3-5.3 6.1-8-.2-2.7-.6-2.75l-.85-.1q-.85 2.75-3.15 5.2l-1.65 1.1.15-.65.2-1q1.65-1.6 2.05-3.4l.25-1.55.2-3q0-.65-.35-1.2l-.05-.05" transform="translate(48 46.1)"/><path fill-rule="evenodd" fill="#fff" d="m16.3 40.9 1.65-1.1q2.3-2.45 3.15-5.2l.85.1q.4.05.6 2.75.2 2.7-6.1 8l-.15-.25q-.75-1.45 0-4.3m-6.8-4.1q2.2-.95 4.05-3.15l2.1.25Q14 38.75 8 42.4l-.05-.3q-.45-1.75 1.3-4.8l.25-.5m-4-4.2 3.3.4q-1.65 2-4.6 3.6l-.05-.25q-.25-1.3 1.2-3.5l.15-.25" transform="translate(48 46.1)"/><path fill-rule="evenodd" fill="#d2b38c" d="M23.95 30.85q-.95-.8-2.85-1.05l-1.55.1-.8.15-.05-.1q-.7-.9-2.2-1.55l.25-.2 10.35.2.7 2.1-.05-.05h-.15q-.95.05-2.15.9l-.7.7V32l-.65-1.1-.15-.05" transform="translate(48 46.1)"/><path fill-rule="evenodd" fill="#e8d9c1" d="M16.5 28.4q1.5.65 2.2 1.55l.05.1.05.05q.35.55.35 1.2l-.2 3-.25 1.55q-.4 1.8-2.05 3.4l-1.7 1.45q-3.15 2.15-4.85 2.65-1.6.4-2.1-.95 6-3.65 7.65-8.5l-2.1-.25q-1.85 2.2-4.05 3.15l.75-1.7 1.65-1.7.55-1.15.3-1.2.25-2.2-.1-.7.1.7-.25 2.2-.3 1.2-.55 1.15-1.65 1.7-.8.55Q7 37.1 5.7 37.4q-1.2.25-1.5-.8Q7.15 35 8.8 33l-3.3-.4q1-1.7 1.45-3.5l.2-.9.3-1.1q.65-1.25 2.3-.95l1.15.3q1.3.55 1.8 1.35l.05.1.15.25 1.7-.2 1.35.25.2.05.35.15" transform="translate(48 46.1)"/><path stroke-width=".05" stroke-linejoin="round" stroke-linecap="round" stroke="#b08744" fill="none" d="m71.95 76.95.15.05.65 1.1v.05m2.85-1.6h.15l.05.05m-9.1-.55.05.1.05.05q.35.55.35 1.2l-.2 3-.25 1.55q-.4 1.8-2.05 3.4l-.2 1-.15.65q-.75 2.85 0 4.3l.15.25q.8 1.2 2.25.4 1.55-.9 4.15-3.75 2.55-2.9 2.5-5.55l-.05-.7-.15-1.95-.4-1.85m.55 3.8.3.3q1.4 1.4 2.3 3.3 1.05 2.35 2.3 2.85l.2.05q1.05.25 1.5-.9.45-1.3.55-4.15.05-2.9-1.25-4.35-1.4-1.5-2.6-2.2l-.8-.25m-15.1-2.7.05.1.15.25.1.7-.25 2.2-.3 1.2-.55 1.15-1.65 1.7-.75 1.7-.25.5q-1.75 3.05-1.3 4.8l.05.3q.5 1.35 2.1.95 1.7-.5 4.85-2.65l1.7-1.45m-9.2-12.15-.3 1.1-.2.9q-.45 1.8-1.45 3.5l-.15.25q-1.45 2.2-1.2 3.5l.05.25q.3 1.05 1.5.8 1.3-.3 3.75-1.75l.8-.55"/><path fill-rule="evenodd" fill="#303a74" d="m18 30.5-.9.2q-6.25 1.65-12.25.05l-.75-1.1-.15-.3q-.15-.7.35-1.45-1.15-.75-1.95-1.5L2 26.1q-3.7-3.6-1-7.4l.35-1.65Q1.85 9.9 7 5.3q3.35-3.1 7.45-4L16.4 1l-2 .6q-2.6.9-4.8 2.8-4.7 3.8-5.55 9.95L7 10.95l1-.85 1.8-1 .75-.3.5.35.35.6.75 1.75q.35.85 1.05 1.5l1.05.75 1.7.7 2.15.35.65-.7.25-.9-.05-1.1.1-1.45.95 1.45.95 1.15q.5.4 1.1.6h1.45l1.75-.5 1.7-.95 1.45-.9.55-.25.6-.3q.5-.3 1.4.2.85.45.9 1.45l.15 1.85.1 1.65-.15 2.35-6.25 9-1.95.4-.85-.65-1.05-.6-1.15-.3q-.85-.15-1.7 0l-1.4.25-1.8.7-2.2-.25q-1.1-.65-2.05-1.4l-.15-.1-1.95.6L7.1 25q-1.65-.45-1.3.75l.4.5q1.15 1.15 3.7 2.5l-3.15.05q-.5.5 1.15 1.4l10.1.3" transform="translate(48 46.1)"/><path fill-rule="evenodd" fill="url(#a)" d="M16.4 1h2.55q6.8.35 11.5 5.5 4.55 5.1 4.25 13l-.1.75q1.65 3.9-.6 6.6-3.85 1.95-8.05 2.05l5.15 1.15.1.35q.05.6-.3.9h-.05l-.75.55q-5.5-2.15-10.35-1.65l-1.75.3-10.1-.3q-1.65-.9-1.15-1.4l3.15-.05q-2.55-1.35-3.7-2.5l-.4-.5q-.35-1.2 1.3-.75l2.35 1.1 1.95-.6.15.1q.95.75 2.05 1.4l2.2.25 1.8-.7 1.4-.25q.85-.15 1.7 0l1.15.3 1.05.6.85.65 1.95-.4 6.25-9 .15-2.35-.1-1.65-.15-1.85q-.05-1-.9-1.45-.9-.5-1.4-.2l-.6.3-.55.25-1.45.9-1.7.95-1.75.5h-1.45q-.6-.2-1.1-.6L20 12.1l-.95-1.45-.1 1.45.05 1.1-.25.9-.65.7-2.15-.35-1.7-.7L13.2 13q-.7-.65-1.05-1.5l-.75-1.75-.35-.6-.5-.35-.75.3-1.8 1-1 .85-2.95 3.4Q4.9 8.2 9.6 4.4q2.2-1.9 4.8-2.8l2-.6m17.15 25.15q.55-.35.95-2.4.35-2.1-.1-1.9-.45.2-.9 1.55t-1.25 2.2l-1.5 1.15q-.65.3.1.25l1.45-.3 1.25-.55" transform="translate(48 46.1)"/><path fill-rule="evenodd" fill="#738ac1" d="m33.55 26.15-1.25.55-1.45.3q-.75.05-.1-.25l1.5-1.15q.8-.85 1.25-2.2.45-1.35.9-1.55.45-.2.1 1.9-.4 2.05-.95 2.4" transform="translate(48 46.1)"/><path fill-rule="evenodd" fill="#384065" d="M34 26.85q-1.15 1.35-3.25 2.45l.35.75-5.15-1.15q4.2-.1 8.05-2.05" transform="translate(48 46.1)"/><path stroke-width=".05" stroke-opacity=".463" stroke-linejoin="round" stroke-linecap="round" stroke="#1a2340" fill="none" d="M64.4 47.1h2.55q6.8.35 11.5 5.5 4.55 5.1 4.25 13l-.1.75q1.65 3.9-.6 6.6-1.15 1.35-3.25 2.45l.35.75.1.35q.05.6-.3.9h-.05l-.75.55q-5.5-2.15-10.35-1.65l-1.75.3-.9.2q-6.25 1.65-12.25.05l-.75-1.1-.15-.3q-.15-.7.35-1.45-1.15-.75-1.95-1.5m-.35-.3q-3.7-3.6-1-7.4l.35-1.65Q49.85 56 55 51.4q3.35-3.1 7.45-4l1.95-.3L50 72.2z"/><path fill-rule="evenodd" fill-opacity=".6" fill="#94b4b4" d="m29.55-13.45 2.2-5.95q2.25-5.75 3.65-8.65l1.4-2.25q4.95-7.7 9.9-12.8-.25 7.85-.85 11.6l-.3 1.5q-1 3.9-4.95 9.85-2.1 3.1-6.3 6.7l-.55.45-2.9 2.75-3.2 4.05.7-2.7-.35-.3.4-1.05 1.15-3.2m7.35-10.5-1.05 1.85 1.05-.75v-1.1l4.6-7.85-4.6 7.85m4.15-1.8-4.15 2.9 4.15-2.9m-5.2 3.65-5.5 9.35 5.5-9.35" transform="translate(48 46.1)"/><path fill-rule="evenodd" fill="#303a74" d="m27.65-6.2-.5 2.95.45.75q1.55 3.95 1.15 5l-.9 1.25Q26.75 1.7 24.6.5l-.3-1.2q1.5-4.8 3.45-8.75l.25.25.35.3-.7 2.7M9.1-3.4l1.65 3q.15.6-.7 1.35Q8.45.8 3.8 4.4l-.05.05q-1.35 1-.65-.35Q5.85 1.25 9 .2q1.7-.45.1-3.6M2.7.05Q3.2-1 4.05-1.8l1.05-.9-.4-2.15.8 2.8q-1.85.8-2.8 2.1" transform="translate(48 46.1)"/><path fill-rule="evenodd" fill="#bfd4db" d="m36.9-22.85-1.05.75 1.05-1.85v1.1" transform="translate(48 46.1)"/><path fill-rule="evenodd" fill="#dfaf0d" d="M30.7 20.85q1.1-.8-.05-1.3v-.05l-4.35.75q2.75-.6 3.05-1.75.4-1.6-.9-3-.8-1.25-2.15-.8-1.4.4-2.8 1.55-1.5 1.15-1.55 2.85-.05 1.65 1.55 1.6l-1.65.2q-1.2.6-.1 1.05l.4.1h-.35l-1.6-.15q-.45-.95-.05-1.25.35-.35.8-.5-.05-4.25 2.35-5.05 2.4-.85 4.25-2.2t3.05.85q1.15 2.1 1.3 5l-.05.2q.6.4.6.7l-.2.85-.35.05-1.2.3M16.3 22.2l.7-.4q.3-.45-.5-1.2l-1.45-.15q.9.05 1.45-.5l-.2-1.5q-.15-1.3-1.7-2.2l-3-1.8q-1.45-.95-2.45.75-.95 1.65-.25 2.65 1.4 1.5 4 2.3l-5.15-.95q-1.15.4 0 1.25l.05.1-.1-.05-1-.3-.15-.8q0-.35.6-.75.3-3 1.8-5.2 1.1-1.65 2.15-1.1 3.1 2.3 5.1 2.8 1.95.45 1.75 5.2l.8.5q.4.3-.15 1.25l-1.4.1h-.9" transform="translate(48 46.1)"/><path fill-rule="evenodd" fill="#ca9e0b" d="m31.9 20.55.35-.05q1.05.65-.65 1.7-.45 1.9-1.55 3-1.65 1.7-3.95 2.2h-.05q-1.25.25-2.25-.3-.85-.45-1.45-1.45-.65-1-1-2.1-2-.95-1.15-1.65l1.6.15q-1.05.5.1.9l6.65-.6q2.2-.35 3.4-1.1l-.05-.7M17.2 22.2l1.4-.1q.8.75-1.25 1.6l-1.05 2.05q-1.05 1.4-2.4 1.7l-1.5-.1-.35-.1Q10 26.65 8.55 25l-.6-.85v-.05q-.5-.9-.7-2.1-1.7-1.15-.55-1.8l1 .3q-1.5.2-.15 1.1l1.25.5 2.1.55 4.65.55 1.2-.1q1.25-.5.45-.9M9.55 24q.45 1.4 1.65 1.9l1.85.4q.7 0 1.5-.55t.3-.9q-.5-.35-2.7-1.05l-2.75-.65.15.85" transform="translate(48 46.1)"/><path fill-rule="evenodd" fill="#fed225" d="m22.15 22.05-.4-.1q-1.1-.45.1-1.05l1.65-.2q-1.6.05-1.55-1.6.05-1.7 1.55-2.85 1.4-1.15 2.8-1.55 1.35-.45 2.15.8 1.3 1.4.9 3-.3 1.15-3.05 1.75l4.35-.75v.05q1.15.5.05 1.3l1.2-.3.05.7q-1.2.75-3.4 1.1l-6.65.6q-1.15-.4-.1-.9h.35q3.15 0 8.55-1.2-5.4 1.2-8.55 1.2m-5.85.15h.9q.8.4-.45.9l-1.2.1-4.65-.55-2.1-.55-1.25-.5q-1.35-.9.15-1.1l.1.05q5.25 1.4 8.5 1.65" transform="translate(48 46.1)"/><path fill-rule="evenodd" fill="#a2b3d7" d="M24.25 4.1q.1.85-.4 1.5-.55.7-1.4.25l-1.4-1.35q-.6-.9-2.4-1.8-1.8-.9-.05-.8l2.95.2q1.25.1 1.9.65.65.5.8 1.35" transform="translate(48 46.1)"/><path fill-rule="evenodd" fill="#b7c7df" d="M27.1 4.95q.45.3.55.85.05.55-.3.95-.3.45-.85.55-.55.05-.95-.3-.4-.3-.5-.85-.05-.55.25-.95.35-.45.9-.5l.9.25" transform="translate(48 46.1)"/><path fill-rule="evenodd" fill="#ffe242" d="m7.8 20.55-.05-.1q-1.15-.85 0-1.25l5.15.95q-2.6-.8-4-2.3-.7-1 .25-2.65 1-1.7 2.45-.75l3 1.8q1.55.9 1.7 2.2l.2 1.5q-.55.55-1.45.5l1.45.15q.8.75.5 1.2l-.7.4q-3.25-.25-8.5-1.65" transform="translate(48 46.1)"/><path fill-rule="evenodd" fill="#d5ecf4" d="m1.6-13.45 1.85 3.2.55.95-.7.35 1.15 3q-2.9-2.35-6.2-4.3-2.75-1.6-5.75-2.9l-.7-.3-1.15-.5-.45-5.25 3.1-.05L-9.45-22l-2.75-7.2.8-2.9 2.3 2.05q3.8 4.75 10.7 16.6m-28.45-12.9q-2.4-2.8-3.25-5-.65-1.8-.85-5.15-.25-3.8.1-9.6 4.8 2.7 9.55 6.1l1.1 7.35-.9-.85-.3-.05.3.05.9.85 9.4 9.35-2.95-1.05-6.35-2.2-6.75.2M-.5-13.15l-6.2-6.1 6.2 6.1m-20.7-13.8 1.1.4-1.1-.4" transform="translate(48 46.1)"/><path fill-rule="evenodd" fill="#c4e8f0" d="M-9.35-13.95q-6.5-2.95-10.2-5.6l4.75-1.1 1.05-3.7 2.95 1.05-9.4-9.35-1.1-7.35q4.95 3.55 9.9 7.9l-.8 2.9 2.75 7.2 2.75 2.75-3.1.05.45 5.25m-1.45-9.35 1.35 1.3-1.35-1.3" transform="translate(48 46.1)"/><path fill-rule="evenodd" fill="#ddf2f7" d="M-19.55-19.55-21-20.7q-3.6-3.05-5.85-5.65l6.75-.2 6.35 2.2-1.05 3.7-4.75 1.1" transform="translate(48 46.1)"/><path fill-rule="evenodd" fill="#707dab" d="m4-9.3.65-.35L9.1-3.4Q10.7-.25 9 .2 5.85 1.25 3.1 4.1q-.7 1.35.65.35l-.95.8q-1-.25-1-.85l.05-1.1Q2 1.45 2.7.05q.95-1.3 2.8-2.1l-.8-2.8-.25-1.1-1.15-3L4-9.3" transform="translate(48 46.1)"/><path fill-rule="evenodd" fill="url(#b)" d="m9.55 24-.15-.85 2.75.65q2.2.7 2.7 1.05.5.35-.3.9t-1.5.55l-1.85-.4Q10 25.4 9.55 24" transform="translate(48 46.1)"/><path stroke-width=".05" stroke-linejoin="round" stroke-linecap="round" stroke="#7bcadd" fill="none" d="m77.55 32.65 2.2-5.95q2.25-5.75 3.65-8.65l1.4-2.25Q89.75 8.1 94.7 3M17.15 0q4.8 2.7 9.55 6.1 4.95 3.55 9.9 7.9l2.3 2.05q3.8 4.75 10.7 16.6"/><path stroke-width=".05" stroke-linejoin="round" stroke-linecap="round" stroke="#fff" fill="none" d="M94.7 3q-.25 7.85-.85 11.6l-.3 1.5q-1 3.9-4.95 9.85-2.1 3.1-6.3 6.7l-.55.45-2.9 2.75-3.2 4.05m-23.2.25q-2.9-2.35-6.2-4.3-2.75-1.6-5.75-2.9l-.7-.3-1.15-.5q-6.5-2.95-10.2-5.6L27 25.4q-3.6-3.05-5.85-5.65-2.4-2.8-3.25-5-.65-1.8-.85-5.15-.25-3.8.1-9.6M84.9 22.15 83.85 24l1.05-.75 4.15-2.9m-4.15 1.8 4.6-7.85M78.35 33.35l5.5-9.35M27.8 13.45l-.9-.85-.3-.05m14.7 14.3 6.2 6.1m-6.2-6.1-2.75-2.75-1.35-1.3-2.95-1.05-6.35-2.2-1.1-.4m1-5.7 9.4 9.35"/><path stroke-width=".05" stroke-linejoin="round" stroke-linecap="round" stroke="#7bcadd" fill="none" d="m76 36.9.4-1.05 1.15-3.2m-27.95 0 1.85 3.2.55.95"/><path stroke-width=".05" stroke-linejoin="round" stroke-linecap="round" stroke="#916606" fill="none" d="m78.7 66.95 1.2-.3.35-.05M68.2 68l1.6.15h.35q3.15 0 8.55-1.2M64.3 68.3h.9l1.4-.1m-11.9-1.9 1 .3.1.05q5.25 1.4 8.5 1.65"/><path stroke-width=".05" stroke-opacity=".514" stroke-linejoin="round" stroke-linecap="round" stroke="#272d45" fill="none" d="m75.65 39.9-.5 2.95.45.75q1.55 3.95 1.15 5l-.9 1.25q-1.1-2.05-3.25-3.25l-.3-1.2q1.5-4.8 3.45-8.75l.25.25m-24-.1.65-.35 4.45 6.25 1.65 3q.15.6-.7 1.35-1.6-.15-6.25 3.45l-.05.05-.95.8q-1-.25-1-.85l.05-1.1q.15-1.85.85-3.25.5-1.05 1.35-1.85l1.05-.9-.4-2.15-.25-1.1-1.15-3 .7-.35m23.65 3.1.7-2.7-.35-.3m4.25 29.7.2-.85q0-.3-.6-.7l.05-.2q-.15-2.9-1.3-5-1.2-2.2-3.05-.85-1.85 1.35-4.25 2.2-2.4.8-2.35 5.05-.45.15-.8.5-.4.3.05 1.25-.85.7 1.15 1.65.35 1.1 1 2.1.6 1 1.45 1.45 1 .55 2.25.3h.05q2.3-.5 3.95-2.2 1.1-1.1 1.55-3 1.7-1.05.65-1.7M66.6 68.2q.55-.95.15-1.25l-.8-.5q.2-4.75-1.75-5.2-2-.5-5.1-2.8-1.05-.55-2.15 1.1-1.5 2.2-1.8 5.2-.6.4-.6.75l.15.8q-1.15.65.55 1.8.2 1.2.7 2.1m0 .05.6.85q1.45 1.65 3.5 2.25l.35.1 1.5.1q1.35-.3 2.4-1.7l1.05-2.05q2.05-.85 1.25-1.6"/></g><g id="f" fill-rule="evenodd"><path fill-opacity=".62" fill="#40341a" d="m2.15-5.35 1.3.95.55.45.65-.2 3.2 1.85 4.65-.35h.5q6.25 0 10.4 1.9l.95.45-.05-.05.5-.65 3.55 2.35-.3.2.65.5 1 .4.75.3q1.95.9 3 2.05l1.1.25.55 2.6-.45-.45.05 1.15-.1.25q.7.75.7 1.35 0 .85-1.3 1.5l-3.25 1.05h.05l.3.35.1.15v.05l-.3.3-.05.05-.75.2h.05l.5.25.55.2q1.3.6 1.25 1.85v.05q-.1 1.25-.55 1.8l-.25.2-1.25.1h-.2L29 17.7l-1.1-.85-2.3-1.4-.3-.1.05.25q0 1.15-2.5 2.35-2.6 1.25-4.15 1.6l-1.25.2-1-.35-.15-.1q-.75-.6 0-1.85l.15-.25.2-.4-1.7.6-3.35.85-1.5.25-1.75-.15L8 18.1l-.05-.15-.1-.25q0-.75 1.4-1.75l.25-.2.75-.75-.8.25-2.15.5-1.6.2h-.1l-.05.05 1.1 1.35-.95.25-1.3-.65-1.55.45.55-.85H1.6v-.6l2.8-.1-.15-.1-.05-.15-.05-.05V15.4q-.05-.55 1.2-1.4l.15-.05.8-.65-1.45-.2-.75-.45-.15-.15v-.1l.1-.3.05-.05L.65 10.9l-.25-.1-2.05 1.5-.25.35-1.6-.15 1.3-.6.15-.05.15-.05 2-1.15-.7-.35-.45-.45q-3.05.7-4.55 1.35l-.7.4q-1.3-.2-1.15-.45l1.6-.3L-1.3 9.6l-1.05-1-1-.35Q-8 8.7-9.95 9.4h-.1q-.7.15-1.5.6l-.15.05-.95.55-.05.05-.4.25.6.95-1.1.2-.5-.55-1.5.5.45-.65-1.6-.15.2-.35 2.8-.15 1.2-.5.9-.35.15-.15 1-.6-.05-.25h.5L-3.4 8l.15-.15L-4 7.1l-1.7-1-1-1.1q-2.3.55-4.4 1.25l.35-2h.95l.1-.2L-7 3.8v-.25l.35-1.25.6-.7.85-.75q.75-.5 1.9-.9 2.95-1.25 6.9-1.4l1.25-.3-.15-.35-.25-.5L-.4-4.1l2.55-1.25m1.4 21.9-.1-.1-.05.1h.15m-7-2.7.15-.5q.05-.35-.05-.6l1.4.15q-.5.15-.9.6l-.15.3-.4.85-.1.4 1.95.75-.9.35-1.25-.35h.05-.15.1l-.85.7-.45-.6-1.85.15-.1-.15-.15-.25 2.7-.6.3-.3.65-.9m-6.4-.1q1.45-.85 2-1.45l.3-.7q.7-.05 1.3.3-.65.15-1.3.6L-9 13.85l.05.05 1.5.85-1.1.25-1-.5h.05l-.15-.05.1.05-1.3.55v-.6l-1.95-.05-.05-.4 3-.25m-4.25-2.25h.05l-.1-.05.05.05" transform="translate(48 19.7)"/><path fill-opacity=".455" fill="#816434" d="m34.55 5.05 3.55.9 2.35.75 1.5.95q1.45.95 2.8 2l3.1 2.7.2.2q-2.65 1.75-3.85 1.8l-1.25-.25-3-1.65-1.85-1.55-.55-.55-1.7-1.85-.75-.85-.55-2.6m-45.65 1.2-2.4.95q-4.7 2.1-8.4 2.9l-.95.25q-7.15 1.35-11.4 1.2l-2.3-.15L-48 9.55l1.05-.35q7.35-2.3 17.6-4.05l7.45-.5 11.1-.4h.05l-.35 2" transform="translate(48 19.7)"/><path fill-opacity=".302" fill="#816434" d="M24.8-1q1.3-1.7 2.95-3.1l.25.15.4-.45 1.15-1.35 2.2-2.55 3.65-3.75 1.4-.95q4.95-3.25 9.9-5.45-.25 3.35-.85 4.95l-.3.65q-1 1.65-4.95 4.2-2.1 1.35-6.3 2.9l-.55.15-2.9 1.2q-1.7.75-3.2 1.7l-.5 1.3.45.35q1.55 1.65 1.15 2.1l-.4.3L24.8-1M-.4-4.1l-1.35-.3-5.75-1.25-.7-.1-1.15-.2-10.2-2.4-1.45-.5q-3.6-1.35-5.85-2.45-2.4-1.2-3.25-2.15-.65-.75-.85-2.2-.25-1.6.1-4.05l9.55 2.55 9.9 3.4 2.3.9q3.8 2 10.7 7.1l.55.4L-.4-4.1" transform="translate(48 19.7)"/></g><linearGradient y2=".514" y1=".137" x2=".578" x1=".594" spreadMethod="pad" id="a"><stop stop-color="#7885b1" offset="0"/><stop stop-color="#556097" offset="1"/></linearGradient><linearGradient y2="1.334" y1=".19" x2=".644" x1=".615" spreadMethod="pad" id="b"><stop stop-color="#fed225" offset="0"/><stop stop-color="#ca9e0b" offset="1"/></linearGradient><path fill-rule="evenodd" fill-opacity="0" fill="#f0f" d="M0 0h102.95v45H0V0" id="c"/><use xlink:href="#c" width="102.95" height="45" id="g"/></defs><path fill="none" d="M-1-1h161v205H-1z"/><g><use x="91.975" y="214.758" xlink:href="#d" width="381" transform="translate(-192.55 -294)" height="381"/><use x="56.725" y="132.452" xlink:href="#e" width="96.05" transform="translate(-91.826 -212.845) scale(1.6214)" height="93.1"/><use x="56.725" y="132.452" xlink:href="#f" width="96.05" transform="translate(-91.826 -77.291) scale(1.6214)" height="39.45"/><use x="-55.376" y="-47.613" xlink:href="#g" width="102.95" transform="matrix(1.8072 0 0 1.6538 94 146.3)" height="45"/></g></svg>