<svg width="221" height="219" xmlns="http://www.w3.org/2000/svg" xmlns:xlink="http://www.w3.org/1999/xlink"><defs><path fill-rule="evenodd" fill-opacity=".6" fill="#eee0ff" d="m4.05-24.1.2.7q.3.6.9.75l.95.05 1.2-.4.2-2.1q-.5.4-1.1.5h-.85q-.9 0-1.2-.55l-.05-.25-.25 1.3" transform="translate(-4.05 25.4)" id="f"/><path fill-rule="evenodd" fill-opacity=".153" fill="#170900" d="m-.45-19.15.75 2.6.5 1.9q.35 1.8.05 2.3-.3.45-1.45.5-.65 0-1.6-.9l-1-1.15-1.45-2.15q-2.25-3.55-2.5-4.65l-.05-.5.3-.45.6.45.5.5q1.6 1.6 3.45 4.45l.4.55-.1-.45-.05-.15-1.6-5.7q-.95-3.05-1.3-5.05V-28q.1-.6.55-.65 1.2-.05 2.05 2.6l.7 2.85 1.25 4.05" transform="translate(7.2 28.65)" id="h"/><path fill-rule="evenodd" fill-opacity=".6" fill="#eee0ff" d="m-2.05-23.2.15-.1.1-.1q.45-.2.7.25l-.2.6q-.3.5-.65.65l-.7.15-.95-.25.5-.55 1.05-.65M-2.3-25l-.7.4q-.6.5-.95.65H-4q-1.3.6-2.3-.3l-.2-1.15q1.2 1.05 2.05.75l.1-.05q.35-.3.75-1.25l.7-.1.75-.7.35.95-.5.8m-2.75-.85h.15l.75.2-.2.3h-.4q-.9.05-1-.2l.2-.15.3-.15h.2" transform="translate(6.5 26.75)" id="i"/><path fill-rule="evenodd" fill-opacity=".6" fill="#eee0ff" d="m11.55-23.3 2.15-.75-1.3 2.9-.7.7-.15-.05-2.35-.65q-.35-.15-.6-.25t-.6-.7l.95-1.65q.1.45.55.65l.45.15 1.6-.35m-1.05-.95.65.6-.95.1-.5-.25-.55-.35.55-1.1.8 1" transform="translate(-8 25.25)" id="j"/><path fill-rule="evenodd" fill-opacity=".6" fill="#eee0ff" d="m12.45-16.85-.2-.05q-1.2-.45-1.5-1.75l-.05-.3.3-.4 1.9 1.75.2.15q.95.3 2.2-.4l-.4 1.05-.35.1-2.1-.15" transform="translate(-10.7 19.35)" id="l"/><path fill-rule="evenodd" fill-opacity=".153" fill="#170900" d="m-14.15-16.5.85-.35.7.1q1.3.6 3.2 1.75l3.6 2.05.1.05.25.15-.2-.4q-1.25-1.9-1.7-3.35l-.15-.45-.05-.6.45-.2.4.1q.75.35 2.35 2.65l.95 1.45.45.95q.15.95-.15 1.45-.6.95-1.05 1.1-.55.15-1.75-.4l-1.2-.6-1.65-.95-2.5-1.55q-1.15-.4-1.9-.95-1.6-1.05-1-2" transform="translate(14.3 17.75)" id="m"/><path fill-rule="evenodd" fill-opacity=".6" fill="#eee0ff" d="m-12.1-3.4 1.5-3.05q.45-1.1.35-1.5l1.6.05h.1q.1.65-.25 1.65-.45 1.2-1.5 2.8l-1.8.05" transform="translate(12.1 7.95)" id="o"/><path fill-rule="evenodd" fill-opacity=".6" fill="#eee0ff" d="M12.7-10.3h-.1q-.1.65.25 1.65.45 1.2 1.5 2.8l1.8.05-1.5-3.05q-.45-1.1-.35-1.5l-1.6.05" transform="translate(-12.6 10.35)" id="p"/><path fill-rule="evenodd" fill-opacity=".6" fill="#eee0ff" d="M12.3-14.4h-.05q.05.7.7 1.55l2.1 2.2 1.75-.65-2.25-2.35q-.75-.95-.7-1.3l-1.55.55" transform="translate(-12.25 14.95)" id="q"/><path stroke-width="1.75" stroke-opacity=".8" stroke-linejoin="round" stroke-linecap="round" stroke="#000" fill="none" d="M106.7 2.35q4.9-2.1 10.45-1.25 6.4.8 8.95 4.35 9.85 29.05 15.95 48.25l1.05-1.95 3.8 10.3-1.5 2.55 2.85 10v-.45q-4.6-50.8 6.55-59.4 1.15-.9 2.55-1.25 5.25-1.85 12.3-1.3 4 .35 8.6 1.4l5.3 1.4q17.9 5.25 20.3 16.05l2.65 16.2 1.4 8.3q.1-2.3-.15-4.5l1.5 9.75.7-6.2L211 43.9q1-7.2 10.9-12.6 1.5-.95 3-1.5 2.5-1.25 4.7-1.95 3.9-1.15 6.9-.7l1.5.6q6.3 4.25 4.9 37.3l-.1 4.5.45-.35-1.6 18.5q4.7.7 11.6 2.85l.45.15 2.3-4.05.15-.2.55-.95 3.7-6.65L266 67l.45.8q6.2-11.25 7-12.05 3.8-4.7 8.4-7.45 9.1-5.4 21.05-2.9l3.1.8q4.7 1.65 8.15 4.95 4.1 3.9 3.9 7.35-12.4 28.6-19.9 44.1l3.7-.2q4.8-.35 9.85 0 19.3 1.25 41.7 12.15-17.45 14.4-30.2 32.2l-3.2 8.35-.35.15-2.65 6.2q-.8 3.9-1.25 7.9 15.5-5.6 16.75-5.75 4.85-.55 9.8.6 9.65 2.4 19.5 11.85l2.4 2.5q3.7 4.05 5.75 8.5 2.45 5.3 1.15 7.45l-.8.5-17 22.4q-2.65 1.35-5.5 2.5l-4.6 1.75q2.75 1 5.4 2.75 8.75 5.6 15.75 18l1.7 3.25q2.55 5.15 3.35 10.1.9 5.85-.8 7.35-23.8 3.35-36.2 4.15l.7 1.35h-1.6l.65.6 9.9 22.75 10.1 12.75-2.05 11.7-4.7 9.1-4.25 1.15q-3.9.3-7.6-1.5-6.9-3.6-13.1-14.25-9.85-16.65-12.85-41.15l-.25-1q-5.95.9-13.45-1.4l-18.15-.35 6.9 8.15-3.3 7.35 7 12.2.55 21 4.6 13.35-6.3 8.15-7.8 5.15-4.4-.7q-3.8-1.1-6.4-3.9-5.1-5.15-6.8-15.6-2.65-15.05 2.55-33.1l-.95-.45q-2.15-1.05-4.15-2.5-11.9 20.2-37.75 22.6-29.55 5.75-70.45-1.5-10.55-2.85-16.85-5.25-4.85 7.9-11.05 10.9l-1.25.55q5.5 18.65 2.85 34.15-1.85 10.45-6.9 15.6-2.65 2.75-6.3 3.9l-4.35.7-7.85-5.15-6.3-8.15 4.5-13.35.65-21 7.15-12.65-3.45-8.05 6.65-8.05-18.95.7q-5.75 1.6-10.45 1.25l-.1.8q-3.1 24.5-12.9 41.15-6.3 10.65-13.2 14.25-3.65 1.8-7.45 1.5l-4.25-1.15-4.85-9.1-1.45-8.85-5.65-3.65-5.05-7 6.1-11.4 3.1-17.9.45-.6-27.25-3.45q-1.7-1.5-.65-7.35.65-4.95 3.2-10.1l1.7-3.2q3.7-6.55 7.95-11.25-9.1-13.9-12.55-26.8-.9-2.95-1.35-5.85l-1.25-1.5Q-.05 219 1.9 213q-.1-4.25.35-8.35.25-3.7 2.55-10.95 2.5-7.9 4.9-11.6 5.3-5.5 14.75-7-10.5-8.7-5.2-16.9 1.15-1.8 3.2-2.75l-7.9-11L7.2 134.2Q2.7 127 12 110.8q1.4-2.65 2.9-4.85 2.5-4 5.15-7.25 4.4-5.5 9.1-8.7 1.15-.8 2.4-1.15 12.05-4.15 36.55 23.1.1-7.85 6.05-19.1 1.3-2.5 2.65-4.6 2.2-3.9 4.5-6.9 4-5.15 8.05-7.65.9-.7 2.05-.95 2.65-.45 6.1 1.75-9.1-35.95-9.2-38.15-.8-7.6.7-13.8 2.95-12.15 14.45-18.7 1.5-.95 3.25-1.5z" id="b"/><path fill-rule="evenodd" fill-opacity="0" fill="#f0f" d="M0 0h102.95v45H0V0" id="z"/><path d="m-10.05-21.35.45.3q.55.9.45 2.05-.15.85-.7 1.6l-.7.65q-.5.3-1.1.55l-1.9-1.15 1.5-.6q.5-.3 1.05-1l.7-1.05q.25-.4.25-1.35m-3.1 9.6h.05l.65.35q-.1.7-.85 1.2-.6.4-1.55.7l-.6-.45q.45.15 1.35-.7.45-.4.95-1.1m1.75.9 1.55.9q.1.7-1 1.15l-1.65.5-1.8-.9.65.05q.55-.1 1.05-.45l.2-.1q.8-.6 1-1.15" transform="translate(15.45 21.35)" id="n" fill-rule="evenodd" fill-opacity=".6" fill="#eee0ff"/><g id="A" stroke-opacity="0" stroke-linejoin="round" stroke-linecap="round" stroke="#f0f" fill="none"><path d="M187.95-293.5v380h-380v-380h380M92.95.6H-97" transform="translate(192.55 294)"/><path d="m187.95-293.5-190 190 190 190m-380-380 190 190L-192 86.5" transform="translate(192.55 294)"/></g><g transform="translate(2.65 3.1)" id="B"><use xlink:href="#a" width="186" transform="translate(-2.642 -3.102) scale(2.2975)" height="167.95"/><use xlink:href="#b" width="372.4" transform="translate(48.2 15.05)" height="368.6"/></g><g transform="translate(20.8 33.5)" id="v"><use xlink:href="#c" width="23.9" transform="translate(-13.85 -14.4)" height="14.75"/><use xlink:href="#d" width="29.5" transform="matrix(.2332 .0373 -.0452 .3019 1.956 -30.07)" height="50"/><use xlink:href="#e" width="3.95" transform="matrix(-.3059 -.172 -.0898 .2291 7.8 -25.6)" height="5.6"/><use xlink:href="#e" width="3.95" transform="matrix(-.2663 -.1497 -.0782 .1994 7.3 -23.7)" height="5.6"/><use xlink:href="#e" width="3.95" transform="matrix(.2371 -.0458 .1432 .2446 4 -25.45)" height="5.6"/><use xlink:href="#e" width="3.95" transform="matrix(-.2663 -.1497 -.0782 .1994 3.85 -21.6)" height="5.6"/><use xlink:href="#f" width="3.45" transform="translate(4.05 -25.4)" height="2.8"/><use xlink:href="#g" width="25.3" transform="matrix(.368 -.2108 .3086 .4353 -13.804 -27.218)" height="38.05"/><use xlink:href="#h" width="8.2" transform="translate(-7.2 -28.65)" height="16.8"/><use xlink:href="#e" width="3.95" transform="matrix(-.3774 -.1029 -.0167 .398 -2.85 -29.55)" height="5.6"/><use xlink:href="#e" width="3.95" transform="matrix(-.3005 -.082 -.0133 .3169 -2.3 -25.95)" height="5.6"/><use xlink:href="#e" width="3.95" transform="matrix(-.3005 -.082 -.0133 .3169 -4.3 -28.5)" height="5.6"/><use xlink:href="#i" width="5.4" transform="translate(-6.5 -26.75)" height="5"/><use xlink:href="#g" width="25.3" transform="matrix(.3823 .0783 -.0276 .4137 5.314 -29.207)" height="38.05"/><use xlink:href="#e" width="3.95" transform="matrix(-.1672 -.2951 -.2708 .1699 14.1 -24.3)" height="5.6"/><use xlink:href="#e" width="3.95" transform="matrix(-.1672 -.2951 -.2708 .1699 12.3 -22.3)" height="5.6"/><use xlink:href="#e" width="3.95" transform="matrix(.3176 .0258 -.0144 .3392 9.85 -25.75)" height="5.6"/><use xlink:href="#j" width="5.7" transform="translate(8 -25.25)" height="4.8"/><use xlink:href="#d" width="29.5" transform="matrix(-.4136 .1336 .0999 .452 7.857 -33.493)" height="50"/><use xlink:href="#e" width="3.95" transform="matrix(.3637 -.0029 .0821 .3716 5.9 -20.8)" height="5.6"/><use xlink:href="#e" width="3.95" transform="matrix(-.2934 -.2849 -.2286 .2373 10.15 -19.55)" height="5.6"/><use xlink:href="#e" width="3.95" transform="matrix(-.2251 -.2186 -.1754 .182 9 -17.5)" height="5.6"/><use xlink:href="#e" width="3.95" transform="matrix(-.3697 -.1136 -.0361 .3524 3.45 -26.35)" height="5.6"/><use xlink:href="#e" width="3.95" transform="matrix(.2903 -.164 .2315 .3317 -1.2 -26)" height="5.6"/><use xlink:href="#e" width="3.95" transform="matrix(.2903 -.164 .2315 .3317 .4 -24.15)" height="5.6"/><use xlink:href="#k" width="11.9" transform="translate(-1.75 -26.85)" height="9.05"/><use xlink:href="#g" width="25.3" transform="matrix(.3954 .15 -.0068 .4376 6.153 -24.369)" height="38.05"/><use xlink:href="#e" width="3.95" transform="matrix(-.172 -.289 -.204 .1179 13.2 -18.35)" height="5.6"/><use xlink:href="#e" width="3.95" transform="matrix(-.172 -.289 -.204 .1179 15.25 -18)" height="5.6"/><use xlink:href="#e" width="3.95" transform="matrix(-.2261 -.38 -.2682 .1551 14.4 -15.65)" height="5.6"/><use xlink:href="#l" width="4.6" transform="translate(10.7 -19.35)" height="2.7"/><use xlink:href="#d" width="29.5" transform="matrix(.3589 -.2467 .1875 .3038 -20.823 -18.029)" height="50"/><use xlink:href="#m" width="11.4" transform="translate(-14.3 -17.75)" height="7.75"/><use xlink:href="#e" width="3.95" transform="matrix(.0971 -.329 .3277 .0289 -12.45 -9.45)" height="5.6"/><use xlink:href="#e" width="3.95" transform="matrix(.0715 -.2358 .2345 .0227 -14.25 -9.8)" height="5.6"/><use xlink:href="#e" width="3.95" transform="matrix(-.3362 .1265 .0653 .3058 -10.25 -21.75)" height="5.6"/><use xlink:href="#e" width="3.95" transform="matrix(-.3362 .1265 .0653 .3058 -8.95 -18.6)" height="5.6"/><use xlink:href="#e" width="3.95" transform="matrix(.0971 -.329 .3277 .0289 -13.7 -17.8)" height="5.6"/><use xlink:href="#n" width="6.3" transform="translate(-15.45 -21.35)" height="13.05"/><use xlink:href="#g" width="25.3" transform="matrix(-.2251 .3937 .2138 .1855 -10.557 -14.243)" height="38.05"/><use xlink:href="#e" width="3.95" transform="matrix(.0006 -.3455 .2851 -.1437 -13.5 -3.85)" height="5.6"/><use xlink:href="#e" width="3.95" transform="matrix(-.1819 .2062 .0942 .1726 -11.9 -8.05)" height="5.6"/><use xlink:href="#e" width="3.95" transform="matrix(-.1819 .2062 .0942 .1726 -10.5 -7.55)" height="5.6"/><use xlink:href="#o" width="3.55" transform="translate(-12.1 -7.95)" height="4.55"/><use xlink:href="#g" width="25.3" transform="matrix(.2251 .3937 -.2138 .1855 14.607 -16.643)" height="38.05"/><use xlink:href="#e" width="3.95" transform="matrix(-.0006 -.3455 -.2851 -.1437 17.55 -6.25)" height="5.6"/><use xlink:href="#e" width="3.95" transform="matrix(.1819 .2062 -.0942 .1726 15.95 -10.45)" height="5.6"/><use xlink:href="#e" width="3.95" transform="matrix(.1819 .2062 -.0942 .1726 14.55 -9.95)" height="5.6"/><use xlink:href="#p" width="3.55" transform="translate(12.6 -10.35)" height="4.55"/><use xlink:href="#g" width="25.3" transform="matrix(.3144 .2999 -.1543 .2534 12.477 -21.127)" height="38.05"/><use xlink:href="#e" width="3.95" transform="matrix(-.0897 -.3322 -.3067 -.0384 17.95 -12.2)" height="5.6"/><use xlink:href="#e" width="3.95" transform="matrix(.2252 .1346 -.0445 .199 15.35 -15.65)" height="5.6"/><use xlink:href="#e" width="3.95" transform="matrix(.2252 .1346 -.0445 .199 14.15 -14.65)" height="5.6"/><use xlink:href="#q" width="4.55" transform="translate(12.25 -14.95)" height="4.3"/><use xlink:href="#d" width="29.5" transform="matrix(.3078 -.1967 .14 .3739 -13.924 -20.689)" height="50"/><use xlink:href="#e" width="3.95" transform="matrix(.2271 -.2718 .2048 .2685 -8.6 -19.4)" height="5.6"/><use xlink:href="#e" width="3.95" transform="matrix(-.3572 .0207 -.004 .4458 -4.75 -22)" height="5.6"/><use xlink:href="#e" width="3.95" transform="matrix(.157 -.3382 .2621 .177 -6.65 -17.4)" height="5.6"/><use xlink:href="#e" width="3.95" transform="matrix(.1052 -.3662 .2875 .1106 -9.05 -10.1)" height="5.6"/><use xlink:href="#e" width="3.95" transform="matrix(.1052 -.3662 .2875 .1106 -8.1 -11.95)" height="5.6"/><use xlink:href="#e" width="3.95" transform="matrix(.0866 -.3013 .2366 .091 -7.05 -9)" height="5.6"/><use xlink:href="#r" width="35.6" transform="translate(-15.8 -21.9)" height="25.65"/></g><g id="c"><path fill-rule="evenodd" fill="#dd9e03" d="m4.25-14.4.7.1.35.2.35.55v.25l-.4-.05-.95.05-2 1.5-.15-.05-.7-.15q.8-1.75 2.8-2.4" transform="translate(13.85 14.4)"/><path fill-rule="evenodd" fill="#ffe870" d="m2.55-11.5-.2.05-.7-.15-.55-.35.2-.45q.55-1.1 1.6-1.65l1.35-.35q-2 .65-2.8 2.4l.7.15.4.35" transform="translate(13.85 14.4)"/><path fill-rule="evenodd" fill="#b07d02" d="m5.65-13.3.1.4-1.05.35-1.1.9-1.05.15-.4-.35.15.05 2-1.5.95-.05.4.05" transform="translate(13.85 14.4)"/><path stroke-width=".05" stroke-opacity=".302" stroke-linejoin="round" stroke-linecap="round" stroke="#170900" fill="none" d="m14.95 2.45.2-.45M18.8.1l.35.2M16.4 2.9l-.2.05-.7-.15-.55-.35m.2-.45Q15.7.9 16.75.35L18.1 0l.7.1m.35.2.35.55v.25l.1.4-1.05.35-1.1.9-1.05.15"/><path fill-rule="evenodd" fill="#170933" d="m2.55-12.5-.35.05-.2-.2v-.3l.2-.15h.3l.25.15v.25l-.2.2" transform="translate(13.85 14.4)"/><path fill-rule="evenodd" fill-opacity=".6" fill="#fff" d="M2.3-12.8h-.1l-.1-.05.05-.15h.05l.1-.05.1.1.05.1q0 .1-.15.05" transform="translate(13.85 14.4)"/><path fill-rule="evenodd" fill="#170933" d="m2.7-13.55-.15-.1.15-.15.25-.15.3-.05.1.1-.1.15-.3.15-.25.05" transform="translate(13.85 14.4)"/><path fill-rule="evenodd" fill-opacity=".6" fill="#fff" d="m2.95-13.7-.1-.05.1-.05.1-.05.1-.05.05.05-.05.05-.1.05-.1.05" transform="translate(13.85 14.4)"/><path fill-rule="evenodd" fill="#170933" d="m3.85-12.65-.35-.1-.1-.2.05-.2.3-.1.3.1.15.2-.15.2-.2.1" transform="translate(13.85 14.4)"/><path fill-rule="evenodd" fill-opacity=".6" fill="#fff" d="m3.75-12.9-.15-.05-.05-.1.1-.05.05-.05.15.05.05.1v.05l-.15.05" transform="translate(13.85 14.4)"/><path fill-rule="evenodd" fill="#170933" d="m4.35-13.35-.05-.15.15-.05h.3l.3.05.1.1-.2.1h-.3l-.3-.05" transform="translate(13.85 14.4)"/><path fill-rule="evenodd" fill-opacity=".6" fill="#fff" d="m4.7-13.45-.05-.05.05-.05h.15l.1.05.05.05-.05.05-.15-.05h-.1" transform="translate(13.85 14.4)"/><path fill-rule="evenodd" fill="#dd9e03" d="m7.55-11.8.1.75-.1.35-.4.5-.25.05-.1-.4-.3-.85-2.05-1.5v-.2l-.1-.75q1.95.3 3.2 2.05" transform="translate(13.85 14.4)"/><path fill-rule="evenodd" fill="#ffe870" d="m4.25-12.6-.1-.2-.15-.7.2-.65.5.1q1.2.2 2.1 1.05l.75 1.2q-1.25-1.75-3.2-2.05l.1.75-.2.5" transform="translate(13.85 14.4)"/><path fill-rule="evenodd" fill="#b07d02" d="m6.9-10.15-.35.2-.65-.9-1.15-.8-.5-.95.2-.5v.2l2.05 1.5.3.85.1.4" transform="translate(13.85 14.4)"/><path stroke-width=".05" stroke-opacity=".302" stroke-linejoin="round" stroke-linecap="round" stroke="#170900" fill="none" d="m18.05.25.5.1m2.95 3-.1.35m-3.3-1.9-.1-.2-.15-.7.2-.65m.5.1q1.2.2 2.1 1.05l.75 1.2.1.75m-.1.35-.4.5-.25.05-.35.2-.65-.9-1.15-.8-.5-.95"/><path fill-rule="evenodd" fill="#170933" d="m5.2-12.95-.1-.3.1-.25.25-.05.25.15.1.3-.1.25-.25.05-.25-.15" transform="translate(13.85 14.4)"/><path fill-rule="evenodd" fill-opacity=".6" fill="#fff" d="m5.4-13.15-.05-.1.05-.1h.15l.05.05v.2l-.1.05-.1-.1" transform="translate(13.85 14.4)"/><path fill-rule="evenodd" fill="#170933" d="m6.2-13 .05-.15.15.05.25.25.1.25v.15l-.2-.05-.2-.25L6.2-13" transform="translate(13.85 14.4)"/><path fill-rule="evenodd" fill-opacity=".6" fill="#fff" d="m6.4-12.85.05-.1v.05l.15.1v.1l.05.05h-.1l-.1-.1-.05-.1" transform="translate(13.85 14.4)"/><path fill-rule="evenodd" fill="#170933" d="m5.7-11.75.05-.3.1-.2.25.05.15.25v.3l-.15.2-.25-.05-.15-.25" transform="translate(13.85 14.4)"/><path fill-rule="evenodd" fill-opacity=".6" fill="#fff" d="M6-11.85 5.95-12l.1-.05.05.05.1.05-.05.1v.1L6-11.7v-.15" transform="translate(13.85 14.4)"/><path fill-rule="evenodd" fill="#170933" d="m6.6-11.35.1-.1.1.1.15.3v.3l-.05.1-.15-.1-.1-.3-.05-.3" transform="translate(13.85 14.4)"/><path fill-rule="evenodd" fill-opacity=".6" fill="#fff" d="m6.7-11.15.05-.05.05.05.05.15v.1l-.05.05-.05-.05v-.1l-.05-.15" transform="translate(13.85 14.4)"/><path fill-rule="evenodd" fill="#dd9e03" d="m-10.05-3.5-.7-.2-.3-.2-.3-.8.1-.3.45.1 1-.1 2.4-1.9.2.1.65.25q-1.3 2.3-3.5 3.05" transform="translate(13.85 14.4)"/><path fill-rule="evenodd" fill="#ffe870" d="m-7.55-7.25.15-.05.75.15.45.5-.35.6q-.8 1.45-2 2.15-.85.45-1.5.4 2.2-.75 3.5-3.05l-.65-.25-.35-.45" transform="translate(13.85 14.4)"/><path fill-rule="evenodd" fill="#b07d02" d="M-11.25-5v-.5l1.15-.45 1.4-1.1 1.15-.2.35.45-.2-.1L-9.8-5l-1 .1-.45-.1" transform="translate(13.85 14.4)"/><path stroke-width=".05" stroke-opacity=".302" stroke-linejoin="round" stroke-linecap="round" stroke="#170900" fill="none" d="m7.65 7.75-.35.6M3.1 10.7l-.3-.2m3.5-3.35.15-.05.75.15.45.5m-.35.6q-.8 1.45-2 2.15-.85.45-1.5.4l-.7-.2m-.3-.2-.3-.8.1-.3v-.5l1.15-.45 1.4-1.1 1.15-.2"/><path fill-rule="evenodd" fill="#170933" d="m-7.85-6 .35.05.2.25q.05.2-.05.35l-.25.25H-8l-.15-.3.05-.35.25-.25" transform="translate(13.85 14.4)"/><path fill-rule="evenodd" fill-opacity=".6" fill="#fff" d="m-7.7-5.55.15-.05.05.15-.05.1-.05.1h-.15l-.05-.1v-.15l.1-.05" transform="translate(13.85 14.4)"/><path fill-rule="evenodd" fill="#170933" d="m-8.3-4.5.15.1-.15.2-.35.15-.3.05-.1-.1.1-.2.4-.2h.25" transform="translate(13.85 14.4)"/><path fill-rule="evenodd" fill-opacity=".6" fill="#fff" d="M-8.45-4.4v.05l-.05.05-.15.1h-.15v-.05l.05-.05.15-.1h.15" transform="translate(13.85 14.4)"/><path fill-rule="evenodd" fill="#170933" d="m-9.2-5.75.25.15.1.3-.2.25-.3.1q-.1 0-.25-.15l-.1-.3.15-.25.35-.1" transform="translate(13.85 14.4)"/><path fill-rule="evenodd" fill-opacity=".6" fill="#fff" d="m-9.1-5.4.1.05v.1l-.05.1h-.2l-.05-.15.05-.1h.15" transform="translate(13.85 14.4)"/><path fill-rule="evenodd" fill="#170933" d="m-9.95-4.8.05.15-.2.1h-.3l-.35-.1v-.1l.15-.15h.4l.25.1" transform="translate(13.85 14.4)"/><path fill-rule="evenodd" fill-opacity=".6" fill="#fff" d="m-10.3-4.8.1.05-.1.05-.15-.05h-.1v-.1l.2-.05.05.1" transform="translate(13.85 14.4)"/><path fill-rule="evenodd" fill="#dd9e03" d="m-11.6 0-.65.3-.4.05-.7-.4-.15-.25.35-.25.75-.7.5-3.05.2-.05.75-.25q.5 2.6-.65 4.6" transform="translate(13.85 14.4)"/><path fill-rule="evenodd" fill="#ffe870" d="m-12.2-4.45.1-.2.65-.35.65.05.15.7q.3 1.6-.1 3-.35.8-.85 1.25 1.15-2 .65-4.6l-.75.25-.5-.1" transform="translate(13.85 14.4)"/><path fill-rule="evenodd" fill="#b07d02" d="m-13.5-.3-.35-.45.6-1.1.3-1.7.75-.9.5.1-.2.05-.5 3.05-.75.7-.35.25" transform="translate(13.85 14.4)"/><path stroke-width=".05" stroke-opacity=".302" stroke-linejoin="round" stroke-linecap="round" stroke="#170900" fill="none" d="m3.05 9.45.15.7M1.6 14.7l-.4.05m.45-4.8.1-.2.65-.35.65.05m.15.7q.3 1.6-.1 3-.35.8-.85 1.25l-.65.3m-.4.05-.7-.4-.15-.25-.35-.45.6-1.1.3-1.7.75-.9"/><path fill-rule="evenodd" fill="#170933" d="m-11.55-3.35.25-.2.3.05.2.35-.05.3q-.05.2-.25.25l-.3-.1-.2-.25.05-.4" transform="translate(13.85 14.4)"/><path fill-rule="evenodd" fill-opacity=".6" fill="#fff" d="m-11.2-3.15.1-.05h.1l.05.15v.1l-.1.1-.1-.05-.1-.1.05-.15" transform="translate(13.85 14.4)"/><path fill-rule="evenodd" fill="#170933" d="M-11-1.95h.2l-.05.3-.1.35-.25.2h-.1l-.05-.3.15-.3.2-.25" transform="translate(13.85 14.4)"/><path fill-rule="evenodd" fill-opacity=".6" fill="#fff" d="M-11.05-1.65h.05v.1l-.05.1-.1.1h-.05v-.1l.05-.15.1-.05" transform="translate(13.85 14.4)"/><path fill-rule="evenodd" fill="#170933" d="m-12.45-2.3.25-.1.3.15.05.35-.15.25-.35.05q-.15 0-.2-.1l-.1-.35.2-.25" transform="translate(13.85 14.4)"/><path fill-rule="evenodd" fill-opacity=".6" fill="#fff" d="m-12.25-2.1.15-.05.05.1.05.15-.05.1h-.15l-.05-.05-.05-.1.05-.15" transform="translate(13.85 14.4)"/><path fill-rule="evenodd" fill="#170933" d="m-12.45-1 .15.05-.1.2-.2.2-.3.15-.1-.05.05-.2.25-.25.25-.1" transform="translate(13.85 14.4)"/><path fill-rule="evenodd" fill-opacity=".6" fill="#fff" d="M-12.65-.85h.05l-.05.1-.1.05-.1.1-.05-.05.05-.05.05-.15h.15" transform="translate(13.85 14.4)"/><path fill-rule="evenodd" fill="#dd9e03" d="m6.1-11.15.5.5.25.3.05.7-.15.15-.35-.25q-.45-.25-.85-.45l-2.4.35L3-10l-.55-.6q1.65-1.05 3.65-.55" transform="translate(13.85 14.4)"/><path fill-rule="evenodd" fill="#ffe870" d="M3.2-9.55 3-9.6l-.6-.5-.3-.55.45-.25q1-.7 2.2-.7l1.35.45q-2-.5-3.65.55L3-10l.2.45" transform="translate(13.85 14.4)"/><path fill-rule="evenodd" fill="#b07d02" d="m6.75-9.5-.15.4-1.05-.2-1.4.15-.95-.4L3-10l.15.15 2.4-.35q.4.2.85.45l.35.25" transform="translate(13.85 14.4)"/><path stroke-width=".05" stroke-opacity=".302" stroke-linejoin="round" stroke-linecap="round" stroke="#170900" fill="none" d="m15.95 3.75.45-.25m4.05.25.25.3m-3.65.8-.2-.05-.6-.5-.3-.55m.45-.25q1-.7 2.2-.7l1.35.45.5.5m.25.3.05.7-.15.15-.15.4-1.05-.2-1.4.15-.95-.4"/><path fill-rule="evenodd" fill="#170933" d="M3.65-10.4q-.2-.05-.3-.15l-.1-.3.15-.25.25-.05.3.2.1.25-.15.25-.25.05" transform="translate(13.85 14.4)"/><path fill-rule="evenodd" fill-opacity=".6" fill="#fff" d="m3.7-10.75-.15-.05v-.1l.05-.15h.1l.1.1.05.05-.05.1-.1.05" transform="translate(13.85 14.4)"/><path fill-rule="evenodd" fill="#170933" d="m4.4-11.25-.05-.1.15-.1.3.05.3.1.05.15-.15.05h-.35q-.2-.05-.25-.15" transform="translate(13.85 14.4)"/><path fill-rule="evenodd" fill-opacity=".6" fill="#fff" d="m4.65-11.2-.05-.05.1-.05.1.05h.15l-.05.05v.05h-.15l-.1-.05" transform="translate(13.85 14.4)"/><path fill-rule="evenodd" fill="#170933" d="m4.85-9.85-.2-.25v-.25l.2-.1.25.05.2.25v.25l-.15.15-.3-.1" transform="translate(13.85 14.4)"/><path fill-rule="evenodd" fill-opacity=".6" fill="#fff" d="m4.9-10.1-.05-.1-.05-.1.1-.1.1.05.1.1v.1l-.1.05h-.1" transform="translate(13.85 14.4)"/><path fill-rule="evenodd" fill="#170933" d="M5.75-10.2q-.1-.1-.05-.15l.2.05.3.1.2.25v.1h-.15q-.15 0-.3-.15l-.2-.2" transform="translate(13.85 14.4)"/><path fill-rule="evenodd" fill-opacity=".6" fill="#fff" d="m6-10.1-.05-.05h.1l.1.1.1.05v.05H6.2L6.05-10 6-10.1" transform="translate(13.85 14.4)"/><path fill-rule="evenodd" fill="#dd9e03" d="m9.65-7.15.35.65.05.4-.4.75-.25.1-.25-.3-.7-.7-3.1-.4-.05-.2L5-7.6q2.55-.6 4.65.45" transform="translate(13.85 14.4)"/><path fill-rule="evenodd" fill="#ffe870" d="m5.2-6.35-.2-.1-.35-.6.05-.7.7-.15 2.95-.05 1.3.8Q7.55-8.2 5-7.6l.3.75-.1.5" transform="translate(13.85 14.4)"/><path fill-rule="evenodd" fill="#b07d02" d="m9.4-5.25-.4.4-1.1-.55-1.8-.2-.9-.75.1-.5.05.2 3.1.4.7.7.25.3" transform="translate(13.85 14.4)"/><path stroke-width=".05" stroke-opacity=".302" stroke-linejoin="round" stroke-linecap="round" stroke="#170900" fill="none" d="m18.55 6.65.7-.15m4.6 1.4.05.4m-4.85-.25-.2-.1-.35-.6.05-.7m.7-.15 2.95-.05 1.3.8.35.65m.05.4-.4.75-.25.1-.4.4-1.1-.55-1.8-.2-.9-.75"/><path fill-rule="evenodd" fill="#170933" d="m6.25-7.05-.15-.3v-.3l.3-.2h.4l.25.3-.1.3-.3.2h-.4" transform="translate(13.85 14.4)"/><path fill-rule="evenodd" fill-opacity=".6" fill="#fff" d="m6.5-7.4-.1-.1.05-.1.1-.05.2-.05.05.1v.1l-.15.15-.15-.05" transform="translate(13.85 14.4)"/><path fill-rule="evenodd" fill="#170933" d="M7.65-7.7v-.15l.3-.05.35.1.25.25-.05.15-.25.05-.35-.15-.25-.2" transform="translate(13.85 14.4)"/><path fill-rule="evenodd" fill-opacity=".6" fill="#fff" d="M8-7.65v-.05h.1l.1.05.15.1-.05.05h-.05l-.2-.05-.05-.1" transform="translate(13.85 14.4)"/><path fill-rule="evenodd" fill="#170933" d="m7.4-6.15-.1-.35.15-.2.3-.1q.2 0 .3.2l.05.25-.1.3-.3.05-.3-.15" transform="translate(13.85 14.4)"/><path fill-rule="evenodd" fill-opacity=".6" fill="#fff" d="m7.65-6.45-.05-.1.05-.1.15-.05.1.1.05.1-.05.1-.1.05-.15-.1" transform="translate(13.85 14.4)"/><path fill-rule="evenodd" fill="#170933" d="m8.65-6.3.05-.1.25.05.2.3.15.25-.1.15-.2-.1-.25-.2-.1-.35" transform="translate(13.85 14.4)"/><path fill-rule="evenodd" fill-opacity=".6" fill="#fff" d="M8.85-6.05v-.05l.1.05.05.1.1.1H9l-.15-.05v-.15" transform="translate(13.85 14.4)"/><path fill-rule="evenodd" fill="#b07d02" d="M-4.15-3.2-6-3.85-9.75-8l-.15-2 3.2-2.4 6.85-1.15 6.65 1.8L9.45-7.5l.2 1.3-.25.8q-1 3.15-4.2 3.45-2.85.55-6.8-.15-2.35-.6-2.55-1.1" transform="translate(13.85 14.4)"/><path stroke-width=".05" stroke-opacity=".302" stroke-linejoin="round" stroke-linecap="round" stroke="#170900" fill="none" d="M12.25 12.3q3.95.7 6.8.15 3.2-.3 4.2-3.45l.25-.8m-.2-1.3-2.65-4.25L14 .85 7.15 2l-3.2 2.4.15 2 3.75 4.15 1.85.65"/></g><g id="w"><path fill-rule="evenodd" fill="url(#s)" d="m19.85 12.1.05.05h-.05v-.05" transform="translate(.5 .5)"/><path fill-rule="evenodd" fill="url(#t)" d="m11.4 48.15-.1-.05-.35-.15-.9-.6-.1-.05-.3-.6-.4-.8-6.3-12.75Q0 26.8 0 25.2q0-1.4 2.55-3.1l.8-.55q3-1.85 4.2-1.85 2.65 0 4.7 6.3l.2.35V26l-.7-11.5-.3-4.6-.2-3.4q0-2.3 3.65-4.5l1.1-.6q1.55 1.85 2.7 5.25 1.15 3.35 1.15 5.45v.05l-.65 6.05.3 4-.3 5.7 1.85 10.6.3 4.6q0 .8.45 2.05 0 .5-2.1.5l-1.8-.5h-.45q0 1.7-1.3 1.7l-1.65-.2q-.7 0-.75.25-.05.5-2.35 1.25m1.2-36.75-1.15-1.5 1.15 1.5M9.45 37.2l-.75-1.75.75 1.75m4-1 4.5 8.2-4.5-8.2-1.6-2.9 1.6 2.9v-1.7l-3.4-5.95 3.4 5.95v1.7m-1.15 7.65-2-4.7 2 4.7m7.55-31.7q-2.7 1.85-4.95.95 2.25.9 4.95-.95" transform="translate(.5 .5)"/><path fill-rule="evenodd" fill="#633f6c" d="M22.4 16.85 23 21l-.6-4.15M16 1.4q.95-.55 1.8-.85Q19.3 0 20.55 0l.6.1q2.85 1 4.3 11.4l.7 6.4.95 13.15q.4 6 .95 7.6.85 2.6.15 8.95l-.5.15-1.25.35-1.25.3-1.85.35-1.5.15-1.35.1-1.95.05h-.3l-5.65-.55-1.05-.3-.15-.05q2.3-.75 2.35-1.25.05-.25.75-.25l1.65.2q1.3 0 1.3-1.7h.45l1.8.5q2.1 0 2.1-.5-.45-1.25-.45-2.05l-.3-4.6-1.85-10.6.3-5.7-.3-4 .65-6.05h.05l-.05-.05q0-2.1-1.15-5.45-1.15-3.4-2.7-5.25m6.15 8.7-2.25 2.05 2.25-2.05m.35 28.7.6 4.8-.6-4.8m-1.05-8.05.5 3.75-.5-3.75-.2-1.85.2 1.85 2.3-1.35-.3-4.1.3 4.1-2.3 1.35m-.7-5.6.2 1.4-.2-1.4" transform="translate(.5 .5)"/><path stroke-width=".3" stroke-opacity=".2" stroke-linejoin="round" stroke-linecap="round" stroke="#170900" fill="none" d="m23.5 21.5-.6-4.15m-2.5-4.7 2.25-2.05m-10.7-.2 1.15 1.5m7.25.75h.05m-5 .95q2.25.9 4.95-.95m-8 21.15 1.6 2.9V35l-3.4-5.95m.25 10.6 2 4.7m5.65.55-4.5-8.2m-4.75-.75.75 1.75m11.5-10.65-.2-1.4m.5 3.75.2 1.85 2.3-1.35-.3-4.1m-1.5 9.2-.5-3.75M23.6 44.1l-.6-4.8"/><path stroke-opacity=".302" stroke-linejoin="round" stroke-linecap="round" stroke="#170900" fill="none" d="M16 1.4q.95-.55 1.8-.85Q19.3 0 20.55 0l.6.1q2.85 1 4.3 11.4l.7 6.4.95 13.15q.4 6 .95 7.6.85 2.6.15 8.95l-.5.15m-4.35 1-1.5.15-1.35.1m-8.95-.8-.15-.05-.1-.05-.35-.15-.9-.6-.1-.05-.3-.6-.4-.8-6.3-12.75Q0 26.8 0 25.2q0-1.4 2.55-3.1l.8-.55q3-1.85 4.2-1.85 2.65 0 4.7 6.3l.2.35V26l-.7-11.5-.3-4.6-.2-3.4q0-2.3 3.65-4.5l1.1-.6" transform="translate(.5 .5)"/><path fill-rule="evenodd" fill="#6e698a" d="M19.8 1.5q1.35 0 1.6.85.2.85-.85 2-1.05 1.1-2.8 1.9-1.75.75-3.15.7-1.4-.1-1.6-.95-.2-.85.85-1.95l1-.9q.8-.6 1.8-1 1.75-.8 3.1-.7l.05.05" transform="translate(.5 .5)"/><path stroke-width=".5" stroke-opacity=".302" stroke-linejoin="round" stroke-linecap="round" stroke="#170900" fill="none" d="M20.3 2q1.35 0 1.6.85.2.85-.85 2-1.05 1.1-2.8 1.9-1.75.75-3.15.7-1.4-.1-1.6-.95-.2-.85.85-1.95l1-.9"/><path fill-rule="evenodd" fill="#6e698a" d="M3.2 22.6q.6-.45 1.45-.75 1.4-.55 2.55-.4 1.15.1 1.4.8.2.7-.65 1.6-.8.85-2.2 1.4l-2.6.45q-1.1-.1-1.35-.8-.25-.75.6-1.6l.8-.7" transform="translate(.5 .5)"/><path stroke-width=".5" stroke-opacity=".302" stroke-linejoin="round" stroke-linecap="round" stroke="#170900" fill="none" d="M7.7 21.95q1.15.1 1.4.8.2.7-.65 1.6-.8.85-2.2 1.4l-2.6.45q-1.1-.1-1.35-.8-.25-.75.6-1.6l.8-.7"/></g><g id="x" fill-rule="evenodd"><path fill="#5f3841" d="m2.35 4.75-.1.1H2.2l.15-.1m1.2-4.6h.05-.05"/><path fill="#6e698a" d="M3.6.15q.45.3.35 1.25-.05 1-.7 2.15l-.9 1.2-.15.1-1.05.05Q.8 4.4.85 3.55q.05-.85.6-1.75.5-.9 1.2-1.4.5-.3.9-.25h.05"/><path fill="#585067" d="m2.25 4.85-.5.35q-.8.6-1.3.3Q-.1 5.2 0 4.2q.1-1 .75-2.1Q1.4.95 2.2.4 3-.2 3.55.15q-.4-.05-.9.25-.7.5-1.2 1.4-.55.9-.6 1.75-.05.85.3 1.35l1.05-.05h.05"/></g><g id="y"><path fill-rule="evenodd" fill="url(#u)" d="m6.8 17.95 3-6.25.05-.05.1-.25 3.7-7.65q.85-1.25 1.95-2.1Q17.75 0 20.8 0l.8.05q1.2 1.5 1.2 2.85l-.1 1.15q0 3.75-6.7 15.4l-1.35 2.25-1.5 2.45L11.6 24l1.55.15L5.3 36.9l-2.1-.45-1.6-.7-.4-.25-1.2-1 .4-1.05.7-1.85 2.6-7.15 2.95-6.2.15-.3m1.8 4.4q-1.4-1.45-1.95-4.1.55 2.65 1.95 4.1m1.15-5.5 1.95 1.65-1.95-1.65m1.25 7q-.75-.25-1.35-.65.6.4 1.35.65m3.55-4.3 1.45-.1-1.45.1" transform="translate(0 .5)"/><path fill-rule="evenodd" fill="#59385f" d="M21.6.05q1.2.15 2.1.75 1.1.7 1.1 1.5-4.5 12.3-6 14.95l-.7 1.5-.8 1.7-.1.25-.5 1-.15.35-6.3 12.9-.7 1.3-.05.15q-.95.65-2.05.65h-1.1L5.3 36.9l7.85-12.75 1.5-2.45L16 19.45q6.7-11.65 6.7-15.4l.1-1.15q0-1.35-1.2-2.85m-3.5 18.7-2.1.7 2.1-.7" transform="translate(0 .5)"/><path stroke-opacity=".302" stroke-linejoin="round" stroke-linecap="round" stroke="#170900" fill="none" d="m6.8 17.95 3-6.25.05-.05.1-.25 3.7-7.65q.85-1.25 1.95-2.1Q17.75 0 20.8 0l.8.05q1.2.15 2.1.75 1.1.7 1.1 1.5-4.5 12.3-6 14.95l-.7 1.5-.8 1.7-.1.25-.5 1-.15.35-6.3 12.9m-3.9 2.1L5.3 36.9l-2.1-.45M1.1 31.6l2.6-7.15 2.95-6.2" transform="translate(0 .5)"/><path stroke-width=".3" stroke-opacity=".2" stroke-linejoin="round" stroke-linecap="round" stroke="#170900" fill="none" d="m6.65 18.75.15-.3m9.2 1.5 2.1-.7m-11.45-.5q.55 2.65 1.95 4.1m3 1.65 1.55.15m2.85-4.7-1.45.1m-4.9 3.65q.6.4 1.35.65m.7-5.35-1.95-1.65"/><path fill-rule="evenodd" fill="#797a90" d="m17.55 1.75 1.45-.4 2.55-.2q1.15.05 1.4.4.2.4-.65.85l-2.2.75-2.6.25q-1.1-.1-1.35-.45t.6-.8l.8-.4" transform="translate(0 .5)"/><path stroke-width=".5" stroke-opacity=".302" stroke-linejoin="round" stroke-linecap="round" stroke="#170900" fill="none" d="M21.55 1.65q1.15.05 1.4.4.2.4-.65.85l-2.2.75-2.6.25q-1.1-.1-1.35-.45t.6-.8l.8-.4"/></g><g id="k" fill-rule="evenodd" fill-opacity=".6"><path fill="#ffffc1" d="M-1.55-25.15h-.05.05" transform="translate(1.75 26.85)"/><path fill="#eee0ff" d="m-1.6-25.15-.15-1.15 1.1.9.6 1.1q.95.9 1.8.9 1.15-.05 1.95-1.5.45-1.05.35-1.95l.25 2 .15.6q.1.65-.2 1.3-.6 1.1-1.7 1.15-1.2 0-1.95-1.2l-.95-1.2-1.2-.95h-.05m.4 2.5.8 1.15.8.7q.6.4 1.4.4 1.2-.05 3-1.65l.4 1.75q-1.5 1.95-2.95 2-.75 0-1.4-.6-.65-.55-1.3-1.65l-.75-2.1" transform="translate(1.75 26.85)"/><path fill="#eee0ff" d="M8.45-18.9h.45l.35-.05.2-.1q.55-.25.7-.75l-.15 1-.85.7-1.45.3h-.2q-.45 0-.9-.35-.65-.55-1.25-1.8l-.15-.35.25-.3q.6 1.65 2.8 1.7h.2" transform="translate(1.75 26.85)"/></g><g id="r"><path fill-rule="evenodd" fill-opacity=".6" fill="#eee0ff" d="m-4.5-21.8 1.1 2.65q.45 1.3-.85 2.5l-.65.55-.3.2q-.4.25-1.45 0l-.75-.2-.15-.05L-8.3-18q.3.4 1 .7l1.4-.1.1-.05.8-.7q.5-.7.6-1.7.1-.85-.15-1.9l.05-.05m-2.05 7.85-.3-.9q.3.35 1.05.3l1.25-.3.4-.3q.25-.15.45-.35 1.05-.95 1.1-2.3l.8 1.6q-.45 1.35-1.3 2.1l-.15.1-.15.1-1.25.05-.4-.05-1.5-.05" transform="translate(15.8 21.9)"/><path fill-rule="evenodd" fill-opacity=".4" fill="#d9f0eb" d="M-7.3-12q.65-.85.45-2.05l1.6 1.15.6.95q.35.85-.8 2l-.05.1-1.7 1.4-.1.05-2.25-2.1q.85-.3 1.5-.7.45-.35.75-.8" transform="translate(15.8 21.9)"/><path fill-rule="evenodd" fill="#dd9e03" d="m7.5-8.3-.7-.35q2.35-4.7 5.45-5.45l.7.2.25.3-.05 1.2-.25.5-.45-.05-1.15.25-3.65 3.5-.15-.1" transform="translate(15.8 21.9)"/><path fill-rule="evenodd" fill="#b07d02" d="m12.9-11.9-.25.85-1.5.95L9-8.1l-1.35.45-.15-.65.15.1 3.65-3.5 1.15-.25.45.05" transform="translate(15.8 21.9)"/><path stroke-width=".05" stroke-opacity=".302" stroke-linejoin="round" stroke-linecap="round" stroke="#170900" fill="none" d="m28.75 8 .25.3m-.3 1.7-.25.85-1.5.95-2.15 2-1.35.45m4.6-6.45.7.2m.25.3-.05 1.2-.25.5"/><path fill-rule="evenodd" fill="#170933" d="M8.55-9.75h-.4q-.1-.1-.05-.35l.25-.65.45-.4.3-.05.15.4-.25.55-.45.5" transform="translate(15.8 21.9)"/><path fill-rule="evenodd" fill-opacity=".6" fill="#fff" d="m8.55-10.4-.15.05v-.2l.1-.2.2-.2.05.05.1.1-.1.25q-.1.15-.2.15" transform="translate(15.8 21.9)"/><path fill-rule="evenodd" fill="#170933" d="M9.7-12.1v-.2l.25-.3.4-.35.45-.1.05.15-.3.35-.45.3-.4.15" transform="translate(15.8 21.9)"/><path fill-rule="evenodd" fill-opacity=".6" fill="#fff" d="m10.1-12.45-.1-.05.15-.15.15-.15h.2v.05l-.05.15-.25.1-.1.05" transform="translate(15.8 21.9)"/><path fill-rule="evenodd" fill="#170933" d="m10.2-10.3-.25-.2.05-.45.3-.45.4-.2.2.2v.45l-.3.45-.4.2" transform="translate(15.8 21.9)"/><path fill-rule="evenodd" fill-opacity=".6" fill="#fff" d="m10.3-10.8-.1-.1.05-.15.1-.2.2-.05v.05l.05.2-.1.15-.2.1" transform="translate(15.8 21.9)"/><path fill-rule="evenodd" fill="#170933" d="M11.5-12v-.2l.25-.2.4-.05.25.1.05.2-.3.2-.35.1-.3-.15" transform="translate(15.8 21.9)"/><path fill-rule="evenodd" fill-opacity=".6" fill="#fff" d="M11.9-12.05v-.05l.1-.1h.25v.1l-.1.05L12-12l-.1-.05" transform="translate(15.8 21.9)"/><path fill-rule="evenodd" fill="#dd9e03" d="m-4.1-6.25.7-.35q-2.35-4.7-5.45-5.45l-.7.2-.25.3.05 1.2.25.5.45-.05 1.15.25 3.65 3.5.15-.1" transform="translate(15.8 21.9)"/><path fill-rule="evenodd" fill="#b07d02" d="m-9.5-9.85.25.85 1.5.95 2.15 2 1.35.45.15-.65-.15.1-3.65-3.5-1.15-.25-.45.05" transform="translate(15.8 21.9)"/><path stroke-width=".05" stroke-opacity=".302" stroke-linejoin="round" stroke-linecap="round" stroke="#170900" fill="none" d="m6.25 10.05-.25.3m.3 1.7.25.85 1.5.95 2.15 2 1.35.45m-4.6-6.45-.7.2m-.25.3.05 1.2.25.5"/><path fill-rule="evenodd" fill="#170933" d="M-5.15-7.7h.4q.1-.1.05-.35l-.25-.65-.45-.4-.3-.05-.15.4.25.55.45.5" transform="translate(15.8 21.9)"/><path fill-rule="evenodd" fill-opacity=".6" fill="#fff" d="m-5.15-8.35.15.05v-.2l-.1-.2-.2-.2-.05.05-.1.1.1.25.2.15" transform="translate(15.8 21.9)"/><path fill-rule="evenodd" fill="#170933" d="M-6.3-10.05v-.2l-.25-.3-.4-.35-.45-.1-.05.15.3.35.45.3.4.15" transform="translate(15.8 21.9)"/><path fill-rule="evenodd" fill-opacity=".6" fill="#fff" d="m-6.7-10.4.1-.05-.15-.15-.15-.15h-.2v.05l.05.15.25.1.1.05" transform="translate(15.8 21.9)"/><path fill-rule="evenodd" fill="#170933" d="m-6.8-8.25.25-.2-.05-.45-.3-.45-.4-.2-.2.2v.45l.3.45.4.2" transform="translate(15.8 21.9)"/><path fill-rule="evenodd" fill-opacity=".6" fill="#fff" d="m-6.9-8.75.1-.1-.05-.15-.1-.2-.2-.05v.05l-.05.2.1.15.2.1" transform="translate(15.8 21.9)"/><path fill-rule="evenodd" fill="#170933" d="M-8.1-9.95v-.2l-.25-.2-.4-.05-.25.1-.05.2.3.2.35.1.3-.15" transform="translate(15.8 21.9)"/><path fill-rule="evenodd" fill-opacity=".6" fill="#fff" d="M-8.5-10v-.05l-.1-.1h-.25v.1l.1.05.15.05.1-.05" transform="translate(15.8 21.9)"/><path fill-rule="evenodd" fill="#ff9b3a" d="m10.65-12.75-.05-.1-.05.05.1.05" transform="translate(15.8 21.9)"/><path fill-rule="evenodd" fill="#b07d02" d="m17.65-12-2.15.3q-3.05.15-4.85-1.05l1.8 2.2 4.65.2.55-1.65" transform="translate(15.8 21.9)"/><path fill-rule="evenodd" fill="#dd9e03" d="M19.8-13q-.55.5-1.3.75l-.85.25-.55 1.65.5-.15.55-.25L19.8-13" transform="translate(15.8 21.9)"/><path fill-rule="evenodd" fill="#694701" d="m10.6-12.85.05.1q1.8 1.2 4.85 1.05l2.15-.3.85-.25q.75-.25 1.3-.75l-1.45-.75-1.4-.55q-1.75-.4-5.05.55-.15.4-.8.65l-.5.25" transform="translate(15.8 21.9)"/><path stroke-width=".05" stroke-opacity=".302" stroke-linejoin="round" stroke-linecap="round" stroke="#170900" fill="none" d="m26.45 9.15-.1-.05.05-.05.5-.25q.65-.25.8-.65"/><path stroke-width=".05" stroke-opacity=".302" stroke-linejoin="round" stroke-linecap="round" stroke="#170900" fill="none" d="m26.4 9.05.05.1 1.8 2.2 4.65.2.5-.15.55-.25L35.6 8.9q-.55.5-1.3.75l-.85.25-2.15.3q-3.05.15-4.85-1.05m1.25-1q3.3-.95 5.05-.55l1.4.55 1.45.75"/><path fill-rule="evenodd" fill="#dd9e03" d="M18.15-20.7q-1.9 1.55-3.25 3.55-.5 1.4-.4 2.85l.25 1q-4.4 1.3-6.5-.55v-.75q.1-1.35.55-2.65.5-1.3 1.65-2.15 1.15-.85 3.7-.95l4-.35" transform="translate(15.8 21.9)"/><path fill-rule="evenodd" fill="#ffe870" d="m18.15-20.7-4 .35q-2.55.1-3.7.95-1.15.85-1.65 2.15-.45 1.3-.55 2.65v.75q.1.9.7 1.8-.75-1.05-1.05-1.8v-.05l-.15-.6-.1-3q0-1.5.7-2.4l1.35-.95 1.3-.65 2.15-.35h.95q1.85.1 4.05 1.15" transform="translate(15.8 21.9)"/><path fill-rule="evenodd" fill="#b07d02" d="M8.25-13.85q2.1 1.85 6.5.55.25.85.65 1.7-2.1.8-2.35.85-1.05.15-2.7-.45-1.35-.75-1.4-.85-.6-.9-.7-1.8" transform="translate(15.8 21.9)"/><path stroke-width=".05" stroke-opacity=".302" stroke-linejoin="round" stroke-linecap="round" stroke="#170900" fill="none" d="m30.55 8.6-.25-1q-.1-1.45.4-2.85 1.35-2 3.25-3.55m-3.4 7.4q.25.85.65 1.7-2.1.8-2.35.85-1.05.15-2.7-.45-1.35-.75-1.4-.85Q24 8.8 23.7 8.05m0-.05-.15-.6-.1-3q0-1.5.7-2.4l1.35-.95L26.8.4l2.15-.35h.95q1.85.1 4.05 1.15"/><path fill-rule="evenodd" fill="#170933" d="m10.1-13 .45-.2.15-.4-.15-.4-.45-.2q-.25 0-.4.2l-.15.4q-.05.25.15.4.15.15.4.2m1.65.45-.25.1-.15.3.1.25q.1.1.25.1l.3-.1.1-.25-.05-.3-.3-.1m-3.5-4.3-.15-.45-.35-.2q-.25 0-.35.2l-.15.45.15.45q.1.15.35.15l.35-.15.15-.45m.55-1.65.15.55q.15.15.4.2.25-.05.4-.2l.25-.55-.2-.5-.4-.2q-.25 0-.4.2l-.2.5m4.9-3.4-.4.25-.25.5.2.55q.15.2.4.2t.4-.2l.2-.55-.15-.5-.4-.25m-1.9 3.4-.25.6q-.05.35.2.55.25.25.6.25t.6-.25l.25-.55-.2-.6-.6-.2q-.35-.05-.6.2" transform="translate(15.8 21.9)"/><path fill-rule="evenodd" fill="#ffc07d" d="m12.2-18.15-.25-.1-.3.1-.15.3.15.25q.1.1.25.1l.3-.1.1-.25-.1-.3M9.8-13.4l.2-.1.1-.15-.1-.2-.2-.1-.2.1-.05.2.05.15.2.1m-1.9-3.1.1-.2-.1-.2-.2-.1-.2.1-.1.2.1.2.2.05.2-.05m5.3 2.65.2-.1.1-.2-.1-.2-.2-.1-.2.1-.1.2.1.2q.05.1.2.1m-.1-7.25-.1.2.1.2q.05.1.2.1l.2-.1.1-.2-.1-.2-.2-.1-.2.1" transform="translate(15.8 21.9)"/><path fill-rule="evenodd" fill="#dd9e03" d="m-11.05 2-.75.15-.4-.15-.5-.85v-.4l.4-.2.95-.6 1.7-3.9.2.05.75-.05Q-9.2-.25-11.05 2" transform="translate(15.8 21.9)"/><path fill-rule="evenodd" fill="#ffe870" d="m-9.9-4.25.15-.25.75-.2.6.4-.1.95Q-8.85-1-9.75.65L-11.05 2Q-9.2-.25-8.7-3.95l-.75.05-.45-.35" transform="translate(15.8 21.9)"/><path fill-rule="evenodd" fill="#b07d02" d="m-12.7.75-.2-.75 1-1.2.95-2.2 1.05-.85.45.35-.2-.05-1.7 3.9-.95.6-.4.2" transform="translate(15.8 21.9)"/><path stroke-width=".05" stroke-opacity=".302" stroke-linejoin="round" stroke-linecap="round" stroke="#170900" fill="none" d="m7.4 17.6-.1.95M4 24.05l-.4-.15m2.3-6.25.15-.25.75-.2.6.4m-.1.95q-.35 2.35-1.25 4l-1.3 1.35-.75.15m-.4-.15-.5-.85v-.4l-.2-.75 1-1.2.95-2.2 1.05-.85"/><path fill-rule="evenodd" fill="#170933" d="m-9.75-2.5.35-.15.25.2.05.5-.15.5q-.15.2-.35.2l-.25-.25-.05-.5.15-.5" transform="translate(15.8 21.9)"/><path fill-rule="evenodd" fill-opacity=".6" fill="#fff" d="m-9.45-2.05.1-.1.1.1v.2l-.05.2-.15.05-.05-.05-.1-.25.15-.15" transform="translate(15.8 21.9)"/><path fill-rule="evenodd" fill="#170933" d="m-9.75-.4.15.05-.1.4-.25.4-.3.25-.1-.15.05-.3.3-.45.25-.2" transform="translate(15.8 21.9)"/><path fill-rule="evenodd" fill-opacity=".6" fill="#fff" d="m-9.9-.05.05.05-.05.15-.1.15-.15.15v-.2l.1-.2.15-.1" transform="translate(15.8 21.9)"/><path fill-rule="evenodd" fill="#170933" d="m-10.95-1.5.3.1.2.25-.15.5-.2.25h-.3l-.2-.35.05-.4.3-.35" transform="translate(15.8 21.9)"/><path fill-rule="evenodd" fill-opacity=".6" fill="#fff" d="m-10.8-1.1.1.05.05.1-.05.2-.1.1h-.05l-.1-.15-.05-.15.2-.15" transform="translate(15.8 21.9)"/><path fill-rule="evenodd" fill="#170933" d="M-11.4.25q.1 0 .1.15l-.15.25-.3.15-.35.05-.05-.15.1-.25.35-.2h.3" transform="translate(15.8 21.9)"/><path fill-rule="evenodd" fill-opacity=".6" fill="#fff" d="m-11.75.4.1.05-.1.1-.1.05-.15.05V.5l.2-.1h.05" transform="translate(15.8 21.9)"/><path fill-rule="evenodd" fill="#dd9e03" d="m16.2-.35.75.15.4-.15.5-.85v-.4l-.4-.2-.95-.6-1.7-3.9-.2.05-.75-.05q.5 3.7 2.35 5.95" transform="translate(15.8 21.9)"/><path fill-rule="evenodd" fill="#ffe870" d="m15.05-6.6-.15-.25-.75-.2-.6.4.1.95q.35 2.35 1.25 4l1.3 1.35Q14.35-2.6 13.85-6.3l.75.05.45-.35" transform="translate(15.8 21.9)"/><path fill-rule="evenodd" fill="#b07d02" d="m17.85-1.6.2-.75-1-1.2-.95-2.2-1.05-.85-.45.35.2-.05 1.7 3.9.95.6.4.2" transform="translate(15.8 21.9)"/><path stroke-width=".05" stroke-opacity=".302" stroke-linejoin="round" stroke-linecap="round" stroke="#170900" fill="none" d="m29.35 15.25.1.95m3.3 5.5.4-.15m-2.3-6.25-.15-.25-.75-.2-.6.4m.1.95q.35 2.35 1.25 4l1.3 1.35.75.15m.4-.15.5-.85v-.4l.2-.75-1-1.2-.95-2.2-1.05-.85"/><path fill-rule="evenodd" fill="#170933" d="M14.9-4.85 14.55-5l-.25.2-.05.5.15.5q.15.2.35.2l.25-.25.05-.5-.15-.5" transform="translate(15.8 21.9)"/><path fill-rule="evenodd" fill-opacity=".6" fill="#fff" d="m14.6-4.4-.1-.1-.1.1v.2l.05.2.15.05.05-.05.1-.25-.15-.15" transform="translate(15.8 21.9)"/><path fill-rule="evenodd" fill="#170933" d="m14.9-2.75-.15.05.1.4.25.4.3.25.1-.15-.05-.3-.3-.45-.25-.2" transform="translate(15.8 21.9)"/><path fill-rule="evenodd" fill-opacity=".6" fill="#fff" d="m15.05-2.4-.05.05.05.15.1.15.15.15v-.2l-.1-.2-.15-.1" transform="translate(15.8 21.9)"/><path fill-rule="evenodd" fill="#170933" d="m16.1-3.85-.3.1-.2.25.15.5.2.25h.3l.2-.35-.05-.4-.3-.35" transform="translate(15.8 21.9)"/><path fill-rule="evenodd" fill-opacity=".6" fill="#fff" d="m15.95-3.45-.1.05-.05.1.05.2.1.1H16l.1-.15.05-.15-.2-.15" transform="translate(15.8 21.9)"/><path fill-rule="evenodd" fill="#170933" d="m16.55-2.1-.1.15.15.25.3.15.35.05.05-.15-.1-.25-.35-.2h-.3" transform="translate(15.8 21.9)"/><path fill-rule="evenodd" fill-opacity=".6" fill="#fff" d="m16.9-1.95-.1.05.1.1.1.05.15.05v-.15l-.2-.1h-.05" transform="translate(15.8 21.9)"/><path fill-rule="evenodd" fill="#dd9e03" d="m-8.9-3.5-.65-.3-.25-.3-.1-.85.1-.25.4.1 1 .2 2.75-1.4.15.15.7.35q-1.75 2-4.1 2.3" transform="translate(15.8 21.9)"/><path fill-rule="evenodd" fill="#ffe870" d="m-5.7-6.65.25-.05.65.3.35.6-.45.5Q-6-4.05-7.35-3.55l-1.55.05q2.35-.3 4.1-2.3l-.7-.35-.2-.5" transform="translate(15.8 21.9)"/><path fill-rule="evenodd" fill="#b07d02" d="m-9.8-5.2.15-.55 1.25-.2 1.6-.8 1.1.1.2.5-.15-.15-2.75 1.4-1-.2-.4-.1" transform="translate(15.8 21.9)"/><path stroke-width=".05" stroke-opacity=".302" stroke-linejoin="round" stroke-linecap="round" stroke="#170900" fill="none" d="m11.35 16.1-.45.5m-4.65 1.5L6 17.8m4.1-2.55.25-.05.65.3.35.6m-.45.5q-1.1 1.25-2.45 1.75l-1.55.05-.65-.3M6 17.8l-.1-.85.1-.25.15-.55 1.25-.2 1.6-.8 1.1.1"/><path fill-rule="evenodd" fill="#170933" d="m-6.2-5.45.3.05.15.3-.15.35q-.1.15-.3.15l-.35-.1-.1-.25.1-.35.35-.15" transform="translate(15.8 21.9)"/><path fill-rule="evenodd" fill-opacity=".6" fill="#fff" d="M-6.2-5.05h.15l.05.1-.05.15-.1.05h-.15l-.05-.1.05-.15.1-.05" transform="translate(15.8 21.9)"/><path fill-rule="evenodd" fill="#170933" d="m-6.95-4.15.1.1-.2.2-.35.05h-.3l-.1-.15.2-.15.35-.1.3.05" transform="translate(15.8 21.9)"/><path fill-rule="evenodd" fill-opacity=".6" fill="#fff" d="m-7.25-4.1.05.05-.1.05-.15.1-.1-.05V-4l.05-.05.1-.05h.15" transform="translate(15.8 21.9)"/><path fill-rule="evenodd" fill="#170933" d="m-7.55-5.6.25.2v.3l-.25.2-.3.05-.2-.2-.05-.3.2-.25h.35" transform="translate(15.8 21.9)"/><path fill-rule="evenodd" fill-opacity=".6" fill="#fff" d="m-7.65-5.2.1.05.05.15-.1.05-.1.05-.15-.1v-.1l.1-.1h.1" transform="translate(15.8 21.9)"/><path fill-rule="evenodd" fill="#170933" d="M-8.55-4.75v.1l-.15.1-.35-.1-.25-.15-.05-.15.2-.05.35.05.25.2" transform="translate(15.8 21.9)"/><path fill-rule="evenodd" fill-opacity=".6" fill="#fff" d="m-8.9-4.8.05.05-.1.05-.1-.05-.15-.05.05-.05v-.05l.2.05.05.05" transform="translate(15.8 21.9)"/><path fill-rule="evenodd" fill="#dd9e03" d="m13.85-5.85.65-.3.25-.3.1-.85-.1-.25-.4.1-1 .2-2.75-1.4-.15.15-.7.35q1.75 2 4.1 2.3" transform="translate(15.8 21.9)"/><path fill-rule="evenodd" fill="#ffe870" d="m10.65-9-.25-.05-.65.3-.35.6.45.5q1.1 1.25 2.45 1.75l1.55.05q-2.35-.3-4.1-2.3l.7-.35.2-.5" transform="translate(15.8 21.9)"/><path fill-rule="evenodd" fill="#b07d02" d="m14.75-7.55-.15-.55-1.25-.2q-.75-.35-1.6-.8l-1.1.1-.2.5.15-.15 2.75 1.4 1-.2.4-.1" transform="translate(15.8 21.9)"/><path stroke-width=".05" stroke-opacity=".302" stroke-linejoin="round" stroke-linecap="round" stroke="#170900" fill="none" d="m25.2 13.75.45.5m4.65 1.5.25-.3m-4.1-2.55-.25-.05-.65.3-.35.6m.45.5q1.1 1.25 2.45 1.75l1.55.05.65-.3m.25-.3.1-.85-.1-.25-.15-.55-1.25-.2q-.75-.35-1.6-.8l-1.1.1"/><path fill-rule="evenodd" fill="#170933" d="m11.15-7.8-.3.05-.15.3.15.35q.1.15.3.15l.35-.1.1-.25-.1-.35-.35-.15" transform="translate(15.8 21.9)"/><path fill-rule="evenodd" fill-opacity=".6" fill="#fff" d="M11.15-7.4H11l-.05.1.05.15.1.05h.15l.05-.1-.05-.15-.1-.05" transform="translate(15.8 21.9)"/><path fill-rule="evenodd" fill="#170933" d="m11.9-6.5-.1.1.2.2.35.05h.3l.1-.15-.2-.15-.35-.1-.3.05" transform="translate(15.8 21.9)"/><path fill-rule="evenodd" fill-opacity=".6" fill="#fff" d="m12.2-6.45-.05.05.1.05.15.1.1-.05v-.05l-.05-.05-.1-.05h-.15" transform="translate(15.8 21.9)"/><path fill-rule="evenodd" fill="#170933" d="m12.5-7.95-.25.2v.3l.25.2.3.05.2-.2.05-.3-.2-.25h-.35" transform="translate(15.8 21.9)"/><path fill-rule="evenodd" fill-opacity=".6" fill="#fff" d="m12.6-7.55-.1.05-.05.15.1.05.1.05.15-.1v-.1l-.1-.1h-.1" transform="translate(15.8 21.9)"/><path fill-rule="evenodd" fill="#170933" d="M13.5-7.1v.1l.15.1L14-7l.25-.15.05-.15-.2-.05-.35.05-.25.2" transform="translate(15.8 21.9)"/><path fill-rule="evenodd" fill-opacity=".6" fill="#fff" d="m13.85-7.15-.05.05.1.05.1-.05.15-.05-.05-.05v-.05l-.2.05-.05.05" transform="translate(15.8 21.9)"/><path fill-rule="evenodd" fill="#dd9e03" d="m-4.8 3.3-.6.35-.4.1-.8-.5-.15-.3.3-.3.6-.8.1-3.55.2-.1.75-.3q.9 3 0 5.4" transform="translate(15.8 21.9)"/><path fill-rule="evenodd" fill="#ffe870" d="m-6.05-1.9.1-.2.55-.45.7.1.25.8q.55 1.9.35 3.5l-.7 1.45q.9-2.4 0-5.4l-.75.3-.5-.1" transform="translate(15.8 21.9)"/><path fill-rule="evenodd" fill="#b07d02" d="m-6.75 2.95-.45-.5.45-1.3v-2l.7-1.05.5.1-.2.1-.1 3.55-.6.8-.3.3" transform="translate(15.8 21.9)"/><path stroke-width=".05" stroke-opacity=".302" stroke-linejoin="round" stroke-linecap="round" stroke="#170900" fill="none" d="m11.1 19.45.25.8m-.95 5.3-.4.1M9.75 20l.1-.2.55-.45.7.1m.25.8q.55 1.9.35 3.5L11 25.2l-.6.35m-.4.1-.8-.5-.15-.3-.45-.5.45-1.3v-2l.7-1.05"/><path fill-rule="evenodd" fill="#170933" d="m-5.3-.55.25-.3.35.1.25.4V0l-.25.3-.35-.1-.2-.35-.05-.4" transform="translate(15.8 21.9)"/><path fill-rule="evenodd" fill-opacity=".6" fill="#fff" d="m-4.85-.3.1-.1h.1l.05.15.05.15-.05.1h-.15l-.15-.15.05-.15" transform="translate(15.8 21.9)"/><path fill-rule="evenodd" fill="#170933" d="M-4.45 1h.15l.1.3-.05.4-.2.25h-.2l-.05-.3.1-.35.15-.3" transform="translate(15.8 21.9)"/><path fill-rule="evenodd" fill-opacity=".6" fill="#fff" d="M-4.45 1.4h.1v.1l-.05.15-.05.1h-.05l-.05-.1V1.5l.1-.1" transform="translate(15.8 21.9)"/><path fill-rule="evenodd" fill="#170933" d="m-6 .65.3-.1.25.2.15.35-.2.35-.25.1-.3-.2-.1-.35.15-.35" transform="translate(15.8 21.9)"/><path fill-rule="evenodd" fill-opacity=".6" fill="#fff" d="m-5.7.9.1-.05.1.05.05.2-.1.1h-.2l-.05-.15.1-.15" transform="translate(15.8 21.9)"/><path fill-rule="evenodd" fill="#170933" d="M-5.8 2.05q.1-.05.15.05l-.05.3-.2.25-.3.15-.15-.1.05-.25.2-.25.3-.15" transform="translate(15.8 21.9)"/><path fill-rule="evenodd" fill-opacity=".6" fill="#fff" d="M-6 2.3h.1l-.05.15-.1.05-.1.1v-.05l-.05-.1.1-.15h.1" transform="translate(15.8 21.9)"/><path fill-rule="evenodd" fill="#dd9e03" d="M9.75.85q.25.25.6.35l.4.1.8-.5.15-.3-.3-.3-.6-.8-.1-3.55-.2-.1-.75-.3q-.9 3 0 5.4" transform="translate(15.8 21.9)"/><path fill-rule="evenodd" fill="#ffe870" d="m11-4.35-.1-.2-.55-.45-.7.1-.25.8q-.55 1.9-.35 3.5l.7 1.45q-.9-2.4 0-5.4l.75.3.5-.1" transform="translate(15.8 21.9)"/><path fill-rule="evenodd" fill="#b07d02" d="m11.7.5.45-.5-.45-1.3v-2L11-4.35l-.5.1.2.1.1 3.55.6.8.3.3" transform="translate(15.8 21.9)"/><path stroke-width=".05" stroke-opacity=".302" stroke-linejoin="round" stroke-linecap="round" stroke="#170900" fill="none" d="m25.45 17-.25.8m.95 5.3.4.1m.25-5.65-.1-.2-.55-.45-.7.1m-.25.8q-.55 1.9-.35 3.5l.7 1.45q.25.25.6.35m.4.1.8-.5.15-.3.45-.5-.45-1.3v-2l-.7-1.05"/><path fill-rule="evenodd" fill="#170933" d="M10.25-3 10-3.3l-.35.1-.25.4v.35l.25.3.35-.1.2-.35.05-.4" transform="translate(15.8 21.9)"/><path fill-rule="evenodd" fill-opacity=".6" fill="#fff" d="m9.8-2.75-.1-.1h-.1l-.05.15-.05.15.05.1h.15l.15-.15-.05-.15" transform="translate(15.8 21.9)"/><path fill-rule="evenodd" fill="#170933" d="M9.4-1.45h-.15l-.1.3.05.4.2.25h.2l.05-.3-.1-.35-.15-.3" transform="translate(15.8 21.9)"/><path fill-rule="evenodd" fill-opacity=".6" fill="#fff" d="M9.4-1.05h-.1v.1l.05.15.05.1h.05l.05-.1v-.15l-.1-.1" transform="translate(15.8 21.9)"/><path fill-rule="evenodd" fill="#170933" d="m10.95-1.8-.3-.1-.25.2-.15.35.2.35q.1.1.25.1l.3-.2.1-.35-.15-.35" transform="translate(15.8 21.9)"/><path fill-rule="evenodd" fill-opacity=".6" fill="#fff" d="m10.65-1.55-.1-.05-.1.05-.05.2.1.1h.2l.05-.15-.1-.15" transform="translate(15.8 21.9)"/><path fill-rule="evenodd" fill="#170933" d="m10.75-.4-.15.05.05.3.2.25.3.15.15-.1-.05-.25-.2-.25-.3-.15" transform="translate(15.8 21.9)"/><path fill-rule="evenodd" fill-opacity=".6" fill="#fff" d="M10.95-.15h-.1l.05.15.1.05.1.1V.1l.05-.1-.1-.15h-.1" transform="translate(15.8 21.9)"/><path fill-rule="evenodd" fill="#dd9e03" d="m-4.3-1.55-.7.15-.4-.05-.6-.6-.1-.3.4-.15.85-.5 1.15-2.9h.2l.75-.1q0 2.7-1.55 4.45" transform="translate(15.8 21.9)"/><path fill-rule="evenodd" fill="#ffe870" d="m-4-6.15.15-.15.7-.2.65.25v.7q0 1.7-.7 2.95-.5.75-1.1 1.05Q-2.75-3.3-2.75-6l-.75.1-.5-.25" transform="translate(15.8 21.9)"/><path fill-rule="evenodd" fill="#b07d02" d="m-6.1-2.35-.25-.5.8-.95.65-1.65.9-.7.5.25h-.2L-4.85-3l-.85.5-.4.15" transform="translate(15.8 21.9)"/><path stroke-width=".05" stroke-opacity=".302" stroke-linejoin="round" stroke-linecap="round" stroke="#170900" fill="none" d="M13.3 15.65v.7m-2.5 4.15-.4-.05m1.4-4.7.15-.15.7-.2.65.25m0 .7q0 1.7-.7 2.95-.5.75-1.1 1.05l-.7.15m-.4-.05-.6-.6-.1-.3-.25-.5.8-.95.65-1.65.9-.7"/><path fill-rule="evenodd" fill="#170933" d="M-3.55-4.85-3.3-5l.3.15.1.35-.1.35q-.1.15-.3.15l-.25-.15-.15-.35.15-.35" transform="translate(15.8 21.9)"/><path fill-rule="evenodd" fill-opacity=".6" fill="#fff" d="m-3.3-4.55.15-.1.1.1.05.1-.05.15-.1.05-.15-.05-.05-.15.05-.1" transform="translate(15.8 21.9)"/><path fill-rule="evenodd" fill="#170933" d="m-3.3-3.35.15.05v.25l-.25.3-.2.2-.2-.05.05-.25.2-.3.25-.2" transform="translate(15.8 21.9)"/><path fill-rule="evenodd" fill-opacity=".6" fill="#fff" d="M-3.4-3.05h.05v.1l-.1.1-.1.1v-.05l-.05-.05.1-.15.1-.05" transform="translate(15.8 21.9)"/><path fill-rule="evenodd" fill="#170933" d="M-4.7-4.05h.35l.2.2v.35l-.2.2-.3.05-.25-.25v-.3l.2-.25" transform="translate(15.8 21.9)"/><path fill-rule="evenodd" fill-opacity=".6" fill="#fff" d="M-4.5-3.75h.15l.05.1v.1l-.05.1h-.15l-.05-.1-.05-.1.1-.1" transform="translate(15.8 21.9)"/><path fill-rule="evenodd" fill="#170933" d="m-4.9-2.8.1.05-.05.2q-.1.1-.3.15l-.3.05-.15-.1.1-.15.3-.2h.3" transform="translate(15.8 21.9)"/><path fill-rule="evenodd" fill-opacity=".6" fill="#fff" d="M-5.15-2.6h.05l-.05.1-.1.05h-.15v-.1l.15-.05h.1" transform="translate(15.8 21.9)"/><path fill-rule="evenodd" fill="#dd9e03" d="m9.25-3.9.7.15.4-.05.6-.6.1-.3-.4-.15-.85-.5-1.15-2.9h-.2l-.75-.1q0 2.7 1.55 4.45" transform="translate(15.8 21.9)"/><path fill-rule="evenodd" fill="#ffe870" d="m8.95-8.5-.15-.15-.7-.2-.65.25v.7q0 1.7.7 2.95.5.75 1.1 1.05Q7.7-5.65 7.7-8.35l.75.1.5-.25" transform="translate(15.8 21.9)"/><path fill-rule="evenodd" fill="#b07d02" d="m11.05-4.7.25-.5-.8-.95-.65-1.65-.9-.7-.5.25h.2l1.15 2.9.85.5.4.15" transform="translate(15.8 21.9)"/><path stroke-width=".05" stroke-opacity=".302" stroke-linejoin="round" stroke-linecap="round" stroke="#170900" fill="none" d="M23.25 13.3v.7m2.5 4.15.4-.05m-1.4-4.7-.15-.15-.7-.2-.65.25m0 .7q0 1.7.7 2.95.5.75 1.1 1.05l.7.15m.4-.05.6-.6.1-.3.25-.5-.8-.95-.65-1.65-.9-.7"/><path fill-rule="evenodd" fill="#170933" d="m8.5-7.2-.25-.15-.3.15-.1.35.1.35q.1.15.3.15l.25-.15.15-.35-.15-.35" transform="translate(15.8 21.9)"/><path fill-rule="evenodd" fill-opacity=".6" fill="#fff" d="M8.25-6.9 8.1-7l-.1.1-.05.1.05.15.1.05.15-.05.05-.15-.05-.1" transform="translate(15.8 21.9)"/><path fill-rule="evenodd" fill="#170933" d="m8.25-5.7-.15.05v.25l.25.3.2.2.2-.05-.05-.25-.2-.3-.25-.2" transform="translate(15.8 21.9)"/><path fill-rule="evenodd" fill-opacity=".6" fill="#fff" d="M8.35-5.4H8.3v.1l.1.1.1.1v-.05l.05-.05-.1-.15-.1-.05" transform="translate(15.8 21.9)"/><path fill-rule="evenodd" fill="#170933" d="M9.65-6.4H9.3l-.2.2v.35l.2.2.3.05.25-.25v-.3l-.2-.25" transform="translate(15.8 21.9)"/><path fill-rule="evenodd" fill-opacity=".6" fill="#fff" d="M9.45-6.1H9.3l-.05.1v.1l.05.1h.15l.05-.1.05-.1-.1-.1" transform="translate(15.8 21.9)"/><path fill-rule="evenodd" fill="#170933" d="m9.85-5.15-.1.05q-.05.1.05.2l.3.15.3.05.15-.1-.1-.15-.3-.2h-.3" transform="translate(15.8 21.9)"/><path fill-rule="evenodd" fill-opacity=".6" fill="#fff" d="M10.1-4.95h-.05l.05.1.1.05h.15v-.1l-.15-.05h-.1" transform="translate(15.8 21.9)"/><path fill-rule="evenodd" fill="#694701" d="m8.6-10.2.15.2q.8 1.1.6 2.55-.2 1.6-1.5 2.55-1.3.95-2.8.8-1.6-.15-2.55-1.35l-.4-.7-.45.7q-.9 1.2-2.4 1.35-1.5.15-2.7-.8-1.25-.95-1.45-2.55-.2-1.45.55-2.55l.2-.2q.9-1.25 2.4-1.4 1.45-.15 2.7.8L2.1-9.35q.35-.85 1.15-1.45 1.3-.95 2.85-.8 1.55.15 2.5 1.4" transform="translate(15.8 21.9)"/><path fill-rule="evenodd" fill="#fffdff" d="m-4.5-11.1.15-.2q.95-1.25 2.45-1.4 1.45-.15 2.7.8 1.2.95 1.4 2.55l.05.75-.05.25-.1-.05-.45.5V-8l-.2-.6-.5-.25q-.3 0-.55.25L.2-8l.2.55.25.2L-.3-7q-1.5.15-2.75-.8-1.2-1-1.4-2.55l-.05-.75" transform="translate(15.8 21.9)"/><path fill-rule="evenodd" fill="#ecdbdb" d="M2.2-8.35q-.05.95-.7 1.8Q.55-5.35-.9-5.2q-1.5.15-2.7-.8-1.25-.95-1.45-2.55-.2-1.4.55-2.55l.05.75q.2 1.55 1.4 2.55 1.25.95 2.75.8l.95-.25.3.05q.3 0 .5-.25l.2-.45.45-.5.1.05" transform="translate(15.8 21.9)"/><path fill-rule="evenodd" fill="#170900" d="m.65-7.25-.25-.2L.2-8l.2-.6q.25-.25.55-.25l.5.25.2.6v.1l-.2.45q-.2.25-.5.25l-.3-.05" transform="translate(15.8 21.9)"/><path stroke-width=".05" stroke-opacity=".302" stroke-linejoin="round" stroke-linecap="round" stroke="#170900" fill="none" d="m11.3 10.8.15-.2q.95-1.25 2.45-1.4 1.45-.15 2.7.8 1.2.95 1.4 2.55l.05.75-.05.25q-.05.95-.7 1.8-.95 1.2-2.4 1.35-1.5.15-2.7-.8-1.25-.95-1.45-2.55-.2-1.4.55-2.55"/><path stroke-width=".05" stroke-opacity=".302" stroke-linejoin="round" stroke-linecap="round" stroke="#170900" fill="none" d="m16.45 14.65-.25-.2-.2-.55.2-.6q.25-.25.55-.25l.5.25.2.6v.1l-.2.45q-.2.25-.5.25l-.3-.05"/><path fill-rule="evenodd" fill="#fffdff" d="M8.6-11.1v.75Q8.35-8.8 7.1-7.8q-1.3.95-2.85.8l-1-.25.25-.2.2-.55-.2-.6-.55-.25-.5.25q-.25.25-.25.6v.1l-.45-.5-.15.05v-1q.2-1.6 1.5-2.55 1.3-.95 2.85-.8 1.55.15 2.5 1.4l.15.2" transform="translate(15.8 21.9)"/><path fill-rule="evenodd" fill="#ecdbdb" d="M8.6-11.1q.8 1.1.6 2.55Q9-6.95 7.7-6q-1.3.95-2.8.8-1.6-.15-2.55-1.35-.65-.85-.75-1.8l.15-.05.45.5.25.45q.2.3.5.3l.3-.1 1 .25q1.55.15 2.85-.8 1.25-1 1.5-2.55v-.75" transform="translate(15.8 21.9)"/><path fill-rule="evenodd" fill="#170900" d="m3.25-7.25-.3.1q-.3 0-.5-.3L2.2-7.9V-8q0-.35.25-.6l.5-.25.55.25.2.6-.2.55-.25.2" transform="translate(15.8 21.9)"/><path stroke-width=".05" stroke-opacity=".302" stroke-linejoin="round" stroke-linecap="round" stroke="#170900" fill="none" d="M17.4 13.55q.1.95.75 1.8.95 1.2 2.55 1.35 1.5.15 2.8-.8 1.3-.95 1.5-2.55.2-1.45-.6-2.55m-7 2.75v-1q.2-1.6 1.5-2.55 1.3-.95 2.85-.8 1.55.15 2.5 1.4l.15.2"/><path stroke-width=".05" stroke-opacity=".302" stroke-linejoin="round" stroke-linecap="round" stroke="#170900" fill="none" d="m19.05 14.65-.3.1q-.3 0-.5-.3L18 14v-.1q0-.35.25-.6l.5-.25.55.25.2.6-.2.55-.25.2"/><path fill-rule="evenodd" fill="#ff9b3a" d="M-8.7-11.15v-.1h.05l-.05.1" transform="translate(15.8 21.9)"/><path fill-rule="evenodd" fill="#b07d02" d="m-12.65-8.5 1.45-.45q1.85-.8 2.5-2.2l-.25 2.1q-1.35 1.45-2.75 1.6l-.95-1.05" transform="translate(15.8 21.9)"/><path fill-rule="evenodd" fill="#dd9e03" d="m-14.35-8.55 1.05.15.65-.1.95 1.05h-.35l-.45.05-1.85-1.15" transform="translate(15.8 21.9)"/><path fill-rule="evenodd" fill="#694701" d="M-8.7-11.25v.1q-.65 1.4-2.5 2.2l-1.45.45-.65.1-1.05-.15.65-1 .65-.85q.9-.85 3.2-1.1l.8.2.35.05" transform="translate(15.8 21.9)"/><path stroke-width=".05" stroke-opacity=".302" stroke-linejoin="round" stroke-linecap="round" stroke="#170900" fill="none" d="m7.1 10.75.05-.1H7.1l-.35-.05-.8-.2"/><path stroke-width=".05" stroke-opacity=".302" stroke-linejoin="round" stroke-linecap="round" stroke="#170900" fill="none" d="M7.1 10.65v.1l-.25 2.1Q5.5 14.3 4.1 14.45h-.35l-.45.05-1.85-1.15 1.05.15.65-.1 1.45-.45q1.85-.8 2.5-2.2m-1.15-.35q-2.3.25-3.2 1.1l-.65.85-.65 1"/><path fill-rule="evenodd" fill="#b07d02" d="m-9.35-14.35.85 1q.65 1.2.7 2.05l-.25 1.85-1.3-.4q.25-3.4-1.35-4.85l1.35.35" transform="translate(15.8 21.9)"/><path fill-rule="evenodd" fill="#ffe870" d="M-14.1-6.65q-1.1-1.55-1.45-2.95l-.15-.7-.05-1.7.25-1.05.45-1.1q.55-.6 1.65-.7l2.1-.2.45.05h.05q.6.15 1.45.65l-1.35-.35-.6.05-1.75.65q-.9.45-1.3 1.4-.45.95-.15 2.9l.4 3.05" transform="translate(15.8 21.9)"/><path fill-rule="evenodd" fill="#dd9e03" d="m-9.35-9.85-.75-.1-1.95.55q-1.25 1.2-2.05 2.75l-.4-3.05q-.3-1.95.15-2.9.4-.95 1.3-1.4l1.75-.65.6-.05q1.6 1.45 1.35 4.85" transform="translate(15.8 21.9)"/><path stroke-width=".05" stroke-opacity=".302" stroke-linejoin="round" stroke-linecap="round" stroke="#170900" fill="none" d="m6.45 7.55.85 1q.65 1.2.7 2.05l-.25 1.85-1.3-.4-.75-.1-1.95.55Q2.5 13.7 1.7 15.25.6 13.7.25 12.3l-.15-.7-.05-1.7.25-1.05.45-1.1q.55-.6 1.65-.7l2.1-.2.45.05m.05 0q.6.15 1.45.65L5 6.9z"/><path fill-rule="evenodd" fill="#170933" d="M-9.9-13.35v.3l-.3.2-.3-.1-.2-.3.05-.35.3-.15.3.05.15.35m.65 1.2.05-.25.15-.1.2.05.15.2-.1.2-.1.15-.25-.1-.1-.15m-3.65-2.35-.35-.05-.15-.25.05-.3.3-.15.35.05.2.3-.1.25-.3.15m-.65.65.2.3-.1.3q-.1.2-.35.2l-.4-.1-.2-.25.1-.35.3-.2.45.1m-2.1 3.95.1-.4.35-.15.4.05.2.35-.1.3-.3.2-.45-.1-.2-.25m2.1-1.75.45-.2.4.1.3.4-.1.5q-.1.2-.35.25-.25.05-.5-.15l-.25-.4.05-.5" transform="translate(15.8 21.9)"/><path fill-rule="evenodd" fill="#ffc07d" d="m-13.2-11.4-.1-.15v-.25l.2-.1.2.05.15.2-.05.2-.2.15-.2-.1m3-2.2v.15l-.15.1-.1-.05-.15-.15.1-.15.1-.05h.15l.05.15m-2.5-1.2-.1.1-.2-.05-.05-.15v-.15l.15-.05h.15l.1.15-.05.15M-10-11v.2l-.15.1-.1-.05-.15-.2.05-.15.1-.05h.15l.1.15m-5.15.55.1-.05h.15l.15.15-.05.2-.15.1-.1-.05-.15-.2.05-.15" transform="translate(15.8 21.9)"/></g><use xlink:href="#v" width="41.25" transform="translate(.013 -.002) scale(4.509)" height="37.25" id="a"/><use xlink:href="#w" width="29.5" height="50" id="d"/><use xlink:href="#x" width="3.95" height="5.6" id="e"/><use xlink:href="#y" width="25.3" height="38.05" id="g"/><use xlink:href="#z" width="102.95" height="45" id="C"/><linearGradient y2="-151.58" y1="631.587" x2="51.934" x1="160.07" spreadMethod="pad" id="s"><stop stop-color="#875162" offset="0"/><stop stop-color="#b98996" offset="1"/></linearGradient><linearGradient y2=".957" y1=".091" x2=".539" x1=".419" spreadMethod="pad" id="t"><stop stop-color="#6e7498" offset="0"/><stop stop-color="#44294b" offset="1"/></linearGradient><linearGradient y2=".945" y1=".03" x2=".171" x1=".882" spreadMethod="pad" id="u"><stop stop-color="#636684" offset="0"/><stop stop-color="#3e2441" offset="1"/></linearGradient></defs><path fill="none" d="M-1-1h223v221H-1z"/><use x="107" y="199" xlink:href="#A" width="381" transform="translate(-192.55 -294)" height="381"/><use x="184.706" y="343.518" xlink:href="#B" width="427.35" transform="translate(-133.335 -207.746) scale(.5793)" height="386.75"/><use xlink:href="#C" width="102.95" transform="matrix(1.8072 0 0 1.6538 8.65 93.25)" height="45"/></svg>