<svg width="175" height="270" xmlns="http://www.w3.org/2000/svg" xmlns:xlink="http://www.w3.org/1999/xlink"><defs><g id="J" stroke-opacity="0" stroke-linejoin="round" stroke-linecap="round" stroke="#f0f" fill="none"><path d="M187.95-293.5v380h-380v-380h380M92.95.6H-97" transform="translate(192.55 294)"/><path d="m187.95-293.5-190 190 190 190m-380-380 190 190L-192 86.5" transform="translate(192.55 294)"/></g><g transform="translate(1.8 .2)" id="K"><use xlink:href="#a" width="46.1" transform="matrix(1.1638 -.0563 .0168 1.1571 17.525 95.93)" height="44.15"/><use xlink:href="#b" width="57.7" transform="matrix(.5065 -.2003 .5367 1.424 10.094 60.508)" height="40.6"/><use xlink:href="#b" width="57.7" transform="matrix(-.4031 -.2368 -.6098 .8988 61.364 41.566)" height="40.6"/><use xlink:href="#c" width="10.8" transform="matrix(1.0924 -.4664 2.9357 1.0872 57.642 139.185)" height="4.9"/><use xlink:href="#d" width="23.65" transform="matrix(1.6 0 0 -1.4167 47.27 95.725)" height="13.05"/><use xlink:href="#d" width="23.65" transform="matrix(-1.0043 .5799 -.7486 -1.2967 31.72 93.916)" height="13.05"/><use xlink:href="#e" width="6.2" transform="matrix(2.2846 0 .6598 2.1972 56.509 128.367)" height="6.25"/><use xlink:href="#f" width="15.2" transform="matrix(-1.0523 -.7541 -.5965 .9966 62.103 43.793)" height="15.2"/><use xlink:href="#g" width="127.5" transform="matrix(-.2717 -.0159 .0413 .3747 72.065 7.72)" height="75.65"/><use xlink:href="#g" width="127.5" transform="matrix(-.2717 -.0159 .0413 .3747 89.665 12.27)" height="75.65"/><use xlink:href="#h" width="149.25" transform="matrix(-.2676 -.0876 -.0683 .3556 54.381 12.87)" height="73.15"/><use xlink:href="#i" width="112" transform="matrix(-.2717 -.0159 .0268 .3739 85.132 24.269)" height="117.35"/><use xlink:href="#j" width="95" transform="matrix(-.2676 -.0876 -.0683 .3556 56.321 23.148)" height="137.8"/><use xlink:href="#j" width="95" transform="matrix(.3661 .2289 -.1267 .2501 47.687 21.998)" height="137.8"/><use xlink:href="#k" width="47.35" transform="matrix(-.0399 -.2786 -.2684 .0049 72.118 67.296)" height="36.25"/><use xlink:href="#k" width="47.35" transform="matrix(-.1785 -.2325 -.205 .1544 89.076 51.847)" height="36.25"/><use xlink:href="#k" width="47.35" transform="matrix(.0447 .2772 .338 -.0127 22.705 38.914)" height="36.25"/><use xlink:href="#k" width="47.35" transform="matrix(-.1675 .2008 .1892 .1725 22.802 9.438)" height="36.25"/><use xlink:href="#k" width="47.35" transform="matrix(-.21 -.2023 -.0879 .098 87.831 23.88)" height="36.25"/></g><g id="y"><path fill-rule="evenodd" fill="#8e7a46" d="m7.35-31.05 1.65 2-3.35 7.7L.6-21.6l-12.2-.55-6.7-5.45 1.2-3.05q8.45-2.65 14.65-2.2 6.2.5 9.8 1.8" transform="translate(23.95 32.9)"/><path fill-rule="evenodd" fill="#7c673e" d="m10.1-21.65 1.8.8-2.5 4.3-2.4 4.4-5.6 3.2-2.95 1.7-8.4 4.85-9 2.65q1.8-.75 3.7-1.65L-18.8-.2l2-4.8 2.75.15q6.4-1.6 11.8-5 6.95-4.5 12.35-11.8" transform="translate(23.95 32.9)"/><path fill-rule="evenodd" fill="#59482d" d="M11.9-20.85 16-5.5Q28.9 6.35 12.35 7.3q-.1 2.45-15.8 2.35l-1.1-8.1 1.05-.1h.15v-2.8l1.8-5.9 2.95-1.7 5.6-3.2 2.4-4.4 2.5-4.3" transform="translate(23.95 32.9)"/><path fill-rule="evenodd" fill="#726039" d="m9-29.05 1.4 5.8-.3 1.6q-5.4 7.3-12.35 11.8l-9 .9-.35-13.2 12.2.55 5.05.25L9-29.05" transform="translate(23.95 32.9)"/><path fill-rule="evenodd" fill="#473724" d="m-16.8-5-1.9-10.15-.1-3.55.5-8.9 6.7 5.45.35 13.2 9-.9q-5.4 3.4-11.8 5L-16.8-5" transform="translate(23.95 32.9)"/><path fill-rule="evenodd" fill="#35291b" d="M-3.45 9.65q-11.4 3.6-5.85-4.75-21.95 4.4-9.8-4.8l.3-.3-.15.45 9-2.65 8.4-4.85-1.8 5.9v2.8h-.15l-1.05.1 1.1 8.1" transform="translate(23.95 32.9)"/><path stroke-width=".05" stroke-opacity=".231" stroke-linejoin="round" stroke-linecap="round" stroke="#000" fill="none" d="M6.85 2.25Q15.3-.4 21.5.05q6.2.5 9.8 1.8M7.15 27.9l2.75.15q6.4-1.6 11.8-5 6.95-4.5 12.35-11.8"/><path stroke-opacity=".29" stroke-linejoin="round" stroke-linecap="round" stroke="#000" fill="none" d="m7.35-31.05 1.65 2 1.4 5.8-.3 1.6 1.8.8L16-5.5Q28.9 6.35 12.35 7.3q-.1 2.45-15.8 2.35-11.4 3.6-5.85-4.75-21.95 4.4-9.8-4.8l.3-.3 2-4.8-1.9-10.15-.1-3.55.5-8.9 1.2-3.05M-18.8-.2l3.55-1.2q-1.9.9-3.7 1.65l.15-.45" transform="translate(23.95 32.9)"/><path stroke-width=".5" stroke-linejoin="round" stroke-linecap="round" stroke="#977948" fill="none" d="m25.35 23.95 5.6-3.2 2.4-4.4"/><path stroke-width=".5" stroke-linejoin="round" stroke-linecap="round" stroke="#b09357" fill="none" d="m24.55 11.3 5.05.25 3.35-7.7"/></g><g id="z"><path fill-rule="evenodd" fill="#726039" d="m-14.9-26.75 5.45.45L6.7-25.05h10.45l.05 4.4.15 7.9-3.6 1.55Q-2.9-12.55-15.9-16.6l-2.9-3.1-.05-4.55 3.95-2.5m23.1 6.3 9-.2-9 .2" transform="translate(38.2 34.3)"/><path fill-rule="evenodd" fill="#8e7a46" d="M-21.05-33.8 4.5-31.55q10.25 1.2 9.25 3.05l3.4 3.45H6.7L-9.45-26.3l-5.45-.45-9.75-5.75 3.6-1.3" transform="translate(38.2 34.3)"/><path fill-rule="evenodd" fill="#7c673e" d="m13.75-11.2 2.6.65-5.3.3-5.3.25-7.05-1.2-21.8-3.65-9-5.95 2.8-1.15q6.15 3.05 13.4 5.35 13 4.05 29.65 5.4" transform="translate(38.2 34.3)"/><path fill-rule="evenodd" fill="#645133" d="M16.1-7.9Q-.8-4.25-16.85-6.45l-6.2-3.75-.05-4.65 21.8 3.65L5.75-10l5.3-.25 5.3-.3-.25 2.65" transform="translate(38.2 34.3)"/><path fill-rule="evenodd" fill="#59482d" d="m16.1-7.9 1.45.5L19-4.05l-2.65 2Q12.25.9-1.15 1.15l-23.05-3.1-.05-3L-36.7-8.7l4.5-1.3q7.6 2.45 15.35 3.55Q-.8-4.25 16.1-7.9" transform="translate(38.2 34.3)"/><path fill-rule="evenodd" fill="#5f4e2f" d="m-24.65-32.5 9.75 5.75-3.95 2.5.05 4.55 2.9 3.1q-7.25-2.3-13.4-5.35l-.8-1.6 5.45-8.95" transform="translate(38.2 34.3)"/><path fill-rule="evenodd" fill="#433622" d="m-36.7-8.7 12.45 3.75.05 3 23.05 3.1q2.3 11.8-34.55-3.45l-2-1.65 1-4.75" transform="translate(38.2 34.3)"/><path fill-rule="evenodd" fill="#473724" d="M-16.85-6.45Q-24.6-7.55-32.2-10l-3-2.3 3.1-8.5 9 5.95.05 4.65 6.2 3.75" transform="translate(38.2 34.3)"/><path stroke-width=".5" stroke-linejoin="round" stroke-linecap="round" stroke="#977948" fill="none" d="m55.4 13.65-9 .2m2.85 10.2-5.3.25-7.05-1.2"/><path stroke-width=".5" stroke-linejoin="round" stroke-linecap="round" stroke="#b09357" fill="none" d="M28.75 8 44.9 9.25H50"/><path stroke-opacity=".29" stroke-linejoin="round" stroke-linecap="round" stroke="#000" fill="none" d="m-21.05-33.8-3.6 1.3m41.8 7.45-3.4-3.45m0 17.3 3.6-1.55-.15-7.9m-.85 18.6 2.65-2-1.45-3.35-1.45-.5M-32.2-10l-4.5 1.3m50.45-2.5 2.6.65-.25 2.65m1.05-17.15.05 4.4m-46.5-1.3-.8-1.6 5.45-8.95M-35.7-2.3l-2-1.65 1-4.75m4.5-1.3-3-2.3 3.1-8.5 2.8-1.15" transform="translate(38.2 34.3)"/><path stroke-width=".05" stroke-opacity=".231" stroke-linejoin="round" stroke-linecap="round" stroke="#000" fill="none" d="M54.3 26.4q-16.9 3.65-32.95 1.45Q13.6 26.75 6 24.3m2.9-11.95q6.15 3.05 13.4 5.35 13 4.05 29.65 5.4"/><path stroke-opacity=".302" stroke-linejoin="round" stroke-linecap="round" stroke="#312c11" fill="none" d="M13.75-28.5q1-1.85-9.25-3.05l-25.55-2.25" transform="translate(38.2 34.3)"/></g><g id="A"><path fill-rule="evenodd" fill="#59482d" d="M-.5-3.8q4.05 2 8.9 1.6l.8-2.45L7.9-8.4l1.45-.4 1.8 3.3 1.5-.25L14.5-8.7l1 .65-1.1 3.8q7.15-.55 6.95 1.4l-6.55.15-8 3.15q-4.5 2-7.95 1.8L-.5-3.8" transform="translate(1.8 9.3)"/><path fill-rule="evenodd" fill="url(#l)" d="m21.35-2.85-.2.55-6 .3Q6.05 3.45-1.3 3.25l.15-1q3.45.2 7.95-1.8l8-3.15 6.55-.15" transform="translate(1.8 9.3)"/><path stroke-opacity=".302" stroke-linejoin="round" stroke-linecap="round" stroke="#312c11" fill="none" d="M-.5-3.8q4.05 2 8.9 1.6l.8-2.45L7.9-8.4l1.45-.4 1.8 3.3 1.5-.25L14.5-8.7l1 .65-1.1 3.8q7.15-.55 6.95 1.4l-.2.55-6 .3Q6.05 3.45-1.3 3.25" transform="translate(1.8 9.3)"/></g><g id="e"><path fill-rule="evenodd" fill="#59482d" d="M2.45-.05 2.4.3q-.85 1.8-2.05 3L.3 3.25Q-1.85 1.95-2.75 0q2.8-4.85 5.2-.05" transform="translate(3.25 2.45)"/><path stroke-opacity=".302" stroke-linejoin="round" stroke-linecap="round" stroke="#312c11" fill="none" d="M2.45-.05 2.4.3q-.85 1.8-2.05 3L.3 3.25Q-1.85 1.95-2.75 0" transform="translate(3.25 2.45)"/></g><g id="f"><path fill-rule="evenodd" fill="#c8c7b7" d="M10.85-3.35q0 3.1-2.25 5.25-2.15 2.25-5.25 2.25-3.05 0-5.3-2.25-2.2-2.15-2.2-5.25 0-3.05 2.2-5.3 2.25-2.2 5.3-2.2 3.1 0 5.25 2.2 2.25 2.25 2.25 5.3" transform="translate(4.25 10.95)"/><path stroke-width=".25" stroke-linejoin="round" stroke-linecap="round" stroke="#4b5140" fill="none" d="M15.1 7.6q0 3.1-2.25 5.25Q10.7 15.1 7.6 15.1q-3.05 0-5.3-2.25Q.1 10.7.1 7.6q0-3.05 2.2-5.3Q4.55.1 7.6.1q3.1 0 5.25 2.2 2.25 2.25 2.25 5.3z"/><path fill-rule="evenodd" d="M-1.4 1.7q-.75-.45-1.25-1.3-.5-.85-.45-1.7.1-.9.7-1.25.65-.35 1.4 0L.3-1.3Q.8-.45.7.45q-.05.9-.7 1.25-.6.35-1.4 0" transform="translate(4.25 10.95)"/><path fill-rule="evenodd" fill="#fff" d="M.8-8.3q.9-.6 1.95-.6Q4-8.75 4.6-8q.6.9.6 2-.15 1.2-.9 1.8-.75.65-2 .5-1.05 0-1.8-.8-.65-.75-.65-1.95.2-1.1.95-1.85" transform="translate(4.25 10.95)"/></g><g id="B"><path fill-rule="evenodd" fill="#550b15" d="m62.8 16.6.1-.05v.2l-.1-.15" transform="translate(.5 .5)"/><path fill-rule="evenodd" fill="#530b07" d="M62.9 16.55q16.45-6.2 41 4 5 2 9.8 6.3l8.85 8.2q.65-.4 1.15-1.4 4.8 11 1.4 20.5l-.4.95q-2.75 6.6-8.05 11.05l2.45-3.8q1.55-3.75 1.65-7.7.2-7.1-4.2-14.95-7.7-13.9-24.25-20.05-16.6-6.2-29.4-2.9v-.2" transform="translate(.5 .5)"/><path fill-rule="evenodd" fill="url(#m)" d="M35.25 48.1q-4-10.65 5.8-6.6 6.25 2.55 17.4 11.05Q69.5 60.85 80.9 65.6q21.25 8.75 39.85-10.95-.1 3.95-1.65 7.7l-2.45 3.8q-5.95 4.9-15.15 7.1-16 3.75-31.15-2.5-2.9-1.2-15.7-10.55-12.95-9.45-19.4-12.1" transform="translate(.5 .5)"/><path fill-rule="evenodd" fill="url(#n)" d="M123.7 33.65q-.5 1-1.15 1.4l-8.85-8.2q-4.8-4.3-9.8-6.3-24.55-10.2-41-4l-.1.05-.95.45 1.05-.3q12.8-3.3 29.4 2.9 16.55 6.15 24.25 20.05 4.4 7.85 4.2 14.95-18.6 19.7-39.85 10.95-11.4-4.75-22.45-13.05-11.15-8.5-17.4-11.05-9.8-4.05-5.8 6.6Q10.75 50.3 0 67.4q6.95-13.95 13.75-24.75Q30.4 16.1 46.1 8.35 68.9-2.9 84.25 1.05q15.4 3.85 19.45 7.5 7 4.8 14.4 15.4 3.55 4.95 5.6 9.7" transform="translate(.5 .5)"/><path stroke-opacity=".302" stroke-linejoin="round" stroke-linecap="round" stroke="#380000" fill="none" d="M123.7 33.65q-2.05-4.75-5.6-9.7-7.4-10.6-14.4-15.4m12.95 57.6q-5.95 4.9-15.15 7.1-16 3.75-31.15-2.5-2.9-1.2-15.7-10.55-12.95-9.45-19.4-12.1m88.45-14.45q4.8 11 1.4 20.5l-.4.95q-2.75 6.6-8.05 11.05M103.7 8.55q-4.05-3.65-19.45-7.5Q68.9-2.9 46.1 8.35q-15.7 7.75-32.35 34.3Q6.95 53.45 0 67.4" transform="translate(.5 .5)"/></g><g id="C"><path fill-rule="evenodd" fill="#61162a" d="m86.75 23.8.05.05-.15.1.1-.15" transform="translate(.55 .5)"/><path fill-rule="evenodd" fill="#5d160f" d="M86.65 23.95Q73.8 16 52.5 15.4q-21.35-.65-36.3 9.25-8.55 5.6-11.6 12.25-1.75 3.7-1.75 7.8.05 1.35 1.05 4.4-3.95-6.15-3.95-13.3v-1Q.5 24.7 11 16.35q.05 1.1.65 1.7L25.3 13.9q7.3-2.15 13.85-2.1 32.05-.05 47.6 12l-.1.15" transform="translate(.55 .5)"/><path fill-rule="evenodd" fill="url(#o)" d="M4.6 36.9Q16.25 62.25 44 62.25q14.9 0 31.1-3.45 16.35-3.6 24.5-3.6 25.65 0 47.45 15.1l1.15 1.85q-24.7-8.65-45.15-8.6-8.45-.05-27.25 3.75-18.65 3.75-22.35 3.75-19.9 0-36-9.55Q8.2 55.9 3.9 49.1q-1-3.05-1.05-4.4 0-4.1 1.75-7.8" transform="translate(.55 .5)"/><path fill-rule="evenodd" fill="url(#p)" d="m86.65 23.95 1 .7-.85-.8-.05-.05q-15.55-12.05-47.6-12-6.55-.05-13.85 2.1l-13.65 4.15q-.6-.6-.65-1.7 4.45-3.6 10.7-6.85Q34.85 2.55 44.85.8q6.2-1.85 25.25.45Q89 3.5 109.25 22.6q19.65 18.55 37.8 47.7-21.8-15.1-47.45-15.1-8.15 0-24.5 3.6-16.2 3.45-31.1 3.45-27.75 0-39.4-25.35 3.05-6.65 11.6-12.25 14.95-9.9 36.3-9.25 21.3.6 34.15 8.55" transform="translate(.55 .5)"/><path stroke-opacity=".302" stroke-linejoin="round" stroke-linecap="round" stroke="#280000" fill="none" d="M44.85.8q-10 1.75-23.15 8.7-6.25 3.25-10.7 6.85m137.2 55.8q-24.7-8.65-45.15-8.6-8.45-.05-27.25 3.75-18.65 3.75-22.35 3.75-19.9 0-36-9.55Q8.2 55.9 3.9 49.1-.05 42.95-.05 35.8v-1Q.5 24.7 11 16.35M147.05 70.3q-18.15-29.15-37.8-47.7Q89 3.5 70.1 1.25 51.05-1.05 44.85.8m102.2 69.5 1.15 1.85" transform="translate(.55 .5)"/></g><g id="E"><path fill-rule="evenodd" fill="#491d37" d="m28.15 44.3.15.1-.2.05.05-.15" transform="translate(.35 .5)"/><path fill-rule="evenodd" fill="#451d14" d="M111.15 25.6q-.7-3.15-1.35-4.3-2.05-3.55-5.35-5.9-5.95-4.3-16-4.9Q70.8 9.25 53 20.25q-17.8 11-24.7 24.15l-.15-.1q7.1-18 34.4-33.7 5.5-3.25 12.8-4.95l13.7-3.1q.15-.8-.35-1.8 13.1 2.1 18.65 10.55l.5.9q3.55 6.15 3.3 13.4" transform="translate(.35 .5)"/><path fill-rule="evenodd" fill="url(#q)" d="M104.45 15.4q3.3 2.35 5.35 5.9.65 1.15 1.35 4.3-.3 8.05-5.35 17.4-8.9 16.2-25.75 25.95-3.15 1.8-20.9 7.7-17.85 5.95-25 10.1-17.35 10-34 29.6l.05-2.2q10.9-23.75 32.7-36.3 6.95-4 22.65-8.9Q71 64 83.65 56.7q23.55-13.6 20.8-41.3" transform="translate(.35 .5)"/><path fill-rule="evenodd" fill="url(#r)" d="M104.45 15.4q2.75 27.7-20.8 41.3Q71 64 55.55 68.95q-15.7 4.9-22.65 8.9Q11.1 90.4.2 114.15q.8-34.1 8.2-59.8Q16 27.85 31 16.65 46 5.35 52.2 3.9 61.6.5 76.2.05l12.5.7q.5 1 .35 1.8l-13.7 3.1q-7.3 1.7-12.8 4.95-27.3 15.7-34.4 33.7l-.05.15-.3 1.1.5-1.15Q35.2 31.25 53 20.25q17.8-11 35.45-9.75 10.05.6 16 4.9" transform="translate(.35 .5)"/><path stroke-opacity=".302" stroke-linejoin="round" stroke-linecap="round" stroke="#000" fill="none" d="M.15 116.35q16.65-19.6 34-29.6 7.15-4.15 25-10.1 17.75-5.9 20.9-7.7Q96.9 59.2 105.8 43q5.05-9.35 5.35-17.4.25-7.25-3.3-13.4l-.5-.9Q101.8 2.85 88.7.75L76.2.05Q61.6.5 52.2 3.9M.2 114.15l-.05 2.2M52.2 3.9Q46 5.35 31 16.65q-15 11.2-22.6 37.7Q1 80.05.2 114.15" transform="translate(.35 .5)"/></g><g id="F"><path fill-rule="evenodd" fill="#471c35" d="m77.05 59.1.15-.05v.1l-.15-.05" transform="translate(.5 .55)"/><path fill-rule="evenodd" fill="#431c13" d="M.75 18.35q1.55-7.1 6.6-12.15l.7-.75Q15.6-1.3 28.95.25q-.8.8-.8 1.65L40.8 8.65q6.65 3.65 11.25 8.25 22.7 22.65 25.15 42.15l-.15.05q-3.45-14.7-18.1-30.2Q44.3 13.35 26.75 9.8q-10.05-2.15-16.9.45-3.85 1.4-6.7 4.25-1 1-2.4 3.85" transform="translate(.5 .55)"/><path fill-rule="evenodd" fill="url(#s)" d="m87 134.55-.5 2.2q-11.4-23.6-25.85-38.05-5.95-6-21.95-16.6-15.85-10.55-18.45-13.15Q6.2 54.85 1.55 36.7q-2.6-10.5-.8-18.35 1.4-2.85 2.4-3.85 2.85-2.85 6.7-4.25-9.7 26.15 9.95 45.8Q30.3 66.6 44.2 75.6q14.1 8.95 19.9 14.75 18.15 18.15 22.9 44.2" transform="translate(.5 .55)"/><path fill-rule="evenodd" fill="url(#t)" d="M63.9 13.2q5.65 3.05 17.45 18.15 11.8 14.95 12.6 42.8.75 27-6.95 60.4-4.75-26.05-22.9-44.2-5.8-5.8-19.9-14.75-13.9-9-24.4-19.55Q.15 36.4 9.85 10.25q6.85-2.6 16.9-.45 17.55 3.55 32.2 19.1 14.65 15.5 18.1 30.2l.2 1.2-.05-1.15v-.1q-2.45-19.5-25.15-42.15-4.6-4.6-11.25-8.25L28.15 1.9q0-.85.8-1.65 5.65.6 12.4 2.7Q55.5 7.35 63.9 13.2" transform="translate(.5 .55)"/><path stroke-opacity=".302" stroke-linejoin="round" stroke-linecap="round" stroke="#000" fill="none" d="M86.5 136.75q-11.4-23.6-25.85-38.05-5.95-6-21.95-16.6-15.85-10.55-18.45-13.15Q6.2 54.85 1.55 36.7q-2.6-10.5-.8-18.35 1.55-7.1 6.6-12.15l.7-.75Q15.6-1.3 28.95.25q5.65.6 12.4 2.7Q55.5 7.35 63.9 13.2" transform="translate(.5 .55)"/><path stroke-opacity=".302" stroke-linejoin="round" stroke-linecap="round" stroke="#000" fill="none" d="M63.9 13.2q5.65 3.05 17.45 18.15 11.8 14.95 12.6 42.8.75 27-6.95 60.4l-.5 2.2L63.9 13.2z" transform="translate(.5 .55)"/></g><g transform="translate(.9 1.05)" id="k"><use xlink:href="#u" width="47.5" transform="matrix(.8531 -.2286 .3166 1.1817 -.877 9.785)" height="21.5"/><use xlink:href="#v" width="22.4" transform="matrix(.9903 .1358 -.1358 .9903 12.61 5.655)" height="16.05"/></g><g id="G"><path fill-rule="evenodd" fill="url(#w)" d="M0 10q0-4.15 6.7-7.1Q13.45 0 23 0t16.25 2.9Q46 5.85 46 10q0 4.15-6.75 7.05Q32.55 20 23 20T6.7 17.05Q0 14.15 0 10" transform="translate(.75 .75)"/><path stroke-width="1.5" stroke-opacity=".302" stroke-linejoin="round" stroke-linecap="round" stroke="#000" fill="none" d="M.75 10.75q0-4.15 6.7-7.1Q14.2.75 23.75.75T40 3.65q6.75 2.95 6.75 7.1 0 4.15-6.75 7.05-6.7 2.95-16.25 2.95T7.45 17.8q-6.7-2.9-6.7-7.05z"/></g><g id="H"><path fill-rule="evenodd" fill="url(#x)" d="M15.8.05q3.7-.3 4.75 1.55 1.05 1.9-1.15 4.85-2.2 3-6.4 5.35-4.2 2.35-7.9 2.7-3.7.35-4.75-1.55Q-.7 11.1 1.5 8.1q2.25-3 6.45-5.35Q12.1.4 15.8.05" transform="translate(.75 .75)"/><path stroke-width="1.5" stroke-opacity=".302" stroke-linejoin="round" stroke-linecap="round" stroke="#000" fill="none" d="M16.55.8q3.7-.3 4.75 1.55 1.05 1.9-1.15 4.85-2.2 3-6.4 5.35-4.2 2.35-7.9 2.7-3.7.35-4.75-1.55-1.05-1.85 1.15-4.85 2.25-3 6.45-5.35 4.15-2.35 7.85-2.7z"/></g><use xlink:href="#y" width="46.1" height="44.15" id="a"/><use xlink:href="#z" width="57.7" height="40.6" id="b"/><use xlink:href="#A" width="23.65" height="13.05" id="d"/><use xlink:href="#B" width="127.5" height="75.65" id="g"/><use xlink:href="#C" width="149.25" height="73.15" id="h"/><use xlink:href="#D" width="112" height="117.35" id="i"/><use xlink:href="#E" width="112" height="117.35" id="D"/><use xlink:href="#F" width="95" height="137.8" id="j"/><use xlink:href="#G" width="47.5" height="21.5" id="u"/><use xlink:href="#H" width="22.4" height="16.05" id="v"/><use xlink:href="#I" width="102.95" height="45" id="M"/><radialGradient spreadMethod="pad" r="819.2" id="n" gradientUnits="userSpaceOnUse" gradientTransform="translate(624.1 11.25) scale(.0709)" cy="0" cx="0"><stop stop-color="#984301" offset="0"/><stop stop-color="#995730" offset="1"/></radialGradient><radialGradient spreadMethod="pad" r="819.2" id="p" gradientUnits="userSpaceOnUse" gradientTransform="translate(624.1 11.25) scale(.0709)" cy="0" cx="0"><stop stop-color="#e58403" offset="0"/><stop stop-color="#e6ab5e" offset="1"/></radialGradient><radialGradient spreadMethod="pad" r="819.2" id="r" gradientUnits="userSpaceOnUse" cy="0" cx="0"><stop stop-color="#f2aa04" offset="0"/><stop stop-color="#f4db79" offset="1"/></radialGradient><radialGradient spreadMethod="pad" r="819.2" id="t" gradientUnits="userSpaceOnUse" cy="0" cx="0"><stop stop-color="#eda603" offset="0"/><stop stop-color="#efd676" offset="1"/></radialGradient><radialGradient spreadMethod="pad" r="819.2" id="w" gradientUnits="userSpaceOnUse" gradientTransform="translate(54.65 3.9) scale(.0677)" cy="0" cx="0"><stop stop-color="#e9d527" offset=".031"/><stop stop-color="#fff" offset=".271"/><stop stop-color="#e9d527" offset=".612"/><stop stop-color="#d86a36" offset=".976"/></radialGradient><radialGradient spreadMethod="pad" r="819.2" id="x" gradientUnits="userSpaceOnUse" gradientTransform="translate(87.4 -87.1) scale(.1623)" cy="0" cx="0"><stop stop-color="#e9d527" offset=".031"/><stop stop-color="#e9d527" offset=".612"/><stop stop-color="#d86a36" offset=".976"/></radialGradient><linearGradient y2=".145" y1=".789" x2=".79" x1=".146" spreadMethod="pad" id="l"><stop stop-color="#59482d" offset="0"/><stop stop-color="#ad8b5a" offset="1"/></linearGradient><linearGradient y2=".147" y1=".788" x2="-.322" x1=".947" spreadMethod="pad" id="m"><stop stop-color="#590e0a" offset="0"/><stop stop-color="#801a0f" offset="1"/></linearGradient><linearGradient y2=".999" y1=".385" x2=".92" x1=".006" spreadMethod="pad" id="o"><stop stop-color="#6a1c14" offset="0"/><stop stop-color="#b6341d" offset="1"/></linearGradient><linearGradient y2=".944" y1=".113" x2=".088" x1="1.006" spreadMethod="pad" id="q"><stop stop-color="#55251a" offset="0"/><stop stop-color="#b74326" offset="1"/></linearGradient><linearGradient y2=".935" y1=".071" x2=".9" x1="-.004" spreadMethod="pad" id="s"><stop stop-color="#532419" offset="0"/><stop stop-color="#b34125" offset="1"/></linearGradient><path fill-rule="evenodd" d="m.35-1.9 4.15-.4q3.95-.9-.75 2.85-3.95 2.4-8.25 1.8Q-3.95 0 .35-1.9" transform="translate(4.5 2.45)" id="c"/><path stroke-opacity=".8" stroke-linejoin="round" stroke-linecap="round" stroke="#000" fill="none" d="M33.2-224.25q2.45-1.55 7.3-3 7.6-2.35 20.25 6.35 3.35 2.25 7 6.55l3.6 3.9q2.9 3.55 4 6.3l.3.95 4.5 7.65q4.3 7.9 9 18.05-6.9-12.5-19.7-14.8-2.2 1.2-5.8 4.7 5.95 8.4 10.1 23.25 5.1 18.45 7.25 42.65l.15 1.6q-9.6-14.45-19-22.05l-6.6-4.3q.1 7.55-3.5 15.6Q46.1-117.7 32.7-105.2l-.9.8q-2.25-16.15-8.8-29.3-2.05-4.1-7.4-11.9l-2.95.7q-2.55.35-4.9.05L2.6-134l-4.95 2.6 2 4.15-1.7 3.05 8.85 23.05q21.65.05 48.25 14.15l18.25.8.6 1.45v.1q.65 5.15-21.1 3.7l3.3 10.2-3 1.75-5.65-7.95-4.55-.65-5.45 8.85-4.4-1.05L37-79.9l-2.45-6.55Q22.45-87.4 12-83.9l.1.35 1.9.8 4.8 8.5-.45 6.45-.65 3.05 2.35 2.7 3.25 12.6-.5 3.55 3.85 1.45 9.6 33.3q11 9.35 12.5 15.7l.05.2.3 1.25-.1.45V7q3.3 1.9 8.1 7 5.05 8.35-7.05 11-8.95-4-12.1-9.2-4 1-9.4 1.6-.05 5.3-34.7 6.8-25.15 9.15-13.1-9.8-48.3 12-21.8-9.55l.6-.55 4.3-10.8-4.6-22.2-.3-7.75.9-19.5 2-5.3-1.3-4.4 3.05-5.15-5.25-5.1-1.55-6.6q-6.55 1.2-12.2 5.4l1.95 6.95 7.8 7.75-2.2 2.6-8.1-6.15-2.55 2.3.7 9.25-2.85-.45-3.3-10.6q-12.9 9.25-15.2 4.3l-.05-.1-.4-1.55 11.05-7.35q8.75-21.3 21.35-29.5l-.1-.4 1.45-4.25-2.4-4-3.9-26.25 2.15-4.9 1.35-.25.3-4.65 5-5.05 1.65-.2 2.05-3.25q1.05-9.4 2.8-17.55 2.75-12.8 7.3-20.6l-.9-.55q-9.05-5.7-13.35-7.1-10.4-3.4-24.05-1.7l.85-1.05q13-16.65 25.35-25.9 12.75-9.55 22.65-7.9 9.95 1.6 12.9 3.9l2.5 1.7 1.3-1.5q1.75-2.45 9.4-4.75 7.6-2.35 20.25 6.35 2.8 1.9 5.85 5.25m-13.8.1.55.35-.6-.25.05-.1m33.4 8.6.55.35-.6-.25.05-.1m10.5 44.35-.2-.75-.1-.05.3.8M44-145.25l-.2.55.1-.65.1.1m-74.95-77.05.6-.35-.05-.05-.55.4m4.55 44.55-.2.75.3-.75h-.1M-40.45 4.3l7.85-3-8.2 3.9.35-.9" transform="translate(80.1 236.85)" id="L"/><path fill-rule="evenodd" fill-opacity="0" fill="#f0f" d="M0 0h102.95v45H0V0" id="I"/></defs><path fill="none" d="M-1-1h177v272H-1z"/><use x="82" y="239" xlink:href="#J" width="381" transform="translate(-192.55 -294)" height="381"/><use xlink:href="#K" width="94.6" transform="translate(-7.516 -10.43) scale(1.8976)" height="147.2"/><use x="82" y="239" xlink:href="#L" width="169.75" transform="translate(-80.1 -236.85)" height="264.55"/><use xlink:href="#M" width="102.95" transform="matrix(1.8072 0 0 1.6538 22.6 37.25)" height="45"/></svg>