<svg width="172" height="353" xmlns="http://www.w3.org/2000/svg" xmlns:xlink="http://www.w3.org/1999/xlink"><defs><g id="n" stroke-opacity="0" stroke-linejoin="round" stroke-linecap="round" stroke="#f0f" fill="none"><path d="M187.95-293.5v380h-380v-380h380M92.95.6H-97" transform="translate(192.55 294)"/><path d="m187.95-293.5-190 190 190 190m-380-380 190 190L-192 86.5" transform="translate(192.55 294)"/></g><g transform="translate(39.05 .05)" id="o"><use xlink:href="#a" width="190.25" transform="rotate(19.525 -361.37 290.932) scale(.9982)" height="346.25"/><use xlink:href="#b" width="122.95" transform="translate(57.7 89.95)" height="208.65"/><use xlink:href="#c" width="86.6" transform="matrix(.9202 -.3582 .3709 .9431 52.418 30.957)" height="91.65"/><use xlink:href="#d" width="42" transform="translate(63.05 85.4)" height="63"/><use xlink:href="#e" width="37.75" transform="matrix(-.7946 .2129 .2865 .7749 85.729 300.976)" height="54.1"/><use xlink:href="#f" width="125.75" transform="translate(66.3 290)" height="33.45"/><use xlink:href="#c" width="86.6" transform="matrix(-.5876 -.9539 .8535 -.5804 50.776 146.88)" height="91.65"/><use xlink:href="#g" width="191.25" transform="translate(1.1 .25)" height="347.25"/></g><g id="b" stroke-linejoin="round" stroke-linecap="round" fill="none"><path stroke="#000" d="M61.85 155.45q.3-4.6 1-8.95l-4.15-.6q-.5 0-.5.15m26.5-.5L80.05 147q.15 4.5.9 9.05m-4.75.25q-.95-4-1.25-7.9l-2 .4-4.85-1.15q-.45 5.65.1 11.4m51.75-20.25 2.75.5 3.75 7.5m7.75 2.25-5.3-8.8 2.85.35 4.6 1 2.6 3.2" transform="translate(-57.7 -89.95)"/><path stroke-width=".05" stroke="#000" d="m47.95.3-.6-.3"/><path stroke-width=".05" stroke="#0f0" d="m113.65 193.15-.5 3.6h-1.8m10.2 10.85-1 1.05m1-13.5 1.4-.3m-5.15-1.6-.2 3.45"/></g><g id="k"><path fill-rule="evenodd" fill="#806000" d="M-60.3 56.6q-.8-1.65-.8-3.8 0-2.95 1.55-5.05Q-58 45.7-55.9 45.7l1.15.15q1.25.35 2.25 1.5l.1.15-.05.05q.75 1.6.75 3.65l-.05.95v.05q-.2 2.3-1.5 4-1.55 2.1-3.7 2.1-1.9 0-3.35-1.7m5.25-8.55q-.8-.05-1.35.75-.6.75-.55 1.85-.05 1.1.55 1.85l.1.15q.55.65 1.25.65.8 0 1.4-.8.45-.6.55-1.45v-.4q0-.8-.3-1.4l-.25-.45-.1-.1-.2-.25q-.3-.25-.65-.35l-.45-.05" transform="translate(61.15 31.7)"/><path fill-rule="evenodd" fill="#3b0000" d="m-38.1 31.8 5.55-4.4 4.05 7.6-2.9 2.45-.75-2.2-1.1-2.35h-.3q-.55 0-1.95.55-1.35.5-2 1.05l-.6-2.7.6 2.7.05.25.6 2.65q.7 2.45.85 3.95l-1 .85-1.45-4.75-1.35-1.2-3.7 1.85q1.75.85 2.8 2.75.95 1.65 1.2 3.45l-1.6 1.35-.2-1.55q-.7-3.15-3.35-5.1l-1.45 1.3q-2.75 2.65-5.15 5.7l-2.4-1.05 8.15-6.9.5-.45 6.9-5.8m-7.55 17.75-1.2 1-4.6-4.25-.95 1.2-.1-.15q-1-1.15-2.25-1.5l1.1-.9 2.4 1.05.75.3q3.4 1.6 4.85 3.25m2.15-11.45-1.5-.5 1.5.5" transform="translate(61.15 31.7)"/><path fill-rule="evenodd" fill="#53270a" d="M-37.5 34.5q.65-.55 2-1.05 1.4-.55 1.95-.55h.3l1.1 2.35.75 2.2-4.6 3.9q-.15-1.5-.85-3.95l-.6-2.65-.05-.25m.5 7.7-2.5 2.1q-.25-1.8-1.2-3.45-1.05-1.9-2.8-2.75l3.7-1.85 1.35 1.2L-37 42.2m-4.1 3.45-4.55 3.9q-1.45-1.65-4.85-3.25l-.75-.3q2.4-3.05 5.15-5.7l1.45-1.3q2.65 1.95 3.35 5.1l.2 1.55m-5.75 4.9-3.8 3.25-.05-.05.05-.95q0-2.95-1.55-5.05l-.2-.25.95-1.2 4.6 4.25" transform="translate(61.15 31.7)"/><path fill-rule="evenodd" fill="#988a53" d="M-50.7 53.8q-.2 2.3-1.5 4-1.55 2.1-3.7 2.1-2.1 0-3.65-2.1l-.75-1.2q1.45 1.7 3.35 1.7 2.15 0 3.7-2.1 1.3-1.7 1.5-4v-.05l.05-.95q0-2.05-.75-3.65l.05-.05.2.25q1.55 2.1 1.55 5.05l-.05.95v.05m-4.35-5.75.45.05q.35.1.65.35l.2.25.1.1.25.45q.3.6.3 1.4v.4q-.1.85-.55 1.45-.6.8-1.4.8-.7 0-1.25-.65l-.1-.15q-.6-.75-.55-1.85-.05-1.1.55-1.85.55-.8 1.35-.75" transform="translate(61.15 31.7)"/><path stroke-width=".1" stroke-opacity=".4" stroke-linejoin="round" stroke-linecap="round" stroke="#000" fill="none" d="M10.45 85.5q-.2 2.3-1.5 4-1.55 2.1-3.7 2.1-2.1 0-3.65-2.1l-.75-1.2q-.8-1.65-.8-3.8 0-2.95 1.55-5.05 1.55-2.05 3.65-2.05l1.15.15m4.05 7.9.05-.95q0-2.95-1.55-5.05l-.2-.25-.1-.15q-1-1.15-2.25-1.5m4.05 7.95v-.05"/><path stroke-width=".05" stroke-opacity=".302" stroke-linejoin="round" stroke-linecap="round" stroke="#000" fill="none" d="m29.75 69.15 2.9-2.45-4.05-7.6-5.55 4.4.6 2.7m6.1 2.95-4.6 3.9-1 .85-2.5 2.1-1.6 1.35-4.55 3.9-1.2 1-3.8 3.25h-.05M6.4 77.55l1.1-.9 8.15-6.9.5-.45 6.9-5.8m.65 2.95.6 2.65q.7 2.45.85 3.95M9.9 77.7l-2.4-1.05m10.15-6.85q1.75.85 2.8 2.75.95 1.65 1.2 3.45m-5.5-6.7 1.5.5M15.5 81.25Q14.05 79.6 10.65 78l-.75-.3"/><path fill-rule="evenodd" fill="#4c4c4c" d="M-23.85 28.6-28.2 32l-1.75-3.25v-.05l4.65-3.6q1.45 2.3 1.45 3.05l.1.4-.1.05" transform="translate(61.15 31.7)"/><path stroke-width=".05" stroke-opacity=".302" stroke-linejoin="round" stroke-linecap="round" stroke="#000" fill="none" d="m37.3 60.3-4.35 3.4-1.75-3.25v-.05l4.65-3.6q1.45 2.3 1.45 3.05l.1.4-.1.05z"/><path fill-rule="evenodd" fill="#806000" d="m-35.25 13.05-1.5-.75v4.5l15.05 28.15 3.6.9-.15-.9 1.65.4-.25-1.2h.8l.7 2.65-2.65 4.55-4.7-1.95-17.05-31.8-1.8-6.95-.05-.1 6.1-1.65 2.4 1.4-.55 2.3-1.6-.8v1.25" transform="translate(61.15 31.7)"/><path fill-rule="evenodd" fill="#988a53" d="m-18 51.35 2.65-4.55-.7-2.65h-.8l-.1-.6 2.4.1.7 2.65-3.2 5.45-.95-.4" transform="translate(61.15 31.7)"/><path fill-rule="evenodd" fill="#674d00" d="m-18.25 44.95.15.9-3.6-.9-15.05-28.15v-4.5l1.5.75v3.25l15.05 28.15 1.95.5" transform="translate(61.15 31.7)"/><path stroke-width=".05" stroke-opacity=".302" stroke-linejoin="round" stroke-linecap="round" stroke="#000" fill="none" d="m42.9 76.65-1.95-.5L25.9 48v-4.5l1.6.8.55-2.3-2.4-1.4-6.1 1.65.05.1 1.8 6.95 17.05 31.8 4.7 1.95m1.15-7.2.25 1.2-1.65-.4m1.4-.8-.1-.6 2.4.1.7 2.65-3.2 5.45-.95-.4"/><path fill-rule="evenodd" fill="#606060" d="m-25.7 27.4-3.25-9.7L-11 3.1l6.45 5.5-21.15 18.8m19-27.8 16-13.05 5.55 4.25-.7-3.8q-.6-2.5-1.4-3.9l9.65-14.75L15.65-9.4-.4 4.9-5.8.35l-.9-.75" transform="translate(61.15 31.7)"/><path fill-rule="evenodd" fill="gray" d="m22.4-31.65.5 1.25q5.2 13.6-.5 29L9.25 9.7Q5.4 5.2 1.75 3.6l.15 1.15-.1 1.95-2.2-1.8L15.65-9.4l6.75-22.25M4.25 13.9l-24.4 20.5-5.55-7L-4.55 8.6l1.95 1.8q-.2-1.55-.6-2.4 3.8 2.05 7.45 5.9" transform="translate(61.15 31.7)"/><path fill-rule="evenodd" fill="#4c4c4c" d="m9.3-13.45 2.6-2.15.85-1.3q.8 1.4 1.4 3.9l.7 3.8-5.55-4.25" transform="translate(61.15 31.7)"/><path fill-rule="evenodd" fill="#6c6c6c" d="m-11 3.1 4.3-3.5.9.75L-.4 4.9l-4.15 3.7L-11 3.1" transform="translate(61.15 31.7)"/><path fill-rule="evenodd" fill="#8c8c8c" d="m9.25 9.7-5 4.2Q.6 10.05-3.2 8q.4.85.6 2.4l-1.95-1.8L-.4 4.9l2.2 1.8.1-1.95-.15-1.15q3.65 1.6 7.5 6.1" transform="translate(61.15 31.7)"/><path stroke-width=".1" stroke-opacity=".4" stroke-linejoin="round" stroke-linecap="round" stroke="#000" fill="none" d="m83.55.05.5 1.25q5.2 13.6-.5 29L70.4 41.4l-5 4.2L41 66.1l-5.55-7-3.25-9.7 17.95-14.6 4.3-3.5 16-13.05 2.6-2.15.85-1.3L83.55.05 76.8 22.3 60.75 36.6l-4.15 3.7-21.15 18.8"/></g><g id="d"><path fill-rule="evenodd" fill="#c78c34" d="m78.4 147.5-3.4.9q.1-6.85 2.1-13.4 1.05-3.5 2.65-6.9l2.05.5.6.25 1.35.9q-1.3 3.7-2.15 7.45l-2.55-1.15q-.55 3.05-.65 11.45m-12.65-.4-.05-.05-2.65-.55q2.25-9.05 6.2-17.05 1.6-3.2 3.45-6.25 2.85.05 3.2 2.4-1.75 3.25-3.15 6.6l-1.65-1.25q-3.4 9.9-5.35 16.15" transform="translate(-63.05 -85.4)"/><path fill-rule="evenodd" fill="#fcdd81" d="M81.6 137.2q-1.1 4.85-1.4 9.8l-1.55.4-.25.1q.1-8.4.65-11.45l2.55 1.15m-15.85 9.9q1.95-6.25 5.35-16.15l1.65 1.25q-3.2 7.6-4.55 15.45l-2.45-.55" transform="translate(-63.05 -85.4)"/><path stroke-width=".05" stroke-opacity=".302" stroke-linejoin="round" stroke-linecap="round" stroke="#000" fill="none" d="m15.35 62.1-3.4.9q.1-6.85 2.1-13.4 1.05-3.5 2.65-6.9l2.05.5.6.25 1.35.9q-1.3 3.7-2.15 7.45-1.1 4.85-1.4 9.8l-1.55.4-.25.1M9.7 46.8q1.4-3.35 3.15-6.6-.35-2.35-3.2-2.4-1.85 3.05-3.45 6.25-3.95 8-6.2 17.05l2.65.55.05.05m7-14.9q-3.2 7.6-4.55 15.45L2.7 61.7"/><path fill-rule="evenodd" fill="#714d00" d="m82.7 94.5-.5-.2-4.05 1.55 4.05-1.55.5.2 10 4 3.45 4.7-3.05 4.25-9.3-4.25-.55.4-.4.55-.8 1q-.45.45-.45 1.3l.65 1.9q1.35-1.45.65-.65l1.7 1.15.2.2.35-.15 2.4 1.15q3.35 1.9 3.35 4l-.05.2-1.65 4.05q-1.75 4.9-1.75 8.9v3.35l.1 1.1q.25 2.05 1 4.2-2.35-.45-5.6-2.05-2.7-1.35-6.05-3.4l-.3-.2-.8-.5q-9.4-5.85-8.9-9.1.1-.7.6-1.25 1.95-2.65 10.85-10.5l-1.2-10.45v-2.55h1v-4l3.05-6.45h.85v.2l.15 4.95q0 1.9.5 3.95" transform="translate(-63.05 -85.4)"/><path fill-rule="evenodd" fill="#483100" d="M82.7 94.5q-.5-2.05-.5-3.95l-.15-4.95v-.2h6.8L99 86.6l6.05 3.35-6.55 18.65-5.05 7.5q-1.2 8.9.1 17.85-.95 2.7-5 1.9-.75-2.15-1-4.2l-.1-1.1v-3.35q0-4 1.75-8.9l1.65-4.05.05-.2q0-2.1-3.35-4l-2.4-1.15-.35.15-.2-.2-1.7-1.15q.7-.8-.65.65l-.65-1.9q0-.85.45-1.3l.8-1 .4-.55.55-.4 9.3 4.25 3.05-4.25-3.45-4.7-10-4m8.4 1.8 1.6 2.2.85.35.85.1-.85-.1-.85-.35-1.6-2.2" transform="translate(-63.05 -85.4)"/><path stroke-width=".05" stroke-opacity=".302" stroke-linejoin="round" stroke-linecap="round" stroke="#000" fill="none" d="m15.1 10.45 4.05-1.55.5.2M19 0h-.85L15.1 6.45v4h-1V13l1.2 10.45Q6.4 31.3 4.45 33.95q-.5.55-.6 1.25-.5 3.25 8.9 9.1l.8.5.3.2q3.35 2.05 6.05 3.4 3.25 1.6 5.6 2.05 4.05.8 5-1.9-1.3-8.95-.1-17.85l5.05-7.5L42 4.55 35.95 1.2 25.8 0H19m.8 18.75.4-.55.55-.4 9.3 4.25 3.05-4.25-3.45-4.7-10-4m11.7 4.45-.85-.1-.85-.35-1.6-2.2"/></g><g id="l"><path fill-rule="evenodd" d="M-18.8-21.75q4.35-8.05 11.1-3.7L3.4-16.8-.3-3.85h-13.55l-4.95-17.9" transform="translate(18.85 27.05)"/><path fill-rule="evenodd" fill="#666" d="m-18.8-21.75 4.95 17.9H-.3L3.4-16.8 6.5-10 18.85 4.8v12.95Q13.8 23.55 2.2 27q-9.05-1.75-13.6-8V6.6l-3.7-8-3.7-20.35M-9.55.45h11.1L6.5-10 1.55.45h-11.1" transform="translate(18.85 27.05)"/><path stroke-width=".1" stroke-opacity=".4" stroke-linejoin="round" stroke-linecap="round" stroke="#000" fill="none" d="M22.25 10.25 11.15 1.6Q4.4-2.75.05 5.3L5 23.2h13.55l3.7-12.95 3.1 6.8 12.35 14.8V44.8q-5.05 5.8-16.65 9.25-9.05-1.75-13.6-8v-12.4l-3.7-8L.05 5.3m25.3 11.75L20.4 27.5H9.3"/></g><g id="f"><path fill-rule="evenodd" fill="#fcdd81" d="m82.65 316.05-4.8-5.05-.85-.95-4.45 1.55 3.85 4.1 1.8 1.7 4.45-1.35m2.05-6.3-2.35-2.85-2.75 1.85q2 2.7 4.25 5.05l.85-4.05" transform="translate(-66.3 -290)"/><path fill-rule="evenodd" fill="#c78c34" d="m72.55 311.6 4.45-1.55q-2.8-3.4-5.5-7.2l-5.2.05q2.7 4.5 6.25 8.7m9.8-4.7-.15-.25-2.9-4.3-2.95 1.35q1.5 2.7 3.25 5.05l2.75-1.85" transform="translate(-66.3 -290)"/><path stroke-width=".05" stroke-opacity=".302" stroke-linejoin="round" stroke-linecap="round" stroke="#000" fill="none" d="m10.7 20.05.85.95 4.8 5.05M11.9 27.4l-1.8-1.7-3.85-4.1m4.45-1.55q-2.8-3.4-5.5-7.2L0 12.9q2.7 4.5 6.25 8.7m12.15-1.85-2.35-2.85-.15-.25-2.9-4.3-2.95 1.35q1.5 2.7 3.25 5.05 2 2.7 4.25 5.05"/><path fill-rule="evenodd" d="m178.85 299.1-10.9 1.1-8.8-9.25-.85-.9 13 2.65 7.55 6.4" transform="translate(-66.3 -290)"/><path fill-rule="evenodd" fill="#666" d="m171.1 304.25-1.25.5-.8.45q.5 1.15 1.05 1.25l5.2.45 5.2.85 3.3 1.1h.1l7.3 1.95.6 6.5-10.15 3.6q-8.85-4.5-10.8-7.5l-3.9-3.3q-3.55-2.85-3.9-2.95l-4.95-1.4q-1.4-.45-1.4-1.45 0-2 1.95-2.15 1.95-.15 1.9-1.55l-.6-3.4-.5-2.3q-.35-1.85-.35-3l.05-.95 8.8 9.25 10.9-1.1-.65 2.5-4.7 2-2.4.65" transform="translate(-66.3 -290)"/><path fill-rule="evenodd" fill="#494949" d="m183.8 308.85-3.3-1.1-5.2-.85-5.2-.45q-.55-.1-1.05-1.25l.8-.45 1.25-.5 2.4-.65 4.7-2 5.6 7.25m-24.65-17.9-.05.95q0 1.15.35 3l.5 2.3.6 3.4q.05 1.4-1.9 1.55-1.95.15-1.95 2.15 0 1 1.4 1.45l4.95 1.4q.35.1 3.9 2.95l3.9 3.3q1.95 3 10.8 7.5l10.15-3.6.2 2.15-11.7 3.95-14.6-6.6-3.5-6.65-7.4-3.75-1.35-4.8 4-7.35.85-4.2.85.9" transform="translate(-66.3 -290)"/><path stroke-width=".1" stroke-opacity=".4" stroke-linejoin="round" stroke-linecap="round" stroke="#000" fill="none" d="m104.8 14.25 2.4-.65 4.7-2 .65-2.5-10.9 1.1-8.8-9.25M125.5 27.3l-.6-6.5-7.3-1.95m-.1 0-5.6-7.25m.65-2.5L105 2.7 92 .05l.85.9M92 .05l-.85 4.2-4 7.35 1.35 4.8 7.4 3.75 3.5 6.65 14.6 6.6 11.7-3.95-.2-2.15"/></g><g id="g"><path fill-rule="evenodd" fill="#960" d="M124.35 105.05q.3-.45 1.1-.95l.15-.1.5-.3q1.4-.85 2-.8 1 .1 3.4 2.1-4.2.9-7.15 3.8-2.85 2.75-5.45 5.9l-1 1.15q-2.8 3.05-4.4 7.55-1.7 4.4-.2 9.1l.3.65-1.8.1q-1.15-.1-2.15-1.1-.95-1.05-.85-2.05l.65-5.5.25-2.75 1.85-3.5.95-1.95.5-.6q4.3-4.95 11.35-10.75m-9.85-13.6-.65 1.55q0 .5 1.4 2.05 1.4 1.55 1.4 2.2-.1 1.65-2.75 2.8-1.75-.1-8.15-4.8l-5.05-3.3q-4.2-2.85-4.1-3.75l.65-1.2.3-2.45q.25-5-1.8-8.7 3.3.65 5.95 1.95l.35.85.6 2.55.4.3 2.75 2.65.15-2.45q-.05-1.45-.55-2.5 1.85.5 3.7 1.65l.85 1.5.85 1.65.2.1.25.25q1.2 1.05 1.75 2.4l.05-.05-.35-1.9 1.2 1.65.6 5" transform="translate(-1.1 -.25)"/><path fill-rule="evenodd" fill="#714d00" d="m121.3 99.75.1 2.15q-.05.85-4.7 5.3-1.55 1.4-2.1 1.4l-2.15-.05q-.5-.3-1.2-.35h-.2q-3.7-.35-7-2.95l-3.3-3-3.5-3.2q-3.25-3-5.75-6.2-1.45-1.85-2.55-4.15 1.75-.95 4.1-3.1l.2-.25q1.4-2.3.95-5.6v-.2l-2.8-1.5.05-.6.35-.6.05-.05 1.65-1.35 2.25.4q2.05 3.7 1.8 8.7l-.3 2.45-.65 1.2q-.1.9 4.1 3.75l5.05 3.3q6.4 4.7 8.15 4.8 2.65-1.15 2.75-2.8 0-.65-1.4-2.2-1.4-1.55-1.4-2.05l.65-1.55.15 1.55 6.65 6.75m-27.75-23 .65 2.8-.65-2.8m20.9 52.35.6.05q1.4.1 4.15-1.2 3.15-1.6 5.2-3.9 5.45-10.2 5.6-12.95.05-1.5-.25-3.05l-.2-.15-.9-.45-.7.1-.5.05-.4.35q-12.25 10.1-12.65 18.4v1.75l-.15.9.2.1M131.5 105l.65.5q1.4 1.15 1.3 3.65-.2 2.8-2.3 9.75-.6 2.85-3.45 7-1.45 2-7.15 4.75-4.3 2.05-6.95 2.5l-.3-.65q-1.5-4.7.2-9.1 1.6-4.5 4.4-7.55l1-1.15q2.6-3.15 5.45-5.9 2.95-2.9 7.15-3.8m-29.45-26.35 3.35.55q.5 1.05.55 2.5l-.15 2.45-2.75-2.65-.4-.3-.6-2.55m7.9 3.7 2 1.45.75 1 .35 1.9-.05.05q-.55-1.35-1.75-2.4l-.25-.25-.2-.1-.85-1.65" transform="translate(-1.1 -.25)"/><path fill-rule="evenodd" fill="#483100" d="M88.95 88.7q1.1 2.3 2.55 4.15 2.5 3.2 5.75 6.2l3.5 3.2 3.3 3q3.3 2.6 7 2.95h.2q.7.05 1.2.35l2.15.05q.55 0 2.1-1.4 4.65-4.45 4.7-5.3l-.1-2.15 4.15 4.35q-.8.5-1.1.95-7.05 5.8-11.35 10.75l-.5.6-.95 1.95-1.85 3.5-.25 2.75q-1.2-6.55-3.8-12.2l-7.1-3.8-3.1-3.65q-6.2-7.25-9.25-13.05l.85-2.5q.85-.15 1.9-.7m18.75 23.85-2.05-.15 2.05.15m6.7 15.55v-1.75q.4-8.3 12.65-18.4l.4-.35.5-.05.7-.1.9.45.2.15q.3 1.55.25 3.05-.15 2.75-5.6 12.95-2.05 2.3-5.2 3.9-2.75 1.3-4.15 1.2l-.6-.05-.05-1" transform="translate(-1.1 -.25)"/><path stroke-width=".05" stroke-opacity=".302" stroke-linejoin="round" stroke-linecap="round" stroke="#000" fill="none" d="M87.85 88.45q-1.05.55-1.9.7l-.85 2.5q3.05 5.8 9.25 13.05l3.1 3.65 7.1 3.8 2.05.15m16.65-7.5q.3-.45 1.1-.95l-4.15-4.35-6.65-6.75-.15-1.55M94.65 75.6l-2.25-.4-1.65 1.35m2.35 2.75-.65-2.8m20.9 52.35-.2-.1.15-.9m11.05-24 .15-.1.5-.3q1.4-.85 2-.8 1 .1 3.4 2.1l.65.5q1.4 1.15 1.3 3.65-.2 2.8-2.3 9.75-.6 2.85-3.45 7-1.45 2-7.15 4.75-4.3 2.05-6.95 2.5l-1.8.1q-1.15-.1-2.15-1.1-.95-1.05-.85-2.05l.65-5.5q-1.2-6.55-3.8-12.2m-9.9-36.55q3.3.65 5.95 1.95l.35.85 3.35.55q1.85.5 3.7 1.65l.85 1.5 2 1.45.75 1 1.2 1.65.6 5m-11.85-10.25-.6-2.55m8.75 5.35-.85-1.65m-21 6.35q1.75-.95 4.1-3.1l.2-.25q1.4-2.3.95-5.6m15.5 42.1-.25 2.75m3.55-8.8-.5.6"/><path stroke-width=".05" stroke-opacity=".302" stroke-linejoin="round" stroke-linecap="round" stroke="#000" fill="none" d="M113.3 127.85v-1.75q.4-8.3 12.65-18.4l.4-.35.5-.05.7-.1.9.45.2.15q.3 1.55.25 3.05-.15 2.75-5.6 12.95-2.05 2.3-5.2 3.9-2.75 1.3-4.15 1.2l-.6-.05m-.05-1 .05 1"/><path fill-rule="evenodd" fill="#fef4d6" d="m131.65 129.3 3.45-1.35q5.1 8.45 9.25 18.85l-3.2-1.65-2-3q-1.9-2.8-3.45-5.85l-1.8-3.9-2.25-3.1m-7.75 4.2 2.1-1.35q.2-.15.4-.15l5.05 10.15-3.55-.9q-1.55-3.75-2.65-5.65l-1-1.45-.35-.65" transform="translate(-1.1 -.25)"/><path fill-rule="evenodd" fill="#fcdd81" d="m126.85 116.05.9 1.2q3.85 4.9 7.35 10.7l-3.45 1.35-1.05-1.35-5.45-8.2-.7-.95.3-.55q1-1.25 2.1-2.2M126.4 132q-.2 0-.4.15l-2.1 1.35-1.45-2.65-2.3-4.95-.2-.4 1.4-2.45 1.5 2.5 3.55 6.45" transform="translate(-1.1 -.25)"/><path fill-rule="evenodd" fill="#c78c34" d="M126.85 116.05q-1.1.95-2.1 2.2l-.3.55.7.95 5.45 8.2 1.05 1.35 2.25 3.1 1.8 3.9q1.55 3.05 3.45 5.85l2 3-2.3-.9-9.15-14.05-4.9-6.9-1.9-2.55-3.75-5 1.35-1.5 2.45-2.65 3.9 4.45m-2.95 17.45.35.65 1 1.45q1.1 1.9 2.65 5.65l-2.6-.6-2.7-6.25-3.3-6.5-.2-.4-3.5-6 1.05-2.1 1.3-2.05 3.4 5.7-1.4 2.45.2.4 2.3 4.95 1.45 2.65" transform="translate(-1.1 -.25)"/><path stroke-width=".05" stroke-opacity=".302" stroke-linejoin="round" stroke-linecap="round" stroke="#000" fill="none" d="M134 127.7q-3.5-5.8-7.35-10.7l-.9-1.2m8.25 11.9q5.1 8.45 9.25 18.85l-3.2-1.65-2.3-.9-9.15-14.05-4.9-6.9-1.9-2.55-3.75-5m3.8-4.15 3.9 4.45m1.05 25.2 3.55.9-5.05-10.15-3.55-6.45-1.5-2.5m-5.75-1.55 3.5 6 .2.4 3.3 6.5 2.7 6.25 2.6.6m-9.95-23.9 3.4 5.7"/><path fill-rule="evenodd" fill="#fcdd81" d="m172.75 292.25 6.35-.4-2.45 5.35-1.25 2.25-6.25.6 3.1-6.55.5-1.25m-8.35-.65 4.4.6q-.95 3.25-2.45 6.3l-3.2-3.35 1.25-3.55" transform="translate(-1.1 -.25)"/><path fill-rule="evenodd" fill="#c78c34" d="M172.75 292.25q1.55-4.2 2.8-8.85l6.45-2.1q-.8 5.25-2.9 10.55l-6.35.4m-3.95-.05-4.4-.6.05-.3 1.2-5.1h4.4q-.4 3.1-1.25 6" transform="translate(-1.1 -.25)"/><path stroke-width=".05" stroke-opacity=".302" stroke-linejoin="round" stroke-linecap="round" stroke="#000" fill="none" d="M178 291.6q2.1-5.3 2.9-10.55l-6.45 2.1q-1.25 4.65-2.8 8.85m6.35-.4-2.45 5.35-1.25 2.25m-6.25.6 3.1-6.55.5-1.25m-3.95-.05q.85-2.9 1.25-6h-4.4l-1.2 5.1-.05.3-1.25 3.55m3.2 3.35q1.5-3.05 2.45-6.3"/><path fill-rule="evenodd" fill="#646400" d="m155.8 234.6 4.45-.7 4.75.2q.35 2.1 2.4 4.45 4.3 1.05 7.3 2.5 2.2 1.1 3.75 2.3 2.55 1.1 9.65 12.5-10.4 2.95-14.15 3.2-3.4.05-6.15-1.25l-5.85-3.8q.4 0 .3-.45l3.15.3q3.25-.1 10.4-1.55-10.65-5.2-14.6-6.3l-9.35-2.4.1-.15q3.9-5.7 3.9-7l-.05-1.85m5.4 48.9.05-.45h.05l-.1.45m.75-45.95h.75l4.7 1-4.7-1h-.75M52.1 274.3q-.2-3.7 6.05-9.2l9.2-7.1q4.7 3.65 8.7 8.4 4.7 5.55 5 9.05.4 5.85-1.2 8.45l-8.55 10.2q-16.8-6.6-17-10.55-.1-.95 3.5-5.45l1.05-.6q-2.25-2.1-4.75-2.25-2-.25-2-.95" transform="translate(-1.1 -.25)"/><path fill-rule="evenodd" fill="#330" d="m153.5 234.55.2.45-1.75.4 1.75-.4 2.1-.4.05 1.85q0 1.3-3.9 7l-.1.15q-3.85 5.55-3.85 10.45v.55q6.3 3.15 8.15 5.05-3.15 3.65-5 6.25 2.55 2.7 10.65 6.65 7.95 3.8 10.95 3.75l1.2.05.25-.9q1.45-3.15 9.65-10.6l1.5-.25q1.25-.4 2.2-1.4 1.25-1.5 2.25-4.2.1 1.5-1.5 5.5-.95 1.95-4.85 7l.1.25.2.05 1.55.95 1.6 1.55-.3.3h.3q2.35.25 4.15 3.15l-.05.1-.4.2q-7.6 4.75-11.05 8.55-.85.85-1.55 1l-4.15.25-7.15-.8q-5.1-.9-5.95-1.5l.45-2.05.1-.45h-.05l-1.1-.65q-1.15-.8-1.65-2.25l-3.7-1.1q-7.35-3.95-10.3-5.3-12.95 4.9-19.5 7.65-6.55 2.75-13.85 4.85l1.8-5.55.35-2.65q2.2-15 3.15-16.5-4.9-2.4-6.4-2.5l-.3-2.55.4-2.7q18.7-2 31.85-11.25l.1-.05h.05l.1-.1.05-.05h.05l1.55-1.15.7-.55 1.45-1.4 2-2.35 1.95-3.25q.75-1.45 1.4-1.4l2.1 2.3m-37.15 39v3.5l-3.05 1 3.05-1v-3.5M68.9 308.9l-2-.2q-9.4-.75-16.25-3.55-4.15-1.75-4.4-7.8l.2-.35-3.6-2.3q-2.9-1.75-2.85-2.3l2.45-7.15-.1-.15q-3.1-4.7-2.5-8.95-.05-.15.05-.2l-.15.2q-1.8-.65-4.45-1-.75-3.35 11.1-11.65 7.05-5.05 11.75-6.9l-.1-1.4.3-4.2 5.3.05 14.2 1.4 6.75 1 .3 1.2q.25 3.65-2.2 10.1h2.5l.6.5q-.45 1.05 0 5.85.4 4.35-3.05 12.95l-3.35 7.2q-6.85 3.6-5.3 2.4-1.55 1.2 5.3-2.4-4.05 8-10.5 17.65m66.45-36.35 1.5 3q-1.5-1-6.15-9.35l-5.85-10.15 5.85 10.15q4.65 8.35 6.15 9.35l-1.5-3m14.45-2.75-5.3 3.95-.75-.3.75.3 5.3-3.95m26.2 10.3 6.2-6.95q.55-.9 1.25-1.65-.7.75-1.25 1.65l-6.2 6.95m-11.7 4.3-3-1.35 3 1.35m21.7-9.35.6-.45-.6.45m-20.8 6.35-6.7-1.25 6.7 1.25m-101-25.6-1.25-.3q-2 0-4.8 1.1 2.8-1.1 4.8-1.1l1.25.3m-24.4 18.7.1 1.45-.1-1.45m12.3-.2q0 .7 2 .95 2.5.15 4.75 2.25l-1.05.6q-3.6 4.5-3.5 5.45.2 3.95 17 10.55l8.55-10.2q1.6-2.6 1.2-8.45-.3-3.5-5-9.05-4-4.75-8.7-8.4l-9.2 7.1q-6.25 5.5-6.05 9.2m71.75.25-4.95 1.65.45-7.15-1-10h-1.5l.5 4-.5-4h1.5l1 10-.45 7.15 4.95-1.65m-4.95 1.65-2.55.85v1l2.5-1.5.05-.35-.05.35-2.5 1.5v-1l2.55-.85m-66.2 24.65L46.45 297l6.25 3.85m12 .05q-1.95.45-6.3-1.75-4.45-2.3-8.7-5.95-4.85-4.15-7.25-7.95 2.4 3.8 7.25 7.95 4.25 3.65 8.7 5.95 4.35 2.2 6.3 1.75" transform="translate(-1.1 -.25)"/><path fill-rule="evenodd" fill="#1a1a00" d="m110.15 253.8-.4 2.7.3 2.55q1.5.1 6.4 2.5-.95 1.5-3.15 16.5l-.35 2.65-1.8 5.55-3.35.15-11.7-.45-8.8-.55q-2.55 2.75-6.25 5l-.1.05-.85.45-.7.35.7-.35.85-.45.2.35v2.55q2.65.05 3.55 1.3-.95.85-5.65 8-5.05 6.8-7.6 6.95l-.35-.25-2.2-.45q6.45-9.65 10.5-17.65l3.35-7.2q3.45-8.6 3.05-12.95-.45-4.8 0-5.85l-.6-.5h-2.5q2.45-6.45 2.2-10.1l-.3-1.2q13.75 1.6 25.55.35m3.15 24.25-7 2.35 7-2.35M90 281.5l-2.7 3.9 2.7-3.9" transform="translate(-1.1 -.25)"/><path fill-rule="evenodd" fill="#595900" d="m188.1 255.85 1.7 2.75v.4q-1 2.7-2.25 4.2-.95 1-2.2 1.4l-1.5.25q-8.2 7.45-9.65 10.6l-.25.9-1.2-.05q-3 .05-10.95-3.75-8.1-3.95-10.65-6.65 1.85-2.6 5-6.25-1.85-1.9-8.15-5.05v-.55q0-4.9 3.85-10.45l9.35 2.4q3.95 1.1 14.6 6.3-7.15 1.45-10.4 1.55l-3.15-.3q.1.45-.3.45l5.85 3.8q2.75 1.3 6.15 1.25 3.75-.25 14.15-3.2" transform="translate(-1.1 -.25)"/><path stroke-width=".05" stroke-opacity=".302" stroke-linejoin="round" stroke-linecap="round" stroke="#000" fill="none" d="M141.25 242.1h-.05l-.05.05m-.25.15q-13.15 9.25-31.85 11.25m3.15 24.25 3.05-1v-3.5m67.2-1.8.2.05 1.55.95 1.6 1.55-.3.3h.3q2.35.25 4.15 3.15l-.05.1-.4.2q-7.6 4.75-11.05 8.55-.85.85-1.55 1l-4.15.25-7.15-.8q-5.1-.9-5.95-1.5l.45-2.05m-80.05 9.85q2.65.05 3.55 1.3-.95.85-5.65 8-5.05 6.8-7.6 6.95l-.35-.25-2.2-.45-2-.2q-9.4-.75-16.25-3.55-4.15-1.75-4.4-7.8m.2-.35-3.6-2.3q-2.9-1.75-2.85-2.3l2.45-7.15-.1-.15q-3.1-4.7-2.5-8.95h-.1q-1.8-.65-4.45-1-.75-3.35 11.1-11.65 7.05-5.05 11.75-6.9 2.8-1.1 4.8-1.1l1.25.3m13.65-3.35 6.75 1q13.75 1.6 25.55.35m14.7 2.25 5.85 10.15q4.65 8.35 6.15 9.35l-1.5-3m51.25 2.05-.6.45M71.65 248.85l.1 1.05M38.8 275.7l-.1-1.45m.1 1.45q-.1.05-.05.2m77.5-13.1-.5-4h1.5l1 10-.45 7.15 4.95-1.65m-4.95 1.65-.05.35-2.5 1.5v-1l2.55-.85m-12.6 4.2 7-2.35M41.35 285q2.4 3.8 7.25 7.95 4.25 3.65 8.7 5.95 4.35 2.2 6.3 1.75m-18.25-3.9 6.25 3.85"/><path stroke-width=".05" stroke-opacity=".302" stroke-linejoin="round" stroke-linecap="round" stroke="#000" fill="none" d="m152.4 234.3-2.1-2.3q-.65-.05-1.4 1.4l-1.95 3.25-2 2.35-1.45 1.4-.7.55-1.55 1.15m9.6-6.95 1.75-.4 2.1-.4 4.45-.7 4.75.2q.35 2.1 2.4 4.45 4.3 1.05 7.3 2.5 2.2 1.1 3.75 2.3 2.55 1.1 9.65 12.5l1.7 2.75v.4q.1 1.5-1.5 5.5-.95 1.95-4.85 7-.7.75-1.25 1.65l-6.2 6.95m-14.75 2.95-1.1-.65q-1.15-.8-1.65-2.25l-3.7-1.1q-7.35-3.95-10.3-5.3-12.95 4.9-19.5 7.65-6.55 2.75-13.85 4.85l-3.35.15-11.7-.45-8.8-.55q-2.55 2.75-6.25 5l.1.4v2.55m-23-36.75-.1-1.4.3-4.2 5.3.05 14.2 1.4m65.9 21 .75.3 5.3-3.95m17.6-31.25-4.7-1h-.75m-.7 45.5h.05l3 1.35m-5.8-4.25 6.7 1.25M78.3 291l.7-.35.85-.45.1-.05M73 293.4q-1.55 1.2 5.3-2.4m7.9-5.85 2.7-3.9"/><path fill-rule="evenodd" fill="#900" d="m137.5 231.2 4.6.9v2.65l-4.8 13.6q-9.7 6.25-21.4 9.1-.85.95-1.45 2.6l-.1.35-.25.7v7.1q-.5 7.55 5.6 21.45l-.85-.05.4 2.45h-.6l-1.75-2.55q-6.15-9.25-8.65-20.1l.05-.9-.6-.35-3.2 2.45 1.4-7.7-1.1.35-1.45-4.6-.15-.1q-5.65 6.35-7.95 14.5-2.95 10.35-4.8 21.1l-2.7-.4q1.35-8.2 2.8-14.55 2.65-11.7 5.55-17.35l-5 9.15q-4.3 7.75-7.8 11.3l-.4.4-1.25.45q3-5.4 4.85-7.85 1.85-2.5 3.35-6.3 1.2-3.1 2.15-7.5l.05-.35.4-2v-.55h.15l1.75-1.15v-.05l.15.05 1 .2h.05l2.85-.4q-4.2-2.35-6.05-3.95-1.6-1.45-2.65-1.95l-.2-.2h.7q1.3.3 2.15.8-1.75-1.95-2.05-2.8 7.05 2 13.75 2l7.75-1.05.25-.05 1.95-.15q2.45-.45 8.45-2.8 8.75-3.5 12.2-6.35 1.85-1.55 2.65-3.3.55-1.25.55-2.6l-.35-3.65m6.35 21.5-.3.85-6.1 4.9-6.45 3.3 2.4-3.5-.4-.2-4.65.6.8-1.2q-.6.6-2.8.6l.4-.4 1.35-1.3.5-.5.85-.45 2.6-1.4 4.4-2.85q1.6-1.55 3.2-4.2 1.4-2.4 2.05-2.85v3l-.6 2.45 2-4.3.7-.7.95-1.05v-.05l-.1.65-.65 3.2q-.2 2.2-.15 5.4m-8-6.55h-.05.05M78.8 254.3l-.65-.3v-.1l.65.4m29.2 4.65 7.9-1.5-7.9 1.5" transform="translate(-1.1 -.25)"/><path fill-rule="evenodd" fill="#5e0000" d="M120.45 291.35q2.4 5.15 5.65 11.2-1.1 2.35-10.75 4.7l-3.45-5.45q-2.5-4.3-5.25-9.95l-.4-.9q-.75-1.6-1.05-2.95-.45-1.8-.15-3.05v-.8l.1-6.7q.35-2.75 1.9-4.9l.2.05q-1.6 7.85 3.3 17.5 4.3 8.35 8.7 10.65l-1.8-4v-2.2l3.2 4-.2-7.2m-11.95 10.4q.95 3.35 2.4 7.1-7.05-1.05-9.55.2-4-2.35-5.9-13.9l-.3-2.15q.6-8.35 4.15-21.4l.7-2.65 2.9-8.15.35 2.45q0 1.45-1.5 6.75-1.5 5.35-1.5 11.25 0 1.1 1.15 6.55 1.1 5.05.85 8.75-.3 4.1 4.5 4.95l1.75.25m-29.65-9.8 1.35-1.3q-7.05-3.55-5.1-6.15l.45-.45.3-.25q5.35-4.65 11.4-16.25l-2.65-.95q4.05-6.7 4.65-7.2l-.15-.85.1-.15h-.05l-4.6-1.75-5.75-2.35L81 256l-.2.2.6 1.45-2.4-.8 1.2 1.2v.2h-2.25l-1.2-.4h-1q.9 3.15 3.5 6-4.3-2.55-9-6.4v-4.75l3.5-5-2.5-3.5 1.75-5.5 4.45-2.8.7.15-1.15 3.4q4 2.9 8.6 5.1 3.8 1.75 8 3.1-4.75-.65-7.15-1.4-4.2-1.35-7.7-4.4 0 1.6.65 2.6-1.9 1.25-2.9 1.05 0 1.65 1.7 3.9l1.7 2.1-.05.15.3.15q5.05 2.75 10.85 4.65l3.35.95v.05l-1.75 1.15h-.15v.55l-.4 2-.05.35q-.95 4.4-2.15 7.5-1.5 3.8-3.35 6.3-1.85 2.45-4.85 7.85l1.25-.45.4-.4q3.5-3.55 7.8-11.3l5-9.15q-2.9 5.65-5.55 17.35-1.45 6.35-2.8 14.55l-.1.6h-2.4q-2.95-.6-6.4-2.4m57-45.8h-.05.05M78.8 254.3l-.65-.4v.1l.65.3m1.05-2.65-6.1-3.95 6.1 3.95m7.4 15.9 4.7-9.2-4.7 9.2m-7.05 23.1q3.75-4.2 3.1-8.35.65 4.15-3.1 8.35" transform="translate(-1.1 -.25)"/><path fill-rule="evenodd" fill="#7d0000" d="m93.6 247.65 3.85 1.05 1.1.15 9.15.35q4.65-.3 9.35-1.45l1.95-.55q9.9-2.15 18.25-9.75v-4.5l-.05-.1-1.3-1.95 1.6.3.35 3.65q0 1.35-.55 2.6-.8 1.75-2.65 3.3-3.45 2.85-12.2 6.35-6 2.35-8.45 2.8l-1.95.15-.25.05-7.75 1.05q-6.7 0-13.75-2 .3.85 2.05 2.8-.85-.5-2.15-.8h-.7l.2.2q1.05.5 2.65 1.95 1.85 1.6 6.05 3.95l-2.85.4h-.05l-1-.2-.15-.05-3.35-.95q-5.8-1.9-10.85-4.65l-.3-.15.05-.15-1.7-2.1q-1.7-2.25-1.7-3.9 1 .2 2.9-1.05-.65-1-.65-2.6 3.5 3.05 7.7 4.4 2.4.75 7.15 1.4m48.5-12.9h3.2l3.5 2.2-4.95 15.75q-.05-3.2.15-5.4l.65-3.2.1-.65v.05l-.95 1.05-.7.7-2 4.3.6-2.45v-3q-.65.45-2.05 2.85-1.6 2.65-3.2 4.2l-4.4 2.85-2.6 1.4-.85.45-.5.5-1.35 1.3-.4.4q2.2 0 2.8-.6l-.8 1.2 4.65-.6.4.2-2.4 3.5q-7.85 3.65-16.9 6.45v-7.1l.25-.7.1-.35q.6-1.65 1.45-2.6 11.7-2.85 21.4-9.1l4.8-13.6m-22.4 54.9.75 1.7.2 7.2-3.2-4v2.2l1.8 4q-4.4-2.3-8.7-10.65-4.9-9.65-3.3-17.5l-.2-.05q-1.55 2.15-1.9 4.9l-.1 6.7v.8q-.3 1.25.15 3.05.3 1.35 1.05 2.95l.4.9.45 3.7.25 1.45q.4 2.25 1.15 4.75l-1.75-.25q-4.8-.85-4.5-4.95.25-3.7-.85-8.75-1.15-5.45-1.15-6.55 0-5.9 1.5-11.25 1.5-5.3 1.5-6.75l-.35-2.45-2.9 8.15-.7 2.65q-3.55 13.05-4.15 21.4-1.05 3.15-3.5 4.2l-.9.25q-8.2-.1-13-4.5l1.1-1q3.45 1.8 6.4 2.4h2.4l.1-.6 2.7.4q1.85-10.75 4.8-21.1 2.3-8.15 7.95-14.5l.15.1 1.45 4.6 1.1-.35-1.4 7.7 3.2-2.45.6.35-.05.9q2.5 10.85 8.65 20.1l1.75 2.55h.6l-.4-2.45.85.05M84.6 266.6q-2.6-1.1-5.35-2.75-2.6-2.85-3.5-6h1l1.2.4h2.25v-.2l-1.2-1.2 2.4.8-.6-1.45.2-.2-2.2-1.7 5.75 2.35 4.6 1.75h.05l-.1.15.15.85q-.6.5-4.65 7.2" transform="translate(-1.1 -.25)"/><path stroke-width=".05" stroke-opacity=".302" stroke-linejoin="round" stroke-linecap="round" stroke="#000" fill="none" d="m144.2 234.5 3.5 2.2-4.95 15.75-.3.85-6.1 4.9M92.5 247.4l3.85 1.05 1.1.15 9.15.35q4.65-.3 9.35-1.45l1.95-.55q9.9-2.15 18.25-9.75v-4.5l-.05-.1-1.3-1.95 1.6.3 4.6.9m-4.65 26.35-6.45 3.3q-7.85 3.65-16.9 6.45-.5 7.55 5.6 21.45l.75 1.7q2.4 5.15 5.65 11.2-1.1 2.35-10.75 4.7l-3.45-5.45q-2.5-4.3-5.25-9.95l.45 3.7m.25 1.45q.4 2.25 1.15 4.75.95 3.35 2.4 7.1-7.05-1.05-9.55.2-4-2.35-5.9-13.9l-.3-2.15q-1.05 3.15-3.5 4.2l-.9.25q-8.2-.1-13-4.5l1.1-1 1.35-1.3q-7.05-3.55-5.1-6.15l.45-.45.3-.25q5.35-4.65 11.4-16.25l-2.65-.95q-2.6-1.1-5.35-2.75-4.3-2.55-9-6.4v-4.75l3.5-5-2.5-3.5 1.75-5.5 4.45-2.8.7.15-1.15 3.4q4 2.9 8.6 5.1 3.8 1.75 8 3.1m-13.75 4 .3.15q5.05 2.75 10.85 4.65l3.35.95.15.05 1 .2m46.6-22.9-4.8 13.6q-9.7 6.25-21.4 9.1l-7.9 1.5m6.1 3.7v5.55m-40.35-20.5 6.1 3.95m12.1 6.7-4.7 9.2m15.65-6.75-2.9 8.15-.7 2.65q-3.55 13.05-4.15 21.4m10.05-5q.3 1.35 1.05 2.95l.4.9m-23.35-9.55q.65 4.15-3.1 8.35"/><path fill-rule="evenodd" fill="#b0b0b0" d="m142.7 200.7-1.4.6-2.05.25.6 1.5-1.35.1.2-.55q-1.5.7-3 3.15-1.8 2.85-3.2 3.9l-.25-4-.15.4-.35 1.85q-.2.75-.85.75-.4 0-.9-1.85l-.65-2.15-2.85-2.7-1.85-1.55 1.35-3.2h11.75l4.95 3.5m-4 1.9.05-.05v-.15l-.05.2m-56.95-1.65v1.65q0 2.6-1.4 5.55-1.3 2.75-2.2 2.75l-.45-.3q-1.4-2-6.9-5.15-4.85-2.8-5.9-4.65-.45 2.65 2.55 4.25l4.15 2.1q2 2.15 2.25 2.75l.65 2.15.35 2.45v1.3l-3-3.65-.9-2-.1-.85-.05-1.1q-.4.35-.8 1.45-.5 1.45-.5 2.55l-.05.05-1.1-3-.25 2.8.4 1.1v.15l-3.9-2.75q-1.85-.7-2.8-1.2l-.7-.5-3.35-14.4 23 4.5 1 2" transform="translate(-1.1 -.25)"/><path fill-rule="evenodd" fill="#919191" d="m142.7 200.7 1.05.75-1.65.4h-.1v2.1l-3.45 1.6-2.35 5.8q-2.9 6.4-5.75 9.25l-1.55-4.2-.05-.3q.6-3.25.2-5.8l-.3-1.15-1.85-2.65-3-4.3.75-1.8 1.85 1.55 2.85 2.7.65 2.15q.5 1.85.9 1.85.65 0 .85-.75l.35-1.85.15-.4.25 4q1.4-1.05 3.2-3.9 1.5-2.45 3-3.15l-.2.55 1.35-.1-.6-1.5 2.05-.25 1.4-.6m-60.5 5-4.15 9.35-.05.15-4.5 4.05-1-1.95q-1.1-2.75-1.55-7.15.45 4.4 1.55 7.15l1 1.95-2.85-2.2-9.35-7.25-.2-.95.7.5q.95.5 2.8 1.2l3.9 2.75v-.15l-.4-1.1.25-2.8 1.1 3 .05.1v-.15q0-1.1.5-2.55.4-1.1.8-1.45l.05 1.1.1.85.9 2 3 3.65v-1.3l-.35-2.45-.65-2.15q-.25-.6-2.25-2.75l-4.15-2.1q-3-1.6-2.55-4.25 1.05 1.85 5.9 4.65 5.5 3.15 6.9 5.15l.45.3q.9 0 2.2-2.75 1.4-2.95 1.4-5.55v-1.65l.5.95.85 1.7-.9 2.1m56.8-1.5-.45 1.35.45-1.35m3-2.35-1.5.35 1.5-.35M70.6 214.8q1.05 2.15 1.9 2.5-.85-.35-1.9-2.5l-1.1-2.45q.05 1.65 1.1 2.45" transform="translate(-1.1 -.25)"/><path fill-rule="evenodd" fill="#d3d3d3" d="m138.7 202.6.05-.2v.15l-.05.05m-69.25 9.65.05-.05v.15l1.1 2.45q-1.05-.8-1.1-2.45l-.05-.1" transform="translate(-1.1 -.25)"/><path fill-rule="evenodd" fill="#00aad5" d="M137.25 232.95v2.8l-1.8.9q-6 3.7-9.2 5.1 4.5-2.7 9.15-7.15l1.75-1.75.1.1" transform="translate(-1.1 -.25)"/><path fill-rule="evenodd" fill="#e4e4e4" d="M84.45 206.75q6.2 2.6 14.8 3.45l23.5-2.1 4.15-1.6 1.85 2.65.3 1.15q.4 2.55-.2 5.8l-.2.05-6.4 2.05-10.1 2.45q-7.15 1.25-13.65 1.1l-.85.15q-8.9-.8-14.9-3.75v-.45q0-2.75 1.25-8.9l.45-2.05m.6 22.7q4.65 1.1 10.55 1.45l4 .15 1.05.4.05.05q2.05.9 17.15 3.15-11.55-.5-14.2 2.2-.65.55-2 .6 4 0 4.8.8-3.3-.3-4.4 1.2.9 0 6.9 1.6l.05.1-3.25.55-8.4-.85q-7.05-1-13.5-2.9l-.1-1.25q0-2.6 1.25-7.1l.05-.15" transform="translate(-1.1 -.25)"/><path fill-rule="evenodd" fill="#0cf" d="m130.45 220.6.75 1.8q-1.4 2-6.45 4.05l-1.15.4-.2.1q-9.05 3-18.65 3.95l-.8.05-2.3-1.1q2-.8 7.45-1.9 5.85-1.6 11.55-5.3l-5.1-.25q8.75-3.6 11.55-5.05l1.65-.85-.1-.35.2-.05.05.3 1.55 4.2m4.85 9.3.6 1 1.3 1.95.05.1-.1-.1-1.75 1.75q-4.65 4.45-9.15 7.15l-3 .9q-6.9 0-14-1.55 16.75-3 21.25-6.65l4.8-4.55m-6.8-10.6q-.25-.6.25-2.8l.1-.4-.1.4q-.5 2.2-.25 2.8" transform="translate(-1.1 -.25)"/><path fill-rule="evenodd" fill="#fff" d="M131.2 222.4q1.65 3.6 4.1 7.5l-4.8 4.55q-4.5 3.65-21.25 6.65l-.25.05-.05-.1q-6-1.6-6.9-1.6 1.1-1.5 4.4-1.2-.8-.8-4.8-.8 1.35-.05 2-.6 2.65-2.7 14.2-2.2-15.1-2.25-17.15-3.15l-.05-.05-1.05-.4 3.65-.05.7-.05.8-.05q9.6-.95 18.65-3.95l.2-.1 1.15-.4q5.05-2.05 6.45-4.05m-48.6-4.35.15-.35v.45l-.15-.1" transform="translate(-1.1 -.25)"/><path fill-rule="evenodd" fill="#cecece" d="m78.15 236.05.2-.75q.9-3.85.75-7.9 2.65 1.2 5.95 2.05l-.05.15q-1.25 4.5-1.25 7.1l.1 1.25-5.7-1.9m4.05-30.35 2.25 1.05-.45 2.05q-1.25 6.15-1.25 8.9l-.15.35q-2.55-1.3-4.5-2.95l-.05-.05 4.15-9.35" transform="translate(-1.1 -.25)"/><path fill-rule="evenodd" fill="#006077" d="M85.6 244.55q-4.6-2.2-8.6-5.1l1.15-3.4 5.7 1.9q.3 2.55 1.75 6.6m-.4-42.9.05.8-.8 4.3-2.25-1.05.9-2.1.8-1.8.15-.05 1.15-.1m-7.1 13.45q1.95 1.65 4.5 2.95l.15.1q.1 3.1 1.75 3.95 1.75.85 1.75 2.1 0 .85-1.2 5.25-3.3-.85-5.95-2.05l-.5-4.15-6.6-3.05-1.35-3.15 2.85 2.2 4.5-4.05.1-.1m-5.1 4.6.5-.45-.5.45m11 6-5.4-2.45 5.4 2.45" transform="translate(-1.1 -.25)"/><path fill-rule="evenodd" fill="#0083a4" d="M137.25 235.75v1.7q-6.75 8-18.25 9.75-10.25 3-20.45 1.65l-1.1-.15q-6.35-1.6-11.85-4.15-1.45-4.05-1.75-6.6 6.45 1.9 13.5 2.9l8.4.85 3.25-.55.25-.05q7.1 1.55 14 1.55l3-.9q3.2-1.4 9.2-5.1l1.8-.9M126.9 206.5l-4.15 1.6-23.5 2.1q-8.6-.85-14.8-3.45l.8-4.3-.05-.8 36.05-3.2 2.65 3.75 3 4.3m1.85 10-1.65.85q-2.8 1.45-11.55 5.05l5.1.25q-5.7 3.7-11.55 5.3-5.45 1.1-7.45 1.9l2.3 1.1-.7.05-3.65.05-4-.15q-5.9-.35-10.55-1.45 1.2-4.4 1.2-5.25 0-1.25-1.75-2.1-1.65-.85-1.75-3.95 6 2.95 14.9 3.75l.85-.15q6.5.15 13.65-1.1l10.1-2.45 6.4-2.05.1.35" transform="translate(-1.1 -.25)"/><path stroke-width=".05" stroke-linejoin="round" stroke-linecap="round" stroke="#000" fill="none" d="m109.8 308.6 1.2.2"/><path stroke-width=".05" stroke-opacity=".302" stroke-linejoin="round" stroke-linecap="round" stroke="#000" fill="none" d="m141.6 200.45 1.05.75-1.65.4h-.1v2.1l-3.45 1.6-2.35 5.8q-2.9 6.4-5.75 9.25l.75 1.8q1.65 3.6 4.1 7.5l.6 1m-57.75 5.15.2-.75-.9.6m65.25-35.2-4.95-3.5H124.9l-1.35 3.2m-40.2 6.35q6.2 2.6 14.8 3.45l23.5-2.1 4.15-1.6-3-4.3-2.65-3.75-36.05 3.2m-.75 5.1-2.25-1.05-4.15 9.35.05.05q1.95 1.65 4.5 2.95m41.3-15.85.75-1.8m13.9 5.15.45-1.35m-12.1 2.3 1.85 2.65.3 1.15q.4 2.55-.2 5.8l.05.3 1.55 4.2m-1.6-4.5-.1.4q-.5 2.2-.25 2.8m-24.55 11.65.8-.05q9.6-.95 18.65-3.95l.2-.1 1.15-.4q5.05-2.05 6.45-4.05m-2.35-6.3-.2.05-6.4 2.05-10.1 2.45q-7.15 1.25-13.65 1.1l-.85.15q-8.9-.8-14.9-3.75l-.15-.1m2.45 11.4q4.65 1.1 10.55 1.45l4 .15 3.65-.05.7-.05m36.55-28.75 1.5-.35m-32.75 39.25q16.75-3 21.25-6.65l4.8-4.55M82 203.35l-.85-1.7-.5-.95-1-2-23-4.5L60 208.6m16.6 1.75q-1.4-2-6.9-5.15-4.85-2.8-5.9-4.65m6.05 9.35q.45 4.4 1.55 7.15l1 1.95 4.5-4.05.05-.15m4.2-13.15 1.65-.1.15-.05 1.15-.1M67.25 209l1.1 3m1.35-4.05.05 1.1m11.35-3.6.9-2.1.8-1.8m-.05 36.15q6.45 1.9 13.5 2.9l8.4.85 3.25-.55.25-.05M72.4 219l-.5.45m.5-.45-2.85-2.2 1.35 3.15 6.6 3.05 5.4 2.45m-11.5-8.4q-.85-.35-1.9-2.5m-1.1-2.45-.05-.1m.05.1 1.1 2.45m-9.3-5-.8-.6m.8.6-.2-.95M77.5 223l.5 4.15q2.65 1.2 5.95 2.05m-14.4-12.4-9.35-7.25m17.8 17.6q.15 4.05-.75 7.9m-.2.75 5.7 1.9"/><path fill-rule="evenodd" fill="#666" d="M93.45 212h-.1l-2.3-.4-1.35-.75h-.05l.1-.15q3.05.75 3.7 1.15v.15m-4.1-7.4q-4.45-2.85-7.2-3.95-18.25-5.7-18.6-7.3.1-4.3-2-12.05l1.8.2q3.55.85 11.5 3.75.05-.65 1.15-1.65l1.15-1.4q.25-2.7-13-11.8-13.45-9.2-17.3-8.45l.55-1.35-.6-1.3q1.6.2 6.4 1.8 6.25 2.15 9 4.2 2.8 2.1 7.35 6.2 2.25 2.05 7.6 4.95 2.25 1.2 5.35 3.65l-2.4.85.45.75-1.05.4 1 1.8q1 1.5 1.85 1.6 1.55-.65 3.15-1.25l6.35 5.95.3-1.45.3.3q.05-.7.25-1.2l.3-.75 5.9 1.8-2.3.85-.3 1.05-.35.1q-.35.3-.85 5.45-.2 1.8.85 2.55l2.75 2.1.35.35 1.55 1.4.15.1-.65 1.2-1.25 1.3.15.5-.45.45-.1-.1q-.6-1.25-.45-2.45l-.75.3-.4.1h-.2v.1q-3.4 1.75-4.6 1.65-1.45-1.9-2.05-1.95-.35-.05-.65.65M46.8 159.3h-.1l.05-.2.05.2m73.2 29.85h-.05.05m-16.25 16 .3-.15-.65.8.35-.65m-13.1 3.75v.05h-.25l-.15-.05v-.3l.4.3" transform="translate(-1.1 -.25)"/><path fill-rule="evenodd" fill="#4e4e4e" d="m95.35 135.25-1.05.8q-3.6 2.65-3.3 4.8 14.1 6.35 15.45 8-12.45-.65-13.7.25-1.45.95-3.35 5.45-1.6 3.85-1.75 5.3-.15 1.2 8.25 5 8.05 3.6 11.5 4.2l13.2 3.75q10.15 1 20.7-1.95l15.05-4.7q.05-.75-3.7-7.1l.5-.85q0-.45-2.15-1.35l-5.7-2.65 3.5-1.05q-3.5-5.8-11.5-11.9l1.95.6.85.35q10.3 6.05 15.2 14.4l2.55 2.05 5.9 13.9 5 8.5q-4.65-2.7-9.7-9.15 5.05 6.45 9.7 9.15l-.05.6h-.05q-9.8-5.6-10.9-5.7-.6-.1-16.45 8-3.3 1.6-9.2 3l.1-.6q.15-1.7-.55-1.8l-2.4.35q-.05-2.1-1.2-2.2-.55-.1-.6.7l-.1.45-.55.7-.45.3q-4.25 1.55-4.7 1.9h-.05l.1.15v.05l.1.05.05.05.3.3q-.9.35-.9.85l.6.65-1.85.3h-.05q-1.8-1.95-5.35-2.55-4.55-.75-5.4-2.1-1.35 1.05-10.3 4.4l-5.9-1.8.2-.25q.4-.55 1.1-.55h.05l-.1-.2q-3.1-3.1-6.9-5.3l.1-.1.45-1.2q.2-2.55-1.6-2.75l-2.9.15.4 1-1 .15.7 1.75-1 .3q-3.1-2.45-5.35-3.65-5.35-2.9-7.6-4.95-4.55-4.1-7.35-6.2-2.75-2.05-9-4.2-4.8-1.6-6.4-1.8l.6 1.3-.55 1.35q3.85-.75 17.3 8.45 13.25 9.1 13 11.8L76 183.6q-1.1 1-1.15 1.65-7.95-2.9-11.5-3.75l-1.8-.2q2.1 7.75 2 12.05.35 1.6 18.6 7.3 2.75 1.1 7.2 3.95l-.25.6-.15.45-.6 1.15-.65 1.15 2.55.95q-.2 1.5-.5 1.8l-.1.15q-25.9-14.1-46.2-19.65-5.95-16.15-12.55-25.75.75-2.05 1.85-3.3 2.35-2.65 4.05-6.25-4.85-1.25-8.15-3.75 3.3-9.4 3.7-14.4l3.3-.45Q55.8 147.95 72.5 166l1.25 1.1q11.65 9.85 38 14.35l1.2.3q15.8 3.05 46.1-9.85l-.85-1.35-1.1-.1q-49.55 18.85-85.9-10.15l-1.2-.95q-1.05-5.95 2.95-11.95l.45-1.85q6.95-2.35 18.95-10.35l3 .05M46.8 159.3l-.05-.2-.05.2h.1" transform="translate(-1.1 -.25)"/><path fill-rule="evenodd" fill="#333" d="M72.95 147.4q-4 6-2.95 11.95-11.95-10.85-25.15-18.7 6.55 3 28.1 6.75m95.8 33.65-5-8.5-5.9-13.9.4.05 1.65.05q7.85.15 17.1-3.1-3.55 5.1-7.9 7.4l-2 3.85q2.2 3.35 1.65 14.15m-37.25 6.85q-.3 1.55-1.65 1.4-1.65-.15-2.05-.65l-.6-.5-4.65 1.8-.7-1.1-.6-.65q0-.5.9-.85l.95 1.3.05.2 4.65-1.85.6.5.25.15q.5.35 1.8.5l1.05-.25m-9.45 10.25-.05.5q-.05.3-4.65 4 .15-.5.4-.7l.05-.3 4.25-3.5M133 212.1l.1.95-2.35.45q-.75-.1-1.3-1.4-.6-1.25-.4-2.3-5.05-1.95-4.95-2.7l1.05-.55q1 .75 4.5 2.15-.2 1 .4 2.3.55 1.3 1.35 1.35l1.6-.25m1.85-2.3.05.75q-.05.4-1.25.4l-.1-1.2 1.3.05m-36.3-3.5.45-.45.4.35 1.25.6 1.85.65h.15l-.05.25q-.15.95-.75.9l-1.85-.7-1.2-.55q-.65-.45-.6-.85l.35-.2m2.2-3.45-.15-.1-1.55-1.4-.35-.35-2.75-2.1q-1.05-.75-.85-2.55.5-5.15.85-5.45l.35-.1q-.25 1.3-.55 4.4-.2 1.85.85 2.55l2.75 2.1.35.35 1.5 1.4-.45 1.25m-8.6-14.1-.3 1.45-6.35-5.95q-1.6.6-3.15 1.25-.85-.1-1.85-1.6l-1-1.8 1.05-.4.55 1.1q1 1.45 1.85 1.55l3.15-1.25 6.05 5.65m-8.65-8.95-.7-1.75 1-.15.65 1.7-.95.2m32.6 15.1q.05 1.05.5 1.6l-4.95.3v-.1l.3-.75q.25-2.7-.8-4.6l1.35-.6q.75 3.3.65 4.4l2.95-.25m-12.5-4.7v-.25l.2-.05 1 .2-1.2.1m2.15 5.1.25.75-1.7.9q-.3-.05-2.9-1.9l-.25.1.1-1.6q.2-2.35.85-2.9l.65-.3-.6 4h.05l2.6 1.15.95-.2m-1.7 9.7 2.05-.1q1.05.1 1.1.6l.3 2.65v.1q.75-.2 3.3.05-.05.75.3 1.1l-.1.1-4.15-.1.05-.1-.3-2.65q-.1-.5-1.1-.6l-2.2.15.1-.4.65-.8m7.65.55.05-.05q.15-.75.45-1.05l.3-.05h1.8l1.2.25q-.35.3-.5 1.7l-.05 1.55q.05 1.4.6 1.45h1.8l2.45.45-.1.8q-.05.45.05.65-.6-.55-3-.75h-1.8q-.55-.05-.6-1.45l.05-1.55q.1-1.4.45-1.7l-1.15-.25h-2m-23.35 1.25 2.5.95-.2 1.15-.4-.3v.3l-2.55-.95.65-1.15m2.3 2.15-.3.6 3.65 1.1.2.7-.15.55-.6-.05q-.65-.4-3.7-1.15.3-.3.5-1.8l.15.05h.25m3.8.15-.25-.6.5-.25q1.6-1.05 2.85-1.65l.3.7q-1.15.5-2.6 1.35l-.8.45" transform="translate(-1.1 -.25)"/><path fill-rule="evenodd" fill="#fef4d6" d="m127.35 183.85.1-.45q.05-.8.6-.7 1.15.1 1.2 2.2l2.4-.35q.7.1.55 1.8l-.1.6q-.2.65-.6.95l-1.05.25q-1.3-.15-1.8-.5l-.25-.15-.6-.5-4.65 1.85-.05-.2-.95-1.3-.3-.3-.2-.3q.45-.35 4.7-1.9l.45-.3.55-.7m-6.55 6.45q.75 1.1 1.3 3.15.65 2.6.55 4.05l-.6.65-4.25 3.5-.05.3q-.25.2-.4.7-.05.65 1.05 1.15l3.2 1.75-.6 1.15-.05.05q-.5 1.15-.6 2.7v.65l-.55-.3-2.45-.45h-1.8q-.55-.05-.6-1.45l.05-1.55q.15-1.4.5-1.7l-1.2-.25h-1.8l-.3.05q-.3.3-.45 1.05l-.05.05-.25 1.35q-.1.95.25 1.35l-.1.1-.8-.05q-2.55-.25-3.3-.05v-.1l-.3-2.65q-.05-.5-1.1-.6l-2.05.1-.3.15.55-.8.85-.95-.85.95-.55.8-.35.65-.1.4-.05.35q-.15.8-.6.9h-.15l-1.85-.65-1.25-.6-.4-.35-.15-.5 1.25-1.3.65-1.2.45-1.25-1.5-1.4-.35-.35-2.75-2.1q-1.05-.7-.85-2.55.3-3.1.55-4.4l.3-1.05 2.3-.85q8.95-3.35 10.3-4.4.85 1.35 5.4 2.1 3.55.6 5.35 2.55h.05l.8 1.15m4.35 16.25-.45-.6 2.5-1.3.15.05q2.8 1.55 3.65 2.2l1.95-.9 1.15-.5q1.25.15 1.4 3.9l-.65.4-1.3-.05.1 1.2.1.95-.75.2-1.6.25q-.8-.05-1.35-1.35-.6-1.3-.4-2.3-3.5-1.4-4.5-2.15m8.4 3.2-.05-.4-.25.4h.3m-44.2-5.15q.3-.7.65-.65.6.05 2.05 1.95 1.2.1 4.6-1.65l.2-.1.4-.1.75-.3q-.15 1.2.45 2.45l-.9.4q-1.25.6-2.85 1.65l-.5.25.25.6.4 1.1-.2.55-.6-.05-.05-.05-3.65-1.1.3-.6v-.05l.2-1.15-2.5-.95.6-1.15.15-.45.25-.6M93 187.1l-.3.75q-.2.5-.25 1.2l-.3-.3-6.05-5.65-3.15 1.25q-.85-.1-1.85-1.55l-.55-1.1-.45-.75 2.4-.85 1-.3.95-.2-.65-1.7-.4-1 2.9-.15q1.8.2 1.6 2.75l-.45 1.2-.1.1q3.8 2.2 6.9 5.3l.05.2q-.7 0-1.1.55l-.2.25m19.5 3.65-1.35.6q1.05 1.9.8 4.6l-.3.75v.1l4.95-.3q-.45-.55-.5-1.6l.05-.9q.2-1.85.75-2.3-1-1.4-1.45-1.45-1.3-.15-2.95.5m-7.7-.65-1-.2-.2.05v.25l-.85.15-.65.3q-.65.55-.85 2.9l-.1 1.6.25-.1q2.6 1.85 2.9 1.9l1.7-.9-.25-.75q-.2-.95 0-2.65l.4-2.1-1.35-.45m-2.55 12.25-1.05-.75 1.05.75m9.2 2.4q.3-.2.75-.3-.45.1-.75.3M90.9 207.5l-.05.25.15.05.35.05-.45-.35" transform="translate(-1.1 -.25)"/><path fill-rule="evenodd" fill="#919191" d="m168.75 181.7-.1.15.05-.15h.05" transform="translate(-1.1 -.25)"/><path fill-rule="evenodd" d="m116.1 194.9-2.95.25q.1-1.1-.65-4.4 1.65-.65 2.95-.5.45.05 1.45 1.45-.55.45-.75 2.3l-.05.9m-12.5-4.7 1.2-.1 1.35.45-.4 2.1q-.2 1.7 0 2.65l-.95.2-2.6-1.15h-.05l.6-4 .85-.15" transform="translate(-1.1 -.25)"/><path fill-rule="evenodd" fill="url(#h)" d="M137.3 141.25q8 6.1 11.5 11.9l-3.5 1.05 5.7 2.65q2.15.9 2.15 1.35l-.5.85q3.75 6.35 3.7 7.1l-15.05 4.7q-10.55 2.95-20.7 1.95l-13.2-3.75q-3.45-.6-11.5-4.2-8.4-3.8-8.25-5 .15-1.45 1.75-5.3 1.9-4.5 3.35-5.45 1.25-.9 13.7-.25-1.35-1.65-15.45-8-.3-2.15 3.3-4.8l1.05-.8q24.95.55 41.95 6" transform="translate(-1.1 -.25)"/><path fill-rule="evenodd" fill="url(#i)" d="m180.95 155.4 8.55 2.85q-.65 16.05-4.8 33.4l-.15.55-17.6 14q-9.9 5.2-21.95 8.45l-41.15-1.35-10.4-1.3v-.15l.6.05.15-.55-.2-.7.05.05.6.05.2-.55-.4-1.1.8-.45q1.45-.85 2.6-1.35l-.3-.7.9-.4.1.1-.35.2q-.05.4.6.85l1.2.55 1.85.7q.6.05.75-.9l.05-.25q.45-.1.6-.9l.05-.35 2.2-.15q1 .1 1.1.6l.3 2.65-.05.1 4.15.1.1-.1q-.35-.35-.3-1.1l.8.05.1-.1q-.35-.4-.25-1.35l.25-1.35h2l1.15.25q-.35.3-.45 1.7l-.05 1.55q.05 1.4.6 1.45h1.8q2.4.2 3 .75-.1-.2-.05-.65l.1-.8.55.3v-.65q.1-1.55.6-2.7l.05-.05.6-1.15-3.2-1.75q-1.1-.5-1.05-1.15 4.6-3.7 4.65-4l.05-.5.6-.65q.1-1.45-.55-4.05-.55-2.05-1.3-3.15h.05l-.85-1.15 1.85-.3.7 1.1 4.65-1.8.6.5q.4.5 2.05.65 1.35.15 1.65-1.4.4-.3.6-.95 5.9-1.4 9.2-3 15.85-8.1 16.45-8 1.1.1 10.9 5.7h.05v.05l-.05.15.1-.15q2.3-5.35 1.45-14.65l-.05-.3q8.25-5.75 10.8-11.35m-60.5 54.75-.1-.05.1.05v.05-.05m4.7-3.6-1.05.55q-.1.75 4.95 2.7-.2 1.05.4 2.3.55 1.3 1.3 1.4l2.35-.45-.1-.95.75-.2-.1-.95q1.2 0 1.25-.4l-.05-.75.65-.4q-.15-3.75-1.4-3.9l-1.15.5-1.95.9q-.85-.65-3.65-2.2l-.15-.05-2.5 1.3.45.6" transform="translate(-1.1 -.25)"/><path fill-rule="evenodd" fill="#414141" d="m168.7 181.65.05-.6q.55-10.8-1.65-14.15l2-3.85 1.05 3.7.05.3q.85 9.3-1.45 14.65h-.05v-.05" transform="translate(-1.1 -.25)"/><path fill-rule="evenodd" fill="#a69f8e" d="m70 159.35 1.2.95q36.35 29 85.9 10.15l1.1.1.85 1.35q-30.3 12.9-46.1 9.85l-1.2-.3q-26.35-4.5-38-14.35L72.5 166q-16.7-18.05-36.85-28.7l-3.3.45.05-1.8 2.3-.75 2 1 6.1 3.3 2.05 1.15q13.2 7.85 25.15 18.7m107-3.7.8-1.2 3.15.95q-2.55 5.6-10.8 11.35l-1.05-3.7q4.35-2.3 7.9-7.4" transform="translate(-1.1 -.25)"/><path stroke-width=".05" stroke-opacity=".302" stroke-linejoin="round" stroke-linecap="round" stroke="#000" fill="none" d="M136.2 141q-17-5.45-41.95-6l-3-.05q-12 8-18.95 10.35l-.45 1.85q-4 6-2.95 11.95l1.2.95q36.35 29 85.9 10.15l1.1.1.85 1.35q5.05 6.45 9.7 9.15m-5-8.5-5.9-13.9-2.55-2.05q-4.9-8.35-15.2-14.4l-.85-.35-1.95-.6m20.55 17.4.4.05 1.65.05q7.85.15 17.1-3.1l.8-1.2 3.15.95 8.55 2.85q-.65 16.05-4.8 33.4l-.15.55-17.6 14q-9.9 5.2-21.95 8.45l-41.15-1.35-10.4-1.3h-.1l-2.3-.4-1.35-.75h-.05q-25.9-14.1-46.2-19.65l-1.5-.4m85.4-6.95.1-.45q.05-.8.6-.7 1.15.1 1.2 2.2l2.4-.35q.7.1.55 1.8l-.1.6q-.2.65-.6.95l-1.05.25q-1.3-.15-1.8-.5l-.25-.15-.6-.5-4.65 1.85-.05-.2-.95-1.3m46.55-5.7.05-.6m1.4-14.3.05.3q.85 9.3-1.45 14.65l-.1.15.05-.15v-.05m.4-18.6 1.05 3.7q8.25-5.75 10.8-11.35M168 162.8l-2 3.85q2.2 3.35 1.65 14.15m.35-18q4.35-2.3 7.9-7.4m-57 33.5.85 1.15h-.05q.75 1.1 1.3 3.15.65 2.6.55 4.05l-.6.65-4.25 3.5-.05.3q-.25.2-.4.7-.05.65 1.05 1.15l3.2 1.75-.6 1.15-.05.05q-.5 1.15-.6 2.7v.65l.1.05v.05-.05m1.2-23.4q.45-.35 4.7-1.9l.45-.3m-4.95 2.5-.05-.05-.1-.05v-.05l-.1-.15h.05m.2.3.3.3m-.45-.45.1.1m3.35 19.55-.45-.6 2.5-1.3.15.05q2.8 1.55 3.65 2.2l1.95-.9 1.15-.5q1.25.15 1.4 3.9l-.65.4-1.3-.05.1 1.2.1.95-.75.2-1.6.25q-.8-.05-1.35-1.35-.6-1.3-.4-2.3-3.5-1.4-4.5-2.15m8.4 3.2h-.3l.25-.4.05.4m25.5-37.85q-30.3 12.9-46.1 9.85l-1.2-.3q-26.35-4.5-38-14.35l-1.25-1.1q-16.7-18.05-36.85-28.7l-3.3.45q-.4 5-3.7 14.4 3.3 2.5 8.15 3.75-1.7 3.6-4.05 6.25-1.1 1.25-1.85 3.3 6.6 9.6 12.55 25.75m-11.1-53.45.05-1.8 2.3-.75 2 1 6.1 3.3 2.05 1.15q6.55 3 28.1 6.75M29.8 165.2l-.3.85m58.75 38.3q.3-.7.65-.65.6.05 2.05 1.95 1.2.1 4.6-1.65v-.1h.2l.4-.1.75-.3q-.15 1.2.45 2.45m.55-.35-.15-.5 1.25-1.3.65-1.2.45-1.25-1.5-1.4-.35-.35-2.75-2.1q-1.05-.7-.85-2.55.3-3.1.55-4.4l.3-1.05 2.3-.85m-5.9-1.8-.3.75q-.2.5-.25 1.2l-.3-.3-6.05-5.65-3.15 1.25Q81 184 80 182.55l-.55-1.1-.45-.75 2.4-.85 1-.3.95-.2-.65-1.7-.4-1 2.9-.15q1.8.2 1.6 2.75l-.45 1.2-.1.1q3.8 2.2 6.9 5.3l.1.2h-.05q-.7 0-1.1.55l-.2.25M43.75 140.4q13.2 7.85 25.15 18.7m49.95 29.8h.05l.8 1.15m-.85-1.15q-1.8-1.95-5.35-2.55-4.55-.75-5.4-2.1-1.35 1.05-10.3 4.4m13.6 1.85-1.35.6q1.05 1.9.8 4.6l-.3.75v.1l4.95-.3q-.45-.55-.5-1.6l-2.95.25q.1-1.1-.65-4.4 1.65-.65 2.95-.5.45.05 1.45 1.45-.55.45-.75 2.3l-.05.9m-11.3-4.8-1-.2-.2.05v.25l1.2-.1 1.35.45-.4 2.1q-.2 1.7 0 2.65l.25.75-1.7.9q-.3-.05-2.9-1.9l-.25.1.1-1.6q.2-2.35.85-2.9l.65-.3.85-.15m2.15 5.1-.95.2-2.6-1.15h-.05l.6-4m-1.55 11.25 1.05.75m1.5 2.8.3-.15 2.05-.1q1.05.1 1.1.6l.3 2.65v.1q.75-.2 3.3.05l.8.05.1-.1q-.35-.4-.25-1.35l.25-1.35.05-.05q.15-.75.45-1.05-.45.1-.75.3m-7.7.4.55-.8.85-.95m-6.15 2.45.4.35 1.25.6 1.85.65h.15q.45-.1.6-.9l.05-.35.1-.4.35-.65m16.05 4.65-2.45-.45h-1.8q-.55-.05-.6-1.45l.05-1.55q.15-1.4.5-1.7l-1.2-.25h-1.8l-.3.05m-22.85.15-.25.6-.15.45-.6 1.15 2.5.95.05-.25m-.05.25-.2 1.15v.05l-.3.6 3.65 1.1.05.05.6.05.2-.55-.4-1.1-.25-.6.5-.25q1.6-1.05 2.85-1.65l.9-.4m-1.6-2.05-.2.1m23.7 5.85-.55-.3"/><path stroke-opacity=".8" stroke-linejoin="round" stroke-linecap="round" stroke="#000" fill="none" d="m129.2.75.9 1q9.85 10.95 10.3 27.5l-25.85 49-5.95-3.5-1.8 3.1 10.3 9 .35.1Q119.2 86 121 86l-.15-.25 2.25-.75 1.6 2.2h.05l1 1.15q1.2 2 .35 4.7l-.6 1.45q-.95 1.7-2.75 2.95-1.2.8-2.35 1.15l.75.8 4.15 4.35.15-.1.5-.3q1.4-.85 2-.8 1 .1 3.4 2.1l.65.5q1.4 1.15 1.3 3.65-.2 2.8-2.3 9.75l-.65 2.05q2.4 3.3 4.6 7 4.45 7.4 8.2 16.25 7.9 5.4 12 12.4l2.55 2.05.4.05 1.65.05q7.85.15 17.1-3.1l.8-1.2 11.7 3.8q-.65 16.05-4.8 33.4l-.15.55-17.6 14q-9.9 5.2-21.95 8.45h-10.4q-2.1 3.9-4.15 5.95l.75 1.8q1.65 3.6 4.1 7.5l.6 1 6.2 1.2v2.65h3.2l2.95 1.85 1.75-2.95q.75-1.45 1.4-1.4l2.1 2.3.2.45 2.1-.4 4.45-.7 4.75.2q.35 2.1 2.4 4.45 4.3 1.05 7.3 2.5 2.2 1.1 3.75 2.3 2.55 1.1 9.65 12.5l1.7 2.75v.4q.1 1.5-1.5 5.5-.95 1.95-4.85 7l.1.25.2.05 1.55.95 1.6 1.55-.3.3h.3q2.35.25 4.15 3.15l-.05.1-.4.2q-5.85 3.65-9.25 6.75-.85 3.5-2.25 7.05l-2.45 5.35 2.2 1.9-.65 2.5 5.6 7.25 7.4 1.95.8 8.65-11.7 3.95-14.6-6.6-3.5-6.65-7.4-3.75-1.35-4.8 4-7.35.85-4.2 6.15 1.25 1.05-4.45q-4-.75-4.75-1.3l.45-2.05.05-.45-1.1-.65q-1.15-.8-1.65-2.25-2.7-.6-3.7-1.1l-10.3-5.3q-12.95 4.9-19.5 7.65l-7.5 2.85 2.2 5.4.75 1.7 5.65 11.2q-1.1 2.35-10.75 4.7l-3.45-5.45q-2.5-4.3-5.25-9.95l.45 3.7.25 1.45q.4 2.25 1.15 4.75.95 3.35 2.4 7.1-7.05-1.05-9.55.2-4-2.35-5.9-13.9l-.3-2.15q-1.05 3.15-3.5 4.2l-.9.25q-4.1-.05-7.35-1.15l-4.2 6.1.1-.05.3.45q3.35-1.65 7.65 2.35l2.85 16.55-.65 6.95 3.6 9.65q-1.85 5.8-8.55 9.05-10.25-.2-15.85-3.6l-3.75-10.05 5.6-14.1.5-5.9 1.5-2.15-1.9-2.3-1.7-.35-2-.2q-9.4-.75-16.25-3.55-4.15-1.75-4.4-7.8l.2-.35-3.6-2.3q-2.9-1.75-2.85-2.3l2.45-7.15-.1-.15q-3.1-4.7-2.5-8.95-.05-.15.05-.2l-.15.2q-1.8-.65-4.45-1-.75-3.35 11.1-11.65 7.05-5.05 11.75-6.9l-.1-1.4.3-4.2 5.3.05 7.25.8 2.85-4.15-2.5-3.5 1.75-5.5 5.35-3.4q.9-3.85.75-7.9l-.5-4.15-6.6-3.05-1.35-3.15-9.35-7.25L58 195.7q-7.7-2.95-14.7-4.85-5.95-16.15-12.55-25.75.75-2.05 1.85-3.3 2.35-2.65 4.05-6.25-4.85-1.25-8.15-3.75 3.3-9.4 3.7-14.4l.05-1.8 2.3-.75 2 1q3.1 1.55 6.1 3.3l2.05 1.15q4.95 2.25 18.4 4.95 2.25-8.5 6-16.15l1.65-3.15q-4.35-3.5-4-5.7.1-.7.6-1.25 1.95-2.65 10.85-10.5l-.85-7.65-2.1 2.45-.05.05-5-4.8-.2-3.1 2.3-.85.25 2L76.4 94l6.3-12.75-3.5-1.4-5.3 7.3L21.45 67.5 1.6 66.8l.75-1.2Q10.9 52.75 27.4 49.25l55.55 19.8-2.1 7.2 3.6 1.4L89.2 68l-3.25-4.55 4.5-3.4-.25-.7-1.3 1.35-1.35-2.35 1.85-2.2 6.55-.1 1.3 6.75-2.35 4.7 9.05 7.9 1.8-3.05-5.5-6.65 25.25-46.05 3.7-18.9m-23.7 111.3q2.6 5.65 3.8 12.2l-.65 5.5q-.1 1 .85 2.05 1 1 2.15 1.1l1.8-.1q2.65-.45 6.95-2.5l.15-.05 1.9 3.8 1.6 3.6q-12.8-2.4-28.85-2.75l-2.55-.05.75-1.25q-1.3-8.95-.1-17.85l5.05-7.5.05-.05v.05l7.1 3.8M91.05 135.6q-5.9 3.9-10.5 6.35l.9-5.1q.4-1.85.95-3.6l.4.2q3.25 1.6 5.6 2.05l2.65.1m-14.3-5.55-.3-.2-.8-.5-1.5-.95q-.85 1.7-1.55 3.45-3 7.1-4.35 14.4l4.55.8.45-1.85 1.8-.65q.4-5.05 1.9-9.9l1.3-3.7-1.5-.9m53.15 8.85-3.65-7.3-1.85-3.45 2.6-1.95 2.55 3.65 7.15 10.9-6.8-1.85" transform="translate(-1.1 -.25)"/></g><use xlink:href="#j" width="190.25" height="346.25" id="a"/><use xlink:href="#k" width="86.6" height="91.65" id="c"/><use xlink:href="#l" width="37.75" height="54.1" id="e"/><use xlink:href="#m" width="102.95" height="45" id="p"/><linearGradient y2="-1.232" y1="1.767" x2=".818" x1=".054" spreadMethod="pad" id="h"><stop stop-color="#4e4e4e" offset="0"/><stop stop-color="#666" offset=".318"/><stop stop-color="#d7c18e" offset="1"/></linearGradient><linearGradient y2="-.573" y1=".975" x2="2.711" x1="-.858" spreadMethod="pad" id="i"><stop stop-color="#4e4e4e" offset="0"/><stop stop-color="#666" offset=".318"/><stop stop-color="#d7c18e" offset="1"/></linearGradient><path fill-rule="evenodd" fill="#fff" d="M128.5 1q9.85 10.95 10.3 27.5l-25.85 49L107 74l-1.8 3.1 10.3 9 .35.1q1.75-.95 3.55-.95l-.15-.25 2.25-.75 1.6 2.2h.05l1 1.15q1.2 2 .35 4.7l-.6 1.45q-.95 1.7-2.75 2.95-1.2.8-2.35 1.15l.75.8 4.15 4.35.15-.1.5-.3q1.4-.85 2-.8 1 .1 3.4 2.1l.65.5q1.4 1.15 1.3 3.65-.2 2.8-2.3 9.75l-.65 2.05q2.4 3.3 4.6 7 4.45 7.4 8.2 16.25 7.9 5.4 12 12.4l2.55 2.05.4.05 1.65.05q7.85.15 17.1-3.1l.8-1.2 11.7 3.8q-.65 16.05-4.8 33.4l-.15.55-17.6 14q-9.9 5.2-21.95 8.45h-10.4q-2.1 3.9-4.15 5.95l.75 1.8q1.65 3.6 4.1 7.5l.6 1 6.2 1.2v2.65h3.2l2.95 1.85 1.75-2.95q.75-1.45 1.4-1.4l2.1 2.3.2.45 2.1-.4 4.45-.7 4.75.2q.35 2.1 2.4 4.45 4.3 1.05 7.3 2.5 2.2 1.1 3.75 2.3 2.55 1.1 9.65 12.5l1.7 2.75v.4q.1 1.5-1.5 5.5-.95 1.95-4.85 7l.1.25.2.05q.9.3 1.55.95l1.6 1.55-.3.3h.3q2.35.25 4.15 3.15l-.05.1-.4.2q-5.85 3.65-9.25 6.75-.85 3.5-2.25 7.05l-2.45 5.35 2.2 1.9-.65 2.5 5.6 7.25 7.4 1.95.8 8.65-11.7 3.95-14.6-6.6-3.5-6.65-7.4-3.75-1.35-4.8 4-7.35.85-4.2 6.15 1.25 1.05-4.45q-4-.75-4.75-1.3l.45-2.05.05-.45-1.1-.65q-1.15-.8-1.65-2.25l-3.7-1.1q-7.35-3.95-10.3-5.3-12.95 4.9-19.5 7.65l-7.5 2.85 2.2 5.4.75 1.7q2.4 5.15 5.65 11.2-1.1 2.35-10.75 4.7l-3.45-5.45q-2.5-4.3-5.25-9.95l.45 3.7.25 1.45q.4 2.25 1.15 4.75.95 3.35 2.4 7.1-7.05-1.05-9.55.2-4-2.35-5.9-13.9l-.3-2.15q-1.05 3.15-3.5 4.2l-.9.25q-4.1-.05-7.35-1.15l-4.2 6.1.1-.05.3.45q3.35-1.65 7.65 2.35l2.85 16.55-.65 6.95 3.6 9.65q-1.85 5.8-8.55 9.05-10.25-.2-15.85-3.6l-3.75-10.05 5.6-14.1.5-5.9 1.5-2.15-1.9-2.3-1.7-.35-2-.2q-9.4-.75-16.25-3.55-4.15-1.75-4.4-7.8l.2-.35-3.6-2.3q-2.9-1.75-2.85-2.3l2.45-7.15-.1-.15q-3.1-4.7-2.5-8.95-.05-.15.05-.2l-.15.2-4.45-1q-.75-3.35 11.1-11.65 7.05-5.05 11.75-6.9l-.1-1.4.3-4.2 5.3.05 7.25.8L72 246.6l-2.5-3.5 1.75-5.5 5.35-3.4q.9-3.85.75-7.9l-.5-4.15-6.6-3.05-1.35-3.15-9.35-7.25-3.15-13.75q-7.7-2.95-14.7-4.85-5.95-16.15-12.55-25.75.75-2.05 1.85-3.3 2.35-2.65 4.05-6.25-4.85-1.25-8.15-3.75 3.3-9.4 3.7-14.4l.05-1.8 2.3-.75 2 1 6.1 3.3 2.05 1.15q4.95 2.25 18.4 4.95 2.25-8.55 6-16.15l1.65-3.15q-4.35-3.5-4-5.7.1-.7.6-1.25 1.95-2.65 10.85-10.5l-.85-7.65-2.1 2.45-.05.05-5-4.8-.2-3.1 2.3-.85.25 2 3.85-2.6 6.3-12.75-3.5-1.4-5.3 7.3-52.45-19.65L0 66.05l.75-1.2Q9.3 52 25.8 48.5l55.55 19.8-2.1 7.2 3.6 1.4 4.75-9.65-3.25-4.55 4.5-3.4-.25-.7-1.3 1.35-1.35-2.35 1.85-2.2 6.55-.1 1.3 6.75-2.35 4.7 9.05 7.9 1.8-3.05-5.5-6.65L123.9 18.9 127.6 0l.9 1m6.6 139-7.15-10.9-2.55-3.65q-.9.9-2.6 1.95l1.85 3.45 3.65 7.25 6.8 1.9M94 74.75l2.3.55-5.05-4.35-2.75 5.6 1.4.5-.25-.1.05-.6.35-.6.05-.05 1.65-1.35 2.25.4m-4.55 60.1-2.65-.1q-2.35-.45-5.6-2.05l-.4-.2q-.55 1.75-.95 3.6l-.9 5.1q4.6-2.45 10.5-6.35m23.05-6.95.2.1-.05-1-.15.9m-15.75-20.4L91.7 115q-1.2 8.9.1 17.85l-.75 1.25 2.55.05q16.05.35 28.85 2.75l-1.6-3.6-1.9-3.8-.15.05q-4.3 2.05-6.95 2.5l-1.8.1q-1.15-.1-2.15-1.1-.95-1.05-.85-2.05l.65-5.5q-1.2-6.55-3.8-12.2l-7.1-3.8v-.05l-.05.05m-21.9 21.6-.8-.5-1.5-.95L71 131.1q-3 7.1-4.35 14.4l4.55.8.45-1.85 1.8-.65q.4-5.05 1.9-9.9l1.3-3.7-1.5-.9-.3-.2m1.45 84.85-.05.15.1-.1-.05-.05M92.5 185l.05.2h.05l-.1-.2m26.55 4.2h.05l-.85-1.15.8 1.15m.8-3.55.1.15v.05l.1.05.05.05-.2-.3h-.05M73.2 306.4l.2.25 1.3-1.8-1.5 1.55m94.9-19.95-1.05 4.65 2.5.5.95.8.5-1.25 1.5-4.45-.4.05-4-.3" id="j"/><path fill-rule="evenodd" fill-opacity="0" fill="#f0f" d="M0 0h102.95v45H0V0" id="m"/></defs><path fill="none" d="M-1-1h174v355H-1z"/><use x="69" y="267" xlink:href="#n" width="381" transform="translate(-192.55 -294)" height="381"/><use x="-32.423" y="3.122" xlink:href="#o" width="294.5" transform="matrix(.6957 .1284 -.142 .6929 49.14 -17.498)" height="526.8"/><use x="-12.727" y="-1.209" xlink:href="#p" width="102.95" transform="matrix(1.8072 0 0 1.6538 23.7 81.25)" height="45"/></svg>