<svg width="248" height="261" xmlns="http://www.w3.org/2000/svg" xmlns:xlink="http://www.w3.org/1999/xlink"><defs><g id="l" stroke-opacity="0" stroke-linejoin="round" stroke-linecap="round" stroke="#f0f" fill="none"><path d="M187.95-293.5v380h-380v-380h380M92.95.6H-97" transform="translate(192.55 294)"/><path d="m187.95-293.5-190 190 190 190m-380-380 190 190L-192 86.5" transform="translate(192.55 294)"/></g><g transform="translate(.95 1.15)" id="m"><use xlink:href="#a" width="1167.15" transform="translate(79.35 473.1)" height="1198.3"/><use xlink:href="#b" width="57.95" transform="matrix(-1.5982 -2.5508 -2.4807 4.4597 1128.23 593.675)" height="106.6"/><use xlink:href="#b" width="57.95" transform="matrix(.5115 -2.9699 3.9918 3.1888 59.434 791.675)" height="106.6"/><use xlink:href="#c" width="793.55" transform="translate(87.15 175.5)" height="680.8"/><use xlink:href="#b" width="57.95" transform="matrix(4.6392 0 -2.5554 4.6392 904.892 340.858)" height="106.6"/><use xlink:href="#d" width="450.95" transform="translate(53.3 596)" height="340.7"/><use xlink:href="#b" width="57.95" transform="translate(216.676 294.358) scale(4.6392)" height="106.6"/><use xlink:href="#e" width="1557.3" transform="translate(-.95 -1.15)" height="1672.45"/></g><g id="a"><path fill-rule="evenodd" fill="#eacd99" d="M185.25 1461.85q-30.5 18.45-52.7 44.65-8.35 21.25-27.55 30.9v7.45q16.7 1.85 28.4-17.7l-14.6 26.75-13.8 3.55q-7.15 1.75-13.8 4v6.55l27.6-4.75 22.55-19.1q-6.25 12.05-12.1 24.2-14.65 5.75-29.7 11.05v13.55q31.35-4.85 57.25-35.9-7.9 13.85-15.45 27.7-16.7 8.4-33.05 16.9v21l18.85-17.6 38.45-22q21.75-4.75 38.05 18.55l-20.5 17.9q-20.9-21.3-41.4-14.15-14.6 8.1-17.55 19.05 36.4-.65 48.5 30.2 15.9-7.1 29.3-28.4 26.75-23 53.5-45.55 45.55-89.6-70.25-118.8m-48.9 60.4-2.95 4.9 2.95-4.9" transform="translate(-79.35 -473.1)"/><path fill-rule="evenodd" fill="#dcae5a" d="M185.25 1461.85q115.8 29.2 70.25 118.8-26.75 22.55-53.5 45.55-13.4 21.3-29.3 28.4-12.1-30.85-48.5-30.2 2.95-10.95 17.55-19.05 9.2-10.45 23.85-22.3l-38.45 22-18.85 17.6 16.35 14.4q2.05 6.75 7.5 14.7 3.75 4.95 9.2 10.55 33.05 27.5 86.55-27.9 113.75-18.1 152.6-84 126.7-9.55 81.95-94.1-28.85-31.3-106.2-39.65-104.95 4.85-171 45.2M108.3 1611.9v-10.25q16.35-8.5 33.05-16.9 7.55-13.85 15.45-27.7-25.9 31.05-57.25 35.9v-13.55q15.05-5.3 29.7-11.05 5.85-12.15 12.1-24.2l-22.55 19.1-27.6 4.75v12.6l8.35 12.35v13.55l8.75 5.4m-3.3-54.45 13.8-3.55 14.6-26.75q-11.7 19.55-28.4 17.7v12.6m19.2 66.95q-1.25 6 .45 12.65-1.7-6.65-.45-12.65" transform="translate(-79.35 -473.1)"/><path fill-rule="evenodd" fill="#efdab4" d="M141.75 1605.35q20.5-7.15 41.4 14.15l20.5-17.9q-16.3-23.3-38.05-18.55-14.65 11.85-23.85 22.3" transform="translate(-79.35 -473.1)"/><path stroke-width=".05" stroke-opacity=".302" stroke-linejoin="round" stroke-linecap="round" stroke="#000" fill="none" d="M25.65 1071.75v-7.45q19.2-9.65 27.55-30.9 22.2-26.2 52.7-44.65M44.85 1151.3q2.95-10.95 17.55-19.05 20.5-7.15 41.4 14.15l20.5-17.9q-16.3-23.3-38.05-18.55m-57.3 39.6v-21q16.35-8.5 33.05-16.9 7.55-13.85 15.45-27.7m-57.25 35.9v-13.55q15.05-5.3 29.7-11.05 5.85-12.15 12.1-24.2m-50.15 23.85v-6.55q6.65-2.25 13.8-4l13.8-3.55 14.6-26.75 2.95-4.9m-45.15 45.75v12.6l8.35 12.35v13.55l8.75 5.4m-3.3-67.05v12.6m19.65 79.6q-1.7-6.65-.45-12.65m-15.9-1.75 16.35 14.4q2.05 6.75 7.5 14.7 3.75 4.95 9.2 10.55 33.05 27.5 86.55-27.9 113.75-18.1 152.6-84 126.7-9.55 81.95-94.1-28.85-31.3-106.2-39.65-104.95 4.85-171 45.2m-43.5 143.5q9.2-10.45 23.85-22.3"/><path fill-rule="evenodd" fill="#eacd99" d="m1203.4 1492.75 2.8 4.65-2.8-4.65m-46.65-57.6q29.1 17.6 50.25 42.6 8 20.3 26.35 29.45v7.1q-15.95 1.8-27.15-16.9 6.8 12.8 13.95 25.6l13.2 3.35q6.75 1.65 13.15 3.8v6.2l-26.35-4.45-21.5-18.25q5.95 11.5 11.55 23.1 13.95 5.5 28.3 10.55v12.95q-29.9-4.7-54.6-34.25l14.75 26.4 31.5 16.05v20.05l-17.95-16.75-36.7-21q-20.75-4.55-36.3 17.7l19.55 17.1q19.95-20.35 39.5-13.55 13.95 7.75 16.75 18.25-34.7-.7-46.25 28.75-15.2-6.75-27.95-27.05l-51.05-43.45q-43.45-85.5 67-113.35" transform="translate(-79.35 -473.1)"/><path fill-rule="evenodd" fill="#dcae5a" d="M1156.75 1435.15q-110.45 27.85-67 113.35l51.05 43.45q12.75 20.3 27.95 27.05 11.55-29.45 46.25-28.75-2.8-10.5-16.75-18.25-8.8-9.95-22.75-21.25l36.7 21 17.95 16.75q-7.6 6.9-15.55 13.8-2 6.4-7.2 13.95-3.6 4.75-8.75 10.1-31.5 26.2-82.55-26.55-108.5-17.3-145.55-80.15-120.85-9.2-78.2-89.75 27.55-29.9 101.3-37.8 100.1 4.6 163.1 43.05m73.4 143.1v-9.8l-31.5-16.05-14.75-26.4q24.7 29.55 54.6 34.25v-12.95q-14.35-5.05-28.3-10.55-5.6-11.6-11.55-23.1l21.5 18.25 26.35 4.45v12.05l-8 11.85v12.9q-4.35 2.6-8.35 5.1m3.2-51.9-13.2-3.35q-7.15-12.8-13.95-25.6 11.2 18.7 27.15 16.9v12.05m-18.35 63.9q1.2 5.7-.4 12.05 1.6-6.35.4-12.05" transform="translate(-79.35 -473.1)"/><path fill-rule="evenodd" fill="#efdab4" d="M1198.25 1572q-19.55-6.8-39.5 13.55l-19.55-17.1q15.55-22.25 36.3-17.7 13.95 11.3 22.75 21.25" transform="translate(-79.35 -473.1)"/><path stroke-width=".05" stroke-opacity=".302" stroke-linejoin="round" stroke-linecap="round" stroke="#000" fill="none" d="m1126.85 1024.3-2.8-4.65m29.95 21.55v-7.1q-18.35-9.15-26.35-29.45-21.15-25-50.25-42.6m58.25 155.1q-2.8-10.5-16.75-18.25-19.55-6.8-39.5 13.55l-19.55-17.1q15.55-22.25 36.3-17.7m54.65 37.75v-20.05l-31.5-16.05-14.75-26.4m54.6 34.25v-12.95q-14.35-5.05-28.3-10.55-5.6-11.6-11.55-23.1m47.85 22.7v-6.2q-6.4-2.15-13.15-3.8l-13.2-3.35q-7.15-12.8-13.95-25.6m27.15 16.9v12.05m13.15 10v12.05l-8 11.85v12.9q-4.35 2.6-8.35 5.1m0 10.25q-7.6 6.9-15.55 13.8-2 6.4-7.2 13.95-3.6 4.75-8.75 10.1-31.5 26.2-82.55-26.55-108.5-17.3-145.55-80.15-120.85-9.2-78.2-89.75 27.55-29.9 101.3-37.8 100.1 4.6 163.1 43.05m57.85 167.15q1.6-6.35.4-12.05m-16.75-18.25q-8.8-9.95-22.75-21.25"/><path fill-rule="evenodd" fill="#4d4d4d" d="M893.9 898.95q57.3 71.45 190.25 136.4-388.55 65.15-752.95 86.75-121.8-65.4-189.75-136.65 364.15-22.25 751.8-87.2l.65.7" transform="translate(-79.35 -473.1)"/><path fill-rule="evenodd" fill="#e9e9e9" d="m334.9 1139.85-3.7-17.75-7.9.45-1.35 18.1q-121.8-65.4-210.2-160.75l9.3-11.35q353-22.5 752.45-80.95l4.65-.7h17.65q5.85 2.85 12.05 4.75l1.15.35.95 1.05q57.65 70.55 189.05 134.9 4.7 12.05 0 24.1-63.7 10.35-126.2 19.6l-13 1.85q-328.35 48.1-624.9 66.35m-193.55-154.5q68.1 71.35 189.85 136.75 364.4-21.7 752.95-86.75Q951.3 970.3 893.8 898.95l-.55-.7q-387.7 64.9-751.9 87.1l-3.6-3.8 3.6 3.8" transform="translate(-79.35 -473.1)"/><path fill-rule="evenodd" fill="#666" d="m283.2 1426.9-.15 14.75Q201.3 1396 135.2 1336.45l-.8-.7-2.45-20.75q-2.45-15-3.6-34.1l-.7-16.7q-1.05-40.75 2.9-97.45 1.8-24.95 4.55-53l.2-2.55 2.45 2.55 3.15 3.35q-2.85 29.5-4.55 56.05-3.4 53.05-2.3 94.4.2 8.55.7 16.6 1.15 22.25 3.8 40.7l1.4 1.15q64.35 56.8 143.1 100.8l.15.1m774.75-238.7q2.8 33 4.4 67.15.95 20.6 1.5 41.65l.45 20.4.1 8.25q.2 20.5 0 41.4l-.1 9.3-.1 10.65-13 2-61.7 9.25-13 1.85q-60.75 8.9-120.35 16.7l-14.65 2-47.9 6.15-6.25.8-6.75.8-11.9 1.5q-187.65 22.6-364.2 34.9l-1.5-9.7q177.25-12.65 365.55-35.65h.25l-.25-1.5-.2-15.2-.15-6-.55-14.4-1.5-31.55q-1-17.4-2.45-34.45l-.15-1.25-.8-.25-5.9-1.95-1.95-.8q-11.7-4.35-20.55-11.85l-1.65-1.5-.2-.25q-15.15-13.95-21.45-37.9-2.95-11-4.05-21.95l10.55-1.25q1.1 10.4 4.25 20.85 8.05 26.2 29.25 39.2 5.3 3.25 11.35 5.7l5.45 1.95 8.7 2.55 4.4 1.05v.25q2.85 25.2 3.85 41.75l1.5 31.65.45 13.8.25 6.6.25 13.6v.8h.1l6.15-.8 47.65-6.15 14.5-1.85 111.6-15.65 12.95-1.85 71.1-10.7v-1.95l.15-7.1v-41.5l-.15-10.35-.45-20.4q-.5-19.7-1.4-38.95-1.55-34.5-4.4-67.75l12.9-2.1M768.8 1417.6l11.7-1.5 6.75-.8-6.75.8-11.7 1.5" transform="translate(-79.35 -473.1)"/><path fill-rule="evenodd" fill="#7d6b33" d="M283.05 1426.8q-78.75-44-143.1-100.8l-1.4-1.15q-2.65-18.45-3.8-40.7 29.4 15.4 86.05 46.25 35.65 19.35 61.95 34l.3 16.1q.35 22.85.15 46.3h-.15m-149-159.25q-1.1-41.35 2.3-94.4 34.85 38.45 77.5 72.35 35.45 28.3 65.65 43.5 1.4 22.8 2.3 46.15-40.75-11.65-61.45-21.45l-86.3-46.15" transform="translate(-79.35 -473.1)"/><path fill-rule="evenodd" fill="#917b3c" d="M134.75 1284.15q-.5-8.05-.7-16.6l86.3 46.15q20.7 9.8 61.45 21.45l.8 24.95.15 4.3q-26.3-14.65-61.95-34-56.65-30.85-86.05-46.25m1.6-111q1.7-26.55 4.55-56.05 59.5 62.5 133.7 111.85 2.95 29.5 4.9 60.05-30.2-15.2-65.65-43.5-42.65-33.9-77.5-72.35" transform="translate(-79.35 -473.1)"/><path fill-rule="evenodd" fill="#c1c1c1" d="m717.55 1235.55 11-1.3q62.9-7.4 127.35-16.1l7.4-1.05 16.95-2.3h.35q11.3 32-13.2 61.35l-1.65 1.85q-4.1 4.55-8.7 8.45l-6.85 5.2q-5.6 3.95-11.8 7l-.85.35q-7.4 3.45-14.85 5.65-16.45 4.95-32.9 3.5l-8-1.15 8 1.15q16.45 1.45 32.9-3.5 7.45-2.2 14.85-5.65l.85-.35q6.2-3.05 11.8-7l2.7 55.55 2.05 43.75.7 15.55-14.5 1.85-47.65 6.15-6.15.8-.1-.8-.25-13.6-.25-6.6-.45-13.8-1.5-31.65q-1-16.55-3.85-41.75l.85-.1-.85-.15-4.4-1.05-8.7-2.55-5.45-1.95q-6.05-2.45-11.35-5.7-21.2-13-29.25-39.2-3.15-10.45-4.25-20.85" transform="translate(-79.35 -473.1)"/><path fill-rule="evenodd" fill="#b79d4f" d="M390.8 1330.05q36.95 6.75 65.65 9.4 58.7 5.8 155.4 5.8l151.25 3.7h3.05l1.5 31.55.55 14.4q-75.15 2.3-173.05 2.3-67.5 0-157-3.25l-42.7-1.6q-3.05-30.95-4.65-62.3m341.7-33.15-207.6 10.3q-93.4 4.15-134.8 8.6-.95-24.75-1-49.75 149.25-10 307.8-28.1l10.1-1.15q1.1 10.95 4.05 21.95 6.3 23.95 21.45 37.9v.25m148.1-82.1 2.45-.35 8.1-1.2q75.95-10.6 153.9-22.95 2.85 33.25 4.4 67.75-83.25 16.7-192.4 28.4 4.6-3.9 8.7-8.45l1.65-1.85q24.5-29.35 13.2-61.35m-25.65 176.15-2.05-43.75q98.75-4.1 184.4-17.25l14.15-2.2v41.5q-86.9 14.15-185.8 21l-10.7.7" transform="translate(-79.35 -473.1)"/><path fill-rule="evenodd" fill="#9e8741" d="m390.8 1330.05-.7-14.25q41.4-4.45 134.8-8.6l207.6-10.3h.2l1.65 1.5q8.85 7.5 20.55 11.85l1.95.8 5.9 1.95.95 1.5q1.45 17.05 2.45 34.45h-3.05l-151.25-3.7q-96.7 0-155.4-5.8-28.7-2.65-65.65-9.4m12.2 123.2-.45-3.75-.6-3.7-2.2-15.9q-2.4-18.7-4.3-37.55l42.7 1.6q89.5 3.25 157 3.25 97.9 0 173.05-2.3l.15 6 .2 15.2v1.5q-188.3 23-365.55 35.65m454.05-166.8q109.15-11.7 192.4-28.4.9 19.25 1.4 38.95l.45 20.4.15 10.35-14.15 2.2q-85.65 13.15-184.4 17.25l-2.7-55.55 6.85-5.2m-1.4 120.05-.7-15.55 10.7-.7q98.9-6.85 185.8-21l-.15 7.1v1.95l-71.1 10.7-12.95 1.85-111.6 15.65" transform="translate(-79.35 -473.1)"/><path fill-rule="evenodd" fill="#999" d="m329 1262.2-7.05-121.55 12.95-.8 7.55 129.8.1 1.05 6.85 119.1v.1l7.8 133.75-13 .8L329 1262.2l13.45 7.45-13.45-7.45" transform="translate(-79.35 -473.1)"/><path fill-rule="evenodd" fill="url(#f)" d="M334.9 1139.85q296.55-18.25 624.9-66.35l13-1.85q62.5-9.25 126.2-19.6-2.25 53.3 15.75 126.9l-7.2 1.25h-.2l5.45 165.5 2.9 90.5q-63.7 10.3-126.2 19.6l-13 1.85q-325.3 47.65-619.3 66l-7.8-133.75v-.1l-6.85-119.1-.1-1.05-7.55-129.8m723.05 48.35 49.4-8-49.4 8-12.9 2.1q-77.95 12.35-153.9 22.95l-8.1 1.2-2.45.35h-.35l-16.95 2.3-7.4 1.05q-64.45 8.7-127.35 16.1l-11 1.3-10.55 1.25-10.1 1.15q-158.55 18.1-307.8 28.1.05 25 1 49.75l.7 14.25q1.6 31.35 4.65 62.3 1.9 18.85 4.3 37.55l2.2 15.9.6 3.7.45 3.75 1.5 9.7q176.55-12.3 364.2-34.9l11.9-1.5 6.75-.8 6.25-.8 47.9-6.15 14.65-2q59.6-7.8 120.35-16.7l13-1.85 61.7-9.25 13-2 .1-10.65.1-9.3q.2-20.9 0-41.4l-.1-8.25-.45-20.4q-.55-21.05-1.5-41.65-1.6-34.15-4.4-67.15m-653 277.65-.45-2.9.45 2.9m-58.9-197.15 43.05-2.65-43.05 2.65m516.55-54.25.7 2.65-.7-2.65" transform="translate(-79.35 -473.1)"/><path fill-rule="evenodd" fill="url(#g)" d="M111.75 979.9q88.4 95.35 210.2 160.75L329 1262.2q-28.1-15.8-54.4-33.25 26.3 17.45 54.4 33.25l15.2 262.25-5.55.35q-121.8-65.45-245.45-166.35-14.75-66.35-13.8-74.65 1-8.4.95-27.4l-.1-20.4-.15-10.3q-.55-45 31.65-245.8m29.15 137.2-3.15-3.35-2.45-2.55-.2 2.55q-2.75 28.05-4.55 53-3.95 56.7-2.9 97.45l.7 16.7q1.15 19.1 3.6 34.1l2.45 20.75.8.7q66.1 59.55 147.85 105.2l.15-14.75v-.1q.2-23.45-.15-46.3l-.3-16.1-.15-4.3-.8-24.95q-.9-23.35-2.3-46.15-1.95-30.55-4.9-60.05-74.2-49.35-133.7-111.85" transform="translate(-79.35 -473.1)"/><path stroke-width=".05" stroke-opacity=".302" stroke-linejoin="round" stroke-linecap="round" stroke="#000" fill="none" d="M255.55 666.75q296.55-18.25 624.9-66.35l13-1.85q62.5-9.25 126.2-19.6 4.7-12.05 0-24.1-131.4-64.35-189.05-134.9l-.95-1.05-1.15-.35q-6.2-1.9-12.05-4.75H798.8l-4.65.7Q394.7 472.95 41.7 495.45l-9.3 11.35q88.4 95.35 210.2 160.75l12.95-.8m-11.6-17.3 7.9-.45Q130.1 583.6 62 512.25l-3.6-3.8M61.55 644l-3.15-3.35-2.45-2.55-.2 2.55q-2.75 28.05-4.55 53-3.95 56.7-2.9 97.45l.7 16.7q1.15 19.1 3.6 34.1l2.45 20.75.8.7q66.1 59.55 147.85 105.2l.15-14.75-.15-.1q-78.75-44-143.1-100.8l-1.4-1.15q-2.65-18.45-3.8-40.7-.5-8.05-.7-16.6-1.1-41.35 2.3-94.4 1.7-26.55 4.55-56.05 59.5 62.5 133.7 111.85 26.3 17.45 54.4 33.25l13.45 7.45.1 1.05m6.85 119.1v.1m7.8 133.75q294-18.35 619.3-66l13-1.85q62.5-9.3 126.2-19.6l-2.9-90.5-5.45-165.5-49.4 8q2.8 33 4.4 67.15.95 20.6 1.5 41.65l.45 20.4.1 8.25q.2 20.5 0 41.4l-.1 9.3-.1 10.65-13 2-61.7 9.25-13 1.85q-60.75 8.9-120.35 16.7l-14.65 2-47.9 6.15-6.25.8-6.75.8-11.9 1.5q-187.65 22.6-364.2 34.9l.45 2.9M200.15 815.9q1.4 22.8 2.3 46.15l.8 24.95.15 4.3.3 16.1q.35 22.85.15 46.3v.1m-3.7-137.9q-1.95-30.55-4.9-60.05M57 700.05q34.85 38.45 77.5 72.35 35.45 28.3 65.65 43.5M55.4 811.05q29.4 15.4 86.05 46.25 35.65 19.35 61.95 34m-.95-29.25Q161.7 850.4 141 840.6l-86.3-46.15m210.15 256.9-5.55.35Q137.5 986.25 13.85 885.35-.9 819 .05 810.7q1-8.4.95-27.4l-.1-20.4-.15-10.3q-.55-45 31.65-245.8m277.35 286.15-43.05 2.65m44.05 47.1.7 14.25q36.95 6.75 65.65 9.4 58.7 5.8 155.4 5.8l151.25 3.7h3.05q-1-17.4-2.45-34.45l-.15-1.25-.8-.25m-30.05-16.1h-.2l-207.6 10.3q-93.4 4.15-134.8 8.6-.95-24.75-1-49.75 149.25-10 307.8-28.1l10.1-1.15 10.55-1.25 11-1.3q62.9-7.4 127.35-16.1l7.4-1.05-.7-2.65M316.1 919.25q1.9 18.85 4.3 37.55l2.2 15.9.6 3.7.45 3.75Q500.9 967.5 689.2 944.5V943l-.2-15.2-.15-6q-75.15 2.3-173.05 2.3-67.5 0-157-3.25l-42.7-1.6q-3.05-30.95-4.65-62.3m12.2 123.2 1.5 9.7m-47.3 60.7-13 .8m754.8-472.4q-2.25 53.3 15.75 126.9l-7.2 1.25h-.2M794.15 414.5v-.7h4.65M62 512.25q364.2-22.2 751.9-87.1l.55.7q57.5 71.35 190.35 136.4Q616.25 627.3 251.85 649m532.1 95 16.95-2.3h.35l2.45-.35 8.1-1.2q75.95-10.6 153.9-22.95l12.9-2.1m-177.35 26.6q11.3 32-13.2 61.35l-1.65 1.85q-4.1 4.55-8.7 8.45 109.15-11.7 192.4-28.4-1.55-34.5-4.4-67.75M702.45 833.9l8 1.15q16.45 1.45 32.9-3.5 7.45-2.2 14.85-5.65l.85-.35q6.2-3.05 11.8-7l6.85-5.2m-4.15 60.75-2.7-55.55m-132.65-56.1q1.1 10.4 4.25 20.85 8.05 26.2 29.25 39.2 5.3 3.25 11.35 5.7l5.45 1.95 8.7 2.55 4.4 1.05.85.15m-.85.1q2.85 25.2 3.85 41.75l1.5 31.65.45 13.8.25 6.6.25 13.6m.1.8 6.15-.8 47.65-6.15 14.5-1.85-.7-15.55-2.05-43.75q98.75-4.1 184.4-17.25l14.15-2.2-.15-10.35-.45-20.4q-.5-19.7-1.4-38.95M701.6 834v-.25m-14.8 42.1 1.5 31.55.55 14.4M708 942.2h-.1l-6.75.8-11.7 1.5h-.25m18.7-2.3v-.8m67.7-23.55 10.7-.7q98.9-6.85 185.8-21v-41.5m0 41.5-.15 7.1v1.95l-71.1 10.7-12.95 1.85-111.6 15.65m257.15-60.8 2.9-.45"/><path fill-rule="evenodd" fill="#a46b02" d="M596.1 473.1h11.8q-2.55 21.3-1.85 46.6l.25 9.05q3.7 57.75 39.9 121.1 39.2 67.95 81.85 84.65h.95v-.25q-3.7-13-12.75-28.3l-17.4-28.75q12.3 3 48.7 10.65 30.85 7.2 46.65 14.65l4.4 2.3q20.85 11.6 59.15 37.8 17.85.5 34.8-28.3 2.3-5.1 4.6-9.25l1.2 5.55q-7.7 16.7-21.15 35.25l-1.85 2.8q-34.1 45.45-52.65 44.55-19.45-1.65-30.6-16.95l-8.15-.95q-30.6-4.6-60.3-15.05-43.15-15.1-83.95-42.7-1.4-.7-1.85-1.15-.7-.45-.95-1.15l-1.85-2.8q-47.8-80.25-48.45-161.65-.25-11.15.45-22.05 1.6-27.85 9.05-55.65m196 303.15q2.8.7-6.05-6.95l-.7-.7q-14.15-12.55-26.9-12.55l-4.4.95 4.4-.95q12.75 0 26.9 12.55l.7.7q8.85 7.65 6.05 6.95" transform="translate(-79.35 -473.1)"/><path fill-rule="evenodd" fill="#f7a202" d="m794.2 702.5 4.6-1.2-.2 3.5-4.4-2.3" transform="translate(-79.35 -473.1)"/><path stroke-width=".05" stroke-linejoin="round" stroke-linecap="round" stroke="#000" fill="none" d="m712.75 303.15-8.15-.95q-30.6-4.6-60.3-15.05-43.15-15.1-83.95-42.7-1.4-.7-1.85-1.15-.7-.45-.95-1.15l-1.85-2.8Q507.9 159.1 507.25 77.7q-.25-11.15.45-22.05Q509.3 27.8 516.75 0"/><path stroke-width=".05" stroke-linejoin="round" stroke-linecap="round" stroke="#3f0" fill="none" d="M318.2 280.2q-.25 1.85-1.85 6.95 2.55-1.65 4.6-2.35"/><path stroke-width=".05" stroke-linejoin="round" stroke-linecap="round" stroke="#000" fill="none" d="M796 275.55Q761.9 321 743.35 320.1q-19.45-1.65-30.6-16.95M674.7 283.9l4.4-.95q12.75 0 26.9 12.55l.7.7q8.85 7.65 6.05 6.95L674.7 283.9z"/></g><g id="j"><path fill-rule="evenodd" fill="#a96e01" d="m54.15 62.5 1.35 7.1.5 3.5 1.1 10.45-.9-1.7-1.15 1.2q-.25.35 1.25 4.35 1.45 3.9.1 6.6l-2-1q-3.5-2.85-8.1-8.7-4.3-5.45-6.1-9.05-5.35-15.65-6.15-16.1l-1.9-.4 2 10.85q.9 3.45 2.95 7.8l3.35 7.25-.35.1-1.35-.7Q23.1 67.95 19.2 60.45q-4.15-7.85-5.6-24.35l3.4 4.6 14.3 17.05.1-.8q-.5-4.2-3.35-10.8Q25 39.7 24.4 37.9l1.05-.25 3.2 5.85q3.25 6.25 5.25 8.55 1.85 2 7.65 6.7 4.35 3.55 4.8 5-.35-1.25-.75-4.15-.35-2.7-1.9-5.3-5.1-8.65-5.1-9.1l2.55-.05L48.6 56.3l5.55 6.2" transform="translate(-2.7 .3)"/><path fill-rule="evenodd" fill="#c78201" d="m3.8 3.15 1.3 1.6q2.95 3.6 5.9 6.3l16.95 15.1q13.95 12.45 21.3 23.4 2.9 4.35 4.9 12.95l-5.55-6.2-7.45-11.15-2.55.05q0 .45 5.1 9.1 1.55 2.6 1.9 5.3.4 2.9.75 4.15-.45-1.45-4.8-5-5.8-4.7-7.65-6.7-2-2.3-5.25-8.55l-3.2-5.85-1.05.25q.6 1.8 3.65 8.25 2.85 6.6 3.35 10.8l-.1.8L17 40.7l-3.4-4.6q-2.15-3.35-2.6-5.5l.35 4.95q.4 5.55-.25 11.2-1.15 9.4 7.2 20.3l-3.8-1.65q-2.95-3.05-5.3-6.25Q7.7 52.3 7.55 44.5l.95-10.05q.15-1.4-.6-13.1Q7.1 9.6 4.65 4.85l-.85-1.7m7.1 24.4v1.3l.3-.85-.3-.45m14.55 10.1.25-.05-.3-.05.05.1" transform="translate(-2.7 .3)"/><path fill-rule="evenodd" fill="#845601" d="m57.1 83.55.3 4.55.55 12.35q.05 5.1-4.4 5.75l-4.9-1.15q-12.15-3.8-23.3-16.8Q15.5 76.8 11.85 67.9l-.9-2.4Q9.9 62.45 9.2 59.15q2.35 3.2 5.3 6.25l3.8 1.65q-8.35-10.9-7.2-20.3.65-5.65.25-11.2L11 30.6q.45 2.15 2.6 5.5 1.45 16.5 5.6 24.35 3.9 7.5 19.55 23.6l1.35.7.35-.1-3.35-7.25q-2.05-4.35-2.95-7.8l-2-10.85 1.9.4q.8.45 6.15 16.1 1.8 3.6 6.1 9.05 4.6 5.85 8.1 8.7l2 1q1.35-2.7-.1-6.6-1.5-4-1.25-4.35l1.15-1.2.9 1.7m-38.8-16.5.1.05-.1-.05" transform="translate(-2.7 .3)"/><path fill-rule="evenodd" fill="#cac688" d="M3.8 3.15Q2.3.05 2.85.2q.6.1.6-.5L7.8 4.75q2.95 3.6 5.9 6.3l16.95 15.1q13.95 12.45 21.3 23.4 4 6 6.25 20.05l.5 3.5q.85 6.7 1.4 15l.55 12.35q.05 6.5-7.1 5.75 4.45-.65 4.4-5.75L57.4 88.1l-.3-4.55L56 73.1l-.5-3.5-1.35-7.1q-2-8.6-4.9-12.95-7.35-10.95-21.3-23.4L11 11.05q-2.95-2.7-5.9-6.3l-1.3-1.6" transform="translate(-2.7 .3)"/><path stroke-width=".05" stroke-opacity=".302" stroke-linejoin="round" stroke-linecap="round" stroke="#000" fill="none" d="M50.85 106.5q7.15.75 7.1-5.75L57.4 88.4q-.55-8.3-1.4-15l-.5-3.5q-2.25-14.05-6.25-20.05-7.35-10.95-21.3-23.4L11 11.35q-2.95-2.7-5.9-6.3L.75 0q0 .6-.6.5-.55-.15.95 2.95M50.85 106.5l-4.9-1.15q-12.15-3.8-23.3-16.8Q12.8 77.1 9.15 68.2l-.9-2.4Q7.2 62.75 6.5 59.45 5 52.6 4.85 44.8l.95-10.05q.15-1.4-.6-13.1Q4.4 9.9 1.95 5.15l-.85-1.7"/></g><g id="c"><path fill-rule="evenodd" fill="#f7a202" d="M400.55 701.8h-.7q-15.1-24.85-30.6-39.7l4.4 7.45q22.95 39.2 31.55 85.6-28.8-41.75-64.25-68.45-10.45-7.9-20.9-15.05 33.2 37.8 56.15 87.2 10.65 23.2-5.6 6.75-16.45-16.5-90.9-126.45 40.8 81.45 8.1 46.85-32.9-35-57.5-118.3-24.85-83.5-.95 26.25 9.3 56.35 29.25 128.95-16-5.8-42.25-61.95-26.65-56.1-31.05-88.15-4.65-31.75-33.2-95.8-22.5-50.8-56.1-89.05l-8.6-9.5-.25-4.9q39.45 23.9 74.95 64.5 35.7 40.85 73.05 75.4l72.85 68.4q34.8 32.95 64.95 75.65 14.85 21.1 27.6 44.3" transform="translate(-87.15 -175.5)"/><path fill-rule="evenodd" fill="#d28902" d="m87.4 378.45 8.6 9.5q33.6 38.25 56.1 89.05 28.55 64.05 33.2 95.8 4.4 32.05 31.05 88.15 26.25 56.15 42.25 61.95-19.95-72.6-29.25-128.95-23.9-109.75.95-26.25Q254.9 651 287.8 686q32.7 34.6-8.1-46.85 74.45 109.95 90.9 126.45 16.25 16.45 5.6-6.75-22.95-49.4-56.15-87.2 10.45 7.15 20.9 15.05 35.45 26.7 64.25 68.45-8.6-46.4-31.55-85.6l-4.4-7.45q15.5 14.85 30.6 39.7h.7q2.8 5.55 5.1 11.1 2.3 5.15 4.2 10.45l1.85 5.1 2.3 8.35.95 3.7q2.05 9.55 3.7 21.15 3.7 27.6-9.5 44.75l.45-2.55q2.3-19 2.1-35.5l-2.1-4.4-.45 8.8q-1.4 28.8-11.15 32.5-27.15-13-41.3-18.1-10.45-3.95-31.75-2.55l-28.8 2.1 17.4 20.4q9.3 10.9 14.65 20.85l-.5.25q-26.65-3.7-66.8-52.2-41.05-49.85-61.45-104.85-17.2-45.9-22.95-82.1-5.8-35.95-16.05-63.55h-.2l-.95-3q-20.65-70.05-71.45-136.4l-.45-7.65m319.85 356.3q3.95 15.05 4.45 33.6-.5-18.55-4.45-33.6m-7.4-18.35q3.25 5.1 4.4 7.9l1.4 4.15.25.95 1.15 4.15-1.15-4.15-.25-.95-1.4-4.15q-1.15-2.8-4.4-7.9" transform="translate(-87.15 -175.5)"/><path fill-rule="evenodd" fill="#a46b02" d="M160.25 525.5h.2q10.25 27.6 16.05 63.55 5.75 36.2 22.95 82.1 20.4 55 61.45 104.85 40.15 48.5 66.8 52.2l.5-.25q-5.35-9.95-14.65-20.85l-17.4-20.4 28.8-2.1q21.3-1.4 31.75 2.55 14.15 5.1 41.3 18.1 9.75-3.7 11.15-32.5l.45-8.8 2.1 4.4q.2 16.5-2.1 35.5l-.45 2.55q-6.05 45.95-16.25 49.2-10.7 3-20.4-7.2-43.85 9.75-95.1-13.95l-1.2-.7-.9-.9-1.85-2.1Q188.05 731 171.85 585.8l-.5-5.35q-3.45-27.8-11.1-54.95M372.5 848.4q1.85 0-5.6-4.65-10.65-7.2-17.6-4.65v.25l-2.1 1.6 2.1-1.6v-.25q6.95-2.55 17.6 4.65 7.45 4.65 5.6 4.65" transform="translate(-87.15 -175.5)"/><path stroke-width=".05" stroke-opacity=".302" stroke-linejoin="round" stroke-linecap="round" stroke="#000" fill="none" d="m.25 202.95.45 7.65Q51.5 276.95 72.15 347l.95 3m240.3 176.3q2.8 5.55 5.1 11.1 2.3 5.15 4.2 10.45l1.85 5.1 2.3 8.35.95 3.7q2.05 9.55 3.7 21.15 3.7 27.6-9.5 44.75m-36.65 42q-43.85 9.75-95.1-13.95l-1.2-.7-.9-.9-1.85-2.1Q100.9 555.5 84.7 410.3l-.5-5.35q-3.45-27.8-11.1-54.95M.25 202.95l-.25-4.9q39.45 23.9 74.95 64.5 35.7 40.85 73.05 75.4l72.85 68.4q34.8 32.95 64.95 75.65 14.85 21.1 27.6 44.3"/><path stroke-width=".05" stroke-opacity=".302" stroke-linejoin="round" stroke-linecap="round" stroke="#000" fill="none" d="M324.55 592.85q-.5-18.55-4.45-33.6m1.9 71.65q-6.05 45.95-16.25 49.2-10.7 3-20.4-7.2m34.55-114.85-1.15-4.15-.25-.95-1.4-4.15q-1.15-2.8-4.4-7.9m9.3 90 .45-2.55q2.3-19 2.1-35.5m-64.5 72.6 2.1-1.6v-.25q6.95-2.55 17.6 4.65 7.45 4.65 5.6 4.65"/><path fill-rule="evenodd" fill="#d28902" d="M772.4 654.45q-18.35-25.25-31.55-47.05l-6.75-11.6q-4.85-29.95-4.65-30.65 2.35-31.75 2.35-39.9-3.75-57.05-3.5-57.3 4.2-5.75 8.1-8.55.95 1.4 5.8 43.35 1.4 12.55 7 21.35 5.55 9.75 7.4 14.4-2.1-5.8 3-30.85 6.75-33.2 7.65-45 .7-13.45-4.4-42.25-4.15-24.1-4.15-27.6 2.75-2.55 3.95-3 2.55 7.2 8.55 35.95 6.75 28.55 15.35 42l2.3 1.6q2.8-66.8 3.45-97.15 0-14.15-.65-24.6 35 51.5 40.8 87.9 6.05 34.55-3.7 133.85-1.4 3.25-2.55 6.7l-1.4.7-6.95-31.75q-4.2-19.25-9.5-32.25-3.05-6.95-19.75-37.35-1.15 2.3-4.85 7.65-1.65 3.95 19.5 66.55 3 16.5 2.75 46.4-.45 32.5-4.4 52.45l-3.7 9.75q-10.7-2.8-15.55-18.8-4.85-16.5-6.5-16.7-4.65 1.15-6.5.7 1.85 5.3 3.05 31.05" transform="translate(-87.15 -175.5)"/><path fill-rule="evenodd" fill="#f7a202" d="M734.1 595.8q-26.9-47.35-28.75-77.95-3.5-56.15 8.1-115.75 20.2-103.45 23.65-124.1 2.1-14.15.5-37.1-2.55-22.05-2.55-26.9 14.35 37.55 47.75 80.7l2.1 2.8q14.15 17.85 45.45 52.85 18.1 22.5 29.95 47.1.45 16.95-1.4 35.75l-7.65 17.6-.25.25q-.2-59.6-25.95-82.1-15.8-13.7-27.6-30.85l-10.9-15.1q3.7 7.65 5.1 24.6.65 10.45.65 24.6-.65 30.35-3.45 97.15l-2.3-1.6q-8.6-13.45-15.35-42-6-28.75-8.55-35.95-1.2.45-3.95 3 0 3.5 4.15 27.6 5.1 28.8 4.4 42.25-.9 11.8-7.65 45-5.1 25.05-3 30.85-1.85-4.65-7.4-14.4-5.6-8.8-7-21.35-4.85-41.95-5.8-43.35-3.9 2.8-8.1 8.55-.25.25 3.5 57.3 0 8.15-2.35 39.9-.2.7 4.65 30.65m24.6-203 .2-.45-.9 1.15.7-.7m20.85-78.6q0 1.15.25 2.3 1.6.25 3 1.4-2.05-2.8-3.25-3.7" transform="translate(-87.15 -175.5)"/><path fill-rule="evenodd" fill="#a46b02" d="M860.3 397.45q5.55 11.6 9.75 23.9 1.6 4.4 3 9.75Q883 468.9 880 535q-3.45 74.95-31.75 127.6-28.1 52.4-48.05 28.5-15.05-19.25-27.8-36.65-1.2-25.75-3.05-31.05 1.85.45 6.5-.7 1.65.2 6.5 16.7 4.85 16 15.55 18.8l3.7-9.75q3.95-19.95 4.4-52.45.25-29.9-2.75-46.4-21.15-62.6-19.5-66.55 3.7-5.35 4.85-7.65 16.7 30.4 19.75 37.35 5.3 13 9.5 32.25l6.95 31.75 1.4-.7q1.15-3.45 2.55-6.7 9.75-99.3 3.7-133.85-5.8-36.4-40.8-87.9-1.4-16.95-5.1-24.6l10.9 15.1q11.8 17.15 27.6 30.85 25.75 22.5 25.95 82.1v.45q0-.45.25-.7l7.65-17.6q1.85-18.8 1.4-35.75" transform="translate(-87.15 -175.5)"/><path stroke-width=".05" stroke-opacity=".302" stroke-linejoin="round" stroke-linecap="round" stroke="#000" fill="none" d="M646.95 420.3q-26.9-47.35-28.75-77.95-3.5-56.15 8.1-115.75 20.2-103.45 23.65-124.1 2.1-14.15.5-37.1-2.55-22.05-2.55-26.9 14.35 37.55 47.75 80.7l2.1 2.8q14.15 17.85 45.45 52.85 18.1 22.5 29.95 47.1 5.55 11.6 9.75 23.9 1.6 4.4 3 9.75 9.95 37.8 6.95 103.9-3.45 74.95-31.75 127.6-28.1 52.4-48.05 28.5-15.05-19.25-27.8-36.65-18.35-25.25-31.55-47.05l-6.75-11.6z"/><path fill-rule="evenodd" fill="#d28902" d="M346.75 341.1q8.55 9.05 20.85 20.15 26.2 23.7 84.65 73.8l-.45-3.95q-7.65-19.7-28.75-49.4-21.8-29.25-26.9-37.6 1.15-.7 4.4-1.85 3 2.8 21.8 26.45 22.25 28.05 34.1 38.05 10.45 8.55 42 27.8 23.65 14.65 27.6 21.15-3.25-5.6-8.85-19.05-5.1-12.75-15.05-24.35-33.65-38.5-34.35-40.6 4.2-1.85 11.15-1.6l47.1 49.15q6.5 5.8 29.7 24.35 10.65 20.2 22.25 47.1l6.7 16.25q7.2 17.6 14.65 38.05-5.1-5.6-6.75-8.35-.45 2.3-3.45 6.25-.5 2.1 11.35 20.2 11.35 17.85 8.8 31.5l-9.95-3.9q-19.05-11.6-46.85-37.15-25.75-23.65-38.3-39.9-43.85-71.65-48-73.3-6.25 0-8.8-.9 18.3 41.75 22.95 50.55 8.35 15.8 22.95 35.5l24.15 32.7q-.7.45-1.4.7-3.25-1.4-6.75-2.55-89.3-68.65-116.2-102.3-28.3-35-56.35-112.95" transform="translate(-87.15 -175.5)"/><path fill-rule="evenodd" fill="#f7a202" d="M346.75 341.1q-13.7-14.85-18.55-24.85l7.85 23.45q9.3 26.2 13.7 53.35 7.2 45.25 58 92.8v.2l-18.8-6.25q-16.95-12.75-31.3-26.65Q342.1 421.1 331.2 384q-15.3-60.55-23.9-89.75l-1.6-4.4q-12.1-39-25.3-70.05 14.15 14.35 24.6 21.55 19.45 12.75 117.1 73.55 56.15 35.25 102.55 83.5 14.85 15.55 31.1 45.2-23.2-18.55-29.7-24.35l-47.1-49.15q-6.95-.25-11.15 1.6.7 2.1 34.35 40.6 9.95 11.6 15.05 24.35 5.6 13.45 8.85 19.05-3.95-6.5-27.6-21.15-31.55-19.25-42-27.8-11.85-10-34.1-38.05-18.8-23.65-21.8-26.45-3.25 1.15-4.4 1.85 5.1 8.35 26.9 37.6 21.1 29.7 28.75 49.4l.45 3.95q-58.45-50.1-84.65-73.8-12.3-11.1-20.85-20.15m53.8 1.15.95-.25h-1.2l.25.25M325.85 304l-2.1-2.1 1.85 6.25q-.45-2.3.25-4.15" transform="translate(-87.15 -175.5)"/><path fill-rule="evenodd" fill="#a46b02" d="M407.75 485.85q-50.8-47.55-58-92.8-4.4-27.15-13.7-53.35l-7.85-23.45q4.85 10 18.55 24.85 28.05 77.95 56.35 112.95 26.9 33.65 116.2 102.3 3.5 1.15 6.75 2.55.7-.25 1.4-.7l-24.15-32.7q-14.6-19.7-22.95-35.5-4.65-8.8-22.95-50.55 2.55.9 8.8.9 4.15 1.65 48 73.3 12.55 16.25 38.3 39.9 27.8 25.55 46.85 37.15l9.95 3.9q2.55-13.65-8.8-31.5-11.85-18.1-11.35-20.2 3-3.95 3.45-6.25 1.65 2.75 6.75 8.35l11.1 32.7q9.3 27.15 18.6 58.2 2.3 7.9 1.85 13.95-11.6 7.15-41.05 1.15-57.8-12.05-123.65-67.95-58-49.2-85.6-89.8l-6.95-10.9q-8.6-14.15-16-29.2 14.35 13.9 31.3 26.65l18.8 6.25h.45l-.45-.2" transform="translate(-87.15 -175.5)"/><path fill-rule="evenodd" fill="#faf5a9" d="M555.75 443.6q-16.25-29.65-31.1-45.2-46.4-48.25-102.55-83.5-97.65-60.8-117.1-73.55-10.45-7.2-24.6-21.55-10.45-24.6-21.6-44.3 4.2 4.15 21.85 23.85 18.75 19.95 31.75 29 19.5 12.75 117.15 73.55 56.15 35.25 102.5 83.5 25.3 26.45 53.35 92.3l6.75 16.25q12.5 31.3 25.75 70.75 9.25 27.15 18.55 58.2 5.55 19.75-5.55 26.95.45-6.05-1.85-13.95-9.3-31.05-18.6-58.2l-11.1-32.7q-7.45-20.45-14.65-38.05L578 490.7q-11.6-26.9-22.25-47.1" transform="translate(-87.15 -175.5)"/><path stroke-width=".05" stroke-opacity=".302" stroke-linejoin="round" stroke-linecap="round" stroke="#000" fill="none" d="M193.25 44.3q13.2 31.05 25.3 70.05l1.6 4.4q8.6 29.2 23.9 89.75 10.9 37.1 26.45 69.15m273.25 196.7q11.1-7.2 5.55-26.95-9.3-31.05-18.55-58.2-13.25-39.45-25.75-70.75l-6.75-16.25q-28.05-65.85-53.35-92.3-46.35-48.25-102.5-83.5-97.65-60.8-117.15-73.55-13-9.05-31.75-29Q175.85 4.15 171.65 0q11.15 19.7 21.6 44.3m350.5 430.05q-11.6 7.15-41.05 1.15-57.8-12.05-123.65-67.95-58-49.2-85.6-89.8l-6.95-10.9q-8.6-14.15-16-29.2"/></g><g id="d"><path fill-rule="evenodd" fill="#d28902" d="m424 767.65 9.5 13.25q17.85 25.75 37.8 58.9-24.85-13-29.45-17.65 0 2.35-2.35 7.45 0 2.1 14.65 15.3 14.35 13 14.35 27.15h-10.45q-20.4-4.2-51.95-18.55-29.2-13.25-44.3-24.35-55.45-53.35-59.85-53.35-6 2.3-8.55 2.3 25.25 33.85 31.3 40.6 11.15 12.3 28.75 25.95l29.25 22.75-1.15 1.15h-7q-98.8-33.15-131.05-55.9-33.6-23.4-74.9-88.6 9.95 5.55 23.65 11.85 29.7 13.2 95.35 39.9l-1.2-3.5q-10.9-16.25-36.85-37.35-26.2-20.15-32.7-26.45.9-1.15 3.95-3.25 3.45 1.4 25.75 17.4 26.65 19.05 39.85 24.15 11.85 4.4 45.7 11.35 25.55 5.35 30.65 10.45-4.2-4.4-12.05-15.55-7.2-10.45-19.05-17.85-39.45-24.85-40.6-26.7 3.7-3.25 10.45-5.8.25 0 54.5 30.15 8.15 3.75 39.45 15.1.9.45 28.55 19.7" transform="translate(-53.3 -596)"/><path fill-rule="evenodd" fill="#f7a202" d="M199.65 828.65Q178.8 803.6 161.4 771.6q-26-53.1-39.65-78.15l-2.1-3.95Q86 630.35 53.3 596l6.95 3.95q42.95 36.9 145.2 57.3 3.5-.25 12.3 1.4 14.4 2.8 42.7 10.65l3.45.95q35.05 5.1 82.6 29.2 13.7 7 26 12.55 6.25 3.45 12.5 9.5l8.8 8.8q14.15 15.55 30.2 37.35-27.65-19.25-28.55-19.7-31.3-11.35-39.45-15.1-54.25-30.15-54.5-30.15-6.75 2.55-10.45 5.8 1.15 1.85 40.6 26.7 11.85 7.4 19.05 17.85 7.85 11.15 12.05 15.55-5.1-5.1-30.65-10.45-33.85-6.95-45.7-11.35-13.2-5.1-39.85-24.15-22.3-16-25.75-17.4-3.05 2.1-3.95 3.25 6.5 6.3 32.7 26.45 25.95 21.1 36.85 37.35l1.2 3.5q-65.65-26.7-95.35-39.9-13.7-6.3-23.65-11.85-16-9.25-22.5-17.15l11.8 19.7q13.7 22.05 23 46.85 15.3 41.3 73.05 68.45v.2l-19.25.95q-18.55-6.25-35.05-14.4m21.15-123.4q.45-.45.9-.7l-1.4.5.5.2m-81.65-10.65 3 5.35q-.95-2.1-.7-4.2l-2.3-1.15" transform="translate(-53.3 -596)"/><path fill-rule="evenodd" fill="#a46b02" d="M471.3 839.8q13.9 22.95 28.55 49.65 18.3 34.8-39.7 44.75-58.2 10-131.95-19.7-64.95-26.45-99.05-55.45l-8.85-7.9q-10.65-10.4-20.65-22.5 16.5 8.15 35.05 14.4l19.25-.95.45-.2h-.45q-57.75-27.15-73.05-68.45-9.3-24.8-23-46.85l-11.8-19.7q6.5 7.9 22.5 17.15 41.3 65.2 74.9 88.6 32.25 22.75 131.05 55.9h7l1.15-1.15-29.25-22.75Q335.85 831 324.7 818.7q-6.05-6.75-31.3-40.6 2.55 0 8.55-2.3 4.4 0 59.85 53.35 15.1 11.1 44.3 24.35 31.55 14.35 51.95 18.55h10.45q0-14.15-14.35-27.15-14.65-13.2-14.65-15.3 2.35-5.1 2.35-7.45 4.6 4.65 29.45 17.65" transform="translate(-53.3 -596)"/><path fill-rule="evenodd" fill="#faf5a9" d="M60.25 599.95Q67 603.9 78.8 611.1q21.85 12.5 36 16.25 21.1 5.3 126.4 27.8 60.75 13.25 114.35 42.7 17.4 9.75 38.25 32.45l-8.8-8.8q-6.25-6.05-12.5-9.5-12.3-5.55-26-12.55-47.55-24.1-82.6-29.2l-3.45-.95q-28.3-7.85-42.7-10.65-8.8-1.65-12.3-1.4-102.25-20.4-145.2-57.3" transform="translate(-53.3 -596)"/><path stroke-width=".05" stroke-opacity=".302" stroke-linejoin="round" stroke-linecap="round" stroke="#000" fill="none" d="m370.7 171.65 9.5 13.25q17.85 25.75 37.8 58.9 13.9 22.95 28.55 49.65 18.3 34.8-39.7 44.75-58.2 10-131.95-19.7-64.95-26.45-99.05-55.45l-8.85-7.9q-10.65-10.4-20.65-22.5-20.85-25.05-38.25-57.05-26-53.1-39.65-78.15l-2.1-3.95Q32.7 34.35 0 0l6.95 3.95Q13.7 7.9 25.5 15.1q21.85 12.5 36 16.25 21.1 5.3 126.4 27.8 60.75 13.25 114.35 42.7 17.4 9.75 38.25 32.45 14.15 15.55 30.2 37.35z"/></g><g id="e"><path fill-rule="evenodd" fill="#efdab4" d="m69.3 1113.5 8.35-18.1h.25l.45.25h.25q10.65-8.1 50.1-28.55 49.85-26.2 66.1-26.2 9.05 0 14.4 8.35 3.7 6.05 3.7 10.7 0 27.8-69.6 82.1-25.05-17.65-37.1-19.5-19.5-7.9-36.9-9.05" transform="translate(.95 1.15)"/><path fill-rule="evenodd" fill="#dcae5a" d="M274.6 979q7.9-2.55 15.3-4.45 50.55-12.95 71.2-6.25 5.6 1.85 9.05 5.35 19.95 19.7 12.05 20.85l12.8 33.4 4.6 89.8q-29.45 10.65-71.65 6.25h-3.25q-44.3-6.25-75.85-30.4-19.25 6.95-45.25 37.35-9.25 70.75-30.85 120.85 44.1 62.4 39.2 133.4-15.75 2.75-24.35 11.35 7.65-1.6 13.25 16.95 0 8.35-11.6 12.75-16 4.65-24.6 8.1-71-2.55-112.25-21.35-33.9-26.9-47.8-53.55 8.8 6.5 22.75 15.55 25.95 20.4 47.3 20.4 22.5 0 77-26.9l.95-16.25q0-36.9-13.45-61.7-13.45-17.85-13.45-20.4 0-4.65 8.55-16.95 9.75-13.7 10-14.6-1.4-23 1.85-34.35 6.5-23.2 25.95-59.35 13.45-25.3 14.65-27.15.9-1.15 7.65-6.25 24.55-22.05 33.85-29.5l1.4-1.15v-5.55q1.6-1.85 5.55-1.85 1.85 0 29.45 9.95l10.9 3.95q10 0 19.05-19.5 8.35-18.1 8.35-33.4 0-15.75-9.3-27.8-11.35-15.1-19-27.6m-76.55 156.55 5.55-4.65-5.55 4.65m-16.45 269.3q-.25-2.55-.25-5.35 0-24.55 9.3-27.35-9.3 2.8-9.3 27.35 0 2.8.25 5.35 2.3-4.85 6-8.35-3.7 3.5-6 8.35.65 9.05 4.4 10.9-3.75-1.85-4.4-10.9m-8.85-153.1-3.45-4.85 3.45 4.85m76.1-158.2q-8.8-6.7-16.45-14.6 7.65 7.9 16.45 14.6" transform="translate(.95 1.15)"/><path fill-rule="evenodd" fill="#eacd99" d="M4.6 1359.4q-1.65-3.25-3-6.5l-1.4-3.25 5.1-27.85q22.25-113.2 61-201.55l3-6.75q17.4 1.15 36.9 9.05 12.05 1.85 37.1 19.5 69.6-54.3 69.6-82.1 0-4.65-3.7-10.7-5.35-8.35-14.4-8.35-16.25 0-66.1 26.2-39.45 20.45-50.1 28.55h-.25l-.45-.25h-.25l2.55-5.1q43.85-35.45 100.9-67.7 32.7-18.8 69.85-36.45L274.6 979q7.65 12.5 19 27.6 9.3 12.05 9.3 27.8 0 15.3-8.35 33.4-9.05 19.5-19.05 19.5l-10.9-3.95q-27.6-9.95-29.45-9.95-3.95 0-5.55 1.85v5.55l-1.4 1.15q-9.3 7.45-33.85 29.5-6.75 5.1-7.65 6.25-1.2 1.85-14.65 27.15-19.45 36.15-25.95 59.35-3.25 11.35-1.85 34.35-.25.9-10 14.6-8.55 12.3-8.55 16.95 0 2.55 13.45 20.4 13.45 24.8 13.45 61.7l-.95 16.25q-54.5 26.9-77 26.9-21.35 0-47.3-20.4-13.95-9.05-22.75-15.55" transform="translate(.95 1.15)"/><path stroke-width=".05" stroke-opacity=".302" stroke-linejoin="round" stroke-linecap="round" stroke="#000" fill="none" d="M275.55 980.15q7.9-2.55 15.3-4.45 50.55-12.95 71.2-6.25 5.6 1.85 9.05 5.35 19.95 19.7 12.05 20.85l12.8 33.4 4.6 89.8m-71.65 6.25h-3.25q-44.3-6.25-75.85-30.4-19.25 6.95-45.25 37.35-9.25 70.75-30.85 120.85 44.1 62.4 39.2 133.4-15.75 2.75-24.35 11.35 7.65-1.6 13.25 16.95 0 8.35-11.6 12.75-16 4.65-24.6 8.1-71-2.55-112.25-21.35-33.9-26.9-47.8-53.55-1.65-3.25-3-6.5l-1.4-3.25 5.1-27.85q22.25-113.2 61-201.55l3-6.75 8.35-18.1 2.55-5.1q43.85-35.45 100.9-67.7 32.7-18.8 69.85-36.45l23.65-7.15m-71 151.9-5.55 4.65m34.35-56.6q7.65 7.9 16.45 14.6m-79.55 153.35 3.45 4.85m14.85 144.75q-3.7 3.5-6 8.35.65 9.05 4.4 10.9m4.65-43.6q-9.3 2.8-9.3 27.35 0 2.8.25 5.35"/><path fill-rule="evenodd" fill="#f7a202" d="M579.6 148.55q37.85 36.9 66.6 84.7 21.55 36.15 46.15 70.95 10.65 15.3 22.25 30.4l7.45 9.95 7.9 10.25Q742 373.8 758 394q110.15 140.8 112.5 192.75.25 7.4-.25 22 1.15 25.05-23.4 51.5-21.35 22.5-51.05 32.25l-.25-16q-2.3-52.4-15.3-120.15-14.85-77-33.15-114.1L687.95 329.5Q664.5 285.2 618.1 217q-8.55-12.3-28.95-51.95-4.45-8.85-9.55-16.5" transform="translate(.95 1.15)"/><path fill-rule="evenodd" fill="#d28902" d="m729.95 354.8 73.3 96.7q38.7 52.2 67 113.45 13.7 29.9 23.9 61.9l.25.5 3 15.3 2.1 13.65.45 6.5.25 7.2v3.5q-.25 1.85-.25 4.65-.9 9.95-3 21.8l-.7 3.95q-3.95 20.4-16 33.4Q890 719.2 896 703.2l-1.6-6.5q-2.35 4.6-4.2 10.65-15.55 33.4-33.4 32.7-39.4-30.15-61-43.6v-3.95l-4.65 1.15q-16-8.55-47.05-16.7-37.15-9.05-49.45-12.5l19.05 33.4q9.75 17.4 13.9 32.45l.25.25h-.95q-43.6-19-86.3-97.65-42.4-78.85-46.6-150.55-3.7-58 6.05-98.8 9.25-40.15 7.15-73.1h-.2q-.45-2.05-.25-3.2 2.55-78.65-42.2-166.35l.9-1.85 1.4-2.55v-.25l1.65-2.75q5.3 6.25 10.4 13.7l.7 1.35q5.1 7.65 9.55 16.5 20.4 39.65 28.95 51.95 46.4 68.2 69.85 112.5l59.15 112.75q18.3 37.1 33.15 114.1 13 67.75 15.3 120.15l.25 16q29.7-9.75 51.05-32.25 24.55-26.45 23.4-51.5.5-14.6.25-22Q868.15 534.8 758 394q-16-20.2-28.05-39.2m167 345.15-.95 3.25.95-3.25" transform="translate(.95 1.15)"/><path fill-rule="evenodd" fill="#faf5a9" d="m729.95 354.8-7.9-10.25-7.45-9.95q-11.6-15.1-22.25-30.4-24.6-34.8-46.15-70.95-28.75-47.8-66.6-84.7l-.7-1.35q-5.1-7.45-10.4-13.7l1.85-4.2q47.75 41.55 82.8 97.9 22.05 35.7 46.85 70.05 14.4 20.2 29.95 39.9l83 106.7q39.9 52.4 69.15 113.65 14.35 30.4 25.3 62.85v.5l3.45 15.55 2.3 13.65.5 6.75q.45 5.1.2 10.9-.2 2.1 0 4.65-.9 11.8-3.25 26.2-5.8 31.75-31.05 46.15l-4.65 2.3 1.65-3.25 3.7-6.45q12.05-13 16-33.4l.7-3.95q2.1-11.85 3-21.8 0-2.8.25-4.65V670l-.25-7.2-.45-6.5-2.1-13.65-3-15.3-.25-.5q-10.2-32-23.9-61.9-28.3-61.25-67-113.45l-73.3-96.7m170 282.5q2.55 7.2 3.25 11.15l.7 5.1q-.25.7 0 1.6l.25 5.1q-.5 19.25-7.2 39.7 6.7-20.45 7.2-39.7l-.25-5.1q-.25-.9 0-1.6l-.7-5.1q-.7-3.95-3.25-11.15" transform="translate(.95 1.15)"/><path stroke-width=".05" stroke-opacity=".2" stroke-linejoin="round" stroke-linecap="round" stroke="#000" fill="none" d="M897.9 701.1q6.7-20.45 7.2-39.7l-.25-5.1q-.25-.9 0-1.6l-.7-5.1q-.7-3.95-3.25-11.15m-25.05 109.7 1.65-3.25 3.7-6.45q9.75-18.1 15.75-34.1l.95-3.25"/><path stroke-width=".05" stroke-opacity=".302" stroke-linejoin="round" stroke-linecap="round" stroke="#000" fill="none" d="M571.3 130.45q47.75 41.55 82.8 97.9 22.05 35.7 46.85 70.05 14.4 20.2 29.95 39.9l83 106.7q39.9 52.4 69.15 113.65 14.35 30.4 25.3 62.85v.5l3.45 15.55 2.3 13.65.5 6.75q.45 5.1.2 10.9-.2 2.1 0 4.65-.9 11.8-3.25 26.2-5.8 31.75-31.05 46.15l-4.65 2.3M607.95 311.6q-.45-2.05-.25-3.2 2.55-78.65-42.2-166.35l.9-1.85m1.4-2.8 3.5-6.95"/><path fill-rule="evenodd" fill="#efdab4" d="m422.35 924.25 2.8-2.35v-1.4q-5.1-51.25-30.85-105.3-13-116.2 113.65-140.55l4.65-.45q129.2-28.1 260.95-15.55 35 10.65 66.55 28.5-3.45 11.6-12.75 21.15-13 13.45-26 13.45l-.7-.25-1.85-1.85q-8.1-7.2-19.95-7.2-11.35 0-18.05 6.05-4.9 4.4-11.15 17.15-3 6.05-11.15 19.7-6.7 13.7-8.55 27.85-1.65 12.55-9.3 22.5-5.8 7.45-10.9 23.9-10.45 31.3-27.15 31.3-1.85 0-8.8-4.65-6.75-4.6-12.3-4.6-4.65 0-6.25 3.7-.95 2.3-2.35 8.1-3.7 11.85-23.85 11.85l-5.15-1.15q0-.25.25-.25-.25 0-.45.25l-2.35 1.35q-2.05 1.2-4.15 2.1-3.95 1.15-8.1 1.15-20.2 0-30.85-14.35-23.9-31.55-26.95-34.35-16.9-16.25-33.6-34.8-2.1-2.3-18.1-13.45-16.25-11.35-17.85-11.35-13.45 0-29.5 26.2-12.25 19.95-14.6 29.95-2.1 8.35-6 46.35-2.8 28.55 11.8 44.35 14.4 15.5 21.35 17.35 6.75 1.65 26.9 9.05 6.75 5.1 15.1 9.3 22 10.9 55.65 14.85l9.05.9 76.3 2.35q43.4 0 102.55-25.5 3.45 12.05 6.95 21.55 0 16.25-13.9 19l-1.85.5-24.4 5.55q-5.8 1.4-20.6 1.4-22.05 0-42.25-2.8l-22.25-3-42.7 2.3-13.65-1.6-14.65.45q-57.05 3.5-74.7 35.95-11.35 20.4-14.35 31.3-3.7 13.25-9.05 18.1-5.55 4.65-16.95 4.65-25.05 0-44.3-12.75-21.35-14.4-21.35-36.9 0-12.3 3.5-29.9 2.3-14.15 5.1-17.4l5.8-13.25 1.4-3.9q4.65-11.6 16-26 7.65-10 10.2-14.6m71-193.25-13.95 11.6 18.1 13.25q.45.2 1.15.7 51.3 32.9 92.1 89.75l10.45-5.8-8.6-16.25 1.85-3.95-23.4-31.3-53.85-54.5h-8.1l3.5 9.25L493.35 731m187.15 63.1 2.55 3.95-3.25 16.25q5.35 3 10.7 5.8 20.85-57.1 57.5-90 .7-.25.95-.7l12.3-13-15.3-11.6-13.7 12.75.7-9.25h-7.2l-32.95 54.5-12.3 31.3M425.6 927.7l-.45-5.8.45 5.8" transform="translate(.95 1.15)"/><path fill-rule="evenodd" fill="#dcae5a" d="M750.35 945.6q-59.15 25.5-102.55 25.5l-76.3-2.35-9.05-.9Q528.8 963.9 506.8 953q-8.35-4.2-15.1-9.3-20.15-7.4-26.9-9.05-6.95-1.85-21.35-17.35-14.6-15.8-11.8-44.35 3.9-38 6-46.35 2.35-10 14.6-29.95 16.05-26.2 29.5-26.2 1.6 0 17.85 11.35 16 11.15 18.1 13.45 16.7 18.55 33.6 34.8 3.05 2.8 26.95 34.35 10.65 14.35 30.85 14.35 4.15 0 8.1-1.15 2.1-.9 4.15-2.1l2.35-1.35h.2l5.15 1.15q20.15 0 23.85-11.85 1.4-5.8 2.35-8.1 1.6-3.7 6.25-3.7 5.55 0 12.3 4.6 6.95 4.65 8.8 4.65 16.7 0 27.15-31.3 5.1-16.45 10.9-23.9 7.65-9.95 9.3-22.5 1.85-14.15 8.55-27.85 8.15-13.65 11.15-19.7 6.25-12.75 11.15-17.15 6.7-6.05 18.05-6.05 11.85 0 19.95 7.2l1.85 1.85.5.45 2.1 2.55q5.3 7.2 16.7 26.25l12.75 16.7q6 7.4 5.8 16.9 4.15 10.9 8.55 18.1 2.35 5.35 2.35 19.5 0 40.8-15.8 64.95-8.35 12.75-23.2 24.8-16.9 13.45-42.2 25.75-9.05 4.4-17.85 8.15M591 886.65q-18.1-10.9-45.5-42.45l-14.15-15.55q-8.35-9.05-15.3-16-4.4 9.3-7.2 19.05-4.85 16.7-5.3 33.85-.5 27.15 15.05 48.25 16 22.05 42.7 20.4 27.6-3.95 37.55-28.5l.5-1.2q2.3-6.25 3.95-12.75-5.6-1.15-12.3-5.1m12.3 5.1q15.05 2.8 20.4-16.25l.2-1.35-.2 1.35q-5.35 19.05-20.4 16.25M469.45 787.4q12.05-8.35 46.6 25.25-34.55-33.6-46.6-25.25m200.85 76.55q2.8 4.15 5.6 7.15-2.8-3-5.6-7.15m7.65 9q5.1 4.2 10.45 4.45 5.55 0 12.05-7.65-6.5 7.65-12.05 7.65-5.35-.25-10.45-4.45m64.95-97.15q21.8-48.5 39-54.75l.45-.25 3.5-.9q5.1-.7 9.5 3-4.4-3.7-9.5-3l-3.5.9-.45.25q-17.2 6.25-39 54.75l-5.1 12.05q-5.8 13.45-11.6 29.45-9.75 26-18.1 40.85-3.9 7.15-7.65 11.6 4.45 9 11.15 15.75 10.9 10.9 27.85 14.85 27.8 6.25 44.75-14.85 17.15-21.55 9.75-48.95-7.4-26.2-28.3-45l-1.4-1.15q-9.95-9.05-21.35-14.6" transform="translate(.95 1.15)"/><path fill-rule="evenodd" fill="#f7a202" d="m493.35 731 19.25 12.75-3.5-9.25h8.1l53.85 54.5 23.4 31.3-1.85 3.95 8.6 16.25-10.45 5.8q-40.8-56.85-92.1-89.75-.7-.5-1.15-.7l-18.1-13.25 13.95-11.6m187.15 63.1 12.3-31.3 32.95-54.5h7.2l-.7 9.25 13.7-12.75 15.3 11.6-12.3 13q-.25.45-.95.7-36.65 32.9-57.5 90-5.35-2.8-10.7-5.8l3.25-16.25-2.55-3.95" transform="translate(.95 1.15)"/><path fill-rule="evenodd" fill="#a87a24" d="M531.35 828.65q-5.1 7.45-7.85 16.5-5.1 15.75-2.35 36.4 4.2 31.8 35.05 36.9 23.65 3.7 31.55-17.2 2.3-6.25 3.25-14.6 6.7 3.95 12.3 5.1-1.65 6.5-3.95 12.75l-.5 1.2q-9.95 24.55-37.55 28.5-26.7 1.65-42.7-20.4-15.55-21.1-15.05-48.25.45-17.15 5.3-33.85 2.8-9.75 7.2-19.05 6.95 6.95 15.3 16M742.9 775.8q11.4 5.55 21.35 14.6l1.4 1.15q20.9 18.8 28.3 45 7.4 27.4-9.75 48.95-16.95 21.1-44.75 14.85-16.95-3.95-27.85-14.85-6.7-6.75-11.15-15.75 3.75-4.45 7.65-11.6 6.3 10.65 15.1 16 12.55 7.65 30.4 3.7 19-3.95 21.55-24.85 3-26.4-13.9-47.05l-3-3.5q-8.15-8.55-19.05-14.6h-1.4l5.1-12.05" transform="translate(.95 1.15)"/><path fill-rule="evenodd" fill="#e5e5e5" d="M523.5 845.15q2.75-9.05 7.85-16.5l14.15 15.55q27.4 31.55 45.5 42.45-.95 8.35-3.25 14.6-10.2-5.8-25.3-19Q535.3 855.8 528.8 850l-5.3-4.85m184.6 13q8.35-14.85 18.1-40.85 5.8-16 11.6-29.45h1.4q10.9 6.05 19.05 14.6l-5.6 9.3q-9.05 24.1-17.6 41.95-6.05 12.55-11.85 20.45-8.8-5.35-15.1-16" transform="translate(.95 1.15)"/><path fill-rule="evenodd" fill="#fff" d="m523.5 845.15 5.3 4.85q6.5 5.8 33.65 32.25 15.1 13.2 25.3 19-7.9 20.9-31.55 17.2-30.85-5.1-35.05-36.9-2.75-20.65 2.35-36.4m234.75-42.7 3 3.5q16.9 20.65 13.9 47.05-2.55 20.9-21.55 24.85-17.85 3.95-30.4-3.7 5.8-7.9 11.85-20.45 8.55-17.85 17.6-41.95l5.6-9.3" transform="translate(.95 1.15)"/><path fill-rule="evenodd" fill="#eacd99" d="M700 1089.85q-163.75 18.8-322.65 29.45-18.8-15.3-31.8-36.15-21.1-54.75 32.25-116.45 17.9-20.9 44.55-42.45-2.55 4.6-10.2 14.6-11.35 14.4-16 26l-1.4 3.9-5.8 13.25q-2.8 3.25-5.1 17.4-3.5 17.6-3.5 29.9 0 22.5 21.35 36.9 19.25 12.75 44.3 12.75 11.4 0 16.95-4.65 5.35-4.85 9.05-18.1 3-10.9 14.35-31.3 17.65-32.45 74.7-35.95l14.65-.45 13.65 1.6 42.7-2.3 22.25 3q20.2 2.8 42.25 2.8 14.8 0 20.6-1.4l24.4-5.55 1.15 4.15q0 26.45-13.45 52.9-8.6 17.4-29.25 46.15m-119-1.15q-12.3-22.5-29.7-8.6 17.4-13.9 29.7 8.6" transform="translate(.95 1.15)"/><path fill-rule="evenodd" fill="#e7c689" d="M840.1 687.15q38.5 21.85 58.7 48.5 28.75 84.65 1.15 156.1 67.5 23 106.7 89.3l-.25 11.6q-1.85 32.7-10.65 57.05-149.85 23.2-295.75 40.15 20.65-28.75 29.25-46.15 13.45-26.45 13.45-52.9l-1.15-4.15 1.85-.5q13.9-2.75 13.9-19-3.5-9.5-6.95-21.55 8.8-3.75 17.85-8.15 25.3-12.3 42.2-25.75 14.85-12.05 23.2-24.8 15.8-24.15 15.8-64.95 0-14.15-2.35-19.5-4.4-7.2-8.55-18.1.2-9.5-5.8-16.9l-12.75-16.7q-11.4-19.05-16.7-26.25l-2.1-2.55.2-.2q13 0 26-13.45 9.3-9.55 12.75-21.15" transform="translate(.95 1.15)"/><path stroke-width=".05" stroke-opacity=".302" stroke-linejoin="round" stroke-linecap="round" stroke="#000" fill="none" d="m423.3 925.4 2.8-2.35v-1.4q-5.1-51.25-30.85-105.3-13-116.2 113.65-140.55l4.65-.45q129.2-28.1 260.95-15.55 35 10.65 66.55 28.5 38.5 21.85 58.7 48.5 28.75 84.65 1.15 156.1 67.5 23 106.7 89.3l-.25 11.6q-1.85 32.7-10.65 57.05m-618.4 69.6q-18.8-15.3-31.8-36.15-21.1-54.75 32.25-116.45 17.9-20.9 44.55-42.45m71-193.25 19.25 12.75-3.5-9.25h8.1l53.85 54.5 23.4 31.3-1.85 3.95 8.6 16.25-10.45 5.8q-40.8-56.85-92.1-89.75-.7-.5-1.15-.7l-18.1-13.25 13.95-11.6m187.15 63.1 2.55 3.95-3.25 16.25q5.35 3 10.7 5.8 20.85-57.1 57.5-90 .7-.25.95-.7l12.3-13-15.3-11.6-13.7 12.75.7-9.25h-7.2l-32.95 54.5-12.3 31.3M532.3 829.8q-5.1 7.45-7.85 16.5m64.25 56.1q2.3-6.25 3.25-14.6m-3.25 14.6q-7.9 20.9-31.55 17.2-30.85-5.1-35.05-36.9-2.75-20.65 2.35-36.4m214.3-57.3h1.4q10.9 6.05 19.05 14.6l3 3.5q16.9 20.65 13.9 47.05-2.55 20.9-21.55 24.85-17.85 3.95-30.4-3.7-8.8-5.35-15.1-16m-156.8 221.95q17.4-13.9 29.7 8.6M426.1 923.05l.45 5.8"/><path stroke-width=".05" stroke-opacity=".302" stroke-linejoin="round" stroke-linecap="round" stroke="#000" fill="none" d="M625.1 875.05q-.25 0-.25.25l-.2 1.35q-5.35 19.05-20.4 16.25-5.6-1.15-12.3-5.1-18.1-10.9-45.5-42.45L532.3 829.8q-8.35-9.05-15.3-16-34.55-33.6-46.6-25.25m231 82.35q-6.5 7.65-12.05 7.65-5.35-.25-10.45-4.45m-2.05-1.85q-2.8-3-5.6-7.15M796.3 724.05q-4.4-3.7-9.5-3l-3.5.9-.45.25q-17.2 6.25-39 54.75M701.4 870.9q3.75-4.45 7.65-11.6 8.35-14.85 18.1-40.85 5.8-16 11.6-29.45l5.1-12.05"/><path fill-rule="evenodd" fill-opacity=".149" d="m781.85 721.05.45-.2q1.85-.7 3.5-.95 5.55 1.15 9.5 3l3 1.4q7.65 4.4 7.65 10.9 0 4.65-11.1 9.5-13.45 6.05-19.05 17.2-5.3 15.3-11.6 28.5l-6 12.05-5.6 9.3q-9 24.15-17.6 42-6.05 12.5-11.85 20.4-6 7.65-11.6 11.35-4.85 2.8-9.5 2.8-9.95 0-24.1-15.3 5.1 4.15 10.4 4.4 5.6 0 12.1-7.65 3.7-4.4 7.65-11.6 8.35-14.85 18.1-40.85 5.8-16 11.6-29.45l5.1-12.05q21.8-48.5 38.95-54.75m-319.2 66.35h6.75q12.05-8.35 46.6 25.3 7 6.95 15.35 16l14.15 15.55q27.35 31.5 45.45 42.45 6.7 3.9 12.3 5.1 15.05 2.75 20.4-16.25h6.05v16.25q-6.75 6.45-10.7 9-6.7 4.9-18.3 4.9h-1.85q-4.65-.7-11.15-4.4-10.2-5.8-25.3-19.05-27.1-26.4-33.6-32.2l-5.35-4.9-14.6-13.45q-12.55-11.35-13.7-11.85-4.65-2.55-24.6-4.85-14.85-1.6-14.85-7.9 0-3.95 2.35-11.1 2.55-7.65 4.6-8.6" transform="translate(.95 1.15)"/><path fill-rule="evenodd" fill="#dcae5a" d="m365.45 893.5 1.2.45 5.75 9.95q-12.75-4.85-25.05-10.65-40.35-19.7-74.65-49.4l.45-.7 19.5 4.65q31.05 7.65 65.4 20.15l5.8 2.1q-19.5 16 1.6 23.45-.9 1.6-1.6 3.7.7-2.1 1.6-3.7-21.1-7.45-1.6-23.45 11.8 4.4 24.1 9.5 0 4.65.5 9.05-13.25-6.25-20.2.95-1.6 1.6-2.8 3.95m-27.8-10.7q-2.55-15.55 20.4-14.85-22.95-.7-20.4 14.85" transform="translate(.95 1.15)"/><path fill-rule="evenodd" fill="#eacd99" d="m292.65 847.8-19.5-4.65-.45.7q34.3 29.7 74.65 49.4 12.3 5.8 25.05 10.65l-5.75-9.95-1.2-.45q1.2-2.35 2.8-3.95 6.95-7.2 20.2-.95 1.6 24.15 14.35 47.55-108.1-53.55-138-83.5-14.6-14.6-10.9-23.4 57.75 9.7 113.65 26.65 11.15 2.8 22.05 6.75-1.65 8.35-1.65 16.9-12.3-5.1-24.1-9.5l-5.8-2.1q-34.35-12.5-65.4-20.15" transform="translate(.95 1.15)"/><path fill-rule="evenodd" fill="#efdab4" d="M253.9 829.25q1.6-3.95 6.95-6.75l134.05 18.55q-3.7 10.9-5.3 21.6-10.9-3.95-22.05-6.75-55.9-16.95-113.65-26.65" transform="translate(.95 1.15)"/><path stroke-width=".2" stroke-opacity=".4" stroke-linejoin="round" stroke-linecap="round" stroke="#000" fill="none" d="M366.4 894.65q-.9 1.6-1.6 3.7M254.85 830.4q1.6-3.95 6.95-6.75l134.05 18.55q-3.7 10.9-5.3 21.6-1.65 8.35-1.65 16.9 0 4.65.5 9.05 1.6 24.15 14.35 47.55-108.1-53.55-138-83.5-14.6-14.6-10.9-23.4m111.55 64.25q1.2-2.35 2.8-3.95 6.95-7.2 20.2-.95m-24.6-18.55q-19.5 16 1.6 23.45M359 869.1q-22.95-.7-20.4 14.85m26.2-12.75-5.8-2.1q-34.35-12.5-65.4-20.15m95.3 31.75q-12.3-5.1-24.1-9.5"/><path fill-rule="evenodd" fill="#a46b02" d="M393.8 792.95q.7 5.35 1.9 10.65 14.6 51.05 31.3 100.9 7.9 23.45-2.1 46.4-15.55 36.2-4.15 73.3-41.3-57.3-36.65-129.2 3.25-48.95-3.05-97.9-2.75-22.5 14.65-36.85-3.75 16-1.9 32.7" transform="translate(.95 1.15)"/><path stroke-width=".05" stroke-opacity=".302" stroke-linejoin="round" stroke-linecap="round" stroke="#000" fill="none" d="M394.75 794.1q.7 5.35 1.9 10.65 14.6 51.05 31.3 100.9 7.9 23.45-2.1 46.4-15.55 36.2-4.15 73.3-41.3-57.3-36.65-129.2 3.25-48.95-3.05-97.9-2.75-22.5 14.65-36.85-3.75 16-1.9 32.7z"/><path fill-rule="evenodd" fill="#f7a202" d="m391.95 6.15 1.15-2.8 17.2 21.1q29.45 33.65 59.15 78.65 29.45 44.75 58.9 93.5 29.25 48.7 57.55 93 28.05 43.6 55.4 88.6 26.95 44.55 48.75 92.1 22 46.85 30.85 97.2 2.75 17.4 3.25 35.7l-.25 14.4v.2q-.45 8.6-2.1 17.2-4.4-11.6-9.5-22.75l-.25-.25q-23.85-51.45-60.5-92.55-13.7-14.85-27.65-29 35.75 64.3 46.65 137.8 5.1 34.8-13.45 6.05-18.8-28.75-84-204.15 23.7 123.2-12.95 63.35-36.9-60.1-31.1-178.15 5.55-118.3-16.7 32.95-16.45 76.55-23.9 178.6-24.1-14.85-37.35-99.05-13.2-84.45-2.75-127.1 10.4-42.95-1.65-138.05-9.5-75.6-45.45-140.55l-9.3-16" transform="translate(.95 1.15)"/><path fill-rule="evenodd" fill="#d28902" d="M432.8 228.35v-4.15q4.4-99.3-44.8-208.1 1.9-5.1 3.95-9.95l9.3 16Q437.2 87.1 446.7 162.7q12.05 95.1 1.65 138.05-10.45 42.65 2.75 127.1 13.25 84.2 37.35 99.05 7.45-102.05 23.9-178.6 22.25-151.25 16.7-32.95-5.8 118.05 31.1 178.15 36.65 59.85 12.95-63.35 65.2 175.4 84 204.15 18.55 28.75 13.45-6.05-10.9-73.5-46.65-137.8 13.95 14.15 27.65 29 36.65 41.1 60.5 92.55l.25.25q5.1 11.15 9.5 22.75-5.55 31.3-26.45 56.35l-2.55 3.5q-5.55 3-11.1 3.25l-6.05-4.45q-35.25-26.2-54.95-38.5-15.8-9.95-53.6-18.3-37.8-7.2-50.8-10.7l18.55 34.35q9.5 18.1 13.2 33.4h-1.15q-43.85-17.4-84.9-98.1-42.45-83.05-45.7-163.1-3-66.55 7.7-115.5 10.65-48.7 9-88.85h-.2" transform="translate(.95 1.15)"/><path fill-rule="evenodd" fill="#a46b02" d="M700 704.55q-37.1 55.9-56.35 55-5.1-.25-9.5-1.4-7.2-2.1-12.8-6.95-4.85-4.2-8.55-10.2-81.45-8.15-156.35-62.85l-1.6-1.2-.95-1.6-1.85-3.5q-90-167.7-34.1-360.9.9-3.7 2.1-6.95 10.2-37.15 12.75-75.65h.2q1.65 40.15-9 88.85-10.7 48.95-7.7 115.5 3.25 80.05 45.7 163.1 41.05 80.7 84.9 98.1h1.15q-3.7-15.3-13.2-33.4l-18.55-34.35q13 3.5 50.8 10.7 37.8 8.35 53.6 18.3 19.7 12.3 54.95 38.5l6.05 4.45q5.55-.25 11.1-3.25 13.25-7.45 26.7-32.95l5.55-11.35 1.15 6.7q-9.05 21.1-24.1 44.3l-2.1 3M612.8 741q3 .9-6.95-8.6-14.4-14.35-27.85-14.35l-.25.2-4.15 1.15 4.15-1.15.25-.2q13.45 0 27.85 14.35 9.95 9.5 6.95 8.6" transform="translate(.95 1.15)"/><path fill-rule="evenodd" fill="#faf5a9" d="M393.1 3.35 394.3.1l4.6 4.2 11.85 11.35q43.4 44.1 75.6 102.05 37.85 68.7 82.35 130.6 43.6 60.8 86.3 121.8 41.05 58.65 68.45 127.35 13.45 33.85 22 69.35 1.65 8.55 2.55 16.9.95 7.7 1.2 15.1l.2 7.65q-.2 5.55-.9 11.85l-.5 4.85q-1.85 13.25-5.8 28.75-9.5 37.35-42.2 52.65l2.1-3q15.05-23.2 24.1-44.3l-1.15-6.7-5.55 11.35q-13.45 25.5-26.7 32.95l2.55-3.5q20.9-25.05 26.45-56.35 1.65-8.6 2.1-17.2v-.2l.25-14.4q-.5-18.3-3.25-35.7-8.85-50.35-30.85-97.2-21.8-47.55-48.75-92.1-27.35-45-55.4-88.6-28.3-44.3-57.55-93-29.45-48.75-58.9-93.5-29.7-45-59.15-78.65l-17.2-21.1M735.95 585.6q2.55 7.85 2.8 12.05l.2 5.55-.2 1.65-.45 7.4q-1.9 21.1-12.1 45 10.2-23.9 12.1-45l.45-7.4.2-1.65-.2-5.55q-.25-4.2-2.8-12.05" transform="translate(.95 1.15)"/><path stroke-width=".05" stroke-opacity=".302" stroke-linejoin="round" stroke-linecap="round" stroke="#000" fill="none" d="M700.95 705.7q-37.1 55.9-56.35 55-5.1-.25-9.5-1.4-7.2-2.1-12.8-6.95-4.85-4.2-8.55-10.2m113.4-83.75q10.2-23.9 12.1-45l.45-7.4.2-1.65-.2-5.55q-.25-4.2-2.8-12.05m-162.35 133.8 4.15-1.15.25-.2q13.45 0 27.85 14.35 9.95 9.5 6.95 8.6m87.2-36.45 2.1-3q15.05-23.2 24.1-44.3"/><path stroke-width=".05" stroke-opacity=".302" stroke-linejoin="round" stroke-linecap="round" stroke="#000" fill="none" d="m394.05 4.5 1.2-3.25 4.6 4.2L411.7 16.8q43.4 44.1 75.6 102.05 37.85 68.7 82.35 130.6 43.6 60.8 86.3 121.8Q697 429.9 724.4 498.6q13.45 33.85 22 69.35 1.65 8.55 2.55 16.9.95 7.7 1.2 15.1l.2 7.65q-.2 5.55-.9 11.85l-.5 4.85q-1.85 13.25-5.8 28.75-9.5 37.35-42.2 52.65m-87.2 36.45Q532.3 734 457.4 679.3l-1.6-1.2-.95-1.6L453 673q-90-167.7-34.1-360.9.9-3.7 2.1-6.95 10.2-37.15 12.75-75.65v-4.15q4.4-99.3-44.8-208.1 1.9-5.1 3.95-9.95l1.15-2.8"/><path fill-rule="evenodd" fill="#efdab4" d="M786.3 970.15q2.8 44.1-19.7 65.9-18.1 17.6-48.05 17.6-23.65 0-51-15.05-38.3-20.9-38.3-57.55 0-38.25 30.15-62.4 9.05-6.95 34.8-19.45l10.9-.95q54.05 29 80.5 70.05l.7 1.85m-58.7-14.35q-7.9 2.05-7.9 7.85 0 9.05 9.3 30.85 11.85 27.85 26 27.85 13.45 0 13.45-10.45 0-25.25-40.85-56.1" transform="translate(.95 1.15)"/><path fill-rule="evenodd" fill="#eacd99" d="M694.2 899.2q-25.75 12.5-34.8 19.45-30.15 24.15-30.15 62.4 0 36.65 38.3 57.55 27.35 15.05 51 15.05 29.95 0 48.05-17.6 22.5-21.8 19.7-65.9 13.45 34.1 13.45 35.25 0 29.7-19.7 59.85-29 44.1-84.7 44.1-29.45 0-56.8-17.85-27.4-18.1-39-18.1-10.4 0-19.45 3.45-8.85 3.5-15.35 3.5-15.5 0-15.5-15.8 0-9.95 3-15.5 3.5-6.5 15.55-14.65 1.85-6.95 3.95-13.2 37.8-111.6 122.45-122m-128.25 141.5 1.85-6.3-1.85 6.3" transform="translate(.95 1.15)"/><path fill-rule="evenodd" fill="#dcae5a" d="M571.75 1021.2q-2.1 6.25-3.95 13.2-12.05 8.15-15.55 14.65-3 5.55-3 15.5 0 15.8 15.5 15.8 6.5 0 15.35-3.5 9.05-3.45 19.45-3.45 11.6 0 39 18.1 27.35 17.85 56.8 17.85 55.7 0 84.7-44.1 19.7-30.15 19.7-59.85 0-1.15-13.45-35.25l.25-.2q11.55 18.75 17.6 40.1 39.45 6.25 39.9 31.8l-.7 3.45q-7.4 34.1-25.95 36.9l-1.4.45h-.25v-.2l-.95-4.2q0-2.3 5.35-3.25 5.1-.9 5.1-5.55 0-3.7-4.15-5.8-11.85-5.1-17.2 8.35v1.85l-2.05 3.5q-19.5 34.1-45 52.4-5.1 3-8.85 4.4-28.75 9.75-47.75 9.75-36.9 0-78.65-24.8-5.35-3.25-16.25-16.5-8.35-10.2-16.2-10.2-8.6 0-17.4 4.65-9.05 4.65-18.55 4.65-27.65 0-39.45-16.95-11.35-55.2 58-63.55m236.6 5.55q-1.9-8.55-4.2-16.7 2.3 8.15 4.2 16.7" transform="translate(.95 1.15)"/><path fill-rule="evenodd" fill="#f8eedc" d="M727.6 955.8q40.85 30.85 40.85 56.1 0 10.45-13.45 10.45-14.15 0-26-27.85-9.3-21.8-9.3-30.85 0-5.8 7.9-7.85" transform="translate(.95 1.15)"/><path fill-rule="evenodd" fill="#a87a24" d="M815.75 1082.65h-1.6q-5.6 0-12.3-5.3l2.05-3.5V1072q5.35-13.45 17.2-8.35 4.15 2.1 4.15 5.8 0 4.65-5.1 5.55-5.35.95-5.35 3.25l.95 4.2v.2m-58.9 47.1q-23.45 16.7-51.75 20.2l-2.8.45q-63.75-4.4-103.65-37.6-55.45 16.95-83.05-19.95-1.15-4.15-1.85-8.1 11.8 16.95 39.45 16.95 9.5 0 18.55-4.65 8.8-4.65 17.4-4.65 7.85 0 16.2 10.2 10.9 13.25 16.25 16.5 41.75 24.8 78.65 24.8 19 0 47.75-9.75 3.75-1.4 8.85-4.4m-164.25-18.8 6.05 1.85-6.05-1.85" transform="translate(.95 1.15)"/><path stroke-width=".05" stroke-opacity=".302" stroke-linejoin="round" stroke-linecap="round" stroke="#000" fill="none" d="M786.55 969.45q-26.45-41.05-80.5-70.05l-10.9.95q-84.65 10.4-122.45 122-2.1 6.25-3.95 13.2l-1.85 6.3m238.2-30.65q2.3 8.15 4.2 16.7m-22.75-58.45.95 1.65q11.55 18.75 17.6 40.1 39.45 6.25 39.9 31.8l-.7 3.45q-7.4 34.1-25.95 36.9l-1.4.45h-1.85q-5.6 0-12.3-5.3-19.5 34.1-45 52.4-23.45 16.7-51.75 20.2l-2.8.45q-63.75-4.4-103.65-37.6-55.45 16.95-83.05-19.95-1.15-4.15-1.85-8.1-11.35-55.2 58-63.55m230.1 56.15 2.05-3.5v-1.85q5.35-13.45 17.2-8.35m-222.45 49.15-6.05-1.85"/><path fill-rule="evenodd" fill="#a0a0a0" d="m1349.15 556.05.3-1.55q1.6-7.6 3.65-15.1l.4-.35.2-.1 5.8-2.5 1.95-.75q.05.2.3.15-2.2 8.05-3.65 15.9l-.5 2.55-1.1 6-.5 2.55q-17.05 105.7 56.1 197.7l-11.55-2.9-.1-.45-.65-.5q-68.4-89.5-52.1-191.65.05-.95.25-1.95.45-3.5 1.2-7.05m106.15 14.25q11.5-2.6 22.65-4.1 63.25 44.3 36.95 113.75-14.75 12.1-30 17.9l5.65-4.9q23.45-73-35.25-122.65" transform="translate(.95 1.15)"/><path fill-rule="evenodd" fill="#fff" d="m1044.05 632.5 1.35-.1 12.4-2.15q80.7-14.4 172-44.65 59.3-19.75 123.3-46.2-2.05 7.5-3.65 15.1l-.3 1.55-3.6.95Q1166 619.05 1028.4 639.85q-5.85 2.25-11.45 4.45 5-3.7 11-6.25 2.95-1.55 6.55-2.5l9.55-3.05" transform="translate(.95 1.15)"/><path fill-rule="evenodd" fill="#775100" d="m1044.05 632.5-9.55 3.05q-3.6.95-6.55 2.5-6 2.55-11 6.25-5.8 4.45-10.2 10.45l-2.35 3.75q-22.75 36.1-6 123.6l-10.4 6.15q-18.8-94.4 3.65-133.5.05-.5.65-1.15l1-1.5q4.85-7.8 11.6-13.2l24.7-10.95q7.4-1 14.45 4.55m420.6 133.2q1.3 78.45-39.15 81.55-3.75.35-7.9 0l-16.1.95-6.6.55q-34.1-44.15-23.7-96.7l12.8 2.15 15.75 3.2.3.2.5.05 11.55 2.9q5.7 1.4 10.9 3.1l2.5.3q19.85 4.05 39.15 1.75M1111.4 977.3q-4.9 13.8-6.75 19.6l-1.8 3.85q-27.2-10-58.25-12.05l3.75-11.05q10.7-32.65 6.8-53.45l-.2-.7q-.1-.45.05-.95 25.05-4.1 64.15.3l.1 11.05q-.15 21.9-6.3 39.15-.9 2.15-1.55 4.25M1384 754.2q-18.4 35.45 17.5 94-35.9-58.55-17.5-94" transform="translate(.95 1.15)"/><path fill-rule="evenodd" fill="#553900" d="m1394.9 848.75-25 1.7q-132.9 9.4-242.8 28.55l-1.2.05q-2.2 1.55-3.8 3.65l-17.35 1.55-3.5.45-12.95 1.8-32.35 3.15q-10.2 1.3-14.2 2.35-9.9 2.65-20.8 6.75l-8.45 2.55q1.5-.9 8.4-2.75-21.25-21.2-27.85-25.2-6.35-4.05-38.4-8.9l-54.55-3.65q-15.05-1.5-19.9-19.65-3.35-12.3-1.55-38 .1-1.5 17.1-54.55 8.95-28.35 40.3-71.8 12.25-16.95 25.15-31.7-27.2 12.35-67.2 39.6-24.05-9.15-30.7-27.5-4.95-14.05-.1-33.65-.05-.2.2-.25-.25-4.3.35-8.5l-11.15-7.6-.75-2.7q1.75-19.4 11.65-30 .15-.25.6-.4l-.1.55 10.1 1.85 3.3.75q17.85 4.6 26.25 14.55 2.85 3.4 13.05 24.4 4.45 9.35 18.1 5.7l.7-.2 2.6-.9.8.25.55.35q.7 10.6-10.5 13.6-12.35 3.3-23.2.45-13.95-3.7-17.55-17.15-2.2-17.15-3.15-20.75-1.2-4.5-4.9-8.3l-4.4-4.1 4.2 7.75q5.5 10.75 4 19.35l-1.45 2.8q-9.6 19.65 6.95 33.2 5.55 4.5 11.95 2.3 25.75-3.5 46.8-20.7 13.6-3.9 25.65 1.55 3.5 1.45 6.75 3.7l2.9 1.9q5.1-1.65 9.8-2.9 21.35-6.2 31.8-4.95-11.45 2.85-20.2 9.75-6.75 5.4-11.6 13.2l-1 1.5q-.6.65-.65 1.15-22.45 39.1-3.65 133.5l10.4-6.15q235.55-51.15 372.8-30.05-10.4 52.55 23.7 96.7m-292.05 152q-2.25 4.2-6.15 7.65-5.5 4.6-7.4 4.65-1.15.05-25.35 8.45-12.3 4.25-30.45 10.8l-17.35 6.05-2 .8-19.2-.85q5.55-1.75 5.3-1.9l3.85-1.75q10.65-5 15.8-8.3 5.2-3.85 7.85-5.45l1.95-1.75q6.3-6.95 14.9-30.45 31.05 2.05 58.25 12.05M991.2 1208.8q-49.5-1.85-76.05-14.85-14.65-5.45-18.1-11.25-.7-1.55-1.1-3.1-25.95-72.5-29.5-113.6l-.2-.9q-2.9-34.05-1.5-66.6 16.5-2 37-.55l25 2.7q.2 6.9 12.85 40.7 1.5 5.6-5.2 12.7-6.75 7.3-4.6 15.35 2.65 9.85 13.65 25.7.65 2.45-3.65 15.1-4.2 12.95-2.9 17.9 3.6 13.4 25.3 36.9 1.05 1.35 9.55 7l2.65 2q11.1 10 15.6 26.8 1.05 4 1.2 8M873.8 583.25l1.95 1.9-1.95-1.9M983.5 637q-9.9 2.4-22.3 8.1 12.4-5.7 22.3-8.1m142.4 242.05q-10.75 1.9-21.15 5.2 10.4-3.3 21.15-5.2m-64.35 13.4-.3-.4.2-.05.1.45m-6.8 30.15.25-.05q-.15.5-.05.95l-.2-.9" transform="translate(.95 1.15)"/><path fill-rule="evenodd" fill="#422d00" d="M1122.1 882.7q-6.95 9.1-3.6 26.2l.3 1.85.2.65.15 1.4v10.05q-39.1-4.4-64.15-.3l-.25.05q-.15-.45 0-.95-4.05-20.5 6.8-29.2-10.85 8.7-6.8 29.2-.15.5 0 .95l.2.9.2.7q3.9 20.8-6.8 53.45l-3.75 11.05q-8.6 23.5-14.9 30.45l-1.95 1.75q-2.65 1.6-7.85 5.45-5.15 3.3-15.8 8.3l-3.85 1.75q.25.15-5.3 1.9-3.55.95-7.5 2.5-8.3 2.9-18 7.95l-.85.45q-11.3 5.4-24.55 13.3l-2.1 1.05q-6.95 7.15-2.05 21.15l1.6 3.25q7.25 14.6 15.7 22.65-12.5 3.6-13.35 14.85l1.1 1.2q10.4 21.9 24 33.15l1.15-.05 4.25-.45 7.9-.85 3.5-.45q11-2 23.1-5.25l8.9-2.65 1.8-.5 8.3-2.9q11.65-4.1 24.25-9.15 1.65 18 2.25 34.45-25.9 27.1-59.25 37l-3.9-.2q-.15-4-1.2-8-4.5-16.8-15.6-26.8l-2.65-2q-8.5-5.65-9.55-7-21.7-23.5-25.3-36.9-1.3-4.95 2.9-17.9 4.3-12.65 3.65-15.1-11-15.85-13.65-25.7-2.15-8.05 4.6-15.35 6.7-7.1 5.2-12.7-12.65-33.8-12.85-40.7l-25-2.7q-20.5-1.45-37 .55.35-13.75 1.75-27.4 37.35 6.85 80.15 16 5.25 4.35 18.65 4.85 2.8 21.35 18 39.4l3.1 3.7.9-.2 8.4-2.75.45-.1 18.3-6.15q9.3-6.55 9.85-7.2 6.3-6.95 14.7-30.1l3.95-11.4q10.7-32.65 6.8-53.4l-.15-.7q-1.2-5.25-1.35-9.45-10.65-.35-25.2 3.55-5.6 2.5-7.85 3.1l1.45 12.55 1.7 6.5q-6.85 3.8-13.45 7.95 0-10.8-1.2-23.2l-.25-2.8q-.05-1.25.15-2.2-2.2-5.4-5-9.75-7.8-12.05-21-18.35-60.35 1.5-120.65-14.75-11.55-82.4 20.95-158.35-30.2-19.5-36.5-43.05-2.9-10.75 3.25-29.9 2.75-8.7 5.75-15.25l2.85-5.55-.1-4.05-9.8-4.15-1.25-12.85q-.05-9.1 4.55-17.05 4.85-8.75 12.4-11.95.8-.5 1.7-.75 2.4-.85 5.05-1.05l-1.7 1.85q-.45.15-.6.4-9.9 10.6-11.65 30l.75 2.7 11.15 7.6q-.6 4.2-.35 8.5-.25.05-.2.25-4.85 19.6.1 33.65 6.65 18.35 30.7 27.5 40-27.25 67.2-39.6-12.9 14.75-25.15 31.7-31.35 43.45-40.3 71.8-17 53.05-17.1 54.55-1.8 25.7 1.55 38 4.85 18.15 19.9 19.65l54.55 3.65q32.05 4.85 38.4 8.9 6.6 4 27.85 25.2-6.9 1.85-8.4 2.75l8.45-2.55q10.9-4.1 20.8-6.75 4-1.05 14.2-2.35l32.35-3.15 12.95-1.8 3.5-.45 17.35-1.55M939.45 621.4q4 1.55 6.8 5.65l1.95 2.8q-21.05 17.2-46.8 20.7-6.4 2.2-11.95-2.3-16.55-13.55-6.95-33.2l1.45-2.8q1.5-8.6-4-19.35l-4.2-7.75 4.4 4.1q3.7 3.8 4.9 8.3.95 3.6 3.15 20.75 3.6 13.45 17.55 17.15 10.85 2.85 23.2-.45 11.2-3 10.5-13.6m-61.55 96.45q1.15-2.95 2.55-5.7Q886.3 698.3 894 684.7q-7.7 13.6-13.55 27.45-1.4 2.75-2.55 5.7m178.05 171.8q-1 3.15-2.1 4.4-6.35 6.95-5.6 19.55-.75-12.6 5.6-19.55 1.1-1.25 2.1-4.4m5.6 2.8-.1-.45-.2.05.3.4" transform="translate(.95 1.15)"/><path fill-rule="evenodd" fill="#dcae5a" d="M1119.4 913q4.9 4.9 8.7 10.85 8.5 13.8 10.7 32.95-12.95 10.65-27.4 20.5.65-2.1 1.55-4.25 6.15-17.25 6.3-39.15l-.1-11.05V912.8l.25.2m-292.55 39.2q-11.05-11.65-21.4-19.9-2.55-4.85-4-9.5 24.75 14.2 30.45 16.8 8.4 3.5 17.35 1.1 9.85-2.65 5.4-19.2-9.95-37.2-54.3-25.3l-.4-.4q1.75-3.6 5.15-5.95l2.9-1.7q12.95-8.3 24.25-18.05l2.95 1.1q5.7 2.6 22.75 12.4 27.7 12.8 51.75 14 7.85.55 30-.1l26.7 1q22.4 3.85 37.3 25.55 1.2 12.4 1.2 23.2-.35 14.75-3.5 26.4-7.65-.1-15.95-1.5 2.15-5.35 3.25-14.55 2.35-18.15-.7-29.6-1.5-5.6-7.2-8.85-2.8-1.45-5.95-2.5-3.7-1.4-6.85-2.25-9.55-2.5-14-1.3-2.25.6-4.45 6-5.2 3.75-9.4 17.65-6.9 22.75-8.9 23.3-3.35.9-9.05-1.45-6.45-2.6-7.65-7.05 2.8-21.85 2.05-24.55-1.95-3.85-3.2-4.95-2.95 2.5-4.9 10.45-4.8 10.65-4.7 20l.65 2.45q-1.85 1.25-4.3 1.9-11.2 3-12.8-2.85-1.05-4 2.3-16.7 3.35-12.4 2.95-13.95-.35-1.35-3.05-2.35l1.6-5q-1.4 2.1-2.35 4.7-.4.4-.5.9l-.45-.85q-8.05 3.15-12.35 21.05-4.3 18-12.4 20.15-6.95 1.85-26.25-5.65-5.15-2.25-10-4.1m114.05 14.15.6.55-.55.6q-.15-.45-.05-1.15m28.55 82.4q9.7-5.05 18-7.95 18.35 3.7 31.5 18.95 11.8 13.6 16.55 31.3l.3 1.15q-19.55 8.35-37.35 14.55-7 2.6-13.9 4.7 6.9-2.1 13.9-4.7 4.35 1 6.8 3.95 8.55 9.5 12.5 39.4l-8.9 2.65q-2.8-8.65-6.65-16.5-9.65-20.95-18.25-19.85l.6-4.95.65-4.75q4.3-.9 8.7-2.55 5.3-2.6 9.9-6.75l.85-4.1-7.3-15.55q-4-12.4-15.4-13.6-3.35-9.95-7.4-13.4l-5.1-2m80.3-125q3.9 20.75-6.8 53.4l-3.95 11.4q-8.4 23.15-14.7 30.1-.55.65-9.85 7.2l-18.3 6.15-.45.1-8.4 2.75-.9.2-3.1-3.7q18.85-17.3 31.1-41.5 5.1-9.8 8.25-18.5 7.1-20.2 3.45-33.85l-.55-2.05q9.65-5.2 19.75-9.55l4.45-2.15" transform="translate(.95 1.15)"/><path fill-rule="evenodd" fill="#333" d="M1484.9 697.85q-8.1 2.9-15.95 4.05l-.25.05-4 .35-18.15-.65-1.55-.35-6.15-1.45q-45.65-52.8-25.4-116.4l.65-.15q9.8-3.8 19.5-6.9 11.1-3.45 21.7-6.1 58.7 49.65 35.25 122.65l-5.65 4.9" transform="translate(.95 1.15)"/><path fill-rule="evenodd" fill="#faf3e7" d="m832.25 870.1 5.1-4.25q.15-.3.6-.4 15.45 7.35 19 10.75 60.3 16.25 120.65 14.75 13.2 6.3 21 18.35 2.8 4.35 5 9.75-.2.95-.15 2.2l.25 2.8q-14.9-21.7-37.3-25.55l-26.7-1q-22.15.65-30 .1-24.05-1.2-51.75-14-17.05-9.8-22.75-12.4l-2.95-1.1m33.55-297.85q25.85-2.15 42.7 17.8l3.55 4.35.1.25q10 16.7 10 23.95-.25.05-.2.25 8.4-1 16.15 1.95l-2.6.9-.7.2q-13.65 3.65-18.1-5.7-10.2-21-13.05-24.4-8.4-9.95-26.25-14.55l-3.3-.75-10.1-1.85.1-.55 1.7-1.85" transform="translate(.95 1.15)"/><path fill-rule="evenodd" fill="#eacd99" d="M801.45 922.8q-6.4-16.85-1.8-26.45-.1-.25.3-.55l.4.4q44.35-11.9 54.3 25.3 4.45 16.55-5.4 19.2-8.95 2.4-17.35-1.1-5.7-2.6-30.45-16.8m199.95 50.85q3.15-11.65 3.5-26.4 6.6-4.15 13.45-7.95l7.2-3.85.55 2.05q3.65 13.65-3.45 33.85-3.15 8.7-8.25 18.5-12.25 24.2-31.1 41.5-15.2-18.05-18-39.4 11.75.25 30-2.5 3.9-7.05 6.1-15.8m-19.15 184.8-7.9.85-4.25.45-1.15.05q-13.6-11.25-24-33.15l-1.1-1.2q.85-11.25 13.35-14.85-8.45-8.05-15.7-22.65l-1.6-3.25q-4.9-14 2.05-21.15l2.1-1.05q13.25-7.9 24.55-13.3l.85-.45 5.1 2q4.05 3.45 7.4 13.4l-5.8-.2-17.3 8.05q5.35 20.9 21.2 35.15l5.15-.45-.65 4.75-18.95 5.55q-4.25-2.45-8.4-6.4 4.15 3.95 8.4 6.4l18.95-5.55-.6 4.95-.85.2q-20.85 5.6-19.35 11.2 2.2 8.3 12.2 22.45l6.3 8.2" transform="translate(.95 1.15)"/><path fill-rule="evenodd" fill="#aa7b24" d="M1063.95 1021.5q9.3 15 19.45 35.8 2.05 4.1 1.85 11.3l-27.6 13.65q14.15 26.95 13.05 46.95l-18.6 8.35q-12.6 5.05-24.25 9.15l-8.3 2.9-1.8.5q-3.95-29.9-12.5-39.4-2.45-2.95-6.8-3.95 17.8-6.2 37.35-14.55l-.3-1.15q-4.75-17.7-16.55-31.3-13.15-15.25-31.5-18.95 3.95-1.55 7.5-2.5l19.2.85 2-.8 17.35-6.05q18.15-6.55 30.45-10.8m-197.7 43.6q-8.05-5.75-16.35-17.95-6.3-47.75-21.35-93l-1.7-1.95q4.85 1.85 10 4.1 19.3 7.5 26.25 5.65 8.1-2.15 12.4-20.15 4.3-17.9 12.35-21.05l.45.85q-3.15 7.05-5.65 17.4-1.45 5.4-2 9.6 6.45-19 8.9-27.6 2.7 1 3.05 2.35.4 1.55-2.95 13.95-3.35 12.7-2.3 16.7 1.6 5.85 12.8 2.85 2.45-.65 4.3-1.9l.3 1.15.1-1.45q0-.8.3-1.55 1.1-12.8 3.35-20.6l.1-.5 4.8-9.95q1.25 1.1 3.2 4.95.75 2.7-2.05 24.55 1.2 4.45 7.65 7.05 5.7 2.35 9.05 1.45 2-.55 8.9-23.3 4.2-13.9 9.4-17.65-2.55 6.45-5.3 19.65-4.45 20.95-3.35 27.6-.1.7.05 1.15l.55-.6q9.35 8.8 19.95 9.05l4.55.9 12.95 2.55q3.8-1 6.5-7.25 8.3 1.4 15.95 1.5-2.2 8.75-6.1 15.8-18.25 2.75-30 2.5-13.4-.5-18.65-4.85-42.8-9.15-80.15-16-1.4 13.65-1.75 27.4-1.4 32.55 1.5 66.6m15.55-103.35-1.35-3.2q-.85-3.15.2-9.95-1.05 6.8-.2 9.95l1.35 3.2m22.55-1.75.4-3.9-.4 3.9m38.55 11.35q-1.65-2.75-1.95-3.85.3 1.1 1.95 3.85m-97.4.15q-8.1-7.7-16.95-17.35 8.85 9.65 16.95 17.35m212.15 110.75q-6.4 2.9-12.35 5.7-5.05 2.1-9.5 4.25 4.45-2.15 9.5-4.25 5.95-2.8 12.35-5.7" transform="translate(.95 1.15)"/><path fill-rule="evenodd" fill="#d5cab3" d="M949.55 919.1q2.2-5.4 4.45-6 4.45-1.2 14 1.3-4.65 6.75-9.8 23.3-6.4 20.2-5.9 21.95.85 3.15 8.35 5.95 13.2 4.6 24.8 6.55-2.7 6.25-6.5 7.25L966 976.85l-4.55-.9q-10.6-.25-19.95-9.05l-.6-.55q-1.1-6.65 3.35-27.6 2.75-13.2 5.3-19.65m59.3 233.65q-12.1 3.25-23.1 5.25l-3.5.45-6.3-8.2q3.15-17.15 6-26.1l1.9-7.25.1-.5q8.6-1.1 18.25 19.85 3.85 7.85 6.65 16.5m-25.6-82q.2-2-.25-3.6-.7-1.7-1.05-3 11.4 1.2 15.4 13.6l7.3 15.55-.85 4.1q-4.6 4.15-9.9 6.75-4.4 1.65-8.7 2.55.55-11.45-.75-26.2l-1.2-9.75" transform="translate(.95 1.15)"/><path fill-rule="evenodd" fill="#e9e2d6" d="M968 914.4q3.15.85 6.85 2.25 3.15 1.05 5.95 2.5 5.7 3.25 7.2 8.85 3.05 11.45.7 29.6-1.1 9.2-3.25 14.55-11.6-1.95-24.8-6.55-7.5-2.8-8.35-5.95-.5-1.75 5.9-21.95 5.15-16.55 9.8-23.3m17.2 192.3-5.15.45q-15.85-14.25-21.2-35.15l17.3-8.05 5.8.2q.35 1.3 1.05 3-.25.1-.15.35l.4 3.25 1.2 9.75q1.3 14.75.75 26.2m-1.35 10.2-1.9 7.25q-2.85 8.95-6 26.1-10-14.15-12.2-22.45-1.5-5.6 19.35-11.2l.75.3" transform="translate(.95 1.15)"/><path fill-rule="evenodd" fill="url(#h)" d="M1016.95 644.3q5.6-2.2 11.45-4.45 137.6-20.8 317.15-82.85l3.6-.95q-.75 3.55-1.2 7.05-.2 1-.25 1.95-16.3 102.15 52.1 191.65-.2.25-.05.7l-15.75-3.2-12.8-2.15q-137.25-21.1-372.8 30.05-16.75-87.5 6-123.6l2.35-3.75q4.4-6 10.2-10.45m212.85-58.7q-91.3 30.25-172 44.65l172-44.65" transform="translate(.95 1.15)"/><path fill-rule="evenodd" fill="url(#i)" d="M1412.1 760.55q-73.15-92-56.1-197.7l.5-2.55 1.1-6 .5-2.55q1.45-7.85 3.65-15.9-.05-.2.15-.25l1.15-.3q58-23.75 111.1-29.8 113.15 87.8 70.55 220.05-38.5 34.75-79.85 40.1l-.2.05q-19.3 2.3-39.15-1.75l-2.5-.3q-5.2-1.7-10.9-3.1m43.2-190.25q-10.6 2.65-21.7 6.1-9.7 3.1-19.5 6.9l-.65.15q-20.25 63.6 25.4 116.4l6.15 1.45 1.55.35 18.15.65 4-.35.25-.05q7.85-1.15 15.95-4.05 15.25-5.8 30-17.9 26.3-69.45-36.95-113.75-11.15 1.5-22.65 4.1" transform="translate(.95 1.15)"/><path stroke-width=".05" stroke-opacity=".302" stroke-linejoin="round" stroke-linecap="round" stroke="#000" fill="none" d="m1058.75 631.4-12.4 2.15-1.35.1-9.55 3.05q-3.6.95-6.55 2.5-6 2.55-11 6.25m332.2-88.25.3-1.55q1.6-7.6 3.65-15.1-64 26.45-123.3 46.2-91.3 30.25-172 44.65m303.65-94.55-1.95.75-5.8 2.5-.2.1-.4.35m59 221.15q-73.15-92-56.1-197.7l.5-2.55 1.1-6 .5-2.55q1.45-7.85 3.65-15.9m-.3-.15.45-.1 1.15-.3q58-23.75 111.1-29.8 113.15 87.8 70.55 220.05-38.5 34.75-79.85 40.1l-.2.05q1.3 78.45-39.15 81.55-3.75.35-7.9 0l-16.1.95-6.6.55-25 1.7q-132.9 9.4-242.8 28.55l-1.2.05q-2.2 1.55-3.8 3.65-6.95 9.1-3.6 26.2l.3 1.85.2.65.15 1.4m-7.75 64.5q-4.9 13.8-6.75 19.6l-1.8 3.85q-2.25 4.2-6.15 7.65-5.5 4.6-7.4 4.65-1.15.05-25.35 8.45-12.3 4.25-30.45 10.8l-17.35 6.05m-120.2 141.25q-25.95-72.5-29.5-113.6l-.2-.9q-2.9-34.05-1.5-66.6m-7.8-122.3q-11.55-82.4 20.95-158.35m-24.65-93.75-.1-4.05-9.8-4.15-1.25-12.85q-.05-9.1 4.55-17.05 4.85-8.75 12.4-11.95.8-.5 1.7-.75 2.4-.85 5.05-1.05 25.85-2.15 42.7 17.8l3.55 4.35.75.95m70.7 41.65q5.1-1.65 9.8-2.9 21.35-6.2 31.8-4.95l1.15-.3.2-.05q1.55-.6 3.15-.85 7.4-1 14.45 4.55m305.1-76.45q-.75 3.55-1.2 7.05-.2 1-.25 1.95-16.3 102.15 52.1 191.65l.65.5.1.45 11.55 2.9q5.7 1.4 10.9 3.1l2.5.3q19.85 4.05 39.15 1.75m-102.75-230.1q-.2.05-.15.25m123.15 162q-8.1 2.9-15.95 4.05l-.25.05-4 .35-18.15-.65-1.55-.35-6.15-1.45q-45.65-52.8-25.4-116.4l.65-.15q9.8-3.8 19.5-6.9 11.1-3.45 21.7-6.1 11.5-2.6 22.65-4.1 63.25 44.3 36.95 113.75-14.75 12.1-30 17.9l5.65-4.9q23.45-73-35.25-122.65m-84.1 181.75 12.8 2.15 15.75 3.2.3.2.5.05m-29.35-5.6q-137.25-21.1-372.8 30.05l-10.4 6.15q-18.8-94.4 3.65-133.5.05-.5.65-1.15m1-1.5q4.85-7.8 11.6-13.2 8.75-6.9 20.2-9.75l1.35-.35M866.75 573.4l-1.7 1.85q-.45.15-.6.4-9.9 10.6-11.65 30l.75 2.7 11.15 7.6q-.6 4.2-.35 8.5m30.6 61.4q40-27.25 67.2-39.6 12.4-5.7 22.3-8.1M876.7 586.3l-1.95-1.9m8.7 31.8 1.45-2.8q1.5-8.6-4-19.35l-4.2-7.75m18.25 99.55q-7.7 13.6-13.55 27.45-1.4 2.75-2.55 5.7m120.5 64.25q-16.75-87.5 6-123.6l2.35-3.75q4.4-6 10.2-10.45m-12.05-5.4 24.7-10.95m18.65 285.65q-.75-12.6 5.6-19.55 1.1-1.25 2.1-4.4m63.2 33.2v-10.05m-252.65 58.3q-1.4 13.65-1.75 27.4m144.1 154.25q-2.8-8.65-6.65-16.5-9.65-20.95-18.25-19.85m-8 33.85 6.3 8.2m-6.3-8.2q-10-14.15-12.2-22.45-1.5-5.6 19.35-11.2l.85-.2M1120.1 924l.1 11.05q-.15 21.9-6.3 39.15-.9 2.15-1.55 4.25m-63.15-63.7q.15 4.2 1.35 9.45l.15.7q3.9 20.75-6.8 53.4l-3.95 11.4q-8.4 23.15-14.7 30.1-.55.65-9.85 7.2m-18.3 6.15-.45.1"/><path stroke-width=".05" stroke-opacity=".302" stroke-linejoin="round" stroke-linecap="round" stroke="#000" fill="none" d="m1120.1 913.95.25.2q4.9 4.9 8.7 10.85 8.5 13.8 10.7 32.95-12.95 10.65-27.4 20.5m-47.45 44.2q9.3 15 19.45 35.8 2.05 4.1 1.85 11.3l-27.6 13.65q14.15 26.95 13.05 46.95l-18.6 8.35q1.65 18 2.25 34.45-25.9 27.1-59.25 37l-3.9-.2q-49.5-1.85-76.05-14.85-14.65-5.45-18.1-11.25-.7-1.55-1.1-3.1m-29.7-114.5q-8.05-5.75-16.35-17.95-6.3-47.75-21.35-93l-1.7-1.95q-11.05-11.65-21.4-19.9-2.55-4.85-4-9.5-6.4-16.85-1.8-26.45-.1-.25.3-.55 1.75-3.6 5.15-5.95l2.9-1.7q12.95-8.3 24.25-18.05l5.1-4.25q.15-.3.6-.4 15.45 7.35 19 10.75 60.3 16.25 120.65 14.75 13.2 6.3 21 18.35 2.8 4.35 5 9.75-.2.95-.15 2.2l.25 2.8M878.85 719q-30.2-19.5-36.5-43.05-2.9-10.75 3.25-29.9 2.75-8.7 5.75-15.25l2.85-5.55m58.8-29.7.1.25-.1-.25m.75.95-.65-.7q10 16.7 10 23.95-.25.05-.2.25 8.4-1 16.15 1.95l.8.25.55.35q4 1.55 6.8 5.65l1.95 2.8q13.6-3.9 25.65 1.55 3.5 1.45 6.75 3.7l2.9 1.9m411.4 211.75q-34.1-44.15-23.7-96.7m30.3 96.15q-35.9-58.55-17.5-94m-520.6-130.9q-.25.05-.2.25-4.85 19.6.1 33.65 6.65 18.35 30.7 27.5m54.2-54.85q-21.05 17.2-46.8 20.7-6.4 2.2-11.95-2.3-16.55-13.55-6.95-33.2m222.25 269.2q10.4-3.3 21.15-5.2M950.5 920.25q2.2-5.4 4.45-6 4.45-1.2 14 1.3 3.15.85 6.85 2.25 3.15 1.05 5.95 2.5 5.7 3.25 7.2 8.85 3.05 11.45.7 29.6-1.1 9.2-3.25 14.55m15.95 1.5q3.15-11.65 3.5-26.4 0-10.8-1.2-23.2m57.85-31.6q-10.85 8.7-6.8 29.2-.15.5 0 .95m-166.45-1q.1-.5.5-.9.95-2.6 2.35-4.7l-1.6 5q-2.45 8.6-8.9 27.6-1.05 6.8-.2 9.95l1.35 3.2m22.65-6.8-.65-2.45q-.1-9.35 4.7-20 1.95-7.95 4.9-10.45m36.15-2.95q-2.55 6.45-5.3 19.65-4.45 20.95-3.35 27.6m-60.25-17.75q.55-4.2 2-9.6 2.5-10.35 5.65-17.4m20.2 10.9.1-.5 4.8-9.95m-8.55 32.6-.1 1.45-.4 3.9m.4-3.9-.3-1.15m77.8 203.5-7.9.85-4.25.45-1.15.05q-13.6-11.25-24-33.15l-1.1-1.2q.85-11.25 13.35-14.85-8.45-8.05-15.7-22.65l-1.6-3.25q-4.9-14 2.05-21.15l2.1-1.05q13.25-7.9 24.55-13.3m.85-.45q9.7-5.05 18-7.95 3.95-1.55 7.5-2.5 5.55-1.75 5.3-1.9l3.85-1.75q10.65-5 15.8-8.3 5.2-3.85 7.85-5.45l1.95-1.75q6.3-6.95 14.9-30.45l3.75-11.05q10.7-32.65 6.8-53.45l-.2-.7-.2-.9m-97.55 188q4.15 3.95 8.4 6.4l18.95-5.55q6.9-2.1 13.9-4.7 17.8-6.2 37.35-14.55 4.45-2.15 9.5-4.25 5.95-2.8 12.35-5.7m-72.45 24.45-5.15.45q-15.85-14.25-21.2-35.15l17.3-8.05 5.8.2q11.4 1.2 15.4 13.6l7.3 15.55-.85 4.1q-4.6 4.15-9.9 6.75-4.4 1.65-8.7 2.55m-2.95 51.75 3.5-.45q11-2 23.1-5.25m5.6-126.9-18.3 6.15m-.45.1-8.4 2.75-.9.2-3.1-3.7q-15.2-18.05-18-39.4-13.4-.5-18.65-4.85-42.8-9.15-80.15-16m159.05-35.65q9.65-5.2 19.75-9.55l4.45-2.15m-31.4 15.55 7.2-3.85m-7.2 3.85-1.7-6.5-1.45-12.55q2.25-.6 7.85-3.1 14.55-3.9 25.2-3.55m-43.35 33.65q6.6-4.15 13.45-7.95m-77.4 28.2q.3 1.1 1.95 3.85m-1.95-3.85q-.15-.45-.05-1.15m60.5 7.3q-2.2 8.75-6.1 15.8-18.25 2.75-30 2.5m50.85 46.4-2 .8-19.2-.85m57.15 99.25q-12.6 5.05-24.25 9.15l-8.3 2.9-1.8.5-8.9 2.65M829.5 955.3q8.85 9.65 16.95 17.35m63-39q-2.25 7.8-3.35 20.6"/><path stroke-linejoin="round" stroke-linecap="round" stroke="#000" fill="none" d="M398.3 3.65 410 15q43.5 44 75.6 101.95 37.95 68.85 82.35 130.7l38.3 53.6Q607.3 225 563.9 140.3l2.3-4.55v-.1l3.4-6.95q47.9 41.45 82.8 97.75 22.15 35.8 46.85 70.05 13.05 18.15 26.9 35.85 8.15-42.55 10.2-55.1 2.25-14.05.5-37-2.35-22.1-2.55-27l.1.1q14.45 37.45 47.65 80.7l2.2 2.8q14.25 17.8 45.5 52.75 18.15 22.65 29.9 47.1 5.6 11.7 9.75 23.9 1.55 4.6 2.9 9.75l1.85 7.8q25.1-52.45 25.95-74.15l.4-7.9q1-14.2 3.1-13.7 2.55.7 4.15-2.2 2.85 6.5 7.3 23.35 4.45 16.85 11.3 29.2l39.95 70.05q33.05 57.85 39.1 108.55 2.45 20.6-10.9 61.5 20-5.6 29.95-4.4-11.6 2.95-20.2 9.85l24.7-10.95q6.5-.95 12.65 3.3l40.3-15.15q11.3-4.4 25.1-13.05 13.7-8.65 19.4-11.35-1.55 2.8-.2 3.75 1.1.75-8.8 10.7l-5.6 5.45q-2.55 2.4-5.45 5.75l122.7-31.85q59.4-19.75 123.25-46.25l.55-.25.1-.05q3.25-1.45 5.95-2.55l1.8-.7.4.1.05-.25 1.25-.3q58.05-23.65 111.15-29.8 113.05 87.9 70.45 220.05-38.5 34.7-79.9 40.05l-.25.05q1.45 78.6-39.1 81.7-3.7.25-7.8-.1l-16.1.95-6.6.45-25.1 1.7q-132.8 9.6-242.7 28.55l-1.15.15q-2.2 1.65-3.85 3.7-6.95 8.95-3.7 26.05l.4 1.95.2.65.1 1.3.05.1.1.1q5 5 8.75 11 8.7 13.8 10.85 32.85-13.1 10.8-27.45 20.45l-6.85 19.6-1.7 3.95q-2.35 4.25-6.15 7.55-5.5 4.75-7.4 4.75-.75 0-12.15 3.9 10.65 5.5 21.85 11 4.7 12.05 0 24.1-2.25 53.3 15.75 126.9l-7.2 1.25h-.2l7.65 234.65q22.5 8.5 41.6 20.1 29.25 17.75 50.4 42.8 7.95 20.45 26.35 29.25v19.35l13.15 3.6v18.5l-8.15 11.55v13.15l-8.2 5.15v10.25l-15.55 13.55q-1.85 6.7-7.4 14.2-3.5 4.85-8.55 10.05-31.55 26.35-82.75-26.55-108.3-17.2-145.55-80.35-85.4-6.25-89-48.4-213.05 28.75-412.3 44.65-16.75 29.3-88.3 34.5-39.1 66.2-152.65 84.25-53.7 55.45-86.75 27.85-5.3-5.45-8.95-10.55-5.8-7.9-7.75-14.9l-16.3-14.2v-10.75l-8.6-5.35v-13.8l-8.55-12.15v-19.4l13.8-3.75v-20.3q19.2-9.2 27.6-30.65 22.15-26.25 52.9-44.9 12.55-7.65 26.6-14l-28.3-19.8q-12.1 3.65-19.15 6.5-70.9-2.6-112.25-21.3-33.85-26.85-47.8-53.6l-3.1-6.6-1.3-3.15q2.45-14.1 5.1-27.85 22.3-113.25 60.9-201.55l3-6.7q4.15-9.3 8.45-18.25l2.6-5.1 16.45-12.8q6.3-43 15.05-97.5l9.3-11.35q83.45-5.3 169.5-12.65-23.85-15.45-49.9-35.75l-39.65-34.9q-5.4-4.9-52.6-39.95-47.15-35.05-67.5-43l-7.25-2.9q-12.95-5.4-12.25-6.55.9-1.4-1.55-3.4 6.25.35 22.25 3.1 16.05 2.8 28.2 2.6l63.7-1.95q-6.5-10.4-12.6-21.6-26-53.1-39.65-78.15l-2.2-3.95Q85.35 629.6 52.65 595.4l-.1-.15 7.1 3.95 18.55 11.25q21.8 12.5 35.95 16.25 14.15 3.55 66.3 14.9-6-27.35-9.25-56.55l-.6-5.2q-3.25-27.85-11-55.1l-.95-2.9Q137.9 451.8 87.1 385.35l-.55-12.4q39.3 23.85 74.9 64.45 35.65 40.75 72.95 75.4l4.65 4.35q-.45-7.75-.65-15.7 3.65-40.3 4.45-46.65.8-6.4-2.8-60.75-3.7-54.4-15.1-76.55l-3.9-7.9q-6.8-14.2-4.45-13.7 2.9.7 2.9-2.2 6.45 6.5 20.2 23.35t27.35 29.2l72.55 64.7q-4.85-13.4-9.05-27.6-15.4-60.65-24-89.75l-1.5-4.5q-12.05-38.8-25.3-69.95-10.4-24.6-21.55-44.45 4.25 4.25 21.8 23.9 18.75 20.15 31.75 29 18.65 12.45 109.35 68.85 8.8-33.85 10.95-68.85l.1-4.15q4.5-99.25-44.9-208.1l6.3-16 4.75 4.3z" transform="translate(.95 1.15)"/></g><linearGradient y2="-.067" y1=".995" x2=".983" x1=".078" spreadMethod="pad" id="f"><stop stop-color="#a0a0a0" offset="0"/><stop stop-color="#ccc" offset=".729"/><stop stop-color="#fff" offset="1"/></linearGradient><linearGradient y2=".088" y1=".653" x2="1.767" x1=".11" spreadMethod="pad" id="g"><stop stop-color="#4d4d4d" offset=".129"/><stop stop-color="#ccc" offset=".863"/></linearGradient><linearGradient y2="-.605" y1=".915" x2=".854" x1=".451" spreadMethod="pad" id="h"><stop stop-color="#a0a0a0" offset="0"/><stop stop-color="#ccc" offset=".416"/><stop stop-color="#fff" offset="1"/></linearGradient><linearGradient y2=".167" y1=".918" x2=".723" x1=".167" spreadMethod="pad" id="i"><stop stop-color="#a0a0a0" offset="0"/><stop stop-color="#ccc" offset=".416"/><stop stop-color="#fff" offset="1"/></linearGradient><use xlink:href="#j" width="57.95" height="106.6" id="b"/><use xlink:href="#k" width="102.95" height="45" id="n"/><path fill-rule="evenodd" fill-opacity="0" fill="#f0f" d="M0 0h102.95v45H0V0" id="k"/></defs><path fill="none" d="M-1-1h250v263H-1z"/><use x="102" y="246" xlink:href="#l" width="381" transform="translate(-192.55 -294)" height="381"/><use x="678.226" y="1607.843" xlink:href="#m" width="1557.3" transform="matrix(.153 0 -.0011 .153 -97.044 -243.126)" height="1672.55"/><use x="-3.873" y="-.605" xlink:href="#n" width="102.95" transform="matrix(1.8072 0 0 1.6538 71.7 79.25)" height="45"/></svg>