<svg width="211" height="277" xmlns="http://www.w3.org/2000/svg" xmlns:xlink="http://www.w3.org/1999/xlink"><defs><g transform="translate(2 3.1)" id="r"><use xlink:href="#a" width="205.3" transform="translate(-1.357 333.835) scale(5.7225)" height="199.75"/><use xlink:href="#b" width="117.15" transform="translate(445.2 1001.944) scale(5.7225)" height="102.9"/><use xlink:href="#c" width="100.2" transform="matrix(5.7225 0 .0344 5.7225 456.315 580.423)" height="100.4"/><use xlink:href="#d" width="82.6" transform="matrix(5.7225 0 .5186 5.7225 409.568 180.668)" height="99.15"/><use xlink:href="#e" width="102.4" transform="matrix(5.6007 -.5717 .2218 5.7859 472.738 55.431)" height="76.9"/><use xlink:href="#f" width="1179" transform="translate(-2 14.9)" height="1571.85"/></g><g id="o"><path fill-rule="evenodd" fill="#cd9d76" d="m-38.15-86.15 18.3-1.2 27.8-5.2q24.3-2.4 37.6 2.6l20.75 5.6 4.45.3q8.2 7.65 14.1 19.7 2.4 8.05 1.25 17-.4 3.05-3.45 15.9 2.8.8-15.45 6 1.2-13-3.35-20.85-5.4-9.35-15.8-5.3l-7.45 2.95q-4.9 1.75-9.1 2.15Q19.7-45.3 8.25-54q-3.8-2.9-8.6-1.3-3.05.95-8.85 5-6.1 4.25-9 5.4-5.1 2-9.25-.2-11.3-6-12.55-1.45-.25.95-.35 5.5-.1 4.1-1.1 6.4-.2.5-3.2-.65-4.25-1.7-6.4-2.15-9.3-1.95-10.6 8-.2 1.75-3.35 3.6-2.95 1.75-4.75 1.6-6.4-.55-7.6 9.65-1.2 9.75 3.1 17.75 8 15.05 17 12.45 9-2.65 5.35 6.65-3.7 9.25 7.05 10.2 10.75.95 16.15 6.9 2.35 4 5.6 4.65 2.2.45 6.25-.75 4.8-1.35 6.65-1.45 3.8-.15 18.2 9.5Q1.9 64-7.1 83.95q-9.05 19.95-27.65 16.8h-.05q-32.15-16.4-61.75-51.35l-10.25-17.1q-5-14.35-6.7-34.3-.25-17.25 3.15-29.1l5.15-13.85q10.35-12.7 29.25-23.45 19.25-10.95 37.8-17.75" transform="translate(118.35 98.5)"/><path fill-rule="evenodd" fill="#b07e5b" d="M8 51.3q-14.4-9.65-18.2-9.5-1.85.1-6.65 1.45-4.05 1.2-6.25.75-3.25-.65-5.6-4.65-5.4-5.95-16.15-6.9-10.75-.95-7.05-10.2 3.65-9.3-5.35-6.65-9 2.6-17-12.45-4.3-8-3.1-17.75 1.2-10.2 7.6-9.65 1.8.15 4.75-1.6 3.15-1.85 3.35-3.6 1.3-9.95 10.6-8 2.15.45 6.4 2.15 3 1.15 3.2.65 1-2.3 1.1-6.4.1-4.55.35-5.5 1.25-4.55 12.55 1.45 4.15 2.2 9.25.2 2.9-1.15 9-5.4 5.8-4.05 8.85-5 4.8-1.6 8.6 1.3 11.45 8.7 23.25 7.5 4.2-.4 9.1-2.15l7.45-2.95q10.4-4.05 15.8 5.3 4.55 7.85 3.35 20.85-24.35 1.15-27.1-1.05t-13.15-2.2l-15.35-.45q-18.15-1.5-38.65 9.5-9.05 4.8-7.95 14.1.8 7.2 5.7 11.85 9 8.5 28.7 20.05 4.45 3.65 9.45 6.8Q13.8 36.25 8 51.3" transform="translate(118.35 98.5)"/><path fill-rule="evenodd" fill="#fccba6" d="m70.75-84.05-4.45-.3-20.75-5.6q-13.3-5-37.6-2.6l-27.8 5.2-18.3 1.2q21.65-8 42.35-10.35 24.3-2.8 39.3-.45 15.85 2.25 27.25 12.9m-175.95 39.1-5.15 13.85q-3.4 11.85-3.15 29.1 1.7 19.95 6.7 34.3l10.25 17.1-10.5-13.05q-11.1-14.6-10.8-47.8.1-18.2 12.65-33.5" transform="translate(118.35 98.5)"/><path stroke-opacity=".302" stroke-linejoin="round" stroke-linecap="round" stroke="#331b09" fill="none" d="M70.75-84.05Q59.35-94.7 43.5-96.95q-15-2.35-39.3.45-20.7 2.35-42.35 10.35-18.55 6.8-37.8 17.75-18.9 10.75-29.25 23.45m8.65 94.35q29.6 34.95 61.75 51.35h.05m117.4-132.2q3.05-12.85 3.45-15.9 1.15-8.95-1.25-17-5.9-12.05-14.1-19.7M-.6 26.35Q-20.3 14.8-29.3 6.3-34.2 1.65-35-5.55q-1.1-9.3 7.95-14.1 20.5-11 38.65-9.5l15.35.45m-123.5 78.1-10.5-13.05q-11.1-14.6-10.8-47.8.1-18.2 12.65-33.5" transform="translate(118.35 98.5)"/><path stroke-width=".05" stroke-opacity=".502" stroke-linejoin="round" stroke-linecap="round" stroke="#fffdf2" fill="none" d="m61.45 157.55-.25 3.95.15 4.95q.15 2 1.35 2.4 1.05.5 1.8-1.2.8-1.8.3-4.9l-.6-4.15m-17.1-21.15-.75 3.75-.35 4.7q.1 1.95 1.65 2.6 1.45.6 2.7-.85 1.2-1.55.8-4.6L50.8 139m21.8 42.15q-.35 1.05-.5 2.6l-.25 3.25q.05 1.35 1.1 1.8 1 .4 1.85-.6.9-1.05.6-3.2l-.25-2.8"/><path fill-rule="evenodd" fill="#1e7f40" d="M82.25-30.15q-9 4-16.75 5.35l-17.55.3q-.85-1.25 2.5-2.5 7.45-2.15 14.65-.5.8-1.2 2.1-2.35 7.5-5.85 13-4.95 3 .4 2.05 4.65" transform="translate(118.35 98.5)"/><path stroke-width=".05" stroke-linejoin="round" stroke-linecap="round" stroke="#fffdf2" fill="none" d="M166.3 74q-.85-1.25 2.5-2.5 7.45-2.15 14.65-.5.8-1.2 2.1-2.35 7.5-5.85 13-4.95 3 .4 2.05 4.65"/></g><g transform="translate(63.6 73.85)" id="b"><use xlink:href="#g" width="109.25" transform="translate(-63.6 -73.85)" height="97.3"/><use xlink:href="#h" width="28.65" transform="matrix(.913 0 .2725 1 -19.088 -23.8)" height="34.4"/><use xlink:href="#h" width="28.65" transform="matrix(.8195 -.1479 .1251 .9774 2.638 -54.039)" height="34.4"/><use xlink:href="#h" width="28.65" transform="matrix(.4807 -.0868 .1024 .6529 33.69 -55.385)" height="34.4"/><use xlink:href="#h" width="28.65" transform="matrix(.6751 .0446 -.2994 .6702 31.762 -.167)" height="34.4"/><use xlink:href="#h" width="28.65" transform="matrix(.6751 0 .0698 .8496 15.261 -21.013)" height="34.4"/><use xlink:href="#h" width="28.65" transform="matrix(.9979 .0835 -.1665 .4235 -12.606 12.067)" height="34.4"/><use xlink:href="#h" width="28.65" transform="matrix(.4807 -.0868 .1261 .8035 35.434 -31.774)" height="34.4"/><use xlink:href="#i" width="13.55" transform="translate(-32.05 -45.8)" height="42.9"/></g><g id="g"><path fill-rule="evenodd" fill="#b8796a" d="m25.2 18.9-51.55 4.05q10-4.05 13.35-5.65 5.4-2.5 5.3-6.85.65-6.9-.2-16.7-1.05-11.85-.6-19.85.65-11.55 4.3-22.6 2.65-8.05.15-17-1.25-4.5-2.8-7.85l26.4.8q16.7 45.3 5.65 91.65" transform="translate(63.6 73.85)"/><path fill-rule="evenodd" fill="#a16a5d" d="M19.55-72.75Q33.5-70.1 40.15-58.2q5.7 14.2 5.5 33-.1 10.85-3.4 37.45L25.2 18.9q11.05-46.35-5.65-91.65" transform="translate(63.6 73.85)"/><path fill-rule="evenodd" fill="#cd9d76" d="M-26.35 22.95Q-60.3 9.25-61.4 5.05q-9.55-38.2 22.05-67 5.9 16.85 9.1 13.25 3.15-3.65 4.95-6.85 1.8-3.25.25-15.3 8.55-3.95 18.2-2.7 1.55 3.35 2.8 7.85 2.5 8.95-.15 17-3.65 11.05-4.3 22.6-.45 8 .6 19.85.85 9.8.2 16.7.1 4.35-5.3 6.85-3.35 1.6-13.35 5.65" transform="translate(63.6 73.85)"/><path fill-rule="evenodd" fill="#b07e5b" d="M-39.35-61.95q.35-1.05 6.25-4.5 5.1-3.1 8.05-4.4 1.55 12.05-.25 15.3-1.8 3.2-4.95 6.85-3.2 3.6-9.1-13.25" transform="translate(63.6 73.85)"/><path stroke-opacity=".302" stroke-linejoin="round" stroke-linecap="round" stroke="#331b09" fill="none" d="M-26.35 22.95Q-60.3 9.25-61.4 5.05" transform="translate(63.6 73.85)"/></g><g id="p"><path fill-rule="evenodd" fill="#d1745e" d="m8.6-14.9.05.05q3.8 2.6 4.85 8.15 1.1 6.3-2 12.8-3.15 6.35-8.75 9.1-5.6 2.8-10.35.3l-1.95-1.3-1.25-4.3q-2.35-6.5.65-13.25 3.15-6.2 8.65-9.5 6.35-1.85 10.8 1l-.7-3.05M7.7 6.8l.7-1.35q.8-1.7 1.4-4.3.35-1.5-.05-3.9-.75-4.1-3.8-5.7Q3.4-9.75.6-8.8l-1.35.55q-3.6 1.75-5.6 5.9-1.35 2.7-1.5 5.3-.1 1.45.2 2.9.7 4 3.8 5.65 1.15.65 2.4.75 2 .2 4.25-.95 2.95-1.45 4.9-4.5" transform="translate(14.35 17.2)"/><path fill-rule="evenodd" fill="#b36350" d="M9.8 1.15q-.6 2.6-1.4 4.3L7.7 6.8 3.4 3.2l4.3 3.6q-1.95 3.05-4.9 4.5-2.25 1.15-4.25.95Q-3.55 7.9-3.35 5l1 .4 4-.9L3.4 3.2l-.1-4.7q2.65.2 6.5 2.65" transform="translate(14.35 17.2)"/><path fill-rule="evenodd" fill="#d68d60" d="m8.6-14.9.7 3.05q-4.45-2.85-10.8-1-5.5 3.3-8.65 9.5-3 6.75-.65 13.25l1.25 4.3q-3.1-2.6-4-7.55-1.15-6.35 2-12.7 3.15-6.45 8.75-9.2 5.55-2.8 10.35-.25l1.05.6" transform="translate(14.35 17.2)"/><path fill-rule="evenodd" fill="#9e5747" d="M9.8 1.15Q5.95-1.3 3.3-1.5l.05-3.65L.6-8.8q2.8-.95 5.35.35 3.05 1.6 3.8 5.7.4 2.4.05 3.9" transform="translate(14.35 17.2)"/><path fill-rule="evenodd" fill="#854a3b" d="m3.3-1.5.1 4.7-1.75 1.3-4 .9-1-.4-4.5-2.05q.15-2.6 1.5-5.3 2-4.15 5.6-5.9L.6-8.8l2.75 3.65L3.3-1.5" transform="translate(14.35 17.2)"/><path fill-rule="evenodd" fill="#c26c57" d="M-1.45 12.25q-1.25-.1-2.4-.75-3.1-1.65-3.8-5.65-.3-1.45-.2-2.9L-3.35 5q-.2 2.9 1.9 7.25" transform="translate(14.35 17.2)"/><path stroke-opacity=".302" stroke-linejoin="round" stroke-linecap="round" stroke="#331b09" fill="none" d="m-9.55 14.2 1.95 1.3q4.75 2.5 10.35-.3 5.6-2.75 8.75-9.1 3.1-6.5 2-12.8-1.05-5.55-4.85-8.15m-.05-.05-1.05-.6q-4.8-2.55-10.35.25-5.6 2.75-8.75 9.2-3.15 6.35-2 12.7.9 4.95 4 7.55" transform="translate(14.35 17.2)"/><path stroke-width=".05" stroke-opacity=".302" stroke-linejoin="round" stroke-linecap="round" stroke="#57270f" fill="none" d="m22.05 24 .7-1.35q.8-1.7 1.4-4.3-3.85-2.45-6.5-2.65m.1 4.7 4.3 3.6q-1.95 3.05-4.9 4.5-2.25 1.15-4.25.95M11 22.2q-.2 2.9 1.9 7.25"/><path stroke-width=".05" stroke-opacity=".302" stroke-linejoin="round" stroke-linecap="round" stroke="#eba78d" fill="none" d="M12.9 29.45q-1.25-.1-2.4-.75-3.1-1.65-3.8-5.65-.3-1.45-.2-2.9.15-2.6 1.5-5.3 2-4.15 5.6-5.9l1.35-.55q2.8-.95 5.35.35 3.05 1.6 3.8 5.7.4 2.4.05 3.9"/></g><g transform="translate(55.55 79.9)" id="c"><use xlink:href="#j" width="100.2" transform="translate(-55.55 -79.9)" height="97.4"/><use xlink:href="#h" width="28.65" transform="matrix(.7784 -.2312 .3918 .922 -22.009 -26.042)" height="34.4"/><use xlink:href="#h" width="28.65" transform="matrix(.5799 -.3259 .3918 .922 -14.36 -57.933)" height="34.4"/><use xlink:href="#h" width="28.65" transform="matrix(.3401 -.1911 .3356 .5784 3.547 -66.305)" height="34.4"/><use xlink:href="#h" width="28.65" transform="matrix(.5255 -.1561 .2442 .7173 21.06 -19.347)" height="34.4"/><use xlink:href="#h" width="28.65" transform="matrix(.5255 -.1561 .2727 .8012 4.619 -30.892)" height="34.4"/><use xlink:href="#h" width="28.65" transform="matrix(.8703 -.2381 .2159 .5079 -2.602 3.03)" height="34.4"/><use xlink:href="#h" width="28.65" transform="matrix(.3401 -.1911 .4129 .7117 14.166 -44.898)" height="34.4"/><use xlink:href="#k" width="3.9" transform="translate(-30.5 -40.6)" height="7.2"/></g><g id="j"><path fill-rule="evenodd" fill="#b8796a" d="M.7 17.5Q-.75 8.3-5.8-3.35q-2.9-6.8-9.5-20.25-5.7-12.1-7.95-20.35-3-11.3-1.6-21.25 1-7.2 3.95-8.55 3.45-1.6 14.75 1.15l32.5 84.45L.7 17.5" transform="translate(55.55 79.9)"/><path fill-rule="evenodd" fill="#a16a5d" d="M-6.15-72.6q7.6 1.85 18.2 5.7Q31.7-34 44.15 7.9l-17.8 3.95-32.5-84.45" transform="translate(55.55 79.9)"/><path fill-rule="evenodd" fill="#cd9d76" d="M-6.15-72.6q-11.3-2.75-14.75-1.15-2.95 1.35-3.95 8.55-1.4 9.95 1.6 21.25Q-21-35.7-15.3-23.6q6.6 13.45 9.5 20.25Q-.75 8.3.7 17.5L-18.25 6.25Q-25.5-30.15-50.8-73.7l34.3-6.2 28.55 13q-10.6-3.85-18.2-5.7" transform="translate(55.55 79.9)"/><path fill-rule="evenodd" fill="#b07e5b" d="M-50.8-73.7q25.3 43.55 32.55 79.95L-27.85.5q-2.7-12.55-14.25-37-10.85-23.05-12.95-36.45l4.25-.75" transform="translate(55.55 79.9)"/><path stroke-opacity=".302" stroke-linejoin="round" stroke-linecap="round" stroke="#331b09" fill="none" d="M-55.05-72.95q2.1 13.4 12.95 36.45 11.55 24.45 14.25 37m39.9-67.4Q31.7-34 44.15 7.9" transform="translate(55.55 79.9)"/></g><g transform="translate(37.65 79.7)" id="d"><use xlink:href="#l" width="78.7" transform="translate(-37.65 -79.7)" height="97.3"/><use xlink:href="#h" width="28.65" transform="matrix(.8378 0 -.0322 1 -11.868 -34.15)" height="34.4"/><use xlink:href="#h" width="28.65" transform="matrix(.6913 -.1479 -.0322 1 9.384 -62.627)" height="34.4"/><use xlink:href="#h" width="28.65" transform="matrix(.4055 -.0868 .0648 .6529 29.867 -65.585)" height="34.4"/><use xlink:href="#h" width="28.65" transform="matrix(.5656 0 -.0825 .7605 25.952 -15.381)" height="34.4"/><use xlink:href="#h" width="28.65" transform="matrix(.5656 0 -.0921 .8496 15.469 -31.213)" height="34.4"/><use xlink:href="#h" width="28.65" transform="matrix(.9279 .0196 -.0178 .5509 -6.46 -.057)" height="34.4"/><use xlink:href="#h" width="28.65" transform="matrix(.4055 -.0868 .0797 .8035 30.61 -41.974)" height="34.4"/></g><g id="l"><path fill-rule="evenodd" fill="#b8796a" d="M-3.5 17.6Q-13.85-22.55.1-55.7q8.05-7.5 18.7-8.8-9.4 49.15.85 78.65L-3.5 17.6" transform="translate(37.65 79.7)"/><path fill-rule="evenodd" fill="#a16a5d" d="M18.8-64.5q9.75-1.2 21.75 2.8-8.8 35.35-5.2 68.5l-15.7 7.35Q9.4-15.35 18.8-64.5" transform="translate(37.65 79.7)"/><path fill-rule="evenodd" fill="#cd9d76" d="M18.8-64.5Q8.15-63.2.1-55.7q-13.95 33.15-3.6 73.3l-22.25-13q-7.8-16.5-6.15-62.9 2.25-7.65 5.6-14.85 22.65-11.2 43.75-3.3l23.1 14.75q-12-4-21.75-2.8" transform="translate(37.65 79.7)"/><path fill-rule="evenodd" fill="#b07e5b" d="M-31.9-58.3q-1.65 46.4 6.15 62.9L-35.9-1.35q-3.85-30.9 4-56.95" transform="translate(37.65 79.7)"/><path stroke-opacity=".302" stroke-linejoin="round" stroke-linecap="round" stroke="#331b09" fill="none" d="M-26.3-73.15q-3.35 7.2-5.6 14.85m-4 56.95q-3.85-30.9 4-56.95m72.45-3.4q-8.8 35.35-5.2 68.5" transform="translate(37.65 79.7)"/></g><g transform="translate(18.7 50.4)" id="e"><use xlink:href="#m" width="100.45" transform="translate(-18.7 -50.4)" height="71.65"/><use xlink:href="#h" width="28.65" transform="matrix(.7551 .274 -.5039 .506 19.531 -13.434)" height="34.4"/><use xlink:href="#h" width="28.65" transform="matrix(.6933 .1497 -.5039 .506 52.168 -21.2)" height="34.4"/><use xlink:href="#h" width="28.65" transform="matrix(.4067 .0878 -.2516 .3584 72.042 -16.075)" height="34.4"/><use xlink:href="#h" width="28.65" transform="matrix(.5098 .185 -.4355 .3659 44.675 8.603)" height="34.4"/><use xlink:href="#h" width="28.65" transform="matrix(.5098 .185 -.4864 .4087 42.801 -2.984)" height="34.4"/><use xlink:href="#h" width="28.65" transform="matrix(.827 .3136 -.2776 .2787 8.107 5.855)" height="34.4"/><use xlink:href="#h" width="28.65" transform="matrix(.4067 .0878 -.3097 .4411 61.54 -3.597)" height="34.4"/><use xlink:href="#n" width="25.9" transform="translate(-11.75 -42.35)" height="28.8"/></g><g id="m"><path fill-rule="evenodd" fill="#b8796a" d="M1.6 19.3Q-.35 3.8 12.25-6q10.35-8 24-8.75 6.1-.35 16.7-2.55 9-1.9 13.55-1.55 12.95.9 14.7 5.35-.25 3.95-1.25 8.55-12.4 17.3-34.1 24.7Q36.2 23 1.6 19.3" transform="translate(18.7 50.4)"/><path fill-rule="evenodd" fill="#cd9d76" d="M81.2-13.5q-1.75-4.45-14.7-5.35-4.55-.35-13.55 1.55-10.6 2.2-16.7 2.55Q22.6-14 12.25-6-.35 3.8 1.6 19.3q-9.45-5.65-14.4-17-2.35-3.95-5.4-24.65 3.55-8.7 12.55-12.8L2.05-38q5.15-1.65 7.35-2.65 5.25-2.4 10.45-4.2-1.7 1.85-1.3 2.45.35.5 3.05.35l20.35-1.5Q54.8-42 61.2-36.85q4 3.15 7.1 9.8 3 6.55 12.95 10.1l-.05 3.45" transform="translate(18.7 50.4)"/><path fill-rule="evenodd" fill="#fccba6" d="M81.25-16.95Q71.3-20.5 68.3-27.05q-3.1-6.65-7.1-9.8-6.4-5.15-19.25-6.7l-20.35 1.5q-2.7.15-3.05-.35-.4-.6 1.3-2.45 14.6-5 28.9-5.05Q68.9-45.55 78.6-27.85q2.45 4.5 2.65 10.9" transform="translate(18.7 50.4)"/><path stroke-opacity=".302" stroke-linejoin="round" stroke-linecap="round" stroke="#331b09" fill="none" d="m81.2-13.5.05-3.45q-.2-6.4-2.65-10.9-9.7-17.7-29.85-22.05-14.3.05-28.9 5.05-5.2 1.8-10.45 4.2-2.2 1-7.35 2.65l-7.7 2.85q-9 4.1-12.55 12.8m64.05 42.1q21.7-7.4 34.1-24.7 1-4.6 1.25-8.55L45.85 19.75z" transform="translate(18.7 50.4)"/></g><g id="n" fill-rule="evenodd"><path fill="#926850" d="M12.1-37.45Q8.9-29 8.9-20.55l-20.6 7q-.45-9.15 3.4-16.1l20.4-7.8" transform="translate(11.75 42.35)"/><path fill="#ffd7b8" d="m12.1-37.45-20.4 7.8q2-3.65 5.15-6.7l17.3-6-2.05 4.9" transform="translate(11.75 42.35)"/></g><g id="t" stroke-opacity="0" stroke-linejoin="round" stroke-linecap="round" stroke="#f0f" fill="none"><path d="M187.95-293.5v380h-380v-380h380M92.95.6H-97" transform="translate(192.55 294)"/><path d="m187.95-293.5-190 190 190 190m-380-380 190 190L-192 86.5" transform="translate(192.55 294)"/></g><path d="M13.55 33.25q-.3 1.55-.95 3.65-.8 2.6-1.55 4.4-.8 1.75-2.05 1.6-1.2-.05-1.4-1.95-.2-1.9 1.2-4.45l1.75-3.55M6 .3q-.3 1.55-.95 3.65-.8 2.6-1.55 4.4-.8 1.75-2.05 1.6Q.25 9.9.05 8q-.2-1.9 1.2-4.45L3 0" id="i" stroke-width=".05" stroke-opacity=".502" stroke-linejoin="round" stroke-linecap="round" stroke="#fffdf2" fill="none"/><path stroke-width=".05" stroke-opacity=".502" stroke-linejoin="round" stroke-linecap="round" stroke="#fffdf2" fill="none" d="m3.4.2.4 2.65.05 3.2q-.1 1.25-1.3 1.15-1.15-.05-2-1.4-.85-1.4-.4-3.25L.55 0" id="k"/><path stroke-width="4" stroke-linejoin="round" stroke-linecap="round" stroke="#000" fill="none" d="M1151.4 708.45v-.85q4.05-2.6 2.9-4.05 18.3-73.8 20.6-91.25 6.55-52.05-7.15-98.7l-.3-.3q-34.05-69.55-81.25-113.6-50.1-46.9-114.75-65.25 40.35-38.05 69.8-86.1l.3-.85q2.6-16.9 4-31.2v-.3l.85-12.85v-.3l.3-6.3q0-10.3-.55-19.75-2.3-37.75-17.45-62.95Q969.45 15.75 854.45 2h-.6q-80.4 8.3-161.65 46.05-27.75 12.6-55.25 28.9-1.1.6-1.1 1.75-.3.85 0 1.7-34.65 16-69 32.35l-.85-.6q-1.4-.55-2.3 0-7.4 3.45-12.55 6.85-49.5 28.65-67.85 81-.25.3-.25.85-.3-.3-.6-.3-1.15-.55-2.25 0-1.15.6-1.45 1.75-15.45 41.2-24.6 85.25-10.6 51.8-13.15 106.7-97.3 37.5-197.75 94.75-108.7 61.5-167.95 134.75-72.65 88.1-73.25 193.4-1.7 191.15 62.4 275.25 29.75 38.95 60.35 75 169.7 200.25 354.25 294.4.85.6 2 .3l1.15-.6 1.7 1.15q45.2 28.05 177.1 81.25l2-.25 1.75-1.45v-1.45l54.65-4.25.25 1.4q.6 13.2 17.2 21.75 4.25 2.3 10.3 4.6 25.45 8.3 60.65 4.3 34.9-4.05 59.5-18.35 20.9-12.55 24.3-26 0-.6.3-1.15l60.1-4.9v.3q.55 7.75 4.85 13.75 2.3 3.15 5.75 6 15.15 12 43.45 2 26.65-9.45 50.4-33.75 23.45-24.35 30.3-49.5 6-23.45-5.15-35.5h-.3l-3.4-2.85q-6.6-5.15-15.2-6.3h-.25l3.4-31.2q11.75 1.45 22.35-10.55 13.7-16.05 18-47.8 4-32.05-3.7-60.95-7.15-26.6-20.05-36.9h-.25l-3.45-2.3q-2.6-1.7-4.85-2.3h.25q-.85-.25-1.1-.55-.6-5.45-.9-10.9l1.45-1.4.3-.3q14-13.45 19.15-39.75 4.85-26.35-2-50.1-6.6-21.45-19.15-29.45l-3.75-2.3q-11.7-5.45-22.3.3l-3.45-9.15-6.3-10.3q-1.7-4.6-2.85-9.2-9.7-30.9-19.75-60.9 0-.9-.55-1.45-.85-.85-2-1.15l.25-9.15q.3-29.45-12-54.35-8.85-17.45-20.3-25.5.55-1.1.3-2.25-.3-1.15-1.15-1.75l-3.45-2-5.7-14.3 1.7-5.15q4.3-17.45-4.85-46.9-9.2-29.8-26.65-54.1-15.15-21.75-28.9-28.05-1.4-.85-2.55-1.15l-11.45-22.3q0-.85.3-1.7m175.65 483.25v-.3h.3q-.3 0-.3.3M518.8 775.7q.85.25 2-.3 8.3 18.6 17.75 38.35 52.05 109.3 73.25 177.1l-3.75-2.3q-60.65-40.05-94.4-71.8-27.2-26.05-31.75-66.1-5.75-47.2 36.6-73.55-.85-1.4-1.15-2.85.3.85 1.45 1.45" id="f"/><path fill-rule="evenodd" fill-opacity="0" fill="#f0f" d="M0 0h102.95v45H0V0" id="q"/><use xlink:href="#o" width="205.3" height="199.75" id="a"/><use xlink:href="#p" width="28.65" height="34.4" id="h"/><use xlink:href="#q" width="102.95" height="45" id="s"/></defs><path fill="none" d="M-1-1h213v279H-1z"/><use x="751.88" y="1307.114" xlink:href="#r" width="1179" transform="translate(-126.546 -226.536) scale(.1729)" height="1593.9"/><use x="-1.107" xlink:href="#s" width="102.95" transform="matrix(1.8072 0 0 1.6538 22.95 97.8)" height="45"/><use x="130" y="226" xlink:href="#t" width="381" transform="translate(-192.55 -294)" height="381"/></svg>