<svg width="321" height="214" xmlns="http://www.w3.org/2000/svg" xmlns:xlink="http://www.w3.org/1999/xlink"><defs><linearGradient y2=".69" y1=".247" x2=".382" x1=".706" spreadMethod="pad" id="b"><stop stop-color="#511" offset="0"/><stop stop-color="#532d1c" offset="1"/></linearGradient><linearGradient y2="1.004" y1="-.006" x2=".501" x1=".501" spreadMethod="pad" id="c"><stop stop-color="#440d0d" offset="0"/><stop stop-color="#341818" offset="1"/></linearGradient><linearGradient y2=".999" y1="-.007" x2=".502" x1=".502" spreadMethod="pad" id="d"><stop stop-color="#440d0d" offset="0"/><stop stop-color="#341818" offset="1"/></linearGradient><linearGradient y2=".493" y1=".493" x2=".001" x1=".999" spreadMethod="pad" id="e"><stop stop-color="#511" offset="0"/><stop stop-color="#524025" offset="1"/></linearGradient><linearGradient y2=".819" y1=".212" x2=".5" x1=".5" spreadMethod="pad" id="f"><stop stop-color="#440d0d" offset="0"/><stop stop-color="#341818" offset="1"/></linearGradient><linearGradient y2=".5" y1=".5" x2="-.113" x1=".623" spreadMethod="pad" id="g"><stop stop-color="#440d0d" offset="0"/><stop stop-color="#341818" offset="1"/></linearGradient><linearGradient y2=".115" y1="-.141" x2=".578" x1=".802" spreadMethod="pad" id="h"><stop stop-color="#7c031c" offset="0"/><stop stop-color="#4a0211" offset="1"/></linearGradient><linearGradient y2=".126" y1=".531" x2="-.174" x1=".764" spreadMethod="pad" id="i"><stop stop-color="#b70000" offset="0"/><stop stop-color="#8f0101" offset="1"/></linearGradient><linearGradient y2=".405" y1=".697" x2=".571" x1=".905" spreadMethod="pad" id="j"><stop stop-color="#7c031c" offset="0"/><stop stop-color="#4a0211" offset="1"/></linearGradient><linearGradient y2=".832" y1=".296" x2="-.273" x1=".801" spreadMethod="pad" id="k"><stop stop-color="#b70000" offset="0"/><stop stop-color="#8f0101" offset="1"/></linearGradient><linearGradient y2=".924" y1=".318" x2="-.183" x1=".871" spreadMethod="pad" id="l"><stop stop-color="red" offset="0"/><stop stop-color="#f07b06" offset="1"/></linearGradient><linearGradient y2=".353" y1=".637" x2=".234" x1=".812" spreadMethod="pad" id="m"><stop stop-color="red" offset="0"/><stop stop-color="#f07b06" offset="1"/></linearGradient><linearGradient y2=".501" y1=".501" x2=".343" x1=".905" spreadMethod="pad" id="n"><stop stop-color="#511" offset="0"/><stop stop-color="#524025" offset="1"/></linearGradient><linearGradient y2=".708" y1=".352" x2=".01" x1=".931" spreadMethod="pad" id="o"><stop stop-color="#511" offset="0"/><stop stop-color="#524025" offset="1"/></linearGradient><linearGradient y2=".617" y1=".468" x2=".721" x1=".29" spreadMethod="pad" id="p"><stop stop-color="#440d0d" offset="0"/><stop stop-color="#341818" offset="1"/></linearGradient><linearGradient y2=".316" y1="-.142" x2=".557" x1=".671" spreadMethod="pad" id="q"><stop stop-color="#7c031c" offset="0"/><stop stop-color="#4a0211" offset="1"/></linearGradient><linearGradient y2=".206" y1=".786" x2=".998" x1=".359" spreadMethod="pad" id="r"><stop stop-color="#440d0d" offset="0"/><stop stop-color="#341818" offset="1"/></linearGradient><linearGradient y2=".153" y1=".624" x2=".74" x1=".392" spreadMethod="pad" id="s"><stop stop-color="#834121" offset="0"/><stop stop-color="#5f2d18" offset="1"/></linearGradient><linearGradient y2=".679" y1=".135" x2=".405" x1=".836" spreadMethod="pad" id="t"><stop stop-color="#511" offset="0"/><stop stop-color="#524025" offset="1"/></linearGradient><linearGradient y2=".739" y1=".574" x2="1.058" x1=".501" spreadMethod="pad" id="u"><stop stop-color="#440d0d" offset="0"/><stop stop-color="#341818" offset="1"/></linearGradient><linearGradient y2=".24" y1=".705" x2=".928" x1=".276" spreadMethod="pad" id="v"><stop stop-color="#c63" offset="0"/><stop stop-color="#d2a02d" offset="1"/></linearGradient><linearGradient y2=".204" y1=".79" x2=".805" x1=".357" spreadMethod="pad" id="w"><stop stop-color="#834121" offset="0"/><stop stop-color="#5f2d18" offset="1"/></linearGradient><linearGradient y2=".346" y1=".77" x2=".719" x1=".178" spreadMethod="pad" id="x"><stop stop-color="#c63" offset="0"/><stop stop-color="#d2a02d" offset="1"/></linearGradient><linearGradient y2=".374" y1=".728" x2=".695" x1=".415" spreadMethod="pad" id="y"><stop stop-color="#834121" offset="0"/><stop stop-color="#5f2d18" offset="1"/></linearGradient><linearGradient y2=".178" y1=".542" x2=".825" x1=".477" spreadMethod="pad" id="z"><stop stop-color="red" offset="0"/><stop stop-color="#f07b06" offset="1"/></linearGradient><linearGradient y2=".528" y1=".528" x2=".11" x1=".789" spreadMethod="pad" id="B"><stop stop-color="red" offset="0"/><stop stop-color="#f07b06" offset="1"/></linearGradient><linearGradient y2="33.5" y1="33.5" x2="10.673" x1="71.145" spreadMethod="pad" id="C"><stop stop-color="red" offset="0"/><stop stop-color="#c30002" offset="1"/></linearGradient><linearGradient y2=".5" y1=".5" x2=".49" x1=".132" spreadMethod="pad" id="D"><stop stop-color="#7c031c" offset="0"/><stop stop-color="#4a0211" offset="1"/></linearGradient><linearGradient y2=".388" y1=".516" x2=".859" x1=".359" spreadMethod="pad" id="E"><stop stop-color="#8f0101" offset="0"/><stop stop-color="#b70000" offset="1"/></linearGradient><linearGradient y2=".169" y1="-.481" x2=".461" x1=".119" spreadMethod="pad" id="F"><stop stop-color="#7c031c" offset="0"/><stop stop-color="#4a0211" offset="1"/></linearGradient><linearGradient y2=".108" y1=".733" x2=".561" x1=".472" spreadMethod="pad" id="G"><stop stop-color="#440d0d" offset="0"/><stop stop-color="#341818" offset="1"/></linearGradient><linearGradient y2=".497" y1=".497" x2=".683" x1=".106" spreadMethod="pad" id="H"><stop stop-color="#7c031c" offset="0"/><stop stop-color="#4a0211" offset="1"/></linearGradient><linearGradient y2=".378" y1=".542" x2=".039" x1=".815" spreadMethod="pad" id="I"><stop stop-color="#7c031c" offset="0"/><stop stop-color="#4a0211" offset="1"/></linearGradient><linearGradient y2="-.846" y1=".299" x2="-.554" x1=".365" spreadMethod="pad" id="J"><stop stop-color="#8f0101" offset="0"/><stop stop-color="#7a0105" offset="1"/></linearGradient><linearGradient y2=".411" y1=".572" x2=".069" x1=".946" spreadMethod="pad" id="K"><stop stop-color="#7c031c" offset="0"/><stop stop-color="#4a0211" offset="1"/></linearGradient><linearGradient y2=".5" y1=".5" x2="0" x1="1" spreadMethod="pad" id="L"><stop stop-color="#511" offset="0"/><stop stop-color="#524025" offset="1"/></linearGradient><linearGradient y2=".501" y1=".501" x2="1" x1="0" spreadMethod="pad" id="M"><stop stop-color="#7c031c" offset="0"/><stop stop-color="#4a0211" offset="1"/></linearGradient><linearGradient y2=".4" y1=".844" x2=".494" x1=".397" spreadMethod="pad" id="N"><stop stop-color="#440d0d" offset="0"/><stop stop-color="#341818" offset="1"/></linearGradient><linearGradient y2=".784" y1=".428" x2=".501" x1=".655" spreadMethod="pad" id="O"><stop stop-color="#384a13" offset="0"/><stop stop-color="#546b1d" offset="1"/></linearGradient><linearGradient y2=".6" y1=".296" x2=".411" x1=".815" spreadMethod="pad" id="P"><stop stop-color="#384a13" offset="0"/><stop stop-color="#546b1d" offset="1"/></linearGradient><linearGradient y2="-.002" y1="1.002" x2=".836" x1=".111" spreadMethod="pad" id="Q"><stop stop-color="#c63" offset="0"/><stop stop-color="#d2a02d" offset="1"/></linearGradient><linearGradient y2=".328" y1=".672" x2=".545" x1=".464" spreadMethod="pad" id="R"><stop stop-color="#834121" offset="0"/><stop stop-color="#5f2d18" offset="1"/></linearGradient><linearGradient y2="-.087" y1="1.087" x2=".795" x1=".15" spreadMethod="pad" id="S"><stop stop-color="#c63" offset="0"/><stop stop-color="#d2a02d" offset="1"/></linearGradient><linearGradient y2=".673" y1=".365" x2=".514" x1=".584" spreadMethod="pad" id="T"><stop stop-color="#384a13" offset="0"/><stop stop-color="#546b1d" offset="1"/></linearGradient><linearGradient y2=".288" y1=".629" x2=".635" x1=".439" spreadMethod="pad" id="U"><stop stop-color="#834121" offset="0"/><stop stop-color="#5f2d18" offset="1"/></linearGradient><linearGradient y2=".454" y1=".735" x2=".649" x1=".315" spreadMethod="pad" id="V"><stop stop-color="#834121" offset="0"/><stop stop-color="#5f2d18" offset="1"/></linearGradient><linearGradient y2=".169" y1=".66" x2=".879" x1=".342" spreadMethod="pad" id="W"><stop stop-color="#c63" offset="0"/><stop stop-color="#d2a02d" offset="1"/></linearGradient><linearGradient y2=".244" y1=".833" x2=".593" x1=".224" spreadMethod="pad" id="X"><stop stop-color="#c63" offset="0"/><stop stop-color="#d2a02d" offset="1"/></linearGradient><linearGradient y2=".308" y1=".733" x2=".677" x1=".366" spreadMethod="pad" id="Y"><stop stop-color="#666" offset="0"/><stop stop-color="#959595" offset="1"/></linearGradient><linearGradient y2="-.044" y1=".629" x2=".852" x1=".391" spreadMethod="pad" id="Z"><stop stop-color="#c63" offset="0"/><stop stop-color="#d2a02d" offset="1"/></linearGradient><linearGradient y2=".237" y1=".55" x2=".551" x1=".454" spreadMethod="pad" id="aa"><stop stop-color="#834121" offset="0"/><stop stop-color="#5f2d18" offset="1"/></linearGradient><linearGradient y2="-.044" y1="1.08" x2=".777" x1=".175" spreadMethod="pad" id="ab"><stop stop-color="#c63" offset="0"/><stop stop-color="#d2a02d" offset="1"/></linearGradient><linearGradient y2=".221" y1=".512" x2=".639" x1=".487" spreadMethod="pad" id="ac"><stop stop-color="#834121" offset="0"/><stop stop-color="#5f2d18" offset="1"/></linearGradient><linearGradient y2=".636" y1=".26" x2=".4" x1=".694" spreadMethod="pad" id="ad"><stop stop-color="#666" offset="0"/><stop stop-color="#2f2f2f" offset="1"/></linearGradient><linearGradient y2=".364" y1=".58" x2=".289" x1=".505" spreadMethod="pad" id="ae"><stop stop-color="#834121" offset="0"/><stop stop-color="#5f2d18" offset="1"/></linearGradient><linearGradient y2="-.113" y1=".55" x2=".922" x1=".493" spreadMethod="pad" id="af"><stop stop-color="#c63" offset="0"/><stop stop-color="#d2a02d" offset="1"/></linearGradient><linearGradient y2=".078" y1="1.005" x2="1.003" x1=".033" spreadMethod="pad" id="ag"><stop stop-color="#c63" offset="0"/><stop stop-color="#d2a02d" offset="1"/></linearGradient><linearGradient y2=".62" y1=".327" x2=".42" x1=".651" spreadMethod="pad" id="ah"><stop stop-color="#834121" offset="0"/><stop stop-color="#5f2d18" offset="1"/></linearGradient><linearGradient y2="-.13" y1=".752" x2=".596" x1=".306" spreadMethod="pad" id="ai"><stop stop-color="#c63" offset="0"/><stop stop-color="#d2a02d" offset="1"/></linearGradient><linearGradient y2="-.624" y1="1.356" x2=".609" x1=".349" spreadMethod="pad" id="aj"><stop stop-color="#c63" offset="0"/><stop stop-color="#d2a02d" offset="1"/></linearGradient><linearGradient y2=".779" y1=".515" x2=".414" x1=".666" spreadMethod="pad" id="ak"><stop stop-color="#834121" offset="0"/><stop stop-color="#5f2d18" offset="1"/></linearGradient><linearGradient y2="-.014" y1=".86" x2="-.156" x1=".794" spreadMethod="pad" id="al"><stop stop-color="#511" offset="0"/><stop stop-color="#524025" offset="1"/></linearGradient><linearGradient y2=".617" y1=".697" x2=".538" x1=".553" spreadMethod="pad" id="am"><stop stop-color="#440d0d" offset="0"/><stop stop-color="#341818" offset="1"/></linearGradient><linearGradient y2=".413" y1=".16" x2=".543" x1=".478" spreadMethod="pad" id="an"><stop stop-color="#7c031c" offset="0"/><stop stop-color="#4a0211" offset="1"/></linearGradient><linearGradient y2=".95" y1=".45" x2=".206" x1=".541" spreadMethod="pad" id="ao"><stop stop-color="#440d0d" offset="0"/><stop stop-color="#341818" offset="1"/></linearGradient><linearGradient y2="1.046" y1=".232" x2=".5" x1=".5" spreadMethod="pad" id="ap"><stop stop-color="#511" offset="0"/><stop stop-color="#524025" offset="1"/></linearGradient><linearGradient y2=".751" y1=".33" x2=".411" x1=".539" spreadMethod="pad" id="aq"><stop stop-color="#440d0d" offset="0"/><stop stop-color="#341818" offset="1"/></linearGradient><linearGradient y2=".649" y1=".17" x2=".479" x1=".576" spreadMethod="pad" id="ar"><stop stop-color="#440d0d" offset="0"/><stop stop-color="#341818" offset="1"/></linearGradient><linearGradient y2=".5" y1=".5" x2="-.001" x1="1" spreadMethod="pad" id="as"><stop stop-color="#511" offset="0"/><stop stop-color="#524025" offset="1"/></linearGradient><linearGradient y2="1.079" y1=".249" x2=".336" x1=".583" spreadMethod="pad" id="at"><stop stop-color="#440d0d" offset="0"/><stop stop-color="#341818" offset="1"/></linearGradient><linearGradient y2=".315" y1=".413" x2=".453" x1=".636" spreadMethod="pad" id="au"><stop stop-color="#440d0d" offset="0"/><stop stop-color="#341818" offset="1"/></linearGradient><linearGradient y2=".125" y1=".528" x2=".782" x1=".429" spreadMethod="pad" id="av"><stop stop-color="red" offset="0"/><stop stop-color="#f07b06" offset="1"/></linearGradient><linearGradient y2=".098" y1=".813" x2=".788" x1=".346" spreadMethod="pad" id="aw"><stop stop-color="red" offset="0"/><stop stop-color="#f07b06" offset="1"/></linearGradient><linearGradient y2=".17" y1="1.068" x2=".487" x1=".655" spreadMethod="pad" id="ax"><stop stop-color="#440d0d" offset="0"/><stop stop-color="#341818" offset="1"/></linearGradient><linearGradient y2=".149" y1=".734" x2=".502" x1=".409" spreadMethod="pad" id="ay"><stop stop-color="#df9700" offset="0"/><stop stop-color="#fcd025" offset="1"/></linearGradient><linearGradient y2=".244" y1=".689" x2=".015" x1="1.1" spreadMethod="pad" id="az"><stop stop-color="#533600" offset="0"/><stop stop-color="#2b1a00" offset="1"/></linearGradient><linearGradient y2=".594" y1=".383" x2=".737" x1=".256" spreadMethod="pad" id="aA"><stop stop-color="#960" offset="0"/><stop stop-color="#764701" offset="1"/></linearGradient><linearGradient y2=".458" y1=".768" x2=".579" x1=".659" spreadMethod="pad" id="aB"><stop stop-color="#440d0d" offset="0"/><stop stop-color="#341818" offset="1"/></linearGradient><linearGradient y2=".252" y1=".036" x2=".482" x1=".233" spreadMethod="pad" id="aC"><stop stop-color="#5b3e00" offset="0"/><stop stop-color="#4b2e01" offset="1"/></linearGradient><linearGradient y2=".607" y1=".454" x2=".981" x1=".649" spreadMethod="pad" id="aE"><stop stop-color="#533600" offset="0"/><stop stop-color="#2b1a00" offset="1"/></linearGradient><linearGradient y2=".403" y1=".202" x2=".571" x1=".279" spreadMethod="pad" id="aF"><stop stop-color="#960" offset="0"/><stop stop-color="#764701" offset="1"/></linearGradient><linearGradient y2=".165" y1=".44" x2=".843" x1=".603" spreadMethod="pad" id="aG"><stop stop-color="#df9700" offset="0"/><stop stop-color="#fcd025" offset="1"/></linearGradient><linearGradient y2=".371" y1=".558" x2=".15" x1=".737" spreadMethod="pad" id="aH"><stop stop-color="#533600" offset="0"/><stop stop-color="#2b1a00" offset="1"/></linearGradient><linearGradient y2="-.325" y1="1.344" x2=".279" x1=".721" spreadMethod="pad" id="aI"><stop stop-color="#533600" offset="0"/><stop stop-color="#2b1a00" offset="1"/></linearGradient><linearGradient y2="-.495" y1="1.124" x2=".352" x1=".715" spreadMethod="pad" id="aJ"><stop stop-color="#533600" offset="0"/><stop stop-color="#2b1a00" offset="1"/></linearGradient><linearGradient y2=".501" y1=".501" x2="1.11" x1=".412" spreadMethod="pad" id="aK"><stop stop-color="red" offset="0"/><stop stop-color="#f07b06" offset="1"/></linearGradient><linearGradient y2=".121" y1=".879" x2=".221" x1=".754" spreadMethod="pad" id="aL"><stop stop-color="#511" offset="0"/><stop stop-color="#524025" offset="1"/></linearGradient><linearGradient y2=".561" y1=".769" x2=".499" x1=".499" spreadMethod="pad" id="aM"><stop stop-color="#930" offset="0"/><stop stop-color="#956904" offset="1"/></linearGradient><linearGradient y2=".499" y1=".499" x2=".997" x1=".003" spreadMethod="pad" id="aN"><stop stop-color="#330f00" offset="0"/><stop stop-color="#6c2300" offset="1"/></linearGradient><linearGradient y2=".169" y1=".771" x2=".297" x1=".63" spreadMethod="pad" id="aO"><stop stop-color="#930" offset="0"/><stop stop-color="#956904" offset="1"/></linearGradient><linearGradient y2=".501" y1=".501" x2="1.002" x1="-.001" spreadMethod="pad" id="aP"><stop stop-color="#330f00" offset="0"/><stop stop-color="#6c2300" offset="1"/></linearGradient><linearGradient y2=".221" y1=".859" x2=".234" x1=".705" spreadMethod="pad" id="aQ"><stop stop-color="#511" offset="0"/><stop stop-color="#524025" offset="1"/></linearGradient><linearGradient y2=".5" y1=".5" x2="1" x1="-.002" spreadMethod="pad" id="aR"><stop stop-color="#330f00" offset="0"/><stop stop-color="#6c2300" offset="1"/></linearGradient><linearGradient y2=".004" y1="1.003" x2=".5" x1=".5" spreadMethod="pad" id="aS"><stop stop-color="#930" offset="0"/><stop stop-color="#956904" offset="1"/></linearGradient><linearGradient y2=".075" y1=".801" x2=".064" x1="1.277" spreadMethod="pad" id="aT"><stop stop-color="#511" offset="0"/><stop stop-color="#524025" offset="1"/></linearGradient><linearGradient y2="-.001" y1="1.002" x2=".498" x1=".498" spreadMethod="pad" id="aU"><stop stop-color="#930" offset="0"/><stop stop-color="#956904" offset="1"/></linearGradient><linearGradient y2=".017" y1="1.007" x2=".192" x1=".89" spreadMethod="pad" id="aV"><stop stop-color="#511" offset="0"/><stop stop-color="#524025" offset="1"/></linearGradient><linearGradient y2=".5" y1=".5" x2=".999" x1=".001" spreadMethod="pad" id="aW"><stop stop-color="#330f00" offset="0"/><stop stop-color="#6c2300" offset="1"/></linearGradient><linearGradient y2=".5" y1=".5" x2=".982" x1="-.001" spreadMethod="pad" id="aX"><stop stop-color="#330f00" offset="0"/><stop stop-color="#6c2300" offset="1"/></linearGradient><linearGradient y2=".002" y1="1.001" x2=".499" x1=".499" spreadMethod="pad" id="aY"><stop stop-color="#930" offset="0"/><stop stop-color="#956904" offset="1"/></linearGradient><linearGradient y2=".002" y1="1" x2=".495" x1=".495" spreadMethod="pad" id="aZ"><stop stop-color="#930" offset="0"/><stop stop-color="#956904" offset="1"/></linearGradient><linearGradient y2=".507" y1=".507" x2=".997" x1="-.001" spreadMethod="pad" id="ba"><stop stop-color="#330f00" offset="0"/><stop stop-color="#6c2300" offset="1"/></linearGradient><radialGradient spreadMethod="pad" r="819.2" id="A" gradientUnits="userSpaceOnUse" gradientTransform="translate(3 -26.65) scale(.0202)" cy="0" cx="0"><stop stop-color="#f7ecdd" offset="0"/><stop stop-color="#e17648" offset="1"/></radialGradient><radialGradient spreadMethod="pad" r="819.2" id="aD" gradientUnits="userSpaceOnUse" gradientTransform="translate(35.4 -30.25) scale(.0078)" cy="0" cx="0"><stop stop-color="#f7ecdd" offset="0"/><stop stop-color="#e17648" offset="1"/></radialGradient><use xlink:href="#a" width="273.65" height="180.95" id="bd"/><use xlink:href="#bb" width="102.95" height="45" id="be"/><g id="bc" stroke-opacity="0" stroke-linejoin="round" stroke-linecap="round" stroke="#f0f" fill="none"><path d="M187.95-293.5v380h-380v-380h380M92.95.6H-97" transform="translate(192.55 294)"/><path d="m187.95-293.5-190 190 190 190m-379.95 0 189.95-190-190-190" transform="translate(192.55 294)"/></g><g id="a"><path fill-rule="evenodd" fill="url(#b)" d="M-72.25-24.3q-9.65-6.45-12.35-14.4-6.95 6.15-8.85 3.25 5.55-15.6 20.65-26.5-7.5 1.55-6.7-2.15 5.5-5.35 11-4.3-6.25-1.3-6.45-3.75.7-4.95 23.85-1.85-3.95-3.9-2.7-7.8.3-5.95 31.8 21.9 8.9-8 22-14.1 20-8.95 18.75-3.2Q15.2-70.05 3.2-65.7q10.35-2.2 16.45-2.75 8.05-.75 8.7 1.4-.8 2.15-5.35 2.4 5.05.95 6.35 2.85.55.9.35 2-2.2 1.35-4.45 1 1.15 4.5 4.55 7.75l1.3 1.1 2.1 1.4q3.7 1.75 6.15 4.6l1.5 2.05q1.2 1.9 2 4.2l.35 1.25.45 2.05-.7 1.9q-3.6.5-3.7-1.75l1.45-.15-.1-1.3-.15-1.25q-2.05-4.3-11.95-2.3-3.05 0-5.2 4.95-.25 3-3.35 4.2 2.7-6.15-11.85-9.25-14.6-3.15-22.25 1.05-6.75 5.2 1.3 13.8 2.7 4.75 11.25 5.65l-4.1 3.2q-19.75 4.6-22.05-9.75-2.05-3.55-.35-8.95l2.4-7.25q-2.05-15.65-30.6-18.85-6.1.1-10.5 2.95l-2.2 1.65q7.15-1.65 10.9-.75l5.95 1.35q7.75 4.4 7.7 6.35-8.85 2.2-11.2 8.1l-.3.8q9.15-5.9 14.8-5.25l.95 2.25q-4.65 1.1-9.35 5.1 5.4-2.1 8.6.05-.8 1.95.1 3.65-4.85 5.55-1.85 11.1-6.3 4.45-21.5 1l-.75-.15-7.3-2.05M23.3-38.15v3.85-3.85M-22-59.9q-3.05 2.75-5.6 5.7 2.55-2.95 5.6-5.7m44.75.1q1.25.75 2.5 1-1.25-.25-2.5-1" transform="translate(136.8 90.45)"/><path fill-rule="evenodd" fill="#46332b" d="m-72.25-24.3 7.3 2.05.75.15q6.6 5.4 18 6.15 8.05 0 15.45-5.05l-.8.85q.2 3.7 3.45 6.65-4.95-2.2-5-5.25-4.35 3.65-10 4.5l-1.3.15-1.95.1-4.25-.3q-13.4-4.45-21.65-10m16.6-16.5q2.35-5.9 11.2-8.1l4.45-.8q1.45 1.05 2.6 2.3-1.15-1.25-2.6-2.3-4.6-3.5-12.15-5.55l-5.95-1.35q-3.75-.9-10.9.75l2.2-1.65 6.4-.6q7.95 0 16.55 4.2 8.6 4.2 10.55 9.65 1.9 5.4.1 5.85-.25-1.7-.75-3.25l-.65-1.6q-1.1-2.25-2.8-4.15-4.65-.95-10.15.45-3.7 1.25-8.1 6.15M66-43.2q-4.7 4-10.9 6.4l-1.85-.85q5.75-1.9 9-4.5L66-43.2m-8.95 10.8-.55.95q-6.15 1.55-13.3-5l-.35-1.25q8.25 6.85 14.2 5.3M73.5-.7q1.7 3.65-.9 4.65L72 3.7q1.25-1.65.8-4.2l.7-.2M54.6 19.25q-.8 2.3-2.25 4.35l-.55.8q-4.15 3.55-11.35 5.5l-.05-1.1q10-2.6 12.85-8.35 1.5-3.15 1.05-8.45-1.25-4.5.35-7.5l1.85-.7q-.95 1.55-1.05 7.85.25 3.35-.45 6.3l-.4 1.3M9.45 38.15q-5.2 1-10.75 3.25-9.75 1.2-14.35-2.4h-.45q-6.85.35-13.3-3.7l-1.5-.15q-9.55-2.4-14.6-8.25-1.6-1.2-2.55-2.8l-.5-.95-.25-.55q8.7 9.5 20.7 11.4 5.6 4.3 19.55 3.35l-4.65 1.35q2.85 2.4 11.7 1.4 7.95-3.35 15.95-3.85v1.85l-3-.3-2 .35m-47.05 46.4q-1.15-.8-1.1-1.75.8-3.7-.35-8.95-4-3.2-10.15-5.75l1.1-1.4h.05q8.6 3.75 11.15 6.8v3.3q.6 5.25-.7 7.75M-61.55 63.7q-5.05-.6-11.35 0l-2.85.3Q-82 66-87.9 70q1.55 1.9 0 2.6 2.25 7.4 0 9.05.95-2.8-1.45-8.15 2.05-2.8.95-3.15l.5-.35v-1.8q3.9-3.35 12.35-5.2 9.25-1.95 13.05-.75.3.75.95 1.2v.25M-80.6 27.35q2-2.5 4.85-4.65h1.1l-4.4 4.65h-1.55m69.4-61.95-3.4-.95q12.2-1.25 34.55 5.45l-.4.15-1.1.4q-13.35-4-29.65-5.05m51.8-1.1.1 1.3-1.45.15-1.45.25q-4.7.95-8.8 3.85l-1.7-.65q3.65-3.3 13.3-4.9M-76.9 56.6l-.8-.9q5.4 2.55 14.8 3.8l.05 1.65Q-71.5 59.9-76.9 56.6m31.25-67.1q.25-1.8 1.25-3.6l1.3-.15q-1.8 3.85.25 9.4l-1.85.2-.65-1.8-.25-.95q-.3-1.55-.05-3.1m14.1-9.65-1.55 1.4 1.55-1.4M-13.2 38.7l-2.45.3 2.45-.3M38.75-61.95q-1.45 1-2.6 2.35 1.15-1.35 2.6-2.35 8.35.55 9.95 2.1L46-60.1l-9.85.5Q33.6-56.85 32-52.7l-.4 1.1-.5 1.65-1.3-1.1q1.05-4.2 5.45-9.65 4.9-5.9 10.55-4.2-4.05.75-7.05 2.95m-77.8 135.8q2.05 1.6 2.15 2.95-.1-1.35-2.15-2.95" transform="translate(136.8 90.45)"/><path fill-rule="evenodd" fill="url(#c)" d="m-40.2-43-.95-2.25q-5.65-.65-14.8 5.25l.3-.8q4.4-4.9 8.1-6.15 5.5-1.4 10.15-.45 1.7 1.9 2.8 4.15l-5.6.25" transform="translate(136.8 90.45)"/><path fill-rule="evenodd" fill="url(#d)" d="M-44.45-48.9q.05-1.95-7.7-6.35Q-44.6-53.2-40-49.7l-4.45.8" transform="translate(136.8 90.45)"/><path fill-rule="evenodd" fill="url(#e)" d="M-40.85-34.2q-.9-1.7-.1-3.65-3.2-2.15-8.6-.05 4.7-4 9.35-5.1l5.6-.25.65 1.6q-4.3-1.7-8.55 1.7 4-.6 4.85 2.8-2.4.4-1.15 5.15-1.45-1.05-2.05-2.2" transform="translate(136.8 90.45)"/><path fill-rule="evenodd" fill="url(#f)" d="M-64.2-22.1q15.2 3.45 21.5-1-3-5.55 1.85-11.1.6 1.15 2.05 2.2-1.25-4.75 1.15-5.15-.85-3.4-4.85-2.8 4.25-3.4 8.55-1.7.5 1.55.75 3.25 1.8-.45-.1-5.85-1.95-5.45-10.55-9.65-8.6-4.2-16.55-4.2l-6.4.6q4.4-2.85 10.5-2.95 28.55 3.2 30.6 18.85l-2.4 7.25q-1.7 5.4.35 8.95 2.3 14.35 22.05 9.75l-2.6 2.15q-13.05 5.7-31.75 8.3l-2.8.35q-2.05-5.55-.25-9.4 5.65-.85 10-4.5.05 3.05 5 5.25-3.25-2.95-3.45-6.65l.8-.85q-7.4 5.05-15.45 5.05-11.4-.75-18-6.15m24.15 16.9-.4.05.4-.05" transform="translate(136.8 90.45)"/><path fill-rule="evenodd" fill="url(#g)" d="M-12.85-24.5q-8.05-8.6-1.3-13.8 7.65-4.2 22.25-1.05 14.55 3.1 11.85 9.25-22.35-6.7-34.55-5.45l3.4.95q-1.75 1.6-1.85 7.5l.2 2.6" transform="translate(136.8 90.45)"/><path fill-rule="evenodd" fill="url(#h)" d="m-85.6 9.4 1-1.35 7.3 1.15 9.05.25 6.05-2.9q-.2 1.85-2.2 3.6-4.85 4.3-20.45 7.95l14-6.4-10.6-1.5-4.15-.8" transform="translate(136.8 90.45)"/><path fill-rule="evenodd" fill="url(#i)" d="M-84.6 8.05q-21-4.7-32.15-15.85 15.8 4.5 34.15-.6 13.45-2.4 25.95 4.2-.9 1.65-1.2 3.55l-1.9-1.25-1.75-.9q-7.3-3.4-19.6-3.45-1.95 1.5 1.7 3.3 4.15 2.05 16.7.35l1.95 1.2q-10.75 5.2-20.9 3.65l-28.3-6.95q3.3 6.4 32.65 13.9l-7.3-1.15" transform="translate(136.8 90.45)"/><path fill-rule="evenodd" fill="url(#j)" d="M-77.3 9.2q-29.35-7.5-32.65-13.9l28.3 6.95Q-71.5 3.8-60.75-1.4l-1.95-1.2q-12.55 1.7-16.7-.35-3.65-1.8-1.7-3.3 12.3.05 19.6 3.45l1.75.9 1.9 1.25-.25 2.15q-.4 1.15.1 2.25l-4.2 2.8-6.05 2.9-9.05-.25" transform="translate(136.8 90.45)"/><path fill-rule="evenodd" fill="url(#k)" d="m-97.6 21.15-.25-.05-1.8-.35q14.85-3.1 18.2-10.55l10.6 1.5-14 6.4q15.6-3.65 20.45-7.95l2.45 1.55q-3.45 5.25-14.3 7.75l-21.35 1.7" transform="translate(136.8 90.45)"/><path fill-rule="evenodd" fill="url(#l)" d="M-99.65 20.75-106 18.9q14.75-2.65 20.4-9.5l4.15.8q-3.35 7.45-18.2 10.55" transform="translate(136.8 90.45)"/><path fill-rule="evenodd" fill="url(#m)" d="m-116.75-7.8-1.55-1.65q22.35 1.9 39.85-8.6 15 3.45 23.65 11.1l-1.85 2.75q-12.5-6.6-25.95-4.2-18.35 5.1-34.15.6" transform="translate(136.8 90.45)"/><path fill-rule="evenodd" fill="url(#n)" d="M-110.15 51.2q-2.15.65-2.65-1.25-.15-3.55 2.75-3.6-4.9-1.1-4.75-3.3-.5-4.95 10.6-7.8-4-3.4-3.6-5.1.8-3.4 7.45 1.7-3.7-4.25-2.6-6.2 1.9-2.7 16.15 5.55-.95-1.8 0-3.65 1.45-2.8 4.05 2.85-1.7 2.9-2.35 6.15l-2.55-3.45q-4.2-4.1-1.15 3.65-8.25-8.8-10.6-8.95-2.4.4 2.05 6-6.2-1.95-5.55 0l3 2.5q-5.4 1-10.8 6.25-.25 2.35 3.45 3.2-3.5 2.45-2 4.9l-.9.55" transform="translate(136.8 90.45)"/><path fill-rule="evenodd" fill="url(#o)" d="M-128 67.1q.65-1.6 3.7-2.3 2.4-3.7 5.8-7.05 2.55-2.6 5.7-4.95l2.65-1.6.9-.55q8.6-5.15 17-8.6l4.45-1.75q-2.75 6.25-1.25 9.55Q-94.5 56-103.4 59.8q-12.65 5.5-11.7-2.05-4.05 1.7-7.15 6.9l.2 1.95q-1.25.3-1.95 1.35.2-1.4-1.75-1.45l-1.15.25-1.1.35" transform="translate(136.8 90.45)"/><path fill-rule="evenodd" fill="url(#p)" d="M-87.9 81.65q-11.1 4.75-23.75 4l-.45-.1q-1.8.5-2.75-.4 3.1-1.45 3.75-4.3l.05-.1.25-1.4q1.4-9.15-3.2-9.25-1 0-1.45.55-1.15-4.2-6.6-4.05l-.2-1.95q3.1-5.2 7.15-6.9-.95 7.55 11.7 2.05 8.9-3.8 14.35-9.95-1.5-3.3 1.25-9.55l2.3-.8q-.25 2.95.3 6.2l1.15 3.15q2 4.25 6.15 7.1l1 .65q5.4 3.3 14.05 4.55l.35 1.1q-3.8-1.2-13.05.75-8.45 1.85-12.35 5.2V70l-.5.35q1.1.35-.95 3.15 2.4 5.35 1.45 8.15m-1.1-10.9.6-.4-.6.4" transform="translate(136.8 90.45)"/><path fill-rule="evenodd" fill="url(#q)" d="M-75.75 22.7q-13 .05-21.85-1.55l21.35-1.7q10.85-2.5 14.3-7.75l-2.45-1.55q2-1.75 2.2-3.6l4.2-2.8q.55 1.1 2.15 2.15l2.55 1.25q-1.65 1.4-2.7 3-.8 1.2-1.25 2.5l-.55 2-4 2.2-1.3.7-5.5 2.95-3.95 2.15-2.1.05h-1.1" transform="translate(136.8 90.45)"/><path fill-rule="evenodd" fill="url(#r)" d="m-74.65 22.7 2.1-.05 3.95-2.15-.15 4q.15 2.45.85 4.45l-2.6 1.95q-.35.95.15 1.6l-7.75 6.15 8.65-5.4 1.15.35.6-.4.05 1.85.05 1.9-2 1.5q-.35.95.15 1.6l-7.75 6.15 8.65-5.4 1.15.35.9-.6.35 2.75.35 2.8-1.95 1.2q-.35 1.05.15 1.8l-8.4 5.85 9.4-4.95 1.25.5.7-.45 1.25 4.4 1.25 4.45-.75.6q-9.4-1.25-14.8-3.8-6.6-7.35-4.45-17.8 2.4-7.45 6.45-10.55h-3.35l4.4-4.65" transform="translate(136.8 90.45)"/><path fill-rule="evenodd" fill="url(#s)" d="m-68.6 20.5 5.5-2.95-.05 3.4-5.6 3.55.15-4" transform="translate(136.8 90.45)"/><path fill-rule="evenodd" fill="url(#t)" d="m-82.75 30.4 2.15-3.05h4.9q-4.05 3.1-6.45 10.55-2.15 10.45 4.45 17.8l-.2.25q-4.15-2.85-6.15-7.1l-1.15-3.15q-.55-3.25-.3-6.2l.4-2.95q.65-3.25 2.35-6.15" transform="translate(136.8 90.45)"/><path fill-rule="evenodd" fill="url(#u)" d="M-109.25 50.65q-1.5-2.45 2-4.9-3.7-.85-3.45-3.2 5.4-5.25 10.8-6.25l-3-2.5q-.65-1.95 5.55 0-4.45-5.6-2.05-6 2.35.15 10.6 8.95-3.05-7.75 1.15-3.65l2.55 3.45-.4 2.95-2.3.8-4.45 1.75q-8.4 3.45-17 8.6" transform="translate(136.8 90.45)"/><path fill-rule="evenodd" fill="url(#v)" d="m-69.45 33.25-.9-.75 8.45-6.3.85 2.15-.65.5-6 4.35-.6.4-1.15-.35" transform="translate(136.8 90.45)"/><path fill-rule="evenodd" fill="#ccc" d="m-70.35 32.5.9.75-8.65 5.4 7.75-6.15m.9 7.55q.25.45.9.75l-8.65 5.4 7.75-6.15M-66.6 50l-9.4 4.95 8.4-5.85 1 .9" transform="translate(136.8 90.45)"/><path fill-rule="evenodd" fill="url(#w)" d="m-61.05 28.35-.85-2.15-8.45 6.3q-.5-.65-.15-1.6l2.6-1.95 5.7-4.2.75-.55.9-.65.15.25q-.35.9-.2 1.55.15.9 1.1 1.3l.55.2-2.1 1.5" transform="translate(136.8 90.45)"/><path fill-rule="evenodd" fill="url(#x)" d="M-68.55 40.8q-.65-.3-.9-.75l8.35-6.25q-.55 1.65 1.35 1.85l-.7.45-6.05 4.45-.9.6-1.15-.35" transform="translate(136.8 90.45)"/><path fill-rule="evenodd" fill="url(#y)" d="M-59.75 35.65q-1.9-.2-1.35-1.85l-8.35 6.25q-.5-.65-.15-1.6l2-1.5 6.3-4.65.8-.6 1.25-.9-.25.55-.2 1.35q.05 1.05 1.1 1.5l.55.2-1.7 1.25" transform="translate(136.8 90.45)"/><path fill-rule="evenodd" fill="#511" d="m-77.9 55.95.2-.25.8.9-1-.65" transform="translate(136.8 90.45)"/><path fill-rule="evenodd" fill="url(#z)" d="m-5.7-15.65 4.1-3.2q6.7-4.9 14.05-8.25l6-2.45 1.1-.4.4-.15 4.3-1.35.9-.25 2.15.9 1.7.65 4 1.4 2.35.7 2.25.65 5.95 1.6 3.25.8 1.1.25Q63.55-28 65.3-21.4l-1.35-.3q1.25-1.65-6.35-2-18.4.45-39.85 5.5l9.6-5.25Q8.5-20.45-7.2-10.9q-18.95 6.2-32.85 5.7 18.7-2.6 31.75-8.3l2.6-2.15m20.8-8.7Q2.7-21 .15-16.75l14.95-7.6" transform="translate(136.8 90.45)"/><path fill-rule="evenodd" fill="url(#A)" d="M-1.6-18.85q-8.55-.9-11.25-5.65l-.2-2.6q.1-5.9 1.85-7.5 16.3 1.05 29.65 5.05l-6 2.45Q5.1-23.75-1.6-18.85" transform="translate(136.8 90.45)"/><path fill-rule="evenodd" fill="url(#B)" d="M-27.2 3.7h.1l48.85 5.5L.8 9.85l-2.7-.7Q-17.15 5.1-27.2 3.7" transform="translate(136.8 90.45)"/><path fill-rule="evenodd" fill="url(#C)" d="M-27.15 3.7h-.05l-.5-.1.55.1" transform="translate(136.8 90.45)"/><path fill-rule="evenodd" fill="url(#D)" d="m-27.15 3.7-.55-.1-.45-.05-4.1-.45q-4.25-.4-7.25-.15l-2.7.25q-2.75-1.15-1.65-3.35l3.15.3 2.7.15 7.3.1Q-10.2 2.15.7 5.15q-13.9-2.1-27.8-1.45h-.05" transform="translate(136.8 90.45)"/><path fill-rule="evenodd" fill="url(#E)" d="m-1.9 9.15 2.7.7 20.95-.65-48.85-5.5Q-13.2 3.05.7 5.15q-10.9-3-31.4-4.75Q-18.25.15-3.45-2.75q8.8-4.4-29.7 2.2 12.9-5.25 25.8-8.05-4-.45-20.45 3.5-6.55 2.1-12.35.3l.1-.4q13.9.5 32.85-5.7 15.7-9.55 34.55-12.55l-9.6 5.25q21.45-5.05 39.85-5.5 7.6.35 6.35 2l-1.3-.35q-26.15.2-51.4 8.55l8.65-1.8 25.55-.75q-11.5 1.2-24.75 4.65 19.5.8 44.3-4.25l-16.5 4Q35.8-8.45 20.6-8.1q30.85.3 47.85-4.85-16.3 7.2-22.6 8.75L75.4-8.1q19.7-3.2 34.05-1.35Q84.55-7.8 57.6 3.4l-1.1.4-1.85.7-2.15.75q-23.75 7.3-45.2 6.9-22.35-.4-9.2-3m7-17.55q7.95.5 15.5.3-7.55.2-15.5-.3m-23.75 3.95q15.6-2.7 25.75-1.8-8.1-3.8-25.75 1.8m13.45 5.5q35.25 6.3 60.8-3.65Q22.1 3-5.2 1.05" transform="translate(136.8 90.45)"/><path fill-rule="evenodd" fill="url(#F)" d="m-27.7 3.6.5.1q10.05 1.4 25.3 5.45-13.15 2.6 9.2 3 21.45.4 45.2-6.9-12.05 4.3-22.25 6.8-7.6 1.9-14.15 2.85l-1.2.15-6.6.6-7.2.05-.55-.05-.6-.05q-23.4-2.25-39.45-12.65 3-.25 7.25.15l4.1.45.45.05" transform="translate(136.8 90.45)"/><path fill-rule="evenodd" fill="url(#G)" d="M-56 10.15q1.05-1.6 2.7-3l1.85-1.4q2.2-1.45 5.15-2.7l.25.6 3.85-.45 2.7-.25Q-23.45 13.35-.05 15.6l.6.05.55.05 7.2-.05q2.7 2.2 4.2 6.75 1.65 5.15 1.95 13.85-8 .5-15.95 3.85-8.85 1-11.7-1.4l4.65-1.35Q-22.5 38.3-28.1 34q-12-1.9-20.7-11.4l-.05-.1q-.2-.55-1.2-1.35.45-1.3.4-3V16.5l.1-1.1q1.95 1.45 3.4 1.4-.5 2.95 2.3 5.95-1.8-3.65 0-7.25.6 3.7 7.1 9.05 6.65 4.4 17.3 5.35l-6.25 1.55Q-8.45 34.5 1.25 28q-30.7-7-39.35-19.35.2-4.6-6.05-4.1-6.35.5-11.85 5.6" transform="translate(136.8 90.45)"/><path fill-rule="evenodd" fill="url(#H)" d="M-40.15-4.8q5.8 1.8 12.35-.3 16.45-3.95 20.45-3.5-12.9 2.8-25.8 8.05L-38 .3l-2.7-.15q-4.6-1.85-2.15-5l2.8-.35q-.75.2-.45.3l.35.1" transform="translate(136.8 90.45)"/><path fill-rule="evenodd" fill="red" d="M-54.8-6.95q1.3-1.5 3.15-2.8l2 .65q-.85-2.45 1.95-4.2-1.5 2.4.15 4.2 1.2-.3 1.9-1.4-.25 1.55.05 3.1-11.85-2.45-10.25 13.3-1.6-1.05-2.15-2.15-.5-1.1-.1-2.25l.25-2.15q.3-1.9 1.2-3.55l1.85-2.75m11.95 2.1q-2.45 3.15 2.15 5l-3.15-.3L-45-.3l1.15.15q-1.1 2.2 1.65 3.35l-3.85.45-.25-.6q-.45-1.7 1.3-3.35l-2.1-.3q-1.4-1.55 2.4-4.05l1.85-.2m24.2.4Q-1-10.05 7.1-6.25q-10.15-.9-25.75 1.8m-28.9-4.65q-.9.2-2.1 0 1.2.2 2.1 0" transform="translate(136.8 90.45)"/><path fill-rule="evenodd" fill="url(#I)" d="m-47.7-13.3 1.35-.7 1.95-.1q-1 1.8-1.25 3.6-.7 1.1-1.9 1.4-1.65-1.8-.15-4.2" transform="translate(136.8 90.45)"/><path fill-rule="evenodd" fill="url(#J)" d="m-53.3 7.15-2.55-1.25Q-57.45-9.85-45.6-7.4l.25.95q-3.05.35-4.3 5.85-1.15.2-1.8-2.2-2.95 4.3 0 8.55l-1.85 1.4" transform="translate(136.8 90.45)"/><path fill-rule="evenodd" fill="url(#K)" d="m-45.35-6.45.65 1.8q-3.8 2.5-2.4 4.05l2.1.3q-1.75 1.65-1.3 3.35-2.95 1.25-5.15 2.7-2.95-4.25 0-8.55.65 2.4 1.8 2.2 1.25-5.5 4.3-5.85" transform="translate(136.8 90.45)"/><path fill-rule="evenodd" fill="#440d0d" d="M19.95-30.1q3.1-1.2 3.35-4.2l.95 2.85-4.3 1.35m23-2.4q-.8 1.35-2 1.05-.2 2.35 2.6 5.65l-5.95-1.6q.8-.95 1.1-2.05.3-1.2-.05-2.55l-.85-2 1.45-.25q.1 2.25 3.7 1.75M-61.8 16.85l4-2.2.55-2q.65 1.4 7.7 2.75l-.1 1.1q-2.8.45-4.7-1.35-1.75 4.4-5.65 8.25l-.15-.15-.4.3-.9.65-.6-2.45q-.3-2.4.25-4.9m17.95-1.35-.1-.1.1-.1v.2m15.8 43.9q4.4-3.5 7.3-8.15-3.25 7.4-7.3 8.15m-21.6-42.2v.95l-1.4.65 1.4-1.6m.8 5.3.05.1.25.55.5.95-.2.1h-3.3q1.7-.9 2.7-.9v-.8m-10.65 4.15q2.8-1.6 5.4-2.45-1.75 3.55-5 6.75l-.15-.15-1.25.9-.55-3.35 2.1-1.5-.55-.2m11.45 40.05h-.05l.1-.2-.05.2" transform="translate(136.8 90.45)"/><path fill-rule="evenodd" fill="url(#L)" d="M-57.25 12.65q.45-1.3 1.25-2.5 5.5-5.1 11.85-5.6 6.25-.5 6.05 4.1Q-29.45 21 1.25 28q-9.7 6.5-26.95 3.45l6.25-1.55q-10.65-.95-17.3-5.35-6.5-5.35-7.1-9.05v-.2l-.1.1.1.1q-1.8 3.6 0 7.25-2.8-3-2.3-5.95-1.45.05-3.4-1.4-7.05-1.35-7.7-2.75" transform="translate(136.8 90.45)"/><path fill-rule="evenodd" fill="url(#M)" d="m-38 .3 4.85-.85q38.5-6.6 29.7-2.2Q-18.25.15-30.7.4L-38 .3" transform="translate(136.8 90.45)"/><path fill-rule="evenodd" fill="#b70000" d="M40.45 29.9q-.15 3.45-2.95 6.4-4.4 4.05-15.25 2.95-.65 4.95-5.4 5.35-3.85-.55-7.4-6.45l2-.35q.95 3.3 3 3.4v-4.95q-.3-8.7-1.95-13.85-1.7-11.35 3.65 6.35.85 10.6-.55 13.65 3.8.35 5.4-8.25 1.05 3.45 5.75 3.15 11.75-1.3 11.7-9.55 0-3.75-.85-7.35 2.05 4.85 2.3 6l.5 2.4.05 1.1M14.9 15.05l1.2-.15q2.9 4.25 10.95 8.55l4 2.3-6.8-2.45q-8.05-2.9-9.35-8.25M-40.15-4.8l-.35-.1q-.3-.1.45-.3l-.4.05.4-.05-.1.4M15.1-24.35.15-16.75Q2.7-21 15.1-24.35" transform="translate(136.8 90.45)"/><path fill-rule="evenodd" fill="url(#N)" d="M-16.1 39q-.9 4.5-2.6 8.35L-20.65 51l-.1.25q-2.9 4.65-7.3 8.15l-.1.05-2.35.45q-7.15 1.1-11.85-.95-3.05-1.35-5.1-4l.35-.3q.15-1.75-2.35-3.55-.85-.6-2.35-.35l-4.4-5.8-.1-.1 1.15-.75-.6-.25q6.3-3.05 11.6-2.55-2.45-3.4 0-6l-2.4.9 2.05-2.15q-4 .2-5.65-2.15-1.9 4.6-6.15 8.4l-.2-.2-.4.25-.9.6-.3-.85-1.65-4.45 1.7-1.25-.15-.4q5.55-3.15 10.25-3.15-1.05-3.85 0-5.55l-2.2 1.05 1.9-2.15.2-.1q.95 1.6 2.55 2.8 5.05 5.85 14.6 8.25l1.5.15q6.45 4.05 13.3 3.7" transform="translate(136.8 90.45)"/><path fill-rule="evenodd" fill="url(#O)" d="m-46.55 36.2 2.4-.9q-2.45 2.6 0 6-5.3-.5-11.6 2.55-1.05-.55-1.2-1.55 4.5-2.9 7.3-8.1L-52 39.05l4-4.85-1.45 3.8 2.9-1.8" transform="translate(136.8 90.45)"/><path fill-rule="evenodd" fill="#9c3" d="M-56.3 40.3q4.25-3.8 6.15-8.4 1.65 2.35 5.65 2.15l-2.05 2.15-2.9 1.8 1.45-3.8-4 4.85 2.35-4.85q-2.8 5.2-7.3 8.1-.1-.7.25-1.65l.4-.35m6.65-23.8v.7l-1.4 1.6-4.75 3.35q2.25-2.3 1.9-4.65-1.95 4.25-6.7 7.85-.15-.65.2-1.55l.4-.4q3.9-3.85 5.65-8.25 1.9 1.8 4.7 1.35m-4.45 7.7.65-1.5 1.9 1.5h3.3l-1.9 2.15-3.95 2.6q2.35-2.2 1.9-3.8l-7.5 7.55.2-1.35.4-.4q3.25-3.2 5-6.75" transform="translate(136.8 90.45)"/><path fill-rule="evenodd" fill="url(#P)" d="M-49.65 18.15q.05 1.7-.4 3 1 .8 1.2 1.35v.8q-1 0-2.7.9l-1.9-1.5-.65 1.5q-2.6.85-5.4 2.45-.95-.4-1.1-1.3 4.75-3.6 6.7-7.85.35 2.35-1.9 4.65l4.75-3.35 1.4-.65" transform="translate(136.8 90.45)"/><path fill-rule="evenodd" fill="#834121" d="m-63.1 17.55 1.3-.7q-.55 2.5-.25 4.9l-1.1-.8.05-3.4m1.4 11.3.65-.5.55 3.35-1.15-.75q-.3-1.35-.05-2.1m1.25 7.25.7-.45 1.65 4.45-1.7-.9q-.55-1.55-.65-3.1m4.25 8.85 4.4 5.8-.85.2-1.2-2-2.35-4 2.35 4-2.35-1-1.25-2.4 1.15-.7.1.1m-.7-4.6.4-.25-.2.55-.2-.3m-3.65-16.8.4-.3-.25.55-.15-.25m9 32.25.5-.4.8-.35q1.05 1.8 1.75 3.45l-1.55-.3-1.5-2.4" transform="translate(136.8 90.45)"/><path fill-rule="evenodd" fill="#c63" d="m-56.3 44.85.1.1-.1-.1m-1.8-4.75.3.85-1 .65-1-2.35v-.05l1.7.9m-3.95-18.35.6 2.45-.75.55q-.75-1.75-.95-3.8l1.1.8m.4 9.2 1.15.75-.8.6-.35-1.35" transform="translate(136.8 90.45)"/><path fill-rule="evenodd" fill="url(#Q)" d="M-67.9 28.95q-.7-2-.85-4.45l5.6-3.55q.2 2.05.95 3.8l-5.7 4.2" transform="translate(136.8 90.45)"/><path fill-rule="evenodd" fill="url(#R)" d="m-67.7 33.2 6-4.35q-.25.75.05 2.1l-6 4.1-.05-1.85" transform="translate(136.8 90.45)"/><path fill-rule="evenodd" fill="url(#S)" d="m-67.6 36.95-.05-1.9 6-4.1.35 1.35-6.3 4.65" transform="translate(136.8 90.45)"/><path fill-rule="evenodd" fill="url(#T)" d="m-50.15 26.35 2.2-1.05q-1.05 1.7 0 5.55-4.7 0-10.25 3.15l-.4.2q-1.05-.45-1.1-1.5l7.5-7.55q.45 1.6-1.9 3.8l3.95-2.6" transform="translate(136.8 90.45)"/><path fill-rule="evenodd" fill="url(#U)" d="m-66.5 40.55 6.05-4.45q.1 1.55.65 3.1v.05l-6.35 4.05-.35-2.75" transform="translate(136.8 90.45)"/><path fill-rule="evenodd" fill="url(#V)" d="M-67.6 49.1q-.5-.75-.15-1.8l1.95-1.2 7-4.5 1-.65.9-.6.2.3q-.35.95-.25 1.65.15 1 1.2 1.55l.6.25-1.15.75q-1.5-.7-1.4-1.35l-9.9 5.6" transform="translate(136.8 90.45)"/><path fill-rule="evenodd" fill="url(#W)" d="m-64.65 50.05-.7.45-1.25-.5-1-.9 9.9-5.6q-.1.65 1.4 1.35l-1.15.7-7.2 4.5" transform="translate(136.8 90.45)"/><path fill-rule="evenodd" fill="url(#X)" d="m-53.85 48.95 1.2 2-.65.15-.85.75-2.05-3.9 2.35 1" transform="translate(136.8 90.45)"/><path fill-rule="evenodd" fill="url(#Y)" d="m-62.9 59.5.75-.6 8-7.05.85-.75.65-.15.85-.2q1.5-.25 2.35.35 2.5 1.8 2.35 3.55l-.65-.1-1.7.2-.8.3-1.95-1.2q-5.8 3.6-10.3 8.4l-.35-1.1-.05-1.65" transform="translate(136.8 90.45)"/><path fill-rule="evenodd" fill="url(#Z)" d="m-62.15 58.9-1.25-4.45 7.2-6.5 2.05 3.9-8 7.05" transform="translate(136.8 90.45)"/><path fill-rule="evenodd" fill="url(#aa)" d="m-63.4 54.45-1.25-4.4 7.2-4.5 1.25 2.4-7.2 6.5" transform="translate(136.8 90.45)"/><path fill-rule="evenodd" fill="url(#ab)" d="m-65.8 46.1-.35-2.8 6.35-4.05 1 2.35-7 4.5" transform="translate(136.8 90.45)"/><path fill-rule="evenodd" fill="#452923" d="m-60.5 63.85-1.05-.15v-.25l.75-.55.3.95" transform="translate(136.8 90.45)"/><path fill-rule="evenodd" fill="url(#ac)" d="m-59.9 65.35-.6-1.5-.3-.95 9.25-7.1 1.5 2.4q-3.75 4.4-9.85 7.15" transform="translate(136.8 90.45)"/><path fill-rule="evenodd" fill="url(#ad)" d="M-61.55 63.45q-.65-.45-.95-1.2 4.5-4.8 10.3-8.4l1.95 1.2-.8.35-.5.4-9.25 7.1-.75.55" transform="translate(136.8 90.45)"/><path fill-rule="evenodd" fill="url(#ae)" d="M-48.5 58.5q-.7-1.65-1.75-3.45l.8-.3q2.7 3.7 6.95 5.4 2.8 3.2-.2 5.95 8.15-.35 10.2-4.45h.05l6.5-.85q-8.7 3.95-11.3 7.25-7.4 1.45-10.25-2.8.7-2.65-1-6.75" transform="translate(136.8 90.45)"/><path fill-rule="evenodd" fill="url(#af)" d="m-54.05 70.75-.6.05q-3.4-1.4-5.25-5.45 6.1-2.75 9.85-7.15 1.4 2.85 1.6 6.25-1.25 3.85-5.6 6.3" transform="translate(136.8 90.45)"/><path fill-rule="evenodd" fill="url(#ag)" d="M-49.2 68.1q-2 2.1-4.85 2.65 4.35-2.45 5.6-6.3-.2-3.4-1.6-6.25l1.55.3q1.7 4.1 1 6.75l-.5 1.25-.1.2-1.1 1.4" transform="translate(136.8 90.45)"/><path fill-rule="evenodd" fill="url(#ah)" d="M-47.45 54.95q2.05 2.65 5.1 4l-.15 1.2q-4.25-1.7-6.95-5.4l1.7-.2.3.4" transform="translate(136.8 90.45)"/><path fill-rule="evenodd" fill="url(#ai)" d="M-32.5 61.65q-2.05 4.1-10.2 4.45 3-2.75.2-5.95 4.25 1.75 10 1.5" transform="translate(136.8 90.45)"/><path fill-rule="evenodd" fill="url(#aj)" d="M-42.35 58.95q4.7 2.05 11.85.95l-1.95 1.75h-.05q-5.75.25-10-1.5l.15-1.2" transform="translate(136.8 90.45)"/><path fill-rule="evenodd" fill="url(#ak)" d="m-18.7 47.35 1.25 2.05q-.5 2-1.35 3.75-.95 1.95-2.3 3.6l-.4.45q-1.85 2.05-4.45 3.6l-6.5.85 1.95-1.75 2.35-.45.1-.05q4.05-.75 7.3-8.15l.1-.25 1.95-3.65" transform="translate(136.8 90.45)"/><path fill-rule="evenodd" fill="url(#al)" d="M-18.8 53.15q2.75 2.3 1.9 3.75 9.95 6.75 14.7 15.7 2.8.85 2.85 2.5l-.85-.25-1.65-.3q-2.9 1.3-2.3 3.9L-6.4 77.3q.2-.95-.5-1.7.1-2.1 2.85-2.45L-7.5 67.2q-8.95 3.85-13.35-2.05-3.2-4.85-.65-7.95l.4-.45q1.35-1.65 2.3-3.6" transform="translate(136.8 90.45)"/><path fill-rule="evenodd" fill="url(#am)" d="M-18.8 88.1q-2 .45-2.75-.45-12.85-.9-16.05-3.1 1.3-2.5.7-7.75v-3.3q-2.55-3.05-11.15-6.8l.05-.2.5-1.25q2.85 4.25 10.25 2.8 2.6-3.3 11.3-7.25 2.6-1.55 4.45-3.6-2.55 3.1.65 7.95 4.4 5.9 13.35 2.05l3.45 5.95q-2.75.35-2.85 2.45-.6-.65-1.75-1.15-4.05.4-5.4 2.5-.55-.7-1.5-.85-3.95-1.45-6.95 3.95.45 3.55 1.6 1.9-.3 1.25-.2 2.9.35 1.6 2.3 3.25" transform="translate(136.8 90.45)"/><path fill-rule="evenodd" fill="url(#an)" d="m8.3 15.65 6.6-.6q1.3 5.35 9.35 8.25l6.8 2.45-4-2.3Q19 19.15 16.1 14.9q6.55-.95 14.15-2.85 6.6 5 7.35 8.35.85 3.6.85 7.35.05 8.25-11.7 9.55-4.7.3-5.75-3.15-1.6 8.6-5.4 8.25 1.4-3.05.55-13.65-5.35-17.7-3.65-6.35-1.5-4.55-4.2-6.75" transform="translate(136.8 90.45)"/><path fill-rule="evenodd" fill="url(#ao)" d="M38.75-61.95q3-2.2 7.05-2.95-5.65-1.7-10.55 4.2-4.4 5.45-5.45 9.65-3.4-3.25-4.55-7.75 2.25.35 4.45-1 .2-1.1-.35-2Q39.6-72.1 49-67.8q3.8 2.65 3 4.35-4.5-.8-7.6 1.4 6.8-.1 6.05 2.75l-1.75-.55q-1.6-1.55-9.95-2.1" transform="translate(136.8 90.45)"/><path fill-rule="evenodd" fill="url(#ap)" d="M19.65-68.45q12.7-15.65 34.45-21.1 4.6-1.05-2.65 5.1 9.95 2.35 12.65 8.8.7 4-7.6-1.05Q69-61.55 65.6-49.4q3.85 1.5 1.6 5.1L66-43.2l-3.75 1.05q-7.3 1.65-13.95.6l3.7 4.6q-5.6-.1-11.15-4.95l-1.5-2.05q.15-2.75 3.5-1.8l1.1.4q1.2-2.4-3.25-3.75 3.25-1.8 3.25-3.6-1-3.2-6.55-1.85-.3-1.15 2.05-3.1 1.95-1.7 6.55-2.45l2.7.25 1.75.55q.75-2.85-6.05-2.75 3.1-2.2 7.6-1.4.8-1.7-3-4.35-9.4-4.3-19.65 6-1.3-1.9-6.35-2.85 4.55-.25 5.35-2.4-.65-2.15-8.7-1.4M51.2-58q.15-.8-.75-1.3.9.5.75 1.3" transform="translate(136.8 90.45)"/><path fill-rule="evenodd" fill="url(#aq)" d="M32-52.7q1.6-4.15 4.15-6.9l9.85-.5q-4.6.75-6.55 2.45-2.35 1.95-2.05 3.1-2.35.5-5.4 1.85" transform="translate(136.8 90.45)"/><path fill-rule="evenodd" fill="url(#ar)" d="m31.1-49.95.5-1.65q8.65-1.7 8.5-.2-.25 2.65-3.1 3.35 5.9 1.35 5.85 2.7-3.35-.95-3.5 1.8-2.45-2.85-6.15-4.6l-2.1-1.4" transform="translate(136.8 90.45)"/><path fill-rule="evenodd" fill="url(#as)" d="m31.6-51.6.4-1.1q3.05-1.35 5.4-1.85 5.55-1.35 6.55 1.85 0 1.8-3.25 3.6 4.45 1.35 3.25 3.75l-1.1-.4q.05-1.35-5.85-2.7 2.85-.7 3.1-3.35.15-1.5-8.5.2" transform="translate(136.8 90.45)"/><path fill-rule="evenodd" fill="url(#at)" d="m24.25-31.45-.95-2.85q2.15-4.95 5.2-4.95 9.9-2 11.95 2.3l.15 1.25q-9.65 1.6-13.3 4.9l-2.15-.9-.9.25" transform="translate(136.8 90.45)"/><path fill-rule="evenodd" fill="url(#au)" d="m55.1-36.8-.75.25q3.9 1.4 2.7 4.15-5.95 1.55-14.2-5.3-.8-2.3-2-4.2Q46.4-37.05 52-36.95l-3.7-4.6q6.65 1.05 13.95-.6-3.25 2.6-9 4.5l1.85.85" transform="translate(136.8 90.45)"/><path fill-rule="evenodd" fill="url(#av)" d="M76.6-18.2q12.55-2.55 16.3.4 10.45 6.15 26.1 4.55v.05q-9.3 7.3-20.85 7.35Q87.5-4.05 74.3-.9l-.8.2-.7.2L67.05.9 57.6 3.4Q84.55-7.8 109.45-9.45 95.1-11.3 75.4-8.1L45.85-4.2q6.3-1.55 22.6-8.75-17 5.15-47.85 4.85 15.2-.35 27.9-3.55l16.5-4 11.6-2.55" transform="translate(136.8 90.45)"/><path fill-rule="evenodd" fill="url(#aw)" d="m65.3-21.4.2.15.95.5q3.9 1.9 10.15 2.55L65-15.65Q40.2-10.6 20.7-11.4q13.25-3.45 24.75-4.65l-25.55.75-8.65 1.8q25.25-8.35 51.4-8.55l1.3.35 1.35.3" transform="translate(136.8 90.45)"/><path fill-rule="evenodd" fill="url(#ax)" d="m72 3.7-2.2-1.1L67.05.9 72.8-.5q.45 2.55-.8 4.2" transform="translate(136.8 90.45)"/><path fill-rule="evenodd" fill="url(#ay)" d="M72.6 3.95q11.35 4.7 28.9 2.1 7.85 3.15 6.2 5.3l-1.55-.05q1.25-1.7-6.35-3.75-5.9 1.3-7.8 2.6-2.8 2-4 6.4-1 5.55 0 10.4-1.75-3.4-1.95-9.1.4-2.45 1.7-4.85l.15-.3-.05-.05.7-1q-9.85-.55-15.75-3.1 6.8 1.65 16.8 2 1.6-1.85 3.7-2.15l-11.7-.45q-9.75-1.3-14.25-5.2l2.45-.15L72 3.7l.6.25" transform="translate(136.8 90.45)"/><path fill-rule="evenodd" fill="url(#az)" d="m56.5 3.8 1.1-.4L67.05.9l2.75 1.7-2.45.15q-3.7.75-4.4 4.45l-.5 2.2q-.8 3.85-.35 5.45 1.4 4.7 5.4 7.05L55 17.95q.7-2.95.45-6.3.1-6.3 1.05-7.85" transform="translate(136.8 90.45)"/><path fill-rule="evenodd" fill="url(#aA)" d="M67.35 2.75q4.5 3.9 14.25 5.2l11.7.45q-2.1.3-3.7 2.15-10-.35-16.8-2 5.9 2.55 15.75 3.1l-.7 1 .05.05-.25.25q-4.4 3.9-3.55 9.25l-19.25-6.15-2.75-1.2q-.45-1.6.35-5.45l17 3.7-16.5-5.9q.7-3.7 4.4-4.45" transform="translate(136.8 90.45)"/><path fill-rule="evenodd" fill="#5b3e00" d="m87.9 12.7-.15.3-.1-.05.25-.25M62.45 9.4l.5-2.2 16.5 5.9-17-3.7m27.3 10.3q-1.15-2.65 2-6.35 3.65-3.7 6.65-4.1 7.2-.6 5.45 1.95l-3.8-.3-1.85-.25q-6 2.75-8.45 9.05m9.9-9.65-1.45.6 1.45-.6m15.95 18.1.25-.2.4.75-.65-.55" transform="translate(136.8 90.45)"/><path fill-rule="evenodd" fill="url(#aB)" d="M30.25 12.05q10.2-2.5 22.25-6.8l2.15-.75q-1.6 3-.35 7.5.45 5.3-1.05 8.45Q50.4 26.2 40.4 28.8l-.5-2.4q-.25-1.15-2.3-6-.75-3.35-7.35-8.35" transform="translate(136.8 90.45)"/><path fill-rule="evenodd" fill="url(#aC)" d="M91.9 37.05Q88.95 34.5 87 31.8L85.25 29l-.9-2.05.9 2.05q-6-3.2-17.75-7.1-4-2.35-5.4-7.05l2.75 1.2L84.1 22.2q-.85-5.35 3.55-9.25l.1.05q-1.3 2.4-1.7 4.85Q84.8 24.5 89.6 31.5q6.05 5.1 7 1l1.6 1.05q-2.15 4.5-6.3 3.5" transform="translate(136.8 90.45)"/><path fill-rule="evenodd" fill="#960" d="m134.35 17.95 1.15 7.1h-4.25q1.05-4.65-1.65-11.65 1.65.6 4.05 9.55.65 3.15.7-5m-48.3-.1q.2 5.7 1.95 9.1-1-4.85 0-10.4 1.2-4.4 4-6.4 1.9-1.3 7.8-2.6 7.6 2.05 6.35 3.75l-2.3-.1q1.75-2.55-5.45-1.95-3 .4-6.65 4.1-3.15 3.7-2 6.35-.1 5.5 3.6 10.1l1.2 1.4 2.05 1.3q-.95 4.1-7-1-4.8-7-3.55-13.65m1.6-4.9.25-.25-.25.25" transform="translate(136.8 90.45)"/><path fill-rule="evenodd" d="m37.6-27.4-2.25-.65q1.65-3.1 3.35-1.4-.3 1.1-1.1 2.05" transform="translate(136.8 90.45)"/><path fill-rule="evenodd" fill="url(#aD)" d="M38.7-29.45q-1.7-1.7-3.35 1.4l-2.35-.7-4-1.4q4.1-2.9 8.8-3.85l.85 2q.35 1.35.05 2.55" transform="translate(136.8 90.45)"/><path fill-rule="evenodd" fill="#7c031c" d="M119-13.2q-3.25 3.8-9.2 6.6-3.8 2.1-9.95 3.4Q94.3-4.25 74.3-.9q13.2-3.15 23.85-4.95Q109.7-5.9 119-13.2m-107.55 51 3 .3v3.1q-2.05-.1-3-3.4" transform="translate(136.8 90.45)"/><path fill-rule="evenodd" fill="#685e3e" d="M125.85 45.2q-3.4 1-7.75 1L99.85 34.6q-.7 3.05-7.2 3.05l-.75-.6q4.15 1 6.3-3.5l-1.6-1.05-2.05-1.3-1.2-1.4 22.1 12.9.75 1.1q3.7 1.85 9.65 1.4M87 31.8q-14.55-9.25-32.4-12.55l.4-1.3 12.5 3.95q11.75 3.9 17.75 7.1L87 31.8m12.85 2.8-1.65-1.05 1.65 1.05" transform="translate(136.8 90.45)"/><path fill-rule="evenodd" fill="url(#aE)" d="M93.35 29.8q-3.7-4.6-3.6-10.1 2.45-6.3 8.45-9.05l1.85.25-1.1.9-2.8 2.35 16.25 2.15H95.3q-2 1.5-2.3 3.8l7.8 1.65h-7.85q-.2 5.45 4.65 7.2l15.45 6.95q.15 3.25 2.4 6.8l-22.1-12.9" transform="translate(136.8 90.45)"/><path fill-rule="evenodd" fill="url(#aF)" d="M135.05 37.1q-.8 2.15-2.2 4.05-2.8 2.8-7 4.05-5.95.45-9.65-1.4l-.75-1.1q-2.25-3.55-2.4-6.8L97.6 28.95q-4.85-1.75-4.65-7.2h7.85L93 20.1q.3-2.3 2.3-3.8h17.1l-16.25-2.15 2.8-2.35q6.65 1.9 27.85-1.55-2.45 1.65-4.35 3.8H108.8l12.75 1.05q-3.15 3.85-4.75 9.05-3.35-1.05-11.3-.95 7.2 2.65 10.1 4.95-2.8 8.75.8 14.4-1.55-6.5-.35-7-.2 7.2 6.6 6.9 9.35-3.05 9.3-12.2 1.3-.5 1.85 1.3.45 4.3-1.4 7.8l2.65-2.25" transform="translate(136.8 90.45)"/><path fill-rule="evenodd" fill="url(#aG)" d="M107.7 11.35q11.2 0 21.4-3.7 3.15-.2 5.25 10.3-.05 8.15-.7 5-2.4-8.95-4.05-9.55l-.25-.65q-5.65.15-10.3 12.75-.3-.45-.9-.8-.55-.35-1.35-.55 1.6-5.2 4.75-9.05l-12.75-1.05h13.65q1.9-2.15 4.35-3.8-21.2 3.45-27.85 1.55l1.1-.9 3.8.3 2.3.1 1.55.05" transform="translate(136.8 90.45)"/><path fill-rule="evenodd" fill="url(#aH)" d="m129.35 12.75.25.65q2.7 7 1.65 11.65l-6.7-1.35 6.15 4.55 1.15.2.1 1.8q.05 9.15-9.3 12.2-6.8.3-6.6-6.9.1-2.5 1-5.95l-.8-.9-.4-.75q-1.3-2.85 2.3-3.25.6.35.9.8 4.65-12.6 10.3-12.75" transform="translate(136.8 90.45)"/><path fill-rule="evenodd" fill="url(#aI)" d="M133.35 25.05q-1.65.6 2.7 4.05l-4.2-.65-1.15-.2-6.15-4.55 6.7 1.35h2.1" transform="translate(136.8 90.45)"/><path fill-rule="evenodd" fill="url(#aJ)" d="M116.8 24.15q.8.2 1.35.55-3.6.4-2.3 3.25l-.25.2q-2.9-2.3-10.1-4.95 7.95-.1 11.3.95" transform="translate(136.8 90.45)"/><path fill-rule="evenodd" fill="#df9700" d="M136.05 29.1q.3 4.4-1 8l-2.65 2.25q1.85-3.5 1.4-7.8-.55-1.8-1.85-1.3l-.1-1.8 4.2.65m-19.8-.4.8.9q-.9 3.45-1 5.95-1.2.5.35 7-3.6-5.65-.8-14.4l.65.55" transform="translate(136.8 90.45)"/><path fill-rule="evenodd" fill="url(#aK)" d="M-5.2 1.05Q22.1 3 55.6-2.6 30.05 7.35-5.2 1.05" transform="translate(136.8 90.45)"/><path fill-rule="evenodd" fill="url(#aL)" d="M-6.9 75.6q.7.75.5 1.7-1.1-.45-2.25-.75-3.25.3-3.15 3.3-.75-.55-1.65-.95-.1-1.25-.6-1.95 1.35-2.1 5.4-2.5 1.15.5 1.75 1.15" transform="translate(136.8 90.45)"/><path fill-rule="evenodd" fill="url(#aM)" d="M.65 75.1q3.15 1.05 5.4 3.95.95 1.8.9 3.6-1.55 2.65-3.8 1.1-7.2-7.5-3.35-8.9l.85.25" transform="translate(136.8 90.45)"/><path fill-rule="evenodd" fill="url(#aN)" d="m6.95 82.65-.55 2.2-1.55.65q-2 .55-3.75-.55l-.2-1.2-.95-1.95q-1.85-2.05-4.1-3.35-.6-2.6 2.3-3.9l1.65.3q-3.85 1.4 3.35 8.9 2.25 1.55 3.8-1.1" transform="translate(136.8 90.45)"/><path fill-rule="evenodd" fill="url(#aO)" d="m-6.4 77.3 2.25 1.15q2.25 1.3 4.1 3.35l.95 1.95q-1.05 3.45-4.5 2.3-8-5.35-5.05-9.5 1.15.3 2.25.75" transform="translate(136.8 90.45)"/><path fill-rule="evenodd" fill="url(#aP)" d="M1.1 84.95q-.05 1.3-1.05 2.25l-.9.55q-3.95 2.15-7.2-.4l.05-.65q.1-1-.1-2.2-1.2-2.95-3.7-4.65-.1-3 3.15-3.3-2.95 4.15 5.05 9.5 3.45 1.15 4.5-2.3l.2 1.2" transform="translate(136.8 90.45)"/><path fill-rule="evenodd" fill="url(#aQ)" d="M-14.05 76.95q.5.7.6 1.95-.8-.4-1.7-.7l-1.3-.35q-3.7.5-4.45 4.1-1.15 1.65-1.6-1.9 3-5.4 6.95-3.95.95.15 1.5.85" transform="translate(136.8 90.45)"/><path fill-rule="evenodd" fill="url(#aR)" d="M-8.05 87.35q-.25 1.25-1.05 2l-1.7.25q-5.5.6-7.9-1.4l-.1-.1q-1.95-1.65-2.3-3.25-.1-1.65.2-2.9.75-3.6 4.45-4.1l1.3.35q-4.1 5.1 1.8 9.7 3.2 1.55 5.05-.7l.25.15" transform="translate(136.8 90.45)"/><path fill-rule="evenodd" fill="url(#aS)" d="M-13.45 78.9q.9.4 1.65.95 2.5 1.7 3.7 4.65.2 1.2.1 2.2l-.3.5q-1.85 2.25-5.05.7-5.9-4.6-1.8-9.7.9.3 1.7.7" transform="translate(136.8 90.45)"/><path fill-rule="evenodd" fill="#6c2300" d="M-132.8 78.85q-3.1.9-3.25-1.85l.1-.9q.15 1.45 3.45 1.3l-.3 1.45m21.75 1.9-.05.1.05-.15v.05M-8 86.7l-.05.65-.25-.15.3-.5" transform="translate(136.8 90.45)"/><path fill-rule="evenodd" fill="url(#aT)" d="M-115.45 70.65q.45-.55 1.45-.55 4.6.1 3.2 9.25h-.15q-.6-6.15-3.05-6.9l-2 .15q-.1-1.35.55-1.95" transform="translate(136.8 90.45)"/><path fill-rule="evenodd" fill="url(#aU)" d="m-118.35 73.05 1.2-.3q6.15 6.6-3.8 12.05-3.35.35-4.5-2.45.9-7.5 7.1-9.3" transform="translate(136.8 90.45)"/><path fill-rule="evenodd" fill="url(#aV)" d="M-122.05 66.6q5.45-.15 6.6 4.05-.65.6-.55 1.95l-1.15.15-1.2.3q-.3-4.05-4.7-4.3-.8.25-1.55.65.2-.85.6-1.45.7-1.05 1.95-1.35" transform="translate(136.8 90.45)"/><path fill-rule="evenodd" fill="url(#aW)" d="M-114.85 85.15q-1.5.7-3.55 1.1l-4.95-.3q-2.1-.65-2.2-2.3l.05-.4.05-.9q1.15 2.8 4.5 2.45 9.95-5.45 3.8-12.05l1.15-.15 2-.15q2.45.75 3.05 6.9l-.1 1.35-.05.15q-.65 2.85-3.75 4.3" transform="translate(136.8 90.45)"/><path fill-rule="evenodd" fill="url(#aX)" d="M-124 67.95q-.4.6-.6 1.45-1.6.75-3.05 1.9 1.55-1.9.75-4.55l1.15-.25q1.95.05 1.75 1.45" transform="translate(136.8 90.45)"/><path fill-rule="evenodd" fill="url(#aY)" d="M-135.95 76.1q.4-2.9 2.1-4.95 2.3-2.85 5.85-4.05l1.1-.35q.8 2.65-.75 4.55-2.1 1.65-3.9 4.2-.65.85-.95 1.9-3.3.15-3.45-1.3" transform="translate(136.8 90.45)"/><path fill-rule="evenodd" fill="url(#aZ)" d="M-132.8 80.65v-1.8l.3-1.45q.3-1.05.95-1.9 1.8-2.55 3.9-4.2 1.45-1.15 3.05-1.9.75-.4 1.55-.65 1.55 5-6.15 12.35-2.2 1.45-3.6-.45" transform="translate(136.8 90.45)"/><path fill-rule="evenodd" fill="url(#ba)" d="m-125.5 83.25-5.9-.2q-.85-.3-1.15-.85l-.25-1.55q1.4 1.9 3.6.45 7.7-7.35 6.15-12.35 4.4.25 4.7 4.3-6.2 1.8-7.1 9.3l-.05.9" transform="translate(136.8 90.45)"/><path fill-rule="evenodd" fill="#621313" d="m-110.8 79.35-.25 1.4v-.05l.1-1.35h.15" transform="translate(136.8 90.45)"/><path stroke-width=".05" stroke-opacity=".702" stroke-linejoin="round" stroke-linecap="round" stroke="#5c3d18" fill="none" d="M114.8 30.55Q83.3 2.7 83 8.65q-1.25 3.9 2.7 7.8-23.15-3.1-23.85 1.85.2 2.45 6.45 3.75-5.5-1.05-11 4.3-.8 3.7 6.7 2.15Q48.9 39.4 43.35 55q1.9 2.9 8.85-3.25 2.7 7.95 12.35 14.4m31.4-9.9q-.9-1.7-.1-3.65-3.2-2.15-8.6-.05 4.7-4 9.35-5.1m-15.75 3 .3-.8q2.35-5.9 11.2-8.1m-7.7-6.35-5.95-1.35m56.5 37.75q-8.55-.9-11.25-5.65m32.8-5.6q3.1-1.2 3.35-4.2V52.3M96.8 40.75l-4.45.8m11.25 10.5q-.25-1.7-.75-3.25l-.65-1.6-5.6.25m1.4 11q-1.45-1.05-2.05-2.2m6.25-9.05q-1.1-2.25-2.8-4.15-1.15-1.25-2.6-2.3-4.6-3.5-12.15-5.55m30.15-4.65q8.9-8 22-14.1 20-8.95 18.75-3.2Q152 20.4 140 24.75q10.35-2.2 16.45-2.75Q169.15 6.35 190.9.9q4.6-1.05-2.65 5.1 9.95 2.35 12.65 8.8.7 4-7.6-1.05 12.5 15.15 9.1 27.3 3.85 1.5 1.6 5.1l-1.2 1.1q-4.7 4-10.9 6.4l-.75.25q3.9 1.4 2.7 4.15l-.55.95q-6.15 1.55-13.3-5l.45 2.05-.7 1.9q-.8 1.35-2 1.05-.2 2.35 2.6 5.65l3.25.8 1.1.25q15.65-3.25 17.4 3.35l.2.15.95.5q3.9 1.9 10.15 2.55 12.55-2.55 16.3.4 10.45 6.15 26.1 4.55v.05q-3.25 3.8-9.2 6.6-3.8 2.1-9.95 3.4-5.55-1.05-25.55 2.3l-.8.2q1.7 3.65-.9 4.65 11.35 4.7 28.9 2.1 7.85 3.15 6.2 5.3 11.2 0 21.4-3.7 3.15-.2 5.25 10.3l1.15 7.1h-2.15q-1.65.6 2.7 4.05.3 4.4-1 8-.8 2.15-2.2 4.05-2.8 2.8-7 4.05-3.4 1-7.75 1l-18.25-11.6q-.7 3.05-7.2 3.05l-.75-.6q-2.95-2.55-4.9-5.25-14.55-9.25-32.4-12.55-.8 2.3-2.25 4.35l-.55.8q-4.15 3.55-11.35 5.5-.15 3.45-2.95 6.4-4.4 4.05-15.25 2.95-.65 4.95-5.4 5.35-3.85-.55-7.4-6.45-5.2 1-10.75 3.25-9.75 1.2-14.35-2.4h-.45q-.9 4.5-2.6 8.35l1.25 2.05q-.5 2-1.35 3.75 2.75 2.3 1.9 3.75 9.95 6.75 14.7 15.7 2.8.85 2.85 2.5 3.15 1.05 5.4 3.95.95 1.8.9 3.6l-.55 2.2-1.55.65q-2 .55-3.75-.55-.05 1.3-1.05 2.25l-.9.55q-3.95 2.15-7.2-.4-.25 1.25-1.05 2l-1.7.25q-5.5.6-7.9-1.4l-.1-.1q-2 .45-2.75-.45-12.85-.9-16.05-3.1-1.15-.8-1.1-1.75.8-3.7-.35-8.95-4-3.2-10.15-5.75-2 2.1-4.85 2.65l-.6.05q-3.4-1.4-5.25-5.45l-.6-1.5-1.05-.15q-5.05-.6-11.35 0l-2.85.3q-6.25 2-12.15 6 1.55 1.9 0 2.6 2.25 7.4 0 9.05-11.1 4.75-23.75 4l-.45-.1q-1.8.5-2.75-.4-1.5.7-3.55 1.1l-4.95-.3q-2.1-.65-2.2-2.3l.05-.4-5.9-.2q-.85-.3-1.15-.85L4 171.1v-1.8q-3.1.9-3.25-1.85l.1-.9q.4-2.9 2.1-4.95 2.3-2.85 5.85-4.05.65-1.6 3.7-2.3 2.4-3.7 5.8-7.05 2.55-2.6 5.7-4.95l2.65-1.6q-2.15.65-2.65-1.25-.15-3.55 2.75-3.6-4.9-1.1-4.75-3.3-.5-4.95 10.6-7.8-4-3.4-3.6-5.1.8-3.4 7.45 1.7-3.7-4.25-2.6-6.2 1.9-2.7 16.15 5.55-.95-1.8 0-3.65 1.45-2.8 4.05 2.85l2.15-3.05q2-2.5 4.85-4.65-13 .05-21.85-1.55m-.25-.05-1.8-.35-6.35-1.85q14.75-2.65 20.4-9.5l1-1.35q-21-4.7-32.15-15.85L18.5 81q22.35 1.9 39.85-8.6 15 3.45 23.65 11.1 1.3-1.5 3.15-2.8l2 .65q-.85-2.45 1.95-4.2l1.35-.7-4.25-.3q-13.4-4.45-21.65-10m44.65-29.9q2.55-2.95 5.6-5.7M161.05 59l-.95-2.85m17.4-.1-1.45.15M59.5 99.65l9.05.25m10.4-10.1-1.9-1.25-1.75-.9q-7.3-3.4-19.6-3.45m3.8 15.45-7.3-1.15m-.25 10.05q15.6-3.65 20.45-7.95 2-1.75 2.2-3.6m-47.95 44.65.9-.55q8.6-5.15 17-8.6l4.45-1.75 2.3-.8q-.25 2.95.3 6.2l1.15 3.15q2 4.25 6.15 7.1l1 .65q5.4 3.3 14.05 4.55l-.05-1.65.75-.6-1.25-4.45-1.25-4.4-.7.45-1.25-.5-9.4 4.95 8.4-5.85q-.5-.75-.15-1.8l1.95-1.2-.35-2.8-.35-2.75 6.05-4.45.7-.45 1.65 4.45.3.85.9-.6.4-.25M51.7 127q.65-3.25 2.35-6.15m-28.3 50.35-.05.1q-.65 2.85-3.75 4.3m39.1-62.45h1.1l2.1-.05 3.95-2.15 5.5-2.95 1.3-.7 4-2.2.55-2q.45-1.3 1.25-2.5 1.05-1.6 2.7-3l1.85-1.4q2.2-1.45 5.15-2.7l.25.6 3.85-.45 2.7-.25q16.05 10.4 39.45 12.65l.6.05.55.05 7.2-.05 6.6-.6 1.2-.15q6.55-.95 14.15-2.85 10.2-2.5 22.25-6.8l2.15-.75 1.85-.7 1.1-.4 9.45-2.5 2.75 1.7 2.2 1.1.6.25M68.05 114.95l.15-4m-16.9 19 .4-2.95m14.75-4.05.9.75 1.15.35.6-.4 6-4.35.65-.5.55 3.35 1.25-.9m-11.1 1.7q-.5-.65-.15-1.6l2.6-1.95q-.7-2-.85-4.45m5.6-3.55.05-3.4m-6.35 22.5q.25.45.9.75l1.15.35.9-.6m-2.95-.5q-.5-.65-.15-1.6l2-1.5-.05-1.9-.05-1.85m-1.75.05-8.65 5.4 7.75-6.15m1.8 8.3-8.65 5.4 7.75-6.15m58.25-74.65q-1.75 1.6-1.85 7.5l.2 2.6m-14.85 28.1.5.1q10.05 1.4 25.3 5.45l2.7.7m19.8-17.95q-7.55.2-15.5-.3m58.85-13.3 1.35.3M96.1 90.6l2.7.15 4.85-.85q38.5-6.6 29.7-2.2-14.8 2.9-27.25 3.15l-7.3-.1m-7.65-10.8q.25-1.8 1.25-3.6l-1.95.1m3.25-.25-1.3.15m-1.25 3.6q-.25 1.55.05 3.1l.25.95.65 1.8m1.6-9.6q5.65-.85 10-4.5l1.55-1.4.8-.85m2.65 7.5q-4.95-2.2-5-5.25m-6.4 21.7q3-.25 7.25.15l4.1.45.45.05M96.35 85.3l.4-.05m-4.95 4.9 1.15.15 3.15.3m-15.6 40.15q4.25-3.8 6.15-8.4 1.65 2.35 5.65 2.15l-2.05 2.15 2.4-.9q-2.45 2.6 0 6-5.3-.5-11.6 2.55l.6.25-1.15.75.1.1 4.4 5.8q1.5-.25 2.35.35 2.5 1.8 2.35 3.55m-.35.3q2.05 2.65 5.1 4 4.7 2.05 11.85.95l2.35-.45.1-.05q4.4-3.5 7.3-8.15l.1-.25 1.95-3.65m-29.35-23.25q.95 1.6 2.55 2.8 5.05 5.85 14.6 8.25l1.5.15q6.45 4.05 13.3 3.7m-33.45-23.6-.1 1.1v1.65q.05 1.7-.4 3 1 .8 1.2 1.35l.05.1m40.25 14.75-4.65 1.35m27.65-2.45q-.3-8.7-1.95-13.85-1.5-4.55-4.2-6.75m-59.35 3.15 1.4-.65m0-.95-1.4 1.6m-9.55 6.55q.15.9 1.1 1.3 2.8-1.6 5.4-2.45l.65-1.5 1.9 1.5q1.7-.9 2.7-.9v-.8m.6 1.7-1.9 2.15 2.2-1.05q-1.05 1.7 0 5.55-4.7 0-10.25 3.15l-.4.2.55.2-1.7 1.25m3.45 4.65-.4.35q-.35.95-.25 1.65m8.9-18.2-.5-.95-.25-.55m-2.75 1.6h3.3M75 107.3q-.55 2.5-.25 4.9l.6 2.45.9-.65.4-.3-.25.55q-.35.9-.2 1.55m.6-1.95q3.9-3.85 5.65-8.25 1.9 1.8 4.7 1.35m-10.75 7.3.4-.4m-2.2 1.35.75-.55m1.95 2.45.55.2-2.1 1.5m1.95 2.6q3.25-3.2 5-6.75m-9.05-3.25q.2 2.05.95 3.8l-5.7 4.2m8.4 2.4.25-.55m-.25.55.4-.4m-1.4.75-.8.6-6.3 4.65m5.9-8.1q-.25.75.05 2.1l.35 1.35m2.7 1.9q-1.05-.45-1.1-1.5l.2-1.35m-.95 4.75q.1 1.55.65 3.1v.05l1 2.35 1-.65m1.1-.3.2-.55m.3 4.85 2.35 4 1.2 2 .85-.2m-5.65-5.2 1.15-.7m-11.3 4.25 1 .9m10.85-6.15q-1.05-.55-1.2-1.55m.75 5.65 2.05 3.9.85-.75.65-.15m-4.8-5.4 1.25 2.4m-2.6-6.35-7 4.5m3.3 16.15-.35-1.1m1.3 2.3q-.65-.45-.95-1.2m-25.4 7.75-.5.35-.6.4m28.5-6.9-.3-.95-.75.55m11.3-8.4-.8.35-.5.4 1.5 2.4q1.4 2.85 1.6 6.25-1.25 3.85-5.6 6.3m5.55-12.25q-.7-1.65-1.75-3.45l.8-.3 1.7-.2.65.1m-17.55-4.6 7.2-4.5m-4.7 13.35 8-7.05m2.6 3.95-9.25 7.1M89.05 145l.3.4m15 6.7h-.05m-10-1.5q-4.25-1.7-6.95-5.4m6.95 5.4q4.25 1.75 10 1.5m-16-3.15q1.7 4.1 1 6.75 2.85 4.25 10.25 2.8 2.6-3.3 11.3-7.25l-6.5.85m41.9-23.5 2-.35 3 .3v-1.85m-30.1 2.75 2.45-.3m-8.3 18.5q-1.85 2.05-4.45 3.6m7.15-7.65q-.95 1.95-2.3 3.6l-.4.45m14.6 18.4q.7.75.5 1.7l2.25 1.15q-.6-2.6 2.3-3.9l1.65.3.85.25m-28.7-15.7q4.05-.75 7.3-8.15m56.9-110.85q1.15-1.35 2.6-2.35 3-2.2 7.05-2.95m-16 13.85 1.3 1.1.5-1.65.4-1.1q1.6-4.15 4.15-6.9l9.85-.5 2.7.25 1.75.55q.9.5.75 1.3m-25.95-.8q-1.25-.25-2.5-1m6.6-2q.55.9.35 2-2.2 1.35-4.45 1 1.15 4.5 4.55 7.75M156.45 22q8.05-.75 8.7 1.4-.8 2.15-5.35 2.4 5.05.95 6.35 2.85m13.5 16.05 1.1.4q1.2-2.4-3.25-3.75 3.25-1.8 3.25-3.6-1-3.2-6.55-1.85-2.35.5-5.4 1.85m8.85 10.8q1.2 1.9 2 4.2L180 54m-5.4 2.45 1.45-.25m.1-9.7 1.5 2.05m-1.5-2.05q.15-2.75 3.5-1.8m-11.75-4.2 2.1 1.4q3.7 1.75 6.15 4.6m-28.1 30.45q25.25-8.35 51.4-8.55l1.3.35m8.85 21.2-5.75 1.4m39.1 10.4 1.55.05m-52.7 6.6q.7-2.95.45-6.3.1-6.3 1.05-7.85m20.1-22-11.6 2.55-16.5 4q-12.7 3.2-27.9 3.55m52.2 7.6.7-.2m-35.9-26.7q.8-.95 1.1-2.05.3-1.2-.05-2.55l-.85-2q-4.7.95-8.8 3.85m-10.55.6q-13.35-4-29.65-5.05m51.6 63.4-.5-2.4q-.25-1.15-2.3-6-.75-3.35-7.35-8.35m10.2 17.85-.05-1.1m44.85.2 1.75 2.8m-2.65-4.85.9 2.05M191.8 108.4l-.4 1.3m38.75 10.55q-3.7-4.6-3.6-10.1m14.1-8.5 2.3.1m-9.55 21.2-2.05-1.3-1.2-1.4m6.7-18.9-1.85-.25q-6 2.75-8.45 9.05m-73.65-4.8q2.9 4.25 10.95 8.55M235 101.1l1.45-.6m4.2 1.15-3.8-.3m16.75 13.25q.8.2 1.35.55.6.35.9.8 4.65-12.6 10.3-12.75M211.1 89.55q13.2-3.15 23.85-4.95 11.55-.05 20.85-7.35m14.35 38.25h-2.1l-6.7-1.35 6.15 4.55 1.15.2 4.2.65m-20.2-1.15q-1.3-2.85 2.3-3.25m-1.9 4 .8.9q-.9 3.45-1 5.95-.2 7.2 6.6 6.9m-7.05-14.3.65.55-.4-.75m-19.25 4.55L235 124l1.65 1.05m16.95-10.45q-3.35-1.05-11.3-.95 7.2 2.65 10.1 4.95m-114.7 55.6-.95-1.95q-1.85-2.05-4.1-3.35m5.05 5.3.2 1.2m-15.15-8q.5.7.6 1.95.9.4 1.65.95-.1-3 3.15-3.3 1.15.3 2.25.75m-7.65-.35q-.55-.7-1.5-.85m-5.35 5.85q.75-3.6 4.45-4.1l1.3.35q.9.3 1.7.7m-7.45 3.05q-.3 1.25-.2 2.9.35 1.6 2.3 3.25m10.75-.75.05-.65q.1-1-.1-2.2-1.2-2.95-3.7-4.65m4.9-4.25q-.6-.65-1.75-1.15m-39.45-7.75-1.1 1.4m1.2-1.6-.1.2m11.2 10.1q-.1-1.35-2.15-2.95m-78.1-1.1-1.2.3q-6.2 1.8-7.1 9.3l-.05.9m8.35-10.5 1.15-.15q-.1-1.35.55-1.95m4.5 8.7q-.6-6.15-3.05-6.9l-2 .15M9.9 157.2l-1.1.35m3.4 2.3q.2-.85.6-1.45.2-1.4-1.75-1.45l-1.15.25m-.75 4.55q1.45-1.15 3.05-1.9.75-.4 1.55-.65 4.4.25 4.7 4.3m-5.65-5.1q.7-1.05 1.95-1.35m11 14.1.1-1.35m-.1 1.4v-.05m-16.6-9.4q-2.1 1.65-3.9 4.2-.65.85-.95 1.9L4 169.3m85.3-13.6-.5 1.25"/><path stroke-linejoin="round" stroke-linecap="round" stroke="#3f2910" fill="none" d="m-5.7-15.65 4.1-3.2M19.95-30.1l4.3-1.35m-92.5 40.9 6.05-2.9 4.2-2.8q-.5-1.1-.1-2.25l.25-2.15q.3-1.9 1.2-3.55l1.85-2.75m1.5 14.1-2.55-1.25q-1.6-1.05-2.15-2.15m76.45-33.3-6 2.45Q5.1-23.75-1.6-18.85m-4.1 3.2-2.6 2.15q-13.05 5.7-31.75 8.3l-2.8.35m-4.7-4.25q1.2-.3 1.9-1.4m.95 5.85 1.85-.2m-3.45 7.9q-.45-1.7 1.3-3.35l-2.1-.3q-1.4-1.55 2.4-4.05m-4.95-4.45q1.2.2 2.1 0m82.9-18.95 2.25.65 5.95 1.6m-8.2-2.25-2.35-.7-4-1.4-1.7-.65-2.15-.9-.9.25m-4.3 1.35-.4.15-1.1.4" transform="translate(136.8 90.45)"/><path fill-rule="evenodd" d="M4.8-26.15q0-1.65 1.5-2.85 1.5-1.15 3.65-1.15T13.6-29l.9.95-8.65 4.3q-1.05-1-1.05-2.4" transform="translate(136.8 90.45)"/><path stroke-width="1.5" stroke-linejoin="round" stroke-linecap="round" stroke="#3f2910" fill="none" d="M85.7 16.45q-23.15-3.1-23.85 1.85.2 2.45 6.45 3.75-5.5-1.05-11 4.3-.8 3.7 6.7 2.15Q48.9 39.4 43.35 55q1.9 2.9 8.85-3.25 2.7 7.95 12.35 14.4 8.25 5.55 21.65 10l4.25.3-1.35.7q-2.8 1.75-1.95 4.2l-2-.65Q83.3 82 82 83.5q-8.65-7.65-23.65-11.1Q40.85 82.9 18.5 81l1.55 1.65Q31.2 93.8 52.2 98.5l-1 1.35q-5.65 6.85-20.4 9.5l6.35 1.85 1.8.35.25.05q8.85 1.6 21.85 1.55-2.85 2.15-4.85 4.65l-2.15 3.05Q51.45 115.2 50 118q-.95 1.85 0 3.65-14.25-8.25-16.15-5.55-1.1 1.95 2.6 6.2-6.65-5.1-7.45-1.7-.4 1.7 3.6 5.1-11.1 2.85-10.6 7.8-.15 2.2 4.75 3.3-2.9.05-2.75 3.6.5 1.9 2.65 1.25l-2.65 1.6q-3.15 2.35-5.7 4.95-3.4 3.35-5.8 7.05-3.05.7-3.7 2.3-3.55 1.2-5.85 4.05-1.7 2.05-2.1 4.95l-.1.9Q.9 170.2 4 169.3v1.8l.25 1.55q.3.55 1.15.85l5.9.2-.05.4q.1 1.65 2.2 2.3l4.95.3q2.05-.4 3.55-1.1.95.9 2.75.4l.45.1q12.65.75 23.75-4 2.25-1.65 0-9.05 1.55-.7 0-2.6 5.9-4 12.15-6l2.85-.3q6.3-.6 11.35 0l1.05.15.6 1.5q1.85 4.05 5.25 5.45l.6-.05q2.85-.55 4.85-2.65 6.15 2.55 10.15 5.75 1.15 5.25.35 8.95-.05.95 1.1 1.75 3.2 2.2 16.05 3.1.75.9 2.75.45l.1.1q2.4 2 7.9 1.4l1.7-.25q.8-.75 1.05-2 3.25 2.55 7.2.4l.9-.55q1-.95 1.05-2.25 1.75 1.1 3.75.55l1.55-.65.55-2.2q.05-1.8-.9-3.6-2.25-2.9-5.4-3.95-.05-1.65-2.85-2.5-4.75-8.95-14.7-15.7.85-1.45-1.9-3.75.85-1.75 1.35-3.75l-1.25-2.05q1.7-3.85 2.6-8.35h.45q4.6 3.6 14.35 2.4 5.55-2.25 10.75-3.25 3.55 5.9 7.4 6.45 4.75-.4 5.4-5.35 10.85 1.1 15.25-2.95 2.8-2.95 2.95-6.4 7.2-1.95 11.35-5.5l.55-.8q1.45-2.05 2.25-4.35 17.85 3.3 32.4 12.55 1.95 2.7 4.9 5.25l.75.6q6.5 0 7.2-3.05l18.25 11.6q4.35 0 7.75-1 4.2-1.25 7-4.05 1.4-1.9 2.2-4.05 1.3-3.6 1-8-4.35-3.45-2.7-4.05h2.15l-1.15-7.1q-2.1-10.5-5.25-10.3-10.2 3.7-21.4 3.7 1.65-2.15-6.2-5.3-17.55 2.6-28.9-2.1 2.6-1 .9-4.65l.8-.2q20-3.35 25.55-2.3 6.15-1.3 9.95-3.4 5.95-2.8 9.2-6.6v-.05q-15.65 1.6-26.1-4.55-3.75-2.95-16.3-.4-6.25-.65-10.15-2.55l-.95-.5-.2-.15q-1.75-6.6-17.4-3.35l-1.1-.25-3.25-.8q-2.8-3.3-2.6-5.65 1.2.3 2-1.05l.7-1.9L180 54q7.15 6.55 13.3 5l.55-.95q1.2-2.75-2.7-4.15l.75-.25q6.2-2.4 10.9-6.4l1.2-1.1q2.25-3.6-1.6-5.1 3.4-12.15-9.1-27.3 8.3 5.05 7.6 1.05-2.7-6.45-12.65-8.8Q195.5-.15 190.9.9 169.15 6.35 156.45 22q-6.1.55-16.45 2.75 12-4.35 15.55-11.5 1.25-5.75-18.75 3.2-13.1 6.1-22 14.1Q83.3 2.7 83 8.65q-1.25 3.9 2.7 7.8"/><path stroke-width=".05" stroke-opacity=".702" stroke-linejoin="round" stroke-linecap="round" stroke="#5c3d18" fill="none" d="m76.8 113.85-.4.4.25-.55.15.15m.9 7.55-.15-.15-.25.55.4-.4m2.4 9.7.2-.55.2.2-.4.35m-1.35-6.25-.55-.2.4-.2.15.4m10.6 20.55-.3-.4.65.1-.35.3"/></g><path fill-rule="evenodd" fill-opacity="0" fill="#f0f" d="M102.95 45H0V0h102.95v45" id="bb"/></defs><path fill="none" d="M-1-1h323v216H-1z"/><g><g stroke="null"><use x="125.991" y="162.691" xlink:href="#bc" width="381" transform="matrix(1.52895 0 0 1.52895 -294.399 -449.51)" height="381"/><use xlink:href="#bd" width="273.65" transform="translate(.883 2.265) scale(1.15466)" height="180.95"/><use xlink:href="#be" width="102.95" transform="matrix(2.76311 0 0 2.52857 45.779 54.723)" height="45"/></g></g></svg>