<svg width="192" height="203" xmlns="http://www.w3.org/2000/svg" xmlns:xlink="http://www.w3.org/1999/xlink"><defs><linearGradient y2="1.326" y1=".332" x2=".326" x1=".529" spreadMethod="pad" id="b"><stop stop-color="#af5f11" offset="0"/><stop stop-color="#c17a13" offset="1"/></linearGradient><linearGradient y2=".3" y1=".828" x2="1.027" x1=".213" spreadMethod="pad" id="c"><stop stop-color="#d47315" offset="0"/><stop stop-color="#d09815" offset="1"/></linearGradient><linearGradient y2=".767" y1="-.169" x2=".435" x1=".613" spreadMethod="pad" id="d"><stop stop-color="#7b430d" offset="0"/><stop stop-color="#603409" offset="1"/></linearGradient><linearGradient y2=".97" y1=".504" x2=".43" x1=".487" spreadMethod="pad" id="e"><stop stop-color="#562e08" offset="0"/><stop stop-color="#261104" offset="1"/></linearGradient><linearGradient y2=".009" y1=".784" x2=".5" x1=".5" spreadMethod="pad" id="f"><stop stop-color="#4b4b01" offset="0"/><stop stop-color="#323201" offset=".988"/></linearGradient><linearGradient y2=".509" y1=".293" x2=".419" x1=".654" spreadMethod="pad" id="g"><stop stop-color="#600" offset="0"/><stop stop-color="#430101" offset="1"/></linearGradient><linearGradient y2=".056" y1=".812" x2=".602" x1=".334" spreadMethod="pad" id="h"><stop stop-opacity=".243" stop-color="#600" offset="0"/><stop stop-opacity=".161" stop-color="#ff0" offset="1"/></linearGradient><use xlink:href="#a" width="345.05" height="364.05" id="k"/><use xlink:href="#i" width="102.95" height="45" id="l"/><g id="j" stroke-opacity="0" stroke-linejoin="round" stroke-linecap="round" stroke="#f0f" fill="none"><path d="M187.95-293.5v380h-380v-380h380M92.95.6H-97" transform="translate(192.55 294)"/><path d="m187.95-293.5-190 190 190 190m-379.95 0 189.95-190-190-190" transform="translate(192.55 294)"/></g><g id="a"><path fill-rule="evenodd" fill="#fff" d="M99.75 22.2q3.95-4.45 10.85-7.7 12.6-1.2 15.65 1.15 2.2 1.7-.65 5.35-2.55 2.7-6.6 4.5-19.5 2.3-19.25-3.3M13.6 87.3q4.35-19.5 20-31.8 12.1-9 15.15-5.65 1.35 1.5.85 5.65-2.9 7.2-7.4 13.75Q23.55 86.1 13.6 87.3m226.05 78.4q-.15 11.55-11.1 12.3-3.9-1.45-6.75-4.15 4.85-4.25 11.3-7.9l2.95.55q1.95 0 3.6-.8m-29.5 49.6 14.75 1.45-3.85 8.75q-7.3 2.2-10.9-3v-7.2m-15.05 80.45V288q4.3-10.2 9.5-6l2.05 6.15-11.55 7.6m-35.75-23.7h3.75q2.85 2 0 8.45l-3.95 4.75.2-13.2m1.8 18.7 3.95-5.25q7.15-2.25 10.55 3v20.95q-4.55 0-8.2-1.75l-6.3-16.95m37.95-69.1-1.5 10.85q-6.35 2.6-11 0l-1.45-3.3 13.95-7.55M67.5 48.75Q72.05 44.5 86.85 37q13.95-7.05 10.75 2-5.9 4.55-11.95 7.9l-.55.3q-15.4 6.4-17.6 1.55M17.95 115.2Q21 106.85 29.6 93.5q3.05.55-.95 12.85-5.3 9.05-10.7 8.85" transform="translate(1.5 1.5)"/><path fill-rule="evenodd" fill="#930" d="M199.3.05q15.2-.3 29.1 2.4-4.25.75-8.45 1.9-4.15 1.15-8.25 2.75-17.75.8-31.1 4.35 17.7-7.4 18.7-11.4M8.6 118.35q1.65-6.9 3.9-13.5 2-6.05 4.6-11.85 11.1-7.35 18.95-16 10.85 3.65 40.05-9.45l-2.9 3.15-4.3 5.55q-8.25 2.5-17.9 16.8l-2.9 4.45.05 3.05q-9.75 9.3-15.9 22.2Q15 146.2 4.9 143.15q.6-9.05 2.25-17.7v-.15q.65-3.5 1.45-6.95m20.05-12q4-12.3.95-12.85-8.6 13.35-11.65 21.7-2.9 7.9-.85 11.3 4.5-.8 9-13l2.55-7.15" transform="translate(1.5 1.5)"/><path fill-rule="evenodd" fill="url(#b)" d="M297.6 18.45q1.25 1.2 2.25 2.7 6 8.65 3.95 25.9-4 21.2-9.85 37.1l-10.2-3.5q22.1-21.5 13.85-62.2m44.2 64.2q-.9 8.85-4.3 18.1-7.85 20.95-28.95 43.65-4 4.35-8.8 6.8l-1.1-15.7q17.05 7 43.15-52.85M211.7 7.1q4.1-1.6 8.25-2.75Q235.15 10.4 238.6 46q-6.85 27.4 3.5 36.2l-19.05 5.45q10.6-59-11.35-80.55m49.15 72.75q6.8-21.55 7.9-50.6l3.15-1.75q.6 26.75-6.15 52.05l-4.9.3m-97.7-61.65q28.1-5.5 27.95 41.3-3.45 25.95 10.45 35.4l-16.4 3.95q3.3-23.85-4.55-54.35-6.95-22.3-26.85-19.75 4.1-3.65 9.4-6.55m161.8 29.3q1.4 8.3-.4 19-7.7 26.95-22.65 43.65l.55-16.2q9.7 2.3 22.5-46.45m-194.2-14.6q3-2.8 7.15-4.6 15.9 28.35 25.7 67.7 2.5 9.2 10.6 7.25l-13.55 3.7q-6.5-30.45-29.9-74.05m14 77.85-14.25 3.85-.6-.9q-21.3-31.45-31.75-61.55l3.8-3.75q22.8 60.25 40.2 62.9l2.6-.55M68.9 76.25l4.3-5.55q6.4 38.8 31.65 46.05l-15.85.2h-.05Q72.65 99.1 68.9 76.25" transform="translate(1.5 1.5)"/><path fill-rule="evenodd" fill="url(#c)" d="M228.4 2.45q13.95-2.4 28.15.05l6.5 3.5q-2.55 1.3-4.75 2.55Q235.4 21.7 252.05 29q7.95 4.4 16.7.25-1.1 29.05-7.9 50.6-8.55.6-18.75 2.35-10.35-8.8-3.5-36.2-3.45-35.6-18.65-41.65 4.2-1.15 8.45-1.9m47.35 22.25Q281 20.3 286.6 13q6.8 1.35 11 5.45 8.25 40.7-13.85 62.2-7.55-1.5-18-1.1 6.75-25.3 6.15-52.05l3.85-2.8m24.1-3.55q17.35 5.05 23 18.8 16.5 13.1 19.2 37.05l-.25 5.65q-26.1 59.85-43.15 52.85.4-10.7 3.25-25.35 14.95-16.7 22.65-43.65 1.8-10.7.4-19-.65-4.05-2.1-7.55 1.45 3.5 2.1 7.55-12.8 48.75-22.5 46.45-2.15-6.3-8.5-9.8 5.85-15.9 9.85-37.1 2.05-17.25-3.95-25.9m37.65 79.6q7.15 20.25-3.95 43.95-13.4 17.25-30.05 14.95-2.5-3.2-3.75-8.45 4.8-2.45 8.8-6.8 21.1-22.7 28.95-43.65m-156.9-89.3q13.35-3.55 31.1-4.35 21.95 21.55 11.35 80.55l-21.5 7.25q-13.9-9.45-10.45-35.4.15-46.8-27.95-41.3 7.5-4.15 17.45-6.75m-26.85 13.3q19.9-2.55 26.85 19.75 7.85 30.5 4.55 54.35l-.15 1.25-10.8 3.15q-8.1 1.95-10.6-7.25-9.8-39.35-25.7-67.7 6.5-2.9 15.85-3.55m-9 86-2.6.55q-17.4-2.65-40.2-62.9 14.3-13.35 28.8-15.5 23.4 43.6 29.9 74.05l-2.25.55-13.15 3.15-.5.1m-46.6-58.6q10.45 30.1 31.75 61.55-12.45 2.2-22.9 2.95l-.55.05-1.35.1-.25-.05Q79.6 109.5 73.2 70.7l2.9-3.15q9.7-10.2 22.05-15.4M51 93.05q9.65-14.3 17.9-16.8 3.75 22.85 20.05 40.7Q56.05 115 51 93.05" transform="translate(1.5 1.5)"/><path fill-rule="evenodd" fill="#c13a02" d="M119 25.5q4.05-1.8 6.6-4.5 2.85-3.65.65-5.35Q165.9.7 199.3.05q-1 4-18.7 11.4-9.95 2.6-17.45 6.75-5.3 2.9-9.4 6.55-9.35.65-15.85 3.55-4.15 1.8-7.15 4.6-14.5 2.15-28.8 15.5l-3.8 3.75q-12.35 5.2-22.05 15.4Q46.9 80.65 36.05 77q3.35-3.8 6.15-7.75 4.5-6.55 7.4-13.75.5-4.15-.85-5.65 24-18.65 48-23.35-.7 1.2-1.15 2.5 14.95.3 23.4-3.5M85.65 46.9Q91.7 43.55 97.6 39q3.2-9.05-10.75-2-14.8 7.5-19.35 11.75-4.6 4.15.85 5.1Q76.9 51.6 85.1 47.2l.55-.3m-17.3 6.95L63.1 55l5.25-1.15" transform="translate(1.5 1.5)"/><path fill-rule="evenodd" fill="#562e08" d="M258.3 8.55Q247.6 30.2 275.75 24.7l-3.85 2.8-3.15 1.75Q260 33.4 252.05 29q-16.65-7.3 6.25-20.45" transform="translate(1.5 1.5)"/><path fill-rule="evenodd" fill="url(#d)" d="m333.55 144.7-3 5.8-8.85 12.55-7.45 8.75q-9.6 10.15-18.65 14-9.85-9.9-16.4-25.7 10.2 1.65 24.3-.45 16.65 2.3 30.05-14.95M242.1 82.2q10.2-1.75 18.75-2.35-7.65 24.05-22.35 38.75 14.7-14.7 22.35-38.75l4.9-.3q10.45-.4 18 1.1l10.2 3.5q6.35 3.5 8.5 9.8l-.55 16.2q-2.85 14.65-3.25 25.35l1.1 15.7q-9.55 4.85-22.2 2.2-1.9-5.8-3.5-12.4-1.8-5.15-5.65-9 19.75-6.6 33.5-21.85-13.75 15.25-33.5 21.85-2.75-2.8-6.5-4.9-3.7-2.1-8.35-3.6-4.35-1.85-9-3.25l-6.05-1.65q-10.3-2.4-21.8-2.7 4-15.05 6.35-28.25-2.35 13.2-6.35 28.25-5.4-.2-11.1.1-13.35 1.9-27.05 6.25 4.6-10.25 6.45-22.15-1.85 11.9-6.45 22.15-13.7 4.3-27.75 11.05l-4.1 3.35q-8.75-11.1-16.2-22.05 7.45 10.95 16.2 22.05-6.2 5.3-11.45 11.45Q105.6 135.15 89 116.95q16.6 18.2 46.25 31.15-5.5 6.45-9.95 13.8l-1.65 2.85-1.55 2.75v5q-4.15 10.1-8.5 18.55-11 4.75-24.5 5.95-51.55 3.4-64.25-29.8-1.35-3.4-2.25-7.2 2.1-21.35 9.65-37.25 6.15-12.9 15.9-22.2l-.05-3.05 2.9-4.45q5.05 21.95 37.95 23.9H89l15.85-.2.25.05 1.35-.1.55-.05q10.45-.75 22.9-2.95l.6.9 14.25-3.85.5-.1 13.15-3.15 2.25-.55 13.55-3.7 10.8-3.15.15-1.25 16.4-3.95 21.5-7.25 19.05-5.45m51.85 1.95q-12.1 32.65-32.05 42.95 19.95-10.3 32.05-42.95m-133.3 22.8q2.1 9.7 2.45 18.05-6.55 3.8-12.3 8.3 5.75-4.5 12.3-8.3-.35-8.35-2.45-18.05M60.6 150.5Q45 136.75 46.1 120q-8.2-5.25-8.5 15 6 17.85 23 15.5m-12.45-49.95q1.9 65.65 77.15 61.35-75.25 4.3-77.15-61.35m-25.1 79q35.45 35.35 88.5 17.05-11.65 18-20.35 26.25l-5.6 1.65q-36.15 5.8-52.95-8.45-2.2-1.85-4.05-4.05-6-18-5.55-32.45m18.15 50q-2.5-2.75-4.4-5.5 24.05 11.35 49.3 3.05-20.75 15.5-44.9 2.45" transform="translate(1.5 1.5)"/><path fill-rule="evenodd" fill="url(#e)" d="m314.25 171.8-3 6.5q-4.6 8.65-12.65 10.25 2.2 1.85 4.6 3.35-13.2 18.55-32.35 24.65l-.8-9.05q-2.5-15.55-5.3-28.75-2.75-12.85-5.75-23.4l-3.45-10.9-3.2-8.7-2.05-4.7-.35-.85q-2.6-5.65-5.4-9.95 4.65 1.4 9 3.25 4.65 1.5 8.35 3.6-5.5 2.8-11.6 3.95 6.1-1.15 11.6-3.95 3.75 2.1 6.5 4.9-7.6 2.5-16.05 3.75 8.45-1.25 16.05-3.75 3.85 3.85 5.65 9 1.6 6.6 3.5 12.4 12.65 2.65 22.2-2.2 1.25 5.25 3.75 8.45-14.1 2.1-24.3.45 6.55 15.8 16.4 25.7-16.35 6.9-30.85-7.05 14.5 13.95 30.85 7.05 9.05-3.85 18.65-14m-208.5 76.8q-20.15 10.1-42.2-1.8-7.8-4.6-13.75-9.3l-.35-.25q-4.75-3.85-8.25-7.7 24.15 13.05 44.9-2.45-25.25 8.3-49.3-3.05-2.7-4-4.15-8 16.8 14.25 52.95 8.45l5.6-1.65q8.7-8.25 20.35-26.25-53.05 18.3-88.5-17.05.25-6.55 1.8-12.35 12.7 33.2 64.25 29.8 13.5-1.2 24.5-5.95 4.35-8.45 8.5-18.55v-5l1.55-2.75q2.25 9 3.45 18.5 1.2 9.85 1.35 20.2.1 12.2-1.35 25.05-12.65 9-21.35 20.1m149.8-104.15q11.95 6.85 22 8.95-10.05-2.1-22-8.95m-128.45 38.8q-6.2 4.65-13.5 7.8 7.3-3.15 13.5-7.8m1.35 20.2q-17.55 12.95-37.25 19.4 19.7-6.45 37.25-19.4" transform="translate(1.5 1.5)"/><path fill-rule="evenodd" fill="url(#f)" d="M182.85 355.05q-25.8 10.25-50.75 2.95-44.1-20.35-45.5-57 1.8-30.35 19.15-52.4 8.7-11.1 21.35-20.1 1.45-12.85 1.35-25.05-.15-10.35-1.35-20.2-1.2-9.5-3.45-18.5l1.65-2.85q4.45-7.35 9.95-13.8 5.25-6.15 11.45-11.45l4.1-3.35q14.05-6.75 27.75-11.05 13.7-4.35 27.05-6.25 5.7-.3 11.1-.1 11.5.3 21.8 2.7l6.05 1.65q2.8 4.3 5.4 9.95l.35.85 2.05 4.7 3.2 8.7 3.45 10.9-5.25 1.65q-5.3 1.75-10 3.75l.3-2.25q0-3.3-2.35-5.65-.95-.95-2.1-1.55-.15-2.95-.75-5.45h9.75l-4.55-7.85q-4.65-1.35-9.35-.6-10.25 1.65-20.65 13.4l-1.45 1.7q-3 5.9-1.85 9.4l3.55-6.75q.2 2.6.65 4.95 1.75 8.9 6.85 13.75l-3 2.8q5.7 8 17.8 7.35-13.2 4.9-21.8-2.8-6.8 8.85-8.2 19.8 20.9-3.65 31 4 7.4 10.7-.05 25.95 2-16.95-4.85-22.1l-4-.8q-9.5-1.6-18.55.1-4.85.85-9.55 2.7-9.3 3.65-18.05 10.9l-.55.45q-20.95 17.7-25.65 44.65-.45 2.55-.75 5.2-.95 8.55-.4 18 .9 3.2 2.05 5.9 3.7 8.65 10.2 11.75 3.65 1.75 8.2 1.75 4.75-.05 10.5-2 4.2-1.45 8.95-3.95l7.65-7.35q-13.1 15.65-2.1 8.6 21.3-13.7 38.45-54.75-10.55 44.4-51.95 70.2-13.2 15.1-12.05 20.3-1.05 12.15 7.75 14.55m60.7-226.55 5 5.5q1.4 2.5-4.5 4 5.9-1.5 4.5-4l-5-5.5m-11.45-2q-13.85 1.15-19 19 15.5-13.75 30.45-11.5-.1-6.55-11.45-7.5m-37.9 6.35q-.85-.85-2.1-.85t-2.15.85q-.85.9-.85 2.15t.85 2.1q.9.9 2.15.9t2.1-.9q.9-.85.9-2.1t-.9-2.15M206.6 149q3.4 9.95 0 14.55 3.4-4.6 0-14.55m-2-.5q-18.05-9.45-41.5-8-19.95 4.3 27.5 18.5 19.3 2.3 14-10.5m8 16q-1.35-1.05-1.85-2.6.5 1.55 1.85 2.6m-15.65 8.3h6.15l3.5-9.25q-1.95 2.55-6 3.45l-4.2-.3-12.1-1.75h-.05q-15.6-3.25-29.2-11.05l-3.95-2.4-10.5 3.5q10.7-1.95 15.5 5.9 2.5 7.55 11 15.1 18.65 8.8 22.55 2 3.15 0 5.4-2.25 1.3-1.3 1.9-2.95m-52.75 22q-1.1 1.85-1.1 4.45t1.1 4.4q1.1 1.85 2.65 1.85 1.55 0 2.65-1.85 1.1-1.8 1.1-4.4 0-2.6-1.1-4.45-1.1-1.8-2.65-1.8-1.55 0-2.65 1.8m4.45 54q-6.5 17.5-1.55 31.7 2.3-28.75 20-57.5-12 8.3-18.45 25.8m-28.75 52.7q-1.5 5.7-.15 10.35 1.45 4.7 4.95 5.65 3.45.9 7-2.45 3.6-3.35 5.1-9.05 1.55-5.7.15-10.4-1.45-4.7-4.9-5.6-3.5-.95-7.05 2.4-3.55 3.4-5.1 9.1m-6.05-22q2.4 0 4.05-2.2 1.7-2.2 1.7-5.3 0-3.1-1.7-5.3-1.65-2.2-4.05-2.2t-4.1 2.2q-1.65 2.2-1.65 5.3 0 3.1 1.65 5.3 1.7 2.2 4.1 2.2" transform="translate(1.5 1.5)"/><path fill-rule="evenodd" fill="#660" d="M232.1 126.5q11.35.95 11.45 7.5-14.95-2.25-30.45 11.5 5.15-17.85 19-19m-37.9 6.35q.9.9.9 2.15t-.9 2.1q-.85.9-2.1.9t-2.15-.9q-.85-.85-.85-2.1t.85-2.15q.9-.85 2.15-.85t2.1.85m-.85 14.65q-1.55 0-2.65 1.1-1.1 1.1-1.1 2.65 0 1.55 1.1 2.65 1.1 1.1 2.65 1.1 1.55 0 2.65-1.1 1.1-1.1 1.1-2.65 0-1.55-1.1-2.65-1.1-1.1-2.65-1.1m11.25 1q5.3 12.8-14 10.5-47.45-14.2-27.5-18.5 23.45-1.45 41.5 8m54.2 79q2.15 0 3.7 2.6 1.55 2.65 1.55 6.4 0 3.75-1.55 6.35-1.55 2.65-3.7 2.65-2.15 0-3.7-2.65-1.55-2.6-1.55-6.35 0-3.75 1.55-6.4 1.55-2.6 3.7-2.6m-114.6-32.7q1.1-1.8 2.65-1.8 1.55 0 2.65 1.8 1.1 1.85 1.1 4.45t-1.1 4.4q-1.1 1.85-2.65 1.85-1.55 0-2.65-1.85-1.1-1.8-1.1-4.4 0-2.6 1.1-4.45m4.45 54q6.45-17.5 18.45-25.8-17.7 28.75-20 57.5-4.95-14.2 1.55-31.7m-34.8 30.7q-2.4 0-4.1-2.2-1.65-2.2-1.65-5.3 0-3.1 1.65-5.3 1.7-2.2 4.1-2.2 2.4 0 4.05 2.2 1.7 2.2 1.7 5.3 0 3.1-1.7 5.3-1.65 2.2-4.05 2.2m6.05 22q1.55-5.7 5.1-9.1 3.55-3.35 7.05-2.4 3.45.9 4.9 5.6 1.4 4.7-.15 10.4-1.5 5.7-5.1 9.05-3.55 3.35-7 2.45-3.5-.95-4.95-5.65-1.35-4.65.15-10.35" transform="translate(1.5 1.5)"/><path fill-rule="evenodd" fill="#181801" d="M234.7 137.4q4.7-.75 9.35.6l4.55 7.85h-9.75l-.95-3.15q-1.2-3.05-3.2-5.3m-20.4 17.75-3.55 6.75q-1.15-3.5 1.85-9.4l1.45-1.7.25 4.35m-7.7 8.4-3.5 9.25h-6.15q.35-1.15.35-2.45 0-2-.9-3.65l4.2.3q4.05-.9 6-3.45m-50.5-2.65q-4.8-7.85-15.5-5.9l10.5-3.5 3.95 2.4q-.05 2.3.4 4.6l.65 2.4" transform="translate(1.5 1.5)"/><path fill-rule="evenodd" fill="#b9ab88" d="m237.9 142.7.95 3.15q.6 2.5.75 5.45-1.6-.8-3.55-.8-3.3 0-5.65 2.35-2.35 2.35-2.35 5.65 0 3.3 2.35 5.65 1.2 1.2 2.7 1.8-6.45 3.65-11.3 7.9-5.1-4.85-6.85-13.75 10.65-16 22.95-17.4M189.65 178q-3.9 6.8-22.55-2-8.5-7.55-11-15.1l-.65-2.4q9.8 5.75 26.85 9.7-.3 1-.3 2.15 0 3.15 2.25 5.4 2.25 2.25 5.4 2.25" transform="translate(1.5 1.5)"/><path fill-rule="evenodd" fill="#7e7e01" d="m188.8 352.45-5.95 2.6q-8.8-2.4-7.75-14.55-1.15-5.2 12.05-20.3 41.4-25.8 51.95-70.2-17.15 41.05-38.45 54.75-11 7.05 2.1-8.6l4.85-5.1q26.45-29.2 29.95-60.05v-.05q7.45-15.25.05-25.95-10.1-7.65-31-4 1.4-10.95 8.2-19.8 8.6 7.7 21.8 2.8-12.1.65-17.8-7.35l3-2.8q2.85 2.7 6.75 4.15 10.95-.75 11.1-12.3l2.05-1.55q1.5-1.5 2.05-3.4 4.7-2 10-3.75 18.45 48.5 12.35 87-.85 18.15-6.45 36.25-3.5-5.65-10.1.25-13.15 14.5-13.35 36l-21.95 19.95q-6.65-6.5-14.15-2.45-11.75 3.25-11.3 18.45m4.55-204.95q1.55 0 2.65 1.1 1.1 1.1 1.1 2.65 0 1.55-1.1 2.65-1.1 1.1-2.65 1.1-1.55 0-2.65-1.1-1.1-1.1-1.1-2.65 0-1.55 1.1-2.65 1.1-1.1 2.65-1.1m65.45 80q-2.15 0-3.7 2.6-1.55 2.65-1.55 6.4 0 3.75 1.55 6.35 1.55 2.65 3.7 2.65 2.15 0 3.7-2.65 1.55-2.6 1.55-6.35 0-3.75-1.55-6.4-1.55-2.6-3.7-2.6" transform="translate(1.5 1.5)"/><path fill-rule="evenodd" fill="#c00" d="M243.75 160.75q-.55 1.9-2.05 3.4l-2.05 1.55q-1.65.8-3.6.8l-2.95-.55q3.05-10.9 10.65-5.2" transform="translate(1.5 1.5)"/><path fill-rule="evenodd" fill="#600" d="M239.6 151.3q1.15.6 2.1 1.55 2.35 2.35 2.35 5.65l-.3 2.25q-7.6-5.7-10.65 5.2-1.5-.6-2.7-1.8-2.35-2.35-2.35-5.65 0-3.3 2.35-5.65 2.35-2.35 5.65-2.35 1.95 0 3.55.8m-43.2 15.4q.9 1.65.9 3.65 0 1.3-.35 2.45-.6 1.65-1.9 2.95-2.25 2.25-5.4 2.25-3.15 0-5.4-2.25-2.25-2.25-2.25-5.4 0-1.15.3-2.15.5-1.8 1.95-3.25h.05l12.1 1.75" transform="translate(1.5 1.5)"/><path fill-rule="evenodd" fill="#a09f01" d="M270.85 216.55q2.35 36.7-9.3 68.45-.8-2.95-1.9-4.75 5.6-18.1 6.45-36.25 6.1-38.5-12.35-87l5.25-1.65q3 10.55 5.75 23.4 2.8 13.2 5.3 28.75l.8 9.05m-31.3 100.95-23.45 21-1.85-2.05 21.95-19.95q.2-21.5 13.35-36-11.6 19.15-10.5 33.4l.5 3.6M193.6 350l-4.8 2.45q-.45-15.2 11.3-18.45-10.35 8-6.5 16" transform="translate(1.5 1.5)"/><path fill-rule="evenodd" fill="#a99870" d="M234.7 137.4q2 2.25 3.2 5.3-12.3 1.4-22.95 17.4-.45-2.35-.65-4.95l-.25-4.35q10.4-11.75 20.65-13.4m-79.65 16.5q13.6 7.8 29.2 11.05-1.45 1.45-1.95 3.25-17.05-3.95-26.85-9.7-.45-2.3-.4-4.6" transform="translate(1.5 1.5)"/><path fill-rule="evenodd" fill="#320f01" d="M237.55 230.95v.05q-3.5 30.85-29.95 60.05l-.95-2.9-2.05-6.15q-5.2-4.2-9.5 6v15.5q-4.75 2.5-8.95 3.95-8-15.4-5.6-29.4 4.3-10.4 8.55-11.55 18.1-4.4 19.5-10.5.4-2.8-.1-4.95-2-8.15-17.4-6.55-12.45 3.65-24.85 13.55-4.95 3.9-9.9 8.8 4.7-26.95 25.65-44.65l3.15 7 1.45 3.3q4.65 2.6 11 0l1.5-10.85 1.5-10.8q4.7-1.85 9.55-2.7V222.5q3.6 5.2 10.9 3l3.85-8.75 3.8-8.7 4 .8q6.85 5.15 4.85 22.1" transform="translate(1.5 1.5)"/><path fill-rule="evenodd" fill="#cc9" d="m207.6 291.05-4.85 5.1-7.65 7.35v-7.75l11.55-7.6.95 2.9m2.55-82.9q9.05-1.7 18.55-.1l-3.8 8.7-14.75-1.45v-7.15m-54.55 63.9h3.75l-.2 13.2-3.95 4.8q-.55-9.45.4-18m1.65 23.9 3.9-5.2 6.3 16.95q-6.5-3.1-10.2-11.75m41.85-74.3-13.95 7.55-3.15-7 .55-.45q8.75-7.25 18.05-10.9l-1.5 10.8" transform="translate(1.5 1.5)"/><path fill-rule="evenodd" fill="#7b430d" d="M311.25 178.3q-3.7 7.5-8.05 13.6-2.4-1.5-4.6-3.35 8.05-1.6 12.65-10.25" transform="translate(1.5 1.5)"/><path fill-rule="evenodd" fill="#900" d="M166.25 258.05q12.4-9.9 24.85-13.55 15.4-1.6 17.4 6.55-18.9 14.75-42.25 7" transform="translate(1.5 1.5)"/><path fill-rule="evenodd" fill="url(#g)" d="M208.5 251.05q.5 2.15.1 4.95-1.4 6.1-19.5 10.5-4.25 1.15-8.55 11.55-2.4 14 5.6 29.4-5.75 1.95-10.5 2V288.5q-3.4-5.25-10.55-3l-3.95 5.25-3.9 5.2q-1.15-2.7-2.05-5.9l3.95-4.8 3.95-4.75q2.85-6.45 0-8.45h-7.5q.3-2.65.75-5.2 4.95-4.9 9.9-8.8 23.35 7.75 42.25-7" transform="translate(1.5 1.5)"/><path fill-rule="evenodd" fill="#3a3a01" d="M261.55 285q-16.25 3.55-22 32.5l-.5-3.6q-1.1-14.25 10.5-33.4 6.6-5.9 10.1-.25 1.1 1.8 1.9 4.75m-45.45 53.5q-18.3-4.45-22.5 11.5-3.85-8 6.5-16 7.5-4.05 14.15 2.45l1.85 2.05" transform="translate(1.5 1.5)"/><path fill-rule="evenodd" fill="#f5e1cf" d="M99.75 22.2q-.25 5.6 19.25 3.3-8.45 3.8-23.4 3.5.45-1.3 1.15-2.5 1.15-2.3 3-4.3M.05 140.55l.05-2.05q1.6-18.1 8.5-20.15-.8 3.45-1.45 6.95v.15q-3.6 14.3-7.1 15.1m12.45-35.7q-3.4-1.4 0-11.35.4-3.2 1.1-6.2 9.95-1.2 28.6-18.05-2.8 3.95-6.15 7.75-7.85 8.65-18.95 16-2.6 5.8-4.6 11.85m55-56.1q2.2 4.85 17.6-1.55-8.2 4.4-16.75 6.65-5.45-.95-.85-5.1M17.95 115.2q5.4.2 10.7-8.85l-2.55 7.15q-4.5 12.2-9 13-2.05-3.4.85-11.3" transform="translate(1.5 1.5)"/><path fill-rule="evenodd" fill="#995411" d="M60.6 150.5q-17 2.35-23-15.5.3-20.25 8.5-15-1.1 16.75 14.5 30.5" transform="translate(1.5 1.5)"/><path fill-rule="evenodd" fill="#edbfa3" d="M4.55 162.1q-4.95-6.75-4.5-21.55 3.5-.8 7.1-15.1-1.65 8.65-2.25 17.7-.7 9.25-.35 18.95" transform="translate(1.5 1.5)"/><path fill-rule="evenodd" fill="#651f01" d="M49.45 237.25Q23 231.85 6.6 185q-1.7-11.75-2.05-22.9-.35-9.7.35-18.95 10.1 3.05 27.35-20.4-7.55 15.9-9.65 37.25.9 3.8 2.25 7.2-1.55 5.8-1.8 12.35Q22.6 194 28.6 212q1.85 2.2 4.05 4.05 1.45 4 4.15 8 1.9 2.75 4.4 5.5 3.5 3.85 8.25 7.7" transform="translate(1.5 1.5)"/><path stroke-opacity=".4" stroke-linejoin="round" stroke-linecap="round" stroke="#000" fill="none" d="M126.25 15.65q-3.05-2.35-15.65-1.15-6.9 3.25-10.85 7.7M119 25.5q4.05-1.8 6.6-4.5 2.85-3.65.65-5.35Q165.9.7 199.3.05q15.2-.3 29.1 2.4 13.95-2.4 28.15.05l6.5 3.5q-2.55 1.3-4.75 2.55-10.7 21.65 17.45 16.15Q281 20.3 286.6 13q6.8 1.35 11 5.45 1.25 1.2 2.25 2.7 17.35 5.05 23 18.8 16.5 13.1 19.2 37.05l-.25 5.65q-.9 8.85-4.3 18.1 7.15 20.25-3.95 43.95l-3 5.8-8.85 12.55-7.45 8.75-3 6.5q-3.7 7.5-8.05 13.6-13.2 18.55-32.35 24.65 2.35 36.7-9.3 68.45-16.25 3.55-22 32.5l-23.45 21q-18.3-4.45-22.5 11.5l-4.8 2.45-5.95 2.6q-25.8 10.25-50.75 2.95-44.1-20.35-45.5-57 1.8-30.35 19.15-52.4-20.15 10.1-42.2-1.8-7.8-4.6-13.75-9.3l-.35-.25Q23 231.85 6.6 185q-1.7-11.75-2.05-22.9-4.95-6.75-4.5-21.55l.05-2.05q1.6-18.1 8.5-20.15 1.65-6.9 3.9-13.5-3.4-1.4 0-11.35.4-3.2 1.1-6.2 4.35-19.5 20-31.8 12.1-9 15.15-5.65 24-18.65 48-23.35 1.15-2.3 3-4.3m120.2-17.85q4.2-1.15 8.45-1.9M211.7 7.1q4.1-1.6 8.25-2.75m40.9 75.5q6.8-21.55 7.9-50.6-8.75 4.15-16.7-.25-16.65-7.3 6.25-20.45m-77.7 2.9q13.35-3.55 31.1-4.35 21.95 21.55 11.35 80.55-2.35 13.2-6.35 28.25 11.5.3 21.8 2.7 14.7-14.7 22.35-38.75m-80.25-68.4q-9.95 2.6-17.45 6.75m159.7 21.75q1.45 3.5 2.1 7.55 1.4 8.3-.4 19-7.7 26.95-22.65 43.65-13.75 15.25-33.5 21.85m3.5-104.5 3.85-2.8m24.1-3.55q6 8.65 3.95 25.9-4 21.2-9.85 37.1m-49.4 36.1q2.8 4.3 5.4 9.95l.35.85q6.1-1.15 11.6-3.95 19.95-10.3 32.05-42.95m-40.4 39.35q-4.35-1.85-9-3.25l-6.05-1.65m11.8 12.45 2.05 4.7q8.45-1.25 16.05-3.75m-24.35 6q-4.65-1.35-9.35-.6 2 2.25 3.2 5.3l.95 3.15q.6 2.5.75 5.45 1.15.6 2.1 1.55 2.35 2.35 2.35 5.65l-.3 2.25q-.55 1.9-2.05 3.4l-2.05 1.55q-.15 11.55-11.1 12.3-3.9-1.45-6.75-4.15-5.1-4.85-6.85-13.75m29.1-22.1q5.9-1.5 4.5-4l-5-5.5M259 155.35l-3.45-10.9-3.2-8.7m-14.8 95.2v.05q-3.5 30.85-29.95 60.05l-4.85 5.1-7.65 7.35V288q4.3-10.2 9.5-6l2.05 6.15.95 2.9m25.5-125.1q-1.5-.6-2.7-1.8-2.35-2.35-2.35-5.65 0-3.3 2.35-5.65 2.35-2.35 5.65-2.35 1.95 0 3.55.8m-33 12.25q3.4-4.6 0-14.55m7.7 6.15-.25-4.35-1.45 1.7q-3 5.9-1.85 9.4.5 1.55 1.85 2.6m1.7-9.35q.2 2.6.65 4.95m-36.4-37.85q13.7-4.35 27.05-6.25 5.7-.3 11.1-.1m-10.1 47.65q-1.95 2.55-6 3.45l-4.2-.3q.9 1.65.9 3.65 0 1.3-.35 2.45-.6 1.65-1.9 2.95-2.25 2.25-5.4 2.25-3.9 6.8-22.55-2-8.5-7.55-11-15.1l-.65-2.4q-.45-2.3-.4-4.6 13.6 7.8 29.2 11.05h.05l12.1 1.75M140.6 155l10.5-3.5 3.95 2.4m45.55 56.95q4.7-1.85 9.55-2.7 9.05-1.7 18.55-.1l4 .8q6.85 5.15 4.85 22.1m2.1-65.25q-1.65.8-3.6.8l-2.95-.55m25.9-10.6q3 10.55 5.75 23.4 14.5 13.95 30.85 7.05m4.15-34.6q-9.55 4.85-22.2 2.2-10.05-2.1-22-8.95m-20.85-7.05q-10.25 1.65-20.65 13.4m85.7.4q4.8-2.45 8.8-6.8 21.1-22.7 28.95-43.65m-23.25 71.05q-9.6 10.15-18.65 14m-30.85-7.05q2.8 13.2 5.3 28.75l.8 9.05M271.9 27.5l-3.15 1.75m-58.6 186.05v7.2q3.6 5.2 10.9 3l3.85-8.75 3.8-8.7m-20.2 43q.5 2.15.1 4.95-1.4 6.1-19.5 10.5-4.25 1.15-8.55 11.55-2.4 14 5.6 29.4 4.2-1.45 8.95-3.95m-28.85-45.45q12.4-9.9 24.85-13.55 15.4-1.6 17.4 6.55m-42.25 7q-4.95 3.9-9.9 8.8-.45 2.55-.75 5.2h7.5q2.85 2 0 8.45l-3.95 4.75-3.95 4.8q.9 3.2 2.05 5.9l3.9-5.2 3.95-5.25q7.15-2.25 10.55 3v20.95q4.75-.05 10.5-2m-1-78.25 1.45 3.3q4.65 2.6 11 0l1.5-10.85 1.5-10.8q-9.3 3.65-18.05 10.9l-.55.45q-20.95 17.7-25.65 44.65m28.8-37.65-3.15-7m67.55 58.3q6.6-5.9 10.1-.25 1.1 1.8 1.9 4.75m-22 32.5-.5-3.6q-1.1-14.25 10.5-33.4m-35.3 55.95 1.85 2.05m-16-4.5q7.5-4.05 14.15 2.45M193.6 350q-3.85-8 6.5-16m10.05-125.85v7.15m-56.4-190.55q4.1-3.65 9.4-6.55m-9.4 6.55q19.9-2.55 26.85 19.75 7.85 30.5 4.55 54.35m-54.4-65.95q3-2.8 7.15-4.6 6.5-2.9 15.85-3.55m-51.8 23.65-3.8 3.75q10.45 30.1 31.75 61.55l.6.9q7.45 10.95 16.2 22.05l4.1-3.35q5.75-4.5 12.3-8.3-.35-8.35-2.45-18.05-6.5-30.45-29.9-74.05-14.5 2.15-28.8 15.5M185 100.1l.15-1.25m-.15 1.25q-1.85 11.9-6.45 22.15-13.7 4.3-27.75 11.05M96.75 26.5q-.7 1.2-1.15 2.5 14.95.3 23.4-3.5M85.65 46.9Q91.7 43.55 97.6 39q3.2-9.05-10.75-2-14.8 7.5-19.35 11.75-4.6 4.15.85 5.1Q76.9 51.6 85.1 47.2M42.2 69.25q4.5-6.55 7.4-13.75.5-4.15-.85-5.65M36.05 77q3.35-3.8 6.15-7.75m-13.55 37.1q4-12.3.95-12.85-8.6 13.35-11.65 21.7m10.7-8.85-2.55 7.15q-4.5 12.2-9 13-2.05-3.4.85-11.3m14.3 7.55q6.15-12.9 15.9-22.2l-.05-3.05 2.9-4.45q9.65-14.3 17.9-16.8l4.3-5.55 2.9-3.15q9.7-10.2 22.05-15.4M36.05 77Q28.2 85.65 17.1 93q-2.6 5.8-4.6 11.85M63.1 55l5.25-1.15m20.6 63.1H89q16.6 18.2 46.25 31.15 5.25-6.15 11.45-11.45m-21.4 25.25q4.45-7.35 9.95-13.8m-11.6 16.65q2.25 9 3.45 18.5 1.2 9.85 1.35 20.2.1 12.2-1.35 25.05-12.65 9-21.35 20.1m17.9-83.85-1.55 2.75v5m-8.5 18.55q7.3-3.15 13.5-7.8m55.2-15.05q.5-1.8 1.95-3.25h.05m5.35 13.05q-3.15 0-5.4-2.25-2.25-2.25-2.25-5.4 0-1.15.3-2.15m-58.65-3.45 1.65-2.85q-75.25 4.3-77.15-61.35m-23.3 66.65q12.7 33.2 64.25 29.8 13.5-1.2 24.5-5.95m-24.65-74.1Q72.65 99.1 68.9 76.25M7.15 125.3q.65-3.5 1.45-6.95M4.55 162.1q-.35-9.7.35-18.95.6-9.05 2.25-17.7m17.7 41.75q-1.55 5.8-1.8 12.35m68.15 43.3q19.7-6.45 37.25-19.4m-96.2-80.7Q24.7 138.65 22.6 160q.9 3.8 2.25 7.2m142.6 140.5q3.65 1.75 8.2 1.75m-8.2-1.75q-6.5-3.1-10.2-11.75m-1.65-23.9q-.95 8.55-.4 18m-122.55-74q16.8 14.25 52.95 8.45l5.6-1.65m-54.4 1.2q1.9 2.75 4.4 5.5 3.5 3.85 8.25 7.7m-12.65-13.2q-2.7-4-4.15-8-2.2-1.85-4.05-4.05-6-18-5.55-32.45" transform="translate(1.5 1.5)"/><path fill-rule="evenodd" fill="url(#h)" d="M110.6 14.5q12.6-1.2 15.65 1.15Q165.9.7 199.3.05q15.2-.3 29.1 2.4 13.95-2.4 28.15.05l6.5 3.5q-2.55 1.3-4.75 2.55-10.7 21.65 17.45 16.15Q281 20.3 286.6 13q6.8 1.35 11 5.45 1.25 1.2 2.25 2.7 17.35 5.05 23 18.8 16.5 13.1 19.2 37.05l-.25 5.65q-.9 8.85-4.3 18.1 7.15 20.25-3.95 43.95l-3 5.8-8.85 12.55-7.45 8.75-3 6.5q-3.7 7.5-8.05 13.6-13.2 18.55-32.35 24.65 2.35 36.7-9.3 68.45-16.25 3.55-22 32.5l-23.45 21q-18.3-4.45-22.5 11.5l-4.8 2.45-5.95 2.6q-25.8 10.25-50.75 2.95-44.1-20.35-45.5-57 1.8-30.35 19.15-52.4-20.15 10.1-42.2-1.8-7.8-4.6-13.75-9.3l-.35-.25Q23 231.85 6.6 185q-1.7-11.75-2.05-22.9-4.95-6.75-4.5-21.55l.05-2.05q1.6-18.1 8.5-20.15 1.65-6.9 3.9-13.5-3.4-1.4 0-11.35.4-3.2 1.1-6.2 4.35-19.5 20-31.8 12.1-9 15.15-5.65 24-18.65 48-23.35 1.15-2.3 3-4.3 3.95-4.45 10.85-7.7" transform="translate(1.5 1.5)"/><path stroke-width="3" stroke-opacity=".4" stroke-linejoin="round" stroke-linecap="round" stroke="#000" fill="none" d="M112.1 16q-6.9 3.25-10.85 7.7-1.85 2-3 4.3-24 4.7-48 23.35Q47.2 48 35.1 57q-15.65 12.3-20 31.8-.7 3-1.1 6.2-3.4 9.95 0 11.35-2.25 6.6-3.9 13.5Q3.2 121.9 1.6 140l-.05 2.05q-.45 14.8 4.5 21.55.35 11.15 2.05 22.9 16.4 46.85 42.85 52.25l.35.25q5.95 4.7 13.75 9.3 22.05 11.9 42.2 1.8-17.35 22.05-19.15 52.4 1.4 36.65 45.5 57 24.95 7.3 50.75-2.95l5.95-2.6 4.8-2.45q4.2-15.95 22.5-11.5l23.45-21q5.75-28.95 22-32.5 11.65-31.75 9.3-68.45 19.15-6.1 32.35-24.65 4.35-6.1 8.05-13.6l3-6.5 7.45-8.75 8.85-12.55 3-5.8q11.1-23.7 3.95-43.95 3.4-9.25 4.3-18.1l.25-5.65q-2.7-23.95-19.2-37.05-5.65-13.75-23-18.8-1-1.5-2.25-2.7-4.2-4.1-11-5.45-5.6 7.3-10.85 11.7-28.15 5.5-17.45-16.15 2.2-1.25 4.75-2.55l-6.5-3.5q-14.2-2.45-28.15-.05-13.9-2.7-29.1-2.4-33.4.65-73.05 15.6Q124.7 14.8 112.1 16z"/></g><path fill-rule="evenodd" fill-opacity="0" fill="#f0f" d="M102.95 45H0V0h102.95v45" id="i"/></defs><path fill="none" d="M-1-1h194v205H-1z"/><g><use x="114" y="229" xlink:href="#j" width="381" transform="translate(-192.55 -294)" height="381"/><use x="-70.253" y="-36.975" xlink:href="#k" width="345.05" transform="translate(40.239 23.089) scale(.5409)" height="364.05"/><use x="-28.777" y="-16.551" xlink:href="#l" width="102.95" transform="matrix(1.3205 0 0 1.2084 62.5 77.15)" height="45"/></g></svg>