<svg width="448" height="382" xmlns="http://www.w3.org/2000/svg" xmlns:xlink="http://www.w3.org/1999/xlink"><defs><linearGradient y2=".89" y1=".212" x2=".545" x1=".397" spreadMethod="pad" id="o"><stop stop-color="#7c5025" offset="0"/><stop stop-color="#7c3b24" offset="1"/></linearGradient><linearGradient y2=".105" y1=".721" x2=".573" x1=".481" spreadMethod="pad" id="p"><stop stop-color="#b07335" offset="0"/><stop stop-color="#b69a30" offset="1"/></linearGradient><linearGradient y2=".136" y1=".901" x2=".5" x1=".5" spreadMethod="pad" id="q"><stop stop-color="#746425" offset="0"/><stop stop-color="#9f7535" offset="1"/></linearGradient><linearGradient y2="1.03" y1=".214" x2=".962" x1=".179" spreadMethod="pad" id="r"><stop stop-color="#957c1e" offset="0"/><stop stop-color="#5c3612" offset=".682"/><stop stop-color="#95411e" offset="1"/></linearGradient><linearGradient y2="1.096" y1=".242" x2=".892" x1=".232" spreadMethod="pad" id="s"><stop stop-color="#746425" offset="0"/><stop stop-color="#9f7535" offset="1"/></linearGradient><linearGradient y2=".423" y1=".879" x2=".5" x1=".5" spreadMethod="pad" id="b"><stop stop-opacity="0" stop-color="#4e1c10" offset=".004"/><stop stop-opacity=".463" stop-color="#4e1c10" offset=".502"/><stop stop-opacity="0" stop-color="#4e1c10" offset="1"/></linearGradient><path fill-rule="evenodd" fill-opacity=".161" fill="#ccea1c" d="M491.1 179.5q0 6.75-20 28.25l-13.75 14.7q-6.25 6.9-6.25 8.55 0 2.05 1.5 6.1l1.5 4.4q0 16.65-23 23.5-13.4 4-31.1 4-15.75 0-25.65-5.95-6.9-4.1-13.05-13.05-7.65-11.1-9.7-13.05Q345.45 231 336 231q-11.05 0-22 7-10 6.35-10 11 0 5.2 14.7 8.25 8.8 1.85 32.3 5.3 21.5 3.8 32.3 9.6Q398 280.1 398 293.5q0 18-31.6 26.55-9.9 2.65-21.85 4.05l-10.05.9q-25.85 0-38.3-8.9-8.5-6.1-13.2-19.6l-3.6-10.45q-2.15-5.75-4.9-9.15-7.15-8.9-24-8.9-11.35 0-18.6 6.55-4.55 4.15-10.05 14.45-5.75 10.75-9.35 14.45Q206.05 310 196 310q-8 0-13.8-3.65-4.3-2.7-5.2-5.35-1-4-1-6.5 0-7.6 1.15-10.05 1.4-1.55 1.85-3.45 1-6.5 1-9 0-12.7-8.95-17-4.15-2-11.55-2-13.65 0-20.8 5.65-4.7 3.65-8.5 12.35-4.15 9.5-6.95 12.4Q117.8 289 107 289q-16.05 0-24.95-6Q75 278.25 75 272.5q0-15 7.5-23.6l5.15-5.7q2.35-3.1 2.35-6.7 0-7.85-9.6-8.65-2.9-.25-9.65.05-7.2.3-10.75.1-6.3-.35-10.1-4.75-2.05-2.35-2.9-2.95-1.85-1.3-4.5-1.3-1.95 0-7.05 3-5.05 3-6.45 3-1.4 0-3.4-1.55l-2.9-2.75q-11.35-12.35-15.35-15.3-2.6-4.5-4.5-9.3Q0 188.8 0 184q0-7.25 2.95-15.65 3.1-9 8.8-16.6Q25.55 133.1 47 131q6.05-.6 21.75.15L85 132q23.35 0 40-14 16-13.5 16-31 0-6.3-3.1-13.65-1.95-4.6-6.9-12.95-5.1-8.6-6.85-12.6Q121 40.75 121 35q0-14.05 18-22 13.55-6 27.5-6 14.05 0 22.85 5.45 6.2 3.9 11.45 12.05 6.9 10.8 8.05 12.05 5 5.45 12.65 5.45 7.05 0 11.85-1.7 2.9-1 6.75-3.55 3.7-2.45 6.05-3.2 3.95-1.2 9.85-.55 3.05.35 9.2-7.15Q274.8 14.1 277 12q4-3.8 15.25-7.45Q306.15 0 321 0q18.65 0 29 5.05 9 4.4 9 10.95 0 3.05-7.2 9.8L336 39.3q-10.9 9.15-15.8 14.4Q313 61.35 313 66q0 8.3 12.5 12.1 8.8 2.75 27.5 3.85l27.5 1.85Q393 85.45 393 90q0 4.65-17.2 15.25Q359.45 115.4 334 127q-14.7 6.65-30.2 16.85Q285 156.2 285 162q0 5.9 11.05 9 7.05 2 11.95 2 25.95 0 44.05-11.25 12.25-7.6 25.9-24.75l10.45-13.2q6-7.2 11.2-11.55Q413.1 101 431.1 101q7.65 0 16.85 3.25 8.45 2.9 11.15 5.75 2.3 2.35 2.85 4.25l.15 1.75q0 6.65-18.25 18.8-19.4 11.75-21.85 14.2 4.2 4.65 16.4 6.25l23.1 2q13.95 1.5 20.65 5.5 8.95 5.4 8.95 16.75M327 109l.2-.65-.25-.05q-.4-3.05-4.2-4.55-4.05-1.6-8.9-.05L312 103h-14l-.1.35Q280 106.95 280 117l1 5 8.05.5 6.95.5q18 0 26.05-5.95 4.95-3.7 4.95-8.05m28 85q0 6.75 9.1 9.05 4.6 1.15 9.4.95 8.75 0 11.5-6.35.85-2 1-4.45V191q0-5-4-5.95l-5-.05q-3.5 0-5.45.8l-1.55.85q-5.1-1.05-9.2-2.8-.75.35-1.4.8-4.4 3.15-4.4 9.35m48.15 14q-1.85-.7-4.15-.9l-2-.1-1 .05q-1.5 2.95-4 5.2-2.1 1.85-2.55 2.8-1.25 2.8 4.55 11.95 10.9 0 14-4.95 1.6-2.55 1-5.55 0-6.25-5.85-8.5M214.95 57.2v-.6q-10.6-1.8-15.05 2.55Q197 62 197 67.5q0 5.7 7 8.5 5.05 2 11.5 2 15.4 0 19.5-5.1 2.05-2.6 1-5.4 0-4-10-7.5-6.35-2.25-11.05-2.8" id="c"/><path fill-rule="evenodd" fill="url(#a)" d="M75.1 12.85Q88 25.75 88 44T75.1 75.1Q62.25 88 44 88T12.85 75.1Q0 62.25 0 44t12.85-31.15Q25.75 0 44 0t31.1 12.85" id="e"/><path fill-rule="evenodd" fill="#fff" d="M5.55 5.55q-.95.95-2.3.95-1.35 0-2.3-.95Q0 4.6 0 3.25 0 1.9.95.95 1.9 0 3.25 0q1.35 0 2.3.95.95.95.95 2.3 0 1.35-.95 2.3" id="f"/><path fill-rule="evenodd" fill="url(#b)" d="M-213-210.25q9.95-.5 22.3 7.1l25.2-35.6-19.5 40.15q2.3 2.1 4.5 4.6 6.65 8.35 9.15 16.6 3.45 11.55-1.4 22.9l2.5 1.45 2-1.7 8.6 6.1.65-.85 7.5 6.75 4.75 1.4q8.05-5.4 11-15.9 4.5-9.3 10.5-9.75-1.15 4.75-.55 7.95v.05q.55 3 2.75 4.6l.55-.6q13-11.7 27.5-10.25-6.2 1.55-6.45 8.7-.2 3.95 1.45 9.55-10.45-6.3-23.25 2.25-7.95 7.15-16.6 9.85v1.85l6.1 3.35 4.5-2.05 4.85 7.15 2.15-.4 4.75 6.5 3.55 1.75v1.75l6 3.85q12.4-13.35 29.7-17.6 9.7-1.7 18.75-.2 16.35 2.7 30.5 15.95 16.1 10.4 38 15l-4.25 3.75Q-2-94.45-8.4-96.1 2-84.5 6.2-75.3 10.35-66.1 23-63l-5.25 2.25q-2.65-.3-4.95-.9 2.65 11.2 8.8 21.65 1.85-.1 3.9 1.5l3.25 4.75L28.1-24l84.4 58.25-1.5 5.5-2.55-1.3.55 4.05-5.25 4.5L31.4-7.1q-.45 5.15-2.65 6.85Q30.5 4.9 30.9 10.1l3.85-.85 2.75 4.5q-4.75.45-9.5 3.95-3.75 10.05-10.2 16.55.1 14.65-11 20.8Q14.45 59.4 24.5 63l-12.2 7.2q11.6 8.35 27.1 12.2l-18.6 8.15q.45 2.5 1.05 4.75Q25.4 108.2 34.5 113l-5.5 2.75q-1.7-.55-3.2-1.35 1.35 4.85 7.45 6.85l-6 3.75q-4.2-.2-5.6-5L18 139.5q-5.95 5.3-12.75 3l.6-1.9Q.35 137-7.25 142l-17.2-.5q-6.05-1.35-9.7-4.7-4.85 2.45-10.35 3.7-15.8-.9-32.8-5.8-3.4 13.6-12.2 23.3l-7.75 1.25q-4.6-3.6-9.25.75l-8.25-1.5v-3l-4.75.25q-18.8-5.65-27.75-16.25.1-11.65 3.35-21.45 1.15-3.55 2.7-6.8-4.55.65-9.3 0l-3-4.75q8.65 1.8 15.95-2.75l4.9-6.65q2.85-17.75 11.7-26.05l-.45-3.8q-5.55-.9-9.85-6.35l-1.3-1.75q2.5 9.65 0 11.35L-136 70q1.8-4.1-1.75-16.25-2.55-1.2-4.7-3.7l-1.8-2.5-2.5 4.95q-3.85 3.05-7.75 2.25l-5.65-4q-2.45 3.7-5.1 5-5.5-1.25-8.6-2.85-4.2-2.2-4.15-5.15l3.25-4.25q.35-1.2.35-1.95 0-2.6-4.1-.55-4.15 3.9-7.5 3-3.35-3.25-4.2-6.5-.7-2.6.2-5.25l5.5-3.75 1.15-1.5q1.6-2.85-1.15-4-7.25-1.3-8.75-4.25l.2-2.95q.7-6.2 3.8-9.05 8.75 1.15 11.75 4.75 2 3.55 6 2.25l1.8-2q-3.1-3.25-4.55-10.5-1.85-9.25 1.2-17.45 2.45-6.8 8.2-12.9 4.15-4.4 8.4-9.25l6.3-7.35 2.5-3.05 8.6-10.7q-9.45 7.35-20.2 12.7l-4-2.5q12.65-7.85 23.55-18.8l4.7-5q-8.9 3.9-18 6.3l4.25-2.75-5.5 1.25-3.75-5q18.1-5.05 34.3-17.7l7.4-10.85-5.35-3.4h-2.6l-1.5-1.3-9.75-4-1.05-2.15-8.95-3.35-2.25-2.65-4.25-.35-5.1-4.9-6.65.65-1.25-2.25-7.75-6.75 1.25-1.55-9.75-4.45 1.05-2.15-6.1-4.05q-5.95-4.55-4.45-6.8 5.2-9.95 3.95-18.3-1.05-6.75-6.25-12.5l-6.95 14.3-3-2.25 3.75-8.75-7 10.25-6.75-3.25 12.25-17.25q-10.65-6.6-21.25-4.25-3.7.5-6.65 2.3l6.15 4.45-7.25 8.5-6.1-4.45-1.9 5.2q-.2 6.45 3.75 12.45l5.25-2.95 3.75 2.25-2.5 2.5 4-1.25 2.5 6-4.4 2.5 4.15 3q3.6 3-2 11-3.8 3.3-8.5 3-7.3-1.3-10.05-6.4l-49.45 19.9 42.5-28.4q-3.15-5.75-4.6-11.55-2.4-9.15-.65-18.55 2.3-4.95 5-9L-287.25-231l45.2 29.95q11.7-10.85 29.05-9.2M127-18.6q1.95-5.8 7.4-11.65 15.15-6.85 22.95-2.4.7 4-1.55 8.15l-1.15 1.9-4.2 3.6q8.55 4.3 12.15 9.65 1.85 5.1-2.35 8.65-4.55 2.05-11.45-.15-5.3-5.05-6.65-9.05l-.4-1.75-1.05.9q-9 5.5-14.35 2.45-1.1-5.1.65-10.3M-123.35 8.75l-.6-.45-.3.35.9.1M-6-30l.7.4-.4-.55-.3.15m-49.1-47.5.1.05.05-.35-.15.3m56.65-67.05q2.15 1.05 4 2.85 3-2.6 6.7-3.8 8.45-.7 10 5.5l.5 2.85q.2 4.05-2.5 7.15-2.9 2.05-5.75 3 1 2.5 1.5 4.95.85 4.2.25 8.05l-2.15.25q-9 1.85-15.05-2.45-3-2.15-5.3-5.8-6.75-15.5.25-22.5.35-1.05 1-1.75 3.55.2 6.55 1.7m64.8 209.7q0-.6.15-1.15 6.85-3.5 16.25 1.5 7.35 8.95 5.75 15-3.15 1.45-7.25 0l-3.2-2.2q-.65 3.05-1.6 5.45-1.1 2.7-2.7 4.5-3.1 2.15-6.25 0-2.2-2.7-2-7.75 3.05-5.5 6.05-6.7l-.8-.55q-4.65-4.4-4.4-8.1" transform="translate(291.25 238.75)" id="m"/><path fill-rule="evenodd" fill="#9f0" d="M25.55 6.25q-3.35 5.4-12.5 5.8Q1.85 11.1 0 0l4.5 1.55 6.3 2.25 2.2.65Q17.85 5.7 23.3 6.1l2.25.15m25.5 3.3q-5.4 1.45-10.2-4.3l7.7-1.45 7.75.75q-1.7 3.4-5.25 5" id="g"/><path fill-rule="evenodd" fill-opacity="0" fill="#f0f" d="M102.95 45H0V0h102.95v45" id="h"/><use xlink:href="#c" width="491.1" height="325" id="i"/><use xlink:href="#d" width="88" height="88" id="j"/><use xlink:href="#e" width="88" height="88" id="d"/><use xlink:href="#f" width="6.5" height="6.5" id="l"/><use xlink:href="#g" width="56.3" height="12.05" id="n"/><use xlink:href="#h" width="102.95" height="45" id="v"/><g id="t" stroke-opacity="0" stroke-linejoin="round" stroke-linecap="round" stroke="#f0f" fill="none"><path d="M187.95-293.5v380h-380v-380h380M92.95.6H-97" transform="translate(192.55 294)"/><path d="m187.95-293.5-190 190 190 190m-379.95 0 189.95-190-190-190" transform="translate(192.55 294)"/></g><g transform="translate(360.2 303.25)" id="u"><use xlink:href="#i" width="491.1" transform="matrix(-.976 0 0 1 156.35 -210.5)" height="325"/><use xlink:href="#j" width="88" transform="matrix(2.5435 0 0 .8619 -168.1 102.8)" height="88"/><use xlink:href="#k" width="455.4" transform="translate(-291.75 -239.25)" height="399.75"/><use xlink:href="#l" width="6.5" transform="matrix(.866 -.5 .3077 .5329 142.8 -22.75)" height="6.5"/><use xlink:href="#l" width="6.5" transform="matrix(.3936 -.2273 .3077 .5329 144.95 -31.6)" height="6.5"/><use xlink:href="#l" width="6.5" transform="matrix(.3594 -.6225 .5329 .3077 128.85 -21.3)" height="6.5"/><use xlink:href="#l" width="6.5" transform="matrix(.1623 -.2811 .2407 .139 135.7 -23.65)" height="6.5"/><use xlink:href="#l" width="6.5" transform="matrix(.284 -.4919 .4212 .2432 131.05 -10.05)" height="6.5"/><use xlink:href="#l" width="6.5" transform="matrix(.284 -.4919 .4212 .2432 152.3 -28.65)" height="6.5"/><use xlink:href="#l" width="6.5" transform="matrix(.3936 -.2273 .3077 .5329 131.05 -28.1)" height="6.5"/><use xlink:href="#l" width="6.5" transform="matrix(.3936 -.2273 .3077 .5329 -.55 -117)" height="6.5"/><use xlink:href="#l" width="6.5" transform="matrix(.1623 -.2811 .2407 .139 -6.7 -127.45)" height="6.5"/><use xlink:href="#l" width="6.5" transform="matrix(.3936 -.2273 .3077 .5329 -9.45 -136.75)" height="6.5"/><use xlink:href="#l" width="6.5" transform="matrix(.1623 -.2811 .2407 .139 -2.05 -121.4)" height="6.5"/><use xlink:href="#l" width="6.5" transform="matrix(.3936 -.2273 .3077 .5329 -7.2 -123.5)" height="6.5"/><use xlink:href="#l" width="6.5" transform="matrix(.3594 -.6225 .5329 .3077 82.7 75.95)" height="6.5"/><use xlink:href="#l" width="6.5" transform="matrix(.866 -.5 .3077 .5329 68.8 63.8)" height="6.5"/><use xlink:href="#l" width="6.5" transform="matrix(.1623 -.2811 .2407 .139 78.05 68.1)" height="6.5"/><use xlink:href="#l" width="6.5" transform="matrix(.284 -.4919 .4212 .2432 72.3 71.65)" height="6.5"/><use xlink:href="#l" width="6.5" transform="matrix(.284 -.4919 .4212 .2432 80.65 70.45)" height="6.5"/><use xlink:href="#l" width="6.5" transform="matrix(.284 -.4919 .4212 .2432 68.8 67.5)" height="6.5"/><use xlink:href="#m" width="454.4" transform="translate(-291.25 -238.75)" height="398.75"/><use xlink:href="#n" width="56.3" transform="translate(-86.3 17.2)" height="12.05"/><use xlink:href="#n" width="56.3" transform="translate(-86.3 17.2)" height="12.05"/><use xlink:href="#i" width="491.1" transform="matrix(-.2523 0 0 .2585 205.8 -56.85)" height="325"/><use xlink:href="#i" width="491.1" transform="matrix(-.2523 0 0 .2585 72.3 -175.9)" height="325"/><use xlink:href="#i" width="491.1" transform="matrix(-.2523 0 0 .2585 138.3 33.15)" height="325"/><use xlink:href="#i" width="491.1" transform="matrix(-.2523 0 0 .2585 152.3 33.15)" height="325"/><use xlink:href="#i" width="491.1" transform="matrix(-.2523 0 0 .2585 138.3 27.15)" height="325"/><use xlink:href="#i" width="491.1" transform="matrix(-.2523 0 0 .2585 195.8 -55.75)" height="325"/><use xlink:href="#i" width="491.1" transform="matrix(-.2523 0 0 .2585 74.05 -168.4)" height="325"/><use xlink:href="#i" width="491.1" transform="matrix(-.2523 0 0 .2585 85.05 -189.9)" height="325"/><use xlink:href="#i" width="491.1" transform="matrix(-.2523 0 0 .2585 64.55 -113.35)" height="325"/><use xlink:href="#i" width="491.1" transform="matrix(-.2523 0 0 .2585 138.3 -38.35)" height="325"/><use xlink:href="#i" width="491.1" transform="matrix(-.2523 0 0 .2585 85.05 11.65)" height="325"/><use xlink:href="#i" width="491.1" transform="matrix(-.2523 0 0 .2585 -53.2 45.15)" height="325"/><use xlink:href="#i" width="491.1" transform="matrix(-.2523 0 0 .2585 -87.3 -86.15)" height="325"/><use xlink:href="#i" width="491.1" transform="matrix(-.2523 0 0 .2585 -43.3 -59.15)" height="325"/><use xlink:href="#i" width="491.1" transform="matrix(-.2523 0 0 .2585 -77.75 -110.05)" height="325"/><use xlink:href="#i" width="491.1" transform="matrix(-.2523 0 0 .2585 -112.25 -84.4)" height="325"/><use xlink:href="#i" width="491.1" transform="matrix(-.2523 0 0 .2585 -51.6 -182)" height="325"/><use xlink:href="#i" width="491.1" transform="matrix(-.2523 0 0 .2585 -10.95 -174.85)" height="325"/><use xlink:href="#i" width="491.1" transform="matrix(-.2523 0 0 .2585 -73.95 35.2)" height="325"/><use xlink:href="#i" width="491.1" transform="matrix(-.5353 0 0 .5485 -51.6 -238.75)" height="325"/><use xlink:href="#i" width="491.1" transform="matrix(-.5353 0 0 .5485 -97.3 -262.65)" height="325"/><use xlink:href="#i" width="491.1" transform="matrix(-.3031 0 0 .7791 -134.85 -303.25)" height="325"/></g><g id="k"><path fill-rule="evenodd" fill="#42412d" d="M22.75-137.15Q10-139.7 10.8-126.25l-1.8.05-1-.05q-1.45-.6-2.5-1.35-1.35-.95-2.15-2.1-.8-1.15-1.1-2.55v-6l1.5-1.75 1.8-1.7q3-2.6 6.7-3.8 8.45-.7 10 5.5l.5 2.85M150.45-19q8.55 4.3 12.15 9.65 1.85 5.1-2.35 8.65-4.1-14.2-18.1-9.2l-.4-1.75 8.7-7.35m-78.9 92.8 6.5 4.5q-.65 3.05-1.6 5.45-2.5-8-10.95-3.25 3.05-5.5 6.05-6.7" transform="translate(291.75 239.25)"/><path fill-rule="evenodd" fill="#996" d="M22.75-137.15q.2 4.05-2.5 7.15-2.9 2.05-5.75 3l-2.4.6-1.3.15q-.8-13.45 11.95-10.9M160.25-.7q-4.55 2.05-11.45-.15-5.3-5.05-6.65-9.05 14-5 18.1 9.2m-83.8 84.45q-1.1 2.7-2.7 4.5-3.1 2.15-6.25 0-2.2-2.7-2-7.75 8.45-4.75 10.95 3.25" transform="translate(291.75 239.25)"/><path fill-rule="evenodd" fill="#442" d="m12.1-126.4 2.4-.6q1 2.5 1.5 4.95l-3.9-4.35M-6-144.5q.35-1.05 1-1.75 3.55.2 6.55 1.7l2.2 4.55-1.5 1.75L-6-144.5m8.25 9.25v3l-6.2.15-1.05-2.4-1.1-4.3 8.35 3.55" transform="translate(291.75 239.25)"/><path fill-rule="evenodd" fill="#663" d="M1.55-144.55q2.15 1.05 4 2.85l-1.8 1.7-2.2-4.55m.7 6.3v3l-8.35-3.55q-.65-3.55.1-5.7l8.25 6.25m1.1 8.55q.8 1.15 2.15 2.1l-2.7 6.5q-2.05-2.45-3.85-5.45l4.4-3.15" transform="translate(291.75 239.25)"/><path fill-rule="evenodd" fill="#9e9d50" d="m10.8-126.25 1.3-.15 3.9 4.35q.85 4.2.25 8.05l-2.15.25-3.3-12.5m-5.3-1.35q1.05.75 2.5 1.35l1 .05-.85 10-.9-.55-.45-.35q-2.1-1.75-4-4l2.7-6.5" transform="translate(291.75 239.25)"/><path fill-rule="evenodd" fill="#8d8c47" d="M2.25-132.25q.3 1.4 1.1 2.55l-4.4 3.15q-1.55-2.55-2.9-5.55l6.2-.15M9-126.2l1.8-.05 3.3 12.5q-2.4-.25-5.95-2.45l.85-10" transform="translate(291.75 239.25)"/><path fill-rule="evenodd" fill="#900" d="M14.1-113.75q-9 1.85-15.05-2.45 1.45-3.8 7.75-.9l.45.35.9.55q3.55 2.2 5.95 2.45m127.65 102.1-1.05.9q-9 5.5-14.35 2.45-1.1-5.1.65-10.3 5.5 5.2 20.1-1.4 4-1.8 8.7-4.5l-1.15 1.9-4.2 3.6-8.7 7.35M88.5 80.5q-3.15 1.45-7.25 0l-3.2-2.2-6.5-4.5-.8-.55q-4.65-4.4-4.4-8.1Q72.95 76.9 88.5 80.5" transform="translate(291.75 239.25)"/><path fill-rule="evenodd" fill="#600" d="M-.95-116.2q-3-2.15-5.3-5.8-6.75-15.5.25-22.5-.75 2.15-.1 5.7l1.1 4.3 1.05 2.4q1.35 3 2.9 5.55 1.8 3 3.85 5.45 1.9 2.25 4 4-6.3-2.9-7.75.9M127-18.6l.55-1.4q2.05-5.1 6.85-10.25 15.15-6.85 22.95-2.4.7 4-1.55 8.15-4.7 2.7-8.7 4.5-14.6 6.6-20.1 1.4M88.5 80.5q-15.55-3.6-22.15-15.35 0-.6.15-1.15 6.85-3.5 16.25 1.5 7.35 8.95 5.75 15" transform="translate(291.75 239.25)"/><path fill-rule="evenodd" fill="url(#o)" d="M2-68q3.8 4.5 10.8 6.35Q5.8-63.5 2-68m4.9-28.1-2.15 1.85Q-2-94.45-8.4-96.1 2-84.5 6.2-75.3 10.35-66.1 23-63l-5.25 2.25q-2.65-.3-4.95-.9 2.65 11.2 8.8 21.65-1.65.1-3.1 1.5l-1.75-3.35-.5-.9q-5.65.9-6.5-4.85-1.4.5-2.65 2.05-2.55-.45-4.45-2.2Q1.3-49.05.25-51q-3-1.5-6 1.75l-1.6 2.3-2.05-1.35q1.5-11.25-6.5-23.2l5.15-1.25-14.5-7.5 18 4.5q-18.8-9.9-32.25-22.75l-9.25-8.25q7.05 23.4 27.75 36.5-5.85-2.65-10.4-5.9-.4 8.8 6.15 17.65L-51.7-75.35l.5-1.6.4-1.75q.85-4.85-.2-11.4-1.2-7.75-4.3-13.1-3.25-5.5-6.5-5.5l-1.7.5q-1.2.65-2.05 2.2l-.95 2.8q-1.4 5.2-.4 12.55l.1.55q.5 3.2 1.4 6l-18.9-12q1.35-12.85 11.3-17.15 21.1-5.05 16.95-12.2 10.8 3.3 26.05 14.2 13.6 9.8 36.9 15.15M-169.7 11.75q-3.1-3.25-4.55-10.5-1.85-9.25 1.2-17.45-.6 9.45 13.05 9.2 18 .85 32.3-11.75l.7.05 1.85-.4 1.3-.8q1.55-1.2 3.1-3.65 2.35-3.6 3.65-8.3Q-105.05-42-98-59.25q4.6-10.2 7.6-20.4 36.15 19.1 72.25 44.55-.3 2.5.7 4.25 5.05-1.1 6.25 3.55l-1.1 2.1q-.7 1.45-.9 2.8-.55 3.85 3.2 6.65l1.25 2.85Q-6-7.25-2.05-4.25l-1.3 4.1-7.4.1-9.65.5-12.05 1.25-10.05 1.55-1.25.15-18.5 1.6-14 .25-10.7-.4-15.8-1.45-1-.15L-115.8.9l-8.5-1.25-5.15-.55-4-.25q-5-.2-9 .2-7.35.75-11.35 3.5-7.15-2.25-12.95-5.8L-169 1q3.65 3.05 8.6 5-3.2 1.1-5.85 2.9l-3.45 2.85m125.45-102.5q4.15 8.45 12.85 14.6-8.7-6.15-12.85-14.6m-37.2 22.95q-.8-1.4-1.95-2-.75-.45-1.7-.45-3.2 0-6.35 4.9-3.1 4.85-4.25 11.75-1.25 6.9.1 11.75Q-94.15-37-90.95-37l1.85-.4 1.3-.8q1.55-1.2 3.1-3.65 3.15-4.85 4.4-11.75 1.15-6.9-.2-11.75l-.95-2.45m14.15 28.05q-1.1-1.75-2.5-2.45-1-.55-2.2-.55-3.95 0-7.35 6-3.4 6-4.25 14.5-.9 8.5 1.2 14.5 2.2 6 6.15 6 1.2 0 2.3-.5l1.5-.95v-.05q1.85-1.5 3.5-4.5 3.45-6 4.35-14.5.85-8.5-1.3-14.5-.65-1.8-1.4-3m24.15 24.15 1.25.75q.9.35 1.9.35 3.25 0 5.15-4.4 1.85-4.4 1.15-10.65-.65-6.25-3.35-10.6-2.85-4.45-6.1-4.45-1 0-1.75.4-1.25.55-2.2 1.8l-1.15 2.25q-1.85 4.35-1.25 10.6.7 6.25 3.5 10.65 1.35 2.2 2.85 3.3M-22-101.5q6.6 3.55 13.6 5.4-7-1.85-13.6-5.4" transform="translate(291.75 239.25)"/><path fill-rule="evenodd" fill="url(#p)" d="M-173.05-16.2q2.45-6.8 8.2-12.9 4.15-4.4 8.4-9.25l6.3-7.35 2.5-3.05q12.25-7.4 18.15-19-4.6 4.45-9.55 8.3-9.45 7.35-20.2 12.7l-4-2.5q12.65-7.85 23.55-18.8 12.05-3.75 19.2-12.45-7.2 4.25-14.5 7.45-8.9 3.9-18 6.3l4.25-2.75-5.5 1.25-3.75-5q18.1-5.05 34.3-17.7l5.25-7.7q3.55 5.55 12.5 10.2-2.4 6.1-.8 11.2 1.9 2.1 3.8 2.3 3.8.4 7.7-7.15l4.85 2.45q-3 10.2-7.6 20.4-7.05 17.25-19.1 27.4.45-1.65.75-3.45 1.15-6.9-.2-11.75l-.15-.5 7.45-13.7q-4.45 5.55-10 9.85-4.25 3.3-9.1 5.85-2.4 4.4-3.4 10.25-1.25 6.9.1 11.75 1.3 4.3 3.95 4.8Q-142-6.15-160-7q-13.65.25-13.05-9.2m65.1-94.95q12.4-13.35 29.7-17.6 9.7-1.7 18.75-.2 16.35 2.7 30.5 15.95 16.1 10.4 38 15l-2.1 1.9q-23.3-5.35-36.9-15.15-15.25-10.9-26.05-14.2 4.15 7.15-16.95 12.2-9.95 4.3-11.3 17.15l-3.65-2.35q2.05-4.95 1.6-9l-.55-2.3q-5.3-.65-9.4 6l-11.65-7.4m-35.1 75.45q-.1-1.6-.9-2.7-.45-.75-1.3-1.15l-1.5-.4q-2.5-.3-6.15 2.1l-2.55 1.85q-3.35 2.8-6.3 7.05-4.1 5.8-5 10.85-.85 5.1 2 6.5.8.4 1.75.45l1.5-.15q1.9-.4 4.35-2 4.85-3.05 8.95-8.85 4-5.85 4.9-10.9l.25-2.65m26.8-34.55q-10 12.7-21.5 20.25l7.25 5.5 2.15-1.05-2.15 1.05-7.25-5.5q11.5-7.55 21.5-20.25m-7.45-20.7 5.7-4.8-5.7 4.8m84.2-7.55q13.45 12.85 32.25 22.75l-18-4.5 14.5 7.5-5.15 1.25-2.55.65-2.55.6q-20.7-13.1-27.75-36.5l9.25 8.25" transform="translate(291.75 239.25)"/><path fill-rule="evenodd" fill="#a89135" d="M21.6-40q1.85-.1 3.9 1.5-1.95 10.9-9.25 18.25L11.8-22.3l-1.1-2.05q3.15-3.15 5.35-7.55 1.45-3 2.45-6.6 1.45-1.4 3.1-1.5m.25 135.3Q25.4 108.2 34.5 113l-2.75 1.4q-9.45-7.2-13.25-16.9l3.35-2.2m-132.5 63.95-4.1-.75V149q-2.35-1.55-4.75 6.75-18.8-5.65-27.75-16.25.1-11.65 3.35-21.45l3.15-2.45q-6 16.4-3.25 17.4 1.6.65 3.2-.55 2.4-1.8 4.8-7.7 1.7-5.65 1.1-10.55-.25-2.2-1-4.25l-1.7.55-3.6.75q-4.55.65-9.3 0l-3-4.75q8.65 1.8 15.95-2.75l4.9-6.65 7.65-10.35q18.85-14.5 22 5.75 3.8 30.7-7.65 66.75m-10.3-88.2-.45-3.8q-.55-6.65.4-13.8 8.9 4.05 7.5 16.3-2.15 7.25-7.05 3.5l-.4-2.2m-52.9-18.15q-4.2-2.2-4.15-5.15l3.25-4.25q.35-1.2.35-1.95 8.65-3.7 6.4 4.45l-5.85 6.9m-16.35-15.4q-.7-2.6.2-5.25l5.5-3.75 1.15-1.5 2.1 2.75q-.3 4.8-8.95 7.75m-2.85-21.7q.7-6.2 3.8-9.05 8.75 1.15 11.75 4.75 2 3.55 6 2.25l1.8-2 3.45-2.85 15.5-.4q-5.3-.85-9.65-2.5-4.95-1.95-8.6-5l2.25-4.25q5.8 3.55 12.95 5.8l4.05 1.1q3.95-1.35 10.6.05l2.1.5q2.1.5 4.5 1.3 3.8 1.25 8.3 3.15 1.9 1 2.75 2.15 4.1 5.7-18.75 14.95-12.6 3.05-27-4.25-1.65-1.85-8 0-13.1-.75-17.8-5.7m209.3-58.55.5.9q-6.2 8.4-15 10.6-5.7-.3-7-3.25 3.15-1.3 5.8-3.4l2.5-2.35q1.75-1.9 3.2-4.25l.85-1.05q1.25-1.55 2.65-2.05-4.25 11.2 6.5 4.85m-13.6-5q-6.35 11.9-14.3 15.9-1.55-1.8-3.1-1.4l-3.4-1.85.15-.9 3.2-2.1.75-.65.3-.25 1.55-1.6 1.7-1.95.5-.7 2.65-3.7 1.6-2.3q3-3.25 6-1.75 1.05 1.95 2.4 3.25M-9.8-28.95Q-8.05-30.55-6-30l.7.4 1.1.65q4.1 2.1 8.2 2.6l4 .1q1.65.6 2.7 1.9-.25 5.6-4.95 7.6Q-9.4-17.5-13.2-22.4q.2-1.35.9-2.8l1.1-2.1 1.4-1.65m1.05 16.05Q-4.2-17.5 6.5-2.5q-1.45 2.2-4 1.1Q14.85 12.7 5 20.5 2.7 22.4.8 22.1q-2.35-.4-4.05-4.1l-.85-3.75q-.5-3-.45-6.15.1-4 1.2-8.25l1.3-4.1q-3.95-3-6.7-8.65M-143 5l-6.75-1.35L-143 5m14.2 10.75h.05q.75-.85.9-1.65.15-.55 0-1.2-.35-1.25-1.8-2.1-.95-.55-2.45-.95l-.85-.2q-3.35-.65-7.4.05-4.6.7-7.45 2.65-2.9 2-2.3 4.1l.6 1.1.7.65q1.1.8 2.9 1.25l8.2.25q2.5-.4 4.4-1.15 1.75-.65 3.1-1.6.85-.6 1.4-1.2m2.75 105.2q4.5-6.35 6.3-17.45.05-3-.85-4.5-.9-1.4-2.65-1.5-3.5 3.3-6 14.5-1.9 12.05 2 10.5l1.2-1.55m2.2 26.85q3.65-2.75 9.35-14.3 1.35-7.1 1.3-10.75-.1-5.65-3.55-3-4.85 4.05-9.75 17.5-2.4 8.55 0 11.25 1.15.4 2.65-.7M-134 109.25l-1.9.7 1.9-.7m-3.55-5.5q3.4-2.15 6.55-5.75-3.15 3.6-6.55 5.75m-42.1-88.1.05.05.7-.6.35-.55q.2-.6-.1-1.3l-.5-.9-.25-.25q-.95-.95-2.5-1.4l-3.15-.25q-1.55.45-1.9 1.5l-.05.65v.4l.65 1.15q.95 1.15 2.7 1.7l1.75.35 1.45-.15.8-.4m6.4.6 1.75-2.5-1.75 2.5M.75-2.5q-1.45-.7-2.8-1.75Q-.7-3.2.75-2.5" transform="translate(291.75 239.25)"/><path fill-rule="evenodd" fill="url(#q)" d="m25.5-38.5 3.25 4.75L28.1-24l-2.9-2-.85 1.9q-5.3-1.15-3.1 7.1l-1.3 1.35Q15.4-11.7 11.55-17l.7-2.5-.45-2.8.45 2.8-.7 2.5q3.85 5.3 8.4 1.35L27.8-9.8l-1 4.5 1.95 5.05Q30.5 4.9 30.9 10.1l3.85-.85 2.75 4.5q-4.75.45-9.5 3.95-3.75 10.05-10.2 16.55.1 14.65-11 20.8-7.05-4.05-12-8.8l-2.55-2.6v-4.4L.75 43l8-7-6.4-2.25 6.4-4.25q-5.3-1.35-9.75-3l1.8-4.4q1.9.3 4.2-1.6 9.85-7.8-2.5-21.9 2.55 1.1 4-1.1-10.7-15-15.25-10.4L-10-15.75q-3.75-2.8-3.2-6.65 3.8 4.9 18.95 5.65 4.7-2 4.95-7.6l1.1 2.05 4.45 2.05q7.3-7.35 9.25-18.25m1.75 7.75L25.2-26l2.05-4.75M7.1-45.55l-.85 1.05q-1.45 2.35-3.2 4.25L.55-37.9q-2.65 2.1-5.8 3.4 1.3 2.95 7 3.25 8.8-2.2 15-10.6l1.75 3.35q-1 3.6-2.45 6.6l-2.65-1.7Q9.5-28.35 4-26.35q-4.1-.5-8.2-2.6l-1.1-.65-.4-.55-.3.15q-2.05-.55-3.8 1.05-.9-1.85-1.85-2.9 7.95-4 14.3-15.9 1.9 1.75 4.45 2.2M.55-37.9l2.2-5.6-2.2 5.6m-5.8 3.4q-1.15 2.9-.45 4.35-.7-1.45.45-4.35M15-36l-1.6 2.4L15-36M0-14.75q8.95 3.7 11.55-2.25Q8.95-11.05 0-14.75M26.8-5.3l-1.05-2.2 1.05 2.2m4.1 15.4q-4.85 1.5-9.9 5.4 5.05-3.9 9.9-5.4M28 17.7q-3.6 2.65-7.25 7.05 3.65-4.4 7.25-7.05M17.75 32.5l.05 1.75-.05-1.75" transform="translate(291.75 239.25)"/><path fill-rule="evenodd" fill="url(#r)" d="m28.1-24 2.5 1.75V-16L98 33l11 9.5-5.25 4.5L31.4-7.1l-3.6-2.7-7.85-5.85 1.3-1.35q.55-6.05 3.1-7.1l.85-1.9 2.9 2m-144.4-77.8-5.35-3.4q5.7-3.4 7.7-9.8l1.7 1.1-2.25 6.15 104 65.2-1.7 1.95L-53.25-66l39.5 27-.3.25-.75.65L-89-84.7l-4-2.5-6.55-4.1-3.75-2.35-13-8.15m-63.9-38.6-6.1-4.05 5.05-10.8q.45-12.15-5.55-14.3-1.05-6.75-6.25-12.5l1.65-3.4q-3.45-2.95-8-5.45l-1.35 1.9q-10.65-6.6-21.25-4.25-3.7.5-6.65 2.3-4.5 2.75-7.2 8.5l-1.9 5.2q-.2 6.45 3.75 12.45 1.65 2.55 4.1 5.05l4.5 4 4.15 3q3.6 3-2 11-3.8 3.3-8.5 3-7.3-1.3-10.05-6.4l2.85-1.15 1.95 2.8-1.95-2.8-3.8-5.35-2.9-4.05-3.1 2.05q-3.15-5.75-4.6-11.55 8.4 0 8.6-19.05 5.95-12.7 21.5-17.25 21.5-3.2 34 10.25 9.7 18.1 17.9 13.85 3.45 11.55-1.4 22.9l2.5 1.45q-2.6 2.25-4.8 4.9-2.95 3.5-5.15 7.75M10.7-24.35q-1.05-1.3-2.7-1.9l-4-.1q5.5-2 9.4-7.25l2.65 1.7q-2.2 4.4-5.35 7.55M-188.75-183l-2.65-2.45 2.65 2.45m-10.65-7.9q-2.4-1.4-5.1-2.6 2.7 1.2 5.1 2.6M-248-159l2.35 3.3-2.35-3.3" transform="translate(291.75 239.25)"/><path fill-rule="evenodd" fill="#746425" d="M-143.9 118.05q1.15-3.55 2.7-6.8l3.6-.75 1.7-.55q.75 2.05 1 4.25-5.4 5-5.9 18.25-1.6 1.2-3.2.55-2.75-1 3.25-17.4l-3.15 2.45M16.25-42.75Q5.5-36.4 9.75-47.6q.85 5.75 6.5 4.85m-34.4 7.65 3.4 1.85q-1.35.35-2.7 2.4-1-1.75-.7-4.25M-148.8 18.2l-.7-.65-.6-1.1q-.6-2.1 2.3-4.1 2.85-1.95 7.45-2.65 4.05-.7 7.4-.05l.85.2q1.5.4 2.45.95 1.45.85 1.8 2.1.15.65 0 1.2-.15.8-.9 1.65h-.05l-.05-.7q-.15-.6-.6-1.05l-.7-.6q-.85-.7-2.5-1.1l-.4-.05q-3.05-.8-6.95-.1-4.2.65-6.7 2.35-1.85 1.3-2.1 2.6v1.1m8.2 17 .7.3.85.5q1.2 1.1-.6 2.55-1.75 1.4-5.4 2.25-3.2.85-6.2.85h-.8l-2.3-.3q-1.45-.3-2.1-.95l-.4-.65.25-1h.1l.2.35.85.5.8.25 2.35.4.35-.05q2.85.15 5.85-.7 3.25-.8 4.8-2 1.15-.9 1-1.65l-.3-.65m20 63.8q-7.5 15.75-5.45 21.95l-1.2 1.55q-3.9 1.55-2-10.5 2.5-11.2 6-14.5 1.75.1 2.65 1.5m7.4 23.75q-10.3 10-10.65 25.05-1.5 1.1-2.65.7-2.4-2.7 0-11.25 4.9-13.45 9.75-17.5 3.45-2.65 3.55 3m-27.55-7.15.75-2.1 2.4-3-2.4 3-.75 2.1m96.35 13.55.4.55 1 .6.95.15 2.7-.25.4-.2q3.05-.8 6.05-3.35 3.3-2.65 4.6-5.4.95-2.05.55-3.3-.15-.5-.55-.95l.95.25q.6.1 1.05.65 1.6 1.5.05 4.7-1.5 3.05-5.15 6-3.15 2.65-6.35 3.7l-.85.3-2.6.4q-1.65 0-2.6-.95l-.6-1.05q-.3-.7-.05-1.85h.05M-187 13v-.4l.05-.65q.35-1.05 1.9-1.5l3.15.25q1.55.45 2.5 1.4l.25.25.5.9q.3.7.1 1.3l-.35.55-.7.6-.05-.05.15-.25.1-.6q.05-.25-.05-.45l-.5-1-.15-.05q-.8-1-2.3-1.4l-2.9-.2q-.95.25-1.4.8l-.3.5m8.8 21.2-.55-.45-.65-.85q-.9-1.75.45-4.05 1.35-2.2 4.1-3.55 2.45-1.35 4.7-1.35l.6.05 1.75.4q1.1.5 1.6 1.55l.3 1.05q.1.75-.2 1.6h-.05l-.15-.55q-.25-.55-.65-.8l-.6-.45q-.65-.45-1.8-.6l-.25.1q-2.15-.25-4.45 1.05-2.45 1.3-3.65 3.2-.85 1.45-.75 2.65l.25 1" transform="translate(291.75 239.25)"/><path fill-rule="evenodd" fill="#d8b738" d="m30.6-22.25 81.9 56.5-1.5 5.5-2.55-1.3L98 33 30.6-16v-6.25m-216.9-122.2q-5.95-4.55-4.45-6.8 5.2-9.95 3.95-18.3 6 2.15 5.55 14.3l-5.05 10.8m-67.05-20.75q-2.4-9.15-.65-18.55 2.3-4.95 5-9l3.7-4.85 3.25-3.45q11.7-10.85 29.05-9.2 9.95-.5 22.3 7.1l3.3 2.45 2.4 2.1q2.3 2.1 4.5 4.6 6.65 8.35 9.15 16.6-8.2 4.25-17.9-13.85-12.5-13.45-34-10.25-15.55 4.55-21.5 17.25-.2 19.05-8.6 19.05m141.1 51.3 4.3 2.75 11.65 7.4 2.7 1.7 5.65 3.6 3.65 2.35 18.9 12 10.3 6.6.1.05 3.3 2.1 26.45 16.85 10.2 6.55 5.65 3.65 2.05 1.35-2.65 3.7-.5.7-104-65.2 2.25-6.15M-12.2-40.6l-1.55 1.6-39.5-27 41.05 25.4" transform="translate(291.75 239.25)"/><path fill-rule="evenodd" fill="#564018" d="M20.8 90.55q.45 2.5 1.05 4.75l-3.35 2.2-5.75 3.75-6.5-4q-4.2.7 0 7l-5.25 4h-11l-5.75-4.75 1.75 3.75-40.5 2.75v5l-16.75-5.25-6.75-7.25 2.25 5.5-13-5-2-7.25 7.5 1.5q-1.8-17.9 1.25-31-.25 17.65 3.75 31l18.35 11.35-.4-1.6q-.4-5 3.05-4.25l3.75-.15 28-1.1q-7-12.25-12.65-25.3Q-30.4 90.8-22 100.75h3.25l-6.25-14 8.5 13.5 5.65-1.55.1 1.35q.15 1.7.65 3.05l.7 1.5.6.1 1.05-.25q.35-.15.7-.5.8-.5 1.5-1.9l.15-.35q1.25-2.1 1.65-5l2.25-.6L6 94 .35 86.1q-1.05-7.5 15.4 6.65l5.05-2.2m5 23.85q1.35 4.85 7.45 6.85l-6 3.75q-4.2-.2-5.6-5l1.35-7.45q1.3 1.05 2.8 1.85M5.85 140.6Q.35 137-7.25 142q7.4-23.9 15.75-20.25 1.15 5.7-2.65 18.85m-30.3.9q-6.05-1.35-9.7-4.7 8.3-4.25 14.65-12.05l-4.95 16.75m-90.3 14-4.75.25q2.4-8.3 4.75-6.75v6.5m103.1-187.35q.95 1.05 1.85 2.9l-1.4 1.65q-1.2-4.65-6.25-3.55 1.35-2.05 2.7-2.4 1.55-.4 3.1 1.4M21.25-17q-2.2-8.25 3.1-7.1-2.55 1.05-3.1 7.1M2.35 33.75 8.75 36l-8 7-8.5-3.75-.4-3.65L-3 37.25-1.1 36l1.95-1.25 1.5-1M-1.5 96.1q-.3 3.6-1.7 6.3l-.35.75-1.35 1.9q-1.05 1-2.25 1l-1.05-.25-1.25-1.15.05-.05-.05.05 1.25 1.15 1.05.25q1.2 0 2.25-1l1.35-1.9.35-.75q1.4-2.7 1.7-6.3m-94.85-81.9-.1 9.85q-9.25-9.95-25.05-13.25-.85-1.15-2.75-2.15l.9.1 1.9.25 7.1 1.1 9.1 1.85 8.9 2.25m-10.9 29.85 11.5-.55.15 4.5-16.9 2 5.25-5.95M-148.8 18.2v-1.1q.25-1.3 2.1-2.6 2.5-1.7 6.7-2.35 3.9-.7 6.95.1l.4.05q1.65.4 2.5 1.1l.7.6q.45.45.6 1.05l.05.7q-.55.6-1.4 1.2-1.35.95-3.1 1.6-1.9.75-4.4 1.15l-8.2-.25q-1.8-.45-2.9-1.25M-160.4 6q4.35 1.65 9.65 2.5l-15.5.4q2.65-1.8 5.85-2.9m3.9 32.75.7-.85q.8-.7 2.05-1.25l3.35-1.1q3.65-.9 6.95-.7l2.85.35.3.65q.15.75-1 1.65-1.55 1.2-4.8 2-3 .85-5.85.7l-.35.05-2.35-.4-.8-.25-.85-.5-.2-.35M-120.6 99q.9 1.5.85 4.5-1.8 11.1-6.3 17.45-2.05-6.2 5.45-21.95m7.4 23.75q.05 3.65-1.3 10.75-5.7 11.55-9.35 14.3.35-15.05 10.65-25.05m-27.6 9.7q.5-13.25 5.9-18.25.6 4.9-1.1 10.55-2.4 5.9-4.8 7.7M-28.3 117q.4.45.55.95.4 1.25-.55 3.3-1.3 2.75-4.6 5.4-3 2.55-6.05 3.35l-.4.2-2.7.25-.95-.15-1-.6-.4-.55.6-1.75q.7-1.5 1.9-2.95l3.2-3.2q3.6-2.9 7.25-3.85l3.15-.4M-187 13l.3-.5q.45-.55 1.4-.8l2.9.2q1.5.4 2.3 1.4l.15.05.5 1q.1.2.05.45l-.1.6-.15.25-.8.4-1.45.15-1.75-.35q-1.75-.55-2.7-1.7L-187 13m8.8 21.2-.25-1q-.1-1.2.75-2.65 1.2-1.9 3.65-3.2 2.3-1.3 4.45-1.05l.25-.1q1.15.15 1.8.6l.6.45q.4.25.65.8l.15.55-.55 1.35-1.55 1.95-2.55 1.75q-2.75 1.4-5.25 1.15-1.25-.1-2.15-.6" transform="translate(291.75 239.25)"/><path fill-rule="evenodd" fill="#9f4a35" d="M31.4-7.1q-.45 5.15-2.65 6.85L26.8-5.3l1-4.5 3.6 2.7m-152.8 74.35q-5.55-.9-9.85-6.35 6.6-.5 9.15-11.55l1.6.85-.5 3.25q-.95 7.15-.4 13.8m-21.05-17.2-1.8-2.5 1-2.05 2.5-.5h6.25q2.85.55 5.75 1.5-4.3 4.75-13.7 3.55m13-50.95 5.15.55 8.5 1.25 12.05 2.35 1 .15-2.5 8.55-9.1-1.85-7.1-1.1-1.9-.25-.6-.45q-4.15-3.2-5.2-7.35l-.3-1.85m67.2 5.9 18.5-1.6Q-50.45 16.65-63 23.3q-5.45-.4-10.3-1.65 9-3 11.05-16.65m29.8-3.3L-20.4.45l9.65-.5Q-11.7 7.3-19.5 13q-5.1 2.9-10.8 5.25L-37.75 21l-7.7 1.45-2.1.3-1.35.2q11-8.9 16.45-21.25m15.55 19.35Q-8.7 16.2-4.55 8.1q-.05 3.15.45 6.15-3.25 3.9-8.95 5.8l-3.85 1M-20.4.45q-2.1 10.5-9.9 17.8 7.8-7.3 9.9-17.8m-95.4.45q-1.7 6.55 1.45 9.2-3.15-2.65-1.45-9.2m-23.35 2.8q-6.65-1.4-10.6-.05l-4.05-1.1q4-2.75 11.35-3.5l3.3 4.65" transform="translate(291.75 239.25)"/><path fill-rule="evenodd" fill="#853e1a" d="m108.45 38.45.55 4.05L98 33l10.45 5.45" transform="translate(291.75 239.25)"/><path fill-rule="evenodd" fill="#6c3224" d="M-1 26.5q4.45 1.65 9.75 3l-6.4 4.25-1.5 1q-12.15-3.75-20.1-9.9l8.9-2.95Q-6.3 24.45-1 26.5m-26.95-4.7-2.3 2.95q-4.45 6.45-13.5 1.5l-3.8-3.5 2.1-.3q4.8 5.75 10.2 4.3 3.55-1.6 5.25-5l2.05.05m-30.25 1.7q-3 4.2-8.55 6.75-9.4 2.8-16.5-2.25-2.2-2.05-3.8-5.05Q-88.6 20-89.6 16.2l3.3 1q1.85 11.1 13.05 12.05 9.15-.4 12.5-5.8l2.55.05m-43.4 6.15h10.1l5 1.1-2 6-7.25 6.75-11.5.55q-6.1.7-12.25 2.2 7.2-10.05 17.9-16.6m47.95 9.4-1.1-11.8L-44 33.5l-2-5.25 5.5 2 7.35 7.75-2.35-.25v2L-43 31.5l3.5 8.5-10.15-.7-4-.25m.15 63.55q-11.75-26.35-10-48.25l16.25-3.45q3.45 14 9.1 25.3 5.65 13.05 12.65 25.3l-28 1.1" transform="translate(291.75 239.25)"/><path fill-rule="evenodd" fill="#401e15" d="m13.95 69.25-1.65.95Q4.25 64.35-8.65 46.45L-23.3 47.5Q-8.4 70 15.75 92.75-.7 78.6.35 86.1q-15.85-20.5-26-38.35l-20 2.85q7.75 24.75 25.25 50.15H-22q-8.4-9.95-16.15-24.55-5.65-11.3-9.1-25.3l-16.25 3.45q-1.75 21.9 10 48.25l-3.75.15Q-60.7 102-60.3 107q-3.3-13.3-5.25-26.25-1.55-10.3-2.25-25.3-14.2 3.7-27.95 8.85.25-8.1.15-16.3l-.15-4.5 7.25-6.75 2-6-5-1.1h-10.1q2.45-1.5 5.1-2.8 4.45-2.2 9.45-3.9-5 1.7-9.45 3.9l.05-2.8.1-9.85 4.75 1.35 2 .65q1 3.8 2.55 6.75 1.6 3 3.8 5.05 7.1 5.05 16.5 2.25 5.55-2.55 8.55-6.75l9.3-.55 1.35-.2 3.8 3.5q9.05 4.95 13.5-1.5l2.3-2.95 11.05-.75 3.85-1 2.7 1.85-8.9 2.95q7.95 6.15 20.1 9.9L-1.1 36q-12.35-4.35-20.75-10.3l-8.4 2.8 4.95 10.2 3.3.3-6-9.5 12 7.5-1.5-3.4 8.85 12.85-8.85-12.85-1.5-3.35 4.3 2.55q2.35 5.8 6.95 10.85l2.55 2.6-2 .15q8.6 11.4 21.15 22.85m-39.6-21.5-5.15-9.55 5.5.5-5.5-.5 5.15 9.55m-60.95-6.2-3.9.45 2-5.25-2 5.25 3.9-.45L-70 39.5l1.6-2.15 3.9-5.35-15.25 3-6.85 6.55m32.95-2.5-3.85-.3V30.5l-8 8.25 1-6.75-1 6.75 8-8.25v8.25l3.85.3 4 .25 10.15.7-3.5-8.5 7.5 8.25v-2l2.35.25-7.35-7.75-5.5-2 2 5.25-10.75-6.25 1.1 11.8m22.85-.85-2.35-.2 2.35.2m-18.85 1.1q1 6 2.4 11.6-1.4-5.6-2.4-11.6m-15.9 41.45 8.3 22-8.3-22m-2.85-43.4.6 18.1-.6-18.1" transform="translate(291.75 239.25)"/><path fill-rule="evenodd" fill="#8b4a30" d="M6.8 55.05Q14.45 59.4 24.5 63l-10.55 6.25Q1.4 57.8-7.2 46.4l2-.15q4.95 4.75 12 8.8M.35 86.1 6 94l-7.5 2.1-2.25.6-7.1 2-5.65 1.55-8.5-13.5 6.25 14h-1.65q-17.5-25.4-25.25-50.15l20-2.85Q-15.5 65.6.35 86.1" transform="translate(291.75 239.25)"/><path fill-rule="evenodd" fill="#7c4d2e" d="M12.3 70.2q11.6 8.35 27.1 12.2l-18.6 8.15-5.05 2.2Q-8.4 70-23.3 47.5l14.65-1.05Q4.25 64.35 12.3 70.2m-29.8-36.6L-16 37l-12-7.5 6 9.5-3.3-.3-4.95-10.2 8.4-2.8q8.4 5.95 20.75 10.3L-3 37.25l-5.15-1.65-6.55-2.8-4.3-2.55 1.5 3.35m-69.1 7.95 6.85-6.55 15.25-3-3.9 5.35-1.6 2.15-16.6 2.05m18.8 13.9q.7 15 2.25 25.3Q-63.6 93.7-60.3 107l.4 1.6-18.35-11.35q-4-13.35-3.75-31-3.05 13.1-1.25 31l-7.5-1.5-7.5-1.5q2-14.75 2.5-29.95Q-82 59.15-67.8 55.45" transform="translate(291.75 239.25)"/><path fill-rule="evenodd" fill="url(#s)" d="M31.75 114.4 29 115.75q-1.7-.55-3.2-1.35-1.5-.8-2.8-1.85L21.65 120 18 139.5q-5.95 5.3-12.75 3l.6-1.9q3.8-13.15 2.65-18.85Q.15 118.1-7.25 142l-17.2-.5 4.95-16.75 1.5-2-1.5 2q-6.35 7.8-14.65 12.05-4.85 2.45-10.35 3.7-15.8-.9-32.8-5.8-3.4 13.6-12.2 23.3l-7.75 1.25q2.95-11.85 0-21.75-5.1-1-9.25 22.5l-4.15-.75Q-99.2 123.2-103 92.5q-3.15-20.25-22-5.75l-7.65 10.35q2.85-17.75 11.7-26.05l.4 2.2q4.9 3.75 7.05-3.5 1.4-12.25-7.5-16.3l.5-3.25-1.6-.85q-3.35-1.7-6.65-2.85-2.9-.95-5.75-1.5h-6.25l-2.5.5-1 2.05-2.5 4.95q-3.85 3.05-7.75 2.25l-5.65-4q-2.45 3.7-5.1 5-5.5-1.25-8.6-2.85L-168 46q2.25-8.15-6.4-4.45 0-2.6-4.1-.55-4.15 3.9-7.5 3-3.35-3.25-4.2-6.5 8.65-2.95 8.95-7.75l-2.1-2.75q1.6-2.85-1.15-4-7.25-1.3-8.75-4.25l.2-2.95q4.7 4.95 17.8 5.7 6.35-1.85 8 0 14.4 7.3 27 4.25 22.85-9.25 18.75-14.95 15.8 3.3 25.05 13.25l-.05 2.8q-2.65 1.3-5.1 2.8-10.7 6.55-17.9 16.6 6.15-1.5 12.25-2.2L-112.5 50l16.9-2q.1 8.2-.15 16.3-.5 15.2-2.5 29.95l7.5 1.5 2 7.25 13 5-2.25-5.5 6.75 7.25L-54.5 115v-5l40.5-2.75-1.75-3.75 5.75 4.75H1l5.25-4q-4.2-6.3 0-7l6.5 4 5.75-3.75q3.8 9.7 13.25 16.9m-14-8.65q2 4.15 5.25 6.8-3.25-2.65-5.25-6.8M-140.6 35.2l-2.85-.35q-3.3-.2-6.95.7l-3.35 1.1q-1.25.55-2.05 1.25l-.7.85h-.1l-.25 1 .4.65q.65.65 2.1.95l2.3.3h.8q3 0 6.2-.85 3.65-.85 5.4-2.25 1.8-1.45.6-2.55l-.85-.5-.7-.3m-2.65 10.3-14.25.4-5-.9 5 .9 14.25-.4m25 6-2.25-1.3 2.25 1.3m-41.9-.75q1.35-2.05 2.65-4.85-1.3 2.8-2.65 4.85m115.75 78.4h-.05q-.25 1.15.05 1.85l.6 1.05q.95.95 2.6.95l2.6-.4.85-.3q3.2-1.05 6.35-3.7 3.65-2.95 5.15-6 1.55-3.2-.05-4.7-.45-.55-1.05-.65l-.95-.25-3.15.4q-3.65.95-7.25 3.85l-3.2 3.2q-1.2 1.45-1.9 2.95l-.6 1.75m-31.85.35-1.05 5.2 1.05-5.2m-89.9-100.9h.05q.3-.85.2-1.6l-.3-1.05q-.5-1.05-1.6-1.55l-1.75-.4-.6-.05q-2.25 0-4.7 1.35-2.75 1.35-4.1 3.55-1.35 2.3-.45 4.05l.65.85.55.45q.9.5 2.15.6 2.5.25 5.25-1.15l2.55-1.75 1.55-1.95.55-1.35" transform="translate(291.75 239.25)"/><path fill-rule="evenodd" fill="#ddd" d="m-208.55-169.6-4.45-2.15 10.65-15 4.85 1.75-11.05 15.4m-17.6-19.55 3.65 2.65-3.6 4.3-3.4-3.3 3.35-3.65M-234-164.8l5.25-2.95 3.75 2.25-2.5 2.5 4-1.25.45 1.05-6.85 3.45q-2.45-2.5-4.1-5.05m-56.05 38.75 41.3-27.6 3.1-2.05 2.9 4.05-47.3 25.6m7.9-99.85-.2-.2-4.9-4.9 45.2 29.95-3.25 3.45-36.85-28.3m91.45 22.75 17.9-25.3-14.6 27.75-3.3-2.45" transform="translate(291.75 239.25)"/><path fill-rule="evenodd" fill="#666" d="m-193.05-182.05-6.95 14.3-3-2.25 3.75-8.75-7 10.25-2.3-1.1 11.05-15.4-4.85-1.75 1.6-2.25 1.35-1.9q4.55 2.5 8 5.45l-1.65 3.4m-35.6-8.9 2.5 1.8-3.35 3.65 3.4 3.3-3.65 4.2-6.1-4.45q2.7-5.75 7.2-8.5m5.6 27.75 2.05 4.95-4.4 2.5-4.5-4 6.85-3.45m-18.75 18.05-49.45 19.9 1.2-.8 47.3-25.6 3.8 5.35-2.85 1.15m-7.2-47.6-33.15-33.15 36.85 28.3-3.7 4.85m76.2-35.7 7.3-10.3-19.5 40.15-2.4-2.1 14.6-27.75" transform="translate(291.75 239.25)"/><path fill-rule="evenodd" fill="#e3d293" d="m-170.25-153.05 2-1.7 7.15 5.1-11.15 12.15-2.8-1.75v-8.9q2.2-2.65 4.8-4.9m10.6 4.4.65-.85 7.5 6.75 4.75 1.4q8.05-5.4 11-15.9 4.5-9.3 10.5-9.75-1.15 4.75-.55 7.95v.05l-5.2 6.25q-4.35 5.95-13.6 12l-2.15-.6 2.15.6h-4.65l-14.75 10 2.4-15.45 1.95-2.45m36.6-5.75.55-.6q13-11.7 27.5-10.25-6.2 1.55-6.45 8.7l-6.05.8q-13.85 3.1-27.75 15.75l-3.85-1.85q8.65-4.65 16.05-12.55m-16.8 21.35 6.1 3.35 4.5-2.05 4.85 7.15 2.15-.4 4.75 6.5 1.75.85-3 7.15v-6.25l-6.75 5.75 2.5-7v-4.5l-1.4-2.05-5.85 7.3v-9.25l-7.5 7.75 5.35-8.6q-2.45 2.8-5.35 5.15l-3.75-2.55 1.65-8.3m15.45 8.45v.05-.05m-6.35-4.9-.75 1.05-.9 1.1.9-1.1-2.25-1.25 2.25 1.25.75-1.05m-9.1-7.25-3.4 1.25-6.5 7.75 2.75-10.5 2.4.5 4.75 1" transform="translate(291.75 239.25)"/><path fill-rule="evenodd" fill="#caac35" d="M-121.65-105.2h-2.6l-1.5-1.3-9.75-4-1.05-2.15-8.95-3.35-2.25-2.65-4.25-.35-5.1-4.9-6.65.65-1.25-2.25-7.75-6.75 1.25-1.55-9.75-4.45 1.05-2.15q2.2-4.25 5.15-7.75v8.9l2.8 1.75 11.15-12.15 1.45 1-1.95 2.45-2.4 15.45 14.75-10h4.65q9.25-6.05 13.6-12l5.2-6.25q.55 3 2.75 4.6-7.4 7.9-16.05 12.55l3.85 1.85q13.9-12.65 27.75-15.75l6.05-.8q-.2 3.95 1.45 9.55-10.45-6.3-23.25 2.25-7.95 7.15-16.6 9.85v1.85l-1.65 8.3 3.75 2.55q2.9-2.35 5.35-5.15l-5.35 8.6 7.5-7.75v9.25l5.85-7.3 1.4 2.05-2.75 5.25-9 5.25-1.8-.65 1.8.65 9-5.25 2.75-5.25v4.5l-2.5 7 6.75-5.75v6.25l3-7.15 1.8.9v1.75q-2 6.4-7.7 9.8m-18.2-31.55v1.85-1.85l-4.75-1-2.4-.5-2.75 10.5 6.5-7.75 3.4-1.25m-17.25 12.85-2.65-2.55q6.45-4.6 12.75-11.8-6.3 7.2-12.75 11.8l2.65 2.55m12.5-16.85v3-3m-26.9 6.95 9.9-12.4-9.9 12.4m25.5 15.3.75 1q4.05-2.05 7.5-4.7-3.45 2.65-7.5 4.7l-.75-1-1.75-.15 1.75.15-.75-1 4.55-14.9 2.35 1.35-2.35-1.35-4.55 14.9.75 1m6.9-23.35q-2.7 1.45-5.5 2.6 2.8-1.15 5.5-2.6m-20.65 15.4q-1.25.9-2.5 1.7 1.25-.8 2.5-1.7" transform="translate(291.75 239.25)"/><path fill-rule="evenodd" fill="#4f3317" d="M-65.55-106q.85-1.55 2.05-2.2l1.7-.5q3.25 0 6.5 5.5 3.1 5.35 4.3 13.1 1.05 6.55.2 11.4l-.4 1.75-.5 1.6-3.3-2.1.05-.35q.45-1.6.6-3.5.35-3.6-.35-8.25-1.05-6.95-3.85-11.75-2.05-3.45-4.1-4.45-.8-.45-1.7-.45l-1.2.2m-77.5 70.3q-.45-.4-1-.65l-1.6-.4q-2.2-.1-5.3 1.85-4.25 2.8-7.9 8-3.6 5.2-4.45 9.75-.55 3.2.5 4.8l1.3 1.05-1.5.15q-.95-.05-1.75-.45-2.85-1.4-2-6.5.9-5.05 5-10.85 2.95-4.25 6.3-7.05l2.55-1.85q3.65-2.4 6.15-2.1l1.5.4q.85.4 1.3 1.15.8 1.1.9 2.7m49.45-66.35-2.7-1.7q4.1-6.65 9.4-6l.55 2.3q-4.55.95-7.25 5.4m-5.95 10.75q-6.45 10.55-3.4 16.35-1.9-.2-3.8-2.3-1.6-5.1.8-11.2l2.65-5.2 3.75 2.35m-19.7 39.9q1 .6 1.75 1.9l-1.15-.2-1.7.4q-2 .9-4 4-2.75 4.3-3.8 10.5-1.1 6.2.1 10.5.85 3.1 2.55 4.05.75.35 1.65.35l-1.3.8-1.85.4-.7-.05q-2.65-.5-3.95-4.8-1.35-4.85-.1-11.75 1-5.85 3.4-10.25 4.85-2.55 9.1-5.85m37.8-16.4-1.15-.2-1.7.4q-2 .9-4 4-2.75 4.3-3.8 10.5-1.1 6.2.1 10.5.85 3.1 2.55 4.05.75.35 1.65.35l-1.3.8-1.85.4q-3.2 0-4.65-4.85-1.35-4.85-.1-11.75 1.15-6.9 4.25-11.75 3.15-4.9 6.35-4.9.95 0 1.7.45 1.15.6 1.95 2m9 64.6-1.5.95q-1.1.5-2.3.5-3.95 0-6.15-6-2.1-6-1.2-14.5.85-8.5 4.25-14.5t7.35-6q1.2 0 2.2.55 1.4.7 2.5 2.45l-1.4-.25-2.05.5q-2.4 1.1-4.55 4.9-3.05 5.35-3.8 13-.8 7.6 1.05 12.95 1.4 3.8 3.55 4.95.9.45 2 .45l.05.05m56.55-68.3q8 11.95 6.5 23.2l-5.65-3.65q2.2-7.5-3.4-18.9l2.55-.65m-31.2 29.1q.95-1.25 2.2-1.8.75-.4 1.75-.4 3.25 0 6.1 4.45 2.7 4.35 3.35 10.6.7 6.25-1.15 10.65-1.9 4.4-5.15 4.4-1 0-1.9-.35l-1.25-.75 1.7-.3q1.85-.85 2.95-3.7 1.65-3.85 1.05-9.5-.55-5.6-3-9.5-1.8-2.8-3.75-3.6l-1.7-.35-1.2.15" transform="translate(291.75 239.25)"/><path fill-rule="evenodd" fill="#3a2612" d="M-65.4-84.1q-.9-2.8-1.4-6l-.1-.55q-1-7.35.4-12.55l.95-2.8 1.2-.2q.9 0 1.7.45 2.05 1 4.1 4.45 2.8 4.8 3.85 11.75.7 4.65.35 8.25-.15 1.9-.6 3.5l-.15.3-10.3-6.6m40.15 25.6q-6.55-8.85-6.15-17.65 4.55 3.25 10.4 5.9l2.55-.6q5.6 11.4 3.4 18.9l-10.2-6.55M-161.5-11.3l-1.3-1.05q-1.05-1.6-.5-4.8.85-4.55 4.45-9.75 3.65-5.2 7.9-8 3.1-1.95 5.3-1.85l1.6.4q.55.25 1 .65l-.25 2.65q-.9 5.05-4.9 10.9-4.1 5.8-8.95 8.85-2.45 1.6-4.35 2m67.9-90.75q2.7-4.45 7.25-5.4.45 4.05-1.6 9l-5.65-3.6m.6 14.85q-1.15 2.9-2.25 5.1-3.9 7.55-7.7 7.15-3.05-5.8 3.4-16.35l6.55 4.1m-24.5 37.7.8 1.95.15.5q1.35 4.85.2 11.75-.3 1.8-.75 3.45-1.3 4.7-3.65 8.3-1.55 2.45-3.1 3.65-.9 0-1.65-.35-1.7-.95-2.55-4.05-1.2-4.3-.1-10.5 1.05-6.2 3.8-10.5 2-3.1 4-4l1.7-.4 1.15.2m29.7 11.3q-.9 0-1.65-.35-1.7-.95-2.55-4.05-1.2-4.3-.1-10.5 1.05-6.2 3.8-10.5 2-3.1 4-4l1.7-.4 1.15.2.95 2.45q1.35 4.85.2 11.75-1.25 6.9-4.4 11.75-1.55 2.45-3.1 3.65m20.5-1.55q.75 1.2 1.4 3 2.15 6 1.3 14.5-.9 8.5-4.35 14.5-1.65 3-3.5 4.5h-.05q-1.1 0-2-.45-2.15-1.15-3.55-4.95Q-79.9-14-79.1-21.6q.75-7.65 3.8-13 2.15-3.8 4.55-4.9l2.05-.5 1.4.25m24.15 24.15q-1.5-1.1-2.85-3.3-2.8-4.4-3.5-10.65-.6-6.25 1.25-10.6l1.15-2.25 1.2-.15 1.7.35q1.95.8 3.75 3.6 2.45 3.9 3 9.5.6 5.65-1.05 9.5-1.1 2.85-2.95 3.7l-1.7.3" transform="translate(291.75 239.25)"/><path fill-rule="evenodd" fill="#9c6630" d="m-118.45-98.65 2.15-3.15 13 8.15-2.65 5.2q-8.95-4.65-12.5-10.2M-89-84.7l-1.4 5.05-4.85-2.45q1.1-2.2 2.25-5.1l4 2.5" transform="translate(291.75 239.25)"/><path fill-rule="evenodd" fill="#55371a" d="M-14.8-38.1-18-36l-.15.9q-36.1-25.45-72.25-44.55l1.4-5.05 74.2 46.6" transform="translate(291.75 239.25)"/><path fill-rule="evenodd" fill="#7c5025" d="m-147.65-48.75 8.6-10.7q4.95-3.85 9.55-8.3-5.9 11.6-18.15 19m7.95-19.3 4.7-5q7.3-3.2 14.5-7.45-7.15 8.7-19.2 12.45m20.45 16.65q5.55-4.3 10-9.85l-7.45 13.7-.8-1.95q-.75-1.3-1.75-1.9m46.8 48.15v.05l-.05-.05h.05" transform="translate(291.75 239.25)"/><path fill-rule="evenodd" fill="#8c412f" d="m-131.25 60.9-1.3-1.75q2.5 9.65 0 11.35L-136 70q1.8-4.1-1.75-16.25-2.55-1.2-4.7-3.7 9.4 1.2 13.7-3.55 3.3 1.15 6.65 2.85-2.55 11.05-9.15 11.55m-11.2-61.85q4-.4 9-.2l4 .25.3 1.85q1.05 4.15 5.2 7.35l-.3.35q-4.5-1.9-8.3-3.15-2.4-.8-4.5-1.3l-2.1-.5-3.3-4.65m39.7 4.35 15.8 1.45q-1.35 8.75-4.65 10.7l-4.75-1.35-8.9-2.25 2.5-8.55m92-3.45 7.4-.1q-1.1 4.25-1.2 8.25-4.15 8.1-12.35 12.95l-11.05.75-2.05-.05-7.75-.75 7.45-2.75q5.7-2.35 10.8-5.25 7.8-5.7 8.75-13.05m-121.8 59.2-1.45-2.4 1.45 2.4" transform="translate(291.75 239.25)"/><path fill-rule="evenodd" fill="#2e200e" d="M-97.25 159.25q-4.6-3.6-9.25.75 4.15-23.5 9.25-22.5 2.95 9.9 0 21.75M.8 22.1-1 26.5q-5.3-2.05-9.35-4.6l-2.7-1.85q5.7-1.9 8.95-5.8l.85 3.75q1.7 3.7 4.05 4.1m-8.55 17.15v4.4q-4.6-5.05-6.95-10.85l6.55 2.8.4 3.65m-3.1 59.45 7.1-2q-.4 2.9-1.65 5l-.15.35q-.7 1.4-1.5 1.9-.35.35-.7.5l-1.05.25-.6-.1-.7-1.5q-.5-1.35-.65-3.05l-.1-1.35" transform="translate(291.75 239.25)"/><path fill-rule="evenodd" fill="#fff" d="m-37.75 21 7.75.75q-1.7 3.4-5.25 5-5.4 1.45-10.2-4.3l7.7-1.45m-35.55.65q4.85 1.25 10.3 1.65l2.25.15q-3.35 5.4-12.5 5.8-11.2-.95-13.05-12.05l4.5 1.55 6.3 2.25 2.2.65" transform="translate(291.75 239.25)"/><path fill-rule="evenodd" fill="#c86f59" d="m-86.95 4.85 10.7.4 14-.25Q-64.3 18.65-73.3 21.65l-2.2-.65-6.3-2.25-4.5-1.55-3.3-1-2-.65q3.3-1.95 4.65-10.7m43.2-1.45 1.25-.15 10.05-1.55Q-37.9 14.05-48.9 22.95l-9.3.55-2.55-.05-2.25-.15q12.55-6.65 19.25-19.9m-32.5 1.85q-1.55 10.45-5.55 13.5 4-3.05 5.55-13.5" transform="translate(291.75 239.25)"/><path stroke-opacity=".4" stroke-linejoin="round" stroke-linecap="round" stroke="#000" fill="none" d="M14.5-127q2.85-.95 5.75-3 2.7-3.1 2.5-7.15m-11.95 10.9 1.3-.15 2.4-.6q1 2.5 1.5 4.95.85 4.2.25 8.05l-2.15.25q-9 1.85-15.05-2.45-3-2.15-5.3-5.8-6.75-15.5.25-22.5.35-1.05 1-1.75 3.55.2 6.55 1.7 2.15 1.05 4 2.85 3-2.6 6.7-3.8 8.45-.7 10 5.5l.5 2.85m-21.2-7.4 2.2 4.55 1.8-1.7m-1.8 1.7-1.5 1.75v6q.3 1.4 1.1 2.55t2.15 2.1q1.05.75 2.5 1.35l1 .05 1.8-.05 3.3 12.5q-2.4-.25-5.95-2.45l-.9-.55-.45-.35q-2.1-1.75-4-4-2.05-2.45-3.85-5.45-1.55-2.55-2.9-5.55L-5-134.5l-1.1-4.3q-.65-3.55.1-5.7l8.25 6.25M5.5-127.6l-2.7 6.5m5.35 4.9.85-10m7 4.15-3.9-4.35m.7 64.75Q5.8-63.5 2-68m4.9-28.1-2.15 1.85Q-2-94.45-8.4-96.1 2-84.5 6.2-75.3 10.35-66.1 23-63l-5.25 2.25q-2.65-.3-4.95-.9 2.65 11.2 8.8 21.65 1.85-.1 3.9 1.5l3.25 4.75L28.1-24l2.5 1.75 81.9 56.5-1.5 5.5-2.55-1.3.55 4.05-5.25 4.5L31.4-7.1q-.45 5.15-2.65 6.85Q30.5 4.9 30.9 10.1l3.85-.85 2.75 4.5q-4.75.45-9.5 3.95-3.75 10.05-10.2 16.55.1 14.65-11 20.8Q14.45 59.4 24.5 63l-10.55 6.25-1.65.95q11.6 8.35 27.1 12.2l-18.6 8.15q.45 2.5 1.05 4.75Q25.4 108.2 34.5 113l-2.75 1.4-2.75 1.35q-1.7-.55-3.2-1.35 1.35 4.85 7.45 6.85l-6 3.75q-4.2-.2-5.6-5L18 139.5q-5.95 5.3-12.75 3l.6-1.9Q.35 137-7.25 142l-17.2-.5q-6.05-1.35-9.7-4.7-4.85 2.45-10.35 3.7-15.8-.9-32.8-5.8-3.4 13.6-12.2 23.3l-7.75 1.25q-4.6-3.6-9.25.75l-4.15-.75-4.1-.75v-3l-4.75.25q-18.8-5.65-27.75-16.25.1-11.65 3.35-21.45 1.15-3.55 2.7-6.8-4.55.65-9.3 0l-3-4.75q8.65 1.8 15.95-2.75l4.9-6.65q2.85-17.75 11.7-26.05l-.45-3.8q-5.55-.9-9.85-6.35l-1.3-1.75q2.5 9.65 0 11.35L-136 70q1.8-4.1-1.75-16.25-2.55-1.2-4.7-3.7l-1.8-2.5-2.5 4.95q-3.85 3.05-7.75 2.25l-5.65-4q-2.45 3.7-5.1 5-5.5-1.25-8.6-2.85-4.2-2.2-4.15-5.15l3.25-4.25q.35-1.2.35-1.95 0-2.6-4.1-.55-4.15 3.9-7.5 3-3.35-3.25-4.2-6.5-.7-2.6.2-5.25l5.5-3.75 1.15-1.5q1.6-2.85-1.15-4-7.25-1.3-8.75-4.25l.2-2.95q.7-6.2 3.8-9.05 8.75 1.15 11.75 4.75 2 3.55 6 2.25l1.8-2q-3.1-3.25-4.55-10.5-1.85-9.25 1.2-17.45 2.45-6.8 8.2-12.9 4.15-4.4 8.4-9.25l6.3-7.35 2.5-3.05 8.6-10.7q-9.45 7.35-20.2 12.7l-4-2.5q12.65-7.85 23.55-18.8l4.7-5q-8.9 3.9-18 6.3l4.25-2.75-5.5 1.25-3.75-5q18.1-5.05 34.3-17.7l5.25-7.7 2.15-3.15-5.35-3.4h-2.6l-1.5-1.3-9.75-4-1.05-2.15-8.95-3.35-2.25-2.65-4.25-.35-5.1-4.9-6.65.65-1.25-2.25-7.75-6.75 1.25-1.55-9.75-4.45 1.05-2.15-6.1-4.05q-5.95-4.55-4.45-6.8 5.2-9.95 3.95-18.3-1.05-6.75-6.25-12.5l-6.95 14.3-3-2.25 3.75-8.75-7 10.25-2.3-1.1-4.45-2.15 10.65-15 1.6-2.25q-10.65-6.6-21.25-4.25-3.7.5-6.65 2.3l2.5 1.8 3.65 2.65-3.6 4.3-3.65 4.2-6.1-4.45-1.9 5.2q-.2 6.45 3.75 12.45l5.25-2.95 3.75 2.25-2.5 2.5 4-1.25.45 1.05 2.05 4.95-4.4 2.5 4.15 3q3.6 3-2 11-3.8 3.3-8.5 3-7.3-1.3-10.05-6.4l-49.45 19.9 1.2-.8 41.3-27.6q-3.15-5.75-4.6-11.55-2.4-9.15-.65-18.55 2.3-4.95 5-9l-33.15-33.15m-.2-.2-4.9-4.9 45.2 29.95q11.7-10.85 29.05-9.2 9.95-.5 22.3 7.1l17.9-25.3 7.3-10.3-19.5 40.15q2.3 2.1 4.5 4.6 6.65 8.35 9.15 16.6 3.45 11.55-1.4 22.9l2.5 1.45 2-1.7 7.15 5.1 1.45 1 .65-.85 7.5 6.75 4.75 1.4q8.05-5.4 11-15.9 4.5-9.3 10.5-9.75-1.15 4.75-.55 7.95m0 .05q.55 3 2.75 4.6l.55-.6q13-11.7 27.5-10.25-6.2 1.55-6.45 8.7-.2 3.95 1.45 9.55-10.45-6.3-23.25 2.25-7.95 7.15-16.6 9.85v1.85l6.1 3.35 4.5-2.05 4.85 7.15 2.15-.4 4.75 6.5 1.75.85 1.8.9v1.75l1.7 1.1 4.3 2.75q12.4-13.35 29.7-17.6 9.7-1.7 18.75-.2 16.35 2.7 30.5 15.95 16.1 10.4 38 15l-2.1 1.9m-91.2 0 18.9 12q-.9-2.8-1.4-6l-.1-.55q-1-7.35.4-12.55l.95-2.8q.85-1.55 2.05-2.2l1.7-.5q3.25 0 6.5 5.5 3.1 5.35 4.3 13.1 1.05 6.55.2 11.4l-.4 1.75-.5 1.6 26.45 16.85q-6.55-8.85-6.15-17.65-8.7-6.15-12.85-14.6M25.2-26l2.05-4.75m-10.5-11.1-.5-.9Q5.5-36.4 9.75-47.6q-1.4.5-2.65 2.05l-.85 1.05q-1.45 2.35-3.2 4.25L.55-37.9q-2.65 2.1-5.8 3.4m22-7.35 1.75 3.35q1.45-1.4 3.1-1.5M7.1-45.55q-2.55-.45-4.45-2.2Q1.3-49.05.25-51q-3-1.5-6 1.75l-1.6 2.3-2.65 3.7-.5.7-1.7 1.95-1.55 1.6-.3.25-.75.65L-18-36l-.15.9q-.3 2.5.7 4.25 1.35-2.05 2.7-2.4 1.55-.4 3.1 1.4.95 1.05 1.85 2.9Q-8.05-30.55-6-30m.3-.15q-.7-1.45.45-4.35m8-9-2.2 5.6M10.7-24.35q-1.05-1.3-2.7-1.9l-4-.1q-4.1-.5-8.2-2.6l-1.1-.65-.7-.4m22.05-1.9-2.65-1.7Q9.5-28.35 4-26.35m9.4-7.25L15-36M9.75-47.6q.85 5.75 6.5 4.85m2.25 4.25q-1 3.6-2.45 6.6-2.2 4.4-5.35 7.55l1.1 2.05.45 2.8-.7 2.5q3.85 5.3 8.4 1.35l1.3-1.35q-2.2-8.25 3.1-7.1l.85-1.9 2.9 2M-1 26.5q4.45 1.65 9.75 3l-6.4 4.25m-10.1 9.9 2.55 2.6q4.95 4.75 12 8.8M11.55-17Q8.95-11.05 0-14.75M98 33l10.45 5.45M21.25-17q.55-6.05 3.1-7.1M27.8-9.8l-1 4.5 1.95 5.05m-3-7.25 1.05 2.2m4.6-1.8-3.6-2.7-7.85-5.85m121.8 4-1.05.9q-9 5.5-14.35 2.45-1.1-5.1.65-10.3l.55-1.4q2.05-5.1 6.85-10.25 15.15-6.85 22.95-2.4.7 4-1.55 8.15l-1.15 1.9-4.2 3.6q8.55 4.3 12.15 9.65 1.85 5.1-2.35 8.65-4.55 2.05-11.45-.15-5.3-5.05-6.65-9.05l-.4-1.75 8.7-7.35M98 33l11 9.5M78.05 78.3l3.2 2.2q4.1 1.45 7.25 0 1.6-6.05-5.75-15-9.4-5-16.25-1.5-.15.55-.15 1.15-.25 3.7 4.4 8.1l.8.55 6.5 4.5q-.65 3.05-1.6 5.45-1.1 2.7-2.7 4.5-3.1 2.15-6.25 0-2.2-2.7-2-7.75 3.05-5.5 6.05-6.7M21 15.5q5.05-3.9 9.9-5.4M.85 34.75l1.5-1m15.45.5-.05-1.75m3-7.75q3.65-4.4 7.25-7.05m-31.75 79 2.25-.6L6 94 .35 86.1q-15.85-20.5-26-38.35m5.25 53h1.65l-6.25-14 8.5 13.5 5.65-1.55 7.1-2m-5.65 7.9-.05.05 1.25 1.15 1.05.25q1.2 0 2.25-1l1.35-1.9.35-.75q1.4-2.7 1.7-6.3m1.85-10q-1.05-7.5 15.4 6.65l5.05-2.2m-29.45-44.1L-17.5 33.6-16 37l-12-7.5 6 9.5-3.3-.3-5.5-.5 5.15 9.55M25.8 114.4q-1.5-.8-2.8-1.85L21.65 120m1.35-7.45q-3.25-2.65-5.25-6.8m-25 36.25q7.4-23.9 15.75-20.25 1.15 5.7-2.65 18.85M-187.4-200.7l-3.3-2.45m5.7 4.55-2.4-2.1m-5.65 18.65 1.65-3.4q-3.45-2.95-8-5.45l-1.35 1.9m9.35 3.55 2.65 2.45m-47.1.55q2.7-5.75 7.2-8.5m-1.25 31.2 4.5 4m-8.6-9.05q1.65 2.55 4.1 5.05m-9.05 13.45-2.85 1.15m2.85-1.15 1.95 2.8m61.95-4.65q-2.95 3.5-5.15 7.75m9.95-12.65q-2.6 2.25-4.8 4.9m-29.45-45.35q2.7 1.2 5.1 2.6m-43.35 39.25 3.8 5.35M-249-192.75l3.7-4.85 3.25-3.45m-3.6 45.35L-248-159m-.75 5.35 3.1-2.05 2.9 4.05m99.7 115.95q-.1-1.6-.9-2.7-.45-.75-1.3-1.15l-1.5-.4q-2.5-.3-6.15 2.1l-2.55 1.85q-3.35 2.8-6.3 7.05-4.1 5.8-5 10.85-.85 5.1 2 6.5.8.4 1.75.45l1.5-.15q1.9-.4 4.35-2 4.85-3.05 8.95-8.85 4-5.85 4.9-10.9l.25-2.65m5.3-86.5q2.9-2.35 5.35-5.15l.9-1.1-2.25-1.25m2.25 1.25.75-1.05m6.35 4.95v-.05m-15.45-10.3v-1.85m-7.15-1.5q-6.3 7.2-12.75 11.8l2.65 2.55m12.5-16.85-2.15-.6m2.15 3.6v-3m-17-5.45-9.9 12.4m24.5-4.45 2.4.5 4.75 1m-7.9 18.1 1.75.15-.75-1 4.55-14.9 2.35 1.35m2.1 10.85q-3.45 2.65-7.5 4.7l-.75-1m23-4-2.75 5.25-9 5.25-1.8-.65m-8.05-26.6q2.8-1.15 5.5-2.6 8.65-4.65 16.05-12.55m-1.35 29.85 1.4 2.05m26.7 18.75 2.7 1.7m7.25-5.4-.55-2.3q-5.3-.65-9.4 6l-11.65-7.4m-51.7-37.5-1.95 2.45m47.65 31.2q-2 6.4-7.7 9.8M-89-84.7l-4-2.5q-1.15 2.9-2.25 5.1m10.95-14-3.65-2.35-5.65-3.6m.6 14.85-6.55-4.1-3.75-2.35-13-8.15m13.35 26.85q3.8.4 7.7-7.15m-10.7-6.35 2.65-5.2m.35 18.7q-1.9-.2-3.8-2.3-1.6-5.1.8-11.2m-3.3 27.2q-4.45 5.55-10 9.85 1 .6 1.75 1.9l.8 1.95.15.5q1.35 4.85.2 11.75-.3 1.8-.75 3.45-1.3 4.7-3.65 8.3-1.55 2.45-3.1 3.65l-1.3.8-1.85.4-.7-.05q-2.65-.5-3.95-4.8-1.35-4.85-.1-11.75 1-5.85 3.4-10.25l-2.15 1.05-7.25-5.5q11.5-7.55 21.5-20.25m34.8 2.45q-.8-1.4-1.95-2-.75-.45-1.7-.45-3.2 0-6.35 4.9-3.1 4.85-4.25 11.75-1.25 6.9.1 11.75Q-94.15-37-90.95-37l1.85-.4 1.3-.8q1.55-1.2 3.1-3.65 3.15-4.85 4.4-11.75 1.15-6.9-.2-11.75l-.95-2.45m-57.6 8.35q4.95-3.85 9.55-8.3m-12.95 66.8q4-.4 9-.2l4 .25 5.15.55 8.5 1.25 12.05 2.35 1 .15 15.8 1.45 10.7.4 14-.25 18.5-1.6 1.25-.15 10.05-1.55L-20.4.45l9.65-.5 7.4-.1 1.3-4.1q-3.95-3-6.7-8.65L-10-15.75q-3.75-2.8-3.2-6.65.2-1.35.9-2.8l1.1-2.1q-1.2-4.65-6.25-3.55m-55 27.65-1.5.95q-1.1.5-2.3.5-3.95 0-6.15-6-2.1-6-1.2-14.5.85-8.5 4.25-14.5t7.35-6q1.2 0 2.2.55 1.4.7 2.5 2.45.75 1.2 1.4 3 2.15 6 1.3 14.5-.9 8.5-4.35 14.5-1.65 3-3.5 4.5v.05M-118-95.75l-5.7 4.8m3.2 10.45q-7.2 4.25-14.5 7.45m15.75 21.65q-4.25 3.3-9.1 5.85M-39.5-98.5q13.45 12.85 32.25 22.75l-18-4.5 14.5 7.5-5.15 1.25q8 11.95 6.5 23.2l2.05 1.35m-7.7-5 5.65 3.65m-6.5-23.2-2.55.65-2.55.6q-5.85-2.65-10.4-5.9m16.35 24.2-10.2-6.55m-29.7-19.3-.05.35 3.3 2.1m-3.3-2.1-.1-.05-10.3-6.6m18.3 41.7q.95-1.25 2.2-1.8.75-.4 1.75-.4 3.25 0 6.1 4.45 2.7 4.35 3.35 10.6.7 6.25-1.15 10.65-1.9 4.4-5.15 4.4-1 0-1.9-.35l-1.25-.75q-1.5-1.1-2.85-3.3-2.8-4.4-3.5-10.65-.6-6.25 1.25-10.6l1.15-2.25M-72.45-3.25h-.05m66.8-26.9.4.55m-5.9 2.3 1.4-1.65m-76.55-78.5q.45 4.05-1.6 9M-14.8-38.1-89-84.7m80.6-11.4q-7-1.85-13.6-5.4m-140.25-23.25q1.25-.8 2.5-1.7M-16.9 21.05Q-8.7 16.2-4.55 8.1q.1-4 1.2-8.25m-7 22.05-2.7-1.85-3.85 1-11.05.75-2.3 2.95m-13.5 1.5-3.8-3.5-1.35.2-9.3.55q-3 4.2-8.55 6.75M-83.25 28q-2.2-2.05-3.8-5.05-5 1.7-9.45 3.9-2.65 1.3-5.1 2.8-10.7 6.55-17.9 16.6 6.15-1.5 12.25-2.2l11.5-.55 7.25-6.75-2 5.25 3.9-.45L-70 39.5l1.6-2.15 3.9-5.35-1 6.75 8-8.25v8.25l3.85.3 4 .25 10.15.7-3.5-8.5 7.5 8.25v-2l2.35.25 2.35.2m17.75-18.15q5.7-1.9 8.95-5.8-.5-3-.45-6.15m.45 6.15.85 3.75M-30 21.75l2.05.05m-2.35-3.55q7.8-7.3 9.9-17.8M-37.75 21l7.45-2.75q5.7-2.35 10.8-5.25 7.8-5.7 8.75-13.05M-30 21.75l-7.75-.75-7.7 1.45q4.8 5.75 10.2 4.3 3.55-1.6 5.25-5m12.5 11.85-1.5-3.35 4.3 2.55 6.55 2.8L-3 37.25-1.1 36l1.95-1.25m-11.2-12.85Q-6.3 24.45-1 26.5m-6.75 17.15q-4.6-5.05-6.95-10.85m-32.85-10.05 2.1-.3m-15.3 1 2.55.05m-15.1-1.85q4.85 1.25 10.3 1.65 12.55-6.65 19.25-19.9M-81.8 18.75l6.3 2.25 2.2.65q9-3 11.05-16.65m1.5 18.45L-63 23.3m-23.3-6.1q1.85 11.1 13.05 12.05 9.15-.4 12.5-5.8m13.5 27.45q-1.4-5.6-2.4-11.6M-60.3 107q-3.3-13.3-5.25-26.25-1.55-10.3-2.25-25.3l-.6-18.1M-95.75 64.3q-.5 15.2-2.5 29.95l7.5 1.5 7.5 1.5q-1.8-17.9 1.25-31-.25 17.65 3.75 31l18.35 11.35-.4-1.6q-.4-5 3.05-4.25l-8.3-22m27.4-4.55q-5.65-11.3-9.1-25.3m14.8-49.2Q-37.9 14.05-48.9 22.95m-47.45-8.75 4.75 1.35q3.3-1.95 4.65-10.7M-89.6 16.2q1 3.8 2.55 6.75m-9.3-8.75-.1 9.85-.05 2.8m10.2-9.65 4.5 1.55q4-3.05 5.55-13.5M-89.6 16.2l3.3 1m-5.3-1.65 2 .65m-15.65-4.25 2.5-8.55m-11.6 6.7 9.1 1.85 8.9 2.25m-27-5.45 1.9.25 7.1 1.1q-3.15-2.65-1.45-9.2M-95.6 48l-.15-4.5m-28.5-34.85.9.1-.6-.45m-.3.35q-4.5-1.9-8.3-3.15-2.4-.8-4.5-1.3l-2.1-.5q-6.65-1.4-10.6-.05L-143 5m13.55-5.9.3 1.85q1.05 4.15 5.2 7.35m-4.85 7.45h.05q.75-.85.9-1.65.15-.55 0-1.2-.35-1.25-1.8-2.1-.95-.55-2.45-.95l-.85-.2q-3.35-.65-7.4.05-4.6.7-7.45 2.65-2.9 2-2.3 4.1l.6 1.1.7.65m20-2.45q-.55.6-1.4 1.2-1.35.95-3.1 1.6-1.9.75-4.4 1.15l-8.2-.25q-1.8-.45-2.9-1.25M-160.4 6q4.35 1.65 9.65 2.5m-15.5.4-3.45 2.85m15.9-9.2 4.05 1.1m-6.75 35.1.7-.85q.8-.7 2.05-1.25l3.35-1.1q3.65-.9 6.95-.7l2.85.35.7.3.85.5q1.2 1.1-.6 2.55-1.75 1.4-5.4 2.25-3.2.85-6.2.85h-.8l-2.3-.3q-1.45-.3-2.1-.95l-.4-.65.25-1h.1m27.75 7.75q-2.9-.95-5.75-1.5h-6.25l-2.5.5-1 2.05M-162.5 45l5 .9 14.25-.4m14.5 1q3.3 1.15 6.65 2.85l1.6.85 2.25 1.3M-134 56.75l1.45 2.4m7.55 27.6-7.65 10.35m12.15-46.9-.5 3.25q-.95 7.15-.4 13.8m.85 6-.4-2.2m-10.3-10.15q6.6-.5 9.15-11.55m-35.4-3.45q-1.3 2.8-2.65 4.85m17.7-.7q9.4 1.2 13.7-3.55M-95.6 48q.1 8.2-.15 16.3m-30.3 56.65q4.5-6.35 6.3-17.45.05-3-.85-4.5m-5.45 21.95-1.2 1.55q-3.9 1.55-2-10.5 2.5-11.2 6-14.5 1.75.1 2.65 1.5m-3.25 48.8q3.65-2.75 9.35-14.3 1.35-7.1 1.3-10.75m-10.65 25.05q-1.5 1.1-2.65.7-2.4-2.7 0-11.25 4.9-13.45 9.75-17.5 3.45-2.65 3.55 3m-22.7-12.8 1.9-.7m-3.6 1.25-3.6.75m6.3 2.95q-.25-2.2-1-4.25l-1.7.55-2.4 3-.75 2.1q-6 16.4-3.25 17.4 1.6.65 3.2-.55m5.9-18.25q.6 4.9-1.1 10.55-2.4 5.9-4.8 7.7m21.3 23.3q2.4-8.3 4.75-6.75v6.5m8.25 4.5q4.15-23.5 9.25-22.5 2.95 9.9 0 21.75M-9.4 104.6l-.7-1.5q-.5-1.35-.65-3.05l-.1-1.35m-27.3-22.5Q-30.4 90.8-22 100.75h1.6m-24 28.4h-.05q-.25 1.15.05 1.85l.6 1.05q.95.95 2.6.95l2.6-.4.85-.3q3.2-1.05 6.35-3.7 3.65-2.95 5.15-6 1.55-3.2-.05-4.7-.45-.55-1.05-.65l-.95-.25-3.15.4q-3.65.95-7.25 3.85l-3.2 3.2q-1.2 1.45-1.9 2.95l-.6 1.75m24.9-4.4 1.5-2m-16.15 14.05q8.3-4.25 14.65-12.05m-34-22.15-3.75.15M-77.3 134.7l1.05-5.2m22.75-26.9 28-1.1q-7-12.25-12.65-25.3M-131 98q-3.15 3.6-6.55 5.75m-42.1-88.1.05.05.7-.6.35-.55q.2-.6-.1-1.3l-.5-.9-.25-.25q-.95-.95-2.5-1.4l-3.15-.25q-1.55.45-1.9 1.5l-.05.65v.4m7.35 2.65-.8.4-1.45.15-1.75-.35q-1.75-.55-2.7-1.7L-187 13m20.85 15.6h.05q.3-.85.2-1.6l-.3-1.05q-.5-1.05-1.6-1.55l-1.75-.4-.6-.05q-2.25 0-4.7 1.35-2.75 1.35-4.1 3.55-1.35 2.3-.45 4.05l.65.85.55.45m12.05-5.6-.55 1.35-1.55 1.95-2.55 1.75q-2.75 1.4-5.25 1.15-1.25-.1-2.15-.6m6.7-20.45-1.75 2.5M-160.4 6q-3.2 1.1-5.85 2.9m12.45-6.35q-7.15-2.25-12.95-5.8L-169 1q3.65 3.05 8.6 5m17.95-6.95q-7.35.75-11.35 3.5m14.65 1.15-3.3-4.65M3.35-129.7l-4.4 3.15m3.3-5.7-6.2.15m-2.15-6.7 8.35 3.55M12.3 70.2Q4.25 64.35-8.65 46.45m6.6-50.7Q-.7-3.2.75-2.5" transform="translate(291.75 239.25)"/></g><radialGradient spreadMethod="pad" r="819.2" id="a" gradientUnits="userSpaceOnUse" gradientTransform="translate(44 44) scale(.0547)" cy="0" cx="0"><stop stop-opacity=".729" stop-color="#496200" offset="0"/><stop stop-opacity="0" stop-color="#496200" offset="1"/></radialGradient></defs><path fill="none" d="M-1-1h450v384H-1z"/><use x="210" y="357" xlink:href="#t" width="381" transform="translate(-192.55 -294)" height="381"/><use x="6.394" y="-3.836" xlink:href="#u" width="566" transform="matrix(-.782 0 0 .782 450.47 6.164)" height="481.9"/><use x="-4.326" y="-.946" xlink:href="#v" width="102.95" transform="matrix(1.1557 0 0 1.0576 161 238.55)" height="45"/></svg>