<svg width="245" height="265" xmlns="http://www.w3.org/2000/svg" xmlns:xlink="http://www.w3.org/1999/xlink"><defs><linearGradient y2=".361" y1=".619" x2=".899" x1=".295" spreadMethod="pad" id="c"><stop stop-color="#651f01" offset="0"/><stop stop-color="#392302" offset="1"/></linearGradient><linearGradient y2=".687" y1=".416" x2="1.149" x1=".166" spreadMethod="pad" id="d"><stop stop-color="#601f01" offset="0"/><stop stop-color="#9c5105" offset="1"/></linearGradient><linearGradient y2=".7" y1=".163" x2="1.033" x1=".126" spreadMethod="pad" id="e"><stop stop-color="#88a901" offset="0"/><stop stop-opacity=".4" stop-color="#b6a734" offset=".988"/></linearGradient><linearGradient y2=".782" y1=".414" x2="-.143" x1=".978" spreadMethod="pad" id="f"><stop stop-color="#88a901" offset="0"/><stop stop-color="#63541d" offset=".988"/></linearGradient><linearGradient y2=".579" y1=".492" x2="-.136" x1=".613" spreadMethod="pad" id="g"><stop stop-color="#bcb539" offset="0"/><stop stop-color="#9d6a1e" offset="1"/></linearGradient><linearGradient y2=".35" y1=".818" x2="-.122" x1=".957" spreadMethod="pad" id="h"><stop stop-color="#ceeb8b" offset="0"/><stop stop-color="#a98b3a" offset="1"/></linearGradient><linearGradient y2=".506" y1=".559" x2=".144" x1=".831" spreadMethod="pad" id="i"><stop stop-color="#735d14" offset="0"/><stop stop-color="#423402" offset="1"/></linearGradient><g id="m" stroke-opacity="0" stroke-linejoin="round" stroke-linecap="round" stroke="#f0f" fill="none"><path d="M187.95-293.5v380h-380v-380h380M92.95.6H-97" transform="translate(192.55 294)"/><path d="m187.95-293.5-190 190 190 190m-379.95 0 189.95-190-190-190" transform="translate(192.55 294)"/></g><g transform="translate(1.5 1.5)" id="n"><use xlink:href="#a" width="523.9" transform="translate(-1.5 -1.5)" height="573.55"/><use xlink:href="#b" width="197" transform="matrix(.585 0 .3596 .9294 184.7 6.7)" height="197"/><use xlink:href="#b" width="197" transform="matrix(1 0 0 1.4467 131.65 227.05)" height="197"/><use xlink:href="#b" width="197" transform="matrix(.193 -1.6426 .6159 -.0188 13.3 474.15)" height="197"/></g><g id="a"><path stroke-width="3" stroke-opacity=".4" stroke-linejoin="round" stroke-linecap="round" stroke="#000" fill="none" d="M24.75 564.45q-1 1.15-3.75 1.7-9.95 2-16.75 0-3.55-1.2-2.5-4.25l7.5-1.25 6.25-3.55-1.75-8.2q2.55-8.7 6-12.25 2.25-5.15 12 0-3.3-2.65 0-6.25-4.3-9.8-4.5-23v-4.25q2-1.95 3.45-4.5 1.2-2.1 2.05-4.55-1.9-7.15-1-10.7 13.8-15.25 18.75-16.5l3.25 3 4.3 1.2-5.3-9.2-11.25-11.5 2.5-6.75-2-21.75-2.25-6.75L42.6 410l-1.35-2.85 2.5-6q4.6-5.35 8.25-5l11.95 2.15L60 376.15q-.15-28.7 3.85-53.3l.9-5.35-1.45-.15-4.35-.75q-3.5-.75-6.65-1.85-9.2-3.25-15.55-9.85-11.95-7.2-23.4-28.05-3.45-6.25-6.8-13.75-6.45-7.05 1.2-16.95 22.05-12.05 47.75-15.1 14.4-4.1 28.1-4.6 5-23.85 6.4-51.8l3.25-1-2.1 20.2 21.35-49.2 5.5-5.75h1.25l8.25 5.25q-1.35 2.3-1.85 4.95l12.75.35q-4.35-8-6.4-16.05 3.75-.5 7.3-2.25 3.3-1.65 6.4-4.35-24.1-23.15-34.7-49.65 4.9-9.15-3.5-15-2.95-27.55 10.5-41.5 8-14.5 53.65-13.9-.05-2.5 9.55-4.2L198.25 2q7.55 1.15 11.9 2.65 4.3 1.5 5.85 2.8 9.1-.8 17.6.4h.1l.3.05q4.3.6 8.45 1.75 23.1 10.7 35 37 6.7 22.75 21.5 45.5 9.75 14.35 16.6 26.8l1.15.65m29.5 439.8 3.05.75h21q5.5-.75 0-5.5-4.45.6-10.65-3.95.7-7.7 6.9-13.3 5.45-2.35 6-10.5.65-5.8-4-4.5-6.45 5.55-17.75 6.25l-6.75-1-1.75-2.75-6.5-1.5v-14.5l6-13.25-8.25-7.75h-11.25l-6.9 5.05q-9.05-.8-16.35-4.55l-9.25-11-15.5-9-3.75-5.75q-2-2-4.35-3.15l2.35-2.2 3 1.35 29.5-.5 2.5-1.4 8-10.35h8.25l13-4.5 2.05-2.45 4.85-7.35-1.4-2.2-11.1-4.5 6.35-9.75-6.85-2.45v-.05q4.55-6 2.1-16.6l-1.85-6 .6-3.4-.1-1q-1.8-6.95-33.1 7.55l-3.4-2.85 6.1-3.45 2-10-1.15-1.5 5.65-11.75L322 344.9l5.75-1.25 1.25-6.25v-2.65l4.5-4.85v-4.5l-1-1.75q.55-5.4 12-9l27.5-5.5 6.25-3h3.6l3.15 3.25 1.5 8.25 12.75 10.75H417l10.05-2.3 3.45 1.3q2.55 1.75 3.05 3.8l-4.55 3.2q-3.35 4.15 1 5.75l9.75-2q3.75 1 5.75 3.75 2.5 1.75 1 3.75 2.95.55 3.15-3.1.1-2.8-1.4-8.15l-2.3-3.75v-1.1q2.65-4.1-3.95-2.9l-5.5 2.65q-2.9-6.3-1.75-13.15H431q-4.4 5.05-14.35 4.5l-2.4-3-8.5 1.25q-10.7-1.9-12.25-13.75v-9.75q1.65-8-5.5-4.25l-2.75 3.25q-20.55 9.15-41.75 12.75L333 305.7v-2.2l-4.75.05-1.5-1.15-12.5 10.5q-3.1 3.2-3.75 5.6l1.85 4.95v.15q-1.25 4.9 2.15 5.8 6.65 2.8 3.25 7.25l-14.5 18.25-14.5 13.35h-11.8l-3.7-3.1h-6.3l-4.5-6.25q7.95-7.35 13.35-19.45 2.8-6.25 4.9-13.7 2.1-2.45 2.6-4.85.5-2.55-.8-5-1.5-2.3-3.65-4.3l-3.9.65q-4.3-2.1-4-6-2.9-1.5-6.4-2.65.95-.6.95-1.35 0-1-1.7-1.7-1.65-.7-4.05-.7t-4.1.7q-1 .4-1.4.95l-3.95-1.05.15-.7q0-1.4-2.6-2.4t-6.3-1q-3.7 0-6.3 1-1.9.7-2.4 1.65h-4.05q-2.85-9.9-3.75-19.05 4.65-3 8.3-6.25 5.15-4.75 8.1-10 1.95-3.55 2.95-7.3 1.65-1.35 2.5-2.7.95-1.75.6-3.55-1.95-6-15.75-8.4l5.35-14.35-.5-1.45-.85-.7 2.75-3.95q2.5-8.75-7.75-17.15l-6-.9q-.7.35-.7.8.15 3.5-.15 6.45-.85-1.25-2-2.35l-2.8 1.25-5.9-2.85 1.9-5.4q4.85-.5 9.95-1.65l3.45-.85 2.05-18 8.15 2.8 4.85 1.35-.05 1.1m-176 249 .65-4.9q-6.9-1.1-11.15 15.4l2.5 13q.75 1.95 1.75 3.5 2.65 4.35 6.95 5.5v2.6l10.1-4.05 5.5-9.8-16.55-11.25v-2.6l2-4.4-1.75-3m6.5 82.5-3.5 2.5q-7.25 1.25-10.25 0l-2.5-2.5 5.35-3.7q-.35-2.75-2.1-6.3l-2.75-3.5q2.3-6.4 6.75-9.25 2.4 2.65 5.75 2.5l1.75-2.25q.2-3.65-5.25-7.3l-3.15.4-.1 1.4q-3.1 5.35-7.05 5.6-3.2 4.45-8.2 3.4-5.2 6.35-4.25 22.25l4.75 11.75q8.05 3.2 4.25 8.75-9.3 12.95-13.1 6.3l-5.4-.55-6.25-.5q-8-.15-9.25 5.5v5.75l5.75 4.5.1.55m46.85-47.6q-1.9-1.3-5.65-2.25-.85-1.55-.95-3.15l3.4-4.3h2.5l4.1-1.5 2.4.5q2.85-1.7 2-8l-2.55-9.6 11.3 3.6 5.15-2.45q7.1-.45 7.1-6.8l5.85-10.2 2.55-1.15 6.85 2.7q.35.2 3.85-2.2l4.9-3.4-1.5-5.3 10.25 2.6 1.5-1.05q1.7-4.15 4.4-2.5l1.1 2.5 19 3 2.15-1.8 1.85 2.05 13.7 1.65 6.05 11.6 2.55 1.25 10.75-3.65 2.45 3.65 7.75 2.75 1.85-.85 1.9 2.1 12.25 6h2.25l7.5-6 13.75-3 6 .5 2.75-2.6 2.75 3.35 7.9-.85 14.25 6.25 9.85 6.6 2.75 6 4 2.75 2.9-1 6.35 2.25 6.5-1.25 4-2.25 4.5 6.25 3.5 1.5 3.75 7.25 1.25 20.25 6.5 6.5 9-3.25 2.35-2.75h.05l9.85-3.75 1.25 1.15-1.5 2.35 2 2.5-3.55 9.9-11.2 6.6q-.5 1.05.05 1.9"/><path fill-rule="evenodd" fill="#d6a07e" d="M170.15 5.25q-.05-2.5 9.55-4.2L196.75.5q7.55 1.15 11.9 2.65 4.3 1.5 5.85 2.8v.45q0 3.85-6.55 6.55-6.5 2.7-13.75 2.05-7.25-.65-14.65-3.05-7.45-2.4-8.5-4.25-1.05-1.9-.9-2.45M167.4 28q1.45-1.4 3.5-1.4t3.45 1.4q1.45 1.45 1.45 3.5t-1.45 3.45q-1.4 1.45-3.45 1.45-2.05 0-3.5-1.45-1.4-1.4-1.4-3.45 0-2.05 1.4-3.5m15.9 81.65q-4.35.5-9.35-1.7-8.3-3.7-13.5-12.65-5.15-8.95-4.2-17.95.95-9.05 7.5-12.8 6.55-3.8 14.85-.1 5.65 2.5 9.85 7.45-8.25 19.65-5.15 37.75m-52.55-75q3.2 0 5.45 1.1 2.3 1.1 2.3 2.65 0 1.55-2.3 2.65-2.25 1.1-5.45 1.1t-5.5-1.1Q123 39.95 123 38.4q0-1.55 2.25-2.65 2.3-1.1 5.5-1.1" transform="translate(1.5 1.5)"/><path fill-rule="evenodd" fill="#431401" d="M109.5 75.65q4.9-9.15-3.5-15 23.3-8.05 36.5-1 5.35 3.3-33 16" transform="translate(1.5 1.5)"/><path fill-rule="evenodd" fill="#ac4806" d="m318.95 126.8 2.5 5.35.75 5.25q-2.5-1.75-6.7-1.75-2.65 0-3.95.5-3.05 1.15-3.05 4.75 0 3.7 7.9 11.75l5.15 5q-1.45 6.85-4.85 12.1-1.8-.55-3.25-1.7-1.35-1.1-4.1-4.65-2.55-3.25-4.6-4.65l-.2-.1.95-4.2q2.1-9.6 2.1-11.5 0-8.65-1.85-15.05l1.5-.25q.75 0 1.75.95 1 1 1.5 1.05.25-.25.45-.35l.05-.9q0-.75-1.75-2.1l-1.9-1.3-1.3-.5-1.55-.15-.15-.3q-2.15-5-8.6-13.15-7.95-10.1-12.25-17.3-7.85-13.15-14.3-31.45-8.35-23.85-20-41.2-1.95-2.95-8-7.6-6-4.4-6.8-5.2l-2-1.6.1-.15q4.3.6 8.45 1.75 23.1 10.7 35 37 6.7 22.75 21.5 45.5 9.75 14.35 16.6 26.8-4.1-2.1-9.65-3.05-.9 1.4-.9 2.5l8.15 5.25 7.3 4.65" transform="translate(1.5 1.5)"/><path fill-rule="evenodd" fill="#f5e1cf" d="M231.35 297.5q.5-.95 2.4-1.65 2.6-1 6.3-1 3.7 0 6.3 1 2.6 1 2.6 2.4l-.15.7q-.5.95-2.45 1.7-2.6 1-6.3 1-3.7 0-6.3-1-2.6-1-2.6-2.4l.2-.75m21.4 2.5q.4-.55 1.4-.95 1.7-.7 4.1-.7 2.4 0 4.05.7 1.7.7 1.7 1.7 0 .75-.95 1.35l-.75.35q-1.65.7-4.05.7t-4.1-.7q-1.65-.7-1.65-1.7 0-.4.25-.75m-64.3-228.1q1.95 2.3 3.6 5.15 5.2 8.95 4.25 18-1 9-7.55 12.8-2.6 1.5-5.45 1.8-3.1-18.1 5.15-37.75M209 83.65q2.9 0 4.95 2.05 2.05 2.05 2.05 4.95 0 2.9-2.05 4.95-2.05 2.05-4.95 2.05-2.9 0-4.95-2.05-2.05-2.05-2.05-4.95 0-2.9 2.05-4.95 2.05-2.05 4.95-2.05m14.65 31.75q-1.95 0-3.3-1.35-1.35-1.35-1.35-3.3 0-1.95 1.35-3.3 1.35-1.35 3.3-1.35 1.95 0 3.3 1.35 1.35 1.35 1.35 3.3 0 1.95-1.35 3.3-1.35 1.35-3.3 1.35m66.3-4q0 3.85-6 6.55-6 2.7-14.5 2.7t-14.5-2.7q-6-2.7-6-6.55 0-3.85 6-6.55 6-2.7 14.5-2.7t14.5 2.7q6 2.7 6 6.55m11 30.2q3 1.5 3 3.55t-3 3.5q-3 1.5-7.25 1.5t-7.25-1.5q-3-1.45-3-3.5t3-3.55q3-1.45 7.25-1.45t7.25 1.45M54.3 245.3q1.55-.7 3.7-.7 2.15 0 3.7.7 1.55.7 1.55 1.7t-1.55 1.7q-1.55.7-3.7.7-2.15 0-3.7-.7-1.55-.7-1.55-1.7t1.55-1.7m-16.35 11.15q3.45-1.35 8.3-1.35 4.85 0 8.3 1.35 3.45 1.35 3.45 3.3 0 1.95-3.45 3.3-3.45 1.35-8.3 1.35-4.85 0-8.3-1.35-3.45-1.35-3.45-3.3 0-1.95 3.45-3.3m196.7-10.75q1.4-.6 3.35-.6l3.35.6q1.4.65 1.4 1.55t-1.4 1.5l-3.35.65q-1.95 0-3.35-.65-1.4-.6-1.4-1.5t1.4-1.55m2.8 6.7q1.1.55 1.1 1.25t-1.1 1.2q-1.05.55-2.55.55-1.5 0-2.6-.55-1.05-.5-1.05-1.2t1.05-1.25q1.1-.5 2.6-.5t2.55.5m-33.25 73.8 1.8-.15 3.5-.15q5 0 8.9.95l2.05.6q4.55 1.55 4.55 3.7 0 2.15-4.55 3.7-4.55 1.55-10.95 1.55-6.4 0-10.95-1.55-4.55-1.55-4.55-3.7 0-2.15 4.55-3.7 2.55-.85 5.65-1.25m42.8-20.05 3.35.45q1.4.45 1.4 1.05 0 .6-1.4 1.05l-3.35.45-3.35-.45q-1.4-.45-1.4-1.05 0-.6 1.4-1.05l3.35-.45m5.25 6.25q5.2 0 8.85 1.45 3.65 1.5 3.65 3.55t-3.65 3.5q-3.65 1.5-8.85 1.5-5.2 0-8.85-1.5-3.65-1.45-3.65-3.5t3.65-3.55q3.65-1.45 8.85-1.45m6.05 13q1.35-.55 3.2-.55t3.15.55q1.35.55 1.35 1.35t-1.35 1.35q-1.3.55-3.15.55l-3.2-.55q-1.3-.55-1.3-1.35t1.3-1.35m51.9 61.8q1.75-1.1 4.4-1.8 2.65-.7 4.65-.6 2.05.1 2.3 1 .25.85-1.5 1.95-1.7 1.1-4.35 1.8l-4.7.6q-2.05-.1-2.3-.95-.25-.9 1.5-2m3.15 6.95q.9-.55 2.2-.55 1.25 0 2.1.55.9.55.9 1.35t-.9 1.35q-.85.55-2.1.55-1.3 0-2.2-.55-.8-.55-.8-1.35t.8-1.35" transform="translate(1.5 1.5)"/><path fill-rule="evenodd" fill="#9c0" d="M437.9 195.65q0-.7.25-1.3l.25-.7h1.75q.45 0 1.3.5.95.65.95 1.25v1.2q-.35 1.05-2 1.05h-1.3q-1.2-.35-1.2-2m-13 90-.5-.5v-2.5l1-1 1.55.7q.95.4.95 1.55l-.25 1.15-.25.6h-2.5" transform="translate(1.5 1.5)"/><path fill-rule="evenodd" fill="#b7a934" d="M265.45 363.65h6.3l3.7 3.1h11.8l14.5-13.35 14.5-18.25q3.4-4.45-3.25-7.25-3.4-.9-2.15-5.8v-.15l.1-.35.55-1.7-.55 1.7-.2.1L309 317q.65-2.4 3.75-5.6l12.5-10.5 1.5 1.15 4.75-.05-9.9 6.95q-10.6 8.1-4 10 10.65 5.1 9.2 7.6l-5.6 3.2-8.8 15.6-22.8 24.6h-10.35l-3.8-3.2 3.8 3.2 3.75 3.2q5.45 9.85-4.75 5.6-6.75-7.05-12.8-15.1m66.05-59.45 10.5 1.45q21.2-3.6 41.75-12.75l2.75-3.25q7.15-3.75 5.5 4.25v9.75q1.55 11.85 12.25 13.75l8.5-1.25 2.4 3q9.95.55 14.35-4.5h3.75q-1.15 6.85 1.75 13.15l5.5-2.65q6.6-1.2 3.95 2.9v1.1l2.3 3.75q1.5 5.35 1.4 8.15-1-7.7-6.55-9.3H436l-7.6-10.4q.15-1.45-9.6 3.6h-8.4l3.2-2.65-9.6.25-12-6.4-8-11.5q-5.35-2.45.4-8.1l-24.8 8-21.2 6.35q-17.55 8.65-14.65 0l7.75-4.5v-2.2m-3.25-1.05-1.5-1.1 1.5 1.1m116.2 26q-2.1-1.45-5.2 0-3.4.5-4.25-1.35.85 1.85 4.25 1.35 3.1-1.45 5.2 0m-26.95-7-2.35-3 2.35 3" transform="translate(1.5 1.5)"/><path fill-rule="evenodd" fill="#725c13" d="M331.5 302v4.4l-7.75 4.5q-2.9 8.65 14.65 0l21.2-6.35 24.8-8q-5.75 5.65-.4 8.1h-3.65H384l8 11.5 12 6.4 9.6-.25-3.2 2.65h8.4q9.75-5.05 9.6-3.6l7.6 10.4h5.6q5.55 1.6 6.55 9.3-.2 3.65-3.15 3.1 1.5-2-1-3.75-2-2.75-5.75-3.75l-9.75 2q-4.35-1.6-1-5.75l4.55-3.2q-.5-2.05-3.05-3.8l-3.45-1.3-10.05 2.3h-17.75L385 316.15l-1.5-8.25-3.15-3.25h-3.6l-6.25 3-27.5 5.5q-11.45 3.6-12 9l1 1.75v4.5l-4.5 4.85v2.65l-1.25 6.25-5.75 1.25-18.5 19.25-5.65 11.75 1.15 1.5-2 10-6.1 3.45q-5.8-5-11.15-10.6 10.2 4.25 4.75-5.6l-3.75-3.2h10.35l22.8-24.6 8.8-15.6 5.6-3.2q1.45-2.5-9.2-7.6-6.6-1.9 4-10l9.9-6.95m-1.6 115.4-4.25 6.5-2.85-1.05q-6.95 3.55-17.15-3.25l4.2-.25 2.25-.45 3.2-.95 3.45-1.4 1.9-1 9.25 1.85m22.5 141.25h-4.65l-3.05-.75q-1.4-.6-1.9-1.35-.55-.85-.05-1.9l11.2-6.6 3.55-9.9-2-2.5 1.5-2.35-1.25-1.15-9.85 3.75h-.05l-2.35 2.75-9 3.25-6.5-6.5-1.25-20.25-3.75-7.25-3.5-1.5-4.5-6.25-4 2.25-6.5 1.25-6.35-2.25-2.9 1-4-2.75-2.75-6-9.85-6.6-14.25-6.25-7.9.85-2.75-3.35 2.75-2.65q-11.55-15.3-20.8-32.45-7.45-13.7-13.4-28.6 12.85 26.25 26.7 44.3 4-1.75 7.5-2.1-8.15 5.5 0 13.75 7.9 7.75 15.75 9.35H280q.35 6.5 18 14.25l16.8 2q3.4 7.45 11.2 7.6h4.8q-1.7 9.95 0 30 11.15 3.95 15.6-2.8l19.6-2.4q-9.1 2.95-5.5 5.85h2.25l-2.65 1.9-5.7 16.5q-8.1 2.2-2 5.85M40 448.9l2.5-6.75-2-21.75-2.25-6.75 8.15 9.3 2.4 13.2v10.8q-.75 6.05-8.8 1.95m1.1-40.4-1.35-2.85 2.5-6q4.6-5.35 8.25-5l11.95 2.15-3.95-22.15q-.15-28.7 3.85-53.3h6.9Q60.7 352.3 72.1 430.7l.75 5.1 3.85 2.1-.2 1.75q2.35 5.6 5.55 8.6l2.75 2-1.25 2.2-17.8-11.65 2-4.4 1.25-2.75 3.85 2.15-3.85-2.15-1.25 2.75-1.75-3 .65-4.9.6-4.85-.35-2.05-1.9-10.5-2.55-14.3L65 411.1l-13-8.15q-1.7 7.45-9.5 10.3v-1.85l-1.4-2.9m41-183.55q5-23.85 6.4-51.8l3.25-1-2.1 20.2 21.35-49.2h3.5q-.8 9.3 1.25 18.55v.05Q97 196.8 87.25 242.15l-4 19.9-4.45-3.25q-2.85-2.35-4.65-4.7 2.55-7.55 4.7-15.55l3.25-13.6m248.9 97.2-1-1.75-7.25-1q-4.1-3.35 1-8.5-5.1 5.15-1 8.5l7.25 1 1 1.75m-11.75 15q6.45-8.4 8.25-6.5v2.6-2.6q-1.8-1.9-8.25 6.5m108.25-13-1.95.45 1.95-.45m4 9q.9-1.8.55-3.45.35 1.65-.55 3.45M173.95 389.4q-2.55-12.95-4.05-25.15 4.35 4.35 10.2 6.95 1.9.9 4 1.6l2.95.85q1.25 3.15 2.95 5.6 4.95 7.2 13.5 8.4 9.2.7 15.25-5.75 2.45-2.7 3.3-5.35.55-1.85.35-3.7l2.1-.45q1.5 6.35 5.9 15.8-35.15 10.55-56.45 1.2m48.25-156.75v-1.25l2.7-.4q-5.2 15.65-6.9 42.95 2.5 22.15 9.4 45.5l-3.2 3.8q-9.25-33.5-7.25-61.8 1-15.15 5.25-28.8m-21.7 1.15 4.65-.25q-5.95 12.6-9.35 40.5.4-20.8 4.7-40.25m31.05 136.85q.45.95 1.05 1.7 3.25 4.4 10.65 2.55 4.2-1.8 5.35-7.3l.35-2.55 2.05-.8q5.4-2.65 9.95-6.85l3.05 9.15q-10.75 13.8-29.4 23.05-4.15-8.5-7.6-17.8l4.55-1.15m65.7-3.5-2 5.75 1.1 1.5-1.1-1.5 2-5.75M290 374.9l-7-1.75 7 1.75M87.5 212.65l2.15-20.3-2.15 20.3m210.95 193.9q-1.3 1.65-3.2 3.15-14.85-11.6-27.1-26.4l30.3 23.25m13.65 12.35 10.7 3.95-10.7-3.95m-39.85 61-7.85.9 7.85-.9m26.5 17.25 2.25 3.25-2.85 1 2.85-1-2.25-3.25m12 .25 4.25 2.75-4.25-2.75M66.7 468.5l-2.9 1.15-4.05-9.25q2.65 4.35 6.95 5.5v2.6m4.3 24.9 3.8 3.15-4.55 2.6H62.8l-3.3 6.75-2.75-3.5q2.3-6.4 6.75-9.25 2.4 2.65 5.75 2.5L71 493.4m-9.4 18.8q.25 1.75-1.3 4.05l-4.05-.35 5.35-3.7m298.9 22.2h-2.25l-1.25-1.1 1.25 1.1h2.25m-12.25-1.25-2.35 2.75 2.35-2.75m5 16.75.7-1.85-.7 1.85m-26.75-40.5-3.5-1.5 3.5 1.5" transform="translate(1.5 1.5)"/><path fill-rule="evenodd" fill="#96ad1c" d="M309.2 177.65q.55 1.2.55 2.6 0 2.55-1.8 4.35-1.8 1.8-4.35 1.8t-4.35-1.8q-1.05-1.05-1.45-2.35-.35-.95-.35-2 0-2.55 1.8-4.35 1.8-1.8 4.35-1.8t4.35 1.8q.8.8 1.25 1.75" transform="translate(1.5 1.5)"/><path fill-rule="evenodd" fill="#8e5c13" d="M136.9 147.95q-4.35-8-6.4-16.05 3.75-.5 7.3-2.25 5.3 10.35 12.85 18.95l-10.2 5.25-1.45-2.3-2.1-3.6m68.4 52.15q-10.1-.1-19.15-3l-2.1-.75 9.85-19q5.85 2.2 12.2 4.05l7.9 2.05-8.7 16.65" transform="translate(1.5 1.5)"/><path fill-rule="evenodd" fill="#5b320b" d="M137.8 129.65q3.3-1.65 6.4-4.35 8.85 8.5 19.55 16.55-6.55 3.4-13.1 6.75-7.55-8.6-12.85-18.95m32 35.55 2.2-4.55q-.25 2.35-1.1 5.25-2.1 7.05-7.9 17.5 4.75 4.3 9.85 7.5 2.4 1.45 4.9 2.7l-3.05 6.85-5.3-2.45q-12.35-6.05-20.9-15.25l5.15-11.65 4.35 7.55q7.1-4.95 11.8-13.45m24.1 12.15 6.35-12.25q9.6 5.25 20.2 10.3l1.55.75 3.8 1.7-.85 7.85-10.95-2.25-7.9-2.05q-6.35-1.85-12.2-4.05m-50.2-18.8 2.4 3.15-4.05 12.8-2.55-4.05 4.2-11.9" transform="translate(1.5 1.5)"/><path fill-rule="evenodd" fill="#c76d16" d="M223.55 198q-5.1 1.15-9.95 1.65l-3.25.3-5.05.15 8.7-16.65 10.95 2.25-1.4 12.3m-21.1 9.8 4.65.7-4 10.45-3.85.45v2.5l-2.75-3-1.65-.8 7.6-10.3" transform="translate(1.5 1.5)"/><path fill-rule="evenodd" fill="#ecba46" d="m229.05 179.15-2.05 18-3.45.85 1.4-12.3.85-7.85 3.25 1.3m-15.45 20.5-1.9 5.4-1.35 3.95-.25.75-3.1 8.75-3.9.45 4-10.45 3.25-8.55 3.25-.3" transform="translate(1.5 1.5)"/><path fill-rule="evenodd" fill="#64250b" d="M170.9 165.9q.85-2.9 1.1-5.25l-2.2 4.55q-10.95-7.25-19.15-16.6 6.55-3.35 13.1-6.75 16.15 12.15 36.5 23.25l-6.35 12.25q-12.7-4.8-23-11.45" transform="translate(1.5 1.5)"/><path fill-rule="evenodd" fill="#ead06a" d="m235.1 224.45.5 1.45q-4.35 3.75-10.7 5.1l-2.7.4v1.25l-17.05.9-4.65.25q-8.65-1.4-16.5-4.05-5.3 14-12.7 58.9l-.25-.05.55-4.35.05-.25-.05.25-.55 4.35q-1.1-34.6 1.6-52l-1.1-2.35-8.7-4.5-1.05-.65.7-1.4q3.85 2.35 8.15 4.5 1.5.7 5.75-4.7l3.95-10.35.65 1.25-3 7q-4.05 11.05-4.3 13.55-2.5 24.3-2.05 45.05l.7-5.35.15-1.25q3.6-25.5 9.75-48.25l1-15.5 1.35-.5-1 15.3q8.45 3.25 17.2 3.95 4.85.35 9.7.25 8.95-2.2 11.7-5.95v3.65l2.9-.7q6.1-1.8 10-5.2m-88.35-9.05 3.25 3.1-.9.85-5.3-4.85 2.95.9m85.5 3.25h-3.5l.7-1.7q.45-1.55.25-2.7l2.55 4.4m-10.05 11.7v1.05-1.05" transform="translate(1.5 1.5)"/><path fill-rule="evenodd" fill="#ffc166" d="m237 219.8-.75 1.1-6.4-2.25h2.4l4.75 1.15m99.75 208.6 1.4 2.2-4.85 7.35-2.05 2.45.1-3 5.4-9" transform="translate(1.5 1.5)"/><path fill-rule="evenodd" fill="#473305" d="m236.25 220.9-2 2.85-4-3.1-2.6.75 1.1-2.75h1.1l6.4 2.25m-39.75-2 2.75 3v4.5q-2.35 2.05-2.75-7.5" transform="translate(1.5 1.5)"/><path fill-rule="evenodd" fill="#a26100" d="M222.55 202.55q0-.45.7-.8 5.2 5.65 6.45 12.5.2 1.15-.25 2.7-2.15-9.65-6.9-14.4M302 455.25l-2.5 1.4q-22.3-11.65-38.9-29.3 17.1 15.15 41.4 27.9m-191-312.1 5.5-5.75-2 5.75H111m13.25 12.5-.15-.9q7.15-2 12.65.1l-.85 1.3q-4.65-1.45-11.65-.5m-8.2 41.1q1.15-.35 2.85-2.05 1.9 8.25 7.35 14.95l-.25 1.75-.55-.65-9.4-14m26.3 14.25 1.4-2.6 3 7-2.95-.9-2.9-.9 1.45-2.6m-8.6 9.35.75-1.85 4.7 4.15-.35 1.7-2.55-2-2.55-2m33.6 228.15 17.2 30.9-2.55-1.25-6.05-11.6q-4.55-9-8.6-18.05m12.4-33.65-.55-2.15q19.4 42.5 44.55 76.7h-2.25q-26.05-35.25-41.75-74.55m-47.5 47.85q-8.05-18.95-11.6-43.5 4.95 21.85 13.1 42.45l-1.5 1.05m82.1-252.5 1.9-1.7 5.55 3.95-.6 2.15q-2.55-3.65-6.85-4.4m-4.25-.45.25-.75 3.6 2.25-.2.55-3.65-2.05m70.2 203.1-1.05-1.3q24.15 17.65 52.1 25.85l-.1 3q-31.05-9.4-50.95-27.55m-166.75 52.8q-.95-5-1.1-10.35l6.15 13.5q-3.5 2.4-3.85 2.2-.75-2.65-1.2-5.35" transform="translate(1.5 1.5)"/><path fill-rule="evenodd" fill="#372704" d="M126.45 162.55q-1.55-3.65-2.2-6.9 7-.95 11.65.5l-7.35 10.9-2.1-4.5m-5.8 256.65-.05-.25q-2.8-12.2-4.6-24.8 8.9 34.1 22.15 65-2.7-1.65-4.4 2.5-8.15-20.6-13.1-42.45m-25.9-55.55q9.35 50.05 24 96l3.25.45 1.5 5.3-4.9 3.4-6.15-13.5q-10.95-38.05-17.7-91.65m119-151.85.2-.55.4-1.05q4.3.75 6.85 4.4-.85 2.45-2.2 4.4l-.75-1.85-6.8.8 2.3-6.15m-30.5 1.85-1 15.5q-6.15 22.75-9.75 48.25 2.65-31.1 6.4-43.5l.2-.6.15-.55 4-19.1M203 324.4q-1.35-20.25 2.5-53.95-2.1 23.8.5 55.6l-1.8.15-1.2-1.8m48 156.5-6-.5-10.5-16.75L251 480.9m-43.65.4-1.85.85-2-5 3.85 4.15m-49.1-16.65-2.5-7 4.65 5.2-2.15 1.8" transform="translate(1.5 1.5)"/><path fill-rule="evenodd" fill="#4f3806" d="M222.4 209q.3-2.95.15-6.45 4.75 4.75 6.9 14.4l-.7 1.7-1.1 2.75-6.85 2-1.8-4.4q1.35-1.95 2.2-4.4l.6-2.15.6-3.45m-49.9 68.4-.15 1.25-.7 5.35q-.45-20.75 2.05-45.05.25-2.5 4.3-13.55l3-7-1.85 14.35-.05.55-.2.6q-3.75 12.4-6.4 43.5" transform="translate(1.5 1.5)"/><path fill-rule="evenodd" fill="#64360b" d="m153.65 171.1-5.15 11.65q-3.55-3.85-6.45-8.25l4.05-12.8 2.4 2.95 6.5-2q3.85 0-2.5 6.5l1.15 1.95m21.05 29.35 3.05-6.85q3.05 1.55 6.3 2.75l2.1.75q9.05 2.9 19.15 3l5.05-.15-3.25 8.55-4.65-.7-4.4-.65q-12.85-2.4-23.35-6.7" transform="translate(1.5 1.5)"/><path fill-rule="evenodd" fill="#7b430d" d="M279.2 324.25q-2.1 7.45-4.9 13.7-6.75 4.1-13.6 7.35 1.95-5 3.55-10.95 10.75-5.2 14.95-10.1m-130.7-141.5q8.55 9.2 20.9 15.25l-5.45 11.1-12.2-4.95-8 4.25-1.4 2.6-4.4-4.35 10.55-23.9m-9-12.3 2.55 4.05-4.45 13.95-2.65-5 4.55-13m29.8 42.25 5.4-12.25q10.5 4.3 23.35 6.7l4.4.65-7.6 10.3-10.25-4.95-1.35.5-4 19.1h-.1L181 218.4l-.65-1.25-5.15-1.6-5.9-2.85m-77.1 72.2h2.05l11.5 1.2q-3.15 12.4-8.65 17.7l-3.8 1.7.1 3.65q-3.8 2.7-7.9 4.4 4.4-10.05 6.7-28.65m-1.95 21.75 3.05-1.15-3.05 1.15m-72.55-36.6q4.05 1.8 9.35 3.3 1.9 5.65 4.15 10.8l-10.3-4.75q-1.65-4.4-3.2-9.35m23.3 6.4 18.75 2.45 5.75.5q4.1 2.5 10.45 3.9 3.7 18.55 2.6 32.4l-5.8.7h-2.1q6.45-4.35-6.4-13.85-6.15-4.5-16.65-10.15-3.95-8-6.6-15.95m18.75 2.45q1.5 13.95 4.5 23.65-3-9.7-4.5-23.65m103.35 62.9 4.95 1.45 11.3 2.3q1.9 6.9 5.25 13.65-11.6 3.5-.5 13.6-2.1-.7-4-1.6-15.5-17.05-17-29.4m43.45 5.75 12.7-.7 6.6-.8q7.65-1.05 15.4-2.8l4.55-1.5q.2 4.75-1.25 10.05-9.45 3.1-19.1 4.75l-8.65 1.2-8.75-.35q-.5-4.65-1.5-9.85m19.3-1.5q.3 5.4-.4 10.5.7-5.1.4-10.5m91.05 57.7q2.3-2.35 4.1-5.1l.25-.35 1.4-2.4q1.15 1.8 1.8 4.15-2.5 3.85-5.85 7.25l-1.7-3.55" transform="translate(1.5 1.5)"/><path fill-rule="evenodd" fill="#271c03" d="m207 218.5 3.1-8.75 3.65 2.05-2.3 6.15-4.45.55" transform="translate(1.5 1.5)"/><path fill-rule="evenodd" fill="#651f01" d="M245.4 252.2q-.85 1.35-2.5 2.7-2 1.6-5.3 3.15h-.05l-6.65 2.6-7.5 2.2q.35-3.8 1.1-7.45l1.1-2.85q-.45 4.3 6.55 5.25 6.6-.1 13.25-5.6m24.05 52.55q-.3 3.9 4 6-8.2.75-4-6m12.35 14.65q-.5 2.4-2.6 4.85-4.2 4.9-14.95 10.1-7.6 3.6-18.45 7.4l-4.55 1.5q-7.75 1.75-15.4 2.8l-6.6.8-12.7.7q-13.8.2-27.2-2l-11.3-2.3-4.95-1.45-1.35-.4q-6.1-3.3-9.35-6.15-6.35-5.55-2.15-9.35l7.05.6 5.35.45q-10.05 8.8 42 17.6 50.85-1.85 77.15-25.15m44.1 65.25.1 1-.6 3.4q-.85 3.25-2.75 6.85l-1.4 2.4-.25.35q-1.8 2.75-4.1 5.1-2.75 2.8-6.15 5.1-3.85 2.5-8.5 4.4-3.4 1.35-7.25 2.4-2.3.45 2.8-4l-2.55-1.95q1.9-1.5 3.2-3.15 1.4-1.7 2.1-3.55 2.3 4.55 15.95-2.2 5.8-4.05 9.4-16.15M301 408.9l-3.2 2.75 3.2-2.75" transform="translate(1.5 1.5)"/><path fill-rule="evenodd" fill="#452507" d="M169.9 364.25q-11.2-8.35-17.5-29 3.25 2.85 9.35 6.15l1.35.4q1.5 12.35 17 29.4-5.85-2.6-10.2-6.95m-51.4-77.7-2.6 3.1q-7.85 8.8-18.8 14.15 5.5-5.3 8.65-17.7l12.75.45m-87.3-2.4q-2.25-5.15-4.15-10.8 6.1 1.75 13.95 3.1 2.65 7.95 6.6 15.95-7.2-3.85-16.4-8.25m192.2-21.3 7.5-2.2q-.75 3.3-1.95 6.2l-5.85 2.5q0-3.3.3-6.5m93.5 140.9 1.7 3.55q-3.2 3.15-7.1 5.85-.85-2-.75-4.3 3.4-2.3 6.15-5.1m-21.9 11.9q3.85-1.05 7.25-2.4 1.15 2.15 2.95 3.65l-4.1 1.95q-3.3-1-6.1-3.2" transform="translate(1.5 1.5)"/><path fill-rule="evenodd" fill="#9c5105" d="M230.25 240.25q13.8 2.4 15.75 8.4.35 1.8-.6 3.55-6.65 5.5-13.25 5.6-7-.95-6.55-5.25l4.65-12.3m-2.95 57.25h4.05l-.2.75q0 1.4 2.6 2.4t6.3 1q3.7 0 6.3-1 1.95-.75 2.45-1.7l3.95 1.05q-.25.35-.25.75 0 1 1.65 1.7 1.7.7 4.1.7 2.4 0 4.05-.7l.75-.35q3.5 1.15 6.4 2.65-4.2 6.75 4 6l3.9-.65q2.15 2 3.65 4.3 1.3 2.45.8 5-26.3 23.3-77.15 25.15-52.05-8.8-42-17.6l5.4.45q16.35 1.5 34.95-3l1.2 1.8q-3.1.4-5.65 1.25-4.55 1.55-4.55 3.7 0 2.15 4.55 3.7 4.55 1.55 10.95 1.55 6.4 0 10.95-1.55 4.55-1.55 4.55-3.7 0-2.15-4.55-3.7l-2.05-.6 6.6-.7-.8-2.9 3.2-3.8 5.35-6.3q-3.3-8.05-5.45-15.65m65.5 94.7q31.3-14.5 33.1-7.55-3.6 12.1-9.4 16.15-13.65 6.75-15.95 2.2.8-2.1.8-4.35l-8.55-6.45m-58.15-146.5q-1.4.65-1.4 1.55t1.4 1.5q1.4.65 3.35.65l3.35-.65q1.4-.6 1.4-1.5t-1.4-1.55l-3.35-.6q-1.95 0-3.35.6m2.8 6.7q-1.05-.5-2.55-.5-1.5 0-2.6.5-1.05.55-1.05 1.25t1.05 1.2q1.1.55 2.6.55t2.55-.55q1.1-.5 1.1-1.2t-1.1-1.25m20.85 73q-1.3.55-1.3 1.35t1.3 1.35l3.2.55q1.85 0 3.15-.55 1.35-.55 1.35-1.35t-1.35-1.35q-1.3-.55-3.15-.55-1.85 0-3.2.55m-6.05-13q-5.2 0-8.85 1.45-3.65 1.5-3.65 3.55t3.65 3.5q3.65 1.5 8.85 1.5 5.2 0 8.85-1.5 3.65-1.45 3.65-3.5t-3.65-3.55q-3.65-1.45-8.85-1.45m-5.25-6.25-3.35.45q-1.4.45-1.4 1.05 0 .6 1.4 1.05l3.35.45 3.35-.45q1.4-.45 1.4-1.05 0-.6-1.4-1.05l-3.35-.45m66.35 88q-.8.55-.8 1.35t.8 1.35q.9.55 2.2.55 1.25 0 2.1-.55.9-.55.9-1.35t-.9-1.35q-.85-.55-2.1-.55-1.3 0-2.2.55m-3.15-6.95q-1.75 1.1-1.5 2 .25.85 2.3.95l4.7-.6q2.65-.7 4.35-1.8 1.75-1.1 1.5-1.95-.25-.9-2.3-1-2-.1-4.65.6-2.65.7-4.4 1.8m-8.95 10.2.1 1.25-.1-1.25" transform="translate(1.5 1.5)"/><path fill-rule="evenodd" fill="#966214" d="M231.85 272.2q-3.65 3.25-8.3 6.25l-.25-2.85q3.55-3.85 5.65-8.75l7.1-3q-1.45 3.5-4.2 8.35M61.8 315.85l-4.35-.75q-3.5-.75-6.65-1.85-11.9-11.5-19.6-29.1 9.2 4.4 16.4 8.25 5.75 11.7 14.2 23.45M35.25 303.4q-11.95-7.2-23.4-28.05 4.7 2.05 9.05 4.05 6.3 16.5 14.35 24m159.25 71.55q-5.95-7.8-9.9-15.75 7.25-2.2 23.45-1.8 1.1 10.15-.2 17.6-7.15.55-13.35-.05m45.5-6.85-4.2 1.3q6.4-9.45 8.75-17.6 8.15-2.7 16.15-6.5-5.45 13.65-13.9 20.5l-2.35.85-4.45 1.45" transform="translate(1.5 1.5)"/><path fill-rule="evenodd" fill="#987012" d="M325.15 411.65v.05q-1.85 2.35-4.5 3.85-.35-4.15-2.05-8.25 3.35-3.4 5.85-7.25 1.35 4.8.7 11.6M63.25 316l-1.45-.15q-8.45-11.75-14.2-23.45 10.5 5.65 16.65 10.15 2.6 8.6 6.4 13.85-3.8-5.25-6.4-13.85 12.85 9.5 6.4 13.85l-7.4-.4m-12.45-2.75q-9.2-3.25-15.55-9.85-8.05-7.5-14.35-24l10.3 4.75q7.7 17.6 19.6 29.1m172.3-43.9 5.85-2.5q-2.1 4.9-5.65 8.75-.25-3.2-.2-6.25m-36.05 104.3-2.95-.85q-11.1-10.1.5-13.6 3.95 7.95 9.9 15.75l-7.45-1.3m48.75-4.25-4.25 1.25-4.55 1.15-2.5.6-2.1.45-2.4.5q4.2-8 5.45-16.8 9.65-1.65 19.1-4.75-2.35 8.15-8.75 17.6m69.4 47.5q3.35-1.75 6.3-3.75 1.1 2.7 3.8 4.8l-3.2.95-2.25.45-4.2.25-4.55-.75 4.1-1.95q1.95 1.6 4.65 2.45-2.7-.85-4.65-2.45" transform="translate(1.5 1.5)"/><path fill-rule="evenodd" fill="#6c3a0b" d="M242.9 254.9q-1 3.75-2.95 7.3l-3.9 1.65-7.1 3q1.2-2.9 1.95-6.2l6.65-2.6h.05q3.3-1.55 5.3-3.15m82.5 134.15 1.85 6-2.8 5q-.65-2.35-1.8-4.15 1.9-3.6 2.75-6.85M11.85 275.35q-3.45-6.25-6.8-13.75 1.95 2.15 5.2 4.05 2.95 2.35 7.45 4.4 1.55 4.95 3.2 9.35-4.35-2-9.05-4.05m80.35 9.55q-2.3 18.6-6.7 28.65-3.4 1.4-6.95 2.15 1.1-13.85-2.6-32.4 6.8 1.45 16.25 1.6m87.15 60.65q13.4 2.2 27.2 2 1 5.2 1.5 9.85-16.2-.4-23.45 1.8-3.35-6.75-5.25-13.65m66.45-3.8q10.85-3.8 18.45-7.4-1.6 5.95-3.55 10.95-8 3.8-16.15 6.5 1.45-5.3 1.25-10.05m-8.2-83.7q-.05 2.15-1.55 5.8 1.5-3.65 1.55-5.8m73.15 150.8q-.1 2.3.75 4.3-2.95 2-6.3 3.75-1.8-1.5-2.95-3.65 4.65-1.9 8.5-4.4" transform="translate(1.5 1.5)"/><path fill-rule="evenodd" fill="#9f8313" d="M239.95 262.2q-2.95 5.25-8.1 10 2.75-4.85 4.2-8.35l3.9-1.65m34.35 75.75q-5.4 12.1-13.35 19.45-4.55 4.2-9.95 6.85l-2.05.8-2.15.75q8.45-6.85 13.9-20.5 6.85-3.25 13.6-7.35m52.95 57.1q2.45 10.6-2.1 16.6.65-6.8-.7-11.6l2.8-5M210.1 374.8l-2.25.2q1.3-7.45.2-17.6l8.75.35 8.65-1.2q-1.25 8.8-5.45 16.8l-5.1.85-4.55.6h-.25m101.4 38.35q3.9-2.7 7.1-5.85 1.7 4.1 2.05 8.25l-1.9 1-3.45 1.4q-2.7-2.1-3.8-4.8" transform="translate(1.5 1.5)"/><path fill-rule="evenodd" fill="#ffa31a" d="M116.5 137.4h1.25q-2.95 10.45-.95 24.4l-1.05-.1q-2.05-9.25-1.25-18.55l2-5.75m32.6 81.95.9-.85 4.1 3.4-.95 1.15-4.05-3.7m-22.85-9.7h.05q3.35 4.15 7.55 8.2l.65.65-.75 1.85-7.75-8.95.25-1.75" transform="translate(1.5 1.5)"/><path fill-rule="evenodd" fill="#442609" d="M132.05 176.45v-3.55q-1.65-2.35-3.5-5.85l7.35-10.9.85-1.3 2.25-3.3 1.45 2.3 3.25 4.7-4.2 11.9-4.55 13 2.65 5 2.4 4.5-4.55 10.25-1.85-2.15q-1.75-2.25-3.15-4.65l-1.8-3.05q-.7-1.15-2.05-1.6l-2.1.9 7.55-16.2m2.9 7-4.5 12.95 4.5-12.95" transform="translate(1.5 1.5)"/><path fill-rule="evenodd" fill="#8e4413" d="M169.8 165.2q-4.7 8.5-11.8 13.45l-4.35-7.55-1.15-1.95q6.35-6.5 2.5-6.5l-6.5 2-2.4-2.95-2.4-3.15-3.25-4.7 10.2-5.25q8.2 9.35 19.15 16.6m7.95 28.4q-2.5-1.25-4.9-2.7-5.1-3.2-9.85-7.5 5.8-10.45 7.9-17.5 10.3 6.65 23 11.45l-9.85 19q-3.25-1.2-6.3-2.75" transform="translate(1.5 1.5)"/><path fill-rule="evenodd" fill="#a48717" d="m115.75 161.7 1.05.1 3.2 12.5q1.5 3.35 3.8 3.1 6.85-1.5 8.25-4.5v3.55l-9.6 2.65q-2.75-.1-6.25 6.8l-1.75 3.6q-6.35 13.55-13.65 40.35l-.1.3-3.35 8.55q5.5-25.7 16.35-49.5l.5-1.15q5.15-10.6 4.4-14.5-1.7-6.5-2.85-11.8v-.05" transform="translate(1.5 1.5)"/><path fill-rule="evenodd" fill="#624f0e" d="M100.8 229.85q7.3-26.8 13.65-40.35l1.75-3.6q3.5-6.9 6.25-6.8l9.6-2.65-7.55 16.2-5.6 2.05q-1.7 1.7-2.85 2.05-6.85 12.2-15.25 33.1" transform="translate(1.5 1.5)"/><path fill-rule="evenodd" fill="#925110" d="m169.4 198 5.3 2.45-5.4 12.25-5.35-3.6 5.45-11.1m-31.8-9.55 4.45-13.95q2.9 4.4 6.45 8.25l-10.55 23.9q-.65-.75-.95-1.85l-1.55-1.6 4.55-10.25-2.4-4.5" transform="translate(1.5 1.5)"/><path fill-rule="evenodd" fill="#623c04" d="M5.05 261.6q-6.45-7.05 1.2-16.95Q28.3 232.6 54 229.55q14.4-4.1 28.1-4.6l-3.25 13.6q-8.9 1.2-7.1 11.6.85 1.9 2.4 3.95 1.8 2.35 4.65 4.7 5.3 14.9-51.75 14.55-5.3-1.5-9.35-3.3-4.5-2.05-7.45-4.4-3.25-1.9-5.2-4.05m32.9-5.15q-3.45 1.35-3.45 3.3 0 1.95 3.45 3.3 3.45 1.35 8.3 1.35 4.85 0 8.3-1.35 3.45-1.35 3.45-3.3 0-1.95-3.45-3.3-3.45-1.35-8.3-1.35-4.85 0-8.3 1.35M54.3 245.3q-1.55.7-1.55 1.7t1.55 1.7q1.55.7 3.7.7 2.15 0 3.7-.7 1.55-.7 1.55-1.7t-1.55-1.7q-1.55-.7-3.7-.7-2.15 0-3.7.7" transform="translate(1.5 1.5)"/><path fill-rule="evenodd" fill="#392302" d="M92.75 268.35 94 269.4q18.05 6.45 28.5 14.25 2.55 2.5-4 2.9l-12.75-.45-11.5-1.2H92.2q-9.45-.15-16.25-1.6-6.35-1.4-10.45-3.9l-5.75-.5L41 276.45q-7.85-1.35-13.95-3.1 57.05.35 51.75-14.55l4.45 3.25q2.8 1.8 6.25 3.6l3.25 2.7m-18.6-14.25q-1.55-2.05-2.4-3.95-1.8-10.4 7.1-11.6-2.15 8-4.7 15.55" transform="translate(1.5 1.5)"/><path fill-rule="evenodd" fill="#ddbe77" d="m154.1 221.9.75.6q3.55 2.7 7.65 5.2l-.7 1.4-8.55-5.95-.1-.1.95-1.15" transform="translate(1.5 1.5)"/><path fill-rule="evenodd" fill="#5c3701" d="m310.85 321.95-.1-.25.2-.1-.1.35m-157.6-98.8.65.6-.8-.7.15.1-.15-.1h.05l.1.1m17.8 65.55.25-.05-.7 4.05.45-4m8.2-55.95-.15.55.05-.55h.1M65.75 440.8l17.8 11.65-1.25 2.2-16.55-11.25v-2.6" transform="translate(1.5 1.5)"/><path fill-rule="evenodd" fill="#544308" d="m138.85 224.35-4.1 21.55q-6.05 61.5 7 124.1l2.25 10.15q8.45 34.95 23.35 68.35 4.05 9.05 8.6 18.05l-6.85-.8Q152 429.4 145.55 398.8l-.05-.3q-26.65-106.35-9.2-176.15l2.55 2m15.5 239.7-7.55-1.2q-18.2-51.7-19.6-97.5 7.6 51.15 27.15 98.7" transform="translate(1.5 1.5)"/><path fill-rule="evenodd" fill="#fda" d="m171.05 288.6.25.05-.25.05v-.1" transform="translate(1.5 1.5)"/><path fill-rule="evenodd" fill="#3e2d06" d="M23.25 562.95q-1 1.15-3.75 1.7-9.95 2-16.75 0-3.55-1.2-2.5-4.25l7.5-1.25L14 555.6l-.45-2.15q2-10 6.85-12.8h20.35q-.6-2.15-1.95-3.5-1-1-2.35-1.55-2.65-14.9-1-28.1l-6.25-10.35q1.2-2.1 2.05-4.55l1.75 5.8 3.1 4.65q1.3-7.1 3.9-13.7 15.05.25 15-13.2l2.35 1.45 5.45-2.25q9.85 6.35 23.6 2.4 16.65-4.2 15.95-25.75-8.65-12.9-16.1-12.5v-8.15 16.3l-1.45 2.6-2.75-2q-2.8-11.8 1.7-14.85l1.5-2.25 1 .2q6.4 1.5 12.75 9.3 6.4 9.6 7.55 16.05 2.8 7.9 7 8.95.45 2.7 1.2 5.35l-6.85-2.7-2.55 1.15 2.15-3.8-2.15 3.8-5.85 10.2q0 6.35-7.1 6.8l-5.15 2.45-11.3-3.6-1.2-.4-9 1.2 9-1.2 1.2.4 2.55 9.6q.85 6.3-2 8l-2.4-.5-2.35-.5-1.5-2.75 1.5 2.75 2.35.5-4.1 1.5h-2.5l-3.4 4.3q.1 1.6.95 3.15 3.75.95 5.65 2.25 1.5.95 1.8 2.15v.15l-3.5 2.5q-7.25 1.25-10.25 0l-2.5-2.5 4.05.35q1.55-2.3 1.3-4.05-.35-2.75-2.1-6.3l3.3-6.75h7.45l4.55-2.6-3.8-3.15q.2-3.65-5.25-7.3l-3.15.4q-.1-5.2-5.25-8.9 5.15 3.7 5.25 8.9l-.1 1.4q-3.1 5.35-7.05 5.6 1-1.4 1.8-3.35-.8 1.95-1.8 3.35-3.2 4.45-8.2 3.4-5.2 6.35-4.25 22.25l4.75 11.75q8.05 3.2 4.25 8.75-9.3 12.95-13.1 6.3l-5.4-.55-6.25-.5q-8-.15-9.25 5.5v5.75l5.75 4.5.1.55q.05.95-.6 1.75m33.3-93.35-5.3-9.2L40 448.9q8.05 4.1 8.8-1.95v-10.8l-2.4-13.2-8.15-9.3 2.85-5.15 1.4 2.9v1.85q7.8-2.85 9.5-10.3l13 8.15 1.9 10.5.35 2.05-.6 4.85q-6.9-1.1-11.15 15.4l2.5 13q.75 1.95 1.75 3.5l4.05 9.25-2.9 1.15-4.35-1.2m5.8-148.25.9-5.35 7.4.4h2.1l5.8-.7q3.55-.75 6.95-2.15 4.1-1.7 7.9-4.4l-.1-3.65 3.8-1.7q10.95-5.35 18.8-14.15-6.35 17.75-16.7 22.1Q98 385.35 125.5 461l-3.5-.9-3.25-.45q-14.65-45.95-24-96l-1.2-48.3q-9.25 6.5-24.3 6h-6.9m93.7-39.95q1.7 4.75 1.7 11.5t-1.7 11.5q-1.65 4.75-4.05 4.75t-1.95-5.1q.4-5.15-1.05-11.65-1.45-6.5-.4-11.1 1-4.65 3.4-4.65t4.05 4.75M93.4 309.15l.15 6.2-.15-6.2m17.1 158-2.6 1.15 2.6-1.15M89.25 486.4l3.15.05-3.15-.05M76.7 437.9l-3.85-2.1-.75-5.1q4.15-24.75 3.65-66.8L79 415.4l-2.3 22.5m-26.2-27.5q-2 3.8-5 4.75h-3v-1.9 1.9h3q3-.95 5-4.75m-.75 7q-1.65 4.6 4.75 4.75l5.25-2.5 7.15 1.95-7.15-1.95-5.25 2.5q-6.4-.15-4.75-4.75m14.75 87.5q-.55 1.7-.4 3.3-.15-1.6.4-3.3m2.5 9q-1.25-1.25-1.95-2.55.7 1.3 1.95 2.55m-23 30.75q.25-6.2-5.2-7.5 5.45 1.3 5.2 7.5m-3.25-.75q.05 1.65-1.85 2.05 1.9-.4 1.85-2.05M11 560.4q3.85-1.1 3-4.8.85 3.7-3 4.8m7-4.25v3.75q3.85 1.75-3 2.5 6.85-.75 3-2.5v-3.75" transform="translate(1.5 1.5)"/><path fill-rule="evenodd" fill="#e8d1b0" d="m187.05 373.65 7.45 1.3q6.2.6 13.35.05l2.25-.2q-.7.7-1.1 1.55-.6 1.35-.25 2.3l.65.75q-9.7 1.3-19.4-.15-1.7-2.45-2.95-5.6M240 368.1q0 .9.75 1.5.75.65 1.8.65t1.8-.65l.15.35q-5.95 2.85-11.9 2.4-.6-.75-1.05-1.7l4.25-1.25 4.2-1.3m4.35 1.5q.75-.6.75-1.5 0-.85-.65-1.45l2.35-.85 2.15-.75-.35 2.55q-2.05 1.35-4.05 2.35l-.2-.35m-29.45 4.6 5.1-.85 2.4-.5q.2 1.85-.35 3.7-4.65 1.45-9.3 2.35l-.05-.25q1.3-.95 1.9-2.3.6-1.25.3-2.15" transform="translate(1.5 1.5)"/><path fill-rule="evenodd" fill="#300" d="m209.4 379.4-.65-.75q-.35-.95.25-2.3.4-.85 1.1-1.55h.25l4.55-.6q.3.9-.3 2.15-.6 1.35-1.9 2.3l-.4.3q-1.05.65-2 .65l-.9-.2m34.95-9.8q-.75.65-1.8.65t-1.8-.65q-.75-.6-.75-1.5l4.45-1.45q.65.6.65 1.45 0 .9-.75 1.5" transform="translate(1.5 1.5)"/><path fill-rule="evenodd" fill="#fff" d="M190 379.25q9.7 1.45 19.4.15l.9.2q.95 0 2-.65l.4-.3.05.25q4.65-.9 9.3-2.35-.85 2.65-3.3 5.35-6.05 6.45-15.25 5.75-8.55-1.2-13.5-8.4m42.6-6.9q5.95.45 11.9-2.4l-.15-.35.2.35q2-1 4.05-2.35-1.15 5.5-5.35 7.3-7.4 1.85-10.65-2.55" transform="translate(1.5 1.5)"/><path fill-rule="evenodd" fill="#501c05" d="m331.25 440.4-13 4.5H310l4.5-3.5q-20.2-12.05-34.2-28.55 19.9 18.15 50.95 27.55m-31.75 16.25-29.5.5-3-1.35 2.25-2.15q-28.1-42.15-38.85-65.45-4.4-9.45-5.9-15.8l2.5-.6q3.45 9.3 7.6 17.8 10.55 21.4 26 37.75 16.6 17.65 38.9 29.3m-104.2 19.1 4.45-.85-20-60.05q15.7 39.3 41.75 74.55l-12.25-6-1.9-2.1-3.85-4.15 2 5-7.75-2.75-2.45-3.65" transform="translate(1.5 1.5)"/><path fill-rule="evenodd" fill-opacity=".259" d="M83.1 556.2h-.05l-.05-.55.1.55" transform="translate(1.5 1.5)"/><path fill-rule="evenodd" fill="url(#c)" d="M144.2 125.3q-24.1-23.15-34.7-49.65 38.35-12.7 33-16-13.2-7.05-36.5 1-2.95-27.55 10.5-41.5 8-14.5 53.65-13.9-.15.55.9 2.45 1.05 1.85 8.5 4.25 7.4 2.4 14.65 3.05 7.25.65 13.75-2.05 6.55-2.7 6.55-6.55v-.45q9.1-.8 17.6.4-22.95.6-19.3 8.6 5.5 14.3-14 38-6.45 9.65-10.35 18.95-4.2-4.95-9.85-7.45-8.3-3.7-14.85.1-6.55 3.75-7.5 12.8-.95 9 4.2 17.95 5.2 8.95 13.5 12.65 5 2.2 9.35 1.7 4.65 27.2 34.95 50.9-4.25 2.4-4.25 5.6 0 1 3.95 6.1l2.5 3.15q-10.6-5.05-20.2-10.3-20.35-11.1-36.5-23.25-10.7-8.05-19.55-16.55M167.4 28q-1.4 1.45-1.4 3.5t1.4 3.45q1.45 1.45 3.5 1.45t3.45-1.45q1.45-1.4 1.45-3.45 0-2.05-1.45-3.5-1.4-1.4-3.45-1.4-2.05 0-3.5 1.4m-36.65 6.65q-3.2 0-5.5 1.1-2.25 1.1-2.25 2.65 0 1.55 2.25 2.65 2.3 1.1 5.5 1.1t5.45-1.1q2.3-1.1 2.3-2.65 0-1.55-2.3-2.65-2.25-1.1-5.45-1.1" transform="translate(1.5 1.5)"/><path fill-rule="evenodd" fill="url(#d)" d="M232.1 6.35h.1l.3.05-.1.15 2 1.6q.8.8 6.8 5.2 6.05 4.65 8 7.6 11.65 17.35 20 41.2 6.45 18.3 14.3 31.45 4.3 7.2 12.25 17.3 6.45 8.15 8.6 13.15l.15.3-2.75-.2-3.9.2q-1.7.5-1.35 2.8 2.5 1.5 5.75 1.5l2.5-.5 1-.25q1.85 6.4 1.85 15.05 0 1.9-2.1 11.5l-.95 4.2q-3.15-2-7.55-2-6.15.4-8.5 2 .6 1.25 3.45 4.05 2.55 2.5 2.55 3.2 0 1.25-.5 1.75l-1.5 2.05q-1.5 1.45-3.5 1.45-4.95 0-7.6-3.05-1.8-2-3.3-6.7-1.65-5.2-2.65-6.7-1.95-3.05-5.7-3.05-3.7 0-6.75 1-3.5 1.15-3.5 3 0 .95 2.75 5.05l2.75 3.95q0 1.5-1.5 2.5-2.2 1.5-7.5 1.5l-4.8-.5q-5.65-1.1-12.15-4.75l-1.85-1q-7.95-4.25-11.7-4.25-2.55 0-6.5 2l-.75.4q-30.3-23.7-34.95-50.9 2.85-.3 5.45-1.8 6.55-3.8 7.55-12.8.95-9.05-4.25-18-1.65-2.85-3.6-5.15 3.9-9.3 10.35-18.95 19.5-23.7 14-38-3.65-8 19.3-8.6m-8.45 109.05q1.95 0 3.3-1.35 1.35-1.35 1.35-3.3 0-1.95-1.35-3.3-1.35-1.35-3.3-1.35-1.95 0-3.3 1.35-1.35 1.35-1.35 3.3 0 1.95 1.35 3.3 1.35 1.35 3.3 1.35M209 83.65q-2.9 0-4.95 2.05-2.05 2.05-2.05 4.95 0 2.9 2.05 4.95 2.05 2.05 4.95 2.05 2.9 0 4.95-2.05 2.05-2.05 2.05-4.95 0-2.9-2.05-4.95-2.05-2.05-4.95-2.05m31 68.5q0 2.3 3.05 4.15 2.25 1.35 4.95 1.85.5.25.5-1t-1.2-1.95l-3.3-1.55q-.8-.45-1.75-1.8-.75-1.05-1.75-1.2l-.45.45-.05 1.05m49.95-40.75q0-3.85-6-6.55-6-2.7-14.5-2.7t-14.5 2.7q-6 2.7-6 6.55 0 3.85 6 6.55 6 2.7 14.5 2.7t14.5-2.7q6-2.7 6-6.55m11 30.2q-3-1.45-7.25-1.45t-7.25 1.45q-3 1.5-3 3.55t3 3.5q3 1.5 7.25 1.5t7.25-1.5q3-1.45 3-3.5t-3-3.55" transform="translate(1.5 1.5)"/><path fill-rule="evenodd" fill="url(#e)" d="M314.05 117.45q4.45 2.25 7.2 5.8 1.6 2.05 3.6 6.05 1.95 3.85 3.15 5.35 1.75 2.1 7.9 4l8 2q2.7.6 6.3 4.7 3.3 3.8 5.45 3.8 2.35 0 4.25-2.5 1.85-2.5 4.75-2.5l6.35 1.5 7.65 1.5q3.05 0 6-2.4l5.4-5.35q7.75-7.75 18.1-7.75 2.35 0 6.75 2 5.5 2.5 5.5 5.5 0 2-6 6t-6 6.25q0 1.05 3.55 5.25 3.8 4.5 5.7 4.5 2.05 0 4.35-1.8l4.4-3.95q6.35-5.75 13.75-5.75 3.6 0 4.5.95.45.5.25 1.05-.85.85-5.3 3.15-3.2 1.65-3.2 3.6v1.95q.35 1.8 2.25 1.8.4 0 2.8-2.75t6.45-2.75q5.2 0 6.85 4.15.7 1.75 1.15 8.35 2.05 0 10-2.65 7.75-2.6 8.5-3.35v2.5q-.6 1-6.85 3.55-7.1 2.95-11.65 2.95h-3.8q-3.7-.35-3.7-2l1-2.3 1-1.95q0-.4-.95-1.25-1.1-1-2.05-1-4.55 0-5.85 4l-1.1 2.75q-.85 1.25-2.8 1.25-2.7 0-3.75-1.1-.6-.65-.95-2.4-.75-3.5-5.05-3.5l-4.9 4q-5.6 4-10.6 4-4.1 0-5.4-2.1-.55-.9-1.1-4.65-.45-3.2-2.15-4.65-2.45-2.1-8.6-2.1-.75 0-1.95 1.55l-3.1 3.45q-5.75 5-17.7 5h-2.5q-1.5-.3-1.5-1.75 0-2.2 2.35-3.95l7.65-5.3q-3.35-1.95-6.1-3.35-5.35-2.65-8.4-2.65-.1 0-9.25 4.5-4.85 0-7.4-2.1-1.45-1.2-3.2-4.65-1.75-3.35-3.5-4.65-2.8-2.1-8.05-2.1-2.85 0-5 1.5-2 1.4-2 3 0 .45 5.25 8.05 5.25 7.65 5.25 11.45 0 3.5-7.75 10.55-7.75 7-7.75 9.7 0 .65.25 1.2l.25 1.05h2.5l3.45-.7 3.3-.3 4.45.05q3.25.4 5.3 2.45-6.85 4.15-11.7 7.7-9.3 6.8-9.3 12.3 0 2.15 2.1 3.4 2.05 1.3 4.4.6-2.1 1.3-4.15.9-1.1-.25-3.35 3.1.9 0 3.7.75l5.05.75 9.25-.5q5.5-1.1 5.5-4.75l-.5-1.75q-.5-1.1-.5-1.75 0-4.2 3.7-5.95 2-.9 8.05-1.75 5.65-.75 7.9-2.1 3.5-2.05 3.25-6.95-.4-8.55 14-14.2 11.05-4.3 19.5-4.3l4.5.5v.5q-1.05 1.05-9.05 4.7-6.45 2.9-6.45 5.8 0 .65 2.75 3.25 2.75 2.55 2.75 3.25l-.5 2.75q-.5 2.15-.5 2.75 0 2.9 3.6 4.25l7.9 1.95q5.35 1.25 7.9 3.25 3.6 2.9 3.6 8.3 0 4.6-8.25 6.35-4.6 1-5.65 1.45-2.6 1.05-2.6 2.95 0 1.4 1 2.5 1.4 1.5 4.25 1.5l3.2-2q3-2 4.8-2l7.25.5v1.35l-1.5 1.65.5.95 2 2.05q3.9 3 10.75 3 3.6 0 5.25-1.5 2-1.8 2-6.25 0-2.8-2.75-7.9-2.75-5.05-2.75-5.35 0-.35.35-1.25.6-1.4 1.65-2.55 3.4-3.7 10.5-3.7 3.75 0 10.15 5 6.35 5 12.35 5 3.25 0 5.5-2 2-1.7 2-3.5l-.5-1.35q-.5-.75-.5-1.4 0-5.3 7.5-11.25 7.55-6 14.5-6 2.65 0 7.5 2.5 6.5 3.3 6.5 8 0 1.55-2.5 3.55-2.5 2-2.5 2.45 0 .7 1.25 2.95 1.65 2.95 2.5 5.45 3.3 9.5 1.25 24.6-1.1 8.2.8 12.6 1.4 3.25 4.95 5.05 1.95 1.05 5.6 2.75 2.65 1.85 2.65 5.6 0 2.95-2.4 5.5l-5.2 4.75q-7.45 7.15-6.9 19.75-1.2-1.75-8.65-2.75-7.7-1.1-8.85-2.25-1.55-1.55-1.1-4.6.7-4.9.6-6.4-.2-3.7-1.65-6.45-1.35-2.6-1.35-3.8l3.75-5.15q3.75-5.2 3.75-6.1 0-.9-9-3.5-10.4-3-19.25-3-4.6 0-7.3 2.9-1.55 1.65-3.6 6.35-2.05 4.55-3.9 6.35-2.9 2.9-7.95 2.9-8.3 0-15-2.5-8.5-3.2-8.5-9 0-1.5 2.25-4.5t2.25-4.5q0-3.35-3.5-7-3.35-3.5-6-3.5l-4.6 1q-4.55 1-7.4 1-9 0-15.45-4.5-6.05-4.2-6.05-9.25l.5-4 .5-4-.05-1.4-.45-.85q-1.35 0-2.8.95l-2.85 2.05q-4.55 3-11.6 3-1.8 0-3.8-2.25-1.95-2.25-2.45-2.25-1.6 0-4 1.4-3 2-5.1 3.1-8.3 4.5-20.3 4.5-6.9 0-8.85-3.3-1-4.1-2.15-5.7-1.65-2.35-7.5-2.95-5-.5-5-3.05 0-3.95 3.5-7.35 3.5-3.45 3.5-5.4 0-1.65-1.5-2.75-2.1-1.5-6.75-1.5l-3.15.3q-2.25.35-2.6.7l.75 1.6q.75 1.45.75 4.15 0 3.25-2 4.75-2.7 2-10 2-9.15 0-13.75-5.05l-3.6-5-4.15-5.45q-4.5-4.8-15.3-8l-.2-.05-6.4-2.1q-2.6-1.25-2.6-3.1l.05-1.1 9.15 1.85 9.35 1.05q15.15.95 30.9-2.4l6.35-1.55q.4 1.3 1.45 2.35 1.8 1.8 4.35 1.8t4.35-1.8q1.8-1.8 1.8-4.35 0-1.4-.55-2.6 4.5-3.3 7.5-7.9 3.4-5.25 4.85-12.1 1.9-8.75.65-20.25l-.75-5.25-2.5-5.35q-2.25-4.55-4.9-9.35m138.85 114.2q.9.5 2 .5 1.65 0 2.5-2l.5-1.75q0-1.95-3.25-2-3.25-.05-3.25 2.5 0 1.9 1.5 2.75m21.5 12.5q3.15 2.9 7.65 4.05l5.85 1.45q-1.85-3.1-3.1-4.1-1.9-1.55-5.4-1.9h-4q0 .5-1 .5m-81.75-27.5q.6 0 3.25-1.5v-2.5h-1.5l-8-1.5-1.5 1q-.25 1.95 3.2 3.4 2.7 1.1 4.55 1.1" transform="translate(1.5 1.5)"/><path fill-rule="evenodd" fill="url(#f)" d="M314.05 117.45q2.65 4.8 4.9 9.35l-7.3-4.65-8.15-5.25q0-1.1.9-2.5 5.55.95 9.65 3.05m8.15 19.95q1.25 11.5-.65 20.25l-5.15-5q-7.9-8.05-7.9-11.75 0-3.6 3.05-4.75 1.3-.5 3.95-.5 4.2 0 6.7 1.75m-5.5 32.35q-3 4.6-7.5 7.9-.45-.95-1.25-1.75-1.8-1.8-4.35-1.8t-4.35 1.8q-1.8 1.8-1.8 4.35 0 1.05.35 2l-6.35 1.55q-15.75 3.35-30.9 2.4l-9.35-1.05-9.15-1.85-4.85-1.35-8.15-2.8-3.25-1.3-3.8-1.7-1.55-.75-2.5-3.15q-3.95-5.1-3.95-6.1 0-3.2 4.25-5.6l.75-.4q3.95-2 6.5-2 3.75 0 11.7 4.25l1.85 1q6.5 3.65 12.15 4.75l4.8.5q5.3 0 7.5-1.5 1.5-1 1.5-2.5l-2.75-3.95q-2.75-4.1-2.75-5.05 0-1.85 3.5-3 3.05-1 6.75-1 3.75 0 5.7 3.05 1 1.5 2.65 6.7 1.5 4.7 3.3 6.7 2.65 3.05 7.6 3.05 2 0 3.5-1.45l1.5-2.05q.5-.5.5-1.75 0-.7-2.55-3.2-2.85-2.8-3.45-4.05 2.35-1.6 8.5-2 4.4 0 7.55 2l.2.1q2.05 1.4 4.6 4.65 2.75 3.55 4.1 4.65 1.45 1.15 3.25 1.7m-12.2-45.4 1.55.15 1.3.5 1.9 1.3q1.75 1.35 1.75 2.1l-.05.9q-.2.1-.45.35-.5-.05-1.5-1.05-1-.95-1.75-.95l-1.5.25-1 .25-2.5.5q-3.25 0-5.75-1.5-.35-2.3 1.35-2.8l3.9-.2 2.75.2m-64.5 27.8.05-1.05.45-.45q1 .15 1.75 1.2.95 1.35 1.75 1.8l3.3 1.55q1.2.7 1.2 1.95t-.5 1q-2.7-.5-4.95-1.85-3.05-1.85-3.05-4.15" transform="translate(1.5 1.5)"/><path fill-rule="evenodd" fill="url(#g)" d="m235.6 225.9-5.35 14.35-4.65 12.3-1.1 2.85q-.75 3.65-1.1 7.45-.3 3.2-.3 6.5-.05 3.05.2 6.25l.25 2.85q.9 9.15 3.75 19.05 2.15 7.6 5.45 15.65l-5.35 6.3q-6.9-23.35-9.4-45.5 1.7-27.3 6.9-42.95 6.35-1.35 10.7-5.1m25.35 131.5 4.5 6.25q6.05 8.05 12.8 15.1 5.35 5.6 11.15 10.6l3.4 2.85 8.55 6.45q0 2.25-.8 4.35-.7 1.85-2.1 3.55l-30.3-23.25q12.25 14.8 27.1 26.4l2.55 1.95q-5.1 4.45-2.8 4 2.8 2.2 6.1 3.2l4.55.75q10.2 6.8 17.15 3.25l2.85 1.05 11.1 4.5-5.4 9q-27.95-8.2-52.1-25.85l1.05 1.3q14 16.5 34.2 28.55l-4.5 3.5-8 10.35q-24.3-12.75-41.4-27.9-15.45-16.35-26-37.75 18.65-9.25 29.4-23.05l-3.05-9.15m64.2 54.3 6.85 2.45-2.1 3.25-9.25-1.85q2.65-1.5 4.5-3.85M267 455.8l-2.35 2.2q2.35 1.15 4.35 3.15l3.75 5.75 15.5 9 9.25 11q7.3 3.75 16.35 4.55l6.9-5.05H332l8.25 7.75-6 13.25v14.5l6.5 1.5 1.75 2.75 6.75 1q11.3-.7 17.75-6.25 4.65-1.3 4 4.5-.55 8.15-6 10.5-6.2 5.6-6.9 13.3 6.2 4.55 10.65 3.95 5.5 4.75 0 5.5H352.4q-6.1-3.65 2-5.85l5.7-16.5 2.65-1.9h-2.25q-3.6-2.9 5.5-5.85l-19.6 2.4q-4.45 6.75-15.6 2.8-1.7-20.05 0-30H326q-7.8-.15-11.2-7.6l-16.8-2q-17.65-7.75-18-14.25h-7.75q-7.85-1.6-15.75-9.35-8.15-8.25 0-13.75 4.45-.5 8.15 1.2l-2.9-6.6-3.7-.55q-5.1-5.05-10.2-7.05-6-3.05-8.6-4.9 2.6 1.85 8.6 4.9 5.1 2 10.2 7.05l3.7.55 2.9 6.6q-3.7-1.7-8.15-1.2-3.5.35-7.5 2.1-13.85-18.05-26.7-44.3 5.95 14.9 13.4 28.6 9.25 17.15 20.8 32.45l-2.75 2.65-2.75 2.6-16.5-17.25L245 480.4l-13.75 3-7.5 6q-25.15-34.2-44.55-76.7-3.05-11.95-5.25-23.3 21.3 9.35 56.45-1.2 10.75 23.3 38.85 65.45L267 455.8M157.3 326.5l.7-5.1q3.85-16.3 6-46l-3-14.25.8-32.05 1.05.65 8.7 4.5 1.1 2.35q-2.7 17.4-1.6 52v.1l-.45 4 .7-4.05q7.4-44.9 12.7-58.9 7.85 2.65 16.5 4.05-4.3 19.45-4.7 40.25 3.4-27.9 9.35-40.5l17.05-.9q-4.25 13.65-5.25 28.8-2 28.3 7.25 61.8l.8 2.9-6.6.7q-3.9-.95-8.9-.95l-3.5.15q-2.6-31.8-.5-55.6-3.85 33.7-2.5 53.95-18.6 4.5-34.95 3 .75-17.9 2.55-34.7-1.8 16.8-2.55 34.7l-5.4-.45-5.35-.45m38.45-50.85.05-1.6-.05 1.6m10.25-10-.5 4.8.5-4.8m60 115 2.15 2.65-2.15-2.65m9.75 26.5 3.5 4.4-3.5-4.4m-26.5 43.75q3.8-.65 8.8-.05-5-.6-8.8.05m70 40.75-5.4-.2 5.4.2m-98.5-81 1.55 3.95-1.55-3.95m123.5 118.25-1.75-2.75 1.75 2.75M358 551.15l.1-1.95-.1 1.95" transform="translate(1.5 1.5)"/><path fill-rule="evenodd" fill="url(#h)" d="m211.7 205.05 5.9 2.85 2.8-1.25q1.15 1.1 2 2.35l-.6 3.45-5.55-3.95-1.9 1.7-.4 1.05-3.6-2.25 1.35-3.95m11.55-3.3 6 .9q10.25 8.4 7.75 17.15l-4.75-1.15-2.55-4.4q-1.25-6.85-6.45-12.5m11 22 .85.7q-3.9 3.4-10 5.2l-2.9.7v-3.65q-2.75 3.75-11.7 5.95-4.85.1-9.7-.25-8.75-.7-17.2-3.95l1-15.3 10.25 4.95 1.65.8q.4 9.55 2.75 7.5v-7l3.85-.45 3.9-.45 4.45-.55 6.8-.8.75 1.85 1.8 4.4 6.85-2 2.6-.75 4 3.1m-116.5-86.35 8.25 5.25q-1.35 2.3-1.85 4.95l12.75.35 2.1 3.6-2.25 3.3q-5.5-2.1-12.65-.1l.15.9q.65 3.25 2.2 6.9l-9.65-.75 9.65.75 2.1 4.5q1.85 3.5 3.5 5.85-1.4 3-8.25 4.5-2.3.25-3.8-3.1l-3.2-12.5q-2-13.95.95-24.4m6.4 10.2q-.7 3.3-.05 7.15-.65-3.85.05-7.15m-5.25 47.1 5.6-2.05 2.1-.9q1.35.45 2.05 1.6l1.8 3.05q1.4 2.4 3.15 4.65l1.85 2.15 1.55 1.6q.3 1.1.95 1.85l4.4 4.35-1.45 2.6-1.7 9.05-4.7-4.15-.65-.65q-4.2-4.05-7.55-8.2h-.05q-5.45-6.7-7.35-14.95m24.85 13.7 8-4.25 12.2 4.95-13.95 9.4 13.95-9.4 5.35 3.6 5.9 2.85 5.15 1.6-3.95 10.35q-4.25 5.4-5.75 4.7-4.3-2.15-8.15-4.5l12.7-12.15-12.7 12.15q-4.1-2.5-7.65-5.2l-.75-.6-4.1-3.4-3.25-3.1-3-7m19.5 7-8.4 7.1 8.4-7.1M137 204.8l-10.7 4.85 10.7-4.85m1 12.35-3.5 1.35 3.5-1.35m79.6-9.25-1.35.6 1.35-.6m4.6 18.8-1.4-3.3 1.4 3.3" transform="translate(1.5 1.5)"/><path fill-rule="evenodd" fill="url(#i)" d="m13.55 553.45-1.3-6.05q2.55-8.7 6-12.25 2.25-5.15 12 0-3.3-2.65 0-6.25-4.3-9.8-4.5-23v-4.25q2-1.95 3.45-4.5l6.25 10.35q-1.65 13.2 1 28.1 1.35.55 2.35 1.55 1.35 1.35 1.95 3.5H20.4q-4.85 2.8-6.85 12.8m17.7-60.85q-1.9-7.15-1-10.7 13.8-15.25 18.75-16.5l3.25 3 4.3 1.2 4.35 1.2 2.9-1.15 2.9-1.15 10.1-4.05 5.5-9.8 1.25-2.2 1.25-2.2 1.45-2.6v-8.15q7.45-.4 16.1 12.5.7 21.55-15.95 25.75-13.75 3.95-23.6-2.4l-5.45 2.25-2.35-1.45q.05 13.45-15 13.2-2.6 6.6-3.9 13.7L33 498.4l-1.75-5.8m84.5-330.85q1.15 5.3 2.85 11.8.75 3.9-4.4 14.5l-.5 1.15q-10.85 23.8-16.35 49.5l3.35-8.55.1-.3q8.4-20.9 15.25-33.1l9.4 14 .55.65 7.75 8.95 2.55 2q-17.45 69.8 9.2 176.15l.05.3q6.45 30.6 23.55 66.95l-6.85-.85-1.85-2.05-4.65-5.2 2.5 7-3.9-.6q-19.55-47.55-27.15-98.7 1.4 45.8 19.6 97.5l-7.55-1.2-1.1-2.5q-13.25-30.9-22.15-65 1.8 12.6 4.6 24.8l.05.25q3.55 24.55 11.6 43.5l-6.75-1.7Q98 385.35 99.2 311.75q10.35-4.35 16.7-22.1l2.6-3.1q6.55-.4 4-2.9-10.45-7.8-28.5-14.25l-1.25-1.05-3.25-2.7q-3.45-1.8-6.25-3.6l4-19.9q9.75-45.35 28.5-80.4m28.05 52.75 5.3 4.85 4.05 3.7h-.05l.8.7-.65-.6 8.55 5.95-.8 32.05 3 14.25q-2.15 29.7-6 46l-.7 5.1-7.05-.6q-4.2 3.8 2.15 9.35 6.3 20.65 17.5 29 1.5 12.2 4.05 25.15 2.2 11.35 5.25 23.3l.55 2.15 20 60.05-4.45.85-10.75 3.65-17.2-30.9q-14.9-33.4-23.35-68.35L141.75 370q-13.05-62.6-7-124.1l4.1-21.55.35-1.7 1.7-9.05 2.9.9m-27.55 58.4q1.55-35.85 9.2-62.15-7.65 26.3-9.2 62.15m52.25 141-18.75-66.25q-3.85-12.45-2.25-26.5-.45-16.9-4.25-33.5.25-12.4 7.25-26.25l2.6-38.35-2.6 38.35q-7 13.85-7.25 26.25 3.8 16.6 4.25 33.5-1.6 14.05 2.25 26.5l18.75 66.25m-34.75-193.55-.25.5-3.75 19.05 3.75-19.05.25-.5m13.75 14.8 1.6-15.8-1.6 15.8M111.75 336.9q1.5 44.3 4.25 57.25-2.75-12.95-4.25-57.25m-14.4-98.2q-3.15 14.5-4.6 29.65 1.45-15.15 4.6-29.65m58.7 42.7q-1.65-4.75-4.05-4.75t-3.4 4.65q-1.05 4.6.4 11.1 1.45 6.5 1.05 11.65-.45 5.1 1.95 5.1t4.05-4.75q1.7-4.75 1.7-11.5t-1.7-11.5m-86.8 39.95q15.05.5 24.3-6l1.2 48.3q6.75 53.6 17.7 91.65.15 5.35 1.1 10.35-4.2-1.05-7-8.95-1.15-6.45-7.55-16.05-6.35-7.8-12.75-9.3l-1-.2-1.5 2.25q-4.5 3.05-1.7 14.85-3.2-3-5.55-8.6l.2-1.75 2.3-22.5-3.25-51.5q.5 42.05-3.65 66.8-11.4-78.4-2.85-109.35m12.5 141.3-4.95 1.8 4.95-1.8m-13.5 11.75q-.6-1.8-7.35-3.6 6.75 1.8 7.35 3.6M32 531.9l-1.75-3 1.75 3m-1.75 3.25q2.45 3.85 4.95 0l-1.2-.25 1.2.25 1.25.45-1.25-.45q-2.5 3.85-4.95 0" transform="translate(1.5 1.5)"/><path fill-rule="evenodd" fill-opacity=".373" d="m344.7 557.9-15.4 2.55q-19.1 3.4-28.8 7.1 2.45 2.65 13.9 3 0 .35.55.7l.95.3-4.5.5q-12.65 0-51.65-3.5-38.95-3.5-65.75-3.5-25.1 0-33.45.15L131 566.55h-12q4.75-2.25 15.65-4.95 9.9-2.45 12.35-2.45l.15-.25q.25-.25.85-.25l-.3-.3q-7.9-7.7-32.45-7.7l-27.05 1.5-11.2 1.5 2.85.7q2.55.7 3.15 1.3l.05.55-10.15.45-9.9.5 1.5 3.5v1l-41.25 1.3q.65-.8.6-1.75 13.65.05 20.15-.25l13-1.3v-1.5l-5-1-4-1q2.4-1.1 8.1-1.85l7.9-.65q1.55.05-1.1-1.05-2.75-1.1-3.4-.95v-.5l18.3-.55q8.55-.3 12.35-3.2l.85-.75-.95-1.35-.15-.8 3.6-.75 6.35-1.8q6.85-2.25 8.15-4.3-1.45-1-5.85-2.3-4.15-1.2-4.65-1.7.5-1.4 5.65-4.5 4.85-3 4.85-4 0-2.15-7.5-3.35l-15.75-1.15V520q3.3-.4 4.75-1.85l.05-.25q.15-.25.45-.25-5.9-2.65-13.7-2.35l-3.8.45q-.3-1.2-1.8-2.15l11.8-.95 14.5-1 31.5-.5 14.45.05q3.95.15 6.05.95l-9.85 1.6q-9.15 1.85-10.15 6.4 12.6 1.75 40.75 3.2l39.5 1.3q21.65 0 42.9-2.5l21.85-2.5-5.35-.1q-4.15-.4-6.15-2.4l22.75-.5q3.45 0 16.35 2.55 12.25 2.4 13.3 2.95-15.95 5.05-19.75 6.45-4.4 1.65-13.65 7.05l5.25 1.5q5.1 1.5 6.25 1.5-3.05 2.15-14.45 5.55-9.05 2.65-9.05 5.2 0 2.5 6.3 4.6 3.8 1.25 13.7 3.65l9.3 2 7.85 1q8.45 0 23.65-2.25l12.5-1.85q.5.75 1.9 1.35" transform="translate(1.5 1.5)"/><path stroke-width=".2" stroke-opacity=".4" stroke-linejoin="round" stroke-linecap="round" stroke="#000" fill="none" d="M315.55 118.95q2.65 4.8 4.9 9.35l2.5 5.35.75 5.25q1.25 11.5-.65 20.25-1.45 6.85-4.85 12.1-3 4.6-7.5 7.9.55 1.2.55 2.6 0 2.55-1.8 4.35-1.8 1.8-4.35 1.8t-4.35-1.8q-1.05-1.05-1.45-2.35l-6.35 1.55q-15.75 3.35-30.9 2.4l-9.35-1.05-9.15-1.85-4.85-1.35-8.15-2.8-2.05 18-3.45.85q-5.1 1.15-9.95 1.65l-1.9 5.4 5.9 2.85 2.8-1.25q1.15 1.1 2 2.35.3-2.95.15-6.45 0-.45.7-.8l6 .9q10.25 8.4 7.75 17.15l-.75 1.1-2 2.85.85.7.5 1.45-5.35 14.35q13.8 2.4 15.75 8.4.35 1.8-.6 3.55-.85 1.35-2.5 2.7-1 3.75-2.95 7.3-2.95 5.25-8.1 10-3.65 3.25-8.3 6.25.9 9.15 3.75 19.05h4.05q.5-.95 2.4-1.65 2.6-1 6.3-1 3.7 0 6.3 1 2.6 1 2.6 2.4l-.15.7 3.95 1.05q.4-.55 1.4-.95 1.7-.7 4.1-.7 2.4 0 4.05.7 1.7.7 1.7 1.7 0 .75-.95 1.35 3.5 1.15 6.4 2.65-.3 3.9 4 6l3.9-.65q2.15 2 3.65 4.3 1.3 2.45.8 5-.5 2.4-2.6 4.85-2.1 7.45-4.9 13.7-5.4 12.1-13.35 19.45l4.5 6.25h6.3l3.7 3.1h11.8l14.5-13.35 14.5-18.25q3.4-4.45-3.25-7.25-3.4-.9-2.15-5.8v-.15l-.1-.25-1.75-4.7q.65-2.4 3.75-5.6l12.5-10.5 1.5 1.15 4.75-.05v2.2l10.5 1.45q21.2-3.6 41.75-12.75l2.75-3.25q7.15-3.75 5.5 4.25v9.75q1.55 11.85 12.25 13.75l8.5-1.25 2.4 3q9.95.55 14.35-4.5h3.75q-1.15 6.85 1.75 13.15l5.5-2.65q6.6-1.2 3.95 2.9v1.1l2.3 3.75q1.5 5.35 1.4 8.15-.2 3.65-3.15 3.1 1.5-2-1-3.75-2-2.75-5.75-3.75l-9.75 2q-4.35-1.6-1-5.75l4.55-3.2q-.5-2.05-3.05-3.8l-3.45-1.3-10.05 2.3h-17.75l-12.75-10.75-1.5-8.25-3.15-3.25h-3.6l-6.25 3-27.5 5.5q-11.45 3.6-12 9l1 1.75v4.5l-4.5 4.85v2.65l-1.25 6.25-5.75 1.25-18.5 19.25-5.65 11.75 1.15 1.5-2 10-6.1 3.45 3.4 2.85q31.3-14.5 33.1-7.55l.1 1-.6 3.4 1.85 6q2.45 10.6-2.1 16.6v.05l6.85 2.45-2.1 3.25-4.25 6.5 11.1 4.5 1.4 2.2-4.85 7.35-2.05 2.45-13 4.5h-8.25l-8 10.35-2.5 1.4-29.5.5-3-1.35-2.35 2.2q2.35 1.15 4.35 3.15l3.75 5.75 15.5 9 9.25 11q7.3 3.75 16.35 4.55l6.9-5.05h11.25l8.25 7.75-6 13.25v14.5l6.5 1.5 1.75 2.75 6.75 1q11.3-.7 17.75-6.25 4.65-1.3 4 4.5-.55 8.15-6 10.5-6.2 5.6-6.9 13.3 6.2 4.55 10.65 3.95 5.5 4.75 0 5.5h-21l-3.05-.75m-261.7-2.25.5.5-.4.05m-59.85 6.75q-1 1.15-3.75 1.7-9.95 2-16.75 0-3.55-1.2-2.5-4.25l7.5-1.25 6.25-3.55-.45-2.15-1.3-6.05q2.55-8.7 6-12.25 2.25-5.15 12 0-3.3-2.65 0-6.25-4.3-9.8-4.5-23v-4.25q2-1.95 3.45-4.5 1.2-2.1 2.05-4.55-1.9-7.15-1-10.7 13.8-15.25 18.75-16.5l3.25 3 4.3 1.2-5.3-9.2-11.25-11.5 2.5-6.75-2-21.75-2.25-6.75L42.6 410l-1.35-2.85 2.5-6q4.6-5.35 8.25-5l11.95 2.15L60 376.15q-.15-28.7 3.85-53.3l.9-5.35-1.45-.15-4.35-.75q-3.5-.75-6.65-1.85-9.2-3.25-15.55-9.85-11.95-7.2-23.4-28.05-3.45-6.25-6.8-13.75-6.45-7.05 1.2-16.95 22.05-12.05 47.75-15.1 14.4-4.1 28.1-4.6 5-23.85 6.4-51.8l3.25-1-2.1 20.2 21.35-49.2 5.5-5.75h1.25l8.25 5.25q-1.35 2.3-1.85 4.95l12.75.35q-4.35-8-6.4-16.05 3.75-.5 7.3-2.25 3.3-1.65 6.4-4.35-24.1-23.15-34.7-49.65 4.9-9.15-3.5-15-2.95-27.55 10.5-41.5 8-14.5 53.65-13.9-.05-2.5 9.55-4.2L198.25 2q7.55 1.15 11.9 2.65 4.3 1.5 5.85 2.8 9.1-.8 17.6.4h.1m.3.05q4.3.6 8.45 1.75 23.1 10.7 35 37 6.7 22.75 21.5 45.5 9.75 14.35 16.6 26.8m66.3 187.2h3.65m-60.25 6.25q-5.1 5.15-1 8.5l7.25 1 1 1.75m.5-17.95v2.2m-4.75-4.35 1.5 1.1m-.75 30.1v-2.6q-1.8-1.9-8.25 6.5m115.75-9.35q.85 1.85 4.25 1.35 3.1-1.45 5.2 0m-12.4.55q.35 1.65-.55 3.45m-5.95-8.55 1.95-.45m-12.35-5 2.35 3M216 7.45v.45q0 3.85-6.55 6.55-6.5 2.7-13.75 2.05-7.25-.65-14.65-3.05-7.45-2.4-8.5-4.25-1.05-1.9-.9-2.45M168.9 29.5q1.45-1.4 3.5-1.4t3.45 1.4q1.45 1.45 1.45 3.5t-1.45 3.45q-1.4 1.45-3.45 1.45-2.05 0-3.5-1.45-1.4-1.4-1.4-3.45 0-2.05 1.4-3.5m15.9 81.65q-4.35.5-9.35-1.7-8.3-3.7-13.5-12.65-5.15-8.95-4.2-17.95.95-9.05 7.5-12.8 6.55-3.8 14.85-.1 5.65 2.5 9.85 7.45 1.95 2.3 3.6 5.15 5.2 8.95 4.25 18-1 9-7.55 12.8-2.6 1.5-5.45 1.8m25.7-26q2.9 0 4.95 2.05 2.05 2.05 2.05 4.95 0 2.9-2.05 4.95-2.05 2.05-4.95 2.05-2.9 0-4.95-2.05-2.05-2.05-2.05-4.95 0-2.9 2.05-4.95 2.05-2.05 4.95-2.05m14.65 31.75q-1.95 0-3.3-1.35-1.35-1.35-1.35-3.3 0-1.95 1.35-3.3 1.35-1.35 3.3-1.35 1.95 0 3.3 1.35 1.35 1.35 1.35 3.3 0 1.95-1.35 3.3-1.35 1.35-3.3 1.35m-52.75 50.5q.85-2.9 1.1-5.25l-2.2 4.55q-4.7 8.5-11.8 13.45l-4.35-7.55-5.15 11.65-10.55 23.9 4.4 4.35 1.4-2.6 8-4.25 12.2 4.95 5.35 3.6 5.4-12.25 3.05-6.85q-2.5-1.25-4.9-2.7-5.1-3.2-9.85-7.5 5.8-10.45 7.9-17.5m29.35-.8q-20.35-11.1-36.5-23.25m20.3 54.5 2.1.75q9.05 2.9 19.15 3m-21.25-3.75q-3.25-1.2-6.3-2.75m42.7-18.2 1.55.75 3.8 1.7 3.25 1.3m-28.8-14.05q9.6 5.25 20.2 10.3m69.5-64q0 3.85-6 6.55-6 2.7-14.5 2.7t-14.5-2.7q-6-2.7-6-6.55 0-3.85 6-6.55 6-2.7 14.5-2.7t14.5 2.7q6 2.7 6 6.55m11 30.2q3 1.5 3 3.55t-3 3.5q-3 1.5-7.25 1.5t-7.25-1.5q-3-1.45-3-3.5t3-3.55q3-1.45 7.25-1.45t7.25 1.45m-3.15 40.65q-.35-.95-.35-2 0-2.55 1.8-4.35 1.8-1.8 4.35-1.8t4.35 1.8q.8.8 1.25 1.75m-178.45-143q3.2 0 5.45 1.1 2.3 1.1 2.3 2.65 0 1.55-2.3 2.65-2.25 1.1-5.45 1.1t-5.5-1.1q-2.25-1.1-2.25-2.65 0-1.55 2.25-2.65 2.3-1.1 5.5-1.1m-24.75 26q23.3-8.05 36.5-1 5.35 3.3-33 16m7 61.75-2 5.75q-.8 9.3 1.25 18.55l1.05.1 9.65.75q-1.55-3.65-2.2-6.9l-.15-.9q-.65-3.85.05-7.15m-8.4 14.1v.05q1.15 5.3 2.85 11.8.75 3.9-4.4 14.5l-.5 1.15q-10.85 23.8-16.35 49.5l3.35-8.55.1-.3q7.3-26.8 13.65-40.35l1.75-3.6q3.5-6.9 6.25-6.8l9.6-2.65v-3.55m-16 23.85q1.15-.35 2.85-2.05l5.6-2.05 7.55-16.2m14.05-14.75-2.4-3.15-4.2 11.9m6.6-8.75 2.4 2.95 6.5-2q3.85 0-2.5 6.5l1.15 1.95m-16.9-16.25-.85 1.3-7.35 10.9q1.85 3.5 3.5 5.85m4.7-18.05 2.25-3.3-2.1-3.6m3.55 5.9-1.45-2.3m-12.55 11 2.1 4.5m-4.3-11.4q7-.95 11.65.5m-11.4 36.5 2.1-.9q1.35.45 2.05 1.6l1.8 3.05 4.5-12.95 4.55-13m-4.05 32.75 1.55 1.6q.3 1.1.95 1.85m2.5-52.8 3.25 4.7m6.3 59.95 13.95-9.4m46.4-9.15-5.05.15M145.3 216l5.3 4.85.9-.85m4.85 4 8.4-7.1m-27.8-12.2-1.85-2.15q-1.75-2.25-3.15-4.65m-4.15 13.25h-.05l-.25 1.75 7.75 8.95.75-1.85 3.5-1.35m-11.7-7.5 10.7-4.85m-11 6.6-.55-.65q-7.65 26.3-9.2 62.15m24.65-59.3-1.7 9.05-.35 1.7-4.1 21.55q-6.05 61.5 7 124.1l2.25 10.15q8.45 34.95 23.35 68.35m17.2 30.9 10.75-3.65 4.45-.85-20-60.05-.55-2.15q-3.05-11.95-5.25-23.3-2.55-12.95-4.05-25.15-11.2-8.35-17.5-29-6.35-5.55-2.15-9.35l7.05.6.7-5.1q3.85-16.3 6-46l-3-14.25.8-32.05-8.55-5.95-.15-.1h.05l-4.05-3.7-1.6 15.8m5.6-12.1L152 262.9q-7 13.85-7.25 26.25 3.8 16.6 4.25 33.5-1.6 14.05 2.25 26.5L170 415.4m-34.75-193.55 2.55 2 2.55 2m-9.1 15.55 3.75-19.05.25-.5m19.4 2.7.1.1m.85-1.25-.95 1.15m-12.25-9.45 2.9.9m-1.45-3.5-1.45 2.6m-48.15 54.75 1.25 1.05q18.05 6.45 28.5 14.25 2.55 2.5-4 2.9l-2.6 3.1M127 462.5l6.75 1.7m-11.6-43.5-.05-.25q-2.8-12.2-4.6-24.8-2.75-12.95-4.25-57.25m-28.5-74.85q2.8 1.8 6.25 3.6l3.25 2.7q1.45-15.15 4.6-29.65m8.4 47.4-11.5-1.2H93.7Q91.4 305 87 315.05q4.1-1.7 7.9-4.4l-.1-3.65-3.05 1.15m28.25-20.1-12.75-.45q-3.15 12.4-8.65 17.7 10.95-5.35 18.8-14.15m40.15-8.25q1.7 4.75 1.7 11.5t-1.7 11.5q-1.65 4.75-4.05 4.75t-1.95-5.1q.4-5.15-1.05-11.65-1.45-6.5-.4-11.1 1-4.65 3.4-4.65t4.05 4.75m-68.8-39.25q9.75-45.35 28.5-80.4M55.8 246.8q1.55-.7 3.7-.7 2.15 0 3.7.7 1.55.7 1.55 1.7t-1.55 1.7q-1.55.7-3.7.7-2.15 0-3.7-.7-1.55-.7-1.55-1.7t1.55-1.7m-16.35 11.15q3.45-1.35 8.3-1.35 4.85 0 8.3 1.35 3.45 1.35 3.45 3.3 0 1.95-3.45 3.3-3.45 1.35-8.3 1.35-4.85 0-8.3-1.35-3.45-1.35-3.45-3.3 0-1.95 3.45-3.3m-32.9 5.15q1.95 2.15 5.2 4.05 2.95 2.35 7.45 4.4 4.05 1.8 9.35 3.3 6.1 1.75 13.95 3.1l18.75 2.45 5.75.5q4.1 2.5 10.45 3.9 6.8 1.45 16.25 1.6m-13.4-26.1q-2.85-2.35-4.65-4.7-1.55-2.05-2.4-3.95m7.1-11.6 3.25-13.6m-50.9 59.2q-2.25-5.15-4.15-10.8m-6.15 6.05q-1.65-4.4-3.2-9.35m23.3 6.4q2.65 7.95 6.6 15.95 5.75 11.7 14.2 23.45m2.45-13.3q-3-9.7-4.5-23.65m19.1-40.35q-2.15 8-4.7 15.55m-3.5 62.3h2.1l5.8-.7q1.1-13.85-2.6-32.4m17.6 32.05-.15-6.2m-22.75 7.25q-3.8-5.25-6.4-13.85m6.4 13.85-7.4-.4m89.15 19.25q3.25 2.85 9.35 6.15l1.35.4 4.95 1.45 11.3 2.3q13.4 2.2 27.2 2l12.7-.7 6.6-.8q7.65-1.05 15.4-2.8l4.55-1.5q10.85-3.8 18.45-7.4 10.75-5.2 14.95-10.1M98.6 305.3l-3.8 1.7m.25 9.85 1.2 48.3q9.35 50.05 24 96l3.25.45 3.5.9M80.3 260.3l4.45 3.25m2.25 51.5q-3.4 1.4-6.95 2.15M32.7 285.65q7.7 17.6 19.6 29.1m-15.55-9.85q-8.05-7.5-14.35-24m206.75-58 2.6-.75 4 3.1m-4.8-6.8-.7 1.7h1.1l6.4 2.25m-8.6.5 1.1-2.75m-14.4-8.45 1.9-1.7 1.35-.6m-7.5 1.85.25-.75 1.35-3.95m-8.6 13.9 3.9-.45 3.1-8.75 3.65 2.05.2-.55M208.5 220l4.45-.55 2.3-6.15m8.05.65-.6 2.15q-.85 2.45-2.2 4.4l1.8 4.4 6.85-2m-16.2-3.45 6.8-.8.75 1.85m2.2-4.4q-2.55-3.65-6.85-4.4l-.4 1.05m7.85 1.2.6-3.45m-8.8-9.35-3.25.3m10.45 23.45 1.4 3.3v3.65m0 2.3v-2.3m-17.05 3.2 17.05-.9q-4.25 13.65-5.25 28.8-2 28.3 7.25 61.8l3.2-3.8 5.35-6.3q-3.3-8.05-5.45-15.65m-2.4-66.5-2.7.4m-37.6-18.25-1.35.5-1 15.5Q177.6 253.4 174 278.9l-.15 1.25-.7 5.35-.05.25-.55 4.35v.1M202 235.3l4.65-.25m-9.35 40.5-.05 1.6m38.9-29.95q1.4-.6 3.35-.6l3.35.6q1.4.65 1.4 1.55t-1.4 1.5l-3.35.65q-1.95 0-3.35-.65-1.4-.6-1.4-1.5t1.4-1.55m-9.75-14.7q6.35-1.35 10.7-5.1m-6.15-8.95q-2.15-9.65-6.9-14.4m-27.7 15.55 1.65.8 2.75 3v-2.5l3.85-.45m-8.25-.85-10.25-4.95m-3.6 5.25-.65-1.25M164 229.2l-.7 1.4 1.05.65 8.7 4.5 1.1 2.35q-2.7 17.4-1.6 52m.25.05-.7 4.05q-1.8 16.8-2.55 34.7 16.35 1.5 34.95-3-1.35-20.25 2.5-53.95l.5-4.8m-36.7-52.95 5.9 2.85 5.15 1.6m-1.25 16.15.15-.55 4-19.1m-4.1 19.1-.05.55-.2.6q-3.75 12.4-6.4 43.5m-.85 6.6q-.45-20.75 2.05-45.05.25-2.5 4.3-13.55l3-7-1.85 14.35M198 220.4q.4 9.55 2.75 7.5v-4.5M164 229.2l12.7-12.15m-4.6 77.15.45-4m66.4-36.3q1.1.55 1.1 1.25t-1.1 1.2q-1.05.55-2.55.55-1.5 0-2.6-.55-1.05-.5-1.05-1.2t1.05-1.25q1.1-.5 2.6-.5t2.55.5m-6.55 8.25 6.65-2.6h.05q3.3-1.55 5.3-3.15m-17.3-2.35-1.1 2.85q-.75 3.65-1.1 7.45l7.5-2.2q-.75 3.3-1.95 6.2m7.1-3q1.5-3.65 1.55-5.8m-12-5.5 4.65-12.3m-7.15 29.1q-.05 3.05.2 6.25 3.55-3.85 5.65-8.75m-5.55-4q-.3 3.2-.3 6.5m12.95-5.5q-1.45 3.5-4.2 8.35m-8.55 3.4.25 2.85M202 235.3q-4.3 19.45-4.7 40.25m53 24.9q-.5.95-2.45 1.7-2.6 1-6.3 1-3.7 0-6.3-1-2.6-1-2.6-2.4l.2-.75m-27.15 28.7 1.8-.15q-2.6-31.8-.5-55.6m-1.3 55.75-1.2-1.8m3 1.65 3.5-.15q5 0 8.9.95l6.6-.7-.8-2.9m-5.8 3.6 2.05.6q4.55 1.55 4.55 3.7 0 2.15-4.55 3.7-4.55 1.55-10.95 1.55-6.4 0-10.95-1.55-4.55-1.55-4.55-3.7 0-2.15 4.55-3.7 2.55-.85 5.65-1.25m-36.15 1.2-5.4-.45-5.35-.45m12.6 37.75q4.35 4.35 10.2 6.95-15.5-17.05-17-29.4m21 31 2.95.85 7.45 1.3q-5.95-7.8-9.9-15.75-3.35-6.75-5.25-13.65m4.75 27.25q-2.1-.7-4-1.6m6.95 2.45q1.25 3.15 2.95 5.6 4.95 7.2 13.5 8.4 9.2.7 15.25-5.75 2.45-2.7 3.3-5.35.55-1.85.35-3.7l-2.4.5q4.2-8 5.45-16.8.7-5.1.4-10.5M210.9 380.9l-.65-.75q-.35-.95.25-2.3.4-.85 1.1-1.55l-2.25.2q-7.15.55-13.35-.05m49.85-5.35q-.75.65-1.8.65t-1.8-.65q-.75-.6-.75-1.5l-4.2 1.3-4.25 1.25q.45.95 1.05 1.7m11.75-2.75q.75-.6.75-1.5 0-.85-.65-1.45l-4.45 1.45m-33.45-20.55q1 5.2 1.5 9.85 1.1 10.15-.2 17.6m7.05-.8 5.1-.85m24.55-21.55q1.45-5.3 1.25-10.05m-30.9 32.45q.3.9-.3 2.15-.6 1.35-1.9 2.3l-.4.3q-1.05.65-2 .65l-.9-.2m.7-4.6h.25l4.55-.6m9.6-1.8 2.5-.6 4.55-1.15M226 373.9q1.5 6.35 5.9 15.8 10.75 23.3 38.85 65.45l-2.25 2.15m-32.4-66.2q-4.15-8.5-7.6-17.8m-4.6 1.05 2.1-.45m86.45-50.8.55-1.7m-.65 2.05.1-.35m-37.5-10.85q-8.2.75-4-6m-6.4-2.65-.75.35q-1.65.7-4.05.7t-4.1-.7q-1.65-.7-1.65-1.7 0-.4.25-.75m-5.75 6.15 3.35.45q1.4.45 1.4 1.05 0 .6-1.4 1.05l-3.35.45-3.35-.45q-1.4-.45-1.4-1.05 0-.6 1.4-1.05l3.35-.45m5.25 6.25q5.2 0 8.85 1.45 3.65 1.5 3.65 3.55t-3.65 3.5q-3.65 1.5-8.85 1.5-5.2 0-8.85-1.5-3.65-1.45-3.65-3.5t3.65-3.55q3.65-1.45 8.85-1.45m6.05 13q1.35-.55 3.2-.55t3.15.55q1.35.55 1.35 1.35t-1.35 1.35q-1.3.55-3.15.55l-3.2-.55q-1.3-.55-1.3-1.35t1.3-1.35m2.4 19.9q1.95-5 3.55-10.95m15 35.6-3.8-3.2m-14.5-9.35q-4.55 4.2-9.95 6.85l-2.05.8-.35 2.55q-1.15 5.5-5.35 7.3-7.4 1.85-10.65-2.55m14.2-6.55-2.35.85m4.5-1.6-2.15.75q8.45-6.85 13.9-20.5m-16.15 6.5q-2.35 8.15-8.75 17.6m32.35 13.9-2.15-2.65m17-7.5-3.75-3.2m-1 8.8q-6.75-7.05-12.8-15.1m30.9 10.75-1.1-1.5 2-5.75m12.95 20.05q1.75-1.1 4.4-1.8 2.65-.7 4.65-.6 2.05.1 2.3 1 .25.85-1.5 1.95-1.7 1.1-4.35 1.8l-4.7.6q-2.05-.1-2.3-.95-.25-.9 1.5-2m3.15 6.95q.9-.55 2.2-.55 1.25 0 2.1.55.9.55.9 1.35t-.9 1.35q-.85.55-2.1.55-1.3 0-2.2-.55-.8-.55-.8-1.35t.8-1.35m-30.35-21 7 1.75m-.6 14.45q-5.8-5-11.15-10.6M145.7 126.8q8.85 8.5 19.55 16.55m-74.1 50.5L89 214.15m28.55-15.9 9.4 14m-24.65 19.1q8.4-20.9 15.25-33.1m200.85 207q2.3-2.35 4.1-5.1l.25-.35 1.4-2.4q1.9-3.6 2.75-6.85m-6.8 18.25-1.7-3.55q-2.75 2.8-6.15 5.1-.1 2.3.75 4.3m12.95-13.1q-.65-2.35-1.8-4.15m-17.45 21q1.95 1.6 4.65 2.45l2.25-.45 3.2-.95q-2.7-2.1-3.8-4.8m-5.85 6.45 4.2-.25m10.8-3.8-1.9 1-3.45 1.4m3.3-10.65q1.7 4.1 2.05 8.25 2.65-1.5 4.5-3.85m-24.6-8.7q.8-2.1.8-4.35l-8.55-6.45m7.75 10.8q-.7 1.85-2.1 3.55-1.3 1.65-3.2 3.15l2.55 1.95 3.2-2.75m.35-10.25-.1-1.25m1 15.85q-3.4 1.35-7.25 2.4 2.8 2.2 6.1 3.2l4.55.75m-.45-2.7q-1.8-1.5-2.95-3.65 4.65-1.9 8.5-4.4m-15.75 6.8q-2.3.45 2.8-4m12.2 33.25 4.5-3.5q-20.2-12.05-34.2-28.55l-1.05-1.3-3.5-4.4m47.05 15.7-10.7-3.95m-72.85 20q2.6 1.85 8.6 4.9 5.1 2 10.2 7.05l3.7.55 2.9 6.6q-3.7-1.7-8.15-1.2-3.5.35-7.5 2.1M362 535.9h2.25m-104.7-83.55q-5-.6-8.8.05m-26.95-36.3q5.95 14.9 13.4 28.6 9.25 17.15 20.8 32.45l-2.75 2.65 2.75 3.35 7.9-.85 7.85-.9m-21.25 1-6-.5-13.75 3-7.5 6H223l-12.25-6-1.9-2.1-1.85.85-7.75-2.75-2.45-3.65m55.7 5.15 2.75-2.6m10.65 2.5 14.25 6.25 9.85 6.6 2.75 6 4 2.75 2.9-1 2.85-1-2.25-3.25m15.1-5.7 5.4.2m-58.65-64.3q16.6 17.65 38.9 29.3m-77.2-42.05-1.55-3.95m-60.35 52.2 1.85 2.05 6.85.85 6.85.8 6.05 11.6 2.55 1.25m-8.6-12.85q-4.55-9-8.6-18.05m40 32.8-3.85-4.15 2 5m16 7.25q-26.05-35.25-41.75-74.55m163.05 141.7q-.55-.85-.05-1.9l11.2-6.6 3.55-9.9-2-2.5 1.5-2.35-1.25-1.15-9.85 3.75h-.05l-2.35 2.75-9 3.25-6.5-6.5-1.25-20.25-3.75-7.25-3.5-1.5-4.5-6.25-4 2.25-6.5 1.25-6.35-2.25m16.85-1.25-4.25-2.75m-65.75-17L236 465.15l16.5 17.25M85.25 434.9l1.5-2.25 1 .2q6.4 1.5 12.75 9.3m14.55 25q-.95-5-1.1-10.35-10.95-38.05-17.7-91.65m-8.5 67.7V441m-28.9 38.1q5.15 3.7 5.25 8.9l3.15-.4 9-1.2 1.2.4 11.3 3.6 5.15-2.45-3.15-.05m18.65-18.1 2.6-1.15m-5.15 2.3 2.55-1.15 6.85 2.7q-.75-2.65-1.2-5.35m-8.2 3.8 2.15-3.8m11.1 3.15-6.15-13.5m-27.65-5.05-2.75-2q-3.2-3-5.55-8.6l.2-1.75-3.85-2.1-3.85-2.15-1.25 2.75-2 4.4m17.8 11.65 1.25-2.2 1.45-2.6V441m-2.7 12.95-1.25 2.2-5.5 9.8 4.95-1.8m10.65 23.8q7.1-.45 7.1-6.8l5.85-10.2m9.4 1.55q.35.2 3.85-2.2l4.9-3.4-1.5-5.3m36.25 4.55-2.5-7 4.65 5.2-2.15 1.8-3.9-.6-7.55-1.2-7.55-1.2-1.1-2.5q-2.7-1.65-4.4 2.5l-1.5 1.05m1.5-1.05q-8.15-20.6-13.1-42.45m-55.65-8.1-2.55-14.3M42.6 410l1.4 2.9v3.75h3q3-.95 5-4.75m14.5.7 1.9 10.5.35 2.05-.6 4.85-.65 4.9 1.75 3m14.55 18.25L67.25 444.9v-2.6m10.95-2.9 2.3-22.5-3.25-51.5m-8.85 57.7-7.15-1.95-5.25 2.5q-6.4-.15-4.75-4.75m10 43q-1-1.55-1.75-3.5l-2.5-13q4.25-16.5 11.15-15.4m.05 40-2.9 1.15-2.9 1.15q6.75 1.8 7.35 3.6m-8.5-14q2.65 4.35 6.95 5.5v2.6l10.1-4.05m-21.8 11.7 2.35 1.45m-.1 12.55q-.8 1.95-1.8 3.35 3.95-.25 7.05-5.6l.1-1.4m11.5 15.9 2.4.5q2.85-1.7 2-8l-2.55-9.6m-4.95 8.1q.2-3.65-5.25-7.3m-9.2-16.5 4.35 1.2m9.35 28.35 1.5 2.75 2.35.5-4.1 1.5H69l-3.4 4.3q.1 1.6.95 3.15 3.75.95 5.65 2.25 1.5.95 1.8 2.15M25.35 562.7q.05.95-.6 1.75M72.5 494.9l-1.75 2.25q-3.35.15-5.75-2.5-4.45 2.85-6.75 9.25l2.75 3.5q1.75 3.55 2.1 6.3.25 1.75-1.3 4.05m-4.05-.35 2.5 2.5q3 1.25 10.25 0l3.5-2.5v-.15m-7.45-4.4q.7 1.3 1.95 2.55m-2.9-5.7q-.15-1.6.4-3.3M56.95 495q-3.2 4.45-8.2 3.4-5.2 6.35-4.25 22.25l4.75 11.75q8.05 3.2 4.25 8.75-9.3 12.95-13.1 6.3l-5.4-.55-6.25-.5q-8-.15-9.25 5.5v5.75l5.75 4.5.1.55m32.4-45.3 5.35-3.7m-25.15 23.4q1.35.55 2.35 1.55 5.45 1.3 5.2 7.5m-10-9.75 1.2.25 1.25.45m-1.25-.45q-2.5 3.85-4.95 0m0-6.25 1.75 3m-17 30.5q6.85-.75 3-2.5v-3.75m-4-.55q.85 3.7-3 4.8m27.9-14.45q1.9-.4 1.85-2.05m-1.95-6.75q1.35 1.35 1.95 3.5m-9.5-48.05 1.75 5.8m291.45-98.35q1.35 4.8.7 11.6M347.4 537.4l2.35-2.75m8.75.15 1.25 1.1H362m-18-8.25 1.75 2.75m9.7 19.15-.7 1.85m4.85-.7-.1 1.95m-15.2 5.4q.5.75 1.9 1.35m-206.55-98.75q-13.25-30.9-22.15-65m144.6 33.2q-15.45-16.35-26-37.75m88.2 33.25 2.85 1.05m-45.35-11.05q19.9 18.15 50.95 27.55m-36-30.7q-14.85-11.6-27.1-26.4m54.85 124.6 3.5 1.5"/><path stroke-width="3" stroke-opacity=".31" stroke-linejoin="round" stroke-linecap="round" stroke="#a8ce0f" fill="none" d="M315.55 118.95q-4.1-2.1-9.65-3.05-.9 1.4-.9 2.5l8.15 5.25 7.3 4.65M306 125.85l1.55.15 1.3.5 1.9 1.3q1.75 1.35 1.75 2.1l-.05.9q-.2.1-.45.35-.5-.05-1.5-1.05-1-.95-1.75-.95l-1.5.25m-1.2 30.75.2.1q2.05 1.4 4.6 4.65 2.75 3.55 4.1 4.65 1.45 1.15 3.25 1.7m-98.45-9.2.75-.4q3.95-2 6.5-2 3.75 0 11.7 4.25l1.85 1q6.5 3.65 12.15 4.75l4.8.5q5.3 0 7.5-1.5 1.5-1 1.5-2.5l-2.75-3.95q-2.75-4.1-2.75-5.05 0-1.85 3.5-3 3.05-1 6.75-1 3.75 0 5.7 3.05 1 1.5 2.65 6.7 1.5 4.7 3.3 6.7 2.65 3.05 7.6 3.05 2 0 3.5-1.45l1.5-2.05q.5-.5.5-1.75 0-.7-2.55-3.2-2.85-2.8-3.45-4.05 2.35-1.6 8.5-2 4.4 0 7.55 2m-64.55-6.5q0 2.3 3.05 4.15 2.25 1.35 4.95 1.85.5.25.5-1t-1.2-1.95l-3.3-1.55q-.8-.45-1.75-1.8-.75-1.05-1.75-1.2l-.45.45-.05 1.05m-19.55 23.25-2.5-3.15q-3.95-5.1-3.95-6.1 0-3.2 4.25-5.6m86.25-36.2-2.75-.2-3.9.2q-1.7.5-1.35 2.8 2.5 1.5 5.75 1.5l2.5-.5 1-.25m15.8 29.75-5.15-5q-7.9-8.05-7.9-11.75 0-3.6 3.05-4.75 1.3-.5 3.95-.5 4.2 0 6.7 1.75"/></g><path fill-rule="evenodd" fill="url(#j)" d="M168.1 28.75Q197 57.65 197 98.5q0 40.8-28.9 69.6Q139.3 197 98.5 197q-40.85 0-69.75-28.9Q0 139.3 0 98.5q0-40.85 28.75-69.75Q57.65 0 98.5 0q40.8 0 69.6 28.75" id="k"/><path fill-rule="evenodd" fill-opacity="0" fill="#f0f" d="M102.95 45H0V0h102.95v45" id="l"/><use xlink:href="#k" width="197" height="197" id="b"/><use xlink:href="#l" width="102.95" height="45" id="o"/><radialGradient spreadMethod="pad" r="819.2" id="j" gradientUnits="userSpaceOnUse" gradientTransform="translate(98.5 98.5) scale(.1229)" cy="0" cx="0"><stop stop-opacity=".259" stop-color="#cf0" offset="0"/><stop stop-opacity="0" stop-color="#9f0" offset="1"/></radialGradient></defs><path fill="none" d="M-1-1h247v267H-1z"/><use x="134" y="254" xlink:href="#m" width="381" transform="translate(-192.55 -294)" height="381"/><use x="10.939" xlink:href="#n" width="523.9" transform="matrix(-.4571 0 0 .454 247.086 1.87)" height="573.55"/><use x="109.845" y="227.537" xlink:href="#o" width="102.95" transform="matrix(1.2199 0 0 1.1163 -45.1 -115.4)" height="45"/></svg>