<svg width="240" height="248" xmlns="http://www.w3.org/2000/svg" xmlns:xlink="http://www.w3.org/1999/xlink"><defs><linearGradient y2=".847" y1=".319" x2=".507" x1=".189" spreadMethod="pad" id="r"><stop stop-color="#c2b79f" offset=".051"/><stop stop-color="#c1a678" offset="1"/></linearGradient><linearGradient y2=".9" y1=".364" x2=".479" x1=".606" spreadMethod="pad" id="s"><stop stop-color="#c2b79f" offset=".051"/><stop stop-color="#c1a678" offset="1"/></linearGradient><linearGradient y2="1.292" y1=".208" x2=".5" x1=".5" spreadMethod="pad" id="t"><stop stop-color="#c2bcb3" offset="0"/><stop stop-color="#c2b79f" offset=".271"/><stop stop-color="#9f7a53" offset="1"/></linearGradient><linearGradient y2=".321" y1=".709" x2=".109" x1=".861" spreadMethod="pad" id="u"><stop stop-opacity=".702" stop-color="#65d8f3" offset=".067"/><stop stop-opacity=".702" stop-color="#87d6f2" offset=".514"/><stop stop-opacity=".651" stop-color="#d5ebf5" offset="1"/></linearGradient><linearGradient y2=".631" y1=".396" x2=".292" x1=".569" spreadMethod="pad" id="v"><stop stop-opacity=".702" stop-color="#65d8f3" offset=".067"/><stop stop-opacity=".702" stop-color="#87d6f2" offset=".514"/><stop stop-opacity=".651" stop-color="#d5ebf5" offset="1"/></linearGradient><linearGradient y2=".328" y1=".838" x2=".13" x1=".539" spreadMethod="pad" id="w"><stop stop-color="#90b1f5" offset=".067"/><stop stop-color="#dce9fc" offset="1"/></linearGradient><linearGradient y2=".452" y1=".898" x2=".526" x1=".76" spreadMethod="pad" id="x"><stop stop-color="#90b1f5" offset=".067"/><stop stop-color="#dce9fc" offset="1"/></linearGradient><linearGradient y2=".247" y1=".802" x2=".538" x1=".496" spreadMethod="pad" id="y"><stop stop-color="#90b1f5" offset=".067"/><stop stop-color="#dce9fc" offset="1"/></linearGradient><linearGradient y2=".245" y1=".931" x2=".461" x1=".502" spreadMethod="pad" id="z"><stop stop-color="#90b1f5" offset=".067"/><stop stop-color="#dce9fc" offset="1"/></linearGradient><linearGradient y2=".116" y1=".862" x2=".18" x1=".544" spreadMethod="pad" id="A"><stop stop-color="#fadcc0" offset=".067"/><stop stop-color="#fff" offset="1"/></linearGradient><linearGradient y2=".201" y1=".888" x2=".384" x1=".759" spreadMethod="pad" id="B"><stop stop-color="#fadcc0" offset=".067"/><stop stop-color="#fff" offset="1"/></linearGradient><linearGradient y2=".114" y1=".891" x2=".7" x1=".489" spreadMethod="pad" id="C"><stop stop-color="#fadcc0" offset=".067"/><stop stop-color="#fff" offset="1"/></linearGradient><linearGradient y2=".234" y1=".942" x2=".523" x1=".502" spreadMethod="pad" id="D"><stop stop-color="#fadcc0" offset=".067"/><stop stop-color="#fff" offset="1"/></linearGradient><linearGradient y2=".823" y1=".511" x2="1.239" x1=".612" spreadMethod="pad" id="E"><stop stop-opacity=".702" stop-color="#65d8f3" offset=".067"/><stop stop-opacity=".702" stop-color="#87d6f2" offset=".514"/><stop stop-opacity=".651" stop-color="#d5ebf5" offset="1"/></linearGradient><linearGradient y2=".183" y1=".839" x2=".304" x1=".531" spreadMethod="pad" id="F"><stop stop-color="#ed9c16" offset=".067"/><stop stop-color="#f2cc4f" offset=".514"/><stop stop-color="#fceadb" offset="1"/></linearGradient><linearGradient y2=".294" y1=".907" x2=".445" x1=".726" spreadMethod="pad" id="G"><stop stop-color="#ed9c16" offset=".067"/><stop stop-color="#f2cc4f" offset=".514"/><stop stop-color="#fceadb" offset="1"/></linearGradient><linearGradient y2=".144" y1=".939" x2=".722" x1=".467" spreadMethod="pad" id="H"><stop stop-color="#ed9c16" offset=".067"/><stop stop-color="#f2cc4f" offset=".514"/><stop stop-color="#fceadb" offset="1"/></linearGradient><linearGradient y2=".184" y1=".87" x2=".516" x1=".496" spreadMethod="pad" id="I"><stop stop-color="#ed9c16" offset=".016"/><stop stop-color="#f2cc4f" offset=".318"/><stop stop-color="#fceadb" offset=".933"/></linearGradient><linearGradient y2=".135" y1=".69" x2="-.005" x1=".891" spreadMethod="pad" id="J"><stop stop-opacity=".702" stop-color="#65d8f3" offset=".067"/><stop stop-opacity=".702" stop-color="#87d6f2" offset=".514"/><stop stop-opacity=".651" stop-color="#d5ebf5" offset="1"/></linearGradient><linearGradient y2=".921" y1=".547" x2=".804" x1=".487" spreadMethod="pad" id="K"><stop stop-opacity=".702" stop-color="#65d8f3" offset=".067"/><stop stop-opacity=".702" stop-color="#87d6f2" offset=".514"/><stop stop-opacity=".651" stop-color="#d5ebf5" offset="1"/></linearGradient><linearGradient y2=".799" y1=".487" x2=".038" x1=".364" spreadMethod="pad" id="L"><stop stop-opacity=".702" stop-color="#65d8f3" offset=".067"/><stop stop-opacity=".702" stop-color="#87d6f2" offset=".514"/><stop stop-opacity=".651" stop-color="#d5ebf5" offset="1"/></linearGradient><g id="T" stroke-opacity="0" stroke-linejoin="round" stroke-linecap="round" stroke="#f0f" fill="none"><path d="M187.95-293.5v380h-380v-380h380M92.95.6H-97" transform="translate(192.55 294)"/><path d="m187.95-293.5-190 190 190 190m-379.95 0 189.95-190-190-190" transform="translate(192.55 294)"/></g><g transform="translate(9.35 -4.45)" id="U"><use xlink:href="#a" width="1.15" transform="translate(132.55 110.85)" height="3.7"/><use xlink:href="#b" width="45.75" transform="translate(44.001 159.476) scale(3.5917)" height="22.85"/><use xlink:href="#c" width="72.05" transform="translate(-9.357 75.989) scale(3.5917)" height="47.75"/><use xlink:href="#d" width="27.75" transform="rotate(15.001 -46.64 484.36) scale(2.1539)" height="18.4"/><use xlink:href="#e" width="30.65" transform="translate(76.508 38.06) scale(3.5917)" height="25.65"/><use xlink:href="#f" width="13.05" transform="translate(162.9 64.472) scale(3.3386)" height="8.2"/><use xlink:href="#g" width="27.75" transform="matrix(.9374 1.6237 -1.6237 .9374 204.002 39.013)" height="18.4"/><use xlink:href="#h" width="27.75" transform="matrix(2.2088 -.5919 .7097 2.6484 61.86 20.885)" height="18.4"/><use xlink:href="#i" width="77.6" transform="matrix(-.0793 -.0608 -.0048 .1518 84.95 90.5)" height="77.6"/><use xlink:href="#j" width="77.6" transform="matrix(-.1542 0 .0113 .1631 115.3 94.8)" height="77.6"/><use xlink:href="#k" width="7.55" transform="translate(83.69 84.034) scale(3.5917)" height="3.75"/><use xlink:href="#l" width="143.65" transform="translate(52.2 111.35)" height="99.1"/><use xlink:href="#m" width="43.5" transform="matrix(-.3898 0 -.0603 .445 124.9 197.35)" height="39"/><use xlink:href="#m" width="43.5" transform="matrix(-.2999 0 -.0464 .3423 151.7 201.1)" height="39"/><use xlink:href="#m" width="43.5" transform="matrix(-.5459 -.1742 -.2175 .5875 151.55 172.55)" height="39"/><use xlink:href="#m" width="43.5" transform="matrix(-.1357 .0821 .077 .208 106.85 196.1)" height="39"/><use xlink:href="#m" width="43.5" transform="matrix(-.1357 .0821 .077 .208 160.7 161.2)" height="39"/><use xlink:href="#m" width="43.5" transform="matrix(-.0222 .1642 .2104 0 150.9 141.85)" height="39"/></g><g transform="translate(36.35 21.4)" id="c"><use xlink:href="#g" width="27.75" transform="rotate(-105.002 -6.187 17.595) scale(.668)" height="18.4"/><use xlink:href="#n" width="45.15" transform="translate(-21.15 -19.15)" height="39.7"/><use xlink:href="#o" width="6.85" transform="translate(20.1 -4.25)" height="8.2"/><use xlink:href="#h" width="27.75" transform="matrix(.2606 .3421 -.4102 .3125 26.934 -11.838)" height="18.4"/><use xlink:href="#p" width="27.75" transform="rotate(127.04 12.688 11.622) scale(.7439)" height="18.4"/><use xlink:href="#q" width="8.1" transform="translate(-24.9 -8.15)" height="4.7"/><use xlink:href="#d" width="27.75" transform="matrix(.3109 -.3109 .3054 .3054 -32.827 -6.664)" height="18.4"/></g><g id="M"><path fill-rule="evenodd" fill="#5a8d00" d="M-8.4-1.25q-.15-2.35-2.05-5.9 3 .05 9.15 1.85l-7.1 4.05" transform="translate(13.85 11.2)"/><path stroke-width=".05" stroke-opacity=".702" stroke-linejoin="round" stroke-linecap="round" stroke="#3a6a20" fill="none" d="M5.45 9.95Q5.3 7.6 3.4 4.05q3 .05 9.15 1.85"/><path fill-rule="evenodd" fill="#5a8d00" d="M8.15.05 0-5.15q5.25-1.7 10.25-2.1-2 4.25-2.1 7.3" transform="translate(13.85 11.2)"/><path stroke-width=".05" stroke-opacity=".702" stroke-linejoin="round" stroke-linecap="round" stroke="#376a20" fill="none" d="M22 11.25q.1-3.05 2.1-7.3-5 .4-10.25 2.1"/><path fill-rule="evenodd" fill="#5a8d00" d="m-8.8-2.85 3.4 1.35 1.35 1.25.5 2.35q-1.75-.65-3.85-.75l-1.4-4.2" transform="translate(13.85 11.2)"/><path fill-rule="evenodd" fill="#5e9f00" d="m-7.4 1.35-6.45.4q1.1-2.65 5.05-4.6l1.4 4.2" transform="translate(13.85 11.2)"/><path stroke-width=".05" stroke-opacity=".702" stroke-linejoin="round" stroke-linecap="round" stroke="#3e6a20" fill="none" d="m6.45 12.55-6.45.4q1.1-2.65 5.05-4.6"/><path fill-rule="evenodd" fill="#5a8d00" d="m5.75-2 4.1-.7-1.05 2-1.35 2.6q-3.1.5-5.9 1.55Q1.4.8 5.75-2m-1 1.95q2.3-.9 4.05-.65-1.75-.25-4.05.65" transform="translate(13.85 11.2)"/><path fill-rule="evenodd" fill="#5e9f00" d="M7.45 1.9 8.8-.7q.9.1 1.7.6-.8-.5-1.7-.6l1.05-2q2.7 2.25 4.05 5.45-3.7-1-6.45-.85" transform="translate(13.85 11.2)"/><path stroke-width=".05" stroke-linejoin="round" stroke-linecap="round" stroke="#456a20" fill="none" d="M22.65 10.5q-1.75-.25-4.05.65m4.05-.65q.9.1 1.7.6"/><path stroke-width=".05" stroke-opacity=".702" stroke-linejoin="round" stroke-linecap="round" stroke="#406a20" fill="none" d="m23.7 8.5-4.1.7m-4.2 5.45q2.8-1.05 5.9-1.55 2.75-.15 6.45.85-1.35-3.2-4.05-5.45"/><path fill-rule="evenodd" fill="#5a8d00" d="M-2.1 1.05-3.45 3.1l1.35-2.05M4.5 3.1q-4-.55-7.95 0-1.3-1.05-3.65-.9 3-1.9 5.85-2.35 4.1.8 5.75 3.25" transform="translate(13.85 11.2)"/><path fill-rule="evenodd" fill="#5e9f00" d="M-7.1 2.2q2.35-.15 3.65.9 3.95-.55 7.95 0-5 1-9.05 4.1-.9-2.8-2.6-5h.05" transform="translate(13.85 11.2)"/><path stroke-width=".05" stroke-linejoin="round" stroke-linecap="round" stroke="#456a20" fill="none" d="m10.4 14.3 1.35-2.05"/><path stroke-width=".05" stroke-opacity=".702" stroke-linejoin="round" stroke-linecap="round" stroke="#426a20" fill="none" d="M6.7 13.4q1.7 2.2 2.6 5 4.05-3.1 9.05-4.1"/><path fill-rule="evenodd" fill="#426327" d="M-3.35-6.4q-.35-1.75 2.9-4l3.8 3.25q-3.45-.2-6.5 1.3l-.2-.55m-3.5 1.85q.55 2.75 3 5.05l-2.7-.05q-1.5-.25-4.3-3.35l4-1.65M5.2.15q2.6-2.9 1.3-5.2l4.7 1Q9.35-.95 7.85-.35L5.2.15" transform="translate(13.85 11.2)"/><path fill-rule="evenodd" fill="#7c6e56" d="M1.3-4.55Q-5.5-.6-6.4-3.05q.7-4.65 2.85-7.7 1.5 3.7 4.85 6.2" transform="translate(13.85 11.2)"/><path stroke-width=".05" stroke-linejoin="round" stroke-linecap="round" stroke="#8f8268" fill="none" d="M15.15 6.65q-6.8 3.95-7.7 1.5.7-4.65 2.85-7.7 1.5 3.7 4.85 6.2z"/><path fill-rule="evenodd" fill="#8c7a5f" d="M-3.35.85q-2.3-3.6-2.65-9 1.6 4.85 5 9.1l-2.35-.1" transform="translate(13.85 11.2)"/><path fill-rule="evenodd" fill="url(#r)" d="M-6-8.15q.35 5.4 2.65 9Q-5.7.4-6.7-1.55q-.75-4.25.7-6.6" transform="translate(13.85 11.2)"/><path fill-rule="evenodd" fill="#c2b79f" d="M2.55-11.2Q5.7-7.65 6-3.25q-.55 1-1.4.85.85-3.7-2.05-8.8" transform="translate(13.85 11.2)"/><path fill-rule="evenodd" fill="#83735a" d="M2.55-11.2q2.9 5.1 2.05 8.8-2.9.35-6.95-1.35 4-2.85 4.9-7.45" transform="translate(13.85 11.2)"/><path fill-rule="evenodd" fill="#8c7a5f" d="m3.3.05-1.9-.3q3.2-3.8 4.55-8.55Q5.3-2.45 3.3.05" transform="translate(13.85 11.2)"/><path fill-rule="evenodd" fill="url(#s)" d="M3.3.05q2-2.5 2.65-8.85 1.6 2.65 1.1 6.95Q6.05.2 3.3.05" transform="translate(13.85 11.2)"/><path fill-rule="evenodd" fill="#c2a513" d="M2.8-1.55Q1.65-.35 0-.35t-2.85-1.2Q-4-2.7-4-4.35t1.15-2.85Q-1.65-8.35 0-8.35q1.65 0 2.8 1.15Q4-6 4-4.35q0 1.65-1.2 2.8" transform="translate(13.85 11.2)"/><path fill-rule="evenodd" fill="#c2bca9" d="M2.3-6q-.05.4-.45.4T.95-6q-.4-.35-.65-.85t-.2-.9q.1-.35.5-.35l.85.35.75.9q.25.5.1.85" transform="translate(13.85 11.2)"/><path fill-rule="evenodd" fill="url(#t)" d="M-3.6.9Q-3-2.45 0-6.05 3.1-4.4 4.4.25q-2.2 1.1-4.75 1.1L-3.6.9" transform="translate(13.85 11.2)"/><path stroke-width=".05" stroke-linejoin="round" stroke-linecap="round" stroke="#8d7f68" fill="none" d="M18.25 11.45q-1.3-4.65-4.4-6.3-3 3.6-3.6 6.95"/><path fill-rule="evenodd" fill="#457014" d="M5.5-1.75 6.75-.2Q2.6 1.9 1.35 1.55 4.1-.1 5.5-1.75M-6.45 0l1.1-1.55q1.6 1.65 4.5 3.3Q-2.1 2.1-6.45 0" transform="translate(13.85 11.2)"/></g><g id="n"><path fill-rule="evenodd" fill="url(#u)" d="M-1.3-19.6q8.7 0 15 6.1Q20-7.45 22 .7q1.95 8.15-6.3 13.35-8.3 5.2-17 5.55-8.7.35-14.85-4.65-6.2-5.05-6.15-13.7-.05-8.6 6.1-14.75 6.2-6.1 14.9-6.1" transform="translate(22.55 19.85)"/><path stroke-width=".5" stroke-opacity=".42" stroke-linejoin="round" stroke-linecap="round" stroke="#4d4b02" fill="none" d="M21.25.25q8.7 0 15 6.1 6.3 6.05 8.3 14.2 1.95 8.15-6.3 13.35-8.3 5.2-17 5.55-8.7.35-14.85-4.65Q.2 29.75.25 21.1.2 12.5 6.35 6.35q6.2-6.1 14.9-6.1z"/><path fill-rule="evenodd" fill-opacity=".251" fill="#fff" d="M15.35-1.1q0 6.5-4.9 11.1Q5.6 14.55-1.3 14.55T-13.05 10Q-17.9 5.4-17.9-1.1q0-6.55 4.85-11.15 4.85-4.6 11.75-4.55 6.9-.05 11.75 4.55 4.9 4.6 4.9 11.15" transform="translate(22.55 19.85)"/></g><g id="o"><path fill-rule="evenodd" fill="url(#v)" d="M-10.25-1.75q-3.15.7-2.4-2.55 3.3-.9 6.35-3.35-5.8 11.4-3.95 5.9" transform="translate(12.9 7.9)"/><path stroke-width=".5" stroke-opacity=".42" stroke-linejoin="round" stroke-linecap="round" stroke="#767603" fill="none" d="M.25 3.6Q3.55 2.7 6.6.25q-5.8 11.4-3.95 5.9"/></g><g id="N"><path fill-rule="evenodd" fill="#e5c59a" d="m-1.3-5.3-7.1 4.05q-.15-2.35-2.05-5.9 3 .05 9.15 1.85" transform="translate(13.85 11.2)"/><path stroke-width=".05" stroke-linejoin="round" stroke-linecap="round" stroke="#9e8769" fill="none" d="M5.45 9.95Q5.3 7.6 3.4 4.05q3 .05 9.15 1.85"/><path fill-rule="evenodd" fill="#e5c59a" d="M8.15.05 0-5.15q5.25-1.7 10.25-2.1-2 4.25-2.1 7.3" transform="translate(13.85 11.2)"/><path stroke-width=".05" stroke-linejoin="round" stroke-linecap="round" stroke="#9e8769" fill="none" d="M22 11.25q.1-3.05 2.1-7.3-5 .4-10.25 2.1"/><path fill-rule="evenodd" fill="#e5c59a" d="m-7.4 1.35-1.4-4.2 3.4 1.35 1.35 1.25.5 2.35q-1.75-.65-3.85-.75" transform="translate(13.85 11.2)"/><path fill-rule="evenodd" fill="#fff5e0" d="m-8.8-2.85 1.4 4.2-6.45.4q1.1-2.65 5.05-4.6" transform="translate(13.85 11.2)"/><path stroke-width=".05" stroke-linejoin="round" stroke-linecap="round" stroke="#9e8769" fill="none" d="M5.05 8.35Q1.1 10.3 0 12.95l6.45-.4"/><path fill-rule="evenodd" fill="#e5c59a" d="M9.85-2.7 8.8-.7q-1.75-.25-4.05.65 2.3-.9 4.05-.65L7.45 1.9q-3.1.5-5.9 1.55Q1.4.8 5.75-2l4.1-.7" transform="translate(13.85 11.2)"/><path fill-rule="evenodd" fill="#fff5e0" d="m8.8-.7 1.05-2q2.7 2.25 4.05 5.45-3.7-1-6.45-.85L8.8-.7q.9.1 1.7.6-.8-.5-1.7-.6" transform="translate(13.85 11.2)"/><path stroke-width=".05" stroke-linejoin="round" stroke-linecap="round" stroke="#9e8769" fill="none" d="m23.7 8.5-4.1.7m-4.2 5.45q2.8-1.05 5.9-1.55 2.75-.15 6.45.85-1.35-3.2-4.05-5.45"/><path stroke-width=".05" stroke-linejoin="round" stroke-linecap="round" stroke="#9e8769" fill="none" d="M22.65 10.5q.9.1 1.7.6m-1.7-.6q-1.75-.25-4.05.65"/><path fill-rule="evenodd" fill="#7cd100" d="M-7.15 2.2h.05-.05" transform="translate(13.85 11.2)"/><path fill-rule="evenodd" fill="#e5c59a" d="M-2.1 1.05-3.45 3.1l1.35-2.05m-5 1.15q3-1.9 5.85-2.35 4.1.8 5.75 3.25-4-.55-7.95 0-1.3-1.05-3.65-.9" transform="translate(13.85 11.2)"/><path fill-rule="evenodd" fill="#fff5e0" d="M4.5 3.1q-5 1-9.05 4.1-.9-2.75-2.6-5h.05q2.35-.15 3.65.9 3.95-.55 7.95 0" transform="translate(13.85 11.2)"/><path stroke-width=".05" stroke-linejoin="round" stroke-linecap="round" stroke="#9e8769" fill="none" d="M18.35 14.3q-5 1-9.05 4.1-.9-2.75-2.6-5m3.7.9 1.35-2.05"/><path fill-rule="evenodd" fill="#b3946d" d="M5.2.15q2.6-2.9 1.3-5.2l4.7 1Q9.35-.95 7.85-.35L5.2.15M-.45-10.4l3.8 3.25q-3.45-.2-6.5 1.3l-.2-.55q-.35-1.75 2.9-4M-3.85.5l-2.7-.05q-1.5-.25-4.3-3.35l4-1.65q.55 2.75 3 5.05" transform="translate(13.85 11.2)"/><path fill-rule="evenodd" fill="#6875a1" d="M1.3-4.5Q-5.5-.65-6.45-3q.75-4.65 2.85-7.8Q-2.1-7 1.3-4.5" transform="translate(13.85 11.2)"/><path stroke-width=".05" stroke-linejoin="round" stroke-linecap="round" stroke="#51597d" fill="none" d="M7.4 8.2q.75-4.65 2.85-7.8 1.5 3.8 4.9 6.3"/><path fill-rule="evenodd" fill="url(#w)" d="M-3.35.85Q-5.7.4-6.7-1.55q-.75-4.25.7-6.6.35 5.4 2.65 9" transform="translate(13.85 11.2)"/><path fill-rule="evenodd" fill="#6875a1" d="M-6-8.15q1.6 4.85 5 9.1l-2.35-.1q-2.3-3.6-2.65-9" transform="translate(13.85 11.2)"/><path fill-rule="evenodd" fill="#fff1d1" d="M2.55-11.2h.05-.05" transform="translate(13.85 11.2)"/><path fill-rule="evenodd" fill="url(#x)" d="M4.6-2.4q.85-3.7-2.05-8.8h.05q3.15 3.55 3.45 7.95-.6 1-1.45.85" transform="translate(13.85 11.2)"/><path fill-rule="evenodd" fill="#6875a1" d="M4.6-2.4q-2.85.35-6.95-1.35 4-2.85 4.9-7.45 2.9 5.1 2.05 8.8" transform="translate(13.85 11.2)"/><path fill-rule="evenodd" fill="url(#y)" d="M3.3.05q2-2.5 2.65-8.85 1.6 2.65 1.1 6.95Q6.05.2 3.3.05" transform="translate(13.85 11.2)"/><path fill-rule="evenodd" fill="#6875a1" d="m3.3.05-1.9-.3q3.2-3.8 4.55-8.55Q5.3-2.45 3.3.05" transform="translate(13.85 11.2)"/><path fill-rule="evenodd" fill="#ffd919" d="M2.8-1.55Q1.65-.35 0-.35t-2.85-1.2Q-4-2.7-4-4.35t1.15-2.85Q-1.65-8.35 0-8.35q1.65 0 2.8 1.15Q4-6 4-4.35q0 1.65-1.2 2.8" transform="translate(13.85 11.2)"/><path fill-rule="evenodd" fill="#fff8df" d="M2.3-6q-.05.4-.45.4T.95-6q-.4-.35-.65-.85t-.2-.9q.1-.35.5-.35l.85.35.75.9q.25.5.1.85" transform="translate(13.85 11.2)"/><path fill-rule="evenodd" fill="url(#z)" d="M4.4.25q-2.2 1.1-4.75 1.1L-3.6.9Q-3-2.45 0-6.05 3.1-4.4 4.4.25" transform="translate(13.85 11.2)"/><path fill-rule="evenodd" fill="#a18562" d="m-6.45 0 1.1-1.55q1.6 1.65 4.5 3.3Q-2.1 2.1-6.45 0M5.5-1.75 6.75-.2Q2.6 1.9 1.35 1.55 4.1-.1 5.5-1.75" transform="translate(13.85 11.2)"/></g><g id="O"><path fill-rule="evenodd" fill="#ec8200" d="M-8.4-1.25q-.15-2.35-2.05-5.9 3 .05 9.15 1.85l-7.1 4.05" transform="translate(13.85 11.2)"/><path stroke-width=".05" stroke-opacity=".651" stroke-linejoin="round" stroke-linecap="round" stroke="#ba5e02" fill="none" d="M5.45 9.95Q5.3 7.6 3.4 4.05q3 .05 9.15 1.85"/><path fill-rule="evenodd" fill="#ec8200" d="M8.15.05 0-5.15q5.25-1.7 10.25-2.1-2 4.25-2.1 7.3" transform="translate(13.85 11.2)"/><path stroke-width=".05" stroke-opacity=".651" stroke-linejoin="round" stroke-linecap="round" stroke="#ba5e02" fill="none" d="M22 11.25q.1-3.05 2.1-7.3-5 .4-10.25 2.1"/><path fill-rule="evenodd" fill="#ffe3a4" d="m-8.8-2.85 1.4 4.2-6.45.4q1.1-2.65 5.05-4.6" transform="translate(13.85 11.2)"/><path fill-rule="evenodd" fill="#ec8200" d="m-8.8-2.85 3.4 1.35 1.35 1.25.5 2.35q-1.75-.65-3.85-.75l-1.4-4.2" transform="translate(13.85 11.2)"/><path stroke-width=".05" stroke-opacity=".651" stroke-linejoin="round" stroke-linecap="round" stroke="#ba5e02" fill="none" d="m6.45 12.55-6.45.4q1.1-2.65 5.05-4.6"/><path fill-rule="evenodd" fill="#ff991e" d="m5.75-2 4.1-.7-1.05 2-1.35 2.6q-3.1.5-5.9 1.55Q1.4.8 5.75-2m-1 1.95q2.3-.9 4.05-.65-1.75-.25-4.05.65" transform="translate(13.85 11.2)"/><path fill-rule="evenodd" fill="#ffe3a4" d="M7.45 1.9 8.8-.7q.9.1 1.7.6-.8-.5-1.7-.6l1.05-2q2.7 2.25 4.05 5.45-3.7-1-6.45-.85" transform="translate(13.85 11.2)"/><path stroke-width=".05" stroke-opacity=".651" stroke-linejoin="round" stroke-linecap="round" stroke="#ba5e02" fill="none" d="m23.7 8.5-4.1.7m-4.2 5.45q2.8-1.05 5.9-1.55 2.75-.15 6.45.85-1.35-3.2-4.05-5.45"/><path stroke-width=".05" stroke-opacity=".651" stroke-linejoin="round" stroke-linecap="round" stroke="#ba5e02" fill="none" d="M22.65 10.5q-1.75-.25-4.05.65m4.05-.65q.9.1 1.7.6"/><path fill-rule="evenodd" fill="#7cd100" d="M-7.15 2.2h.05-.05" transform="translate(13.85 11.2)"/><path fill-rule="evenodd" fill="#ff991e" d="M-2.1 1.05-3.45 3.1l1.35-2.05m-5 1.15Q-4.75.7-2.5.1l1.25-.25L-.1.1q3.2.9 4.6 3-4-.55-7.95 0-1.3-1.05-3.65-.9" transform="translate(13.85 11.2)"/><path fill-rule="evenodd" fill="#ffe3a4" d="M4.5 3.1q-5 1-9.05 4.1-.9-2.75-2.6-5h.05q2.35-.15 3.65.9 3.95-.55 7.95 0" transform="translate(13.85 11.2)"/><path stroke-width=".05" stroke-opacity=".651" stroke-linejoin="round" stroke-linecap="round" stroke="#ba5e02" fill="none" d="m10.4 14.3 1.35-2.05m6.6 2.05q-5 1-9.05 4.1-.9-2.75-2.6-5"/><path fill-rule="evenodd" fill="#ec8200" d="M-3.35-6.4q-.35-1.75 2.9-4l3.8 3.25q-3.45-.2-6.5 1.3l-.2-.55" transform="translate(13.85 11.2)"/><path fill-rule="evenodd" fill="#9c5c00" d="m6.5-5.05 4.7 1Q9.35-.95 7.85-.35L5.2.15q2.6-2.9 1.3-5.2m-13.35.5q.55 2.75 3 5.05l-2.7-.05q-1.5-.25-4.3-3.35l4-1.65" transform="translate(13.85 11.2)"/><path fill-rule="evenodd" fill="#997654" d="M-6.45-3q.75-4.65 2.85-7.8Q-2.1-7 1.3-4.5-5.5-.65-6.45-3" transform="translate(13.85 11.2)"/><path stroke-width=".05" stroke-opacity=".6" stroke-linejoin="round" stroke-linecap="round" stroke="#ba5e02" fill="none" d="M7.4 8.2q.75-4.65 2.85-7.8 1.5 3.8 4.9 6.3"/><path fill-rule="evenodd" fill="url(#A)" d="M-3.35.85Q-5.7.4-6.7-1.55q-.75-4.25.7-6.6.35 5.4 2.65 9" transform="translate(13.85 11.2)"/><path fill-rule="evenodd" fill="#ac855e" d="M-6-8.15q1.6 4.85 5 9.1l-2.35-.1q-2.3-3.6-2.65-9" transform="translate(13.85 11.2)"/><path fill-rule="evenodd" fill="#fff1d1" d="M2.55-11.2h.05-.05" transform="translate(13.85 11.2)"/><path fill-rule="evenodd" fill="url(#B)" d="M2.55-11.2h.05q3.15 3.55 3.45 7.95-.6 1-1.45.85.85-3.7-2.05-8.8" transform="translate(13.85 11.2)"/><path fill-rule="evenodd" fill="#ac855e" d="M4.6-2.4q-2.85.35-6.95-1.35 4-2.85 4.9-7.45 2.9 5.1 2.05 8.8" transform="translate(13.85 11.2)"/><path fill-rule="evenodd" fill="url(#C)" d="M5.95-8.8q1.6 2.65 1.1 6.95Q6.05.2 3.3.05q2-2.5 2.65-8.85" transform="translate(13.85 11.2)"/><path fill-rule="evenodd" fill="#ac855e" d="M5.95-8.8Q5.3-2.45 3.3.05l-1.9-.3q3.2-3.8 4.55-8.55" transform="translate(13.85 11.2)"/><path fill-rule="evenodd" fill="#ffd919" d="M2.8-1.55Q1.65-.35 0-.35t-2.85-1.2Q-4-2.7-4-4.35t1.15-2.85Q-1.65-8.35 0-8.35q1.65 0 2.8 1.15Q4-6 4-4.35q0 1.65-1.2 2.8" transform="translate(13.85 11.2)"/><path fill-rule="evenodd" fill="#fff8df" d="M2.3-6q-.05.4-.45.4T.95-6q-.4-.35-.65-.85t-.2-.9q.1-.35.5-.35l.85.35.75.9q.25.5.1.85" transform="translate(13.85 11.2)"/><path fill-rule="evenodd" fill="url(#D)" d="M-.35 1.35-3.6.9Q-3-2.45 0-6.05 3.1-4.4 4.4.25q-2.2 1.1-4.75 1.1" transform="translate(13.85 11.2)"/><path fill-rule="evenodd" fill="#834801" d="M5.5-1.75 6.75-.2Q2.6 1.9 1.35 1.55 4.1-.1 5.5-1.75m-10.85.2q1.6 1.65 4.5 3.3Q-2.1 2.1-6.45 0l1.1-1.55" transform="translate(13.85 11.2)"/></g><g id="q"><path fill-rule="evenodd" fill="url(#E)" d="M14.15 0q-2.25-2.6-5.8-4.2 3.35 1.2 7.05.95Q17.45-.8 14.15 0" transform="translate(-8.1 4.45)"/><path stroke-width=".5" stroke-opacity=".42" stroke-linejoin="round" stroke-linecap="round" stroke="#767603" fill="none" d="M6.05 4.45Q3.8 1.85.25.25q3.35 1.2 7.05.95"/></g><g id="P"><path fill-rule="evenodd" fill="#e5c59a" d="M-8.4-1.25q-.15-2.35-2.05-5.9 3 .05 9.15 1.85l-7.1 4.05" transform="translate(13.85 11.2)"/><path stroke-width=".05" stroke-linejoin="round" stroke-linecap="round" stroke="#9e8769" fill="none" d="M5.45 9.95Q5.3 7.6 3.4 4.05q3 .05 9.15 1.85"/><path fill-rule="evenodd" fill="#e5c59a" d="M0-5.15q5.25-1.7 10.25-2.1-2 4.25-2.1 7.3L0-5.15" transform="translate(13.85 11.2)"/><path stroke-width=".05" stroke-linejoin="round" stroke-linecap="round" stroke="#9e8769" fill="none" d="M13.85 6.05q5.25-1.7 10.25-2.1-2 4.25-2.1 7.3"/><path fill-rule="evenodd" fill="#e5c59a" d="m-8.8-2.85 3.4 1.35 1.35 1.25.5 2.35q-1.75-.65-3.85-.75l-1.4-4.2" transform="translate(13.85 11.2)"/><path fill-rule="evenodd" fill="#fff5e0" d="m-7.4 1.35-6.45.4q1.1-2.65 5.05-4.6l1.4 4.2" transform="translate(13.85 11.2)"/><path stroke-width=".05" stroke-linejoin="round" stroke-linecap="round" stroke="#9e8769" fill="none" d="m6.45 12.55-6.45.4q1.1-2.65 5.05-4.6"/><path fill-rule="evenodd" fill="#e5c59a" d="m5.75-2 4.1-.7-1.05 2-1.35 2.6q-3.1.5-5.9 1.55Q1.4.8 5.75-2m-1 1.95q2.3-.9 4.05-.65-1.75-.25-4.05.65" transform="translate(13.85 11.2)"/><path fill-rule="evenodd" fill="#fff5e0" d="M7.45 1.9 8.8-.7q.9.1 1.7.6-.8-.5-1.7-.6l1.05-2q2.7 2.25 4.05 5.45-3.7-1-6.45-.85" transform="translate(13.85 11.2)"/><path stroke-width=".05" stroke-linejoin="round" stroke-linecap="round" stroke="#9e8769" fill="none" d="m23.7 8.5-4.1.7m-4.2 5.45q2.8-1.05 5.9-1.55 2.75-.15 6.45.85-1.35-3.2-4.05-5.45"/><path stroke-width=".05" stroke-linejoin="round" stroke-linecap="round" stroke="#9e8769" fill="none" d="M22.65 10.5q-1.75-.25-4.05.65m4.05-.65q.9.1 1.7.6"/><path fill-rule="evenodd" fill="#7cd100" d="M-7.1 2.2h-.05.05" transform="translate(13.85 11.2)"/><path fill-rule="evenodd" fill="#e5c59a" d="M4.5 3.1q-4-.55-7.95 0-1.3-1.05-3.65-.9 3-1.9 5.85-2.35 4.1.8 5.75 3.25m-6.6-2.05L-3.45 3.1l1.35-2.05" transform="translate(13.85 11.2)"/><path fill-rule="evenodd" fill="#fff5e0" d="M-7.15 2.2h.05q2.35-.15 3.65.9 3.95-.55 7.95 0-5 1-9.05 4.1-.9-2.75-2.6-5" transform="translate(13.85 11.2)"/><path stroke-width=".05" stroke-linejoin="round" stroke-linecap="round" stroke="#9e8769" fill="none" d="M6.7 13.4q1.7 2.25 2.6 5 4.05-3.1 9.05-4.1m-7.95 0 1.35-2.05"/><path fill-rule="evenodd" fill="#b3946d" d="M-3.35-6.4q-.35-1.75 2.9-4l3.8 3.25q-3.45-.2-6.5 1.3l-.2-.55M-6.55.45q-1.5-.25-4.3-3.35l4-1.65q.55 2.75 3 5.05l-2.7-.05M5.2.15q2.6-2.9 1.3-5.2l4.7 1Q9.35-.95 7.85-.35L5.2.15" transform="translate(13.85 11.2)"/><path fill-rule="evenodd" fill="#866742" d="M-6.45-3q.75-4.65 2.85-7.8Q-2.1-7 1.3-4.5-5.5-.65-6.45-3" transform="translate(13.85 11.2)"/><path stroke-width=".05" stroke-linejoin="round" stroke-linecap="round" stroke="#694e34" fill="none" d="M7.4 8.2q.75-4.65 2.85-7.8 1.5 3.8 4.9 6.3"/><path fill-rule="evenodd" fill="url(#F)" d="M-3.35.85Q-5.7.4-6.7-1.55q-.75-4.25.7-6.6.35 5.4 2.65 9" transform="translate(13.85 11.2)"/><path fill-rule="evenodd" fill="#866742" d="M-6-8.15q1.6 4.85 5 9.1l-2.35-.1q-2.3-3.6-2.65-9" transform="translate(13.85 11.2)"/><path fill-rule="evenodd" fill="#fff1d1" d="M2.55-11.2h.05-.05" transform="translate(13.85 11.2)"/><path fill-rule="evenodd" fill="url(#G)" d="M2.55-11.2h.05q3.15 3.55 3.45 7.95-.6 1-1.45.85.85-3.7-2.05-8.8" transform="translate(13.85 11.2)"/><path fill-rule="evenodd" fill="#866742" d="M4.6-2.4q-2.85.35-6.95-1.35 4-2.85 4.9-7.45 2.9 5.1 2.05 8.8" transform="translate(13.85 11.2)"/><path fill-rule="evenodd" fill="url(#H)" d="M5.95-8.8q1.6 2.65 1.1 6.95Q6.05.2 3.3.05q2-2.5 2.65-8.85" transform="translate(13.85 11.2)"/><path fill-rule="evenodd" fill="#866742" d="M5.95-8.8Q5.3-2.45 3.3.05l-1.9-.3q3.2-3.8 4.55-8.55" transform="translate(13.85 11.2)"/><path fill-rule="evenodd" fill="#ffd919" d="M0-.35q-1.65 0-2.85-1.2Q-4-2.7-4-4.35t1.15-2.85Q-1.65-8.35 0-8.35q1.65 0 2.8 1.15Q4-6 4-4.35q0 1.65-1.2 2.8Q1.65-.35 0-.35" transform="translate(13.85 11.2)"/><path fill-rule="evenodd" fill="#fff8df" d="M2.3-6q-.05.4-.45.4T.95-6q-.4-.35-.65-.85t-.2-.9q.1-.35.5-.35l.85.35.75.9q.25.5.1.85" transform="translate(13.85 11.2)"/><path fill-rule="evenodd" fill-opacity=".302" fill="#876642" d="M2-1.05q-4.75 1.3-5.7-2 1.2-2.1 1.9-2.55 1.8 1.85 5.55 3L2-1.05" transform="translate(13.85 11.2)"/><path fill-rule="evenodd" fill="url(#I)" d="M-.35 1.35-3.6.9Q-3-2.45 0-6.05 3.1-4.4 4.4.25q-2.2 1.1-4.75 1.1" transform="translate(13.85 11.2)"/><path fill-rule="evenodd" fill="#a18562" d="M5.5-1.75 6.75-.2Q2.6 1.9 1.35 1.55 4.1-.1 5.5-1.75M-6.45 0l1.1-1.55q1.6 1.65 4.5 3.3Q-2.1 2.1-6.45 0" transform="translate(13.85 11.2)"/></g><g id="e"><path fill-rule="evenodd" fill="url(#J)" d="m3.3 12.25-4.75-.75-8.3-1.4-.75-.2q-2.8-.8-3.1-1.9-.15 1.1-.25-2.2Q-14 2.5-9.2-1.6q4.8-4.1 10.6-4.55 5.8-.4 10 4.2 4.15 4.55 4.65 8.9.55 4.45-.05 6.5l-1.05 2.45q-.45.45-2.2-2.5l-1.7-1.9Q8.8 9.7 4.5 8.25-1.9 6.1.95 9.65q1.4 1.85 2.35 2.6" transform="translate(14.1 9.7)"/><path stroke-width=".5" stroke-opacity=".4" stroke-linejoin="round" stroke-linecap="round" stroke="#4d4b02" fill="none" d="m17.4 21.95-4.75-.75-8.3-1.4-.75-.2Q.8 18.8.5 17.7q-.15 1.1-.25-2.2Q.1 12.2 4.9 8.1 9.7 4 15.5 3.55q5.8-.4 10 4.2 4.15 4.55 4.65 8.9.55 4.45-.05 6.5m-12.7-1.2q.85.8 1.3.6"/><path fill-rule="evenodd" fill-opacity=".251" fill="#fff" d="m2.55-1.55.2.35q.15.15.4.15l.4-.15.2-.35-.2-.3-.4-.15q-.25 0-.4.15l-.2.3M8.4-.05q2.8 3.7 2.8 9.2l-.15 2.35Q8.8 9.7 4.5 8.25-1.9 6.1.95 9.65q1.4 1.85 2.35 2.6l-4.75-.75-8.3-1.4-.75-.2q-1.05-.5-1.75-2.5-.95-2.7 4.7-6.6 5.6-3.95 9.35-4.3 3.75-.3 6.6 3.45m-11.15 2.2-.2-.4-.4-.15q-.25 0-.4.15l-.2.4.2.35.4.15.4-.15.2-.35M.65.95q.4-.35.4-.85t-.4-.9Q.2-1.15-.4-1.15q-.6 0-1 .35-.4.4-.4.9t.4.85q.4.4 1 .4T.65.95m1.6 2-.15-.5-.4-.2-.4.2-.15.5.15.5.4.2.4-.2.15-.5" transform="translate(14.1 9.7)"/><path fill-rule="evenodd" fill="url(#K)" d="M-5.3-.45q.25-3.85-2.75-9l6.2 6.2Q-2.05.5-5.3-.45" transform="translate(14.1 9.7)"/><path stroke-width=".5" stroke-opacity=".42" stroke-linejoin="round" stroke-linecap="round" stroke="#767603" fill="none" d="M8.8 9.25q.25-3.85-2.75-9l6.2 6.2"/></g><g id="f"><path fill-rule="evenodd" fill="url(#L)" d="M10.6-6.85Q2.4-3.4 2.9-.55-1.65-1.3 1-4.85q.85.9 9.6-2" transform="translate(0 8.5)"/><path stroke-linejoin="round" stroke-linecap="round" stroke="#767603" fill="none" d="M11.95-8 10.6-6.85l1.95-.45" transform="translate(0 8.5)"/><path stroke-width=".5" stroke-opacity=".42" stroke-linejoin="round" stroke-linecap="round" stroke="#767603" fill="none" d="M10.6 1.65Q2.4 5.1 2.9 7.95M1 3.65q.85.9 9.6-2"/></g><g id="k"><path fill-rule="evenodd" fill="#600" d="M-8.05 6.75q.5-1.7 3.4-2.05-2.5-.25-3.65 1.75l.25.3m-3.1-.75.2-.2Q-11 3.6-12 3.2q.9.85.85 2.8" transform="translate(12.1 -3.1)"/><path stroke-width=".2" stroke-opacity=".412" stroke-linejoin="round" stroke-linecap="round" stroke="#600" fill="none" d="M4.05 3.65q.5-1.7 3.4-2.05-2.5-.25-3.65 1.75l.25.3M.95 2.9Q1 .95.1.1q1 .4 1.05 2.6l-.2.2"/></g><g id="l" fill-rule="evenodd"><path fill-opacity=".322" fill="#3a2612" d="M158.7 113.45q-18.75-5.85-4.65 4.5 8.4 6.2 13.75 13.45 6.75 9.05 8.75 19.85 1.6 13.8-11.1 16-16.45.15-20.2 19.6-5.3 24.15 15.9 23.6 26.15-4.2 33.7-27.15 4.9-34.15-14.4-54.7-12.95-12.35-21.75-15.15" transform="translate(-52.2 -111.35)"/><path fill-opacity=".482" fill="#fff" d="M60.25 136.6q-10.6 17.65-7.25 40 5.1 5.35 8.95 0-2.8-15.05 6.05-36-.75-9.35-7.75-4m12.5 60.05q-5.55-6-8.5-12-6.7-3.7-8.25 1.75 1.75 8 8 13.6 11.45 5.8 8.75-3.35" transform="translate(-52.2 -111.35)"/></g><g id="R" fill-rule="evenodd" fill-opacity=".482"><path fill="#6c9dce" d="M36.65 22.65q.55 2 2.6 2 2.8 0 2.8-4.7 0-4.55-2.75-4.05-2.8.5-2.8 4.75l.15 2M37.7 10.5q0-3.6-5.55-6.25-5.55-2.7-5.55 1.7 0 .35 3.95 3.85 3.9 3.5 4.35 3.5 1.45 0 2.2-.95.6-.8.6-1.85m-.6-4.8q6.4 5.7 6.4 13.8 0 8.1-6.4 13.8Q30.75 39 21.75 39t-15.4-5.7Q0 27.6 0 19.5q0-8.1 6.35-13.8Q12.75 0 21.75 0T37.1 5.7"/><path fill="#babfe7" d="M37.7 10.5q0 1.05-.6 1.85-.75.95-2.2.95-.45 0-4.35-3.5-3.95-3.5-3.95-3.85 0-4.4 5.55-1.7Q37.7 6.9 37.7 10.5m-1.05 12.15-.15-2q0-4.25 2.8-4.75 2.75-.5 2.75 4.05 0 4.7-2.8 4.7-2.05 0-2.6-2"/></g><use xlink:href="#M" width="27.75" height="18.4" id="g"/><use xlink:href="#N" width="27.75" height="18.4" id="h"/><use xlink:href="#O" width="27.75" height="18.4" id="p"/><use xlink:href="#P" width="27.75" height="18.4" id="d"/><use xlink:href="#j" width="77.6" height="77.6" id="i"/><use xlink:href="#Q" width="77.6" height="77.6" id="j"/><use xlink:href="#R" width="43.5" height="39" id="m"/><use xlink:href="#S" width="102.95" height="45" id="V"/><path stroke-linejoin="round" stroke-linecap="round" stroke="#d2c57b" fill="none" d="m133.05 111.35.15 2.7" transform="translate(-132.55 -110.85)" id="a"/><path fill-rule="evenodd" fill-opacity=".282" fill="#2b1700" d="M22.85-.05q0 4.75-6.7 8.1Q9.45 11.4 0 11.4q-9.5 0-16.2-3.35-6.7-3.35-6.7-8.1 0-4.7 6.7-8.05 6.7-3.35 16.2-3.35 9.45 0 16.15 3.35 6.7 3.35 6.7 8.05" transform="translate(22.9 11.45)" id="b"/><path fill-rule="evenodd" fill-opacity=".349" fill="#f69" d="M77.6 38.8q0 16.05-11.4 27.4-11.35 11.4-27.4 11.4-16.05 0-27.45-11.4Q0 54.85 0 38.8q0-16.05 11.35-27.45Q22.75 0 38.8 0q16.05 0 27.4 11.35 11.4 11.4 11.4 27.45" id="Q"/><path fill-rule="evenodd" fill-opacity="0" fill="#f0f" d="M102.95 45H0V0h102.95v45" id="S"/></defs><path fill="none" d="M-1-1h242v250H-1z"/><use x="130" y="230" xlink:href="#T" width="381" transform="translate(-192.55 -294)" height="381"/><use xlink:href="#U" width="258.75" transform="translate(-20.244 -5.041) scale(1.0582)" height="243.05"/><use x="106.566" y="206.038" xlink:href="#V" width="102.95" transform="matrix(1.2199 0 0 1.1163 -68.1 -162.9)" height="45"/></svg>