<svg width="328" height="255" xmlns="http://www.w3.org/2000/svg" xmlns:xlink="http://www.w3.org/1999/xlink"><defs><radialGradient spreadMethod="pad" r="819.2" id="d" gradientUnits="userSpaceOnUse" gradientTransform="matrix(.0119 -.0554 -.1453 -.003 104.75 53.95)" cy="0" cx="0"><stop offset=".38"/><stop stop-opacity="0" stop-color="#2b362d" offset="1"/></radialGradient><radialGradient spreadMethod="pad" r="819.2" id="e" gradientUnits="userSpaceOnUse" gradientTransform="matrix(.0025 -.0158 -.0414 -.0008 -121.2 -2.15)" cy="0" cx="0"><stop offset=".38"/><stop stop-opacity="0" stop-color="#2b362d" offset="1"/></radialGradient><radialGradient spreadMethod="pad" r="819.2" id="f" gradientUnits="userSpaceOnUse" gradientTransform="matrix(.014 -.0867 -.2272 -.0047 9.85 20.55)" cy="0" cx="0"><stop offset=".38"/><stop stop-opacity="0" stop-color="#2b362d" offset="1"/></radialGradient><g id="h" stroke-opacity="0" stroke-linejoin="round" stroke-linecap="round" stroke="#f0f" fill="none"><path d="M187.95-293.5v380h-380v-380h380M92.95.6H-97" transform="translate(192.55 294)"/><path d="m187.95-293.5-190 190 190 190m-379.95 0 189.95-190-190-190" transform="translate(192.55 294)"/></g><g transform="translate(137.1 106.3)" id="i"><use xlink:href="#a" width="440.95" transform="matrix(.6185 .0035 0 .6185 -136.386 -106.277)" height="341.05"/><use xlink:href="#b" width="247.65" transform="translate(-137.1 -105.8)" height="190.95"/></g><g id="c"><path fill-rule="evenodd" fill="url(#d)" d="M223.5 49.7q-28.9 4.3-14.4 20.4-39.75 3.1-46.15 21.25-36.55-6.05-52.8 9.25-21-15.3-57.05-7.7-.2-18.45-49.6-20.45 8.25-21.65-29.2-24.8 57.55 1.8 55.2-10.25 32.8-.05 27.1-18.45Q93.65 31 116.15 14.5q4.4 30.35 80.5 14.6-3.35 14.6 26.85 20.6" transform="translate(217.45 240.45)"/><path fill-rule="evenodd" fill="url(#e)" d="M-142.85-6.9q9.3 0 7.4-5.25 10.75 3.45 16.9-1.25 1.7 8.65 23.1 4.15-.75 4.15 7.95 5.85-8.15 1.25-3.75 5.85-11.3.85-12.85 6.05-10.5-1.75-14.85 2.65-6.2-4.4-16.35-2.2-.35-5.3-14.45-5.85 2.05-6.15-8.65-7.05 16.4.5 15.55-2.95" transform="translate(217.45 240.45)"/><path fill-rule="evenodd" fill="url(#f)" d="M24.4-41.2q9.45 47.55 126.95 22.9Q147.3 4.5 195 13.9q-44.8 6.75-20.8 31.95-61.8 4.85-70.3 33.2-57.6-9.45-81.65 14.5Q-11.8 69.6-67.45 81.5q-1.95-28.85-79.25-32 11.15-33.85-47.65-38.8 90 2.8 85.35-16.05 51.2-.1 40.8-28.85 58.85 18.85 92.6-7" transform="translate(217.45 240.45)"/><path fill-rule="evenodd" fill="#3e3e22" d="M-21.15-38.65Q-35.3-43.6-53-28.85l12.25-17.65 8.35-5.4h-6.35l-5.4-18.6-15.2-14.7 21.55 14.7 5.9 12.75 14.2 7.85 8.3-2.5-11.75 13.75" transform="translate(217.45 240.45)"/><path stroke-opacity=".412" stroke-linejoin="round" stroke-linecap="round" stroke="#000" fill="none" d="M-21.15-38.65Q-35.3-43.6-53-28.85l12.25-17.65 8.35-5.4h-6.35l-5.4-18.6-15.2-14.7 21.55 14.7 5.9 12.75 14.2 7.85 8.3-2.5" transform="translate(217.45 240.45)"/><path fill-rule="evenodd" fill="#989852" d="m-136.65 29.95 3.8-5.05h8.25l12-13.3 12.05-29.1 16.7-19.15 14.3 3.8h16.45l21.35-3.9-35.9 11.65-12.05-3.8-19.6 19-6.35 18.95-6.95 13.3-8.25 5.7-6.95 6.35h-8.85v-4.45" transform="translate(217.45 240.45)"/><path fill-rule="evenodd" fill="#3e3e22" d="m-31.75-36.75 9.05-1.65-39.25 55.05-19 11.4h-39.9l8.25-5.7 6.95-13.3L-99.3-9.9l19.6-19 12.05 3.8 35.9-11.65" transform="translate(217.45 240.45)"/><path stroke-opacity=".412" stroke-linejoin="round" stroke-linecap="round" stroke="#000" fill="none" d="m-136.65 29.95 3.8-5.05h8.25l12-13.3 12.05-29.1 16.7-19.15 14.3 3.8h16.45l21.35-3.9 9.05-1.65-39.25 55.05-19 11.4h-39.9l-6.95 6.35m48.1-63.3 12.05 3.8 35.9-11.65" transform="translate(217.45 240.45)"/><path fill-rule="evenodd" d="M-11.95-41.55 17.8-29.5 31.15 4.2 25.4 39.45q-29.45-4.8-58.9 0l11.4 4.45q-27.95-4.35-47.45-.65l9.5-5.05Q-81.7 31-110.7 33.75l12.95-5.05-5.35-3.75 13.25-30.8Q-83.7-18.7-72.7-24.5l36.7-6.9 24.05-10.15" transform="translate(217.45 240.45)"/><path stroke-opacity=".412" stroke-linejoin="round" stroke-linecap="round" stroke="#000" fill="none" d="M-11.95-41.55 17.8-29.5 31.15 4.2 25.4 39.45q-29.45-4.8-58.9 0l11.4 4.45q-27.95-4.35-47.45-.65l9.5-5.05Q-81.7 31-110.7 33.75l12.95-5.05-5.35-3.75 13.25-30.8Q-83.7-18.7-72.7-24.5l36.7-6.9 24.05-10.15z" transform="translate(217.45 240.45)"/><path fill-rule="evenodd" fill="#ccc" d="m-53.35 21.65 2.8-7.5Q-40.4 7.1-25.85 9.1q-13.75 1.2-27.5 12.55" transform="translate(217.45 240.45)"/><path stroke-opacity=".412" stroke-linejoin="round" stroke-linecap="round" stroke="#000" fill="none" d="M-53.35 21.65Q-39.6 10.3-25.85 9.1q-14.55-2-24.7 5.05l-2.8 7.5-1 2.65" transform="translate(217.45 240.45)"/><path fill-rule="evenodd" fill="#ccc" d="m-77.85-4.75-1.95 2.2q-1.75 3-1.75 7.2t1.75 7.15q1.75 3 4.25 3t4.25-3q1.75-2.95 1.75-7.15l.3-.25 6.35 6.75q-.75 4-3.05 7.1Q-69.4 23-74.25 23q-4.85 0-8.3-4.75Q-86 13.55-86 6.85t3.45-11.45l2.4-2.55 2.3 2.4" transform="translate(217.45 240.45)"/><path fill-rule="evenodd" fill="#fff" d="M-69.55 4.65q0 4.2-1.75 7.15-1.75 3-4.25 3t-4.25-3q-1.75-2.95-1.75-7.15t1.75-7.2l1.95-2.2 8.3 8.85v.55m-3.5.2q0-1.9-.85-3.25-.8-1.35-2-1.35t-2.05 1.35q-.8 1.35-.8 3.25t.8 3.25q.85 1.35 2.05 1.35 1.2 0 2-1.35.85-1.35.85-3.25" transform="translate(217.45 240.45)"/><path fill-rule="evenodd" fill-opacity=".42" d="m-69.25 4.4-.3.25V4.1l.3.3" transform="translate(217.45 240.45)"/><path fill-rule="evenodd" fill="#900" d="M-73.05 4.85q0 1.9-.85 3.25-.8 1.35-2 1.35t-2.05-1.35q-.8-1.35-.8-3.25t.8-3.25Q-77.1.25-75.9.25q1.2 0 2 1.35.85 1.35.85 3.25" transform="translate(217.45 240.45)"/><path stroke-width="3" stroke-linejoin="round" stroke-linecap="round" stroke="#213424" fill="none" d="m139.6 235.7-2.3-2.4m17.25 18.3-6.35-6.75m-.3-.3-8.3-8.85m-4.3-4.55 2 2.15m17.25 18.3 3.55 2.9"/><path stroke-width="2" stroke-opacity=".412" stroke-linejoin="round" stroke-linecap="round" stroke="#000" fill="none" d="M147.9 245.1q0 4.2-1.75 7.15-1.75 3-4.25 3t-4.25-3q-1.75-2.95-1.75-7.15t1.75-7.2l1.95-2.2"/><path stroke-width="3" stroke-linejoin="round" stroke-linecap="round" stroke="#213424" fill="none" d="m137.3 233.3-2.4 2.55q-3.45 4.75-3.45 11.45 0 6.7 3.45 11.4 3.45 4.75 8.3 4.75 4.85 0 8.3-4.75 2.3-3.1 3.05-7.1"/><path fill-rule="evenodd" fill="#666637" d="m-19.8-89.2-.75-3.5q.8-1.3 1.35-3 1.2-3.7.7-5.85l-.1-.55-.5-.65-.5-.65-.2-.4-.5-.1q-1.6.55-1.75-.6l.5-1.8q.1-.6-.05-1.1l-.15-.65q.1-1.6-.9-2.35l-4.1-4.75-10.05-7.65-1.3-2.35-1.4-2.1q-3.8-12 2.2-21.3-5.75 18.85 11.9 28.8l11.95 11.95-.4-.25 6.95 8.9h5.7v-5.7l4.45 2.7-1.5 8.7-6.2.8-7-8.65-.65 7.95-4.3-5.05 1.15 16.3-4.55-7.1m1.95-27.1.2.05q4.85-4.65-3.15-22.15l7.6 9.5 1.35 1 .05.05 6.35 10.2-1.7 5.2-5.55-3.4-.05 3.8-5.1-4.25" transform="translate(217.45 240.45)"/><path fill-rule="evenodd" fill="#858161" d="M-20.55-92.7q-3.65-15.1-14.85-25.45-2.7-4.75-4.1-9.1l1.4 2.1 1.3 2.35 10.05 7.65 4.1 4.75q1 .75.9 2.35l.15.65q.15.5.05 1.1l-.5 1.8q.15 1.15 1.75.6l.5.1.2.4.5.65.5.65.1.55q.5 2.15-.7 5.85-.55 1.7-1.35 3" transform="translate(217.45 240.45)"/><path fill-rule="evenodd" fill="#3e3e22" d="m3.25-102.15 3.8 2.35 13.9-11.4 19.65-4.4-17.75 10.1Q6.5-98.05.1-80.8l-8.25 27.2-25.95 20.25 8.85-10.7 6.35-29.15q.4-8.55-.9-16l4.55 7.1-1.15-16.3 4.3 5.05.65-7.95 7 8.65 6.2-.8 1.5-8.7m-28.65-17.6q3.35 1.85 7.55 3.45l5.1 4.25.05-3.8 5.55 3.4 1.7-5.2-6.35-10.2 8.7 6.55v10.75l-3.8 6.95-6.55-4.2-11.95-11.95" transform="translate(217.45 240.45)"/><path stroke-opacity=".412" stroke-linejoin="round" stroke-linecap="round" stroke="#000" fill="none" d="m3.25-102.15 3.8 2.35 13.9-11.4 19.65-4.4-17.75 10.1Q6.5-98.05.1-80.8l-8.25 27.2M-34.1-33.35l8.85-10.7 6.35-29.15q.4-8.55-.9-16l-.75-3.5q-3.65-15.1-14.85-25.45-2.7-4.75-4.1-9.1-3.8-12 2.2-21.3-5.75 18.85 11.9 28.8 3.35 1.85 7.55 3.45l.2.05q4.85-4.65-3.15-22.15l7.6 9.5 1.35 1m.05.05 8.7 6.55v10.75l-3.8 6.95-6.55-4.2-.4-.25 6.95 8.9h5.7v-5.7l4.45 2.7-15.05-25.7z" transform="translate(217.45 240.45)"/><path fill-rule="evenodd" fill="#3e3e22" d="M-14.15-58.95 21.6-97.9 8.65-51.95l-2.25 7.8-23.45 20.3-14.4 5.05L-23.1-34l-9.85 4.2 11.4-12 7.4-17.15m20.2 10.5 2.6-3.5-2.6 3.5m-26.4 20.7-5.55 2.85 5.55-2.85m11.6-7.35-5.05 3.55 5.05-3.55m11.4-10.3-4.75 4.05 4.75-4.05" transform="translate(217.45 240.45)"/><path fill-rule="evenodd" fill="#989852" d="m-31.45-18.8 14.4-5.05-2.5 4.45-15.2 7.6-5.05-4.1 8.35-2.9M-79.7-35.25Q-64.55-23.7-44.85-16.6v3.5l-10.8-3.8-24.65-11.35q-5.7-3.5.6-7" transform="translate(217.45 240.45)"/><path fill-rule="evenodd" fill="#666637" d="m-14.15-58.95-7.4 17.15-11.4 12 9.85-4.2-8.35 15.2-8.35 2.9v-7.3l-5.05 6.6q-19.7-7.1-34.85-18.65l9.45 1.15 5.7 3.25-5.7-3.25 17.15 2.05 25.3-12.05 13.65-14.85m-38.2 33.7-5.8-2.75 5.8 2.75m11.05 3.45-5.5-1.8 5.5 1.8m10.9-1.35-6.05.95 6.05-.95" transform="translate(217.45 240.45)"/><path stroke-opacity=".412" stroke-linejoin="round" stroke-linecap="round" stroke="#000" fill="none" d="M8.65-51.95 21.6-97.9l-35.75 38.95L-27.8-44.1l-25.3 12.05-17.15-2.05-9.45-1.15m62.65 11.4L6.4-44.15l2.25-7.8m-53.5 35.35 5.05-6.6v7.3l5.05 4.1 15.2-7.6 2.5-4.45m-63.25-4.4 24.65 11.35 10.8 3.8v-3.5" transform="translate(217.45 240.45)"/><path stroke-linejoin="round" stroke-linecap="round" stroke="#b8bb9d" fill="none" d="m8.65-51.95.85-1.25m-.85 1.25-2.6 3.5M-58.15-28l5.8 2.75m-17.9-8.85 5.7 3.25m17.75 7.25 5.5 1.8m27.5-9.75 5.05-3.55M-25.9-24.9l5.55-2.85m-16.1 5.55 6.05-.95m28.3-18.2 4.75-4.05" transform="translate(217.45 240.45)"/><path fill-rule="evenodd" fill="#ac759c" d="M77.45-120.5q7.2-1.55 14.45.95l2.8-1.45 2.05 2.25.45 1.3-.35.7q-.55-1.3-2.9-1-9.1 1.5-17.1-1.15l.6-1.6m36.6 4.35q-11.55-1.55-18.65-9.1 6.8-2.3 13.55 2.05l5.1 7.05m33.55 19.9-3.8 2.65q-3.8-.05-6.25-1.8l-2-4.75 2.7-5.25q5.65 1.65 9.35 9.15m-87-30.7.05 3.4q-2.15 2.5-4.9 3.6l-5-.1-2.75-3.4q4.45-3.35 12.6-3.5M124.95-65q5.85 3.65 7.85 13.25l-5 1.7q-4.2-1.25-6.35-4.05-.55-2.9-.95-5.95l4.45-4.95m35.15 2.5q4.25 2.6 5.65 9.55l-3.7 1.3q-3.1-.9-4.65-2.9l-.45-2.85-.2-1.45 3.35-3.65" transform="translate(217.45 240.45)"/><path fill-rule="evenodd" fill="#744566" d="M76.85-118.9q8 2.65 17.1 1.15 2.35-.3 2.9 1l.35-.7-.45-1.3L94.7-121l-2.8 1.45q-7.25-2.5-14.45-.95l.2-.65-1.8-1.45 15.35-.6q2.1-1.35 4.2-2.05 7.1 7.55 18.65 9.1l4.1 5.6 6.6 3.15v3.05l-.75.9q-2.7 13.8 11.45 27.2 5.6 3.4 12.35.7l2.6 10.5q-1.55.1-2.35.95-3.05 6.3-1.3 13.8l-.35-.05-12.35-1.25 5.95-3.8 1.6.25q2.05.35 2.2-.8l-5.2-6.1q-9.15-11-20.2-14.4h1.1l5.95-.1q4.05.05 7 2.25-1.8-4.75-4.85-9.4-5.05-7.8-11.35-14.9l.45 1.6.9 2.6q1.15 2.75-.3 4.95l-1.6-1.05-.5-.6q-15.15-20.5-37.85-17.8l11.35 8.65q-22.45-7.35-45.4 2.7l1.8-1.9q6-4.85 10.1-7.8-10.65-.65-20.4 3.6-14.75 6.45-27.15 13.7l.1-.5 2.55-4.95 3.05-3.75 24.7-19 5.1-.25-.6.9.6-.9q1.3-1.75 3.55-3.95l1.3-1.1 2.75 3.4 5 .1q2.75-1.1 4.9-3.6l-.05-3.4 1.1-.05 3.85.4q5.45 1.95 3.45 5.8l-.05.15Q59.2-110.35 43-117.2l-.45-.3q-1.85 2.85-.85 4.2 9.75 6.05 28.5.65 4.75-2.25 6.65-6.25m22.6-.5 18.7 8.85-18.7-8.85m38.8 14-2.7 5.25 2 4.75q2.45 1.75 6.25 1.8l3.8-2.65.5 1 1.2 3.95q.15 6.7-5.3 7.75l-.2-.05q-11.35-.95-14-11.9-1.05-4.2-.8-9.75l.1-.65q2.9-.35 7.35.15l1.8.35M61.4-83.65l1.4-.8q5.55-2.7 11.3-4.45l-5.95-1.05q-8.5-1.45-15.15 0 .25-.3.6-.4 13.9-5.1 28.6-2.85l-.55 1.6 12.1 3q9 2.2 11.15 8.35h-.55l-3.75-.4q-2.4-.15-3.25.95l1.05 2.15 6.35 5.55 4.15 4.35-.25.2-.3.6q-16.9-18.8-42.8-16.35l1.95-1.4-6.1.95m53.6 15.1q3.25.55 8.05 2.55 1 .4 1.9 1l-4.45 4.95q.4 3.05.95 5.95 2.15 2.8 6.35 4.05l5-1.7.25 1.25.25 4.8q-1.7 7.6-8 6.95-7.45-2.8-10.45-8.65.85-2-.15-3.05l-9.15 6.5L96.3-26.6q-1.15 5.15-7.8 7.4L61.7-8.7q.85-.9 3.4-2.3 28.85-11.2 33.25-25.45 7.75-15.5 12.75-15.2l2.35.4q-1.05-4.15-.35-9.4v-.15q.45-3.3 1.55-7.05l.35-.7m-69.25-3.5v.3q-.75 8.7-6.8 15.4L34.3-50.7q-1.2-2 3.6-8.75l.3-.45q5.95-8.9 1.25-11.35 2.2-2.15 6.3-.8M36.7-88.5q-1.5.85-2.5 2.4l-1.25 2.05q-1 1.65-1.55 3.8l-5.45 3.95 5.35.35q10.65 2.7 27.45-9.9 1.75-.95 2.65-1.1L45.65-75.3q-3.7 3.05-7.35 1.8l-14.2-1.05-7.25 2.9.15.35q-5 3.1-8.85 7.8l.6-1.6Q16.7-84.7 36.7-88.5m-22.05 1.75Q6-82.1-.55-73.8l-.45.6Q.8-89.45 17.35-87.25l-2.7.5m138.1 21.8q2.45.35 5.95 1.75l1.4.7-3.35 3.65.2 1.45.45 2.85q1.55 2 4.65 2.9l3.7-1.3.2.9.1 2.85 1.75 2.55 6.95 3.8q4.25 12.15 0 22.15l-.6.5q-1.2-4.1-3.7-7.7-3.7-5.3-8.15-8.8 3.55-5.4 3.75-11.85-1.35 5.5-6 5.15l-1.95-.85q-3.35-1.65-5.05-4.3-3-4.55-1.5-12.05.3-1.85.95-3.85l.25-.5m13.3 15.75v.65-.65m-67.7 25.5q-.3 7.1 15.6 6.15l.8-.05q12.3-1 14.05 1.7L118-14.3q-13.2 2.55-25-2.45l-.4-.15q1.3-5.7 5.75-6.8m50.4-19.6.5-.2.35.75-.95-.2.1-.35" transform="translate(217.45 240.45)"/><path fill-rule="evenodd" fill="#5c3651" d="m77.45-120.5-.6 1.6q-1.9 4-6.65 6.25-18.75 5.4-28.5-.65-1-1.35.85-4.2l.45.3q16.2 6.85 25.95-3.45l.05-.15q2-3.85-3.45-5.8 6.1.95 10.3 4l1.8 1.45-.2.65M10.3-95.4l-2.55 4.95-.1.5q12.4-7.25 27.15-13.7 9.75-4.25 20.4-3.6-4.1 2.95-10.1 7.8l-1.8 1.9q22.95-10.05 45.4-2.7l-11.35-8.65q22.7-2.7 37.85 17.8l.5.6 1.6 1.05q1.45-2.2.3-4.95l-.9-2.6-.45-1.6q6.3 7.1 11.35 14.9 3.05 4.65 4.85 9.4-2.95-2.2-7-2.25l-5.95.1h-1.1q11.05 3.4 20.2 14.4l5.2 6.1q-.15 1.15-2.2.8l-1.6-.25-5.95 3.8 12.35 1.25.35.05q-1.75-7.5 1.3-13.8.8-.85 2.35-.95l2.35.1-.25.5q-.65 2-.95 3.85-1.5 7.5 1.5 12.05 1.7 2.65 5.05 4.3l1.95.85q4.65.35 6-5.15-.2 6.45-3.75 11.85 4.45 3.5 8.15 8.8 2.5 3.6 3.7 7.7l-5.3 4.2-.2-9.15q-1.05 1.8-3.1 3-4.25 2.4-7.9 5.5-2.15 1.75-4.7 1.75-2.45-.2-4.85-1.05l.55 3.75.5.55.6.4 1.6.15h1.05l1.6.3 1.1.25-1.6 3.25q-2.95 1.7-5.7 3.95-4.6 3.8-10.2 6.4-5.2 2.35-10.05 4.75h2.7l6.95-1q3.35-.8 6.05-2.25l-3.4 4.25q-4.95 6.25-11.7 10.4l-10.85 6.45-5.95.55-5.3 1.05-4.5.6-3.7-.6q.05 1.5 1.5 2.3 2.05 1.25 4.45 2.05l4.3.65 7.05-.65-1.1.55q-2.95 2-6.35 3.5l-7.25 3.25-6.95 2.95h10.3l3.75-1.1Q100.8 47.55 91 49.4q-8.3 1.5-16.05-1.65-4.65-1.9-7.9-4.8l.45-.2.6-.35 1.3-1.8.9-2.55h-3.25l-3.9-.1L58.3 37q-3.3-.7-4.75-2.15l1.15-1.05q1.75-2.9 3.65-5.5 1.85-2.55 2.3-5.25l.2-1.35L80 23.5q2.2-1.65 3.55-3.95l1.4-2.5.45-.6-11.9.55-13.25.55L60 17q-10.2 4.45-20.95 9.25-10.2 4.6-19.05 8.05l3.8 1.05h2.15L27 35.1l.75.15-.15.65q-1.3.55-3.45 1.8-3.85 2.3-8.45 3.05-5.35.5-9.75-1.6l-4.3-3.8 6.5-2.7-4.9-.5Q1.65 31.3 0 30.6q-3.95-1.85-6.75-5.15-4.15-4.85-7.25-10.6l.5-11.35 5.95 3.25-5.4-13 .55-3.75 7.45-11.15.2.15q2.65 1.75 5.1 4.2 4.4 4.5 9.95 6.8l-1.25-2.1q-12.8-18.35-13.1-41.15-.1-10.2 1.1-20.1 5.5-12.1 13.25-22.05m137.5 19.85q-6.75 2.7-12.35-.7-14.15-13.4-11.45-27.2l.75-.9q1.35-1.2 4.35-1.55l-.1.65q-.25 5.55.8 9.75 2.65 10.95 14 11.9l.2.05q5.45-1.05 5.3-7.75 1.85 7.85-1 15.5l-.5.25m-38.9 7.9L104.75-72l-6.35-5.55-1.05-2.15q.85-1.1 3.25-.95l3.75.4h.55q-2.15-6.15-11.15-8.35l-12.1-3 .55-1.6q-14.7-2.25-28.6 2.85-.35.1-.6.4 6.65-1.45 15.15 0l5.95 1.05q-5.75 1.75-11.3 4.45l-1.4.8-.7.1-.55.7v.05l-.25.15Q46.65-74.6 43.7-58.3l-.1.55-.25.8Q41.4-50 36.4-49.85h-.25v.05q1 3.8 4.75 2.85 4.95-4 6.05-11.1 3.7-14.35 18.6-25.15 25.9-2.45 42.8 16.35l.3-.6.25-.2q1.8-1.65 6.1-.9-4.3-.75-6.1.9M124.95-65q-.9-.6-1.9-1-4.8-2-8.05-2.55l-.35.7q-1.1 3.75-1.55 7.05v.15q-.7 5.25.35 9.4l-2.35-.4q-5-.3-12.75 15.2Q93.95-22.2 65.1-11q-2.55 1.4-3.4 2.3l26.8-10.5q6.65-2.25 7.8-7.4l9.25-17.35 9.15-6.5q1 1.05.15 3.05 3 5.85 10.45 8.65 6.3.65 8-6.95l-.25-4.8-.25-1.25q-2-9.6-7.85-13.25M113.8-33.25q5.5 5.8 14.15 4.6 5.2-7.65 5.35-17.05-.15 9.4-5.35 17.05-8.65 1.2-14.15-4.6m-68.05-38.8q-4.1-1.35-6.3.8 4.7 2.45-1.25 11.35l-.3.45q-4.8 6.75-3.6 8.75l4.65-5.65q6.05-6.7 6.8-15.4v-.3M36.7-88.5q-20 3.8-27.95 23.4l-.6 1.6Q12-68.2 17-71.3l-.15-.35 7.25-2.9 14.2 1.05q3.65 1.25 7.35-1.8L61.4-86.95q-.9.15-2.65 1.1-16.8 12.6-27.45 9.9l-5.35-.35 5.45-3.95q.55-2.15 1.55-3.8l1.25-2.05q1-1.55 2.5-2.4l2.25-.4 1.1-1.05-2.2.9-1.15.55m-22.05 1.75 2.7-.5Q.8-89.45-1-73.2l.45-.6Q6-82.1 14.65-86.75M5.3-41.35l.65-2.7L4.9-43l.4 1.65Q1.05-21.2 19.6-13.45l.95.2Q9.5-24.9 5.3-41.35m19.6 25.4q0 .8.25 1.55 6.5 21.35 28.4 29.25l2.15-.55 1.05-1.1q-3.05-.4-5.5-2.25Q35.7-.45 24.9-15.95M128.35-13v.05l-.05.05q-3.95 5.8-14.35 3.4l-1.25-.3-.75-.25Q88.45-17.6 68-7.35l-1.35.15L60.2.05q26.95-11.8 49.6-6.15 10 3.55 18.9.45 4.05-3.7-.15-7.5l-.05-.05-.15.2m22.35 35.95-1.85 12.1-.6.8-2.25-.2-3.85-.8q-4.1-1.15-5.95-1.1 1.65-1.6 3.65-2.5 3.35-1.3 6.65-3.4 1.95-1.15 3.25-3.3l.95-1.6M98.35-23.7q-4.45 1.1-5.75 6.8l.4.15q11.8 5 25 2.45l10.8-1.6q-1.75-2.7-14.05-1.7l-.8.05q-15.9.95-15.6-6.15m53.15-15.65q4 4.15 10.4 3.2l.4-.55-.4.55q-6.4.95-10.4-3.2m-2.75-3.95-.1.35.95.2-.35-.75-.5.2m-63.9 74.9-11.4-.4-3.7-1.25-2.7.55 2.7 1.65q7.25 2.6 14.55-.1l.55-.45M7.5 5.45q11.65 22.35 32.6 7.9-9.05 2.75-21.05-3.6-5.45-3-11.55-4.3l-.45-.9-1.1.55 1.55.35M-4.85.8Q-3 17.1 10.5 27.55q.6.5 1.4.8l3.8-.55Q4.4 22.2.35 7.55-.95 2.95-4.3.25l-.45.1-.25.4-.25.65-.1 1v.55l.5-2.15" transform="translate(217.45 240.45)"/><path fill-rule="evenodd" fill="#894589" d="m36.7-88.5 1.15-.55 2.2-.9-1.1 1.05-2.25.4" transform="translate(217.45 240.45)"/><path fill-rule="evenodd" fill="#4b254b" d="m36.3-49.85-.15.05v-.05h.15m-31 8.5L4.9-43l1.05-1.05-.65 2.7m123.25 28.2-.2.15.15-.2.05.05M84.85 31.6l-.55.45q-7.3 2.7-14.55.1l-2.7-1.65 2.7-.55 3.7 1.25 11.4.4M7.5 5.45 5.95 5.1l1.1-.55.45.9M-5 .75l.15.05-.5 2.15V2.4l.1-1L-5 .75" transform="translate(217.45 240.45)"/><path fill-rule="evenodd" fill="#47323e" d="m61.4-83.65 6.1-.95-1.95 1.4q-14.9 10.8-18.6 25.15-1.1 7.1-6.05 11.1-3.75.95-4.75-2.85l.15-.05h.1q5-.15 6.95-7.1l.25-.8.1-.55q2.95-16.3 16.2-24.35l.25-.15v-.05l.55-.7.7-.1M5.3-41.35q4.2 16.45 15.25 28.1l-.95-.2Q1.05-21.2 5.3-41.35m-8.25-32q-1.2 9.9-1.1 20.1.3 22.8 13.1 41.15L10.3-10Q4.75-12.3.35-16.8q-2.45-2.45-5.1-4.2l-.1-.35-.1.2L-12.4-10l-.55 3.75 5.4 13-5.95-3.25-.5 11.35q3.1 5.75 7.25 10.6 2.8 3.3 6.75 5.15 1.65.7 3.25 1.55l4.9.5-6.5 2.7 4.3 3.8q4.4 2.1 9.75 1.6 4.6-.75 8.45-3.05 2.15-1.25 3.45-1.8l.15-.65-.75-.15-1.05.25H23.8L20 34.3q8.85-3.45 19.05-8.05Q49.8 21.45 60 17l.25.55L73.5 17l11.9-.55-.45.6-1.4 2.5Q82.2 21.85 80 23.5l-19.15-1.8-.2 1.35q-.45 2.7-2.3 5.25-1.9 2.6-3.65 5.5l-1.15 1.05Q55 36.3 58.3 37l4.85.95 3.9.1h3.25l-.9 2.55-1.3 1.8-.6.35-.45.2q3.25 2.9 7.9 4.8Q82.7 50.9 91 49.4q9.8-1.85 16.55-8.65l-3.75 1.1H93.5l6.95-2.95 7.25-3.25q3.4-1.5 6.35-3.5l1.1-.55-7.05.65-4.3-.65q-2.4-.8-4.45-2.05-1.45-.8-1.5-2.3l3.7.6 4.5-.6 5.3-1.05 5.95-.55 10.85-6.45q6.75-4.15 11.7-10.4l3.4-4.25Q140.55 6 137.2 6.8l-6.95 1h-2.7q4.85-2.4 10.05-4.75 5.6-2.6 10.2-6.4 2.75-2.25 5.7-3.95l1.6-3.25-1.1-.25-1.6-.3h-1.05l-1.6-.15-.6-.4-.5-.55-.55-3.75q2.4.85 4.85 1.05 2.55 0 4.7-1.75 3.65-3.1 7.9-5.5 2.05-1.2 3.1-3l.2 9.15-2.95 2.3-5.7 12-8.55 5.15-4.1 2.45q-4.95 15.95-19.6 22.15V38.8l-8.15 15.25-1.35 2.5-15.85 9.5-17.1-7-22.75-3.5-8.55-6.8h6.2l7.05 3.95 11.6 3.05-21.35-14.4H41.4l5.55-8.15 5.3-3.5 5.85-5.85-21.4 9.75-4.25 5.8-14.4 6.45q-8.9 3.9-15.15.15l-7.3-4.75-4.7-6.9 8.2 2.75-7.5-6.1-7.7-10.6-5.7-15.7 4.15-10.2v-8.85l5.7-10.75v-21.55q3.35-14.45 9-26.7m-14.7 70.4V-5.5v2.55m42.55-13q10.8 15.5 26.35 26.9 2.45 1.85 5.5 2.25l-1.05 1.1-2.15.55q-21.9-7.9-28.4-29.25-.25-.75-.25-1.55m103.65 2.8q4.2 3.8.15 7.5-8.9 3.1-18.9-.45Q87.15-11.75 60.2.05l6.45-7.25L68-7.35q20.45-10.25 43.95-2.7l.75.25 1.25.3q10.4 2.4 14.35-3.4l.05-.05V-13l.2-.15m23.1 20.75v9.05l-.95 6.3-.95 1.6q-1.3 2.15-3.25 3.3-3.3 2.1-6.65 3.4-2 .9-3.65 2.5 1.85-.05 5.95 1.1l3.85.8 2.25.2-7.65 9.95-16.75 8.25 5.7-12.45 4.7-12.65 5-3.55 12.4-17.8M7.5 5.45q6.1 1.3 11.55 4.3 12 6.35 21.05 3.6Q19.15 27.8 7.5 5.45M-5 .75l.25-.4.45-.1q3.35 2.7 4.65 7.3Q4.4 22.2 15.7 27.8l-3.8.55q-.8-.3-1.4-.8Q-3 17.1-4.85.8L-5 .75" transform="translate(217.45 240.45)"/><path fill-rule="evenodd" fill="#1e151b" d="M151.65 3.45V7.6l-12.4 17.8-5 3.55-4.7 12.65-5.7 12.45h-4.05l8.15-15.25V28.05q14.65-6.2 19.6-22.15l4.1-2.45m-88.9 52.1-5.7-.9h-8.9q-5.4-2.45-10.8-4.95l-13.25 10H12.75l-6-6.6L.7 51.5-5 43.25l-5.25-5.75-.95-1-2.45-2.75.05-7.15-2.8-2.35-6.95-15.8 1.55-3.75 5.7 15.7L-8.4 31l7.5 6.1-8.2-2.75 4.7 6.9L2.9 46q6.25 3.75 15.15-.15l14.4-6.45 4.25-5.8 21.4-9.75-5.85 5.85-5.3 3.5-5.55 8.15h16.3l21.35 14.4-11.6-3.05-7.05-3.95-4.65-2.95H42.5l-5.15 3.9 5.15-3.9h13.25l4.65 2.95h-6.2l8.55 6.8m-56-2.45 6 1.55 21.5-8.25 3.15-6.95q4.8-3.15 9.55-6.25-4.75 3.1-9.55 6.25l-3.15 6.95-21.5 8.25-6-1.55M-13.6 26.6l5.2 4.4-5.2-4.4" transform="translate(217.45 240.45)"/><path fill-rule="evenodd" fill="#636" d="m128.35-13 .15-.2-.15.2m-133.3-8.15.1-.2.1.35-.2-.15" transform="translate(217.45 240.45)"/><path stroke-opacity=".412" stroke-linejoin="round" stroke-linecap="round" stroke="#000" fill="none" d="m43.15-118.4-5.1.25-24.7 19-3.05 3.75m140.1 30.35-2.6-10.5m-23.05-28.8v-3.05l-6.6-3.15-18.7-8.85m18.7 8.85-4.1-5.6-5.1-7.05q-6.75-4.35-13.55-2.05-2.1.7-4.2 2.05l-15.35.6m-78.8 49.25q-5.65 12.25-9 26.7v21.55l-5.7 10.75V-2.95m183.7-46.25 1.75 2.55 6.95 3.8q4.25 12.15 0 22.15l-.6.5-5.3 4.2-2.95 2.3-5.7 12-8.55 5.15V16.65l-.95 6.3-1.85 12.1-.6.8-7.65 9.95-16.75 8.25h-4.05l-1.35 2.5-15.85 9.5-17.1-7-22.75-3.5-5.7-.9h-8.9q-5.4-2.45-10.8-4.95l-13.25 10H12.75l-6-6.6L.7 51.5-5 43.25l-5.25-5.75m-.95-1-2.45-2.75.05-7.15-2.8-2.35-6.95-15.8 1.55-3.75 4.15-10.2M119.8 54.05l8.15-15.25V28.05q14.65-6.2 19.6-22.15l4.1-2.45M37.35 49.7l5.15-3.9h13.25l4.65 2.95 7.05 3.95m-20.5-19.5q-4.75 3.1-9.55 6.25l-3.15 6.95-21.5 8.25-6-1.55m40.2-19.9 5.3-3.5M-.9 37.1-8.4 31l-5.2-4.4m10.65-99.95q5.5-12.1 13.25-22.05" transform="translate(217.45 240.45)"/><path stroke-opacity=".4" stroke-linejoin="round" stroke-linecap="round" stroke="#000" fill="none" d="m77.45-120.5-.6 1.6q-1.9 4-6.65 6.25m-28.5-.65q-1-1.35.85-4.2l.6-.9m104.9 54.3q.8-.85 2.35-.95l2.35.1q2.45.35 5.95 1.75l1.4.7q4.25 2.6 5.65 9.55l.2.9.1 2.85M147.8-75.55q-6.75 2.7-12.35-.7M124-103.45l.75-.9q1.35-1.2 4.35-1.55m-53.25-16.7 1.8 1.45-.2.65m60.8 15.1-1.8-.35q-4.45-.5-7.35-.15m20.2 14.6-1.2-3.95-.5-1q-3.7-7.5-9.35-9.15M60.6-126.95l1.1-.05 3.85.4q6.1.95 10.3 4M48-123.45l-1.3 1.1q-2.25 2.2-3.55 3.95m4.85-5.05q4.45-3.35 12.6-3.5m48.05 59.5.25-.2q1.8-1.65 6.1-.9 3.25.55 8.05 2.55 1 .4 1.9 1 5.85 3.65 7.85 13.25l.25 1.25.25 4.8q-.15 9.4-5.35 17.05-8.65 1.2-14.15-4.6m35.5-58.05q1.85 7.85-1 15.5l-.5.25m18.25 27v-.65m-3.75 12.5-.4.55q-6.4.95-10.4-3.2m14.55-9.2q-.2 6.45-3.75 11.85" transform="translate(217.45 240.45)"/><path fill-rule="evenodd" fill="#666637" d="m22.4-117.45 2.35-.7 4.45 4.45L18.4-96Q15-83.05 22.85-74.5q9.55 4.8 13.95 13.15l-7.5-5.2-12.55-5 9.05 7.15-.4.05-3.8 9.5Q20.05-36.2 26-25.1q-2.9-2.5-5.25-8.75-3.15-13.35-2.7-23.3-2.8-10.25-7.95-15.2v5.5q-4.05-6.3-9-8.55l-9.05 13.3-4 11.5V-58l8.75-26.95.3 8.75 2.5-10.15L-3.05-96h-.05l.05-.05L-.9-97.7q4.7-6.4 9.4-10.85l.4.3-.35.1q-4.45 9.1 2.15 14.1 1.5 0 2.55-1 7.15-6.7 6.3-11.45l3.55-6.45-.05-1.2-.65-3.3M6.55-91.7l.45.45-2.2 3.1v4.1l1.15 1.8H8.3v-7.7L7-91.25l.75-1.05-1.2.6" transform="translate(217.45 240.45)"/><path fill-rule="evenodd" fill="#858161" d="M8.5-108.55q6.9-6.6 13.9-8.9l.65 3.3.05 1.2-3.55 6.45q.85 4.75-6.3 11.45-1.05 1-2.55 1-6.6-5-2.15-14.1l.35-.1-.4-.3M6.55-91.7l1.2-.6L7-91.25l1.3 1.3v7.7H5.95l-1.15-1.8v-4.1l2.2-3.1-.45-.45" transform="translate(217.45 240.45)"/><path fill-rule="evenodd" fill="#3e3e22" d="m36.8-61.35 1.25 2.7q-6.95-6.55-12-5.8l-.25.05-9.05-7.15 12.55 5 7.5 5.2m-16.05 27.5q-2.8-7.3-4.85-19.75Q9.35-68.4-1.85-64.35l-10.1 17.7v-3.95l4-11.5L1.1-75.4q4.95 2.25 9 8.55v-5.5q5.15 4.95 7.95 15.2-.45 9.95 2.7 23.3M-3.2-84.95l.1-.3V-96h.05l2.65 9.65-2.5 10.15-.3-8.75" transform="translate(217.45 240.45)"/><path stroke-opacity=".412" stroke-linejoin="round" stroke-linecap="round" stroke="#000" fill="none" d="M8.5-108.55q6.9-6.6 13.9-8.9l2.35-.7 4.45 4.45L18.4-96Q15-83.05 22.85-74.5q9.55 4.8 13.95 13.15l1.25 2.7q-6.95-6.55-12-5.8m-.25.05-.4.05-3.8 9.5Q20.05-36.2 26-25.1q-2.9-2.5-5.25-8.75-2.8-7.3-4.85-19.75Q9.35-68.4-1.85-64.35l-10.1 17.7V-58l8.75-26.95.1-.3V-96l.05-.05L-.9-97.7q4.7-6.4 9.4-10.85L25.8-64.4z" transform="translate(217.45 240.45)"/><path fill-rule="evenodd" fill="#e0e3d0" d="M-138.05-26.05-139.4-28l6.1-5.8-.75-2.9 7.45-3.65 3.45 2.5-2.75 9 .75 2.1-12.9.7" transform="translate(217.45 240.45)"/><path fill-rule="evenodd" fill="#b8bb9d" d="m-125.15-26.75 2.45 8.3-5.55.3-2.2-4.2-4.95.35-2.65-4.05 12.9-.7" transform="translate(217.45 240.45)"/><path fill-rule="evenodd" fill="#9b9f77" d="m-122.7-18.45 2.15 7.6h-5q-.85-3.5-2.7-7.3l5.55-.3" transform="translate(217.45 240.45)"/><path fill-rule="evenodd" fill="#7e835c" d="m-120.55-10.85 1.95 6.6-6.55 1.55q.25-1.65.2-3.4-.05-2.3-.6-4.75h5m-4.1 4.75h-.3.3" transform="translate(217.45 240.45)"/><path stroke-width=".25" stroke-opacity=".451" stroke-linejoin="round" stroke-linecap="round" stroke="#000" fill="none" d="m79.4 214.4-1.35-1.95 6.1-5.8-.75-2.9 7.45-3.65 3.45 2.5-2.75 9 .75 2.1 2.45 8.3 2.15 7.6 1.95 6.6m-9.65-13.9q1.85 3.8 2.7 7.3m-2.7-7.3-2.2-4.2-4.95.35-2.65-4.05m12.9 23.35q.25-1.65.2-3.4-.05-2.3-.6-4.75"/><path stroke-opacity=".412" stroke-linejoin="round" stroke-linecap="round" stroke="#000" fill="none" d="M-118.6-4.25q4.85-.8 10.3.15m-16.65-2h.3m-.3 0h-5.4m5.2 3.4Q-131.8-1.4-135.8.9m17.2-5.15-6.55 1.55" transform="translate(217.45 240.45)"/><path fill-rule="evenodd" fill="#e0e3d0" d="M-217.35-156.45q5.75 2.15 11 4.8l7.45 4.25 20.8 22.55-.15 4.4 3.55 7.5-4.6 1.85 4.6-1.85.3-.2.6.65 6.3 6.85 5.3 11 .45 3.4q-4.75-3.45-9.9-6.35-3.1-8.25-7.4-12.95l-.25-.55-.5.05-2.05-1.55q.1-4.2-1.1-6.45-8.15-16.05-34.4-37.4m78.45 94.65 1.6 5 .8 3.35-3.85 4.2q-6.65-17.4-15.35-24.3l-.3-.45-.45.05-1.95-1.1q-.55-3.2-1.95-4.85l-2.1-2.5-4.35 4.5q-.95-5.9-2.15-10.9-9.85-8.6-26.45-18.85 5.25 1.6 10.15 3.55 3.6 1.45 7 3.1l21.2 16.75.55 3.25 4.15 5.6.2-.15.65.5 6.4 5.05 6.2 8.2m-23.55-20.6q-2.75-3.05-6.5-6.4 3.75 3.35 6.5 6.4M-206-60.2q13.35 10.5 20.9 9.9 1.05-.05 2.55-1.85l1 .85.1.45.25-.05q5.2 2.4 14.4-4.5l-.8 6.35-1.65 1.75-2.55 2.2-5.15.65-3.8-1.8-.35-.2v-.3l-3.5.5-1.55 1.9-12.6-6-3.15-3.7q-2.1-2.8-4.1-6.15m20.6-19.95 10 6.15 6.7 4.55 18.3 17.55-.25 1.9 2.95 4.55-4.3-.85 4.3.85.3.05.55.5 5.55 5.3 4.4 6.8.45 3.15-.1 2.05-5.25.45q-2.45-11.55-10-18.8l-.2-.35-.5-.15-1.8-1.45q.25-1.8-.8-3.25-6.85-10-30.3-29m4.3 33.4-.35-4.1.35 4.1M-156-74l3.65-1.4L-156-74" transform="translate(217.45 240.45)"/><path fill-rule="evenodd" fill="#fcffeb" d="m-174.7-112.95-3.55-7.5.15-4.4-20.8-22.55q14.05 8.55 24.2 21.2l2.35.3-.15 5.4q7.95 12.1 10.3 25.85l-5.3-11-6.3-6.85-.6-.65-.3.2m12.95 21.7q3.85 2.8 7.4 5.95l2 .15.7 4.1Q-143-72.1-138.9-61.8l-6.2-8.2-6.4-5.05-.65-.5-.2.15-4.15-5.6-.55-3.25-21.2-16.75q3.35 1.6 6.6 3.4 5.15 2.9 9.9 6.35M-171.8-45.1q-5.5 3.95-11.55 3.05l-1.95 2.35-.6-1.6q-6.75-2.25-12.85-9.05l12.6 6 1.55-1.9 3.5-.5v.3l.35.2 3.8 1.8 5.15-.65m24.1-.35-2.95-4.55.25-1.9-18.3-17.55q12.65 8.9 21.55 18.2l2.1 1-.35 2.3q6.9 8.25 8.5 15.15l-4.4-6.8-5.55-5.3-.55-.5-.3-.05" transform="translate(217.45 240.45)"/><path stroke-width=".25" stroke-opacity=".451" stroke-linejoin="round" stroke-linecap="round" stroke="#000" fill="none" d="M.1 84q26.25 21.35 34.4 37.4 1.2 2.25 1.1 6.45l2.05 1.55.5-.05 4.6-1.85m38.2 59.5-3.85 4.2q-6.65-17.4-15.35-24.3m-.3-.45-.45.05-1.95-1.1q-.55-3.2-1.95-4.85l-2.1-2.5-4.35 4.5q-.95-5.9-2.15-10.9-9.85-8.6-26.45-18.85m23.75 10.05q-3.1-8.25-7.4-12.95m5.25-1.95-.6-.65-.3.2m5.75 24.15q3.75 3.35 6.5 6.4m-43.55 22.2q13.35 10.5 20.9 9.9 1.05-.05 2.55-1.85l1 .85.1.45.35 4.1m-.1-4.15q5.2 2.4 14.4-4.5l-.8 6.35m-17.8-31.1q23.45 19 30.3 29 1.05 1.45.8 3.25l1.8 1.45.5.15 4.3.85m11.15 17.85-5.25.45q-2.45-11.55-10-18.8m-28.95-.3-.35-.2v-.3m29.6-28.3-.65-.5-.2.15-3.65 1.4m9.15 29.1-.55-.5-.3-.05"/><path fill-rule="evenodd" fill="#e0e3d0" d="M120.7-240.35q3 5.25 5.5 10.7l3.3 8.15 5.2 32.5-1.75 3.95-.5 8.85-3.75-.95 3.75.95h.25l.15.95 1.6 9.85-.7 13.05-2.1 6.5-1.6 4.15-5.8 1.95q6.5-23.3 4.4-36.75l.05-.65-.4-.25-.75-2.55q1.65-3.8 1.7-6.55.75-19.3-8.55-53.85m21.35 32.8q2.5 3.9 4.6 7.9l2.7 5.9 3.75 22.7-1.7 2.45-.7 6-3.35-1.1 3.35 1.1h.25l.1.7 1.15 6.85-1 8.8-2.05 4.2-1.6 2.65-5.2.65q6.45-15.1 4.95-24.5l.05-.45-.3-.2-.6-1.8q1.6-2.4 1.7-4.25 1.2-13.05-6.1-37.6m-27.4 23.9 2.9-7.15q2.25-5.1 5.05-10.55-7.3 25.7-5.05 34.25.2 1.25 2.35 1.4l-.65 2-.4.45.15.3q-1.25 8.5 7.4 13.25l-6.3 4.8-2.05-.4q-1.5-.4-2.7-1.05l-1.75-5.55.95-6.3.1-.6.3-.25-1.2-3.75-2.2-.15 3.1-20.7m4.2 20.4-3.9 4.2 3.9-4.2m-27.3-18.1q1.95-5.85 4.25-11.9 3.25-8.3 7.2-17-11.15 45.1-8.8 63.4.2 2.7 2.9 4.5l-.95 3.4-.5.7.1.55q-2.15 15.8 8.7 31.45L96-101.5q-1.4-1.05-2.6-2.25-1.9-1.85-3.4-4.05l-1.85-12.15 1.6-11.6.2-1.15.35-.25-1.3-8.2-2.8-1.85 5.35-38.35m4.1 43.1-5.35 5.3 5.35-5.3" transform="translate(217.45 240.45)"/><path fill-rule="evenodd" fill="#fcffeb" d="m132.45-176.2.5-8.85 1.75-3.95-5.2-32.5q6.1 15.85 8 33.25l1.45 1.6-2.2 4.85q.7 15.6-3 29.45l.7-13.05-1.6-9.85-.15-.95h-.25m18.25 13.6.7-6 1.7-2.45-3.75-22.7q5 11.45 6.25 23.5l1.2 1.25-2.05 3.05q.15 10.65-3.55 19.7l1-8.8-1.15-6.85-.1-.7h-.25m-35.35 16.25q-5-3-5.45-11.15l-2.7-.15 1.45-2.2q.7-10.2 6-23.8l-3.1 20.7 2.2.15 1.2 3.75-.3.25-.1.6-.95 6.3 1.75 5.55M90-107.8q-6.25-9.45-6.25-25.7l-3.45-2.3 1.95-3.25q1.6-19.5 9.3-42.3L86.2-143l2.8 1.85 1.3 8.2-.35.25-.2 1.15-1.6 11.6L90-107.8" transform="translate(217.45 240.45)"/><path stroke-width=".25" stroke-opacity=".451" stroke-linejoin="round" stroke-linecap="round" stroke="#000" fill="none" d="M338.15.1q9.3 34.55 8.55 53.85-.05 2.75-1.7 6.55l.75 2.55.4.25 3.75.95m-2.4 34.5-5.8 1.95q6.5-23.3 4.4-36.75m13.4-31.05q7.3 24.55 6.1 37.6-.1 1.85-1.7 4.25l.6 1.8.3.2 3.35 1.1m-3.15 23.2-5.2.65q6.45-15.1 4.95-24.5m-14.45-12-.15-.95h-.25m18.6 14.3-.1-.7h-.25m-28.1-38.75q-7.3 25.7-5.05 34.25.2 1.25 2.35 1.4l-.65 2-.4.45m.15.3q-1.25 8.5 7.4 13.25l-6.3 4.8M332.4 81.4l3.9-4.2m-15.85-47q-11.15 45.1-8.8 63.4.2 2.7 2.9 4.5l-.95 3.4-.5.7m.1.55q-2.15 15.8 8.7 31.45l-8.45 4.75m-5.7-31.45 5.35-5.3M332 82.25l.1-.6.3-.25m-25.2 27.5.2-1.15.35-.25"/><path fill-rule="evenodd" fill="#b8bb9d" d="M127.3-115.65 123.5-104l-6.05-3.5.9-6.55-5.4-3 .35-6.7 14 8.1" transform="translate(217.45 240.45)"/><path fill-rule="evenodd" fill="#e0e3d0" d="m113.3-123.75.05-3.25 10.85-2.75 1.45-4 10.65.85 1.65 5.35-9.75 8.85-.9 3.05-14-8.1" transform="translate(217.45 240.45)"/><path fill-rule="evenodd" fill="#9b9f77" d="m123.5-104-3.6 10.6-5.2-3.5q1.8-4.8 2.75-10.6l6.05 3.5" transform="translate(217.45 240.45)"/><path fill-rule="evenodd" fill="#7e835c" d="m119.9-93.4-3.05 9.15-8.05-2.6v-.05l2.85-3.9q1.7-2.8 3.05-6.1l5.2 3.5m-7.95 2.8-.3-.2.3.2" transform="translate(217.45 240.45)"/><path stroke-width=".25" stroke-opacity=".451" stroke-linejoin="round" stroke-linecap="round" stroke="#000" fill="none" d="m330.75 116.7.05-3.25 10.85-2.75 1.45-4 10.65.85 1.65 5.35-9.75 8.85-.9 3.05-3.8 11.65-3.6 10.6-3.05 9.15m.6-23.25.9-6.55-5.4-3 .35-6.7m4.15 16.25q-.95 5.8-2.75 10.6m-3.05 6.1q1.7-2.8 3.05-6.1m-5.9 10.05v-.05l2.85-3.9"/><path stroke-opacity=".412" stroke-linejoin="round" stroke-linecap="round" stroke="#000" fill="none" d="M116.85-84.25q5.7 2.5 10.65 7.35m-15.85-13.9.3.2m-3.15 3.7q-7.95-3-13.95-3.05m16.8-.85L106-94.55m10.85 10.3-8.05-2.6" transform="translate(217.45 240.45)"/><path fill-rule="evenodd" fill="#3e3e22" d="m164.35 3.8-8.75-7.1L145.25-5l.2 12.6L139.9.95l-6.85 1.65-2.7.65-6.1-7.25 11.85-.45L146.15-13q6.6 4.75 13.2-3.1l6.1-5.95-3.4 17.45q.55 3.95 2.3 8.4M130.2-.8l2.85 3.4-2.85-3.4" transform="translate(217.45 240.45)"/><path fill-rule="evenodd" fill="#666637" d="M133.05 2.6 139.9.95l5.55 6.65-.2-12.6 10.35 1.7 8.75 7.1q2.65 6.8 8.15 14.7l-8.6-3.65q19.85 24.35 16.15 39.1-5.65-15.15-16.65-23.1-11.05-8-11.05-10.95l-.15 3.1q4.9 12.9 1.45 19.05L144.85 57l1.1-4.35 3.45-14.1q-.05-12.75-7.95-22l-11.1-13.3 2.7-.65 2.35 2.8-2.35-2.8M157.9 11q4.95-2.65-3.35-8.15l-7-4.2Q150.85 9.9 157.9 11m-11.95 41.65 3.3-5.25-3.3 5.25m-1.65-36.6-5.2-6.25 5.2 6.25m6.25 14.05-2.45-8.7 2.45 8.7m.5 12.05.65-6.5-.65 6.5" transform="translate(217.45 240.45)"/><path stroke-opacity=".388" stroke-linejoin="round" stroke-linecap="round" stroke="#000" fill="none" d="m124.25-4 11.85-.45L146.15-13q6.6 4.75 13.2-3.1l6.1-5.95L169.6-26M118.7-3.8l5.55-.2 6.1 7.25m35.1-25.3-3.4 17.45q.55 3.95 2.3 8.4 2.65 6.8 8.15 14.7l-8.6-3.65q19.85 24.35 16.15 39.1-5.65-15.15-16.65-23.1-11.05-8-11.05-10.95l-.15 3.1q4.9 12.9 1.45 19.05L144.85 57l1.1-4.35 3.45-14.1q-.05-12.75-7.95-22l-11.1-13.3M157.9 11q-7.05-1.1-10.35-12.35l7 4.2q8.3 5.5 3.35 8.15" transform="translate(217.45 240.45)"/><path stroke-linejoin="round" stroke-linecap="round" stroke="#b8bb9d" fill="none" d="m133.05 2.6 2.35 2.8m-2.35-2.8L130.2-.8m21.5 36.45-.65 6.5M148.1 21.4l2.45 8.7M139.1 9.8l5.2 6.25m4.95 31.35-3.3 5.25" transform="translate(217.45 240.45)"/></g><path stroke-width="1.5" stroke-opacity=".498" stroke-linejoin="round" stroke-linecap="round" stroke="#000" fill="none" d="m225.9 26.05-2.85-4.9q4.55 15.2 3.8 23.25-.1 1.15-1.1 2.65l.4 1.1.2.15-.05.25q.95 5.8-3.05 15.15l3.2-.4 1-1.65 1.25-2.55q2.3-5.6 2.2-12.2l1.3-1.85-.75-.8q-.8-7.45-3.85-14.55l-1.7-3.65m-4.75 8-.9-1q-1.2-10.75-4.95-20.6l-2.05-5-3.4-6.7q5.75 21.4 5.3 33.35-.05 1.7-1.05 4.05l.45 1.6.25.15-.05.4q1.3 8.3-2.7 22.7l3.6-1.15 1-2.6 1.25-4q2.3-8.55 1.9-18.2l1.35-3m-10.1-9.15q-4.55 15.9-3.15 21.15.15.8 1.45.9l-.4 1.2-.25.3.1.2q-.8 5.25 4.6 8.2l-3.9 2.95-1.3-.25q-.9-.25-1.65-.65-3.1-1.9-3.35-6.9l-1.7-.15.9-1.3q.45-6.35 3.7-14.7l1.8-4.45 3.15-6.5m-12.15-5.55Q192 47.2 193.45 58.5q.15 1.65 1.8 2.8l-.55 2.1-.35.45.1.35q-.55 3.75.15 7.55 4-1.15 8 1.45l2.5 3.45.2-5.8 6.75-1.65.85-2.5 6.6.6 1.05 3.3-6.05 5.45-2.2 6.95.05.05v1.85q.85-.75 2.7-.95l4.55.15 1.1.2q3.5 1.05 5.8 5.7l.3.65.75 2.4q1.15 4.9-.6 9.6l-.35.15 1.65 6.5 1.45.1q1.5.2 3.65 1.05l.9.45q2.6 1.6 3.45 5.95l.15.55.05 1.75 1.1 1.6 4.3 2.4q2.6 7.5 0 13.7l-5.5 4.25-2.15 4.6-.2 1.05q.3 2.45 1.4 5.2 1.65 4.2 5.05 9.1l-5.3-2.3 3.6 4.8q2.35 3.3 3.85 6.3 3.85 7.65 2.5 13.15-2.9-7.8-8.05-12.5l-.6-.55-1.65-1.3q-6.8-5-6.85-6.8l-.05 1.9q3 8 .85 11.8l-5.4 9.2 2.8-11.35-.2-3.05-.15.85-5.1 6.65-10.35 5.05-2.5-.05-.85 1.55-9.8 5.8-10.55-4.35-17.6-2.85H165l-6.7-3.1-8.2 6.1h-7l-3.75-4.15-3.7-1-3.55-5.1-3.4-3.75q-7.1.15-14.2 1.3l7.05 2.8q-17.3-2.8-29.35-.6l5.85-3.05q-13.4-4.55-31.3-2.95l8-3.1-.55-.4-13.75-.05-4.3 3.9-5.45-.05v-2.75l2.35-3.1h5.1l7.4-8.15 7.5-17.95 10.3-11.8 3.85 1.05 5.9.75-.1-.25 1.25.4 8.1.5 1.75-.3.4-.2 5.5-7.9 5.15-3.3h-3.9l-3.35-11.55-9.4-9.15 13.35 9.2 3.6 7.85 5.35 3 2.7-12.5q.25-5.25-.55-9.85l-.45-2.2q-2.25-9.35-9.2-15.8-1.65-2.95-2.5-5.65-2.4-7.4 1.35-13.15-3.55 11.65 7.35 17.85 2.05 1.15 4.65 2.15l.15.05q2.95-2.85-1.95-13.7l4.7 5.9.85.6v.05l5.4 4.1v6.65l-2.35 4.25-4.3-2.75 4.3 5.5 3.5.05v-3.55l2.45 1.5 3.55-3.75q4.3-4.05 8.6-5.45l1.45-.4 2.75 2.75-.3.45 2.25-.45 3.55-2.75 3.15-.1 2.2-2.45.8-.7q2.75-2.05 7.8-2.1h.65l2.4.25q3.75.6 6.35 2.5l5.4-.2q-.5-3-.5-6.5l-2.15-1.45 1.25-2q.95-12.05 5.75-26.1 1.15-3.65 2.6-7.35 2-5.15 4.45-10.5m9.5 59.55q-1.45-.85-2.85-1.65l2.65 3.7.2-2.05M28.6 70.5l-1.45-.15q-6.3-7.9-14.95-13.2L7.6 54.5Q4.3 52.8.75 51.45q16.25 13.3 21.3 23.3.75 1.35.7 4l1.25.95.3-.05.2.35q2.65 2.9 4.55 8.05l-4.1-2.15-4.3-1.95-6.3-2.2Q24.65 88.1 30.7 93.5q.75 3.1 1.35 6.75l2.7-2.75 1.3 1.55q.85 1 1.2 2.95l1.2.75.3-.05.15.25q5.4 4.3 9.5 15.1l2.4-2.6-.5-2.05-1-3.1q-2.55-6.4-7.9-11.95L41 95.8l-1.25-.1-4.6-3.7-.25-2.1q-1.45-8.55-6.4-16l.1-3.4M7.8 111.05q8.25 6.55 12.95 6.2.65-.05 1.55-1.15l.65.55.05.25h.15q3.2 1.5 8.9-2.75l-.5 3.9-1.05 1.1-1.55 1.35q-3.4 2.45-7.15 1.85l-1.2 1.45-.35-1q-4.2-1.4-7.95-5.65l-1.95-2.3-2.55-3.8m49.55 19.65 4.5 15.25-4.05.95.15-2.1-.35-2.9-.05-.05q-.55-2.2-1.65-4.5l-1.4-2.6-3.05.15-2.2-3.35-1.75.15q-1.5-7.15-6.15-11.65l-.15-.2-.3-.1-1.15-.9q.15-1.15-.45-2-4.3-6.25-18.75-18.1l6.2 3.85 4.15 2.85q7.8 5.55 13.3 11.35l1.3.6-.2 1.45q4.25 5.1 5.25 9.4l.2 1.3 2-1.9-.45-1.8 4.6-2.25 2.15 1.55-1.7 5.55" id="b"/><path fill-rule="evenodd" fill-opacity="0" fill="#f0f" d="M102.95 45H0V0h102.95v45" id="g"/><use xlink:href="#c" width="440.95" height="341.05" id="a"/><use xlink:href="#g" width="102.95" height="45" id="j"/></defs><path fill="none" d="M-1-1h330v257H-1z"/><g><use x="163" y="224" xlink:href="#h" width="381" transform="translate(-192.55 -294)" height="381"/><use x="135.777" y="186.589" xlink:href="#i" width="273.45" transform="translate(-161.845 -223.068) scale(1.2005)" height="212.5"/><use x=".553" y="-4.233" xlink:href="#j" width="102.95" transform="matrix(1.8072 0 0 1.6538 -2 139.1)" height="45"/></g></svg>