<svg width="107" height="137" xmlns="http://www.w3.org/2000/svg" xmlns:xlink="http://www.w3.org/1999/xlink"><defs><use xlink:href="#E" width="48.3" height="48.3" id="x"/><use xlink:href="#F" width="12.4" height="21.05" id="c"/><use xlink:href="#G" width="13.2" height="16.95" id="e"/><use xlink:href="#j" width="8.85" transform="matrix(.9176 -.006 -.2051 .7656 2.217 .038)" height="10.8" id="f"/><use xlink:href="#H" width="8.85" height="10.8" id="j"/><use xlink:href="#I" width="4.3" height="5.35" id="h"/><use xlink:href="#J" width="7.1" height="7.45" id="k"/><use xlink:href="#K" width="10.3" height="3.05" id="l"/><use xlink:href="#L" width="9.2" height="9.4" id="m"/><use xlink:href="#M" width="19.15" height="9.85" id="n"/><use xlink:href="#N" width="1.5" height="15.75" id="o"/><use xlink:href="#O" width="27.75" height="59.25" id="q"/><use xlink:href="#P" width="9.65" height="13.8" id="s"/><use xlink:href="#Q" width="15.25" height="13.05" id="u"/><use xlink:href="#R" width="97" height="97" id="w"/><use xlink:href="#S" width="100" height="40" id="X"/><g transform="translate(-80.2 -46.9)" id="V"><use xlink:href="#a" width="94.25" transform="matrix(2.1111 0 0 1.3188 80.218 296.428)" height="21.05"/><use xlink:href="#b" width="128.5" transform="translate(155.65 61.8)" height="259.75"/><use xlink:href="#c" width="12.4" transform="matrix(.0702 1.0614 1.0614 -.0702 199.373 192.502)" height="21.05"/><use xlink:href="#d" width="73.3" transform="translate(180.45 164.75)" height="143.95"/><use xlink:href="#c" width="12.4" transform="matrix(-.5135 -2.5237 -1.1841 .0509 198.057 303.165)" height="21.05"/><use xlink:href="#e" width="13.2" transform="matrix(-5.2141 -.205 .0856 -2.1763 236.575 320.258)" height="16.95"/><use xlink:href="#c" width="12.4" transform="translate(184.8 209.95)" height="21.05"/><use xlink:href="#c" width="12.4" transform="translate(160.9 171.85)" height="21.05"/><use xlink:href="#c" width="12.4" transform="matrix(.1227 -2.8553 -2.4318 -.1045 212.151 321.195)" height="21.05"/><use xlink:href="#c" width="12.4" transform="scale(1.0661 -1.0661) rotate(63.692 323.935 9.639)" height="21.05"/><use xlink:href="#c" width="12.4" transform="matrix(.0653 -1.5198 1.5336 .0659 222.72 307.734)" height="21.05"/><use xlink:href="#c" width="12.4" transform="matrix(-.0123 -1.5855 2.3803 .1541 212.152 315.92)" height="21.05"/><use xlink:href="#f" width="10.35" transform="matrix(-3.3956 .4153 -.473 1.6478 215.543 171.712)" height="8.3"/><use xlink:href="#g" width="12.6" transform="translate(219.95 136.05)" height="12.3"/><use xlink:href="#h" width="4.3" transform="matrix(-.6397 2.6157 2.6157 .6397 216.002 137.95)" height="5.35"/><use xlink:href="#i" width="14.95" transform="translate(197.1 130.2)" height="12.1"/><use xlink:href="#j" width="8.85" transform="matrix(-2.53 .9498 .9498 2.53 202.609 151.026)" height="10.8"/><use xlink:href="#k" width="7.1" transform="translate(170.738 152.565) scale(4.8626)" height="7.45"/><use xlink:href="#j" width="8.85" transform="matrix(-2.5377 .9389 .9389 2.5377 183.746 160.576)" height="10.8"/><use xlink:href="#l" width="10.3" transform="matrix(3.2219 -4.6681 4.2274 2.3735 170.367 155.181)" height="3.05"/><use xlink:href="#m" width="9.2" transform="matrix(2.2203 -.1526 .3228 2.0059 181.952 154.255)" height="9.4"/><use xlink:href="#n" width="19.15" transform="scale(-2.7906 2.7906) rotate(-19.55 41.651 269.732)" height="9.85"/><use xlink:href="#o" width="1.5" transform="rotate(14.999 -35.123 1109.791) scale(4.1161)" height="15.75"/><use xlink:href="#p" width="20.35" transform="matrix(-4.1161 0 0 4.1161 282.654 81.037)" height="12"/><use xlink:href="#n" width="19.15" transform="matrix(-2.7917 -.0239 -.0239 2.7917 222.249 77.265)" height="9.85"/><use xlink:href="#o" width="1.5" transform="matrix(-3.872 1.3929 1.2441 3.4582 249.257 59.432)" height="15.75"/><use xlink:href="#q" width="27.75" transform="matrix(.48 -.1541 .1541 .48 194.734 168.93)" height="59.25"/><use xlink:href="#q" width="27.75" transform="matrix(.4485 .2313 -.2313 .4485 193.66 166.362)" height="59.25"/><use xlink:href="#r" width="21.4" transform="translate(207 139.15)" height="21.4"/><use xlink:href="#s" width="9.65" transform="matrix(-.6397 2.6157 2.6157 .6397 188.523 126.832)" height="13.8"/><use xlink:href="#t" width="9.5" transform="translate(224.45 144.75)" height="5.3"/><use xlink:href="#u" width="15.25" transform="matrix(-.3154 .7627 -.7627 -.3154 241.566 151.288)" height="13.05"/><use xlink:href="#c" width="12.4" transform="matrix(-.079 .9966 -.9966 -.079 209.654 120.746)" height="21.05"/><use xlink:href="#c" width="12.4" transform="matrix(-.56 .8265 -.8265 -.56 211.109 119.427)" height="21.05"/><use xlink:href="#c" width="12.4" transform="matrix(-.56 .8265 -.8265 -.56 181.009 83.827)" height="21.05"/><use xlink:href="#c" width="12.4" transform="matrix(-.513 .2767 -.2767 -.513 199.372 72.196)" height="21.05"/><use xlink:href="#v" width="12.85" transform="translate(224.25 151.85)" height="10.6"/><use xlink:href="#w" width="97" transform="matrix(-.3133 .2243 -.2086 -.2913 241.859 152.599)" height="97"/><use xlink:href="#w" width="97" transform="matrix(.6778 .2812 -.1376 .3318 208.802 75.822)" height="97"/><use xlink:href="#w" width="97" transform="matrix(-.3302 .2365 -.2198 -.3071 223.679 187.074)" height="97"/><use xlink:href="#w" width="97" transform="matrix(-.2294 .1643 -.1527 -.2133 191.234 175.43)" height="97"/><use xlink:href="#w" width="97" transform="matrix(-.6834 -.1931 .2788 -.9868 257.52 324.423)" height="97"/></g><g transform="translate(46.65 9.95)" id="a"><use xlink:href="#x" width="48.3" transform="matrix(1.9322 0 0 .4121 -46.663 -9.952)" height="48.3"/><use xlink:href="#x" width="48.3" transform="matrix(.5766 0 0 .3444 7.374 -6.518)" height="48.3"/><use xlink:href="#x" width="48.3" transform="matrix(.5766 0 0 .3444 3.524 -6.518)" height="48.3"/><use xlink:href="#x" width="48.3" transform="matrix(.5766 0 0 .3444 -3.826 -9.968)" height="48.3"/><use xlink:href="#x" width="48.3" transform="matrix(.5766 0 0 .3444 19.724 -6.518)" height="48.3"/><use xlink:href="#x" width="48.3" transform="matrix(.5766 0 0 .3444 16.524 -5.518)" height="48.3"/><use xlink:href="#x" width="48.3" transform="matrix(.5766 0 0 .3444 -16.626 -6.518)" height="48.3"/></g><g id="F"><path fill-rule="evenodd" fill="#582c01" d="m-4.85-5.8 1.35-4.65 4.75 9.7.85 6.2 4 4.65-1 .4L-1 4.9l.05.45.8 4.85-.55-.65-4.75-5.95-.65-5.2 1.25-4.2m3.9 11.15-1.8-2.55 1.8 2.55" transform="translate(6.2 10.45)"/><path stroke-width=".25" stroke-linejoin="round" stroke-linecap="round" stroke="#582c01" fill="none" d="m7.45 9.7.85 6.2 4 4.65-1 .4-6.1-5.6.05.45M5.5 20 .75 14.05.1 8.85l1.25-4.2m2.1 8.6 1.8 2.55"/></g><g id="d"><path fill-rule="evenodd" fill="#fe8001" d="m207.4 232.35-.05.1v-.1h.05" transform="translate(-180.45 -164.75)"/><path fill-rule="evenodd" fill="url(#y)" d="m248.45 234.05-.65 2.25-.8-1.15 1.45-1.1m-3.5 45.45-.05.05-2.75-1.25 2.8 1.2" transform="translate(-180.45 -164.75)"/><path fill-rule="evenodd" fill="#582c01" d="m184.05 201.75-1.3-7.4-1.45-9.2-.85-8.45 3.25-11.95 9.2 2.55q2 6.35 5.2 12.25 3.4 6.15 8.2 11.8-3.3-2.8-6.15-3.95-6.8-2.8-11.3 3.2-1.2 1.65-2.25 3.9-1.45 3.05-2.55 7.25m28.7 100.9q-6.6 3-13.15 6.05l-3.45-3.95-1-7.9q-.55-2-.85-4.4-.85-6-.3-14.6 1.4-9.25 7.5-11.8-6.5 14.15 1.25 27.8-1.75-11.1 9-15.25-7.2 8.15-5 19.25l19.9-7q-2.4 6.15-13.9 11.8m-13-53.7q-4.4-9.35-7.8-19 5 11.6 9.85 14.5l-2.05 4.5" transform="translate(-180.45 -164.75)"/><path fill-rule="evenodd" fill="#864302" d="M184.05 201.75q1.1-4.2 2.55-7.25 1.05-2.25 2.25-3.9 4.5-6 11.3-3.2 1.55 3.9 2.35 11.95-12.6 6.8-6.7 19.05l13.15-1.6q-7.7 9.1-5.1 15.7l3.5-.15v.1q-2.7 6.85-3 12.95-.25 3.9.55 7.45l3.3 1.25q3.6-9.65 15.05-14.75-9.45 22.1-2.75 34.05 1.55 2.8 4.05 5.05 16.5-5.45 17.65-18.55 3.4 9.45-.05 18.4l2.75 1.25-2.25 5.25-14.55 10.95-15.35 6.9q11.5-5.65 13.9-11.8l-19.9 7q-2.2-11.1 5-19.25-10.75 4.15-9 15.25-7.75-13.65-1.25-27.8-6.1 2.55-7.5 11.8.75-10.05 3.3-23.6l2.45-5.3 2.05-4.5q-4.85-2.9-9.85-14.5-3.1-8.75-5.4-17.65-1.45-5.25-2.5-10.55m17.75 42.7 5.55-12-5.55 12" transform="translate(-180.45 -164.75)"/><path fill-rule="evenodd" fill="url(#z)" d="M200.15 187.4q2.85 1.15 6.15 3.95l.55.6q3.75 4.3 8.4 8.35 7.75 6.75 18 12.6l15.2 21.15-1.45 1.1.8 1.15q6.4 9.65 5.9 22.45l-8.75 20.75-2.8-1.2q3.45-8.95.05-18.4-1.15 13.1-17.65 18.55-2.5-2.25-4.05-5.05-6.7-11.95 2.75-34.05-11.45 5.1-15.05 14.75l-3.3-1.25q-.8-3.55-.55-7.45.3-6.1 3-12.95l.05-.1 2.4-5.4-2.4 5.4h-.05l-3.5.15q-2.6-6.6 5.1-15.7l-13.15 1.6q-5.9-12.25 6.7-19.05-.8-8.05-2.35-11.95m40.65 40.95q3.6 3.15 6.2 6.8-2.6-3.65-6.2-6.8" transform="translate(-180.45 -164.75)"/><path stroke-width=".05" stroke-linejoin="round" stroke-linecap="round" stroke="#ac5602" fill="none" d="M25.85 26.6q-4.8-5.65-8.2-11.8-3.2-5.9-5.2-12.25L3.25 0 0 11.95l.85 8.45 1.45 9.2L3.6 37m4.8-11.15q4.5-6 11.3-3.2 2.85 1.15 6.15 3.95l.55.6q3.75 4.3 8.4 8.35 7.75 6.75 18 12.6L68 69.3l-.65 2.25q6.4 9.65 5.9 22.45l-8.75 20.75-.05.05-2.25 5.25L47.65 131l-15.35 6.9q-6.6 3-13.15 6.05L15.7 140l-1-7.9q-.55-2-.85-4.4-.85-6-.3-14.6.75-10.05 3.3-23.6l2.45-5.3q-4.4-9.35-7.8-19-3.1-8.75-5.4-17.65Q4.65 42.3 3.6 37m62.95 33.4.8 1.15m-38-9.35-2.4 5.4-.05.1-5.55 12-2.05 4.5m47.25-13.8q-2.6-3.65-6.2-6.8"/></g><g id="H"><path fill-rule="evenodd" fill="#d95b00" d="m3.3-4.4 1.3.35L5-2V.75L.05 5.3l-3.7-2 .4-2.95 2.45 1.2q.6-2.5 2.9-4.1 1.1-.25 1.55 0 .8-1.05-.35-1.85" transform="translate(3.75 5.4)"/><path fill-rule="evenodd" fill="#d95b00" d="M3.3-4.4q1.15.8.35 1.85-.45-.25-1.55 0-2.3 1.6-2.9 4.1L-3.25.35l.25-1.7L-.1-5.3l3.4.9" transform="translate(3.75 5.4)"/><path stroke-width=".25" stroke-linejoin="round" stroke-linecap="round" stroke="#d95b00" fill="none" d="m8.75 3.4-.4-2.05L7.05 1 3.65.1.75 4.05.5 5.75"/><path stroke-width=".25" stroke-linejoin="round" stroke-linecap="round" stroke="#d95b00" fill="none" d="M.5 5.75.1 8.7l3.7 2 4.95-4.55V3.4L.5 5.75z"/></g><g id="J"><path fill-rule="evenodd" fill="#7e4001" d="m3.25-1.3.2.3-.75 3.3-1.15.6-1.5-.5Q-1 1.1.15-.1l1.8.4Q3-.5 3.25-1.3M1.4 2.1l.5-.6-.5.6" transform="translate(3.55 3.75)"/><path fill-rule="evenodd" fill="#582c01" d="m1.55 2.9-1.3.7L-3 2.45q-.8-1.65-.2-3L-2.6-2l.75-1.65h2.1l.5.15q-1.1.25-1.6 1.05l-.05.05-.05.8v.2l.85.95.25.35Q-1 1.1.05 2.4l1.5.5" transform="translate(3.55 3.75)"/><path fill-rule="evenodd" fill="#ac5602" d="M.75-3.5q1.45.55 2.5 2.2Q3-.5 1.95.3L.15-.1-.1-.45l-.85-.95v-.2l.05-.8.05-.05q.5-.8 1.6-1.05" transform="translate(3.55 3.75)"/><path stroke-width=".25" stroke-linejoin="round" stroke-linecap="round" stroke="#582c01" fill="none" d="m6.8 2.45.2.3-.75 3.3-1.15.6M.95 1.75 1.7.1h2.1l.5.15q1.45.55 2.5 2.2m-1.35 2.8-.5.6m.15.8-1.3.7L.55 6.2q-.8-1.65-.2-3l.6-1.45"/></g><g id="K" fill-rule="evenodd"><path fill="#582c01" d="M-2.65-.2v-.05l-.5.15-1.25.4-.2-.25q.15-.5-1-.15 1.35-.75 2.3-.9h.05l2.6-.35q2.45-.3 4.8 0h.1L4.7.7l-2.55.75Q.7.9-.75 1H-1Q-1.2.85.2-.4l-1.7-.1-.15.05-1 .25" transform="translate(5.6 1.5)"/><path fill="#ac5602" d="m-4.4.3 1.25-.4.5-.15v.05q-.65.6-.55 1.6l-.4.15L-4.4.3m2.75-.75.15-.05 1.7.1Q-1.2.85-1 1l-1.8.3q.5-1.45 1.15-1.75" transform="translate(5.6 1.5)"/><path fill="url(#A)" d="m-2.65-.2 1-.25q-.65.3-1.15 1.75l-.4.1q-.1-1 .55-1.6" transform="translate(5.6 1.5)"/></g><g id="M" fill-rule="evenodd"><path fill="#7e4001" d="m16.3-3.85 2.85-.3L14.7.9 6.1 3.25l-3.25.85H2.8L.55 1.55 3.1 1.2 2.7.4 5.9.05 5-.35l5.9-.55-2.25-.2 5-.2 1.6-.7q4.15-1.9 1.05-1.85" transform="translate(0 4.15)"/><path fill="#ac5602" d="M.55 1.55 0 .95l1.85-3.3 8.35-.9 6.1-.6Q19.4-3.9 15.25-2l-1.6.7-5 .2 2.25.2L5-.35l.9.4L2.7.4l.4.8-2.55.35" transform="translate(0 4.15)"/><path fill="#542a01" d="m6.1 3.25.95 2.45-4.2-1.6 3.25-.85" transform="translate(0 4.15)"/></g><g id="N" stroke-width=".75" stroke-linejoin="round" stroke-linecap="round" fill="none"><path stroke="#6c4300" d="m1 15.4-.35-2.75-.1-1.25-.05-.85-.05-.15v-.15"/><path stroke="#72540d" d="M.45 10.25v-.3L.35 8.4V6.9m0 0L.4 5.2"/><path stroke-opacity=".702" stroke="#725f1f" d="m.4 5.15.3-2.4"/><path stroke-opacity=".322" stroke="#725f1f" d="m.7 2.75.45-2.4"/><path stroke-opacity=".243" stroke="#0c141d" d="M.4 5.2v-.05"/></g><g id="p"><path fill-rule="evenodd" fill="#fff" d="m-4.15 9.4 1.2.25-.1.25-.55.7-.5-.7-.05-.5" transform="translate(12.95 1.4)"/><path fill-rule="evenodd" fill="#fff4dd" d="M-12.65 5.55q1.35-.5 2 .75l.2 2.2-.85.15-1.4-.85-.25-1.75.3-.5" transform="translate(12.95 1.4)"/><path fill-rule="evenodd" fill="#d29402" d="m-7.45 8.8 1.05.05-.45.45-.6-.5m3.25.25 1.5.05-.25.55-1.2-.25v-.1l-.05-.25" transform="translate(12.95 1.4)"/><path fill-rule="evenodd" fill="#7e4001" d="m-10.65 6.3.25-.35 3.6-.9-.15-.25q.3-.4 1.55-.55l-.3-.15h-.05l.25-.15 3.4-.8q.1-.2-.2-.2l-.15-.1.6-.2L1.2 1.6l-.7-.3L1.9.6.4.1l.85-.3.1-.1q-.75.15-1.7 0l-.05.05-.1-.2-1.15.2q-1.3.2-.55-.1.75-.3.65-.35L-2-.85l4.9-.5Q4.1-1.1 4.7-.2l1.85 4.6-1.05 1 .65-.1v.05Q5.45 6.4 5.4 6.8l-.25.4-2.2-.3-.15-.15-.2-.65-.4.6-.05.1L1 7.2q-1.6.7-2.5 1.3l-1.2.6-1.5-.05-2.2-.2-1.05-.05-3-.3-.2-2.2M2.7 5.75Q1.25 5.2.05 5.4q-.9.3-2.4 2.25 1.35-.8 5.05-1.9" transform="translate(12.95 1.4)"/><path fill-rule="evenodd" fill="#ac5602" d="M2.7 5.75q-3.7 1.1-5.05 1.9Q-.85 5.7.05 5.4q1.2-.2 2.65.35" transform="translate(12.95 1.4)"/><path fill-rule="evenodd" fill="#582c01" d="m1 7.2 1.15-.4.05-.1.4-.6.2.65.15.15 2.2.3.25-.4q.05-.4.75-1.45V5.3l-.65.1 1.05-1 .85 2.15-2.25 2.9L1 7.2" transform="translate(12.95 1.4)"/><path fill-rule="evenodd" fill="url(#B)" d="m-2-.85.45.15q.1.05-.65.35t.55.1l1.15-.2.1.2.05-.05q.95.15 1.7 0l-.1.1L.4.1l1.5.5-1.4.7.7.3-3.05 1.05-.6.2.15.1q.3 0 .2.2l-3.4.8-.25.15h.05l.3.15q-1.25.15-1.55.55l.15.25-3.6.9-.25.35q-.65-1.25-2-.75Q-5.9 1.85-4.8.65L-2-.85" transform="translate(12.95 1.4)"/><path stroke-width=".05" stroke-opacity=".373" stroke-linejoin="round" stroke-linecap="round" stroke="#582c01" fill="none" d="m6.55 10.25-.45.45-.6-.5m4.5.85.25-.55m-.25.55-.1.25-.55.7-.5-.7-.05-.5m0-.1-.05-.25"/><path stroke-width=".25" stroke-opacity=".631" stroke-linejoin="round" stroke-linecap="round" stroke="#a35332" fill="none" d="M.25 8.5q.3-.05.45.95m1.45-.4q-.5-.35-.95.65"/><path fill-rule="evenodd" d="M.9 5.05.65 5Q-.1 4.5-.7 4.75-1.25 5-1.65 6h-.8l-.95.2q2.35-2 3.2-2.1l1.95-.3L.9 5.05" transform="translate(12.95 1.4)"/></g><g id="O"><path fill-rule="evenodd" fill="#d27e02" d="M1.8-26.75q4.95-3.15 8 2.3Q14.9-13.2 13.65 1.5q-.85 9.7-6.05 20.3-1 2.25-.75 5.25-3.45 4.25-8.25 4.1L-4.2 19.2Q-8.65 8.5-6.65-1.5q2.3-13.9 8.45-25.25" transform="translate(13.75 28)"/><path fill-rule="evenodd" fill="#7e4001" d="m1.9-26.9-.1.15Q-4.35-15.4-6.65-1.5q-2 10 2.45 20.7l2.8 11.95-1.8-.5-2.6-5.4q-6.25-7.65-7.8-17.7-.5-9.05 2.75-18.85 5.1-9.5 12.75-15.6" transform="translate(13.75 28)"/><path stroke-width=".25" stroke-linejoin="round" stroke-linecap="round" stroke="#8f3901" fill="none" d="M15.55 1.25q4.95-3.15 8 2.3 5.1 11.25 3.85 25.95-.85 9.7-6.05 20.3-1 2.25-.75 5.25-3.45 4.25-8.25 4.1m-1.8-.5-2.6-5.4Q1.7 45.6.15 35.55-.35 26.5 2.9 16.7 8 7.2 15.65 1.1"/><path fill-rule="evenodd" fill-opacity=".49" fill="#feabab" d="M5.45-13.75q-.9 1.6-2.35 2.25l-2.4-.15q-.95-.8-.95-2.55 0-1.65.95-3.3.95-1.7 2.4-2.3 1.45-.65 2.35.2.95.75 1 2.45-.05 1.7-1 3.4" transform="translate(13.75 28)"/><path stroke-width=".05" stroke-opacity=".224" stroke-linejoin="round" stroke-linecap="round" stroke="#fc4747" fill="none" d="M19.2 14.25q-.9 1.6-2.35 2.25l-2.4-.15q-.95-.8-.95-2.55 0-1.65.95-3.3.95-1.7 2.4-2.3 1.45-.65 2.35.2.95.75 1 2.45-.05 1.7-1 3.4z"/><path fill-rule="evenodd" fill-opacity=".49" fill="#feabab" d="M5.9-8.85q0-1.65.95-3.3.95-1.7 2.4-2.3 1.45-.65 2.35.2.95.75 1 2.45-.05 1.7-1 3.4-.9 1.6-2.35 2.25-1.45.65-2.4-.15T5.9-8.85" transform="translate(13.75 28)"/><path stroke-width=".05" stroke-opacity=".224" stroke-linejoin="round" stroke-linecap="round" stroke="#fc4747" fill="none" d="M19.65 19.15q0-1.65.95-3.3.95-1.7 2.4-2.3 1.45-.65 2.35.2.95.75 1 2.45-.05 1.7-1 3.4-.9 1.6-2.35 2.25-1.45.65-2.4-.15t-.95-2.55z"/><path fill-rule="evenodd" fill-opacity=".49" fill="#feabab" d="M7.55-18.55q1.45-.65 2.35.2.95.75 1 2.45-.05 1.7-1 3.4-.9 1.6-2.35 2.25l-2.4-.15q-.95-.8-.95-2.55 0-1.65.95-3.3.95-1.7 2.4-2.3" transform="translate(13.75 28)"/><path stroke-width=".05" stroke-opacity=".224" stroke-linejoin="round" stroke-linecap="round" stroke="#fc4747" fill="none" d="M21.3 9.45q1.45-.65 2.35.2.95.75 1 2.45-.05 1.7-1 3.4-.9 1.6-2.35 2.25l-2.4-.15q-.95-.8-.95-2.55 0-1.65.95-3.3.95-1.7 2.4-2.3z"/><path fill-rule="evenodd" fill-opacity=".49" fill="#feabab" d="M1.65-7.05Q.75-5.45-.7-4.8l-2.4-.15q-.95-.8-.95-2.55 0-1.65.95-3.3.95-1.7 2.4-2.3 1.45-.65 2.35.2.95.75 1 2.45-.05 1.7-1 3.4" transform="translate(13.75 28)"/><path stroke-width=".05" stroke-opacity=".224" stroke-linejoin="round" stroke-linecap="round" stroke="#fc4747" fill="none" d="M15.4 20.95q-.9 1.6-2.35 2.25l-2.4-.15q-.95-.8-.95-2.55 0-1.65.95-3.3.95-1.7 2.4-2.3 1.45-.65 2.35.2.95.75 1 2.45-.05 1.7-1 3.4z"/><path fill-rule="evenodd" fill-opacity=".49" fill="#feabab" d="M-1.6 23.35q-.65-2.35-.05-5.05Q-1 15.5.8 14.05q1.8-1.5 3.4-.65 1.65.65 2.4 3.05.65 2.4 0 5.15-.6 2.6-2.35 4.15-1.8 1.5-3.5.75-1.6-.7-2.35-3.15" transform="translate(13.75 28)"/><path stroke-width=".05" stroke-opacity=".224" stroke-linejoin="round" stroke-linecap="round" stroke="#fc4747" fill="none" d="M12.15 51.35Q11.5 49 12.1 46.3q.65-2.8 2.45-4.25 1.8-1.5 3.4-.65 1.65.65 2.4 3.05.65 2.4 0 5.15-.6 2.6-2.35 4.15-1.8 1.5-3.5.75-1.6-.7-2.35-3.15z"/></g><g id="r"><path fill-rule="evenodd" fill="url(#C)" d="M225.25 142.25q3.15 3.15 3.15 7.6 0 4.45-3.15 7.55-3.1 3.15-7.55 3.15-4.45 0-7.6-3.15-3.1-3.1-3.1-7.55 0-4.45 3.1-7.6 3.15-3.1 7.6-3.1 4.45 0 7.55 3.1" transform="translate(-207 -139.15)"/><path stroke-width=".05" stroke-linejoin="round" stroke-linecap="round" stroke="#6b0303" fill="none" d="M18.25 3.1q3.15 3.15 3.15 7.6 0 4.45-3.15 7.55-3.1 3.15-7.55 3.15-4.45 0-7.6-3.15Q0 15.15 0 10.7q0-4.45 3.1-7.6Q6.25 0 10.7 0q4.45 0 7.55 3.1z"/><path fill-rule="evenodd" fill="url(#D)" d="M224.35 149.25q.55-2-6.2-9.4 6.2 2.7 8.65 9.3l-2.45.1" transform="translate(-207 -139.15)"/></g><g id="P"><path fill-rule="evenodd" fill="#ff9411" d="M-4.05 3.1h.1-.1" transform="translate(7.8 6.2)"/><path fill-rule="evenodd" fill="#ac5602" d="M-3-2.55q.4-.3 1.3.8l.6 1 .05.05-.25 2.1L-3-2.55m-.6 5.5.25 1.3q.25.7.9 1.05l1.15.3 1.8.25.05.2.1-.05.05.65.05.55-.85.4-.7-.1.15-1.35H-.9l-1.5-.3-1.05-.65 1.05.65L-3 6.9l-.9-.15-.55-.5 1-1.05-.1-.1-.05-.1-.4-1.15V3.1v.75l-1.3.3-.3-.2.45-.95 1.1.1h.1l.35-.15m4.15 3.1H-.6l-.05.1.05-.1H.55" transform="translate(7.8 6.2)"/><path fill-rule="evenodd" fill="#7e4001" d="m-1.9 2.45-.2.35h-.2l-.65-.05-.15-.25-.45.05-.1-.55.95-.05.8.5" transform="translate(7.8 6.2)"/><path fill-rule="evenodd" fill="#c16102" d="M-3.4-3.45h-.15Q-4.2-4.65-5-4.6q-1.2-.3-2.8 0l1.85-.55 1.6-.85 1.15-.15.7.45.45.1q.45.45.4 1.8-.1.95.3 1.8l.45.7.6-1.4.05.2.8 1.75.3.9L.8 1.4v.05l-.25.7-.05.1 1.35.85-.4.7.1 1.1-.1.75-.75 1L.65 6l-.1.05-.05-.2-1.8-.25-1.15-.3q-.65-.35-.9-1.05l-.25-1.3.65-.2.65.05h.2l.2-.35.6-1V1.4l.25-2.1-.05-.05-.6-1q-.9-1.1-1.3-.8l-.4-.9" transform="translate(7.8 6.2)"/><path stroke-width=".05" stroke-opacity=".373" stroke-linejoin="round" stroke-linecap="round" stroke="#582c01" fill="none" d="m4.4 2.75.4.9L6.5 7.6v.05l-.6 1-.2.35h-.2l-.65-.05-.65.2m4.3 3.7.75-1 .1-.75-.1-1.1.4-.7-1.35-.85.05-.1.25-.7m0-.05.05-1.25-.3-.9-.8-1.75-.05-.2-.6 1.4-.45-.7q-.4-.85-.3-1.8.05-1.35-.4-1.8L5.3.5M3.85 9.3h-.1m.05 0h.05l.35-.15m.65-.2L4.7 8.7l-.45.05-.1-.55.95-.05.8.5m-2.1 1.4.4 1.15.05.1.1.1 1.05.65 1.5.3h.25M3.8 9.3v.75l-1.3.3-.3-.2.45-.95 1.1.1m.6 2.1-1 1.05.55.5.9.15.6-1.05m2.95.2.1-.05.05.65m-1.35-.5.05-.1h1.15m-1.2.1L7 13.7l.7.1.85-.4-.05-.55"/></g><g id="t"><path fill-rule="evenodd" fill="#b15901" d="M231.25 144.95v1.85l1.25.8q-4 1.15-7.7 2.45l-.35-.7 6.15-3.1.65-1.3" transform="translate(-224.45 -144.75)"/><path fill-rule="evenodd" fill="#e4c170" d="m232.5 147.6-1.25-.8v-1.85l1.85-.2.85 2.05-1.45.8" transform="translate(-224.45 -144.75)"/><path stroke-width=".05" stroke-linejoin="round" stroke-linecap="round" stroke="#6b0303" fill="none" d="m6.8.2-.65 1.3L0 4.6l.35.7q3.7-1.3 7.7-2.45l1.45-.8L8.65 0 6.8.2z"/></g><g id="Q"><path fill-rule="evenodd" fill="#cc0" d="M-7.45 6.45q-1-3.5.85-8.8v.05q5.35-3.2 13.7-4-12 3.95-14.55 12.75" transform="translate(7.8 6.3)"/><path fill-rule="evenodd" fill="#b1b101" d="m7.1-6.3.35.1Q4.9 1.15.9 5.7q-3.8 1.65-8.35.75Q-4.9-2.35 7.1-6.3" transform="translate(7.8 6.3)"/><path stroke-width=".05" stroke-linejoin="round" stroke-linecap="round" stroke="#989701" fill="none" d="m14.9 0 .35.1Q12.7 7.45 8.7 12q-3.8 1.65-8.35.75-1-3.5.85-8.8V4Q6.55.8 14.9 0z"/></g><g id="W" stroke-opacity="0" stroke-linejoin="round" stroke-linecap="round" stroke="#f0f" fill="none"><path d="M200.7-15.4v220h-220v-220h220" transform="translate(19.8 15.9)"/><path d="m200.7-15.4-110 110 110 110m-220-220 110 110-109.95 110m164.95-72.35H35.75" transform="translate(19.8 15.9)"/><path d="M149 23v136.2H30.85V23H149z" transform="translate(19.8 15.9)"/></g><path d="m227.35 147.55-.35.05 1.2-2.5q1.75-.2 3.2 1.35l1.15 1.9q-2.8-1.1-5.2-.8m-5.05-6.4v.35l-2.35-1.45q0-1.75 1.65-3.05l2-.95q-1.35 2.65-1.3 5.1" transform="translate(-219.95 -136.05)" id="g" fill-rule="evenodd" fill="#874301"/><path d="M224.25 153.05q0-.5.25-.85l.6-.35q.4 0 .65.35l.25.85-.25.85q-.25.35-.65.35l-.6-.35-.25-.85m11.1 8.2q0-.5.25-.85t.6-.35q.4 0 .65.35l.25.85-.25.85q-.25.35-.65.35-.35 0-.6-.35t-.25-.85" transform="translate(-224.25 -151.85)" id="v" fill-rule="evenodd" fill="#fff"/><path fill-rule="evenodd" fill="url(#T)" d="M-17.1-17.1Q-10-24.15 0-24.15q10 0 17.05 7.05 7.1 7.1 7.1 17.1 0 10-7.1 17.05Q10 24.15 0 24.15t-17.1-7.1Q-24.15 10-24.15 0t7.05-17.1" transform="translate(24.15 24.15)" id="E"/><path stroke-width="3" stroke-linejoin="round" stroke-linecap="round" stroke="#652801" fill="none" d="m70.2 78.7 1.8.3q1.6.65 2 2l-1.5 1.75.1.55q1.35-.15 2.55.75l.45-.9 1.85-.2.85 2.05-1.45.8-.1.05q2.7.55 5.8 3.3h-.05q.75 5.1-1.25 11.7l-.2.25q-4.85-4.25-7-8.75-.05-3.2 1.8-6.2h-.1l-3.05.9.05 1q0 4.45-3.15 7.55-3.1 3.15-7.55 3.15-3.8 0-6.6-2.25l-2.35-.85-2.05.5-1.45-4-.3.05-1.9.25-.15-.05q-1.7 0-3.35-.75l-2.15-1.3-4-3.2-.5-.25 4.05-.65-1.6-1.65q-1.2-.95-2.55-1.45-.9 1.9-1.65 3.95l-.8 1.95-.65 2.2L36 92l2.55 1.15q1.7.65 3.4 1.75 2.35 1.45 3.95 3.25l3.1 2 6 11.2-.1.05q1.15 2.6 1.9 5.7 1.05 4.75.2 10.65-.15 1.25.45 2.65v.05l1.2.1 7.4 5.1-5.65-.5 6.35 6.05-.35 1.15-5.25-3.95-1.8-.15.25.25q7.75 6.75 18 12.6l15.2 21.15-.65 2.25q6.4 9.65 5.9 22.45L87 223l-11.5 8.65 2.35 5.6 4.6-1.95 9.5-.9 7.4-5.8.6 1.6-9 8.9 8.15-.95-7.35 5.35 2.45-.1 11-5.6 1.05 1.7L93 248.3l12.55-.55-15.65 7.35-12.3.3-15.5-4.1q-2.8-.15-5.9 0l.7.4-21.9 6.55-12.5-2.45-15.4-15.75 8.05 1.9 2.8-1.55-11-15.4 1.15-2.85 10.85 11.9 1.8.35-5.85-7.2 6.7 1.9-9.8-15.1v-2.6l7.55 9.85 7.75 1.9 6 4.9-1.9-6.65.85-.8 2.55 6.05 1.85 1.25 1.75-3.4q-.15-3.85.15-8.45.75-10.05 3.3-23.6l2.45-5.3q-4.4-9.35-7.8-19L34.85 164l-.5-.5.85 5.3-5.3-6.6-.65-5.2 1.75-6-.1-.5q-1.45-5.25-2.5-10.55l-1.3-7.4-.7-3.95-13.2-5.4.35 2.75 4 4.65-1 .4-6.1-5.6.85 5.3-5.3-6.6-.65-5.2 2.6-8.85.35.65-.1-.65 2.95-2.1 6.95-4.9 4.5-10.45q-.95 1.05-1.95 4.1 1.15-8 3.6-12.85l.15-.25 6.75-12.9.05-.1 1.1-1.9-.05-.15.3-.3 3.1-5.15-2.65.25 4.55-3.1 2.45-3.5-2.3-1.15-6.1.7.25-1.05 8.05-1.95-4.85-2.25 8.4-.65.4.2 3.2-7.95-.3.1 2.75-6.85-24.05-6.7-4.6-5.35-7.65-1.1L7.6 20l-6.1.7.25-1.05L9.8 17.7l-4.85-2.25 8.4-.65.55.3 7.25.85 17.05 1.8 7.35.85-3.5-8.8.3 1.35-5.1-3.65-2.15-2.95-3.35-1.25.4-.5 4.7 1.15-.2-.2-1.7-2.25 4.5 1.9.2.25-.4-1 7.2 3.45 15.5 7.25L75.8 20l6.25 1.5 11.4 6.2q2.4 2.7 11.8 8.45l13.1 7.55 7.45 4.05 1.2 2.15-.9 7.2-5.9 3.5-3.45-.6-12.35 1.15-2.4 2.15-1.95-1.85-8.95.7-.2 1.15v.4l-.2 1.95-2.05 3-2.3-3-1.5-3.2q-.95 0-4.85-2.45-3.95-2.5-10.4-5.35L52.5 63.9l-.25-.3-.2.55q-3.25 2.65-6 5.65 3.05 4.65 10.35 7.7l-.1.1 1.7-.4.3.8q1.75-.65 3.75-.65l2.3.25q.25-1.35 1.6-2.4l2-.95q-1.1 2.1-1.25 4.1l.7.4h.1l2.05.1m-14.6.75-.65.9-3.1-1.9-6.35-1.15 2.35-1.35-4.2-2.6q-1.2 1.55-2.25 3.25L40 77.8l-1 1.75.4.3 9.15 7 .2.1 2.8-.9v-.1l.05-.2-.65-2.15.75-2.45 1.3.6h.05l-.45 1.05.05.05q.7-1.3 1.8-2.4l.4-.35.1-.5" id="b"/><path fill-rule="evenodd" fill="#7e4001" d="m3.3-5.7.65 3.4L6.6.05l-4.15 5.9-.65 3.4Q-.4-2-2.85 11.25q.2-13-1.95-1.9L-6.6.05l1.3-3.45.15-.3q2.85 2.6 8.45-2" transform="translate(6.6 5.7)" id="G"/><path fill-rule="evenodd" fill="#874301" d="m1.45 3.8-1.9.05.1 2.3-.8-.25-.75.4q-.45-.25-.55-.9l.05-.65.1-.2V4.5l.15-.75.35-1.4.1-.2.65.15L-.7.95l.95.25.25 1.05 1.35.85-.4.7" transform="translate(2.45 -.95)" id="I"/><path fill-rule="evenodd" fill="#a94401" d="m209.95 142.3-3.1-1.9-6.35-1.15 2.35-1.35-5.75-3.55 3.8-4.15q2.8 5.6 11.15 9.1l-2.1 3" transform="translate(-197.1 -130.2)" id="i"/><path fill-rule="evenodd" fill-opacity=".498" fill="#ffb60b" d="m-2.7-3.75-1.45.05q1.1-1.2 3.05-1 2 .15 3.75 1.7Q4.4-1.5 4.9.45q.45 1.95-.65 3.2l-1.65 1 .05-.05q1.1-1.25.65-3.2-.5-1.95-2.25-3.45Q-.7-3.6-2.7-3.75" transform="translate(4.15 4.75)" id="L"/><path fill-rule="evenodd" fill="url(#U)" d="M34.3-34.3Q48.5-20.1 48.5 0q0 20.1-14.2 34.3Q20.1 48.5 0 48.5q-20.1 0-34.3-14.2Q-48.5 20.1-48.5 0q0-20.1 14.2-34.3Q-20.1-48.5 0-48.5q20.1 0 34.3 14.2" transform="translate(48.5 48.5)" id="R"/><path fill-rule="evenodd" fill-opacity="0" fill="#f0f" d="M100 40H0V0h100v40" id="S"/><linearGradient y2="-.289" y1="-.076" x2="-1.29" x1="-2.694" spreadMethod="pad" id="y"><stop stop-color="#ff9411" offset="0"/><stop stop-color="#fec987" offset="1"/></linearGradient><linearGradient y2=".26" y1=".69" x2="1.165" x1="-.064" spreadMethod="pad" id="z"><stop stop-color="#864302" offset=".196"/><stop stop-color="#ac5602" offset=".365"/><stop stop-color="#fedcbc" offset=".973"/></linearGradient><linearGradient y2="-.109" y1=".865" x2=".593" x1=".383" spreadMethod="pad" id="A"><stop stop-color="#ac5602" offset="0"/><stop stop-color="#582c01" offset="1"/></linearGradient><linearGradient y2="1.226" y1=".355" x2="-.328" x1=".651" spreadMethod="pad" id="B"><stop stop-color="#ac5602" offset="0"/><stop stop-color="#fedcbc" offset=".898"/></linearGradient><linearGradient y2=".885" y1=".328" x2=".821" x1=".404" spreadMethod="pad" id="D"><stop stop-opacity="0" stop-color="#980101" offset="0"/><stop stop-color="#980101" offset="1"/></linearGradient><radialGradient spreadMethod="pad" r="819.2" id="T" gradientUnits="userSpaceOnUse" gradientTransform="scale(.0306)" cy="0" cx="0"><stop stop-opacity=".447" stop-color="#884500" offset="0"/><stop stop-opacity="0" stop-color="#864400" offset="1"/></radialGradient><radialGradient spreadMethod="pad" r="819.2" id="C" gradientUnits="userSpaceOnUse" gradientTransform="translate(221.7 145.35) scale(.0204)" cy="0" cx="0"><stop stop-color="#f66" offset="0"/><stop stop-color="#c00" offset="1"/></radialGradient><radialGradient spreadMethod="pad" r="819.2" id="U" gradientUnits="userSpaceOnUse" gradientTransform="scale(.0596)" cy="0" cx="0"><stop stop-opacity=".329" stop-color="#eec86f" offset="0"/><stop stop-opacity="0" stop-color="#fc9125" offset="1"/></radialGradient></defs><path fill="none" d="M-1-1h109v139H-1z"/><use xlink:href="#V" width="211.8" transform="matrix(-.4867 0 0 .4867 104.174 .753)" height="277.5"/><use x="-53.945" y="-21.222" xlink:href="#W" width="221" transform="translate(-19.8 -15.9)" height="221"/><use x="-60.913" y="-23.964" xlink:href="#X" width="100" transform="translate(37.95 29.9) scale(.8856)" height="40"/></svg>