<svg width="258" height="310" xmlns="http://www.w3.org/2000/svg" xmlns:xlink="http://www.w3.org/1999/xlink"><defs><linearGradient y2="-.004" y1=".687" x2=".272" x1=".534" spreadMethod="pad" id="i"><stop stop-opacity=".302" stop-color="#37220d" offset="0"/><stop stop-opacity=".114" stop-color="#3d2610" offset="1"/></linearGradient><linearGradient y2="1.473" y1=".241" x2=".246" x1=".737" spreadMethod="pad" id="j"><stop stop-opacity=".302" stop-color="#37220d" offset="0"/><stop stop-opacity=".114" stop-color="#3d2610" offset="1"/></linearGradient><linearGradient y2="1.687" y1=".542" x2=".797" x1=".43" spreadMethod="pad" id="k"><stop stop-opacity=".302" stop-color="#37220d" offset="0"/><stop stop-opacity=".114" stop-color="#3d2610" offset="1"/></linearGradient><linearGradient y2=".825" y1=".189" x2=".476" x1=".147" spreadMethod="pad" id="l"><stop stop-opacity=".302" stop-color="#37220d" offset="0"/><stop stop-opacity=".114" stop-color="#3d2610" offset="1"/></linearGradient><linearGradient y2=".618" y1=".24" x2=".764" x1=".563" spreadMethod="pad" id="m"><stop stop-opacity=".302" stop-color="#37220d" offset="0"/><stop stop-opacity=".114" stop-color="#3d2610" offset="1"/></linearGradient><linearGradient y2=".725" y1=".328" x2=".15" x1=".811" spreadMethod="pad" id="n"><stop stop-opacity=".302" stop-color="#37220d" offset="0"/><stop stop-opacity=".114" stop-color="#3d2610" offset="1"/></linearGradient><linearGradient y2="-.05" y1=".75" x2=".991" x1=".091" spreadMethod="pad" id="o"><stop stop-opacity=".302" stop-color="#37220d" offset="0"/><stop stop-opacity=".114" stop-color="#3d2610" offset="1"/></linearGradient><linearGradient y2="-.162" y1=".645" x2="1.307" x1=".232" spreadMethod="pad" id="p"><stop stop-opacity=".302" stop-color="#37220d" offset="0"/><stop stop-opacity=".114" stop-color="#3d2610" offset="1"/></linearGradient><linearGradient y2=".052" y1=".676" x2=".805" x1=".276" spreadMethod="pad" id="q"><stop stop-opacity=".302" stop-color="#37220d" offset="0"/><stop stop-opacity=".114" stop-color="#3d2610" offset="1"/></linearGradient><linearGradient y2=".792" y1=".202" x2=".061" x1=".642" spreadMethod="pad" id="r"><stop stop-opacity=".302" stop-color="#37220d" offset="0"/><stop stop-opacity=".114" stop-color="#3d2610" offset="1"/></linearGradient><linearGradient y2="1.837" y1=".357" x2="-.447" x1=".398" spreadMethod="pad" id="s"><stop stop-opacity=".302" stop-color="#37220d" offset="0"/><stop stop-opacity=".114" stop-color="#3d2610" offset="1"/></linearGradient><linearGradient y2=".405" y1=".203" x2=".611" x1=".88" spreadMethod="pad" id="t"><stop stop-opacity=".302" stop-color="#37220d" offset="0"/><stop stop-opacity=".114" stop-color="#3d2610" offset="1"/></linearGradient><linearGradient y2=".835" y1=".35" x2=".464" x1=".589" spreadMethod="pad" id="u"><stop stop-opacity=".302" stop-color="#37220d" offset="0"/><stop stop-opacity=".114" stop-color="#3d2610" offset="1"/></linearGradient><linearGradient y2=".258" y1=".682" x2=".627" x1=".438" spreadMethod="pad" id="v"><stop stop-opacity=".302" stop-color="#37220d" offset="0"/><stop stop-opacity=".114" stop-color="#3d2610" offset="1"/></linearGradient><linearGradient y2="-.025" y1=".836" x2="-.034" x1=".687" spreadMethod="pad" id="w"><stop stop-opacity=".302" stop-color="#37220d" offset="0"/><stop stop-opacity=".114" stop-color="#3d2610" offset="1"/></linearGradient><linearGradient y2="-.009" y1=".701" x2=".543" x1=".472" spreadMethod="pad" id="x"><stop stop-opacity=".302" stop-color="#37220d" offset="0"/><stop stop-opacity=".114" stop-color="#3d2610" offset="1"/></linearGradient><linearGradient y2=".373" y1=".573" x2=".979" x1=".02" spreadMethod="pad" id="y"><stop stop-opacity=".302" stop-color="#37220d" offset="0"/><stop stop-opacity=".114" stop-color="#3d2610" offset="1"/></linearGradient><linearGradient y2=".138" y1=".697" x2=".698" x1=".217" spreadMethod="pad" id="A"><stop stop-opacity=".192" stop-color="#fff" offset="0"/><stop stop-opacity=".322" stop-color="#fff" offset="1"/></linearGradient><linearGradient y2="-.028" y1=".804" x2=".799" x1=".141" spreadMethod="pad" id="P"><stop stop-opacity=".392" offset="0"/><stop stop-opacity=".251" offset="1"/></linearGradient><linearGradient y2="1.051" y1=".268" x2=".174" x1=".864" spreadMethod="pad" id="Q"><stop stop-opacity=".651" offset="0"/><stop stop-opacity=".38" offset="1"/></linearGradient><radialGradient spreadMethod="pad" r="819.2" id="f" gradientUnits="userSpaceOnUse" gradientTransform="translate(37.05 -65.1) scale(.0156)" cy="0" cx="0"><stop stop-color="#f4a80b" offset=".165"/><stop stop-color="#7a4b05" offset="1"/></radialGradient><radialGradient spreadMethod="pad" r="819.2" id="g" gradientUnits="userSpaceOnUse" gradientTransform="translate(-1.1 17.95) scale(.0572)" cy="0" cx="0"><stop stop-color="#c2762c" offset=".004"/><stop stop-color="#d99d55" offset=".761"/></radialGradient><radialGradient spreadMethod="pad" r="819.2" id="h" gradientUnits="userSpaceOnUse" gradientTransform="scale(.0057)" cy="0" cx="0"><stop stop-color="#f60" offset="0"/><stop stop-opacity="0" stop-color="#e3b04a" offset="1"/></radialGradient><radialGradient spreadMethod="pad" r="819.2" id="z" gradientUnits="userSpaceOnUse" gradientTransform="translate(34.4 9.15) scale(.0156)" cy="0" cx="0"><stop stop-opacity="0" offset=".165"/><stop stop-opacity=".263" offset="1"/></radialGradient><radialGradient spreadMethod="pad" r="819.2" id="B" gradientUnits="userSpaceOnUse" gradientTransform="translate(-1.1 17.95) scale(.0572)" cy="0" cx="0"><stop stop-opacity=".302" stop-color="#3f250e" offset=".004"/><stop stop-opacity=".302" stop-color="#4d2f11" offset=".761"/></radialGradient><radialGradient spreadMethod="pad" r="819.2" id="C" gradientUnits="userSpaceOnUse" gradientTransform="translate(37.95 39.6) scale(.0086)" cy="0" cx="0"><stop stop-opacity=".302" stop-color="#3f250e" offset=".004"/><stop stop-opacity=".302" stop-color="#4d2f11" offset=".761"/></radialGradient><radialGradient spreadMethod="pad" r="819.2" id="D" gradientUnits="userSpaceOnUse" gradientTransform="translate(33.15 47.2) scale(.0038)" cy="0" cx="0"><stop stop-opacity=".302" stop-color="#3f250e" offset=".004"/><stop stop-opacity=".302" stop-color="#4d2f11" offset=".761"/></radialGradient><radialGradient spreadMethod="pad" r="819.2" id="E" gradientUnits="userSpaceOnUse" gradientTransform="translate(20.65 23.2) scale(.0041)" cy="0" cx="0"><stop stop-opacity=".302" stop-color="#3f250e" offset=".004"/><stop stop-opacity=".302" stop-color="#4d2f11" offset=".761"/></radialGradient><radialGradient spreadMethod="pad" r="819.2" id="F" gradientUnits="userSpaceOnUse" gradientTransform="translate(15.7 14.25) scale(.0061)" cy="0" cx="0"><stop stop-opacity=".302" stop-color="#3f250e" offset=".004"/><stop stop-opacity=".302" stop-color="#4d2f11" offset=".761"/></radialGradient><radialGradient spreadMethod="pad" r="819.2" id="G" gradientUnits="userSpaceOnUse" gradientTransform="translate(7.15 12.15) scale(.0066)" cy="0" cx="0"><stop stop-opacity=".302" stop-color="#3f250e" offset=".004"/><stop stop-opacity=".302" stop-color="#4d2f11" offset=".761"/></radialGradient><radialGradient spreadMethod="pad" r="819.2" id="H" gradientUnits="userSpaceOnUse" gradientTransform="translate(29.9 34.8) scale(.0107)" cy="0" cx="0"><stop stop-opacity=".302" stop-color="#3f250e" offset=".004"/><stop stop-opacity=".302" stop-color="#4d2f11" offset=".761"/></radialGradient><radialGradient spreadMethod="pad" r="819.2" id="I" gradientUnits="userSpaceOnUse" gradientTransform="translate(37.4 34.2) scale(.0045)" cy="0" cx="0"><stop stop-opacity=".302" stop-color="#3f250e" offset=".004"/><stop stop-opacity=".302" stop-color="#4d2f11" offset=".761"/></radialGradient><radialGradient spreadMethod="pad" r="819.2" id="J" gradientUnits="userSpaceOnUse" gradientTransform="translate(36.65 40.55) scale(.0018)" cy="0" cx="0"><stop stop-opacity=".302" stop-color="#3f250e" offset=".004"/><stop stop-opacity=".302" stop-color="#4d2f11" offset=".761"/></radialGradient><radialGradient spreadMethod="pad" r="819.2" id="K" gradientUnits="userSpaceOnUse" gradientTransform="translate(15.6 63.25) scale(.0027)" cy="0" cx="0"><stop stop-opacity=".302" stop-color="#3f250e" offset=".004"/><stop stop-opacity=".302" stop-color="#4d2f11" offset=".761"/></radialGradient><radialGradient spreadMethod="pad" r="819.2" id="L" gradientUnits="userSpaceOnUse" gradientTransform="translate(3.7 58.15) scale(.0051)" cy="0" cx="0"><stop stop-opacity=".302" stop-color="#3f250e" offset=".004"/><stop stop-opacity=".302" stop-color="#4d2f11" offset=".761"/></radialGradient><radialGradient spreadMethod="pad" r="819.2" id="M" gradientUnits="userSpaceOnUse" gradientTransform="translate(58.55 124.15) scale(.0171)" cy="0" cx="0"><stop stop-opacity=".302" stop-color="#3f250e" offset=".004"/><stop stop-opacity=".302" stop-color="#4d2f11" offset=".761"/></radialGradient><radialGradient spreadMethod="pad" r="819.2" id="N" gradientUnits="userSpaceOnUse" gradientTransform="translate(-3.85 46.7) scale(.0027)" cy="0" cx="0"><stop stop-opacity=".302" stop-color="#3f250e" offset=".004"/><stop stop-opacity=".302" stop-color="#4d2f11" offset=".761"/></radialGradient><radialGradient spreadMethod="pad" r="819.2" id="O" gradientUnits="userSpaceOnUse" gradientTransform="translate(-22.45 86.1) scale(.0131)" cy="0" cx="0"><stop stop-opacity=".302" stop-color="#3f250e" offset=".004"/><stop stop-opacity=".302" stop-color="#4d2f11" offset=".761"/></radialGradient><g id="a" stroke-width="3" stroke-opacity=".722" stroke-linejoin="round" stroke-linecap="round" stroke="#171a28" fill="none"><path d="m128.25 10.35-.3-.4M140.45 11.85q-1.7 1.9-2.85 3.6.25-2 0-5.4L137 5l-.95 4.95q-.8 3.7-1.8 6.45l-.4 1.05-5.6-7.1.25.35q1.7 2.65 1.75 6.9l-.45 4q-2 .95-3.75 2.45l-.35.3-.75.65-.65.6-1.55 1.8q-1.05 1.3-1.8 2.8l-1.05 2.2-1.45-.65q-11.1.65-22.25 3.65l-6 1.75-11.75 5.15-6.65 16.05.5 1.25-7.75 3.8-5.05-5.85-1.35.85q-.85 2.9-.2 7Q59 71.7 61.9 76.85l.7.85-.15.85q-.7 4-.75 7.65.6 10.35 3.6 19.9l1.3 3.75.4 1.15.1-1.15q.2-1.95.85-3.75.95-2.8 2.95-5.35l6.45-5.9.45-.4 2.85 5.35 3.05.15.2.55q-.85.9-.8 2.6 0 1.4.65 2.85l.05.05.05.1.15.3.5.95q1.3 1.95 3 2.9 8.3 6.5 16.2 10.45l4.3 2 .9.35q1.55.6 3.35.7-1.25 1.4-1.45 2.7l-.05 1-5.8 3.2-3.6.6-4.15.9-4.55 1.4-14.1 10.5-17.45 5.85-.9-.1-.25-.1q5.9-5.45 4-13.25l-.4-1.45-.75-2.25 1.25-.3q2.8-.65 3.95-2.5 1.15-1.8.45-3-.7-1.25-2.9-1.15-2.15.05-4.5 1.45l-.55.3q-1.2-2.25-2.75-4.1l-1.8-1.8.1-.05-2.8-6.45q.65 2.5-.35 4.55l-1.95-.75q-2.6-8.1-9.8-13.75l-5.35-3.5q2.55 1.95 4.3 4.25l.8 1.1q1.35 2.05 2.15 4.4l.05.2.1.3q.85 2.9.8 6.15-.65-3.05-6.75-5.7-1.95-.05-4.35.55 3.55.4 5.1 2.3 1.15 1.45 1.1 3.85-.55-.7-1.85-1.2-1.45-.65-4.1 1.95l3.05.4q-1.95.95-3.55 2.4l-.6.5q-3.05 2.8-4.4 6.35l-2.5-.65q-1.15-.65-2.9-.8l1.25.65-2.6.2-1.35.3-1 .3q-1.15.4-2.15.95 0-1.25.6-2.9-1.55 1.4-2.7 4.2-2.1 1.55-3.5 3.9l-.2.3-.4.7-.35.65q-1.05 2.1-1.45 4.35l-.75-.4-2.25-.85-1.45-.15q-1.8 0-2.3 1-.5 1 .5 2.45.7.95 2 1.5l1.3.35 2.65.6.05.45.15 1.25q.9 5.9 6.55 8.25l1.1.4-.3.8q-1.35.8-2.1 1.95-.8 1.2-.5 2.1l.05.15-5.2 2.55L2.5 172l1.2 3.8q.75 2.1 1.85 4.35l11.8 3.85 4.15-.9 4.85 3.45 9.45-2.1 4.35 2.65 4.35-4.1 4.85 1 4.1-3.05h4.6l3.85-3.1 4.1.55 3.35-9.5-.25-.75 3.65-.75.4-.1.35-.1q7.55-2 14.75-6.15.1 17.7-2.55 26.6l2.55 7.35-.2 5.65q-5.55 2.85-11.1 5.65l1 5.7-1.45 10h71.1v-1.1l-2.05-11.3 4.9-14.2-3.55-3.9h-.1l-8.45-.85.45-5.45 5.85-9.75.1-.35v.35h-.1l-1.9 6.3 1.3 5.6 3.5.9h.05l8.55.7 7.6 14.8L175 206.8l4.65-2.55 3.55-11.75-2.3-7.45h-.25l-1.15-9.9-3.05-4 .6-1.45-.25-2.1-.75-6.35-5.25-1.2-9.3-12.15h-.35l-.05-.7-.2-2.65-2.15-1.35-1.8-3.05v-.05q.7-.9.1-2.4-.55-1.3-1.8-2.4l-.1-.3 1.65-1.7q2.95-3.5 3.75-8.05l.05-.4q.65-4.15-.3-8.35l-.4-1.7q1.7-.4 3.1.6 1.7 1.2 2.6 3.05-.25-2.15-.9-4l-.65-1.35q-1.3-2.15-3.95-2.7l-1.35-.15-.8.05-.9.2.8-.45q1.6-.85 3.35-1.3l1.5-.35 3.35-.4 4.05 1 4.25 1.35-2.5-1.75q-3.55-2.5-7.65-3.7-3.9-1.05-7.9-.75h-.05l-.3.05 8.85-11.6-7.35-24.1-.3-1.6-.3-1.35-.65-1.25-.9-1.5 16.75-8.6q3.45-2.7 3.6-6.55-.3-9.1-4.2-17.05-1.8-3.45-4.05-5.4l-2.25-1.5-2.65.9-2 12.75-5.9 2.65.3-3.05-.2-2.75q-.35-2.6-1.5-4.85l-.25-.5-2.2-3.25-.8-.8-.05-.05q-2-2-4.35-3.2l-.6-.3 1.6-1.8.65-.65q1.85-1.75 3.8-2.7 1.65-.8 3.45-1.05l-4.05.5q-3.55.65-6.4 2.25l-.2-.1-2.4-.95q.75-2.5 2.35-5.35 2.45-4.5 7.1-9.9-5.75 5.15-9.4 9.2l-1 1.15m17.5 98.45-.1-.25m3.25 37.15.4.7m-14.7 43.6.05-.05.05.05M38 115.25l-1.95-.05M10.6 135.95l-.2-.6.4.3m8.75-6.45q.4-1.4.3-2.7l-.35-1.7m1.4 4.1q-.7-1.1-1.05-2.4"/></g><g id="T"><path fill-rule="evenodd" fill="#b69f5c" d="m-18.05-13.05.15-.6q.65-2.75 2.05-5.15l1.8-2.8 1.55-1.8.65-.6.75-.65.35-.3q2.55-2.2 5.6-3.25l3-.75 2.9-.25H2l1.7.2 3.2.75 1.85.8q2.35 1.2 4.35 3.2l.05.05.8.8q1.3 1.5 2.2 3.25l.25.5q.4 3.35-.55 6.05-.6 1.7-1.65 3.1l-1.65 1.75Q7.45-6.1 1.6-6.15l-8.8-.35q-3.35-.25-6.6-1.4-3.6-1.65-4.15-4.3l-.1-.85m16.7 19.5-1 .5q-.45-.4-.3-2.8 3.4-1.45 3.7-.75-.6 2.35-2 2.5l-.4.55" transform="translate(19.05 29.75)"/><path fill-rule="evenodd" fill="#a3771a" d="M16.4-19.65q1.15 2.25 1.5 4.85l.2 2.75Q18-4.95 12.75.05 7.95 4.6 1 5.25l-2.35 1.2.4-.55q1.4-.15 2-2.5-.3-.7-3.7.75-.15 2.4.3 2.8l-1.1.55q-2.35.15-3.75-3.1L-8.3 4q-1.9-.75-3.6-1.85l-1.95-1.5-1.5-1.5q-4.05-4.5-3-10.7l.1-.65.2-.85.1.85q.55 2.65 4.15 4.3 3.25 1.15 6.6 1.4l8.8.35q5.85.05 10.95-2.6l1.65-1.75q1.05-1.4 1.65-3.1.95-2.7.55-6.05M3.7 3.25l-2.7 2 2.7-2M-7.2 4.4l-1.45-1.35L-7.2 4.4" transform="translate(19.05 29.75)"/><path stroke-linejoin="round" stroke-linecap="round" stroke="#845c08" fill="none" d="m-18.05-13.05.15-.6q.65-2.75 2.05-5.15l1.8-2.8 1.55-1.8.65-.6.75-.65.35-.3q2.55-2.2 5.6-3.25l3-.75 2.9-.25H2l1.7.2 3.2.75 1.85.8q2.35 1.2 4.35 3.2l.05.05.8.8q1.3 1.5 2.2 3.25m.25.5q1.15 2.25 1.5 4.85l.2 2.75Q18-4.95 12.75.05 7.95 4.6 1 5.25l-2.35 1.2-1 .5-1.1.55q-2.35.15-3.75-3.1L-8.3 4q-1.9-.75-3.6-1.85l-1.95-1.5-1.5-1.5q-4.05-4.5-3-10.7l.1-.65.2-.85m9.4 16.1L-7.2 4.4m8.2.85 2.7-2" transform="translate(19.05 29.75)"/></g><g id="W"><path fill-rule="evenodd" fill="#b69f5c" d="m3.05-12.5 1-1.15q3.65-4.05 9.4-9.2-4.65 5.4-7.1 9.9Q4.75-10.1 4-7.6q-.85 2.85-.55 5.2.15 1.2.6 2.3-.45-1.1-.6-2.3l3.1.5.1.05-1 2.75-1.7-.2-4.95 2-7.4.25.75-5.1.5-4.6Q-7.2-11-8.9-13.65l-.25-.35 4.95 6.3.65.8.4-1.05q1-2.75 1.8-6.45l.95-4.95.6 5.05q.25 3.4 0 5.4l-.05.7Q-.2-5 .55-2.65l2.5-9.85M.8-1.9l-.25-.75.25.75M-2.8-6l-.75-.9.75.9" transform="translate(9.95 23.35)"/><path fill-rule="evenodd" fill="#a77d39" d="m4-7.6 2.4.95.2.1Q9.45-8.15 13-8.8l4.05-.5q-1.8.25-3.45 1.05-1.95.95-3.8 2.7l-.65.65-2.5 3.05-.1-.05-3.1-.5q-.3-2.35.55-5.2M.55-2.65Q-.2-5 .15-8.2l.05-.7q1.15-1.7 2.85-3.6L.55-2.65" transform="translate(9.95 23.35)"/><path stroke-linejoin="round" stroke-linecap="round" stroke="#845c08" fill="none" d="m3.05-12.5 1-1.15q3.65-4.05 9.4-9.2-4.65 5.4-7.1 9.9Q4.75-10.1 4-7.6l2.4.95.2.1Q9.45-8.15 13-8.8l4.05-.5q-1.8.25-3.45 1.05-1.95.95-3.8 2.7l-.65.65-2.5 3.05m-14.3-.3.5-4.6Q-7.2-11-8.9-13.65l-.25-.35-.3-.4M.2-8.9l-.05.7Q-.2-5 .55-2.65l.25.75m2.25-10.6Q1.35-10.6.2-8.9q.25-2 0-5.4l-.6-5.05-.95 4.95q-.8 3.7-1.8 6.45l-.4 1.05.75.9m6.25 3.6q.15 1.2.6 2.3m2.5-1.8.1.05M4-7.6q-.85 2.85-.55 5.2M-4.2-7.7l.65.8m.4-1.05-1.05.25-4.95-6.3" transform="translate(9.95 23.35)"/></g><g id="X"><path fill-rule="evenodd" fill="#845c08" d="M8.7 16.8q-.9-1.1-1.7-2.95-.8-1.85-1-3.3-.25-1.45.2-1.65.45-.2 1.3 1l1.65 3q.8 1.85 1.05 3.25.3 1.45-.15 1.65-.45.2-1.35-1" transform="translate(-5.65 -8.6)"/><path stroke-width=".5" stroke-linejoin="round" stroke-linecap="round" stroke="#a3771a" fill="none" d="M3.05 8.2q.9 1.2 1.35 1 .45-.2.15-1.65Q4.3 6.15 3.5 4.3l-1.65-3Q1 .1.55.3.1.5.35 1.95q.2 1.45 1 3.3.8 1.85 1.7 2.95z"/></g><g id="c" fill-rule="evenodd"><path fill="#fbf1e3" d="m19.35-57.65.05-.1.4-.95 1.05.8 2.25 2 .3.25 4.9 4.9 2.5 3-.75 1.75-.65 1.6q-1.3 3.3-2.35 6.8l-.1.25-.9 3.25-.15.6-.4 1.45q-1.4-1.85-2.3-4.3-1.75-7.05-1.35-14.25l.1-1.1v-.1l.05-.15.4-1.85-.6.55-1.15 1.05-1.05 1-.85.8-.8.75q-.15-1.5.05-3.05l.25-1.85.45-1.4.6-1.6.05-.1M3.4-60.95l-5.1 4.5-.35.3-1 1.05.1.25q-.65 3.75-2.15 7.5l-.65 1.55L-7-43.2l-4.3 4.6 3.3-4.35-7.9 9.3-1.35 1.25-.4.35-5.4 4.95-1.75 2.75-.75 1.8-.75 3.15-.05 1-.35-1-1.1-3.15-.1-.3q-2.1-6.8-2.75-14.1l-.2-2.4q.05-3.1.65-6.45l.15-.75.15-.8.95-3.9 1.75-5.5q2.3-2.65 5.55-4.55 1.8-1.1 4-1.95 1.75-.75 3.7-1.3l2.15.25 2.5.65.25.15.1.05q1.3.5 2.35 1.4l12.9-.75-2.9 1.85" transform="translate(30.85 64.55)"/><path fill="#fff" d="M12.65-1.95q1.05.5 2.65.75l-.1.55L10.7 6l-1.5.9.6.65-1.55 3.25-.05.05-.2.2-.55 1.25-1.8 1.75-.25.2q-.05 0-.15.1l-1.55 1-.4-.6 3.25-8.1 5.8-7.8.3-.8m-6.4 48.1L3.95 55l-2 .9v1.55q1 .55 2 1.05l-.85 4.6.05.55-2.85.5-.05.05-2.05.35 1.2-5.15v-.05l.1-.3-2-1.05v-1.55l2-.9 2.25-8.85-2.1-7.95V28.5l1.4-2.7 1.05.05-.6 6.2q.55.8 1.4.85h.15l.95-.25.1.3v5.25l2.15 7.95" transform="translate(30.85 64.55)"/></g><g id="e" fill-rule="evenodd"><path fill="#f4a80b" d="M34.7-66.25v-.3q-.05-3.1 1.05-5.05l6.95-3.55-.35.6-.95 2.35-.05.3-.1.25-.05.15-.25 1.15-.1 1.45-.05.6-6.1 2.05M16.3-7.95q-.2.55-.1 1.05.4 1.45 3.55 1.75l2.2.05q2.3-.1 5.05-.75l2-.6 3.5-1.5 1.2-.75q2.65-1.75 2.3-3.2-.3-1.05-1.95-1.5l-.1-.8.95.05q4.35.65 4.95 3Q40.2-9.7 39-8.1l-2.05 1.95-.15.1q-3.1 2.3-7.8 3.7l-1.1.3h-.05l-2.45.55-3.8.4-3.65-.2-.25-.05q-1.6-.25-2.65-.75l-1.15-.75-.1-.1q-.6-.65-.8-1.35l-.05-.4.05-.8q.2-1.15 1.25-2.3l1.7-.05.35-.1m2 41.9-1.2-1.65-.35-8-2.15 1.85-.75 5.35-1.45 1.75-.1.05q-2 1.75-3.05-1l.95-9.95-2.4 9.05-1.4 1.1h-.05l-.9.25H5.3q-.85-.05-1.4-.85l.8-8.8-2.65 1.1-2.3-.85 3.15-6.7 3.2-1.45 1.55-1q.1-.1.15-.1.1-.15.25-.2l1.8-1.75.55-1.25.2-.2.05-.05 2.75-1.8-.05-.05-.05-.15-1.7-1.9 1.5-.9-.25.35.9-.75.95-.55 3.6-3.4 7.4-.65 2.45-1.6h.2l5.4-1.1 14.9 4.3 3.25 3.5 1.5 2.45-.15.05.05.05.5.3.05.05 1.5.95.15 2.8h.35l5.75 9.75.2.05 1.9.45 1.8.4 2.6.65.65 5.35.2 1.75-4.3 9.95q-3.45 4.7-10.15 6.7l-2.5-.3-.7-.1-7.2-.6h-.05l-2.95-.75-1.1-4.7 1.55-5.35h.1v-.3l.1-.25L40 21.95l-.65-.25L40 20h-6.65l-.1-.05-.35.2-6.5 2-.25.25-6.55 3.8-.15 5.7-1.15 2.05M43.5 49.4l3 3.3-4.15 12 1.75 9.55v.9H18.25v-.45l-.05.45h-34.15l1.25-8.45-.85-4.8 9.35-4.8-.1 2.45-3.85 3.4 4.1 2.6 8.7-1.5.05-.05 10.9-1.9 22.2-8.7v-.05l.35-3.25v-.05l.15-1.35 7.1.7h.1m-78.2-36h.35l1.8-.6 1.4.95 6.75 2.1 3.05 6.05-1.6 5.45 1 2.95-2.85 8.05-3.45-.45-3.25 2.6h-3.9l-3.45 2.55-4.1-.8-3.7 3.45-3.65-2.25-7.95 1.8-8.45-6.05-.7-1.5-.85-2.6-.05-.2q-.65-2.55-.7-5.2v-.55q0-2.15.45-4.35l.3-1.35.1-.4.65-2.05.45-1.3 11.55-7.55 14.7-2.35 5 2.6 1.1 1m-26.2 10.1h.05l.55-.35-.6.35" transform="translate(69 75.15)"/><path fill="url(#f)" d="M40.8-68.3q0 5.25 4.15 8.95l2.5 1.65-4.4 2.3-1.9-.4q-2.3-.7-3.8-2.4l-.8-1q-1.7-2.6-1.85-6.55v-.5l6.1-2.05" transform="translate(69 75.15)"/><path fill-opacity=".439" fill="#f4a80b" d="M26.15 22.4 21 27.35l-.45 4.55q-1.15 2.75-2.25 2.05l1.15-2.05.15-5.7 6.55-3.8" transform="translate(69 75.15)"/></g><g id="ac"><path fill-rule="evenodd" fill="#363a5f" d="m39.75-.25.35-.6 12.25-5.6 1.7-10.75 1-.3-1.7 11.25-13.6 6m-5.4 118.2-.3.45.3-.45m-44-2.6 1.05 1.55-1.05 3.7 1.35 3.25-.45 2.45-2-5.85q.65-2.25 1.1-5.1m16-34.55-.3-.35 1.5-1.25-1.2 1.6M5.2 105.7l2.4-9.05-.8 8.35-.1.85-1.5-.15" transform="translate(81.25 17.95)"/><path fill-rule="evenodd" fill="#171a28" d="M46.15 51.3q-3.8 10.7-9.2 2.5v-.05l5.3-1.45.1-.05 3.8-1.05v.1l-9.2 2.5 9.2-2.5m-11.5 66.1-.3.55.3-.55M2.1 97.4l-.05 2.6H1.9l.2-2.6" transform="translate(81.25 17.95)"/><path fill-rule="evenodd" fill="#0d0e15" d="M30.6 26.4h.05l-.15.35-.05.05-1.7 4.2q-1.5 3.95-2.65 8.25l-.75 2.85h-.05l.4-1.45.15-.6.9-3.25.1-.25q1.05-3.5 2.35-6.8l.65-1.6.75-1.75" transform="translate(81.25 17.95)"/><path fill-rule="evenodd" fill="#036" d="M36.4 66.2q4.4 4.95 10.7 9.05l.55.35.1.1 1.3 4.25-3-3.2-14.9-4.3-5.4 1.1h-.2l-.3-1.3h.05l1.1-.3q4.7-1.4 7.8-3.7l.15-.1 2.05-1.95M37.9 29l-.25-.2-.25-.2.65-.2-.15.6M11.15 79.75l-.9.75.25-.35.05-.05.6-.35" transform="translate(81.25 17.95)"/><path fill-rule="evenodd" fill="#c67e09" d="M-63.45 97.8h-.05l.55-.35-.5.35" transform="translate(81.25 17.95)"/><path fill-rule="evenodd" fill="#fc0" d="m50.8 82.7.1.2-.2-.1-.05-.05.15-.05" transform="translate(81.25 17.95)"/><path fill-rule="evenodd" fill="#fede81" d="m30.3 94.45.35-.2-.35.2" transform="translate(81.25 17.95)"/><path fill-rule="evenodd" fill="#f4a80b" d="m6.8 105-.15 1.6.05-.75.1-.85" transform="translate(81.25 17.95)"/><path fill-rule="evenodd" fill="#d0d3e3" d="M2.05 100 2 101.2l-.7 5 .6-6.2h.15" transform="translate(81.25 17.95)"/><path fill-rule="evenodd" fill="#d2863c" d="m-.75 75.85.05-.05-.45.75.4-.7" transform="translate(81.25 17.95)"/><path fill-rule="evenodd" fill="#eec59b" d="M69.4 118.25h.2l1.95 6.3-2.15-6.3M-65 116.6l-3.45.75-10-3.25-.15-.4-1.4-3.25-1-3.2 4.55-6.7 3.55-1.8 2.05-1-.3 1.35-.45 4.35v.55q.05 2.65.7 5.2l.05.2.85 2.6.7 1.5 4.3 3.1" transform="translate(81.25 17.95)"/><path fill-rule="evenodd" fill="#252c41" d="m-.8 133.55-.1-.05-4.45-.5-.1-1.2 2.75.2v.15l2 1.05-.1.3v.05" transform="translate(81.25 17.95)"/><path fill-rule="evenodd" fill="#fff" d="m49.8 19.85-1.05-3.55.55 1.1.25 1.1.25 1.35M4.3 55.75l-1.65-1 1.9-.3 6.5-3.55 3.25-3.15 1.1-.2.65.45-.75 1.5-.25.25-1.1-.4-.15 1.25-1.25 1.4-2.05 1.15-4.3 2.4-1.35.15-.55.05m16.5-2.95.45 2.25-2.4 3.2-.6.8-3.6 2.1-4.05 1.15-.65-.45.2-1.2.85-.5v.45l1.85-.6 2.35-.75 4.15-3.95 1.45-2.5" transform="translate(81.25 17.95)"/><path fill-rule="evenodd" fill="#fbf1e3" d="m-7.55 40 .85 2v1.2l-2.25 1.35-2.55-.15-1-2.25q2.2-2.2 4.95-2.15m20.2-5.3v.95q-.6 2.15-.55 2.55l-1.15.65-.05.05-.7.4-4.4-.5-1.75-2.75.25-.15-.3-.95q3.7-2.15 7.5-.75l1.15.5m-.1 3.25-.25.15.25-.5v.35" transform="translate(81.25 17.95)"/><path fill-rule="evenodd" fill="url(#g)" d="m1 11.65.9-.1v.05l-.9.05" transform="translate(81.25 17.95)"/><path fill-rule="evenodd" fill="#b5ae8c" d="M-12.15 36.3q1.15-.6 2.2 0l1 1.35.35-.15 1.05 2.5q-2.75-.05-4.95 2.15l-.6-1.25-.15-.5-.15-1.65.35-1.5.9-.95M4 34.95l-.35-1.2Q3.9 32.2 5.1 30.7q.65-.85 1.65-1.05l.45-.05 1.1.15q2.05.45 3.2 2.1l1.2 1.75-.05 1.1-1.15-.5q-3.8-1.4-7.5.75" transform="translate(81.25 17.95)"/><path fill-rule="evenodd" fill="#d99d55" d="m10.95 38.85-.25.45.2-.4.05-.05" transform="translate(81.25 17.95)"/><path fill-rule="evenodd" fill-opacity=".8" fill="#c1af8b" d="m.2 55.05-1.1-.55 4.2-1L13 48l1.3-.25-3.25 3.15-6.5 3.55-1.9.3 1.65 1-2.15.2-1.95-.9m18.05 4-.9 1.2-5.9 3-1.9.25-1.05-1.35V60.3l.75-1.35L11 58.6v1.55l-.85.5-.2 1.2.65.45 4.05-1.15 3.6-2.1" transform="translate(81.25 17.95)"/><path fill-rule="evenodd" fill="#5b2e00" d="m16.05 48 1.2.5 1.95 1.4.25.25-3.2 2.8-.95.85q-.8.7-1.4 2.1l-.05.15q-.45 1.1-.75 2.6L12.85 60l-1.85.6v-1.7l.95-2.15V54.9l-.65-1.4-.8-.35L12.55 52l1.25-1.4.15-1.25 1.1.4.25-.25.75-1.5" transform="translate(81.25 17.95)"/><path fill-rule="evenodd" fill="#a35101" d="m20.7 52.35.1.45-1.45 2.5-4.15 3.95-2.35.75.25-1.35q.3-1.5.75-2.6l.05-.15q.6-1.4 1.4-2.1l.95-.85 4.45-.6" transform="translate(81.25 17.95)"/><path fill-rule="evenodd" fill="#874401" d="m19.45 50.15.65.7.6 1.5-4.45.6 3.2-2.8" transform="translate(81.25 17.95)"/><path fill-rule="evenodd" fill="#630" d="m2.15 55.95 2.15-.2.55-.05 1.35-.15 4.3-2.4.8.35.65 1.4v1.85L11 58.9v-.3l-1.75.35-.75 1.35v1.85l1.05 1.35-2.95-2.1.1-3.35-4.55-2.1" transform="translate(81.25 17.95)"/><path fill-rule="evenodd" d="m53.25 86.9 7.85 10.25-1.9-.45-.2-.05-5.75-9.75" transform="translate(81.25 17.95)"/><path stroke-width=".05" stroke-opacity=".6" stroke-linejoin="round" stroke-linecap="round" stroke="#171a28" fill="none" d="m127.4 69.15 1.85-.5 7.8-10.5-2.75-9.55m-6.9 20.55-3.8 1.05m-.1.05-5.3 1.45-.3.15"/><path stroke-width=".05" stroke-opacity=".6" stroke-linejoin="round" stroke-linecap="round" stroke="#171a28" fill="none" d="m85.55 8.4 9-1.35M130 34.25l-.75-1.3-3.15 1.6-4.4 2.3-1.9-.4q-2.3-.7-3.8-2.4l-.8-1q-1.7-2.6-1.85-6.55v-.8q-.05-3.1 1.05-5.05l4.15-2.15-5.3-3.75q-6.95-4.5-15.1-7.95L95.4 7M136.3.45l-1 .3-1.7 10.75-12.25 5.6-.35.6q-.55 1.15-.95 2.35M136.3.45l1.25-.45.15.05 1.75 1.2q1.9 1.65 3.45 4.55 3.25 6.7 3.55 14.4-.15 3.25-3.05 5.55l-14.15 7.2m1.8 4.85L130 34.25l.55 1.1m.5 2.45 3.25 10.8 2.95 9.55-7.8 10.5-2.05.6m-9.2 2.5-.3.1-2.85.75m4.8-51.85-.25 1.15-.1 1.45-.05.6q0 5.25 4.15 8.95l2.5 1.65M83.15 29.5l4.85-.3 2.8-.15 2.9.8.7.25q3.6 1.2 6.45 3.3l1.05.8 2.25 2 .3.25 4.9 4.9 2.5 3h.05l.25.4L113.7 47m-7.15 13.05q-1.4-1.85-2.3-4.3-1.75-7.05-1.35-14.25l.1-1.1v-.1l.05-.15.4-1.85-.6.55-1.15 1.05-1.05 1-.85.8-.8.75q-.15-1.5.05-3.05l.25-1.85.45-1.4.6-1.6m-17.2-5.05-.9.1m24.3 30.45.4-1.45m.15-.6.9-3.25m.1-.25q1.05-3.5 2.35-6.8l.65-1.6.75-1.75m6.35 27.4 9.2-2.5M106.35 91.8l.45-.3m-19.2 7.25 1.2-1.6 4.6-6.2m-5.8 7.8-3.25 8.1m42.05 7.75 2.25-.15M85 124.75l.15 5.55 2.15 7.95-2.3 8.85-2 .9v1.55l2 1.05-.85 4.6m34.4-136.7 2.8-1.4m-62.2 13.15-.4-1 5.6-13.55 9.95-4.4 5.05-1.45 5.9-1.4M59.4 30.8l-.25-.55m9.65 34.1-2.55-.1-2.45-4.55m-41.25 64.1 3.5 4.4.9.45-2.25-6.8m-10.8 3.25-.85-2.35"/><path stroke-width=".3" stroke-opacity=".302" stroke-linejoin="round" stroke-linecap="round" stroke="#23263e" fill="none" d="m131.55 55.25.4 2 1.6.3.25-.1-.15-1.55m1.75.7-1.6.85.15 1.6m-2-1.8-.3 2.9m-1.6-3.25 1.9.35"/><path stroke-width=".5" stroke-opacity=".6" stroke-linejoin="round" stroke-linecap="round" stroke="#171a28" fill="none" d="m111.6 70.35 1 7.7.95.05q4.35.65 4.95 3 .35 1.45-.85 3.05 4.4 4.95 10.7 9.05l.55.35.1.1 1.3 4.25.25.3 1.5 2.45.1.2.3.2.05.05 1.5.95.15 2.2.35.6 7.85 10.25 1.8.4 2.6.65.65 5.35.2 1.75-.55 1.25 2.6 3.35 1 8.35-4.4-6.55m6.55 12.85-3 9.95-3.9 2.1-9.5-2.55-6.45-12.5-7.2-.6h-.05l-2.95-.75-1.1-4.7 1.55-5.35-4.3 7.25m-.6 1v.2l-.35 4.4 7.1.7.05-.05.05.05 3 3.3-4.15 12 1.75 9.55M112.6 78.05l.1.8q1.65.45 1.95 1.5.35 1.45-2.3 3.2l-1.2.75q-1.55.85-3.5 1.5l-2 .6-5.05.75-2.2-.05q-3.15-.3-3.55-1.75-.1-.5.1-1.05m22.7-.15-2.05 1.95-.15.1q-3.1 2.3-7.8 3.7l-1.1.3h-.05l-2.45.55-3.8.4-3.65-.2-.25-.05-2.65-.75-1.15-.75-.1-.1-.8-1.35-.05-.4-4.9 2.7-6.1 3.4-.1.15m26.5-2.3 5.4-1.1 14.9 4.3 3 3.2m-50.2-3.4-1.2 2.05-.2.3-.2.3-4.7 7.95-1.2 10.85q.05 3.15-.05 6-.2 6.55-.95 11.35m.9 10.95.1.35-.15 4.75-9.35 4.8.85 4.8-1.25 8.45m24-77.15-3 .55-3.55.75q-2.3.55-3.8 1.2l-7.7 5.7m24.25-14q-1.05 1.15-1.25 2.3-.1.4-.05.8m5.5 10.3 7.25-4.75-7.4.65-3.6 3.4-.95.55m-.9.75.25-.35-1.5.9 1.75 2.05.05.05-2.75 1.8m2.45-4.8.05-.05.6-.35m8.25 3.75q-1.55-1.6-2.7-1.25m-14.6 15.15-2.65 1.1-2.3-.85 3.15-6.7 3.2-1.45 1.55-1 .15-.1.25-.2 1.8-1.75.55-1.25m-.55 1.25-.25.5-1.15 2.3-3.65 5.65-.1 2.5m-.8 8.8q.55.8 1.55.85l.9-.25h.05l1.4-1.1 2.4-9.05 2.65-3.2q1.5-2.2 2.35-4.55l3.65-1.75m-8.65 9.5-.8 8.35-.15 1.6q1.05 2.75 3.05 1l.1-.05 1.45-1.75.75-5.35 2.15-1.85-.1-1.05.3-.2 3.65-2.85.3-.25.05-.05 1.1-1.05h.05l1.65-1.8.9-1.15m1.9-4.55q-1.8-1.55-2.85-1.25m8.1 3.65-1.5-1.4q-1.1-.95-2.1-.2M95.4 116.55l.35 8q.6 1.25 1.2 1.65 1.1.7 2.25-2.05l.45-4.55 5.4-5.2 6.5-2 .1-.05.2-.1H118.65l6.15-3m-12.9 2.95 1.3-1.8m-1.3 1.8-.05.05m.1 0h.05m-.35.1.3-.1m6.7 0-.65 1.7.65.25 1.75 13.35-.2.55m-15.85-35 1.6-1.05m-14.2 6.05 4.5-6.65m35.65 9.25.05.05.2.1m-9.3 14.1 1.15-.1m1.35-5.85 1.75-.85m13.35 6.5-.2-.05-5.75-9.75m-.35-.6v.6m-3-4.6.75.45m10.45 14.4-1.9-.45 3 7.05-.1.35m3.7 2.45-1.3 3.05m-2.85-3.8.25-1m-13.2 16.75.7.1 2.5.3q6.7-2 10.15-6.7l2.1-4.9m-23.35 13.35h.1m28.5-5.45 2.15 6.3m-37.2-6.6.3-.55m-.6 1 .3-.45m4.75-6.75.1 3.15 2.65 3.3m-40.55-11.45.6-6.2.2-2.6m-2 40.9 10.9-1.9 22.2-8.7v-.05l.35-3.25v-.05l.15-1.35m-34.4 18.75h1.3q6.2 0 10.55 2.05l1.85 1q2.65 1.75 2.65 4v.65m17.55-21.8.95-.3m-.1-8.75-3.85 5.3v2.1M10.4 115.7l.1-.4.65-2.05.45-1.3 11.55-7.55 14.7-2.35 5 2.6 1.1 1h.35l1.8-.6 1.4.95m-29.7 9.75-1 .65m1.5-1 .9-.55m-.9.55-.5.35m-1.55 18.8-3.45.75-10-3.25-.15-.4-1.4-3.25-1-3.2 4.55-6.7 3.55-1.8 2.05-1-.3 1.35-.45 4.35v.55q.05 2.65.7 5.2m.05.2.85 2.6.7 1.5 4.3 3.1 4.15 2.95 7.95-1.8 3.65 2.25 3.7-3.45 4.1.8 3.45-2.55h3.9l3.25-2.6 3.45.45 2.85-8.05m-.55-1.55-.45-1.4 1.6-5.45-3.05-6.05M80.1 94.5l.4-.7m-31 12.8 14.95-5 3.35-2.5m10.75 50.85v-1.4l2-.9 2.25-8.85-2.1-7.95V120.6l1.4-2.7m-9.6 26.35-2-5.85q.65-2.25 1.1-5.1m-15.1-11.35 3.05-.65.3-.05.35-.1.45-.15q6.15-1.7 11.95-5.05m-.2 34.85-.05 1-3.85 3.4 4.1 2.6 6.65-1.15 1.2-5.15m-1.9-1.55v.15l2 1.05-.1.3v.05m-14.2 15.9-.05-.65q0-2.95 4.45-5l2.7-1 2.3-.55 4.9-.5M13.9 125.1l1.6 4.35 4.75 5.5 5.95-.45-3.8-1.3-.55-4.45 1.6-1.4m-2.95-10.6-1.65 1.95"/><path stroke-width=".5" stroke-opacity=".302" stroke-linejoin="round" stroke-linecap="round" stroke="#3c1e00" fill="none" d="m97.1 97.85-.6.35q-1.4.1-1.9 1.25M80.55 159.7l-.15-2.4.9-1 .05-.05"/><path stroke-width=".3" stroke-opacity=".4" stroke-linejoin="round" stroke-linecap="round" stroke="#171a28" fill="none" d="m85.25 8.45.3-.05M78.7 14l-.7 2.5-.3 1.5q-.65 2.95-.75 6.3M78 16.5l-3.05.45m-1.65 2.2L77.7 18m4.45-2.15-2.95.45m2.7.6-3.4.9"/><path stroke-width=".5" stroke-opacity=".6" stroke-linejoin="round" stroke-linecap="round" stroke="#171a28" fill="none" d="M119.15 46.95q2.15 1.95 3.75 4.6l.3.55-1.7 9.25-3.1 2.05-2.35.2-.15.25-.2.35-2.5 3.85-1.4 2.05-.2.25M82.25 29.6l.9-.05 4.2-.25q-1.15.45-2.9 1.85l-5.1 4.5-.35.3L78 37l.1.25q-.65 3.75-2.15 7.5l-.65 1.55-1.25 2.6-4.95 5.35m-.9.95-1.85 1.95.4 1.5q.8 2.85 2.05 5.7l.35.85-.25.45-.25 1-.1.9.05.95.25.95.05.1.7 1.15 1 1.15.7.6.3.25.4.35q7 5.45 13.65 8.8l3.65 1.7.75.3 2.85.6 1.7-.05.35-.1.95-.25 5.35-1.7q5.75-5.7 10.35-12M95.55 65.7l-1.3.25-9.7 5.5-4.2 1 1.1.55m1.95.9 2.15-.2m10-8 1.1-.2.65.45 1.2.5 1.95 1.4.25.25.65.7.6 1.5.1.45.45 2.25-2.4 3.2m-.6.8-.9 1.2-5.9 3-1.9.25-2.95-2.1.1-3.35m9.35-10.05-.75 1.5-.25.25m-1.25.85-1.25 1.4-2.05 1.15-4.3 2.4-1.35.15m6.15 3.2v1.7l1.85-.6 2.35-.75 4.15-3.95 1.45-2.5m17.1-23.8-.25-.2-.25-.2m-2.9.7-.65.8-.1.15q-.7 1.05-1.05 2.35l-.15.65m2.25 12.4L115 62.25m-24.2 19.2-1.05-1.35v-1.85l.75-1.35 1.75-.35v.3M72.1 28.65q1.3.5 2.35 1.4m-15.05.75q1.8-1.1 4-1.95l3.7-1.3 2.15.25 2.5.65M51 45.55l.15-.8.95-3.9q.7-2.7 1.75-5.5 2.3-2.65 5.55-4.55M51 45.55l-.15.75q-.6 3.35-.65 6.45l.2 2.4q.65 7.3 2.75 14.1l.1.3 1.1 3.15.35 1 .05-1 .75-3.15.75-1.8L58 65l5.4-4.95.4-.35 1.35-1.25 1.2-1.3m1.85-1.95.9-.95M82.25 29.6 75 30"/><path stroke-width=".5" stroke-opacity=".502" stroke-linejoin="round" stroke-linecap="round" stroke="#291a0a" fill="none" d="m120.65 54.95.25-.75q.4-1.8-.85-3.2-1.5-1.75-2-1.7-2.55 1.65-1.45 4.15l1.1 1.6.95 1.05-.4 1.3-1.3.85m-.95-8.6q.55-.55 2.05-.35"/><path stroke-width=".2" stroke-opacity=".6" stroke-linejoin="round" stroke-linecap="round" stroke="#171a28" fill="none" d="m94.1 77.95.25-1.35q.3-1.5.75-2.6m.05-.15q.6-1.4 1.4-2.1l.95-.85 3.2-2.8"/><path stroke-width=".5" stroke-opacity=".8" stroke-linejoin="round" stroke-linecap="round" stroke="#2b1500" fill="none" d="m96.3 67.7-1.1-.4-.15 1.25"/><path stroke-width=".05" stroke-linejoin="round" stroke-linecap="round" stroke="#000" fill="none" d="M59.15 30.25 52.6 33.5l-2.1-2.45-.15-.15-2-2.35-1.15.75q-.75 2.45-.2 5.9.75 4.45 2.65 8.2l.75 1.45.6.7"/><path stroke-width=".5" stroke-opacity=".651" stroke-linejoin="round" stroke-linecap="round" stroke="#261e15" fill="none" d="m80.2 160.15.6 7.75"/><path stroke-width=".2" stroke-opacity=".502" stroke-linejoin="round" stroke-linecap="round" stroke="#523203" fill="none" d="m110.15 151.85.8-.55m1.8-1.9-1.4.75.2.75 1.55-.45m-2-1.1.25.8m-2.25.55 1.45-.35m3.25 12.05-.85.2m-1.4-11.7.2.6-.5 3.4 1.15 7.8.15 1.1.5 3.15m1-3.35-.65.1m-.85.1-2.15.9m2-2-2.15-.15M107.8 148.55l3.3.8"/><path stroke-linejoin="round" stroke-linecap="round" stroke="#68411c" fill="none" d="M-.7 25.7q3.2-4.55 7.45-6.3 1-.4 2.05-.65l.5-.1.75-.15 1.85-.15" transform="translate(81.25 17.95)"/><path stroke-width="2" stroke-linejoin="round" stroke-linecap="round" stroke="#68411c" fill="none" d="m85.55 53.85-.65-2.15q.25-1.55 1.45-3.05Q87 47.8 88 47.6l.4-.05 1.15.15q2.05.45 3.15 2.1l1.25 1.75M72.3 55.6l-1.05-1.35-2.35.05q-1 .8-1.05 2.35l.15 1.7.15.5.25.55"/><path stroke-width=".5" stroke-linejoin="round" stroke-linecap="round" stroke="#b77d1e" fill="none" d="m93.75 55.9-2.3 1.3-4.4-.45m-17.3 5.6 2.5.15 2.25-1.35v-1.2"/><path stroke-width=".5" stroke-opacity=".6" stroke-linejoin="round" stroke-linecap="round" stroke="#51350d" fill="none" d="M76.25 63.55 74.8 64.8M78.35 60.25l-.2 1M77 62.9l-.75.65"/><path fill-rule="evenodd" fill="#4f3115" d="m12.25 34.5.25 1.1q.15.9-.35 1.7-.5.8-1.4 1-.95.15-1.7-.35-.85-.55-1-1.4l-.6-2.85q2.35-.3 4.8.8" transform="translate(81.25 17.95)"/><path fill-rule="evenodd" fill="#3e2611" d="M12.25 34.5q-2.45-1.1-4.8-.8l-.15-.6q-.2-.9.35-1.7.5-.8 1.4-1 .9-.2 1.7.3.8.55 1 1.45l.5 2.35" transform="translate(81.25 17.95)"/><path fill-rule="evenodd" fill="#4f3115" d="m-7.8 40 .3 1.1q.2.75-.1 1.45-.3.7-.9.9-.65.15-1.2-.3-.6-.5-.8-1.25l-.3-1.1q1.4-.8 3-.8" transform="translate(81.25 17.95)"/><path fill-rule="evenodd" fill="#3e2611" d="M-7.8 40q-1.6 0-3 .8l-.5-1.9q-.2-.8.1-1.5.25-.7.9-.85.6-.15 1.2.3.6.45.8 1.25l.5 1.9" transform="translate(81.25 17.95)"/><path fill-rule="evenodd" fill="#7a4b21" d="M10.25 36.5q-.05.65-.75 1.45-.65-.1-.8-.65.25-.8.9-1.3.6-.2.65.45v.05M8.85 32.05l-.8-1q.3-.45.75-.4l.65 1.1q-.1.5-.55.3h-.05" transform="translate(81.25 17.95)"/><path fill-rule="evenodd" fill="#fff" d="M6.9 38.5q-.55-.05-.95-.4-.4-.4-.35-.95-.05-.55.35-.95.4-.45.95-.4.6-.05 1 .4.4.4.4.95 0 .55-.4.95-.4.35-1 .4" transform="translate(81.25 17.95)"/><path fill-rule="evenodd" fill="#291a0a" d="M10.15 32.1q.8-.05 1.4.5.55.6.55 1.4 0 .75-.55 1.35-.6.5-1.4.55-.75-.05-1.35-.55-.55-.6-.5-1.35-.05-.8.5-1.4.6-.55 1.35-.5" transform="translate(81.25 17.95)"/><path fill-rule="evenodd" fill="#fff" d="m8.1 34.75.6-.2.55.2.2.6-.2.55-.55.2-.6-.2-.2-.55.2-.6" transform="translate(81.25 17.95)"/><path fill-rule="evenodd" fill="#7a4b21" d="M11.4 35.9h-.05q0-.4.45-.2l.65.85q-.1.25-.55.25-.5-.55-.5-.9M-9.15 41.8l-.6 1.1q-.5-.1-.6-.5l.7-1q.45-.15.5.35v.05M-10.25 38.35l-.6-.75q.2-.35.55-.3l.5.8q-.05.4-.4.25h-.05" transform="translate(81.25 17.95)"/><path fill-rule="evenodd" fill="#291a0a" d="M-9.3 38.4q.65-.05 1.1.4.4.4.4 1.05 0 .55-.4 1-.45.45-1.1.45l-1.05-.45q-.4-.45-.35-1-.05-.65.35-1.05.45-.45 1.05-.4" transform="translate(81.25 17.95)"/><path fill-rule="evenodd" fill="#fff" d="M-10.8 40.45q.15-.15.4-.15l.45.15.15.45q0 .25-.15.4l-.45.2-.4-.2-.15-.4.15-.45" transform="translate(81.25 17.95)"/><path fill-rule="evenodd" fill="#7a4b21" d="M-8.3 41.3q0-.3.35-.15l.5.65q-.1.2-.45.2l-.4-.7" transform="translate(81.25 17.95)"/></g><g id="ae"><path fill-rule="evenodd" fill-opacity=".231" fill="#fff" d="M39.75-.25Q39.2.9 38.8 2.1l-.15.55-.05.15-.25 1.15-.1 1.45-.05.6-6.1 2.05v-.3q-.05-3.1 1.05-5.05L40.1-.85l-.35.6M13.7 66.35q-.2.55-.1 1.05.4 1.45 3.55 1.75l2.2.05q-1.1 1.8-.35 4l-3.65-.2-.1-1.45-.1-.05q-2.8-.9-3.55-1.65l-.4 1.5q-.6-.6-.8-1.35l-.05-.4q-.05-.4.05-.8.2-1.15 1.25-2.3l1.7-.05.35-.1M19 96.5q4.7-5.45 7.15-7.45 2.65 1.15 2.25 3.3l-8.75 4.7-.65-.55m14.5-3.9q.35-2.05-.2-4.15l.9-1.95 10.05.3-1.95 3.8-8.8 2m18.35-9.1-.25 4.05 1.05 3.55-1.8 2.55 1.25.65 1.7-1.25.85 3.85-.15.15-2.55 2.95 2.2.55 2.15-2.65 2.35 6.2-.8 3.05-4.05 1.3v1.65l4.65-.25L62 104.5l-.35 1.3 2.2-2.8.25-4.7-1.2-.75 2.6.65.65 5.35-4.6 7.15-1 .55-3.55 2.8h-7.3l1.25-11.5-4.5-3 4.2-2.65-5.95-2.4 4.9-2.2 1.1-9.5 1.15.7m-90.35 23.3-.6 1.7-.95-8 1.55 6.3m4.05.3-.45 1.25-.9-.8-.2-7.55 1.55 7.1m5.5-2.5-1.05 2.35-.75-1.6-.75-7.35 2.55 6.6m20.1 28.25-6.55 3.5.25.25-.75.75 1.2 4-1.3 8.1h-2.55l1.25-8.45-.85-4.8 9.35-4.8-.05 1.45M-45 111.1l-1.35-8.15 2.3 6.65-.95 1.5m31.25 33.7.1-1.4.3-.25q2.65-2.25 5-1.35-2.6.4-5.4 3m-48.3-42.45 1.95 3.05-.85 6.4-1.5.3-4.55-9.4-1.9-.35q-.85 2.95.4 7.4l-2.35-.35-.05-.2q-.65-2.55-.7-5.2v-.55l.45-4.35 5.05.15.6 1.6 2.1-.9-.25 2.4 1.55-.1.05.1" transform="translate(81 17.95)"/><path fill-rule="evenodd" fill-opacity=".58" fill="#fff" d="m12.45 72.2-1.15-.75-.1-.1.4-1.5q.75.75 3.55 1.65l.1.05.1 1.45-.25-.05-2.65-.75m40.3 11.9.15 2.8h.35L59 96.65l.2.05 3 7.05-.2.75-3.55 5.35-4.65.25v-1.65l4.05-1.3.8-3.05-2.35-6.2-2.15 2.65-2.2-.55 2.55-2.95.15-.15-.85-3.85-1.7 1.25-1.25-.65 1.8-2.55-1.05-3.55.25-4.05.9.6" transform="translate(81 17.95)"/><path fill-rule="evenodd" fill-opacity=".2" d="M33.2 127.7v-.05h.05l-.05.05" transform="translate(81 17.95)"/><path fill-rule="evenodd" fill="url(#i)" d="m-43.4 84.1 5 2.6 1.1 1h.35l1.8-.6 1.4.95 6.75 2.1 3.05 6.05-1.6 5.45-2.65-8.15q-1.75 1.35-6.9 2.9l-13.65 3.1-9.65.15-5.05-1.85 1.4-.9-6.85.35-1.2-1.95.45-1.3 11.55-7.55 14.7-2.35" transform="translate(81 17.95)"/><path fill-rule="evenodd" fill="url(#j)" d="M13 144.8q2.65 1.75 2.65 4v.2l-.05.45h-28.65q.2-2.65 4.4-4.6l2.7-1q1.1-.35 2.3-.55l4.15-.45 1.75-.05q6.3 0 10.75 2" transform="translate(81 17.95)"/><path fill-rule="evenodd" fill="url(#k)" d="m32.4 136.1 3.8-3.25 3.35 16.6H20.8l.55-9.75h5.5q2.2-.9 5.55-3.6" transform="translate(81 17.95)"/><path fill-rule="evenodd" fill="url(#l)" d="m37.4 96.25-.65-.25.65-1.7 6.15-3-1.75 3.1.95 2.5-1.15.1 2.55.95-2.55 2.55 4.1 2.1-3.1 12.45-2.45-1.4-1.05-2.45.1 3.15 2.65 3.3h5.9l3.45 1.25-.05 1-10-.2-3.1-1.35-.65-2.85 1.55-5.35h.1v-.3l.1-.25-1.75-13.35" transform="translate(81 17.95)"/><path fill-rule="evenodd" fill="url(#m)" d="m64.1 98.3-.25 4.7-2.2 2.8.55-2.05-3-7.05 1.9.45 1.8.4 1.2.75" transform="translate(81 17.95)"/><path fill-rule="evenodd" fill="url(#n)" d="m25.75 73.55 5.4-1.1 14.9 4.3 3.25 3.5.95 1.6-1.7 2.25-8.8 1.5-9.45.05-9.35-4-.45-3.5 4.2-4.05.85-.55h.2" transform="translate(81 17.95)"/><path fill-rule="evenodd" fill="url(#o)" d="m19.75 88.75 1.35 1.55.05 1.05-1.65 1.8h-.05l-1.1 1.05-.05.05-.3.25-3.65 2.85-.3.2.1 1.05-2.15 1.85-.75 5.35-1.45 1.75-.1.05-.75-1.55 2.1-9.05.2-.1q2.45-1.2 4.5-5.85l4-2.3" transform="translate(81 17.95)"/><path fill-rule="evenodd" fill="url(#p)" d="m7.6 96.65-2.4 9.05-1.4 1.1h-.05l-.9.25 1.35-1.7 1.4-8.9q3-2.7 5.25-8l.2-.35 3-1.55 1.15 1.1-2.6 1.25q-.85 2.35-2.35 4.55l-2.65 3.2" transform="translate(81 17.95)"/><path fill-rule="evenodd" fill="url(#q)" d="M5.85 89.25 2.2 94.9l-.1 2.5-2.45 1.05 2.1-6.9 4.1-2.3" transform="translate(81 17.95)"/><path fill-rule="evenodd" fill="url(#r)" d="m15.7 75.8 7.4-.65-7.85 5.1q-1.4.1-1.9 1.25l-.2.1-2.35 1.6-.1-.25-1.7-1.9 1.5-.9-.25.35.9-.75.95-.55 3.6-3.4" transform="translate(81 17.95)"/><path fill-rule="evenodd" fill="url(#s)" d="m33.2 127.65.35-3.25v-.05l.15-1.35 7.1.7h.1l.45.5-5.1.75-2.1 2.4-.9.3h-.05" transform="translate(81 17.95)"/><path fill-rule="evenodd" fill="url(#t)" d="m33.25 127.65 2.9.2-18.4 7.85L3.3 139l.4-1.3 7.3-1.3 22.2-8.7.05-.05" transform="translate(81 17.95)"/><path fill-rule="evenodd" fill="url(#u)" d="m-15.4 136.35 6.55-3.5-.05 1-3.85 3.4 3.7 2.35-3.25-.5-3.1-2.75" transform="translate(81 17.95)"/><path fill-rule="evenodd" fill="url(#v)" d="m64.15 110.35-2.1 4.9q-3.45 4.7-10.15 6.7l-2.5-.3 3.8-1.3 7.5-5.1 3.45-4.9" transform="translate(81 17.95)"/><path fill-rule="evenodd" fill="url(#w)" d="m-67.35 107.15 1.6 4.35 3.25 3.75-.55 2.75-6.25-4.5-.7-1.5 3.1 1.4-.45-6.25" transform="translate(81 17.95)"/><path fill-rule="evenodd" fill="url(#x)" d="m-25.1 103.05.55 1.55-1.55 4.4-2.2 1.75-5.5.9-2 1.9-5.9.6-2.35 1.3-1.65-.2-4.9.95-8.4-2.1-.2-1.55 1.05-1.6 8.75 3.55 8.25-4.15 11.35-1.7 4.7-5.6" transform="translate(81 17.95)"/><path fill-rule="evenodd" fill="url(#y)" d="m31.45 60.9-.1-.8.95.05q4.35.65 4.95 3 .35 1.45-.85 3.05l-2.05 1.95-.15.1q-3.1 2.3-7.8 3.7l-1.1.3h-.05l-2.45.55-3.8.4q-.75-2.2.35-4l5.05-.75 2-.6q1.95-.65 3.5-1.5l1.2-.75q2.65-1.75 2.3-3.2-.3-1.05-1.95-1.5" transform="translate(81 17.95)"/><path fill-rule="evenodd" fill="url(#z)" d="m44.8 16.55-4.4 2.3-1.9-.4q-2.3-.7-3.8-2.4l-.8-1q-1.7-2.6-1.85-6.55V8l6.1-2.05q0 5.25 4.15 8.95l2.5 1.65" transform="translate(81 17.95)"/><path fill-rule="evenodd" fill-opacity=".439" d="M.6 141.75q6.2 0 10.55 2.05l1.85 1q-4.45-2-10.75-2l-1.75.05-4.15.45q-1.2.2-2.3.55l-2.7 1q-4.2 1.95-4.4 4.6H-15l-.05-.65q0-2.95 4.45-5l2.7-1 2.3-.55 4.9-.5H.6M-26.1 109l-1.3 3.65-3.45-.45-3.25 2.6H-38l-3.45 2.55-4.1-.8-3.7 3.45-3.65-2.25-7.95 1.8-2.2-1.55.55-2.75L-61 117l5.95-.45-3.8-1.3-.15-1.15 8.4 2.1 4.9-.95 1.65.2 2.35-1.3 5.9-.6 2-1.9 5.5-.9 2.2-1.75" transform="translate(81 17.95)"/><path fill-rule="evenodd" fill="url(#A)" d="m-20 14.8-.25 1.85 4.25-4.7-1.05 3.7 2.4-.35q1.4-.55 2.35-2l.3-.5 1.7 3.75.8-3.2.95 8.85-6.9 12.1-4.85 6.95 2.15-6.2-3.1-5.55-5.05 14.35-.45-3.5-1.75 5-2.35-8.15-.2-2.4q.05-3.1.65-6.45l.15-.75.15-.8.95-3.9 3.2-4.05L-20 14.8" transform="translate(81 17.95)"/><path fill-rule="evenodd" fill-opacity=".2" fill="#432e16" d="m21.6 20.9-1.15 1.05-1.05 1-.85.8 1.3-4.4-1.35-1.15.6-1.6.05-.1 9.35 10.3q-2.2 3.85-1.65 9.75l-.1.25-.9 3.25q-3.05-9.8-1.45-15l-2.65-2.6v-.1l.05-.15.4-1.85-.6.55m-27.85-8.85 4.85 1.6-.45 2.3-1.75 1.45-1.05-1.55-.1 6.25-3.45 9.1-3.3 4.35-3.5 3.75L-8.4 28q3.4-8.15 1.5-12l-2.3-5.3-.05-.05.1.05q1.3.5 2.35 1.4l.55-.05m-18.2 33.9q.05-4.5 3.5-11.35l.9 1.95-.05.3q-1.25 6.6-4.35 9.1m-1.3 5.65-.75 3.15-.05 1-.35-1-1.1-3.15-.1-.3 1.35-6.15L-25 49.8l-.75 1.8" transform="translate(81 17.95)"/><path fill-rule="evenodd" fill-opacity=".4" fill="#432e16" d="m23.2 18.5 4.9 4.9 2.5 3-.75 1.75-.65 1.6q-1.3 3.3-2.35 6.8-.55-5.9 1.65-9.75l-9.35-10.3.05-.1.4-.95 1.05.8 2.25 2 .3.25m-20-5.3-5.1 4.5-.35.3-1 1.05.1.25q-.65 3.75-2.15 7.5l-.65 1.55-1.25 2.6-4.3 4.6 3.3-4.35 3.45-9.1.1-6.25 1.05 1.55 1.75-1.45.45-2.3-4.85-1.6 12.35-.7q-1.15.45-2.9 1.85" transform="translate(81 17.95)"/><path fill-rule="evenodd" fill-opacity=".2" d="m9.2 81.25.4.45-1.55 3.25L8 85l-.2.2-.55 1.25-1.8 1.75-.25.2-.15.1-1.55 1-.4-.6 3.25-8.1.35-.45 2.5.9m-6.35 25.8.95-.25.1.3v5.25l2.15 7.95L5 124.25l-3.9-1.7.45-1.7-2.1-7.95v-10.25l1.4-2.7 1.05.05-.6 6.2q.55.8 1.4.85h.15m.1 30.75-4.95.9.9-3.8 4.5-.35-.5 2.7.05.55m.7-4.65-4.45.35.1-.3-2-1.05v-.05l4.8-.3 1.65.85-.1.5" transform="translate(81 17.95)"/><path fill-rule="evenodd" fill-opacity=".302" d="m11.3 74.15 2.65.9-3.45 5.1-1.5.9.2.2-2.5-.9 4.6-6.2" transform="translate(81 17.95)"/><path fill-rule="evenodd" fill-opacity=".478" d="m11.3 74.15.85-1.15.3-.8 2.65.75-.1.55-1.05 1.55-2.65-.9" transform="translate(81 17.95)"/><path fill-rule="evenodd" fill="url(#B)" d="m11.8 13.15-3 5.6.5-.1 2.7-.05.6 1.05.45.85q2.5 4.9 2.7 9.25l-3.2 7.85-.25.5-.2.1q-.05-.4.55-2.55l.05-2.05-1.2-1.75q-1.15-1.65-3.2-2.1l-1.1-.15-.45.05q-1 .2-1.65 1.05-1.2 1.5-1.45 3.05l.65 2.15-.25.15 1.4 2.15Q3.2 38.95.6 40.25q-3.15 1.6-6.8 4l-1.4 3.15q2.25 5.15 6.5 10.3l5.5 6.2q-6.65-3.35-13.65-8.8l-.4-.35-.3-.25-.7-.6-1-1.15-.7-1.15-.05-.1-.25-.95-.05-.95.1-.9.25-1 .25-.45-.35-.85q-1.25-2.85-2.05-5.7l-.4-1.5 1.85-1.95-.35 1.5.15 1.65.15.5 1.6 3.5 2.55.15 2.25-1.35V42l-1.9-4.5-.35.15-1-1.35q-1.05-.6-2.2 0l4.95-5.35 1.25-2.6.65-1.55q1.5-3.75 2.15-7.5l-.1-.25 1-1.05.35-.3 5.1-4.5q4-.65 8.6-.05" transform="translate(81 17.95)"/><path fill-rule="evenodd" fill="url(#C)" d="m33.95 44.55 2.4-.4 3.5-2.45 1.8-8.1.3.55-1.7 9.25-3.1 2.05-2.35.2-.6-.75-.25-.35" transform="translate(81 17.95)"/><path fill-rule="evenodd" fill="url(#D)" d="m34.2 44.9.45 1-.2.35-2.5 3.85-.25-3.1 2.05-2.7.2.25.25.35" transform="translate(81 17.95)"/><path fill-rule="evenodd" fill="url(#E)" d="m21.6 20.9.6-.55-.4 1.85-.05.15v.1l-.1 1.1-2.5 2.5.25-3.1 1.05-1 1.15-1.05" transform="translate(81 17.95)"/><path fill-rule="evenodd" fill="url(#F)" d="m12.45 11.9.7.25q3.6 1.2 6.45 3.3l-.4.95-.05.1-.05.1q-3.05-1.9-6.05-3l-1.25-.45.65-1.25" transform="translate(81 17.95)"/><path fill-rule="evenodd" fill="url(#G)" d="M3.2 13.2q1.75-1.4 2.9-1.85l-4.2.25v-.05l4.85-.3 2.8-.15 2.9.8-.65 1.25q-4.6-.6-8.6.05" transform="translate(81 17.95)"/><path fill-rule="evenodd" fill="url(#H)" d="m30.45 26.8.05-.05.15-.35.25.4 1.55 2.25.1.2.65 1.8.55-.8q-.7 1.05-1.05 2.35l-2.55-2.15Q28.3 36.1 27.4 43.2l-1.3-3.95q1.15-4.3 2.65-8.25l1.7-4.2" transform="translate(81 17.95)"/><path fill-rule="evenodd" fill="url(#I)" d="M39.65 36.25q-1.4-2.4-3.2.85l-1.1-1.6q-1.1-2.5 1.45-4.15.5-.05 2 1.7 1.25 1.4.85 3.2" transform="translate(81 17.95)"/><path fill-rule="evenodd" fill="url(#J)" d="m37 39.45.65 2.2-1.95-1.35 1.3-.85" transform="translate(81 17.95)"/><path fill-rule="evenodd" fill="url(#K)" d="m17.6 62.3-.6 1.85-3.35-.15 3.95-1.7" transform="translate(81 17.95)"/><path fill-rule="evenodd" fill="url(#L)" d="m5.3 58.95-4.65-3.7 6.05 2.8-.1 3-1.3-2.1" transform="translate(81 17.95)"/><path fill-rule="evenodd" fill="url(#M)" d="m62.4 120.2.3-.35 2.3-8.15.95 1.4-1.65 9.15 2.5 5.4-1.65 8.7-.5.25-9.5-2.55-4.8-9.35 3.1.85q4.6-.85 8.95-5.35" transform="translate(81 17.95)"/><path fill-rule="evenodd" fill="url(#N)" d="m-5.85 47.75.15-1.55.7-.6 3.15.85-4 1.3" transform="translate(81 17.95)"/><path fill-rule="evenodd" fill="url(#O)" d="m-27 90.15-4.8-1.5 15-5 3.7-2.75-4.35 7.45-8.95 2.95-.6-1.15" transform="translate(81 17.95)"/><path fill-rule="evenodd" fill-opacity=".533" fill="#2e130e" d="M31.45 60.9q1.65.45 1.95 1.5.35 1.45-2.3 3.2l-1.2.75q-1.55.85-3.5 1.5l-2 .6-5.05.75-2.2-.05q-3.15-.3-3.55-1.75-.1-.5.1-1.05l.95-.25L20 64.4q5.75-5.7 10.35-12l1 7.7.1.8m-29 11.95 3-.55-6.1 3.4-.1.15-.4.7-1.2 2.05-.2.3-.2.3-4.7 7.95L-8.65 98q-6.05 3.5-12.4 5.2l-.35.1-.3.05-3.1.65-.75-2.35 1.6-5.45-2.45-4.9 8.95-2.95 4.35-7.45 8.2-6.1q1.5-.65 3.8-1.2l3.55-.75M68.4 109.9l1 8.35-4.4-6.55-2.3 8.15-.3.35q-4.35 4.5-8.95 5.35l-3.1-.85-1.65-3.15 3.2.4q6.7-2 10.15-6.7l3.75-8.7 2.6 3.35M-70.85 97.75l-.3 1.35-.45 4.35v.55q.05 2.65.7 5.2l.05.2.85 2.6.7 1.5 4.3 3.1-3.45.75-10-3.25-.15-.4-1.4-3.25-1-3.2 4.55-6.7 3.55-1.8 2.05-1" transform="translate(81 17.95)"/><path fill-rule="evenodd" fill-opacity=".443" fill="#fff" d="m50.05 26.45 1.25-1 4.5 14.75-3.15 4.25 1.75-5-4.35-13m6.25-44.4.15.05.45 7.65-2 6.15-16.25 6.75.15-.55q.4-1.2.95-2.35l13.6-6 1.7-11.25 1.25-.45M4-9.5l.3-.05 9-1.35-3.5 2.45L8.35-4.3l-10.9.35-8.5 2.9-6 3.9-1.6-.8 1.75-4.3 9.95-4.4L-1.9-8.1 4-9.5" transform="translate(81 17.95)"/><path fill-rule="evenodd" fill="url(#P)" d="M60.05-14.15 63.3-6.3l1.1 8.4-1.9 4.35-18.4 9.65-1.75-1.15Q38.2 11.25 38.2 6L54.1.7l4.7-8-.5-8 1.75 1.15M45.3 26.35q1.2 3.4 3.45 12.4l.05.2.15.6q-1.3 7.35-2.8 11.65l-3.8 1.05-.1.05-5.65 1.5-6.05-1.65 1.4-2.05 2.5-3.85.2-.35.15-.25 2.35-.2 3.1-2.05 1.7-9.25-.3-.55q-1.6-2.65-3.75-4.6l.15-.6-.65.2-2.85.7h-.05l-.15.05-1.15 1.7-.65-1.8-.1-.2-1.55-2.25-.25-.4h-.05l-2.5-3-4.9-4.9-.3-.25-2.25-2-1.05-.8q-2.85-2.1-6.45-3.3l-.7-.25-2.9-.8-2.8.15-4.85.3-.9.1-7.8.45q-1.05-.9-2.35-1.4l-.1-.05-.25-.15-2.5-.65.05-.25L-.6 4.8q12.65-2.15 24.25 3.05 1.15.5 2.3 1.1l.7.85q.7 9.95 9.2 16.6 5.8 2.15 9.45-.05m-20.05 45.9.3 1.3-2.45 1.6-7.4.65-3.6 3.4-1.6.95L15 73.5l.1-.55.25.05 3.65.2 3.8-.4 2.45-.55m-12.8-.05-.3.8-4.6 6.2-1.5 1.25.3.35-3.25 8.1.4.6-3.2 1.45-3.15 6.7 2.3.85 2.65-1.1-.2 2.6-1.05-.05-1.4 2.7v10.25l2.1 7.95-.45 1.7-5.35-2.35-2.35 11.25.65 3.8 4.85-.35-.9 3.8-6.65 1.15-4.1-2.6 3.85-3.4.25-7.2-.1-.35.45-2.45-1.35-3.25 1.05-3.7-1.05-1.55q.75-4.8.95-11.35l2.55 2.15.1-8.55 2.75 2-2.7-5 .35-7.3 5.55-9.1-1.25-1.3.65-1.1-.05.05.1-.15 11-6.1.05.4q.2.75.8 1.35l.1.1 1.15.75M10.7 82.95l.1.25-2.75 1.75L9.6 81.7l1.1 1.25M7.15 114.6l3.15 1.05 16.1-2.35-6.15 7.05-12.8 4.95L5 124.25l1.05-3.95-2.15-7.95v-.45l3.25 2.7m3.7 17.65-7.2 1.05.1-.65-2-1.05v-.1l5.8-.05 8.4-2.45-5.1 3.25m-7.9 5.55-.05-.55.5-2.7 7.4-.55 14.75-5.85 7.7-.95-.05.45v.05L11 136.4l-8.05 1.4m-33.7-124.7 2.1 2.45 6.55-3.25.25.55q-3.25 1.9-5.55 4.55-1.05 2.8-1.75 5.5l-.95 3.9-.15.8-.6-.7-.75-1.45-1.2-12v-.05l1.9-.45.15.15m15.85 26.1.4 1.5q.8 2.85 2.05 5.7l-2.55-.1-2.45-4.55 1.35-1.25 1.2-1.3" transform="translate(81 17.95)"/><path fill-rule="evenodd" fill-opacity=".663" d="m26.65 9.8 6.65-7.45-1.2 5.7v.5q.15 3.95 1.85 6.55l.8 1q1.5 1.7 3.8 2.4l1.9.4 5.9-3.9q2 .65-.15 1.3 1.85 3.65.6 4.4-1.3.7-1.45 5.6h-.05v.05q-3.65 2.2-9.45.05-8.5-6.65-9.2-16.6" transform="translate(81 17.95)"/><path fill-rule="evenodd" fill="url(#Q)" d="M3.9 111.9v-4.8l-.1-.3 1.4-1.1 1.5.15-.05.75q1.05 2.75 3.05 1l.1-.05 1.45-1.75.75-5.35 2.15-1.85.35 8q.6 1.25 1.2 1.65 1.1.7 2.25-2.05l.45-4.55 5.4-5.2 6.9-2.15h6.7l-.65 1.7.65.25 1.75 13.35-.2.55-4.6 7.8-.1-7.7-5.05-3.7-22.05 8.05-3.25-2.7" transform="translate(81 17.95)"/><path fill-rule="evenodd" fill="#b6620e" d="M47.6 75.95q1.35 1.05 1.9 2.3.5 1.25-.1 2.05-.65.75-1.65.15-1-.65-2.65-1.25H45l-.8-.4q-.95-.55-1.35-1.4l-.1-.45q-.3-1 .2-1.6.6-.8 1.95-.65 1 .15 2 .75l.7.5m-17 9-.05.05-.95.05q-1.1 0-1.85-.55l-.35-.3q-.75-.7-.6-1.5.1-1 1.4-1.55l2.05-.35.9.05q1.65.25 2.75 1.05 1.05.85.95 1.85-.15.95-1.3.95l-2.95.25" transform="translate(81 17.95)"/><path stroke-width=".5" stroke-opacity=".302" stroke-linejoin="round" stroke-linecap="round" stroke="#000" fill="none" d="m111.6 102.9 2.95-.25q1.15 0 1.3-.95.1-1-.95-1.85-1.1-.8-2.75-1.05l-.9-.05-2.05.35q-1.3.55-1.4 1.55-.15.8.6 1.5l.35.3q.75.55 1.85.55l.95-.05.05-.05m17-9-.7-.5q-1-.6-2-.75-1.35-.15-1.95.65-.5.6-.2 1.6l.1.45q.4.85 1.35 1.4l.8.4h.1q1.65.6 2.65 1.25 1 .6 1.65-.15.6-.8.1-2.05-.55-1.25-1.9-2.3"/><path fill-rule="evenodd" fill="#e9af50" d="M22.55 71.45q5.5 5.05 12.85 4.45l.45-2.7.1.9 1.45 6.1q-2.65-.05-5.15-.95-3-.95-5.55-2.95-2.65-2-4.15-4.85M39.5 82.6l1.7-2.15-.3-3.35-4.4-5.3q.45-.3 1.2 0l.95.5.4.25 4.15 1.05q4.65-.9 7.7-4.2l-1.6-3.8 3.2 1.6-.05.2-.05.35q-.7 3.85-3.15 6.8-1.75 2-3.9 3.35l-.45-1.85-4.1-1.85q1.75 2.05 2.3 4.85.3 1.25-.2 2.5l-.4.95-2.35.5-.65-.4m8.4-20.3-.05-.15H48l.4-1.5 1.85-1.05q1.6.45 1.8 2.05.1 1.45-.5 2.95l-.8-1.45-.85-.85-1.9-.15-.1.15m7.45-4.8q-3.55-1.35-5.9-1l-1-.3q-1.85-1.75-2.9-1.55 2.5-1.6 7.4-.85-1.45.4-2.8 1.1l-.7.4.75-.2h.7l1.15.15q2.2.45 3.3 2.25M44.6 50.6l-2.75.3q1.7-3.05 5.55-3.5-1.3.65-2.1 1.75l-.7 1.45m3.85 5.6 1-.9-1 .9" transform="translate(81 17.95)"/><path fill-rule="evenodd" fill="#fede81" d="M20.35 63.65q-1.45-1.9-1.6-4.2 2.95-.35 3.8-1.8.8-1.5 2.3-3.4 1.45-1.9 3.85-3.65 2.4-1.85 5.25-2.5l4.15-.75 1.5-.1h.7l8.4-.5-.95.5-.35.15q-3.85.45-5.55 3.5l2.75-.3.55-.15 1.4-.3 2.3-.2q3.35-.25 6.65.65 3.45.95 6.45 3.1l2.1 1.5q-1.75-.75-3.55-1.15-1.75-.6-3.45-.85l-2.85.3-1.25.3q-4.9-.75-7.4.85 1.05-.2 2.9 1.55l1 .3q2.35-.35 5.9 1l.55 1.15.8 3.35q-.8-1.55-2.25-2.55-1.15-.85-2.6-.55l-1.6.7-1.85 1.05-.4 1.5h-.15l.05.15 1.4 3.3 1.6 3.8q-3.05 3.3-7.7 4.2l-4.15-1.05-.4-.25-.95-.5q-.75-.3-1.2 0l4.4 5.3.3 3.35-1.7 2.15-.45-.25q-1.15-.85-1.65-2.15l-1.45-6.1-.1-.9-.45 2.7q-7.35.6-12.85-4.45l-.4-.8q-1.05-2.2-1.5-4.55l2.7.3-3-2.75" transform="translate(81 17.95)"/><path fill-rule="evenodd" fill="#e49e29" d="m20.35 63.65 3 2.75-2.7-.3-.3-2.45M49.3 65.6l-1.4-3.3.1-.15 1.9.15.85.85.8 1.45q.6-1.5.5-2.95-.2-1.6-1.8-2.05l1.6-.7.35 1.45q.75 3.5.3 6.85l-3.2-1.6m-6.2 13.45q-.55-2.8-2.3-4.85l4.1 1.85.45 1.85-2.25 1.15" transform="translate(81 17.95)"/><path stroke-width=".5" stroke-linejoin="round" stroke-linecap="round" stroke="#b8800c" fill="none" d="m128.4 65.35.35-.15.95-.5-8.4.5h-.7l-1.5.1-4.15.75q-2.85.65-5.25 2.5-2.4 1.75-3.85 3.65-1.5 1.9-2.3 3.4-.85 1.45-3.8 1.8.15 2.3 1.6 4.2l3 2.75m-2.7-.3q.45 2.35 1.5 4.55l.4.8q1.5 2.85 4.15 4.85 2.55 2 5.55 2.95 2.5.9 5.15.95.5 1.3 1.65 2.15l.45.25.65.4 2.35-.5.4-.95q.5-1.25.2-2.5l2.25-1.15q2.15-1.35 3.9-3.35 2.45-2.95 3.15-6.8l.05-.35.05-.2q.45-3.35-.3-6.85l-.35-1.45q1.45-.3 2.6.55 1.45 1 2.25 2.55l-.8-3.35-.55-1.15q-1.1-1.8-3.3-2.25l-1.15-.15h-.7l-.75.2-1 .9m-.6 5.95h.15l-.1.15m.5-1.65 1.85-1.05 1.6-.7m1.1-5.1 1.25-.3 2.85-.3q1.7.25 3.45.85 1.8.4 3.55 1.15l-2.1-1.5q-3-2.15-6.45-3.1-3.3-.9-6.65-.65l-2.3.2-1.4.3m2.25-3.05q-1.3.65-2.1 1.75l-.7 1.45M101.35 81.6l.3 2.45m29.5-11.2-.7.4m.75-.2-.05-.2q1.35-.7 2.8-1.1m-2.7 5.8q1.6.45 1.8 2.05.1 1.45-.5 2.95l-.8-1.45-.85-.85-1.9-.15"/><path fill-rule="evenodd" fill="#b8800c" d="m37.85 71.6.1.2-.1.15-.15.1-.2-.1-.05-.15.05-.2.2-.05.15.05m-1.7.15.2-.05.15.05.1.2-.1.15-.15.1-.2-.1-.05-.15.05-.2m-.5 1.35.2-.05.15.05.1.2-.1.15-.15.1-.2-.1-.05-.15.05-.2m3.7-.5-.1.15-.15.1-.2-.1-.05-.15.05-.2.2-.05.15.05.1.2m1 .85.15.05.1.2-.1.15-.15.1-.2-.1-.05-.15.05-.2.2-.05m-4.4 1.15.2-.05.15.05.1.2-.1.15-.15.1-.2-.1-.05-.15.05-.2m.3 1.5.2-.05.15.05.1.2-.1.15-.15.1-.2-.1-.05-.15.05-.2m.7 1.5.1.2-.1.15-.15.1-.2-.1-.05-.15.05-.2.2-.05.15.05m.05 1.5.2-.05.15.05.1.2-.1.15-.15.1-.2-.1-.05-.15.05-.2m3.95-5.1.1.2-.1.15-.15.1-.2-.1-.05-.15.05-.2.2-.05.15.05M42 75.5l-.1.15-.15.1-.2-.1-.05-.15.05-.2.2-.05.15.05.1.2m.3 1.25.2-.05.15.05.1.2-.1.15-.15.1-.2-.1-.05-.15.05-.2m.5 1.6.2-.05.15.05.1.2-.1.15-.15.1-.2-.1-.05-.15.05-.2" transform="translate(81 17.95)"/></g><g id="af"><path fill-rule="evenodd" fill="#fefefe" d="m25.45 54.05-.4.5Q23.8 56.2 23.2 57.6q-.55 1.5 0 1.85.55.35 1.95-.55l.55-.45.95-.9.15-.15 1-1.15 1.05-1.5q-.2-2.85-3.35-.75l-.05.05" transform="translate(-22.65 -50.9)"/><path fill-rule="evenodd" fill="#c7d1d8" d="m28.85 54.75.8-1.65q.6-1.45 0-1.85-.55-.35-1.85.6-1.15.8-2.3 2.15 3.15-2.1 3.35.75" transform="translate(-22.65 -50.9)"/><path stroke-width=".5" stroke-opacity=".502" stroke-linejoin="round" stroke-linecap="round" stroke="#b8800c" fill="none" d="m2.8 3.15-.4.5Q1.15 5.3.55 6.7 0 8.2.55 8.55 1.1 8.9 2.5 8l.55-.45.95-.9.15-.15 1-1.15 1.05-1.5L7 2.2Q7.6.75 7 .35 6.45 0 5.15.95 4 1.75 2.85 3.1"/><path fill-rule="evenodd" fill="#161616" d="m27.4 54.7.1-.05-.1-.05-.7.1-.7.9-.3 1.05q0 .45.3.6.2.15.6-.2l.7-.8.15-.3-.25.05-.3-.45q-.05-.2.05-.5l.45-.35" transform="translate(-22.65 -50.9)"/><path fill-rule="evenodd" fill="#fefefe" d="M30.35 55.35q7.05 1.1 7.3 8.75l-1.6 1.7q-2.3 1.55-5.55.65-3.05-.9-3.5-2.35-.65-2.1.5-5 1-2.35 2.85-3.75" transform="translate(-22.65 -50.9)"/><path fill-rule="evenodd" fill="#c7d1d8" d="m30.35 55.35.6-.5q2.3-1.5 4.55-.85 2.3.55 3 2.9 1 3.2.15 5.3l-1 1.9q-.25-7.65-7.3-8.75" transform="translate(-22.65 -50.9)"/><path stroke-width=".5" stroke-opacity=".502" stroke-linejoin="round" stroke-linecap="round" stroke="#b8800c" fill="none" d="m15 13.2 1-1.9q.85-2.1-.15-5.3-.7-2.35-3-2.9-2.25-.65-4.55.85l-.6.5M15 13.2l-1.6 1.7q-2.3 1.55-5.55.65-3.05-.9-3.5-2.35-.65-2.1.5-5 1-2.35 2.85-3.75"/><path fill-rule="evenodd" fill="#161616" d="m30.65 56.2.25-.1-.15-.1q-.45-.2-1.05.35l-1.2 1.5-.65 1.75q0 .8.35 1 .4.2 1-.4l1.15-1.4.25-.5-.35-.05-.45-.55q0-.4.25-.85l.6-.65" transform="translate(-22.65 -50.9)"/></g><g id="ag"><path fill-rule="evenodd" fill="#bc891e" d="m13.1-9.85-.3.3-2 2.3.8 2.05Q13.3.25 10.55 5.4 8 10.1 2.85 12.35l-1.55 1.5.2-.55q1-.45.9-2.4-.4-.45-2.65 1.5.45 1.9.95 2.1l-.7.7q-1.75.7-3.65-1.45l-.95-.05-3.25-.5-1.85-.65q-5.65-2.35-6.55-8.25l-.15-1.25q1.15 3.5 7.7 1.05-1.4.55-.6 3l.45 1 .85.6 2.2.1q1.2-.35 1.8-1.25l.15-.25q.45-.5.2-.65l-.25-.2q-1.05.15-2.65-1.65l3-.7q2.6-.7 3.35-1.4l-.1.2-.7.9-.45.5q-.85.85-1.35.5l.05.3.05.25q.3 1.2 1.3 1.6l2.2.1Q1.95 6.7 2.6 5.8l.45-1.45L2.7 3.1q-.4-.7-1.1-1 3.85 1 6.5-3.25 1.35-2.25 1.4-4.7.05-2.3-1.1-4.8l-.3-.3.35-.8 1.4-2.05q2 .2 3.25 3.95M-16.45 2.6-19.1 2l-1.3-.35q-1.35-3.85 1.25-4.8 1.05.2 2.25.85l.75.4q-.45 2.15-.3 4.5m8.3-15.7 2.15-.95 1-.3q-.55 1.8-1.9 3.75-1.25-.8-1.25-2.5M10.8-7.25q-.95-1.95-2.4-3.4 1.45 1.45 2.4 3.4M4.4 10.1l-1.55 2.25L4.4 10.1m-8.05-24.75 2.6-.2q1.55 1.2-.05 3-1.6-1.2-2.55-2.8m-2.2 5.2 2.4.8Q-5.7-8.95-6.6-7.1q-1.8-1.35-1.95-3.2l2.7.85m.7 22.5 1.5.7-1.5-.7" transform="translate(23.3 19)"/><path fill-rule="evenodd" fill="#d2b76a" d="m9.85-13.8 1-.95q1.45-1 2.5-.5 1 .5 1 2.25 0 1.6-1.25 3.15-1.25-3.75-3.25-3.95M1.3 13.85l-.6.65q-.5-.2-.95-2.1Q2 10.45 2.4 10.9q.1 1.95-.9 2.4l-.2.55m-17.7-10.8-.05-.45q-.15-2.35.3-4.5.4-2.25 1.45-4.35l.35-.65.4-.7.2-.3q1.4-2.35 3.5-3.9 1.15-2.8 2.7-4.2-.6 1.65-.6 2.9 0 1.7 1.25 2.5 1.35-1.95 1.9-3.75l1.35-.3q.95 1.6 2.55 2.8 1.6-1.8.05-3l1.65.15q2.1.3 4.15 1.4l.85.4 2.5 1.95.3.3q1.15 2.5 1.1 4.8-.05 2.45-1.4 4.7Q5.45 3.1 1.6 2.1h-.05l-.1-.05-.3-.1-.85.2-.35.45-.15.1q-.75.7-3.35 1.4l-3 .7h-.05l-1.2-.55-.7-.2h-.1l-.1.05q-6.55 2.45-7.7-1.05m-4-1.4q-1.3-.55-2-1.5-1-1.45-.5-2.45.5-1 2.3-1l1.45.15q-2.6.95-1.25 4.8m22.7-14Q1.95-13.9.6-14.7q1.35.8 1.7 2.35m-3.15 1-.25-.5.25.5m-12.9 3.45 2.65 1.8-2.65-1.8m2.1.4q.6-2.45 1.4-4.3-.8 1.85-1.4 4.3m-1.05 3.75-1.25-3.85 1.25 3.85m6.85-5.7-2.7-.85q.15 1.85 1.95 3.2.9-1.85 3.15-1.55l-2.4-.8-1.05-1.15 1.05 1.15" transform="translate(23.3 19)"/><path fill-rule="evenodd" fill="#96510b" d="M-4.6 13.7v.05q.25.9-.7 1.6l-2.25 2.05Q-8.8 18.75-10 18.75q-1.2-.05-1.5-.95-.3-.9.5-2.1.8-1.25 2.25-2.05l.9-.45 3.25.5m23.85-6v.05l-2.8-.45q-1.15-.05-1.2-1-.1-.95 1-1.7 1.1-.7 2.75-.8l.85-.05q-2.4 2.25-.6 3.95" transform="translate(23.3 19)"/><path fill-rule="evenodd" fill="#c56a0e" d="M19.85 3.75q1.05.05 1.95.5 1.15.6 1.2 1.55.05.75-.65 1.4l-.35.25q-.8.5-1.8.45l-.9-.15-.05-.05q-1.8-1.7.6-3.95" transform="translate(23.3 19)"/><path fill-rule="evenodd" fill="#a4adb2" d="M1.6 2.1q.7.3 1.1 1l.35 1.25L2.6 5.8q-.65.9-1.8 1.25l-2.2-.1q-1-.4-1.3-1.6l-.05-.25-.05-.3q.5.35 1.35-.5l.45-.5.7-.9.1-.2.15-.1.35-.45.85-.2.3.1.1.05h.05m-8.15 2.7q1.6 1.8 2.65 1.65l.25.2q.25.15-.2.65l-.15.25q-.6.9-1.8 1.25L-8 8.7l-.85-.6-.45-1q-.8-2.45.6-3l.1-.05h.1l.7.2 1.2.55h.05" transform="translate(23.3 19)"/><path stroke-width=".5" stroke-linejoin="round" stroke-linecap="round" stroke="#986a09" fill="none" d="m33.15 5.2 1-.95q1.45-1 2.5-.5 1 .5 1 2.25 0 1.6-1.25 3.15l-.3.3-2 2.3.8 2.05q1.7 5.45-1.05 10.6-2.55 4.7-7.7 6.95l-1.55 1.5-.6.65-.7.7q-1.75.7-3.65-1.45l-.95-.05m-3.25-.5-1.85-.65Q7.95 29.2 7.05 23.3l-.15-1.25-.05-.45L4.2 21l-1.3-.35q-1.3-.55-2-1.5-1-1.45-.5-2.45.5-1 2.3-1l1.45.15q1.05.2 2.25.85l.75.4q.4-2.25 1.45-4.35l.35-.65.4-.7-.2-.6.4.3q1.4-2.35 3.5-3.9 1.15-2.8 2.7-4.2-.6 1.65-.6 2.9l2.15-.95 1-.3q.4-1.4.3-2.7-.1-.9-.35-1.7m13.15 7.8L28.9 6.1l-.85-.4Q26 4.6 23.9 4.3q1.35.8 1.7 2.35m5.8 1.4.35-.8 1.4-2.05M31.7 8.35l-.3-.3m.3.3q1.45 1.45 2.4 3.4m-13.5 12.6-.05-.25-.05-.3q.5.35 1.35-.5l.45-.5.7-.9.1-.2.15-.1.35-.45.85-.2m-7.7 2.85q1.6 1.8 2.65 1.65m6.75 5.9 1.55-2.25M22.25 4.15l-2.6.2q.95 1.6 2.55 2.8 1.6-1.8.05-3L21 3.5q1.75.15 2.9.8l-1.65-.15m-2.6.2q-.7-1.1-1.05-2.4M9.55 11.1l-.2.3 1.25 3.85m2.45-8.05q-.8 1.85-1.4 4.3m.55 1.4-2.65-1.8M22.2 7.15l.25.5m-5 1.9L16.4 8.4q-1.25-.8-1.25-2.5m1.25 2.5q1.35-1.95 1.9-3.75M16.75 23.8h-.05m-1.25 8.4 3.25.5m.95.05-1.5-.7M6.85 21.6q-.15-2.35.3-4.5"/></g><g id="ah"><path fill-rule="evenodd" fill="#281b0f" d="M-6.75 4.5q1.3 1.1 1.85 1.95.75 1.1.4 1.35l-.95-.15-1-1-.25-.4.2-.2.2-.65-.2-.6-.3-.2.05-.1M.8 2l-.05-.05.55-.65 1 .8q.4.65.4 1.3l-.05.1q-.05.7-.5 1-.5.3-1.15 0-.65-.3-1-1l-.15-.25.35.1.6-.25.25-.55L.8 2" transform="translate(9.85 -1.3)"/><path fill-rule="evenodd" fill="#a4adb2" d="M-8.6 4h.1l.7.25 1.2.5v.35l.15.6.35.75 1 1 .95.15q.35-.25.3-.95l-.05-.25.25.2q.25.15-.2.65L-4 7.5q-.65.9-1.8 1.25l-2.2-.1-.85-.55-.45-1.05q-.8-2.45.6-3l.1-.05" transform="translate(9.85 -1.3)"/><path stroke-width=".5" stroke-linejoin="round" stroke-linecap="round" stroke="#986a09" fill="none" d="m1.25 2.7-.1.05q-1.4.55-.6 3L1 6.8m5-.85q.45-.5.2-.65l-.25-.2m-2.7-1.65-1.2-.5-.7-.25"/></g><g id="ai"><path fill-rule="evenodd" fill="#e4a625" d="m-32 69.75.45-.3q1.95-1.15 3.8-1.2 1.8-.1 2.45.95.55 1-.4 2.55-1 1.55-3.3 2.1l-1.05.25q-.85-2.35-1.95-4.35" transform="translate(67.05 -47.65)"/><path fill-rule="evenodd" fill="#fc0" d="M-40.1 62.45q.85.25 1.65.65-.4.75-1.1 1.5l-.55-2.15" transform="translate(67.05 -47.65)"/><path fill-rule="evenodd" fill="#fede81" d="m-46.65 56.55-.05-.25-.05-.15q-.65-2-1.85-3.75l-.65-.9q-1.5-1.95-3.65-3.6 2.5 1.35 4.55 2.95 6.05 4.75 8.25 11.6l.55 2.15q.7-.75 1.1-1.5.85-1.75.3-3.85l2.4 5.45-.15.05 1.55 1.5q1.3 1.55 2.35 3.5 1.1 2 1.95 4.35l.6 1.9.35 1.25q1.6 6.6-3.4 11.15l-.05.1-1.8 1.35-1.35.8-.45 1.15-1.4 1.15-4.95-.8-.75-.9-4.1-4.85-4.55-1.65-4.45-8v-.6l-.1-.45q-.25-.65-1-1.3l-.95-.7q-.8-.55-1.85-.9 1.05.35 1.85.9l.95.7q.75.65 1 1.3l.1.45v.6q-.25.75-1.1.85h-.85l-2.4-.15h-2.5l-.75-.1q-1.3-.3-2.1-1.05l-.75-.85V73.3q.5-.65 1.8-.95l.5-.05 3.5.25.75.25.45-1.35q1.15-3.1 3.75-5.45l.5-.45 5.75 2.05 1.25-3.3 3.4 2.7 1.35-2.55-2.85-7.9m11.6 32.6-.65 1.5.65-1.5m-3.3-7.6.1-.25-.15.25h.05m.35-.75-.15.2.15-.2" transform="translate(67.05 -47.65)"/><path fill-rule="evenodd" fill="#899baf" d="M-38.35 81.55h-.05l.15-.25-.1.25m.35-.75-.15.2.15-.2" transform="translate(67.05 -47.65)"/><path fill-rule="evenodd" fill="#b6620e" d="m-36.15 91.8.45-1.15 1.35-.8 1.8-1.35q1.65 0 2.8.65.55.3.85.7.35.45.35 1 0 1-1.2 1.7l-2.9.1-2.85-.65-.65-.2m-18.35-1.35.85-.3 2.95-.05q1.3.4 1.55 1.35.25.95-.85 1.35-1.15.4-2.65 1.35 1.2-2.25-1.85-3.7" transform="translate(67.05 -47.65)"/><path fill-rule="evenodd" fill="#dfab55" d="m-43.25 91.25.75.9-1.3-.45.55-.45" transform="translate(67.05 -47.65)"/><path fill-rule="evenodd" fill="#e9af50" d="M-50.1 62.6q.05-2-.95-3.25-1.3-1.6-4.25-1.95l3.65-.45q5.15 2.2 5.7 4.8.05-2.75-.7-5.2l2.85 7.9-1.35 2.55-3.4-2.7-1.25 3.3-5.75-2.05q1.4-1.2 3-2l-2.55-.35q2.2-2.15 3.45-1.65 1.1.45 1.55 1.05 0 .95-.3 2.15.3-1.2.3-2.15m-6.25 14.15 4.45 8 4.55 1.65 4.1 4.85-.55.45-.65-.1-.15-.05-1.75-.4-3.85-1.3-.2-.05q-3.25-1.4-5.8-3.5-3.15-2.6-4.1-6.2l-.4-2.65 2.4.15h.85q.85-.1 1.1-.85m4.7-11.15q.35-1.5-.9-2.05 1.25.55.9 2.05" transform="translate(67.05 -47.65)"/><path fill-rule="evenodd" fill="#ee8011" d="M-54.5 90.45q3.05 1.45 1.85 3.7l-.05.05-.8.45-2 .1-.4-.1q-.95-.4-1.15-1.2-.25-.95.75-1.95.7-.7 1.8-1.05" transform="translate(67.05 -47.65)"/><path stroke-width=".5" stroke-linejoin="round" stroke-linecap="round" stroke="#b8800c" fill="none" d="M20.4 8.9q.75 2.45.7 5.2-.55-2.6-5.7-4.8l-3.65.45q2.95.35 4.25 1.95 1 1.25.95 3.25 0 .95-.3 2.15m-5.15.8-.5.45Q8.4 20.7 7.25 23.8l-.45 1.35q1.05.35 1.85.9l.95.7q.75.65 1 1.3l.1.45v.6m13.85 15.4 4.95.8 1.4-1.15.45-1.15.65-1.5m-5.05-26.7q-2.2-6.85-8.25-11.6-2.05-1.6-4.55-2.95 2.15 1.65 3.65 3.6l.65.9q1.2 1.75 1.85 3.75M16 11.7l-1.65-.05m.15 4.25q1.25.55.9 2.05m1.55-3q-.45-.6-1.55-1.05-1.25-.5-3.45 1.65l2.55.35q-1.6.8-3 2m-4.7 7.25-.75-.25-3.5-.25-.5.05q-1.3.3-1.8.95v2.15l.75.85q.8.75 2.1 1.05l.75.1h2.5l2.4.15h.85q.85-.1 1.1-.85m-4.35.7.4 2.65q.95 3.6 4.1 6.2 2.55 2.1 5.8 3.5l.2.05 3.85 1.3 1.75.4.15.05.65.1 1.3.45m4.05-29.05q-.8-.4-1.65-.65l.55 2.15q.7-.75 1.1-1.5.85-1.75.3-3.85l2.4 5.45m-.15.05 1.55 1.5q1.3 1.55 2.35 3.5l.45-.3q1.95-1.15 3.8-1.2 1.8-.1 2.45.95.55 1-.4 2.55-1 1.55-3.3 2.1l-1.05.25.6 1.9.35 1.25q1.6 6.6-3.4 11.15l-.05.1-1.8 1.35-1.35.8m3.7-20.9q1.1 2 1.95 4.35"/><path stroke-width=".5" stroke-opacity=".302" stroke-linejoin="round" stroke-linecap="round" stroke="#000" fill="none" d="M14.4 46.5q1.5-.95 2.65-1.35 1.1-.4.85-1.35-.25-.95-1.55-1.35l-2.95.05-.85.3m1.85 3.7-.05.05-.8.45-2 .1-.4-.1q-.95-.4-1.15-1.2-.25-.95.75-1.95.7-.7 1.8-1.05m21.95-1.95q1.65 0 2.8.65.55.3.85.7.35.45.35 1 0 1-1.2 1.7l-2.9.1-2.85-.65-.65-.2"/></g><g id="aj"><path fill-rule="evenodd" fill="#fefefe" d="M-39.75 78.1q1 2.25.55 4.8-.7 3.05-2.9 4.5l-5.15.15q-4-1-5.45-3.5-.6-1-.65-2.3 5.4-6.35 13.6-3.65" transform="translate(53.6 -73.85)"/><path fill-rule="evenodd" fill="#c7d1d8" d="m-53.35 81.75.2-2.1q.5-2.25 3.7-4.4 2.3-1.6 5.05-.95 2.8.65 4.3 3.1l.35.7q-8.2-2.7-13.6 3.65" transform="translate(53.6 -73.85)"/><path stroke-width=".5" stroke-opacity=".502" stroke-linejoin="round" stroke-linecap="round" stroke="#b8800c" fill="none" d="m.25 7.9.2-2.1q.5-2.25 3.7-4.4Q6.45-.2 9.2.45q2.8.65 4.3 3.1l.35.7q1 2.25.55 4.8-.7 3.05-2.9 4.5l-5.15.15q-4-1-5.45-3.5-.6-1-.65-2.3z"/><path fill-rule="evenodd" fill="#fefefe" d="m-31.1 80.75-.15.65q-.5 2.4-1.85 4.05t-2.8 1.45q-1.5-.25-2.1-2.15l-.2-.85q-.4-.7-.2-1.5v-.25l.3-1.8.6-2.05q4.7-1.95 6.4 2.35v.1" transform="translate(53.6 -73.85)"/><path fill-rule="evenodd" fill="#c7d1d8" d="M-37.5 78.3q.45-1.15 1.2-1.95 1.35-1.65 2.85-1.4 1.45.2 2.1 2 .5 1.65.25 3.7-1.7-4.3-6.4-2.35" transform="translate(53.6 -73.85)"/><path stroke-width=".5" stroke-opacity=".502" stroke-linejoin="round" stroke-linecap="round" stroke="#b8800c" fill="none" d="m22.5 6.9-.15.65q-.5 2.4-1.85 4.05t-2.8 1.45q-1.5-.25-2.1-2.15l-.2-.85q-.4-.7-.2-1.5V8.3l.3-1.8.6-2.05q.45-1.15 1.2-1.95 1.35-1.65 2.85-1.4 1.45.2 2.1 2 .5 1.65.25 3.7"/><path fill-rule="evenodd" fill="#161616" d="m-40.8 78.75-.1-.2h.15q.55.05.95.85.25.85.2 1.9-.1 1.1-.45 1.85-.45.7-1 .7-.55-.05-.8-.9-.4-.8-.3-1.85l.1-.55.35.2.85-.3.3-.8q0-.5-.25-.9M-36.5 79.15l-.1-.2h.15q.5.05.75.75.2.75.15 1.7l-.5 1.55-.9.55q-.5-.05-.65-.75-.3-.7-.25-1.65l.15-.45.3.15.75-.2.3-.65q.05-.5-.15-.8" transform="translate(53.6 -73.85)"/></g><g id="ak" stroke-opacity="0" stroke-linejoin="round" stroke-linecap="round" stroke="#f0f" fill="none"><path d="M187.95-293.5v380h-380v-380h380M92.95.6H-97" transform="translate(192.55 294)"/><path d="m187.95-293.5-190 190 190 190m-380-380 190 190L-192 86.5" transform="translate(192.55 294)"/></g><path fill-rule="evenodd" fill-opacity=".322" fill="#af077d" d="M4.7-1.95q1.9.8 1.95 2-.05 1.15-1.95 2-1.95.8-4.7.8t-4.65-.8Q-6.6 1.2-6.6.05q0-1.2 1.95-2 1.9-.85 4.65-.8 2.75-.05 4.7.8" transform="translate(6.6 2.75)" id="U"/><path stroke-width=".5" stroke-linejoin="round" stroke-linecap="round" stroke="#845c08" fill="none" d="M2.8 2.75Q.4 2.1.25.25m5.6 3.55q.55 2.15 5.4 2.1" id="V"/><path fill-rule="evenodd" fill="#303455" d="m40.95-78.9.15.05 1.75 1.2q1.9 1.65 3.45 4.55 3.25 6.7 3.55 14.4-.15 3.25-3.05 5.55l-14.15 7.2.75 1.3 1.05 3.55.2 1.3 5.8 19.05-7.8 10.5L27-8.7l-.1.05-5.65 1.5L15.2-8.8l1.4-2.05 2.5-3.85.2-.35.15-.25 2.35-.2 3.1-2.05 1.7-9.25-.3-.55q-1.6-2.65-3.75-4.6l.15-.6-.65.2-2.85.7h-.05l-.15.05-1.15 1.7-.65-1.8-.1-.2-1.55-2.25-.25-.4h-.05l-2.5-3-4.9-4.9-.3-.25-2.25-2-1.05-.8Q1.4-47.6-2.2-48.8l-.7-.25-2.9-.8-2.8.15-4.85.3-.9.1-7.8.45q-1.05-.9-2.35-1.4l-.1-.05-.25-.15-2.5-.65-2.15-.25q-1.95.55-3.7 1.3-2.2.85-4 1.95-3.25 1.9-5.55 4.55l-1.75 5.5-.95 3.9-.15.8-.6-.7-.75-1.45q-1.9-3.75-2.65-8.2-.55-3.45.2-5.9l1.15-.75 2 2.35.15.15 2.1 2.45q3.25-1.65 6.55-3.25l-.4-1 5.6-13.55 9.95-4.4 5.05-1.45 5.9-1.4.3-.05 9-1.35.85-.05 2.75-.2q8.15 3.45 15.1 7.95l5.3 3.75-4.15 2.15q-1.1 1.95-1.05 5.05v.8q.15 3.95 1.85 6.55l.8 1q1.5 1.7 3.8 2.4l1.9.4 4.4-2.3L27-46q-4.15-3.7-4.15-8.95l.05-.6L23-57l.25-1.15.05-.15.15-.55.95-2.35 13.6-6 1.7-11.25 1.25-.45M7.75 14.2l-7.4.65-3.6 3.4-1.6.95 4.5-6.65.1-.55.25.05 3.65.2 3.8-.4 2.45-.55.3 1.3-2.45 1.6m7.65 19.15h6.65l-.65 1.7.65.25 1.75 13.35-.2.55-4.9 8.25v.2l-.5 5.75v.05l-.35 3.25v.05l-22.2 8.7-8.05 1.4-.05-.55.85-4.6-2-1.05V69.1l2-.9 2.3-8.85-2.15-7.95v-5.25l-.1-.3 1.4-1.1 1.5.15-.05.75q1.05 2.75 3.05 1l.1-.05 1.45-1.75.75-5.35 2.15-1.85.35 8q.6 1.25 1.2 1.65 1.1.7 2.25-2.05l.45-4.55 5.4-5.2 6.9-2.15h.05m-45.75-48-2.45-4.55 1.35-1.25 1.2-1.3.4 1.5 2.05 5.7-2.55-.1m25.4 23.7q.2.75.8 1.35l.1.1 1.15.75-.3.8-4.6 6.2-1.5 1.25.3.35-3.25 8.1.4.6-3.2 1.45-3.15 6.7 2.3.85 2.65-1.1-.2 2.6-1.05-.05-1.4 2.7v10.25l2.1 7.95-2.25 8.85-2 .9v1.4l-2.75-.2.1 1.2 4.45.5.1.05-1.2 5.15L-24 78.9l-4.1-2.6 3.85-3.4.25-7.2-.1-.35.45-2.45-1.35-3.25 1.05-3.7L-25 54.4q.75-4.8.95-11.35.1-2.85.05-6l1.2-10.85 4.7-7.95.2-.3.2-.3 1.65-2.8-.05.05.1-.15 11-6.1.05.4M-7.3 24l1.55-3.25 1.1 1.25.1.25L-7.3 24" transform="translate(49.85 78.9)" id="b"/><path fill-rule="evenodd" fill="#eec59b" d="m22.1-39.7-1.7 9.25-3.1 2.05-2.35.2-.15.25-.2.35-2.5 3.85-1.4 2.05-.2.25 1 7.7.1.8q1.65.45 1.95 1.5.35 1.45-2.3 3.2l-1.2.75Q8.5-6.65 6.55-6l-2 .6-5.05.75-2.2-.05Q-5.85-5-6.25-6.45l.1-1.05-.35.1-1.7.05-2.85-.6-.75-.3-3.65-1.7q-6.65-3.35-13.65-8.8l-.4-.35-.3-.25-.7-.6-1-1.15-.7-1.15-.05-.1-.25-.95-.05-.95.1-.9.25-1 .25-.45-.35-.85-2.05-5.7-.4-1.5 1.85-1.95-.35 1.5.15 1.65.15.5 1.6 3.5 2.55.15 2.25-1.35v-1.2l-1.9-4.5-.35.15-1-1.35q-1.05-.6-2.2 0l4.95-5.35 1.25-2.6.65-1.55q1.5-3.75 2.15-7.5l-.1-.25 1-1.05.35-.3 5.1-4.5q1.75-1.4 2.9-1.85l-4.2.25v-.05l4.85-.3 2.8-.15 2.9.8.7.25q3.6 1.2 6.45 3.3l-.2.45-.2.5-.05.1-.05.1-.6 1.6-.45 1.4-.25 1.85-.05 3.05.8-.75.85-.8 1.05-1 1.15-1.05.6-.55-.4 1.85-.05.15v.1l-.1 1.1q-.4 7.2 1.35 14.25.9 2.45 2.3 4.3h.05l.75-2.85q1.15-4.3 2.65-8.25l1.7-4.2.05-.05.15-.35.25.4 1.55 2.25.1.2.65 1.8 1.15-1.7.15-.05h.05l2.85-.7.25.2.25.2q2.15 1.95 3.75 4.6l.3.55m-29.4 3.45-.25.5.25-.15v-.35m.15-4L-8.35-42q-1.15-1.65-3.2-2.1l-1.1-.15-.45.05q-1 .2-1.65 1.05-1.2 1.5-1.45 3.05l.65 2.15-.25.15 1.75 2.75 4.4.5.7-.4-.2.4.25-.45 1.15-.65.55-2.55.05-2.05m3.35 14.4-.65-.45-2.4.45-9.7 5.5-4.2 1 7.6 3.55-.1 3.35 2.95 2.1 1.9-.25 5.9-3 3.9-5.2-.45-2.25-.1-.45-.6-1.5-.65-.7-.25-.25-1.95-1.4-1.2-.5M-17.4-1l3-.55-6.1 3.4-.1.15-.4.7-1.2 2.05-.2.3-.2.3-4.7 7.95-1.2 10.85q-6.05 3.5-12.4 5.2l-.35.1-.3.05-3.1.65-.75-2.35 1.6-5.45-3.05-6.05-4.8-1.5 15-5 11.9-8.85q1.5-.65 3.8-1.2L-17.4-1m65.95 37.05 1 8.35 2.15 6.3-3 9.95-3.9 2.1-9.5-2.55-6.45-12.5.7.1 2.5.3q6.7-2 10.15-6.7l3.75-8.7 2.6 3.35" transform="translate(51.65 62.75)" id="d"/><path fill-rule="evenodd" fill="url(#h)" d="M3.3-2.55Q4.65-1.5 4.65 0q0 1.5-1.35 2.55Q1.95 3.6 0 3.6q-1.95 0-3.3-1.05Q-4.65 1.5-4.65 0q0-1.5 1.35-2.55Q-1.95-3.6 0-3.6q1.95 0 3.3 1.05" transform="translate(4.65 3.6)" id="ad"/><path fill-rule="evenodd" fill-opacity="0" fill="#f0f" d="M0 0h102.95v45H0V0" id="R"/><use xlink:href="#a" width="184.7" height="223.5" id="S"/><use xlink:href="#b" width="99.7" height="157.8" id="Y"/><use xlink:href="#c" width="61.65" height="129.1" id="Z"/><use xlink:href="#d" width="103.35" height="125.5" id="aa"/><use xlink:href="#e" width="137.95" height="150.3" id="ab"/><use xlink:href="#R" width="102.95" height="45" id="al"/></defs><path fill="none" d="M-1-1h260v312H-1z"/><g><use x="99.285" xlink:href="#S" width="184.7" transform="matrix(-1.3698 0 0 1.3698 390.636 1.862)" height="223.5"/><use x="99.285" xlink:href="#T" width="37.65" transform="matrix(-1.3698 0 0 1.3698 229.344 28.3)" height="37.75"/><use x="-318.115" y="186.772" xlink:href="#U" width="13.25" transform="matrix(-.6446 -.5143 -.5143 .6446 -53.481 -235.528)" height="5.6"/><use x="-99.285" xlink:href="#V" width="11.5" transform="translate(192.66 45.206) scale(1.3698)" height="6.15"/><use x="99.285" xlink:href="#W" width="27.5" transform="matrix(-1.3698 0 0 1.3698 216.08 3.316)" height="26.3"/><use x="-318.115" y="186.772" xlink:href="#U" width="13.25" transform="matrix(-.6446 -.5143 -.5143 .6446 -32.831 -222.528)" height="5.6"/><use x="99.285" xlink:href="#X" width="4.9" transform="matrix(-1.3698 0 0 1.3698 195.86 53.43)" height="9.5"/><use x="83.826" xlink:href="#Y" width="99.7" transform="matrix(-1.6224 0 0 1.6224 311.727 34.442)" height="157.8"/><use x="83.826" xlink:href="#Z" width="61.65" transform="matrix(-1.6224 0 0 1.6224 306.101 79.124)" height="129.1"/><use x="83.826" xlink:href="#aa" width="103.35" transform="matrix(-1.6224 0 0 1.6224 307.347 81.544)" height="125.5"/><use x="83.826" xlink:href="#ab" width="137.95" transform="matrix(-1.6224 0 0 1.6224 371.896 62.176)" height="150.3"/><use x="83.826" xlink:href="#ac" width="153.05" transform="matrix(-1.6224 0 0 1.6224 387.57 34.428)" height="168.15"/><use x="-46.543" y="121.269" xlink:href="#ad" width="9.3" transform="matrix(-2.3419 0 0 2.3419 -5.61 -162.38)" height="7.2"/><use x="-216.134" y="76.757" xlink:href="#ad" width="9.3" transform="matrix(-.9547 -.6163 -1.2682 1.9646 34.455 -142.157)" height="7.2"/><use x="83.826" xlink:href="#ae" width="150.4" transform="matrix(-1.6224 0 0 1.6224 387.165 34.428)" height="167.4"/><use x="8.443" y="368.263" xlink:href="#U" width="13.25" transform="matrix(-.764 .3135 .3135 .764 -33.72 -115.57)" height="5.6"/><use x="83.826" xlink:href="#af" width="16.65" transform="matrix(-1.6224 0 0 1.6224 219.002 146.13)" height="16.15"/><use x="99.285" xlink:href="#ag" width="46.3" transform="matrix(-1.3698 0 0 1.3698 388.966 172.524)" height="37.75"/><use x="-185.745" y="416.734" xlink:href="#U" width="13.25" transform="scale(-.6667 .6667) rotate(-3.026 -2176.47 3563)" height="5.6"/><use x="-318.47" y="325.985" xlink:href="#U" width="13.25" transform="matrix(-.6129 -.2644 -.2644 .6129 111.272 -75.79)" height="5.6"/><use x="99.285" xlink:href="#ah" width="12.55" transform="matrix(-1.3698 0 0 1.3698 370.542 200.33)" height="7.6"/><use x="83.826" xlink:href="#ai" width="42.2" transform="matrix(-1.6224 0 0 1.6224 364.532 140.858)" height="47.45"/><use x="345.544" y="202.757" xlink:href="#U" width="13.25" transform="rotate(38.601 153.537 44.065) scale(.7593)" height="5.6"/><use x="83.826" xlink:href="#aj" width="22.85" transform="matrix(-1.6224 0 0 1.6224 342.711 183.365)" height="14.35"/><use x="-13.139" y="368.145" xlink:href="#U" width="13.25" transform="rotate(-23.045 -154.836 -266.371) scale(.8258)" height="5.6"/><use x="109" y="284" xlink:href="#ak" width="381" transform="translate(-192.55 -294)" height="381"/><use x="-75.255" xlink:href="#al" width="102.95" transform="matrix(1.8072 0 0 1.6538 148.95 93.15)" height="45"/></g></svg>