<svg width="265" height="325" xmlns="http://www.w3.org/2000/svg" xmlns:xlink="http://www.w3.org/1999/xlink"><defs><radialGradient spreadMethod="pad" r="819.2" id="f" gradientUnits="userSpaceOnUse" gradientTransform="translate(-36.1 51.95) scale(.0834)" cy="0" cx="0"><stop stop-color="#8e653e" offset="0"/><stop stop-color="#b68954" offset=".659"/></radialGradient><radialGradient spreadMethod="pad" r="819.2" id="g" gradientUnits="userSpaceOnUse" gradientTransform="translate(-7 -.65) scale(.0471)" cy="0" cx="0"><stop stop-color="#291a0a" offset="0"/><stop stop-color="#482f11" offset=".659"/></radialGradient><radialGradient spreadMethod="pad" r="819.2" id="h" gradientUnits="userSpaceOnUse" gradientTransform="translate(43.55 -22.05) scale(.1169)" cy="0" cx="0"><stop stop-color="#291a0a" offset=".6"/><stop stop-color="#482f11" offset=".82"/></radialGradient><radialGradient spreadMethod="pad" r="819.2" id="i" gradientUnits="userSpaceOnUse" gradientTransform="translate(68.5 -7.5) scale(.0963)" cy="0" cx="0"><stop stop-color="#482f11" offset=".255"/><stop stop-color="#593d14" offset=".82"/></radialGradient><radialGradient spreadMethod="pad" r="819.2" id="j" gradientUnits="userSpaceOnUse" gradientTransform="matrix(.058 0 0 .058 -.15 -11.15)" cy="0" cx="0"><stop stop-color="#533313" offset=".255"/><stop stop-color="#623d17" offset=".824"/></radialGradient><radialGradient spreadMethod="pad" r="819.2" id="k" gradientUnits="userSpaceOnUse" gradientTransform="translate(2.5 117.35) scale(.1315)" cy="0" cx="0"><stop stop-color="#f9dcc1" offset="0"/><stop stop-color="#f4c995" offset="1"/></radialGradient><radialGradient spreadMethod="pad" r="819.2" id="l" gradientUnits="userSpaceOnUse" gradientTransform="translate(60.1 78.1) scale(.1042)" cy="0" cx="0"><stop stop-color="#f9dcc1" offset="0"/><stop stop-color="#f4c995" offset=".518"/></radialGradient><path fill-rule="evenodd" fill="#b1925c" d="m-14.75-11.95-.05.2 2.6-.7 1.5.3h.15l1.85.35 10 1.85 20.2 11.2 3.85 3.55.45 2.2h.05l1.35-.5 2.4 2.2-1.8 5.8-3.95-2-4.75-2.3-3.45-1.55L12.6 7.3l-.15-.05-3.55-1.5L4.5 4-.05 2.25l-1.85-.7h-.05l-.1-.05-.45-.15-.05-.05h-.05l-.35-.1-.6-.25h-.05L-4 .8l-.35-.2Q-8.3-1.5-12.4-3.25l-5.2-2.15q-5.85-2.15-11.95-3.7l.6-1.45 5.6-3.95 8.05 1.5.55 1.05" transform="translate(29.55 14.5)" id="a"/><path fill-rule="evenodd" fill="#fff5df" d="m45.8-52.35-5.3 1.9 2.45 1.3.25-.5 4.9-1.15-5 3.25 5.8 1.35-.65 6.4 1.8 1.15-5.6 9.15v2l-.35.2.1.15.15.45 4.75 3.55-2 3.7-2.5.7.75 7.9-2.75 4.3L40.15 8.1l-.65-.65-7.6 2.35.2 4.2-3.1-.2-4.65 4.05.1 4.9L7.9 33.3l-2.6-1.25-13.95 7-.5 4.95-1.55-.8v-.05h-.05l-2.4-1.3h-.6l-.65.4-4.15 2.9-.25.2-3.05 2.9-2.15 2.4-.75 10.55-1.25.65-.45.2-1.5.8-2.4 1.2-3.8.5-.7-4.8-.05-.45-.3-2.05q-1.3-10.5-1.5-20.85l-.05-1.5v-4.65l.05-3.9-7.25 11-.8-11.95-1.4 5.45-3.85-20.3 8.7-7.6 1.55-1.25L-37.8.15l-.15-.15 4.65-6-2.85.3-1.8-6.45h.05l.05-.05h-.05l2.2-4.7.1.05v-.05l-.1-.05-4.95 4.8-.55-.55.7-1.4-1.8-5.85 13.9-13.85 2.95-1.9 2.65-.05h-.8l-1.9-3.85 2.8-1.05-2.65-.9-.4-.95 3.35-2.65-.1-.15-3.7.7-.8-4.8 2-.9q2.55-1.2 5.1-2.05l1.5-.45 1.25-.4 1.85-.5-2.9-5.65-.25-1.05q-.15-1 .15-1.8l.45-.85.8-1.5q1.4 1.6 3.15 3.05 2.45 2.1 5.6 3.9l.1.05.35.2 7.5.05.25.8 4 1.5 7.45-3.6 2.3-.4v-.25h.45l12.55-2.25.05.15-.45 3.7q6.9-2.8 14.35-3.4l2.65-.15 2.55 8.85m-57.1 3.4.35.3-.3-.25-.05-.05m1.55 12.4-1.85-.15-.55.2 1.75.25.65-.3m49.05 29-2.05 2.6.35.35.1-.1 1.55-2.55.05-.3m-2.55-37.4-1.45-.9-.05.2 1.5.7" transform="translate(50 64.55)" id="b"/><path fill-rule="evenodd" fill="#877850" d="M62-70.9q2.25 11.2.35 19.45l-20.5 37.7v3.35L37.8-5.15l1.6 1.25L34.5 16l-.6.5-.15-.15 5.65 7.05-4.1 9.3-2.45 2q-.3 3.45-.1 6.8.15 3.8.95 7.55l1.25 4.8 1 2.85q1.75 4.7 4.5 9.25l2.05 3.15-87.7 1.5-3.2-7.15 3.45-4.7 1.4 1.8 2.35 2.7 4.55-5.8.05-7.85-3.2-6.9-.9-1.2-1.3-2.3-1.3-2.4 1.25-1.45.6-.4 9.65-9.6 2.55-11.5 9.8 7.15-8.15-6.25 6.3 3.65 8.7 6.65 4.95 1.1 5.6 3.5 6.7-5.15 3.8-4.85L10.3 13l26.05-33.15 22.9-35.6q3.75-6.9 2.5-15.1l.25-.05M4.85-33.8l-6.3 7.45.25 3.9-1.35.9-.35 1.15-11.85 9.65q-3.9-1.7-9.3-3.3l-2.25-.6-2.25-.6.3-3.2 13.95-7 2.6 1.25L4.85-34.75v.95M-45.6 4.35l10.85 6.25-.9 3.25v.05l-2.65 9.8-7.45 5.8-.85.4 2 4.35.1.25 1.35 8.05 1.1 6.5-1.65 4.5-3.2 2.4-2.8-4.75-.1-.2-4.45 7.05.15 4.95 2.5 7.7-11.55.2.4-10.1 1.9-18.3L-55 25.05l.1 6.7h.3l1.45-5.05-.3-3.55 1.45-3.9-.1-2.55.95-.85-.4-1.75-.3-6.6 1.9-.95 2.4-1.2 1.5-.8.45-.2m13.7 45.25-.35-.25q1.7 2 4.8 3.6l-4.45-3.35" transform="translate(63.15 70.9)" id="c"/><path stroke-width="2.4" stroke-linejoin="round" stroke-linecap="round" stroke="#322313" fill="none" d="m91.9 7.7.55 6.85-2.05 1.85.3 2.6-3.45 2.45-5.7-3.7-6.7-.7 8 6.6-7.8-1.6-69.4-3.3-4.45 8.6L7.4 41.8l18 12.85 1.55-4.1h4.45l2.4 5.8L30 58.2l6.4 4.2 20.35 9.9q-3.55 1.2-7.1 2.95l.8 4.8 3.7-.7-3.25 2.8.4.95 2.65.9-2.8 1.05 1.6 3.2-.55.25-3.95 2.35-13.9 13.85 1.8 5.85-.7 1.4.55.55-10.9 18.7-4.75 19.1-1.45 2.45L13.15 167l-1.85 11.4-2.15 5.6q-.25 4.2 2.75 7.9 2.4 1.75 6.35 2.3l13.5-3.1 7.1-.6 3.65-1.3.6 1.1 1.3-.65.25 5.05-3.5 7 .1 5.5-5.85 17.45-1.9 18.3-.4 10.1 105.65-1.8q-11.2-16.3-9.65-34.4l2.45-2 4.1-9.3-5.5-6.9.6-.5 4.9-19.9 3.25-3.05-.8-1.9v-4.9l20.5-37.7q1.95-8.6-.55-20.4l-.2.05v-.05l-.05-.25-.05-.05-.25-.8.4.6.05.05.85-.25 36.05 5.35 7.9-2.9 1.4-7.25-25.95-30.9-.65-.35-15.3-14.1q-9.55-6.3-20.05-11.7l1.9-6.15 10.65-8.45-2.15-2.75-4.95.85-2.15 2.15-1.8-1.5 4-3.15 4.35-.15 1.2-2.5-4.55-1.5-2.5 1.6 3.85-4.45 4.6-1.55 9.8-7.15 4.8-9.15-15.6 6.6-5.15 2.75q-4.8 3.05-7.65 6.55-2.25 2.65-3.35 6.9l-7.3-6.1-14.55-5.4.8-2.8-1.15-2.35-2.5.65-.2 3.4-6.55-2.4 3.65-5.3-3.55-4.4-9.3-.8.85 2.7-1.9 5.65-1.6-2.65-2.3.8z" id="t"/><path fill-rule="evenodd" fill-opacity="0" fill="#f0f" d="M0 0h102.95v45H0V0" id="e"/><use xlink:href="#a" width="59.15" height="29" id="n"/><use xlink:href="#b" width="100.05" height="129.1" id="o"/><use xlink:href="#c" width="126.35" height="141.8" id="p"/><use xlink:href="#d" width="4.95" height="4.45" id="r"/><use xlink:href="#e" width="102.95" height="45" id="v"/><g id="q"><path fill-rule="evenodd" fill="#9f6224" d="m33.15-23.45.85-.05-.7.05h-.15M.6 1.15l.5 1.6.2.7-1.4.05-.35-1.35 1.05-1m31.6-11.9.1.4.1 1.05-.1.6-.2-1.15-.15-.5-.1-.3.35-.1M51.95 8.4l2.5-1.75q-.6 1.05-1.85 1.55l-.4.15-.25.05" transform="translate(74.15 63.05)"/><path fill-rule="evenodd" fill="#d0bc93" d="M46.1 34.05v.05l-.1-.05h.1m-76.7 91.7-1.3.65-.6-1.1 3.8-.5-.5.25-.35.15-1.05.55m21-113.9.3.25-.35-.3.05.05m-26.7 48.9.15.15-1.95 1.55-1.55 1.25 3.35-2.95" transform="translate(74.15 63.05)"/><path fill-rule="evenodd" fill="#f4c995" d="m39.3 68.8 1.85-.6.65.65L46.1 73l3.75.3 1.4 6.65.05.05h-.05v-.05l-13.45-7.4 1.5-3.75m.7 1.4-.2.8.2.75.5.35.5-.35.2-.75-.2-.8-.5-.3q-.3 0-.5.3m1.5 8.95.75.7L46.4 81l.6.15 2.65.75.5.1.45 3.85-2.2 1.6-16.45-8.4.3-4.4 1.5.1 3.1.15 4.65 4.25M21.85 94.7l8.95-1.85h.6l3.1-.1 6.95-.2.5 5.55-.55.7-17.75.35-1.8-4.45m12.1-18.6q-.45 0-.75.25t-.3.6q0 .35.3.6l.75.25.75-.25.3-.6-.3-.6q-.3-.25-.75-.25M30 85.5l.3.7.75.4.75-.4.3-.85-.3-.9q-.3-.35-.75-.35-.4 0-.7.3l.5-1.4 5.35 1.95.2.05 8 1.2 1.4 3.2 1.25 3-1.65 1.4-16.15-5.95.75-2.35m7.5 9.3q-.65.55-.65 1.25t.65 1.2q.65.55 1.6.55.95 0 1.6-.55.65-.5.65-1.2t-.65-1.25q-.65-.5-1.6-.5-.95 0-1.6.5m-13.35.55-.9.2q-.35.2-.35.5l.35.5.9.2.85-.2.4-.5q0-.3-.4-.5l-.85-.2M47.3 82.6q-.7 0-1.2.45-.45.45-.45 1.1 0 .65.45 1.1.5.45 1.2.45t1.15-.45q.5-.45.5-1.1 0-.65-.5-1.1-.45-.45-1.15-.45m-1.15-6.7q0 .7.5 1.2.55.55 1.25.55t1.2-.55q.55-.5.55-1.2t-.55-1.25q-.5-.5-1.2-.5t-1.25.5q-.5.55-.5 1.25m-4 14.65q.85 0 1.4-.45.6-.45.6-1.1 0-.65-.6-1.1-.55-.45-1.4-.45-.85 0-1.45.45-.55.45-.55 1.1 0 .65.55 1.1.6.45 1.45.45" transform="translate(74.15 63.05)"/><path fill-rule="evenodd" fill="#ecc08c" d="m18.35 97.85.35-1.15 1.35-.9-1.7 2.05" transform="translate(74.15 63.05)"/><path fill-rule="evenodd" fill="#845811" d="m33.35-51.4 4.25 1.6.2-3.4 2.5-.65 1.15 2.35-.8 2.8 14.55 5.4.8.65 2.35 11.85-7.1-3.95-1.6-.9-4.1-2.25-.45-.25-4.4-2.45-10-1.85-1.85-.35 4.5-8.6M67.2-16.15l10.75 5.9-.6 1.5L81-5.4 56.4-17.45l-5.85-2.85-12.05-5.9-2.35-1.15-.1-.05-.55-.3-.1.65-1.7-.3L2.6-37.3l-74.15-3.6 2.2-4.25 69.4 3.3 3.35.6 2.95.65h.1l1.4.35 2 .5q6.1 1.55 11.95 3.7L27-33.9q4.1 1.75 8.05 3.85l.35.2.4.15h.05l.6.25.35.1h.05l.05.05.45.15.1.05h.05l1.85.7 4.55 1.75 4.4 1.75 3.55 1.5.15.05L55.05-22l3.45 1.55 4.75 2.3 3.95 2M82.3-7.6l.05.05 4.9 3.1 15.3 14.1.65.35 19.35 23 .75 1.7.35-.35 5.5 6.55-1.4 7.25-5.4 2q2.95-8.15-1.65-13.3L103.25 15.1 81-5.4l1.3-2.2M39.8-44.9l.55-2.6-.55 2.6m.55-2.6.05-.25.25-.95-.25.95-.05.25m11.55 5.65-.1 1.2-1-.55.3-1.55-.3 1.55 1 .55.1-1.2m1.4 3.2-1.6-.65.1-1.35 1.1.6-1.1-.6-.1 1.35 1.6.65m-5.1-4 2.6 1.45-.3 1.4-2.25-.9 2.25.9.3-1.4-2.6-1.45m1.45 7 .85-4.15 1.2.5-.45 4.55.45-4.55-1.2-.5-.85 4.15M37.6-49.8l-.15 1.8.15-1.8" transform="translate(74.15 63.05)"/><path fill-rule="evenodd" fill="#544b36" d="M63.1 107.85v1.55l.8 1.9-3.25 3.05-1.6-1.25 4.05-5.25M-11 167.6l.35.25 4.45 3.35q-3.1-1.6-4.8-3.6" transform="translate(74.15 63.05)"/><path fill-rule="evenodd" fill="#fff5df" d="m19.55-1.6-1.1-.15h-.05q1-3.95 13.7-8.1l.2 1.15q.1 2.1-1.45 4.35l-4.65 2.6q-3.8.4-6.65.15M-9.6 11.85l-.05-.05.05.05m-26.65 36.7h.05l-.05.05h-.05l.05-.05m2.2-4.7v-.05l.1.1-.1-.05" transform="translate(74.15 63.05)"/><path fill-rule="evenodd" fill="#fff" d="m15.25-5.45.05-.25.1.45-.15-.2m16.6-5.2.35-.1-.35.1" transform="translate(74.15 63.05)"/><path fill-rule="evenodd" fill="#dfdcca" d="m15.3-5.7.25-.95q.7-2.45 2.6-4.85l.05-.1.35-.45 1.75-1.3.05-.05.2-.1q2.45-1.65 4.9-2.1l2.85.05q1.2.25 2 1.1 1.45 1.65 1.9 3.7l-.35.1.1.3.15.5Q19.4-5.7 18.4-1.75q-2.25-1.6-3-3.5l-.1-.45" transform="translate(74.15 63.05)"/><path fill-rule="evenodd" fill="#533313" d="m9.8-22.05 12.7-3.7 3.4-.05h.1l3.4.25 2.25.3 2.85.55.2.1v-.05l.95.25q2.15.65 4.55 1.9l2.2 1.2 2.8 1.8.1.1.65.45-.1.4-.15 2.9q-.35-1.55-3.55-3.6L38-21.5q-4.1-2.25-2.3-.75l-1.55-.9-.85-.3.7-.05-.85.05-1.75-.2-1.85.15-.4.05-.9.2-.75-.05-1.55-.1q-4.85-.05-11.6 1.9L9.75-20Q5-18.25 2.2-16.45q-1.75 1.1-2.75 2.2l.05-.1.25-.45.05-.1.6-.85.35-.55Q1.7-17.7 3.6-19l2.05-1.25.1-.05 1.2-.65 1.2-.2 1.1-.15h.2l.05.05.1-.1.15-.2-.05-.1.1-.4m39.35 5.9 2.5 3.15.35.5.85 1.2 1.25 1.9 1.75 3.1.75 1.55.25.75.45 1.55q.6 2.7.55 5.5l-.05.85v.05l.05.35-3.4 2.35-2.5 1.75-1.85 1.3-.35.25-4.9 1.15-.25.5-2.45-1.3 1.1-.4 4.2-1.5-1.3-4.45 2.05-.55 1.85 3.45L52.7 5.3l2.8-6.75q-1-3.5-3.95-7.9l-2.7-3.25.2-.95.1-2.6M57.4 9.5v.05q3.9 3.7-.35 8.95l-4.7-3.7.4-2.8 2.65-1.15.55-.4 1.45-.95m-3.75 15.7.35.2-.25 2.2-.1-2.4" transform="translate(74.15 63.05)"/><path fill-rule="evenodd" fill="#623d17" d="m1.1 2.75 4.9.7L10 .7l5.3-.4v1.45l-2.3.4-7.45 3.6-4-1.5-.25-.8-.2-.7m50.45-12.1q-1.45-.95-3.15-1.5l.45-1.75 2.7 3.25M-2.5-2.85-3-.9l-2.45 3-.05.1-.25-2.85 3.25-2.2" transform="translate(74.15 63.05)"/><path fill-rule="evenodd" fill="#845220" d="m57.85 4.3.1-.05.05-.05q.15-.1.35-.25l1.9.05.35.05h.1l.5.1q1.85.45 3.1 1.75l.2.7.1.4.5 3.8.05 2-.05.6v.55l-.85 4.75-1.1 1.25q-2.1 2.1-3.65 2.6-1.75.7-3.2.85h-2.1l-.7-.15-.1-.05-1.7-1.1-1.1-.7-.35-.25-.35-.2.65-6.4-5.8-1.35 5-3.25.35-.25 2.1-1.35.4-.15q1.25-.5 1.85-1.55l3.4-2.35M.65.1l6.8-5.8.7.35 2.6 1.15q5.45 2.35 7.6 2.7l1.2-.1q2.85.25 6.65-.15l4.65-2.6Q32.4-6.6 32.3-8.7l.1-.6-.1-1.05q9.05-2.4 15.05-.85l.8 1.35.25-1q1.7.55 3.15 1.5 2.95 4.4 3.95 7.9L52.7 5.3l-2.65 1.55L48.2 3.4l-2.05.55L45.1.25V.2l-.2-.65-2.65.15Q34.8.3 27.9 3.1l.45-3.7v-.15h-.05L15.75 1.5h-.45V.3L10 .7 6 3.45l-4.9-.7-.5-1.6L.5.8.65.1m11.4-.45h3.25V.3v-.65h-3.25M8.5-3.7q-.95 0-1.6.65-.65.65-.65 1.6 0 .95.65 1.6.65.65 1.6.65.95 0 1.6-.65.65-.65.65-1.6 0-.95-.65-1.6-.65-.65-1.6-.65M36-4.6 32.35-.4 44.6-2.45l-1.45-2.1Q40.2-7.8 36-4.6M62.05 8.05q-.35 1.7-.35 4.05 0 2.35.35 4 .35 1.7.85 1.7t.85-1.7q.35-1.65.35-4t-.35-4.05Q63.4 6.4 62.9 6.4t-.85 1.65m-6.1 2.4-.55.4L52.75 12l-.4 2.8 4.7 3.7q4.25-5.25.35-8.95V9.5l-1.45.95m4.25 4.6.2-.75.1-1.05-.2-1.6q-.5-1.5-2.1-2.7l-.8.6.8-.6 2.9-2.2-2.9 2.2q1.6 1.2 2.1 2.7l.2 1.6-.1 1.05-.2.75M53.8 21l.05.3.3.5.2.15.15.1 1.75.45h.3l1.4-.45q.75-.45.75-1.05 0-.6-.75-1.05l-.5-.25-1.2-.2q-.95 0-1.7.45h-.05l-.5.45-.2.6m-78.15 101.6 1.25-.65-.55 1-.7-.35" transform="translate(74.15 63.05)"/><path fill-rule="evenodd" fill="#c4ba9b" d="m-.55-7.5 1-1.55.95-.85q.5-.35 1.15-.35 1.2-.05 2 1.25l.1.5v.55l.1-.45q.2 1.5-.5 3.2-.25.45-.75.7-.5.25-1.2.35Q.55-4.1-.2-5q-.45-.55-.55-1.15l.1-1.15.1-.2" transform="translate(74.15 63.05)"/><path fill-rule="evenodd" fill="#654f2c" d="m45.95-18.95.35.1 1.15.1L47-11.7l-1.35-2.2.05-1.75.15-2.9.1-.4M65.1 10.8l4.6-.35-.3.7-.7 1.65 2.9.65 8.65 1.9-.5 2.5-3.3.7-1.75.35-2.45.45-6.6 1.05v.15l-.55 1.6 7.55 2.7-.25.7 1.15 3.2 7.2.3-2.2 3.55-10.15-1.25h-.05l-1.1 3-3.45.45-1.9 1.1-6-2.05-2.05-2.65 1.6-5.05 2 1.05q2.3-1.2 4.65-2.35l1.05-4.9 1.1-1.25.85-4.75v-.55l.05-.6-.05-2m-85.15-32.15.2-.8 1.55-4.3v4.5l3.4 3.55 4.9 1 13.75-5.7 4.4 1.95-1.2.2-1.35.3h-.15l-2.1.55-3.5 1.15-2 .8-.6.25-5.15 2.75-.95.55-.35.25-1 .6-5.5-.3-3.5-3.25-.85-4.05" transform="translate(74.15 63.05)"/><path fill-rule="evenodd" fill="#5e2a0a" d="m83.8 45.7-.85.25-.05-.05-.4-.6-.1-.25-.45-1.05-.05-.05 1.9 1.75" transform="translate(74.15 63.05)"/><path fill-rule="evenodd" fill="#9b6126" d="M8.5-3.7q.95 0 1.6.65.65.65.65 1.6 0 .95-.65 1.6Q9.45.8 8.5.8 7.55.8 6.9.15q-.65-.65-.65-1.6 0-.95.65-1.6.65-.65 1.6-.65M36-4.6q4.2-3.2 7.15.05l1.45 2.1L32.35-.4 36-4.6M81.95 44l.45 1.05.1.25.25.8.05.05.05.25v.05l-.55-1.5-.35-.95M62.05 8.05q.35-1.65.85-1.65t.85 1.65q.35 1.7.35 4.05 0 2.35-.35 4-.35 1.7-.85 1.7t-.85-1.7q-.35-1.65-.35-4t.35-4.05M53.8 21l.2-.6.5-.45h.05q.75-.45 1.7-.45l1.2.2.5.25q.75.45.75 1.05 0 .6-.75 1.05l-1.4.45h-.3l-1.75-.45-.15-.1-.2-.15-.3-.5-.05-.3m-90.05 27.55-.05.05H-39l4.95-4.8v.05l-.7 1.45-.15.4-1.35 2.85" transform="translate(74.15 63.05)"/><path fill-rule="evenodd" fill="#6f4617" d="m17.45-49.35-.55-6.85 2.3-.8 1.6 2.65-2.5 7.5-.65.5-.2-3 .2 3 .65-.5 2.5-7.5L22.7-60l-.85-2.7 9.3.8 3.55 4.4-3.65 5.3 2.3.8-4.5 8.6h-.15l-1.5-.3-2.6.7.05-.2-.55-1.05-8.05-1.5-.35.25-.3-2.6 2.05-1.85M56-42.65l7.65 6.4-.9 8.55-1.85-1.7-2.55-1.4L56-42.65m-32.3-11.3q1.5-2.5 3-7.65-1.5 5.15-3 7.65m-11.45 11.5-1.8 1.25-.6 1.45-2-.5-8-6.6 6.7.7 5.7 3.7m5.4-3.9-1.6 1.2 1.6-1.2m5.4-2.3q3-5.3 5.6-12.85-2.6 7.55-5.6 12.85m4.45 1.85q.2-2.05 3.55-5.4-3.35 3.35-3.55 5.4" transform="translate(74.15 63.05)"/><path fill-rule="evenodd" fill="#322313" d="M-8.2 131.95h.05l-.05.05v-.05m.2.1.05-.25 1.6 1.2-1.65-.95 1.65.95 8.15 6.25-9.8-7.15-.15-.15.15.1" transform="translate(74.15 63.05)"/><path fill-rule="evenodd" fill="#b68954" d="M77.5 37.35q2.85 3.1 4.4 6.6l.05.05.35.95-3.5-3.7-1.7-.5q-1.25-2.15-3.1-.95l-3.15-1-9.55 1.95-11.55 8.3-5.8 7.15.3-2L47 49.9l1.1-1.7 3.4-4 2.65-2.55 1.2-1.05q3-2.55 6.55-4.7l1.9-1.1 3.45-.45q4.15-.35 8 .75l2.25 2.25M35.6 69.9l2.45-.75.35-.1.9-.25-1.5 3.75 13.45 7.4V80l-1.6 1.9 1.6-1.9h.05l.05-.05 2.45 2.75-.4 4.4-3.35 2.9.35.4-2.85 4-2.65 4.75-6.25 7.6-3.1-.65-11.15-.15-6.9 2.95 8-5.55.75-.05 12.1-.7 1.35-1.65 1.7-2.15-1.7 2.15-17.2.6-3.55 3.65-2.45-1.35.05-.1 1.8-5.9 1.7-2.05 1.6-1.1h.2l1.8 4.45 17.75-.35.55-.7-.5-5.55-6.95.2-7.6-4.4-.15-4.7.2-.2 1.2-1.45 2.7 1-.5 1.4-.05.05q-.3.4-.3.9v.15l-.75 2.35L45.4 93.8l1.65-1.4-1.25-3-1.4-3.2-8-1.2-.9-2.35-5.75-4.15.05-.15.25-3.25.6-.55 1.6.1-.3 4.4 16.45 8.4 2.2-1.6-.45-3.85-.5-.1-2.65-.75-.6-.15-4.15-1.15-.75-.7.9-1.7-.05-.05-6.45-5.55-.3-1.95M-7.3 103l2.25.6 2.25.6q-19.75 12.95.15 30.45l1.7 1.5-5.4-3.15-1.6-1.2-5.5-2.95h-.05l-3.25-1.9-2.8-4.3-.95-5.25 1.55-7.2 6.15-4.95.2-.05 4.6 1-.45-1.95.95.5.2-1.75m53.1-13.6 2.6-1.95-2.6 1.95m-3.1 6.7 2.7-2.3-2.7 2.3m-87.6-6.65.4 2.15 1.4-5.45.2 2.8-1.3 5.85 2.85 17.85 4.3 6.2 3.35 1.4.45-.2.05.45-.5-.25-11.35 6.15-9.85-.7-3.65 2h-.1l-5.2-6.75.1-5.9 2.55-1.4 3.85-12.2 5.85-8.05 6.6-3.95m3.7 11.3 2.2 1.15.05-.1 2.05-2.45.85 14.5-4.25-7.05-.9-6.05m33.05 31.2.2-.15-.05.25-.15-.1m-47.35-9.3-5.05-5.1-.8 1.05 1.8 5.25 4.05-1.2" transform="translate(74.15 63.05)"/><path fill-rule="evenodd" fill="#b55b04" d="m-23.95 188.85-6.4.1-2.5-7.7-.15-4.95.7-1.15 6.05 5.35-.9 1.2 3.2 7.15m2.15-43.2 4.75-3.7 2.65-9.8v-.05l5.2 4.85-1.35 6.65-6.65 6.65-4.6-4.6m6.45 24.6-.05 5.45-1.75 2.25L-24 173l1.55-1.2 1.65-4.5-1.1-6.5.15.2.05.1 6.35 9.15" transform="translate(74.15 63.05)"/><path fill-rule="evenodd" fill="#b6aa1f" d="m-22.65 146.3.85-.65 4.6 4.6-1.35 1.35-4.1-5.3m-2.95 33.3-.65.9-6.05-5.35 1.1-1.7 5.6 6.15" transform="translate(74.15 63.05)"/><path fill-rule="evenodd" fill="#5e3002" d="m-14.4 132.1.9-3.25h.05l5.5 2.95-.2.15h-.05v.05l.05-.05.15.15-1.2 4.85-5.2-4.85m-7.65 22.95 1.3 2.4 1.3 2.3.9 1.2 3.2 6.9v2.4l-6.35-9.15-.05-.1-.15-.2-1.35-8.05 1.2 2.3m4.9 22.9-2.8 3.55-2.35-2.7-1.4-1.8-.65-.9-1.3-1.9L-24 173l6.85 4.95" transform="translate(74.15 63.05)"/><path fill-rule="evenodd" fill="#60472b" d="M52.2 8.35 50.1 9.7l1.85-1.3.25-.05M-8.1 24.2l-.65.3-1.75-.25.55-.2 1.85.15m54.2 9.05v.8H46l-.15-.45-.1-.15.35-.2m-6.85 22.9-.35-.35 2.05-2.6-.05.3-1.55 2.55-.1.1" transform="translate(74.15 63.05)"/><path fill-rule="evenodd" fill="#593d14" d="m77.95-10.25.1.05.1.1 4.15 2.5L81-5.4l-3.65-3.35.6-1.5M122.55 33l1.1 1.35-.35.35-.75-1.7M69.4 11.15l2.2 2.3-2.9-.65.7-1.65m7.05 7.4-1.9.8.15-.45 1.75-.35M35.4-27.05l.1-.65.55.3.1.05 2.35 1.15 12.05 5.9 5.85 2.85-.05.15-5.9-2.8L36-26.95l-.6-.1M-36.35-.4l-2.25-1.1-6.4-4.2.6-.25q2.05 2.25 8.05 5.55" transform="translate(74.15 63.05)"/><path fill-rule="evenodd" fill="#ffe21a" d="m-25.35 148.15.85-.4 1.85-1.45 4.1 5.3-1.65 1.6-.6.4-1.25 1.45-1.2-2.3-.1-.25-2-4.35m-3.2 21.1.1.2 2.8 4.75 1.3 1.9.65.9-1.9 2.6-5.6-6.15 2.65-4.2" transform="translate(74.15 63.05)"/><path fill-rule="evenodd" fill="#503c23" d="m55.45 26.15-1.6 5.05 2.05 2.65 6 2.05q-3.55 2.15-6.55 4.7l-2.1-1.45-2.75-8.35 2-6.15 1.15.55.1 2.4.25-2.2 1.45.75" transform="translate(74.15 63.05)"/><path fill-rule="evenodd" fill="#482f11" d="m63.65-36.25 2.3 1.95 7.75-5 4.55 1.5-1.2 2.5-4.35.15-4 3.15 1.8 1.5 2.15-2.15 4.95-.85 2.15 2.75L69.1-22.3l-.1.35-2.4-2.2-1.35.5h-.05l-.45-2.2-2-1.85.9-8.55M3.9-24.95l-.85.1-2.35.9-5.5 2.05q-3.9 1.35-7.8 1.05-4.35-1.55-5.4-6.25l-.3.65-1.55 4.3-.2.8q-.7 2.95-.65 5.95.95 3.15 3.65 4.75-19.1-1.6-25.4.1l-1.15-2.8h-4.45l-1.55 4.1-18-12.85-6.2-14.45 2.25-4.35L2.6-37.3l31.1 9.95-14.85-2.35L4.65-25l-.75.05m-33.85 2.6.55-1.2 9.55 1.4-9.55-1.4-.55 1.2m39.45.45.05.05-.05-.05m58.7-9.7.5-.4-.5.4m-2.25-2.7-1.6 1 1.6-1m-98.2 11.95.75-1.6 2.1.4-2.1-.4-.75 1.6m2.15-13.85 6.65 3.65 2.3-.8-2.3.8-6.65-3.65m3.4 4.75 3.25-1.1Q-13.3-27.6.7-23.95q-14-3.65-24.15-8.6l-3.25 1.1m-2.7 7.9.95-2.35-.95 2.35m-28.95-7.5q13.2 4.55 26.85 7.1l.6-1.3-.6 1.3q-13.65-2.55-26.85-7.1" transform="translate(74.15 63.05)"/><path fill-rule="evenodd" fill="#8a755b" d="M-9.1 103.9h.05v.05l-.05-.05" transform="translate(74.15 63.05)"/><path fill-rule="evenodd" fill="#8b7654" d="M-17.05-10.65q-2.7-1.6-3.65-4.75-.05-3 .65-5.95l.85 4.05 3.5 3.25 5.5.3-5.95 3.55-.9-.45" transform="translate(74.15 63.05)"/><path fill-rule="evenodd" fill="#382b18" d="m47.45-18.75.55.55 1.15 2.05-.1 2.6-.2.95-.45 1.75-.25 1-.8-1.35-.35-.5.45-7.05m27.1 38.1-1.9 5.5-7.55-2.7.55-1.6v-.15l6.6-1.05 2.45-.45-.15.45m4 13.25-.95 1.5-.1 3.25-2.25-2.25q-3.85-1.1-8-.75l1.1-3h.05l10.15 1.25M.7-23.95l2.35-.9.85-.1.75-.05q2.1-.05 3.55.85l1.3 2.25.05.05.15.2.05.1-.15.2-.15.05h-.2l-1.1.15-4.4-1.95L-10-17.4l-4.9-1-3.4-3.55v-4.5l.3-.65q1.05 4.7 5.4 6.25 3.9.3 7.8-1.05l5.5-2.05m62.45 43.9-1.05 4.9Q59.75 26 57.45 27.2l-2-1.05L54 25.4l-.35-.2-1.15-.55-2 6.15 2.75 8.35 2.1 1.45-1.2 1.05-2.65 2.55-3.4 4-1.1 1.7-.75-7.9 2.5-.7 2-3.7-4.65-3.5v-2.85l2.8-4.55.5-.85 2.3-3.75 1.7 1.1.1.05.7.15h2.1q1.45-.15 3.2-.85 1.55-.5 3.65-2.6M-1.9-11.25l-.2.6-.15 4.2-3.25-.25-.5-3.15 4.1-1.4" transform="translate(74.15 63.05)"/><path fill-rule="evenodd" fill="url(#f)" d="m-63.7 114.5 1.85-11.4 5.75-14.25 1.45-2.45 4.75-19.1L-39 48.6h2.7l1.8 6.45 2.85-.3-1.65 2.15-.2.3-2.8 3.55-3.35 2.95-8.7 7.6 2.8 14.6q-8.25 6.45-11.65 11.3l-6.5 17.3m9.05-28.1 3.05-5.15-3.05 5.15" transform="translate(74.15 63.05)"/><path fill-rule="evenodd" fill="#8f663e" d="m33.65 72.2-.1-1.65 2.05-.65.3 1.95 6.45 5.55.05.05-.9 1.7-4.65-4.25-3.1-.15-.1-1.7v-.85M6.5 107.5l11.85-9.65-1.8 5.9-.05.1 2.45 1.35 3.55-3.65 17.2-.6-1.35 1.65-12.1.7-2-1.8 1.25 1.85-8 5.55-.7.5-.45-.25-1.55-.8q-3.3-1.3-8.3-.85m13.55-11.7-.25-3.9 6.3-7.45v-.95l-.1-4.9 4.05-3.5-.25 3.25-.05.15 5.75 4.15.9 2.35-.2-.05L30.85 83l-2.7-1-1.2 1.45-.2.2-.65.8.65-.8.15 4.7 7.6 4.4-3.1.1h-.6l-8.95 1.85h-.2l-1.6 1.1m7.65-4.35 3.7 1.4-3.7-1.4m-60.2 33.85-3.65 1.3-7.1.6-13.5 3.1q-3.95-.55-6.35-2.3-3-3.7-2.75-7.9l1.75-4.65.15-.3.2-.55v.45l-.1 5.9 5.2 6.75h.1l3.65-2 9.85.7 11.35-6.15.5.25.7 4.8m48.25-19 .75-2.45-.75 2.45M-42.9 88.95l.6 9.15.55-.8 6.7-10.2-.05 3.9v4.65l.05 1.5q.2 10.35 1.5 20.85l.3 2.05-.45.2-3.35-1.4-4.3-6.2-2.85-17.85 1.3-5.85m19.8 33 .75-10.55 2.15-2.4 3.05-2.9.25-.2 4.15-2.9.65-.4h.6l2.4 1.3.05.05.6.3.45 1.95-4.6-1-.2.05-6.15 4.95-1.55 7.2.95 5.25 2.8 4.3-6.9-4 .55-1m-12.95-8.1-.85-14.5-2.05 2.45-.05.1-2.2-1.15.9 6.05 4.25 7.05 2.5 4.15-2.5-4.15m-5.7-16.55.55 3.45-.55-3.45" transform="translate(74.15 63.05)"/><path fill-rule="evenodd" fill="#c09b6d" d="m-63.75 114.6.05-.1 6.5-17.3q3.4-4.85 11.65-11.3l.65 3.55-6.6 3.95-5.85 8.05-3.85 12.2-2.55 1.4v-.45m8.25 8.05-4.05 1.2-1.8-5.25.8-1.05 5.05 5.1" transform="translate(74.15 63.05)"/><path fill-rule="evenodd" fill="url(#g)" d="M-42.45-10.55q6.3-1.7 25.4-.1l.9.45 5.95-3.55 1-.6.35-.25.95-.55 5.15-2.75.6-.25 2-.8 3.5-1.15 2.1-.55h.15l1.35-.3-1.2.65-.1.05L3.6-19Q1.7-17.7.75-16.3l-.35.55-.6.85-.05.1-.25.45-.05.1-.15.25-.6 1.15-.05.1-.35.85-.15.5-.05.15-4.1 1.4.5 3.15 3.25.25-.1 2.9-.15.7-3.25 2.2.25 2.85-1.05 1-.1-.05q-3.15-1.8-5.6-3.9Q-14-2.2-15.4-3.8l-.8 1.5-.45.85q-.3.8-.15 1.8l.25 1.05 2.9 5.65-1.85.5-1.25.4-1.5.45-18.1-8.8q-6-3.3-8.05-5.55l3.2-1.6-1.25-3" transform="translate(74.15 63.05)"/><path fill-rule="evenodd" fill="url(#h)" d="M106.95 49.15 83.8 45.7l-1.9-1.75q-1.55-3.5-4.4-6.6l.1-3.25.95-1.5 2.2-3.55-7.2-.3-1.15-3.2.25-.7 1.9-5.5 1.9-.8 3.3-.7.5-2.5-8.65-1.9-2.2-2.3.3-.7-4.6.35-.5-3.8-.1-.4-.2-.7q-1.25-1.3-3.1-1.75l-.5-.1h-.1L60.25 4l-1.9-.05q-.2.15-.35.25l-.05.05-.1.05-.05-.35V3.9l.05-.85q.05-2.8-.55-5.5L56.85-4l-.25-.75-.75-1.55-1.75-3.1-1.25-1.9-.85-1.2-.35-.5-2.5-3.15L48-18.2l-.55-.55-1.15-.1-.35-.1-.65-.45-.1-.1-2.8-1.8-2.2-1.2q-2.4-1.25-4.55-1.9l-.95-.25-.2-.05-2.85-.55-2.25-.3-3.4-.25h-.1l-3.4.05-12.7 3.7-.1.4-.15-.2-.05-.05-1.3-2.25q-1.45-.9-3.55-.85l14.2-4.7 14.85 2.35 1.7.3.6.1 14.45 6.85 5.9 2.8L68.6-1q21.55 12.5 31.25 24.7 10.25 12.9 7.1 25.45" transform="translate(74.15 63.05)"/><path fill-rule="evenodd" fill="url(#i)" d="m122.35 50.15-2.5.9-8.7-1.3-4.2-.6q3.15-12.55-7.1-25.45Q90.15 11.5 68.6-1L56.35-17.3l.05-.15L81-5.4l22.25 20.5 17.45 21.75q4.6 5.15 1.65 13.3m-36-45.55q44.45 38.35 24.8 45.15 19.65-6.8-24.8-45.15" transform="translate(74.15 63.05)"/><path fill-rule="evenodd" fill="url(#j)" d="M-.55-14.25q1-1.1 2.75-2.2Q5-18.25 9.75-20l4.6-1.5q6.75-1.95 11.6-1.9l1.55.1.75.05.9-.2.4-.05 1.85-.15 1.75.2h.15l.85.3 1.55.9q-1.8-1.5 2.3.75l4.15 2.25q3.2 2.05 3.55 3.6l-.05 1.75L47-11.7l.35.5q-6-1.55-15.05.85l-.1-.4q-.45-2.05-1.9-3.7-.8-.85-2-1.1l-2.85-.05q-2.45.45-4.9 2.1l-.2.1-.05.05-1.75 1.3-.35.45-.05.1q-1.9 2.4-2.6 4.85l-.25.95-.05.25.15.2q.75 1.9 3 3.5h.05l1.1.15-1.2.1q-2.15-.35-7.6-2.7l-2.6-1.15-.7-.35L.65.1l-.3.25L.5.8l.1.35-1.05 1L-.1 3.5l-6.1-.1-.35-.2 1.05-1 .05-.1L-3-.9l.5-1.95.15-.7.1-2.9.15-4.2.2-.6.05-.15.15-.5.35-.85.05-.1.6-1.15.15-.25m.8 2.15 1.05-1.8 1.45-1.8 1.5-.85q.65-.2 1.2.3 1.25 1.75.95 3.45.3-1.7-.95-3.45-.55-.5-1.2-.3l-1.5.85-1.45 1.8-1.05 1.8m4.4 3.6-.1-.5q-.8-1.3-2-1.25-.65 0-1.15.35l-.95.85-1 1.55-.1.2-.1 1.15q.1.6.55 1.15.75.9 2.5.85.7-.1 1.2-.35.5-.25.75-.7.7-1.7.5-3.2l-.1.45v-.55M35.7-22.25l.3.25.5.45 1 1.1q1.2 1.7 1.45 4.25-.25-2.55-1.45-4.25l-1-1.1L36-22l-.3-.25m-16.9 6.4q.65-1.35 2.5-3.25l.8-.8q1.6-1.45 3.75-2.45l1.6-.65.8-.25-.8.25-1.6.65q-2.15 1-3.75 2.45l-.8.8q-1.85 1.9-2.5 3.25" transform="translate(74.15 63.05)"/><path fill-rule="evenodd" fill="url(#k)" d="m51.35 79.95-.05.05-.05-.05h.1" transform="translate(74.15 63.05)"/><path fill-rule="evenodd" fill="url(#l)" d="m82.3 44.95.55 1.5.15.9v.05q1.25 8.2-2.5 15.1L57.6 98.1l-26.05 33.15-1.85 6.65-1.25 1.65-2.55 3.2-6.7 5.15q-2.05-1.05-5.6-3.5l-4.95-1.1-8.7-6.65-.9-.5-1.7-1.5q-19.9-17.5-.15-30.45 5.4 1.6 9.3 3.3 5-.45 8.3.85l1.55.8.45.25.7-.5 6.9-2.95 11.15.15 3.1.65 6.25-7.6 2.65-4.75 2.85-4-.35-.4 3.35-2.9.4-4.4-2.45-2.75h-.1l-1.4-6.65-3.75-.3-4.3-4.15 1.9-11.35.05-.15.2-1.15 5.8-7.15 11.55-8.3 9.55-1.95 3.15 1q-1.1.65-2.4 2.5-4.2 5.9-2.65 9.4 1.5 3.45-2.1 16.8-3.6 13.3-23.25 39.35t3.35-2.95q22.95-29.05 25.75-36 2.75-6.95 4.9-13.75 2.15-6.8.2-12.75l-.7-1.65 1.7.5 3.5 3.7M21.35 112.5 18 110.15l-.95-.6-.25-.15.25.15.95.6 3.35 2.35m-12.2 28.9 4.45 3-4.45-3m19.4-3.2-.1 1.35.1-1.35m-10.25-9.3q-2.2.6.45 4.55 2.65 3.9 1.75 5.2-.95 1.3-2 4.25-1.1 2.95 1.85.4 2.9-2.55 4.3-5.4 1.4-2.9.7-5.1-.65-2.2-2.7-3.35-2.1-1.15-4.35-.55" transform="translate(74.15 63.05)"/><path fill-rule="evenodd" fill="#4a3b24" d="m-33.75 143.3-.1-5.5 3.5-7 .05 1.55.4 1.75-.95.85.1 2.55-1.45 3.9.3 3.55-1.45 5.05-.3-1.55v-.05l-.1-5.1" transform="translate(74.15 63.05)"/><path fill-rule="evenodd" fill="#fbe7d2" d="M74 39.8q1.85-1.2 3.1.95l.7 1.65q1.95 5.95-.2 12.75T72.7 68.9q-2.8 6.95-25.75 36-23 29-3.35 2.95T66.85 68.5q3.6-13.35 2.1-16.8-1.55-3.5 2.65-9.4 1.3-1.85 2.4-2.5m-55.7 89.1q2.25-.6 4.35.55 2.05 1.15 2.7 3.35.7 2.2-.7 5.1-1.4 2.85-4.3 5.4-2.95 2.55-1.85-.4 1.05-2.95 2-4.25.9-1.3-1.75-5.2-2.65-3.95-.45-4.55" transform="translate(74.15 63.05)"/><path fill-rule="evenodd" fill="#f9e3bb" d="M40 70.2q.2-.3.5-.3l.5.3.2.8-.2.75-.5.35-.5-.35-.2-.75.2-.8m-6.05 5.9q.45 0 .75.25l.3.6-.3.6-.75.25-.75-.25q-.3-.25-.3-.6t.3-.6q.3-.25.75-.25m-3.6 8.3q.3-.3.7-.3.45 0 .75.35l.3.9-.3.85-.75.4-.75-.4-.3-.7v-.15q0-.5.3-.9l.05-.05m-6.2 10.95.85.2q.4.2.4.5l-.4.5-.85.2-.9-.2-.35-.5q0-.3.35-.5l.9-.2m13.35-.55q.65-.5 1.6-.5.95 0 1.6.5.65.55.65 1.25t-.65 1.2q-.65.55-1.6.55-.95 0-1.6-.55-.65-.5-.65-1.2t.65-1.25m8.65-18.9q0-.7.5-1.25.55-.5 1.25-.5t1.2.5q.55.55.55 1.25t-.55 1.2q-.5.55-1.2.55t-1.25-.55q-.5-.5-.5-1.2m1.15 6.7q.7 0 1.15.45.5.45.5 1.1 0 .65-.5 1.1-.45.45-1.15.45t-1.2-.45q-.45-.45-.45-1.1 0-.65.45-1.1.5-.45 1.2-.45m-5.15 7.95q-.85 0-1.45-.45-.55-.45-.55-1.1 0-.65.55-1.1.6-.45 1.45-.45t1.4.45q.6.45.6 1.1 0 .65-.6 1.1-.55.45-1.4.45" transform="translate(74.15 63.05)"/><path fill-rule="evenodd" fill="#36f" d="m83.05 46.4.1.45.05.45.05.05-.25.05v-.05l-.15-.9.2-.05M-33.35 150h-.3v-1.55l.3 1.55" transform="translate(74.15 63.05)"/><path stroke-width=".75" stroke-opacity=".561" stroke-linejoin="round" stroke-linecap="round" stroke="#000" fill="none" d="m94.95 8.7-1.6-2.65-2.3.8.55 6.85.2 3 .65-.5 2.5-7.5 1.9-5.65L96 .35l9.3.8 3.55 4.4-3.65 5.3 2.3.8 4.25 1.6.2-3.4 2.5-.65 1.15 2.35-.8 2.8 14.55 5.4.8.65 7.65 6.4 2.3 1.95 7.75-5 4.55 1.5-1.2 2.5-4.35.15-4 3.15 1.8 1.5 2.15-2.15 4.95-.85 2.15 2.75-10.65 8.45-.1.35-1.8 5.8 10.75 5.9.1.05.1.1 4.15 2.5.05.05 4.9 3.1 15.3 14.1m.65.35 19.35 23 1.1 1.35 5.5 6.55-1.4 7.25-5.4 2-2.5.9-8.7-1.3-4.2-.6-23.15-3.45m-.85.25v.15l.05.2.05.05v.05m.2.95q2.25 11.2.35 19.45l-20.5 37.7v4.9l.8 1.9-3.25 3.05-4.9 19.9M114.8 14.35l-.25.95-.05.25M98.25 19.4l-8.05-1.5-.35.25-3.45 2.45-1.8 1.25-.6 1.45q6.1 1.55 11.95 3.7l5.2 2.15q4.1 1.75 8.05 3.85l.35.2.4.15h.05l.6.25.35.1h.05l.05.05.45.15.1.05h.05l1.85.7 4.55 1.75 4.4 1.75 3.55 1.5.15.05 3.05 1.35 3.45 1.55 4.75 2.3 3.95 2m-40-26.95 1.5.3M83.95 41l12.7-3.7 3.4-.05h.1l3.4.25 2.25.3 2.85.55.2.05.95.25q2.15.65 4.55 1.9l2.2 1.2 2.8 1.8.1.1.65.45.35.1 1.15.1.55.55 1.15 2.05 2.5 3.15.35.5.85 1.2 1.25 1.9 1.75 3.1.75 1.55.25.75.45 1.55q.6 2.7.55 5.5l-.05.85V67m.05.35.1-.05.05-.05q.15-.1.35-.25l1.9.05.35.05h.1l.5.1q1.85.45 3.1 1.75l.2.7.1.4.5 3.8 4.6-.35-.3.7-.7 1.65 2.9.65 8.65 1.9-.5 2.5-3.3.7-1.75.35-2.45.45m2.3 0-1.9 5.5-.25.7 1.15 3.2 7.2.3-2.2 3.55-.95 1.5-.1 3.25q2.85 3.1 4.4 6.6m-36.8-82.1-4.4-2.45-10-1.85-1.85-.35m-13.15-2.1-.3-2.6 2.05-1.85m-1.4 4.2 1.6-1.2M82 22.8l2 .5M2.6 22.15l2.2-4.25 69.4 3.3 3.35.6 2.95.65h.1l1.4.35-8-6.6 6.7.7 5.7 3.7M74.85 39.1l2.35-.9.85-.1M2.6 22.15.35 26.5l6.2 14.45 18 12.85 1.55-4.1h4.45l1.15 2.8m25.4-.1q-2.7-1.6-3.65-4.75-.05-3 .65-5.95l.2-.8 1.55-4.3.3-.65q1.05 4.7 5.4 6.25 3.9.3 7.8-1.05l5.5-2.05m3.95-1.05q2.1-.05 3.55.85l1.3 2.25.05.05.15.2.05.1m-2.8.6-1.35.3h-.15l-2.1.55L74 44.1l-2 .8-.6.25-5.15 2.75-.95.55-.35.25-1 .6L58 52.85l-.9-.45m24-10.3-1.2.65-.1.05-2.05 1.25q-1.9 1.3-2.85 2.7l-.35.55-.6.85-.05.1-.25.45-.05.1-.15.25-.6 1.15-.05.1-.35.85-.15.5-.05.15-.2.6-.15 4.2-.1 2.9-.15.7-.5 1.95-2.45 3-.05.1-1.05 1-.1-.05q-3.15-1.8-5.6-3.9-1.75-1.45-3.15-3.05l-.8 1.5-.45.85q-.3.8-.15 1.8l.25 1.05 2.9 5.65-1.85.5-1.25.4-1.5.45q-2.55.85-5.1 2.05-1 .4-2 .9l.8 4.8 3.7-.7-3.25 2.8.4.95 2.65.9-2.8 1.05 1.9 3.85h4.1l-2.6 1.75-1.05.55 1 1.95.6-.4q4.35-2.8 9.4-4.6l.55-.2 1.85.15m53.8-39.85.15-2.9.1-.4m-36.5-2.35h-.2l-1.1.15-1.2.2m2.5-.35.15-.05m1.15 17.15-2.6-1.15-.7-.35-6.8 5.8-.3.25.15.45.1.35.5 1.6.2.7-1.4.05-6.1-.1-.35-.2m21.85-2.9v-.65H86.2m35.3-10.85-.35-.5-1.35-2.2.05-1.75M89.4 57.6l.15.2m.35 6.75 12.55-2.25h.05v.15l-.45 3.7q6.9-2.8 14.35-3.4l2.65-.15.2.65m0 .05 1.05 3.7m2.25-14.8-.25 1-.8-1.35m21.35-20.8-.5.4m-5.45 3.9 2 1.85m1.85 1.7 2.4 2.2m-10.65-8.85 2.55 1.4 1.85 1.7m1.6-5.6 1.6-1m-7.6 3.5-7.1-3.95-1.6-.9-4.1-2.25m3.6 21.75-.1 2.6-.2.95-.45 1.75M105.2 10.85q-3.35 3.35-3.55 5.4m9.95-1.2.15-1.8m44.35 93.8-.05-.05m.6 1.35-.1-.25-.45-1.05m.9 2.45v-.05l-.05-.25-.05-.05-.25-.8.4.6.05.05m.05 1.45v-.05l-.15-.9m-17.75-35.65.05 2-.05.6V77l-.85 4.75-1.1 1.25m-1.25 15.95 1.9-1.1 3.45-.45m7.45-15.45-.15.45m-17.15-9.85-1.45.95m-4-2.05 2.5-1.75 3.4-2.35m-7.75 5.4-.35.25m.15 11 .35.2m.35.25 1.1.7 1.7 1.1.1.05.7.15h2.1q1.45-.15 3.2-.85 1.55-.5 3.65-2.6m-11.2-11.55-1.85 1.3m7.3-.15.8-.6 2.9-2.2m-2.9 2.2q1.6 1.2 2.1 2.7l.2 1.6-.1 1.05-.2.75m-16.95-5.15 4.2-1.5-1.3-4.45m-4 6.35 2.45 1.3 1.2.65-8.85 2.65 6.25 3.85-3.3 10.8-1.95 1.35-3.85 2.3-2.5 1.35q-3.25 1.65-6.7 3l-.6.25-6.05-.45-.2-.05q-6.15-.8-11.35-2.85-3.25-5.55-9.7-9.95l-5.1-.3M119 74.15l4.9-1.15m5.6 30.65q3-2.55 6.55-4.7m-12.5-10.05 2.3-3.75m-5.6 11.15v.85l4.65 3.5-2 3.7-2.5.7.75 7.9 1.1-1.7 3.4-4 2.65-2.55 1.2-1.05m-9.35-6.55.1.05m0-.85v-2l2.8-4.55m-4.65 6 1.75 1.35m-5.05 19.15 1.9-10.35 3.4-.85m31.25-4.65-2.25-2.25q-3.85-1.1-8-.75M75.45 66.5l.25.8 4 1.5 7.45-3.6 2.3-.4v-1.45m25.65 52.9-.05.3-1.55 2.55-.1.1-3.35 3.55-.5.4-2 1.55-2.45 1.6-.55.3-4.8 2.1-1.3.5-.3.1-4.25 1.55m13.9 4.4-.1-1.65 2.05-.65 2.45-.75m.35-.1.9-.25 1.85-.6.65.65 1.9-11.35m.05-.15.2-1.15.3-2 2.75-4.3m-4.65 27.5.05.05-.9 1.7.75.7 4.15 1.15m.6.15 2.65.75 1.6-1.9V143l-1.4-6.65-3.75-.3-4.3-4.15m-42.4 5.8.8-.2 1.75-1.45 10.25-2.95 3.85-1.1 3.05-.95m7 15.5L83.7 157.1l-2.6-1.25-13.95 7-.3 3.2 2.25.6 2.25.6q5.4 1.6 9.3 3.3l11.85-9.65.35-1.15 1.35-.9-.25-3.9 6.3-7.45v-.95l-.1-4.9 4.05-3.5.6-.55 1.6.1 1.5.1-.1-1.7m-13.6 22.75 1.6-1.1h.2l8.95-1.85h.6l-3.7-1.4m20.7-4 2.2-1.6-.45-3.85-.5-.1m-4.25 11.9 1.65-1.4-1.25-3-1.4-3.2-8-1.2-.2-.05-5.35-1.95m5.55 2-.9-2.35m6-3.5-4.65-4.25-3.1-.15m-7.65 9.7.65-.8m.2-.2 1.2-1.45 2.7 1m3.65 9.75-3.1.1m3.1-.1 6.95-.2.5 5.55-.55.7-1.7 2.15-1.35 1.65-12.1.7-.75.05-8 5.55-.7.5-.45-.25-1.55-.8q-3.3-1.3-8.3-.85m41.9-20.05-2.6 1.95m-.4 4.4-2.7 2.3m37.8-33.6q3.75-6.9 2.5-15.1m-28 87.2 5.65 7.05-4.1 9.3-2.45 2q-.3 3.45-.1 6.8.15 3.8.95 7.55l1.25 4.8 1 2.85q1.75 4.7 4.5 9.25l2.05 3.15-87.7 1.5-6.4.1-11.55.2.4-10.1 1.9-18.3 5.85-17.45-.1-5.5 3.5-7-.25-5.05-1.3.65-.4.2-.2-1.3-3.65 1.3-7.1.6-13.5 3.1q-3.95-.55-6.35-2.3-3-3.7-2.75-7.9l1.75-4.65m.15-.3.2-.55.05-.1 1.85-11.4 5.75-14.25 1.45-2.45 4.75-19.1 10.9-18.7-.55-.55.7-1.4-1.8-5.85L47.4 90l2.95-1.9 1-.45m39.3 79.25-.75 2.45m10.5-3-2-1.8m-7.45 7.9.25.15.95.6 3.35 2.35M73.2 199.2l.9.5 8.7 6.65 4.95 1.1-4.45-3m4.45 3q3.55 2.45 5.6 3.5l6.7-5.15m2.55-3.2.1-1.35m1.15-.3 1.85-6.65 26.05-33.15m-39.25-.25-1.8 5.9M29.75 57.1l3.2-1.6-1.25-3m6.1 10.15-2.25-1.1-6.4-4.2.6-.25m8.05 5.55 18.1 8.8M72.25 51.8l-4.1 1.4.5 3.15 3.25.25m-.25 3.6-3.25 2.2.25 2.85m5.4 1.3-.35-1.35 1.05-1M37.9 111.6l-.05.05 1.8 6.45 2.85-.3.95-.1m-3.35-10.8v-.05l-4.95 4.8m4.1-2.9-1.35 2.85m2.2-4.7-.7 1.45M22.55 144.3l-3.05 5.15m9.75 3.05.4 2.15 1.4-5.45.2 2.8.6 9.15.55-.8 6.7-10.2-.05 3.9v3m0 1.65.05 1.5q.2 10.35 1.5 20.85l.3 2.05.05.45.7 4.8m3.8-.5 2.4-1.2 1.5-.8.45-.2 1.25-.65.75-10.55 2.15-2.4 3.05-2.9.25-.2 4.15-2.9.65-.4m.6 0 2.4 1.3.05.05.6.3.95.5.2-1.75m-38.25-17.1.65 3.55m-.65-3.55q-8.25 6.45-11.65 11.3l-6.5 17.3m24.05-50.8-8.7 7.6 2.8 14.6m13.9-31.15-1.65 2.15m-.2.3-2.8 3.55m-3.35 2.95 3.35-2.95m.25 53.1 2.5 4.15m9.2 4.6.7.35m-12.4-9.1-4.25-7.05-.9-6.05-.55-3.45m12.55 27.75.5-.25m-.85.4-1.05.55m.25 5.05.05 1.55.4 1.75 2 7.2 2.55 6.85 2 4.35.1.25 1.2 2.3 1.3 2.4 1.3 2.3m5.95-30.9L57.4 190l-6.9-4m-10 25.45-.1-5.1M65.95 195H66l.15.1 1.65.95 8.15 6.25-9.8-7.15L66 195m.2-.15-5.5-2.95h-.05m5.55 2.95 1.6 1.2 5.4 3.15M55.6 224q2.65 3.3 7.55 6.65l.35.25 4.45 3.35m-13.75 10.3q2.85 3.1 6.3 6m-20-37.5.05 3.35Q40.3 221 44 229.05l1.6 3.25.1.2 2.8 4.75 1.3 1.9.65.9 1.4 1.8 2.35 2.7M40.5 211.5v1.55"/><path stroke-width=".05" stroke-linejoin="round" stroke-linecap="round" stroke="red" fill="none" d="m89.45 57.35-.05.25"/><path stroke-width=".75" stroke-linejoin="round" stroke-linecap="round" stroke="#3f2310" fill="none" d="m102.4 39.8.9-.2.4-.05 1.85-.15 1.75.2m.15 0 .85.3 1.55.9m-29.3 9.45q.3-1.7-.95-3.45-.55-.5-1.2-.3l-1.5.85-1.45 1.8-1.05 1.8m38.7-4.1q-.25-2.55-1.45-4.25l-1-1.1-.5-.45-.3-.25m-2.4-1.2h-.15m-4.9.2-.8.25-1.6.65q-2.15 1-3.75 2.45l-.8.8q-1.85 1.9-2.5 3.25"/><path stroke-width="1.5" stroke-linejoin="round" stroke-linecap="round" stroke="#301d0c" fill="none" d="m78.8 54.55-.1-.5q-.8-1.3-2-1.25-.65 0-1.15.35l-.95.85-1 1.55m15.85 1.8.25-.95q.7-2.45 2.6-4.85l.05-.1.35-.45 1.75-1.3.05-.05.2-.1q2.45-1.65 4.9-2.1l2.85.05q1.2.25 2 1.1 1.45 1.65 1.9 3.7l.1.4.1 1.05-.1.6"/><path stroke-width=".7" stroke-opacity=".2" stroke-linejoin="round" stroke-linecap="round" stroke="#000" fill="none" d="m66.05 87.25-.65.3q-1.6-.05-4.25 2l1.5 2.3 3.15 1m2.25.65 4.6 2 1.4 1.7"/><path stroke-width=".7" stroke-opacity=".302" stroke-linejoin="round" stroke-linecap="round" stroke="#000" fill="none" d="M100.85 1.45q-1.5 5.15-3 7.65m16.65 6.45-.55 2.6m-18 8.85L97 24.65l-1.75-.3m1.75-2.5 1.15.15.6-1.35.05-.2-.55-1.05m39.15 25.5.85-2.3-1.7-.85m-37-19.55-1.4-.2L97 24.65l1.35.2m.4-4.2 2.6-.7M138.9 37.2l.45 2.2h.05l1.35-.5m-1.35.5-1.15 3.2 1.15.6M102.8 1.55q-2.6 7.55-5.6 12.85"/><path stroke-width=".3" stroke-opacity=".302" stroke-linejoin="round" stroke-linecap="round" stroke="#000" fill="none" d="m127.05 23-1.1-.6-.1 1.35 1.6.65m-2.2-4.1-.3 1.55 1 .55.1-1.2m-3.65 1.15 2.25.9.3-1.4-2.6-1.45m3.05 7.9.45-4.55-1.2-.5-.85 4.15"/><path stroke-width=".3" stroke-linejoin="round" stroke-linecap="round" stroke="#6f0" fill="none" d="m120.55 144.05.6.15"/><path stroke-width=".3" stroke-opacity=".2" stroke-linejoin="round" stroke-linecap="round" stroke="#d0bc93" fill="none" d="m103.35 73.95-1.3.5-.25-1.55 2.85-1.65.6 3.6-13.1 5.85-15.55.1-3.1-2.5-3.75 1.05m25.75 1 7.55-.2 1.75 4.6-2.75 3.95-5.3.5-.05-.1-1.4-2.4 2.3-2.35h1.75l.5 1.95-1.75-.1M64.85 75.15l-.3-.25-.05-.05L61 72.6m3.95 5.6-6.25-.3"/><path stroke-width=".3" stroke-linejoin="round" stroke-linecap="round" stroke="#40290f" fill="none" d="m54.3 40.9-9.55-1.4-.55 1.2m30.65-1.6q-14-3.65-24.15-8.6l-3.25 1.1M53 29.7l-2.3.8-6.65-3.65m.7 12.65-2.1-.4-.75 1.6m1.35-2.9-.6 1.3Q29 36.55 15.8 32m29.9 5.15-.95 2.35"/><path stroke-width=".3" stroke-linejoin="round" stroke-linecap="round" stroke="#3a250d" fill="none" d="M185.3 112.8q19.65-6.8-24.8-45.15"/><path fill-rule="evenodd" fill="#f27a02" d="m62.35-35.5 4.35-8.05 6.8-2.35-1.15-1.9 1.35-1.3 7.45-4.25 5.35-1.95 1.8-2.2 1.8-.75 1.5-.25-4 3.55-9.65 4.1-3.45 2.05h-.05l-.7.75 1.1 1.15 1.35 1.35-1.95.9-7.6 3.55-4.35 11.2v-.2l.05-5v-.4" transform="translate(74.15 63.05)"/><path fill-rule="evenodd" fill="#fcae52" d="m92.6-56.85-3.15 6-9.8 7.15-4.6 1.55-12.55 14.6-.05-.1-.1-1.75 6.7-11.4 6-2.85-.8-1 1.95-.9-1.35-1.35L81-50.65l7.2-1.55 4.4-4.65" transform="translate(74.15 63.05)"/><path fill-rule="evenodd" fill="#fb9a24" d="M90.1-58.25 94.25-60l-1.65 3.15-4.4 4.65-7.2 1.55-6.15 3.75-1.1-1.15.7-.75h.05l3.45-2.05 9.65-4.1 4-3.55-1.5.25M62.35-29.4l-.05-.5 4.35-11.2 7.6-3.55.8 1-6 2.85-6.7 11.4" transform="translate(74.15 63.05)"/><path fill-rule="evenodd" fill="#be6001" d="M62.3-36.4q1.1-4.8 3.55-7.7 2.85-3.5 7.65-6.55l5.15-2.75 9.65-4.1-1.8 2.2-5.35 1.95-7.45 4.25-1.35 1.3 1.15 1.9-6.8 2.35-4.35 8.05v-.8l-.05-.1" transform="translate(74.15 63.05)"/><path stroke-width=".5" stroke-opacity=".502" stroke-linejoin="round" stroke-linecap="round" stroke="#251105" fill="none" d="m162.45 5.55-9.65 4.1-5.15 2.75q-4.8 3.05-7.65 6.55-2.45 2.9-3.55 7.7m.05.1v.8m25.95-22 1.8-.75 4.15-1.75-1.65 3.15-3.15 6-9.8 7.15-4.6 1.55-12.55 14.6-.05-.1-.1-1.75-.05-.5v-.2l.05-5"/><path fill-rule="evenodd" fill="#321003" d="M26.2-9.55q.8.25 1.2 1.15l.1.2q.3.75.1 1.55-.25.9-1 1.4l-.75.25-.85-.05q-.85-.3-1.2-1.2l-.1-.25q-.3-.75-.05-1.5.2-.95 1-1.35L26-9.6l.2.05" transform="translate(74.15 63.05)"/><path fill-rule="evenodd" fill="#97ffff" d="m27.5-8.2 1.2-.45q.4 1.1.1 2.35-.4 1.45-1.6 2.15-1.2.75-2.45.3-1.35-.45-1.95-1.8l-.1-.3 1-.55.1.25q.35.9 1.2 1.2l.85.05.75-.25q.75-.5 1-1.4.2-.8-.1-1.55" transform="translate(74.15 63.05)"/><path fill-rule="evenodd" fill="#33f0f0" d="M26.2-9.55v-.05H26l-1.35.25q-.8.4-1 1.35-.25.75.05 1.5l-1 .55q-.5-1.25-.15-2.5.4-1.45 1.6-2.15 1.15-.75 2.45-.3 1.25.45 1.9 1.8l.2.45-1.2.45-.1-.2q-.4-.9-1.2-1.15" transform="translate(74.15 63.05)"/><path stroke-width=".3" stroke-opacity=".8" stroke-linejoin="round" stroke-linecap="round" stroke="#015454" fill="none" d="m102.85 54.4-.2-.45q-.65-1.35-1.9-1.8-1.3-.45-2.45.3-1.2.7-1.6 2.15-.35 1.25.15 2.5l.1.3q.6 1.35 1.95 1.8 1.25.45 2.45-.3 1.2-.7 1.6-2.15.3-1.25-.1-2.35z"/><path fill-rule="evenodd" fill="#fefefe" d="m24.85-7.85.4.4.05.55-.35.45-.5.05q-.3-.05-.35-.35-.15-.25-.05-.6l.3-.4.5-.1" transform="translate(74.15 63.05)"/><path fill-rule="evenodd" fill="#33f0f0" d="M23.25-4.95q-.45-.3-.15-1.1.4-.4 1-.3.5.35.3.8-.55.55-1.15.6" transform="translate(74.15 63.05)"/><path fill-rule="evenodd" fill="#10d8d8" d="M24.3-10.6q.5.3.7 1.1-.05.5-.65.55-.55-.25-.75-.75.15-.85.7-.9" transform="translate(74.15 63.05)"/><path fill-rule="evenodd" fill="#fefefe" d="M22.25-8.1q.75.25 1.05 1 .3.65.1 1.4-.2.8-.8 1.25l-1.35.1q-.7-.2-1.05-.95-.3-.7-.05-1.5.2-.75.75-1.15l1.35-.15" transform="translate(74.15 63.05)"/></g><g id="d"><path fill-rule="evenodd" fill="#280c02" d="M3.45 1q.45.3.55.8l-.15.95-.75.6-.4.05-.5-.25q-.45-.25-.6-.8-.1-.5.15-.95.3-.45.75-.6l.8.15.15.05" transform="translate(0 .15)"/><path fill-rule="evenodd" fill="#78cccc" d="m4.55 3.2-1.25.9-1.45-.25q-.7-.5-.85-1.35-.25-.85.15-1.55Q1.6.25 2.4.1q.75-.25 1.45.25.7.45.85 1.3.25.85-.15 1.55M3.3.95 2.5.8q-.45.15-.75.6-.25.45-.15.95.15.55.6.8l.5.25.4-.05.75-.6L4 1.8q-.1-.5-.55-.8V.95H3.3" transform="translate(0 .15)"/><path stroke-width=".3" stroke-opacity=".8" stroke-linejoin="round" stroke-linecap="round" stroke="#004343" fill="none" d="M4.55 3.35q.4-.7.15-1.55Q4.55.95 3.85.5 3.15 0 2.4.25q-.8.15-1.25.85-.4.7-.15 1.55.15.85.85 1.35l1.45.25 1.25-.9z"/><path fill-rule="evenodd" fill="#cbcbcb" d="m2.3 1.35.2.25-.05.35-.25.15-.3-.05-.15-.25q-.05-.2.05-.35.05-.15.2-.1h.3M1.15.5l.35.55-.05.55-.5.4-.6-.15-.35-.5Q-.05 1 .15.75l.4-.4.6.15" transform="translate(0 .15)"/><path fill-rule="evenodd" fill="#28c0c0" d="M1.15 2.95q-.2-.25 0-.65l.65.05q.25.3.1.5l-.75.1m1.3-2.9q.3.3.25.75 0 .25-.35.2Q2 .8 1.95.45q.2-.45.5-.4" transform="translate(0 .15)"/></g><g id="s" fill-rule="evenodd"><path fill="url(#m)" d="m28.35-.6-.45 3.7Q34.8.3 42.25-.3l2.65-.15 2.55 8.85-5.3 1.9 2.45 1.3.25-.5 4.9-1.15-5 3.25 5.8 1.35-.65 6.4 1.8 1.15-5.6 9.15v2l-.35.2.1.15.15.45 4.75 3.55-2 3.7-2.5.7.75 7.9-2.75 4.3-2.45 14.65-.65-.65-7.6 2.35.2 4.2-3.1-.2L26 78.6l.1 4.9L9.55 94.05l-2.6-1.25-13.95 7-.5 4.95-1.55-.8v-.05h-.05l-2.4-1.3h-.6l-.65.4-4.15 2.9-.25.2-3.05 2.9-2.15 2.4-.75 10.55-1.25.65-.45.2-1.5.8-2.4 1.2-3.8.5-.7-4.8-.05-.45-.3-2.05q-1.3-10.5-1.5-20.85l-.05-1.5V91l.05-3.9-7.25 11-.8-11.95-1.4 5.45-3.85-20.3 8.7-7.6 1.55-1.25 1.95-1.55-.15-.15 4.65-6-2.85.3-1.8-6.45h.05l.05-.05h-.05l2.2-4.7.1.05v-.05l-.1-.05-4.95 4.8-.55-.55.7-1.4-1.8-5.85 13.9-13.85 2.95-1.9 2.65-.05h-.8l-1.9-3.85 2.8-1.05-2.65-.9-.4-.95 3.35-2.65-.1-.15-3.7.7-.8-4.8q1-.5 2-.9 2.55-1.2 5.1-2.05l1.5-.45 1.25-.4 1.85-.5-2.9-5.65-.25-1.05q-.15-1 .15-1.8l.45-.85.8-1.5q1.4 1.6 3.15 3.05 2.45 2.1 5.6 3.9l.1.05.35.2 7.5.05.25.8 4 1.5L13 2.15l2.3-.4V1.5h.45L28.3-.75l.05.15m10.9 56.75.1-.1 1.55-2.55.05-.3-2.05 2.6.35.35m-2.3-41.25-.05.2 1.5.7-1.45-.9m-46.6-3.1.35.3-.3-.25-.05-.05m1.55 12.4-1.85-.15-.55.2 1.75.25.65-.3" transform="translate(70.05 45.15)"/><path fill-opacity=".4" fill="#fff" d="m43.95-37.95 1.15-.2 9.85 5.45L57.9-29l-6-1-7.95-7.95" transform="translate(70.05 45.15)"/><path fill-opacity=".2" fill="#fff" d="M43.95-37.95 51.9-30l6 1-2.95-3.7 2.8 1.55-.15.55 4.35 3.9-5.05-1.6-1.85 6.3L52-23.35l-.15-.05-3.55-1.5-4.4-1.75 2.1-7.6-5.45-4.55 3.25-.1 1.3.75-1.15.2" transform="translate(70.05 45.15)"/><path fill-opacity=".239" d="m28.85-42.8 1.85.35L27-33.9l-5.2-2.15 2.8-6.35 2.6-.7 1.5.3h.15M63.4-24.5l.65-2 .7.65.45 2.2h.05l-2 5.5-4.75-2.3 1.7-3.75 3.2-.3" transform="translate(70.05 45.15)"/><path fill-opacity=".471" d="M21.8-36.05q-5.85-2.15-11.95-3.7l.6-1.45 5.6-3.95 8.05 1.5.55 1.05-2.85 6.55M69-21.95l-1.8 5.8-3.95-2 2-5.5 1.35-.5 2.4 2.2" transform="translate(70.05 45.15)"/><path fill-opacity=".369" fill="#fff" d="m43.85 36.25 1.85-2.45 5.05 3.8-.8 1.5-.7.15-5.4-3m-33.6-25.4 7.2-1.4-1.3 3.6 2.4 1.4-2.8 1.8L3.7 16.2.35 13.4l-1.45-.2 1.15-2.25 11.4-1.85-1.2 1.75m-24.4 9.95 2.3-1.65-6.95 1.4-.2-1.2 9.85-3.3.65 3.15-5.65 1.6m-4.1-12.4 1.5-.45 1.25-.4 1.2 1.9-8.25 2.35-.8-1.35q2.55-1.2 5.1-2.05m30.3 37.4 3.05 1.95.8-2.65 3.85 2.95q-3.85 3.25-4.55 8.4-2.7-5.55-6.95-9.55l3.8-1.1m-6.95-23 1.35.3-.75-1.3 6.2 1.2 5.2 4.65 4.4 3.2-5.95-1.6.05 2.15-10.5-8.6m-20.95-9.45 2.95-3.1 4.15 3.45-7.1-.35m-6.4 22.4 7.8.4-4.1 6.25 3.55-2.15-1.55 4.2-.05.05 6.05 3.6-.05.05-5.6 13.95-5.45-2.9-2.2-10.65-8.1.95-.85-2.4 6.95-12.5-8.25 2.9-.1.05-1.3-1.9 7.85-7.75 3.2 5.25.75-1.2 1.3 3.8h.15m-20.3 38.5L-45 78.3l-2.3-7.9 7.65-6.7 1.55-1.25 1.4 1.05 5.05-3.05.75 7.4-10.05 15.55-1.6-9.15M-6.9 60.9l-.75-11.15L-4.2 49l1.25 2.55 1.3-5.65L2 59.8l-8.9 1.1m-18.6 9.8 4.05-1.1-5.2 8.6-3.65 17.75.2 13.25-2.4.45-1.45-14.8L-31 76.1l4.9-7.35.6 1.95" transform="translate(70.05 45.15)"/><path fill-opacity=".129" d="M28.35-.6 23.4 2.85l-1.3 4.6 5.85-4.6-.05.25Q34.8.3 42.25-.3l2.65-.15.2.7-2.1 1 .85 4.8-6.35 5.75 4.65-1.5 3.65 1.95-8.85 2.65 1.45.9-6.1-2.85 6.9-5.05-1.6-3.45-18.25 6.7.5-5.7-23.5 4.9 2.95-2.4-13.45-1.9-2.4-4.65-.25-1.05q-.15-1 .15-1.8l4.95 4.35 8.2 2.05L-.05 5l.35.9 4.65 1.75 6.2-1.5L12.5 2.4l.5-.25 2.3-.4V1.5h.45l12.6-2.25v.15M47.8 13.95l2.75.6-.65 6.4.35.2-3.75-.5-.15 1.55 2.4.65-3.25 4.9-.7 5.35-.55-.4-1.8-.35-.3 2.3-8 7.2-7.5 2.25-7.3-2.65-14.85-3.7q-.15-4.05-1.55-6.55Q5.5 34.15 5.4 36l15.05 3.25h.05l5.35 1 8.35-2.35-1.8-1.55 5.15-2.1.9.5 3.4-4 1.85-8.2v-.05l-1.35-.4.35-1.6.1-.35-.1.35h-1.8l-3.6 8.6-2.1.6 2.75 1.2-3.85 2.3-1.2-.55-.3.15q-6.9 2.7-11.8 2.3l4.1 2.45-.6.25-6.05-.45-.2-.05q-6.15-.8-11.35-2.85Q3.45 28.9-3 24.5l-6.95-.45-.55.2 1.75.25q-1.6-.05-4.25 2l.5.75-7.85 4.1-1.4-1.65 1.05-.85-.35-.65 9.5-4.85 5.85-1.25-1.9-3.25 1-2.9-3-.95 3.45-.3-3.45-2.85 3 .9 3.85-.05-.3.6-2.65.15 1.05 1.85-1.9.25 1.15.75-.05.1-.8 3 2.05 2.1.7 1.25h2.4l8.6 10.4 11.25 2.2-2.75-2q5.1 1.2 16.95-2.75L30 29.8l6.35-2.05 2.75-7.8-3.25-1 2.25-.2 5 .35.1-.35-.55-.35 5.8-1.65-.65-2.8M24.45 28.2l-.5.75q-5.1-1.1-10.15-5.55l10.65 4.8M13.3 31.65l-5.55-3.8-3-4.3 8.55 8.1m36.65 7.45-1.2 2.2-5.9 1.55-1.9 10.35-2.05 2.6.35.35-3.35 3.55-.5.4-2 1.55-2.45 1.6-.55.3-4.8 2.1-1.3.5-.3.1-4.25 1.55-.1.05-.55.15-3.05.95-3.85 1.1L1.95 73 .2 74.45l-3.15.75 2.1-3.15.3-.05q7.6-1.5 13.75-4.2l.2-.05 1.05-1.65q14.75-3.65 23.4-12.35L41.55 41l8.4-1.9m-26.7 16.65q-6 2.35-8.4 6.4l-.5.9.2-1-1.15-.4-7.15-9.8 1.65-.9 7.25 9.4q1.6-3.45 6.15-6.9l1.95 2.3m4.8 16.4L25.9 75.5l-10.6 2.25 5.1 2.2-.6 2.6-4.25 2.85-7.85-.1-17.45 12.15-6.5 1-2.25-.65 2.35 3.5-5.5 3.75-3.8 7.85-.85 10.7-2.4 1.2q.25-8 2.45-14.8 1.75-5.6 4.8-10.4l.85-.55q-1.55-2.35-4.2-4.85 4.95 3.55 12.4-.55l15.9-9.9q8.15-2.9 10.65-2.5l-.9-.55Q10.4 79 7.2 78.65l-1.45-.05q-28 3.7-8.1-.15l24.7-4.9q-3.2-1.4-9.95-.95l-5.15.55q5.9-2 11.7-3.5l.65-.2q4.7 0 7.8 1.5l.65 1.2m-50.65-48.5 4.9-.35-.3 1.95h.25l-2.7 1.5-3.6.15-.05-1.5 1.3-.8.55-.25-.35-.7m-1.25-5.6 8.75-.85-6.1 2.85-2.5-.85-.4-.95.25-.2m-1.05-4.1 10-2.8-7.65 5.8 1.7-1.5-3.7.7-.35-2.2M-39.45 44.6l8.9-6.75-3.4 6.05-.1-.1-4.95 4.8-.55-.55.7-1.4-.6-2.05m3.25 3.95 2.3 4.75.1-.05 8.15-1.25.9 2.7-8.55 2.2 1.65-2.15-2.85.3-1.8-6.45h.05l.05-.05m28.3-11.8 5-3.75 1.9.05.9 1.1-.5 2.95-1.1-1.5-1.6 4-.15-4.3-7.4 7.1 2.55-8.7-6.4.35 4.7-3.2-.15-1.65 1.8.6-.65 1.85 1.95.3-.85 4.8m4.3-11.6 5 4.4q-4.75-4.05-9.35-4.95l4.35.55m-39.5 61-1.4 5.45-.75-4.1 2.55-5.3 1 10.5 4.1-5.8.6-5 6-9.1-1.05 2.5-.95 5.1.6-.85L-35.1 94v-3l.05-3.9-7.25 11-.8-11.95m33.6-25.4.75 2.95v.05l5-.1-.1 2.05h-6.4v-.05l-.4-2.75-3.4 6.5-.05-.05-7.95-3.25-.55-2 6.8 2.2.05-.05 5.9-10.1.55 4.25-.2.35M-24.8 84.1l2.15-6.8 5.2-5.95q-5.3 7.2-7.35 12.75" transform="translate(70.05 45.15)"/><path fill-opacity=".341" d="m-3.05 13.3-1.25 2.5-.9 3.95 1 1.75-2.05-2.1.8-3 .05-.1-1.15-.75 1.9-.25-1.05-1.85 2.65-.15m-13.6-14.75.45-.85.8-1.5q1.4 1.6 3.15 3.05 2.45 2.1 5.6 3.9l.1.05.35.2 7.5.05.25.8 4 1.5L12.5 2.4l-1.35 3.75-6.2 1.5L.3 5.9-.05 5l-3.45-.05-8.2-2.05-4.95-4.35M-7.4 30.9l1.3-.45 4.6 2 .5.6-1.9-.05-5 3.75.85-4.8-1.95-.3.65-1.85h.05l.9 1.1m48.3-10.4h1.8l-2.8 9.05-1.95 1.35-2.75-1.2 2.1-.6 3.6-8.6m-59.4 77.3 2.25.65 6.5-1L7.7 85.3l7.85.1 4.25-2.85.6-2.6-5.1-2.2 10.6-2.25 2.15-3.35-.65-1.2q-3.1-1.5-7.8-1.5l-.65.2q-5.8 1.5-11.7 3.5l-2.05.3-2.85.5-.25.05-1.75.35L1.95 73l10.25-2.95 3.85-1.1L19.1 68l.55-.15 4.5.45 7.9-2.6 2.75-2.15.4-.4 2.7-2.25.7-.4 2.4-1.8 2.1-9.5 3.7-1.45.2 2.15-2.75 4.3-.95 5.9-7.25 6.95-6.75 1.8 3.8 2 .55 1.35.1 2.55-3.1-.2-3.3 2.9-3.65.7.55 3.75-9.95 6.7-7.75.2-15.4 9.75v.9l-6.2.45-1.9-.7 1.4 1.45 2.8 2.35-4.15 2.9-3.1.2-3.35 4.7-1.45 12-1.5.8.85-10.7 3.8-7.85 5.5-3.75-2.35-3.5m64.85-75.6.15-1.55 3.75.5 1.45.95-5.6 9.15v2l-.35.2.1.15.15.45-1.05-.85-.15-.1.7-5.35 3.25-4.9-2.4-.65M22.1 7.45l1.3-4.6L28.35-.6l-.4 3.45-5.85 4.6m23-7.2 2.35 8.15-9.95 3.4 6.35-5.75-.85-4.8 2.1-1m-11 32.95-2.5 1.35q-3.25 1.65-6.7 3l-4.1-2.45q4.9.4 11.8-2.3l.3-.15 1.2.55" transform="translate(70.05 45.15)"/><path fill-opacity=".58" d="m44.85 11.1 4.9-1.15-5 3.25 3.05.75.65 2.8-5.8 1.65-5.7-3.5 8.85-2.65-1.2-.65.25-.5m-2.05 9.05-.1.35-.35 1.6 1.35.4v.05l-1.85 8.2-3.4 4-.9-.5-5.15 2.1 1.8 1.55-8.35 2.35-5.35-1h-.05L5.4 36q.1-1.85-2.45-4.8l-.25-.3-.8-.85-.5-.5-5-4.4-5.15-.65.65-.3 5.1.3q6.45 4.4 9.7 9.95 5.2 2.05 11.35 2.85l.2.05 6.05.45.6-.25q3.45-1.35 6.7-3l2.5-1.35 3.85-2.3 1.95-1.35 2.9-9.4m4 27.6-3.7 1.45-2.1 9.5-2.4 1.8-.7.4-2.7 2.25-.4.4-2.75 2.15-7.9 2.6-4.5-.45.1-.05L24 66.25l.3-.1 1.3-.5 4.8-2.1.55-.3 2.45-1.6 2-1.55.5-.4 3.35-3.55.1-.1 1.55-2.55 1.95-10.65 3.4-.85.55 5.75m-63.7 58.15-.25.2-3.05 2.9-2.15 2.4-.75 10.55-1.25.65-.45.2 1.45-12 3.35-4.7 3.1-.2M9.55 94.05l-2.6-1.25-13.95 7-.5 4.95-1.55-.8v-.05h-.05l-2.4-1.3h-.6l-.65.4-2.8-2.35-1.4-1.45 1.9.7 6.2-.45v-.9l15.4-9.75 7.75-.2 9.95-6.7-.55-3.75 3.65-.7L26 78.6l.1 4.9L9.55 94.05m24-23.5.1 1.65-.55-1.35-3.8-2 6.75-1.8 7.25-6.95-1.5 8.75-.65-.65-7.6 2.35" transform="translate(70.05 45.15)"/><path fill-opacity=".29" fill="#fff" d="m12.2 165.3-.1-.05-2.75-.85q17.45 0 31-7.75l.5-.3 5-.05 3.95 3q.45-.8-.8 4.1-1.25 4.9-35.85 6.1l-.95-4.2m46.9-25.6q-10.45 3.05-15.8 2.1 8.7-2.1 12.5-6.2l3.3 4.1m2.6 44.5-22.5.2q13.8-3.85 18-9.45 1.75 4.7 4.5 9.25" transform="translate(70.05 45.15)"/><path fill-opacity=".231" d="m82.85 46.45.2-.05.2.95q2.25 11.2.35 19.45l-.95 1.8-4.6-2.5 2.45-3.6q3.8-6.95 2.5-15.15l-.15-.9m-22.2 67.9-4.9 19.9-.6.5-.15-.15q-3.7 3.15-7.95 5.1-4.5 2-9.65 2.65 3.55 1.55 9.55 1.15 5.55-.35 13.25-2.4l.45.55-4.1 9.3-2.45 2q-.3 3.45-.1 6.8l-4.9-5.3-6.85-.25q-11.55 9.7-38.75 9.75l2.35 1.35 1.8 4.5-3.95 2.75q28.85 5.05 42.65.15 5.45-1.9 8.6-5.4l1.25 4.8q-2.65 4.05-9.95 6.6-11.85 4.15-35.85 4.5l.8 2.35q10.25-1.1 18.6 2.4l-43.45.75v-1.2q-3.45-2.9-6.3-6l.95-1.15q7.4 2.35 24.95 1.05l24.15-4.2h-.2l-3.15-.1q-23.25-.95-32.95-5.9l-4.45-3.35-.35-.25q-4.9-3.35-7.55-6.65l-.9-1.2-1.3-2.3-1.3-2.4 1.25-1.45 19.55 8.25 11-.4q16.6-1.4 27.55-8.5-11.65-4.15 5.4-18.75l16.35-21.1 1.6 1.25m-102.15 64.7 1.9-18.3 5.85-17.45.15 7.6-.2.65-1 4.3q2.1 7.75 4.2 10.85l-2.35 3.5-4-4.9-1.15 5.25-.85-.7-.05-.05-.15.75 4.65 13.2-1.4 5.3-6 .1.4-10.1" transform="translate(70.05 45.15)"/><path fill-opacity=".4" d="M82.65 68.6 63.1 104.5v3.35L42.7 134.2q-17.05 14.6-5.4 18.75-10.95 7.1-27.55 8.5l-11 .4-19.55-8.25.6-.4 3.2-3.15 15.05 6.9h.25q8.6 1.7 20.3-1.45-16.15.75-29.25-11.8l.1-.1 1.45-7.05L11 150.8l11.3 3.1 7.45-6.45 2.55-10.6.4-.45q19.25-19.45 48.35-68.65l1.6.85M30.1 177.2l-19.3 3.35-25-.5-2.95-2.1 1.75-2.25.05-5.8 8.65 6.1 22 2.5 11.45-1.4 3.15.1h.2m-60-43.1-.4-1.75-.3-6.6 1.4-.7 7 1.7 7.8 5.4v-.05.05l-2.35 8.65-8.9-11.4v2l-1.8-.85 5.75 15-2.8 2.2-.85.4-2.55-6.85-2-7.2m-.85 3.4.7 12.35 8.15 10.95 1.1 6.5-1.65 4.5L-24 173l-.8-.5-7.15-15-1.4-7.5 1.45-5.05-.3-3.55 1.45-3.9m-2.85 15.85q-.25 4.6 3.45 12.65l1.6 3.25-3.85 6.1-5.7-4.8 1.15-5.25 4 4.9 2.35-3.5q-2.1-3.1-4.2-10.85l1-4.3.2-.65v2.45" transform="translate(70.05 45.15)"/><path fill-opacity=".612" d="M9.55 94.05 26.1 83.5v.95l-6.3 7.45.25 3.9-1.35.9-.35 1.15L6.5 107.5q-3.9-1.7-9.3-3.3l-2.25-.6-2.25-.6.3-3.2 13.95-7 2.6 1.25m68.5-27.95 3 1.65q-29.1 49.2-48.35 68.65l-.4.45-2.55 10.6-7.45 6.45-11.3-3.1-20.1-14.25 1.1-4.45 9.8 7.15-8.15-6.25 6.3 3.65 8.7 6.65 4.95 1.1q3.55 2.45 5.6 3.5l6.7-5.15 3.8-4.85 1.85-6.65L57.6 98.1l20.45-32m-51.3 111-11.45 1.4-22-2.5-8.65-6.1v-2.05l-3.2-6.9q2.65 3.3 7.55 6.65 1.7 2 4.8 3.6 9.7 4.95 32.95 5.9m-20.8 4.3q-17.55 1.3-24.95-1.05l1.85-2.4 2.95 2.1 25 .5-4.85.85m-30.3-58.8 10.85 6.25-.9 3.25v.05l-7.8-5.4-7-1.7.5-.25 2.4-1.2 1.5-.8.45-.2m-3.55 18.7 2.55 6.85 2 4.35.1.25 1.35 8.05-8.15-10.95-.8-14.9.95-.85 2 7.2m.45-10.75 1.8.85v-2l8.9 11.4-.3 1.15-4.65 3.6-5.75-15m25.5 26.4-15.05-6.9 6.35-6.35q13.1 12.55 29.25 11.8-11.7 3.15-20.3 1.45h-.25m-25.2 24.75 3.45-4.7 1.4 1.8 2.35 2.7q2.85 3.1 6.3 6v1.2l-10.3.15-3.2-7.15m-1.3-12.25-.1-.2-1.6-3.25q-3.7-8.05-3.45-12.65l-.05-4.95 1.7 9.1 7.15 15 .8.5-1.65 1.2-2.8-4.75m-10.7 1.1.15-.75.05.05 6.55 5.5-.6.95.15 4.95 2.5 7.7-5.55.1 1.4-5.3-4.65-13.2" transform="translate(70.05 45.15)"/><path fill="#37230d" d="M-62.3-22.4q-5.25-3.85-7.45-12.2-2.25-8.4 11.1-7.55l33.7 2.9Q-4.6-37.2 3.4-34.75t-33-1.95q-41-4.45-29.9 7.95 11.05 12.35 6.75 11.25-4.35-1.1-9.55-4.9" transform="translate(70.05 45.15)"/></g><g id="u" stroke-opacity="0" stroke-linejoin="round" stroke-linecap="round" stroke="#f0f" fill="none"><path d="M187.95-293.5v380h-380v-380h380M92.95.6H-97" transform="translate(192.55 294)"/><path d="m187.95-293.5-190 190 190 190m-380-380 190 190L-192 86.5" transform="translate(192.55 294)"/></g><linearGradient y2=".436" y1=".561" x2=".175" x1=".778" spreadMethod="pad" id="m"><stop stop-opacity=".161" offset="0"/><stop stop-opacity="0" offset="1"/></linearGradient></defs><path fill="none" d="M-1-1h267v327H-1z"/><use x="92.884" y="185.768" xlink:href="#n" width="59.15" transform="translate(-8.99 -211.17) scale(1.2704)" height="29"/><use x="92.884" y="185.768" xlink:href="#o" width="100.05" transform="translate(-82.918 -158.602) scale(1.2704)" height="129.1"/><use x="92.884" y="185.768" xlink:href="#p" width="126.35" transform="translate(-74.724 -93.67) scale(1.2704)" height="141.8"/><use x="92.884" y="185.768" xlink:href="#q" width="203.65" transform="translate(-115.698 -233.897) scale(1.2704)" height="252.55"/><use x="41.639" y="203.481" xlink:href="#r" width="4.95" transform="rotate(-15.002 -634.465 2.22) scale(1.2704)" height="4.45"/><use x="92.884" y="185.768" xlink:href="#s" width="154.5" transform="translate(-110.49 -211.157) scale(1.2704)" height="234.3"/><use x="92.884" y="185.768" xlink:href="#t" width="205.35" transform="translate(-116.774 -234.964) scale(1.2704)" height="254.25"/><use x="118" y="236" xlink:href="#u" width="381" transform="translate(-192.55 -294)" height="381"/><use x="-.553" y="-1.814" xlink:href="#v" width="102.95" transform="matrix(1.8072 0 0 1.6538 22.95 60.35)" height="45"/></svg>