<svg width="296" height="344" xmlns="http://www.w3.org/2000/svg" xmlns:xlink="http://www.w3.org/1999/xlink"><defs><linearGradient y2="90.378" y1="424.591" x2="97.41" x1="-125.41" spreadMethod="pad" id="j"><stop stop-color="#fff" offset="0"/><stop stop-opacity=".6" stop-color="#fff" offset="1"/></linearGradient><linearGradient y2=".607" y1=".252" x2=".25" x1=".799" spreadMethod="pad" id="k"><stop stop-color="#fff" offset="0"/><stop stop-opacity=".502" stop-color="#fff" offset="1"/></linearGradient><linearGradient y2=".834" y1=".256" x2="-.176" x1=".563" spreadMethod="pad" id="l"><stop stop-color="#fff" offset="0"/><stop stop-opacity=".502" stop-color="#fff" offset="1"/></linearGradient><linearGradient y2=".511" y1=".441" x2=".362" x1=".029" spreadMethod="pad" id="m"><stop stop-opacity=".2" stop-color="#302214" offset="0"/><stop stop-opacity=".482" stop-color="#3a2912" offset="1"/></linearGradient><linearGradient y2=".253" y1=".55" x2="1.035" x1=".422" spreadMethod="pad" id="n"><stop stop-opacity=".2" stop-color="#302214" offset="0"/><stop stop-opacity=".482" stop-color="#3a2912" offset="1"/></linearGradient><linearGradient y2=".738" y1=".183" x2=".721" x1=".123" spreadMethod="pad" id="o"><stop stop-opacity=".2" stop-color="#302214" offset="0"/><stop stop-opacity=".322" stop-color="#3a2912" offset="1"/></linearGradient><linearGradient y2=".672" y1=".391" x2=".726" x1=".46" spreadMethod="pad" id="p"><stop stop-opacity=".2" stop-color="#302214" offset="0"/><stop stop-opacity=".322" stop-color="#3a2912" offset="1"/></linearGradient><linearGradient y2=".5" y1=".5" x2="1.052" x1=".354" spreadMethod="pad" id="q"><stop stop-opacity=".2" stop-color="#302214" offset="0"/><stop stop-opacity=".322" stop-color="#3a2912" offset="1"/></linearGradient><linearGradient y2=".5" y1=".5" x2="1" x1="0" spreadMethod="pad" id="r"><stop stop-opacity=".2" stop-color="#302214" offset="0"/><stop stop-opacity=".322" stop-color="#3a2912" offset="1"/></linearGradient><linearGradient y2="-.419" y1=".334" x2=".198" x1=".486" spreadMethod="pad" id="s"><stop stop-opacity=".2" stop-color="#302214" offset="0"/><stop stop-opacity=".322" stop-color="#3a2912" offset="1"/></linearGradient><linearGradient y2=".195" y1=".565" x2="-.191" x1=".743" spreadMethod="pad" id="t"><stop stop-opacity=".2" stop-color="#302214" offset="0"/><stop stop-opacity=".322" stop-color="#3a2912" offset="1"/></linearGradient><linearGradient y2=".477" y1=".526" x2=".071" x1=".859" spreadMethod="pad" id="u"><stop stop-opacity=".2" stop-color="#302214" offset="0"/><stop stop-opacity=".322" stop-color="#3a2912" offset="1"/></linearGradient><linearGradient y2=".869" y1=".191" x2=".575" x1=".271" spreadMethod="pad" id="v"><stop stop-opacity=".2" stop-color="#302214" offset="0"/><stop stop-opacity=".322" stop-color="#3a2912" offset="1"/></linearGradient><linearGradient y2=".875" y1=".629" x2=".865" x1=".586" spreadMethod="pad" id="w"><stop stop-opacity=".2" stop-color="#302214" offset="0"/><stop stop-opacity=".322" stop-color="#3a2912" offset="1"/></linearGradient><linearGradient y2=".613" y1=".265" x2=".065" x1=".827" spreadMethod="pad" id="x"><stop stop-opacity=".2" stop-color="#302214" offset="0"/><stop stop-opacity=".322" stop-color="#3a2912" offset="1"/></linearGradient><linearGradient y2=".576" y1=".401" x2="-.063" x1=".8" spreadMethod="pad" id="y"><stop stop-opacity=".2" stop-color="#302214" offset="0"/><stop stop-opacity=".322" stop-color="#3a2912" offset="1"/></linearGradient><linearGradient y2=".353" y1=".498" x2="1.087" x1=".482" spreadMethod="pad" id="z"><stop stop-opacity=".2" stop-color="#302214" offset="0"/><stop stop-opacity=".322" stop-color="#3a2912" offset="1"/></linearGradient><linearGradient y2=".351" y1=".645" x2="1.097" x1="-.106" spreadMethod="pad" id="A"><stop stop-opacity=".2" stop-color="#302214" offset="0"/><stop stop-opacity=".322" stop-color="#3a2912" offset="1"/></linearGradient><linearGradient y2=".129" y1=".402" x2=".98" x1=".706" spreadMethod="pad" id="B"><stop stop-opacity=".38" stop-color="#302214" offset="0"/><stop stop-opacity=".514" stop-color="#3a2912" offset="1"/></linearGradient><linearGradient y2=".5" y1=".5" x2="1.239" x1=".393" spreadMethod="pad" id="C"><stop stop-opacity=".38" stop-color="#302214" offset="0"/><stop stop-opacity=".514" stop-color="#3a2912" offset="1"/></linearGradient><linearGradient y2=".984" y1=".564" x2="1.177" x1=".413" spreadMethod="pad" id="D"><stop stop-opacity=".38" stop-color="#302214" offset="0"/><stop stop-opacity=".514" stop-color="#3a2912" offset="1"/></linearGradient><linearGradient y2=".499" y1=".499" x2="1.095" x1=".547" spreadMethod="pad" id="E"><stop stop-opacity=".38" stop-color="#302214" offset="0"/><stop stop-opacity=".514" stop-color="#3a2912" offset="1"/></linearGradient><linearGradient y2=".77" y1=".494" x2="1.336" x1=".467" spreadMethod="pad" id="F"><stop stop-opacity=".38" stop-color="#302214" offset="0"/><stop stop-opacity=".514" stop-color="#3a2912" offset="1"/></linearGradient><linearGradient y2=".57" y1=".442" x2=".842" x1="-.011" spreadMethod="pad" id="G"><stop stop-opacity=".38" stop-color="#302214" offset="0"/><stop stop-opacity=".514" stop-color="#3a2912" offset="1"/></linearGradient><linearGradient y2=".737" y1=".304" x2=".948" x1=".076" spreadMethod="pad" id="H"><stop stop-opacity=".38" stop-color="#302214" offset="0"/><stop stop-opacity=".514" stop-color="#3a2912" offset="1"/></linearGradient><linearGradient y2=".59" y1=".457" x2=".076" x1=".33" spreadMethod="pad" id="I"><stop stop-opacity=".38" stop-color="#302214" offset="0"/><stop stop-opacity=".514" stop-color="#3a2912" offset="1"/></linearGradient><linearGradient y2=".619" y1=".326" x2=".219" x1=".84" spreadMethod="pad" id="J"><stop stop-opacity=".38" stop-color="#302214" offset="0"/><stop stop-opacity=".514" stop-color="#3a2912" offset="1"/></linearGradient><linearGradient y2=".737" y1=".34" x2=".328" x1=".588" spreadMethod="pad" id="K"><stop stop-opacity=".38" stop-color="#302214" offset="0"/><stop stop-opacity=".514" stop-color="#3a2912" offset="1"/></linearGradient><linearGradient y2=".954" y1=".444" x2=".385" x1=".614" spreadMethod="pad" id="L"><stop stop-opacity=".38" stop-color="#302214" offset="0"/><stop stop-opacity=".514" stop-color="#3a2912" offset="1"/></linearGradient><linearGradient y2=".78" y1=".345" x2=".619" x1=".197" spreadMethod="pad" id="M"><stop stop-opacity=".502" stop-color="#fff" offset="0"/><stop stop-opacity=".2" stop-color="#fff" offset="1"/></linearGradient><linearGradient y2=".571" y1=".159" x2=".568" x1=".353" spreadMethod="pad" id="N"><stop stop-opacity=".502" stop-color="#fff" offset="0"/><stop stop-opacity=".212" stop-color="#fff" offset="1"/></linearGradient><linearGradient y2=".5" y1=".5" x2=".822" x1=".262" spreadMethod="pad" id="O"><stop stop-opacity=".502" stop-color="#fff" offset="0"/><stop stop-opacity=".212" stop-color="#fff" offset="1"/></linearGradient><linearGradient y2=".19" y1=".785" x2=".687" x1=".308" spreadMethod="pad" id="P"><stop stop-opacity=".502" stop-color="#fff" offset="0"/><stop stop-opacity=".212" stop-color="#fff" offset="1"/></linearGradient><linearGradient y2=".879" y1=".254" x2=".898" x1=".289" spreadMethod="pad" id="Q"><stop stop-opacity=".502" stop-color="#fff" offset="0"/><stop stop-opacity=".212" stop-color="#fff" offset="1"/></linearGradient><linearGradient y2=".904" y1=".258" x2=".5" x1=".5" spreadMethod="pad" id="R"><stop stop-opacity=".502" stop-color="#fff" offset="0"/><stop stop-opacity=".212" stop-color="#fff" offset="1"/></linearGradient><linearGradient y2="1.313" y1=".297" x2="-.223" x1=".773" spreadMethod="pad" id="S"><stop stop-opacity=".502" stop-color="#fff" offset="0"/><stop stop-opacity=".212" stop-color="#fff" offset="1"/></linearGradient><linearGradient y2=".499" y1=".499" x2=".998" x1=".002" spreadMethod="pad" id="T"><stop stop-opacity=".2" stop-color="#302214" offset="0"/><stop stop-opacity=".322" stop-color="#3a2912" offset="1"/></linearGradient><linearGradient y2=".494" y1=".494" x2="1" x1="0" spreadMethod="pad" id="U"><stop stop-opacity=".2" stop-color="#302214" offset="0"/><stop stop-opacity=".322" stop-color="#3a2912" offset="1"/></linearGradient><linearGradient y2=".499" y1=".499" x2="1.003" x1="-.003" spreadMethod="pad" id="V"><stop stop-opacity=".2" stop-color="#302214" offset="0"/><stop stop-opacity=".322" stop-color="#3a2912" offset="1"/></linearGradient><linearGradient y2=".5" y1=".5" x2="1.001" x1="-.001" spreadMethod="pad" id="W"><stop stop-opacity=".2" stop-color="#302214" offset="0"/><stop stop-opacity=".322" stop-color="#3a2912" offset="1"/></linearGradient><linearGradient y2=".444" y1=".444" x2=".978" x1=".022" spreadMethod="pad" id="X"><stop stop-opacity=".2" stop-color="#302214" offset="0"/><stop stop-opacity=".322" stop-color="#3a2912" offset="1"/></linearGradient><linearGradient y2=".7" y1=".173" x2=".627" x1=".248" spreadMethod="pad" id="Z"><stop stop-opacity=".243" stop-color="#151726" offset="0"/><stop stop-opacity=".482" stop-color="#1a1c2b" offset="1"/></linearGradient><linearGradient y2=".653" y1=".344" x2=".954" x1=".356" spreadMethod="pad" id="aa"><stop stop-opacity=".243" stop-color="#151726" offset="0"/><stop stop-opacity=".482" stop-color="#1a1c2b" offset="1"/></linearGradient><linearGradient y2=".123" y1=".769" x2=".68" x1=".138" spreadMethod="pad" id="ab"><stop stop-opacity=".243" stop-color="#151726" offset="0"/><stop stop-opacity=".482" stop-color="#1a1c2b" offset="1"/></linearGradient><linearGradient y2=".649" y1=".306" x2=".47" x1=".888" spreadMethod="pad" id="ac"><stop stop-opacity=".243" stop-color="#151726" offset="0"/><stop stop-opacity=".482" stop-color="#1a1c2b" offset="1"/></linearGradient><linearGradient y2=".854" y1=".359" x2=".545" x1=".181" spreadMethod="pad" id="ad"><stop stop-opacity=".243" stop-color="#151726" offset="0"/><stop stop-opacity=".482" stop-color="#1a1c2b" offset="1"/></linearGradient><linearGradient y2=".999" y1=".006" x2=".601" x1=".423" spreadMethod="pad" id="ae"><stop stop-opacity=".243" stop-color="#151726" offset="0"/><stop stop-opacity=".482" stop-color="#1a1c2b" offset="1"/></linearGradient><linearGradient y2="2615.287" y1="580.518" x2="-901.22" x1="783.209" spreadMethod="pad" id="af"><stop stop-opacity=".243" stop-color="#151726" offset="0"/><stop stop-opacity=".482" stop-color="#1a1c2b" offset="1"/></linearGradient><linearGradient y2="102.722" y1="258.137" x2="63.338" x1="-102.917" spreadMethod="pad" id="ag"><stop stop-opacity=".243" stop-color="#151726" offset="0"/><stop stop-opacity=".482" stop-color="#1a1c2b" offset="1"/></linearGradient><linearGradient y2=".453" y1=".76" x2=".742" x1=".331" spreadMethod="pad" id="ah"><stop stop-opacity=".243" stop-color="#151726" offset="0"/><stop stop-opacity=".482" stop-color="#1a1c2b" offset="1"/></linearGradient><linearGradient y2=".449" y1=".626" x2=".494" x1=".098" spreadMethod="pad" id="ai"><stop stop-opacity=".243" stop-color="#151726" offset="0"/><stop stop-opacity=".482" stop-color="#1a1c2b" offset="1"/></linearGradient><linearGradient y2=".891" y1=".538" x2=".331" x1=".432" spreadMethod="pad" id="aj"><stop stop-opacity=".243" stop-color="#151726" offset="0"/><stop stop-opacity=".482" stop-color="#1a1c2b" offset="1"/></linearGradient><linearGradient y2=".685" y1=".072" x2=".551" x1=".211" spreadMethod="pad" id="ak"><stop stop-opacity=".353" stop-color="#151726" offset="0"/><stop stop-opacity=".482" stop-color="#1a1c2b" offset="1"/></linearGradient><linearGradient y2=".5" y1=".089" x2=".495" x1=".161" spreadMethod="pad" id="al"><stop stop-opacity=".353" stop-color="#151726" offset="0"/><stop stop-opacity=".482" stop-color="#1a1c2b" offset="1"/></linearGradient><linearGradient y2=".798" y1=".198" x2=".91" x1="-.231" spreadMethod="pad" id="am"><stop stop-opacity=".353" stop-color="#151726" offset="0"/><stop stop-opacity=".482" stop-color="#1a1c2b" offset="1"/></linearGradient><linearGradient y2=".726" y1=".27" x2=".902" x1=".132" spreadMethod="pad" id="an"><stop stop-opacity=".353" stop-color="#151726" offset="0"/><stop stop-opacity=".482" stop-color="#1a1c2b" offset="1"/></linearGradient><linearGradient y2=".925" y1=".118" x2=".849" x1=".181" spreadMethod="pad" id="ao"><stop stop-opacity=".353" stop-color="#151726" offset="0"/><stop stop-opacity=".482" stop-color="#1a1c2b" offset="1"/></linearGradient><linearGradient y2=".816" y1=".19" x2="1.04" x1=".086" spreadMethod="pad" id="ap"><stop stop-opacity=".353" stop-color="#151726" offset="0"/><stop stop-opacity=".482" stop-color="#1a1c2b" offset="1"/></linearGradient><linearGradient y2=".813" y1=".268" x2=".831" x1=".483" spreadMethod="pad" id="aq"><stop stop-opacity=".502" stop-color="#151726" offset="0"/><stop stop-opacity=".624" stop-color="#1a1c2b" offset="1"/></linearGradient><linearGradient y2=".906" y1=".355" x2=".901" x1=".527" spreadMethod="pad" id="ar"><stop stop-opacity=".502" stop-color="#151726" offset="0"/><stop stop-opacity=".624" stop-color="#1a1c2b" offset="1"/></linearGradient><linearGradient y2="1.055" y1="-.074" x2=".676" x1=".325" spreadMethod="pad" id="as"><stop stop-opacity=".502" stop-color="#151726" offset="0"/><stop stop-opacity=".624" stop-color="#1a1c2b" offset="1"/></linearGradient><linearGradient y2=".075" y1=".821" x2=".712" x1=".174" spreadMethod="pad" id="at"><stop stop-opacity=".502" stop-color="#151726" offset="0"/><stop stop-opacity=".624" stop-color="#1a1c2b" offset="1"/></linearGradient><linearGradient y2=".239" y1=".69" x2=".584" x1=".491" spreadMethod="pad" id="au"><stop stop-opacity=".502" stop-color="#151726" offset="0"/><stop stop-opacity=".624" stop-color="#1a1c2b" offset="1"/></linearGradient><linearGradient y2=".875" y1=".258" x2=".103" x1=".744" spreadMethod="pad" id="av"><stop stop-opacity=".502" stop-color="#151726" offset="0"/><stop stop-opacity=".624" stop-color="#1a1c2b" offset="1"/></linearGradient><linearGradient y2=".076" y1=".791" x2="1.245" x1=".368" spreadMethod="pad" id="aw"><stop stop-opacity=".502" stop-color="#151726" offset="0"/><stop stop-opacity=".624" stop-color="#1a1c2b" offset="1"/></linearGradient><linearGradient y2=".735" y1=".316" x2="-.01" x1=".48" spreadMethod="pad" id="ax"><stop stop-opacity=".502" stop-color="#151726" offset="0"/><stop stop-opacity=".624" stop-color="#1a1c2b" offset="1"/></linearGradient><linearGradient y2=".492" y1=".665" x2=".223" x1=".627" spreadMethod="pad" id="ay"><stop stop-opacity=".502" stop-color="#151726" offset="0"/><stop stop-opacity=".624" stop-color="#1a1c2b" offset="1"/></linearGradient><linearGradient y2="-.121" y1=".81" x2="1.095" x1=".553" spreadMethod="pad" id="az"><stop stop-opacity=".502" stop-color="#151726" offset="0"/><stop stop-opacity=".624" stop-color="#1a1c2b" offset="1"/></linearGradient><linearGradient y2="-.256" y1=".004" x2=".843" x1=".739" spreadMethod="pad" id="aA"><stop stop-opacity=".502" stop-color="#151726" offset="0"/><stop stop-opacity=".624" stop-color="#1a1c2b" offset="1"/></linearGradient><linearGradient y2="1.208" y1=".177" x2=".182" x1=".75" spreadMethod="pad" id="aB"><stop stop-opacity=".502" stop-color="#151726" offset="0"/><stop stop-opacity=".624" stop-color="#1a1c2b" offset="1"/></linearGradient><linearGradient y2="-.044" y1=".727" x2=".394" x1=".637" spreadMethod="pad" id="aC"><stop stop-opacity=".502" stop-color="#151726" offset="0"/><stop stop-opacity=".624" stop-color="#1a1c2b" offset="1"/></linearGradient><linearGradient y2=".638" y1=".357" x2=".553" x1=".447" spreadMethod="pad" id="aD"><stop stop-opacity=".502" stop-color="#151726" offset="0"/><stop stop-opacity=".624" stop-color="#1a1c2b" offset="1"/></linearGradient><linearGradient y2=".5" y1=".5" x2=".682" x1=".933" spreadMethod="pad" id="aE"><stop stop-opacity=".502" stop-color="#151726" offset="0"/><stop stop-opacity=".624" stop-color="#1a1c2b" offset="1"/></linearGradient><linearGradient y2=".501" y1=".501" x2="-.075" x1=".604" spreadMethod="pad" id="aF"><stop stop-opacity=".502" stop-color="#151726" offset="0"/><stop stop-opacity=".624" stop-color="#1a1c2b" offset="1"/></linearGradient><linearGradient y2=".499" y1=".499" x2="1.061" x1=".242" spreadMethod="pad" id="aG"><stop stop-opacity=".502" stop-color="#151726" offset="0"/><stop stop-opacity=".624" stop-color="#1a1c2b" offset="1"/></linearGradient><linearGradient y2=".068" y1=".871" x2=".266" x1=".779" spreadMethod="pad" id="aH"><stop stop-opacity=".502" stop-color="#151726" offset="0"/><stop stop-opacity=".624" stop-color="#1a1c2b" offset="1"/></linearGradient><linearGradient y2=".282" y1=".693" x2=".495" x1=".847" spreadMethod="pad" id="aI"><stop stop-opacity=".502" stop-color="#151726" offset="0"/><stop stop-opacity=".624" stop-color="#1a1c2b" offset="1"/></linearGradient><linearGradient y2="-.17" y1=".69" x2=".5" x1=".5" spreadMethod="pad" id="aJ"><stop stop-opacity=".502" stop-color="#151726" offset="0"/><stop stop-opacity=".624" stop-color="#1a1c2b" offset="1"/></linearGradient><linearGradient y2=".899" y1=".376" x2=".56" x1=".47" spreadMethod="pad" id="aK"><stop stop-opacity=".502" stop-color="#151726" offset="0"/><stop stop-opacity=".624" stop-color="#1a1c2b" offset="1"/></linearGradient><linearGradient y2=".625" y1=".267" x2=".676" x1=".305" spreadMethod="pad" id="aL"><stop stop-opacity=".502" stop-color="#151726" offset="0"/><stop stop-opacity=".624" stop-color="#1a1c2b" offset="1"/></linearGradient><linearGradient y2=".759" y1=".24" x2="3.16" x1="-2.097" spreadMethod="pad" id="aM"><stop stop-opacity=".502" stop-color="#151726" offset="0"/><stop stop-opacity=".624" stop-color="#1a1c2b" offset="1"/></linearGradient><linearGradient y2=".794" y1=".273" x2=".716" x1=".294" spreadMethod="pad" id="aN"><stop stop-opacity=".502" stop-color="#151726" offset="0"/><stop stop-opacity=".624" stop-color="#1a1c2b" offset="1"/></linearGradient><linearGradient y2=".209" y1=".711" x2=".397" x1=".52" spreadMethod="pad" id="aO"><stop stop-opacity=".733" stop-color="#151726" offset="0"/><stop stop-color="#1a1c2b" offset="1"/></linearGradient><linearGradient y2=".869" y1=".328" x2=".235" x1=".867" spreadMethod="pad" id="aP"><stop stop-opacity=".733" stop-color="#151726" offset="0"/><stop stop-color="#1a1c2b" offset="1"/></linearGradient><linearGradient y2=".712" y1=".345" x2=".852" x1=".479" spreadMethod="pad" id="aQ"><stop stop-opacity=".733" stop-color="#151726" offset="0"/><stop stop-color="#1a1c2b" offset="1"/></linearGradient><linearGradient y2=".57" y1=".263" x2=".499" x1=".499" spreadMethod="pad" id="aR"><stop stop-opacity=".733" stop-color="#151726" offset="0"/><stop stop-color="#1a1c2b" offset="1"/></linearGradient><linearGradient y2=".79" y1=".16" x2=".348" x1=".801" spreadMethod="pad" id="aS"><stop stop-opacity=".733" stop-color="#151726" offset="0"/><stop stop-color="#1a1c2b" offset="1"/></linearGradient><linearGradient y2=".491" y1=".706" x2=".233" x1=".795" spreadMethod="pad" id="aT"><stop stop-opacity=".733" stop-color="#151726" offset="0"/><stop stop-color="#1a1c2b" offset="1"/></linearGradient><linearGradient y2=".672" y1=".368" x2=".347" x1=".747" spreadMethod="pad" id="aU"><stop stop-opacity=".733" stop-color="#151726" offset="0"/><stop stop-color="#1a1c2b" offset="1"/></linearGradient><linearGradient y2="1.145" y1=".195" x2=".055" x1="1.07" spreadMethod="pad" id="aV"><stop stop-opacity=".733" stop-color="#151726" offset="0"/><stop stop-color="#1a1c2b" offset="1"/></linearGradient><linearGradient y2=".59" y1=".372" x2=".662" x1=".241" spreadMethod="pad" id="aW"><stop stop-opacity=".733" stop-color="#151726" offset="0"/><stop stop-color="#1a1c2b" offset="1"/></linearGradient><linearGradient y2=".518" y1=".372" x2=".661" x1=".369" spreadMethod="pad" id="aX"><stop stop-opacity=".733" stop-color="#151726" offset="0"/><stop stop-color="#1a1c2b" offset="1"/></linearGradient><linearGradient y2=".563" y1=".437" x2="1.083" x1="-.343" spreadMethod="pad" id="aY"><stop stop-opacity=".733" stop-color="#151726" offset="0"/><stop stop-color="#1a1c2b" offset="1"/></linearGradient><linearGradient y2=".575" y1=".351" x2="1.056" x1="-.008" spreadMethod="pad" id="aZ"><stop stop-opacity=".733" stop-color="#151726" offset="0"/><stop stop-color="#1a1c2b" offset="1"/></linearGradient><path stroke-width=".2" stroke-linejoin="round" stroke-linecap="round" stroke="#6f0" fill="none" d="M40.2 19.3.1.1" id="ba"/><path fill-rule="evenodd" fill-opacity=".498" fill="#fef4d6" d="m.7.4.35-.2 1-.2q.45-.05.55.15l.05.1-.3.5-.85.5-.95.3Q.1 1.5.05 1.3l.2-.5L.7.4" id="a"/><path fill-rule="evenodd" fill="#6869a8" d="m45.8-71.7.15 3.7q1.25 31.45-1.9 62.85l9.45-10L51.7 1l16.15-13 3.95-7.6-.5 30.9-3.6 19-13.3 24.6-11.75 4.35-48.9 6.45.05 9-17.65 4.6L-43 83.8l-.45.1-3.25.7q-2.85-.1-15.8-4.25l4.65-35.3-.9-8.2-.75-5.5q-2-13.95-5.5-29.3l-1.6-6.75-1.35-3.1q-1.8-4.7-3.8-12.9l2.5-26.3 7-2.65q30.8-14.45 60.9-24.7l21.5-7L45-84.6l.5 7.45.3 5.45M-57.6-8.25v3.15l1-.5-1-2.65" transform="translate(71.75 84.6)" id="b"/><path fill-rule="evenodd" fill="#777cb0" d="M122.55-298.9q13.3 15.5 25.05 31.05 16.9 22.4 30.55 44.9 40.1 66.2 51.75 133.15l-.15 1.35-1.05 4.75q-12.9 55.9-71.75 116.65l-1.7-3.45q-2.55-5.4-4.9-11.55l-2.25-6.3-.2-1.15q-1.45-7.7-3.9-15.25-3-9.2-7.5-18.25l-5.4-9.85q-5.25-4.85-10.55-8.4l-4.6-2.85q-8.75-4.95-17.8-6.55-18.45-3.3-38.1 7.3-3.55 4.65-6.55 10.2-6.2 11.4-10.1 26.55L-2.05 16l-.15.05-4.25 2.1L-23.1 24l2.05-10.25 10.85-7.5 7.55-4.4L.7-5.9 9-29.75l1.6-95.1-3.8-11.6-.25-.85-1.05-2.95q-6.5-18.7-14.35-37.4l-5.8-13.25-7.4-15.85-5.7-11.6-4.2-2.55-.95-.6-.2-.1q-.95-1.25-1.1-2.45l-1.4 1q-6.5-3.75-13.6-7.25l-10.7-5.05-1.8-.8q-13.1-5.8-28.1-11.05l-4.9-1.7h-37.8q-17.75 28.8-22.45 59.25-.5 5-.5 9.85-.05 6.35.7 12.45l.1.75 1.45 18.2 3.35 1.15 1.25 3.2q1.8 4.35 4.1 8.55 3.15 5.85 5.65 11.25l.15.35q7.65 16.65 7.45 19.2l-2.25 23.85-.6 1-.05 5.9.4-4.45q2 8.2 3.8 12.9l1.35 3.1 1.6 6.75q3.5 15.35 5.5 29.3l.75 5.5q-38.4-34.55-75.05-79.9l-1.7-2.15q-7.45-50.35 14-120.5l16.5-31.55 24.1-11.25 38.4-35.7q9.75-5.95 19-11.15 86.85-48.8 130.55-32.4l4.65 3.4q20.8 15.05 44.05 28.1 13.95 7.9 28.8 15.05m-40.8-.2-1.05-1.15q-8.9 5.45-16.05 6.05 4.75 2.9 17.1-4.9m102.4 183.05-.15-.35-.1.45.25-.1m2.45 162.2-5 13.05-1.1 2.1q-.95 2.2-.9 4.45l11.5 8.45 25.5 62.5.05.05 72 83.45 21.45 45.05v19.5l-4.6 4.3-3.9 3.35q-50.85 41.95-152.05 45.35l-13.15 2.7-1.85.35-30.6 8.85-17.1-7.35-20 3.35-4.75-2.45-26.95-26.95 4.5-2.55 4.4 3.55 18-3.5 4-9.5 8 5.5 5.65-3.05-2.65 21.65 15.2 14.05 1.85.8 13.85-2.95 7-7h6.1l16-33.25q-2-11.5-5.2-19.25l-.15-.4-2.2-4.55-1.75-2.85 2.65-.8q41.5-12.95 63.95-31.7l3.75-6.7q-6.95-9.1-13.35-18.95-10.1-15.5-18.85-32.9l-1.85-3.75-.5-1q-11.4-22.6-33-36.3-3.7 8.35-9.95 16.6l-6.6 7.8-2.2 2.3v5.7l-4.7 7.3-10.25 18.15-20.75-11.5H40.55L1.5 193.4l-.4.4-56.45 8.05-2.45.05-10.65 2.3-4.9 1.15-6.7 1.65-9.2 2.05-10.85 1.75-11.6 8.15-2.8-5.05 5.05-9.45h-3.7l-.1-.2-4.7-6.45-.45-.1q-20.45-3.05-31.85-15.9-3.65-4.1-6.35-9.2l-1.35-2.7q-9.75-21.15 1.8-47.4 3.5-7.95 8.35-15.05l10.35-9.3 1.8.2 5.9.8 1.2.2q6.55 1.1 13.3 2.75 6.2 1.55 12.6 3.6 1.95-8.4 5.5-16.1 5.35-6.6 12.1-12.5l2.95-2.55q7.75-6.35 17.85-11.75 16.1 2.7 31 6.75 9.05 2.4 17.45 5.3 25.5 8.75 44.4 21.6 8.2 5.6 15.2 12 6.65 5.65 13.55 10.45 5.3 3.65 10.75 6.8l3.05.1 20.45-3.4 10.6-10.15-7.6-.55h-8v-9.5l28.8-33.6 1.35-.75q14.7-8.45 25.25-13.6 9.5-4.7 15.55-6.65 4.95-1.65 7.55-1.45h21.5m-.85 99.65-1.15.6 1.7 3.5 1.5-.9-2.05-3.2m-175.1 92.65 5.25-3.25-20.55 30.6 1-24 4.6-3.55 9.7.2m-125.1-497.75v.8l.65-.8h-.65m-11.55-.05.05.15v-.15h-.05m22.15 371.3v.05l-.15.85.2-.9h-.05m-182.8-19.1 6.15-.4 5.2-.4.15.15-2.55 3.25.25.2-.25 1.4-1.1 7-.25 1.65-.05.15q-1.25 8.45-1.95 17-1.75 20.7-.4 41.4l17.2 18.2 13.6 6.2h2.65q3.5-1.6 6.7-3.9l.5.7 2.05 4.3 5.1 5.7-1.2 2.15 7.65 8q13.45 13.75 27.9 26.3 28.4 24.75 60.6 44.85l3.1 1.9.25.2-30.1 40.4-12.65 27.2q-52.15-52.1-102.2-114.55l-9.9-12.45q-14.25-21.7-18.3-39.4-1.4-6-1.55-11.55-.35-9.85 3-18.2l2-5.95 6.25-21.2 3.3-11.35.4-1.25 1.65-19.1 4.6-8.55-.45 3.45 2.65 6.5m194.2 107.95-12.1 3 14.7-.1-2.6-2.9" transform="translate(310.1 349.55)" id="c"/><path fill-rule="evenodd" fill="#fed6a5" d="m19.45-259.65.2.6 1.05 3.5q2.45 8.4 3.95 18.55l4.5-4.25 1-42 4.2 2.55 5.7 11.6 6.35 56.6-1.3 7.85-24.85 3.25-21.5 7q-30.1 10.25-60.9 24.7l-7 2.65q.2-2.55-7.45-19.2l-.15-.35q-2.5-5.4-5.65-11.25-2.3-4.2-4.1-8.55l-.2-2.85-4.4-1.5-1.45-18.2-.1-.75q-.75-6.1-.7-12.45 0-4.85.5-9.85 4.7-30.45 22.45-59.25h37.8l4.9 1.7q7.65 4.9 13.9 9.8 15.35 12 22.05 23.85 3.65 16.25 6.65 40.7l2.5 22.85.35 3.55 2.5-9.85q.65-22.25-2.2-44.85l1.4 3.85M5.65-241.9l-.2-.25h-.2Q-11.3-256.3-27.5-249l-1.65.8q-8.75 4.65-11.25 14.05-1.55 5.95-.6 13.85l.1.55 1.65 3.15 1.4 2.2q5.5 7.9 14.85 10.9l7.3.8.25-.1q4.35-1.5 8.05-3.4l.3-.15q4.85-2.55 8.45-5.8 2.75-2.5 4.8-5.3 2.3-3.3 3.75-7.05 1.5-3.9 2-8.35l-2.1-3.8q-1.7-2.6-4.15-5.25M160.25-113q9.05 1.6 17.8 6.55l4.6 2.85q5.3 3.55 10.55 8.4l5.4 9.85q4.5 9.05 7.5 18.25 2.45 7.55 3.9 15.25l.2 1.15 2.25 6.3q2.35 6.15 4.9 11.55l1.7 3.45q3.85 7.5 8.15 13.2-2.6-.2-7.55 1.45-6.05 1.95-15.55 6.65-10.55 5.15-25.25 13.6l-1.35.75-28.8 33.6v9.5h8l7.6.55-10.6 10.15-20.45 3.4-3.05-.1q-5.45-3.15-10.75-6.8-6.9-4.8-13.55-10.45-7-6.4-15.2-12-18.9-12.85-44.4-21.6-8.4-2.9-17.45-5.3-14.9-4.05-31-6.75Q-12.25 5.85-20 12.2l-2.95 2.55q-6.75 5.9-12.1 12.5-3.55 7.7-5.5 16.1-6.4-2.05-12.6-3.6-6.75-1.65-13.3-2.75l-1.2-.2-5.9-.8q12.05-16.8 32-28.7 13.2-7.95 26.4-11.55l.55-.15 13.15-15.1q16.35-10 32.75-11.9l4.3-5.75 20.05-7.05 4.25-2.1.15-.05 45.45-22.6q3.9-15.15 10.1-26.55 3-5.55 6.55-10.2 19.65-10.6 38.1-7.3M54.95-65.3l7.8-3.05.05.1-3.35 7.75-7.55 4.4 3.05-9.2m8.1 241.2-5.2 4h.55l-.95 23.55L78 172.85l-5.25 3.25-9.7-.2m.3-44.6.25-.25 39.05-6.2h35.55L156.55 135l-15.6 21.65-7.9 13.3 16.1-6.55 1 1q23.3 22.7 39.7 46.2l1.75 2.85 2.2 4.55.15.4q3.2 7.75 5.2 19.25l-16 33.25h-6.1l-7 7-13.85 2.95-1.85-.8-15.2-14.05 2.65-21.65-5.65 3.05-8-5.5-4 9.5-18 3.5-4.4-3.55-4.5 2.55 26.9 26.9-.1.05-5.9 30.45h-246.8l25.3-54.4 30.1-40.4.15-.85L-54 187.1l4.4-30.5 11.6-8.15 10.85-1.75 9.2-2.05 6.7-1.65 4.9-1.15 10.65-2.3 2.45-.05 56.45-8.05.05-.05.1-.1m88.2 60.9.25-.25-.25-.3v.55m-339.9-204.9 9.5-.1 21.55 9.35 5.15 8.25-2.1 3.55q1.9-.35 3.9-.05h.2l2.65.7 8.3 5 .2.15.15.15v20l6.4 16.2q-2.3 6-8.6 11.2l-7.15-.15-1.7 4.25-3.1.8 5.05 3.85 3.45 8.2-7.95 14.05-6.1 4.4-3.55 2.35.8 1.2-4.1 9.15-1.45 1.35-8.05 7.75-1.7 1.5-2.5 1.95-.1.05q-3.2 2.3-6.7 3.9h-2.65l-13.6-6.2-17.2-18.2q-1.35-20.7.4-41.4.7-8.55 1.95-17l.05-.15.25-1.65 1.1-7 .25-1.4-.25-.2 2.85-3.65-.45.25-5.2.4-6.15.4-2.65-6.5.8-6.25 21.75-16.3q7.5-5.65 13.3-11.15l3-3m109.3-189.75v-.05q-1.75 2.45-.55 4.55l2.05 4.95.15-1 6.05 16.95q1.35 3.5 5.25 3.8l.05.1 5.75-.9v-3.75l-1.25-6.85-3.7-13.65 2.4 9.7-.2-.6-5.05-6.05-5.55-5.1-5.4-2.1m-77.4 214.3-3.15 3.8 3.2-.4 4.5 4-4.25-7.75-.3.35m-29.2 7.1 19-2.4q-8.75.85-12.5-4.1-1.15 1.6-6.5 6.5" transform="translate(227.2 311.25)" id="d"/><path fill-rule="evenodd" fill-opacity=".698" fill="#b66750" d="m42.65 11.75 3.2 2.9-4.1-7.9 3.05 4.05q6.9 9 .75 18.05 6.2-5.15 5.45-13.6Q50.15 6.8 37.05 0q6.6 1.75 11.6 6 11.4 9.75 8.6 23.95Q54.05 46.3 36.2 52 1.5 55.8.05 24.25q-.3-6.5 2.9-11.8v-.05Q4.8 9.25 7.9 6.5 3 12.7 3.2 23.65q.2 10.95 14.1 14.3-17-6.7-11.4-22.3-.5 6.45 3.1 11.3-.45-3.75 1.25-4.95l.4-.25.05.45q-.65 4.1 2.95 6 3.9 2.05 8-3.15.6-.75.6-2.1l2.45 3-2.55-5.1q2.8 1.65 2.55-.3-.25-1.8-2.25-4.1-4.5-5.1-11.55-4.05 3.3-.7 6.7.15 4.55 1.3 7.2 4.9l1.3-5.7q-.6 3.1 1.1 5.55 4.25 6.35 9.2 5.1-3-.1-6.15-2.7-1.7-1.4-1.45-4.05.2-2.8 2.7-4.05-1.55 2.75 2.55 7.1 4.8 5.1 8.5.75 1.65-1.95 1.55-4.2-.05-2.05-1.45-3.5" id="e"/><path fill-rule="evenodd" fill-opacity="0" fill="#f0f" d="M0 0h102.95v45H0V0" id="f"/><path d="M42.4-156.5q-.85 0-1.45-.6t-.6-1.45q0-.85.6-1.45t1.45-.6q.85 0 1.45.6t.6 1.45q0 .85-.6 1.45t-1.45.6m-8-4.5q-1.9 1.9-4.55 1.9T25.3-161q-1.9-1.9-1.9-4.55t1.9-4.55q1.9-1.9 4.55-1.9t4.55 1.9q1.9 1.9 1.9 4.55T34.4-161m-59.7 38.45q-.9.85-2.05.85-1.25 0-2.1-.85-.85-.85-.85-2.05 0-1.25.85-2.1.85-.85 2.1-.85 1.15 0 2.05.85.85.85.85 2.1 0 1.2-.85 2.05" transform="translate(30.3 172)" id="bi" fill-rule="evenodd" fill="#fff"/><use xlink:href="#a" width="2.65" height="1.55" id="bc"/><use xlink:href="#b" width="143.55" height="169.2" id="bd"/><use xlink:href="#c" width="620.2" height="699.2" id="be"/><use xlink:href="#d" width="454.4" height="622.55" id="bf"/><use xlink:href="#e" width="57.8" height="52.4" id="bh"/><use xlink:href="#f" width="102.95" height="45" id="bk"/><radialGradient spreadMethod="pad" r="819.2" id="g" gradientUnits="userSpaceOnUse" gradientTransform="translate(-144.4 -119.85) scale(.1959)" cy="0" cx="0"><stop stop-color="#8e92b0" offset=".675"/><stop stop-color="#797d9f" offset="1"/></radialGradient><radialGradient spreadMethod="pad" r="819.2" id="h" gradientUnits="userSpaceOnUse" gradientTransform="translate(241.5 -243.35) scale(.4432)" cy="0" cx="0"><stop stop-color="#525a9c" offset=".18"/><stop stop-color="#8e8fbd" offset=".847"/></radialGradient><radialGradient spreadMethod="pad" r="819.2" id="i" gradientUnits="userSpaceOnUse" gradientTransform="translate(68.8 125.7) scale(.1588)" cy="0" cx="0"><stop stop-color="#6c6cac" offset=".412"/><stop stop-color="#aeafd0" offset=".898"/></radialGradient><radialGradient spreadMethod="pad" r="819.2" id="Y" gradientUnits="userSpaceOnUse" gradientTransform="translate(-42.8 -236.15) scale(.2593)" cy="0" cx="0"><stop stop-color="#100f28" offset=".192"/><stop stop-color="#1f1d4e" offset=".847"/></radialGradient><g id="bb"><path stroke-width="7" stroke-linejoin="round" stroke-linecap="round" stroke="#0e0933" fill="none" d="M461.2 85.2q66.7 88.35 82.3 178.05l-.15 1.35q-11.45 58.05-72.8 121.4 3.85 7.5 8.15 13.2h21.5l-5 13.05q-2.05 3.25-2 6.55l11.5 8.45 25.5 62.5 72.05 83.5 21.45 45.05v19.5q-50.5 49.3-160.55 53L450 693.5l-1.85.35-30.6 8.85-17.1-7.35-20 3.35-4.75-2.45h-.15l-5.9 30.45h-246.8l12.65-27.2Q83.35 647.4 33.3 584.95l-9.9-12.45Q4.3 543.4 3.55 521.55q-.35-9.85 3-18.2l2-5.95 6.25-21.2 3.3-11.35.4-1.25 1.65-19.1 4.6-8.55.35-2.8 14-10.45-.05-.05q-1.05-1.2-1.05-2.6l-.05-.25-.45-.85q-3.35-6.35-.5-13.15-.35-4.35 8.2-8.05 1.75-.75 3.6-1.35l.55-.15q-4.7-3.85-10.05-6.7-6.05-3.2-12.95-5.1l-7.15-1.6q5.35-3.05 7.65-14 1.75-9.4.4-19.5l-1.1-10.65-4.4-61.2-.2-1.05q0-10.3 1.25-20.85 1.15-9.55 5.5-18.2 12.65-25.9 48.85-27.2-12.3 31.35-5.35 63.85 14.8 88.9 28.25 96.45-6.85 2.25-16.95 13.95l-4.2 5.1-1.3 1.7-.6.8-.3.4h-.15l.3.1-.15.55q4.35.3 8.35 1.2l2 .55q2.7.65 4.6 1.55l.3.15q4.2 2.05 4.45 5 2.65 5.6 1.5 12.05l-.5 2 .05.25-.1 1.15 2 3.2-2.1 3.55q7.3-1.2 15.4 5.95v20l6.4 16.2q-2.3 6-8.6 11.2l-7.15-.15-1.7 4.25-3.1.8 5.05 3.85 3.45 8.2-7.95 14.05-6.1 4.4-3.55 2.35.8 1.2-4.1 9.15-9.5 9.1-1.7 1.5-2.5 1.95 2.45 5.05 5.1 5.7-1.2 2.15q16.95 18.15 35.55 34.3 28.4 24.75 60.6 44.85l3.1 1.9.25.2.15-.85 19.1-28.55 4.4-30.5-2.8-5.05 5.05-9.45h-3.7l-.1-.2-4.7-6.45-.45-.1q-26.9-4-38.2-25.1l-1.35-2.7q-9.75-21.15 1.8-47.4 3.5-7.95 8.35-15.05l10.35-9.3 1.8.2q12.05-16.8 32-28.7 13.2-7.95 26.4-11.55l.55-.15 13.15-15.1q16.35-10 32.75-11.9l4.3-5.75 3.4-1.2 1.35-7.1-32.5-10.75-14 1.85.05 9q-19.8 5.4-40.5 9.9-2.85-.1-15.8-4.25l4.65-35.3-.9-8.2q-39.3-35.35-76.75-82.05-7.45-50.35 14-120.5l16.5-31.55 24.1-11.25 38.4-35.7q9.75-5.95 19-11.15Q314.95-8.8 358.65 7.6q35.25 26.15 77.5 46.55 13.3 15.5 25.05 31.05m-35.8 435.4v5.7l-2.7 3.8-12.25 21.65-2.4-1.35-15.6 21.65-7.9 13.3 16.1-6.55 1 1q23.3 22.7 39.7 46.2 43.4-13.15 66.6-32.5l3.75-6.7q-17.85-23.35-32.2-51.85l-1.85-3.75q-11.4-23.3-33.5-37.3-5.95 13.5-18.75 26.7M99.6 434.65l-4.25-7.75-3.45 4.15 3.2-.4 4.5 4"/><path fill-rule="evenodd" fill="#d3d7e0" d="M-161.85-93.95q-4.35 15.85-17.8 27.8l-.85.55q-1.1-.15-1.55-.55-4.05-3.65-4.75-8.7l-.2-1.05q0-10.3 1.25-20.85 1.15-9.55 5.5-18.2 12.65-25.9 48.85-27.2-30.7 14.75-30.45 43.65v4.55m-20.55 80.3q-.5-21.9 19-41.65l7.45 5.1.95 7.15q-3.1 15.9-22.4 29.15l-4.6 3.15-.4-2.9M-181.3-3q4.4-7.05 17.8-15.4l3.5-1.7q1.45.3 2.55 1 6.15 4.15 7.2 10.65l3.85 29.1-11.1 22.7-1.7.55q-4.7-3.85-10.05-6.7-6.05-3.2-12.95-5.1l-7.15-1.6q5.35-3.05 7.65-14 1.75-9.4.4-19.5" transform="translate(208.55 352.35)"/><path fill-rule="evenodd" fill="#fff" d="M-186.8-74.85q.7 5.05 4.75 8.7.45.4 1.55.55l.85-.55q13.45-11.95 17.8-27.8l5.9 43.75-7.45-5.1q-19.5 19.75-19 41.65l-4.4-61.2" transform="translate(208.55 352.35)"/><path fill-rule="evenodd" fill="#e4ebf3" d="m-182-10.75 4.6-3.15q19.3-13.25 22.4-29.15l4.75 34.6q-1.05-6.5-7.2-10.65-1.1-.7-2.55-1l-3.5 1.7q-13.4 8.35-17.8 15.4l-.7-7.75" transform="translate(208.55 352.35)"/><path fill-rule="evenodd" fill="#8e92b0" d="m-131.8 40.05-.05.05h-.15l.2-.05" transform="translate(208.55 352.35)"/><path fill-rule="evenodd" fill="#22171f" d="m-132 40.1.3.1-.15.55q4.35.3 8.35 1.2l1.75 2.1q4 5.85.9 12.45-6.25-1.5-13.45-1.55 3-5.2-.15-10.9l-.8-1.25-1.7-2.2-3.55.1-2.05.1-1.8.2q-7.05.6-13.15 2.35l11.1-22.7L-132 40.1m.15.65-5.1-.15 5.1.15" transform="translate(208.55 352.35)"/><path fill-rule="evenodd" fill="#3c2835" d="M-116.6 44.2q4.2 2.05 4.45 5 2.65 5.6 1.5 12.05l-.5 2q-.15-1-.75-1.9-.7-1.05-2-1.95l-.55-.35q-5.4-10-2.15-14.85m-40.9-.85q6.1-1.75 13.15-2.35l1.8-.2 2.05-.1 3.55-.1 1.7 2.2.8 1.25q3.15 5.7.15 10.9l-5.15.05-2.15.15-1.8.1q-10.6.95-18.9 4.35l-.95.25q-6.65 3.05-7.3 6.7l-.05.9-.45-.85q-3.35-6.35-.5-13.15-.35-4.35 8.2-8.05 1.75-.75 3.6-1.35l.55-.15 1.7-.55" transform="translate(208.55 352.35)"/><path fill-rule="evenodd" fill="#79516a" d="m-123.5 41.95 2 .55q2.7.65 4.6 1.55l.3.15q-3.25 4.85 2.15 14.85-2.05-1.25-5.25-2.25l-.75-.2-.4-.1q3.1-6.6-.9-12.45l-1.75-2.1" transform="translate(208.55 352.35)"/><path fill-rule="evenodd" d="m-111.15 63.25.05.25q.3 4.35-8.2 8.05-4.8 2.1-11.75 3.3l-.1-.25-.1-.05q4.9-6.4 11.8-9.15-.95-1-5.4-2.55l-.9-.25q-3.4-.9-7.65-1.05l-5.6.05-1.65.15-2.3.2q-7.95.8-13.5 3.35l-.2.1q-2.6 1.05-4.45 2.8l2.1 1.3 2.4 2.45.25.3-.9 3.2-.75-.05-1.2-2.9q.95 1 2.6-.55-1.65 1.55-2.6.55l1.2 2.9-3.25-.95q-6.1-1.7-8.25-4.15-1.05-1.2-1.05-2.6l-.05-.25.05-.9q.65-3.65 7.3-6.7l.95-.25q8.3-3.4 18.9-4.35l1.8-.1 2.15-.15 5.15-.05q7.2.05 13.45 1.55l.4.1.75.2q3.2 1 5.25 2.25l.55.35q1.3.9 2 1.95.6.9.75 1.9M-153.9 75.7l-3.35-.25.9-3.2q1.2 1.45 2.45 3.45" transform="translate(208.55 352.35)"/><path fill-rule="evenodd" fill="#81808e" d="m-156.05 71.3 2.35 4.45-.2-.05q-1.25-2-2.45-3.45l.3-.95" transform="translate(208.55 352.35)"/><path fill-rule="evenodd" fill="url(#g)" d="M-161.85-93.95v-4.55q-.25-28.9 30.45-43.65-12.3 31.35-5.35 63.85l.55 3.2.6 3.55 2.5 14.05-7 1.65 7-1.65q12.8 69.05 24.6 75.65-6.85 2.25-16.95 13.95l-4.2 5.1-1.3 1.7-.6.8-.25.35-.2.05-14.4-19.45-3.85-29.1-4.75-34.6-.95-7.15-5.9-43.75m9.35 26.6 16.9-4.2-16.9 4.2m6.9-5.75 9.4-2-9.4 2" transform="translate(208.55 352.35)"/><path stroke-width=".5" stroke-opacity=".651" stroke-linejoin="round" stroke-linecap="round" stroke="#0b0a33" fill="none" d="M77.15 210.2q-36.2 1.3-48.85 27.2-4.35 8.65-5.5 18.2-1.25 10.55-1.25 20.85l.2 1.05 4.4 61.2.4 2.9.7 7.75m45.1-72.1-.55-3.2q-6.95-32.5 5.35-63.85m-1.7 84.65-2.5-14.05-.6-3.55m3.1 17.6q12.8 69.05 24.6 75.65-6.85 2.25-16.95 13.95l-4.2 5.1-1.3 1.7m-.85 1.15-.05.05m0 .65q4.35.3 8.35 1.2l2 .55q2.7.65 4.6 1.55l.3.15q4.2 2.05 4.45 5 2.65 5.6 1.5 12.05l-.5 2 .05.25q.3 4.35-8.2 8.05-4.8 2.1-11.75 3.3l-.4.15-1.45 2.2-.85 1.25-.25-.4.25-.35 2.15-2.8.25-.35h.1q4.9-6.4 11.8-9.15-.95-1-5.4-2.55l-.9-.25q-3.4-.9-7.65-1.05l-5.6.05-1.65.15-2.3.2q-7.95.8-13.5 3.35l-.2.1q-2.6 1.05-4.45 2.8l2.1 1.3 2.4 2.45.55-.65 2.35 4.45m-3.55-.3-.75-.05.5.95m20.55-35.75-3.55.1-2.05.1-1.8.2q-7.05.6-13.15 2.35l-1.7.55-.55.15q-1.85.6-3.6 1.35-8.55 3.7-8.2 8.05-2.85 6.8.5 13.15l.45.85.05-.9q.65-3.65 7.3-6.7l.95-.25q8.3-3.4 18.9-4.35l1.8-.1 2.15-.15 5.15-.05q7.2.05 13.45 1.55l.4.1.75.2q3.2 1 5.25 2.25m-22.5-18.45 5.1.15M62.15 373l-11.1 22.7m25.5-3.25L62.15 373m-9.95 51.6-.25-.3q-1.65 1.55-2.6.55l1.2 2.9-3.25-.95q-6.1-1.7-8.25-4.15-1.05-1.2-1.05-2.6l-.05-.25m14.25 4.8.3-.95m25 3.55h-.15l-.25.15m.3-.4.1.25m-.55.05.4-.05.05-.25m-1.75 2.6 1.3-2.3M52.2 424.6l-.9 3.2m3.35.25q-1.25-2-2.45-3.45m45.2-9q-.15-1-.75-1.9-.7-1.05-2-1.95m-45.3-15.5q-4.7-3.85-10.05-6.7-6.05-3.2-12.95-5.1l-7.15-1.6q5.35-3.05 7.65-14 1.75-9.4.4-19.5"/><path stroke-opacity=".651" stroke-linejoin="round" stroke-linecap="round" stroke="#0b0a33" fill="none" d="m-130.95 38.9-.6.8-.25.35m.1.15-.15.55" transform="translate(208.55 352.35)"/><path stroke-width=".3" stroke-linejoin="round" stroke-linecap="round" stroke="#7b7fa1" fill="none" d="m72.95 280.8-16.9 4.2m16.3-7.75-9.4 2m5.5 17.25 7-1.65"/><path stroke-width=".25" stroke-linejoin="round" stroke-linecap="round" stroke="#cae4ff" fill="none" d="M62.15 373 46.7 258.4v-4.55q-.25-28.9 30.45-43.65"/></g><g id="bg"><path fill-rule="evenodd" fill="#fff" d="M101.35 242.95h-.55l.6-.45-.05.45m-271.6-150.2.45-.25-.3.4-.15-.15" transform="translate(205.55 349.35)"/><path fill-rule="evenodd" fill="#c8d7db" d="m48.4-179.1.2.25q-.25-.1-.4-.25h.2" transform="translate(205.55 349.35)"/><path fill-rule="evenodd" fill="#6c6cac" d="M167.15 343.9H167l.1-.05.05.05M-29.05-79.15l.6-1-.25 2.45-.35-1.45m14.5 17.05v-3.15l1 2.65-1 .5m-121.7 247.55.1-.05.4.75-.5-.7" transform="translate(205.55 349.35)"/><path fill-rule="evenodd" fill="#1f1d4e" d="m-29.05-79.15.35 1.45-.4 4.45.05-5.9" transform="translate(205.55 349.35)"/><path fill-rule="evenodd" fill="#f4f1d9" d="m51.2-212.85-1.6-6.7-1.1-4.1 9.9 6.5q1.5 8.35 2.6 16.7 2.85 22.6 2.2 44.85l-2.5 9.85-.35-3.55-2.5-22.85q-3-24.45-6.65-40.7m31.8 6.8 7.4 15.85 6.1 64.55-5.9 59.7-3.5 3.8Q90.25-93.55 89-125l-.15-3.7-.3-5.45-.5-7.45 1.3-7.85-6.35-56.6m-10.45 9.6-.45 18.25-4.5 4.25q-1.5-10.15-3.95-18.55l1.45-14.35 7.45 10.4" transform="translate(205.55 349.35)"/><path fill-rule="evenodd" fill="#bb9b68" d="M194.5 255.25v-.55l.25.3-.25.25" transform="translate(205.55 349.35)"/><path fill-rule="evenodd" fill="#3d4075" d="m289.2-115.35-.25.1.1-.45.15.35" transform="translate(205.55 349.35)"/><path fill-rule="evenodd" fill="#cabc9b" d="M51.2-212.85q-6.7-11.85-22.05-23.85-6.25-4.9-13.9-9.8 15 5.25 28.1 11.05l3.85 7.2 1.3 4.6-1.3-4.6-2.05-6.4 10.7 5.05 2.35 11.5.2.95-9.9-6.5 1.1 4.1 1.6 6.7m39.2 22.65 5.8 13.25 10.4 36.8-1 31.15-8.9 36.75-.15.1-5.95 6.2 5.9-59.7-6.1-64.55m-28-6.4.7-21.55 9.75 8.05-.3 13.65-7.45-10.4-1.45 14.35-1.05-3.5-.2-.6" transform="translate(205.55 349.35)"/><path fill-rule="evenodd" fill="#100f28" d="M94.85 6.95 84 14.45l-.7 3.15-22.2-7.05-10.3-3.7 34.9-4.6L97.45-2.1l.45-.15-3.05 9.2m-6.25-5.1-2.9.4 2.9-.4" transform="translate(205.55 349.35)"/><path fill-rule="evenodd" fill="url(#h)" d="M-20.9-258.65v.15l-.05-.15h.05m12.15.05-.65.8v-.8h.65" transform="translate(205.55 349.35)"/><path fill-rule="evenodd" fill="#baa87c" d="m58.4-217.15-.2-.95-2.35-11.5q7.1 3.5 13.6 7.25l1.4-1q.15 1.2 1.1 2.45l.2.1.95.6-.25 10.1-9.75-8.05-.7 21.55-1.4-3.85q-1.1-8.35-2.6-16.7m37.8 40.2q7.85 18.7 14.35 37.4l1.05 2.95.25.85v18.6L104.1-78.9h-1l-6.4 6.65 8.9-36.75 1-31.15-10.4-36.8" transform="translate(205.55 349.35)"/><path fill-rule="evenodd" fill="#12112f" d="m111.85-135.75 3.8 11.6-.8 47.55-3.95 7.6-16.15 13 1.8-16.15.15-.1 6.4-6.65h1l7.75-38.25v-18.6m2.5 90.05-.3 16.65-8.25 23.7-.1.05-7.8 3.05-.45.15 13.3-24.6 3.6-19" transform="translate(205.55 349.35)"/><path fill-rule="evenodd" fill="url(#i)" d="m1.2 112.7.05-.05-.2.9.15-.85" transform="translate(205.55 349.35)"/><path fill-rule="evenodd" fill="#3c2835" d="M-136.2 75.5q3.75 4.95 12.5 4.1l-19 2.4q5.35-4.9 6.5-6.5" transform="translate(205.55 349.35)"/><path fill-rule="evenodd" fill="#6167a4" d="m1.25 112.65-.05.05v-.05h.05" transform="translate(205.55 349.35)"/><path fill-rule="evenodd" d="m185.75-299.55 1.05 1.15q-12.35 7.8-17.1 4.9 7.15-.6 16.05-6.05m103.9 446.65 1.15-.6 2.05 3.2-1.5.9-1.7-3.5M.5 204.5l12.1-3 2.6 2.9-14.7.1" transform="translate(205.55 349.35)"/><path stroke-opacity=".651" stroke-linejoin="round" stroke-linecap="round" stroke="#0b0a33" fill="none" d="m-14.8-11.95-.9-8.2q-38.4-34.55-75.05-79.9l-1.7-2.15q-7.45-50.35 14-120.5l16.5-31.55 24.1-11.25 38.4-35.7q9.75-5.95 19-11.15 86.85-48.8 130.55-32.4l4.65 3.4q20.8 15.05 44.05 28.1 13.95 7.9 28.8 15.05 13.3 15.5 25.05 31.05 16.9 22.4 30.55 44.9 40.1 66.2 51.75 133.15m.05.35-.2 1M262 33.65q3.85 7.5 8.15 13.2h21.5l-5 13.05-1.1 2.1q-.95 2.2-.9 4.45l11.5 8.45 25.5 62.5.05.05 72 83.45 21.45 45.05v19.5l-4.6 4.3-3.9 3.35q-50.85 41.95-152.05 45.35l-13.15 2.7-1.85.35-30.6 8.85-17.1-7.35-20 3.35-4.75-2.45H167l-5.9 30.45H-85.7m132.9-602.6-3.85-7.2q-13.1-5.8-28.1-11.05 7.65 4.9 13.9 9.8 15.35 12 22.05 23.85l-1.6-6.7-1.1-4.1-1.3-4.6-2.05-6.4-1.8-.8m12.5 5.85-10.7-5.05m13.25 17.5-.2-.95-2.35-11.5q7.1 3.5 13.6 7.25m2.7 1.55.95.6 4.2 2.55 5.7 11.6 7.4 15.85 5.8 13.25q7.85 18.7 14.35 37.4l1.05 2.95.25.85 3.8 11.6-.8 47.55-.5 30.9-.3 16.65-8.25 23.7-.05.15-3.2 7.35M81.95 24.7l16.65-5.85M72.85-210.1l.25-10.1M61-200.45q-1.1-8.35-2.6-16.7m-92.2 93.6q-2.5-5.4-5.65-11.25-2.3-4.2-4.1-8.55l-1.25-3.2-3.35-1.15-1.45-18.2-.1-.75q-.75-6.1-.7-12.45 0-4.85.5-9.85 4.7-30.45 22.45-59.25h37.8l4.9 1.7M104.1-78.9l7.75-38.25v-18.6m-22.5-13.7-1.3 7.85.5 7.45.3 5.45.15 3.7q1.25 31.45-1.9 62.85l3.5-3.8m-18.05-130.5-.45 18.25-4.5 4.25q-1.5-10.15-3.95-18.55L62.6-196m-.2-.6-1.4-3.85q2.85 22.6 2.2 44.85l-2.5 9.85-.35-3.55-2.5-22.85q-3-24.45-6.65-40.7m-84.85 89.65Q-26-106.55-26.2-104l7-2.65q30.8-14.45 60.9-24.7l21.5-7 24.85-3.25m8.65 69.35 6.4-6.65m-6.55 6.75-5.95 6.2m5.95-6.2.15-.1m1.2 70 7.8-3.05.1-.05M97.45-2.1l.45-.15m50.55-3.65q3.9-15.15 10.1-26.55 3-5.55 6.55-10.2 19.65-10.6 38.1-7.3 9.05 1.6 17.8 6.55l4.6 2.85q5.3 3.55 10.55 8.4l5.4 9.85q4.5 9.05 7.5 18.25 2.45 7.55 3.9 15.25l.2 1.15 2.25 6.3q2.35 6.15 4.9 11.55l1.7 3.45M72.55-196.45l.3-13.65m147.6 279.4 1.35-.75q14.7-8.45 25.25-13.6 9.5-4.7 15.55-6.65 4.95-1.65 7.55-1.45m-62.9 66.1-7.6-.55h-8v-9.5m43.95 38.65q21.6 13.7 33 36.3l.5 1 1.85 3.75q8.75 17.4 18.85 32.9 6.4 9.85 13.35 18.95l-3.75 6.7q-22.45 18.75-63.95 31.7l-2.65.8 1.75 2.85 2.2 4.55m-91.7-270.8-.15.9-1.3 9.7.2 1M36.85 17.7 19.2 22.3-.4 26.9l-3.25.7q-2.85-.1-15.8-4.25m-11.15 75.7q12.05-16.8 32-28.7Q14.6 62.4 27.8 58.8l.55-.15 13.15-15.1q16.35-10 32.75-11.9l4.3-5.75 3.4-1.2M1.2 112.65v.05l-.15.85M85.7 2.25 97.45-2.1M2.4 106.4Q4.35 98 7.9 90.3m93.45 152.65h-.55l.6-.45 4.6-3.55 9.7.2 5.25-3.25-12.3 18.15m-7.25-11.55-.05.45-.95 23.55 8-12.05M12.6 201.5l-12.1 3m166.6 139.35-26.9-26.9 4.5-2.55 4.4 3.55m83.7-44.3q-16.4-23.5-39.7-46.2l-1-1L176 233m25.9-33.6 1.75-3.1m-9.15 58.95v-.55m42.4 26.75q3.2 7.75 5.2 19.25l-16 33.25H220l-7 7-13.85 2.95-1.85-.8-15.2-14.05 2.65-21.65-5.65 3.05-8-5.5-4 9.5m0 29.4.05.05m-210.9-490.1-1.05-.35m16.1 68.85.25-2.45-.6 1 .35 1.45q2 8.2 3.8 12.9l1.35 3.1 1.6 6.75q3.5 15.35 5.5 29.3l.75 5.5M-26.2-104l-2.25 23.85 6.35-11.3m-6.6 13.75-.4 4.45.05-5.9M-136.2 75.5q-1.15 1.6-6.5 6.5l19-2.4q-8.75.85-12.5-4.1m28.8-4.15q-2-.3-3.9.05l2.1-3.55-5.15-8.25-21.55-9.35-9.5.1-3 3q-5.8 5.5-13.3 11.15l-21.75 16.3-.35 2.8-.45 3.45 2.65 6.5 6.15-.4 5.2-.4.45-.25-.3.4-2.55 3.25m59.2-17.85 4.5 4-4.25-7.75-.3.35-3.15 3.8 3.2-.4m-5.7 84.2 3.55-2.35 6.1-4.4 7.95-14.05-3.45-8.2-5.05-3.85 3.1-.8 1.7-4.25 7.15.15q6.3-5.2 8.6-11.2l-6.4-16.2v-20l-.15-.15-.2-.15m-77.8 29.5q-1.25 8.45-1.95 17-1.75 20.7-.4 41.4l17.2 18.2 13.6 6.2h2.65q3.5-1.6 6.7-3.9l.1-.05 2.5-1.95 1.7-1.5 8.05-7.75 1.45-1.35 4.1-9.15 2.75-3.55m-18.05 23.3-2.1 2.7 2.05 4.3 5.1 5.7-1.2 2.15 7.65 8q13.45 13.75 27.9 26.3 28.4 24.75 60.6 44.85l3.1 1.9.25.2m-105.85-94.15.4.75m131.35 19h-3.7l-.1-.2-4.7-6.45-.45-.1q-20.45-3.05-31.85-15.9-3.65-4.1-6.35-9.2l-1.35-2.7q-9.75-21.15 1.8-47.4 3.5-7.95 8.35-15.05M-183.8 83.6l-4.6 8.55-1.65 19.1-.4 1.25-3.3 11.35-6.25 21.2-2 5.95q-3.35 8.35-3 18.2.15 5.55 1.55 11.55 4.05 17.7 18.3 39.4l9.9 12.45q50.05 62.45 102.2 114.55m-99.35-250.8-.25 1.4-1.1 7" transform="translate(205.55 349.35)"/><path stroke-opacity=".651" stroke-linejoin="round" stroke-linecap="round" stroke="#0b0a33" fill="none" d="m334.95-89.1.05.35m-.2 1L333.75-83Q320.85-27.1 262 33.65m-347.7 340.7-1.3 2.8m189.55-375-.15.4-7.55 4.4L84 14.45l-.7 3.15-1.35 7.1M48.2-179.1h.2M97.9-2.25l-3.05 9.2M83-206.05l6.35 56.6M7.9 90.3q5.35-6.6 12.1-12.5l2.95-2.55Q30.7 68.9 40.8 63.5q16.1 2.7 31 6.75 9.05 2.4 17.45 5.3 25.5 8.75 44.4 21.6 8.2 5.6 15.2 12 6.65 5.65 13.55 10.45 5.3 3.65 10.75 6.8l3.05.1 20.45-3.4 10.6-10.15m-3.6 83.35 8.5-15.05 4.7-7.3v-5.7l2.2-2.3q3.6-3.9 6.6-7.8 6.25-8.25 9.95-16.6M85.7 2.25l2.9-.4M83.3 17.6l-22.2-7.05-10.3-3.7-14 1.85.05 9m-56.3 5.65 4.65-35.3 3.85-22.2-3.6-20.5M176 233l7.9-13.3 15.6-21.65-18.35-10.15H145.6l-39.05 6.2-.25.25M50.8 6.85l34.9-4.6m-36 200.3-2.45.05-10.65 2.3-4.9 1.15-6.7 1.65-9.2 2.05-10.85 1.75-11.6 8.15-4.4 30.5-19.1 28.55-.15.85-30.1 40.4-12.65 27.2-12.65 27.2m285.2-176.3 2.4 1.35M-43.55-143.35l-.2-2.85m9.95 22.65.15.35m19.1 57.95v3.15m-8.95 162.15q6.55 1.1 13.3 2.75 6.2 1.55 12.6 3.6m-33-7.35 5.9.8m-18.05 8.3 10.35-9.3 1.8.2m23.95 120.6-2.8-5.05 5.05-9.45" transform="translate(205.55 349.35)"/><path stroke-width="2.5" stroke-linejoin="round" stroke-linecap="round" stroke="#53503e" fill="none" d="m161.8 203.15 2.85 1 16.5 8.25.2-5.8"/><path stroke-width=".3" stroke-linejoin="round" stroke-linecap="round" stroke="#3d4075" fill="none" d="m496.35 495.85 2.05 3.2-1.5.9-1.7-3.5"/><path stroke-width=".3" stroke-opacity=".502" stroke-linejoin="round" stroke-linecap="round" stroke="#3d4075" fill="none" d="m206.6 462.9.2-.9"/><path stroke-width=".3" stroke-opacity=".2" stroke-linejoin="round" stroke-linecap="round" stroke="#0e0933" fill="none" d="m275 127 1.4-1q.15 1.2 1.1 2.45l.2.1"/><path fill-rule="evenodd" fill="#b18e54" d="m19.9-140.1.05-.35 4.05 1-4.1-.65" transform="translate(205.55 349.35)"/><path fill-rule="evenodd" fill="#c6a368" d="m32.95 206.2-1.25-.15 1.2-.3.05.45" transform="translate(205.55 349.35)"/><path fill-rule="evenodd" fill="#fff" d="m101.35 243-.55-.05h.55v.05M-104.5 92.35l-.05-.05.1-.2-.05.25m-69.45 14.1-.1.1.05-.15.05.05" transform="translate(205.55 349.35)"/><path fill-rule="evenodd" fill="#99794f" d="m122.95 297.7-.25-.55.45.3-.2.25m71.55-42.2v-.25l.25-.25v.05l.15.15-.4.3" transform="translate(205.55 349.35)"/><path fill-rule="evenodd" fill="url(#j)" d="m27.7 68.25-.15.05.1-.1.05.05" transform="translate(205.55 349.35)"/><path fill-rule="evenodd" fill="url(#k)" d="m-167.75 89.85 19.05-7.1 6-.75 19-2.4 7.05-.9 3.2-.4 4.5 4 4.5 9.8-.1.2-8.05-6.15-45.9 7.1-9.6 7.2-5.85 6-.05-.05.25-1.65 1.1-7 .25-1.4-.25-.2 2.85-3.65 2.05-2.65" transform="translate(205.55 349.35)"/><path fill-rule="evenodd" fill="url(#l)" d="m-146 115.6-21.95 16.15 1.5-7.2 4.85-6.3 15.6-2.65" transform="translate(205.55 349.35)"/><path fill-rule="evenodd" fill-opacity=".2" fill="#392613" d="M3.1-239.25q-7.6 1.45-16.1 5.1-21.9 14.65-37.4 55.05 0-4.85.5-9.85 4.7-30.45 22.45-59.25h37.8l4.9 1.7q7.65 4.9 13.9 9.8-11.3-5.4-26.05-2.55" transform="translate(205.55 349.35)"/><path fill-rule="evenodd" fill="url(#m)" d="M3.1-239.25q14.75-2.85 26.05 2.55 15.35 12 22.05 23.85 3.65 16.25 6.65 40.7l2.5 22.85.35 3.55 2.5-9.85q.65-22.25-2.2-44.85l1.4 3.85.2.6 1.05 3.5q2.45 8.4 3.95 18.55l4.5-4.25 1-42 4.2 2.55 5.7 11.6 6.35 56.6-1.3 7.85-24.85 3.25-21.5 7Q55-140.3 52.1-149.2l-7.8.1q2.75-2.5 4.8-5.3 2.3-3.3 3.75-7.05 1.5-3.9 2-8.35l-2.1-3.8q-1.7-2.6-4.15-5.25l-.2-.25h-.2q-16.55-14.15-32.75-6.85l-1.65.8 2.15-6.65 13.7-21.45h.15l12.45 1.5-8.9-11.55-6.25 4.85q-9.5 11.3-18.05 27.95.95-3.55-5.6-1.9 14.05-22.45-.35-46.85" transform="translate(205.55 349.35)"/><path fill-rule="evenodd" fill="url(#n)" d="M255.4 18.65q2.35 6.15 4.9 11.55l1.7 3.45q3.85 7.5 8.15 13.2-2.6-.2-7.55 1.45-6.05 1.95-15.55 6.65l-14.6 2.65 14.4-9.45 5.9-18.65.2-17.15h.2l2.25 6.3" transform="translate(205.55 349.35)"/><path fill-rule="evenodd" fill="url(#o)" d="m205.05 84.1 3.3-.75-16.7 19.55 2.5-6.05L178.2 79.3l-.55 15.15-4.65 13.8-10.6 11.35q-6.9-4.8-13.55-10.45-7-6.4-15.2-12 22.8 5.45 24.4-10.55L155 59.4l-22.85-31.8-30.7 1.4-.05-.4.35-2.95 44.35-21.2-1.05 5.8-24.4 12 .25 2.05v.05l22.9-2.5q1.35 6.1 3.6 12.1l5.7 8.35q16.4 22.9 41.8 44.15l10.15-2.35" transform="translate(205.55 349.35)"/><path fill-rule="evenodd" fill="url(#p)" d="M7.9 90.3Q4.35 98 2.4 106.4q-6.4-2.05-12.6-3.6 6.25-1.45 10.2-5.65l.2-.25Q5.75 86.35 20 77.8q-6.75 5.9-12.1 12.5" transform="translate(205.55 349.35)"/><path fill-rule="evenodd" fill="url(#q)" d="m84.05 197.65 82.8.8q13.8 5.8.6 31.95-3.65-1.8-8.35-3.45-3.6.9-7.85 4.05-3.65 2.7-5.55 4.55l-3.85-.5q11.75-11.5 3.4-25.9-8.8-5.3-26-5.5l-86.3 2.55-.05-.45 3.7-.85 10.65-2.3 2.45-.05 34.35-4.9" transform="translate(205.55 349.35)"/><path fill-rule="evenodd" fill="url(#r)" d="m15.8 209.75-23.1 14.4.65-4.5 11.6-8.15 10.85-1.75" transform="translate(205.55 349.35)"/><path fill-rule="evenodd" fill="url(#s)" d="m122.7 297.15-5.8-13.3 1.35-2.65 13.2-.4 10.55 2.55 3.6 2.4v1.7l4.8 3.3 1.35-2.75 16.35-1.6 4.25.95.9-.95 6.25 1.3 9.05 7.6.05.15V297l3.85-5.1 4 .85-1.5 9.1-10.2 5.55-5.65 3.05-8-5.5-19.4-13.3 6.8 13.8-4.5 5.8-15.55-1.75-15.3-12.05-.45-.3" transform="translate(205.55 349.35)"/><path fill-rule="evenodd" fill="url(#t)" d="m145.4 322.15 21.7 21.7-.1.05-11.45-3.7-15.55-2.9-19.4-7.75-8.4.55L88 324l-3.5-8.4 5.6 6.35 16.05-1.2 15.35 6.15 21.4-1.7 2.5-3.05" transform="translate(205.55 349.35)"/><path fill-rule="evenodd" fill="url(#u)" d="m98.55 289-5.6 12.9-.85-3.7 4.9-9.65 1.55.45" transform="translate(205.55 349.35)"/><path fill-rule="evenodd" fill="url(#v)" d="m194.75 255-.25-.3.1-2.05 1.25-5.4.75 6.05 4.8-4.4.95-5.25 9.5 8.45 24.9 28.95.15.4q3.2 7.75 5.2 19.25l-16 33.25H220l-7 7-13.85 2.95-1.85-.8-14.55-13.45 16.5-14.1 15.3-42.35-6.8 4.95-5.45-1.45-1.65-13.65-5.75-7.85-.15-.15V255" transform="translate(205.55 349.35)"/><path fill-rule="evenodd" fill="url(#w)" d="M130.45 374.35h-39.1L119 359.1l9.25-19.4 13.45 3.75 2.45.05-13.7 30.85" transform="translate(205.55 349.35)"/><path fill-rule="evenodd" fill="url(#x)" d="m-113.5 74.9-3.9 1.7-12.25-3.65-1.15-6.65-2.25-.85-9.3 10.45-25.7 13.4-7.4 3.85-6.15.4-2.65-6.5.35-2.85 9.35 4 35.7-22.25.35-9.75-9.9-2.85 3-3 9.5-.1 21.55 9.35 5.15 8.25-2.1 3.55-1.9 3.15-.3.35" transform="translate(205.55 349.35)"/><path fill-rule="evenodd" fill="url(#y)" d="m-113.2 74.55 1.9-3.15q1.9-.35 3.9-.05h.2l7.9 8.3 1.4 14.5 2.7 4.95 5.7 14.45q-2.3 6-8.6 11.2l-7.15-.15-1.7 4.25-3.1.8q-14.9 8.15-33.35 11.7l2.5-4.7 32.1-11.75 4.9-7.65.7-7.05q-1.7-2.95-4.75-5.9h-3.5q4.85-5.3 6.95-11.95l.05-.25-4.5-9.8-4.25-7.75" transform="translate(205.55 349.35)"/><path fill-rule="evenodd" fill="url(#z)" d="m-104.55 92.3.05.05q-2.1 6.65-6.95 11.95h3.5q3.05 2.95 4.75 5.9l-.7 7.05-4.9 7.65-32.1 11.75-2.5 4.7q18.45-3.55 33.35-11.7l5.05 3.85 2.1 4.95-6.7 13.15-14.9 8.6-1.6.6q-12.7 4.5-24.1 4.85l-12.6 2-7.3-3.25-3.5-9.05-.2-1.75q-2.85-23-.2-47.05h-.05l.1-.1 5.85-6 9.6-7.2 45.9-7.1 8.05 6.15m-39.6 38.4v-3.25l-11.25-1.75-9.6 7.85.8 3.35 10.95 2.45 9.1-8.65m-1.85-15.1-15.6 2.65-4.85 6.3-1.5 7.2L-146 115.6m-6 45.45 9.05-5.45-.35-2.35-10-2.25-7.6 3.55V157l8.9 4.05" transform="translate(205.55 349.35)"/><path fill-rule="evenodd" fill="url(#A)" d="m105.75-5.2-3.35 7.75-7.55 4.4 3.05-9.2 7.8-3.05.05.1" transform="translate(205.55 349.35)"/><path fill-rule="evenodd" fill="url(#B)" d="M9.05-190.5q8.55-16.65 18.05-27.95l6.25-4.85 8.9 11.55-12.45-1.5h-.15l-13.7 21.45-2.15 6.65Q5.05-180.5 2.55-171.1q-1.55 5.95-.6 13.85l.1.55q.75 1.65 1.65 3.15l1.4 2.2q5.5 7.9 14.85 10.9l-.05.35-14.45-2.4-10.95-11.2.85-1.25 7.5-26 6.2-9.55" transform="translate(205.55 349.35)"/><path fill-rule="evenodd" fill="url(#C)" d="m145.05 10.25-.15.9-1.3 9.7.2 1-22.9 2.5v-.05l-.25-2.05 24.4-12" transform="translate(205.55 349.35)"/><path fill-rule="evenodd" fill="url(#D)" d="M191.65 102.9v9.5h8l7.6.55-10.6 10.15-20.45 3.4-3.05-.1q-5.45-3.15-10.75-6.8l10.6-11.35 4.65-13.8.55-15.15 15.95 17.55-2.5 6.05" transform="translate(205.55 349.35)"/><path fill-rule="evenodd" fill="url(#E)" d="m84.05 197.65 22.1-3.15.05-.05.1-.1.25-.25 39.05-6.2h35.55l18.35 10.15-15.6 21.65L176 233l-2.4.95q-2.6-1.85-6.15-3.55 13.2-26.15-.6-31.95l-82.8-.8" transform="translate(205.55 349.35)"/><path fill-rule="evenodd" fill="url(#F)" d="m167 343.9-5.9 30.45h-30.65l13.7-30.85 22.85.4" transform="translate(205.55 349.35)"/><path fill-rule="evenodd" fill="url(#G)" d="m173.25 286.4 1.9-1.9 7.45-4.35q3.6.1 5.55-2.1 1.5-1.7 3.45-6.85 2.3-5.9 2.9-15.7l.4-.3 5.75 7.85 1.65 13.65 5.45 1.45 6.8-4.95-15.3 42.35-16.5 14.1-.65-.6 2.65-21.65 10.2-5.55 1.5-9.1-4-.85-3.85 5.1v-1.55l-.05-.15-9.05-7.6-6.25-1.3" transform="translate(205.55 349.35)"/><path fill-rule="evenodd" fill="url(#H)" d="m171.1 304.95-4 9.5-18 3.5-4.4-3.55-4.5 2.55 5.2 5.2-2.5 3.05-21.4 1.7-15.35-6.15 3.95-.3 6.95-7.8 7.55-11.2-1.65-3.75.2-.25 15.3 12.05 15.55 1.75 4.5-5.8-6.8-13.8 19.4 13.3" transform="translate(205.55 349.35)"/><path fill-rule="evenodd" fill="url(#I)" d="M-174.05 106.55h.05q-2.65 24.05.2 47.05l.2 1.75 3.5 9.05 7.3 3.25 12.6-2q11.4-.35 24.1-4.85l1.6-.6 14.9-8.6 6.7-13.15 1.35 3.25-7.95 14.05-6.1 4.4-3.55 2.35q-8.45 5-17.15 5.75l-1.45-.45-14.95 2.65.15 1.25v.05l16.65 1.7 10.7-2.7q4.25-3.45 6.85-7.05l-4.1 9.15-1.45 1.35-8.05 7.75-1.7 1.5-2.5 1.95-.1.05q-3.2 2.3-6.7 3.9h-2.65l-13.6-6.2-17.2-18.2q-1.35-20.7.4-41.4.7-8.55 1.95-17" transform="translate(205.55 349.35)"/><path fill-rule="evenodd" fill="url(#J)" d="m-152 161.05-8.9-4.05v-2.45l7.6-3.55 10 2.25.35 2.35-9.05 5.45" transform="translate(205.55 349.35)"/><path fill-rule="evenodd" fill="url(#K)" d="m-144.15 130.7-9.1 8.65-10.95-2.45-.8-3.35 9.6-7.85 11.25 1.75v3.25" transform="translate(205.55 349.35)"/><path fill-rule="evenodd" fill="url(#L)" d="m-168.05 89.3 25.7-13.4 9.3-10.45 2.25.85 1.15 6.65 12.25 3.65 3.9-1.7-3.15 3.8-7.05.9q-8.75.85-12.5-4.1-1.15 1.6-6.5 6.5l-6 .75-19.05 7.1-.3-.55" transform="translate(205.55 349.35)"/><path fill-rule="evenodd" fill-opacity=".612" fill="#321" d="m-119.15 162.5.8 1.2q-2.6 3.6-6.85 7.05l-10.7 2.7-16.65-1.7v-.05l-.15-1.25 14.95-2.65 1.45.45q8.7-.75 17.15-5.75" transform="translate(205.55 349.35)"/><path fill-rule="evenodd" fill="url(#M)" d="M41.7-131.35q-30.1 10.25-60.9 24.7l.85-4.2 1-.15v-3.75l-1.25-6.85-5.6-21.15-.15 4.05-11.95-11.15q9.4-26.5 21.95-35.45 11.95-5.65 17.8-7.1 6.55-1.65 5.6 1.9l-6.2 9.55-7.5 26-.85 1.25 10.95 11.2 14.45 2.4 4.1.65-4.05-1 7.3.8.25-.1q4.35-1.5 8.05-3.4l.3-.15q4.85-2.55 8.45-5.8l7.8-.1q2.9 8.9-10.4 17.85" transform="translate(205.55 349.35)"/><path fill-rule="evenodd" fill="url(#N)" d="M146.1 4.45q1.05-5.4 2.35-10.35 3.9-15.15 10.1-26.55 3-5.55 6.55-10.2 19.65-10.6 38.1-7.3 9.05 1.6 17.8 6.55l4.6 2.85q5.3 3.55 10.55 8.4l5.4 9.85q4.5 9.05 7.5 18.25-50.65-41.75-56.1 22l-.05.55q2.8 25.15 17.45 48.85l-5.3 16.75-10.15 2.35Q169.5 65.2 153.1 42.3l-5.7-8.35q-2.25-6-3.6-12.1l-.2-1 1.3-9.7.15-.9 1.05-5.8" transform="translate(205.55 349.35)"/><path fill-rule="evenodd" fill="url(#O)" d="m37.55 56.7.5-.1.3-.25 3.45-3.15Q55.9 41 71.75 35.75q4.85-1.65 9.85-2.6l18.45-.8q15.45-.45 16.25 9.95.8 10.35-1.6 13.6-9.1 17.45-42.9 14.35-14.9-4.05-31-6.75-10.1 5.4-17.85 11.75 1.7-2.85 3.65-5.55l1-1.35.1-.1-.05-.05 9.9-11.5" transform="translate(205.55 349.35)"/><path fill-rule="evenodd" fill="url(#P)" d="M27.55 68.3Q6.35 73.45-5.1 90.1l-.9.6q-7.25 10.65-17.5 9.35l-1.2-.2-5.9-.8q12.05-16.8 32-28.7Q14.6 62.4 27.8 58.8l.55-.15q4.6-1.25 9.2-1.95l-9.9 11.5-.1.1" transform="translate(205.55 349.35)"/><path fill-rule="evenodd" fill="url(#Q)" d="M167.45 230.4q3.55 1.7 6.15 3.55l2.4-.95 16.1-6.55 1 1-.35 11.95L181.4 276l-25.05 7.1-3.3-4.05-1.3-14.25 2.2-4.2 8.65-14.65v-6.15l-19.1 24.95-14.6 12.05-11.25-.8-3.9-7.85-6.75 7.15-8.9 5.35-5.4-1.35 7.7-12.8 20.55-30.6 4.65-2.95 16.25 2.1 3.85.5q1.9-1.85 5.55-4.55 4.25-3.15 7.85-4.05 4.7 1.65 8.35 3.45" transform="translate(205.55 349.35)"/><path fill-rule="evenodd" fill="url(#R)" d="m100.8 242.95.55.05-.35 9.2-16 28.15 5.1 2.85h26.5l.3.65 5.8 13.3.25.55-1.8 5.85-10.45 12.25-10.8-.2-12.9-4-16.95-18.1v-5.05l2.65-1.95-12.25-3.7q.2 9.4 9.6 17.4v4.25l16 23.5 16.65 4.65-7.8 15.95-12.2 7.85-10.1-19.05q-7.85 26.9-42.5 37H-33l2.55-10.7-8.5 10.7H-85.7l25.3-54.4 30.1-40.4.15-.85 5.25-7.8 36.75-27.6 6.15 3.35h.05l-8.55 21.6 3.8-6.15 18.45-19.8 5-1.4 4.5 6.7 12.7 12q-19.3-31.65 36-20.7l6.45 6.15 1.95-2.1h2.45M98.55 289l-1.55-.45-4.9 9.65.85 3.7 5.6-12.9m-115.9 44.55.3 3.75-4.65 11.3 8.8-12.45v-9l-4.45 6.4" transform="translate(205.55 349.35)"/><path fill-rule="evenodd" fill="url(#S)" d="m-148.4 53.35 9.9 2.85-.35 9.75-35.7 22.25-9.35-4 .45-3.4 21.75-16.3q7.5-5.65 13.3-11.15" transform="translate(205.55 349.35)"/><path fill-rule="evenodd" fill="url(#T)" d="M-107.2 71.35q5.45.85 11.3 6v20l.7 1.75-2.7-4.95-1.4-14.5-7.9-8.3" transform="translate(205.55 349.35)"/><path fill-rule="evenodd" fill="url(#U)" d="m-175.45 93.15 7.4-3.85.3.55-2.05 2.65-.45.25-5.2.4" transform="translate(205.55 349.35)"/><path fill-rule="evenodd" fill="url(#V)" d="m-17.35 333.55 4.45-6.4v9l-8.8 12.45 4.65-11.3-.3-3.75" transform="translate(205.55 349.35)"/><path fill-rule="evenodd" fill="url(#W)" d="m-38.95 374.35 8.5-10.7-2.55 10.7h-5.95" transform="translate(205.55 349.35)"/><path fill-rule="evenodd" fill="url(#X)" d="m101.45 29-1.2.05 1.15-.45.05.4" transform="translate(205.55 349.35)"/><path fill-rule="evenodd" fill="#a3a5c9" d="M-6.35-277h.05l-.05.05v-.05" transform="translate(205.55 349.35)"/><path fill-rule="evenodd" fill="#3d4075" d="M408.45 267.25h.15l-.15.05v-.05M64.55 74.5v.05l-.65-.2.65.15" transform="translate(205.55 349.35)"/><path fill-rule="evenodd" fill="#23235c" d="m20.85 171.35.05-.25.75.7q-1.05 1-.8-.45" transform="translate(205.55 349.35)"/><path fill-rule="evenodd" fill="#131230" d="m167.55 166.9-.1-.05.25-.3-.15.35m-46.15 14.95 2-.9.15.4-2.15.5" transform="translate(205.55 349.35)"/><path fill-rule="evenodd" fill="#5d61a0" d="m295.8 75.05-.25-.6.6.45-.35.15" transform="translate(205.55 349.35)"/><path fill-rule="evenodd" fill="#6c6cac" d="m104.95 259.25-1.45 2.1 1.3-2.2.15.1" transform="translate(205.55 349.35)"/><path fill-rule="evenodd" fill="#434776" d="m-181.75 93.15.15.4-.3-.2.15-.2" transform="translate(205.55 349.35)"/><path fill-rule="evenodd" fill="#777cb0" d="M1.2 112.65h.05-.05" transform="translate(205.55 349.35)"/><path fill-rule="evenodd" fill="#9c9dc6" d="m6.05 109.85.35-.1-.3.3-.05-.2" transform="translate(205.55 349.35)"/><path fill-rule="evenodd" fill="url(#Y)" d="M-28.7-77.55v-.15l.05.15h-.05" transform="translate(205.55 349.35)"/><path fill-rule="evenodd" fill-opacity=".361" fill="#fff" d="m-90.75-100.05-1.7-2.15q-7.45-50.35 14-120.5l16.5-31.55 48.55-22.25 7.05-.5v.05l-14.55 18.3h-.05l-37.8 7.4-5.6 7.2-1.2 2.05-1.25 2.3q-9.3 17.25-15.95 42-11.15 49.35-8 97.65m245.5-241.3q-39.1-7.25-75.7 5.55l-1.25.45q-32.1 11.8-69.05 32.7l10.05 1.4 21.25 6.9-15.15 13.3-36.3-2.6-9.85 2.75 21.8-20.3q9.75-5.95 19-11.15 86.85-48.8 130.55-32.4l4.65 3.4M-52.9 170.6q-9.75-21.15 1.8-47.4 3.5-7.95 8.35-15.05l10.35-9.3 1.8.2 5.9.8 1.2.2q6.55 1.1 13.3 2.75 6.2 1.55 12.6 3.6-.75 3.05-1.2 6.25v.05l-.15.85.2-.9q1.9-8.3 5.25-12.95-5.55 11.2-.45 10.15l.05.2q-3.2 3-5.6 8.3L1 114q-2.45-1.95-7.05-4.75 6.8 6.45 0 7.5l-2.35.2 1.85.4q-18.05 20.05-14 43.95-8 4.6-18.1 7.4l-14.25 1.9" transform="translate(205.55 349.35)"/><path fill-rule="evenodd" fill-opacity=".251" fill="#fff" d="m-6.35-276.95 10.15 1.2-12.55 17.15-12.15.1v-.15l14.55-18.3" transform="translate(205.55 349.35)"/><path fill-rule="evenodd" fill-opacity=".141" fill="#fff" d="m3.8-275.75.35-.45 29.95 4.05 8.65 2.7q8.15 2.65 17.7 8.8L46-242.8l-30.35-12.55-25.05-2.45.65-.8L3.8-275.75m148.1 27.5 6.5 7.65-16.8 6.25Q123.9-247.7 104.9-258q-18.55-10.05-38.35-17.2l19.35-3.9q19.85 3.3 36.6 11.25 16.15 7.65 29.4 19.6m154.6 483.2q13.1-7.95 31-13.8l1.3-.45 12.05-1.4 1.9 2.9q-13.4 1.3-29.15 13.5l-.2.1-50.45 29.2-9.4 15.3 3.4 9.6-4.2.15-6.3-9.8-7.75-6.5-13.25-.9q41.5-12.95 63.95-31.7l5.25-4.75 1.85-1.45m-15.05-187.5-52.3 16.15-8.5 7.05-10.2 12.4q3.45 1.1 11.2-1.85l-.8 2.05 3.15 2.6q-17.5 5.9-34.3 18.85l-6.4 7.7h-1.65v-9.5l28.8-33.6 1.35-.75q14.7-8.45 25.25-13.6 9.5-4.7 15.55-6.65 4.95-1.65 7.55-1.45h21.5l-.2.6M2.4 106.4Q4.35 98 7.9 90.3q5.35-6.6 12.1-12.5l2.95-2.55Q30.7 68.9 40.8 63.5q16.1 2.7 31 6.75 9.05 2.4 17.45 5.3 3.8 4.3 6.4 8.35Q80 77.4 65.5 74.65l-.9-.15h-.05q-12.65-5.1-22.2-4.65H39.4q-21.95 46 2.2 80.3-24.95 3.8-40.15-11.9l-.95-17.3-.05-1.8v-.5l.05-.3q2.4-5.3 5.6-8.3l.3-.3-.35.1q-5.1 1.05.45-10.15-3.35 4.65-5.25 12.95H1.2q.45-3.2 1.2-6.25" transform="translate(205.55 349.35)"/><path fill-rule="evenodd" fill-opacity=".259" fill="#fff" d="m-16.45-25.65.75 5.5q-38.4-34.55-75.05-79.9-3.15-48.3 8-97.65 6.65-24.75 15.95-42l.85.5 1.1-.25 4.25-1q-13.95 22.1-20.45 51.6l-.2 1-.2 1q-8.45 42-6.35 84 30.75 44.95 71.35 77.2" transform="translate(205.55 349.35)"/><path fill-rule="evenodd" fill-opacity=".141" d="M283.2-222.25q40.1 66.2 51.75 133.15l-.15 1.35-1.05 4.75Q320.85-27.1 262 33.65l-1.7-3.45q48.7-59.85 55-87l1.6-2.5.05-.35q19.8-44.45-14.9-116.9l-18.85-45.7m-189.05 17.5-7.8-6.85-9.05-6.05-4.2-2.55-.95-.6-.2-.1q-.95-1.25-1.1-2.45l-1.4 1q-6.5-3.75-13.6-7.25l-10.7-5.05-1.8-.8q-13.1-5.8-28.1-11.05l-4.9-1.7h-37.8l-33.15 7.75-4.25 1 3.1-4.75 37.25-8.25 32.65.55 1.4.35q26.4 7.35 43.3 16l.75.25q9.55 3.85 18.45 8.85Q84.6-219.4 95.9-210l.6.5.2.2q25.2 20.4 47.6 51.1-5.65-3.9-15.7-13.9l-1.8-1.85q-10.2-10.5-24.3-23.3l-8.35-7.5m318.55 477.7.2-7.4-20.2-41.7-73.9-85.35h-.05L295.8 75.05l.35-.15 25.5 62.5.05.05 72 83.45 21.45 45.05v19.5l-4.6 4.3-3.9 3.35 5.7-8.3.35-11.85M302.1 144.7l.45 1.5 51.75 52.45-30.6 25.3q-9.55 5-17.2 11l-1.85 1.45-5.25 4.75 3.75-6.7 6.5-11.55 9.9-8.8q8.2-7.05 14.6-11.55-25 13.85-32.2 13.4l-31-33.35-1.85-3.75-.5-1-.3-7.55 8.2-10.9 23.4-13.9 2.2-.8m69.2 128.4 15.8 2.3q9.3 3.25-1.6 8.15-28.55 17.95-70.4 34.35-32.4 4.35-58.9-.85l-6.4-1.4-3.65-.95 2.8-9.9 3.3 2.8.85-8.5-5.05-14.05 10.8 13.05-1.2 8.8 24.6 4.7.35-.1q54.95-9.6 95.85-34.2l-7.15-4.2M225.65 158.15q-3 3.9-6.6 7.8-7.15-10.1-10.25-11.6l12.6-4.8 2-7 2.25 15.6m-8.8 10.1v5.7l-2.05 3.25-4.7-6.6 1.2-7.7q2.95 2.45 5.55 5.35M206.7 190.9l-3.05 5.4-5.95-3.8 5.1-6.9 3.9 5.3M-205 169.2q-.35-9.85 3-18.2l2-5.95 6.25-21.2 3.3-11.35.4-1.25 1.65-19.1 4.6-8.55-.45 3.45 2.5 6.1-.15.2-5.65 9.45-.5 9.9 15.4-14.95-1.1 7-.25 1.65-.05.15q-1.25 8.45-1.95 17-1.75 20.7-.4 41.4l8.4 8.9-11.2-9.6-2.7-36.5q-13.6 11.9-23.1 41.45" transform="translate(205.55 349.35)"/><path fill-rule="evenodd" fill="url(#Z)" d="M139.15-185.1q-14.95-24.55-41-50.15-17.25-16.95-39.3-34.35 22.8 11.9 41.6 23.5 68.45 42.1 84.15 80.05l14.45-4.55q-1.3-23.3-11.6-46.6 23.2 16.5 35.4 34.65 8.7-2.65 18.85-16.05 22.6-35.05 10.95-68.55 16.9 22.4 30.55 44.9l18.85 45.7q34.7 72.45 14.9 116.9l-.05.35-1.6 2.5q-7.3 5.45-17.15 9.45-4 1.6-8.35 3-6.25 1.95-13.35 3.45 2.95-21 .85-43.95 43.55-44.15 11.9-30.5l-.15-.35q12.9-59.8-11.9 3.55v.05l-2.95 5.4-3.7 5.5-.95 1.3q-6.5 8.55-17.25 19.5l-3.3 3.2-29.45 7.75L216.3-79l-14.55 14.25-21.45 5.6L187-75.1l5.6-7.1q4.5-14.7 4.95-21.8.6-10.65-7.95-4.2l-28 50-1.8-10.75-3.65 14.6L145.3-38l-22.15 23.65q13.75-48.25 10.8-99.85l-39.8-90.55 8.35 7.5q36.1 36.55 44.2 58.9l5.85-1q-3.5-11.35-23.95-32.75 10.05 10 15.7 13.9 9.75 6.75 6-5.1 7.5 18.15 8.65 35.75l.85 2.5 1.8 42 3.3-6.35q10.95-22.25 14.65-46.5l-34.1-41.5-6.3-7.7m77.05 98.05v1.25l-.1 3.9q13.55-27.5 7.05-58.95l-.5-2.45q-6-31.9-23.8-50.9 4.15 11.5 7.3 23.3l.25 1q10.4 39.4 9.8 82.85" transform="translate(205.55 349.35)"/><path fill-rule="evenodd" fill="url(#aa)" d="M133.9-274.9q15.75 9.75 23.2 23.75-13.15-9.8-25.45-16.5l-1.4-.8-.6-.3q-19.7-10.45-37.2-13 21.4-6.45 40.1 6l1.35.85" transform="translate(205.55 349.35)"/><path fill-rule="evenodd" fill="url(#ab)" d="M260.3 30.2q-2.55-5.4-4.9-11.55Q271.9-8.8 276.45-40.9q7.1-1.5 13.35-3.45 4.35-1.4 8.35-3 9.85-4 17.15-9.45-6.3 27.15-55 87" transform="translate(205.55 349.35)"/><path fill-rule="evenodd" fill="url(#ac)" d="m207.25 112.95-7.6-.55q15.75-14.75 39.45-26.95 3.75 7.3-3.45 16l.15-5.05q-12.65 6.8-24.55 17.75l-4-1.2" transform="translate(205.55 349.35)"/><path fill-rule="evenodd" fill="url(#ad)" d="M408.6 267.25h-.15v-.75l-1.45-8.75-5.8-8.6q3 10.5-29.95 21.05 28.35 2 37.2-2.9l-.55 18.35-36.75 25.5-.55.2q-57.05 22.1-112.95 21.75l-.3.05-28.65 6.25-25 8.7-11.8-5.1-20 3.35-4.75-2.45-14.5-14.5q2-6.7 11.75-4l6.5-.35q7.45-4.15 11.5 1.5l-.3 2.5 15.2 14.05 1.85.8 13.85-2.95 7-7h6.1l16-33.25q-2-11.5-5.2-19.25l-.15-.4-2.2-4.55 3.35 1.5 7.5 21.7-.45 4-4.75 9.2 5.95 1.8 3.65.95-7.4 16.05-8.4 5.25 12.4-3.05 9.05-11.4.75-5.45q26.5 5.2 58.9.85 41.85-16.4 70.4-34.35 10.9-4.9 1.6-8.15l-15.8-2.3-12.45-1.85q23.1-12.45 31.5-31.55l-1.85-14.2-10.3-9.2-32.25-1.55-.15-.25q-12.1 4.15-22.1 9.45l30.6-25.3-51.75-52.45-.45-1.5-19.2-63-10.65-6.5-38.55 3 11.05-11.6 43.9-11.85-2 5.15-1.1 2.1-39.15 8.75-5.3 5.9 45-4.75q-1.45-2.75-1.45-5.45l10.9 8 .25.6 22.95 63.45h.05l73.9 85.35 20.2 41.7-.2 7.4-4.1-5.7" transform="translate(205.55 349.35)"/><path fill-rule="evenodd" fill="url(#ae)" d="m108.55 254-3.6 5.25-.15-.1 1.15-5.9-5.15 3.8.6-14.55 4.6-3.55 3.1.1-.55 14.95" transform="translate(205.55 349.35)"/><path fill-rule="evenodd" fill="url(#af)" d="m64.6 74.5-.05.05v-.05h.05" transform="translate(205.55 349.35)"/><path fill-rule="evenodd" fill="url(#ag)" d="M65.5 74.65v.2l-.95-.3.05-.05.9.15" transform="translate(205.55 349.35)"/><path fill-rule="evenodd" fill="url(#ah)" d="M-45.2 182.5q-3.65-4.1-6.35-9.2l-1.35-2.7 14.25-1.9q10.1-2.8 18.1-7.4 13.75-7.95 21.4-21.95 6.6 24.3 20 32-.25 1.45.8.45-7.35 18.35-31.4 24.15l-.95.2q-15.55 2.15-34.5-13.65" transform="translate(205.55 349.35)"/><path fill-rule="evenodd" fill="url(#ai)" d="M89.25 75.55q25.5 8.75 44.4 21.6 8.2 5.6 15.2 12 6.65 5.65 13.55 10.45 5.3 3.65 10.75 6.8l5.1 2.8.25.1 5.7-.95-7.7 3.2-13-6-12-7.15-23.25-18.85-7.75-1.4-.75 3.15 8.4 7.5 4.1 19-4 24-23.45 21.55q-42.85 19.85-83.15-1.55l-.75-.7-.05.25q-13.4-7.7-20-32l.6-1.1q15.2 15.7 40.15 11.9 15-2.35 33.5-11.65 17.85-11.55 24.45-31.55 2.45-6.05.7-12.9-11.2-11.85-34.75-19.2v-.2Q80 77.4 95.65 83.9q-2.6-4.05-6.4-8.35" transform="translate(205.55 349.35)"/><path fill-rule="evenodd" fill="url(#aj)" d="m-181.6 93.55 11.35-.8.15.15-2.55 3.25.25.2-.25 1.4-15.4 14.95.5-9.9 5.65-9.45.3.2" transform="translate(205.55 349.35)"/><path fill-rule="evenodd" fill="url(#ak)" d="m-168 173.85 8.8 9.3 13.6 6.2h2.65q3.5-1.6 6.7-3.9l.5.7-3.85 4.6-18 4-22-14.4-1-7.1q-2.4-16.9-3.15-28.95l-1.65 17.65.6 7.9 2.95 23-.05.35q1.15 3.9 2.9 8.15l19.35 11.05 6.7-2.7 2.7 2.8-7 5.2-14.2-.9q4.2 7.45 9.85 15.8 28.45 42.15 92.85 105.35l-4.3 9.2q-52.15-52.1-102.2-114.55l-9.9-12.45q-14.25-21.7-18.3-39.4-1.4-6-1.55-11.55 9.5-29.55 23.1-41.45l2.7 36.5 11.2 9.6" transform="translate(205.55 349.35)"/><path fill-rule="evenodd" fill="url(#al)" d="M-122.15 206.3q13.45 13.75 27.9 26.3 28.4 24.75 60.6 44.85l3.1 1.9.25.2-2.15 2.9q-73.2-47.1-91.5-74.6l1.8-1.55" transform="translate(205.55 349.35)"/><path fill-rule="evenodd" fill="url(#am)" d="m214.8 177.2-2.65 4.05-2.95-5.15.9-5.5 4.7 6.6" transform="translate(205.55 349.35)"/><path fill-rule="evenodd" fill="url(#an)" d="m212.15 181.25-4.2 7.4-3.25-5.6 4.35-5.8.15-1.15 2.95 5.15" transform="translate(205.55 349.35)"/><path fill-rule="evenodd" fill="url(#ao)" d="m203.65 196.3-1.75 3.1-6.6-3.65 2.4-3.25 5.95 3.8" transform="translate(205.55 349.35)"/><path fill-rule="evenodd" fill="url(#ap)" d="m207.95 188.65-1.25 2.25-3.9-5.3 1.9-2.55 3.25 5.6" transform="translate(205.55 349.35)"/><path fill-rule="evenodd" fill="url(#aq)" d="m206.4-169.9-.25-1q-3.15-11.8-7.3-23.3 17.8 19 23.8 50.9l.5 2.45q6.5 31.45-7.05 58.95l.1-3.9v-1.25q7.15-57.65-9.8-82.85" transform="translate(205.55 349.35)"/><path fill-rule="evenodd" fill="url(#ar)" d="m145.45-177.4 34.1 41.5q-3.7 24.25-14.65 46.5l1-30.9-6.95-34.35-13.5-22.75" transform="translate(205.55 349.35)"/><path fill-rule="evenodd" fill="url(#as)" d="M102.5-197.25q14.1 12.8 24.3 23.3l1.8 1.85q20.45 21.4 23.95 32.75l-5.85 1q-8.1-22.35-44.2-58.9" transform="translate(205.55 349.35)"/><path fill-rule="evenodd" fill="url(#at)" d="m255.4 18.65-2.25-6.3-.2-1.15q-1.45-7.7-3.9-15.25-3-9.2-7.5-18.25 3.35-8.75 5.3-17.45 1.9-8.7 2.45-17.3l-5.35 2 .25-7.6 13.9-11.6 11.45-25.65.95-1.3 3.7-5.5 2.95-5.4v-.05q24.8-63.35 11.9-3.55l-.1.45.25-.1q31.65-13.65-11.9 30.5 2.1 22.95-.85 43.95-4.55 32.1-21.05 59.55" transform="translate(205.55 349.35)"/><path fill-rule="evenodd" fill="url(#au)" d="M203.2-49.95q-18.45-3.3-38.1 7.3-3.55 4.65-6.55 10.2L130.1-12.3l29.2-31.2 22.45-42.4q8.7-14.1 15.8-18.1-.45 7.1-4.95 21.8l-5.6 7.1-6.7 15.95 21.45-5.6L216.3-79l3.25 9.55L249-77.2q-23.5 22.65-45.8 27.25" transform="translate(205.55 349.35)"/><path fill-rule="evenodd" fill="url(#av)" d="M235.65 101.45q-2.4 2.9-6 5.95l-12 14.5q-.85-4.05-4-6.35l-2.4-1.4q11.9-10.95 24.55-17.75l-.15 5.05" transform="translate(205.55 349.35)"/><path fill-rule="evenodd" fill="url(#aw)" d="M284.65 66.45q0 2.7 1.45 5.45l-45 4.75 5.3-5.9L285.55 62q-.95 2.2-.9 4.45" transform="translate(205.55 349.35)"/><path fill-rule="evenodd" fill="url(#ax)" d="M303.15 234.45q-6.95-9.1-13.35-18.95l11.3 6.95 18.45-8.35-9.9 8.8-6.5 11.55" transform="translate(205.55 349.35)"/><path fill-rule="evenodd" fill="url(#ay)" d="M289.8 215.5q-10.1-15.5-18.85-32.9l31 33.35q7.2.45 32.2-13.4-6.4 4.5-14.6 11.55l-18.45 8.35-11.3-6.95" transform="translate(205.55 349.35)"/><path fill-rule="evenodd" fill="url(#az)" d="M408.45 267.3q-8.85 4.9-37.2 2.9 32.95-10.55 29.95-21.05l5.8 8.6 1.45 8.75v.8" transform="translate(205.55 349.35)"/><path fill-rule="evenodd" fill="url(#aA)" d="m408.6 267.25 4.1 5.7-.35 11.85-5.7 8.3q-50.85 41.95-152.05 45.35l-13.15 2.7-1.85.35-30.6 8.85-5.3-2.25 25-8.7 28.65-6.25.3-.05q55.9.35 112.95-21.75l.55-.2 36.75-25.5.55-18.35.15-.05" transform="translate(205.55 349.35)"/><path fill-rule="evenodd" fill="url(#aB)" d="m256.2 317.05-.75 5.45-9.05 11.4-12.4 3.05 8.4-5.25 7.4-16.05 6.4 1.4" transform="translate(205.55 349.35)"/><path fill-rule="evenodd" fill="url(#aC)" d="M182.4 326.55q-4.05-5.65-11.5-1.5l-6.5.35q-9.75-2.7-11.75 4l-12.45-12.45 4.5-2.55 4.4 3.55 18-3.5 4-9.5 8 5.5 5.65-3.05-2.35 19.15" transform="translate(205.55 349.35)"/><path fill-rule="evenodd" fill="url(#aD)" d="m109.1 239.05 6.6.1 5.25-3.25-12.4 18.1.55-14.95" transform="translate(205.55 349.35)"/><path fill-rule="evenodd" fill="url(#aE)" d="m195.3 195.75-14.15-7.85h-.45l-10.9-6.55h-46.25q15.3-3.45 33.7-8.3l4.2-5.6 2.15-10.95-7.25 10.05-32.95 14.4-2 .9-1.7.35-7.5 1.6-31.05 9.45-1.2 4.95-30.25 4.35-2.45.05-2.35.5q-10.7-5.3-29.4-5.6l-.55.1q-9.7 1.95-19.35 1.65l-1.9-.1-4.4-.4-2.2-.25-.45-.1q-20.45-3.05-31.85-15.9 18.95 15.8 34.5 13.65l.95-.2q24.05-5.8 31.4-24.15 11.1 9.6 25.8 12.85l3.75.7q7.4 8.3 50.35.55l48.3-23.6 9.65-14-5.8-27.3 9.8 4.55 13 6 7.7-3.2 18.2-3 1.1-.95 19.9 18.15-2 7-12.6 4.8q-11.45-5.55-22.85-3.45 9 2.05 16.3 5.95 4.9 2.6 9.05 6.05l-1.2 7.7-3-4.2-24.4-6.8-17.7-.65-1.45 5.7-.05.05 4.2 1.85-.25.3.1.05 34.2 11.05 2.95 5.1-1.9 2.55-2.9-3.95-30.3-9.45-8.25.6 13.75 5.2 22.6 14.5-2.4 3.25m-29.7-53 1.35-6.95-5.4-8.75 4.05 15.7" transform="translate(205.55 349.35)"/><path fill-rule="evenodd" fill="url(#aF)" d="m44.9 203.1-8.3 1.8-4.9 1.15-6.7 1.65-9.2 2.05-10.85 1.75-8.25 5.85-2.2-4.35 2.75-7.85-3.55-6 1.9.1q9.65.3 19.35-1.65l.55-.1q18.7.3 29.4 5.6m-29.7 1.3-2.6-2.9-12.1 3 14.7-.1" transform="translate(205.55 349.35)"/><path fill-rule="evenodd" fill="url(#aG)" d="M180.7 187.9h-35.1l-39.05 6.2-.4.4-26.2 3.7 1.2-4.95 31.05-9.45 7.5-1.6 1.7-.35 2.15-.5h46.25l10.9 6.55" transform="translate(205.55 349.35)"/><path fill-rule="evenodd" fill="url(#aH)" d="m167.7 166.55-4.2-1.85.05-.05 1.45-5.7 17.7.65 24.4 6.8 3 4.2-.9 5.5-1.25-2.25-36.95-11.9-3.3 4.6" transform="translate(205.55 349.35)"/><path fill-rule="evenodd" fill="url(#aI)" d="M197.7 192.5 175.1 178l-13.75-5.2 8.25-.6 30.3 9.45 2.9 3.95-5.1 6.9" transform="translate(205.55 349.35)"/><path fill-rule="evenodd" fill="url(#aJ)" d="M225.35 135.85q5.35 2.6 10.25 5.7-3.7 8.35-9.95 16.6l-2.25-15.6 1.95-6.7" transform="translate(205.55 349.35)"/><path fill-rule="evenodd" fill="url(#aK)" d="m163.5 125.55-9.8-4.55 5.8 27.3-9.65 14-48.3 23.6q-42.95 7.75-50.35-.55l-3.75-.7q-14.7-3.25-25.8-12.85 40.3 21.4 83.15 1.55l23.45-21.55 4-24-4.1-19-8.4-7.5.75-3.15 7.75 1.4 23.25 18.85 12 7.15" transform="translate(205.55 349.35)"/><path fill-rule="evenodd" fill="url(#aL)" d="m-130.2 194.35 1.6 1.8-1.2 2.15-5 8.85-12.3 10 14.25-1.8 8.9-7.5q18.3 27.5 91.5 74.6l-27.95 37.5-8.35 18q-64.4-63.2-92.85-105.35-5.65-8.35-9.85-15.8l14.2.9 7-5.2-2.7-2.8-6.7 2.7-19.35-11.05q-1.75-4.25-2.9-8.15l.05-.35.6-9.75 1.85 6.9 24.1 18.35 16.85-6.25 8.25-7.75" transform="translate(205.55 349.35)"/><path fill-rule="evenodd" fill="url(#aM)" d="m-181.85 192.85-2.95-23-.6-7.9 1.65-17.65q.75 12.05 3.15 28.95l-.65 9.85-.6 9.75" transform="translate(205.55 349.35)"/><path fill-rule="evenodd" fill="url(#aN)" d="M122.95 6.75 98.6 18.85l-11.4 4v-10.6l7.65-5.3 7.55-4.4-4.3 9.8 5.75-6.1 17.4-12.35 1.7 12.85" transform="translate(205.55 349.35)"/><path fill-rule="evenodd" fill="url(#aO)" d="M-27.45-248.2q-17.75 28.8-22.45 59.25-.5 5-.5 9.85-.05 6.35.7 12.45l.1.75 1.45 18.2 3.35 1.15 1.25 3.2q1.8 4.35 4.1 8.55 3.15 5.85 5.65 11.25l.15.35Q-26-106.55-26.2-104l-2.25 23.85-.6 1v1.6l-.05 4.3.4-4.3h.05q1.95 8.1 3.75 12.75l1.35 3.1 1.6 6.75q3.5 15.35 5.5 29.3-40.6-32.25-71.35-77.2-2.1-42 6.35-84l.2-1 .2-1q6.5-29.5 20.45-51.6l33.15-7.75" transform="translate(205.55 349.35)"/><path fill-rule="evenodd" fill="url(#aP)" d="m241.55-22.3-5.4-9.85q-5.25-4.85-10.55-8.4L221-43.4q-8.75-4.95-17.8-6.55 22.3-4.6 45.8-27.25l3.3-3.2q10.75-10.95 17.25-19.5L258.1-74.25l-13.9 11.6-.25 7.6 5.35-2q-.55 8.6-2.45 17.3-1.95 8.7-5.3 17.45" transform="translate(205.55 349.35)"/><path fill-rule="evenodd" fill="url(#aQ)" d="m150.3-163.3-4.5-9.85q-3-5.95-6.65-11.95l6.3 7.7 13.5 22.75 6.95 34.35-1 30.9-3.3 6.35-1.8-42-.85-2.5q-1.15-17.6-8.65-35.75" transform="translate(205.55 349.35)"/><path fill-rule="evenodd" fill="url(#aR)" d="M216.2-87.05q.6-43.45-9.8-82.85 16.95 25.2 9.8 82.85" transform="translate(205.55 349.35)"/><path fill-rule="evenodd" fill="url(#aS)" d="M158.55-32.45q-6.2 11.4-10.1 26.55l-25.5 12.65-1.7-12.85-17.4 12.35 19.3-20.6L145.3-38l12.3-13.15 4-7.05 28-50q8.55-6.45 7.95 4.2-7.1 4-15.8 18.1L159.3-43.5l-29.2 31.2 28.45-20.15" transform="translate(205.55 349.35)"/><path fill-rule="evenodd" fill="url(#aT)" d="m-135.75 186.15 2.05 4.3 3.5 3.9-8.25 7.75-16.85 6.25-24.1-18.35-1.85-6.9.65-9.85 1 7.1 22 14.4 18-4 3.85-4.6" transform="translate(205.55 349.35)"/><path fill-rule="evenodd" fill="url(#aU)" d="m-129.8 198.3 7.65 8-1.8 1.55-8.9 7.5-14.25 1.8 12.3-10 5-8.85" transform="translate(205.55 349.35)"/><path fill-rule="evenodd" fill="url(#aV)" d="m123.4 180.95 32.95-14.4 7.25-10.05-2.15 10.95-4.2 5.6q-18.4 4.85-33.7 8.3l-.15-.4" transform="translate(205.55 349.35)"/><path fill-rule="evenodd" fill="url(#aW)" d="m167.7 166.55 3.3-4.6 36.95 11.9 1.25 2.25-.15 1.15-4.35 5.8-2.95-5.1-34.2-11.05.15-.35" transform="translate(205.55 349.35)"/><path fill-rule="evenodd" fill="url(#aX)" d="m219.05 165.95-2.2 2.3q-2.6-2.9-5.55-5.35-4.15-3.45-9.05-6.05-7.3-3.9-16.3-5.95 11.4-2.1 22.85 3.45 3.1 1.5 10.25 11.6" transform="translate(205.55 349.35)"/><path fill-rule="evenodd" fill="url(#aY)" d="m165.6 142.75-4.05-15.7 5.4 8.75-1.35 6.95" transform="translate(205.55 349.35)"/><path fill-rule="evenodd" fill="url(#aZ)" d="M217.65 121.9v10.5q3.95 1.6 7.7 3.45l-1.95 6.7-19.9-18.15 10.15-8.85q3.15 2.3 4 6.35" transform="translate(205.55 349.35)"/><path fill-rule="evenodd" fill-opacity=".851" fill="#11111b" d="m-3.3 217.35-3.35 2.3-2.8-5.05 5.05-9.45h-3.7l-.1-.2-4.7-6.45 2.2.25 4.4.4 3.55 6L-5.5 213l2.2 4.35m176.45-90.95 3.05.1 20.45-3.4 10.6-10.15 4 1.2 2.4 1.4-10.15 8.85-1.1.95-18.2 3-5.7.95-.25-.1-5.1-2.8M103.5 261.35l-3.1 5.15.4-9.45 5.15-3.8-1.15 5.9-1.3 2.2M15.2 204.4l-14.7.1 12.1-3 2.6 2.9" transform="translate(205.55 349.35)"/><path fill-rule="evenodd" fill-opacity=".612" fill="#321" d="m161.6-58.2-4 7.05L145.3-38l10.85-16.35 3.65-14.6 1.8 10.75" transform="translate(205.55 349.35)"/><path stroke-opacity=".651" stroke-linejoin="round" stroke-linecap="round" stroke="#0b0a33" fill="none" d="m203.65 196.3-1.75 3.1" transform="translate(205.55 349.35)"/><path fill-rule="evenodd" fill-opacity=".42" fill="#fff" d="m-19.05 20.5 4.25-32.45 3.85-22.2-3.6-20.5v-7.45l1-.5 11.2 28.85-10.05 37.2.5 12.9-7.15 4.15m-3.6-111 4.5-.5-7.9 13.1 4.15 11.85-3 1.25q-1.8-4.7-3.8-12.9l.25-2.45 5.8-10.35" transform="translate(205.55 349.35)"/><path fill-rule="evenodd" fill-opacity=".412" d="M89-125q1.25 31.45-1.9 62.85l9.45-10L94.75-56l16.15-13 3.95-7.6-.5 30.9-3.6 19-13.3 24.6L85.7 2.25 36.8 8.7l-19.05 2.5-17.7 2.3-12 6.5.15 2.45L-.4 26.9l-3.25.7q-2.85-.1-15.8-4.25l.4-2.85 7.15-4.15 14.75-8.5 46.4-4.15 7.55-26.15q7-47.35 3.65-96.2l-41.95 7.7 55.1-22.2 14.95-1 .3 5.45-14.65.3-17.8 6.9q21.65-4.3 32.6-3.5" transform="translate(205.55 349.35)"/><path fill-rule="evenodd" fill-opacity=".659" d="M88.85-128.7 89-125q-10.95-.8-32.6 3.5l17.8-6.9 14.65-.3M36.8 8.7l.05 9-17.65 4.6-1.45-11.1L36.8 8.7" transform="translate(205.55 349.35)"/><path fill-rule="evenodd" fill-opacity=".839" d="M19.2 22.3.05 26.8l-.45.1-11.4-4.45-.15-2.45 12-6.5 17.7-2.3 1.45 11.1" transform="translate(205.55 349.35)"/><path fill-rule="evenodd" fill-opacity=".251" d="m-14.55-54.65-4.7-20.15 4.1-12.9 1.3.3 15.4 3.35-16.1 17.8v11.6" transform="translate(205.55 349.35)"/><path fill-rule="evenodd" fill-opacity=".31" d="m-13.85-87.4.95-3.15 21.7 6.5-22.35 21.45-1-2.65v-1l16.1-17.8-15.4-3.35" transform="translate(205.55 349.35)"/><path stroke-width=".3" stroke-opacity=".2" stroke-linejoin="round" stroke-linecap="round" stroke="#0e0933" fill="none" d="m395 38.55 2.5 1.15m-5.75 1.1 2.8 1.8m9.8-6.5-4.7 4.6 3.5 1.65m-3.5-1.65-3.45 2.95 3 1.9M355.7 57.3l2.25 1.7q5.35-3.05 9.9-3.7l1.4-.1q14.25-1.45 26.95-11.55m-92.5 70.45-5.9.95-5.45 1.05q-13.05 2.8-14.75 6.8-1.35 1.5-1.2 3.1.15 1.2 1.1 2.45l.2.1M275 127l1.4-1m83.1-65.85 2.3 1.65m-11.3-1.7 3.1 1.75 4.35-2.85m-2.4 3.95 2.6 1.45M335.8 80.9l-.6-.3q-3.75-1.05-7.15.9-9.8 3.3-17.6 9.85-2.85 2.4-4.2 4.65l3.5.9m27.45-15.2 2.25-7.25q7.6-7.95 14.15-12.6M304.3 96.7q-.3-.6.3-.75m1.65.05-.45.75-.5 1.15-.05.05 2.3 2m-7.8 16.75 3.1 2.7m-4.45 1.35-4.2-3.25m-.85-6.3 4.45 3.85m7.45-17.1q-.95 2.85.75 5.3 4.85 6.5-2.3 10.85m-11.35 2-7.2-5.55"/><path stroke-opacity=".651" stroke-linejoin="round" stroke-linecap="round" stroke="#0b0a33" fill="none" d="m-.4 26.9-3.25.7q-2.85-.1-15.8-4.25l4.65-35.3-.9-8.2q-38.4-34.55-75.05-79.9l-1.7-2.15q-7.45-50.35 14-120.5l16.5-31.55 24.1-11.25 38.4-35.7q9.75-5.95 19-11.15 86.85-48.8 130.55-32.4l4.65 3.4q20.8 15.05 44.05 28.1 13.95 7.9 28.8 15.05 13.3 15.5 25.05 31.05 16.9 22.4 30.55 44.9 40.1 66.2 51.75 133.15l.05.35-.2 1-1.05 4.75Q320.85-27.1 262 33.65q3.85 7.5 8.15 13.2h21.5l-5 13.05-1.1 2.1q-.95 2.2-.9 4.45l11.5 8.45 25.5 62.5.05.05 72 83.45 21.45 45.05v19.5l-4.6 4.3-3.9 3.35q-50.85 41.95-152.05 45.35l-13.15 2.7-1.85.35-30.6 8.85-17.1-7.35-20 3.35-4.75-2.45H167l-5.9 30.45H-85.7l-1.3 2.8M29.15-236.7q15.35 12 22.05 23.85l-1.6-6.7-1.1-4.1-1.3-4.6-3.85-7.2q-13.1-5.8-28.1-11.05 7.65 4.9 13.9 9.8m43 15.9.95.6 4.2 2.55 9.05 6.05 5 3.7m-48-27.55 1.8.8 10.7 5.05q7.1 3.5 13.6 7.25m-24.3-12.3 2.05 6.4m4 15.4q3.65 16.25 6.65 40.7l2.5 22.85.35 3.55 2.5-9.85q.65-22.25-2.2-44.85-1.1-8.35-2.6-16.7l-.2-.95-2.35-11.5m-121.8-9.6 5.35-1.25 33.15-7.75h37.8l4.9 1.7m71.1 34.9 7.8 6.85 8.35 7.5q14.1 12.8 24.3 23.3l1.8 1.85q20.45 21.4 23.95 32.75l.6 2.7m-55-98.6q26.05 25.6 41 50.15 3.65 6 6.65 11.95l4.5 9.85q7.5 18.15 8.65 35.75l.15 4.4m-81.8-94.5 5.7 11.6 7.4 15.85 5.8 13.25q7.85 18.7 14.35 37.4l1.05 2.95.25.85 3.8 11.6-1.6 95.1-8.25 23.7-.05.15-3.35 7.75-4.3 9.8 3.85-4.05 1.9-2.05 53.75-57.4 32-57.05q8.55-6.45 7.95 4.2-.45 7.1-4.95 21.8l-7.5 9.5M98.15-235.25Q80.9-252.2 58.85-269.6M83-206.05l6.35 56.6-1.3 7.85.5 7.45.3 5.45.15 3.7q1.25 31.45-1.9 62.85l16-16.75m1 0 7.75-38.25v-18.6M62.6-196l1.05 3.5q2.45 8.4 3.95 18.55l4.5-4.25 1-42M25-139.15h.75m-69.5-7.05.2 2.85q1.8 4.35 4.1 8.55 3.15 5.85 5.65 11.25l.15.35Q-26-106.55-26.2-104l7-2.65q30.8-14.45 60.9-24.7l21.5-7 24.85-3.25m-100.8 162 12.8-6.9L36.8 8.7l14-1.85 34.9-4.6L97.45-2.1l.45-.15 7.8-3.05.1-.05M101.95 8.3l.3 8.75 46.2-22.95q3.9-15.15 10.1-26.55L143.9-22.1l3.7-1.8m122.9-77.3 3.7-5.5 2.95-5.4m-7.6 12.2q-6.5 8.55-17.25 19.5l-3.3 3.2q-23.5 22.65-45.8 27.25 9.05 1.6 17.8 6.55l4.6 2.85q5.3 3.55 10.55 8.4l5.4 9.85q4.5 9.05 7.5 18.25 2.45 7.55 3.9 15.25l.2 1.15 2.25 6.3q2.35 6.15 4.9 11.55l1.7 3.45m-103.45-66.1q3-5.55 6.55-10.2 19.65-10.6 38.1-7.3M61-200.45l1.4 3.85m298.3 406.5q-7.8 2.1-14.9 4.6-12.1 4.15-22.1 9.45-9.55 5-17.2 11l-1.85 1.45-5.25 4.75q-22.45 18.75-63.95 31.7l-2.65.8 1.75 2.85 2.2 4.55m31.85-103.2.5 1 1.85 3.75q8.75 17.4 18.85 32.9 6.4 9.85 13.35 18.95l6.5-11.55 9.9-8.8q8.2-7.05 14.6-11.55 2.95-2.1 5.5-3.65M208.7 82.95l11.75-13.65 1.35-.75q14.7-8.45 25.25-13.6 9.5-4.7 15.55-6.65 4.95-1.65 7.55-1.45m14.5 19.6q0 2.7 1.45 5.45l.55 1M148.45-5.9q-1.3 4.95-2.35 10.35l-1.05 5.8-.15.9-1.3 9.7.2 1q1.35 6.1 3.6 12.1 2.55 6.95 6.3 13.8 4.05 7.4 9.55 14.65l.4.45m-63.6-30.5-18.45.8q-5 .95-9.85 2.6Q55.9 41 41.8 53.2l-3.45 3.15-.3.25q-5.8 5.55-10.35 11.65-2.6 3.4-4.75 7Q30.7 68.9 40.1 63.4q16.8 2.8 31.7 6.85 9.05 2.4 17.45 5.3 25.5 8.75 44.4 21.6 8.2 5.6 15.2 12 6.65 5.65 13.55 10.45 5.3 3.65 10.75 6.8l3.05.1 20.45-3.4 10.6-10.15-7.6-.55h-8v-9.5l2.5-6.05-19.55-21.5m-1.45 51.05 5.1 2.8.25.1 23.9-3.95 11.25-9.8-2.4-1.4-4-1.2m-27.6 36.7 6.3 1.25q9 2.05 16.3 5.95 4.9 2.6 9.05 6.05 2.95 2.45 5.55 5.35l2.2-2.3q3.6-3.9 6.6-7.8 6.25-8.25 9.95-16.6-4.9-3.1-10.25-5.7-3.75-1.85-7.7-3.45v-10.5q-.85-4.05-4-6.35m25.45-30.1q3.75 7.3-3.45 16-2.4 2.9-6 5.95l-12 14.5M15.5 200.75l-17.6 4.4h-2.3l-5.05 9.45 2.8 5.05 11.6-8.15 10.85-1.75 9.2-2.05 6.7-1.65 4.9-1.15 10.65-2.3 2.45-.05 56.45-8.05.05-.05.1-.1.25-.25 39.05-6.2h43.55m-8 0 18.35 10.15 2.4 1.35 10.25-18.15 4.7-7.3v-5.7m-25.2-65.35 16.7-19.55m27.25 58.2q21.6 13.7 33 36.3M102.4 2.55l-7.55 4.4L84 14.45l-.7 3.15-1.35 7.1 16.65-5.85 3.65-1.8M85.7 2.25l2.9-.4m-13.1 29.3-1.25.5-2.7 3.5m-75.95 170h-3.7l-.1-.2-4.7-6.45-.45-.1q-20.45-3.05-31.85-15.9-3.65-4.1-6.35-9.2l-1.35-2.7q-9.75-21.15 1.8-47.4 3.5-7.95 8.35-15.05l10.35-9.3 1.8.2q12.05-16.8 32-28.7Q14.6 62.4 27.8 58.8l.55-.15 13.15-15.1q16.35-10 32.75-11.9l4.3-5.75 3.4-1.2m1.35-7.1-22.2-7.05-10.3-3.7m-14 1.85.05 9-17.65 4.6L.05 26.8m28.3 31.85q4.85-1.3 9.7-2.05m-61.55 43.45q6.55 1.1 13.3 2.75 6.2 1.55 12.6 3.6Q4.35 98 7.9 90.3q5.35-6.6 12.1-12.5l2.95-2.55M1 114l.05-.45.15-.85q.45-3.2 1.2-6.3M.45 118.65.3 120.9M1 114l-.5 4.35m15 79.15q15.9-3.3 31.95-12.85-14.75-3.25-25.8-12.85l-.75-.7-4.75-4.7-1.45-1.65-2.2-2.75-1.15-1.6m108.35 21.8-7.5 1.6-10.65 2.1q-42.95 7.75-50.35-.55l-3.75-.7m79.9-28.3q-3.95 4.35-8.6 8.4-24.95 21.55-55.4 21.55l-12.15-.95m70.2-3.5 2.15-.5q15.3-3.45 33.7-8.3l1.05-.3M167 343.9l-25.3-.45-55.65-15.5-16-23.5v-4.25q-9.4-8-9.6-17.4-.1-1.65.15-3.35 18.35-15.95 35.8-34.4l1.95-2.1h2.45l.6-.45 4.6-3.55 9.7.2 5.25-3.25 4.65-2.95 20.1 2.6q1.9-1.85 5.55-4.55 4.25-3.15 7.85-4.05 4.7 1.65 8.35 3.45 3.55 1.7 6.15 3.55l2.4-.95 7.9-13.3 15.6-21.65m-98.7 44.9h.55l.05-.45m5.05 8.15-1.65 8.5-1.3 2.2 4.75-6.95m-38.2 45.8v-11.75l12.5-9.5 7.55 4.25h24.5l-.9-8.35 1.8-3.15q6.2-10.45 18.35-23.8l3.6-8.25M90.1 283.2l7.5 4.25m16.2 3.7-4.2.6m-12.2 0-4.6 10.4 4.4 5.6 10.8 1.2 7.8-12-1.4-5.2m-31.35 22.2 7.05 8 20-1.5 6.95-7.8 7.55-11.2-1.9-4.3-6.1-13.95h-2m-11.1-21.85-3.1 5.15-9.3 15.45m31.6 15.2 22 17.25 4.4 3.55 10.1-1.95 7.9-1.55 4-9.5-25.5-17.5v-8.5q2.65-7.35 6.15-14.15l2.2-4.2 8.65-14.65v-7.25m-62.2 27.8.95-23.55m7.2 11.05 12.4-18.1m31.3 103.7 3.3.6 11.45 3.7m-49.95-31.25 15.05 5.8 8.1-1.5 4.5-2.55m154.7-73.25 3.75-6.7m-70.35 39.2q-16.4-23.5-39.7-46.2l-1-1L176 233m18.6 19.65-.1 2.05v.8q-.6 9.8-2.9 15.7l7.05 8.25-3.7 22.4-10.2 5.55-2.65 21.65 15.2 14.05 1.85.8 13.85-2.95 7-7h-6.9m-24.5-33v-5.5l-6-15.3-9.25 5.35m18.25-14.3q-1.95 5.15-3.45 6.85-1.95 2.2-5.55 2.1m54.3 1.3q3.2 7.75 5.2 19.25l-16 33.25H220m-48.9-29 8 5.5 5.65-3.05m12.55 35.7-5.55-2.55-4.15.6 4.3 1.85m-.15-2.45-20.15-9.6-2-16m-2.45 28.95-26.95-26.95m29.2 17.4L159.2 316M103.85 6.25 143.9-22.1m-46 19.85-3.05 9.2M-12.9-276.5h-.5l-24.45 11m10.4 17.3q-17.75 28.8-22.45 59.25-.5 5-.5 9.85-.05 6.35.7 12.45l.1.75 1.45 18.2 3.35 1.15 1.05.35m-1.05-.35 1.25 3.2M-28.7-77.7l.25-2.45-.6 1 .35 1.45q2 8.2 3.8 12.9l1.35 3.1 1.6 6.75q3.5 15.35 5.5 29.3l.75 5.5M-26.2-104l-2.25 23.85 6.35-11.3m-6.6 13.75-.4 4.45-.2 1.8m14.5 59.5 3.85-22.2-3.6-20.5v-18.5m-14.55-.1.05-5.9m-52-109.7q6.5-29.5 20.45-51.6m-72 308.2q.65 1.95-3.6 7.75 3.75 4.95 12.5 4.1l7.05-.9 3.15-3.8.3-.35 1.9-3.15 2.1-3.55-5.15-8.25-21.55-9.35-9.5.1-3 3q-5.8 5.5-13.3 11.15l-21.75 16.3-.35 2.8-.45 3.45 2.65 6.5 11.35-.8.45-.25 2.05-2.65 19.05-7.1 6-.75q5.35-4.9 6.5-6.5m-6.5 6.5 19-2.4m10.5-5.05 4.25 7.75 4.5 9.8-.05.25q-2.1 6.65-6.95 11.95h3.5q3.05 2.95 4.75 5.9 1.3 2.3 1.75 4.65l-3.8 9.75 7.15.15q6.3-5.2 8.6-11.2l-6.4-16.2v-20q-5.85-5.15-11.3-6-2.2-.3-4.1.05m-5.35 7.3 3.2-.4 4.5 4m4.85 19.65h7.2l2.8 9.2m-11.15 13.45-1.7 4.25-3.1.8 5.05 3.85 3.45 8.2-7.95 14.05-6.1 4.4-2.75 3.55-4.1 9.15-1.45 1.35-8.05 7.75-1.7 1.5-2.1 2.7 2.05 4.3 5.1 5.7-1.2 2.15 7.65 8q13.45 13.75 27.9 26.3 28.4 24.75 60.6 44.85l3.1 1.9.25.2.15-.85 19.1-28.55 4.4-30.5m-111.7-55.95q-2.6 3.6-6.85 7.05l-2.25 1.7m11.85-12.3-3.55 2.35q-8.45 5-17.15 5.75l-1.45-.45m-36.3-61.25q-1.25 8.45-1.95 17-1.75 20.7-.4 41.4l17.2 18.2 13.6 6.2h2.65q3.5-1.6 6.7-3.9l.1-.05 2.5-1.95m-50.35-43.5.25 4.35q.75 12.05 3.15 28.95l1 7.1 22 14.4 18-4 3.85-4.6-.4-.75m26.1-55.75q-14.9 8.15-33.35 11.7m-9.05-29.5 41-7.55m80.85-5.25 5.9.8M-183.8 83.6l-4.6 8.55-1.65 19.1-.4 1.25-3.3 11.35-6.25 21.2 13.7-27.9m13.9-20.8-.25 1.4-1.1 7m1.1-8.6 2.85-3.65m-5.2 7.55-1.2 1.1-1.3 2.1m-3.9 6.1-.5.8m-2.15 3.4-.25.4m14.05-21.2-15.2 8.4v2.25m99.75 270.95 12.65-27.2q-52.15-52.1-102.2-114.55l-9.9-12.45q-14.25-21.7-18.3-39.4-1.4-6-1.55-11.55-.35-9.85 3-18.2l2-5.95M14.95 197.6q-9.7 1.95-19.35 1.65l-1.9-.1-4.4-.4-2.2-.25m-17.4 81.05-30.1 40.4-12.65 27.2M-129.8 198.3l-5 8.85-16 13m137.9 103.4v13.6m0-10-5.6 8m-5.6 16.8 11.2-15.8m-143.8-224.6-7.8 3.8m2.05 69.5q8.4 4.05 16.85 4.5" transform="translate(205.55 349.35)"/><path stroke-width="2.5" stroke-linejoin="round" stroke-linecap="round" stroke="#53503e" fill="none" d="m191.15 194.65 6.75 4 3-4.25 7.5-26 6.2-9.55q8.55-16.65 18.05-27.95l8-6.25m-78.85 78.5 2.85 1 16.5 8.25.2-5.8"/><path stroke-width="2" stroke-opacity=".651" stroke-linejoin="round" stroke-linecap="round" stroke="#0b0a33" fill="none" d="m231.3 210.2 1.5-.5"/><path stroke-width=".3" stroke-opacity=".302" stroke-linejoin="round" stroke-linecap="round" stroke="#131230" fill="none" d="M452.4 309.6q9.35 3.7 29.6-1.15 7.1-1.5 13.35-3.45l.65-6.8m6.7 8.05 1-4.25q-4 1.6-8.35 3l-.15 1.5m9.1-7.3-.6 2.8q9.85-4 17.15-9.45 5.65-4.25 9.75-9.3.55-3.45-.6-6.15m.6 6.15q6.05-7.5 8.7-16.9m-8.7 16.9q-.45 2.85-2.05 6.25"/><path stroke-width=".3" stroke-opacity=".502" stroke-linejoin="round" stroke-linecap="round" stroke="#3d4075" fill="none" d="m206.05 467.7-.05.3"/><path stroke-opacity=".502" stroke-linejoin="round" stroke-linecap="round" stroke="#605f7a" fill="none" d="m50.7 261.55-20-29.6v-8" transform="translate(205.55 349.35)"/><path stroke-width=".5" stroke-opacity=".502" stroke-linejoin="round" stroke-linecap="round" stroke="#605f7a" fill="none" d="m12.95 551.25.25-2.4-4.8-5.5-6.3-13.25m28.4 29.15-.1 2.4 1.3.25.05-1.1m22.1-.5-7.35 4.05-14.8-2.45-.15 2.9m-1.35.25.2-3.4-7-1.15-8.55-9.8-.2 2.45m.4-5.25-.2 2.8-1.65-1.85.4-4.2"/><path stroke-width=".3" stroke-opacity=".2" stroke-linejoin="round" stroke-linecap="round" stroke="#000" fill="none" d="m496.35 495.85 2.05 3.2 7.05-4.2 21.8-8.05m-53.1 40.4-.3-7.55 8.2-10.9 14.85-8.8-1.8-3.65m-23.5 15.45 4.15 2.3 1.35-2.15-2.95-7.2m7.45 14.6 1.45 1.95m-3.85-5.2 1.55 2.1m18.7-17.5 2.75 4.25m-4.3-2.95 1.5 3.05m-1-5.95-1.5.9m-284.85-50.9q-3.5 4.85-5.45 13.85m5.35-3.8q2.1-1.9 4.55-2.85m-31.95 7.45-6.35-.9m27.85 4.9q-3.05-.15-8.9-1.4l-4.4-1m13.8-1.95q-2.45-1.95-7.05-4.75l-6.05-3.55m-4.5 9.75-2.85-.75"/><path fill-rule="evenodd" fill="#719a9f" d="M48.6-178.85q2.45 2.65 4.15 5.25-7.45-2-13.8-2.5 4.2-2.75 9.25-3 .15.15.4.25" transform="translate(205.55 349.35)"/><path fill-rule="evenodd" fill="#bacfc9" d="M38.95-176.1q6.35.5 13.8 2.5l2.1 3.8q-.5 4.45-2 8.35l-1.05-1.85q-1.5-1.55-3.7-1.55-2.25 0-3.9 1.55-1.7 1.6-1.85 3.8-.15 2.2 1.3 3.8 1.45 1.55 3.7 1.55l1.75-.25q-2.05 2.8-4.8 5.3-3.6 3.25-8.45 5.8l-.1-.05-2.2-2.15q-5.05-5.8-4.45-13.9.6-8.15 6.5-13.95 1.6-1.6 3.35-2.75m4.8 11.95 1.15-1.2q.05-5-4.7-8.4l-2.3 1.7q.7 4.3 5.85 7.9m-2.6 7.9q-7-1.9-8.9 4.35l2.25 3.75q5-1.1 7.75-6.4l-1.1-1.7" transform="translate(205.55 349.35)"/><path fill-rule="evenodd" d="M52.85-161.45q-1.45 3.75-3.75 7.05l-1.75.25q-2.25 0-3.7-1.55-1.45-1.6-1.3-3.8.15-2.2 1.85-3.8 1.65-1.55 3.9-1.55 2.2 0 3.7 1.55l1.05 1.85" transform="translate(205.55 349.35)"/><path fill-rule="evenodd" fill="#87ada2" d="M43.75-164.15q-5.15-3.6-5.85-7.9l2.3-1.7q4.75 3.4 4.7 8.4l-1.15 1.2m-2.6 7.9 1.1 1.7q-2.75 5.3-7.75 6.4l-2.25-3.75q1.9-6.25 8.9-4.35" transform="translate(205.55 349.35)"/><path fill-rule="evenodd" fill="#c8d7db" d="M48.2-179.1q-5.05.25-9.25 3-33.8-6.25-33.85 24.75-1.75-2.45-3.05-5.35l-.1-.55q-2.65-21.4 13.5-28.7 16.2-7.3 32.75 6.85" transform="translate(205.55 349.35)"/><path fill-rule="evenodd" fill="#f4f7f7" d="m35.85-143.3-.3.15q-3.7 1.9-8.05 3.4l-.25.1-7.3-.8q-9.35-3-14.85-10.9.05-31 33.85-24.75-1.75 1.15-3.35 2.75-5.9 5.8-6.5 13.95-.6 8.1 4.45 13.9l2.2 2.15.1.05" transform="translate(205.55 349.35)"/><path stroke-width="4.75" stroke-linejoin="round" stroke-linecap="round" stroke="#000" fill="none" d="M254.15 170.5q-.25-.1-.4-.25M207.5 192.1q-2.65-21.4 13.5-28.7 16.2-7.3 32.75 6.85"/><path stroke-width="2" stroke-linejoin="round" stroke-linecap="round" stroke="#000" fill="none" d="M260.4 179.55q-.5 4.45-2 8.35-1.45 3.75-3.75 7.05-2.05 2.8-4.8 5.3-3.6 3.25-8.45 5.8l-.3.15q-3.7 1.9-8.05 3.4"/><path stroke-width="2.75" stroke-linejoin="round" stroke-linecap="round" stroke="#000" fill="none" d="M253.75 170.25q-5.05.25-9.25 3m-3.1 32.8-.1-.05-2.2-2.15q-5.05-5.8-4.45-13.9.6-8.15 6.5-13.95 1.6-1.6 3.35-2.75"/><path fill-rule="evenodd" fill="#c8d7db" d="m-33.35-138.35 2.65 1.05 5.55 5.1q-1 9.2-.6 13.9.3 4.5 2.6 8.1-3.9-.3-5.25-3.8l-.1-.2-4.3-11.75-1.65-5q-.5-4.8 1.1-7.4" transform="translate(205.55 349.35)"/><path fill-rule="evenodd" d="m-18.6-121.6 1.25 6.85v3.75l-1.1-.7q-2.6-2.05-1.9-6.75l1.75-3.15m-16-8.35-2.05-4.95q-1.2-2.1.55-4.55v.05l2.75 1.05q-1.6 2.6-1.1 7.4l-.15 1" transform="translate(205.55 349.35)"/><path fill-rule="evenodd" fill="#87ada2" d="m-25.15-132.2 5.05 6.05 1.5 4.55-1.75 3.15q-.7 4.7 1.9 6.75l1.1.7-5.75.9-.05-.1q-2.3-3.6-2.6-8.1-.4-4.7.6-13.9" transform="translate(205.55 349.35)"/><path stroke-width="3.25" stroke-linejoin="round" stroke-linecap="round" stroke="#000" fill="none" d="m172.2 211 2.65 1.05 5.55 5.1 5.05 6.05 1.5 4.55m-17.5-17.85-3.75.8m3.75-.8v.05l2.75 1.05"/><path stroke-linejoin="round" stroke-linecap="round" stroke="#000" fill="none" d="m-18.6-121.6 1.25 6.85v3.75m-15.45-14.95.05.2-1.85-4.2-2.05-4.95q-1.2-2.1.55-4.55m2.75 1.1q-1.6 2.6-1.1 7.4l1.65 5m-1.65-5-.15 1" transform="translate(205.55 349.35)"/><path stroke-width="2" stroke-linejoin="round" stroke-linecap="round" stroke="#000" fill="none" d="m188.2 238.35-5.75.9-.05-.1q-3.9-.3-5.25-3.8l-.1-.2m3.35-18q-1 9.2-.6 13.9.3 4.5 2.6 8.1"/></g><g id="bj" stroke-opacity="0" stroke-linejoin="round" stroke-linecap="round" stroke="#f0f" fill="none"><path d="M187.95-293.5v380h-380v-380h380M92.95.6H-97" transform="translate(192.55 294)"/><path d="m187.95-293.5-190 190 190 190m-380-380 190 190L-192 86.5" transform="translate(192.55 294)"/></g></defs><path fill="none" d="M-1-1h298v346H-1z"/><use x="180.781" y="325.164" xlink:href="#ba" width="40.3" transform="translate(-13.57 -235.91) scale(.8242)" height="19.4"/><use x="320.43" y="576.344" xlink:href="#bb" width="627.2" transform="matrix(.465 0 0 .465 -147.234 -265.608)" height="730.2"/><use x="-15.22" y="18.901" xlink:href="#bc" width="2.65" transform="rotate(-67.916 -158.416 50.228) scale(12.6359)" height="1.55"/><use x="320.43" y="576.344" xlink:href="#bd" width="143.55" transform="matrix(.465 0 0 .465 -63.617 -167.593)" height="169.2"/><use x="320.43" y="576.344" xlink:href="#be" width="620.2" transform="matrix(.465 0 0 .465 -145.61 -263.955)" height="699.2"/><use x="320.43" y="576.344" xlink:href="#bf" width="454.4" transform="matrix(.465 0 0 .465 -135.958 -217.194)" height="622.55"/><use x="320.43" y="576.344" xlink:href="#bg" width="621.2" transform="matrix(.465 0 0 .465 -145.84 -264.212)" height="727"/><use x="-35.357" y="-4.637" xlink:href="#bh" width="57.8" transform="matrix(.414 -.0327 .0781 .465 198.55 153.2)" height="52.4"/><use x="320.43" y="576.344" xlink:href="#bi" width="74.75" transform="matrix(.465 0 0 .465 -64.34 -181.737)" height="50.3"/><use x="149" y="268" xlink:href="#bj" width="381" transform="translate(-192.55 -294)" height="381"/><use x="-8.3" y="-.605" xlink:href="#bk" width="102.95" transform="matrix(1.8072 0 0 1.6538 22 73.05)" height="45"/></svg>