<svg width="238" height="280" xmlns="http://www.w3.org/2000/svg" xmlns:xlink="http://www.w3.org/1999/xlink"><defs><linearGradient y2=".444" y1=".444" x2="1" x1="0" spreadMethod="pad" id="g"><stop stop-opacity=".392" stop-color="#fff" offset="0"/><stop stop-opacity="0" stop-color="#fff" offset="1"/></linearGradient><linearGradient y2=".493" y1=".493" x2="1.014" x1="-.012" spreadMethod="pad" id="h"><stop stop-opacity=".502" stop-color="#fff" offset=".016"/><stop stop-opacity="0" stop-color="#fff" offset=".627"/></linearGradient><linearGradient y2=".867" y1=".384" x2=".516" x1=".499" spreadMethod="pad" id="i"><stop stop-opacity=".733" offset="0"/><stop stop-opacity=".412" offset="1"/></linearGradient><linearGradient y2=".389" y1=".757" x2="1.022" x1=".42" spreadMethod="pad" id="j"><stop stop-opacity=".502" stop-color="#2d0f0f" offset="0"/><stop stop-opacity=".722" stop-color="#2e0e0e" offset="1"/></linearGradient><linearGradient y2=".529" y1=".48" x2=".155" x1=".48" spreadMethod="pad" id="k"><stop stop-opacity=".502" stop-color="#2d0f0f" offset="0"/><stop stop-opacity=".722" stop-color="#2e0e0e" offset="1"/></linearGradient><linearGradient y2="-.663" y1=".784" x2="1.923" x1=".575" spreadMethod="pad" id="l"><stop stop-opacity=".502" stop-color="#2d0f0f" offset="0"/><stop stop-opacity=".722" stop-color="#2e0e0e" offset="1"/></linearGradient><linearGradient y2=".209" y1=".673" x2=".53" x1=".456" spreadMethod="pad" id="m"><stop stop-opacity=".502" stop-color="#2d0f0f" offset="0"/><stop stop-opacity=".722" stop-color="#2e0e0e" offset="1"/></linearGradient><linearGradient y2=".037" y1=".777" x2=".683" x1=".244" spreadMethod="pad" id="n"><stop stop-opacity=".502" stop-color="#2d0f0f" offset="0"/><stop stop-opacity=".722" stop-color="#2e0e0e" offset="1"/></linearGradient><linearGradient y2=".032" y1=".476" x2=".445" x1=".509" spreadMethod="pad" id="o"><stop stop-opacity=".231" stop-color="#2d0f0f" offset="0"/><stop stop-opacity=".443" stop-color="#2e0e0e" offset="1"/></linearGradient><radialGradient spreadMethod="pad" r="819.2" id="d" gradientUnits="userSpaceOnUse" gradientTransform="translate(35.85 -13.2) scale(.1403)" cy="0" cx="0"><stop stop-color="#66482b" offset=".18"/><stop stop-color="#976f3e" offset=".651"/></radialGradient><radialGradient spreadMethod="pad" r="819.2" id="e" gradientUnits="userSpaceOnUse" gradientTransform="translate(2.5 32.9) scale(.0662)" cy="0" cx="0"><stop stop-color="#66482b" offset=".18"/><stop stop-color="#976f3e" offset=".651"/></radialGradient><radialGradient spreadMethod="pad" r="819.2" id="f" gradientUnits="userSpaceOnUse" gradientTransform="translate(30.05 4.95) scale(.0865)" cy="0" cx="0"><stop stop-color="#7b5837" offset=".18"/><stop stop-color="#b48852" offset=".651"/></radialGradient><radialGradient spreadMethod="pad" r="819.2" id="p" gradientUnits="userSpaceOnUse" gradientTransform="matrix(.0168 0 0 .0237 -64.9 -21.15)" cy="0" cx="0"><stop stop-opacity=".753" stop-color="#402d1a" offset=".569"/><stop stop-opacity="0" stop-color="#402d1a" offset="1"/></radialGradient><radialGradient spreadMethod="pad" r="819.2" id="q" gradientUnits="userSpaceOnUse" gradientTransform="matrix(.019 0 0 .0152 -2.2 1.2)" cy="0" cx="0"><stop stop-opacity=".753" stop-color="#402d1a" offset=".569"/><stop stop-opacity="0" stop-color="#402d1a" offset="1"/></radialGradient><path stroke-width="5" stroke-linejoin="round" stroke-linecap="round" stroke="#2b353c" fill="none" d="M219.15 30.85q-44.9 37.2-80.1 86.95-4.15 5.85-2.15 13.2 2.1 7.95 11.45 17.7l-9.3 8.85.1.8q.9 6.8-.9 13.4l-81.55 10.2q-22.65 1.7-45.3 0l-3.9.45q-9.8 1.7-.3 7.85l24.9 15.7q17.8 10.5 77.1 20.55l13.15 2.15 14.25 2.9q2.5 8.85 2.55 17.3 0 4.8-.8 9.5-.6 3.3-1.55 6.55l-.15.6q-.4 11.7 23.8 25.6l16.2 9.25q-1.7.8-3.15 1.65l-.35.2-24.7 6.25q-4.85 1.25-10.45 4.1l-1.15.6q-6.85 3.55-14.8 9.3l-6.95 7.05-5.9 5.3q-13.95 11.85-29.75 19.05-6.15 7.4-8.3 20.5-2.9 17.4 1.25 44.85 5.15 10.5 10.95 19l-34.85 77h201.6q8-53.35 6.8-108.25l-.6-16.15v-.1l7.9-16q5.3-13.65-13.05-50.5l-3.25-2.95q2.45-14.25-10.35-24.15l-13.35-5.15.4-1.15q6.05-2.7 11.1-5.85 9.25-5.8 15-13.15 2.45-3.1 4.25-6.45 6-12.9 11.95-19l32.6-1.7 50.7-3.65 7.15-.65q30.35-2.8 51.9-6.25l9.5-1.6 9-1.8q19.8-5.05 1.75-8.45l-1.5-.3-9.25-1.25-.4-.05-9.1-2.05q-33.95-8.2-67.4-22.25-29.65-9-65.9-16.95-9.4-16.55-10.55-33.95l-9.2-7.95q7.2-22.1 5-25.45-8.85-13.65-7.4-25.55l11.15-22.75q1.3-4.1-1.9-12.7 13.3-10.1 22.75-20.2l.05-.05L300.4 7.6q11.05-11.4-54.45 2.8-13.85 9.7-26.8 20.45z" id="r"/><path fill-rule="evenodd" fill="#ecb115" d="m95.45-143.25.2.4q2.95 5.1 6.65 10.2 3.65 2.55 2.75 5.3-1.2 3.65-10.65 7.65l-8.3 2.1-.35.1-1.3.3q-16.7 3.75-33.45 5l-1.25.1-3 .2q-39.75 2.2-80-9.75l-.65-.2-5-1.55-7.7-2.6-1.5-.55-1.5-.55-2.3-6.05 2.1-2.5q3.15-4.05 5.2-8.15 1.6-3.35 2.55-6.7 1.65-6 1.05-12.2l-.15-1.2-.1-.8 9.3-8.85-.95 7.45 2.1.75q43.3 14.8 94.55-3.95l9.85-3.9 2.3-11.55 9.2 7.95q1.15 17.15 10.35 33.55m-179.9 274.6q6 6.05 12.55 10.35l.8.5 3.7 2.2q8.45-5.65 14.6-16.8l2.9 9.8q1.85 5.7 3.75 9.8l1.25 2.65q3.35 6.4 6.75 7.7l10.45-5.9q7.6-4.1 14.95-7.4l-3.7 40.5q-18.8-10-41.35-31.9l-47.5 5.95 17.85-23.5.05-.05 2.95-3.9" transform="translate(105.3 184.75)" id="a"/><path fill-rule="evenodd" fill="#516dce" d="m45.75-54.1.35-.1 8.3-2.1q9.45-4 10.65-7.65.9-2.75-2.75-5.3-3.7-5.1-6.65-10.2 36.25 7.95 65.9 16.95l6.7 2.75q32.1 12.9 64.65 20.4l5.15 1.15 9.65 1.3-.25.75 1.75-.45q5.3 1 7.35 2.15 4.9 2.75-9.1 6.3-38 8.2-117.65 13.3l-2.1.1-8.5.55-32.6 1.7-39.45-1.7-9-.8-19.55-2.2-17.85-2.45q-18.4-2.75-39.15-6.6l-5.25-1.05-14.3-2.9-13.15-2.15q-59.3-10.05-77.1-20.55l-24.9-15.7q-7.5-4.85-3-6.9l3.3-.95 3.9-.45 2.05.15q21.6 1.45 43.25-.15l81.55-10.2q-.95 3.35-2.55 6.7-2.05 4.1-5.2 8.15l-2.1 2.5 2.3 6.05 1.5.55 1.5.55 7.7 2.6 5 1.55.65.2Q-33-46.3 6.75-48.5l3-.2 1.25-.1q16.75-1.25 33.45-5l1.3-.3m2.4-157.9-5.4 4.2q3.2 8.6 1.9 12.7L33.5-172.35q-.55 4.65.45 9.55 1.25 6.2 5 12.75l1.95 3.25q2.2 3.35-5 25.45l-2.3 11.55q-4.95 2.1-9.85 3.9-51.25 18.75-94.55 3.95l-2.1-.75.95-7.45q-7.5-7.8-10.35-14.45l-1.1-3.25q-2-7.35 2.15-13.2 45.4-64.2 106.9-107.4 65.5-14.2 54.45-2.8l-14.55 23.2q-7.45 8-17.4 16.05M9 42.95l-.05-.25q-.75-2.9-6.85-4.55l1.8-5.05 13.35 5.15q12.8 9.9 10.35 24.15l3.25 2.95.4.85q17.9 36.15 12.65 49.65l-7.9 16v.1l.05 1.4.4 10.05v.75q1.65 56.9-6.65 112.2h-201.6l34.85-77q-5.8-8.5-10.95-19l-1.35-10.3q-2.25-20.55.1-34.55 2.15-13.1 8.3-20.5 3.65-1.7 7.2-3.6 11.85-6.35 22.55-15.45l5.9-5.3 6.95-7.05q7.95-5.75 14.8-9.3l1.15-.6q5.6-2.85 10.45-4.1l24.7-6.25.35-.2 3.15-1.65 2.5.6q-7.45 7.75-2.4 11.95l1.75 1.15q1.4 3 .2 6.05l-.2.4-4.75 6.1-1 3.65-7.8-3.45q-1.25.95-1.9 1.95l-.65 1.65-.05 1.15q3.05 1.6 6.15 3.15l-5.5 2.55-5.55-2.35-2.35 4.6 4.35 1.9-2 1.9-.8.2.15.45-.05.05h.05l4.8-1.65 2.35 1 4.75-3.65-2.85-1.25 4.3-2.9 4.65 2.4q3.5-1.3 5.15-3.3l.7-.95-6-2.65 3.85-1.25-.05-3q.1-1.65.6-3.05v-.05q.5-1.55 1.4-2.85 2.05-2.9 6.15-4.5l9.75-.3 2.3-.35 4.3-.9q7.9-2.05 17.2-6.3 4.3-2.05 8.9-4.55.45-1.15.25-2.15m-76.7 172.1-10.45 5.9q-3.4-1.3-6.75-7.7l-1.25-2.65q-1.9-4.1-3.75-9.8l-2.9-9.8q-6.15 11.15-14.6 16.8l-3.7-2.2-.8-.5q-6.55-4.3-12.55-10.35l-2.95 3.9-.05.05-17.85 23.5 47.5-5.95q22.55 21.9 41.35 31.9l3.7-40.5q-7.35 3.3-14.95 7.4m12.5-110.2.15.2-.1-.2h-.05" transform="translate(217.8 256.35)" id="b"/><path fill-rule="evenodd" fill-opacity="0" fill="#f0f" d="M0 0h102.95v45H0V0" id="c"/><use xlink:href="#a" width="210.55" height="369.5" id="s"/><use xlink:href="#b" width="435.6" height="512.7" id="t"/><use xlink:href="#c" width="102.95" height="45" id="x"/><g id="u"><path fill-rule="evenodd" fill="#263584" d="m-57.1 78.8-.15-.45.8-.2-.65.65" transform="translate(211.75 263)"/><path fill-rule="evenodd" fill="#d1a065" d="M4.55-21.3q.2 2.15-.05 4.1l-18.45-3.2-6.8 2.9.05-.4q-.05-1.6-.85-2.7l-.8-.7q3.6-1.4 7.35-2.2l19.55 2.2m-31.6 2 1.2-.55q-.45.85-.4 1.95-.05 1.45.65 2.45L-29.05-14q-.5-1.95-.45-4.1l2.45-1.2M-70-25.95q.6-1.5 1.6-3l3.85 4.65.1.1.3.35q-.4.85-.4 1.95 0 1.55.85 2.6.8 1.1 1.95 1.1.65 0 1.2-.35l1.7 2.9.55-.6 2.1-2.15q0 1.85-.5 3.25l-.8 1.55-2.9.25q-4.3-7.55-9.6-12.6" transform="translate(211.75 263)"/><path fill-rule="evenodd" fill="url(#d)" d="M4.5-17.2q.25-1.95.05-4.1l9 .8L53-18.8q-5.95 6.1-11.95 19-1.8 3.35-4.25 6.45-1.15-2.35-2.7-4.75-10.4 3.4-21.2 6.3l-.95.25Q-44.5.75-61.8-5.15q-4.75-1.65-6.55-3.1l-6.35-8q0-8.45-2.55-17.35l5.25 1.05q20.75 3.85 39.15 6.6L-15-23.5q-3.75.8-7.35 2.2l-3.5 1.45-1.2.55.05-1.1-6.1.6h-.05l-.1 3.8 4.65 3.5.95 2.1L-26-8.1q6.7 6.2 17.45 3.95Q3.25-8.05 4.5-17.2m-68.65-6.65-.3-.35-.1-.1-3.85-4.65q-1 1.5-1.6 3-2.75 6.65 1.6 13.8 1.95 2.9 7.1 1.25 1-.35 1.8-.8 1.25-.75 2-1.9l.8-1.55 3.95-1.95-1.2-2.35-4.25.25-.1 2.95-.55.6-1.7-2.9-.15-.25-.05-.05q-1.55-2.55-3.4-5" transform="translate(211.75 263)"/><path fill-rule="evenodd" fill="#8491db" d="m214.1-43.2 1.5.3-1.75.45.25-.75" transform="translate(211.75 263)"/><path fill-rule="evenodd" fill="#291c0c" d="m-22.35-21.3.8.7q.8 1.1.85 2.7l-.05.4q-.1 1.25-.8 2.15-.85 1.1-1.95 1.15-1.15-.05-2-1.15l-.1-.1q-.7-1-.65-2.45-.05-1.1.4-1.95l3.5-1.45m-38.2 2.75q-.55.35-1.2.35-1.15 0-1.95-1.1-.85-1.05-.85-2.6 0-1.1.4-1.95 1.85 2.45 3.4 5l.05.05.15.25" transform="translate(211.75 263)"/><path fill-rule="evenodd" fill="#a57b48" d="M-39.55 18.3Q-69.5 6.7-75.5-6.75q.8-4.7.8-9.5l6.35 8q1.8 1.45 6.55 3.1 17.3 5.9 73.75 13.6-24.6 6.4-51.5 9.85" transform="translate(211.75 263)"/><path fill-rule="evenodd" fill="#dfbc93" d="m-20.75-17.5 6.8-2.9L4.5-17.2Q3.25-8.05-8.55-4.15-19.3-1.9-26-8.1l-1.65-2.3-.95-2.1-.45-1.5 3.45-1.45.1.1q.85 1.1 2 1.15 1.1-.05 1.95-1.15.7-.9.8-2.15M-70-25.95q5.3 5.05 9.6 12.6l2.9-.25q-.75 1.15-2 1.9-.8.45-1.8.8-5.15 1.65-7.1-1.25-4.35-7.15-1.6-13.8" transform="translate(211.75 263)"/><path fill-rule="evenodd" fill="#66482b" d="m-28.6-12.5-4.65-3.5.1-3.8h.05l6.1-.6-.05 1.1-2.45 1.2q-.05 2.15.45 4.1l.45 1.5m-28.1-2.65q.5-1.4.5-3.25l-2.1 2.15.1-2.95 4.25-.25 1.2 2.35-3.95 1.95" transform="translate(211.75 263)"/><path fill-rule="evenodd" fill="url(#e)" d="m10.3 26.8-1.8 5.05q-3.5 9.1-2.25 11.5-9.3 4.25-17.2 6.3l-4.3.9-2.3.35-9.75.3q-4.1 1.6-6.15 4.5-.9 1.3-1.4 2.85v.05q-.5 1.4-.6 3.05l.05 3-3.85 1.25-1.9-.8 1-3.65 4.75-6.1.2-.4q1.2-3.05-.2-6.05l-1.75-1.15q3.2-5.4 11.5-6.05.9-2.7 1.05-5.2 13.55-.7 31.45-9.2l3.85-1.65-.4 1.15m-40.75 23.9q3.35-4.7 4.8-9-1.45 4.3-4.8 9" transform="translate(211.75 263)"/><path fill-rule="evenodd" fill="#0c1727" d="M8.5 31.85q6.1 1.65 6.85 4.55l.05.25q.2 1-.25 2.15l-8.9 4.55Q5 40.95 8.5 31.85M-43.75 70.4l-4.3 2.9-2.65-1.1-.1-.15 2.3-1.05.1-.05 3-1.4q.8.45 1.65.85m-8.55 6.8-3.05 1.05-1.1-.1 2-1.9 2.15.95m15.15-29.45q-5.05-4.2 2.4-11.95l10.15.7q-.15 2.5-1.05 5.2-8.3.65-11.5 6.05" transform="translate(211.75 263)"/><path fill-rule="evenodd" fill="#c0925a" d="m-34.75 35.8-2.5-.6-16.2-9.25q-24.2-13.9-23.8-25.6 1.1-3.55 1.75-7.1 6 13.45 35.95 25.05 10.3 4 23.5 7.75h.05q17.7 2.2 37.8-6.25-5.05 3.15-11.1 5.85L6.85 27.3q-17.9 8.5-31.45 9.2l-10.15-.7m-7.55-9.05q-3.4-3.3-7.95-3.25 4.55-.05 7.95 3.25m10.15-.7q-12.05-5.8-28-9.25 15.95 3.45 28 9.25" transform="translate(211.75 263)"/><path fill-rule="evenodd" fill="url(#f)" d="m11.95 8.45.95-.25q10.8-2.9 21.2-6.3 1.55 2.4 2.7 4.75-5.75 7.35-15 13.15Q1.7 28.25-16 26.05h-.05q-13.2-3.75-23.5-7.75 26.9-3.45 51.5-9.85" transform="translate(211.75 263)"/><path fill-rule="evenodd" fill="#7b5933" d="m-34.95 67.8 1.7.75-.7.95q-1.65 2-5.15 3.3l-4.65-2.4q-.85-.4-1.65-.85l-6.15-3.15.05-1.15 12.35 5.45 4.2-2.9m-12.25 5.9.15.05 1.85.8-4.75 3.65-2.35-1-2.15-.95-4.35-1.9.65-1.2 8.55 2.8 2.4-2.25" transform="translate(211.75 263)"/><path fill-rule="evenodd" fill="#15264a" d="m-55.35 78.25-1.75.6h-.05l.05-.05.65-.65 1.1.1m4.45-6.15.1-.05.1.15-.2-.1" transform="translate(211.75 263)"/><path fill-rule="evenodd" fill="#b78e4d" d="m-37.9 66.5 2.95 1.3-4.2 2.9-12.35-5.45.65-1.65 10.8 4.95 2.15-2.05m-10.15 6.8.85.4-2.4 2.25-8.55-2.8.5-1.1 5.85 1.9 1.1-1.75 2.65 1.1" transform="translate(211.75 263)"/><path fill-rule="evenodd" fill="#c7a874" d="m-39.25 65.9 1.35.6-2.15 2.05-10.8-4.95q.65-1 1.9-1.95l7.8 3.45 1.9.8m-18.4 6.15 1.2-2.3 5.55 2.35.2.1-1.1 1.75-5.85-1.9" transform="translate(211.75 263)"/><path fill-rule="evenodd" fill="#7380d7" d="m-48.75 98.55.1.2-.15-.2h.05" transform="translate(211.75 263)"/><path stroke-width=".75" stroke-opacity=".651" stroke-linejoin="round" stroke-linecap="round" stroke="#060d1f" fill="none" d="m260.9 48.9 5.4-4.2q9.95-8.05 17.4-16.05l14.55-23.2q11.05-11.4-54.45 2.8-61.5 43.2-106.9 107.4-4.15 5.85-2.15 13.2l1.1 3.25q2.85 6.65 10.35 14.45l-.95 7.45 2.1.75q43.3 14.8 94.55-3.95 4.9-1.8 9.85-3.9l2.3-11.55q7.2-22.1 5-25.45l-1.95-3.25q-3.75-6.55-5-12.75-1-4.9-.45-9.55L262.8 61.6q1.3-4.1-1.9-12.7m-116 149.55q40.25 11.95 80 9.75l3-.2 1.25-.1q16.75-1.25 33.45-5l1.3-.3.35-.1 8.3-2.1q9.45-4 10.65-7.65.9-2.75-2.75-5.3-3.7-5.1-6.65-10.2l-.2-.4q-9.2-16.4-10.35-33.55l-9.2-7.95M216.3 241.7l-19.55-2.2m19.55 2.2 9 .8 39.45 1.7 32.6-1.7 8.5-.55m120-22.15-9.65-1.3-5.15-1.15q-32.55-7.5-64.65-20.4l-6.7-2.75q-29.65-9-65.9-16.95m153.55 42.85-1.5-.3m1.5.3q5.3 1 7.35 2.15 4.9 2.75-9.1 6.3-38 8.2-117.65 13.3m-59.4 27.8q2.45-3.1 4.25-6.45 6-12.9 11.95-19m-31.2 38.6q9.25-5.8 15-13.15m-26.5 20.15-1.8 5.05q6.1 1.65 6.85 4.55m.05.25q.2 1-.25 2.15l-8.9 4.55q-9.3 4.25-17.2 6.3l-4.3.9-2.3.35-9.75.3q-4.1 1.6-6.15 4.5-.9 1.3-1.4 2.85m0 .05q-.5 1.4-.6 3.05l.05 3-3.85 1.25 1.35.6 2.95 1.3 1.7.75-.7.95q-1.65 2-5.15 3.3l-4.65-2.4-4.3 2.9.85.4m.15.05 1.85.8-4.75 3.65-2.35-1-2.15-.95-4.35-1.9.65-1.2.5-1.1 1.2-2.3 5.55 2.35.1-.05 2.3-1.05m-8.6 7.85h-.05l.05-.05.65-.65 2-1.9m6.05-5.3 3-1.4-6.15-3.15.05-1.15.65-1.65q.65-1 1.9-1.95l7.8 3.45 1-3.65 4.75-6.1.2-.4q1.2-3.05-.2-6.05l-1.75-1.15q-5.05-4.2 2.4-11.95l-2.5-.6q-1.7.8-3.15 1.65l-.35.2-24.7 6.25q-4.85 1.25-10.45 4.1m51.3-10.9q13.55-.7 31.45-9.2l3.85-1.65q6.05-2.7 11.1-5.85m-97.3-26.55q-.65 3.55-1.75 7.1-.4 11.7 23.8 25.6l16.2 9.25m47.95-9.55-.4 1.15 13.35 5.15q12.8 9.9 10.35 24.15l3.25 2.95.4.85q17.9 36.15 12.65 49.65l-7.9 16m-33.9-93.7q-3.5 9.1-2.25 11.5m36.6 93.75v.75q1.65 56.9-6.65 112.2H46.35l-1 2.25m98.9-317.05-5-1.55-7.7-2.6-1.5-.55-1.5-.55-2.3-6.05 2.1-2.5q3.15-4.05 5.2-8.15 1.6-3.35 2.55-6.7l-81.55 10.2q-21.65 1.6-43.25.15l-2.05-.15-3.9.45-3.3.95q-4.5 2.05 3 6.9l24.9 15.7q17.8 10.5 77.1 20.55l13.15 2.15 14.3 2.9 5.25 1.05q20.75 3.85 39.15 6.6l17.85 2.45M137 156.2l.15 1.2q.6 6.2-1.05 12.2m10.1-23.05-9.3 8.85m.15 91.35q0 4.8-.8 9.5m-1.75-26.85q2.55 8.9 2.55 17.35M177 298.8l10.15.7q-.15 2.5-1.05 5.2-1.45 4.3-4.8 9m4.8-9q-8.3.65-11.5 6.05m-13.55 24.45-.2-.1m7.15-1.7q-.85-.4-1.65-.85m-5.3 2.65 2.65 1.1m-.75 25.25h.05m7.6-33.45 1.9.8M134.7 311q-6.85 3.55-14.8 9.3l-6.95 7.05-5.9 5.3q-10.7 9.1-22.55 15.45-3.55 1.9-7.2 3.6-6.15 7.4-8.3 20.5-2.35 14-.1 34.55l1.35 10.3q5.15 10.5 10.95 19l-34.85 77m99-159.6q-11.15 12.05-17.8 23.3-2.9 4.8-4.9 9.5m-28.95 65.2q6 6.05 12.55 10.35l.8.5 3.7 2.2q8.45-5.65 14.6-16.8l2.9 9.8q1.85 5.7 3.75 9.8m1.25 2.65q3.35 6.4 6.75 7.7 5.25-3.1 10.45-5.9 7.6-4.1 14.95-7.4"/><path stroke-width=".5" stroke-opacity=".302" stroke-linejoin="round" stroke-linecap="round" stroke="#263584" fill="none" d="m279.85 209.2-15.95-6.6m-34.75 5.3v.05l3.1 4.7m-88-14.4.65.2"/><path stroke-width=".25" stroke-opacity=".651" stroke-linejoin="round" stroke-linecap="round" stroke="#060d1f" fill="none" d="m189.4 241.7.8.7q.8 1.1.85 2.7l-.05.4q-.1 1.25-.8 2.15-.85 1.1-1.95 1.15-1.15-.05-2-1.15l-.1-.1q-.7-1-.65-2.45-.05-1.1.4-1.95m-34.7 1.3q-.55.35-1.2.35-1.15 0-1.95-1.1-.85-1.05-.85-2.6 0-1.1.4-1.95"/><path stroke-width=".5" stroke-linejoin="round" stroke-linecap="round" stroke="#66482b" fill="none" d="M161.5 286.5q4.55-.05 7.95 3.25"/><path stroke-width=".75" stroke-linejoin="round" stroke-linecap="round" stroke="#000" fill="none" d="M151.6 279.8q15.95 3.45 28 9.25"/><path fill-rule="evenodd" fill="#321003" d="m-24.8-20.5.25-.15 2-.15q1.2.35 1.85 1.55.45.8.5 1.65v.5l-.05.4q-.25 1.4-1.3 2.1-.55.35-1.2.4l-1.1-.1q-1-.35-1.65-1.15l-.3-.5q-.55-1.05-.4-2.2l.05-.35q.25-1.35 1.35-2" transform="translate(211.75 263)"/><path fill-rule="evenodd" fill="#263584" d="m-20.2-17.6 1.6-.65v1.6l-.1.45q-.4 2.15-2.05 3.25-1.6 1.05-3.55.45-1.85-.55-2.9-2.25l1.7-.7q.65.8 1.65 1.15l1.1.1q.65-.05 1.2-.4 1.05-.7 1.3-2.1l.05-.4v-.5" transform="translate(211.75 263)"/><path fill-rule="evenodd" fill="#1f2b6b" d="m-24.55-20.65-.3.05.05.1q-1.1.65-1.35 2l-.05.35q-.15 1.15.4 2.2l.3.5-1.7.7-.15-.25q-.9-1.6-.7-3.4l.1-.65q.4-2.15 2.05-3.2 1.65-1.1 3.6-.5 1.9.6 3 2.5.5.95.7 2l-1.6.65q-.05-.85-.5-1.65-.65-1.2-1.85-1.55l-2 .15" transform="translate(211.75 263)"/><path stroke-width=".3" stroke-opacity=".502" stroke-linejoin="round" stroke-linecap="round" stroke="#276a6a" fill="none" d="M193.15 244.75q-.2-1.05-.7-2-1.1-1.9-3-2.5-1.95-.6-3.6.5-1.65 1.05-2.05 3.2l-.1.65q-.2 1.8.7 3.4l.15.25m8.6-3.5v1.6l-.1.45q-.4 2.15-2.05 3.25-1.6 1.05-3.55.45-1.85-.55-2.9-2.25"/><path fill-rule="evenodd" fill="#fefefe" d="m-22.5-18.55-.45.65.15.85.6.5.75-.1q.4-.2.4-.7.1-.35-.15-.75l-.6-.55-.7.1" transform="translate(211.75 263)"/><path fill-rule="evenodd" fill="#3d52c7" d="M-19.05-15.05q-.9.15-1.85-.45-.45-.6.15-1.2.75-.35 1.55 0 .65 1.05.15 1.65m-3.5-7.65q.8-.1 1.3 1.05-.1.8-.8 1.3-.85.15-1.05-.55-.05-1.15.55-1.8" transform="translate(211.75 263)"/><path fill-rule="evenodd" fill="#fefefe" d="M-18.85-19.85q-.9.55-1.15 1.75-.2 1.1.35 2.1.6 1.05 1.6 1.4 1.05.25 1.95-.3 1-.55 1.15-1.75.15-1.1-.4-2.15-.55-1-1.55-1.35-.95-.25-1.95.3" transform="translate(211.75 263)"/><path fill-rule="evenodd" fill="#66482b" d="m-39.3-21.35-2.85-1.2-4.65-.65-4.85.75 1.05-3.35q-8.6-2.75-17.65-3.2h-.15l-.05-.05-2.75-3.4 9.15 1.5-.4-.15 45.95 7.95-5.85 1.85-3.5 1.45-3.65 1.75-.9.5-4.15 2.5q-4.95-1.45-4.75-6.25" transform="translate(211.75 263)"/><path stroke-opacity=".651" stroke-linejoin="round" stroke-linecap="round" stroke="#060d1f" fill="none" d="m-16.5-23.15 1.5-.35m-14.5 5.4-.9.5-4.15 2.5q-4.95-1.45-4.75-6.25m9.8 3.25 3.65-1.75 3.5-1.45 5.85-1.85m-13 5.05q-.1 5.7 3.5 10 6.7 6.2 17.45 3.95 14.3-4.7 13.1-17.15" transform="translate(211.75 263)"/><path fill-rule="evenodd" fill="#321003" d="M-60.5-24.45q1 .6 1.3 1.9l.05.3q.1 1.1-.4 2.1l-.3.45q-.6.8-1.55 1.1l-1.05.1q-.6-.05-1.15-.4-1-.65-1.2-1.95l-.05-.4v-.5q0-.8.45-1.5.6-1.15 1.8-1.5l1.9.15.2.15" transform="translate(211.75 263)"/><path fill-rule="evenodd" fill="#263584" d="m-66.4-22 4.15 5.3q-1.1 0-2.1-.6-1.6-1.05-1.95-3.1l-.05-.45-.05-1.15" transform="translate(211.75 263)"/><path fill-rule="evenodd" fill="#1f2b6b" d="m-60.7-24.6-1.9-.15q-1.2.35-1.8 1.5-.45.7-.45 1.5v.5l.05.4q.2 1.3 1.2 1.95.55.35 1.15.4l1.05-.1q.95-.3 1.55-1.1l.3-.45q.5-1 .4-2.1l-.05-.3q-.3-1.3-1.3-1.9l.05-.1-.25-.05m-5.7 2.6.05-.35.65-1.9q1-1.8 2.85-2.35 1.8-.55 3.4.45 1.55 1 1.95 3.05l.1.65q.15 1.65-.65 3.2l-.15.2q-1.05 1.65-2.75 2.15l-1.15.2h-.15L-66.4-22" transform="translate(211.75 263)"/><path stroke-width=".3" stroke-opacity=".502" stroke-linejoin="round" stroke-linecap="round" stroke="#276a6a" fill="none" d="m149.65 246.3 1.15-.2q1.7-.5 2.75-2.15l.15-.2q.8-1.55.65-3.2l-.1-.65q-.4-2.05-1.95-3.05-1.6-1-3.4-.45-1.85.55-2.85 2.35l-.65 1.9-.05.35.05 1.15.05.45q.35 2.05 1.95 3.1 1 .6 2.1.6"/><path fill-rule="evenodd" fill="#fefefe" d="m-62.7-22.6.4.65q.1.35-.1.75l-.6.5-.7-.1-.4-.6.15-.85.55-.45.7.1" transform="translate(211.75 263)"/><path fill-rule="evenodd" fill="#3d52c7" d="M-65.95-19.3q.85.15 1.75-.45.4-.55-.15-1.1-.7-.35-1.45 0-.65 1-.15 1.55m3.3-7.25q-.75-.1-1.25 1 .1.75.8 1.25.8.1 1-.55 0-1.1-.55-1.7" transform="translate(211.75 263)"/><path fill-rule="evenodd" fill="#fefefe" d="M-66.25-23.85q.9.55 1.15 1.7.2 1-.35 1.95-.55 1-1.5 1.35-1 .25-1.9-.3-.9-.5-1.05-1.6-.15-1.1.4-2.1.55-.95 1.45-1.25.9-.25 1.8.25" transform="translate(211.75 263)"/><path fill-rule="evenodd" fill="#976f3e" d="m-67.65-28.05 2.75-1.25 8.8 3.35 2.8 4.8-.05.05-2.85 2.7-2.65 2.75-1.7-2.9-.15-.25-.05-.05q-1.55-2.55-3.4-5l-.3-.35-.1-.1-3.1-3.75" transform="translate(211.75 263)"/><path stroke-opacity=".651" stroke-linejoin="round" stroke-linecap="round" stroke="#060d1f" fill="none" d="M-56.2-18.4q.05 5.8-5.1 7.5-5.15 1.65-7.1-1.25-5.35-8.75 0-16.8l-3.6-3.6m4.35 4.5-.75-.9m.75.9 3.1 3.75.1.1.3.35q1.85 2.45 3.4 5l.05.05.15.25 1.7 2.9 2.65-2.75 2.85-2.7" transform="translate(211.75 263)"/><path fill-rule="evenodd" fill="#334380" d="m47-218.1.45-.1-.45.1" transform="translate(211.75 263)"/><path fill-rule="evenodd" fill="#3d4b9d" d="m85.8-256.75.7-.8-.55.9-.15-.1M-77-134.15l1.25 2.1-.55.2-.7-2.3" transform="translate(211.75 263)"/><path fill-rule="evenodd" fill="#263584" d="m-41.05 37.15.3-.1-.25.15-.05-.05" transform="translate(211.75 263)"/><path fill-rule="evenodd" fill="#15264a" d="m-57.25 78.35.15.45-.05.05-.1-.5m80.2-46.7.7.3-.35.25-.35-.55m14.3 27.4.4.85-.65-.25.25-.6" transform="translate(211.75 263)"/><path fill-rule="evenodd" fill="url(#g)" d="m-81.7-69.45.25 2.85 19.2 7.65 67.4 9.25 15.35-.65 47.6-3.3v-.15l7.7-4.15 35.6-1.75q19.3-4.55 16.55-9.1l6.7 2.75-1.35 2.7 47.05 18.3 18.95-.6 5.15 1.15 9.65 1.3-.25.75q-40.5 8.7-128.25 13.95L53-26.8l-39.45-1.7-9-.8L-15-31.5l-17.85-2.45q-18.4-2.75-39.15-6.6l-5.25-1.05-14.3-2.9-13.15-2.15Q-164-56.7-181.8-67.2l-24.6-15.55 3.9-.45 2.05.15 8.1 7.25 62.2-2.1.05.3 51.9-9.1q-2.05 4.1-5.2 8.15l-2.1 2.5 2.3 6.05 1.5.55" transform="translate(211.75 263)"/><path fill-rule="evenodd" fill="url(#h)" d="m-75.75-132.05 1.5-10.8q43.35-59.05 98.95-101.8l.85-.65 11-3.65-2.75-3.1 47.85-8.6 4.15 3.9q-21.45 23.95-35.5 24.7h-.6q.6 11.25-2.25 13.85l-1.35-8.15-1.55-9.4L37.8-239q-7.4-3.1-1.05 3.25l6.4 8.8q-5.55 34.8-21.25 39.1-10.15 12.8-7.05 23.05 6.1 13.4-15.85 35.65-60.1 18.1-74.75-2.9M11.8-186q-7.1 1.2-15.95.1l-.5.15q-5.85 1.7-4.5 3.95l.25-.05.4.5q7.4 8.6 17.25 9.75Q4-178.4 11.8-186" transform="translate(211.75 263)"/><path fill-rule="evenodd" fill-opacity=".612" fill="#fff" d="m85.8-256.75-4.15-3.9-47.85 8.6 2.75 3.1-11 3.65-.85.65q-55.6 42.75-98.95 101.8l-1.5 10.8-1.25-2.1q-2-7.35 2.15-13.2 45.4-64.2 106.9-107.4 65.5-14.2 54.45-2.8l-.7.8m-286.25 173.7q21.6 1.45 43.25-.15l81.55-10.2q-.95 3.35-2.55 6.7l-51.9 9.1-.05-.3-62.2 2.1-8.1-7.25M-66.4 90.45l1.7 2.4q-10.6 13.2-16.1 23.15-2.75 4.85-4.25 8.95l-1.85-2.7-2.2 1q2-4.7 4.9-9.5 6.65-11.25 17.8-23.3M-131.1 96q3.3-5.1 7.5-8.5 3.55-2.9 7.85-4.55 7.6-2.5 14.8-2.5 6.65 3.3 7.85 6.65-10.1 4-16.1 10-4.15 4.15-6.3 9.25-2.55-10.4-15.6-10.35" transform="translate(211.75 263)"/><path fill-rule="evenodd" fill-opacity=".451" fill="#fff" d="M134.65-66.05q32.1 12.9 64.65 20.4l-18.95.6-47.05-18.3 1.35-2.7M-66.4 90.45l4.25-4.4.6-.65 5.8 5-5 2.4q-12.2 9.95-17.05 25 22.75-15.6 42.25-16.45l.7.2q17.35 1.2 31.65 7.15l4.95 9.25q-7.7-3.55-20.15-2.95 7.7 3.55 15.05 8.55-19.55 20.35-87.1 11.85l-.2-8.35.15-.35 1.4-3.45 2.2-1 1.85 2.7q1.5-4.1 4.25-8.95 5.5-9.95 16.1-23.15l-1.7-2.4m-66.3-.25 16.6-9.75 26.4-3.9 7.9 4.15 3.2 3.2q-4.45 1.1-8.05 2.35l-.4.15q-7.85 6.75-14.2 16-5.45 8-9.75 17.85-14.55-7.85-25.55-21.55v-.05l3.85-8.45m1.6 5.8q13.05-.05 15.6 10.35 2.15-5.1 6.3-9.25 6-6 16.1-10-1.2-3.35-7.85-6.65-7.2 0-14.8 2.5-4.3 1.65-7.85 4.55-4.2 3.4-7.5 8.5" transform="translate(211.75 263)"/><path fill-rule="evenodd" fill-opacity=".29" fill="#fff" d="M-142.75 109.2q2.15-13.1 8.3-20.5 3.65-1.7 7.2-3.6 11.85-6.35 22.55-15.45l5.9-5.3q7 .35 7.4 9.95h3.55l.6.25 17.7 7.3-13.65 13.3q-5.3 6.4-9.75 12.8-6.9 9.9-11.75 19.85-3.35 6.8-5.65 13.65-26.65-10.9-32.4-32.25m52.1 17.85.2 8.35q67.55 8.5 87.1-11.85-7.35-5-15.05-8.55 12.45-.6 20.15 2.95l-4.95-9.25q-14.3-5.95-31.65-7.15l-.7-.2q-19.5.85-42.25 16.45 4.85-15.05 17.05-25l5-2.4-5.8-5 1.2-1.2q1-.2 3.6.75 7.25 5.4 5.6 9.6-2.85 1.55-7.15.85-2.95 4.4-11.9 14.55 7.35-6.95 21.55-11.2l-.1-.2L-45 97.4l1.65-.1q44.15-1.95 61.7 18.85-6.15 12.9-25.05 27.3-34.3 10-67.4 6-7.2 4.6-7.5 11.85-2.1-3.3-3.7-13.6l-8.85-1.95q-.05-9.05 3.5-18.7M-132.7 90.2l-3.85 8.45v.05q11 13.7 25.55 21.55 4.3-9.85 9.75-17.85 6.35-9.25 14.2-16l.4-.15q3.6-1.25 8.05-2.35l-3.2-3.2-7.9-4.15-26.4 3.9-16.6 9.75" transform="translate(211.75 263)"/><path fill-rule="evenodd" fill-opacity=".271" d="M-75.75-132.05q14.65 21 74.75 2.9 21.95-22.25 15.85-35.65-3.1-10.25 7.05-23.05 15.7-4.3 21.25-39.1l3.25 6.45.6 2.4q2.3 11.6-5.05 23.15l-.15.3-3.1 3.3q-2.85 2.8 2.1 10.9l-.9 1.8q-.55 4.65.45 9.55-.3 27.1-9.1 42.5 11.7-12.45 14.1-29.75l1.95 3.25q2.2 3.35-5 25.45L40-116.1q-4.95 2.1-9.85 3.9 5.55-5.1-3.2-7.9l-.25-.05q-29.5 6.05-14.3-8.65-30.7 22.15-69.9 18.8l-.35.1-8.1-3.55.4-3q-7.5-7.8-10.35-14.45l-.4-.95.55-.2M37.8-239l6.75 3.25 1.55 9.4L37.8-239m12.5 6.95q14.05-.75 35.5-24.7l.15.1L74.25-238l-12.9 9.5-8.65 4.1-2.4-7.65M11.8-186q-7.8 7.6-3.05 14.4-9.85-1.15-17.25-9.75l-.4-.5-.25.05q-1.35-2.25 4.5-3.95l.5-.15q8.85 1.1 15.95-.1M213.85-42.45l1.75-.45q5.3 1 7.35 2.15Q199.1-34.2 161.2-29.5l-.9.2q-54.8 6.8-113.15 7.6h-.35q-15.45-1-30.65-2.95l-2-.1q-50-3.3-105.75-14.25l-1-.15q-40.9-6.15-82.25-19.9l-1.9-.65q-16.85-6.75-32.95-22.1l3.3-.95 24.6 15.55q17.8 10.5 77.1 20.55l13.15 2.15 14.3 2.9 5.25 1.05q20.75 3.85 39.15 6.6L-15-31.5l19.55 2.2 9 .8L53-26.8l32.6-1.7q87.75-5.25 128.25-13.95m-248.7 101q.5-1.55 1.4-2.85 2.05-2.9 6.15-4.5l9.75-.3L-19 53l-.65 1.6 1.6 3.95-9.15 1.9-7.65-1.9m19.6-8 4.3-.9-1.1 3.2.8 2.5-3.7 1.1H-15L-16.65 53l1.4-2.45m-127.6 93.2q-2.25-20.55.1-34.55 5.75 21.35 32.4 32.25 2.3-6.85 5.65-13.65 4.85-9.95 11.75-19.85 4.45-6.4 9.75-12.8l13.65-13.3 11.4-2 2.6 3.1 2.95 3.6q5.9 2.5 15.95 7.8l-4.5 1.7Q2.4 89.35 24.5 107.8q12.35 4.05 16.65-1.8-17.6 54.7-46.25 71.85l-9.95-.35q-18.75 1.4-45.3 12.15l-1.45.1q-5.9.15-12.7-5.55 5.15 18.05 13.2 24.55-5.2 2.8-10.45 5.9-3.4-1.3-6.75-7.7l-1.25-2.65q-1.9-4.1-3.75-9.8l-2.9-9.8-3.15-12.85q-2.15-9.55-4.3-21.2l-.3-4.9 8.85 1.95q1.6 10.3 3.7 13.6.3-7.25 7.5-11.85 33.1 4 67.4-6 18.9-14.4 25.05-27.3Q.8 95.35-43.35 97.3l-1.65.1-3.75 1.15h-.05l.15.2q-14.2 4.25-21.55 11.2 8.95-10.15 11.9-14.55 4.3.7 7.15-.85 1.65-4.2-5.6-9.6-2.6-.95-3.6-.75l-1.2 1.2-.6.65-9.1 3.8-.5.6q-9.25 10.1-16.6 20.5Q-96.8 122.8-102.8 135l-1.9 6.8-.4 1.65q-3.2 12.15-4.2 21.35l-5.5-2.7q-1.65 12.55.45 17.65-18.6-14.55-28.5-36m44.05-79.4 6.95-7.05q7.95-5.75 14.8-9.3-9.6 7.05-11.75 14.1-3.05 3 6.45 4.55l-9.05 7.65q-.4-9.6-7.4-9.95M-41 37.2l-2.4 7.35 2.25 4.25h-.05l-4.7 3.05.3 5.75-2.3-2.15q-4.8-11 6.9-18.25" transform="translate(211.75 263)"/><path fill-rule="evenodd" fill-opacity=".49" d="m43.15-226.95-6.4-8.8Q30.4-242.1 37.8-239l8.3 12.65 1.35 8.15q2.85-2.6 2.25-13.85h.6l2.4 7.65 8.65-4.1 12.9-9.5-2.3 3.65q-7.45 8-17.4 16.05l-5.4 4.2q3.2 8.6 1.9 12.7L40.8-180.45q-4.95-8.1-2.1-10.9l3.1-3.3.15-.3Q49.3-206.5 47-218.1l.45-.1-.45.1-.6-2.4-3.25-6.45m2.2 70.6q-2.4 17.3-14.1 29.75 8.8-15.4 9.1-42.5 1.25 6.2 5 12.75m-111.3 42.9 8.1 3.55.35-.1q39.2 3.35 69.9-18.8-15.2 14.7 14.3 8.65l.25.05q8.75 2.8 3.2 7.9-51.25 18.75-94.55 3.95l-2.1-.75.55-4.45m-15.75 44 1.5.55 7.7 2.6 5 1.55.65.2q40.25 11.95 80 9.75l3-.2 1.25-.1q16.75-1.25 33.45-5l1.3-.3.35-.1 8.3-2.1q9.45-4 10.65-7.65.9-2.75-2.75-5.3-3.7-5.1-6.65-10.2 36.25 7.95 65.9 16.95 2.75 4.55-16.55 9.1l-35.6 1.75-7.7 4.15v.15l-47.6 3.3-15.35.65-67.4-9.25-19.2-7.65-.25-2.85m304.65 28.7q4.9 2.75-9.1 6.3-38 8.2-117.65 13.3l-2.1.1-8.5.55L53-18.8l-39.45-1.7-9-.8L-15-23.5l-17.85-2.45q-18.4-2.75-39.15-6.6l-5.25-1.05-14.3-2.9-13.15-2.15Q-164-48.7-181.8-59.2l-24.9-15.7q-7.5-4.85-3-6.9 16.1 15.35 32.95 22.1l1.9.65q41.35 13.75 82.25 19.9l1 .15q55.75 10.95 105.75 14.25l2 .1q15.2 1.95 30.65 2.95h.35q58.35-.8 113.15-7.6l.9-.2q37.9-4.7 61.75-11.25m-263.7 77.8.35-.2q1.45-.85 3.15-1.65l2.5.6q-7.45 7.75-2.4 11.95l1.75 1.15q-3.4 1.85-5.3 3.55-5.55 4.9.55 9l-1 3.65-7.8-3.45q-1.25.95-1.9 1.95l-.65 1.65-.05 1.15.55.3-.15 1.15L-48.5 71l-2.4 1.1-5.55-2.35-2.35 4.6 1.1.5-.25 1.45.7 2.05-4.85.95-9.95-3.2-1.6-6.2 1.6-1.85 1.5-1.6 1.5-1.5 8.85-7.65-8.2 3.1-.95-3.9-1.35 6.7-7 7.75q-4.7 2.4-9.55 3.6l-.6-.25h-3.55l9.05-7.65q-9.5-1.55-6.45-4.55 2.15-7.05 11.75-14.1l1.15-.6q5.6-2.85 10.45-4.1l24.4-6.15.05.05.25-.15m-16.4 41.8h.05l2.35-.8 5.5 2.55 3.8-3.2-.85-2.05 1.1-.8-2.85-1.25 2-1.35 6.55 2.7 4.8-.9 1.4-1.8-.65-2.45.7-.95-6-2.65 2.65-.85L-21.85 72l24.9-2.55q8.5-5 17.05-9.95l10.6-2.35 6.3 2.5.65.25q17.9 36.15 12.65 49.65l-7.9 16q10.4-22.8-1.2-43 3.8 14.6 1.15 21.3l-1.2 2.15q-4.3 5.85-16.65 1.8Q2.4 89.35-41.15 96.05l4.5-1.7 22.15-5.8-13.15 2.2-14.75-2.3-13.15-5.5-2.6-3.1 1-1m21.7-17.2q.1-1.65.6-3.05v-.05l7.65 1.9 9.15-1.9-1.6-3.95.65-1.6 1.45-2.1 2.3-.35-1.4 2.45 1.65 3.45h.05l3.7-1.1-.8-2.5 1.1-3.2q7.9-2.05 17.2-6.3l8.9-4.55q.45-1.15.25-2.15l-.05-.25 2.15-3.55 4.65-1.5.8.3.35.55 2.85 4.55-.3 3.05-4.05 6.5L2.75 57.15-22.9 63.9l-12.55-2.25M-41 37.2q-11.7 7.25-6.9 18.25l2.3 2.15-.3-5.75 4.7-3.05h.05l-2.25-4.25 2.4-7.35m53.95 57.15-4.85-5.2 2.1-2.25 11.3-2.1 4.1.85-.75-3.7h-.05L13.35 83.8-.75 88q5.65 1.75 13.7 6.35" transform="translate(211.75 263)"/><path fill-rule="evenodd" fill-opacity=".651" d="M-35.4 48.9q1.4 3 .2 6.05l-.2.4-4.75 6.1q-6.1-4.1-.55-9 1.9-1.7 5.3-3.55M-51 66.7l5.6 2.85-3.1 1.45-2.65-3.15.15-1.15m-6.7 8.15 3.25 1.4-2 1.9-.8.2-.7-2.05.25-1.45m2.95 3.2 2.45-.85 2.35 1 3.65-2.85.85 2.05-3.8 3.2-5.5-2.55m8.7-6.1 2.3-1.55 4.65 2.4q3.5-1.3 5.15-3.3l.65 2.45-1.4 1.8-4.8.9-6.55-2.7m9.45-6.9 1.2-.4-.05-3 12.55 2.25 25.65-6.75L21.8 46.3l4.05-6.5.3-3.05-2.85-4.55.35-.25Q36.45 41.85 34 56.1l3.25 2.95-.25.6-6.3-2.5-10.6 2.35q-8.55 4.95-17.05 9.95L-21.85 72l-14.75-6.95M15.35 36.4q-.75-2.9-6.85-4.55l1.8-5.05 11.85 4.55-4.65 1.5-2.15 3.55m-3.1 213.65h-28.7Q13.1 229.9 20.8 196.8l2.15-.3q.05 21.6-10.7 53.55m-154 0h-7.35l3.7-11.1 3.65 11.1m11.2-77q-5.8-8.5-10.95-19l-1.35-10.3q9.9 21.45 28.5 36-2.1-5.1-.45-17.65l5.5 2.7q-2.15 18.75 4.6 24.85l1.9 1.35q9.1-3.2 13.25-19.15l3.15 12.85q-6.15 11.15-14.6 16.8l-3.7-2.2-.8-.5q-6.55-4.3-12.55-10.35-6.55-6.6-12.5-15.4m43.3-98.5q4.85-1.2 9.55-3.6l7-7.75 1.35-6.7.95 3.9 8.2-3.1-8.85 7.65-1.5 1.5-1.5 1.6-1.6 1.85 1.6 6.2 9.95 3.2 4.85-.95.1.5-1 1-11.4 2-17.7-7.3m31.7 8.4 13.15 5.5 14.75 2.3 13.15-2.2-22.15 5.8q-10.05-5.3-15.95-7.8l-2.95-3.6M41.15 106l1.2-2.15q2.65-6.7-1.15-21.3 11.6 20.2 1.2 43-24.75 48.5-43.8 61.55-21.3 3.35-44.95 14.25-7.35 3.3-14.95 7.4-8.05-6.5-13.2-24.55 6.8 5.7 12.7 5.55l1.45-.1q26.55-10.75 45.3-12.15l9.95.35Q23.55 160.7 41.15 106m-28.2-11.65Q4.9 89.75-.75 88l14.1-4.2 11.45-1.85h.05l.75 3.7-4.1-.85-11.3 2.1-2.1 2.25 4.85 5.2" transform="translate(211.75 263)"/><path fill-rule="evenodd" fill-opacity=".839" d="M42.4 125.55v.1l.45 12.2q-29.45 55.6-46.15 59l-1.2.2-.75.1q-18.85 2.45-41.8 12.05l.7-7.85q23.65-10.9 44.95-14.25 19.05-13.05 43.8-61.55m-175.95 54.15 3-6.65q5.95 8.8 12.5 15.4l-2.95 3.9q-6.7-4.1-12.55-12.65m71.4-93.65-4.25 4.4q-11.15 12.05-17.8 23.3-2.9 4.8-4.9 9.5l-1.4 3.45-.15.35q-3.55 9.65-3.5 18.7l.3 4.9q2.15 11.65 4.3 21.2Q-93.7 187.8-102.8 191l-1.9-1.35q-6.75-6.1-4.6-24.85 1-9.2 4.2-21.35l.4-1.65 1.9-6.8q6-12.2 14.45-24.05 7.35-10.4 16.6-20.5l.5-.6 9.1-3.8" transform="translate(211.75 263)"/><path fill-rule="evenodd" fill="url(#i)" d="M42.85 137.85q1.65 56.9-6.65 112.2H12.25Q23 218.1 22.95 196.5l-2.15.3q-7.7 33.1-37.25 53.25h-82.7q-32-8.85-37.5-24.05l-4.85-1.1q.4 8.7 12.45 25.15h-12.7l-3.65-11.1-3.7 11.1h-16.3l31.85-70.35q5.85 8.55 12.55 12.65l-.05.05-17.85 23.5 47.5-5.95q22.55 21.9 41.35 31.9l3-32.65q22.95-9.6 41.8-12.05l.75-.1 1.2-.2q16.7-3.4 46.15-59" transform="translate(211.75 263)"/><path fill-rule="evenodd" fill-opacity=".369" d="M-99.15 250.05h-29.9q-12.05-16.45-12.45-25.15l4.85 1.1q5.5 15.2 37.5 24.05" transform="translate(211.75 263)"/><path fill-rule="evenodd" fill-opacity=".529" fill="#fff" d="m-64.4-108.25-8.4 2.2-1.95-.75-.1-.8 9.3-8.85-.95 7.45 2.1.75" transform="translate(211.75 263)"/><path fill-rule="evenodd" fill-opacity=".4" fill="#fff" d="m32.8-107.9-.5.3-18 5.2q-46.3 10.95-84-2.5l-3.1-1.15 8.4-2.2q43.3 14.8 94.55-3.95 4.9-1.8 9.85-3.9 2.5 1.75-5.35 7l-1.85 1.2" transform="translate(211.75 263)"/><path fill-rule="evenodd" fill-opacity=".31" fill="#fff" d="m-72.8-106.05 3.1 1.15-1.85 4.3 1.8 12.5-2.35 3.7q8.75 7.35 29 8.6-18 4.1-35-2.45l-2.8 3.6.7 5.75-1.5-.55-1.5-.55-2.3-6.05 2.1-2.5q3.15-4.05 5.2-8.15 1.6-3.35 2.55-6.7 1.65-6 1.05-12.2l-.15-1.2 1.95.75m122.7-15 1.6 1.35q1.15 17.15 10.35 33.55l.2.4q2.95 5.1 6.65 10.2 3.65 2.55 2.75 5.3-5.95-1.55-11.9-12.35l-.5-1.4q-4.95-13.95-9.15-31.6v-5.45" transform="translate(211.75 263)"/><path fill-rule="evenodd" fill-opacity=".161" d="m-5.4-94.65-8.1 4.4Q-51.8-78.95-66-91.6q5.35.65 2.4-4.25 14.15 5.35 28.3 4.65l29.9-3.45" transform="translate(211.75 263)"/><path fill-rule="evenodd" fill="url(#j)" d="m14.3-102.4 18-5.2.5-.3 1.45 9.95L45.9-67.6l5 3.25-.05 4.25q-16.7 3.75-33.45 5l-1.25.1-3 .2q-39.75 2.2-80-9.75l-.65-.2-5-1.55q74.6 14.35 86.65 3.45l.6-.65-.25-1.95q-.55-4.65-.85-9.3v-.1q-.85-13.6.65-27.55" transform="translate(211.75 263)"/><path fill-rule="evenodd" fill="url(#k)" d="M34.65-109.1q7.85-5.25 5.35-7l1.5-.65 5.2-.7.4-2.05-5.4-4.95.6-3.2 7.6 6.6v5.45q4.2 17.65 9.15 31.6l.5 1.4q5.95 10.8 11.9 12.35-1.2 3.65-10.65 7.65l-8.3 2.1.3-4.1-5.1-4.3-12.15-30.3-.9-9.9" transform="translate(211.75 263)"/><path fill-rule="evenodd" fill="url(#l)" d="M13.65-74.75q.3 4.65.85 9.3l-2.25-1.95q-10.4 2.2-24.55 2.6-9.9.2-13.2-2.05 29.95 1 39.15-7.9" transform="translate(211.75 263)"/><path fill-rule="evenodd" fill="url(#m)" d="m-121.05 192.4.05-.05 2.95-3.9q6 6.05 12.55 10.35l.8.5 3.7 2.2q8.45-5.65 14.6-16.8l2.9 9.8-9.4 8.7-8 3.4-20.15-14.2" transform="translate(211.75 263)"/><path fill-rule="evenodd" fill="url(#n)" d="M-78.5 206.95q3.35 6.4 6.75 7.7 5.25-3.1 10.45-5.9 7.6-4.1 14.95-7.4l-.75 8.4-10.45 3.6-13.4 7.05-4.9-4.6-2.65-8.85" transform="translate(211.75 263)"/><path fill-rule="evenodd" fill="url(#o)" d="M-83.5 194.5q1.85 5.7 3.75 9.8l1.25 2.65 2.65 8.85 4.9 4.6 13.4-7.05 10.45-3.6-2.95 32.1q-18.8-10-41.35-31.9l-47.5 5.95 17.85-23.5 20.15 14.2 8-3.4 9.4-8.7" transform="translate(211.75 263)"/><path fill-rule="evenodd" fill-opacity=".702" d="m32.8-107.9 1.85-1.2.9 9.9L47.7-68.9l5.1 4.3-.3 4.1-.35.1-1.3.3.05-4.25-5-3.25-11.65-30.35-1.45-9.95m8.9-16.55 5.4 4.95-.4 2.05-5.2.7-1.5.65 1.7-8.35" transform="translate(211.75 263)"/><path stroke-width=".75" stroke-opacity=".651" stroke-linejoin="round" stroke-linecap="round" stroke="#060d1f" fill="none" d="m254.9 36.05 3.25 6.45 1.05 2.3q2.85-2.6 2.25-13.85M259.2 44.8l1.7 4.1 5.4-4.2q9.95-8.05 17.4-16.05l14.55-23.2q11.05-11.4-54.45 2.8-61.5 43.2-106.9 107.4-4.15 5.85-2.15 13.2l1.1 3.25q2.85 6.65 10.35 14.45l-.95 7.45 2.1.75q43.3 14.8 94.55-3.95 4.9-1.8 9.85-3.9l2.3-11.55q7.2-22.1 5-25.45l-1.95-3.25q-3.75-6.55-5-12.75-1-4.9-.45-9.55L262.8 61.6q1.3-4.1-1.9-12.7m-9.15 98 1.5-.65 3.5-1.5m-27.6 63.15q16.8-1.25 33.45-5l1.3-.3.35-.1 8.3-2.1q9.45-4 10.65-7.65.9-2.75-2.75-5.3-3.7-5.1-6.65-10.2l-.2-.4q-9.2-16.4-10.35-33.55l-9.2-7.95m-109.15 63.1q40.25 11.95 80 9.75l3-.2 1.25-.1m-102.1-18.85-.8-2.1 2.1-2.5q3.15-4.05 5.2-8.15 1.6-3.35 2.55-6.7l-81.55 10.2q-21.65 1.6-43.25.15l-2.05-.15-3.9.45-3.3.95q-4.5 2.05 3 6.9l24.9 15.7q17.8 10.5 77.1 20.55l13.15 2.15 14.3 2.9 5.25 1.05q20.75 3.85 39.15 6.6l17.85 2.45 19.55 2.2 9 .8 39.45 1.7 32.6-1.7 8.5-.55m2.1-.1q79.65-5.1 117.65-13.3 14-3.55 9.1-6.3-2.05-1.15-7.35-2.15l-1.5-.3-9.65-1.3-5.15-1.15q-32.55-7.5-64.65-20.4l-6.7-2.75q-29.65-9-65.9-16.95M134.5 229.4q2.55 8.9 2.55 17.35 0 4.8-.8 9.5-.65 3.55-1.75 7.1-.4 11.7 23.8 25.6l16.2 9.25 2.5.6 10.15.7q13.55-.7 31.45-9.2l3.85-1.65q6.05-2.7 11.1-5.85 9.25-5.8 15-13.15 2.45-3.1 4.25-6.45 6-12.9 11.95-19m-35.6 56.3-2.25 1.3-8.9 4.55q-9.3 4.25-17.2 6.3l-4.3.9-2.3.35-9.75.3q-4.1 1.6-6.15 4.5-.9 1.3-1.4 2.9-.5 1.4-.6 3.05l.05 3q16.25 6.6 40.7-4.85 18.5-9.8 23.85-8.2l4.85 4.5q2.45-14.25-10.35-24.15l-13.35-5.15-1.8 5.05q6.1 1.65 6.85 4.55m-.2 2.4q.45-1.15.25-2.15m-4.7-11-.4 1.15m-1.8 5.05q-3.5 9.1-2.25 11.5m-19.4 44.85 4.8-1.25q3.05-.4 7.6 1.05l14.1-4.2 2.05-.3m18.6-27.4 3.25 2.95.4.85q17.9 36.15 12.65 49.65l-7.9 16v.05l.45 12.25q1.65 56.9-6.65 112.2H46.35l-1 2.25M146.2 146.55l-9.3 8.85m.1.8.15 1.2q.6 6.2-1.05 12.2m-9.05 19.45 1.5 3.95 1.5.55 1.5.55 7.7 2.6 5 1.55m30.25 99.95q-1.7.8-3.15 1.65l-.35.2-.25.15q-11.7 7.25-6.9 18.25l2.3 2.15q2.1 1.75 5.45 3.85-6.1-4.1-.55-9 1.9-1.7 5.3-3.55l-1.75-1.15q-5.05-4.2 2.4-11.95m4.3 14.9q3.35-4.7 4.8-9-8.3.65-11.5 6.05m12.55-11.25q-.15 2.5-1.05 5.2m-15.1-4.65-24.7 6.25q-4.85 1.25-10.45 4.1m19.45 22.35-2.35 4.6 4.35 1.9 2.15.95 2.35 1 4.75-3.65-2.85-1.25-2.65-1.1-.2-.1-5.55-2.35m5.55 2.35 5.5-2.55-6.15-3.15.05-1.15.65-1.65q.65-1 1.9-1.95l7.8 3.45 1-3.65 4.75-6.1.2-.4q1.2-3.05-.2-6.05m-12.65 24.4 4.3-2.9q-.85-.4-1.65-.85m-22.35-5.7-1.3 1.1-1.5 1.5-1.5 1.6-1.6 1.85q-3.15 3.95-5.05 8.15l9.15 3.8 11.4-2 1-1 2.7-2.6M134.7 311q-6.85 3.55-14.8 9.3l-6.95 7.05-5.9 5.3q-10.7 9.1-22.55 15.45-3.55 1.9-7.2 3.6-6.15 7.4-8.3 20.5-2.35 14-.1 34.55l1.35 10.3q5.15 10.5 10.95 19 5.95 8.8 12.5 15.4 6 6.05 12.55 10.35l.8.5 3.7 2.2q8.45-5.65 14.6-16.8l-3.15-12.85q-4.15 15.95-13.25 19.15l-1.9-1.35q-6.75-6.1-4.6-24.85 1-9.2 4.2-21.35l.4-1.65 1.9-6.8q6-12.2 14.45-24.05 7.35-10.4 16.6-20.5l.5-.6 9.1-3.8.6-.65 1.2-1.2q1-.2 3.6.75 1.7.55 4.15 1.6l-2.95-3.6m-14-1.1-9.05 2.05q-4.45 1.1-8.05 2.35m24.5-.2-4.25 4.4q-11.15 12.05-17.8 23.3-2.9 4.8-4.9 9.5l-1.4 3.45m38.2-49.5-4.8 1.65h-.05m-1 1 2.15 2.6m.75 16.05q.5 1.65 6.45.05h.05l3.75-1.15 3.85-1.35 4.5-1.7q-10.05-5.3-15.95-7.8m17.2-21.9-3.85 1.25 6 2.65-.7.95q-1.65 2-5.15 3.3l-4.65-2.4m29.25 18.15-22.15 5.8m-4.5-29.25 1.9.8m-64.95 8.4h16.35l9.15 3.75m-8.35 8.35-4.15 1.55m.55 39.1q-3.55 9.65-3.5 18.7l.3 4.9q2.15 11.65 4.3 21.2m3.15 12.85 2.9 9.8q1.85 5.7 3.75 9.8m1.25 2.65q3.35 6.4 6.75 7.7 5.25-3.1 10.45-5.9 7.6-4.1 14.95-7.4 23.65-10.9 44.95-14.25 19.05-13.05 43.8-61.5M46.35 513.05l34.85-77m143.5-78.7q-8.05-4.6-13.7-6.35"/><path stroke-width=".5" stroke-opacity=".302" stroke-linejoin="round" stroke-linecap="round" stroke="#263584" fill="none" d="m279.85 209.2-15.95-6.6m-34.75 5.3-.85-1.25m.85 1.25v.05l5.9 8.95m46-7.2 27.6 11.15 10.4-1.45.75-.8m-.75.8-3.35 3.35 12.85 6.4m-201.5-40.1q-15.65 2.65-36.15.35m53.35 8.85.65.2m-39.15 7.9 38.5-8.1"/><path stroke-width=".25" stroke-opacity=".651" stroke-linejoin="round" stroke-linecap="round" stroke="#060d1f" fill="none" d="M151.2 244.45q-.55.35-1.2.35-1.15 0-1.95-1.1-.85-1.05-.85-2.6 0-1.1.4-1.95m41.8 2.55.8.7q.8 1.1.85 2.7l-.05.4q-.1 1.25-.8 2.15-.85 1.1-1.95 1.15-1.15-.05-2-1.15l-.1-.1q-.7-1-.65-2.45-.05-1.1.4-1.95"/><path stroke-width=".5" stroke-linejoin="round" stroke-linecap="round" stroke="#66482b" fill="none" d="M161.5 286.5q4.55-.05 7.95 3.25"/><path stroke-width=".75" stroke-linejoin="round" stroke-linecap="round" stroke="#000" fill="none" d="M151.6 279.8q15.95 3.45 28 9.25"/><path stroke-width=".5" stroke-opacity=".302" stroke-linejoin="round" stroke-linecap="round" stroke="#1d2b61" fill="none" d="M296.6 7.9q1.5-4.7-5.85-3.4l-.3.05q-20.65 4.55-32.1 8.9l.55 1.4m-2.85-2.75 1 1.85 1.3-.5-.4-1.1m-72.4 61.35 1.75.75q22.9-26.15 58.05-50.25 1.4-6.15 9.85-9.5l.3-.1 1.55-.65.9 1.75M240.6 159.15l3.8-1.35-.25-2.75-2.35-2.6-4.35-.4m6.95 5.75 3.2-1.95m7.1 41.65 2.45-.8-.4-.8-1.6.8m2-1-.4.2q-10.6-22.25-12.35-38.1m15.4 38-2.65.9.4.8 4.2 1.9-.2 1.75-3.05 2.6m-71.2-129.3 2.45 1m-9.8-.3 5.3 1.65 2.8.85m-25.65 60.2q-6.6-3.4-11.15-2.75l-1.6 5.05q-.9 6.35 4.4 7.6 6.9 1.75 1.3 5.8-2.25 2.95-.5 3.4m30.4-80.15q-22.6 26.35-32.8 54.75l3.4.1m-4.6 3.45q-2.05.3-3.7 1.35m2.15-6q1.1.8 2.75 1.1m85.9 296.05 3.95-1.1-.45-15.45m4.05 15.1 3.55-2.6m-11.4 66.5h1q3.75-27.45 3.25-63.55m-5.4 67.35 1.65-.45.5-3.35h1.65m-2.15 3.35 2.4-.7m-6.7 22.2q2.55-9.95 4.3-21.5"/><path stroke-width=".8" stroke-opacity=".302" stroke-linejoin="round" stroke-linecap="round" stroke="#1d2b61" fill="none" d="m215.3 419.45.6-1.65-5.15-2-13.85 4.3-7.5 4.1-6.7 9.4.2 5.8 1.25-.25m19.15 10.65.15-1.9-7.7 1.35-12.55-4-.3-5.85-2.75.65m23.4 6.65-.1 1.2 1.9-.35V446m20.5-18-2.25 1.5.25 3.7-12.35 13.25-6.15 1.1v1.65m11.35-33.6-.8 2.2 1.75.75.8-1.75m4.4 13.2.75-.5-.6-8.7-5.35-2.25-.35.75"/><path stroke-width=".25" stroke-opacity=".251" stroke-linejoin="round" stroke-linecap="round" stroke="#000" fill="none" d="M248.55 269.65q-1.15-2.35-2.7-4.75-10.4 3.4-21.2 6.3l-.95.25q-24.6 6.4-51.5 9.85 10.3 4 23.5 7.75h.05q17.7 2.2 37.8-6.25m-96.5-36.05 6.35 8q1.8 1.45 6.55 3.1 8.7-10.4 28.95-20.8m-42.65 19.2q6 13.45 35.95 25.05m-22.25-23.45q17.3 5.9 73.75 13.6m1.6-28.95q13.9 11.9 20.55 22.4"/><path fill-rule="evenodd" fill="url(#p)" d="M-53.55-21.1-42.5-23V-.25h-34.6q.95-3.25 1.55-6.55.8-4.7.8-9.5-.05-8.45-2.55-17.35l5.3 1 3.5 3.65q-5.3 8.05 0 16.8 2 2.9 7.15 1.25 5.15-1.75 5.1-7.5l2.7-2.65" transform="translate(211.75 263)"/><path stroke-width="1.75" stroke-linejoin="round" stroke-linecap="round" stroke="#1a120b" fill="none" d="m139.75 230.35 3.5 3.65 3.9 4.65.1.05.3.4 3.35 4.95.1.1.15.25 1.7 2.85 2.65-2.7 2.7-2.65m-14.95-7.9q-5.3 8.05 0 16.8 2 2.9 7.15 1.25 5.15-1.75 5.1-7.5"/></g><g id="v"><path fill-rule="evenodd" fill="url(#q)" d="m7.55-1.35 4.85.4 2.5.2V0q0 6-5.35 10.3Q4.2 14.6-3.3 14.6t-12.85-4.3q-4.85-3.85-5.3-9.15l5.7-.65q.55.95 2.25 1.45l2.75-1.6q-.1 3.1 1.85 5.4Q-5.3 9.1.5 7.85q7.7-2.5 7.05-9.2" transform="translate(21.45 3.05)"/><path stroke-linejoin="round" stroke-linecap="round" stroke="#1a120b" fill="none" d="M-15.75.5q-.35-.55-.35-1.25m23.65-.6Q8.2 5.35.5 7.85q-5.8 1.25-9.4-2.1-1.95-2.3-1.85-5.4l-2.75 1.6q-1.7-.5-2.25-1.45m5-.15L-8.8-.6l1.85-.75L-3-2.55" transform="translate(21.45 3.05)"/></g><g id="w" stroke-opacity="0" stroke-linejoin="round" stroke-linecap="round" stroke="#f0f" fill="none"><path d="M187.95-293.5v380h-380v-380h380M92.95.6H-97" transform="translate(192.55 294)"/><path d="m187.95-293.5-190 190 190 190m-380-380 190 190L-192 86.5" transform="translate(192.55 294)"/></g></defs><path fill="none" d="M-1-1h240v282H-1z"/><use x="191.406" y="452.242" xlink:href="#r" width="440.6" transform="translate(-100.134 -238.944) scale(.5329)" height="517.7"/><use x="191.406" y="452.242" xlink:href="#s" width="210.55" transform="translate(-60.163 -165.65) scale(.5329)" height="369.5"/><use x="191.406" y="452.242" xlink:href="#t" width="435.6" transform="translate(-98.812 -237.605) scale(.5329)" height="512.7"/><use x="191.406" y="452.242" xlink:href="#u" width="436.3" transform="translate(-98.988 -237.798) scale(.5329)" height="515.65"/><use x="103.082" y="243.557" xlink:href="#v" width="36.35" transform="translate(-12.476 -110.668) scale(.9895)" height="17.65"/><use x="102" y="241" xlink:href="#w" width="381" transform="translate(-192.55 -294)" height="381"/><use x="-2.213" y="-.605" xlink:href="#x" width="102.95" transform="matrix(1.8072 0 0 1.6538 -4.15 98.95)" height="45"/></svg>