<svg width="211" height="244" xmlns="http://www.w3.org/2000/svg" xmlns:xlink="http://www.w3.org/1999/xlink"><defs><linearGradient y2=".536" y1=".888" x2=".577" x1=".727" spreadMethod="pad" id="k"><stop stop-opacity=".392" offset="0"/><stop stop-opacity=".102" offset="1"/></linearGradient><linearGradient y2=".585" y1=".461" x2=".506" x1=".857" spreadMethod="pad" id="l"><stop stop-opacity=".392" offset="0"/><stop stop-opacity=".102" offset="1"/></linearGradient><linearGradient y2=".774" y1=".213" x2="-.157" x1=".668" spreadMethod="pad" id="m"><stop stop-opacity=".263" stop-color="#fff" offset="0"/><stop stop-opacity=".412" stop-color="#fff" offset="1"/></linearGradient><linearGradient y2="1.006" y1=".298" x2=".176" x1=".675" spreadMethod="pad" id="n"><stop stop-opacity=".263" stop-color="#fff" offset="0"/><stop stop-opacity=".412" stop-color="#fff" offset="1"/></linearGradient><linearGradient y2=".963" y1=".127" x2="-.104" x1=".762" spreadMethod="pad" id="o"><stop stop-opacity=".263" stop-color="#fff" offset="0"/><stop stop-opacity=".412" stop-color="#fff" offset="1"/></linearGradient><linearGradient y2="1.157" y1=".086" x2="-.324" x1=".796" spreadMethod="pad" id="p"><stop stop-opacity=".263" stop-color="#fff" offset="0"/><stop stop-opacity=".412" stop-color="#fff" offset="1"/></linearGradient><linearGradient y2="-.055" y1=".757" x2="1.379" x1=".329" spreadMethod="pad" id="q"><stop stop-opacity=".263" stop-color="#fff" offset="0"/><stop stop-opacity=".412" stop-color="#fff" offset="1"/></linearGradient><linearGradient y2=".046" y1="1.114" x2=".188" x1=".806" spreadMethod="pad" id="r"><stop stop-opacity=".263" stop-color="#fff" offset="0"/><stop stop-opacity=".412" stop-color="#fff" offset="1"/></linearGradient><linearGradient y2="-.593" y1=".537" x2="-.649" x1=".589" spreadMethod="pad" id="s"><stop stop-opacity=".263" stop-color="#fff" offset="0"/><stop stop-opacity=".412" stop-color="#fff" offset="1"/></linearGradient><linearGradient y2="-.238" y1=".629" x2="-.761" x1=".681" spreadMethod="pad" id="t"><stop stop-opacity=".263" stop-color="#fff" offset="0"/><stop stop-opacity=".412" stop-color="#fff" offset="1"/></linearGradient><linearGradient y2=".848" y1=".42" x2="-.871" x1=".969" spreadMethod="pad" id="u"><stop stop-opacity=".263" stop-color="#fff" offset="0"/><stop stop-opacity=".412" stop-color="#fff" offset="1"/></linearGradient><linearGradient y2="1.312" y1=".291" x2="1.236" x1=".365" spreadMethod="pad" id="v"><stop stop-opacity=".263" stop-color="#fff" offset="0"/><stop stop-opacity=".412" stop-color="#fff" offset="1"/></linearGradient><linearGradient y2=".408" y1=".556" x2=".815" x1=".388" spreadMethod="pad" id="w"><stop stop-opacity=".263" stop-color="#fff" offset="0"/><stop stop-opacity=".412" stop-color="#fff" offset="1"/></linearGradient><linearGradient y2="-.098" y1=".593" x2="-.058" x1=".852" spreadMethod="pad" id="x"><stop stop-opacity=".263" stop-color="#fff" offset="0"/><stop stop-opacity=".412" stop-color="#fff" offset="1"/></linearGradient><linearGradient y2=".997" y1=".336" x2=".259" x1=".718" spreadMethod="pad" id="y"><stop stop-opacity=".471" stop-color="#fff" offset="0"/><stop stop-opacity=".671" stop-color="#fff" offset="1"/></linearGradient><linearGradient y2=".123" y1=".558" x2=".925" x1=".221" spreadMethod="pad" id="z"><stop stop-opacity=".471" stop-color="#fff" offset="0"/><stop stop-opacity=".671" stop-color="#fff" offset="1"/></linearGradient><linearGradient y2=".78" y1=".277" x2="-.042" x1=".714" spreadMethod="pad" id="A"><stop stop-opacity=".471" stop-color="#fff" offset="0"/><stop stop-opacity=".671" stop-color="#fff" offset="1"/></linearGradient><linearGradient y2=".976" y1=".368" x2=".358" x1=".764" spreadMethod="pad" id="B"><stop stop-opacity=".263" offset="0"/><stop stop-opacity=".373" offset="1"/></linearGradient><linearGradient y2=".754" y1=".246" x2=".096" x1=".883" spreadMethod="pad" id="C"><stop stop-opacity=".263" offset="0"/><stop stop-opacity=".373" offset="1"/></linearGradient><linearGradient y2=".149" y1=".808" x2=".356" x1=".748" spreadMethod="pad" id="D"><stop stop-opacity=".263" offset="0"/><stop stop-opacity=".373" offset="1"/></linearGradient><linearGradient y2="-.054" y1=".766" x2=".498" x1=".498" spreadMethod="pad" id="E"><stop stop-opacity=".263" offset="0"/><stop stop-opacity=".373" offset="1"/></linearGradient><linearGradient y2="-.3" y1=".779" x2=".498" x1=".498" spreadMethod="pad" id="F"><stop stop-opacity=".263" offset="0"/><stop stop-opacity=".373" offset="1"/></linearGradient><linearGradient y2="-.054" y1=".713" x2=".185" x1=".778" spreadMethod="pad" id="G"><stop stop-opacity=".263" offset="0"/><stop stop-opacity=".373" offset="1"/></linearGradient><linearGradient y2="1.09" y1=".055" x2=".66" x1=".275" spreadMethod="pad" id="H"><stop stop-opacity=".263" offset="0"/><stop stop-opacity=".373" offset="1"/></linearGradient><linearGradient y2=".748" y1=".399" x2=".58" x1=".182" spreadMethod="pad" id="I"><stop stop-opacity=".263" offset="0"/><stop stop-opacity=".373" offset="1"/></linearGradient><linearGradient y2=".772" y1=".318" x2=".203" x1=".908" spreadMethod="pad" id="J"><stop stop-opacity=".114" offset="0"/><stop stop-opacity=".373" offset="1"/></linearGradient><linearGradient y2=".824" y1=".155" x2=".503" x1=".503" spreadMethod="pad" id="K"><stop stop-opacity=".114" offset="0"/><stop stop-opacity=".373" offset="1"/></linearGradient><linearGradient y2="1.053" y1=".293" x2=".763" x1=".449" spreadMethod="pad" id="L"><stop stop-opacity=".114" offset="0"/><stop stop-opacity=".373" offset="1"/></linearGradient><linearGradient y2=".676" y1=".315" x2="-.378" x1=".807" spreadMethod="pad" id="M"><stop stop-opacity=".114" offset="0"/><stop stop-opacity=".373" offset="1"/></linearGradient><linearGradient y2="1.151" y1=".339" x2=".008" x1=".752" spreadMethod="pad" id="N"><stop stop-opacity=".361" offset="0"/><stop stop-opacity=".58" offset="1"/></linearGradient><linearGradient y2=".586" y1=".312" x2=".288" x1=".795" spreadMethod="pad" id="O"><stop stop-opacity=".361" offset="0"/><stop stop-opacity=".58" offset="1"/></linearGradient><linearGradient y2=".799" y1=".286" x2=".003" x1=".957" spreadMethod="pad" id="P"><stop stop-opacity=".361" offset="0"/><stop stop-opacity=".58" offset="1"/></linearGradient><linearGradient y2=".841" y1=".309" x2=".067" x1=".922" spreadMethod="pad" id="Q"><stop stop-opacity=".361" offset="0"/><stop stop-opacity=".58" offset="1"/></linearGradient><linearGradient y2=".769" y1=".4" x2=".06" x1=".907" spreadMethod="pad" id="R"><stop stop-opacity=".361" offset="0"/><stop stop-opacity=".58" offset="1"/></linearGradient><linearGradient y2="1.09" y1=".16" x2=".016" x1=".958" spreadMethod="pad" id="S"><stop stop-opacity=".361" offset="0"/><stop stop-opacity=".58" offset="1"/></linearGradient><linearGradient y2=".941" y1=".154" x2=".5" x1=".5" spreadMethod="pad" id="T"><stop stop-opacity=".361" offset="0"/><stop stop-opacity=".58" offset="1"/></linearGradient><linearGradient y2=".814" y1=".583" x2=".303" x1=".423" spreadMethod="pad" id="U"><stop stop-opacity=".361" offset="0"/><stop stop-opacity=".58" offset="1"/></linearGradient><linearGradient y2=".614" y1=".124" x2=".432" x1=".924" spreadMethod="pad" id="V"><stop stop-opacity=".502" offset="0"/><stop stop-opacity=".714" offset="1"/></linearGradient><linearGradient y2="1.135" y1=".043" x2=".181" x1=".652" spreadMethod="pad" id="W"><stop stop-opacity=".502" offset="0"/><stop stop-opacity=".714" offset="1"/></linearGradient><linearGradient y2="1.78" y1=".307" x2=".82" x1=".44" spreadMethod="pad" id="X"><stop stop-opacity=".502" offset="0"/><stop stop-opacity=".714" offset="1"/></linearGradient><linearGradient y2=".79" y1=".169" x2=".157" x1=".699" spreadMethod="pad" id="Y"><stop stop-opacity=".502" offset="0"/><stop stop-opacity=".714" offset="1"/></linearGradient><linearGradient y2=".019" y1=".751" x2=".134" x1=".73" spreadMethod="pad" id="Z"><stop stop-opacity=".502" offset="0"/><stop stop-opacity=".714" offset="1"/></linearGradient><linearGradient y2=".926" y1=".12" x2=".738" x1=".326" spreadMethod="pad" id="aa"><stop stop-opacity=".502" offset="0"/><stop stop-opacity=".714" offset="1"/></linearGradient><linearGradient y2=".528" y1=".142" x2=".357" x1=".862" spreadMethod="pad" id="ab"><stop stop-opacity=".502" offset="0"/><stop stop-opacity=".714" offset="1"/></linearGradient><linearGradient y2=".666" y1=".168" x2=".745" x1=".364" spreadMethod="pad" id="ac"><stop stop-opacity=".502" offset="0"/><stop stop-opacity=".714" offset="1"/></linearGradient><linearGradient y2=".266" y1=".693" x2=".727" x1=".192" spreadMethod="pad" id="ad"><stop stop-opacity=".502" offset="0"/><stop stop-opacity=".714" offset="1"/></linearGradient><linearGradient y2=".498" y1=".498" x2="1.095" x1=".129" spreadMethod="pad" id="ae"><stop stop-opacity=".502" offset="0"/><stop stop-opacity=".714" offset="1"/></linearGradient><linearGradient y2=".15" y1=".621" x2=".866" x1=".349" spreadMethod="pad" id="af"><stop stop-opacity=".722" offset="0"/><stop stop-opacity=".973" offset="1"/></linearGradient><linearGradient y2=".073" y1="1.148" x2=".801" x1=".11" spreadMethod="pad" id="ag"><stop stop-opacity=".722" offset="0"/><stop stop-opacity=".973" offset="1"/></linearGradient><linearGradient y2="-.819" y1="2.63" x2=".871" x1=".13" spreadMethod="pad" id="ah"><stop stop-opacity=".722" offset="0"/><stop stop-opacity=".973" offset="1"/></linearGradient><linearGradient y2="-.405" y1="1.094" x2=".874" x1=".13" spreadMethod="pad" id="ai"><stop stop-opacity=".722" offset="0"/><stop stop-opacity=".973" offset="1"/></linearGradient><linearGradient y2=".076" y1=".853" x2="1.034" x1="-.03" spreadMethod="pad" id="aj"><stop stop-opacity=".722" offset="0"/><stop stop-opacity=".973" offset="1"/></linearGradient><linearGradient y2="-.051" y1=".873" x2=".863" x1="-.047" spreadMethod="pad" id="ak"><stop stop-opacity=".722" offset="0"/><stop stop-opacity=".973" offset="1"/></linearGradient><linearGradient y2=".188" y1=".746" x2="1.099" x1=".194" spreadMethod="pad" id="al"><stop stop-opacity=".722" offset="0"/><stop stop-opacity=".973" offset="1"/></linearGradient><radialGradient spreadMethod="pad" r="819.2" id="d" gradientUnits="userSpaceOnUse" gradientTransform="translate(158.8 43.15) scale(.2076)" cy="0" cx="0"><stop stop-color="#406cae" offset=".18"/><stop stop-color="#7589d7" offset=".651"/></radialGradient><radialGradient spreadMethod="pad" r="819.2" id="e" gradientUnits="userSpaceOnUse" gradientTransform="translate(31.25 -34.45) scale(.0767)" cy="0" cx="0"><stop stop-color="#141009" offset=".18"/><stop stop-color="#42321c" offset=".651"/></radialGradient><radialGradient spreadMethod="pad" r="819.2" id="f" gradientUnits="userSpaceOnUse" gradientTransform="translate(90 22.7) scale(.0348)" cy="0" cx="0"><stop stop-color="#8c6137" offset=".259"/><stop stop-color="#bf9159" offset=".804"/></radialGradient><radialGradient spreadMethod="pad" r="819.2" id="g" gradientUnits="userSpaceOnUse" gradientTransform="translate(84.25 38.1) scale(.0287)" cy="0" cx="0"><stop stop-color="#8c6137" offset=".259"/><stop stop-color="#bf9159" offset=".804"/></radialGradient><radialGradient spreadMethod="pad" r="819.2" id="h" gradientUnits="userSpaceOnUse" gradientTransform="translate(-12.8 178.65) scale(.0402)" cy="0" cx="0"><stop stop-color="#916a00" offset=".145"/><stop stop-color="#ca8d02" offset=".824"/></radialGradient><radialGradient spreadMethod="pad" r="819.2" id="i" gradientUnits="userSpaceOnUse" gradientTransform="translate(45.05 183.6) scale(.0483)" cy="0" cx="0"><stop stop-color="#583e01" offset=".302"/><stop stop-color="#916a00" offset=".824"/></radialGradient><radialGradient spreadMethod="pad" r="819.2" id="j" gradientUnits="userSpaceOnUse" gradientTransform="translate(50.45 121.95) scale(.0857)" cy="0" cx="0"><stop stop-color="#35568c" offset=".302"/><stop stop-color="#7380d7" offset=".824"/></radialGradient><radialGradient spreadMethod="pad" r="819.2" id="am" gradientUnits="userSpaceOnUse" gradientTransform="translate(16.05) scale(.02)" cy="0" cx="0"><stop stop-opacity=".6" stop-color="#9a6a3a" offset=".537"/><stop stop-opacity=".6" stop-color="#c1935b" offset=".647"/><stop stop-opacity="0" stop-color="#c1935b" offset=".882"/></radialGradient><radialGradient spreadMethod="pad" r="819.2" id="an" gradientUnits="userSpaceOnUse" gradientTransform="scale(.0057)" cy="0" cx="0"><stop stop-opacity=".267" stop-color="#f30" offset="0"/><stop stop-opacity="0" stop-color="#f15825" offset="1"/></radialGradient><radialGradient spreadMethod="pad" r="819.2" id="ap" gradientUnits="userSpaceOnUse" gradientTransform="scale(.0175)" cy="0" cx="0"><stop stop-opacity=".6" stop-color="#ffecc1" offset=".58"/><stop stop-opacity="0" stop-color="#facb9d" offset="1"/></radialGradient><path fill-rule="evenodd" fill="#6c84d0" d="m62.7-87.1.3.3 22.8 45.65 12.05 52.9q-1.15 5-2.6 9.2-5.6 16-16.1 20.9l-3.8.3V8.9L55.4-11.75l-23.85 8.7-2.45 5.3L19.3 7l10 7.2.5.85v.05l2.35 4.2-4.8-1.2-.75-1.15-8.5-.7-.15.05-22.5 2.9-4.4.2-5.05-.25-6.15-1.1-.15-.05h-.05l-.05-.05h-.1q-3.1-.9-5.6-2.35l-.25-.15-4.6-6.2q-4.2-2.05 3.35-5.4l1.15.35 5.25.25 2.45-.6 2.15-1.05-.85 4.6q2.35 3.15 7.9 4.6l9.6.1.1-.05 3.5-1.3.85-5.55.75-2.8L15.4 5.25l1.35-18.2-37.8-43.15-.05-.05-2.7-3.05-29.5 6.85h-.1l-4.5 1.05-4.25.95L-51.6-62.5l2.5-3.25.5-.6q5.85-6.5 13.75-8.1l.75-.15-4.05-4.45-.55-.55-.3-.3-.55-.55-3.8-3-1.9-1.25-2.35-1.45-.1.1-8.45 6.15-8.15 6.5-1.7 17.5q-11.5 13.15-15.75 29.7l-.5.4-2.3 1.65 1-3.45q2.1-7 5.35-13.55Q-74-49.6-68-57.35l.7-13.5-5.05 4.5-.65.6-.65.65-5.05 5.15-.95 1.05.35-1.25q.8-2.8 2-5.6l.05-.15.2-.45q2.85-6.75 7.65-13.55 5.35-7.6 13.1-15.3l7.25.65q7.15 1 13.45 3.55l.25.15.9.35h.05l17.45-4.85 44.45-8.55 35.2 16.8M50.9-31.85v.2l.05-.2h-.05m.65 4.25h-.05l.05.2v-.2" transform="translate(84.55 103.9)" id="a"/><path fill-rule="evenodd" fill="#fecd08" d="m8-50.05.25.15-.4.85-8.7 11.15.8.75 9.3-.55 18.5 2.3L38.8-47.45l13.5-1.75.05.05-15.45 21.3-3.4 8.05 2.55-4.3-.3 1.3-.05.1-.05.2-1.15 4.9-.8 3.9-.25 1.6-1.05-.6-9.05-3.55-.05-.15-1-1.6-4.3-1.65-6.8-.85L0-16.7h-.05l-9 3.05v-.05l-.3-.7-3.7-2.4-7.7-6.2-1.6-2.6-.45-5.65 1.3-1.25 2.95-2.75L-8.3-43.8l.15-.15 1.25-.95 1.25-1 .55-.45.85-.65.7-.55 2.8-2.2 4.15-6.5 4.6 6.2m52.5 46.8h.05l.1.05.4.75-10.8 15-.15.1v-.05l-3.35-5.8L59.8-2.7l.7-.55M43.95 21.3l-5.65 5-14.8 13-3.55 3.1-.35 5.5 1.9 2.1-3.2 1.95-1.85 4.35-8.2-4.15-.05-.05h-.05L-8.1 46.3h-.1l-5.25-1.9-1.6-4.4-20.65-4.85-7.8 2.1-2.45 4.95-15.1.1 9.9-11.3 9.75.3q8.1-2.1 14.55-5l4.15-2.05.4-.25.9-.5 9-6.4 9.45 8.95 8.2 12.35 10.55-2.8 1.8-2.65L40.85 12.3l5 6.4-1.9 2.6" transform="translate(61.05 56.25)" id="b"/><path fill-rule="evenodd" fill="#6c84d0" d="m33.55-25 .05-.2.05-.1.3-1.3 6.8-2.35 2.8-1.1q3.35-1.2 4.95-1 4 0 7.9 3 3.35 2.55 6.6 7.35l.8 1.25.1.15.55 1.15.95 2.7.25 2.15-.2 1.85q-.25.1-.2.45v.2l-.05.15.1.2v.15l-.2.1.4.6.05.1-.1 2.45-3.2 2.3-2.1.75-1.2-.95-.4-.75-.1-.05h-.05l-.7.55-13.05 9.5L48 10.1v.05l.05.05.15.2 1.55 6.75-1.8 2.5-2.35.1-1.95-3.45.1-.1-5-6.4L15.5 30.45l-1.8 2.65-10.55 2.8-8.2-12.35-9.45-8.95-9 6.4-.9.5-.4.25-4.15 2.05q-6.45 2.9-14.55 5l-13.75-.45-6.65-1.1-1.7-4.15 1.7-6.1.7-11.55 5.55-3.15 4.15-5.55v-.05l.3-2.65 2.1-2.4.1-3.65 2.2-.55 4.45-4.5-.45.1-.8-.9-.35-3.6.45-.1q2.45-.55 4.3-1.6l4.75-3.3-5.85-1.15-2.3 2.4-1.4.4q-1.5.2-3.15-.35l-.2-.1-1.1-.5-.85-4.05 4.45-1.4 6.25-4.7 4.3 1.25 7.65-.3 5.8 9.45 7.7 6.2.8.55.2.3.15-.1 2.55 1.65.3.7v.05l9-3.05h.05L9.1-23l6.8.85 4.3 1.65 1 1.6.05.15 9.05 3.55 1.05.6.25-1.6.8-3.9 1.15-4.9M21.6-1.55l-.75.6.8-.6h-.05m10.7-12.5v.05l.05-.05h-.05m23.35 4.6v-.1l-.1.05.1.05m9.55-1.2-.05.05h.05v-.05" transform="translate(65.6 35.9)" id="c"/><path fill-rule="evenodd" fill="url(#am)" d="M16.05-16.05q6.65 0 11.35 4.7Q32.1-6.65 32.1 0q0 6.65-4.7 11.35-4.7 4.7-11.35 4.7-6.65 0-11.35-4.7Q0 6.65 0 0q0-6.65 4.7-11.35 4.7-4.7 11.35-4.7" transform="translate(0 16.05)" id="av"/><path stroke-width=".05" stroke-opacity=".102" stroke-linejoin="round" stroke-linecap="round" stroke="#381c00" fill="none" d="M0 17.45q9.35-4.8 17.2-8.4l4.1-1.85.85-.35 6.65-2.7 2.75-1.05L40.9 0m16.15 10.4L54 16.45v.05l-.35.55q-3.8 6.15-9.3 12.65l-1.3 1.5-6.25 6.7M21.3 7.2l-3.2 2.95q-3.8 3.75-6.35 7.35l8.85-.2m23.75 12.4-1.65.7Q31.15 35.1 19 35.55l-1.2.05m-6.05-18.1q-3.4 4.7-4.7 9.15m15.25-9.4 31.7-.8" id="aw"/><path fill-rule="evenodd" fill="url(#an)" d="M3.3-2.55Q4.65-1.5 4.65 0q0 1.5-1.35 2.55Q1.95 3.6 0 3.6q-1.95 0-3.3-1.05Q-4.65 1.5-4.65 0q0-1.5 1.35-2.55Q-1.95-3.6 0-3.6q1.95 0 3.3 1.05" transform="translate(4.65 3.6)" id="ax"/><path fill-rule="evenodd" fill="#fef1de" d="M44.55 34.05q-1.3-.45-1.8-1.15-.55-.7-.15-1.25.3-.6 1.4-.75l2.25.3q1.2.4 1.75 1.1.6.7.25 1.3-.4.6-1.45.7l-2.25-.25" transform="translate(-42.45 -30.85)" id="az"/><path fill-rule="evenodd" fill="url(#ap)" d="M10.05-10.05Q14.2-5.9 14.2 0t-4.15 10.05Q5.9 14.2 0 14.2t-10.05-4.15Q-14.2 5.9-14.2 0t4.15-10.05Q-5.9-14.2 0-14.2t10.05 4.15" transform="translate(14.2 14.2)" id="ao"/><path fill-rule="evenodd" fill-opacity="0" fill="#f0f" d="M0 0h102.95v45H0V0" id="aq"/><use xlink:href="#a" width="182.4" height="146.05" id="ar"/><use xlink:href="#b" width="122.1" height="112.55" id="as"/><use xlink:href="#c" width="131.25" height="71.8" id="at"/><use xlink:href="#ao" width="28.4" height="28.4" id="aA"/><use xlink:href="#aq" width="102.95" height="45" id="aE"/><g id="au"><path fill-rule="evenodd" fill="#7380d7" d="m33.95 89.95.35.2-.15.1-.2-.3m35.95 17.2h.05l-.8.6.75-.6m33.95-7.95.1-.05v.05h-.1" transform="translate(38.2 63.2)"/><path fill-rule="evenodd" fill="#faddaf" d="m36.7-2.7.25-.1-.1.1h-.15m8.7 17.2-.9-1.1.6-.3 3.5-1.55-1.75 1.55-1.45 1.4m64.15 49.8 1.95 1.5.2.15.1.15.3.5q4.5 7.25 2.1 14.55l-2 8.25-.1-.15-.8-1.25q-3.25-4.8-6.6-7.35l1.8-5.25-2.85-5.7-2-2.5-7.55 3-5.95 9.9-4.65 1.6 4.85-6.2q4.75-8.7 10.7-12.75l10.5 1.55m4.4 31.1.25-.1-.2 3.45-.2 2.9h-.05l.1-2.45-.1-.7V98.35l-.1-.75q-.1-.35.15.45l-.05-.8.2-1.85m-5.25-30.05-1.85-.8-3.1 1.05q2.75 2.8 4.2 6.35l1.05-3.5-.3-3.1m-5.15-1.2-3.85-.7-3.2 2.4-.6 1.3q3.35-1.7 7.75-3h-.1m-22-1.65-3.95 4.3-13.85.55-3.7 1.7-3.1-.35 3.2-2.65-11.15.3-2.9 1.05 1.95-2.55 3.2-.2 30.3-2.15m31.95 35.55v.05h-.05l.05-.05m.25.45.25.25-.25-.25M35.2 31.8q1.65-4.95 4.25-8.5l41.3-1.6-.05.05-.6.95q-3.55 5.55-8.45 11.35l-1.3 1.5-.35-.8q-11.55 4.7-23.7 5.15l.05.9-1.25-.85q-5.2-3.8-9.9-8.15m10.35 4.65 1.9-.9 4.95.9-4.95-.9-1.9.9m10.05-2.8Q51.55 30.7 42 29.1l-.95.95-.15 2.2.15-2.2.95-.95q9.55 1.6 13.6 4.55" transform="translate(38.2 63.2)"/><path fill-rule="evenodd" fill="#141009" d="M27.15-11.65h.1-.1M93.4 23.3l3.9 4.45-1.35 18.2L85.8 43.1l3.1-12.2 4.5-7.6" transform="translate(38.2 63.2)"/><path fill-rule="evenodd" fill="#916a00" d="m60.15 186.9 1.95-10.7 3.95-7.9-.15-2.55-2.7-3 3.9 1.95.7 3.3-3.2 10-1.25 9.05-3.2-.15" transform="translate(38.2 63.2)"/><path fill-rule="evenodd" fill="#ccc" d="m.25 148.4 2.45-4.95 7.8-2.1 20.65 4.85 1.4 3.85.2.55-.2.45h-.1l.1-1-16.35-4.3-5.25.95-6.45 13.45 1.45.35 1.65.45-.5 3.75-20-.25-.75-.75 1.8-4.85 5.55-1.4 1.75.45 4.1-8.15.7-1.35m-9.35 20.7 1.6-.5 8.95 1.9.5 1.45-3.85 11.65-3.8-.2 2.45-7.8-6.4-1.2-2.2 8.65-1.25-.05 4-13.9m13.6-8.95-9.05-2.25 9.05 2.25M-9.1 172.1l6.45 1.2.4-1.75-6.15-1.1-.7 1.65" transform="translate(38.2 63.2)"/><path fill-rule="evenodd" fill="#d9b67b" d="m29.25 8.5.85-3.55-.35-.95Q32 5.25 32.5.2l.1-.15.45 2.9-5.45 11.4.4-1.25.2-.7 1-3.8.05-.1m7.7-11.3q1.2-2 3.05-2.4l-1.4 1.65-1.65.75" transform="translate(38.2 63.2)"/><path fill-rule="evenodd" fill="#fde4bd" d="m51.45 10.35.7-.3q8-3.3 16.05-5.7l6.95 8.75 4.95 6.25.6.75.55.7-40.8 1.05 11-11.5" transform="translate(38.2 63.2)"/><path fill-rule="evenodd" fill="#fce2b8" d="m32.5-.9 4.2-1.8h.15l.1-.1 1.65-.75L40-5.2l.25-.25-.05 2.05q.05 1.5.35 2.95.3 1.6.9 3.2 1.8 1.75 5.05 2.35l2 .25q3.6-2.15 5.15-4.7l.6-1.1Q56-3.9 55.7-7l3.6.15 8.9 11.2q-8.05 2.4-16.05 5.7l-.7.3-2 .85-.85.35-3.5 1.55-.6.3.9 1.1q-3.8 3.75-6.35 7.35-3.4 4.7-4.7 9.15l-1.3-1.25-.1-.1Q29.7 27 28.25 24.6q-.75-1.3-1.05-2.45l-.05-.25-.1-.5q-.5-3.85-.15-4.7l.3-.9.4-1.45 5.45-11.4-.45-2.9.2-.2.05-.45-.35-.3" transform="translate(38.2 63.2)"/><path fill-rule="evenodd" fill="#ebcd9e" d="m63.95 43.5-2.15 1.05-2.45.6-5.25-.25-1.15-.35q-1.1-.35-2.25-.9l-4.35-2.85-.05-.9q12.15-.45 23.7-5.15l.35.8 1.3-1.5q4.9-5.8 8.45-11.35l.6-.95.05-.05-41.3 1.6q-2.6 3.55-4.25 8.5l-.85-.8q1.3-4.45 4.7-9.15 2.55-3.6 6.35-7.35l1.45-1.4 1.75-1.55.85-.35 2-.85-11 11.5 40.8-1.05.05.05 1.2 1.5q.3 2.45-.55 5.25l-1.25 3.2-.6 1.15L76.85 37l-12.9 6.5m45.6 20.8.75.1 1.2 1.4-1.95-1.5m2.25 1.8 6.05 6.75q2.75 10.55-4.15 20.4l-.95-2.7-.55-1.15 2-8.25q2.4-7.3-2.1-14.55l-.3-.5M82.9 81.9l7.7-12.15 6.45-7.3 2 .3Q93.1 66.8 88.35 75.5l-4.85 6.2-.6.2" transform="translate(38.2 63.2)"/><path fill-rule="evenodd" fill="#d6b88c" d="m21.2 76.3.15-.05-.05.2-.1-.15m2.1-1.25.1-.1.1.95v.3l-.2-1.15" transform="translate(38.2 63.2)"/><path fill-rule="evenodd" fill="#583e01" d="m32.75 150.6 5.25 1.9-20.55 2.8L10 184.25l-9.25-.5 4.9-15.45.5 1.1h1.4l3.05-2.75v-5l-.65-.15-2.35-.55 4.55-9.9 4-1.35 14.25 1.2 2.05.15h.1l.2-.45M48 156.05l6.35 2.25.1.05 8.2 4.15.55.25 2.7 3 .15 2.55-3.95 7.9-1.95 10.7-14.25-.75 7.9-24.35-5.8-5.75" transform="translate(38.2 63.2)"/><path fill-rule="evenodd" fill="#203753" d="m60.15 58.65.05.05h-.05v-.05" transform="translate(38.2 63.2)"/><path fill-rule="evenodd" fill="#71573e" d="m42.4-38.35 4.05 4.45-.75.15q-7.9 1.6-13.75 8.1l-.5.6-2.5 3.25 1.65-3.25.35-.6Q35-32.5 42.4-38.35" transform="translate(38.2 63.2)"/><path fill-rule="evenodd" fill="#2e4f76" d="m113.5 98.05.05-.15v-.2q-.05-.35.2-.45l.05.8q-.25-.8-.15-.45l.1.75V98.5l.1.7-.05-.1-.2-.7v-.15l-.1-.2m-32.9-3.4h.05l-.05.05v-.05" transform="translate(38.2 63.2)"/><path fill-rule="evenodd" fill="#fc0" d="M54.35 158.3h.05l.05.05-.1-.05" transform="translate(38.2 63.2)"/><path fill-rule="evenodd" fill="#6d4a29" d="m96.35 118.9-.05-.05.15-.1-.1.1v.05" transform="translate(38.2 63.2)"/><path fill-rule="evenodd" fill="gray" d="m4.5 160.15 6.45-13.45 5.25-.95 16.35 4.3-.1 1-2.05-.15-14-3.65-4.05 1.3-6.4 11.95-1.45-.35m-17.4 4.3 20 .25.5-3.75 2.35.55-1.05 3.85h-.1l-14.95 1.15-2.1-.3-3.5-.55-1.15-1.2m4.4 2.65 11.6 1.95.5 1.3-4.5 13.3-1-.05 3.85-11.65-.5-1.45-8.95-1.9-1.6.5.6-2" transform="translate(38.2 63.2)"/><path fill-rule="evenodd" fill="#d5af8a" d="m111.5 65.8-1.2-1.4-.75-.1-10.5-1.55-2-.3-6.45 7.3-7.7 12.15-.65.2-2.55 4.3 3.4-8.05L96.85 59.4l14.45 2.8 7.75 4.05 3.85 6-.55 15.7-8.15 7.35-.25.1-.25-2.15q6.9-9.85 4.15-20.4l-6.05-6.75-.1-.15-.2-.15m-28.35-5.05-1.6 1.75-30.3 2.15 3.65-3.25 3.4 1.1 24.85-1.75m-43.85.55-3.2-2.4 3.05-2.3 1.4 3.7-1.25 1m2.65-2.1-.8-3 6.65-3.45-2.35 3.7-2.8 2.2-.7.55m-20.6 17.05 1.95-1.2.2 1.15.1 1.05.25 3.35-2.55-4.15.05-.2m3.35-2.55-.2-4.85 9.35-7.3 4.05.85-10.25 8.55-2.95 2.75" transform="translate(38.2 63.2)"/><path fill-rule="evenodd" fill="#dbbc9d" d="m40.55 60.3-1.4-3.7-3.05 2.3 3.2 2.4-1.25.95-.15.15-4.05-.85-9.35 7.3.2 4.85-1.3 1.25-.1.1-1.95 1.2-.15.05-1.55-2.55-.9.05.1-.45.7-2.4q2.2-6.45 6.5-11.1l1.2-1.2q2.25-2.15 5-3.9 4.55-2.4 9.05-2.6l7.05-.2-.55.8-6.65 3.45.8 3-.85.65q-.3.2-.55.45" transform="translate(38.2 63.2)"/><path fill-rule="evenodd" fill="#bf9159" d="m27.25-11.65 4.1-.95 25.4-5.9 2.7 3.05.05.05 2.1 2.45.35.35 13.4 15.3-7.15 1.65-8.9-11.2L55.7-7l-.4-1.8q-.65-1.05-1.5-1.5l-1-.3-.1-.3-2.35-.7-.55.2q-3.5 1.5-7 4.25l-.8.65h.4l-1.75 1.2-.4-.15-.25.25q-1.85.4-3.05 2.4l-.25.1-4.2 1.8-4.4-3.35-.85-1-.15-3 .15-3.4" transform="translate(38.2 63.2)"/><path fill-rule="evenodd" fill="url(#d)" d="m131.5 8.85-.05.2v-.2h.05m.6 4.25v.2l-.05-.2h.05" transform="translate(38.2 63.2)"/><path fill-rule="evenodd" fill="url(#e)" d="m16.25-32.7 8.15-6.5 8.45-6.15.1-.1L35.3-44l1.9 1.25 3.8 3 .55.55.3.3.55.55Q35-32.5 30.95-25.65l-.35.6-1.65 3.25-9.3 10.75-.2.2-1.05 1.2 4.25-.95 4.5-1.05h.1l-.15 3.4.15 3q.2 1.9.65 3.85L29.75 4l.35.95-.85 3.55-9.55-6.4Q10 6.85.85 13.1l-2.05 1.4Q3.05-2.05 14.55-15.2l1.7-17.5" transform="translate(38.2 63.2)"/><path fill-rule="evenodd" fill="url(#f)" d="M75.35 2.7 93.4 23.3l-4.5 7.6L76.85 37l3.25-5.05.6-1.15 1.25-3.2q.85-2.8.55-5.25l-1.2-1.5-.05-.05-.55-.7-.6-.75-4.95-6.25-6.95-8.75 7.15-1.65" transform="translate(38.2 63.2)"/><path fill-rule="evenodd" fill="url(#g)" d="m85.8 43.1-.75 2.8-.85 5.55-3.5 1.3-.1.05-9.6-.1q-5.55-1.45-7.9-4.6l.45-2.45.05-.35.35-1.8 12.9-6.5 12.05-6.1-3.1 12.2" transform="translate(38.2 63.2)"/><path fill-rule="evenodd" fill="#c99869" d="M54.45 56.3q2.5 1.45 5.6 2.35l.1.05h.1l.15.05 6.15 1.1 5.05.25 4.4-.2 9-1.15-1.85 2L58.3 62.5l-3.4-1.1-3.65 3.25-3.2.2 6-7.7.4-.85m44.2.65 8.5.7.75 1.15 4.8 1.2 5.05 4.25 1.3 2-7.75-4.05-14.45-2.8 1.8-2.45" transform="translate(38.2 63.2)"/><path fill-rule="evenodd" fill="url(#h)" d="m-12.9 164.45 1.15 1.2 3.5.55-.25.9-.6 2-4 13.9-19.85-1.1-3.95-7.55 10.65-11.7 3.85-12.45 21.95-.45-4.1 8.15-1.75-.45-5.55 1.4-1.8 4.85.75.75" transform="translate(38.2 63.2)"/><path fill-rule="evenodd" fill="url(#i)" d="M38 152.5h.1l9.9 3.55 5.8 5.75-7.9 24.35-35.9-1.9 7.45-28.95L38 152.5" transform="translate(38.2 63.2)"/><path fill-rule="evenodd" fill="#e0a901" d="m-36.9 174.35-1.05-2.05 8.3-9.85 5.85-13.85 8.95-.1 15.1-.1-.7 1.35-21.95.45-3.85 12.45-10.65 11.7" transform="translate(38.2 63.2)"/><path fill-rule="evenodd" fill="#646464" d="m5.95 160.5 6.4-11.95 4.05-1.3 14 3.65-14.25-1.2-4 1.35-4.55 9.9-1.65-.45m-14.2 5.7 2.1.3 14.95-1.15h.1l1.05-3.85.65.15v5l-3.05 2.75h-1.4l-.5-1.1-4.9 15.45-1.65-.1 4.5-13.3-.5-1.3-11.6-1.95.25-.9m2.1.3 11.8 1.8-11.8-1.8" transform="translate(38.2 63.2)"/><path fill-rule="evenodd" fill="#eae5db" d="m-9.1 172.1.7-1.65 6.15 1.1-.4 1.75-6.45-1.2m3.4 11.3-6.15-.35 2.2-8.65 6.4 1.2-2.45 7.8" transform="translate(38.2 63.2)"/><path fill-rule="evenodd" fill="#fce8c5" d="m108.7 65.35.3 3.1-1.05 3.5q-1.45-3.55-4.2-6.35l3.1-1.05 1.85.8M88.15 80.1l5.95-9.9 7.55-3 2 2.5 2.85 5.7-1.8 5.25q-3.9-3-7.9-3-1.6-.2-4.95 1l-2.8 1.1-.9.35m15.4-15.95h.1q-4.4 1.3-7.75 3l.6-1.3 3.2-2.4 3.85.7M77.6 66.8l-3.65 4-13.9-1.75 3.7-1.7 13.85-.55m-20.65 1.9-.2-.05-1.3-.15-9.3.55-.8-.75.4-.45.35-.45 2.9-1.05 11.15-.3-3.2 2.65" transform="translate(38.2 63.2)"/><path fill-rule="evenodd" fill="url(#j)" d="m113.8 99.1-.4-.6.2-.1.2.7m-9.85.05v.1l-.1-.05h.1v-.05" transform="translate(38.2 63.2)"/><path fill-rule="evenodd" fill-opacity=".722" fill="#6c84d0" d="M60.05 58.65h.1v.05l-.1-.05" transform="translate(38.2 63.2)"/><path stroke-width=".05" stroke-opacity=".6" stroke-linejoin="round" stroke-linecap="round" stroke="#381c00" fill="none" d="M181.45 16.8 146.25 0 101.8 8.55 84.35 13.4h-.05l-.9-.35m-.25-.15q-6.3-2.55-13.45-3.55l-7.25-.65Q54.7 16.4 49.35 24q-4.8 6.8-7.65 13.55l-.2.45-.05.15q-1.2 2.8-2 5.6L39.1 45l.95-1.05m14.4-13.45L62.6 24l8.45-6.15.1-.1 2.35 1.45m1.9 1.25 3.8 3m.85.85.55.55 4.05 4.45-.75.15q-7.9 1.6-13.75 8.1l-.5.6-2.5 3.25-9.3 10.75m-.2.2-1.05 1.2 4.25-.95 4.5-1.05h.1l4.1-.95m25.4-5.9 2.7 3.05m.05.05 2.1 2.45m-19.2-25.4q-7.4 5.85-11.45 12.7l-.35.6-1.65 3.25M45.1 38.8l.65-.65.65-.6 5.05-4.5 3-2.55m11 27.45-.15-3 .15-3.4"/><path stroke-width="2" stroke-opacity=".6" stroke-linejoin="round" stroke-linecap="round" stroke="#381c00" fill="none" d="m83.55 131.5.4-.45m.35-.45 1.95-2.55 6-7.7"/><path stroke-width=".5" stroke-opacity=".6" stroke-linejoin="round" stroke-linecap="round" stroke="#381c00" fill="none" d="m100.15 50.6 13.4 15.3 18.05 20.6 3.9 4.45-1.35 18.2L124 106.3l-.75 2.8-.85 5.55-3.5 1.3-.1.05-9.6-.1q-5.55-1.45-7.9-4.6l.45-2.45m.05-.35.35-1.8-2.15 1.05-2.45.6-5.25-.25-1.15-.35q-7.55 3.35-3.35 5.4l4.6 6.2.25.15q2.5 1.45 5.6 2.35l.1.05h.1l.15.05 6.15 1.1 5.05.25 4.4-.2 9-1.15 13.5-1.75.15-.05 8.5.7.75 1.15 4.8 1.2-2.35-4.2v-.05l-.5-.85-10-7.2 9.8-4.75 2.45-5.3 23.85-8.7 19.95 20.65v33.25l3.8-.3q10.5-4.9 16.1-20.9 1.45-4.2 2.6-9.2l-12.05-52.9-22.8-45.65M37 77.7l2.05-1.4q9.15-6.25 18.85-11l9.55 6.4.85-3.55-.35-.95m38.45.35 7.15-1.65M65.8 77.55 65.4 79l-.3.9q-.35.85.15 4.7l.1.5.05.25q.3 1.15 1.05 2.45 1.45 2.4 4.7 5.05l.1.1 1.3 1.25.85.8q4.7 4.35 9.9 8.15l1.25.85 4.35 2.85q1.15.55 2.25.9m23.9-7.55 12.05-6.1 4.5-7.6m-4.5 7.6-3.1 12.2m27.9 50.15.25 2.15m.25-.1 8.15-7.35.55-15.7-3.85-6-1.3-2-5.05-4.25m-15.85-.6-13.75 18.95-3.4 8.05 2.55-4.3m5.9-2 .9-.35 2.8-1.1q3.35-1.2 4.95-1 4 0 7.9 3 3.35 2.55 6.6 7.35l.8 1.25.1.15.55 1.15.95 2.7m-16.85-33.85 1.8-2.45m-13.65 1.8-1.85 2-1.6 1.75-3.95 4.3-3.65 4-13.9-1.75-3.1-.35m-.2-.05-1.3-.15-9.3.55-.8-.75m.85 21.2 11.2-3.8 6.8.85 4.3 1.65 1 1.6.05.15 9.05 3.55 1.05.6.25-1.6.8-3.9 1.15-4.9.05-.2.05-.1.3-1.3m31.5 15.15.2-1.85m-.15 2.65-.05-.8m0 4.4h.05m.2-2.9-.25-.25m-49.8-55 12.9-6.5m-47.6-28.5-.05.1-1 3.8-.2.7-.4 1.25m12.95 45.95q.25-.25.55-.45l.85-.65m5.85-6.45.55-.8-7.05.2q-4.5.2-9.05 2.6-2.75 1.75-5 3.9l-1.2 1.2q-4.3 4.65-6.5 11.1l-.7 2.4-.1.45.9-.05 1.55 2.55m2.2-1.35 1.3-1.25m13.35-11.45 1.25-.95 1.25-1m-2.65 2.1-10.25 8.55-2.95 2.75m-39.55 74.8 9.9-11.3-4-.15-6.65-1.1-1.7-4.15 1.7-6.1.7-11.55 5.55-3.15 4.15-5.55v-.05l.3-2.65 2.1-2.4.1-3.65 2.2-.55 4.45-4.5-.45.1-.8-.9-.35-3.6v-.05l.45-.05q2.45-.55 4.3-1.6l4.75-3.3-5.85-1.15-2.3 2.4-1.4.4-3.15-.35-.2-.1-1.1-.5-.85-4.05 4.45-1.4 6.25-4.7 4.3 1.25 6.75-.25m4.75 2.1-.1-.95m.2 2.3.25 3.35 1.6 2.6 7.7 6.2.8.55.35.2 2.55 1.65M59.5 139.65l-.1-.15m.1.15 2.55 4.15m24.5-28.65 1.25-2m-1.8 2.8-2.35 3.7-2.8 2.2-.7.55m38.65 35.45h.05l-.05.05v-.05m-43.45-2.1 8.55-2.9m24.25 17.5-.8.6.75-.6m-46 23.05.9-.5 9-6.4 9.45 8.95 8.2 12.35 10.55-2.8 1.8-2.65 23.25-20.65 5 6.4-.1.1 1.95 3.45 2.35-.1 1.8-2.5-1.55-6.75-.15-.2-.05-.05-3.35-5.85q8.85-6.2 13.05-9.5l.7-.55h.05l.5.8 1.2.95 2.1-.75 3.2-2.3M38.45 211.6l2.45-4.95 7.8-2.1 20.65 4.85 1.4 3.85.2.55 5.25 1.9h.1l9.9 3.55 6.35 2.25.1.05 8.2 4.15 1.85-4.35 3.2-1.95-1.9-2.1-3.8-4.25 9.85-12.65M42.7 223.35l1.45.35m24.45-9.6 2.05.15h.1l.2-.45m-37.7-13.4 9.75.3q8.1-2.1 14.55-5l4.15-2.05m-15.9 30.5 4.55-9.9 4-1.35 14.25 1.2m-22.8 10.05-1.65-.45m-18.85 3.95 1.15 1.2 3.5.55 2.1.3m16.1-5-2.35-.55m-16.1 6.15-.6 2m7.2 14.5 1 .05 1.65.1 4.9-15.45-11.8-1.8m11.8 1.8.5 1.1h1.4l3.05-2.75v-5l-.65-.15m.05 22.75-9.25-.5m9.25.5 35.9 1.9m46.05-61.15-1.8 2.5-5.65 5-14.8 13-3.55 3.1-.35 5.5m-5.65 32.8 3.2.15 1.25-9.05 3.2-10-.7-3.3-3.9-1.95-.55-.25m-2.5 24.4-14.25-.75m17.45.9-.1.55m33.1-68.7v-.05l.1-.1.05.35m10.75-15.35-10.8 15M34.2 79.75l2.3-1.65.5-.4m.75 135.25-4.1 8.15 9.05 2.25m-9.05-2.25-1.75-.45-5.55 1.4-1.8 4.85.75.75m4.65 1.75-.25.9m-28.4 7.25L.25 235.5l8.3-9.85 5.85-13.85 8.95-.1 15.1-.1-.7 1.35M1.3 237.55l3.95 7.55 19.85 1.1 4-13.9m7.2 14.5-3.8-.2-6.15-.35-1.25-.05"/><path stroke-linejoin="round" stroke-linecap="round" stroke="#443d35" fill="none" d="m40.9 32.25.15-2.2.95-.95q9.55 1.6 13.6 4.55" transform="translate(38.2 63.2)"/><path stroke-width=".5" stroke-linejoin="round" stroke-linecap="round" stroke="#bf9159" fill="none" d="m90.6 99.65-4.95-.9-1.9.9"/><path fill-rule="evenodd" fill="#966738" d="m69.6 89.85-.05.1-.05-.15.1.05m26.85 28.9-.15.1v-.05l.15-.05" transform="translate(38.2 63.2)"/><path fill-rule="evenodd" fill-opacity=".4" fill="#fff" d="M32.6 70.15q2.65-.9 5.4.8l.5.35q1.2 1.15 2 3.2l.05.05q.35 2.95-2.5 3.8l-5.4.15-.85-.15q-6.15-1.15-4.9-3.6 1.5-2.3 4.1-3.8.75-.45 1.6-.8m-36.55 70.6-4.1 7.7-6.8.05 7.8-8.9 3.1 1.15" transform="translate(38.2 63.2)"/><path fill-rule="evenodd" fill-opacity=".231" d="m47.8 74.85 6.1-.4-7.7 2.3-2.1-.85-1.95-4.1 2.8 2.5 2.85.55M19.95 141q9.65-1.55 18.75 1.9L20.2 141h-.25m11.95-4.65 2.8 2.2q-4.45-1.5-8.55-.95l5.75-1.25m.85 14.25-1.05-2.9 4.85 1.8 1.55 2.95-.1.05-5.25-1.9" transform="translate(38.2 63.2)"/><path fill-rule="evenodd" fill-opacity=".369" d="M69.6 89.85q4.05 1.4 7.05-2.25l2.25-3.1 2.65-7.9 13.6-16.15.3-.9-12.3 1.2 1.85-2L98.5 57l.05.05-15.45 21.3-3.4 8.05 2.55-4.3-.3 1.3-.05.1-.05.2-1.15 4.9-.8 3.9-.25 1.6-1.05-.6-9.05-3.55.05-.1m-35.65.1 8.25-1.6 1.9 1.85-6.95 2.35v-.05l-.3-.7-2.9-1.85m20.1-32.8-1.5 1.95-5.25-5.5 2.3-3.65 4.6 6.2.25.15-.4.85M69.7 145.5l-3.55 3.1-.35 5.5-3.8-4.25 8.6-11.05-.9 6.7m-4.25 12.1-.95.55-.9 2.2-2.8-.4-2.45-8.9 7.1 6.55M23.9 130.2l.9-.5 9-6.4 9.45 8.95 5.1 7.65-7.95-7.4-4.1-5-1.75-.7-9.35 3.75-1.3-.35m76.1-16.35-3.55 4.9-.15.05-1.55-2.65 5.25-2.3" transform="translate(38.2 63.2)"/><path fill-rule="evenodd" fill-opacity=".58" d="m54.45 143.8 7.55-2 1.8-2.65 23.25-20.65 2.2 2.8-19.7 16-6.35 7.8-7.55 1.1-1.2-2.4m40.3-27.65-1.8-3.15q8.85-6.2 13.05-9.5l.7-.55h.05l.1.05.4.75-7.25 10.1-5.25 2.3" transform="translate(38.2 63.2)"/><path fill-rule="evenodd" fill="url(#k)" d="m83.15 60.75 12.3-1.2-.3.9-13.6 16.15-2.65 7.9-2.25 3.1q-3 3.65-7.05 2.25l-.1-.05-1-1.6-4.3-1.65-6.8-.85-11.2 3.8h-.05l-2.05.7-1.9-1.85-8.25 1.6-.8-.55-7.7-6.2-1.6-2.6-.35-4.4q1.9 1.2 4.05 2.15 5.2 2.35 11.7 3.25l.4.05q2.05-.55 3.8-1.5l-.7 1.85 4.8.2q15.35-.8 24.8-3.85 5-1.6 8.35-3.85 2.35-1.6 3.85-3.45l.05-.1 5.35-6.65L92.6 61l-10.55.95 1.1-1.2" transform="translate(38.2 63.2)"/><path fill-rule="evenodd" fill="url(#l)" d="m48.35 139.9 3.1 4.7 3-.8 1.2 2.4 7.55-1.1 6.35-7.8 19.7-16 2.8 3.6-1.9 2.6-5.65 5-14.8 13 .9-6.7-8.6 11.05 3.8 4.25 1.9 2.1-2.25 1.4-7.1-6.55 2.45 8.9 2.8.4-.95 2.15-8.2-4.15-.05-.05h-.05L51 157.1l1.5-2.4-5.1-9.4-12.5-12.8-2.25-2.3q-3.4.85-6.8 2.3-4.85 2.1-9.7 5.4L-6.5 139l1.55-1.8 9.75.3q8.1-2.1 14.55-5l4.15-2.05.4-.25 1.3.35 9.35-3.75 1.75.7 4.1 5 7.95 7.4" transform="translate(38.2 63.2)"/><path fill-rule="evenodd" fill="#35568c" d="m62.6-17.1.05-.05.05.1-.1-.05m68.85 26.15.05-.2v.2h-.05m14.5-2.4.05-.9.05.9h-.1M-13.65 136.3l-.55-.1.55-.15v.25m8.35-30.7.1-.1v-.1l.15.2h-.25m21.4-22.15.1-.2 2.75 1.55-2.85-1.35M8.2 84.8l-5.6 4.95-.25-2.5.45-.1q2.45-.55 4.3-1.6l1.1-.75" transform="translate(38.2 63.2)"/><path fill-rule="evenodd" fill="#2b466f" d="m103.85 99.2.05.05h-.05v-.05" transform="translate(38.2 63.2)"/><path fill-rule="evenodd" fill="#141009" d="m90.95 48.75-.05-.1.1.05-.05.05" transform="translate(38.2 63.2)"/><path fill-rule="evenodd" fill="#16263a" d="m102.4 49.55.4.3-.45-.2.05-.1" transform="translate(38.2 63.2)"/><path fill-rule="evenodd" fill-opacity=".38" fill="#fff" d="m3.5-25.65.15.15-.35.3.2-.45M-5.05 105.6l-.05.05-.2-.05h.25" transform="translate(38.2 63.2)"/><path fill-rule="evenodd" fill="url(#m)" d="m59.85-53.6 3.75-1.05 18.2 4.2 6.45 5.8-9.35-3.3-27.7 9.1 2.6 7-5.85-3.45-2.75-14.85.9.35h.05l1.95-.55 1.95 6.15L70-51l-10.15-2.6" transform="translate(38.2 63.2)"/><path fill-rule="evenodd" fill="url(#n)" d="M31.95-25.65q5.85-6.5 13.75-8.1l6.15 4.45-8.8.65-23.4 17.6 9.3-10.75 2.5-3.25.5-.6" transform="translate(38.2 63.2)"/><path fill-rule="evenodd" fill="url(#o)" d="M3.5-25.65q2.85-6.75 7.65-13.55 5.35-7.6 13.1-15.3l7.25.65L3.65-25.5l-.15-.15" transform="translate(38.2 63.2)"/><path fill-rule="evenodd" fill="url(#p)" d="m27.15 99.35 9.45 1.15q-10.4 8.15-18.9 9.35l-.6.4 1.45 1.55 9.35-1.3-25.6 14.85-8.7-1.7-.15-7.1 2.2-.1 1-5.65 17.2-10.3 13.3-1.15M1.95 110l.35 1 21.1-7.45q-2.9-1.2-5.95-1.35L1.95 110" transform="translate(38.2 63.2)"/><path fill-rule="evenodd" fill="url(#q)" d="M37.15 92.55 57.4 85.7l5.75.75.55 6.8-2.95-1.9.05 1-.1.05-22.1 5.4-9.55-1.95 8.1-3.3" transform="translate(38.2 63.2)"/><path fill-rule="evenodd" fill="url(#r)" d="m19.65 73.75 4.4 7.15-1.8.95-4.85-4.65-7.4-.5-3-1.3-4.6 3.55L-2.75 80-3 78.9l4.45-1.4 6.25-4.7 4.3 1.25 7.65-.3" transform="translate(38.2 63.2)"/><path fill-rule="evenodd" fill="url(#s)" d="m10.6 86.4 2.7-2.3 8.95 3.5-4.55 3.75-7.1-4.95" transform="translate(38.2 63.2)"/><path fill-rule="evenodd" fill="url(#t)" d="m6.15 98.3 1.15.9-2.2 1.45-7.8-3.45v-.5l1.6-.4 7.25 2" transform="translate(38.2 63.2)"/><path fill-rule="evenodd" fill="url(#u)" d="m-14.2 136.2-1.4-.25-1.7-4.15 1.7-6.1.7-11.55 5.55-3.15 4.05-5.4.2.05-2.35 7.9-5.15 1.5-1.7 11.6.9 1.7-1.7 4.45 1.45 3.25-.55.15" transform="translate(38.2 63.2)"/><path fill-rule="evenodd" fill="url(#v)" d="M96.8 77.65q4 0 7.9 3 3.35 2.55 6.6 7.35l-2.9.7-6-5.75-8.3-2.9-4.65 1.2v-.05l-.7-1.3.3-.15 2.8-1.1q3.35-1.2 4.95-1" transform="translate(38.2 63.2)"/><path fill-rule="evenodd" fill="url(#w)" d="m81.05 94.9.25-.85 2-4.65 6.4-2.25 3.45.1-3 1.4-.6 2.7-5.55 6.9L79.35 97l1.7-2.1" transform="translate(38.2 63.2)"/><path fill-rule="evenodd" fill="url(#x)" d="m114.3-60.2 28.95 13.8.3.3 22 44-7.65-7.95-19.15-36.65-29.3-11.5-21.3 6.7-16.95-4.9 8.1-1.5 7.3 1.15 27.7-3.45" transform="translate(38.2 63.2)"/><path fill-rule="evenodd" fill="url(#y)" d="m114.3-60.2-27.7 3.45-7.3-1.15 28.75-5.3 6.25 3" transform="translate(38.2 63.2)"/><path fill-rule="evenodd" fill="url(#z)" d="M59.85-53.6 70-51l-19.95 6.8-1.95-6.15 11.75-3.25" transform="translate(38.2 63.2)"/><path fill-rule="evenodd" fill="url(#A)" d="m1.95 110 15.5-7.8q3.05.15 5.95 1.35L2.3 111l-.35-1" transform="translate(38.2 63.2)"/><path fill-rule="evenodd" fill="url(#B)" d="m32.95-45.45-.1.1-8.45 6.15-11.15 9.05-.4-.45 18.8-19.5.2.8L42.7-38.65l-.3.3-.55-.55-.3-.3-.55-.55-3.8-3L35.3-44l-2.35-1.45" transform="translate(38.2 63.2)"/><path fill-rule="evenodd" fill="url(#C)" d="m31.85-12.75-4.6 1.1h-.1l-4.5 1.05 13.2-8.9 15.8-4.3 2.45 2.6-19.35 3.95-2.9 4.5" transform="translate(38.2 63.2)"/><path fill-rule="evenodd" fill="url(#D)" d="m62.65-17.15.45-.2-.35-.45.95.1 6.85.65 9.55.5h1.85l7.85-.5q13.4-1.85 9.35-10.7l20.3 42.3-.15.45q-3.9 6-7.2 9.8-7.5 8.55-12.3 5.6l.15-4.5L62.7-17.05l-.05-.1" transform="translate(38.2 63.2)"/><path fill-rule="evenodd" fill="url(#E)" d="m121.25 1.5-.55-10.1-1.75-4.3q10.4 1.6 12.65-4.7l1.6 4.35-1.75 22.3-1.25 6.5-7.3-8.45-1.65-5.6" transform="translate(38.2 63.2)"/><path fill-rule="evenodd" fill="url(#F)" d="m132.1 13.3 1.65-17.45q1.1 2.2 2.3 3.7 3.95 4.95 9.1 1.8l.8 5.3q-.25 3.75-1 6.45-1.7 5.65-5.8 6.85l-2.95 1.4q-2.45-3.25-3.6-6.5l-.5-1.55" transform="translate(38.2 63.2)"/><path fill-rule="evenodd" fill="url(#G)" d="m112.65-45.55.6-.5 13.15 5.85 8.35 23.6-12.5-23.05-9.6-5.9" transform="translate(38.2 63.2)"/><path fill-rule="evenodd" fill="url(#H)" d="m76 59.9-4.4.2-5.05-.25-6.15-1.1-.15-.05-3.4-1.95-4.6-6.5v-3.6l1.85-1.75 5.25.25-3.95 4.4 3.8 5.65 15.25 3.95 1.65.4-.1.3v.05" transform="translate(38.2 63.2)"/><path fill-rule="evenodd" fill="url(#I)" d="m102.8 49.85 7.05 5.05.5.85-2.45-1.15-5.15-.15-1.85-2.55 1.45-2.25.45.2" transform="translate(38.2 63.2)"/><path fill-rule="evenodd" fill="url(#J)" d="M84 98.25q5.95 5.55 2.35 16.25l-12.3 11.3-10.35 11-.85-1.3-.05-.1-10.25 1.45-.7.95-9.45-9.45.35-6.15 9.55-7.05 7.65-2.7-1.9 4.75q.7-.05 1.05 1.35.35 1.25.4 3.7l2.9-10.65.2-.1 5.25 2.5 1.5 5.75q1.5-2.85 5.4.15L68.7 113l1.25-5.85h-.05l2.65-2 6.8-8.15L84 98.25" transform="translate(38.2 63.2)"/><path fill-rule="evenodd" fill="url(#K)" d="m94.6 108.1 3.4-8.95.1-5.6-.8-2.1 2.5.4 4.15 7.3-.1.05V101.4l-9.25 6.7" transform="translate(38.2 63.2)"/><path fill-rule="evenodd" fill="url(#L)" d="m109.15 97.3.2 1.8 2.3 1.25.1.05 1.65-1.9.4.6.05.1-.1 2.45-3.2 2.3-2.1.75-1.2-.95-.4-.75-.1-.05h-.05q.5-4.2-1.1-9.1l-.45-1.15-1.2-2.6.75-.7 4.45 7.9" transform="translate(38.2 63.2)"/><path fill-rule="evenodd" fill="url(#M)" d="m79.65 94.1.25-1.6.8-3.9 1.15-4.9.05-.2 2.55.65.6-.2q2.7-.9 4.95-.85 1.7 0 3.2.5l-.45 1.25-2.25-.05q-3.2.15-5.8 2.15l-.55.4-.85 2.05-2 4.65-.25.85-.4-.25h-.05l-.95-.55" transform="translate(38.2 63.2)"/><path fill-rule="evenodd" fill="url(#N)" d="m-1.6 137.3-7.35-.25-4.7-.75v-.25l2.75-.55-1.55-.95-.4-2.55 2.05-.85 6.8 2.95 7.7-1.6 6.15-1.25 37.1-26.95 21.2-3.9-2.55-13.3 2.9 1.1 1 1.6.05.15 2.15 3.55.3 7.55-3.65 4.65-9.25-1.1-11.65 3.85-19.8 17.35-17.5 9.05-11.75 2.45" transform="translate(38.2 63.2)"/><path fill-rule="evenodd" fill="url(#O)" d="m29.05 95.85-4.55 1.8-4.15.85 13.95-8.35 2.55 1.65.3.7v.05l-8.1 3.3" transform="translate(38.2 63.2)"/><path fill-rule="evenodd" fill="url(#P)" d="m-5.2 105.4 3.1-3.2 5.65 2.6-2.45 1.55-6.15-.75-.15-.2" transform="translate(38.2 63.2)"/><path fill-rule="evenodd" fill="url(#Q)" d="m-1.1 96.3.6-.15L.9 94.8l7 4-1.75-.5-7.25-2" transform="translate(38.2 63.2)"/><path fill-rule="evenodd" fill="url(#R)" d="M3.5 91.75 2.85 91l4.35-2.65 7.65 7.1-8.6-4.3-2.3.5-.45.1" transform="translate(38.2 63.2)"/><path fill-rule="evenodd" fill="url(#S)" d="m16.2 83.25-.1.2-.75.2-3.35-1.4-6-1.15-2.3 2.4-1.4.4-3.15-.35 4.45-3.8 1.4.7 1 .15 3.55-1.1 6.65 3.75" transform="translate(38.2 63.2)"/><path fill-rule="evenodd" fill="url(#T)" d="m155.15 23.4 3.85 1.35 12.75 19.2.35 2.45-3.2 3.05 3.75-.25-2.95 1.9 4.8 1.65-8.95 20.5-4.4 3-3.25-2.55 2.8-4.5-.85-14.65L154 42.1l-6-4.7.5-6.25 6.65-7.75" transform="translate(38.2 63.2)"/><path fill-rule="evenodd" fill="url(#U)" d="m118.95 22.8 3.7-8.05-7.3-18.95-7.3-13.4 11 11.85 2.2 7.25 1.65 5.6 7.3 8.45 1.25-6.5h.05q0 2 .55 4.05l.05.2.5 1.55q1.15 3.25 3.6 6.5l2.95-1.4q4.1-1.2 5.8-6.85.75-2.7 1-6.45h.1l.65 11.5 2.25 2.25.05-.05 4.3-1 3.7-.7.5 2.45-.55.2-6.7 2.45-1.75.65-4.4-3.85-2.7 4.45-6.8 2.15-3.4-6.95-1.35 5.1-10.9-2.5" transform="translate(38.2 63.2)"/><path fill-rule="evenodd" fill="url(#V)" d="m79.65 94.1.95.55v.05l.05-.05.4.25-1.7 2.1-6.8 8.15-2.65 2-.75.6-1.3 1-5.6-2.9-8.6 3.2L33.8 123.3l-9 6.4-.9.5-.4.25-4.15 2.05q-6.45 2.9-14.55 5l-6.4-.2 11.75-2.45 17.5-9.05 19.8-17.35 11.65-3.85 9.25 1.1 3.65-4.65-.3-7.55-2.15-3.55 9.05 3.55 1.05.6" transform="translate(38.2 63.2)"/><path fill-rule="evenodd" fill="url(#W)" d="m42.25 131.3-2.6-2.5.45-6.85 15.5-10.75 5.3-1.2 6.3 1.35.65 2.65-5.25-2.5-.2.1-2.9 10.65q-.05-2.45-.4-3.7-.35-1.4-1.05-1.35l1.9-4.75-7.65 2.7-9.55 7.05-.35 6.15-.15 2.95" transform="translate(38.2 63.2)"/><path fill-rule="evenodd" fill="url(#X)" d="m68.7 113 6.05 6.9q-3.9-3-5.4-.15l-1.5-5.75.55.25.3-1.25" transform="translate(38.2 63.2)"/><path fill-rule="evenodd" fill="url(#Y)" d="m86.35 114.5 2.25-2.05 6-4.35 9.25-6.7v-2.15h.1l2 .75.05 3.5q-4.2 3.3-13.05 9.5l-5.9 5.5-23.25 20.65-1.8 2.65-10.55 2.8-8.2-12.35-1-.95.15-2.95 9.45 9.45.7-.95 10.25-1.45.05.1.85 1.3 10.35-11 12.3-11.3" transform="translate(38.2 63.2)"/><path fill-rule="evenodd" fill="url(#Z)" d="m92.95 113 3.35 5.8v.05l.05.05.15.2 1.55 6.75-1.8 2.5-2.35.1-1.95-3.45.1-.1-5-6.4 5.9-5.5" transform="translate(38.2 63.2)"/><path fill-rule="evenodd" fill="url(#aa)" d="m156.95 21.3-1.8 2.1-6.65 7.75-.5 6.25 6 4.7 5.85 12.45.85 14.65-2.8 4.5 3.25 2.55 4.4-3 3.8-2.55 6.45-9.05q-5.6 16-16.1 20.9l-3.8.3V49.6l-11.95-12.35.75-8.5 5.55-5 6.7-2.45" transform="translate(38.2 63.2)"/><path fill-rule="evenodd" fill="url(#ab)" d="m135.95 28.95-6.2 2.3q-8.5-.15-13-3.7l2.2-4.75 10.9 2.5 1.35-5.1 3.4 6.95 6.8-2.15 2.7-4.45 4.4 3.85-12.55 4.55" transform="translate(38.2 63.2)"/><path fill-rule="evenodd" fill="url(#ac)" d="m119.3 15-8.35 22.15-7 4.85-5.75-.2-.5 4.95-1.75-.8 1.35-18.2L59.5-15.4l3.1-1.7.1.05L99.95 25.9l-.15 4.5q4.8 2.95 12.3-5.6 3.3-3.8 7.2-9.8" transform="translate(38.2 63.2)"/><path fill-rule="evenodd" fill="url(#ad)" d="m31.85-12.75 2.9-4.5L54.1-21.2l2.55 2.75-24.8 5.7" transform="translate(38.2 63.2)"/><path fill-rule="evenodd" fill="url(#ae)" d="M110.35 55.75v.05l-1.55.85-10.2-1.4-24.15 3.9L59.2 55.2l-3.8-5.65 3.95-4.4 2.45-.6 2.15-1.05-.4 2.15-3.2 2.8 3.35 3.85 11.25 2.2 11.35-1.75 4.65-4 .05-.05-.1-.05.7-.7 5.45-.2 5.3 1.9-1.45 2.25 1.85 2.55 5.15.15 2.45 1.15" transform="translate(38.2 63.2)"/><path fill-rule="evenodd" fill="url(#af)" d="m39.65 128.8-5.85-5.5 19.85-14.25 8.6-3.2 5.6 2.9 1.3-1 .8-.6L68.7 113l-.3 1.25-.55-.25-.65-2.65-6.3-1.35-5.3 1.2-15.5 10.75-.45 6.85" transform="translate(38.2 63.2)"/><path fill-rule="evenodd" fill="url(#ag)" d="m99.85 47.7 2.55 1.85-.05.1-5.3-1.9-5.45.2-.7.7-6.05-1.4.2-1.35.75-2.8 10.15 2.85 1.75.8 2.1.95h.05" transform="translate(38.2 63.2)"/><path fill-rule="evenodd" fill="url(#ah)" d="m110.35 55.8 2.35 4.2-4.8-1.2-.75-1.15-8.5-.7-.15.05L76 59.9v-.05l.1-.3-1.65-.4 24.15-3.9 10.2 1.4 1.55-.85" transform="translate(38.2 63.2)"/><path fill-rule="evenodd" fill="url(#ai)" d="m63.55 45.65-.45 2.45q2.35 3.15 7.9 4.6l9.6.1.1-.05 3.5-1.3.65-4.2 6.05 1.4.05.1-4.65 4-11.35 1.75-11.25-2.2-3.35-3.85 3.2-2.8" transform="translate(38.2 63.2)"/><path fill-rule="evenodd" fill="url(#aj)" d="m110.95 37.15-2.4 6.35-8.7 4.2h-.05l-2.1-.95.5-4.95 5.75.2 7-4.85" transform="translate(38.2 63.2)"/><path fill-rule="evenodd" fill="url(#ak)" d="m129.75 31.25-17.65 6.4 4.65-10.1q4.5 3.55 13 3.7" transform="translate(38.2 63.2)"/><path fill-rule="evenodd" fill="url(#al)" d="m143.95 37.25-8-8.3 12.55-4.55 1.75-.65-5.55 5-.75 8.5" transform="translate(38.2 63.2)"/><path stroke-width=".05" stroke-opacity=".6" stroke-linejoin="round" stroke-linecap="round" stroke="#381c00" fill="none" d="M181.45 16.8 146.25 0 109.4 6.8l-7.6 1.75-17.45 4.85h-.05l-.9-.35m-.25-.15q-6.3-2.55-13.45-3.55l-7.25-.65Q47.5 23.5 41.5 38q-1.2 2.9-2.05 5.75L39.1 45l.95-1.05m5.05-5.15 6.35-5.75q9.8-8.35 19.6-15.2l.1-.1 2.35 1.45M57.65 52.35l-1.05 1.2 4.25-.95 4.5-1.05h.1l4.1-.95m-4.1 7.35-.15-3 .15-3.4m14.6-27.25.55.55 4.05 4.45-.75.15q-10 2-16.75 11.95l-9.3 10.75m12.2-1.7 24.9-5.75 4.85 5.55m-24.4-29.8 3.8 3m1.4 1.4Q71.15 32.3 67.15 41.4m-13.2 117.7.7.35m-10.3 2.05-6.5-1.8"/><path stroke-width=".5" stroke-opacity=".6" stroke-linejoin="round" stroke-linecap="round" stroke="#381c00" fill="none" d="m193.8 108.85.3.7v36.5l3.8-.3q10.5-4.9 16.1-20.9 1.45-4.2 2.6-9.2l-12.05-52.9-22.8-45.65m13.95 67.2-21.55 7.85 19.95 20.65m-92.3-4.3.35-1.8-2.15 1.05-2.45.6-5.25-.25-1.15-.35q-7.55 3.35-3.35 5.4l4.6 6.2.25.15q2.55 1.45 5.7 2.4h.1l.15.05q4.9 1.35 11.2 1.35l4.4-.2 9-1.15 13.5-1.75.15-.05 8.5.7.75 1.15 4.8 1.2-2.35-4.2v-.05l-.5-.85-10-7.2H138l-3.85-1.75L124 106.3l-.75 2.8-.85 5.55-3.6 1.35-9.6-.1q-5.55-1.45-7.9-4.6l.45-2.45m32.4.3 1.35-18.2-3.9-4.45-4.5 7.6-3.1 12.2m14.05 4.6 9.8-4.75 2.45-5.3 10.55-22.9-9.5-24.7m1.05 105.25 8.15-7.35.55-15.7-5.15-8-5.05-4.25m-14.05-3.05-15.55 21.4-3.4 8.05 2.55-4.3 6.8-2.35 2.8-1.1q3.35-1.2 4.95-1 4 0 7.9 3 3.35 2.55 6.6 7.35l.9 1.4.55 1.15.95 2.7.25 2.15-.2 1.85.05.8m-67.6-8.55 11.2-3.8 6.8.85 4.3 1.65 1 1.6.05.15 9.05 3.55 1.05.6q.45-3.15 2.2-10.4l.05-.2.05-.1.3-1.3m-2.6 12 .95.55h.05l.4.25.25-.85 2.85-6.7.55-.4m29.05 11.55.25.25m-1.9-61.1 23.85-8.7m-67.75-24.6 7.15-1.65-13.4-15.3m-32.2 16.6.35.95-.85 3.55-.05.1-1 3.8-.6 1.95-.4 1.45-.3.9q-.35.85.15 4.7l.1.5.05.25q.3 1.15 1.05 2.45 1.45 2.4 4.7 5.05l.1.1 1.3 1.25.85.8q4.7 4.35 9.9 8.15l1.25.85 4.35 2.85q1.15.55 2.25.9m-56.95-28 2.3-1.65q10.35-7.4 21.4-12.8l9.55 6.4m20.35 41.45-1.25 2-2.9 4.5-3.5 2.75-1.4 1.1-1.25 1-1.25.95q-8.85 7.1-13.35 11.45l-1.3 1.25.1.95M75.05 155l-3.7-2.4-7.7-6.2-1.6-2.6-4.2-6.85-.9.05-6.75.25-4.3-1.25-6.25 4.7-4.45 1.4.85 4.05 1.1.5 3.35.45 1.4-.4 2.3-2.4-1-.65M56.95 137l.1-.45q3.2-12.25 13.4-18.6 4.55-2.4 9.05-2.6l7.05-.2M57.15 148l-2.85-1.35-.75.2-3.35-1.4h-.15l-4.75 3.3q-1.85 1.05-4.3 1.6l-.45.05v.05l.35 3.6.8.9.45-.1 2.3-.5 8.6 4.3m-3-13.2-5.85-1.15m17.6-3.85.25 3.35m4.75 15.4-4.1 1.65-14.15 2.9-6.8 4.25-4.3 2.7m85.75-48.75L112.15 134l-18.5-2.3-9.3.55-.8-.75m35.3 26.35-.05.05v-.05m-7.8.65-3.25-5.35m-40.5 5.9 16.65-6.2m35.35 5.25-8.5 10.25-4.7 3.6-5.3-2.75-4.35 10.85M62.1 193.4l.9-.5 9-6.4 19.85-14.25 8.6-3.2.3.15m6.95 14.45-3.2-12.5-3.05.4m-5.2 8.85-.35.85M72 186.5l9.45 8.95 8.2 12.35 10.55-2.8 1.8-2.65 23.25-20.65 5.9-5.5q8.85-6.2 13.05-9.5l.7-.55h.05l.5.8 1.2.95 2.1-.75 3.2-2.3m-90.25 28.8q-7.85 4.25-18.7 7.05l-9.75-.3-9.9 11.3 15.1-.1 2.45-4.95 7.8-2.1 20.65 4.85 1.6 4.4 5.25 1.9h.1l16.25 5.8 8.3 4.2 1.85-4.35 3.2-1.95-1.9-2.1-3.8-4.25 9.85-12.65m-71.6 11.2-4.8 9.5 12.15 3.05 4.55-9.9 4-1.35 16.3 1.35h.1l.2-.45m-37.3 7.3-1.75-.45-5.55 1.4-1.8 4.85 1.9 1.95 3.5.55 13.9 2.1.5 1.1h1.4l3.05-2.75v-5l-3-.7m-1.95 7.35-4.9 15.45 62.6 3.3 1.25-9.05 3.2-10-.7-3.3-4.45-2.2m44.6-58.75-10.8 15 .05.35 1.55 6.75-1.8 2.5-2.35.1-1.95-3.45-1.8 2.5-20.45 18-3.55 3.1-.35 5.5m-2.55 33.5.1-.55m33.15-67.95-.15-.2-3.4-5.9m3.4 5.9v-.05l.1-.1m-4.5 6.25.1-.1-5-6.4m-23.1-75 24.95-12.6m4.5-7.6-18.05-20.6m-80.3 134.5-4-.15-6.65-1.1-1.7-4.15 1.7-6.1.7-11.55 5.55-3.15 4.15-5.55v-.05l.3-2.65 2.1-2.4.1-3.65 2.2-.55 4.45-4.5M33 168.6l3.1-3.2 5.65 2.6m-2.8 78.95-13.85-.75-19.85-1.1-5-9.6 8.3-9.85 5.85-13.85 8.95-.1m6.6 17.7-4.85 16.8"/><path stroke-linejoin="round" stroke-linecap="round" stroke="#443d35" fill="none" d="m40.9 32.25.15-2.2.95-.95q9.55 1.6 13.6 4.55" transform="translate(38.2 63.2)"/><path stroke-width=".5" stroke-linejoin="round" stroke-linecap="round" stroke="#bf9159" fill="none" d="m90.6 99.65-4.95-.9-1.9.9"/><path stroke-width="2" stroke-opacity=".6" stroke-linejoin="round" stroke-linecap="round" stroke="#381c00" fill="none" d="m83.55 131.5.4-.45m8.3-10.7L84.3 130.6"/><path stroke-width="2" stroke-linejoin="round" stroke-linecap="round" stroke="#274363" fill="none" d="m186.5 153.4 2.45-2.8q1.95-1.95 2.8-3.75.9-1.8 1.15-1.95l1.1-1.2q-.6-.15.05-.6l.05-1m.65.6-.7.4-.05.6m-21 27.45q1.7-1.6 2.6-3.45l1.7-3.6q.8-1.7 2.45-2.75 1.65-1.05 2.4-3.05.8-1.95 2.95-3.1m-13.5 57.45.2-4.5q0-2.4-.55-3.55-.5-1.15.2-4t.6-4.3l-.55-3.55q-.45-2.1-.45-4.35l.1-4.1.2-3.55q.15-1.6-.25-3.95-.35-2.3.5-3.85m.6 65.95q.5-2 .35-4l-.75-4q-.55-2-.25-4.05l.3-4-.2-3.95q-.2-1.95-.05-4"/></g><g id="ay"><path fill-rule="evenodd" fill="#fff" d="M46.5 5.1q-3.25-.6-5.05-2.35l-.9-3.05q4.5-4.3 9.3-6.9l2.95.05-.4 4.2q-.95 4.65-5.9 8.05" transform="translate(-27 15.45)"/><path fill-rule="evenodd" fill="#bfb4ac" d="m40.2-4.5.05-.95.4.15 1.75-1.2H42l.8-.65q3.5-2.75 7-4.25l.55-.2 2.35.7.1.3 1 .3q.85.45 1.5 1.5l.4 1.8q.35 3.6-2.05 7.65l-.95 1.3-1.25 1.3-2.95 2.1-2-.25q4.95-3.4 5.9-8.05l.4-4.2-2.95-.05q-4.8 2.6-9.3 6.9l-.35-3.1v-1.1M29.75 4 27.9-1.4q-.45-1.95-.65-3.85l.85 1L32.85-.6l-.05.45-.3.35Q32 5.25 29.75 4" transform="translate(-27 15.45)"/><path stroke-width=".05" stroke-opacity=".6" stroke-linejoin="round" stroke-linecap="round" stroke="#381c00" fill="none" d="m5.85 14.85-.05.45"/><path stroke-width="2" stroke-opacity=".6" stroke-linejoin="round" stroke-linecap="round" stroke="#381c00" fill="none" d="m5.8 15.3-.3.35"/><path stroke-width=".5" stroke-opacity=".6" stroke-linejoin="round" stroke-linecap="round" stroke="#381c00" fill="none" d="M2.75 19.45.9 14.05Q.45 12.1.25 10.2l.85 1"/><path stroke-width=".5" stroke-opacity=".302" stroke-linejoin="round" stroke-linecap="round" stroke="#4a3a28" fill="none" d="M5.5 15.65q-.5 5.05-2.75 3.8"/><path stroke-width=".5" stroke-opacity=".2" stroke-linejoin="round" stroke-linecap="round" stroke="#4a3a28" fill="none" d="m25.8 4.85 1 .3q.85.45 1.5 1.5l.4 1.8q.35 3.6-2.05 7.65l-.95 1.3-1.25 1.3-2.95 2.1-2-.25q-3.25-.6-5.05-2.35l-.9-3.05-.35-3.1v-1.1"/><path fill-rule="evenodd" fill="#4a2a22" d="m40.75-8.5 2.1-1.25 1.1-.15q1.85.05 3.15 1.35 1.35 1.35 1.4 3.2-.05 1.9-1.35 3.25Q45.9-.75 44.1-.7q-1.4-.05-2.5-.75l-.75-.6q-.9-.9-1.2-2.1l-.1-1.1.1-1.15q.15-.75 1.1-2.1m4.45 3.15q0-.65-.4-1.05-.45-.45-1.05-.4-.65.05-1.1.5-.45.5-.5 1.15 0 .65.45 1.1.4.4 1 .35.65-.05 1.1-.55.45-.45.5-1.1" transform="translate(-27 15.45)"/><path fill-rule="evenodd" fill="#1d0e0e" d="M45.2-5.35q-.05.65-.5 1.1-.45.5-1.1.55-.6.05-1-.35-.45-.45-.45-1.1.05-.65.5-1.15.45-.45 1.1-.5.6-.05 1.05.4.4.4.4 1.05" transform="translate(-27 15.45)"/><path stroke-opacity=".612" stroke-linejoin="round" stroke-linecap="round" stroke="#24180b" fill="none" d="m40.75-8.5 2.1-1.25 1.1-.15q1.85.05 3.15 1.35 1.35 1.35 1.4 3.2-.05 1.9-1.35 3.25Q45.9-.75 44.1-.7q-1.4-.05-2.5-.75" transform="translate(-27 15.45)"/><path fill-rule="evenodd" fill="#a97a46" d="M37.3-4.2h-.05l.35-8.1 3.1-1.5 13-.15q-2.05.55-3.95 1.5Q44.3-9.75 39.5-3.8l-2.2-.4" transform="translate(-27 15.45)"/><path fill-rule="evenodd" fill="#c1996c" d="m54.1.85-.15.85-4.8 4-2.5.45q3.2-3.6 7.45-5.3" transform="translate(-27 15.45)"/><path stroke-width="2" stroke-linejoin="round" stroke-linecap="round" stroke="#443d35" fill="none" d="m26.7 1.5 2.4-.5m-2.4.5q-2.05.55-3.95 1.5-5.45 2.7-10.25 8.65l-2.2-.4"/><path stroke-width=".5" stroke-opacity=".2" stroke-linejoin="round" stroke-linecap="round" stroke="#000" fill="none" d="M19.65 21.6q3.2-3.6 7.45-5.3l2.2-.75"/><path fill-rule="evenodd" fill="#4a2a22" d="m29.75-.65-.2.6q-.05.25.2.5l.45.2q.35-.05.55-.3L31-.2l-.2-.5-.5-.2-.55.25m-.95-1.1q.45-.5 1.05-.65l.5-.05q.95 0 1.6.65.65.65.7 1.6-.05.95-.65 1.65-.65.65-1.55.65l-1.2-.35-.4-.3Q28.4 1 28.3.4l-.1-.55.05-.55q.1-.4.55-1.05" transform="translate(-27 15.45)"/><path fill-rule="evenodd" fill="#1d0e0e" d="m29.75-.65.55-.25.5.2.2.5-.25.55q-.2.25-.55.3l-.45-.2q-.25-.25-.2-.5l.2-.6" transform="translate(-27 15.45)"/><path stroke-opacity=".612" stroke-linejoin="round" stroke-linecap="round" stroke="#24180b" fill="none" d="M28.8-1.75q.45-.5 1.05-.65l.5-.05q.95 0 1.6.65.65.65.7 1.6-.05.95-.65 1.65-.65.65-1.55.65l-1.2-.35" transform="translate(-27 15.45)"/><path fill-rule="evenodd" fill="#804c39" d="M29.6 1.35 29.2.8q0-.15.4 0l.55.15.3-.1.55-.2q.4-.05.15.5-.25.6-.7.6-.45 0-.85-.4" transform="translate(-27 15.45)"/><path fill-rule="evenodd" fill="#a97a46" d="m32.85-.6-3.9-3 .1-1 2.35-1.05.55-3.65 1.95 6.65-.3 1.95-.75.1" transform="translate(-27 15.45)"/><path stroke-width="2" stroke-linejoin="round" stroke-linecap="round" stroke="#443d35" fill="none" d="m1.95 11.85-.8-.6m4.7 3.6-3.9-3 3.9 3z"/><path fill-rule="evenodd" fill="#804c39" d="m43.5-3.2.85-.25 1.5-.45q1.1-.2.4 1.35-.7 1.55-1.95 1.6Q43.05-.95 42-2q-1.05-1.05-1.05-1.5L42-3.6l1.5.4" transform="translate(-27 15.45)"/><path fill-rule="evenodd" fill="#fff" d="M50.55-10.15q0-.55.4-.95.4-.4.95-.4.55 0 .95.4.4.4.4.95 0 .55-.4.95-.4.4-.95.4-.55 0-.95-.4-.4-.4-.4-.95m-2.8.55q.95 0 1.65.7.7.65.7 1.65 0 .95-.7 1.65-.7.65-1.65.7-.95-.05-1.65-.7-.7-.7-.7-1.65 0-1 .7-1.65.7-.7 1.65-.7" transform="translate(-27 15.45)"/></g><g id="aB"><path stroke-width=".3" stroke-opacity=".2" stroke-linejoin="round" stroke-linecap="round" stroke="#000" fill="none" d="m98.2 7.85.4.5 1.45-.25-1.5-1.45M78.7 12.4l.85-2.85.5-.2-.55-.6m3.15 2.15-1.9-1.85-.7.3 1.05 1.05m-2.1-3 1.75 1.65L82 8.5l1.5 1.8 15.1-1.95.6.85m2.85.8-2-1.9q5.35-1.1 10.1-2.6l1-.3q4.85-1.65 9-3.7l1.2-1.35 3 .65 2.95 5.3 7.6.55-.2-1.4m.2 1.4 8.3-.4-.85-1.55m1.55 2.9-.7-1.35 5.65-.95 2.7-2.15m-16.65 3.5.15 1.05m17.25-3.55 1.85-1.5 5.65 2.9 1.35 1.75 9.25 4.95-1.85-4.1m2.85 1.6q.05 2.4.65 3.35l7.2 3.85 2.9 3.4 2.85.9m-10.1-4.75q-2.2-2.35-2.85-3.4l-1.65-.85m1.1 2.4 1.3 2.85M185.65 98l2.05.6.65-1.25-.1-2.1-1.4-.3m2.7 4.15-1.85-.5-5 10.15-1.4 7.35m3.05-45.45-1.45.3 3.7 6.9-1.35 1.2 2.85 1.85-4.05.5 3.7 2.8.5 11.05 1.7.35m-8.75-24.35 1.7-.3-.7-1.3-1.9.3M170.25 58.4l9.25 6.25 2.7 5 2-.3"/><path fill-rule="evenodd" fill="#351d06" d="m48.25 173-.05.05-.45.05q-1 .4-1.6 1.55-.5 1-.5 2.1v.35q.1 1.3.85 2 .65.5 1.4.4l.35-.1q.95-.35 1.5-1.45l.4-1.2.1-.05.05-1.25q-.15-1.3-.9-2-.5-.45-1.15-.45" transform="translate(24.35 33)"/><path stroke-width=".3" stroke-opacity=".2" stroke-linejoin="round" stroke-linecap="round" stroke="#351d06" fill="none" d="M72.6 206q.8-1.15.1-3.15m-.1 3.15-.05.05M70 209.8q-1 .65-1.95-.2m6.45.15.1-.05q.75.35 2.15-.5m-4.5 3.3q.55 2.55-.15 2.95"/><path stroke-width=".75" stroke-linejoin="round" stroke-linecap="round" stroke="#8d4e11" fill="none" d="m72.55 206.05-.45.05q-1 .4-1.6 1.55-.5 1-.5 2.1"/><path stroke-width=".75" stroke-linejoin="round" stroke-linecap="round" stroke="#a35b13" fill="none" d="m74.6 209.7.05-1.25q-.15-1.3-.9-2-.5-.45-1.15-.45m-.35 6.5q-.75.1-1.4-.4-.75-.7-.85-2"/><path stroke-width=".75" stroke-linejoin="round" stroke-linecap="round" stroke="#cb7116" fill="none" d="m72.25 212.5.35-.1q.95-.35 1.5-1.45l.4-1.2"/><path stroke-width=".25" stroke-opacity=".651" stroke-linejoin="round" stroke-linecap="round" stroke="#33170a" fill="none" d="M70 209.75v.05m0 .3v-.3"/><path fill-rule="evenodd" fill="#351d06" d="m28.1 167.45.1.05.6.25q1.05.7 1.4 2 .25 1.1-.15 2.15l-.05.1-.1.25q-.6 1.2-1.8 1.6-1 .35-1.9 0l-.35-.25q-1.15-.6-1.4-1.9l-.1-1.2v-.15q.05-.6.35-1.2.65-1.2 1.85-1.6l1.55-.1" transform="translate(24.35 33)"/><path stroke-width=".3" stroke-opacity=".2" stroke-linejoin="round" stroke-linecap="round" stroke="#351d06" fill="none" d="M52.45 200.45q-.5-1.25 1.15-3m-1.15 3 .1.05m1.8 4.5q1 .95 2.5.45m-8.15-2.1q-1.2.15-2.6-1.2m2.6 1.35v-.15m1.85 3.5q-1.6 2.25-.9 2.85"/><path stroke-width=".75" stroke-linejoin="round" stroke-linecap="round" stroke="#8d4e11" fill="none" d="m52.55 200.5.6.25q1.05.7 1.4 2 .25 1.1-.15 2.15"/><path stroke-width=".75" stroke-linejoin="round" stroke-linecap="round" stroke="#a35b13" fill="none" d="M48.7 203.35q.05-.6.35-1.2.65-1.2 1.85-1.6l1.55-.1m-1.9 6.4q.9.35 1.9 0 1.2-.4 1.8-1.6"/><path stroke-width=".75" stroke-linejoin="round" stroke-linecap="round" stroke="#cb7116" fill="none" d="m50.55 206.85-.35-.25q-1.15-.6-1.4-1.9l-.1-1.2"/><path stroke-width=".25" stroke-opacity=".651" stroke-linejoin="round" stroke-linecap="round" stroke="#33170a" fill="none" d="m54.4 204.9-.05.1m-.1.25.1-.25"/><path fill-rule="evenodd" fill="#351d06" d="m-19.05 160.9.1.05.35.3q.7.8.7 2.1-.05 1.1-.6 2.05l-.05.05-.15.25q-.7 1.1-1.7 1.4-.8.15-1.35-.3l-.3-.3q-.7-.75-.65-2l.2-1.2v-.1l.55-1.15q.75-1.1 1.7-1.3l1.2.15" transform="translate(24.35 33)"/><path stroke-width=".3" stroke-opacity=".2" stroke-linejoin="round" stroke-linecap="round" stroke="#351d06" fill="none" d="M5.3 193.9q-.15-1.35 1.45-2.8m-1.45 2.8.1.05m.4 4.5q.6 1.05 1.8.8m-5.75-3.05q-.9-.05-1.7-1.5m1.7 1.6v-.1m.75 3.6q-1.75 2-1.35 2.6"/><path stroke-width=".75" stroke-linejoin="round" stroke-linecap="round" stroke="#8d4e11" fill="none" d="m5.4 193.95.35.3q.7.8.7 2.1-.05 1.1-.6 2.05"/><path stroke-width=".75" stroke-linejoin="round" stroke-linecap="round" stroke="#a35b13" fill="none" d="m1.85 196.2.55-1.15q.75-1.1 1.7-1.3l1.2.15m-2.7 5.9q.55.45 1.35.3 1-.3 1.7-1.4"/><path stroke-width=".75" stroke-linejoin="round" stroke-linecap="round" stroke="#cb7116" fill="none" d="m2.6 199.8-.3-.3q-.7-.75-.65-2l.2-1.2"/><path stroke-width=".25" stroke-opacity=".651" stroke-linejoin="round" stroke-linecap="round" stroke="#33170a" fill="none" d="m5.85 198.4-.05.05m-.15.25.15-.25"/><path stroke-width=".05" stroke-opacity=".102" stroke-linejoin="round" stroke-linecap="round" stroke="#381c00" fill="none" d="m138.95 95.75-6.55.75q-3.1.6-6.15 1.65 7.3 9.8 7.45 19.9m-21.2-12.85q6.85-4.7 13.75-7.05m6.2-1.3q9.6 2.45 13.4 7.95m-83.4-10.5q-5.45-3.25-10.9-.7m-3.65 13.05v-9.1m54.05 1.1-14.85 1-1.8.8m15.2-6.85-13.4 6.05m13.05-14.4 2.1-2.35-13-4.2M65.7 92.85q-.6-4.3-5.1-5.8m49.35-12.7-7.7 8.55"/></g><g id="aC" stroke-linejoin="round" stroke-linecap="round" fill="none"><path stroke="#443d35" d="M84.1-112h-.05q-9.7-4.25-21.85-4.7-17.9 17.75-23 35.05l-.35 1.25.95-1.05 5.05-5.15 6.35-5.75-.7 13.5Q38.65-63.6 33.95-45.65q11.4-8.45 23.7-14.45l9.5 6.35-.4 1.7-.6 2.25-.6 1.95-.7 2.35q-.35.85.15 4.7l.1.5.05.25q.85 3.45 5.75 7.5l.1.1 1.3 1.25q5.05 4.85 10.75 8.95l1.25.85q2.15 1.45 4.35 2.85 1.15.55 2.25.9-7.55 3.35-3.35 5.4l-1.25 2-7.05.2q-4.5.2-9.05 2.6Q60-1.1 56.8 11.15l-.1.45-6.75.25-4.3-1.25-6.25 4.7-4.45 1.4.85 4.05q2.35 1.2 4.45.95l1.4-.4 2.3-2.4 5.85 1.15-4.75 3.3q-1.85 1.05-4.3 1.6l-.45.1.35 3.6.8.9.45-.1-4.45 4.5-2.2.55-.1 3.65-2.1 2.4-.3 2.65v.05L28.6 48.8l-5.55 3.15-.7 11.55-1.7 6.1 1.7 4.15 6.65 1.1 4 .15-9.9 11.3-8.95.1-5.85 13.85L0 110.1l5 9.6 96.3 5.15 1.25-9.05 3.2-10-.7-3.3-4.45-2.2 1.85-4.35 3.2-1.95-1.9-2.1.35-5.5 24-21.1 1.8-2.5 1.95 3.45 2.35-.1 1.8-2.5-1.55-6.75-.15-.2.1-.15 10.8-15 1.2.95 2.1-.75 3.2-2.3h.05l.4-6.35 8.15-7.35.55-15.7-5.15-8-5.05-4.25-2.85-5.1-10-7.2 9.8-4.75 2.45-5.3 23.85-8.7 19.95 20.65v33.25l3.8-.3q14.55-8.85 18.7-30.1l-12.05-52.9-22.8-45.65-.3-.3-35.2-16.8-41.2 7.6-20.7 5.8" transform="translate(.5 125.9)"/><path stroke-opacity=".6" stroke="#381c00" d="m134.4 56.55.05.35M41.9 29.45l-.45.1m-1.15-4.5V25l.45-.05m60.55 99.9-.1.55" transform="translate(.5 125.9)"/></g><g id="aD" stroke-opacity="0" stroke-linejoin="round" stroke-linecap="round" stroke="#f0f" fill="none"><path d="M187.95-293.5v380h-380v-380h380M92.95.6H-97" transform="translate(192.55 294)"/><path d="m187.95-293.5-190 190 190 190m-380-380 190 190L-192 86.5" transform="translate(192.55 294)"/></g></defs><path fill="none" d="M-1-1h213v246H-1z"/><g><use x="-106.907" y="229.536" xlink:href="#ar" width="182.4" transform="matrix(-.9541 0 0 .9541 73.82 -216.281)" height="146.05"/><use x="-106.907" y="229.536" xlink:href="#as" width="122.1" transform="matrix(-.9541 0 0 .9541 84.148 -108.318)" height="112.55"/><use x="-106.907" y="229.536" xlink:href="#at" width="131.25" transform="matrix(-.9541 0 0 .9541 86.39 -86.352)" height="71.8"/><use x="-106.907" y="229.536" xlink:href="#au" width="216.85" transform="matrix(-.9541 0 0 .9541 106.447 -216.3)" height="251.05"/><use x="24.393" y="5.063" xlink:href="#av" width="32.1" transform="matrix(-.2083 -.0886 -.1815 .4269 154.814 58.148)" height="32.1"/><use x="-99.756" y="214.181" xlink:href="#av" width="32.1" transform="matrix(-1.0225 0 0 1.0225 40.7 -175.71)" height="32.1"/><use x="-106.907" y="229.536" xlink:href="#aw" width="57.05" transform="matrix(-.9541 0 0 .9541 43.953 -151.85)" height="37.9"/><use x="2.124" y="-.412" xlink:href="#ax" width="9.3" transform="matrix(-2.7876 -.3556 .1948 -1.8319 133.561 83.849)" height="7.2"/><use x="-106.907" y="229.536" xlink:href="#ay" width="30.1" transform="matrix(-.9541 0 0 .9541 44.24 -170.74)" height="21.85"/><use x="71.621" y="-321.316" xlink:href="#ax" width="9.3" transform="matrix(1.0841 -.1383 -.0758 -.7124 36.682 -138.592)" height="7.2"/><use x="-106.907" y="229.536" xlink:href="#az" width="5.95" transform="matrix(-.9541 0 0 .9541 29.498 -126.566)" height="3.5"/><use x="-321.674" y="-24.2" xlink:href="#aA" width="28.4" transform="matrix(-.2866 -.6961 -.4053 .2032 77.375 -6.301)" height="28.4"/><use x="-59.498" y="876.491" xlink:href="#aA" width="28.4" transform="matrix(-.7406 .1317 .0661 .2588 83.228 -8.494)" height="28.4"/><use x="-106.907" y="229.536" xlink:href="#aB" width="190.1" transform="matrix(-.9541 0 0 .9541 93.232 -187.485)" height="215.6"/><use x="-106.907" y="229.536" xlink:href="#aC" width="217.35" transform="matrix(-.9541 0 0 .9541 106.677 -216.771)" height="251.8"/><use x="102" y="219" xlink:href="#aD" width="381" transform="translate(-192.55 -294)" height="381"/><use x="-3.32" xlink:href="#aE" width="102.95" transform="matrix(1.8072 0 0 1.6538 .4 36.5)" height="45"/></g></svg>