<svg width="245" height="353" xmlns="http://www.w3.org/2000/svg" xmlns:xlink="http://www.w3.org/1999/xlink"><defs><linearGradient y2=".819" y1=".27" x2=".514" x1=".655" spreadMethod="pad" id="h"><stop stop-opacity=".502" stop-color="#fff" offset="0"/><stop stop-opacity=".333" stop-color="#fff" offset="1"/></linearGradient><linearGradient y2=".74" y1=".414" x2=".792" x1=".095" spreadMethod="pad" id="i"><stop stop-opacity=".341" stop-color="#fff" offset="0"/><stop stop-opacity=".153" stop-color="#fff" offset="1"/></linearGradient><linearGradient y2=".932" y1=".122" x2=".735" x1=".3" spreadMethod="pad" id="j"><stop stop-opacity=".102" stop-color="#fff" offset="0"/><stop stop-opacity="0" stop-color="#fff" offset="1"/></linearGradient><linearGradient y2=".753" y1=".077" x2=".539" x1=".316" spreadMethod="pad" id="k"><stop stop-opacity=".153" stop-color="#fff" offset="0"/><stop stop-opacity=".051" stop-color="#fff" offset="1"/></linearGradient><linearGradient y2=".499" y1=".292" x2=".419" x1=".849" spreadMethod="pad" id="l"><stop stop-opacity=".271" offset="0"/><stop stop-opacity=".173" offset="1"/></linearGradient><linearGradient y2=".519" y1=".696" x2=".346" x1=".988" spreadMethod="pad" id="m"><stop stop-opacity=".271" offset="0"/><stop stop-opacity=".173" offset="1"/></linearGradient><linearGradient y2=".036" y1=".571" x2="-.033" x1=".574" spreadMethod="pad" id="n"><stop stop-opacity=".463" offset="0"/><stop stop-opacity=".333" offset="1"/></linearGradient><linearGradient y2=".375" y1=".898" x2=".5" x1=".5" spreadMethod="pad" id="o"><stop stop-opacity=".463" offset="0"/><stop stop-opacity=".333" offset="1"/></linearGradient><linearGradient y2=".359" y1=".644" x2=".044" x1=".822" spreadMethod="pad" id="p"><stop stop-opacity=".463" offset="0"/><stop stop-opacity=".333" offset="1"/></linearGradient><linearGradient y2="-.1" y1=".534" x2="1.054" x1=".358" spreadMethod="pad" id="q"><stop stop-opacity=".463" offset="0"/><stop stop-opacity=".333" offset="1"/></linearGradient><linearGradient y2=".032" y1=".922" x2=".198" x1=".723" spreadMethod="pad" id="r"><stop stop-opacity=".463" offset="0"/><stop stop-opacity=".153" offset="1"/></linearGradient><linearGradient y2=".068" y1=".901" x2=".065" x1=".709" spreadMethod="pad" id="s"><stop stop-opacity=".141" offset="0"/><stop stop-opacity=".043" offset="1"/></linearGradient><linearGradient y2="-.124" y1=".903" x2="1.392" x1=".282" spreadMethod="pad" id="t"><stop stop-opacity=".141" offset="0"/><stop stop-opacity=".043" offset="1"/></linearGradient><linearGradient y2="-.166" y1=".839" x2=".5" x1=".5" spreadMethod="pad" id="u"><stop stop-opacity=".141" offset="0"/><stop stop-opacity=".043" offset="1"/></linearGradient><linearGradient y2="-.746" y1=".849" x2="-.712" x1=".686" spreadMethod="pad" id="v"><stop stop-opacity=".141" offset="0"/><stop stop-opacity=".043" offset="1"/></linearGradient><linearGradient y2=".303" y1=".864" x2=".696" x1=".329" spreadMethod="pad" id="w"><stop stop-opacity=".141" offset="0"/><stop stop-opacity=".043" offset="1"/></linearGradient><radialGradient spreadMethod="pad" r="819.2" id="c" gradientUnits="userSpaceOnUse" gradientTransform="translate(-83.75 -10.1) scale(.0616)" cy="0" cx="0"><stop stop-color="#fff" offset="0"/><stop stop-color="#eed6a6" offset="1"/></radialGradient><radialGradient spreadMethod="pad" r="819.2" id="d" gradientUnits="userSpaceOnUse" gradientTransform="translate(-23.2 -38.45) scale(.0563)" cy="0" cx="0"><stop stop-color="#643302" offset="0"/><stop stop-color="#7d4002" offset="1"/></radialGradient><radialGradient spreadMethod="pad" r="819.2" id="e" gradientUnits="userSpaceOnUse" gradientTransform="translate(-99.2 161.2) scale(.1331)" cy="0" cx="0"><stop stop-color="#feb445" offset="0"/><stop stop-color="#ffa30b" offset="1"/></radialGradient><radialGradient spreadMethod="pad" r="819.2" id="f" gradientUnits="userSpaceOnUse" gradientTransform="translate(-76.3 200.4) scale(.0466)" cy="0" cx="0"><stop stop-color="#b14701" offset="0"/><stop stop-color="#e16102" offset="1"/></radialGradient><radialGradient spreadMethod="pad" r="819.2" id="g" gradientUnits="userSpaceOnUse" gradientTransform="translate(28.5 172.65) scale(.1385)" cy="0" cx="0"><stop stop-color="#b14701" offset="0"/><stop stop-color="#e16102" offset="1"/></radialGradient><radialGradient spreadMethod="pad" r="819.2" id="a" gradientUnits="userSpaceOnUse" gradientTransform="scale(.0239)" cy="0" cx="0"><stop stop-opacity=".447" stop-color="#ffa30b" offset=".345"/><stop stop-opacity="0" stop-color="#ffa20a" offset="1"/></radialGradient><radialGradient spreadMethod="pad" r="819.2" id="b" gradientUnits="userSpaceOnUse" gradientTransform="scale(.0175)" cy="0" cx="0"><stop stop-opacity=".6" stop-color="#ffecc1" offset=".58"/><stop stop-opacity="0" stop-color="#facb9d" offset="1"/></radialGradient><path stroke-width="5" stroke-linejoin="round" stroke-linecap="round" stroke="#4f4635" fill="none" d="M159.05 12.9q9.2 4.05 14.15 8.5 2.3 2.1 3.7 4.3l9.5 2.2 13.05 4.1v4.35l-8 5.8q-1.05 3.15-2.3 6.15 9.45 19.2 8.1 40.3l-.6.15.05.05q3.45 8.4 10.5 15-8.4-1.3-14.75-5.45 1.8 7.8-.8 15.3-1.5 4.2-4.35 8.35h-.7v7.95l6.3 13.8h-3.6l-4.15-3.15-.8 3.1q-2.45 7.45-10.1 15.75 3.65-10 .85-18.15-2.55 14.6-18.75 25.4.95-4.75 1.6-11.45-7.2 1.45-12.45-1.1 6.65-1.55 10.35-10.15l.65-3.6.7-5.25q.5-9.75-3.9-19.45l-2.25 4.55q2.35 6.05.95 12.1-6.3-5.5-13.55-4.95h-.35q-7.75 9.85-11.8 20.1 6.4 3.25 8.3 6.5-1.75 5.4-2.5 10.55l3.5 9.45-1.4 2.1 3.1 2.65 1.75 4.75 18.55 22q12.9 22.5 14.75 46.5l9.9 49.05 13.1 19.7 13.9 36.35q8.2 19.8 21.85 38.9 4.45-3.05 9.4-5.8 6.35-3.55 13.6-6.65 8-6.7 25.25-10.7l.1.1q3.6 1.9 3.65 4.1L269.8 383l16.8-1.95 7.5-2.75 4.4 2.85-.15 3 2.65-1.35 1.8 8-6.45 3.6-10.2 9.95-11.8 15.15-58.8 20.6-22.75-12.05 10.85-7.55-159.75-2.8-3.15-13.4 2.75-5.75-2-28.75 2.15-4.5-2.15-7 3.85-17.95v-.1q-.4-4.75-.1-9.4v-.35l-.05-.15q-1.9-6.4-3.95-12.35-3.95-11.35-9.75-21.95l-.65-1.25.1 1.5L20 275.9v-6.55q-2.9-3.75-6.05-5.75-3.25-2.05-5.15-5.5-8.2-14.8-5.7-29.85.6-3.85 1.95-7.7 3.45-9.25 25.5-17.5 7.3-3.95 14.05-9.7l2.55-2.2q-3.5-9.25-3.85-15.9-.55-10.35 6.5-14.55 11.5-6.95 28.7-2.5 2.05-4.85 13.15-9.1l.3-2.05q-15.5 5.25-22.15 5.75h-.3l-2.45-.05-21.7-22.1q-12.45-14.8-9.25-27.5l.8-2.5.15-.2.2-.75q1.05-3.9 3-6.55l.4-.5.6-2.45q.65-3.3.9-7.15l.1-1.6v-4.7l-.05-1.25q-1.45-13.55 6.6-27.8l1.15-1.9q1.75-2.65 4.3-5.05 4.1-4.05 10.25-7.55l6.25-8.2 9.75-4.45q-2.4-4.9-1.75-9.8 4.3 5.9 14.35 9.7l4.05-1.55 11.6-9.6 5.05 2.4-5.3 8 14.75-3.9-5.8 8 8.95-2.9 2.8.95q3.4-10.55 17-19.35h5.55l-2.1 2.8-.9 1.45q-2.75 4.6-2.3 8.8l12.6-2.65M47.15 191.15l.3-.25-.3.3v-.05m13.6 168.45L58.9 350l1.85 4.75v4.85m-15.4-19.25v-.1l1.25 8.85q-.9-4.4-1.25-8.75m89.65-52.6.1.15.05.25.4-.15 4.2 9.55.05.2h.05l7.3 7.55-8.2-25.7q-1.8 4.05-3.95 8.15m26.45 58.35 1.9 1.8.35.35 2.15.75-1-1.45-4.5-4.6 1.1 3.15" id="C"/><path fill-rule="evenodd" fill="#db7633" d="m45.45-169.9-.65.9-.9 1.45q-2.75 4.6-2.3 8.8l12.6-2.65q5.15 2.25 8.95 4.65 3 1.85 5.2 3.85 2.3 2.1 3.7 4.3-20.9-4.4-31-2.5-3.15.6-5.25 1.8l3.4-6.75-3.15-3.4-6.65 10.55q-.3-1.8-5.05-3.55.9-2.75 2.45-5.35 4.5-7.5 14.55-14h5.55l-1.15 1.5-.3.4m-36.5 7.3-5.3 8 14.75-3.9-5.8 8-4.55 1.5-3.1-.5-3.25-.6-3.35-.7-4.2-1.05-5.9-2 4.05-1.55L3.9-165l5.05 2.4M-39.55 1.9q-.85 1.2-.95 3.15-6.8 6.15-13.7 13.5l-.1.2q-5 7.6-9.2 15.55-5.4 10.15-9.55 20.9l-.3 1.1-2.5-1.6-1 2.75 2.7 1.85q-1.75 6.85-2.55 12.15l-.05.3-.25 1.65-.25 2.8-4.1-2.5v3.25l4 2.55.05 1.45.15 1.5.65 7.15 1.45 18.6.6 7.2.35 3.85.1 1.25-1.4-2.45q-2.3-4-4.9-7.85l-4.55-8.6v-6.55q-2.9-3.75-6.05-5.75-3.25-2.05-5.15-5.5l-2.6-5.3q-5.15-12.2-3.1-24.55l.4-2.05.2-.9 1.35-4.75q3.45-9.25 25.5-17.5 7.3-3.95 14.05-9.7l2.55-2.2v.05l4.35-3.6 2.45-2q5.8-4.7 11.25-9.5l.1.1m66.3-3.45q-.1-4 .5-8.2l3.5 9.45-1.4 2.1 3.1 2.65L34.2 9.2l-2.25-1.85-16.85 22.8-17.2 58.3q-2.45 9.6-3.45 16.05-.95 6-.55 9.2l2.8-1.8L-2 118h3.9l-.4 1.7 1.1-1.7h1l7.85 10.1 8.9 5.4q-.1 3.05.75 5.85 1.05 3.55 3.7 6.75L35 156.95q1.7 3 6.15 5.45 3.2 1.75 7.9 3.2h5.4l2.15 6.2-1.65-1.45-3.1-2.6-.35.1-.8.2q-14.2 3.3-30.3-1.75-5.2-1.6-11.3-4.35-12.4-5.5-28.75-15.6l-8.1-7.95q-5.65-5.95-10.35-12.25l-1.5-2.05-4.55-6.85q-12.25-7.55-16.55-17.7l-1.35-4-.05-.2q-.85-3.2-.95-6.6l-3.8-7.55 5.15-3.25.05-.05 33.6-26.2q13.5-11.95 25.55-24l4.15-4.25 25.1-25m46.9-105.05 4.05-6.15 2.75-4.9q2.1-4.05 3.85-8.35 9.45 19.2 8.1 40.3l-.6.15.05.05q3.45 8.4 10.5 15l-1.3-.2q-7.6-1.4-13.45-5.25 1.8 7.8-.8 15.3-1.5 4.2-4.35 8.35h-.7v7.95l6.3 13.8h-3.6L80.3-33.7l-.8 3.1q-1.3 3.9-4 8.05-2.45 3.75-6.1 7.7 3.65-10 .85-18.15Q67.7-18.4 51.5-7.6q.75-3.95 1.35-9.2l.15-1.3.25-.9-.15-.05q-7.2 1.45-12.45-1.1 3.6-.85 6.35-3.8 2.3-2.45 4-6.35l.65-3.6.7-5.25.4-5.6-.45.8q-.55-7.35-3.85-14.65 1.8-3.85 3.2-7.7l2.05-6.25.6-2.35q1.4-5.6 2.2-13.45l8.1-2.4 3.65-9 5.4-6.85" transform="translate(102.35 171.8)" id="x"/><path fill-rule="evenodd" fill="#fde8cc" d="m20.15-168.75-2.75 4.9-4.05 6.15-5.4 6.85-3.65 9-8.1 2.4Q-4.6-131.6-6-126l-.6 2.35q-.9 3.15-2.05 6.25l-3.2 7.7-2.2 4.45-.05.1q1.85 4.7 1.4 9.4l-.45 2.7q-6.3-5.5-13.55-4.95h-.35q-7.75 9.85-11.8 20.1-1.9 4.75-3 9.65l-.1.4-.7.25q-5.75 2.3-12.8 3.85l-1.55 2.3-2.55-1.5-.5.1-8.3 1.15-10.5.8q1.7-3.3 2.9-6.6 1.05-2.85 1.75-5.7l.7-3.1.3-2.05q-15.5 5.25-22.15 5.75h-.3l-2.45-.05-21.7-22.1q-12.45-14.8-9.25-27.5l.8-2.5q3-4.05 4.35-10.45.65-3.3.9-7.15l.1-1.6v-4.7l-.05-1.25q-1.4-13.05 6-26.65l.55-.75.1-.35q1.25-3.5 5.4-6.95l.15-.1.25-.35q4-3.8 9.85-7.15l6.25-8.2 9.75-4.45q-2.4-4.9-1.75-9.8 4.3 5.9 14.35 9.7 2.7 1.05 5.9 2l4.2 1.05 3.35.7 3.25.6 3.1.5q-5.35 1.8-6.05 3.65l-.1.4.15.1 2.4 1.4.2.1q1.8.85 4.1 1.45l.25.25q6.95 1.8 17.95 1.45v3.15l.15-.1v-8.05l8.95-14.25 3.15 3.4-3.4 6.75q2.1-1.2 5.25-1.8 10.1-1.9 31 2.5l9.5 2.2 13.05 4.1v4.35l-8 5.8q-1.05 3.15-2.3 6.15-1.75 4.3-3.85 8.35M30.2 95.35l13.9 36.35q8.2 19.8 21.85 38.9 4.45-3.05 9.4-5.8 6.35-3.55 13.6-6.65 8-6.7 25.25-10.7l.1.1q1.8.95 2.75 2 .9 1 .9 2.1l-13.3 5.95 16.8-1.95 7.5-2.75 4.4 2.85-.15 3 2.65-1.35 1.8 8-6.45 3.6-10.2 9.95-11.8 15.15-58.8 20.6-22.75-12.05 10.85-7.55-27.25-.5q7.2-.65 14.65-20.25l1.65-5.55-2.9-1.85q-3.6-15.55-15.05-30.2l-.2-.4L7 125.9l-6.3-2.3-1-1.45-4.5-4.6-1.05-3.05h-5.4q-4.7-1.45-7.9-3.2-4.45-2.45-6.15-5.45L-35.5 95q-2.65-3.2-3.7-6.75-.85-2.8-.75-5.85l-8.9-5.4-7.85-10.1h-5.6l-1.3-6.1-2.8 1.8q-.4-3.2.55-9.2 1-6.45 3.45-16.05l17.2-58.3 16.85-22.8 2.25 1.85 18.55 22Q5.35 2.6 7.2 26.6l9.9 49.05 13.1 19.7m-28 50.85q-3.65 5.75-9.3 9.6l-3.1 1.9-1.1.45-.1.05.05.05-.8.65q-6.55 5.3-12.95 7.85-4 1.65-21 6.4-6.8.7-13.65.35-9.2-.5-18.45-2.95-14.3-2.2-21.7-5.25l-1.75-.75-.5-.45-5.75-5.15-1.6-1.6-4.9-6.2-5-5.25-4.25-13 3.85-17.95v-.1q-.4-4.75-.1-9.4v-.35l-.05-.15q-1.9-6.4-3.95-12.35-3.95-11.35-9.75-21.95v-.05l-.65-1.2-.1-1.25-.35-3.85-.6-7.2-1.45-18.6-.65-7.15-.15-1.5-.05-1.45 14.3 9.25q.1 3.4.95 6.6l.05.2.3 1.05 1.05 2.95q4.3 10.15 16.55 17.7L-99.9 73l1.5 2.05q4.7 6.3 10.35 12.25l8.1 7.95q16.35 10.1 28.75 15.6 6.1 2.75 11.3 4.35 16.1 5.05 30.3 1.75l.8-.2.35-.1 3.1 2.6 1.65 1.45 1.9 1.8.35.35q4.45 4.5 7.7 9.45l.05 1.2q-.1 6.25-4.1 12.7M-74.5-194q-1.1-1.35-4.15-1.65-7.85.9-9.55 5.55l-.25.7-.1-.05.1.05q-.15 1.3.55 2.15 1.45 1.75 6.35 1.75 4.8-.75 7.1-4.85.9-2.2.05-3.5l-.1-.15m-44.1 41.15q-.75-.4-1.35-.4h-.1l-1.9.75-.4 3.6.55 2.05.3 1.3.3.9.45 2.8q.25 2.35-.85 6.05l.65.35q2.8.4 4.35-2 1.2-1.8 1.75-3.85l.05.65-.8 1.75 1.15-1.7.05-6.9-.75-.5q-.65-2.85-2.45-4.25l-.5-.35-.5-.25m-2.1 17.55-.1-.05-.05.05h.15m11.65 36.2q1.05.5 1.75 1.1l.2.15.5.45q1.35 1.4 1.1 3.2 2.3-1.8 9.7-1.85h2.65v-2.45l-2.45-1.55q-1.75-.85-3.6-1.2-5-.95-10.9 1.7l1.05.45m9.65 49.3-.15.15-.4.35q-5.45 4.8-11.25 9.5l-2.45 2-4.35 3.6.3-.3-.3.25q-3.5-9.25-3.85-15.9-.55-10.35 6.5-14.55 11.5-6.95 28.7-2.5-.45 1-.5 2.05.35 1.95.3 3.55l-4.55 4.45-4.6 4.35q-2 1.2-3.4 3m-.95 8.6q-1.4.5-2.1 1.8-.9 1.45-.45 3.1l.8 1.6q.45.55 1.15.95 1.45.8 3.1.4.8-.25 1.45-.7l.5.35 1.4.6.65.2q2.05.65 4.3.45l2.45-.45q4.75-1.35 7.5-5.25 1.9-2.7 1.85-5.75 2.85 1.65 6.4 3l1 .05 12.05-.65.25-.05 1.45-2.6 2.9 1.65q7.4-1.95 14.15-5.95v-.05q3.05-1.85 6-4.15l-25.1 25-4.15 4.25Q-74.85-11.35-88.35.6L-112 19.05l-8.95-5.7-.1-.1-12.6-8.05.3-1.1q4.15-10.75 9.55-20.9 4.2-7.95 9.2-15.55l.1-.2q6.9-7.35 13.7-13.5l.05 1.85-.15.2.2.2.5 2.55-.15.05m-12.7 31.35.1 2.1.3-2.15-.4.05M-30 62.75l.4-.15 4.2 9.55.05.2h.05l7.3 7.55-8.2-25.7q-1.8 4.05-3.95 8.15l-.1.25.2-.1.05.25m-89.8-44.6-.7 1.95-16.55.55.05-.3q.8-5.3 2.55-12.15l14.65 9.95m-2.2 8.7-5.15 3.25.95 1.85-11.35-6.85.25-2.8 16.15.2-.8 4.3-.05.05m2.2 88.1q.35 4.35 1.25 8.75l-1.25-8.85v.1m15.4 14.4-1.85-4.75 1.85 9.6v-4.85m25.7 36.6v.05l1.75.95-1.75-1" transform="translate(137.65 214.65)" id="y"/><path fill-rule="evenodd" fill="url(#a)" d="M0-21.6q8.95 0 15.25 6.3Q21.6-8.95 21.6 0q0 8.95-6.35 15.25Q8.95 21.6 0 21.6t-15.3-6.35Q-21.6 8.95-21.6 0t6.3-15.3q6.35-6.3 15.3-6.3" transform="translate(21.6 21.6)" id="G"/><path fill-rule="evenodd" fill="url(#b)" d="M10.05-10.05Q14.2-5.9 14.2 0t-4.15 10.05Q5.9 14.2 0 14.2t-10.05-4.15Q-14.2 5.9-14.2 0t4.15-10.05Q-5.9-14.2 0-14.2t10.05 4.15" transform="translate(14.2 14.2)" id="z"/><path fill-rule="evenodd" fill-opacity="0" fill="#f0f" d="M0 0h102.95v45H0V0" id="A"/><g id="B" stroke-opacity="0" stroke-linejoin="round" stroke-linecap="round" stroke="#f0f" fill="none"><path d="M187.95-293.5v380h-380v-380h380M92.95.6H-97" transform="translate(192.55 294)"/><path d="m187.95-293.5-190 190 190 190m-380-380 190 190L-192 86.5" transform="translate(192.55 294)"/></g><g id="F"><path fill-rule="evenodd" fill="#ffa30b" d="m-68.8-178.4.25-.7q1.7-4.65 9.55-5.55 3.05.3 4.15 1.65l.1.15q.85 1.3-.05 3.5-2.3 4.1-7.1 4.85-4.9 0-6.35-1.75-.7-.85-.55-2.15m-31.5 36.15h-.1.1m17.3 332.1.1-.05.1.3-.2-.25.2.25h-.05l-.15-.25m-16.4-2.6.2.25-.2.35v-.6" transform="translate(143.35 212.25)"/><path fill-rule="evenodd" fill="#fff" d="m-91.25-173.65.4-.4-.25.35-.15.05m-8.15 38.15 1 .85 3.05.25.15 3.35-.6 2.1-.5 1.55q-.45 1.2-1.5 1.55l-1.3.45-.5.15q-.7.4-1.4.55l-.4.05-.7.05q.7-1 1-2.2.15-.65 0-1.45l-.1-1.55.15-1.2-.1-1-.2-1.15-.1-.5q1-2.1 2.05-1.85m18.35 102.7-.2-.2.15-.2.05.4m-.3 4.1q.4 0 .65.3l.25.7q0 .4-.25.7-.25.25-.7.2l-.65-.2-.3-.7.3-.7.7-.3" transform="translate(143.35 212.25)"/><path fill-rule="evenodd" fill="#822202" d="m12.45-59.15.15.05-.25.9.1-.95" transform="translate(143.35 212.25)"/><path fill-rule="evenodd" fill="#a72c03" d="m11.65-84.05.45-.8-.4 5.6-.05-4.8m-111.95-58.2 1.35.4.5.25.5.35v2.3l2.45 1.95.3 1.7.05.65.05.35-.25-.1-3.05-.25-1-.85-.6-1.3q-.9-2.1-.75-3.5l.35-1.95h.1" transform="translate(143.35 212.25)"/><path fill-rule="evenodd" fill="#526cb8" d="m-28.05-190.6 8.95-2.9 2.8.95q4.75 1.75 5.05 3.55l-1.1 1.8q-7.8 4.05-20.9 3.85l-2.75-.1-.2-.1q-1.35-.65-2.4-1.4l-.15-.1.1-.4q.7-1.85 6.05-3.65l4.55-1.5" transform="translate(143.35 212.25)"/><path fill-rule="evenodd" fill="#263468" d="m-12.35-187.2-1.2 1.9v4.85q-11.35.35-18.35-1.55l-4.1-1.45 2.75.1q13.1.2 20.9-3.85" transform="translate(143.35 212.25)"/><path fill-rule="evenodd" fill="#faf5f3" d="m-68.8-178.4-.1-.05.1.05M-93.3 3.25l-.1-2.1.4-.05-.3 2.15m101.6 166-.05-.05.1-.05 1.1-.45-1.15.55" transform="translate(143.35 212.25)"/><path fill-rule="evenodd" fill="#f5eddd" d="m-96.75-166.3-.55.75.6-1.15v.05l-.05.35m1.4 31.9.25.1-.05-.35-.05-.65-.3-1.7.75.5-.05 6.9-1.15 1.7.8-1.75-.05-1.4-.15-3.35m-5.85 10.1.05-.05.1.05h-.15" transform="translate(143.35 212.25)"/><path fill-rule="evenodd" fill="#bdd2d1" d="m-100.4-142.25-.35 1.95q-.15 1.4.75 3.5l.6 1.3q-1.05-.25-2.05 1.85l-.1.2h-.05l-.25-1.1-.15-.75-.05-.2-.45-1.85-.1-.35-.1-.2.4-3.6 1.9-.75" transform="translate(143.35 212.25)"/><path fill-rule="evenodd" d="m-95.5-137-2.45-1.95v-2.3q1.8 1.4 2.45 4.25" transform="translate(143.35 212.25)"/><path fill-rule="evenodd" fill="#c9b88f" d="M-75.95-89.05-76.7-88l-1.35.1-1-1.6q-5.65.55-7.6 1.55h-.05l-.25 1.55-.5-.45-.2-.15-1.75-1.1-1.05-.45q5.9-2.65 10.9-1.7 1.85.35 3.6 1.2" transform="translate(143.35 212.25)"/><path fill-rule="evenodd" fill="#774a02" d="m-75.95-89.05 2.45 1.55v2.45h-2.65q-7.4.05-9.7 1.85.25-1.8-1.1-3.2l.25-1.55h.05q1.95-1 7.6-1.55l1 1.6 1.35-.1.75-1.05" transform="translate(143.35 212.25)"/><path fill-rule="evenodd" fill="#fc0" d="m-79.9-38.65.15-.15q1.4-1.8 3.4-3 1.55-1 3.5-1.55l1.4-.35.15.3.05.15.05.1h-.05l-.7.3-.25.1q-1 .45-1.3 1.1l-.15.55-1.6.9q-1.5.95-2.7 2.3l-.2.2-.2-.2-.2.3-.2.4-.55 1.65q-.4 1.95.35 3.95l-.75 1.15-.6.15-.25.05.25-.05.6-.15 1.35.05.2.05.25.1q.45.85.45 1.85 0 1.95-1.8 3.35-1.4 1.1-3.2 1.35l-.8-1.6q-.45-1.65.45-3.1.7-1.3 2.1-1.8l.15-.05-.5-2.55-.05-.4-.05-1.85q.1-1.95.95-3.15l.3-.45m-1.45 9.95-.7.3-.3.7.3.7.65.2q.45.05.7-.2.25-.3.25-.7l-.25-.7q-.25-.3-.65-.3m11.2-10.05q3.3 2.45 2.9 5.85-.45 3.4-.7 3.8-.45 1.45-4.35 1.95l-1.9.15-1.05-3.85-1.05-3.05-.75-1.85q.4-1.3 1.3-2.05.7-.6 1.65-.9l2.85-.25.35.05.75.15" transform="translate(143.35 212.25)"/><path fill-rule="evenodd" fill="url(#c)" d="m-81.05-32.8-.2-.2.2.2" transform="translate(143.35 212.25)"/><path fill-rule="evenodd" fill="#c16c17" d="M-76.75-23.05q-.65.45-1.45.7-1.65.4-3.1-.4l-1.15-.95q1.8-.25 3.2-1.35 1.8-1.4 1.8-3.35 0-1-.45-1.85l.7.35.4.25q1.1.8 1.5 2.25l.05.1.1.6q.1 1.25-.55 2.4l-.1.2q-.4.6-.95 1.05" transform="translate(143.35 212.25)"/><path fill-rule="evenodd" fill="#9a4e03" d="M-66.3-57.45q2.8-4.15 12.45-7.85l-.7 3.1q-9.35 4.4-7.45 7.3-1.05 3 2.8 5l10.5-.8 8.3-1.15.5-.1 2.55 1.5 1.55-2.3q7.05-1.55 12.8-3.85l.7-.25.1-.4 6.15-1.75 4.7-.85q-8.45 10.05-25.1 12.7h-.05l-9.3 1.4-.25-1.2-10.65.15-6.85-2.15-1.45-2 .3-4.75-1.6-1.75m28.95 7 .9 3.3-.9-3.3" transform="translate(143.35 212.25)"/><path fill-rule="evenodd" fill="#6a3602" d="M-19.2-66.9q6.4 3.25 8.3 6.5l-.45.55-4.7.85-6.15 1.75q1.1-4.9 3-9.65" transform="translate(143.35 212.25)"/><path fill-rule="evenodd" fill="url(#d)" d="m-10.9-60.4-.15.6-.75 2.5-.15.5-11.8 10.85 3.85 8.45v.05q-6.75 4-14.15 5.95l-2.4-1.35-.5-.3-1.45 2.6-.25.05-12.05.65.55-2.05-5.2-7.4-5.85-1.45q-1.15-1.15-2.75-1.95-2.05-1.05-4.3-1.2l-.5-1.5q1.1-1.35 1.45-3.5 1.35 1.15 3.35 1.95 6.2 2.45 18.15 1.2l9.3-1.4h.05l-.15 2.45-3.15.5 3.15-.5.15-2.45q16.65-2.65 25.1-12.7l.45-.55m-27.95 21.9 2.15-.4.1 3.3v.7l.15 2.05-.15-2.05v-.7l-.1-3.3-2.15.4m4.5-.85-2.35.45.1-5.8 2.9-.5-2.9.5-.1 5.8 2.35-.45" transform="translate(143.35 212.25)"/><path fill-rule="evenodd" fill="#4e2701" d="m-11.95-56.8-1.45 6.95q-.6 4.2-.5 8.2-2.95 2.3-6 4.15l-3.85-8.45 11.8-10.85m-42.6-5.4q-.7 2.85-1.75 5.7-1.2 3.3-2.9 6.6-3.85-2-2.8-5-1.9-2.9 7.45-7.3m-6.65 21.45 5.85 1.45 5.2 7.4-.55 2.05-1-.05q-3.55-1.35-6.4-3 0-1.45-.4-2.95-.8-2.95-2.7-4.9" transform="translate(143.35 212.25)"/><path fill-rule="evenodd" fill="#c66504" d="M-67.2-50.6q.05-1.6-.3-3.55.05-1.05.5-2.05l.7-1.25 1.6 1.75-.3 4.75 1.45 2 6.85 2.15 10.65-.15.25 1.2q-11.95 1.25-18.15-1.2-2-.8-3.35-1.95l.1-1.7" transform="translate(143.35 212.25)"/><path fill-rule="evenodd" fill="#bf7a09" d="m-71.2-43.15-.05-.1-.05-.15-.15-.3.7-.1 2.5-.1q2.25.15 4.3 1.2 1.6.8 2.75 1.95 1.9 1.95 2.7 4.9.4 1.5.4 2.95.05 3.05-1.85 5.75-2.75 3.9-7.5 5.25l-2.45.45q-2.25.2-4.3-.45l-.65-.2-1.4-.6-.5-.35q.55-.45.95-1.05l.75.45.15-.05h.15q1-.4.65-2.85l-.1-.45 1.9-.15q3.9-.5 4.35-1.95.25-.4.7-3.8.4-3.4-2.9-5.85l1.35.1q1.85 0 3.25-.6l.15-.1q1.2-.55 1.4-1.35v-.1l.05-.25q0-1-1.4-1.7-1.2-.55-2.7-.7h-.75l-2.4.3" transform="translate(143.35 212.25)"/><path fill-rule="evenodd" fill="#e6bc79" d="m-68.25-43.9-2.5.1 2-1.6.5 1.5m94.2 187.2.1.25-.15-.25h.05m3.3 4.45-.15-.25-.05-.15.2.4" transform="translate(143.35 212.25)"/><path fill-rule="evenodd" fill="#fa7549" d="m-80.3-38.3.4-.35-.3.45-.1-.1" transform="translate(143.35 212.25)"/><path fill-rule="evenodd" fill="#864b11" d="m-79.7-30.45.75-1.15q-.75-2-.35-3.95l.55-1.65.2-.4.2-.3.2.2.2-.2q1.2-1.35 2.7-2.3l1.6-.9.15-.55q.3-.65 1.3-1.1l.25-.1.7-.3h.05l2.4-.3h.75q1.5.15 2.7.7 1.4.7 1.4 1.7l-.05.25v.1q-4.45-2.1-7.85.45l-2.25 1.55q-.95.3-1.65.9-.9.75-1.3 2.05l.75 1.85-1.85 3.55-.2-.05-1.35-.05" transform="translate(143.35 212.25)"/><path fill-rule="evenodd" fill="#773d02" d="m-75.8-24.1.1-.2q.65-1.15.55-2.4l-.1-.6-.05-.1q-.4-1.45-1.5-2.25l-.4-.25-.7-.35-.25-.1 1.85-3.55 1.05 3.05L-74.2-27l.1.45q.35 2.45-.65 2.85h-.15l-.15.05-.75-.45M-64-40.7q-.2.8-1.4 1.35l-.15.1q-1.4.6-3.25.6l-1.35-.1-.75-.15-.35-.05-2.85.25 2.25-1.55q3.4-2.55 7.85-.45" transform="translate(143.35 212.25)"/><path fill-rule="evenodd" fill="#bb2f2f" d="m-38.05 77.9-1.1 1.7.4-1.7h.7" transform="translate(143.35 212.25)"/><path fill-rule="evenodd" fill="#c64533" d="M-120.95 70.1q2.6 3.85 4.9 7.85l.85 1.45.55 1 .1 1.3v.2l-6.4-11.8" transform="translate(143.35 212.25)"/><path fill-rule="evenodd" fill="#c69564" d="M-10.4 73.5h-.05l-.15.1.1-.25.1.15" transform="translate(143.35 212.25)"/><path fill-rule="evenodd" fill="#ac5602" d="m-114 16.2 12.6 8.05.1.1 2.6 1.65 6.35 4.05-3 2.35-1.5 1.15-4.65-.05-16.15-.2.25-1.65 16.55-.55 3.4-.15-2.7-1.8-14.65-9.95-2.7-1.85 1-2.75 2.5 1.6m7.45 26.75.95 1.85.05.1 1.85 3.75-14.3-9.25-4-2.55V33.6l4.1 2.5 11.35 6.85m11.2-10.55-2.1-1.45 2.1 1.45" transform="translate(143.35 212.25)"/><path fill-rule="evenodd" fill="url(#e)" d="m-94.95 168.65.5 1.4-.5-1.4m-7.05 15.5-2-28.75 2.15-4.5 2.1 6 5 5.25 4.9 6.2 1.6 1.6 5.75 5.15.5.45 1.75.75q7.4 3.05 21.7 5.25 9.25 2.45 18.45 2.95 6.85.35 13.65-.35 17-4.75 21-6.4 6.4-2.55 12.95-7.85 4.65 8.35-18.1 16l.1.45q-14.05 3.75-32.15 2.55l-2.45-.15-26.95-4.75q-15.3-8.95-10.85 5.8l-.1.05-11.45-19.8q2.6 6.9 6.45 12.95l-11.2-13.2-.2 17.45-2.6-3.1" transform="translate(143.35 212.25)"/><path fill-rule="evenodd" fill="url(#f)" d="m-102 184.15 2.6 3.1.2-17.45L-88 183l2.4 3.45 4.5 17.1-20.5-.25-3.15-13.4 2.75-5.75m5 6-2.2-2.65 2.2 2.65m-2.2-2.65-.2-.25v.6l.2-.35" transform="translate(143.35 212.25)"/><path fill-rule="evenodd" fill="#923a01" d="m-81.1 203.55-4.5-17.1 2.6 3.4.15.25h.05q6.4 7.6 15.15 13.6l-13.45-.15m43.15.7-14.6-3.65-13.9-7.05-.45-2.85 16.15 4.25 22.95 2.9 20.1-3.5L9.05 183.2v2.65l-12.65 13.1-16.2 5.65-18.15-.35M.8 205q18.55-1.3 31.1-6.7l7.65-14.15.5-8.8-8.65-8-7.25 7.45-14.45 5.45 11.4-9.55 7.4-11.15q.95-5.75.6-11.8h.15q11.45 14.65 15.05 30.2l2.9 1.85-1.65 5.55q-7.45 19.6-14.65 20.25L.8 205m27.15-42.85.55-2.6-.55 2.6" transform="translate(143.35 212.25)"/><path fill-rule="evenodd" fill="#e16102" d="M-88 183q-3.85-6.05-6.45-12.95l11.45 19.8-2.6-3.4L-88 183m113.95-38.5-.05-1.2.15.25.4.6-.5.35m3.15 3.25-.05-.25v-.15l.05.15.15.25h-.15" transform="translate(143.35 212.25)"/><path fill-rule="evenodd" fill="url(#g)" d="M-82.9 189.8q-4.45-14.75 10.85-5.8l26.95 4.75 2.45.15q18.1 1.2 32.15-2.55l-.1-.45q22.75-7.65 18.1-16l.8-.65 1.15-.55 3.1-1.9q5.65-3.85 9.3-9.6 4-6.45 4.1-12.7l.5-.35-.4-.6-.1-.25h-.05q-3.25-4.95-7.7-9.45l2.15.75 6.3 2.3 2.4 10.45v.15l.05.25q.35 6.05-.6 11.8l-7.4 11.15-11.4 9.55 14.45-5.45 7.25-7.45 8.65 8-.5 8.8-7.65 14.15Q19.35 203.7.8 205l-20.6-.4 16.2-5.65 12.65-13.1v-2.65L-7.7 194.35l-20.1 3.5-22.95-2.9-16.15-4.25.45 2.85 13.9 7.05 14.6 3.65-29.7-.55q-8.75-6-15.15-13.6l-.1-.3m81.3 10.1-.05.05.65 1.5v.05h.05L21.2 195l12.05-10.2 1.9-7.75Q28 179.4 28.9 174.2L15.4 185 2.95 197l-4.55 2.9m25.4-62.35 2.15 5.75-2.15-5.75" transform="translate(143.35 212.25)"/><path fill-rule="evenodd" fill="#dd5f01" d="m-1.6 199.9 4.55-2.9 12.45-12 13.5-10.8q-.9 5.2 6.25 2.85l-1.9 7.75L21.2 195l-22.15 6.5H-1v-.05l-.65-1.5.05-.05" transform="translate(143.35 212.25)"/><path fill-rule="evenodd" fill="#fb8854" d="m-76.35-41.8 4.6-4.35 4.55-4.45-.1 1.7q-.35 2.15-1.45 3.5l-2 1.6-.7.1-1.4.35q-1.95.55-3.5 1.55" transform="translate(143.35 212.25)"/><path fill-rule="evenodd" fill="#4f4635" d="m-96.85 33.55-5.45 4.25.8-4.3 4.65.05m-3.3-4.4 2.7 1.8-3.4.15.7-1.95" transform="translate(143.35 212.25)"/><path stroke-width=".75" stroke-opacity=".651" stroke-linejoin="round" stroke-linecap="round" stroke="#2f231a" fill="none" d="m148.15 2.25-.65.9-.9 1.45q-2.75 4.6-2.3 8.8l12.6-2.65q5.15 2.25 8.95 4.65 3 1.85 5.2 3.85 2.3 2.1 3.7 4.3l9.5 2.2 13.05 4.1v4.35m-70.25-14.5q.9-2.75 2.45-5.35 4.5-7.5 14.55-14h5.55l-1.15 1.5M189.3 40q-1.05 3.15-2.3 6.15 9.45 19.2 8.1 40.3m-63-63.2 6.65-10.55 3.15 3.4-3.4 6.75q2.1-1.2 5.25-1.8 10.1-1.9 31 2.5M187 46.15q-1.75 4.3-3.85 8.35l-2.75 4.9-4.05 6.15-5.4 6.85q1.7 4.95 2.75 10.55.75 4.4 1.1 8.7.6 6.95.25 14.65l-2.4-3.5m-13.3-66.7q-9.55 3.65-13.85 10.8v5.45l-3.95 3.6M162.6 35q4.25-1.4 10.15-2.65l1.7.1m-3.5 39.95-3.65 9-8.1 2.4q-.8 7.85-2.2 13.45l-.6 2.35-2.05 6.25q-1.4 3.85-3.2 7.7 3.3 7.3 3.85 14.65m.45-.8-.4 5.6-.7 5.25-.65 3.6q-1.7 3.9-4 6.35-2.75 2.95-6.35 3.8 5.25 2.55 12.45 1.1m-.1.95-.15 1.3-1.35 9.2q16.2-10.8 18.75-25.4l.4-3.7.05-1.55v-.85m-21.35-47.1-.45.15m32.5 29.45.35 12.25 6.3 13.8h-3.6l-4.15-3.15-.8 3.1q-1.3 3.9-4 8.05-2.45 3.75-6.1 7.7 3.65-10 .85-18.15m-17.9-6.15-.05-4.8m-3.85-14.65-2.2 4.45-.05.1q1.85 4.7 1.4 9.4l-.45 2.7q-6.3-5.5-13.55-4.95h-.35l-3.9.8-1.5.5-.6.45q-7.8 5.6-21.75 11.2-5.45 2.2-11.75 4.35l-6.65 2.35q-15.5 5.25-22.15 5.75m88.05 3.4.1-.95M52.5 38.2q4-3.8 9.85-7.15l6.25-8.2 9.75-4.45q-2.4-4.9-1.75-9.8 4.3 5.9 14.35 9.7L95 16.75l11.6-9.6 5.05 2.4-5.3 8 14.75-3.9-5.8 8 8.95-2.9 2.8.95q4.75 1.75 5.05 3.55l-1.1 1.8-1.2 1.9v9.65m-19.05-13.45-3.1-.5-3.25-.6-3.35-.7-4.2-1.05q-3.2-.95-5.9-2m16.2 10.4q-1.35-.65-2.4-1.4l-.15-.1.1-.4q.7-1.85 6.05-3.65l4.55-1.5m14.5 10.15q-11.35.35-18.35-1.55l-4.1-1.45m32.9 28.35-.4.4m-65.3-23.7q-.15 1.3.55 2.15 1.45 1.75 6.35 1.75 4.8-.75 7.1-4.85.9-2.2.05-3.5l-.1-.15q-1.1-1.35-4.15-1.65-7.85.9-9.55 5.55l-.25.7m3.8-15.45q1.1 2.2 2.85 4.45-11.05 3.65-18.85 8.2M52.1 38.6l.4-.4m3.9 87.65q1.35 1.4 1.1 3.2 2.3-1.8 9.7-1.85h2.65v-2.45l-2.45-1.55-.75 1.05-1.35.1-1-1.6q-5.65.55-7.6 1.55h-.05l-.25 1.55-.5-.45m-.2-.15-1.75-1.1-1.05-.45q5.9-2.65 10.9-1.7 1.85.35 3.6 1.2m-6.65 14.9 1.8.2q3.05.05 7.1-1.3l.7-.25"/><path stroke-width=".25" stroke-opacity=".651" stroke-linejoin="round" stroke-linecap="round" stroke="#2f231a" fill="none" d="m172.65 102.8-2.6-3.4m-4.2-3.9 1.85 1.5m17.65-4.8 1.35 1.2m7.85-6.7q3.25 7.9 9.7 14.25l.8.7-1.3-.2q-7.6-1.4-13.45-5.25 1.8 7.8-.8 15.3-1.5 4.2-4.35 8.35m-132.9-81.3-.15.1q-4.15 3.45-5.4 6.95l-.1.35m-.55.75q-7.4 13.6-6 26.65l.05 1.05m5.95-27.7.6-1.15m1.2 29.7L45.4 73.3V71m2.45 4.25.75.5m19.05 74.9-2.75-.05-21.7-22.1q-12.45-14.8-9.25-27.5l.8-2.5q3-4.05 4.35-10.45.65-3.3.9-7.15l.1-1.6v-4.35"/><path stroke-width=".25" stroke-linejoin="round" stroke-linecap="round" stroke="#0f0" fill="none" d="m52.5 38.2-.25.35m-5.65 7.4-.55.75"/><path stroke-width="1.75" stroke-linejoin="round" stroke-linecap="round" stroke="#691003" fill="none" d="m42.95 70-.35 1.95q-.15 1.4.75 3.5l.6 1.3 1 .85 3.05.25.25.1M42.95 70H43"/><path stroke-width=".5" stroke-opacity=".2" stroke-linejoin="round" stroke-linecap="round" stroke="#000" fill="none" d="M48.5 99.7q1.55 6.2 3.1 7.55"/><path stroke-width=".75" stroke-opacity=".651" stroke-linejoin="round" stroke-linecap="round" stroke="#2f231a" fill="none" d="M135.95 125.25q-7.75 9.85-11.8 20.1 6.4 3.25 8.3 6.5l-.15.6-.75 2.5m-.15.5-1.45 6.95 3.5 9.45-1.4 2.1 3.1 2.65 1.75 4.75 18.55 22q12.9 22.5 14.75 46.5l9.9 49.05 13.1 19.7 13.9 36.35q8.2 19.8 21.85 38.9 4.45-3.05 9.4-5.8 6.35-3.55 13.6-6.65 8-6.7 25.25-10.7l.1.1q1.8.95 2.75 2 .9 1 .9 2.1l-13.3 5.95 16.8-1.95 7.5-2.75 4.4 2.85-.15 3 2.65-1.35 1.8 8-6.45 3.6-10.2 9.95-11.8 15.15-26.05 9.1m-169.8-270.4q-17.2-4.45-28.7 2.5-7.05 4.2-6.5 14.55.35 6.65 3.85 15.9l.3-.25-.3.3 4.35-3.6 2.45-2 11.25-9.5.4-.35.15-.15q1.4-1.8 3.4-3l4.6-4.35 4.55-4.45q.05-1.6-.3-3.55.05-1.05.5-2.05l.7-1.25q2.8-4.15 12.45-7.85l.3-2.05m-27.55 34.15-.05-1.85q-6.8 6.15-13.7 13.5l-.1.2q-5 7.6-9.2 15.55-5.4 10.15-9.55 20.9l-.3 1.1 12.6 8.05m.1.1 2.6 1.65 2.4-4q3.45-4.85 8.8-8.8 3.75-2.85 8.5-5.2m-2.1-41.2.05.4.5 2.55.25-.05.6-.15 1.35.05.2.05.25.1m6.65-12.9h.05m-.25-.55-1.4.35q-1.95.55-3.5 1.55m-6.1 18.1-.8-1.6q-.45-1.65.45-3.1.7-1.3 2.1-1.8l.15-.05M45 189.05V189l-2.55 2.2q-6.75 5.75-14.05 9.7-22.05 8.25-25.5 17.5l-1.35 4.75m59.35-34.6 1.15.95q1.45.8 3.1.4.8-.25 1.45-.7.55-.45.95-1.05l.1-.2q.65-1.15.55-2.4l-.1-.6-.05-.1q-.4-1.45-1.5-2.25l-.4-.25-.7-.35m42.1-22.5q7.05-1.55 12.8-3.85l.7-.25.1-.4q1.1-4.9 3-9.65m-40 17 10.5-.8 8.3-1.15M88.8 150.05q-.7 2.85-1.75 5.7-1.2 3.3-2.9 6.6-3.85-2-2.8-5m7.45-7.3.7-3.1m3.15 35.45 12.05-.65m-19.45-2.4q.05 3.05-1.85 5.75-2.75 3.9-7.5 5.25l-2.45.45q-2.25.2-4.3-.45l-.65-.2-1.4-.6-.5-.35m26.05-6.8-1-.05q-3.55-1.35-6.4-3 0-1.45-.4-2.95-.8-2.95-2.7-4.9-1.15-1.15-2.75-1.95-2.05-1.05-4.3-1.2l-2.5.1-.7.1m2.7-1.7.5 1.5m.95-5q-.35 2.15-1.45 3.5l-2 1.6m-3.45 16.8.1.45q.35 2.45-.65 2.85m-5.45-14.5.3-.45m4.15.85q-.9.75-1.3 2.05l.75 1.85 1.05 3.05 1.05 3.85m4.05-11.75-.75-.15-.35-.05-2.85.25m35.35 116.6h-3.9l-1.3-6.1-2.8 1.8q-.4-3.2.55-9.2 1-6.45 3.45-16.05l17.2-58.3 16.85-22.8 2.25 1.85m-13.45-6.55q-6.75 4-14.15 5.95m20.65-18.35q-.6 4.2-.5 8.2-2.95 2.3-6 4.15m-14.6 16.4 2.65-2.65m2.9 18.65.1-.4m8.2-20.55-2.7 3.05q-4.7 5.25-10.3 10.65l-2.15 1.85m-3.2-6.15-4.15 4.25q-12.05 12.05-25.55 24L51 242.3l-3 2.35-1.5 1.15-5.45 4.25-.05.05-5.15 3.25.95 1.85.95 1.85m.05.1 1.85 3.75q.1 3.4.95 6.6l.35 1.25L42 271.7q4.3 10.15 16.55 17.7l1 .6m16.6-128.35-.1 1.7M62.2 177.2q.1-1.95.95-3.15m-4.6 115.35 4.55 6.85 1.5 2.05q4.7 6.3 10.35 12.25l8.1 7.95q16.35 10.1 28.75 15.6 6.1 2.75 11.3 4.35 16.1 5.05 30.3 1.75m-74.25-47.15-7.05.6q-4.45-.15-8.5-1.65m69.35-6.25h-.05m-.15.1.1-.25q2.15-4.1 3.95-8.15l-7.2-13.75q-3.75-1.9-10.65 3.35m14 18.7-.1-.15m-17.05 15.65-1.65-1-7.85-10.1h-1l-1.1 1.7m.4-1.7h.7M118.65 303l4.4 2.65q-.1 3.05.75 5.85 1.05 3.55 3.7 6.75l10.2 10.85q1.7 3 6.15 5.45 3.2 1.75 7.9 3.2h3.5l-3.3-3.35-2.95-18.8-4-12.45-7.3-7.55-4.75-9.85M127 258l2.6 5.7m-30.2 20.35 7.7-5.6m-59.45-47.8 1.25-8m1.15-7.15.3-2.15m-21.8 18.1-2.7-1.85 1-2.75 2.5 1.6m-3.65 17.1.25-1.65.05-.3q.8-5.3 2.55-12.15l14.65 9.95 2.7 1.8 2.1 1.45m-22.55 3.7.25-2.8 16.15.2 4.65.05m-21.15 5.85.05 1.45.15 1.5.65 7.15 1.45 18.6.6 7.2.35 3.85.1 1.25.55 1.05.1.15v.05q5.8 10.6 9.75 21.95 2.05 5.95 3.95 12.35l.05.15v.35q-.3 4.65.1 9.4v.1-.1q2 11.35 4 19.95l1.05 4.35 1 3.65m-7.4-120.3-.8 4.3m-15.6-1.7 11.35 6.85m2.85 5.7-14.3-9.25-4-2.55v-3.25l4.1 2.5m31.85-7.55-6.7 5.6m-5.95-8.15L51 242.3m-7.8-.9-.7 1.95 3.4-.15m-3.4.15-16.55.55m-24.6-19.85-.4 2.05q-2.05 12.35 3.1 24.55l2.6 5.3q1.9 3.45 5.15 5.5 3.15 2 6.05 5.75v6.55l4.55 8.6q2.6 3.85 4.9 7.85l.85 1.45.55 1 .1 1.3v.2l-6.4-11.8m36.2 75.1-1.85-9.6 1.85 4.75v4.85M43.2 338.1l1.25 8.85q-.9-4.4-1.25-8.75l-3.85 17.95m9.55 26.15-.5-1.4m102.45 1.25q-6.55 5.3-12.95 7.85-4 1.65-21 6.4-6.8.7-13.65.35-9.2-.5-18.45-2.95-14.3-2.2-21.7-5.25l-1.75-.75-.5-.45-5.75-5.15-1.6-1.6-4.9-6.2-5-5.25-2.1-6-2.15 4.5 2 28.75 2.6 3.1m11.4-4.25q-3.85-6.05-6.45-12.95m101.95-.15.8-.65m1.15-.55 3.1-1.9q5.65-3.85 9.3-9.6 4-6.45 4.1-12.7l-.05-1.2q-3.25-4.95-7.7-9.45l-.35-.35-1.9-1.8-1.65-1.45-3.1-2.6m-113.2 56.5-2.75 5.75 3.15 13.4 20.5.25 13.45.15 29.7.55m-47.65-17.8-2.4-3.45m-11.2 4.5 2.2 2.65m-2.2-2.65-.2-.25m16.4 2.6-2.6-3.4m2.8 3.65q6.4 7.6 15.15 13.6l.7.7m47.15.2 20.6.4m27.7-45.45q.95-5.75.6-11.8l-.05-.25v-.15l-2.4-10.45-6.3-2.3-2.15-.75m-101.2 56 .2.25m-19.85-41.8.8 2.6m110.25-25.4-9.9-.8-7.8-2.05m-46.8 36.3-4.35 5.7.55 4.75m16.15-72.5q11.2 6.1 27.9 9.1m-3.95 98.6-18.15-.35m53.9-72.55-1.1-3.15-1.05-3.05h-1.9m2.95 3.05 4.5 4.6 1 1.45m5.7 8.95-.1-.25-2.15-5.75m2.1 5.75.15.25.4.6m2.8 3.6-.15-.25-.05-.15m.2.4q11.45 14.65 15.05 30.2l2.9 1.85-1.65 5.55q.75 7.1-.1 14.4l12.7 6.35-10.85 7.55 22.75 12.05 32.1-11.25m-73.65-54.9-.55 2.6m-18.5 6.55-1.15.55m82.8 19.65-5.5-7.3m47 1.9L288.1 386l8.1-4m-26.1 6.9 14.35-10m-22.5 4.4 5.7-2.45m-93.4 37-30.1-.6m57.35 1.1-27.25-.5q7.2-.65 14.65-20.25M145 303.15l-8.2-25.7"/><path stroke-opacity=".2" stroke-linejoin="round" stroke-linecap="round" stroke="#4e2701" fill="none" d="m-40.4-51.85.5-.1 2.55 1.5 1.55-2.3m-2.85 22.25.25-.05 1.45-2.6.5.3-.15-2.05v-.7l-.1-3.3-2.15.4m2.4-8.65-.9-3.3m3.3 18.95-2.4-1.35m2.75-12.35-2.9.5-.1 5.8 2.35-.45m-5.4-4.85 3.15-.5.15-2.45" transform="translate(143.35 212.25)"/><path fill-rule="evenodd" fill-opacity=".2" fill="#fff" d="m-91.55-28.8 11.25-9.5.1.1q-.85 1.2-.95 3.15-6.8 6.15-13.7 13.5l-.1.2Q-115.15-5.05-131.7.4l-.4.25q-6.85 3.65-9.7 10.25l1.35-4.75q3.45-9.25 25.5-17.5 7.3-3.95 14.05-9.7l2.55-2.2v.05l4.35-3.6 2.45-2m29.3 76.45.05.25q-5.1 10.3-17 13.65-13.15 3.95-16.25-9.45l-.25-1.15v-.1q0-5.5 3.55-10.95l.25-.35q11.6-15.35 23.3-12.7l1.15.4q10.85 4.45 5.2 20.4m21.35-59.3-6.45 7.9-32.9 27.35-1.35-1.9 12.9-10.1q13.5-11.95 25.55-24l2.25.75" transform="translate(143.35 212.25)"/><path fill-rule="evenodd" fill-opacity=".212" d="m-68.75-45.4-2 1.6-.7.1-1.4.35q-1.95.55-3.5 1.55l4.6-4.35 4.55-4.45-.1 1.7q-.35 2.15-1.45 3.5m-.4 63.05q11.3-7.7 21.35-16.3-1.9 6 3.3 5.7-14.75 4.6-24.65 10.6m40.3-23.15-.1.4q-10.6 26.05-17.45 56.5l-.2.75q-9.5 24.75-33.15 27.6l-.2-.1q-2-.8-3.85-1.9l-1-.6q-12.25-7.55-16.55-17.7l-1.35-4-.05-.2q-.85-3.2-.95-6.6l-1.9-3.85 24.3-20.2q-27.85 24.2-17.2 35.6l1.35 1.3q6.65 6 14.3 7.45 8.1 4.8 29.65-21.4Q-63.95 63-55.95 53.4q7.35-4.7 24.25-58.8l13.35-14.25-10.5 14.15m-89.35 16.15q5.6-6.1 8.9-14.5l-6.5 18.9-.7-.45-1 2.75 2.7 1.85q-1.75 6.85-2.55 12.15l-2.05-1.05v-7.6L-131 38.8l-.05.15-8.25-.55q-5.15-12.2-3.1-24.55.55 28.75 19.5 2.9l3.15-4.55 1.55-1.55" transform="translate(143.35 212.25)"/><path fill-rule="evenodd" fill-opacity=".4" d="m-6.45-30.9-2.25-1.85-5.35 7.3q.5-4.1-6.6-.6l-2.7 3.05q-4.7 5.25-10.3 10.65l-11.6 9.95L-25-25.75q-2.1-.35-6.85 2l17.95-17.9q-.1-4 .5-8.2l3.5 9.45-1.4 2.1 3.1 2.65 1.75 4.75m-19.1 20.95-17.2 58.3q-2.45 9.6-3.45 16.05l-5.65 8-12.35 8.4-7.05.6q-4.45-.15-8.5-1.65 23.65-2.85 33.15-27.6l.2-.75q6.85-30.45 17.45-56.5l.1-.4 3.3-4.45M-61.1 88l.55-.15.1-.05q5.7-1.55 10.35-4.9l12.7 1.65 3.45-2.65 4.75 6.1 8.9 5.4q-.1 3.05.75 5.85-3.05 1.35-10.4.15l-13.8-2.5q11.2 6.1 27.9 9.1l10.2 10.85q1.7 3 6.15 5.45l-9.8.35 7.8 2.05 9.9.8h5.4l2.15 6.2-1.65-1.45-3.1-2.6-.35.1-.8.2q-29.45-2.35-41.6-6.1-12.4-5.5-28.75-15.6l-8.1-7.95q-5.65-5.95-10.35-12.25l-1.5-2.05q11.45 5.95 19.15 4m-56.3-56.35-.25 1.65-.25 2.8-4.1-2.5v3.25l4 2.55.05 1.45.15 1.5.65 7.15 1.45 18.6.6 7.2.35 3.85.1 1.25-1.4-2.45q-2.3-4-4.9-7.85l-4.55-8.6v-6.55q-2.9-3.75-6.05-5.75-3.25-2.05-5.15-5.5l-2.6-5.3 8.25.55.05-.15 11.6-16.1v7.6l2.05 1.05-.05.3" transform="translate(143.35 212.25)"/><path fill-rule="evenodd" fill-opacity=".6" d="m8.4 125.5-9.9-.8-7.8-2.05 9.8-.35q3.2 1.75 7.9 3.2m-54.6-61.1q-.95 6-.55 9.2l2.8-1.8 1.3 6.1h3.9l-.4 1.7 1.1-1.7h1l3.1 4-3.45 2.65-12.7-1.65q-4.65 3.35-10.35 4.9l-.1.05-.55.15q-7.7 1.95-19.15-4l-4.55-6.85 1 .6q1.85 1.1 3.85 1.9l.2.1q4.05 1.5 8.5 1.65l7.05-.6 12.35-8.4 5.65-8m30.35 41.6q-16.7-3-27.9-9.1l13.8 2.5q7.35 1.2 10.4-.15 1.05 3.55 3.7 6.75m-4.4 20.2q-5.2-1.6-11.3-4.35 12.15 3.75 41.6 6.1-14.2 3.3-30.3-1.75" transform="translate(143.35 212.25)"/><path fill-rule="evenodd" fill-opacity=".302" fill="#fff" d="M13.55-201.5q5.15 2.25 8.95 4.65 3 1.85 5.2 3.85l-19.95-3.15-4.45-3.2 10.25-2.15M4.8-210l-.65.9-.9 1.45-6.7 6-.45 2.85-.7-.75-6.65 10.55q-.3-1.8-5.05-3.55.9-2.75 2.45-5.35 4.5-7.5 14.55-14h5.55l-1.15 1.5-.3.4m44.1 76.9-.4-2.9q-2.3-14.9-8.7-21.75 2.1-4.05 3.85-8.35 9.45 19.2 8.1 40.3l-.6.15q-1.45-3.55-2.25-7.45m-1.5 62.45h-3.6l-8.55-15.4L31.9-97.9l2.65 1.05 3.8-6.45 1.45 17.05 1.3 1.6v.2l6.3 13.8m-23.45-9.5 2.5 5.35 3.55-2-.4 3.7q-2.55 14.6-18.75 25.4l1.35-9.2q8.85.85 11.75-23.25m-57.3-123.35-8.95 12.6-4.2-1.05q-3.2-.95-5.9-2l4.05-1.55 11.6-9.6 3.4 1.6m-5.6 13.3 2.9-4.8 13.8-3.6-3.75 5.15-9.7 3.85-3.25-.6" transform="translate(143.35 212.25)"/><path fill-rule="evenodd" fill-opacity=".29" d="M34.5-141.05 33-146.7l4.05-6.15 3.45 9.3q-3.05 13.05-9.05 22.95-.35-4.3-1.05-8.25l-.05-.45 4.15-11.75m-5.2 31.6.1.1Q21.05-72.05 11-74l.7-5.25.4-5.6q8.5 1.85 12.25-30.4l-1.85-1.5-.5-.3-3.8-12.1 5-1.45q3.65 8.85 3.5 17.75l2.6 3.4m16.85 8.7q.15-11-2.8-18.1l-1.35-1.2v-.05l1.65-9.3q3.5 9.7 16.75 18.6-7.6-1.4-13.45-5.25 1.8 7.8-.8 15.3M30.05-79.2l.05-8.4q7.3 8.25 8.75 16.9-1.3 3.9-4 8.05-1.1-11.55-3.75-14.8l-1.05-.9v-.85M6.35-64.05q4.55 1.05 8.5-3.5L12.6-59.1l-.15-.05Q5.25-57.7 0-60.25q3.6-.85 6.35-3.8" transform="translate(143.35 212.25)"/><path fill-rule="evenodd" fill-opacity=".498" d="m15.85-128.45 2.35-.7 3.8 12.1.5.3 1.85 1.5Q20.6-83 12.1-84.85l-.45.8Q11.1-91.4 7.8-98.7q1.8-3.85 3.2-7.7l2.05-6.25.6-2.35q1.4-5.6 2.2-13.45M33-146.7l1.5 5.65-4.15 11.75q-1.05-5.6-2.75-10.55l5.4-6.85m-3 69.9.05-1.55 1.05.9q2.65 3.25 3.75 14.8-2.45 3.75-6.1 7.7 3.65-10 .85-18.15l.4-3.7" transform="translate(143.35 212.25)"/><path fill-rule="evenodd" fill-opacity=".6" fill="#fff" d="m53.95-178.05-1.05.8q-11.85-1.95-21.8-2.55l-1.7-.1q-10.9-.6-19.5.4l-13.75-5.1 4.25-6.6q10.1-1.9 31 2.5l9.5 2.2 13.05 4.1v4.35m-143.05 11.1.5-1.8q-1.4 1.85-4.1 3.15-1.2.55-2.55 1h-.05q-1.8.15-1.45-1.7 1.15-3.7 5.65-7.4l.25-.35q4-3.8 9.85-7.15 7.8-4.55 18.85-8.2-1.75-2.25-2.85-4.45-2.4-4.9-1.75-9.8 4.3 5.9 14.35 9.7 2.7 1.05 5.9 2l4.2 1.05 3.35.7 3.25.6 3.1.5q-5.35 1.8-6.05 3.65l-.1.4.15.1q19.35 16.75.55 8.1l-16.7-6-.1-.15q-1.1-1.35-4.15-1.65-7.85.9-9.55 5.55l-.25.7-.1-.05-1.6 3.2q-9.3-6.45-18.6 8.3" transform="translate(143.35 212.25)"/><path fill-rule="evenodd" fill="url(#h)" d="M-89.1-166.95q9.3-14.75 18.6-8.3l-7.45 15.1q-1.4 10.9-.25 21l1.55.65-2.3 6.2 7.1-.5 26.65 1.25q10.65 5.4-5.05 6.2-13.05 5.4-38.85 5.95l-6.35 5.1-13.95 3.05.8-2.5q3-4.05 4.35-10.45l3.05-.1h.15l-.35-.35 1.45-.15.3-.3q1.6-.4 2.65-1.65 1.55-1.7 1.4-4.15-.1-1.75-.35-3.4l.6-.1.2 4.75-.8 1.75 1.15-1.7.05-18.55 5.65-18.8" transform="translate(143.35 212.25)"/><path fill-rule="evenodd" fill="url(#i)" d="m-53.85 145.9 11.35-13.05q12.6 6.15 25.25 12.35 12.85 30.15-4.95 32.85l-.95.15q-21.3 2.3-36.7-8.3l-.6-5.25 4.35-5.7 2.25-13.05m-30.9-.7v-4.85l-1.85-4.75 1.85 9.6m-15.5-28.75v-.35l-.05-.15q-1.9-6.4-3.95-12.35-3.95-26.65 32.55 15.45l4 3.05.15-.05v.05h.1l-.05.15h-.05l2.3 29.1-3.45 18q-4.8 1.1-9 .2-8.65-2-14.85-12.8l-1.55-2.95-1-3.65-1.05-4.35q-2-8.6-4-19.95v.1-.1q-.4-4.75-.1-9.4" transform="translate(143.35 212.25)"/><path fill-rule="evenodd" fill="url(#j)" d="m10.75-5.2.45.9q7.05 13.9 8.5 28.4l-4.65 19.7 12.5 37.5q-3.15-5.2-12.3-5.4l-26.15-39-1.8-2.7q-9.65-15.25-8-35.05l.1-1.4.1-.3q2.95-9.15 16.25-15.05 8.65 4.1 15 12.4" transform="translate(143.35 212.25)"/><path fill-rule="evenodd" fill="url(#k)" d="M-102.2-39.25q-.55-10.35 6.5-14.55 11.5-6.95 28.7-2.5-.45 1-.5 2.05.35 1.95.3 3.55l-4.55 4.45-4.6 4.35q-2 1.2-3.4 3-15.5 12.2-22.45-.35m19.4 10.75q-.9 1.45-.45 3.1l.8 1.6 1.15.95q1.45.8 3.1.4.8-.25 1.45-.7l.5.35 1.4.6.1 3.85h.05q2.3 2.45 9.35 1.05l8.65-2.6 4.1 2.45 18.1-3.75-4.5 4.45-4.15 4.25Q-55.2-.45-68.7 11.5l-23.65 18.45-6.35-4.05 2.4-4q3.45-4.85 8.8-8.8 3.75-2.85 8.5-5.2-13.05 4.35-14-6.9l-.4.05-.35-6.8-1.8 8.4-.6 2.05-.9 2.75-3.9 10.75q-5.75.1-3.4-3.1 0-7.25 6.65-22.9l2.2-5.2 14.25-20.1.2.2.5 2.55-.15.05q-1.4.5-2.1 1.8" transform="translate(143.35 212.25)"/><path fill-rule="evenodd" fill-opacity=".4" fill="#fff" d="m-86.15-75.75-2.2.05q-.9-.5-1.1-1.85-.15-1.25.55-2.55.65-1.25 1.8-1.85L-85-82q.95.5 1.2 1.8.2 1.35-.5 2.65-.65 1.25-1.85 1.8" transform="translate(143.35 212.25)"/><path fill-rule="evenodd" fill-opacity=".251" d="m8.9-126.1-.65-.05.45-.15.2.2m49.25 332.2-27.25-.5q7.2-.65 14.65-20.25.75 7.1-.1 14.4l12.7 6.35M-55.45-26.2l4.15 2.8 16-1.4 6.35-1.85-5.55 5.55-18.1 3.75-4.1-2.45-8.65 2.6q-7.05 1.4-9.35-1.05h-.05l-.1-3.85.65.2q2.05.65 4.3.45l.95 1.35 11.05-2.75 2.45-3.3v-.05m-39 36.6q2.8 3.2 6.95 2.8-5.35 3.95-8.8 8.8l-2.4 4-2.6-1.65-.1-.1-.4-.25 6.1-5.6 1.25-8m-19.25 4.7q4.15-10.75 9.55-20.9l-6.15 24.4-3.7-2.4.3-1.1m14.5 142.35-.55-.55-3-8.95q4.8 9.35 6.6-2.15l1.05 4.35q-.3 7.35-4.1 7.3M-114.8 19.2l4.65 3.15.95 4.5.15.05 3.7.35 1.05-.95 4.15 2.85-.7 1.95-16.55.55.05-.3q.8-5.3 2.55-12.15" transform="translate(143.35 212.25)"/><path fill-rule="evenodd" fill="url(#l)" d="M8.9-126.1q2.05 2.75 3.3 8.6l-4.95 3.55 3.05 4.35-8.1 11.65 3.4 3.7-.05.1q1.85 4.7 1.4 9.4-2.3-2.85-5.45-3.8-3.9-1.15-9.1.7l-.6.25-3.1 1.4-1.5.5-.6.45q-7.8 5.6-21.75 11.2l21.35-20.6 6.5 2.3-3.15-5.55.1-.25 3.3-12.5 8.1-4.75-6.4-1.6.25-7.3 3.55-2.6-3.55-2.25 1.6-25.55.4-.4-1.8-4 3.45-3.1.5-8.65 8.25-4.45 11.95-1.95q4.25-1.4 10.15-2.65l1.7.1q9.95.6 21.8 2.55L47.05-173l-5.6.9-13.65 27.15-4.6 2.65-1.55 5.65L3.6-131.6l-.45 2.95v.1l5.1 2.4.65.05m-6.75-33.8-3.95 3.6-1.3 14.6 8.65 4.05 15.5-7.5 14.3-28-7.15 1.3 3.4-3.2-15.6-1.1q-9.55 3.65-13.85 10.8v5.45" transform="translate(143.35 212.25)"/><path fill-rule="evenodd" fill="url(#m)" d="m20.55 147.5-.35 6-7.65 13.3-3.1 1.9-1.1.45-.1.05.05.05-.8.65q-6.55 5.3-12.95 7.85-4 1.65-21 6.4-6.8.7-13.65.35-11.6-3.25-18.95-7.55l-.5-4.35-11.65 3.95-9.05-.25-1.75-.75-.5-.45-5.75-5.15q-3.15-4.75-4.3-13.2 6.2 10.8 14.85 12.8 4.2.9 9-.2 4-.95 8.4-3.35l.45 3.9q15.4 10.6 36.7 8.3l.95-.15q17.8-2.7 4.95-32.85l-28.25-13.85-8.15 4.25-.05.05-3.65 1.95-3.05 6.75-7.1-22.1.05-.15h-.1v-.05l-.15.05-4-3.05q-36.5-42.1-32.55-15.45-3.95-11.35-9.75-21.95v-.05l-.65-1.2-.1-1.25-.35-3.85-.6-7.2 3.05-9.45 5.2-4.95 6.1 5.75q4.3 10.15 16.55 17.7l4.55 6.85 1.5 2.05q4.7 6.3 10.35 12.25l3.05 6.5 3.1 2.5 2.85 6.85.9 13.75 1.4-2.25 5.9-2.05 9.95-1 27.95 10.05H4.55l2.25-.55 7.4 4 6.35 11.4" transform="translate(143.35 212.25)"/><path fill-rule="evenodd" fill-opacity=".471" d="m-13.4-85.25.6-.45 1.5-.5 3.9-.8q-7.75 9.85-11.8 20.1-1.9 4.75-3 9.65l-.1.4-.7.25q-5.75 2.3-12.8 3.85l-1.55 2.3-2.55-1.5-.5.1-8.3 1.15-.6-2.8-6.15 1.8 1.2-2.5-2.05-2.3q1.05-2.85 1.75-5.7l.7-3.1.3-2.05 6.65-2.35q6.3-2.15 11.75-4.35 13.95-5.6 21.75-11.2M-117.65 33.3l16.15.2-.8 4.3-.05.05-5.15 3.25.95 1.85-11.35-6.85.25-2.8m-.3 7.55-.05-1.45 14.3 9.25q.1 3.4.95 6.6l.05.2 1.35 4-6.1-5.75-5.2 4.95-3.05 9.45-1.45-18.6-.65-7.15-.15-1.5M-94.1 153.8l1.55 2.95q1.15 8.45 4.3 13.2l-1.6-1.6-4.9-6.2-4.45-4.7q3.8.05 4.1-7.3l1 3.65m22.9 22.75 11.65-3.95.5 4.35q7.35 4.3 18.95 7.55-9.2-.5-18.45-2.95-14.3-2.2-21.7-5.25l9.05.25" transform="translate(143.35 212.25)"/><path fill-rule="evenodd" fill="url(#n)" d="m118.6 171.05 5.7-2.45 7.75-.9 1 1.6H133l-8.4 7.35h2.15l14.35-10 7.5-2.75 4.4 2.85-.05.95-9.2 3-11.8 10.2-4.5.65 1.8 1.95h3.35l12.15-9.75 10.75-5.35 1.35 6-14.6 7.95-12.65 15.75-25.05 6.6-6.3-2.3-6.85-13.65-.3.15-5.5-7.3q4.45-3.05 9.4-5.8 6.35-3.55 13.6-6.65 8-6.7 25.25-10.7l.1.1q1.8.95 2.75 2l-20.7 7.7 2.6 2.8" transform="translate(143.35 212.25)"/><path fill-rule="evenodd" fill="url(#o)" d="m-32.35 46.05 9.7-7.35 6.3 7.05 2.6 5.7q-3.75-1.9-10.65 3.35 7.15-.35 13.3 4.65l.55 6.9-13.8 20.95-3.2 1.7-1.65-1-7.85-10.1h-1.7l2.5-11.7-7.7 5.6-2.8 1.8q-.4-3.2.55-9.2 1-6.45 3.45-16.05l11.6-39.3q-3.8 24.9-1.2 37" transform="translate(143.35 212.25)"/><path fill-rule="evenodd" fill="url(#p)" d="m11.2 127.65 3.1 2.6 1.65 1.45 1.9 1.8.35.35q4.45 4.5 7.7 9.45l.05 1.2q-.1 6.25-4.1 12.7-3.65 5.75-9.3 9.6l7.65-13.3.35-6-6.35-11.4-7.4-4-2.25.55H-13.3l-27.95-10.05-9.95 1-5.9 2.05-1.4 2.25-.9-13.75-2.85-6.85-3.1-2.5-3.05-6.5 8.1 7.95q16.35 10.1 28.75 15.6 6.1 2.75 11.3 4.35 16.1 5.05 30.3 1.75l.8-.2.35-.1" transform="translate(143.35 212.25)"/><path fill-rule="evenodd" fill="url(#q)" d="M15.5-167.05q-5.45.15-10.75 2.5 3.6-5.55 15.35-11.3l11.5.8-3.4 3.2 7.15-1.3-14.3 28-6.05 2.9-2.05-1.8q3.8-2.55 3.1-9.05-3.65 2.6-8.7-.35 0-5.05 8.15-13.6" transform="translate(143.35 212.25)"/><path fill-rule="evenodd" fill="url(#r)" d="m8.6 122.15-2.95-18.8 8.95 12.55 10.5-16.95 17.6 17.3 32.5 63.2 27.6 34.75-32.75 11.5-22.75-12.05 10.85-7.55-12.7-6.35q.85-7.3.1-14.4l1.65-5.55-2.9-1.85q-3.6-15.55-15.05-30.2l-.2-.4-2.4-10.45-6.3-2.3-1-1.45-4.5-4.6-1.05-3.05h-1.9l-3.3-3.35" transform="translate(143.35 212.25)"/><path fill-rule="evenodd" fill-opacity=".6" d="M43.65-166.1q-1.75 4.3-3.85 8.35l-2.75 4.9L33-146.7l-5.4 6.85-3.65 9-8.1 2.4q-.8 7.85-2.2 13.45l-.6 2.35L11-106.4q-1.4 3.85-3.2 7.7l-2.2 4.45-3.4-3.7 8.1-11.65-3.05-4.35 4.95-3.55q-1.25-5.85-3.3-8.6l-.2-.2-.45.15-5.1-2.4v-.1l.45-2.95 18.05-5.05 1.55-5.65 4.6-2.65 13.65-27.15 5.6-.9-1.1.75q-1.05 3.15-2.3 6.15M16-176.15l4.1.3q-11.75 5.75-15.35 11.3 5.3-2.35 10.75-2.5-8.15 8.55-8.15 13.6 5.05 2.95 8.7.35.7 6.5-3.1 9.05l2.05 1.8-9.45 4.6-8.65-4.05 1.3-14.6 3.95-3.6v-5.45q4.3-7.15 13.85-10.8m-9.05 91.4-.45 2.7Q.2-87.55-7.05-87h-.35l-3.9.8 3.1-1.4.6-.25q5.2-1.85 9.1-.7 3.15.95 5.45 3.8m1.65 206.9 3.3 3.35H8.4q-4.7-1.45-7.9-3.2-4.45-2.45-6.15-5.45L-15.85 106q-2.65-3.2-3.7-6.75-.85-2.8-.75-5.85l-7.25-4.4 3.2-1.7 13.8-20.95-.55-6.9q-6.15-5-13.3-4.65 6.9-5.25 10.65-3.35l7.2 13.75q-1.8 4.05-3.95 8.15l-.1.25.2-.1.05.25.4-.15 4.2 9.55.05.2h.05l7.3 7.55 4 12.45 2.95 18.8m107.4 46.1 20.7-7.7q.9 1 .9 2.1l-19 8.4-2.6-2.8m36.85 1.5-8.1 4-12.15 9.75h-3.35l-1.8-1.95 4.5-.65 11.8-10.2 9.2-3-.1 2.05m-19.8-.45-1-1.6 9.05-1.05-14.35 10h-2.15l8.4-7.35h.05m17.8 10.7-10.2 9.95-11.8 15.15-24.9 8.7-5.7-11.4 6.3 2.3 25.05-6.6 12.65-15.75 14.6-7.95.45 2-6.45 3.6M-49.3-53.5l.6 2.8-10.5.8q1.7-3.3 2.9-6.6l2.05 2.3-1.2 2.5 6.15-1.8m6.65 131.4-1.3-6.1 7.7-5.6-2.5 11.7h-3.9m-17.3-105.05q1.9-2.7 1.85-5.75 2.85 1.65 6.4 3l1 .05 12.05-.65.25-.05 1.45-2.6 2.9 1.65q7.4-1.95 14.15-5.95v-.05q3.05-1.85 6-4.15l-15.05 15-6.35 1.85-16 1.4-4.15-2.8v.05l-2.45 3.3-11.05 2.75-.95-1.35 2.45-.45q4.75-1.35 7.5-5.25" transform="translate(143.35 212.25)"/><path fill-rule="evenodd" fill-opacity=".149" d="m-74.75-189.4 9.75-4.45q1.1 2.2 2.85 4.45-11.05 3.65-18.85 8.2l6.25-8.2m-16.8 160.6-2.45 2-4.3 3.6q.65-.7.25-.3l-.3.25q-3.5-9.25-3.85-15.9 6.95 12.55 22.45.35l-.15.15-.4.35-11.25 9.5m1.1-59.75.55.25.5.2 1.75 1.1-3.3-.2-1-1.6H-92l2.55-2.05 6.9-1.6q8.25 1.45 11.2 4.35l.1.8 2 .4-.45 3.2-6.45-1.35h2.65v-2.45l-2.45-1.55q-1.75-.85-3.6-1.2-4.65-.9-10.1 1.4l-.8.3m-9.7 214.5v-.1l.05.1h-.05M-79-71.25l-1.8-2.7q3.05.05 7.1-1.3-.2 3.45-3.4 5.5l.35-2-2.25.5m-19.35 48 .05.05h-.05v-.05" transform="translate(143.35 212.25)"/><path fill-rule="evenodd" fill="url(#s)" d="M10.75-5.2q-6.35-8.3-15-12.4-13.3 5.9-16.25 15.05l-.1.3-.1 1.4q-1.65 19.8 8 35.05l1.8 2.7 26.15 39q9.15.2 12.3 5.4l-12.5-37.5 4.65-19.7Q18.25 9.6 11.2-4.3l-.45-.9m26 91.85 13.1 19.7 13.9 36.35q8.2 19.8 21.85 38.9l5.5 7.3.3-.15 12.55 25.05-1.15.4-27.6-34.75-32.5-63.2-17.6-17.3-10.5 16.95-8.95-12.55-12.2-38.15-9.8-19.45-6.3-7.05-9.7 7.35q-2.6-12.1 1.2-37l5.6-19 16.85-22.8 2.25 1.85 18.55 22Q25 13.6 26.85 37.6l9.9 49.05" transform="translate(143.35 212.25)"/><path fill-rule="evenodd" fill="url(#t)" d="M-81.25-33-95.5-12.9l-2.2 5.2q-6.65 15.65-6.65 22.9-2.35 3.2 3.4 3.1l3.9-10.75.9-2.75.6-2.05 1.8-8.4.45 8.9.3-2.15q.95 11.25 14 6.9-4.75 2.35-8.5 5.2-4.15.4-6.95-2.8l-1.25 8-6.1 5.6-8.5-5.4 6.15-24.4q4.2-7.95 9.2-15.55l.1-.2q6.9-7.35 13.7-13.5l.05 1.85-.15.2" transform="translate(143.35 212.25)"/><path fill-rule="evenodd" fill="url(#u)" d="m-67.5 122.25 7.1 22.1 3.05-6.75 3.65-1.95.05-.05 8.15-4.25 3 1.5-11.35 13.05-2.25 13.05-4.35 5.7.15 1.35q-4.4 2.4-8.4 3.35l3.45-18-2.3-29.1h.05" transform="translate(143.35 212.25)"/><path fill-rule="evenodd" fill="url(#v)" d="M-100.15 125.95h.05q1.95 11.25 3.95 19.85-1.8 11.5-6.6 2.15l-1.25-4.05 3.85-17.95q.35 4.35 1.25 8.75l-1.25-8.75" transform="translate(143.35 212.25)"/><path fill-rule="evenodd" fill="url(#w)" d="M19.25-177.25 7.3-175.3l-8.25 4.45-.5 8.65-3.45 3.1 1.8 4-.4.4-1.6 25.55 3.55 2.25-3.55 2.6-.25 7.3 6.4 1.6-8.1 4.75-3.3 12.5-.1.25 3.15 5.55-6.5-2.3-21.35 20.6q-5.45 2.2-11.75 4.35l-6.65 2.35q-15.5 5.25-22.15 5.75 35.95-15.15 52.2-40.75 4.35-6.95 7.3-14.65 4.7-24.25 3.35-47.65 2.7-6.7 14.4-13.4l8.35-1.45q8.6-1 19.5-.4-5.9 1.25-10.15 2.65" transform="translate(143.35 212.25)"/><path stroke-width="2.5" stroke-linejoin="round" stroke-linecap="round" stroke="#352115" fill="none" d="M44.25 70.35 43 70q-2.35-.15-2.05 4.75"/><path stroke-linejoin="round" stroke-linecap="round" stroke="#352115" fill="none" d="m-95.3-129.7.1-1.2.1-1.65" transform="translate(143.35 212.25)"/><path stroke-width="1.5" stroke-linejoin="round" stroke-linecap="round" stroke="#352115" fill="none" d="M48.25 79.7v-1.75l-.3-2.35"/><path stroke-width="1.75" stroke-linejoin="round" stroke-linecap="round" stroke="#352115" fill="none" d="m47.95 75.6-.3-1.1q-.85-2.65-2.75-3.85l-.5-.25-.15-.05 3.7 5.25z"/></g><g id="H"><path fill-rule="evenodd" fill="#774a02" d="m-93.9-122.45 2.5-.2q2.4.15 1.25 3.2l-.25.55-5.15 4.7-4.95-1-.4-.35q-1.15-.85-1.55-1.65l3.8-.35 5.1-2.4.9-1.5-1.25-1" transform="translate(103.05 123)"/><path fill-rule="evenodd" fill="#935c02" d="M-102.45-117.2q-.8-1.5 1-2.6 3.15-1.95 7.15-2.6l.4-.05 1.25 1-.9 1.5-5.1 2.4-3.8.35" transform="translate(103.05 123)"/><path fill-rule="evenodd" fill="#503201" d="M-90.4-118.9q-.75 1.7-2.55 4.3l-1.9 2.5q-3.7-1.7-5.65-3.1l4.95 1 5.15-4.7" transform="translate(103.05 123)"/><path stroke-width=".75" stroke-opacity=".651" stroke-linejoin="round" stroke-linecap="round" stroke="#2f231a" fill="none" d="m9.15.55 2.5-.2q2.4.15 1.25 3.2m-.25.55q-.75 1.7-2.55 4.3l-1.9 2.5Q4.5 9.2 2.55 7.8m-.4-.35Q1 6.6.6 5.8q-.8-1.5 1-2.6Q4.75 1.25 8.75.6"/></g><g id="I"><path stroke-width=".75" stroke-opacity=".522" stroke-linejoin="round" stroke-linecap="round" stroke="#524b33" fill="none" d="m6.1 44.15-1.2 1.7q-1.95 1.65-3.7 1.8l-.25.05h-.6"/><path fill-rule="evenodd" fill="#ffa30b" d="m-92-167.4-.5 1.25q-.95 1.8-2.65 3l-1.55.9h-.05q-1.15.1-.7-2.1l.75-1.9q1.25-2.55 2.85-4.9 1.6-1.05 2.4.2-.05 1.95-.55 3.55" transform="translate(102.05 172)"/><path stroke-width=".75" stroke-opacity=".651" stroke-linejoin="round" stroke-linecap="round" stroke="#2f231a" fill="none" d="M10.05 4.6q.5-1.6.55-3.55Q9.8-.2 8.2.85 6.6 3.2 5.35 5.75l-.75 1.9q-.45 2.2.7 2.1h.05l1.55-.9q1.7-1.2 2.65-3l.5-1.25z"/></g><g id="K"><path fill-rule="evenodd" fill="#ffe96c" d="m-101.6-134.65 1.05-1.1q.7-.5 1.4-.5.7-.05 1 .4.25.35-.1 1.05-.3.6-1.05 1.1-.7.4-1.4.45-.75 0-.95-.4-.3-.45.05-1" transform="translate(101.8 156.65)"/><path fill-rule="evenodd" fill="#bdd2d1" d="M-74-139.55q.25-3.5.95-5.9l.45-1.4q.85-2.35 2.2-3.85.95-1.1 2.2-1.75l1.25-.65q1.95-1 3.55-1.45l3.05-.45 2.7.35h.25q2.2.5 3.85 1.65l.4.35q1.45 1.15 2.45 2.9l.1.25.5 1.15.55 1.8q-17.75-4.1-24.45 7" transform="translate(101.8 156.65)"/><path fill-rule="evenodd" fill="#faf5f3" d="m-49.55-146.55.1.4q.25 1.4.35 3-1.1 6.05-5.35 8.05l-.25.1-.6.3q-2.15 1-7.15 1.85l-2.9.2q-7.95-.2-8.7-6.25l.05-.65q6.7-11.1 24.45-7" transform="translate(101.8 156.65)"/><path stroke-width=".25" stroke-opacity=".651" stroke-linejoin="round" stroke-linecap="round" stroke="#2f231a" fill="none" d="m47.35 21.55-.25.1m-19.35-3.9.05-.65"/><path fill-rule="evenodd" fill="#ffa30b" d="M-64.25-148.65q0-2.35 5.15-1.25l.3-.1 2.4.4q5.35 2.2 1.95 5.4-1.8.45-4-.05-2.85-.8-4.65-2.8l-1.15-1.6" transform="translate(101.8 156.65)"/><path fill-rule="evenodd" fill="#a72c03" d="M-64.25-148.65q-.65-1.3-.5-2.7.2-2.15 2.35-3.15l.9-.35q2-.35 3.9 0l.25.05q2.85.7 4.65 2.8 1.9 2.05 1.7 4.25-.25 2.15-2.4 3.15-.55.25-1.05.4 3.4-3.2-1.95-5.4l-2.4-.4-.3.1q-5.15-1.1-5.15 1.25" transform="translate(101.8 156.65)"/><path stroke-width="2" stroke-linejoin="round" stroke-linecap="round" stroke="#871d03" fill="none" d="m40.3 1.8-.9.35q-2.15 1-2.35 3.15-.15 1.4.5 2.7l1.15 1.6q1.8 2 4.65 2.8 2.2.5 4 .05.5-.15 1.05-.4 2.15-1 2.4-3.15.2-2.2-1.7-4.25-1.8-2.1-4.65-2.8l-.25-.05"/><path fill-rule="evenodd" d="m-59.35-152.65.4-.15h1.65q1.1.3 1.9 1.15.7.8.65 1.7-.1.85-1 1.25l-2 .15q-1.1-.35-1.85-1.15-.75-.8-.65-1.7.05-.85.9-1.25" transform="translate(101.8 156.65)"/><path stroke-width="2.5" stroke-linejoin="round" stroke-linecap="round" stroke="#352115" fill="none" d="m51.2 7.1.55 1.15M31.4 5.95q.95-1.1 2.2-1.75l1.25-.65"/><path stroke-width="1.25" stroke-linejoin="round" stroke-linecap="round" stroke="#352115" fill="none" d="m51.75 8.25.5 1.8.1.45q.25 1.4.35 3m-24.9 3.6q.25-3.5.9-5.95"/><path stroke-width="1.75" stroke-linejoin="round" stroke-linecap="round" stroke="#352115" fill="none" d="m28.7 11.15.5-1.4q.8-2.3 2.2-3.8"/><path stroke-width="3.25" stroke-linejoin="round" stroke-linecap="round" stroke="#352115" fill="none" d="M34.85 3.55q2-1 3.55-1.45l3.05-.45 2.7.35"/><path stroke-width="4" stroke-linejoin="round" stroke-linecap="round" stroke="#352115" fill="none" d="m44.15 2 .3.05q2.15.45 3.8 1.65l.4.25q1.5 1.2 2.45 2.9l.1.25L44.15 2z"/><path stroke-width=".75" stroke-opacity=".522" stroke-linejoin="round" stroke-linecap="round" stroke="#524b33" fill="none" d="m36.45 24 2.9-.2q5.05-.85 7.15-1.85l.6-.35"/><path fill-rule="evenodd" fill="#ffe96c" d="M-65.05-146.05q.5-.95 1.6-1.6 1.1-.7 2.15-.75 1.15-.05 1.55.6.35.6-.2 1.55-.45 1-1.55 1.7-1.05.65-2.15.7-1.05.05-1.45-.6-.4-.6.05-1.6" transform="translate(101.8 156.65)"/></g><use xlink:href="#x" width="204.7" height="343.6" id="D"/><use xlink:href="#y" width="275.3" height="429.35" id="E"/><use xlink:href="#z" width="28.4" height="28.4" id="J"/><use xlink:href="#A" width="102.95" height="45" id="L"/></defs><path fill="none" d="M-1-1h247v355H-1z"/><use x="99" y="252" xlink:href="#B" width="381" transform="translate(-192.55 -294)" height="381"/><use x="125.269" y="318.866" xlink:href="#C" width="305.3" transform="translate(-97.482 -250.53) scale(.7903)" height="442.6"/><use x="125.269" y="318.866" xlink:href="#D" width="204.7" transform="translate(-95.482 -248.565) scale(.7903)" height="343.6"/><use x="125.269" y="318.866" xlink:href="#E" width="275.3" transform="translate(-75.728 -242.028) scale(.7903)" height="429.35"/><use x="125.269" y="318.866" xlink:href="#F" width="301" transform="translate(-95.783 -248.831) scale(.7903)" height="438.3"/><use xlink:href="#G" width="43.2" transform="matrix(.1448 .0153 -.0959 .3442 32.994 72.834)" height="43.2"/><use x="125.269" y="318.866" xlink:href="#H" width="13.6" transform="translate(-63.935 -178.301) scale(.7903)" height="11.25"/><use xlink:href="#G" width="43.2" transform="matrix(.9399 -.0418 -.0565 .4614 53.617 60.936)" height="43.2"/><use x="125.269" y="318.866" xlink:href="#I" width="10.95" transform="translate(-63.145 -217.024) scale(.7903)" height="48.05"/><use x=".13" y="-4.556" xlink:href="#J" width="28.4" transform="matrix(.595 -.0913 .017 .2169 87.56 20.267)" height="28.4"/><use x="125.269" y="318.866" xlink:href="#K" width="53.3" transform="translate(-62.948 -204.893) scale(.7903)" height="24.35"/><use x="-1.904" y="-2.329" xlink:href="#J" width="28.4" transform="matrix(.4783 -.0734 .0383 .4894 49.163 139.593)" height="28.4"/><use x="43.528" y="121.078" xlink:href="#L" width="102.95" transform="matrix(2.2744 0 0 2.0813 -118.8 -210)" height="45"/></svg>