<svg width="262" height="248" xmlns="http://www.w3.org/2000/svg" xmlns:xlink="http://www.w3.org/1999/xlink"><defs><radialGradient spreadMethod="pad" r="819.2" id="b" gradientUnits="userSpaceOnUse" gradientTransform="translate(-11.55 -90.8) scale(.0379)" cy="0" cx="0"><stop stop-color="#997946" offset=".537"/><stop stop-color="#674e30" offset="1"/></radialGradient><path fill-rule="evenodd" fill-opacity="0" fill="#f0f" d="M0 0h102.95v45H0V0" id="a"/><use xlink:href="#a" width="102.95" height="45" id="d"/><g id="c"><path stroke-opacity="0" stroke-linejoin="round" stroke-linecap="round" stroke="#f0f" fill="none" d="M187.95-293.5v380h-380v-380h380M92.95.6H-97" transform="translate(192.55 294)"/><path stroke-opacity="0" stroke-linejoin="round" stroke-linecap="round" stroke="#f0f" fill="none" d="m187.95-293.5-190 190 190 190m-380-380 190 190L-192 86.5" transform="translate(192.55 294)"/><path stroke-width="3.25" stroke-linejoin="round" stroke-linecap="round" stroke="#29130c" fill="none" d="M249.25 229.65q1.25 4.2-2.3 8.05-2.65 3.4-8.1 4.65l-2.3.4q-3.45-.85-4.9-2.25l-.4-.4-.1-.1-.25-.85q-.35-1.9.55-3.5.65-1.95 1.45-3.55l-10.45.25-7.15-.75-6.35 3.2-4.25 3.3h.15l1.8 7.3v-.05l.05.7 2.45 3.5.2.25.9 1.2 1.1 1.35 1.25 1.45.4.45q.1 2.8-1.95 3.7h-.1l-.25 1.3-2 1.45-1.05-2.6-1.7-.3-.4-1q-1.3-2.05-2.95-3.1l-2 .35-.7 3-2.4.65-1.6 1.85-1.7.8-1.05-2.75v-.8l-1.3-1.45 2.55-5.25 2.25-1.05 3.75-1.25q1.1-3.55 1-7.2l-2.25-3.6-3.5-2.35-2.3-1.85-.25-2-9.75 1.5-2.5.25-3.8.1 2.35 4.1-1.3 2.4-7.75.95-6.3 3.6-4.1-.4.3-2.05.6-.85-2.35 1.25-3.85-.25 1.1-4 1.75-.45.55-.5.25-.55.75-.9 3.25.8 5.75-2.4 1-2.1-.9-.3-.2-.1q-3.2-1.25-5.9-3.35h-1.85q-1.15-.55-2.15-1.45l-1.65-1.95q-1.15-4.1 0-7.65 2.1-3.75 4.65-5.5l.75-1.5 3.35-5.45-2.1.55q-12.1 1.35-19.25-3.5l-2.8-2.35-.25-.3-.85 2.05-.8-.2-1.85-3-.7-.75-2.1-.25-1 .7-3.8 1.3-1.7 1.25-1.05 2.3-1.05.7-.9-2.25-.05-3.95.8-2.25.15.05-.15-.9 3.05-3.05 6.8-3.1 3.15.5.95-.75q-2.7-7.25-2.15-14.2l.05-.45.5-3.6q.2-5.65 2.55-11.05-.05 2.7 1.15 3.95l.05-.05 3.75-9v3.2l2.35-4.45-2.3 5.45.8-.9 2.45-2.45.25-.2 7.35-9.6-2.7 5.6 1.55-1.2.15-.15 1.75-1 1.75-.9q10.85-5.15 23.95-3.35l.55.05 3.15.55.75.15 4.5 1.5 4.2 1.8.8.4 3.15 1.7q8.45 4.95 15.9 13.25l.55.65q2.25 3.9 3.95 7.85l2.7 7.55q1.15 3.9 1.8 7.85l-.65 15.7-2.7 14q1.7 1.3 3.8 2.6l.85.2q7.8 2.1 14.75 5.6l1.65-1.2 2.15-.25-.25 2.1-.35.6 2.55 1.55q1.6 1.3 2.55 2.95m-103.65-73h-.05.05m66 76v-.1l-.1.2.1-.1m-42.55-1.35.05-.05v.1l-.05-.05"/><path fill-rule="evenodd" fill="#aa591e" d="m41.75-64.25-3.1.05h-4.5l-.9-.2-4.4-1.05-2.6-2.7-1-7.35 4.15-19.55-2.1-7.75.1 1.8-3.95 4.65 1.8-6.65q-1.35-3-4.45-5.7l-7.6.5-4.25 1.6-5.05 1.85-.4.1-.5.05-2.8.15-.75-.05q-2.1-.15-3.65-.85l-.35-.15-.1-.05-.85-.55h-.05q-4.45-3.2-7.7-4.8-5.25-2.6-7.65-1.25l-.85.3q-3.65 1.2-7.4 3.65l-1.65 1.05-2.25 1.65-1.75 1.4-.9.7-3.45 3.15q-3.3 1.2-7.25-.15l-2.15-1.1q-2-1.3-3.15-2.95l-.55-1-.3-.75-.35-.95q-2.7-7.25-2.15-14.2-.4 7.25 6.05 11.6l1 .85q-3.8-3.9-3.45-6.85l3.8 4.55-.3-5.55 1.55 5.5 1.65-6.5.5 7.9 3.3-3.15-1.4 3.65q5.9-5.3 8.9-5.8-4.6 2.3-3.45 4.65 10.65-3.45 16.15-8.5 3.9-4.45 8.15-6.4-2.75 1.65-2.25 4.45l8.65-4.1-2.3 2.3 2.35-.4L4.7-126.1 2-123.85h1.4l7.1-1.05-2.1 1.6 2.35.45 15.15 8.95 4.65-2.15q1.15 3.9 1.8 7.85l-.1 2.1-.4 9.3-.15 4.3-.25 1.25-1.2 6.2L29-78.5q1.7 1.3 3.8 2.6l.85.2q5.2 1.95 4.9 5.6l1.7 3.1 3.25.6-1.75 2.15m-13.05-9.9-.25-1.65.55-2.7-.55 2.7.25 1.65m22.45 2.75 1.05-.15-.25 2.1-.35.6-2.4 3.75-.45 3.6 3.8-1 2.05 1.05q1.45-2.2-.45-5.85 1.6 1.3 2.55 2.95 1.25 4.2-2.3 8.05-2.65 3.4-8.1 4.65l-.45-.85-.75-1.45-.05-1.2.8-.45.5-7.6 3.3-4.25 1.5-3.95M16.4-59.2l-4.25 3.3L6.6-57l-3.5-2.35L.8-61.2l-.25-2v-.8q.4 2 3.9 3.35l6.8-.2q3.15-1.5 3.7-4.05l-.75-2.05-4.65 3.75-3.4-.55.9-3-2.25-3.9h-.05Q2.65-71.4 1-69.2l1.4-2.35 1.55-1.95.5-.45q2.05-1.95 4.6-2.7l1-.2.8.3q0 .05.1.05l1.35 1.3 1.35 3 .85.55 1.5-2 .05-.3.65.45.1.05 1.35 3.1 1.7.25.3-.8 1.1-3.45-.6-2.85.2-1.1-.6-.65v-2.1l3.35 7.5q-.15 2.25-1 4.8-1.15 3.4-3.55 7.3l-.1.2-2.55 2.05m33.5.65-1.4-1.35.25-1.6-.25 1.6 1.4 1.35m-64.75-62.4-1.2.75 1.05-.55.15-.2M-.7-113.2l-2.75-.8q-6.2-1.95-.85 1.55l4.45 2.7q5.8 2.05 13.8-.75l2.75-1.25 4.45 1.35q4.35 3.2.55-2.75-3.85-1.7-7.65-3.45l-5 .15-4.5 2.35-5.25.9" transform="translate(192.55 294)"/><path fill-rule="evenodd" fill="#6b5132" d="m33.25-64.4.9.2h4.5l3.1-.05-1.4 2.35H38.8l-6 .15 1.1-1.3-.65-1.35M.55-63.2l-9.75 1.5-2.5.25-3.8.1h-.35l-4.85-.6Q-14.2-62-6.1-65l8.5-6.55L1-69.2l-.7 1.55L.55-64v.8m38.25 1.3.5-.75-.65-1.55.65 1.55-.5.75m-60-30.05q4.8-1.8 8.4-4.1l.6-.4 1.6-1.1.05-.05.4-.5 2.25-2.9.45.15Q-16.6-86.5-24.75-83.2l-.85.75-1.5.75-3.9 3.95-2.15 4.4-.1-2.3.1-1.2q.35-3.25 1.65-6.15l.75-1.5 3.35-5.45q3.35-.9 6.2-2" transform="translate(192.55 294)"/><path fill-rule="evenodd" fill="#ea8915" d="m41.75-64.25 1.75-2.15-3.25-.6-1.7-3.1q.3-3.65-4.9-5.6 7.8 2.1 14.75 5.6l1.65-1.2 1.1-.1-1.5 3.95-3.3 4.25-.5 7.6-.8.45-.05-.55-.25-4q-1.3-1.7-2-1.2l-2.55 2.65-.2.75-1 2.8-.65-.15q-.35-1.9.55-3.5.65-1.95 1.45-3.55l1.4-2.35m1.75-2.15.9-.8 4-2.9-4 2.9-.9.8m8.1-2.45 2.55 1.55q1.9 3.65.45 5.85l-2.05-1.05-3.8 1 .45-3.6 2.4-3.75m-95.3-71.85.25-.2 7.35-9.6-2.7 5.6 1.7-1.35 3.5-1.9q10.85-5.15 23.95-3.35l.55.05 3.9.7q4.9 1.4 9.5 3.7l3.15 1.7q8.45 4.95 15.9 13.25l.55.65q2.25 3.9 3.95 7.85l2.7 7.55-4.65 2.15-15.15-8.95-2.35-.45 2.1-1.6-7.1 1.05H2l2.7-2.25-10.85 2.95-2.35.4 2.3-2.3-8.65 4.1q-.5-2.8 2.25-4.45-4.25 1.95-8.15 6.4-5.5 5.05-16.15 8.5-1.15-2.35 3.45-4.65-3 .5-8.9 5.8l1.4-3.65-3.3 3.15-.5-7.9-1.65 6.5-1.55-5.5.3 5.55-3.8-4.55q-.35 2.95 3.45 6.85l-1-.85q-6.45-4.35-6.05-11.6l.05-.45.5-3.6q.2-5.65 2.55-11.05-.05 2.7 1.15 3.95l.05-.05 3.75-9v3.2l2.35-4.45-2.3 5.45.8-.9 2.45-2.45m-3.25 3.35H-47h.05m-4.9 6.55-.6 1 .6-1m11.05-12.45-2.65 2.35 2.65-2.35m25.95 22.3-.15.2-1.05.55 1.2-.75M-.7-113.2l5.25-.9 4.5-2.35 5-.15q3.8 1.75 7.65 3.45 3.8 5.95-.55 2.75l-4.45-1.35-2.75 1.25q-8 2.8-13.8.75l-4.45-2.7q-5.35-3.5.85-1.55l2.75.8m1.7 44q1.65-2.2 3.75-1.45h.05l2.25 3.9-.9 3 3.4.55 4.65-3.75.75 2.05q-.55 2.55-3.7 4.05l-6.8.2Q.95-62 .55-64L.3-67.65 1-69.2" transform="translate(192.55 294)"/><path fill-rule="evenodd" fill="#c9ae72" d="m45-55.7-2.95.15L40-57.5l2.05 1.95L45-55.7l.05.55-2.35 1.35-3.7-.9 1-2.8.2-.75 2.55-2.65q.7-.5 2 1.2l.25 4m-99.55-44.7v-.1q.15-1.6 2.85-1.2l6.8 2.7q3.5 1.2 7.2.65l.1.05.05-.05h-.05q1.8-.35 3.7-1.05l.7-.5 3.7-.35.65-.45 3.55-2.65q.7-.55 2.75-.95l.35-.05 2.2-.35q2.1-.25 2.9-2.95l5.55.25 1.65.9q.65 2.5-.75 5.05-3.85 5.55-10.55 9.5-2.85 1.1-6.2 2l-2.1.55q-12.1 1.35-19.25-3.5l-2.8-2.35-.25-.3q-2.1-2.45-2.75-4.85m26.6 2.15 3.65-3 3.25-.75 2 .5 5.4-1.05-3.15-.25 3.3-1.15-4.4-.4-5.05 1.55-2.65 1.45-2.35 3.1m-20.8 5.35q3.7 1.55 7.4 1.1 7.05-.95 11.65-3.15 2.95-.75 5.2 0l.75 1.1-.75-1.1q-2.25-.75-5.2 0-4.6 2.2-11.65 3.15-3.7.45-7.4-1.1" transform="translate(192.55 294)"/><path fill-rule="evenodd" fill="#b76a1e" d="m38.7-53.9-.1-.1-.25-.85.65.15-.3.8" transform="translate(192.55 294)"/><path fill-rule="evenodd" fill="#8a6a37" d="m46.3-51.65-2.3.4q-3.45-.85-4.9-2.25l-.4-.4.3-.8 3.7.9 2.35-1.35.05 1.2.75 1.45.45.85m-7.2-1.85 3.2 1.15 3.55-.15-3.55.15-3.2-1.15" transform="translate(192.55 294)"/><path fill-rule="evenodd" fill="#96601f" d="m-28.5-50.3-4.1-.4.3-2.05.6-.85-.55.35-1.8.9-3.85-.25 1.1-4 1.75-.45.55-.5 1.8.25 1.55 3 .3-.4 2-.2 1.5 2.1-.7 2.3-.45.2m-38.35-49.6.15.05 2.4-.35-.75 1.2-1 4.2.8.8.65-.45-1.05 2.3-1.05.7-.9-2.25-.05-3.95.8-2.25M-56-97.45l-.85-1 1.3-1.5.2-.2.15-.25h.65q.65 2.4 2.75 4.85l-.85 2.05-.8-.2-1.85-3-.7-.75m25.05 43.5-.2-.35-.55.7.55-.7.2.35" transform="translate(192.55 294)"/><path fill-rule="evenodd" d="m-15.5-61.35 2.35 4.1-1.3 2.4-7.75.95-5.85 3.4.7-2.3-1.5-2.1-2 .2.75-1 2.05-.35 3.6-2.85-3.6 2.85-2.05.35-.75 1-.3.4-1.55-3-1.8-.25.25-.55.75-.9 3.25.8 5.75-2.4 1-2.1.05.05 2.75.7 4.85.6h.35m-51.2-38.5-.05-.25-.1-.65 3.05-3.05 6.8-3.1 3.15.5-.35.6q-.5 1-.65 2.6-.1 1.35.3 2.7v.1h-.65l-.15.25-.2.2-1.3 1.5.85 1-2.1-.25.35-.35-1.45-2.75-2.95-1.1-2.15 1.7-2.4.35m45.95 45.1-1.45.85 1.45-.85m-2.75-6.6-1 .75 1-.75" transform="translate(192.55 294)"/><path fill-rule="evenodd" fill="#3e1e11" d="M12.15-55.9h.15l1.8 7.3v-.05l.05.7 2.45 3.5-2.3-.45-2.95 1.45-.15 1.85.95.65 1.45.9 1.2-.9.3-.2.2.05-.5.15.5-.15 4.75.9.4.45q.1 2.8-1.95 3.7h-.1l.4-3.2-2.75-1.05-.15.15-.5.35-1.05 2 .75 1.9-1.7-.3-.4-1q-1.3-2.05-2.95-3.1l-2 .35-.7 3-2.4.65.85-1.6-1.15-1.95-.25.1-3.2.6-.6 1.95-1.3-1.45.8-1.5 4.6-.65 1.45.7.15-.3 1-1.7.35-.7-.75-2.05-2.8-.1 3.75-1.25q1.1-3.55 1-7.2L6.6-57l5.55 1.1m-66-50.5.95-.75.35.95.3.75.55 1q.5.9 0 1.55-1.3-.05-2.1-.95-.65-.95-.4-1.95l.35-.6m18.15 3 .9-.7 1.75-1.4v1.3l.1.7 1.25.15-.95 1.2.6 1.05 3.2.4-.65.45-3.7.35-1.5-.35q-1.45-.45-1.35-1.3l.35-1.85m6.55-4.8q3.75-2.45 7.4-3.65l1.45-.2q1.05-.15 2.55.7 1 1.65.8 3.25l-.15.45q-.8 2.7-2.9 2.95l-2.2.35 2-1.45-.8-.75-2.55-.1.4-.35q.55-1.2-1-2.15-2.15-.75-5 .95m38.1 1.6 4.25-1.6 7.6-.5q3.1 2.7 4.45 5.7l-1.8 6.65-.95 3.3-2.25 6.25v7.85l.6.65-.2 1.1-.15-.85-2.15-1.35-.7.45-1.6 1.1-.65-1.9-3.2.5-.9 2.05-.35.7-.1-.05-.8-.3-1 .2-.2-.5-.8-1.7-.6-1.45-.15-.2 3.15-.6.6.5.1.1.35.25 4-.7v.15l.45.1.95.3 1.7-.6-.95-4.85.3-1.6.05-.05.6-3.1.65-3.1.6-3 .6-2.85.4-1.65-1.55-.8-2.25 1.9.3-1v-2.8 1.15q-3.5-2.75-8.4-3.85m12.5 7.65-1-.6 1 .6m-.95 2.15-.65.1.65-.1m-1.4 6.1-.5.1.5-.1m.15 10.55 1 1.2-1-1.2m-3.4-.15.1-.4-.1.4m5.05-13.6-1.65.2 1.65-.2M7.6-41.95l-.3-.15.3.15m3 1.55-.55.1.55-.1m-2.15-1.2-.4 1.65.4-1.65M13-37.2l-.7-1.6.7 1.6" transform="translate(192.55 294)"/><path fill-rule="evenodd" fill="#b47d25" d="m-64.6-94.45-.65.45-.8-.8 1-4.2.75-1.2 2.15-1.7 2.95 1.1 1.45 2.75-.35.35-1 .7-3.8 1.3-1.7 1.25" transform="translate(192.55 294)"/><path fill-rule="evenodd" fill="#997946" d="M-54.55-100.5q-.4-1.35-.3-2.7.15-1.6.65-2.6-.25 1 .4 1.95.8.9 2.1.95.5-.65 0-1.55 1.15 1.65 3.15 2.95l2.15 1.1q3.95 1.35 7.25.15l3.45-3.15-.35 1.85q-.1.85 1.35 1.3l1.5.35-.7.5q-1.9.7-3.7 1.05h-.1q-3.7.55-7.2-.65l-6.8-2.7q-2.7-.4-2.85 1.2m32.8-11.35.85-.3q2.4-1.35 7.65 1.25 3.25 1.6 7.7 4.8h.05l.85.55.1.05.35.15q1.55.7 3.65.85l4.85.65q6.05 3.65 7.2 7.35l1.6 8.7-.05.1-.3.2-3.1 2.25L7.5-83.8l-.2.2-.25.1-1.2.65-.1.65.05.05-2.7 2.55-.7 2.5h.05l.5.25.15.1q-3 4.8-11.75 6.65-6.75 3.35-15.15.2-3.45.8-6.35-4.8.4-3.9 4.55-7.75l.85-.75q8.15-3.3 17.3-17.65l-.45-.15-2.25 2.9-.4.5-.05.05-1.6 1.1-.6.4q-3.6 2.3-8.4 4.1 6.7-3.95 10.55-9.5 1.4-2.55.75-5.05l-1.65-.9-5.55-.25.15-.45q.2-1.6-.8-3.25-1.5-.85-2.55-.7l-1.45.2" transform="translate(192.55 294)"/><path fill-rule="evenodd" fill="#d0bc93" d="M-37.7-98.35h.15l-.05.05-.1-.05" transform="translate(192.55 294)"/><path fill-rule="evenodd" fill="#f5e2b8" d="m-33.05-105.5 2.25-1.65 1.65-1.05q2.85-1.7 5-.95 1.55.95 1 2.15l-.4.35q-.4.3-.95.3h-.15l-1.1.15q-1.15.3-2.9 1.45t-2.95 1.4h-.1l-1.25-.15-.1-.7v-1.3m6.35-3.2-.45.6.5.45 1.1.05 1.1-.05q.4-.1.4-.45l-.45-.6-1.1-.2-1.1.2" transform="translate(192.55 294)"/><path fill-rule="evenodd" fill="#fff" d="m-26.7-108.7 1.1-.2 1.1.2.45.6q0 .35-.4.45l-1.1.05-1.1-.05-.5-.45.45-.6" transform="translate(192.55 294)"/><path fill-rule="evenodd" fill="#592b1a" d="M-31.6-103.35q1.2-.25 2.95-1.4 1.75-1.15 2.9-1.45l1.1-.15h.15q.55 0 .95-.3l2.55.1.8.75-2 1.45-.35.05q-2.05.4-2.75.95l-3.55 2.65-3.2-.4-.6-1.05.95-1.2h.1" transform="translate(192.55 294)"/><path fill-rule="evenodd" fill="#dcc67c" d="m-27.95-98.25 2.35-3.1 2.65-1.45 5.05-1.55 4.4.4-3.3 1.15 3.15.25-5.4 1.05-2-.5-3.25.75-3.65 3" transform="translate(192.55 294)"/><path fill-rule="evenodd" fill="#75552f" d="m-.55-104.5.75.05 2.8-.15.5-.05.8.8-4.85-.65" transform="translate(192.55 294)"/><path fill-rule="evenodd" fill="#896b3f" d="m3.5-104.65.4-.1 5.05-1.85q4.9 1.1 8.4 3.85v1.65l-.3 1-.4 1.2-.95 3.05-.85 2.65-1 3.05-.75 2.35-1.6-8.7q-1.15-3.7-7.2-7.35l-.8-.8m-29.1 22.2q-4.15 3.85-4.55 7.75 2.9 5.6 6.35 4.8 8.4 3.15 15.15-.2Q.1-71.95 3.1-76.75l.1-.2 4.1.55 1.55-.75.2.5q-2.55.75-4.6 2.7l-.5.45-1.55 1.95L-6.1-65q-8.1 3-14.6 3.05l-2.75-.7v-.1l-.05.05-.9-.3-.2-.1q-3.2-1.25-5.9-3.35L-31.85-69l-.75-1.9-.2-.8-.05-.15-.3-1.5 2.15-4.4 3.9-3.95 1.5-.75" transform="translate(192.55 294)"/><path fill-rule="evenodd" fill="#603d1a" d="m1.75-43.6.1-.3 2.25-1.05 2.8.1.75 2.05-.35.7-3.65-1.95-1.9.45m7.9-41.65 3.1-2.25.4.1q2.95-2.05 4.8-.05l-.3 1.6.95 4.85-1.7.6-.95-.3-.45-.1v-.15l-4 .7-.35-.25-.1-.1q.85-1 .7-2.5-.35-1.95-2.1-2.15m7.4-14.85 2.25-1.9 1.55.8-.4 1.65q-3.05-.25-3.8.65l.4-1.2M12.3-83.05l2-1.1q1.65-.25 1.9 1.45l-.25 2 .25-2q-.25-1.7-1.9-1.45l-2 1.1m.95-3.9-.1-.45.1.45m-9.1 42.8-.5.1.5-.1" transform="translate(192.55 294)"/><path fill-rule="evenodd" fill="#94441b" d="M23.45-96.35 27.4-101l-.1-1.8 2.1 7.75-4.15 19.55 1 7.35 2.6 2.7-1.5-.35-2.55-.65-2.2-2.3q.85-2.55 1-4.8l-3.35-7.5v-5.75l2.25-6.25.95-3.3" transform="translate(192.55 294)"/><path fill-rule="evenodd" fill="#774b20" d="m16.6-44.45.2.25.9 1.2-2-.85-2.7.95-.05.1-.8 1.85-.95-.65.15-1.85 2.95-1.45 2.3.45M.75-41.6l1-2 1.9-.45L7.3-42.1l-1 1.7-3-1.85-2.55.65m15.9-57.3q.75-.9 3.8-.65l-.6 2.85q-1.7-1-4.15.85l.95-3.05m1.95 8.3q-1.85-1.25-4.75.45l1-3.05q2.85-1.65 4.4-.5l-.65 3.1" transform="translate(192.55 294)"/><path fill-rule="evenodd" fill="#6d441d" d="m17.7-43 1.1 1.35 1.25 1.45-4.75-.9-.2-.05-.3.2-1.2.9-1.45-.9.8-1.85.05-.1 2.7-.95 2 .85M.1-40.15l.65-1.45 2.55-.65 3 1.85-.15.3-1.45-.7-4.6.65m5.7-42-.05-.05.1-.65 1.2-.65.25-.1.2-.2 2.15-1.45q1.75.2 2.1 2.15.15 1.5-.7 2.5l-.6-.5-3.15.6-1.5-1.65m6.95-5.35.3-.2.05-.1.75-2.35q2.9-1.7 4.75-.45l-.6 3.1-.05.05q-1.85-2-4.8.05l-.05-.4.05.4-.4-.1m6.5-6.2q-1.55-1.15-4.4.5l.85-2.65q2.45-1.85 4.15-.85l-.6 3m-.45 52.05-1.65-.4-1.85.95 1.85-.95 1.65.4" transform="translate(192.55 294)"/><path fill-rule="evenodd" fill="#e3c764" d="m18.4-36.05-.25 1.3-1.3 1-1.6-3.1.65-3.3.15-.15 2.75 1.05-.4 3.2M2.4-34l-.3.15-.45.2L.6-36.4v-.8l.6-1.95 3.2-.6-.25 2.5L2.4-34m.05-43.1H2.4l.7-2.5 2.7-2.55 1.5 1.65.15.2.6 1.45-2.4 1-2.35-.1v.05l-.85.8m8.85-.1.9-2.05 3.2-.5.65 1.9.35 1.1-.35 2.55-2.85-1.3-1.9-1.7m6.35-1.75.7-.45 2.15 1.35.15.85.6 2.85-1.1 3.45L17.8-73l-.15-5.95" transform="translate(192.55 294)"/><path fill-rule="evenodd" fill="#c79625" d="m16.85-33.75-.7.45-1.05-2.6-.75-1.9 1.05-2 .5-.35-.65 3.3 1.6 3.1M4.95-36.3l-1.6 1.85-.95.45 1.75-3.25.25-2.5.25-.1L5.8-37.9l-.85 1.6m3.1-42.55.8 1.7-1.55.75-4.1-.55L3-77l.3-.9v-.05l2.35.1 2.4-1m2.9 2.35.35-.7 1.9 1.7 2.85 1.3.35-2.55-.35-1.1 1.6-1.1.15 5.95 2.35 2.1-.3.8-1.7-.25-1.35-3.1-.1-.05-.65-.45-.05.3-1.5 2-.85-.55-1.35-3-1.35-1.3m5.1 2.55v-.25.25" transform="translate(192.55 294)"/><path fill-rule="evenodd" fill="#563f29" d="m25.7-62.1-2.95-.3-6.35 3.2 2.55-2.05.1-.1v-.1q2.4-3.9 3.55-7.3l2.2 2.3 2.55.65.5 2.55-2.15 1.15" transform="translate(192.55 294)"/><path fill-rule="evenodd" fill="#62472f" d="m32.8-61.75-2.9.1-4.2-.45 2.15-1.15-.5-2.55 1.5.35 4.4 1.05.65 1.35-1.1 1.3" transform="translate(192.55 294)"/><path fill-rule="evenodd" fill="url(#b)" d="m3.1-76.75-.15-.1L3-77l.2.05-.1.2" transform="translate(192.55 294)"/><path fill-rule="evenodd" fill="#bda46c" d="m2.95-76.85-.5-.25.55.1-.55-.1.85-.8-.3.9-.05.15" transform="translate(192.55 294)"/><path fill-rule="evenodd" fill="#cdb8ab" d="M18.5-36.05h-.1.1" transform="translate(192.55 294)"/><path fill-rule="evenodd" fill="#8b4818" d="M-31.5-83q-1.3 2.9-1.65 6.15l-.1 1.2.1 2.3.3 1.5.05.15.2.8.75 1.9 1.35 2.55h-1.85Q-33.5-67-34.5-67.9l-1.65-1.95q-1.15-4.1 0-7.65 2.1-3.75 4.65-5.5" transform="translate(192.55 294)"/><path stroke-width=".25" stroke-opacity=".322" stroke-linejoin="round" stroke-linecap="round" stroke="#000" fill="none" d="m225.8 229.6.9.2h4.5l3.1-.05 1.75-2.15m-9.85-9.3-.85-.2q-2.1-1.3-3.8-2.6l-.55 2.7.25 1.65m19.7 4.05-4 2.9-.9.8m7.65-5 1.05-.15-.25 2.1-.35.6 2.55 1.55q1.6 1.3 2.55 2.95 1.25 4.2-2.3 8.05-2.65 3.4-8.1 4.65l-2.3.4q-3.45-.85-4.9-2.25l-.4-.4-.1-.1-.25-.85q-.35-1.9.55-3.5.65-1.95 1.45-3.55h-1.55l-6 .15-2.9.1-4.2-.45-2.95-.3-6.35 3.2-4.25 3.3h.15l1.8 7.3m0-.05.05.7 2.45 3.5m.2.25.9 1.2 1.1 1.35 1.25 1.45.4.45q.1 2.8-1.95 3.7h-.1l-.25 1.3-1.3 1-.7.45-1.05-2.6-1.7-.3-.4-1q-1.3-2.05-2.95-3.1l-2 .35-.7 3-2.4.65-1.6 1.85-.95.45m-.3.15-.45.2-1.05-2.75v-.8l-1.3-1.45.8-1.5.65-1.45 1-2 .1-.3 2.25-1.05 3.75-1.25q1.1-3.55 1-7.2l-2.25-3.6-3.5-2.35-2.3-1.85-.25-2-9.75 1.5-2.5.25-3.8.1 2.35 4.1-1.3 2.4-7.75.95-5.85 3.4-.1.25-.35-.05-4.1-.4h-.35m66.6-25q7.8 2.1 14.75 5.6l1.65-1.2 1.1-.1m-6.1 16.25.05 1.2.75 1.45.45.85m5.3-17.2-2.4 3.75-.45 3.6-.25 1.6 1.4 1.35m-9.9 1.05 2.05 1.95 2.95-.15-.25-4q-1.3-1.7-2-1.2l-2.55 2.65-.2.75-1 2.8m6.05-.45-.05-.55m-6.35-8.5.65 1.55-.5.75m7.05 9.4-3.55.15-3.2-1.15m2.65-10.75-1.4 2.35m-73.95-86.25q10.85-5.15 23.95-3.35l.55.05m13.4 4.4 3.15 1.7q8.45 4.95 15.9 13.25m4.5 8.5 2.7 7.55q1.15 3.9 1.8 7.85l-.1 2.1m-.4 9.3-.15 4.3-.25 1.25m-1.2 6.2-1.25 6.55m-83.5-46.9-.5 3.6-.05.45m8.9-16.9 2.45-2.45m.25-.2 2.65-2.35M140.1 164.2l.6-1m-14.85 30.95-.05-.25-.1.2-.8 2.25.05 3.95.9 2.25 1.05-.7 1.05-2.3-.65.45-.8-.8 1-4.2.75-1.2-2.4.35m-.05-.25-.1-.65 3.05-3.05 6.8-3.1 3.15.5.95-.75q-2.7-7.25-2.15-14.2m3.35 16.9-.55-1-.3-.75-.35-.95m-1.3 1.35.35-.6m-10.45 6.2 2.15-1.7 2.95 1.1 1.45 2.75-.35.35 2.1.25-.85-1 1.3-1.5m.2-.2.15-.25h.65v-.1q-.4-1.35-.3-2.7.15-1.6.65-2.6-.25 1 .4 1.95.8.9 2.1.95.5-.65 0-1.55 1.15 1.65 3.15 2.95l2.15 1.1q3.95 1.35 7.25.15l3.45-3.15.9-.7 1.75-1.4 2.25-1.65 1.65-1.05q3.75-2.45 7.4-3.65l.85-.3q2.4-1.35 7.65 1.25 3.25 1.6 7.7 4.8h.05l.85.55.1.05.35.15q1.55.7 3.65.85l.75.05 2.8-.15.5-.05.4-.1 5.05-1.85 4.25-1.6 7.6-.5q3.1 2.7 4.45 5.7l-1.8 6.65-.95 3.3-2.25 6.25v5.75l3.35 7.5q-.15 2.25-1 4.8l2.2 2.3 2.55.65 1.5.35 4.4 1.05.65 1.35-1.1 1.3m-64.4-41.6q1.2-.25 2.95-1.4 1.75-1.15 2.9-1.45l1.1-.15h.15m.95-.3.4-.35q.55-1.2-1-2.15-2.15-.75-5 .95m-3.9 2.7v1.3l.1.7 1.25.15m10.5 11.4q4.8-1.8 8.4-4.1l.6-.4 1.6-1.1.05-.05.4-.5m12.6 21h-.05l.7-2.5 2.7-2.55-.05-.05.1-.65 1.2-.65.25-.1m.2-.2 2.15-1.45 3.1-2.25.3-.2.05-.1.05.4.1.45m-9.75-17.7.8.8m13.05-.05v2.8l-.3 1m-.4 1.2.4-1.2m.3-2.65q-3.5-2.75-8.4-3.85m5.9 13.4-1 3.05-.75 2.35m1.75-5.4.85-2.65.95-3.05m-9.35 18.4.15.2.6 1.45.8 1.7.2.5 1-.2.8.3.1.05.35-.7.9-2.05 3.2-.5.65 1.9 1.6-1.1.7-.45 2.15 1.35.15.85.2-1.1-.6-.65-1-1.2m-13.45-2 1.5 1.65m8.75 2.65.35 1.1-.35 2.55v.25l.65.45.1.05 1.35 3.1 1.7.25.3-.8m-4.1-3.05-.05.3-1.5 2-.85-.55-1.35-3-1.35-1.3q-.1 0-.1-.05m-7.85-.45.2.05 4.1.55 1.55-.75M193.1 230v.8m20.1-14 .6 2.85-1.1 3.45m7.2 5.1.5 2.55-2.15 1.15m-5.45-18.95v2.1M195.55 217l-.55-.1m6.6.45q-2.55.75-4.6 2.7l-.5.45-1.55 1.95-1.4 2.35-.7 1.55.25 3.65m-21.25 2.05 4.85.6h.35m-6.7 7.45 1.45-.85m25.15 15 .25-.1 1.15 1.95-.85 1.6m-4.35-.9.6-1.95 3.2-.6m12-19.45 2.55-2.05.1-.2q2.4-3.9 3.55-7.3m-3.65 7.5.1-.1v-.1M199.15 237l5.55 1.1m2.95 20-.75-1.9 1.05-2 .5-.35.15-.15 2.75 1.05-.4 3.2m-10.35-3.9.4-1.65m1.6 1.3.55-.1m1.7 1.6.7 1.6m-36.75-56.65-.75-1.1q-2.25-.75-5.2 0-4.6 2.2-11.65 3.15-3.7.45-7.4-1.1 7.15 4.85 19.25 3.5l2.1-.55q3.35-.9 6.2-2m-6.2 2-3.35 5.45-.75 1.5q-1.3 2.9-1.65 6.15l-.1 1.2.1 2.3.3 1.5m.05.15.2.8.75 1.9 1.35 2.55q2.7 2.1 5.9 3.35m.2.1.9.3.05-.05v.1l2.75.7M161.05 211q-2.55 1.75-4.65 5.5-1.15 3.55 0 7.65l1.65 1.95q1 .9 2.15 1.45h1.85m-27.6-31.25-1 .7-3.8 1.3-1.7 1.25m15.85 1.55-2.8-2.35-.25-.3-.85 2.05-.8-.2-1.85-3-.7-.75m32.55 34.8-.05-.05-1 2.1 1-.75m-.95 2.45-3.6 2.85-2.05.35-.75 1 2-.2 1.5 2.1-.7 2.3-.45.2m4-10.3-5.75 2.4-3.25-.8-.75.9-.25.55 1.8.25 1.55 3 .3-.4m-3.65-2.85h-.2l-.35.5.55-.5m.25-.55-.45.55m2.4 4.8.05-.5-1.8.9-3.85-.25 1.1-4 1.75-.45m3.35 3.45-.6.85-.3 2.05m.35-2.55.55-.35.55-.7.2.35m-20.85-41.6q-2.1-2.45-2.75-4.85"/><path stroke-width=".25" stroke-linejoin="round" stroke-linecap="round" stroke="#3e1e11" fill="none" d="m213 194.45 1 .6m-4.8.05q.75-.9 3.8-.65m-.6 2.85.65-.1m-6.65 6.65q2.9-1.7 4.75-.45l.5-.1m.15-3q-1.55-1.15-4.4.5m-1.7 5.8q2.95-2.05 4.8-.05l.05-.05m-6.95 6.9q.85-1 .7-2.5-.35-1.95-2.1-2.15m6.3 4.55.25-2q-.25-1.7-1.9-1.45l-2 1.1m-1.25 2.45.1.1m4.8-.2-.1.4m-3.1-7.2.4.1m2.55-8.45q2.45-1.85 4.15-.85m-.6 3 1.65-.2m-17.25 49.85.5-.1m2.15 3.75-3-1.85-2.55.65m1-2 1.9-.45 3.65 1.95.3.15m4.55 1 .8-1.85.05-.1 2.7-.95 2 .85m-2.9 2.05.5-.15 1.85-.95 1.65.4"/><path stroke-width=".25" stroke-linejoin="round" stroke-linecap="round" stroke="#f4ae0b" fill="none" d="m145.55 158.8-.4-2.9m-1.1 4V157m12.95-8.95.3-1.8m-2.5 3.05.95-2.75m-2.9 4.25.45-3m-10.65 15.15-.65-3.45m74.1 24.75 1.2 1.2"/><path stroke-width=".25" stroke-linejoin="round" stroke-linecap="round" stroke="#aa591e" fill="none" d="m159.5 182.65 5.35-6.6m-4 6.3 2.5-3.15m.15 1.65 3.45-3.15m-8.55 4.65 3.3-3.15m-6.6 5.25 2.6-4.15m23.85-8 9.35-4.4m-14.2 6.45 2.75-2.6m5 .3 7.3-3.2m-13.1 4.85 4.95-4.55m24.1 3-2.2.6 4.7.65m-4.95-.7.25.05m1.95.95 4.15 1.35m-9.25-3.55h6.45m-.8 4.1 4.95.85m-16.25-5.4 8.55-1.2"/><path stroke-width=".25" stroke-linejoin="round" stroke-linecap="round" stroke="#ffb404" fill="none" d="m192.7 145.85 4 .15m-8.95-1.8h6.2m-9.65-1.1 5.1-.95m6.2 38.5 1.5-.75m-6.85 1.1 4.8-.75m11.55-2.85 1.55-.05m-.5 1.55 3.6-.3m-13.55 1 3.9-2.05 4.35-.1m8.95 3.7-2.8-1.3"/></g></defs><path fill="none" d="M-1-1h264v250H-1z"/><g transform="scale(2)"><use x="70.55" y="155" xlink:href="#c" width="381" transform="translate(-192.55 -294)" height="381"/><use x="-67.231" y="-83.747" xlink:href="#d" width="102.95" transform="matrix(1.8072 0 0 1.6538 83 157.5)" height="45"/></g></svg>