<svg width="184" height="227" xmlns="http://www.w3.org/2000/svg" xmlns:xlink="http://www.w3.org/1999/xlink"><defs><g id="b" stroke-opacity="0" stroke-linejoin="round" stroke-linecap="round" stroke="#f0f" fill="none"><path d="M187.95-293.5v380h-380v-380h380M92.95.6H-97" transform="translate(192.55 294)"/><path d="m187.95-293.5-190 190 190 190m-380-380 190 190L-192 86.5" transform="translate(192.55 294)"/></g><g id="d"><path fill-rule="evenodd" fill="#424200" d="M22.8 68q2.15-1.7 4.75-2.25 3.2-.65 5.75.9 1 .55 1.4 1.35h.2v.7l-.25 1.2-.3.9q-1.6 3.5-4.2 6.6-2.65 3.1-5.7 3.9-3.1.95-4.85-.9-1.8-1.95-1.2-5.55.45-2.55 2.05-4.95l1.2-1.6.3-.3h.85" transform="translate(.2 -12)"/><path stroke-linejoin="round" stroke-linecap="round" stroke="#424200" fill="none" d="m85.7 70.15 2.7 1.65m-11.2-1.55 2.65 9.05m-6-8.55.6 6.9m6.95-8 4.8 5.3M6.75 54.65l-4.8 1.5m2.1 1.1L.3 58.4" transform="translate(.2 -12)"/><path stroke-width=".05" stroke-linejoin="round" stroke-linecap="round" stroke="#000" fill="none" d="M23 56q2.15-1.7 4.75-2.25 3.2-.65 5.75.9 1 .55 1.4 1.35m.2 0v.7l-.25 1.2-.3.9q-1.6 3.5-4.2 6.6-2.65 3.1-5.7 3.9-3.1.95-4.85-.9-1.8-1.95-1.2-5.55.45-2.55 2.05-4.95l1.2-1.6.3-.3"/><path fill-rule="evenodd" fill="#ac9882" d="M77.8 41.15v.15l-.35 2.3-1.1-.8.05-.05-.6-.45-3.55-2.85-8.75 5.4.05.3.05.65.6 7.35.65.3 3.2 1.65v1.65l1.5.4-2.15 1.65q-8.05 6.4-18.2 8.15l-.45.05-20.9-.85-1.2-.35-4.85-1.7q-4.75-1.95-8.6-5.3L8 53.65l-.15-.2-.8-1.15-2.75-5.2Q2.7 41.25 3.95 36l.15-.6q.7-.85.55-1.7 1.75-4.9 6.05-9.25 4.95-5.05 10.9-8 4.45-2.2 9.5-3.2-12.5 5-17.3 17.4l-1 3.1-4.2-.1-.65 3.5.55.7.75-.1 1.6 2.65-.55 2-1.85 1.25-.35 2.6.25.15 1.95 1.5h4.15l.6-.55q7.2 4.35 8.5 5.8l2 .3.15 1.5-.8.15q-3.2.4-5.8 0 2.6.4 5.8 0l.8-.15-1.6 3.75 1.6-3.75 2.85.25 2.9.6v2-2l4.15.85 4.75.45-.8-2.75 2.75-.5q9.75-2.4 15.75-10.25l.3-.15.05-.35 1.2-1.25q9.2-9.75.8-20l-.3-.4.25-4.4.25-.55 1.5.8q3.6 2.1 6.4 4.85 5.8 5.65 8.05 13.9l1.25 5.1M50.55 54.2q-2.15 1.15-6.5 2.3l-3.7.6 3.7-.6q4.35-1.15 6.5-2.3M47.3 69.15l-.25.75q-.35 1.4-.4 3.1-.15 4.2 1.6 8.2 1.75 3.95 4.25 5.55l.5.3q-.65 2.1-1.7 4.05-2.1-4.35-10.3-12.7l.85-5.85-10.35 1.3-3.25 5.5v5.25l.55.8-4.75 5.65q-1-1.25-1.6-2.6Q21.5 86.4 21.4 84v-.1q0-1.2.15-2.4l.2-1.2.4-1.5.25-.85 1.4-4.1q4.5-2.7 9.45-3.95 6.6-1.65 14.05-.75m-8.55-9.6 1.6-2.45-1.6 2.45m-19.55-7.1-.1 2.65.1-2.65m-.1 2.65q-4.45-.7-7.3-3.65l-.65-.7.65.7q2.85 2.95 7.3 3.65l-2.4 2.25 2.4-2.25" transform="translate(.2 -12)"/><path fill-rule="evenodd" fill="#f60" d="m63.6 45.8-.05-.65-.05-.3 8.75-5.4 3.55 2.85.55.5-4 3.95-.9.3-3.15.95-.05.65.05-.65 3.15-.95.9-.2 4.15-.95 1 1 .95.95-.1.1-2.45 2.15 1.6.4.55 1.15.45.85 1.05 2.3-2.8.25 2.8-.25.15.25.4 1 .2.35-1.25 1.1 1.6.6.05 2.3-1.65-.25-3.25-.4-.05.05-2.35-2.3 1.3-1.15.3-.25 1.15-1 .6-.05-.95-2.5.15-.05v-.05l.1-.85-.65-.05h-.2l-1.75-1.4-.35-.05.1-.65 2.7.65-2.7-.65-.1.65-2-.3-.3-1.25-1.55.4-.15.2-.85-.5-4.65-2.85m8.1-1.45-.3-2.75-4 2.1-.8 2.2 2.7.4 2.45-1.7-.05-.25M77 57.8l.2.1 1.2.5.1-.1.55-.8-1.15-1-.95.7.05.6" transform="translate(.2 -12)"/><path fill-rule="evenodd" fill="red" d="m76.35 42.8-.55-.5.6.45-.05.05m-.4 9.7-.15.05v-.05h.15m-.2 7.3.05-.05.3.4-.35-.35m2 2.75.05.1h-.05v-.1m-8.5-13.6v.3l-.15-.1.15-.2" transform="translate(.2 -12)"/><path fill-rule="evenodd" fill="#722801" d="m72.35 46.75 4-3.95 1.1.8.55.35-.5 2.95-1-1-4.15.95v-.1m6 1.2.9 1.95-1.2 1.75-.55-1.15-1.6-.4 2.45-2.15m.15 4.55 1.85 1.2.2.15-.45 2.2-.4-1-.15-.25-1.05-2.3m.55 7.65-.2 2.45-1.1-.05-1.2-1.75-.45-.65-.3-.4 3.25.4" transform="translate(.2 -12)"/><path fill-rule="evenodd" fill="#8b7f6a" d="m39.55 54.35.8 2.75-4.75-.45-4.15-.85.05-1.8-.05 1.8-2.9-.6-2.85-.25-.15-1.5 5.95.55 8.05.35m31.9-7.3.9-.3v.1l-.9.2M49.9 100.3q.15 3.15-.75 5.9l-.4 1.05-.15.35h-10l-.6-1.05-.75-1.55-.15-.35 4.65-3.9 3.35-.2.4-.4.1.4 4.3-.25m-19.8 3.8-.45.2.05-.35.05-.35.35.5m24.85-86.9-.05-.05.05-.1v.15" transform="translate(.2 -12)"/><path fill-rule="evenodd" fill="#fe9f6d" d="m71.7 44.35.05.25-2.45 1.7-2.7-.4.8-2.2 4-2.1.3 2.75m-.6 5.45.15.7-.8 1.25-1.2-.35v-2.45l1.55-.4.3 1.25" transform="translate(.2 -12)"/><path fill-rule="evenodd" fill="#fe8849" d="M75.2 51.55h.2l.65.05-.1.85v.05h-.15l-1.65-.05V51.4l1.05.15" transform="translate(.2 -12)"/><path fill-rule="evenodd" fill="#cd4801" d="m63.6 45.8 4.65 2.85.85.5.15.1v2.15l1.2.35.8-1.25-.15-.7 2 .3.35.05 1.75 1.4-1.05-.15v1.05l1.65.05v.05l.95 2.5-.6.05-1.15 1-.3.25-1.3 1.15 2.35 2.3.35.35.45.65 1.2 1.75v.1l-4.8.25h-.05l-1.35-3.85 1.35-1.15-.8-.2.35-2.2.2-1.6.45-3.8-.45 3.8-2.5 3.4-.6-.15-1.5-.4V55.1l.2-5.7-.1.15-1.45 3.8-1.85.1-.65-.3-.6-7.35m9.3 12.1.5-.4-.5.4" transform="translate(.2 -12)"/><path fill-rule="evenodd" fill="#ad0101" d="m80.3 56.4.35.75v.95l-1.6-.6 1.25-1.1m-8.2 1.3-.6-.15-.15-.05-1.2-.2 2.5-3.4-.2 1.6-.35 2.2m-7.25-4.25 1.85-.1 1.45-3.8.1-.15-.2 5.7-3.2-1.65m6.65 4.1.95-2.05-.95 2.05" transform="translate(.2 -12)"/><path fill-rule="evenodd" fill="#fe5656" d="m77 57.8-.05-.6.95-.7 1.15 1-.55.8-.1.1-1.2-.5-.2-.1" transform="translate(.2 -12)"/><path fill-rule="evenodd" fill="#690" d="M78.85 62.6v.05q5.1 1.6 8.3 6.1l1.15 1.85v2.2l-7.35-3.45 3.6 7.15-1.5 2.15-4.6-10.2L79.8 79l-1.05.5q-2.8-6-3.4-9.25l-.05-.4-3.1 8.8-.85-1.6-.1-.15q-.9-3.25-.5-6.65.4-3.6 2.2-7.35l4.8-.25h.05l-.05-.1 1.1.05" transform="translate(.2 -12)"/><path fill-rule="evenodd" fill="#716657" d="m58.4 43.1-.05.35-.3.15-.65.2 1-.7m-9.45 24.1-.05.05-.6.65-.55.8h-.3l-.15.45q-7.45-.9-14.05.75-4.95 1.25-9.45 3.95l1.5-3.95.9-1.9h.4l.6-1 .6-.8.05-.05 20.9.85-1.05.2h1.25m-22.4 26.25-.65-.6-1-.9-.85-.9 4.75-5.65.15-.2.65.25-1.1-2.75 2.3-2.9 2.65-2.5q-2.35 5.1 1.1 8.35-3.95-2.6-3.55.25l-.8-.3-.45 1-3.2 6.85m-11.5-46.1-.6.55H10.3l-1.95-1.5-.25-.15.35-2.6 1.85-1.25 1.25-.9.1-.05-.7-3.9-1.7.2-.75.1-.55-.7.65-3.5 4.2.1 3 .1 7.85-4.8 3.4 3-.1 2.5-3.1 2.9 3 1.3 1.2 3.4-2.1 3.85-1.7.2-7.6-.2-1.6 1.35M35.1 37l2.6-.4 7.85-6.6 3.5 1.1-.35 3 10.4.4q-8 10.15-7.2 11.6l-3.95 2.35q-.9.55-1.75 1.2L40 49.1l-2.4-2.35h-.05l-1.85-.5-2.65-6.35L35.1 37m15.05 7.25-.05.05h.1l-.05-.05" transform="translate(.2 -12)"/><path fill-rule="evenodd" fill="#b0a084" d="m10.3 42.4.55-2-1.6-2.65 1.7-.2.7 3.9-.1.05-1.25.9m17.95 40.3h.25l1.1 2.75-.65-.25-.15.2-.55-.8v-1.9" transform="translate(.2 -12)"/><path fill-rule="evenodd" fill="#b9a895" d="M60.4 21.85q8.4 10.25-.8 20l-1.2 1.25-1 .7.65-.2q-6 7.85-15.75 10.25l-2.75.5L31.5 54l-5.95-.55-2-.3q-1.3-1.45-8.5-5.8l1.6-1.35 7.6.2 1.7-.2 2.1-3.85-1.2-3.4-3-1.3 3.1-2.9.1-2.5-3.4-3-7.85 4.8-3-.1 1-3.1q4.8-12.4 17.3-17.4l2.15-.4 2.05-.25q8.3 0 15.85 3.05l3.75 1.5.05.05L56.7 21l1.2-1.65 2.15 2.7.35-.2M51.3 91.1l-.45.75-2.1 2.75-1.05.95Q43.05 95 33.35 91.1l-3.6-4.5.45-1 .8.3q-.4-2.85 3.55-.25-3.45-3.25-1.1-8.35l-2.65 2.5-2.3 2.9h-.25v-3.35l3.25-5.5 10.35-1.3L41 78.4q8.2 8.35 10.3 12.7M37.6 46.75 40 49.1l6.2.55q.85-.65 1.75-1.2l3.95-2.35q-.8-1.45 7.2-11.6l-10.4-.4.35-3-3.5-1.1-7.85 6.6-2.6.4-3.1.45 1.05 2.45 2.65 6.35 1.85.5h.05" transform="translate(.2 -12)"/><path fill-rule="evenodd" fill="#978362" d="m60.6 16.5-.25.55h-5.4l-.05.1-3.75-1.5Q43.6 12.6 35.3 12.6q13.75-2.3 25.3 3.9M27.25 93.9l-.7-.45 3.2-6.85 3.6 4.5q9.7 3.9 14.35 4.45-2.5 2-5.85 2.45l-2.1.2-3.85-.4q-4.5-.85-8.65-3.9" transform="translate(.2 -12)"/><path fill-rule="evenodd" fill="#3b362d" d="m60.35 17.05-.25 4.4-.05.6-2.15-2.7L56.7 21l-1.75-3.8v-.15h5.4" transform="translate(.2 -12)"/><path fill-rule="evenodd" fill="#a9977a" d="m60.1 21.45.3.4-.35.2.05-.6" transform="translate(.2 -12)"/><path fill-rule="evenodd" fill="#bcbc9c" d="M37.6 46.75h-.05.05m-4.55-6.85L32 37.45l3.1-.45-2.05 2.9m17.1 4.35.05.05h-.1l.05-.05" transform="translate(.2 -12)"/><path fill-rule="evenodd" fill="#585701" d="m48.75 94.6.35 1 .45 2 .35 2.7-4.3.25-.1-.4-.4.4-3.35.2-4.65 3.9-.85-3.05q-.35-1.95-.35-3.8l3.85.4 2.1-.2q3.35-.45 5.85-2.45l1.05-.95" transform="translate(.2 -12)"/><path fill-rule="evenodd" fill="#427000" d="m71.35 77.05-.1-.05v-.1l.1.15M.6 60.45l-.05-.05.1-.1-.05.15" transform="translate(.2 -12)"/><path fill-rule="evenodd" fill="#424200" d="M48.6 107.6q-1.25 2.75-3.45 3.4-2.75.8-5.35-2l-1.2-1.4h10M37.25 105q-.85 1.2-1.95 1.65l-.65.15q-2.4.4-4.55-2.7l-.35-.5q-1.85-2.95-2.35-7.3l-.15-2.4q4.15 3.05 8.65 3.9 0 1.85.35 3.8l.85 3.05.15.35M13.2 58.8l.15 2.6-1.25 1.8-2-5.55L8 64.9l-2 1.2 3.2-10v-.05L4 65.2h-.8l3.3-8q-2.8 1.9-5 4.9l-.9-1.65.05-.15 6.4-8 .8 1.15.15.25v-.05l5.2 5.15" transform="translate(.2 -12)"/><path stroke-width=".05" stroke-linejoin="round" stroke-linecap="round" stroke="#000" fill="none" d="m76 30.3-3.55-2.85-8.75 5.4.05.3.05.65.6 7.35.65.3 3.2 1.65v1.65l1.5.4m-1.3-8.5.05-.65 3.15-.95.9-.3m4-3.95-.55-.5.6.45-.05.05 1.1.8m-5.1 3.25 4.15-.95 1 1 .5-2.95-.55-.35m.05 3.3.95.95-.1.1.9 1.95-1.2 1.75.45.85 1.85 1.2.2.15-.45 2.2.2.35.35.75v.95l.05 2.3-1.65-.25m-6.1 2.75h-.05l-1.35-3.85 1.35-1.15-.8-.2-.6-.15-.15-.05-1.2-.2-.6-.15M49.4 55l-.25.2m4.05 19.85q-.65 2.1-1.7 4.05l-.45.75-2.1 2.75.35 1 .45 2 .35 2.7q.15 3.15-.75 5.9l-.4 1.05-.15.35q-1.25 2.75-3.45 3.4-2.75.8-5.35-2l-1.2-1.4-.6-1.05-.75-1.55q-.85 1.2-1.95 1.65l-.65.15q-2.4.4-4.55-2.7l-.35-.5q-1.85-2.95-2.35-7.3l-.15-2.4-.7-.45-.65-.6-1-.9-.85-.9q-1-1.25-1.6-2.6Q21.7 74.4 21.6 72v-.1q0-1.2.15-2.4l.2-1.2.4-1.5.25-.85 1.4-4.1 1.5-3.95.9-1.9m.4 0 .6-1 .6-.8.05-.05m51.7-11.35-1.05-2.3m-.45-.85-.55-1.15-1.6-.4-2.7-.65-.1.65-.45 3.8-.2 1.6-.35 2.2m4.65-2.65 2.8-.25.15.25.4 1m-5.4.3-1.3 1.15-.5.4m2.9 1.85 3.25.4m-2.3-5.1-.6.05-1.15 1m1.1 4.05-.3-.4m.75 1.05 1.2 1.75.05.1h-.05l-4.8.25m-4.7-13.5-.2 5.7M47.9 83.55l1.05-.95m-1.05.95q-2.5 2-5.85 2.45l-2.1.2-3.85-.4q0 1.85.35 3.8l.85 3.05m.15.35-.15-.35m-1.2-6.85q-4.5-.85-8.65-3.9m44.2-46.85.9-.2m.1 8.65-.95 2.05"/><path stroke-width=".05" stroke-linejoin="round" stroke-linecap="round" stroke="#341301" fill="none" d="m78 29.15-1.25-5.1q-2.25-8.25-8.05-13.9-2.8-2.75-6.4-4.85l-1.5-.8m16.85 27.1.35-2.3m-8.25 15.85L67.6 46.8q-8.05 6.4-18.2 8.15l-.45.05h.45m-21.35-.85-1.2-.35L22 52.1q-4.75-1.95-8.6-5.3m-6.15-6.5L4.5 35.1Q2.9 29.25 4.15 24l.15-.6m.55-1.7q1.75-4.9 6.05-9.25 4.95-5.05 10.9-8 4.45-2.2 9.5-3.2m2.15-.4L35.5.6q13.75-2.3 25.3 3.9M48.95 55l-20.9-.85m-20-12.7.15.2 5.2 5.15m-5.35-5.35-.8-1.15"/><path stroke-width=".05" stroke-linejoin="round" stroke-linecap="round" stroke="#684b24" fill="none" d="m40.55 45.1 3.7-.6q4.35-1.15 6.5-2.3m-19.1 1.6 4.15.85 4.75.45m-21.25-2q2.6.4 5.8 0l.8-.15 2.85.25 2.9.6m-20.3-5.05.65.7q2.85 2.95 7.3 3.65"/><path stroke-linejoin="round" stroke-linecap="round" stroke="#424200" fill="none" d="m39.55 54.35.8 2.75-1.6 2.45m-7.3-3.75v2m.05-3.8-.05 1.8m-5.75-.85-.15-1.5m.15 1.5-1.6 3.75m-5-3.6.1-2.65m-.1 2.65-2.4 2.25" transform="translate(.2 -12)"/></g><g id="e" fill-rule="evenodd"><path fill="#8b7f6a" d="M8.2 1.2v-.05.05"/><path fill="#ccc" d="M13.55 7.4q1.9 1 4.05 1l-2.2 3.9-1.7-.25-1.8-.2-.5-.35 2.15-4.1"/><path fill="#bcbcbc" d="m17.6 8.4 2.8-.4-2.25 3.7q-1.05.7-2.75.6l2.2-3.9"/><path fill="#afafaf" d="M10.6 5.4q1.4 1.2 2.95 2l-2.15 4.1-2.7-2 1.9-4.1"/><path fill="#737373" d="M8.2 1.2q-.3.65-.2 1.5l2.6 2.7-1.9 4.1-1-.75L6.45 6l.4-1.6L8.2 1.2"/><path fill="#a7a7a7" d="M9.35 15.7 1.3 27.8l-1.3-1 4.85-9.9.5-1.55 4 .35"/><path fill="#8e8e8e" d="M11.9 11.85 9.35 15.7l-4-.35 2.35-6.6 1 .75 2.7 2 .5.35"/><path fill="#b9b9b9" d="M8.2 1.2q.25-.55.85-1L11.6 0q5.25-.15 9 5.5L20.4 8l-2.8.4q-2.15 0-4.05-1-1.55-.8-2.95-2L8 2.7q-.1-.85.2-1.5"/><path fill="#fff" d="m14.2 10.95.1-.65.35-.5h.5l.4.35-.05.65-.45.5-.5.05-.35-.4"/></g><g id="f"><path fill-rule="evenodd" fill="#f56000" d="m8.5 31.9.3-.7q1.45-2.85 5.25-3.4l1.6 2.85q1.85-1.5 4.05-2.55 5.35.6 6.35 5.9l-.1.05-4.45 1.15-2.65 1.75-6.95 6.95-1.3.6-1.95-5.25.2-.4.95-1.6 1.2-1.8-1.75-.95-.75-2.6m14 5.65 4 2.45q.35 4-2.6 5.45l-4.35-1.75-.75-1.1 3.7-5.05m-6.85-6.9q-1.5 1.1-2.75 2.5l-1.9 2.3 1.9-2.3q1.25-1.4 2.75-2.5M13.5 34.7l.1 1.35 7.15-4.55-1.45-1.15-3.1 1.05-2.7 3.3m34.25-2.3 3.1.85.35 2 1.3 3.25-1.85 1.5-7.15-1-5.25 2.05v.1l-.55.1-1 .2-1.95.5q-4.45-3.9.2-8.55l3.95-1q.45-1.8 1.25-3.55Q44 26.3 47.5 28.4l.15.1-1 2.75-3.15.8 4.25.35m-.25 14.65q-3.9 3.75-8.2-.8-.5-1.65-.7-3.2l3.15-.65 3.5.35 2.25 4.3m-.35-12.2-6.35-.65-1.55.2-1.65 1.9 10.6 1.25 1.15-1.45-2.2-1.25m-3.65-2.8-4.6.35 4.6-.35" transform="translate(-7.85 -27.45)"/><path fill-rule="evenodd" fill="#8f6401" d="M25.95 34.05q-2.35 1.2-4.35 2.9l.9.6-3.7 5.05.75 1.1 4.35 1.75q-1.35.6-3.45.7l-4.5-2.6-1.75 3.2q-5.95.75-6.35-5.85l.8-1.65 1.95 5.25 1.3-.6 6.95-6.95 2.65-1.75 4.45-1.15M9.8 37.25q-1.05-1.55-1.85-3.3.15-1.15.55-2.05l.75 2.6 1.75.95-1.2 1.8m6.15 6.3q2.4-3.95 5.65-6.6-3.25 2.65-5.65 6.6m31.7-15.05 1.15.85q-.65 1.5-1.05 3.05l-4.25-.35 3.15-.8 1-2.75m3.2 4.75 1.5.55q2.05 2.9 1.3 5.7-.4 1.45-1.55 2.95-2.5-1.05-5.2-1.4.25 2.7 1 5.65l-.4.35-2.25-4.3-3.5-.35-3.15.65-.3-1.9-.05-.1L43.5 39l7.15 1 1.85-1.5-1.3-3.25-.35-2m-12.55 7.9q4.5-.8 8.6-.1-4.1-.7-8.6.1" transform="translate(-7.85 -27.45)"/><path fill-rule="evenodd" fill="#fe9761" d="m13.5 34.7 2.7-3.3 3.1-1.05 1.45 1.15-7.15 4.55-.1-1.35m33.65.15 2.2 1.25-1.15 1.45-10.6-1.25 1.65-1.9 1.55-.2 6.35.65" transform="translate(-7.85 -27.45)"/><path fill-rule="evenodd" fill="#cc9400" d="M38.3 41.15h-.05v-.1l.05.1" transform="translate(-7.85 -27.45)"/><path stroke-width=".05" stroke-linejoin="round" stroke-linecap="round" stroke="#684b24" fill="none" d="M.95 3.75Q2.4.9 6.2.35L7.8 3.2Q9.65 1.7 11.85.65q5.35.6 6.35 5.9m-.1.05q-2.35 1.2-4.35 2.9l.9.6 4 2.45q.35 4-2.6 5.45-1.35.6-3.45.7l-4.5-2.6-1.75 3.2Q.4 20.05 0 13.45l.8-1.65m.2-.4.95-1.6Q.9 8.25.1 6.5q.15-1.15.55-2.05M3.15 8l1.9-2.3Q6.3 4.3 7.8 3.2m5.95 6.3q-3.25 2.65-5.65 6.6M3.15 8l-1.2 1.8M39.8 1.05l1.15.85q-.65 1.5-1.05 3.05l3.1.85 1.5.55q2.05 2.9 1.3 5.7-.4 1.45-1.55 2.95-2.5-1.05-5.2-1.4.25 2.7 1 5.65l-.4.35q-3.9 3.75-8.2-.8-.5-1.65-.7-3.2l-.3-1.9h-.05l-.55.1m-1 .2-1.95.5q-4.45-3.9.2-8.55l3.95-1q.45-1.8 1.25-3.55 3.85-2.55 7.35-.45m-4 3.65 4.25.35m-8.85 0 4.6-.35m3.4 9q-4.1-.7-8.6.1"/></g><g id="g"><path fill-rule="evenodd" fill="#8b7f6a" d="M52.05 68h1l1.7 1.9 1.9 2.5 1 1.7-7.6-4.45-1.35 3.85L50.45 84l4.3-4.75 4.15-2.5 1 3.65q.8 4.25-.7 6.65-1.55 2.4-4.45 1.45-2.75-.95-5.25-4.65-2.55-3.75-3.3-8.25-.55-3.1.05-5.7.2-1 .55-1.9h.4q1.5-2.2 4.1-.55l.75.55" transform="translate(-6.65 -12.6)"/><path fill-rule="evenodd" fill="#b9a895" d="m57.65 74.1.2.3 1.05 2.35-4.15 2.5-4.3 4.75-1.75-10.5 1.35-3.85 7.6 4.45" transform="translate(-6.65 -12.6)"/><path stroke-width=".05" stroke-linejoin="round" stroke-linecap="round" stroke="#716657" fill="none" d="M2.6 28.45 0 31.5m3.6-1.8-1.55 4.15M14.2 16.3l1.4-3.6Q21.75 2.55 31.65 0M15.9 16.95l2.05-.85M5.15 31.5v3.9m13-16 3.25-1.2m-3.25 11.5 2.9 2.3m-2.9-4.45 3.55 1.55M7.15 16.7 6 13.9m-1.75 3.45-2-1.75m27.85 5.15-.5-2.05m6.55-2L34.6 8.3m9.2 13.95 4.5.4m-9.9-7.4 3.55-8.4m3.3 18.7 6.15 1.85m-22.95-4.95-4.15.2m9.75 10.9.4 3.95m3.05-3.1.9 3.7"/><path stroke-width=".05" stroke-linejoin="round" stroke-linecap="round" stroke="#000" fill="none" d="m46.4 55.4 1.7 1.9 1.9 2.5 1 1.7.2.3 1.05 2.35 1 3.65q.8 4.25-.7 6.65-1.55 2.4-4.45 1.45-2.75-.95-5.25-4.65-2.55-3.75-3.3-8.25-.55-3.1.05-5.7.2-1 .55-1.9m.4 0q1.5-2.2 4.1-.55l.75.55"/></g><path stroke-width="2.5" stroke-linejoin="round" stroke-linecap="round" stroke="#660" fill="none" d="m89 71.95-7.35-3.45 3.6 7.15-1.5 2.15-4.6-10.2 1.35 10.55-.05.05-1 .45q-2.8-6-3.4-9.25L76 69l-3.1 8.8-.85-1.6-.1-.05v-.1q-.9-3.25-.5-6.65.4-3.6 2.2-7.35h-.05l-1.35-3.85 1.35-1.15-1.4-.35-.15-.05-1.8-.35-2.15 1.65Q60.35 64.1 50.65 66q.6.15 1.35.6l.75.55h1l1.7 1.9 1.9 2.5 1 1.7.2.3 1.05 2.35 1 3.65q.8 4.25-.7 6.65-1.55 2.4-4.45 1.45l-1.9-1q-.6 1.85-1.55 3.6l-.45.75q-.95 1.55-2.1 2.75l.35 1 .45 2 .35 2.7q.15 3.15-.75 5.9l-.4 1.05-.15.35q-1.25 2.75-3.45 3.4-2.75.8-5.35-2l-1.2-1.4-.6-1.05-.75-1.55q-.85 1.2-1.95 1.65l-.65.15q-2.4.4-4.55-2.7l-.45.2.05-.35.05-.35q-1.85-2.95-2.35-7.3l-.15-2.4-.7-.45-.65-.6-1-.9-.85-.9-1.6-2.6q-.95-2.05-1.05-4.45v-.1l.1-1.7-.85-.05-8.2.65-1.95 2.6-1.55.35H6.3l.05-.05q-.6 0-1.2-.4l-1.1-2.75q-2.1-5.75 1.45-12.5l2.3-.9 4.05.75q1 .8 1.55 2.75l.4 2 .5 2.05 4.75 1.1q-.25-1.3.05-2.95.45-2.55 2.05-4.95l1.2-1.6.3-.3h.85q1.95-1.5 4.15-2.1l-.3-.1-4.85-1.7q-4.75-1.95-8.6-5.3l.15 2.6-1.25 1.8-2-5.55-2.1 7.25-2 1.2 3.2-10v-.05l-5.2 9.15h-.8l3.3-8q-2.8 1.9-5 4.9l-.9-1.65-.05-.05.1-.1 6.4-8L5 46.25q-1.6-5.85-.35-11.1l.15-.6q.7-.85.55-1.7 1.75-4.9 6.05-9.25 4.95-5.05 10.9-8 4.45-2.2 9.5-3.2l4.2-.65q12.2-2 22.7 2.6l1.55-6.5-.8-.65-.8-.55q-.75-.7-.85-1.4l.7-2.5 1-1.2Q63.45.6 65.55 2.8l.95 1.15-.1.75-.85 1.95-.55.85-1.7.7-2.4 4.7-.8 2.1q1.35.65 2.7 1.45 3.6 2.1 6.4 4.85 5.8 5.65 8.05 13.9l1.25 5.1v.15l-.35 2.3.55.35-.5 2.95.95.95-.1.1.9 1.95-1.2 1.75.45.85 1.85 1.2.2.15-.45 2.2.55 1.1.05 3.25-1.65-.25-.2 2.45v.05q5.1 1.6 8.3 6.1L89 69.75v2.2M8.7 52.85l-.15-.25.15.2v.05m40 13.45-.1.05h-.2l.3-.05" id="c"/><path fill-rule="evenodd" fill-opacity="0" fill="#f0f" d="M0 0h102.95v45H0V0" id="a"/><use xlink:href="#a" width="102.95" height="45" id="h"/></defs><path fill="none" d="M-1-1h186v229H-1z"/><g transform="scale(2)"><use x="46.55" y="138.5" xlink:href="#b" width="381" transform="translate(-192.55 -294)" height="381"/><use x="46.55" y="138.5" xlink:href="#c" width="90.25" transform="translate(-46.5 -137.3)" height="111.6"/><use x="46.55" y="138.5" xlink:href="#d" width="89.1" transform="translate(-45.7 -126.45)" height="99.2"/><use x="-229.342" y="105.242" xlink:href="#e" width="20.6" transform="matrix(-.403 -.4047 -.4359 .4341 24 -130.1)" height="27.8"/><use x="46.55" y="138.5" xlink:href="#f" width="46" transform="translate(-37.65 -111)" height="21.3"/><use x="178.868" y="-90.566" xlink:href="#e" width="20.6" transform="matrix(-.3695 -1.1016 .8768 -.4642 154.15 250.35)" height="27.8"/><use x="46.55" y="138.5" xlink:href="#g" width="53.55" transform="translate(-38.85 -125.85)" height="76.15"/><use x="-80.511" y="-93.724" xlink:href="#h" width="102.95" transform="matrix(1.8072 0 0 1.6538 83 152.3)" height="45"/></g></svg>