<svg width="293" height="246" xmlns="http://www.w3.org/2000/svg" xmlns:xlink="http://www.w3.org/1999/xlink"><defs><radialGradient spreadMethod="pad" r="819.2" id="e" gradientUnits="userSpaceOnUse" gradientTransform="translate(74.6 -46.15) scale(.0488)" cy="0" cx="0"><stop stop-color="#a57c41" offset="0"/><stop stop-color="#caa975" offset="1"/></radialGradient><radialGradient spreadMethod="pad" r="819.2" id="f" gradientUnits="userSpaceOnUse" gradientTransform="translate(-98.9 -44.5) scale(.0617)" cy="0" cx="0"><stop stop-color="#fbcfa6" offset="0"/><stop stop-color="#fcdfc2" offset="1"/></radialGradient><radialGradient spreadMethod="pad" r="819.2" id="g" gradientUnits="userSpaceOnUse" gradientTransform="translate(-90.3 -8.3) scale(.0633)" cy="0" cx="0"><stop stop-color="#fbcfa6" offset="0"/><stop stop-color="#fcdfc2" offset="1"/></radialGradient><radialGradient spreadMethod="pad" r="819.2" id="h" gradientUnits="userSpaceOnUse" gradientTransform="translate(-80.3 27.55) scale(.0583)" cy="0" cx="0"><stop stop-color="#fbcfa6" offset="0"/><stop stop-color="#fcdfc2" offset="1"/></radialGradient><path fill-rule="evenodd" fill="#f9922b" d="M34.65-50.25Q55-37.1 78.35-18.4q1.2-8.2-3.7-19.2Q82-33.2 86.7-20.75q2.8 7.45 4.6 17.8L91.65-1l.65 4.45q-2.25 10.3-9.5 19.45 10.5-8.55 15.55-17.1.9 4.05 1.2 8.1 1.6 19.35-9.45 38.7l-1.75 3.35q-2 3.3-5.15 6.65-4.05 4.2-9.95 8.5l.95-5.8.25-2.9q-.1-1.35-4.85 0-10.2 7.65-18.5 16.45l-.8.85-4 4.5q2.2-13.1-.5-26.8-5.3-10.1-18.95-19.25l-4.4-2.8-16.1 3.4-.05.05-10.95 9.6-6.55 3.85-3.75-4.1-.45-.55-1.15-1.35-2.95-3.85-2.8-4.15-2.6 5-1.7 3.75v.05q-5.45 13.1-5.4 27.25l.05 2.5Q-46.2 71.05-56.4 63.9l-5.3-4-1.7-4.2q-7.05-18.25-9.95-36.4l-.4-2.95q2.35 3.15 5.35 6.05l3.55 3.1 16.45 4.25h.05q.05-9.4-1.55-19.3l-.3-1.95q-1.25-7.05-3.3-14.35l-2.55-8.35q4.7 3.3 8.5 6.7-11.7-36.45-47.35-71.85l-4.85-4.7 5.3-.1q24.35.15 48.7 11.45l2 .9h8.4l-16.6-9.15q20.7-2.5 49.75 10.35 14.6 6.45 31.35 16.85l5.5 3.5" transform="translate(99.75 84.15)" id="a"/><path fill-rule="evenodd" fill="#fa6230" d="m150.85-127.15 1.4 2.2 1.9 3.6.2.5 1.5 4q1.05 3.4 1.35 7 .35 4.2-.25 8.65-.6 3.75-1.85 7.75l-.1.2-.55 1.65q-3.2 3.2-12.65 5.2l-8.25-2.9 2.6-1.55q1.95-6.25 2.25-12.85v-.8q.15-8.05-2.25-16.65l-5-4.15q.2-1.6 4.65-3.9l1.8-.15.3-.05q6.5-.35 12.95 2.25m-106.7 10.3.25.15-1.15-.65.9.5m26.9 7.4.3 2.45v6.6q-.65 7.95-4.65 15.55l-3.25 5.3-2.1 2.8-2.35 2.8q-2.95 3.4-6.65 6.7-25.8 20.3-52.1 8.45-2.8-1.3-5.55-2.9-6.2 18.55-25.2 21.95l-15.1.45q2.05-4.05 3.4-7.25 1.5-3.8 2.15-6.45 18.85-5.9 18.85-15.75 0-6.35-1-9.85l-.05-.3q-1.1-3.7-3.3-4.15 6.2-9.65 8.55-20.4l5.9 2.45q3.5-6.15 8.1-11.55Q9.6-127.4 30.35-137.1q12.4-2.9 21.25.7 5.8 2.35 10.05 7.5 4.7 6.15 6.9 10l.85 2.4q1.1 3.55 1.65 7.05m-30.8 75.8q16.2 10.55 17.45 21.1L35.8-3.8l-.2.2-.1.25.1.25Q46 15.05 48.7 33.15v6.75q.7 3.85.25 5.9-.4 1.65-1.6 2.05l-.3.25q-.1.15-.05.3l-.45.05-.8.1-.1-.3q-.15-.15-.35-.15l-.3.1-.55.5q-3.7 3.4-2.5 7.35l.05.2.6.8q3.2 4.2 4.05 6.6.35 1.1.15 1.8l-.9.7q-.2 0-.25.2l-.1.3-9.75 1.65-.8.1-6.85.9-2.6.25q3.35-.45-3.05-7.05L18.9 59l-.3-.7q-2.2-5.3.3-7.15l3.4-.2 1.5-1.3.3-.35.1-.15q.9-1.5.7-3.4Q22.15 25.6 13.8 4.1l-20.75 8.5-7.7-5.2-3.3-3.95-.15-.15-.45-.55-.1-.5-.3.1-1.5.2q-6.2-.95-4.5-4.65l.15-.05 3.1-1.35 7-3.3q-14.75-4.45-19-15 20.95-5.25 29.4-11.95l.05.05 13.2 10.75.05.05 6.8 4.25.35.05.3-.2.05-.4-.05-.1 23.7-14.5.1.15m149.4-94.25 2.4.15h.2q9.35.6 14.7 2.75 1.4 2.9 2.4 5.75l1.6 5.25q1.1 4.5 1.25 8.8v1.55l-.3 4.5q-.45 3.05-1.35 6L193.8-88.7l-5.45-2.15 1.5-3.4 1.45-4.1q1.5-5.05 1.75-10.1v-2.2l-.3-1.05-.2-.65q-1.55-4.55-3.45-7.7-1.75-2.9-3.75-4.55l-.4-.35 4.7-2.95M17.4 83.55q.95-2.05 2.05-3.9l8.75-.4 17.75-2q-2.8 5.85-3.6 8.15-1.55 4.55-2.7 9.35l-1.3 5.95v.05q-3.15 16.8-1.65 36.2-16.15 3.1-30.6-.55h-.05q1.65-26.05 7.55-43.45l2.2-5.9 1.6-3.5M-106.3-53.5l.25 1.9-1.1 1.3-1.6 1.4-1.05.75-1.45.9-.95.5v4.05l.2.6 3.2-1.25 3.55-.7.85 1.2.2.3q2.5 3.25 6.8 6.05-4 .95-5.9 3.25l-.55.85 2.4 5.25h1L-83.2-16l13.85-2.05q.7 5.05-1.5 10.6-1.05 2.55-2.65 5.2-1.65 2.65-3.95 5.5l-.2.2-1.75 2.05-.35.35-1.1 1.2q-3.15 3.3-7.1 6.7-15.5 10.15-28.85 8.65-12.05-1.3-22.35-12.1l-1.85-3q-1.9-3.35-3.05-6.75-2.15-6.4-1.6-13.05.95-11.45 9.9-23.65 8.4-10.6 20.9-15.05 4.05-1.5 8.55-2.3m-18.8 123.8q.45 1.55.75 3.05l.15 1 .05.35q.55 4.15 0 8.3-.85 5.9-4 11.7-9.45 17.25-13.65 19.3-2.6 1.15-5.6.55-4.25-.85-9.3-5.25l-1.75-1.6q-9.75-9.35-7.4-16.45l.45.6.7.8 1.95 1.85q10.6 8.95 21.5-9.75 3.5-8.45 2.5-15.85l-.25-1.35q-.45-2.1-1.2-4.1l-1.55-3.25-6.25-3.6 2.25-1.75q11 1.2 15.65 4.35 1.45 2.35 2.6 4.7 1.5 3.2 2.4 6.4m-44.65-32.4 3.45-2.25-.45-4.15 2.35-1.65.65-3.05q13.9 12.2 7.1 24.7-3 3.55-8.15 6.95-6.3 4.1-15.75 8.05l-10.05-.5q-5.5-1.05-9.75-3.95l-.25-.15-2.6-2.1q-4.4-4.15-6.6-8.65-2.4-4.75-2.4-9.95l2.7-4.55 1.25 3.35 1.9.95.05.05q7.75 3.45 18.95 2.1 5.25-.65 9.6-1.95 4.5-1.3 8-3.25" transform="translate(212.2 138.4)" id="b"/><path fill-rule="evenodd" fill="#caa975" d="m108.2-138.25 7.95-2.3 6.95 5.75q2.4 8.6 2.25 16.65v.8q-.3 6.6-2.25 12.85l-5.25 3.05-7.55-5.35H96.75l-13.1-3.3q-2.8 1.8-10.2-.35l3.8-1.1.75.05.65-.35 1.1-.4-.75.2-.35-.45-.9.45-1.75.7-2.3.45-.35.1h-.05q-10.65 2.3-13.1 5.4l-1.9-8.65v-6.6l-.3-2.45q-.55-3.5-1.65-7.05l-.85-2.4q-2.2-3.85-6.9-10 8.25-1.45 18.2-1.85 4.45-1.55 10.75-1.55 6.7 0 11.6 5.25l19.05 2.45m32.25-.5 2.05-.2q14.95-1.4 29.4.35l.4.35q2 1.65 3.75 4.55 1.9 3.15 3.45 7.7l.2.65.3 1.05v2.2q-.25 5.05-1.75 10.1l-1.45 4.1-1.5 3.4-33.25-2.6q1.25-4 1.85-7.75.6-4.45.25-8.65-.3-3.6-1.35-7l-1.5-4-.2-.5-1.9-3.6 1.25-.15M50.25-81.5q1.4 6.65 5.1 16.55l1.75 3.55q1.55 1.35 1.55 2.35l-.25 1.2q17 35.95 21.75 71l4.2 3.8-1.75 2.9.25.25-1.3 2.2-.05.05-.05-.1-.25.2 2.3 3-.3.05.05.05.65-.1 1.55 2.1-8.65 8.8q-2.9 1.85-6 3.5-15.7 8.5-36.4 12.8l.25-.55q.35-.9-.15-2.4-.85-2.45-3.85-6.55l-.85-1.1q-.95-3.65 2.75-6.75l.15-.3v-.1l.8-.1.45-.05v.05l.25.3.35.1q.7-.2 1.25-.7.85-.85 1.15-2.5.35-2.2-.3-5.9v-6.65q-1.25-.3-2.35-9.4-1.05-9.1-10.65-26.8l21.7-8.65.25-.2.05-.3Q44.7-37.05 27.7-48.1l-.3-.1-.3.25-.1.35.1.15-23.7 14.5-.15-.2-3.9-1.3-2.8-2.9-13.2-10.75-.4-.1q-.2 0-.3.2l-.1.35.1.25q-8.45 6.7-29.4 11.95 4.25 10.55 19 15-3.5 1.75-7 3.3l-3.1 1.35-.15.05q-1.7 3.7 4.5 4.65l1.5-.2 4.3 5.05 7.7 5.2L.75-9.55q8.35 21.5 11.1 41.65.2 1.9-.7 3.4l-.1.15-.3.35-1.5 1.3-3.4.2q-2.5 1.85-.3 7.15l.3.7 3.6 3.5q6.4 6.6 3.05 7.05h-.1l-7.55.6q-5.1-.25-10.1-3.9l-3.8-3.3-3.95-4.55-4.25-2.35q-4.75-2.8-8.95-6.05V32.7q6.7-5.3 9.35-11.3-6.55-13.65-21.3-28.9l-.2-.2-2.4-2.45-3 .25-3.45-2.3q-6.95 2.35-14.05 4.05-5.3-.2-10.45-1.5-3.25-.8-6.35-2.05l-5.85-9.4q2.2-5.55 1.5-10.6h2.85q8.6-.5 11.6-4.5 5.75-9.6 9.3-16.75l15.1-.45q19-3.4 25.2-21.95 2.75 1.6 5.55 2.9Q13.5-60.6 39.3-80.9q3.7-3.3 6.65-6.7L49.5-90q-.35 3.25.75 8.5m147.85-59.25 5.4 10.35.15 2.4-.05 2.3-.15 2.7q-.55 5.9-2.65 12.1-1.4 4.1-3.45 8.3l-1.7 3.3-5.1-2.5-1.4-2.75 8.35-2.25q.9-2.95 1.35-6l.3-4.5v-1.55q-.15-4.3-1.25-8.8l-1.6-5.25q-1-2.85-2.4-5.75l4.2-2.1M83.25 36.55l6.95 6.2 1.55 5.1.35 1.1 4.6 14.85 1.5 4.8-.15.1 1.05 4.05 6.2 21.65q7.6 29.25 8.35 51.55H-63.1l.85-6.8 4.7-17.6q2.8-10.6 5.2-17.9 6.7-20.55 16.7-36.35l12-9.7q3.8 6.3 12.9 8.1l2.15.1 1.05.05.85.05q6.65.25 13.1.1-1.1 1.85-2.05 3.9l-1.6 3.5q-1.2 2.8-2.2 5.9-5.9 17.4-7.55 43.45l-.3.05-.25.35.05.35.35.25q14.8 3.7 31.4.4l.3-.15-.4-9.65q-.5-9.5 2.05-26.8l.05-.25q.55-3 1.25-5.85v-.1q1.1-4.55 2.55-8.85v-.05l.2-.6.05-.15q.75-2.2 1.65-4.35l1.55-3.7.1-.3Q59.15 58.9 80.55 47.1l3.2-8.25q.15-.9-.2-1.75l-.3-.55M-92.8-7.8l.3.25q-2.9 37.4-18.25 70.2-8.85 18.9-21.85 36.25-9.35 8.75-18.65 3.85l-3.6-2.4q4.2-2.05 13.65-19.3 3.15-5.8 4-11.7.55-4.15 0-8.3l2.15 3.35-2.45-11.7-3.05-2.45-2.6-4.7q11.45-15.35 13.1-30.1.35-3.35.2-6.7Q-116.5 10.25-101 .1q3.95-3.4 7.1-6.7l1.1-1.2m78.55 35.4-.2-.5-.25.25.45.25m-99.45 12.75-.05-.2-.1.6.15-.4m-38.35 13.55.25 1.35q1 7.4-2.5 15.85-10.9 18.7-21.5 9.75l-1.95-1.85-.7-.8-.45-.6q-13.25-10-21.7-21l-3.05-4.25 10.05.5q9.45-3.95 15.75-8.05 5.15-3.4 8.15-6.95l14.9 8.7 1.55 3.25q.75 2 1.2 4.1" transform="translate(203.65 145.95)" id="c"/><path fill-rule="evenodd" fill-opacity="0" fill="#f0f" d="M0 0h102.95v45H0V0" id="d"/><use xlink:href="#a" width="199.5" height="168.35" id="k"/><use xlink:href="#b" width="424.4" height="276.75" id="l"/><use xlink:href="#c" width="407.3" height="291.9" id="m"/><use xlink:href="#d" width="102.95" height="45" id="o"/><g id="i" stroke-opacity="0" stroke-linejoin="round" stroke-linecap="round" stroke="#f0f" fill="none"><path d="M187.95-293.5v380h-380v-380h380M92.95.6H-97" transform="translate(192.55 294)"/><path d="m187.95-293.5-190 190 190 190m-380-380 190 190L-192 86.5" transform="translate(192.55 294)"/></g><g id="j" stroke-linejoin="round" stroke-linecap="round" stroke="#4f4635" fill="none"><path stroke-width="5" d="m375 134.05 1.4 2.2 3.3-.35q14.95-1.4 29.4.35l4.7-2.95q11.25.45 17.3 2.9l4.2-2.1 2.7 5.15 5 .65q15.45 1.7 23.75-.65h6.4l2 3.05h5.3l1.75 3.5 4 3.55.15.15q2.75 4.9 15.8 12.6l3.35 6.75-12.6 22.65-4.7 3.65-9.1-5.3-4.85 6.05-7.35 5q-3.4-4.15-11.2-8.3-.75-.45-1.55-.85-12.05-4.85-17-11.4l-2.6-8.1-1.7 3.3-5.1-2.5-1.4-2.8-8.4 2.25-5.45-2.15-33.25-2.6-.65 1.85q-3.2 3.2-12.65 5.2l-8.25-2.9-2.65 1.5-7.55-5.35h-13.55l-13.1-3.3q-2.8 1.8-10.2-.35l4.45-1.25-1.9.35-2.3.45-.35.1h-.05q-10.65 2.3-13.1 5.4l-4.5 9.7-6.2 5.7q-.75 7.35 5.85 25.05 19.95 39.6 25.2 78.1l4.2 3.8-3.25 5.4 3.95 5.2-5.75 5.8 10.5 9.4 8 25.85q4.65 15.1 7.5 25.8 7.6 29.25 8.35 51.55H174.1l.85-6.8 4.7-17.6q2.8-10.6 5.2-17.9 6.7-20.55 16.7-36.35l12-9.7q-1.75-2.8-2.4-6.45 1.8-5.15 8.8-8.75-4.75-2.8-8.95-6.05v-3.65q6.7-5.3 9.35-11.3-7.1-14.8-23.9-31.55l-3 .25-3.45-2.3q-6.95 2.35-14.05 4.05-5.3-.2-10.45-1.5-1.4 6.3-7.85 8.8-7.55-3.75-10.45-8.7l-.5-.85-.2.2-1.75 2.05-.05.6q-4.55 59-40.1 106.45-11.15 10.45-22.25 1.45-6.9 3.05-16.65-6.3-9.75-9.35-7.4-16.45-15.8-11.9-24.75-25.25-7.4-1.4-12.6-6.2-4.4-4.15-6.6-8.65-2.4-4.75-2.4-9.95l2.7-4.55-2.4-6.25-6.9-11.85L2.5 260.9q6.2-8.05 6.9-10.9l-3.15-9.05q.2-1.5 1-2.95 1.5-2.9 5.4-5.5l12.65-12.65q6.3-2.9 10.35-1.95l5.4 6.65 2.55-1.05h6.7l8.8 7.95 4.8 1.05.25.4 3.35-2.15 6.2 8.25-3.2 13.45-5.1 4.95v6.25l-5 24.35q13.9 12.2 7.1 24.7l8.65 5.1 2.25-1.75q11 1.2 15.65 4.35 11.45-15.35 13.1-30.1.35-3.35.2-6.7Q95.3 282.3 85 271.5l-1.85-3q-5.5-9.6-4.65-19.8.95-11.45 9.9-23.65 8.4-10.6 20.9-15.05 4.05-1.5 8.55-2.3l-.25-1.5q-1.2-5.65-4.55-10.9l-3.95-3.05-.05-6.05q-.2-4.45-.85-8.9l-.05-.4-.05-.4q-1.15-6.25-6.15-13.05-14.25-5.75-24.45-12.9-2.8-1.95-5.3-4-9.05-21.8-12.05-43.55 2.35 3.15 5.35 6.05l3.55 3.1 16.5 4.25q.05-17.05-5.15-35.6l-2.55-8.35q4.7 3.3 8.5 6.7Q74.65 42.7 39 7.3l-4.85-4.7q28-1.2 56 12.25h8.4L81.95 5.7q20.7-2.5 49.75 10.35 17 7.55 36.85 20.35 20.35 13.15 43.7 31.85 1.2-8.2-3.7-19.2 7.35 4.4 12.05 16.85 3.6 9.65 5.6 24.2-2.25 10.3-9.5 19.45 10.5-8.55 15.55-17.1 5.1 23.4-8.25 46.8-4 9.25-16.85 18.5l5.9 2.45q13.15-22.85 41.45-36.1 12.4-2.9 21.25.7 5.8 2.35 10.05 7.5l18.2-1.85q4.45-1.55 10.75-1.55 6.7 0 11.6 5.25l19.05 2.45 7.95-2.3 1.95 1.6q.2-1.6 4.65-3.9 7.5-.95 15.05 2.05m-59.9 29.1 1.85-.55-1.1.4-.65.35-.1-.2m-28.4 21.7q.15-1.95.9-3.2l-2.1 2.8-2.35 2.8 3.55-2.4"/><path stroke-width="3.25" d="M295.5 154.4v6.4m-183.55 57.7 3.4-.65-3.2 1.25-.2-.6m93.25 45.05.3-.1.1.5-.4-.4"/></g><g id="n"><path fill-rule="evenodd" fill="url(#e)" d="m67.9-40.15-1.1.35-1.9.35q.9-.3 1.75-.7l.9-.45.35.45" transform="translate(246.15 200.8)"/><path fill-rule="evenodd" fill="#ba8950" d="m-25.8 99.25.25-.25.2.5q-.25-.15-.45-.25" transform="translate(246.15 200.8)"/><path fill-rule="evenodd" fill="#222d37" d="m47.2-42.15 1.9 8.65-4.5 9.7-6.2 5.7-3.55 2.4 2.35-2.8 2.1-2.8 3.25-5.3q4-7.6 4.65-15.55M-95 50.8l5.85 9.4 6.35 2.05q-1.4 6.3-7.85 8.8-7.55-3.75-10.45-8.7l-.5-.85 3.95-5.5q1.6-2.65 2.65-5.2" transform="translate(246.15 200.8)"/><path fill-rule="evenodd" fill="#caa975" d="m66.8-39.8.1.2-.75-.05.65-.15M-103.55 63.75l-.05.6-.3-.25.35-.35" transform="translate(246.15 200.8)"/><path fill-rule="evenodd" fill="#fff" d="m-95.75 16.2-1.05-1.6 2.3-3.15 4.5 2.65q.8 5.5-2 9.55-1.65 1.6-2.3.75.85-4.1-1.45-8.2m-25.15 9.75-2.5-.35 2.7-3.3q10.65.6 24.65-2.15.1 4-1.9 7.1-11.6-2.1-22.95-1.3m-4.05 86.7.1-.6.05.2-.15.4" transform="translate(246.15 200.8)"/><path fill-rule="evenodd" fill="#fde4ce" d="m209.9-52.55-.15-.2-2.45-2.8 9.35-.55 8.8 3-15.55.55" transform="translate(246.15 200.8)"/><path fill-rule="evenodd" fill="#fcdfc2" d="m209.9-52.55 15.55-.55-8.8-3-9.35.55 2.45 2.8.15.2m-15.2-10.5q15.45 1.7 23.75-.65h6.4l2 3.05h5.3l.3.55-7.6 2.95h9.05l2.55 2.25L226-47.4 203.9-50l-9.2-13.05m32.15 2.4h-3.7 3.7m-2 3.5H222h2.85m-340.5 38.65q.9 1.6 3 2.25l-1.4.8-1.6-3.05m-68.5 48.45-7.6 4.95h-4.75 4.75l7.6-4.95 3.35-2.15 3.05 4.1-11.85 10.9-15.7 2.9-4.95-2.3h-6.4l-11.25-5.9-6 3.25-7.15-5.7q1.5-2.9 5.4-5.5L-223 16.9q6.3-2.9 10.35-1.95l5.4 6.65 2.55-1.05h6.7l8.8 7.95 4.8 1.05.25.4m-30.35 2.3h7.15L-194 27.4l4.8 1.1-4.8-1.1-13.35 4.85h-7.15m7.7-10.2-.45-.45.45.45m-12.05 6.15h-4.35l15.95-6.6-15.95 6.6h4.35m-4.35 0h-4.35 4.35" transform="translate(246.15 200.8)"/><path fill-rule="evenodd" fill="#cc875e" d="m232.45-60.1 1.45 2.95h-9.05l7.6-2.95m4 5.2 1.45 1.3.15.15q2.75 4.9 15.8 12.6l3.35 6.75-12.6 22.65-.2.15-.65-2.75L250.8-29l-4.05-3.75-14.1.65-11.75 5.15 3.2 3.85-.6.4 1.4 1.35.1 7.35-4.7 6.6-2 .1-5.25-7.1-13.45-5.95-4.5-4 4.65-6.7-.85-13.1-6.4-9.65.05-2.3-.15-2.4-2.7-5.2 5 .65L203.9-50l22.1 2.6 10.45-7.5m4.2 6.4-2.6-4.95 2.6 4.95" transform="translate(246.15 200.8)"/><path fill-rule="evenodd" fill="#c27241" d="m244.4-11.3-4.5 3.5-9.1-5.3-4.85 6.05-7.35 5q-2.05-2.5-5.65-4.95-2.4-1.7-5.55-3.35-.75-.45-1.55-.85-12.05-4.85-17-11.4l-2.6-8.1q2.05-4.2 3.45-8.3 2.1-6.2 2.65-12.1l.15-2.7 6.4 9.65.85 13.1-4.65 6.7 4.5 4 13.45 5.95 5.25 7.1 2-.1L225-14l-.1-7.35-1.4-1.35.6-.4-3.2-3.85 11.75-5.15 14.1-.65L250.8-29l-7.05 14.95.65 2.75m-19.5-10.05.6.6 2.35 2.15-2.35-2.15-.6-.6m18.75-6.8-7.75.3-2.25.5q-5 1.25-9.55 4.25 4.55-3 9.55-4.25l2.25-.5 7.75-.3m-18.15 7.4 5.55-.3-5.55.3M242-18q2.8-6.75-6.1-9.85 8.9 3.1 6.1 9.85m-8.35-9.35q1.8 4.95 0 10.7l-2.85 3.55 2.85-3.55q1.8-5.75 0-10.7m-409.55 68.8-1.9 8.05-5.1 4.95v6.25l-5 24.35-.65 3.05-2.35 1.65.45 4.15q-1.6 1.2-3.45 2.25-3.5 1.95-8 3.25-4.35 1.3-9.6 1.95-11.2 1.35-18.95-2.1l-.05-.05-1.9-.95-1.25-3.35-2.4-6.25-4.75-8.15 7.7 8.65 12.6 4.1 8.75-1.4 19.25-12.45 4.05-32.1 8.7-6.55.2.05 3.65.65m-21.5 52.8 6.5-4.5-6.5 4.5m-41.15-45.6.85 3.75v7.5l-2.9-2.75-.15-.15 2.2-8.35m39.25 46q-5.75.15-6.4-5.6.65 5.75 6.4 5.6m16.4-40.2 2.45-6.3-2.45 6.3" transform="translate(246.15 200.8)"/><path fill-rule="evenodd" fill="#500" d="m16.1 24.6-.1-.15-.1-.15.1-.35q.1-.2.3-.25l.3.1q17 11.05 17.95 22.2l-.05.3-.25.2-21.7 8.65q9.6 17.7 10.65 26.8 1.1 9.1 2.35 9.4V98q.65 3.7.3 5.9-.3 1.65-1.15 2.5l-1.25.7-.35-.1-.25-.3v-.05l.05-.3.3-.25q1.2-.4 1.6-2.05.45-2.05-.25-5.9V91.4q-2.7-18.1-13.1-36.25l-.1-.25.1-.25.2-.2 21.9-8.75Q32.3 35.15 16.1 24.6m7.2 99.95q-.45.55-1.3.75h-.4l-.2-.3v-.1l.1-.3.25-.2q.7-.2.9-.7.2-.7-.15-1.8-.85-2.4-4.05-6.6l-.6-.8-.05-.2q-1.2-3.95 2.5-7.35l.55-.5.3-.1q.2 0 .35.15l.1.3v.1l-.15.3q-3.7 3.1-2.75 6.75l.85 1.1q3 4.1 3.85 6.55.5 1.5.15 2.4l-.25.55m-1.85 10.9.15-.3.25-.3.35.05.25.25.05.1-.1.3-1.55 3.7-1.65 4.35-.05.15-.2.6v.05q-1.45 4.3-2.55 8.85v.1q-.7 2.85-1.25 5.85l-.05.25q-2.55 17.3-2.05 26.8l.4 9.65-.3.15q-16.6 3.3-31.4-.4l-.35-.25-.05-.35.25-.35.3-.05h.05q14.45 3.65 30.6.55-1.5-19.4 1.65-36.2v-.05l1.3-5.95q1.15-4.8 2.7-9.35l1.65-4.5 1.6-3.7m-29.3-96.7.15.2.05.1-.05.4-.3.2-.35-.05-3.4-2.15 3.9 1.3m-20.55-14.2-.05-.05-.1-.25.1-.35q.1-.2.3-.2l.4.1 13.2 10.75 2.8 2.9-3.4-2.1-.05-.05-13.2-10.75" transform="translate(246.15 200.8)"/><path fill-rule="evenodd" fill="#354555" d="m68.6 105.25.3.35 3.25 2.85.3.55-5.85-1.65 2-2.1m-56.95 21.3 5.8 2.2 1 2-.1.15-1.55 2.2-11.3 4.3-1.45.1-8.75.4q-6.45.15-13.1-.1l-8.4-3.15-8.25-8.45-1.2-6.05q1.05-1.5 2.7-2.85l12.8 3.9 3.8 3.3q-4.65-2.4-13.15-.25-.45 4.8 9.5 9.6 12.5 1.55 25.05.05l4.9-1.9q.75-4.25-5.95-4.45l6.85-.9.8-.1" transform="translate(246.15 200.8)"/><path fill-rule="evenodd" fill="#242f39" d="M72.45 109q.35.85.2 1.75l-3.2 8.25q-21.4 11.8-46.95 16.25l-.05-.1-.25-.25-.35-.05-.25.3-.15.3L5.5 137.4l11.3-4.3 1.55-2.2.1-.15-1-2-5.8-2.2 9.75-1.65v.1l.2.3h.4q.85-.2 1.3-.75 20.7-4.3 36.4-12.8l6-3.5.9-.9 5.85 1.65m-92.6 12.2-12.8-3.9q1.9-1.6 4.6-3l4.25 2.35 3.95 4.55m-15.5-1.05 1.2 6.05 8.25 8.45 8.4 3.15-.85-.05-1.05-.05-2.15-.1q-9.1-1.8-12.9-8.1-1.75-2.8-2.4-6.45.55-1.55 1.5-2.9" transform="translate(246.15 200.8)"/><path fill-rule="evenodd" fill="#607c99" d="M4 127.55q6.7.2 5.95 4.45l-4.9 1.9q-12.55 1.5-25.05-.05-9.95-4.8-9.5-9.6 8.5-2.15 13.15.25 5 3.65 10.1 3.9l7.55-.6h.1l2.6-.25" transform="translate(246.15 200.8)"/><path fill-rule="evenodd" fill="#b4703d" d="m-146.35-39.5-.05-2.5 5.1 3.1 4.2 4.7-.35 5.85.1 2.55-3.85-4.35q-1.6-4.55-5.15-9.35m105.2-5.7q-2.35 10.75-8.55 20.4-3.15 4.85-7.2 9.45-6.55 0-7.9-3.05-3.95 7.4-3.5 14.25l-1.4-1.6-.45-.2-6.7-2.75-.55-1.3-4.65-.3q7.9-2.5 9.5-4.55l.2-.3-1.55-3.45 1.85 1.95.65-4.4-1.6-6.8-.9.7q2.5-17.4-.5-27.35l-.25-.25q-7-7.25-15.55-14.05l-8.85-.35q-7.95-3.75-19.9 1.35l-.1-.1 10.95-9.6 16.15-3.45 4.4 2.8Q-73.9-69-68.6-58.9q2.7 13.7.5 26.8l-.15.7-.1.1.1.05 2.2.65q9.15-12.25 22.2-21.3l3.65.9q-.35 2.9-.95 5.8m-48.05-.65 4.45-3.75.55-.45q-3.3 9.2-1.95 13.1l-1.7-2.05q-5.7-2.95-12 4.05 3.45-4.1 7.3-7.8l3.35-3.1m-30.35 27.2v-.25q0-2.05-.35-4.1l4 7.05-5.3 2.55-.7-1q1.9-1 2.25-2.6l.1-1.65m57.25-7.1 4.65 2.1 3.7-5.5-.9-5 7.1-11.55q-7.85 5.55-10.7 12.4v5.05l-3.85 2.5-.85.55.85-.55m17.5-21.9-1.4.9-1.55 1.05 1.55-1.05 1.4-.9m-23.8 18.1.35-1.7-.35 1.7" transform="translate(246.15 200.8)"/><path fill-rule="evenodd" fill="#dba374" d="m-139.3-73.05 2.6-5 2.8 4.15 2.95 3.85q-3.8-4.05-8.35-3m75.1 78.3q-.65 2.65-2.15 6.45-1.35 3.2-3.4 7.25-3.55 7.15-9.3 16.75-3 4-11.6 4.5h-2.85l-6.95 1.05L-112.9 33l19.25 5.6 4.75-1.2q10.7-5.65 16.55-19.45-.2-2.5-6.75 2.85l4.2-5.45.6-.8q.35-11.7-2.1-15.2-2-2.8-5.7-.5-1.35 1.2-3.8 2.5l-36.55 11.55-6.95 1.3-3.55.7-3.4.65V14.3l12.7-2.75 31.85-9.8q4-2.85 3.1-5.2l1.6-7.3q-6.05-2.7-19.7-1.5 14.6-4.2 29.25-2.45l1.45-.9q.9-2.2-2.45-3.75l-3.85-.5Q-81.25-30.1-86-36.8l-.15-.15q-1.35-3.9 1.95-13.1l-.55.45-4.45 3.75q-.3-7.75-3.25-12.55l-5 5.25 3.15-7.75q-8.55-9.4-31.3-3.15l6.55-3.85.1.1q11.95-5.1 19.9-1.35l8.85.35q8.55 6.8 15.55 14.05l.25.25q3 9.95.5 27.35l.9-.7 1.6 6.8-.65 4.4-1.85-1.95-.5-1.15.5 1.15 1.55 3.45-.2.3q-1.6 2.05-9.5 4.55l4.65.3.55 1.3 6.7 2.75.45.2 1.4 1.6q2.3 2.9 4.45 7.25l-.35 2.15m-3.9-37.35 4-4.5.8-.85q8.3-8.8 18.5-16.45 4.75-1.35 4.85 0l-.25 2.9-3.65-.9q-13.05 9.05-22.2 21.3l-2.2-.65v-.15.15l-.1-.05.1-.1.15-.7m-13.3-20.05-2.8 2.1 2.8-2.1m-57.85 35.4q-.2-4.45-.85-8.9l-.05-.4-.05-.4q-.35-1.8-1-3.7l3.85 4.35v.25q.4 5.5 2.65 9.45l2.6 2.55h.2q4.95.2 7.15-1.3l-1-2.1-1.5-2.85 4.35 3.25 3.35-2.1-.1 1.65q-.35 1.6-2.25 2.6-.95.5-2.25.85l-.6-1.3.6 1.3q1.3-.35 2.25-.85l.7 1 5.3-2.55-4-7.05-.2-.95q-.4-1.95-1.15-3.8l3.4 5.05q1.7-5.75 4.45-9.8l2.85-1.6q-4.9 7.4-5.9 13.5l.2.25.5 1.75.1.1 1.6 3.05 1.4-.8 2.15-3.75 2.15 3.35 2.75-.95-3.1 3.15-4.85-.05-.5-.95-5.1 2.85q-8.2.65-11.2.1-1.4-.25-1.65-.8l-4.85-2.3-2.4-1.15m58.3 14.05q-.4.75-1.15 1.55.75-.8 1.15-1.55m-42.45 28.3-2.7.05-.3-.15-1.05-.5q1.9-2.3 5.9-3.25l.85.55-2.7 3.3m-54.35 6.3 3.15 4.15-1.3 5.4-3.65-.65-.2-.05-8.7 6.55-4.05 32.1-19.25 12.45-8.75 1.4-12.6-4.1-7.7-8.65-1.25-2.15-.9-1.55-2.85-18.85q6.2-8.05 6.9-10.9l-3.15-9.05q.2-1.5 1-2.95l7.15 5.7 6-3.25 11.25 5.9h6.4l4.95 2.3 15.7-2.9 11.85-10.9m-61.15 15.15.35 1.6-.35-1.6m-1.7 10.1 2.9 2.75v-7.5l-.85-3.75-2.2 8.35.15.15" transform="translate(246.15 200.8)"/><path fill-rule="evenodd" fill="url(#f)" d="M-146.4-42q-.05-14.15 5.4-27.25v-.05q6.1-2.4 11.65 1.15l3.75 4.1q22.75-6.25 31.3 3.15l-3.15 7.75 5-5.25q2.95 4.8 3.25 12.55l-3.35 3.1q-3.85 3.7-7.3 7.8l-.45.55q-5.65 6.7-10.2 14.4l-2.15 3.75q-2.1-.65-3-2.25l-.1-.1-.5-1.75-.2-.25q1-6.1 5.9-13.5l-2.85 1.6q-2.75 4.05-4.45 9.8l-3.4-5.05q.75 1.85 1.15 3.8l.2.95q.35 2.05.35 4.1v.25l-3.35 2.1-4.35-3.25q-4.05-7.45-9.85-14.4l-4.2-4.7-5.1-3.1m21.4 7.5-4.25-11.35q-.7 2.4-3.9 2.2 3.75 1.85 8.15 9.15" transform="translate(246.15 200.8)"/><path fill-rule="evenodd" fill="#fbd6b3" d="m-141-69.3 1.7-3.75q4.55-1.05 8.35 3l1.15 1.35.45.55Q-134.9-71.7-141-69.3" transform="translate(246.15 200.8)"/><path fill-rule="evenodd" fill="#e6cea7" d="m-137.45-28.35.35-5.85q5.8 6.95 9.85 14.4l1.5 2.85q-7.25-9.05-11.7-11.4M-110.5-20q4.55-7.7 10.2-14.4l.45-.55q6.3-7 12-4.05l1.7 2.05.15.15q4.75 6.7 3.6 16.95l-4.05-.25-.7-.05Q-85-31.65-91.1-35.3q-11.85 7.45-12.5 14.7.6 1.35 9.1.75-4.45.45-8.8 1.65l-2.3.6-2.75.95-2.15-3.35" transform="translate(246.15 200.8)"/><path fill-rule="evenodd" fill="#fff7e6" d="m-137.35-25.8-.1-2.55q4.45 2.35 11.7 11.4l1 2.1q-2.2 1.5-7.15 1.3h-.2l-2.6-2.55q-2.25-3.95-2.65-9.45v-.25m50.2 5.65-5.7.2-1.1.05-.55.05q-8.5.6-9.1-.75.65-7.25 12.5-14.7 6.1 3.65 3.95 15.15" transform="translate(246.15 200.8)"/><path fill-rule="evenodd" fill="#f9c48e" d="M-125-34.5q-4.4-7.3-8.15-9.15 3.2.2 3.9-2.2L-125-34.5" transform="translate(246.15 200.8)"/><path fill-rule="evenodd" fill="url(#g)" d="m-136.85-15.6 4.85 2.3q.25.55 1.65.8 3 .55 11.2-.1l5.1-2.85.5.95 4.85.05 3.1-3.15 2.3-.6q4.35-1.2 8.8-1.65l.55-.05 1.1-.05 5.7-.2.7.05 4.05.25 3.85.5q3.35 1.55 2.45 3.75l-1.45.9q-14.65-1.75-29.25 2.45 13.65-1.2 19.7 1.5l-1.6 7.3q.9 2.35-3.1 5.2l-31.85 9.8-12.7 2.75v-2.8l.95-.5 3.65.7.25-.2q6.95-4.8 6.15-10.1l-.1-.55q-1.7-6.9-5.45-9.3l-4.9-2.35-.2-.15-.85-4.65" transform="translate(246.15 200.8)"/><path fill-rule="evenodd" fill="#fdecdb" d="m-136.85-15.6.85 4.65.2.15 4.9 2.35q3.75 2.4 5.45 9.3l.1.55q.8 5.3-6.15 10.1l-.25.2-3.65-.7 1.45-.9 1.05-.75 1.6-1.4 1.1-1.3-.25-1.9-.25-1.5q-1.2-5.65-4.55-10.9l-3.95-3.05-.05-6.05 2.4 1.15m5.6 11-4-3.05 4 3.05m2.8 6.75-.35 1.7q-.5 1.45-1.4 2.8.9-1.35 1.4-2.8l.35-1.7" transform="translate(246.15 200.8)"/><path fill-rule="evenodd" fill="#955b31" d="M-49.7-24.8q2.2.45 3.3 4.15l.05.3q1 3.5 1 9.85 0 9.85-18.85 15.75l.35-2.15Q-66-1.25-68.3-4.15q-.45-6.85 3.5-14.25 1.35 3.05 7.9 3.05 4.05-4.6 7.2-9.45m1.95-20.9-7.1 11.55.9 5-3.7 5.5-4.65-2.1 3.85-2.5v-5.05q2.85-6.85 10.7-12.4" transform="translate(246.15 200.8)"/><path fill-rule="evenodd" fill="#cdbd94" d="m-129.4 14.2 6.95-1.3L-85.9 1.35q2.45-1.3 3.8-2.5 3.7-2.3 5.7.5l-.05 3.55-2.7 7.85-.45 1.15-3.75 1.85 2.45-7.7-.55-3-41.85 13.7-5.05-1.05-.2-.3-.85-1.2m54.5 1.15-4.2 5.45q-2.85 3.5-5.25 6.05-4.35 4.55-7.25 5.7l-1.85.4-7.65-2.2 11.8-1.3 4.05-4.8 9.4-11.3.95 2" transform="translate(246.15 200.8)"/><path fill-rule="evenodd" fill="#dbceb1" d="m-128.35 15.7 5.05 1.05 41.85-13.7.55 3-2.45 7.7 3.75-1.85.45-1.15 3.2 2.4.05.05.05.15-9.4 11.3q-1.55-1.8-5.45-.25-2.95 1.35-3.6 0 .65.85 2.3-.75 2.8-4.05 2-9.55l-4.5-2.65-2.3 3.15 1.05 1.6-5.25 1.7-8.4 2.2-11.2 2.15-.1.05-.85-.55q-4.3-2.8-6.8-6.05m45-1.95-.3.15-7.05 10.5 7.05-10.5.3-.15" transform="translate(246.15 200.8)"/><path fill-rule="evenodd" fill="#80352b" d="m-79.15 10.75 2.7-7.85.05-3.55q2.45 3.5 2.1 15.2l-.6.8-.95-2-.05-.15-.05-.05-3.2-2.4" transform="translate(246.15 200.8)"/><path fill-rule="evenodd" fill="url(#h)" d="M-79.1 20.8q6.55-5.35 6.75-2.85-5.85 13.8-16.55 19.45l-4.75 1.2-19.25-5.6 12.45 8.25-6.9 1-5.2-3.3-12.05-7.85h-1L-127 28l-1-2.15.55-.85 1.05.5.3.15 2.7-.05 2.5.35 1.6.3q5.1.95 13.7 3.3l4.2 1.15.3.05 7.65 2.2 1.85-.4q2.9-1.15 7.25-5.7 2.4-2.55 5.25-6.05" transform="translate(246.15 200.8)"/><path fill-rule="evenodd" fill="#fff3d9" d="m-120.7 22.3.1-.05 11.2-2.15 8.4-2.2 5.25-1.7q2.3 4.1 1.45 8.2.65 1.35 3.6 0 3.9-1.55 5.45.25l-4.05 4.8-11.8 1.3-.3-.05-4.2-1.15q-8.6-2.35-13.7-3.3l-1.6-.3q11.35-.8 22.95 1.3 2-3.1 1.9-7.1-14 2.75-24.65 2.15" transform="translate(246.15 200.8)"/><path fill-rule="evenodd" fill="#ac854b" d="m-151.65 122.15 3.05 2.45 2.45 11.7-2.15-3.35-.05-.35-.15-1q-.3-1.5-.75-3.05-.9-3.2-2.4-6.4" transform="translate(246.15 200.8)"/><path stroke-width=".75" stroke-opacity=".651" stroke-linejoin="round" stroke-linecap="round" stroke="#261e15" fill="none" d="M328.45 138.1q-1.95-3.65-4.25-6.1-4.9-5.25-11.6-5.25-6.3 0-10.75 1.55l-18.2 1.85q4.7 6.15 6.9 10l.85 2.4q1.1 3.55 1.65 7.05l.3 2.45v6.6l1.9 8.65q2.45-3.1 13.1-5.4h.05l.35-.1M205 155.6l5.9 2.45q3.5-6.15 8.1-11.55 12.6-14.85 33.35-24.55 12.4-2.9 21.25.7 5.8 2.35 10.05 7.5m.9 52.55q-.35 3.25.75 8.5 1.4 6.65 5.1 16.55l2.1 4.3q18.15 37.4 23.1 73.8l4.2 3.8-2.8 4.65m-140.6-74.55 15.1-.45q19-3.4 25.2-21.95 2.75 1.6 5.55 2.9 26.3 11.85 52.1-8.45 3.7-3.3 6.65-6.7l2.35-2.8 2.1-2.8 3.25-5.3q4-7.6 4.65-15.55M281 185.1l3.55-2.4 6.2-5.7 4.5-9.7m17.05-6.15-3.8 1.1q7.4 2.15 10.2.35 4.25-2.85 6.35-5.9m-12.1 4.3.75-.15.35-.2-1.1.35-.65.15.75.05.65-.35 1.1-.4-.75.2m-3 .7 1.9-.35m9.05-11.2q2.95 5.05-7.95 10.85m100.5-13.95q-1.55-4.55-3.45-7.7-1.75-2.9-3.75-4.55l-.4-.35q-14.45-1.75-29.4-.35l-2.05.2-1.25.15 1.9 3.6m-1.9-3.6-1.4-2.2q-6.45-2.6-13.25-2.2l-1.8.15q-4.45 2.3-4.65 3.9l5 4.15q2.4 8.6 2.25 16.65v.8q-.3 6.6-2.25 12.85l-2.6 1.55 8.25 2.9q9.45-2 12.65-5.2l.55-1.65.1-.2q1.25-4 1.85-7.75.6-4.45.25-8.65-.3-3.6-1.35-7l-1.5-4M324.2 132l19.05 2.45 7.95-2.3 1.95 1.6m2.4 36-2.65 1.5-7.55-5.35H331.8l-13.1-3.3m122.15-24.85q15.45 1.7 23.75-.65h6.4l2 3.05h5.3l.3.55 1.45 2.95 2.55 2.25 1.45 1.3.15.15q2.75 4.9 15.8 12.6l3.35 6.75-12.6 22.65-.2.15-4.5 3.5-9.1-5.3-4.85 6.05-7.35 5q-2.05-2.5-5.65-4.95-2.4-1.7-5.55-3.35-.75-.45-1.55-.85-12.05-4.85-17-11.4l-2.6-8.1-1.7 3.3-5.1-2.5-1.4-2.75m45.1-28h3.7m-2 3.5h9.05m-11.9 0H471m-64.05-9.55 4.7-2.95 2.6.15q9.35.6 14.7 2.75l4.2-2.1 2.7 5.15 5 .65M377.1 165.6l33.25 2.6 1.5-3.4 1.45-4.1q1.5-5.05 1.75-10.1v-2.2l-.3-1.05m17.8 18.55q.9-2.95 1.35-6l.3-4.5v-1.55q-.15-4.3-1.25-8.8l-1.6-5.25q-1-2.85-2.4-5.75m6.9 3.05 2.7 5.2.15 2.4-.05 2.3-.15 2.7q-.55 5.9-2.65 12.1-1.4 4.1-3.45 8.3m38.65 9.35-1.4-1.35.6-.4q4.55-3 9.55-4.25l2.25-.5 7.75-.3m-74-2.3-5.45-2.15m63.65 14-2.35-2.15-.6-.6m5.9 8.25 2.85-3.55q1.8-5.75 0-10.7m2.25-.5q8.9 3.1 6.1 9.85m-3.95-35.45 2.6 4.95M316.75 294.7l-.15.3-.05.05 3.95 5.2-5.75 5.8m.3.35q2.35 1.4 3.25 2.85l.75.65m-50.4 26.15q25.55-4.45 46.95-16.25l3.2-8.25q.15-.9-.2-1.75l-.3-.55-3.25-2.85m-2.3 1.75-.9.9-6 3.5q-15.7 8.5-36.4 12.8m-1.9.35-9.75 1.65m-6.15 10.85 15.95-1.95m45.15-28.1 2-2.1m4.5 4.05 6 5.35 1.55 5.1m-55.95-13.35 12-1.75 14.65-2.35m-67.7 22.2L226 322l-3.95-4.55-4.25-2.35q-2.7 1.4-4.6 3-1.65 1.35-2.7 2.85m17.85 17.65q6.65.25 13.1.1l8.75-.4 1.45-.1m-21.85-12.9q5 3.65 10.1 3.9l7.55-.6h.1l2.6-.25 6.85-.9m-36.65-27.4-3.65 3.4 13.6 6.4 10.6.35 3.4-.2 10-.85 12.15-1.4m60.7 13.9 4.6 14.85 1.5 4.8q4.65 15.1 7.5 25.8 7.6 29.25 8.35 51.55h-47.5m-223.35-340L75.7 70.3q4.7 3.3 8.5 6.7Q72.5 40.55 36.85 5.15L32 .45l5.3-.1Q61.65.5 86 11.8l2 .9h8.4L79.8 3.55q20.7-2.5 49.75 10.35 14.6 6.45 31.35 16.85l5.5 3.5q20.35 13.15 43.7 31.85 1.2-8.2-3.7-19.2 7.35 4.4 12.05 16.85 2.8 7.45 4.6 17.8M74.75 115.4q-4.3-2.5-7.85-5.4l-3.55-3.1q-3-2.9-5.35-6.05l.4 2.95q2.9 18.15 9.95 36.4l1.7 4.2q2.5 2.05 5.3 4 10.2 7.15 24.45 12.9l-.05-2.5q-.05-14.15 5.4-27.25m0-.05 1.7-3.75 2.6-5q-3.05-4.9-5.2-10l-1.65-4.4M66.9 110l16.05 4.15q.5-9.3-1.1-19.2M223.4 83.5l.65 4.45q-2.25 10.3-9.5 19.45 10.5-8.55 15.55-17.1.9 4.05 1.2 8.1 1.6 19.35-9.45 38.7l-1.75 3.35q-2 3.3-5.15 6.65-4.05 4.2-9.95 8.5-2.35 10.75-8.55 20.4 2.2.45 3.3 4.15m.05.3q1 3.5 1 9.85 0 9.85-18.85 15.75-.65 2.65-2.15 6.45-1.35 3.2-3.4 7.25-3.55 7.15-9.3 16.75-3 4-11.6 4.5h-2.85q.7 5.05-1.5 10.6L157 261l6.35 2.05q5.15 1.3 10.45 1.5 7.1-1.7 14.05-4.05l9.2-3.55.15-.05 3.1-1.35 7-3.3M88 12.7l6.15 3.1M89.1 81.95q3.95 4.45 6.3 9.15 1.05 2.05 1.75 4.15m57.05 24.6 4.4 2.8q13.65 9.15 18.95 19.25 2.7 13.7.5 26.8l4-4.5m.8-.85q8.3-8.8 18.5-16.45 4.75-1.35 4.85 0l-.25 2.9q-.35 2.9-.95 5.8m-77.9-22.7-6.55 3.85m36.4 18.2 4.45-3.75.55-.45 2.8-2.1m-10.55-28.8-16.15 3.45m-28.6-.55 2.8 4.15 2.95 3.85m1.15 1.35.45.55 3.75 4.1m-13.65 47.3q-.2-4.45-.85-8.9l-.05-.4-.05-.4q-.35-1.8-1-3.7-1.6-4.55-5.15-9.35m9 13.7-.1-2.55.35-5.85-4.2-4.7m3.95 13.35q.4 5.5 2.65 9.45l2.6 2.55h.2q4.95.2 7.15-1.3l-1-2.1m10.1-1.55q.9 1.6 3 2.25l2.15-3.75q4.55-7.7 10.2-14.4l.45-.55q3.45-4.1 7.3-7.8l3.35-3.1m-35.55 31 .6 1.3q1.3-.35 2.25-.85 1.9-1 2.25-2.6m-7.6-2.8 1.5 2.85m-9.65 27.95-.95.5v2.8m57.8-33.65-3.85-.5-4.05-.25-.7-.05-5.7.2-1.1.05-.55.05q-4.45.45-8.8 1.65l-2.3.6-2.75.95-2.15-3.35m-28.75 3.25.05 6.05 3.95 3.05 4 3.05m-5.85-29.6q5.8 6.95 9.85 14.4m41.1-17.15-1.7-2.05q-5.7-2.95-12 4.05m17.45 15.1q1.15-10.25-3.6-16.95m54.4-56.6-1.6 1.95M198.4 155.1q-7.85 5.55-10.7 12.4v5.05l-3.85 2.5-.85.55m15.4-20.5 1.55-1.05 1.4-.9m-23.3 15.55-.15.7v.15l-.35 1.7m-5.8 9.8.5 1.15 1.55 3.45-.2.3q-1.6 2.05-9.5 4.55m11.9 4.35.45.2 1.4 1.6q-.45-6.85 3.5-14.25 1.35 3.05 7.9 3.05 4.05-4.6 7.2-9.45m16.15 18.5-.4-.6q-6.1-9.25-6.3-18.45-.15-6.4 2.55-12.8l2.45-4.6m-56.7-38.2 15.65-7.5m-.1 87.8q-2-2.8-5.7-.5-1.35 1.2-3.8 2.5L123.7 213.7l-6.95 1.3.85 1.2m45.2-1.65 3.75-1.85.45-1.15 2.7-7.85.05-3.55q2.45 3.5 2.1 15.2l-.6.8-4.2 5.45q-2.85 3.5-5.25 6.05-4.35 4.55-7.25 5.7l-1.85.4-7.65-2.2m.65 10.5 6.95-1.05m11.4-41.35q.75-.8 1.15-1.55m12.65-1.45q2.3 2.9 4.45 7.25l-.35 2.15m-14.95 5.5 3.2 2.4.05.05m.05.15.95 2m16.6 44.35 3.45 2.3 3-.25 7.25-.95 1.5-.2.3-.1 3.7-.65q9.85-1.95 19.7-5.3m-23.1 6.75-.6-.7m-8.75 1.15 2.4 2.45m21.1 50.1q-4.75-2.8-8.95-6.05v-3.65q6.7-5.3 9.35-11.3-6.55-13.65-21.3-28.9m-71.45-42.1.1-.05 11.2-2.15 8.4-2.2 5.25-1.7-1.05-1.6m2.5 9.8q.65 1.35 3.6 0l7.05-10.5.3-.15M150.4 217q2.3 4.1 1.45 8.2m-33.15.6-.55.85 1 2.15 1.4 3.1h1l12.05 7.85 5.2 3.3 6.9-1m-.95-10.55-4.2-1.15q-8.6-2.35-13.7-3.3l-1.6-.3-2.5-.35-2.7.05-.3-.15m-1.05-.5q1.9-2.3 5.9-3.25-4.3-2.8-6.8-6.05m-6.9-23.35q3.35 5.25 4.55 10.9l.25 1.5.25 1.9q.9-1.35 1.4-2.8l.35-1.7m-1.75 4.5-1.1 1.3-1.6 1.4-1.05.75-1.45.9M91.95 257q-1.5-2.95-2.15-6.85-.8-14.55 6.9-23.7 4.9-5.85 13.3-9.5l3.2-1.25-3.4.65v-1.25m3.4.6 3.55-.7M74 315.6l2.25-1.7q11 1.2 15.65 4.35 11.45-15.35 13.1-30.1.35-3.35.2-6.7-12.05-1.3-22.35-12.1l-1.85-3q-1.9-3.35-3.05-6.75-2.15-6.4-1.6-13.05.95-11.45 9.9-23.65 8.4-10.6 20.9-15.05 4.05-1.5 8.55-2.3M94.75 234.1q-.3 5.15 3.1 8.8 4 4.3 12.75-6.95.4-1.7 1.2-3l.05-.1q3.3-5.6-.05-9.9-6.9-1.95-10.2 5.2m-6.7 5.15q.15-3.2 1.8-6.85m15.15 6.4q1.2-2 3.25-3.05l.05-.05q1.7-.8 4-.95m5.3 10.8q.8 2.1.3 3.85-.4 1.25-1.45 2.35-.95 1-2.45 1.8-8.65 1.8-10.2-5.25m33.9 19.95 3.95-5.5q1.6-2.65 2.65-5.2m12.2 11.45q-1.4 6.3-7.85 8.8-7.55-3.75-10.45-8.7l-.5-.85-.2.2-1.75 2.05-.05.6q-2.9 37.4-18.25 70.2-8.85 18.9-21.85 36.25-9.35 8.75-18.65 3.85l-3.6-2.4q4.2-2.05 13.65-19.3 3.15-5.8 4-11.7.55-4.15 0-8.3l-.05-.35-.15-1q-.3-1.5-.75-3.05-.9-3.2-2.4-6.4l3.05 2.45q9.25 7.85 11.5 16.85m33.2-77.35.35-.35m-.35.35-1.1 1.2-7.1 6.7q-15.5 10.15-28.85 8.65m20.25-58.35-2.7 3.3m1.85-3.85.85.55M91.9 318.25q1.45 2.35 2.6 4.7M56.6 350.9l-.45-.6q-2.35 7.1 7.4 16.45l1.75 1.6q5.05 4.4 9.3 5.25 3 .6 5.6-.55M100 337.1l.45.95q3.55 7.45 1.1 16 4.75-6.1 2.05-18.3m-5.75-2 2.15 3.35m1.3 17.8.25-.85M220.8 300.3l-.2-.5-.25.25m-8.95 30.25q-1.75-2.8-2.4-6.45.55-1.55 1.5-2.9m15.95 17.55-2.15-.1q-9.1-1.8-12.9-8.1l-12 9.7q-10 15.8-16.7 36.35-2.4 7.3-5.2 17.9l-4.7 17.6-.85 6.8H291.8m-63.45-80.05-.85-.05m-5.45-21.1q6.65 3.5 14.2 6.2M220.6 299.8q-1-2.85-2.4-5.7M49.65 235.7h4.75l7.6-4.95 3.35-2.15 3.05 4.1 3.15 4.15-1.3 5.4-1.9 8.05-5.1 4.95v6.25l-5 24.35q13.9 12.2 7.1 24.7l1.3.75m-4.9-80.95-4.8-1.05-4.8-1.1-13.35 4.85h-7.15M5.35 281.3l4.75 8.15 2.4 6.25 1.25 3.35 1.9.95m.05.05q7.75 3.45 18.95 2.1 5.25-.65 9.6-1.95 4.5-1.3 8-3.25 1.85-1.05 3.45-2.25l-.45-4.15-6.5 4.5m8.2-65.75-8.8-7.95h-6.7l-2.55 1.05.45.45m-34.25 13q1.5-2.9 5.4-5.5l12.65-12.65q6.3-2.9 10.35-1.95l5.4 6.65-15.95 6.6h4.35M4.1 279.15l-.9-1.55-2.85-18.85q6.2-8.05 6.9-10.9L4.1 238.8q.2-1.5 1-2.95m2.5 13.6-.35-1.6M18.6 229h4.35m-17.4 28.95 2.9 2.75v-7.5l-.85-3.75m50.65 36.4-.65 3.05-2.35 1.65m10.45-41.6-2.45 6.3m-22.8 34.6q.65 5.75 6.4 5.6m18.5 15.1q-3 3.55-8.15 6.95-6.3 4.1-15.75 8.05l-10.05-.5 3.05 4.25q8.45 11 21.7 21m1.15 1.4 1.95 1.85q10.6 8.95 21.5-9.75 3.5-8.45 2.5-15.85L83 326.6q-.45-2.1-1.2-4.1l-1.55-3.25m-48.85 5.8q-5.5-1.05-10-4.1l-2.6-2.1q-4.4-4.15-6.6-8.65-2.4-4.75-2.4-9.95l2.7-4.55"/><path stroke-width=".75" stroke-opacity=".8" stroke-linejoin="round" stroke-linecap="round" stroke="#5c0101" fill="none" d="M274.8 152.45q-1.35-3.9-4-6.7l-.2-.75m5.4 12.95q.75 8.25-3.9 16.4l-1.5 2.4-2.8 3.7q-6.1 7-15 10.1-11.15 3.8-20.1-.75-6.55-3.3-9.15-9.65l-.2-.6q-.8-2.15-1.2-4.55l-.2-2-.05-1.2q-.25-8.65 5.45-17.05 6.75-10 17.9-13.8 11.05-3.85 20 .75m9.55 10.75.2.6.8 3.45.2 1.45"/><path stroke-width=".25" stroke-opacity=".651" stroke-linejoin="round" stroke-linecap="round" stroke="#261e15" fill="none" d="m477.2 179.75-5.55.3M267.75 307.6l.8-.1.45-.05m-139.1-127 .5 1.75"/><path stroke-width=".75" stroke-opacity=".412" stroke-linejoin="round" stroke-linecap="round" stroke="#000" fill="none" d="m91.95 257 .4.9q2.15 3.95 5.9 6.05 4.25 2.45 10.6 2.5 11.3-3 18.5-8.5 7.65-8.75 6.25-18.2"/><path stroke-width=".75" stroke-opacity=".8" stroke-linejoin="round" stroke-linecap="round" stroke="#5c0101" fill="none" d="m270.6 145-.8-.75M221.95 173l-.1-1.8q-.25-8.65 5.45-17.05 6.75-10 17.9-13.8 11.05-3.85 20 .75l3.35 2.05m2.05 1.85.15.15q2.85 3 4.2 7.3l.8 3.45.25 2.05q.55 7.95-3.95 15.8l-1.5 2.4-2.8 3.7q-6.1 7-15 10.1-11.15 3.8-20.1-.75-5.95-3-8.6-8.5l-.5-.55m51.25-27.7h.15m-32.6 15.9q-10.2 1.15-9.85-7.65 3.5-8.9 15.85-6.15 7.5 3.7 5.9 11.4 2.9-12.4 18.95-13.45l1.6-.05m-2.75 21.3q.85-4.35-.2-6.35-1.7-3.25-8.25-.55-3 3.9 0 6.3m-9.35-7.2-.1.35q-.6 2.4-2.1 5.25.95 11.85 7 12.05 3.5.05 8.7-3.75m-15.7-8.3q-1.45 2.7-3.7 5.85-10.6 11.85-19.45 6.85-2.8-1.55-5.4-4.7l.55 1.15q2.35 2.75 4.9 4.15m-5.45-5.3-.2-.6q-.8-2.15-1.2-4.55l-.15-1.4"/><path stroke-width=".75" stroke-opacity=".459" stroke-linejoin="round" stroke-linecap="round" stroke="#000" fill="none" d="m124.3 335.35.4 2.9m-3.4-25.4-.1.6"/><path fill-rule="evenodd" fill-opacity=".369" fill="#fff" d="M46.35 11.25q18.15 37.4 23.1 73.8l4.2 3.8-1.9 3.15-5.7-5.85-.1-.6q-8.7-55.7-24.55-77.5l4.95 3.2m18.6 86.9 5.4-4 2.45 3.2-7.85.8m-48.55 55.2q20.5 8.65 27 15.35 7.65 14.9 10.25 23.25 4.3 13.85 1.8 25.9h-9.8q5.4-13.25-3.6-28.7-7.7-13.2-26.95-29.7l.05-.25q.55-3 1.25-5.85m70.7-12.85q4.65 15.1 7.5 25.8 7.6 29.25 8.35 51.55H96.1q2.4-33.35-9.15-77.25l.15-.1m-124.3-9 5.2 5.85 23.65 7.95-2.2 5.9-36.2-12 9.55-7.7" transform="translate(246.15 200.8)"/><path fill-rule="evenodd" fill-opacity=".702" fill="#fff" d="m84.95-57.8-2.65-4.9q-1.95-3.65-4.25-6.1l19.05 2.45 7.95-2.3L112-62.9q2.4 8.6 2.25 16.65v.8L108.1-47v-11.45l-5.6 3.7-17.55-3.05m52.6 5.25q1.45-3.35.3-6.65-1.4-3.95-6.45-7.85 14.95-1.4 29.4.35l.4.35q2 1.65 3.75 4.55 1.9 3.15 3.45 7.7l.2.65.3 1.05-8.9 4.75-22.45-4.9m-124.5 238.8q-.5-9.5 2.05-26.8 19.25 16.5 26.95 29.7 9 15.45 3.6 28.7H-74.2l.85-6.8 4.7-17.6q2.8-10.6 5.2-17.9 6.7-20.55 16.7-36.35l36.2 12q-5.9 17.4-7.55 43.45l-.3.05-.25.35.05.35.35.25q14.8 3.7 31.4.4l.3-.15-.4-9.65m-138-73.6-7.4 17.55q-5.7-9.85-19.3-8.05-1.15-2.35-2.6-4.7 11.45-15.35 13.1-30.1 10.5 2.8 16.3 24.7l-.1.6m119.7-3.25q-2.5 1.85-.3 7.15L-12 117.8l-19.2-9.45q-1.7-5.95 1.75-5.7l13.6 6.4 10.6.35m-160.65 9.05 1.55 3.25q.75 2 1.2 4.1l.25 1.35q-6.2-8.95-19.85-10.25l3.25-6.4 13.6 7.95" transform="translate(246.15 200.8)"/><path fill-rule="evenodd" fill-opacity=".271" fill="#250e0e" d="m45.25-58.25-.85-2.4q-2.2-3.85-6.9-10l18.2-1.85 19.75 9.15q.45 17.9-7.9 22.75l-.9.45q-.85.4-1.75.7l-2.3.45-.35.1h-.05q-10.65 2.3-13.1 5.4l-1.9-8.65v-6.6l-.3-2.45q-.55-3.5-1.65-7.05M38.4-18.1q-.35 3.25.75 8.5 1.4 6.65 5.1 16.55l2.1 4.3-13.4-8.7-9 1Q9.25 18.3-24.6 6.45l-4.65 5.95-.4.4q-13.3 11.95-24.6 10.45l-9.35 19.7-19.65.55q-4 7.3-6.15 16.35L-95 50.8q2.2-5.55 1.5-10.6h2.85q8.6-.5 11.6-4.5 5.75-9.6 9.3-16.75l15.1-.45q19-3.4 25.2-21.95 2.75 1.6 5.55 2.9Q2.4 11.3 28.2-9q3.7-3.3 6.65-6.7l3.55-2.4m64.95-13.85L99.2-34.9h-6.3l11.85-13.85-1.4 16.8m46-1.8 7.95-1.8 9.85-4.55-1.45 4.1-1.5 3.4-14.85-1.15m35.2 6.35-5.1-2.5-1.4-2.75 8.35-2.25q.9-2.95 1.35-6l1.95 1.9q-1.4 4.1-3.45 8.3l-1.7 3.3M23.2 81.95q-1.05-9.1-10.65-26.8L25.7 49.9l16.6 32.3-5.05 20.2-11.4 1.5q.35-2.2-.3-5.9v-6.65q-1.25-.3-2.35-9.4M72.45 109l-.3-.55 6.95 6.2 1.55 5.1.35 1.1q-2.7 21.7 9.05 58.05l-6.05 2-3.65-17.2q-6.25-12.55-22.9-16.55L56 146.8l-37.05-2.45.2-.6.05-.15 1.65-4.35 3.6.4 28.4-7.8L73.4 120.8l1.55-6.55-2.6-2.75.3-.75q.15-.9-.2-1.75m-12.75 2.75q-15.7 8.5-36.4 12.8l.25-.55q.35-.9-.15-2.4-.85-2.45-3.85-6.55l27.25-5.8 9.4-5.05-2.4 6.05 5.9 1.5M.05 107.4l-.1.15-.3.35-11.6-1.1-13.4-7.3-.2-.5q-1-2.85-2.4-5.7-6.55-13.65-21.3-28.9l9.7.35.75.9 7.7 5.2 20.75-8.5Q-2 83.85.75 104q.2 1.9-.7 3.4m1.35 20.4h-.1l-7.55.6q-5.1-.25-10.1-3.9l-3.8-3.3-3.95-4.55q6.65 3.5 14.2 6.2l8.25-2.1q6.4 6.6 3.05 7.05m-142.35-47.15q13.35 1.5 28.85-8.65l7.1-6.7 1.1-1.2.3.25q-2.9 37.4-18.25 70.2 2.45-9.55-3.1-21.9l.15-.4-.05-.2q-5.8-21.9-16.3-24.7.35-3.35.2-6.7m-4.75 56.6q-.2 20.6-7.4 34.05l-.15.2q-2.5 3.25-9.1 3.15l-3.6-2.4q4.2-2.05 13.65-19.3 3.15-5.8 4-11.7.55-4.15 0-8.3l2.15 3.35.45.95m127.05.5.85.05q6.65.25 13.1.1l-2.05 3.9h-.05l-11.85-4.05M-183.4 118.7q-5.55 6.25-20.5 10.75l-.3.15-7.5-1.1-3.05-4.25 10.05.5q9.45-3.95 15.75-8.05 5.15-3.4 8.15-6.95l1.3.75-3.25 6.4-.65 1.8" transform="translate(246.15 200.8)"/><path fill-rule="evenodd" fill-opacity=".471" fill="#381414" d="m130-63.1-1.9-3.6 1.25-.15 5.5 12.65-.65 14.8 1.7 4.6-4.95-.4q1.25-4 1.85-7.75.6-4.45.25-8.65-.3-3.6-1.35-7l-1.5-4-.2-.5M74.95 114.25l-1.55 6.55-20.55 11.05-28.4 7.8-3.6-.4 1.55-3.7.1-.3Q48.05 130.8 69.45 119l2.9-7.5 2.6 2.75m-38.25-9.6-12 1.75q.85-.85 1.15-2.5l11.4-1.5-.55 2.25m-52.55 4.4-13.6-6.4 3.65-3.4 13.85 7.55 11.6 1.1-1.5 1.3-3.4.2-10.6-.35M-44.6 60.8l1.5-.2 3.55 4.15-9.7-.35-.2-.2-2.4-2.45 7.25-.95" transform="translate(246.15 200.8)"/><path fill-rule="evenodd" fill-opacity=".322" fill="#fff4cc" d="M45.25-58.25q.15 2.55-.15 4.25Q35.05-75.6 22-77.5q2.25-1.4 5.45-.65 5.8 2.35 10.05 7.5 4.7 6.15 6.9 10l.85 2.4m135.05.65-5.65-1.3-6.55-10.6q9.35.6 14.7 2.75 1.4 2.9 2.4 5.75l-4.9 3.4M130-63.1l.2.5-.35 5.15-.15.1q-3.45 2.8-9.8.1l-.2-.1-1.5-9.95-4.45-3.85q6.5-.35 12.95 2.25l1.4 2.2 1.9 3.6M-130.2 6.65l-1.1 1.3-10.15 2.75q-5.7 2.9-11.35 8.3-3.95 4-7.9 11.65-2.2 7.1-1.05 14.25 1.95 7.2 4.45 12.1 2.45 4.9 7.7 7.75l-2.9 5.3-9.6-4.4-6.1-6.85q-2.15-6.4-1.6-13.05.95-11.45 9.9-23.65 8.4-10.6 20.9-15.05 4.05-1.5 8.55-2.3l.25 1.9m-10.15 14.5 7.1-.05 2.45 6.7-2.1 10.35-7.7 10-7.85 1.3-5.4-4.45.4-7.85 2.6-5.5 3-4.4 7.5-6.1m-92.05 77.1 1.9.95-2.65 4.1.1 4.15 1.25 2.95-2.15-1q-2.4-4.75-2.4-9.95l2.7-4.55 1.25 3.35" transform="translate(246.15 200.8)"/><path fill-rule="evenodd" fill-opacity=".2" fill="#2f0d0d" d="m11.2-58.4-.4-.3q-2.1-.9-7.45.1-5.6 1.15-5.95 6.55-.6 5.5 7.95 5.75 16.5-.3 12.3-6.7-1.35-2.85-6.45-5.4m13.45 3.35 2.45 7.35-1.35 14.9-12.8 16.2-7.15 4.55-14.7 1.4-8.3-5.3L-24.25-29q-.25-8.65 5.45-17.05 6.75-10 17.9-13.8 11.05-3.85 20 .75l3.35 2.05 1.25 1.1.95.9M160.8-66.7l4.7-2.95 7.65 14.85 5.75 7.5 7.9-8.45q1.1 4.5 1.25 8.8v1.55L185-39.05l-13.65 4.2-3.05-1.95 1.45-4.05-.1-1.2 1.5-6.75-.95-5.5-5.8-13.1-3.2 1.05-.4-.35m-49.85-.65-2.85 1.2-1.1-.9q.2-1.6 4.65-3.9l5.95 10.4v9.65q7.15 7.85 15.45-.7.35 4.2-.25 8.65l-3.75 6.4-9.6 3.95-3.5-1-.35.6-.7-6.75.95-5.05-.75-17.35-4.15-5.2M16.1 24.6q16.2 10.55 17.45 21.1l-8.3 3.3-2.35-4.6-42.3 10.15q-9.85 3.35-19.7 5.3l-3.7.65-.3.1-1.5.2q-6.2-.95-4.5-4.65l.15-.05 3.1-1.35 7-3.3q-14.75-4.45-19-15 20.95-5.25 29.4-11.95l.05.05 13.2 10.75.05.05 6.8 4.25.35.05.3-.2.05-.4-.05-.1L16 24.45l.1.15m-1.9 134.35-24.75-7.75 2.2-5.9 20.1 6.8 3.75.9-1.3 5.95M-154.2 56.2l7.65.95q11.5-.05 19.6-7.5 2.4-2.2 4.1-4.65 1.05-1.1 1.45-2.35 1.95-3.65 2.45-7.85l6.4 4.15 5.2 3.3 2.7-.4q-1 13.15-10.45 22.8-3.8 3.85-8.2 6.35-7.75 4.4-17.25 4.4-14.3 0-24.6-9.85-1.9-3.35-3.05-6.75l6.1 6.85 9.6 4.4 2.9-5.3q-5.25-2.85-7.7-7.75-2.5-4.9-4.45-12.1-1.15-7.15 1.05-14.25 3.95-7.65 7.9-11.65 5.65-5.4 11.35-8.3l10.15-2.75-1.6 1.4-1.05.75-2.25.6q-7.25 2.2-13.1 7.5-10.05 9.05-10.05 21.9 0 9.5 5.55 17l-.4-.9m41.65-17.25q1.4 9.45-6.25 18.2-7.2 5.5-18.5 8.5-6.35-.05-10.6-2.5-3.75-2.1-5.9-6.05 2.15 3.95 5.9 6.05 4.25 2.45 10.6 2.5 11.3-3 18.5-8.5 7.65-8.75 6.25-18.2m-35.95 92.65.15 1 .05.35q.55 4.15 0 8.3-2.8-4.9-6.2-7.55-2.75-2.15-5.85-2.8l-.4-.1-.6-5.85-1.8.85q-.45-2.1-1.2-4.1 6.4-4.15 15.1 6.85.45 1.55.75 3.05m-40.2-33.55 2.9 7.95q-.05 3.1-3.6 8.8-6.15 5.3-16.4 8.1-9.7.35-18.7-2.6l-.25-.15-2.6-2.1q-4.4-4.15-6.6-8.65l2.15 1q14.7 6.3 35.95-1.7.05-9.1-6.05-9.3 4.5-1.3 8-3.25l5.2 1.9m7.85 69.5-1.75-1.6q-9.75-9.35-7.4-16.45l.45.6.7.8q.35 5.8 9.4 14.8 3.35 3.35 7.9 7.1-4.25-.85-9.3-5.25" transform="translate(246.15 200.8)"/><path stroke-width=".75" stroke-opacity=".412" stroke-linejoin="round" stroke-linecap="round" stroke="#000" fill="none" d="m92.35 257.9-.4-.9m.4.9q2.15 3.95 5.9 6.05 4.25 2.45 10.6 2.5 11.3-3 18.5-8.5 7.65-8.75 6.25-18.2"/><path fill-rule="evenodd" fill-opacity=".322" fill="#270c0c" d="M29.65-44.3q1.35 9.05-3.7 17.85l-1.5 2.4-2.8 3.7q-6.1 7-15 10.1-11.15 3.8-20.1-.75-6.55-3.3-9.15-9.65l-.2-.6q-.8-2.15-1.2-4.55l-.25-3.2 7.05 13.05 8.3 5.3 14.7-1.4 7.15-4.55 12.8-16.2 1.35-14.9-2.45-7.35q2.85 3 4.2 7.3l.8 3.45m81.3-23.05 4.15 5.2.75 17.35-.95 5.05.7 6.75.35-.6 3.5 1 9.6-3.95 3.75-6.4q-.6 3.75-1.85 7.75l-.1.2-.55 1.65q-3.2 3.2-12.65 5.2l-8.25-2.9 2.6-1.55q1.95-6.25 2.25-12.85v-.8q.15-8.05-2.25-16.65l-3.9-3.25 2.85-1.2M168.4-54.1q-1.55-4.55-3.45-7.7-1.75-2.9-3.75-4.55l3.2-1.05 5.8 13.1.95 5.5-1.5 6.75.1 1.2-1.45 4.05 3.05 1.95 13.65-4.2 3.05-6.35-.3 4.5q-.45 3.05-1.35 6l-16.75 4.45-5.45-2.15 1.5-3.4 1.45-4.1q1.5-5.05 1.75-10.1v-2.2l-.3-1.05-.2-.65M22.9 44.4l2.35 4.6-13.6 5.45-.2.2-.1.25.1.25q10.4 18.15 13.1 36.25v6.75q.7 3.85.25 5.9L.05 107.4q.9-1.5.7-3.4Q-2 83.85-10.35 62.35l-20.75 8.5-7.7-5.2-.75-.9L-9 54.95l-2.4-2.35 34.3-8.2m-.25 79.3q-.2.5-.9.7l-.25.2-.1.3-9.75 1.65-.8.1-6.85.9-2.6.25q3.35-.45-3.05-7.05l-3.6-3.5-.3-.7 13.7-2.65v-5.55l12.15-1.4q-3.7 3.4-2.5 7.35l.05.2.6.8q3.2 4.2 4.05 6.6.35 1.1.15 1.8m-68-134.2q0-6.35-1-9.85l-.05-.3 1.65-3.3 4.5-1.4q.2 9.2 6.3 18.45Q-40.2 8-55.75 11l-10.6.7q1.5-3.8 2.15-6.45 18.85-5.9 18.85-15.75M15.5 153l-3.75-.9-20.1-6.8 1.6-3.5 24.95 1.85q-1.55 4.55-2.7 9.35M-22.6-20.65q2.6 3.15 5.4 4.7-2.8-1.55-5.4-4.7M-93.5 40.2q.7 5.05-1.5 10.6-1.05 2.55-2.65 5.2l-3.95 5.5-.2.2-1.75 2.05-.35.35-1.1 1.2-7.1 6.7q-15.5 10.15-28.85 8.65-12.05-1.3-22.35-12.1l-1.85-3q10.3 9.85 24.6 9.85 9.5 0 17.25-4.4 4.4-2.5 8.2-6.35 9.45-9.65 10.45-22.8l11.15-1.65m-42.65-24.05q-8.4 3.65-13.3 9.5-7.7 9.15-6.9 23.7.65 3.9 2.15 6.85l.4.9q-5.55-7.5-5.55-17 0-12.85 10.05-21.9 5.85-5.3 13.1-7.5l2.25-.6-1.45.9-.95.5v4.05l.2.6M-154.5 133.7q3.4 2.65 6.2 7.55-.85 5.9-4 11.7-9.45 17.25-13.65 19.3-2.6 1.15-5.6.55-4.55-3.75-7.9-7.1-9.05-9-9.4-14.8l1.95 1.85q2.9 6.45 8.3 5.8l.3-.2q14.55-2.45 17.95-27.45 3.1.65 5.85 2.8m-36.4-43.95 2.35-1.65.65-3.05q13.9 12.2 7.1 24.7-3 3.55-8.15 6.95-6.3 4.1-15.75 8.05l-10.05-.5q-5.5-1.05-9.75-3.95 9 2.95 18.7 2.6 10.25-2.8 16.4-8.1 3.55-5.7 3.6-8.8l-2.9-7.95-5.2-1.9q1.85-1.05 3.45-2.25l-.45-4.15" transform="translate(246.15 200.8)"/><path stroke-width=".75" stroke-opacity=".8" stroke-linejoin="round" stroke-linecap="round" stroke="#5c0101" fill="none" d="M228.95 184.85q-2.8-1.55-5.4-4.7"/><path fill-rule="evenodd" fill-opacity=".424" fill="#3a1212" d="m46.9-51.2-3.6 17.5-15.4 22.25-.25.05Q5.55 5.65-24.1-2.95q-4.65-1.4-9.45-3.35l-.4-.6q-6.1-9.25-6.3-18.45-.15-6.4 2.55-12.8l2.45-4.6q3.5-6.15 8.1-11.55 12.6-14.85 33.35-24.55 12.4-2.9 21.25.7-3.2-.75-5.45.65l-.15.1q-1.7 1.1-2.85 3.5l-3.45 6.65q6.3 1.25 9 3.75l9.25-5.25-3.65 7.7 4.65 5.55 6.25 4.4q3.25.85 4.05-2.9.3-1.7.15-4.25 1.1 3.55 1.65 7.05M18.65-61.95l-8.5-1.7q-8.2-.6-16 3l-.85.4q-7.9 4.75-15.7 13.8l-.35.45-4.8 12 1.3 9.05 3.45 3.7.2.6Q-20-14.3-13.45-11q8.95 4.55 20.1.75 8.9-3.1 15-10.1l2.8-3.7 1.5-2.4q5.05-8.8 3.7-17.85l-.8-3.45q-1.35-4.3-4.2-7.3l-.95-.9-1.25-1.1-3.8-4.9m4.25 168.3-.05.3-.45.05-.8.1-.1-.3q-.15-.15-.35-.15l-.3.1-.55.5-12.15 1.4-10 .85 1.5-1.3.3-.35.1-.15 24.75-3.35q-.4 1.65-1.6 2.05l-.3.25M-42.7 61l-.1-.5 3.7-.65q9.85-1.95 19.7-5.3l8-1.95 2.4 2.35-30.55 9.8L-42.7 61m46.75 76.5 1.45-.1 15.95-1.95-1.6 3.7-1.65 4.5-24.95-1.85 2.05-3.9 8.75-.4m-164.4-6.6q-3.4 25-17.95 27.45l-.3.2q-5.4.65-8.3-5.8 10.6 8.95 21.5-9.75 3.5-8.45 2.5-15.85l-.25-1.35 1.8-.85.6 5.85.4.1" transform="translate(246.15 200.8)"/><path fill-rule="evenodd" fill-opacity=".753" fill="#411414" d="m18.65-61.95 3.8 4.9-3.35-2.05q-8.95-4.6-20-.75-11.15 3.8-17.9 13.8-5.7 8.4-5.45 17.05l.25 3.2q.4 2.4 1.2 4.55l-3.45-3.7-1.3-9.05 4.8-12 .35-.45q7.8-9.05 15.7-13.8l.85-.4q7.8-3.6 16-3l8.5 1.7M-49.7-24.8q6.2-9.65 8.55-20.4l5.9 2.45-2.45 4.6q-2.7 6.4-2.55 12.8l-4.5 1.4-1.65 3.3q-1.1-3.7-3.3-4.15m89 3.5-2.1 2.8-2.35 2.8Q31.9-12.3 28.2-9 2.4 11.3-23.9-.55q-2.8-1.3-5.55-2.9-6.2 18.55-25.2 21.95l-15.1.45q2.05-4.05 3.4-7.25l10.6-.7q15.55-3 21.8-17.9l.4.6q4.8 1.95 9.45 3.35 29.65 8.6 51.75-8.45l.25-.05L43.3-33.7l3.6-17.5.3 2.45v6.6q-.65 7.95-4.65 15.55l-3.25 5.3" transform="translate(246.15 200.8)"/><path fill-rule="evenodd" fill-opacity=".271" fill="#fff" d="M-162.75-86.55q.05-9.4-1.55-19.3l10.45 30.35q-4.45-7.5-8.95-11.05h.05m-7.75 24.85q3.75 12.55-7.3 1.1-7.05-18.25-9.95-36.4 8.05 20.2 17.25 35.3m85.25-108.35-9.45-3.3q-35.65-21.95-66.55-21.1l-5.1-2.8q20.7-2.5 49.75 10.35 14.6 6.45 31.35 16.85m-69.6 47.3 17.7 11.1 8.9 16.25 8.95 10.95q-4.45 4.35-13.1 6.55h-.05l-6.4-11.85-4.45-13.9-11.55-19.1m-5.3-66.25-9.15.35-39.55-11.8q24.35.15 48.7 11.45" transform="translate(246.15 200.8)"/><path fill-rule="evenodd" fill-opacity=".212" fill="#3c1111" d="M-170.45-130.5q4.7 3.3 8.5 6.7-11.7-36.45-47.35-71.85 77.4 24.35 101.4 42.7 24.05 18.25 27.3 21.65v7.8l-9.65-9.45-.5-.35q-54-40.55-99.8-51.2 25.5 19.25 40.9 52.05l-10-6.25 3.9 12.85q-2.85.95-1.3 7 3.95 4.45 6.3 9.15 1.05 2.05 1.75 4.15l5.45 13.1 1.65 4.4q2.15 5.1 5.2 10l-2.6 5-1.7 3.75v.05q-5.45 13.1-5.4 27.25l.05 2.5q-14.25-5.75-24.45-12.9 18.9 9.35 11.25-4.8l-23.25-36.7 3.55 3.1q3.55 2.9 7.85 5.4 17.5 12.8 23.4 27.3v-12.75l-19.9-51.3-2.55-8.35m107 1.1q4.85 2.65 8.3 5.85-4.25-21.5-24.6-43 20.35 13.15 43.7 31.85 1.2-8.2-3.7-19.2 7.35 4.4 12.05 16.85 2.8 7.45 4.6 17.8-4.2-14.25-10.45-24.15.35 11.15-2.35 12.4L-58-146.65q11.05 19.05 6.5 31.7l-4.75-3.1q2.7 11.3-17.4 22.75l-20.4 11.65-9 1.7-16 14.05-6.55 3.85-3.75-4.1-.45-.55-1.15-1.35-2.95-3.85q14.3-3.05 20.4-11.6-2.05 2.95-4.6 6 7.55-4.9 16-9.55l4.6-6 3.05-19.1-3.25-8.35 11.9 9.25 6.05 13.15 2.45-1.1q9.1-7.2 13.4-12.85 7.45-9.95.45-15.35m48.6 27q-8.8 7.75-18.35 10.95l1.6-1.95q10.5-8.55 15.55-17.1.9 4.05 1.2 8.1m-134.9-85.7-8.3-4.6q36.25 8.5 58.7 29.6L-152-185l-6.15-3.1h8.4" transform="translate(246.15 200.8)"/><path fill-rule="evenodd" fill-opacity=".341" fill="#381414" d="M-58-146.65-35.9-131q2.7-1.25 2.35-12.4 6.25 9.9 10.45 24.15l.35 1.95.65 4.45q-2.25 10.3-9.5 19.45l-1.6 1.95q9.55-3.2 18.35-10.95 1.6 19.35-9.45 38.7l-1.75 3.35 6.75-26.9Q-40.15-72.2-53.6-75.6l-2.8-4.55 3.55-4.4 5.15-18.55q-12.85 14.45-28.6 14.65l-15.65 7.5-16.2 3.45 5.1-4.45 9-1.7 20.4-11.65q20.1-11.45 17.4-22.75l4.75 3.1q4.55-12.65-6.5-31.7m-22.6 38.45q-.75-7.65-11.2-15.85-5.1-4.05-12.45-8.15l1.15 5.15q-15.55-17.45-33-24.5 12.25 18.75 16.35 36.65l-10.4.2.8 3.25q-21.1-16.2-26.4-14.4l-3.9-12.85 10 6.25q-15.4-32.8-40.9-52.05 45.8 10.65 99.8 51.2l.5.35 9.65 9.45v15.3" transform="translate(246.15 200.8)"/><path fill-rule="evenodd" fill-opacity=".471" fill="#260d0d" d="m-31.2-53.7 2.15-16.6-3.25 5.4-.5.45q-10.6 9.1-25.5 10.1l-1.4 4.9 3.1 1.4-3.75 2.9-2.95 7.7-.8.85-4 4.5q2.2-13.1-.5-26.8-5.3-10.1-18.95-19.25l9.3-9.4 1.95-.9q15.75-.2 28.6-14.65l-5.15 18.55-3.55 4.4 2.8 4.55q13.45 3.4 34.3-11.65l-6.75 26.9q-2 3.3-5.15 6.65m-98.15-57.75-.8-3.25 10.4-.2q-4.1-17.9-16.35-36.65 17.45 7.05 33 24.5 1.55 8.95-.35 15.5l-2.45 5.3q-.1 3.65-13.65 9.3l-8.4-13.4-1.4-1.1" transform="translate(246.15 200.8)"/><path fill-rule="evenodd" fill-opacity=".592" fill="#431212" d="m-40.2-51 .25-2.9q-.1-1.35-4.85 0-10.2 7.65-18.5 16.45l2.95-7.7 3.75-2.9-3.1-1.4 1.4-4.9q14.9-1 25.5-10.1l.5-.45 3.25-5.4-2.15 16.6q-4.05 4.2-9.95 8.5.6-2.9.95-5.8m-47.35-27.15-4.4-2.8 13.7-6.6-9.3 9.4" transform="translate(246.15 200.8)"/></g></defs><path fill="none" d="M-1-1h295v248H-1z"/><use x="135" y="218" xlink:href="#i" width="381" transform="translate(-192.55 -294)" height="381"/><use x="235.849" y="380.853" xlink:href="#j" width="508" transform="translate(-133.72 -216.013) scale(.5724)" height="423.3"/><use x="235.849" y="380.853" xlink:href="#k" width="199.5" transform="translate(-114.194 -214.565) scale(.5724)" height="168.35"/><use x="235.849" y="380.853" xlink:href="#l" width="424.4" transform="translate(-126.857 -145.716) scale(.5724)" height="276.75"/><use x="235.849" y="380.853" xlink:href="#m" width="407.3" transform="translate(-114.514 -142.238) scale(.5724)" height="291.9"/><use x="235.849" y="380.853" xlink:href="#n" width="503.7" transform="translate(-132.49 -214.782) scale(.5724)" height="419"/><use x="-3.466" y="-.541" xlink:href="#o" width="102.95" transform="matrix(2.0195 0 0 1.8481 15 73.4)" height="45"/></svg>