<svg width="112" height="211" xmlns="http://www.w3.org/2000/svg" xmlns:xlink="http://www.w3.org/1999/xlink"><defs><g id="b" stroke-opacity="0" stroke-linejoin="round" stroke-linecap="round" stroke="#f0f" fill="none"><path d="M187.95-293.5v380h-380v-380h380" transform="translate(192.55 294)"/><path d="m187.95-293.5-190 190 190 190m-380-380 190 190L-192 86.5M92.95-38.4H-97" transform="translate(192.55 294)"/></g><g id="c"><path fill-rule="evenodd" fill="#4d4d0d" d="m103.1 277.8 8.7-.75q5.95.05 11.45 2.1 5.7 2.15 9.7 6.65l-.1.65 8.55 1.9-2.2.8-6.9 1.35q-4.6.6-9.3-.2l.85.35.7.45.65.55.5.65.75 1.35.15.45.25.9q-9.45 5.05-20.05 5.1l6.7-1.7-32.75-3.65-20.45-.9 4.55-2.55q-5.7 1.35.15-2.95 5.85-4.35-28.5-1.75l.85-.85.9-.8q.45-.35 1-.55 1.35-.7 2.85-1.15l3.15-.65-9.9-1.8q-35.4-.35-2.75-2.15 32.6-1.85 34.9-5.3 2.35-3.45 36.8 3.4l-1.2 1.05"/><path fill-rule="evenodd" fill="#660" d="m115.8 296.6 3.35.8q-3.4 1.6-7.2 2.35-7.95 1.2-14.9-2.85l11.9.1-7.2-.9 14.05.5m-60.6-14.9q-4.1 1.1-8-.5l2-.45q3.95-.75 8 .45l-2 .5m15.6 2.5-2.25.75q-9.35 3.1-18.55-.75 10.45-3.65 20.8 0"/><path fill-rule="evenodd" fill="#3e3e0b" d="m86.75 290.7-.3-.1-.95-.2-.9-2.15q-3.45 1.15-7.05 1-2.75-.05-5.2-.95L68.8 287l6.25-1.15 6.3-.55-2.15-2.1-23.2-4q127.6-2.35 67.2 1l-6.2 2 17.8 1.8-11.6 1.5 3.45.9q1.65.45 3.25 1.2l.85.7.25.4.15.55-1 .9-2.3 1.2-1.45.35-5.5.75 7.1.95-5.75.7h-15l-7.7-1.15 2.45.85-1.1.3q-8.85 2.45-17.85.85l-2.3-.5-2.35-.65 4.25-.75 12.75-.5-8.65-1.85m-.5-1.6h4.5-4.5m8.3-3.9 5.4-.55-3.75-.6-1.65 1.15m19.6.4h4.5-4.5m12.95 5.5h-8.95 8.95m-47.35-4h3.5-3.5"/><path stroke-width=".05" stroke-linejoin="round" stroke-linecap="round" stroke="#660" fill="none" d="m86.45 290.6.3.1m-.3-.1H72.8m17.95-1.5h-4.5m32.4-3.5h-4.5m4 5.5h8.95m-59.8-13.95h-5m-4.95 4.95h4.45m21.45 5h-3.5"/><path fill-rule="evenodd" fill="#a39550" d="m123.25 82.2 1.15 2.2 1.7 3.3.4 1.4 1.95 6.55.95 1.35 4.8 3.2 3 7 1.8 1.2v2.2l-1.1 1.9-.4 2.5 1.1 2.3-.3 4.8-4.1-1.65-4.55-3.4-2.2-7.9-3.4-8.45-12.7-9.9-2.85-11.35-.25 1.7-.05-.35.3-1.35-.3 1.35-.35 1.65-1.8-1.4-.35 2.6q-7.45.85-8.9 5.7-1.8 4.95-2.45 9.9l-7.5 4.7-1.55.1-2.65-3.15L84.4 90q5.4-5.75 13.2-8.75 0-3.05 5.4-6.65l-8.05 3.25-1.2-3 .75-7.45.6-5.6q-.1-1.65.2-.65l.95 4.85 2.4-4.2.9 2.8.15.95.55 3.2 2.5 2.15.8.05 1.35 1.65 3 .45 2.7 2.7 1.65-.45 2.6.85 3.4 3.75 2.6.6 2.35 1.65.05.05m10.5 57.85 2.45 3.55.6 1.2.8.5 2.2 5.3.1 2 1.6 3.25 1.8 5.95.1 3.9-.7.1-1.4-4-.15-.15-.9-3.95-3.3.65h-.25l-.5-.05-.1 8.7-1 3.3-2.6 3.3-.5-.6.35-3.75 1-2.4-.95-6-3.1.85-.9-.3-1 .8-.8 2.15-.75-3.05q1.45-7.45-1.45-13.4l1.3-4.75q3.65-5.3 7.5-3.95v.1l.55.75m-32 66.25-1.8 7.3-.6.5-.15.55.25.5-4.15 11.9v.5l1.25 6.5 8.5 15.55 5.75 13v11.75l-1 15.55-5.6 2-3.95-5.6-1.15-22-6.65-25.45-6.7-2.15q5.85-.75 16-30.4M85.95 37.05l.55.3.2 1.1-.5.65-1.05-1.1-.05-.05.65-1 .2.1m-.1 2.45-.05.05-.05-.05-.75-.05-.65.65-.95-1v-.15l.4-.75.65-.15.65-.15v.05l.05.05.6 1.5h.1m-8.8-5.9.45-.15.7.7-.55 1.8-1.2.9-.75-.35-.1-.55 2.3-2-.85-.35m2.45 5.05.4-.4 1.85.55.25 1.15.1.5-.3.35-.65.1-1-.8-.65-1.45m2.8 2.2.05-.35v-.1l.5-.1.95.8.15.75-.75.05-.9-1.05m-3.45-.9-.1.2-.75.1-.55-.55-.05-.1.3-.25.3-.3.85.9m29.1 38.75.25 2.1-.25-2.1M81.6 53l-.75.05.7-.25.05.2m17.05 8.8 1.05 3.75-1.05-3.75m-2.4 4.2.3 1.5-.3-1.5m18.95 13.5.25 4.4q8.6 6.95 10.35 12.1l-1-7.9-5.15-6.3-4.45-2.3m-4.6-3.75-.7.15.7-.15m-76.8 9.9 3.6 1.4 1.85 2.3 2.15 1.15.65.5 1.3 3.3 2.2 2.25 1.2.8 2 4.55 2.45 2.05-4.65-2.25-3.35-4.75q-6.35-4.7-11.3-5.4l.7 1.75-3.2-.65-4.6 1.6-2.25 2.7L18 97l-5.65 1.25-.35-.8 1.55-1.55 3.95-1.5 4.55-.2 4.1-4.45-1.2-.6.7-.8L25.6 87l-.45-.2 6.6 1.65 2.15-1.1-.1-1.7m-2.95 5.5-1.45 1.5 1.45-1.5m24.45 17.9.05-.05v.05h-.05m-23.4-17.5-.15-.4.15.4m104.6 27.15q.85-11.55-4.85-16.35l-4.2-4.15 1.55 3.45q4.25 10.6 4.4 10.05l3.1 7m-7.85 29.45 1.7 9.05-1.15-13.2-.55 4.15m2.7-2.8 3.15 7.1 3 3.35-6.35-11.25.2.8M99.6 248.95l5.15 14.2 1.65 18.4q2.75-10.95 1.1-20.5l-7.9-12.1"/><path fill-rule="evenodd" fill="#857643" d="m87.7 36-.75.35-.7.2-.35.1v-.75l1.8-2.1-2.25 1.35-1.15.2-.8-.45-.05-.85-.3.15-.95-.25.1-.75-1.15.75-1-1.45.15-.35 1.65.6.75-.45.75-.55.5 1.25.5.35.65.45 2.95-.5v.05l-.35.45.35-.45.55 1.25-.95 1.05.05.35m-1.5 3.1-.35.4h-.1l.05.05.05.2-.7.25-.05 1.2-.4.05-.15-.2.15.65-.9 1.5-1.6-.6-.8-1.15-2-.3h-2.05l-.65-.3-2.55 2.7v-.1l.25-.5.05-.05.05-.15.6-1.25v-.65h.05l.25-1.05-.7-.6-1.3-.55 1.3.55.7.6-.25 1.05h-.05l-.9.05h-.1l-.3-1.3-.7-.4-.05-.05.3-.55.05.05.05-1 .8-.9.15-.1.55 1.25.5.45.35.35 1.45.15.45.5-.3.25.05.1.15.6.65.45.5-.6-.5.6-.65-.45-.15-.6.55.55.75-.1.1-.2 1.15.4 1.3 1 .4-.45-.4.45-1.3-1-.45-.35-.1-.55-.15-.65.2-.15.65 1.45 1 .8.65-.1-.1.1.55.2.05-.25.9 1.05.75-.05-.15-.75.5-.35-.85-1.15v-.05l-.05-.45.95 1 .65-.65.75.05-.6-1.5 1.05 1.1m12.85 1.2.1.95.25.35-2.1 2.4-.95.4-2.65.15-2.55 1.55-1.2.05 1.75-1.65 1.05-.15 1.7-1 1.75.35 1.5-1.35 1.35-2.05M78.2 34.15l1.25-.45.5-.9v1.95l-1.3-.1-.05 1.2-1.3 2-1.3-.2-.3-1.15.75.35 1.2-.9.55-1.8.45.45v.05-.05l-.45-.45m4.5-1.85-.15.7-.25.2.25-.2.15-.7m1.75 1.05-1 .7 1-.7m.1 7.7-.25-.3.25.3m-.6.8.05.45-.85.1-.9-1.3.9 1.3.85-.1-.05-.45"/><path fill-rule="evenodd" fill="#4d4126" d="M95.2 36v.05l.4 1.25v.35l-.1.8-.75 1.05-.65-.3-.15-2.05.6-1 .65-.15"/><path fill-rule="evenodd" fill="#6d6136" d="M95.2 36H95.35l.5-.15.85 1.9v.05l-1.1-.15v-.35l-.4-1.25V36m-20.1 4.85v.65l-.6 1.25-.05.15-.15-1.2-.45-.7-.6-.9-1.15-.6.3-.2.7-.1.7.4.3 1.3h.1l.9-.05m21.75 81.6-.4-.4 1.5-1.6-.25 1-.65.35-.2.65M74.2 40.9l-.35.1.35-.1m-3.75 18.7-.8.15.05-1.05.7.85.05.05"/><path fill-rule="evenodd" fill="#4d3e26" d="m86.25 36.55-.3.5-.2-.1-.65 1v-.05l-.65.15.3-1.55-1.85-.7-.55.3-.9.5.3-.4-.2-.85-.95.2.2 1.2-.55-.05-.5-.45-.8 1.05.3.25-.5.05h-.45l-.6 1 1.75.85.1.55.45.35-1.15-.4-.85-.9-.3.3-.45-.5-1.45-.15-.35-.35.55-.7 1.3.2 1.3-2 .05-1.2 1.3.1v-2.5l.2.25 1 1.45 1.15-.75-.1.75.95.25.3-.15.05.85.8.45 1.15-.2 2.25-1.35-1.8 2.1v.75l.35-.1M82 39.95l1.45-.4v.05l.85 1.15-.5.35-.95-.8-.5.1v.1l-.05.35-.05.25-.55-.2.1-.1.3-.35-.1-.5M71.75 44.3v-.05l.05-.7.35-.1-.35.1v-.1l-.6-.4H71l.2-.55-.6-.8.6-1.6.9-.6 1.15.6.6.9.45.7.15 1.2-1.5 1.1-1.2.3m-.55-1.8.85-.6.55.1-.55-.1-.85.6m1.4-.5-.75.45-.2.5.5.5.65-.25.45-.45.1-.65-.75-.1m3.15 2.6-.15-.15-.05-1.3.5-.05.6.45-.6.5.2 1.1-.5-.55"/><path fill-rule="evenodd" fill="#d8ccb1" d="m126.1 165.6.1.1-1.5 4.6-.9.3.4-3.9-.05-.4h.05l.25-.1 1.05-1.3.6.7m-44.65-129-.6.8-1.35.3-.25-.15-.3-.25.8-1.05.5.45.55.05-.2-1.2.95-.2.2.85-.3.4M1.75 80.05l.9-.4H3.8L1 81.15l-.15.05-.85.2.2-.65 1.55-.7"/><path fill-rule="evenodd" fill="#615230" d="m103.1 201-1.35 5.3q-10.15 29.65-16 30.4l6.7 2.15 6.65 25.45 1.15 22 3.95 5.6-2.15.75-4.25-.75-1.25-7-6.8-23.3-6.25-17.3-.9-6.5-.1-.75-3.75-8.5-.9-7.1Q92 204.25 103.1 201M78.75 37.6l.75.6 1.95-.45.85-1.1.05-.55.55-.3 1.85.7-.3 1.55-.65.15-.4.75v.15l.05.45-1.45.4-.25-1.15-1.85-.55-.4.4-.2.15.15.65-1.75-.85.6-1h.45m11 222.5v1.5-1.5M91 239.15l-4.55 1.65 2.9 3.3 1.65-4.95"/><path fill-rule="evenodd" fill="#857143" d="m95.6 37.65 1.1.15-.1 1.75-1.05.35-.8-.4.75-1.05.1-.8"/><path fill-rule="evenodd" fill="#99702c" d="m124.4 84.4 1.75-1.15 2.3-3.05-.5 4.85-1.45 4.05-.4-1.4-1.7-3.3m-24-41 2.45 1.15-.45 2.85-2.35-.5-1.1-.5.6-1-.9.25 1.05-1.55.7-.7"/><path fill-rule="evenodd" fill="#efdecb" d="m88.65 51.5-.85 2-2.2 2.4-.35-.7.4-2.4-.25-1.4 1.15-.45 2.1.55m-5.8.85-.75 2.15-.45-.25L81.6 53l-.05-.2 1.3-.45m-4.9 1.45-.7 1.9-.55-.35-.45-2.15 1.7.6m-2.75-.9-.35 1.3-.4.85-.65-.15-.45-1.45L75 52.8l.2.1m-6.55 6.4.15.1.1.05.6-.95 1.05-1.65.2 1.1.75 1.4.05.15.05.7-1.15-.6-.05-.05-.7-.85-.2-.2.2.2-.05 1.05-.05.75-.7-.25-.2-.75-.05-.2"/><path fill-rule="evenodd" fill="#c2af5f" d="m91.65 33.4-.95.75-.65-3.2 1.3.55.3 1.9m-2.6-3.4-1.45.25-.7-.7-.2-.2-.05-.7 2 .2.4 1.15m-6.5-.5-1.85-.1-.35 1.3-1.2.65.2-1.2 1.4-1.4.35.05 1.15.15.3.55m32.65 50 4.45 2.3 5.15 6.3 1 7.9q-1.75-5.15-10.35-12.1l-.25-4.4m-38.85-45 .6-.85.1-.05.85.35-2.3 2-.1-.3.85-1.15M30.8 83.85l1.25 1.1 1.75.7.1 1.7-2.15 1.1-6.6-1.65-12.85-5.3-5.1-.8-4.95.9L1 81.15l2.8-1.5.6-.05 2.65-.35 1.15-.2 1.2.1 12.65.7 1.9.9 4.5 2 1.5.65.65.3.15.1.05.05M20.55 92.4l2.15-.8 2.25-2.45 1.2.6-4.1 4.45-4.55.2-3.95 1.5 2.05-2.2 2-.3 2.95-1m115.95 26.3-3.1-7q-.15.55-4.4-10.05l-1.55-3.45 4.2 4.15q5.7 4.8 4.85 16.35M99.6 248.95l7.9 12.1q1.65 9.55-1.1 20.5l-1.65-18.4-5.15-14.2"/><path fill-rule="evenodd" fill="#816c41" d="m71.8 43.55-.05.05.05-.15v.1"/><path fill-rule="evenodd" fill="#965c25" d="m101.35 154.15.15.15.4-.1-.1 2.1.5 2.6.95.75.95.55 1.2-.3.1.7-.25.9-.15-.1-4.75-2.4.25-2.4.75-2.45m1.65-.2.5-.15.25-.5 1.25 2.6.2 2.15-.25-.2-1.15.35-.25.3-.55-2.5v-2.05"/><path fill-rule="evenodd" fill="#9b5733" d="m106.85 184.25.1 2.8-.8 1.55.2 1.7-.6 1.4-1.7 1h-2.35l-1.9-.8 1.05-1.15 2.1.55 1.75-.3.4-2.05-.4.1-.6-.55.9-.5.9-.7-.05-2 1-1.05m-35.75-58.7-.3.25-.05-.65.35.4m7.15 16.25.6.8-.25.8-.35-1.6m23.4 9.05.85-.25.3-.1.3-.6v1.8l-.8.9-.45.05-.35.05-.65-.6.8-1.25m.85-.25-.65 2.05.65-2.05m3.65 38-1.05.35 1.05-.35"/><path fill-rule="evenodd" fill="#e8e2a8" d="m138.45 123.05 2.45.9.95-.95 2.45.85 3.8-3.7v.05l-3.2 6.85 2.7 2.85.4 1.7-.05.15-1.7 3.5-5.65-.65-7.95-5.8v-4.05l1.35-2.05.75-.6.35-.3 3.35 1.25m-25.85 43.7 6.7 6.05 10.2 13.6-4.05.9-28.55-25.85-.6-4.5 4.05 2.05 4.75 2.4.15.1.85.6 1.1.75 4.1 2.75 1.3 1.15m28.3-42.8 1.55.6 2.45 2.5-2.45-2.5-1.55-.6"/><path fill-rule="evenodd" fill="#55482b" d="m102.75 55.3-.85 5.2.2 2.9-1.45-1.6-2.75-4.45q-2.45-2-5.95-2.4-3.75.95-3.75 1.15l-5.05 3.2-.4-.6-1.35-.45-2.05-2.15-6.3.5-1.95-.7 1.3-2.1.95-.35.45 1.45.65.15.4-.85.35-1.3 1.05.3.45 2.15.55.35.7-1.9 1.8.55 1.1-1.3.75-.05.05 1.25.45.25.75-2.15 2.55-.95.25 1.4-.4 2.4.35.7 2.2-2.4.85-2 .75.2-.4-.9 1.2.9 1.6-.1.3-.05 1.85 1.95 1.4-.6h3.2l4.2 2.4m-21.4 1.2 1.4 2.2-1.4-2.2"/><path fill-rule="evenodd" fill="#614e30" d="m71.1 55.9 1.95.7 6.3-.5 2.05 2.15-1.95-.65-4.3-.1-2.25 1.35-1.35.65-.05-.15-.75-1.4-.2-1.1.55-.95"/><path fill-rule="evenodd" fill="#765434" d="m103.9 55.9-.2-.05-.95-.55-4.2-2.4h-3.2l-1.4.6-1.85-1.95-.3.05.4-.6 2 .6-.35-.5 1.8.45 1.2.65 2.4.25 4.65 3.45m-29.45-13-.05.05-.25.5v.1l-.25.45-1.85 4.25-.25-2.7-.9 1 .9-1 .25 2.7-.9 2.25-.15.3-.6 1.7v.05l-.4 1-1.55.45-10 5.9 4.35-3.3 4.25-2.3 2.55-2.05-.75-.45-5.2.15 3.3-.7 2.5-.15 1.4-.7h.05l-.4-1.3.35-2.45.05-.1.85-2.25 1.2-.3 1.5-1.1m-6 13.4-.45.6.1.55-.3.15-1.5.7-1.85.3-2.65 1 2.3-1.4 2.35-.8 2-1.1M71 50.8l-.1-.4.1.4"/><path fill-rule="evenodd" fill="#9e7b41" d="m84.7 41.7.1.5-.45 1.8-.05.25.35 1.95 2.1 1.7 2.9.95 1.3.4 2.45 1.15.45.7.35.5-2-.6-.4.6-1.6.1-1.2-.9.4.9-.75-.2-2.1-.55-1.15.45-2.55.95-1.3.45-.7.25-1.1 1.3-1.8-.55-1.7-.6-1.05-.3-.2-.1-1.65.65-.95.35-1.3 2.1-.55.95-1.05 1.65-.6.95-.1-.05-.15-.1-.35-.25-.2-1.6-.1-.55.45-.6 1.15-1.65.05-.05.35-1.05.4-1v-.05l.6-1.7.15-.3.9-2.25L73.9 44l.25-.45 2.55-2.7.65.3h2.05l2 .3.8 1.15 1.6.6.9-1.5m-.65 5.9-1.1-.9-.6-2.25-1.85-2.2q-3.1 3.95-2.95 6.7 1.2 1.2 4.6.55l6.1-.3-4.2-1.6m-7.4-4.05-.6-.45-.5.05.05 1.3.15.15.3 1.2 1.3-.15.15-1.3-.4-.3-.45-.5"/><path fill-rule="evenodd" fill="#b68e4e" d="m84.05 47.6 4.2 1.6-6.1.3q-3.4.65-4.6-.55-.15-2.75 2.95-6.7l1.85 2.2.6 2.25 1.1.9"/><path fill-rule="evenodd" fill="#8d6d3a" d="m75.75 44.6.5.55-.2-1.1.6-.5.45.5.4.3-.15 1.3-1.3.15-.3-1.2m1.35.65-.85-.1.85.1"/><path fill-rule="evenodd" fill="#b89e76" d="m72.15 43.45-.5-.5.2-.5.75-.45.75.1-.1.65-.45.45-.65.25"/><path fill-rule="evenodd" fill="#73623c" d="m89.15 30.2.9-.95.15-1.2 1.35.45.65 2.35 2.55 1.4 1.65.4 3 4.45.15 4.65-.15-.15-.25-.35-.1-.95-.25-2.2-1.1-1.95-1.25-.35-1.4-.6 1.4.6 1.25.35 1.1 1.95.25 2.2-1.35 2.05-1.5 1.35-1.75-.35-1.7 1-1.05.15-1.75 1.65-2.5.15-.05.25 2.25 2.3-2.9-.95-2.1-1.7-.35-1.95.05-.25.45-1.8-.1-.5-.15-.65.15.2.4-.05.05-1.2.7-.25-.05-.2.05-.05.35-.4.5-.65-.2-1.1-.55-.3.3-.5.7-.2.75-.35.2-.1 3-.1 1.65-2.1-.25-1.85-1.6-1.55-1.35.25h-.1l-.1-.35m.4 14.4-5.2-.6 5.2.6m2.95-8.4.75-.95.85-.5.95.45-.9.2-.4.5.4-.5.9-.2-.95-.45-.85.5-.75.95m4.2 1.6v-.05l-.85-1.9-.5.15H95.2l-.65.15-.6 1 .15 2.05.65.3.8.4 1.05-.35.1-1.75m-21.25.55-.5-.45-.55-1.25-.15.1-.35.2.05-.15.4-1.55.35-.2.35-.2.4-.25.9-.1-.85 1.15.1.3.1.55.3 1.15-.55.7M90.4 44.7l1.3-.2-1.3.2m5.95-4.3.25-.15.65-1.45v-1.05l-.8-1.95.8 1.95v1.05l-.65 1.45-.25.15m-1.9.15.2.15.95.05.4-.2-.4.2-.95-.05-.2-.15m-1-1.5.1.25-.1-.25m-.3-1.6.05.45-.05-.45"/><path fill-rule="evenodd" fill="#8c7748" d="m100.45 49.55-.75.2 1.2 1.2 3 .3 2.75 1.3-3.95-.9-5.6-.4 2.45.5 5.05 3.45 2.95.8 1.8 1.9-3.3-1.7-1.9-.3h-.25l-4.65-3.45-2.4-.25-1.2-.65-1.8-.45-.45-.7-2.45-1.15-1.3-.4-2.25-2.3.05-.25 2.5-.15 1.2-.05 2.55-1.55 2.65-.15.95-.4-1 1.15-2.85 1.2 4.1-.15-1.05 1.25 2.7.15-1.2.75 2.45 1.2m-5.9-.15.8-.15 3 1.4 2.55.3-2.55-.3-3-1.4-.8.15"/><path fill-rule="evenodd" fill="#aa9259" d="m89.15 30.2.1.35h.1l1.35-.25 1.6 1.55.25 1.85-1.65 2.1-3 .1-.2.1-.05-.35.95-1.05-.55-1.25v-.05l-2.95.5-.65-.45-.5-.35-.5-1.25-.75.55-.75.45-1.65-.6-.15.35-.2-.25v.55l-.5.9-1.25.45-.7-.7-.45.15.25-.8.8-.15.05-.8.95-.3.05-.2 1.2-.65.35-1.3 1.85.1.45.85v.05l-.3 1.9.3-1.9v-.05l-.45-.85-.3-.55-1.15-.15.55-1.1 2.8-.7 2.15 1.3.05.35.05.7.2.2.7.7 1.45-.25.1.2m2.5 3.2-.3-1.9-1.3-.55.65 3.2.95-.75m7.75 8.2.15.15.3.35 1.35-.4 2.05-.3-1.55.75-1.3 1.25-.7.7-1.05 1.55.9-.25-.6 1 1.1.5 2.35.5 1.15.2-3.35 1.3.7.5-.45.15-2.45-1.2 1.2-.75-2.7-.15 1.05-1.25-4.1.15 2.85-1.2 1-1.15 2.1-2.4M84.5 27.75l-1.1 1.2-.4 1.4.4-1.4 1.1-1.2m1.05 4.9-1.1.7 1.1-.7m3.65-.9-1.1 1.55-.05.05.05-.05 1.1-1.55m-3-.85-.3 1.1.3-1.1"/><path fill-rule="evenodd" fill="#754f22" d="m74.25 36.75-.8.9-.05 1-.05-.05-.3.55.05.05-.7.1-1-3.15 1.2.95.5-.65-.1-3.35 1 .8.7 1.15-.35.2-.4 1.55-.05.15.35-.2"/><path fill-rule="evenodd" fill="#896438" d="m68.1 57.45.2 1.6.35.25.05.2-2.5 2.15-1.2.3-4.2 2.1h-1.35l-2.2.75-2.4-.2h.95l3.9-1.2 2.15-1.05 3.25-1.1 2-1.8.7-1.85.3-.15"/><path fill-rule="evenodd" fill="#d9803e" d="m82.35 36.1-.05.55-.85 1.1-1.95.45-.75-.6.5-.05.25.15 1.35-.3.6-.8.9-.5"/><path fill-rule="evenodd" fill="#514428" d="m141.15 161.65-3.35-3.25-.85-.05 3.3-.65.9 3.95m-8.8 7.6.25-2.55-1.8-4.5-1.5-.5 3.1-.85.95 6-1 2.4"/><path fill-rule="evenodd" fill="#817241" d="m138.3 122.1.15.95-3.35-1.25-.35.3-3.65-2.4-3.7 1.4-.5 1.5 2.5 3.9 1.65 1-.15 1.7 2.2 2-.1.8-1 1.7 1.2 5.5q-3.85-1.35-7.5 3.95l-1.3 4.75q2.9 5.95 1.45 13.4l.75 3.05-.5 1.25-.6-.7-1.05 1.3-.25.1h-.05v-.1l-1-8.6-.85-3.4-.9-3.6-3.2-1.2-1.7 1.5-.1.9-1.9 2-.3 1-.8 1.75-.7.05-1.5 1.4-.05.3-.65-.1-.4-1.3 1.7-2.4 2.6-6.5 2.2-4.3 4.4-3.4.7-2.7 2.6-1.8.2-1.8 1.6-.7.6-2.2-2.5-6.7 1.25-5.75 1.8-2.6.05-.8v-.85.85l-3.3-2.7-2.8-5.05-2-6.15-.4-1.2-.45-.6-2.5-1.55-1.55-1-5.9-5.05-1.45-3.65.2-3.55.7-2.3.35-1.65.05.35.25-1.7 2.85 11.35 12.7 9.9 3.4 8.45 2.2 7.9 4.55 3.4 4.1 1.65m-51.45-18.15 7.5-4.7q.65-4.95 2.45-9.9 1.45-4.85 8.9-5.7l-.9 6.65-2.3 1.6 2.3 3.55-1.7 7.95-1-.2-1-.25-.3-3.75-5.05 4.05 1 2.15 3.6-.85-2.1 2.25-5.8-3.3-5.6.45m28.95-7.6 2.55 3.2-2.55-3.2m15.55 49-.2-.8 6.35 11.25-3-3.35-3.15-7.1m-2.7 2.8.55-4.15 1.15 13.2-1.7-9.05"/><path fill-rule="evenodd" fill="#7c6d3f" d="m75.25 119.75-1.1-4.7.35-1.1-1.25-2.95h-.95l-2-2.15-.2-2.2-.7-.9-.1-.65 4.3 3.4.25.4 3.05 4.6-1.65 6.25m-5.15-20.8-2.7-4.3.6-1.25.45-.9v-.3l-.15-1.1 1.2-1.9.05-.1.05-.2.25-1.3.35-.75 1.6-3.25-1.2 7.75.75 5.7 1.25 1.9-.75 1.25-1.3-.75-.25-.15-.2-.35M74 111h-.75.75"/><path fill-rule="evenodd" fill="#dbc442" d="m38.15 43.75.75-.2 1.2.45.4 1.3-.65.15-1.35-.55-.3-1.15h-.05"/><path fill-rule="evenodd" fill="#745e3a" d="M78.55 74.6q1.35.95 2.35 2.7.9-.35 1.8-2.1l.4-.85 1.85-1-1.7 2.35 1.5 1.4 4.55-2.6-1.95.6 1.2-6.4 1.4 2.75L91.1 65v-.1l2.15-4.9-1.3 7.3.3 5.05 2.25-4.95-.75 7.45 1.2 3L103 74.6q-5.4 3.6-5.4 6.65-7.8 3-13.2 8.75l-1.75 10.9 2.65 3.15 1.55-.1 5.6-.45 5.8 3.3-.15.2-11.7-1.3-7.25-3.75-7.65-1.2-2.65 2.3-.1-.55 1.35-3.55.2.35.25.15 1.3.75.75-1.25-1.25-1.9-.75-5.7 1.2-7.75-1.6 3.25 2.2-7.25.4.15 1.75-.75 1-1.3 1.85-1.55.7-1.45.45-.1M68 93.4l.45-1.2v.3l-.45.9m1.5-4.2.1-.3-.05.2-.05.1m7.05 11.05-3.95-1.3 3.95 1.3"/><path fill-rule="evenodd" fill="#55452b" d="m102.1 63.4.15 3.3-.5 2.05 1.8 2.2-.8-.05-2.5-2.15-.55-3.2-.15-.95-.9-2.8-2.4 4.2-.95-4.85-.4-2.05.4 2.05q-.3-1-.2.65l-.6 5.6-2.25 4.95-.3-5.05 1.3-7.3-2.15 4.9v.1l-1.15 6.45-1.4-2.75-1-1.95v-2.6l-2.6 9.2-1.85 1-.4.85q-.9 1.75-1.8 2.1-1-1.75-2.35-2.7l.9-.3 3-9.2V65l.8-5.5-.1-.2 5.05-3.2q0-.2 3.75-1.15 3.5.4 5.95 2.4l2.75 4.45 1.45 1.6m-4.05-2.9.6 1.3-.6-1.3M80.7 146.8q5.75 3.55 11.5 0 3.35-2.95 3.65-9l2.95 8.95.05.35.4 1.3-.15.3-3.6 4.3-3.7 1.3-.15.35-.85-.45-4.2-3.25.15-.2-.35-.2-.7-.95-2.1.1-2.25-2.05-.65-.85M12.3 81.5l12.85 5.3.45.2.05 1.35-.7.8-2.25 2.45-2.15.8-3.3-1.05-2.15.75-6.35.75-4.3 1.95-.7-.1.7-1.25 3.75-2.9 4.05-1.1.2-.75-4-.75-4.05.3L.8 89.9l-.55-.15 1.8-2.2L5.8 85.9l9.75-.7-.05-1.65-3.2-2v-.05"/><path fill-rule="evenodd" fill="#6a4520" d="m7.35 181.3 10.65 11 9.3 1.8 11.25-4.6-.35 2.4-1.65 2.5-7.3 3.7H24l-8-2.3-4.35-2.8-3.85-8.5-.45-3.2"/><path fill-rule="evenodd" fill="#79100b" d="m26.8 49.95-.15-.1-.75-1.5-.05-1.75 2.35-3.1 1.4-.45 1.35.85-.2 1-.6-.1-.35-.4-1.15 2.9.5 2.55-.4.15-.75.75-1.2-.8m11.05-1.45-4.1 2.5-.95 1.1-.15.2-1.35 1.4q-.95.8 2.85-4.85 2.8-.8 3.7-.35m-6.9 5.7-.35 1.2.25.75-.4 6.3 1.1 1.4-1.25.5-1.1-.85-.65-4.5-.05-1.35h-.35l1.8-1.3 1-2.15M9.4 79.15l3.55-1.5.1-.05 2.8-2.1 3.2-2.45 1.05-3.55.55-4.85L25.4 75.7l-1.45 5.05-1.9-.9-12.65-.7"/><path fill-rule="evenodd" fill="#a7150e" d="m21.65 37.5-1.8.6-5.1 2.8-4 3.2-2.5 3.8 2.5-3.8 4-3.2 5.1-2.8 1.8-.6M4.05 57.15l-1.2 2.95-.45-.05.2-5.35 4.85-9.15 5.6-4.95 2.2-1.05 3.35-2.05 3.6-1.35 3.1-.65.6.35-1.35 1-1.5.2.15 1.15 2.4 2 1.7.55 1.2.75-2.75 3.5.1 1.6.05 1.75.75 1.5.15.1-2.95 1.65-1.2-.6.35-1.2-2.1.9 2.9-7.7-2.4 1.7-5.55 7.65.7-6 6.05-6.45-3.4.7-10.95 7.3L7 49.7l-2.95 7.45m25.1-7.3 1.65-.55 3.85-2.95.2-.15.65-.9.4-1 1.55-.95.7.4h.05l.3 1.15 1.35.55.65-.15 2 3.95-.2.85-.8.15-1.9-1.7-1.45-.25-.3.2q-.9-.45-3.7.35-3.8 5.65-2.85 4.85l-.3.35-.05.15-1 2.15-1.8 1.3-.15-.05-2.7 2.3-.5 4.35-.35 1.15 1.05 3.45 5.95 7.1-.65 7.9-.05-.05-.15-.1-.65-.3.1-6.35-4.45-5.8 2.95 6.3-.1 5.2-4.5-2 1.45-5.05-4.75-11.05.3-3.05 1.95-2.15.6-1.1v-.4l-1.35 1.3-1.3.3-7.2 4.3-1.2 1.7-.6-.15-.5.65-1.45.2 1.15-.75.5-.6v-.75l-.95-.7-.15.5-1.15 1.5-.55-.45.45-.55.35-.9-.3-.15-1.05-.6-.65-.4-2.45.25.15-.5L8 61.4l1.95.35.6.05 1.4 1.15 1.15.25 8.45-4.95 1.7-2.65 2.35-3.8 1.5-1.05.7.15.2-.15.75-.75.4-.15m8.25-4.05 1.15 1.25 1.45-.2-.95-1-1.6-.1-.05.05M28.6 51l-.8-.1.8.1M11.2 62.8l-1.25-1.05 1.25 1.05M26.3 56h-.85l-1.95 1.95L25.45 56h.85"/><path fill-rule="evenodd" fill="#640d09" d="m22.65 51 1.2.6 2.95-1.65 1.2.8-.2.15-.7-.15-1.5 1.05-2.35 3.8-.85-.7-.8.05L22.65 51m8.9 12.85.1.15 1.5.25.25-.05 1.55-2.75 1.25-.5 1.5.6.05-1.1-1.7-1.2 3.2.7-.15.65-.5.2.05 1.45.3-.05 1 .3-.2.7-.8.75-.7 1.75-2-.6-1.15-.1-3.5.9-1.8-.2v-1.05l-.55-.9-.05-.25 1.1.85 1.25-.5m6.15-2.3v.05l-.15.95.15-.95v-.05M9.25 63.4 8 63.65l-.95 1-.45-.25 1.6-1.6 1.05.6m28.2 1.6.65-.65.55-.9v-1.2 1.2l-.55.9-.65.65m-.25-1.05.35-1.4-1.25-1q-.35.2-.75.35l-.65 1.95 1.2.8 1.1-.7M13.05 77.6l-1.4-3.8.3-2.15 2.5-5.75L17 68.1l.45 1.95-.9 1.6.5-1.7-1.85-1.65-1.1 4.45 1.75 2.75-2.8 2.1"/><path fill-rule="evenodd" fill="#85110c" d="m34.65 46.35-4.9-10-1.3-5.15 2.35 6.6 2.7 4.1.9.75.4-1.05-.9-4.5-.85-2.35-.9-5.05 3.35 10.65 1.95 2.95v.05l-1.55.95-.4 1-.65.9-.2.15m.45-3.1-.7-.6.7.6M1.75 80.05 1.7 75.6l-.9-4.8 3.3-6.55 5.85 6.85-1.55 2.8-.05-2-1.55-2.85-1.75-.55-1.25 2.35 1.25 6.1 2 2.3-2.65.35-.6.05H2.65l-.9.4"/><path fill-rule="evenodd" fill="#6c5237" d="m84.95 73.35 2.6-9.2v2.6l1 1.95-1.2 6.4 1.95-.6-4.55 2.6-1.5-1.4 1.7-2.35m17.15 29.85.35 5.4-3.95 8.45-5.7 3.9 3.4-9.15-5.4 4.45q-7.9-9.75-15.45-10.1l-1.5 2.75-.25-.4-4.3-3.4-.2-.9-.25-1.15 2.65-2.3 7.65 1.2 7.25 3.75 11.7 1.3.15-.2 2.1-2.25-3.6.85-1-2.15 5.05-4.05.3 3.75 1 .25m-24.9 18.75 1.3 1.55-2.15 6.65-.45.15 1.3-8.35"/><path fill-rule="evenodd" fill="#d31212" d="M4.05 57.15 7 49.7l1.25-1.8 10.95-7.3 3.4-.7-6.05 6.45-.7 6 5.55-7.65 2.4-1.7-2.9 7.7 2.1-.9-.35 1.2-1.05 3.95-.55.05-2.15 2.65L16.15 60l.8-1.55.75-2.7-.75-1.95-4.75 1.1-2.1 3.4.25-1.75-1.6-2.25-2.1.1-2.6 2.75"/><path fill-rule="evenodd" fill="#a98301" d="m71.55 124.55-.45 1-.35-.4-.55-.7-2.5.3-.7 1.95-.05.05.85 2.65-.1.05-1.7-.7-1.55-2.6.5-2.65 2.3-2.3 1.95.55.25.05 2.1 2.75"/><path fill-rule="evenodd" fill="#c79a01" d="m69.5 141.75.2.3.4.5-.15 1.7 1.15.7.95-.2.75-1-.25-.85.75-.25-.1.7.15.25-.45 1.1-.1.25-.8.7-.45.1-.85.2-1.35-1.2-.15-.9-.1-.65.4-1.45m8.45 5 .9.95.05 2.2-.5 2-.15.45-.4 1-.1.05-1 .5-.05-.25.4-1.7.3-.35-.3.35-.4 1.7.05.25.2 2.45.75 1.35.1.15.85-.6v.05l.15.8.05.2-.45.9-.5.65-.4.5-.25 1.4-1.2-.1.3-.85.4-1.2.45-.55-.45-.65-.5-.85-.35-2.2.1-1.7-.55-.45-.85-1.75v-.2l-.15-1.65-.1-.85.5-3.2.7.4-.05 1.95.4 2.7.5 1-.4 1.5v.55-.55l.4-1.5.05-.15.95.15.2-.25.35-4.55v-.05m-.35 17 .2.55.95.5h.15l1.15.05.7.25.4.45-1.25.4-.5.15h-.95l-.45-.05-.3-.3-1.2-1.2v-.2l1.1-.6m-.4-4.7.3-.45 1.3-.5-1.3.5-.3.45m23.3-13.85-.5-.05.1-2.25 1.4-2h.4l2.1-.2 1.9 1.8-.2 2.6-.8 1.6-1.5.75-.2-.55-.1-.1 1-.9.5-1.9-1.5-1.4-2 .5-.6 2.1m2.6 4.7.45-1.05.75 1.25.1 1.7 1.3 2.7.6 4.4-.1-.1-.1 3.3-.85-.6.25-.9-.1-.7-1.2.3-.95-.55-.95-.75-.5-2.6.1-2.1-.4.1-.15-.15-1.15-1 .65-1.05.65.6.35-.05.45-.05.8-.9v-1.8m-.1 4.05-1.1.25 1.1-.25V156l.55 2.5v.05l1.75.85.1.5-.1-.5-1.75-.85v-.05l.25-.3 1.15-.35.25.2-.2-2.15-1.25-2.6-.25.5-.5.15m1.4-2.15-.65 1.5.65-1.5m1.8 7-1-.75 1 .75"/><path fill-rule="evenodd" fill="#705427" d="m140.5 135.7-2.5.1-1.9 1-2.35 3.25-.55-.75v-.1l-1.2-5.5 1-1.7.1-.8 7.4 4.5m-18.2 18.5-1 .4-.4 1.2-1.9 2.7-1.5.4v.15l.1 1.15-1.9 2.7-1.6.6v1.3l-1.5 1.95-1.3-1.15-4.1-2.75.5-.75 2.3-2.5 1-.3.15-1 .05-.3 1.5-1.4.7-.05.8-1.75.3-1 1.9-2 .1-.9 1.7-1.5 3.2 1.2.9 3.6"/><path fill-rule="evenodd" fill="#c9bc78" d="m147.95 131.75 1.85 1.25 1.7 2.5-.3 4.2-1.6.5-3.7-1.3-.85-1.35.15-.1 1.05-2.2 1.7-3.5m-18.25 54.9 1.3 1.1.15.65-2.65 2.9-.2.2-1.35-1.15.85-.85 1.8-2.9.1.05"/><path fill-rule="evenodd" fill="#ac9c46" d="m131.15 188.4 1.75 5.8.05.1-.65.8-3.8-3.8 2.65-2.9M81.2 149.85l2.4-.15 2.1-.1.7.95-.5-.25-.75.1-1.25 2.15 1.25-2.15.75-.1.5.25.35.2-.15.2-2.1 2.65-.1.15-.55-.6.1-.6h-.05l-1.15-.9-2.9-1.2.7-.6h.65"/><path fill-rule="evenodd" fill="#eae1b3" d="m141.85 123 5.45-5.4 1.2-.3-.4 2.85-3.8 3.7-2.45-.85"/><path fill-rule="evenodd" fill="#8d7a3a" d="m145.05 137.55-.65.35-3.8-2.2h-.1l-7.4-4.5-2.2-2 .15-1.7-1.65-1-2.5-3.9.5-1.5 3.7-1.4 3.65 2.4-.75.6-1.35 2.05v4.05l7.95 5.8 5.65.65-1.05 2.2-.15.1M129.5 186.4l.2.25-.1-.05-1.8 2.9-.85.85L114.6 180l-20.3-17-.7-.65-3.05-2.95-1.95-1.85-1.75-1.7-1.9-1.8-.45-.45 2.1-2.65 4.2 3.25.85.45 1.15.55 2.35 1.2 1.15.55.6 4.5 28.55 25.85 4.05-.9m1.55-58.9.05-.5 1.55-2.25-1.55 2.25-.05.5"/><path fill-rule="evenodd" fill="#564a23" d="m114.6 180-1.2 2.05-1.25-.15-1.75-1.5-16.2-13.9-1.55-1.35-.15-1 1.1-1.8.7.65 20.3 17"/><path fill-rule="evenodd" fill="#514128" d="m105.7 83.65.35-2.6 1.8 1.4-.7 2.3-.2 3.55 1.45 3.65 5.9 5.05 1.55 1-.55 1.6-.95.15-3.1 2.95-3.1 3.8-4.45 3.9-1.85 4.5-3.5 3.9-.4 1.65-1.5 1.6.4.4-1.6 5.5-.5 1.8 1.2 4.1-.15 3.85.05.1q-.3 6.05-3.65 9-5.75 3.55-11.5 0l-1.5-1.9v-.05l.7-1.2-.15-2.45-1.9-1.7h-.7l-.3-2.05-1.75-1.35-.8-.15-1.5-.25-.25.05-1.3-4.7-.45-5.25.3-.25.45-1 .05-.1.2-.45-.05-.1.8-1.75.55-2.95v-.05l.6-2.9.45-1.2 1.1 4.7.05.1-1.5 4.4.45 9.7 8.5 6.25q3.8 2.35 9.2-18.7l.85-.55 5.7-3.9 3.95-8.45-.35-5.4 1 .2 1.7-7.95-2.3-3.55 2.3-1.6.9-6.65M91 239.15l-1.65 4.95-2.9-3.3 4.55-1.65"/><path fill-rule="evenodd" fill="#7b4218" d="m66.2 133.4-.25-1.05.55-1.8 1.2-1.1.15.05 2.35 7.45-.95 1.7-.2 2.15.45.95-.4 1.45.1.65-1.15 1.25-.4 2.6.3 2.3.9.85 1.5-.4 1.3-2.45-.1-2.25.45-.1.8-.7.1-.25.6 2.3-.55 2.8-1.25 2.5-1.75 1.15-2.05-1.55-.75-.6-.9-2.6v-.25l.05-2.05.6-1.85-1.5.55-1-.7-.4-.8-.75-1.6-.35-.7.45-1.1.85-.1-.05.2.9 1.5.85-.15.85-1.65.95-3.05-.35-4.55-.8.25-.35.75m2.45 8.75-1.5 1.45-.25.95.25-.95 1.5-1.45m1.45.4.25.3 2 .1.2-.05.25.85-.75 1-.95.2-1.15-.7.15-1.7M73 142l-1.45-.15-.45-.65.35-1.35L73 142m-.85 20.5-3.1-9.05 3.5 4.9-.5-1.5-.35-3.25 1.05-2.7 1.7-1.3.15 1.65-1.25 1.05-.4 2.45.4 2.7.85 1.25 1.2.1 1.35-.4.45.65-.45.55-.4 1.2-2.05-.4-.1-.1-1.45-1.35-.2-.6.2.6 1.45 1.35.1.1 2.05.4-.3.85-.05.15.15.75.35 1.8v.2l1.2 1.2-.4 1.9-2.65-2.3-2.5-2.85m4.35-17.6-1-.45.05-.85.95 1.3m.75 1.1.7.75v.05l-.35 4.55-.2.25-.95-.15-.05.15-.5-1-.4-2.7.05-1.95.35.2 1.35-.15m1.6 1.7.95 1 1.4 1.15h-.65l-.7.6 2.9 1.2 1.15.9h.05l-.1.6.55.6.1-.15.45.45 1.9 1.8-2.35.45-1.8 1.55-.9 1.7-.05-.05-.5-.8-.95-.45-.3-.15.05-.8-.1-.5-.2-1.1-.3-1.45-.2-.3-1-1.6.15-.45.5-2-.05-2.2m-2.1 6.2 1-.5.25 1 .65 2.85-.85.6-.1-.15-.75-1.35-.2-2.45m2.7-2.4.9 1.35v1.95l-.6.9.6-.9v-1.95l-.9-1.35m1.65 5-.8 1.75.8-1.75.2-.45.05-.1-.25.55m.35-4.45.2 1.95-.3 1.8v.15-.15l.3-1.8-.2-1.95M79.9 164.1l-.25-1.3.1-1.45.4-1.45.1-.45.6.35.1.2.65 1.65.35.85-.05 1.55-.35.55-1.65-.5m-1.45 2h.95l.5-.15 2.85 1.65-2.85-1.65 1.25-.4 1.4 1.7.1.1.1.25.55 1.3.4 1.1-.2.95-2.95-1.1-2-1.25 2 1.25 2.95 1.1-.2.85-.1.5-1.25.75-1.5-.7L78.9 170l-.35-1.4-.05-.25-.05-2.25m-4.25-5.8 1.95 2.25-1.95-2.25m10.75-6.25-1.95.6-1.65 1.15 1.65-1.15 1.95-.6"/><path fill-rule="evenodd" fill="#552811" d="m73.1 119.2-.55 2.95-.8 1.75-.15.55-.05.1-2.1-2.75h.1l3.55-2.6m-2.3 6.6.45 5.25 1.3 4.7-.45.1-1.35.8-.55.3-2.35-7.45-.05-.1-.85-2.65.05-.05.7-1.95 2.5-.3.55.7.05.65m8.4 19.05v.05l1.5 1.9.65.85 2.25 2.05-2.4.15-1.4-1.15-.95-1-.9-.95-.7-.75-.75-1.1-.95-1.3v-.8l.15-.15 1.05-1.1 1.1.05h.25l.15.2.35 1.6.6 1.45m16.65-7.05-.05-.1.15-3.85-1.2-4.1.5-1.8 6.55 12.8.1.15h-.4l-1.4 2-.1 2.25-.3-.05-.9 1.65-2.95-8.95m-30.6-2.4.95-2 .35-.75.8-.25.35 4.55-.95 3.05-.85 1.65-.85.15-.9-1.5.05-.2.55-3.65.5-1.05m7.55 3.05.45-.4 1.55.25.85.15.45 1.05-2 1.3-.15.4-.65 1.35v-.05l-.3-.5-1.55-2.15.1-.4 1.25-1m-8.4 5.95 1 .7 1.5-.55-.6 1.85-.05 2.05-1.85-4.05m4.65 9.05-1.15-1.55 2.05 1.55 1.75-1.15 1.25-2.5.55-2.8-.6-2.3.45-1.1.8 1.55.7.4-.5 3.2.1.85-1.7 1.3-1.05 2.7.35 3.25.5 1.5-3.5-4.9m.15-9.6.15.9 1.35 1.2.85-.2.1 2.25-1.3 2.45-1.5.4-.9-.85-.3-2.3.4-2.6 1.15-1.25m5.4 7.4v.2l.85 1.75.55.45-.1 1.7.35 2.2.5.85-1.35.4-1.2-.1-.85-1.25-.4-2.7.4-2.45 1.25-1.05m3.3 8.6.45.2.95-.15.25-.35.6.35-.4 1.45-.1 1.45.25 1.3-.1-.05-.9.75h-.15l-.95-.5-.2-.55-.45-1.35.1-.65.25-1.4.4-.5m7.55 16.4-1.35-1.2 1.05-2.2-.05-1.1v-.35l-.15-1.95-.35-.8-.2-.5-.4-.9 2.15-.75 2.5-1.9 1.55-2.45.35-2.75 3.05 2.95-1.1 1.8.15 1 1.55 1.35-1.9 2.1-2.15-2-.2-2.95 1.25-2.45-1.25 2.45.2 2.95 2.15 2-2.9 3.25-4.3-.45 4.3.45-3.95 4.4m-1.8-9.75-.05-.1-1.6-1.5.7-.55.3-1.1-.35-2.25-.05-.1-.8-1.35.9-1.7 1.8-1.55 2.35-.45 1.75 1.7 1.95 1.85-.35 2.75-1.55 2.45-2.5 1.9-2.15.75-.35-.75m16.55-13.35 1.15 1-.75 2.45-.25 2.4-4.05-2.05-1.15-.55 2.45-1.1 2.2-1.6.4-.55M83.65 165.4l.85.1 1.8-.95 1.6-2.1.95-3-.25-1.9.25 1.9-.95 3-1.6 2.1-1.8.95-.85-.1m1.75 3.1-1-.35 1 .35m5.9.35-4.5.15-1-.35 1 .35 4.5-.15m14.55 16.45.05 2-.9.7-.9.5.6.55.4-.1-.4 2.05-1.75.3-2.1-.55 5-5.45"/><path fill-rule="evenodd" fill="#ba9101" d="m74.3 135.95.8.15 1.75 1.35.3 2.05h.7l1.9 1.7.15 2.45-.7 1.2-.6-1.45.25-.8-.6-.8-.15-.2h-.25l-.9-2.1h-.85l-.45-1.05-.85-.15-.5-2.35m-3.55.7 2.05 1.8-1.25 1-.1.4-.35 1.35.45.65L73 142l.3.5V142.65v-.1l.65-1.35 1.75 1.45-.15.15v.8l-.05.85 1 .45.75 1.1-1.35.15-.35-.2-.7-.4-.7-.4-.8-1.55-.15-.25.1-.7-.75.25-.2.05-2-.1-.25-.3-.4-.5-.2-.3-.45-.95.2-2.15.95-1.7.55-.3m6.2 2.85h.2-.2m.8 13.9.1-.05.4-1 1 1.6-1.25.45-.25-1m.9 3.9 1.3-.5.1.5-.05.8.3.15.95.45.5.8-.8.5-.1-.2-.6-.35-.1.45-.6-.35-.25.35-.95.15-.45-.2.5-.65.45-.9-.05-.2-.15-.8m.25 7.5.9-.75.1.05 1.65.5.2.05.25.25-.25-.25-.2-.05.35-.55.05-1.55-.35-.85 1-.75.05.1.35 2.25-.3 1.1-.7.55 1.6 1.5.05.1-1.1.75-1.4-1.7-.4-.45-.7-.25-1.15-.05m1.1-6.7-.15 1-.3.45.3-.45.15-1m4.1 16.95-2.4.15-2.5-2.1-1.4-2.9-.5-2.55.4-1.9.3.3.45.05.05 2.25v.2l.05.05.35 1.4 1.55 2.35 1.5.7 1.25-.75.1-.5 1.8-.05.05 1.1-1.05 2.2"/><path fill-rule="evenodd" fill="#fed343" d="m83.5 170.95.2-.95-.4-1.1 1.3-.25.35.8.15 1.95v.35l-1.8.05.2-.85"/><path fill-rule="evenodd" fill="#fec70c" d="m72.55 135.75.25-.05 1.5.25.5 2.35-1.55-.25-.45.4-2.05-1.8 1.35-.8.45-.1m4.4 3.75.9 2.1-1.1-.05-1.05 1.1-1.75-1.45.15-.4 2-1.3h.85m2.3 14.45.2.3.3 1.45.2 1.1-1.3.5v-.05L78 154.4l1.25-.45m-2 7.8-.1.65.45 1.35-1.1.6-.35-1.8-.15-.75.05-.15 1.2.1m3.7-1.75.8-.5.05.05.8 1.35-1 .75-.65-1.65m2.35 8.9-.55-1.3-.1-.25-.1-.1 1.1-.75.35.75.4.9.2.5-1.3.25m16.95-21.45.65-2.2 1 .15 1.2 1.4-1.55 2.35-.05-.25-.3-1-.95-.45"/><path fill-rule="evenodd" fill="#b48b01" d="m100 145.15.5.05.4.05-.65 2.2-.45-.25-.55 1.2-.4-1.3-.05-.35.9-1.65.3.05m3.1 1.65.1.1.2.55.3 1.05-.15.35-.45 1.05-.3.6-.3.1-.85.25.25-.45-.35-1.25 1.55-2.35"/><path fill-rule="evenodd" fill="#5a2b12" d="m63.25 142 .75 1.6.35.8h.05l1.85 4.05v.25l.9 2.6.75.6 1.15 1.55 3.1 9.05-2.8-3.2-4.55-7.3-1-2.75-1.85-5.05.65-2.15.65-.05"/><path fill-rule="evenodd" fill="#6d2e16" d="m100.5 145.2.6-2.1 2-.5 1.5 1.4-.5 1.9-1 .9-1.2-1.4-1-.15-.4-.05m1 3.7.05.25.35 1.25-.25.45-.8 1.25-.65 1.05-.4.55-2.2 1.6-2.45 1.1-2.35-1.2 4.15-1 4.55-5.3"/><path fill-rule="evenodd" fill="#7e5125" d="m99.25 148.4.55-1.2.45.25.95.45.3 1-4.55 5.3-4.15 1-1.15-.55.15-.35 3.7-1.3 3.6-4.3.15-.3"/><path fill-rule="evenodd" fill="#ef4545" d="m37.4 45.8.05-.05 1.6.1.95 1-1.45.2-1.15-1.25m-8.95 36.95.1-5.2-2.95-6.3 4.45 5.8-.1 6.35-1.5-.65"/><path fill-rule="evenodd" fill="#483624" d="m89.75 261.6.5 12.75-.35 5.2-3.1 3.1-8.35-2.6L76 273.3l-2-11.2-8.05-11-3-8.45-3-1.85v-4.5l-.55-.55 15.45-16.8.65.6-.5 10.25 3.65 4.65 3.95 3.35.9 6.5 6.25 17.3M51.2 103.95l.15.1.05.05 1.9 2.8 2.8-3.1 2.2-6.75 1.65-1.5.3-1.05-.25-6.55.95-2.3 6.2-6.45 1.35-.8 3 .8.9.4-2.2 7.25-.35.75-.25 1.3-.1.3-1.2 1.9.15 1.1-.45 1.2-.6 1.25 2.7 4.3-1.35 3.55.1.55.25 1.15-.45.05-9.15 6.65-9.4 10.5.6-4.5 4.65-7.85V109l-.05.05-10.45 9.85-1.1-1.25-.25-1.65-1.3-2.6-.4-2.05-.05-.1-2.4-5.15-.25-2.9-1.25-2.65-1.35-1.4-.35-1.9-1.9-1.7-1-.6-.65-1.65-.7-1.75q4.95.7 11.3 5.4l3.35 4.75 4.65 2.25M70.45 84.3l-.6 3.3.6-3.3m-10.2 10.2.55-2.05-.55 2.05m-7.6 13.05.65-.65-.65.65m11.15 41.7 1 2.75 4.55 7.3 2.8 3.2 2.5 2.85 2.65 2.3.5 2.55 1.4 2.9 2.5 2.1 2.4-.15 1.35 1.2-27.8 30.95.05-4.6-.45-1.5-.4-2.9 1.2-11.7-.7-8.85.15-3.65-.45-.6-.2-1.3.55-1.75-.05-5.1.2-.95 3.05-4.35-.1-.65 1.6-5.45.95-1.25.75-3.35m.15 94.05-1-.65 1 .65"/><path fill-rule="evenodd" fill="#53351a" d="m74.15 115.05-.45 1.2-.6 2.9v.05l-3.55 2.6h-.1l-.25-.05-1.95-.55-2.3 2.3-.5 2.65 1.55 2.6 1.7.7-1.2 1.1-.55 1.8.25 1.05-.95 2-.6-.3-4.5.9-.15-2-1.85 2.65-12.8 6.15v.05l-7.3 5.55-4.45 5.05-.4-1.45 9.1-11.9-1.9-5.7.75-11.45.9-1.4 2.8-2.65 10.45-9.85h.05l-4.65 7.85-.6 4.5 9.4-10.5 9.15-6.65.45-.05.2.9.1.65.7.9.2 2.2 2 2.15h.95l1.25 2.95-.35 1.1"/><path fill-rule="evenodd" fill="#6f4722" d="m74 33.9.85-6.65q.3 1.8.9 3.45l1.55-3.75.65 1.05.8-4.2 3.3-8.5.7 1.5.35-2.7 1.45-4.3.3-6.6-.3-3.2.8 4.3.45 5.9 2 4.3 2.25 2.55.7 3.7.75-3.15 4 5.3-.1.65.55.15 1.25 3.4.05.05 2.15-2.1 2.95-4.75.75-4.6.2 11.45.5 3.3-1.55 4.65 1.45-2.45 1.55 8.25 1.7-3.35.25-2.85.95 12.35-1.15 1.8 1.45-.75.25 5.15 1.9-2.7 1.85-4.75 1.55-2.75-.7 2.75-.3 9.2.15 1.7-.7 4 .65.35.8-1.65.35 3.45.75.9.05 1.2-.05.05h-.05l-.75.45-.25 1.8.25-1.8.75-.45h.05l.05.1 1.8 7.45 3.95-2.75 3.15-4.65-2.05 12.45 2.3-2.9-.75 3.6.35 3-.6.85-2.35-1.65-2.6-.6-3.4-3.75-2.6-.85-1.65.45-2.7-2.7-3-.45-1.35-1.65-1.8-2.2.5-2.05-.15-3.3-.2-2.9.85-5.2.95.55.2.05h.25l1.9.3 3.3 1.7-1.8-1.9-2.95-.8-5.05-3.45-2.45-.5 5.6.4 3.95.9-2.75-1.3-3-.3-1.2-1.2.75-.2.45-.15-.7-.5 3.35-1.3-1.15-.2.45-2.85-2.45-1.15 1.3-1.25 1.55-.75-2.05.3-1.35.4-.3-.35-.15-4.65-3-4.45-1.65-.4-2.55-1.4-.65-2.35-1.35-.45-.15 1.2-.9.95-.1-.2-.4-1.15-2-.2-.05-.35-2.15-1.3-2.8.7-.55 1.1-.35-.05-1.4 1.4-.2 1.2-.05.2-.95.3-.05.8-.8.15-.25.8-.1.05-.6.85-.9.1-.4.25-.35.2-.7-1.15m24.2-5.35-.95-1.4.95 1.4m10.5 24.7-1.05 1.5 1.05-1.5m4.4 7.8-1.3 2.55 1.3-2.55M115.85 98l2.5 1.55.45.6.4 1.2-6.85 5.6-6.65 4.2 4-.8 5.1-2-8.05 7.6-9.05 5.5.25-1 .4-1.65 3.5-3.9 1.85-4.5 4.45-3.9 3.1-3.8 3.1-2.95.95-.15.55-1.6m-39.2-65.15-.9-2.15.9 2.15m-35.5 90.1-.75 11.45 1.9 5.7-9.1 11.9-.25-.85-1.85 4.35-4.45 5.85-1.1-2.3-.3 2.9-2.8 4.95-1.35 9.65 1.05 5.8-1.05 1.55h1.85l2.75 2.45 7.45 1.85 2.6-1.7 2.3-6.95.95 6.35-.45 3.6-11.25 4.6-9.3-1.8-10.65-11-1-7.05 2.55 4.45 2.45-18.75 1.2 6.35.95-8.2 3.85-12.2 1.25 4.35 4.3-9.05 4.5-8.25-.9 12.2 14.65-22.2"/><path fill-rule="evenodd" fill="#5c4a2e" d="m92.8 120.95-.85.55q-5.4 21.05-9.2 18.7l-8.5-6.25-.45-9.7 1.5-4.4-.05-.1 1.65-6.25-3.05-4.6 1.5-2.75q7.55.35 15.45 10.1l5.4-4.45-3.4 9.15m-15.6 1-.25-.3v-1.7 1.7l.25.3-1.3 8.35.45-.15 2.15-6.65-1.3-1.55m-1.95 8.5.65-.15-.65.15"/><path fill-rule="evenodd" fill="#4d3926" d="m103.85 192.7.2.6-.25 4.7-.7 3q-11.1 3.25-25.25 20.45l-.6-5.05 22.55-24.5 1.9.8h2.15"/><path stroke-width=".05" stroke-opacity=".424" stroke-linejoin="round" stroke-linecap="round" stroke="#630" fill="none" d="m74 33.9.85-6.65q.3 1.8.9 3.45l1.55-3.75.65 1.05.8-4.2 3.3-8.5.7 1.5.35-2.7 1.45-4.3.3-6.6-.3-3.2.8 4.3.45 5.9 2 4.3 2.25 2.55.7 3.7.75-3.15 4 5.3-.1.65.55.15 1.25 3.4.05.05 2.15-2.1 2.95-4.75.75-4.6.2 11.45.5 3.3-1.55 4.65 1.45-2.45 1.55 8.25 1.7-3.35.25-2.85.95 12.35-1.15 1.8 1.45-.75.25 5.15 1.9-2.7 1.85-4.75 1.55-2.75-.7 2.75-.3 9.2.15 1.7-.7 4m.65.35.8-1.65.35 3.45.75.9.05 1.2v.15l1.8 7.45 3.95-2.75 3.15-4.65-2.05 12.45 2.3-2.9-.75 3.6.35 3-.55.9 1.15 2.2 1.75-1.15 2.3-3.05-.5 4.85-1.45 4.05 1.95 6.55.95 1.35 4.8 3.2 3 7 1.8 1.2v2.2l-1.1 1.9-.4 2.5 1.1 2.3-.3 4.8.15.95 2.45.9.95-.95 5.45-5.4 1.2-.3-.4 2.85v.05l-3.2 6.85 2.7 2.85.4 1.7-.05.15 1.85 1.25 1.7 2.5-.3 4.2-1.6.5-3.7-1.3-.85-1.35-.65.35-3.8-2.2h-.1l-2.5.1-1.9 1-2.35 3.25 2.45 3.55.6 1.2.8.5 2.2 5.3.1 2 1.6 3.25 1.8 5.95.1 3.9-.7.1-1.4-4-.15-.15-3.35-3.25-.85-.05m-.25 0-.5-.05-.1 8.7-1 3.3-2.6 3.3-.5-.6.35-3.75.25-2.55-1.8-4.5-1.5-.5-.9-.3-1 .8-.8 2.15-.5 1.25.1.1-1.5 4.6-.9.3.4-3.9-.05-.4v-.1l-1-8.6-.85-3.4-1 .4-.4 1.2-1.9 2.7-1.5.4v.15l.1 1.15-1.9 2.7-1.6.6v1.3l-1.5 1.95 6.7 6.05 10.2 13.6.2.25 1.3 1.1.4.35-.25.3 1.75 5.8.05.1-.65.8-3.8-3.8-.2.2-1.35-1.15L114.6 180l-1.2 2.05-1.25-.15-1.75-1.5-3.55 3.85.1 2.8-.8 1.55.2 1.7-.6 1.4-1.7 1h-.2l.2.6-.25 4.7-.7 3-1.35 5.3-1.8 7.3-.6.5-.15.55.25.5-4.15 11.9m0 .5 1.25 6.5 8.5 15.55 5.75 13v11.75l-1 15.55-5.6 2-2.15.75-4.25-.75-1.25-7-6.8-23.3.5 12.75-.35 5.2.6-.65m6.75-251.75.95 1.4m1.35 13.2-.15-4.65-3-4.45-1.65-.4-2.55-1.4-.65-2.35-1.35-.45-.15 1.2-.9.95.1.35h.1l1.35-.25 1.6 1.55.25 1.85-1.65 2.1-3 .1-.2.1-.75.35-.7.2-.35.1v-.75l1.8-2.1-2.25 1.35-1.15.2-.8-.45-.05-.85-.3.15-.95-.25.1-.75-1.15.75-1-1.45m5.8 4.55.55.3.2 1.1-.5.65-.35.4-.05.05.05.2-.7.25-.05 1.2-.4.05-.15-.2.15.65.1.5-.45 1.8 5.2.6m4.2-8.7.4-.5.9-.2-.95-.45-.85.5-.75.95m4.2 1.6v-.05l-.85-1.9-.5.15H95.2v.05l.4 1.25v.35m1.1.15-.1 1.75-1.05.35-.8-.4-.65-.3-.15-2.05.6-1 .65-.15m-.15-.8 1.4.6 1.25.35 1.1 1.95.25 2.2.1.95.25.35.15.15.3.35 1.35-.4 2.05-.3-1.55.75-1.3 1.25-.7.7-1.05 1.55.9-.25-.6 1 1.1.5 2.35.5 1.15.2-3.35 1.3.7.5-.45.15-.75.2 1.2 1.2 3 .3 2.75 1.3-3.95-.9-5.6-.4 2.45.5 5.05 3.45 2.95.8 1.8 1.9-3.3-1.7-1.9-.3m-.25 0-.2-.05-.95-.55-.85 5.2.2 2.9.15 3.3-.5 2.05 1.8 2.2 1.35 1.65 3 .45 2.7 2.7 1.65-.45 2.6.85 3.4 3.75 2.6.6 2.35 1.65.05.05M89.05 30l-.4-1.15-2-.2.05.7.2.2m-5.8-.75.55-1.1 2.8-.7 2.15 1.3.05.35m2.4 1.35.1.2m-6.45 2.1.3-1.9v-.05l-.45-.85-.3-.55-1.15-.15-.35-.05-1.4 1.4-.2 1.2-.05.2-.95.3-.05.8-.8.15-.25.8.45-.15.7.7.45.45v.05l1.3.1v-2.5l.2.25m4.3.85 1.1-.7M83 30.35l.4-1.4 1.1-1.2m3.55 5.6.05-.05 1.1-1.55m-6.9 1.45.25-.2.15-.7m-1.25 4.3-.6.8-1.35.3-.25-.15-.3-.25.8-1.05.5.45.55.05-.2-1.2.95-.2.2.85-.3.4m-2 2.85-.15-.65.2-.15.4-.4 1.85.55.25 1.15m1.45-.4-.05-.45v-.15l.4-.75.65-.15.65-.15v.05l.65-1 .2.1m-2.5-3 1-.7m3.6 0-.35.45M85.9 32l.3-1.1M85.15 38l-.05-.05m.7 1.6-.05-.05-.6-1.5m-1.7 1.55v.05l.85 1.15.25.3m-.75.05-.95-.8-.5.1v.1l-.05.35-.05.25.9 1.3.85-.1-.05-.45-.15-.75m-2-.3.3-.35-.1-.5m-.3.95.1-.1m-.1.1-.4.45-1.3-1-.45-.35-.1-.55m-.6.5-.1.2-.5.6-.65-.45-.15-.6-.05-.1.3-.25.3-.3.85.9m-1.6-1.1-1.45-.15-.35-.35-.5-.45-.55-1.25-.15.1-.35.2.05-.15.4-1.55.35-.2.35-.2m-1.65 3.8 1.3.55.7.6-.25 1.05h-.05l-.9.05h-.1l-.3-1.3-.7-.4-.05-.05.3-.55.05.05M84.35 44l-.05.25.35 1.95 2.1 1.7 2.9.95m2.05-4.35-1.3.2m3.45 6.4-.45-.7-2.45-1.15-1.3-.4m6.8-13.05.8 1.95v1.05l-.65 1.45-.25.15m-4.65 4.1 1.05-.15 1.7-1 1.75.35 1.5-1.35 1.35-2.05m-4.3-.8.75-1.05.1-.8m-2.4.25-.05-.45m.4 1.85-.1-.25m2.55 1.5-.4.2-.95-.05-.2-.15m6.45 10.4-2.55-.3-3-1.4-.8.15m13.1 5.35 1.05-1.5M115 65h-.05l-.75.45-.25 1.8m1.1-2.3L115 65m-3.2-1.4 1.3-2.55M93.85 51.1l.35.5-2-.6-.4.6.3-.05 1.85 1.95 1.4-.6h3.2l4.2 2.4m-19.6 4 .1.2-.8 5.5v.1l-3 9.2-.9.3m29.3 7.85.35-1.65-.25-2.1m-19.3-27.2.75.2-.4-.9 1.2.9 1.6-.1m-6.4-.2.25 1.4-.4 2.4.35.7 2.2-2.4.85-2-2.1-.55-1.15.45-2.55.95-.75 2.15-.45-.25L81.6 53m-.75.05-1.1 1.3-1.8-.55-.7 1.9-.55-.35-.45-2.15-1.05-.3-.35 1.3-.4.85-.65-.15-.45-1.45-.95.35-1.3 2.1m10.3 2.35 1.35.45-1.4-2.2m.2-3.7.05.2m1.25-.65-1.3.45-.7.25m2.3 6.25-.4-.6m27.15 17.2.7-.15m-2.75 6.7-.7 2.3-.2 3.55 1.45 3.65 5.9 5.05 1.55 1 2.5 1.55-2.55-3.2m-7.6-15.55.05.35.25-1.7-.3 1.35m-34.05 34.25-.45 1.2-.6 2.9v.05l-.55 2.95-.8 1.75.05.1-.2.45-.05.1-.45 1-.3.25.45 5.25 1.3 4.7.25-.05 1.5.25.8.15 1.75 1.35.3 2.05h.7l1.9 1.7.15 2.45-.7 1.2v.05l1.5 1.9m15.15-9-.05-.1.15-3.85-1.2-4.1.5-1.8 1.6-5.5.2-.65.65-.35.25-1 .4-1.65 3.5-3.9 1.85-4.5 4.45-3.9 3.1-3.8 3.1-2.95.95-.15.55-1.6m8.55-13.6 1.7 3.3.4 1.4M72.4 39.3l-1-3.15 1.2.95.5-.65-.1-3.35 1 .8m2.35.6.6-.85.1-.05m-1.45 2.35-.1-.3.85-1.15m-.65 2-.1-.55m3.05-1.3-.05 1.2-1.3 2-1.3-.2m-.25-6.95.9 2.15M70 53.55l-1.55.45-10 5.9 4.35-3.3 4.25-2.3 2.55-2.05-.75-.45-5.2.15 3.3-.7 2.5-.15 1.4-.7h.05l-.4-1.3.35-2.45.05-.1.85-2.25v-.05l.05-.7-.05.05.05-.15-.6-.4H71l.2-.55-.6-.8.6-1.6.9-.6.3-.2m.2 2.7-.55-.1-.85.6m1.4-.5.75.1-.1.65-.45.45-.65.25-.35.1v-.1m4.85.1-.6-.45-.5.05.05 1.3.15.15.5.55-.2-1.1.6-.5.45.5M71 50.8l-.6 1.7v.05l-.4 1-.35 1.05-.05.05-1.15 1.65-.45.6.1.55.2 1.6.35.25.15.1.1.05.6-.95 1.05-1.65.55-.95m5.15-10.75.85.1m-1.4-8.75.3 1.15M8.25 47.9l2.5-3.8 4-3.2 5.1-2.8 1.8-.6m4.2 9.1-.1-1.6 2.75-3.5-1.2-.75-1.7-.55-2.4-2-.15-1.15 1.5-.2 1.35-1-.6-.35-3.1.65-3.6 1.35-3.35 2.05-2.2 1.05-5.6 4.95L2.6 54.7l-.2 5.35.45.05 1.2-2.95L7 49.7l1.25-1.8m18.55 2.05-.15-.1-.75-1.5-.05-1.75 2.35-3.1 1.4-.45 1.35.85-.2 1-.6-.1-.35-.4-1.15 2.9.5 2.55 1.65-.55 3.85-2.95-4.9-10-1.3-5.15 2.35 6.6 2.7 4.1.9.75.4-1.05-.9-4.5-.85-2.35-.9-5.05 3.35 10.65 1.95 2.95v.05l.7.4.75-.2 1.2.45.4 1.3 2 3.95-.2.85-.8.15-1.9-1.7-1.45-.25-.3.2-4.1 2.5-.95 1.1m-.15.2-1.35 1.4-.3.35-.05.15-.35 1.2.25.75-.4 6.3 1.1 1.4.1.15 1.5.25.25-.05 1.55-2.75 1.25-.5 1.5.6.05-1.1-1.7-1.2 3.2.7-.15.65-.5.2.05 1.45.3-.05 1 .3-.2.7-.8.75-.7 1.75-2-.6-1.15-.1-3.5.9-1.8-.2v-1.05l-.55-.9-.05-.25-.65-4.5-.05-1.35h-.35L28 57.6l-2.7 2.3-.5 4.35-.35 1.15 1.05 3.45 5.95 7.1-.65 7.9 1.25 1.1 1.75.7 3.6 1.4 1.85 2.3 2.15 1.15.65.5 1.3 3.3 2.2 2.25 1.2.8 2 4.55 2.45 2.05.15.1.05.05 1.9 2.8 2.8-3.1 2.2-6.75 1.65-1.5.3-1.05-.25-6.55.95-2.3 6.2-6.45 1.35-.8 3 .8.9.4.4.15 1.75-.75 1-1.3 1.85-1.55.7-1.45.45-.1M34.4 42.65l.7.6m-.45 3.1.2-.15.65-.9.4-1m2.25-.55h.05l.3 1.15 1.35.55.65-.15m-2.95 17.25.15-.95v-.05m-8.55-11.7-.4.15-.75.75-.2.15.8.1m-5.35 4.6 2.35-3.8 1.5-1.05.7.15m.2-.15-1.2-.8m-22.75 7.2 2.6-2.75 2.1-.1 1.6 2.25-.25 1.75 2.1-3.4 4.75-1.1.75 1.95-.75 2.7-.8 1.55 2.75-2.35L21.05 55l.55-.05.8-.05.85.7-1.7 2.65-8.45 4.95-1.15-.25-1.4-1.15-.6-.05m10.7 2.9.3-3.05 1.95-2.15.6-1.1v-.4l-1.35 1.3-1.3.3-7.2 4.3-1.2 1.7-.6-.15-.5.65-1.45.2 1.15-.75.5-.6v-.75l-.95-.7-.15.5-1.15 1.5-.55-.45.45-.55.35-.9-.3-.15-1.25.25-.95 1-.45-.25 1.6-1.6-.65-.4-2.45.25.15-.5L8 61.4l1.95.35m13.55-3.8L25.45 56h.85m12.35 6.25v1.2l-.55.9-.65.65m-.25-1.05.35-1.4-1.25-1q-.35.2-.75.35l-.65 1.95 1.2.8 1.1-.7m-29-1.15 1.05.6m-2.2 15.85-2-2.3-1.25-6.1 1.25-2.35 1.75.55 1.55 2.85.05 2 1.55-2.8-5.85-6.85L.8 70.8l.9 4.8.05 4.45.9-.4H3.8l.6-.05 2.65-.35 1.15-.2 1.2.1 3.55-1.5.1-.05-1.4-3.8.3-2.15 2.5-5.75L17 68.1l.45 1.95-.9 1.6.5-1.7-1.85-1.65-1.1 4.45 1.75 2.75 3.2-2.45 1.05-3.55.55-4.85m3.3 16.1 4.5 2m1.5.65.65.3.15.1.05.05m-5.65 2.95L12.3 81.5v.05l3.2 2 .05 1.65-9.75.7-3.75 1.65-1.8 2.2.55.15 3.6-1.65 4.05-.3 4 .75-.2.75-4.05 1.1-3.75 2.9-.7 1.25.7.1 4.3-1.95 6.35-.75 2.15-.75 3.3 1.05 2.15-.8 2.25-2.45.7-.8L25.6 87l-.45-.2m-12.1-9.2 2.8-2.1m-14.1 4.55-1.55.7-.2.65.85-.2.15-.05 2.8-1.5M1 81.15l1.25.45 4.95-.9 5.1.8m1.25 14.4L12 97.45l.35.8L18 97l4.55-.05 2.25-2.7 4.6-1.6 1.45-1.5m-10.3 1.25-2.95 1-2 .3-2.05 2.2m10.4-15.15-1.9-.9-12.65-.7m20.55 4.25-1.5-.65m3.45 8.8.7 1.75.65 1.65 1 .6 1.9 1.7.35 1.9 1.35 1.4 1.25 2.65.25 2.9 2.4 5.15.05.1.4 2.05 1.3 2.6.25 1.65 1.1 1.25 10.45-9.85.05-.05v.05l-4.65 7.85-.6 4.5 9.4-10.5 9.15-6.65m.45-.05-.25-1.15-.1-.55 1.35-3.55-2.7-4.3.6-1.25.45-.9v-.3l-.15-1.1 1.2-1.9.05-.1.05-.2.25-1.3.6-3.3m-38.7 6.85.15.4m-2.5 1.1 3.2.65m45.35-39.5-1.7-.6m-5.35-2.8.1.4m2.35 2.65L75 52.8l.2.1m-3.65 6.6-.05-.15-.75-1.4-.2-1.1m1 2.65.05.7-1.15-.6-.8.15-.05.75-.7-.25-.2-.75-2.5 2.15-1.2.3-4.2 2.1h-1.35l-2.2.75-2.4-.2h.95l3.9-1.2 2.15-1.05 3.25-1.1 2-1.8.7-1.85-1.5.7-1.85.3-2.65 1 2.3-1.4 2.35-.8 2-1.1m12.95 1.95-1.95-.65-4.3-.1-2.25 1.35-1.35.65m-2.05-1 .2.2.7.85.05.05m-2.65-2 .3-.15m.55 1.85.05.2m.95.25.05-1.05m2.9 40.25 3.95 1.3m-15.75-7.8-.55 2.05m13.9 20.55.35-1.1-1.25-2.95h-.95l-2-2.15-.2-2.2-.7-.9-.1-.65-.2-.9m4.15 6.8H74m-3.9-12.05.2.35.25.15m-2.85 30-1.7-.7-1.55-2.6.5-2.65 2.3-2.3 1.95.55m.25.05h.1m7.4-1.85v1.7l.25.3 1.3 1.55-2.15 6.65-.45.15-.65.15M53.3 106.9l-.65.65m-7.8 11.35-2.8 2.65-.9 1.4-14.65 22.2.9-12.2-4.5 8.25-4.3 9.05-1.25-4.35-3.85 12.2-.95 8.2-1.2-6.35L8.9 178.7l-2.55-4.45 1 7.05.45 3.2 3.85 8.5 4.35 2.8 8 2.3h5.25l7.3-3.7 1.65-2.5.35-2.4.45-3.6-.95-6.35-2.3 6.95-2.6 1.7-7.45-1.85-2.75-2.45H21.1l1.05-1.55-1.05-5.8 1.35-9.65 2.8-4.95.3-2.9 1.1 2.3 4.45-5.85 1.85-4.35.25.85.4 1.45 4.45-5.05 7.3-5.55v-.05l12.8-6.15L60 134l.15 2 4.5-.9m.6.3.95-2-.25-1.05.55-1.8 1.2-1.1.15.05-.05-.1-.85-2.65.05-.05.7-1.95 2.5-.3.55.7.35.4m.5-1.1.15-.55m.8 11.85-.45.1-1.35.8-.55.3-.95 1.7-.2 2.15.45.95.2.3.4.5.25.3 2 .1.2-.05.75-.25V142.5l-.3-.5-1.45-.15-.45-.65.35-1.35.1-.4 1.25-1 .45-.4 1.55.25m-4.05-13.15.05.65m-4.6 7.6.35-.75.8-.25.35 4.55-.95 3.05-.85 1.65-.85.15-.9-1.5.05-.2-.85.1-.45 1.1.35.7.75 1.6.4.8 1 .7 1.5-.55.25-.95 1.5-1.45m-5.4-.15-.65.05-.65 2.15 1.85 5.05 1 2.75 4.55 7.3 2.8 3.2m-3.1-9.05-1.15-1.55-.75-.6-.9-2.6v-.25l-1.85-4.05h-.05l-.35-.8m.2-3.5.55-3.65.5-1.05m4.25 6.35-.4 1.45.1.65.15.9 1.35 1.2.85-.2.45-.1.8-.7.1-.25.45-1.1-.15-.25.1-.7m-3.2-.1-.15 1.7 1.15.7.95-.2.75-1-.25-.85m-5.65 1.65-.6 1.85-.05 2.05m2.95-4.6-1.15 1.25-.4 2.6.3 2.3.9.85 1.5-.4 1.3-2.45-.1-2.25m5.6-6.25H76.1l-2 1.3-.15.4m3.9.4h.25l.15.2.6.8-.25.8.6 1.45m-3.5-2.2 1.05-1.1 1.1.05m-1.75-2.1-.45-1.05-.85-.15m-3.35 1.55L73 142m2.55 1.6v-.8l.15-.15m.8 2.25-1-.45.05-.85.95 1.3.75 1.1.7.75.9.95.95 1 1.4 1.15 2.4-.15-2.25-2.05-.65-.85m-5.15-.85.35.2 1.35-.15m-1.7-.05-.7-.4-.5 3.2.1.85.15 1.65v.2l.85 1.75.55.45v-.55l.4-1.5-.5-1-.4-2.7.05-1.95m-2.2-2.35.8 1.55.7.4m-6.95 6.35 2.05 1.55 1.75-1.15 1.25-2.5.55-2.8-.6-2.3m5.05 2.05v.05l-.35 4.55-.2.25-.3.35-.4 1.7.05.25 1-.5.1-.05.4-1 .15-.45.5-2-.05-2.2m-5.55-5.15.65-1.35m4.3.6.35 1.6m-10.75-13.9 2.35 7.45m11 12.9h-.65l-.7.6 2.9 1.2 1.15.9 1.25-2.15.75-.1.5.25-.7-.95-2.1.1m-5.6 4.7-.25-1m1.5.55.2.3.3 1.45.6-.9v-1.95l-.9-1.35m-.2 2.45-1-1.6m-.85-.75-.95-.15-.05.15m.35 6.8-1.35.4-1.2-.1-.85-1.25-.4-2.7.4-2.45 1.25-1.05m-.15-1.65-1.7 1.3-1.05 2.7.35 3.25.5 1.5.2.6 1.45 1.35.1.1 2.05.4.4-1.2.45-.55-.45-.65-.5-.85-.35-2.2.1-1.7m2.65 3.65v-.05l-.85.6-.1-.15-.75-1.35-.2-2.45m3.2 2.9-.2-1.1m.2 1.1.1.5-.05.8.3.15.8-1.75.25-.55v-.15l.3-1.8-.2-1.95m-1.9 7.5-.25.35-.95.15-.45-.2-.4.5-.25 1.4-.1.65.45 1.35.2.55.95.5h.15l.9-.75.1.05-.25-1.3.1-1.45.4-1.45.1-.45.6.35.1.2.65 1.65.35.85-.05 1.55-.35.55-1.65-.5m-.35-4.55.3-.45.15-1m-1.2 0-1.3.5-.3.45m.7.8.5-.65.45-.9-.05-.2-.15-.8m3.1 2.2-.5-.8-.95-.45m-1.65-1L78 154.4m-14.2-5.15-.75 3.35-.95 1.25-1.6 5.45.1.65-3.05 4.35-.2.95.05 5.1-.55 1.75.2 1.3.45.6-.15 3.65.7 8.85-1.2 11.7.4 2.9.45 1.5-.05 4.6 27.8-30.95m-1.35-1.2-2.4.15-2.5-2.1-1.4-2.9-.5-2.55-2.65-2.3-2.5-2.85m3.9-.85-.05.15.15.75.35 1.8m1.2 1.4-1.2-1.2v-.2m1.95 1.75-.45-.05-.3-.3-.4 1.9m3.85-2.1-.4-.45-.7-.25-1.15-.05m1 1.15-.5.15h-.95l.05 2.25.05.25 2 1.25 2.95 1.1.2-.95-.4-1.1-.55-1.3-2.85-1.65 1.25-.4 1.4 1.7m1.1-.75-.05-.1-1.6-1.5-.25-.25-.2-.05m-3 4 .35 1.4 1.55 2.35 1.5.7 1.25-.75.1-.5.2-.85m-5-2.6v.2l.05.05m-6-10.25-3.5-4.9m7.1 9.1-1.95-2.25m2.15.5-.3.85m51.25-46.4-.05.8-1.8 2.6-1.25 5.75 2.5 6.7-.6 2.2-1.6.7-.2 1.8-2.6 1.8-.7 2.7-4.4 3.4-2.2 4.3-2.6 6.5-1.7 2.4.4 1.3m.65.1.05-.3 1.5-1.4.7-.05.8-1.75.3-1 1.9-2 .1-.9 1.7-1.5 3.2 1.2.9 3.6m10.8-23-2.2-2 .15-1.7-1.65-1-2.5-3.9.5-1.5 3.7-1.4 3.65 2.4.35-.3 3.35 1.25m-11.15-7.8v-.85m-8.1-13.05 2 6.15 2.8 5.05 3.3 2.7m7.45 6.85-.75.6-1.35 2.05-1.55 2.25-.05.5m15.2 7.75 1.7-3.5m-14.85-.55 7.4 4.5m-7.3 3.5-1.2-5.5 1-1.7m.75 8.05-.55-.75v-.1m11.7-12.15-2.45-2.5-1.55-.6m4.15 13.6.15-.1 1.05-2.2m-48.55-13.8 9.05-5.5 8.05-7.6-5.1 2-4 .8 6.65-4.2 6.85-5.6-.4-1.2-.45-.6M100 145.15l.5.05.6-2.1 2-.5 1.5 1.4-.5 1.9-1 .9.1.1.2.55 1.5-.75.8-1.6.2-2.6-1.9-1.8-2.1.2h-.4l-1.4 2-.1 2.25-.3-.05-.9 1.65.05.35.4 1.3.55-1.2.45.25.95.45.3 1 .05.25.35 1.25-.25.45-.8 1.25-.65 1.05 1.15 1 .15.15.4-.1 1.1-.25.5-.15.25-.5.65-1.5 1.3 2.7.6 4.4-.1-.1-.1 3.3 1.1.75m-6.3-17.6-.4-.05m2.6 1.6-1.2-1.4-1-.15m-2.1 1.5-2.95-8.95m6.05 3.1-.1-.15-6.55-12.8m8.3 20.9.15-.35-.3-1.05m-.3 2.45.45-1.05.75 1.25.1 1.7m3.3 10.3 2.3-2.5 1-.3.15-1m-9.5-7.45.85-.25.3-.1.3-.6v1.8l-.8.9-.45.05-.35.05-.65-.6m1 .55.65-2.05m-.6 3.6-.1 2.1.5 2.6.95.75.95.55 1.2-.3-.1-.5-1.75-.85v-.05L103 156v-2.05m2.2 4.1 1 .75m-1-.75-.25-.2-1.15.35-.25.3m1.85 1.4.1.7-.25.9.85.6m-2.35-8.8 1.25 2.6.2 2.15m7.4 8.7-1.3-1.15-4.1-2.75m-1.95-1.35-.15-.1-4.75-2.4-4.05-2.05m3.9-3.8-.4.55-2.2 1.6-2.45 1.1 1.15.55m-4.5-2.65 3.7-1.3 3.6-4.3.15-.3m-4.1 8-2.35-1.2-1.15-.55-.85-.45-4.2-3.25-2.1 2.65.45.45 1.9 1.8 1.75 1.7 1.95 1.85 3.05 2.95.7.65 20.3 17m-14.25-21 .25-2.4.75-2.45m-14.95-3.6.35.2-.15.2m-2.1 2.65-.1.15-.55-.6.1-.6h-.05m-2.55 3.25 1.65-1.15 1.95-.6m-3.6 1.9-.05.1-.2.45m.7 3.05.9-1.7 1.8-1.55 2.35-.45m-5.1 3.65.05.05.8 1.35.05.1.35 2.25-.3 1.1-.7.55m6.6-7.35.25 1.9-.95 3-1.6 2.1-1.8.95-.85-.1m.35 1.85 2.15-.75 2.5-1.9 1.55-2.45.35-2.75m.65 1.8-1.25 2.45.2 2.95 2.15 2 1.9-2.1-1.55-1.35-.15-1 1.1-1.8m-9.6 4.9.4.9 1 .35m-1-.35.2.5.35.8.15 1.95 4.3.45 2.9-3.25m-9.55-1-.1-.25-.1-.1m2.55 4.5.05 1.1-1.05 2.2m1-3.65v.35m.7-3.1 1 .35 4.5-.15m-7.65-2.35.35.75m16.85 23.5-1.05 1.15 1.9.8h2.15m3-8.45-.05-.4m.05.4-1 1.05.05 2-.9.7-.9.5.6.55.4-.1 1.05-.35m-5.3 2.15 2.1.55 1.75-.3.4-2.05M94.2 166.5l16.2 13.9m-4.55 4.9-5 5.45m-11.45-18.9-3.95 4.4m40.65-10.65-.6-.7-1.05 1.3-.25.1h-.05m5.55 20.35-.1-.05-1.8 2.9-.85.85m4.2-1.95-.15-.65m-2.5 3.55 2.65-2.9M82.6 237.8l.9 6.5 6.25 17.3v-1.5m-11.9-38.65.9 7.1 3.75 8.5.1.75-3.95-3.35L75 229.8l.5-10.25m-.65-.6-15.45 16.8-13.2 14.3-4.8 3.3-8.75 1.25-3-1.75-.75-6.8 2.75-8.5 1.15-2.65 24.85-27.7m2.3 29.1v4.5l3 1.85 1 .65m-1-.65 3 8.45 8.05 11 2 11.2 2.45 6.75 8.35 2.6 3.1-3.1m-3.1 3.1 2.45.75m-3-.25.55-.5m-9.55-66.25-2.4 2.55M99.8 191.9l-22.55 24.5.6 5.05"/><path stroke-width=".05" stroke-opacity=".424" stroke-linejoin="round" stroke-linecap="round" stroke="#630" fill="none" d="m74.25 36.75-.8.9-.05 1m-1 .65.7-.1m.75 1.8.35-.1m-3.3 5.65.9-1 .25 2.7"/><path stroke-width=".05" stroke-linejoin="round" stroke-linecap="round" stroke="#a39550" fill="none" d="m95.3 61.15-.4-2.05m.4 2.05.95 4.85m2.4-4.2-.6-1.3m-1.5 7-.3-1.5m3.45-.45-1.05-3.75"/><path stroke-width=".05" stroke-linejoin="round" stroke-linecap="round" stroke="#f09" fill="none" d="m9.95 61.75 1.25 1.05"/><path stroke-width=".05" stroke-linejoin="round" stroke-linecap="round" stroke="#fdf9f7" fill="none" d="m81.05 35.9-.75.35"/><path fill-rule="evenodd" fill="#c2af5f" d="m138.45 149.2.05 7.95q-.9-5.3-7.1-12.8l.2-4.45 3.35 2.65 3.5 6.65M88.95 86.15l-4.05 5.2q3-3.1 9.25-5.85l2.1-3-2.6.55-4.7 3.1"/></g><g id="d" fill-rule="evenodd"><path fill="#7b4218" d="M2.3 87.25 51.2 32.4l-1.85-10.35-.65-3.6L65.3 0l16.2 13.9-59.35 64.4-2.9-2.15-4.25 5.4-.6 4-1.9 1.3-8.75 1.25-1.45-.85m24-24.4-2.5 1.35-.35 4.35h4.05l-1.2-5.7"/><path fill="#e3ab18" d="m48.7 18.45.65 3.6-37.05 42.4L.25 81.8 0 79.55l2.75-8.5L3.9 68.4l44.8-49.95"/><path fill="#be8617" d="M49.35 22.05 51.2 32.4 2.3 87.25l-1.55-.9-.5-4.55L12.3 64.45l37.05-42.4"/><path fill="#661140" d="m14.4 85.55.6-4 4.25-5.4 2.9 2.15-4.85 5.25-2.9 2m11.9-22.7 1.2 5.7h-4.05l.35-4.35 2.5-1.35"/></g><g id="e" fill-rule="evenodd"><path fill="#241f17" d="M57.75 3.4h1.55l3.95 8.5L0 81.9l30.4-36-7.4 4.9 6.9-6.9q.6-4.5-8 2.5l5.05-4.7q10.8-8.7 5.2.7l13.1-12.7 4.6-5.8q3.65-10.55-10.8 4.25l9.7-12.55q8.3-3.6 9-12.2" transform="translate(0 -3.4)"/><path fill="#151017" d="M72.35 15.35v1.75q-8.05 1.7-10.7 10.15l-11.5 10.9q13.2-15.9 3.1-11.15l-5.3 5.15-11.3 14.3q8.75-6.55 1.25 5.1l-4.15 5.5q6.05-9.25 1.65-8.15l-6.2 7.55 4.15-7.85L.65 82.45l63.2-70 8.5 2.9" transform="translate(0 -3.4)"/></g><g id="f"><path stroke-width=".5" stroke-linejoin="round" stroke-linecap="round" stroke="#4d3e26" fill="none" d="m.25 14.1.75 1"/><path stroke-width=".05" stroke-linejoin="round" stroke-linecap="round" stroke="#dcc441" fill="none" d="m19.3 3.25 1.4 1.35.1 1.5M12.85 0l-2.2.5m10.15 6-1.45 1.6m-4.45-7L13.1 0M7.15 4.7 7 5.6l-.85.1m3.4-4-1.15 1"/><path fill-rule="evenodd" fill-opacity=".471" fill="#6a4520" d="m98.25 71.45.7-.2.7.2.3.5-.3.5-.7.2-.7-.2-.3-.5q0-.3.3-.5m-2.65 14.8.7.25.3.6-.3.6-.7.25-.7-.25q-.3-.25-.3-.6t.3-.6q.3-.25.7-.25m5.15-4.6q0-.4.35-.7.4-.3.9-.3t.85.3q.4.3.4.7l-.4.7q-.35.3-.85.3l-.9-.3q-.35-.3-.35-.7M88.9 82l-1.8.35-1.8-.35q-.75-.3-.75-.75t.75-.8l1.8-.3 1.8.3q.75.35.75.8 0 .45-.75.75m1.6 12.05q0 .5-.45.8l-1.1.35-1.1-.35q-.45-.3-.45-.8t.45-.85q.45-.3 1.1-.3.65 0 1.1.3.45.35.45.85m2.8-2.65-.6.15-.6-.15-.25-.4q0-.25.25-.4l.6-.15.6.15.25.4-.25.4m-.9 4.6q.35-.3.85-.3t.8.3q.35.3.35.7l-.35.7q-.3.3-.8.3l-.85-.3q-.3-.3-.3-.7 0-.4.3-.7m26.4-6.75q.9.85.9 2t-.9 1.95q-.85.85-2.05.85-1.2 0-2.1-.85-.85-.8-.85-1.95t.85-2q.9-.8 2.1-.8 1.2 0 2.05.8m1.3 6.9q-.45-.35-.45-.85t.45-.9q.45-.35 1.1-.35.65 0 1.1.35.45.4.45.9t-.45.85q-.45.4-1.1.4-.65 0-1.1-.4M87.2 113.3l1-.3q.6 0 1 .3.4.35.4.8 0 .45-.4.75-.4.35-1 .35t-1-.35q-.4-.3-.4-.75t.4-.8m.9 6.9q1 0 1.7.8.7.85.7 2t-.7 1.95q-.7.85-1.7.85t-1.7-.85q-.7-.8-.7-1.95t.7-2q.7-.8 1.7-.8m1.7 9.25q.35.35.35.8l-.35.75q-.3.35-.75.35t-.8-.35q-.3-.3-.3-.75t.3-.8q.35-.3.8-.3.45 0 .75.3m-.2 6.85q.95 0 1.6.8.65.85.65 2t-.65 1.95q-.65.85-1.6.85-.95 0-1.6-.85-.65-.8-.65-1.95t.65-2q.65-.8 1.6-.8m7.75 72.6q-.65.9-1.6.9-.95 0-1.6-.9-.65-.9-.65-2.15t.65-2.15q.65-.9 1.6-.9.95 0 1.6.9.65.9.65 2.15t-.65 2.15M89 217.05q0-1.4 1.05-2.4 1.1-.95 2.6-.95t2.55.95q1.1 1 1.1 2.4t-1.1 2.35q-1.05 1-2.55 1-1.5 0-2.6-1-1.05-.95-1.05-2.35m4.85 14.3q.55.75.55 1.8t-.55 1.8q-.55.75-1.3.75t-1.3-.75q-.55-.75-.55-1.8t.55-1.8q.55-.75 1.3-.75t1.3.75m-1.45-2.45q-.45.4-1.15.4t-1.2-.4q-.45-.4-.45-1t.45-1q.5-.4 1.2-.4t1.15.4q.5.4.5 1t-.5 1m5.6 12.2-.25 1.25-.6.55q-.35 0-.6-.55l-.25-1.25q0-.75.25-1.3.25-.5.6-.5l.6.5.25 1.3m.5 4.8q.25-.2.6-.2l.6.2.25.5-.25.5-.6.2q-.35 0-.6-.2l-.25-.5q0-.3.25-.5m4 4.2-.5.3q-.3 0-.5-.3l-.2-.7.2-.7q.2-.3.5-.3l.5.3.2.7-.2.7m-.05 13.5-.15.5-.3.2q-.2 0-.35-.2l-.1-.5.1-.5q.15-.2.35-.2l.3.2.15.5m-3.75-10.7.5-.3q.3 0 .5.3l.2.7-.2.7q-.2.3-.5.3l-.5-.3-.2-.7.2-.7m1.6 17.7q-.45.7-1.1.7-.65 0-1.1-.7-.45-.7-.45-1.7t.45-1.7q.45-.7 1.1-.7.65 0 1.1.7.45.7.45 1.7t-.45 1.7m4.05 6.25q-.3.55-.8.55t-.85-.55q-.3-.5-.3-1.25t.3-1.3q.35-.5.85-.5t.8.5q.35.55.35 1.3l-.35 1.25m-.1 7.25q.4 0 .7.35l.3.9-.3.85q-.3.4-.7.4l-.7-.4q-.3-.35-.3-.85t.3-.9q.3-.35.7-.35" transform="translate(-71.35 -27.35)"/></g><path stroke-width=".5" stroke-linejoin="round" stroke-linecap="round" stroke="#6a4520" fill="none" d="m103.1 15.95.2 11.45.5 3.3-1.55 4.65 1.45-2.45 1.55 8.25 1.7-3.35.25-2.85.95 12.35-1.15 1.8 1.45-.75.25 5.15 1.9-2.7 1.85-4.75L114 43.3l-.7 2.75-.3 9.2.15 1.7-.7 4 .65.35.8-1.65.35 3.45.75.9.05 1.2-.05.05.05.1 1.8 7.45 3.95-2.75 3.15-4.65-2.05 12.45 2.3-2.9-.75 3.6.35 3-.6.85.05.05 1.15 2.2 1.75-1.15 2.3-3.05-.5 4.85-1.45 4.05 1.95 6.55.95 1.35 4.8 3.2 3 7 1.8 1.2v2.2l-1.1 1.9-.4 2.5 1.1 2.3-.3 4.8.15.95 2.45.9 6.4-6.35 1.2-.3-.4 2.9-3.2 6.85 2.7 2.85.4 1.7-.05.15 1.85 1.25 1.7 2.5-.3 4.2-1.6.5-3.7-1.3-.85-1.35-.65.35-3.8-2.2-2.6.1-1.9 1-2.35 3.25 2.45 3.55.6 1.2.8.5 2.2 5.3.1 2 1.6 3.25 1.8 5.95.1 3.9-.7.1-1.4-4-.15-.15-.9-3.95-3.3.65-.75-.05-.1 8.7-1 3.3-2.6 3.3-.5-.6.35-3.75 1-2.4-.95-6-3.1.85-.9-.3-1 .8-1.3 3.4-.6-.7-1.05 1.3-.25.1h-.05v-.1l-1-8.6-.85-3.4-1 .4-.4 1.2-1.9 2.7-1.5.4v.15l.1 1.15-1.9 2.7-1.6.6v1.3l-1.5 1.95 6.7 6.05 10.4 13.85 1.3 1.1 1.9 6.45.05.1-.65.8-3.8-3.8-.2.2-13.7-11.5-1.2 2.05-1.25-.15-1.75-1.5-10.6 11.5 1.9.8h2.15l.2.6-.25 4.7-3.85 15.6-.6.5-.15.55.25.5-4.15 11.9v.5l1.25 6.5 8.5 15.55 5.75 13-.15 14.45h1.15l6.1.6 2.65.65q41.5-.3 4.85 1.8 2.9 1.4 5.35 3.5l4.05.4-3.15.4 1.3 1.4-.1.65 8.55 1.9-2.2.8-6.9 1.35-3.1.25-1.35.6-1.45.35-1.05.15.35.45.55.85 1.75.25-1.55.25.15.45.25.9q-9.45 5.05-20.05 5.1l.45-.1q-3.65-.2-7.05-1.55l-3.15-1.55 3.25.05-19.55-2.2-12.85-.6-7.6-.3 4.55-2.55q-5.7 1.35.15-2.95 2.15-1.65-1.15-2.25l-9.45-.45-17.9.95.85-.85.9-.8q.45-.35 1-.55 1.35-.7 2.85-1.15l3.15-.65-9.9-1.8q-35.4-.35-2.75-2.15 32.6-1.85 34.9-5.3l.4-.35q1.65-1.1 7.95-.7L74 262.35l-8.05-11-3-8.45-3-1.85v-4.5l-.55-.55-13.2 14.3-4.8 3.3-8.75 1.25-3-1.75-.75-6.8 2.75-8.5 1.15-2.65 24.85-27.7.05-4.6-.45-1.5-.4-2.9 1.2-11.7-.7-8.85.15-3.65-.45-.6-.2-1.3.55-1.75-.05-5.1.2-.95 3.05-4.35-.1-.65 1.6-5.45.95-1.25.75-3.35-1.85-5.05.65-2.15.65-.05-.35-.7.45-1.1.85-.1.55-3.65.5-1.05-.6-.3-4.5.9-.15-2-1.85 2.65-12.8 6.15v.05l-7.3 5.55-4.45 5.05-.65-2.3-1.85 4.35-4.45 5.85-1.1-2.3-.3 2.9-2.8 4.95-1.35 9.65 1.05 5.8-1.05 1.55h1.85l2.75 2.45 7.45 1.85 2.6-1.7 2.3-6.95.95 6.35-.8 6-1.65 2.5-7.3 3.7H24l-8-2.3-4.35-2.8-3.85-8.5-1.45-10.25 2.55 4.45 2.45-18.75 1.2 6.35.95-8.2 3.85-12.2 1.25 4.35 4.3-9.05 4.5-8.25-.9 12.2 15.55-23.6 2.8-2.65-1.1-1.25-.25-1.65-1.3-2.6-.4-2.05-.05-.1-2.4-5.15-.25-2.9-1.25-2.65-1.35-1.4-.35-1.9-1.9-1.7-1-.6-.65-1.65-3.2-.65-4.6 1.6-2.25 2.7-4.55.05-5.65 1.25-.35-.8 3.6-3.75 2-.3 2.95-1-3.3-1.05-2.15.75-6.35.75-4.3 1.95-.7-.1.7-1.25 3.75-2.9 4.05-1.1.2-.75-4-.75-4.05.3-3.6 1.65L.25 90l1.8-2.2 3.75-1.65 9.75-.7-.05-1.65-3.2-2v-.05l-5.1-.8-4.95.9L1 81.4l2.8-1.5H2.65l-.9.4-.05-4.45-.9-4.8 3.3-6.55 5.85 6.85-1.55 2.8-.05-2L6.8 69.3l-1.75-.55L3.8 71.1l1.25 6.1 2 2.3 1.15-.2 1.2.1 3.55-1.5.1-.05-1.4-3.8.3-2.15 2.5-5.75 2.55 2.2.45 1.95-.9 1.6.5-1.7-1.85-1.65L14.1 73l1.75 2.75 3.2-2.45 1.05-3.55.85-7.9 1.95-2.15.6-1.1v-.4l-1.35 1.3-1.3.3-7.2 4.3-1.2 1.7-.6-.15-.5.65-1.45.2 1.15-.75.5-.6v-.75l-.95-.7-.15.5-1.15 1.5-.55-.45.45-.55.35-.9-.3-.15L8 63.9l-.95 1-.45-.25 1.6-1.6-.65-.4-2.45.25.15-.5L8 61.65l2.55.4 1.4 1.15 1.15.25 8.45-4.95 1.7-2.65-.85-.7-1.35.1-2.15 2.65-2.75 2.35.8-1.55.75-2.7-.75-1.95-4.75 1.1-2.1 3.4.25-1.75-1.6-2.25-2.1.1-2.6 2.75-1.2 2.95-.45-.05.2-5.35 4.85-9.15 5.6-4.95 2.2-1.05 3.35-2.05 3.6-1.35 3.1-.65.6.35-1.35 1-1.5.2.15 1.15 2.4 2 1.7.55 1.2.75-2.75 3.5.1 1.6 2.35-3.1 1.4-.45 1.35.85-.2 1-.6-.1-.35-.4-1.15 2.9.5 2.55 1.65-.55 3.85-2.95-4.9-10-1.3-5.15 2.35 6.6 2.7 4.1.9.75.4-1.05-.9-4.5-.85-2.35-.9-5.05L35.5 40.6l1.95 2.95v.05l.7.4.75-.2 1.2.45.4 1.3 2 3.95-.2.85-.8.15-1.9-1.7-1.45-.25-4.4 2.7L31 54.3l-.4 1.35.25.75-.4 6.3 1.2 1.55 1.5.25.25-.05 1.55-2.75 1.25-.5 1.5.6.05-1.1-1.7-1.2 3.2.7-.15.65-.5.2.05 1.45.3-.05 1 .3-.2.7-.8.75-.7 1.75-2-.6-1.15-.1-3.5.9-1.8-.2V64.9l-.55-.9-.7-4.75-.05-1.35h-.35l-.15-.05-2.7 2.3-.5 4.35-.35 1.15 1.05 3.45 5.95 7.1-.65 7.9 1.25 1.1 5.35 2.1 1.85 2.3 2.15 1.15.65.5 1.3 3.3 2.2 2.25 1.2.8 2 4.55 2.6 2.15.05.05 1.9 2.8 2.8-3.1 2.2-6.75 1.65-1.5.3-1.05L60 88.2l.95-2.3 6.2-6.45 1.35-.8 3 .8 1.25.55h.05l1.75-.75 1-1.3 1.85-1.55.7-1.45 1.35-.4 3-9.2v-.1l.8-5.5-.5-.8-3.3-1.1-4.3-.1-2.25 1.35q-.7.35-1.35.65l.05.7-1.15-.6-.8.15-.05.75-.7-.25-.2-.75-2.5 2.15-1.2.3-4.2 2.1h-1.35l-2.2.75-2.4-.2h.95l3.9-1.2q1.1-.5 2.15-1.05l3.25-1.1 2-1.8.7-1.85-1.5.7-1.85.3-2.65 1 2.3-1.4 2.35-.8 2-1.1 1.15-1.65.05-.05.35-1.05-1.55.45-10 5.9 4.35-3.3 4.25-2.3 2.55-2.05-.75-.45-5.2.15 3.3-.7 2.5-.15 1.4-.7h.05l-.4-1.3.35-2.45.05-.1.85-2.25v-.05l.05-.7-.05.05.05-.15-.6-.4H71l.2-.55-.6-.8.6-1.6 1.2-.8-1-3.15 1.2.95.5-.65-.1-3.35 1 .8.85-6.65q.3 1.8.9 3.45l1.55-3.75.65 1.05.8-4.2 3.3-8.5.7 1.5.35-2.7 1.45-4.3.3-6.6-.3-3.2.8 4.3.45 5.9 2 4.3 2.25 2.55.7 3.7.75-3.15 4 5.3-.1.65.55.15 1.25 3.4.05.05 2.15-2.1 2.95-4.75.75-4.6m22.35 102.95-1.25 5.75 2.5 6.7-.6 2.2-1.6.7-.2 1.8-2.6 1.8-.7 2.7-4.4 3.4-2.2 4.3-2.6 6.5-1.7 2.4.4 1.3.65.1-.15 1-1 .3-2.3 2.5-.5.75-1.95-1.35.25-.9-.1-.7-1.2.3-.95-.55-.95-.75-.5-2.6.1-2.1 1.1-.25v2.05l.55 2.5.25-.3 1.15-.35 1.25.95.1.1-.6-4.4-1.3-2.7-.1-1.7-.75-1.25.15-.35-.3-1.05 1.5-.75.8-1.6.2-2.6-1.9-1.8-2.1.2-.1-.15-6.55-12.8 1.8-6.15 9.7-5.85 8.05-7.6-5.1 2-4 .8 6.65-4.2 6.85-5.6 2 6.15 2.8 5.05 3.3 2.7-.05.8-1.8 2.6M82.6 238.05l-3.95-3.35-3.65-4.65.5-10.25-.65-.6 2.4-2.55 1.5 12.15 3.75 8.5.1.75m7.65 36.35-.5-12.55L93.6 275l-3.35-.6" id="g"/><path stroke-width=".5" stroke-linejoin="round" stroke-linecap="round" stroke="#fff" fill="none" d="M43.75 1.75 42.6.25m4.15 4.3-1.15-.7m3.2 14.75-.9.25m24.45-9-.95.95M54.25 33.15l-1.05.25M51.65 24l-.9.55m-44.95 72L3.6 98.8m-.85 1.4L.25 108m46.2-57.9L6.65 95.75" id="h"/><path fill-rule="evenodd" fill-opacity="0" fill="#f0f" d="M0 0h102.95v45H0V0" id="a"/><use xlink:href="#a" width="102.95" height="45" id="i"/></defs><path fill="none" d="M-1-1h114v213H-1z"/><g><use x="53" y="212" xlink:href="#b" width="381" transform="translate(-192.55 -294)" height="381"/><use x="-76.778" y="307.113" xlink:href="#c" width="151.5" transform="matrix(-.6903 0 0 .6903 53.6 -210.95)" height="300.1"/><use x="-76.778" y="307.113" xlink:href="#d" width="81.5" transform="matrix(-.6903 0 0 .6903 33.65 -96)" height="88.1"/><use x="-76.778" y="307.113" xlink:href="#e" width="72.35" transform="matrix(-.6903 0 0 .6903 29.15 -94.803)" height="79.05"/><use x="-76.778" y="307.113" xlink:href="#f" width="51.4" transform="matrix(-.6903 0 0 .6903 4.346 -192.07)" height="259.25"/><use x="-76.778" y="307.113" xlink:href="#g" width="151.75" transform="matrix(-.6903 0 0 .6903 53.623 -211.123)" height="300.6"/><use x="-76.778" y="307.113" xlink:href="#h" width="72.6" transform="matrix(-.6903 0 0 .6903 32.649 -116.825)" height="108.25"/><use xlink:href="#i" width="102.95" transform="matrix(1.597 0 0 1.461 -30.05 -3.65)" height="45"/></g></svg>