<svg width="150" height="149" xmlns="http://www.w3.org/2000/svg" xmlns:xlink="http://www.w3.org/1999/xlink"><defs><use xlink:href="#a" width="69.15" height="69.4" id="d"/><use xlink:href="#b" width="102.95" height="45" id="e"/><g id="c" stroke-opacity="0" stroke-linejoin="round" stroke-linecap="round" stroke="#f0f" fill="none"><path d="M187.95-293.5v380h-380v-380h380M92.95.6H-97" transform="translate(192.55 294)"/><path d="m187.95-293.5-190 190 190 190m-380-380 190 190L-192 86.5" transform="translate(192.55 294)"/></g><g id="a"><path fill-rule="evenodd" d="m2.85-25.6 4.7-.3 4.9.25q.45-1.25 2.35-3.5 2.65-3.15 4.9-4.45 3.3 5.55 3 9.4l-.25 2.6 1.5-.6-.05.15-.55 1.2q3.05.7 5.15 3.05 2.3 2.5 3.85 8.3 1.8 6.4.8 11.2-3.4-5.45-6.8-5.15l-.7.1q-.9.25-1.7.95-.05 2.15-1.2 3.95l.5.1q.7.35 1.05 1.45.35 1.15.15 2.45l-.5 1.3.45.4q.55.65.75 1.55.15.95-.2 1.6l-.4.4v3.7l-.65.85.4 1.85q-.05 1.25-.8 1.65-.5.2-1.1 0l-.3.8 1.15.35q2.1 1.7 2.5 3.9-.1.75-1.15.95l-2.45.3.25 1.7q-.2.7-1.15.8-3.3 0-5.9-1.1h-.55l-.1.1q-.8 1.25-1.85 1.8-1.05.5-1.75 0-.7-.55-.65-1.85l-1.65.95-1.05.3.1 1.75q-.3.8-1.35.95-1.25.15-3.65-.7l-1.4.6-.05 1.6q-.3 1.35-3.1 1.55l-1.55-.15q-1.65-.5-2.1-2.4l-.05-.75-.8-.15q-.2.75-1.6.9l-.85-.15q-.8-.3-1.05-1.4-.1-.7.2-1.25l.6-.95.05-.1Q-9 25.5-7.6 23.95l2-1.65.05-.05-.15-.15q-.5.25-.85-.55l-.1.2q-.8.5-1.55.7-.9.25-1.75 0-1.65-.55-3.25-2.75V16l-.35-.4q-.4-.65-.2-1.6.15-.9.75-1.55l.45-.4-.5-1.3q-.25-1.3.1-2.45.35-1.1 1.1-1.45l.7-.1.7.35.05-.4-.75-.05-.7.05-.65.1q-3.15.75-4.35 3.25-3.15-5.4-6.9-5.2h-.3l-.9.2q-4.15 1.1-7.6 7.9-1.7-4.3-.2-11.4 1.3-6.4 3.8-9.8 3.2-4.55 9.05-6.5-.05 3.3.95 5.65 1.35 3.6 2.9 5.75 2.5 3.8 7.45 5.1l-.4 1.9.2-.2q.4-.35.8-.2l1.25-2.3L-7.3-.4l1.4-1-1.5-3.8q-2.2-6.2-.95-10.9-1.6-3.15 1.9-14.8l3.2 2.55 1.05.85L0-25.1l2.85-.5" transform="translate(34.55 34.7)"/><path stroke-width="2.25" stroke-linejoin="round" stroke-linecap="round" stroke="#1f1f29" fill="none" d="m37.4 9.1-2.85.5-2.2-2.4-1.05-.85-3.2-2.55q-3.5 11.65-1.9 14.8-1.25 4.7.95 10.9l1.5 3.8-1.4 1 .55 1.35-1.25 2.3q-.4-.15-.8.2l-.2.2.4-1.9q-4.95-1.3-7.45-5.1-1.55-2.15-2.9-5.75-1-2.35-.95-5.65-5.85 1.95-9.05 6.5-2.5 3.4-3.8 9.8-1.5 7.1.2 11.4 3.45-6.8 7.6-7.9l.9-.2h.3q3.75-.2 6.9 5.2 1.2-2.5 4.35-3.25l.65-.1.7-.05.75.05-.05.4-.7-.35-.7.1q-.75.35-1.1 1.45-.35 1.15-.1 2.45l.5 1.3-.45.4q-.6.65-.75 1.55-.2.95.2 1.6l.35.4v3.7q1.6 2.2 3.25 2.75.85.25 1.75 0 .75-.2 1.55-.7l.1-.2q.35.8.85.55l.15.15-.05.05-2 1.65q-1.4 1.55-1.25 3.25l-.05.1-.6.95q-.3.55-.2 1.25.25 1.1 1.05 1.4l.85.15q1.4-.15 1.6-.9l.8.15.05.75q.45 1.9 2.1 2.4l1.55.15q2.8-.2 3.1-1.55l.05-1.6 1.4-.6q2.4.85 3.65.7 1.05-.15 1.35-.95l-.1-1.75 1.05-.3L45 61.3q-.05 1.3.65 1.85.7.5 1.75 0 1.05-.55 1.85-1.8l.1-.1h.55q2.6 1.1 5.9 1.1.95-.1 1.15-.8l-.25-1.7 2.45-.3q1.05-.2 1.15-.95-.4-2.2-2.5-3.9l-1.15-.35.3-.8q.6.2 1.1 0 .75-.4.8-1.65l-.4-1.85.65-.85v-3.7l.4-.4q.35-.65.2-1.6-.2-.9-.75-1.55l-.45-.4.5-1.3q.2-1.3-.15-2.45-.35-1.1-1.05-1.45l-.5-.1q1.15-1.8 1.2-3.95.8-.7 1.7-.95l.7-.1q3.4-.3 6.8 5.15 1-4.8-.8-11.2-1.55-5.8-3.85-8.3-2.1-2.35-5.15-3.05l.55-1.2.05-.15-1.5.6.25-2.6q.3-3.85-3-9.4-2.25 1.3-4.9 4.45-1.9 2.25-2.35 3.5l-4.9-.25-4.7.3z"/><path stroke-linejoin="round" stroke-linecap="round" stroke="#1f1f29" fill="none" d="M-23.55 14.2q-3.4-7.5 2.05-11.95 5.35-4.55 10.5.15 1.45 1.3 3.35 6.8 1.8 5.6 4.7 8.05 5.25 4.5 12.7 3.25" transform="translate(34.55 34.7)"/><path fill-rule="evenodd" fill="#e1dcd2" d="M20.65-21.1q4.85-.05 7.85 3.3 2.3 2.5 3.85 8.3 1.8 6.4.8 11.2-1.7-15.55-12.5-22.8" transform="translate(34.55 34.7)"/><path fill-rule="evenodd" fill="#d9d2c4" d="M20.65-21.1q10.8 7.25 12.5 22.8-3.4-5.45-6.8-5.15l-.7.1q-2.75-2.95-3.3-10.7-4.1 10.6-2.1 18.2-1.15-2-3.75-1.7-2.65.5-3.5 2.6 1.15-3.15-.1-6.2 3.9-2.95 5.65-7.55 1-2.6 1.8-6.55.6-2.65.3-5.85" transform="translate(34.55 34.7)"/><path fill-rule="evenodd" fill="#baae94" d="M25.65-3.35q-3.25.95-5.4 7.5-2-7.6 2.1-18.2.55 7.75 3.3 10.7" transform="translate(34.55 34.7)"/><path stroke-width=".05" stroke-linejoin="round" stroke-linecap="round" stroke="#1f1f29" fill="none" d="M67.7 36.4q1-4.8-.8-11.2-1.55-5.8-3.85-8.3-3-3.35-7.85-3.3m12.5 22.8q-3.4-5.45-6.8-5.15l-.7.1q-3.25.95-5.4 7.5-1.15-2-3.75-1.7-2.65.5-3.5 2.6m-.1-6.2q3.9-2.95 5.65-7.55 1-2.6 1.8-6.55.6-2.65.3-5.85"/><path fill-rule="evenodd" fill="#d9d2c4" d="M-8.6 1.75q-1.2 3.55.5 6.2-1.2-1.75-4.4-1.15-3.15.75-4.35 3.25Q-15.2 1.7-21.2-7.1q.1 7.9-2.85 11.95l-.9.2q-4.15 1.1-7.6 7.9.4-16.1 12.65-27.7-.05 3.3.95 5.65 1.35 3.6 2.9 5.75 2.5 3.8 7.45 5.1" transform="translate(34.55 34.7)"/><path fill-rule="evenodd" fill="#baae94" d="M-16.85 10.05q-3.3-5.6-7.2-5.2Q-21.1.8-21.2-7.1q6 8.8 4.35 17.15" transform="translate(34.55 34.7)"/><path fill-rule="evenodd" fill="#e1dcd2" d="M-32.55 12.95q-1.7-4.3-.2-11.4 1.3-6.4 3.8-9.8 3.2-4.55 9.05-6.5-12.25 11.6-12.65 27.7" transform="translate(34.55 34.7)"/><path stroke-width=".05" stroke-linejoin="round" stroke-linecap="round" stroke="#1f1f29" fill="none" d="M26.45 42.65q-1.2-1.75-4.4-1.15-3.15.75-4.35 3.25-3.3-5.6-7.2-5.2l-.9.2q-4.15 1.1-7.6 7.9-1.7-4.3-.2-11.4 1.3-6.4 3.8-9.8 3.2-4.55 9.05-6.5-.05 3.3.95 5.65 1.35 3.6 2.9 5.75 2.5 3.8 7.45 5.1"/><path fill-rule="evenodd" fill="#381952" d="M18.65-.65V-1l.4-.7 1.15-.05L21.4.1l.45 1.8q.65-.6 1.4-.25.7.35 1.05 1.45.35 1.15.15 2.45l-.5 1.3.45.4q.55.65.75 1.55.15.95-.2 1.6l-.4.4v3.7q-1.6 2.2-3.2 2.75-.15-7-3.95-9V8.2Q18 2 15.45.6q1.4-1.15 3.4-.85l-.2-.4" transform="translate(34.55 34.7)"/><path fill-rule="evenodd" fill="#582578" d="M21.35 17.25q-.9.25-1.8 0l-3.8-3.75-.05-.55-.2.3-.65.65q-.9-2.85.4-7.05-1.7-1.15-.45-5.7l.65-.55Q18 2 17.4 8.2v.05q3.8 2 3.95 9" transform="translate(34.55 34.7)"/><path fill-rule="evenodd" fill="#69477d" d="m19.55 17.25-1.5-.7-.15-.2q-.35.85-.85.5-.6-.35-1-1.75l-.3-1.6 3.8 3.75m-4.7-3.35h-.3q-.55-.1-.8-1.35-.35-1.35-.2-3.05.1-1.05.35-1.9l-.3-.3q-.5-.55-.65-1.65-.15-1.1.15-2.1.25-1 .9-1.3h.1l.7-1.1q-1.25 4.55.45 5.7-1.3 4.2-.4 7.05" transform="translate(34.55 34.7)"/><path stroke-width=".05" stroke-linejoin="round" stroke-linecap="round" stroke="#1f1f29" fill="none" d="M53.2 34.05v-.35l.4-.7 1.15-.05 1.2 1.85.45 1.8q.65-.6 1.4-.25.7.35 1.05 1.45.35 1.15.15 2.45l-.5 1.3.45.4q.55.65.75 1.55.15.95-.2 1.6l-.4.4v3.7q-1.6 2.2-3.2 2.75-.9.25-1.8 0l-1.5-.7-.15-.2q-.35.85-.85.5-.6-.35-1-1.75l-.3-1.6-.05-.55-.2.3-.65.65h-.3q-.55-.1-.8-1.35-.35-1.35-.2-3.05.1-1.05.35-1.9l-.3-.3q-.5-.55-.65-1.65-.15-1.1.15-2.1.25-1 .9-1.3h.1"/><path fill-rule="evenodd" fill="#cf7b16" d="m13.6 26.4-4.45-.85-.55-2.15q-.4-1.5.55-2.85l2.5.7.35.2 2.1 1.15q-.65.8-.5 3.8m3.85-5.3-.35-.65-.1-.05q-1.25-.55-3.05-.9l-1.3-.15 1.25-.2q1.75-.15 3.7.55l.25 1-.4.4" transform="translate(34.55 34.7)"/><path fill-rule="evenodd" fill="#fef7e0" d="M13.95 18.45q1.35-1.7 3.4-1.2l1.2 1.2-1.95.1-2.65-.1m5.7 1.2q1.6-.45 3.6.35 2.1 1.7 2.5 3.9-.1.75-1.15.95-1.7-2.45-4.5-2.9l-.35-.05 1 .55q1 1.3 1.4 2.7l.25 1.7q-.2.7-1.15.8-.7-1.65-1.8-2.6l-2.05-1.2-2.3-.35.05-.75q1.05-.95 2.15-1.2 1.2-.25 2.45.35-1.25-.6-2.45-.35v-.3l.15-.15.4-.4q.8-.75 1.8-1.05" transform="translate(34.55 34.7)"/><path fill-rule="evenodd" fill="#eaa32d" d="M13.6 26.4q-.15-3 .5-3.8L12 21.45l-.35-.2-2.5-.7q1.05-1.45 3.55-2.75.5.45 1.25.65l2.65.1 1.95-.1.6.2.35.7.15.3q-1 .3-1.8 1.05l-.25-1q-1.95-.7-3.7-.55l-1.25.2 1.3.15q1.8.35 3.05.9l.1.05.35.65-.15.15v.3q-1.1.25-2.15 1.2l-.05.75-.35 2.75.6.3-1.75-.15M12 21.45l.2-.2q1.15-1.35 2.4-1.35l.2.05 1.25.4-1.25-.4-.2-.05q-1.25 0-2.4 1.35l-.2.2" transform="translate(34.55 34.7)"/><path fill-rule="evenodd" fill="#d9ceb4" d="m24.6 24.85-2.45.3q-.4-1.4-1.4-2.7l-1-.55.35.05q2.8.45 4.5 2.9m-3.35 2.8q-3.3 0-5.9-1.1l-.6-.3.35-2.75 2.3.35 2.05 1.2q1.1.95 1.8 2.6" transform="translate(34.55 34.7)"/><path stroke-width=".05" stroke-linejoin="round" stroke-linecap="round" stroke="#1f1f29" fill="none" d="M43.7 55.25q-.95 1.35-.55 2.85l.55 2.15 4.45.85m-4.45-5.85q1.05-1.45 3.55-2.75.5.45 1.25.65 1.35-1.7 3.4-1.2l1.2 1.2.6.2.35.7.15.3q1.6-.45 3.6.35 2.1 1.7 2.5 3.9-.1.75-1.15.95l-2.45.3.25 1.7q-.2.7-1.15.8-3.3 0-5.9-1.1l-1.75-.15m6.15-4.5 1 .55q1 1.3 1.4 2.7m-2.4-3.25q-1.25-.6-2.45-.35-1.1.25-2.15 1.2m.9-2.4-1.25-.4-.2-.05q-1.25 0-2.4 1.35l-.2.2m1.95-3 2.65.1 1.95-.1m-.7 2.25q.8-.75 1.8-1.05M52 55.8l-.15.15m.55-.55-.4.4m-2.7 5.15.6.3"/><path fill-rule="evenodd" fill="#cf7b16" d="m-1.7 24.2-1.75-1.5 4.55.4.5 1.45q-.7.35-1.35 1v.05l-.65-.45q-.5-.6-1.1-.85l-.2-.1m-5.9-.25 2.7.95 2 1.2-1.1 1.25L-5.1 29l-.3 1.3-.8-.15.05-.05q.15-2.25-.4-3.15-.55-.9-1.15-.8l-.05.05q-.55.1-1.1 1-.15-1.7 1.25-3.25m2.15 1.25.55-.3-.55.3" transform="translate(34.55 34.7)"/><path fill-rule="evenodd" fill="#eaa32d" d="m1.6 24.55-.5-1.45-4.55-.4 1.75 1.5.2.1q.6.25 1.1.85l.65.45-.15.75q-1.2-1.3-2.4-.65l-.6.4-2-1.2-2.7-.95q1.45-1.65 4.6-3.1 1.1 1.2 3.95 1.2 2.5 0 3.3 1.75l.05.15q-1.35-.2-2.7.6m-3.3-.35q-1.35-.4-3.2.7 1.85-1.1 3.2-.7m3.05 5.05 1.5.6-1.4.6-.1-1.2" transform="translate(34.55 34.7)"/><path fill-rule="evenodd" fill="#fef7e0" d="M.25 25.6v-.05q.65-.65 1.35-1 1.35-.8 2.7-.6 1.05.1 2.15.85Q8 27 7.85 29.6q-.3.8-1.35.95-.7-2.1-2.2-3.15-.85-.6-1.95-.85l-.8-.15-1.45-.05.15-.75m-8 .6.05-.05q.6-.1 1.15.8.55.9.4 3.15l-.05.05q-.2.75-1.6.9l-.85-.15q.45-.15.65-1 .3-1.2.25-3.7m5.45-.5q1.2-.65 2.4.65l.4.5q.65.8.85 2.4l.1 1.2-.05 1.6q-.3 1.35-3.1 1.55l-1.55-.15q.8-.8 1.05-2.65.25-1.95-.1-5.1" transform="translate(34.55 34.7)"/><path fill-rule="evenodd" fill="#d9ceb4" d="m.1 26.35 1.45.05.8.15q1.1.25 1.95.85 1.5 1.05 2.2 3.15-1.25.15-3.65-.7l-1.5-.6q-.2-1.6-.85-2.4l-.4-.5m-7.85-.15q.05 2.5-.25 3.7-.2.85-.65 1-.8-.3-1.05-1.4-.1-.7.2-1.25l.6-.95.05-.1q.55-.9 1.1-1m4.85-.1.6-.4q.35 3.15.1 5.1-.25 1.85-1.05 2.65-1.65-.5-2.1-2.4l-.05-.75.3-1.3 1.1-1.65 1.1-1.25" transform="translate(34.55 34.7)"/><path stroke-width=".05" stroke-linejoin="round" stroke-linecap="round" stroke="#1f1f29" fill="none" d="M34.8 60.25q.65-.65 1.35-1 1.35-.8 2.7-.6l-.05-.15q-.8-1.75-3.3-1.75-2.85 0-3.95-1.2-3.15 1.45-4.6 3.1-1.4 1.55-1.25 3.25l-.05.1-.6.95q-.3.55-.2 1.25.25 1.1 1.05 1.4l.85.15q1.4-.15 1.6-.9l.05-.05q.15-2.25-.4-3.15-.55-.9-1.15-.8m14.2 4.4q1.05-.15 1.35-.95.15-2.6-1.4-4.8-1.1-.75-2.15-.85m-7.2 2.15.6-.4q1.2-.65 2.4.65l.4.5q.65.8.85 2.4l1.5.6q2.4.85 3.65.7m-9.4-4.45-1.1 1.25-1.1 1.65-.3 1.3.05.75q.45 1.9 2.1 2.4l1.55.15q2.8-.2 3.1-1.55l.05-1.6-.1-1.2m-7.55.9.8.15m8.25-.45-1.4.6M25.7 61.9q.55-.9 1.1-1"/><path stroke-width=".05" stroke-linejoin="round" stroke-linecap="round" stroke="#1f1f29" fill="none" d="m32.85 58.9.2.1q.6.25 1.1.85m-4.5-.25q1.85-1.1 3.2-.7m-3.2.7-.55.3"/><path fill-rule="evenodd" fill="#d16800" d="M-1.05-4.1Q2-5.75 5.25-5.95q5.35-.4 8 2.25l3.7 4.2q.1-.15.4.7h.25l.55.05q1 .25 1.75 1.05t.75 1.65q-.05.6-.45 1l-.35.3.75.55q-4-1-11.6 5.7L5.45 7.8Q-.7.95-1.05-4.1m5.7 20.2.2.2-.05.1-.8 1.95-.4-.05h-.1q-7-.6-13.95-6.2l-.2 1.45Q-11 8.15-6.75.95q2.35 6 6.25 10.5l.1.1 1.5 1.55.4.4.1.05.05.1L3.1 14.9l1.7 1.5-1.7-1.5 1.55 1.2m-15-.6Q-5.7 21.65.9 23.25q-.95.95-1.95 1.5l-2.8-1.45q-5.35-3.05-6.5-7.8M1.1 13.1l-.05.05.45.35-.45-.35.05-.05" transform="translate(34.55 34.7)"/><path fill-rule="evenodd" fill="#ff8c19" d="M9 11.5q7.6-6.7 11.6-5.7l.2.25.3.3q.8 1 .95 1.9v.65l.25.2q.7.7.85 1.75l-.1 1.15q.4.3.35.75l-.25.55-.2.3h-.05l.05.05.55.9q.75 1.35.8 2.65-.05 1.25-.8 1.65-.5.2-1.1 0l.6-1.4-4.25.85-1.55.2-6.2-5.15.05-.05-.05-.05.65-.45 1.65-.1.6.2q.1-.6.55-1.1.7-.75 1.8-1l1.8.1q.75.4.8 1.3.75-.4 1.65-.5l.5-.1 1.65.15.4.25-.4-.25L21 11.6l-.5.1q-.9.1-1.65.5-.05-.9-.8-1.3l-1.8-.1q-1.1.25-1.8 1-.45.5-.55 1.1l-.6-.2-1.65.1-.65.45.05.05-.05.05-.05-.05-.7-.6-1.1-1.05 1.85 1.6-.05.05.05-.05-1.85-1.6L9 11.5m11.2-2.15h1.35l.5-.45-.5.45H20.2M4.85 16.3l1.7 1.1 2.4 1.35-.9-.05-3.85-.3-.2-.05.8-1.95.05-.1M.9 23.25l1.45.3 1.15.2 4.5.5 9.25-.75.35-.1 1.1-.3-.05.15q-.25 1-1.05 1.6-.75.5-1.6.3l-.6-.2-.7 1.7q-.8 1.25-1.85 1.8-1.05.5-1.75 0-.7-.55-.65-1.85l-1.65.95-2.1.2q-.7-.35-.65-1.2-3.5-.25-7.1-1.8 1-.55 1.95-1.5m3.9-6.85 1.45 1.25.3-.25-.3.25L4.8 16.4m15.15 6.25 1.05-.4.85-2.1v.4q-.1 1.45-.75 2l-1.15.1" transform="translate(34.55 34.7)"/><path fill-rule="evenodd" fill="#c26938" d="m11 13.35 6.2 5.15-8.25.25-2.4-1.35-1.7-1.1-.2-.2 5.6-3.4.7.6.05.05-4.45 4.05L11 13.35" transform="translate(34.55 34.7)"/><path fill-rule="evenodd" fill="#ebe0c3" d="m20.6 5.8-.75-.55.35-.3.45.85h-.05.05l.15.25-.2-.25m2.35 7.85-.05-.05h.05v.05" transform="translate(34.55 34.7)"/><path fill-rule="evenodd" fill="#975431" d="M-1.05-4.1Q-.7.95 5.45 7.8L9 11.5l.15.15 1.1 1.05-5.6 3.4-1.55-1.2-1.45-1.25-.05-.1-.1-.05-.4-.4-1.5-1.55-.1-.1Q-4.4 6.95-6.75.95L-7.3-.4l6.25-4.55v.85M17.2 18.5l1.55-.2 4.25-.85-.6 1.4-.55 1.3-.85 2.1-1.05.4-1.25.45-1.1.3-.35.1-9.25.75-4.5-.5-1.15-.2L4.2 18.4l3.85.3.9.05 8.25-.25m-8.05-6.85L5.9 8.75 1.1 13.1l4.8-4.35 3.25 2.9" transform="translate(34.55 34.7)"/><path fill-rule="evenodd" fill="#773c26" d="m-10.65 13.55.2-1.45q6.95 5.6 13.95 6.2h.1l.4.05.2.05-1.85 5.15-1.45-.3q-6.6-1.6-11.25-7.75l-.5-.65.2-1.3" transform="translate(34.55 34.7)"/><path stroke-width=".05" stroke-linejoin="round" stroke-linecap="round" stroke="#1f1f29" fill="none" d="M33.5 30.6q.35 5.05 6.5 11.9l3.55 3.7m11.6-5.7-.75-.55.35-.3q.4-.4.45-1 0-.85-.75-1.65-.75-.8-1.75-1.05l-.55-.05h-.25m5.7 10.8-.4-.25-1.65-.15-.5.1q-.9.1-1.65.5-.05-.9-.8-1.3l-1.8-.1q-1.1.25-1.8 1-.45.5-.55 1.1l-.6-.2-1.65.1-.65.45.05.05-.05.05 6.2 5.15m5.2.35q.6.2 1.1 0 .75-.4.8-1.65-.05-1.3-.8-2.65l-.55-.9-.05-.05m.05 0 .2-.3.25-.55q.05-.45-.35-.75l.1-1.15q-.15-1.05-.85-1.75l-.25-.2-.5.45h-1.35m-9.2 4L45.5 48l-.7-.6m-5.6 3.4.2.2 1.7 1.1 4.45-4.05M45.5 48l.05-.05-1.85-1.6 1.1 1.05m10.55-6.65-.2-.25h.05m1.4 3.1v-.65q-.15-.9-.95-1.9l-.3-.3m-21.85-11v.85m-5.7 5.05-.55-1.35m12.1 16.8-1.7-1.5-1.45-1.25-.05-.1-.1-.05-.45-.35.05-.05-1.5-1.55-.1-.1q-3.9-4.5-6.25-10.5-4.25 7.2-3.9 12.6m12.15-.05-.4-.4 4.8-4.35 3.25 2.9-.15-.15m-.05 7.25-2.4-1.35-.3.25-1.45-1.25m-.15-.3-1.55-1.2m-13.45.6q1.15 4.75 6.5 7.8l2.8 1.45q3.6 1.55 7.1 1.8-.05.85.65 1.2l2.1-.2L45 61.3q-.05 1.3.65 1.85.7.5 1.75 0 1.05-.55 1.85-1.8l.7-1.7.6.2q.85.2 1.6-.3.8-.6 1.05-1.6l.05-.15m1.25-.45 1.15-.1q.65-.55.75-2v-.4m-4.65-1.65-8.25.25"/><path fill-rule="evenodd" fill="#fef7e0" d="m22.05-18.2.1-.05-.05.15-.05-.1-5.15 5q-.9-.95-1.55-2.45l6.7-2.55" transform="translate(34.55 34.7)"/><path fill-rule="evenodd" fill="#d1bb90" d="m22.05-18.2.05.1-2.85 6.5q-1.35-.4-2.35-1.6l5.15-5" transform="translate(34.55 34.7)"/><path stroke-width=".05" stroke-linejoin="round" stroke-linecap="round" stroke="#1f1f29" fill="none" d="m56.65 16.6.05-.15-.1.05m.05.1-2.85 6.5m-3.9-4.05 6.7-2.55"/><path fill-rule="evenodd" fill="#fef7e0" d="m-6.8-14.55 6.6 1.5q.5 2.5-.65 3.65l-5.95-5.15" transform="translate(34.55 34.7)"/><path fill-rule="evenodd" fill="#d1bb90" d="M-.85-9.4q-1 1-3.2 1l-2.8-6.15h.05L-.85-9.4" transform="translate(34.55 34.7)"/><path stroke-width=".05" stroke-linejoin="round" stroke-linecap="round" stroke="#1f1f29" fill="none" d="m27.75 20.15 6.6 1.5M30.5 26.3l-2.8-6.15h.05l2.75 6.15z"/><path fill-rule="evenodd" fill="#582578" d="M-3.45 6.35q1.25 4.55-.45 5.7 1.3 4.2.4 7.05l-.65-.65-.15-.3-.1.55-3.8 3.75q-.9.25-1.75 0 .1-7 3.9-9v-.05q-.6-6.2 2-7.6l.6.55" transform="translate(34.55 34.7)"/><path fill-rule="evenodd" fill="#69477d" d="m-3.45 6.35.7 1.1h.15q.6.3.9 1.3.25 1 .1 2.1t-.65 1.65l-.3.3.4 1.9q.1 1.7-.2 3.05-.3 1.25-.85 1.35h-.3q.9-2.85-.4-7.05 1.7-1.15.45-5.7m-4.75 16.1 3.8-3.75-.3 1.6q-.4 1.4-.95 1.75-.55.35-.9-.5l-.1.2q-.8.5-1.55.7" transform="translate(34.55 34.7)"/><path fill-rule="evenodd" fill="#381952" d="M-4.05 5.8q-2.6 1.4-2 7.6v.05q-3.8 2-3.9 9-1.65-.55-3.25-2.75V16l-.35-.4q-.4-.65-.2-1.6.15-.9.75-1.55l.45-.4-.5-1.3q-.25-1.3.1-2.45.35-1.1 1.1-1.45.7-.35 1.4.25l.45-1.8q.5-1.35 1.2-1.85l1.1.05.4.7v.35l-.2.4q2-.3 3.45.85" transform="translate(34.55 34.7)"/><path stroke-width=".05" stroke-linejoin="round" stroke-linecap="round" stroke="#1f1f29" fill="none" d="M31.05 53.8h.3q.55-.1.85-1.35.3-1.35.2-3.05l-.4-1.9.3-.3q.5-.55.65-1.65.15-1.1-.1-2.1-.3-1-.9-1.3h-.15m-7.2 15q.85.25 1.75 0 .75-.2 1.55-.7l.1-.2q.35.85.9.5t.95-1.75l.3-1.6.1-.55.15.3.65.65m-3.8-14.55v-.35l-.4-.7-1.1-.05q-.7.5-1.2 1.85l-.45 1.8q-.7-.6-1.4-.25-.75.35-1.1 1.45-.35 1.15-.1 2.45l.5 1.3-.45.4q-.6.65-.75 1.55-.2.95.2 1.6l.35.4v3.7q1.6 2.2 3.25 2.75"/><path fill-rule="evenodd" fill="#582578" d="m2.85-25.6 4.7-.3 4.9.25q.45-1.25 2.35-3.5 2.65-3.15 4.9-4.45-2.25 5.1-3.1 9.2-.45 1.95-.55 3.65l1.65.95-.55.2q.65 1.5 1.55 2.45l.85.85q.95 4.85-.45 6.4l1 1.75.2.4-.1.25q-1.05 2.4-1 4.55.6 1.25 1.9.75l-.3.3q-.35.5-.15.8.2.25.75.15.55-.05 1.2-.45.3 2.55-.8 4.15l-1.6 1.4q-5 3.8-13.75 2.35-.4-1.85-.2-3.65.75-.2.8-.7-.05-.4-.55-.75l.15-.7q2.2.1 3.2-.9Q9.6-1.55 8.35-3l.85-1.2q4.05-17.5-6.35-21.4m9.45.8.15-.85-.15.85M-.25-18.45l-.3.35-3.3-.75h-.05l1.05 2.35q-1.9.9-4.7 1.3 2.5-2.55 3.3-5.7l.25-1.95q0-2.25-1.2-4.5 1.6 1.7 2.7 3.4 1.8 2.75 2.25 5.5m16.1 17.9L18.3-.9q.8 0 .7-.6-.15-.65-1.2-1l-2.55-.25q-1.6.05-2.95.85-1.4.8-1.2 1.8.1.9 1.55.35l3.2-.8" transform="translate(34.55 34.7)"/><path fill-rule="evenodd" fill="#381952" d="M2.85-25.6q10.4 3.9 6.35 21.4L8.35-3l-2.8-2.55-.1-.05-.15-.15q-4.3-1.1-7 .55Q-2.5-2.5.95-.55L2.2-.2l4.45.9-.15.7-.3-.2L3.9.65Q2.6.5 1.75.65.8.9.8 1.4t.95.9q.85.45 2.15.65l2.3-.1h.05q-.2 1.8.2 3.65-3.6-.65-7.85-2.15-3-.95-6-9.55-2.2-6.2-.95-10.9.3.6.8.9 2.8-.4 4.7-1.3l1.7 3.8q2.25 0 3.25-1 1.15-1.15.65-3.65l-3.3-.75.3-.35q1.2-1.4 1.7-2.95.05-1.7-1.45-3.7l2.85-.5M8.45-7l-.7-.8-2-.95-2.6-.45-1.55.1q-.25.2 1.1.4l2.65.55 2.2.9q.9.45.9.25" transform="translate(34.55 34.7)"/><path fill-rule="evenodd" fill="#170b20" d="M-7.55-15.2q-.5-.3-.8-.9-1.6-3.15 1.9-14.8l1.25 3.55Q-4-25.1-4-22.85l-.25 1.95q-.8 3.15-3.3 5.7" transform="translate(34.55 34.7)"/><path fill-rule="evenodd" fill="#9467b0" d="M6.5 1.4q.5.35.55.75-.05.5-.8.7H6.2l-2.3.1q-1.3-.2-2.15-.65Q.8 1.9.8 1.4t.95-.75Q2.6.5 3.9.65l2.3.55.3.2m15.3 1.35q1.1-1.6.8-4.15h.05q.65-.4 1-.9l.15-.65-.75-.25-.65.2.45-.35.8-1.75Q24.8-.5 21.8 2.75m-1.5-10.5-.2-.4-1-1.75q1.4-1.55.45-6.4.65.5 1.5.75l1.6-3.65q.8 2.3.55 5.55-.3 2.95-.15 5.2-1.05-.9-2.4 0l-.1.05-.25.65M17.7-19.8l-1.65-.95q.1-1.7.55-3.65.85-4.1 3.1-9.2 3.3 5.55 3 9.4l-.25 2.6-4.75 1.8M0-25.1q1.5 2 1.45 3.7-.5 1.55-1.7 2.95-.45-2.75-2.25-5.5-1.1-1.7-2.7-3.4l-1.25-3.55 3.2 2.55 1.05.85L0-25.1M8.45-7q0 .2-.9-.25l-2.2-.9L2.7-8.7q-1.35-.2-1.1-.4l1.55-.1 2.6.45 2 .95.7.8" transform="translate(34.55 34.7)"/><path fill-rule="evenodd" fill="#d1bb90" d="m19.55-16.3-.85-.85 5.15-5 .05.1-1.25 2.85-1.6 3.65q-.85-.25-1.5-.75M2.1-13.7q-1 1-3.25 1l-1.7-3.8-1.05-2.35h.05L2.1-13.7" transform="translate(34.55 34.7)"/><path fill-rule="evenodd" fill="#fef7e0" d="M18.7-17.15q-.9-.95-1.55-2.45l.55-.2 4.75-1.8 1.4-.55.1-.05-.05.15-.05-.1-5.15 5M-.55-18.1l3.3.75q.5 2.5-.65 3.65l-5.95-5.15 3.3.75" transform="translate(34.55 34.7)"/><path fill-rule="evenodd" fill="#fff" d="M8.35-3Q9.6-1.55 9.85-.2q-1 1-3.2.9L2.2-.2Q-.1-4.5 5.55-5.55L8.35-3M20.2-7.5l.1-.25.25-.65.1-.05q1.35-.9 2.4 0l.55.55q.3 1.5.05 2.8l-.8 1.75-.45.35-.6.35-.25.15q-2-1.45-1.35-5" transform="translate(34.55 34.7)"/><path fill-rule="evenodd" fill="#b59bca" d="M22.6-1.4q-.65.4-1.2.45-.55.1-.75-.15-.2-.3.15-.8l.3-.3.45-.3.25-.15.6-.35.65-.2.75.25-.15.65q-.35.5-1 .9h-.05" transform="translate(34.55 34.7)"/><path fill-rule="evenodd" fill="#f0e0c2" d="M21.1-2.2q-1.3.5-1.9-.75-.05-2.15 1-4.55-.65 3.55 1.35 5l-.45.3M5.45-5.6l.1.05Q-.1-4.5 2.2-.2L.95-.55Q-2.5-2.5-1.7-5.2q2.7-1.65 7-.55l.15.15" transform="translate(34.55 34.7)"/><path fill-rule="evenodd" fill="#270f33" d="m15.85-.55-3.2.8Q11.2.8 11.1-.1q-.2-1 1.2-1.8 1.35-.8 2.95-.85l2.55.25q1.05.35 1.2 1 .1.6-.7.6l-2.45.35" transform="translate(34.55 34.7)"/><path stroke-width=".05" stroke-linejoin="round" stroke-linecap="round" stroke="#1f1f29" fill="none" d="m47 9.05-4.9-.25-4.7.3m5.5 22.6q1.25 1.45 1.5 2.8-1 1-3.2.9m-.2 5.8q8.75 1.45 13.75-2.35l1.6-1.4m-.7-4.95q-1.3.5-1.9-.75-.05-2.15 1-4.55M51.7 15.1l.55-.2m2-13.8Q52 2.4 49.35 5.55 47.45 7.8 47 9.05l-.15.85m-12.3-.3q1.5 2 1.45 3.7m-2 3.3 3.3.75M33.4 22l-1.7-3.8-1.05-2.35h.05l3.3.75m-7 2.9q-.5-.3-.8-.9m1.9-14.8q-3.5 11.65-1.9 14.8m1.9-14.8 3.2 2.55 1.05.85 2.2 2.4m19.7-8.5q3.3 5.55 3 9.4L57 13.1l1.4-.55.1-.05-.05.15-1.25 2.85q.8 2.3.55 5.55-.3 2.95-.15 5.2l.55.55q.3 1.5.05 2.8 1.15 4.6-1.85 7.85m.85-21.95-1.6 3.65M57 13.1l-4.75 1.8m2.85 11.4.1-.05q1.35-.9 2.4 0m.6 3.35-.8 1.75-.45.35M40.1 29.15l2.8 2.55m-6.15 2.8-1.25-.35q-3.45-1.95-2.65-4.65 2.7-1.65 7-.55l.15.15m-3.25 5.4 4.45.9"/></g><path fill-rule="evenodd" fill-opacity="0" fill="#f0f" d="M0 0h102.95v45H0V0" id="b"/></defs><path fill="none" d="M-1-1h152v151H-1z"/><use x="80.217" y="149.667" xlink:href="#c" width="381" transform="translate(-192.55 -294)" height="381"/><use x="37.815" y="70.554" xlink:href="#d" width="69.15" transform="translate(-79.291 -148.96) scale(2.1213)" height="69.4"/><use x="-61.882" y="-86.971" xlink:href="#e" width="102.95" transform="matrix(1.8072 0 0 1.6538 96 161.55)" height="45"/></svg>