<svg width="210" height="268" xmlns="http://www.w3.org/2000/svg" xmlns:xlink="http://www.w3.org/1999/xlink"><defs><g transform="translate(169.45 218.1)" id="g"><use xlink:href="#a" width="338.8" transform="translate(-169.45 -218.1)" height="436"/><use xlink:href="#b" width="335.8" transform="translate(-167.9 -216.5)" height="433"/><use xlink:href="#c" width="82.9" transform="translate(117.766 -5.537) scale(.3567)" height="116"/></g><g id="d"><path fill-rule="evenodd" fill="#454344" d="M-29.3-.4v9.05l5.2 7.2-8.4 6.8 4.4 4.8h6l-6.8 14.2h4.8v3.5l1.9-3.2h1.1l6.9-6.3h-3.1l3.6-5.3 15.7-14 15.5-11.5-3.8 6.8 2 3.1L27 6.45v-6.6l-1.1-1.4h-3.6l12.4-8.5v-3.3l-4.5-2.4-1.9-4.7 1.1-3.1 3.25-2.6-2.05-3.3v-3.1l-2.4-3.1-1.4-2.9.65-1.05q-.75-.6-1.4-1.45l-.5-.8q-.65-1.05-.95-2.3l-.25-1.3q-.4-2.25-.4-4.8v-.4l.05-1.2-3.05 1.6H17.8l-4.65-3.9-.85-2.7-3.2-.85-2.55-3.65-1.25-5.3.85-3.1L2.6-71.5.65-76l.95-7.25 4.65.3-4.75-4.9.5-9.1 3.4-2.8h7.25l4 6.05.3-.3 3.7 4.3h5.55l.25-2.65 1.05-2.45 3-1.55h4.35l7.85 4.3v2.8l1.2 2 .7-.9 3.5-3.2 3.2-5.9h1.65l.75-1.3 4.1-5.6 6-2.9v-1.6l1.4-3.6v-3l-1.5-3 1.3-3.6 3.85-5-.9-1.15-4.8-2.15-2.65-2.75v-6.15l2.15-2.05h2.95l3.15 1.35v-5.1l1.75-2.6h3.4l.65 1.4 1.3-1.25-1.05-1.45v-2.15l2-1.9h3.15l1.7-1.4.35-5.6-.35-.3-3-.1-1-2.05 1.3-1.8-2-2.15v-2.45l2-3.05 1.85-2.15-1.3-1.7-2.4-.1-1.3-2.1-5.3 3-6.85-1.85H56.3l-5.2 2-5.2 5.95-2.9-4.7-3.4 1.65 1.7 4.3-15.45-6.25-9.8-2.6h3.25l3.05-2.15-7.5-7.65h-4.6l-5.5 4.4v-8.25l-5.8-13.9 11.15 11.3 6.45-.3 5.35 6.3 8.1 4.25 12.4 3.05h5.95v-1.4l-6.35-.75-4.6-2.4 1.4-1.5-3.1-1.7-2.4 1.9h-2.7l-2.5-2.1 1.7-1.8v-2h-4.9l4-7.3-2.5-12.6 5.5 11.7 5.5 2.2v1.8l2.1 1.4 1.2 1.25-.5.45v3l1.9 2.1h6.2v-1.7l-2.4-2h2l8.85 5.05h1.55v-2.75l3.8 3.8 5.35 1.7h4.6v-1.85l3.4-10.7v-7.95l1.75-5.2 7.35-5.65 6.4-2.3h9.1l7.2.6 6.7 5.8 1.1 3.6 3.35 7.8-.45 6.25 1.15 3.1v5.05l-1.3 4.2-6 5.95-2.9 2v.9l1.55 2 1.55 3.85v3.05l1 2.05-2.1 1.85-3.25-.05v5.55h2.45v.85l1.55.3 2.45-2.3h6.1l4.5 5.2h8.35v2l-2.5 2.75v2.35h2.95l-1.05 2.1 1.4 1.05L138-140l1.95 2.65v6.45l-3.1 6.35v7.3l1.15 2.9-1.85 2.25h-2v2h3.6l-5.25 7.6-.8.6 1.25 1.15 3.1 6.05 3.9 4.55 1.15 6.45-1.75 5.8-3.6 7.1 3.95 2.35 4 6.7 1.6 4.2-1.3 7.8 4 9.8 1.4 5.9v10.8l12.7 6.7 5.8 7.6v6.8l-6.4 5-2.4-.4v11l-2.8 3.8 2.2 2.6v4.1l5.2 10.9v6.4l-3.4 4.3.2 16.1-2.2 6.8-2.2 1.5-.7 3.3-3.3 1.2-2.9 4.3-5.6 5.4-11.8 2.9-6.3-3.1-2.05-2.5v18.2l-4.2 2.55.25 2.65 6.8 4.4v5.2l-2.25 1.75v6.65l6.85 15.8 3 12.2 11.8 36.8-2 5.8v2l4.6 3.2v6.8l-2.4 2.4-57.7-.1-3.9 1.1-19 3.4v-3H49.5l4.4 2.4h-8.8l-9.4-3.8H23.3v3.4l-13-4H-.9l-15.6-1.4-34.4 8h-28.8l.65-.25-1.45.15q-1.75.15-3.3.65-2.3.8-4.8 1.2l-3.9.35-17.6.5-.8.05h-1.7l-7.4-.5-5.25-.85-4.9-1-7.05-1.45q-9.55-2-18.5-.45v-32.6l-.1-.9v-.1q0-1.3 1.45-1.7 1.05-.3 2-1.35 1.7-1.95 3.85-3.35.55 3.35 1.65 6.5l1.25 3.25.55 1.35-.2.5.7.35q3.45 1.95 6.25 5 .6.65 1.9.9l1.45-.45q10.1-2.85 20.85-5.4 1.6-.4 2.8-1.3l5.55-4.2 1.2-.95.35-.2.55-.2q2.4-.3 4.85-.1l.65.05 4.2.45 16.85-14.6-2-11.9-2.7 1-.05 2.95-4.05-9.45 6.25-1.9 1.8 2.35 13.85-6.4-3.5-9.6-28.85 9.7-7.2 4.75v1.55l5 8.6h1.85v3.4l3.4 3.2v6.4l-10.4-5.6h-4v6.4l-32.4-4.4-14-10.8-5.6-20.8 4-25.6-.8-6.6-11.4-4 14.6-10.8 6 7v14.8l13.15 11.7 8.45 6.7 23.6-16.6 18.4.3 16.4 1.7 7.2-6.8h11.8l1.4-7h-6.4v-4.4l4.8-6.4v-4.8h-12.4l-8.4-8v-7.2l4.8-12.8v-17.2l-.1-.05-6.7-4.35v-18h20l8.25-7.9q-.35-1.4-1.25-2.65L-47-.5q-2.7-4.6-6.2-8.55-1.25-1.45-2.15-3.05l-.75-1.25q2.5-.75 4.55-2.65l1.95-1.6.55.05L-46-15.1l2.55 2.2 4.4 4.1 1.85 1.75.15.15q2.6 2.5 5.8 5.05l1.7 1.45h.25m67.9-78.1 2.55-4.35-1.1 1.4-1.45 2.95m43.8 20.15-.7-.4-.2.7.6.2.3-.5m15.05-23.9H91.1l-6.6 6.7-1.4 4.6 2.45 4.55 8.9-6.75 3-9.1m-59.05 4.2-1.5 3h.4l1.1-3m-127 256.35.05-.05.05-.2-.3.2.2.05m.1 17.15 1.6-.1q13.35-1.3 26.4-3.9l4.1-1.35q3.4-1.55 6.95-3l5.85-2.6 7.55-4q2.4-1.45 4.95-2.1l6.15-8.45 7.3 6.95 11.35-9.4-6-7.85-34 10.2-15.15 1.05 1.35-7.45-11.95 4.9 1 14.5-11.3 1.55-.7 1.4-1.85 4.2q-1.45 3.85-3.6 5.45" transform="translate(169.4 218)"/><path stroke-width="3" stroke-opacity=".38" stroke-linejoin="round" stroke-linecap="round" stroke="#000" fill="none" d="m208 139.5 2.55-4.35-1.1 1.4-1.45 2.95m-.2.45-1.1 3h-.4l1.5-3m59.05-4.2-3 9.1-8.9 6.75-2.45-4.55 1.4-4.6 6.6-6.7h6.35m-15.05 23.9-.3.5-.6-.2.2-.7.7.4M80.8 396.3l.05-.05.05-.2-.3.2.2.05m.1 17.15q2.15-1.6 3.6-5.45l1.85-4.2.7-1.4 11.3-1.55-1-14.5 11.95-4.9-1.35 7.45 15.15-1.05 34-10.2 6 7.85-11.35 9.4-7.3-6.95-6.15 8.45q-2.55.65-4.95 2.1l-7.55 4-5.85 2.6q-3.55 1.45-6.95 3l-4.1 1.35q-13.05 2.6-26.4 3.9l-1.6.1"/><path stroke-width="3" stroke-linejoin="round" stroke-linecap="round" stroke="#600" fill="none" d="M140.1 217.6v9.05l5.2 7.2-8.4 6.8 4.4 4.8h6l-6.8 14.2h4.8v3.5l1.9-3.2h1.1l6.9-6.3h-3.1l3.6-5.3 15.7-14 15.5-11.5-3.8 6.8 2 3.1 11.3-8.3v-6.6l-1.1-1.4h-3.6l12.4-8.5v-3.3l-4.5-2.4-1.9-4.7 1.1-3.1 3.25-2.6-2.05-3.3v-3.1l-2.4-3.1-1.4-2.9.65-1.05q-.75-.6-1.4-1.45l-.5-.8q-.65-1.05-.95-2.3l-.25-1.3q-.4-2.25-.4-4.8v-.4l.05-1.2-3.05 1.6h-3.15l-4.65-3.9-.85-2.7-3.2-.85-2.55-3.65-1.25-5.3.85-3.1-3.55-1.75-1.95-4.5.95-7.25 4.65.3-4.75-4.9.5-9.1 3.4-2.8h7.25l4 6.05.3-.3 3.7 4.3h5.55l.25-2.65 1.05-2.45 3-1.55h4.35l7.85 4.3v2.8l1.2 2 .7-.9 3.5-3.2 3.2-5.9h1.65l.75-1.3 4.1-5.6 6-2.9v-1.6l1.4-3.6v-3l-1.5-3 1.3-3.6 3.85-5-.9-1.15-4.8-2.15-2.65-2.75v-6.15l2.15-2.05H235l3.15 1.35v-5.1l1.75-2.6h3.4l.65 1.4 1.3-1.25-1.05-1.45V67.1l2-1.9h3.15l1.7-1.4.35-5.6-.35-.3-3-.1-1-2.05 1.3-1.8-2-2.15v-2.45l2-3.05 1.85-2.15-1.3-1.7-2.4-.1-1.3-2.1-5.3 3-6.85-1.85h-7.35l-5.2 2-5.2 5.95-2.9-4.7-3.4 1.65 1.7 4.3-15.45-6.25-9.8-2.6h3.25l3.05-2.15-7.5-7.65h-4.6l-5.5 4.4V28.1l-5.8-13.9 11.15 11.3 6.45-.3 5.35 6.3 8.1 4.25 12.4 3.05h5.95v-1.4l-6.35-.75-4.6-2.4 1.4-1.5-3.1-1.7-2.4 1.9H200l-2.5-2.1 1.7-1.8v-2h-4.9l4-7.3-2.5-12.6 5.5 11.7 5.5 2.2v1.8l2.1 1.4 1.2 1.25 1.4 1.45-1.9-1v3l1.9 2.1h6.2v-1.7l-2.4-2h2l8.85 5.05h1.55v-2.75l3.8 3.8 5.35 1.7h4.6V33.3l3.4-10.7v-7.95l1.75-5.2 7.35-5.65 6.4-2.3h9.1l7.2.6 6.7 5.8 1.1 3.6 3.35 7.8-.45 6.25 1.15 3.1v5.05l-1.3 4.2-6 5.95-2.9 2v.9l1.55 2 1.55 3.85v3.05l1 2.05-2.1 1.85-3.25-.05v5.55h2.45v.85l1.55.3 2.45-2.3h6.1l4.5 5.2h8.35v2l-2.5 2.75v2.35h2.95l-1.05 2.1 1.4 1.05L307.4 78l1.95 2.65v6.45l-3.1 6.35v7.3l1.15 2.9-1.85 2.25h-2v2h3.6l-5.25 7.6-.8.6 1.25 1.15 3.1 6.05 3.9 4.55 1.15 6.45-1.75 5.8-3.6 7.1 3.95 2.35 4 6.7 1.6 4.2-1.3 7.8 4 9.8 1.4 5.9v10.8l12.7 6.7 5.8 7.6v6.8l-6.4 5-2.4-.4v11l-2.8 3.8 2.2 2.6v4.1l5.2 10.9v6.4l-3.4 4.3.2 16.1-2.2 6.8-2.2 1.5-.7 3.3-3.3 1.2-2.9 4.3-5.6 5.4-11.8 2.9-6.3-3.1-2.05-2.5v18.2l-4.2 2.55.25 2.65 6.8 4.4v5.2l-2.25 1.75v6.65l6.85 15.8 3 12.2 11.8 36.8-2 5.8v2l4.6 3.2v6.8l-2.4 2.4-57.7-.1-3.9 1.1-19 3.4v-3h-15.8l4.4 2.4h-8.8l-9.4-3.8h-12.4v3.4l-13-4h-11.2l-15.6-1.4-34.4 8H89.7l.65-.25-1.45.15q-1.75.15-3.3.65-2.3.8-4.8 1.2l-3.9.35-17.6.5-.8.05h-1.7l-7.4-.5-5.25-.85-4.9-1-7.05-1.45q-9.55-2-18.5-.45v-32.6l-.1-.9v-.1q0-1.3 1.45-1.7 1.05-.3 2-1.35 1.7-1.95 3.85-3.35.55 3.35 1.65 6.5L23.8 400l.55 1.35-.2.5.7.35q3.45 1.95 6.25 5 .6.65 1.9.9l1.45-.45q10.1-2.85 20.85-5.4 1.6-.4 2.8-1.3l5.55-4.2 1.2-.95.35-.2.55-.2q2.4-.3 4.85-.1l.65.05 4.2.45 16.85-14.6-2-11.9-2.7 1-.05 2.95-4.05-9.45 6.25-1.9 1.8 2.35 13.85-6.4-3.5-9.6-28.85 9.7-7.2 4.75v1.55l5 8.6h1.85v3.4l3.4 3.2v6.4l-10.4-5.6h-4v6.4l-32.4-4.4-14-10.8-5.6-20.8 4-25.6-.8-6.6-11.4-4 14.6-10.8 6 7v14.8l13.15 11.7 8.45 6.7 23.6-16.6 18.4.3 16.4 1.7 7.2-6.8h11.8l1.4-7h-6.4v-4.4l4.8-6.4v-4.8h-12.4l-8.4-8v-7.2l4.8-12.8v-17.2l-.1-.05-6.7-4.35v-18h20l8.25-7.9q-.35-1.4-1.25-2.65l-2.7-4.2q-2.7-4.6-6.2-8.55-1.25-1.45-2.15-3.05l-.75-1.25q2.5-.75 4.55-2.65l1.95-1.6.55.05 3.05 2.45 2.55 2.2 4.4 4.1 1.85 1.75.15.15q2.6 2.5 5.8 5.05l1.7 1.45q.1-.1.25-.15v.15"/></g><g id="b"><path fill-rule="evenodd" fill="#7b5733" d="m28.5-200.25 1.85-2.25 1 2.15-3.2 3.55-.1.15.85-1.6-.4-2m11.7 10.05v.95l-1.1-.3-.5-.4-1.3 3.9-.95-.55q.7-2.85.9-5.75h.05l2.9 2.15m4.45 3.25h1.3q-.1 3.2.85 6.2l-1.6-.2q0-3-.55-6M27 3.15v-3.3l7.7-5.6v3.2L27 3.15" transform="translate(167.9 216.5)"/><path fill-rule="evenodd" fill="#272729" d="m30.35-202.5-1.85 2.25-2.1-10.6 3.95 8.35m-2.3 5.85.1-.15 3.2-3.55.55 1.2 5.5 2.2v1.8l2.1 1.4 2.6 2.7-1.9-1v1.85l-2.9-2.15h-.05q-.2 2.9-.9 5.75l-.65-.35-2.4 1.9h-2.7l-2.5-2.1 1.7-1.8v-2h-4.9l3.15-5.7m12.15 7.4v.2l1.9 2.1h2.55q.55 3 .55 6l-3.2-.4-4.6-2.4 1.4-1.5-1.5-.8 1.3-3.9.5.4 1.1.3m5.75 2.3h2.35v-1.7l-2.4-2h2l8.85 5.05h1.55v-2.75l3.8 3.8 2.45.8 2.9.9h4.6l2.45 3.05-4.6-.3v1.85h-3.05v-2h-8.1l-2.3-3.05-1.05 4.1h-2.6q-2.2-1.35-4.45-2.75v1.35l-1.55-.15q-.95-3-.85-6.2M98.5-216.5h1.55l7.2.6 6.7 5.8 1.1 3.6 3.35 7.8-.45 6.25 1.15 3.1v5.05l-1.3 4.2-6 5.95v-2.15l-4.25-3.9h-2.05l-1.25 2.7h-3.45l-2.9-1.3 1.4-1.1h-3.9v-5.9l1.7.15 1 3.25 2.8.65-1.5-3.25.15-.15-.75-.35-1.25-1.4-.75-1.9h1l1.65 1.9h3.7l4.7-1.5 1.35-1.15 2.3-4.6-2.2-6.4-2.4 2.5v-6.4l-2.5-6.1-2.95-3-4.7 1.65 2.65-3.7-.9-.9m9.15 63.55h2.45v.85l-.3.75-.7 1.55-3.05 2.05-2.2 2.65-2.6 2.9-2.25 2.1q-1.35.95-3.1 1.6l-1.4.45-.65.2-1.9.5-1.1.15-3.95.2 3.7 2.15h-6.75l.8 2.95 5.45 1.2h9.7l-.3 3.25 1-.35.85-2.9h1.6l3.8-2.9.05-.1 1.6-3.9.3-.7.6-.3 6.2-2.95h4.75l.45-1.9 1.5.4 1.65.95q1.25.7 2.55 1.45l.95 2.1.9 2.05-3.15-1.7h-7.9l-8.4 8.05-2.3 6.2v1.5l2.2-3.2 2.4 5.5 5.8 6.2 4.1 14-4.9-2.95.55 3-.25 2.25-6.3 6.1-5.95 2.45-11.65 5.35-1.4 1.5-6.6 6.7-1.4 4.6-1.3 4.25-.1.35v7.6l-.2.7-2.5-.8-2.3 2v2.1h-2.9l-2.9-5.35-.1-.15h-3l-2 1.9v3.4h-2.4l-.2-.2-5.3-5 7.9-8.3 3.6-7.2 2.1 2.2-.6-2.75 2.8 1.25 4.7-1.7 3.1-9.7-5.2-4.6 10.3 2.3 2.5-.9h6.4l3.8-3.4v-3l-2.4-.8 4.6-5.2v-9l-7.2-4-12.4 2-8.2-4.5 2.65-2.85 2.45 1.4 5.5 1 4.05-2.3-.65-.5-2.5-1.9 4.2-2.9v3.9l10.55-4.2-1.9-.75-.55-.25-2 .8-4.7-1.15-1.55-.15q-1.55-.3-3-1.05-3.15-1.55-5.5-4.05l.8-1.9.65.5v-4.85l6.8.8 5.55-1.3 4.7-2.25 2.05-4.5-.1-.2q-.3-.75 0-1.35l5.9-5 .55-.5m15.8 234.4v18.2l-4.2 2.55-4.15 2.45v6.4l-13.15-9.7-2.85 7.7-14.4 18.8-20 17.2-18 11.6v-7.6l11.6-11.6 26.8-25.2 11.3-23.5-.65-4.75q-6.85 9.45-16.15 17.05l-2.15 2.35-4.35 4.05 1.2-2.4 5.3-4q8.35-9.65 12.3-21.8h-3.95v-12.2l3.75 2 9.4-2.2v-5l-1.2-2.4v-2l6.6-9.9 3.6 2.1v10.8l1.15 1.5-1.95 4.4-4 3.6v1.2l-2.6 2.6-1.1 6.1 9.5 5.8 8.3-2.2h1.8l2.25-2m2.5 45.8 4.95 11.4 3 12.2 11.8 36.8-1.85 5.5h-.15l-.8-7.5h-4.4l-8.8 4-4.8 3.65q-3.8-1.35-7.75-2.2-11.7-2.55-24.85-.85l-2-1.6h-1.6l-.8-.8q-23.55-4.35-45.6 1.6 1.05-2.8-4.75-5.3l-.45-.3 4.8-1.35q10.85-3 22.4-4.65-2.65-5.2-6.8-9.6l4.8-3.2v-8.8q23.05-3.8 40.8-18.4 2-9.25 1.65-18.6l-2.85-2.6 2.8 2 .05.6 2.35 2.2h10.4q-.4.55 1.05 1.65 1.6 1.25 2.55 3.15l2.05.3 2.8.7M-77.1 163.2l-.7-4.25-.75-4.35-.55-3.3-2.7 1-.05 2.95-4.05-9.45 6.25-1.9 1.8 2.35 13.85-6.4 9.9 3.6h12.4v-27.6l10.2-.8 6-4.6h5.2l4-4.2 11.8 24.4 23.2 26.4v8H4.3l3.35 6.05q6 3.45 11.05 9.15l-.05 1.6-.05.45q-.95 9.2-5.5 12.35l-4-1.6-.85-.75-1-.7q-11.95-8.3-22.4-16.75l8.85-7.35-6-7.85-34 10.2-12.05.85-3.1.2 1.35-7.45-11.95 4.9.95 13.3.05 1.2-5.65.8-.1-5.85-.3-14.6m-78.7-16.05-3.9-14.5.65-4.05 2.35-1.9-.8 5.95h9.4l5.8-3.4 13.8-.6 4-2.25-.1 1.2v.25l.5 4.8 1.75 1.4q1.65 1.6 2.5 3.25 1.45 2.8 3.35 4.15l-7.2-1.2-3.2.4q2.05.15 3.85 1.1 4.05 2.1 7.75 4.5l-7.2 2q.95.45-.3 1.7-2.65 2.55-5.5 4.5-2.25 1.5-4.6 2.6-2.8-1.1-6.05-1.75-9.8-2.25-16.85-8.15m30.1-21.3 1.6-1.1-.2.55-1.4.55M34.7-10.05v-3.3l-4.5-2.4-1.9-4.7 1.1-3.1 3.25-2.6.55.9-1.1 1.3 5.8 1.6h13.3l4.6-1.1 1.6 3.7 3.4 1.7v1.2l-1.2 1.4h-6.9l-7.4 8.5v13.4l2.6 1.3 4.2 2.1 3.3.65 7.1 1.35 3.5-.5-1.05 1.7-.35.55-.3.45 6-1.6v3.8l-12.6 23.2 2.6-10.6h-9l-.8-3.2 7.9-8.8-5.9 2.8-5.8 5.4-2.5-5.3-3.1 2.3-2.55 1.5-.45-1.9-3.4-13.6v-18.1M48.8-92.6l2.5-4.65h.15q-.25.9.25 2.15l.2.45q1.35.75 2.8.75l3.95.15 1.75.15q1.4 1.55 3.85 2.75l-4.25.1q-1.6 1.1-3.3 1.25l-5.15 4.8Q49-82.15 47.7-78.55l-1.75 4.6 7.15 1.9 6.7-2.3 8.9-4.7v.05l-2.8 4.45-6.9 7.2-6.55 1.65-.95.25-5.2-3.65-3.9-2.7 1.6-3.1 3.9-7.35 7-7.4-.2-.05.3-.05 1.2-1.6v-2.3h-2.1v1.2l-1.2 2.1-.05.05-1.35-.45-1.55-.35-.4-.1-.75-1.4m15-14.45v-1.6l1.4-3.6 3.9 2.1 1 .5.85.25 11.25 2.85 4.8 3.7h5.15l1.95 2.1-.4 1.4-.5.35-.1.65.05.1 2.4 2.55 1.05 1.05.1.1-.2 2-2.2 1.2h-4.8l1.4-1 .4-.6v-1.6q-2.25-1-4.8-.4l-1.6 1h-.3l.1-.2v-.2q0-1.15-.7-1.95l-.5-.45-2.4-1.2h.6q1.35-.05 2-.6l-.05-.15q-1.75-3-3.95-5.25-4.45-1.55-9.5-2.1l1.9-1.5-2.2-.35-.1-.05-2.25 1.7-1.6-.05-2.15-.75m3.1-17.3 1.95-2.5 3.35 4.2 2.05 1.15-2.55 2.95-4.8-5.8m7.65-21.7.65-.65.7 1.8 2.35 3.3 2.75 2.3v4.6l-.55-.45-.55 1.85-2.1-3.35v-1.4l.85.9.15-1.1-1-1.45-2.3-4.1-.05-.2-.9-2.05m25.55-39.45h-1.3 1.3q-.05.3.05.65.15.8.95 1.75.7.6 2.8 1.2 1.2.3 2.8 0l1.15-.6q.85-.6 1.15-1.4l.35-2.25-.05-.45.4-.2-.4.2-.05-.8-.95.5-1 .3-5.45 1.1h-1.75m11.9-3.4-1.85 1-.9.5.9-.5 1.85-1m-17.8-10.8v.05-.05l.95 1.8-2.05 3.85v-2.2l1.1-3.4-1.7-1.7 1.1-2.55v2.55l.6 1.65m-.3 8.1 3.25-1q3.2-1.1 4.95-4.15l.6-4q1.35.75 2.35 2.05.25.3.65.35l.4.6-1-.2-3.8 5.6q-6.5 3.4-14 3h-3q5.05-.95 9.6-2.25m16.25 3.7v.65l-.45.45.45-.45v-.65m-18.65 1.95 1.35-2.1h1.1l-1.15 2.1h-1.3 1.3l-1 .5-.15 1.5q-.25 1.05-1.2 1.6-1.2.85-2.85 1.2l-.7.35-.9.85-1.1-.65-2.3 1.3-.65-.7v-.15l-2.1.05.05-.3 1.3-1.95-1.9.4.3-.15.9-.7q-.6-1-.75-2.25-.2-2 .55-3.9l1.15.6.9.5-.05.8-.3-.15-.1-.05-.45-.45v-.65.65l.45.45.1.05.3.15q-.1.55.3 2.7.4 1 1.75 1.75l.55.25q1.6.3 2.8 0 2.1-.6 2.8-1.2.8-.95 1-1.75v-.65m-9.9 33.4-.1 6.85-1.1-1.2v-2.35l-1.2-1 2.4-2.3m20.05 7.3h.05l-.1-.1.05.1M115.7-90.8l1.2-1.75.05-.15q1.55-3 3.7-5.35l.05-.7.2.4-.25.3q-.25 3.25-1.15 6.35-2.65 9.05 1.8 16.55v1.8l1.6-.6q0 .75.35 1.45 1.25 2.2 1.65 4.75l.6.6.2 5-.8.65-.2.15-1.8-1.2-1.2-.2q-4.1.65-7.15-1.4l1.35-1.25 4.7 1.25 4.3 2.65-4.3-2.65-4.7-1.25-1.35 1.25-3.65 3.2v5l1.25.8 2.95 1.8 1.1 7.5-5.3 4-1.8 2.5 1.7 2.2-1.4 2.35-1.2 2.05v6.6l-12.5 6.2v1.9l-2.45.3h-.35l-1.5 2.3-1.3 1.9 2 6h3.6l.1.3 3.9 15.7h2.2v3.4h-2l1 5.7-2.4 2.1-3 2.6v2.2l-2.8-.4-2.8 3.4 1.1 3 1.1 3-1.55 1.65-5.05 5.15 1.2-5.2v-6.8l4.6-11.6-2.6-13.2-4.1-11.7 3.1-5.7 3.5-4.6-1.65-2.15 1.35-1.65-3.35-2.8-.2-.2.75-3.4.1-.4h2.7v3h-2l2 3.8 7-13.2v6.8l6.2-1.4v-5.5l-2.1 1.2v-2.9l2.2-1.1-2.85-1.45-4.55-2.4 1.1-5.05h3.3l.95-3.65.85-3.35-1.9-2.9-.65-.85-.25-.35 4.9-10.5 3.7-5.6 3.5-1.95v-2.45l.05-1.15-4.55 3.5-1-2.05 1.6-2.7h-1.1v-1.4h1.8l2.9 1.9 2.15-3.05.5-.7 1.05-6.2m-33.25-53.45 4.4 1.35-1.6.4.45.05 4.05-.1 4.6-.65 1.25-.05-6.3 2.4-5.25-1-1.6-1.45v-.95m-.9-.3v1l-1.45-1.9 1.45.9m-12.35 39.7.8.45-.3.05q-3.95.5-6.9 3.1l-.5.1-.25.7-2.65 3.9-.95 1.6H56.6l4.9-7 2.3-1.3 5.4-1.6m39.2-15 1.5 3.65 2.95 2.75-.95-3.05.95 3.05 2.65 7.5.6 3.05-.6-3.05-2.65-7.5-2.95-2.75-1.5-3.65m-3.5 17.9.85 1.1-.65 2.5v2.1l2.15-1.65 1.15-3.35-3.5-3.4v2.7m-27.95-30.5-.6 1.55-1.15-1.1v.8l-.25-.2q-.3-1.05-1-1.9-.9-1.05-1.4-2.5.7 1.15 1.8 1.75l.55.25v-.05q-.5-1.4-.35-2.4l.45.65 1.95 3.15m-1.4 1.55.7.35-.55-.6.65.25.65.25v-1.1l.55.25 2.3 1.1.05-.1.2.3v.45l.15.1.2.15h.1l1.65 1.75q4.75 3.4-2.1.7l-3.1-1.2-2.65-1.05-1.25-1.25H76l-.3-.25-.15-.1m-37.1 52.65h.05l3.65 3.05-1.3 2.4-3.55-2.25 1.1-3 .05-.2m32.4 22.4H68.8l-1.3 1.5v-2.5l1.3-1.2 1.5 1 .55 1.2m7.55 1.4v-1.5l1.4-1.1 1.8 1.3 1.1 1.6-2.1-1-2.2.7m4.9 26.7v4h-2.8v3l1.9 3.95-.95.8-7.15 6.05v2.8l-1.2-2.2-1.9-3.5-1-1.15.4-1.3.8-.85h3.2l2.3-3.7-1.3-1.5-1.1-1.3h-3v-2.9l11.8-2.2m-41.8 13.8-3.8-2.8h-4l1 3.4-1-3.4h4l3.8 2.8M61.7 15.3l2.6-1.25-2.6 1.25m42.25-113.85-2.3.5-2 1.8.15 2.95-.75 1.2-.05.1.1.05 1.05.15 3.8-3.45v-3.3m10.4 15.35.3-1.4-.3 1.4m1.55 17.8-2-8.2v-5.65 5.65l2 8.2m-9.1 16.45-1.8 2.6 1.3 4.8 1.7-4.5-1.2-2.9m-72.9 87.2v10.6l-6.2 8-2.2 4.8-17.7 2.2 2.9-2.8 4-5.6 4.6-7.8-2.2-1.7 16.8-7.7m-15.3 2.4 1.45-1.4 2.25-2.2-3.2-3.4 3.4-1.3 7.4 4.9-11.3 3.4m19.1-57.4v24.1l2.95 12.8-2.95-12.8v-24.1M62.55 108.8l3.35 4.65q-4.3 6.65-10.7 13.3-14.7 15.25-34 14l2.7-2.65.55-.15q20.85-11.65 38.1-29.15m57.2-1.3 3.35 1.35v2.4l-2.9 1.6-.45-5.35m.75 29.95 2.65-10.9-2.65 10.9" transform="translate(167.9 216.5)"/><path fill-rule="evenodd" fill="#e3e3e3" d="m74.45-192.25 1-3.15v-7.95l1.75-5.2 7.35-5.65 1.35-.45-.5.45-4.75 4.6-1.95 2.25-2.15 13.2q-.25 1.45-1.45 2.4l-.65-.5M26.85-84.1l1.05 1.25 1.9 1.4v1.65l-.85 2.35-1.3-.35-1.85-2.25 1.05-4.05m-6.75 2.9q.9 2.5 1.4 5.05l-4.05.1-2.95-4.1L17.15-82l.35-.25 2.4 1 .2.05M6.6-97.75h2.95Q8.8-92 9-85.7H8l-1.3-1.25-1.15-4.6 1.05-6.2m16.2 27.9.4 3-2.75 1.25 2.35-4.25" transform="translate(167.9 216.5)"/><path fill-rule="evenodd" fill="#454344" d="M72.05-182.85v-1.85l1.65-5.2.6.35 1.1-1.3q4.9-6.1 5.1-13.7-.1-.55.15-.75 4-2.95 5.85-7.65l-1.1-1.25.5-.45 5.05-1.85h7.55l.9.9-2.65 3.7 4.7-1.65 2.95 3 2.5 6.1v6.4l2.4-2.5 2.2 6.4-2.3 4.6-1.35 1.15-4.7 1.5h-3.7l-1.65-1.9h-1l.75 1.9 1.25 1.4.75.35-.15.15 1.5 3.25-2.8-.65-1-3.25-1.7-.15v5.9h-2.6l-.25-.1-3-1.65-1.95 2.7-1.6-1 .9-.85.7-.35q1.65-.35 2.85-1.2.95-.55 1.2-1.6l.15-1.5 1-.5 1.15-2.1h-1.1l-1.35 2.1h-1.75q-2.65-.15-5.45-1.1l-1-.3-.95-.5-.9-.5-1.15-.6q-.75 1.9-.55 3.9.15 1.25.75 2.25l-.9.7-.3.15 1.9-.4-1.3 1.95-.05.3 2.1-.05v.15l.65.7-1.75.95-.35.15h-2.3v1l1.3 1.65-2.4-.1-1.3-2.1-5.3 3-6.85-1.85H56.3l-5.2 2-5.2 5.95-2.9-4.7-3.4 1.65 1.7 4.3-8.3-3.25v-8.3l6.15-1.05 3.25.8h5.95v-2.75q2.25 1.4 4.45 2.75h2.6l1.05-4.1 2.3 3.05h8.1v2h3.05v-1.85l4.6.3-2.45-3.05m39.6 31.05 2.45-2.3h6.1l4.5 5.2h8.35v2l-2.5 2.75v2.35h2.95l-1.05 2.1 1.4 1.05L138-140l1.95 2.65v6.45l-3.1 6.35-4.45-9.6-5.05-4.4-.95-2.1q-1.3-.75-2.55-1.45l-3.15-2.75-4.75-1.1-.35-.1-6.7 2.3-4.2 9.4v.05l-4.9 3.6h-9.7l-5.45-1.2-.8-2.95h6.75L86.9-137l3.95-.2 1.1-.15 1.9-.5.65-.2 1.4-.45q1.75-.65 3.1-1.6l2.25-2.1 2.6-2.9 2.2-2.65 3.05-2.05 1.5-1 1.05-1m-42.8 24.95-.9-1.15-4.8-2.15-2.65-2.75v-6.15l2.5.4v5.2l.35.3 1.95 1.7 4.4 1.6 4.2 5.5 6.3 3.3h2.1l2.9.85h3.15l-4.05 2.3-5.5-1-2.45-1.4-2.1-1.2-2.05-1.15-3.35-4.2m-1.7-13.6 1.6.7v-5.1l.95-1.35q-.15 1.4 0 2.85v.2q1.55 2.65 3.55 4.85l.5.45q.55.45 1.35.5l.35-.25v-.1l-.1-.1-.25-.35-1.3-3.25q-1.15-2.95-1.95-6.05h2.05l.65 1.4.9 2.05.05.2 2.3 4.1 1 1.45-.15 1.1-.85-.9v1.4l2.1 3.35-.55 1.85L77-132.6l-.05.15L75-135.6l-.45-.65q-.15 1 .35 2.4v.05l-.55-.25q-1.1-.6-1.8-1.75.5 1.45 1.4 2.5.7.85 1 1.9l.25.2v.1h-2.65l-1.85.15-4.3-1.8-.8-.65-.8-.65v-4l2.35-2.4m8.05-6.25.45-.4.2-.2-.15-.25-.9-1.2v-2.15l2-1.9h3.15l1.7-1.4-.05 1.65-2.4 2.3 1.2 1v2.35l1.1 1.2h1.25l-1.05 1.05-.15.1-1.45-.9 1.45 1.9 1.2 1.7L81-139.3l-2.75-2.3-2.35-3.3-.7-1.8m-44.5-24.85-4.85-2.1-4.9-1.3.2-2.6 1.2-.85-1-1.05.45-5.2.25.05 5.4 1.05 2.55 1.3 4.2 1.05-4.6 1.05 1.1 8.6m-10.3-3.55-4.35-1.15h3.25l1.1-.75v1.9m0-5.3-5.55-5.65h-.55v-5.8l4.65 1.85 2.95 3.5 3.95 2.1-5.45-1.85v5.85m-7.3-5.65h-2.85l-5.5 4.4v-8.25l-.95-2.3 2.1-4.55 4.2 4.25 3-.15v6.6m-9.95-7.65-4.2-10.1 5.7 5.8-1.5 4.3m12.2.95 1.2-.05 1.45 1.7-2.65-1.65M94.7-216.5v5.3l-3 1.05 3-1.05v-5.3m4.5 8.55h-1.9l-2.15 1.7-.45-.2v-4.75l2.05-.7-2.05.7v4.75l.45.2 2.15-1.7h1.9m-4.5 1.5-3-1.3 3 1.3v.5l.45-.3-.45.3v-.5l-1.1 2.55-1.1 2.55 1.7 1.7-1.1 3.4v2.2l2.05-3.85-.95-1.8-.6-1.65v-2.55l1.1-2.55m2 3.5-2.5 3.25 2.5-3.25m-2.8 11.35q-4.55 1.3-9.6 2.25h3q7.5.4 14-3l3.8-5.6 1 .2-.4-.6q-.4-.05-.65-.35-1-1.3-2.35-2.05l-.6 4q-1.75 3.05-4.95 4.15l-3.25 1-.8-2.45.8 2.45m-9.85 45.9 3.5 1h7.6l1.9-1.2 3.6-1.05.55-.5q-.3.6 0 1.35l.1.2-2.05 4.5-4.7 2.25-5.55 1.3-6.8-.8 1.4-3.2h.45l5.25 1 6.3-2.4-1.25.05-4.6.65-4.05.1-.45-.05 1.6-.4-4.4-1.35 1.6-1.45m32.9 1.15-5.15 1.25-1.2.3-1.9 4.7-.3.7-1.6 3.9-.05.1-3.8 2.9h-1.6l3.75-3.3 4.35-9.25.05-.1 7.1-1.7.35.5m-15.3-.7-.05-.1.1.1h-.05m-20.9 12.85q2.35 2.5 5.5 4.05 1.45.75 3 1.05l1.55.15 4.7 1.15-6.1 2.45v-1.95l-4.2 2.9v1.2l-2.7-1.05h-2.1l-6-3-3.1-4.6 1.8-.5 1.25 1.25 2.65 1.05 3.1 1.2q6.85 2.7 2.1-.7l-1.65-1.75h-.1l-.2-.15-.15-.1v-.45l-.2-.3.85-1.9m17.3 5.85 1.9.75-10.55 4.2v-1l8.65-3.95m-18.45-62.8.7.4-.7-.4m-3.8 11.6-1.3-2.05 1.3 2.05m-5.05 44.85 1.8 1.8-1.8-1.8m1.3-1.7h-3.3v-5.15 5.15h3.3m20.65-63.15 1.5-1.9-1.5 1.9" transform="translate(167.9 216.5)"/><path fill-rule="evenodd" fill="#525252" d="m73.7-189.9.75-2.35.65.5q1.2-.95 1.45-2.4l2.15-13.2 1.95-2.25 4.75-4.6 1.1 1.25q-1.85 4.7-5.85 7.65-.25.2-.15.75-.2 7.6-5.1 13.7l-1.1 1.3-.6-.35m-4 43.7.8-1.25h1.35q.8 3.1 1.95 6.05l1.3 3.25.25.35.1.1v.1l-.35.25q-.8-.05-1.35-.5l-.5-.45q-2-2.2-3.55-4.85v-.2q-.15-1.45 0-2.85" transform="translate(167.9 216.5)"/><path fill-rule="evenodd" fill="#fff" d="M100.15-184.85q4 .35 7.2-.95v.05l.25-.1.25-.05-.15.05.45-.25q1.1 1.45-.15 3.35l-.15.25-1.15.6q-1.6.3-2.8 0-2.1-.6-2.8-1.2-.8-.95-.95-1.75m-8.65-.45q-.2.8-1 1.75-.7.6-2.8 1.2-1.2.3-2.8 0l-.55-.25-.2-.3q-1.2-1.75-.4-3.5l.5.2 1.5.5 3.9.4h1.85" transform="translate(167.9 216.5)"/><path fill-rule="evenodd" fill="#ccc" d="M100.1-185.5h1.75l5.45-1.1 1-.3.95-.5.05.8.4-.2-.4.2.05.45-.35 2.25q-.3.8-1.15 1.4l.15-.25q1.25-1.9.15-3.35l-.45.25.15-.05-.25.05-.25.1v-.05q-3.2 1.3-7.2.95-.1-.35-.05-.65M82-187.2l.3.15.05-.8.95.5 1 .3q2.8.95 5.45 1.1h1.75v.65h-1.85l-3.9-.4-1.5-.5-.5-.2q-.8 1.75.4 3.5l.2.3q-1.35-.75-1.75-1.75-.4-2.15-.3-2.7l-.3-.15" transform="translate(167.9 216.5)"/><path fill-rule="evenodd" fill="#a05934" d="m111.8-174.15-2.9 2v.9l1.55 2 1.55 3.85v3.05l-.8-.65-.85-.25-1.4-.4-.15-1.9-1.8-1.4-3.5-.3q-2.95-1.8-6.6-2.8l-.1.2-3.6-1.3-1.65-4.2-.75-1.35 1.35 1h6.5l-.35-.7v-.05l-.25-.45-.95-2h-1.15l-.75-.65.2-.35h3.9l-1.4 1.1 2.9 1.3h3.45l1.25-2.7h2.05l4.25 3.9v2.15m-4.15 15.65v5.55l-.55.5-5.9 5-.55.5-3.6 1.05-1.9 1.2h-3.8l-.15-5.55-2.5-3.2-6.9-3.55.2-2.8 2.3 1.9 5.2 1.85h11.15l7-2.45M16.95-94l3.7 4.3h5.55L26-87l-1.1 1.85v4.35l1 3.2 2.85 1.7 2.9.4 3.45-.95 2.1-3.75.95-3.95.2-2.2 2 4.5-.3.4-1.45 2.95-.15.25-.05.2-1.5 3h-2.6l-3.3 1.3-1.05 2.05-.65 1.25v1.5l-1.3 1.5v2.3l.1.1 1 1.3-.15.3-1.3-.05-1.85-.1v-5l-2.55-2.35-1-.95 1.65-2.7v-3l-2.3-4.75-.1-.25-5.35-1.25h-.05l-.65.15.8-1.75v-.05l.05-1.35v-.7l.35-.45v-5.7l.3-.3m70.65-84.95 1.95-2.7 3 1.65-.8.25-.25-.1-3.9.9m21.3 6.8v-3.5 3.5M20.1-81.2l.45.2 1 4.85v.3l-.05-.3q-.5-2.55-1.4-5.05" transform="translate(167.9 216.5)"/><path fill-rule="evenodd" fill="#c87e51" d="m112-162.35 1 2.05-2.1 1.85-3.25-.05-7 2.45 1.45-3.9-6.1.7q-3.95.35-7.9.1-.65-.25-1.2-.7l-.55-.3q-.3-.15-.25-.6l-.4-.3 7.6-1 7.7.3 1 .4-1.2-2.35-3-2.65-13.3.5 2.7-2.3-5.15-5.25.75-3.7-1 .3-.1-.45-.1-.1-.75-1 1.75-.95 2.3-1.3 1.1.65 1.6 1 3.9-.9.25.1.8-.25.25.1h2.6l-.2.35.75.65h-.1v1.4H92l-1.2.8.75 1.35 1.65 4.2 3.6 1.3.1-.2q3.65 1 6.6 2.8l3.5.3 1.8 1.4.15 1.9 1.4.4.85.25.8.65M24-51.85l-3.05 1.6H17.8l-4.65-3.9-.85-2.7-3.2-.85-2.55-3.65h6.7l-2.8-8.4h-4.3L2.6-71.5.65-76H8.9l2.65-6.95h-5.3l-2.5-2.6.95-3.15v-1.9q-.1-4.5 1.25-8.75l-.05-.1-.25-.3h7l2 3 2 3.05v5.7l-.35.45v.7l-.05 1.35v.05l-.8 1.75.65-.15h.05l5.35 1.25.1.25 2.3 4.75v3l-1.65 2.7 1 .95 2.55 2.35v5l1.85.1 1.3.05-.05.1q-1.35 1.15-2.15 2.45-2.4 4.15-2.75 9.05m10.85-44.5 7.85 4.3v2.8l1.2 2-1.6 2-1.15 2.4-.8 1-2-4.5.4-4-.05-2.25v-.6.6l.05 2.25-.4 4-.2 2.2-.95 3.95-2.1 3.75-3.45.95-2.9-.4-2.85-1.7-1-3.2v-4.35L26-87l.2-2.7 3.05 3.65h3.15l2.45-10.3m46.8-57.85.1-1.65.05-1.15 6.9 3.55 2.5 3.2.15 5.55h-3.8l-3.5-1H81.5l.1-6.85.05-1.65m28.95-6.3-8.1-3.2h-1.7 1.7l8.1 3.2m-12.55-16.4.25.45v.05l-.25-.5M29.8-81.45l-1.9-1.4-1.05-1.25-.5-.55.5.55-1.05 4.05 1.85 2.25 1.3.35 1.3.35h3.25l1.35-.95v-4.2l-1.2.8H29.8M36.1-83l-1.25.75L36.1-83m-14.55 7.15v-.3l-1-4.85-.45-.2-.2-.05-2.4-1-.35.25-2.65 1.85 1.2 3.7v3.75l2.9-.5 2.95-.5v-2.15m-7.3-5.1.25.8-.25-.8m.9-5.05 1.15-1.55L15.15-86m-9.6-5.55 1.15 4.6L8-85.7h1q-.2-6.3.55-12.05H6.6l-1.05 6.2m2-7.05-.95.85.95-.85m4.85 15.5-.85.15.85-.15m0 13-1.95.35 1.95-.35m4 1.6 1.45 2 1.85 5.4 3.05-1.7 1.85-2.8v-2.45h-.05l-1.6-1.65-.15-.15-.8-.8-.95-1-2.15.35-2.6 2.7.1.1m11.25 5-1.85.1v-.2.2l1.85-.1m-1.85.1-4.7 4.2-8.8 2.35 8.8-2.35 4.7-4.2" transform="translate(167.9 216.5)"/><path fill-rule="evenodd" fill="#feffec" d="m79.85-160.15-1.2-.05-1-2.05 1.3-1.8-2-2.15v-2.45l2-3.05 1.85-2.15-1.3-1.7-1.3-1.65v-1h2.3l.35-.15.75 1 .1.1.1.45q.45 3.4-1.2 5.95-1.8 2.8-.75 6l.05.1v.3q-.8.4-1 1.4v.9q.8.85.95 2m0-4.7-.9.8.9-.8m.95-9 .2-2.75-.2 2.75" transform="translate(167.9 216.5)"/><path fill-rule="evenodd" fill="#fcc378" d="m6.55-61.35-1.25-5.3.85-3.1h4.3l2.8 8.4h-6.7M.65-76l.95-7.25 4.65.3h5.3L8.9-76H.65m3.1-9.55-2.25-2.3.5-9.1 3.4-2.8h.25l.25.3.05.1Q4.6-95.1 4.7-90.6v1.9l-.95 3.15M26.2-89.7l.25-2.65 1.05-2.45 3-1.55h4.35l-2.45 10.3h-3.15L26.2-89.7M82-159.8l-.35-.3-1.8-.05q-.15-1.15-.95-2v-.9q.2-1 1-1.4v-.3l-.05-.1q-1.05-3.2.75-6 1.65-2.55 1.2-5.95l1-.3-.75 3.7 5.15 5.25-2.7 2.3 13.3-.5 3 2.65 1.2 2.35-1-.4-7.7-.3-7.6 1 .4.3q-.05.45.25.6l.55.3q.55.45 1.2.7 3.95.25 7.9-.1l6.1-.7-1.45 3.9H89.5l-5.2-1.85-2.3-1.9m13.95-19.1h1.15l.95 2 .25.5.35.7h-6.5l-1.35-1 1.2-.8h3.85v-1.4h.1m-16.3 16.7 6.4-1.5h14.75-14.75l-6.4 1.5m.75-3.15-.55.5.55-.5m1.25 5.25-.85-.7.85.7" transform="translate(167.9 216.5)"/><path fill-rule="evenodd" d="m110.1-152.1 1.55.3-1.05 1-1.5 1 .7-1.55.3-.75m26.75 27.55v7.3l1.15 2.9-1.85 2.25h-2v2h3.6l-5.25 7.6-.8.6-3.05-12.05v-2.5l1.1-2.4v-4.9l1.1-2.65v-4.8l-1.05 1.45-2.55-4.05-2.15-4.4 3.15 1.7-.9-2.05 5.05 4.4 4.45 9.6m-17.6 226.75.25 2.65.25 2.65.45 5.35-2.9 1.6-2.2-3.4v-6.4l4.15-2.45m-274.95 77.45-.1-.9v-.1q0-1.3 1.45-1.7 1.05-.3 2-1.35 1.7-1.95 3.85-3.35.55 3.35 1.65 6.5l1.25 3.25.55 1.35-.2.5q-4-2.15-8.85-2.8-1.3-.2-1.6-1.4m8.4-87v14.8l13.15 11.7 8.45 6.7h-10.8l-5.8 3.4-5.8 3.4h-9.4l.8-5.95 3.2-23.4 6.2-10.65m99 11.8 1.4-7h-6.4v-4.4l4.8-6.4v-4.8h-12.4l-8.4-8v-7.2l4.8-12.8v-17.2l-.1-.05-6.7-4.35v-18h11.4l-6 5.5 8.9 9.7h9.1l3.4-9.7v13.9l2.7 3 5.2 1.1 1.5-2.85.2-.45 1.6 3.6 4.4 3.6h4.8v3.5l1.9-3.2h2.9l35-27.2L27 6.45v-3.3l7.7-5.7v10.6l3.4 13.6.45 1.9-12.65 7.5-3.4 1.3-3.4 1.3 3.2 3.4-2.25 2.2-1.45 1.4-3.7 3.6 2.2 1.7 2.2 1.7-4.6 7.8-4 5.6-2.9 2.8-6.6 2 1.9 1.7-3.9 4h-8.7l-1-.2 3.4-3.7-6.1 2.9-5.4 9.2 7.8-2.9h1.6l-1.6 3.9-1.5 1.8 2.85 1.25 2.85 1.25 8.6-3.6h3.3l3.7 3.7-5.7-1.1-7.2 10.6-3 2 1.3 2.3-9.5-4.3-2.85-1.3-5.15-2.3-8.1 1.9 9.9 3.55 3.05 1.1 1.05.35 2.9 2.5-2 5.8-4 4.2h-5.2l-6 4.6v-6.2h-10.4l-3.3-2.25-3.1-2.15m5.25-98.1q-.35-1.4-1.25-2.65L-47-.5q-2.7-4.6-6.2-8.55-1.25-1.45-2.15-3.05l-.75-1.25q2.5-.75 4.55-2.65l1.95-1.6.55.05L-46-15.1l2.55 2.2 4.4 4.1 1.85 1.75.15.15q2.6 2.5 5.8 5.05l1.7 1.45-12.15 5.45-1.35 1.3m28.85 29.3h-3.1l.75-1.05 2.85-4.25 15.7-14 15.5-11.5-3.8 6.8-27.9 24M27-.15l-1.1-1.4h-3.6l12.4-8.5v4.3L27-.15m33.5-138.9 2.15-2.05h2.95l-2.6 2.45-2.5-.4m51.3-4.25 5.15-1.25 3.75 1.1-.45 1.9h-4.75l-6.2 2.95-.6.3 1.9-4.7 1.2-.3m4.6 45.65-.7 6.85-1.05 6.2-.5.7-2.15 3.05-2.9-1.9h-1.8v1.4h1.1l-1.6 2.7 1 2.05 1 2.05-3.7 5.6h-1.8l-1.2-3.9-7.4 10.1v1.5h3.4v7l1.5 2.1v-5.1h1.5l1.9 2.9-.85 3.35-.95 3.65h-6.6l-1.2-1.7 1.2-2.3-1.75.6h-.05l-.5-1.8-.2-.25-3-3.55h-3.2l-.1-.05-3.4-1.95-.7-.4v-7.6l.1-.35 1.3-4.25 2.45 4.55 8.9-6.75 3-9.1H91.1l1.4-1.5 11.65-5.35 5.95-2.45 6.3-6.1M85.2-122.6l2.5 1.9.65.5H85.2v-2.4m21.6 73.65 1.2 2.9-1.7 4.5-1.3-4.8 1.8-2.6m-5.45 9.05 2.85 1.45-2.2 1.1v2.9l2.1-1.2v5.5l-6.2 1.4v-6.8h-4v-5.3l1.1-2.4 1.8.95 4.55 2.4M33.85 89.85l1.2-1.45q.9-1.45 1.15-3.35l.1-1.2v-4.4l3.55-5.25 13.6 2.05-.3-.85 6.35-.8 1.25-1.05 2.3 1.55-4.75 15.1 6-2.4.55.25-3 6.15-5.9-.2-1.1-1.25-7.9 4.4 1.1-6.85-2.55-3.65-7.4 6.9-2.45-1.1-3.35-1.5-.25-.5q.95 0 1.8-.6m36.05-15.2-.3.45-.1.75q-.05 2.3 1.55 3.55l.05.05-.45.25-.4.15-.65.2q-1.6.75-2.85-.25l-.65-.85q-.2-.5.1-.8l1.95-2.1 1.35-1.75.4.35M43.25 99.2l-3.9 2.1 1.95-1.35 1.8-.85 2.15-1.05-2 1.15" transform="translate(167.9 216.5)"/><path fill-rule="evenodd" fill="#fdf5c0" d="m-91.1 109.25 7.4.3-27.4 14.3-13.5 3.75.1-1.2 5.2-3.05 6.4-2.5 21.8-11.6m38.7-4.8h2.05l9.45 7.5-.8 3.9-10.7-11.4m66.25-297.1 1.5-.1L18-191.1l.95 1.1-4.65-1.85-.45-.8m12 8.25 1.6.85-5.4-1.05-1.65-1.5v-.15l5.45 1.85m8.35 3.2 4.95 1.2-6.15 1.05-3.4-1.2 4.6-1.05m82.4 36.15-7.1 1.7-.05.1-.55-.5 6.7-2.3.35.1.65.9M105.1-134l-3.75 3.3H99.8l4.9-3.6.4.3m-22.65-10.25v.95l-.9-.25v-1l.9.3m1.15 2.4-1.4 3.2-1.2-.65 1.75-2.55h.85m-3.7 8.55.85.9-.85 1.9-.05.1-2.3-1.1-.55-1.1 2.35 1.15.55-1.85m15.6 7.3 2-.8.55.25-8.65 3.95v-.95l6.1-2.45m-15.1 3.55-.2 1.4-6.3-3.3.5-1.1 6 3m-10.2 16.4-.05.1-.95 1.1-5.4 1.6-2.3 1.3-4.9 7H55l5.4-8 1.9-1.1 4.8-1.9 3.1-.1m-7.2-32.6 1.8.7v-.1 4l.8.65-2.25.25-.35-.3v-5.2m10.1 8.1-.55-.55h2.65l.35.2.15.1.3.25h-2.9m-1.4 12 2 1.1-2.75 8.05-.85-.25-1-.5 2.6-8.4m-18.8 28.2 1.8.65.2.05-7 7.4L44-74.9l-1.85-.3 4.25-7.95 6.45-7.15.05-.05m41.7 43h3.3l-1.1 5.05-1.8-.95-.4-4.1m-12.05 35.8 2.05 3.3q-7.45 8.4-14.3 20.7l-.6-3.8 12.85-20.2M46.7 25.05l3.8.6-16.6 12.6-4-1 9.4-6.2 7.4-6M-3 77.85l-3.6 7.2-2.85-1.25 4.3-7.15 2.15 1.2" transform="translate(167.9 216.5)"/><path fill-rule="evenodd" fill="#ccaa82" d="m-112.6 216.5-7.4-.5-13.3-7.35h-22.4v-2.2h19.2l12 3.6 11.9 6.45m-46.45-87.9 3.35-21.55 2.2-3.75-3.2 23.4-2.35 1.9M-59.9 14.25h1.8l-6 6 7.6 7.9h6.7l3.8-8.4h1.5l-3.4 9.7H-57l-8.9-9.7 6-5.5m38.8 27.7 5.15-4.7 1.75-1.6 27.9-24 2 3.1-35 27.2h-1.8M65.6-141.1l1.55.65-2.35 2.4v.1l-1.8-.7 2.6-2.45M33-170.65l-2.3-.9-1.1-8.6 3.4 1.2v8.3m-12.05-4.3-.55-.15v-1.9l.75-.55-.2 2.6m.4-4.5-.95-.95v-5.7l1.65 1.5-.25-.05-.45 5.2m-7.05-6.6h-1.2v-6.6h.75l.45.8v5.8M3.8-192.2l-.65-1.5 1.5-4.3 1.25 1.25-2.1 4.55m78.95 46.5h1.3l-1.6 1.45-.9-.3.15-.1 1.05-1.05m37.95 2.25-3.75-1.1-.35-.5-.65-.9 4.75 1.1 3.15 2.75-1.65-.95-1.5-.4m-11.25.2L105.1-134l-.4-.3v-.05l4.2-9.4.55.5m-27-.05 1.6 1.45h-1.3l-1.2-1.7.9.25m-1.45 4 1.2.65v4.85l-.65-.5-.8 1.9-.85-.9.55-1.85.55.45v-4.6m-4.65 19-2.65 2.85-2-1.1 2.55-2.95 2.1 1.2m25-10.4-.85 2.9-1 .35.3-3.25h1.55m-20.95 8.25h2.1l2.7 1.05v1.2l-2.9-.85h-2.1l.2-1.4M65.6-133.4l.8.65 4.3 1.8 1.85-.15.55.55-1.8.5 3.1 4.6-.5 1.1-4.2-5.5-4.4-1.6-1.95-1.7 2.25-.25m11.35.95.05-.15.55 1.1-.55-.25v1.1l-.65-.25-.65-.25.55.6-.7-.35-.35-.2v-.9l1.15 1.1.6-1.55m-9.4 26.2 2.25-1.7.1.05 2.2.35-1.9 1.5-3.1.1.45-.3M52.9-90.35l1.2-2.1v-1.2h2.1v2.3l-1.2 1.6-.3.05-1.8-.65M44-74.9l-1.6 3.1-1.55-1 1.3-2.4 1.85.3m2.7 99.95 5.8-5.4 5.9-2.8-7.9 8.8-3.8-.6m23.6-12.6-6 1.6.3-.45.35-.55.3-.05 1.25-.35 2.65-3.6.55-.4.6 3.8m14.6-27.8 1.4-1.55 3.25-3.8 1.65 2.15-3.5 4.6-3.1 5.7-2.05-3.3 2.35-3.8m23.9-59.2-1-2.05 4.55-3.5-.05 1.15v2.45l-3.5 1.95m-9.2 17.3v5.1l-1.5-2.1v-7l5.2-7.7h1.8l-4.9 10.5-.6 1.2m-1.7 21.7-7 13.2-2-3.8h2l3-9.4h4M-3 71.55v6.3l-2.15-1.2v-5.1H-3m-12.1 23.1-3.15 2.95-3.05-1.1 3.35-3.15 2.85 1.3m33.7-54 11.3-3.4 4 1-16.8 7.7-2.2-1.7 3.7-3.6m-137.9 82.7-5.2 3.05-4 2.25-13.8.6 5.8-3.4h10.8l1.4-.55 5-1.95m87.8-11.4v3.1l-10.2.8.8-3.9h9.4" transform="translate(167.9 216.5)"/><path fill-rule="evenodd" fill="#3e3e40" d="m131.7-101.9 1.25 1.15 3.1 6.05 3.9 4.55 1.15 6.45-1.75 5.8-3.6 7.1-.5.95v2.35l3.25 2.05 1.7 3.5v3.8l-2.7 1.8h-4.3l-2-1.25-6.3-3.9.8-.65-.2-5-.6-.6q-.4-2.55-1.65-4.75-.35-.7-.35-1.45l-1.6.6v-1.8q-4.45-7.5-1.8-16.55.9-3.1 1.15-6.35l.25-.3-.2-.4-.05.7q-2.15 2.35-3.7 5.35l-.05.15-1.2 1.75.7-6.85.25-2.25-.55-3 4.9 2.95-4.1-14-5.8-6.2-2.4-5.5-2.2 3.2v-1.5l2.3-6.2 8.4-8.05 4.7 5.45 2.45 4.7-2.45-4.7-4.7-5.45h7.9l2.15 4.4 2.55 4.05 1.05-1.45v4.8l-1.1 2.65v4.9l-1.1 2.4v2.5l3.05 12.05M43.9-87.25l.7-.9 3.5-3.2.7-1.25.75 1.4.4.1 1.55.35 1.35.45-6.45 7.15-4.25 7.95-3.65-3.05h-.05l.15-.25 2.55-4.35 1.15-2.4 1.6-2m7.55-10h1.5l.75-1.3 4.1-5.6 6-2.9 2.15.75 1.6.05-.45.3-4.8 1.9-1.9 1.1-5.4 8h-.9l-1.9-1 .75-1.3-.75 1.3 1.9 1h4.35l.95-1.6 2.65-3.9.25-.7.5-.1q2.95-2.6 6.9-3.1l.3-.05-.8-.45.95-1.1.05-.1q5.05.55 9.5 2.1 2.2 2.25 3.95 5.25l.05.15q-.65.55-2 .6h-.6l2.4 1.2.5.45q.7.8.7 1.95v.2l-.1.2h.3l1.6-1q2.55-.6 4.8.4v1.6l-.4.6-1.4 1h4.8l2.2-1.2.2-2-.1-.1-1.05-1.05-2.4-2.55-.05-.1.1-.65.5-.35.4-1.4-1.95-2.1H87l-4.8-3.7-11.25-2.85 2.75-8.05 8.2 4.5 12.4-2 7.2 4v9l-4.6 5.2 2.4.8v3l-3.8 3.4h-6.4l-2.5.9-10.3-2.3 5.2 4.6-3.1 9.7-4.7 1.7-2.8-1.25.6 2.75-2.1-2.2-3.6 7.2-7.9 8.3-6.4-5.3.95-.25L59-67.35l6.9-7.2L68.7-79v-.05l-8.9 4.7-6.7 2.3-7.15-1.9 1.75-4.6q1.3-3.6 3.85-6.15l5.15-4.8q1.7-.15 3.3-1.25l4.25-.1q-2.45-1.2-3.85-2.75l-1.75-.15-3.95-.15q-1.45 0-2.8-.75l-.2-.45q-.5-1.25-.25-2.15m13.75-15v-3l-1.5-3 1.3-3.6 1.9-2.5 4.8 5.8-2.6 8.4-3.9-2.1m60.5 35.3 3.4 11 2.1 8.35-2.1-8.35-3.4-11v-11.4l2.2-7.8-2.2 7.8v11.4m2.2-24.8v5.6-5.6l-3.4-11.2 3.4 11.2m-3.4-22.95v11.75-11.75m-53.6 20.75-.9-.45.9.45m34 2v-2.7l3.5 3.4-1.15 3.35-2.15 1.65v-2.1l.65-2.5-.85-1.1m-40.2 9.2-3.6-2.2h-2.65 2.65l3.6 2.2m70.55 27.65v-2.4 2.4m-31.3-33.45v3.3l-3.8 3.45-1.05-.15L99-92l.05-.1.75-1.2-.15-2.95 2-1.8 2.3-.5" transform="translate(167.9 216.5)"/><path fill-rule="evenodd" fill="#c4b9aa" d="m42.4-71.8 3.9 2.7q-.1 1.5-.6 2.55l-1.4 1.2-2.4-2q-4.2-4.45-11-4.35h-.95L31-73.75l3.3-1.3h3l3.55 2.25 1.55 1m7.9 21.85v-.2l-.15-1.7q-.25-1.15-1.05-1.9l1.4 1v4.4l-1.4.8h-.2l-.95.35q-2.15.8-4.1 2.1l-1.4.95-2.15 1.8 1.7-1.8 1.45-1.35q2.85-2.5 6.35-4.2l.5-.25m69.2 4.6.8-.8v.4l.25 1.6q.25 1.2.65 2.3l.7 1.7h1.2q3.8-.4 6.4.8v4l-1.2 2-14.4.8-1.6-1.2.1-.35q1.5-2.05 2.3-3.65l-.8-2.4.65-1.7q.55-1.25 1.4-2.3l.35-.4 3.2-.8m15.45 29.7-.65-.5v-.4q-.3-2.45-1.6-4.8v-1.6q2-1.25 4.8-.8 12.5.35 20.8 8l.2.7q1.4 2.3.2 4.5l-1.9-.8q-2.7-2-5.3-2.8l-1.6 1.6.8 3.2-2.15-.4q-7.5-1.6-13.6-5.9" transform="translate(167.9 216.5)"/><path fill-rule="evenodd" fill="#a08f75" d="m135.75-70.8 3.95 2.35 4 6.7 1.6 4.2-1.3 7.8 4 9.8.7 2.95-5.9-5.1-4.05 4.5-1.3 4.45q-.35.9-1.35 1.05l-.6.35q-1.3.5-2.2 1.2-.9.7-2.05.75l-7.95.25-4.2.15-4.2-.3-2.95-.75-1.55-.6-.8-.6-.2-3.15 1.4-2.35-1.7-2.2 1.8-2.5 5.3-4-1.1-7.5-2.95-1.8-1.25-.8v-5l3.65-3.2q3.05 2.05 7.15 1.4l1.2.2 1.8 1.2.2-.15 6.3 3.9 2 1.25h4.3l2.7-1.8v-3.8l-1.7-3.5-3.25-2.05v-2.35l.5-.95m13.65 47.55 9.45 5 3.25 9.3-6.6 5.4-2.4-7.2v5h-5.8l-9.6-2.8-14.45-3.25-.75-.15-2.8-4.6v4.8l-19.4 2.4-2.2-2-2.4 3.8h-3.6l-2-6 1.3-1.9 1.5-2.3v1.6h2.8v-3.8l12.5-6.2 15.1-2 17.2 4 8.9.9m9.7 28.3v8.4l-2.8 3.8 2.2 2.6v4.1l5.2 10.9v6.4l-3.4 4.3-.95 1.25-.05-.15-.25-.35-.15-.05h-.7l.2-.35q.9-1.35.5-2.05l-1.45.2-.05-.2v-.15l2.3-3.25-3.65.95-.2-.25 1.45-3.7-.15.05q-1.15 1.5-2 3.05l-.45-.3-2.8.2-4.9.95-1.9.45 1.05-.1q4.8-.35 8.55 2.3l.15.8q.25 4-1.75 6.65l-3.05 1.3q1.45-2.3.65-6.15l-2.4-2.6q-5.2-.85-7.6 3l-.2.2v1.8l1.05 1.45q-.55-1.95 1.95-3.45.85-.5 2-.4l.8.4 1 1.6q.1 2.15-.45 4.05l-11.55-.45 2.2-9.2-6.6 6.8h-4.6l-5.2-4.2-4 3.6-9.8-5.8v-9l-6 4-10.3-8-1.1-3 2.8-3.4v2.6h2.8v-4.4l3-2.6 2.4-2.1.65 3.65.15.75.2 1.3-.2.4.25.1 1.55.9 3 4.6h5.4l5.4 3.05 2.9 1.65 12.3 6.9h10l9.8-5.6 3.4-2.8-.8-1.6-6.35 1.25 1.45-2.9q1.4-3.55 1.65-7.35l.05-2.55-.2-2.4-.7-3.6q-1.1-4.3-2.95-8.4l-.2-.35-.4-.9-.4-.8 3.2.8 3.5-4.65 5.55 6.05m1.3 46.4.1 10.2-2.2 6.8-2.2 1.5-.7 3.3-3.3 1.2-2.9 4.3-5.6 5.4-11.8 2.9-6.3-3.1 9.2-5.3h2.2l5.75-2.6h4.75l4.7-1.6-4.7 1.6h-9.5l3-5.4h6.1l-4.5-1.75-.6-.25 3.4-9.2 10.8-3.6 4.3-4.4M31-28.85l-.4-.6v-3.1h5.8l2.1-2.5-2.1-3.4v-2.4l1.8-2.2 4.9-3.1 1.6-1 2.4-3.1v-4.9l-2.3-4.6-5.7-6.3-5.7-2.9h-4.1v-1.5l.65-1.25h.95q6.8-.1 11 4.35l2.4 2 1.4-1.2q.5-1.05.6-2.55l5.2 3.65 6.4 5.3 5.3 5 .2.2h2.4v-3.4l2-1.9h3l.1.15 2.9 5.35h2.9v-2.1l2.3-2 2.5.8.6.2.3-.5 3.4 1.95 2 3.8-4.75-.2-.35-1.35-1.1-1.6-1.8-1.3-1.4 1.1v1.5l1 1.55.05.1.15.2-1.7.4-.05.35q-.7 3.3-.6 6.8l-1.75-1.4-.15.1q.45 1.15 1.25 2.2l.65.85-.1 1.45-.1.4-.15-.4-1-1.8-.1.1.15 1.7.4 1.85-.65.15h-.95l-.1-2-.35-1.2-.15.15-.25 1.05q-.2.95-.25 1.9l-.75-.1-3.15-.65 1.1-15.15-.55-1.2-1.5-1-1.3 1.2v6.7l-.8 8.2-15.55-13.1-.85-.1 3.05 6.8-13.1 8.65q2.15 3.85 1.5 8.3-.4 2.75-3.1 3.45l-5.95-.25-1.7-.65m17.1-32-.2.05q-.3.1-.3.4.75 1 1.9 1.75l.3-.2.2-.4-.05-.15q-.65-1.05-1.85-1.45m2.2 10.9-.5.25q-3.5 1.7-6.35 4.2L42-44.15l-1.7 1.8 2.15-1.8 1.4-.95q1.95-1.3 4.1-2.1l.95-.35h.2l1.4-.8v-4.4l-1.4-1q.8.75 1.05 1.9l.15 1.7v.2m9.95-1.9-.3-.3q-.55-.25-.7.3l-.05.05q.7 2.15 3 1.85l.1-.1.5-.6v-.15l.05-1.05q-.1-.6-.55-1v.05q-.5.35-.55.95v.75q-.4.35-.9 0l-.6-.75m-12.6 5.75.15.1q1.35 0 .3-.85l-.2.05q-.45.25-.25.7M144-49.75l-.9-3.7.9 3.7m-6.1-.4h-2.2 2.2m-7.2-2.2-6.4-3.6 6.4 3.6m-11.2-6.6h-4.2l-3.15 3.8 3.15-3.8h4.2m0 13.6-3.2.8-.35.4q-.85 1.05-1.4 2.3l-.65 1.7.8 2.4q-.8 1.6-2.3 3.65l-.1.35 1.6 1.2 14.4-.8 1.2-2v-4q-2.6-1.2-6.4-.8h-1.2l-.7-1.7q-.4-1.1-.65-2.3l-.25-1.6v-.4l-.8.8m-21.4 31.2v2.8-2.8m-12.6 54.4 5.05-5.15 6.35 7.15-1.5 4.9v7.9l1.2 6.3 4.5 5.5-9.4 2.2-3.75-2-3.75-2v-4.8l-2.1-1.6v-4.8l2.8-5.8-2-3.6 2.6-4.2m24.4-56.2v2h4l-.2-.35.2.35h-4v-2m2.2-1.2-.8-1.4h-3.2 3.2l.8 1.4m7-3.2v1.4-1.4m15.85 4.7q6.1 4.3 13.6 5.9l2.15.4-.8-3.2 1.6-1.6q2.6.8 5.3 2.8l1.9.8q1.2-2.2-.2-4.5l-.2-.7q-8.3-7.65-20.8-8-2.8-.45-4.8.8v1.6q1.3 2.35 1.6 4.8v.4l.65.5m-20.8 28.9-.35 2.45-3.1.95v-9.1l1.5 3.6h1.3l1.7-6.9-4.2-6.4-2.3 3.3-2.7-7.4h17.5l.15.1-.2.25-3 3.9q-2.4 3.5-4.05 7.4-1.6 3.65-2.25 7.6v.25m9.75-38.4-3.2 3.4 3.2-3.4m31.6 49.8 2.8 5.6-2.25 1.9 2.25-1.9-2.8-5.6m3 3.4v-4.1 4.1m-70.1 15.8-3.5 4.2 3.5-4.2h-2.5 5L94 46.1l-3.1-2.25h-2.5m-2.1 18-2.1-1.6 2.1 1.6m13-39.6 2.4 1.4-2.4-1.4m11.8 52.8 6.2-6.9-2.2-1.3-.4-5.4 2.4-4.7 11.2 5.5h7l5-1.7-1.35 4.4-.65 2.1-3.5 2.3-.55.95h-.1l-.65-.05-2.2 1.4h-7.55l-.05.8q2.6 2.45 5.25 2.95h2.3l-.35.55-2.7 1.4-.4.2-3.1 1.6h-5.2l-6.1-2.95 6.1 2.95h5.2l3.1-1.6-4.35 3.9-2.25 2h-11l-2.45-2.6-2.45-2.6 8.1-2.05-2.3-1.15m9.8-4.7 2.2 1.3h.65-.65l-2.2-1.3m-19.3 9.5 6.15 1 2.45 2.6h9.2l-8.3 2.2-9.5-5.8m-8.3-16.6 3.3-1.9-3.3 1.9m62.8 6.7-4 2.7-5.1-2 5.1 2 4-2.7M141.55 50.5q.2.65.75 1.35.4-.2-.4-1l-.35-.35m-6.75 18.85-.75.55.75-.55" transform="translate(167.9 216.5)"/><path fill-rule="evenodd" fill="#5d4c43" d="m148.7-37 .7 2.95v10.8l-8.9-.9-17.2-4-15.1 2v-6.6l1.2-2.05.2 3.15.8.6 1.55.6 2.95.75 4.2.3 4.2-.15 7.95-.25q1.15-.05 2.05-.75.9-.7 2.2-1.2l.6-.35q1-.15 1.35-1.05l1.3-4.45 4.05-4.5 5.9 5.1m10.15 18.75 3.25 1.7 5.8 7.6v6.8l-6.4 5-2.4-.4v2.6L153.55-1l-3.5 4.65-3.2-.8-1.95 2.35.85 1.8q1.6 3.65 2.55 7.5l.6 3.1.1 1.2v3.35q-.2 3.4-1.4 6.6l-1.05 2.3 1.25.65.75.4 6.35-1.25.8 1.6-3.4 2.8-9.8 5.6h-10l-12.3-6.9-2.9-1.65-5.4-3.05h-5.4l-3-4.6-1.55-.9-.25-.1.2-.4-.2-1.3-.15-.75-.65-3.65-1-5.7h2v-3.4h-2.2l-3.9-15.7-.1-.3 2.4-3.8 2.2 2 19.4-2.4v-4.8l2.8 4.6.75.15 14.45 3.25 9.6 2.8h5.8v-5l2.4 7.2 6.6-5.4-3.25-9.3m1.45 63.8.1 5.9-4.3 4.4-10.8 3.6-3.4 9.2.6.25 4.5 1.75h-6.1l-3 5.4h4.75l-5.75 2.6h-2.2l-9.2 5.3-2.05-2.5 4.35-3.9.4-.2 2.7-1.4.35-.55h-2.3q-2.65-.5-5.25-2.95l.05-.8h7.55l2.2-1.4.65.05h.1l.55-.95 3.5-2.3.65-2.1 1.35-4.4-5 1.7h-7l-11.2-5.5-2.4 4.7.4 5.4 2.2 1.3-6.2 6.9 2.3 1.15-8.1 2.05v-7.1 7.1l2.45 2.6-6.15-1 1.1-6.1 2.6-2.6v-1.2l4-3.6v5.2l1.8 3.5-1.8-3.5v-5.2l1.95-4.4-1.15-1.5v-10.8l-3.6-2.1-3.6-2.1 2-5-3.8 2.4-9-9.4-1.1-3 10.3 8 6-4v9l9.8 5.8 4-3.6 5.2 4.2h4.6l6.6-6.8-2.2 9.2 11.55.45q.55-1.9.45-4.05l-1-1.6-.8-.4q-1.15-.1-2 .4-2.5 1.5-1.95 3.45l-1.05-1.45v-1.8l.2-.2q2.4-3.85 7.6-3l2.4 2.6q.8 3.85-.65 6.15H150l-6.7 2.85-1.65.55-9.95 3.05-11.8-5v-3.4l-2.6 3-7.2-4.2 7.2 4.2 2.6-3v3.4l11.8 5 9.95-3.05 1.65-.55 6.7-2.85h.05l3.05-1.3q2-2.65 1.75-6.65l-.15-.8q-3.75-2.65-8.55-2.3l-1.05.1 1.9-.45 4.9-.95 2.8-.2.45.3q.85-1.55 2-3.05l.15-.05-1.45 3.7.2.25 3.65-.95-2.3 3.25v.15l.05.2 1.45-.2q.4.7-.5 2.05l-.2.35h.7l.15.05.25.35.05.15.95-1.25m-16.6 147.9v2l4.6 3.2v6.8l-2.4 2.4-57.7-.1 3.9-1.1v-2.6l-7.2-5.6-1-.8 6.2-2.8 3.55 3.55 1.45 1.45v4.6l17.8-2.2 4.2-3.15 4.2-3.15 3.6-2.65 4.8-3.65 8.8-4h4.4l.8 7.5v.3M32.65-26.15 31-28.85l1.7.65 5.95.25q2.7-.7 3.1-3.45.65-4.45-1.5-8.3l13.1-8.65-3.05-6.8.85.1 15.55 13.1v.1l-.35 3.3-6.25-1 3 2.4-.55-.1q-.65-.3-1.25-.7-1.7-.85-3.4-1.2h-.2q-.65 1.2-.3 3l-.1.8-5 .2q.7.65 1.55 1.25l.45.75h-1.8l1.4 3.6-6.2.8h-.4q-.2.25.3.75l1.3 1.25q-4.95 1.1-9.2 4.4h-1.8l-5.8-1.6 1.1-1.3-.55-.9m-2.05-6.4L29-34.6q4.9-2.8 7.25-7.25l.95-2.3.5-1.8v-1.6l1.8-3v-2.2l-1.85.9-.75.3-.05-.3q-.3-2.05-.1-4.3.7-8.9-7.2-9.2H28.3l-.2.3-.1-.1v-2.3l1.3-1.5h4.1l5.7 2.9 5.7 6.3 2.3 4.6v4.9l-2.4 3.1-1.6 1-4.9 3.1-1.8 2.2v2.4l2.1 3.4-2.1 2.5h-5.8m17.5-28.3q1.2.4 1.85 1.45l.05.15-.2.4-.3.2q-1.15-.75-1.9-1.75 0-.3.3-.4l.2-.05m12.15 9 .6.75q.5.35.9 0v-.75q.05-.6.55-.95v-.05q.45.4.55 1l-.05 1.05v.15l-.5.6-.1.1q-2.3.3-3-1.85l.05-.05q.15-.55.7-.3l.3.3m9.3 14.25.2-3.1 3.15.65.75.1q.05-.95.25-1.9l.25-1.05.15-.15.35 1.2.1 2h.95l.65-.15-.4-1.85-.15-1.7.1-.1 1 1.8.15.4.1-.4.1-1.45-.65-.85q-.8-1.05-1.25-2.2l.15-.1 1.75 1.4q-.1-3.5.6-6.8l.05-.35 1.7-.4.8 1.3.1.15.05.05 3.65 15.25-8.9 3.1-5.75-4.85m13.5-15.2 4.75.2-2-3.8.1.05h3.2l3 3.55.2.25.5 1.8-1.8.6-3.2 9.6-1.1 1.85-.05.05L84.05-49l-1-3.8m-35.4 6.7q-.2-.45.25-.7l.2-.05q1.05.85-.3.85l-.15-.1M92.9-17.3v-.45h.35l2.45-.3v1.9h-2.8v-1.15m48.9 55.5 3.5-2.4q1.9-1.65 3.25-3.7-1.35 2.05-3.25 3.7l-3.5 2.4m-51.25-3.1 1.55-1.65 9 9.4 3.8-2.4-2 5 3.6 2.1-6.6 9.9v2l-3.3 1.9 3.3-1.9 1.2 2.4v5l-4.5-5.5-1.2-6.3v-7.9l1.5-4.9-6.35-7.15m2.15-11.05 2.8.4v2.2h-2.8v-2.6M123.45-5.9l.2-.25-.15-.1H106l2.7 7.4 2.3-3.3 4.2 6.4-1.7 6.9h-1.3l-1.5-3.6v9.1l3.1-.95.35-2.45V13q.65-3.95 2.25-7.6 1.65-3.9 4.05-7.4l3-3.9m21.2 10.55.25.55-.25-.55m1.9 26.4q-1.2 2-3 3.65l-1.7 1.35 1.7-1.35q1.8-1.65 3-3.65m1.25.65-.25.4.25-.4m-31.1-17.45q.55-3.55 1.9-6.8 1.45-3.5 3.5-6.65l2.65-3.55L122.1.8q-2.05 3.15-3.5 6.65-1.35 3.25-1.9 6.8m-19.15 34.5L97 48.3l.55.45m2.35 2.45v6.25-6.25m59.45-4.4-2.45 3.05-3.8 1.65 3.8-1.65 2.45-3.05m-45.3 18.7-2.8-3.55 2.8 3.55m27.5-15 .35.35q.8.8.4 1-.55-.7-.75-1.35m.1 5.7-1.35 4.35 1.35-4.35m-2.2 9.4-.5-.65.5.65m-1.55 10.45-3.8-4.35 3.8 4.35m-16.6 119.9 22.4-.5-22.4.5m37.8-193.5v-2.6 2.6" transform="translate(167.9 216.5)"/><path fill-rule="evenodd" fill="#28385b" d="m67.5-54.35 1.3-1.5h2.05l-1.1 15.15-.2 3.1-.7 9.85-.05.3-1.85.7 1.85-.7.95.7-1.35 1.7 1.2 2.7 1.05.55-.15.15h-3.2l-2.7-1.9.5-2.5 1.85-.7.7-7.6v-.15l1.45-16.45-1.6-2.3v-1.1m15.2.2.35 1.35 1 3.8 2.6 10.35.3 1.4.95 4.4.3 3.7-.1.4-.75 3.4-.25 1.15v.05l-.6 2.6-.45-.3-2.75-1.9v-4l.9-5.2v-.55l.1.05.35-3.15q.05-1.85-.95-5.25l-.3-1-.4-1.3q-.9-3-1.4-6.15l-.2-1.05-1 .05-.8-1.3-.15-.2-.05-.25v.15l-1-1.55 2.2-.7 2.1 1M59.5-9.45l-2.6-.7.2-.2q.9-1.7 1.4-4l1.7-.15.6.95v2.3l-1.3 1.8 1.3-1.8v-2.3l4.4 3.2H70l1.2-2.5 1.9 3.5 1.2 2.2v2.8l-12.2 11v2h5.6l-1.7 2.7 3.15-2.3-2.65 3.6-1.25.35-.3.05 1.05-1.7-3.5.5-7.1-1.35-3.3-.65-4.2-2.1 8.8.15 3-.05-.55-2-.1-.2-.15-1.2-1.4-2q.5-2.8 1.6-5.6l.6-.6.95-4.9.05-.5-1.2-.3m1.3-1.8v2.3l-.15.3.15-.3v-2.3m16.1-8.6-2.3 3.7h-3.2l-.8.85-.8.85-2.1-.1-.9-.35-3.3-1.35v-3.1l9.5 3.2 3.9-3.7m-7 14.5-2.3-5 2.3 5m-8 4.8 3.3-4.8v-5 5l-3.3 4.8" transform="translate(167.9 216.5)"/><path fill-rule="evenodd" fill="#8891b9" d="m67.5-53.25 1.6 2.3-1.45 16.45v.15l-.7 7.6-1.85.7 1.25-12.5.35-3.3v-.1l.8-8.2v-3.1m11.95.45-.05-.1v-.15l.05.25m.95 1.5 1-.05.2 1.05q.5 3.15 1.4 6.15l.4 1.3.3 1q1 3.4.95 5.25l-.35 3.15-.1-.05v-2.35L80.55-51.1l-.05-.05-.1-.15M60.2-14.5l.6-1.15 5 2.8-5-2.8 1.35-1.5 1.35.9 3.3 1.35-1 2.05.6 2.5h-1.2l-4.4-3.2-.6-.95m12.75-8.15h1.55l1.1 1.3-.2 2.4q-1.65 1.2-3.7 1-3-.05-5.6-1.5l-.8-.5 8.3-.3v-.1l-.4-1.2-.3-.4.05-.7" transform="translate(167.9 216.5)"/><path fill-rule="evenodd" fill="#d1d1d1" d="M29.8-81.45h3.85l1.2-.8v4.2l-1.35.95h-3.25l-1.3-.35.85-2.35v-1.65m-8.3 5.3.05.3v2.15l-2.95.5-2.9.5v-3.75l-1.2-3.7 2.95 4.1 4.05-.1m3.05 8.1h.05v2.45l-1.85 2.8-3.05 1.7-1.85-5.4-1.45-2-.1-.1 2.6-2.7 2.15-.35.95 1 .8.8.15.15 1.6 1.65m-1.75-1.8-2.35 4.25 2.75-1.25-.4-3" transform="translate(167.9 216.5)"/><path fill-rule="evenodd" fill="#42352f" d="m29-34.6-.8-1.05-1.4-2.9.65-1.05.9.4q5.1 1.6 7.2-3.4l.25-.6.25-.95.3-1.25q.4-2.25.4-4.8l-.05-1.65q-.25-4.55-1.9-7.95-1.2-2.4-2.7-3.35l-1.2-.5-.65-.1h-.2.2l.65.1-.85-.1-1.15.4.05-.1.15-.3-1-1.3.2-.3h1.25q7.9.3 7.2 9.2-.2 2.25.1 4.3l.05.3.75-.3 1.85-.9v2.2l-1.8 3v1.6l-.5 1.8-.95 2.3Q33.9-37.4 29-34.6m39.8 7.15.05-.3.7-9.85 5.75 4.85 8.9-3.1v2.9l-.9 5.2-11.8 2.2-1.75-1.2-.95-.7m-2.45-11.1-1.25 12.5-.5 2.5-1.4-.8-3.7-2.6h-2.3l-1.4 3.5-4.6 1.1H39.7q4.25-3.3 9.2-4.4L47.6-28q-.5-.5-.3-.75h.4l6.2-.8-1.4-3.6h1.8l-.45-.75q-.85-.6-1.55-1.25l5-.2.1-.8q-.35-1.8.3-3h.2q1.7.35 3.4 1.2.6.4 1.25.7l.55.1-3-2.4 6.25 1m21.85 9.4-.3-3.7-.95-4.4-.3-1.4.05-.05 1.1-1.85 3.2-9.6 1.8-.6h.05l1.75-.6-1.2 2.3 1.2 1.7.4 4.1-1.1 2.4v5.3l-3 9.4v-3h-2.7" transform="translate(167.9 216.5)"/><path fill-rule="evenodd" fill="#cbc904" d="M27.45-39.6q-3.2-2.9-3.45-7.55v-4.7q.35-4.9 2.75-9.05.8-1.3 2.15-2.45l1.15-.4.85.1 1.2.5q-4.85.95-4.45 6.15.35 4.4 1.75 8.7 1.55 4.6 6.15 5.7-2.1 5-7.2 3.4l-.9-.4m-1.1-9.45v-1.35l-.45-4.85-.55.25-.45 1.4q-.7 3.1-.2 6.4l.25 1q.9 6.75 6.1 6.25l.15.05.4-.1.35-.1h.2l.05-.15.6-.8.5-.8-.5-.2q-2.7-1.35-4.9-3.4l-1.55-3.6" transform="translate(167.9 216.5)"/><path fill-rule="evenodd" fill="#333201" d="M32.1-63.15q1.5.95 2.7 3.35 1.65 3.4 1.9 7.95l.05 1.65q0 2.55-.4 4.8l-.3 1.25-.25.95-.25.6q-4.6-1.1-6.15-5.7-1.4-4.3-1.75-8.7-.4-5.2 4.45-6.15m-5.75 14.1 1.55 3.6.7 1.15q1.7 2.3 4.2 3.25l-.6.8-.6.25-.4.1-.15-.05q-3.8-1.6-5.65-5.25l-.45-1-.25-1 .45-2.3.5-.2.7.65m8.9-1.55v-3.75q.1-5.75-4.75-8.05l-.45.15-.6 1.15L32.8-55q.7 1.45.85 3.05.15 2.05 1.55 2.1l.05-.75m.35 3.2v-1.1l-.5-.7v.05l-.35.1-.25.05-.3.3-.15.2q-.3.55-.1 1.4l.25.65v.05q.3.55.8.1l.5-.8.1-.3" transform="translate(167.9 216.5)"/><path fill-rule="evenodd" fill="#e5e5e5" d="m35.25-50.6-.05.75q-1.4-.05-1.55-2.1-.15-1.6-.85-3.05l-3.35-6.1.6-1.15.45-.15q4.85 2.3 4.75 8.05v3.75m.35 3.2-.1.3-.5.8q-.5.45-.8-.1v-.05l-.25-.65q-.2-.85.1-1.4l.15-.2.3-.3.25-.05.35-.1v-.05l.5.7v1.1" transform="translate(167.9 216.5)"/><path fill-rule="evenodd" fill="#8a895d" d="M24.7-47.2q-.5-3.3.2-6.4l.45-1.4.55-.25.45 4.85v1.35l-.7-.65-.5.2-.45 2.3m3.2 1.75q2.2 2.05 4.9 3.4l.5.2-.5.8q-2.5-.95-4.2-3.25l-.7-1.15" transform="translate(167.9 216.5)"/><path fill-rule="evenodd" fill-opacity=".8" fill="#20474d" d="m32.2-40.25-.05.15h-.2l-.35.1.6-.25m-1.15.3q-5.2.5-6.1-6.25l.45 1q1.85 3.65 5.65 5.25" transform="translate(167.9 216.5)"/><path fill-rule="evenodd" fill="#484c7d" d="m83.3-23.75 2.75 1.9.45.3.6-2.6v-.05l.25-1.15.2.2 3.35 2.8-1.35 1.65-3.25 3.8-1.4 1.55v-3.6l-2.5 2.15-1.9-3.95v-3h2.8m-13.55-3 1.75 1.2v2.9l-.85.85.85-.85h1.45l-.05.7.3.4.4 1.2v.1l-8.3.3.8.5q2.6 1.45 5.6 1.5 2.05.2 3.7-1l.2-2.4 1.3 1.5-3.9 3.7-9.5-3.2v3.1l-1.35-.9-1.35-.9-3.4-1.7-1.6-3.7 1.4-3.5h2.3l3.7 2.6 1.4.8 2.7 1.9h3.2l.15-.15-1.05-.55-1.2-2.7 1.35-1.7M45.3-6.45q.4 2.8 1.5 5.4.6-2.05 1.9-3l1-2.9q.75-3.2 2.4-6 2.25-.9 4.2-2.4l.25-.1h3.05l.6.95-1.7.15q-.5 2.3-1.4 4l-.2.2 2.6.7-2 2.7v2.6l3.15-4.5-3.15 4.5v-2.6l2-2.7 1.2.3-.05.5-.95 4.9-.6.6q-1.1 2.8-1.6 5.6l1.4 2 .15 1.2.1.2.55 2-3 .05-8.8-.15-2.6-1.3v-12.9m4.6 9.7v-6l3.6-8 6.1-4.7-6.1 4.7-3.6 8v6m6-4.2v-.65q-.1-.25.05-.5l.15-.25q-.55-1.6-.5-3.6l-.1-1.4.2-.6q-2.55 3.8.05 6.95l.15.05M70.6-15.3l-.4 1.3-.4 1.15.2 2.5h-3.6l-.6-2.5 1-2.05.9.35 2.1.1.8-.85m-11.5-7.15 1.7 4.4-1.7-4.4m10.7 9.6h-4 4" transform="translate(167.9 216.5)"/><path fill-rule="evenodd" fill="#98a2c0" d="M45.3-6.45v-.5l7.4-8.5h3.85l-.25.1q-1.95 1.5-4.2 2.4-1.65 2.8-2.4 6l-1 2.9q-1.3.95-1.9 3-1.1-2.6-1.5-5.4m10.6 5.5L55.75-1q-2.6-3.15-.05-6.95l-.2.6.1 1.4q-.05 2 .5 3.6l-.15.25q-.15.25-.05.5v.65" transform="translate(167.9 216.5)"/><path fill-rule="evenodd" fill="#7475af" d="m59.6-15.45 1.2-1.4v-1.2l1.35.9-1.35 1.5-.6 1.15-.6-.95m1.2-1.4v1.2-1.2M70.2-14l1 1.15-1.2 2.5-.2-2.5.4-1.15" transform="translate(167.9 216.5)"/><path fill-rule="evenodd" fill="#3b3b3d" d="m119.5 104.85 6.8 4.4v5.2l-2.25 1.75v6.65l1.9 4.4-2.8-.7.9-3.7-.9 3.7-2.05-.3q-.95-1.9-2.55-3.15-1.45-1.1-1.05-1.65h-10.4l-2.35-2.2-.05-.6-2.8-2 2.85 2.6q.35 9.35-1.65 18.6-17.75 14.6-40.8 18.4v8.8l-4.8 3.2q4.15 4.4 6.8 9.6-11.55 1.65-22.4 4.65l-4.8 1.35.45.3q5.8 2.5 4.75 5.3 22.05-5.95 45.6-1.6l.8.8h1.6l2 1.6q13.15-1.7 24.85.85 3.95.85 7.75 2.2l-3.6 2.65-5.7-.2 5.7.2-4.2 3.15-4.2 3.15-17.8 2.2v-4.6l-1.45-1.45-3.55-3.55-6.2 2.8 1 .8 7.2 5.6v2.6l-3.9 1.1-3.9 1.1-19 3.4v-3H49.5l4.4 2.4h-8.8l-2.95-1.2-6.45-2.6H23.3v3.4l-13-4H-.9l-15.6-1.4-19.35 4.5-.25.1-7.45 1.7-7.35 1.7h-28.8l.65-.25-1.45.15q-1.75.15-3.3.65-2.3.8-4.8 1.2l-3.9.35-17.6.5-.8.05h-1.7l-11.9-6.45-12-3.6h-19.2v-26.8q.3 1.2 1.6 1.4 4.85.65 8.85 2.8l.7.35q3.45 1.95 6.25 5 .6.65 1.9.9l1.45-.45q10.1-2.85 20.85-5.4 1.6-.4 2.8-1.3l5.55-4.2 1.2-.95.35-.2.55-.2q2.4-.3 4.85-.1l.65.05 4.2.45 5.05-4.35 11.25-9.75.55-.5.3 14.6.1 5.85-5.65.75-.7 1.4-1.85 4.2q-1.45 3.85-3.6 5.45l1.6-.1q13.35-1.3 26.4-3.9l4.1-1.35q3.4-1.55 6.95-3l5.85-2.6 7.55-4q2.4-1.45 4.95-2.1l6.15-8.45 7.3 6.95 2.5-2.05q10.45 8.45 22.4 16.75l1 .7.85.75 4 1.6q4.55-3.15 5.5-12.35l.05-.45.05-1.6q-5.05-5.7-11.05-9.15l-3.35-6.05h14.4v-8l-23.2-26.4-11.8-24.4 2-5.8-2.9-2.5-1.05-.35 3.15-2.95 9.5 4.3-1.3-2.3 3-2 7.2-10.6 5.7 1.1-3.7-3.7H2l-8.6 3.6 3.6-7.2v-6.3h2.2l3.9-4-1.9-1.7 6.6-2 17.7-2.2 2.2-4.8 6.2-8v-10.6l16.6-12.6.8 3.2h9l-2.6 10.6 12.6-23.2v-3.8Q77.15.15 84.6-8.25l4.1 11.7 2.6 13.2-4.6 11.6v6.8l-1.2 5.2-2.6 4.2 2 3.6-2.8 5.8v4.8l2.1 1.6v4.8l3.75 2v12.2h3.95q-3.95 12.15-12.3 21.8l-5.3 4-1.2 2.4 4.35-4.05 2.15-2.35q9.3-7.6 16.15-17.05l.65 4.75-11.3 23.5-26.8 25.2-11.6 11.6v7.6l18-11.6 20-17.2 14.4-18.8 2.85-7.7 13.15 9.7 2.2 3.4 2.9-1.6 2.9-1.6v-2.4l-3.35-1.35-.25-2.65m24.35 88.3-.15.3v-.3h.15M-120 216l-5.25-.85-4.9-1-7.05-1.45q-9.55-2-18.5-.45v-3.6h22.4L-120 216m56-76.15-3.5-9.6-28.85 9.7-7.2 4.75v1.55l5 8.6h1.85v3.4l3.4 3.2v6.4l-10.4-5.6h-4v6.4l-32.4-4.4-14-10.8-1.7-6.3q7.05 5.9 16.85 8.15 3.25.65 6.05 1.75 2.35-1.1 4.6-2.6 2.85-1.95 5.5-4.5 1.25-1.25.3-1.7l7.2-2q-3.7-2.4-7.75-4.5-1.8-.95-3.85-1.1l3.2-.4 7.2 1.2q-1.9-1.35-3.35-4.15-.85-1.65-2.5-3.25l-1.75-1.4-.5-4.8v-.25l13.5-3.75 27.4-14.3 16.4 1.7 7.2-6.8h7.7l10.7 11.4v27.6h-12.4l-9.9-3.6m-91.7-32.8-.8-6.6-9.4-3.3-2-.7 2-1.45 12.6-9.35 6 7-6.2 10.65-2.2 3.75m31.6 17.7 22-15.5h11l-21.8 11.6-6.4 2.5-5 1.95.2-.55m73.75-20.3h2.05l3.1 2.15 3.3 2.25h10.4v3.1h-9.4l-9.45-7.5m-7.75-90.2h6.8l8.25-7.9 1.35-1.3L-29.55-.4q.1-.1.25-.15v9.2l5.2 7.2-8.4 6.8 4.4 4.8h6l-6.8 14.2-4.4-3.6-1.6-3.6-.2.45-1.5 2.85-5.2-1.1-2.7-3v-13.9H-46l-3.8 8.4h-6.7l-7.6-7.9 6-6m96.65 9.3 2.55-1.5 3.1-2.3 2.5 5.3-7.4 6-9.4 6.2-7.4-4.9 3.4-1.3 12.65-7.5M82.4-16.8l2.5-2.15v3.6l-2.35 3.8L69.7 8.65l-.55.4-3.15 2.3 1.7-2.7h-5.6v-2l12.2-11v-5.6L81.45-16l.95-.8m18.7-40.45h-1.5l.6-1.2.25.35.65.85m-3-4h-3.4v-1.5l7.4-10.1 1.2 3.9-5.2 7.7m-122.6 239.1q-3.4-.35-6.6.55 3.2-.9 6.6-.55M64.3 87.8l-6 2.4 4.75-15.1-2.3-1.55-1.25 1.05-6.35.8.3.85-13.6-2.05-3.55 5.25v4.4l-.1 1.2q-.25 1.9-1.15 3.35l-1.2 1.45q-.85.6-1.8.6l-.55.2.8.3 3.35 1.5 2.45 1.1 7.4-6.9 2.55 3.65-1.1 6.85 7.9-4.4 1.1 1.25 5.9.2 3-6.15.25-.6-.8.35m5.95-7.95.4-.15.45-.25-.05-.05q-1.6-1.25-1.55-3.55l.1-.75.3-.45-.4-.35-1.35 1.75-1.95 2.1q-.3.3-.1.8l.65.85q1.25 1 2.85.25l.65-.2m-7.7 28.95q-17.25 17.5-38.1 29.15l-.55.15-2.7 2.65q19.3 1.25 34-14 6.4-6.65 10.7-13.3l-3.35-4.65M43.1 99.1l-1.8.85-1.95 1.35 3.9-2.1 2-1.15-2.15 1.05m80.95 17.1-6.55 5.25 6.55-5.25M92.1 204.05l-26.8 5.2 26.8-5.2m-68.8 4.5-13-1.3 13 1.3m2.2-.7-16.8-8H-5.25 8.7l16.8 8m-13.2-4.6H.1h12.2m41.6 8.4-11.75-1.2 11.75 1.2m63.2-12.55-22 .75 22-.75M-5.15 71.55v5.1l-4.3 7.15-2.85-1.25 1.5-1.8 1.6-3.9h-1.6l-7.8 2.9 5.4-9.2 6.1-2.9-3.4 3.7 1 .2h4.35M-21.3 96.5l-9.9-3.55 8.1-1.9 5.15 2.3-3.35 3.15m-67.25 81.75.05-.2-.3.2.2.05-.3 1.05.3-1.05.05-.05 8.05.4-8.05-.4m10.9-12.5-2.85 12.9 2.85-12.9m-2.85 12.9v.1q-.6 2.9-1.85 5.65l-6.55.9 6.55-.9q1.25-2.75 1.85-5.65v-.1m-8.4 5.85 1.35-1.45-1.35-.9 1.35.9-1.35 1.45m85.6 9.15v3-3m-27.25-13.2-1.65-.6 1.1-1.45-1.1 1.45 1.65.6m29.65 26.8-7.2-4.35 7.2 4.35m-6.95-4.35h-.25.25l7.95.35-7.95-.35m-57.45 8.55 2.1.35-9 .9 9-.9-2.1-.35-6.9 1.25 6.9-1.25m47.05-11.6h-4.85l-20.45 12.3-6.95-.5 6.95.5 20.45-12.3h4.85m2.65 2.7-6.9-.3-13.35 8.1 13.35-8.1 6.9.3m-57.1 10.25.5-.1-.5.1-6.35.8 24.15-9.35-24.15 9.35 6.35-.8m21.8 1.05-12.3-2.05 12.3 2.05" transform="translate(167.9 216.5)"/><path fill-rule="evenodd" fill="#776357" d="m147.65 4.55.2.35q1.85 4.1 2.95 8.4l.7 3.6.2 2.4-.05 2.55q-.25 3.8-1.65 7.35l-1.45 2.9-.75-.4-1.25-.65 1.05-2.3q1.2-3.2 1.4-6.6V18.8l-.1-1.2-.6-3.1q-.95-3.85-2.55-7.5l-.85-1.8 1.95-2.35.4.8.4.9M150.7 20l-.05 1.85q-.25 3.8-1.65 7.35l-1.2 2.5 1.2-2.5q1.4-3.55 1.65-7.35l.05-1.85m-3.75-14.8q1.75 3.9 2.85 8.1l.65 3.15-.65-3.15q-1.1-4.2-2.85-8.1" transform="translate(167.9 216.5)"/><path stroke-width=".05" stroke-linejoin="round" stroke-linecap="round" stroke="#000" fill="none" d="m232.45 32.75 2.9.9h4.6V31.8l1.65-5.2.75-2.35 1-3.15v-7.95l1.75-5.2 7.35-5.65 1.35-.45L258.85 0h9.1l7.2.6 6.7 5.8 1.1 3.6 3.35 7.8-.45 6.25 1.15 3.1v5.05l-1.3 4.2-6 5.95-2.9 2v.9l1.55 2 1.55 3.85v3.05l1 2.05-2.1 1.85-3.25-.05v5.55H278v.85l1.55.3 2.45-2.3h6.1l4.5 5.2h8.35v2l-2.5 2.75v2.35h2.95l-1.05 2.1 1.4 1.05 4.15-1.35 1.95 2.65v6.45l-3.1 6.35v7.3l1.15 2.9-1.85 2.25h-2v2h3.6l-5.25 7.6-.8.6 1.25 1.15 3.1 6.05 3.9 4.55 1.15 6.45-1.75 5.8-3.6 7.1 3.95 2.35 4 6.7 1.6 4.2-1.3 7.8 4 9.8.7 2.95.7 2.95v10.8l9.45 5 3.25 1.7 5.8 7.6v6.8l-6.4 5-2.4-.4v11l-2.8 3.8 2.2 2.6v4.1l5.2 10.9v6.4l-3.4 4.3.1 5.9.1 10.2-2.2 6.8-2.2 1.5-.7 3.3-3.3 1.2-2.9 4.3-5.6 5.4-11.8 2.9-6.3-3.1-2.05-2.5v18.2l-4.2 2.55.25 2.65 6.8 4.4v5.2l-2.25 1.75v6.65l1.9 4.4 4.95 11.4 3 12.2 11.8 36.8-1.85 5.5-.15.3v2l4.6 3.2v6.8l-2.4 2.4-57.7-.1-3.9 1.1-19 3.4v-3h-15.8l4.4 2.4H213l-2.95-1.2-6.45-2.6h-12.4v3.4l-13-4H167l-15.6-1.4-19.35 4.5m-.25.1-7.45 1.7-7.35 1.7H88.2l.65-.25-1.45.15q-1.75.15-3.3.65-2.3.8-4.8 1.2m-.3-42.15 11.25-9.75m-.15-4.75-.75-4.35M2 313.65l-2-.7 2-1.45m101.4-58.05v-.3l-.1-.05m21.15-49.5 4.4 4.1 1.85 1.75.15.15m21.1 44.15 1.75-1.6h-2.05m-.3-1.05 2.85-4.25 15.7-14 15.5-11.5-3.8 6.8 2 3.1 11.3-8.3v-6.6l-1.1-1.4h-3.6l12.4-8.5v-3.3l-4.5-2.4-1.9-4.7 1.1-3.1 3.25-2.6-1.65-2.7-.4-.6v-3.1l-1.6-2.05-.8-1.05-1.4-2.9.65-1.05m-3.45-12.25-3.05 1.6h-3.15l-4.65-3.9-.85-2.7-3.2-.85-2.55-3.65-1.25-5.3.85-3.1-3.55-1.75-1.95-4.5.95-7.25 4.65.3m-2.5-2.6-2.25-2.3.5-9.1 3.4-2.8h7.25l2 3m11.55 7.05.25-2.65 1.05-2.45 3-1.55h4.35l7.85 4.3v2.8l1.2 2 .7-.9 3.5-3.2.7-1.25 2.5-4.65h1.65l.75-1.3 4.1-5.6 6-2.9v-1.6l1.4-3.6v-3l-1.5-3 1.3-3.6 1.9-2.5 1.95-2.5-.9-1.15-4.8-2.15-2.65-2.75v-6.15l2.15-2.05h2.95l1.55.65 1.6.7v-5.1l.95-1.35.8-1.25h3.4l.65 1.4.65-.65.45-.4m.05-.45-.9-1.2V65.6l2-1.9h.65m4.3-3.05.05-1.15.2-2.8-.35-.3-1.8-.05-1.2-.05-1-2.05 1.3-1.8-2-2.15v-2.45l2-3.05 1.85-2.15-1.3-1.7-2.4-.1-1.3-2.1-5.3 3-6.85-1.85h-.65m35.8-8.9h3.05l5.45-1.1 1-.3.95-.5.9-.5 1.85-1m-11.85 4.05q.15.8.95 1.75.7.6 2.8 1.2 1.2.3 2.8 0l1.15-.6q.85-.6 1.15-1.4l.35-2.25-.05-.45.4-.2.45-.45v-.65m-14.75 8h3.9l-1.4 1.1 2.9 1.3h3.45l1.25-2.7h2.05l4.25 3.9v2.15m-20.3-11.8h1.3m-6.8 6 1.6 1 1.95-2.7 3 1.65.25.1h2.6m-13.05-7.95-.9-.5v.65l.45.45.1.05m.35-.65.95.5 1 .3q2.8.95 5.45 1.1h1.75v.65q-.2.8-1 1.75-.7.6-2.8 1.2-1.2.3-2.8 0l-.55-.25q-1.35-.75-1.75-1.75-.4-2.15-.3-2.7l-.3-.15m.6 7.9 2.3-1.3 1.1.65M268 31q-.05.3.05.65m10.2 21.6.85.25.8.65m-30 2.55 2.3 1.9 5.2 1.85h11.15l7-2.45m2.95 7.7 1.05-1m-1.85.45.3-.75m-3-.35.55-.5m1.25-22.7v3.5m8.05 27.6-5.15 1.25m-2.5 4.7 6.2-2.95h4.75l.45-1.9-3.75-1.1M274.7 82.8l1.6-3.9m7.7 34.7.55 3-.25 2.25-.7 6.85m9.2 29.3 6.3 3.9m-43.5-63.1.65.5-4.05 2.3-5.5-1-2.45-1.4m14.1 30.75H257m-31.2 29.4 5.3 5m7.4-5.1h.2l.1.15m4.35 5.35h1.45v-1.1m5-7.4v-3.1l.1-.35m22.35-22.4 5.95-2.45 6.3-6.1M253.1 96.3v-1.55m0 1.55h3.15m-19.15 15.35.8.45.9.45m41-12.55.95 3.05 2.65 7.5.6 3.05m-3.25-10.55-2.95-2.75-1.5-3.65m15.45-22.25q1.25.7 2.55 1.45l.95 2.1.9 2.05-3.15-1.7 2.15 4.4 2.55 4.05 1.05-1.45v4.8l-1.1 2.65v4.9l-1.1 2.4v2.5l3.05 12.05m-11-41.55 1.5.4 1.65.95M248.2 27.55l-.7-.4m-16.75 9.1h4v2h3.05V36.4l4.6.3-2.45-3.05m7.45 7.3-1.3-1.65v-1h2.3l.35-.15 1.75-.95m-8.1-.5 1.3 2.05m3.15 13.7.9-.8.55-.5m-4.95 21.35-.9-2.05M241 85.95l-.55-.55-1.8-1.8m2.35 2.35 1.25 1.25 2.65 1.05m-8.25-11.5v5.15h3.3m2.2 13.1 2.1 1.2m-7.5-6.55 3.35 4.2 2.05 1.15m-15.8 26.55H229l3.6 2.2m-12.25 27.05-.95.25 6.4 5.3m10.8-18.9v.05m-12.1-15.95h1.85m-5.5-2.3-.75 1.3 1.9 1h2.5m-14.2 23.15 3.9 2.7 5.2 3.65m-7.6-21.8-1.6 2-1.15 2.4-2.55 4.35-.15.25m2.4 5.45 1.55 1m.7 25.65-4.9 3.1-1.8 2.2v2.4l2.1 3.4-2.1 2.5h-5.8m36.35 5.8 1.85-.7.05-.3m-1.35-23.95v1.55l-.8 8.2v.1l-.35 3.3-1.25 12.5 1.85-.7M252.1 183v.55l-.9 5.2v4l2.75 1.9m1.05-2.3v-.05l.25-1.15.75-3.4m-1.15-8.5-.3-1.4-2.6-10.35m-3.5-2.1 3.65 15.25V183m-45.5-59.1v-.6m-9.6 29.45-1-1.3-.1-.1v-2.3l1.3-1.5v-1.5l.65-1.25 1.05-2.05 3.3-1.3h2.6m1.5-3 .05-.2m-.05.2-1.1 3 3.55 2.25m-3.55-2.25h-.4m-7.6 6.1h2.75m.6 42.8.55.9-1.1 1.3 5.8 1.6h1.8m-5 9-1-3.4h4l3.8 2.8m-6.8 8.2v13.8l3.4 13.6m26.2-7.6-2.6 1.25m-27-25.35v4.3m34.1-21.7.95.7 1.75 1.2 11.8-2.2m-12.65 5.95.85-.85v-2.9m-15.7 2.1 1.4-3.5h2.3l3.7 2.6 1.4.8.5-2.5m-8.55 10.6h-3.85l-7.4 8.5v13.4l2.6 1.3 4.2 2.1 3.3.65m1.15-25.95h3.05l1.2-1.4v-1.2l-3.4-1.7-1.6-3.7-4.6 1.1h-11.5m20.5 7.85-.6-.95-6.1 4.7-3.6 8v6m10.9-18.9v-1.2m-.15 8.2-3.15 4.5v-2.6l2-2.7 1.3-1.8v-2.3l-.6-.95m.45 5.85.15-.3v-2.3m22.5-12.5h-2.8v3l1.9 3.95 2.5-2.15v3.6l1.4-1.55m1.25-8.25-.2-.2m-14.4 2.7h1.55l1.1 1.3 1.3 1.5-2.3 3.7h-3.2l-.8.85-.4 1.3 1 1.15 1.9 3.5m8.35-6.65.95-.8m-9.45-5.85h-1.45m-6.9-.9 2.7 1.9h3.2l.15-.15m-4.85 8.95-5-2.8m1.35-1.5-1.35-.9-1.7-4.4m3.05 5.3 1.35.9 3.3 1.35.9.35 2.1.1.8-.85m-.4 1.3-.4 1.15m.2 2.5 1.2-2.5m-5.4 0h4m-3.4 2.5h3.6m-4.8 0v5l-3.3 4.8m5.7-9.8 2.3 5m-9.1-8.2 4.4 3.2h1.2M303.15 149v2.4m.5-5.7-.5.95V149l3.25 2.05 1.7 3.5v3.8l-2.7 1.8h-4.3l-2-1.25m-6.3-3.9-4.3-2.65-4.7-1.25-1.35 1.25-3.65 3.2v5l1.25.8 3.15-3.8h4.2m4.8 3 6.4 3.6m5 2.2h2.2m5.2-3.3.9 3.7m-29.85-34.15.5-.7 1.05-6.2m-1.05 6.2-.3 1.4m-25.6 26.85h.35l3 3.55m10.05 1.8.85-3.35-1.9-2.9h-.55m-.1-.85.65.85m-14.4 18.55-.05.05m27.25-40.6v5.65l2 8.2m-3.75 10.25 2.95 1.8 1.1 7.5-5.3 4-1.8 2.5 1.7 2.2-1.4 2.35-1.2 2.05v6.6l15.1-2 17.2 4 8.9.9m-6.6-18.85 5.9 5.1m-41.9-11.95-1.8 2.6 1.3 4.8 1.7-4.5-1.2-2.9m-5.45 9.05 2.85 1.45-2.2 1.1v2.9l2.1-1.2v5.5l-6.2 1.4v-3.4m-2.2 14.1v-1.9l12.5-6.2m-16.8 10.7-1.3 1.9 2 6h3.6l.1.3m-2.9-10.05v1.15h2.8v-1.9l-2.45.3m8.3 38.95.15.75m0 1.7.25.1m15.35 8.55 2.9 1.65m-34.7 6.3 5.05-5.15 1.55-1.65-1.1-3-1.1-3 2.8-3.4 2.8.4v-2.2l3-2.6m20.6-38.6v-1.4m-11 1.8h3.2l.8 1.4m1.6 2.85.2.35h-4v-2m43.2 9.75v-4.55l2.4 7.2m-34.8-18.2 3.2-3.4M248.9 39.9l-.2 2.75m0 13.05.85.7m-.2-28.25-1.15-.6m75.75 221.1 2.25-1.9-2.8-5.6m3.85 22.15.95-1.25m-1.8-21.6v4.1m-63-3.6v2.2h-2.8v-2.6m-6.8 19.8h5l3.1 2.25m-9.1 1.95 3.5-4.2m-2.9-3.6-2.6 4.2 2 3.6-2.8 5.8v4.8l2.1 1.6 2.1 1.6m10.3-.5 3.3-1.9v-8.25m-2.9-2.9.55.45m-5.45-15.3 9 9.4 3.8-2.4-2 5 3.6 2.1 3.6 2.1 7.2 4.2 2.6-3v3.4l11.8 5 9.95-3.05 1.65-.55 6.7-2.85h.05L321 268l3.8-1.65 2.45-3.05m-57.65-23.15-2.4-1.4m11.8 52.8 2.3 1.15 6.1 2.95h5.2l3.1-1.6.4-.2m-4.45-5.7H291l-2.2-1.3m-10.8-20.7v10.8l1.15 1.5 2.8 3.55m-4.75.85-4 3.6v8.3m4-11.9v5.2l1.8 3.5m.15-13.1-1.95 4.4m-4 4.8-2.6 2.6-1.1 6.1 9.5 5.8 8.3-2.2h1.8l2.25-2 4.35-3.9m-20.05 3.3-2.45-2.6m-4.2-11.4v-5l-1.2-2.4m-11.95 7.6-3.75-2v-4.8m3.75 6.8 3.75 2 9.4-2.2m-4.5-5.5-3.3 1.9m26.1 20.2h-9.2l-2.45-2.6m34.75-11.95 4.5 1.75 5.1 2 4-2.7m-15.8-9.4 1.35-4.35m-11.75 15.45h-6.15m10.3-1.75.75-.55 3.5-2.3.65-2.1 1.35-4.4m-1.35 4.4.5.65m-4.65 3.75-.55.95h-.1m8.5 5.75h4.75l4.7-1.6m-18-2.75 3.8 4.35h4.75m-42.75-18.6 6.6-9.9m-41.9-33.95-.3.45m-56.5 49.8-6.6 2 1.9 1.7-3.9 4h-8.7l-1-.2 3.4-3.7-6.1 2.9-5.4 9.2 7.8-2.9h1.6l-1.6 3.9-1.5 1.8 2.85 1.25 2.85 1.25 8.6-3.6h3.3l3.7 3.7-5.7-1.1-7.2 10.6-3 2 1.3 2.3-9.5-4.3m-3.15 2.95 1.05.35 2.9 2.5-2 5.8m1.15 68.6-2.5 2.05-7.3-6.95-6.15 8.45q3.2-.9 6.6-.55m44.55-138.6-1.45 1.4-3.7 3.6 2.2 1.7 2.2 1.7-4.6 7.8-4 5.6-2.9 2.8m26.05 26q-.85.6-1.8.6m.25.5 3.35 1.5m-3.35-1.5-.8-.3.55-.2m38.2-10.6.4-.15.45-.25-.05-.05q-1.6-1.25-1.55-3.55l.1-.75.3-.45m-.4-.35-1.35 1.75m-24.9 23.15-3.9 2.1 1.95-1.35 1.8-.85m74.4 22.35 6.55-5.25m-3.85-3.35 2.9-1.6v-2.4l-3.35-1.35.45 5.35-2.9 1.6-2.2-3.4v-6.4l4.15-2.45m3.9 24.35.9-3.7m-4.55-18 .25 2.65m3.4 19.05-2.65 10.9m-35.6 61 7.2 5.6v2.6l-3.9 1.1m33.1-11.8 3.6-2.65 4.8-3.65 8.8-4h4.4l.8 7.5v.3m0 2-22.4.5-4.2 3.15-4.2 3.15-17.8 2.2v-4.6l-1.45-1.45M327 216.35v2.6M132.8 251.4l-1.5 2.85-5.2-1.1-2.7-3v-13.9m26.55 73.6-5.15-2.3-8.1 1.9 9.9 3.55 3.05 1.1m.3-4.25 2.85 1.3m-73.7 83.6.3-.2-.05.2 8.05.4m-8.1-.35-.3 1.05m.3-1.05.05-.05h-.25m-.1 3.9 1.35.9L79 401m0 .8 6.55-.9q1.25-2.75 1.85-5.65v-.1m49.4-.25q-2.55.65-4.95 2.1l-7.55 4-5.85 2.6q-3.55 1.45-6.95 3l-4.1 1.35q-13.05 2.6-26.4 3.9l-1.6.1q2.15-1.6 3.6-5.45l1.85-4.2.7-1.4 5.65-.75 5.65-.8-.05-1.2m39.6-66.6v-6.2H126l-3.3-2.25m13.7 8.45 6-4.6h5.2l4-4.2m-42.05 64.45 12.05-.85 34-10.2 6 7.85-8.85 7.35m-15.95 3.55-1.1 1.45 1.65.6m27.25 16.2v-3m-4.8 9.25 7.2 4.35m-6.95-4.35 7.95.35m-65.4 8.2-6.9 1.25m-.5.1-6.35.8 24.15-9.35"/><path stroke-width=".05" stroke-linejoin="round" stroke-linecap="round" stroke="#ccaa82" fill="none" d="m264.65 4.6-2.05.7v4.75l.45.2 2.15-1.7h1.9m-7.5-2.2 3-1.05V0m4.7.9-2.65 3.7 4.7-1.65m-6.75 7.1v.5l.45-.3m-3.45-1.5 3 1.3-1.1 2.55-1.1 2.55 1.7 1.7-1.1 3.4v2.2l2.05-3.85-.95-1.8 2.5-3.25m-2.5 3.3v-.05l-.6-1.65V12.6m.3 12.3-.8-2.45m1.1-5.6-1.5 1.9"/><path stroke-width=".05" stroke-linejoin="round" stroke-linecap="round" stroke="#a05934" fill="none" d="M268.7 52.8h1.7l8.1 3.2m-9.8-3.2h-14.75l-6.4 1.5"/><path stroke-width=".05" stroke-opacity=".2" stroke-linejoin="round" stroke-linecap="round" stroke="#fdf5c0" fill="none" d="m299.1 158.9-2.1-8.35-3.4-11m2.2-19.2v-5.6M285.1 78.3l4.7 5.45 2.45 4.7"/><path stroke-width=".05" stroke-opacity=".502" stroke-linejoin="round" stroke-linecap="round" stroke="#fdf5c0" fill="none" d="m295.8 114.75-3.4-11.2"/><path stroke-width=".05" stroke-opacity=".702" stroke-linejoin="round" stroke-linecap="round" stroke="#fdf5c0" fill="none" d="M293.6 139.55v-11.4l2.2-7.8m-3.4-16.8V91.8"/><path stroke-width=".05" stroke-opacity=".6" stroke-linejoin="round" stroke-linecap="round" stroke="#000" fill="none" d="m174.15 133.55-2.5-2.6m10.9-11.2 2.3 2.75 3.7 4.3h5.55m12.15 3.35.4-4-.05-2.25m-13.8 7.45v4.35l1 3.2 2.85 1.7 2.9.4 3.45-.95 2.1-3.75.95-3.95.2-2.2m-11.5 2.25 1.05 1.25 1.9 1.4h3.85l1.2-.8 1.25-.75m-9.75-1.65.5.55-1.05 4.05 1.85 2.25 1.3.35 1.3.35h3.25l1.35-.95v-4.2m-13.25-.1 2.3 4.75v3l-1.65 2.7 1 .95m2.55 2.65v4.9l1.85-.1m-6.1-12.35v-.3l-1-4.85-.45-.2-.2-.05m1.65 5.4v2.15l-2.95.5m-2.9.35v-3.6l-1.2-3.7-.25-.8m2.4-12.75v5.7l-.35.45-1.15 1.55m-.5-10.75 2 3.05m-10.05-4.05h2.95q-.75 5.75-.55 12.05h-1l-1.3-1.25-1.15-4.6m1.05-6.2.95-.85m4 15.65h-5.3m10.9.95-2.65 1.85m-2.95-2.8.85-.15m-1.95 13.35 1.95-.35m4 1.6 1.45 2 1.85 5.4 3.05-1.7 1.85-2.8v-2.45h-.05m-1.6-1.65-.15-.15-.8-.8m-11.55.9h-4.3m6.15 12.9 8.8-2.35 4.7-4.2m72.3 52.05v-2.8m25.15 2.35-.75-.15-2.8-4.6v4.8l-19.4 2.4-2.2-2"/><path stroke-opacity=".502" stroke-linejoin="round" stroke-linecap="round" stroke="#253a35" fill="none" d="M27.45-39.6q-3.2-2.9-3.45-7.55v-4.7q.35-4.9 2.75-9.05.8-1.3 2.15-2.45l1.15-.4h.2l.65.1-.85-.1m.85.1 1.2.5q1.5.95 2.7 3.35 1.65 3.4 1.9 7.95l.05 1.65q0 2.55-.4 4.8l-.3 1.25-.25.95-.25.6q-2.1 5-7.2 3.4l-.9-.4" transform="translate(167.9 216.5)"/><path stroke-width=".05" stroke-linejoin="round" stroke-linecap="round" stroke="#000" fill="none" d="m196.85 153.05.15-.3m-.2.4.05-.1"/><path stroke-width=".25" stroke-opacity=".502" stroke-linejoin="round" stroke-linecap="round" stroke="#000" fill="none" d="M316.45 248.6q-1.35 2.05-3.25 3.7l-3.5 2.4m-18.35-44.1-3 3.9q-2.4 3.5-4.05 7.4-1.6 3.65-2.25 7.6v.25m37.35 3.65-.7-3.6q-1.1-4.3-2.95-8.4l-.2-.35m-2.75.65.85 1.8q1.6 3.65 2.55 7.5l.6 3.1.1 1.2v3.35q-.2 3.4-1.4 6.6l-1.05 2.3m-1.65-25.85-.25-.55m3.9 27.45 1.45-2.9q1.4-3.55 1.65-7.35l.05-2.55m-9.85 16.75 1.7-1.35q1.8-1.65 3-3.65m-21.8-33.8L290 217.3q-2.05 3.15-3.5 6.65-1.35 3.25-1.9 6.8"/><path stroke-width=".25" stroke-linejoin="round" stroke-linecap="round" stroke="#c9c604" fill="none" d="m315.7 248.2 1.2-2.5q1.4-3.55 1.65-7.35l.05-1.85m-.25-3.55-.65-3.15q-1.1-4.2-2.85-8.1m.6 26.9.25-.4"/><path stroke-width=".05" stroke-linejoin="round" stroke-linecap="round" stroke="#fdf5c0" fill="none" d="m132.05 426.85-.25.1m76.75-190.3-2.95-12.8v-24.1m77.9 212.5 5.7.2m-26.2 3.9 22-.75m-74.95 11.35 11.75 1.2m-53.8-8.4h12.2m-17.55-3.4h13.95l16.8 8m-15.2-.6 13 1.3m42 .7 26.8-5.2m-172.6-25.4 2.85-12.9m.95 17.9-.1-5.85m68.7 25.1h.25m-28 7.45 13.35-8.1 6.9.3m-34.9 9.1 6.95.5 20.45-12.3h4.85M95.7 429.2l9-.9-2.1-.35m-6.9 1.25-.5.1m9.5-1 12.3 2.05"/></g><g id="e"><path fill-rule="evenodd" fill="#777604" d="M-26.5-36.85q5.1-7.8 11.55-14.2 4.05-3.6 8.9-5.75 3.9-1.8 8.15-.7 5.6 1.4 9.85 5.3 6.85 6.3 12 14.3 5.2 7.95 9 16.7Q37-12 39.45-2.3q2.4 9.55 1.8 19.25-.5 8.6-3.55 16.6-3.25 8.6-10.2 14.9-7.2 6.7-17 8.5-9.85 1.8-19.55.1-9.7-1.5-17.5-7.6-7.85-6.05-11.2-15.4Q-41 24.9-41.3 15q-.3-9.05 1.15-18 1.4-8.9 4.8-17.1 3.65-8.8 8.85-16.75" transform="translate(41.45 58)"/><path stroke-width=".25" stroke-opacity=".502" stroke-linejoin="round" stroke-linecap="round" stroke="#000" fill="none" d="M14.95 21.15Q9.75 29.1 6.1 37.9 2.7 46.1 1.3 55-.15 63.95.15 73q.3 9.9 3.55 19.05 3.35 9.35 11.2 15.4 7.8 6.1 17.5 7.6 9.7 1.7 19.55-.1 9.8-1.8 17-8.5 6.95-6.3 10.2-14.9 3.05-8 3.55-16.6.6-9.7-1.8-19.25-2.45-9.7-6.5-18.9-3.8-8.75-9-16.7-5.15-8-12-14.3-4.25-3.9-9.85-5.3-4.25-1.1-8.15.7-4.85 2.15-8.9 5.75-6.45 6.4-11.55 14.2z"/><path fill-rule="evenodd" fill="#4d4c02" d="m-22.5-35.4-.2.75q-.05 2.15 6.4 3.65 6.4 1.45 15.45 1.45 9 0 15.45-1.45 6.4-1.5 6.4-3.65l-.2-.75h.1l.75 1.15q4.7 7.15 8.15 15.05 3.6 8.3 5.85 17.1 2.15 8.6 1.65 17.4-.5 7.75-3.25 15-2.95 7.75-9.2 13.45-6.5 6.05-15.35 7.65-8.9 1.6-17.65.1-8.8-1.35-15.85-6.85-7.1-5.5-10.1-13.9-2.95-8.3-3.2-17.25-.3-8.15 1.05-16.25Q-35-10.8-31.9-18.2q3.25-7.95 7.95-15.1l1.4-2.1h.05" transform="translate(41.45 58)"/><path fill-rule="evenodd" fill="#333201" d="M-22.7-34.65q-.05 2.15 6.4 3.65 6.4 1.45 15.45 1.45 2.15 0-4.75 15.8Q-12.5 2-9.7 18.05q2.8 16 12.05 24.5T9.5 51.4Q.6 53-8.15 51.5q-8.8-1.35-15.85-6.85-7.1-5.5-10.1-13.9-2.95-8.3-3.2-17.25-.3-8.15 1.05-16.25Q-35-10.8-31.9-18.2q3.25-7.95 7.95-15.1l1.4-2.1h.05l-.2.75" transform="translate(41.45 58)"/><path fill-rule="evenodd" fill="#939305" d="M-16.3-38.6q6.4-1.9 15.45-1.9 9 0 15.45 1.9 6.4 1.85 6.4 4.55 0 2.7-6.4 4.6-6.45 1.9-15.45 1.9-9.05 0-15.45-1.9-6.45-1.9-6.4-4.6-.05-2.7 6.4-4.55" transform="translate(41.45 58)"/><path fill-rule="evenodd" fill="#333201" d="M-16.2-33.55q-.05-1.9 4.45-3.2 4.5-1.35 10.8-1.3 6.35-.05 10.85 1.3 4.45 1.3 4.45 3.2 0 1.85-4.45 3.2-4.5 1.3-10.85 1.3-6.3 0-10.8-1.3-4.5-1.35-4.45-3.2" transform="translate(41.45 58)"/><path fill-rule="evenodd" fill="#696803" d="M-7.9-38.5q-.6.65-1.5.65t-1.55-.65q-.6-.6-.6-1.5t.6-1.55q.65-.6 1.55-.6t1.5.6q.65.65.65 1.55t-.65 1.5m-13 10.9q1.6 0 2.75 1.55t1.15 3.7q0 2.15-1.15 3.7-1.15 1.55-2.75 1.55t-2.75-1.55q-1.15-1.55-1.15-3.7 0-2.15 1.15-3.7 1.15-1.55 2.75-1.55m5.2-5.9q-.35-.35-.35-.85l.35-.9q.4-.35.9-.35t.85.35q.4.4.4.9t-.4.85q-.35.4-.85.4t-.9-.4M-3.45-51q-.35.4-.85.4t-.9-.4q-.35-.35-.35-.85t.35-.9q.4-.35.9-.35t.85.35q.4.4.4.9t-.4.85m-1.4 13.7-.2-.45.2-.45.45-.2q.25 0 .45.2l.2.45-.2.45q-.2.2-.45.2l-.45-.2m20.35 1.25q-.45.45-1.05.45-.6 0-1.05-.45-.45-.45-.45-1.05 0-.6.45-1.05.45-.45 1.05-.45.6 0 1.05.45.45.45.45 1.05 0 .6-.45 1.05M26.45-15.1q.85 0 1.4.55.6.6.6 1.45t-.6 1.4q-.55.6-1.4.6-.85 0-1.45-.6-.55-.55-.55-1.4 0-.85.55-1.45.6-.55 1.45-.55m-11-5.5q0 .85-.6 1.4-.55.6-1.4.6-.85 0-1.45-.6-.55-.55-.55-1.4 0-.85.55-1.45.6-.55 1.45-.55t1.4.55q.6.6.6 1.45M-5.55-1q0 1.6-1.1 2.75T-9.3 2.9q-1.55 0-2.65-1.15Q-13.05.6-13.05-1t1.1-2.75q1.1-1.15 2.65-1.15 1.55 0 2.65 1.15Q-5.55-2.6-5.55-1m17-4.15q1.5 1.5 1.5 3.55t-1.5 3.5q-1.1 1.15-2.55 1.45l.05.55q0 .85-.6 1.4-.55.6-1.4.6-.85 0-1.45-.6-.45-.45-.55-1.15l-1 .25q-.85 0-1.45-.6-.55-.55-.55-1.4 0-.85.55-1.45.4-.35.9-.45-.45-1-.45-2.1 0-2.05 1.45-3.55Q5.9-6.6 7.95-6.6t3.5 1.45M12.2 9.4q1.15 0 1.95.8t.8 1.95q0 1.15-.8 1.95t-1.95.8q-1.15 0-1.95-.8t-.8-1.95q0-1.15.8-1.95t1.95-.8m-9.5 5.7q.75.75.75 1.8t-.75 1.75q-.7.75-1.75.75t-1.8-.75q-.7-.7-.7-1.75t.7-1.8q.75-.7 1.8-.7t1.75.7m-6.85 5.85q.6.6.6 1.45t-.6 1.4q-.55.6-1.4.6-.85 0-1.45-.6-.55-.55-.55-1.4 0-.85.55-1.45.6-.55 1.45-.55t1.4.55m5.95 3.1q.65.65.65 1.6V26l2 .45v-.05q0-2.15 1.3-3.75-.8-.95-.8-2.25 0-1.45 1-2.5 1.05-1 2.5-1t2.45 1q1.05 1.05 1.05 2.5v.2q1.55.35 2.75 1.55 1.75 1.75 1.75 4.25t-1.75 4.25q-1.35 1.35-3.2 1.7 1.45 2.6 1.45 5.8 0 5.05-3.6 8.65-2.9 2.9-6.7 3.45l.5.15.25.1 2.55-.4 2.1.25q.9-.5 2.05-.5 1.25 0 2.1.55 0-1.15.7-1.95t1.7-.8q.8 0 1.4.5l-.05-.5q0-1.35.75-2.3.8-.95 1.9-.95l.55.05q-1.7-2.05-1.7-4.8 0-3.2 2.25-5.5 2.3-2.25 5.5-2.25t5.45 2.25q2.3 2.3 2.3 5.5t-2.3 5.45q-2.25 2.3-5.45 2.3-2.4 0-4.25-1.25l.3 1.5q0 1.35-.8 2.3-.75.95-1.85.95-.9 0-1.6-.65v.15q0 1.15-.7 1.95t-1.7.8q-.85 0-1.45-.55l-.85.9q-.9.65-2.2.65-1.15 0-2-.5l-2.15.25q-1.75 0-3-.55l-.5-.25-1.75.25-.65 1.25q-.7.8-1.7.8t-1.7-.8q-.6-.7-.65-1.6l-.5-.15-.35-.1-.35.2q-1.4.95-3.45.95-2.05 0-3.5-.95l-1-.95q-1.9.9-4.15.9-3.85 0-6.55-2.7-2.7-2.7-2.7-6.55l.05-.75-2.3.5q-2.15 0-3.7-1.55-1.55-1.55-1.55-3.7 0-1.35.6-2.45-1.75-.4-3.15-1.8-1.95-1.95-1.95-4.75t1.95-4.8q.85-.85 1.9-1.3-.85-1.15-.85-2.65 0-1.85 1.3-3.2l.4-.3.15-.45q-.7.45-1.6.45-1.15 0-1.95-.8t-.8-1.95q0-1.15.8-1.95t1.95-.8q1.15 0 1.95.8t.8 1.95l-.05.65 1.05-.8q.05-1.45 1.1-2.5.65-.65 1.45-.9l-.05-.7q0-1.85 1.3-3.2 1.35-1.3 3.2-1.3t3.15 1.3q1.35 1.35 1.35 3.2t-1.35 3.15l-1.1.85q1.8 0 3.1 1.3 1.2 1.2 1.35 2.75l.45-.6q.95-.95 2.3-.95 1.35 0 2.3.95.95.95.95 2.3 0 1.35-.95 2.3-.5.5-1.15.75l.45.35q.65.65.65 1.6 0 .95-.65 1.6-.65.65-1.6.65-.95 0-1.6-.65-.65-.65-.65-1.6 0-.95.65-1.6l.45-.35-1.15-.75q-.7-.7-.85-1.6l-.95 1.2q-1.3 1.35-3.15 1.35-1.85 0-3.2-1.35l-.1-.1-.1.05-1 .8-.95 1.25-.05.05.9.75q2 2 2 4.8 0 2.45-1.5 4.25.75.35 1.45 1.05 1.1 1.1 1.45 2.5l1.4-1.1-1-.8q-1.3-1.3-1.3-3.15 0-1.85 1.3-3.2 1.35-1.3 3.2-1.3t3.15 1.3q1.35 1.35 1.35 3.2 0 1.45-.8 2.55 2.75.25 4.9 2.05.2-1.7.9-3.2l-.5-.45q-1-1-1-2.45 0-1.45 1-2.5 1.05-1 2.5-1t2.45 1l.05.05Q-4.2 26.65-2 26.2l-.05-.55q0-.95.65-1.6.65-.65 1.6-.65.95 0 1.6.65m-26.25-28.8q-.6-.6-.6-1.5t.6-1.55q.65-.6 1.55-.6t1.5.6q.65.65.65 1.55t-.65 1.5q-.6.65-1.5.65t-1.55-.65m-4-11.75q-.35.4-.85.4t-.9-.4q-.35-.35-.35-.85l.35-.9.9-.35q.5 0 .85.35l.4.9q0 .5-.4.85m-.1 14.65q1.15 0 1.95.8t.8 1.95v.85q0 .7-.45 1.15-.45.5-1.05.5h-.05l-1.2.25q-1.15 0-1.95-.8T-31.3.9q0-1.15.8-1.95t1.95-.8m-6 5.75q.85 0 1.4.55.6.6.6 1.45t-.6 1.4q-.55.6-1.4.6-.85 0-1.45-.6-.55-.55-.55-1.4 0-.85.55-1.45.6-.55 1.45-.55M-8.9 47.6h.25l1.85.2-1.15-1-.45-.45-.5 1.25m37.35-18.7q0-1.85 1.3-3.2 1.35-1.3 3.2-1.3l1.4.2q-.4-.5-.4-1.2 0-.85.55-1.45.6-.55 1.45-.55t1.4.55q.6.6.6 1.45t-.6 1.4q-.55.6-1.4.6h-.15l.3.3q1.35 1.35 1.35 3.2t-1.35 3.15q-1.3 1.35-3.15 1.35-1.85 0-3.2-1.35-1.3-1.3-1.3-3.15M-2.5 50l-1.7-.6.4.85 1.3-.25M35.2-.1q-.7 0-1.25-.55-.5-.5-.5-1.2t.5-1.25q.55-.5 1.25-.5t1.2.5q.55.55.55 1.25t-.55 1.2q-.5.55-1.2.55m.5 10q.7 0 1.2.5.55.55.55 1.25t-.55 1.2q-.5.55-1.2.55t-1.25-.55q-.5-.5-.5-1.2t.5-1.25q.55-.5 1.25-.5m1.5 7.2q.75.75.75 1.8t-.75 1.75q-.7.75-1.75.75t-1.8-.75q-.7-.7-.7-1.75t.7-1.8q.75-.7 1.8-.7t1.75.7" transform="translate(41.45 58)"/><path fill-rule="evenodd" fill="#929106" d="M-7.6-29.4q-2.45 1.5-2.3 3.8.55 8.65 12.1 9.45 27.05 2.35 28.75 29.3.5 8-2 15.4Q18.7 58.95-11.3 50.3q-8.95-2.55-14.2-10.2-11.9-16.95 6.45-24.95-.6.3.8.3l2.1-.2-5.65 3.5q-4.5 17.3 14.05 19.85 7.1 1 13.9-3.6 6.25-4.2 7.95-10.3Q18 10.35 12 .1 8-6.85 1.35-5.5q-10.7 2.15-15.95-2-2.75-2.15-4.55-6.2-2.15-4.65-2.1-9.75.05-6.65 8.45-10.7Q-5.1-38-.1-36q5.15 2.05 6.65 6.6H8.2l.55 6.95-1.9 2.6-.95-.45q-.85-.25-2.2.55 3.25-4.4-.7-8.2-3.6-3.45-7.25-2.75-1.6.15-3.35 1.3" transform="translate(41.45 58)"/><path fill-rule="evenodd" fill="#828005" d="M-12.05-47.6q0-1.45 1-2.5 1.05-1 2.5-1t2.45 1q1.05 1.05 1.05 2.5t-1.05 2.45q-1 1.05-2.45 1.05-1.45 0-2.5-1.05-1-1-1-2.45m8 57q0 1.85-1.35 3.15-1.3 1.35-3.15 1.35-1.85 0-3.2-1.35-1.3-1.3-1.3-3.15 0-1.85 1.3-3.2 1.35-1.3 3.2-1.3t3.15 1.3q1.35 1.35 1.35 3.2" transform="translate(41.45 58)"/><path fill-rule="evenodd" fill="#cbc904" d="M-10.05-45.15q-1-1-1-2.45 0-1.45 1-2.5 1.05-1 2.5-1t2.45 1q1.05 1.05 1.05 2.5t-1.05 2.45q-1 1.05-2.45 1.05-1.45 0-2.5-1.05m.25 11 2.5-1.1q6.05-2.4 10.2-.75 5.4 2.1 6.8 6.95l.25 1.2q.65 4.35-3.25 8.1 3.2-4.35-.6-8.1l-.1-.1Q2.45-31.4-1.2-30.7q-1.65.15-3.4 1.3l-1.7 1.55q-.65 1-.55 2.25.55 8.65 12.1 9.45 27 2.35 28.7 29.3.5 8-2 15.4-10.2 30.4-40.2 21.75-9-2.55-14.25-10.2-11.9-16.95 6.45-24.95-2.1 1.15-2.75 3.6-4.45 17.3 14.05 19.85Q2.4 39.6 9.2 35q6.25-4.2 7.9-10.3Q21 10.35 15 .1 11-6.85 4.35-5.5q-10.7 2.15-15.95-2-2.75-2.15-4.55-6.2-2.15-4.65-2.1-9.75.05-6.65 8.45-10.7m5.4 46.7q-1.3 1.35-3.15 1.35-1.85 0-3.2-1.35-1.3-1.3-1.3-3.15 0-1.85 1.3-3.2 1.35-1.3 3.2-1.3t3.15 1.3q1.35 1.35 1.35 3.2t-1.35 3.15" transform="translate(41.45 58)"/><path fill-rule="evenodd" fill="#e5e5e5" d="M3.3-35.3q.45.65.5 1.4 0 .7-.5 1.1l-1.2.1q-.7-.25-1.15-.95-.5-.65-.5-1.4-.05-.75.5-1.1l1.15-.1 1.2.95M21-1.9q-.95-1.3-.95-2.65-.05-1.45.9-2.1l2.25-.2q1.3.45 2.25 1.8.95 1.25.95 2.65t-.9 2.1q-.95.65-2.25.2Q21.9-.6 21-1.9m2.95 7.6-1.2.1-1.15-.95q-.5-.65-.5-1.4-.05-.75.5-1.1l1.15-.1q.7.25 1.2.95.45.65.5 1.4 0 .7-.5 1.1m-47.5 26.75q.45.65.5 1.4 0 .7-.5 1.1l-1.2.1-1.15-.95q-.5-.65-.5-1.4-.05-.75.5-1.1l1.15-.1q.7.25 1.2.95m1.05 3.85.85-.05q.45.15.8.65.35.45.35 1 0 .5-.35.75l-.8.05-.85-.65-.35-.95q0-.55.35-.8" transform="translate(41.45 58)"/><path fill-rule="evenodd" fill-opacity=".4" fill="#e5e5e5" d="M14.3-49.4q4 4.55 4.55 9.85.55 5.2-2.65 8-3.25 2.75-8.4 1.5-5.05-1.3-9-5.85-4-4.65-4.6-9.9-.5-5.3 2.75-8.05Q.1-56.65 5.2-55.3q5.15 1.25 9.1 5.9" transform="translate(41.45 58)"/><path fill-rule="evenodd" fill="#e5e5e5" d="M6.45-35.6q0-1.3.75-2.15.8-.85 1.9-.85 1.05 0 1.8.85.8.85.85 2.15-.05 1.3-.85 2.15-.75.9-1.8.9-1.1 0-1.9-.9-.75-.85-.75-2.15m10.95-5.25h-.2q-.5 0-.9-.35-.35-.3-.35-.8t.35-.85l.7-.25.2-.05q.5 0 .85.3.4.35.4.85t-.4.8l-.65.35m-2.3-3.95q.3 2.65-1.35 4.1-1.65 1.4-4.3.75-2.6-.65-4.65-3-2.05-2.4-2.35-5.1-.25-2.7 1.4-4.1Q5.5-53.6 8.1-52.9q2.65.65 4.7 3.05 2.05 2.3 2.3 5.05" transform="translate(41.45 58)"/><path fill-rule="evenodd" fill-opacity=".4" fill="#e5e5e5" d="M22.9-16.4q-9.4-12.65-4.15-13.3 5.25-.65 10.05 8.05Q33.65-13 35.25-.05q1.6 12.95-.95 22.55-2.55 9.6-5.6 10.5-3.1.85 1.15-5.45 4.2-6.35 3.35-18.8-.9-12.5-10.3-25.15" transform="translate(41.45 58)"/><path fill-rule="evenodd" fill-opacity=".502" fill="#333201" d="M-29.05-4.2q6.3-1.85-.55 12.7-6.9 14.5 8.8 18.8 15.7 4.35 14.9 13-.8 8.6-7.1 10.45-6.35 1.85-13.15-4.9Q-33 39.1-36.3 27.75-39.65 16.35-37.5 7q2.1-9.35 8.45-11.2" transform="translate(41.45 58)"/></g><g id="h" stroke-opacity="0" stroke-linejoin="round" stroke-linecap="round" stroke="#f0f" fill="none"><path d="M187.95-293.5v380h-380v-380h380M92.95.6H-97" transform="translate(192.55 294)"/><path d="m187.95-293.5-190 190 190 190m-380-380 190 190L-192 86.5" transform="translate(192.55 294)"/></g><use xlink:href="#d" width="338.8" height="436" id="a"/><use xlink:href="#e" width="82.9" height="116" id="c"/><use xlink:href="#f" width="102.95" height="45" id="i"/><path fill-rule="evenodd" fill-opacity="0" fill="#f0f" d="M0 0h102.95v45H0V0" id="f"/></defs><path fill="none" d="M-1-1h212v270H-1z"/><use x="177.123" y="415.704" xlink:href="#g" width="338.8" transform="matrix(.6041 0 0 .6062 -105.367 -250.616)" height="436"/><use x="107" y="252" xlink:href="#h" width="381" transform="translate(-192.55 -294)" height="381"/><use y="-10.279" xlink:href="#i" width="102.95" transform="matrix(1.8072 0 0 1.6538 39.85 11.55)" height="45"/></svg>