<svg width="563" height="330" xmlns="http://www.w3.org/2000/svg" xmlns:xlink="http://www.w3.org/1999/xlink"><defs><g id="d" stroke-opacity="0" stroke-linejoin="round" stroke-linecap="round" stroke="#f0f" fill="none"><path d="M187.95-293.5v380h-380v-380h380M92.95.6H-97" transform="translate(192.55 294)"/><path d="m187.95-293.5-190 190 190 190m-380-380 190 190L-192 86.5" transform="translate(192.55 294)"/></g><g transform="translate(1.35)" id="e"><use xlink:href="#a" width="278.5" transform="translate(-1.35 76.35)" height="163.15"/><use xlink:href="#b" width="277.1" height="238.15"/></g><g id="a"><path fill-rule="evenodd" fill-opacity=".561" fill="#48412b" d="m272.25 24.4 2.5.05 1.75 6.25-6.35-.8-4.8.95L261 29.2l5.7-6.8 5.45-1.6 3.95-.05-3.85 3.65m-8.95 42.95-.3-.85-.4.1-1.25-.95-.95-2.8-2.1 5.6q-6.75 1.3-2.6-8.1l2.4-4.55-.05-.2.4-.1 2.8 1.3 2.5 7.15-.45 3.4" transform="translate(1 1)"/><path stroke-width="2" stroke-opacity=".561" stroke-linejoin="round" stroke-linecap="round" stroke="#48412b" fill="none" d="m273.25 25.4 2.5.05 1.75 6.25-6.35-.8-4.8.95L262 30.2l5.7-6.8 5.45-1.6 3.95-.05-3.85 3.65m-8.95 42.95-.3-.85-.4.1-1.25-.95-.95-2.8-2.1 5.6q-6.75 1.3-2.6-8.1l2.4-4.55-.05-.2.4-.1 2.8 1.3 2.5 7.15-.45 3.4M232.35 10.1q-1.75-2.15-3.9-2.3-1.1-.1-2.15.4l-.1.35q-.75-.35-1.55-.4h-2.95l-.2-.15q-1.1-.75-2.35-.85-1.1-.05-2.15.4l-.2.3-1.45-.35q-5.7-.4-10.75 13.85-3.5 9.8-5.25 22.55l-.9 7.5-.15 1.6-2.3-1.55-1.2 2.35.1.75-1.25.4-.25.55-1.5-2.3v-1.75l-.6-1.15-2-.55q-.6-.1-.9.55l-.4 1-.8-1h-1.75q-.5.75-1.75 1.15l-2.9.6-1.8-.5-2.35-.7q-1.55-1.85-2.5-2.3l-.55-.1.15-.5-2.35-3.5q-3.65-1.15-4.7-1.2-1.6-.05-2.15 1.15v.2l-.2-.15-3.3-1.65h.05l.35.45h-.05L161 43l-1.65-.6-1.45-.3-2.55.85-1.1-.85-1-.6-3.85-2.6-.25-2.1q-.15-.8-1.7-3.45l-1.35-2.3-.05.05V31l-.2-.4-.1-.1-.7-1.3q-2-3.6-8.2-7.6-1.45-.95-2.6-1.5l-.9-3.2-3.55-3.5-.45.1.35-.2.1.1 2.35-.6q1.3-.8 1.75-2.35.6-2.05.6-4.65 0-1.8-2.95-4.1-1.05-.85-2.75-.65-1.35.2-1.9.65-.7.45-1.25 1.1-.4.5-.65 1.15l-.05.15-3.5.8-.4-.9-.6-1.75-2.95-.55-.75 1.1-2.15-.55-.7 1.4-.5-.2-1.05.35h-.05l-.05-.35-2.95-.6q-.8-.15-1.6 2.25l-.8 3.3-3.45-4.4q-.35-1.15-4.1-1.15H94.7L92.35 5.8 91.2 9.95l-79.7 14L1 35.05l.55 1.75q.4.8 3.05 2.05l.75.35 4.4 1.7 2.95-1.15-.6 1.75 5.75 2.15 5.2 1.9q6.7 2.4 7.2 2.4l5.6-.3.85-.3q.35-.4 5.75-2.05l.95-.25 6.2-1.8 42.65-14.6.1-.05 3.9-1.35 2.4 2.4-.65 1.5-.65 1.75-.35 1.25-.1.4-1.7 1.5-1.1 1.35v4.1l2 1 .15-.1.2.25-.6 2.95-.45 2.6.1.2-.25.15-.55 1.75 3.5 5.85.95.8.1.05.9.7L97 60.85l.8 3.3.15.45q.8 2.95 1.4 3.25.6.3 1.55-.95 1.1-1.35 1.4-1.4.35-.05 2.05 2.55l.2.3-.25-.05q-.95 3.1-1.4 3.65-.3.3-.55 2.2l-.05.1q-.3 2 0 2.4.4.45 4.1 1.75l7.05-.55h.15l2.75.55.7.1 3.3.1 4.2-.2q1.15-.2 8.8-3.5l2.9-9.4q.1-.75 1.55-1.9l.25-.2.45-.35-.2.7-.85 2.95q-.4.8.05 1.65l.5.65 2.5.85-.75 1.5v2.35l2.9.6-.55 1.75 1.2 1.15h4v.35h-1.65l-1.8.25-2.3.6q-.6.05-1.5.95-1 .9-1.45 1.95-1.75 3.75-1.8 6.05l-9.35 6.25-7 3.55h-3.5l-.65 1.55q-.65 1.75-.55 2.55.1.6 1 .9l-1 2 .6 2.95 1.75 1.15h4.1l3.5 2.35 4.1 3.5.95 1.95h.05l.2.4-.45.7q-3.85.35-4.85 1.05-.65.4-.5.55l.4.85-8.85 2.7-.2.05-.8.55-.5.55q-.9 1-1.25 1.8-.35.75.6.6l1.75-.6 2.5-1.95-.25-.25 7.3-2.5.6.25 1.3.2-7.4 3.6-.55-.55-2.35 3.55.6 1.15 2.35-1.75.6-1.15v-.2l5.4-2.9-4.05 3.85-.45.15-.9 1.4-1.8 1.2 1.2 1.15 1.75-1.15.55-1.3 6.85-5.25.45.05 1.15-.05.35.1.3.15.4.4-.1.85-6.5 4.7h-.05l-.45.95-1.8.55v1.75l2.35-.55 1.15-2.05.35.15 5.9-4.5.8-.05q.45.1.45-.55 0-.95.75-1.2l2.3-1.15.05-.05 1.75-1.75q.35-.9-.7-2.3.75-.5.7-1.2l-1.2-2.95-3.4-.6-.15-.05.1-.05-.65-1.65-3.95-6.95.45-.65.05-.65-.05-1.7q-.05-.5-1.2-1.15l-1.15-.6.2-.7 1-1.65q1.05-1.25 5.25-3.5l3.55-2.35.05.15q1 2.15 1.65 2.8 1.15 1.05 5.3 0l2.3-.65-.55 2.4q-.1.95 1.45 3.1l.75 1 1.3 1.75.05.05.35.35.25.2.9.3 2.45.25-.85 1.35-4.95 8-.6 1.05h-.05l-.45.15-.6.1-.75.15-.5.15q-1.95.55-2.25 1.35-.5 1.25-1.1 4.35l-.1.35 2.35 3.5.35.3 1.45-.1-.6 1.6.15.95q.3 1 1 1.35.5.25 2.3 0l.2-.05 1.35-.1.85.15q1.2.7 4.1 3.55l9.8 8.7-3.4 1.25-4.1 1.15q-1.3.45-1.25.9l-6.95 4.95h-3.5l-1.15 1.2.2 1.05-1.4.7-2.9 2.35-.6 2.35 5.4-3.55h4q.75-.4.55-1.75l-.15-.65 6.45-4.4.55-.05q.3.3.75.4l.1.05 1.05.7-3.2 4.05-.55.05-.65.1-1.4-.25-.55 2.2-1.8.75-2.95 1.75-.55 2.35.55 1.15 2.35-2.35 1.75-.55 1.3-.95 1.05.35 2.35-1.75v-1.2l3.95-4.8.05-.05.1.2q.35.65 2.15.65l1.05-.05-3.1 4.1-.1-.05-1.75.6-.5 1.05-1.85.7-2.35 2.35-.55 2.35 2.3-.6 1.75-1.15 1.6-1.6.75.4 1.75-1.15.6-2.35-.1-.05 4.55-4.45.85.4q.35.2.9-.9l-1.75 5h-.95l-1.75 1.15v2.35l.85.25-.25 3.85.6 1.2 1.75-1.75v-2.35l-.05-.05-.2-.7 2-1v-2.95h-.15l.05-.05 1-2.8-.3-.1.15-.1.15.2.9-.25 1.15-1.6.2-.25q.5-.7 1.55-.95l.9-.25.85-.3q.65-.45.6-1.15l-.6-1.9q1.6-1.1 1.75-1.6l-.35-.95-.2-.2-.6-.65q-.8-.95-2.1-1.1l-.05-.15-1.4-2.85-2.95-4.75-1.15-1.65-2.35-2.45-1.75-1.65q-.25-.55-1.6-1.8l-.7-.6 1.15-2.3-2.2-1.1 1-1.85-2.9-2.35-1.15-.65 2.3-5.75q.4-1.5 2.8-5.35l.15.05h.6l4.1-1.15 5.25-2.35q.8-.5.75-1.6l-.15-1.9.9-2.85.25-.75.6-2.85q-.1-.6.55-2.7l.6-2 2.95-2.9q.6-.9.35-1.4l-.95-1.55q-1.3-3.05-3.5-4.1-1.2 0-4.2 1.5l-1.35.7h-.05l-2.6 1.3-.05.05-.25.05-.2.1h-.15l-3 .25h-.3l.05-.1q.9-1.5-.45-2.85h-.05.05l1.4-.4q4.65-2.7 5.3-3.55.6-.8 1.15-3.5v-1.95l-3.25-2.6 1.5-1.9 1.05-2.1 1.3.95 4.1-5.85.2-.6.85-.4 1.85-.2 3.55.6 1.15 2.35 1.2 1.15 1.2-.4q.15.5.65.85l1.05.15q.65-.35 1.75-.6l3.3 1.3-.35.5-.6 2.3 1.2.7-1.2.5v2.9l1.45.75-.3 1 .1.15-1.85.45v2.35l.85.8-.25.35 1.15 2.95L196 74.3h1.6q.25 7.8 1.4 14.5l.45 2.6q2.8 14.2 8.15 15.15l5.7.1.7-.75 6.8.2q-1.3.95-2.6 1.1l4.4.1 5.1-5.05q2.15-3.4 4.25-9.25l.6-1.7 1.4-4.65q1.9-6.95 3.1-15.15.95-6.3 1.45-13.25.45-6.05.5-11.55v-3.5l-.15-5.35-.6-7.35-.4-3.1-.8-4.45q-.8-4.15-1.85-7.15l-.1-.35q-1.25-3.45-2.75-5.35M205.5 25.45l-.1.35.25-.1-.15-.25M163.2 50.3l-.85 1.7-1.65-1.85-.6.65.15.05v.05l-.15-.1q-1.9-1.1-2.2-1.7l-.8-2.05 2.6-.85 3.5 2.15v1.95m34.65 8.75v.1l-.1-.1h.1m1.85 15.2h.2-.2m-2.1-9.95-.4.3.4.1v-.4m-33.45 3.65h-.1l-.75 2.55 1.8 2.85.45-.25 3.05-3-.15-1.1-2.2-2.65-.35.35-1.55 1.15-.2.1m7.4 20.45-.5-.2q.2-.05.35-.15l.15.35m38.5-17.6v.15l.8-.05-.8-.1m4.7 11.05v-.05h-.1l.1.05m-48.2 48.9.45.55 2.65 3.3 1.35 2.6.4.9.5 1.15.1.25-.5.45-.7-.65-.3-.35-.6-.7-.75-.8-1.05-1.1-1.15-1.3-2-2.2-4.1-5.25.15-.8.45-2.15 2.35 2.95 2.75 3.15m-57.8-76.55-.75 1.2.9 3.5.65-.4.1-3.55-.9-.75m-3.85.45-.95 3 1.8 4.7-2.9-2.85-.15-3 2.2-1.85m49.5 3.25.25-.4.75 1.35-.4.2q-.45.2-.85.45-2.95 1.6-6.2 3.65-2.9 1.9-2.9 2.35-.05.45 1.75.6h1.75l.9-.3-3.25 3.2q-1.4.95-2.5 2.95h-1.6v-2l2.35-.95v-1.75l-1.15-.55q-1.35-.65-1.75-1.2-.3-.35 0-1.15l1.3-4.4.45-.3.15-.45 7.7-5.65.35 1.4 1-.65.75 1.85 1.15 1.75m-8.75-6.45-.75-1.1-1.8 1.45.2 1.65.15 2.1 5.6-4.7h-1.65l-1.75.6m1.15 19.35 1.15-1.2 6.1-5.2 2.1-.65 1.8-1q-.7 2.4.7 3.8l-4.2 1.15-3.55.75 1.75 1.75h4.1l.9-.2 1.15 1.8-.5 2.5H155l-.6 1.15 2.35 1.75 1.75.3q-1.15 1.4.1 3.75l-2.2 1.05-2.2 1.1-.25.1-2.45-3.95q-1.35-1.1-2.95-1.75l-.1-.05.1-.55 1.2-1.75-3.55-1.15q-.65-.3-.7-.95l.7-.25.6-1.15h-.8l.8-1.15m-17.55 37.45 3.25 3.3-3.3-5.9q-.65.6-1.25.8l1.3 1.8"/></g><g id="b"><path fill-rule="evenodd" fill="#f63" d="m182.5.55-.45-.45.3-.1.15.55"/><path fill-rule="evenodd" fill="#dadada" d="m172.95 215.2.05.15-.25-.05.2-.1m-8.9 19.9H164l-.9-.1-.15-.5 1.2-.25-.1.85m-.7-3.65-.45-.1-1.7-.4.4-1.6-.1-.05 4.55-4.45.85.4q.35.2.9-.9l-.85 2.35-.3.2h.25l-.85 2.45h-.95l-1.75 1.15v.95m-6.4-.8h-.25l-1.95.1h-.1l1.1-.8v-1.2l1.8-2.15 4.45-1.85 1.05-.05-3.1 4.1-.1-.05-1.75.6-.5 1.05-.65.25m-5.55-1.3-1.05-.45q.9-.9 1.55-1.25l.2-.1-.4 1.65-.1.05.1-.05-.05.15-.05-.1-.2.1m2.25-2.1.65-.1.55-.05-.25.3-.95-.15m4.4-4.2-1.05-.7 1.2.5.05-.05-.2.25m-1.9-1.15-.55.05.4-.3.15.25m-8.6 6.85-.15.3-1.9.5-2.45.4h-.15l1.75-1.15.1-.05-.1.05v-.05h2.9m15.05-14.05-2.4.65-.15-.6 2-.6.45.45.1.1m-.6-.55-.65.1-.35-.75.25-.05.75.7m-2.35-2.2-2.35.55-.2-.85 1.75-.45.4.4.4.35m-38.8-9 .1-.2.05.1.05.05-.2.05M166 207.3l2.65 3.3 1.35 2.6-.85.15-1.05.1-1-1.1.4-.1.85-.1.45-.1-.65-.35-.3.15-1-.45-.6-.45-.3.1-2-2.2-.8-1-.25-.35-1.1-1.4-1.3-1.7.4.2.85.45h.05l1.15.55q1.35.65 1.4.85l.1.55 1.55.3m4.4 6.8.5 1.15-.8-.35-.1-.15.05.15-.45.05h-.1l-.65-.7.7-.05.85-.1m.6 1.4.35.95v.05l-.85-.55.5-.45"/><path fill-rule="evenodd" fill="#c5c5c5" d="m165.85 236.8.55-.05h.1l1.3-.5.2.55h.1l-.8.65-1.85.4-.55-.05.95-1m-8.55-24.3-.5.1-.2.15-.45.05.65-.2.3-.95.2.85m3.6-7.9.45.2.4.25-.85-.45m-144.25 6.9.15.55-.45-.45.3-.1"/><path fill-rule="evenodd" fill="#c00" d="m261.8 105.25 4.9-5.85 5.45-1.6 3.95-.05-3.85 3.65 2.5.05 1.75 6.25-6.35-.8-4.8.95-4.35-1.65.8-.95m-3.75 27.35.4-.1 2.8 1.3 2.5 7.15-.45 3.4-.3-.85-1.8-5.55 1.8 5.55-.4.1-1.25-.95-.95-2.8-2.1 5.6q-6.75 1.3-2.6-8.1l2.4-4.55-.05-.2"/><path fill-rule="evenodd" fill="#48412b" d="M198.35 119.9q1.75-12.75 5.25-22.55 5.05-14.25 10.75-13.85l1.45.35q2.85 1.25 4.95 6.75 1.2 3.25 2.15 8.05l.85 4.75q1 6.95 1.1 15.1v2.5q0 6.15-.5 12.95-1.15 15.65-4.35 27.7l-.55 1.95-1.15 3.7-.5 1.4q-4.7 13.2-9.9 13.85h-1.3q-5.35-.95-8.15-15.15l-.45-2.6.65.25q1.7.65 2.3-.85.45 2 1.05 3.55 2 5.2 4.9 5.45 1.8.1 3.55-1.7 2.6-2.75 5.1-9.95l1-3.25q2.5-8.35 3.75-19.05l.65-6.95.45-11.2q.05-9.8-1.3-17.7l-.15-.8q-.75-3.95-1.65-6.6-2.1-5.95-5.15-6.2-4.55-.35-8.65 11.65l-.1.35q-3.3 9.7-4.75 22.8h-.15q-.25-2.65-1.15-4.7m15.95 13.55.3 1.6h-.85l-1.8 1.2h-2.75l-2.6-1.05 2.6 1.05h-2.75l.15-1.05.4-2.45h2.65l2.9 1.15 1.75-.45m-8.55 8.6 5.6.95-1.15.85h-4.8l.35-1.8m-.7 5 .05-.5 3.95.25v.15l-4 .1m-5.6-.85.05 1.05h-.75l-2.2.05v-1.1h2.9m-.15-2.35h-2.75l.05-3.15 2.05.65.7.2-.05 2.3m-52.95 26.3-2.3.65q-4.15 1.05-5.3 0-.65-.65-1.65-2.8l-.05-.15-3.55 2.35q-4.2 2.25-5.25 3.5l-1 1.65-.2.7 1.15.6q1.15.65 1.2 1.15l.05 1.7-.05.65-.45.65 3.95 6.95.65 1.65-.1.05-1.95-1.9 1.95 1.9.15.05 3.4.6 1.2 2.95q.05.7-.7 1.2 1.05 1.4.7 2.3l-1.75 1.75-.05.05-2.3 1.15q-.75.25-.75 1.2 0 .65-.45.55l-.8.05-.35.05.1.15-5.65 4.3-.35-.15-1.15 2.05-2.35.55v-1.75l1.8-.55.45-.95h.05l6.35-4.6.15.25q.15.8.6.7-.45.1-.6-.7v-.35l.1-.85-.4-.4-.3-.15-.35-.1-1.15.05-.45-.05-6.85 5.25-.55 1.3-1.75 1.15-1.2-1.15 1.8-1.2.8-1.2.2-.05-.05-.05.4-.25 4.05-3.85-5.4 2.9v.2l-.6 1.15-2.35 1.75-.6-1.15 2.35-3.55.55.55 7.4-3.6-1.3-.2-.6-.25-7.3 2.5.25.25-2.5 1.95-1.75.6q-.95.15-.6-.6.35-.8 1.25-1.8l.5-.55.8-.55.2-.05h.75l1.1.75-1.1-.75-.05-.2 8.15-2.5-.4-.85q-.15-.15.5-.55 1-.7 4.85-1.05l.45-.7-.2-.4h-.05l-.45-1-.5-.95-4.1-3.5-3.5-2.35h-4.1l-1.75-1.15-.6-2.95 1-2q-.9-.3-1-.9-.1-.8.55-2.55l.65-1.55h3.5l7-3.55 9.35-6.25q.05-2.3 1.8-6.05.45-1.05 1.45-1.95.9-.9 1.5-.95l2.3-.6 1.8-.25h1.65l1.15.2.1.05q1.6.65 2.95 1.75l2.45 3.95q-2.45 1.3-3.05 1.9-.85.8-2.45 5.45l-.1.2-.9 2.8-.1.3m-30.3-15.65-.7-.1-2.75-.55 3.35-1.2 2.75-.25-2.65 2.1m-14.7-4.35q.25-1.9.55-2.2.45-.55 1.4-3.65l.25.05q1.9 2.95 2.45 3 .45.05 1.45-1.85.95-1.85 1.45-1.65l1.75 2.55q1.15 2.2 1.75 2.15l1.85-1.45q1.25-1.4 1.7-1.5.3-.1 2.8 1.35 2.35 1.35 3.05 1 1.2-.65 3.5-7.6l5.6-1.3.15.5-.95.6-.55.8-3.4 3.2 3.2 3.9q-3.05-1.85-3.95 2.1l-16.25-.9h-.65q-.8.15-2 .8l-1.4-.8-2.8 1.2-.3-.05-.65-.25m95.55-16.25h.45l1.6-.4 1.65-.4-.85 3.6-1 .1-.25.05-1.65-1.7v-.1l.05-1.15m2.05-.4-.2 3.3.2-3.3m-.25 12.7.05 1.05-.05-1.05m-.05-4.85v2.5-2.5m-77.45 42.9-1.75-1.15 1.75 1.15m-2.35-7.6.25.9.6 1.15q.8 1.55 1.5 2.05 1.8 1.3 4.7 1.75l1.05-.05-1.05.05q-2.9-.45-4.7-1.75-.7-.5-1.5-2.05l-.6-1.15q-1.45.9-2 .85l-1.35-.25 1.35.25q.55.05 2-.85l-.25-.9m16.95-13.3q-.05.5.05 1 .15 1.3 1.2 3.5-1.05-2.2-1.2-3.5-.1-.5-.05-1m-7.55 20.9 3.25 3.3-3.3-5.9q-.65.6-1.25.8l1.3 1.8m1.05 6.8.5 1-.5-1m8.2 3.2-1.65.55H130l-1.2-.6.75-1.05-.75 1.05 1.2.6h5.85l1.65-.55m-9.8 3.3.25.1.3.65.35.5-.35-.5-.3-.65-.25-.1-2.25 1.2 2.25-1.2-.65-.4-.25-.15.25.15.65.4m-3.1-1.95.1.35.2.6-.2-.6-.1-.35m3.6-13.95.75-.85-.75.85m2.35 7.3 2.9.5-2.9-.5m-7-14.25-2.45 1.3 2.45-1.3m1.1 30.3 1.2.65-1.2-.65m-4.6-3.35v-.4l-.65-.65.65.65v.4m1.7 2.4-.7-1.15.7 1.15"/><path fill-rule="evenodd" fill="#ececec" d="M216 83.55q1.05-.45 2.15-.4 1.25.1 2.35.85l.2.15 1.35 1.3q1.5 1.9 2.75 5.4l-4.05-.25q-2.1-5.5-4.95-6.75l.2-.3m9.2 1 .1-.35q1.05-.5 2.15-.4 2.15.15 3.9 2.3 1.5 1.9 2.75 5.35l-3.75-.25H230q-1.35-3.65-3.1-5.4-.8-.85-1.7-1.25m-190.35 39.1-5.6.3q-.5 0-7.2-2.4-.75-5.9-3.9-11.6l-.05-.15q.6 5.35-1.25 9.85l-5.75-2.15.6-1.75-2.95 1.15-4.4-1.7-.1-.45q3.6-.75 7-2.1l2.5-4.15.95-.65q.5-.6-.1-.6l-.4-.4-4.95-5.6.85-.9.15.1.25-.5 5.8-1.05.1.45q.5 2.7 9.95.45 5.7-1.35 9.45-1.45l4 .4L41 97l3-1.4 3.8-2.2 11.5-2 4.5 2.1 11.15-3.55.85-1.45 14.4-2.55 3.5-.65h2.9l.15.15 2.35 4.75-18.45 1 5.6 1.65-33.3 6.8-13.5 2.8L22.1 106l12.75 17.65"/><path fill-rule="evenodd" fill="#e20000" d="M220.7 84.15h2.95q.8.05 1.55.4.9.4 1.7 1.25 1.75 1.75 3.1 5.4l.3.7h-5.15l-.35-1.05q-1.25-3.5-2.75-5.4l-1.35-1.3"/><path fill-rule="evenodd" fill="#785736" d="M204.5 101.45q4.1-12 8.65-11.65 3.05.25 5.15 6.2l-13.65 5.7-.15-.25"/><path fill-rule="evenodd" fill="#ccc" d="m230.3 91.9-.3-.7h.35l-.05.7"/><path fill-rule="evenodd" fill="#c00101" d="M225.15 91.9h5.15q1.05 3.1 1.95 7.4l.7 4.1q1.05 7.15 1.2 15.6l.05 2h-5.5v-2.3q-.1-8.25-1.1-15.3l-.85-5.1q-.7-3.65-1.6-6.4"/><path fill-rule="evenodd" fill="#8f7d56" d="m224.8 90.85.35 1.05q.9 2.75 1.6 6.4l.85 5.1q1 7.05 1.1 15.3l-3.85-.2q-.1-8.15-1.1-15.1l-.85-4.75q-.95-4.8-2.15-8.05l4.05.25"/><path fill-rule="evenodd" fill="#cdb8b8" d="m234.1 91.45.1.35q1.05 3 1.85 7.15l.8 4.45.4 3.1.6 7.35.15 5.35v3.5q-.05 5.5-.5 11.55-.5 6.95-1.45 13.25-1.2 8.2-3.1 15.15l-3.65-.25q1.8-6.9 3-14.9.85-6.15 1.35-12.9.55-7.15.55-13.6l-.05-2q-.15-8.45-1.2-15.6l-.7-4.1q-.9-4.3-1.95-7.4l.05-.7 3.75.25m-14.1 70.2q3.2-12.05 4.35-27.7.5-6.8.5-12.95v-2.5l3.85.2v2.3q-.05 6-.5 12.6-.55 7.35-1.55 13.9-1.2 7.8-3 14.45l-3.65-.3"/><path fill-rule="evenodd" fill="#850000" d="M234.2 121q0 6.45-.55 13.6-.5 6.75-1.35 12.9-1.2 8-3 14.9l-.4 1.3h-5.75l.5-1.75q1.8-6.65 3-14.45 1-6.55 1.55-13.9.45-6.6.5-12.6h5.5m-21.7-4.15 1.6-3.9-6.7 2.1-1.15 2.8-1.45-.1-.2-3.5 3.2-2.15 7.75-2.1 2.3 2.45-.25 2.25-2 1.7-3.1.45m-9.45 41.8.85 2.3 7.4 1.9-2.15-5.05 3.45-.7 1.05.7.1.05v5.95l-2.05 1.35-10-2.25-.65-1.15-.3-2.55 2.3-.55"/><path fill-rule="evenodd" fill="#5f442c" d="M218.3 96q.9 2.65 1.65 6.6l.15.8q1.35 7.9 1.3 17.7l-11.5 1.95 2.6-6.2 3.1-.45 2-1.7.25-2.25-2.3-2.45-7.75 2.1-3.2 2.15.2 3.5 1.45.1-2.6 6.3-1.8 4.25-2.6.6v-.25l.25-2.5.05-.6v-.05l.1-1q1.45-13.1 4.75-22.8l.25-.1L218.3 96m-18.15 28.75 3.5-.6-3.5.6"/><path fill-rule="evenodd" fill="#312b1e" d="m212.5 116.85-2.6 6.2-1.95 4.75-.7 1.55-1.7.45h-4.25l.55-1.4 1.8-4.25 2.6-6.3 1.15-2.8 6.7-2.1-1.6 3.9m-12.7 33.25 5.75-.95 3.6 8.65 2.15 5.05-7.4-1.9-.85-2.3-1.1-2.9-2.15-5.65"/><path fill-rule="evenodd" fill="#533c26" d="m221.4 121.1-.45 11.2-.65 6.95q-1.25 10.7-3.75 19.05l-1 3.25q-2.5 7.2-5.1 9.95-1.75 1.8-3.55 1.7-2.9-.25-4.9-5.45-.6-1.55-1.05-3.55l-.85-3.8q-.45-2.45-.75-5.1l2.6.45-2.6-.45q-.3-2.45-.45-5.05l.9-.15 2.15 5.65 1.1 2.9-2.3.55.3 2.55.65 1.15 10 2.25 2.05-1.35v-6l2.8.5-2.8-.5h-.1l-1.05-.7-3.45.7-3.6-8.65v-.05h4.1l2.3 1.8h2.35v-3.55h1.75v-1.75l.6-2.9-1.8-.25.15-1.3 1.65-.8.25-1.35.35-2.15-1.75-1.8h-.9l-.3-1.6.6-.15 1.15-2.9-1.75-1.2.6-2.35-2.35-1.75-1.3 1.95-3.3.75 1.95-4.75 11.5-1.95m-1.1 18.15-3.4-.25 3.4.25m-9.85 32.25-8.45-3.75 8.45 3.75"/><path fill-rule="evenodd" fill="#fffdea" d="M201.3 129.8h4.25l1.7-.45 2.95-.7 1.05-1.6 1.3-1.95 2.35 1.75-.6 2.35 1.75 1.2-1.15 2.9-.6.15-1.75.45-2.9-1.15H202l-1.4.35-1.65.4-1.6.4h-2.95l-.5-3.35-.1-.75 1.2-2.35 2.3 1.55.5.35.7.45h2.8m13.3 5.25h.9l1.75 1.8-.35 2.15-.25 1.35-1.65.8-.7.35-1.75-1.75-3.5-.6-2.85.25-6.8.35h-2.05l-.75.55-.4.3-1.2.9-.6-.05q-1.05-.2-1.15-1.1v-4.7l3.5-.6.1.1 1.65 1.7.25-.05 1-.1 5.2-.45h7l1.8-1.2h.85m-3.25 7.95 1.2-.9 2.3.35 1.8.25-.6 2.9v1.75h-3.5l-2.7-.45-.8-.1-3.95-.25-5.65-.35h-3.3l-3.5.6-.45-.65-.65-1-.1-.15.3-1 .3-1.3.6-1.2 3.5 2.35h14.05l1.15-.85m-45.7 12.75h.15l.2-.1.25-.05.05-.05 2.6-1.3h.05l1.1-.35q2.1.1 3.2 1.1-1.2.75-4.65 6.15.7.3 1.2 1.45l.6 1.45q-.15.1-.35.15l-1.4-.45 1.4.45.5.2 1.6 1.1.75.95.35.65-4.05-.1-.35-.15q-.85-.6-1.85-.55h-.2q-2.2.15-3.2 2.2l-.95 2.45q-.8-.9-1.1-1.55.3.65 1.1 1.55 6.65-.35-.7 3.25-5.45 7.65-7.95 12.75-1.85 3.8-1.25 7.6l-.15-1-.7.15-3.85.85q-6.9 1.65-3.2-3.85l.2-.35.75-.15.6-.1.45-.15h.05l.15-.3.05-.1.4-.65 4.95-8 .85-1.35.05-.1 1.55-2.4-.3 1v.1h.3l1.9-3.9 1.3-1.7 1-1h.3l.3-.6.15-.15.45-.5.15-.1.3-.75.65-.1v-.05l.15.1-.4-.95-.3-.65-.05-.2v-.05q-.9-2.15.2-3.2l2.65-2.5.1-.05.3-.25.35-.2.75-.2 1.15-.3 2.1.2.2.1-.2-.1-2.1-.2-1.15.3q2-1.15-.3-1.35-2.95-.3-6.45-1.4h-.05l-.15-.05-1.35-.45q-.65-.25.3-.05l1.3.3.15.1 2.5-.65.3-.1q1.15-.45 2.4-.55l1.85-1.2m-24.55 40.8.1-.35v.05l-.1.3M96.05 136.8l3.1-3.1-.9-.7.1-.1 1.75-.25.9-.65.35-.9-.6.3 3.9-2.65 1.8-.9 3.3 2 1.05.85.1.25 2 4.2q.8.1.9.9l.05 1q4.3 1.45 9.5 1.35-.1 1.15-1.45 1.35-4.35.7-7.8-.9l.5.35-.55-.35-1.8-1.05-.4-.5-3.6-2.6.3-.2.1-3.55-.9-.75-.75 1.2.4 1.45-.8-.75-.5-.45q-1.65.9-3.15 2l.95-3-2.2 1.85.1 2.05-1.7 1.5-3.85 1.3-.2-.55m-1.85-24.75 1.7-1.5 4.35.25 2.25 2.95q-2.45-1.05-4.5-1.45l-3.8-.25m2.8-4.9.65-1.5.9-1.6 3.7-3.4.35-.25 2.8-1.95 1.9-1.2.35-.2q1.1-.7 2.15-1.2 1.65-.9 3-1.35-3.25-5.6-5.05-8.05l-1.85-2.05.8-3.3q.8-2.4 1.6-2.25l2.95.6.05.35h.05l1.05-.35.5.2.7-1.4 2.15.55.75-1.1 2.95.55.6 1.75.4.9-.55.15.15.2 6 7.1-5.3.35-1.3.1-.95.7-1.95 1.35-1.3 3.05 5.45-.15 5.65.7.2.3-7.25.85q-5.45.8-10.85 3.95-5.45 3.15-11.45 7.6m69.55 58.4.45.75-.45-.75m-54.7-82L111.6 82l6.9 7.5-6.9-7.5.25 1.55m4.65-1.2V80l-.55-1.15-.2-.05.2.05.55 1.15v2.35m-2.3-.55-.6-1.8-.7-.35.7.35.6 1.8m-5.55 1.05 7.9 8-7.9-8m5.95-1.7 6.15 7.55-6.15-7.55m-3 .85-.3-2.2.3 2.2m3.65 11.9-1.05.2-1.4.4 1.4-.4 1.05-.2m16.75 8.85 1.9 3.15q-12-4.55-25.95 7.3 1.85-4.7 6-7.75l.8-.5 2.8-1.45.8-.3v-.05q3.75-1.45 7.75-2.05l1-.3.15-.1h.3l3-.3 1.65 3.2-.2-.85m1 22.4.05-.1.05-.15.4-.85 4.2.95-2.1 2.05q-2.7 2.75-3.25 3.9-.4.8-.1 2.65-1.95.4-3.75 1.05 2.1-4.7 4.5-9.5m15.45 16.65-.9.3h-1.75q-1.8-.15-1.75-.6 0-.45 2.9-2.35 3.25-2.05 6.2-3.65l.3.6q.4-1.3 2.35-1.8.9-.25 1.6-.9.4-.35.8-.4 2.85 1.35.2 3.55-1.9 1.6-4.15 1.55l.7 1.7-1.9.6-4.6 1.4m-48.05-26.9-.3-.1.05-.05.25.15m-2.05-6.65q.45 1.85.15.8-.15-.4-.15-.8m.8 25.45.4-.4-.4.4m48.6 55.95-.85.3.85-.3m-.15 3.7.45 1.2-.45-1.2m8 11.3.1.05q.3.15-.05.05l-.05-.1"/><path fill-rule="evenodd" fill="#6f623c" d="m201.85 128.4-.55 1.4h-2.8l-.7-.45 1.45-.35 2.6-.6m5.4.95.7-1.55 3.3-.75-1.05 1.6-2.95.7m-.25 3.4-.4 2.45-.15 1.05h-1.5l-5.2.45.85-3.6 1.4-.35h5m-.8 6.65 2.85-.25 3.5.6 1.75 1.75.7-.35-.15 1.3-2.3-.35-1.2.9-5.6-.95.45-2.65-.45 2.65-.35 1.8h-6.1l.05-2.3-.7-.2-2.05-.65v-.4l.75-.55h2.05l6.8-.35m-1.1 7.15-.05.5-5.55.2 5.55-.2 4-.1.8-.05 2.7.45h1.75v3.55h-2.35l-2.3-1.8h-4.1v.05l-5.75.95-.9.15h-.2l-1.15.05H195l-3.55 1.75-1.15-2.95.25-.35.85-1.3 1.05.3.2.2 2.35-.6 1.55-.05 2.2-.05h.75l-.05-1.05 5.65.35m-39.85-4.2.45-.45.85-.85 2.3 1.85-.8 2.7-.45.5-.15-1.1-2.2-2.65m-2.45 37.8h-.6l-.15-.05.2-.3.55.35m-8.45-61.2 2.55-.85 1.45.3 1.65.6.4.25h.05q1.15 1.6 1.75 2.95v2.15l-3.5-2.15-2.6.85-.35-.85-1.3-1q.35-1.55.15-1.95l-.25-.3m45.05 20.8-.05 1.8.05-1.8m-38.55 28.05.3.65-.5-.45.2-.2m-11.9-40.95.95 1.8.25.9-7.7 5.65q.2-1 0-3.65l5.6-4.7h.9m5.45 8-.75-1.35-.25.4-.1-.15.35-.25.95-1.35 1.65 1.7-1.85 1"/><path fill-rule="evenodd" fill="#544630" d="m160.1 118.8 3.25 1.65.2.15v-.2q.55-1.2 2.15-1.15 1.05.05 4.7 1.2l2.35 3.5-.15.5-.45.1-1.75 2.9-.3 1.3q-1.95.8-2.8 2.15l-1.05-1.5.7-1.15-1.25-5.5-2.15-2.15 2.15 2.15 1.25 5.5-.7 1.15-.55.8-1.9 2.6-1 1.1-.3.3.3-.3 1-1.1q1.7 1.3 1.35 3.55l-.6 1.05-1.8 1.65-.95.8.55-1.45q.5-2-.35-3.75l.5-.45-2.95-2.6 1.8-3.6.85-1.7v-4.1q-.6-1.35-1.75-2.95l-.35-.45m14.25 12.9.15.45-4.1 5.85-1.3-.95.1-.8-.3-1.95 2.3-1.05 3.15-1.55m-78.1-1.1-2.55-4.3.55-1.75.25-.15 2.7 4.8h3.5q1.65-.5 1.75-1.15l.5-4.4.05-.65 1.15 1.8-.85 4.65-3.7 1.6-1.15-.4-2.2-.05m48.85-23.55 1.35 2.3q1.55 2.65 1.7 3.45l.25 2.1q.2 2.6-.25 3.75l-3.5 7.05-.75.65-1.8 1.45-.35-2.4q1.5-2.3 1.7-3.2l1.75-8.2q.25-1.8-.15-6.9l.05-.05m-36.15 15.3.5-.15-.5.65v.25-.75m1.4-.9 3.25-2.8 9.95-4.1 3.45.5q-3.1 2.4-11.05 5.7-3.65-.55-5.6.7m19.05-3.6 1.85 3.5-1.25 6-5.3 6.2-6.25 1.8-4.95-1.55-3.95-7.45 3.45 4.6 6.45 1.2 2.75-.75q2.9-.95 3.7-1.6 1.25-1.1 3.5-4.7v-7.25m8.3 7.15.5-.45 1.35-.3.4-.05.15 2.2-3.9 3.05q.55 5.15-.75 7.9l-1.3 1.25-4.8 9.45-3.2-3.9 3.4-3.2.55-.8.95-.6-.15-.5q1.8-.55 2-1.05.15-.4-.45-3.2l-.2-1.2q-.3-1.85.1-2.65.55-1.15 3.25-3.9l2.1-2.05m-35.05-3-.4-.25q-3.2-1.95-6.6-3.6l.95-.65 1.6.4q1.7.55 2.5 1.35l1.95 2.75m55.75 88.2-.05.05.05.1.05.1-.4.15.35-.4"/><path fill-rule="evenodd" fill="#977e57" d="M173.15 124.55q.95.45 2.5 2.3l2.35.7-2.4-.25-4.55 1.1-.95.35.3-1.3 1.75-2.9.45-.1.55.1m6.65 3.5 2.9-.6q1.25-.4 1.75-1.15h1.75l.8 1-.1.85-.1 1.05.6 1.75-1.8 1.2-.65.85-.2.35q-1.35-4-4.95-5.3m-5.45 3.65.35-.15-.2.6-.15-.45m1.2-.55 1.2-.6q1.35-.6 4.45 1.15l3.4 1.85q-.25.55-.15.95l.05.15-1.2.4-1.2-1.15-1.15-2.35-3.55-.6-1.85.2"/><path fill-rule="evenodd" fill="#e2dacb" d="M196.55 143.85h-.4l-3.5-2.35-.6 1.2-.3 1.3-1.45-.75v-2.9l1.2-.5-1.2-.7.6-2.3.35-.5.85-1.25.05-.05 2.25-1.15-2.25 1.15h-.1l-.6-1.75.95-1.8.25-.55 1.25-.4.5 3.35h2.5l-.05 1.15h-.1l-3.5.6v4.7q.1.9 1.15 1.1l.6.05 1.2-.9.4.1-.05 3.15m-5 1.3.65 1 .45.65 3.5-.6h.4v1.1l-1.55.05-2.35.6-.2-.2-1.05-.3-.85 1.3-.85-.8v-2.35l1.85-.45m-32-13.55 2.95 2.6-.5.45q-2.7 2.65-5.05 4.1l-1.8 1-.2.05-.7-1.7q2.25.05 4.15-1.55 2.65-2.2-.2-3.55-.4.05-.8.4-.7.65-1.6.9-1.95.5-2.35 1.8l-.3-.6q.4-.25.85-.45l.4-.2 1.85-1 3-1.7.3-.55m4.65 101.5-.6-.2 1.35.35-.75-.15m-15.05-6.75.15.65-.3-1.25.15.6M132.1 201.3l-.25.2-.1-.15.35-.05m-11.15 1.45.45-.15-.4.25-.05-.1m-5.2-4.45.7-.2.05.2h-.75m44.3-79.5h.05-.05m33.2 20.3-1.75.75 1.75-.75m-.8 8.65-.25-1.6.25 1.6m-47.4-40.65.05-.05-.05.05m-37.55 9.5-.95.75.65-1.2.3.45m63.85 99.85.35-.15-.35.2v-.05"/><path fill-rule="evenodd" fill="#535031" d="m163.8 132.8 1.9-2.6 1.15 1.85-.15.8-.4 1.65-1.15 1.85q.35-2.25-1.35-3.55"/><path fill-rule="evenodd" fill="#bca887" d="m187 127.3.4-1q.3-.65.9-.55l2 .55.6 1.15v1.75l1.5 2.3-.95 1.8.6 1.75h.1l-.05.05-.85 1.25-3.3-1.3q-1.1.25-1.75.6l-1.05-.15q-.5-.35-.65-.85l-.05-.15q-.1-.4.15-.95l.25.1-.1-.3.2-.35.65-.85 1.8-1.2-.6-1.75.1-1.05.1-.85m-20.75 2.1 1.05 1.5q-.3.5-.45 1.15l-1.15-1.85.55-.8m.45 3.45.1 1.6 2.1-.15.3 1.95-.1.8-1.05 2.1-1.5 1.9-.85.85-.45.45-.35.35-2.15-3.65 1.8-1.65.6-1.05 1.15-1.85.4-1.65m-29.2 6.2-.45.35-.25.2q-1.45 1.15-1.55 1.9l-2.9 9.4q-7.65 3.3-8.8 3.5l-4.2.2-3.3-.1 2.65-2.1-2.75.25-3.35 1.2h-.15l-7.05.55q-3.7-1.3-4.1-1.75-.3-.4 0-2.4l.05-.1.65.25.3.05 2.8-1.2 1.4.8q1.2-.65 2-.8h.65l16.25.9q.9-3.95 3.95-2.1l4.8-9.45 1.3-1.25q1.3-2.75.75-7.9l3.9-3.05-.15-2.2.4-.1-.8.15-1.35.3-.5.45-4.2-.95-.4.85-.1.25q-2.4 4.8-4.5 9.5l-.25.5h-.65l-.35.3-.05.1q-.85 1.6-2.1 2.75l-1.75.1q-5.2.1-9.5-1.35l-.05-1q-.1-.8-.9-.9l-2-4.2-.5-1.1h-.65l-3.3-2-1.8.9-3.9 2.65.6-.3-.35.9-.9.65-1.75.25-.2.05-.95-.8-.95-1.55 2.2.05 1.15.4 3.7-1.6.85-4.65L103 123l-.05.65-.05-.05v-1.1l-.05-.15-.2-.35-1.95-2.75q-.8-.8-2.5-1.35l-1.6-.4-.95.65-.4.25-.15.1-2-1v-4l1.95-.1 5.05 1.4.3.1 2.8 1.5.65.95.05.9.1 1.7q1.1-1.4 2.55-2.6l.95-.75q1.95-1.45 4.45-2.6 5.2-4.8 23.5-5.45l-1.55-2.65-1.9-3.15-.95-1.65.5-.05 1.45.2q1.25.2 5.25 3.3l2.5 2.75q1.5 1.65 0 .05l2.15 2.45 1.7-3 .45.3q.4 5.1.15 6.9l-1.75 8.2q-.2.9-1.7 3.2l.35 2.4.2 1.65.15 2.1q.2 2.65 0 3.65l-.15.45-.45.3-3.65 2.65-.7.45m-8.7-49.65 3.55 3.5.9 3.2q-1-.5-1.85-.7l-3.75-.75-1.3-.2-5.65-.7-5.45.15 1.3-3.05 1.95-1.35.95-.7 1.3-.1 5.3-.35 1.6-.15 1.05 1.1-.35.2.45-.1m19.6 25.5 3.85 2.6 1 .6 1.1.85.25.3q.2.4-.15 1.95l1.3 1 .35.85.8 2.05q.3.6 2.2 1.7l.15.1-1.75 2.3q-2.6 1.6-3.5 1.75-.6.1-1.25-.5l-.5-.65-.75.5-1 .65-.35-1.4-.25-.9-.95-1.8h2.7q1.65-.45 1.75-1.75l1.05-3.9-1.05 3.9q-.1 1.3-1.75 1.75h-5.25l-1.75.6-.75-1.1.75-.65 3.5-7.05q.45-1.15.25-3.75m40.15 14.3-1.15 1.75 1.15-1.75m-79.6-6.85q-1.55.35-2.65-.9l-.3-.45q-.75-1.05.55-3.65-1.3 2.6-.55 3.65l.3.45q1.1 1.25 2.65.9v.75q.15 2.15.5 3.05l.05.15.05.05 3.95 7.45 4.95 1.55 6.25-1.8 5.3-6.2 1.25-6-1.85-3.5v-.35l-1.15-2.3h-.2l-.15-.05-.9-.1-3.45-.5-9.95 4.1-3.25 2.8-.05.05-.45.4-.35.3h-.05l-.5.15m29.25-16.55 1.15 2.9q.7 1.3-1.15 5.3l-5.85 1.75-4.1-.55 4.1.55 5.85-1.75q1.85-4 1.15-5.3l-1.15-2.9m-1 11.05-.25.5-.15.3.05-.1.35-.7m4.55 8.55q-.35-1.45-.65-1.45l-.75.15.75-.15q.3 0 .65 1.45M103 123l.05-.25-.15-.25.15.25-.05.25m1.4 1.6.05.7.25 2.7 1.3-.95q-.55-1.2-1.6-2.45m16.8 28.05-2.5-.25 2.5.25"/><path fill-rule="evenodd" fill="#fef4eb" d="m162.75 139.05 2.15 3.65-1.55 1.15-.2.1h-.1l-6.4 2.05-.9.2h-4.1l-1.75-1.75 3.55-.75 4.2-1.15 1.05-.45 3.1-2.25.95-.8m1.35 10.3.45-.25 3.05-3 .45-.5.8-2.7.95.75v1.95q-.55 2.7-1.15 3.5-.65.85-5.3 3.55l-1.4.4h-.05l-2.65.75-1.75-.3-1.75-.3-2.35-1.75.6-1.15h4.7l5.4-.95m-17.8 4.2v-.35h1.25l-.1.55-1.15-.2"/><path fill-rule="evenodd" fill="#5f5838" d="m161.35 128-1.8 3.6-.3.55-3 1.7-1.65-1.7-.95 1.35-.35.25-1.05-1.6-.75-1.85.75-.5.5.65q.65.6 1.25.5.9-.15 3.5-1.75l1.75-2.3v-.05l-.15-.05.6-.65 1.65 1.85m1.7 15.95-.75 2.55 1.8 2.85-5.4.95h-1.4l.5-2.5-1.15-1.8 6.4-2.05m-4.35 3-.9.85.9-.85m3.2 6.1h.05q1.35 1.35.45 2.85l-.05.1q-2.7.15-3.65.75l-1.1.5q-1.25-2.35-.1-3.75l1.75.3 2.65-.75m-15.6.15h-4l-1.2-1.15.55-1.75-2.9-.6v-2.35l.75-1.5-2.5-.85-.5-.65q-.45-.85-.05-1.65l.85-2.95.2-.7.7-.45 3.65-2.65-1.3 4.4q-.3.8 0 1.15.4.55 1.75 1.2l1.15.55V145l-2.35.95v2h1.6q1.1-2 2.5-2.95l3.25-3.2 4.6-1.4-6.1 5.2-1.15 1.2-.8 1.15h.8l-.6 1.15-.7.25q.05.65.7.95l3.55 1.15-1.2 1.75h-1.25m15.7-18.55q.85 1.75.35 3.75l-.55 1.45-3.1 2.25-1.05.45q-1.4-1.4-.7-3.8 2.35-1.45 5.05-4.1m-20.9 11.3-.55.25-1.05-.35 1.05.35.55-.25m1.6 2h2.3-2.3m1.8 1.4-2.8.95h-.05.05l2.8-.95m17.8-2.85-1.4-.3 1.4.3"/><path fill-rule="evenodd" fill="#d1d1d1" d="M199.5 124.6h.15l-.1 1-.05-1M95.25 103.25l-3.9 1.35-.1.05-.65.2q-1-.15-2.2-1.4-1.6.5-2.5 3.05l-3.2 1.1-1.9-3.55-2.45 5-8.5 2.95-9.9-5-.45 3.8q-1.5-.4-1.25.3.75 2.2 2.2 3.05-2.3-.5-4.85-2.2l-2.95-2.4q-.8-.8-1.75-.65-1.4 1.15-3.25 3.45-1.05 1.35-2.9 2.25l-2.35 3.35q-1.1 1.6-1 3.3l.05.05q-5.4 1.65-5.75 2.05l-.85.3L22.1 106l17.35-3.55 2.9 4.55q5.75-.8 10-4.75l.6-2.6 33.3-6.8 14.65 4.2-4.95 5.95-.7.25"/><path fill-rule="evenodd" fill="#6a6a6a" d="M200.95 164.2q-.6 1.5-2.3.85l-.65-.25q-1.15-6.7-1.4-14.5h.95l1.15-.05-.2.05h-.95.95l.2-.05h.2q.15 2.6.45 5.05.3 2.65.75 5.1l.85 3.8M197.3 129l.15-1.6.9-7.5q.9 2.05 1.15 4.7l.05 1v.05l-.05.6-.25 2.5v.25l-1.45.35-.5-.35m2.2-2.75.05-.65-.05.65m20.3 55.85q3.8-2.9 7.3-12.75l.7-2 3.75-.05-.6 1.7q-2.1 5.85-4.25 9.25l-5.1 5.05-4.4-.1q1.3-.15 2.6-1.1m1.9-14.65h.25l-.3.9.05-.9"/><path fill-rule="evenodd" fill="#d9cebf" d="M162.35 156h.3l3-.25-1.85 1.2q-1.25.1-2.4.55l-4.25.35q-.95-.2-.3.05l-1.05.2-.4.2 2.2-1.05 1.1-.5q.95-.6 3.65-.75m6.6-1.75 1.35-.7q3-1.5 4.2-1.5 2.2 1.05 3.5 4.1l.95 1.55q.25.5-.35 1.4l-2.95 2.9-.6 2q-.65 2.1-.55 2.7l-.6 2.85-.25.75-.45-.1.15-.75-.05-1.6-.05-.75-.35-.65-.75-.95-1.6-1.1-.15-.35-.6-1.45q-.5-1.15-1.2-1.45 3.45-5.4 4.65-6.15-1.1-1-3.2-1.1l-1.1.35m-10.1 56.95-.8-.6.4-.15.5.75.2.3.1.1-.4-.4m-55.5-67.15q-1.7-2.6-2.05-2.55-.3.05-1.4 1.4-.95 1.25-1.55.95-.6-.3-1.4-3.25l-.15-.45-.8-3.3.05-.05.2.55 3.85-1.3 1.7-1.5.05.95 2.9 2.85-1.8-4.7q1.5-1.1 3.15-2l.5.45.8.75.5 2.05.35-.2 3.6 2.6.4.5 1.8 1.05.55.35-.5-.35q3.45 1.6 7.8.9 1.35-.2 1.45-1.35l1.75-.1q1.25-1.15 2.1-2.75l.05-.1.35-.3h.65l.25-.5q1.8-.65 3.75-1.05l.2 1.2q.6 2.8.45 3.2-.2.5-2 1.05l-5.6 1.3q-2.3 6.95-3.5 7.6-.7.35-3.05-1-2.5-1.45-2.8-1.35-.45.1-1.7 1.5l-1.85 1.45q-.6.05-1.75-2.15l-1.75-2.55q-.5-.2-1.45 1.65-1 1.9-1.45 1.85-.55-.05-2.45-3l-.2-.3M98.25 133l-.1-.05.2-.05-.1.1m-5.15-19.5v-.1l1.1-1.35 3.8.25q2.05.4 4.5 1.45l-2.25-2.95-4.35-.25.1-.4.35-1.25.65-1.75q6-4.45 11.45-7.6 5.4-3.15 10.85-3.95l7.25-.85-.2-.3 1.3.2 3.75.75q.85.2 1.85.7 1.15.55 2.6 1.5 6.2 4 8.2 7.6l.7 1.3-.05.05-.1.25-1.7 3-2.15-2.45q1.5 1.6 0-.05l-2.5-2.75q-4-3.1-5.25-3.3l-1.45-.2-.5.05.95 1.65.2.85-1.65-3.2-3 .3h-.3l-.15.1-1 .3q-4 .6-7.75 2.05v.05l-.8.3-2.8 1.45-.8.5q-4.15 3.05-6 7.75 13.95-11.85 25.95-7.3l1.55 2.65q-18.3.65-23.5 5.45-2.5 1.15-4.45 2.6l-.3-.45 1-1.6-1 1.6-.65 1.2q-1.45 1.2-2.55 2.6l-.1-1.7-.05-.9-.65-.95-2.8-1.5-.25-.15-.05.05-5.05-1.4-1.95.1m68.05 54.95.4.95-.15-.1v.05l-.65.1.4-1m-23.95-51.6-.35.7-.05.1.15-.3.25-.5m2.35 7.4.8-.15-.4.1-.4.05m-6.45.65-.05.15-.05.1.1-.25m-22.2 6.05-.1-.25-1.05-.85h.65l.5 1.1m-9.25-29.85.6-.45-3.7 3.4 1-1.2 2.1-1.75m-3.3 7.15q0 .4.15.8.3 1.05-.15-.8m6.05 16.35q1.05 1.25 1.6 2.45l-1.3.95-.25-2.7-.05-.7m55.3 46.35-.3.6h-.3l.25-.2.35-.4m-2.9 3.3-1.9 3.9h-.3v-.1l.3-1 1.9-2.8"/><path fill-rule="evenodd" fill="#dbd9b4" d="M162.05 180.1q-2.4 3.85-2.8 5.35l-2.3 5.75 1.15.65 2.9 2.35-1 1.85-1.9 2.85-.4.5-.4.1q-2.65.65-3.65-1.75l-.05-.15-.05-.15-.8-2.9q-.6-3.8 1.25-7.6 2.5-5.1 7.95-12.75 7.35-3.6.7-3.25l.95-2.45q1-2.05 3.2-2.2h.2q1-.05 1.85.55l.35.15 4.05.1.05.75.05 1.6-.15.75-.45.6q-1.1.9-3.55 1.75-1.9.6-3.5 2.35-.6.6-1.65 2.15l-1.8 2.75-.2.3m-17.3-73.6.1.1.2.4v.1l-.45-.3.1-.25.05-.05m23.75 62.25-1.5-2.45 1.5 2.45m-13.35 21.35 1.8 1.1-1.8-1.1"/><path fill-rule="evenodd" fill="#bdb592" d="M173 215.35q1.3.15 2.1 1.1l.6.65.2.2.35.95q-.15.5-1.75 1.6l.6 1.9q.05.7-.6 1.15l-.85.3-.9.25q-1.05.25-1.55.95l-.2.25-1.15 1.6-.9.25-.15-.2q.4-.35.25-.8l-1.25-1.15q-.55 1.1-.9.9l-.85-.4q-.85-.35-1.3-1.35l-1.75.4v.05l.1.35-.05.4-1.05.05q-1.8 0-2.15-.65l-.1-.2.1-.2.05-.5q-.05-.65-.65-1.6l-1 1.2-.05.05-1.2-.5-.1-.05q-.45-.1-.75-.4l-.15-.25.35-.85q.25-.5-.7-1.1-.05-.45 1.25-.9l4.1-1.15 3.4-1.25.7.65-.65-.7-1.95-1.75-.45-.45H162l-.75-.7-1.6-1.5-.4-.35-.1-.1.35-.45-.95-.65-.1-.1-.1-.05.05-.05q-3.4-4.45 4.1-2.4l.65.05.8 1 2 2.2 1.15 1.3 1 1.1.75.8.65.7.3.35.7.65.85.55.35-.2q.6-1.05 1.05-1l.25.05M149.65 204l-1.35.1q-.8-.9 1.4-.8l-.05.7m-4.4-3.75-1.45.1-.35-.3-2.35-3.5.1-.3v-.05q.6-3.1 1.1-4.35.3-.8 2.25-1.35l.3.2q-3.7 5.5 3.2 3.85l.3.85-.3-.85 3.85-.85.7-.15.15 1 .8 2.9.05.15.05.15q1 2.4 3.65 1.75l.2.15-1.75 2.2q-.5.6-2.2.5-1.6-.05-2.5-.5-.45-.25-1-1.25l-.55-1.05-.35-.8-3.35 1.3-.55.2m2.75-23.6-.75-1q-1.55-2.15-1.45-3.1l.55-2.4.1-.3.9-2.8.1-.2q1.6-4.65 2.45-5.45.6-.6 3.05-1.9l.25-.1 2.2-1.1.4-.2 1.05-.2 1.35.45.15.05h.05q3.5 1.1 6.45 1.4 2.3.2.3 1.35l-.75.2-.35.2-.3.25-.1.05-2.65 2.5q-1.1 1.05-.2 3.2v.05l.05.2-.2.2-6.5 7.2-6.15 1.45m13.4-19.15-.3.1-2.5.65-.15-.1-1.3-.3 4.25-.35m-15 40.25h2.35l.4 1-.4-1h-2.35m4.65-3 .85-1.05-.85 1.05m23.45 25.1-1.2.7-2.9-.55q-3.35 1.25-4.1 1.15-1.95-.3-2.95-1.15-.45-.45.35-.85l.85-.35.55-1.75-.55 1.75-.85.35q-.8.4-.35.85 1 .85 2.95 1.15.75.1 4.1-1.15l2.9.55 1.2-.7"/><path fill-rule="evenodd" fill="#9f9160" d="m173.65 170.3-.9 2.85.15 1.9q.05 1.1-.75 1.6L166.9 179l-4.1 1.15-.55-.35 1.8-2.75q1.05-1.55 1.65-2.15 1.6-1.75 3.5-2.35 2.45-.85 3.55-1.75l.45-.6.45.1m-20.35 9.25-2.45-.25-.9-.3-.25-.2-.35-.35-.05-.05-1.3-1.75 6.15-1.45 6.5-7.2.5.45-.4 1-.3.75-.15.1-.45.5-.15.15-.35.4-.25.2-1 1-1.3 1.7-1.9 2.8-1.55 2.4-.05.1"/><path fill-rule="evenodd" fill="#6b0101" d="M223.15 163.7h5.75l-1.1 3.65-.7 2q-3.5 9.85-7.3 12.75l-6.8-.2 4.35-4.3q2.2-3.4 4.3-9.25l.3-.9 1.2-3.75"/><path fill-rule="evenodd" fill="#888" d="m218.3 167.3 1.15-3.7.55-1.95 3.65.3-.5 1.75-1.2 3.75h-.25l-3.4-.15m11-4.9 3.65.25-1.4 4.65-3.75.05 1.1-3.65.4-1.3"/><path fill-rule="evenodd" fill="#352f20" d="M207.9 182.55q5.2-.65 9.9-13.85l.5-1.4 3.4.15-.05.9q-2.1 5.85-4.3 9.25l-4.35 4.3-.7.75-4.4-.1"/><path fill-rule="evenodd" fill="#683b10" d="m97.65 105.65-2.4-2.4.7-.25 5.7-1.9-2.1 1.75-1 1.2-.9 1.6m-7.45-19.7.7-2.5q2.6-1.35 5.25-2.65l3.45.6 10.2 14.45q-1.05.5-2.15 1.2l-.35.2q-4.1-5.85-5.4-7.25l-5.15-4.55-.15-.15h-2.9l-3.5.65m34.45-7.15q.55-.65 1.25-1.1.55-.45 1.9-.65 1.7-.2 2.75.65 2.95 2.3 2.95 4.1 0 2.6-.6 4.65-.45 1.55-1.75 2.35l-1.65.4-.1-.4 1.15-1.75q.35-2.25 0-3.5-.5-1.9-2.3-3.55-1.1-.95-2.4-1.1l-1.2-.1"/><path fill-rule="evenodd" fill="#cc9c5c" d="m90.9 83.45.45-1.65 2.35-2.95h4.65q3.75 0 4.1 1.15l3.45 4.4 1.85 2.05q1.8 2.45 5.05 8.05-1.35.45-3 1.35L99.6 81.4l-3.45-.6q-2.65 1.3-5.25 2.65"/><path fill-rule="evenodd" fill="#a84002" d="m69.85 112-12.25 4.15-1.4-.4-.6-1.05q-.85-1.1-2.35-1.3H52.1q-2.55.5-3.5 2.35l.2 3.45-.2.05-6.2 1.8-.95.25-.05-.05q-.1-1.7 1-3.3l2.35-3.35q1.85-.9 2.9-2.25 1.85-2.3 3.25-3.45.95-.15 1.75.65l2.95 2.4q2.55 1.7 4.85 2.2-1.45-.85-2.2-3.05-.25-.7 1.25-.3l.45-3.8 9.9 5m16.4-19.15-5.6-1.65 18.45-1-2.35-4.75L101.9 90q1.3 1.4 5.4 7.25l-1.9 1.2-2.8 1.95-.35.25-.6.45-5.7 1.9 4.95-5.95-14.65-4.2m-33.3 6.8-.6 2.6q-4.25 3.95-10 4.75l-2.9-4.55 13.5-2.8"/><path fill-rule="evenodd" fill="#960" d="m129.5 89.2-.7.2-.1-.1.7-.5.1.4m-9.05-8.3-.4.35-.15-.2.55-.15"/><path fill-rule="evenodd" fill="#a35901" d="m120.45 80.9 3.5-.8.05-.15q.25-.65.65-1.15l1.2.1q1.3.15 2.4 1.1 1.8 1.65 2.3 3.55.35 1.25 0 3.5l-1.15 1.75-.7.5-1.05-1.1-1.6.15-6-7.1.4-.35"/><path fill-rule="evenodd" fill="#fff" d="m16.3 98.9 31.5-5.5-3.8 2.2-3 1.4-1.2 1.75-4-.4q-3.75.1-9.45 1.45-9.45 2.25-9.95-.45l-.1-.45m43-7.5 16.5-2.9-.85 1.45L63.8 93.5l-4.5-2.1m48 5.85.35-.2-.35.2"/><path fill-rule="evenodd" fill="#b8682e" d="m90.6 104.85-4.7 1.65q.9-2.55 2.5-3.05 1.2 1.25 2.2 1.4m-7.9 2.75-4.35 1.45 2.45-5 1.9 3.55m-25.1 8.55-8.8 3.05-.2-3.45q.95-1.85 3.5-2.35h1.15q1.5.2 2.35 1.3l.6 1.05 1.4.4m-54-1.3Q.95 113.6.55 112.8L0 111.05l1.05-1.15q5.75-.7 10.65-2.25l-.1-.3q-2.05-2.25-3.75-4.6l1.4-1.5 4.95 5.6.4.4q.6 0 .1.6l-.95.65-2.5 4.15q-3.4 1.35-7 2.1l-.65.1"/><path fill-rule="evenodd" fill="#bec8d6" d="m10.1 100.35.4-.4-.25.5-.15-.1"/><path fill-rule="evenodd" fill="#d38c36" d="m1.05 109.9 6.8-7.15q1.7 2.35 3.75 4.6l.1.3q-4.9 1.55-10.65 2.25"/><path fill-rule="evenodd" fill="#8b4723" d="m22.05 121.55-5.2-1.9q1.85-4.5 1.25-9.85l.05.15q3.15 5.7 3.9 11.6"/><path fill-rule="evenodd" fill="#bfb699" d="m4.35 115.2-.75-.35.65-.1.1.45"/><path fill-rule="evenodd" fill="#211e14" d="m94.4 124.2.45-2.6.6-2.95-.2-.25.4-.25q3.4 1.65 6.6 3.6l.4.25.2.35.05.15v1.1l.05.05-.5 4.4q-.1.65-1.75 1.15h-3.5l-2.7-4.8-.1-.2m15.05-2h.05l.35-.3.5-.45q1.95-1.25 5.6-.7 7.95-3.3 11.05-5.7l.9.1.15.05h.2l1.15 2.3v7.6q-2.25 3.6-3.5 4.7-.8.65-3.7 1.6l-2.75.75-6.45-1.2-3.45-4.6-.1-.2q-.35-.9-.5-3.05v-.25l.5-.65m-8.9 5.35-.15-2.1.15 2.1m14.45-.1-.15-2.1.15 2.1"/><path fill-rule="evenodd" d="m109.85 121.9.45-.4.05-.05-.5.45m-.3 4.45-.05-.05-.05-.15.1.2"/><path fill-rule="evenodd" fill="#462200" d="m102.95 133.65 1.8 4.7-2.9-2.85-.05-.95-.1-2.05 2.2-1.85-.95 3m4.45-.8-.4-1.45.75-1.2.9.75-.1 3.55-.3.2-.35.2-.5-2.05"/><path fill-rule="evenodd" fill="#a09263" d="m144.55 190.5.5-.15-.2.35-.3-.2m13.15 8.9-.2.25-.2-.15.4-.1m1.8 5-1.45-.25.1-.45v-.05l.25.1 1.1.65"/><path fill-rule="evenodd" fill="#81784e" d="m161.05 199.45.7.6q1.35 1.25 1.6 1.8l1.75 1.65 2.35 2.45 1.15 1.65 2.95 4.75 1.4 2.85-.2.1q-.45-.05-1.05 1l-.35.15-.35-.95-.1-.25-.5-1.15-.4-.9-1.35-2.6-2.65-3.3-.45-.55-2.75-3.15-2.35-2.95.6-1.2m-30.05.95.15-.1v.35l-.15-.25"/><path fill-rule="evenodd" fill="#a89a6f" d="m160 196.05 2.2 1.1-1.15 2.3-.6 1.2-.45 2.15-.2-.15q-1.15.05-1.65 1v.05l-.1.45 1.45.25 2.3 1.7 1.1 1.4-.4.3q-7.5-2.05-4.1 2.4l-.35.4-3.45-2.9q-2.9-2.85-4.1-3.55l-.85-.15.05-.7q-2.2-.1-1.4.8l-.2.05q-1.8.25-2.3 0-.7-.35-1-1.35l-.15-.95.6-1.6.55-.2 3.35-1.3.35.8.55 1.05q.55 1 1 1.25.9.45 2.5.5 1.7.1 2.2-.5l1.75-2.2.2-.25.4-.5 1.9-2.85m-4.3 8.65 1.65.35q1.5.35-.9-.25l-3.1-.75 2.25.6.05.1q.35.1.05-.05"/><path fill-rule="evenodd" fill="#a19b61" d="m168.95 226.5-1 2.8-.05.05h-1.85l.85-2.45.05-.2.85-2.35 1.25 1.15q.15.45-.25.8l-.15.1.3.1m-2.9 6.8.2.7.05.05v2.35l-.45.4-.95 1-.35.35-.6-1.2.1-1.85.1-.85.05-1.15.75.15.75.2.35-.15m-7.55-.85-1.6 1.6-1.75 1.15-2.3.6.55-2.35 2.35-2.35 1.2-.45.65-.25-.7 1.3 1.6.75m-6.15-1.1-1.3.95-1.75.55-2.35 2.35-.55-1.15.55-2.35 2.95-1.75 1.5-.6.2-.1.05.1v1.75l.7.25m2.5-4.25 3.2-4.05.2-.25 1-1.2q.6.95.65 1.6l-.05.5-.1.2-.05.05-2.15 2.65-1.8 2.15v-1.15l-1.15-.2.25-.3m.75-5.15-6.45 4.4-.15-.6-.25-1.1h-.05l6.95-4.95q.95.6.7 1.1l-.35.85-.4.3m-12.7 8-3.55 2.35.6-2.35 2.9-2.35 1.4-.7.4 1.85v.05l-1.75 1.15m21.5-13.55-1.8-1.7-.1-.1 1.95 1.75-.05.05.05-.05.65.7-.7-.65m-6.25-12.75q.5-.95 1.65-1l.2.15-.15.8.65.8 1.3 1.7-2.3-1.7-1.1-.65-.25-.1m-2.45 1.05-.1-.05-2.25-.6 3.1.75q2.4.6.9.25l-1.65-.35m2.75 5.75-.05-.1-.05-.1.1.05.1.1.95.65-.35.45-.2-.3-.5-.75m4.6 14.25.05-.4-.1-.35v-.05l1.75-.4q.45 1 1.3 1.35l-4.55 4.45-1.55-.5 3.1-4.1"/><path fill-rule="evenodd" fill="#81754e" d="M167.9 229.35h.15v2.95l-2 1-.35.15-.75-.2-1.35-.35-.25-.05v-2.35l1.75-1.15h2.8m-6.7 1.6-.2.75-1.75 1.15-.75-.4-1.6-.75.7-1.3.5-1.05 1.75-.6.1.05 1.55.5.1.05-.4 1.6m-6.55-.2-1.25.95-1.05-.35-.7-.25v-1.75l.05-.15.4-1.65.15-.55 1.4.25.95.15 1.15.2v2.35l-1.1.8M149.3 227q.2 1.35-.55 1.75h-4.1l-.4-1.85-.2-1.05 1.15-1.2h3.55l.25 1.1.3 1.25"/><path fill-rule="evenodd" fill="#b4a881" d="m162.9 207.5.25.35-.65-.05.4-.3"/><path fill-rule="evenodd" fill-opacity=".231" fill="#660" d="m178 127.55 1.8.5q3.6 1.3 4.95 5.3l.1.3-.25-.1-3.4-1.85q-3.1-1.75-4.45-1.15l-1.2.6-.85.4-.35.15-3.15 1.55-2.3 1.05-2.1.15-.1-1.6.15-.8q.15-.65.45-1.15.85-1.35 2.8-2.15l.95-.35 4.55-1.1 2.4.25m-7.9 87.35.25.45-.2-.05-.1-.4-.05-.15.1.15"/><path stroke-width=".05" stroke-opacity=".322" stroke-linejoin="round" stroke-linecap="round" stroke="#600" fill="none" d="m261.8 105.25 4.9-5.85 5.45-1.6 3.95-.05-3.85 3.65 2.5.05 2.35.05M216 83.55q1.05-.45 2.15-.4 1.25.1 2.35.85l.2.15h2.95q.8.05 1.55.4m.1-.35q1.05-.5 2.15-.4 2.15.15 3.9 2.3 1.5 1.9 2.75 5.35l.1.35q1.05 3 1.85 7.15l.8 4.45.4 3.1M220.7 84.15l1.35 1.3q1.5 1.9 2.75 5.4l.35 1.05q.9 2.75 1.6 6.4l.85 5.1q1 7.05 1.1 15.3v2.3q-.05 6-.5 12.6-.55 7.35-1.55 13.9-1.2 7.8-3 14.45l-.5 1.75m7.15-71.8-.3-.7q-1.35-3.65-3.1-5.4-.8-.85-1.7-1.25m-26.85 35.35q1.75-12.75 5.25-22.55 5.05-14.25 10.75-13.85l1.45.35q2.85 1.25 4.95 6.75m-16.25 10.85q4.1-12 8.65-11.65 3.05.25 5.15 6.2.9 2.65 1.65 6.6l.15.8q1.35 7.9 1.3 17.7l-.45 11.2-.65 6.95q-1.25 10.7-3.75 19.05l-1 3.25q-2.5 7.2-5.1 9.95-1.75 1.8-3.55 1.7-2.9-.25-4.9-5.45-.6-1.55-1.05-3.55m-2.95.6.45 2.6q2.8 14.2 8.15 15.15h1.3q5.2-.65 9.9-13.85l.5-1.4 1.15-3.7.55-1.95q3.2-12.05 4.35-27.7.5-6.8.5-12.95v-2.5q-.1-8.15-1.1-15.1l-.85-4.75q-.95-4.8-2.15-8.05m9.55 1.3q1.05 3.1 1.95 7.4l.7 4.1q1.05 7.15 1.2 15.6l.05 2q0 6.45-.55 13.6-.5 6.75-1.35 12.9-1.2 8-3 14.9m3.65.25q1.9-6.95 3.1-15.15.95-6.3 1.45-13.25.45-6.05.5-11.55v-3.5l-.15-5.35-.6-7.35m-32.75-5.05-.1.35.25-.1L218.3 96m-5.8 20.85-2.6 6.2 11.5-1.95m-15.15-3.25 1.15-2.8 6.7-2.1-1.6 3.9 3.1-.45 2-1.7.25-2.25-2.3-2.45-7.75 2.1-3.2 2.15.2 3.5 1.45.1-2.6 6.3-1.8 4.25-.55 1.4h4.25l1.7-.45.7-1.55 1.95-4.75m4.7 12h.9l1.75 1.8-.35 2.15 3.4.25m-5.7-4.2-.3-1.6-1.75.45-2.9-1.15H207l-.4 2.45 2.6 1.05h2.75l1.8-1.2h.85m-.3-1.6.6-.15 1.15-2.9-1.75-1.2.6-2.35-2.35-1.75-1.3 1.95-1.05 1.6-2.95.7m.7-1.55 3.3-.75m3.75 14.1-.7.35-1.75-1.75-3.5-.6-2.85.25-.45 2.65 5.6.95 1.2-.9 2.3.35.15-1.3 1.65-.8.25-1.35m-17.15-2.3 5.2-.45h1.5l.15-1.05m-1.55 11.85.05-.5-5.65-.35.05 1.05 5.55-.2 4-.1.8-.05 2.7.45h3.5v-1.75l.6-2.9-1.8-.25m-5.8 4.35-3.95-.25m.3-2.7h4.8l1.15-.85m-1.5 3.9-.8-.1m-2.6-10.55h2.75m-3.45 5.8-.35 1.8h-9.25l-3.5-2.35-.6 1.2-.3 1.3-.3 1 .1.15.65 1 .45.65 3.5-.6h3.3m29.45 17.5.4-1.3m-69.2-43.6 3.25 1.65.2.15v-.2q.55-1.2 2.15-1.15 1.05.05 4.7 1.2l2.35 3.5.4.6q.95.45 2.5 2.3l2.35.7m1.8.5 2.9-.6q1.25-.4 1.75-1.15h1.75l.8 1 .4-1q.3-.65.9-.55l2 .55.6 1.15v1.75l1.5 2.3.25-.55 1.25-.4-.1-.75 1.2-2.35 2.3 1.55.15-1.6.9-7.5m1.3 4.7q1.45-13.1 4.75-22.8m-40.85 18.8 2.15 2.15 1.25 5.5-.7 1.15 1.05 1.5m2.8-2.15.3-1.3 1.75-2.9.45-.1m.55.1-.55-.1m1.9 7.7.2-.6m.85-.4 1.85-.2 3.55.6 1.15 2.35 1.2 1.15 1.2-.4-.05-.15q-.1-.4.15-.95m-22.4-9.2v1.95l-.85 1.7-1.8 3.6m2.95 2.6.3-.3 1-1.1 1.9-2.6.55-.8m.45 3.45-.4 1.65-1.15 1.85-.6 1.05-1.8 1.65m2.15 3.65.35-.35.45-.45.85-.85 1.5-1.9 1.05-2.1.1-.8-.3-1.95m-6.9.35.5-.45m4.35-2.15-1.15-1.85m8.8 1.95-4.1 5.85-1.3-.95m-6.05 6.9-.75 2.55 1.8 2.85.45-.25 3.05-3-.15-1.1-2.2-2.65m-.35.35-1.55 1.15-.2.1h-.1l-6.4 2.05 1.15 1.8.9-.85m8.9-.85.45-.5.8-2.7-2.3-1.85m2.3 1.85.95.75v1.95q-.55 2.7-1.15 3.5-.65.85-5.3 3.55l-1.4.4h-.05.05q1.35 1.35.45 2.85l-.05.1h.3l3-.25m.15 0 .2-.1.25-.05.05-.05 2.6-1.3h.05l1.35-.7q3-1.5 4.2-1.5 2.2 1.05 3.5 4.1l.95 1.55q.25.5-.35 1.4l-2.95 2.9-.6 2q-.65 2.1-.55 2.7l-.6 2.85-.25.75-.9 2.85.15 1.9q.05 1.1-.75 1.6L166.9 179l-4.1 1.15h-.6l-.15-.05q-2.4 3.85-2.8 5.35l-2.3 5.75 1.15.65 2.9 2.35-1 1.85 2.2 1.1-1.15 2.3.7.6q1.35 1.25 1.6 1.8l1.75 1.65 2.35 2.45 1.15 1.65 2.95 4.75 1.4 2.85.05.15q1.3.15 2.1 1.1l.6.65.2.2.35.95q-.15.5-1.75 1.6l.6 1.9q.05.7-.6 1.15l-.85.3-.9.25q-1.05.25-1.55.95l-.2.25-1.15 1.6-.9.25-1 2.8-.05.05h.15v2.95l-2 1 .2.7.05.05v2.35l-.45.4-.95 1-.35.35-.6-1.2.1-1.85.1-.85.05-1.15-.6-.2-.25-.05v-2.35l1.75-1.15h2.8m-6.7 1.6-.2.75-1.75 1.15-.75-.4-1.6 1.6-1.75 1.15-2.3.6.55-2.35 2.35-2.35 1.2-.45.65-.25-.7 1.3 1.6.75m-3.85-1.7-1.25.95-1.05-.35-1.3.95-1.75.55-2.35 2.35-.55-1.15.55-2.35 2.95-1.75 1.5-.6.2-.1.1-.05.4-1.65.15-.55 1.4.25m1.2-.15 3.2-4.05.2-.25-.05.05-1.2-.5-.1-.05q-.45-.1-.75-.4l-.15-.25-.4.3-6.45 4.4.15.65q.2 1.35-.55 1.75h-1.2m-4.65 1.2-3.55 2.35.6-2.35 2.9-2.35 1.4-.7-.2-1.05 1.15-1.2h3.5l6.95-4.95q-.05-.45 1.25-.9l4.1-1.15 3.4-1.25.05-.05.65.7-.55 1.75-.85.35q-.8.4-.35.85 1 .85 2.95 1.15.75.1 4.1-1.15l2.9.55 1.2-.7m-12.45-5.7H162l-.75-.7-1.6-1.5m-.8-.75-.8-.6-3.45-2.9q-2.9-2.85-4.1-3.55l-.85-.15-1.35.1-.2.05q-1.8.25-2.3 0-.7-.35-1-1.35l-.15-.95.6-1.6-1.45.1-.35-.3-2.35-3.5.1-.35q.6-3.1 1.1-4.35.3-.8 2.25-1.35l.5-.15.75-.15.6-.1.45-.15.2-.3.05-.1.4-.65 4.95-8 .85-1.35-2.45-.25-.9-.3m-.25-.2-.35-.35-.05-.05-1.3-1.75-.75-1q-1.55-2.15-1.45-3.1l.55-2.4-2.3.65q-4.15 1.05-5.3 0-.65-.65-1.65-2.8l-.05-.15-3.55 2.35q-4.2 2.25-5.25 3.5l-1 1.65-.2.7 1.15.6q1.15.65 1.2 1.15l.05 1.7-.05.65-.45.65 3.95 6.95.65 1.65.05.1 3.4.6 1.2 2.95q.05.7-.7 1.2 1.05 1.4.7 2.3l-1.75 1.75-.05.05-2.3 1.15q-.75.25-.75 1.2 0 .65-.45.55l-.8.05-.25.2-5.65 4.3-.35-.15-1.15 2.05-2.35.55v-1.75l1.8-.55.45-.95h.05l6.35-4.6.15-.1.1-.85-.4-.4-.3-.15-.35-.1-1.15.05-.45-.05-6.85 5.25-.55 1.3-1.75 1.15-1.2-1.15 1.8-1.2.8-1.2.1-.2.45-.15 4.05-3.85-5.4 2.9v.2l-.6 1.15-2.35 1.75-.6-1.15 2.35-3.55.55.55 7.4-3.6-1.3-.2-.6-.25-7.3 2.5.25.25-2.5 1.95-1.75.6q-.95.15-.6-.6.35-.8 1.25-1.8l.5-.55.8-.55.2-.05.7-.2 8.15-2.5-.4-.85q-.15-.15.5-.55 1-.7 4.85-1.05l.45-.7-.2-.4-.5-1-.5-.95-4.1-3.5-3.5-2.35h-4.1l-1.75-1.15-.6-2.95 1-2q-.9-.3-1-.9-.1-.8.55-2.55l.65-1.55h3.5l7-3.55 9.35-6.25q.05-2.3 1.8-6.05.45-1.05 1.45-1.95.9-.9 1.5-.95l2.3-.6 1.8-.25h1.65l1.15.2.1.05q1.6.65 2.95 1.75l2.45 3.95q-2.45 1.3-3.05 1.9-.85.8-2.45 5.45l-.1.2-.9 2.8-.1.3m-.05-16.95h-4l-1.2-1.15.55-1.75-2.9-.6v-2.35l.75-1.5-2.5-.85-.5-.65q-.45-.85-.05-1.65l.85-2.95.2-.7-.45.35-.25.2q-1.45 1.15-1.55 1.9l-2.9 9.4q-7.65 3.3-8.8 3.5l-4.2.2-3.3-.1-.7-.1-2.75-.55h-.15l-7.05.55q-3.7-1.3-4.1-1.75-.3-.4 0-2.4l.05-.1q.25-1.9.55-2.2.45-.55 1.4-3.65l.05-.25q-1.7-2.6-2.05-2.55-.3.05-1.4 1.4-.95 1.25-1.55.95-.6-.3-1.4-3.25l-.15-.45-.8-3.3.05-.05 3.1-3.1-.9-.7-.1-.05-.95-.8-.95-1.55-2.55-4.3.55-1.75.15-.35.45-2.6.6-2.95-.35-.15-2-1v-4.1l1.1-1.35 1.7-1.5.1-.4.35-1.25.65-1.75.65-1.5-2.4-2.4-3.9 1.35-.1.05-.65.2-4.7 1.65-3.2 1.1-4.35 1.45-8.5 2.95-12.25 4.15-8.8 3.05-.2.05-6.2 1.8-.95.25q-5.4 1.65-5.75 2.05l-.85.3-5.6.3q-.5 0-7.2-2.4l-5.2-1.9-5.75-2.15.6-1.75-2.95 1.15-4.4-1.7-.75-.35Q.95 113.6.55 112.8L0 111.05l1.05-1.15 6.8-7.15 1.4-1.5.85-.9.4-.4 5.8-1.05 31.5-5.5 11.5-2 16.5-2.9 14.4-2.55.7-2.5.45-1.65 2.35-2.95h4.65q3.75 0 4.1 1.15l3.45 4.4.8-3.3q.8-2.4 1.6-2.25l2.95.6.05.35h.05l1.05-.35.5.2.7-1.4 2.15.55.75-1.1 2.95.55.6 1.75.4.9 3.5-.8.05-.15q.25-.65.65-1.15.55-.65 1.25-1.1.55-.45 1.9-.65 1.7-.2 2.75.65 2.95 2.3 2.95 4.1 0 2.6-.6 4.65-.45 1.55-1.75 2.35l-1.65.4-.7.2 3.55 3.5.9 3.2q1.15.55 2.6 1.5 6.2 4 8.2 7.6l.7 1.3m.1.1.2.4.05.05 1.35 2.3q1.55 2.65 1.7 3.45l.25 2.1 3.85 2.6 1 .6 1.1.85 2.55-.85 1.45.3 1.65.6.4.25-.25-.35-.05-.05-.05-.05h.05l.35.45q1.15 1.6 1.75 2.95v2.15l-3.5-2.15-2.6.85.8 2.05q.3.6 2.2 1.7l.6-.65 1.65 1.85m.65 6.65q.85 1.75.35 3.75l-.55 1.45.95-.8m2.4-2.7q.35-2.25-1.35-3.55m35.75-7.2.1-1m-.15 1.65-.25 2.5v.25l2.6-.6m-2.3-2.8-.05.65m1.8 3.55h-2.8l-.7-.45-.5-.35m1.95 0-1.45.35m-.9 4.55h.45l1.6-.4 1.65-.4 1.4-.35h5m-10.25 2.3.1.1v-.1l.05-1.15h-2.5l-2.25 1.15-.05.05-.85 1.25-.35.5-.6 2.3 1.2.7 1.75-.75v1.25q.1.9 1.15 1.1l.6.05 1.2-.9.4-.3.75-.55h2.05l6.8-.35m-9.45-4.35-3.5.6v3.45m.65-8.55.5 3.35m-9.65-.55.2-.35.65-.85 1.8-1.2-.6-1.75.1-1.05.1-.85m-2.5 7.35q.15.5.65.85l1.05.15q.65-.35 1.75-.6l3.3 1.3m.9-1.3h-.1l-.6-1.75.95-1.8m-5-.55 1.15-1.75m3.2 14.8-1.45-.75v-2.9l1.2-.5m-.95 8.9-.85-.8v-2.35l1.85-.45m7.8-3.6.05-1.8m-2.8.95 2.05.65.7.2-.05 2.3m-.55-7.05 1-.1.85-3.6m-3.75 2.05 1.65 1.7.25-.05.2-3.3m-2.75 7.1.4.1v-.4m-.05 7v-1.1m0 1.1-1.55.05-2.35.6-.2-.2-1.05-.3-.85 1.3-.25.35 1.15 2.95 3.55-1.75h2.55m1.15-.05h.2l.9-.15 5.75-.95v-.05h4.1l2.3 1.8h2.35v-3.55m-15.55-.1-.05-1.05m.8 1.05h-.75l-2.2.05m0-3.45.05-3.15m2.05 3.15v-2.5m-6.45 4.8.25 1.6m6.25 2.5-.2.05h-.95m1.8 5q.3 2.65.75 5.1l.85 3.8m1-8.45-2.6-.45q-.3-2.45-.45-5.05m.9-.15 2.15 5.65 1.1 2.9.85 2.3 7.4 1.9-2.15-5.05-3.6-8.65m8.2 8.7v5.95l-2.05 1.35-10-2.25-.65-1.15-.3-2.55 2.3-.55m-6.45-8.35q.25 7.8 1.4 14.5m-29.4-3.65q.7.3 1.2 1.45l.6 1.45.15.35 1.6 1.1.75.95.35.65.05.75.05 1.6-.15.75-.45.6q-1.1.9-3.55 1.75-1.9.6-3.5 2.35-.6.6-1.65 2.15l-1.8 2.75-.2.3m6.6-16.35 1.4.45.5.2m-1.95-3.25-.2-.1-2.1-.2-1.15.3-.75.2-.35.2-.3.25-.1.05-2.65 2.5q-1.1 1.05-.2 3.2v.05m.05.2.3.65.4.95q.3.65 1.1 1.55m4.35-4.65-.45-.75m.45.75 1.5 2.45m-13.1-10.45-2.2 1.1-.25.1m66.85 22.6q3.8-2.9 7.3-12.75l.7-2 1.1-3.65m2.65 3.6-.6 1.7q-2.1 5.85-4.25 9.25l-5.1 5.05-4.4-.1q1.3-.15 2.6-1.1l-6.8-.2-.7.75-4.4-.1-.85.05-.45-.05m24.95-15.25 1.4-4.65m-16.4-4.35-2.8-.5v.05l-.1-.05-1.05-.7-3.45.7m4.6 0h-.1m8.3 9.65 1.2-3.75m-1.2 3.75-.3.9q-2.1 5.85-4.3 9.25l-4.35 4.3m-9.35-57.75-3.5.6m1.85 43 8.45 3.75m64.3-70.05 1.75 6.25-6.35-.8-4.8.95-4.35-1.65.8-.95m-3.35 27.25 2.8 1.3 2.5 7.15-.45 3.4-.7-.75-1.25-.95-.95-2.8-2.1 5.6q-6.75 1.3-2.6-8.1l2.4-4.55-.05-.2m-2.8-8.75h-.15m7.9 19.65-1.8-5.55m2.1 6.4-.3-.85M109.8 95.85q1.65-.9 3-1.35-3.25-5.6-5.05-8.05l-1.85-2.05m-9.15 1.05-.15-.15h-2.9l-3.5.65m6.55-.5L101.9 90q1.3 1.4 5.4 7.25l.35-.2q1.1-.7 2.15-1.2m3.1-16.2.7.35.6 1.8m1.55-3 .2.05.55 1.15v2.35m2 7.15-6.9-7.5.25 1.55m8.6-2.65-.55.15.15.2 6 7.1 1.6-.15 1.05 1.1.7-.5 1.15-1.75q.35-2.25 0-3.5-.5-1.9-2.3-3.55-1.1-.95-2.4-1.1l-1.2-.1m-22.4 21.85.35-.25 2.8-1.95 1.9-1.2m18.75-8.9-5.3.35-1.3.1-.95.7-1.95 1.35-1.3 3.05 5.45-.15 5.65.7 1.3.2 3.75.75q.85.2 1.85.7m-20.45-1.6 1.4-.4 1.05-.2m-3.95-14.1.3 2.2m9.15 6.7-6.15-7.55m1.95 9.7-7.9-8m20.05 6.45.1.1m16.25 17.6v.1q.4 5.1.15 6.9l-1.75 8.2q-.2.9-1.7 3.2l.35 2.4 1.8-1.45.75-.65 3.5-7.05q.45-1.15.25-3.75m-41.85 2.45q-1.3 2.6-.55 3.65l.3.45q1.1 1.25 2.65.9l.5-.15h.05l.35-.3m.5-.45 3.25-2.8 9.95-4.1 3.45.5.9.1m.15.05h.2l4.1.55 5.85-1.75q1.85-4 1.15-5.3l-1.15-2.9m17.9 17.25-.35-.85-1.3-1-1.05 3.9q-.1 1.3-1.75 1.75h-2.7l.95 1.8.25.9.35 1.4 1-.65.75-.5.5.65q.65.6 1.25.5.9-.15 3.5-1.75l1.75-2.3m-.15-.1.15.05v.05m-4.8-5.7q.35-1.55.15-1.95l-.25-.3m5.7-.15h.05m.35.45h-.05m-31-1.4v7.25q-2.25 3.6-3.5 4.7-.8.65-3.7 1.6l-2.75.75-6.45-1.2-3.45-4.6-.05-.05-.05-.15q-.35-.9-.5-3.05v-.75m20.45-4.5v-.35l-1.15-2.3m9.45 9.8.5-.45 1.35-.3m.8-.15.75-.15q.3 0 .65 1.45m-1.8-1.2.4-.1m-.4.1-.4.05m-7.3 9.35q-.3-1.85.1-2.65.55-1.15 3.25-3.9l2.1-2.05m-6.8 14.05q1.8-.55 2-1.05.15-.4-.45-3.2l-.2-1.2m-28.7 10.75q1.9 2.95 2.45 3 .45.05 1.45-1.85.95-1.85 1.45-1.65l1.75 2.55q1.15 2.2 1.75 2.15l1.85-1.45q1.25-1.4 1.7-1.5.3-.1 2.8 1.35 2.35 1.35 3.05 1 1.2-.65 3.5-7.6l5.6-1.3m10.2 6.9 2.35-.95v-1.75l-1.15-.55q-1.35-.65-1.75-1.2-.3-.35 0-1.15l1.3-4.4-3.65 2.65-.7.45m3.6 6.9v2h1.6q1.1-2 2.5-2.95l3.25-3.2-.9.3h-1.75q-1.8-.15-1.75-.6 0-.45 2.9-2.35 3.25-2.05 6.2-3.65.4-.25.85-.45l.4-.2-.75-1.35-.25.4-.1-.15-1.05-1.6-.75-1.85m-12 15.55 1.05.35.55-.25m12.55-12.45.95-1.35 1.65 1.7 3-1.7.3-.55m-4.6 8.2.2-.05 1.8-1q2.35-1.45 5.05-4.1m-7.6.2 1.85-1m-8.2-7h.9m-.9 0h-1.65l-1.75.6-.75-1.1m-1.8 1.45.2 1.65.15 2.1 5.6-4.7m-5.75 8.8-.45.3m.6-.75-.05.2-.1.25m.15-.45q.2-1 0-3.65m7.7-2-7.7 5.65m2.55 12.75h-2.3m10.35-7.55-6.1 5.2-1.15 1.2-.8 1.15h.8l-.6 1.15-.7.25q.05.65.7.95l3.55 1.15-1.2 1.75h-1.25m10.35-7.2-.9.2h-4.1l-1.75-1.75 3.55-.75 4.2-1.15q-1.4-1.4-.7-3.8m.7 3.8 1.05-.45 3.1-2.25m-6.85-.05-1.9.6-4.6 1.4m-46.8-40.7.6-.45m-3.7 3.4-.9 1.6m9.55 10.5 1-1.6m-1 1.6-.65 1.2M103 123l-.05.65-.5 4.4q-.1.65-1.75 1.15h-3.5l-2.7-4.8-.1-.2m8.45-1.85.05.15.15.25-.05.25m-.35-1-1.95-2.75q-.8-.8-2.5-1.35l-1.6-.4-.95.65-.4.25m15.1 3.05-.5.45m-11.3-17.85 1-1.2 2.1-1.75-5.7 1.9-.7.25m-.15 15.25.15-.1m4.3 14.9-.4.4m3.8-.05 1.8 4.7-2.9-2.85-.05-.95-.1-2.05 2.2-1.85-.95 3m4.45-.8-.4-1.45.75-1.2.9.75-.1 3.55-.3.2-.35.2-.5-2.05m-4.05 11.2.2.3m15.15 8.05 2.5.25m-2.5-.25-2.75.25-3.35 1.2m14.35 28.6-1.05.05q-2.9-.45-4.7-1.75-.7-.5-1.5-2.05l-.6-1.15q-1.45.9-2 .85l-1.35-.25m3.35-.6-.25-.9m.6 6.45 1.75 1.15m40.7-31.2-2.65.75-1.75-.3q-1.15 1.4.1 3.75l1.1-.5q.95-.6 3.65-.75m-5.05-5.7h1.4l5.4-.95m-6.6 4.15-1.75-.3-2.35-1.75.6-1.15h3.3l.5-2.5m-2.4 10.5 2.2-1.05m3.15 12.2-.3.75-.15.1-.45.5m-.75.75-1 1-1.3 1.7m-1.9 2.8-1.55 2.4-.05.1m7.45-10.1.4-1m-2.05 3.1.25-.2.35-.4m-18.05-20.65h.05l2.8-.95m-7.45 18.5q-1.05-2.2-1.2-3.5-.1-.5-.05-1m-7.55 20.9 3.25 3.3-3.3-5.9q-.65.6-1.25.8l1.3 1.8m.7-3.45-.75.85m-3.3 14.9-.2-.6-.1-.35m.85 3.15 2.25-1.2-.65-.4-.25-.15m1.8 1.8-.35-.5-.3-.65-.25-.1m1.85-4.4-.75 1.05 1.2.6h5.85l1.65-.55m-3.9-4.75-.15-.05-2.9-.5m.95-1.4 1.95 1.9m21.45-12.4 1.9-2.8m-9.9 15.7.85-.3m-.7 0-.15.3h-.05m1.5 5.45-.3-.85-.45-1.2m1.55 5.4-.4-1h-2.35m5.5-4.05-.85 1.05m5.9-3.55-1.8-1.1M121.1 176l2.45-1.3m36.9 25.95.6-1.2M160 202.8l.45-2.15 2.35 2.95 2.75 3.15.45.55 2.65 3.3 1.35 2.6.4.9.5 1.15.1.25.35.95v.05l-.85-.55m1.2.35q.6-1.05 1.05-1m-15.05-15.9.4-.5 1.9-2.85m-2.5 3.6.2-.25m-.2.25-1.75 2.2q-.5.6-2.2.5-1.6-.05-2.5-.5-.45-.25-1-1.25l-.55-1.05-.35-.8-3.35 1.3-.55.2M160 202.8l-.15.8.65.8m1.3 1.7-1.3-1.7m-1.25 7.2.4.35m-.4-.35-.4-.4M156 221.65l.35-.85q.25-.5-.7-1.1m-23.55-18.4-.35.05q-.45.1-.6-.7v-.35m-5.3 5.35-1.2-.65M162 224.75q-1.8 0-2.15-.65l-.1-.2-.05.05-2.15 2.65-1.8 2.15v-1.15l-1.15-.2-.95-.15m8.35-2.5 1.05-.05.05-.4-.1-.35v-.05l1.75-.4q.45 1 1.3 1.35l.85.4q.35.2.9-.9l1.25 1.15q.15.45-.25.8m.15.2-.3-.1.15-.1m-10.55-3.5 1-1.2q.6.95.65 1.6l-.05.5-.1.2m-2.15 6.5.5-1.05 1.75-.6.1.05 3.1-4.1m-8.45 2.7.25-.3m.9 1.65v1.2l-1.1.8m6.85-1.45.1.05-.4 1.6m.3-1.65-1.55-.5m-10.8-2.45-.15-.6-.25-1.1h-.05m-3.95 4.1-.1.05-1.75 1.15m1.75-1.2h2.9m-2.9 0-.4-1.85m7.4 2.45.05-.15m-.05.15v1.75l.7.25m-34.75-32.3-1.1-.75h-.75m3.65 2.3.65.65v.4m.8 1.3.2-.05-.05-.05-.05-.1m.1.15.7 1.15m41.4 3.8-.25-.35-1.1-1.4m1.35 1.75.8 1 2 2.2m1.15 1.3 1 1.1m1.4 1.5-.65-.7-.75-.8m1.4 1.5.3.35.7.65m.85.55.35-.2m-7.25.05-1.95-1.75-.45-.45m5.05-1.8-1.15-1.3m7.05 4.3-.25-.05m-5.8 11.4-.05.2-.85 2.45m0 3.95-.35.15-.75-.2-.75-.15m3.6-8.75-.85 2.35m-6.05-80.5 1.4.3m3.75 78.35-4.55 4.45"/><path stroke-width="2" stroke-linejoin="round" stroke-linecap="round" stroke="#48412b" fill="none" d="m237.25 106.5 11.05-3.45m13.5 2.2-23.95 8.6m20.2 18.75-2.8-8.75m-.15 0L238 122.7"/><path stroke-width="2" stroke-opacity=".561" stroke-linejoin="round" stroke-linecap="round" stroke="#fff" fill="none" d="m100.4 125.45.15 2.1m14.3-2.2.15 2.1"/></g><path fill-rule="evenodd" fill-opacity="0" fill="#f0f" d="M0 0h102.95v45H0V0" id="c"/><use xlink:href="#c" width="102.95" height="45" id="f"/></defs><path fill="none" d="M-1-1h565v332H-1z"/><g transform="scale(2)"><use x="138.05" y="149" xlink:href="#d" width="381" transform="translate(-192.55 -294)" height="381"/><use x="138.05" y="149" xlink:href="#e" width="278.5" transform="translate(-136.9 -224.95)" height="239.5"/><use x="-29.88" y="-87.375" xlink:href="#f" width="102.95" transform="matrix(1.8072 0 0 1.6538 57 165.3)" height="45"/></g></svg>