<svg width="398" height="406" xmlns="http://www.w3.org/2000/svg" xmlns:xlink="http://www.w3.org/1999/xlink"><defs><use xlink:href="#a" width="172" height="175.5" id="d"/><use xlink:href="#b" width="102.95" height="45" id="e"/><g id="c" stroke-opacity="0" stroke-linejoin="round" stroke-linecap="round" stroke="#f0f" fill="none"><path d="M187.95-293.5v380h-380v-380h380M92.95.6H-97" transform="translate(192.55 294)"/><path d="m187.95-293.5-190 190 190 190m-380-380 190 190L-192 86.5" transform="translate(192.55 294)"/></g><g id="a"><path fill-rule="evenodd" d="M24.9-56.35 26.95-52q2.6 6.05 4.05 12 2.1 8.5 1.75 16.75l1.1 1.3-.05.1h.15l2.35 7.5q2.6-2.2 5.9-4.45 3.85-1.15 9.3.8l1.75 2.1q1.4 2.65 2.15 5.3.6 2.05.8 4.1.5 4.6.25 9.55L60 5.85l3.7-4.8L64.85.8l3 .1 4.9 7.65L75 19.1l4.25 9.8.05.2q4.55 8.9 3.85 21.65-.95 2-5.55 4.8-7.15 5.7-17.15 8.05l-2-.05q-7.65-.4-14.1-4-2.15-1.6 0-3.2l7.55-3.85 1.35-2.75q.05-1.05-4.2-3.65l-.4-.2-.05-.05q-1.65-1-3.9-2.2l-11.9.4q-2.15.4-4.35 1.15l-2.65.1-.05-.4-2.05 1.7-2.85 4.55.1 5.95-.85 1.95 1.65 5.5q.1 2.85-1.25 5.05-1.15.3-2.2.85-1.85.9-3.35 2.4l-3.4 7.45-4.45 2.75-3.45 1.15-4.95.8-1.1-3.1.1-.4-.4-.2-.4.85-6.1.75-1.15-1.65.4-4.2-1.05 2.2-4.8 2.25-2.7-4.5.45-1.45-1.65-2.85 1.1-6.2 5.55-4.85.6-1.8-.65-1.2-.4-1-4.75.1q-11.35 0-20.55-2-8.4-1.9-14.9-5.35l-14.7 2.85-4.4-2.15-6.15 1.65-3.1-.8.95-2-2-1.15-.15-1.95 2.55-3.95.7-7.05 3.9-2.75 1.95-3 1.6-.3-.15-.4-.35-.8-.6-1.65-2-.95q-3.15-4.1-3.55-8.95.95-4.45 2.65-8.6l.1-3.55.15-1.6.5-4.6.3-1.85 1.05-6.5.05-.1q2.25-11.15 6.5-20.05l6.2-2.8-2.15-1.35q-5.8-3.8-9.85-8.95l-.75-.95q-1.7-8.2.45-14.45l1.6-3.5q4.6-2.8 9.75-2.8l3.65-1.85q1.65-1.55 3.4-2.9 4.2-3.45 9.05-6.05 2.45-1.35 5.1-2.5 23.4-10 40.35-5.95l1.35.35Q8.5-80.9 16-71q3.7 4.8 7.25 11.45l1.65 3.2M-9.55 73.95l-.1.15v.1l.1-.25M-65.7-62.7l.3-.5-.85.45.55.05" transform="translate(86 87.75)"/><path stroke-width="5.5" stroke-linejoin="round" stroke-linecap="round" stroke="#3c2113" fill="none" d="m110.9 31.4 2.05 4.35q2.6 6.05 4.05 12 2.1 8.5 1.75 16.75l1.1 1.3-.05.1h.15l2.35 7.5q2.6-2.2 5.9-4.45 3.85-1.15 9.3.8l1.75 2.1q1.4 2.65 2.15 5.3.6 2.05.8 4.1.5 4.6.25 9.55l3.55 2.8 3.7-4.8 1.15-.25 3 .1 4.9 7.65 2.25 10.55 4.25 9.8.05.2q4.55 8.9 3.85 21.65-.95 2-5.55 4.8-7.15 5.7-17.15 8.05l-2-.05q-7.65-.4-14.1-4-2.15-1.6 0-3.2l7.55-3.85 1.35-2.75q.05-1.05-4.2-3.65l-.4-.2-.05-.05q-1.65-1-3.9-2.2l-11.9.4q-2.15.4-4.35 1.15l-2.65.1-.05-.4-2.05 1.7-2.85 4.55.1 5.95-.85 1.95 1.65 5.5q.1 2.85-1.25 5.05-1.15.3-2.2.85-1.85.9-3.35 2.4l-3.4 7.45-4.45 2.75-3.45 1.15-4.95.8-1.1-3.1.1-.4-.4-.2-.4.85-6.1.75-1.15-1.65.4-4.2L75 167l-4.8 2.25-2.7-4.5.45-1.45-1.65-2.85 1.1-6.2 5.55-4.85.6-1.8-.65-1.2-.4-1-4.75.1q-11.35 0-20.55-2-8.4-1.9-14.9-5.35L17.6 141l-4.4-2.15-6.15 1.65-3.1-.8.95-2-2-1.15-.15-1.95 2.55-3.95.7-7.05 3.9-2.75 1.95-3 1.6-.3-.15-.4-.35-.8-.6-1.65-2-.95q-3.15-4.1-3.55-8.95.95-4.45 2.65-8.6l.1-3.55.15-1.6.5-4.6.3-1.85 1.05-6.5.05-.1q2.25-11.15 6.5-20.05l6.2-2.8-2.15-1.35q-5.8-3.8-9.85-8.95l-.75-.95q-1.7-8.2.45-14.45l1.6-3.5q4.6-2.8 9.75-2.8L27 21.3q1.65-1.55 3.4-2.9 4.2-3.45 9.05-6.05 2.45-1.35 5.1-2.5 23.4-10 40.35-5.95l1.35.35q8.25 2.6 15.75 12.5 3.7 4.8 7.25 11.45l1.65 3.2m-90.6-6.35-.55-.05.85-.45-.3.5M76.45 161.7l-.1.25v-.1l.1-.15"/><path fill-rule="evenodd" fill="#ac8d46" d="M29.5-.5q-2.15-3.15-.95-6.3l1.6-1.2q4.1-5.4 12.05-10.8 3.85-1.15 9.3.8l1.75 2.1q-5.55-3.6-12.9 2.7Q32.95-6.9 29.5-.5" transform="translate(86 87.75)"/><path fill-rule="evenodd" fill="#630a0a" d="m30.15-8-1.6 1.2q-1.2 3.15.95 6.3l-.05.2-3.85-1.3-4.4-1.3v-8.65q2.25 1.05 4.4 2.7l1.65 1.35 2.9-.5" transform="translate(86 87.75)"/><path fill-rule="evenodd" fill="#9a6f3a" d="M29.5-.5q3.45-6.4 10.85-12.7 7.35-6.3 12.9-2.7 1.4 2.65 2.15 5.3.6 2.05.8 4.1.5 4.6.25 9.55l-.3 3.55-12.6-.9-3.8-1.65L29.5-.5" transform="translate(86 87.75)"/><path fill-rule="evenodd" fill="#43582c" d="m21.2-2.9 4.4 1.3 3.85 1.3.05-.2 10.25 4.55 3.8 1.65 12.6.9.3-3.55L60 5.85l-.7 5.55.7 2.5q-3.9-2.15-8.75 2.2-6 6.6-5.55 12 5.9 3.5 10.45 14.15l-.1 1.5-.15.6-1.15 2.4q-.15-2.85-4.3-5.6l-.65-.45q-.85-.6-1.7-1.05l-.25-.15q-6.2-3.5-12.6-3.7l-3 .75q-3.95 1-6.4 2.4l-.5 2.1q-1.5 2.55-4.15 4.5V-2.9m3.45 20.25.45.5.3.7.2.5q1.8 4.65 1.45 9.7l-2.4 4.3-.55-2.8.55 2.8 2.4-4.3q.35-5.05-1.45-9.7l-.2-.5-.3-.7-.45-.5m1.2 21.6-1.2-5.9 1.2 5.9" transform="translate(86 87.75)"/><path fill-rule="evenodd" fill="#946334" d="m25.35 41.05.5-2.1q2.45-1.4 6.4-2.4 1.9 3 1.05 5.7l-.5 1.8.5-1.8q.85-2.7-1.05-5.7l3-.75q6.4.2 12.6 3.7l.25.15q.85.45 1.7 1.05l.65.45q4.15 2.75 4.3 5.6l-1.5 3q.05-1.05-4.2-3.65l-.4-.2-.05-.05q-1.65-1-3.9-2.2l-11.9.4q-2.15.4-4.35 1.15l-2.65.1-.45-4.25m23.25 4.8q-.95-.6-.6-2.4.35-1.9 1.8-2.75-1.45.85-1.8 2.75-.35 1.8.6 2.4" transform="translate(86 87.75)"/><path fill-rule="evenodd" fill="#75a44f" d="m54.75 46.75 1.15-2.4.15-.6.1-1.5Q51.6 31.6 45.7 28.1q-.45-5.4 5.55-12 4.85-4.35 8.75-2.2l1 3.6 6.65 7.5q3.9-1.1 6.4-1.2l1.5 1.3q3 4.25 4.05 8.5.3 4.25-2.1 9.9Q70.75 59.7 60.3 63l-1.85.55q-7.65-.4-14.1-4-2.15-1.6 0-3.2l7.55-3.85 1.35-2.75 1.5-3m24.5-17.85.05.2-.05-.05v-.15" transform="translate(86 87.75)"/><path fill-rule="evenodd" fill="#c8ac80" d="m60 13.9-.7-2.5.7-5.55 3.7-4.8L64.85.8l2.3 7.3.5 16.9L61 17.5l-1-3.6" transform="translate(86 87.75)"/><path fill-rule="evenodd" fill="#f8ebcf" d="m64.85.8 3 .1 4.9 7.65L75 19.1l.5 4.7h-1.45q-2.5.1-6.4 1.2l-.5-16.9-2.3-7.3" transform="translate(86 87.75)"/><path fill-rule="evenodd" fill="#497430" d="m75 19.1 4.25 9.8v.15l.05.05q4.55 8.9 3.85 21.65-.95 2-5.55 4.8-7.15 5.7-17.15 8.05l-2-.05L60.3 63q10.45-3.3 17.2-19.5 2.4-5.65 2.1-9.9-1.05-4.25-4.05-8.5l-1.5-1.3h1.45l-.5-4.7" transform="translate(86 87.75)"/><path stroke-opacity=".38" stroke-linejoin="round" stroke-linecap="round" stroke="#000" fill="none" d="m30.15-8-1.6 1.2q-1.2 3.15.95 6.3l10.25 4.55 3.8 1.65 12.6.9.3-3.55q.25-4.95-.25-9.55-.2-2.05-.8-4.1-.75-2.65-2.15-5.3L51.5-18q-5.45-1.95-9.3-.8Q34.25-13.4 30.15-8l-2.9.5-1.65-1.35q-2.15-1.65-4.4-2.7m2.9 41.8.55 2.8 2.4-4.3q.35-5.05-1.45-9.7l-.2-.5-.3-.7-.45-.5m7.6 19.2q-3.95 1-6.4 2.4l-.5 2.1.45 4.25 2.65-.1q2.2-.75 4.35-1.15l.5-1.8q.85-2.7-1.05-5.7l3-.75q6.4.2 12.6 3.7m.25.15q.85.45 1.7 1.05l.65.45q4.15 2.75 4.3 5.6l1.15-2.4.15-.6M60 13.9l-.7-2.5.7-5.55-3.55-2.8m-31.8 30 1.2 5.9M49.8 40.7q-1.45.85-1.8 2.75-.35 1.8.6 2.4l.05.05.4.2q4.25 2.6 4.2 3.65l1.5-3m-6.15-.9q-1.65-1-3.9-2.2l-11.9.4m25.65 19.5q-7.65-.4-14.1-4-2.15-1.6 0-3.2l7.55-3.85 1.35-2.75m-27.9-8.7q-1.5 2.55-4.15 4.5M67.65 25 61 17.5l-1-3.6m0-8.05 3.7-4.8L64.85.8l3 .1 4.9 7.65L75 19.1l4.25 9.8.05.2q4.55 8.9 3.85 21.65-.95 2-5.55 4.8-7.15 5.7-17.15 8.05l-2-.05m15.6-39.75q-2.5.1-6.4 1.2M75 19.1l.5 4.7h-1.45" transform="translate(86 87.75)"/><path fill-rule="evenodd" fill="#e8d7b7" d="M-63.25-6.75q2.2-3.05 4.8-5.6l3.85 47.95-2.45-1.05q-2.35-2-5.35-3.35-7.7-6.1-9.5-16.85.25-3.9 1.6-7.55 2.75-7.65 7.05-13.55" transform="translate(86 87.75)"/><path fill-rule="evenodd" fill="#43582c" d="M-63.25-6.75q-4.3 5.9-7.05 13.55-1.35 3.65-1.6 7.55-.4 7 2.8 14.75l-6.55-3.1q-3.15-4.1-3.55-8.95 2.25-10.5 8.7-19.5 3.5-3.3 7.25-4.3m13.3 35.05 10.5 19.35-28.95 5.6-4.4-2.15 1.7-.45 2.25 1.4 2.05-3.6-3.05-8.9-2.55.3-.35-3.9-1.4.8-.35-4.7-.7-.3 1.05-1.65 5.05-.95q3.65.7 6.7 2.05 2.35 1.9 5.35 3.35l1.6 1.55q4.85 5.2 5.5-7.8" transform="translate(86 87.75)"/><path fill-rule="evenodd" fill="#d0b792" d="M-71.9 14.35q1.8 10.75 9.5 16.85-3.05-1.35-6.7-2.05v-.05q-3.2-7.75-2.8-14.75m14.85 20.2 2.45 1.05 4.65-7.3q-.65 13-5.5 7.8l-1.6-1.55" transform="translate(86 87.75)"/><path fill-rule="evenodd" fill="#497430" d="m-76.1 33.1.9-1.35.7.3-1.6 1.05" transform="translate(86 87.75)"/><path fill-rule="evenodd" fill="#946334" d="m-80.7 42.9.7-7.05 3.9-2.75 1.6-1.05.35 4.7-4 2.25-2.55 3.9" transform="translate(86 87.75)"/><path fill-rule="evenodd" fill="#9a6f3a" d="m-72.8 51.1-6.15 1.65-3.1-.8.95-2-2-1.15-.15-1.95 2.55-3.95 2.55-3.9 4-2.25 1.4-.8.35 3.9 2.55-.3 3.05 8.9-2.05 3.6-2.25-1.4-1.7.45m.4-11.25-6.15 4.45-2.55 5.65 2.55-5.65 6.15-4.45" transform="translate(86 87.75)"/><path fill-rule="evenodd" fill="#a20d0d" d="M-62.4 31.2q3 1.35 5.35 3.35-3-1.45-5.35-3.35" transform="translate(86 87.75)"/><path stroke-opacity=".38" stroke-linejoin="round" stroke-linecap="round" stroke="#000" fill="none" d="M-58.45-12.35q-2.6 2.55-4.8 5.6-4.3 5.9-7.05 13.55-1.35 3.65-1.6 7.55 1.8 10.75 9.5 16.85 3 1.35 5.35 3.35l2.45 1.05m15.15 12.05-28.95 5.6-4.4-2.15-6.15 1.65-3.1-.8.95-2-2-1.15-.15-1.95 2.55-3.95.7-7.05 3.9-2.75.9-1.35 1.05-1.65 5.05-.95v-.05l-6.55-3.1q-3.15-4.1-3.55-8.95 2.25-10.5 8.7-19.5 3.5-3.3 7.25-4.3m13.3 35.05q-.65 13-5.5 7.8l-1.6-1.55q-3-1.45-5.35-3.35-3.05-1.35-6.7-2.05m-5.4 2.9.35 4.7 1.4-.8.35 3.9 2.55-.3 3.05 8.9-2.05 3.6-2.25-1.4-1.7.45m-1.7-19.05-1.6 1.05m-4.6 9.8 2.55-3.9 4-2.25m2.25-22.4q-.4 7 2.8 14.75m-12 20.85 2.55-5.65 6.15-4.45" transform="translate(86 87.75)"/><path fill-rule="evenodd" d="m-2.9-6-14.7-.95-15.95-5.85-9.2 3.45-.65.35-.6.35.05.05-20.85-8.05-.75-.3-.8-4.4-1.55-8.45 17.3-7.85 10.55-11.15 30.5 6.6L7.3-35.15l12.55-3.45 14 16.65-.05.1-11.55-3.4-7.6 10.85L-2.9-6m-1.9 48.95L-4.9 39v-2.45q4.3-3.5 7.5-6.7L7 24.8q3-.45 5.3-1.35l1.95-1.05.35-.2v-.25q0-.1-.1.05h-.2.2l-.25.35.05-.35q-.25-.3-1.95.4l1.45-1.5q.4-.45-.35-1.15 1-1.1 2.35-1.95 1.05-.7 2.3-1.2 1.95-.75 3.95-.85 4.95-.5 9.65 2.7 4 5.5 2.7 10.95l-.85 2.3Q24.5 52.9-3.9 54.45l-.15-1.7q-.65-5.05-.75-9.8" transform="translate(86 87.75)"/><path fill-rule="evenodd" fill="#d3bd98" d="m-33.55-12.8 15.95 5.85L-2.9-6l-7.9 9.85-8.95 3-8.1-5.25.1-9.35-5.8-5.05M-72.7 29.4l-.35-.8q-4.1-10.45-3.4-23.7l.15-1.6.5-4.6.3-1.85 1.05-6.5h.05l3.45.25q-.95 4.1-1.4 8.85-.5 5.05-.4 9.6l.05 1.35.15-1.4Q-70.6-3.75-68.2-8.65q8.15 2.9 16 13.9 4.05 4.85 8.25 12.55 12.8 21.95 35.1 17.3-1.35 3.3-1.8 6.6Q-22 45.55-32.1 45.55q-23.6 0-40.3-16.3l-.3.15" transform="translate(86 87.75)"/><path fill-rule="evenodd" fill="#f8ebcf" d="m-2.9-6 17.55-8.4Q17.3-8.55 16.7 2.3l-1.05 10.5v4.65Q-.4 18.95-8.85 35.1q-22.3 4.65-35.1-17.3-4.2-7.7-8.25-12.55-7.85-11-16-13.9.95-4.3 3.4-8l20.85 8.05.55-.4.65-.35 9.2-3.45 5.8 5.05-.1 9.35 8.1 5.25 8.95-3L-2.9-6m-65-23.8 1.55 8.45q-3 5.15-4.6 11.95l-3.45-.25v-.1q2.25-11.15 6.5-20.05m101.7 7.95h.15q3.2 8.75 4.5 18.7L38.8.6l.3 7.25-.85-10.75-.95-5.95q-1.25-6.85-3.5-13M-57.8-5.1h4.7l9.15-3.5-9.15 3.5h-4.7" transform="translate(86 87.75)"/><path fill-rule="evenodd" fill="#e0c292" d="m14.65-14.4 7.6-10.85 11.55 3.4q2.25 6.15 3.5 13l.95 5.95.85 10.75-.5 10.2q-3.55-11.2-16.55-2.3-2 .1-3.95.85-1.25.5-2.3 1.2l-.15-.35V12.8L16.7 2.3q.6-10.85-2.05-16.7M-38.8 55.75q-17.35-3.9-26.75-14.6 14.65 12.45 39.65 7.5 10.95-2.5 21.1-5.7.1 4.75.75 9.8-10.9 4.35-34.75 3" transform="translate(86 87.75)"/><path fill-rule="evenodd" fill="#473932" d="m-43.95-8.6-.05-.05.6-.35-.55.4m-30.5-1.05.05-.1v.1h-.05" transform="translate(86 87.75)"/><path fill-rule="evenodd" fill="#ffffe6" d="m-66.35-21.35.8 4.4.75.3q-2.45 3.7-3.4 8l-2.75-.75q1.6-6.8 4.6-11.95" transform="translate(86 87.75)"/><path fill-rule="evenodd" fill="#f4e7b9" d="m-70.95-9.4 2.75.75Q-70.6-3.75-72.55 9l-.2.05q-.1-4.55.4-9.6.45-4.75 1.4-8.85" transform="translate(86 87.75)"/><path fill-rule="evenodd" fill="#f4e071" d="m-72.55 9-.15 1.4-.05-1.35.2-.05" transform="translate(86 87.75)"/><path fill-rule="evenodd" fill="#ab8558" d="m38.6 18.05-1.2 6.3q-1 4.25-2.55 7.95-2.15 4.75-5.2 8.75-11.1 12.7-33.1 16l-.1-.2-14.7.9q-11.35 0-20.55-2 23.85 1.35 34.75-3l.15 1.7Q24.5 52.9 33.55 31.7l.85-2.3q1.3-5.45-2.7-10.95-4.7-3.2-9.65-2.7 13-8.9 16.55 2.3m-104.15 23.1-.9-1.2q-3.9-4.85-6.25-10.55l.3-.15q16.7 16.3 40.3 16.3 10.1 0 21.45-3.85.45-3.3 1.8-6.6 4.5-1.4 11.45-5.25-3.2 3.2-7.5 6.7V39l.1 3.95q-10.15 3.2-21.1 5.7-25 4.95-39.65-7.5" transform="translate(86 87.75)"/><path fill-rule="evenodd" fill="#1c1813" d="M-8.85 35.1q8.45-16.15 24.5-17.65l.15.35q-1.35.85-2.35 1.95.75.7.35 1.15l-1.45 1.5q1.7-.7 1.95-.4h-.05l-.15.05-1.8 1.4q-2.3.9-5.3 1.35l-4.4 5.05Q-4.35 33.7-8.85 35.1M14.1 22.05l-1.75.35q-.8-1.05 1.1-2.65-1.9 1.6-1.1 2.65l1.75-.35" transform="translate(86 87.75)"/><path fill-rule="evenodd" fill="#e07e1f" d="M14.5 22q.1-.15.1-.05v.25l-.35.2-1.95 1.05 1.8-1.4.15-.05h.05l-.05.35.25-.35h.1-.1" transform="translate(86 87.75)"/><path fill-rule="evenodd" fill-opacity=".302" fill="#63562e" d="m-3.45 57.05-.7.15q.2-.2.6-.35l.1.2" transform="translate(86 87.75)"/><path stroke-opacity=".38" stroke-linejoin="round" stroke-linecap="round" stroke="#000" fill="none" d="m-33.55-12.8 15.95 5.85L-2.9-6m-30.65-6.8 5.8 5.05-.1 9.35 8.1 5.25 8.95-3L-2.9-6m-41.05-2.6-9.15 3.5h-4.7" transform="translate(86 87.75)"/><path stroke-width=".05" stroke-linejoin="round" stroke-linecap="round" stroke="#53472d" fill="none" d="m83.1 81.75 17.55-8.4 7.6-10.85 11.55 3.4h.15q3.2 8.75 4.5 18.7l.35 3.75.3 7.25-.5 10.2-1.2 6.3q-1 4.25-2.55 7.95-2.15 4.75-5.2 8.75-11.1 12.7-33.1 16l-.7.15q.2-.2.6-.35l-14.7.9q-11.35 0-20.55-2-17.35-3.9-26.75-14.6l-.9-1.2q-3.9-4.85-6.25-10.55l-.35-.8q-4.1-10.45-3.4-23.7l.15-1.6.5-4.6.3-1.85 1.05-6.5.05-.1q2.25-11.15 6.5-20.05l1.55 8.45.8 4.4.75.3 20.85 8.05-.05-.05.6-.35.65-.35 9.2-3.45m67.4-9.15-14-16.65m14.1 16.75-.1-.1m5.25 29.8-.85-10.75-.95-5.95q-1.25-6.85-3.5-13m-37.25 78.9-.1-.2"/><path stroke-width=".05" stroke-linejoin="round" stroke-linecap="round" stroke="#33291c" fill="none" d="M105.85 49.15 93.3 52.6l-16.85-7.05-30.5-6.6L35.4 50.1l-17.3 7.85"/><path stroke-width=".05" stroke-linejoin="round" stroke-linecap="round" stroke="#1c1813" fill="none" d="m42.6 78.75-.55.4"/><path stroke-width=".05" stroke-linejoin="round" stroke-linecap="round" stroke="#483a24" fill="none" d="m81.2 130.7-.1-3.95v-2.45q4.3-3.5 7.5-6.7m29.1-11.4q-4.7-3.2-9.65-2.7-2 .1-3.95.85-1.25.5-2.3 1.2-1.35.85-2.35 1.95-1.9 1.6-1.1 2.65l1.75-.35m.2-.05h.2m.1 0v.2l-.35.2-1.95 1.05q-2.3.9-5.3 1.35l-4.4 5.05m11.7-7.85h-.05l-.15.05m.5-.05h-.1M81.95 140.5l.15 1.7m-.9-11.5q.1 4.75.75 9.8"/><path fill-rule="evenodd" d="M-45.7-19.5q-1.7.4-2.75-.55-2.3-3.85-.55-6.55l4.25 6.35-.95.75m22.6-5.3q1.35 2.9-1.4 6.35-1.3.85-2.85.2l-.9-.9 5.15-5.65" transform="translate(86 87.75)"/><path fill-rule="evenodd" fill="#ceb579" d="m-45.7-19.5-2.1 1.75q-3.6-3.55-5.25-4.35-2.3-3.7 2.3-8.1l1.75 3.6q-1.75 2.7.55 6.55 1.05.95 2.75.55m22.6-5.3 2.3-3.4q3.85 5 1.1 8.4-1.75.5-5.9 3.55l-1.75-2q1.55.65 2.85-.2 2.75-3.45 1.4-6.35" transform="translate(86 87.75)"/><path fill-rule="evenodd" fill="#ab8558" d="m23.25-59.55 1.65 3.2L26.95-52q2.6 6.05 4.05 12-5.9 4.15-19.2 1.1.55-14.5-.1-21.85 6.5-3.2 11.55 1.2m-78.85-9.8q4.2-3.45 9.05-6.05-.85.6 1.45 2.95-1.8.75-8.1 6.95l-2.4-3.85" transform="translate(86 87.75)"/><path fill-rule="evenodd" fill="#f8ebcf" d="m10.3-26.2-16.7 3.95-11.7-9.05-2.6-8.2-7.45-5.15-2.65-6.65-7.8-.4-5.15 7.05-4.75 3.8-5.9-5.05-5.75-5-1.95-1.65.25-2.95 3.9-4.45 1.5-1.75-4.75-.5 4.75.5-1.5 1.75-11.3-1.2 3.1-1.35.45-.2 4.5.5.2-2.3 2-1.95q1.65-1.55 3.4-2.9l2.4 3.85q-1.15 1.1-2.05 2.6-1.3 4.75 2.4 4.9l5.6-2.9q29.15 17.25 59.05 22l-1.5 12.7m-56.85-49.2q2.45-1.35 5.1-2.5 23.4-10 40.35-5.95l1.35.35-1.35-.3v-.05.05q7.65 4.4 11.5 16 .75 2.35 1.3 7.05-16.9 8.55-45.6-5.55 15.85-7.45 18.8-9.15 2.95-1.65-.65-5.15Q-26.7-85-45.1-72.45q-2.3-2.35-1.45-2.95m43.8-5.55q0-1.2-1.45-2.05-1.45-.85-3.5-.85t-3.5.85q-1.45.85-1.45 2.05 0 1.2 1.7 1.7l3.6.7q1.9.25 3.25-.45 1.35-.75 1.35-1.95" transform="translate(86 87.75)"/><path fill-rule="evenodd" fill="#e0c292" d="M31-40q2.15 8.75 1.75 17.2L20.3-30.55l-10 4.35 1.5-12.7Q25.1-35.85 31-40M.25-83.5Q8.5-80.9 16-71q3.7 4.8 7.25 11.45-5.05-4.4-11.55-1.2-.55-4.7-1.3-7.05-3.85-11.6-11.5-16l1.35.3" transform="translate(86 87.75)"/><path fill-rule="evenodd" fill="#473932" d="M-1.1-83.85v.05-.05" transform="translate(86 87.75)"/><path fill-rule="evenodd" fill="#fff" d="M-2.75-80.95q0 1.2-1.35 1.95-1.35.7-3.25.45l-3.6-.7q-1.7-.5-1.7-1.7T-11.2-83q1.45-.85 3.5-.85t3.5.85q1.45.85 1.45 2.05" transform="translate(86 87.75)"/><path fill-rule="evenodd" fill="#ffffe6" d="M-45.1-72.45Q-26.7-85-15.75-80.6q3.6 3.5.65 5.15-2.95 1.7-18.8 9.15-6.95-3.05-11.2-6.15m-8.1 6.95 5.95 4.6-5.6 2.9q-3.7-.15-2.4-4.9.9-1.5 2.05-2.6" transform="translate(86 87.75)"/><path fill-rule="evenodd" fill="#d3bd98" d="M-18.1-31.3-30-40.45l-14.15 2.1-4.35-2.5 4.75-3.8 5.15-7.05 7.8.4 2.65 6.65 7.45 5.15 2.6 8.2m29.8-29.45q.65 7.35.1 21.85-29.9-4.75-59.05-22l13.35-5.4q28.7 14.1 45.6 5.55" transform="translate(86 87.75)"/><path fill-rule="evenodd" fill="#c8ac80" d="m-62.65-64.6 3.65-1.85-2 1.95-.2 2.3-4.5-.5.3-.5 2.75-1.4m4.7 4.65-3.9 4.45.05-.45-.05.45-2.95 1.35-1.35.15q-3.45-2.3-3.95-5.2l.85-1.95 11.3 1.2" transform="translate(86 87.75)"/><path fill-rule="evenodd" fill="#b40e0e" d="m-61.8-55.95-.05.45.05-.45" transform="translate(86 87.75)"/><path fill-rule="evenodd" fill="#497430" d="m-73.7-42.9-.75-.95q-1.7-8.2.45-14.45-2.05 10.65 7.6 6.55l1.6-2.4 2.95-1.35-.25 2.95 1.95 1.65 1.55 5.15q-1.75 3.25-5.6 4.35-5.35 1.1-9.5-1.5" transform="translate(86 87.75)"/><path fill-rule="evenodd" fill="#f4e7b9" d="M-45.1-72.45q4.25 3.1 11.2 6.15l-13.35 5.4-5.95-4.6q6.3-6.2 8.1-6.95" transform="translate(86 87.75)"/><path fill-rule="evenodd" fill="#75a44f" d="m-74-58.3 1.6-3.5q4.6-2.8 9.75-2.8l-2.75 1.4-.85.45.1.25-3.1 1.35-.85 1.95q.5 2.9 3.95 5.2l1.35-.15-1.6 2.4q-9.65 4.1-7.6-6.55" transform="translate(86 87.75)"/><path fill-rule="evenodd" fill="#f02f13" d="m-66.25-62.75.55.05-.45.2-.1-.25" transform="translate(86 87.75)"/><path fill-rule="evenodd" fill="#43582c" d="M-63.85-33.95q-5.8-3.8-9.85-8.95 4.15 2.6 9.5 1.5 3.85-1.1 5.6-4.35l-1.55-5.15 5.75 5-.65 6.4-8.8 5.55" transform="translate(86 87.75)"/><path fill-rule="evenodd" fill="#2b0404" d="M-48.5-40.85q-1.65 4.5-13.1 8.3l-2.25-1.4 8.8-5.55.65-6.4 5.9 5.05" transform="translate(86 87.75)"/><path stroke-width=".05" stroke-linejoin="round" stroke-linecap="round" stroke="#53472d" fill="none" d="m109.25 28.2 1.65 3.2 2.05 4.35q2.6 6.05 4.05 12 2.15 8.75 1.75 17.2L106.3 57.2l-10 4.35-16.7 3.95-11.7-9.05M27 21.3q1.65-1.55 3.4-2.9 4.2-3.45 9.05-6.05 2.45-1.35 5.1-2.5 23.4-10 40.35-5.95l1.35.35q8.25 2.6 15.75 12.5 3.7 4.8 7.25 11.45M84.9 3.95l1.35.3M37.5 46.9l-5.9-5.05m-7.45-9.6-.25 2.95 1.95 1.65 5.75 5m-7.45-9.6.05-.45"/><path stroke-opacity=".38" stroke-linejoin="round" stroke-linecap="round" stroke="#000" fill="none" d="M-18.1-31.3-30-40.45l-14.15 2.1-4.35-2.5q-1.65 4.5-13.1 8.3l-2.25-1.4q-5.8-3.8-9.85-8.95l-.75-.95q-1.7-8.2.45-14.45l1.6-3.5q4.6-2.8 9.75-2.8l3.65-1.85-2 1.95-.2 2.3 4.75.5-1.5 1.75-3.9 4.45-2.95 1.35-1.35.15q-3.45-2.3-3.95-5.2l.85-1.95 3.1-1.35.45-.2 4.5.5m43.1 30.9-2.6-8.2-7.45-5.15-2.65-6.65-7.8-.4-5.15 7.05-4.75 3.8m-13.3-15.1-.05.45m-3.55-7.7 2.75-1.4" transform="translate(86 87.75)"/><path fill-rule="evenodd" fill="#497430" d="M17.7 22.3q8.45 2.65 9.1 7.7.65 5.1.15 8.9-.5 3.75-6.1 12.25l.1 5.95-.85 1.95 1.65 5.5q.1 2.85-1.25 5.05-1.15.3-2.2.85-1.85.9-3.35 2.4l-3.4 7.45-.05.05v-.05q1.55-2.9-1.85-7.8-9.3-5.3-18.25-3.85-3.65-4.75-8.75-3.2l4.3-3.8.6-1.8-.65-1.2-1.25-3.5-.7-3.15q1.9 3.8 8 6.4 8.7 2.4 16.15-1.7 8-5.55 8.25-13.4 13.15-16.15.35-21m2.4 36.75q-1.95 2.2-4.85 3.65-3 1.45-7.05 2.05 4.05-.6 7.05-2.05 2.9-1.45 4.85-3.65M-.4 65.8l-4.5-.75q-4.9-1.45-7.55-5.2 2.65 3.75 7.55 5.2l4.5.75m15.35 7.05 1.2-3.85-1.2 3.85M20.8 48.3l.05 2.85-.05-2.85" transform="translate(86 87.75)"/><path fill-rule="evenodd" fill="#75a44f" d="m11.5 80.35-4.4 2.7-2.15.7 3.6-4.5.05-1q-.25-1.55-2.2-3.5-2-1.15-3.95-.55l-3.2 3.65-.2-.05-.6-4.25-.05-.4-.15-1.2-.15-.1Q-4.4 70-7 70.75l-.15.05-2.4 3.15-.95-3.2v-.05l-.35-1.2-3.25-.8-3.3 2.7.25 1.55-.9 2.6-1.65-2.85 1.1-6.2 1.25-1.05q5.1-1.55 8.75 3.2Q.35 67.2 9.65 72.5q3.4 4.9 1.85 7.8v.05M-15.05 52l-.15-1.05-.25-5.3.45-4.6.2-1.05q3.15-8.6 9.9-12.7 8.6-4.75 14.05-5.2 5.35-.45 8.55.2 12.8 4.85-.35 21-.25 7.85-8.25 13.4-7.45 4.1-16.15 1.7-6.1-2.6-8-6.4m13.7-1.75 5.05 1.7-1.75 3.7-9.9-1.35-2.9-6.55 3.4-2.8-3.4 2.8 2.9 6.55 9.9 1.35 1.75-3.7-5.05-1.7" transform="translate(86 87.75)"/><path fill-rule="evenodd" fill="#c8ac80" d="m3.65 84.2-2.7.45 5.1-6.45-.1-2.1 2.65 2.15-.05 1-3.6 4.5-1.3.45m-6.35-2.9-.4.85-6.1.75-1.15-1.65.2-2.05.05-.3 1.7 2.35 4.9-2.45 1.25-3.35-.55-2.25-2.9-.9 3.8-.45.15.1.15 1.2.05.4.6 4.25-1.75 3.5m-8.2-2.2-.1.15-2.3 1.05 2.3-6.05-2.15-3.4 2.65-.15v.05l.95 3.2-.1.15v.1l-.3 2.85-.95 2.05" transform="translate(86 87.75)"/><path fill-rule="evenodd" fill="#f8ebcf" d="M.95 84.65-1.3 85l-1.1-3.1.1-.4 1.5-3.6.05-.05 3.2-3.65q1.95-.6 3.95.55 1.95 1.95 2.2 3.5L5.95 76.1l.1 2.1-5.1 6.45M-13.3 80.3l-2.5 1.2-2.7-4.5.45-1.45.9-2.6-.25-1.55 3.3-2.7 3.25.8.35 1.2-2.65.15 2.15 3.4-2.3 6.05m11.4-8.45-3.8.45 2.9.9.55 2.25-1.25 3.35-4.9 2.45-1.7-2.35.15-1.85.3-2.85.1-.25 2.4-3.15.15-.05q2.6-.75 5.1 1.1" transform="translate(86 87.75)"/><path fill-rule="evenodd" fill="#82a66a" d="m-2.3 81.5-.4-.2 1.75-3.5.15.1-1.5 3.6" transform="translate(86 87.75)"/><path fill-rule="evenodd" fill="#85b456" d="m-.95 77.8.2.05-.05.05-.15-.1" transform="translate(86 87.75)"/><path stroke-opacity=".38" stroke-linejoin="round" stroke-linecap="round" stroke="#000" fill="none" d="M17.7 22.3q8.45 2.65 9.1 7.7.65 5.1.15 8.9-.5 3.75-6.1 12.25l.1 5.95-.85 1.95 1.65 5.5q.1 2.85-1.25 5.05-1.15.3-2.2.85-1.85.9-3.35 2.4l-3.4 7.45-.05.05-4.4 2.7-2.15.7-.25.25-1.05.2-2.7.45-2.25.35-1.1-3.1.1-.4-.4-.2-.4.85-6.1.75-1.15-1.65.2-2.05-.75-.1-.1.15-2.3 1.05-2.5 1.2-2.7-4.5.45-1.45-1.65-2.85 1.1-6.2 1.25-1.05 4.3-3.8.6-1.8-.65-1.2-1.25-3.5-.7-3.15-.15-1.05-.25-5.3.45-4.6.2-1.05q3.15-8.6 9.9-12.7 8.6-4.75 14.05-5.2 5.35-.45 8.55.2M8.2 64.75q4.05-.6 7.05-2.05 2.9-1.45 4.85-3.65m-27.55-14.1-3.4 2.8 2.9 6.55 9.9 1.35 1.75-3.7-5.05-1.7m-11.1 9.6q2.65 3.75 7.55 5.2l4.5.75m-1.5 6.05.15.1.15 1.2m.05.4.6 4.25-1.75 3.5m1.95-3.45 3.2-3.65q1.95-.6 3.95.55 1.95 1.95 2.2 3.5l-.05 1-3.6 4.5-1.3.45m-13.75-5.3-.05.3m.6-5.25-.1.15v.1l.1-.25-.95-3.2m.95 3.2 2.4-3.15.15-.05q2.6-.75 5.1 1.1m-16.15 3.7.9-2.6-.25-1.55 3.3-2.7 3.25.8.35 1.2m.55 6.35-.95 2.05m.8-.2.15-1.85.3-2.85m25.8-5.2-1.2 3.85M-.8 77.9l.05-.05M-2.3 81.5l1.5-3.6m21.65-26.75-.05-2.85" transform="translate(86 87.75)"/></g><path fill-rule="evenodd" fill-opacity="0" fill="#f0f" d="M0 0h102.95v45H0V0" id="b"/></defs><path fill="none" d="M-1-1h400v408H-1z"/><g transform="scale(2)"><use x="88.55" y="187.5" xlink:href="#c" width="381" transform="translate(-192.55 -294)" height="381"/><use x="77.228" y="163.527" xlink:href="#d" width="172" transform="translate(-87.66 -186.617) scale(1.1466)" height="175.5"/><use x="-57.271" y="-64.095" xlink:href="#e" width="102.95" transform="matrix(1.8072 0 0 1.6538 83 126.3)" height="45"/></g></svg>