<svg width="626" height="519" xmlns="http://www.w3.org/2000/svg" xmlns:xlink="http://www.w3.org/1999/xlink"><defs><path fill-rule="evenodd" fill-opacity="0" fill="#f0f" d="M0 0h102.95v45H0V0" id="a"/><use xlink:href="#a" width="102.95" height="45" id="c"/><g id="b"><path stroke-opacity="0" stroke-linejoin="round" stroke-linecap="round" stroke="#f0f" fill="none" d="M187.95-293.5v380h-380v-380h380M92.95.6H-97" transform="translate(192.55 294)"/><path stroke-opacity="0" stroke-linejoin="round" stroke-linecap="round" stroke="#f0f" fill="none" d="m187.95-293.5-190 190 190 190m-380-380 190 190L-192 86.5" transform="translate(192.55 294)"/><path stroke-width="6.25" stroke-linejoin="round" stroke-linecap="round" stroke="#3f3521" fill="none" d="M213.3 62.55q-30.4 6.8-55.45 19.9l-9.15 5.05q-9.4 8.45-8.95 14.75l1.15 3.25 14.95.05L145 114.2l.55 1.05 3.05 5.25 7.5 4.9-6.05 4.55-5.55 8.2.9 2.55.85.35q9.4 3.4 20.9 4v3.7l-2.65 10.65 4.8 1.45 12.65-2.9 4.2-4.1 15.35 1.2 6.7.1-11.7 10.05-16.85 1.95q-7.65 1.15-12 4.4-4.3 3.2-4.25 5.15l-5.35 3.4q-3.6 4-3.7 8l5.4-.15-1.9 3.3 1.65 1.85 6.75-.7.05-.05v.05h-.05l-2.05 1.15-1.05.65-.15.1q-5.85 3.5-10.3 9-3.5.5-7 3.45-6.55 8.3-9.45 18.6 0 5 2.65 9.65l5.75 4-4.7.35-2 2.8-3.8 2.2-1.15 7.1-2.65 3.7v2l1.75 1.4-1 1.95 2.8 1.2 5.75-.85 3.9 2.75 14.2-.85 4.1 3.55q6.25 4.7 14.9 7.4l5.1 1.4q9.1 2.05 20.5 2.25l1 1.4-.3 2.4-5.85 7.55v8.2l2.75 3.35-.3 2 4.45 5.15 5.55-4 .85-3 .45 5.5 1.8 1.8 7.5-2.3.3-1.15.55.15v.55l2.05 3.75 6.1-2.15 4.05-2.25 5-4.55 2.6-10.35q2.5-3.6 6.25-5.45 1.15-3.1.9-8.2l5.5-1.45q8.1-1.8 15.05-.5l4.95 2.85h.05l.5.3q5.35 3.35 5.3 4.7l-1.7 3.6-9.55 5q-2.7 2 0 4.1 8.15 4.6 17.8 5.1l2.55.05q12.6-3 21.65-10.35 5.8-3.6 7.05-6.2.9-16.45-4.9-28l-5.5-12.9-2.75-13.6-6.15-9.9-3.85-.1-1.45.3-4.7 6.15-4.5-3.6q.3-6.35-.3-12.3-.25-2.65-.95-5.3-1-3.45-2.75-6.85l-2.2-2.7q-6.85-2.45-11.75-1.05-10.05 6.95-15.2 13.95l-3.65.65q-4.05-3.7-8.55-5.6l.35-.6q13-8.2 22.9-19.45l.75-1.2q6.7 2.85 12.35 4.7 11.2 3.65 13.8 3.9l10.85.65 2.3-7.15q3.35-13 3.95-26.15.55-11.95-1.15-24.05-3.75-13.45-8.25-25.05-4.8-12.25-10.4-22.4-.35-1.45-9.25-14.45t-30.6-13.65q-16.9 1.9-32.35 5.35m-3.1 233.9v.15l.1-.3-.1.15"/><path fill-rule="evenodd" fill="#f8ebcf" d="m55.4-216.85 4.05.25 18 2q3.3.75 4.1-1.9.8-2.7-1.85-6.45-2.6-3.75-7.1-6.4-4.6-2.7-18.9-2.95l-9.05.8q-7.1-2.3-23.95.05 15.45-3.45 32.35-5.35 21.75.65 30.6 13.65 8.9 12.95 9.3 14.45l4.9 20.05q-4.15-2.3-7.25-8.95-3.2-6.7-21.8-12.8-8.7-2.85-13.4-6.45m-39.65 3.3 1.05.4q27.65 10.2 42.75 32.7 15.1 22.45 26 20.8 10.9-1.6 13.35-.2-2.2 15-12.45 21h-17.8l.5-2.65-.9-4.4v-1.85q1.2-1.5 1.4-4 .2-3.75-1.3-7.55h-1.4q-4.6 2.95-5.85 6.15l-1.7-.8-.4-6.8-1.45-2.45-1.15-2-1.75.6-4.8 4.75 4.8-4.75 1.75-.6 1.15 2-1.3 6.65q-2.75-1.9-6.4-3.3l-3.5.6-6.85-12.95-9.85-15.9-.8-1.3H7.25l-2.2-2.05-14.3.8-3.8.2-7.25-5.7q-14.25-1.4-26.9 0l-2.3 1.75v5.9h-2.2l-1.15-3.3q-.45-6.25 9-14.7 4.45-2.65 9.1-5.1 10.15-5 21-6.05L-17-216.4q-37.45 14.85-13.65 12.75 9.7.4 12.55-2.55 3.05-5.2 15.75-11.5 4.9.45 9.85 1.7-4.7 3.95 8.25 2.45m85.7 138 3.8.05 6.2 9.95 2.8 13.55.65 6.1h-1.8q-3.2.15-8.1 1.55l-.65-21.85-2.9-9.35M33.35 13.7l-2.8 1-2.05-3.8v-.5l1.1-5 .05-.05 3.2-5.5q2.3-1.1 5.05-.1 3 2.1 3.65 4l-3.9-2.15.65 2.7-4.95 9.4M14.4 11.3l-2.9 2.1-4.45-5.2.3-1.95.5-3.6L7.2.75l3.55-4.25 4.2.3.8 1.5-3.35.8L15.95 3l-1.55 8.3M-47-178.75l-.6-1.05 10.85-8.7h2.95l-13.2 9.75m37.5-23.6h4.55l7.85 8.85 2.15 2.05-2.15-2.05-7.85-8.85H-9.5m43.95 12.95h-5.6 5.6M17.7 2.3l2.25-4.6.2-.05 6.7.2-4.7 1.45L26-.2l1.2 2.8-.8 4.55-5.65 4.3-2.65-2.7-.2-2.4-.3-3.75.1-.3" transform="translate(192.55 294)"/><path fill-rule="evenodd" fill="#ffffe6" d="m44.65-231.5 9.05-.8q14.3.25 18.9 2.95 4.5 2.65 7.1 6.4 2.65 3.75 1.85 6.45-.8 2.65-4.1 1.9l-18-2-4.05-.25q-5.45-4.1-5.6-9.15-.1-3.95-5.15-5.5m-28.9 17.95Q2.8-212.05 7.5-216q4.1.95 8.25 2.45m-18.1-4.15q-12.7 6.3-15.75 11.5-2.85 2.95-12.55 2.55-23.8 2.1 13.65-12.75l3.25-1.25q5.6-.55 11.4-.05" transform="translate(192.55 294)"/><path fill-rule="evenodd" fill="#d3bd98" d="M55.4-216.85q4.7 3.6 13.4 6.45 18.6 6.1 21.8 12.8 3.1 6.65 7.25 8.95 2.65 17.75 1.05 28.8-2.45-1.4-13.35.2-10.9 1.65-26-20.8-15.1-22.5-42.75-32.7l-1.05-.4 3.8-.55q21.85-3.2 35.85-2.75m-34.7-14.6q16.85-2.35 23.95-.05-11.8 2.15-27.75 10-7 3.45-9.4 5.5-4.95-1.25-9.85-1.7 4.25-2.1 9.6-4.35 21.2-8.9 28-9.25H31.9q-10.9.05-45.65 13.65-10.85 1.05-21 6.05 25.05-13 55.45-19.85M-6.55-187.3l10.1-1.8 4.35 2.25 21.75-1.25 9.85 15.9-39.35-7.6-6.7-7.5" transform="translate(192.55 294)"/><path fill-rule="evenodd" fill="#e0c292" d="m97.85-188.65-4.9-20.05q5.55 10.15 10.35 22.4-4.7.75-5.45-2.35m-11.4 49.8q10.25-6 12.45-21 10.85 4.9 13.8 22.65-.6 13.15-3.95 26.1l-2.3 7.15-10.85-.6q7.55-.8 9.8-2.1 0-7.1-3.25-16.7l-8-15.5h-7.7m18.65-2.65q-1.05 1.05-10.95 2.65 9.9-1.6 10.95-2.65" transform="translate(192.55 294)"/><path fill-rule="evenodd" fill="#ab8558" d="M98.9-159.85q1.6-11.05-1.05-28.8.75 3.1 5.45 2.35 4.5 11.6 8.25 25.05 1.75 12.1 1.15 24.05-2.95-17.75-13.8-22.65M29.65-188.1 7.9-186.85l-4.35-2.25-10.1 1.8-.45-.5-.5-.65-1.75-2.2 14.3-.8 2.2 2.05h21.6l.8 1.3" transform="translate(192.55 294)"/><path fill-rule="evenodd" fill="#c8ac80" d="M61.1-153.15q1.25-3.2 5.85-6.15h1.4q1.5 3.8 1.3 7.55-.2 2.5-1.4 4v1.85l-4.2-5.75-2.95-1.5M89.55-90.3q.7 2.65 1 5.25.6 5.95.25 12.35l-.35 4.6q-2.8.7-15.9-1.15L69.8-71.4q15.5-8.65 19.75-18.9m5.75 21.2 4.7-6.2 1.45-.25 2.9 9.35.65 21.85-8.45-9.7-2.1-7.85.85-7.2M36.65 12.55l-3.3 1.15 4.95-9.4-.65-2.7 3.9 2.15.15 1.3-3.5 6.6-1.55.9m-8.7-2.3-.3 1.15-7.5 2.3-1.8-1.8-.2-2.7-.05-.45 2.65 2.7 5.65-4.3.8-4.55L26-.2l-3.85-.5 4.7-1.45.15.05.45 1.55.2.6 1.75 5.3-1.45 4.9M17.15 9.2l-.1.2-2.65 1.9L15.95 3 12.4-.9l3.35-.8v.05L17.7 2.3l-.15.15.05.15.3 3.75-.75 2.85M59.4-153.95l-3.15-2.6 1.3-6.65 1.45 2.45.4 6.8" transform="translate(192.55 294)"/><path fill-rule="evenodd" fill="#6c4b24" d="M78.55-138.85h15.6l8 15.5q3.25 9.6 3.25 16.7-2.25 1.3-9.8 2.1-2.6-.25-13.8-3.95-5.65-1.8-12.35-4.65l6.3-11.15 2.8-14.55m-115.05-29.7-7.5-4.95-3-5.25 13.2-9.75h-15.7v-5.9l2.3-1.75q12.65-1.4 26.9 0l7.25 5.7 3.8-.2 1.75 2.2h-.05l-8.65 2.1-.5-1.65q-1.4-2.75-6.4-3.05l-4.55.65-1.75 1.65-1.45 6.9v.05l-6.1 1.2-5.75 2v1.65l7.7 7.25-1.5 1.15" transform="translate(192.55 294)"/><path fill-rule="evenodd" fill="#497430" d="m68.25-145.9.9 4.4-.5 2.65-.55 2.7 2.15.2 1.95 4.2-2.4 8.35-10.95 9.75-9.6 14.15q-3.05 1.25-6.05 2.15 10.15-15.15 16.6-32.7 5.85-11.5 1.3-23.1l2.95 1.5 4.2 5.75m-5.6 26.9 3.15-5.7 2.3-11.45-2.3 11.45-3.15 5.7M119-40.75l.6 1.5v.2h.1q5.75 11.55 4.85 28-1.2 2.6-7.05 6.15-8.95 7.4-21.6 10.4l-2.55-.05q14.8-3.35 24.1-23.35 3.55-6.05 2.6-15.3-1.3-5.5-5.05-11l4 3.45m-63.55 22.5q.25 5.05-.9 8.2-3.75 1.85-6.25 5.4l-2.6 10.4-.1.05q1.35-4.1-4.05-9.7-12.95-4.75-23.9-.85Q12-10.05 5.9-6.9l4.55-5.95.3-2.45-1.05-1.35Q8.4-18.7 7.35-20.9L5.7-24.8q4.25 4.5 15.8 6.05 9.65-.55 15.7-5.35Q46-33 46.15-41.65q-.85-20.65-10.9-19.7Q43.4-62.5 50.7-54.2l.6.6.4.95q8.5-.3 23.15 8.7l.9 1.75q6.3 12.45 4.25 16.6-7.85-4.55-15.9-4.75l-3.85.95q-4.95 1.3-8.05 3.1l-1.5-7.6 3-5.55q.55-6.9-2-13.2 2.55 6.3 2 13.2l-3 5.55 1.5 7.6-.6 2.7 2.95 5.5q.3.8.9-.15m-90.3-13-14.2.9-3.9-2.8 1.6-.25 1.95 1.7 2.2-3.35-2.2-9.5h-2.35v-4l-1.4.65v-4.85l-1.5.9 2-2.85 4.7-.35-5.8-4q-2.55-4.6-2.55-9.6Q-53.5-79-46.9-87.3q3.5-2.85 7-3.4-4.35 5.45-7.5 12.85-1.5 3.5-2 7.4-.9 7.15 1.45 15.4 2.1 7.25 6.7 15.4 2.65 4.7 6.4 8.4M50-37.55l.7 3.65-.7-3.65m-22.7 27.3h-5.8Q15-11 10.75-15.3 15-11 21.5-10.25h5.8m21 5.6.65-5.2-.65 5.2m3.3-18.95q-3.85 6.7-13.7 10.05 9.85-3.35 13.7-10.05" transform="translate(192.55 294)"/><path fill-rule="evenodd" fill="#43582c" d="M68.65-138.85h9.9l-2.8 14.55-6.3 11.15-.75 1.2Q58.8-100.7 45.75-92.5l-.3.55Q49.9-90 54-86.35l3.6-.65-2 1.55q-1.5 4.1 1.2 8.15l6.35 2.9q-25.35-10.85-42.1-8.25-5.7 1.45-4.9-4.2.7-5.7-1.4-.1-2.05 5.65.7-2.5 3.7-6.65 9.35-10.55 3.8 4.3 9.6 4.6 4.4-.65 8.8-1.95 3-.9 6.05-2.15l9.6-14.15 10.95-9.75 2.4-8.35-1.95-4.2-2.15-.2.55-2.7M90.8-72.7l4 3.2-4.3 1.45-.05-.05.35-4.6M114.25-52 119-40.75l-4-3.45-1.9-1.7h1.8l-.65-6.1m-143.5-65.3q0-1.95 4.35-5.2 4.35-3.2 11.95-4.4l16.85-1.9 11.7-10.1h.65l-3.05 7.8q-8 4.35-7.1 7.3l-4.65 4.7-8.4 6.15q-4.9 3-10.65 6.4l-8.7 4.95-3.95-5.35q-1.6-5.15 1-10.35M-12-149.6h-.3q-3-.05-3.8-2.95l-.5-1.65.7-1.75 5.2 4.3-1.3 2.05m27.15-14.7-.1.15-.1-.05.2-.1M43.3-88.4l2.15-3.55-2.15 3.55" transform="translate(192.55 294)"/><path fill-rule="evenodd" fill="#ac8d46" d="M57.6-87q5.2-6.9 15.2-13.9 4.95-1.45 11.8 1.05l2.25 2.7Q79.8-101.8 70.5-93.7q-9.3 8.2-13.7 16.4-2.7-4.05-1.2-8.15l2-1.55" transform="translate(192.55 294)"/><path fill-rule="evenodd" fill="#9a6f3a" d="M86.85-97.15q1.75 3.45 2.7 6.85Q85.3-80.05 69.8-71.4h-.05l-6.6-3-6.35-2.9q4.4-8.2 13.7-16.4 9.3-8.1 16.35-3.45m-139.8 64-5.75.8-2.8-1.15 1-2-1.75-1.35v-2.05l2.65-3.65 2.65-3.6 3.8-1.75 1.4-.65v4h2.35l2.2 9.5-2.2 3.35-1.95-1.7-1.6.25M-32.8-106l-5.45.1q.1-4 3.65-7.95l5.35-3.45q-2.6 5.2-1 10.35l-2.55.95m48.4-32.9-6.7-.05-15.35-1.2.15-.2-1.45-5.1.3.05 2.55-2.55h3.3l4.7-1.75 4.95-3.85 1 4.3-1 3.35q5.95-1.65 9.9-1.1-1.8-.9-2-2.25.95-1.9 5.75-5.2 6.65-3.2 14.7-3.65 3.8.25 3.7 3.55l-3.1 2.7q-4.95 5.9-8 13l-7.1 1.6-5.65-1.65h-.65m-54.95-27.5 2.85-2.15 1.5-1.15-7.7-7.25v-1.65l5.75-2 6.1-1.2-.25 1.15-2.1 2.3q4.3 5.2 3.2 6.9l-.05.1-2.9 4.4-1.1 2.75-5.3-2.2m6.95-4.15-2.6.85 2.6-.85m28 28.3-1.9 1.9 1.9-1.9M17.95-147q1.2.6 3.2.95-2-.35-3.2-.95M-60.5-35.5l2.8-5.35 5.95-3.7-5.95 3.7-2.8 5.35" transform="translate(192.55 294)"/><path fill-rule="evenodd" fill="#75a44f" d="m94.8-69.5.5.4-.85 7.2 2.1 7.85 8.45 9.7q4.9-1.4 8.1-1.55l1.9 1.7q3.75 5.5 5.05 11 .95 9.25-2.6 15.3-9.3 20-24.1 23.35-9.7-.5-17.8-5.15-2.7-2.05 0-4.1 4.75-2.45 9.5-5l1.8-3.6 1.8-3.8 1.55-3.1.15-.8.1-1.95q-5.8-14-14.7-20.15l-.9-1.75q-14.65-9-23.15-8.7l-.4-.95-.6-.6q-7.3-8.3-15.45-7.15 10.05-.95 10.9 19.7Q46-33 37.2-24.1q-6.05 4.8-15.7 5.35Q9.95-20.3 5.7-24.8l-.4-1.3q-1.05-3.3-1.55-6.8-.45-2.95-.45-6v-1.45q2.05-11.7 9.5-20.55-1.35-6.55-1-13.5.25-5.25 1.45-10.65l2.2-4.4q-2.75 8.15-.7 2.5 2.1-5.6 1.4.1-.8 5.65 4.9 4.2 16.75-2.6 42.1 8.25l6.6 3h.05l4.75 2.15q13.1 1.85 15.9 1.15l.05.05 4.3-1.45m24.8 30.25.1.2h-.1v-.2m-73.9 45-5 4.55-2.5 1.35 3.5-6.6-.15-1.3q-.65-1.9-3.65-4-2.75-1-5.05.1l-3.2 5.5h-.25L27.65.05l-.2-.6L27-2.1l-.15-.05-6.7-.2-.2.05-2.25 4.6-1.95-3.95v-.05l-.8-1.5-4.2-.3L7.2.75l.65 1.9-.5 3.6L4.6 2.9v-8.2l1.3-1.6q6.1-3.15 11.75 2.15 10.95-3.9 23.9.85 5.4 5.6 4.05 9.7l.1-.05M-34.05-164.2q5.95-3.25 19.65.2l5.6.55 4.05 4.7q.75 4.95-.6 9.2l-7.35 3.5-2.95-.35-3.1-1.3q-1.2-2.9-5.35-8.5l3.35.9-3.35-.9-11.15-5.25 1.2-2.75m18.15 8.25-.7 1.75.5 1.65q.8 2.9 3.8 2.95h.3l1.3-2.05-5.2-4.3-.55-.95.55.95m-1.1-.95-1.15-.95 1.15.95m37.8 91.65q-5.3.7-8 4.35 2.7-3.65 8-4.35m1.8 35.1 6.7 1.1-1.3 5.2-12.8.4-5.15-7.75 3.65-4.35-3.65 4.35 5.15 7.75 12.8-.4 1.3-5.2-6.7-1.1" transform="translate(192.55 294)"/><path fill-rule="evenodd" fill="#578035" d="M75.75-42.2q8.9 6.15 14.7 20.15l-.1 1.95-.15.8-1.55 3.1q-.15-3.7-5.35-7.3l-.85-.55-2.15-1.35-.3-.2q2.05-4.15-4.25-16.6" transform="translate(192.55 294)"/><path fill-rule="evenodd" fill="#946334" d="M86.85-12.4q0-1.3-5.35-4.65l-.5-.25-.05-.05L76-20.2l-15.05.5-5.5 1.45q-.6.95-.9.15l-2.95-5.5.6-2.7q3.1-1.8 8.05-3.1l3.85-.95q8.05.2 15.9 4.75l.3.2 2.15 1.35.85.55q5.2 3.6 5.35 7.3l-1.8 3.8M-59.6-42.55l1.15-7.1 3.8-2.2 1.5-.9v4.85l-3.8 1.75-2.65 3.6m140.55 25.2q-1.25-.8-.75-3.15.45-2.45 2.25-3.55-1.8 1.1-2.25 3.55-.5 2.35.75 3.15m-20-2.35.65-2.35q1.1-3.45-1.35-7.35 2.45 3.9 1.35 7.35l-.65 2.35m-78.55-86.85q5.75-3.4 10.65-6.4l8.4-6.15 4.65-4.7q9.45.75 17 7.35l-1.85 5.6q.3 4.45 2 8.85l1.55 2q-5.65 3.9-9.35 10.55l-2.2 4.4q-3.5-4.25-9.5-8.65Q1.2-99.4-9-105.25l-8.6-1.3" transform="translate(192.55 294)"/><path fill-rule="evenodd" fill="#f4e7b9" d="M44.65-231.5q5.05 1.55 5.15 5.5.15 5.05 5.6 9.15-14-.45-35.85 2.75l-3.8.55q-4.15-1.5-8.25-2.45 2.4-2.05 9.4-5.5 15.95-7.85 27.75-10m-58.4 13.85Q21-231.25 31.9-231.3h3.35q-6.8.35-28 9.25-5.35 2.25-9.6 4.35-5.8-.5-11.4.05" transform="translate(192.55 294)"/><path fill-rule="evenodd" fill="#364422" d="m-7-187.8.45.5 6.7 7.5 39.35 7.6 6.85 12.95q-1.35.35-1.85.75l-4.4 3.95q.1-3.3-3.7-3.55-8.05.45-14.7 3.65-4.8 3.3-5.75 5.2.2 1.35 2 2.25-3.95-.55-9.9 1.1l1-3.35-1-4.3-4.95 3.85-4.7 1.75h-3.3l-2.55 2.55-.3-.05-4.95-.6 7.35-3.5q1.35-4.25.6-9.2l-4.05-4.7-5.6-.55q-13.7-3.45-19.65-.2l1.1-2.75 2.9-4.4.05-.1 2.5-3.65-2.5 3.65q1.1-1.7-3.2-6.9l2.1-2.3.25-1.15v-.05l1.45-6.9 1.75-1.65 4.55-.65q5 .3 6.4 3.05l.5 1.65 8.65-2.1.55.65m-24.6 9.45.5-2.3-.5 2.3m2.9 1.05.95-.45 1.2-6.7-1-1.95 1 1.95-1.2 6.7-.95.45m25.35 14.85.95 12-2.5 2.5 2.5-2.5-.95-12m40.25-8.75-3.1.25 3.1-.25m-20.3 3.65-.65 1.6 3.15 1.75 12-.4 2.6.8h.1l2.05-2.85-2.05-4.3-.75.05-6.35.5-3.5.3-6.6 2.55M35.65-164l-1.85.2 1.85-.2m-26.1-.8-2.5-7.4 1-2.35-1 2.35 2.5 7.4m5.5.65.1-.15-.2.1.1.05m-.1-.05-2.25.6-1.4-1.55 1.4 1.55 2.25-.6m1-1.75-.8 1.65.8-1.65M-14.1-179.9l-2.1-6.45 2.1 6.45" transform="translate(192.55 294)"/><path fill-rule="evenodd" fill="#a47a48" d="m-7.5-188.45.5.65-.55-.65h.05" transform="translate(192.55 294)"/><path fill-rule="evenodd" fill="#f5e7cb" d="m-29.45-99.85 1.05-.6 2.05-1.15h.05l8.7-4.95 8.6 1.3Q1.2-99.4 3.75-93.7q6 4.4 9.5 8.65-1.2 5.4-1.45 10.65-32.55-25.9-40.25-25.65l-1 .2m10.25-34.25-4.15.95-4.7-1.5 2.55-10.6v-3.7l-.05-1.5-.35-4.3q-9.6 2.55-20.5 1.8l-.8-.35-.9-2.55 5.55-8.2 3.2-2.35 5.3 2.2-1.2 2.75 11.15 5.25q4.15 5.6 5.35 8.5l1.85 4.25q2.1 7.15-2.3 9.35" transform="translate(192.55 294)"/><path fill-rule="evenodd" fill="#ceb579" d="m-6.45-140.15-4.25 4.1-8.5 1.95q4.4-2.2 2.3-9.35l-1.85-4.25 3.1 1.3 2.95.35 4.95.6 1.45 5.1-.15.2m-19.05-8.8q-11.45-.6-20.9-4 10.9.75 20.5-1.8l.35 4.3.05 1.5" transform="translate(192.55 294)"/><path fill-rule="evenodd" fill="#846431" d="m-26.35-101.6-6.7.7-1.7-1.85 1.95-3.25 2.55-.95 3.95 5.35h-.05" transform="translate(192.55 294)"/><path fill-rule="evenodd" fill="#9a884b" d="m33.05-170.9.75-.05 2.05 4.3-2.05 2.85h-.1l-2.6-.8-12 .4-3.15-1.75.65-1.6 6.6-2.55 3.5-.3-.05.5q0 1.35.95 2.35 1 .95 2.35.95t2.3-.95q.95-1 .95-2.35l-.15-1" transform="translate(192.55 294)"/><path fill-rule="evenodd" d="m33.05-170.9.15 1q0 1.35-.95 2.35-.95.95-2.3.95-1.35 0-2.35-.95-.95-1-.95-2.35l.05-.5 6.35-.5" transform="translate(192.55 294)"/><path fill-rule="evenodd" fill="#76b351" d="m40.1-154.55 4.4-3.95q.5-.4 1.85-.75l3.5-.6q3.65 1.4 6.4 3.3l3.15 2.6 1.7.8q4.55 11.6-1.3 23.1-6.45 17.55-16.6 32.7-4.4 1.3-8.8 1.95-5.8-.3-9.6-4.6l-1.55-2q-1.7-4.4-2-8.85l1.85-5.6q2.7-8.75 3.95-17.25.85-2.65 1.95-5.15 3.05-7.1 8-13l3.1-2.7" transform="translate(192.55 294)"/><path fill-rule="evenodd" fill="#7d552d" d="M6.1-123.8q-.9-2.95 7.1-7.3l3.05-7.8 5.65 1.65 7.1-1.6q-1.1 2.5-1.95 5.15-1.25 8.5-3.95 17.25-7.55-6.6-17-7.35" transform="translate(192.55 294)"/><path fill-rule="evenodd" fill="#e8d7b7" d="M-39.9-90.7q4.5-5.55 10.25-9l.2-.15 1-.2q7.7-.25 40.25 25.65-.35 6.95 1 13.5-7.45 8.85-9.5 20.55v1.45q-50.1.75-52.7-31.55.5-3.9 2-7.4 3.15-7.4 7.5-12.85" transform="translate(192.55 294)"/><path fill-rule="evenodd" fill="#d0b792" d="M-30.75-27.75q-2.25-1.6-4.1-3.5-3.75-3.7-6.4-8.4-4.6-8.15-6.7-15.4-2.35-8.25-1.45-15.4 2.6 32.3 52.7 31.55 0 3.05.45 6Q4-28.55 2.7-26q-1.9 3.5-6.85 3.4-10.85 1.25-26.6-5.15" transform="translate(192.55 294)"/><path fill-rule="evenodd" fill="#ad8052" d="M9.7-16.65q-11.35-.2-20.45-2.25l-5.1-1.4q-8.65-2.75-14.9-7.45 15.75 6.4 26.6 5.15Q.8-22.5 2.7-26q1.3-2.55 1.05-6.9.5 3.5 1.55 6.8l.4 1.3 1.65 3.9q1.05 2.2 2.35 4.25" transform="translate(192.55 294)"/><path fill-rule="evenodd" fill="#82a66a" d="m28.5 10.4-.55-.15 1.45-4.9.2.05-1.1 5" transform="translate(192.55 294)"/><path fill-rule="evenodd" fill="#85b456" d="M29.4 5.35h.25l-.05.05-.2-.05" transform="translate(192.55 294)"/><path stroke-opacity=".38" stroke-linejoin="round" stroke-linecap="round" stroke="#000" fill="none" d="M92.95-208.7q-.4-1.5-9.3-14.45-8.85-13-30.6-13.65-16.9 1.9-32.35 5.35m82.6 45.15q-4.8-12.25-10.35-22.4M61.1-153.15q1.25-3.2 5.85-6.15h1.4q1.5 3.8 1.3 7.55-.2 2.5-1.4 4v1.85l.9 4.4-.5 2.65h25.5q9.9-1.6 10.95-2.65m7.6 4.3q.6-11.95-1.15-24.05-3.75-13.45-8.25-25.05M43.2-97.35q3-.9 6.05-2.15l9.6-14.15 10.95-9.75 2.4-8.35-1.95-4.2-2.15-.2-2.3 11.45-3.15 5.7m6-19.85-.55 2.7m10.45-2.7-2.8 14.55-6.3 11.15q6.7 2.85 12.35 4.65 11.2 3.7 13.8 3.95 7.55-.8 9.8-2.1 0-7.1-3.25-16.7l-8-15.5m-24.7 25.7-.75 1.2Q58.8-100.7 45.75-92.5l-.3.55Q49.9-90 54-86.35l3.6-.65q5.2-6.9 15.2-13.9 4.95-1.45 11.8 1.05l2.25 2.7q1.75 3.45 2.7 6.85.7 2.65 1 5.25.6 5.95.25 12.35l4 3.2.5.4 4.7-6.2 1.45-.25 3.8.05 6.2 9.95 2.8 13.55L119-40.75l.6 1.5.1.2q5.75 11.55 4.85 28-1.2 2.6-7.05 6.15-8.95 7.4-21.6 10.4l-2.55-.05q-9.7-.5-17.8-5.15-2.7-2.05 0-4.1 4.75-2.45 9.5-5l1.8-3.6q0-1.3-5.35-4.65l-.5-.25-.05-.05L76-20.2l-15.05.5-5.5 1.45q.25 5.05-.9 8.2-3.75 1.85-6.25 5.4l-2.6 10.4-5 4.55-2.5 1.35-.3.45-1.25.45-3.3 1.15-2.8 1-2.05-3.8v-.5l-.55-.15-.3 1.15-7.5 2.3-1.8-1.8-.2-2.7h-1l-.1.2-2.65 1.9-2.9 2.1-4.45-5.2.3-1.95L4.6 2.9v-8.2l1.3-1.6 4.55-5.95.3-2.45-1.05-1.35q-11.35-.2-20.45-2.25l-5.1-1.4q-8.65-2.75-14.9-7.45-2.25-1.6-4.1-3.5l-14.2.9-3.9-2.8-5.75.8-2.8-1.15 1-2-1.75-1.35v-2.05l2.65-3.65 1.15-7.1 3.8-2.2 2-2.85 4.7-.35-5.8-4q-2.55-4.6-2.55-9.6Q-53.5-79-46.9-87.3q3.5-2.85 7-3.4 4.5-5.55 10.25-9m.2-.15 1.05-.6 2.05-1.15-6.7.7-1.7-1.85 1.95-3.25-5.45.1q.1-4 3.65-7.95l5.35-3.45q0-1.95 4.35-5.2 4.35-3.2 11.95-4.4l16.85-1.9 11.7-10.1-6.7-.05-15.35-1.2-4.25 4.1-8.5 1.95-4.15.95-4.7-1.5 2.55-10.6v-3.7q-11.45-.6-20.9-4l-.8-.35-.9-2.55 5.55-8.2 3.2-2.35 2.85-2.15-7.5-4.95-3-5.25-.6-1.05 10.85-8.7H-51.7l-1.15-3.3q-.45-6.25 9-14.7 4.45-2.65 9.1-5.1 25.05-13 55.45-19.85m74.9 126.9 10.85.6 2.3-7.15q3.35-12.95 3.95-26.1M69.8-71.4l4.75 2.15q13.1 1.85 15.9 1.15l.35-4.6m-27.65-1.7 6.6 3h.05m20.55 51.3-.15.8-1.55 3.1-1.8 3.8m8.45-56.7-.85 7.2 2.1 7.85 8.45 9.7q4.9-1.4 8.1-1.55h1.8l-.65-6.1M80.3-25.4l2.15 1.35.85.55q5.2 3.6 5.35 7.3m-6.2-7.85q-1.8 1.1-2.25 3.55-.5 2.35.75 3.15M80-25.6q-7.85-4.55-15.9-4.75l-3.85.95q2.45 3.9 1.35 7.35l-.65 2.35M5.05-191.45 2.9-193.5l-7.85-8.85H-9.5m39.15 14.25-.8-1.3H7.25l-2.2-2.05-14.3.8 1.75 2.2.5.65.45.5 6.7 7.5 39.35 7.6-9.85-15.9m-.8-1.3h5.6m-83.95-5 2.3-1.75q12.65-1.4 26.9 0l7.25 5.7 3.8-.2m-21.6 8.85v-.05l1.45-6.9 1.75-1.65 4.55-.65q5 .3 6.4 3.05l.5 1.65 8.65-2.1m-23.3 6.65-.25 1.15-.5 2.3m4.1 3.25-2.5 3.65-.05.1-2.9 4.4-1.1 2.75-1.2 2.75 11.15 5.25q4.15 5.6 5.35 8.5l3.1 1.3 2.95.35 4.95.6.3.05 2.55-2.55 2.5-2.5-.95-12m-12.55 6.5-.55-.95m-9.05 7.95-.05-1.5m1.45-5.75 3.35.9m2.6-2.55 1.15.95m12.1 8.95h3.3l4.7-1.75 4.95-3.85 1 4.3-1 3.35q5.95-1.65 9.9-1.1-1.8-.9-2-2.25.95-1.9 5.75-5.2 6.65-3.2 14.7-3.65 3.8.25 3.7 3.55l4.4-3.95q.5-.4 1.85-.75L39.5-172.2m-70.35-9.6-6.1 1.2-5.75 2v1.65l7.7 7.25 2.6-.85m-2.6.85-1.5 1.15m30.2 28.2 1.9-1.9m-2.05 2.1.15-.2m-22.95 23.05q-2.6 5.2-1 10.35l3.95 5.35 8.7-4.95q5.75-3.4 10.65-6.4l8.4-6.15 4.65-4.7q-.9-2.95 7.1-7.3l3.05-7.8h-.65M-32.8-106l2.55-.95m-.85-73.7-2.1 2.3q4.3 5.2 3.2 6.9m46.6 3.9-.65 1.6 3.15 1.75 12-.4 2.6.8h.1l2.05-2.85-2.05-4.3-.75.05m.75 7.1 1.85-.2m4.45 9.45-3.1 2.7q-4.95 5.9-8 13-1.1 2.5-1.95 5.15-1.25 8.5-3.95 17.25l-1.85 5.6q.3 4.45 2 8.85l1.55 2q3.8 4.3 9.6 4.6 4.4-.65 8.8-1.95m17.9-55.8-1.7-.8-3.15-2.6q-2.75-1.9-6.4-3.3l-3.5.6m11.2-3.95 1.45 2.45.4 6.8m-9.55-5.9 4.8-4.75 1.75-.6 1.15 2m3.55 10.05 2.95 1.5 4.2 5.75m-53.1-18.4-.2.1.1.05m6.1 18.1q-2-.35-3.2-.95m-2.8-17.3.8-1.65m.3 27.05 5.65 1.65 7.1-1.6M6.1-123.8q9.45.75 17 7.35m-39.3-69.9 2.1 6.45m59.55 87.95L43.3-88.4m13.5 11.1 6.35 2.9m-47.7-15.05-2.2 4.4q-1.2 5.4-1.45 10.65-.35 6.95 1 13.5 2.7-3.65 8-4.35M57.6-87l-2 1.55q-1.5 4.1 1.2 8.15M15.45-89.45q3.7-6.65 9.35-10.55M3.3-38.9q0 3.05.45 6 .5 3.5 1.55 6.8l.4 1.3 1.65 3.9q1.05 2.2 2.35 4.25m41-37.55.6.6.4.95q2.55 6.3 2 13.2l-3 5.55 1.5 7.6q3.1-1.8 8.05-3.1M12.8-60.9q-7.45 8.85-9.5 20.55v1.45q-50.1.75-52.7-31.55-.9 7.15 1.45 15.4 2.1 7.25 6.7 15.4 2.65 4.7 6.4 8.4m48.55-4.3-3.65 4.35 5.15 7.75 12.8-.4 1.3-5.2-6.7-1.1m28.1-3.75-.7-3.65m-76.35-64.05h.05-.05m-3.1 1.75 1-.2q7.7-.25 40.25 25.65m-51.7-16.3q-4.35 5.45-7.5 12.85-1.5 3.5-2 7.4m-3.75 22.55v-4.85l-1.5.9m2.9 7.3v-4l-1.4.65-3.8 1.75-2.65 3.6m7.85-2h2.35l2.2 9.5-2.2 3.35-1.95-1.7-1.6.25m1.2-11.4-5.95 3.7-2.8 5.35m112.7 9.2-.6 2.7 2.95 5.5q.3.8.9-.15m-25.8 23.6 3.2-5.5q2.3-1.1 5.05-.1 3 2.1 3.65 4l.15 1.3-3.5 6.6-1.55.9m1.25-26.1q9.85-3.35 13.7-10.05M48.95-9.85l-.65 5.2M10.75-15.3Q15-11 21.5-10.25h5.8m-11.55 8.6L17.7 2.3l2.25-4.6.2-.05 6.7.2.15.05.45 1.55m.2.6 1.75 5.3-1.45 4.9m1.7-4.9-.05.05-1.1 5M7.35 6.25l.5-3.6L7.2.75l3.55-4.25 4.2.3.8 1.5m1.85 4.3.1-.3-.15.15.05.15.3 3.75.2 2.4.05.45m-1 0 .75-2.85" transform="translate(192.55 294)"/><path stroke-linejoin="round" stroke-linecap="round" stroke="#0c0c0c" fill="none" d="m-27.55-186.4 1 1.95-1.2 6.7-.95.45m12.8 21.35 5.2 4.3-1.3 2.05m45.8-21.35 3.1-.25m-10.2.8-3.5.3-6.6 2.55m-8.55-7-1 2.35 2.5 7.4m1.75-.35 1.4 1.55 2.25-.6m11.75-6.2 6.35-.5" transform="translate(192.55 294)"/><path stroke-opacity=".38" stroke-linejoin="round" stroke-linecap="round" stroke="#00f90c" fill="none" d="m-29.65-99.7.2-.15" transform="translate(192.55 294)"/><path fill-rule="evenodd" fill="#fff" d="M26.1-226.4q-1.7 1.75-4.15 1.75t-4.15-1.75q-1.7-1.7-1.7-4.15 0-2.4 1.7-4.15 1.7-1.7 4.15-1.7t4.15 1.7q1.7 1.75 1.7 4.15 0 2.45-1.7 4.15m-3.45 38.2q-.75.75-1.8.75-1.1 0-1.85-.75t-.75-1.85q0-1.05.75-1.8.75-.8 1.85-.8 1.05 0 1.8.8.8.75.8 1.8 0 1.1-.8 1.85m40.15-1.4q-1.05 0-1.85-.75-.75-.75-.75-1.85 0-1.05.75-1.8.8-.8 1.85-.8 1.1 0 1.85.8.75.75.75 1.8 0 1.1-.75 1.85t-1.85.75" transform="translate(192.55 294)"/><path stroke-opacity=".38" stroke-linejoin="round" stroke-linecap="round" stroke="#000" fill="none" d="M26.45-107.15h8.85l3.75 7.3.2.45m-.2-.45-8.7.25-1.5-1.95 2.15-1.5" transform="translate(192.55 294)"/><path fill-rule="evenodd" fill="#d17b14" d="m-58-140.4-9.45 3.15q-4.75 1.9-6.8 3.55-2.1 1.65-5.75 2.75l-6.9.2-1.05-.35-3.4 1.95q-1.2.75-1.2.95l-.6 1.05q-1.1 1.5-3.3 2.15l-4.15.15q-1.95-.55-2.55-2-.45-1.15.05-2.25h-.6q-2.55-.05-6.1-1.4-3.5-1.35-7.55-5.65-4-4.3.85-9.05 4.8-4.8 11.15-7.8 6.3-3 10.75-.85l5.95 3 .2.15 3.2.4q3.4 1 4.5 3.55.7 1.7.05 3.45l2.75.45q1.6.45 2.65 1.25l.65-.25 2.7-.1 1.75.5 4.15-.45 28.6-7.55-34.15 10.5 20.9-5.4-7.55 2.85 14.45-3.25-11.6 3.5-2.6.85m-17.45 5.8-1.5 1.3-3-.3.65-1.3 13.1-4-13.1 4-.65 1.3 3 .3 1.5-1.3m-19.1 6.05-.55 1.35-3.75-.55.85-1.75 14.35-4.4-14.35 4.4-.85 1.75 3.75.55.55-1.35m-5.1-8.5 2.35.2.3-3.15-5.55-.45-5.55 1.7 1.35 3.85q4.35 1.2 7.55 1.5l4.65-.2 24.8-7.6-24.8 7.6-4.65.2q-3.2-.3-7.55-1.5l-1.35-3.85 5.55-1.7 5.55.45-.3 3.15-2.35-.2m11-13.8.3.8q2.7 2.1 4.3 4.75.3 2.45-2.85 5.4l-2.45 1.6 2.45-1.6q3.15-2.95 2.85-5.4-1.6-2.65-4.3-4.75l-.3-.8" transform="translate(192.55 294)"/><path stroke-linejoin="round" stroke-linecap="round" stroke="#a03014" fill="none" d="m-58-140.4-9.45 3.15q-4.75 1.9-6.8 3.55-2.1 1.65-5.75 2.75l-6.9.2-1.05-.35-3.4 1.95q-1.2.75-1.2.95l-.6 1.05q-1.1 1.5-3.3 2.15l-4.15.15q-1.95-.55-2.55-2-.45-1.15.05-2.25h-.6q-2.55-.05-6.1-1.4-3.5-1.35-7.55-5.65-4-4.3.85-9.05 4.8-4.8 11.15-7.8 6.3-3 10.75-.85l5.95 3 .2.15 3.2.4q3.4 1 4.5 3.55.7 1.7.05 3.45l2.75.45q1.6.45 2.65 1.25l.65-.25 2.7-.1 1.75.5 4.15-.45 28.6-7.55-34.15 10.5 20.9-5.4-7.55 2.85 14.45-3.25-11.6 3.5-2.6.85m-31.35 2.1 2.45-1.6q3.15-2.95 2.85-5.4-1.6-2.65-4.3-4.75l-.3-.8m18.9 9.65-24.8 7.6-4.65.2q-3.2-.3-7.55-1.5l-1.35-3.85 5.55-1.7 5.55.45-.3 3.15-2.35-.2m16 3.15L-98-129.5l-.85 1.75 3.75.55.55-1.35m28.35-10.35-13.1 4-.65 1.3 3 .3 1.5-1.3" transform="translate(192.55 294)"/><path fill-rule="evenodd" fill="#eaa915" d="m-134.5-205.05.15.85.1-.45q3.25 7.25 4.75 13.7-.45 5.4-6.05 10.2l-4 2.25q-8.4 5.15-16.05 5.85 3.95 1.85 6.85 1.8l38.8-4.65 2.3-.25 3.3.55 69.15-4.45-78.2 8.2-50.2 5.95q-3.7-1.35-8.4-5.9-4.75-4.5-9.25-15.65-4.5-11.1 4.15-19 8.65-7.95 18.95-11.4 10.25-3.45 15.95 3.25l7.7 9.15m-20.6 24.4 3.45 1.5 1.45-6.6-7.95-3.5-8.7 1 .75 8.9q5.9 4.6 10.5 6.7-4.6-2.1-10.5-6.7l-.75-8.9 8.7-1 7.95 3.5-1.45 6.6-3.45-1.5" transform="translate(192.55 294)"/><path fill-rule="evenodd" fill="#d17b14" d="m-139.55-178.5 4-2.25q5.6-4.8 6.05-10.2-1.5-6.45-4.75-13.7l-.1.45-.15-.85.25.4q2.45.75 4.55 2.4 4.75 3.7 5.45 9.7.5 4.05-1.05 7.5 2.05.75 3.9 2.2 2.2 1.7 3.45 3.9l1.05-.2q2.2-.25 3.95 1.15l2.45 1.8 2.85.45-2.3.25-38.8 4.65q-2.9.05-6.85-1.8 7.65-.7 16.05-5.85m-24.05 13 50.2-5.95 32.3-1.8-11.95 2.55 32.1-1.45-28 3.4-4.1.5-14.9 2.4q-7.5 1.85-11.05 4.35-3.65 2.55-9.3 3.25-5.75.65-10.2-2.85l-1.4-1.25-5.6 2.55-2.1 1.45q-.45 1.05-1.2 2-2.1 2.7-5.5 3.1-3.4.4-6.1-1.7-2.65-2.15-3.1-5.5-.25-2.6.8-4.7l-.9-.35m29.25-38.7.1-.45-.1.45m-16.05 44.1-1.2 2.7-5.3-2.9 1.8-3.4 22.4-2.65-22.4 2.65-1.8 3.4 5.3 2.9 1.2-2.7m29.95-3.9-2.65 2.1-4.25-2.1 1.3-2.4 20.55-2.4-20.55 2.4-1.3 2.4 4.25 2.1 2.65-2.1" transform="translate(192.55 294)"/><path stroke-linejoin="round" stroke-linecap="round" stroke="#a03014" fill="none" d="m-139.55-178.5 4-2.25q5.6-4.8 6.05-10.2-1.5-6.45-4.75-13.7l-.1.45-.15-.85-7.7-9.15q-5.7-6.7-15.95-3.25-10.3 3.45-18.95 11.4-8.65 7.9-4.15 19 4.5 11.15 9.25 15.65 4.7 4.55 8.4 5.9m50.2-5.95 78.2-8.2m-69.15 4.45-3.3-.55m-2.3.25-38.8 4.65q-2.9.05-6.85-1.8-4.6-2.1-10.5-6.7l-.75-8.9 8.7-1 7.95 3.5-1.45 6.6-3.45-1.5m20.85-24-.1.45m-.15-.85.25.4q2.45.75 4.55 2.4 4.75 3.7 5.45 9.7.5 4.05-1.05 7.5 2.05.75 3.9 2.2 2.2 1.7 3.45 3.9l1.05-.2q2.2-.25 3.95 1.15l2.45 1.8 2.85.45m46.7 3.6-28 3.4-4.1.5-14.9 2.4q-7.5 1.85-11.05 4.35-3.65 2.55-9.3 3.25-5.75.65-10.2-2.85l-1.4-1.25-5.6 2.55-2.1 1.45q-.45 1.05-1.2 2-2.1 2.7-5.5 3.1-3.4.4-6.1-1.7-2.65-2.15-3.1-5.5-.25-2.6.8-4.7l-.9-.35m30.9-.85-22.4 2.65-1.8 3.4 5.3 2.9 1.2-2.7m69.3-13.15-11.95 2.55m-12.45 1.9-20.55 2.4-1.3 2.4 4.25 2.1 2.65-2.1" transform="translate(192.55 294)"/></g></defs><path fill="none" d="M-1-1h628v521H-1z"/><g transform="scale(2)"><use x="184.55" y="241" xlink:href="#b" width="381" transform="translate(-192.55 -294)" height="381"/><use x="-4.15" y="-31.745" xlink:href="#c" width="102.95" transform="matrix(1.8072 0 0 1.6538 70 100.3)" height="45"/></g></svg>