<svg width="444" height="433" xmlns="http://www.w3.org/2000/svg" xmlns:xlink="http://www.w3.org/1999/xlink"><defs><g id="b" stroke-opacity="0" stroke-linejoin="round" stroke-linecap="round" stroke="#f0f" fill="none"><path d="M187.95-293.5v380h-380v-380h380" transform="translate(192.55 294)"/><path d="m187.95-293.5-190 190 190 190m-380-380 190 190L-192 86.5M92.95-38.4H-97" transform="translate(192.55 294)"/></g><g id="d"><path fill-rule="evenodd" fill="#ccc" d="m13.95 118.35 19.1-6.65 18-1.5 72.6 4.15q49.8 7.15 70.75 28.35l-.15 10.45q-14.05 14.45-44.4 14.1l-24.1 2.65-34.2-1.3-37.4-6.3-26.7-8.55-12.4-7.85-11.2-12.65v-2.45l3.55-9 6.55-3.45" transform="translate(.85 170.7)"/><path stroke-width=".05" stroke-linejoin="round" stroke-linecap="round" stroke="#3f0" fill="none" d="m128.8 226.9-6.75 26.75M122.05 253.65l13.95 19.7 18.3 3.4"/><path fill-rule="evenodd" fill="#666" d="m300.5-121-.7-.1q-.4.05-.4.4.1 2.9 1.85 5.45l2.05 1 .55-.1q.3-.1.45-.35l.1-.5q-1.1-3.25-3.5-5.75l-.4-.05m-2.25 9-4.35-15.3-.3-3.85 14.05 17.05-.55.4q-4.8 0-8.85 1.7m-10.5 19.35-.7-3.75 4.55-7.3 9.45-5.5 17.95-1.25 4.35 3.45q3.25 3.25 4.95 7.15L348-96.7l-18.25 10.35q-1.25 6.8-6.4 11.9l-.3.3 5.4 21.75.05.3-.2-.15.15-.15-11.1-17.6-.4-.65 1.25-1.3q1.35-1.9 2.3-3.95l.8-.9q.85-1.75-.9-2.65-2.9-1.5-6.35-.9l-.8.25-.6.4-.1.1-3.75.15-1.6-1.2q3.25-.05 5.6-2.45 2.45-2.4 2.45-5.8t-2.45-5.85q-2.25-2.25-5.65-2.3 3.4.05 5.65 2.3 2.45 2.45 2.45 5.85 0 3.4-2.45 5.8-2.35 2.4-5.6 2.45h-.2l.1-.1-3.3-2.2-.9-7.35 4.25-6.75-.15-.1q-3.4 0-5.85 2.4-2.4 2.45-2.4 5.85l.2.1-.2.3-5 8.25-5.65 2.55q-1-1.35-1.7-2.8l-18.65-1.55L273-85.8l15.25-3.85-.5-3q5.7 4.15.85 12.15h-2.2 2.2q4.85-8-.85-12.15m34.95-12.25q-2.3-3.55-6.45-3.4l-.75.4q-1.8 1.9.1 3.65l3.85 3.55.7 1.15q1.05 2.8 3.6 4l1.9-1.35.4-.35q.15-1.95-.85-3.65l-2.5-4M299.2-69l1.2 2-16.9 9.9.6-3.2-10.8 16.7-5.4-3.35 1.05 3.5 1.25 4.25-19.05 5.55-1-3.2.5-2.7-1.7-1.05 1.7 1.05-10.8 16.7-9.15-5.65-.15-.7 1.45-2.95 9.1-13.5 5.7 3.65 2.15 1.4-1-3.3.3-.6 3.05-1.3 12.85-3.45 2.85-.8.9 3.1-.9-3.1-2.85.8-.15-.7 1.45-2.95 9.1-13.5 2.65 1.7 2.2 1.4-1.75-2.85.15-.7 2.65-1.95 10.3-5.75 3.9-2.15 4.55 7.7m-23.1-15.15.05.15q5.45 1.85 11.3 1.6l2.1-1.55.1-.15.1-.5-.1-.7-.05-.2q-.25-.4-.75-.45l-5.6-.2-3.5.45-3.35.5-.3.5v.55m4.8 17.75.9 1.55 2.5 4.3 10.3-6.5 1.35-.8-2.85-5.3-12.2 6.75m-2 8.7.8-1.6-4.9-3.2-7.85 11.55 1.5 1 4.15 2.7 6.3-10.45m5.2-2.6-4.7-3 4.7 3m-91.45 9.7 5 1.7-.35 1.95-5.3-2 .65-1.65m59 8.95 1.35 4.8 11.6-3.8 1.65-.65-1.6-5.65-13.5 3.6.5 1.7m-6.2 4.7.8-1.35-4.9-3.45-7.85 11.55 1.5 1 4.15 2.7 6.3-10.45m-26.8 3.25-2.9 7.45-2.65-2.15q-2.9-1.9-6.2-2.25l-.8-.9-2.15-2.05-2.25-1.25-2.25-.45-.3-.5-1.4-1.55-2-1.1-3.25-.35h-.05q-.35-1-.9-1.65-.85-.95-2.2-1.25l2.05-5.6 5.45 2.7-.1.35q-.85 4.4 1.45 6.35.6.5 1.5.85l1.5.45q1.9.35 4.6.05l2.15-2.5 10.7 5.35m2.75-7.05-1 2.6-10.15-3.9 1.35-2.1 9.8 3.4M326.85-93.4l-.1-.1-.1-.1q-1.1-.85-2.55-.8l-.75.2-.1.05-.1.2-.35 1.05q-.65 2.9 1.65 4.75l.85-.1q3.15-.75 2.05-3.85v-.1l.05-.15v-.1l-.05-.1-.3-.5q-.1 0-.1-.05l-.05-.1-.05-.2m16.05-2.85-.55-.15-1.7.45q-3.05.75-5.85 2.2l-.15.2-.15.15q-2.15.7-4 1.85l-.05.55.05 1.4-.1.1-.05.1-.05.1v.35l.15.2.1.1q2.55-.55 4.8-1.95l.55-.35q2.4-1.1 4.25-2.7l.15-.05q2.1-.75 2.7-2.45l-.1-.1m-18.15 8.95-.75.3q-1 .6-1.75 1.4-.1.55-.55.9l-.3.4V-84l-.05.05v.1l-.1.1-.05.1-.05.1q0 .7.3 1.4.55 1.2 1.5 2.15v.1l.05.1v.1l.05.1q1.8 1.1 3.05-.3l-.1-.25-.1-.2v-.1l1-1.2q1.65-1.9.7-4.2l-.05-.1q-1.1-1.3-2.8-1.35m5 .95q.35-2.1.35-4.35 0-4.95-1.8-9.15 1.8 4.2 1.8 9.15 0 2.25-.35 4.35m-18.8-8.3h-.2l-.25.25v.5q.25 1.5 1.05 2.75l.55.1.15-.2.5-.55v-.05q.05-2.1-1.8-2.8m12.1 20.5q-2.65 2.55-5.7 4.15 3.05-1.6 5.7-4.15m-24.3-14.75v.4-.4M314-90.6l-.2-.05h-.25l-.35.25-.8 1.75v.55l-.25.85-.05.05-.1.1-.1.5-.05.45-.4.35q-.65.85-.6 1.9l.1.05.8.1q1.7-1.15 2.7-2.95l.15-.3q.85-2.1-.6-3.6" transform="translate(.85 170.7)"/><path fill-rule="evenodd" fill="#8e8e8e" d="m300.5-121 .4.05q2.4 2.5 3.5 5.75l-.1.5q-.15.25-.45.35l-.55.1-2.05-1q-1.75-2.55-1.85-5.45 0-.35.4-.4l.7.1m22.2 16.1 2.5 4q1 1.7.85 3.65l-.4.35-1.9 1.35q-2.55-1.2-3.6-4l-.7-1.15-3.85-3.55q-1.9-1.75-.1-3.65l.75-.4q4.15-.15 6.45 3.4m-46.6 20.75v-.55l.3-.5 3.35-.5 3.5-.45 5.6.2q.5.05.75.45l.05.2.1.7-.1.5-.1.15-2.1 1.55q-5.85.25-11.3-1.6l-.05-.15m66.8-12.1.1.1q-.6 1.7-2.7 2.45l-.15.05q-1.85 1.6-4.25 2.7l-.55.35q-2.25 1.4-4.8 1.95l-.1-.1-.15-.2v-.35l.05-.1.05-.1.1-.1-.05-1.4.05-.55q1.85-1.15 4-1.85l.15-.15.15-.2q2.8-1.45 5.85-2.2l1.7-.45.55.15m-16.05 2.85.05.2.05.1q0 .05.1.05l.3.5.05.1v.1l-.05.15v.1q1.1 3.1-2.05 3.85l-.85.1q-2.3-1.85-1.65-4.75l.35-1.05.1-.2.1-.05.75-.2q1.45-.05 2.55.8l.1.1.1.1m-15.9-1.25q1.85.7 1.8 2.8v.05l-.5.55-.15.2-.55-.1q-.8-1.25-1.05-2.75v-.5l.25-.25h.2M314-90.6q1.45 1.5.6 3.6l-.15.3q-1 1.8-2.7 2.95l-.8-.1-.1-.05q-.05-1.05.6-1.9l.4-.35.05-.45.1-.5.1-.1.05-.05.25-.85v-.55l.8-1.75.35-.25h.25l.2.05" transform="translate(.85 170.7)"/><path fill-rule="evenodd" fill="#4b4b4b" d="M298.25-112q-1.6.65-3.05 1.55 1.45-.9 3.05-1.55 4.05-1.7 8.85-1.7l.9.05q6.1.15 11 3.2l-17.95 1.25-9.45 5.5-4.55 7.3.7 3.75-3.05-1.65 3.05 1.65.5 3L273-85.8l11.35-8.2.35-.3-.3-.05q1-7.25 6.4-12.65 2.05-2.05 4.4-3.45l-1.3-16.85 4.35 15.3m30.05 59.75-18-15.65-3.2.2q-4.2 0-7.9-1.3l-4.55-7.7-3.9 2.15q-1.5-1.5-2.65-3.15l5.65-2.55 5-8.25.2-.3-.2-.1q0-3.4 2.4-5.85 2.45-2.4 5.85-2.4l.15.1-4.25 6.75.9 7.35 3.3 2.2-.1.1h.2l1.6 1.2 3.75-.15.1-.1.6-.4.8-.25q3.45-.6 6.35.9 1.75.9.9 2.65l-.8.9q-.95 2.05-2.3 3.95l-1.25 1.3.4.65q-3.3 1.6-7.05 2.1 3.75-.5 7.05-2.1l11.1 17.6-.15.15m-3.55-35.05q1.7.05 2.8 1.35l.05.1q.95 2.3-.7 4.2l-1 1.2v.1l.1.2.1.25q-1.25 1.4-3.05.3l-.05-.1v-.1l-.05-.1v-.1q-.95-.95-1.5-2.15-.3-.7-.3-1.4l.05-.1.05-.1.1-.1v-.1l.05-.05V-84.3l.3-.4q.45-.35.55-.9.75-.8 1.75-1.4l.75-.3M307-80.65q-3.4 0-5.85-2.45-2.25-2.25-2.4-5.4.15 3.15 2.4 5.4 2.45 2.45 5.85 2.45" transform="translate(.85 170.7)"/><path fill-rule="evenodd" fill="#424242" d="m300.4-67-3.05 4-14.7 8.5-9.1 13.85-4.6-2.8-1.05-3.5 5.4 3.35 10.8-16.7-.6 3.2-.35 1.75-.5.85.5-.85.35-1.75 16.9-9.9m-30.2 27.8-3.95 3.1-16.85 4.85-.6-1.95-8.7 13.3-8.85-5.4-.55-3.2 9.15 5.65 10.8-16.7-.5 2.7 1 3.2 19.05-5.55M246.8-42l1.15-1.9 1 3.3-2.15-1.4m30.4-22.7.45-1.45 1.75 2.85-2.2-1.4m4.6-.15-.9-1.55 12.2-6.75 2.85 5.3-1.35.8-2.5-3.55-10.3 5.75m-2.1 5.55-.8 1.6-3.85-2.1-6.6 9.85-1.5-1 7.85-11.55 4.9 3.2m-52.65 23.55h2.5l-4.4 12.4L223.1-26l3.95-9.75m37.55-4.9-1.55-4.1-11.4 3.1-.5-1.7 13.5-3.6 1.6 5.65-1.65.65M235-29.2l-1.5-1 7.85-11.55 4.9 3.45-.8 1.35-3.85-2.1-6.6 9.85m15.15-7.65-.45 2.25-.9 1.4.9-1.4.45-2.25" transform="translate(.85 170.7)"/><path fill-rule="evenodd" fill="#586569" d="M224.8-104.35q4.05 13.4 6.85 27.15-1.5 20.15-7.75 37.35l-2.5-.9-9.8-3.4-1.35 2.1-2.3 3-2.15 2.5q-2.7.3-4.6-.05l-.9-3.25.9-10.5-2.55-3.8-1 5.25-5-1.7-.85-.3 3.65-14.75 2.85-15.3.65-12.95q2.25-1.45 1.5-3.85l5.2-3.55 1.95-3.4 1.65-9.3-1.65 9.3-1.95 3.4-5.2 3.55q-1.6-10.15-13.1-15.65l-1.15-.55.05-.05 4.65-3.7q13.8-6.3 18 1.85l.35 1.85 9.55 4.9 6 4.75m-8.3 78.9-2.45 3.5-.7.9-3.2 3.85q-7.5 6-11 0-1.45.75-2.65 1l-.55.85v-.8q-3 .2-4.25-3.4-6.8 2.55-7.85-3.15-2.75.8-4.45.5l-.4-2.9 2.85-4.5v-.05l5.65-8.5 4.05-2.3q.55.65.9 1.65l-.85 2.1.85-2.1h.05l-.9 2.1-.9 2.05-.85 1.8 3.35-3.6 2.55-2 2 1.1 1.4 1.55.3.5-2.1 3.2-1.5 3.55 8.1-5.05 2.15 2.05.8.9-3.85 5-.8 1.45 6.6-2.25 4.25-1.95 2.65 2.15.75.8M198.9-55.4l-.25 1.25.25-1.25m-82.55-72.5.8-3.25 1.55-1.65 2.05-1q2.6-.45 6.35.7l7.75 3.2q3.25 2.65 7.85 4.85l22.1 10.25-.3 1-5.85 7.45-2.55 5.65-.6 6 .4 4.2q-8.25-2.1-10.6-3.15-4.6-1.95-8.3-3.8-10.65-5.35-14-9.65-3.6-4.65-4.85-7.1l-1.8-5.85v-7.85m69.9 13.9 1.1.6-1.1-.6m-108.5-6.05 6.15-4.4 14.15-8.65 9.2-3.5q4.75 10.55 4.45 25.25-4.7 2.5-8.75 6.1-7.9 6.85-13.4 17.65-4-18.5-11.8-32.45m42.35-19.65-.35.65-.1-.55.45-.1m-34.65 119q2.95-7.35 4.65-15.4l3.1-1.1 5.9-1.35 7.2.95 9.55 2.85 10.7 7.55.45.9q1 2.05 1.65 4.25l.6 2.25.45 2.25q.65 4.7-.05 9.85-10.9 16.9-39.35 3.95L86.8-6.2 85.65-7q-4-3.1-3.4-6.75l2.5-5.25.7-1.7m111.05 4.5-.55.05.55-.05m18.1-33.25-3 5.3 3-5.3" transform="translate(.85 170.7)"/><path fill-rule="evenodd" fill="#864b11" d="m223.9-39.85 4.25 1.45-1.1 2.65L223.1-26l-1.4 3.3-5.2-2.75-.75-.8 2.9-7.45 1.75-4.45 1-2.6 2.5.9M191.8-50.9l.85.3-.65 1.65-.6 1.65-2.05 5.6-3.15.1 1.9-4.65q-5.2 5.9-15.55 7.2.65-1.95.65-4.1 0-7-7-11.95v-.15q12.4-2.6 17.2-5.35 7.8-3.4 9.25-12.05l.3-3.5.2 3.45q-.5 11.4-3.3 21.15l1.95.65m-76.4-41.8.65.05-.65-.05q-10.55-4.15-7.85-10.9 4.05-3.65 11.25-3.7l3.05 4.05 7.35 4.8-12.25-1.5-4.95 2.2 4.05 5.1q8.35.2 15.7-.05l-12.9 3.65-7.15 4.95.3 6.9-3.45-1.05L112-77.2q6.15 1.8 12.1 2.6l-8.7 5.75-4.05 6.5.65 8 .85.45q4.4 2.2 10.45 3l-1.5 6.55 1.8 7.5 2.45 2.85q-2.3-.4-5.25-1.35l-5.1-4.4-12.75-7.95-3.8-.7.2-7.05 3.9-6.05 1.6.65q-6.75-14.45 3.7-17.4-9.75-7.8 1.7-14.45h5.15m-10.55 31.85q2.65 4.05 7.15 6.5-4.5-2.45-7.15-6.5m29.55 26.5q-5.4-3.85-5.4-9.2 0-5.6 5.85-9.6 4.8-3.25 11.25-3.8l2.85-.15 5.05.4 9.6 7.7.5 1.9-9.1 4.55 10.35.5.25.95-1.3 6.2-1.25.9q-5.85 4-14.1 4-5.25 0-9.5-1.6-1.3-.5-2.45-1.1-1.1-.6-2.15-1.3l-.45-.35m55.45-17.2-.45 1.6-1.3 3.7 1.3-3.7.45-1.6" transform="translate(.85 170.7)"/><path fill-rule="evenodd" fill="#888" d="m220.4-38.15-1.75 4.45-10.7-5.35 2.3-3 10.15 3.9m-23.1-8.8-.45 2.35-5.45-2.7.6-1.65 5.3 2" transform="translate(.85 170.7)"/><path fill-rule="evenodd" fill="#65401b" d="m195.9-7.85 6.85 3.6Q220.5-20 226.65-17.2l5.15 2.85q-7.7.65-12.05 4.1-7.75 4-11.5 10.5 1.65 1.35 3.9 4.55h10q1.7 2.6 3.05 5.35l-7.9-2.2-14.1 7.25-10.95 9.3-12.9-7.65L164.4 16q-9.2.7-15.35 3.65-7.7 2.1-12.5 7.25l-2.9 3.65-13.5-15.75 9.5-5V6.65L146.45.5q-1-3.05-2.2-5.7l-.35-.75Q139.6-15 132.75-19.7l-4.1-2.35q-.65-2.2-1.65-4.25l.65-.15q3.5-.6 6.65.05 6 1.2 10.65 6.9 3.45 4.25 6.2 10.95l.4 1 2.8-1.4 12.9-3.1h13.7l12.4 2.85 2.55 1.35m33.85 44.55q6.05 1.75 10.2 5.95 3.7 3.7 5.95 9.4l.95 10.45q-2.5-3.65-3.95-4.65l-1.7-1.1-4.85-2.9-.6-.7-7.1-7.85q.8-4.45 1.1-8.6m32.3 58.7-.6 4.55-6.05 2.35-6.75 1.3-4.85-.45 3.2-2.25q7.7-.25 12.75-3.9l1.95-1.7.15-.1.2.2M210 130.85q-18.6.45-33.75-3.75l-9.15-7.15-.1-.2q3-1.3 6.2-3l2.15-11.5-3.95-38.45 2.55-6.5h5.15l1.65 2.3q-1.7.35-3.45 1.35.45 10.55.5 20.25l3.85 5.3-3.85-1.35q-.05 14.25-.95 26.55l-3.65 2.05 3.65-2.05q7.75 4.25 18-.7 5.8-2.85 12.4-8.7 8.95 3.95 18.15 3.5l-3.75 1.65-12.9-1.05-11 4.45-7.85 5.7q.4 3.95 4.9 5.7 7.35 4.4 15.2 5.6M146.7 152q-6.65-11.15-13.1-26.35l7.75-1.15.85 11.55 6.75 12.85q-1.2 1.4-2.25 3.1m-38.65 2.55q-12.25-10.7-6-36.75l-6.8-2.35-16.9-9.2-13.8-9.5-11-10.5-.25-10.1q2.4 6.9 11.95 14.9l11 8.85 25.7 16.95 6.3 3.45-3.15 9.05-.45 10.7 1.9 6.05 3.1 5.45-1.6 3M18.6 79.65Q28.7 70.1 39.7 63.2l-4.25-10.45v-23.7l5.85-17.8q-4.5-3.15-17.6-3.7l.35-2.6L22.8 3.3h13.35Q40 5.65 44 6.8q5.65 1.65 11.55.95 16.6-2 26.7-21.5-.6 3.65 3.4 6.75l1.15.8-3.05 11.55L88.7 8.1l-2.5 1q-2.15 2.9-2.55 4.2-1.85 3.65-2.25 9.45 5.4 9.4 11.3 17.5l5.45 7.05q7.65 1.8 12.4 1.75 6 .45 10.8-.15l-6.2 8.7L110.8 79q-.75 10.2 2.8 16.35l14.2 18.75-9.95-6.4-13.8-17.1q-3.9-11.2 0-27.55l5.15-11.1-10.5-1.2-4.85-2.35-8-7.15-7.95-5.85-4.15-2.25-6.8-.75-11.8 1.75-7.85 6.1L43 49.9q-2.05 4.8 0 10.35l.7 7.25-12.5 7.4-9.25 7.5-1.2 1.35q-1.25-1.95-2.15-4.1m204.45-43.4.95 5.05-2.2 1.55-4.6 2.55-6.85 2.4-5.65-1q-4.95-1.1-6.15-3.6l-1.25-2.8 2 2.1.45.35q4 3.05 9.65 3.05t9.65-3.05q3.7-2.75 4-6.6m-1.85-5.85-2.15-2.1q-4-3-9.95-2.75.95-3.2 3.95-5.25 4.7 1.35 4.95 3.45 3.45 2.35 3.2 6.65m-23.05 46.25.5-3.75 3.5-6.1 7-10 6.3-4.9 7.85 1.55-5.95 3.1-7.25 7.65-5.65 9.75-2.55 10.8-.1.05q-1.8-4.55-3.65-8.15M41.3 11.25 44 6.8l-2.7 4.45m166.95-11-5.5-4.5 5.5 4.5m-48.6 12.05q23.3-6.45 34.75 5.5 10.9-13.05 17.75-13-6.85-.05-17.75 13-11.45-11.95-34.75-5.5m4.3 30.5q.8.85 1.9 1.65 4.2 3.05 10.1 3.05 5.9 0 10.05-3.05 2.35-1.7 3.4-3.8l.25-.5-.2.55-.05-.05.05.05-1.5 4.9-3.4 3.75-7.85.85q-6.1.95-13.7-1.35l-3.8-2.4q-2.8-1.8-3.25-8.15-.45-6.4 2.85-10.05 3.25-3.65 5.95-3.85 5.35 2.1 8.35 3.95-4.4-.5-7.25 1.55-4.15 3.05-4.15 7.3 0 3.15 2.25 5.6M153-3.4l-1.45-4.15L153-3.4" transform="translate(.85 170.7)"/><path fill-rule="evenodd" fill="#996128" d="m231.8-14.35 4.85 2.65q-17.15 2.3-24.5 16.5-2.25-3.2-3.9-4.55 3.75-6.5 11.5-10.5 4.35-3.45 12.05-4.1m-5.3 27.4q4.15 10.55 3.25 23.65-.3 4.15-1.1 8.6l7.1 7.85-11.35-.3-1.1.6-7.85-1.55-6.3 4.9-7 10-3.5 6.1-.5 3.75q-7.55-14.75-15.8-14.3l-1.6.25-1.65-2.3h-5.15l-2.55 6.5 3.95 38.45-2.15 11.5q-3.2 1.7-6.2 3l-.4.15h-4.5q5.1 12.5 6.15 22.55-11.65-2.7-19.3 6.45l-6.75-12.85-.85-11.55-7.75 1.15-.15-.35h-9.75q5.7 7.2 7.55 16.8-14-3.2-21.6 9.45l-3.1-5.45-1.9-6.05.45-10.7 3.15-9.05-6.3-3.45-25.7-16.95-11-8.85q-9.55-8-11.95-14.9l.25 10.1-.75-.75q-4.4 9.7-11.9 12.55-14.25-5.15-20.15-14.3l1.2-1.35 9.25-7.5 12.5-7.4-.7-7.25q-2.05-5.55 0-10.35l4.3-9.65 7.85-6.1 11.8-1.75 6.8.75 4.15 2.25 7.95 5.85 8 7.15 4.85 2.35 10.5 1.2-5.15 11.1q-3.9 16.35 0 27.55l13.8 17.1 9.95 6.4-14.2-18.75q-3.55-6.15-2.8-16.35l4.35-21.4 6.2-8.7q3.8-.45 6.8-1.6 7.9-7.55 7-15l-1.5-1.75 2.9-3.65q4.8-5.15 12.5-7.25Q155.2 16.7 164.4 16l14.95.85 12.9 7.65 10.95-9.3 14.1-7.25 7.9 2.2 1.3 2.9m34.95 86.9-.75 5.4-8.6 9.95-9.75 7.3-27.75 8.05-4.6.2q-7.85-1.2-15.2-5.6-4.5-1.75-4.9-5.7l7.85-5.7 11-4.45 12.9 1.05 3.75-1.65q5.5-.3 11.05-2.15 3.9-1.3 7.35-3.5l4.85.45 6.75-1.3 6.05-2.35M162.1 119.9q-8.55 3.35-26.5-.75l-7.8-5.05 7.8 5.05q17.95 4.1 26.5.75m59.35-89.15-.25-.35q.25-4.3-3.2-6.65-.25-2.1-4.95-3.45-3 2.05-3.95 5.25l-5.6 6.4-.7.45-1.6 2.05-2.2 2.2-.35-.1.3.3q-1.1 3.05-2.45 2.2l.8 1.35 1.25 2.8q1.2 2.5 6.15 3.6l5.65 1 6.85-2.4 4.6-2.55 2.2-1.55-.95-5.05v-.65q0-1.65-.6-3.1l-.05-.1-.15-.35-.8-1.3m-25.1 8.75.15-.45-.15.45m5.45 45.3.1-.05.1.55-.15-.35-.05-.15M129.7-17.55l-.45-2.25-.6-2.25 4.1 2.35Q139.6-15 143.9-5.95L135-13.9l-3.9-2.85-1.4-.8m61.9 60.05-2.15-1.8 2.15 1.8m-2.2-1.85-6.5-5.45-6.1-5.7-.2.05-3.5-1.2q-3-1.85-8.35-3.95-2.7.2-5.95 3.85-3.3 3.65-2.85 10.05.45 6.35 3.25 8.15l3.8 2.4q7.6 2.3 13.7 1.35l7.85-.85 3.4-3.75 1.5-4.9.2-.55-.25.5M164.75 24.4q-1.8-1.05-8.6.05 6.8-1.1 8.6-.05m-14.7 64.4-3.35 5.9-11.05-7.45V73.3l8.15-8.2 13.75 6.5.25 21.7-7.95 10.8-15.4-4.1-11.1-12.5 3.15-20.2-4.8-1.4-2.45 20.65 10.15 16.1 15.4 6.25 11.3-6 6.75-11.3-1.95-23.35L142.6 62l-9.35 9.4-1.7 17.8 14.7 8.15 6.25-7.9-3.25-15.4-2.8 1.2 3.6 13.55m63-68.5q3.85-2.7 9.7-4-5.85 1.3-9.7 4" transform="translate(.85 170.7)"/><path fill-rule="evenodd" fill="#3c4344" d="m195.95-15.35-.05 7.5-2.55-1.35-12.4-2.85h-13.7l4.15-7.25 5.3-7.1v-.05l2.3-3 .15-.25q4.1-5.55 7.05-11.9l3.15-.1q1.35.3 2.2 1.25l-4.05 2.3-5.65 8.5v.05L179-25.1l.4 2.9q1.7.3 4.45-.5 1.05 5.7 7.85 3.15 1.25 3.6 4.25 3.4v.8m-100.7 130.8q-.95 4.3-7.1 5.7-4.95-1-5.45-3.4-2.75 3.75-8.3-6.15 2.3-4.05 3.95-5.35l16.9 9.2m-23.9-245.4 1.05-.7.35-.4 5.6-5.4 5.55-5.5 1.15-.95 3.8-2 7.6-2.85 2.3-.8q5.25 4.95 8.4 11.7l.1.25-9.2 3.5-14.15 8.65-6.15 4.4q-2.9-5.15-6.25-9.65l-.15-.25m40.1-23.9 4.55-1.25 2.4 2.4 1.8 2.95 1.15 8.1-1.25 1.95 1.25-1.95 3.3-4.05 9.75-9.85 5.3-5.2 3.95-3.5 8.55-2q12.35-2.5 27.25 2.85l8.3 3.5-.1.2.25-.1.35-.15q8.8-4.05 20.9.25-9.95 1.1-18.75 5.3l-2.75-5.3 2.75 5.3 2.75 5.35q-5.8 1.35-10.55 5.35-2.45 2-4.6 4.7-1.95-4.8-9.7-10.05 7.75 5.25 9.7 10.05 2.15-2.7 4.6-4.7 4.75-4 10.55-5.35 3.25.05 3.5 2.6l20.5 19.75q4.25 11.05 7.65 22.35l-6-4.75-9.55-4.9-.35-1.85q-4.2-8.15-18-1.85l-4.65 3.7-.75-.25.75.25-.05.05-.7-.3-3.25-1.2-1.85-.6-1.55-.45-.4-.1-.3-.1q-7.55 2.3-12.35 6.15l-1.1.9-2.5 2.6Q158.05-102 157.3-95q-.25 2.3-.15 4.8l-1.25-.3-.4-4.2.6-6 2.55-5.65 5.85-7.45.3-1-22.1-10.25q-4.6-2.2-7.85-4.85l-7.75-3.2q-3.75-1.15-6.35-.7l-2.05 1-1.55 1.65-.8 3.25v-2.5l3.4-8.65.35-.65-.45.1-.4-1.9q-1.8-7-7.8-12.35m12.2-15.85q9.2-1.2 16.25 8.7l-.2.25-5.3 5.2q-3.3-7.85-10.75-14.15m75.3 75.8-.65 12.95-2.85 15.3-3.65 14.75-1.95-.65q2.8-9.75 3.3-21.15l-.2-3.45q-1-11.95-4.55-14.95l5.6-1.15q2.15-.4 3.6-.95l1.35-.7m-1.3 45 1-5.25 2.55 3.8-.9 10.5.9 3.25-1.5-.45q-.9-.35-1.5-.85-2.3-1.95-1.45-6.35l.1-.35.45-2.35.35-1.95M168.3-149.05q1.45.55 2.7 1.45l.05.15.5.4h.2l.95.75.8.05q.2-.95-.7-1.65l-1.65-1.1-.1-.1q-2.45-2.5-6-2.6l-2.1.4q-2.1.3-3.4 1.8v.25l.05.35.05.1q.65.3 1.25-.25l.25-.25 1.3-.25.4.05 1.35-.25 2.5-.05 1.15.6.45.15m-12.6 4.65q2.6-3.9 7.15-5.1-4.55 1.2-7.15 5.1l-.3.55q-1.45 2.3-2.25 5.55l.95.3-1.15 4.75 2.15 5.95 4.95 5.25 4.8 3.25 7.65 1.55 4.7-1 5.65 1.15 4.85-1.55 3.95-2.7 3.85-4.8 1.4-5-.35-6.3.1-.05v-4.95l-3.2-1.65-3.65.85-10.4 7.65-.2.25-.55.8-7.6-6.65-5.95-3.9-3.3-1.1-2.8.45-3.3 1.35M178-139l1.2 3.65L178-139m18.65-7.45v4-4m0 7.15 9 11.9 3.25 11.55-3.25-11.55-9-11.9m-4.75-10.75-2.7-.1q-1.2.25-2.3.9l-3.5 2.3-.35.5q-.55.7-.8 1.55V-144.75l.1.15.1.1q.5.15.9-.2 2.75-2.4 6.25-3.3 1.9-.5 2.45-1.95l-.15-.1M99.15-48.4l3.8.7 12.75 7.95 5.1 4.4q3.95 4.85 5.75 8.15l-10.7-7.55-9.55-2.85-7.2-.95-5.9 1.35-3.1 1.1q1.4-6.6 1.95-13.6l7.1 1.3m96.6 9.95-2.55 2-3.35 3.6.85-1.8.9-2.05.9-2.1 3.25.35m3.7 3.15 2.25.45 2.25 1.25-8.1 5.05 1.5-3.55 2.1-3.2m7.45 4.65q3.3.35 6.2 2.25l-4.25 1.95-6.6 2.25.8-1.45 3.85-5m-30.2 4.25q-.15 3.65 2.7 4.2-2.85-.55-2.7-4.2" transform="translate(.85 170.7)"/><path fill-rule="evenodd" fill="#72481f" d="M236.65-11.7 226.5 13.05l-1.3-2.9q-1.35-2.75-3.05-5.35h-10q7.35-14.2 24.5-16.5m-107 4q.7-5.15.05-9.85l1.4.8 3.9 2.85 8.9 7.95.35.75q1.2 2.65 2.2 5.7l-16.8 6.15V-7.7" transform="translate(.85 170.7)"/><path fill-rule="evenodd" fill="#a7a7a7" d="m221.2 30.4.25.35-.05-.05-10.4-2.75-3.9 1.4-3.6 2.6 5.6-6.4q5.95-.25 9.95 2.75l2.15 2.1m-23.9 10-.8-1.35q1.35.85 2.45-2.2l-.15 3 .5 2.65-2-2.1m-20.7-10.85-4.25.25-5.2 2.9-3.3 3.45-.4 3.4.5 3.25q-2.25-2.45-2.25-5.6 0-4.25 4.15-7.3 2.85-2.05 7.25-1.55l3.5 1.2" transform="translate(.85 170.7)"/><path fill-rule="evenodd" fill="#fff" d="m221.45 30.75.8 1.3.15.35.05.1q.6 1.45.6 3.1v.65q-.3 3.85-4 6.6-4 3.05-9.65 3.05t-9.65-3.05l-.45-.35-.5-2.65.15-3-.3-.3.35.1 2.2-2.2 1.6-2.05.7-.45 3.6-2.6 3.9-1.4 10.4 2.75.05.05m-20.25 3.7 2.3-2.5-2.3 2.5M157.2-137l16.2 5.8v3.8q.5 1 2.15.15v-3.2l2.15.75q-.25 7.9-3.45 10.7-8.35-.3-13.85-6.05-5.5-5.8-3.2-11.95m37.4.5q.95 12.65-8.35 17.25-6.55 2.25-7.1-2.75v-7.2l3.5-1.65v3.35q.4 1.35 1.8-.4l.05-3.8 10.1-4.8M182.9 35.2l6.5 5.45q-1.05 2.1-3.4 3.8-4.15 3.05-10.05 3.05t-10.1-3.05q-1.1-.8-1.9-1.65l-.5-3.25.4-3.4 3.3-3.45 5.2-2.9 4.25-.25.2-.05 6.1 5.7-6.3-5.65 6.3 5.65" transform="translate(.85 170.7)"/><path fill-rule="evenodd" fill="#fbf0b9" d="m248.45 30.85 5.45 1.55q2.1.65 3.95 3.1l-4.2 3.4h6.2q5.75 12.05 7.85 45.45-1.85 6.6-5.65 10.6l-.2.25-.15.1-1.95 1.7 1.85-11.05-6.6 2.95 7.25-8.05-2.15-19.25-5.75.6 4.15-3.75-1.6-6-.8-.9-6.85-5.8-.8-14.9M205.1 94l2.15 11.3q-6.6 5.85-12.4 8.7l.55-6.7 1.45-4.9-7.55-1.8 10.6-2.95-3.85-11.5-12.6-5.15-1.1-18.65q8.25-.45 15.8 14.3 1.85 3.6 3.65 8.15l.05.15.15.35 3.1 8.7M22.45-75.5l.3-.75.55-1.6L26.35-97l6.05 15.65L43.25-64.6l-7.35 9.1-7.45 15.25-.6 1.2-2.05-4.85-1.95-11.05-1.4-20.55" transform="translate(.85 170.7)"/><path fill-rule="evenodd" fill="#eab357" d="m245.9 52.05-3.5-21.5q.5-1.1 6.05.3l.8 14.9 6.85 5.8.8.9 1.6 6-4.15 3.75 5.75-.6 2.15 19.25L255 88.9l6.6-2.95L259.75 97q-5.05 3.65-12.75 3.9 1.9-2.2 3.1-5 5.45-20.9-3.25-33.4l-.95-10.45M180.75 62.6l1.6-.25 1.1 18.65 12.6 5.15 3.85 11.5-10.6 2.95 7.55 1.8-1.45 4.9-.55 6.7q-10.25 4.95-18 .7.9-12.3.95-26.55l3.85 1.35-3.85-5.3q-.05-9.7-.5-20.25 1.75-1 3.45-1.35" transform="translate(.85 170.7)"/><path fill-rule="evenodd" fill="#bc5858" d="m235.75 53.15.6.7q-4.55-1.15-13.55 2.75-16.95 17.25-17.7 37.4l-3.1-8.7-.1-.55 2.55-10.8 5.65-9.75 7.25-7.65 5.95-3.1 1.1-.6 11.35.3m-.35 13.1v-.05q.45-.4 1-.45 2.05-.3 4 3.85 1.95 4.15 2.7 10.3.7 6.05-.2 10.55l-.7 2.4q-.9 2.15-2.3 2.35-1.6.15-3.1-2.3l-.4-.7.1-.15.05.1 1.25-2.25.2-1.8-.1-.2v-.05l.75.6-.65-1.75.2-.3.25-2.7-2.9-17.55-.15.1m-10.6 5.05 1.35-.15q1.95.55 2.25 5.1.25 4.6-1.35 10.55-1.6 5.9-4.1 9.75-2.55 3.8-4.5 3.3-1-.3-1.55-1.55l3.9-5.95 3-11.55 1-9.5" transform="translate(.85 170.7)"/><path fill-rule="evenodd" fill="#9a3f3f" d="m235.4 66.25.15-.1 2.9 17.55-.25 2.7-.2.3.65 1.75-.75-.6v.05l.1.2-.2 1.8-1.25 2.25-.05-.1-.4-.8q-2-4.15-2.7-10.25-.6-4.85-.15-8.6l.35-2q.6-3.1 1.8-4.15M216.9 98.3q-.6-1.3-.7-3.55-.3-4.6 1.3-10.55 1.6-5.95 4.1-9.75 1.7-2.6 3.2-3.15l-1 9.5-3 11.55-3.9 5.95" transform="translate(.85 170.7)"/><path fill-rule="evenodd" fill="#dba4a4" d="m236.35 53.85 4.85 2.9 1.7 1.1q1.45 1 3.95 4.65 8.7 12.5 3.25 33.4-1.2 2.8-3.1 5l-3.2 2.25q-3.45 2.2-7.35 3.5-5.55 1.85-11.05 2.15-9.2.45-18.15-3.5L205.1 94q.75-20.15 17.7-37.4 9-3.9 13.55-2.75m.15 38.2-.1.15.4.7q1.5 2.45 3.1 2.3 1.4-.2 2.3-2.35l.7-2.4q.9-4.5.2-10.55-.75-6.15-2.7-10.3-1.95-4.15-4-3.85-.55.05-1 .45v.05q-1.2 1.05-1.8 4.15l-.35 2q-.45 3.75.15 8.6.7 6.1 2.7 10.25l.4.8m-19.6 6.25q.55 1.25 1.55 1.55 1.95.5 4.5-3.3 2.5-3.85 4.1-9.75 1.6-5.95 1.35-10.55-.3-4.55-2.25-5.1l-1.35.15q-1.5.55-3.2 3.15-2.5 3.8-4.1 9.75-1.6 5.95-1.3 10.55.1 2.25.7 3.55" transform="translate(.85 170.7)"/><path fill-rule="evenodd" fill="#4f3f0b" d="M122.1-156.45q-2.1-8.45 1.55-13.25 7.45 6.3 10.75 14.15l-9.75 9.85-2.55-10.75m87.05-3.25q-6.55 8-12.5 13.25-.25-2.55-3.5-2.6l-2.75-5.35q8.8-4.2 18.75-5.3" transform="translate(.85 170.7)"/><path fill-rule="evenodd" fill="#282d2d" d="m116-155.1 6.1-1.35 2.55 10.75-3.3 4.05-1.15-8.1-1.8-2.95-2.4-2.4m46.85 5.6-.4-.05-1.3.25-.25.25q-.6.55-1.25.25l-.05-.1-.05-.35v-.25q1.3-1.5 3.4-1.8l2.1-.4q3.55.1 6 2.6l.1.1 1.65 1.1q.9.7.7 1.65l-.8-.05-.95-.75h-.2l-.5-.4-.05-.15q-1.25-.9-2.7-1.45l-.45-.15-1.15-.6-2.5.05-1.35.25M154.1-138l3.1 1q-2.3 6.15 3.2 11.95 5.5 5.75 13.85 6.05 3.2-2.8 3.45-10.7l1.45.5v7.2q.55 5 7.1 2.75 9.3-4.6 8.35-17.25l1.95-.95.35 6.3-1.4 5-3.85 4.8-3.95 2.7-4.85 1.55-5.65-1.15-4.7 1-7.65-1.55-4.8-3.25-4.95-5.25-2.15-5.95 1.15-4.75m37.8-12.05.15.1q-.55 1.45-2.45 1.95-3.5.9-6.25 3.3-.4.35-.9.2l-.1-.1-.1-.15V-144.9q.25-.85.8-1.55l.35-.5 3.5-2.3q1.1-.65 2.3-.9l2.7.1" transform="translate(.85 170.7)"/><path fill-rule="evenodd" fill="#4b5658" d="m155.7-144.4 3.3-1.35 2.8-.45 3.3 1.1 5.95 3.9 7.6 6.65.55-.8.75 2.25-.8 3.9.8-3.9-.75-2.25.2-.25 10.4-7.65 3.65-.85 3.2 1.65v4.95l-.1.05-1.95.95-10.1 4.8-1.85.85-3.5 1.65-1.45-.5-2.15-.75-2.15-.75-16.2-5.8-3.1-1-.95-.3q.8-3.25 2.25-5.55l.3-.55" transform="translate(.85 170.7)"/><path fill-rule="evenodd" fill="#f89ecb" d="M157.15-90.2q-.1-2.5.15-4.8.75-7 4.9-12.05l2.5-2.6 1.1-.9q4.8-3.85 12.35-6.15l.3.1.4.1h-.05l-11.15 7.2-4.1 5.7-2.5 6.3-.3 3.95.3 4.65q-2.95-.2-3.65-.85-.3-.3-.25-.65m21.3-26.4.35.1-.35-.1" transform="translate(.85 170.7)"/><path fill-rule="evenodd" fill="#f77bb9" d="m178.85-116.5 1.55.45 1.85.6.65.35-4.1-1.4 4.1 1.4 3.15 1.65 5.75 4.1 4.75 4.6 2.05 4.5.25 4.65-1.25 2.4q-1.45.55-3.6.95l-5.6 1.15-3.6.75q-17.3 2.05-23.75 1.65l-.3-4.65.3-3.95 2.5-6.3 4.1-5.7 11.15-7.2h.05M166.5-94.4q1.05.2 2.55-1 1.9-1.4 3.5-4.1 1.5-2.7 1.8-5.05.3-2.4-.85-3.05l-.95-.2h-.05q-.9.1-2.05.95-1.9 1.45-3.45 4.15-1.55 2.7-1.85 5.05-.3 2.35.85 3.05.25.15.5.2m17-13.65-.35.1q-1.4.65-1 3.05.3 2.35 2.15 5.05 1.85 2.7 4.2 4.1 2.2 1.45 3.6.8.6-.3.9-.95l.1-.2v-.1q.2-.75.05-1.8-.35-2.35-2.2-5.05-1.85-2.7-4.1-4.15-2.05-1.25-3.35-.85" transform="translate(.85 170.7)"/><path fill-rule="evenodd" fill="#7c0742" d="M166.5-94.4q-.25-.05-.5-.2-1.15-.7-.85-3.05.3-2.35 1.85-5.05 1.55-2.7 3.45-4.15 1.15-.85 2.05-.95l-.3 4.45-2.85 5.55-2.85 3.4m26.6-1.8v.1l-.1.2q-.3.65-.9.95-1.4.65-3.6-.8-2.35-1.4-4.2-4.1-1.85-2.7-2.15-5.05-.4-2.4 1-3.05l.35-.1 5.3 4.95 3 4.1 1.25 2.8h.05" transform="translate(.85 170.7)"/><path fill-rule="evenodd" fill="#af0c5e" d="M172.5-107.8h.05l.95.2q1.15.65.85 3.05-.3 2.35-1.8 5.05-1.6 2.7-3.5 4.1-1.5 1.2-2.55 1l2.85-3.4 2.85-5.55.3-4.45m20.6 11.6h-.05L191.8-99l-3-4.1-5.3-4.95q1.3-.4 3.35.85 2.25 1.45 4.1 4.15 1.85 2.7 2.2 5.05.15 1.05-.05 1.8" transform="translate(.85 170.7)"/><path fill-rule="evenodd" d="m173.4-131.2 2.15.75v3.2q-1.65.85-2.15-.15v-3.8m9.25.35 1.85-.85-.05 3.8q-1.4 1.75-1.8.4v-3.35" transform="translate(.85 170.7)"/><path fill-rule="evenodd" fill="#f24fa2" d="M200.45-97.75q.75 2.4-1.5 3.85l-1.35.7 1.25-2.4-.25-4.65-2.05-4.5-4.75-4.6-5.75-4.1-3.15-1.65-.65-.35 3.25 1.2.7.3 1.15.55q11.5 5.5 13.1 15.65M182.9-115.1l2.6.85-2.6-.85" transform="translate(.85 170.7)"/><path fill-rule="evenodd" fill="#c66f1a" d="M25.6-145q5.15-3.05 11.25-3.8 18.55-2.2 34.5 18.85l.15.25q3.35 4.5 6.25 9.65 7.8 13.95 11.8 32.45 1 4.8 1.8 11.7l.5 5.15.1.85q.75 10.4.2 19.2l-.1 1q-.55 7-1.95 13.6-1.7 8.05-4.65 15.4l-.25-15.9.45-30.15-4.5-27.95-13.95-31.1-15.3-15.4-13.55-4.4-12.75.6" transform="translate(.85 170.7)"/><path fill-rule="evenodd" fill="#6b3c0e" d="m133.65 30.55 1.5 1.75-3.6.9q-14.05 2.95-30.5-.25-11.5-9.4-17.4-19.65.4-1.3 2.55-4.2l2.5-1 17.35 9.65 6.9-13.7v13.4l7.2-2.65 13.5 15.75m-17.3-158.45v7.85l1.8 5.85q1.25 2.45 4.85 7.1 3.35 4.3 14 9.65 3.7 1.85 8.3 3.8 2.35 1.05 10.6 3.15l1.25.3q-.05.35.25.65l-3.25.1-8.4-1.95-5.1-1.8-7.6-2.7-3.85-2.55-7.35-4.8-3.05-4.05q-7.2.05-11.25 3.7-2.7 6.75 7.85 10.9h-5.15q-11.45 6.65-1.7 14.45-10.45 2.95-3.7 17.4l-1.6-.65-3.9 6.05-.2 7.05-7.1-1.3.1-1q.55-8.8-.2-19.2l-.1-.85.35.45 4.1-6.25v-6.7l-.3-.05 2.9-12.25 4.05-9.7q4.05-3.6 8.75-6.1.3-14.7-4.45-25.25l-.1-.25 12.1-4.65.4 1.9.1.55-3.4 8.65v2.5M14.6-106.75q1-3.25 2.3-6.3 8.3-19.7 22.5-21.05 14.15-1.35 25.9 16.5l2.75 4.4q9.4 16.6 11.6 39.95 2.45 26.5-5.8 46.2Q65.6-7.35 51.4-6q-9.9.9-18.6-7.45-3.4-3.25-6.6-7.85l-.8-1.2q-2.6-3.9-4.7-8.2-4.35-8.8-6.8-19.3-1.9-7.95-2.75-16.85-.75-8.2-.5-15.75.4-13.05 3.95-24.15m49-6.15-.15-.05-.1-.15q-3.2-4.15-8.25-4.1-4.1 1.55-3.3 6.4.75 4.65 2.15 9.25 3.75 12.25 3.8 25.25 0 4.7 1.7 9.05 2.25 5.7 7.75 3.45.7-.3 1.05-.95Q73-73.2 70.2-82.7l-.1-6q-.75-10.55-5.05-20.3l.2-.4q.45-1.45-.45-2.7l-.75-.7-.45-.1m54.55-1.3-3.35 1.35-3.1 1.5 3.1-1.5 3.35-1.35m4.85 7.1-4.2-.2 4.2.2m22.3 13.45-4.65.45 4.65-.45M103.25-61.5Q97.7-64 92.2-70.3q5.5 6.3 11.05 8.8m22.8 27.5-2.45-2.85-1.8-7.5 1.5-6.55 4.45.35q-2.35 3.35-2.35 7.4 0 5.2 3.9 9.3l-3.25-.15m-61.4-22.35-.3.1q-.45.2-.75.6l-.15.15-.05.25v.35l-.2.2-.15.25-.1.15q0 5.3-1.95 10.2-.75 1.85-1.95 3.35-6.45 7.9.35 14.8 6.85.55 8.4-5.65 1.35-1.35 1.85-3.2.8-3.05 1.15-6.2 1.05-1.5 1.4-3.35.9-4.6-.95-8.6-.6-.25-1.2 0L69.9-53l-.95-1.05-2.5-2.15-.45-.1-1.35-.05m80.3 36.85 7 .15 14.75-2.95 12.3-7.15-2.3 3v.05l-5.3 7.1-4.15 7.25-12.9 3.1-2.8 1.4-.4-1q-2.75-6.7-6.2-10.95M154-56.7l2 .45q2.95.7 5.55 2.15l1.5.95q2.9 2 4.4 4.4l-3.35 1.65-.5-1.9-9.6-7.7m11.35 14.65 3.45.15q-.7 3.95-4.5 7l1.3-6.2-.25-.95m-142.6-34.2-1.05-6.4-.05-1.7 2.7-24.25 3.3-7.85-3.45-3.1-.25.25-5.35 16.05-1.65 20.15.8 18.1.25 1.5-.25.65.55 1.25L21.05-44l-.3.1 1.2 3.6 4.9 10.75L35.6-19l4.8 3.4-.15.25 7.25 4.65 7.3.9-2.85-5.35-14.4-8.65-8.95-13.4.3-.2-.45-2.85L35.9-55.5l7.35-9.1L32.4-81.35 26.35-97 23.3-77.85l-.55 1.6" transform="translate(.85 170.7)"/><path fill-rule="evenodd" fill="#8f5114" d="m63.6-112.9.45.1.75.7q.9 1.25.45 2.7l-.2.4q4.3 9.75 5.05 20.3l.1 6q2.8 9.5-1.95 17.95-.35.65-1.05.95-5.5 2.25-7.75-3.45-1.7-4.35-1.7-9.05-.05-13-3.8-25.25-1.4-4.6-2.15-9.25-.8-4.85 3.3-6.4 5.05-.05 8.25 4.1l.1.15.15.05m1.05 56.55 1.35.05.45.1 2.5 2.15.95 1.05.15.05q.6-.25 1.2 0 1.85 4 .95 8.6-.35 1.85-1.4 3.35-.35 3.15-1.15 6.2-.5 1.85-1.85 3.2-1.55 6.2-8.4 5.65-6.8-6.9-.35-14.8 1.2-1.5 1.95-3.35 1.95-4.9 1.95-10.2l.1-.15.15-.25.2-.2v-.35l.05-.25.15-.15q.3-.4.75-.6l.3-.1" transform="translate(.85 170.7)"/><path fill-rule="evenodd" fill="#a05a14" d="M36.15 3.3Q31.45.45 27-4.15l5.8-9.3Q41.5-5.1 51.4-6q14.2-1.35 22.45-21.05t5.8-46.2q-2.2-23.35-11.6-39.95l-2.75-4.4q-11.75-17.85-25.9-16.5-14.2 1.35-22.5 21.05-1.3 3.05-2.3 6.3L8.3-123.5q6.9-15.4 17.3-21.5l12.75-.6 13.55 4.4 15.3 15.4 13.95 31.1 4.5 27.95-.45 30.15.25 15.9-.7 1.7-2.5 5.25q-10.1 19.5-26.7 21.5-5.9.7-11.55-.95-4-1.15-7.85-3.5M18.8-14.25q-3.45-4.95-6.2-10.45l8.1-6q2.1 4.3 4.7 8.2l.8 1.2-7.4 7.05M3.9-48.8Q2-56.55 1-65.1-.5-77.9.2-89.4l10.45 6.8q-.25 7.55.5 15.75Q12-57.95 13.9-50l-10 1.2m153.5-40.75q.7.65 3.65.85 6.45.4 23.75-1.65 6.65 3.35-1.7 9.75h-1.85 1.85q8.35-6.4 1.7-9.75l3.6-.75q3.55 3 4.55 14.95l-.3 3.5Q191.2-64 183.4-60.6q-4.8 2.75-17.2 5.35h-.2l-2.05-1.3q-2.75-1.5-5.85-2.35-4.05-1.15-8.8-1.15l-1.65.05q-8.85.35-15.25 4.9-2.95 2.1-4.65 4.55l-4.45-.35q-6.05-.8-10.45-3l-.85-.45-.65-8 4.05-6.5 8.7-5.75q-5.95-.8-12.1-2.6l-.3-6.9 7.15-4.95 12.9-3.65q-7.35.25-15.7.05l-4.05-5.1 4.95-2.2 12.25 1.5 3.85 2.55 7.6 2.7 5.1 1.8 8.4 1.95 3.25-.1m-36.6 54.2q2.95.95 5.25 1.35l3.25.15q1.3 1.4 3.1 2.65l.25.2 2 1.25 2 1q5.55 2.5 12.65 2.5 9.9 0 16.9-4.95 4.85-3.45 6.35-7.85 10.35-1.3 15.55-7.2l-1.9 4.65q-2.95 6.35-7.05 11.9l-.15.25-12.3 7.15-14.75 2.95-7-.15q-4.65-5.7-10.65-6.9-3.15-.65-6.65-.05l-.65.15-.45-.9q-1.8-3.3-5.75-8.15m60.45-45.25q-19 4.85-41.05 6.3-7.85.8-16.1-.3 8.25 1.1 16.1.3 22.05-1.45 41.05-6.3l1.4.8q11.8 7.45.75 19.2 11.05-11.75-.75-19.2l-1.4-.8M86.8-6.2l3.5 2.45Q118.75 9.2 129.65-7.7V9.8l-9.5 5-7.2 2.65V4.05l-6.9 13.7L88.7 8.1l-4.95-2.75L86.8-6.2m46.35-86.55 7.5-.45-7.5.45" transform="translate(.85 170.7)"/><path fill-rule="evenodd" fill="#54300c" d="m98.75-148.55 12.7-5.3q6 5.35 7.8 12.35l-12.1 4.65q-3.15-6.75-8.4-11.7M18-63.5l-.25-1.5-.8-18.1 1.65-20.15 5.35-16.05.25-.25 3.45 3.1-3.3 7.85-2.7 24.25.05 1.7 1.05 6.4-.3.75-4.45 12m10.45 23.25.45 2.85-.3.2 8.95 13.4 14.4 8.65L54.8-9.8l-7.3-.9-7.25-4.65.15-.25-4.8-3.4-8.75-10.55-4.9-10.75-1.2-3.6.3-.1-2.75-17.6 7.5 17.7 2.05 4.85.6-1.2" transform="translate(.85 170.7)"/><path fill-rule="evenodd" fill="#4f2d0b" d="M135.15 32.3q.9 7.45-7 15-3 1.15-6.8 1.6-4.8.6-10.8.15-4.75.05-12.4-1.75l-5.45-7.05q-5.9-8.1-11.3-17.5.4-5.8 2.25-9.45 5.9 10.25 17.4 19.65 16.45 3.2 30.5.25l3.6-.9m-32.2-137.55-4.05 9.7L96-83.3l.3.05v6.7l-4.1 6.25-.35-.45-.5-5.15q-.8-6.9-1.8-11.7 5.5-10.8 13.4-17.65" transform="translate(.85 170.7)"/><path fill-rule="evenodd" fill="#8d6c4b" d="M129.3-33.85q-3.9-4.1-3.9-9.3 0-4.05 2.35-7.4 1.7-2.45 4.65-4.55 6.4-4.55 15.25-4.9l-1.55 3.05q-6.45.55-11.25 3.8-5.85 4-5.85 9.6 0 5.35 5.4 9.2L132.65-31l-.25-.2q-1.8-1.25-3.1-2.65m28.8-25.05q3.1.85 5.85 2.35l-2.4 2.45q-2.6-1.45-5.55-2.15l2.1-2.65m-21.45 30.15-2-1L137-32.7q1.15.6 2.45 1.1l-2.8 2.85" transform="translate(.85 170.7)"/><path fill-rule="evenodd" fill="#b18e6b" d="m147.65-60 1.65-.05q4.75 0 8.8 1.15l-2.1 2.65-2-.45-5.05-.4-2.85.15 1.55-3.05m16.3 3.45 2.05 1.3.2.15q7 4.95 7 11.95 0 2.15-.65 4.1-1.5 4.4-6.35 7.85-7 4.95-16.9 4.95-7.1 0-12.65-2.5l2.8-2.85q4.25 1.6 9.5 1.6 8.25 0 14.1-4l1.25-.9q3.8-3.05 4.5-7l-3.45-.15-10.35-.5 9.1-4.55 3.35-1.65q1.45 2.4 1.45 5.2l-.1 1.65.1-1.65q0-2.8-1.45-5.2-1.5-2.4-4.4-4.4l-1.5-.95 2.4-2.45m-29.3 26.8-2-1.25 1.75-3.35.45.35q1.05.7 2.15 1.3l-2.35 2.95" transform="translate(.85 170.7)"/><path fill-rule="evenodd" fill="#804811" d="M27-4.15q-3.15-3.2-6.15-7.2l-2.05-2.9 7.4-7.05q3.2 4.6 6.6 7.85L27-4.15M12.6-24.7Q7.05-35.65 3.9-48.8l10-1.2q2.45 10.5 6.8 19.3l-8.1 6M.2-89.4q1.05-17.8 7.45-32.65l.65-1.45 6.3 16.75q-3.55 11.1-3.95 24.15L.2-89.4" transform="translate(.85 170.7)"/><path fill-rule="evenodd" fill="#f4c559" d="m18-63.5 4.45-12 1.4 20.55L25.8-43.9l-7.5-17.7-.55-1.25.25-.65" transform="translate(.85 170.7)"/><path fill-rule="evenodd" fill="#38230f" d="m23.7 7.55-.55-.05q-4.95 8.4-12.45 7.05l5.25-4.5q-4.9 3.6-9.5.5 1.15-1.45 6.5-4.2-4.2 1.4-7.95-2 2.8-2.8 9.45-2.5-4.1-.35-4.25-4.95 8.3 1.7 12.35 6.15l.2.25h.05l1.25 1.65-.35 2.6" transform="translate(.85 170.7)"/><path fill-rule="evenodd" fill="#634718" d="M168.25 142.45q1.35 12.7-5.15 15.55l-3.05-2.55-3.55 5.7q-5.55-4.3-9.8-9.15 1.05-1.7 2.25-3.1 7.65-9.15 19.3-6.45m-37-.35q1.3 6.85.7 14.9l-6.1-2.95-1.7 7.25q-10.2-1.6-16.1-6.75l1.6-3q7.6-12.65 21.6-9.45M40.9 98.05q-4.4 3.95-9.95 3.85-5.85-.4-9.65-2.25l1.6-6.55-6.95 1.6q-2.4-4.4-.85-11.55l3.5-3.5q.9 2.15 2.15 4.1 5.9 9.15 20.15 14.3" transform="translate(.85 170.7)"/><path fill-rule="evenodd" fill="#a4672b" d="m150.05 88.8-3.6-13.55 2.8-1.2 3.25 15.4-6.25 7.9-14.7-8.15 1.7-17.8 9.35-9.4 18.3 6.25 1.95 23.35-6.75 11.3-11.3 6-15.4-6.25-10.15-16.1 2.45-20.65 4.8 1.4-3.15 20.2 11.1 12.5 15.4 4.1 7.95-10.8-.25-21.7-13.75-6.5-8.15 8.2v13.95l11.05 7.45 3.35-5.9" transform="translate(.85 170.7)"/><path stroke-linejoin="round" stroke-linecap="round" stroke="#4b4b4b" fill="none" d="M295.2-110.45q1.45-.9 3.05-1.55m8.85-1.7q-4.8 0-8.85 1.7m30.05 12.15q1.8 4.2 1.8 9.15 0 2.25-.35 4.35M317.35-70q3.05-1.6 5.7-4.15m-5.7 4.15q-3.3 1.6-7.05 2.1" transform="translate(.85 170.7)"/><path stroke-width=".05" stroke-opacity=".4" stroke-linejoin="round" stroke-linecap="round" stroke="#000" fill="none" d="m294.75 43.4 1.3 16.85q-2.35 1.4-4.4 3.45-5.4 5.4-6.4 12.65m34.6-16.1q-4.9-3.05-11-3.2l-.9-.05m.9.05-.35-.45-14.05-17.05.3 3.85m25.1 16.85 4.35 3.45q3.25 3.25 4.95 7.15l19.7 3.15-18.25 10.35q-1.25 6.8-6.4 11.9l-.3.3 5.4 21.75.05.3-.2-.15-18-15.65-3.2.2q-4.2 0-7.9-1.3m1.2 2-3.05 4-14.7 8.5-9.1 13.85-4.6-2.8m1.25 4.25-3.95 3.1-16.85 4.85-.6-1.95-8.7 13.3-8.85-5.4-.55-3.2-.4-.25.25-.45.15.7m16.1-13.5 1.15-1.9-.15-.45.45-.15-.3.6m16.2-5.35-.4-.25.25-.45.15.7m10.4-17.15 2.65 1.7.45-1.45-.25-.4.4-.3m12.95-7.7q-1.5-1.5-2.65-3.15-1-1.35-1.7-2.8l-18.65-1.55 5.25-3.75 11.35-8.2.05-.35m.3.05-.35.3m-3.45 27.6.9 1.55 10.3-5.75 2.5 3.55m-17.4 2.35 2.2 1.4m-1.75-2.85.15-.7m1.1 9.15.8-1.6m-12.75 8.35 1.5 1 6.6-9.85 3.85 2.1m3.75 3.2.5-.85.35-1.75.6-3.2-10.8 16.7m-48.5-60.75q4.05 13.4 6.85 27.15-1.5 20.15-7.75 37.35l4.25 1.45-1.1 2.65h2.5l-4.4 12.4-2.05-2.65-1.4 3.3-5.2-2.75-2.45 3.5m-.7.9-3.2 3.85q-7.5 6-11 0-1.45.75-2.65 1l-.55.85-.05 7.5 6.85 3.6q17.75-15.75 23.9-12.95l5.15 2.85 4.85 2.65-10.15 24.75q4.15 10.55 3.25 23.65 6.05 1.75 10.2 5.95 3.7 3.7 5.95 9.4m16.15 42.9v.45l-.6 4.55-.75 5.4-8.6 9.95-9.75 7.3-27.75 8.05-4.6.2q-18.6.45-33.75-3.75l-9.15-7.15m-5-.05q5.1 12.5 6.15 22.55 1.35 12.7-5.15 15.55l-3.05-2.55-3.55 5.7q-5.55-4.3-9.8-9.15-6.65-11.15-13.1-26.35l-.15-.35h-9.75q5.7 7.2 7.55 16.8 1.3 6.85.7 14.9l-6.1-2.95L125 332q-10.2-1.6-16.1-6.75-12.25-10.7-6-36.75l-6.8-2.35m-16.9-9.2-13.8-9.5-11-10.5-.75-.75q-4.4 9.7-11.9 12.55-4.4 3.95-9.95 3.85-5.85-.4-9.65-2.25l1.6-6.55-6.95 1.6q-2.4-4.4-.85-11.55l3.5-3.5q10.1-9.55 21.1-16.45l-4.25-10.45v-23.7l5.85-17.8q-4.5-3.15-17.6-3.7l-.55-.05q-4.95 8.4-12.45 7.05l5.25-4.5q-4.9 3.6-9.5.5 1.15-1.45 6.5-4.2-4.2 1.4-7.95-2 2.8-2.8 9.45-2.5-4.1-.35-4.25-4.95 8.3 1.7 12.35 6.15l.2.25H37q-4.7-2.85-9.15-7.45-3.15-3.2-6.15-7.2l-2.05-2.9q-3.45-4.95-6.2-10.45-5.55-10.95-8.7-24.1-1.9-7.75-2.9-16.3-1.5-12.8-.8-24.3Q2.1 63.5 8.5 48.65l.65-1.45q6.9-15.4 17.3-21.5 5.15-3.05 11.25-3.8 18.55-2.2 34.5 18.85l1.05-.7.35-.4 5.6-5.4 5.55-5.5 1.15-.95 3.8-2 7.6-2.85 2.3-.8 12.7-5.3 4.55-1.25 6.1-1.35Q120.85 5.8 124.5 1q9.2-1.2 16.25 8.7l-.2.25 3.95-3.5 8.55-2q12.35-2.5 27.25 2.85l8.3 3.5.15.1.35-.15q8.8-4.05 20.9.25-6.55 8-12.5 13.25L218 44q4.25 11.05 7.65 22.35m-33 53.45.85.3 5 1.7 1-5.25.25-1.25m51.75 15.85-.5 2.7m14.45-3.8-1.55-4.1-11.4 3.1m-16.65 12.45 6.6-9.85 3.85 2.1m3.35 3.75.9-1.4.45-2.25m-34.4 10.6.75.8m-6.25-16.6-2.3 3m13.45-1.7 2.5.9m-15.65 40.1q1.65 1.35 3.9 4.55m14.9-40.55-3.95 9.75m75.65-62.5v-.4m8.45 8.25h-.2M134.5 201.25 136 203q.9 7.45-7 15-3 1.15-6.8 1.6m103.85-38.75 1.3 2.9m-5.3 17.35.25.35.8 1.3.15.35.05.1q.6 1.45.6 3.1v.65m-25.75 4.15-.8-1.35m2.8 3.45.45.35q4 3.05 9.65 3.05t9.65-3.05q3.7-2.75 4-6.6m-13.95-10.7q5.95-.25 9.95 2.75l2.15 2.1m14.55 22.75.6.7m-.6-.7-7.1-7.85q.8-4.45 1.1-8.6m32.3 58.25-.2.25M188.5 11l.25-.1m-.25.1 2.75 5.3m-56-1.15 5.3-5.2M194 21.65l-2.75-5.35m-11.2 19.05-1.2-3.65m-22.6-4.85q-1.45 2.3-2.25 5.55l.95.3 3.1 1 16.2 5.8 2.15.75 2.15.75 1.45.5.8-3.9-.75-2.25m17.35-2.1-1.95.95q.95 12.65-8.35 17.25-6.55 2.25-7.1-2.75v-7.2l3.5-1.65 1.85-.85 10.1-4.8m14.3 20.65L206.5 43.3l-9-11.9v1.8l-.1.05m-51.25 43.8q2.35 1.05 10.6 3.15l1.25.3m16.25-41v3.8q.5 1 2.15.15v-3.2m-18.35-6.55q-2.3 6.15 3.2 11.95 5.5 5.75 13.85 6.05 3.2-2.8 3.45-10.7m18.95-9.6v-3.15m-14 11.6v3.35q.4 1.35 1.8-.4l.05-3.8m24.4 15.85.35 1.85M72.2 40.75l.15.25q3.35 4.5 6.25 9.65Q86.4 64.6 90.4 83.1q1 4.8 1.8 11.7l.5 5.15.1.85q.75 10.4.2 19.2l-.1 1 7.1 1.3 3.8.7 12.75 7.95 5.1 4.4q2.95.95 5.25 1.35M108.1 34.1l-.1-.25q-3.15-6.75-8.4-11.7m21 9.5.35-.65m-.45.1.1.55m4.9-6.65-2.55-10.75M120.1 29.2l.4 1.9m-16.7 34.35q4.05-3.6 8.75-6.1.3-14.7-4.45-25.25m4.2-17.25q6 5.35 7.8 12.35m-3.2 48.85-.65-.05m-6.85 14.45 3.45 1.05q6.15 1.8 12.1 2.6m16.55-18.6 4.65-.45m-22 42.75q-6.05-.8-10.45-3l-.85-.45q-4.5-2.45-7.15-6.5M86.3 150q2.95-7.35 4.65-15.4 1.4-6.6 1.95-13.6m37.6 42q.7-5.15.05-9.85l-.45-2.25-.6-2.25q-.65-2.2-1.65-4.25l-.45-.9q-1.8-3.3-5.75-8.15M86.3 150l-.7 1.7-2.5 5.25M44.85 177.5l-2.7 4.45m86.45-61.8-4.45-.35m42.7-4.35h.2q12.4-2.6 17.2-5.35 7.8-3.4 9.25-12.05l.3-3.5.2 3.45q-.5 11.4-3.3 21.15l1.95.65m-62.5 17.05-3.25-.15m.95 7.7.65-.15q3.5-.6 6.65.05 6 1.2 10.65 6.9 3.45 4.25 6.2 10.95l.4 1 1.45 4.15m26-26.05.15-.25q4.1-5.55 7.05-11.9l1.9-4.65q-5.2 5.9-15.55 7.2m15.85-52.05q3.55 3 4.55 14.95m-25.7 64.1 4.15-7.25 5.3-7.1v-.05l2.3-3m18.65-19.45-.35 1.95-.45 2.35-.1.35q-.85 4.4 1.45 6.35.6.5 1.5.85l1.5.45q1.9.35 4.6.05l2.15-2.5m-8.5 3.75-.3-.5-1.4-1.55-2-1.1-3.25-.35h-.05q-.35-1-.9-1.65-.85-.95-2.2-1.25l-3.15.1m5.4 4.9.85-2.1m-13.05 16.6q1.7.3 4.45-.5 1.05 5.7 7.85 3.15 1.25 3.6 4.25 3.4l.55-.05m7.45-17.4-2.25-1.25-2.25-.45m4.5 1.7 2.15 2.05.8.9q3.3.35 6.2 2.25l2.65 2.15m-5.5-15.8 1.35-2.1 3-5.3m-26.5 3.2 1.3-3.7.45-1.6m-10.45 29.35q-2.85-.55-2.7-4.2m26.35.75 3.85-5m-40.9-24.6.2.15m-31.8-100.45L125.5 25M90.4 83.1q5.5-10.8 13.4-17.65m99.8 101 5.5 4.5m-44.3 42.55q.8.85 1.9 1.65 4.2 3.05 10.1 3.05 5.9 0 10.05-3.05 2.35-1.7 3.4-3.8l.25-.5m-16.55-11.8q-4.4-.5-7.25 1.55-4.15 3.05-4.15 7.3 0 3.15 2.25 5.6m35.35-.3-2-2.1m-16.55 22.2 1.6-.25m-9.15 54.4 3.65-2.05m24.95-29.9.05.15.15.35M121 185.5l9.5-5V163m-9.5 22.5 13.5 15.75m-55.3 75.7 16.9 9.2m116.35-159.6 9.8 3.4"/><path stroke-linejoin="round" stroke-linecap="round" stroke="#4b4b4b" fill="none" d="m284.7-94.3 3.05 1.65q5.7 4.15.85 12.15h-2.2m12.35-8.4q0-3.4 2.4-5.85 2.45-2.4 5.85-2.4m-8.25 8.65q.15 3.15 2.4 5.4 2.45 2.45 5.85 2.45" transform="translate(.85 170.7)"/><path stroke-width=".05" stroke-linejoin="round" stroke-linecap="round" stroke="#666" fill="none" d="m300.05 101.7 1.2 2m-31.45 23.55 1.25 4.25m-39.65 10 1.45-2.95 9.1-13.5 5.7 3.65 2.15 1.4 1.7 1.05m-2.4-4.95 3.05-1.3 12.85-3.45 2.85-.8.9 3.1 1.05 3.5m-4.95-6.5 1.45-2.95 9.1-13.5m3.25-.45 2.65-1.95 10.3-5.75 3.9-2.15m-.05 9.65 1.35-.8-2.85-5.3-12.2 6.75m-1.5 3.1-1.75-2.85m2.05 6.85-4.9-3.2-7.85 11.55m11.95-6.75-6.3 10.45-4.15-2.7m4.85 6.35-5.4-3.35m13.9-17.9 2.5 4.3 10.3-6.5m-15.2 3.75 4.7 3m-36.15 16.4 1 3.3m1.2 3.75 1 3.2 19.05-5.55m-18.55-2.45 1.35 4.8 11.6-3.8m-12.95-1-.5-1.7 13.5-3.6 1.6 5.65-1.65.65m-19.15 3.7.8-1.35-4.9-3.45-7.85 11.55 1.5 1m10.45-7.75L240 144.2l-4.15-2.7m-4.3.7 9.15 5.65 10.8-16.7m32.85-17.55 16.9-9.9"/><path stroke-width=".05" stroke-linejoin="round" stroke-linecap="round" stroke="#4b4b4b" fill="none" d="M308 73.65q3.4.05 5.65 2.3 2.45 2.45 2.45 5.85 0 3.4-2.45 5.8-2.35 2.4-5.6 2.45"/><path stroke-linejoin="round" stroke-linecap="round" stroke="#666" fill="none" d="m294.65-76.7 4.55 7.7" transform="translate(.85 170.7)"/><path stroke-linejoin="round" stroke-linecap="round" stroke="#7d4b10" fill="none" d="m167 119.75-.4.15h-4.5M212.15 4.8h10q1.7 2.6 3.05 5.35m-28.7 28.9-.15.45m7.15-7.55-2.3 2.5-2.2 2.2m14.05-16.35q-3 2.05-3.95 5.25l-5.6 6.4m8.65-27.15q-6.85-.05-17.75 13-11.45-11.95-34.75-5.5m29.8 28.4 2.15 1.8m-2.2-1.85-6.5-5.45-6.3-5.65-3.5-1.2q-3-1.85-8.35-3.95m24.7 16.3-.05-.05m7.1-1.6q1.35.85 2.45-2.2m-42.8-12.4q6.8-1.1 8.6-.05M109.2 51.95l-5.15 11.1q-3.9 16.35 0 27.55l13.8 17.1 9.95 6.4m45.4 2.65q-3.2 1.7-6.2 3M222.75 16.3q-5.85 1.3-9.7 4" transform="translate(.85 170.7)"/><path stroke-linejoin="round" stroke-linecap="round" stroke="#dc861d" fill="none" d="m245.9 52.05-3.5-21.5q.5-1.1 6.05.3l5.45 1.55q2.1.65 3.95 3.1l-4.2 3.4h6.2q5.75 12.05 7.85 45.45-1.85 6.6-5.65 10.6m-15.2-32.45-.95-10.45m1.1 48.85q7.7-.25 12.75-3.9m-54.65-3 2.15 11.3m-9.1-28.65q1.85 3.6 3.65 8.15m60.05 10.4-.15.1-1.95 1.7m-77.4-34.65q8.25-.45 15.8 14.3m-21.3 38.05q.9-12.3.95-26.55l3.85 1.35-3.85-5.3q-.05-9.7-.5-20.25 1.75-1 3.45-1.35m14.1 51.4q5.8-2.85 12.4-8.7m-12.4 8.7q-10.25 4.95-18 .7M202 85.3l3.1 8.7" transform="translate(.85 170.7)"/><path stroke-linejoin="round" stroke-linecap="round" stroke="#bc5858" fill="none" d="m236.35 53.85 4.85 2.9 1.7 1.1q1.45 1 3.95 4.65 8.7 12.5 3.25 33.4-1.2 2.8-3.1 5m-10.65-47.05q-4.55-1.15-13.55 2.75-16.95 17.25-17.7 37.4m2.15 11.3q8.95 3.95 18.15 3.5 5.5-.3 11.05-2.15 3.9-1.3 7.35-3.5l3.2-2.25" transform="translate(.85 170.7)"/><path stroke-width=".05" stroke-linejoin="round" stroke-linecap="round" stroke="#3c4344" fill="none" d="M191.25 16.3q8.8-4.2 18.75-5.3m-92.8 31.8v7.85l1.8 5.85q1.25 2.45 4.85 7.1 3.35 4.3 14 9.65 3.7 1.85 8.3 3.8m-25.55-45.4-3.4 8.65v2.5m3.75-11.8 1.25-1.95 3.3-4.05m-1-24q7.45 6.3 10.75 14.15"/><path stroke-linejoin="round" stroke-linecap="round" stroke="#333939" fill="none" d="M168.3-149.05q7.75 5.25 9.7 10.05 2.15-2.7 4.6-4.7 4.75-4 10.55-5.35m-30.3-.45q-4.55 1.2-7.15 5.1m40.95 1.95v-4q-.25-2.55-3.5-2.6" transform="translate(.85 170.7)"/><path stroke-linejoin="round" stroke-linecap="round" stroke="#d70f74" fill="none" d="M200.45-97.75q.75 2.4-1.5 3.85m-41.8 3.7q-.1-2.5.15-4.8.75-7 4.9-12.05l2.5-2.6 1.1-.9q4.8-3.85 12.35-6.15m7.35 2.45.75.25m-29.1 23.8q-.05.35.25.65.7.65 3.65.85m17.75-27.8-.35-.1m.35.1 4.1 1.4m3.3 1.15 1.15.55-1.1-.6m-.75-.25-2.6-.85m14.7 21.9 1.35-.7m-14.15 3.55q-17.3 2.05-23.75 1.65m27.35-2.4 5.6-1.15q2.15-.4 3.6-.95m-12.8 2.85 3.6-.75m-1.05-22.3q11.5 5.5 13.1 15.65" transform="translate(.85 170.7)"/><path stroke-width=".05" stroke-linejoin="round" stroke-linecap="round" stroke="#6b3c0e" fill="none" d="m119.65 63.4 4.2.2m-11.3-4.25 3.1-1.5L119 56.5M116.25 78h-5.15q-11.45 6.65-1.7 14.45m10.25-29.05q-7.2.05-11.25 3.7-2.7 6.75 7.85 10.9m-23.2 22.4q5.5 6.3 11.05 8.8l1.6.65q-6.75-14.45 3.7-17.4m-16.7 7.5.35.45m-3.5 78.4 17.35 9.65 6.9-13.7v13.4l7.2-2.65"/><path stroke-width=".05" stroke-linejoin="round" stroke-linecap="round" stroke="#864b11" fill="none" d="M132.6 78q-7.35.25-15.7.05m8.05 18.05q8.25 1.1 16.1.3 22.05-1.45 41.05-6.3m-40.6-12.6-7.5.45"/><path stroke-linejoin="round" stroke-linecap="round" stroke="#4f2d0b" fill="none" d="M82.25-13.75q-.6 3.65 3.4 6.75l1.15.8 3.5 2.45M83.65 13.3q-1.85 3.65-2.25 9.45 5.4 9.4 11.3 17.5l5.45 7.05q7.65 1.8 12.4 1.75 6 .45 10.8-.15M88.7 8.1l-4.95-2.75L86.8-6.2m-3.15 19.5q.4-1.3 2.55-4.2l2.5-1" transform="translate(.85 170.7)"/><path stroke-linejoin="round" stroke-linecap="round" stroke="#755940" fill="none" d="M129.3-33.85q-3.9-4.1-3.9-9.3 0-4.05 2.35-7.4 1.7-2.45 4.65-4.55 6.4-4.55 15.25-4.9l1.65-.05q4.75 0 8.8 1.15 3.1.85 5.85 2.35l2.05 1.3M132.65-31l-.25-.2q-1.8-1.25-3.1-2.65m43.25-5.2q-1.5 4.4-6.35 7.85-7 4.95-16.9 4.95-7.1 0-12.65-2.5l-2-1-2-1.25m1.75-3.35q-5.4-3.85-5.4-9.2 0-5.6 5.85-9.6 4.8-3.25 11.25-3.8l2.85-.15 5.05.4 2 .45m11.45 7.5-3.35 1.65-9.1 4.55 10.35.5 3.45.15.1-1.65q0-2.8-1.45-5.2-1.5-2.4-4.4-4.4l-1.5-.95q-2.6-1.45-5.55-2.15m10.2 1.15q7 4.95 7 11.95 0 2.15-.65 4.1m-3.75-2.85q-.7 3.95-4.5 7l-1.25.9q-5.85 4-14.1 4-5.25 0-9.5-1.6-1.3-.5-2.45-1.1-1.1-.6-2.15-1.3l-.45-.35" transform="translate(.85 170.7)"/><path stroke-width=".05" stroke-linejoin="round" stroke-linecap="round" stroke="#72481f" fill="none" d="M144.75 164.75q-4.3-9.05-11.15-13.75l-4.1-2.35m1 28.7 16.8-6.15q-1-3.05-2.2-5.7"/><path stroke-width=".05" stroke-linejoin="round" stroke-linecap="round" stroke="#4b5658" fill="none" d="m210.1 56.7-1.65 9.3-1.95 3.4-5.2 3.55"/><path stroke-width=".05" stroke-linejoin="round" stroke-linecap="round" stroke="#915113" fill="none" d="M182.1 90.1h1.85q8.35-6.4 1.7-9.75m-1.4 29.75q11.05-11.75-.75-19.2l-1.4-.8"/><path stroke-width=".05" stroke-linejoin="round" stroke-linecap="round" stroke="#65401b" fill="none" d="M83.1 156.95q-10.1 19.5-26.7 21.5-5.9.7-11.55-.95-4-1.15-7.85-3.5m115.4-10.85 2.8-1.4 12.9-3.1h13.7l12.4 2.85 2.55 1.35"/><path stroke-width=".05" stroke-linejoin="round" stroke-linecap="round" stroke="#634718" fill="none" d="M21.6 254.45q5.9 9.15 20.15 14.3m-22.3-18.4q.9 2.15 2.15 4.1m88.9 67.8q7.6-12.65 21.6-9.45m-23.2 12.45 1.6-3m39.3-2.65q7.65-9.15 19.3-6.45m-21.55 9.55q1.05-1.7 2.25-3.1"/><path stroke-width=".05" stroke-linejoin="round" stroke-linecap="round" stroke="#4f2d0b" fill="none" d="m136 203-3.6.9q-14.05 2.95-30.5-.25-11.5-9.4-17.4-19.65"/><path stroke-linejoin="round" stroke-linecap="round" stroke="#8a5624" fill="none" d="m127.8 114.1 7.8 5.05q17.95 4.1 26.5.75" transform="translate(.85 170.7)"/><path stroke-width=".05" stroke-linejoin="round" stroke-linecap="round" stroke="#586569" fill="none" d="M91.15 166.95Q119.6 179.9 130.5 163"/><path stroke-width=".05" stroke-linejoin="round" stroke-linecap="round" stroke="#996128" fill="none" d="M213 175.5q7.35-14.2 24.5-16.5"/><path stroke-width="2" stroke-linejoin="round" stroke-linecap="round" stroke="#000" fill="none" d="m319.85 60.25 4.35 3.45q3.25 3.25 4.95 7.15l19.7 3.15-18.25 10.35q-1.25 6.8-6.4 11.9l-.3.3 5.45 22.05-18.2-15.8-3.2.2q-4.2 0-7.9-1.3l1.2 2-3.05 4-14.7 8.5-9.1 13.85-4.6-2.8 1.25 4.25-3.95 3.1-16.85 4.85-.6-1.95-8.7 13.3-8.85-5.4-.7-3.9 1.45-2.95 9.1-13.5 5.7 3.65 1.45-2.5 3.05-1.3 12.85-3.45-.15-.7 1.45-2.95 9.1-13.5 2.65 1.7.6-2.15 2.65-1.95 10.3-5.75q-1.5-1.5-2.65-3.15-1-1.35-1.7-2.8l-18.65-1.55 16.95-12.25-.3-.05q1-7.25 6.4-12.65 2.05-2.05 4.4-3.45l-1.6-20.7L308.5 56.6l-.55.4.9.05q6.1.15 11 3.2M279.75 113l-6.3 10.45-4.15-2.7 6.6-9.85 3.85 2.1m5.4-2.85 10.3-6.5-2.5-3.55-10.3 5.75 2.5 4.3m-31.3 23.7 11.6-3.8-1.55-4.1-11.4 3.1 1.35 4.8m-7.55-.1L240 144.2l-4.15-2.7 6.6-9.85 3.85 2.1"/><path stroke-width="1.75" stroke-linejoin="round" stroke-linecap="round" stroke="#000" fill="none" d="M232.5 93.5q-1.5 20.15-7.75 37.35l4.25 1.45-1.1 2.65h2.5l-4.4 12.4-2.05-2.65-1.4 3.3-5.2-2.75-2.45 3.5-.7.9-3.2 3.85q-7.5 6-11 0-1.45.75-2.65 1l-.55.85-.05 7.5 6.85 3.6q17.75-15.75 23.9-12.95l10 5.5-10.15 24.75q4.15 10.55 3.25 23.65 6.05 1.75 10.2 5.95 3.7 3.7 5.95 9.4l-3.5-21.5q.5-1.1 6.05.3l5.45 1.55q2.1.65 3.95 3.1l-4.2 3.4h6.2q5.75 12.05 7.85 45.45-1.85 6.6-5.65 10.6l-.2.25.2.2-1.35 9.95-8.6 9.95-9.75 7.3-27.75 8.05-4.6.2q-16.7.4-30.6-2.9l-3.15-.85-9.15-7.15-.1-.2-.4.15h-4.5l3 8.25q2.45 7.7 3.15 14.3 1.35 12.7-5.15 15.55l-3.05-2.55-3.55 5.7q-5.55-4.3-9.8-9.15-5.75-9.6-11.3-22.2l-1.8-4.15-.15-.35h-9.75q1.95 2.5 3.5 5.25 2.85 5.25 4.05 11.55 1.3 6.85.7 14.9l-6.1-2.95L125 332q-10.2-1.6-16.1-6.75-8-7-8.1-20.55-.05-7.2 2.1-16.2l-6.8-2.35q-.95 4.3-7.1 5.7-4.95-1-5.45-3.4-2.75 3.75-8.3-6.15 2.3-4.05 3.95-5.35l-13.8-9.5-11.75-11.25q-2.4 5.25-5.65 8.5-2.8 2.75-6.25 4.05-4.4 3.95-9.95 3.85-5.85-.4-9.65-2.25l1.6-6.55-6.95 1.6-.15-.3q-2.2-4.35-.7-11.25l3.5-3.5q10.1-9.55 21.1-16.45l-4.25-10.45v-23.7l5.85-17.8q-4.5-3.15-17.6-3.7l-.55-.05q-4.95 8.4-12.45 7.05l5.25-4.5q-4.9 3.6-9.5.5 1.15-1.45 6.5-4.2-4.2 1.4-7.95-2 2.8-2.8 9.45-2.5-4.1-.35-4.25-4.95 8.3 1.7 12.35 6.15l.2.25H37q-4.7-2.85-9.15-7.45-3.15-3.2-6.15-7.2l-2.05-2.9q-3.45-4.95-6.2-10.45-5.55-10.95-8.7-24.1-1.9-7.75-2.9-16.3-1.5-12.8-.8-24.3Q2.1 63.5 8.5 48.65l.65-1.45q6.9-15.4 17.3-21.5 5.15-3.05 11.25-3.8 18.55-2.2 34.5 18.85l1.05-.7.35-.4 5.6-5.4 5.55-5.5 1.15-.95 3.8-2 7.6-2.85 2.3-.8 12.7-5.3 4.55-1.25 6.1-1.35Q120.85 5.8 124.5 1q9.2-1.2 16.25 8.7l-.2.25 3.95-3.5 8.55-2q12.35-2.5 27.25 2.85l8.3 3.5-.1.2.25-.1.35-.15q8.8-4.05 20.9.25-6.55 8-12.5 13.25L218 44q4.25 11.05 7.65 22.35 4.05 13.4 6.85 27.15"/></g><path fill-rule="evenodd" fill-opacity="0" fill="#f0f" d="M100 40H0V0h100v40" id="a"/><use xlink:href="#a" width="100" height="40" id="c"/></defs><path fill="none" d="M-1-1h446v435H-1z"/><g><g transform="scale(2)"><use x="132.55" y="187" xlink:href="#b" width="381" transform="translate(-192.55 -294)" height="381"/><use x="-34.643" y="-62.009" xlink:href="#c" width="100" transform="translate(80.7 107.55) scale(1.7175)" height="40"/><use x="-210.698" y="297.25" xlink:href="#d" width="349.85" transform="matrix(-.6291 0 0 .6291 88.085 -186.493)" height="340.6"/></g></g></svg>