<svg width="123" height="117" xmlns="http://www.w3.org/2000/svg" xmlns:xlink="http://www.w3.org/1999/xlink"><defs><g id="b" stroke-linejoin="round" stroke-linecap="round" fill="none"><path stroke-opacity="0" stroke="#f0f" d="M187.95-293.5v380h-380v-380h380M92.95.6H-97" transform="translate(192.55 294)"/><path stroke-opacity="0" stroke="#f0f" d="m187.95-293.5-190 190 190 190m-380-380 190 190L-192 86.5" transform="translate(192.55 294)"/><path stroke-width=".25" stroke="#000" d="m179.9 246.9.9.2.35.65q0 .3-.35.6l-.9.2-.9-.2-.35-.6.35-.65.9-.2z"/></g><g id="c"><path fill-rule="evenodd" d="m15.7-80.7-.45 4.65-1.85.85.55 5.85v.1l-1.1.15 1.3 3.75 1.9 5.1.85 3.3q.65 4.15-2.25 5.65 1.7 1.45 2.2 3.8-1.55.7-10.7-.8l.45-.55q-6.05.35-10.5 0l-16.8.85.45.55Q-29.4-45-30.95-45.6q.75-3.45 3.9-5.25l2.3-3.05 2.8-3.15q1.1-1.05 2.1-1.4l.4-5.45q-.2.85-.05-.5l.4-3.3-1.7-.1 2.5-7.35-1.05-6.2 4.75-2.3-.15 1 2.95-6.3Q-9.35-93.5-6.25-98q-.95 3.05-1.3 6.05l-.2 4.6q.05 2.65.6 5.3l.1-1.15 9.05.8-.05.35h.15q.55-2.75.65-5.5l-.2-4.7q-.35-2.95-1.3-5.9 3.15 4.2 5.6 8.55l.75 1.45 2.7 6.55v-.3l5.35.75.05.45-.05-.45h.05v.45m-38.05 5.85.05.05q1.1 1.3 1.15 2.2 0 .55-.25 1.05l-.35.5q-.65.65-1.6.75-.95 0-1.2-.55L-25-72.3l-.25-2.3q-.05-1.4.9-1.45l.35.05q.75.15 1.65 1.15" transform="translate(32.45 99.65)"/><path stroke-width="3" stroke-linejoin="round" stroke-linecap="round" stroke="#262015" fill="none" d="m48.15 18.95-.45 4.65-1.85.85.55 5.85v.1l-1.1.15 1.3 3.75 1.9 5.1.85 3.3q.65 4.15-2.25 5.65 1.7 1.45 2.2 3.8-1.55.7-10.7-.8l.45-.55q-6.05.35-10.5 0l-16.8.85.45.55q-9.15 2.45-10.7 1.85.75-3.45 3.9-5.25l2.3-3.05 2.8-3.15q1.1-1.05 2.1-1.4l.4-5.45q-.2.85-.05-.5l.4-3.3-1.7-.1 2.5-7.35-1.05-6.2 4.75-2.3-.15 1 2.95-6.3q2.45-4.55 5.55-9.05-.95 3.05-1.3 6.05l-.2 4.6q.05 2.65.6 5.3l.1-1.15 9.05.8-.05.35h.15q.55-2.75.65-5.5L35 7.4q-.35-2.95-1.3-5.9 3.15 4.2 5.6 8.55l.75 1.45 2.7 6.55v-.3l5.35.75-.1-.85-1.35-.25-2.3-.45 6.2-13.6 7.2 3.45L49 16.2l7.7-3.9 1.6 8.9-10-.7-.15-1.55-.05-.45h.05v.45m-1.5-1.55L49 16.2"/><path fill-rule="evenodd" fill="#283f44" d="m23.1-72.7-.35 1.2-1.35 2-1.1 1.15-1.25.05q-.8-.45-1.05-1.35l-.1-.6.35-1.1q.45-.85 2.05-1.55v-.05q1.25-.6 2-.4l.35.1.45.55" transform="translate(32.45 99.65)"/><path stroke-width="2" stroke-linejoin="round" stroke-linecap="round" stroke="#000" fill="none" d="m50.35 29.4-5.4.8"/><path stroke-width="2" stroke-linejoin="round" stroke-linecap="round" stroke="#0d1417" fill="none" d="m55.55 26.95-.35 1.2-1.35 2-1.1 1.15-1.25.05q-.8-.45-1.05-1.35l-.1-.6.35-1.1q.45-.85 2.05-1.55v-.05l-.25-2.3m2.25 1.9.35.1.45.55 1.65-.4m-4.45.15q1.25-.6 2-.4l1.1-2.15"/><path fill-rule="evenodd" fill="#f5eec5" d="m-9.3-87.4-1.9-.05-.6-1.5Q-9.35-93.5-6.25-98q-.95 3.05-1.3 6.05L-9.3-87.4m-10.15 23.5 2.35 6.05 4.6 2.55-5.4.25-1.95-3.4.4-5.45m29.55 8.3-8.25-.65L8.8-59.6l1.65-1.8.1 2.9q.7 1.5-.45 2.9M6.85-87.8l-1.65.9-2.45-.65-.2-4.7q-.35-2.95-1.3-5.9 3.15 4.2 5.6 8.55v1.8" transform="translate(32.45 99.65)"/><path fill-rule="evenodd" fill="#283f44" d="m-11.8-88.95.6 1.5 1.9.05-2.9 7.5.4-.05-.05.05 1.85-.2.3-.05.3-.15 2.35-1.45 3.1-.35h.55l1.55-.1H-.6l2.7.15q.55-2.75.65-5.5l2.45.65 1.65-.9v7.15l-1 7.65q3.95 5.95 4.6 11.6L8.8-59.6l-6.95 3.35 8.25.65q-1.3 1.5-4.65 2.9-14.2 4.95-22.1-.3l-1.25-2.05 5.4-.25-4.6-2.55-2.35-6.05q-.2.85-.05-.5l.9-6.1v-.1l.05-.25v-.1l1.3-4.75.8-2.5q1.85-5.45 4.65-10.75m3.5 21.05-.05-2.15.05 2.15m3.4-.2 2.1-2.95-7.75.45 7.75-.45-2.1 2.95m10.4.4-2.85.35 2.85-.35M-15.15-61v.2-.2m-1.25-7.1 2.35.55-2.35-.55" transform="translate(32.45 99.65)"/><path fill-rule="evenodd" fill="#0d1417" d="m-17.9-55.05 1.25 2.05q7.9 5.25 22.1.3 3.35-1.4 4.65-2.9l3.35.3 3.45-1.65q.65 4.25-2.45 5.7l-4.65 2.1v.05q-8.1.65-13.7.25l-18.55 1.05-4.95-1.6q-.7-.55 2.65-4.5l2.8-3.15 1.75 1.75 2.3.25m28.35-6.35Q9.8-67.05 5.85-73l1-7.65v-7.15l.75-.35q1.55 3.2 3.5 8.8.2 3.15.55 5.9l.2 1.65.45 1.3 1.85 5.15-3.7 3.95m-17.5-20.35L-9.4-80.3l-.3.15-.3.05-1.85.2.05-.05-.4.05 2.9-7.5 1.55.05q.05 2.8.7 5.6" transform="translate(32.45 99.65)"/><path fill-rule="evenodd" fill="#b8a372" d="m-9.3-87.4 1.75-4.55-.2 4.6-1.55-.05m16.15-2.2.75 1.45-.75.35v-1.8m7.3 24.25 1.9 5.1.85 3.3-3.45 1.65-3.35-.3q1.15-1.4.45-2.9l-.1-2.9 3.7-3.95m-36.1 8.3q1.1-1.05 2.1-1.4l1.95 3.4-2.3-.25-1.75-1.75" transform="translate(32.45 99.65)"/><path fill-rule="evenodd" fill="#f4e1a2" d="m11.65-73.45.65 2.95-.45-1.3-.2-1.65" transform="translate(32.45 99.65)"/><path fill-rule="evenodd" fill="#3e241c" d="M-15.15-61v.2-.2" transform="translate(32.45 99.65)"/><path stroke-width=".25" stroke-opacity=".502" stroke-linejoin="round" stroke-linecap="round" stroke="#280f06" fill="none" d="M24.9 7.7q.35-3 1.3-6.05-3.1 4.5-5.55 9.05Q17.85 16 16 21.45l-.8 2.5-1.3 4.75v.1l-.05.25v.1l-.9 6.1q-.15 1.35.05.5M35.2 12.1q-.1 2.75-.65 5.5l-2.7-.15H30.6l-1.55.1h-.55l-3.1.35-2.35 1.45m-.3.15-.3.05m2.25-7.25.2-4.6m10.3 4.4L35 7.4q-.35-2.95-1.3-5.9 3.15 4.2 5.6 8.55l.75 1.45q1.55 3.2 3.5 8.8.2 3.15.55 5.9l.65 2.95 1.85 5.15 1.9 5.1.85 3.3q.65 4.25-2.45 5.7l-4.65 2.1m0 .05q-8.1.65-13.7.25L10 51.85l-4.95-1.6q-.7-.55 2.65-4.5l2.8-3.15q1.1-1.05 2.1-1.4l.4-5.45M25.4 17.9q-.65-2.8-.7-5.6m19.4 13.9.2 1.65.45 1.3M35.1 32.3l2.85-.35m-16.05-2.9 7.75-.45-2.1 2.95M24.1 29.6l.05 2.15m-5.75.35-2.35-.55"/><path fill-rule="evenodd" d="m-26.7-51.05.75-.4 3.35 1.4 2.35 2.6Q-29.4-45-30.95-45.6q.8-3.6 4.25-5.45" transform="translate(32.45 99.65)"/><path stroke-linejoin="round" stroke-linecap="round" stroke="#000" fill="none" d="M-26.7-51.05q-3.45 1.85-4.25 5.45 1.55.6 10.7-1.85l-2.35-2.6-3.35-1.4-.75.4z" transform="translate(32.45 99.65)"/><path fill-rule="evenodd" d="m12.6-52.5-.75-.3-3.35 1.7-2.35 2.8q9.15 1.55 10.7.85-.8-3.6-4.25-5.05" transform="translate(32.45 99.65)"/><path stroke-linejoin="round" stroke-linecap="round" stroke="#000" fill="none" d="M12.6-52.5q3.45 1.45 4.25 5.05-1.55.7-10.7-.85l2.35-2.8 3.35-1.7.75.3z" transform="translate(32.45 99.65)"/><path fill-rule="evenodd" fill="#e3d6bf" d="m3-64.45-.7 2.35-.45.95q-.55 1.2-1.3 1.95l-1-1.5-.15-.2q-.6-1.2-.7-2.55l4.3-1m-14 5.75q-.3.7-.9 1.05-1.2-.15-1.7-1.2l-.2-.35 2.2-.1-.15.75.75-.15" transform="translate(32.45 99.65)"/><path fill-rule="evenodd" fill="#900" d="m-9.3-59.1-1.7.4.15-.4h1.55" transform="translate(32.45 99.65)"/><path fill-rule="evenodd" fill="#780101" d="m1.85-61.15.45-.95.7-2.35.1-.05 2.9.05.6.35q-.5 4.05-2.35 3.25l-1.5-.4-.9.1m-3.15-2.3q.1 1.35.7 2.55l.15.2-8.85 1.6h-1.55l-.15.4-.75.15.15-.75q2.65-.9 10.3-4.15" transform="translate(32.45 99.65)"/><path stroke-linejoin="round" stroke-linecap="round" stroke="#000" fill="none" d="m1.85-61.15.45-.95.7-2.35-4.3 1q.1 1.35.7 2.55l.15.2 1 1.5q.75-.75 1.3-1.95M6.6-64.1l-.6-.35-2.9-.05-.1.05m-16.8 5.25-1.6.1-.85-.7 2.45-2.8m2.8 3.9q-.3.7-.9 1.05-1.2-.15-1.7-1.2l-.2-.35 2.2-.1q2.65-.9 10.3-4.15M-11-58.7l.15-.4" transform="translate(32.45 99.65)"/><path stroke-opacity=".502" stroke-linejoin="round" stroke-linecap="round" stroke="#000" fill="none" d="m1.85-61.15.9-.1 1.5.4q1.85.8 2.35-3.25m-17.45 5h1.55l8.85-1.6" transform="translate(32.45 99.65)"/><path fill-rule="evenodd" fill="#283f44" d="M-22.35-74.85v.05q1.15 1.35 1.15 2.2l-.2 1.05-.4.55q-.65.65-1.6.7-.9.05-1.2-.5l-.45-1.45-.25-2.35q0-1.4.9-1.4h.35l1.7 1.15" transform="translate(32.45 99.65)"/><path stroke-width="2" stroke-linejoin="round" stroke-linecap="round" stroke="#0d1417" fill="none" d="m10.1 24.8-1.7-1.15h-.35q-.9 0-.9 1.4l.25 2.35.45 1.45q.3.55 1.2.5.95-.05 1.6-.7l.4-.55.2-1.05q0-.85-1.15-2.2v-.05l1.3-1.8m-4.2.85L6 22.9m2.4.75V21.4m2.65 6.7 4.6 2.95"/><path fill-rule="evenodd" fill="#e40101" d="m15.55-82-3.65-.7 6.2-13.6 7.2 3.45-8.75 9.4 7.7-3.9 1.6 8.9-10-.7-.3-2.85" transform="translate(32.45 99.65)"/><path stroke-width=".25" stroke-opacity=".502" stroke-linejoin="round" stroke-linecap="round" stroke="#280f06" fill="none" d="m48 17.65.3 2.85 10 .7-1.6-8.9-7.7 3.9 8.75-9.4-7.2-3.45-6.2 13.6 3.65.7z"/><path fill-rule="evenodd" fill="#e40101" d="m-7.35-80.25 1.65.15 7.35-.35 8.65-.35 5.4-.35-.15 1.5-6.45.3L5.5-74l-4.05.6-14.7 4.3 11.95 2.3-19.5-1 2.45-7.3-1-6.2 4.25.45 7.75.6" transform="translate(32.45 99.65)"/><path fill-rule="evenodd" fill="#900" d="m1.65-80.45-7.35.35-1.65-.15.3-2.95 9 .85-.3 1.9m-16.75-.4-4.25-.45 4.7-2.35-.45 2.8M-1.3-66.8l-11.95-2.3 14.7-4.3L5.5-74l3.6-5.35 6.45-.3-.3 3.65-1.85.8L5.5-74l7.9-1.2.55 5.95L-1.3-66.8m17-14.35-5.4.35-.05-1.1 5.45.75" transform="translate(32.45 99.65)"/><path stroke-opacity=".502" stroke-linejoin="round" stroke-linecap="round" stroke="#000" fill="none" d="m-7.35-80.25 1.65.15 7.35-.35m.3-1.9-9-.85m-.3 2.95-7.75-.6-4.25-.45 1 6.2-2.45 7.3 19.5 1m2.75-6.6L5.5-74m10.05-5.65.15-1.5-5.4.35-8.65.35m8.6-1.45 5.45.75m-2.3 5.95L5.5-74m7.9-1.2.55 5.95L-1.3-66.8m16.85-12.85-.3 3.65" transform="translate(32.45 99.65)"/><path stroke-linejoin="round" stroke-linecap="round" stroke="#0d1417" fill="none" d="m-19.35-81.3 4.7-2.35" transform="translate(32.45 99.65)"/></g><path fill-rule="evenodd" fill-opacity="0" fill="#f0f" d="M0 0h102.95v45H0V0" id="a"/><use xlink:href="#a" width="102.95" height="45" id="d"/></defs><path fill="none" d="M-1-1h125v119H-1z"/><g transform="scale(2)"><use x="33.55" y="100.5" xlink:href="#b" width="381" transform="translate(-192.55 -294)" height="381"/><use x="33.55" y="100.5" xlink:href="#c" width="59.8" transform="translate(-32.45 -99.65)" height="55.65"/><use x="-87.705" y="-116.701" xlink:href="#d" width="102.95" transform="matrix(1.8072 0 0 1.6538 96 178.3)" height="45"/></g></svg>