<svg width="313" height="419" xmlns="http://www.w3.org/2000/svg" xmlns:xlink="http://www.w3.org/1999/xlink"><defs><radialGradient spreadMethod="pad" r="819.2" id="b" gradientUnits="userSpaceOnUse" gradientTransform="matrix(.0281 0 0 .0337 15.1 -211.25)" cy="0" cx="0"><stop stop-opacity=".341" stop-color="#1c2c33" offset="0"/><stop stop-opacity="0" stop-color="#1c2c33" offset="1"/></radialGradient><path fill-rule="evenodd" fill-opacity="0" fill="#f0f" d="M0 0h102.95v45H0V0" id="a"/><use xlink:href="#a" width="102.95" height="45" id="d"/><g id="c"><path stroke-opacity="0" stroke-linejoin="round" stroke-linecap="round" stroke="#f0f" fill="none" d="M187.95-293.5v380h-380v-380h380M92.95.6H-97" transform="translate(192.55 294)"/><path stroke-opacity="0" stroke-linejoin="round" stroke-linecap="round" stroke="#f0f" fill="none" d="m187.95-293.5-190 190 190 190m-380-380 190 190L-192 86.5" transform="translate(192.55 294)"/><path stroke-width=".25" stroke-linejoin="round" stroke-linecap="round" stroke="#000" fill="none" d="m179.9 246.9.9.2.35.65q0 .3-.35.6l-.9.2-.9-.2-.35-.6.35-.65.9-.2z"/><path fill-rule="evenodd" d="m25.35-161.7 2.2 5.7.3.8.75 2.05.1.3 1.8 5.25.85 2.5.2.7 2.9 10.35q2.75 11.25 3.2 22.25l5.75 1.55q4.45 1.35 9.25 3.2 11.55 4.35 25.05 11.6l-9.75-1.6-14.75-1.7-9.8-.65-3.95-.1h-2q-.65 8.05-2.55 16l2.8 2.9 1.9.65v.05l.1 1.35-.95.9.9 1.55-1.1 1.3-.05 2.3-1.45 4.6-3.8-3.4v.15L40.1-65l-5.05 1.85-3.05-1.5-.2 1.05.4.8.1.3.1.1q1.1 2.55 2 5.5l.4 1.4q-2.6 3.35-5.75 5.9 8.25 5.7 7.95 7.2-1.4 2.85-4.25 3.2l-8.05-.5-1.6 4.35-1.85.3q-1.45-.05-1.55-1.7l1.25-3.5q-5.15-.9-10-2.6-.5-1.1-.15-2.5l-5.4-1.6q-6.55-2.1-15.45 1.7h-.65q.3 1.25-.15 2.25-10.05 3.4-21.75 3.7-2.9-.3-4.3-2.9-.25-1.3 6.35-7.15-2.85-2.4-5.2-5.45l.4-1.4 1.25-3.65-1.95-.55 3.9-3.65q1.2-2.25 2.7-4.15l.3-.4-1.3.05-2.2-2.8-5.75.65-3.7-3.7 6.3-1.2q-.8-3.5 2.05-8 1.55-2.35 6.2-4.4l.35-.45.3.15.95-.35 2.35-.15.8-.4.05-.6-1.55-1.3h.05l2.05-2.7v-.2l-1.55-.8.1-.9-12.55 2.8-3.5.95-6.9 2.05q-8.25 2.55-17.25 6l-1.1.4-7.55 2.95Q-59.65-90.9-48.3-98l7.1-4.2 5.5-2.95 7.55-3.4.85-.35.75-1.55.95.85 3.3-1.4 7.95-3.45-1.75-1.1 1.05-1.8q1.25.6 2.5 1.1l1.75-1.2 1.15.9 1.4-.6 1.75-4.55 1.75 1.2 3.6-5.7 1.4 1.45 9.65-9.4 3 1.95-10.45 11.7 9.45-5.6 2.2 4.5-4.3 1.15-.25 1.8-2.85.3v.1l4.75 1 7.65 1.75 13.45 2.6.3.05q-.9-14.55-5.55-28.5l-.2-.65-.45-1.2-1.7-4.6-.25-.65-1.25-2.95-2.15-4.65-2.15-4.2-1.1-2-.25-.5-.7-.55-4.4-3.65-9.55 4.3 1.85 4 1.55-4.3 6.15 2.45-3.1 10.2-13.55-8.65L5.3-175.3l4.45 1.3.1-3.25-1.85-.6-1.85-7.05.1-.1.05-.05 1.15-1.05 11.65-.65 2.55 2.15-2.1 7.2v.15l-1.75.3-1.15 4.75-1.15-.15 5.85 1.7.15.1.15-.3.1.2 1.65 4.05 1.95 4.9m-5.2 66.6-1.55.85 2.1 2.85-.8.7 1.15-.05q5.75 1.3 10.45 4.55l.65-4.55.55-5.5.2-3.2-13.05 1.15.3 3.2m-5 48.15-.2-.1.05.2.15-.1" transform="translate(192.55 294)"/><path stroke-width="3" stroke-linejoin="round" stroke-linecap="round" stroke="#262015" fill="none" d="m217.9 132.3-1.95-4.9-1.65-4.05-.1-.2-.15.3-.15-.1-5.85-1.7 1.15.15 1.15-4.75 1.75-.3v-.15l2.1-7.2-2.55-2.15-11.65.65-1.15 1.05-.05.05-.1.1 1.85 7.05 1.85.6-.1 3.25-4.45-1.3-9.25 16.35 13.55 8.65 3.1-10.2-6.15-2.45-1.55 4.3-1.85-4 9.55-4.3 4.4 3.65.7.55.25.5 1.1 2 2.15 4.2 2.15 4.65 1.25 2.95.25.65 1.7 4.6.45 1.2.2.65q4.65 13.95 5.55 28.5l-.3-.05-13.45-2.6-7.65-1.75-4.75-1v-.1l2.85-.3.25-1.8 4.3-1.15-2.2-4.5-9.45 5.6 10.45-11.7-3-1.95-9.65 9.4-1.4-1.45-3.6 5.7-1.75-1.2-1.75 4.55-1.4.6-1.15-.9-1.75 1.2q-1.25-.5-2.5-1.1l-1.05 1.8 1.75 1.1-7.95 3.45-3.3 1.4-.95-.85-.75 1.55-.85.35-7.55 3.4-5.5 2.95-7.1 4.2q-11.35 7.1-24.2 17.45l7.55-2.95 1.1-.4q9-3.45 17.25-6l6.9-2.05 3.5-.95 12.55-2.8-.1.9 1.55.8v.2l-2.05 2.7h-.05l1.55 1.3-.05.6-.8.4-2.35.15-.95.35-.3-.15-.35.45q-4.65 2.05-6.2 4.4-2.85 4.5-2.05 8l-6.3 1.2 3.7 3.7 5.75-.65 2.2 2.8 1.3-.05-.3.4q-1.5 1.9-2.7 4.15l-3.9 3.65 1.95.55-1.25 3.65-.4 1.4q2.35 3.05 5.2 5.45-6.6 5.85-6.35 7.15 1.4 2.6 4.3 2.9 11.7-.3 21.75-3.7.45-1 .15-2.25h.65q8.9-3.8 15.45-1.7l5.4 1.6q-.35 1.4.15 2.5 4.85 1.7 10 2.6l-1.25 3.5q.1 1.65 1.55 1.7l1.85-.3 1.6-4.35 8.05.5q2.85-.35 4.25-3.2.3-1.5-7.95-7.2 3.15-2.55 5.75-5.9l-.4-1.4q-.9-2.95-2-5.5l-.1-.1-.1-.3-.4-.8.2-1.05 3.05 1.5 5.05-1.85-6.85-6.15v-.15l3.8 3.4 1.45-4.6.05-2.3 1.1-1.3-.9-1.55.95-.9-.1-1.35v-.05l-1.9-.65-2.8-2.9q1.9-7.95 2.55-16h2l3.95.1 9.8.65 14.75 1.7 9.75 1.6q-13.5-7.25-25.05-11.6-4.8-1.85-9.25-3.2l-5.75-1.55q-.45-11-3.2-22.25l-2.9-10.35-.2-.7-.85-2.5-1.8-5.25-.1-.3-.75-2.05-.3-.8-2.2-5.7m-5.2 66.6-1.55.85 2.1 2.85-.8.7 1.15-.05q5.75 1.3 10.45 4.55l.65-4.55.55-5.5.2-3.2-13.05 1.15.3 3.2m-5 48.15-.2-.1.05.2.15-.1"/><path fill-rule="evenodd" fill="#0d1417" d="m19.1-115.5.55 1.7-2.55.95.95 1.95 7.5 2.25 2.6-2.45 2.3 3.85-2.85 2.55 2.6 2 11.15.4q-.55 1.45-1.9 2.8-16.6-.2-28.5 3.1l-5-22 5.5 1.15 7.65 1.75m-20.45 10.8-.15 7q-14.8-.4-34.7 4.8-1.9-.45-2.8-2.35l11.85-3.25-.85-1.2 3.55-1.5 2.15-3.65-.95-2.25 1.9-2.8 20 5.2M-39.7-91.95l-6.9 2.05q-2.5-.15-3.4-1.3l4.25-2.25 3.05-.85q.75 1.7 3 2.35m92.9-6.8-9.8-.65q1.95-1.1 2.85-2.75l2.3.1 6.8 1.75q-.6 1.5-2.15 1.55" transform="translate(192.55 294)"/><path fill-rule="evenodd" fill="#283f44" d="m41.35-102.3-11.15-.4-2.6-2 2.85-2.55-2.3-3.85-2.6 2.45-7.5-2.25-.95-1.95 2.55-.95-.55-1.7 13.45 2.6 4.05.85 5.1 7.45-.35 2.3m-77.05-2.85 7.55-3.4 5.85-2.45q9.4-4 15.7-6.9l5.55-2.5-.3 15.7-20-5.2-1.9 2.8.95 2.25-2.15 3.65-3.55 1.5.85 1.2L-39-95.25l-.45-1.4 3.75-8.5M-48.3-98l7.1-4.2-1.8 6.7.3 1.2-3.05.85L-50-91.2l-.35-.9h-.05l2.1-5.9m94.55-4.15q.7-1.4.7-3.25l-3.55-4.85q4.45 1.35 9.25 3.2 2.05 1.7 3 4.6v.1l-.3 2.05-6.8-1.75-2.3-.1" transform="translate(192.55 294)"/><path fill-rule="evenodd" fill="#f5eec5" d="m41.35-102.3.35-2.3-5.1-7.45 6.8 1.8 3.55 4.85q0 1.85-.7 3.25l-4.9-.15m-105.2 18.4-1.1.4-7.55 2.95Q-59.65-90.9-48.3-98l-2.1 5.9h.05l.35.9-13.85 7.3m22.65-18.3 5.5-2.95-3.75 8.5.45 1.4-3.7.95-.3-1.2 1.8-6.7m93.85-4.85q11.55 4.35 25.05 11.6l-9.75-1.6-12.6-3.25.3-2.05v-.1q-.95-2.9-3-4.6" transform="translate(192.55 294)"/><path fill-rule="evenodd" fill="#b09c7d" d="M39.45-99.5q1.35-1.35 1.9-2.8l4.9.15q-.9 1.65-2.85 2.75l-3.95-.1m-75.65 6.6-3.5.95q-2.25-.65-3-2.35l3.7-.95q.9 1.9 2.8 2.35m-10.4 3q-8.25 2.55-17.25 6L-50-91.2q.9 1.15 3.4 1.3m114.55-7.15-14.75-1.7q1.55-.05 2.15-1.55l12.6 3.25" transform="translate(192.55 294)"/><path stroke-width=".25" stroke-opacity=".502" stroke-linejoin="round" stroke-linecap="round" stroke="#280f06" fill="none" d="m211.65 178.5-7.65-1.75-5.5-1.15m5 22q11.9-3.3 28.5-3.1m-2.85-12.55-4.05-.85-13.45-2.6m-54.8 10.35 7.55-3.4 5.85-2.45q9.4-4 15.7-6.9l5.55-2.5m-.45 22.7q-14.8-.4-34.7 4.8l-3.5.95-6.9 2.05q-8.25 2.55-17.25 6l-1.1.4-7.55 2.95q12.85-10.35 24.2-17.45l7.1-4.2 5.5-2.95m79.1-5.1-6.8-1.8m6.8 1.8q4.45 1.35 9.25 3.2 11.55 4.35 25.05 11.6l-9.75-1.6-14.75-1.7-9.8-.65-3.95-.1"/><path fill-rule="evenodd" fill="url(#b)" d="M31.75-231.25q6.95 8.3 6.95 20.05 0 11.7-6.95 20-6.9 8.3-16.65 8.3-9.75 0-16.65-8.3-6.95-8.3-6.95-20 0-11.75 6.95-20.05 6.9-8.3 16.65-8.3 9.75 0 16.65 8.3" transform="translate(192.55 294)"/><path fill-rule="evenodd" fill-opacity=".133" fill="#020233" d="m24.55-216.25 1.55-2.4.4-.95-4.95-9.45-1.6-.85-5.4 1.1-4.1 8.4 1.1 1.55 3.1-9.2 4.7-.75 5.6 9.4-4.75 3.1-.25-.1 1-4.9-1.85-4.25-2.35.45-3.55 6.8-3.6-.2.15 5.15.65 4.05-3.65.85-5.3-4.4 8.85 12.35 1.4 6.5 4.75-.1 1.35-2.65-2.55-2.5-1.05-5.55 3-3.35 2.25 2.25.9.05.5-1.6 4.6-2.9 6.2 5.6L19-188.1l-16.3-.4 4.25-2.25 11.15.8.45-.35 1.45-2.15 2.2-4.15q.9-2.15 5.65-7.05l-3-.25.95-4.1-5.2 2.1 3.1.45-.2 4.05-5.95 1.7.35-5.85-.8-1-2.75 2.25 2.6 5.1 4.7.5-4.25 6.4-11.95.45-.25-14.9-8.2-4.55 5.3-6.7 4.6 8.55 2.3-.75.15-.85-.2-1.05q-2.1-.6-7.35-7.5-4.85 4.45-8.3 9.05l-5.5 3.2L.3-223.1l6.55 4.05 1.7-2.25L15.4-237l-.35 6.05 10.9.8 1.75 8.95-1.45 4.35-1.7.6M4.5-194.2l-11-15.55v-.2l9.65 3.4L4.5-194.2" transform="translate(192.55 294)"/><path fill-rule="evenodd" d="m20.2-216.3 4.75-3.1-5.6-9.4-4.7.75-3.1 9.2-1.1-1.55 4.1-8.4 5.4-1.1 1.6.85 4.95 9.45-.4.95-1.55 2.4-.5.8-5.1 2.1-2.1-.95 2.95-1-.95-.3 1.35-.7m-26.7 5.75q3.45-4.6 8.3-9.05 5.25 6.9 7.35 7.5l.2 1.05-.15.85-2.3.75L2.3-218l-5.3 6.7 8.2 4.55.25 14.9 11.95-.45 4.25-6.4-4.7-.5-2.6-5.1 2.75-2.25.8 1-.35 5.85 5.95-1.7.2-4.05-3.1-.45 5.2-2.1-.95 4.1 3 .25q-4.75 4.9-5.65 7.05l-2.2 4.15-1.45 2.15-.45.35-11.15-.8-2.1-.35-.35-3.1-1.35-12.35-9.65-3.4-.35-.15.35-.45" transform="translate(192.55 294)"/><path fill-rule="evenodd" d="m11.35-220-.65-.15q1.75-2.75 3.8-1.9 3.1 1.25 5.05 6.75l.95 2.85.05.05q1.05 3.55 1.05 5.8-.1 3.15-2.25 5.4l-1.15.9-.4-.4q-2.65 2.6-4.65 1.75l-1.4-.6-1.4-.8-.3-.15-.75-.05-.7-.65q-1.45-1.4-1.9-3.15l4.15.9 5.65-1.6 1.75-1.35-1.1-4.55v-.05l-.05.05-.2-.75-.5-1.55.7 2.3q-3-7.95-5.75-9.05m-4.7 11.35.1.05-.2.35v-.25l.1-.15m13.5-3.7-3 1.35 3-1.35" transform="translate(192.55 294)"/><path fill-rule="evenodd" fill="#283f44" d="m10.7-220.15.65.15q2.75 1.1 5.75 9.05h.05l1.1 4.55-1.75 1.35-5.65 1.6-4.15-.9q-.35-1.05-.35-2.25l.2-1.65.2-.35-.15-.15q.45-2.9 2.3-7.75.85-2.25 1.8-3.65m2.9 12.4h-2.9q-2.65.15-3.95-.85 1.3 1 3.95.85h2.9m-.6-3.2h4.1H13" transform="translate(192.55 294)"/><path fill-rule="evenodd" fill="#2b2104" d="m6.6-208.75.15.15-.1-.05-.05-.1" transform="translate(192.55 294)"/><path fill-rule="evenodd" fill="#f90" d="M6.55-208.25v-.2l.05-.3.05.1-.1.15v.25m10.55-2.7.05-.05v.05h-.05l-.7-2.3.5 1.55.2.75" transform="translate(192.55 294)"/><path fill-rule="evenodd" fill="#be640a" d="m17.15-211-.05.05.05-.05" transform="translate(192.55 294)"/><path fill-rule="evenodd" fill="#fff" d="M18.2-200.3q1.55 1.45 1.55 2.65 0 1.3-1.85.5l-1.65-.55.4.7q.75 1.5.35 2.9-.4 1.45-1.5-.05-.85-1.3-2.1-2l-.3-.2-2.95-.75h-.05l-.6.35q-2.25 1.2-1.85-.85.3-1.7 1.65-2.95l.75.05.3.15 1.4.8 1.4.6q2 .85 4.65-1.75l.4.4m-8.1 3.2q-1.5-.1-1.05-.95l1.2-.95.4-.15.7-.25.4-.15-.4.15-.7.25-.4.15-1.2.95q-.45.85 1.05.95m6.15-.6-.7-.8.7.8" transform="translate(192.55 294)"/><path stroke-width=".25" stroke-linejoin="round" stroke-linecap="round" stroke="#000" fill="none" d="m203.9 74-.65-.15q-.95 1.4-1.8 3.65-1.85 4.85-2.3 7.75l.05.1.1.05q1.3 1 3.95.85h2.9m-2.9-12.4q1.75-2.75 3.8-1.9 3.1 1.25 5.05 6.75l.95 2.85.05.05q1.05 3.55 1.05 5.8-.1 3.15-2.25 5.4l-1.15.9q1.55 1.45 1.55 2.65 0 1.3-1.85.5l-1.65-.55.4.7q.75 1.5.35 2.9-.4 1.45-1.5-.05-.85-1.3-2.1-2l-.3-.2-2.95-.75h-.05l-.6.35q-2.25 1.2-1.85-.85.3-1.7 1.65-2.95l-.7-.65q-1.45-1.4-1.9-3.15-.35-1.05-.35-2.25l.2-1.65v-.2l.05-.3m10.5-2.2.05-.05 3-1.35m-3.05 1.4h-4.1m5.2 10.65-.4-.4q-2.65 2.6-4.65 1.75l-1.4-.6-.4.15-.7.25-.4.15-1.2.95q-.45.85 1.05.95m1.65-2.45-1.4-.8-.3-.15-.75-.05m6.25 2.05.7.8"/><path fill-rule="evenodd" fill="#0d1417" d="m38.55-74.8-.05 2.3-1.45 4.6-4.4-3.95.85-1.1-16.85-3.55-3.05 4.75-44.05 3.2-5.25-6.75q-1-3.55 1.95-8.3 1.8-2.75 7.8-5.05l47-2.1Q31-88.45 37.7-80.6l.1.1.75 5.7-.75-5.7-.1-.1 1.9.65v.05l.1 1.35-.95.9.9 1.55-1.1 1.3m-6.25-4.85v.9l1.75.25 3 .4v-2.8l-4.75 1.25M34.25-75h2.15L33-77.2l1.05-1.3L33-77.2l3.4 2.2h-2.15m2.8-3.6.6 1.4-.6-1.4" transform="translate(192.55 294)"/><path fill-rule="evenodd" fill="#283f44" d="m32.3-79.65 4.75-1.25v2.8l-3-.4-1.75-.25v-.9" transform="translate(192.55 294)"/><path stroke-width=".25" stroke-linejoin="round" stroke-linecap="round" stroke="#000" fill="none" d="M230.25 213.4q-6.7-7.85-16.65-10.15l-47 2.1q-6 2.3-7.8 5.05-2.95 4.75-1.95 8.3l5.25 6.75 44.05-3.2 3.05-4.75 16.85 3.55-.85 1.1 4.4 3.95 1.45-4.6.05-2.3-.75-5.7-.1-.1m-.05 3.4-.6-1.4m-3 .1-1.05 1.3 3.4 2.2h-2.15"/><path fill-rule="evenodd" d="M-11.15-46.6q1 2.15.3 3.65-10.05 3.4-21.75 3.7-2.9-.3-4.25-2.9-.35-1.45 7.9-8.55.4 5.15 7.8 2.5-.8 2.35 10 1.6m29.4-.65q3.95 1.15.6-2.75 9.85 4.1 8.85-.45 9.6 6.5 9.3 8.1-1.4 2.85-4.25 3.2-11.7-.1-21.8-3.65-.6-1.35.1-3.3 3.65.25 6.8-2.8l.4 1.65" transform="translate(192.55 294)"/><path fill-rule="evenodd" fill="#283f44" d="m-35.4-56.2 2.05-5.5.05-.1.15-.3q1.55-3.35 3.65-6.05l2.25-2.7.2-.25 5.4.55 1.05.1 4.6 9.8-9.4 7.25-5.55-.6-4.45-2.2m61.6-15.35 2.25 2.7q2.1 2.75 3.7 6.05l.1.3.1.1 2 5.55-4.45 2.15-5.55.6L15-61.3l4.55-9.8 1.05-.15q-.5 1.15-.85 2.55-.3 1.05-.45 2.25l3.3-3.4 3.6-1.7" transform="translate(192.55 294)"/><path fill-rule="evenodd" fill="#0d1417" d="m34.35-56.85.4 1.4q-3.3 4.25-7.45 7.15-3.5 2.45-7.65 4.05-1.4-1.35-4.75-2.8l.45 2.5q-3.45-.25-10-2.35-6.55-2.15-15.45 1.65-9.1.25-10.6 1.7-4.15-1.6-7.65-4.05-4.2-2.95-7.45-7.15l.4-1.45 4.45 2.2 5.55.6 9.4-7.25-4.6-9.8-1.05-.1q-.85-1.95-2-3.05Q-8-71.35 8.9-72.55q8.35-.65 13.7-1.75-1.15 1.1-2 3.05l-1.05.15L15-61.3l9.35 7.2 5.55-.6 4.45-2.15" transform="translate(192.55 294)"/><path fill-rule="evenodd" fill="#f5eec5" d="m26-71.8.2.25-3.6 1.7-3.3 3.4q.15-1.2.45-2.25.35-1.4.85-2.55l5.4-.55" transform="translate(192.55 294)"/><path fill-rule="evenodd" fill="#b8a372" d="m-27.05-71.1 2.35-2.15.4-.35h.65q1.15 1.1 2 3.05l-5.4-.55m49.65-3.2h.65l.45.35L26-71.8l-5.4.55q.85-1.95 2-3.05" transform="translate(192.55 294)"/><path stroke-opacity=".502" stroke-linejoin="round" stroke-linecap="round" stroke="#000" fill="none" d="m34.35-56.85.4 1.4q-3.3 4.25-7.45 7.15-3.5 2.45-7.65 4.05-1.4-1.35-4.75-2.8m.45 2.5q-3.45-.25-10-2.35-6.55-2.15-15.45 1.65-9.1.25-10.6 1.7-4.15-1.6-7.65-4.05-4.2-2.95-7.45-7.15l.4-1.45 2.05-5.5m.05-.1.15-.3q1.55-3.35 3.65-6.05l2.25-2.7.2-.25 2.35-2.15.4-.35m.65 0Q-8-71.35 8.9-72.55q8.35-.65 13.7-1.75m.65 0 .45.35L26-71.8l.2.25 2.25 2.7q2.1 2.75 3.7 6.05l.1.3m.1.1 2 5.55-2-5.55z" transform="translate(192.55 294)"/><path fill-rule="evenodd" fill="#f5eec5" d="m25.35-161.7 2.2 5.7.3.8-1.05 2.65-3.35 1.15-2.15-4.65 3.55-1.95.5-3.7m5.6 79.3 1.2-8.35.55-5.5 1.85 1.35-1.7 12.1-1.9.4m2-17.65q1.05-21.25-5.65-41.3l-.2-.65 2.65-.45.75-1.25.05-.05 3.85 16.2q2.35 14.15.45 29.15l-1.9-1.65m-6.3-43.15-1.7-4.6-.25-.65 3.15-1.35.6-2.55 1.45 6.1-.75 1.65-2.5 1.4m-3.25-23.4-1.35 3.15-2.9 3.2-1.1-2-.25-.5-.6-.7.6.7-.35-.3-.25-.4-1.3-2.05 2.4-2.9-.8-3.35 3.85 1.1.15.1.25-.1 1.65 4.05M4.1-153.8l-8.05-5.15L5.3-175.3l3.6 1.05-.75 4.3.55 1.3-.85-.1-4.35 5.95-.35.15-2.05 2.75 3 6.1M21.25-35.05q-1.45-.05-1.55-1.7 2.7-7.45 4.8-14.4l1.15 1.55-4.4 14.55m4.7-21.2.65-2.5 1.2 1.05-.65 2.75-1.2-1.3" transform="translate(192.55 294)"/><path fill-rule="evenodd" fill="#283f44" d="m25.35-161.7-.5 3.7-3.55 1.95-2.15-4.2 2.9-3.2 1.35-3.15 1.95 4.9m-1.9 10.3 3.35-1.15 1.05-2.65.75 2.05-.15.8-.6 2.55-3.15 1.35-1.25-2.95m3.65 9.4-.45-1.2 2.5-1.4.75-1.65.05-.15.55 2.65h.05l-.05.05-.75 1.25-2.65.45" transform="translate(192.55 294)"/><path fill-rule="evenodd" fill="#ae9251" d="m28.6-153.15.1.3 1.8 5.25-.55 1.2-.05.15-1.45-6.1.15-.8M15.9-165.5l1.3 2.05.25.4-2.15-1.75.6-.7m8.6 114.35 1.45-5.1 1.2 1.3.65-2.75-1.2-1.05q2.5-9.8 3.55-18.45l1.35.75v3.1l2 .4q-2.1 15.15-10.4 37.6l-1.85.3 4.4-14.55-1.15-1.55" transform="translate(192.55 294)"/><path fill-rule="evenodd" d="m30.5-147.6.85 2.5-.8 1.35h-.05l-.55-2.65.55-1.2" transform="translate(192.55 294)"/><path fill-rule="evenodd" fill="#bb9e5b" d="m31.35-145.1.2.7 2.9 10.35q6.8 27.75-.4 53.9l-3.5.2.4-2.45 1.9-.4 1.7-12.1-1.85-1.35.25-3.8 1.9 1.65q1.9-15-.45-29.15l-3.85-16.2.8-1.35M4.1-153.8l-3-6.1 2.05-2.75 1.85 4 1.55-4.3 6.15 2.45-3.1 10.2-5.5-3.5m-.6-9 4.35-5.95.85.1 1.15 3-6.35 2.85" transform="translate(192.55 294)"/><path fill-rule="evenodd" fill="#7b5128" d="m9.85-177.25-1.85-.6-1.85-7.05.1-.1.05-.05 1.9 2.55 7.45 1.05 6-3.15-2.1 7.2v.15l-1.75.3-4.45.9-3.5-1.2m-1.15 8.6-.55-1.3.75-4.3.85.25-.35 2.05 4.4 1.65 1.7-2.05 2 .6.8 3.35-2.4 2.9-1.4-2.2-5.8-.95m12.8-1.9.15-.3.1.2-.25.1" transform="translate(192.55 294)"/><path fill-rule="evenodd" fill="#bb7c3e" d="m21.65-184.6-6 3.15-7.45-1.05-1.9-2.55 1.15-1.05 11.5-.75 2.7 2.25" transform="translate(192.55 294)"/><path fill-rule="evenodd" fill="#432d16" d="m9.85-177.25 3.5 1.2 4.45-.9-1.15 4.75-1.15-.15-1.7 2.05-4.4-1.65.35-2.05.1-3.25m6.05 11.75-.6.7-2.6-2.15-2.85 1.3-1.15-3 5.8.95 1.4 2.2" transform="translate(192.55 294)"/><path stroke-width=".25" stroke-opacity=".502" stroke-linejoin="round" stroke-linecap="round" stroke="#280f06" fill="none" d="m220.4 138.8-.3-.8-2.2-5.7-1.95-4.9m-2.1 10.55 2.15 4.65m4.4-3.8.75 2.05.1.3 1.8 5.25.85 2.5.2.7 2.9 10.35q6.8 27.75-.4 53.9l-3.5.2.4-2.45 1.2-8.35.55-5.5.25-3.8q1.05-21.25-5.65-41.3l-.2-.65-.45-1.2-1.7-4.6-.25-.65-1.25-2.95m-4.3-8.85 2.15 4.2m-15-29-.05.05-.1.1 1.85 7.05 1.85.6 3.5 1.2 4.45-.9 1.75-.3v-.15l2.1-7.2m-15.35-.45 1.15-1.05 11.5-.75 2.7 2.25m-12.75 10.35-3.6-1.05-9.25 16.35 8.05 5.15 5.5 3.5 3.1-10.2-6.15-2.45-1.55 4.3-1.85-4 .35-.15 6.35-2.85 2.85-1.3 2.6 2.15 2.15 1.75.35.3.25.5 1.1 2m-10.45-8.4-.55-1.3.75-4.3.85.25.1-3.25m5.65 4.9-1.7 2.05-4.4-1.65.35-2.05m5.75 1.65 1.15.15 1.15-4.75m-.3 5.2-2-.6m6.25 1.7-.1-.2-.15.3m.25-.1 1.65 4.05m-2.05-4.05-3.85-1.1.8 3.35-2.4 2.9m1.3 2.05.6.7m-2.5-2.05.6-.7m-7.2-3.15 1.15 3"/><path stroke-width=".25" stroke-linejoin="round" stroke-linecap="round" stroke="#000" fill="none" d="M213.8 258.95q-1.45-.05-1.55-1.7 2.7-7.45 4.8-14.4l1.45-5.1.65-2.5q2.5-9.8 3.55-18.45l1.35.75v3.1l2 .4q-2.1 15.15-10.4 37.6l-1.85.3"/><path fill-rule="evenodd" fill="#fbf3d9" d="m9.8-120.45-5.9 1.6-.1 1.5 3.3 1.4-.65.15.65-.15 1.7-.4.85 2.4v.15l-.2.3-1.5.35-2.8.75 1.6 3.15-.85 1.9-5.75.25-.65 1.6-2.9-1.45-5.3.4-.75-1.45-.45-2.05-2.15 1.65-2.1-2.15 1.3-2.9-3.25-2.1 1.05-1.8q1.25.6 2.5 1.1l1.75-1.2 2.05 1.6 2.25-5.85 1.75 1.2 1.05.75 3.95-5 9.65-9.4 3 1.95-10.45 11.7-.8 1.45 4.3-3.65 5.95-3.4 2.2 4.5-4.3 1.15m-14.4 1.75.9-1.05-.9 1.05m-20.9 30.9 2-1.05 1.7-.85 1.35-.75v-.05.05l1.85-.9-1.05-1.5 1.65-1.6.55 4.5 1.6-.15 1.25-3.3 1.9 1.65 2.55-2.45 1.05 1.45 3.2-.7.05-1.75 1.35 2.25 2.45-1.9.95 2.7 2.55-.6-.15 1.5 1.6.15L4.85-94l1.5 2.05L9.4-93.8l.65 1.65h1.7v.5l-2.5.3 1.55 3.1-.95 1.35-1.25-.9-.7 2.55-2.85-.55.5 3.1-2.75.05-7.85 4.95-6.95-4.05-.75.75-.05-.05-2.7-1.8.35-1.75-3.55-.15-.1-2.55-2.75 1.15h-.75l-3.2-1.65m1.35-3.15-.15-.15h.05l.1.15m12.35-21.8-1.05-.7 1.05.7m3.05-3.1.45.55-.45-.55m-2.05 2.95-2.45-2.9.7-.45-.7.45 2.45 2.9m-10 19.3.05-.05v.05h-.05m32.55 1.45-.05-2.2h-.15l-.85-1 2.75.4.7-1.2-.8 4h-1.6m.3-2.7h.05-.05" transform="translate(192.55 294)"/><path fill-rule="evenodd" fill="#d7c59b" d="m3.9-118.85 5.9-1.6-.25 1.8-2.85.3.4 2.4-3.3-1.4.1-1.5m2.05-3.85-4.3 3.65.8-1.45 3.5-2.2m-5.7-2.05-3.95 5-1.05-.75 3.6-5.7 1.4 1.45m5.3 6.5 1.15-.1-1.15.1m2.4 5.1.35.25 3.35 2.95 2.7 2.75.3.65.35.65.85 1.85v.1l.25.6-.05.2.15.05.5 1.25.2.55.9 2.6 2.05.3v.05l.3 3.25-1.55.85.25.35 1.85 2.5-1.75 1.5-.1.2h.1l.3.2 2.7 1.4v1.65H20.4l.95 2.45-2.65 1.25 2.15 2.25-2.95 2.2.15-.65-.25 1-.15.45q-.75 2.15-2 4l-.05.15-1.5 1.8-1.3 1.3q-3.15 3-6 3.95l-.6.2-.25.1.15-.7.1-1.3-9.35.55-1.75-.5q-3.1-.65-5.8-1.7l-2.4-.7-.1.25.9 1.95-.8-.2h-.15l.05.25-.9-.55-3.85-2.6q-.9-.65-1.7-2.15l-1.4-3.1-.25-.65-.2-.8v-.1h-.1l-2.85-2.15 2.25-2.25-2.7-1.2.9-2.5h-1.5v-1.65l3.2 1.65h.75l2.75-1.15.1 2.55 3.55.15-.35 1.75 2.7 1.8.05.05.75-.75 6.95 4.05 7.85-4.95 2.75-.05-.5-3.1 2.85.55.7-2.55 1.25.9.95-1.35-1.55-3.1 2.5-.3v-.5h-1.7L9.4-93.8l-3.05 1.85L4.85-94 2.9-91.1l-1.6-.15.15-1.5-2.55.6-.95-2.7-2.45 1.9-1.35-2.25-.05 1.75-3.2.7-1.05-1.45-2.55 2.45-1.9-1.65-1.25 3.3-1.6.15-.55-4.5-1.65 1.6 1.05 1.5-1.85.9v-.05.05l-1.35.75-1.7.85.7-.35.35-.2h.05l-.05-.15-.3-.25-1.4-1.15-.1-.15 2.05-2.7.05-.15 1.15.6h.65-.65l-1.15-.6-.05-.05-1.55-.8.3-3.2v-.1l2.1-.3.5-1.6.25-.8.05-.2.2-.7.6-1.85h.05v-.1l1.2-3.05.05-.05q.55-1.8 1.6-3.25l-.35-2.6 1.9.9.1-.05 2.35-1.7-1.3 2.9 2.1 2.15 2.15-1.65.45 2.05.75 1.45 5.3-.4 2.9 1.45.65-1.6 5.75-.25.85-1.9-1.6-3.15 2.8-.75m-29.3 14.75 1.95-.25-1.95.25m.55 4.8h.05v-.05l-.05.05m-1 3.9-.6.3.6-.3m.25 3.55h.6l-1.4 1.85.95 1.05-.8.8.8-.8-.95-1.05 1.4-1.85h-.6m2.05 0h-1.45 1.45m.85 2.15-1.8 1.7-.95-.95.95.95 1.8-1.7M-24-86.15h1.7-1.7m35.75-6h1.6l.8-4-.7 1.2-2.75-.4.85 1h.15l.05 2.2m6.05-6.55-1.95-.25 1.95.25m-.8 5.3 1.6-.85-1.6.85m2.25 3.9-2.6-1.35 2.6 1.35m-7 2.3v-.05.05m6.4 4.45-.8-.85.95-1-1.4-1.85h3-3l1.4 1.85-.95 1 .8.85h.05-.05m-35.3-25.9-.2-1.35.2 1.35m34.7 29.7.05-.2.1-.35-2.1-.7 2.1.7-.1.35-.05.2m-2.15-7.5h1.5-1.5m-.85 2.15 1.8 1.7 1-1-1 1-1.8-1.7m-34.7 4.4-2.1.75.05.3.05.2.15.6-.15-.6-.05-.2-.05-.3 2.1-.75" transform="translate(192.55 294)"/><path fill-rule="evenodd" fill="#283f44" d="M6.2-66.1v.1l-.25.05V-66l.25-.1m-25.95-37.45.05-.1v.1h-.05m31.85 8.7h-.05.05m-32.3 26.6.3.4h-.3v-.4" transform="translate(192.55 294)"/><path fill-rule="evenodd" fill="#f5eec5" d="M18.95-89.9v.2h-.1l.1-.2M-21.3-77.15l-.25-.8-.05-.1h.1v.1l-.1-.1.1.1.2.8m-1.5-12.05.05-.6.3.25.05.15h-.05l-.35.2m.6-4.6v-.2l.05.05-.05.15m-.25 4.4v-.15.15" transform="translate(192.55 294)"/><path fill-rule="evenodd" fill="#0d1417" d="m16.1-103.35.1.25-.15-.05.05-.2" transform="translate(192.55 294)"/><path fill-rule="evenodd" fill="#b09c7d" d="m-13.1-68.35-.1.25-.05-.25h.15m25.2-26.5h-.05.05m.15 7.65v-.05.05" transform="translate(192.55 294)"/><path fill-rule="evenodd" fill="#c08f3f" d="m5.95-65.95-1.8 7.3-6.3 1.7-5.65-.55-4.5-10.65-.9-1.95.1-.25 2.4.7q2.7 1.05 5.8 1.7l1.75.5L6.2-68l-.1 1.3-.15.7v.05m-9.1-1.5 1 10.5-1-10.5" transform="translate(192.55 294)"/><path stroke-width=".25" stroke-linejoin="round" stroke-linecap="round" stroke="#6f6135" fill="none" d="m196.45 175.15 5.9-1.6 4.3-1.15-2.2-4.5-5.95 3.4m-4.3 3.65.8-1.45 10.45-11.7-3-1.95-9.65 9.4-3.95 5-.9 1.05m11.3.35-1.15.1m4.25-2.2-.25 1.8-2.85.3.4 2.4 1.7-.4.85 2.4v.15l-.2.3-1.5.35m6.4 5.95.3.65.35.65.85 1.85v.1l.25.6.1.25.5 1.25.2.55.9 2.6 2.05.3v.05l.3 3.25-1.55.85.25.35 1.85 2.5-1.75 1.5v.2m.3.2 2.7 1.4v1.65h-1.55l.95 2.45-2.65 1.25 2.15 2.25-2.95 2.2.15-.65-.25 1-.15.45q-.75 2.15-2 4m-.05.15-1.5 1.8-1.3 1.3q-3.15 3-6 3.95l-.6.2m-.25.15-1.8 7.3-6.3 1.7-5.65-.55-4.5-10.65m-.9.05-.9-.55-3.85-2.6q-.9-.65-1.7-2.15l-1.4-3.1-.25-.65-.25-.8-.05-.1-2.85-2.15 2.25-2.25-2.7-1.2.9-2.5h-1.5v-1.65l2-1.05.7-.35.05-.6-1.4-1.15-.15-.15h.05l2.05-2.7v-.2l-1.55-.8.3-3.2v-.1l2.1-.3.5-1.6.25-.8.05-.2.2-.7.6-1.85.05-.1 1.2-3.05m1.65-3.3-.35-2.6 1.9.9.1-.05m2.35-1.7-3.25-2.1 1.05-1.8q1.25.6 2.5 1.1l1.75-1.2 2.05 1.6 2.25-5.85 1.75 1.2 3.6-5.7 1.4 1.45m-13.1 11.3 1.05.7M199 178.2l.65-.15M195 173.5l3.5-2.2m-9.65 2.95-1.05-.75m-7.8 4.25-.7.45 2.45 2.9m2.5-2.4-.45-.55m-10.65 17.2-1.95.25m-.8 4.45 1.15.6h.65m-.1 2.85v.05l-1.35.75m-.35-4.25-.05.15m0-.2.05.05m-.25 4.55.6-.3m-.95-.1.3.25v.15h.05m-.05 0-.35.2m.6 6.75.8-.8-.95-1.05 1.4-1.85h-3.05m2.6 2.9.95.95 1.8-1.7m-2.3-2.15h1.45m35.35-12.8 1.95.25m.8 4.45-1.6.85m-.35 2.55 2.6 1.35m1.15 3.05h-3l1.4 1.85-.95 1 .8.85h.05m-.85-.85-1 1-1.8-1.7m2.35-2.15h-1.5m.2 6.25 2.1.7-.1.35-.05.2M175.7 184l.2 1.35M198.5 228l.25-.1m-19.3-4.25 2.4.7q2.7 1.05 5.8 1.7l1.75.5 9.35-.55-.1 1.3-.15.7v.05m-19.15-4.15.9 1.95m-.9.05-.05-.25h.15m-8.4-9.7-.15-.6-.05-.2-.05-.3 2.1-.75m-1.85 1.95v-.1m-.1 0 .1.1.2.8m19.15 20.2-1-10.5"/><path fill-rule="evenodd" fill="#fbf3d9" d="m8.8-110.2.9.2.75.85.4-.65 1.15-2 4.9 1.55-1.65 1.95 3.75.25-.8.7-3.7-.1 2.1 4.25-1.3 1.65-.05.05-2.7.1-2.9-1.85-2.25 1.3v2.25l-3.45 2.25v-2.7l-4.7-2.35-.25-.4.5-.9.5-.55.95-1.05 2.15-.6-.15-3.1.05-.4 2.95-.2-.3 3 2.55-.75.35-2.45.25-.3m-29.9 9.8.55-1.15-6.25.15 1.75-3.1-3.3-2.15 1.8-3.8 4 3.35 3.8-.25-1.7-1.95 4.9-1.55 1.15 4.2 3.1.7h.05v-.05l1.8-2 1.95.25-.4 1.3-.25 1 1-.55.75.5.35 1.35-1.55 1.75.85-.05-.05 1.5-5.65 1.75-1.3 2.25-.35-.2.15-.3-3.05-2.65 2.1-1.7-1.2.75-2.05-1.25-2.95 1.9m12.4-3.3.55-1.75-.55 1.75m-2.55-2.25.2.75-.2-.75m-1.15 5.25-1.55 3.25 1.55-3.25m-10.15-6.4 2.2 1.85-2.2-1.85m-1.75 3.2-.75-.6.75.6m7.15-1.5-1.6-1.95 1.6 1.95m8 4.7 1.55-1.7-1.55 1.7M-28.2-82.25l-2.25-2.2 3.25-4 8.45 4.5 4.2.3-1.85-3.8 3.6-2.4 3.55 6.8L-.9-86.4l15.4 2.15.6-.35 7.3-1.35 1.1 2.65 7.2-1.4v3.8l-8.75 2.05 9.55 2.4-.8 3-.8 2.95-6.9-3.2-.4-.15.4.15.25 2.6-.6-.35-1.45 1.75 1.5 2.05.4.1 2.6 4.4-.6.8-5.55-3.75-.75-.55-.3-.1-5.95-2.05-3.1-2.65-.75.15-.95-.2 1.2 2.7.95 2.1.15.55.15.3-3-.05-3.5-.85.1-1 .4-3.15h-.65l-.65-.15-3.1 1.8-4.45-.6v2.35l.55 1.1.05.2-.35 2.85-3.7.35.5-1.85.9-3.5-2.5-.8-6.15 2.85-.45-1.2.5-.15 5.35-1.85.55-.25-.55.25.15-.55-5.55 2.3-.85-2-.6-.5-2.85 1.4-1.15.55v-5.9l2.3-.8-5.55-1.35-1.4-.4-2.1-.55-3.55-1.05 1.05-1.45 2.25-.5 1.8.5.05-.3-2.25-2.15m12.1 6.45-2.4.8 2.4-.8m29.65-30.55 1.7-1.95-1.7 1.95M5.3-104.2l.35-2.5-.35 2.5m2.9-3.25-.1 1.15.1-1.15m7.1 5.9-3.65-4.15-1.7 1.9 1.7-1.9 3.65 4.15m-12.15-3.3L3.1-106l.05 1.15m9 23.95 4.05-1.8 1.55 3.35-6.25 2.45 6.25-2.45-1.55-3.35-4.05 1.8m-46.35 21-1.85-.5 9.9-9.25.05 2.5-8.1 7.25m7.15-12.05L-38.4-70.7l-3.7-3.7 12.7-2.45 6.4 4.9h-2.8v-.15l-.2.15h-1.05m36.7-35.9.8-1.3-.8 1.3m-5.3 35.7L4.2-70.9l.15-1.25m-21 1.6-.15.3.15-.3M-22.6-64l-2.5-2.7 3.1-2.35-.6 5.05m41.3-18.35 4.8-.95-4.8.95" transform="translate(192.55 294)"/><path fill-rule="evenodd" fill="#f5eec5" d="m9.7-110 1.15.2-.4.65-.75-.85m-20.95 4-.8-2.4 2.6.4-1.8 2m3.35-.45.75.45-1 .55.25-1m1.5.95.95.55-.1.25-.5.55-.35-1.35m5.25 2.45.65-.75-.5.9-.15-.15m4.1-6.05-.05-.4H3l-.05.4m5.6-.8v-.35l.25.05-.25.3M-17-100.1l-.3-.2 1.2-.75 1.2-.75-2.1 1.7m32.3-1.45v.05h-.05l.05-.05m-17.5-.3-.15.15.15-.15m-13.15 34.1 5.55-2.3-.15.55-5.35 1.85-.05-.1m-10.45-4.2h-.2l.2-.15v.15" transform="translate(192.55 294)"/><path fill-rule="evenodd" fill="#e1cfa8" d="m19-108.05 4.05-3.35 1.3 1.7-2.85 4.25 1.8 3.1-3.85-.1-2.45-.05 1.1 2.25.95 2-2.3 2.9Q14.4-96.8 12.1-98.3L9.85-97v2.2l-3.4 2.25v-2.65L1.7-97.6l-.25-.35-1.1 1.75-2.3-2.4 1.9-1.6-.05-.05-1.6-1.05.5.55-2.6.75.6 2.45-1.1.05-.05 1.5-5.65 1.75-1.25 2.2-4.2-2.4 2.05-1.6-2.3-1.3-4.6 2.95-2.3-2.9 1.5-3.1 2.95-1.9 2.05 1.25-1.2.75.3.2 3.05 2.65-.15.3.35.2 1.3-2.25 5.65-1.75.05-1.5-.85.05 1.55-1.75.5-.55 1 .25 2.35 2.6 1.05-1.2.15.15.25.4 4.7 2.35v2.7L7.4-99.7v-2.25l2.25-1.3 2.9 1.85 2.7-.1h.05v-.05l1.3-1.65-2.1-4.25 3.7.1.8-.7m-30.8 10.7-1.6 1.3 1.6-1.3m5.05-.1 2.45-.05-2.45.05M-3.8-100l-.3-1.4-2.2 1.2 2.2-1.2.3 1.4m-6.2 5.75 1.3-2.3-1.3 2.3m29.4-9.9 2.1-1.3-2.1 1.3m-1.2-3.2-1.35 1.15 1.35-1.15m-7.1 6.05 1.45-.1-1.45.1m1 3-.8-.5.8.5m-13.8-3-.65-.4.65.4m-.65-.4.15-.15-.15.15M8.2-98.3 9.85-97 8.2-98.3m-1.75 3.1L5.1-97.5l1.35 2.3m-6.5-5 .8-.65-.8.65m2.4.65-.9 1.6.9-1.6m24.35 35.1 2.6 3.85-5.3 3.65-10.3-9.55-.8.15-3.2-.8-.75-1.65-1.2-2.7.95.2.75-.15 3.1 2.65 5.95 2.05.3.1.75.55 5.55 3.75.6-.8 1-1.3" transform="translate(192.55 294)"/><path fill-rule="evenodd" fill="#e3d3b9" d="m19.45-102.45.75 2.35-2.1-.15-1.1-2.25 2.45.05m-47.65 20.2 2.25 2.15-.05.3-1.8-.5-2.25.5 1.85-2.45m43.3-2.35 6.4-3.5.9 2.15-7.3 1.35" transform="translate(192.55 294)"/><path fill-rule="evenodd" fill="#d7c59b" d="m-27.55-77.3 2.1.55 1.4.4L-18.5-75l-2.3.8v5.9l1.15-.55 2.85-1.4.6.5.85 2 .05.1-.5.15.45 1.2 6.15-2.85 2.5.8-.9 3.5-6.15 2.8-.9-2.45-7.55 8.35-4.2.35 2.35-6.7-6.85 3.55-3.3-.95 8.1-7.25-.05-2.5.35-.4-.15-.2-1.1-1.7H-23l-6.4-4.9 1.85-.45m58.25 3.85L40.1-65l-5.05 1.85-6.7-3.35-1.65 2.05-1 1.3-2.6-4.4-.4-.1-1.5-2.05 1.45-1.75.6.35-.25-2.6 6.9 3.2.8-2.95m-21 6.3.2.45-.95-2.1.75 1.65m-5.9-.6-3.15 1.1-1.2-.25-3.5.7-.05-.2-.55-1.1v-2.35l4.45.6 3.1-1.8.65.15h.65l-.4 3.15m-4.35.85.35-2.35-.35 2.35m-20.85-5.05H-23h1.6m-.6 2.9-3.1 2.35 2.5 2.7.6-5.05 1.2-.85-1.2.85m6.65 2.75.7 1.8-.7-1.8m-3.4-.1-2.65 3.7-1.2-1.3 1.2 1.3 2.65-3.7m42.9-2.5 4.2 2.4-4.2-2.4" transform="translate(192.55 294)"/><path stroke-width=".25" stroke-linejoin="round" stroke-linecap="round" stroke="#6f6135" fill="none" d="m201.35 183.8.9.2 1.15.2 1.15-2 4.9 1.55-1.65 1.95 3.75.25 4.05-3.35 1.3 1.7-2.85 4.25 1.8 3.1-3.85-.1.75 2.35-2.1-.15.95 2-2.3 2.9q-2.35-1.45-4.65-2.95l-2.25 1.3v2.2l-3.4 2.25v-2.65l-4.75-2.4-.25-.35-1.1 1.75-2.3-2.4 1.9-1.6-.05-.05-1.6-1.05.5.55-2.6.75.6 2.45-1.1.05-.05 1.5-5.65 1.75-1.25 2.2-4.2-2.4 2.05-1.6-2.3-1.3-4.6 2.95-2.3-2.9 1.5-3.1.55-1.15-6.25.15 1.75-3.1-3.3-2.15 1.8-3.8 4 3.35 3.8-.25-1.7-1.95 4.9-1.55 1.15 4.2 3.1.7h.05V188l-.8-2.4 2.6.4 1.95.25-.4 1.3.75.45.75.5.95.55-.1.25 1 .25 2.35 2.6 1.05-1.2.65-.75m.5-.55.95-1.05 2.15-.6-.15-3.1-.05-.4h.1l2.95-.2-.3 3 2.55-.75.35-2.45v-.35l.25.05m-14.85 6.05.5-.55m-.5.55-1.55 1.75-1.55 1.7m-4.8 3.25-3.05-2.65-.3-.2 1.2-.75m7.95-4.4-.55 1.75m.8-2.75-.25 1m-2.9.25-.2-.75m-2.15 9.9 1.6-1.3m-2.15-.1 1.55-3.25m6.1.5 2.2-1.2.3 1.4m-.5 2.5-2.45.05m-12-9.9 1.6 1.95m-7.9.9.75.6m3.95-1.35-2.2-1.85m3.8 23.15-8.45-4.5-3.25 4 2.25 2.2 2.25 2.15m-4.1.3-1.05 1.45 3.55 1.05 2.1.55 1.4.4m5.55 1.35 2.4-.8m6.85-7.25-3.55-6.8-3.6 2.4 1.85 3.8m5.85-12.9-1.3 2.3m-4.9-7.55-1.2.75m34.3-6.3.8-.7m2.5 2.6-2.1 1.3m-1.3 3.9-1.1-2.25 2.45.05m-2.6-3.75 1.35-1.15m-2.9 5.8v.05h-.05l-2.7.1-1.45.1m-.65-7.85.4-.65m4.4 1.5-1.7 1.95m-2.25 7.55.8.5m-2.15-5.5 1.7-1.9 3.65 4.15m-7.2-4.75.1-1.15m-2.55.75-.35 2.5m-2.2-1.8.05 1.15m-5.5 3.15.65.4m-.65-.4.15-.15m3.65 3.9.9-1.6m-1.6-1.3-.8.65m5.15 2.7 1.35 2.3m3.4-1.8-1.65-1.3m3.3 21.4 6.25-2.45-1.55-3.35-4.05 1.8m2.95-3.7-.6.35m7.9-1.7-.9-2.15-6.4 3.5m7.3-1.35 1.1 2.65 7.2-1.4v3.8l-8.75 2.05 9.55 2.4-.8 3 9.4 8.45-5.05 1.85-6.7-3.35-1.65 2.05 2.6 3.85-5.3 3.65-10.3-9.55-.8.15-3.2-.8.2.45m.15.55.15.3-3-.05-3.5-.85.1-1-3.15 1.1-1.2-.25-3.5.7-.35 2.85-3.7.35.5-1.85-6.15 2.8-.9-2.45-7.55 8.35-4.2.35 2.35-6.7-6.85 3.55-3.3-.95-1.85-.5 9.9-9.25.2-.6-1.1-1.7-11.35 1.25-3.7-3.7 12.7-2.45 1.85-.45m38-31.85-.8 1.3m-37.85 25.6-1.85 2.45m39 11 .75 1.65m9.1.5-.3-.1m-14.3-4.15.15-1.25m-4.55 2.9-.35 2.35m4.35-.85.4-3.15m-8.25 4.7-.05-.2m-5.85-3.1.55-.25m-.55.25-5.35 1.85-.5.15.45 1.2m8.65-2.05-.9 3.5M174.05 219l-2.3.8v5.9l1.15-.55 2.85-1.4.15-.3m-9.35-1.4h4.6m-4.6 0h-1.05m.9 2.3.35-.4-.15-.2m3.95 1.2-3.1 2.35 2.5 2.7 1.2 1.3 2.65-3.7m-3.25-2.65 1.2-.85m6.15 5.4-.7-1.8m38.35-7.4-.4-.15m5.75 7.35-4.2-2.4m1.55 5.75 1-1.3m4-9-.8 2.95-6.9-3.2m2.7 10.55-.6.8-5.55-3.75m3.95-17.2-4.8.95"/></g></defs><path fill="none" d="M-1-1h315v421H-1z"/><g transform="scale(2)"><use x="75.05" y="242" xlink:href="#c" width="381" transform="translate(-192.55 -294)" height="381"/><use x="-64.741" y="-31.14" xlink:href="#d" width="102.95" transform="matrix(1.8072 0 0 1.6538 96 165.3)" height="45"/></g></svg>