<svg width="178" height="244" xmlns="http://www.w3.org/2000/svg" xmlns:xlink="http://www.w3.org/1999/xlink"><defs><linearGradient y2=".571" y1=".453" x2=".289" x1="1.143" spreadMethod="pad" id="a"><stop stop-color="#ac9546" offset="0"/><stop stop-color="#615223" offset="1"/></linearGradient><linearGradient y2=".829" y1=".146" x2=".141" x1="1.049" spreadMethod="pad" id="b"><stop stop-color="#ac9546" offset="0"/><stop stop-color="#615223" offset="1"/></linearGradient><path fill-rule="evenodd" fill-opacity="0" fill="#f0f" d="M0 0h102.95v45H0V0" id="c"/><use xlink:href="#c" width="102.95" height="45" id="e"/><g id="d"><path stroke-opacity="0" stroke-linejoin="round" stroke-linecap="round" stroke="#f0f" fill="none" d="M187.95-293.5v380h-380v-380h380M92.95.6H-97" transform="translate(192.55 294)"/><path stroke-opacity="0" stroke-linejoin="round" stroke-linecap="round" stroke="#f0f" fill="none" d="m187.95-293.5-190 190 190 190m-380-380 190 190L-192 86.5" transform="translate(192.55 294)"/><path fill-rule="evenodd" d="m1.6-149.45.1.3.05 1q0 1.85-1.3 3.1-1.3 1.35-3.15 1.35H-3q-.95 6.45-.6 10.65.25 3.5 1.7 10.95 1.25 1.75 2.15 3.8l1.1-.75.65.05-1.55-1.35q-.65-.55-.3-1.2.3-.7 1.5-1.05l6.8-2.25 2.4-.2q1.3.1 1.95.7l.1.15.35.7 1.1-.55 2.4-1.7-1-1.3 1.35-2.25.1-.35q-.45-2.2-1.7-4.3l-.45.5-.8.2-.55-.35q-.15-.35 0-.75l.5-.6-2.7-1.6.45-2q-.45-.15-.8-.85l-.5-.8-.3 1.8.1.05.2.2q.3.3.2.75l-.6.75-.55.3q-.05 1.15.3 2.25l.3.1.35.4-.2.65q-.25.3-.7.45h-.7q-.3-.2-.35-.5-.05-.3.2-.6l.2-.15q.1-1.25-.3-2.55v-.1l-.25-.15q-.3-.35-.15-.75.1-.5.5-.8l.3-.15.8-2.7-.6-.4v-.05l-.45-.4-1.4.95-.75.7V-139.85l-.4.6q-.25.15-.5.2l.3 1.5.3.05.3.4-.2.65q-.25.3-.7.45h-.7q-.3-.1-.3-.4-.05-.3.25-.6l.1-.2q.15-1.2-.2-2.4l.05-.2v-.05l.05-.2.35-.55.65-.2h.2l2.4-1.75.3-.1h.15l.1-.1q.9-.75 2.65-.85 1.75-.05 3.25.7l.45.25.25-.35 1.25-.25q.75.15 1.3.7l.45.95v.1l.35.5v.4q-.3 1.35-.1 2.65l.25.15.2.5-.3.65-.6.4-.65-.1-.2-.5.1-.45-.85.15q.55 3.75 2.2 6.4h.05l1.25 1.35 1.45.75.25 2.3-.35.3 1.35 1-.85 3.1-3.3-.75.15-.65q-3.55.65-5.5 2.6l.25 3.05-3.35.5-.05-.85q-.95.5-2.1.9l3.4 2.25.2.9.4.25.2.1q2.6 1.85 4.4 4.4l-.05.6-.5 2.9 1.2 3.1.5 2.7q-2.4 3.6-6.25 5.5v.05H11.9l.05.05 1.3 1.25.05 1.35.65-.35.35-.15.05-.05q1.6-.8 3.3-1.4l2.2 1.45.95.85.2.25q3.3 3.6 2.75 8.55-.5 4.35-3.6 7.3l.05.05 1.35-1.4 2.6 3.45-2.25 2.3q.1 1.1.75 1 .85-.3 1.75 1.05l1.65-.35 2 2-1.25 3.05v.05l1.25 2.2-.9 2.65-2.6.75-.8-1.6q-2.5 2.35-3.7 5.7-.45 1-.65 2.1l.3 3.35-.35.3.05.8-.35.95q1.15 1.35 2.8 2.4l.15-.05.35-.05q.55-.05.9.25l.3.35.3-.05.25.2q.25 1.6 1.05 2.9H25.55q.4.05.6.45l-.1.85-.05.05-.6.7-.85.25q-.4-.1-.55-.45-.15-.4.1-.85l.1-.2-.05-.4-.8-2.2-.2.15-.6.45v.35l-.05.15-.55.85q.5 1.2 1.35 2.25l.05-.05.45-.05q.5 0 .7.35l.15.7-.1.25q-.2.55-.7 1-.45.35-.95.35-.5 0-.7-.4-.25-.4-.1-.95l.15-.25-.4-1.05-1.05-1.75q-.65 0-1.05-.4l-.15-.15-.4.35q.45 1.3 1.35 2.4l.05-.05.4-.05q.45 0 .65.35.2.4 0 .9l-.1.25-.55.6-.95.4q-.45-.05-.65-.4-.2-.35 0-.9l.1-.25-.1-.4q-.45-1.35-1.45-2.55v-.1q-.55-.2-.8-.65-.25-.5-.05-1l.1-.2.1-.1-.4-1.3-.5-.85-.3-.6-.55-.05-.6-.15.05.5.15 1.05.05.05.25.15.4.65-.3.85q-.35.35-.85.4l-.8-.15q-.35-.3-.35-.7-.05-.45.3-.8l.15-.15.15-2.3-.45-.45-.1-.2q-.55-1 .05-1.95l-.1-.05q-.35-.2-.55-.5l-.5-.9q-.25-1 .25-1.8t1.35-.95l.2-.05-.45-.15 1-4.4 2.85.9q2-2.2 3.15-6.3l-1.2.05-1.35-2.4.9-3.05 1.55.1q-.15-1.85-.7-2.05l-.9-.55-.9-.95-2.5-1.5v-.25l-2.6-.2q-1.75-1.7-3.5-2.6l-.7.5.05.15v.05l.55.2.3.7-.15.15.15.35.55.05.4.55-.65.9-1.45.25-.4-.45.45-.55-.2-.45-1.25-.2-.3-.55.6-.45h.05l-.15-.6.05-.05-.75-.3-.25-.7.75-.35h.05v-.15l-5.45.3q-5.1 1.9-7.35-.9l-2.5 1.45-.65 2.2.9 1.8-1.15 2.25-3.05.4-.7-1.65-.85.5.25 1.25-.65.05q2.05 3.45 4.7 4.8l.4-.2 2.1-1.25 1.75 3 .2.3-.3.2q.75.3.75 1.25l.15 1.1.85-.4q1-.65 1 1.05-.05 1.7.5 2.6.45.85-.55 1.6-.4.25-.9.4l-1.65 1.85v.2q.05.45-.2.7-.3.3-.75.25l-.75-.35-.4-.8q-.05-.45.25-.7.25-.3.7-.2h.35l.1.05.65-.5.4-.35-.2-.05h-.1l-.3.25q-2.55.6-4.45 1.8l-.05.15-.05.2q-.2.5-.75.7l-1.15.05-.4-.25h-.1l-3.6.25-.15.2q-.3.35-.75.35-.45.05-.8-.25-.35-.3-.35-.75l.2-.85.15-.1-.25.1-.15.2-.75.45q-.5.05-.9-.2l-.5-.8q-.05-.5.25-.85l.65-.45-.25-.45.1-.75.65-.5.8.1.2.15.05.05q1.7-.25 3.2-.9h.2l.25-.4q.35-.45.9-.45.55-.05.95.3l.25.25.1.15 4.2-.3-.05-.2-.1.1-2-.65-.4-2.85q-2.05-3.5-5.9-5.25l-.45 1.55-2.65.05-1.45-1.9.85-2.5.1-.3 1.75.05v.05l.4-2.3-.15-.25-.7-.3.1-.7-.1-.1.1-.15.3-2.35-2.1.1-.6-.25.9 6.5-4.5 1.45-5-6.35-1.15-4.45-1.65-.45-.15.2-1.45-.9-.9-.6q-6.3-4.35-7.85-11.6v-1.6l-.05-.05.05-.05v-.5l.05-1.2.05-.75.05-1.5v-.1l.15-1.9.1-.95.05-.45.05-.5.05-.45.5-3.75q1.05-6.5 5.5-14.5l2-3 .4-.55 1.3-5.55q-2.6-1.25-5.6-.95l.3 1.3-2 1.15-1.9-.85-.25-1.45-.75.85v.05l-.1.15 1.05.85.15-.05q.35-.05.6.2l.2.55-.05.25v.2q-.75 1.2-.95 2.4l.1.2.05.6-.45.4q-.4.15-.75 0l-.5-.45-.05-.65.45-.4.3-.05.75-1.5q-.2-.05-.4-.2l-.2-.6.05-.3-.95-1.1q-.8.65-2 .95l-.2.05-.05 2.85.2.2q.3.3.3.75t-.35.8l-.35.15-.05.1q-.8 1.3-1.05 2.55l.1.15.05.6-.5.5h-.7l-.55-.45q-.2-.3-.05-.65l.5-.45.35-.05q.7-1.15.95-2.25l-.45-.3q-.35-.35-.3-.8 0-.4.4-.7l.25-.2.1-.05q.25-1.35.2-2.65l-1.45-.2-2.6 1.65-.05.25q-.15.5-.55.7l-.7.2q0 1.3.35 2.45l.2.1.3.65q.05.4-.2.75-.3.3-.7.35l-.7-.2q-.35-.3-.35-.7l.25-.75.15-.15.1-.05q.05-1.55-.25-3l-.1-.1-.05-.1-.1-.85q.1-.55.55-.75l.9-.1.3.1.1.1q1.15-.45 2.15-1.05l-.4-.45q-1.8.35-3.2 1.05l-.05.25q-.25.4-.65.5-.45.15-.85 0l-.1-.1v.05l-.4 1.9.15.15.05.65q-.05.3-.4.5l-.65.1-.5-.4-.05-.65.35-.5.3-.15q.5-1.2.65-2.4v-.25l.15-.4.1-.1.55-.45.55-.05.25.1.25.15.1.1.3-.05q1.55-.3 2.9-.95l.05-.1.25-.6 1.2-.9q1.15-.55 2-1.25l.1-.5.1-.25.25-.4.95-.9.55-.25 1.25.1.75.7.1.1.65.8.35.25-.55-1.45-.2-.55.95-.65 1.05-.7.25-.2 2.15 2.6-.45.35 1 .5q2.45 1.2 4.6 1.2l.35-.65.2-1.1.05-.55.1-1.9q.1-2.75-.2-6.2l-.3-2.6h-.3q-1.85 0-3.15-1.35l-.35-.4q-.95-1.15-.95-2.7.05-1.85 1.4-3.15 1.3-1.35 3.15-1.35 1.8 0 3.1 1.35h.05q.85.85 1.05 1.85 1-.8 2.35-.8 1.65-.05 2.8 1.1v.05q1.1 1.1 1.1 2.75t-1.15 2.8q-1.2 1.2-2.8 1.2l-1.4-.25q-.55 7.8-.25 12.95h.2l.15-1.5 2.5-.5 1.4 1.45v.05l-.15 1.25.55-.15 2.7-.4 2.2-.05q2.7.05 5.25.95 1.75.55 3.5 1.45l.95.55q.1-5.55-.2-13.25l-.1-2.1-1.35.25q-1.65-.05-2.8-1.2l-.9-1.3-.2-1.45q0-1.65 1.15-2.75 1.15-1.2 2.8-1.15 1.3-.05 2.3.75.3-1 1.15-1.8.8-.75 1.7-1.1l.35-.1 1-.1h.1l1.75.3 1.35 1 .3.25.6.85.25.75M24.75-64.2l.1-.05h-.1v.05m-10.2-71.15-.15-.3-.15.65.2-.1.1-.25M2.1-112.45l-.3-.2.2.95.1-.75m.2-2.25.85.35-.1.35 1.15-.7-1.85-.35-.05.3v.05m2.75 1.5.8.5-.45.9 1.05-.25.8.45-.45 1.05v.05l.55.65-.05.1 1.25-.1.35.25-.15-1.9q-1.4-.7-2.75-.9l-.05-1.75-.7-.3-.2 1.2v.05m5.1 9.45-.05.05.3 1-.2.1 1 .25q1.25-1.4 1.7-2.95l-1.15-1.45-.65 1.95.05.1-.1.1-.1.2h-.15l-.65.65m4.65 2.5v-.1l-1.35 2-2.4-.5.1.95 1.5.65q1.55-1.15 2.15-3m-11.65-9.4q-.65 0-1.05-.45l.3 1.8 1.25-.4.55-1.25-.15-.15v.05q-.45.35-.9.4m2.25 1.75-.15.8.35-.55-.2-.25m-2.6 2.7.15 1.5 1.1 11.45.35.25q1.55 1.4 3.25 1.9l.3-.6v-.05q-.7-.45-1-1.1-.3-.95.2-1.8.65-.45 1.75-.55l.1-.4-.3-.15-.75-.7q-.45-.8-.1-1.6l.35-.3V-99.2q-.75-.1-1.2-.45-.55-.65-.45-1.45l1.2-1.1-.1-.35q-.65 0-1.1-.3-.6-.5-.65-1.2.35-.85 1.55-1.6l.1-.05v-.1l.25-.45-.55.45-.35-.8h-.05q-.55.15-.95 0l-.75-.65-.05.6-2.3.45M-.25-80.85l1.35-.2q1.8-.6 2.75-1.8 1-1.3.75-2.8-.1-.95-.6-1.65-.8 3.75-4.25 6.45m12.85-10.6-1.1.15h-.1v.25l1.2-.4m1.95 3.5q-1.35.35-2 1.75-.65 1.45-.4 3.3l.6 3.15q.4 1.3 2.1 1.05 1.7-.2 2.4-1.65.65-1.4.75-3.55.1-2.25-1-3.35t-2.45-.7M-8.2-54.5l-2.05.35.1.1.2.1q.9-.2 1.75-.55m1.35-1.5-.05-.05-.1-.1-.3.15-4.4.3-.05.1-.05.1.1.1.1.15q2.25-.05 4.3-.65h.05l.4-.1m-10.9 1.85.05.15 3.3-.45.25-.85.25-.3-.15-.25q-1.8.25-3.2.9l-.1.25-.55.45.15.1m1.8 1.2.2.2.1.1 3.2-.2v-.1h-.2q-.65.1-1.15-.25l-.3-.3-2.3.3.45.25m31.55.8-.6-.15.4.4.15.3.05-.5v-.05m2.5 6.4 2.5 2.55.2-.05h.1l.05-.25q-1.05-1.4-2.65-2.45l-.2.2m.55 2.6h.2l-1.2-1.3.85 1.3h.15" transform="translate(192.55 294)"/><path stroke-width="3" stroke-linejoin="round" stroke-linecap="round" stroke="#262015" fill="none" d="M217.3 229.8v-.05h.1l-.1.05m-33.5-.45-.4.2q-2.65-1.35-4.7-4.8l.65-.05-.25-1.25.85-.5.7 1.65 3.05-.4 1.15-2.25-.9-1.8.65-2.2 2.5-1.45q2.25 2.8 7.35.9l5.45-.3v.15h-.05l-.75.35.25.7.75.3-.05.05.15.6h-.05l-.6.45.3.55 1.25.2.2.45-.45.55.4.45 1.45-.25.65-.9-.4-.55-.55-.05-.15-.35.15-.15-.3-.7-.55-.2v-.05l-.05-.15.7-.5q1.75.9 3.5 2.6l2.6.2v.25l2.5 1.5.9.95.9.55q.55.2.7 2.05l-1.55-.1-.9 3.05 1.35 2.4 1.2-.05q-1.15 4.1-3.15 6.3l-2.85-.9-1 4.4.45.15-.2.05q-.85.15-1.35.95-.5.8-.25 1.8l.5.9q.2.3.55.5l.1.05q-.6.95-.05 1.95l.1.2.45.45-.15 2.3-.15.15q-.35.35-.3.8 0 .4.35.7l.8.15q.5-.05.85-.4l.3-.85-.4-.65-.25-.15-.05-.05-.15-1.05-.05-.5.6.15.55.05.3.6.5.85.4 1.3-.1.1-.1.2q-.2.5.05 1 .25.45.8.65v.1q1 1.2 1.45 2.55l.1.4-.1.25q-.2.55 0 .9t.65.4l.95-.4.55-.6.1-.25q.2-.5 0-.9-.2-.35-.65-.35l-.4.05-.05.05q-.9-1.1-1.35-2.4l.4-.35.15.15q.4.4 1.05.4l1.05 1.75.4 1.05-.15.25q-.15.55.1.95.2.4.7.4.5 0 .95-.35.5-.45.7-1l.1-.25-.15-.7q-.2-.35-.7-.35l-.45.05-.05.05q-.85-1.05-1.35-2.25l.55-.85.05-.15v-.35l.6-.45.2-.15.8 2.2.05.4-.1.2q-.25.45-.1.85.15.35.55.45l.85-.25.6-.7.05-.05.1-.85q-.2-.4-.6-.45H217.7q-.8-1.3-1.05-2.9l-.25-.2-.3.05-.3-.35q-.35-.3-.9-.25l-.35.05-.15.05q-1.65-1.05-2.8-2.4l.35-.95-.05-.8.35-.3-.3-3.35q.2-1.1.65-2.1 1.2-3.35 3.7-5.7l.8 1.6 2.6-.75.9-2.65-1.25-2.2v-.05l1.25-3.05-2-2-1.65.35q-.9-1.35-1.75-1.05-.65.1-.75-1l2.25-2.3-2.6-3.45-1.35 1.4-.05-.05q3.1-2.95 3.6-7.3.55-4.95-2.75-8.55l-.2-.25-.95-.85-2.2-1.45q-1.7.6-3.3 1.4l-.05.05-.35.15-.65.35-.05-1.35-1.3-1.25-.05-.05H204.6v-.05q3.85-1.9 6.25-5.5l-.5-2.7-1.2-3.1.5-2.9.05-.6q-1.8-2.55-4.4-4.4l-.2-.1-.4-.25-.2-.9-3.4-2.25q1.15-.4 2.1-.9l.05.85 3.35-.5-.25-3.05q1.95-1.95 5.5-2.6l-.15.65 3.3.75.85-3.1-1.35-1 .35-.3-.25-2.3-1.45-.75-1.25-1.35h-.05q-1.65-2.65-2.2-6.4l.85-.15-.1.45.2.5.65.1.6-.4.3-.65-.2-.5-.25-.15q-.2-1.3.1-2.65v-.4l-.35-.5v-.1l-.45-.95q-.55-.55-1.3-.7l-1.25.25-.25.35-.45-.25q-1.5-.75-3.25-.7-1.75.1-2.65.85l-.1.1h-.15l-.3.1-2.4 1.75h-.2l-.65.2-.35.55-.05.2v.05l-.05.2q.35 1.2.2 2.4l-.1.2q-.3.3-.25.6 0 .3.3.4h.7q.45-.15.7-.45l.2-.65-.3-.4-.3-.05-.3-1.5q.25-.05.5-.2l.4-.6V153.85l.75-.7 1.4-.95.45.4v.05l.6.4-.8 2.7-.3.15q-.4.3-.5.8-.15.4.15.75l.25.15v.1q.4 1.3.3 2.55l-.2.15q-.25.3-.2.6.05.3.35.5h.7q.45-.15.7-.45l.2-.65-.35-.4-.3-.1q-.35-1.1-.3-2.25l.55-.3.6-.75q.1-.45-.2-.75l-.2-.2-.1-.05.3-1.8.5.8q.35.7.8.85l-.45 2 2.7 1.6-.5.6q-.15.4 0 .75l.55.35.8-.2.45-.5q1.25 2.1 1.7 4.3l-.1.35-1.35 2.25 1 1.3-2.4 1.7-1.1.55-.35-.7-.1-.15q-.65-.6-1.95-.7l-2.4.2-6.8 2.25q-1.2.35-1.5 1.05-.35.65.3 1.2l1.55 1.35-.65-.05-1.1.75q-.9-2.05-2.15-3.8-1.45-7.45-1.7-10.95-.35-4.2.6-10.65h.3q1.85 0 3.15-1.35 1.3-1.25 1.3-3.1l-.05-1-.1-.3m-5.7-2.95q-.9.35-1.7 1.1-.85.8-1.15 1.8-1-.8-2.3-.75-1.65-.05-2.8 1.15-1.15 1.1-1.15 2.75l.2 1.45.9 1.3q1.15 1.15 2.8 1.2l1.35-.25.1 2.1q.3 7.7.2 13.25l-.95-.55q-1.75-.9-3.5-1.45-2.55-.9-5.25-.95l-2.2.05-2.7.4-.55.15.15-1.25v-.05l-1.4-1.45-2.5.5-.15 1.5h-.2q-.3-5.15.25-12.95l1.4.25q1.6 0 2.8-1.2 1.15-1.15 1.15-2.8t-1.1-2.75v-.05q-1.15-1.15-2.8-1.1-1.35 0-2.35.8-.2-1-1.05-1.85h-.05q-1.3-1.35-3.1-1.35-1.85 0-3.15 1.35-1.35 1.3-1.4 3.15 0 1.55.95 2.7l.35.4q1.3 1.35 3.15 1.35h.3l.3 2.6q.3 3.45.2 6.2l-.1 1.9-.05.55-.2 1.1-.35.65q-2.15 0-4.6-1.2m-2.95-3.25-1.05.7m-.75 1.2.55 1.45-.35-.25-.65-.8m-3.95.9-.1.5q-.85.7-2 1.25l-1.2.9-.25.6-.05.1q-1.35.65-2.9.95m-2.25.95q-.15 1.2-.65 2.4l-.3.15-.35.5.05.65.5.4.65-.1q.35-.2.4-.5l-.05-.65-.15-.15.4-1.9v-.05l.1.1q.4.15.85 0 .4-.1.65-.5l.05-.25q1.4-.7 3.2-1.05l.4.45q-1 .6-2.15 1.05l-.1-.1-.3-.1-.9.1q-.45.2-.55.75l.1.85.05.1.1.1q.3 1.45.25 3l-.1.05-.15.15-.25.75q0 .4.35.7l.7.2q.4-.05.7-.35.25-.35.2-.75l-.3-.65-.2-.1q-.35-1.15-.35-2.45l.7-.2q.4-.2.55-.7l.05-.25 2.6-1.65 1.45.2q.05 1.3-.2 2.65l-.1.05-.25.2q-.4.3-.4.7-.05.45.3.8l.45.3q-.25 1.1-.95 2.25l-.35.05-.5.45q-.15.35.05.65l.55.45h.7l.5-.5-.05-.6-.1-.15q.25-1.25 1.05-2.55l.05-.1.35-.15q.35-.35.35-.8 0-.45-.3-.75l-.2-.2.05-2.85.2-.05q1.2-.3 2-.95l.95 1.1-.05.3.2.6q.2.15.4.2l-.75 1.5-.3.05-.45.4.05.65.5.45q.35.15.75 0l.45-.4-.05-.6-.1-.2q.2-1.2.95-2.4v-.2l.05-.25-.2-.55q-.25-.25-.6-.2l-.15.05-1.05-.85.1-.15v-.05l.75-.85.25 1.45 1.9.85 2-1.15-.3-1.3q3-.3 5.6.95l-1.3 5.55-.4.55-2 3q-4.45 8-5.5 14.5l-.5 3.75-.05.45m-.5 8.8v.75q1.55 7.25 7.85 11.6l.9.6 1.45.9.15-.2 1.65.45 1.15 4.45 5 6.35 4.5-1.45-.9-6.5.6.25 2.1-.1-.3 2.35-.1.15.1.1-.1.7.7.3.15.25-.4 2.3v-.05l-1.75-.05-.1.3-.85 2.5 1.45 1.9 2.65-.05.45-1.55q3.85 1.75 5.9 5.25l.4 2.85 2 .65.1-.1.05.2-4.2.3-.1-.15-.25-.25q-.4-.35-.95-.3-.55 0-.9.45l-.25.4h-.2q-1.5.65-3.2.9l-.05-.05-.2-.15-.8-.1-.65.5-.1.75.25.45-.65.45q-.3.35-.25.85l.5.8q.4.25.9.2l.75-.45.15-.2.25-.1-.15.1-.2.85q0 .45.35.75t.8.25q.45 0 .75-.35l.15-.2 3.6-.25h.1l.4.25 1.15-.05q.55-.2.75-.7l.05-.2.05-.15q1.9-1.2 4.45-1.8l.3-.25h.1l.2.05-.4.35-.65.5-.1-.05h-.35q-.45-.1-.7.2-.3.25-.25.7l.4.8.75.35q.45.05.75-.25.25-.25.2-.7v-.2l1.65-1.85q.5-.15.9-.4 1-.75.55-1.6-.55-.9-.5-2.6 0-1.7-1-1.05l-.85.4-.15-1.1q0-.95-.75-1.25l.3-.2-.2-.3m19.45-72.45-.1.25-.2.1.15-.65.15.3m-12.45 22.9-.3-.2.2.95.1-.75m.2-2.25.85.35-.1.35 1.15-.7-1.85-.35-.05.3v.05m2.75 1.5.8.5-.45.9 1.05-.25.8.45-.45 1.05v.05l.55.65-.05.1 1.25-.1.35.25-.15-1.9q-1.4-.7-2.75-.9l-.05-1.75-.7-.3-.2 1.2v.05m5.1 9.45-.05.05.3 1-.2.1 1 .25q1.25-1.4 1.7-2.95l-1.15-1.45-.65 1.95.05.1-.1.1-.1.2h-.15l-.65.65m4.65 2.5q-.6 1.85-2.15 3l-1.5-.65-.1-.95 2.4.5 1.35-2v.1m-11.65-9.4q-.65 0-1.05-.45l.3 1.8 1.25-.4.55-1.25-.15-.15v.05q-.45.35-.9.4m2.25 1.75-.15.8.35-.55-.2-.25m-2.6 2.7.15 1.5 1.1 11.45.35.25q1.55 1.4 3.25 1.9l.3-.6v-.05q-.7-.45-1-1.1-.3-.95.2-1.8.65-.45 1.75-.55l.1-.4-.3-.15-.75-.7q-.45-.8-.1-1.6l.35-.3V194.8q-.75-.1-1.2-.45-.55-.65-.45-1.45l1.2-1.1-.1-.35q-.65 0-1.1-.3-.6-.5-.65-1.2.35-.85 1.55-1.6l.1-.05v-.1l.25-.45-.55.45-.35-.8h-.05q-.55.15-.95 0l-.75-.65-.05.6-2.3.45m-3.05 25.35q3.45-2.7 4.25-6.45.5.7.6 1.65.25 1.5-.75 2.8-.95 1.2-2.75 1.8l-1.35.2m12.85-10.6-1.1.15h-.1v.25l1.2-.4m1.95 3.5q1.35-.4 2.45.7t1 3.35q-.1 2.15-.75 3.55-.7 1.45-2.4 1.65-1.7.25-2.1-1.05l-.6-3.15q-.25-1.85.4-3.3.65-1.4 2-1.75m-22.75 33.45-2.05.35.1.1.2.1q.9-.2 1.75-.55m1.35-1.5-.05-.05-.1-.1-.3.15-4.4.3-.05.1-.05.1.1.1.1.15q2.25-.05 4.3-.65h.05l.4-.1m-10.9 1.85.05.15 3.3-.45.25-.85.25-.3-.15-.25q-1.8.25-3.2.9l-.1.25-.55.45.15.1m1.8 1.2.2.2.1.1 3.2-.2v-.1h-.2q-.65.1-1.15-.25l-.3-.3-2.3.3.45.25m31.55.8v.05l-.05.5-.15-.3-.4-.4.6.15m2.5 6.4 2.5 2.55.2-.05h.1l.05-.25q-1.05-1.4-2.65-2.45l-.2.2m.55 2.6h-.15l-.85-1.3 1.2 1.3h-.2"/><path fill-rule="evenodd" fill="#837032" d="m-8.7-79.4.35 1.7-.35-1.7m4.6 19.35.85-.4q1-.65 1 1.05-.05 1.7.5 2.6.45.85-.55 1.6-1 .7-2.4.5-1.4-.25-2.2-1.35l-.55-1.4-.1.1-2-.65-.4-2.85q-2.05-3.5-5.9-5.25l-.45 1.55-2.65.05-1.45-1.9.95-2.8 1.75.05v.05l.4-2.3-.85-1.35 3.2-2.55.4.6q.8-1.25 1.75-1.2.7.05.7-.9l-2.65-1.75 2.3-3.35 1.6 1.05 1.8-1.75 2.9.95.25 2.25-2.45 1.7q-.65.9-1.75 1.5-.6.25-.5 1.9l1.65-.25 1.25 2.5-1.15 2.25-3.05.4-.75-1.7v-.05l-.9.3.35 1.55-.65.05q2.05 3.45 4.7 4.8l2.5-1.45 1.95 3.3-.3.2-1.3.7.75 2.3-.65.65 1.5-.05q1.2.15.8-.6l-.2-.65m-11.3-7.75-.45 1.7.45-1.7m.65-1.35.9-.1-.9.1m1.55-3.2.55 1.2-.55-1.2m-4.1.95.9 1.4 2.85-.85-2.85.85-.9-1.4m.85 2.35-1.25-.05 1.25.05m2.45-4.9-.55-.75.55.75m2.75-6.5.4-.4-.4.4m3.8 23 1.25-1.3-1.25 1.3m-4.3-20.45-.35 1.1.35-1.1m-.65 3.95 1.8-.35-1.8.35m4 13.5-1.55-.4 1.55.4m0-3.2-.75-.8.75.8m1.95 1.5.15.45-.15-.45" transform="translate(192.55 294)"/><path fill-rule="evenodd" fill="#685528" d="M-5-62.4q.75.3.75 1.25l.15 1.1.2.65q.4.75-.8.6l-1.5.05.65-.65-.75-2.3 1.3-.7" transform="translate(192.55 294)"/><path stroke-width=".25" stroke-opacity=".502" stroke-linejoin="round" stroke-linecap="round" stroke="#302505" fill="none" d="m184.2 216.3-.35-1.7m4.6 19.35.85-.4q1-.65 1 1.05-.05 1.7.5 2.6.45.85-.55 1.6-1 .7-2.4.5-1.4-.25-2.2-1.35l-.55-1.4-.1.1-2-.65-.4-2.85q-2.05-3.5-5.9-5.25l-.45 1.55-2.65.05-1.45-1.9.95-2.8 1.75.05v.05l.4-2.3-.85-1.35 3.2-2.55.4.6q.8-1.25 1.75-1.2.7.05.7-.9l-2.65-1.75 2.3-3.35 1.6 1.05 1.8-1.75 2.9.95.25 2.25-2.45 1.7q-.65.9-1.75 1.5-.6.25-.5 1.9l1.65-.25 1.25 2.5-1.15 2.25-3.05.4-.75-1.7v-.05l-.9.3.35 1.55-.65.05q2.05 3.45 4.7 4.8l2.5-1.45 1.95 3.3-.3.2q.75.3.75 1.25l.15 1.1.2.65q.4.75-.8.6l-1.5.05-1.25 1.3m-3.4-23.4-.4.4m-3.3 5.75.55.75m-3.7 4.85 1.25.05m2.9-1.8-2.85.85-.9-1.4m4.65.25-.55-1.2m-.65 3.1-.9.1m-1.1 3.05.45-1.7m10.4 5.4-1.3.7.75 2.3-.65.65m-.1-2.95-.15-.45m-2.7-2.3.75.8m-1.55 2.8 1.55.4m-2.2-13.85-1.8.35m.3-2.85.35-1.1"/><path fill-rule="evenodd" fill="#9d803c" d="m-18-73.5.75-5.85 9.65 2-1.15 4.05-2.35 1.35-6.9-1.55m-2.2-.2-5.9.5-3.2-1.5-1.4-5.45 10.05 3.65.45 2.8" transform="translate(192.55 294)"/><path fill-rule="evenodd" fill="#ccb157" d="m-11.1-71.95-3 1.75-4.05-1.75.15-1.55 6.9 1.55m-9.1-1.75.65 4.8-4.5 1.45-5-6.35-.25-.9 3.2 1.5 5.9-.5" transform="translate(192.55 294)"/><path stroke-width=".25" stroke-opacity=".502" stroke-linejoin="round" stroke-linecap="round" stroke="#302505" fill="none" d="m174.55 220.5.75-5.85 9.65 2-1.15 4.05-2.35 1.35-3 1.75-4.05-1.75.15-1.55m-11.3-1.2.25.9 5 6.35 4.5-1.45-.65-4.8m-9.1-1-1.4-5.45 10.05 3.65.45 2.8"/><path fill-rule="evenodd" fill="#f1eac2" d="m24.4-68.85 1.65-.35 2 2-.7 1.65-2.25.75-1.75-1.35-1.55 2-1.95-.15-1.4-1.15.75-2.5 1.55.1q-.15-1.85-.7-2.05l-.9-.55 1.45-1.05 1.05 1.95L24-68.4l.3-.1.1-.35m-.4.9.3-.55-.3.55m-1.5.25-1.7-.15h-.05.05l1.7.15m4 3.8.25.1.05-.3 1.2 2.05-2.95.75-1-.85 2.45-1.75M23.55-44l.3-.05.25.2q.25 1.6 1.05 2.9H25.55q.4.05.6.45l-.1.85-.05.05h-1.25l-.6-.95-.8-2.2-.25-.45.05-.35.3-.35.1-.1-.1.1-.3.35-.05.35.25.45-5.4-4.15.05-.15.5-.2.45.15.1.2q1.15 1.35 2.8 2.4l.15-.05.35-.05q.55-.05.9.25l.3.35M.25-118.3l1.1-.75.65.05.25.05q3.45.4 6.3 1.8l3.4 2.25.2.9v.35l-1.65.3-.95-1.3q-6.6-3.5-8.1-2.65l-.85-.05-.35-.95M.8-120l-.35-.35q-.65-.55-.3-1.2.3-.7 1.5-1.05l6.8-2.25 2.4-.2q1.3.1 1.95.7l.1.15-3.35.25-7.8 2.75L.8-120m13.55-4.05 2.4-1.7.85 1.05-2.4 1.4-.85-.75m-3.7-16.15-.3 1.8.1.05.2.2q.3.3.2.75l-.6.75-.55.3v-.2l-.15-.2H9.2l-.3.15-.1.2-.25-.15q-.3-.35-.15-.75.1-.5.5-.8l.3-.15.8-2.7.1-.65v-.25l.3-.35.45-.2.3.2.15.2-.15-.2-.3-.2-.45.2-.3.35v.25l-.7.2-.45-.4-1.4.95-.75.7V-139.85l-.4.6q-.25.15-.5.2l.1-.9-.2-.15h-.3l-.35.25H5.1l.05-.2.35-.55.65-.2h.2l2.4-1.75.3-.1h.15l.1-.1q.9-.75 2.65-.85 1.75-.05 3.25.7l.45.25.75.7.35.55.75.15.15-.1.3-.1.85-.1.1.05.35.5v.3l-.1-.1-.3-.1-.3.2-.15.35.05.75-.15.05-.8.05q-.4-.1-.5-.5l-.05-.25-.2-.1-.1-.1-2.75-.9-.2-.2v-.05l.1-.4.3-.3.45-.05q.7.45 1.65.8l.55.15-.55-.15q-.95-.35-1.65-.8l-.45.05-.3.3-.1.4v.05l-.1.55-.35-.15-.55-.6-.45-.05-.2.1-.75-.3v.1l-.65 1.7m1.9 26.45.2.1q2.6 1.85 4.4 4.4l-.05.6-1.75-.65-3-2.3-.2-2.05.4-.1m-40.1-36.45q1-.8 2.35-.8 1.65-.05 2.8 1.1v.05l-2.2 3.3H-27l-1.65-2.4.65-.95.45-.3m4.75 20.55.55-.15 2.7-.4 2.2-.05q2.7.05 5.25.95l.55 1.35q.9 1.35-1.4 2.75l5.3-1.25v-.85q.1-5.55-.2-13.25l1.5 1.15 1.2 15.1q-1.95-.05-4.25 1l-3.7 3.7-.75.65-1.6 2-.05.15-1.3 2.15-.5 1.25q-.75 2.15.25 3.8 1.25 2.15 5.35 1.4l7.8-.9.75-.1.75.75q1.05.75-1.6 1.6-2.55.85-10.55 1.25 7.95 1.95 10.65 3.85 1.6 1.1 1.4 2.2.3.15.25 2.3l-.15 2.7-.05 1.05q-1.8 5-4.75 8-2.4 2.35-5.45 3.5-10.85 4.05-21.7 2-6.3-4.35-7.85-11.6v-2.2l.45-6.85.05-.5.05-.45.5-3.75q1.05-6.5 5.5-14.5l2-3 .4-.55 1.3-5.55.3-1.7.15-.7.1-.75.2-1.1.05-.55.1-1.9q.1-2.75-.2-6.2l.95.95 1.3 14.4h1.95l1 .45q3.75 1.9 5.7 5.35l1.65 2.85q2.35-5.3 3.85-5.85l-1.3-.05-2.4.45-8.2-5v-.05q1.85-.85 3.95-1.3m-12.55-16.55q-.95-1.15-.95-2.7.05-1.85 1.4-3.15 1.3-1.35 3.15-1.35 1.8 0 3.1 1.35h.05l-2.1 3.25q-1 2.6-4.65 2.6m12.05 25.95-.55-.35-.85-.5q-2.4-1.45-3.7-1.65-1.6-.35-3.5 1.3-1 .75-1.7 2.3-.8 1.55-1.3 3.95-1 4.65 2.2 5.3l6.8 1.6q3.6.9 5.25-1.15 1.65-2.1.75-5.7l-.3-.8q-.6-1.85-1.85-3.15l-1.25-1.15m15.65-6.2.35.95-.35-.95m16.85-16.2.1.1.05.35-.15.3-.25.1.25-.1.15-.3-.05-.35-.1-.1m-58 12.6 1.2-.9q1.15-.55 2-1.25l.2-.75q.6-1.25 1.75-1.55 1.2-.3 2 .8l.75.9-1.5.6-1.3-.35.15.3.4.85q.3.7-.15 1.65l.2.1.8.9.05.05 1.05.85.15-.05q.35-.05.6.2l.2.55-.05.25-.05-.05-.2-.25h-.35l-.2.2-.25.85q-.2-.05-.4-.2l-.2-.6.05-.3-.95-1.1-.9-.65v-.05l-.65.8-.65-.1.1.3-.1.7-.05 2.85.2.2q.3.3.3.75t-.35.8l-.35.15-.05-.2-.25-.2h-.3l-.25.25-.1.2-.45-.3q-.35-.35-.3-.8 0-.4.4-.7l.25-.2.1-.05q.25-1.35.2-2.65l-.05-.85.2-.35.1-.1q-2-.5-3-1.5m4.45-3-.7.35-.55.5.55-.5.7-.35M-49-129.4v-.05l.45.05.2.3v.4l-.3.25-.25.05q-1.8.35-3.2 1.05l-.05.25q-.25.4-.65.5-.45.15-.85 0l-.1-.1.3-.75v-.35l-.25-.2-.3.1-.25.2.15-.4q.2-.45.65-.55l.8.05.25.15.1.1q1.7-.3 3.2-1l.1-.05m.5 1.45 1.15-.85.45-.1.35.3.1.5-.25.3-.8.35-2.6 1.65-.05.25q-.15.5-.55.7l-.7.2v-.85l-.15-.3-.35-.1-.3.2-.1.3h-.1l-.1-.85q.1-.55.55-.75l.9-.1.3.1.1.1q1.15-.45 2.15-1.05m2.7-.6.3-.05.4.15.05.1-.05-.1-.4-.15-.3.05m2.5-1.2h-.1l-.25.15-.15.3.05.25-.05-.25.15-.3.25-.15h.1m15 25.7q3.2-.45 5.1-1.85-5.65.75-11.65-2.1 2.05 2.1 6.55 3.95m46.25 52.7 1.45-.95-1.45.95m2.1-3.05q-.45 1-.65 2.1l-.05 3.65-1.4 1.15-1.2-.9.3-4.85 3-1.15m-5.75 1.8.7.3.4.4-2.4 3-.5-.9q-.25-1 .25-1.8t1.35-.95l.2-.05m1.8 7.5-.8-1.2q-.15-.2 0-.5l.35-.35.55-.15.4.35.1.3.5 1.35.45.85.85 1.3h.35l.2.05.85.6.05 1-2-.75-1.05-1.4-.5-.85-.3-.6m-1.1.3.15 1.05.05.05.25.15.4.65-.3.85q-.35.35-.85.4l-.8-.15q-.35-.3-.35-.7-.05-.45.3-.8l.15-.15.15-2.3.85.95m5.8 4.4-.35-.3v-.5l.1-.1.25-.35.45-.15.35.15.35.85q.5 1.2 1.35 2.25l.05-.05.45-.05q.5 0 .7.35l.15.7-1.45.7-1.35-1.75-1.05-1.75m-2.85 0v-.3l.35-.4.4-.2.35.2.15.5q.45 1.3 1.35 2.4l.05-.05.4-.05q.45 0 .65.35.2.4 0 .9l-.1.25-2.15-.95q-.45-1.35-1.45-2.55v-.1" transform="translate(192.55 294)"/><path fill-rule="evenodd" fill="#b69f54" d="m24.4-68.85-.1.35-.3.1-2.35-1.15-1.05-1.95-1.45 1.05-.9-.95-2.5-1.5v-.25l-.05-2.3 2.65-1.5.65.6 1.15 1.05.05.05 1.35-1.4 2.6 3.45-2.25 2.3q.1 1.1.75 1 .85-.3 1.75 1.05m2.4 4.75-.05.3-.25-.1-1.65-.35 1.65.35-2.45 1.75 1 .85 2.95-.75.05.15-.9 2.65-2.6.75-.8-1.6-.85-1.85.85 1.85q-2.5 2.35-3.7 5.7l-3 1.15-.3 4.85 1.2.9 1.4-1.15.05.8-.35.95-.1-.2-.45-.15-.5.2-.05.15-.1.3.1.4-.1-.4.1-.3 5.4 4.15-.2.15-.6.45-.3-.7q-.35-.45-1-.4h-.35l.05-.25q-1.05-1.4-2.65-2.45l-.35-.25-.1.1-.25-.4-.5-.25-.4.1-.1-.3-.4-.35-.55.15-.35.35q-.15.3 0 .5l.8 1.2-.55-.05-.6-.15.15-1.85-.2-.3-.4-.05-.35.2-.2.35.2 1.2-.2-1.2.2-.35.35-.2.4.05.2.3-.15 1.85.05.5-.85-.95-.45-.45-.1-.2q-.55-1 .05-1.95.7.3 1.1-.2l.75-.7-.75.7q-.4.5-1.1.2l-.1-.05q-.35-.2-.55-.5l2.4-3 .15.3.05-.5v-.05l-.6-.15-.7-.3-.45-.15 1-4.4 2.85.9q2-2.2 3.15-6.3l-1.2.05-1.35-2.4.15-.55 1.4 1.15 1.95.15 1.55-2 1.75 1.35 2.25-.75-.55 1.4v.05m-2.05-.15-1.75-.3.35-1.6-.35 1.6 1.75.3v.05l.1-.05h-.1m-1.2.45 1.2-.4-1.2.4m.6 23.25.6.95H26l-.6.7-.85.25q-.4-.1-.55-.45-.15-.4.1-.85l.1-.2-.05-.4m-10.9-82.95 1.1-.55.85.75 2.4-1.4-.85-1.05-1-1.3 1.35-2.25.1-.25v-.1q-.45-2.2-1.7-4.3l.1-.2v-.75l-.15-.15-.05-.05.65-1.95 1.05-.1q.55 3.75 2.2 6.4l.75 1.1.55.25 1.45.75.25 2.3-.35.3 1.35 1-.85 3.1-3.3-.75.15-.65q-3.55.65-5.5 2.6l.25 3.05-3.35.5-.05-.85-.15-.9v-.1l-2.05-.2-.9-2.75 1.25-1.65 2.35.7 2.1-.55m-1.3-15.05q-.45-.15-.8-.85l-.5-.8.65-1.7v-.1l.75.3-.25.25-.2.45q0 .2.15.3 1.3.55 2.2 1.4l-1.1.6q-.45.35-.9.15m.2 24.55.4.25-.4.1v-.35m4.95 5.35-.5 2.9 1.2 3.1.5 2.7q-2.4 3.6-6.25 5.5l-.1.05h-.05l-.85.4-1.45-1.2-.25-.25-.5-.45.65-.75.05-.05.25-.35q1.7-.4 2.85-1.2 1.55-1.15 2.15-3v-.1l-1.35 2-2.4-.5-.3-.05-.55-.1.3-1.65.7-.7q1.25-1.4 1.7-2.95.45-1.6.15-3.3l-.8-.7-.5 2.55-.65 1.95-.05.2-.1.2h-.15l-2.45.2-.7.05v-.25l-.1-1.25V-105.8l.25-.45.8-1.8.3-1.55-.15-1.9-.55-1.7-2.25-.95-.7-.3-1.05-.25-1.85-.35-1.1-.05-.4-1.4-.25-.85.85.05q1.5-.85 8.1 2.65l.95 1.3 1.65-.3.2 2.05-.1 2.3.1-2.3 3 2.3 1.75.65m-39.75-22.25-.15 1.25q-2.1.45-3.95 1.3l-.1-1.2.1-.65 2-1.2 2.1.5m-9 .25-.3 1.7q-2.6-1.25-5.6-.95l-.3-1.7.3 1.7.3 1.3-2 1.15-1.9-.85-.25-1.45-.75.85h-.05q.85-1.05 0-1.5-.55-.3-.95-1 .4.7.95 1 .85.45 0 1.5l-.1.15-.8-.9-.2-.1q.45-.95.15-1.65l-.4-.85-.15-.3 1.3.35 1.5-.6.35.25-.15-.4 1.25-.75v.05l1.4 2 .2.05 6.2.95m45.35-10.9.2.2 2.75.9-.1.15-.3.25-.35.05-.5.2q-1.25-.55-2.15-1.35l.35.15.1-.55m4 12.95-.5-.95.5.95m2.4.7-.05-1.75.05 1.75m-1.25 2.1-.55.8.55-.8-.35-.3.35.3 1.5 1.2 1.6-1.45-1.6 1.45-1.5-1.2m-.55.8-.7.3.3.4.4-.7m-5.45 4.65.95-.4-.95.4m-2.55-1.25.85-1.35-.85 1.35m9.25-2.65-.25.9.25-.9m-60.1-8.3.8.6.2.1.1.1q.55.5-.7 1.2l-1.25.8 1.25-.8q1.25-.7.7-1.2l-.1-.1-.2-.1-.8-.6m-5.25 4-.1.1-.2.35.05.85-1.45-.2.8-.35.25-.3-.1-.5-.35-.3-.45.1-1.15.85-.4-.45.25-.05.3-.25v-.4l-.2-.3-.45-.05v.05l-.05-.05.25-.6q1 1 3 1.5m.75 1.2.1-.7-.1-.3.65.1.65-.8v.05l.9.65q-.8.65-2 .95l-.2.05m-7.25 1.95.1-.3.3-.2.35.1.15.3v.85q0 1.3.35 2.45l.2.1.3.65q.05.4-.2.75-.3.3-.7.35l-.7-.2q-.35-.3-.35-.7l.25-.75.15-.15.1-.05q.05-1.55-.25-3l-.05-.2m10.95-.75.25-.85.2-.2h.35l.2.25.05.05v.2q-.75 1.2-.95 2.4l.1.2.05.6-.45.4q-.4.15-.75 0l-.5-.45-.05-.65.45-.4.3-.05.75-1.5m57.95 20.4-.7 2.15-1.1 2.25 1.1-2.25.7-2.15m4 30.9-.4-.4.4.4m-2.25 1.6-.1 1.85.1-1.85M21.4-72l.5 1.1-.5-1.1m1.6 7.45-.45 2h-1.7 1.7l.45-2m-5.8 9.45.5-1.15-.5 1.15m-1.75 5.75.1-2.25-.1 2.25.05.1h.05l-.1-.1m1.3.95-1.2-.85 1.2.85m-1.1-4.35-.05.6.05-.6m1.25 9.1 1.05 1.4 2 .75-.05-1 2.6.85-.55.85-.35-.85-.35-.15-.45.15-.25.35-.1.1v.5l.35.3q-.65 0-1.05-.4l-.15-.15-.4.35-.15-.5-.35-.2-.4.2-.35.4v.3q-.55-.2-.8-.65-.25-.5-.05-1l.1-.2.1-.1-.4-1.3m4.95 5 1.35 1.75 1.45-.7-.1.25q-.2.55-.7 1-.45.35-.95.35-.5 0-.7-.4-.25-.4-.1-.95l.15-.25-.4-1.05m-1.9-2.85-.05.1-.3.45.3-.45.05-.1m-.55 3.75 2.15.95-.55.6-.95.4q-.45-.05-.65-.4-.2-.35 0-.9l.1-.25-.1-.4" transform="translate(192.55 294)"/><path fill-rule="evenodd" fill="#d2c086" d="m-6.45-149.2 1.75 1.15q2.05 1.8 4.7.8l1.7-1.9.05 1q0 1.85-1.3 3.1-1.3 1.35-3.15 1.35H-3q-.95 6.45-.6 10.65.25 3.5 1.7 10.95 1.25 1.75 2.15 3.8l.35.95.25.85.4 1.4.5 2.4.05.05.2.95.1.6.3 1.8.4 3.1.15 1.5 1.1 11.45.2 2.65q.1 1.75-.25 3.3-.8 3.75-4.25 6.45l-.85.6-.2.1-3.05 1.95-1.1.7q-2.4 1.45-3.3 1.8l-.3.2-10.8.35-12-3.55-.15.2-1.45-.9-.9-.6q10.85 2.05 21.7-2 3.05-1.15 5.45-3.5 2.95-3 4.75-8l.05-1.05.15-2.7q.05-2.15-.25-2.3.2-1.1-1.4-2.2-2.7-1.9-10.65-3.85 8-.4 10.55-1.25 2.65-.85 1.6-1.6l-.75-.75q2.6-.55 1.4-5L-3-117.85q-.9-2.05-1.85-2.95-1.25-1.2-2.7-1.3l-1.2.1q-2.2.4-4.35 2.4l3.7-3.7q2.3-1.05 4.25-1l-1.2-15.1-1.5-1.15-.1-2.1-1.35.25q-1.65-.05-2.8-1.2l-.9-1.3q3.05.95 5.35-1l1.5-2.9-.35-.3.05-.1m1.05 2.05q-.25-.95-.75-1.65.5.7.75 1.65m20.9 13.2-.45.5-.8.2-.55-.35q-.15-.35 0-.75l.5-.6.05-.05.2-.1.1-.25 1-2.2.2-.8.25-.35.4-.1q.2 0 .25.2v.35l-.05.05-.55 1.15-.65 1.95.05.05.15.15v.75l-.1.2m-5.8-2.4q-.05 1.15.3 2.25l.3.1.35.4-.2.65q-.25.3-.7.45h-.7q-.3-.2-.35-.5-.05-.3.2-.6l.2-.15q.1-1.25-.3-2.55v-.1l.1-.2.3-.15h.35l.15.2v.2m-3.8-2.7.3 1.5.3.05.3.4-.2.65q-.25.3-.7.45h-.7q-.3-.1-.3-.4-.05-.3.25-.6l.1-.2q.15-1.2-.2-2.4l.05-.2.05-.05.35-.25h.3l.2.15-.1.9m13.35-1.65v.1q-.3 1.35-.1 2.65l.25.15.2.5-.3.65-.6.4-.65-.1-.2-.5.1-.45.2-.2.15-.15.15-1.95-.05-.75.15-.35.3-.2.3.1.1.1m-46.8-9.5-.45.3-.65.95 1.65 2.4h2.4l2.2-3.3q1.1 1.1 1.1 2.75t-1.15 2.8q-1.2 1.2-2.8 1.2l-1.4-.25q-.55 7.8-.25 12.95l.05.85.1 1.2v.05l8.2 5 2.4-.45 1.3.05q-1.5.55-3.85 5.85l-1.65-2.85q-1.95-3.45-5.7-5.35l-1-.45H-29l-1.3-14.4-.95-.95-.3-2.6h-.3q-1.85 0-3.15-1.35l-.35-.4q3.65 0 4.65-2.6l2.1-3.25q.85.85 1.05 1.85m15.45 20.9q1.75.55 3.5 1.45l.95.55v.85l-5.3 1.25q2.3-1.4 1.4-2.75l-.55-1.35m-16.95-18.6.4-1.05-.4 1.05m-1.1 3.15-1.4.3 1.4-.3m22.2 2.1q.7-.25 1.2-.7-.5.45-1.2.7m-18.6 15.6-.2-1.25.2 1.25m-.1-16.3-1.15-.75 1.15.75m22.25-.7 1.4.35-1.4-.35m-41.85 21.5.1-.2.25-.25h.3l.25.2.05.2-.05.1q-.8 1.3-1.05 2.55l.1.15.05.6-.5.5h-.7l-.55-.45q-.2-.3-.05-.65l.5-.45.35-.05q.7-1.15.95-2.25m-7.5-4.15v.05l-.4 1.9.15.15.05.65q-.05.3-.4.5l-.65.1-.5-.4-.05-.65.35-.5.3-.15q.55-1.3.65-2.65l.25-.2.3-.1.25.2v.35l-.3.75m25.45 22.65q-4.5-1.85-6.55-3.95 6 2.85 11.65 2.1-1.9 1.4-5.1 1.85m47.65 55.4.05-3.65.3 3.35-.35.3m-2.65 2 .4-.1.5.25.25.4.25.35 2.5 2.55.2-.05H21.25q.65-.05 1 .4l.3.7v.35l-.05.15-2.6-.85-.85-.6-.2-.05-1.2-1.3-.45-.85-.5-1.35" transform="translate(192.55 294)"/><path fill-rule="evenodd" fill="#f5eec5" d="m1.7-149.15-1.7 1.9q-2.65 1-4.7-.8l-1.75-1.15-.3-.15-.2-.15.2.15.25.25.35.3-1.5 2.9q-2.3 1.95-5.35 1l-.2-1.45q0-1.65 1.15-2.75 1.15-1.2 2.8-1.15 1.3-.05 2.3.75.3-1 1.15-1.8.9-.9 2.05-1.2l1.1-.1q1.85 0 3.1 1.3l.9 1.1.35 1.05m-28.4 18.75.15-1.5 2.5-.5 1.4 1.45v.05l-2.1-.5-2 1.2.05-.2m-4.8-.95-.15.7-6.2-.95-.2-.05-1.4-2v-.05l-1.25.75-.6-1.6 2.25-1.55 2.15 2.6-.45.35q3 1.7 5.6 1.7l.25.1m-6.45-1.35.6-.45-.6.45" transform="translate(192.55 294)"/><path fill-rule="evenodd" fill="#c8ac80" d="m-6.75-149.35.3.15-.05.1-.25-.25" transform="translate(192.55 294)"/><path fill-rule="evenodd" fill="#d1b863" d="m17.1-129.3.1-.35v.1l-.1.25M10-140.95l-.6-.4v-.05l.7-.2-.1.65m-4.9 1.15v-.05h.05l-.05.05m13.8-1.8v.1l-.1-.05.1-.05m.4 10.85h.05l1.25 1.35-.55-.25-.75-1.1m-46.2.35h.2l-.05.2-.1.65-.05-.85m-4.6-.95-.25-.1.35-.65-.1.75m48.15-9.1.1.1-.2.05.1-.15m0 2.15h.05l-.05.05v-.05m.95 13.6.7-.3-.4.7-.3-.4m-59.8-4.2h.05v.05l-.1.15-.05-.05.1-.15m-6.85-.55.05.05-.1.05.05-.1m-3.2 4.25-.1-.1-.05-.1h.1l.05.2m67.7 75.85.1.1h-.05l-.05-.1m2.4 3.25.1-.1.35.25-.2.2-.25-.35" transform="translate(192.55 294)"/><path fill-rule="evenodd" fill="#3f2f16" d="M-13.1-119.6q2.15-2 4.35-2.4l1.2-.1-.1 5.25q-2.25 4.6-6 5.3-1.15-.5-1.8-1.25-1.4-2-.05-4l.05-.15 1.6-2 .75-.65m-20.5.45q.7-1.55 1.7-2.3 1.9-1.65 3.5-1.3 1.3.2 3.7 1.65l.85.5.55.35-.1 3.95q-.65 4-4.6 4.1l-2.75-.5q-3.75-2.85-2.85-6.45" transform="translate(192.55 294)"/><path fill-rule="evenodd" fill="#50401d" d="M-7.55-122.1q1.45.1 2.7 1.3.95.9 1.85 2.95 1.5 7.05-5.25 7-3.4.1-5.4-.7 3.75-.7 6-5.3l.1-5.25M-28-112.2q3.95-.1 4.6-4.1l.1-3.95 1.25 1.15q1.25 1.3 1.85 3.15-.3 4.65-4.95 4.25l-2.85-.5" transform="translate(192.55 294)"/><path fill-rule="evenodd" fill="url(#a)" d="M-33.6-119.15q-.9 3.6 2.85 6.45l2.75.5 2.85.5q4.65.4 4.95-4.25l.3.8q.9 3.6-.75 5.7-1.65 2.05-5.25 1.15l-6.8-1.6q-3.2-.65-2.2-5.3.5-2.4 1.3-3.95" transform="translate(192.55 294)"/><path fill-rule="evenodd" fill="url(#b)" d="m-3-117.85 1.25 3.65q1.2 4.45-1.4 5l-.75.1-7.8.9q-4.1.75-5.35-1.4-1-1.65-.25-3.8l.5-1.25 1.3-2.15q-1.35 2 .05 4 .65.75 1.8 1.25 2 .8 5.4.7 6.75.05 5.25-7m-8.95 8.25q-5.55 0-5.35-3.8-.2 3.8 5.35 3.8" transform="translate(192.55 294)"/><path fill-rule="evenodd" fill="#d9c699" d="m15.65-142.65.25-.35 1.25-.25q.75.15 1.3.7l.45.95-.1.05-.85.1-.3.1-.15.1-.75-.15-.35-.55-.75-.7m.6 2.6.5.1.35.8-.4.85h-.05v-.3q-.05-.2-.25-.2l-.4.1-.25.35-.2.8q-.45.05-.7-.2-.4-.2-.3-.7v-.25l-.6-.6q-.9-.85-2.2-1.4-.15-.1-.15-.3l.2-.45.25-.25.2-.1.45.05.55.6q.9.8 2.15 1.35l.5-.2.35-.05" transform="translate(192.55 294)"/><path fill-rule="evenodd" fill="#9d7e37" d="m2-119-1.2-1 .95-1.2 7.8-2.75 3.35-.25.35.7-2.1.55-2.35-.7L7.55-122l.9 2.75 2.05.2v.1l.15.9q-.95.5-2.1.9-2.85-1.4-6.3-1.8L2-119m12.2-15.95-2.7-1.6.45-2q.45.2.9-.15l1.1-.6.6.6v.25q-.1.5.3.7.25.25.7.2l-1 2.2-.15-.3.2-.9-.2.9-.15.65-.05.05m3.75-2.35-.85.15-1.05.1.55-1.15.05-.05.05-.05.4-.85-.35-.8-.5-.1.3-.25.2-.05.2.1.05.25q.1.4.5.5l.8-.05.15-.05-.15 1.95-.15.15-.2.2M11.9-94.4l.05.05 1.3 1.25.05 1.35.65-.35.05.05h3.65l.95.75q3.6 3.2 3.85 8.95.2 5.75-3.45 6l-.65-.6-2.65 1.5.05 2.3-2.6-.2q-1.75-1.7-3.5-2.6L9-76.3l-.65-.25-.05-.05-.8-.25-.15-.05-5.45.3q-5.1 1.9-7.35-.9l1.1-.7 3.05-1.95.2-.1.85-.6 1.35-.2q1.8-.6 2.75-1.8 1-1.3.75-2.8-.1-.95-.6-1.65.35-1.55.25-3.3l-.2-2.65.35.25q1.55 1.4 3.25 1.9l.65.15 3.1-.1 1.2-.4-1.1.15h-.1l-2.75-.05-.25-.1-.45-.25v-.05q-.7-.45-1-1.1-.3-.95.2-1.8.65-.45 1.75-.55h.7l1.45 1.2.85-.4m-4.25-10v.25l.7-.05-.15.65-1.05-.15.1-.55.4-.15m2.2 11.6-.6.4-1.05-.95.45-.55.55.15-.55-.15-.45.55 1.05.95.6-.4m3.45 1.05-.7.3.7-.3m1.25 3.8q-1.35.35-2 1.75-.65 1.45-.4 3.3l.6 3.15q.4 1.3 2.1 1.05 1.7-.2 2.4-1.65.65-1.4.75-3.55.1-2.25-1-3.35t-2.45-.7" transform="translate(192.55 294)"/><path fill-rule="evenodd" fill="#856530" d="m1.75-112.7-.5-2.4 1.1.05-.05.3v.05l.85.35-.1.35-.75.8-.1.2-.15-.05.05-.25.2-1.4-.2 1.4-.05.25-.3.35" transform="translate(192.55 294)"/><path fill-rule="evenodd" fill="#95752d" d="M12.05-94.45v.05h-.1l.1-.05M1.8-112.65l-.05-.05.3-.35.15.05-.1.55-.3-.2m6.8 4.6-.8 1.8-.45.35-.1.1-.35-.8.1-.05.4-.15 1.2-1.25m-1.8-2.45.55.65-.05.1-1.2.5-.5.6-.2-.25.4-.2h.05l.95-1.4m-2.55-.75.1.1-.15.2-.15-.15.15-.1.05-.05m6.5 11.35.3.05.1.95-.7-.1-2.25.65v-.8h.7l1.2-.45.65-.3m-1.4 4.45.25.25h-.7l.1-.4.2.1.15.05m-1.05-7.2.05.15-.6.3-.1-.35.65-.1M7.95-91.7l.45.25.25.1 2.75.05v.25l-3.1.1-.65-.15.3-.6m1 16.25.05.15h-.35l-1 .55-.15-.6.05-.05.9.1.5-.15m.75 1.25.15.35-.3.05-.8.7-.2-.45.35-.05.8-.6m-2.35-2.55v-.15l.15.05-.15.1" transform="translate(192.55 294)"/><path fill-rule="evenodd" fill="#837032" d="m2.8-106.2-.4-3.1 1.25-.4.55-1.25.15-.2q.45-.4 1.05-.65l1.05-.25.8.45-.45 1.05v.05l-.95 1.4H5.8l-.4.2-.9.15q-.55-.15-.85-.65v-.3.3q.3.5.85.65l.9-.15-.15.8.35-.55.5-.6 1.2-.5 1.25-.1.35.25-.3 1.55-1.2 1.25-.4.15-.15.05q-.55.15-.95 0l-.75-.65-.05.6-2.3.45m-.7-4.9-.1-.6.1-.75.1-.55.1-.2.75-.8 1.15-.7 1.05.25-.2 1.2v.05l-.6 1.75-.2.2-.05.05-.15.1v.05q-.45.35-.9.4-.65 0-1.05-.45m3.85-3.05 2.25.95.55 1.7q-1.4-.7-2.75-.9l-.05-1.75m1.6 8.5.1 1.25-.4.15-.1.55 1.05.15.15-.65 2.45-.2-.65.65-.05.05.3 1-.2.1-1.55-.05-.3.15-.05-.15-.65.1q-.65 0-1.1-.3-.6-.5-.65-1.2.35-.85 1.55-1.6h.1m4.2-1.1.5-2.55.8.7q.3 1.7-.15 3.3l-1.15-1.45M3.8-112.5l.1.45-.85.5-.2-.45.2.45.85-.5-.1-.45m1.7 2.3v.45l-.85.2-.1-.4.1.4.85-.2v-.45m1.7 2.2-.05.45-1 .1v-.5.5l1-.1.05-.45m-1.95-.1-.2.6.1.25-.1-.25.2-.6m4.85 4.4-1.3.8-.5.25.5-.25 1.3-.8M-19-54.5l.1-.05.9.2.1.1.15.1.05.15 3.3-.45.5-.15.45.1.2.35-.1.4-.35.25h-.4l-2.3.3-.35-.05-.6.3-.25.1-.15.2-.75.45q-.5.05-.9-.2l-.5-.8q-.05-.5.25-.85l.65-.45m13.05-1.05.3-.2h.55l.4.35-.05.55q-.1.25-.35.4-2.55.6-4.45 1.8l-.05.15-.05.2q-.2.5-.75.7l-1.15.05-.4-.25.25-.2.15-.4-.2-.35-.35-.1h-.35v-.1l.1-.5.8-.8q.55-.25 1.1 0l.2.1.1.1.2.1q.9-.2 1.75-.55 1.2-.45 2.25-1.05m-1 2.6q-.05-.45.25-.7.25-.3.7-.2h.35l.1.05.65-.5 1.5-1.6.35-.15.35.15.2.4-.15.35q-1.4 1-2.2 2.2v.2q.05.45-.2.7-.3.3-.75.25l-.75-.35-.4-.8" transform="translate(192.55 294)"/><path fill-rule="evenodd" fill="#a68f46" d="m13.95-92.1.35-.15-.3.2-.05-.05m-8.9-21.1.8.5-.45.9q-.6.25-1.05.65l-.1-.1.2-.2.6-1.75m4.5 16.5-.05.05v-.05h.05M7-106.65l-.1.05h-.05l.15-.05" transform="translate(192.55 294)"/><path fill-rule="evenodd" fill="#283f44" d="M-42.2-93.3v.1l-.05-.05.05-.05" transform="translate(192.55 294)"/><path fill-rule="evenodd" fill="#c8a048" d="M7.55-105.7v.05h-.1l.1-.05m3.5 1.1.05-.2.05.1-.1.1m-2.2 8.7.5.45-.15-.05-.2-.1-.3-.15.15-.15" transform="translate(192.55 294)"/><path fill-rule="evenodd" fill="#887533" d="m11.2-102.35-.7.7-.3 1.65.55.1-.65.3-1.2.45h-.7v-.05q-.75-.1-1.2-.45-.55-.65-.45-1.45l1.2-1.1.6-.3.3-.15 1.55.05 1 .25m-1.9 1.7-.35.5-1.15-.35.2-.6.45-.05-.45.05-.2.6 1.15.35.35-.5" transform="translate(192.55 294)"/><path fill-rule="evenodd" fill="#917b37" d="M12.65-98.25q-1.15.8-2.85 1.2l-.25.35H9.5v.05l-.65.75-.15.15-.75-.7q-.45-.8-.1-1.6l.35-.3 2.25-.65.7.1 1.5.65m-2.8.65H9.3l-.35.55.55.35-.55-.35.35-.55h.55" transform="translate(192.55 294)"/><path fill-rule="evenodd" fill="#c7b36d" d="m14.3-92.25.05-.05q1.6-.8 3.3-1.4 1.95.95 3.35 2.55 3.3 3.6 2.75 8.55-.5 4.35-3.6 7.3L19-76.35q3.65-.25 3.45-6-.25-5.75-3.85-8.95l-.95-.75H14l.3-.2" transform="translate(192.55 294)"/><path fill-rule="evenodd" fill="#947a41" d="m-17.9-54.25-.1-.1-.9-.2-.1.05-.25-.45.1-.75.65-.5.8.1.2.15.05.05q1.7-.25 3.2-.9h.2l.2.1.2.25-.05.4-.3.2h-.05.05l.3-.2.05-.4-.2-.25-.2-.1.25-.4q.35-.45.9-.45.55-.05.95.3l.25.25.1.15 4.2-.3.45.15.2.4-.1.45q-.25.2-.45.25l-4.4.3-.05.1-.05.1.1.1.1.15q2.25-.05 4.3-.65h.05l.5-.15.55.15.25.35q-1.05.6-2.25 1.05l-2.05.35-.2-.1q-.55-.25-1.1 0l-.8.8-.1.5h-.2q-.65.1-1.15-.25l-.3-.3h.4l.35-.25.1-.4-.2-.35-.45-.1-.5.15.25-.85.25-.3-.15-.25q-1.8.25-3.2.9l-.1.25-.55.45m.55 1.3.6-.3.35.05.45.25.2.2.1.1 3.2-.2h.35l.35.1.2.35-.15.4-.25.2h-.1l-3.6.25-.15.2q-.3.35-.75.35-.45.05-.8-.25-.35-.3-.35-.75l.2-.85.15-.1m5.55-2.55-.2-.15q-.55-.4-1.1-.25l-.8.3.8-.3q.55-.15 1.1.25l.2.15" transform="translate(192.55 294)"/><path fill-rule="evenodd" fill="#947634" d="m9.65-75.95-.7.5-.5.15-.9-.1-.75-.3-.25-.7.75-.35h.05l.15-.1.8.25.05.05.65.25.65.35M9-75.3v.05l.55.2.3.7-.15.15-.8.6-.35.05-1.25-.2-.3-.55.6-.45h.05l1-.55H9m.85 1.45.55.05.4.55-.65.9-1.45.25-.4-.45.45-.55.8-.7.3-.05m-.2.55.55-.05-.55.05m-1-1.45.55.1-.55-.1" transform="translate(192.55 294)"/><path stroke-width=".25" stroke-opacity=".502" stroke-linejoin="round" stroke-linecap="round" stroke="#302505" fill="none" d="m219.9 228.45.7-1.65-2-2-1.65.35-.1.35-.3.55m-4.85-2.5.9.55q.55.2.7 2.05h.05l1.7.15m4 3.8.25.1.05-.3v-.05l.55-1.4m-4-.6-.35 1.6 1.75.3h.1l1.65.35m1.5 1.85-1.2-2.05m-2.05-.1v-.05m.1 0-.1.05-1.2.4m.2 3.7.8 1.6 2.6-.75.9-2.65-.05-.15m-2 22.45.05-.05.1-.85q-.2-.4-.6-.45H217.7q-.8-1.3-1.05-2.9l-.25-.2-.3.05-.1.1-.3.35-.05.35.25.45.8 2.2m1.85.95-.6.7-.85.25q-.4-.1-.55-.45-.15-.4.1-.85l.1-.2-.05-.4m-22.45-108.6-.35-1.05m-5.1-2.3q-1.15.3-2.05 1.2-.85.8-1.15 1.8l.2.15.25.25.35.3q.5.7.75 1.65m7.1-2 .05 1q0 1.85-1.3 3.1-1.3 1.35-3.15 1.35h-.3q-.95 6.45-.6 10.65.25 3.5 1.7 10.95 1.25 1.75 2.15 3.8l1.1-.75.65.05-1.2-1-.35-.35q-.65-.55-.3-1.2.3-.7 1.5-1.05l6.8-2.25 2.4-.2q1.3.1 1.95.7l.1.15.35.7 1.1-.55 2.4-1.7-1-1.3 1.35-2.25.1-.35q-.45-2.2-1.7-4.3l-.45.5-.8.2-.55-.35q-.15-.35 0-.75l.5-.6-2.7-1.6.45-2q-.45-.15-.8-.85l-.5-.8-.3 1.8.1.05.2.2q.3.3.2.75l-.6.75-.55.3q-.05 1.15.3 2.25l.3.1.35.4-.2.65q-.25.3-.7.45h-.7q-.3-.2-.35-.5-.05-.3.2-.6l.2-.15q.1-1.25-.3-2.55v-.1l-.25-.15q-.3-.35-.15-.75.1-.5.5-.8l.3-.15.8-2.7-.6-.4v-.05l-.45-.4-1.4.95-.75.7V154.15l-.4.6q-.25.15-.5.2l.3 1.5.3.05.3.4-.2.65q-.25.3-.7.45h-.7q-.3-.1-.3-.4-.05-.3.25-.6l.1-.2q.15-1.2-.2-2.4l.05-.2v-.05l.05-.2.35-.55.65-.2h.2l2.4-1.75.3-.1h.15l.1-.1q.9-.75 2.65-.85 1.75-.05 3.25.7l.45.25.25-.35 1.25-.25q.75.15 1.3.7l.45.95v.1l.35.5v.4q-.3 1.35-.1 2.65l.25.15.2.5-.3.65-.6.4-.65-.1-.2-.5.1-.45-.85.15q.55 3.75 2.2 6.4h.05l1.25 1.35 1.45.75.25 2.3-.35.3 1.35 1-.85 3.1-3.3-.75.15-.65q-3.55.65-5.5 2.6l.25 3.05-3.35.5-.05-.85q-.95.5-2.1.9l3.4 2.25.2.9.4.25m.2.1q2.6 1.85 4.4 4.4l-.05.6-.5 2.9 1.2 3.1.5 2.7q-2.4 3.6-6.25 5.5v.05H204.45l.05.05 1.3 1.25.05 1.35.65-.35.35-.15.05-.05q1.6-.8 3.3-1.4 1.95.95 3.35 2.55 3.3 3.6 2.75 8.55-.5 4.35-3.6 7.3l.05.05 1.35-1.4 2.6 3.45-2.25 2.3q.1 1.1.75 1 .85-.3 1.75 1.05m-46.8-81v-.05q-1.15-1.15-2.8-1.1-1.35 0-2.35.8l-.45.3-.65.95-.4 1.05m6.65-1.95q1.1 1.1 1.1 2.75t-1.15 2.8q-1.2 1.2-2.8 1.2l-1.4-.25q-.55 7.8-.25 12.95h.2l.15-1.5 2.5-.5 1.4 1.45v.05l-.15 1.25.55-.15 2.7-.4 2.2-.05q2.7.05 5.25.95 1.75.55 3.5 1.45l.95.55q.1-5.55-.2-13.25l-.1-2.1-1.35.25q-1.65-.05-2.8-1.2l-.9-1.3-.2-1.45q0-1.65 1.15-2.75 1.15-1.2 2.8-1.15 1.3-.05 2.3.75m-28.4 3.3q-.95-1.15-.95-2.7.05-1.85 1.4-3.15 1.3-1.35 3.15-1.35 1.8 0 3.1 1.35h.05q.85.85 1.05 1.85m-7.8 4 .35.4q1.3 1.35 3.15 1.35h.3l1.4-.3m17.05 25.15q2.15-2 4.35-2.4l1.2-.1q1.45.1 2.7 1.3.95.9 1.85 2.95l1.25 3.65q1.2 4.45-1.4 5l-.75.1-7.8.9q-4.1.75-5.35-1.4-1-1.65-.25-3.8l.5-1.25 1.3-2.15q-1.35 2 .05 4 .65.75 1.8 1.25 2 .8 5.4.7 6.75.05 5.25-7M158.2 214l.9.6 1.45.9m.15-.2 12 3.55 10.8-.35.3-.2q.9-.35 3.3-1.8l1.1-.7m3.25-2.05.85-.6q3.45-2.7 4.25-6.45.35-1.55.25-3.3l-.2-2.65-1.1-11.45-.15-1.5-.4-3.1-.3-1.8-.1-.6-.2-.95-.05-.05-.5-2.4-.4-1.4-.25-.85-.35-.95m-7-25.05q-.5.45-1.2.7m-18.8 14.35.2 1.25m-4.7-14.8-.3-2.6m3.75.35 1.15.75m-4.75 11.25.2-1.1.05-.55.1-1.9q.1-2.75-.2-6.2m-.4 11.2.15-.7-.25-.1q-2.6 0-5.6-1.7l-.6.45m6 3.75.3-1.7m-6.2-.95.3 1.7q3-.3 5.6.95l-1.3 5.55-.4.55-2 3q-4.45 8-5.5 14.5l-.5 3.75-.05.45m-.5 7.35v2.2q1.55 7.25 7.85 11.6m2.85-51.35.1-.75-.35.65m5 1.25.05-.2m-.15.85.1-.65m-.15-.2.05.85.1 1.2q1.85-.85 3.95-1.3m-.5 9.4-.55-.35-.85-.5q-2.4-1.45-3.7-1.65-1.6-.35-3.5 1.3-1 .75-1.7 2.3-.9 3.6 2.85 6.45l2.75.5 2.85.5q4.65.4 4.95-4.25l.3.8q.9 3.6-.75 5.7-1.65 2.05-5.25 1.15l-6.8-1.6q-3.2-.65-2.2-5.3.5-2.4 1.3-3.95m10.3-1.1 1.25 1.15q1.25 1.3 1.85 3.15m12.55-10.5v-.85m.35 1.8-.35-.95m-7.85 9.65.05-.15 1.6-2 .75-.65m-13.65-8.7v-.05m45.55-13.2-.85.1-.3.1-.15.1-.75-.15-.55-.15q-.95-.35-1.65-.8l-.45.05-.3.3-.1.4v.05l.2.2 2.75.9.1.1.2.1.05.25q.1.4.5.5l.8-.05.15-.05-.05-.75.15-.35.3-.2.3.1.1.1m-.35-.8-.1-.05m-2.1 3.25.4-.85-.35-.8-.5-.1-.35.05-.5.2q-1.25-.55-2.15-1.35l-.55-.6-.45-.05-.2.1-.25.25-.2.45q0 .2.15.3 1.3.55 2.2 1.4l.6.6v.25q-.1.5.3.7.25.25.7.2l.2-.8.25-.35.4-.1q.2 0 .25.2v.3m.05 0-.05.05-.05.05-.55 1.15 1.05-.1m-.45-1.1v-.05m1.8-1.3-.15 1.95-.15.15-.2.2m-2.3-5.35.75.7.35.55m-5.45-.6-.15-.2-.3-.2-.45.2-.3.35v.25l-.1.65m.65.75.65-1.7v-.1m2.65 2.7-1.1.6q-.45.35-.9.15m4.6-1.75-.3.25m-.75 6.1.1-.2v-.75l-.15-.15-.05-.05.65-1.95m-1.65 1.4.15.3 1-2.2m-1 2.2-.1.25-.2.1-.05.05m.2-.7.2-.9m-.35 1.55.15-.65m-4.7-.7v-.2l-.15-.2h-.35l-.3.15-.1.2m8.4 6.75v.1l.5.95m-.5-.95-.1.25m2.95-.35-.75-1.1m1.3 1.35-.55-.25.05 1.75m-3.55-12.4.2-.05m-.1-.1-.1.15m-7.6-1.5.25-.1.15-.3-.05-.35-.1-.1m-3.3 3.6.1-.9-.2-.15h-.3l-.35.25-.05.05m5.55 21.75-.15-.9v-.1l-2.05-.2-.9-2.75 1.25-1.65 2.35.7 2.1-.55m-1.1 9.85V180m-3.6-3.15q-2.85-1.4-6.3-1.8l-.25-.05m-.75 3.9 1.1.05 1.85.35 1.05.25.7.3 2.25.95.55 1.7.15 1.9-.3 1.55-.8 1.8-.25.45V188.35l.1 1.25v.25l.7-.05 2.45-.2h.15l.1-.2.05-.2.65-1.95.5-2.55.1-2.3-.2-2.05m-9.8-1.4-.05.3v.05l.85.35-.1.35 1.15-.7m-2 1.7.1-.2.75-.8m-.75-.7-.2 1.4-.05.25-.3.35m.35.25.1-.55m-.1.55-.3-.2m.2.95.1-.75m.75.45.2.45.85-.5-.1-.45m1.45-1.95-.2 1.2v.05l.8.5-.45.9 1.05-.25.8.45-.45 1.05v.05l.55.65-.05.1 1.25-.1.35.25m-3.85-3.6-.6 1.75-.2.2m.1.1q.45-.4 1.05-.65m.55-2.35.05 1.75q1.35.2 2.75.9m9.75-14.6.35.3 1.5 1.2 1.6-1.45m-3.65 1.05.55-.8m-2.1.05.85 1.05m.7-.3-.4.7-.3-.4m1.7 1.35.25-.9m-8.4 1.3-.85 1.35m3.5.85-.95.4m-15.85-23.35-1.4-.35m-36.3 11.1-.6-1.6 2.25-1.55 2.15 2.6-.45.35m-11.45 3.1 1.2-.9q1.15-.55 2-1.25l.2-.75q.6-1.25 1.75-1.55 1.2-.3 2 .8l.75.9.35.25-.15-.4m-4.9.75.55-.5.7-.35m.65.5.15.3.4.85q.4.7.95 1 .85.45 0 1.5m.05 0 .75-.85 1.25-.8q1.25-.7.7-1.2l-.1-.1-.2-.1-.8-.6m-5.5 5.3-.05-.85.2-.35.1-.1m-3-1.5-.25.6m.05.05v-.05l.45.05.2.3v.4l-.3.25-.25.05.4.45 1.15-.85.45-.1.35.3.1.5-.25.3-.8.35 1.45.2q.05 1.3-.2 2.65l-.1.05-.25.2q-.4.3-.4.7-.05.45.3.8l.45.3.1-.2.25-.25h.3l.25.2.05.2.35-.15q.35-.35.35-.8 0-.45-.3-.75l-.2-.2.05-2.85.1-.7-.1-.3-.05-.1-.4-.15-.3.05m2.95.2-.9-.65v-.05l-.05-.25.15-.3.25-.15h.1l.2.1.8.9.1-.15m-.1.15.05.05.1-.15v-.05m4.6-1 .3 1.3-2 1.15-1.9-.85-.25-1.45m-12.85 2.05.15-.4q.2-.45.65-.55l.8.05.25.15.1.1q1.7-.3 3.2-1l.05-.1m-.05.1.1-.05m-3.4 4-.1-.85q.1-.55.55-.75l.9-.1.3.1.1.1q1.15-.45 2.15-1.05m-.4-.45q-1.8.35-3.2 1.05l-.05.25q-.25.4-.65.5-.45.15-.85 0l-.1-.1v.05l-.4 1.9.15.15.05.65q-.05.3-.4.5l-.65.1-.5-.4-.05-.65.35-.5.3-.15q.55-1.3.65-2.65l.25-.2.3-.1.25.2v.35l-.3.75m1.45 1.3.1-.3.3-.2.35.1.15.3v.85l.7-.2q.4-.2.55-.7l.05-.25 2.6-1.65m-4.75 2.25-.1-.1-.05-.1m.1 0 .05.2q.3 1.45.25 3l-.1.05-.15.15-.25.75q0 .4.35.7l.7.2q.4-.05.7-.35.25-.35.2-.75l-.3-.65-.2-.1q-.35-1.15-.35-2.45m6.1 2.05-.05.1q-.8 1.3-1.05 2.55l.1.15.05.6-.5.5h-.7l-.55-.45q-.2-.3-.05-.65l.5-.45.35-.05q.7-1.15.95-2.25m5.95-4.35.05-.25-.2-.55q-.25-.25-.6-.2l-.15.05-1.05-.85m.9 2.55.25-.85.2-.2h.35l.2.25.05.05v.2q-.75 1.2-.95 2.4l.1.2.05.6-.45.4q-.4.15-.75 0l-.5-.45-.05-.65.45-.4.3-.05.75-1.5q-.2-.05-.4-.2l-.2-.6.05-.3-.95-1.1q-.8.65-2 .95l-.2.05m2.85 34.05-.05.05m54.5-16.05.8.7q.3 1.7-.15 3.3-.45 1.55-1.7 2.95l-.7.7-.3 1.65.55.1.3.05 2.4.5 1.35-2 1.1-2.25.7-2.15m-4.85-1 1.15 1.45m-1.8.5.05.1-.1.1m-.25.2-.65.65-.05.05.3 1-.2.1 1 .25m3.6 1v.1q-.6 1.85-2.15 3-1.15.8-2.85 1.2l-.25.35-.05.05-.65.75.5.45.25.25 1.45 1.2.85-.4m-3.7-3.95L203 195l.7.1-.1-.95m-.3-.05-.65.3-1.2.45h-.7v.8l-.35.3q-.35.8.1 1.6l.75.7m3.25 1.35.1-.05m-.9-4.45 1.5.65m-6.5-9.7v.5l1-.1.05-.45m-2.65-1.95.1.4.85-.2v-.45m-1.45-.9v.05q-.45.35-.9.4-.65 0-1.05-.45m2.1.15-.15-.15.15-.1.05-.05m-.05.3.15-.2m1.05 2.25-.9.15q-.55-.15-.85-.65v-.3l-1.25.4m1.25-.4.55-1.25m1.2 2.05-.15.8.35-.55-.2-.25.4-.2h.05l.95-1.4m-1.65 3.25-.1-.25.2-.6m.35-.55.5-.6 1.2-.5m-.45 3.15q-.55.15-.95 0l-.75-.65-.05.6-2.3.45m4.2-.45-.1.05.35.8.1-.1.45-.35m-.9-.35h-.05m.15-.05.4-.15 1.2-1.25m-1.25 2.15.1.25.1-.05m.1 1.3-.4.15-.1.55 1.05.15.15-.65m-.7 1.65q-.65 0-1.1-.3-.6-.5-.65-1.2.35-.85 1.55-1.6m1 4.5-.45.05-.2.6 1.15.35.35-.5m-.95-1.85.3-.15 1.55.05m-2.45.4-.1-.35.65-.1.5-.25 1.3-.8m-1.9 4.55v-.05q-.75-.1-1.2-.45-.55-.65-.45-1.45l1.2-1.1.6-.3m1.15 5.8h.05m-.05 0-.55-.35.35-.55h.55m-.85 2-.3-.15m.65.3-.15-.05-.2-.1-.1.4h.7m-1.65 3.5v-.05q-.7-.45-1-1.1-.3-.95.2-1.8.65-.45 1.75-.55m.3 1.45-.55-.15-.45.55 1.05.95.6-.4m1.55 1.5-2.75-.05-.25-.1-.45-.25-.3.6.65.15 3.1-.1v-.25h.1l1.1-.15.7-.3m-9.25-1.5.35.25q1.55 1.4 3.25 1.9m-3.65 3.8q.5.7.6 1.65.25 1.5-.75 2.8-.95 1.2-2.75 1.8l-1.35.2m14.55-11.4-.3.2m-2.6 1 1.2-.4m1.95 3.5q1.35-.4 2.45.7t1 3.35q-.1 2.15-.75 3.55-.7 1.45-2.4 1.65-1.7.25-2.1-1.05l-.6-3.15q-.25-1.85.4-3.3.65-1.4 2-1.75m-33.55 33.45.1-.05.9.2.1.1.55-.45.1-.25q1.4-.65 3.2-.9h.05l.3-.2.05-.4-.2-.25-.2-.1h-.2q-1.5.65-3.2.9l-.05-.05-.2-.15-.8-.1-.65.5-.1.75.25.45-.65.45q-.3.35-.25.85l.5.8q.4.25.9.2l.75-.45.15-.2.25-.1.6-.3.35.05 2.3-.3h.4l.35-.25.1-.4-.2-.35-.45-.1-.5.15-3.3.45-.05-.15-.15-.1m3.85-2.55.25-.4q.35-.45.9-.45.55-.05.95.3l.25.25.1.15 4.2-.3.45.15.2.4-.1.45q-.25.2-.45.25l-4.4.3-.05.1-.05.1.1.1.1.15q2.25-.05 4.3-.65h.05l.5-.15.55.15.25.35.3-.2h.55l.4.35-.05.55q-.1.25-.35.4-2.55.6-4.45 1.8l-.05.15-.05.2q-.2.5-.75.7l-1.15.05-.4-.25h-.1l-3.6.25-.15.2q-.3.35-.75.35-.45.05-.8-.25-.35-.3-.35-.75l.2-.85.15-.1m4.9 0 .1-.5.8-.8q.55-.25 1.1 0l.2.1 2.05-.35q1.2-.45 2.25-1.05m-4.3 1.4.1.1.2.1q.9-.2 1.75-.55m1.25 1.55q-.05-.45.25-.7.25-.3.7-.2h.35l.1.05.65-.5 1.5-1.6.35-.15.35.15.2.4-.15.35q-1.4 1-2.2 2.2v.2q.05.45-.2.7-.3.3-.75.25l-.75-.35-.4-.8m-9.45-.25.45.25.2.2.1.1 3.2-.2v-.1h-.2q-.65.1-1.15-.25l-.3-.3m.2-2.1.8-.3q.55-.15 1.1.25l.2.15m-2.6 1.05.25-.85.25-.3-.15-.25m1.6 3h.35l.35.1.2.35-.15.4-.25.2m32.15-23.45.4.4m-1.6-1.5-.65-.6-2.65 1.5.05 2.3v.25l2.5 1.5.1-1.85m-.1 1.85.9.95m2.75-.45-.5-1.1m-2.4-4.35 1.15 1.05m-4.4 2.15-2.6-.2q-1.75-1.7-3.5-2.6l-.7.5.05.15v.05l.55.2.3.7-.15.15.15.35.55.05.4.55-.65.9-1.45.25-.4-.45.45-.55-.2-.45-1.25-.2-.3-.55.6-.45h.05l-.15-.6.05-.05-.75-.3-.25-.7.75-.35h.05v-.15l-5.45.3q-5.1 1.9-7.35-.9m15.65 4.15-.55.05m11.1 5.45-1.55-.1-.75 2.5-.15.55 1.35 2.4 1.2-.05h1.7l.45-2m-14.05-10.9-.5.15-.9-.1m.1.65 1-.55h.35m.65-.65-.65-.35-.65-.25-.05-.05-.8-.25-.15.1m.15-.1-.15-.05m2.35 2.7-.8.6-.35.05m.65-1.1-.55-.1m.1 1.65.8-.7.3-.05m7.85 17.6-.5 1.15m2.2 2.8-1.45.95m1.45-.95q.2-1.1.65-2.1 1.2-3.35 3.7-5.7l-.85-1.85m-6.15 13.55 1.2.9 1.4-1.15.05.8-.35.95q1.15 1.35 2.8 2.4l.15-.05.35-.05q.55-.05.9.25l.3.35m-4.15-8.3.3 3.35-.35.3m-3.75-3.5v.05l-.05.5-.1 2.25.1.1 1.2.85m-2.45-4.2.7.3.6.15.05-.6m-2.65 3.85-.5-.9q-.25-1 .25-1.8t1.35-.95l.2-.05-.45-.15 1-4.4 2.85.9q2-2.2 3.15-6.3m-5.35 13.3-.75.7q-.4.5-1.1.2-.6.95-.05 1.95l.1.2m.45.45-.2-1.2.2-.35.35-.2.4.05.2.3-.15 1.85.6.15.55.05-.8-1.2q-.15-.2 0-.5l.35-.35.55-.15.4.35.1.3.4-.1.5.25.25.4m.1-.1-.1-.4.1-.3.05-.15.5-.2.45.15.1.2m-3.5-2.35h-.05m-1.85.9-.1-.05q-.35-.2-.55-.5m2.4-3-.4-.4m.4.4.15.3m-1.4 5.85-.15 2.3-.15.15q-.35.35-.3.8 0 .4.35.7l.8.15q.5-.05.85-.4l.3-.85-.4-.65-.25-.15-.05-.05-.15-1.05-.05-.5m1.15.2.3.6m3.55 3-.05-1-.85-.6-.2-.05h-.35l-.85-1.3-.45-.85-.5-1.35m1.6.7-.2.2 2.5 2.55.2-.05h.1l.05-.25q-1.05-1.4-2.65-2.45l-.35-.25m.15.45-.25-.35m-35.15-67.3q-.2 3.8 5.35 3.8m34.45 67.95.05-.15v-.35l-.3-.7q-.35-.45-1-.4h-.35m1.65 1.1.6-.45.2-.15m-1.4 1.95-.35-.85-.35-.15-.45.15-.25.35-.1.1v.5l.35.3 1.05 1.75.4 1.05-.15.25q-.15.55.1.95.2.4.7.4.5 0 .95-.35.5-.45.7-1l.1-.25-.15-.7q-.2-.35-.7-.35l-.45.05-.05.05q-.85-1.05-1.35-2.25l.55-.85m-2.9.7.3-.45.05-.1m-3.05-2.15.4 1.3-.1.1-.1.2q-.2.5.05 1 .25.45.8.65v-.3l.35-.4.4-.2.35.2.15.5.4-.35.15.15q.4.4 1.05.4m-2.85 0v.1q1 1.2 1.45 2.55l.1.4-.1.25q-.2.55 0 .9t.65.4l.95-.4.55-.6.1-.25q.2-.5 0-.9-.2-.35-.65-.35l-.4.05-.05.05q-.9-1.1-1.35-2.4m-1.55-3.85 1.2 1.3"/><path stroke-width=".25" stroke-linejoin="round" stroke-linecap="round" stroke="#7e7e01" fill="none" d="m192.6 143.55 2-1.8m-3.3 1.2.5-1.8m-2 1.45v-2.55m-50.95 26.15-.9-1.25m1.45.85.65-1.55m13.6-5.35.6-1m.05 1.75.75-1.2m-7.2 2.4-1.35-.8m2.05.25-.5-1.3m1.95 1.35.25-1.7m.85 40.15-2 .5m2.25-2.7-2.05.1m2.7-1.5-2.65-1m12.35 13.95-.55 1.3m2.2-.3v1m-2.4-2.9-1.6 1.1"/><path stroke-width=".25" stroke-linejoin="round" stroke-linecap="round" stroke="#585701" fill="none" d="m212.9 202.75 1.6-.55m-2.4 0 1.05-1.65m-23 12.6 1.85 1.75m-2.9-.75 1.2 1.5m-3.5 15.1 1.2-.65m-1.9-.25.8-1.6m-1.7 1.5-.8-1.9m3.15-12.9.65 1.8"/></g></defs><path fill="none" d="M-1-1h180v246H-1z"/><g><g transform="scale(2)"><use x="58.05" y="155.5" xlink:href="#d" width="381" transform="translate(-192.55 -294)" height="381"/><use x="-74.148" y="-83.444" xlink:href="#e" width="102.95" transform="matrix(1.8072 0 0 1.6538 96 152.3)" height="45"/></g></g></svg>