<svg width="197" height="196" xmlns="http://www.w3.org/2000/svg" xmlns:xlink="http://www.w3.org/1999/xlink"><defs><linearGradient y2="-.115" y1=".702" x2=".327" x1=".71" spreadMethod="pad" id="d"><stop stop-opacity=".8" stop-color="#acdef0" offset="0"/><stop stop-opacity=".502" stop-color="#ebf9fa" offset="1"/></linearGradient><linearGradient y2=".434" y1=".434" x2="-.035" x1="1.143" spreadMethod="pad" id="e"><stop stop-opacity=".8" stop-color="#acdef0" offset="0"/><stop stop-opacity=".502" stop-color="#ebf9fa" offset="1"/></linearGradient><linearGradient y2=".29" y1=".975" x2=".231" x1=".905" spreadMethod="pad" id="f"><stop stop-opacity=".8" stop-color="#acdef0" offset="0"/><stop stop-opacity=".502" stop-color="#ebf9fa" offset="1"/></linearGradient><linearGradient y2=".031" y1="1.089" x2=".616" x1="1.003" spreadMethod="pad" id="g"><stop stop-opacity=".8" stop-color="#acdef0" offset="0"/><stop stop-opacity=".502" stop-color="#ebf9fa" offset="1"/></linearGradient><linearGradient y2=".499" y1=".499" x2="-.005" x1=".998" spreadMethod="pad" id="h"><stop stop-opacity=".8" stop-color="#acdef0" offset="0"/><stop stop-opacity=".502" stop-color="#ebf9fa" offset="1"/></linearGradient><use xlink:href="#a" width="6.95" height="11.6" id="j"/><use xlink:href="#b" width="38.2" height="41.85" id="k"/><use xlink:href="#c" width="102.95" height="45" id="l"/><g id="i"><path stroke-opacity="0" stroke-linejoin="round" stroke-linecap="round" stroke="#f0f" fill="none" d="M187.95-293.5v380h-380v-380h380M92.95.6H-97" transform="translate(192.55 294)"/><path stroke-opacity="0" stroke-linejoin="round" stroke-linecap="round" stroke="#f0f" fill="none" d="m187.95-293.5-190 190 190 190m-380-380 190 190L-192 86.5" transform="translate(192.55 294)"/><path fill-rule="evenodd" fill-opacity=".663" fill="#56b0c7" d="M42.35-66.6 41.3-65q-3.75 8.1-7.9 11.8 1.8-1.7 3.15-4l4.85-8.45.95-.95M23-47.95l-.5.2h-.1l.6-.2m-.95.2-3.05-.1-4.75-.3Q7-48.6-2.35-51.2h.1q10.3 1.85 21.8 3.15l-.55.2h3.05H19l.65-.2h.4l1.3-.1q.7-.05.7.3v.1m-.1-.1-1.9-.2 1.9.2" transform="translate(192.55 294)"/><path fill-rule="evenodd" fill-opacity=".831" fill="#dffcff" d="M26.25-49.85q5.5-5.8.55-16-1.35-3.8-1.7-7.8-.3-3.9.35-8 1.65-6.2 2.1-12.9.9-9.5-4.35-9.7-1.75-.4-4.3-2.2-2.6-1.8-7.8-2.75-5.15-.95-11.85 2.3-10.75 3.4-25.9-4.1-15.25-7.55-17.85-2.8l-.25-1.8q-1.75-11.15 5.3-13.7-3.9 3.05 8.3 10.35 12.2 7.35 17.15 8.9 4.8 1.5 8.7 1.2 3.7-.45 6.1-1.4l5.7-2.1q3.8-1.05 6.7-.65 3.5.15 5.9 2.25 2.25 2 5.25 2.2H25l8-2.55q6-2 11.65-15.45 1.6-7.9-14.4-9.25 14.4-.95 17.05 2.4 2.3 3.8.3 18.2.45-11.25-2.1-8l-12.3 16.3-2.5 12.85Q27.55-81.6 28.5-73.5q.6 5 2.8 8.2 6.65 10.05-5.05 15.45" transform="translate(192.55 294)"/><path fill-rule="evenodd" fill="url(#d)" d="M30.25-135.8q16 1.35 14.4 9.25Q39-113.1 33-111.1l-8 2.55h-.65q-3-.2-5.25-2.2-2.4-2.1-5.9-2.25-2.9-.4-6.7.65l-5.7 2.1q-2.4.95-6.1 1.4-3.9.3-8.7-1.2-4.95-1.55-17.15-8.9-12.2-7.3-8.3-10.35 9.85-4 21.1-13.75 5.8-3.6 15.6 2.1 9.75 5.7 33 5.15m-53.75.75q-.95 2-13.15 5.75 8-1.25 16.1-3.75 8.1-2.35 24.95-1.7l-2.35-.3-16.5-7.7q-4.6-1.65-9.05 7.7" transform="translate(192.55 294)"/><path fill-rule="evenodd" fill="url(#e)" d="M-23.5-135.05q4.45-9.35 9.05-7.7l16.5 7.7 2.35.3q-16.85-.65-24.95 1.7-8.1 2.5-16.1 3.75 12.2-3.75 13.15-5.75" transform="translate(192.55 294)"/><path fill-rule="evenodd" fill="url(#f)" d="M-44.5-113.8q2.6-4.75 17.85 2.8 15.15 7.5 25.9 4.1 6.7-3.25 11.85-2.3 5.2.95 7.8 2.75 2.55 1.8 4.3 2.2 5.25.2 4.35 9.7-.45 6.7-2.1 12.9-.65 4.1-.35 8 .35 4 1.7 7.8 4.95 10.2-.55 16-2 1.05-4 2l.15.1h.2-.35l-.2-.1h.2-.2l.2.1h-.2v-.1q0-.35-.7-.3l-1.6.1 1.6-.1-1.3.1h-.5q-11.5-1.3-21.8-3.15h-.1l-10.85.8-9.05-5.35h-.1q-6.5-.85-11.45-2.3l-2.65-.75-.8-.3q-1.2-.35-2.35-.85l-.3-.2q-1.6-.75-2.1-1.7l-1.05-.75q-6.2-6.5-3.7-13.05 1.7-4.7 2.85-16.9 1.45-14.35-.6-21.25m17.95 54.5 4.2 3.55-4.2-3.55m40.3-6.55q10.3-1.45 9.15-4.2-4.65-4.3-9.55-.2-4.85 4 .4 4.4M-38-77.55q-.95 4.25 5.05 4.35l2.95-.2 1.65-1.2q0-.6-.5-1.25-2-2.85-3.45-3.25-1.5-.45-3.1-1.6-1.75-1.15-2.6 3.15m43.75 25.4-8 .95 8-.95" transform="translate(192.55 294)"/><path fill-rule="evenodd" fill="url(#g)" d="M26.25-49.85q11.7-5.4 5.05-15.45-2.2-3.2-2.8-8.2-.95-8.1 2.2-20.55l2.5-12.85 12.3-16.3q2.55-3.25 2.1 8-.8 3.6-1.05 14.75-.4 11.15 2.1 18.3 2.45 7.15-2.5 11.9l-3.8 3.65-.95.95-4.85 8.45q-1.35 2.3-3.15 4-4 3.85-10.4 5.25l-.6.2-.15-.1q2-.95 4-2m-3.9 2.1h-.3.3M42.9-85.4q1.25 4.8-.35 7.75-.6 1.9-2.1 4.65-1.9 3.6-5.25 8.65L45.65-75.4q1.15-1.6.7-4.15L42.9-85.4M19-47.85l.55-.2h.1l-.65.2" transform="translate(192.55 294)"/><path fill-rule="evenodd" fill="url(#h)" d="m42.9-85.4 3.45 5.85q.45 2.55-.7 4.15L35.2-64.35q3.35-5.05 5.25-8.65 1.5-2.75 2.1-4.65 1.6-2.95.35-7.75" transform="translate(192.55 294)"/><path fill-rule="evenodd" fill-opacity=".761" fill="#fff" d="M-38-77.55q.85-4.3 2.6-3.15 1.6 1.15 3.1 1.6 1.45.4 3.45 3.25.5.65.5 1.25L-30-73.4l-2.95.2q-6-.1-5.05-4.35m51.75 11.7q-5.25-.4-.4-4.4 4.9-4.1 9.55.2 1.15 2.75-9.15 4.2" transform="translate(192.55 294)"/><path stroke-width=".05" stroke-linejoin="round" stroke-linecap="round" stroke="#71c8dd" fill="none" d="M240.15 178.8q2-14.4-.3-18.2-2.65-3.35-17.05-2.4-23.25.55-33-5.15-9.8-5.7-15.6-2.1-11.25 9.75-21.1 13.75-7.05 2.55-5.3 13.7l.25 1.8q2.05 6.9.6 21.25-1.15 12.2-2.85 16.9-2.5 6.55 3.7 13.05l1.05.75q.5.95 2.1 1.7l.3.2q1.15.5 2.35.85l.8.3 2.65.75q4.95 1.45 11.45 2.3m69.95-59.45q-.8 3.6-1.05 14.75-.4 11.15 2.1 18.3 2.45 7.15-2.5 11.9l-3.8 3.65-.95.95-4.85 8.45q-1.35 2.3-3.15 4-4 3.85-10.4 5.25l-.6.2h.2-.55v-.1h-3.05m-41.25-7.9h-.1m44.75 8-.15-.1h-.2l.2.1m-2.7-.3q-11.5-1.3-21.8-3.15m23.6 3.05-1.6.1h.3l1.9.2m-.6-.3q.7-.05.7.3m-2.3-.2h-.1l-.65.2m.65-.2h-.1"/><path stroke-width=".05" stroke-linejoin="round" stroke-linecap="round" stroke="#4ba9bc" fill="none" d="m170.2 238.25-4.2-3.55m24.2 8.1-10.85.8-9.05-5.35m20 4.55h-.1m.1 0 8-.95"/><path fill-rule="evenodd" fill="#86cfd9" d="m-6.5-129.8-.65-1.1q-2.25-3.3-6.65-3.95-4.35-.4-8.2 2.1-3.7 2.55-4.8 6.65-1.05 4.25 1.2 7.55 2.4 3.35 6.8 3.85 4.35.55 8.2-2 3.7-2.5 4.65-6.75.65-2.25.25-4.1l-.4-1.2q.3.5 0 1.2-.1 1.2-1.2 1.85-1.05.65-2.35.55-1.2-.15-1.85-1.2-.7-.95-.4-2.15.25-1.2 1.15-1.85 1.1-.8 2.3-.55 1.3.15 1.95 1.1" transform="translate(192.55 294)"/><path fill-rule="evenodd" fill="#fff" d="m-6.1-128.75-.4-1.05q-.65-.95-1.95-1.1-1.2-.25-2.3.55-.9.65-1.15 1.85-.3 1.2.4 2.15.65 1.05 1.85 1.2 1.3.1 2.35-.55 1.1-.65 1.2-1.85.3-.7 0-1.2" transform="translate(192.55 294)"/><path fill-rule="evenodd" fill="#86cfd9" d="M3.9-131.35v.4l-.35.55-.75.15q-.35-.05-.55-.35-.2-.3-.15-.65l.4-.55.65-.2.6.35-.2-.35q-.65-1-2-1.2-1.35-.1-2.5.65t-1.5 2.05q-.3 1.3.4 2.3.7 1 2.05 1.15 1.35.2 2.5-.6 1.15-.75 1.45-2.05l.05-1.25-.1-.4" transform="translate(192.55 294)"/><path fill-rule="evenodd" fill="#fff" d="m3.75-131.65-.6-.35-.65.2-.4.55q-.05.35.15.65.2.3.55.35l.75-.15.35-.55v-.4l-.15-.3M-15.4-68.9q-.4-.6-1.2-.7l-1.35.35-.8 1.15q-.15.7.25 1.3.45.6 1.15.7.75.15 1.4-.3.7-.4.75-1.1.15-.45 0-.75l-.2-.65" transform="translate(192.55 294)"/><path fill-rule="evenodd" fill="#38a8ad" d="M-15.2-68.25q.15.3 0 .75-.05.7-.75 1.1-.65.45-1.4.3-.7-.1-1.15-.7-.4-.6-.25-1.3l.8-1.15 1.35-.35q.8.1 1.2.7l-.5-.7q-1.4-2-4-2.3-2.65-.3-4.85 1.25-2.35 1.55-2.95 4-.65 2.55.7 4.55 1.45 2 4.1 2.35 2.6.35 4.95-1.2 2.3-1.55 2.85-4.15.35-1.3.15-2.45l-.25-.7" transform="translate(192.55 294)"/><path fill-rule="evenodd" fill="#86cfd9" d="m3.7-75.6-.2-.3q-.75-1.05-2.1-1.3-1.4-.1-2.65.7-1.15.8-1.5 2.1-.35 1.35.4 2.4.75 1.05 2.15 1.25 1.35.15 2.6-.65 1.15-.8 1.45-2.15l.1-1.3-.15-.4v.4q0 .35-.35.6l-.75.15-.6-.4q-.2-.25-.15-.65l.4-.6.7-.15q.45.05.65.3" transform="translate(192.55 294)"/><path fill-rule="evenodd" fill="#fff" d="m3.8-75.25-.1-.35q-.2-.25-.65-.3l-.7.15-.4.6q-.05.4.15.65l.6.4.75-.15q.35-.25.35-.6v-.4M-31.8-109l-.55-.35-.7.15-.4.6.1.65q.25.35.6.35l.7-.15q.35-.2.4-.55v-.35l-.15-.35" transform="translate(192.55 294)"/><path fill-rule="evenodd" fill="#38a8ad" d="M-31.65-108.65v.35q-.05.35-.4.55l-.7.15q-.35 0-.6-.35l-.1-.65.4-.6.7-.15.55.35-.2-.35q-.7-1-2.05-1.15-1.3-.15-2.45.6-1.15.8-1.45 2.05-.3 1.3.35 2.3.75 1 2.05 1.15 1.35.2 2.5-.6 1.15-.75 1.45-2.1l.05-1.2-.1-.35" transform="translate(192.55 294)"/><path fill-rule="evenodd" fill="#86cfd9" d="M30.75-129.55v.6q-.1.65-.65 1t-1.25.25q-.6-.05-.95-.6-.35-.5-.25-1.1.15-.65.65-1 .55-.4 1.2-.25.7.05 1 .55l-.3-.55q-1.2-1.75-3.5-2.1-2.3-.2-4.3 1.1-1.95 1.35-2.5 3.5-.6 2.2.6 3.95 1.25 1.75 3.55 2 2.3.3 4.3-1.05 1.95-1.3 2.45-3.5.35-1.2.15-2.2l-.2-.6" transform="translate(192.55 294)"/><path fill-rule="evenodd" fill="#fff" d="M30.5-130.1q-.3-.5-1-.55-.65-.15-1.2.25-.5.35-.65 1-.1.6.25 1.1.35.55.95.6.7.1 1.25-.25t.65-1v-.6l-.25-.55m10.75 12.2q-.35-.6-1.1-.65l-1.3.3q-.6.45-.75 1.1-.15.65.2 1.25.45.6 1.1.65.75.15 1.35-.25.65-.4.75-1.05v-.75l-.25-.6" transform="translate(192.55 294)"/><path fill-rule="evenodd" fill="#38a8ad" d="M41.5-117.3v.75q-.1.65-.75 1.05-.6.4-1.35.25-.65-.05-1.1-.65-.35-.6-.2-1.25.15-.65.75-1.1l1.3-.3q.75.05 1.1.65l-.45-.65q-1.3-1.9-3.8-2.2-2.5-.3-4.65 1.15-2.25 1.5-2.8 3.85-.6 2.45.65 4.35 1.4 1.95 3.9 2.2 2.5.4 4.75-1.1 2.2-1.45 2.7-3.95.4-1.25.15-2.4l-.2-.65" transform="translate(192.55 294)"/><path fill-rule="evenodd" fill="#fff" d="m41.55-105.55-.55-.35-.6.15-.35.5.1.6.55.3.6-.15.35-.45v-.35l-.1-.25" transform="translate(192.55 294)"/><path fill-rule="evenodd" fill="#38a8ad" d="M41.65-105.3v.35l-.35.45-.6.15-.55-.3-.1-.6.35-.5.6-.15.55.35-.2-.35q-.65-.85-1.8-1-1.15-.15-2.15.55-1 .7-1.3 1.75-.25 1.15.35 2.05.6.85 1.8 1 1.15.15 2.15-.5 1.05-.7 1.25-1.85l.1-1.1-.1-.3" transform="translate(192.55 294)"/><path fill-rule="evenodd" fill="#86cfd9" d="m15.65-105.1-.4-.65q-1.3-1.9-3.85-2.3-2.5-.2-4.75 1.25-2.15 1.45-2.75 3.85-.65 2.45.65 4.35 1.4 1.95 3.95 2.25 2.55.3 4.75-1.15 2.15-1.45 2.7-3.95.4-1.3.15-2.35l-.25-.7q.2.3 0 .7-.05.7-.65 1.05-.65.4-1.4.3-.7-.05-1.1-.65-.35-.55-.2-1.25.15-.7.7-1.1.6-.45 1.3-.3.75.1 1.15.65" transform="translate(192.55 294)"/><path fill-rule="evenodd" fill="#fff" d="m15.85-104.5-.2-.6q-.4-.55-1.15-.65-.7-.15-1.3.3-.55.4-.7 1.1-.15.7.2 1.25.4.6 1.1.65.75.1 1.4-.3.6-.35.65-1.05.2-.4 0-.7m-23 31.25-.6-.35-.7.15-.4.6.1.7q.25.3.6.35.4.1.75-.15.35-.2.4-.55v-.4l-.15-.35" transform="translate(192.55 294)"/><path fill-rule="evenodd" fill="#38a8ad" d="M-7-72.9v.4q-.05.35-.4.55-.35.25-.75.15-.35-.05-.6-.35l-.1-.7.4-.6.7-.15.6.35-.25-.35q-.7-1.05-2.05-1.2-1.4-.15-2.55.65-1.2.8-1.55 2.1-.3 1.3.4 2.35.75 1.05 2.1 1.2 1.4.2 2.6-.6 1.2-.8 1.45-2.15.25-.7.1-1.3l-.1-.35" transform="translate(192.55 294)"/><path fill-rule="evenodd" fill="#fff" d="M39.4-84.05q-.4-.6-1.15-.7l-1.4.35q-.6.45-.8 1.15-.15.7.25 1.3.45.65 1.15.7.8.15 1.4-.3.7-.4.8-1.1v-.75l-.25-.65" transform="translate(192.55 294)"/><path fill-rule="evenodd" fill="#38a8ad" d="M39.65-83.4v.75q-.1.7-.8 1.1-.6.45-1.4.3-.7-.05-1.15-.7-.4-.6-.25-1.3.2-.7.8-1.15l1.4-.35q.75.1 1.15.7l-.45-.7q-1.4-2-4.05-2.3-2.65-.3-4.9 1.25-2.3 1.55-2.95 4.05-.6 2.55.7 4.55 1.5 2.05 4.15 2.35 2.6.4 4.95-1.2 2.35-1.55 2.85-4.15.4-1.35.2-2.5l-.25-.7" transform="translate(192.55 294)"/><path fill-rule="evenodd" fill="#fff" d="M16.55-58.8q-.25-.45-.85-.5l-1 .25q-.45.35-.6.85-.1.5.2.95.35.45.85.5l1-.2q.5-.3.6-.8v-.6l-.2-.45" transform="translate(192.55 294)"/><path fill-rule="evenodd" fill="#38a8ad" d="M16.75-58.35v.6q-.1.5-.6.8l-1 .2q-.5-.05-.85-.5-.3-.45-.2-.95.15-.5.6-.85l1-.25q.6.05.85.5l-.35-.5q-1-1.45-2.95-1.7-1.9-.2-3.55.9-1.7 1.15-2.15 2.95-.45 1.9.5 3.35 1.1 1.5 3 1.7 1.95.3 3.65-.85T16.8-56q.25-.95.1-1.8l-.15-.55" transform="translate(192.55 294)"/></g><g id="a"><path fill-rule="evenodd" fill="#fff" d="m1.9-4.4.3.7Q3-1.55 2.7.7 2.4 3 1.2 4.05.05 5.1-1.35 4.3q-1.4-.75-2.2-2.9l-.05-.25q.05-3.55 1.9-5.3 1.8-1.7 3.6-.25" transform="translate(4.15 6.95)"/><path fill-rule="evenodd" fill="#d1d1d1" d="M-3.6 1.15q-.75-2.05-.45-4.2.3-2.25 1.5-3.3Q-1.4-7.4 0-6.65 1.15-6 1.9-4.4q-1.8-1.45-3.6.25-1.85 1.75-1.9 5.3" transform="translate(4.15 6.95)"/><path stroke-width=".05" stroke-linejoin="round" stroke-linecap="round" stroke="#6c6c6c" fill="none" d="M.55 8.1Q-.2 6.05.1 3.9.4 1.65 1.6.6 2.75-.45 4.15.3q1.15.65 1.9 2.25l.3.7q.8 2.15.5 4.4-.3 2.3-1.5 3.35-1.15 1.05-2.55.25-1.4-.75-2.2-2.9L.55 8.1z"/><path fill-rule="evenodd" d="m.2-.3-.3.35-.45-.35-.25-.6.1-.7q.1-.2.35-.2l.4.2.2.7-.05.6" transform="translate(4.15 6.95)"/></g><g id="b"><path fill-rule="evenodd" fill="#e2aa01" d="M-12.8 4.2q6.75-7.45 6.35-21.9-1 0-1.6-.45-.65-.5-.65-1.2-.05-.7.6-1.15.6-.5 1.6-.45.9-.05 1.55.45.65.45.7 1.15 0 .7-.65 1.2-.65.45-1.55.45Q-5.2-4.35 1 3.05q-6.7 2-13.8 1.15" transform="translate(19.1 20.95)"/><path stroke-width=".05" stroke-linejoin="round" stroke-linecap="round" stroke="#a36501" fill="none" d="M6.3 25.15q6.75-7.45 6.35-21.9-1 0-1.6-.45-.65-.5-.65-1.2-.05-.7.6-1.15.6-.5 1.6-.45.9-.05 1.55.45.65.45.7 1.15 0 .7-.65 1.2-.65.45-1.55.45Q13.9 16.6 20.1 24"/><path fill-rule="evenodd" fill="#e2aa01" d="M14.25-11.7q-.1 13.95.6 19.5-2.55-2.45-5.5-3.2 2.9-3.1 4.9-16.3" transform="translate(19.1 20.95)"/><path fill-rule="evenodd" fill="#ffecce" d="m14.25-11.7.75-5.4h.1q-1.45 16.75 4 28.9l-3.55 1.4-.7-5.4q-.7-5.55-.6-19.5" transform="translate(19.1 20.95)"/><path stroke-width=".05" stroke-linejoin="round" stroke-linecap="round" stroke="#a95c01" fill="none" d="M33.35 9.25q-.1 13.95.6 19.5l.7 5.4 3.55-1.4"/><path stroke-width=".05" stroke-linejoin="round" stroke-linecap="round" stroke="#a95c01" fill="none" d="M38.2 32.75q-5.45-12.15-4-28.9"/><path fill-rule="evenodd" fill="#e2aa01" d="M16.5-19.05q.4.7.3 1.6-.15 1-.7 1.6-.45.45-1 .4h-.2q-.7-.15-1.1-.8-.4-.75-.3-1.7.1-.95.65-1.5.5-.55 1.25-.45.7.1 1.1.85" transform="translate(19.1 20.95)"/><path stroke-width=".05" stroke-linejoin="round" stroke-linecap="round" stroke="#a36501" fill="none" d="M35.6 1.9q.4.7.3 1.6-.15 1-.7 1.6-.45.45-1 .4H34q-.7-.15-1.1-.8-.4-.75-.3-1.7.1-.95.65-1.5.5-.55 1.25-.45.7.1 1.1.85z"/><path fill-rule="evenodd" fill="#e2aa01" d="m16.1 6.05.1-.1v.1h-.1m-32.95 0h.05-.05" transform="translate(19.1 20.95)"/><path fill-rule="evenodd" fill="#694f01" d="m-16.8 6.05 1.3-1.75q1.6-2 3.55-2.55Q-7.05.5-.2.5q6.8 0 11.7 1.25 2.1.6 3.65 2.35 1.25 1.45 1.05 1.85l-.1.1q-16.75-4.15-32.85 0h-.05" transform="translate(19.1 20.95)"/><path fill-rule="evenodd" fill="#feb336" d="M-16.8 6.05h.05q3.35 1.8 4.8 2.2l.95.25Q-6.4 9.65-.2 9.65q6.15 0 10.75-1.15l.95-.25q3.7-.95 4.6-2.2h.1l.25 6q-.05 1.9-4.95 3.15-4.9 1.45-11.7 1.45-6.85 0-11.75-1.45-4.9-1.25-4.9-3.15v-6h.05" transform="translate(19.1 20.95)"/><path stroke-width=".05" stroke-linejoin="round" stroke-linecap="round" stroke="#6b3c01" fill="none" d="M2.3 27h.05m32.85 0 .1-.1v.1M2.25 27h.05m33 0 .25 6q-.05 1.9-4.95 3.15-4.9 1.45-11.7 1.45-6.85 0-11.75-1.45-4.9-1.25-4.9-3.15v-6m32.95 0q-.9 1.25-4.6 2.2l-.95.25q-4.6 1.15-10.75 1.15-6.2 0-10.8-1.15l-.95-.25q-1.45-.4-4.8-2.2m32.85 0h.1"/><path fill-rule="evenodd" fill="#ffcf60" d="M4.85-13.6q-.95-.05-1.6-.65-.65-.65-.6-1.6-.05-.95.6-1.55.65-.65 1.6-.65.95 0 1.6.65.6.6.65 1.55-.05.95-.65 1.6-.65.6-1.6.65l.5 6.7.3 8.75q.5 12.5 1.7 19.05-4.5-3.55-9.45-4.3Q4.75 6.45 4.85-13.6" transform="translate(19.1 20.95)"/><path fill-rule="evenodd" fill="#ffecce" d="M5.35-6.9q1.5 13.8 6.4 22.1-2.85 1.15-4.4 5.7-1.2-6.55-1.7-19.05l-.3-8.75" transform="translate(19.1 20.95)"/><path stroke-width=".05" stroke-linejoin="round" stroke-linecap="round" stroke="#a36501" fill="none" d="M23.95 7.35q-.95-.05-1.6-.65-.65-.65-.6-1.6-.05-.95.6-1.55.65-.65 1.6-.65.95 0 1.6.65.6.6.65 1.55-.05.95-.65 1.6-.65.6-1.6.65m0 0 .5 6.7q1.5 13.8 6.4 22.1-2.85 1.15-4.4 5.7-4.5-3.55-9.45-4.3 6.85-10.15 6.95-30.2m.8 15.45q.5 12.5 1.7 19.05"/><path fill-rule="evenodd" fill="#ffcf60" d="M-16.5-.35q1.85 9.1 2.4 19.65-.95-1.95-4.1-4.4 1.65-6.3 1.7-15.25" transform="translate(19.1 20.95)"/><path fill-rule="evenodd" fill="#ffe8c1" d="M-14.1 19.3q-.55-10.55-2.4-19.65-.05-6.55-.9-14.55 3.45 23.1 8.8 30.7-4.85 1.65-5.5 3.5" transform="translate(19.1 20.95)"/><path stroke-width=".05" stroke-linejoin="round" stroke-linecap="round" stroke="#a36501" fill="none" d="M1.7 6.05q.85 8 .9 14.55-.05 8.95-1.7 15.25"/><path stroke-width=".05" stroke-linejoin="round" stroke-linecap="round" stroke="#5f3401" fill="none" d="M5 40.25q.65-1.85 5.5-3.5m-9.6-.9q3.15 2.45 4.1 4.4"/><path fill-rule="evenodd" fill="#ffcf60" d="M-16.5-16q.55.55.7 1.5.15.95-.25 1.65-.35.7-1 .8h-.25q-.6.05-1.05-.4-.55-.6-.7-1.55-.15-.95.25-1.6.3-.75 1-.85.7-.1 1.3.45" transform="translate(19.1 20.95)"/><path stroke-width=".05" stroke-linejoin="round" stroke-linecap="round" stroke="#a36501" fill="none" d="M2.6 4.95Q2 4.4 1.3 4.5q-.7.1-1 .85-.4.65-.25 1.6.15.95.7 1.55.45.45 1.05.4h.25q.65-.1 1-.8.4-.7.25-1.65-.15-.95-.7-1.5z"/></g><path fill-rule="evenodd" fill-opacity="0" fill="#f0f" d="M0 0h102.95v45H0V0" id="c"/></defs><path fill="none" d="M-1-1h199v198H-1z"/><g transform="scale(2)"><use x="48.05" y="145" xlink:href="#i" width="381" transform="translate(-192.55 -294)" height="381"/><use x="48.293" y="-16.196" xlink:href="#j" width="6.95" transform="matrix(.3266 2.9677 -1.9929 -.1038 -8.555 -87.745)" height="11.6"/><use xlink:href="#j" width="6.95" transform="matrix(.3877 3.5209 -2.5202 .0323 61.906 59.664)" height="11.6"/><use x="1.03" y="160.29" xlink:href="#k" width="38.2" transform="matrix(-.9542 .3289 .3059 .9025 5.217 -138.89)" height="41.85"/><use x="-79.681" y="-89.793" xlink:href="#l" width="102.95" transform="matrix(1.8072 0 0 1.6538 96 165.3)" height="45"/></g></svg>