<svg width="140" height="144" xmlns="http://www.w3.org/2000/svg" xmlns:xlink="http://www.w3.org/1999/xlink"><defs><linearGradient y2="-.786" y1=".778" x2="1.285" x1=".55" spreadMethod="pad" id="c"><stop stop-opacity=".8" stop-color="#229ab7" offset="0"/><stop stop-opacity=".502" stop-color="#7cd8dc" offset="1"/></linearGradient><linearGradient y2="-.036" y1=".727" x2=".657" x1=".273" spreadMethod="pad" id="d"><stop stop-opacity=".8" stop-color="#acdef0" offset="0"/><stop stop-opacity=".502" stop-color="#ebf9fa" offset="1"/></linearGradient><linearGradient y2=".031" y1="1.089" x2=".377" x1="-.017" spreadMethod="pad" id="e"><stop stop-opacity=".902" stop-color="#018bad" offset="0"/><stop stop-opacity=".502" stop-color="#ebf9fa" offset="1"/></linearGradient><linearGradient y2=".29" y1=".975" x2=".768" x1=".096" spreadMethod="pad" id="f"><stop stop-opacity=".8" stop-color="#acdef0" offset="0"/><stop stop-opacity=".502" stop-color="#ebf9fa" offset="1"/></linearGradient><use xlink:href="#a" width="6.95" height="11.6" id="h"/><use xlink:href="#b" width="102.95" height="45" id="i"/><g id="g"><path stroke-opacity="0" stroke-linejoin="round" stroke-linecap="round" stroke="#f0f" fill="none" d="M187.95-293.5v380h-380v-380h380M92.95.6H-97" transform="translate(192.55 294)"/><path stroke-opacity="0" stroke-linejoin="round" stroke-linecap="round" stroke="#f0f" fill="none" d="m187.95-293.5-190 190 190 190m-380-380 190 190L-192 86.5" transform="translate(192.55 294)"/><path fill-rule="evenodd" fill="url(#c)" d="M2.25-56.3q-6.55 1.8-11.6 2.15l-3.45.2-2.15.05h-.35l-.4-.1.55.1h.2v-.05h2.15-2.15q0-.25.45-.2l1.05.05h.2l.45.15-.35-.15L2.2-56.3h.05m-25.2-1.4q-2.95-2.7-5.6-8.35l-.65-1.15.6.7 3.45 5.95q.9 1.55 2.2 2.85m8.15 3.75 1.35-.15-1.35.15" transform="translate(192.55 294)"/><path fill-rule="evenodd" fill="#dffcff" d="M-31.95-101.5q-1.4-10.15.2-12.85 1.85-2.4 12.05-1.65-11.25.95-10.2 6.5 3.9 9.5 8.25 10.9l5.65 1.8h.45q1.95-.05 3.7-1.5 1.75-1.5 4.15-1.65l4.7.5L1.05-98q1.75.75 4.3 1 2.7.2 6.15-.85 3.55-1.1 12.1-6.25 8.6-5.2 5.85-7.35 4.95 1.85 3.75 9.7l-.2 1.25q-1.8-3.35-12.6 1.95-10.65 5.35-18.25 2.9-4.75-2.25-8.35-1.6-3.85.75-5.5 1.95-1.7 1.2-3.05 1.55-3.7.15-3.1 6.85.55 7.05.5 9.1.45 2.9.25 5.65-.25 2.8-1.2 5.5-3.5 7.2.4 11.3-8.3-3.85-3.5-10.9 1.7-2.55 2.35-5.8 1.15-5.95-1-14.5l-1.75-9.1-8.7-11.5q-1.8-2.25-1.45 5.65m2.3 21.05q-.9 3.35.25 5.45l1.45 3.3 3.7 6.1-7.3-7.8q-.9-1.1-.5-2.95l2.4-4.1" transform="translate(192.55 294)"/><path fill-rule="evenodd" fill="url(#d)" d="M29.45-111.45q2.75 2.15-5.85 7.35-8.55 5.15-12.1 6.25-3.45 1.05-6.15.85-2.55-.25-4.3-1L-3-99.45l-4.7-.5q-2.4.15-4.15 1.65-1.75 1.45-3.7 1.5H-16l-5.65-1.8Q-26-100-29.9-109.5q-1.05-5.55 10.2-6.5 15.25.15 23.2-4.25 7.9-4.35 10.15-3.75 2.15.6 5.5 4.7 3.3 4.05 6.6 5.5l3.7 2.35m-36.15-3.7 4.6-.1q12.45-.55 18.2 1.2 5.65 1.65 11.4 2.6-7.95-2.4-9.3-5.25-3.15-6.55-6.4-5.45-5.75 2.8-11.6 5.45-2.3 1.05-6.9 1.55" transform="translate(192.55 294)"/><path fill-rule="evenodd" fill="url(#e)" d="M-31.95-101.5q-.35-7.9 1.45-5.65l8.7 11.5 1.75 9.1q2.15 8.55 1 14.5-.65 3.25-2.35 5.8-4.8 7.05 3.5 10.9l2.8 1.4-.05.05-.55-.1q-4.45-1.1-7.25-3.7-1.3-1.3-2.2-2.85l-3.45-5.95-.6-.7-2.7-2.55q-3.55-3.35-1.15-8.65 2.45-5.35 2.1-11.8-.4-6.5-1-11.3m2.3 21.05-2.4 4.1q-.4 1.85.5 2.95l7.3 7.8-3.7-6.1-1.45-3.3q-1.15-2.1-.25-5.45m16.5 26.35.35.15-.45-.15h.1m-1.8.2h-.15.15" transform="translate(192.55 294)"/><path fill-rule="evenodd" fill="url(#f)" d="M-17.9-55.35q-3.9-4.1-.4-11.3.95-2.7 1.2-5.5.2-2.75-.25-5.65.05-2.05-.5-9.1-.6-6.7 3.1-6.85 1.35-.35 3.05-1.55 1.65-1.2 5.5-1.95 3.6-.65 8.35 1.6 7.6 2.45 18.25-2.9 10.8-5.3 12.6-1.95-3.1 10.9-2.1 16.55.95 5.65 2.7 10.35 1.75 4.65-2.6 9.25l-.7.5q-.4.7-1.45 1.25h-.1l-.2.1-1.2.5-.15.05L24-61l-7.6 1.45-6.45 3.8-7.7-.55H2.2l-15.35 2.2h-.3l-1.05-.05q-.45-.05-.45.2v.05h-.2.05-.05l.05-.05-2.8-1.4m2.75 1.45h-.15.15m31.55-5.65L19.35-62l-2.95 2.45M-15.55-69.6q-.8 1.95 6.45 2.95 3.7-.25.25-3.1-3.4-2.9-6.7.15m36.6-4.1q-.45.45-.35.85l1.05.9 2.1.1q4.25-.05 3.65-3.05-.7-3.05-1.85-2.25-1.2.8-2.2 1.15-1.1.25-2.4 2.3m-34.3 19.6-1.25-.05 1.25.05m-1.75.2.05-.05h-.15.15l-.05.05m11.55-3.05 5.65.65-5.65-.65" transform="translate(192.55 294)"/><path fill-rule="evenodd" fill="#f5fbfc" d="M-6.7-115.15q4.6-.5 6.9-1.55 5.85-2.65 11.6-5.45 3.25-1.1 6.4 5.45 1.35 2.85 9.3 5.25-5.75-.95-11.4-2.6-5.75-1.75-18.2-1.2l-4.6.1" transform="translate(192.55 294)"/><path fill-rule="evenodd" fill="#fff" d="M21.05-73.7q1.3-2.05 2.4-2.3 1-.35 2.2-1.15 1.15-.8 1.85 2.25.6 3-3.65 3.05l-2.1-.1-1.05-.9q-.1-.4.35-.85m-36.6 4.1q3.3-3.05 6.7-.15 3.45 2.85-.25 3.1-7.25-1-6.45-2.95" transform="translate(192.55 294)"/><path stroke-width=".05" stroke-linejoin="round" stroke-linecap="round" stroke="#71c8dd" fill="none" d="M172.85 178q-10.2-.75-12.05 1.65-1.6 2.7-.2 12.85m64.95 1 .2-1.25q1.2-7.85-3.75-9.7M172.85 178q15.25.15 23.2-4.25 7.9-4.35 10.15-3.75 2.15.6 5.5 4.7 3.3 4.05 6.6 5.5l3.7 2.35m3.55 10.95q-3.1 10.9-2.1 16.55.95 5.65 2.7 10.35 1.75 4.65-2.6 9.25l-.7.5q-.4.7-1.45 1.25h-.1l-.2.1-1.2.5-.15.05-3.2.95-7.6 1.45m-31.55 5.65h-.15.15l-.55-.1q-4.45-1.1-7.25-3.7m-6.25-9.5-2.7-2.55q-3.55-3.35-1.15-8.65 2.45-5.35 2.1-11.8-.4-6.5-1-11.3m2.75 34.3.6.7 3.45 5.95q.9 1.55 2.2 2.85m25.15 1.4-15.35 2.2m.35.15h-2.15v.05h-.2l.05-.05h.15l-.05.05h-.15m1.9-.2h-.2l-1.35.15m1.55-.15h.1m.35.15-.45-.15m-1.7.15q0-.25.45-.2l1.25.05"/><path stroke-width=".05" stroke-linejoin="round" stroke-linecap="round" stroke="#4ba9bc" fill="none" d="m208.95 234.45-6.45 3.8-7.7-.55h-.05l-5.65-.65m22.8-5.05-2.95 2.45"/><path fill-rule="evenodd" fill="#86cfd9" d="M4.95-111.05q-.15.4 0 .85.1.85.85 1.3.75.5 1.7.4.85-.1 1.3-.85.45-.65.3-1.5-.2-.85-.85-1.3-.75-.55-1.6-.4-.95.1-1.4.75l.45-.75q1.6-2.3 4.7-2.8 3.1-.25 5.8 1.5 2.6 1.8 3.35 4.7.75 3-.8 5.35-1.7 2.3-4.8 2.7-3.1.35-5.8-1.4-2.6-1.8-3.3-4.8-.45-1.6-.15-2.9l.25-.85" transform="translate(192.55 294)"/><path fill-rule="evenodd" fill="#fff" d="M5.25-111.8q.45-.65 1.4-.75.85-.15 1.6.4.65.45.85 1.3.15.85-.3 1.5-.45.75-1.3.85-.95.1-1.7-.4-.75-.45-.85-1.3-.15-.45 0-.85l.3-.75" transform="translate(192.55 294)"/><path fill-rule="evenodd" fill="#86cfd9" d="m-2-113.1.15-.25q.45-.7 1.4-.85.95-.1 1.8.45.8.55 1 1.45.25.9-.25 1.6-.5.75-1.45.85-.95.1-1.75-.45-.8-.5-1-1.45l-.1-.85.1-.3v.3l.25.4.55.1.4-.25q.1-.2.05-.45l-.25-.4-.5-.15-.4.25" transform="translate(192.55 294)"/><path fill-rule="evenodd" fill="#fff" d="m-2.1-112.9.1-.2.4-.25.5.15.25.4q.05.25-.05.45l-.4.25-.55-.1-.25-.4v-.3m13.65 44.1.85-.5.95.2.55.85q.1.45-.15.9l-.8.5-1-.2q-.5-.3-.55-.8v-.55l.15-.4" transform="translate(192.55 294)"/><path fill-rule="evenodd" fill="#38a8ad" d="M11.4-68.4v.55q.05.5.55.8l1 .2.8-.5q.25-.45.15-.9l-.55-.85-.95-.2-.85.5.35-.5q.95-1.4 2.85-1.65 1.85-.2 3.4.9 1.65 1.05 2.1 2.8.4 1.8-.5 3.25-1.05 1.4-2.9 1.6-1.85.3-3.5-.8-1.6-1.1-2-2.95-.25-.9-.1-1.75l.15-.5" transform="translate(192.55 294)"/><path fill-rule="evenodd" fill="#86cfd9" d="M-2.05-73.3v.3l.25.4.55.1q.25 0 .4-.25l.1-.45-.25-.45-.5-.1-.45.25.15-.25q.5-.75 1.45-.9 1-.1 1.85.5.85.55 1.1 1.45.2.95-.3 1.7t-1.5.85q-1 .15-1.85-.45-.8-.55-1.05-1.5l-.05-.9.1-.3" transform="translate(192.55 294)"/><path fill-rule="evenodd" fill="#fff" d="m-1.95-73.5.45-.25.5.1.25.45-.1.45q-.15.25-.4.25l-.55-.1-.25-.4v-.3l.1-.2M23.1-97.1q.15-.25.4-.25l.5.1.3.4-.1.5q-.15.2-.4.25-.3.05-.5-.15l-.3-.35v-.3l.1-.2" transform="translate(192.55 294)"/><path fill-rule="evenodd" fill="#38a8ad" d="M23-96.9v.3l.3.35q.2.2.5.15.25-.05.4-.25l.1-.5-.3-.4-.5-.1q-.25 0-.4.25l.15-.25q.5-.7 1.45-.85.9-.1 1.7.45.85.55 1.05 1.45.25.9-.25 1.6-.5.7-1.45.8-.9.15-1.75-.4-.8-.55-1-1.45l-.05-.9.05-.25" transform="translate(192.55 294)"/><path fill-rule="evenodd" fill="#86cfd9" d="m-20.85-112.05.25-.4q.8-1.2 2.45-1.45 1.6-.15 3.05.8 1.35.9 1.75 2.45.4 1.55-.45 2.8-.85 1.2-2.5 1.4-1.6.2-3.05-.75-1.35-.9-1.7-2.5-.25-.8-.1-1.5l.15-.45v.45q.05.45.45.7l.85.2q.45-.05.7-.45.25-.35.15-.8l-.45-.7-.8-.2q-.5.05-.75.4" transform="translate(192.55 294)"/><path fill-rule="evenodd" fill="#fff" d="m-21-111.65.15-.4q.25-.35.75-.4l.8.2.45.7q.1.45-.15.8-.25.4-.7.45l-.85-.2q-.4-.25-.45-.7v-.45m-7.45 8.3.8-.5.9.2.55.8q.1.45-.15.9-.3.4-.8.45l-.95-.2q-.45-.25-.5-.75v-.5l.15-.4" transform="translate(192.55 294)"/><path fill-rule="evenodd" fill="#38a8ad" d="M-28.6-102.95v.5q.05.5.5.75l.95.2q.5-.05.8-.45.25-.45.15-.9l-.55-.8-.9-.2-.8.5.3-.5q.95-1.35 2.75-1.55 1.75-.2 3.25.85 1.55 1.05 2 2.7.4 1.7-.5 3.05-.95 1.35-2.75 1.6-1.75.25-3.35-.8-1.55-1.05-1.9-2.8-.25-.9-.1-1.7l.15-.45" transform="translate(192.55 294)"/><path fill-rule="evenodd" fill="#fff" d="m-28.7-94.7.35-.25.45.1.25.4-.1.4-.35.2-.45-.1-.25-.35v-.2l.1-.2" transform="translate(192.55 294)"/><path fill-rule="evenodd" fill="#38a8ad" d="M-28.8-94.5v.2l.25.35.45.1.35-.2.1-.4-.25-.4-.45-.1-.35.25.15-.25q.4-.6 1.25-.7.8-.1 1.5.4.7.45.9 1.25.2.8-.2 1.4-.45.65-1.3.75-.8.1-1.5-.4-.75-.45-.9-1.3l-.05-.75.05-.2" transform="translate(192.55 294)"/><path fill-rule="evenodd" fill="#86cfd9" d="M-10.55-93.9v.5q.05.5.5.75.4.3.95.25l.75-.5q.3-.4.2-.9-.1-.45-.5-.75l-.9-.2q-.55.05-.85.45l.3-.45q.9-1.35 2.7-1.65 1.8-.15 3.35.9 1.55 1 1.95 2.7.45 1.75-.5 3.1t-2.75 1.55q-1.8.25-3.35-.8t-1.9-2.75q-.3-.95-.1-1.7l.15-.5" transform="translate(192.55 294)"/><path fill-rule="evenodd" fill="#fff" d="M-10.4-94.3q.3-.4.85-.45l.9.2q.4.3.5.75.1.5-.2.9l-.75.5q-.55.05-.95-.25-.45-.25-.5-.75v-.5l.15-.4M5.7-71.85l.4-.25.55.1.25.45-.05.45-.45.3-.5-.15-.3-.4v-.25l.1-.25" transform="translate(192.55 294)"/><path fill-rule="evenodd" fill="#38a8ad" d="M5.6-71.6v.25l.3.4.5.15.45-.3.05-.45-.25-.45-.55-.1-.4.25.15-.25q.55-.75 1.5-.85.95-.1 1.8.45.85.55 1.05 1.5.25.9-.25 1.65-.55.75-1.5.85-.95.15-1.8-.4-.85-.6-1.05-1.55l-.1-.9.1-.25" transform="translate(192.55 294)"/><path fill-rule="evenodd" fill="#fff" d="M-27.15-79.5q.3-.4.85-.45l.95.2q.45.3.55.8.1.5-.15.95-.35.45-.85.5-.5.1-.95-.25-.5-.25-.55-.75v-.55l.15-.45" transform="translate(192.55 294)"/><path fill-rule="evenodd" fill="#38a8ad" d="M-27.3-79.05v.55q.05.5.55.75.45.35.95.25.5-.05.85-.5.25-.45.15-.95-.1-.5-.55-.8l-.95-.2q-.55.05-.85.45l.35-.45q.95-1.45 2.85-1.65 1.85-.25 3.45.85 1.65 1.1 2.05 2.85.45 1.8-.5 3.25-1 1.4-2.9 1.65-1.85.25-3.5-.85t-2-2.95q-.3-.95-.1-1.75l.15-.5" transform="translate(192.55 294)"/><path fill-rule="evenodd" fill="#fff" d="m-11.05-61.7.6-.35.7.15.4.6q.1.35-.1.65l-.6.4-.75-.2-.4-.55v-.4l.15-.3" transform="translate(192.55 294)"/><path fill-rule="evenodd" fill="#38a8ad" d="M-11.2-61.4v.4l.4.55.75.2.6-.4q.2-.3.1-.65l-.4-.6-.7-.15-.6.35.25-.35q.7-1.05 2.05-1.2 1.35-.2 2.55.6 1.2.8 1.5 2.1.3 1.3-.35 2.35-.75 1.05-2.15 1.2-1.35.2-2.55-.6-1.2-.8-1.45-2.15l-.1-1.3.1-.35" transform="translate(192.55 294)"/></g><g id="a"><path fill-rule="evenodd" fill="#fff" d="m-3.25 2.2-.3-.75q-.85-2.15-.6-4.4.2-2.3 1.4-3.35Q-1.6-7.4-.2-6.6q1.4.7 2.3 2.85l.05.25q0 3.5-1.8 5.3-1.75 1.75-3.6.4" transform="translate(4.2 6.95)"/><path fill-rule="evenodd" fill="#d1d1d1" d="M2.15-3.5q.75 2 .55 4.15Q2.45 2.9 1.25 4 .1 5.05-1.3 4.35-2.45 3.7-3.25 2.2q1.85 1.35 3.6-.4 1.8-1.8 1.8-5.3" transform="translate(4.2 6.95)"/><path stroke-width=".05" stroke-linejoin="round" stroke-linecap="round" stroke="#1d5656" fill="none" d="m.95 9.15-.3-.75Q-.2 6.25.05 4q.2-2.3 1.4-3.35Q2.6-.45 4 .35q1.4.7 2.3 2.85l.05.25q.75 2 .55 4.15-.25 2.25-1.45 3.35Q4.3 12 2.9 11.3 1.75 10.65.95 9.15z"/><path fill-rule="evenodd" d="M.4-1.15q-.1.35-.35.4l-.55-.4-.25-.75.05-.8q.15-.3.45-.3l.45.3.3.8-.1.75" transform="translate(4.2 6.95)"/></g><path fill-rule="evenodd" fill-opacity="0" fill="#f0f" d="M0 0h102.95v45H0V0" id="b"/></defs><path fill="none" d="M-1-1h142v146H-1z"/><g transform="scale(2)"><use x="35.05" y="125" xlink:href="#g" width="381" transform="translate(-192.55 -294)" height="381"/><use x="45.511" y="31.674" xlink:href="#h" width="6.95" transform="matrix(-.2372 2.8151 1.4474 -.0984 4.387 -92.04)" height="11.6"/><use xlink:href="#h" width="6.95" transform="matrix(-.2565 3.043 1.6676 .0279 22.587 31.775)" height="11.6"/><use x="-86.875" y="-101.887" xlink:href="#i" width="102.95" transform="matrix(1.8072 0 0 1.6538 96 166.6)" height="45"/></g></svg>