<svg width="131" height="135" xmlns="http://www.w3.org/2000/svg" xmlns:xlink="http://www.w3.org/1999/xlink"><defs><linearGradient y2="-4.608" y1="-4.608" x2="-16.546" x1="21.861" spreadMethod="pad" id="d"><stop stop-color="#cdf527" offset="0"/><stop stop-opacity=".502" stop-color="#96d753" offset="1"/></linearGradient><linearGradient y2="-2.764" y1="-2.561" x2="3.266" x1="3.653" spreadMethod="pad" id="e"><stop stop-color="#acdf24" offset="0"/><stop stop-opacity=".502" stop-color="#92b773" offset="1"/></linearGradient><linearGradient y2=".155" y1="1.069" x2=".369" x1=".105" spreadMethod="pad" id="f"><stop stop-color="#61ab16" offset="0"/><stop stop-opacity=".502" stop-color="#92b773" offset="1"/></linearGradient><use xlink:href="#a" width="6.15" height="12.65" id="h"/><use xlink:href="#b" width="6.7" height="15" id="i"/><use xlink:href="#c" width="102.95" height="45" id="k"/><g id="g"><path stroke-opacity="0" stroke-linejoin="round" stroke-linecap="round" stroke="#f0f" fill="none" d="M187.95-293.5v380h-380v-380h380M92.95.6H-97" transform="translate(192.55 294)"/><path stroke-opacity="0" stroke-linejoin="round" stroke-linecap="round" stroke="#f0f" fill="none" d="m187.95-293.5-190 190 190 190m-380-380 190 190L-192 86.5" transform="translate(192.55 294)"/><path fill-rule="evenodd" fill="#dcfc87" d="M20.5-108.25q3.75 2.1 4.45 4 .85 2.4-6 3.65l-11.6 2.95q-3.6 1.15-8.1-2.4-4.55-3.6-7.55 1.45-2.8 2.55-14.65-6.95-5.5-4.35-4.35-10.15.95-2.75 9.4 1-3.45-1.75-6-4.25-3.5-2.9-6.85 1.1-3.3 4-4 10.7-.65 6.7 3.1 23.85-2.4-17.6-1.25-23.9 1.2-6.35 3.3-1.95 2 4.3 5.1 5.65l3.95 1.65q7.55 2.95 9.9 8.55l2.85 8.95q1.5 5.95 1.2 11.2-.3 5.4-2.5 10.05-3.6 7.5 1.75 8.65l2.65.2-.45-.5q-1-1.3-1.6-2.55-.7-1.6-.8-3.2v-1.05l.15-1.3q.4-1.6 1.2-3.3 1.35-3.8 1.1-7.75-.05-1.2-.25-2.45.05-1.35-1.2-7.35l-.45-3-.25-3 .3-2.1.65-1.2q-.3.15-.05-.15l1.65-1.9q2.4-2.5 5.25-1.85 2.85.55 4.7 3 1.85 2.4 4.1-.55 2.35-3 10.25-4.55 7.95-1.55 8.85 1.9l.2-1.15q1.1-7.25-3.45-8.9l-4.7-1.1m-41.75 42.2q-2.7-.95-4.45-1.75-2.5-1.15-2.85-1.9-.6-1.35-.5-4.25-.75 3.1-1.75 4.45-.8 1.05-.05 2 .25.45 2.2.8l7.4.65" transform="translate(192.55 294)"/><path fill-rule="evenodd" fill="url(#d)" d="M-17.9-114.7q-8.45-3.75-9.4-1-1.15 5.8 4.35 10.15 11.85 9.5 14.65 6.95 3-5.05 7.55-1.45 4.5 3.55 8.1 2.4l11.6-2.95q6.85-1.25 6-3.65-.7-1.9-4.45-4-10.75-1.7-13.8-3.95-2.95-2.2-8.8-1.6l-8.5.5-4.75-.6-2.55-.8" transform="translate(192.55 294)"/><path fill-rule="evenodd" fill="url(#e)" d="M28.45-97.1q-.9-3.45-8.85-1.9-7.9 1.55-10.25 4.55-2.25 2.95-4.1.55-1.85-2.45-4.7-3-2.85-.65-5.25 1.85l-1.65 1.9q-.25.3.05.15l-.65 1.2-.3 2.1.25 3 .45 3q1.25 6 1.2 7.35.2 1.25.25 2.45.25 3.95-1.1 7.75-.8 1.7-1.2 3.3l-.15 1.3v1.05q.1 1.6.8 3.2.6 1.25 1.6 2.55l.45.5q9.3-5.1 29.1-8.05 4.95-2.8 3.85-6.85-1.05-4.1-1.5-11.15-.45-7 1.7-16.8" transform="translate(192.55 294)"/><path fill-rule="evenodd" fill="url(#f)" d="m-4.7-54.25-2.65-.2Q-12.7-55.6-9.1-63.1q2.2-4.65 2.5-10.05.3-5.25-1.2-11.2l-2.85-8.95q-2.35-5.6-9.9-8.55l-3.95-1.65q-3.1-1.35-5.1-5.65-2.1-4.4-3.3 1.95-1.15 6.3 1.25 23.9.8 3.8.9 8.75.2 4.85-1.45 5.8-1.6.9-.15 2.75 1.5 1.85 3.65 1.65 2.15-.15 7.15 2.3 4.9 2.4 7.4 5.1 2.4 2.7 5.15 2.95l4.3-.25m-16.55-11.8-7.4-.65q-1.95-.35-2.2-.8-.75-.95.05-2 1-1.35 1.75-4.45-.1 2.9.5 4.25.35.75 2.85 1.9 1.75.8 4.45 1.75" transform="translate(192.55 294)"/><path stroke-width=".05" stroke-linejoin="round" stroke-linecap="round" stroke="#568e1c" fill="none" d="m213.05 185.75 4.7 1.1q4.55 1.65 3.45 8.9l-.2 1.15m-60.1 13.8q-3.75-17.15-3.1-23.85.7-6.7 4-10.7 3.35-4 6.85-1.1 2.55 2.5 6 4.25l2.55.8 4.75.6 8.5-.5q5.85-.6 8.8 1.6 3.05 2.25 13.8 3.95M160.9 210.7q.8 3.8.9 8.75.2 4.85-1.45 5.8-1.6.9-.15 2.75 1.5 1.85 3.65 1.65 2.15-.15 7.15 2.3 4.9 2.4 7.4 5.1 2.4 2.7 5.15 2.95l4.3-.25q9.3-5.1 29.1-8.05 4.95-2.8 3.85-6.85-1.05-4.1-1.5-11.15-.45-7 1.7-16.8"/><path fill-rule="evenodd" fill="#56b54f" d="m1-104.85-.25.8q-.2 1.25.1 2.65.7 2.8 3.1 4.45 2.45 1.65 5.3 1.2 2.85-.3 4.3-2.45 1.55-2.1.8-4.85-.65-2.65-3.05-4.3-2.4-1.7-5.3-1.35-2.8.35-4.25 2.5l-.45.75q.45-.6 1.25-.75.8-.1 1.4.35.7.45.85 1.25.2.75-.3 1.35-.45.65-1.25.8-.8.15-1.45-.35-.7-.45-.8-1.2-.15-.4 0-.85" transform="translate(192.55 294)"/><path fill-rule="evenodd" fill="#f3f2e8" d="M1-104.85q-.15.45 0 .85.1.75.8 1.2.65.5 1.45.35.8-.15 1.25-.8.5-.6.3-1.35-.15-.8-.85-1.25-.6-.45-1.4-.35-.8.15-1.25.75l-.3.6" transform="translate(192.55 294)"/></g><g id="a"><path fill-rule="evenodd" fill="#dfecd2" d="m1.9-4.4.3.7Q3-1.55 2.7.7 2.4 3 1.2 4.05.05 5.1-1.35 4.3-2.3 3.8-3 2.6l-.15-4.4q.5-1.45 1.45-2.35 1.8-1.7 3.6-.25" transform="translate(3.35 7.85)"/><path fill-rule="evenodd" fill="#bdcab0" d="m-3.25-5.45.7-.9Q-1.4-7.4 0-6.65 1.15-6 1.9-4.4q-1.8-1.45-3.6.25-.95.9-1.45 2.35l-.1-3.65" transform="translate(3.35 7.85)"/><path stroke-width=".05" stroke-linejoin="round" stroke-linecap="round" stroke="#727f65" fill="none" d="m5.25 3.45.3.7q.8 2.15.5 4.4-.3 2.3-1.5 3.35-1.15 1.05-2.55.25-.95-.5-1.65-1.7M.1 2.4l.7-.9Q1.95.45 3.35 1.2q1.15.65 1.9 2.25"/><path stroke-width=".05" stroke-linejoin="round" stroke-linecap="round" stroke="#386f55" fill="none" d="M.35 10.45q0 1.45-.35 2.2m.2-6.6.15 4.4M0 0l.1 2.4.1 3.65"/><path fill-rule="evenodd" fill="#233016" d="M-1.55-2.55q-.1.3-.35.35l-.55-.35-.25-.8.05-.8q.15-.3.45-.3l.45.3.3.8-.1.8" transform="translate(3.35 7.85)"/></g><g id="b"><path fill-rule="evenodd" fill="#dfecd2" d="m1.8-7.2.15.75q0 .4-1.15.35-1.2-.05-2.6-1.05v-.5Q0-9 1.8-7.2m-3.55 3.15 4.2 2.1.05 2.5Q2.4 3 1.2 4.05.05 5.1-1.35 4.3q-1.4-.75-2.2-2.9l-.05-.25q.05-3.5 1.85-5.2" transform="translate(4.15 10.35)"/><path fill-rule="evenodd" fill="#bdcab0" d="m-1.8-7.15-1.2-.9q-1-1 .25-1.9 1.25-.9 2.65.15 1.15.85 1.9 2.6Q0-9-1.8-7.65v.5m-1.8 8.3q-.75-2.05-.45-4.2.1-.75.7-.95l1.6-.05q-1.8 1.7-1.85 5.2" transform="translate(4.15 10.35)"/><path stroke-width=".05" stroke-linejoin="round" stroke-linecap="round" stroke="#727f65" fill="none" d="m5.95 3.15.15.75q0 .4-1.15.35-1.2-.05-2.6-1.05l-1.2-.9q-1-1 .25-1.9 1.25-.9 2.65.15 1.15.85 1.9 2.6M2.4 6.3l4.2 2.1.05 2.5q-.1 2.45-1.3 3.5-1.15 1.05-2.55.25-1.4-.75-2.2-2.9l-.05-.25Q-.2 9.45.1 7.3q.1-.75.7-.95l1.6-.05"/><path fill-rule="evenodd" fill="#233016" d="m-1.85-1.85-.35.4-.55-.4-.25-.8.05-.85q.15-.3.45-.3l.45.3q.3.35.35.85.05.5-.15.8" transform="translate(4.15 10.35)"/></g><path d="M6.3-82.5q0-2.8-1.95-4.8-2-1.9-4.8-1.9l-2.4.4q2.75.8 4.9 2.9 2.8 2.95 3.35 6.8.9-1.5.9-3.4m8.75-2.15h-2l.25.25q1.6 1.6 1.9 3.8.5-.85.5-1.9 0-1.2-.65-2.15" transform="translate(2.85 89.2)" id="j" fill-rule="evenodd" fill="#fff"/><path fill-rule="evenodd" fill-opacity="0" fill="#f0f" d="M0 0h102.95v45H0V0" id="c"/></defs><path fill="none" d="M-1-1h133v137H-1z"/><g transform="scale(2)"><use x="35.8" y="120.75" xlink:href="#g" width="381" transform="translate(-192.55 -294)" height="381"/><use x="60.175" y="43.681" xlink:href="#h" width="6.15" transform="matrix(-.1735 2.0589 1.0586 -.072 4.021 -85.282)" height="12.65"/><use x="43.052" y="30.061" xlink:href="#i" width="6.7" transform="matrix(-.2349 2.7869 1.5273 .0256 -14.082 -90.88)" height="15"/><use x="35.8" y="120.75" xlink:href="#j" width="18.55" transform="translate(-2.85 -89.2)" height="10.1"/><use x="-86.46" y="-104.456" xlink:href="#k" width="102.95" transform="matrix(1.8072 0 0 1.6538 96 167.9)" height="45"/></g></svg>