<svg width="186" height="202" xmlns="http://www.w3.org/2000/svg" xmlns:xlink="http://www.w3.org/1999/xlink"><defs><g id="g"><path stroke-opacity="0" stroke-linejoin="round" stroke-linecap="round" stroke="#f0f" fill="none" d="M187.95-293.5v380h-380v-380h380M92.95.6H-97" transform="translate(192.55 294)"/><path stroke-opacity="0" stroke-linejoin="round" stroke-linecap="round" stroke="#f0f" fill="none" d="m187.95-293.5-190 190 190 190m-380-380 190 190L-192 86.5" transform="translate(192.55 294)"/><path fill-rule="evenodd" fill="#fe1f1f" d="M33.2-76.1q-2.3-1.15-6-2.25-3.4-.7-6.6-2.2-2.5-.75-4.85-1.9L9.5-85.4Q4.75-88.05.7-91.9q-1.5-1.2-3.4-1.3-4.4-1.35-9 1.55l-2.6 1.75q-3.8 3.05-8.4 5.1l-6.4 3.15-9.05 4.4q-4.75 2.45-1.7 6.15 2.25.7 5.1 1.3l6.75 1.2q3.75.7 8.15 2.45 4.4 1.75 7.2 3.4 2.85 1.6 4.75 3.45 1.9 1.8 4.25 3.2 2.45 1.3 5.7 1.3 3.3.1 6.45-2.95l6.65-7q3.55-3.85 8.5-5.3 5-1.45 8.85-3.05 2.65-2.25.7-3" transform="translate(192.55 294)"/><path fill-rule="evenodd" fill="#fe8585" d="m-3.3-139.2-.2-.25q-.6-1.05-1.8-1.2-1.2-.2-2.25.6-1.05.75-1.4 2v.15q-1.55-1.1-3.7-1.4-4-.5-7.4 2-3.35 2.5-4.3 6.6-1.05 4.05 1.05 7.25 2.15 3.3 6.05 3.75 4.05.6 7.55-1.9 3.35-2.45 4.25-6.6.5-2.15.15-4.05l-.25-1.25q.15.65 0 1.3-.2 1.15-1.15 1.85-.95.7-2.15.5-1.05-.25-1.75-1.2-.6-.95-.35-2.1.3-1.1 1.15-1.8.7-.5 1.45-.6l.65.1q.95.05 1.55.85l.15.25-.15-.25 1.7-.6q1.05-.8 1.3-2.1.2-.7.1-1.2l-.1-.35v.45l-.35.4q-.25.3-.65.3l-.55-.45-.1-.6.35-.6.65-.1.5.25m24.35 1.55-.35-.6q-1.05-1.75-3.1-2-2.1-.25-3.9 1.05-1.85 1.3-2.25 3.45-.55 2.2.5 3.85 1.1 1.65 3.2 1.9 2.15.35 3.9-.95 1.8-1.3 2.25-3.5.35-1.1.1-2.05l-.2-.6v.6l-.5.95q-.5.35-1.15.25-.6-.1-.95-.6-.25-.5-.15-1.15.15-.6.6-.95.5-.4 1.05-.25l.95.6m9.8 11.9-.35-.6q-1.2-1.95-3.55-2.2-2.25-.35-4.25 1.15-1.9 1.45-2.5 3.8-.55 2.35.6 4.15 1.2 1.9 3.55 2.25 2.35.25 4.3-1.1 1.95-1.5 2.45-3.9.35-1.25.15-2.35l-.15-.7v.8l-.7 1q-.5.35-1.2.35-.6-.15-1.05-.65-.35-.65-.15-1.25.05-.7.6-1.1l1.2-.25q.7.05 1.05.6m-66.45 8.65-.2-.35q-.6-.95-1.8-1.1-1.25-.2-2.25.6-1.05.75-1.3 2-.35 1.2.25 2.25.7.95 1.9 1.1 1.2.1 2.25-.6 1.05-.8 1.3-2l.1-1.2-.1-.45v.45q-.1.35-.35.5l-.7.2-.5-.35-.1-.6.35-.6q.25-.3.6-.2.35.1.55.35" transform="translate(192.55 294)"/><path fill-rule="evenodd" fill="#fff" d="m-3.3-139.2-.5-.25-.65.1-.35.6.1.6.55.45q.4 0 .65-.3l.35-.4v-.45l-.15-.35m34.15 13.45q-.35-.55-1.05-.6l-1.2.25q-.55.4-.6 1.1-.2.6.15 1.25.45.5 1.05.65.7 0 1.2-.35l.7-1v-.8l-.25-.5M7.55-113.2q-.35-.6-1.05-.7-.6-.1-1.15.35l-.7 1.05q-.15.7.2 1.2.4.5 1.05.7l1.2-.25q.6-.45.7-1.15v-.7l-.25-.5m-43.15-3.9q-.2-.25-.55-.35-.35-.1-.6.2l-.35.6.1.6.5.35.7-.2q.25-.15.35-.5v-.45l-.15-.25m66.7 3.4-.45-.3-.6.1-.25.55q-.1.3.1.6l.5.25q.25 0 .5-.2l.35-.4v-.35l-.15-.25m-2 20.95q-.35-.5-1.05-.6l-1.3.25q-.5.45-.7 1.15-.05.65.3 1.3.4.5 1 .65.8.1 1.3-.25.65-.4.7-1.1v-.8l-.25-.6M-13.2-82.1l-.5-.45-.7.2-.35.6.1.6.6.45q.35 0 .6-.2l.45-.6v-.35l-.2-.25m-7.5 4.15q-.35-.6-1.05-.7l-1.3.35q-.55.35-.7 1.05-.1.7.25 1.3l1.05.7 1.3-.25q.5-.45.7-1.15v-.75l-.25-.55m17.5-6.15-.1-.35-.6-.35-.6.2-.35.6.05.6q.2.25.55.35l.7-.1q.35-.25.35-.6v-.35M8.4-68.05l-.8-.55-.95.2-.5.85q0 .55.25.95.25.45.7.55l.95-.25q.45-.35.5-.8v-.6l-.15-.35" transform="translate(192.55 294)"/><path fill-rule="evenodd" fill="#f3f2e8" d="m-6-134.35-.15-.25q-.6-.8-1.55-.85l-.65-.1q-.75.1-1.45.6-.85.7-1.15 1.8-.25 1.15.35 2.1.7.95 1.75 1.2 1.2.2 2.15-.5t1.15-1.85q.15-.65 0-1.3l-.45-.85m27.05-3.3-.95-.6q-.55-.15-1.05.25-.45.35-.6.95-.1.65.15 1.15.35.5.95.6.65.1 1.15-.25l.5-.95v-.6l-.15-.55" transform="translate(192.55 294)"/><path fill-rule="evenodd" fill="#fe1f1f" d="M-9.8-110.85q.7-.55 1.45-.35.8.1 1.25.75l-.45-.75Q-9-113.55-11.9-114q-2.85-.25-5.35 1.6-2.45 1.7-3.05 4.65-.7 2.95.8 5.3 1.45 2.25 4.35 2.6 2.9.45 5.35-1.3Q-7.3-103-6.7-106q.45-1.5.1-2.85l-.15-.8v.8q-.2.85-.8 1.35-.7.45-1.55.35-.8-.15-1.3-.85-.35-.7-.2-1.5.1-.85.8-1.35m44.35 21.8q-.5-.85-1.55-1-1.05-.1-2 .6-.85.6-1.1 1.7-.3 1.05.25 1.95.6.85 1.65 1 1.05.2 2-.5.85-.7 1.1-1.8.2-.55 0-1.05v-.25.25l-.35.5-.5.1q-.35 0-.55-.25-.15-.25-.05-.55.05-.35.25-.5l.6-.2.45.3-.2-.3M-13-81.85v.35l-.45.6q-.25.2-.6.2l-.6-.45-.1-.6.35-.6.7-.2.5.45-.15-.45q-.7-1-1.9-1.2-1.2-.15-2.35.7-1.05.8-1.4 2-.25 1.3.35 2.35.7 1 1.9 1.2 1.3.15 2.35-.6 1.15-.8 1.4-2.1l.1-1.3-.1-.35m-7.7 3.9-.45-.7q-1.2-1.95-3.65-2.25-2.35-.35-4.4 1.15-2.1 1.55-2.7 4-.6 2.5.7 4.4 1.3 2 3.65 2.25 2.5.35 4.6-1.1 2.05-1.6 2.6-4.1.25-1.3.05-2.4l-.15-.7v.75q-.2.7-.7 1.15l-1.3.25-1.05-.7q-.35-.6-.25-1.3.15-.7.7-1.05l1.3-.35q.7.1 1.05.7m17.4-6.5-.2-.35q-.65-1-1.95-1.2-1.25-.15-2.35.7-1.05.7-1.4 2-.25 1.4.35 2.4.7.95 2 1.15 1.3.15 2.35-.6 1.1-.9 1.35-2.2.2-.65 0-1.2l-.05-.35v.35q0 .35-.35.6l-.7.1q-.35-.1-.55-.35l-.05-.6.35-.6.6-.2.6.35m11.7 16.4-.25-.55q-.95-1.45-2.7-1.7-1.75-.2-3.3.95Q.7-68.25.25-66.5q-.45 1.8.45 3.3.95 1.4 2.65 1.65 1.85.15 3.4-.9 1.45-1.1 1.9-2.9.25-.95.1-1.85l-.2-.5v.6q-.05.45-.5.8l-.95.25q-.45-.1-.7-.55-.25-.4-.25-.95l.5-.85.95-.2.8.55" transform="translate(192.55 294)"/><path fill-rule="evenodd" fill="#fe6d6d" d="m-26.1-106.7.35-.6.6-.2.55.45-.2-.45q-.6-.95-1.8-1.1-1.25-.2-2.25.6-1.05.8-1.4 2-.25 1.2.35 2.25.7.95 1.9 1.1 1.2.2 2.25-.5 1.05-.8 1.3-2.1.2-.6.1-1.2l-.1-.35v.35l-.35.6-.7.1q-.25-.1-.5-.35l-.1-.6m57.2-7-.2-.3q-.5-.95-1.55-1-1.05-.2-2 .5-.85.7-1.1 1.75-.25 1.1.25 1.95.6.9 1.65 1 1.05.15 2-.45.85-.7 1.1-1.85.2-.6 0-1v-.25.25l-.35.4q-.25.2-.5.2l-.5-.25q-.2-.3-.1-.6l.25-.55.6-.1.45.3" transform="translate(192.55 294)"/><path fill-rule="evenodd" fill="#fe6767" d="m29.1-92.75-.35-.6q-1.3-2-3.7-2.35-2.35-.35-4.45 1.2-2.05 1.55-2.65 4-.65 2.5.6 4.5 1.3 1.9 3.7 2.25 2.5.35 4.6-1.2 2.1-1.55 2.6-4.1.35-1.3.1-2.4l-.2-.7v.8q-.05.7-.7 1.1-.5.35-1.3.25-.6-.15-1-.65-.35-.65-.3-1.3.2-.7.7-1.15l1.3-.25q.7.1 1.05.6m-64.05 1.9q1.25 1.8 3.55 2.1 2.35.35 4.35-1.05 2-1.5 2.5-3.8.3-1.3.1-2.35l-.15-.7v.7q-.1.6-.7 1.05-.55.35-1.25.25l-1-.6q-.35-.6-.2-1.25l.7-1q.5-.45 1.15-.35.65.05 1 .6l-.35-.6q-1.2-1.9-3.45-2.2-2.35-.35-4.3 1.15-2 1.4-2.55 3.7-.6 2.45.6 4.35" transform="translate(192.55 294)"/></g><g id="d"><path fill-rule="evenodd" fill="#e2aa01" d="M-12.8 4.2q6.75-7.45 6.35-21.9-1 0-1.6-.45-.65-.5-.65-1.2-.05-.7.6-1.15.6-.5 1.6-.45.9-.05 1.55.45.65.45.7 1.15 0 .7-.65 1.2-.65.45-1.55.45Q-5.2-4.35 1 3.05q-6.7 2-13.8 1.15" transform="translate(19.1 20.95)"/><path stroke-width=".05" stroke-linejoin="round" stroke-linecap="round" stroke="#a36501" fill="none" d="M6.3 25.15q6.75-7.45 6.35-21.9-1 0-1.6-.45-.65-.5-.65-1.2-.05-.7.6-1.15.6-.5 1.6-.45.9-.05 1.55.45.65.45.7 1.15 0 .7-.65 1.2-.65.45-1.55.45Q13.9 16.6 20.1 24"/><path fill-rule="evenodd" fill="#e2aa01" d="M14.25-11.7q-.1 13.95.6 19.5-2.55-2.45-5.5-3.2 2.9-3.1 4.9-16.3" transform="translate(19.1 20.95)"/><path fill-rule="evenodd" fill="#ffecce" d="m14.25-11.7.75-5.4h.1q-1.45 16.75 4 28.9l-3.55 1.4-.7-5.4q-.7-5.55-.6-19.5" transform="translate(19.1 20.95)"/><path stroke-width=".05" stroke-linejoin="round" stroke-linecap="round" stroke="#a95c01" fill="none" d="M33.35 9.25q-.1 13.95.6 19.5l.7 5.4 3.55-1.4"/><path stroke-width=".05" stroke-linejoin="round" stroke-linecap="round" stroke="#a95c01" fill="none" d="M38.2 32.75q-5.45-12.15-4-28.9"/><path fill-rule="evenodd" fill="#e2aa01" d="M16.5-19.05q.4.7.3 1.6-.15 1-.7 1.6-.45.45-1 .4h-.2q-.7-.15-1.1-.8-.4-.75-.3-1.7.1-.95.65-1.5.5-.55 1.25-.45.7.1 1.1.85" transform="translate(19.1 20.95)"/><path stroke-width=".05" stroke-linejoin="round" stroke-linecap="round" stroke="#a36501" fill="none" d="M35.6 1.9q.4.7.3 1.6-.15 1-.7 1.6-.45.45-1 .4H34q-.7-.15-1.1-.8-.4-.75-.3-1.7.1-.95.65-1.5.5-.55 1.25-.45.7.1 1.1.85z"/><path fill-rule="evenodd" fill="#e2aa01" d="m16.1 6.05.1-.1v.1h-.1m-32.95 0h.05-.05" transform="translate(19.1 20.95)"/><path fill-rule="evenodd" fill="#694f01" d="m-16.8 6.05 1.3-1.75q1.6-2 3.55-2.55Q-7.05.5-.2.5q6.8 0 11.7 1.25 2.1.6 3.65 2.35 1.25 1.45 1.05 1.85l-.1.1q-16.75-4.15-32.85 0h-.05" transform="translate(19.1 20.95)"/><path fill-rule="evenodd" fill="#feb336" d="M-16.8 6.05h.05q3.35 1.8 4.8 2.2l.95.25Q-6.4 9.65-.2 9.65q6.15 0 10.75-1.15l.95-.25q3.7-.95 4.6-2.2h.1l.25 6q-.05 1.9-4.95 3.15-4.9 1.45-11.7 1.45-6.85 0-11.75-1.45-4.9-1.25-4.9-3.15v-6h.05" transform="translate(19.1 20.95)"/><path stroke-width=".05" stroke-linejoin="round" stroke-linecap="round" stroke="#6b3c01" fill="none" d="M2.3 27h.05m32.85 0 .1-.1v.1M2.25 27h.05m33 0 .25 6q-.05 1.9-4.95 3.15-4.9 1.45-11.7 1.45-6.85 0-11.75-1.45-4.9-1.25-4.9-3.15v-6m32.95 0q-.9 1.25-4.6 2.2l-.95.25q-4.6 1.15-10.75 1.15-6.2 0-10.8-1.15l-.95-.25q-1.45-.4-4.8-2.2m32.85 0h.1"/><path fill-rule="evenodd" fill="#ffcf60" d="M4.85-13.6q-.95-.05-1.6-.65-.65-.65-.6-1.6-.05-.95.6-1.55.65-.65 1.6-.65.95 0 1.6.65.6.6.65 1.55-.05.95-.65 1.6-.65.6-1.6.65l.5 6.7.3 8.75q.5 12.5 1.7 19.05-4.5-3.55-9.45-4.3Q4.75 6.45 4.85-13.6" transform="translate(19.1 20.95)"/><path fill-rule="evenodd" fill="#ffecce" d="M5.35-6.9q1.5 13.8 6.4 22.1-2.85 1.15-4.4 5.7-1.2-6.55-1.7-19.05l-.3-8.75" transform="translate(19.1 20.95)"/><path stroke-width=".05" stroke-linejoin="round" stroke-linecap="round" stroke="#a36501" fill="none" d="M23.95 7.35q-.95-.05-1.6-.65-.65-.65-.6-1.6-.05-.95.6-1.55.65-.65 1.6-.65.95 0 1.6.65.6.6.65 1.55-.05.95-.65 1.6-.65.6-1.6.65m0 0 .5 6.7q1.5 13.8 6.4 22.1-2.85 1.15-4.4 5.7-4.5-3.55-9.45-4.3 6.85-10.15 6.95-30.2m.8 15.45q.5 12.5 1.7 19.05"/><path fill-rule="evenodd" fill="#ffcf60" d="M-16.5-.35q1.85 9.1 2.4 19.65-.95-1.95-4.1-4.4 1.65-6.3 1.7-15.25" transform="translate(19.1 20.95)"/><path fill-rule="evenodd" fill="#ffe8c1" d="M-14.1 19.3q-.55-10.55-2.4-19.65-.05-6.55-.9-14.55 3.45 23.1 8.8 30.7-4.85 1.65-5.5 3.5" transform="translate(19.1 20.95)"/><path stroke-width=".05" stroke-linejoin="round" stroke-linecap="round" stroke="#a36501" fill="none" d="M1.7 6.05q.85 8 .9 14.55-.05 8.95-1.7 15.25"/><path stroke-width=".05" stroke-linejoin="round" stroke-linecap="round" stroke="#5f3401" fill="none" d="M5 40.25q.65-1.85 5.5-3.5m-9.6-.9q3.15 2.45 4.1 4.4"/><path fill-rule="evenodd" fill="#ffcf60" d="M-16.5-16q.55.55.7 1.5.15.95-.25 1.65-.35.7-1 .8h-.25q-.6.05-1.05-.4-.55-.6-.7-1.55-.15-.95.25-1.6.3-.75 1-.85.7-.1 1.3.45" transform="translate(19.1 20.95)"/><path stroke-width=".05" stroke-linejoin="round" stroke-linecap="round" stroke="#a36501" fill="none" d="M2.6 4.95Q2 4.4 1.3 4.5q-.7.1-1 .85-.4.65-.25 1.6.15.95.7 1.55.45.45 1.05.4h.25q.65-.1 1-.8.4-.7.25-1.65-.15-.95-.7-1.5z"/></g><g id="i"><path fill-rule="evenodd" fill-opacity=".647" fill="#fff2f2" d="m19.45-19.25.6.15q6.5 1.65 6.2 9.9l-.15 1q.2-4.85-5.15-2.9-5.4 1.95-10.8 2.65-5.6.6-6.8 1.4Q2.1-6.25-.25-5-2.65-3.7-2.1.9q.55 4.55.15 5.75.75 4.55-.7 8.9l-.35.95q1.6-5.9-.95-16.8l-1.7-4.6q-.6-3.65-8.05-7.45l-3.2-1.45q-2.55-1.25-4.15-4.9-1.7-3.7-3.4 3.55-1.7 7.2.25 18.7-2.55-13.15-1.95-18.2.6-5.1 2.15-6 1.55-.9 2.85-.75 1.3.1 5.35-.85-2.6.85-1.85 3.6 1.5 5.3 11.3 8.3 9.95 2.8 20-.85 6.5-2.45 7.8-4.75 1.25-2.3-2-3.3" transform="translate(26.25 28.5)"/><path fill-rule="evenodd" fill="url(#a)" d="m2.2 28.5-3.75.3q-2.35-.2-5.05-1.9l-8.05-4.9q-5.4-3.2-7.4-4.1-2-.95-2.65-3.15-.65-2.25-.05-3.95.6-1.75.65-3.35l-.1-3.9q-1.95-11.5-.25-18.7 1.7-7.25 3.4-3.55 1.6 3.65 4.15 4.9l3.2 1.45q7.45 3.8 8.05 7.45l1.7 4.6Q-1.4 10.6-3 16.5l-.05.2-.05.3v.05l-.1 1.15-.05.15q-2.15 4.3-.4 7.6 1.7 3.25 5.85 2.55m-24.8-15.9q-.65.9-.05 1.8.45.85 7.8 1.2-5.5-2.05-5.95-3.2-.45-1.15-.4-3.65-.6 2.65-1.4 3.85" transform="translate(26.25 28.5)"/><path fill-rule="evenodd" fill="url(#b)" d="M-15.8-22.25q9.35-2.35 13.85-5.5Q.9-30 8.4-25.3q7.3 4.55 10.95 6l.1.05q3.25 1 2 3.3-1.3 2.3-7.8 4.75-10.05 3.65-20 .85-9.8-3-11.3-8.3-.75-2.75 1.85-3.6" transform="translate(26.25 28.5)"/><path fill-rule="evenodd" fill="url(#c)" d="m26.1-8.2-1.35 5.8q-.75 2.95-.3 6.9.4 3.95 1.2 8.5.8 4.5-4.05 6.2-4.9 1.05-9.15 3.6T2.2 28.5q-7.65-3.4-5.45-10.15l.05-.15.1-1.15V17l.05-.3.05-.2.35-.95q1.45-4.35.7-8.9.4-1.2-.15-5.75Q-2.65-3.7-.25-5q2.35-1.25 3.6-2.05 1.2-.8 6.8-1.4 5.4-.7 10.8-2.65 5.35-1.95 5.15 2.9" transform="translate(26.25 28.5)"/><path fill-rule="evenodd" fill-opacity=".851" fill="#ffe6e6" d="M-3.25 18.35Q-5.45 25.1 2.2 28.5q-4.15.7-5.85-2.55-1.75-3.3.4-7.6M-22.6 12.6q.8-1.2 1.4-3.85-.05 2.5.4 3.65t5.95 3.2q-7.35-.35-7.8-1.2-.6-.9.05-1.8" transform="translate(26.25 28.5)"/><path stroke-width=".05" stroke-opacity=".851" stroke-linejoin="round" stroke-linecap="round" stroke="#ff2b2b" fill="none" d="M10.45 6.25Q19.8 3.9 24.3.75 27.15-1.5 34.65 3.2q7.3 4.55 10.95 6l.1.05.6.15q6.5 1.65 6.2 9.9l-.15 1L51 26.1q-.75 2.95-.3 6.9.4 3.95 1.2 8.5.8 4.5-4.05 6.2-4.9 1.05-9.15 3.6T28.45 57l-3.75.3q-2.35-.2-5.05-1.9l-8.05-4.9q-5.4-3.2-7.4-4.1-2-.95-2.65-3.15Q.9 41 1.5 39.3q.6-1.75.65-3.35l-.1-3.9Q-.5 18.9.1 13.85q.6-5.1 2.15-6 1.55-.9 2.85-.75 1.3.1 5.35-.85z"/></g><g id="e"><path fill-rule="evenodd" fill="#febebe" d="M.25 5.15.4-5.05q.7 0 1.5.65l.3.7q.8 2.15.35 4.8Q2.1 3.7 1.3 4.45l-1.05.7" transform="translate(1.55 7.85)"/><path fill-rule="evenodd" fill="#e2a2a2" d="M1.9-4.4q-.8-.65-1.5-.65L.25 5.15l-.65.05q.2-2.45.05-10.1Q-.3-6.2-1-6.95l.6.15.4.15Q1.15-6 1.9-4.4" transform="translate(1.55 7.85)"/><path stroke-width=".05" stroke-linejoin="round" stroke-linecap="round" stroke="#b42525" fill="none" d="M3.45 3.45q-.75-1.6-1.9-2.25l-.4-.15L.55.9q.7.75.65 2.05.15 7.65-.05 10.1L1.8 13l1.05-.7q.8-.75 1.25-3.35.45-2.65-.35-4.8l-.3-.7M0 0l.55.9m.6 12.15v1.85"/><path fill-rule="evenodd" fill="#652525" d="M.45-2.1q-.05.6-.75.7v-2.55l.25.25.35.6.15 1" transform="translate(1.55 7.85)"/></g><linearGradient y2=".306" y1="1.237" x2=".279" x1=".052" spreadMethod="pad" id="a"><stop stop-opacity=".851" stop-color="#ee0b0b" offset="0"/><stop stop-opacity=".529" stop-color="#faafb0" offset="1"/></linearGradient><linearGradient y2="-4.054" y1="-4.054" x2="-17.87" x1="23.488" spreadMethod="pad" id="b"><stop stop-opacity=".851" stop-color="#fe9e9e" offset="0"/><stop stop-opacity="0" stop-color="#faafb0" offset="1"/></linearGradient><linearGradient y2=".487" y1=".487" x2=".001" x1="1.566" spreadMethod="pad" id="c"><stop stop-opacity=".851" stop-color="#ee0b0b" offset="0"/><stop stop-opacity=".529" stop-color="#faafb0" offset="1"/></linearGradient><use xlink:href="#d" width="38.2" height="41.85" id="h"/><use xlink:href="#e" width="4.25" height="14.9" id="j"/><use xlink:href="#f" width="102.95" height="45" id="l"/><path fill-rule="evenodd" fill="#fff" d="m23.8-79.75-2.1-1.75.05.55q.45 3.2-1 5.95 1.25-.5 2.05-1.7 1-1.4 1-3.05" transform="translate(-20.75 81.5)" id="k"/><path fill-rule="evenodd" fill-opacity="0" fill="#f0f" d="M0 0h102.95v45H0V0" id="f"/></defs><path fill="none" d="M-1-1h188v204H-1z"/><g transform="scale(2)"><use x="46.55" y="152.25" xlink:href="#g" width="381" transform="translate(-192.55 -294)" height="381"/><use x="-4.751" y="-.667" xlink:href="#h" width="38.2" transform="matrix(.9917 .3419 -.3179 .938 43.969 14.069)" height="41.85"/><use x="2.885" y="-1.298" xlink:href="#i" width="52.5" transform="matrix(-1.733 0 0 1.733 97.04 3.16)" height="57.3"/><use x="35.915" y="-27.94" xlink:href="#j" width="4.25" transform="matrix(-.2254 3.917 -1.9558 -.4142 2.052 -81.97)" height="14.9"/><use x="-.968" y="-2.733" xlink:href="#j" width="4.25" transform="matrix(.1935 3.3756 1.761 -.3725 53.176 73.392)" height="14.9"/><use x="46.55" y="152.25" xlink:href="#k" width="3.05" transform="translate(20.75 -81.5)" height="6.5"/><use x="-80.511" y="-85.409" xlink:href="#l" width="102.95" transform="matrix(1.8072 0 0 1.6538 96 161.4)" height="45"/></g></svg>