<svg width="362" height="530" xmlns="http://www.w3.org/2000/svg" xmlns:xlink="http://www.w3.org/1999/xlink"><defs><path fill-rule="evenodd" fill-opacity="0" fill="#f0f" d="M0 0h102.95v45H0V0" id="a"/><use xlink:href="#a" width="102.95" height="45" id="c"/><g id="b"><path stroke-opacity="0" stroke-linejoin="round" stroke-linecap="round" stroke="#f0f" fill="none" d="M187.95-293.5v380h-380v-380h380M92.95.6H-97" transform="translate(192.55 294)"/><path stroke-opacity="0" stroke-linejoin="round" stroke-linecap="round" stroke="#f0f" fill="none" d="m187.95-293.5-190 190 190 190m-380-380 190 190L-192 86.5" transform="translate(192.55 294)"/><path fill-rule="evenodd" d="M67.5-27.75h.05l-.05-.05v.05" transform="translate(192.55 294)"/><path stroke-width="2.25" stroke-linejoin="round" stroke-linecap="round" stroke="#413123" fill="none" d="m109.9 244.05-13.35-9.95-.1-7.85 6.85-16.35.05-.65q.95-13.7-1.7-21.45.3-5.8 4.5-6.55l.15-.1q1.6-.55 2.95.25l1.05.85.1.15.35.4.8 1.35.65 1.35.05-.9.9-4.85q.75-3.1 1.9-6.3l2.45-5.75 1.85-3.6 4.6-7.4 6.45-8.5v-.1q.05-1.2-.75-1.9-1.15-1.1-4.25-1.05h-.4q-3.05.15-7.9 1.4 2.6-6.35 6.45-11.45 3.45-4.7 7.9-8.4l3.35-2.55-6.15-3.55 8.65-1.9-6.85-13.8 3.95 2.15-1.7-14.65 5.05 3.15 10.1-36.15 2.3-3.5q1.25-1.85 2.4-2.75l1.6-1 .4-.1-.85 1.9q-2.3 5.95-2.5 15.55v5.25l4.9-7.9 6.6 29.7v.05l1.15 5.05 2.05-6.9q2.4 7.9 5.85 15.8l1.45 3.35q4.4 9.2 10.25 18.45 3.4-3.65 9.25-3.3l-3.15-9.95q3.55 3.2 6.9 7.45l1.4 1.75q2.25-1.5 6.85-1.35l7.45.8 8.1 1.9.15.05q3.75 2.2 6.65 4.4 8.7 6.55 9.6 12.75.4 2.4-.4 4.8l4.5 1.7.2.05 2 .95Q250.6 158 255 163.3l3 4.45q4.65 8.5 2.7 20.4l-1.8 2.55q-.9 1.5-1.7 3.5l-.3-.65.5 2.05q.15.85-.05 1.05l1 1.65-1.45.55q0 2.05.6 3.9l.55 1.65-.9-.8-.15 3.15.2 2.85q-.45-.25-.75-1.45l-.8 4.1 1.5 2.3-1.6 6.15.7 4.7-1.25-2.5-2.1 8.25 7.05.9q5.65 1.2 8.95 4.15l.35 2.2h.3l2.1 3.6q1.7 2.65 1.2 4.5-1.4 0-3.35-1.25l-.2 1.05q-.4 2.15-1.45 3.85l-2 .2.25 3.65-.7.55.4 1.9q.6 2.65-.65 4.5-1.85.05-4-2.25l-.75-.85-4.5-.2.6 1.6-2.35 2.25q-2.45.95-1.55 4.1l-.2.05.2 2.95-.5.15q-1.8.2-4.05-2.25l-.35-.35-.95-1.25-9.8.95-1.05-1.85-11.8-8.65 1.25-.8-17.45-7.9q-.05-3.4 2.75-6.3l1.05-.05 2.75-5.05q-1.45-1.85-2.75-4.45-2.25-4.55-3.85-11.4v-.05l.15-.5 2.25-7.85q-2.6 1.65-5.15 2.55-4.45 1.5-8.65.5l-.15 1.2q-1.5 8.95-4.8 16.35l1.35 1.5q9 10.45 12.2 26.6 3.2 2.25 5.05 6.6-.9 5.25-2.8 8l6.35 15.55q2.35 7.55.9 12.9-4.3 5.75-9.45 3.9-4.4 6.9-17.55 4.45-3.2 2.35-7.4 1.15l2.5-4.4q-1.65-1.8-2.05-4.25-.2-1.2-.05-2.55l-.3.05q-7.7.65-11.75-2.7l-.75.5-1.4.65q-1.65.6-4 .7l-.75-.45q-1.6-1.4-.85-2.65l.8-1.6-.35-2.65v-1.1q.25-2.15 1.4-4.1-2.95 1.5-4.75 1.8-2.85.5-2.65-2.3l-6.8.35q2.3-3.2 5.35-5.55l2.65-1.7 2.65-5.9.1-.15.35-.7.05-.15.1-.15q2.2-4.4 8.15-5.6l7.8-1.4 3.7.15-1.65-12.55-.1.7-1.55-2.9-.15-.2q.3 1.15-.3 3.45-.9 3.4-4.9 7.25l-.25.25-.55.5.25-.6q4-12.15-.65-22.65v-.05q-.7 1.55-1.85 1.9 1-4.1.15-8l-2.15 1.1 1.55-2.5q1.25-2.45 1.25-5.1l-3.4-.7 2.25-2.25-2.7-2 1.6.75.55-.1.1-.05-3.55-5.95-2.05-4.95h-4.8l-3.55 3.55-.8 10.75q-2.4 1.65-5.75 2l-5.7-.2-2.3-1.6q2.6 5.65 1.5 11.3l.25 1.15q.6 2.65-.65 4.5-1.85 0-4-2.25l-.8-.9h-.05l-1.1.2-1.75-1.4v1q0 .65-.3 1.2l-.55.6q.5 2.5-.7 4.25-1.85.05-3.95-2.25l-.8-.85-.1-.15-.2-.45h-.25l-5.55-1.95-.9.35-.15.4-.1.3-.55.65.15.8q.45 1.85-.05 3.25l-.55 1.25q-1.9.05-4-2.25l-.5-.5-1.55-.5-1.2.05z"/><path fill-rule="evenodd" fill="#ffe7ae" d="m-45.4-232-9.4 33.55-5.05-3.15 1.7 14.65-3.95-2.15 6.85 13.8.8 1.5.15 1.95-3.45 2-3.35 2.55q-4.45 3.7-7.9 8.4 8.5-4.95 17.05-4.7l-.75-.4q5.3-4.3 12.8-3-2.4-5.7-5.85-12-.5-1-.05-.65l2.45 2.95q17.65 17 15.1 14.95l6.3 5.35q-.75-2.95-.8-5.1 0-2.1-2.35-9.2l3.35 7q6.1 8.4 11 10.85l5.55 2.65v-1.6l3 2.7-4.05-7.65-1.15-2.3-1.7-2.6q-5.85-9.25-10.25-18.45l-1.45-3.35q-3.45-7.9-5.85-15.8l-2.05 6.9-.1-.4-.6 2.9.7-2.5-.7 2.5-.55 2.85-.45 3.75q-.6-7.15.5-14.15l.05-.05-6.6-29.7-3.45 5.55-4.15 9.65q-.85 5.5-.75 11.35l.95 14.75q-4.55-17.9-3.6-27.2L-45.4-232m22.95 200.3-.25.6.55-.5-.3-.1m27.75-134-1.4-1.75Q.55-171.7-3-174.9l3.15 9.95 2.45 7.6 2.05 4.95.35.8q.8 3.4 4.8 8.35 3.9 4.9 9.45 10.2l.25.25v-.2l-2.75-12.3-.4-1.7.65 1.5v-.3l-.65-1.2-2.8-5.55-5.1-8.6-3.15-4.55m-63.25-19.35-.2-1.9.2 1.9m3.15-13.4-1 3.65 1-3.65M-14-63.05l-.1.25-.1.2q-.35-3.95-2.95 6.4 1.35 16.05 2.65 11.25l1-11V-56l-.15-.75-.3-5.25.05.3.25 1.55.4 1.3-.4-1.3.35 1.6.05-.3 2.7 5.95q-1-6.65.05-11.1l.55-2.7q-.7.85-2.65 1.45l-.2.4-.25.35-.95 1.45m-5.15 6.45v-5.2q-.6-3.5-2.6 3.3-.65 3.25.05 6.35 4.75 13.95 3.15 4.75l-.2-.95-.65-4.55.1-3.15.15-.55" transform="translate(192.55 294)"/><path fill-rule="evenodd" fill="#deb776" d="m-38.1-241.75-.3-.1-1.6 1q-1.15.9-2.4 2.75l-2.3 3.5-.7 2.6-2.05 18.95q-.95 9.3 3.6 27.2l-.95-14.75q-.1-5.85.75-11.35l4.15-9.65-1.45 2.35v-5.25q.2-9.6 2.5-15.55l.75-1.7m-17.15 66.45-8.65 1.9 6.15 3.55 3.45-2-.15-1.95-.8-1.5M-69-158.9q-3.85 5.1-6.45 11.45 4.85-1.25 7.9-1.4h.4q3.1-.05 4.25 1.05.8.7.75 1.9h.1l1.2-1.45.65-.25q4.7-5.55 13.95-10.15l11.1-2.4.35.25 1.5.65 4.55 2.4 1.85.95.3.1q2.1.85 3.7 2.6l-20.45-23.5 20.45 23.5.5.7 1 1.05 2.4 2.15-.15-.7-.55-4-.25-2.95q-.05-.5 2 .6 5.2 4.1 12.5 8.75l1.95 1.25.1-.1.65-.6.15 1.25 1.15.8q.55-1.6 1.65-2.05-.7 1.7.25 3.3l4.15 2.9q.2-1.65 1.35-2.9l.1 1.05q.05 1.05.5 2.05.45 1 3.4 3.3l2.85 2.55 1.1-.85h.1l-.45 1.55v.1l.1.25.2.15.2-.2h.3l.1.1.05.1v.8l.4.4.25.35.1-.1.4-.25q.4.15.2 1.15l.8 1 1.1.9 1.9 2.1h.1l.1-.6q-.75-2 .8-2.85l.5-.7q.25-.6 7.8 2.95 1.2.55 2.45 1.15 2.4 1 .2-.1l-.2-.1-2.35-1.2q-2.45-1.35-4.15-2.6-2.55-1.75-3-2.8l-.1-.5-.05-.1-.05-.1-4.35-10.15-.35-.85v.3l-.25.2L19.5-133v.2l-.25-.25q-5.55-5.3-9.45-10.2-4-4.95-4.8-8.35l-.35-.8-2.05-4.95-2-1.25H.55v-.05l-5.65-3.7 1.8 5.1-4.1-1.8 1.15 2.3 4.05 7.65-3-2.7v1.6l-5.55-2.65q-4.9-2.45-11-10.85l-3.35-7q2.35 7.1 2.35 9.2.05 2.15.8 5.1l-6.3-5.35q2.55 2.05-15.1-14.95l-2.45-2.95q-.45-.35.05.65 3.45 6.3 5.85 12-7.5-1.3-12.8 3l.75.4q-8.55-.25-17.05 4.7m43.25 87.55-.1.05-.55.1-1.6-.75 2.7 2-2.25 2.25 3.4.7q0 2.65-1.25 5.1l-1.55 2.5 2.15-1.1q.85 3.9-.15 8 1.15-.35 1.85-1.9v.05q4.65 10.5.65 22.65l.3.1q4.9-5.35 4.55-9.35-.35-3.65-.95-6.45 1.6 9.2-3.15-4.75-.7-3.1-.05-6.35 2-6.8 2.6-3.3v5.2l.1 4.6.6 4.55 1.15 3.15.75 1.95 1.55 2.9.1-.7.4-4.8q-1.3 4.8-2.65-11.25 2.6-10.35 2.95-6.4v-1.2l.05.75.05.2v.05l.1-.25v-1.45l-.1-.35-2.75.5v.05l-1.8 2.5-.5-.65-.6-1.5h-.45l-.4.75-1.55 2.1v-.15l-.5-5.1-.6-1.25-.15-.35-.25-.7-.7-1.05-.2-.25-.75-1.4h-.45m88.2.25 1.25 2.5-.7-4.7-.55 2.2m.65-10.65.8-4.1q.3 1.2.75 1.45l-.2-2.85.15-3.15.9.8-.55-1.65q-.6-1.85-.6-3.9l1.45-.55-1-1.65q.2-.2.05-1.05l-.25-1.3q-1.2 2.95-2.15 6.75v.1l-.2 1.1-.15.3-1.2 6.3 1.2 1.85.15.15.85 1.4m-91.9-111-1.05-4.65h-.05q-1.1 7-.5 14.15l.45-3.75.55-2.85.6-2.9m-13.4-25.3.85-1.2-.85 1.2m-9.75 54.45 7 .65v.15l-7-.8m-11.4 11.3q10.45-5.75 16.45-5.5l.65.05-.65-.05q-6-.25-16.45 5.5m18.4-10.65q4.1.65 8.05 2.1l.35.15.05.05 1.35.5-1.35-.5-.05-.05-.35-.15q-3.95-1.45-8.05-2.1M-24.15-67l.75-.95-.75.95m.5 10.65.55 1.95-.55-1.95m21.5-97.4-1.15-3.5 1.15 3.5m64.4 68.55v-2.2.4l.05 1.8h-.05m1.25-5.6-.05-.05.05-.05v.1m.45-5 .4.65-.4-.65" transform="translate(192.55 294)"/><path fill-rule="evenodd" fill="#966d55" d="m-38.1-241.75.1-.2-.4.1.3.1m-24.05 95.85v.1l.1-.1h-.1m40 114.3.25-.25q4-3.85 4.9-7.25.6-2.3.3-3.45l.15.2-.75-1.95-1.15-3.15-.6-4.55-.1-4.6-.15.55-.1 3.15.65 4.55.2.95q.6 2.8.95 6.45.35 4-4.55 9.35m-7.7-165.8v-.05l-.05.05h.05m-15.1 34.45-7-.65 7 .8v-.15m41.45 16.6h.05l.05-.1-.1.1M-19.7-154v-.55l-.25-2.4.25 2.95m5.6 91.2v-.05l-.05-.2-.05-.75v1.2l.1-.2m.45 2.65-.25-1.55-.05-.3.3 5.25.15.75v.05l.2-2.6-.35-1.6m-3.05 17.6-.45-1.05-.15-.7.15.7.45 1.05M.6-158.6l-.05-.55v.5l.05.05-.05-.05v.05H.6m16.15 13.3.25-.2-.65-1.5.4 1.7m3 18.05h-.1l.1.05v-.05m-2-2.1-1.1-.9.7.7.4.2" transform="translate(192.55 294)"/><path fill-rule="evenodd" fill="#575445" d="m-62.15-145.8-6.45 8.5-4.6 7.4-1.85 3.6-2.45 5.75v3.35q1.2-2.15 4.75-6.3 16.2-12.95 21.2-14.6-.3 1.75.5 1.5l-.35 2.25q10.1-7.45 15.5-8.7l11.9-.35q1.4.35 2.1.85l2.9-1.65q.35 1.45 1.7 2.4 1.6 1.05 3.45 1.4-.8-1.35-1-3.55-.05-1.35.4-2.45 5.4.35 9.75 3.15l8.15 6q1.9 1.55.55 1.95l-5.8-.3q-9-1.45 2.6.8l-2.25-.05 2 1.75q1.35 1.05 2.8 1.8l6.05.3q2.6-.1 4.65-.7l.85-.7-.4-.4v-.8l-.05-.1-.1-.1h-.3l-.2.2-.2-.15-.1-.25v-.1l.45-1.55h-.1l-1.1.85-2.85-2.55q-2.95-2.3-3.4-3.3-.45-1-.5-2.05l-.1-1.05q-1.15 1.25-1.35 2.9l-4.15-2.9q-.95-1.6-.25-3.3-1.1.45-1.65 2.05l-1.15-.8-.15-1.25-.65.6-.05.1h-.05l-1.95-1.25q-7.3-4.65-12.5-8.75-2.05-1.1-2-.6l.25 2.4v.55l.55 4 .15.7-2.4-2.15-1-1.05-.5-.7q-1.6-1.75-3.7-2.6l-.3-.1-1.85-.95-4.55-2.4-1.5-.65-.35-.25-11.1 2.4q-9.25 4.6-13.95 10.15l-.65.25-1.2 1.45-.1.1m-11.1 92.05 5.55 1.95h.25l-1.3-2.55v-.05q1.85-1.4 3.8-1.75-1.95-1.4-2.8-3.6-1.4-5.3-4.75-8.2l-.85-.5-7.85-2.75-.55-.5-2.45-.3 7.6 5.9q4.65 6.05 2.7 12.1v.05l.65.2m15.25-.2h.05l-.1-.1.05.1m17.8-17.7.5-7.05 3.55-3.55h4.8q-1.6-4.8-1.55-9.35l-.65-.35.65-1 .5-3.4 1.35-4.35q2.6-6.65 9.15-12.75l.95-.85-.95.85 12.45-.95.1.05 4.65 2.55.45 2.35-1.4 9.65q-.4 2.75.5 5.45l.8 2.3 3.85.55 1.8-.05-1.55 2.25q-1.65 2.45-2.65 5.25.3 6.6-2.4 12.7-1.1 2.35-3.15 4 4.35 1.9 8 5.8l.75.65-1.35-1.5q3.3-7.4 4.8-16.35l.15-1.2q4.2 1 8.65-.5 2.55-.9 5.15-2.55l.15-1.05q1.3-8.15-2.45-11.8l-1.8-.85-.15-.1-.85-.4h-.05l-.15.45-.7 1.75q-.75 2.35-1.05 5.05l-.05.8-.8-1.5q-.95-2.05-1.55-4.7l-.15-.7h.3l-.35-.35v-.05l-8.4-.15-.7-3q-.45-4.25 1.7-9.3l1.1-2.3-3.05-8.4h-2.9l-5.9.25-16.3-4.8-1.15-.85-.6-1-.1-.3v-.85l.25-.8.2-.4-4 4.3-1.55 2.6-3.95 5.5 9.95.3 3.9 1.6Q-34.2-110.2-36-99.5l-.5 5.7 2.95 1.85-2.95-1.85-7.3-4.6.85-23.65q-3.9 8.7-6.85 18l-2.35 7.9q.75 2.25 2.25 4.6l2.15 3q5.5 6.5 7 14.25l.55 2.65m6.6 52.25-2.55 5.7 2.1-.9-2.1 8.05-1.2-.25q-.2 2.8 2.65 2.3 1.8-.3 4.75-1.8l1.75-2.35q3.05-2.55 6.25-3.3l7.3-7 .5-2.3q-7.2 4.95-15.45 7.35-2.1-.35-3.8-1.6l-.2-3.9m9.55 23.8Q-20 7.75-12.3 7.1l.3-.15q.75-7 9.8-18.3l-.75-1.2q-1.05-1.3-.3-1.35l1.05-3.55q-5 14.4-15.95 17.2l-3.8.9q-.35 2.4-2.1 3.75M-35.5-6.4l-.65-.15.65.15m67-70.05 9.6 8.9.55 2.05q.45 2.55.1 5.15v.3l-1.4 2.1q-.55.8-.2 1.15 2.95-1.3 4.95-3.55 3.8-4.2 4-11.65 2.15-2.8 3.25-5.95.8-2.1.95-4.75l-2.25-3.15-.85.35-.15 1.4v.15H50q-.2 1.95-.9 3.3l-.75.95q-2 2.25-5.1 3.9l-5.3-.1q.1-3.95-2-4.35h-.2l-2.05.8v.15l.05.05q.75 1.15.4 1.6-.2 2.2-.95 1.85-.85-.05-1.7-.65" transform="translate(192.55 294)"/><path fill-rule="evenodd" fill="#78745b" d="M-77.5-120.55q-1.15 3.2-1.9 6.3l-.9 4.85-.05.9-.15 1.05q-.75 9 2.2 17.55 1.35 3.95 3.45 7.85l.25.35q1.9 3.4 4.45 6.7 3.15 5.85 7.6 6.4l5.9-.95 1.85 1.3 1.15.9 1.7 1.2 5.7.2q3.35-.35 5.75-2l.3-3.7-.55-2.65q-1.5-7.75-7-14.25l-2.15-3q-1.5-2.35-2.25-4.6l2.35-7.9q2.95-9.3 6.85-18l-.85 23.65 7.3 4.6.5-5.7q1.8-10.7 12.55-14.55l-3.9-1.6-9.95-.3 3.95-5.5 1.55-2.6 4-4.3-.2.4-.25.8v.85l.1.3.6 1 1.15.85 16.3 4.8 5.9-.25 1.95-.05.9-.05.05.1 3.2-.1 6.1-1.9-1.6 3.1h2.25l2.9.2 2.15.6 5.6 2.2v-.05l2.2 1.15 3.05 1.65-.15-.1.75.35h.1q0 .05.1.05l.2.1 1.9-6.25-3.6-4 7.05 6.1-1.2 4 .4-.45.95-.8.05-.1 2.95-2.05.05-.05 1.85-.95.25-.05 2.1-.7.5 2.35-.15 2.3q2.05-1.6 2.95-3.45.55-1.25.55-2.65-3.8-4.05-7.65-6.65 1.8-5.05 1.05-10.55l-1.7-8.15q-3.1-13.85-6.6-17.2l-1.2.35-.05.05h-.05q-2.7 1.1-4.75 4.75l-1.45 3.1-1.5 4.65-.9 3.8 4.35 10.15.05.1.05.1.1.5q.45 1.05 3 2.8 1.7 1.25 4.15 2.6l2.35 1.2 3.1 1.75-3.1-1.75.2.1q2.2 1.1-.2.1-1.25-.6-2.45-1.15-7.55-3.55-7.8-2.95l-.5.7q-1.55.85-.8 2.85.4 1 1.45 2.4l2.55 2.85-2.55-2.85-1.55-1.75-.1-.05-1.9-2.1-.4-.2-.7-.7-.8-1q.2-1-.2-1.15l-.4.25-.1.1-.25-.35-.85.7q-2.05.6-4.65.7l-13.7 3.95-16.5-3.35 8-4.45h5.7l7.65 1.75-2-1.75 2.25.05q-11.6-2.25-2.6-.8l5.8.3q1.35-.4-.55-1.95l-8.15-6q-4.35-2.8-9.75-3.15-.45 1.1-.4 2.45.2 2.2 1 3.55-1.85-.35-3.45-1.4-1.35-.95-1.7-2.4l-2.9 1.65q-.7-.5-2.1-.85l-11.9.35q-5.4 1.25-15.5 8.7l.35-2.25q-.8.25-.5-1.5-5 1.65-21.2 14.6-3.55 4.15-4.75 6.3v-3.35m-11.7 35.8-.05.65 1.3-3.05-.25-.05q-.3 1.25-1 2.45m57.85 2.5 2.05 4.95 3.55 5.95h.45l.75 1.4.2.25.7 1.05.25.7.15.35.6 1.25.5 5.1v.15l1.55-2.1.4-.75h.45l.6 1.5.5.65 1.8-2.5v-.05l2.75-.5.1.35v1.45l.95-1.45.25-.35.2-.4q1.95-.6 2.65-1.45l-.55 2.7q-1.05 4.45-.05 11.1l-2.7-5.95-.05.3-.2 2.6-1 11-.4 4.8 1.1 8.55.65-.05 1.5-.4q.9-3.7.85-7.9l2.15 1.9q.7-5.55-.8-11.95l4.05 4.35q-.4-.1-.8-.3 5.05 9.4 6.4 20.4.25 1.75.1 3.8-6.7 3.8-13.8 10.05L-19-7.15q-.65 0-1-.75l-.3-.85q1.85-2.95 5.65-7.75 3.85-4.75 4.1-6.1l-1.1-2.45q-9.2-1.3-21.85 5.45l-.1.2.2 3.9q1.7 1.25 3.8 1.6 8.25-2.4 15.45-7.35l-.5 2.3-7.3 7q-3.2.75-6.25 3.3l-1.75 2.35q-1.15 1.95-1.4 4.1l.75-.45q1.7-.95 3.4-1.5h.3l2.9.5 1.9.3q.45 2.25.15 4l3.8-.9Q-7.2-3.05-2.2-17.45l-1.05 3.55q-.75.05.3 1.35l.75 1.2Q-11.25-.05-12 6.95v.1q-.15 1.35.05 2.55.4 2.45 2.05 4.25L-6.6 10l.2-.1q2.85-1.7 3.85.2.9 1.5.7 5.1L-5 17.1q13.15 2.45 17.55-4.45Q17.7 14.5 22 8.75q1.45-5.35-.9-12.9L14.75-19.7q1.9-2.75 2.8-8-1.85-4.35-5.05-6.6Q9.3-50.45.3-60.9l-.75-.65q-3.65-3.9-8-5.8 2.05-1.65 3.15-4 2.7-6.1 2.4-12.7 1-2.8 2.65-5.25l1.55-2.25-1.8.05-3.85-.55-.8-2.3q-.9-2.7-.5-5.45l1.4-9.65-.45-2.35-4.65-2.55-.1-.05-12.45.95q-6.55 6.1-9.15 12.75l-1.35 4.35-.5 3.4v1.35q-.05 4.55 1.55 9.35M17.7-83l-2.25 7.85-.15.5v.05q1.6 6.85 3.85 11.4 1.3 2.6 2.75 4.45 1.65 1.95 3.45 3.15 2.45 1.45 5.3 1.5l1.5-.05 1.65-.75 3.45-1.2 1-.25 1.6-.25.05.65.45.75 1.8 1.1q1.85 1.25 4.55-.5l1.05-.85 2.6-3q4.25-5.7 5.9-13.75l-.2-1.85q-.65-4.9-2.75-8.65-.15 2.65-.95 4.75-1.1 3.15-3.25 5.95-.2 7.45-4 11.65-2 2.25-4.95 3.55-.35-.35.2-1.15l1.4-2.1v-.3q.35-2.6-.1-5.15l-.55-2.05-9.6-8.9-1.3-1.5-.2-.35q-1-4.15 1.15-10.2 1.7-4.8 5.7-7.45l.15-.1 2-1.1q2.8-.55 4.85 1.05L41-102.15l-3.15-5.6-1.45-.25-4.55-.05-20.6 5.25-10.6-6.1q-2.15 5.05-1.7 9.3l.7 3 8.4.15v.05l4.35-.35.15-.45h.05l.85.4.15.1 1.8.85q3.75 3.65 2.45 11.8L17.7-83m47.75-43.25-3-4.45-.15.3q-1.65 3.75-5.6 4.1l-9.2-13.3 2.9-.05-2-.95q-3.95.45-7.1 2.65l.1.45-.15.15q-.1.1.3 3.75.4 3.6 4.4 7.9l4.6 4.75q.45.45 6.1-.85 6-1 8.8-4.45m-21.35-20.9q-.9-6.2-9.6-12.75-2.15 5.4.75 12.15 2.35 3.15 3.75 3.4l1-.15q2.15-.4 3.7-1.45v-1.2h.4M27.85-164.3l-.15-.05-8.1-1.9-7.45-.8q-4.6-.15-6.85 1.35l3.15 4.55q1.35.9 3.1 1.3 3.4.9 8.85 1.05 3.15-4.1 7.45-5.5m-53.7 33.4h.05l-.1.1.05-.1m-1.05 1.1-.3.4-3.25 1.35q1.8-1.05 3.55-1.75m-48.3 31.85-.3 1.15.35-1.65-.05.5m11.65-12.3q-2.75 8.95 0 17.9l1.6 4.95q3.1 8.75 7.65 15.15-3.1-.9-8.45-4.25-5.3-3.35-6.25-5.5l-1.1-2.15q-3.05-6.75-3.65-14.2l-.1-.5q5.5-6.8 9.75-10.9l.55-.5m42.9.95q-1.75 5.25-2.4 10.95-.9 8.8.85 18.65l-6.6-8.3q-.45-4.95.8-9.35 1.45-5.55 5.55-10.1l1.8-1.85m12 111.95.05-.25L4.1-12.55v.85L2.6-8.05q-1.35 4.3-3.1 8Q-2.4-.2-4.15.8q-2.4 1.35-4.5 1.85M40-117.85l-1.7.2 1.7-.2m3.1 61.05-3.25.2 3.25-.2" transform="translate(192.55 294)"/><path fill-rule="evenodd" fill="#8e896c" d="m-13.8-31.6.55 4-3.7-.15-7.8 1.4q-5.95 1.2-8.15 5.6l-.1.15-.05.15-.35.7-.1.15q12.65-6.75 21.85-5.45l1.1 2.45q-.25 1.35-4.1 6.1-3.8 4.8-5.65 7.75l.3.85q.35.75 1 .75l5.5-4.55Q-6.4-17.95.3-21.75q.15-2.05-.1-3.8-1.35-11-6.4-20.4.4.2.8.3L-9.45-50q1.5 6.4.8 11.95l-2.15-1.9q.05 4.2-.85 7.9l-1.5.4-.65.05m76.25-99.1q-4.4-5.3-12.05-8.95l-2.9.05 9.2 13.3q3.95-.35 5.6-4.1l.15-.3M9.4-131l-6.05-.3q-1.45-.75-2.8-1.8l-7.65-1.75h-5.7l-8 4.45 16.5 3.35L9.4-131m-72.95 20.75-.55.5q-4.25 4.1-9.75 10.9l.1.5q.6 7.45 3.65 14.2L-69-82q.95 2.15 6.25 5.5 5.35 3.35 8.45 4.25-4.55-6.4-7.65-15.15l-1.6-4.95q-2.75-8.95 0-17.9m42.9.95-1.8 1.85q-4.1 4.55-5.55 10.1-1.25 4.4-.8 9.35l6.6 8.3q-1.75-9.85-.85-18.65.65-5.7 2.4-10.95m12 111.95q2.1-.5 4.5-1.85Q-2.4-.2-.5-.05q1.75-3.7 3.1-8l1.5-3.65v-.85L-8.6 2.4l-.05.25" transform="translate(192.55 294)"/><path fill-rule="evenodd" fill="#785252" d="m-75.2-97.95.05-.5-.35 1.65.3-1.15" transform="translate(192.55 294)"/><path fill-rule="evenodd" fill="#413f34" d="m-80.35-108.5-.65-1.35-.8-1.35-.25.75-1.25-2.15q-1.35-.8-2.95-.25l-.15.1q-4.2.75-4.5 6.55 2.65 7.75 1.7 21.45.7-1.2 1-2.45l.25.05-1.3 3.05-6.85 16.35.1 7.85 13.35 9.95 1.2-.05 1.1-.1-1.4-2.9q3.1-2.35 6.25-1.85l.55 2.8.55-.65.1-.3.15-.4.25-.55V-54q1.95-6.05-2.7-12.1l-7.6-5.9 2.45.3.55.5 7.85 2.75.85.5q3.35 2.9 4.75 8.2.85 2.2 2.8 3.6l2.45-.05.3 1.45 1.35.4v-.8l-.05-.5q-.75-5.5-4.75-10.5l-4.1-4.2-6.75-.65 6.75.65 4.1 4.2q4 5 4.75 10.5l2.45 1.8.45-.1-.05-.1-1.45-3-.05-.05h.05q3.15-2.3 6.25-1.8l.5 2.45q1.1-5.65-1.5-11.3l-.55-.5-1.85-1.3-5.9.95q-4.45-.55-7.6-6.4-2.55-3.3-4.45-6.7l-.25-.35q-2.1-3.9-3.45-7.85-2.95-8.55-2.2-17.55l.15-1.05m79.05-11.1 3.05 8.4-1.1 2.3 10.6 6.1 20.6-5.25-1.75-4.9-.4.45 1.2-4-7.05-6.1 3.6 4-1.9 6.25-.05.05.15.1-.4.1.2.4-.95 2.6-.35.7q-.55 1.2-1.1 1.5l-1.45.75-2.9.95-3.1.4-1.9-.1-3.2-.55q-1.1-.4-1.9-1.65-2.2-4.75-.9-9.1l.95-2.3H6.4l1.6-3.1-6.1 1.9-3.2.1m-87.95 35.5.05 1.85-.05-1.85m2.15-5.1-.85 2.05.85-2.05" transform="translate(192.55 294)"/><path fill-rule="evenodd" fill="#533939" d="m-81.8-111.2-.35-.4-.1-.15-1.05-.85 1.25 2.15.25-.75m20.95 56.05 1.75 1.4.65-.1-2.45-1.8.05.5M-12.3 7.1l.3-.05v-.1l-.3.15M-32.9-92.95l-.65 1 .65.35v-1.35m83.95 7.1-.85-.95v1.3l.85-.35m-15.3 5.6q-2.15-.15-2.05.8l2.05-.8m1.5 24.15v.5-.5M67.5-27.8v.05h.05l-.05-.05" transform="translate(192.55 294)"/><path fill-rule="evenodd" fill="#514f40" d="m21.9-58.75-2.75 5.05-1.05.05q-2.8 2.9-2.75 6.3l17.45 7.9-1.25.8L43.35-30l1.05 1.85 9.8-.95-1.75-3.65-2-.15q-.7.4-4-1.05-3.3-1.4-4.4-5.75l-2.45-6.25-.05-.25-1.45-5.2.35.35 1.15 1.6q4.95 2.7 10.6 0l.85-1.4.25-1.65.45-.6.5.1 5.6 3 5.5 13.65 4.5.2-.1-.1-1.55-3.1q3.15-2.3 6.35-1.75l.3 1.65.7-.55-.25-3.65 2-.2q1.05-1.7 1.45-3.85l-.05-2.5-4.75-5.15q-2.2-2.15-5.7-2.75L55.4-59q.7-3.45 2.45-9.25 1.85-5.8.3-10.9l-2.9-8.4q-1.1-2.8-.05-6.2l.5-1.3 1.3-2.7q4.45-.15 7.85-4.1.85-1.3 1.5-1.45l1.8-2.55q1.95-11.9-2.7-20.4-2.8 3.45-8.8 4.45-5.65 1.3-6.1.85l-4.6-4.75q-4-4.3-4.4-7.9-.4-3.65-.3-3.75l.15-.15-.1-.45q3.15-2.2 7.1-2.65l-.2-.05-4.5-1.7q.8-2.4.4-4.8h-.4v1.2q-1.55 1.05-3.7 1.45l-1 .15q-1.4-.25-3.75-3.4-2.9-6.75-.75-12.15-2.9-2.2-6.65-4.4-4.3 1.4-7.45 5.5-5.45-.15-8.85-1.05-1.75-.4-3.1-1.3l5.1 8.6 2.8 5.55.65 1.2.35.85.9-3.8 1.5-4.65 1.45-3.1q2.05-3.65 4.75-4.75l.1-.05 1.2-.35q3.5 3.35 6.6 17.2l1.7 8.15q.75 5.5-1.05 10.55 3.85 2.6 7.65 6.65 0 1.4-.55 2.65-.9 1.85-2.95 3.45-.15 1.4-.8 2.75L36.4-108l1.45.25 3.15 5.6 2.85 6.05 1.75 1.15 3.1 3.9q1.25 1.9 1.35 5.55l.15-1.3.85.95 2.25 3.15q2.1 3.75 2.75 8.65l.2 1.85q-1.65 8.05-5.9 13.75l-2.6 3-1.05.85-.25 2.25q-.65 2.7-2.55 3.25l-1.05-1.75-2.5-4.35-2.1-1.15-1 .25v.5-.5l-3.45 1.2q-.05 2.7-.75 4.8l-.25.55q-1.05 2.85-3.5 4.45l-.6-2.5q-1.2-4.9-3.35-8-1.8-1.2-3.45-3.15M.15-164.95q-5.85-.35-9.25 3.3l1.7 2.6 4.1 1.8-1.8-5.1 5.65 3.7v-.5l.05.55 2 1.25-2.45-7.6m43.55 22.6q-2.3-.8-4.7-2 2.4 1.2 4.7 2m-22.4 16.9q-1.05-1.4-1.45-2.4l-.1.6v.05l1.55 1.75M73.2-46.2l-2 3.05q-1.9 2.55-3.4.55l-3.45-4.05-4.95-5.25-6.2-3.6.05-.1H53l.6-.1 7.65-1.55q8.55 1.65 11.6 5.9l.35 5.15.1 2.55-.1-2.55m-37.4 4.9-3 1.85 3-1.85" transform="translate(192.55 294)"/><path fill-rule="evenodd" fill="#8a655b" d="M25.95-161.25H26l.05-.05-.1.05" transform="translate(192.55 294)"/><path fill-rule="evenodd" fill="#63614e" d="m59.6-30.65 4.35-4.1-.6-1.6L57.85-50l-5.6-3-.5-.1-.45.6-.25 1.65-.85 1.4q-5.65 2.7-10.6 0l-1.15-1.6-.35-.35 1.45 5.2.05.25 2.45 6.25q1.1 4.35 4.4 5.75 3.3 1.45 4 1.05l2 .15-.1-.05q3-2.85 6.2-2.2l1.05 4.35M76.75-47.7l.2-1.05q.35-2.95-.25-6.8v-.05l-.35-2.2q-3.3-2.95-8.95-4.15l-7.05-.9 2.1-8.25.55-2.2 1.6-6.15-1.5-2.3-.85-1.4-.15-.15-1.2-1.85 1.2-6.3.35-1.5q.95-3.8 2.15-6.75l-.25-.75.3.65q.8-2 1.7-3.5-.65.15-1.5 1.45-3.4 3.95-7.85 4.1l-1.3 2.7-.5 1.3q-1.05 3.4.05 6.2l2.9 8.4q1.55 5.1-.3 10.9-1.75 5.8-2.45 9.25l10.85.9q3.5.6 5.7 2.75l4.75 5.15.05 2.5m-16.9-13.25.5-1.9-.5 1.9m-6.6 5.35-.05.1 6.2 3.6 4.95 5.25 3.45 4.05q1.5 2 3.4-.55l2-3.05-.35-5.15q-3.05-4.25-11.6-5.9L53.6-55.7l-.6.1h.25l.35-.1-.35.1" transform="translate(192.55 294)"/><path fill-rule="evenodd" fill="#d2b991" d="m38.65-113 .15-2.3-.5-2.35-2.1.7q.7.8.7 1.95 0 .75-.35 1.35l.2.15q.35.35.3.85.05.45-.3.8-.3.35-.8.35-.45 0-.85-.35l-.25-.35-.95.2q-1.2-.05-2.1-.9l-.65-.9-.05-.05-.05.1-.95.8 1.75 4.9 4.55.05 1.45-2.25q.65-1.35.8-2.75m-28.15 7.55 3.2.55 1.9.1 3.1-.4 2.9-.95 1.45-.75q.55-.3 1.1-1.5l.35-.7.95-2.6-.2-.4-3.55-1.75-.35-.15-.05.1q-.2 1.05-.9 1.95l-.45.45v.05l-.4.35v.15q-.1.8-.65 1.45-.65.75-1.6.75h-.35q-.85 0-1.45-.6l-.4-.6-.15-.35-1.7-1.2q-1.4-1.4-1.45-3.4l.05-.4v-.15l.05-.4.55-1.4.1-.15v-.05l-1.3-.1-.85 1.75-1 3.3-.2 1.9q-.05 2.15.75 4.1l.55 1.05m11.7-5.9 2.15.75q-.25 1.2-.8 2.05-.7 1.05-1.95 1.45-1.85.7-4.2 1.05 2.8-2 3.95-3.55.75-.95.85-1.75m12.8 1 1.5-.6-.85 2.2-2.1.35 1.45-1.95" transform="translate(192.55 294)"/><path fill-rule="evenodd" fill="#caa673" d="m35.95-116.9-1.85.95-.05.05-2.95 2.05.05.05 3-2.1q.9-.45 1.8-1" transform="translate(192.55 294)"/><path fill-rule="evenodd" d="m36.2-116.95-.25.05q-.9.55-1.8 1l-3 2.1.65.9q.9.85 2.1.9l.95-.2-.05-.45q0-.5.3-.85l.85-.35.6.2q.35-.6.35-1.35 0-1.15-.7-1.95m-14.7 2.55-2.2-1.15v.05l-5.6-2.2-2.15-.6-2.9-.2-.95 2.3q-1.3 4.35.9 9.1.8 1.25 1.9 1.65l-.55-1.05q-.8-1.95-.75-4.1l.2-1.9 1-3.3.85-1.75 1.3.1v.05l-.1.15-.55 1.4-.05.4v.15l-.05.4q.05 2 1.45 3.4l1.7 1.2v-.9q0-1 .65-1.75.6-.65 1.4-.7l.3-.05 1.2.4.4.35.55 1.05.1.55v.25l.4-.35v-.05l.45-.45q.7-.9.9-1.95l.05-.1.35.15-.2-.55M50-83.95l-4.1 2.05-6.45 1-5-2.05-.75-2.55-1.1 2.25 1.1 3.8-3.3 1.25 1.1 1.75q.85.6 1.7.65.75.35.95-1.85.35-.45-.4-1.6l-.05-.05v-.15q-.1-.95 2.05-.8h.2q2.1.4 2 4.35l5.3.1q3.1-1.65 5.1-3.9l.75-.95q.7-1.35.9-3.3" transform="translate(192.55 294)"/><path fill-rule="evenodd" fill="#fefefe" d="m34.85-112.2.25.35q.4.35.85.35.5 0 .8-.35.35-.35.3-.8.05-.5-.3-.85l-.2-.15-.6-.2-.85.35q-.3.35-.3.85l.05.45m-17.75 3.45h.2q.95 0 1.6-.75.55-.65.65-1.45v-.4l-.1-.55-.55-1.05-.4-.35-1.2-.4-.3.05q-.8.05-1.4.7-.65.75-.65 1.75v.5l.2.5.45.7q.65.65 1.5.75m5.1-2.6q-.1.8-.85 1.75-1.15 1.55-3.95 3.55 2.35-.35 4.2-1.05 1.25-.4 1.95-1.45.55-.85.8-2.05l-2.15-.75m12.8 1-1.45 1.95 2.1-.35.85-2.2-1.5.6" transform="translate(192.55 294)"/><path fill-rule="evenodd" fill="#5e5142" d="M43.85-96.1Q41.8-97.7 39-97.15l-2 1.1-.1 1-.05-.9q-4 2.65-5.7 7.45Q29-82.45 30-78.3l.2.35.2-.25 3.3-1.25-1.1-3.8 1.1-2.25.75 2.55 5 2.05 6.45-1 4.1-2.05.05-.15v-1.4q-.1-3.65-1.35-5.55l-3.1-3.9-1.75-1.15m-1.7 2.6q.45-1.25 1.4-1 1 .25 1.6.65 1.8 1.3 1.9 3.1-.05 1.55-.9 2.2l-2.75-.15q-2.1-1.95-1.25-4.8" transform="translate(192.55 294)"/><path fill-rule="evenodd" fill="#462022" d="m-61.7-52.35.55-.6q.3-.55.3-1.2v-.2l-1.35-.4.5 2.4m34.8-77.45q-1.75.7-3.55 1.75l3.25-1.35.3-.4M37-96.05l-.15.1.05.9.1-1" transform="translate(192.55 294)"/><path fill-rule="evenodd" fill="#301617" d="M-31.35-2.2v1.1l.35 2.65.05-.1q.35-.8 2.55-2.9l.85-.8Q-25.8-3.6-24-3.65l-2.9-.5h-.3q-1.7.55-3.4 1.5l-.75.45m5.5-128.7-.05.1.1-.1h-.05m24.55 11.3-.05-.1-.9.05.95.05m51.5 32.8-.15 1.3v1.4l-.05.15h.05v-.15l.15-1.4v-1.3" transform="translate(192.55 294)"/><path fill-rule="evenodd" fill="#e0cd98" d="M42.15-93.5q-.85 2.85 1.25 4.8l2.75.15q.85-.65.9-2.2-.1-1.8-1.9-3.1-.6-.4-1.6-.65-.95-.25-1.4 1" transform="translate(192.55 294)"/><path fill-rule="evenodd" fill="#342e25" d="m30.2-77.95 1.3 1.5-1.1-1.75-.2.25" transform="translate(192.55 294)"/><path fill-rule="evenodd" fill="#ccc" d="m8.05-96.4.35.35h-.3l.15.7 3.45.35.7-1.75-4.35.35" transform="translate(192.55 294)"/><path fill-rule="evenodd" fill="#54240a" d="m25.55-112.35-.2-.1q-.1 0-.1-.05l.1.15q-.4-.15-.8-.4l-3.05-1.65.2.55 3.55 1.75.4-.1-.15-.1.05-.05m-.2 0 .15.05-.15-.05" transform="translate(192.55 294)"/><path fill-rule="evenodd" fill="#c9c1ab" d="m-79.9-49.5.5.5q2.1 2.3 4 2.25l.55-1.25q.5-1.4.05-3.25l-.15-.8-.55-2.8q-3.15-.5-6.25 1.85l1.4 2.9.05.15.15.1.25.35m12.45-2.3.2.45.1.15.8.85q2.1 2.3 3.95 2.25 1.2-1.75.7-4.25l-.5-2.4-.3-1.45-2.45.05q-1.95.35-3.8 1.75v.05l1.3 2.55m9.5-2.15.8.9q2.15 2.25 4 2.25 1.25-1.85.65-4.5l-.25-1.15-.5-2.45q-3.1-.5-6.25 1.8v.05l1.45 3 .1.1m66.2-41.4q.6 2.65 1.55 4.7l.8 1.5.05-.8q.3-2.7 1.05-5.05l-3.45-.35M46.7-54.6q-2.7 1.75-4.55.5l-1.8-1.1 2.5 4.35 3.6-1.5.25-2.25m-12.9-.3-1.65.75-1.5.05q-2.85-.05-5.3-1.5 2.15 3.1 3.35 8 .45-2.6 4.35-2.5.7-2.1.75-4.8" transform="translate(192.55 294)"/><path fill-rule="evenodd" fill="#fff" d="M-36.15-13.7-38.8-12q-3.05 2.35-5.35 5.55l6.8-.35 1.2.25 2.1-8.05-2.1.9M-31 1.55l-.8 1.6q-.75 1.25.85 2.65l.75.45q2.35-.1 4-.7l1.4-.65.75-.5q1.75-1.35 2.1-3.75.3-1.75-.15-4l-1.9-.3q-1.8.05-3.55 1.4l-.85.8q-2.2 2.1-2.55 2.9l-.05.1m21.1 12.3-2.5 4.4q4.2 1.2 7.4-1.15l3.15-1.9q.2-3.6-.7-5.1-1-1.9-3.85-.2l-.2.1-3.3 3.85M54.2-29.1l.95 1.25.35.35q2.25 2.45 4.05 2.25l.5-.15-.45-5.25L58.55-35q-3.2-.65-6.2 2.2l.1.05 1.75 3.65m13.65-7.05.75.85q2.15 2.3 4 2.25 1.25-1.85.65-4.5l-.4-1.9-.3-1.65q-3.2-.55-6.35 1.75l1.55 3.1.1.1m9.1-12.6q1.95 1.25 3.35 1.25.5-1.85-1.2-4.5L77-55.6h-.3v.05q.6 3.85.25 6.8m-136.45-8.3v-.05h-.05l.05.05m102.35 6.2 1.05 1.75q1.9-.55 2.55-3.25l-3.6 1.5M28.7-47.6l.6 2.5q2.45-1.6 3.5-4.45l.25-.55q-3.9-.1-4.35 2.5" transform="translate(192.55 294)"/><path fill-rule="evenodd" fill="#d2dadd" d="m-81.45-50 1.55.5-.25-.35-.15-.1-.05-.15-1.1.1m7.3-3.4.9-.35-.65-.2-.25.55m19.9-14.35.6.4-1.15-.9.55.5m94.6 12.55-.45-.75-.05-.65-1.6.25 2.1 1.15" transform="translate(192.55 294)"/><path stroke-width=".05" stroke-linejoin="round" stroke-linecap="round" stroke="#432e0c" fill="none" d="m154.15 52.15.4-.1-.1.2m-.3-.1-1.6 1q-1.15.9-2.4 2.75l-2.3 3.5-.7 2.6-9.4 33.55-5.05-3.15 1.7 14.65-3.95-2.15 6.85 13.8-8.65 1.9 6.15 3.55m-9.8 21h.4q3.1-.05 4.25 1.05.8.7.75 1.9v.1l-6.45 8.5-4.6 7.4-1.85 3.6-2.45 5.75q-1.15 3.2-1.9 6.3l-.9 4.85-.05.9-.65-1.35-.8-1.35-.35-.4-.1-.15-1.05-.85q-1.35-.8-2.95-.25l-.15.1q-4.2.75-4.5 6.55 2.65 7.75 1.7 21.45l-.05.65-6.85 16.35.1 7.85 13.35 9.95 1.2-.05m1.55.5.5.5q2.1 2.3 4 2.25l.55-1.25q.5-1.4.05-3.25l-.15-.8.55-.65.1-.3.15-.4.9-.35 5.55 1.95h.25l.2.45.1.15.8.85q2.1 2.3 3.95 2.25 1.2-1.75.7-4.25l.55-.6q.3-.55.3-1.2m0-1 1.75 1.4.65-.1.45-.1h.05l.8.9q2.15 2.25 4 2.25 1.25-1.85.65-4.5l-.25-1.15q1.1-5.65-1.5-11.3l.6.4 1.7 1.2 5.7.2q3.35-.35 5.75-2l.3-3.7.5-7.05 3.55-3.55h4.8l2.05 4.95 3.55 5.95m-2.25-.6 2.7 2-2.25 2.25 3.4.7q0 2.65-1.25 5.1l-1.55 2.5 2.15-1.1q.85 3.9-.15 8 1.15-.35 1.85-1.9v.05q4.65 10.5.65 22.65l-.25.6m6-11.45.15.2 1.55 2.9.1-.7 1.1 8.55.55 4-3.7-.15-7.8 1.4q-5.95 1.2-8.15 5.6l-.1.15-.05.15-.35.7-.1.15-.1.2-2.55 5.7-2.65 1.7q-3.05 2.35-5.35 5.55l6.8-.35q-.2 2.8 2.65 2.3 1.8-.3 4.75-1.8-1.15 1.95-1.4 4.1v1.1l.35 2.65-.8 1.6q-.75 1.25.85 2.65l.75.45q2.35-.1 4-.7l1.4-.65.75-.5q4.05 3.35 11.75 2.7l.3-.05q-.15 1.35.05 2.55.4 2.45 2.05 4.25l-2.5 4.4q4.2 1.2 7.4-1.15 13.15 2.45 17.55-4.45 5.15 1.85 9.45-3.9 1.45-5.35-.9-12.9l-6.35-15.55q1.9-2.75 2.8-8-1.85-4.35-5.05-6.6-3.2-16.15-12.2-26.6l-1.35-1.5q3.3-7.4 4.8-16.35l.15-1.2q4.2 1 8.65-.5 2.55-.9 5.15-2.55l-2.25 7.85-.15.5v.05q1.6 6.85 3.85 11.4 1.3 2.6 2.75 4.45l-2.75 5.05-1.05.05q-2.8 2.9-2.75 6.3l17.45 7.9-1.25.8 11.8 8.65 1.05 1.85 9.8-.95.95 1.25.35.35q2.25 2.45 4.05 2.25l.5-.15-.45-5.25 4.35-4.1-.6-1.6 4.5.2.75.85q2.15 2.3 4 2.25 1.25-1.85.65-4.5l-.4-1.9.7-.55-.25-3.65 2-.2q1.05-1.7 1.45-3.85l.2-1.05q1.95 1.25 3.35 1.25.5-1.85-1.2-4.5l-2.1-3.6h-.3l-.35-2.2q-3.3-2.95-8.95-4.15l-7.05-.9 2.1-8.25m1.25 2.5-.7-4.7 1.6-6.15-1.5-2.3.8-4.1q.3 1.2.75 1.45l-.2-2.85.15-3.15.9.8-.55-1.65q-.6-1.85-.6-3.9l1.45-.55-1-1.65q.2-.2.05-1.05l-.25-1.3.05-.1q.8-2 1.7-3.5l1.8-2.55q1.95-11.9-2.7-20.4l-3-4.45q-4.4-5.3-12.05-8.95l-2-.95-.2-.05-4.5-1.7q.8-2.4.4-4.8-.9-6.2-9.6-12.75-2.9-2.2-6.65-4.4l-.15-.05-8.1-1.9-7.45-.8q-4.6-.15-6.85 1.35l-1.4-1.75q-3.35-4.25-6.9-7.45l3.15 9.95q-5.85-.35-9.25 3.3-5.85-9.25-10.25-18.45l-1.45-3.35q-3.45-7.9-5.85-15.8l-2.05 6.9-.1-.4-1.05-4.65v-.05l-6.6-29.7-3.45 5.55-1.45 2.35V69.5q.2-9.6 2.5-15.55l.75-1.7m-3.25 22.5-.85 1.2m-15.95 31.1.2 1.9m14.6 8.35-2.45-2.95m-6.15 16.05 7 .65m-1.3 5.2-.65-.05q-6-.25-16.45 5.5m8.9-21.5-.8-1.5m25.85-14.55.7-2.5M162.6 107l.55-2.85M149.2 117.3l20.45 23.5m-3.7-2.6-.3-.1-1.85-.95-4.55-2.4-1.5-.65-.35-.25-1.35-.5-.05-.05-.35-.15q-3.95-1.45-8.05-2.1m25 6 .25 2.95.55 4m-2.25-1.45-1-1.05-.5-.7m1 39.75.95-.85m-.95.85q-6.55 6.1-9.15 12.75l-1.35 4.35-.5 3.4v1.35q-.05 4.55 1.55 9.35m-2.2-9.7-2.95-1.85-7.3-4.6.85-23.65M206 197.2l.15.1 1.8.85q3.75 3.65 2.45 11.8l-.15 1.05m-79.85-62.8.1-.1 1.2-1.45.65-.25q4.7-5.55 13.95-10.15l11.1-2.4M136.75 99.2l1-3.65m0 130.2-1.85-1.3-5.9.95q-4.45-.55-7.6-6.4-2.55-3.3-4.45-6.7l-.25-.35q-2.1-3.9-3.45-7.85-2.95-8.55-2.2-17.55l.15-1.05m-8.85 26.25-.05-1.85 1.3-3.05.85-2.05m22.15 33.05q-1.95.35-3.8 1.75v.05l1.3 2.55m-12.9 1.7-1.1.1m1.55.5-.25-.35-.15-.1-.05-.15-1.4-2.9q3.1-2.35 6.25-1.85l.55 2.8M116.05 223l6.75.65 4.1 4.2q4 5 4.75 10.5l.05.5m27.95-36.45-.65-.35m10.15 24-.75.95m9.65 22.05-.4 4.8m4.95-26.55-.55 2.7q-1.05 4.45-.05 11.1l-2.7-5.95-.4-1.3-.25-1.55m.4 5.75-1 11m1.25-13.9-.05.3m-9.8 4.15-.55-1.95m6.35 12.05.15.7.45 1.05m-45.5-12.2.5 2.4m-3.25-3.8 2.45-.05.3 1.45m-11.7.8.65.2M108.35 222l7.6 5.9q4.65 6.05 2.7 12.1v.05l-.25.55m19.35-14.85.55.5m-5.25 10.65q3.15-2.3 6.25-1.8l.5 2.45m-6.75-.65H133l.05.05 1.45 3m.1.1-.1-.1m28.1 47.75 1.75-2.35q3.05-2.55 6.25-3.3l7.3-7m-22.7 12.15 1.2.25.65.15m-.65-.15 2.1-8.05-2.1.9m12.15 10.05 1.9.3q.45 2.25.15 4-.35 2.4-2.1 3.75m21.85-15.75q-9.05 11.3-9.8 18.3v.1m-19-5.5.05-.1q.35-.8 2.55-2.9l.85-.8q1.75-1.35 3.55-1.4M218.6 132.7l1.2-.35q3.5 3.35 6.6 17.2l1.7 8.15q.75 5.5-1.05 10.55l-3.1-1.75-2.35-1.2q-2.45-1.35-4.15-2.6-2.55-1.75-3-2.8l-.1-.5-.05-.1-.05-.1-4.35-10.15.9-3.8 1.5-4.65 1.45-3.1q2.05-3.65 4.75-4.75m.1-.05-.1.05m-25.4 2.6-5.65-3.7 1.8 5.1-4.1-1.8-1.7-2.6m9.7 3.05-.05-.05m.05.05 2 1.25 2.05 4.95m12.35 6.6.35.85m-24.75-14.1 1.15 2.3m8.85-.6-2.45-7.6m5.15-.75 3.15 4.55 5.1 8.6 2.8 5.55.65 1.2m22 1.45q2.4 1.2 4.7 2m-12.1 14.95-.2-.1m6.9 9.85 1.7-.2M231.2 181l.15-2.3-.5-2.35-2.1.7-.25.05-1.85.95-.05.05-2.95 2.05-.05.1-.95.8-.4.45 1.2-4m-7.05-6.1-2.55-2.85m-1.65-1.8-1.9-2.1-1.1-.9m17.85 4.5q3.85 2.6 7.65 6.65 0 1.4-.55 2.65-.9 1.85-2.95 3.45-.15 1.4-.8 2.75l-1.45 2.25-4.55-.05-1.75-4.9m-10.45-14.3.1.05 1.55 1.75m3.95 12.95h-.1l-.75-.35.15.1-3.05-1.65-2.2-1.15m0 .05-5.6-2.2-2.15-.6-2.9-.2h-2.25l1.6-3.1m17.25 9.5.4-.1-.15-.1.05-.05 1.9-6.25-3.6-4m1.65 10.3-.15-.05-.1-.15m-.7-.25.6.25m.2.15q-.4-.15-.8-.4m.7.65.2.4-.95 2.6-.35.7q-.55 1.2-1.1 1.5l-1.45.75-2.9.95-3.1.4-1.9-.1-3.2-.55q-1.1-.4-1.9-1.65-2.2-4.75-.9-9.1l.95-2.3m-11.95-38.75 1.15 3.5M228.95 186l1.45.25 3.15 5.6 2.85 6.05q-2.05-1.6-4.85-1.05l-2 1.1-.15.1q-4 2.65-5.7 7.45-2.15 6.05-1.15 10.2l.2.35 1.3 1.5m21.8-6.25q2.1 3.75 2.75 8.65l.2 1.85q-1.65 8.05-5.9 13.75l-2.6 3-1.05.85q-2.7 1.75-4.55.5l-1.8-1.1-.45-.75m-.05-.65 3.25-.2m6.95-28.7q-.1-3.65-1.35-5.55l-3.1-3.9-1.75-1.15m18.25 4.65.35-1.5m-.35 1.5-1.2 6.3 1.2 1.85.15.15.85 1.4m-12.9-5.05-.15 1.3v1.4l-.05.15-4.1 2.05-6.45 1-5-2.05-.75-2.55-1.1 2.25 1.1 3.8v.15l.05.05q.75 1.15.4 1.6-.2 2.2-.95 1.85-.85-.05-1.7-.65m18.7-10.35.85.95 2.25 3.15m-3.1-2.8v-1.3m-.15 2.7v.15h-.05q-.2 1.95-.9 3.3l-.75.95q-2 2.25-5.1 3.9l-5.3-.1q.1-3.95-2-4.35h-.2q-2.15-.15-2.05.8m16.35-4.65.15-1.4m-12.95 29.4 1-.25 2.1 1.15 2.5 4.35 1.05 1.75q1.9-.55 2.55-3.25l.25-2.25m-9.45-1.5-3.45 1.2-1.65.75-1.5.05q-2.85-.05-5.3-1.5-1.8-1.2-3.45-3.15m16.35 2.4 1.6-.25m12.4 3.6 5.6 3 5.5 13.65m-30.3-13.75q.7-2.1.75-4.8m-.75 4.8-.25.55q-1.05 2.85-3.5 4.45l-.6-2.5m31.65-15.25-.5 1.9m-6.6 5.35.35-.1 7.65-1.55q8.55 1.65 11.6 5.9l.35 5.15.1 2.55M245.8 238.4h-.25l.6-.1M245 261.25l-.1-.05q3-2.85 6.2-2.2l1.05 4.35m-5.4 1.55-1.75-3.65m-19.65-6.7 3-1.85m-10.45-14.3q2.15 3.1 3.35 8m35.65-52.85.25.75q-1.2 2.95-2.15 6.75m1.9-2.2-.4-.65m13 47.05q.35-2.95-.25-6.8v-.05m-8.85 19.45-.1-.1-1.55-3.1q3.15-2.3 6.35-1.75l.3 1.65m-82.75 53.3 3.3-3.85.2-.1q2.85-1.7 3.85.2.9 1.5.7 5.1l-3.15 1.9m68-90.4-.55 2.2"/><path stroke-width=".05" stroke-linejoin="round" stroke-linecap="round" stroke="#966d55" fill="none" d="m134.8 124.15-3.35 2.55q-4.45 3.7-7.9 8.4-3.85 5.1-6.45 11.45 4.85-1.25 7.9-1.4"/></g></defs><path fill="none" d="M-1-1h364v532H-1z"/><g transform="scale(2)"><use x="98.05" y="244" xlink:href="#b" width="381" transform="translate(-192.55 -294)" height="381"/><use x="-52.014" y="-29.931" xlink:href="#c" width="102.95" transform="matrix(1.8072 0 0 1.6538 87 148.3)" height="45"/></g></svg>