<svg width="714" height="499" xmlns="http://www.w3.org/2000/svg" xmlns:xlink="http://www.w3.org/1999/xlink"><defs><use xlink:href="#a" width="418.5" height="287.8" id="d"/><use xlink:href="#b" width="102.95" height="45" id="e"/><g id="c" stroke-opacity="0" stroke-linejoin="round" stroke-linecap="round" stroke="#f0f" fill="none"><path d="M187.95-293.5v380h-380v-380h380M92.95.6H-97" transform="translate(192.55 294)"/><path d="m187.95-293.5-190 190 190 190m-380-380 190 190L-192 86.5" transform="translate(192.55 294)"/></g><g id="a"><path fill-rule="evenodd" fill="#794897" d="m519.25 69.6-.85.8q-.25.8-.05 1.5.5 2 2.1 3.2 1 .75 2.3.75l2.9-.35q1.5-.6 2.7-1.65l.8-.75h.05l7.25 2.85-8.3 5.65 3.6-4.8-16.8 8.4-9.55 3.4-1.65.8-2.85-2.9-.95 3.8q-6.35-3.75-13-6.9-9.5-4.4-19.3-7.65.2-1.1.55-2.15.45-1.35 1.4-2.65l1.15-.7.15-.2 1.1-1.55h.85l.15.3 1.55-1-1.5 1.05 1.9 3.55q24.7 1.55 14.55-6.35l-1.05-.75q-1.55-1.25-2.35-3.1l1-1.5q10.7 2.5 21.3 5.55l10.85 3.35m7.25 2.55-.15.1q-1.25 1.05-2.9 1.05l-3.05-.45-.6-.35q-.65-1.6.1-2.65 3.3 1.1 6.6 2.3m.8 27.75q4.85-2.2 11.9-7.9l1.15-.6 5.9-7.05v18.55q-2.7-.4-4.5 2.05-1.2-1.3-2.85-1.65l-1.45-.05q1.2.7 1.3 1.95.3 4.45-3.55 7.2l-1.4.2q-3.45-1.1-2.15-4.75l1.05-.5q.8-.25 1.25.25l.4.4q1.1 1.5-.9 3l1.6.2 1.5-1.1q.65-3.4-2.65-5.5-3.55-.95-5.75 1.35-1.05 1.25-1.35 2.05l-.5 1.15-.55-.5-4.95-4.1 1.15.05 5.35-4.7m-5.05-7.15 3.65-.95q.7 5.6-3.65 8.45l-1.1.85q-2.05-.45-2.35-2.35-.15-1.1.9-1.65-4 .55-3.7 3.75l-3.15-2.3 2.6-4.1 6.8-1.7m18.5 19.1.4-.95v-.15h.05q.95-3.6 3.85-5.6.65-.45 1.2.15v23.6l-5.3-5.8-7.15-7.2 3.05-1.05 1.3-.55 1.15-.85 1.25-1.25.6-.45v-.1l-.4.2" transform="translate(-127.75)"/><path fill-rule="evenodd" fill="#ff3" d="m529.15 73.1-.8.75q-1.2 1.05-2.7 1.65l-2.9.35q-1.3 0-2.3-.75-1.6-1.2-2.1-3.2-.2-.7.05-1.5l.85-.8q.65-.45 1.5-.6-.55.35-.85.85-.75 1.05-.1 2.65l.6.35 3.05.45q1.65 0 2.9-1.05l.15-.1 1.05-1.1 1.65-2.45q.4-.85 1.2-1.4.85-.6 1.9-.95l1.75-.05 1 .6.35.4q-2.55 0-3.8 2.2l-1.8 2.85-.65.85m-29.2 17.2.95-3.8 2.85 2.9 1.65-.8 9.55-3.4 16.8-8.4-3.6 4.8 8.3-5.65 7.85-5.4-.45 6.95 2.4-3.5v7.2q-3.9 5.5-7.05 10.8-7.05 5.7-11.9 7.9 4.35-4.4 4.55-9.35l-6 1.05.05.2-3.65.95-10.35 1.9-.95 6.85-1.7 2.65-9.9 11.05 6.5-1.25Q492.2 124.7 473.3 131q-4.15 2.2-7.85 2.35l-.35.1.3-.1q-2.85.05-5.35-1.05l3.05 4.1q-8.5-3.7-16.9-3.4l-1.35.45-3.75 3.3q-1.5.4 4.55-6.9l.55-.7.05-.05q2.9-5.5 5.1-7.8 2.2-2.35 3.15-2.3l3-2 2.6-2.15 7.7-6.45q-.25 7.8-6.65 15.6l29.75-20.9 6.7-3.6 1.5-5.95.85-3.25m-17.2 5.1 1.9-3 .05-.05q1.95-2.75 3.7-4 .75-.5 1.45-.75l1.1-.1q2.4.7 2.75 3.25v.55q-.55 2.45-3.35 4-3.15.75-4.05-1.4l.6-1.4 1.2-.8q-.8 1.9.55 2.05h.45l.95-.6.5-.85q-.55-2.65-3.35-1.25-.7.4-.9.9-1.5 3.6.5 5.75.55.6 1.65.3l-1 .8q-1.3.75-2.6.75-.3 2.7-3.05 4.1l-.75-.05-3.75.15q-1.65.8-1.75 2.25l1 1 .95-.4.6-.35.3-.55-.1-.8q.15-.3.5.85.2.6-.45 1.1-1.85 1.45-3.05.25-1.45-1.5.95-3.5 2.5-1.75 5.25-1.65.7.05 1-.6 1.15-2.7.35-5.1l.05-.05-.05-.05-.1-.75m45.4 10.55q2.2-2.3 5.75-1.35 3.3 2.1 2.65 5.5l-1.5 1.1-1.6-.2q2-1.5.9-3l-.4-.4q-.45-.5-1.25-.25l-1.05.5q-1.3 3.65 2.15 4.75l1.4-.2q3.85-2.75 3.55-7.2-.1-1.25-1.3-1.95l1.45.05q1.65.35 2.85 1.65 1.8-2.45 4.5-2.05v2.4q-.55-.6-1.2-.15-2.9 2-3.85 5.6h-.05v.15l-.4.95q-5 2.55-8.3 2.75-2 .15-3.35-.55-.7-.3-1.05-.95-.85-1.65-.9-3.25-.1-1.95 1-3.9m12.4 6.25-1.25 1.25-1.15.85 2.4-2.1m-29.7 10.85-1.35 1.3q-1.25 1.3-2 2.65l-1.45 1.55-2 1.15-1.75.2-.9-.5-.3-.4q2.5-.25 4.1-2.6l2.25-3.05 1.65-1.75 2.95-1.95q1.35-.65 2.95-.6 1.25-.15 2.15.55 1.4 1.05 1.6 3.05l-.25 1.55q-1.15 1.25-2.55 1.65 2-1.45 1.45-3.65-.1-.3-.55-.3l-2.95-.2q-1.65.15-3.05 1.35M370.8 61.15l.35-1.3v.6l.1 4.15-.15 5.5-.25 1.4q-.75 3.3-1.3 3.25h-.85l-1.6-.2-1.05-.65-.05-.05.05-.05q3.15-6.95 4.35-11.25l.4-1.4m8.2 8.25.3-.25-1.3 5.15-.05.1v.05l-.15.55-.15.45-.65 2.05-.9 2.45-.25.7-.25.55-.15.35-.55 1.7-.65.1-.9-.2q-1.05-.2-1.95-.85v-.05l.5-.7.65-.8 1.65-2.35 1.4-2.2q2-3.4 3.4-6.8m9.45 5.8-4.65 6.35-2.2 2.35-.15.05-1.55.05-.35-.35-.1-.15-.3-.6.1-.4q3.8-2.2 6.6-4.7l2.6-2.6M335.55 31l-.45-2.65.55-1.15-.1 3.8m4.1.45.25-.6-.1.55-.15.05M333.2 71l1.9.6 1.75 3.25v.5H336l-1.3-1-1.5-3.35m10.35 2-1.35.75q-1.05-.1-2-1.3l-.85-2.25 2.55-2.5.95 1.3q.8 1.2.75 4h-.05m2.45 30.45v-1.4l2.05.05.75.2v2l-2.8-.85m16.8 17.1 4.25 3.2v5.5h1.05l-1.05 3.95-7.15 2.7.45-5.25-2.15.45-1.2-5.7 6.95-.1-1.15-4.75m119.85-10.05.5-1.25-7.25 9q3.3-1.85 6.05-4.1 5.15-4.15 10-8.7-3.25 2.35-6.9 4.05l-2.4 1m-5.5 11.1q-2.25 2.65-5.4 4.05-5.35 2.15-11 2.75l-.95 3.15.15.05-.2.05.05-.1-5.85-2.75q9.2-3.25 18.75-5.55 2.25-.65 4.45-1.65M449 142.05l.3-.4q.85-1.1 2-1.1t1.95 1.1q.85 1.05.85 2.6v.6l-.05-.55-.75-.65h-.05l.05.3v.1l-.4-.15v1.75l-1.35-2.25-.15 1.7-.35.4-.55-.85-.9.8q-.65-.75.05-2.15l-.1.1q-.65.55-.55-.2l.25-.9 1.2-.8-1.45.55m7 4q.1-.85.6-1.5.6-.85 1.5-.85t1.5.85q.65.8.65 1.95v.15l-.7-.65-.1 1.2-.1.1q-.8.7-1.8.9l-.3-.4q-.2-.6 0-1.2l-.2.1q-.35.35-1 .4l.15-.3.65-.9-.85.15" transform="translate(-127.75)"/><path fill-rule="evenodd" fill="#5c4372" d="m487.1 60.7-1 1.5q.8 1.85 2.35 3.1l1.05.75q10.15 7.9-14.55 6.35l-1.9-3.55 1.5-1.05-1.55 1-.15-.3H472l-1.1 1.55-.15.2-1.15.7q-.95 1.3-1.4 2.65-.35 1.05-.55 2.15-20.4-6.35-39.3-5.35v.4q-2.25 3.35-5.35 6.25l-.05.15q1.35.15 3.2-1-1.95 2.45-2 5.6l.6-.2q1.55-3.85 3.6-6.85v14.2q-10.3-2.65-11.9-3.4 1.05-17.75-14.4-13.15l.8-2.4q4.75-11.7 16.75-16.95 32.8.35 63.9 6.85l3.6.8m-54.45 29.35-2.7-.7V77.8l.1.75q.4 2.65 1.35 5.4l.2.55 1.05 5.55m-304.9 49.05V96.15q37.05-23.7 85.1-23.65l9.2-7.45q.45 11.55 2 21.95.6 4 1.35 7.8l1.55 7.05q-1.4 5.35-4.2 10.4-7.55 6.65-14.1 10.2 5.15-8.45 1.95-18.95l-2-2-.45-.45.6-.6q.7-5.25-2.15-9.65l-.6-.85-2.75 4.75-1.9-2.15-2.7 1.4-7.05-.95q6.4 2.15 7.2 2.95l2.35 1.25-17.8 6 11.15-7.4q-15.15 6.8-28.15 14.75-14.8 9-21 15.65-8.95 6.25-17.6 12.9" transform="translate(-127.75)"/><path fill-rule="evenodd" fill="#b5a1c7" d="M467.65 75.75q9.8 3.25 19.3 7.65 6.65 3.15 13 6.9l-.85 3.25q-2.65-1.45-5.3-2.75l.05-1.35-.15-.9q-.25-1.3-1.6-1.95l-2.9-.15q-.6.25-1.15.65l-.85.75q-23.55-9.7-50.85-8.65 0 4.85 2.3 9.05l.3.35.65.65.8.6.75.55q4 3.1 7.2-9.6 2 8.35-3.2 16-4.45 4.9-11.2 0l-1.3-6.75-1.05-5.55-1.65-8.5v20.8l-1.6-2.4V74.75q-2.05 3-3.6 6.85l-.6.2q.05-3.15 2-5.6-1.85 1.15-3.2 1l.05-.15q3.1-2.9 5.35-6.25v-.4q18.9-1 39.3 5.35m48.35 25.1.3 1.4q.3.95 1.45 1.55l3.05.75 4.95 4.1.55.5q-.7 1.75.1 3.9l.65 1.3-.8-.75-1.4-1.3q-6.65-6.15-13.65-11.15l1.65-2.6 3.15 2.3m17.8 15.05 7.15 7.2 5.3 5.8v5.35q-5.6-6.4-11.6-12.45l-5.95-5.85.15.05 1.5.4 1.65-.15 1.8-.35m-406.05 26.7v-2.9l17.6-13.5q6.2-6.65 21-15.65 13-7.95 28.15-14.75l-11.15 7.4 17.8-6-2.35-1.25q-.8-.8-7.2-2.95l7.05.95 4.6.75 2.75-4.75.6.85q2.85 4.4 2.15 9.65l-.6.6.45.45-.1 2.45q-.1 1.75-1.2 6.05-1.15 4.3-6.3 5.85-5.2 1.45-5.35-1.1-3.7-4.7-1.7-7.95.3.05.6 1.65.3 1.55 1.9 2.6 1.55 1.05 2.35.65 5.2-2.4 2.35-10.5-12.8 3.05-29.85 10.4-17.1 7.3-34.5 22.85l-9.05 8.15" transform="translate(-127.75)"/><path fill-rule="evenodd" fill="#e9a228" d="m487.2 87.85.85-.75q.55-.4 1.15-.65l2.9.15q1.35.65 1.6 1.95l.15.9-.05 1.35-.1.5v-.55q-.35-2.55-2.75-3.25l-1.1.1q-.7.25-1.45.75-1.75 1.25-3.7 4l-.05.05-1.9 3-.2.35-.05-.05.25-.6q.25-1.35.85-2.45l.6-1q1-1.7 2.75-3.55l.25-.25m-69.15 48.95 1.85 1.9 1.85 3.1-1.85 1.3-4.25-2.8 2.4-3.5m28.2-7.7q2.15-7.65 7.95-12.85l.9.1.3.9-1.6.25-.05 1.3.75.2q-.95-.05-3.15 2.3-2.2 2.3-5.1 7.8m13.85-14.25q3.95-3.6 6.05-7.5 2.75-5.1 1.4-6.15-1.35-1.05-1.75-1.15l-1.05-.05q.75-.4 1.6-.65l1.1-.25q2.35 2.4 2.8 5.85l.1 1.15.1 1.15.05.7q.25 7.9-7 13.55l20.45-14.75 6.95-3.65-29.75 20.9q6.4-7.8 6.65-15.6l-7.7 6.45m65.8-23.05-.05-.2 6-1.05q-.2 4.95-4.55 9.35l-5.35 4.7-1.15-.05-3.05-.75q-1.15-.6-1.45-1.55l-.3-1.4q-.3-3.2 3.7-3.75-1.05.55-.9 1.65.3 1.9 2.35 2.35l1.1-.85q4.35-2.85 3.65-8.45m13.3.2q3.15-5.3 7.05-10.8v3.15l-5.9 7.05-1.15.6m-28.25 9.5.95-6.85 10.35-1.9-6.8 1.7-2.6 4.1-1.65 2.6-.25.35m29.8 10.35.4-.2v.1l-.6.45-2.4 2.1-1.3.55-3.05 1.05-1.8.35-1.65.15-1.5-.4-.15-.05-1.65-1.6-.65-1.3q-.8-2.15-.1-3.9l.5-1.15q.3-.8 1.35-2.05-1.1 1.95-1 3.9.05 1.6.9 3.25.35.65 1.05.95 1.35.7 3.35.55 3.3-.2 8.3-2.75m-34.9 2.1 7.4-1.45L478.7 133l2.15.2 15.65-5.95-19.15 12.55-16.15 2.7-1.05-1.9-.45-.8h-2.25l-.6-1.65-4.15-1.95q-3.6-.6-5.95 1.2l-1.35 2.15-.15-.1-2.05-1.4-3.4 1.45-.2.1-.45-1.1 2.95-2.45-.4.25-.6.45 3.75-3.3 1.35-.45q8.4-.3 16.9 3.4l-3.05-4.1q2.5 1.1 5.35 1.05l-.3.1.35-.1q3.7-.15 7.85-2.35 18.9-6.3 32.55-17.05M401 119.3q2.8 1.3 2.45 2.55l-2.6 3.5-2.8-2.8 2.95-3.25m-87.35-3.6q.75 2.55-3.25 5.15l-.6-3.3 3.2-3.3.65 1.45m43.35 9.7 1.2 5.7 2.15-.45-.45 5.25h-.15q-4.45-2.1-10-2.9l-4.15-.25q-.5-.65-4.65-1.55l-.15-.45 5.7.35.6-1.15-1-.55h-.15l-3.85-.95 4.55-3.6 3.4.65 6.95-.1m120.15-3.8q-2.2 1-4.45 1.65-9.55 2.3-18.75 5.55l5.85 2.75-.05.1.2-.05-.15-.05.95-3.15q5.65-.6 11-2.75 3.15-1.4 5.4-4.05m5.5-11.1 2.4-1q3.65-1.7 6.9-4.05-4.85 4.55-10 8.7-2.75 2.25-6.05 4.1l7.25-9-.5 1.25m-28.55 34.35-.35 1q-.65 2-2.45 2.1-2-.25-2.55-2.3-.55-1.9.25-3.6l1.45-.55-1.2.8-.25.9q-.1.75.55.2l.1-.1q-.7 1.4-.05 2.15l.9-.8.55.85.35-.4.15-1.7 1.35 2.25v-1.75l.4.15v-.1l-.05-.3h.05l.75.65.05.55m1.9 1.2.85-.15-.65.9-.15.3q.65-.05 1-.4l.2-.1q-.2.6 0 1.2l.3.4q1-.2 1.8-.9l.1-.1.1-1.2.7.65q-.05 1.05-.65 1.85-.6.85-1.5.85t-1.5-.85q-.65-.85-.65-2l.05-.45" transform="translate(-127.75)"/><path fill-rule="evenodd" fill="#432f51" d="M493.8 90.8q2.65 1.3 5.3 2.75l-1.5 5.95-6.7 3.6-6.95 3.65-20.45 14.75q7.25-5.65 7-13.55l-.05-.7-.1-1.15-.1-1.15q-.45-3.45-2.8-5.85l-1.1.25q-.85.25-1.6.65l1.05.05q.4.1 1.75 1.15 1.35 1.05-1.4 6.15-2.1 3.9-6.05 7.5l-2.6 2.15-3 2-.75-.2.05-1.3 1.6-.25-.3-.9-.9-.1q-5.8 5.2-7.95 12.85l-.05.05-.1-.05-4.45-2.05-4.8 3.2v2.1l-3.55-3.3h-5.5l-1.65 2-6.25 7.65-1.85-1.9-4.35-4.45q7.35-17.75 3.15-34.05.4-2.8-3.2-9.35l.25-.15.1.1 2.45-3.35q1.6.75 11.9 3.4v5.45l1.6 2.4v-7.45l2.7.7 1.3 6.75q6.75 4.9 11.2 0 5.2-7.65 3.2-16-3.2 12.7-7.2 9.6l-.75-.55-.8-.6-.65-.65-.3-.35q-2.3-4.2-2.3-9.05 27.3-1.05 50.85 8.65l-.25.25q-1.75 1.85-2.75 3.55l-.6 1q-.6 1.1-.85 2.45l-.25.6.05.05.2-.35.1.75.05.05-.05.05q.8 2.4-.35 5.1-.3.65-1 .6-2.75-.1-5.25 1.65-2.4 2-.95 3.5 1.2 1.2 3.05-.25.65-.5.45-1.1-.35-1.15-.5-.85l.1.8-.3.55-.6.35-.95.4-1-1q.1-1.45 1.75-2.25l3.75-.15.75.05q2.75-1.4 3.05-4.1 1.3 0 2.6-.75l1-.8q-1.1.3-1.65-.3-2-2.15-.5-5.75.2-.5.9-.9 2.8-1.4 3.35 1.25l-.5.85-.95.6h-.45q-1.35-.15-.55-2.05l-1.2.8-.6 1.4q.9 2.15 4.05 1.4 2.8-1.55 3.35-4l.1-.5m34.9 25.15 5.95 5.85q6 6.05 11.6 12.45v58.15l-.6-1.6q-.05-.2-.55-.2l-3-1q3.45 4.1 4.15 4.05v44.3l-11.4-.65-3.4-2.6.4-.25q.4-.25.4-1.2l-1.8-.9 4.7-4 1.8-2.4q.85-1.35.15-4.4l-12.65-1.95v9.75l6 3-1.1.9 2.1 1.45q-1.15.8-2.1 2.4l-.4.85Q503.5 242 475.3 269.5l-2.4-3.6q1.3-4.5 1.55-9.2.5-11.7-.1-21.1l1.1.05q1.55.15 1.95-1-2.55-4.2-3.9-10.2l.95-2.4-.5-2.95-.3-.25-1.55 1.1q-4.85-20.3-18.9-22.6l1.35-2.55-2.95-2.05v-.35l-.35-.05 2.3-1.4-.45-6.35-4.9 2.45-.95 4.85 4 .45-.1.05.45.35v.15q.05 2.6-1.9 2.9l-.25 1.25q-11.8 0-29.1 10.8.3-3.8-2.7-5.7-.85-.55-1.9-.95h.3l.05-.05-.65-.75-1.8-2.2q-3.55-1.8-5.9-1.35-6.85 3.3-9 8.45l-.55.55q-1.55-2.3-3.45-4.3l-.8-.85-.5-3.55-1.3-9.8-4.3-5.25.1-.15-6.2-9.75.05-.05 1.3-1.7-1.05-1.85q14.3-7.35 23.9-21.9l3.85-6.35 3.45 3.45 3.1 3.1-2.4 3.5 1.2 3.55-8 5.25-1.15.75-5.5 3.65v6.6l2.9 2.15 6.05-4.15 9.75-6.8 2.85 3.95q3.5 1.15 5.35 0v-3.95q2.65 1.7 6.15 0 3.1-1.35 3.05-3.5h6.4l1.75-2.55 1.75-2.5 1.2.05v-1.3h3.1v2.95h2.75v-2.65h2.2v3h2.3v-2.5l2.75 2.15 2.2-3.5-1.4-1.85 1.1-4-1.5-2.7 16.15-2.7 19.15-12.55-15.65 5.95-2.15-.2 34.55-20.5-7.4 1.45-6.5 1.25 9.9-11.05 1.7-2.65.25-.35q7 5 13.65 11.15l1.4 1.3.8.75 1.65 1.6m-17.85 7.1q1.4-1.2 3.05-1.35l2.95.2q.45 0 .55.3.55 2.2-1.45 3.65 1.4-.4 2.55-1.65l.25-1.55q-.2-2-1.6-3.05-.9-.7-2.15-.55-1.6-.05-2.95.6l-2.95 1.95-1.65 1.75-2.25 3.05q-1.6 2.35-4.1 2.6l.3.4.9.5 1.75-.2 2-1.15 1.45-1.55q.75-1.35 2-2.65l1.35-1.3m-80.9-45.25V76l1.65 8.5-.2-.55q-.95-2.75-1.35-5.4l-.1-.75M378 195.35v-.5l.05.45-.05.05m0-1.1.1-3.2 3.95-3.65.3-.25-3.95 3.75-.4 3.35m63.1-57.5.6-.45.4-.25-2.95 2.45v-.05l1.95-1.7m31.85 49.85q-4.4-2.3-6.8 0l2.95 5.8q3.6 4.45 3.85-4.85v-.95m10.9 15.5-.2-.95-.95 1 1.15-.05 1.75 8.8q1.9-1.45 3.35-4.2.65-1.3.55-2.65-.4-2.85-3.95-2.15l-1.7.2M472 205.05l-1-1.95q1.4 4.5 1.45 1l-.45.95m-228.3-2.8q-1.8 1.6-3.25 3.6-17.7 24.35-12.85 52.95l-2.05 2.4 2 4 1.3-.4q2.3 9.35 7 19.2l-42.05-49.4q.85-1.65 2.15-3l.4-4.8 2.4 1.2 2.8-5.2-4.4-7.2-.9 1.05-3.5 2.15q.35 1.65 1.75 3.05l1.85 1.75-.3.85-.1.75.05.4-.15.45-.7-.05-1.05-.2-7.75-6.2-4.35 1.1-3.25-3.85-8.25 3.6-2.3-4.6-10.8 8.3 1-9-15.55 15.25q-3.5 18.5-3.05 36.75l-2.4 3.95-.25.1-.4 3.2q.95 1.95 3.6 2.8h.05l.8 7.7-.45.7-1.6.4v1.8q-6.55-7.4-11.4-15.5v-18.8l1 2.1 1.05-17.6-2.05 3.15V142.6l9.05-8.15q17.4-15.55 34.5-22.85 17.05-7.35 29.85-10.4 2.85 8.1-2.35 10.5-.8.4-2.35-.65-1.6-1.05-1.9-2.6-.3-1.6-.6-1.65-2 3.25 1.7 7.95.15 2.55 5.35 1.1 5.15-1.55 6.3-5.85 1.1-4.3 1.2-6.05l.1-2.45 2 2q3.2 10.5-1.95 18.95 6.55-3.55 14.1-10.2 2.8-5.05 4.2-10.4 6.75 27.85 22.65 45.4l5.35 5.4q.3-5.55 1.85-10.7l1.5 1.45q3.8 3.7 7.35 6.35 3.1 2.3 6.05 3.8l9.4 5.15-7.65 9.75-2.2 7.8q.35.85-1.1 4.55l.5-1.15-3.8 13.45v3l.2.3.2.3q.3.45.2 2-8.35-16.2-18.75-13.85-1.05.25-2.05.75l1.3.4q-2.7.05-4.9 1.7-2.3 1.6-2.2 4.9-.15 1.9.5 4 .85 2.8 1.25 3.25l.5 1.2.6 1.2M127.75 139.7v-.6q8.65-6.65 17.6-12.9l-17.6 13.5m404.35 64.9-4.05-1q1.45 1.25 4.05 1.5v-.5m-24.05 7v-1l-1 2q.8 4.1 1-1m-20.5 5.1q-4.65.6-6.8 5.85h5.8q4.45.45 1.55-5.65l-.55-.2m13.15 15.05q-1.1 1.2-1.55 2.3l-.4-.35-2.9-1.95-.5 8.75q-1.85 1.05-4.35.5-1.05-.15-1.95 0l.45 5.35 3.9.45q.85.05.5-.95v-2.35l.15.25.35.15 5.35-.5-1-3.4q.55-1.5 1.8-2.45.65-.5 1.6-.45.15-.95-.55-1.45.7-.85 1.5-1.1l1.95-.35.5 3.4h3.9q1.95-2.55 1.7-5.85h-.25l-2.55.25 5-2.2q-4.2 1.7-7.85.65l-.45-.15-4.35 1.45M198.65 93.95l2.7-1.4 1.9 2.15-4.6-.75M186 185.6l1-1h.5q-1.05-4.45-1.5 1m-20 10-2 3q1.75-.25 1.95-2l.05-1m97.95 5.85.7-6.25 2.8 3.75-.15 1.2 5.1 4.75-2.4.1-.05-.05-1.8.05v5.15q-1.35-.7-3.85-4.85l-.25 1.15.2-1.2q.3-2.45.05-3.25l-.35-.55m-58.85-14.9-.1-.95-2 3q2.75.7 2.1-2.05m51.35-29.15q3.5 0 .15-.05l-.15.05M145 184.6q4.6 2.45 1.8.25l-.8-.25h-1m-1.05 29.8-2.8.4-1.7 2.4-2.7-2 2.4-1.6q-1.15-2.2-1.2-4.8l-6 1.6-.8 4 3.2.8q1.8 1.3.4 2.4l-.2-.05q.45 1.65 2.2 2.05l1.75-1.1-1.25 1.8q4.2-1.4 7.9-2.3l-1.2-3.6m-8.25 8.05-.55.75.4 4.4 2-5.6-1.85.45m-.95 36.35-.8 2q-.35 3.35.6 6.35l.2.05q2.45-3.3.3-7.95l-.3-.45m137.65-53.9.15.1h-1.75l1.6-.1m-68.4 1.7q3.9-1.8.85-3.75l-.85-.25v4m11.95 14.2q-1.25 4.2-3.5 8.45l-.1.35q2.2 2.95 4 6.4.45.8 1.2.8 3.75-4 6-11.2l-4.8-5.6-2.8.8m-7.2 19.2h-1.2q-.15 1.1.4 2l3.6 5.2 2 .4.45-.3.9-.8q.4-.6.25-1.3l-.1-.35q-2.1-3.4-6.3-4.85m-26-32v6.4q1.8.4 2.45-.4l.35-.4.4-3.6q-.7-1.5-2.05-1.75l-1.15-.25m-10.85.4-.35 2.8-.8 2.4.8-.4q.05 1.65 1.2 2h.8q2.05-.55 2.4-2 .35-1.5-.8-2.4l-1.5-.05.7-5.15-4.4-.4q-.55 2.9 1.95 3.2m-7.95 6-.4 1.6q1.15.95 2.4-1.6l-2-3.2v3.2m59.2 40.4q-2.2-3-.8-8-3.2.35-4 1.6l1.6 1.2-.8 5.2q3.4.95 4 0" transform="translate(-127.75)"/><path fill-rule="evenodd" fill="#b89b58" d="m413.9 88.8-.25.15-.5-1.1.75.95" transform="translate(-127.75)"/><path fill-rule="evenodd" fill="#f99229" d="m326.5 0 4 6.4 2.6-4.85 9.8 12.75 6 27.85V50l-5.6-6.75 7 14.95-2.65 12.7-2-7.15-2.3-4.3h-1.55V56.6l-1.75 1-.7-1.95-.45.85q-1.25 1.4-3.1 1.8l-1.25-1.25.3 1.95-.6-.8-.45-.15-3.1-2.9V50l-8.55-9.55 4.35 3.35V0m9.05 31 .1-3.8-.55 1.15.45 2.65-.45 11.15 4.55-10.7-.6.25-2.8 3.7-.7-4.4m4.1.45.15-.05.1-.55-.25.6" transform="translate(-127.75)"/><path fill-rule="evenodd" fill="#fbf395" d="m342.9 14.3 9.8 12.75 1.85 13.6 2.55-5V52.6l-1.25 6.65v3l-1 4.5v-2.6l-.75 3.75.7 2.9q-1.05.2-2.2 1.15l-.95-1.3.6-1.05v-7.5l-1.95-3.9-7-14.95 5.6 6.75v-7.85l-6-27.85M335.55 31l.7 4.4 2.8-3.7.6-.25-4.55 10.7.45-11.15" transform="translate(-127.75)"/><path fill-rule="evenodd" fill="#de5a0c" d="m416.35 146.9-3.1-3.1 2.4-3.5 4.25 2.8-1.8 1.25-1.75 2.55M326.5 0v43.8l-4.35-3.35L330.7 50v5.15l3.1 2.9.45.15.6.8-.3-1.95 1.25 1.25q1.85-.4 3.1-1.8l.45-.85.7 1.95-.8.45-1.75.55-1.75.55-.55 2.95-1.65-1.75h-2.4l-1.75 1.75.2 4.15-7.5-7.7-5.5-14.5 2.85-21.15 1.9 5.3L326.5 0m3.3 61.1.1-.15-.05-.4-.05.55m5.95 68.55v-8.1l3.5-3.3-.85 3.5 8.25 3.1-4.55 3.6 3.85.95h.15l1 .55-.6 1.15-5.7-.35.15.45-4.85-1 .1-.65-.45.1m59.4-3.9 2.9-3.2 2.8 2.8-2.6 3.5q-2.85-1.15-3.1-3.1M306 111.65q.35-2.2 2.25-1.25 3.15 1.1 4.75 3.85l-3.2 3.3q-1.1-3.55-3.8-5.9" transform="translate(-127.75)"/><path fill-rule="evenodd" fill="#eef9c1" d="m426.15 131.05 1.65-2h5.5l3.55 3.3 2.3 6.1v.05l.45 1.1 2.75 5.5-1.15 2.2 1.55 2.3h2.55l1.2 3.25-1.75 2.5-6.8-2.75-9.25-12.75 5.5-2.9-8.05-5.9M337.5 58.6l1.75-.55.8-.45 1.75-1v2.85h1.55l2.3 4.3 2 7.15 2.65-12.7 1.95 3.9v3.7l-2.05 1.75v-2.8l-1 4.25.3 5.75-1.05 6.15-.6 3.3-1 .35-2 .65q-.9-2.75-.35-3.85.8-1.1-1.7-7.25l-.85.1.85-.35.6-.6h.05l.15-.2V73q.05-2.8-.75-4l-.95-1.3-2.55 2.5-.4.4-.55.55-.35-1.2q.5-1.5 1.3-2.5l1.05-1.8-.4-1.8q-.8-2.15-2.5-5.25m-1.45 11.7-1.55-2.05.85.4.7 1.65m.6-2.9.75-.35.3 2.75-1.1-1 .05-1.4-.1.05.15-.2-.05.15m7.85 13.95 1.4 1.3v-3l-1.4 1.7m75.4 61.75 1.85-1.3h6.95l5.05 8.15 1.4 4-7.55.4-7.7-11.25M296.1 99.45l1.55.4 2.2 3.85v1.3l2.35 3.1-.45-6.15 3.45-2.2.8.85v11.05l-3.05 2.8.55 2.55-2.25 1.8h-.05l-1.6 1.35h-1.55l-1.2-.5-.95-.4-2.3-.95v-4.45l4.25-1.15-3.55.55 2.7-1.95-3.85-5.95 2.4 1.25-1.55-5-1.75-3.15 3.85 1" transform="translate(-127.75)"/><path fill-rule="evenodd" fill="#8c7265" d="m419.9 138.7 6.25-7.65 8.05 5.9-5.5 2.9 9.25 12.75 6.8 2.75-1.75 2.55h-6.4q.05 2.15-3.05 3.5-3.5 1.7-6.15 0v3.95q-1.85 1.15-5.35 0l-2.85-3.95-2.85-3.95-1.2-3.5-1.2-3.55 2.4-3.5 1.75-2.55 1.8-1.25 7.7 11.25 7.55-.4-1.4-4-5.05-8.15h-6.95l-1.85-3.1m-90.3-72.45-.2-4.15 1.75-1.75h2.4l1.65 1.75.55-2.95 1.75-.55q1.7 3.1 2.5 5.25l.4 1.8-1.05 1.8q-.8 1-1.3 2.5l.35 1.2.55-.55.9 2.35q1 1.2 2 1.25h.1l.85-.1q2.5 6.15 1.7 7.25-.55 1.1.35 3.85l-1.95.65-4.5-1.1-.35-1 .05-.15-.8-2.35-.05-.1-.25-.6.05-.05-.1-.1-1.2-1.7-.1.1-1.7-2.15-1.4-1.9-.4-1.2-.2-.85-1.15-3.5-.2-.4-.1-.1-.1-.1-.8-2.35m22.65-.45v3.8l-.6 1.05-.6 1.15 3.2 3.95q-.7 1.6-2.2 3.2-1.45 1.1-3.6 1.95l1.05-6.15-.3-5.75 1-4.25v2.8l2.05-1.75M333.2 71l-.6-.15 1.75 3.8 1.3 1h1.2v-.8l-1.75-3.25-1.9-.6m2.85-.7v1.55l-.95-.25.95.25V70.3l-.7-1.65-.85-.4 1.55 2.05m.6-2.9.05-.15-.15.2.1-.05-.05 1.4 1.1 1-.3-2.75-.75.35m2.3 16 .4.75.3-2.2-.8-.25-.85-.25v.05l.95 2.05v-.15m5.25-1.85h-.05l-1.65.45.35 2.2 1.35-2.65m-51.45 38.6-3.25.5-1.85-2.95 1.2-3.85h-2.65l-2.85-1.65v-5.3l-2.45-1.45v-2.5l2.55-4.5h8.8l1.75 3.15 1.55 5-2.4-1.25 3.85 5.95-2.7 1.95 3.55-.55-4.25 1.15v4.45l2.3.95-.05.9h-3.1m4.9-20.3 5.7-2.1 1.85 2-3.45 2.2.45 6.15-2.35-3.1v-1.3l-2.2-3.85" transform="translate(-127.75)"/><path fill-rule="evenodd" fill="#e6d7b7" d="m351.65 70.65.95 1.3 1.65 2.15v1.65l-3.2-3.95.6-1.15" transform="translate(-127.75)"/><path fill-rule="evenodd" fill="#161d34" d="M354.8 70.8h.75q.75 1.1.95 2.45l-.05 2q-.5 2.3-1.75 4.8-1.45 1.6-4.25 2.9l-.1 1.25-1.05.25-2.45.1 1-.35.6-3.3q2.15-.85 3.6-1.95 1.5-1.6 2.2-3.2V74.1l-1.65-2.15q1.15-.95 2.2-1.15" transform="translate(-127.75)"/><path fill-rule="evenodd" fill="#7475af" d="M355.55 70.8q.6-.05 1.2.45l-.1.85-.15 1.15q-.2-1.35-.95-2.45m-5.2 13.4.1-1.25q2.8-1.3 4.25-2.9 1.25-2.5 1.75-4.8-.05 1.9.3 3.45l.35 1.1-.9 1-1.95 1.65-1.1.65-.3.15-.1.05h.05l-2.45.9" transform="translate(-127.75)"/><path fill-rule="evenodd" fill="#102750" d="m413.25 143.8-3.45-3.45-11.55-11.5 2.6-3.5 14.8 14.95-2.4 3.5m-19.8 53.35.5 3.55 1.1 8.4 2.25-2.3q-9.7 21.55-1 8.5l2.6-3.8.1-.1 1.5-1.6 2.25-2.65.35-.4 2.55-2.5q1.6-1.55 3.15-2.65 2.95-2.15 6.65-1.2l.65.75-.05.05h-.3q1.05.4 1.9.95 3 1.9 2.7 5.7-.2 2.2-1.55 5.05-2.55 5.25-6.15 9.9-2.3 2.95-7.45 8.05l-.5.5-1.4 1.4-1.95-.45-2.4 2.95.55 1-2.8 2.6q-6.45 4.35-10 4.4l-1.95-1.1.1.85-1.55-11.05 1.85-3.4-.2-14.8q-5.55-9.8-6.9-18.4v-.05l-.05-.45-.05-.3.05-.3.4-3.35 3.95-3.75 2.5-2.35h.05q2.95 3 4.5 7.05l.15.75q.9.85.8 2.2-.05 1.3.2 2.6l.15.7.25.9q.1.6.55-.1l.15-.15q.4-.65 1.1-.95l.6-.4.1-.25m-36.7-125.9q.5-3.25 1.9-4.5 1.55-1.4 2.7-1.45 4.15 1.55 4.15 2.95v1.45l.05.15.4.25.05-.1 4.8-8.85-.4 1.4q-1.2 4.3-4.35 11.25l-.05.05.05.05 1.05.65 1.6.2h.85q.55.05 1.3-3.25l.25-1.4-.05 1.35.4.25 1.7 2.9.9-.55.95-.9 4-3.75q-1.4 3.4-3.4 6.8l-1.4 2.2-1.65 2.35-.65.8-.5.7q-.4-.1-1.1-1.3l-.3-.55-.35-1.5.05.45-1.65-4.45-1.05-.25-.55-.25-.6-.45-.05-.15-.1-.65-.35-1-.1-1.85.05-.55-2.2-.5-1.2 2.25-.7 1.7-.3.95q-.25 1.95.95 4.9 1.15 2.95 3.3 5.55 2.05 2.65 4.95 4.15 2.8 1.4 5.75 1.1l2.3-.4 2.75-.75.95-.5h.05l4.35-3.5-1.3-1.75q.4-.35 1.05-.6l1.4-.4h.1q.95.75.35 1.85-1.95 3.8-6.1 5.4l-3.15.9-2.75.55-1.75 3.9 2.45-.2 4.45-.9 2.1 3.05-2.65 5.2 15.65 18.5 3.15-2.9 1.75 2-2.95 3.25-2.9 3.2-3.55-3.55L374 99.75l-3.4-.95v.05q-.65-.6-1.25-3.7-2.5 0-5.8-1.9-.25 4.75 3.25 11.3l-.15.2q-2.9-1.9-5-4.8-.65 3.65-1.25 3.55-1.35 1.25-3.2.9l-8.4-2.4v-4.1l2.8.2-5.35-9.6-3.1 9 2.85.2v8.5l2.75 6.05-2.1 6.95v5.65l-8.25-3.1.85-3.5.8-3.45-2.3-6.95 1.2-5q-6.8-4.5-8.65-7.25l-1.5 1.45h-1.7l-14.1 17.2q-1.6-2.75-4.75-3.85l12.4-16.15-1.85-1.2-1.9-1.3q-1.5-1.05-2.7-2.7-1-1.45-1.55-3.25-.5-1.7-.25-3.6l.85-.85q.85-1 2.1-.85h.1l1 .65.35.3.6-.9.5-.65-3.7-9.45 6.4 7.35v.05-.05l.05-.05 2.3-2.65.4-.45v-.4l-.05-.15-.35-5.45v.1l2.75 4.6.7-.25 2.15-.65.35-.25.4-5.2.6.9.5.7.1.1.1.1.2.4 1.15 3.5.2.85.4 1.2 1.4 1.9 1.7 2.15.1-.1 1.2 1.7.1.1-.05.05.25.6.05.1.8 2.35-.05.15.35 1 4.5 1.1 1.95-.65 2-.65 2.45-.1 1.05-.25 2.45-.9h-.05l.1-.05.3-.15 1.1-.65 1.95-1.65.9-1-.35-1.1q-.35-1.55-.3-3.45l.05-2 .15-1.15.1-.85M381 78.3l.05.1 9.35-5.9-1.95 2.7-2.6 2.6q-2.8 2.5-6.6 4.7l-.1.4.3.6-.6-.8-.15-.25h-.05l.05.25.25.3-.25-.25-2.6-2.8.9-2.45.65-1.95.6.95 1.9 2.4.85-.6m-51.2-17.2.05-.55.05.4-.1.15m-19.4 59.75-4.95 4.05-4.25-6.1h.05l2.25-1.8-.55-2.55 3.05-2.8q2.7 2.35 3.8 5.9l.6 3.3m2.35 14.5-.05-.05 2.45.5 3.8-3.6 16.8-2.55.45-.1-.1.65 4.85 1q4.15.9 4.65 1.55l-1.75 6.4-19.25-4.55-.75.25-8.55 2.35-2.25-.1.05-.2.05-.7-.4-.85M360.8 83.3q1.05 2.8 3.8 5.6 2.65 2.9 6.25 2.4l-.45-.65q-3.75-2.1-6.4-5.05-1.55-1.6-3.2-2.3m-12 21.25 8.05 2.45v7.25L354 117.1l3.75 3.1-.75 5.2-6.95.1v-7.05l1.9-5.6-3.15-6.1v-2.2m.95 28.45q5.55.8 10 2.9h.15v12.05l5.1 4.15-2.25 2.8-10.9-13.75-4-1 1.9-7.15m28.35 58.05.15-7.6-9.65-20.05 3.15-4.5v4.95l6.6 9.15 3.7 14.4-3.95 3.65m30.95 18.35q1.4 2.4 3.55 3.65 1.7.95 3.9 1.15l.15-.1-.05-1.15-2.25-1.15q-2.6-1.5-4.4-3.55l-.2-.15-.35.45q-.2.25-.25.55l-.1.3m-1.9 7.6q-1.35-1.05-2.6-2.35l-.1-.05q-.95.2-1.6 1l-.1.15-.3.35-.2.75 1.05 1.25 1.05 1.05q2.85 2.5 6.55 2.55h.8l-.2-2.4q-2.35-.8-4.35-2.3m-11.85 1.3-.1.15.15.1-.05-.25m-129.85 9.6-3.95-4.4-2.05-3.35.2-.55 2.05-2.4.35-.55.15-3q-2.45 1.45-4.85 2.95l-1.85-.15-.5-.65-2.75-1.35-1.45-.95-1.9-2.65q-3.35-4.85-5.2-8.6l-.6-1.2-.5-1.2q-.4-.45-1.25-3.25-.65-2.1-.5-4l.2-1.25q.5-2.55 3.1-3.9 2.45-1.3 4.85-1.05h.05l.1.05q2.55 1 4.75 2.5 4.45 3.15 7.15 8.5l.45.85 1.7 3.55.75-.4.35.55q.25.8-.05 3.25l-.2 1.2.25-1.15q2.5 4.15 3.85 4.85l.1.05q.3 4.85-.1 8.6l-.1.55v.2l-.25 1.5-.1.35-.45 1.75-.15.45-.7 1.95-.95 2.35M290.8 148l7.25-7.25.15-.2.4 2.15.15.95q-1.8.95-3.15 1.8-4.25 2.4-5.15 3.1h-.05l-.15.05.15-.2.4-.4m11.95-8.2-.95-4.05h5.75l.95 2.2v.1l.05.1-5.75 1.8-.05-.15m-46.3 17.6.15-.05q3.35.05-.15.05m-11.95 40.4.1.1q4.65.4 7.45-3.1l-.1-.3-.2-.55-.3-.5-.15.15q-2.75 2.25-6.7 3.2l-.1 1m11.7 2.5-.25-.1-.1.05q-3.1 2.5-6.9 3.1l-.4 2.1.75.15q4.85.75 8.55-3l-.1-.65v-.05l-.3-.5q-.55-.75-1.25-1.1" transform="translate(-127.75)"/><path fill-rule="evenodd" fill="#0e2847" d="m383.8 81.55 1.15 1.4 1.3 1.75-4.35 3.5h-.05l-.95.5-2.75.75-2.3.4q-2.95.3-5.75-1.1-2.9-1.5-4.95-4.15-2.15-2.6-3.3-5.55-1.2-2.95-.95-4.9l.3-.95.7-1.7 1.2-2.25 2.2.5-.05.55-.45-.3-.1-.1-.25.05v.1l-.3.45-.05.15-.2.5-.3.95v.25l-.1.5-.05.6v.15l-.05.3-.1.85q-.1.3-.05.7l-.05.2q-.1.2-.05.45v.3l.05 1.15.1.3.05.15.3.9.35.75.05.15.7 1.05.1.15.55.65.15.1.25.35.35.35.05.2.7.55 1.8.85.1.05 1.7.6 2.1.6h.25l.3.05.6.05h.1l.2.05h1.55l2-.05.15-.05.45-.55.15-.4.05-.1q0-.25.15-.3v-.1l.2-.6.05-.2-.1-.35.25.25-.25-.3-.05-.25h.05l.15.25.6.8.1.15.35.35 1.55-.05.15-.05 2.2-2.35" transform="translate(-127.75)"/><path fill-rule="evenodd" fill="#105c94" d="m371.45 71.7 2.7 1.05q.4.15.85.4l-.95.9-.9.55-1.7-2.9m6.45 3.1.5.5 2.6 3-.85.6-1.9-2.4-.6-.95v-.1l.15-.45.1-.2m9.6 7.15q1.6.4 2.85 1.55l.75.7-.05.25-.2-.25-.1-.2q-3.15 4.15-6.35 5.9-3.25 1.7-5.1 2.1-1.85.35-3.25 1.2l-.2.8.7.35-2.45.2 1.75-3.9 2.75-.55 3.15-.9q4.15-1.6 6.1-5.4.6-1.1-.35-1.85m-8.8.8.1.35-.05.2-.2.6v.1q-.15.05-.15.3l-.05.1-.15.4-.45.55-.15.05-2 .05h-1.55l-.2-.05h-.1l-.6-.05-.3-.05h-.25l-2.1-.6-1.7-.6-.1-.05-1.8-.85-.7-.55-.05-.2-.35-.35-.25-.35-.15-.1-.55-.65-.1-.15-.7-1.05-.05-.15-.35-.75-.3-.9-.05-.15-.1-.3-.05-1.15v-.3q-.05-.25.05-.45l.05-.2q-.05-.4.05-.7l.1-.85.05-.3v-.15l.05-.6.1-.5v-.25l.3-.95.2-.5.05-.15.3-.45v-.1l.25-.05.1.1.45.3.1 1.85.35 1 .1.65.05.15.6.45.55.25 1.05.25 1.65 4.45-.05-.45.35 1.5.3.55q.7 1.2 1.1 1.3v.05q.9.65 1.95.85l.9.2.65-.1.55-1.7.15-.35.25-.55.25-.7 2.6 2.8m-17.9.55q1.65.7 3.2 2.3 2.65 2.95 6.4 5.05l.45.65q-3.6.5-6.25-2.4-2.75-2.8-3.8-5.6" transform="translate(-127.75)"/><path fill-rule="evenodd" fill="#666" d="M341.95 74.2h-.1q-1-.05-2-1.25l-.9-2.35.4-.4.85 2.25q.95 1.2 2 1.3l1.35-.75-.15.25-.6.6-.85.35m-5.1 1.15v.3h-1.2l-1.3-1-1.75-3.8.6.15 1.5 3.35 1.3 1h.85" transform="translate(-127.75)"/><path fill-rule="evenodd" fill="#fff" d="M343.6 73v.05l-.15.2h-.05l.15-.25h.05m-4.65 10.4-.95-1.9.85.2.8.25-.3 2.2-.4-.75m5.25-1.85-1.35 2.65-.35-2.2 1.65-.45h.05m16.95 125.35-16 14.1-11.65-17.45h.05l2.25-1.35q2.5-2.55 3.8-5.75-1.7-.45-3.05-1.8-1.95-1.95-1.95-4.6 0-2.75 1.95-4.65 1.55-1.6 3.65-1.9-1-3.7-3.3-6.25l-.35-.4 2.9-11.05 1.35.05q3.1.3 6.3 2 4.6 3.2 7.85 8.15 3.85 5.75 5.8 13.85 1.3 6.3.8 13.4l-.4 3.65" transform="translate(-127.75)"/><path fill-rule="evenodd" fill="#8cb5bd" d="m413.7 132.35 4.35 4.45-2.4 3.5-14.8-14.95 2.6-3.5 10.25 10.5m-31.95 39.85 6.2 9.75-.1.15 4.3 5.25 1.3 9.8-.1.25-.6.4q-.7.3-1.1.95l-.15.15q-.45.7-.55.1l-.25-.9-.15-.7q-.25-1.3-.2-2.6.1-1.35-.8-2.2l-.15-.75q-1.55-4.05-4.5-7.05h-.05l-2.5 2.35-.3.25-3.7-14.4 1.35 1.85 2.05-2.65m1.35-75.7 16.15 20.8-3.15 2.9-15.65-18.5 2.65-5.2m-54.3.55-15.15 18.65-.65-1.45 14.1-17.2h1.7m20 4.95 8.4 2.4q1.85.35 3.2-.9.6.1 1.25-3.55 2.1 2.9 5 4.8l-2.95 3.3.55-.55-2.6 8.3 1.15 4.75 1.15 4.75-6.95.1.75-5.2-3.75-3.1 2.85-2.85V107l-8.05-2.45V102m18.25 31.2 2.95 12.4-5 6.5-5.1-4.15V135.9l7.15-2.7" transform="translate(-127.75)"/><path fill-rule="evenodd" fill="#f1fac5" d="m344.5 81.35 1.4-1.7v3l-1.4-1.3" transform="translate(-127.75)"/><path fill-rule="evenodd" fill="#e6b232" d="M346.65 124.85v-5.65l2.1-6.95-2.75-6.05v-2.75l2.8.85v2.45l3.15 6.1-1.9 5.6v7.05l-3.4-.65m-.65-22.8V97.7l-2.85-.2 3.1-9 5.35 9.6-2.8-.2v4.4l-.75-.2-2.05-.05m-.4 30.7 4.15.25-1.9 7.15-4-1 1.75-6.4" transform="translate(-127.75)"/><path fill-rule="evenodd" fill="#505" d="m382.05 168.6 1.05 1.85-1.3 1.7-.05.05-2.05 2.65-1.35-1.85-6.6-9.15v-3.2l6.3-6.75 1.45-.65-.6 1.75v8.4l3.15 5.2m-4.1-94.15-.05.35-.1.2.15-.55m-72.5 50.45 7.3 10.45.4.85-.05.7-4.55 1.15-.05-.1-.95-2.2h-.6l-8-11.6-1.3-1.9-.8-2.6 1.2.5h1.55l1.6-1.35 4.25 6.1m72.2-49.45v.1L377 77.5l.65-2.05m-85.4 23-1.65-9.95 5.5-11.2 10.8 7-4 5.95-4.6-4.15-3.3 3.3 1.1 10.05-3.85-1" transform="translate(-127.75)"/><path fill-rule="evenodd" fill="#885715" d="m367.6 103.35-.5-6.4 1.2-.4 1.95 2.85-2.65 3.95" transform="translate(-127.75)"/><path fill-rule="evenodd" fill="#600" d="M366.8 104.55q-3.5-6.55-3.25-11.3 3.3 1.9 5.8 1.9.6 3.1 1.25 3.7l-.35.55-1.95-2.85-1.2.4.5 6.4-.8 1.2" transform="translate(-127.75)"/><path fill-rule="evenodd" fill="#d3e2ed" d="M391.05 84.45q-.7 4.9-5.4 7.15L381 93.45l-4.45.9-.7-.35.2-.8q1.4-.85 3.25-1.2 1.85-.4 5.1-2.1 3.2-1.75 6.35-5.9l.1.2.2.25" transform="translate(-127.75)"/><path fill-rule="evenodd" fill="#fbf" d="m378.2 140.65 4.65 2.25-3.35 10.35-1.45.65-7.95 3.6 8.1-16.85" transform="translate(-127.75)"/><path fill-rule="evenodd" fill="#909" d="m370 145.6 1.05-1.35-1 1.45 5.1-6.5 3.05 1.45-8.1 16.85 7.95-3.6-6.3 6.75v-1.75l-3.15 4.5-1.35-2.85-4.5-5.65 2.25-2.8 5-6.5m-71.95-4.85-5.3-20.6h3.1l.05-.9.95.4.8 2.6 1.3 1.9-.9-1.3 4.15 12.9h-.4l.95 4.05-4.15 2.9-.4-2.15-.15.2m-12.5-42.3-3.1-9.3-15.85-3.5V78.8l18.05 2.2 4.2 17.45h-3.3" transform="translate(-127.75)"/><path fill-rule="evenodd" fill="#eee9a8" d="m323.85 134.85.75-.25 19.25 4.55 4 1 4 1 10.9 13.75 4.5 5.65 1.35 2.85 9.65 20.05-.15 7.6-.1 3.2-.05.3.05.3v.5l-.15 5.7-4.25 13.25-2.7 8.35-.55 1.75-4.5 4.3-.35-.4.05-.1-.05.05-8.7-10.65-21 13.6 5.45-6.8 3.9-3.4 16-14.1 1.7-1.45.45-3.1q1.15-8.95-.45-16.7-1.35-5.65-3.6-10.15-3.8-7.55-10.05-11.9-3.2-1.65-6.3-1.95l1.45-7.1-10.1 9.05-1.05 3.65-1.85 6.1-1.3 4-5.05 14.9-10.2-9.3V160.1l9.05-25.25m-24.75 52-3.95-14.1 4.5-15.2-.55 15.75v13.55m-6.7 14.9q-6-13.45-3.75-25.35l3.4 14.95.35 10.4m7.6 34.1h-1.5l-1.95-1.45-1.3-4.6v-.05l-4.6-2.55h5.25l3.5-4.6 2.1-.65-2.6 4.35-.85.25-.15 2.65.25.05.05.05.9 5.2.9 1.35m6.05-13.05v11.6l4.7 2.95h-4.3L303 235.4l1.55-13.35 1.5.75" transform="translate(-127.75)"/><path fill-rule="evenodd" fill="#dadada" d="m331.35 173.35 1.85-6.1q3.05-1.5 6.25-1.45l-2.9 11.05q-2.1-2.15-5.2-3.5m34.5 55.35 4.5-4.3.55-1.75q-.25 10 5.55 20.3l1.4 2-.3.25-.6.9-.2.4q-.6.9-1.6 1.05l-.7-.1q-1.85-.95-4.55-1.75l-1.9-.65-1.3-.6-4.45-2.4-.6-3.55-7.2 7.5 8.8 20.25q-8.2-3.15-14.85-8.55v-.25l-.05-3.85q0-2.95.8-5.65l.15-.35q.4-1.25 1.2-2.15l.9-.95 3.85-3.9 1.3-1.2 2.65-2.5 1.85-1.45q.6 2.7 2.3 4.75v-.2q-.25-5.6 1.65-10.5l.85-.8m-32.35-25.15L345.15 221l-10.95-1.05q-4.55-.85-8.55-2.45l-2.95-2.5q-3.95-3.55-5.75-6.65l3-5.5q6.55 4.2 13.55.7m4.9 47.45v3.9q-6.45 0-11 6.35t-4.55 15.35q-6.85-4-12.15-12.95 5.4-10.5 9.1-11.1l2.75-.35 1.95.4 7.4-2.95 2.6.1q1.3.25 2.5.75l1.25.45.15.05m-43.75 15.7-5.8 5.25-5.3-7.05-4-18.15 3.6-5.1.4-.05.75.05 2 .2.25.1q3.15 2.1 5.05 5.5l1.95 2.8q.75.9.85 2l.05.25.1 9.75.1 4.45m-12.55-65.05q-.9 3-.75 5.7.1 1.75.65 3.35l.55 1.3q1 1.45 4.6 2.75-2.1-1.55-2.4-2.95-.3-1.45 1.55-1.05 1.85.4 2.75 1.5.9 1.1 1 2.3 1.6-.65 2.7-2.1l1.9-3.4 2.75 1.65 5.1 4.9-1.45 1.3-1.45 1.3q-4.75 3.25-10.2 3.15-2.95.3-5.8-2.75-4.15-3.8-5.15-9.35l-.2-1.35q-.65-4.75-.25-8.65l4.1 2.4" transform="translate(-127.75)"/><path fill-rule="evenodd" d="m325 192.25 5.05-14.9 1.3-4q3.1 1.35 5.2 3.5l-6.8 19.85 3.8 6.85h-.05q-7 3.5-13.55-.7l5.05-10.6m8.2-25 1.05-3.65 10.1-9.05-1.45 7.1q3.1.3 6.3 1.95 6.25 4.35 10.05 11.9 2.25 4.5 3.6 10.15 1.6 7.75.45 16.7l-.45 3.1-1.7 1.45.4-3.65q.5-7.1-.8-13.4-1.95-8.1-5.8-13.85-3.25-4.95-7.85-8.15-3.2-1.7-6.3-2l-1.35-.05q-3.2-.05-6.25 1.45M345.15 221l-3.9 3.4q-5.55-.05-11.15-1.5l-6-2.05-2.95-2.45-3.45 1.35h-3.55v-6.25l1.05-2.1 1.75-3.05q1.8 3.1 5.75 6.65l2.95 2.5q4 1.6 8.55 2.45l10.95 1.05m-50.5-11.95-1.9 3.4q-1.1 1.45-2.7 2.1-.1-1.2-1-2.3-.9-1.1-2.75-1.5-1.85-.4-1.55 1.05.3 1.4 2.4 2.95-3.6-1.3-4.6-2.75l-.55-1.3q-.55-1.6-.65-3.35-.15-2.7.75-5.7l12.55 7.4m-16.65-9.8q-.4 3.9.25 8.65l.2 1.35q1 5.55 5.15 9.35 2.85 3.05 5.8 2.75 5.45.1 10.2-3.15l1.45-1.3.4.45-1.05 1.75-.65 1.1q-5.25 3.3-11.25 3.2-3.15.3-6.35-2.75-4.55-3.8-5.65-9.35l-.45-2.9q-.6-5.6.45-10.05l1.5.9m22 36.6-.9-1.35-.9-5.2-.05-.05-.25-.05.15-2.65.85-.25 2.6-4.35v13.9H300m-.05-5.95-1.75-.6 1.75.6m-2.05-.7 1-2.9-1 2.9m8.15-6.4 1.5.8 3.2 13.75-4.7-2.95v-11.6" transform="translate(-127.75)"/><path fill-rule="evenodd" fill="#999" d="m336.55 176.85.35.4q2.3 2.55 3.3 6.25-2.1.3-3.65 1.9-1.95 1.9-1.95 4.65 0 2.65 1.95 4.6 1.35 1.35 3.05 1.8-1.3 3.2-3.8 5.75l-2.25 1.35-3.8-6.85 6.8-19.85" transform="translate(-127.75)"/><path fill-rule="evenodd" fill="#9c1f9c" d="M436.85 132.35v-2.1l4.8-3.2 4.45 2.05.1.05-.55.7q-6.05 7.3-4.55 6.9l-1.95 1.7-2.3-6.1m24.35 10.15 1.5 2.7-1.1 4 1.4 1.85-2.2 3.5-2.75-2.15v2.5h-2.3v-3h-2.2v2.65h-2.75v-2.95h-3.1v1.3l-1.2-.05-1.2-3.25h-2.55l-1.55-2.3 1.15-2.2-2.75-5.5.2-.1 3.4-1.45 2.05 1.4q.45 1.1 1.25 2l.05.05q1.8-1.6 4.1-2.9l4.35.75.15.1q1 .6 1.25 1.9v.5l.35-.15q1.2-.25 2.25-1.1h1.15l1.05 1.9m-51.75 25.7-6.05 4.15-2.9-2.15v-2.55l.65.55h1.1q1.4-.15 2.75-.85l.1-.25q1.5-3.2.9-7.15l1.15-.75 2.3 9m44.65-23.35v-.6q0-1.55-.85-2.6-.8-1.1-1.95-1.1t-2 1.1l-.3.4q-.8 1.7-.25 3.6.55 2.05 2.55 2.3 1.8-.1 2.45-2.1l.35-1m6.15 1.8v-.15q0-1.15-.65-1.95-.6-.85-1.5-.85t-1.5.85q-.5.65-.6 1.5l-.05.45q0 1.15.65 2 .6.85 1.5.85t1.5-.85q.6-.8.65-1.85" transform="translate(-127.75)"/><path fill-rule="evenodd" fill="#ec9dec" d="M400.5 167.65v-4.05l5.5-3.65q.6 3.95-.9 7.15l-.1.25q-1.35.7-2.75.85h-1.1l-.65-.55m44.75-28.2.15.1 1.35-2.15q2.35-1.8 5.95-1.2l4.15 1.95.6 1.65h2.25l.45.8H459q-1.05.85-2.25 1.1l-.35.15v-.5q-.25-1.3-1.25-1.9l-.15-.1-4.35-.75q-2.3 1.3-4.1 2.9l-.05-.05q-.8-.9-1.25-2" transform="translate(-127.75)"/><path fill-rule="evenodd" fill="#6d156d" d="m419.2 161.4-9.75 6.8-2.3-9 8-5.25 1.2 3.5 2.85 3.95" transform="translate(-127.75)"/><path fill-rule="evenodd" fill="#395e5e" d="M407.15 217q2 1.5 4.35 2.3l.2 2.4h-.8q-3.7-.05-6.55-2.55l-1.05-1.05-1.05-1.25.2-.75.3-.35.1-.15q.65-.8 1.6-1l.1.05q1.25 1.3 2.6 2.35m1.9-7.6.1-.3q.05-.3.25-.55l.35-.45.2.15q1.8 2.05 4.4 3.55l2.25 1.15.05 1.15-.15.1q-2.2-.2-3.9-1.15-2.15-1.25-3.55-3.65M244.5 197.8l.1-1q3.95-.95 6.7-3.2l.15-.15.3.5.2.55.1.3q-2.8 3.5-7.45 3.1l-.1-.1m11.7 2.5q.7.35 1.25 1.1l.3.5v.05l.1.65q-3.7 3.75-8.55 3l-.75-.15.4-2.1q3.8-.6 6.9-3.1l.1-.05.25.1" transform="translate(-127.75)"/><path fill-rule="evenodd" fill="#72a5ab" d="m398.2 205.85.55-.55q2.15-5.15 9-8.45 2.35-.45 5.9 1.35l1.8 2.2q-3.7-.95-6.65 1.2-1.55 1.1-3.15 2.65l-2.55 2.5-.35.4-2.25 2.65-1.5 1.6-.1.1-2.6 3.8q-8.7 13.05 1-8.5l.9-.95m-138.75 14.3-2-3.25-1.8.05-.2-.2q-.5.7-1.55.2-.85-.35-3.1-3.45l1.45.95 2.75 1.35.5.65 1.85.15q2.4-1.5 4.85-2.95l-.15 3-.35.55-2.05 2.4-.2.55m-18.6-27.55q-.1-3.3 2.2-4.9 2.2-1.65 4.9-1.7l-1.3-.4q1-.5 2.05-.75 10.4-2.35 18.75 13.85l.4.8-.4-.55-2.8-3.75-.7 6.25-.75.4-1.7-3.55-.45-.85q-2.7-5.35-7.15-8.5-2.2-1.5-4.75-2.5l-.1-.05H249q-2.4-.25-4.85 1.05-2.6 1.35-3.1 3.9l-.2 1.25" transform="translate(-127.75)"/><path fill-rule="evenodd" fill="#f0efa6" d="m370.9 222.65 2.7-8.35.3.55.45.75.25.8q.6 4 1.75 7.6l1.15 3.9 1.1 3.75.75 2.8q.95 3.35.1 6.75l-.05.3-.1.5q-.1.95-.55 1.75l-.9 1.2-1.4-2q-5.8-10.3-5.55-20.3m-8.65 19.4q1.9 12.05 1 24.2l-8.8-20.25 7.2-7.5.6 3.55M338.4 254.9v9.15l-15.2 12.75-.35-.2q0-9 4.55-15.35t11-6.35" transform="translate(-127.75)"/><path fill-rule="evenodd" fill="#c97d47" d="m323.85 134.85-9.05 25.25v22.85l10.2 9.3-5.05 10.6-3 5.5-1.75 3.05-1.05 2.1v6.25h3.55l3.45-1.35 2.95 2.45 6 2.05q5.6 1.45 11.15 1.5l-5.45 6.8 21-13.6 8.7 10.65v.05l.35.4-.85.8-3.65 3.5h-.05l-.55.5-8.45 8.1-4.6 1.8-15.8 6.25-7.4 2.95-1.95-.4-7.85-1.55-14.85-2.9-.25-.2-15.6-11.3-.75-.85-9.95-10.7.1-.05-1-1-3.6-3.85-.65-.7v-.3q.4-3.75.1-8.6l-.1-.05V205l1.8-.05.05.05 2.4-.1-5.1-4.75.15-1.2.4.55-.4-.8q.1-1.55-.2-2l-.2-.3-.2-.3v-3l3.8-13.45-.5 1.15q1.45-3.7 1.1-4.55l2.2-7.8 7.65-9.75 6.85-8.75 2.85-1.95-.4.4-.15.2.15-.05h.05q.9-.7 5.15-3.1 1.35-.85 3.15-1.8l-.15-.95 4.15-2.9.05.15 5.75-1.8-.05-.1h.05l4.55-1.15-.05.2 2.25.1 8.55-2.35m6.4 103.2 5.55-6.85-5.55 6.85M297.15 146q-.85-.2-1.55-.55.7.35 1.55.55m1.95 40.85V173.3l.55-15.75-4.5 15.2 3.95 14.1m-6.7 14.9-.35-10.4-3.4-14.95q-2.25 11.9 3.75 25.35V190.5v15.4l5 4.8-5-4.8v-4.15m8.85-4.5 6.15 9.55 6.75 6.7-1.05 2.1 1.05-2.1-6.75-6.7-6.15-9.55m-19.15 4.4-4.1-2.4-1.5-.9q-1.05 4.45-.45 10.05l.45 2.9q1.1 5.55 5.65 9.35 3.2 3.05 6.35 2.75 6 .1 11.25-3.2l.65-1.1 3.2.05.55-3.55h-1.65l-5.1-4.9-2.75-1.65-12.55-7.4m-10-5.9 4.4 2.6-4.4-2.6m29.4 26.2-2.1.65-3.5 4.6h-5.25l4.6 2.55v.05l1.3 4.6 1.95 1.45h3v-13.9m9.25 15.4-3.2-13.75-1.5-.8-1.5-.75L303 235.4l3.45 1.95h4.3M272.4 204.9l-1.6.1h1.75l-.15-.1" transform="translate(-127.75)"/><path fill-rule="evenodd" fill="#c95010" d="m365.5 228.25.05-.05-.05.1v-.05m-22.75 24.15-1.45-1.65-2.9-3.65v3.9l-.15-.05-1.25-.45q-1.2-.5-2.5-.75l-2.6-.1 15.8-6.25q-2.15 2.25-3.75 4.8-1.2 1.9-1.2 4.2m-35.95 3.4-4.3 3.8q0-6.7-2.9-12.05l.25.2 14.85 2.9-1.15.4q-4.4 1.75-6.75 4.7v.05m54.25-20.35-.3-1.85v-.1l.55-.5h.05l3.65-3.5q-1.9 4.9-1.65 10.5v.2q-1.7-2.05-2.3-4.75" transform="translate(-127.75)"/><path fill-rule="evenodd" fill="#ccc" d="M348.4 257.7q-3-2.45-5.65-5.3 0-2.3 1.2-4.2 1.6-2.55 3.75-4.8l4.6-1.8 8.45-8.1v.1l.3 1.85-1.85 1.45-2.65 2.5-1.3 1.2-3.85 3.9-.9.95q-.8.9-1.2 2.15l-.15.35q-.8 2.7-.8 5.65l.05 3.85v.25m-37.7 5.95-4.1-7.65.2-.2v-.05q2.35-2.95 6.75-4.7l1.15-.4 7.85 1.55-2.75.35q-3.7.6-9.1 11.1m-8.2-4.05-7.85 7.1-.1-4.45-.1-9.75-.05-.25q-.1-1.1-.85-2l-1.95-2.8q-1.9-3.4-5.05-5.5l-.25-.1-2-.2-.75-.05-.4.05-3.6 5.1-.65-2.95-.4.6q.6-4.45.8-9.3l3.95.3.75.85 15.6 11.3q2.9 5.35 2.9 12.05m-36.3-8.35h-3.8V237.6l3.05-9.7.95-2.35.9.2 3 3 1 1.5.25 5.75q-2.95 7.4-5.35 15.25m1.95-32.15.65.7-.75-.25v-.2l.1-.25" transform="translate(-127.75)"/><path fill-rule="evenodd" fill="#733925" d="M302.5 215.6h1.65l-.55 3.55-3.2-.05 1.05-1.75h1.2l-.15-1.75" transform="translate(-127.75)"/><path fill-rule="evenodd" fill="#cba682" d="m301.05 216.9 1.45-1.3.15 1.75h-1.2l-.4-.45" transform="translate(-127.75)"/><path fill-rule="evenodd" fill="#a2400d" d="m268.8 219.8 3.6 3.85 1 1-.1.05 9.95 10.7-3.95-.3-.75 2.9-.2 4.3-2.15-11.9q-1.9-3.35-3.95-5.1l-.3-.25-.3.05.75 1.4-1.8-2.4q-.7-.4-1.4-.6-1-.35-1.95-.35l.45-1.75.3.25-.2-.6.25-1.5.75.25" transform="translate(-127.75)"/><path fill-rule="evenodd" fill="#b9b9b9" d="m278.5 244.4-4.65 6.85h-7.65q2.4-7.85 5.35-15.25l-.25-5.75-1-1.5-3-3-.9-.2.7-1.95.15-.45q.95 0 1.95.35.7.2 1.4.6l1.8 2.4-.75-1.4.3-.05.3.25q2.05 1.75 3.95 5.1l2.15 11.9.2-4.3.75-2.9q-.2 4.85-.8 9.3" transform="translate(-127.75)"/><path stroke-width=".1" stroke-opacity=".302" stroke-linejoin="round" stroke-linecap="round" stroke="#000" fill="none" d="M214.2 74.2h-.1q-1-.05-2-1.25l-.9-2.35-.55.55-.35-1.2m-1.2 5.4v.3h-1.2l-1.3-1-1.75-3.8.6.15 1.9.6.95.25V70.3m7.35 2.95-.6.6-.85.35m1.65-1.2v.05m-.2.2.15-.25h.05m-4.25-2.8-.4.4m.5 95.2q-3.2-.05-6.25 1.45m6.25-1.45 1.35.05q3.1.3 6.3 2 4.6 3.2 7.85 8.15 3.85 5.75 5.8 13.85 1.3 6.3.8 13.4l-.4 3.65m-16 14.1-10.95-1.05q-4.55-.85-8.55-2.45l-2.95-2.5q-3.95-3.55-5.75-6.65l-1.75 3.05-1.05 2.1v6.25h3.55l3.45-1.35 2.95 2.45 6 2.05q5.6 1.45 11.15 1.5m-5.45 6.8-5.55 6.85m-37.85-36.3V190.5m27.55 12.35-3 5.5m-3.85 7.25 1.05-2.1-6.75-6.7-6.15-9.55m-3.85 13.45-5-4.8v-4.15m-10.3-.1-4.1-2.4m24.5 16.35-5.1-4.9-2.75-1.65-12.55-7.4m20.4 13.95h1.65l-.55 3.55-3.2-.05-.65 1.1q-5.25 3.3-11.25 3.2-3.15.3-6.35-2.75-4.55-3.8-5.65-9.35l-.45-2.9q-.6-5.6.45-10.05l-4.4-2.6m26.1 33.55-.05-.05-.25-.05m.15-2.65.85-.25-1 2.9m2.5-10.1 1.05-1.75h1.2m-4.45 11.95 1.75.6m10.8 7.45-3.2-13.75-1.5-.8m-29.55-24.45 1.5.9m41.95 3.6 5.05-10.6"/><path stroke-width=".1" stroke-opacity=".502" stroke-linejoin="round" stroke-linecap="round" stroke="#0b1f37" fill="none" d="m298.4 131.05 1.65-2h5.5l3.55 3.3m9.65 20.5-1.75 2.5-6.8-2.75-9.25-12.75 5.5-2.9-8.05-5.9M255.35 96.5l16.15 20.8m4.2 4.55 10.25 10.5M215.85 73q.05-2.8-.75-4l-.95-1.3-2.55 2.5m-4.25 1.4 1.75 3.25v.5M221.05 102l8.4 2.4q1.85.35 3.2-.9.6.1 1.25-3.55 2.1 2.9 5 4.8l-2.95 3.3.55-.55-2.6 8.3 1.15 4.75 1.15 4.75-6.95.1m10.05 7.8 2.95 12.4m-21.2-41.3v.25l8.05 2.45v7.25l-2.85 2.85 3.75 3.1-.75 5.2m-8.2-21.1v-2m0-.3v.3m-4.95 36.85-19.25-4.55-.75.25-9.05 25.25v22.85l10.2 9.3 5.05-14.9 1.3-4 1.85-6.1 1.05-3.65 10.1-9.05-1.45 7.1q3.1.3 6.3 1.95 6.25 4.35 10.05 11.9 2.25 4.5 3.6 10.15 1.6 7.75.45 16.7l-.45 3.1-1.7 1.45-16 14.1-3.9 3.4-5.45 6.8 21-13.6 8.7 10.65.05-.05-.05.1.35.4 4.5-4.3.55-1.75 2.7-8.35 4.25-13.25.15-5.7v-.5l-.05-.3.05-.3.1-3.2.15-7.6-9.65-20.05-1.35-2.85-4.5-5.65-10.9-13.75-4-1-4-1m95.3-.65.45 1.1 2.75 5.5-1.15 2.2 1.55 2.3h2.55l1.2 3.25m2.5-10.8.3-.4q.85-1.1 2-1.1t1.95 1.1q.85 1.05.85 2.6v.6M294 141.8l-1.85 1.3 7.7 11.25 7.55-.4-1.4-4-5.05-8.15H294m17.4-3.3v-.05l-2.3-6.1m-131.65-32.6-3.45 2.2.45 6.15-2.35-3.1v-1.3l-2.2-3.85m-5.4-1.4 1.75 3.15 1.55 5-2.4-1.25 3.85 5.95-2.7 1.95 3.55-.55-4.25 1.15v4.45l2.3.95"/><path stroke-width=".1" stroke-linejoin="round" stroke-linecap="round" stroke="#e9a228" fill="none" d="M167.85 145.45q.7.35 1.55.55"/><path stroke-width=".1" stroke-opacity=".502" stroke-linejoin="round" stroke-linecap="round" stroke="#0b1f37" fill="none" d="M224.5 65.8q-.8.95-1.3.9-.5-.05-.65-.45-.1-.35-.3-.1l-.45 1-.35 1.9-.05 2.15.25 2.05m-11.9-14.65.95 1.95.95 1.6.75 1.8q.3 1-.25 2l-.85 1.65-.35 1.4q-.05.7-.65.95m3.9 4.25q1.1.4 1.2.95l.35 1.65.75 2.1q.55 1.05.35 1.9-.2.85-.15 1.75l.15 1.5.25 1.15m4.55-11.55.2 2.05-.45 1.9-.4 1.35-.3 1.95"/></g><path fill-rule="evenodd" fill-opacity="0" fill="#f0f" d="M0 0h102.95v45H0V0" id="b"/></defs><path fill="none" d="M-1-1h716v501H-1z"/><g transform="scale(2)"><use x="192.098" y="241" xlink:href="#c" width="381" transform="translate(-192.55 -294)" height="381"/><use y="-61.068" xlink:href="#d" width="418.5" transform="matrix(.8532 0 0 .8597 0 53.3)" height="287.8"/><use y="-31.745" xlink:href="#e" width="102.95" transform="matrix(1.8072 0 0 1.6538 87.048 87.2)" height="45"/></g></svg>