<svg width="220" height="349" xmlns="http://www.w3.org/2000/svg" xmlns:xlink="http://www.w3.org/1999/xlink"><defs><g id="b" stroke-opacity="0" stroke-linejoin="round" stroke-linecap="round" stroke="#f0f" fill="none"><path d="M187.95-293.5v380h-380v-380h380M92.95.6H-97" transform="translate(192.55 294)"/><path d="m187.95-293.5-190 190 190 190m-380-380 190 190L-192 86.5" transform="translate(192.55 294)"/></g><g id="c"><path stroke-width="4" stroke-linejoin="round" stroke-linecap="round" stroke="#383710" fill="none" d="M216.9 102.45q-13.55 3.05-20.5 6.7l-28.6-.6-5.85-3.95q-4.85-3.15-8.6-5l-2.7-1.2-.05 10.9q-1.15 4.9-4.75 11.55v.05l2.05 4.95 2.6-1.45q6.2 6.8 11.8 7.9.1.45.6.8 3.05 12.3 3 19.7-.05 2.95-.55 5.1l-21.6 18.2q-4.95 9.3-1.35 14.5l19.9 27.6-8.4-3.95.8.75q10.1 9.75 19.55 26.5l4.4 3.2-.5 2.6h.05q2.7 9.55-.25 20.35-.5 26.15 2.1 30.25 2.6 4.1 4.65 7.95 2 3.8 6.25 7.75 1.25 3.6 1.75 3.95l1.2 2.1 9.75 1.8 7.8 5 1.3 13.75-10.6 4h-10.9l-18.45 5.55-11.5-7.4-2.45-16.15q4.3-1.6 6.45-2.1.2-7.55 3.9-15.55 1.6-26.95-11.5-41.8-3.6-4.85-3.75-20.55l.6.05q-9.15-16.05-17.9-24-5.15-4.65-10.15-6.5l-.25-.05.15 2.9-1.25-3.3-.4-.1-.25-.05.7 22.1-9.85-8.75-21.9 4.95 2.6-3.65-5.5-.5-.45.35q-7 5.35-7.85 8.3 1.35.4 2.05 2.15.7 1.7 2.45 6.7 1.7 5 0 13.05 4.8 14.45 12.5 29.05l11.85 8.85q-5.65 13.1-9.2 14.9l-8.2 1q-25.9-4.75-27-1.1l-3 9.75-19.1 4.55q-4.05-6.7-5.8-12.6l-.8-3.35h-4l-.65-3.05L32 302.8l1.7-2.55.1-.2q-.9-5.1.8-9.8l5.7-.45 1.85-2.25 16.35 1.7 10.35 6 1.75.9q2.25 1 15.1-5.45-2-15.2-7.9-24.95-5.95-9.8-9.2-11.65-6.45-8.85-7.3-13.65-3.05-2.65-2.6-3.05l2.3-8.8 3.9-1.8q10.95-10.65 24.6-22.3l9.1-7.6.45-.35.85-1.8 3.25-2.8-.5-.4.1-.2q-10.1-8.2-13.15-9.15l-1.85.35-10.4-3.5q-1.65-1.25-2.2-1.35l-5.4-1.05q-.75-.7-.3-1.5l-2.75-.95-3-.95q.65-4.9 3-9.55l-4.2-1.45-14.3 3.95 2.1-4.65-2.2.4-.35-2.2-13.15 2.3-.05-5.2 2.15-.95-17.55 4.75 1.8-1.9L2.05 165l-.05.05.05-.1q5.35-23 7-46.65l.05-.3 28.85-3.1 1.55 5.4 1.4-5.3 19.15-1.9-.9-2.05q4.3-2.45 8.9-4.5l1.25-.55q-1.55-8.25 1.3-16.85l.9-2.4 1-2.35q.3 6.3 1.65 10.45l.6 1.7.1.2Q76.8 94 78.6 92.9q-1.2-.45-2-2.65-.6-1.25.1-4.5l2.55.1h.25q1.35-1.65.85-3.85l-.05-.05q-3.3.35-5.6-.75-.95-2.6.2-7.05l6.5-2.4.05-.15.85-3.55q2.45-9.55 6.6-16.7l5.65-2.8.5-.25q-3.75-7.9-3.2-13.25 6.65-6.35 9.95-16.9l.35-1.2.35-1.3L93.75 2l17.4 6.8 2.1 26.4 2.65 4.8 6.4-1.4 6.5 1.25.8.2 7.35 1.95q7.6 2.35 12.5 5.6 3.15 7.05 5.2 13.5l1.5-.5 55 19.85q4.8 5.5 6.7 12.4l.8 2.45-1.75 7.15"/><path stroke-width="4" stroke-opacity=".6" stroke-linejoin="round" stroke-linecap="round" stroke="#000" fill="none" d="m85.9 154.4-4-.1q-1.5.45-2.2 2.9l-4.15-4.05 1.45-12.8v-.4l-6.35-.25.4-2.8-4.5-1.2h-.35l-.15.15 3.55-4.65 1.55 3.25v.05q5.45 5.9 11.1 4.7l9.8-1.85 15.1 1.6.5.05-.4 2.15q-.55 3.55.35 6.1l.2.5-.9 1.65 2.4 3.4 1.35 2.05v.05l1.6 6.6-.1.05.85 7.75-2.05-4.35-10.15 1.3-1.5 2.7-6.95-3.15v-.1l-.15-.4-.1-.4-.15-.35q-1.5-3.9-3.5-5.25-.75-2.75-2.1-4.75v-.05l-.45-.1"/><path fill-rule="evenodd" fill="#d4d0c8" d="m-11.15-7.45 1.35-2.4 10.15-1.3L1.8-8.1l.5 4.05Q-5.2-4.4-6.55-5l-.1-.2-4.5-2.25 4.5 2.25.1.2.2.55q.95 2.55.55 5.1-1.95 1.55-4.2 1.8l-.9.05-.25-.15-4.3-2.1 4.3-7.7m4.7 15.25-5.25-.15-5.85-3.7 2.1-3.7 4.3 2.1q.75 1.3 4.7 5.45" transform="translate(110 175.6)"/><path fill-rule="evenodd" fill="#b7aea2" d="M-6.55-5q1.35.6 8.85.95L1.8-8.1l1.8 3.8L.3 8.05l-6.75-.25q-3.95-4.15-4.7-5.45l.25.15.9-.05q2.25-.25 4.2-1.8.4-2.55-.55-5.1l-.2-.55m3.7 11.65q.9-5.6 5.15-10.7-4.25 5.1-5.15 10.7" transform="translate(110 175.6)"/><path stroke-opacity=".6" stroke-linejoin="round" stroke-linecap="round" stroke="#000" fill="none" d="m-11.15-7.45 4.5 2.25.1.2m8.85.95L1.8-8.1M-11.15 2.35l.25.15.9-.05q2.25-.25 4.2-1.8.4-2.55-.55-5.1l-.2-.55m-4.6 7.35-4.3-2.1M2.3-4.05q-4.25 5.1-5.15 10.7" transform="translate(110 175.6)"/><path fill-rule="evenodd" fill="#84572b" d="m-7.95-5.6 1 .45q1.3 3.45.55 5.8-2.4 1.65-4.45 1.45l-13.3-6.25L-21.6-10q5.9 1.3 14.15 5.65l-.5-1.25" transform="translate(110 175.6)"/><path fill-rule="evenodd" fill="#ad8636" d="m-21.6-10 .65-1.5 13 5.9.5 1.25Q-15.7-8.7-21.6-10" transform="translate(110 175.6)"/><path fill-rule="evenodd" fill="#585701" d="m38.4-36 1.5-15.7q6.2 6.8 11.8 7.9.1.45.6.8l-2.15-.1q-8.1 3.65-11.75 7.1m15.1 18.9L33.15 0Q28.2 9.3 31.8 14.5l19.9 27.6-7.55-3.55-10.6-5.05-3.95 2.4-6.8-16.7L34.75-9.9l3.3 3.45q6.8-3.95 15.45-10.65m-9.35 55.65q-5.55-4.75-9.4-10.15-3.7-5.25-5.75-11.1 2.05 5.85 5.75 11.1 3.85 5.4 9.4 10.15" transform="translate(110 175.6)"/><path fill-rule="evenodd" fill="#3d3d3d" d="M52.3-43q3.05 12.3 3 19.7-.05 2.95-.55 5.1l-1.25 1.1q-8.65 6.7-15.45 10.65l-3.3-3.45 1.55-3.7L38.4-36q3.65-3.45 11.75-7.1l2.15.1" transform="translate(110 175.6)"/><path stroke-opacity=".6" stroke-linejoin="round" stroke-linecap="round" stroke="#000" fill="none" d="M29 17.3q2.05 5.85 5.75 11.1 3.85 5.4 9.4 10.15" transform="translate(110 175.6)"/><path fill-rule="evenodd" fill="#d4d0c8" d="m80.05 144.55-3.2-2.15-2.5 1 4.7 5.15q-1.7 3-9.7 3.95l-2-5.15-7.45.4-5.2.25 5.2-.25q5.65 4.4 7.15 13.8-1.75 8.55-4.1 11.9l-.75.2-11.5-7.4-2.45-16.15q4.3-1.6 6.45-2.1.25-8.2 4.55-16.9 3-2.05 5.65-2.4l.15 1.85q9.25 5.6 15 12v2m-10.6.7 4.9-1.85-4.9 1.85" transform="translate(110 175.6)"/><path fill-rule="evenodd" fill="#b7aea2" d="m74.35 143.4 2.5-1 3.2 2.15v-2q-5.75-6.4-15-12l-.15-1.85q4.25-.55 7.55 3.4 4.65 4.7 7.9 5.4 1.25 3.6 1.75 3.95l1.2 2.1 9.75 1.8 7.8 5 1.3 13.75-10.6 4h-10.9l-4.6 1.4-13.1 3.95q2.35-3.35 4.1-11.9-1.5-9.4-7.15-13.8l7.45-.4 2 5.15q8-.95 9.7-3.95l-4.7-5.15m15.75 24.7 1.7-15.75-11.75-7.8 11.75 7.8-1.7 15.75m-14.05 1.4-6.7-17 6.7 17" transform="translate(110 175.6)"/><path stroke-opacity=".6" stroke-linejoin="round" stroke-linecap="round" stroke="#000" fill="none" d="m74.35 143.4 2.5-1 3.2 2.15 11.75 7.8-1.7 15.75M54.7 148l5.2-.25 7.45-.4 2 5.15 6.7 17m-1.7-26.1-4.9 1.85" transform="translate(110 175.6)"/><path fill-rule="evenodd" fill="#b7aea2" d="m59.65 70.85 7.95.35q2.7 9.55-.25 20.35-.5 26.15 2.1 30.25 2.6 4.1 4.65 7.95 2 3.8 6.25 7.75-3.55.15-10.3-3.95l-5-3q.45-24.25-4-47-1.65-6.65-7-9l5.6-3.7" transform="translate(110 175.6)"/><path fill-rule="evenodd" fill="#d4d0c8" d="m59.65 70.85-5.6 3.7q5.35 2.35 7 9 4.45 22.75 4 47l5 3q-5.25 3-11.45-1.05 1.6-27-11.5-41.85-3.6-4.85-3.75-20.55l16.3.75" transform="translate(110 175.6)"/><path fill-rule="evenodd" fill="#b7aea2" d="M26.05 46.15q-5.15-4.65-10.15-6.5l-1.75-.55-2.85-.55L21.7 20q5.2-1.7 6.5-4.55l.6 2.25q1.65 5.25 5.6 10.7 2.55 3.55 6.1 7.2l3.6 3.3q10.1 9.75 19.55 26.5l4.4 3.2-1.85 10.15-11.9-3.9-.25-.3 6-4-7-6q-3.9-12.65-27-31-2.45 5.7 0 12.6m-12.2-8.6.3 1.55-.3-1.55M28.8 17.7q-5.9 5.1-10 10.7-1.7 2.35-3.1 4.85l.2 6.4-.2-6.4q1.4-2.5 3.1-4.85 4.1-5.6 10-10.7" transform="translate(110 175.6)"/><path fill-rule="evenodd" fill="#d4d0c8" d="m54.3 74.85-9.45-3.1q-9.6-17.3-18.8-25.6-2.45-6.9 0-12.6 23.1 18.35 27 31l7 6-6 4 .25.3" transform="translate(110 175.6)"/><path stroke-opacity=".6" stroke-linejoin="round" stroke-linecap="round" stroke="#000" fill="none" d="m15.9 39.65-.2-6.4q1.4-2.5 3.1-4.85 4.1-5.6 10-10.7M14.15 39.1l-.3-1.55" transform="translate(110 175.6)"/><path fill-rule="evenodd" fill="#d4d0c8" d="m-12 20.8 11.65-9.45L.9 25.1l-21.15 14.15 1.15-2.55q-2.45 1.5-6.95 3.45 5.9-5.55 9.95-11.75 2.35-3.7 4.1-7.6-1.75 3.9-4.1 7.6-4.05 6.2-9.95 11.75 4.5-1.95 6.95-3.45l-1.15 2.55q-10.05 13.55-19.7 16.3l1.4 4.3-3.4 2.7 7 9q12.05 24.85 15 43l6 4q-3 4-19 8l-8.8-7.4 1.75.9q2.25 1 15.1-5.45-2-15.2-7.9-24.95-5.95-9.8-9.2-11.65-6.45-8.85-7.3-13.65-3.05-2.65-2.6-3.05l2.3-8.8 3.9-1.8q10.95-10.65 24.6-22.3l9.1-7.6m-52.05 129.5-1.95.45q-4.05-6.7-5.8-12.6l.5-2.8 2.8-11.25 11.25-2.1 2.15 3.5 6.05 7.05h-5.9v4l-2.2-3.15q-7.65 9.4-6.9 16.9m-12.5-15.5h-.05l-.65-3.05-1.35-5.05 1.7-2.55.1-.2q-.9-5.1.8-9.8l5.7-.45 1.85-2.25 12.75 1.35 6.75 6.75q-5.1-3.15-17-3-7.85 10.55-10.6 18.25m5.95-19.85-4.85 8.05 4.85-8.05" transform="translate(110 175.6)"/><path fill-rule="evenodd" fill="#b7aea2" d="M-20.25 39.25.9 25.1l1.3 13.8q-15.05 8.75-22.7 14.65-7 5.35-7.85 8.3 1.35.4 2.05 2.15l2.45 6.7q1.7 5 0 13.05 4.8 14.45 12.5 29.05L.5 121.65q-5.65 13.1-9.2 14.9l-8.2 1q-25.9-4.75-27-1.1l-3 9.75-17.15 4.1q-.75-7.5 6.9-16.9l2.2 3.15v-4h5.9l-6.05-7.05-2.15-3.5-11.25 2.1-2.8 11.25-.5 2.8-.8-3.35h-3.95q2.75-7.7 10.6-18.25 11.9-.15 17 3l-6.75-6.75 3.6.35 10.35 6 8.8 7.4q16-4 19-8l-6-4q-2.95-18.15-15-43l-7-9 3.4-2.7-1.4-4.3q9.65-2.75 19.7-16.3-1.45 2.85-3.85 6.65-3.6 5.55-4.85 6.7l8.45.95-8.45-.95q1.25-1.15 4.85-6.7 2.4-3.8 3.85-6.65" transform="translate(110 175.6)"/><path stroke-opacity=".6" stroke-linejoin="round" stroke-linecap="round" stroke="#000" fill="none" d="M-12 20.8q-1.75 3.9-4.1 7.6-4.05 6.2-9.95 11.75 4.5-1.95 6.95-3.45l-1.15 2.55q-1.45 2.85-3.85 6.65-3.6 5.55-4.85 6.7l8.45.95m-50.8 81.8 2.8-11.25 11.25-2.1 2.15 3.5m-20.35-2.5 4.85-8.05" transform="translate(110 175.6)"/><path fill-rule="evenodd" fill="#d4d0c8" d="M1.45-36.9-3-28.85l4.45-8.05m-3.1 10.5q-.9-1.1-1.35-2.45-.9-2.55-.35-6.1l.6-3 .8-.6q3.2-2.3 8.75-3.6L9.85-31.8l-11.5 5.4" transform="translate(110 175.6)"/><path stroke-opacity=".6" stroke-linejoin="round" stroke-linecap="round" stroke="#000" fill="none" d="m-3-28.85 4.45-8.05" transform="translate(110 175.6)"/><path fill-rule="evenodd" fill="#b4b401" d="M2.95-16.15q-1.1-2.5-4.25-7.15l-2.4-3.4 7.85-14.45 5.7-3.45-2.3 6.25-1.35 4.3q-1.55 5.4-2.4 10.75-.6 3.6-.85 7.15" transform="translate(110 175.6)"/><path fill-rule="evenodd" fill="#d4d0c8" d="m38.5-47.4-6.35 13.95-17.1 14.55L7.2-9.4 4.5-24.65q-.2-2.85 1.05-9.2v-.2q.25-2.6 2.2-4.3.75-.75 1.85-1.3L3.65-56.9l24.4-15.55 9.25 22.2 1.2 2.85M6.95-36.5l1.3 3.65q9.15-7.45 29.05-17.4-19.9 9.95-29.05 17.4l-1.3-3.65" transform="translate(110 175.6)"/><path stroke-opacity=".6" stroke-linejoin="round" stroke-linecap="round" stroke="#000" fill="none" d="M37.3-50.25Q17.4-40.3 8.25-32.85l-1.3-3.65" transform="translate(110 175.6)"/><path fill-rule="evenodd" fill="#747401" d="m12-22.65 5.65-4.4L32.55-22 34.7-3.15q-10.35 14.5-4.45 19.1-6.35 4.8-11.85 12.45l-3.1 4.7.5 9.4-1.95-5 .75 23.65-9.85-8.75-6.85 1.55Q8 47.9 10.6 28.4l.15-1.45-3.7-9.4Q17.6 4.75 19.35-7.3L12-22.65M-1.6 8.9h.05-.05q-1.85-.1-.45-4.4l.45-1.25.4-.95q7.05 4.5 15.75 1.75l-7 9-9.15-4.1V8.9" transform="translate(110 175.6)"/><path fill-rule="evenodd" fill="#b4b401" d="M12-22.65 19.35-7.3Q17.6 4.75 7.05 17.55l3.7 9.4-.15 1.45Q8 47.9-2.1 53.95l-15.05 3.4 2.6-3.65-13.85-1.3q4.85-5.6 9.55-16.05l-6.8 3.45q5.05-4.1 9.7-11.4 2.65-4.3 5.25-9.75 4.95-3.75 9.1-9.7V8.9v.05l9.15 4.1 7-9Q5.85 6.8-1.2 2.3.2-.9 2.7-4L1.55-14.55 12-22.65M3.95-3.85l.3.85-.8-.7q-1.55.9-2.4 3.3 2.7-2.5 4.35-1.55L9.15.85Q10.75.5 11.7-3.7q-.45.2-1.7-1.1l-3 .6-2.05.25-1 .1m6.45-1.7Q7.55-5.5 2.7-4q4.85-1.5 7.7-1.55M5.6-7.9q-1 .3-2.55 1.75Q4.6-7.6 5.6-7.9m-6.65 42.5q-2 2.95-5.9 5.7 3.9-2.75 5.9-5.7m4.1 1.95q-6.2 5.45-15.5 8.5 9.3-3.05 15.5-8.5" transform="translate(110 175.6)"/><path fill-rule="evenodd" fill="#c8c702" d="m3.95-3.85 1-.1L7-4.2l3-.6q1.25 1.3 1.7 1.1Q10.75.5 9.15.85L5.4-1.95Q3.75-2.9 1.05-.4q.85-2.4 2.4-3.3l.8.7-.3-.85" transform="translate(110 175.6)"/><path stroke-width=".5" stroke-opacity=".6" stroke-linejoin="round" stroke-linecap="round" stroke="#000" fill="none" d="M112.7 171.6q4.85-1.5 7.7-1.55m-22.85 50.6q9.3-3.05 15.5-8.5"/><path stroke-width=".25" stroke-opacity=".6" stroke-linejoin="round" stroke-linecap="round" stroke="#000" fill="none" d="M113.05 169.45q1.55-1.45 2.55-1.75m-12.55 48.2q3.9-2.75 5.9-5.7"/><path fill-rule="evenodd" fill="#d4d0c8" d="m-24.25-21.55-.45-.05q-3.95-.15-6.65 9.15l-8.5-2.65Q-44.1-8.3-43.9-1.9l-3-.95q.7-5.15 3.25-10.1L-40.6-18l3.05-.45 6.45.45q.6-3.3 2.4-3.8l4 .1.45.1v.05m16.3 37Q.4 20.9 6.2 27.2q1.75-1.3 3.05-3.8l1.2-.4 1.3-2.15q.5-.85 4.35-5.1l20.85-22.3q7.2-5.5 15.1-10.85l.1-5.9q-.35-13.55-6.05-14l-1.55-2.25q-15.7 7.6-20.75 16.25l-1 1.95 2.4 7.7 2.7-3.85.05-.1-.15.15-.05.05-1.1 1.6q-1.35-3.3-.6-6.65l.6-.85q4.4-6.05 14.4-12.15 4.35 3.1 5.9 12.15l.1.85q-4.15 6.95-13 12-2.15-2.8-24 26 .25-3.5-2.45-6.95l-1.8 2Q-.7 5-9.9 4.6q-2.85-1.15-4.45-3.35.15-2.7-.85-4.9-1.7-1.6-3.05-3.85l-.2-3.25-.05-.45.1.4.15.4q.3 1.7.25 2.5-.05.8 2.95 3.95 1.05 1.6 1.1 5.1l1 1.2 1.75 1.35 1.6.6Q-1 4.8 5.7 10h.05Q15.2-.5 23.15-11q-3.05-2-6.35-5.5l10.75-14.75L41-44.9l5.3 7.2q5.8 1 6.15 14.4l-.1 6.05-.2.15-2 1.3-13 9.55-23.9 25.45-2.65 4-1.05.5-.05.1q-1.4 2.3-2.85 3.4l-.55.4-2.55-2.7q-6.5-5.6-11.5-9.45m33.15-29.1Q17.25-2.5 7.6 8.6q9.65-11.1 17.6-22.25" transform="translate(110 175.6)"/><path fill-rule="evenodd" fill="#b7aea2" d="M-43.9-1.9q-.2-6.4 4.05-13.2l8.5 2.65q2.7-9.3 6.65-9.15l.45.05q1.35 2 2.1 4.75 2 1.35 3.5 5.25l.15.35.05.45.2 3.25q1.35 2.25 3.05 3.85 1 2.2.85 4.9 1.6 2.2 4.45 3.35 9.2.4 15.7 6l1.8-2q2.7 3.45 2.45 6.95 21.85-28.8 24-26 8.85-5.05 13-12l-.1-.85q-1.55-9.05-5.9-12.15-10 6.1-14.4 12.15l-.6.85q-.75 3.35.6 6.65l1.25-1.7-2.7 3.85-2.4-7.7 1-1.95q5.05-8.65 20.75-16.25l1.55 2.25q5.7.45 6.05 14l-.1 5.9q-7.9 5.35-15.1 10.85L16.1 15.75q-3.85 4.25-4.35 5.1L10.45 23l-1.2.4q-1.3 2.5-3.05 3.8Q.4 20.9-7.95 15.45l.1-.2Q-17.95 7.05-21 6.1l-1.85.35-10.4-3.5q-1.65-1.25-2.2-1.35l-5.4-1.05q-.75-.7-.3-1.5l-2.75-.95" transform="translate(110 175.6)"/><path stroke-opacity=".6" stroke-linejoin="round" stroke-linecap="round" stroke="#000" fill="none" d="M-7.95 15.45Q.4 20.9 6.2 27.2q1.75-1.3 3.05-3.8l1.2-.4 1.3-2.15q.5-.85 4.35-5.1l20.85-22.3q7.2-5.5 15.1-10.85l.1-5.9q-.35-13.55-6.05-14l-1.55-2.25q-15.7 7.6-20.75 16.25l-1 1.95 2.4 7.7 2.7-3.85M7.6 8.6l-1.8 2Q-.7 5-9.9 4.6q-2.85-1.15-4.45-3.35.15-2.7-.85-4.9-1.7-1.6-3.05-3.85l-.2-3.25-.05-.45M7.6 8.6q9.65-11.1 17.6-22.25" transform="translate(110 175.6)"/><path fill-rule="evenodd" fill="#585701" d="m26.5-44.2 7.65-4.3 5.75-3.2 7.85 9.7Q33.7-34.4 27.3-28q7.3-9.25-.8-16.2" transform="translate(110 175.6)"/><path fill-rule="evenodd" fill="#747401" d="M26.5-44.2q8.1 6.95.8 16.2-2.5 2.4-3.85 4.7l-.95 1.95 2.3 8.05-4.6 6.1 2.1-4.4-3.45-2.75q1.85-.7 3.3-9.55-1.4-6.25-11.85-10.5 4.55-3.15 16.2-9.8" transform="translate(110 175.6)"/><path fill-rule="evenodd" fill="#b4b401" d="m20.2-7.2-.1.15-18.05-6-2-8.15.45-2.1 1.35-6.45q.2-1 2.05-4.35l2.35-4.1 1.05-1.75q-.5.8-.6 1.7l-.05.9q0 1.05 1 3.25l.6 1.25 2.05-1.55q10.45 4.25 11.85 10.5-1.45 8.85-3.3 9.55l3.45 2.75-2.1 4.4" transform="translate(110 175.6)"/><path fill-rule="evenodd" fill="#b7aea2" d="m-8.1-160.45-8.75-13.65 17.4 6.8.7 9.05q-.2 10.3-1.2 21.25l3.2-2.8 4.05 7.35-14.2 5.1.5-10.35 1.05-14.4-2.1-6.05-.65-2.3" transform="translate(110 175.6)"/><path fill-rule="evenodd" fill="#968878" d="m1.25-158.25 1.4 17.35.6 1.1-3.2 2.8q1-10.95 1.2-21.25" transform="translate(110 175.6)"/><path fill-rule="evenodd" fill="#897241" d="m-6.9-127.35-7.15 2.5-.55-1.05q-4.75-9.15-4.15-15.15 6.65-6.35 9.95-16.9l.35-1.2.35-1.3.65 2.3L-5.7-152l-.7 14.3-.5 10.35" transform="translate(110 175.6)"/><path fill-rule="evenodd" fill="#d4d0c8" d="m-7.45-158.15 2.1 6.05-1.05 14.4.7-14.3-1.75-6.15" transform="translate(110 175.6)"/><path stroke-opacity=".6" stroke-linejoin="round" stroke-linecap="round" stroke="#000" fill="none" d="m-7.45-158.15 2.1 6.05-1.05 14.4" transform="translate(110 175.6)"/><path fill-rule="evenodd" fill="#b7aea2" d="m20.65-114.8 8.3 3.7 5.1 9.65 7-12-6 2q-4.3-.5-9.5-6.8-.85-.55-.3-2.75-4.5 2.15-5.15 5.8l-2.05-1.25 7-7 4 1q1.9-5.55-2.7-11.65 7.6 2.35 12.5 5.6 8.7 19.6 8.95 34.25L34.7-78.5l-70.6 11.9-.5-11.75q2.3-3.55 4.4-4.85-1.15-5.65.65-5.3v-1.75h.25q1.35-1.65.8-3.9-3.3.35-5.6-.75 8.9-2.6 19.95-1.55l1-3 2 1 1.2-2.6 2.1 2q9.85-4.5 23.25-4.7 4.95-4.35 3.45-8.7l5 2v-3q.1-.35-1.4-1.35m-27.4-17q11-4.6 18.45-5.7l6.5 1.25.8.2q2.35.9-6.25 5.6-5.65-3.15-19.5-1.35m-6.2 38.35-3 2q4.7-1.6 6.75 0l1.25-3-1.65-1.35q-1.65-1.45-1.35-1.65l-3 1 1 3m-6 11 6-8-9 7 3 1m3.65 3.4q10.55-4.9 12.95-3.4-2.3-2-7.6-5-2.3.45-5.35 8.4m-18.65 2 3.15 3.1 5.55-2.35q-5.4-2.55-4.7-5.15l-4 4.4m58-10.4-2 6 11 1q-.25-.35-1.8-9l-7.2 2" transform="translate(110 175.6)"/><path fill-rule="evenodd" fill="#d4d0c8" d="M20.65-114.8q1.5 1 1.4 1.35v3l-5-2q1.5 4.35-3.45 8.7-13.4.2-23.25 4.7l-2.1-2-1.2 2.6-2-1-1 3Q-27-97.5-35.9-94.9q-.95-2.6.2-7.05l6.5-2.4.9-3.7q7.2-1.4 12.6.15 1.65-2.45 14.5-5.45-2.8-6.25-1.5-11.25-7.45 4.8-7.2 3.8l-6.15-6.75 1.95-.95 6.2-2.8 1.15-.5q13.85-1.8 19.5 1.35 8.6-4.7 6.25-5.6l7.35 1.95q4.6 6.1 2.7 11.65l-4-1-7 7 2.05 1.25-.35.3.9.1m-52 24.55v1.75q-1.8-.35-.65 5.3-1.2-.45-2-2.65-.6-1.25.1-4.5l2.55.1m12.4 7.8-3-1 9-7-6 8" transform="translate(110 175.6)"/><path fill-rule="evenodd" fill="#968878" d="M20.1-115.2q.65-3.65 5.15-5.8-.55 2.2.3 2.75 5.2 6.3 9.5 6.8l6-2-7 12-5.1-9.65-8.3-3.7-.9-.1.35-.3m-33.05 21.75-1-3 3-1q-.3.2 1.35 1.65l1.65 1.35-1.25 3q-2.05-1.6-6.75 0l3-2m-2.35 14.4q3.05-7.95 5.35-8.4 5.3 3 7.6 5-2.4-1.5-12.95 3.4m-18.65 2 4-4.4q-.7 2.6 4.7 5.15l-5.55 2.35-3.15-3.1m58-10.4 7.2-2q1.55 8.65 1.8 9l-11-1 2-6" transform="translate(110 175.6)"/><path fill-rule="evenodd" fill="#e4e1de" d="m-16.05-127.55 6.15 6.75q-.25 1 7.2-3.8-1.3 5 1.5 11.25-12.85 3-14.5 5.45-5.4-1.55-12.6-.15 2.45-9.55 6.6-16.7l5.65-2.8M-27.95 35.2q-9.25 9.95-14.6 19.3 1.8-6.35-1.3-4.8l15.9-14.5m74.7 53.1q-.8-3.4-1.7-15.1l2.9 9.5 5.9 9.05-7.1-3.45M30.55-16.95l-1-4q.8-4 4.85-8H42q-10.2 6.5-11.45 12" transform="translate(110 175.6)"/><path stroke-opacity=".6" stroke-linejoin="round" stroke-linecap="round" stroke="#000" fill="none" d="m-7.9-131.3-6.2 2.8" transform="translate(110 175.6)"/><path fill-rule="evenodd" fill="#f8f2d1" d="m-35.15-70.35-5.7 2.35-.2-1.05q-2-8.75 1.05-17.9l.9-2.4 1-2.35q-1.05 20.85 2.95 21.35" transform="translate(110 175.6)"/><path fill-rule="evenodd" fill="#f2e9ac" d="M-38.1-91.7q.3 6.3 1.65 10.45l.6 1.7q2.55 5.9 7.85 6.3l-7.15 2.9q-4-.5-2.95-21.35" transform="translate(110 175.6)"/><path fill-rule="evenodd" fill="#7a623a" d="m108.05-80.8-.65 2.6q-14.1 10.05-56.05 6.7-4.85-3.15-8.6-5L39.4-78l-.2-.05-1.6-.6q-1.35-3.9-.9-8.2v-.3q.6-4.75 4.3-8.6 5.8.25 5.65.85 4.35-2.75 4.6-7.3 2.55 1.2 5.15 2.45l3.45-.55q13.6 4.25 25.2 8.75 11.5 4.6 20.85 9.6l.2.1 1.95 1.05" transform="translate(110 175.6)"/><path fill-rule="evenodd" fill="#897241" d="m107.4-78.2-1.1 4.55q-13.55 3.05-20.5 6.7l-28.6-.6-5.85-3.95q41.95 3.35 56.05-6.7" transform="translate(110 175.6)"/><path fill-rule="evenodd" fill="#b7aea2" d="m37.6-78.65-2.25-.5-1.55-.15q-6.95-3.9-3.15-11.25l-3.9-18.6 2.75-.95 1.55 10.65q3.2-5.55 10.7-11.15-.25-1.6-1.9-3l5.7-1.9 55 19.85q4.8 5.5 6.7 12.4l.8 2.45-1.95-1.05-.2-.1q-9.35-5-20.85-9.6-11.55-4.85-25.3-9.1l-3.45.55q-2.6-1.25-5.15-2.45-.25 4.55-4.6 7.3.15-.6-5.65-.85-3.85 4-4.2 8.95v.3q-.45 4.3.9 8.2m-3.45-33 5.7-1.95q-3.7 2.45-5.7 1.95" transform="translate(110 175.6)"/><path fill-rule="evenodd" fill="#968878" d="m29.5-110.1 4.65-1.55q2 .5 5.7-1.95 1.65 1.4 1.9 3-7.5 5.6-10.7 11.15L29.5-110.1" transform="translate(110 175.6)"/><path fill-rule="evenodd" fill="#d4d0c8" d="M85.05-91.55q-11.6-4.5-25.2-8.75l-3.45.55q-2.6-1.25-5.15-2.45-.25 4.55-4.6 7.3.15-.6-5.65-.85-3.7 3.85-4.3 8.6.35-4.95 4.2-8.95 5.8.25 5.65.85 4.35-2.75 4.6-7.3 2.55 1.2 5.15 2.45l3.45-.55q13.75 4.25 25.3 9.1" transform="translate(110 175.6)"/><path stroke-opacity=".6" stroke-linejoin="round" stroke-linecap="round" stroke="#000" fill="none" d="M105.9-81.95q-9.35-5-20.85-9.6m-48.35 4.4q.35-4.95 4.2-8.95 5.8.25 5.65.85 4.35-2.75 4.6-7.3 2.55 1.2 5.15 2.45l3.45-.55q13.75 4.25 25.3 9.1" transform="translate(110 175.6)"/><path fill-rule="evenodd" fill="#d4d0c8" d="M-41.2-70.15q7.05-3.2 14.75-5.5l21.5-6.45.6-.15 15.8-1.2q14.7 18.2 5.8 28.5-8.95 10.3-32.4 11.05-4.9 3.7-14.3 3.95l-10-1.65v-.05q-2.7-4.55-3.1-11.05l.05-6.35-4.05-.1-2.25-.05-2.65-5.85q4.3-2.45 8.9-4.5l1.25-.55.1-.05m37.8 4.2.65.2-3-3 5-2-11-1-13 8 13-5 8.35 2.8h-.05.05M34.4-53.8l-3.35 5.45Q20.5-39.9 8.95-36.7l-12.4-.45H8.3l2.55-.8Q28.2-43.6 34.4-53.8" transform="translate(110 175.6)"/><path fill-rule="evenodd" fill="#b7aea2" d="m-39.45-41.6 10 1.65q9.4-.25 14.3-3.95 23.45-.75 32.4-11.05 8.9-10.3-5.8-28.5l1-.05 2.55-.2 2.5-.15 10.65 1.9q5.15 9.1 2.7 17.95-2.5 8.8-5 6.75-.1-4.25-15 19.3l-2.55.8H-3.45l-15.1-1.6-9.8 1.85q-5.65 1.2-11.1-4.7M-3.4-65.95l-8.35-2.8-13 5 13-8 11 1-5 2 3 3-.65-.2" transform="translate(110 175.6)"/><path fill-rule="evenodd" fill="#968878" d="m35.2-55.2-.8 1.4q-6.2 10.2-23.55 15.85 14.9-23.55 15-19.3 2.5 2.05 5-6.75 2.45-8.85-2.7-17.95l11.9 1.3v3.4L40-66.8q-1.15 4.9-4.8 11.6" transform="translate(110 175.6)"/><path stroke-opacity=".6" stroke-linejoin="round" stroke-linecap="round" stroke="#000" fill="none" d="m-4.95-82.1-21.5 6.2q-7.75 2.35-14.75 5.75m-5.35 11 4.05.1-.05 6.35m54-30.75-15.8 1.2-.6.15M35.2-55.2l-.8 1.4M-3.45-37.15H8.3l2.55-.8Q28.2-43.6 34.4-53.8m-6.25-28.15-10.65-1.9-2.5.15m-2.55.2-1 .05m16.7 1.5 11.9 1.3v3.4" transform="translate(110 175.6)"/><path fill-rule="evenodd" fill="#74685a" d="M-19.1-90.85q-3.9 3.1-8.4 4.15-2.25-.45-.5-3.45l11.95-4.15q-.55 2.05-3.05 3.45M-5.9-94l23.8-4.55q3.05 3.95 2 7.85-8.7 1.7-19.35.3-.5 1-1.1.95Q-5.6-92.7-5.9-94" transform="translate(110 175.6)"/><path fill-rule="evenodd" fill="#eee191" d="M-5.75-95.8q9.7-4.55 21.7-4.85.7-.05 3.25 1.1 2.45 1.1 2.05 5.85-12.6.7-27-2.1m-14.15 3.55q-5.2.55-8.1 2.1-.7.55-.55-2.85.85-.75 1.6-1.95 3.6-.8 10.7 1.2-2.7.4-3.65 1.5" transform="translate(110 175.6)"/><path stroke-opacity=".6" stroke-linejoin="round" stroke-linecap="round" stroke="#000" fill="none" d="M-5.75-95.8q9.7-4.55 21.7-4.85.7-.05 3.25 1.1 2.45 1.1 2.05 5.85-12.6.7-27-2.1m-14.15 3.55q-5.2.55-8.1 2.1-.7.55-.55-2.85.85-.75 1.6-1.95 3.6-.8 10.7 1.2-2.7.4-3.65 1.5" transform="translate(110 175.6)"/><path stroke-opacity=".6" stroke-linejoin="round" stroke-linecap="round" stroke="#000" fill="none" d="M-6.85-95.05q-4.1-2.1-5-5.35.15-1.95 3.85-5.55l5.3-1.95 7.25-2.2m17.7-10.45q-3.4 3.6-2.5 5.65 3.45.95 6.9 3.5m-55.7 6.95 1.3-.45m-2.55 10.85q4.3-1.7 11.45-1.05l4.75 1.75m-8.45 27.65q3.6-3.25 14.05-5.85l5.4.3M-15-88.65q-1.65 3.35-7.65 5.1l2.35 4.15m50.95-11.15q-2.4 3.4-6.05 4.2-1.8 2.15-.65 2.8m-29.1-6.85q4.3 3.55 9.15 3.85" transform="translate(110 175.6)"/><path fill-rule="evenodd" fill="#f9f3d5" d="m-101.5-58.1 28.85-3.1 1.55 5.4 1.4-5.3 44.35-4.35-.1.1Q-44.8-49.45-53.6-39.9q5.1-3.2 4.75-1.55Q-50.1-36.4-66-25l-16.95-10.45h6L-101.5-58.1m-7.05 47-.05.05.05-.1v.05" transform="translate(110 175.6)"/><path fill-rule="evenodd" fill="#efe39a" d="M-25.45-65.35-56.15-25H-66q15.9-11.4 17.15-16.45.35-1.65-4.75 1.55 8.8-9.55 28.15-25.45" transform="translate(110 175.6)"/><path fill-rule="evenodd" fill="#f1e7a9" d="m-89.85-17.1.2-.25-16.3 5.4-2.6.8q5.35-23 7-46.65l.05-.3 24.55 22.65h-6L-66-25q-11.85 1.95-16.15 4.2 8.3-1.6-7.7 3.7" transform="translate(110 175.6)"/><path fill-rule="evenodd" fill="#ebdb83" d="m-56.2-25-35.25 9.55 1.6-1.65q16-5.3 7.7-3.7 4.3-2.25 16.15-4.2h9.8m-49.75 13.05-2.6.85v-.05l2.6-.8" transform="translate(110 175.6)"/><path stroke-opacity=".6" stroke-linejoin="round" stroke-linecap="round" stroke="#000" fill="none" d="m-50.45-63.6 26.05-2.25-16.05 21.2" transform="translate(110 175.6)"/><path fill-rule="evenodd" fill="#ad8636" d="m-30.85-18.85.9.9-.2 1.55v.05q-2.45-1.7-10.6-9.2l1.5-1.5 8.4 8.2M-28.1-11q-.15.65-.45 1.15l-.3.4.75-1.55" transform="translate(110 175.6)"/><path fill-rule="evenodd" fill="#84572b" d="m-29.95-17.95 1.55 1.5q.75 3.5.3 5.45l-.75 1.55q-.9 1.05-2.55 1.35l-12.45-4.3-7.85-2.7 10.95-10.45q8.15 7.5 10.6 9.2v-.05l.2-1.55" transform="translate(110 175.6)"/><path stroke-opacity=".6" stroke-linejoin="round" stroke-linecap="round" stroke="#000" fill="none" d="m-28.1-11 .35-.65q.4-2.6-.5-5.15l-1.6-1.5-1-.55m2 9.4-.35.7-2 1-12.65-4.65M-28.1-11l-.75 1.55" transform="translate(110 175.6)"/><path fill-rule="evenodd" fill="#d4d0c8" d="M-46-38.55-58.2-26.9l-8.2 3.45 7.8-3.5 13.6-12.9-1 1.3 1-1.3.6-.55h.35l4.5 1.2-.4 2.8 6.35.25v.4l-7.05.3v-3.1H-46m-26.2 17.6 3.25 4.5 8-2v2l3 1-2.05 4.9-2.4.65 2.1-4.65-2.2.4-.35-2.2-13.15 2.3-.05-5.2 1.85-.8 2-.9m26.65 6.4 9.45-2.95.9-4.5-.5 4.7-9.85 2.75" transform="translate(110 175.6)"/><path fill-rule="evenodd" fill="#b7aea2" d="m-66.4-23.45 8.2-3.45L-46-38.55h5.35v3.1l7.05-.3L-35.2-22l-.9 4.5-9.45 2.95-14.45 4 2.05-4.9-3-1v-2l-8 2-3.25-4.5 5.8-2.5" transform="translate(110 175.6)"/><path stroke-opacity=".6" stroke-linejoin="round" stroke-linecap="round" stroke="#000" fill="none" d="m-66.4-23.45 8.2-3.45L-46-38.55l1-1.3m-21.4 16.4-5.8 2.5m26.65 6.4 9.45-2.95.9-4.5m-39 1.95 2-.9" transform="translate(110 175.6)"/></g><path fill-rule="evenodd" fill-opacity="0" fill="#f0f" d="M0 0h102.95v45H0V0" id="a"/><use xlink:href="#a" width="102.95" height="45" id="d"/></defs><path fill="none" d="M-1-1h222v351H-1z"/><g transform="scale(2)"><use x="61.05" y="194" xlink:href="#b" width="381" transform="translate(-192.55 -294)" height="381"/><use x="123.708" y="393.11" xlink:href="#c" width="220.65" transform="translate(-60.633 -193.556) scale(.4935)" height="351.75"/><use x="-72.488" y="-60.164" xlink:href="#d" width="102.95" transform="matrix(1.8072 0 0 1.6538 100 111.9)" height="45"/></g></svg>