<svg width="513" height="716" xmlns="http://www.w3.org/2000/svg" xmlns:xlink="http://www.w3.org/1999/xlink"><defs><path fill-rule="evenodd" fill-opacity="0" fill="#f0f" d="M0 0h102.95v45H0V0" id="a"/><use xlink:href="#a" width="102.95" height="45" id="c"/><g id="b"><path stroke-opacity="0" stroke-linejoin="round" stroke-linecap="round" stroke="#f0f" fill="none" d="M187.95-293.5v380h-380v-380h380M92.95.6H-97" transform="translate(192.55 294)"/><path stroke-opacity="0" stroke-linejoin="round" stroke-linecap="round" stroke="#f0f" fill="none" d="m187.95-293.5-190 190 190 190m-380-380 190 190L-192 86.5" transform="translate(192.55 294)"/><path stroke-width="3" stroke-linejoin="round" stroke-linecap="round" stroke="#352020" fill="none" d="M156.95 151.8q-1.1 8.65-3.4 16.95-2.45 8.75-6.25 17.15l2.5 2.7 6.65 2 1.8 8.4-12.35 12.2q-49.05 3.9-72.4 11.5-24.85 8.05-26.75 22.15v5.05l10.6 15.1q9.95-1.55 21.15 4.7-.7-8.9 9.5-10.4-2.35-6.25-8.1-11.1v9.75h-5.3l-6.7-5.4 6.35-8.35L92 241.6l10.8 1.9q17.75 10.6 32.4 28.6l1.35.65q9.55 6.2 23.65 11.75 0 7.25-14.8 9.8l14.05 10 6.75-1.3 1.7-1.05q5.05-2.75 15.2-5l3.5-.05q16.2-.15 26.5 3 5.95 1.9 9.9 4.85 11.6 8.65 13.65 10.75-7.35 20.05-23.65 33.85l1.6.75q18.95 9.1 6.55 25.8 25.3-32.6 30.2-56.7 5.25-13.5 6.95-27.95l.65-9.15q1.1-21.6-1.85-42.95l-5.5-36.6-7.95-10.6-4.9 3.5h-6.9l-5.45-4.35-6.8-14.1-1.5-11.6-10.7-9.1-2.45-15.65 4.5-14.1 7.75-2.9 2-2.7-5.1 2 5.75-4.45 1.6 3.15 6.3 3.55.15.05 2.8 7.6q11.1 6.8 23.95 6.9l5.55-.75 6.1 4.15 9.85 2.35q9-2.8 11.9-5.25v-.95l5.4-2.9.55-2.1 2.95-2.55L298 120.4l-4.15-4.7v-1.95q-2-1.55-4.05-3.2l-4.4 2.4-4.8 3.25h5.1l-.6 1.05-2.85.7-3.45 3.1h-1.05l2.9 1.55h6.25l2.3-1.25 2.55 2.3.1 4.15-2.8 3.45.95-2.6-1.85-3.6h-7.35l-1.05.8 2.75 3.2 2.85 1.75-.05 1.15-1.65-.05-1.75.65-1-.15-7.25-2.1-3.15-7.05v-5.7l-.85-2.45 3.7-2.1q.8-3.05-2.1-6.05l-4.15 3.6q-.35 2.15-3.25 4.3l1.7 3.85-1.5 5.7-4.6 5h1l-.05.05-.1.05-.05.05-.05.05q-1.8 1.25-7.75-.1l-5.85-6.65-5.65-1.95q-.75-5.7-4.5-11.35l-3.75-2.7v-5.25l-3.95-4.2 1.4-3.05v-5.5l-.7-1.9v-.05l10-2.4 25.75-36.05q12.8-19.4 33.05-25.8L281 26.35l-30.75 20.9q4.1-1.1 4.3.45 1.4 1.7-1.4 6.15-6.75 3.9-10.95 2.65v-3.85l-8.75 5.95-16.55 3.7 2.7-2.4-6.1 3.2-5.1 1.15-.55 1.2H203l7.35-16.6-8.05 5.8V45.7l-2.65-15.65-3.6 12.4-6.2 10.4-6.15 4.6-1.4-2.8-2.7 6.35v2.2l-6-3.75 1 5.6v1.05l-4.4-.65-2.65-3.55-.5 3.55 1.35 1.85-4.7-.95-29.6-19.15-4.6 3.75-14.4.6L109.45 63l-9.15-1 6.7 5.05 2.7-1q10.25-6.25 15.6-5.7l2.05 1.65q19.25 15.95 29.95 32.95l.1.1-1.6 3.65v3.2l.8 1.15-.9 1.1h-1.4l-4.6 5.05h1.75l-1.9 2.65h-1.1l-1.3 2.65 4.9 2.95-.05.35M257.15 44l2-.6q1.4-.45.6 1-.8 1.5-1.3 1.9-.5.4-1 .4-.55 0-.95-.25-.35-.25-.35-.6l.25-1.05q.15-.7.75-.8"/><path stroke-width="3" stroke-opacity=".2" stroke-linejoin="round" stroke-linecap="round" stroke="#362020" fill="none" d="m113.8 137.1-.15.2.15.2m0 14.1q-2.3 1.35-5.5 2.9v-1.4h-2.4l-1.35 1.9-5.5-.95-1.05-1.2-.35-2.95h1.25l4.4-8.1-6.1 2.35h-1.55l2-3.25 3.75-3.8-4.55 1-6.7.8-.95 3.25q-1.05 2.55-2.75 4.7l3.7 6.4.7 4.15q1.55 1.2 4.1 1.55l2.75 2.2 4.7.9-.2 1.2 7.35 4.3 1.7 1.2 2.45-1.1.1-.1"/><path stroke-width="3" stroke-opacity=".714" stroke-linejoin="round" stroke-linecap="round" stroke="#362020" fill="none" d="m152 117.8-.45 3.35 1.75 8.8-1.75 1.45-.05.05m0 21.75 5.45-1.4"/><path stroke-width="3" stroke-opacity=".353" stroke-linejoin="round" stroke-linecap="round" stroke="#362020" fill="none" d="m135.95 143.8-1.5 1.1-7.6.1-.15-.45-3.95-1.3-.7-3.4 1.5-5.1-3.55-8.7-6.2 11.05m0 .4 3.3 6.25.4.5-1.95 6.2-1.75 1.15m0 15.95 12.55-8.7 2.65-4.25 6.95-.4"/><path stroke-width="3" stroke-opacity=".553" stroke-linejoin="round" stroke-linecap="round" stroke="#362020" fill="none" d="m151.5 131.45-4.9 6.35-1.2 3.75-.2.1-5.8-.15-3.45 2.3m0 10.4 15.2-.95h.05l.3-.05"/><path fill-rule="evenodd" fill="#5a1212" d="m18.15-223.6-3.55.75 9.8-8.85 16.55-3.7 8.75-5.95v3.85q4.15 1.25 10.95-2.65 2.75-4.5 1.4-6.15-.2-1.6-4.3-.5l30.7-20.9 17.3-3.7q-20.3 6.4-33.1 25.85L59.8-227.5l-3.4 1.35-10.05 12.45-13.15 5.9-5.3 4.35L10.65-191q-16.95 4.2-37.05.25l-7.25-9.7-17.4-21.15L-65.2-232l-2-1.7-6.9-4.4-3.85 3.15-.3.25-.15.15-4.45 6.55-2.7 1-6.7-5.05 9.2 1.05 5.6-11.5 14.45-.6 4.6-3.75 29.6 19.2 4.7.95 2.25 3-2.65-.5 3.4 4.65-2.2-.55.45 1.9-4.9-1.85h-1.9l2.5 1.3 3.65 6.8h-2.4l2.1 1.4-7.45 2.25 8.1.5-7.3 3.55v3.35l5.3 4 4.95 1.6-1.1 1.3h6.7v1.85l1.35 1.8h2.2l1.65-1v-.95l-1.65-1.05 7.5-1.3 16.45-4.6-1.45 1.75.7 1.55 1.25.6 2.55-.7 1.1-1.55-.95-1.35v-.9l3.5-2.1 5.9-6.5 5.45-4.2 1.1-.55-.65-.7-14.95-.8 4.95-1.65-3.6-.15.4-1.4h-3.3l5.9-6.25-2.65.55m2.8-7.35-4.45 2.35h-1.15l.5-1.2 5.1-1.15M-85.3-229.2l2.25-1.8-2.25 1.8m149.15-20-.2 1.05q0 .35.35.55l.95.3q.5 0 .95-.4l1.35-1.9q.8-1.5-.6-1l-2 .6q-.6.1-.8.8m-31.3 37.25-.9.5.9-.5m2 1.7.85-1.05-.85 1.05m.3-1.8L32.7-213l2.15.95" transform="translate(192.55 294)"/><path fill-rule="evenodd" fill="#445958" d="M7.15-263.95 9.8-248.3v8.9l8.05-5.8-7.35 16.6h6l4.45-2.35 6.1-3.15-2.65 2.4-9.8 8.85 3.55-.75-4.9 2.25h-3.6l-1.1.8-.4-.55v-1.7l-3.8-3.2H3.7v-.6l-1.4 1.05-1.5 2.95-2.2 6-1.15-1.5-.9 3.7-2.6-1.1-.75-1.2.5-.35 1.75-1.35-1.35-2.4h2.45v-2.6l-1.8 1.6v-2.1l-5.15-1.35-2.65-2.65h3.8l2.55 1.8 2.75-2.6v1.95L-2-228.6l1.55-1.35-1.8 1.15 4.65-9.6-5.85 9.65v-1.75l9.05-19.3 1.55-14.15M8.2-228.8l2.3.2-2.3-.2m1.6-10.6-2.3 2.9 2.3-2.9" transform="translate(192.55 294)"/><path fill-rule="evenodd" fill="#0c1723" d="M7.15-263.95 5.6-249.8l-9.05 19.3v1.75l5.85-9.65-4.65 9.6.25.2-1.95 1.85v-1.95l-2.75 2.6-2.55-1.8h-3.8l2.65 2.65 5.15 1.35v2.1l1.8-1.6v2.6H-5.9l1.35 2.4-1.75 1.35v-1.55l-3.1-4.1-1.3.9-1.85-3.3.95 4.1h-1.6l-2.4-1.3 2.55 3.55 1.35-1.05h2.85l2.05 3.1.75 1.2 2.6 1.1.9-3.7 1.15 1.5 2.2-6 1.5-2.95 1.4-1.05v4.55l-1.4 4.15 2.05-3.2v-4.9l3.8 3.2v1.7l-.85 1.45 1.25-.9 1.1-.8h3.6l4.9-2.25 2.65-.55-5.9 6.25h3.3l-.4 1.4 3.6.15-4.95 1.65 14.95.8.65.7-1.1.55-5.45 4.2-5.9 6.5-3.5 2.1v.9l.95 1.35-1.1 1.55-2.55.7-1.25-.6-.7-1.55 1.45-1.75-16.45 4.6-7.5 1.3 1.65 1.05v.95l-1.65 1h-2.2l-1.35-1.8V-194h-6.7l1.1-1.3-4.95-1.6-5.3-4v-3.35l7.3-3.55-8.1-.5 7.45-2.25-2.1-1.4h2.4l-3.65-6.8-2.5-1.3h1.9l4.9 1.85-.45-1.9 2.2.55-3.4-4.65 2.65.5-2.25-3-1.4-1.9.55-3.55 2.6 3.55 4.4.65v-1l-1-5.65 6 3.8v-2.25l2.7-6.35 1.4 2.8 6.15-4.55 6.2-10.4 3.65-12.4m-3.9 46.2q-.65.6-.65 1.4 0 .85.65 1.45.55.6 1.45.6.9 0 1.55-.6.55-.6.6-1.45-.05-.8-.6-1.4-.65-.6-1.55-.6t-1.45.6m-1.9 6.1h1.5v-1.8l-3.05-.8h-2.2l-1.65 1.15-1.25 2v.95h1.55v-1.25l1.3-1.6h3.8v1.35m-5.3-19.75 3.6-8.35-3.7 5.55.1 2.8m-17.9 7.7 1.85-.1-1.85.1m13 8.2q-.85 0-1.5.6-.6.6-.6 1.4 0 .85.6 1.45.65.6 1.5.6.9 0 1.55-.6.55-.6.6-1.45-.05-.8-.6-1.4-.65-.6-1.55-.6m2.8 3.65h-1.2l-2.5 1.8-1.2 2.15 4.05-2.3.85-1.65" transform="translate(192.55 294)"/><path fill-rule="evenodd" fill="#ac2d2d" d="M-26.4-190.75q20.1 3.95 37.05-.25l17.25-12.45 5.3-4.35 13.15-5.9 10.05-12.45 3.4-1.35-12.85 18-10 2.4h-.05l-7.05 4.6-7.35 14.15-2.6 2.75-4.95 2.45 4.95-2.45-7.05 5.5 7.4 3-2.1 6.15 19.1-12.9-9.9 8.3-5.8 4.5 5.1-2-1.95 2.65-15.5 5.8-1.45-3.5v3.15l-8.3 1.7v-1.5h-4.5v-3.6l-2.4 3.75-8-1.45v-5.15l-4.25 5.4-5.35-2.15h-1.55l-6.25-3.85-3.2-2.2v-3.9l-3.25 2.05-1.15-.7-4.9-2.95 1.3-2.65h1.1l1.9-2.7h-1.75l4.6-5h1.4l.9-1.1.55.8.4.25 1.8 1.1 9.3 5.75 15.45 2.1-9.9 1.55 3.05.4 24.6-1.4.15-.1 5.45-2.65-.2-2.65 3.2-6.55-7.8 3.75-24 1.35-14.25-2.25-7.1-9.6q-10.75-17-30-32.9l14.15 10.4 17.4 21.15 7.25 9.7m42.15 27-3.3 10.4 2.45 15.65.25 1.8q-3.3 7-42.5 18.3-9.95-3.15-11.6-7.65 2.3-8.35 3.4-16.95l.35-2.85-1.4-.35.4-.9.2-.5.5.7 5.9.3q16.3 2.5.35 3.1 15.8 3.2 33.5.7l3.2-6.7 3-10.25L-4.1-155l-18.1 2.1 14.75-3 23.2-7.85m-3.3 10.4-.9 3 .9-3m-39.1 9.7-8.55-1.4 8.55 1.4m-7.65-43.1-2.5-3.1 2.5 3.1m22.45 5.75h-9.25l-7.45-3.5-4.6-4.3 4.6 4.3 7.45 3.5h9.25M-90.6-50.65l.5-.35.4.5-.9-.15" transform="translate(192.55 294)"/><path fill-rule="evenodd" fill="#7b1515" d="m36.9-207.1.75 1.9v5.5l-1.4 3.05 3.95 4.2v6.1l-5.95-3 3.15 5.4-.15.1-19.1 12.9 2.1-6.15-7.4-3 7.05-5.5 2.6-2.75 7.35-14.15 7.05-4.6m-.65 10.45-2.3-2.5 2.3 2.5m-8.45 3.3 4.65-7.25h2.2-2.2l-4.65 7.25m-2.65 4.55v-2.25l-2.65 2.7 2.65-2.7v2.25" transform="translate(192.55 294)"/><path fill-rule="evenodd" fill="#7e9d9e" d="m68-165.75 3.55-3.9 1.55-5.65-1.75-3.9q2.85-2.15 3.2-4.3l4.2-3.6q2.9 3.05 2.1 6.1l-3.7 2.05.85 2.45v5.75l3.15 7.05 7.05 2.05-12.9-2.1v-4.4l-7.3 2.4m24.6-11 .6-1.05h-5.15l4.85-3.3 4.4-2.35 4.05 3.25v1.85l4.15 4.75-.75 8.05-1.9.7.25-1.1v-5.7l-5.7-6.5-4.8 1.4m-20.5 6.5-.55.6.55-.6" transform="translate(192.55 294)"/><path fill-rule="evenodd" fill="#658487" d="m40.2-187.15 3.75 2.65q3.75 5.7 4.5 11.4l5.65 1.9 5.85 6.65q5.9 1.4 7.75.1h.05l.05-.05.1-.05.05-.05-1-.05 1.05-1.1 7.3-2.4v4.4l12.9 2.1.15.05 1.05.15 1.75-.65 1.6.05.05-1.15-2.8-1.75-2.75-3.2 1.1-.8h7.25l1.85 3.55-.95 2.65q-.5 1.6-.8 4.7l-.1 1.6-8.95 4.1-11.25-.55-8.8-5.5-22.6-2.45-7.6-5.05-1.05-2.85-.05-.3 1.2-3.8-9.15-2.7 9.9-8.3.15-.1-3.15-5.4 5.95 3v-.8m49.2 25.7-1.7.65 1.7-.65m-1.05 3.1h3.75q.6-1.8.65-3.7-.05 1.9-.65 3.7l-.55 1.45-6.8 2.45 1.6-1.55-1.6 1.55 6.8-2.45.55-1.45h-3.75m-39.9-14.75-5.8 1.65 5.8-1.65m32.15 18.65v-2.75l3.45-1.8-3.45 1.8v2.75m-4.95-6.9h7.2-7.2m-108.5-10.45-1.1 5.85 2 7.75-2.1-1.4H-35l-2.35-9.95-2.3 3.25-1.3-6.55.5-3.7 1.15.7 3.25-2.05v3.9l3.2 2.2m97.25 12.7-.85-2.15 4.15-3.2-4.15 3.2.85 2.15" transform="translate(192.55 294)"/><path fill-rule="evenodd" fill="#a6b7bd" d="m104.75-165.55-.3 3.3-3 2.55-.55 2.1-5.35 2.9.05-1.75.1-1.6 6.6-4.75.55-2.05 1.9-.7m-69.4-3.2-.1-.05-.05-.05-6.25-3.5-1.6-3.2 9.15 2.7-1.2 3.8.05.3m66.1 9.05.85-3.1-.85 3.1m-66.25-9.15v-.8.8m.1-.2-.1-.6.1.6" transform="translate(192.55 294)"/><path fill-rule="evenodd" fill="#e0e6e9" d="M95.55-154.7v.9q-2.9 2.5-11.95 5.3l-9.8-2.35-6.1-4.15-5.55.7q-12.9-.1-23.95-6.9l-1.8-4.7 7.6 5.05 22.6 2.45 8.8 5.5 11.25.55 8.95-4.1-.05 1.75m-131.75 8.4-.4.9 1.4.35-.35 2.85-5.8 1.45-6.75.25-13.1.95 1.55-3.15 9.45.35 14-3.95M67.7-155l-1.85-1.75L67.7-155m-132.95 18.35-.95 1.45-12.6 8.8-2.5 1.15-1.65-1.2-7.3-4.3.1-1.2-4.65-.95-2.75-2.2q-2.6-.3-4.15-1.55l-.4-2.65 2.4 1.4.1-.15.25-1.05 4.2 3.3 4.4.85.5 2.3 10.75 4.1 14.25-8.1m-24.9 4.7-.1-.7.1.7m-9.55-5.95-.6.65 2.75 2.15-2.75-2.15.6-.65" transform="translate(192.55 294)"/><path fill-rule="evenodd" fill="#6d9192" d="m96.5-162.75 2.8-3.5-.05-4.1-2.55-2.35-2.3 1.3h-6.25l-2.9-1.55h1.05l3.45-3.1 2.85-.7 4.8-1.4 5.7 6.5v5.7l-.25 1.1-.55 2.05-6.6 4.75q.3-3.1.8-4.7" transform="translate(192.55 294)"/><path fill-rule="evenodd" fill="#811616" d="m14.9-137.7 10.7 9.1.3 2.55q-32.95 9.9-67.25 43.9L-90.1-51l-.5.35-9.9-1.75-31.15-5.5-10.2 5.35v.9l3 7.25 6.4-4.4 11.7 2.25-3.85 5.1 2.3 1.85-13.85 1.85 3.5 6.2 16.55 3.5 3.45-8v-9.8q5.8 4.9 8.1 11.15-10.15 1.45-9.5 10.4-11.2-6.3-21.15-4.7l-10.55-15.15v-5q1.85-14.1 26.7-22.15 23.35-7.65 72.4-11.55L-34.3-95l14.55-10.2 4.35-3.05 8.6-6.1 23.1-14.6 2.8-1.85-3.65-3.35-.3-1.75-.25-1.8m19 34.8 5.45 4.35h6.9l4.9-3.5L59.1-91.5l3.95 26.6-11.1 5.85L20.55 5.9q-10.3-3.15-26.5-3.05l-3.45.1q-10.15 2.25-15.25 5Q22.95-21.6 50.5-69q-1.65-15.4-16.6-33.9m-175.75 53.4v-2.15 2.15M50.8-99.05l2.1 3.85-4.55 3.05-3.55-2.05-5.45-4.35 5.45 4.35 3.55 2.05 4.55-3.05-2.1-3.85m-22.85 8.8 1.15-10.3-.7-5.85 8.1 18.35L24.35-73.4l3.3-14.4.3-2.45m-.75 6.45.45-4-.45 4M-56-21.25q50.8-16.6 84.25-42.5-16.7 22.1 12.45.65Q15.75-28.5-28.25-3.25L-32.3-9.5Q-46.4-15.1-56-21.25" transform="translate(192.55 294)"/><path fill-rule="evenodd" fill="#df3737" d="m-35.2-199.1 7.1 9.6 14.25 2.25 24-1.35 7.8-3.75-3.2 6.55.2 2.65-5.45 2.65-.15.1-24.6 1.4-3.05-.4 9.9-1.55-15.45-2.1-9.3-5.75-1.8-1.1-.4-.25-.55-.8-.8-1.2v-3.2l1.6-3.6-.1-.15m61.1 73.05 1.15 9.05 6.85 14.1Q48.85-84.4 50.5-69 22.95-21.6-24.65 7.95l-1.7 1-6.7 1.35L-47.1.25l14.1 5.7q4.4-.1 8.1-4l-3.35-5.2q44-25.25 68.95-59.85-29.15 21.45-12.45-.65Q-5.2-37.85-56-21.25l-1.35-.65Q-72-39.95-89.7-50.5l-.4-.5 48.75-31.15q34.3-34 67.25-43.9m-48.1-26.85 18.1-2.1 14.55-3.95-3 10.25-3.2 6.7q-17.7 2.5-33.5-.7 15.95-.6-.35-3.1l-5.9-.3-.5-.7-4.1-5.85.1-.15 2.9 1.65 14.9-1.75m-98.55 106.35-11.7-2.25-6.4 4.4-3-7.25v-.9l10.2-5.35 31.15 5.5-17.75 2.55-2.5 3.3M28.4-106.4l.7 5.85-1.15 10.3-.3 2.45-3.3 14.4L36.5-88.05l-8.1-18.35-1.35-10.6 1.35 10.6M-82.85-228l4.45-6.55.45-.4 3.85-3.15 6.9 4.4q-5.4-.55-15.65 5.7" transform="translate(192.55 294)"/><path fill-rule="evenodd" fill="#b82e2e" d="m63.05-64.9 1.5 10.05q2.95 21.35 1.9 43l-.65 9.1q-1.75 14.4-6.95 27.95-4.95 24.05-30.2 56.7Q41 65.2 22.05 56.1l2.65-1.75L44.1 50q6.35-4.85 7.85-9.65l.15-.65q2-8.2-8-18.2-2.05-2.1-13.6-10.75-3.95-3-9.95-4.85l31.4-64.95 11.1-5.85m-4.2 90.1Q56 32.55 52.1 39.7q3.9-7.15 6.75-14.5" transform="translate(192.55 294)"/><path fill-rule="evenodd" fill="#321010" d="m-112.65-36.05-3.45 8-16.55-3.5-3.5-6.2 13.85-1.85 4.4 3.55h5.25M44.1 21.5q10 10 8 18.2l-.15.65q-1.5 4.8-7.85 9.65l-19.4 4.35-2.65 1.75-1.55-.75q16.3-13.8 23.6-33.85M-28.25-3.25l3.35 5.2q-3.7 3.9-8.1 4L-47.1.25Q-32.3-2.3-32.3-9.5l4.05 6.25" transform="translate(192.55 294)"/><path fill-rule="evenodd" fill="#afc0c2" d="m-36-146.8-.2.5-14 3.95-9.45-.35-1.55 3.15-2.3.1-1.45 2.35-.3.45-14.25 8.1-10.75-4.1-.5-2.3-4.4-.85-4.2-3.3q.6-3.65-.25-7.3h-.5.5q.85 3.65.25 7.3l-.25 1.05-.1.15-2.4-1.4-.3-1.5-3.7-6.35q1.75-2.2 2.8-4.7l.1-.6h2.25l7.1-1.65-1 .95-2 3.3-1.85 1.35-.35.95 3.85 1.4 4.35-3.1-2.8 5.1h-1.2l.3 3 .4 3.1 4.8.9-1.6 1.1.2 1.1 3.35-1.55 3.15 2.5 2.7.9 1.95 1 .15-1.65 3.6-.45 3.75-6.95 2.5-1.2 1.2-.5v-3.4l-8.2-6.3-2.25-4.2 6.35-11.2 3.5 8.7-1.45 5.1.65 3.4 4 1.25.15.5h.7l6.9-.15 4.9-3.4 5.05.2h.75l.25-.15 1.15-3.7 5-6.45 1.7-1.45-.4-2.2 2.3-3.25 2.35 9.95-5 6.8-.1.15 4.1 5.85m-11.1-5.7 2.05-1.2-2.05 1.2m-23.5 1.5.8.25-.8-.25m4.95 2 .7 2.25-.7-2.25m-10.85 15.9.65-1.1-.65 1.1m13-6.35.5-.75-.5.75m-1.45-7.3.2.65-.2-.65m26.45-13.7-.75-3.65.75 3.65M-78.6-130l-1-2.1 1 2.1m-6.55-2.3.9-1.7-.9 1.7m-9.7-11.85h-1.25 1.25m-4.2-3.4-.55 1.15.55-1.15" transform="translate(192.55 294)"/><path fill-rule="evenodd" fill="#8fa8ab" d="m-73.55-147.8-1.45-1.95 1.45 1.95m-21 6.65 1.1 1.2 5.45.9 1.35-1.9h2.45v1.45q4.6-2.2 7.2-4.05l2-6.2-.4-.55-1.2-2.25 8.2 6.3v3.4l-1.2.5-2.5 1.2-3.75 6.95-3.6.45-.15 1.65-1.95-1-2.7-.9-3.15-2.5-3.35 1.55-.2-1.1 1.6-1.1-4.8-.9-.4-3.1m-8.65-11.3.8-2.7 6.7-.75 4.6-1-2.75 2.8-7.1 1.65h-2.25m6.35 2.6h1.55l6.05-2.35-1.6 2.95-4.35 3.1-3.85-1.4.35-.95 1.85-1.35m8.85 10.8-1.35 1.9 1.35-1.9m3.8-.45-.05 5.5.05-5.5m6.95-3.1.25-.95-.25.95" transform="translate(192.55 294)"/><path fill-rule="evenodd" fill="#597475" d="m-6.3-217.05-.5.35-2.05-3.1h-2.85l-1.35 1.05-2.55-3.55 2.4 1.3h1.6l-.95-4.1 1.85 3.3 1.3-.9 3.1 4.1v1.55m10-8.95h.65v4.9l-2.05 3.2 1.4-4.15V-226m4.45 4.9.4.55-1.25.9.85-1.45" transform="translate(192.55 294)"/><path fill-rule="evenodd" fill="#fff" d="M3.25-217.75q.55-.6 1.45-.6.9 0 1.55.6.55.6.6 1.4-.05.85-.6 1.45-.65.6-1.55.6t-1.45-.6q-.65-.6-.65-1.45 0-.8.65-1.4m-12.1 2.25q.9 0 1.55.6.55.6.6 1.4-.05.85-.6 1.45-.65.6-1.55.6-.85 0-1.5-.6-.6-.6-.6-1.45 0-.8.6-1.4.65-.6 1.5-.6" transform="translate(192.55 294)"/><path fill-rule="evenodd" fill="#3d5761" d="M1.35-211.65V-213h-3.8l-1.3 1.6v1.25H-5.3v-.95l1.25-2 1.65-1.15h2.2l3.05.8v1.8h-1.5m-5.3-19.75-.1-2.8 3.7-5.55-3.6 8.35m-2.1 19.55-.85 1.65-4.05 2.3 1.2-2.15 2.5-1.8h1.2" transform="translate(192.55 294)"/><path fill-rule="evenodd" fill="#bf4040" d="m-77.95-234.95-.45.4.15-.15.3-.25" transform="translate(192.55 294)"/><path fill-rule="evenodd" fill="#682222" d="m9.25-164.45 7.7-3-1.2 3.7-23.2 7.85-14.75 3-14.9 1.75-2.9-1.65 5-6.8h.95l2.1 1.4 1.75 4.25 18.45-2.25 21-8.25M-37.6-153l7.4-.95-7.4.95m3.45 41.45-1.9 8.15-6.7-2-2.45-2.75 11.05-3.4" transform="translate(192.55 294)"/><path fill-rule="evenodd" fill="#495f61" d="m9.2-164.6.05.15-21 8.25-18.45 2.25-1.75-4.25-2-7.75 1.1-5.85 6.25 3.85h1.55l5.35 2.15 4.25-5.4v5.15l8 1.45 2.4-3.75v3.6h4.5v1.5l8.3-1.7v-3.15l1.45 3.5m-28.95 59.4L-34.3-95l-1.75-8.4 1.9-8.15 6.75-1.8 2.7 1.2 4.95 6.95m2.9-59.95-2.9-.45q-6.35-.55-11.55 2.05 5.2-2.6 11.55-2.05l2.9.45" transform="translate(192.55 294)"/><path fill-rule="evenodd" fill="#431616" d="m15.45-134.15 3.65 3.35-2.8 1.85-.85-5.2" transform="translate(192.55 294)"/><path fill-rule="evenodd" fill="#711313" d="m15.15-135.9.3 1.75.85 5.2-23.1 14.6-8.6 6.1-9.3-3.9-2.7-1.2-6.75 1.8-11.05 3.4q3.75-8.35 6.25-17.1 1.65 4.5 11.6 7.65 39.2-11.3 42.5-18.3" transform="translate(192.55 294)"/><path fill-rule="evenodd" fill="#4f3924" d="m-15.4-108.25-4.35 3.05-4.95-6.95 9.3 3.9" transform="translate(192.55 294)"/><path stroke-width=".05" stroke-opacity=".502" stroke-linejoin="round" stroke-linecap="round" stroke="#260606" fill="none" d="M202.35 54.6v-8.9l-2.65-15.65-1.55 14.15-9.05 19.3v1.75l5.85-9.65-4.65 9.6 1.8-1.15-1.55 1.35-1.95 1.85V65.3l-2.75 2.6-2.55-1.8h-3.8l2.65 2.65 5.15 1.35v2.1l1.8-1.6v2.6h-2.45l1.35 2.4-1.75 1.35V75.4l-3.1-4.1-1.3.9-1.85-3.3.95 4.1h-1.6l-2.4-1.3 2.55 3.55 1.35-1.05h2.85l2.05 3.1.75 1.2 2.6 1.1.9-3.7 1.15 1.5 2.2-6 1.5-2.95 1.4-1.05v4.55l-1.4 4.15 2.05-3.2V68l3.8 3.2v1.7l-.85 1.45 1.25-.9 1.1-.8h3.6l4.9-2.25-3.55.75 9.8-8.85 2.65-2.4-6.1 3.15-4.45 2.35h-6l-2.3-.2m9.95 5.2 2.65-.55-5.9 6.25h3.3l-.4 1.4 3.6.15L209 79.3l14.95.8.65.7-1.1.55-5.45 4.2-5.9 6.5-3.5 2.1v.9l.95 1.35-1.1 1.55-2.55.7-1.25-.6-.7-1.55 1.45-1.75-16.45 4.6-7.5 1.3 1.65 1.05v.95l-1.65 1h-2.2l-1.35-1.8V100h-6.7l1.1-1.3-4.95-1.6-5.3-4v-3.35l7.3-3.55-8.1-.5 7.45-2.25-2.1-1.4h2.4l-3.65-6.8-2.5-1.3h1.9l4.9 1.85-.45-1.9 2.2.55-3.4-4.65 2.65.5-2.25-3-1.4-1.9.55-3.55 2.6 3.55 4.4.65v-1l-1-5.65 6 3.8v-2.25l2.7-6.35 1.4 2.8 6.15-4.55 6.2-10.4 3.65-12.4m-35.95 36.3-29.6-19.2-4.6 3.75-14.45.6-5.6 11.5-2.25 1.8m95.1-10.2 8.05-5.8-7.35 16.6m-3-7.9 2.3-2.9m6.05 9.6 5.1-1.15m38.85 3.45 12.85-18.05Q278 29 298.3 22.6L281 26.3l-30.7 20.9q4.1-1.1 4.3.5 1.35 1.65-1.4 6.15-6.8 3.9-10.95 2.65v-3.85l-8.75 5.95-16.55 3.7m35.4 4.2-12.85 18-10 2.4h-.05m3.3 19.95 3.75 2.65q3.75 5.7 4.5 11.4l5.65 1.9 5.85 6.65q5.9 1.4 7.75.1h.05l.05-.05.1-.05.05-.05-1-.05 1.05-1.1 3.55-3.9 1.55-5.65-1.75-3.9q2.85-2.15 3.2-4.3l4.2-3.6q2.9 3.05 2.1 6.1l-3.7 2.05.85 2.45v5.75l3.15 7.05 7.05 2.05.15.05 1.05.15 1.75-.65 1.6.05.05-1.15-2.8-1.75-2.75-3.2 1.1-.8h7.25l1.85 3.55-.95 2.65 2.8-3.5-.05-4.1-2.55-2.35-2.3 1.3h-6.25l-2.9-1.55h1.05l3.45-3.1 2.85-.7.6-1.05h-5.15l4.85-3.3 4.4-2.35 4.05 3.25v1.85l4.15 4.75-.75 8.05-.3 3.3-3 2.55-.55 2.1-5.35 2.9v.9q-2.9 2.5-11.95 5.3l-9.8-2.35-6.1-4.15-5.55.7q-12.9-.1-23.95-6.9l-1.8-4.7-1.05-2.85-.1-.05-.05-.05-6.25-3.5-1.6-3.2m65.25-1.2 4.8-1.4 5.7 6.5v5.7l-.25 1.1-.55 2.05-.85 3.1m-5.9 5 .05-1.75.1-1.6q.3-3.1.8-4.7m-3.75.7q-.05 1.9-.65 3.7l-.55 1.45-6.8 2.45 1.6-1.55m5.75-2.35h-3.75m-.65-2.45 1.7-.65m-6.55.1h-7.2m8.4 2.35-3.45 1.8v2.75m-37.95-17 5.8-1.65m-13.15 4.05.05.3m-34-42.9h1.5v-1.8l-3.05-.8h-2.2l-1.65 1.15-1.25 2v.95h1.55V82.6l1.3-1.6h3.8v1.35m57.5 236.85q-4.95 24.05-30.2 56.7l-.45.55m7-252.1.1.6m32.4 4.6-4.15 3.2.85 2.15m1.45 2.35 1.85 1.75m3.85-14.65.55-.6M109.7 66q10.25-6.25 15.65-5.7l-6.9-4.4-3.85 3.15m-.45.4.15-.15m-4.6 6.7-2.7 1-6.7-5.05 9.2 1.05m17.85-1q19.25 15.9 30 32.9l.1.15M127.35 62l-2-1.7m63.25 2.3 3.6-8.35-3.7 5.55.1 2.8m-16.05 7.6-1.85.1m15.8 11.85-.85 1.65-4.05 2.3 1.2-2.15 2.5-1.8h1.2m-34.4 35.3-.5 3.7 1.3 6.55m13.25-24.45-7.25-9.7m-14.45 48.1h.75l.25-.15 1.15-3.7 5-6.45 1.7-1.45-.4-2.2m-5.4 12.6-2.05 1.2m-1 12 6.75-.25m2.1-23.35.75 3.65m4.35 48.9-1.9 8.15 1.75 8.4"/><path stroke-width=".05" stroke-opacity=".502" stroke-linejoin="round" stroke-linecap="round" stroke="#260606" fill="none" d="m168.45 67.3-4.7-.95m65.7 20.55.75 1.9v5.5l-1.4 3.05 3.95 4.2v6.1l-5.95-3 3.15 5.4-.15.1-9.9 8.3-5.8 4.5 5.1-2-1.95 2.65-15.5 5.8-1.45-3.5v3.15l-8.3 1.7v-1.5h-4.5v-3.6l-2.4 3.75-8-1.45v-5.15l-4.25 5.4-5.35-2.15h-1.55l-6.25-3.85-1.1 5.85 2 7.75 1.75 4.25 18.45-2.25 21-8.25 7.7-3-1.2 3.7-3.3 10.4 2.45 15.65 10.7 9.1.3 2.55 1.15 9.05 6.85 14.1 5.45 4.35h6.9l4.9-3.5 7.95 10.55 3.95 26.6 1.5 10.05q2.95 21.35 1.9 43l-.65 9.1q-1.75 14.4-6.95 27.95m-23.65-194.05.1 1.6M225.25 81l2.15.95m.55.75-.85 1.05m-2.9-1.2.9-.5m2.1 11.35H225l-4.65 7.25m6.15-5.8 2.3 2.5m-21.3 13.5 4.95-2.45 2.6-2.75 2.65-2.7v2.25m-15.65 8.3 5.45-2.65m20.25 13.5v.8m-23.65 18.5.9-3m-47.95 7.25-.5-.7-.2.5-.4.9 1.4.35 8.55 1.4m41.55 5.95.25 1.8.3 1.75 3.65 3.35-2.8 1.85-23.1 14.6-8.6 6.1-4.35 3.05-14.55 10.2-12.35 12.15q-49.05 3.9-72.4 11.55-24.85 8.05-26.7 22.15v5L57.35 265q9.95-1.6 21.15 4.7-.65-8.95 9.5-10.4-2.3-6.25-8.1-11.15v9.8h-5.25l-4.4-3.55-2.3-1.85 3.85-5.1 2.5-3.3 17.75-2.55 9.9 1.75.9.15q17.7 10.55 32.35 28.6l1.35.65q9.6 6.15 23.7 11.75 0 7.2-14.8 9.75l14.05 10.05 6.7-1.35 1.7-1q5.1-2.75 15.25-5l3.45-.1q16.2-.1 26.5 3.05 6 1.85 9.95 4.85 11.55 8.65 13.6 10.75 10 10 8 18.2 3.9-7.15 6.75-14.5M50.7 242.35v2.15M208 159.85l.85 5.2m23.05 30.4 5.45 4.35 3.55 2.05 4.55-3.05-2.1-3.85m-22.85 8.8 1.15-10.3-.7-5.85-1.35-10.6m.6 29.2-.45 4m6.7-19.1q14.95 18.5 16.6 33.9-27.55 47.4-75.15 76.95m-3.6-11.2 3.35 5.2q-3.7 3.9-8.1 4l-14.1-5.7m91.2 21.25q-7.3 20.05-23.6 33.85l1.55.75q18.95 9.1 6.6 25.8m-3.95-27.55 19.4-4.35q6.35-4.85 7.85-9.65l.15-.65M114.3 59.3l.3-.25m42.85 36-1.6 3.6v3.2l.8 1.2.55.8.4.25m-5.5 13.35-4.9-2.95 1.3-2.65h1.1l1.9-2.7h-1.75l4.6-5h1.4l.9-1.1m-.9 1.1 2.5 3.1m1.45 14.95-3.2-2.2v-3.9l-3.25 2.05-1.15-.7m5.45 16.95h.95l2.1 1.4m-1.2-30.6 4.6 4.3 7.45 3.5h9.25m-24.15 34.2-4.1-5.85.1-.15 5-6.8m-6.35 18.85 5.8-1.45.35-2.85m3.9-18.5q5.2-2.6 11.55-2.05l2.9.45m-13.35 11.2-7.4.95m2.05 10.8q-1.1 8.6-3.4 16.95-2.5 8.75-6.25 17.1l2.45 2.75 6.7 2m-64.45 51-31.15-5.5-10.2 5.35v.9m107.7-59.9 6.75-1.8 2.7 1.2 9.3 3.9m-9.3-3.9 4.95 6.95m-25.45-2.95 11.05-3.4m1.85 102.05 4.05 6.25"/><path stroke-width=".05" stroke-opacity=".2" stroke-linejoin="round" stroke-linecap="round" stroke="#260606" fill="none" d="m115.95 141.45-2.25-4.2 6.35-11.2 3.5 8.7-1.45 5.1.65 3.4 4 1.25.15.5h.7m-4.85-1.75-.8-.25m-4.4 1.25 1.45 1.95m-21 6.65 1.1 1.2 5.45.9 1.35-1.9h2.45v1.45q4.6-2.2 7.2-4.05l2-6.2-.4-.55-1.2-2.25m7 10.2-2.5 1.2-3.75 6.95-.65 1.1m11.55-13.65-.7-2.25m.4 12.35-.95 1.45-12.6 8.8-2.5 1.15-1.65-1.2-7.3-4.3.1-1.2-4.65-.95-2.75-2.2q-2.6-.3-4.15-1.55l-.4-2.65-.3-1.5-3.7-6.35q1.75-2.2 2.8-4.7l.1-.6.8-2.7 6.7-.75 4.6-1-2.75 2.8-1 .95-2 3.3h1.55l6.05-2.35-1.6 2.95-2.8 5.1h-1.2l.3 3 .4 3.1 4.8.9 1.35-1.9m23.05 1.95-.3.45m-25 4 .1.7m-6.7-17.9-1.85 1.35-.35.95m-.3 8.45q.6-3.65-.25-7.3h-.5m.4 8.5.1-.15.25-1.05m8.6 4.15-.2-1.1 1.6-1.1M95 158.9l-2.75-2.15.6-.65m9.45 5.25-.5-2.3m6.5.95 2.7.9 1.95 1 .15-1.65 3.6-.45m-8.4.2-.9 1.7m5.55.2 1 2.1m-5.65-4 .05-5.5m-15.4-6.9.55-1.15m2.95 3.4h1.25m17.85.6-.25.95"/><path stroke-width=".05" stroke-opacity=".353" stroke-linejoin="round" stroke-linecap="round" stroke="#260606" fill="none" d="m127.6 145 6.9-.15 4.9-3.4 5.05.2m-14.9 12.15-.5.75 2.3-.1 13.1-.95m-15.4 1.05-1.45 2.35m.2-9-.2-.65"/></g></defs><path fill="none" d="M-1-1h515v718H-1z"/><g transform="scale(2)"><use x="148.05" y="273.5" xlink:href="#b" width="381" transform="translate(-192.55 -294)" height="381"/><use x="-24.347" y="-12.093" xlink:href="#c" width="102.95" transform="matrix(1.8072 0 0 1.6538 100 59.9)" height="45"/></g></svg>