<svg width="276" height="378" xmlns="http://www.w3.org/2000/svg" xmlns:xlink="http://www.w3.org/1999/xlink"><defs><use xlink:href="#a" width="108.4" height="149.2" id="d"/><use xlink:href="#b" width="102.95" height="45" id="e"/><g id="c" stroke-opacity="0" stroke-linejoin="round" stroke-linecap="round" stroke="#f0f" fill="none"><path d="M187.95-293.5v380h-380v-380h380M92.95.6H-97" transform="translate(192.55 294)"/><path d="m187.95-293.5-190 190 190 190m-380-380 190 190L-192 86.5" transform="translate(192.55 294)"/></g><g id="a"><path stroke-width="3.5" stroke-linejoin="round" stroke-linecap="round" stroke="#292418" fill="none" d="M104.4 54.65q-1.2 1.85-2.8 3.2 4.25 2.65 3.6 11.15L94.4 79.25l-1.6 10.4q-8.65 5.6-18.9 8l2.65 4.65 14.15 10.25v.15l5.7 1.05 1.35 5.2q-1.35 5.3-5.5 9.15l.55 4.4q.15 0 .25.15l-.25.55v.25-.15q-2.5 4.8-2.65 10-6.8-1.2-12.5 1.75-6.15 3.05-11.45 2.25-1.35-2-7.85-3.75-5.9-1.45-7.05-6.25-4.3-5.2-11.75-6.65-7.85-1.6-9.45-3.2l-1.6-3.6Q21.85 108.8 17.05 91.5q.55 0 2-4.25l-2.5-1.85-6.8-1.75 2.65-6L1.75 57.7 7.9 29.2l.5-.1L30.25 7.95l22.9-5.2Q67.4-.05 78.7 4.85q1.05 4.4 16.65 14.8 3.6 4.9 3.7 10.9 0 2.15-.4 4.4l-.25.25.95.4q4.9 2.55 6.65 7.85 1.6 5.05-.8 10l-.8 1.2z"/><path fill-rule="evenodd" fill="#f5ead3" d="M44.85-44.05q0 2.15-.4 4.4l-.25.25q-2.95-1.2-5.75-.9l-.25-.8-5.85-3.1-8.8-1.05-2.65 10.5-7.45-1.2v.15l-5.7 3.45-17.85-7.15-18.25 7.05-2.65-4.8 18.65-10.8L11.05-39l2.55 2-.15 1.05.15-1.05-2.55-2-23.4-9.05L-31-37.25l-1.75-3.2-13.05-5.05 21.85-21.15L8.9-65.2q7.6 7.85 11.75 16.5h16.1l8.1 4.65M50.3-4.9 40.2 4.65l-1.6 10.4q-8.65 5.6-18.9 8l-4.4.8-4.25-.8-4.25-.55q-4.55-.4-9.2 0l-9.85 1.45-4.1 1.1-1.35.4-10.25-7.6-.95-.65-6.25-4.55-2.5-1.85-6.8-1.75 2.65-6q2.65-7.7 11.6-10.9h.25l1.05-.4h.3q1.85 2 3.3 4.65l1.75 4.3v.1l.4 1.6q1.6 6 1.35 14.25l19.4-1.75 8.65 3.75h.15L8-8.1l-1.45.25 1.55-1.7 3.1-3.6L8.1-27.4l8.4.95 5.35 3.15 3.05 8.15 8.25 2.4.25.65 1.35 5.45L50.3-4.9m-13.8 43 5.7 1.05 1.35 5.2q-2.95 1.2-6.4.9h-.4Q33.4 42.6 33.3 38.2q-.15-.4 0-.65l2.5.4.7.15M12 72.7q-1.35-2-7.85-3.75-5.9-1.45-7.05-6.25-4.3-5.2-11.75-6.65-7.85-1.6-9.45-3.2l-1.6-3.6q-1.05-4.1 1.6-8.9 1.2 4.5 7.05 5.45 7.6 1.05 13.45 6.5l.15.8q.65 3.2 6.5 5.9 7.45 3.05 8.55 4.75l.4 8.95m-28.1-46.6 1.85.15 2.65.1 1.9 4.95q-1.9 1.05-3.85 1.6l-1.5.1-1.2.15q-4-2.4-4.5-7.3l4.65.25m37.15-11.45-.4-8L18.75.7 13.6 8.15l7.45 6.5M31.7-4.1l-1.1 6.4 3.35 6.5L31.7-4.1M0 43.4l10 .4 2.4 3.6q-3.1 1.2-7.05 1.2Q.8 46.85 0 43.4" transform="translate(54.2 74.6)"/><path fill-rule="evenodd" fill="#cbc1b4" d="m44.2-39.4.95.4q4.9 2.55 6.65 7.85 1.6 5.05-.8 10l-.8 1.2q-1.5-12.9-10-16.65l-.55-.25q-2-.8-4.35-1.05l-3.6-.3q1.3-.8 2.9-1.3l.4-.15 3.45-.65q2.8-.3 5.75.9m-54.7 7.35q2.65-1.1 5.7-.8 5.85.4 10 5.05l.4.55.55.65q2.75 4 2.5 9.2l-.25 1.45-2.8-4.25q-9.3-12.4-23.55-6 1.05-1.75 2.8-3.05 2.1-2 4.65-2.8" transform="translate(54.2 74.6)"/><path fill-rule="evenodd" fill="#fff" d="M50.2-19.95q-1.2 1.85-2.8 3.2Q51.65-14.1 51-5.6l-.7.7-15.55-1.75-1.35-5.45-.25-.65 1.6.4 8.9 3.7v-6.1l-.4.25q-4 1.2-7.7 0-1.35-.25-2.4-.95-4.95-2.5-6.5-7.55-1.9-5.45.65-10.25 1.6-3.2 4.4-4.95l3.6.3q2.35.25 4.35 1.05l.55.25q8.5 3.75 10 16.65m-6.65 64.3q-1.35 5.3-5.5 9.15l-1.3 1.2-3.45.4-1.35.3.15-1.1q.9-5.15 4.65-9.05h.4q3.45.3 6.4-.9m-4.7 13.7-.25.55v-.4q.15-.15.25-.15m-.25.65q-2.5 4.8-2.65 10-6.8-1.2-12.5 1.75Q17.3 73.5 12 72.7l-.4-8.95 26.35-5.45.65.4M-23.95-66.65l22.9-5.2q14.25-2.8 25.55 2.1 1.05 4.4 16.65 14.8 3.6 4.9 3.7 10.9l-8.1-4.65h-16.1Q16.5-57.35 8.9-65.2l-32.85-1.45m71.35 49.9q-1.75 1.2-3.75 2 2-.8 3.75-2m-65.35-9.45q14.25-6.4 23.55 6l2.8 4.25q-.3 1.85-.95 3.45-1.3 2.8-3.7 5.05Q-.95-3.7-6.9-4.1q-6-.4-9.75-4.8-4.1-4.65-3.6-10.5.15-3.9 2.3-6.8m47.1.4q.25.8 1.2 1.2l1.6.1q.8-.25 1.35-1.05.4-.8.1-1.6-.4-.9-1.2-1.3l-1.6-.15q-.9.25-1.3 1.05t-.15 1.75m-44.05 9.55q-.8.55-.8 1.6 0 .95.65 1.75.55.65 1.6.8.95 0 1.75-.55.65-.65.8-1.6 0-1.05-.55-1.7-.8-.8-1.7-.8-.95-.15-1.75.5m-1.35 49.4 1.2-.15 1.5-.1q1.95-.55 3.85-1.6-.4 3.05-1.6 5.85l-.95 1.85q-1.2 1.9-2.8 3.6l-4.65 1.35q0-2.55.65-4.65.8-3.35 2.8-6.15M12.4 47.4q-.15 1.45-.7 2.95L10 53h-.15l-2.5 2.4-5.1.8q-.4-4 2.7-7.35l.4-.25q3.95 0 7.05-1.2" transform="translate(54.2 74.6)"/><path fill-rule="evenodd" fill="#a06f3f" d="M43.65-14.75v6.1l-8.9-3.7.8-2.15q3.7 1.2 7.7 0l.4-.25M-23.55.8V.7l2.15-6.15L-1.2.95l-8.8 8L-23.55.8" transform="translate(54.2 74.6)"/><path fill-rule="evenodd" fill="#745536" d="m6.15-26.6-.55-.65-.4-.55q-4.15-4.65-10-5.05-3.05-.3-5.7.8l-.8-.4.25-4.4Q-1.6-32.45 8-28.2l-1.85 1.6" transform="translate(54.2 74.6)"/><path fill-rule="evenodd" fill="#d6b57e" d="M-41.8 3.05-52.45-16.9l6.15-28.5.5-.1 13.05 5.05 1.75 3.2 2.65 4.8 18.25-7.05 17.85 7.15 5.7-3.45-.55 2.4.55-2.4v-.15l7.45 1.2-1.35 5.6 2.3 5.85-5.35-3.15-8.4-.95-.1-.8q-9.6-4.25-19.05-8.65l-14.1 11.7-5.2 7.6 5.2 13.95h-.15q-1.45-2.65-3.3-4.65h-.3l-1.05.4h-.25q-8.95 3.2-11.6 10.9m3.85-28.45-2-.95.4-5.05 5.5-4.15 3.05-1.7-3.05 1.7-5.5 4.15-.4 5.05 2 .95" transform="translate(54.2 74.6)"/><path fill-rule="evenodd" fill="#59422b" d="m8.4-15.95.25-1.45q.25-5.2-2.5-9.2L8-28.2l.1.8 3.1 14.25-3.1 3.6-.65-2.95q.65-1.6.95-3.45" transform="translate(54.2 74.6)"/><path fill-rule="evenodd" fill="#d2af8c" d="m32.35-44.2 5.85 3.1.25.8-3.45.65-.4.15-2.25-4.7m-57.5 40.6-5.2-13.95 5.2-7.6 3.75 19.7L-23.55.7l-1.6-4.3" transform="translate(54.2 74.6)"/><path fill-rule="evenodd" d="M29.15-25.8q-.25-.95.15-1.75t1.3-1.05l1.6.15q.8.4 1.2 1.3.3.8-.1 1.6-.55.8-1.35 1.05l-1.6-.1q-.95-.4-1.2-1.2m-44.05 9.55q.8-.65 1.75-.5.9 0 1.7.8.55.65.55 1.7-.15.95-.8 1.6-.8.55-1.75.55-1.05-.15-1.6-.8-.65-.8-.65-1.75 0-1.05.8-1.6" transform="translate(54.2 74.6)"/><path fill-rule="evenodd" fill="#402d1a" d="m34.75-12.35-1.6-.4-8.25-2.4-3.05-8.15-2.3-5.85 1.35-5.6 2.65-10.5 8.8 1.05 2.25 4.7q-1.6.5-2.9 1.3-2.8 1.75-4.4 4.95-2.55 4.8-.65 10.25 1.55 5.05 6.5 7.55 1.05.7 2.4.95l-.8 2.15m-45.25-19.7q-2.55.8-4.65 2.8-1.75 1.3-2.8 3.05-2.15 2.9-2.3 6.8-.5 5.85 3.6 10.5 3.75 4.4 9.75 4.8 5.95.4 10.65-3.35 2.4-2.25 3.7-5.05l.65 2.95-1.55 1.7L-1.2.95l-20.2-6.4-3.75-19.7q6.9-3.6 13.85-7.3l.8.4" transform="translate(54.2 74.6)"/><path fill-rule="evenodd" fill="#705234" d="m-11.05-36.85-.25 4.4q-6.95 3.7-13.85 7.3l14.1-11.7" transform="translate(54.2 74.6)"/><path fill-rule="evenodd" fill="#d5c8b5" d="M-25.3-3.6h.15l1.6 4.3-1.75-4.3m1.75 4.4V.7v.1" transform="translate(54.2 74.6)"/><path fill-rule="evenodd" fill="#d9b080" d="M6.55-7.85 8-8.1 6.4 18.65h-.15L-2.4 14.9l-19.4 1.75q.25-8.25-1.35-14.25l-.4-1.6L-10 8.95l8.8-8 7.75-8.8" transform="translate(54.2 74.6)"/><path fill-rule="evenodd" fill="#ab7e34" d="m19.7 23.05 2.65 4.65-5.85 2.95-1.3-1.2q-2.95-2.7-6.7-5.2-.75-1.1-1.7-1.75l4.25.55 4.25.8 4.4-.8m-45.4 26.2Q-32.35 34.2-37.15 16.9q.55 0 2-4.25l6.25 4.55-.1.65 4.9 22.5q-2.65 4.8-1.6 8.9m9.35-24.2 4.1-1.1-2 2.3-1.85-.15-.25-1.05m4.1 13.95.95-1.85 1.6 3.05-2.55-1.2" transform="translate(54.2 74.6)"/><path fill-rule="evenodd" fill="#865b28" d="m-16.35 25.05.25 1.05-4.65-.25q-2.65 6.35-.8 12.65l.4 1.3-2.95.55-4.9-22.5h1.05l10.25 7.6 1.35-.4" transform="translate(54.2 74.6)"/><path fill-rule="evenodd" fill="#a49360" d="M-27.95 17.85H-29l.1-.65.95.65m53.25 27.4-.4-1.05q-1.05-3.05-2.25-5.3l-1.9-3.35q-1.45-2.15-3.45-4.1 6.65 3.45 11.05 7.45l-3.05 6.35" transform="translate(54.2 74.6)"/><path fill-rule="evenodd" fill="#cdbca0" d="m-21.15 39.8-.4-1.3q-1.85-6.3.8-12.65.5 4.9 4.5 7.3-2 2.8-2.8 6.15-.65 2.1-.65 4.65-.65-2.15-1.45-4.15m20.1 6.15Q-.8 44.6 0 43.4q.8 3.45 5.35 5.2l-.4.25q-3.1 3.35-2.7 7.35l-2.4-3.9q-1.7-3.15-.9-6.35m33.8-7.6q.25-.55.55-.8-.15.25 0 .65.1 4.4 3.45 7.05-3.75 3.9-4.65 9.05l-.15 1.1-.25-1.35-.95-4.25q-.95-6 2-11.45" transform="translate(54.2 74.6)"/><path fill-rule="evenodd" fill="#8d322e" d="m-14.25 26.25 2-2.3 9.85-1.45q4.65-.4 9.2 0 .95.65 1.7 1.75 3.75 2.5 6.7 5.2l1.3 1.2.8.8q2 1.95 3.45 4.1l1.9 3.35q1.2 2.25 2.25 5.3l.4 1.05.95 2.4q1.45 4 2.25 5.6l-2.25.25-2.7.3 1.5-4.4-4.8-11.2L10 35.4l-4.4-1.2-8.9 3.9-1.35 7.05-2.8-1.1-2-3.45-.15-.1-.1-.3-1.6-3.05q1.2-2.8 1.6-5.85l-1.9-4.95-2.65-.1M10 35.4q-2.8-4.35-5.75-7.55-3.2-3.5-6.65-5.35 3.45 1.85 6.65 5.35Q7.2 31.05 10 35.4" transform="translate(54.2 74.6)"/><path fill-rule="evenodd" fill="#cab180" d="M36.5 37.95v.15l-.7-.15h.7m1.55 15.55.55 4.4v.95-.15l-.65-.4-4.65-3.2 3.45-.4 1.3-1.2M-24.1 40.35l2.95-.55q.8 2 1.45 4.15l4.65-1.35q1.6-1.7 2.8-3.6l2.55 1.2.1.3.15.1 2 3.45 2.8 1.1 2 .4 1.6.4q-.8 3.2.9 6.35l2.4 3.9 5.1-.8 2.5-2.4 2.65 2.65-.9 8.1q-1.1-1.7-8.55-4.75-5.85-2.7-6.5-5.9l-.15-.8q-5.85-5.45-13.45-6.5-5.85-.95-7.05-5.45m52.45-1.45 4.4-.55q-2.95 5.45-2 11.45l.95 4.25-1.2-.8-2.15-14.35" transform="translate(54.2 74.6)"/><path fill-rule="evenodd" fill="#7e6445" d="m18.75.7 1.9 5.95.4 8-7.45-6.5L18.75.7m15.2 8.1L30.6 2.3l1.1-6.4 2.25 12.9" transform="translate(54.2 74.6)"/><path fill-rule="evenodd" fill="#b35042" d="m10 35.4 10.25 2.8 4.8 11.2-1.5 4.4-4.25.5-6.9.95L10 53l1.7-2.65q.55-1.5.7-2.95L10 43.8l-10-.4q-.8 1.2-1.05 2.55l-1.6-.4-2-.4 1.35-7.05 8.9-3.9 4.4 1.2 1.3 2.3 2.4 4.5-2.4-4.5-1.3-2.3m11.55 12.25-1.45 1.2 1.45 1.5 1.6-1.75-1.6-.95M18.9 50.6l-1.2-2.25-3.6.5-.5 1.75h5.3" transform="translate(54.2 74.6)"/><path fill-rule="evenodd" fill="#dbcfa4" d="M22.35 27.7 36.5 37.95h-.7l-2.5-.4q-.3.25-.55.8l-4.4.55q-4.4-4-11.05-7.45l-.8-.8 5.85-2.95" transform="translate(54.2 74.6)"/><path fill-rule="evenodd" fill="#be9c65" d="M38.6 57.9q.15 0 .25.15-.1 0-.25.15v-.3m-15.05-4.1 2.7-.3 1.95 5.6 2.3-5.85 1.2.8.25 1.35 1.35-.3 4.65 3.2-26.35 5.45.9-8.1 6.8-1.35 4.25-.5" transform="translate(54.2 74.6)"/><path fill-rule="evenodd" fill="#918153" d="m26.25 53.5 2.25-.25q-.8-1.6-2.25-5.6l-.95-2.4 3.05-6.35 2.15 14.35-2.3 5.85-1.95-5.6" transform="translate(54.2 74.6)"/><path fill-rule="evenodd" fill="#ffbdb5" d="M18.9 50.6h-5.3l.5-1.75 3.6-.5 1.2 2.25m2.65-2.95 1.6.95-1.6 1.75-1.45-1.5 1.45-1.2" transform="translate(54.2 74.6)"/><path stroke-width=".05" stroke-linejoin="round" stroke-linecap="round" stroke="#746330" fill="none" d="M99.05 30.55q0 2.15-.4 4.4l-.25.25.95.4q4.9 2.55 6.65 7.85 1.6 5.05-.8 10l-.8 1.2q-1.2 1.85-2.8 3.2 4.25 2.65 3.6 11.15l-.7.7-10.1 9.55-1.6 10.4q-8.65 5.6-18.9 8m19.15 35-.25.55m0 .1q-2.5 4.8-2.65 10-6.8-1.2-12.5 1.75-6.15 3.05-11.45 2.25-1.35-2-7.85-3.75-5.9-1.45-7.05-6.25-4.3-5.2-11.75-6.65-7.85-1.6-9.45-3.2l-1.6-3.6Q21.85 108.8 17.05 91.5q.55 0 2-4.25l-2.5-1.85-6.8-1.75 2.65-6L1.75 57.7 7.9 29.2l.5-.1L30.25 7.95l22.9-5.2Q67.4-.05 78.7 4.85q1.05 4.4 16.65 14.8 3.6 4.9 3.7 10.9m-1.2 29.3v6.1l-8.9-3.7-1.6-.4m2.4-1.75q3.7 1.2 7.7 0l.4-.25q2-.8 3.75-2M60.35 48l-.55-.65-.4-.55q-4.15-4.65-10-5.05-3.05-.3-5.7.8-2.55.8-4.65 2.8-1.75 1.3-2.8 3.05-2.15 2.9-2.3 6.8-.5 5.85 3.6 10.5 3.75 4.4 9.75 4.8 5.95.4 10.65-3.35 2.4-2.25 3.7-5.05.65-1.6.95-3.45l.25-1.45q.25-5.2-2.5-9.2m1.85-1.6q-9.6-4.25-19.05-8.65m24.5 1.05-.55 2.4m.55-2.55v.15M23.2 37.35l-3.05 1.7-5.5 4.15-.4 5.05 2 .95m6.95-11.85 18.65-10.8 23.4 9.05 2.55 2-.15 1.05m7.45 1.2 2.65-10.5 8.8 1.05 5.85 3.1.25.8q2.8-.3 5.75.9m-36.1 12-.1-.8m13.85 4.9-2.3-5.85 1.35-5.6m10.8-3.45q-2.8 1.75-4.4 4.95-2.55 4.8-.65 10.25 1.55 5.05 6.5 7.55 1.05.7 2.4.95m-.95-25q-1.6.5-2.9 1.3m6.75-2.1-3.45.65-.4.15M76.05 51.3l3.05 8.15 8.25 2.4m-61.9 4.5h-.15l-1.05.4H24q-8.95 3.2-11.6 10.9M29.05 71l-5.2-13.95 5.2-7.6 14.1-11.7M30.65 75.4v-.1l-1.6-4.3m12.9 27.55-4.1 1.1.25 1.05m3.85-2.15 9.85-1.45q4.65-.4 9.2 0l4.25.55 4.25.8 4.4-.8m-36.05 2-1.35.4-10.25-7.6-.95-.65-6.25-4.55m22.9 26.35 2.55 1.2m28.45-39.5-5.15 7.45 7.45 6.5M85.9 70.5l2.25 12.9M62.3 65.05l3.1-3.6-3.1-14.25m-1.55 19.55 1.55-1.7M30.65 75.4l13.55 8.15 8.8-8 7.75-8.8m3.3 60.85 2.65 2.65 6.8-1.35"/><path stroke-width=".05" stroke-linejoin="round" stroke-linecap="round" stroke="#847344" fill="none" d="m73.9 97.65 2.65 4.65 14.15 10.25v.15l5.7 1.05 1.35 5.2q-1.35 5.3-5.5 9.15l.55 4.4m0 .7v.25M38.1 100.7l1.85.15m-6.9 13.55-.4-1.3q-1.85-6.3.8-12.65l4.65.25m6.4 5.2-1.9-4.95-2.65-.1m2.95 10.9-.95 1.85q-1.2 1.9-2.8 3.6l-4.65 1.35q-.65-2.15-1.45-4.15m9.85-2.65q1.2-2.8 1.6-5.85m8.65 14.65q.25-1.35 1.05-2.55l10 .4 2.4 3.6q-.15 1.45-.7 2.95l-1.7 2.65h-.15l-2.5 2.4-5.1.8-2.4-3.9q-1.7-3.15-.9-6.35m36.85-8 .7.15m-3.75.25q.25-.55.55-.8l2.5.4m-4.1 16.1-.95-4.25q-.95-6 2-11.45m.55 16.75-1.35.3-.25-1.35m6.35-.55-1.3 1.2-3.45.4m5.3 3.1v-.3m0 .7v-.4m-10.4.9-1.95-5.6"/><path stroke-width=".05" stroke-linejoin="round" stroke-linecap="round" stroke="#74342c" fill="none" d="m39.95 100.85 2-2.3m2.55 16.25-1.6-3.05M61 97.1q.95.65 1.7 1.75 3.75 2.5 6.7 5.2l1.3 1.2m-26.1 9.85-.1-.3m7.3-17.7q3.45 1.85 6.65 5.35 2.95 3.2 5.75 7.55l1.3 2.3 2.4 4.5m9.85 11.6 2.7-.3 2.25-.25q-.8-1.6-2.25-5.6l-.95-2.4-.4-1.05q-1.05-3.05-2.25-5.3l-1.9-3.35q-1.45-2.15-3.45-4.1l-.8-.8m-21.15 14.5 2 .4 1.6.4m11.05 7.05 2.4 2.25 6.9-.95 4.25-.5m-28.2-8.65-2.8-1.1-2-3.45"/><path stroke-width=".05" stroke-linejoin="round" stroke-linecap="round" stroke="#f1e4dc" fill="none" d="m75.25 89.25-.4-8-1.9-5.95"/></g><path fill-rule="evenodd" fill-opacity="0" fill="#f0f" d="M0 0h102.95v45H0V0" id="b"/></defs><path fill="none" d="M-1-1h278v380H-1z"/><g transform="scale(2)"><use x="83.05" y="208.5" xlink:href="#c" width="381" transform="translate(-192.55 -294)" height="381"/><use x="66.302" y="166.454" xlink:href="#d" width="108.4" transform="translate(-82.19 -207.492) scale(1.2526)" height="149.2"/><use x="-60.314" y="-51.397" xlink:href="#e" width="102.95" transform="matrix(1.8072 0 0 1.6538 87 115)" height="45"/></g></svg>