<svg width="461" height="333" xmlns="http://www.w3.org/2000/svg" xmlns:xlink="http://www.w3.org/1999/xlink"><defs><use xlink:href="#a" width="102.95" height="45" id="c"/><use xlink:href="#b" width="277.55" height="200.35" id="e"/><g id="d" stroke-opacity="0" stroke-linejoin="round" stroke-linecap="round" stroke="#f0f" fill="none"><path d="M187.95-293.5v380h-380v-380h380M92.95.6H-97" transform="translate(192.55 294)"/><path d="m187.95-293.5-190 190 190 190m-380-380 190 190L-192 86.5" transform="translate(192.55 294)"/></g><g id="b"><path fill-rule="evenodd" fill="#485869" d="m65.7 6.95-.2 4.1-.8 18-3.2 3.2q-6.3 6-13.2 10.9-4.9 3.45-10.15 6.35l9.1-16.1-9.1 16.1-.5.3-4 2.05-.4.2-9.85 1.85q-18 2.2-36.65-3.65l24.2-7.3.4-4.15-.4 4.15-24.2 7.3-.05-.05-21.35-15.15v-11.2h11.6L3.5 37.65l7.85 1.15 22.7 3.35 13.2-8.75q10.7-10.45 16.45-22l2-4.45m-161.2 12.4-1.85-.6-23-16.3-2.05-4.15-4.85-11.15 13.4 8 17-17.5-4.25-23.55 3.85-.15 2.3-10.75 12.7-14.55 1.45-.6q-2.65 5.5-1.65 13.5.8 6.85 4.05 11.15l1.45 1.7q1.1 1.1 2.45 2.05l-1.95 1.85-1 1.2q-2.2 2.8-2.3 6.45-.2 5.25 1.1 10.2-12 1.95-11.6 13.2.1 2.25 1.9 4-10.85 3.25-8 13.35 1.05 3.65 4.7 4.85l.25.1-.7 1.25 1.45.85-.05.2-.9 1.45-1.85 3.05-1.35.55-.7.35m-1.85-64.7.1-.7 2.3.7 16.55-1.95-16.55 1.95-2.3-.7-.1.7" transform="translate(138.75 100.15)"/><path fill-rule="evenodd" fill="#536475" d="M-127.25-12.85q-8.05-20.2-11.25-40.95l3.65-3.6q14.45 11.45 33.75 11.5l4.25 23.55-17 17.5-13.4-8" transform="translate(138.75 100.15)"/><path fill-rule="evenodd" fill="#dec696" d="m42.95-65 2.5 3.4v16.25q4.45-8.05 13.6-10.2 6.5-1.4 13.05-1.2-.65-2.35-2.2-4.1-9.2-9.7-22-6-10.1-11.5-24.55-18.8l-.05-.05q-4.5-2.3-9.7-2.45l-2.75-.25q-6.75-.2-12.3 2.55-3.95 1.95-7.25 5.3-4.5 3.3-8.8 6.25l-2.85 1.95-.4.25-.4.35-2.2-3.85-.2-.4-.3-.35-.3-.4-1.05-.65.2-.45q2.65-5.95 8.5-5.85l1.55.15 2.15-2.6 1.2-1.3.4-.4q2.5-2.5 5.15-4.2-2.65 1.7-5.15 4.2l-.4.4-1.2 1.3-.2-.35q-1.65-2.75-4-4.75-9.1-4-18.75-.35-8.5 3.15-12.9 9.9l.7-2.1q6.15-16.55 22-16.1 2.35.1 4.45 1.35l7.8 6.65.2-1.1q4.55-.5 7.45.95 10.5-6.7 23-.05 3.95 2.1 8.1 5.55 10.8-4.85 18.7 7.4Q71.3-74 73.3-51.8l.9.65.15.1-.3.1q2.6 2.65 7.75 15.65 1 2.55 1.6 5.1 3.4 2.8 3.1 7.9-.15 3.25-2.2 6l-1.75 1.9-1.35 3.25q.9 1.6.7 3.95-.35 4.45-3.7 7.7-4.1 3.95-9.25 3.85L68.6 8.9q-1.45 1.55-3.1 2.15l.2-4.1.8-17.2q-2.9-13.35-13.9-26.6-10-7.95-30.65-10.6-13.9 3.3-20.15 7.55L-9.45-27.05l-2.95.95-2.1 2.9q-1.2 1.4-1 6.6l.15 2.1-7.3-.25q2.15-2.2 2.75-5.6.25-1.25-.3-2.35-3.05-4.05-7.75-5.4l-.75-.15-2.75-.5-.8 3.2q-1.4 4.45-3.75 7.85-7.95-2.85-14.8-8.3l-2.3 2.35Q-60.9-31.8-56-41l.35-.6.4-.7-.35-.05q1.65-19.25 24.45-17.3-3.2 6.75-1.85 14.25l.2 1.15-.2-1.15q.6.4.2 1.15.1.3-.15.65.75 8.05 7.4 12.9l.1-1.45q.4-3.8 2.65-6.95 1.9-2.6 5-3.65l.05-.05-.1-.15q-2.4-3.8-2.35-7.2.05-4.75 4.75-8.85 8.1-7.05 12.25-6.05-3.35 8.2 1.45 16.2l-.05-.05q-2.85.8-1.35 3.1l-2.25-1.3q-10.05 1.3-6.05 10.75 1.15 2.7 4.05 2.45Q1.4-35-1.6-44.25l-.4-.8q.25-.05.55-.25Q.3-46.4.1-47.35l7.25-.25q2.8-17.9 19.9-21.8 1.25-.25 2.6-.85 1.65-.85 3.4-2.25l1 3.7q1.6 7 .35 10.4l-.6.8-.75 1.35q.85-.95 1.35-2.15 3.2-4.5 8.25-6.55-5.05 2.05-8.25 6.55-.5 1.2-1.35 2.15L34-57.6l.6-.8q1.25-3.4-.35-10.4 3.7.2 5.85 3.2l2.75.65.1-.05m-59.6-16.25 1.7-2.3-1.7 2.3M76.2-32l-.2.2q-2.7 3.35-6.65 5.2-.05 2-.65 4-.5 1.9.8 3.2 5.3 5.3 7.4-2.25 1.7-6.2-.7-10.35 6.25-8.25-2.35-15.15l-.95.6q-1.5 8.05-8.9 9.4l-.95-.15.95.15q7.4-1.35 8.9-9.4l.95-.6q8.6 6.9 2.35 15.15m-7.5 5.7.65-.3-.65.3m4.2-20.25-.8-10.2.8 10.2m35.75 62.75.65-.4v-.05l2.75-3.35q-2.85-6.85-3.25-11.3 1.3 2.9 3.95 4.85l.1.25h3.85l-.35 3.85q1.05 2.45 3.85 3.15h2.4q2.6-4.2 8.4-6.3h1.4l1.75 1.75-3.15 1.4q.35 3.85 1.7 7.4l-2.45-.5q2.6 2.45 2.15 5.15.75 5.55-5.95 5.75-2.3.55-3.2-1.3l-.5-1.9Q111.4 33.7 109.3 16.1v-.3l-.4.3-1.6 1.05v-.1l1.35-.85m-170.4 57.75q-4.5-.85-9.25-2.6l-1.8 3q-5.9 3.45-8.65 2.75-5.3 4.2-18.05 9.1 10.35-7 13.6-17.5l1.2-12.2-4.9-2.25-3.65-2.35-2.55-1.6-5.3-10.25q.8-1.35 2.3-2.45h2.25q.05 4.75 2.3 8.65 2.6 4.5 7.6 6.35l2.3.75q3.9 1.05 7.95.5 2.3 2.85 5.85 4.4l3.75-4.75v-4.6l-6.6-7-6.8-12.4q-3.5-4.9-12-9.25-1.3-.65-2.6-1.25l1.35-.55q3.85.3 7.35 1.9l6.1 4.2q1.6-.4 3.2 0 2.4.2 3.8 2.15l9.6.55 6.5 1.65q1.35.2 2.25 1.05l-.95-.2 1 .35q7.75 2.65 9.8 9.1l.75 1.05q1.85.7 3.3 2 3 2.85 3.1 7.2 1.75.9 3.2 2.2.9.9 1 2.3l.3 2.85q.25 2-1.15 3.5 1.2.5.7 1.8-.7 1.7-1.75 3.35-.7 1.1-2.05 1.1l-3.2-.15-1.2.65q.9 2.85-1.7 4.35-2.7 1.5-5.7.9l-.45 1.95h-1.8l1.15.6-.25.2-.9-.05-9.75-.95-.3-.2v.05l.05.1-.3-.05M-80.8-71.95q3.65-7.65 14.4-10.5l6.3.2 4 2.35q-9.15 1.1-14.8 8.9l-1.6 1.75q1 4.2 1 8.5-5.8 6.75-5.45 15.15l-1.45-1.7q-3.25-4.3-4.05-11.15-1-8 1.65-13.5M128.75 11v4.75l1.5 1.2-1.5-1.2V11m-6 13.65-.9-3.75.9 3.75M82.2 2.5q3.5 1.7 1.15 5.3-2.5 3.8-6.85 4.05-1.5.1-1.4-1.4.1-2.25 2.55-3.15.9-.35 1.4-1.25 1-1.85 2.45-3.2.35-.3.7-.35m-2.8 20.35-.2 1-2.95 1.8 3.15-2.8m-91-110.3q-.55-2.2-2.1-4.45 1.55 2.25 2.1 4.45m-47.7 39-.3.4.25-.5.05.1M-49.35.6Q-56.4-2.3-64.3-2.8l-8.9.5q-3.2-4.9-8.8-6.4-.85-8.1 6.5-10.5 9.05-10.1 22-4.05l-.9.9Q-52.65-10.8-49.35.6m11.05 29.15-2.35-.4Q-43 28.8-44.7 27.6q-2.2-1.6-3.3-4.3l-.1-.3q3.1-.7 5.75-2.45l4.05 9.2m-8.1-19.9 2.3 6.35q-1.5 1.2-4.05 1.6l-1.65-.3q2.5-3.55 3.4-7.65m-20.95 11.3q-3.9 1.4-8.05 1.55-1.6.05-2.4-1.25-1.1-.65-2.25-1.35-2.7-.5-4.85-1.5.5.6-.65 1.3-.5.3-.85-.25-.65-1.2.55-1.5-3.05-1.65-4.8-4.35l-.05.15q-.55 1.5.6 3.1l-1.5-1.65.9-1.45.05-.2q-.05-1.5-.4-1.7-.35-.2-1.05.85l.7-1.25q3.5 1.1 7.2 1.6 2.4.4 4.65-.6-2.25 1-4.65.6-3.7-.5-7.2-1.6l-.25-.1 12.1 1.1q5.3 4.5 11.95 2.85l3-.6.35.5 1.4 1.3 1.55 1q1.2.35 1.15.6l-.65.35-1.3.1h-.5l1.3-1.05-1.3 1.05-4.75 2.4m-10.6-3.45.15 3.75-.15-3.75m-12.7-3.95v.05-.05.05-.05m26 30 .05.15q3.15.65 6.2-.4l.8-1 .2-3.4q-5.65-6.25-13.7-3.1-.45.2-.5.9l.6.2q3.85 2.95 6.35 6.65M-51.4 58.4q-4.55 1.7-9.5 1.8-5.1.1-9.65-1.95Q-66 60.3-60.9 60.2q4.95-.1 9.5-1.8 2.45 1.45 4.8 1.8l3.8-.3q-8.15-4.9-8.2-9.6l-1 .4q-.55 2.1-.4 4.5l.15 1.5.05.6.8 1.1m-27.2 3.95q.4 1.1.55 2.4l.05.9-.2 2.8q-.65 3.9-3.25 8.65 2.6-4.75 3.25-8.65l.2-2.8-.05-.9q-.15-1.3-.55-2.4m7.95 8.4-.35.6.35-.6M-26 59.4q2.1 1.6 1.6 4.3-1.05 5.25-6.1 3.8h.1q2.8-2.65 2.7-6.7l-.7-1.6 2.4.2" transform="translate(138.75 100.15)"/><path fill-rule="evenodd" fill="#cda461" d="M-36-17.7q2.35-3.4 3.75-7.85l.8-3.2 2.75.5.75.15q4.7 1.35 7.75 5.4.55 1.1.3 2.35-.6 3.4-2.75 5.6Q-29.7-15.4-36-17.7M65.5 11.05q1.65-.6 3.1-2.15l.35-4.55q5.15.1 9.25-3.85 3.35-3.25 3.7-7.7.2-2.35-.7-3.95l1.35-3.25 1.75-1.9q2.05-2.75 2.2-6 .3-5.1-3.1-7.9-.6-2.55-1.6-5.1-5.15-13-7.75-15.65l.3-.1q7.1 5.2 13 14.6 5.65 10.7 4.35 21.9v.3l-.05.4-.25 1.35q-.85 3.65-3.6 8.8 6 12.95 2.8 22.35 1.65 5-1.6 10l.3-2.8q-5.85-5.4-8.35-4.8l-1.55 1.8-3.15 2.8-6.85 4.1-.35.05q-3.5 1.55-7.55 2.45l3.2-3.2.8-18m-78.3-97.2-2.15 2.6-1.55-.15q-5.85-.1-8.5 5.85l-.2.45-1-.55q-6-3.1-12.35-1.85-5.2.35-10.05 4.05l-.15.1-.65.55-.05-.85v-.1q-.05-2.35.5-4.55l.3-1.1q4.4-6.75 12.9-9.9 9.65-3.65 18.75.35 2.35 2 4 4.75l.2.35M69.35-26.6q3.95-1.85 6.65-5.2l.2-.2q2.4 4.15.7 10.35-2.1 7.55-7.4 2.25-1.3-1.3-.8-3.2.6-2 .65-4m-21.7 80.15q-3.4.15-6.8-1.2-1.2 2.85-3.2 4.55l-.05-.35.05-2.25v-.4q-2.2-1.25-4-2.05l4-2.05.5-.3q5.25-2.9 10.15-6.35l-.2.9q-.6 2.65-.8 5.4-.15 2.05.35 4.1M-7.3 63.2l.8 10.15q-2.25-.25-4.55-1.1l-1.75-.7-.2-.1.2-.2-3.35-1.55q-3.05 1.65-6.45 2.8-3.3 1.2-6.7 1.15-4.25-.15-7.75-2.25l-4 1.35q-4.1 1.45-8.6 1.5l.45-1.95q3 .6 5.7-.9 2.6-1.5 1.7-4.35l1.2-.65 3.2.15q1.35 0 2.05-1.1 1.05-1.65 1.75-3.35.5-1.3-.7-1.8 1.4-1.5 1.15-3.5l-.3-2.85q-.1-1.4-1-2.3-1.45-1.3-3.2-2.2-.1-4.35-3.1-7.2-1.45-1.3-3.3-2l-.75-1.05q-2.05-6.45-9.8-9.1 7.25 2.1 9.9-2.5 1.7 1.2 4.05 1.75l2.35.4 2 4.15 1.65 1.15L-13.3 50.2l.05.05Q5.4 56.1 23.4 53.9l-.9.4-7.5 3.65-.35.05Q5.6 61.2-7.3 61.85v1.35M-56.1-79.9l3.55 2.6 3.1 1.35.05.85-.6.5-2.55-2.7 2.55 2.7-3.3 3.3q-5.6 5.4-6.6 13.5-.45 3.35.05 6.45l.5 2.8-.25.5.3-.4.4 2.15-1.4-.3-.25-.05q-8.3-1.55-13.95 3.1-1.35-.95-2.45-2.05-.35-8.4 5.45-15.15 0-4.3-1-8.5l1.6-1.75q5.65-7.8 14.8-8.9M82.2 2.5q-.35.05-.7.35-1.45 1.35-2.45 3.2-.5.9-1.4 1.25-2.45.9-2.55 3.15-.1 1.5 1.4 1.4 4.35-.25 6.85-4.05 2.35-3.6-1.15-5.3m.35 16.5-1.6 2.05 1.6-2.05m-93.5 40.7q.1 5.7-4.3 9.3l-.9.7.9-.7q4.4-3.6 4.3-9.3m-39.6 15.35.25-.2.3.2h-.55M-26 59.4l-2.4-.2.7 1.6q.1 4.05-2.7 6.7h-.1q5.05 1.45 6.1-3.8.5-2.7-1.6-4.3" transform="translate(138.75 100.15)"/><path fill-rule="evenodd" fill="#f5eed3" d="M72.1-56.75q-6.55-.2-13.05 1.2-9.15 2.15-13.6 10.2V-61.6l-2.5-3.4q2.55-1.2 4.95-1.85-2.4.65-4.95 1.85l-.1.05-2.75-.65q-2.15-3-5.85-3.2l-1-3.7q-1.75 1.4-3.4 2.25-1.35.6-2.6.85-17.1 3.9-19.9 21.8l-7.25.25q.2.95-1.55 2.05-.3.2-.55.25l.4.8Q1.4-35-7.4-33.9q-2.9.25-4.05-2.45-4-9.45 6.05-10.75l2.25 1.3q-1.5-2.3 1.35-3.1l.05.05q-4.8-8-1.45-16.2-4.15-1-12.25 6.05-4.7 4.1-4.75 8.85-.05 3.4 2.35 7.2l.1.15-.05.05q-3.1 1.05-5 3.65-2.25 3.15-2.65 6.95l-.1 1.45q-6.65-4.85-7.4-12.9.25-.35.15-.65.4-.75-.2-1.15-1.35-7.5 1.85-14.25-22.8-1.95-24.45 17.3l.35.05-.4.7-.35.6q-4.9 9.2 2.9 17.35l-.4.4q-12.95-6.05-22 4.05-7.35 2.4-6.5 10.5 5.6 1.5 8.8 6.4l8.9-.5q7.9.5 14.95 3.4l2.95 9.25q-.9 4.1-3.4 7.65l1.65.3q2.55-.4 4.05-1.6l1.75 4.35Q-45 22.3-48.1 23q-7.5 1.85-14.95-.3l-2.1-.7-2.2-.85 4.75-2.4h.5l1.3-.1.65-.35q.05-.25-1.15-.6l-1.55-1-1.4-1.3-.35-.5-3 .6q-6.65 1.65-11.95-2.85l-12.1-1.1q-3.65-1.2-4.7-4.85-2.85-10.1 8-13.35-1.8-1.75-1.9-4-.4-11.25 11.6-13.2-1.3-4.95-1.1-10.2.1-3.65 2.3-6.45l1-1.2 1.95-1.85q5.65-4.65 13.95-3.1l.25.05 1.4.3-.4-2.15-.05-.1-.5-2.8q-.5-3.1-.05-6.45 1-8.1 6.6-13.5l3.3-3.3.6-.5.65-.55.15-.1q4.85-3.7 10.05-4.05 6.35-1.25 12.35 1.85l1 .55 1.05.65.3.4.3.35.2.4 2.2 3.85.4-.35.4-.25 2.85-1.95q4.3-2.95 8.8-6.25 3.3-3.35 7.25-5.3 5.55-2.75 12.3-2.55l2.75.25q5.2.15 9.7 2.45l.05.05q14.45 7.3 24.55 18.8 12.8-3.7 22 6 1.55 1.75 2.2 4.1M-15.35-14.5l-.15-2.1q-.2-5.2 1-6.6l2.1-2.9 2.95-.95-1.45 1.7-2.25 10.75-2.2.1M-3.2-65.05q1.3-3.2 3.8-6.45 11.85-15.15 28.35-5.6 2.7 1.55 4.3 4.6-1.6-3.05-4.3-4.6Q12.45-86.65.6-71.5q-2.5 3.25-3.8 6.45m112 66.15q-.85-9.4 9.35-8.2 5.8.9 5.8 3.65 16.7-3.35 14.3 17.6-.85 3.85-5.55 3.3-1.35-3.55-1.7-7.4l3.15-1.4-1.75-1.75H131q-5.8 2.1-8.4 6.3h-2.4q-2.8-.7-3.85-3.15l.35-3.85h-3.85l-.1-.25Q110.1 4 108.8 1.1M-99.5 86.2l-1.55.55q-8.25.4-8.75-3.4l-1.55-5.9q-.35-5.8 3.9-9.35-3.55-2.7-2-7.75l10.95-7.85q-2.2-2.95-3.25-6.65-.9-3 .65-5.8l5.3 10.25 2.55 1.6-.5.4 4.15 1.95 4.9 2.25-1.2 12.2q-3.25 10.5-13.6 17.5m2.95-48.6v-1.3l-3.85-3.3q-1.35-2.05-1.3-4.6.1-2.85 1.8-5.2 1.7-2.5 4.4-3.85l.7-.35q1.3.6 2.6 1.25 8.5 4.35 12 9.25l6.8 12.4 6.6 7v4.6l-3.75 4.75q-3.55-1.55-5.85-4.4-4.05.55-7.95-.5l-2.3-.75q-5-1.85-7.6-6.35-2.25-3.9-2.3-8.65m220.5-41.05q0 2.7-4.45 5.85 4.45-3.15 4.45-5.85M-83.65-6.4l-4.7-.25 4.7.25m52.5-53.25q1.1-2.4 2.8-4.7 2.8-3.85 7.2-7.4-4.4 3.55-7.2 7.4-1.7 2.3-2.8 4.7m-27.1 16.8-.65-3.45.65 3.45m57.5-4.45-1-1.55 1 1.55m-63.9 91.05q-2.5-3.7-6.35-6.65l-.6-.2q.05-.7.5-.9 8.05-3.15 13.7 3.1l-.2 3.4-.8 1q-3.05 1.05-6.2.4l-.05-.15M-51.4 58.4l-.8-1.1-.05-.6-.15-1.5q-.15-2.4.4-4.5l1-.4q.05 4.7 8.2 9.6l-3.8.3q-2.35-.35-4.8-1.8l.35-.25q-.9-.7-1.2-1.45.3.75 1.2 1.45l-.35.25m-25-4.55q-1.7-2.05-1.5-2.9-.2.85 1.5 2.9m29.8 6.35q-2.85-.75-4.45-2.05 1.6 1.3 4.45 2.05m-11.85-45.6-2.85 3.1 2.85-3.1M-98.5 52.5l2.05-1.45-2.05 1.45m-8.95 15.6 4.8-4.65-4.8 4.65" transform="translate(138.75 100.15)"/><path fill-rule="evenodd" fill="#a86f37" d="m91.4-12.5.25-1.35q2.35-2.3 5.5-3.15l5.6.2q1.35.55 2.4 1.55 3.85 3.4 3.75 8.5 0 1.4-.4 2.75-.8 2.65-2.1 5.2-2.05 4-2.8 8.35-.45 2.55 1.05 4.65 1.5 2.25 4 2l-1.35.85v.1l1.6-1.05.4-.2v.2q-2.2 2-4.75.8-3.5-1.6-3-5.6l.7-3.45q1.05-4.2 3.15-8l1.1-2.65q1.4-4.9-1.55-9.35-1.6-2.4-4.3-2.75-5.05-.6-9.25 2.4" transform="translate(138.75 100.15)"/><path fill-rule="evenodd" fill="#957959" d="m89 28.65-.05.55q-.15 5.4 0 10.75l.3 7.4q.3 4.95-.95 9.75-1.4 1.85-3.35 3.5-2.15 1.75-4.45 3-5.2 2.6-11.65 2.6-6.65 0-11.9-2.7-2.3-1.2-4.25-2.9l-2.8-2.8-2.25-4.25q-.5-2.05-.35-4.1.2-2.75.8-5.4l.2-.9q6.9-4.9 13.2-10.9 4.05-.9 7.55-2.45l.35-.05 6.85-4.1 2.95-1.8.2-1 1.55-1.8q2.5-.6 8.35 4.8l-.3 2.8M37.65 56.9l2.55 19.15-.55-.4q-3.35 4.65-8.5 7.55-3.75 2.05-8 2.95l-9.4.65-7.2-1.15q-4.75-1.4-8.75-4.1l-3.25-2.65-1.85-15.7v-1.35Q5.6 61.2 14.65 58l.35-.05 7.5-3.65.9-.4 9.85-1.85.4-.2q1.8.8 4 2.05v.4l-.05 2.25.05.35m17.1-14.45h-.05q-4.7 3-4.65 7.15v.1q0 1.75.9 3.3 1.15 2 3.8 3.65 4.85 3 11.65 3.05 6.75-.05 11.5-3.05 4.85-2.95 4.9-7.05-.05-2.6-1.9-4.7l-.35-.4q-12.35 1.55-20.95-.45-2.6-.65-4.85-1.6M32.35 64.3 32 62.7l-3.2-1.45q-6.2 5.5-5.05 13l.25 3.2.6 1.25q5.4.35 7.35-5.05 1.7-4.65.4-9.35m-82 9.95q4.5-.05 8.6-1.5l4-1.35q3.5 2.1 7.75 2.25 3.4.05 6.7-1.15 3.4-1.15 6.45-2.8l3.35 1.55-.2.2-2.6 1.85q-2.65 1.65-5.6 2.8-6.8 2.6-15 2.2-7.8-.35-13.8-3.25l-.3-.2-1.15-.6h1.8" transform="translate(138.75 100.15)"/><path fill-rule="evenodd" fill="#5f829a" d="m-53.1-23.65 2.3-2.35q6.85 5.45 14.8 8.3 6.3 2.3 13.35 2.95l7.3.25 2.2-.1 2.25.75 4-.5 21.05 24.9-2.8 28.25-7.85-1.15-26.55-13.8h-11.6v11.2l-1.65-1.15-2-4.15-4.05-9.2-1.75-4.35-2.3-6.35L-49.35.6q-3.3-11.4-5.05-22.95l.9-.9.4-.4M88.3 57.1q1.7 1.65 1.7 3.65 0 2.9-.35 2.3L84 66.9q-6.05 2.6-14.6 2.6-8.6 0-14.65-2.6-1.7-.75-5.9-4.4-.1.8-.05-1.75 0-1.6 1.1-2.95l2.8 2.8q1.95 1.7 4.25 2.9 5.25 2.7 11.9 2.7 6.45 0 11.65-2.6 2.3-1.25 4.45-3 1.95-1.65 3.35-3.5M40.2 76.05q1.7 1.55 1.9 3.45.3 3.25-.15 2.6l-6.3 4.55q-6.9 3.2-17.05 3.7-10.2.5-17.65-2-2.1-.7-7.45-4.5v-.05q-.9-2.75.7-5.2l.35.3 3.25 2.65q4 2.7 8.75 4.1l7.2 1.15 9.4-.65q4.25-.9 8-2.95 5.15-2.9 8.5-7.55l.55.4m-51.25-3.8-.05 3.3q-5.6 3.6-7.8 4.3-7.75 2.4-18.3 1.9-10.6-.5-17.75-3.55l-6.25-4.15 9.75.95.9.05h.55q6 2.9 13.8 3.25 8.2.4 15-2.2 2.95-1.15 5.6-2.8l2.6-1.85.15.15.05-.05 1.75.7m-.05 3.4v.85l-.1.1.1-.95m-50.25-1-.15-.1q-.25.4-.25-.6l.3.05.1.65m48.05-88.5.15-.75-.15.75m16 26.8q5.65-1.15 1.1-5.3l-17-7.2Q-16.9.3-15.75 4L2.7 12.95" transform="translate(138.75 100.15)"/><path fill-rule="evenodd" fill="#425a68" d="M89.65 63.05q-1.25 5.45-2.55 8.8-1.3 3.25-5.25 4.1l-12.5 1.85-1.4.1-2.25-5.6-3 5.55q-4.5-.5-8-2.55-5.15-2.95-5.85-5.45v-.05l-.05-.7.05-6.6q4.2 3.65 5.9 4.4 6.05 2.6 14.65 2.6 8.55 0 14.6-2.6l5.65-3.85M41.95 82.1q-.95 6.05-2.1 9.8-1.2 3.7-5.75 4.8l-14.7 2.75-1.65.25-3.2-6.05-3 6.3q-5.35-.3-9.75-2.35-6.45-2.95-7.55-5.7v-.05l-.15-.75-.6-7.25q5.35 3.8 7.45 4.5 7.45 2.5 17.65 2 10.15-.5 17.05-3.7l6.3-4.55m-53.05-6.55v-.05.15-.1.1l-.1.95-.55 5.85-.15.75-.05.05q-1.1 2.6-7.8 5.45-4.6 1.9-10.15 2.25l-6.45-.25-1.7-.2-13.35-2.25q-.6-2.55-1.8-4.85l-1.3 4.15q-3.75-1.25-4.8-4.35-1.15-3.3-2.05-8.55l-.1-.65-.05-.1v-.05l.3.2 6.25 4.15q7.15 3.05 17.75 3.55 10.55.5 18.3-1.9 2.2-.7 7.8-4.3m-81-62.65q.7-1.05 1.05-.85.35.2.4 1.7l-1.45-.85" transform="translate(138.75 100.15)"/><path fill-rule="evenodd" fill="#c5b69e" d="M54.75 42.45q2.25.95 4.85 1.6 8.6 2 20.95.45l.35.4q1.85 2.1 1.9 4.7-.05 4.1-4.9 7.05-4.75 3-11.5 3.05-6.8-.05-11.65-3.05Q52.1 55 50.95 53q-.9-1.55-.9-3.3v-.1q-.05-4.15 4.65-7.15h.05M32.35 64.3q1.3 4.7-.4 9.35-1.95 5.4-7.35 5.05l-.6-1.25-.25-3.2q-1.15-7.5 5.05-13L32 62.7l.35 1.6" transform="translate(138.75 100.15)"/><path fill-rule="evenodd" fill="#3c2c13" d="M-44.7 27.6q-2.65 4.6-9.9 2.5l-1-.35.95.2q-.9-.85-2.25-1.05l-6.5-1.65-9.6-.55q-1.4-1.95-3.8-2.15-1.6-.4-3.2 0l-6.1-4.2-4-3.3q-1.15-1.6-.6-3.1l.05-.15q1.75 2.7 4.8 4.35-1.2.3-.55 1.5.35.55.85.25 1.15-.7.65-1.3 2.15 1 4.85 1.5 1.15.7 2.25 1.35.8 1.3 2.4 1.25 4.15-.15 8.05-1.55l2.2.85 2.1.7q7.45 2.15 14.95.3l.1.3q1.1 2.7 3.3 4.3m-9.9-.8v.05q.6 2.1 2.95 1.1.65-.25.65-.95.05-1.5-1.05-1.85l-1.55-.05q-1.35.3-1 1.7" transform="translate(138.75 100.15)"/><path fill-rule="evenodd" fill="#fcf9f6" d="M-54.6 26.8q-.35-1.4 1-1.7l1.55.05q1.1.35 1.05 1.85 0 .7-.65.95-2.35 1-2.95-1.1v-.05" transform="translate(138.75 100.15)"/><path fill-rule="evenodd" fill="#7b5528" d="m-90.1 17.05 4 3.3q-3.5-1.6-7.35-1.9l1.85-3.05 1.5 1.65" transform="translate(138.75 100.15)"/><path fill-rule="evenodd" fill="#567889" d="M-9.45-27.05 1.8-39.9q6.25-4.25 20.15-7.55Q42.6-44.8 52.6-36.85q11 13.25 13.9 26.6l-.8 17.2-2 4.45q-5.75 11.55-16.45 22l8.05-14.35L39.35-12 9.7-16.3l-16.6 1.95-4 .5-2.25-.75 2.25-10.75 1.45-1.7m59.7-1.15H43.9v6.65l-2.15 9.4q1.35 4.2 3.35 6.55 1.65 1.95 3.75 2.65 4-4.85 5.65-10.5.85-2.9 1.05-6l-5.3-8.75" transform="translate(138.75 100.15)"/><path fill-rule="evenodd" fill="#6d91a3" d="M9.7-16.3 39.35-12 55.3 19.05 47.25 33.4l-13.2 8.75-22.7-3.35 2.8-28.25-21.05-24.9L9.7-16.3M44.1 8.85l2-5q-3.65-7.1-6.3-7.35l-1.5 6.6-19.1 7.2q-5.6 1.9 0 5.85h3.45l21.45-7.3" transform="translate(138.75 100.15)"/><path fill-rule="evenodd" fill="#cad5df" d="m50.25-28.2 5.3 8.75q-.2 3.1-1.05 6-1.65 5.65-5.65 10.5-2.1-.7-3.75-2.65-2-2.35-3.35-6.55l2.15-9.4v-6.65h6.35M44.1 8.85l-21.45 7.3H19.2q-5.6-3.95 0-5.85l19.1-7.2 1.5-6.6q2.65.25 6.3 7.35l-2 5m-41.4 4.1L-15.75 4Q-16.9.3-13.2.45l17 7.2q4.55 4.15-1.1 5.3" transform="translate(138.75 100.15)"/><path stroke-width=".5" stroke-opacity=".502" stroke-linejoin="round" stroke-linecap="round" stroke="#423213" fill="none" d="M210.85 43.4q-.65-2.35-2.2-4.1-9.2-9.7-22-6-2.4.65-4.95 1.85l-.1.05q-5.05 2.05-8.25 6.55-.5 1.2-1.35 2.15l.75-1.35.6-.8q1.25-3.4-.35-10.4l-1-3.7q-1.6-3.05-4.3-4.6-16.5-9.55-28.35 5.6-2.5 3.25-3.8 6.45M137 51.3q-4.8-8-1.45-16.2M105.8 56.55q.25-.35.15-.65l-.2-1.15q-1.35-7.5 1.85-14.25m-21.95 36 2.3-2.35q6.85 5.45 14.8 8.3 6.3 2.3 13.35 2.95l7.3.25m5.9-12.55 11.25-12.85Q146.8 56 160.7 52.7q20.65 2.65 30.65 10.6 11 13.25 13.9 26.6l-.8 17.2-.2 4.1-.8 18-3.2 3.2q-6.3 6-13.2 10.9l-.2.9q-.6 2.65-.8 5.4-.15 2.05.35 4.1-3.4.15-6.8-1.2-1.2 2.85-3.2 4.55l2.55 19.15q1.7 1.55 1.9 3.45.3 3.25-.15 2.6-.95 6.05-2.1 9.8-1.2 3.7-5.75 4.8l-14.7 2.75-1.65.25-3.2-6.05-3 6.3q-5.35-.3-9.75-2.35-6.45-2.95-7.55-5.7V192l-.15-.75-.6-7.25v-.05q-.9-2.75.7-5.2l.35.3-1.85-15.7V162q12.9-.65 21.95-3.85M213.1 49.1l-.15-.1-.9-.65q-2-22.2-29.55-27.35-7.9-12.25-18.7-7.4-4.15-3.45-8.1-5.55-12.5-6.65-23 .05-2.65 1.7-5.15 4.2l-.4.4-1.2 1.3-2.15 2.6-1.7 2.3m7.95.7q3.3-3.35 7.25-5.3 5.55-2.75 12.3-2.55l2.75.25m62.6 56.15-.2.2q-2.7 3.35-6.65 5.2l-.65.3m7.5-5.7Q221.2 59.9 212.6 53l-.95.6q-1.5 8.05-8.9 9.4l-.95-.15m9.05-19.45.8 10.2m18.5 34.05.25-1.35.05-.4v-.3q1.3-11.2-4.35-21.9-5.9-9.4-13-14.6m17.3 37.2q2.35-2.3 5.5-3.15l5.6.2q1.35.55 2.4 1.55 3.85 3.4 3.75 8.5 0 1.4-.4 2.75-.8 2.65-2.1 5.2-2.05 4-2.8 8.35-.45 2.55 1.05 4.65 1.5 2.25 4 2l.65-.4v-.05l2.75-3.35q-2.85-6.85-3.25-11.3-.85-9.4 9.35-8.2 5.8.9 5.8 3.65 16.7-3.35 14.3 17.6-.85 3.85-5.55 3.3l-2.45-.5q2.6 2.45 2.15 5.15.75 5.55-5.95 5.75-2.3.55-3.2-1.3l-.5-1.9q-11.35 9.05-13.45-8.55-2.2 2-4.75.8-3.5-1.6-3-5.6l.7-3.45q1.05-4.2 3.15-8l1.1-2.65q1.4-4.9-1.55-9.35-1.6-2.4-4.3-2.75-5.05-.6-9.25 2.4-.85 3.65-3.6 8.8 6 12.95 2.8 22.35 1.65 5-1.6 10l-.05.55q-.15 5.4 0 10.75l.3 7.4q.3 4.95-.95 9.75 1.7 1.65 1.7 3.65 0 2.9-.35 2.3-1.25 5.45-2.55 8.8-1.3 3.25-5.25 4.1l-12.5 1.85-1.4.1-2.25-5.6-3 5.55q-4.5-.5-8-2.55-5.15-2.95-5.85-5.45v-.05l-.05-.7.05-6.6q-.1.8-.05-1.75 0-1.6 1.1-2.95l-2.25-4.25m-54.15 19.8q-2.25-.25-4.55-1.1l-.05 3.3v-.05 1m-.1.1-.55 5.85-.15.75-.05.05q-1.1 2.6-7.8 5.45-4.6 1.9-10.15 2.25l-6.45-.25-1.7-.2-13.35-2.25m-3.1-.7q-3.75-1.25-4.8-4.35-1.15-3.3-2.05-8.55l-.1-.65-.05-.1V174l.3.2 9.75.95m-10.05-.45q-.25.4-.25-.6-4.5-.85-9.25-2.6l-1.8 3q-5.9 3.45-8.65 2.75-5.3 4.2-18.05 9.1l-1.55.55q-8.25.4-8.75-3.4l-1.55-5.9q-.35-5.8 3.9-9.35-3.55-2.7-2-7.75l10.95-7.85Q38.05 149.7 37 146q-.9-3 .65-5.8.8-1.35 2.3-2.45h2.25v-1.3l-3.85-3.3q-1.35-2.05-1.3-4.6.1-2.85 1.8-5.2 1.7-2.5 4.4-3.85l-1.85-.6-23-16.3-2.05-4.15L11.5 87.3Q3.45 67.1.25 46.35l3.65-3.6q14.45 11.45 33.75 11.5l3.85-.15 2.3-10.75L56.5 28.8l1.45-.6q3.65-7.65 14.4-10.5l6.3.2 4 2.35 3.55 2.6 3.1 1.35v-.1q-.05-2.35.5-4.55l.3-1.1.7-2.1Q96.95-.2 112.8.25q2.35.1 4.45 1.35l7.8 6.65.2-1.1q4.55-.5 7.45.95m127.9 112.95.9 3.75m7.5-7.7-1.5-1.2v-4.75m-21.45 6.05 1.35-.85m.65-.3-.4.2-1.6 1.05m2-1.05v-.3l-.4.3m-19.6 9.75-.3 2.8m-.7 28.45q-1.4 1.85-3.35 3.5-2.15 1.75-4.45 3-5.2 2.6-11.65 2.6-6.65 0-11.9-2.7-2.3-1.2-4.25-2.9l-2.8-2.8m39.75 5.25-5.65 3.85q-6.05 2.6-14.6 2.6-8.6 0-14.65-2.6-1.7-.75-5.9-4.4M215 125.8l-6.85 4.1-.35.05q-3.5 1.55-7.55 2.45m17.9-9.4 1.55-1.8 1.6-2.05m-6.3 6.65 3.15-2.8m-41.25 26.65q5.25-2.9 10.15-6.35m-61.55 7.1q18.65 5.85 36.65 3.65l9.85-1.85.4-.2 4-2.05M131.85 85.8l-4 .5-2.25-.75-.15.75m50.95 67.75v.4l-.05 2.25.05.35m-22.65 1.05 7.5-3.65m19.45 27.8-6.3 4.55q-6.9 3.2-17.05 3.7-10.2.5-17.65-2-2.1-.7-7.45-4.5m46.7-7.8-.55-.4q-3.35 4.65-8.5 7.55-3.75 2.05-8 2.95l-9.4.65-7.2-1.15q-4.75-1.4-8.75-4.1l-3.25-2.65m124.95-76.5q4.45-3.15 4.45-5.85M50.4 93.5l4.7.25m5.25-40.9L43.8 54.8l-2.3-.7-.1.7m5.7 56.9q-3.65-1.2-4.7-4.85-2.85-10.1 8-13.35-1.8-1.75-1.9-4-.4-11.25 11.6-13.2-1.3-4.95-1.1-10.2.1-3.65 2.3-6.45l1-1.2 1.95-1.85q-1.35-.95-2.45-2.05l-1.45-1.7q-3.25-4.3-4.05-11.15-1-8 1.65-13.5m67.1-19.95q1.55 2.25 2.1 4.45m-13.6 10.05.2-.45q2.65-5.95 8.5-5.85l1.55.15m-34.45 8.45.65-.55.15-.1q4.85-3.7 10.05-4.05 6.35-1.25 12.35 1.85l1 .55 1.05.65.3.4m.3.35.2.4m2.2 3.85.4-.35.4-.25m-.8.6q-4.4 3.55-7.2 7.4-1.7 2.3-2.8 4.7M89.35 25.05l-.05-.85m-.55 1.35.6-.5m-.6.5-2.55-2.7M79.4 51.6l-.5-2.8q-.5-3.1-.05-6.45 1-8.1 6.6-13.5l3.3-3.3M64.25 56.6q5.65-4.65 13.95-3.1l.25.05 1.4.3-.4-2.15m-.05-.1.05.1m.4 2.15.65 3.45m8.9 43.45q-3.3-11.4-5.05-22.95l.9-.9.4-.4M137 51.3l1 1.55m-8.7 20.25-1.45 1.7-2.25 10.75-2.2.1m-19.3 49.55-1.65-1.15-2-4.15-2.35-.4q-2.35-.55-4.05-1.75-2.65 4.6-9.9 2.5 7.75 2.65 9.8 9.1M89.1 174.4q4.5-.05 8.6-1.5l4-1.35q3.5 2.1 7.75 2.25 3.4.05 6.7-1.15 3.4-1.15 6.45-2.8l.9-.7q4.4-3.6 4.3-9.3m-33.15-43.5-2.3-6.35-2.95-9.25m5.25 15.6 1.75 4.35 4.05 9.2m-9.8-6.75.1.3q1.1 2.7 3.3 4.3m2.35-7.05q-2.65 1.75-5.75 2.45-7.5 1.85-14.95-.3l-2.1-.7-2.2-.85q-3.9 1.4-8.05 1.55-1.6.05-2.4-1.25-1.1-.65-2.25-1.35-2.7-.5-4.85-1.5m-.95-.45q-3.05-1.65-4.8-4.35l-.05.15q-.55 1.5.6 3.1l4 3.3 6.1 4.2q1.6-.4 3.2 0 2.4.2 3.8 2.15l9.6.55 6.5 1.65q1.35.2 2.25 1.05l-.95-.2 1 .35m-23.2-8.65-.15-3.75m-1.6-5.05q-2.25 1-4.65.6-3.7-.5-7.2-1.6m-.7 1.25q.7-1.05 1.05-.85.35.2.4 1.7v.05-.05m29.35 3.95-1.3 1.05-4.75 2.4m-3.2 37.1q4.55 2.05 9.65 1.95 4.95-.1 9.5-1.8l.35-.25q-.9-.7-1.2-1.45l-.15-1.5m-8.9-37.5 2.85-3.1m7.4 43.55q1.6 1.3 4.45 2.05m-31.3-9.25q-.2.85 1.5 2.9 2.3 2.85 5.85 4.4m-10.9 18.85q2.6-4.75 3.25-8.65l.2-2.8-.05-.9q-.15-1.3-.55-2.4m28.3 12.5-1.15-.6h1.8m-11.8-.25-.3-.05m-9.25-2.6.35-.6m20.35 4.1.3.2q6 2.9 13.8 3.25 8.2.4 15-2.2 2.95-1.15 5.6-2.8l2.6-1.85.2-.2-3.35-1.55m-45.05 4.35 6.25 4.15q7.15 3.05 17.75 3.55 10.55.5 18.3-1.9 2.2-.7 7.8-4.3v.1l-.1.95m-2.05-26.35-.05-.05-21.35-15.15m21.85 36.5 1.75.7m-84.45-52.9.7-.35m8.7 1.35q-3.5-1.6-7.35-1.9M62.35 154q-4.05.55-7.95-.5l-2.3-.75q-5-1.85-7.6-6.35-2.25-3.9-2.3-8.65m.1 13.45-2.05 1.45M36.1 163.6l-4.8 4.65M131.85 85.8l16.6-1.95"/><path stroke-width=".5" stroke-opacity=".251" stroke-linejoin="round" stroke-linecap="round" stroke="#423113" fill="none" d="m148.45 83.85 29.65 4.3 15.95 31.05-8.05 14.35-9.1 16.1m-26.8-10.7-.4 4.15-24.2 7.3m50.9-.45.5-.3m-26.8-10.7 2.8-28.25-21.05-24.9m-94.2-31.55L41.9 77.8l-17 17.5-13.4-8"/><path stroke-width=".5" stroke-linejoin="round" stroke-linecap="round" stroke="#6f0" fill="none" d="m114.9 23.8.3.35"/></g><path fill-rule="evenodd" fill-opacity="0" fill="#f0f" d="M0 0h102.95v45H0V0" id="a"/></defs><path fill="none" d="M-1-1h463v335H-1z"/><g transform="scale(2)"><use x="-32.217" y="-57.024" xlink:href="#c" width="102.95" transform="matrix(2.2038 0 0 2.0167 63 166.9)" height="45"/><use x="121.05" y="178.5" xlink:href="#d" width="381" transform="translate(-192.55 -294)" height="381"/><use x="-147.442" y="217.418" xlink:href="#e" width="277.55" transform="matrix(-.821 0 0 .821 107.918 -177.276)" height="200.35"/></g></svg>