<svg width="157" height="185" xmlns="http://www.w3.org/2000/svg" xmlns:xlink="http://www.w3.org/1999/xlink"><defs><use xlink:href="#a" width="69.15" height="81.65" id="d"/><use xlink:href="#b" width="102.95" height="45" id="e"/><g id="c" stroke-opacity="0" stroke-linejoin="round" stroke-linecap="round" stroke="#f0f" fill="none"><path d="M187.95-293.5v380h-380v-380h380M92.95.6H-97" transform="translate(192.55 294)"/><path d="m187.95-293.5-190 190 190 190m-380-380 190 190L-192 86.5" transform="translate(192.55 294)"/></g><g id="a"><path fill-rule="evenodd" d="m19.9-6.9-.05.1v.1l.05-.2m.85-5.65-.3.7-.05.45.3-.15.05-1m-34.05-5.1 2.85 3.4.7-7.95q1.5-4.65 3.1-8.35 2.4-5.5 5.1-9.05l.05-.1q2.4 5.65 6.85 8.55 1.5 1.05 3.3 1.7.95-2.3-.5-5.8l2.15 1.75 2.75 2.95 2.05 2.65.75 5.75 1.45-3.1q1.1 4.95 4 8.3l-.15 1.05 1.3-.5-.05.15-.6 1.35q4.1.3 6.7 3.25 2.3 2.5 3.85 8.3 1.8 6.4.8 11.2-3.4-5.45-6.8-5.15l-.7.1q-2.3.65-4.05 4.15l.25 1.1q.65-.6 1.4-.25.7.35 1.05 1.45.35 1.15.15 2.45l-.5 1.3.45.4q.55.65.75 1.55.15.95-.2 1.6l-.4.4v3.7l-.55.75q.4.95.4 1.9 0 1.25-.75 1.65-.7.35-1.75-.3l-.1.05.2 1.05 1.25.4q2.1 1.7 2.5 3.9-.1.75-1.15.95l-2.45.3.25 1.7q-.2.7-1.15.8-3.3 0-5.9-1.1h-.4l-.1.1q-.8 1.25-1.85 1.8-1.05.5-1.75 0-.7-.55-.65-1.85l-1.65.95-1.2.3.1 1.75q-.3.8-1.35.95-1.25.15-3.65-.7l-1.4.6-.05 1.6q-.3 1.35-3.1 1.55l-1.55-.15q-1.65-.5-2.1-2.4l-.05-.75-.8-.15q-.2.75-1.6.9l-.85-.15q-.8-.3-1.05-1.4-.1-.7.2-1.25l.6-.95.05-.1Q-9 31.65-7.6 30.1q.75-.9 2.05-1.7l.1-.05-.2-.15q-.55.35-.9-.5l-.1.2q-.8.5-1.55.7-.9.25-1.75 0-1.65-.55-3.25-2.75v-3.7l-.35-.4q-.4-.65-.2-1.6.15-.9.75-1.55l.45-.4-.5-1.3q-.25-1.3.1-2.45.35-1.1 1.1-1.45l.7-.1.7.35.05-.4-.75-.05-.7.05-.65.1q-3.15.75-4.35 3.25-3.3-5.6-7.2-5.2l-.9.2q-4.15 1.1-7.6 7.9-1.7-4.3-.2-11.4 1.3-6.4 3.8-9.8 3.2-4.55 9.05-6.5-.05 3.3.95 5.65 1.35 3.6 2.9 5.75 2.5 3.8 7.45 5.1l-.2.8.25-.15.35-.05.55.45.95-1.7q-6.45-2.35-6.55-7.6l2.9.15-2.55-6.1q-1.5-5.8-.4-11.35" transform="translate(34.55 40.8)"/><path stroke-width="2.25" stroke-linejoin="round" stroke-linecap="round" stroke="#1f1f29" fill="none" d="M21.25 23.15q-1.1 5.55.4 11.35l2.55 6.1-2.9-.15q.1 5.25 6.55 7.6l-.95 1.7-.55-.45-.35.05-.25.15.2-.8Q21 47.4 18.5 43.6q-1.55-2.15-2.9-5.75-1-2.35-.95-5.65-5.85 1.95-9.05 6.5-2.5 3.4-3.8 9.8-1.5 7.1.2 11.4 3.45-6.8 7.6-7.9l.9-.2q3.9-.4 7.2 5.2 1.2-2.5 4.35-3.25l.65-.1.7-.05.75.05-.05.4-.7-.35-.7.1q-.75.35-1.1 1.45-.35 1.15-.1 2.45L22 59l-.45.4q-.6.65-.75 1.55-.2.95.2 1.6l.35.4v3.7q1.6 2.2 3.25 2.75.85.25 1.75 0 .75-.2 1.55-.7l.1-.2q.35.85.9.5l.2.15-.1.05q-1.3.8-2.05 1.7-1.4 1.55-1.25 3.25l-.05.1-.6.95q-.3.55-.2 1.25.25 1.1 1.05 1.4l.85.15q1.4-.15 1.6-.9l.8.15.05.75q.45 1.9 2.1 2.4l1.55.15q2.8-.2 3.1-1.55l.05-1.6 1.4-.6q2.4.85 3.65.7 1.05-.15 1.35-.95l-.1-1.75 1.2-.3 1.65-.95q-.05 1.3.65 1.85.7.5 1.75 0 1.05-.55 1.85-1.8l.1-.1h.4q2.6 1.1 5.9 1.1.95-.1 1.15-.8l-.25-1.7 2.45-.3q1.05-.2 1.15-.95-.4-2.2-2.5-3.9l-1.25-.4-.2-1.05.1-.05q1.05.65 1.75.3.75-.4.75-1.65 0-.95-.4-1.9l.55-.75v-3.7l.4-.4q.35-.65.2-1.6-.2-.9-.75-1.55l-.45-.4.5-1.3q.2-1.3-.15-2.45-.35-1.1-1.05-1.45-.75-.35-1.4.25l-.25-1.1q1.75-3.5 4.05-4.15l.7-.1q3.4-.3 6.8 5.15 1-4.8-.8-11.2-1.55-5.8-3.85-8.3-2.6-2.95-6.7-3.25l.6-1.35.05-.15-1.3.5.15-1.05q-2.9-3.35-4-8.3l-1.45 3.1-.75-5.75-2.05-2.65-2.75-2.95-2.15-1.75q1.45 3.5.5 5.8-1.8-.65-3.3-1.7-4.45-2.9-6.85-8.55l-.05.1q-2.7 3.55-5.1 9.05-1.6 3.7-3.1 8.35l-.7 7.95-2.85-3.4m34.05 5.1-.05 1-.3.15.05-.45.3-.7m-.85 5.65-.05.2V34l.05-.1"/><path fill-rule="evenodd" fill="#a1330b" d="M12.9 5q3.9-2.95 5.65-7.55 1-2.6 1.8-6.55.6-2.65.3-5.85 10.8 7.25 12.5 22.8-3.4-5.45-6.8-5.15l-.7.1Q22.9-.15 22.35-7.9q-4.1 10.6-2.1 18.2-1.15-2-3.75-1.7-2.65.5-3.5 2.6 1.15-3.15-.1-6.2" transform="translate(34.55 40.8)"/><path fill-rule="evenodd" fill="#ff6b47" d="M33.15 7.85q-1.7-15.55-12.5-22.8 4.85-.05 7.85 3.3 2.3 2.5 3.85 8.3 1.8 6.4.8 11.2" transform="translate(34.55 40.8)"/><path fill-rule="evenodd" fill="#771e09" d="M20.25 10.3q-2-7.6 2.1-18.2.55 7.75 3.3 10.7-3.25.95-5.4 7.5" transform="translate(34.55 40.8)"/><path stroke-width=".05" stroke-linejoin="round" stroke-linecap="round" stroke="#1f1f29" fill="none" d="M55.2 25.85q.3 3.2-.3 5.85-.8 3.95-1.8 6.55-1.75 4.6-5.65 7.55m.1 6.2q.85-2.1 3.5-2.6 2.6-.3 3.75 1.7 2.15-6.55 5.4-7.5l.7-.1q3.4-.3 6.8 5.15m-12.5-22.8q4.85-.05 7.85 3.3 2.3 2.5 3.85 8.3 1.8 6.4.8 11.2"/><path fill-rule="evenodd" fill="#771e09" d="M-24.05 11Q-21.1 6.95-21.2-.95q6 8.8 4.35 17.15-3.3-5.6-7.2-5.2" transform="translate(34.55 40.8)"/><path fill-rule="evenodd" fill="#a1330b" d="M-16.85 16.2Q-15.2 7.85-21.2-.95q.1 7.9-2.85 11.95l-.9.2q-4.15 1.1-7.6 7.9.4-16.1 12.65-27.7-.05 3.3.95 5.65 1.35 3.6 2.9 5.75 2.5 3.8 7.45 5.1-1.2 3.55.5 6.2-1.2-1.75-4.4-1.15-3.15.75-4.35 3.25" transform="translate(34.55 40.8)"/><path fill-rule="evenodd" fill="#ff6b47" d="M-19.9-8.6Q-32.15 3-32.55 19.1q-1.7-4.3-.2-11.4 1.3-6.4 3.8-9.8 3.2-4.55 9.05-6.5" transform="translate(34.55 40.8)"/><path stroke-width=".05" stroke-linejoin="round" stroke-linecap="round" stroke="#1f1f29" fill="none" d="M10.5 51.8q3.9-.4 7.2 5.2 1.2-2.5 4.35-3.25 3.2-.6 4.4 1.15m-.5-6.2Q21 47.4 18.5 43.6q-1.55-2.15-2.9-5.75-1-2.35-.95-5.65M2 59.9q3.45-6.8 7.6-7.9l.9-.2M2 59.9q-1.7-4.3-.2-11.4 1.3-6.4 3.8-9.8 3.2-4.55 9.05-6.5"/><path fill-rule="evenodd" fill="#dac492" d="m19.6 3.3.3.05.8.5q.7.65.6 1.6l-.1.35q-.25.65-.9 1.1-.6.4-1.35.5.9.95.95 1.9.05.9-.75 1.3l-1.7.15-.2-.05-1.4-.8-.05.6q-.3.75-.95.95h-.5L13.4 11l-.45-.45-.6-1.1-.1-.4L19.6 3.3" transform="translate(34.55 40.8)"/><path fill-rule="evenodd" fill="#381952" d="m21.2 5.8.2.45.45 1.8q.65-.6 1.4-.25.7.35 1.05 1.45.35 1.15.15 2.45l-.5 1.3.45.4q.55.65.75 1.55.15.95-.2 1.6l-.4.4v3.7q-1.6 2.2-3.2 2.75-.15-7-3.95-9v-.05l.05-3.6 1.7-.15q.8-.4.75-1.3-.05-.95-.95-1.9.75-.1 1.35-.5.65-.45.9-1.1" transform="translate(34.55 40.8)"/><path fill-rule="evenodd" fill="#582578" d="M21.35 23.4q-.9.25-1.8 0l-3.8-3.75-.05-.55-.2.3-.65.65q-.9-2.85.4-7.05-.7-.5-.9-1.55h.5q.65-.2.95-.95l.05-.6 1.4.8.2.05-.05 3.6v.05q3.8 2 3.95 9" transform="translate(34.55 40.8)"/><path fill-rule="evenodd" fill="#9467b0" d="m19.55 23.4-1.5-.7-.15-.2q-.35.85-.85.5-.6-.35-1-1.75l-.3-1.6 3.8 3.75m-4.7-3.35h-.3q-.55-.1-.8-1.35-.35-1.35-.2-3.05.1-1.05.35-1.9l-.3-.3q-.5-.55-.65-1.65v-1.25l.45.45.95.45q.2 1.05.9 1.55-1.3 4.2-.4 7.05" transform="translate(34.55 40.8)"/><path stroke-width=".05" stroke-linejoin="round" stroke-linecap="round" stroke="#1f1f29" fill="none" d="m54.15 44.1.3.05.8.5q.7.65.6 1.6l-.1.35q-.25.65-.9 1.1-.6.4-1.35.5.9.95.95 1.9.05.9-.75 1.3l-1.7.15-.2-.05-1.4-.8-.05.6q-.3.75-.95.95h-.5l-.95-.45-.45-.45-.6-1.1-.1-.4"/><path stroke-width=".05" stroke-linejoin="round" stroke-linecap="round" stroke="#1f1f29" fill="none" d="m55.75 46.6.2.45.45 1.8q.65-.6 1.4-.25.7.35 1.05 1.45.35 1.15.15 2.45l-.5 1.3.45.4q.55.65.75 1.55.15.95-.2 1.6l-.4.4v3.7q-1.6 2.2-3.2 2.75-.9.25-1.8 0l-1.5-.7-.15-.2q-.35.85-.85.5-.6-.35-1-1.75l-.3-1.6-.05-.55-.2.3-.65.65h-.3q-.55-.1-.8-1.35-.35-1.35-.2-3.05.1-1.05.35-1.9l-.3-.3q-.5-.55-.65-1.65v-1.25"/><path fill-rule="evenodd" fill="#eaa32d" d="m16.05 26.5-1.25-.4-.2-.05q-1.25 0-2.4 1.35l-.2.2.2-.2q1.15-1.35 2.4-1.35l.2.05 1.25.4m-2.45 6.05q-.15-3 .5-3.8L12 27.6l-.35-.2-2.5-.7q1.05-1.45 3.55-2.75.5.45 1.25.65l2.65.1 1.95-.1.6.2.35.7.15.3q-1 .3-1.8 1.05l-.25-1q-1.95-.7-3.7-.55l-1.25.2 1.3.2 3.05.85.1.05.35.65-.15.15v.3q-1.1.25-2.15 1.2l-.05.75-.35 2.75.6.3-1.75-.15" transform="translate(34.55 40.8)"/><path fill-rule="evenodd" fill="#cf7b16" d="m9.15 26.7 2.5.7.35.2 2.1 1.15q-.65.8-.5 3.8l-4.45-.85-.55-2.15q-.4-1.5.55-2.85m8.3.55-.35-.65-.1-.05-3.05-.85-1.3-.2 1.25-.2q1.75-.15 3.7.55l.25 1-.4.4" transform="translate(34.55 40.8)"/><path fill-rule="evenodd" fill="#fef7e0" d="m15.1 29.65.05-.75q1.05-.95 2.15-1.2v-.3l.15-.15.4-.4q.8-.75 1.8-1.05 1.6-.45 3.6.35 2.1 1.7 2.5 3.9-.1.75-1.15.95-1.7-2.45-4.5-2.9l-.35-.05 1 .55q1 1.3 1.4 2.7l.25 1.7q-.2.7-1.15.8-.7-1.65-1.8-2.6L17.4 30l-2.3-.35m3.45-5.05-1.95.1-2.65-.1q1.35-1.7 3.4-1.2l1.2 1.2m-1.25 3.1q1.2-.25 2.45.35-1.25-.6-2.45-.35" transform="translate(34.55 40.8)"/><path fill-rule="evenodd" fill="#d9ceb4" d="m15.35 32.7-.6-.3.35-2.75 2.3.35 2.05 1.2q1.1.95 1.8 2.6-3.3 0-5.9-1.1m4.4-4.65.35.05q2.8.45 4.5 2.9l-2.45.3q-.4-1.4-1.4-2.7l-1-.55" transform="translate(34.55 40.8)"/><path stroke-width=".05" stroke-linejoin="round" stroke-linecap="round" stroke="#1f1f29" fill="none" d="m46.55 68.4.2-.2q1.15-1.35 2.4-1.35l.2.05 1.25.4m-2.45 6.05 1.75.15-.6-.3m.4-3.5q1.05-.95 2.15-1.2m0-.3.15-.15.4-.4q.8-.75 1.8-1.05l-.15-.3-.35-.7-.6-.2-1.95.1-2.65-.1q-.75-.2-1.25-.65-2.5 1.3-3.55 2.75-.95 1.35-.55 2.85l.55 2.15 4.45.85m4.95-7.95-1.2-1.2q-2.05-.5-3.4 1.2m5.8 3.45 1 .55q1 1.3 1.4 2.7l2.45-.3q1.05-.2 1.15-.95-.4-2.2-2.5-3.9-2-.8-3.6-.35m.1 2.25q-1.25-.6-2.45-.35m4.85 3.6.25 1.7q-.2.7-1.15.8-3.3 0-5.9-1.1"/><path fill-rule="evenodd" fill="#eaa32d" d="M-7.6 30.1Q-6.15 28.45-3 27q1.1 1.2 3.95 1.2 2.5 0 3.3 1.75l.05.15q-1.35-.2-2.7.6l-.5-1.45-4.55-.4 1.75 1.5q-1.35-.4-3.2.7 1.85-1.1 3.2-.7l.2.1q.6.25 1.1.85l.65.45-.15.75q-1.2-1.3-2.4-.65l-.6.4-2-1.2-2.7-.95M2.85 36l-1.4.6-.1-1.2 1.5.6" transform="translate(34.55 40.8)"/><path fill-rule="evenodd" fill="#fef7e0" d="M4.3 30.1q1.05.1 2.15.85 1.55 2.2 1.4 4.8-.3.8-1.35.95-.7-2.1-2.2-3.15-.85-.6-1.95-.85l-.8-.15L.1 32.5l.4.5q.65.8.85 2.4l.1 1.2-.05 1.6q-.3 1.35-3.1 1.55l-1.55-.15q.8-.8 1.05-2.65.25-1.95-.1-5.1 1.2-.65 2.4.65l.15-.75v-.05q.7-.65 1.35-1 1.35-.8 2.7-.6m-10.5 6.2q-.2.75-1.6.9l-.85-.15q.45-.15.65-1 .3-1.2.25-3.7l.05-.05q.6-.1 1.15.8.55.9.4 3.15l-.05.05" transform="translate(34.55 40.8)"/><path fill-rule="evenodd" fill="#d9ceb4" d="M6.5 36.7q-1.25.15-3.65-.7l-1.5-.6Q1.15 33.8.5 33l-.4-.5 1.45.05.8.15q1.1.25 1.95.85 1.5 1.05 2.2 3.15m-9.75 2.9q-1.65-.5-2.1-2.4l-.05-.75.3-1.3L-4 33.5l1.1-1.25.6-.4q.35 3.15.1 5.1-.25 1.85-1.05 2.65m-5.4-2.55q-.8-.3-1.05-1.4-.1-.7.2-1.25l.6-.95.05-.1q.55-.9 1.1-1 .05 2.5-.25 3.7-.2.85-.65 1" transform="translate(34.55 40.8)"/><path fill-rule="evenodd" fill="#cf7b16" d="m-5.4 36.45-.8-.15.05-.05Q-6 34-6.55 33.1q-.55-.9-1.15-.8l-.05.05q-.55.1-1.1 1-.15-1.7 1.25-3.25l2.7.95-.55.3.55-.3 2 1.2L-4 33.5l-1.1 1.65-.3 1.3m3.7-6.1-1.75-1.5 4.55.4.5 1.45q-.65.35-1.35 1v.05l-.65-.45q-.5-.6-1.1-.85l-.2-.1" transform="translate(34.55 40.8)"/><path stroke-width=".05" stroke-linejoin="round" stroke-linecap="round" stroke="#1f1f29" fill="none" d="M26.95 70.9q1.45-1.65 4.6-3.1 1.1 1.2 3.95 1.2 2.5 0 3.3 1.75l.05.15q1.05.1 2.15.85 1.55 2.2 1.4 4.8-.3.8-1.35.95-1.25.15-3.65-.7l-1.4.6-.05 1.6q-.3 1.35-3.1 1.55l-1.55-.15q-1.65-.5-2.1-2.4l-.05-.75-.8-.15q-.2.75-1.6.9l-.85-.15q-.8-.3-1.05-1.4-.1-.7.2-1.25l.6-.95.05-.1q-.15-1.7 1.25-3.25m9.2.6q1.35-.8 2.7-.6m-4.2 2.4.4.5q.65.8.85 2.4l1.5.6m-2.6-4.3q.7-.65 1.35-1m-3.9 1.15-.6.4-1.1 1.25-1.1 1.65-.3 1.3m5.5-3.95q-1.2-1.3-2.4-.65M36 77.4l-.1-1.2m-9.1-3.05q-.55.1-1.1 1m2.65 2.95.05-.05q.15-2.25-.4-3.15-.55-.9-1.15-.8"/><path stroke-width=".05" stroke-linejoin="round" stroke-linecap="round" stroke="#1f1f29" fill="none" d="M29.65 71.85q1.85-1.1 3.2-.7l.2.1q.6.25 1.1.85m-4.5-.25-.55.3"/><path fill-rule="evenodd" fill="#ebe0c3" d="m16.95 6.3.8 1h-.25l-.55-1m3.4 4.8.6 1.1-.95-.85.35-.25m1.85 3.95.25.2q.7.7.85 1.75.15.9-.25 1.6l.05 1.2.55.85q.75 1.4.75 2.65t-.75 1.65q-.7.35-1.75-.3l-.1.05.2 2q-.1 1.45-.75 2t-1.45-.15l-.5-.5-.25.2-.2.2-.05.95q-.25.95-1.05 1.6l-1.65.3-.55-.2-.7 1.7q-.8 1.25-1.85 1.8-1.05.5-1.75 0-.7-.55-.65-1.85l-1.65.95-2.1.2q-.7-.35-.7-1.2-3.5-.25-7.1-1.8 5.3-2.8 5.7-5.8-.75-2.55-.6-2.9.4-1.1 1.7-1.55l.15 1.8 2.85-.3-.05-.35.2-.2q.6-.45 1.2-.25.6.15.9.85.3.65.1 1.45v.05l.1.55.75.45q.75.65 1 1.6.2.9-.2 1.55-.35.55-1 .65h-.25l.45 1.2-.45-1.2h.25l.2 1.2.05.25.1.8.05.4 4.55-1-.6-6.9-.15-2.45q2.7-.2 3.55-1.55 2.6 0 .75-3.75h1.35l.5-.45m-11.95 17 .2.2.6.2q.65.1.95-.65l.2-1.05-.2 1.05q-.3.75-.95.65l-.6-.2-.2-.2m.95-8.4-.2.5.3.1-.3-.1.2-.5m10.7 1-.1-.05v.1-.1l.1.05m1.15-6.05-.1.1-.45.45.6.65-.6-.65.45-.45.1-.1" transform="translate(34.55 40.8)"/><path fill-rule="evenodd" fill="#dac492" d="m16.95 6.3.55 1h.25l.5.1q1.05.25 1.8 1.05t.75 1.65q-.05.6-.45 1l-.35.25.95.85.3.3q.8 1 .95 1.9v.65l-.5.45h-1.35q1.85 3.75-.75 3.75-.85 1.35-3.55 1.55v-.25l3.55-1.3-1.05-4.55-3.15.25L14 9.9l-4.7.9.25 5.3-4.05 1.15.35 3.4q-1.3.45-1.7 1.55-.15.35.6 2.9-.4 3-5.7 5.8l-2.75-1.45q-12.5-7.15-2.15-23.6Q-.55.55 5.4.15q5.3-.4 8 2.3l3.55 3.85m-3.2-.5q.3-.7 1-.8.6-.15 1.25.4.6.5.9 1.35l.1.65.5-.1-.5.1-.1-.65q-.3-.85-.9-1.35-.65-.55-1.25-.4-.7.1-1 .8" transform="translate(34.55 40.8)"/><path fill-rule="evenodd" fill="#d1591d" d="m16.05 20.8.15 2.45-5 .45v-.05q.2-.8-.1-1.45-.3-.7-.9-.85-.6-.2-1.2.25l-.2.2.05.35-2.85.3-.15-1.8-.35-3.4 4.05-1.15-.25-5.3 4.7-.9 1.4 5.05 3.15-.25 1.05 4.55-3.55 1.3v.25" transform="translate(34.55 40.8)"/><path fill-rule="evenodd" fill="#f26c28" d="m16.2 23.25.6 6.9-4.55 1-.05-.4-.1-.8-.05-.25-.2-1.2q.65-.1 1-.65.4-.65.2-1.55-.25-.95-1-1.6l-.75-.45-.1-.55 5-.45" transform="translate(34.55 40.8)"/><path stroke-width=".05" stroke-linejoin="round" stroke-linecap="round" stroke="#1f1f29" fill="none" d="M52.05 48.1h.25l.5.1q1.05.25 1.8 1.05t.75 1.65q-.05.6-.45 1l-.35.25.95.85.3.3q.8 1 .95 1.9v.65l.25.2q.7.7.85 1.75.15.9-.25 1.6m.05 1.2.55.85q.75 1.4.75 2.65t-.75 1.65q-.7.35-1.75-.3m-.1.05.2 2q-.1 1.45-.75 2t-1.45-.15l-.5-.5-.25.2-.2.2-.05.95q-.25.95-1.05 1.6l-1.65.3-.55-.2-.7 1.7q-.8 1.25-1.85 1.8-1.05.5-1.75 0-.7-.55-.65-1.85l-1.65.95-2.1.2q-.7-.35-.7-1.2-3.5-.25-7.1-1.8l-2.75-1.45q-12.5-7.15-2.15-23.6m23.35 1.45-.5.1-.1-.65q-.3-.85-.9-1.35-.65-.55-1.25-.4-.7.1-1 .8m8.45 9.25-.5.45H54.9m-8.15 15.25-.2 1.05q-.3.75-.95.65l-.6-.2-.2-.2M43.35 62.6l.2-.2q.6-.45 1.2-.25.6.15.9.85.3.65.1 1.45m.85 6.05-.45-1.2h.25q.65-.1 1-.65.4-.65.2-1.55-.25-.95-1-1.6l-.75-.45-.3-.1.2-.5m.85 6.05.05.25.1.8m10.9-10.95-.6-.65.45-.45.1-.1m-1.25 6.1v-.1l.1.05"/><path fill-rule="evenodd" fill="#fef7e0" d="m15.35-9.5 6.7-2.55-5.15 5Q16-8 15.35-9.5m6.7-2.55.1-.05-.05.15-.05-.1" transform="translate(34.55 40.8)"/><path fill-rule="evenodd" fill="#d1bb90" d="m16.9-7.05 5.15-5 .05.1-2.85 6.5q-1.35-.4-2.35-1.6" transform="translate(34.55 40.8)"/><path stroke-width=".05" stroke-linejoin="round" stroke-linecap="round" stroke="#1f1f29" fill="none" d="m56.6 28.75-6.7 2.55m6.7-2.55.1-.05-.05.15-2.85 6.5"/><path fill-rule="evenodd" fill="#d1bb90" d="M-.85-3.25q-1 1-3.2 1l-2.8-6.15h.05l5.95 5.15" transform="translate(34.55 40.8)"/><path fill-rule="evenodd" fill="#fef7e0" d="m-6.8-8.4 6.6 1.5q.5 2.5-.65 3.65L-6.8-8.4" transform="translate(34.55 40.8)"/><path stroke-width=".05" stroke-linejoin="round" stroke-linecap="round" stroke="#1f1f29" fill="none" d="m30.5 38.55-2.8-6.15h.05l6.6 1.5"/><path fill-rule="evenodd" fill="#dac492" d="m-.85 14.25-.15.4q-.2.65-.55 1.1l-.45.45-.95.45h-.5q-.7-.2-.95-.95l-.1-.6-1.4.8-.2.05-1.7-.15q-.8-.4-.75-1.3.05-.95.95-1.9l-1.3-.5q-.7-.45-.95-1.1l-.1-.35q-.1-.95.65-1.6l.75-.5.35-.05 7.35 5.75" transform="translate(34.55 40.8)"/><path fill-rule="evenodd" fill="#9467b0" d="m-2.95 16.65.95-.45.45-.45L-1.6 17q-.15 1.1-.65 1.65l-.3.3.4 1.9q.1 1.7-.2 3.05-.3 1.25-.85 1.35h-.3q.9-2.85-.4-7.05.7-.5.95-1.55m-1.45 8.2-.3 1.6q-.4 1.4-.95 1.75-.55.35-.9-.5l-.1.2q-.8.5-1.55.7l3.8-3.75" transform="translate(34.55 40.8)"/><path fill-rule="evenodd" fill="#582578" d="m-6.1 15.95.2-.05 1.4-.8.1.6q.25.75.95.95h.5q-.25 1.05-.95 1.55 1.3 4.2.4 7.05l-.65-.65-.15-.3-.1.55-3.8 3.75q-.9.25-1.75 0 .1-7 3.9-9v-.05l-.05-3.6" transform="translate(34.55 40.8)"/><path fill-rule="evenodd" fill="#381952" d="M-9.85 11q.25.65.95 1.1l1.3.5q-.9.95-.95 1.9-.05.9.75 1.3l1.7.15.05 3.6v.05q-3.8 2-3.9 9-1.65-.55-3.25-2.75v-3.7l-.35-.4q-.4-.65-.2-1.6.15-.9.75-1.55l.45-.4-.5-1.3q-.25-1.3.1-2.45.35-1.1 1.1-1.45.7-.35 1.4.25l.45-1.8.15-.45" transform="translate(34.55 40.8)"/><path stroke-width=".05" stroke-linejoin="round" stroke-linecap="round" stroke="#1f1f29" fill="none" d="M33 56.55q.35-.45.55-1.1l.15-.4m-7.35-5.75-.35.05-.75.5q-.75.65-.65 1.6l.1.35q.25.65.95 1.1l1.3.5q-.9.95-.95 1.9-.05.9.75 1.3l1.7.15.2-.05 1.4-.8.1.6q.25.75.95.95h.5l.95-.45.45-.45"/><path stroke-width=".05" stroke-linejoin="round" stroke-linecap="round" stroke="#1f1f29" fill="none" d="m33 56.55-.05 1.25q-.15 1.1-.65 1.65l-.3.3.4 1.9q.1 1.7-.2 3.05-.3 1.25-.85 1.35h-.3l-.65-.65-.15-.3-.1.55-.3 1.6q-.4 1.4-.95 1.75-.55.35-.9-.5l-.1.2q-.8.5-1.55.7-.9.25-1.75 0-1.65-.55-3.25-2.75v-3.7l-.35-.4q-.4-.65-.2-1.6.15-.9.75-1.55L22 59l-.5-1.3q-.25-1.3.1-2.45.35-1.1 1.1-1.45.7-.35 1.4.25l.45-1.8.15-.45"/><path fill-rule="evenodd" fill="#ff8d0f" d="m-10.45-14.25.7-7.95q1.5-4.65 3.1-8.35l-.7 9.1 1.85 7.6-4.95-.4m8.9-25.35.05-.1q2.4 5.65 6.85 8.55l4.6 11.7L11.6-4.9Q9.15-5.95 6.95-7.5q-2.7-2-4.95-4.7l-3-13-.55-14.4m17.4 17.45 1.45-3.1.95 10.45-2.1.8-1.2-.65-.4-.1 1.3-7.4m-28 17.65-.75-1.8q-1.5-5.8-.4-11.35l1.55 1.8L-10-6.3l2.4 2.8-4.55-1" transform="translate(34.55 40.8)"/><path fill-rule="evenodd" fill="#d86c01" d="m-10.45-14.25 4.95.4-1.85-7.6.7-9.1q2.4-5.5 5.1-9.05L-1-25.2l3 13q-3.6-1.1-6.15.05l-2.4-.55h-.05l.75 1.65-.1.1-.4.65Q-7.7-7.55-5.9-.45l-.45.85Q-7.55 0-9.3-.15l-.95-.05h-.1l-1.8-4.3 4.55 1-2.4-2.8-1.75-9.55 1.3 1.6m15.8-16.9q1.5 1.05 3.3 1.7.95-2.3-.5-5.8l2.15 1.75 2.15 7.25-2.5 6.8-4.6-11.7" transform="translate(34.55 40.8)"/><path fill-rule="evenodd" fill="#fef7e0" d="m21.15-15.9 1.2-.45.1-.05-.05.15-.05-.1-5.15 5q-.9-.95-1.55-2.45l.5-.2 2.1-.8 2.9-1.1m-27.7 3.2 2.4.55 4.2.95q.5 2.5-.65 3.65l-5.95-5.15" transform="translate(34.55 40.8)"/><path fill-rule="evenodd" fill="#d1bb90" d="m22.4-16.25-1.95 4.4-.9 2.1-.7-.25q-.95-.5-1.65-1.35l5.15-5 .05.1m-28.25 5.2-.75-1.65h.05L-.6-7.55q-1 1-3.2 1l-2.05-4.5" transform="translate(34.55 40.8)"/><path fill-rule="evenodd" fill="#381952" d="M3.15 10.35Q-.45 9.7-4.7 8.2l-1.6-.85 1.65.5q-.2-1.45-1.1-2.8-.05-1.6-1.35-3.15Q-7.95.85-9.3-.15-7.55 0-6.35.4l.45-.85q-1.8-7.1-.45-9.85l.4-.65.1-.1 2.05 4.5q2.2 0 3.2-1Q.55-8.7.05-11.2l-4.2-.95Q-1.6-13.3 2-12.2q2.25 2.7 4.95 4.7-.1 3.05-1.05 7.15L5.05.9l-2.8-2.55-.1-.05L2-1.85q-4.3-1.1-7 .55-.4 1.3.2 2.4l.55.45v.3l1.9 1.5 1.25.35q2.6.8 4.45.9l-.15.65-.3-.2L.6 4.5q-1.3-.15-2.15 0-.95.25-.95.75t.95.9L.6 6.8l2.3-.1h.05q-.2 1.8.2 3.65m1.1-13.7q.9.45.9.25l-.7-.8q-.7-.6-2-.95l-2.6-.45-1.55.1q-.25.2 1.1.4l2.65.55 2.2.9M-6.35.4q.9.3 1.55.7-.65-.4-1.55-.7" transform="translate(34.55 40.8)"/><path fill-rule="evenodd" fill="#ffb945" d="m13.05-30.55 2.05 2.65.75 5.75-1.3 7.4q.5 2.4-.4 5.8-1 3.55-2.55 4.05L9.95-19.45l2.5-6.8.6-4.3m4.25 5.3q1.1 4.95 4 8.3l-.15 1.05-2.9 1.1-.95-10.45m3.15 13.4-.5 3.05-.3 1.7-.8-2.9.7.25.9-2.1" transform="translate(34.55 40.8)"/><path fill-rule="evenodd" fill="#ffa40f" d="m10.3-33.5 2.75 2.95-.6 4.3-2.15-7.25" transform="translate(34.55 40.8)"/><path fill-rule="evenodd" fill="#582578" d="M18.5 6.65 16.9 8q-5 3.8-13.75 2.35-.4-1.85-.2-3.65.75-.2.8-.7l-.55-.75.15-.65q2.2.1 3.2-.9Q6.3 2.35 5.05.9L5.9-.35q.95-4.1 1.05-7.15 2.2 1.55 4.65 2.6 1.55-.5 2.55-4.05.9-3.4.4-5.8l.4.1q2.9 6.35.85 8.6l1 1.8.25.45-.1.2q-1.05 2.4-1 4.55.6 1.2 1.85.8-.2.1-.3.25-.35.5-.15.8l.75.15 1.2-.45q.3 2.55-.8 4.15M15.7 2.4q-.15-.65-1.2-1l-2.55-.25Q10.35 1.2 9 2q-1.4.8-1.2 1.8.1.9 1.55.35t3.2-.8L15 3q.8 0 .7-.6" transform="translate(34.55 40.8)"/><path fill-rule="evenodd" fill="#9467b0" d="m19.95-8.8-.05.8q-.15 1.75-.05 3.5l-2.45-.05-.1.05-.25.7-.25-.45-1-1.8q2.05-2.25-.85-8.6l1.2.65-.5.2q.65 1.5 1.55 2.45.7.85 1.65 1.35l.8 2.9.3-1.7m.45 7.6q1.1 4.6-1.9 7.85 1.1-1.6.8-4.15h.05l1-.9.15-.65q-.2-.3-.75-.25l-.5.15.35-.3q.55-.8.8-1.75m-33.65.85 2.9.15h.1l.95.05q1.35 1 2.2 2.05 1.3 1.55 1.35 3.15l-1.9-2-1.9-1.4q-1.6-1.05-3.7-2m17.5-3-2.2-.9L-.6-4.8q-1.35-.2-1.1-.4l1.55-.1 2.6.45q1.3.35 2 .95l.7.8q0 .2-.9-.25M2.95 6.7H2.9l-2.3.1-2.15-.65q-.95-.4-.95-.9t.95-.75q.85-.15 2.15 0l2.3.55.3.2.55.75q-.05.5-.8.7" transform="translate(34.55 40.8)"/><path fill-rule="evenodd" fill="#fff" d="m19.85-4.5.5.5q.3 1.55.05 2.8-.25.95-.8 1.75l-.35.3-.75.4-.2.1q-2-1.4-1.35-4.95l.1-.2.25-.7.1-.05 2.45.05M-1.1 3.7Q-3.4-.6 2.25-1.65L5.05.9q1.25 1.45 1.5 2.8-1 1-3.2.9-1.85-.1-4.45-.9" transform="translate(34.55 40.8)"/><path fill-rule="evenodd" fill="#b59bca" d="m19.25.85.5-.15q.55-.05.75.25l-.15.65-1 .9h-.05l-1.2.45-.75-.15q-.2-.3.15-.8.1-.15.3-.25l.5-.4.2-.1.75-.4" transform="translate(34.55 40.8)"/><path fill-rule="evenodd" fill="#f0e0c2" d="m18.3 1.35-.5.4q-1.25.4-1.85-.8-.05-2.15 1-4.55-.65 3.55 1.35 4.95M-1.1 3.7l-1.25-.35-1.9-1.5v-.3l-.55-.45Q-5.4 0-5-1.3q2.7-1.65 7-.55l.15.15.1.05Q-3.4-.6-1.1 3.7" transform="translate(34.55 40.8)"/><path fill-rule="evenodd" fill="#270f33" d="M15.7 2.4q.1.6-.7.6l-2.45.35q-1.75.25-3.2.8Q7.9 4.7 7.8 3.8 7.6 2.8 9 2q1.35-.8 2.95-.85l2.55.25q1.05.35 1.2 1" transform="translate(34.55 40.8)"/><path fill-rule="evenodd" fill="#411a53" d="M-6.3 7.35q-6.85-2.3-6.95-7.7 2.1.95 3.7 2l1.9 1.4 1.9 2q.9 1.35 1.1 2.8l-1.65-.5" transform="translate(34.55 40.8)"/><path stroke-width=".05" stroke-linejoin="round" stroke-linecap="round" stroke="#1f1f29" fill="none" d="M27.9 10.25q-1.6 3.7-3.1 8.35l-.7 7.95m3.8-16.3q2.4-5.5 5.1-9.05l.05-.1q2.4 5.65 6.85 8.55 1.5 1.05 3.3 1.7.95-2.3-.5-5.8l2.15 1.75 2.75 2.95 2.05 2.65.75 5.75m1.45-3.1q1.1 4.95 4 8.3l-.15 1.05 1.2-.45.1-.05-.05.15-1.95 4.4-.5 3.05m-.1 4.3.5.5q.3 1.55.05 2.8-.25.95-.8 1.75l-.35.3m-25.55 6.5q-6.85-2.3-6.95-7.7l2.9.15-1.8-4.3-.75-1.8q-1.5-5.8-.4-11.35l1.55 1.8 1.3 1.6M28 28.1l2.4.55q2.55-1.15 6.15-.05m-7.85 1.15-.75-1.65H28m6.6 1.5-4.2-.95m-5.15 12q1.75.15 2.95.55l.45-.85q-1.8-7.1-.45-9.85l.4-.65.1-.1 2.05 4.5m15.4 1.65q1.55-.5 2.55-4.05.9-3.4.4-5.8l1.3-7.4m-1.3 7.4.4.1 1.2.65 2.1-.8m2.9-1.1L52.8 26m2.2 2.95-.9 2.1m-.7-.25.8 2.9.3-1.7m-3.8-5.2-.5.2m1.65 9.3.1-.05 2.45.05m-2.05 6.25q-1.25.4-1.85-.8-.05-2.15 1-4.55m-10-3.9q2.2 1.55 4.65 2.6M30.3 42.65l1.9 1.5 1.25.35m3.25-5.4-.15-.15q-4.3-1.1-7 .55-.4 1.3.2 2.4l.55.45m11.2-9.05q-2.7-2-4.95-4.7m3.05 13.1-2.8-2.55m1.1 6.25q-1.85-.1-4.45-.9m4.45.9q2.2.1 3.2-.9-.25-1.35-1.5-2.8m-15.4-1.1h.1l.95.05m4.65 8-1.65-.5m1.5-6.25q-.65-.4-1.55-.7"/><path stroke-width=".05" stroke-linejoin="round" stroke-linecap="round" stroke="#1f1f29" fill="none" d="m54.5 32-.05.8q-.15 1.75-.05 3.5m.55 3.3q1.1 4.6-1.9 7.85l-1.6 1.35q-5 3.8-13.75 2.35-3.6-.65-7.85-2.15l-1.6-.85"/></g><path fill-rule="evenodd" fill-opacity="0" fill="#f0f" d="M0 0h102.95v45H0V0" id="b"/></defs><path fill="none" d="M-1-1h159v187H-1z"/><use x="86.628" y="180.154" xlink:href="#c" width="381" transform="translate(-192.55 -294)" height="381"/><use x="-47.196" y="-50.744" xlink:href="#d" width="69.15" transform="translate(106.877 114.517) scale(2.2337)" height="81.65"/><use x="-58.335" y="-68.537" xlink:href="#e" width="102.95" transform="matrix(1.8072 0 0 1.6538 96 161.55)" height="45"/></svg>