<svg width="153" height="150" xmlns="http://www.w3.org/2000/svg" xmlns:xlink="http://www.w3.org/1999/xlink"><defs><use xlink:href="#a" width="69.15" height="67.85" id="d"/><use xlink:href="#b" width="102.95" height="45" id="e"/><g id="c" stroke-opacity="0" stroke-linejoin="round" stroke-linecap="round" stroke="#f0f" fill="none"><path d="M187.95-293.5v380h-380v-380h380M92.95.6H-97" transform="translate(192.55 294)"/><path d="m187.95-293.5-190 190 190 190m-380-380 190 190L-192 86.5" transform="translate(192.55 294)"/></g><g id="a"><path fill-rule="evenodd" d="M25.1-21q1.95.8 3.4 2.45 2.3 2.5 3.85 8.3 1.8 6.4.8 11.2-3.4-5.45-6.8-5.15l-.7.1q-.95.25-1.75 1l.5.55Q25-.7 26.4 2l-1.9 1.3-.05 1.5-.5 1.3.45.4q.55.65.75 1.55.15.95-.2 1.6l-.4.4v3.7l-.65.85.4 1.85q-.05 1.25-.8 1.65-.7.3-1.75-.35l-.05.05.15 1.05 1.4.4q2.1 1.7 2.5 3.9-.1.75-1.15.95l-2.45.3.25 1.7q-.2.7-1.15.8-3.3 0-5.9-1.1h-.55l-.1.1q-.8 1.25-1.85 1.8-1.05.5-1.75 0-.7-.55-.65-1.85l-1.65.95-1.05.3.1 1.75q-.3.8-1.35.95-1.25.15-3.65-.7l-1.4.6-.05 1.6q-.3 1.35-3.1 1.55l-1.55-.15q-1.65-.5-2.1-2.4l-.05-.75-.8-.15q-.2.75-1.6.9l-.85-.15q-.8-.3-1.05-1.4-.1-.7.2-1.25l.6-.95.05-.1Q-9 24.75-7.6 23.2l2-1.65.05-.05-.15-.15q-.5.25-.85-.55l-.1.2q-.8.5-1.55.7-.9.25-1.75 0-1.65-.55-3.25-2.75v-3.7l-.35-.4q-.4-.65-.2-1.6.15-.9.75-1.55l.45-.4-.5-1.3-.1-.7-.25.5-.25.6-4.7 4.4q1.1-2.45.45-7.1-2.85-3.95-6.15-3.6l-.9.2q-4.15 1.1-7.6 7.9-1.7-4.3-.2-11.4 1.3-6.4 3.8-9.8 3.2-4.55 9.05-6.5-.05 3.3.95 5.65l1.45 3.35q2.5-5.15 7.75-5.65-4.8-5.5-.2-13.7 1.65-2.5 3.35-3.9l.05-.05q3.25-2.7 6.8-1.55.9.5 1.85.95l3.4-2.4q7 .1 11.7 3.7 3.15 2 5.1 3.95 2.05 2.1 2.8 4.15m-5.25 7.3v.1l.05-.2-.05.1" transform="translate(34.55 33.9)"/><path stroke-width="2.25" stroke-linejoin="round" stroke-linecap="round" stroke="#1f1f29" fill="none" d="M59.65 12.9q-.75-2.05-2.8-4.15-1.95-1.95-5.1-3.95-4.7-3.6-11.7-3.7l-3.4 2.4q-.95-.45-1.85-.95Q31.25 1.4 28 4.1l-.05.05q-1.7 1.4-3.35 3.9-4.6 8.2.2 13.7-5.25.5-7.75 5.65l-1.45-3.35q-1-2.35-.95-5.65-5.85 1.95-9.05 6.5-2.5 3.4-3.8 9.8-1.5 7.1.2 11.4 3.45-6.8 7.6-7.9l.9-.2q3.3-.35 6.15 3.6.65 4.65-.45 7.1l4.7-4.4.25-.6.25-.5.1.7.5 1.3-.45.4q-.6.65-.75 1.55-.2.95.2 1.6l.35.4v3.7q1.6 2.2 3.25 2.75.85.25 1.75 0 .75-.2 1.55-.7l.1-.2q.35.8.85.55l.15.15-.05.05-2 1.65q-1.4 1.55-1.25 3.25l-.05.1-.6.95q-.3.55-.2 1.25.25 1.1 1.05 1.4l.85.15q1.4-.15 1.6-.9l.8.15.05.75q.45 1.9 2.1 2.4l1.55.15q2.8-.2 3.1-1.55l.05-1.6 1.4-.6q2.4.85 3.65.7 1.05-.15 1.35-.95L42.3 61l1.05-.3 1.65-.95q-.05 1.3.65 1.85.7.5 1.75 0 1.05-.55 1.85-1.8l.1-.1h.55q2.6 1.1 5.9 1.1.95-.1 1.15-.8l-.25-1.7 2.45-.3q1.05-.2 1.15-.95-.4-2.2-2.5-3.9l-1.4-.4-.15-1.05.05-.05q1.05.65 1.75.35.75-.4.8-1.65l-.4-1.85.65-.85v-3.7l.4-.4q.35-.65.2-1.6-.2-.9-.75-1.55l-.45-.4.5-1.3.05-1.5 1.9-1.3q-1.4-2.7-2-4.55l-.5-.55q.8-.75 1.75-1l.7-.1q3.4-.3 6.8 5.15 1-4.8-.8-11.2-1.55-5.8-3.85-8.3-1.45-1.65-3.4-2.45z"/><path fill-rule="evenodd" fill="#ff8d0f" d="m-13.65 10.4-4.7 4.4q1.25-2.8.25-8.35-1.3-6.45-.5-10 2.25-7.95 8.85-8.6Q-16.7-4-13.65 10.4" transform="translate(34.55 33.9)"/><path fill-rule="evenodd" fill="#cc6c0c" d="M-13.65 10.4Q-16.7-4-9.75-12.15q2.9 3.9 2.8 11-.15 9.75.25 11.7l-4.55-6q-.65 2.15-2.4 5.85" transform="translate(34.55 33.9)"/><path stroke-width=".05" stroke-linejoin="round" stroke-linecap="round" stroke="#1f1f29" fill="none" d="M24.8 21.75q-6.6.65-8.85 8.6-.8 3.55.5 10 1 5.55-.25 8.35l4.7-4.4m3.9-22.55q2.9 3.9 2.8 11-.15 9.75.25 11.7l-4.55-6q-.65 2.15-2.4 5.85"/><path fill-rule="evenodd" fill="#adaa22" d="M12.9-1.9q3.9-2.95 5.65-7.55 1-2.6 1.8-6.55.6-2.65.3-5.85 10.8 7.25 12.5 22.8-3.4-5.45-6.8-5.15l-.7.1q-2.75-2.95-3.3-10.7-4.1 10.6-2.1 18.2-1.15-2-3.75-1.7-2.65.5-3.5 2.6 1.15-3.15-.1-6.2" transform="translate(34.55 33.9)"/><path fill-rule="evenodd" fill="#dbcf48" d="M33.15.95q-1.7-15.55-12.5-22.8 4.85-.05 7.85 3.3 2.3 2.5 3.85 8.3 1.8 6.4.8 11.2" transform="translate(34.55 33.9)"/><path fill-rule="evenodd" fill="#99961e" d="M20.25 3.4q-2-7.6 2.1-18.2.55 7.75 3.3 10.7-3.25.95-5.4 7.5" transform="translate(34.55 33.9)"/><path stroke-width=".05" stroke-linejoin="round" stroke-linecap="round" stroke="#1f1f29" fill="none" d="M55.2 12.05q.3 3.2-.3 5.85-.8 3.95-1.8 6.55-1.75 4.6-5.65 7.55m.1 6.2q.85-2.1 3.5-2.6 2.6-.3 3.75 1.7 2.15-6.55 5.4-7.5l.7-.1q3.4-.3 6.8 5.15m-12.5-22.8q4.85-.05 7.85 3.3 2.3 2.5 3.85 8.3 1.8 6.4.8 11.2"/><path fill-rule="evenodd" fill="#adaa22" d="M-8.6 1q-1.2 3.55.5 6.2-1.2-1.75-4.4-1.15-3.15.75-4.35 3.25Q-15.2.95-21.2-7.85q.1 7.9-2.85 11.95l-.9.2q-4.15 1.1-7.6 7.9.4-16.1 12.65-27.7-.05 3.3.95 5.65 1.35 3.6 2.9 5.75Q-13.55-.3-8.6 1" transform="translate(34.55 33.9)"/><path fill-rule="evenodd" fill="#99961e" d="M-16.85 9.3q-3.3-5.6-7.2-5.2Q-21.1.05-21.2-7.85q6 8.8 4.35 17.15" transform="translate(34.55 33.9)"/><path fill-rule="evenodd" fill="#dbcf48" d="M-32.55 12.2q-1.7-4.3-.2-11.4 1.3-6.4 3.8-9.8 3.2-4.55 9.05-6.5-12.25 11.6-12.65 27.7" transform="translate(34.55 33.9)"/><path stroke-width=".05" stroke-linejoin="round" stroke-linecap="round" stroke="#1f1f29" fill="none" d="M26.45 41.1q-1.2-1.75-4.4-1.15-3.15.75-4.35 3.25-3.3-5.6-7.2-5.2l-.9.2Q5.45 39.3 2 46.1q-1.7-4.3-.2-11.4 1.3-6.4 3.8-9.8 3.2-4.55 9.05-6.5-.05 3.3.95 5.65 1.35 3.6 2.9 5.75 2.5 3.8 7.45 5.1"/><path fill-rule="evenodd" fill="#8a5520" d="m13.4-5.1 1.35-1.4q6.05-.55 9.65 3.95Q25-.7 26.4 2l-1.9 1.3-.1.1L23.35 1Q20.3-4.9 13.4-5.1" transform="translate(34.55 33.9)"/><path fill-rule="evenodd" fill="#b16c27" d="M13.4-5.1q6.9.2 9.95 6.1l1.05 2.4q-3.55 1.85-6.9 2.05l-2.95-.2-1.6-.45-2.4-1.05q.2-5.65 2.85-8.85" transform="translate(34.55 33.9)"/><path fill-rule="evenodd" fill="#9467b0" d="m12.95 4.8 1.6.45.7.85q-1.3 4.2-.4 7.05h-.3q-.55-.1-.8-1.35-.35-1.35-.2-3.05.1-1.05.35-1.9l-.3-.3q-.5-.55-.65-1.65v-.1m2.8 7.95 3.8 3.75-1.5-.7-.15-.2q-.35.85-.85.5-.6-.35-1-1.75l-.3-1.6" transform="translate(34.55 33.9)"/><path fill-rule="evenodd" fill="#582578" d="m14.55 5.25 2.95.2-.1 2v.05q3.8 2 3.95 9-.9.25-1.8 0l-3.8-3.75-.05-.55-.2.3-.65.65q-.9-2.85.4-7.05l-.7-.85" transform="translate(34.55 33.9)"/><path fill-rule="evenodd" fill="#381952" d="m24.4 3.4.1-.1-.05 1.5-.5 1.3.45.4q.55.65.75 1.55.15.95-.2 1.6l-.4.4v3.7q-1.6 2.2-3.2 2.75-.15-7-3.95-9v-.05l.1-2q3.35-.2 6.9-2.05" transform="translate(34.55 33.9)"/><path stroke-width=".05" stroke-linejoin="round" stroke-linecap="round" stroke="#1f1f29" fill="none" d="m58.95 37.3.1-.1 1.9-1.3M47.5 38.7l1.6.45 2.95.2q3.35-.2 6.9-2.05M47.5 38.7l-2.4-1.05"/><path stroke-width=".05" stroke-linejoin="round" stroke-linecap="round" stroke="#1f1f29" fill="none" d="M60.95 35.9q-1.4-2.7-2-4.55-3.6-4.5-9.65-3.95m.1 19.65h-.3q-.55-.1-.8-1.35-.35-1.35-.2-3.05.1-1.05.35-1.9l-.3-.3q-.5-.55-.65-1.65v-.1m1.9 8.35.65-.65.2-.3.05.55m3.8 3.75q.9.25 1.8 0m-1.8 0-1.5-.7-.15-.2q-.35.85-.85.5-.6-.35-1-1.75l-.3-1.6m8.75-9.45L59 38.7l-.5 1.3.45.4q.55.65.75 1.55.15.95-.2 1.6l-.4.4v3.7q-1.6 2.2-3.2 2.75"/><path fill-rule="evenodd" fill="#eaa32d" d="m18.55 17.7.6.2.35.7.15.3q-1 .3-1.8 1.05l-.25-1q-1.95-.7-3.7-.55l-1.25.2 1.3.2 3.05.85.1.05.35.65-.15.15v.3q-1.1.25-2.15 1.2l-.05.75-.35 2.75.6.3-1.75-.15q-.15-3 .5-3.8L12 20.7l-.35-.2-2.5-.7q1.05-1.45 3.55-2.75.5.45 1.25.65l2.65.1 1.95-.1m-6.55 3 .2-.2q1.15-1.35 2.4-1.35l.2.05 1.25.4-1.25-.4-.2-.05q-1.25 0-2.4 1.35l-.2.2" transform="translate(34.55 33.9)"/><path fill-rule="evenodd" fill="#fef7e0" d="M19.65 18.9q1.6-.45 3.6.35 2.1 1.7 2.5 3.9-.1.75-1.15.95-1.7-2.45-4.5-2.9l-.35-.05 1 .55q1 1.3 1.4 2.7l.25 1.7q-.2.7-1.15.8-.7-1.65-1.8-2.6l-2.05-1.2-2.3-.35.05-.75q1.05-.95 2.15-1.2v-.3l.15-.15.4-.4q.8-.75 1.8-1.05m-5.7-1.2q1.35-1.7 3.4-1.2l1.2 1.2-1.95.1-2.65-.1m3.35 3.1q1.2-.25 2.45.35-1.25-.6-2.45-.35" transform="translate(34.55 33.9)"/><path fill-rule="evenodd" fill="#cf7b16" d="m13.6 25.65-4.45-.85-.55-2.15q-.4-1.5.55-2.85l2.5.7.35.2 2.1 1.15q-.65.8-.5 3.8m3.85-5.3-.35-.65-.1-.05-3.05-.85-1.3-.2 1.25-.2q1.75-.15 3.7.55l.25 1-.4.4" transform="translate(34.55 33.9)"/><path fill-rule="evenodd" fill="#d9ceb4" d="m24.6 24.1-2.45.3q-.4-1.4-1.4-2.7l-1-.55.35.05q2.8.45 4.5 2.9m-3.35 2.8q-3.3 0-5.9-1.1l-.6-.3.35-2.75 2.3.35 2.05 1.2q1.1.95 1.8 2.6" transform="translate(34.55 33.9)"/><path stroke-width=".05" stroke-linejoin="round" stroke-linecap="round" stroke="#1f1f29" fill="none" d="m53.1 51.6.6.2.35.7.15.3q1.6-.45 3.6.35 2.1 1.7 2.5 3.9-.1.75-1.15.95l-2.45.3.25 1.7q-.2.7-1.15.8-3.3 0-5.9-1.1l-1.75-.15-4.45-.85-.55-2.15q-.4-1.5.55-2.85 1.05-1.45 3.55-2.75.5.45 1.25.65 1.35-1.7 3.4-1.2l1.2 1.2-1.95.1-2.65-.1m2.1 1.9-1.25-.4-.2-.05q-1.25 0-2.4 1.35l-.2.2m5.85-.75q.8-.75 1.8-1.05m-4.5 3.1q1.05-.95 2.15-1.2m0-.3.15-.15.4-.4m-3.1 5.55.6.3m4.4-4.65 1 .55q1 1.3 1.4 2.7m-2.4-3.25q-1.25-.6-2.45-.35"/><path fill-rule="evenodd" fill="#fef7e0" d="m-7.75 25.45.05-.05q.6-.1 1.15.8.55.9.4 3.15l-.05.05q-.2.75-1.6.9l-.85-.15q.45-.15.65-1 .3-1.2.25-3.7m8-.6v-.05q.65-.65 1.35-1 1.35-.8 2.7-.6 1.05.1 2.15.85 1.55 2.2 1.4 4.8-.3.8-1.35.95-.7-2.1-2.2-3.15-.85-.6-1.95-.85l-.8-.15L.1 25.6l.4.5q.65.8.85 2.4l.1 1.2-.05 1.6q-.3 1.35-3.1 1.55l-1.55-.15q.8-.8 1.05-2.65.25-1.95-.1-5.1 1.2-.65 2.4.65l.15-.75" transform="translate(34.55 33.9)"/><path fill-rule="evenodd" fill="#cf7b16" d="m-7.7 25.4-.05.05q-.55.1-1.1 1-.15-1.7 1.25-3.25l2.7.95-.55.3.55-.3 2 1.2L-4 26.6l-1.1 1.65-.3 1.3-.8-.15.05-.05q.15-2.25-.4-3.15-.55-.9-1.15-.8m7.3-1q-.5-.6-1.1-.85l-.2-.1-1.75-1.5 4.55.4.5 1.45q-.7.35-1.35 1v.05l-.65-.45" transform="translate(34.55 33.9)"/><path fill-rule="evenodd" fill="#eaa32d" d="m-4.9 24.15-2.7-.95q1.45-1.65 4.6-3.1 1.1 1.2 3.95 1.2 2.5 0 3.3 1.75l.05.15q-1.35-.2-2.7.6l-.5-1.45-4.55-.4 1.75 1.5.2.1q.6.25 1.1.85l.65.45-.15.75q-1.2-1.3-2.4-.65l-.6.4-2-1.2q1.85-1.1 3.2-.7-1.35-.4-3.2.7m6.35 5.55-.1-1.2 1.5.6-1.4.6" transform="translate(34.55 33.9)"/><path fill-rule="evenodd" fill="#d9ceb4" d="M-7.75 25.45q.05 2.5-.25 3.7-.2.85-.65 1-.8-.3-1.05-1.4-.1-.7.2-1.25l.6-.95.05-.1q.55-.9 1.1-1m4.85-.1.6-.4q.35 3.15.1 5.1-.25 1.85-1.05 2.65-1.65-.5-2.1-2.4l-.05-.75.3-1.3L-4 26.6l1.1-1.25m3 .25 1.45.05.8.15q1.1.25 1.95.85 1.5 1.05 2.2 3.15-1.25.15-3.65-.7l-1.5-.6q-.2-1.6-.85-2.4l-.4-.5" transform="translate(34.55 33.9)"/><path stroke-width=".05" stroke-linejoin="round" stroke-linecap="round" stroke="#1f1f29" fill="none" d="m25.9 64.05.85.15q1.4-.15 1.6-.9l.05-.05q.15-2.25-.4-3.15-.55-.9-1.15-.8m2.8-1.25-.55.3m-2.15-1.25q-1.4 1.55-1.25 3.25.55-.9 1.1-1m6.05-2 .2.1q.6.25 1.1.85m.65.4q.65-.65 1.35-1m-3.3-.35q-1.35-.4-3.2.7m2 1.2.6-.4q1.2-.65 2.4.65m6.4 4.2q1.05-.15 1.35-.95.15-2.6-1.4-4.8-1.1-.75-2.15-.85-1.35-.2-2.7.6m-9.2-.6q1.45-1.65 4.6-3.1 1.1 1.2 3.95 1.2 2.5 0 3.3 1.75l.05.15M25.7 60.35l-.05.1-.6.95q-.3.55-.2 1.25.25 1.1 1.05 1.4m10-1.65q-.2-1.6-.85-2.4l-.4-.5M36 63.6l-.1-1.2 1.5.6q2.4.85 3.65.7m-9.75 2.9 1.55.15q2.8-.2 3.1-1.55l.05-1.6 1.4-.6m-9.05.3.8.15.3-1.3 1.1-1.65 1.1-1.25m-2.5 4.2.05.75q.45 1.9 2.1 2.4"/><path fill-rule="evenodd" fill="#8a5520" d="M1.85-6.1q7.45-2.95 14.7 1.4.25.15.55.35L19.95 0 18.8.7Q14.4 3.25 10.05 3l-.1-.2-.2.25q-5.1 6.5-11.4 7.9l-2.45-.4q-5.7-4.5-4.3-6.8V3.3q0-2.95 4.2-6l4.1-2.5 1.95-.9M1.1 22.75l-5.1-1.5-1.4-3.95 7.95.6 5.65-.25 1.7-.2-.6 1.6-.05.2v.05q-.35 2 .7 3.3l.7.7-2.15.2-4.95-.3-2.45-.45m17.35-7.65q2.2-.9 4.2-2.1l-1.15 4.7-2.2 2 .15-.65q.45-2.15-.75-3.65l-.25-.3m-2.25 1.2q.8.15 1.3.8.75.95.5 2.35l-.85 1.65q-1.75 1-3.7 1.6-1.05-.15-1.65-.9-.6-.75-.45-1.85l.05-.5q.3-1.4 1.4-2.35l.3-.25.1-.05 2.35-.65.65.15" transform="translate(34.55 33.9)"/><path fill-rule="evenodd" fill="#b16c27" d="M-1.65 10.95q6.3-1.4 11.4-7.9l.2-.25.1.2q4.35.25 8.75-2.3l1.15-.7Q22 3.7 21.3 5.85l-.05.05-1.75 1.75-1.55.9-1.45.5-5.15-.2q-3.45 2.7-7.4 2.65l-5.6-.55M10.05 3l1.3 5.85L10.05 3" transform="translate(34.55 33.9)"/><path fill-rule="evenodd" fill="#7da10b" d="m1.85-6.1-1.95.9-4.1 2.5q2.9-2.4 6.05-3.4M-8.4 3.3v.45q-1.4 2.3 4.3 6.8l2.45.4 5.6.55q3.95.05 7.4-2.65l5.15.2 1.45-.5q-1.6 1.75-9.7 2.65 1.15.4 2.7 3.7l.3.65-.05.05q-.85.8-1.3 1.85l-1.7.2-5.65.25-7.95-.6 1.4 3.95 5.1 1.5L-1.05 24l-2.8-1.45Q-14.65 16.4-8.4 3.3m29.7 2.55q.65.85.75 1.65v.65l-.5.45-2.05-.95 1.75-1.75.05-.05" transform="translate(34.55 33.9)"/><path fill-rule="evenodd" fill="#a6c916" d="m22.05 8.15.25.2q.7.7.85 1.75.15.9-.25 1.6l-.1.1-.4.45.55.65.55.9q.75 1.35.8 2.65-.05 1.25-.8 1.65-.7.3-1.75-.35l-.05-.05v.1l.15 2q-.1 1.45-.75 2l-1.45-.1-.5-.5-.25.15-.2.2-.05.95q-.25 1-1.05 1.6-.75.5-1.6.3l-.6-.2-.7 1.7q-.8 1.25-1.85 1.8-1.05.5-1.75 0-.7-.55-.65-1.85l-1.65.95-2.1.2q-.7-.35-.65-1.2-3.5-.25-7.1-1.8l2.15-1.25 2.45.45 4.95.3 2.15-.2.45.3.85.35 1.35.2q2.15-.05 3.85-1.55 1.55-1.2 2.15-2.9l2.2-2 1.15-4.7q-2 1.2-4.2 2.1-1.1-1.1-3-1.1l-1.65.2-.35.1q-1.05.35-2 1.1l-.2.15-.3-.65q-1.55-3.3-2.7-3.7 8.1-.9 9.7-2.65l1.55-.9 2.05.95.5-.45m-4.9 12.95-.7.7q-.85.75-1.9.85l-.55.1-.55-.05q1.95-.6 3.7-1.6m-1.75-4.95h.15l-2.35.65q1.05-.65 2.2-.65" transform="translate(34.55 33.9)"/><path fill-rule="evenodd" fill="#ebe0c3" d="m21.75 17.75-.05.05v-.1l.05.05" transform="translate(34.55 33.9)"/><path fill-rule="evenodd" fill="#fec501" d="M9.9 17.45q.45-1.05 1.3-1.85l.05-.05 1.8 1.3h.05l-.3.25q-1.1.95-1.4 2.35l-.05.5-2.1-.65v-.05l.05-.2.6-1.6m3.9-3.25 1.65-.2q1.9 0 3 1.1l.25.3q1.2 1.5.75 3.65l-.15.65q-.6 1.7-2.15 2.9-1.7 1.5-3.85 1.55l-1.35-.2 2.6-1.3q1.05-.1 1.9-.85l.7-.7.85-1.65q.25-1.4-.5-2.35-.5-.65-1.3-.8l-.65-.15h-.15l-1.6-1.95" transform="translate(34.55 33.9)"/><path fill-rule="evenodd" fill="#fee4ab" d="m11.25 15.55.2-.15q.95-.75 2-1.1l.35-.1 1.6 1.95q-1.15 0-2.2.65l-.1.05h-.05l-1.8-1.3m.7 8.4-.85-.35-.45-.3-.7-.7q-1.05-1.3-.7-3.3l2.1.65q-.15 1.1.45 1.85t1.65.9l.55.05.55-.1-2.6 1.3" transform="translate(34.55 33.9)"/><path stroke-width=".05" stroke-linejoin="round" stroke-linecap="round" stroke="#1f1f29" fill="none" d="m54.5 33.9-2.85-4.35q-.3-.2-.55-.35-7.25-4.35-14.7-1.4l-1.95.9m20.05 5.2q2.05 3.7 1.35 5.85m-.05.05.05-.05m-20.2 16.9-5.1-1.5m-1.4-3.95 7.95.6 5.65-.25 1.7-.2q.45-1.05 1.3-1.85m.05-.05.2-.15q.95-.75 2-1.1m.35-.1 1.65-.2q1.9 0 3 1.1 2.2-.9 4.2-2.1m-1.15 4.7-2.2 2q-.6 1.7-2.15 2.9-1.7 1.5-3.85 1.55l-1.35-.2m-.85-.35-.45-.3-2.15.2-4.95-.3-2.45-.45m18.2-3.05.15-.65q.45-2.15-.75-3.65L53 49m-2.25 1.2q.8.15 1.3.8.75.95.5 2.35L51.7 55l-.7.7q-.85.75-1.9.85l-.55.1-.55-.05q1.95-.6 3.7-1.6m-5.8-1.15.05-.5q.3-1.4 1.4-2.35l.3-.25.1-.05q1.05-.65 2.2-.65m-2.2.65 2.35-.65M48 56.6q-1.05-.15-1.65-.9-.6-.75-.45-1.85m-2.1-.65q-.35 2 .7 3.3l.7.7m-1.4-4.05.05-.2.6-1.6"/><path stroke-width=".05" stroke-linejoin="round" stroke-linecap="round" stroke="#1f1f29" fill="none" d="m30.45 44.45 2.45.4 5.6.55q3.95.05 7.4-2.65l5.15.2 1.45-.5 1.55-.9 1.75-1.75m-11.3-3.1.1.2m11.25 2.85q.65.85.75 1.65v.65l.25.2q.7.7.85 1.75.15.9-.25 1.6l-.1.1-.4.45.55.65.55.9q.75 1.35.8 2.65-.05 1.25-.8 1.65-.7.3-1.75-.35l-.05-.05v.1l.15 2q-.1 1.45-.75 2l-1.45-.1-.5-.5-.25.15-.2.2-.05.95q-.25 1-1.05 1.6-.75.5-1.6.3l-.6-.2-.7 1.7q-.8 1.25-1.85 1.8-1.05.5-1.75 0-.7-.55-.65-1.85l-1.65.95-2.1.2q-.7-.35-.65-1.2-3.5-.25-7.1-1.8l-2.8-1.45Q19.9 50.3 26.15 37.2m19.75 5.55-1.3-5.85"/><path fill-rule="evenodd" fill="#fef7e0" d="m22.05-18.95.1-.05-.05.15-.05-.1-5.15 5q-.9-.95-1.55-2.45l6.7-2.55" transform="translate(34.55 33.9)"/><path fill-rule="evenodd" fill="#d1bb90" d="m22.05-18.95.05.1-2.85 6.5q-1.35-.4-2.35-1.6l5.15-5" transform="translate(34.55 33.9)"/><path stroke-width=".05" stroke-linejoin="round" stroke-linecap="round" stroke="#1f1f29" fill="none" d="m56.65 15.05.05-.15-.1.05m.05.1-2.85 6.5m-3.9-4.05 6.7-2.55"/><path fill-rule="evenodd" fill="#d1bb90" d="m-4.05-9.15-2.8-6.15h.05l5.95 5.15q-1 1-3.2 1" transform="translate(34.55 33.9)"/><path fill-rule="evenodd" fill="#fef7e0" d="m-6.8-15.3 6.6 1.5q.5 2.5-.65 3.65L-6.8-15.3" transform="translate(34.55 33.9)"/><path stroke-width=".05" stroke-linejoin="round" stroke-linecap="round" stroke="#1f1f29" fill="none" d="m30.5 24.75-2.8-6.15h.05l6.6 1.5"/><path fill-rule="evenodd" fill="#8a5520" d="m-3.35-1.3 1.3 1.4Q-8.95.3-12 6.2l-1 2.4-.15-.1-1.9-1.3q1.4-2.7 2.05-4.55 3.55-4.5 9.65-3.95" transform="translate(34.55 33.9)"/><path fill-rule="evenodd" fill="#b16c27" d="M-2.05.1Q.6 3.3.8 8.95L-1.55 10l-1.6.45-3 .2Q-9.5 10.45-13 8.6l1-2.4Q-8.95.3-2.05.1" transform="translate(34.55 33.9)"/><path fill-rule="evenodd" fill="#381952" d="M-9.95 21.7q-1.65-.55-3.25-2.75v-3.7l-.35-.4q-.4-.65-.2-1.6.15-.9.75-1.55l.45-.4-.5-1.3-.1-1.5.15.1q3.5 1.85 6.85 2.05l.1 2v.05q-3.8 2-3.9 9" transform="translate(34.55 33.9)"/><path fill-rule="evenodd" fill="#582578" d="m-3.5 18.35-.65-.65-.15-.3-.1.55-3.8 3.75q-.9.25-1.75 0 .1-7 3.9-9v-.05l-.1-2 3-.2-.75.85q1.3 4.2.4 7.05" transform="translate(34.55 33.9)"/><path fill-rule="evenodd" fill="#9467b0" d="m-1.55 10-.05.1q-.15 1.1-.65 1.65l-.3.3.4 1.9q.1 1.7-.2 3.05-.3 1.25-.85 1.35h-.3q.9-2.85-.4-7.05l.75-.85 1.6-.45m-2.85 7.95-.3 1.6q-.4 1.4-.95 1.75-.55.35-.9-.5l-.1.2q-.8.5-1.55.7l3.8-3.75" transform="translate(34.55 33.9)"/><path stroke-width=".05" stroke-linejoin="round" stroke-linecap="round" stroke="#1f1f29" fill="none" d="M35.35 42.85 33 43.9m-11.6-1.5-1.9-1.3q1.4-2.7 2.05-4.55 3.55-4.5 9.65-3.95m-9.65 9.9q3.5 1.85 6.85 2.05l3-.2 1.6-.45m-11.45-1.4-.15-.1"/><path stroke-width=".05" stroke-linejoin="round" stroke-linecap="round" stroke="#1f1f29" fill="none" d="m33 43.9-.05.1q-.15 1.1-.65 1.65l-.3.3.4 1.9q.1 1.7-.2 3.05-.3 1.25-.85 1.35h-.3l-.65-.65-.15-.3-.1.55-.3 1.6q-.4 1.4-.95 1.75-.55.35-.9-.5l-.1.2q-.8.5-1.55.7-.9.25-1.75 0-1.65-.55-3.25-2.75v-3.7l-.35-.4q-.4-.65-.2-1.6.15-.9.75-1.55l.45-.4-.5-1.3-.1-1.5"/><path fill-rule="evenodd" fill="#ff8d0f" d="M22.3-25.15q3.3 3.3 3.25 6.55l-3.85-2.95.7-1.6.05-.15-.1.05-2.45.95-3.35-.5h-2.2q-5.65-.1-8.7-1.25l-2.4 1.3q-4.7 2.45-7.3 2.4-1.9-.05-2.75-1.3-3.05-.9.25-8.1 6.6-.7 9.9 2.55 3.25-.75 5.6 1.25l-3.05-2.9q8.2-2.05 16.4 3.7M-2.55 2.05Q-2.75 4.45-4 6.7q-3.1-3-3.4-6.65-.1-1.65.35-3.4l.35-1.15.75-1.85.45-.8.45.7.45.8.35.6q1.9 3.7 1.7 7.1M.15-15.9q3.5-3.35 4.8-5.8.65-1.3.7-2.35 1.2 2.7 4.8 3.65Q9.3-18 7-15.75L2.85-12.4l-1.2.45-1.8-.25-1.55.1q-.25.2 1.1.4l1.1.2q-4.05 1.65-5.8 3.55-.1-2.2 3.1-5.65 1-.25 1.6-.85.55-.6.75-1.45" transform="translate(34.55 33.9)"/><path fill-rule="evenodd" fill="#cc6c0c" d="M22.3-25.15q-8.2-5.75-16.4-3.7l3.05 2.9q-2.35-2-5.6-1.25-3.3-3.25-9.9-2.55-3.3 7.2-.25 8.1.85 1.25 2.75 1.3 2.6.05 7.3-2.4l2.4-1.3q3.05 1.15 8.7 1.25h2.2l3.35.5-4.25 1.6q.65 1.5 1.55 2.45 1 1.2 2.35 1.6l2.15-4.9 3.85 2.95q-.05 2.7-2.55 5.4l-3.05-2.45-3.6-2.1-5.9-2.65q-3.6-.95-4.8-3.65-.05 1.05-.7 2.35-1.3 2.45-4.8 5.8.15-.95-.1-2.2l-6.6-1.5h-.05l2.8 6.15 1.6-.15q-3.2 3.45-3.1 5.65L-6.4-6.5l-.6-.15Q-8.85-8.7-9.35-10.3q-.3-.85-.2-1.6-5.05-5.6-.4-13.95 1.65-2.5 3.35-3.9h.05v-.05q3.25-2.7 6.8-1.55.9.5 1.85.95l3.4-2.4q7 .1 11.7 3.7 3.15 2 5.1 3.95M20.2-11.1l.25-.5Q25.5-4.05 22 2.25q-1.8-1.7-2.65-3.6 1.95-2.9 1.05-6.75.25-1.25-.05-2.8l-.15-.2m-27-10.55q-1.85 2-2.75 9.75.9-7.75 2.75-9.75m12.7-7.2L2.1-30.4l3.8 1.55" transform="translate(34.55 33.9)"/><path fill-rule="evenodd" fill="#fef7e0" d="m19.9-22.3 2.45-.95.1-.05-.05.15-.05-.1-5.15 5q-.9-.95-1.55-2.45l4.25-1.6m-26.45 2.7 6.6 1.5q.25 1.25.1 2.2-.2.85-.75 1.45l-5.95-5.15" transform="translate(34.55 33.9)"/><path fill-rule="evenodd" fill="#d1bb90" d="m22.4-23.15-.7 1.6-2.15 4.9q-1.35-.4-2.35-1.6l5.15-5 .05.1m-26.2 9.7-2.8-6.15h.05l5.95 5.15q-.6.6-1.6.85l-1.6.15" transform="translate(34.55 33.9)"/><path fill-rule="evenodd" fill="#995e22" d="m-6.6-29.75.05-.05v.05h-.05" transform="translate(34.55 33.9)"/><path fill-rule="evenodd" fill="#9467b0" d="m19.95-15.65-.05.75q-.15 1.75-.05 3.5l-2.45-.05-.1.05-.25.7-.25-.45-1-1.8q1.35-1.5.55-4.8l3.6 2.1m-.6 14.3-.85 1.1.7-1.5q.3-1.2.1-2.65h.05l1-.9.15-.65-.75-.25-.5.15.35-.3q.55-.8.8-1.75.9 3.85-1.05 6.75m-32.6-5.9 3 .15h.55l.4.05 2.6 2.55-.35 1.15-2.4-1.85-3.8-2.05M.5-11.5l-1.1-.2q-1.35-.2-1.1-.4l1.55-.1 1.8.25.8.2q1.3.35 2 .95l.7.8q0 .2-.9-.25l-2.2-.9L.5-11.5m2.7 9.85.55.75q-.05.5-.8.7H2.9L.6-.1Q-.7-.3-1.55-.75q-.95-.4-.95-.9t.95-.75H.6l2.3.55.3.2" transform="translate(34.55 33.9)"/><path fill-rule="evenodd" fill="#381952" d="m3.15 3.45-5.7-1.4q.2-3.4-1.7-7.1l-.35-.6.35.3v.3q.65.8 1.9 1.5l1.25.35q2.65.8 4.45.9l-.15.65-.3-.2L.6-2.4h-2.15q-.95.25-.95.75t.95.9Q-.7-.3.6-.1l2.3-.1h.05q-.2 1.8.2 3.65M-9.7-7.1l.35-3.2q.5 1.6 2.35 3.65l.6.15 1.1-1.45q1.75-1.9 5.8-3.55l1.55.35 2.2.9q.9.45.9.25l-.7-.8q-.7-.6-2-.95l-.8-.2 1.2-.45L7-15.75q.05 3.45-1.1 8.5L5.05-6l-2.8-2.55-.1-.05L2-8.75q-4.3-1.1-7 .55-.3.95-.05 1.75l-.45-.7-.45.8-.45-.15.45.15-.75 1.85-2.6-2.55-.4-.05m.4.05 2.3.4-2.3-.4" transform="translate(34.55 33.9)"/><path fill-rule="evenodd" fill="#582578" d="M18.5-.25 16.9 1.1q-5 3.8-13.75 2.35-.4-1.85-.2-3.65.75-.2.8-.7l-.55-.75.15-.65q2.2.1 3.2-.9Q6.3-4.55 5.05-6l.85-1.25q1.15-5.05 1.1-8.5Q9.3-18 10.45-20.4l5.9 2.65q.8 3.3-.55 4.8l1 1.8.25.45-.1.2q-1.05 2.4-1 4.55.6 1.2 1.85.8l-.3.25q-.35.5-.15.8.2.25.75.15.55-.05 1.2-.45.2 1.45-.1 2.65l-.7 1.5m-6.55-5.5q-1.6.05-2.95.85-1.4.8-1.2 1.8.1.9 1.55.35l3.2-.8L15-3.9q.8 0 .7-.6-.15-.65-1.2-1l-2.55-.25" transform="translate(34.55 33.9)"/><path fill-rule="evenodd" fill="#fff" d="m19.85-11.4.35.3.15.2q.3 1.55.05 2.8-.25.95-.8 1.75l-.35.3-.75.4-.2.1q-2-1.4-1.35-4.95l.1-.2.25-.7.1-.05 2.45.05M-1.1-3.2q-2.3-4.3 3.35-5.35L5.05-6q1.25 1.45 1.5 2.8-1 1-3.2.9-1.8-.1-4.45-.9" transform="translate(34.55 33.9)"/><path fill-rule="evenodd" fill="#b59bca" d="m18.3-5.55.2-.1.75-.4.5-.15.75.25-.15.65-1 .9h-.05q-.65.4-1.2.45-.55.1-.75-.15-.2-.3.15-.8l.3-.25.5-.4" transform="translate(34.55 33.9)"/><path fill-rule="evenodd" fill="#270f33" d="m11.95-5.75 2.55.25q1.05.35 1.2 1 .1.6-.7.6l-2.45.35-3.2.8Q7.9-2.2 7.8-3.1q-.2-1 1.2-1.8 1.35-.8 2.95-.85" transform="translate(34.55 33.9)"/><path fill-rule="evenodd" fill="#f0e0c2" d="m18.3-5.55-.5.4q-1.25.4-1.85-.8-.05-2.15 1-4.55-.65 3.55 1.35 4.95M2.15-8.6l.1.05Q-3.4-7.5-1.1-3.2l-1.25-.35q-1.25-.7-1.9-1.5v-.3l-.35-.3-.45-.8q-.25-.8.05-1.75 2.7-1.65 7-.55l.15.15" transform="translate(34.55 33.9)"/><path fill-rule="evenodd" fill="#411a53" d="M-7.4.05q-5.75-2.35-5.85-7.3l3.8 2.05 2.4 1.85Q-7.5-1.6-7.4.05" transform="translate(34.55 33.9)"/><path stroke-width=".05" stroke-linejoin="round" stroke-linecap="round" stroke="#1f1f29" fill="none" d="M60.1 15.3q.05-3.25-3.25-6.55m3.25 6.55q-.05 2.7-2.55 5.4l-3.05-2.45M25.2 23.6q-.3-.85-.2-1.6.9-7.75 2.75-9.75m24-7.45q3.15 2 5.1 3.95M40.2 9.85q1.2 2.7 4.8 3.65l5.9 2.65 3.6 2.1m-25.25 7.7q1.75-1.9 5.8-3.55m1.15-.45 1.2-.45 4.15-3.35q2.3-2.25 3.45-4.65M27.55 27.25Q25.7 25.2 25.2 23.6"/><path stroke-width=".05" stroke-linejoin="round" stroke-linecap="round" stroke="#1f1f29" fill="none" d="m54.45 11.6 2.45-.95.1-.05-.05.15-.7 1.6-2.15 4.9m.4 1-.05.75q-.15 1.75-.05 3.5l.35.3.25-.5q5.05 7.55 1.55 13.85-1.8-1.7-2.65-3.6l-.85 1.1-1.6 1.35q-5 3.8-13.75 2.35l-5.7-1.4q-.2 2.4-1.45 4.65-3.1-3-3.4-6.65-5.75-2.35-5.85-7.3l3 .15h.55l.35-3.2M25 22q-5.05-5.6-.4-13.95 1.65-2.5 3.35-3.9L28 4.1q3.25-2.7 6.8-1.55.9.5 1.85.95l3.4-2.4q7 .1 11.7 3.7m-21 15.65-2.8-6.15H28l6.6 1.5m2.05-12.3 3.8 1.55m11.4 17.45.1-.05 2.45.05m-4.2-9.3 4.25-1.6m.3 11.2.15.2q.3 1.55.05 2.8.9 3.85-1.05 6.75m-.1-4.7.35-.3q.55-.8.8-1.75m-3.45-2.4q-1.05 2.4-1 4.55.6 1.2 1.85.8M36.7 25.3l-.15-.15q-4.3-1.1-7 .55-.3.95-.05 1.75l.45.8.35.3m0 .3q.65.8 1.9 1.5l1.25.35m3.35-5.35 2.8 2.55m-1.7 3.7q-1.8-.1-4.45-.9m4.45.9q2.2.1 3.2-.9-.25-1.35-1.5-2.8m-11.45-.5.45.15.45-.8.45.7m-1.35-.05-.6-.15-2.3-.4m2.6 2.55.75-1.85m-1.45 6.4q-.1-1.65.35-3.4l.35-1.15m2.1-1.15.35.6q1.9 3.7 1.7 7.1m-7.15-9.15.4.05"/></g><path fill-rule="evenodd" fill-opacity="0" fill="#f0f" d="M0 0h102.95v45H0V0" id="b"/></defs><path fill="none" d="M-1-1h155v152H-1z"/><use x="83.071" y="148.223" xlink:href="#c" width="381" transform="translate(-192.55 -294)" height="381"/><use x="38.388" y="68.495" xlink:href="#d" width="69.15" transform="translate(-81.766 -146.66) scale(2.164)" height="67.85"/><use x="-60.303" y="-87.844" xlink:href="#e" width="102.95" transform="matrix(1.8072 0 0 1.6538 96 161.55)" height="45"/></svg>