<svg width="163" height="171" xmlns="http://www.w3.org/2000/svg" xmlns:xlink="http://www.w3.org/1999/xlink"><defs><use xlink:href="#a" width="69.15" height="72.2" id="d"/><use xlink:href="#b" width="102.95" height="45" id="e"/><g id="c" stroke-opacity="0" stroke-linejoin="round" stroke-linecap="round" stroke="#f0f" fill="none"><path d="M187.95-293.5v380h-380v-380h380M92.95.6H-97" transform="translate(192.55 294)"/><path d="m187.95-293.5-190 190 190 190m-380-380 190 190L-192 86.5" transform="translate(192.55 294)"/></g><g id="a"><path fill-rule="evenodd" d="m-8.7-6.45-.6-.05.65.1-.05-.05m-3.85-6.05.45-.1.2-.05-.25-.15q-1.8-.75-2.95-1.85-1.85-1.85-1.25-3.55.55-1.7 3.3-2.25 2.6-.55 5.95.45-.3-1.5.4-2.85.8-1.7 2.8-2.45l-.05-.35q-.2-2.45.8-3.35.9-.85 2.5.4L.5-27.55Q.3-29.45.5-31l.05-.6q.5-2.8 2.05-3.3 1.45-.45 3.05 1.65Q7.15-31.2 8-27.6q.9-1.1 2.2-1.25 1.85-.3 3.45 1.45l.4.45q1.2-1.1 2.25-.8 1.1.3 1.4 2.05l.05 1.3q1.15-1.25 2.45-1.85l3.25-.1q1.2.85.95 3.05-.25 1.8-1.5 3.8 3.35.55 5.6 3.1 2.3 2.5 3.85 8.3 1.8 6.4.8 11.2-3.4-5.45-6.8-5.15l-.7.1q-1.2.35-2.25 1.45-.2 2-1.45 3.7.65-.5 1.3-.15.7.35 1.05 1.45.35 1.15.15 2.45l-.5 1.3.45.4q.55.65.75 1.55.15.95-.2 1.6l-.4.4v3.7l-.65.85.4 1.85q-.05 1.25-.8 1.6-.5.25-1.15 0L22 21l1.25.4q2.1 1.7 2.5 3.9-.1.75-1.15.95l-2.45.3.25 1.7q-.2.7-1.15.8-3.3 0-5.9-1.1h-.55l-.1.1q-.8 1.25-1.85 1.8-1.05.5-1.75 0-.7-.55-.65-1.85l-1.65.95-1.05.3.1 1.75q-.3.8-1.35.95-1.25.15-3.65-.7l-1.4.6-.05 1.6Q1.1 34.8-1.7 35l-1.55-.15q-1.65-.5-2.1-2.4l-.05-.75-.8-.15q-.2.75-1.6.9l-.85-.15q-.8-.3-1.05-1.4-.1-.7.2-1.25l.6-.95.05-.1Q-9 26.9-7.6 25.35l2-1.65.05-.05-.15-.15q-.5.25-.85-.55l-.1.2q-.8.5-1.55.7-.9.25-1.75 0-1.65-.55-3.25-2.75v-3.7l-.35-.4q-.4-.65-.2-1.6.15-.9.75-1.55l.45-.4-.5-1.3q-.25-1.3.1-2.45.35-1.1 1.1-1.45l.7-.1.7.35.05-.4-.75-.05-.7.05-.65.1q-3.15.75-4.35 3.25-3.3-5.6-7.2-5.2l-.9.2q-4.15 1.1-7.6 7.9-1.7-4.3-.2-11.4 1.3-6.4 3.8-9.8 3.2-4.55 9.05-6.5-.05 3.3.95 5.65 1.35 3.6 2.9 5.75 2.5 3.8 7.45 5.1l-.2.75.25-.1.3-.1.5.4 1.25-2.2q-9.8-2.55-9.95-8.8l4 .1 1.3.1h.05l-1.3-.35-.85-.35q-2.1-.95-2.15-2.35-.1-1.4 1.9-2.35l.95-.4" transform="translate(34.55 36.1)"/><path stroke-width="2.25" stroke-linejoin="round" stroke-linecap="round" stroke="#1f1f29" fill="none" d="m22 23.6-.95.4q-2 .95-1.9 2.35.05 1.4 2.15 2.35l.85.35 1.3.35h-.05l-1.3-.1-4-.1q.15 6.25 9.95 8.8l-1.25 2.2-.5-.4-.3.1-.25.1.2-.75q-4.95-1.3-7.45-5.1-1.55-2.15-2.9-5.75-1-2.35-.95-5.65-5.85 1.95-9.05 6.5-2.5 3.4-3.8 9.8-1.5 7.1.2 11.4 3.45-6.8 7.6-7.9l.9-.2q3.9-.4 7.2 5.2 1.2-2.5 4.35-3.25l.65-.1.7-.05.75.05-.05.4-.7-.35-.7.1q-.75.35-1.1 1.45-.35 1.15-.1 2.45l.5 1.3-.45.4q-.6.65-.75 1.55-.2.95.2 1.6l.35.4v3.7q1.6 2.2 3.25 2.75.85.25 1.75 0 .75-.2 1.55-.7l.1-.2q.35.8.85.55l.15.15-.05.05-2 1.65Q25.55 63 25.7 64.7l-.05.1-.6.95q-.3.55-.2 1.25.25 1.1 1.05 1.4l.85.15q1.4-.15 1.6-.9l.8.15.05.75q.45 1.9 2.1 2.4l1.55.15q2.8-.2 3.1-1.55l.05-1.6 1.4-.6q2.4.85 3.65.7 1.05-.15 1.35-.95l-.1-1.75 1.05-.3L45 64.1q-.05 1.3.65 1.85.7.5 1.75 0 1.05-.55 1.85-1.8l.1-.1h.55q2.6 1.1 5.9 1.1.95-.1 1.15-.8l-.25-1.7 2.45-.3q1.05-.2 1.15-.95-.4-2.2-2.5-3.9l-1.25-.4.35-.8q.65.25 1.15 0 .75-.35.8-1.6l-.4-1.85.65-.85v-3.7l.4-.4q.35-.65.2-1.6-.2-.9-.75-1.55l-.45-.4.5-1.3q.2-1.3-.15-2.45-.35-1.1-1.05-1.45-.65-.35-1.3.15 1.25-1.7 1.45-3.7 1.05-1.1 2.25-1.45l.7-.1q3.4-.3 6.8 5.15 1-4.8-.8-11.2-1.55-5.8-3.85-8.3-2.25-2.55-5.6-3.1 1.25-2 1.5-3.8.25-2.2-.95-3.05l-3.25.1q-1.3.6-2.45 1.85l-.05-1.3q-.3-1.75-1.4-2.05-1.05-.3-2.25.8l-.4-.45q-1.6-1.75-3.45-1.45-1.3.15-2.2 1.25-.85-3.6-2.35-5.65-1.6-2.1-3.05-1.65-1.55.5-2.05 3.3l-.05.6q-.2 1.55 0 3.45L33.9 7.5q-1.6-1.25-2.5-.4-1 .9-.8 3.35l.05.35q-2 .75-2.8 2.45-.7 1.35-.4 2.85-3.35-1-5.95-.45-2.75.55-3.3 2.25-.6 1.7 1.25 3.55 1.15 1.1 2.95 1.85l.25.15-.2.05-.45.1m3.85 6.05.05.05-.65-.1.6.05"/><path fill-rule="evenodd" fill="#e3bd93" d="M12.9.25q3.9-2.95 5.65-7.55 1-2.6 1.8-6.55.6-2.65.3-5.85 10.8 7.25 12.5 22.8-3.4-5.45-6.8-5.15l-.7.1q-2.75-2.95-3.3-10.7-4.1 10.6-2.1 18.2-1.15-2-3.75-1.7-2.65.5-3.5 2.6 1.15-3.15-.1-6.2" transform="translate(34.55 36.1)"/><path fill-rule="evenodd" fill="#f7d0ac" d="M33.15 3.1q-1.7-15.55-12.5-22.8 4.85-.05 7.85 3.3 2.3 2.5 3.85 8.3 1.8 6.4.8 11.2" transform="translate(34.55 36.1)"/><path fill-rule="evenodd" fill="#b59775" d="M20.25 5.55q-2-7.6 2.1-18.2.55 7.75 3.3 10.7-3.25.95-5.4 7.5" transform="translate(34.55 36.1)"/><path stroke-width=".05" stroke-linejoin="round" stroke-linecap="round" stroke="#1f1f29" fill="none" d="M55.2 16.4q.3 3.2-.3 5.85-.8 3.95-1.8 6.55-1.75 4.6-5.65 7.55m.1 6.2q.85-2.1 3.5-2.6 2.6-.3 3.75 1.7 2.15-6.55 5.4-7.5l.7-.1q3.4-.3 6.8 5.15M55.2 16.4q4.85-.05 7.85 3.3 2.3 2.5 3.85 8.3 1.8 6.4.8 11.2"/><path fill-rule="evenodd" fill="#e3bd93" d="M-8.6 3.15q-1.2 3.55.5 6.2-1.2-1.75-4.4-1.15-3.15.75-4.35 3.25Q-15.2 3.1-21.2-5.7q.1 7.9-2.85 11.95l-.9.2q-4.15 1.1-7.6 7.9.4-16.1 12.65-27.7-.05 3.3.95 5.65 1.35 3.6 2.9 5.75 2.5 3.8 7.45 5.1" transform="translate(34.55 36.1)"/><path fill-rule="evenodd" fill="#b59775" d="M-16.85 11.45q-3.3-5.6-7.2-5.2Q-21.1 2.2-21.2-5.7q6 8.8 4.35 17.15" transform="translate(34.55 36.1)"/><path fill-rule="evenodd" fill="#f7d0ac" d="M-32.55 14.35q-1.7-4.3-.2-11.4 1.3-6.4 3.8-9.8 3.2-4.55 9.05-6.5-12.25 11.6-12.65 27.7" transform="translate(34.55 36.1)"/><path stroke-width=".05" stroke-linejoin="round" stroke-linecap="round" stroke="#1f1f29" fill="none" d="M26.45 45.45q-1.2-1.75-4.4-1.15-3.15.75-4.35 3.25-3.3-5.6-7.2-5.2l-.9.2q-4.15 1.1-7.6 7.9-1.7-4.3-.2-11.4 1.3-6.4 3.8-9.8 3.2-4.55 9.05-6.5-.05 3.3.95 5.65 1.35 3.6 2.9 5.75 2.5 3.8 7.45 5.1"/><path fill-rule="evenodd" fill="#381952" d="m21.2 1.1.2.4.45 1.8q.65-.6 1.4-.25.7.35 1.05 1.45.35 1.15.15 2.45l-.5 1.3.45.4q.55.65.75 1.55.15.95-.2 1.6l-.4.4v3.7q-1.6 2.2-3.2 2.75-.15-7-3.95-9V9.6l.05-3.65 1.75-.1q.75-.4.75-1.35-.1-.9-.95-1.9l1.3-.5q.65-.4.9-1" transform="translate(34.55 36.1)"/><path fill-rule="evenodd" fill="#839212" d="M12.95 5.75 12.4 4.7l-.15-.45L19.6-1.5l.35.1.75.5q.7.65.65 1.55l-.15.45q-.25.6-.9 1l-1.3.5q.85 1 .95 1.9 0 .95-.75 1.35l-1.75.1-.15-.05-1.4-.75-.1.55q-.25.8-.95.95l-.5.05-.95-.45-.45-.5" transform="translate(34.55 36.1)"/><path fill-rule="evenodd" fill="#582578" d="M21.35 18.65q-.9.25-1.8 0l-3.8-3.75-.05-.55-.2.3-.65.65q-.9-2.85.4-7.05-.75-.5-.9-1.55l.5-.05q.7-.15.95-.95l.1-.55 1.4.75.15.05-.05 3.65v.05q3.8 2 3.95 9" transform="translate(34.55 36.1)"/><path fill-rule="evenodd" fill="#69477d" d="m19.55 18.65-1.5-.7-.15-.2q-.35.85-.85.5-.6-.35-1-1.75l-.3-1.6 3.8 3.75m-4.7-3.35h-.3q-.55-.1-.8-1.35-.35-1.35-.2-3.05.1-1.05.35-1.9l-.3-.3q-.5-.55-.65-1.65v-1.3l.45.5.95.45q.15 1.05.9 1.55-1.3 4.2-.4 7.05" transform="translate(34.55 36.1)"/><path stroke-width=".05" stroke-linejoin="round" stroke-linecap="round" stroke="#1f1f29" fill="none" d="m55.75 37.2.2.4.45 1.8q.65-.6 1.4-.25.7.35 1.05 1.45.35 1.15.15 2.45l-.5 1.3.45.4q.55.65.75 1.55.15.95-.2 1.6l-.4.4V52q-1.6 2.2-3.2 2.75-.9.25-1.8 0l-1.5-.7-.15-.2q-.35.85-.85.5-.6-.35-1-1.75l-.3-1.6-.05-.55-.2.3-.65.65h-.3q-.55-.1-.8-1.35-.35-1.35-.2-3.05.1-1.05.35-1.9l-.3-.3q-.5-.55-.65-1.65v-1.3"/><path stroke-width=".05" stroke-linejoin="round" stroke-linecap="round" stroke="#1f1f29" fill="none" d="m47.5 41.85-.55-1.05-.15-.45m7.35-5.75.35.1.75.5q.7.65.65 1.55l-.15.45q-.25.6-.9 1l-1.3.5q.85 1 .95 1.9 0 .95-.75 1.35l-1.75.1-.15-.05-1.4-.75-.1.55q-.25.8-.95.95l-.5.05-.95-.45-.45-.5"/><path fill-rule="evenodd" fill="#fef7e0" d="M19.65 21.05q1.6-.45 3.6.35 2.1 1.7 2.5 3.9-.1.75-1.15.95-1.7-2.45-4.5-2.9l-.35-.05 1 .55q1 1.3 1.4 2.7l.25 1.7q-.2.7-1.15.8-.7-1.65-1.8-2.6l-2.05-1.2-2.3-.35.05-.75q1.05-.95 2.15-1.2v-.3l.15-.15.4-.4q.8-.75 1.8-1.05m-5.7-1.2q1.35-1.7 3.4-1.2l1.2 1.2-1.95.1-2.65-.1m5.8 3.45q-1.25-.6-2.45-.35 1.2-.25 2.45.35" transform="translate(34.55 36.1)"/><path fill-rule="evenodd" fill="#d9ceb4" d="m24.6 26.25-2.45.3q-.4-1.4-1.4-2.7l-1-.55.35.05q2.8.45 4.5 2.9m-3.35 2.8q-3.3 0-5.9-1.1l-.6-.3.35-2.75 2.3.35 2.05 1.2q1.1.95 1.8 2.6" transform="translate(34.55 36.1)"/><path fill-rule="evenodd" fill="#eaa32d" d="m15.35 27.95-1.75-.15q-.15-3 .5-3.8L12 22.85l-.35-.2-2.5-.7q1.05-1.45 3.55-2.75.5.45 1.25.65l2.65.1 1.95-.1.6.2.35.7.15.3q-1 .3-1.8 1.05l-.25-1q-1.95-.7-3.7-.55l-1.25.2 1.3.2 3.05.85.1.05.35.65-.15.15v.3q-1.1.25-2.15 1.2l-.05.75-.35 2.75.6.3m.7-6.2-1.25-.4-.2-.05q-1.25 0-2.4 1.35l-.2.2.2-.2q1.15-1.35 2.4-1.35l.2.05 1.25.4" transform="translate(34.55 36.1)"/><path fill-rule="evenodd" fill="#cf7b16" d="m13.6 27.8-4.45-.85-.55-2.15q-.4-1.5.55-2.85l2.5.7.35.2L14.1 24q-.65.8-.5 3.8m4.25-5.7-.4.4-.35-.65-.1-.05-3.05-.85-1.3-.2 1.25-.2q1.75-.15 3.7.55l.25 1" transform="translate(34.55 36.1)"/><path stroke-width=".05" stroke-linejoin="round" stroke-linecap="round" stroke="#1f1f29" fill="none" d="M54.2 57.15q1.6-.45 3.6.35 2.1 1.7 2.5 3.9-.1.75-1.15.95l-2.45.3.25 1.7q-.2.7-1.15.8-3.3 0-5.9-1.1l-1.75-.15-4.45-.85-.55-2.15q-.4-1.5.55-2.85 1.05-1.45 3.55-2.75.5.45 1.25.65 1.35-1.7 3.4-1.2l1.2 1.2.6.2.35.7.15.3q-1 .3-1.8 1.05l-.4.4-.15.15m0 .3q1.2-.25 2.45.35m2.4 3.25q-.4-1.4-1.4-2.7l-1-.55m-5.8-3.45 2.65.1 1.95-.1m-6.55 3 .2-.2q1.15-1.35 2.4-1.35l.2.05 1.25.4m-1.3 5.9.6.3m1.95-5q-1.1.25-2.15 1.2"/><path fill-rule="evenodd" fill="#cf7b16" d="M1.6 25.95q-.65.35-1.35 1V27l-.65-.45q-.5-.6-1.1-.85l-.2-.1-1.75-1.5 4.55.4.5 1.45m-9.2-.6 2.7.95 2 1.2-1.1 1.25-1.1 1.65-.3 1.3-.8-.15.05-.05q.15-2.25-.4-3.15-.55-.9-1.15-.8l-.05.05q-.55.1-1.1 1-.15-1.7 1.25-3.25m2.15 1.25.55-.3-.55.3" transform="translate(34.55 36.1)"/><path fill-rule="evenodd" fill="#fef7e0" d="M.25 26.95q.7-.65 1.35-1 1.35-.8 2.7-.6 1.05.1 2.15.85Q8 28.4 7.85 31q-.3.8-1.35.95-.7-2.1-2.2-3.15-.85-.6-1.95-.85l-.8-.15-1.45-.05.4.5q.65.8.85 2.4l.1 1.2-.05 1.6Q1.1 34.8-1.7 35l-1.55-.15q.8-.8 1.05-2.65.25-1.95-.1-5.1 1.2-.65 2.4.65L.25 27v-.05m-6.45 4.6q-.2.75-1.6.9l-.85-.15q.45-.15.65-1 .3-1.2.25-3.7l.05-.05q.6-.1 1.15.8.55.9.4 3.15l-.05.05" transform="translate(34.55 36.1)"/><path fill-rule="evenodd" fill="#eaa32d" d="m1.6 25.95-.5-1.45-4.55-.4 1.75 1.5.2.1q.6.25 1.1.85l.65.45-.15.75q-1.2-1.3-2.4-.65l-.6.4-2-1.2-2.7-.95q1.45-1.65 4.6-3.1 1.1 1.2 3.95 1.2 2.5 0 3.3 1.75l.05.15q-1.35-.2-2.7.6m-3.3-.35q-1.35-.4-3.2.7 1.85-1.1 3.2-.7m4.55 5.65-1.4.6-.1-1.2 1.5.6" transform="translate(34.55 36.1)"/><path fill-rule="evenodd" fill="#d9ceb4" d="M6.5 31.95q-1.25.15-3.65-.7l-1.5-.6q-.2-1.6-.85-2.4l-.4-.5 1.45.05.8.15q1.1.25 1.95.85 1.5 1.05 2.2 3.15m-9.75 2.9q-1.65-.5-2.1-2.4l-.05-.75.3-1.3 1.1-1.65 1.1-1.25.6-.4q.35 3.15.1 5.1-.25 1.85-1.05 2.65m-5.4-2.55q-.8-.3-1.05-1.4-.1-.7.2-1.25l.6-.95.05-.1q.55-.9 1.1-1 .05 2.5-.25 3.7-.2.85-.65 1" transform="translate(34.55 36.1)"/><path stroke-width=".05" stroke-linejoin="round" stroke-linecap="round" stroke="#1f1f29" fill="none" d="M34.8 63.05q.7-.65 1.35-1 1.35-.8 2.7-.6l-.05-.15q-.8-1.75-3.3-1.75-2.85 0-3.95-1.2-3.15 1.45-4.6 3.1m11.9 0q1.05.1 2.15.85 1.55 2.2 1.4 4.8-.3.8-1.35.95-1.25.15-3.65-.7l-1.4.6-.05 1.6q-.3 1.35-3.1 1.55l-1.55-.15q-1.65-.5-2.1-2.4l-.05-.75-.8-.15q-.2.75-1.6.9l-.85-.15q-.8-.3-1.05-1.4-.1-.7.2-1.25l.6-.95.05-.1q-.15-1.7 1.25-3.25m7.7 2.4q-1.2-1.3-2.4-.65l-.6.4-1.1 1.25-1.1 1.65-.3 1.3m-.8-.15.05-.05q.15-2.25-.4-3.15-.55-.9-1.15-.8m7.8.2.4.5q.65.8.85 2.4l1.5.6m-1.4.6-.1-1.2m-9.1-3.05q-.55.1-1.1 1"/><path stroke-width=".05" stroke-linejoin="round" stroke-linecap="round" stroke="#1f1f29" fill="none" d="m32.85 61.7.2.1q.6.25 1.1.85m-4.5-.25q1.85-1.1 3.2-.7m-3.2.7-.55.3"/><path fill-rule="evenodd" fill="#839212" d="M17.35 2.55h.3l.5.1q1 .25 1.75 1.05t.75 1.65q0 .6-.4 1l-.4.25.95.85.3.3q.8 1 .95 1.9v.65l.25.2q.7.7.85 1.75l-.05 1.15-.45-.25L21 13l-.5.1q-.9.1-1.65.5-.05-.9-.8-1.3l-1.8-.1q-1.1.25-1.8 1-.45.5-.55 1.1l-.6-.2-1.65.1q-.8.3-1 .95v.5Q4.9 15 4 17.45q-.15.35.6 2.75l-1.2-.1h-.15q-6.95-.6-13.95-6.2.1-5.5 4.7-12.8Q-.7-4.2 5.25-4.55q5.35-.4 8 2.25l3.7 4.2q.1-.15.4.65m2.9 8.2h1.3l.5-.45-.5.45h-1.3m-21.3 15.4-2.8-1.45q-4.75-2.7-6.2-6.75Q-5.5 23.55.8 25.1l-1.85 1.05m-6.15-12.4-.1.4.1.95.3.5q.5.5 1.45.3.95-.1 1.7-.8l.4-.55q.45.45 1.25.7l2.3-.1q1.15-.4 1.65-1.3.45-.9 0-1.8l1.85-.45q1.35-.55 2-1.35.65-.85.2-1.5l-.65-.5-.3-.05-.75.5q-5.8 3.75-11.4 5.05" transform="translate(34.55 36.1)"/><path fill-rule="evenodd" fill="#ebe0c3" d="m20.8 7.45-.95-.85.4-.25.55 1.1m2.15 7.5v.1l-.05-.1h.05" transform="translate(34.55 36.1)"/><path fill-rule="evenodd" fill="#a2ba16" d="M4.6 20.2q-.75-2.4-.6-2.75.9-2.45 6.65-1.8v-.5q.2-.65 1-.95l1.65-.1.6.2q.1-.6.55-1.1.7-.75 1.8-1l1.8.1q.75.4.8 1.3.75-.4 1.65-.5l.5-.1 1.65.15.45.25q.35.3.3.75l-.25.55-.2.25h-.05l.05.1.55.85q.75 1.4.8 2.7-.05 1.25-.8 1.6-.5.25-1.15 0l.45-1q-7.25 2.1-18.2 1m17.25 1.2v.55q-.1 1.45-.75 2l-.75.25.4-.2 1.1-2.6m-3.25 3.4q-.25.9-.95 1.45-.8.5-1.65.3l-.6-.2-.7 1.7q-.8 1.25-1.85 1.8-1.05.5-1.75 0-.7-.55-.65-1.85l-1.65.95-2.05.2q-.75-.35-.7-1.2-3.5-.25-7.1-1.8L.8 25.1l2.45.45Q12 26.9 18.6 24.8M4.95 8.2l.3.05.65.5q.45.65-.2 1.5-.65.8-2 1.35l-1.85.45q.45.9 0 1.8-.5.9-1.65 1.3l-2.3.1q-.8-.25-1.25-.7l-.4.55q-.75.7-1.7.8-.95.2-1.45-.3l-.3-.5-.1-.95.1-.4q5.6-1.3 11.4-5.05l.75-.5" transform="translate(34.55 36.1)"/><path fill-rule="evenodd" fill="#ffd70f" d="M3.25 20.1h.15l1.2.1q10.95 1.1 18.2-1l-.45 1-.5 1.2-1.1 2.6-.4.2-1.75.6q-6.6 2.1-15.35.75L3 23.35q-.3-3.15.25-3.25" transform="translate(34.55 36.1)"/><path fill-rule="evenodd" fill="#deac01" d="M-10.7 13.9q7 5.6 13.95 6.2-.55.1-.25 3.25l.25 2.2L.8 25.1q-6.3-1.55-10.85-7.15l-1-1.35.35-2.7" transform="translate(34.55 36.1)"/><path stroke-width=".05" stroke-linejoin="round" stroke-linecap="round" stroke="#1f1f29" fill="none" d="M54.8 42.45q.4-.4.4-1 0-.85-.75-1.65-.75-.8-1.75-1.05l-.5-.1h-.3m-6.7 13.1v-.5q.2-.65 1-.95l1.65-.1.6.2q.1-.6.55-1.1.7-.75 1.8-1l1.8.1q.75.4.8 1.3.75-.4 1.65-.5l.5-.1 1.65.15.45.25.05-1.15q-.15-1.05-.85-1.75l-.25-.2-.5.45h-1.3m.55-3.3-.95-.85.4-.25m.55 1.1.3.3q.8 1 .95 1.9v.65m.85 4.65.05.1.55.85q.75 1.4.8 2.7-.05 1.25-.8 1.6-.5.25-1.15 0m-.5 1.2v.55q-.1 1.45-.75 2l-.75.25m-1.75.6q-.25.9-.95 1.45-.8.5-1.65.3l-.6-.2-.7 1.7q-.8 1.25-1.85 1.8-1.05.5-1.75 0-.7-.55-.65-1.85l-1.65.95-2.05.2q-.75-.35-.7-1.2m16.9-13 .2-.25.25-.55q.05-.45-.3-.75M39.5 44.3l.3.05.65.5q.45.65-.2 1.5-.65.8-2 1.35l-1.85.45q.45.9 0 1.8-.5.9-1.65 1.3l-2.3.1q-.8-.25-1.25-.7l-.4.55q-.75.7-1.7.8-.95.2-1.45-.3l-.3-.5-.1-.95.1-.4m1.2-12.65q-4.6 7.3-4.7 12.8M40.6 64.05q-3.5-.25-7.1-1.8l-2.8-1.45q-4.75-2.7-6.2-6.75"/><path fill-rule="evenodd" fill="#d1bb90" d="m22.1-16.7-2.85 6.5q-1.35-.4-2.35-1.6l5.15-5 .05.1" transform="translate(34.55 36.1)"/><path fill-rule="evenodd" fill="#fef7e0" d="M16.9-11.8q-.9-.95-1.55-2.45l6.7-2.55.1-.05-.05.15-.05-.1-5.15 5" transform="translate(34.55 36.1)"/><path stroke-width=".05" stroke-linejoin="round" stroke-linecap="round" stroke="#1f1f29" fill="none" d="m56.65 19.4-2.85 6.5m-3.9-4.05 6.7-2.55.1-.05-.05.15-6.75 2.45z"/><path fill-rule="evenodd" fill="#fef7e0" d="m-6.8-13.15 6.6 1.5Q.3-9.15-.85-8l-5.95-5.15" transform="translate(34.55 36.1)"/><path fill-rule="evenodd" fill="#d1bb90" d="M-.85-8q-1 1-3.2 1l-2.8-6.15h.05L-.85-8" transform="translate(34.55 36.1)"/><path stroke-width=".05" stroke-linejoin="round" stroke-linecap="round" stroke="#1f1f29" fill="none" d="m27.75 22.95 6.6 1.5M30.5 29.1l-2.8-6.15h.05l2.75 6.15z"/><path fill-rule="evenodd" fill="#839212" d="m-9.85 6.3-.1-.45q-.1-.9.6-1.55l.8-.5.3-.1L-.9 9.45l-.1.45-.55 1.05-.5.5-.9.45-.55-.05q-.7-.15-.95-.95l-.05-.55-1.4.75-.2.05-1.7-.1q-.8-.4-.75-1.35.05-.9.95-1.9-.75-.1-1.35-.5-.65-.4-.9-1" transform="translate(34.55 36.1)"/><path fill-rule="evenodd" fill="#381952" d="M-9.85 6.3q.25.6.9 1 .6.4 1.35.5-.9 1-.95 1.9-.05.95.75 1.35l1.7.1.05 3.65v.05q-3.8 2-3.9 9-1.65-.55-3.25-2.75v-3.7l-.35-.4q-.4-.65-.2-1.6.15-.9.75-1.55l.45-.4-.5-1.3q-.25-1.3.1-2.45.35-1.1 1.1-1.45.7-.35 1.4.25l.45-1.8.15-.4" transform="translate(34.55 36.1)"/><path fill-rule="evenodd" fill="#582578" d="m-6.1 11.15.2-.05 1.4-.75.05.55q.25.8.95.95l.55.05q-.2 1.05-.95 1.55 1.3 4.2.4 7.05l-.65-.65-.15-.3-.1.55-3.8 3.75q-.9.25-1.75 0 .1-7 3.9-9v-.05l-.05-3.65" transform="translate(34.55 36.1)"/><path fill-rule="evenodd" fill="#69477d" d="m-2.95 11.9.9-.45.5-.5-.05 1.3q-.15 1.1-.65 1.65l-.3.3.4 1.9q.1 1.7-.2 3.05-.3 1.25-.85 1.35h-.3q.9-2.85-.4-7.05.75-.5.95-1.55M-8.2 23.85l3.8-3.75-.3 1.6q-.4 1.4-.95 1.75-.55.35-.9-.5l-.1.2q-.8.5-1.55.7" transform="translate(34.55 36.1)"/><path stroke-width=".05" stroke-linejoin="round" stroke-linecap="round" stroke="#1f1f29" fill="none" d="m26.3 39.8-.3.1-.8.5q-.7.65-.6 1.55l.1.45q.25.6.9 1 .6.4 1.35.5-.9 1-.95 1.9-.05.95.75 1.35l1.7.1.2-.05 1.4-.75.05.55q.25.8.95.95l.55.05.9-.45.5-.5.55-1.05.1-.45m-9.05 14.4q.85.25 1.75 0 .75-.2 1.55-.7l.1-.2q.35.85.9.5t.95-1.75l.3-1.6.1-.55.15.3.65.65h.3q.55-.1.85-1.35.3-1.35.2-3.05l-.4-1.9.3-.3q.5-.55.65-1.65l.05-1.3m-8.3-4.65-.15.4-.45 1.8q-.7-.6-1.4-.25-.75.35-1.1 1.45-.35 1.15-.1 2.45l.5 1.3-.45.4q-.6.65-.75 1.55-.2.95.2 1.6l.35.4v3.7q1.6 2.2 3.25 2.75"/><path fill-rule="evenodd" fill="#839212" d="M-12.15-12.8q-6.05-4.5 4.35-4.7h.65q1.9-4.35 4.3-3.95-.9-2.05-1.05-3.85l-.05-.35q-.2-2.45.8-3.35.9-.85 2.5.4L.5-27.55Q.3-29.45.5-31q4.05-.1 6.05 6.4l.65 2.45H6q-3.35.15-6.3 1.8l-.35.2.1.05L-3-17.25l-1.35-.3h-.05l.65 1.45q-2.85 4.4-3.2 9.5l-1.25.15h-.5l-.6-.05-1.7-.2h-.1q-1.2-.25-2.15-.7-2.1-.95-2.15-2.35-.1-1.4 1.9-2.35l.95-.4.65-.15-.25-.15m26.2-14.15q1.2-1.1 2.25-.8 1.1.3 1.4 2.05l.05 1.3q1.15-1.25 2.45-1.85l3.25-.1q1.2.85.95 3.05-.25 1.9-1.6 3.95l.6-1.4.05-.15-.1.05-6.05 2.3-1.5-1.25.1-.7-.1-2.4q-.45-2.4-1.75-4.05m8.55 8.05q1.15.15 2.05 1Q26-16.75 26-14.75q0 2.05-1.35 3.65l-1.4 1.25-.5.3-.2-.6-1.95-4.2 2-4.55m-24.4-.55-.6-1-.45-1 .45 1 .6 1" transform="translate(34.55 36.1)"/><path fill-rule="evenodd" fill="#a2ba16" d="M-12.15-12.8q-1.8-.75-2.95-1.85-1.85-1.85-1.25-3.55.55-1.7 3.3-2.25 2.6-.55 5.95.45-.3-1.5.4-2.85.8-1.7 2.8-2.45.15 1.8 1.05 3.85-2.4-.4-4.3 3.95h-.65q-10.4.2-4.35 4.7M.5-31l.05-.6q.5-2.8 2.05-3.3 1.45-.45 3.05 1.65Q7.15-31.2 8-27.6q.9-1.1 2.2-1.25 1.85-.3 3.45 1.45l.4.45q1.3 1.65 1.75 4.05l.1 2.4-.1.7q-4.55-2.25-8.6-2.35l-.65-2.45Q4.55-31.1.5-31M-.55-20.1l-.1-.05.35-.2-.25.25" transform="translate(34.55 36.1)"/><path fill-rule="evenodd" fill="#582578" d="M21.3 4.05 19.7 5.4q-5 3.8-13.75 2.35-.4-1.85-.2-3.65.75-.2.8-.7L6 2.65 6.15 2q2.15.1 3.15-.9-.25-1.35-1.45-2.8l.85-1.25q3.2-13.9-2.7-19.2h1.2q4.05.1 8.6 2.35l1.5 1.25-.65.25q.65 1.5 1.55 2.45l.8.8q1 4.85-.45 6.45l1.05 1.75.2.4-.1.25q-1.05 2.4-1 4.55.6 1.25 1.9.75l-.3.3q-.35.5-.15.8l.75.15 1.2-.45q.3 2.55-.8 4.15m-9.15-2.5q1.45-.55 3.2-.8L17.8.4q.8 0 .7-.6-.15-.65-1.2-1l-2.55-.25q-1.6.05-2.95.85-1.4.8-1.2 1.8.1.9 1.55.35" transform="translate(34.55 36.1)"/><path fill-rule="evenodd" fill="#381952" d="M5.95 7.75Q2.35 7.1-1.9 5.6q-1.65-.5-3.3-3.4l.4.1Q-5.1.65-6.35-.9q-.1-1.7-1.7-3.35l-3.1-2.45h.15l1.7.2.65.1-.05-.05h.5l1.25-.15q.35-5.1 3.2-9.5l2.1 4.7q2.25 0 3.25-1 1.15-1.15.65-3.65L-3-17.25l2.45-2.85.25-.25Q2.65-22 6-22.15q5.9 5.3 2.7 19.2L7.85-1.7 5-4.25l-.1-.05-.15-.15q-4.3-1.1-7 .55Q-3.05-1.2.4.75l1.25.35q2.65.85 4.5.9L6 2.65l-.3-.2-2.3-.55q-1.3-.15-2.15 0-.95.25-.95.75t.95.9Q2.1 4 3.4 4.2l2.3-.1h.05q-.2 1.8.2 3.65M-4.3-4.8q-1.35-1.05-4.35-1.6 3 .55 4.35 1.6m12.2-.9-.7-.8q-.7-.6-2-.95L2.6-7.9l-1.55.1q-.25.2 1.1.4l2.65.55 2.2.9q.9.45.9.25" transform="translate(34.55 36.1)"/><path fill-rule="evenodd" fill="#d1bb90" d="m22.8-19.35-.2.45-2 4.55-.05.1q-.85-.25-1.55-.8l-.8-.8 5.15-5 .05.1-.6 1.4M-3.75-16.1l-.65-1.45h.05L1.6-12.4q-1 1-3.25 1l-2.1-4.7" transform="translate(34.55 36.1)"/><path fill-rule="evenodd" fill="#fef7e0" d="m-4.35-17.55 1.35.3 5.25 1.2q.5 2.5-.65 3.65l-5.95-5.15m22.55 1.7q-.9-.95-1.55-2.45l.65-.25 6.05-2.3.1-.05-.05.15-.05-.1-5.15 5" transform="translate(34.55 36.1)"/><path fill-rule="evenodd" fill="#9467b0" d="M22.55-10.15q-.05 1.6.05 3-1.1-.9-2.45 0l-.1.05-.25.65-.2-.4-1.05-1.75q1.45-1.6.45-6.45.7.55 1.55.8l.05-.1 1.95 4.2m.6 6.3q1.1 4.6-1.85 7.9 1.1-1.6.8-4.15h.05l1-.9.15-.65q-.2-.3-.75-.25l-.65.2.45-.35.8-1.8m-39.6-3.05 4 .1 1.3.1 3.1 2.45q1.6 1.65 1.7 3.35l-.7-.7q-2.9-2.8-9.4-5.3M6 2.65l.55.75q-.05.5-.8.7H5.7l-2.3.1Q2.1 4 1.25 3.55q-.95-.4-.95-.9t.95-.75q.85-.15 2.15 0l2.3.55.3.2M7.9-5.7q0 .2-.9-.25l-2.2-.9-2.65-.55q-1.35-.2-1.1-.4l1.55-.1 2.6.45q1.3.35 2 .95l.7.8" transform="translate(34.55 36.1)"/><path fill-rule="evenodd" fill="#fff" d="m22.6-7.15.5.55q.3 1.5.05 2.75l-.8 1.8-.45.35-.6.35-.25.15q-2-1.45-1.35-5l.1-.25.25-.65.1-.05q1.35-.9 2.45 0M7.85-1.7Q9.05-.25 9.3 1.1q-1 1-3.15.9-1.85-.05-4.5-.9Q-.65-3.2 5-4.25L7.85-1.7" transform="translate(34.55 36.1)"/><path fill-rule="evenodd" fill="#b59bca" d="m21.9-1.7.65-.2q.55-.05.75.25l-.15.65-1 .9h-.05l-1.2.45-.75-.15q-.2-.3.15-.8l.3-.3.45-.3.25-.15.6-.35" transform="translate(34.55 36.1)"/><path fill-rule="evenodd" fill="#f0e0c2" d="m21.05-1.2-.45.3q-1.3.5-1.9-.75-.05-2.15 1-4.55-.65 3.55 1.35 5M4.9-4.3l.1.05Q-.65-3.2 1.65 1.1L.4.75Q-3.05-1.2-2.25-3.9q2.7-1.65 7-.55l.15.15" transform="translate(34.55 36.1)"/><path fill-rule="evenodd" fill="#270f33" d="M12.15 1.55q-1.45.55-1.55-.35-.2-1 1.2-1.8 1.35-.8 2.95-.85l2.55.25q1.05.35 1.2 1 .1.6-.7.6l-2.45.35q-1.75.25-3.2.8" transform="translate(34.55 36.1)"/><path fill-rule="evenodd" fill="#411a53" d="M-5.2 2.2Q-16.3-.25-16.45-6.9q6.5 2.5 9.4 5.3l.7.7Q-5.1.65-4.8 2.3l-.4-.1" transform="translate(34.55 36.1)"/><path stroke-width=".05" stroke-linejoin="round" stroke-linecap="round" stroke="#1f1f29" fill="none" d="M30.65 10.8q-2 .75-2.8 2.45-.7 1.35-.4 2.85-3.35-1-5.95-.45-2.75.55-3.3 2.25-.6 1.7 1.25 3.55 1.15 1.1 2.95 1.85l.25.15-.65.15.4-.3m9.3-8.65q-.9-2.05-1.05-3.85l-.05-.35q-.2-2.45.8-3.35.9-.85 2.5.4l1.15 1.05q-.2-1.9 0-3.45l.05-.6q.5-2.8 2.05-3.3Q38.6.75 40.2 2.85q1.5 2.05 2.35 5.65.9-1.1 2.2-1.25 1.85-.3 3.45 1.45l.4.45q1.2-1.1 2.25-.8 1.1.3 1.4 2.05l.05 1.3q1.15-1.25 2.45-1.85l3.25-.1q1.2.85.95 3.05-.25 1.9-1.6 3.95l-.2.45q1.15.15 2.05 1 1.35 1.15 1.35 3.15 0 2.05-1.35 3.65l-1.4 1.25-.5.3m-.2-.6q-.05 1.6.05 3l.5.55q.3 1.5.05 2.75 1.1 4.6-1.85 7.9l-1.6 1.35q-5 3.8-13.75 2.35M29.35 38.3q-11.1-2.45-11.25-9.1l4 .1 1.3.1h.05q-1.2-.25-2.15-.7-2.1-.95-2.15-2.35-.1-1.4 1.9-2.35l.95-.4m28.35-7.3.1-.7-.1-2.4q-.45-2.4-1.75-4.05M42.4 34.4q1.2 1.45 1.45 2.8-1 1-3.15.9-1.85-.05-4.5-.9m-4.5-22.55.45 1 .6 1m-2.55 1.9 1.35.3M30.8 20l-.65-1.45h.05m6.6 1.5-5.25-1.2m1.35 5.85L30.8 20m-3.2 9.5-1.25.15h-.5m.05.05q3 .55 4.35 1.6m24.85-9.45.05-.1 2-4.55m.75-1.95-6.05 2.3-.65.25m6.7-2.55.1-.05-.05.15-.6 1.4m.35 15.5-.8 1.8-.45.35M54.6 29l.1-.05q1.35-.9 2.45 0m-2 6.25q-1.3.5-1.9-.75-.05-2.15 1-4.55m-14.8 1.9-.15-.15q-4.3-1.1-7 .55-.8 2.7 2.65 4.65l1.25.35m3.35-5.35 2.85 2.55m-17.15-4.8.6.05m.05.05-.65-.1-1.7-.2h-.1m5.9 8.9.4.1"/></g><path fill-rule="evenodd" fill-opacity="0" fill="#f0f" d="M0 0h102.95v45H0V0" id="b"/></defs><path fill="none" d="M-1-1h165v173H-1z"/><use x="87.733" y="167.402" xlink:href="#c" width="381" transform="translate(-192.55 -294)" height="381"/><use x="37.647" y="71.834" xlink:href="#d" width="69.15" transform="translate(-86.515 -166.877) scale(2.3304)" height="72.2"/><use x="-57.723" y="-76.247" xlink:href="#e" width="102.95" transform="matrix(1.8072 0 0 1.6538 96 161.55)" height="45"/></svg>