<svg width="193" height="114" xmlns="http://www.w3.org/2000/svg" xmlns:xlink="http://www.w3.org/1999/xlink"><defs><radialGradient spreadMethod="pad" r="819.2" id="b" gradientUnits="userSpaceOnUse" gradientTransform="matrix(.006 -.001 0 .0034 237.15 -50.05)" cy="0" cx="0"><stop stop-color="#fff" offset="0"/><stop stop-opacity="0" stop-color="#fff" offset="1"/></radialGradient><radialGradient spreadMethod="pad" r="819.2" id="c" gradientUnits="userSpaceOnUse" gradientTransform="matrix(.0052 .003 -.0017 .003 211.7 -50.3)" cy="0" cx="0"><stop stop-color="#fff" offset="0"/><stop stop-opacity="0" stop-color="#fff" offset="1"/></radialGradient><g id="d" stroke-opacity="0" stroke-linejoin="round" stroke-linecap="round" stroke="#f0f" fill="none"><path d="M187.95-293.5v380h-380v-380h380" transform="translate(192.55 294)"/><path d="m187.95-293.5-190 190 190 190m-380-380 190 190L-192 86.5M92.95-38.4H-97" transform="translate(192.55 294)"/></g><g id="f"><path fill-rule="evenodd" fill="#aa8080" d="m243.2-70.85.35-.1 10.6-3.3-9.4 3.7q-1.35 1.05-2.35 2.45l-.3.3-1.6 1.35-.3.2q-2.35 1.8-4.7 2.8v1.75l-.15.25q-.9-.2-3.3-1.3l-3.65-1.45h-.05l14.85-6.65m-5.1 22 .45 1.65.2.05.6.15h.05l1.1 2.2.1.2.05.1h-.05l.1.9-.05.05.95 3.65-3.05-2.75-2.95-2.8-.25-.25h-.05l-1.05-1.15q2.05.2 3.85-2m-41.45-7.65.05-.2v.2h-.05m-37.9 120.7-.05.05-.1-.05.05-.1.1.1" transform="translate(.75 75)"/><path fill-rule="evenodd" fill="#d5bdb5" d="m243.2-70.85-14.85 6.65-1.05-.2h-1.5q-1.3.15-2.45-.6l-1.55-1.2q-1-1-2.35-.85l-1.05-.25-1.4-.95h1.2l11.2 2.05 2.95-2.65h4.5l6.35-2M203.35-19.2l-1.7 1.8.15.2-.05.05.15.1.05.05-.05.05-.3-.05-3.05 2.4-.4.45q.7.95 2.15.85l.4.7v.1h.1l.3.35v.05l.05.25.35.1-.4.2-.85.4-.6.2v.15l-1.7.85-.15.05v.05l-5.85 3.45-1.85 1.55-.55.25-.75.45-2.1 1.1-.5.25-.15-.1-1.65.45h-.1l-.1.05-3 1.4-.2-.1-.15.3-3.55 6.6-2.4 2.25.5-5.35-.45.45.05-.4.05-.1-.05.05-.15-.6-.1-.05-.15.3v.9l-.5-.05-.15.25-.1.45q-.35 1.5-1.25 2.75l-.3.55-.55 1.7-.1.25v1.8l-.15.45-1.45 2.9-.5 1-.3.5-1.1 2.05-.15.65-.3.9-.25 3.8-.4 3.85.3 2.05.5 3.65.65 6.65.2 3.15q.25 3.6.65 7.2v.1l.75 2.2 1.45 3.9.1.25.15.35q0 .15.3.15h.05l.35 1.25h.1v.4l-.15.25-.2.15-.15.25q-.4-.1-.85-.4l-1.05-.65-.4.6-1.1-.35-.8.15-1.45.4q-.2.05-.4.25l-.45-.45-.05.3-.35-.05-.25 1.2-.75 2.45v.35l.4 1.6.2.65.2-2.3.6 3.1.45.85q.9 1.3 2.45 1.8l.7.2.6.15q1.4.15 2-.75l.45-.95.2-.85v-.4l-.2-1.05q-.05-.2.05-.45l-.05-.2.05-.05q.25 0 .2-.4l.3-.25.6-.3.75.05.8.25.9.5q1.45 1 1.65 2.7l.25 1.55q.35 1.6 1 3.15l.35.85-.45.25-5.85-1.75q-.85 2.35-2.35 3.55h-3.65l-8.2-9.95.1-.1.05-.05 7-9.05q-1.3-7.85-2.15-15.85l-.7-7.3q-.7-8.5-.95-17.15l8.3-18.5q6.2-3 11.6-6.5 5.35-3.45 9.95-7.35l-.8-1h-.3l-.7-.35-3.3.2 1.5-1.4 2.8-2.7.3-.3.3-.4.2-.2-.05-.05.1-.1 3.75-4.8q2.1 1.75 4.25 4.45l1.05 1.4.6.75 1.1 1.7.55.8.2.3m30.6 77.6-.45.5-10.6-5.6-6.15-14.25-.6-1.1L202.7 19.8l-1-.95-.85-.85-5.95-5-7.65-4.8-.55-.3-6.3 1.5-2.35.55h-3.4l.15-1.15 1.85-.25 1.2-.45.95-.45.2-.1 1.8-.75q1.35 0 2.55-.85 1.35-1 3-1.35 1.6-.35 2.6-1.3l.35-.2.05-.05.15-.05 1-.5.5-.8.8.4q1.6.7 3.1 1.75l2.15 1.4 3.35 2.1q1.3.9 2.45 2.1l2.55 2.6 4.4 4.75 2.65 3.6.9 1.65 1 2 3.4 7.05 1.4 2.3 1.15 1.65 1.45 2.85 1.35 3.3.75 2.35h-.65l.65.8.65.8.35.5q.7 1-.2 1.45h-.4l.6.05.55-.15-.2.2.5.3.15-1.6h.05l.2 2.6.65 1.55.25 1.4v1.25l.05.45 1.15 1.3.65.55.5.35.1.05.7.35 1.6.45 2.1.15h.4l.05 1.1-.35.95M120.4-14.65v1.05q-.1 4.95-.7 10l-1.15 3.55q-2.2.4-3 1.35-.8.95-3.4 2.2l-4.6 2.6q-2 1.3-3.25 4.6l-.8 2.55h-1.85L96.6 8.7l5.55-6.9.35-1.2.65-2.75.75-4.75.2-2.35.45-.75q6-13.8 4.7-29.1l-.6-4.8v-.05l-.15-.85-.15-.9.55-.85q.45-.6.35-1.35l-.05-.45-.05-.25-.15-.45-.5-1.55-.45-.4-1.2-.85-3.55-2.45-7.8-1.55-8.65 3.65-1.4 3.35-23.6 9L24.3-36.1q-5.1-1.8-9.45-4.25l7.45-.9-3.35-.7q-9.7-2.3-14.45-6.7l1.5.3 3.9.65 4.25.8 5.2.75 4.8.45 3.75.15q1.65.05 2.95 1.05l-.45.3-.4.55-1.1.7-.25-.1q.1.45.45.6l1.1.3 4.6-.15 1.25-.2 1.9-.25 1.2-.25 2.15-.6 4.95-1.65 3.25-1.05q7.2-.55 13.6-2.25l17-4.6 18-10.6h-3L97-65.2l2.3-.05.6-.05 1.9.1q.55-1.4 2.8-1.95l4.9.15.15-.1.5-.35 1.2-.15 1.05.05.85.15.8.1h-.2l.45.1 1.85.4.25.15.4.2 6.05.75q9.3.8 18.35 3.9l4.95 2.15 2 1.15.6.05q1.6.25 2.65.9 1.55-1.35 4.05-1.25l3.35-.1 7.5.75q.75-.65 1.95-.75l4.8 1.6.85.35.4 1.65.25-1.4.6.2.1.05.05.05.2.3.5.15v.05l.7.2.7.85.05.05 1.25-.25 1.9-.35.3-.05 1.4-.5 1.15-.25.35.15.5-.15.25.1 1.9 1.2h.7l.6.35.35.35.05.05.6.45.7.1h.1l.6.25 1.1-2.55V-57l-2.15-.9v-.05h-.1l-1.25-.5-.15-.2-.25-.2-2.2-2.55.3-.5 7.7 4.3v.25l-.1 2.9-.45 2.7-.4 1.6-.6 1.8-2.55 5.35-.05.15-1.7 2.55-.4.55-.85 2.65-3.3-1.7h-3.6l1.15-3.75 8.75-8.7-8.45.7.3.55-2.8.2-23.65-2.95-12.95 4.65-.2-.1-2.65-1.15q-8.35-3.45-17.25-3.45l-8.6.75-1.9.4-1.9.4-.2.05-.2.05.45.35.2.2 3.5 5.55.05.1 4.4 6.95.55 2.25q2.15 8.35 2.55 17.2l.1 3.9m-15.45 33.7.85 4.65q-1.1 1.5-2.75 2.55l-2.9 1.75q-1 .55-1.55 1.4-.6.9-.85 2.05l-.2 1.6v.1q-.05 1.35.2 2.65l.15.5.95 1.5 1.3 1.3q1.65 1.2 2.55 2.85l1.15 1.4-.35.3.85.75q-.25.55-.05.9l.2.55q.25 1.05 1.2 1.35l-1 1.65.2.1L110 52l.95 1.05q1.4 1.6 2.45 3.8v-.05l1-2.95 1.55 2.05.85 1.65-2.35 1.85h-1.9l-.6.2-2.45-2.2-3.1-1.85-2.5-1.4-.45-.3v3H99.6l-.95-5.25 1.45.4 1.65.35.75.05-.35-.8-.6-1.55h-.2q-.9-2.3-3.2-2.8l-.3-.05-3.7-20.55 2.85-7.6q3.95-3.05 7.95 0M96.7 54.4l-2.9-2.45v-2.9l-.2-2.85q-.45-5.25-1.5-10.55l-.5-2.35v-.05l-1.3-4.9-2.55-7.9-.7-1.85-1.15-2.95-1.85-2.2.05-3.95-1.15-2.1L80.7 10q-.7.6-1.05 1.45l-.7 2-.45 1.35-.15.55q-.3 1.1.25 2.3l.95 1.55.35.5 1.45 2.35.4-.65.8 1.3.25.6.2-.45.2-.4.05 1.05v.35l-.25.7-.2.4-.1-.3q-.3.45-.45 1.15-.25 1.25-.2 1.65l.2.6-.1.05-.45-.3-.35.05-.45.05q.25.75.75 1.15l.3.4q.45.75.55 1.55l-.1.45-1.3 1.85-1.5 1.4-.6.35-4.45-.95-2.05-9.25 1.6-8.75-1.6-8.05 2.5-10 1.95-2.8L80.4-8.2 85-17l-1.5-12.05.05.05.05.15.1.2.3.55 5.35 18.9.25 1.65.25 1.45 1.1 7.65.1 1.05L90.4.85l-.35-.9-1.4-4L86 5.75 97.8 47.2l-1.1.25-1.15.7h-.45l-.3.8q.75 1.05 1.85 1.75l.7.4-.65 3.3m82.95-119.7-9-6.4h13.85l1.25 1.05 1.7 1.35 2.4 1.85.35.2.55.2 1.5.1-.1-.05h-.05l.6.1 2.25.3.4 1.05q.4.95 2.5 2.5l3.6 2.85v.3q-4.2.4-7.95-1.35-3.2-3.15-8.35-4.05h-5.5m56.4 5.3q-.3.45-2 .45-1.75-.05-3.9 2.65l-2.3 2.8v-.05q-4.9-3.65 6.95-6.05l.55-.1.85-.1.05.2-.2.2m-6.1 23.55 1 .8 1.2 1.15h-2.2l-.2-.25-.55-.7-1.85-1.7q-1.8-1.3-4-1.9h-.1l-.6-.2-.15-.05-3.45-3.25.4-.25 1.05.15.35-1.35-.25-.25h-.05l-.1-1.1-1.2-1.1-.4-.65-1.4-2.2-.05-.1-.05-.1-.3-.2q-.95-.4-3.2-2.35l-.05-.05-3.8-2.75-5.7-1.2-.5-.15-4.5-.8-.55.1-.85.55h-.5l-.7-.15v-.2l-.05.2-1.35-.2-.7-.1 6.9-3-.05-.1.35-.05.85.65-.05.35q0 .85.3 1.4l.3.5h.5v-.55l.3.15 8.75.8 10.1 4.35-.35 6.5-.15-.15.05.1v.05l.05.25.05-.25 3.25 4.75.25.25 2.2 2.6.4.45q.7.75 1.5 1.05l-.15.25m3.1 82.45h.05l1.05.15.35.05.35-.05h.2l.9.3.05-.2.1-.05.15.1v.05q2.1 1.5 2.85 4.2l.4 1.25.05.1.05.25-.15.35.05.1v.15l-.15.25-.25.2H238.7l-.15-.05-.2-.15-.05-.2v-.2l-.1-.25-.8-1.95-.7-1.2-.2-.15-.6-.75-.1-.05-.05-.1-.05-.05-.2-.15-.1-.05-2.35-.9-.25-.3-.1-.4.05-.1.1-.1.2-.1M192.3-18.5v.55l.2-.15-.2-.4m8.2.8.15.1-.1-.15-.05.05M80.9 27.9l-.2-1.1.05.65.15.45" transform="translate(.75 75)"/><path fill-rule="evenodd" fill="#fdf9f4" d="M228.35-64.2h.05l3.65 1.45q2.4 1.1 3.3 1.3l.1.05 2.55.6 1.2.45 3.65 3.95q1.25 3.4 0 6.45L244-43.8h-1.35l3.5 5.3h-2.95l.05.05.15.8q1.7 2.65 1.25 5.3l-1.7 7h-1.15l-1.9 1.6-.45-1.45-.25-.35-2.6.05.1-.6-.25-.2-.55-.45-.5-.65q1.85.45 2.55-.3 1.6-5.45 3.35-2.5l1.3-1.6.05-.4.05-.05.15-1.2q.05-1.2-3.7-1.1h-.7l-5.5.05h-.8l-1.2-1.15-1-.8.3-.2-.15-.05q-.8-.3-1.5-1.05l-.4-.45-2.2-2.6-.25-.25-3.25-4.75-.05.25-.05-.25v-.05l-.05-.1.15.15.35-6.5-10.1-4.35-8.75-.8-.3-.15v.55h-.5l-.3-.5q-.3-.55-.3-1.4l.05-.35-.85-.65-.35-.25-3.6-2.85q-2.1-1.55-2.5-2.5l-.4-1.05-2.25-.3-.6-.1-1.9-.25.8.1 1.15.15.1.05-1.5-.1-.55-.2-.35-.2-2.4-1.85-1.7-1.35-1.25-1.05h2.5l12 2.8 2.9 1 .6.4 3.25-.75H217l1.4.95 1.05.25q1.35-.15 2.35.85l1.55 1.2q1.15.75 2.45.6h1.5l1.05.2m7.15 2.5v-1.75q2.35-1 4.7-2.8L238-60.8l-2.5-.9m-9.55 55.3.7 1.45-3.35 2.6-3.75.95-1.05-1.9-2.8.4-.35.15-.05-.1h.05l.15-.25 1.45-2.2.15.2.1.05 1.9 1.7.3-.45.2-.35.1-.15 1.65-2.55 1.5 1.1h.05l2.55.6.5-1.25m-24-10.6.45.6 1.7 2.6.75 1.2 1.9 3.3-.4 4.7.8 1.9-.5.7 3.05 6.85 2.45 5.55 1.35 2.15-.4.15.45-.15 1.4 2.2 9.25 22.15v2.4l12.65 3.6h3.45l4 5.35v3.55l-2.7 1.5-1.3 1.35-.8-1.9v-.15l-.05-.1.15-.35-.05-.25-.05-.1-.4-1.25q-.75-2.7-2.85-4.2v-.05l-.15-.1-.1.05-.05.2-.9-.3h-.2l-.35.05-.35-.05-1.05-.15h-.05l.8-.8-1.25-.15-1.05-.25.1.3.55.5q-.1.5-.05 1.05l3.15 2.3 1.35 5.75-.1 1-2.6 2.7.35-.95-.05-1.1h-.4l-2.1-.15-1.6-.45-.7-.35-.1-.05-.5-.35-.65-.55-1.15-1.3-.05-.45v-1.25l-.25-1.4-.65-1.55-.2-2.6v-.05h-.05v.05l-.15 1.6-.5-.3.2-.2-.55.15-.6-.05h.4q.9-.45.2-1.45l-.35-.5-.65-.8-.65-.8h.65l-.75-2.35-1.35-3.3-1.45-2.85-1.15-1.65-1.4-2.3-3.4-7.05-1-2-.9-1.65-2.65-3.6-4.4-4.75-2.55-2.6q-1.15-1.2-2.45-2.1l-3.35-2.1-2.15-1.4q-1.5-1.05-3.1-1.75l-.8-.4-.5.8-1 .5-.15.05-.05.05-.35.2q-1 .95-2.6 1.3-1.65.35-3 1.35-1.2.85-2.55.85l-1.8.75-.2.1-.95.45-1.2.45-1.85.25-.15 1.15-.6 5.4v19.8l2.65 12.8 3.55 6.1-1.45 2.2 1.5 3.15 1.1 1.65V71l-2.3 1.25-.35-.85q-.65-1.55-1-3.15l-.25-1.55q-.2-1.7-1.65-2.7l-.9-.5-.8-.25-.75-.05-.6.3-.3.25q.05.4-.2.4l-.05.05.05.2q-.1.25-.05.45l.2 1.05v.4l-.2.85-.45.95q-.6.9-2 .75l-.6-.15-.7-.2q-1.55-.5-2.45-1.8l-.45-.85-.6-3.1-.2 2.3-.2-.65-.4-1.6v-.35l.75-2.45.25-1.2.2.8.15-.7v-.05l.05-.3.45.45q.2-.2.4-.25l1.45-.4.8-.15 1.1.35.4-.6 1.05.65q.45.3.85.4l.15-.25.2-.15.15-.25v-.4l-.1-1.05v1.05l-.35-1.25h-.05q-.3 0-.3-.15l-.15-.35-.1-.25-1.45-3.9-.75-2.2v-.1q-.4-3.6-.65-7.2l-.2-3.15-.65-6.65-.5-3.65-.3-2.05.4-3.85.25-3.8.3-.9.15-.65 1.1-2.05.3-.5.5-1 1.45-2.9.15-.45v-1.8l.1-.25.55-1.7.3-.55q.9-1.25 1.25-2.75l.1-.45.15-.25.5.05v-.9l.15-.3.1.05.15.6.05-.05-.05.1-.05.4.45-.45-.5 5.35 2.4-2.25 3.55-6.6.35-.2 3-1.4.1-.05h.1l1.65-.45.15.1.5-.25 2.1-1.1.75-.45.55-.25 1.85-1.55 5.85-3.45.05-.05h-.05l.15-.05 1.7-.85.25-.15.35-.15.05-.05h-.05l.85-.4.4-.2.05-.05-.45-.35-.3-.35-.1-.1-.4-.7q-1.45.1-2.15-.85l.4-.45 3.05-2.4.3.05.05-.05M134.4-9.4l-3.85-1.75 1.25.05.7.35.7.5q.4.3.9.4l.45.15-.15.3M118.55-.05l-3.5 10.9-5.95 2.4h-5.6l.8-2.55q1.25-3.3 3.25-4.6l4.6-2.6q2.6-1.25 3.4-2.2.8-.95 3-1.35M105.8 23.7l1.1 5.8 5.2 9.35 7.45 8.8v5.2l-2.25 4.3-.5.4-.85-1.65-1.55-2.05-1 2.95v.05q-1.05-2.2-2.45-3.8L110 52l-5.1-3.05-.2-.1 1-1.65q-.95-.3-1.2-1.35l-.2-.55q-.2-.35.05-.9l-.85-.75.35-.3-1.15-1.4q-.9-1.65-2.55-2.85l-1.3-1.3-.95-1.5-.15-.5q-.25-1.3-.2-2.65v-.1l.2-1.6q.25-1.15.85-2.05.55-.85 1.55-1.4l2.9-1.75q1.65-1.05 2.75-2.55m-14.2 9.6-2.15 2-2.8 1.45-7.65-1.7.6-.35 1.5-1.4 1.3-1.85.1-.45q-.1-.8-.55-1.55l-.3-.4q-.5-.4-.75-1.15l.45-.05.35-.05.45.3.1-.05-.2-.6q-.05-.4.2-1.65.15-.7.45-1.15l.1.3.2-.4.25-.7v-.35l-.05-1.05-.2.4-.2.45-.25-.6-.8-1.3-.4.65-1.45-2.35-.35-.5-.95-1.55q-.55-1.2-.25-2.3l.15-.55.45-1.35.7-2Q80 10.6 80.7 10l2.25-2.6 1.15 2.1-.05 3.95 1.85 2.2-.45 5.7 1.25 6.2 3.6.8 1.3 4.9v.05M4.5-48.65l-1.95-2.1Q.55-53.4 0-56.6q3.8 2.05 7.65 3.45 7.3 2.65 14.65 2.8l-4.6-3.1 15.55 5.1q4.85 2.3 8.7 2.35l7.55-.3-3.25 1.05-4.95 1.65-2.15.6-1.2.25-1.9.25-1.25.2-4.6.15-1.1-.3q-.35-.15-.45-.6l.25.1 1.1-.7.4-.55.45-.3q-1.3-1-2.95-1.05l-3.75-.15-4.8-.45-5.2-.75-4.25-.8-3.9-.65-1.5-.3M97-65.2q2.8-1.95 6-2.95l4.2-.8 2.5-1.4 5.5-.5 14.3 3.4q8.2 1.8 16.4 4.9l4.3 1.7 3.9 1.7-6.45-4.6 9.3-.5 17.8 1 10.4 1.85 2.2 2.55.25.2.15.2 1.25.5h.1v.05l2.15.9v1.1l-1.1 2.55-.6-.25h-.1l-.7-.1-.6-.45-.05-.05-.35-.35-.6-.35h-.7l-1.9-1.2-.25-.1-.5.15-.35-.15-1.15.25-1.4.5-.3.05-1.9.35-1.25.25-.05-.05-.7-.85-.7-.2v-.05l-.5-.15-.2-.3-.05-.05-.1-.05-.6-.2-.65-.25-.85-.35-4.8-1.6q-1.2.1-1.95.75l-7.5-.75-3.35.1q-2.5-.1-4.05 1.25-1.05-.65-2.65-.9l-.6-.05-2-1.15-4.95-2.15q-9.05-3.1-18.35-3.9l-6.05-.75-.4-.2-.25-.15-1.85-.4-.45-.1h.2l-.8-.1-.85-.15-1.05-.05-1.2.15-.5.35-.15.1-4.9-.15q-2.25.55-2.8 1.95l-1.9-.1-.6.05-2.3.05M236.05-60l.2-.2-.05-.2-.85.1-.55.1q-11.85 2.4-6.95 6.05v.05l2.3-2.8q2.15-2.7 3.9-2.65 1.7 0 2-.45m2.05 11.15 1.65-2.55-.15-1.4-1.2.4-2 1.05q-1.35 1.55-2.15 1.95v2.55l1.05 1.15-1.15.5 1.55.55q.45-.2-.1-.8l2.95 2.8 3.05 2.75-.95-3.65.05-.05-.1-.9h.05l-.05-.1-.1-.2-1.1-2.2h-.05l-.15-.35-.45.2-.2-.05-.45-1.65m-9.95-3.35.1-.15-.15.05.05.1m6.9 24.4v-.05.05m.7 75.95-.35-.25.1.05.2.15.05.05M91.05 2.6l.05.1v.25l-1.05-3 .35.9.65 1.75m6.75 44.6h.05l.3.05q2.3.5 3.2 2.8h.2l.6 1.55.35.8-.75-.05-1.65-.35-1.45-.4-.2-.05-1.1-.45-.7-.4q-1.1-.7-1.85-1.75l.3-.8h.45l1.15-.7 1.1-.25M143.05-4h-.15v-.1l.15.1m-3.55-2.05.05-.25v.4l-.2-.2.15.05m83.4-52.7h.3v-.05l-.3.05m-18.3 5.05v-.1l1.05.1h-1.05m.1 31.2h1.3v2.4l-1.3-1.1v-1.3m6.7 12.8v.05-.05m1.05 3.8.35.4v.95q.3.05 0 .1v.55l.25.35-.25-.15v-.2l-.25-.55q-.2-.65-.1-1.45m.9-2.7.4-1 .4 1.8.55 2.35-.5-1.4-.15-.3-.7-1.45m-12.85-9.1.05-.05.1.15-.15-.1m14.85 14.95.25 1.05-.8-.6.55-.45m-7-.35.25.6H208.45l-.1-.2v-.4m1.95 4.3.35.5-.15-.1-.2-.4m1.2 2.1.1.2h-.1v-.2m2.45 4.05-.45.15.4-.15h.05M158.9 62l-.1.55v.1l.1-.65m-.6-2.8V59l.05.2h-.05m.5 3.45-.15 1.1v.35l-.05.1q-.3-.3-.25-.5l.45-1.05m-.2 1.7-.05 1.1v.2h-.05l-.1-.15-.3-.05v-.2l.1.05.35-.7q-.05-.1.05-.25m-71.9-36.8L84 27l-.95-.35 1.85 1.55.1-.9 1.8.65-.1-.4m-5.8.35-.15-.45-.05-.65.2 1.1" transform="translate(.75 75)"/><path fill-rule="evenodd" fill="#e1bfae" d="m235.35-61.45.15-.25 2.5.9-2.55-.6-.1-.05m-7.2 9.25-.05-.1.15-.05-.1.15m9.25 102.6-2.1-1.45-3.15-2.3q-.05-.55.05-1.05l-.55-.5-.1-.3 1.05.25 1.25.15-.8.8-.2.1-.1.1-.05.1.1.4.25.3 2.35.9.35.25.05.1.1.05.6.75.2.15.7 1.2M181.2-1l-.35.2.15-.3.2.1m-8.7 58.95V56.9l.1 1.05h-.1m53.4-12.05h-.05v-.05h.05v.05" transform="translate(.75 75)"/><path fill-rule="evenodd" fill="#d8c7b8" d="M234.25-46.85v-2.55q.8-.4 2.15-1.95l2-1.05 1.2-.4.15 1.4-1.65 2.55q-1.8 2.2-3.85 2" transform="translate(.75 75)"/><path fill-rule="evenodd" fill="#d5a391" d="m230.1-36.7.15.05-.3.2.15-.25m-28.3-23.25-.35.05v-.3l.35.25M192.1-67h.05l-1.15-.15-.8-.1 1.9.25" transform="translate(.75 75)"/><path fill-rule="evenodd" fill="#885e5e" d="M237.25-23.45h-1.2l-1.35-1-1.65 1.9-6.2-1.25-1.45.05h-.85l-3.65-1.55-.45-.15-1.55-.4v-.05l-1.1-1.35-1.3-.95-.1-.05-2.35-2.6-1.95-1.7q-4.55-3.55-9.75-4l-2.5-.8v5.2l4.85 9.65v1.3l1.3 1.1 3.45 5.95v.95l.8 2.8 1.15.7v.05l-.15.35.15.05v.05l-.3.05.05-.05h-.05l-.15.05v.05l.55 2.05.95 1.15q-.1.8.1 1.45l.25.55v.2l.25.15q.85.6 1.75 1.25l.8.6-.25-1.05.35-.15 2.8-.4 1.05 1.9-4.25 1.05-4.15-2.6h-1.5v-2.7l-.45.7-.5.8-.8-4.15-1.65-3v-2.85l-2.4-4.2-.5-.85-.2-.3-.55-.8-1.1-1.7-.6-.75-1.05-1.4q-2.15-2.7-4.25-4.45l-3.75 4.8-.1.1.05.05-.2.2-.3.4-.3.3-2.8 2.7-1.5 1.4 3.3-.2.7.35h.3l.8 1q-4.6 3.9-9.95 7.35-5.4 3.5-11.6 6.5l-8.3 18.5q.25 8.65.95 17.15l.7 7.3q.85 8 2.15 15.85l-7 9.05-.1-.1v-.35l.15-1.1v-.1l.1-.55-.1.65-.45 1.05q-.05.2.25.5v.15q-.1.15-.05.25l-.35.7-.1-.05v.2l.3.05.1.15h.05l-.1 4.75-4.8-1.9v-5.25l3.55-4.45L159 56l-3.15-17.3v-4.6l-5.65-17-2.1-14.65Q140.95.15 134.4-9.4l.15-.3-.45-.15q-.5-.1-.9-.4l-.7-.5-.7-.35-1.25-.05-1.35-.6-7.15-2.1-1.65-.8-.1-3.9q-.4-8.85-2.55-17.2L117.2-38l-4.4-6.95-.05-.1-3.5-5.55-.2-.2-.45-.35.2-.05.2-.05 1.9-.4 1.9-.4 8.6-.75q8.9 0 17.25 3.45l2.65 1.15.2.15v-.05l12.95-4.65 23.65 2.95 2.8-.2-.3-.55 8.45-.7-8.75 8.7-1.15 3.75h3.6l3.3 1.7.85-2.65.4-.55 1.7-2.55.05-.15 2.55-5.35.6-1.8.4-1.6.45-2.7.1-2.9v-.25l-7.7-4.3.15-.55q.15-1.65-3.75-1.45l-2.2-1.4h5.5q5.15.9 8.35 4.05 3.75 1.75 7.95 1.35l.05.1-6.9 3 .7.1 1.35.2h.05l.7.15h.5l.85-.55.55-.1 4.5.8.5.15 5.7 1.2 3.8 2.75v.05l-6.75-1.65h-1.4l-1.05-.1v.1l-.5.55 1.6 2.15q4.65 4.75 7.85 5 3.15.25 5.4-.95l-.1-.15.4.65 1.2 1.1.1 1.1h.05l.25.25-.35 1.35-1.05-.15-.4.25 3.45 3.25.15.05.6.2h.1q2.2.6 4 1.9l1.85 1.7.55.7.1.25q-2.7.7-1.95 2.15 1.35 2.25 2.4 2.75l1.25-1.4 1-.25q1.15-.05 1.8 1l.7 2.4v.05l.05.35.3.05.5.65.55.45.25.2-.1.6 2.6-.05.25.35.45 1.45-.35.3h-2.3M233.5 58.9h-8.7l-4.6-4.1-7.6-1.95h-2.4L208.55 49v-5.55l-6.4-11.15L190.7 21l-4.15-3h-3.3l-2.85-8.6 6.3-1.5.55.3 7.65 4.8 5.95 5 .85.85 1 .95 13.45 18.15.6 1.1 6.15 14.25 10.6 5.6M105.4 13.25l-.45 5.8q-4-3.05-7.95 0l-2.85 7.6 3.7 20.55h-.05L86 5.75l2.65-9.8 1.4 4 1.05 3V2.7l-.05-.1-.1-1.05-1.1-7.65-.25-1.45-.25-1.65L84-28.1l-.3-.55-.15-.35-.05-.05 1.7-11.9q-9.4 3.05-18.5 9.55-4.7 2.3-10.5 2.7-2.4.15-5-.05l-5.4-.3q-3.6-.4-6.95-1.35l3.85-1.45-9.9-1.75q-4.5-1.05-8.5-2.5l37.55-3.75 23.6-9 1.4-3.35 8.65-3.65 7.8 1.55 3.55 2.45 1.2.85.45.4.5 1.55.15.45.05.25.05.45q.1.75-.35 1.35l-.55.85.15.9.15.85v.05l.6 4.8q1.3 15.3-4.7 29.1l-.45.75-.2 2.35-.75 4.75L102.5.6l-.35 1.2-5.55 6.9 5.05 4.55h3.75m34.1-19.3-.15-.05.2.2v-.4l-.05.25M143.05-4l-.15-.1v.1h.15m54.7-48.2.15-.05h-.15v.05M158.3 59.2h.05l-.05-.2v.2" transform="translate(.75 75)"/><path fill-rule="evenodd" fill="#754846" d="M232.15-34.5h.8l5.5-.05h.7q3.75-.1 3.7 1.1l-.15 1.2-.05.05-.05.4-1.3 1.6q-1.75-2.95-3.35 2.5-.7.75-2.55.3l-.3-.05-.05-.35v-.05l-.7-2.4q-.65-1.05-1.8-1l-1 .25-1.25 1.4q-1.05-.5-2.4-2.75-.75-1.45 1.95-2.15h2.3" transform="translate(.75 75)"/><path fill-rule="evenodd" fill="#bb958c" d="m209.65-4.4-.2-.1-.15.1-.1-.55.45-.7v1.25m30.65 59.05-.7.7-2.95-.65-1.35-5.75 2.1 1.45.8 1.95.1.25v.2l.05.2.2.15.15.05H239.1l.25-.2.15-.25.8 1.9M166.8 74.3h-3.65l-4.6-1.95-.1-1.95.1-4.75h-.05.05v-.2l.05-1.1v-.15l.1.05-.1.1 8.2 9.95m-54.85-14.7-4.5 1.3-4-2.55v-4.5l.45.3 2.5 1.4 3.1 1.85 2.45 2.2M99.6 56.85l-2.9-2.45.65-3.3 1.1.45.2.05.95 5.25M217.05-49.7l.3.2.05.1.05.1-.4-.4m12.7 14.95.2.25h-.1l-.1-.25M141.3-48.2l.2.1v.05l-.2-.15M83.7-28.65l-.1-.2-.05-.15.15.35m135.25-18.3-.4-.6.3.45.1.15M192.3-18.5l.2.4-.2.15v-.55" transform="translate(.75 75)"/><path fill-rule="evenodd" fill="#e0d5cd" d="m241.8-25.35-3 5.15-1.7.9.15-4.15h2.3l.35-.3 1.9-1.6m-16.4 1.6q-.35 2.15-1.8 4.75l-.1.15-1.05 1.75-1.55-8.2 3.65 1.55h.85m-3.75 9.95 1.25-.8-.35 2.55-.3 2.6-1.45-2.35v-.05l-.5-1.1 1.35-.85m3 5.4 1.8-2.6v3.45l-.5 1.15-.5 1.25-2.55-.6h-.05l.9-1.3.9-1.35M212.8-5.5v-1.8l.55-1.3.7 1.45.15.3.5 1.4.1.35.35 1.5.15.75.05.1-.55.45q-.9-.65-1.75-1.25l-.25-.35v-.55q.3-.05 0-.1v-.95" transform="translate(.75 75)"/><path fill-rule="evenodd" fill="#c8b19d" d="m213.8-52.1.05.05q2.25 1.95 3.2 2.35l.4.4 1.4 2.2-.3-.45.4.6q-2.25 1.2-5.4.95-3.2-.25-7.85-5l-1.6-2.15.5-.55h2.45l6.75 1.65v-.05" transform="translate(.75 75)"/><path fill-rule="evenodd" fill="#7d3e3e" d="M199.85-34.75v-2.6l2.5.8q5.2.45 9.75 4l1.95 1.7 2.35 2.6v.15l.05 3.95-1.55-.8-1.3-.75v-.1l-.05.1-1.8-1.05-1.95-.7h-.1l-.2 3.55 2.7 4.55 1.35 2.45.75 1.25v.75l.3 1.45v.05l-1.65 1.4.05.05.1.4 1.25.75.4.45.35.55-1.35.2q-1-.9-1.35-1.6l-.05.05.15-.55-6-12.65-6.65-10.4" transform="translate(.75 75)"/><path fill-rule="evenodd" fill="#6a3333" d="m218.9-25.9.05 1.9q.15 2.2.65 4.55l.15.95v.05l.1.25v.05l.55 2.25.25-.05 1 2.15-1.35.85-1.2-2.55-.45-1.7v-.1l-.1-.35-.35-1.35-.05-.8q-.15-1.7-.9-2.95l-.1-.55-.3-2.15v-.05l-.05-.05-.4-2.55.1-.1 1.3.95 1.1 1.35m3.65 13.85 1.55 2.75.55.9-.9 1.35-.45-.7-1.05-1.7.3-2.6M204.7-22.5l-4.85-9.65v-2.6l6.65 10.4 6 12.65-.15.55.05-.05q.35.7 1.35 1.6l-.4 1-.55 1.3v1.8l-.35-.4-.95-1.15-.55-2.05.15-.05.3-.05v-.05l-.15-.05.15-.35v-.05l-1.15-.7-.8-2.8v-.95L206-20.1v-2.4h-1.3" transform="translate(.75 75)"/><path fill-rule="evenodd" fill="#d09677" d="m216.8-25.55.05.1.3 2.15h-.7v-.85l-.05-3.95.4 2.55m1.75 7.9.1.35-.1.05v-.4m-5-8.05.05-.1v.1h-.05m3.6 20.55.05.1-.1-.05.05-.05m2.25 1.35.05-.5.15.15-.2.35m-4.25.2.35.5-.15.25h-.05l-.15-.75" transform="translate(.75 75)"/><path fill-rule="evenodd" fill="#d8b49a" d="M216.45-23.3h.7l.1.55q.75 1.25.9 2.95l.05.8.35 1.35v.4l.1-.05v.1l.45 1.7-.1.05v.05l.4 1.8.8 2 .25.6.15.3 1 3q.2.9.85.6l.1-.05v.2l.3-.25.35-.1-.2-.1.3-.35.45.7-.9 1.3-1.5-1.1-1.65 2.55h-.25l-.05.5-.3.45-1.9-1.7-.05-.1-.85-1.8-.55-1.45-.55-1.15v-.25l1.95-.25v-2.1l-.55-2.3.35-.2-.45-1.95-.05-6.7m-2.9-2.4h.05l-.05 8.8-1.35-2.45-2.7-4.55.2-3.55h.1l1.95.7 1.8 1.05" transform="translate(.75 75)"/><path fill-rule="evenodd" fill="#d29a3e" d="m216.4-28.25.1.05-.1.1v-.15" transform="translate(.75 75)"/><path fill-rule="evenodd" fill="#d6a796" d="M216.45-24.15v.85l.05 6.7.45 1.95-.35.2.55 2.3v2.1l-1.95.25h-.1l-.35-.55-.4-.45-1.25-.75-.1-.4-.05-.05 1.65-1.4v-.05l-.3-1.45v-.75l-.75-1.25.05-8.8 1.3.75 1.55.8" transform="translate(.75 75)"/><path fill-rule="evenodd" fill="#e6b6a4" d="M209.7-27.45h.1-.1m5.4 17.65h.1v.25l-.1-.25m4.35 5.5h.25l-.1.15-.15-.15" transform="translate(.75 75)"/><path fill-rule="evenodd" fill="#b56262" d="m211.1-9.15-.15.05v-.05l.15-.05h.05l-.05.05m8-6.35 1.2 2.55.5 1.1v.05l1.45 2.35 1.05 1.7-.3.35.2.1-.35.1-.3.25v-.2l-.1.05q-.65.3-.85-.6l-1-3-.15-.3-.25-.6-.8-2-.4-1.8v-.05l.1-.05m-4 5.7.1.25.55 1.15.55 1.45.85 1.8-.05.05-.15-.2-1.45 2.2-.35-.5-.35-1.5-.1-.35-.55-2.35-.4-1.8 1.35-.2" transform="translate(.75 75)"/><path fill-rule="evenodd" fill="#daae98" d="m165.55 58.9-.15.7-.2-.8.35.1m34.7-70.05h.05l-.05.05-.35.15-.25.15v-.15l.6-.2" transform="translate(.75 75)"/><path fill-rule="evenodd" fill="#d6a38f" d="M165.55 58.85v.05l-.35-.1.35.05M197.8-9.9h.05l-.05.05v-.05" transform="translate(.75 75)"/><path stroke-opacity=".392" stroke-linejoin="round" stroke-linecap="round" stroke="#000" fill="none" d="m243.2-70.85-6.35 2h-4.5l-2.95 2.65-11.2-2.05h-12.45l-3.25.75 3.35 1.75m35.2 12.15-2.65 1.2-2 1.05q-1.35 1.55-2.15 1.95v2.55l1.05 1.15.3.25 6.8 6.25.8.7H246.15l-3.5-5.3H244l-1.15-6.15q1.25-3.05 0-6.45l-3.65-3.95-1.2-.45-2.5-.9v-1.75q2.35-1 4.7-2.8l.3-.2 1.6-1.35.3-.3q1-1.4 2.35-2.45l9.4-3.7-10.6 3.3m-3.35 4.7L238-60.8m-8.15 26.3H232.95l5.5-.05h.7q3.75-.1 3.7 1.1l-.15 1.2-.05.05-.05.4-1.3 1.6q-1.75-2.95-3.35 2.5-.7.75-2.55.3l-.3-.05-.05-.35v-.05l-.7-2.4q-.65-1.05-1.8-1l-1 .25-1.25 1.4q-1.05-.5-2.4-2.75-.75-1.45 1.95-2.15m13.4-4v.05l.15.8q1.7 2.65 1.25 5.3l-1.7 7h-1.15l-3 5.15-1.7.9.15-4.15h-1.2l-1.35-1-1.65 1.9-6.2-1.25-1.45.05q-.35 2.15-1.8 4.75l-.1.15-1.05 1.75-1.55-8.2-.45-.15-1.55-.4.05 1.85q.15 2.2.65 4.55l.15 1 .1.25v.05l.55 2.25 1.25 2.1 1.25-.8-.35 2.55 1.55 2.75.55.9 1.8-2.6v3.45l-.5 1.15.7 1.45-3.35 2.6-8 2-4.15-2.6h-1.5v-2.7l-.45.7.1.55m33.95-34.05-.05-.05m-5.95 15.05h2.3l2.25-1.9m-1.5 68.25 4 5.35m0 3.55-2.7 1.5-2 2.05-2.95-.65-1.35-5.75-4.25-3.1h-5.15m10.65 9.85-3.05 3.2h-8.7l-4.6-4.1M154.1-59.15l-6.45-4.6m27.1.5 10.4 1.85.3-.5.15-.55q.15-1.65-3.75-1.45l-2.2-1.4-9-6.4H187l12 2.8 2.9 1 .6.4m39.1 120.8v-3.9l-2.1-4.9-7.95.3M141.5-48.05q-9.4 13.2-6.4 27.95m78.45 32.65-7.2-17.15.5-5.6-.6-1.1v-2.85l-2.4-4.2-.5-.85-.2-.3-.55-.8-1.1-1.7-.6-.75-1.05-1.4q-2.15-2.7-4.25-4.45l-.75-.55-1.5-1-.7-.4-1.45 1.5-1.8-2.15v-4.15l-6.65-3.45h-3.6l1.15-3.75 9.05-9 1.9-4.35V-57l-2.15-.9-.1-.05-1.25-.5-.05-.05-2.55-2.9m16.65 1.45-.35.05q-4.2.4-7.95-1.35-3.2-3.15-8.35-4.05h-5.5m24.45 12.15.5-.55h1.05l-5.6-.8m10.9 45.4.55 2.05.95 1.15.35.4v-1.8l.55-1.3.4-1q-1-.9-1.35-1.55l.1-.55-1.55 1.2.45.8-1.15-.7-.8-2.8v-.95L206-20.1l-1.3-1.1v-1.3l-4.85-9.65v-5.2l2.5.8q5.2.45 9.75 4l1.95 1.7 2.35 2.6.1.05 1.3.95 1.1 1.35v.05-.05m.05-21.05-1.5-2.35-.4-.4q-.95-.4-3.2-2.35l-6.8-1.65h-1.4m10.75 25.45v.15l.4 2.55.05.05v.05l.4 2.7q.75 1.25.9 2.95l.05.8.9 3.5 1.2 2.55 1.35-.85m-4.8-11.65-.05-.1m4.1.25 3.65 1.55h.85m-8.45 9.1-.45-1.95-.1-11.5v-.15m-7.2 23.3-.5.8-.8-4.15-1.05-1.9m6.9.6 1.35-.2h.1l1.95-.25v-2.1l-.55-2.3m-1.9 9-.55-2.35-.4-1.8m.95 4.15.1.35m.7 2 1.45-2.2.15.2.1.05 1.9 1.7 2.25-3.5 1.5 1.1.9-1.3-1.5-2.4-1.45-2.35v-.05l-.5-1.1m4.35 4.55-.9 1.35m-4.65 3.7 1.1-.15 3.95-1.95-1.25-.3h-.05m-.3-6.3-.3 2.6m-9.75-2.25-6-12.65-6.65-10.4m13.7 17.85.05-8.9-1.5-6.75m-7.4 10.05h1.3v2.4m-9.9 17.25 6.8-2.05m23.05-1.5-.5 1.25-1.3-.3m-8.8 2.7-.05-.1-.15-.75m.35.5-.15.25.3-.05h.05l3.4-.45m-3.75.6.25 1.05-.8-.6q-.9-.65-1.75-1.25l-.25-.15v-.75q.3-.05 0-.1v-.95m2.5 2.65h.05-.05" transform="translate(.75 75)"/><path stroke-opacity=".392" stroke-linejoin="round" stroke-linecap="round" stroke="#000" fill="none" d="m213.55 12.55 1.4 2.2 9.25 22.15v2.4l12.65 3.6h3.45m4 5.35v3.55m-7.65 2.9-.1 1m-16.35-.9-7.6-1.95h-2.4L208.55 49v-5.55l-6.4-11.15L190.7 21l-4.15-3h-3.3l-2.85-8.6-2.35.55h-3.4l-.6 5.4v19.8l2.65 12.8 3.55 6.1-1.45 2.2 1.5 3.15 1.1 1.65V71l-2.75 1.5-5.85-1.75q-.85 2.35-2.35 3.55h-7.3l-4.6-1.95-.1-1.95-4.8-1.9v-5.25l3.55-4.45L159 56l-3.15-17.3v-4.6l-5.65-17-2.1-14.65Q140.95.15 134.4-9.4l-5.2-2.35-7.15-2.1-1.65-.8v1.05q-.1 4.95-.7 10l-4.65 14.45-5.95 2.4h-3.7l-.45 5.8 1.95 10.45 5.2 9.35 7.45 8.8v5.2l-2.25 4.3-2.85 2.25h-1.9l-5.1 1.5-4-2.55v-1.5H99.6l-5.8-4.9v-2.9l-.2-2.85q-.45-5.25-1.5-10.55l-.5-2.35-2.15 2-2.8 1.45-12.1-2.65-2.05-9.25 1.6-8.75-1.6-8.05 2.5-10 1.95-2.8L80.4-8.2 85-17l-1.5-12.05 1.7-11.9q-9.4 3.05-18.5 9.55-4.7 2.3-10.5 2.7-2.4.15-5-.05-6.5 0-12.35-1.65l3.85-1.45q-10.15-1.3-18.4-4.25-5.1-1.8-9.45-4.25l7.45-.9q-12.25-2.25-17.8-7.4Q.8-52 0-56.6q11.15 6 22.3 6.25l-4.6-3.1 15.55 5.1q4.85 2.3 8.7 2.35l7.55-.3q7.2-.55 13.6-2.25l17-4.6 10.95-6.55.2-.3 3.4-1.85 3.45-1.9h-3L97-65.2q2.8-1.95 6-2.95l4.2-.8 2.5-1.4 5.5-.5 14.3 3.4q8.2 1.8 16.4 4.9 4.1 1.5 8.2 3.4m-6.45-4.6q9.8-1.25 27.1.5m-80.1 1.4-3.6 2.15-2.8 4.15-2.8 6.7v5.95l-.25 1.95m1.45 77.7 2.2-4.15-2.05-2.85-1.9-1.55-1.85-1.55.95.35 1 .15 1.7.4-1.25-6.2.45-5.7-1.85-2.2.05-3.95-1.95-3.55 5.1-14-1.8-5.15v-.05L85-17m6.1 19.95.45 1.2 10.1 9.1h3.75M91.1 2.95l-1.05-3-2.8-8m-.55 35.6 3.6.8-2.55-7.9-.7-1.85-1.15-2.95m31.85-51.4q2.15 8.35 2.55 17.2l.1 3.9m27.7 17.1-.3-1.7L145-4h-2.1v-.1q.4-11.25 3.45-18.25M175.4 2.7l-.5 5.35 2.4-2.25 6.4-11.9m-8.8 14.15-.25 1.9m5.75-.55 6.3-1.5 9.4-10.75M28.25-40.35l-5.95-.9M158.9 62l-.1.65-.15 1.1m-.05.6-.05 1.1v.2l-.1 4.75m15.45-6.25-.3 3.05-.45 2.35-.35 1.2m-53.25-23.1-4.2-3.15m-2.8 14.9.85-2.55v-.05l1-2.95.05-.2v-.05l-2.05-6.4-2.1-1.95m-23.6-17.7.1.4 1.75.65 3.05 4.65-1.3-4.9m-5.3-1.2v.15l1.8.65m4.8 5.35v-.05m11.85 23.6V50.9l-1.65-5.05M84.9 28.2l.1-.9-1-.3" transform="translate(.75 75)"/><path stroke-width=".25" stroke-opacity=".392" stroke-linejoin="round" stroke-linecap="round" stroke="#000" fill="none" d="m90.8 74.95.35.9.65 1.75.05.1v.25M214.1 66.4l.7 1.45.15.3.5 1.4m.1.35.35 1.5.35.5m.15.2-.15-.2m.15.2h.05l-.35.15-.55.45m-2-1.6-.25-.55q-.2-.65-.1-1.45m.6 2.35-.25-.35"/><path fill-rule="evenodd" fill="#885e5e" d="m208.35-3.1.25.6H208.45l-.1-.2v-.4m3.15 6.4.1.2h-.1v-.2m-.85-1.6-.15-.1-.2-.4.35.5m2.85 5.8.4-.15h.05l-.45.15" transform="translate(.75 75)"/><path stroke-width="1.5" stroke-linejoin="round" stroke-linecap="round" stroke="#484131" fill="none" d="m245.5 4.45 9.4-3.7-17.3 5.4h-4.5l-2.95 2.65-11.2-2.05H206.5l-3.25.75-.6-.4-2.9-1-12-2.8H171.4l11.2 7.8q3.9-.2 3.75 1.45l-.15.55-.3.5-10.4-1.85q-17.3-1.75-27.1-.5l6.45 4.6q-4.1-1.9-8.2-3.4-8.2-3.1-16.4-4.9l-14.3-3.4-5.5.5-2.5 1.4-4.2.8q-3.2 1-6 2.95l-1.9 1.45h3l-18 10.6-17 4.6q-6.4 1.7-13.6 2.25l-7.55.3q-3.85-.05-8.7-2.35l-15.55-5.1 4.6 3.1Q11.9 24.4.75 18.4q.8 4.6 4.5 7.95 5.55 5.15 17.8 7.4l-7.45.9q4.35 2.45 9.45 4.25 8.25 2.95 18.4 4.25L39.6 44.6q5.85 1.65 12.35 1.65 2.6.2 5 .05 5.8-.4 10.5-2.7 9.1-6.5 18.5-9.55l-1.7 11.9L85.75 58l-4.6 8.8-3.45 3.45-1.95 2.8-2.5 10 1.6 8.05-1.6 8.75 2.05 9.25 12.1 2.65 2.8-1.45 2.15-2 .5 2.35q1.05 5.3 1.5 10.55l.2 2.85v2.9l5.8 4.9h3.85v1.5l4 2.55 5.1-1.5h1.9l2.85-2.25 2.25-4.3v-5.2l-7.45-8.8-5.2-9.35-1.95-10.45.45-5.8h3.7l5.95-2.4 4.65-14.45q.6-5.05.7-10v-1.05l1.65.8 7.15 2.1 5.2 2.35q6.55 9.55 13.7 11.85l2.1 14.65 5.65 17v4.6l3.15 17.3-1.8 2.8-3.55 4.45v5.25l4.8 1.9.1 1.95 4.6 1.95h7.3q1.5-1.2 2.35-3.55l5.85 1.75 2.75-1.5v-9.95l-1.1-1.65-1.5-3.15 1.45-2.2-3.55-6.1-2.65-12.8v-19.8l.6-5.4h3.4l2.35-.55L184 93h3.3l4.15 3 11.45 11.3 6.4 11.15V124l1.65 3.85h2.4l7.6 1.95 4.6 4.1h8.7l3.05-3.2.1-1 2.95.65 2-2.05 2.7-1.5v-3.55l-4-5.35h-3.45l-12.65-3.6v-2.4l-9.25-22.15-1.4-2.2-.45.15.4-.15-1.35-2.15-2.45-5.55L207.4 73l.5-.7-.8-1.9.4-4.7-1.9-3.3-.75-1.2-1.7-2.6-.45-.6-.05-.05-.15-.1.05-.05-.15-.2 1.7-1.8.5.85 2.4 4.2v2.85l1.65 3 .8 4.15.5-.8.1.55.15-.1.2.1v1.45h1.5l4.15 2.6 8-2 3.35-2.6-.7-1.45.5-1.15V64l-1.8 2.6-.55-.9-1.55-2.75.35-2.55-1.25.8-1-2.15-.25.05-.55-2.25v-.05l-.1-.25v-.05l-.15-.95q-.5-2.35-.65-4.55l-.05-1.9v.05l1.55.4.45.15 1.55 8.2 1.05-1.75.1-.15q1.45-2.6 1.8-4.75l1.45-.05 6.2 1.25 1.65-1.9 1.35 1h1.2l-.15 4.15 1.7-.9 3-5.15h1.15l1.7-7q.45-2.65-1.25-5.3l-.15-.8-.05-.05h2.95l-3.5-5.3h1.35l-1.15-6.15q1.25-3.05 0-6.45l-3.65-3.95-1.2-.45 2.2-5.45.3-.2 1.6-1.35.3-.3q1-1.4 2.35-2.45M86.65 90.65l-.45 5.7 1.25 6.2 3.6.8-2.55-7.9-.7-1.85-1.15-2.95m.9 12.3-.1-.4-2.7-.55-.95-.35 1.85 1.55.1-.9 1.8.65"/><path fill-rule="evenodd" fill="url(#b)" d="M240.95-50.65q0 .9-1.15 1.7-1.05.8-2.6 1.05l-2.75-.2q-1.1-.45-1.1-1.35 0-.9 1.1-1.7 1.15-.8 2.75-1.05l2.65.2q1.1.45 1.1 1.35" transform="translate(.75 75)"/><path fill-rule="evenodd" fill="url(#c)" d="M215-48.4q-.45.75-1.75.7-1.25.05-2.6-.75-1.4-.8-2.05-1.95-.65-1.05-.2-1.8.45-.8 1.7-.8 1.3.05 2.7.85 1.35.75 2 1.85.65 1.1.2 1.9" transform="translate(.75 75)"/></g><path fill-rule="evenodd" fill-opacity="0" fill="#f0f" d="M100 40H0V0h100v40" id="a"/><use xlink:href="#a" width="100" height="40" id="e"/></defs><path fill="none" d="M-1-1h195v116H-1z"/><g><use x="69.05" y="143.409" xlink:href="#d" width="381" transform="translate(-192.55 -294)" height="381"/><use x="-6.111" y="-7.389" xlink:href="#e" width="100" transform="translate(5.25 3.05) scale(1.6364)" height="40"/><use x="-92.313" y="191.723" xlink:href="#f" width="255.65" transform="matrix(-.748 0 0 .748 122.661 -142.55)" height="150.05"/></g></svg>