<svg width="228" height="247" xmlns="http://www.w3.org/2000/svg" xmlns:xlink="http://www.w3.org/1999/xlink"><defs><g id="b" stroke-opacity="0" stroke-linejoin="round" stroke-linecap="round" stroke="#f0f" fill="none"><path d="M187.95-293.5v380h-380v-380h380" transform="translate(192.55 294)"/><path d="m187.95-293.5-190 190 190 190m-380-380 190 190L-192 86.5M92.95-38.4H-97" transform="translate(192.55 294)"/></g><g id="d"><path fill-rule="evenodd" d="M96.75 73.2q.8.8 1.75.95 21.9 5.1 27.05-7.35l-.15-.8q-13.75-2.5-28.65 2.4v4.8m29.55-32.25h-1.2l.2.6.1-.05.4-.25.45-.3h.05m44.05 75.45h-1.6q-7.7-.35-16 8l3.2 4.8 16-3.2-1.6-9.6m110.3-54.15-5.25 4.6.15.15 5.1-4.75M22.05-15.1l12.1-2.2q67.3 9.75 86.55 20.05l49.5 15.7 97.4-89.7 49.5-29.6 6.3-4.95 20.95 40.95-.7.35-1.6 19.35-25.3 74.5L336 10.05l-5.4 20.25h7.05v39.5h-17.6l-3.5 13.1q-5.15 3.45-4.65 9.8L243.15 190l-21.9 2-38.9-15.6-16-8.8 57.2-52.65-.05-.05-72.35 29.5-32.15 7.65 10.25-11-1.3-13.45-20.55 10.1-8.25-1.3-12.6-8.55 6.2-17.45h-31.9l7.45-12.2H26.5L2.3 70.55 21.55 37.2l-.1-.25q77.75-27.4 59.1-8.9h17.8L36.55-9.9l-14.5-5.2m134.8 77 37.5-14.3-38.45 8.6.95 5.7" transform="translate(0 192)"/><path fill-rule="evenodd" fill="#c64a0b" d="m240.9-150.65-6.55 5.85 6.2-7.95.35 2.1m10.05-25.15 11-8 1.6-2.15-3.8 6.65-10.25 8.9 1.45-5.4m15.05-7.95 7.75-2.85 7-4.8-4.85 14.35 9 8.75-9.25 4.5 3 6-4.1 5.4 1.5 14.05.35 2.9.55 5.25-3.75-4.85-.5-17.1 1.3-5.15-1.55-3.25-.3-10.25-11 12.5-3.25-2.25-5 7.5v2.65l-3.4-1.9-.55 2.35-3.2-.25 2.25-8.95 1.4 4.25 4.85-4.4 2.25-9.85 2.25 4 6.65-9.25.6-2.25v-7.1" transform="translate(0 192)"/><path fill-rule="evenodd" fill="#9f3a06" d="M280.75-191.4v7.2q8.25 1.95 12.6 14l3.4 14.4h-2.4l-5.5 27.65-4.7-11.05 2.4-7.8-3.8-11-4.75 13.7 5.4 15.4-7.35-9.45-1.5-14.05 4.1-5.4-3-6 9.25-4.5-9-8.75 4.85-14.35m0 10v-2.8 2.8" transform="translate(0 192)"/><path fill-rule="evenodd" fill="#ffae51" d="M244.35-141.65q-.05 2.35.2 4.85-2.9-6.65-3.6-13.3l-.05-.55-.35-2.1-6.2 7.95 9.4-25.4 7.2-10.2v4.6l-1.45 5.4 10.25-8.9 3.8-6.65 4.4-6.05-1.95 8.25v7.1l-.6 2.25-6.65 9.25-2.25-4-2.25 9.85-4.85 4.4-1.4-4.25-2.25 8.95-.1.3-.55 2.2q-.65 2.9-.75 6.05m4.6-8.3.55-2.35 3.4 1.9v-2.65l5-7.5 3.25 2.25 11-12.5.3 10.25 1.55 3.25-1.3 5.15.5 17.1-9.05-11.75 2.2 8.4q-2.6-3.5-5.45-5.95-4.9-4.2-10.5-5.35l-1.45-.25" transform="translate(0 192)"/><path fill-rule="evenodd" fill="#b3652d" d="m288.85-128.15 1.85 2.3q-.95 2.55-4 5.05l.05.05 1.2 1.75v3.2l-.7.4-2.3 1.3-.8-4.2-4.15-7-8.25-9.1-4.4-2.3-1-1.7-2.2-8.4 9.05 11.75 3.75 4.85-.55-5.25-.35-2.9 7.35 9.45-5.4-15.4 4.75-13.7 3.8 11-2.4 7.8 4.7 11.05m58.7 150.75-1.6 8.4-2.7-6-1.35 5.15-10.45 5.15-1.75 4.75-1.9 10-4.85.7-2.55.4 6.5-16.45 2.9-6-3.4-1.85-6.05-8.5V.55l3.45-2.9q-1.4 7.9-.55 14.95.65 2.1 1.5 3.7l1 1.7q4.6 6.85 13.25 1.35 2.3 1.8 5 2.6l3.55.65m-99.35-1.65-2.8-1.25v2.5h-12.7v-3.35h8.6l4.1-15.9V19.7l1-3.65L259 18.8l-1.1 6.4-9.7-4.25m-15.5-8.2v-6.1l-6.05 12.05-9.85-6.3-2.65-1.7 1.5-2.2 11.1 2.4L235.9.2l2.25.65-5.45 11.9m13.05-162.95 3.2.25 1.45.25q5.6 1.15 10.5 5.35l1.55 2.45-6.3-4.35H246.1l-1-1.45.55-2.2.1-.3m36.9 7.55-1-3.25-1.7 3.9 1.7-3.9 1.7-3.9-1.7 3.9 1 3.25m-6.25 7.2 10.3 14.65-10.3-14.65m-50 127.9 1-4.1 11.95 4.15 6.6-3.8 3.2 1.5-1.9 4.35-1.6 3.65-19-5.65-.25-.1m84.25 21.6 7-2.35v4.2l-7-1.85m5.95 15.15-4 10.7-3.95-5.7-3.55-8.5 11.5 3.5M232.7 6.65 235.9.2l-3.2 6.45" transform="translate(0 192)"/><path fill-rule="evenodd" fill="#5b1c04" d="M249.75-140.8v2.6l-5.4-3.45q.1-3.15.75-6.05l1 1.45 1.8 2.7 1.85 2.75m16.6 2.4 1 1.7 1 1.8-1.4.3-4.5-7.3-1.55-2.45q2.85 2.45 5.45 5.95M256-135.3l1.95 2.9-1.3.05h-.05l-5.75-8.45h1.5l3.65 5.5" transform="translate(0 192)"/><path fill-rule="evenodd" fill="#eabf7c" d="m260.8-124.25-11.05-16.55-1.85-2.75 1.55 2.15 3.05.55-.15.05h-1.5l5.75 8.45h.05l.9 1.15 1.55-.45q5.2-1.55 10.1-2 2.8.75 3.7 2.15-5.25-1.2-14.55 1.9l7.7 11.6.65 3.4h.95l.9-.05.4-.15.4.2q-1.05 1-.4 2.9h-1.05l-1.2-2.9-.7-1.65-2.7-4.2-2.5-3.8m7.8 9.65q.15.15.45.15l.2-.1.1-.05h-1.7.95" transform="translate(0 192)"/><path fill-rule="evenodd" fill="#d07d39" d="m227.4-11.65.85-3.7 14.85 2.75 2.85 1.3-6.6 3.8-11.95-4.15M345.95 31l-2.2 3.1-.3.4.1.05-4.25 9.55-7.3 5.3h-.05l-4.15.65 1.9-10 1.75-4.75 10.45-5.15 1.35-5.15 2.7 6M232.7 18.85v-6.1l5.65-1.05 3.4-9.8 3.65 1.05-4.1 15.9h-8.6m34.65-155.55 4.4 2.3 8.25 9.1 4.15 7 .8 4.2-3 1.7-13 .7q-.65-1.9.4-2.9l-.1.05-.2.1q-.3 0-.45-.15h.75l-3.3-3.4-7.7-11.6q9.3-3.1 14.55-1.9-.9-1.4-3.7-2.15-4.9.45-10.1 2l-1.55.45-.9-1.15 1.3-.05-1.95-2.9-3.5-5.55-3.05-.55-1.55-2.15-1.8-2.7h10.05l6.3 4.35 4.5 7.3 1.4-.3-1-1.8m7.4 21.85-5.4.25 5.4-.25h.7l2.3-.15-2.35-3.35-.65-.95v4.45M329.8 28.7l-2.9 6-6.5 16.45-10.5-4.2 2.7-7.05 4-10.7 1.05-2.75V11.7l-7 2.35-3.9-1.05 4.15-6.55 7.5-4.25 1.95-1.65v17.8l6.05 8.5 3.4 1.85m2.2 20.7h-.05.05M248.3 9.25l6.75 2.65 5-6.2v6.75L259 18.8l-12.6-2.75 1.9-6.8m-28.9-6.2 6.75 4.6L235.9.2l-9.15 10.7-11.1-2.4 3.75-5.45" transform="translate(0 192)"/><path fill-rule="evenodd" fill="#f19450" d="m252.5-140.85 3.5 5.55-3.65-5.5.15-.05" transform="translate(0 192)"/><path fill-rule="evenodd" fill="#8d1f03" d="M290.7-125.85q1.9.8 2.45 3-.9 2.5-5.2 5.45v-1.6l-1.2-1.75-.05-.05q3.05-2.5 4-5.05m27.5-4.05h.05l8.15.6q3.3.55 6.25 1.65l3.95 1.75.3.2q2.35 1.25 4.45 2.95l2.2 2 2.65 3q.9 6.75-.75 13.1-1.1-3.25-3.75-5.9-2.75-2.75-6.2-3.8-2.2-.7-4.7-.7l-2.35.15 2.35-.15q2.5 0 4.7.7 3.45 1.05 6.2 3.8 2.65 2.65 3.75 5.9-.8 3-2.15 5.95l-.1-1.15q-.5-4.45-5.25-6.75l-1.15-.45 1.15.45q4.75 2.3 5.25 6.75l.1 1.15-.3.6q-2.75-4.85-6.2-8.95l-3.15-3.35-5.2-4.5q-3.1-2.35-6.6-4.3l-5.45-2.65-.15-.4-.65-1.2-.95-1.15-1.2-.95-1.3-.75-1.55-.5-1.65-.15-.25-.05-1.8.1-1.8.4-1.4.45 1.4-.45 1.8-.4 1.8-.1.25.05 1.65.15 1.55.5 1.3.75 1.2.95.95 1.15.65 1.2.15.4q-5.9-2.6-12.7-4.2l-.3.05-1.1.55-.55.35.65-.95.75-1q3.5-1.25 7.05-1.95l3.5-.6q2.5.9 4.5 2.95 3.2 3.15 3.65 7.45-.45-4.3-3.65-7.45-2-2.05-4.5-2.95l4.5-.3m27.55 93.65 1.5.6L359.5-59.8h1.2l-3.45 20.4-12.65 20.1v.05l-5.25 7.1 5.95-19.75 1.95-3.75-1.95 3.75q-3.7 1-7.4 5.95-4.95 7.8-7.45 15.75-1.25 3.45-2.05 6.7-1.1 4.65-1.3 9-.15 3.1.2 6.05.55 1.75 1.3 3.1-.75-1.35-1.3-3.1-.35-2.95-.2-6.05 3.3 14.8 8.9-4.15 5.2 3.35 6.6 4.45l1.8 1.3 2.1 1.1 3.35 1.2 4.85.45 14.35-2.45.05 3.3-1.3 3.5-.15-1.05q-6.9 2-17.45 2.55l3.75-.05-4.1.5-6.45-.25h-.3l-.2-.05h2.3l-2.1.05 2.1-.05h-5.05l2.4-.05-8.25-1.75-4.45 2.5-1.25-1.9q-1.95.85-3.85 1.65-.85-1.6-1.5-3.7-.85-7.05.55-14.95.65-3.9 1.85-7.95l1.6-5q2.4-5.4 4.7-9.45l3.5-5.35.65-.9 1.6-1.85q2.25-2.35 4.35-3.15l3.7-.25m5.4 20.5q7.75-3.85 14.8-11.35-1 8.05-8.4 16.1L341.1-3.75l-.1.3v-.05h-3.65l2-8.65 4.75-.9 1.9-.55 1.8-.65 1.95-.85 1.4-.65m-95.1-92.45-.4-1.35.65.2-.25 1.15m27.8 51.9-11.25-1.45-.7-9.3h-8.55l-2.1-5.4.15.4v-8.25h7.5v-14.25h14v13.75h10v13.5h-9.5l.45 11m-30 25 .95.2 3 1.2-.15-3.65 1-3.75 1.5 1.7q1.6 2.1 3 4.9l.95 2.15-5.5 12.1-1.85 4.1-.35-.15q-2.7-1.2-6.1-1.55l.45-5 4.25.95 2.2.85.35-8.9q-3.65-2.05-8.25-2.05l4.55-3.1M268.05 1l3.3-22.45 2.35-16.45 10.5 4.3-.95 7.85-3.7 30.35-11.5-3.6m-7.15-28.8q-1.45-1.25-3.1-2.1 1.65.85 3.1 2.1m-.75 3.5-.5-.45-2.1-1.4 2.1 1.4.5.45m-1.55 7.85-.2-.15-1.2-.65 1.2.65.2.15m74.5-102.15q1.3 1.2 3.1 1 1.25 0 2.35-.75l.75-.85.25-.7v-1.3l-.35-.85-.35-.4q-1.1-.9-2.65-.65l-.7.55q-.5.75-.25 1.65l.25.25q1.05.9 2.1.5-1.05.4-2.1-.5l-.25-.25q-.25-.9.25-1.65l.7-.55q1.55-.25 2.65.65l.35.4.35.85v1.3l-.25.7-.75.85q-1.1.75-2.35.75-1.8.2-3.1-1l-.15-.15-.4-.7-.4-1.8q-.15-1.2.35-2.35l.9-1.25q.35-.4.8-.65l1-.25 1.4-.15-1.4.15-1 .25q-.45.25-.8.65l-.9 1.25q-.5 1.15-.35 2.35l.4 1.8.4.7.05.2.1-.05m-.45-9.05q-1.5.9-2.4 2.5-1.5 2.6-.7 5.45l.65 1.65q.9 1.65 2.65 2.7 1.3.7 2.65.9l2.8-.2q2.85-.8 4.35-3.35.75-1.35.9-2.75-.15 1.4-.9 2.75-1.5 2.55-4.35 3.35l-2.8.2q-1.35-.2-2.65-.9-1.75-1.05-2.65-2.7l-.65-1.65q-.8-2.85.7-5.45.9-1.6 2.4-2.5m5.1 7.4.1-.05.1-.3-.3-.95.3.95-.1.3-.1.05-.15.1.15-.1m3.35 116.5-.1.25-.2-.1q-.85-.35-1.65-.8.8.45 1.65.8l.2.1.1-.25m3.5-15.5.15.15-.1.1-.05-.25M333.4 12.6l.9 1.45-.9-1.45m-69.45 77.3h-.25l.25-1.35v1.35" transform="translate(0 192)"/><path fill-rule="evenodd" fill="#691003" d="M235.65-16.05q-.1-4.8.9-8.7 2.55-10.45 12.9-14.7l-1.05 5.4-.85 2.45q2.35-.25 4.45 0l1.85.3-4.55 3.1h-.7l-2.1.15-3.1.5 3.1-.5-1 8.85 1.85-.05 3.4.2-.45 5-5.4-.15 2.15 2.25 2.1 2.15-3.2-1.5-2.85-1.3-7.45-3.45m19.9-60.35-4.15.5q-9.15.9-15.1-.4-4.15-.95-6.75-2.9-1.25-1.6-1.15-3.2.85-1.25 2-1.7l.3-1.45q.55-2.7 1.35-5.15l.8-2.25 1.7-3.95q1.65-3.3 3.8-6.2 5.7-7.65 15.05-12.6 2.5-1.35 5.3-2.5l-.95 3.3-1.45 5.55 1.45-5.55 2.5 6.3-.65 2.45.2-.45q-.85 4.1-1.55 8.2l-.55 3.35-.45 2.9-.2 1.45-.7 5.6-.35 3.5-.45 5.2m38.55-45.25q2.25-5.95 5.85-11.15 4.4-2.65 14.25 1.2l4 1.7-4.5.3-3.5.6q-3.55.7-7.05 1.95l-.75 1-.65.95.55-.35 1.1-.55.3-.05q6.8 1.6 12.7 4.2l5.45 2.65.05 1.25-.05-1.25q3.5 1.95 6.6 4.3-4.9.7-8.6 4.35 3.7-3.65 8.6-4.35l5.2 4.5 3.15 3.35q-4.15-1.15-8.05 4.05-4.5 5.95 4.95 8.4 5.15.5 3.45-6.2 1.7 6.7-3.45 6.2-9.45-2.45-4.95-8.4 3.9-5.2 8.05-4.05 3.45 4.1 6.2 8.95l.3-.6q1.35-2.95 2.15-5.95 1.65-6.35.75-13.1 2.35 3.1 4.2 7l6.75 4.95.4 3-6.8 12-8.95 3.5-3.2 1.1-2.5.8-4.4 1.25-2.45.6-6.35 1.35q-9.45 1.6-17.5.9-4.25-.35-8.1-1.35l-2.75-.8-.9-.3-1.7-.65-.75-4.95-.15-1.35q-.65-5.2-.6-10v-1.35q.15-4.95.95-9.5v-.1q.9-5.25 2.7-10m66.6 61.85h1.95l.15.9q1.25 11.05-1.3 22.6l-4.5 6.65-5 4.35q.15 5.25-.85 9.55l-1.4.65-1.95.85-1.8.65-1.9.55-4.75.9-2 8.65H341v.05l.1-.3L357.55-11q7.4-8.05 8.4-16.1l.7-.8q4.25 16.95-7 25-5.25 2.3-10.85 1.65l-2.3 9.45-2.1-1.1-1.8-1.3q-1.4-1.1-6.6-4.45-5.6 18.95-8.9 4.15.2-4.35 1.3-9 .8-3.25 2.05-6.7 2.5-7.95 7.45-15.75 3.7-4.95 7.4-5.95l-5.95 19.75 5.25-7.1v-.05l12.65-20.1 3.45-20.4m8.4 70.5-1.25 3.65q-3.05 6.5-18 8.3l-1.35-.3-.3.25h-.65l-3.55-.65q-2.7-.8-5-2.6-8.65 5.5-13.25-1.35l-1-1.7q1.9-.8 3.85-1.65l1.25 1.9 4.45-2.5 8.25 1.75-2.4.05h1.35l.8.05h.8-.8l-.8-.05h1.4l.2.05h.3l6.45.25 4.1-.5-3.75.05q10.55-.55 17.45-2.55l.15 1.05 1.3-3.5m-55.25 74.6-7.7 7.1-.4-.95q-3.95-4.9-4.1-10.75-.2-7.25 1.6-12.05.55-1.65 1.4-2.95l4.4 9.4-.05.15.1-.05 4.75 10.1m-46.25 44.2q-2.55 2.5-5.65 4.65l-.1.1-.15-6.05-.15-5.5-.15-6-3.1-10.95-1.25-4.35-.05-.25-1.35-4.7-1.05-1.9q3.05-2 3.6-5.8l.15-1.45 5.4-4.8 3.85-3.45.2-.2 1.8 2.55-.8 19.45q-2.35-1.8-3.55-4.7-1.25-3-1.3-6.25.05 3.25 1.3 6.25 1.2 2.9 3.55 4.7l-.3 6.65q-1.3-2.55-3.65-4.3-1.75-1.35-3.9-1.75l-3.9-.05 3.9.05q2.15.4 3.9 1.75 2.35 1.75 3.65 4.3l.95 2.5q1.15 4.25.05 8.45-.55 2.2-1.6 4.1l-.05.1-.25 6.85m-14.95-38.55-3-5.5q-1.8-10.95 1.1-18.05 1.15-2.8 3.05-5l1.3-1.4 8.35 11.8q-1.55.4-2.85 1.1-1.05.55-1.95 1.2-1.35 1-2.35 2.35-3.75 4.7-3.65 13.5m3.4-199.15-1.25 5.35q-1.25 1.5-2.9 2.5l-1.6.95-1.65.85q-1.5.6-3.4.45l-.45-.05-3.3-.75q-.6-.1-1.05-.45-1.6-1.25-2.05-3.05l-.05-.7.05.7q.45 1.8 2.05 3.05.45.35 1.05.45l3.3.75.45.05q1.9.15 3.4-.45l1.65-.85 1.6-.95q1.65-1 2.9-2.5l1.25-5.35.25-1.15-.65-.2-1-1.35q-1.1-1-2.55-1l-.85.1-2.55.6q-.75.2-1.35.75l-2.3 2.35q-1.45 1.85-1.8 4.15-.1.8.65 1.25 1.05.65 2.35.3l1.75-.6q1.35-.7 2.35-2.15 1.1-1.5.5-2.85l-1.45-.5-.2.05q-1.6.7-1.7 2.35.1-1.65 1.7-2.35l.2-.05 1.45.5q.6 1.35-.5 2.85-1 1.45-2.35 2.15l-1.75.6q-1.3.35-2.35-.3-.75-.45-.65-1.25.35-2.3 1.8-4.15l2.3-2.35q.6-.55 1.35-.75l2.55-.6.85-.1q1.45 0 2.55 1l1 1.35.4 1.35m46.85 1.2q-1.3-.8-2.4-1.9-2.35-2.35-3.2-5.3 1.2-5.25 3.4-9.2l1.05-1.7-1.05 1.7q-2.2 3.95-3.4 9.2.85 2.95 3.2 5.3 1.1 1.1 2.4 1.9l.05.05.05-.1-.1.05m15.3-1.9q-3.65 3.7-8.85 3.7l-2.15-.2-2.25-.6-1.9-.9-.1-.05.1.05 1.9.9 2.25.6 2.15.2q5.2 0 8.85-3.7l.15.1q-3 4-3 9.2l.2 2.6-.2-2.6q0-5.2 3-9.2l1.5-1.75-.15-.1-1.5 1.75m3.7-8.85q0 4-2.2 7.1 2.2-3.1 2.2-7.1l.05-.2h-.05v.2m-9.75-3.25-.75-1.5-1.35-1-.75-.2h-1.1l-1.8.35q-.95.2-1.75.75l-1.2 1.35q-.45.75-.6 1.7l-.1 2 .8 1.55 1.1 1.4 1.15.95q.55.35 1.2.6.6.3 1.3.5l1.35.05 1.45-.05 1.25-.55 1.25-.6 1.05-.9.9-1.05.7-1.25.4-1.3.1-.8v-.6l-.1-1.35-.25-.9.25.9.1 1.35v.6l-.1.8-.4 1.3-.7 1.25-.9 1.05-1.05.9-1.25.6-1.25.55-1.45.05-1.35-.05q-.7-.2-1.3-.5-.65-.25-1.2-.6l-1.15-.95-1.1-1.4-.8-1.55.1-2q.15-.95.6-1.7l1.2-1.35q.8-.55 1.75-.75l1.8-.35h1.1l.75.2 1.35 1 .75 1.5v.2l.1-.15q-.1 0-.1-.05m-3.05.35-1.4.05q-.8.45-.45 1.5.3.85 1.2 1.1l1.8.05q1.05-.2 1.55-1 .5-.85.35-1.85.15 1-.35 1.85-.5.8-1.55 1l-1.8-.05q-.9-.25-1.2-1.1-.35-1.05.45-1.5l1.4-.05M304.95-106l-1.8-.15h-.1q-3.5-.05-6.1 2.05l-1.15 1.1q.3-6.2 1.5-11.2-1.2 5-1.5 11.2l1.15-1.1q2.6-2.1 6.1-2.05h.1l1.8.15m10.5 9.05q-1.5-4.35-5.45-6.95-1.4-.95-2.8-1.5 1.4.55 2.8 1.5 3.95 2.6 5.45 6.95l.15.45q.5 1.7.5 3.3l-.15 1.7-.15.8q-.5 1.6-1.5 3.05l-.55.65h-4.45l1.35-2.9.2-.8q.4-1.9 0-4.05l-.2-.9q-1.25-4-5.3-5.7 4.05 1.7 5.3 5.7l.2.9q.4 2.15 0 4.05l-.2.8-1.35 2.9h4.45l.55-.65q1-1.45 1.5-3.05l.15-.8.15-1.7q0-1.6-.5-3.3h.05l-.1-.45V-97l-.1.05m-10.1-4.4-.15-.05.05.1.1-.05m45.05-9.4 1.85 4.7q-1.95 6.35-6.55 10.75.55-2.05.55-4.3 0-2.7-.8-5.05.8 2.35.8 5.05 0 2.25-.55 4.3 4.6-4.4 6.55-10.75l-1.85-4.7m-111.85 30.4q-3.75-.6-7.7-2.05l-.7-.25.25-1.45-.25 1.45.7.25q-.1-2.8 1.3-4.05-1.4 1.25-1.3 4.05 3.95 1.45 7.7 2.05 1.75-1 2.85-2.7l.65-1.1.45-1.5q.2-2-.9-4.05l-.65-1-1.65-1.3-.75-.35-1.8-.6q-2-.25-3.9 0 1.9-.25 3.9 0l1.8.6.75.35 1.65 1.3.65 1q1.1 2.05.9 4.05l-.45 1.5-.65 1.1q-1.1 1.7-2.85 2.7l2.95.3h1.35q3.9-3.05 3.85-8.35l-.3-2.3q-.75-2.85-3.35-4.85l-.25-.15q-3.8-2.75-8.25-1.2 4.45-1.55 8.25 1.2l.25.15q2.6 2 3.35 4.85l.3 2.3q.05 5.3-3.85 8.35h-1.35l-2.95-.3m-4.05-2.8q2.55.2 2.95-1.8.2-3.05-3.25-2.45l-1.15.35 1.15-.35q3.45-.6 3.25 2.45-.4 2-2.95 1.8m83.8-7.3-.15-.25-.1-.15-.1.25.15.05.2.1 1.55 1.75 1.4 1.25 5.35-.65 4.95-.9q-3.7-.5-6.05-1.7-3.4-1.75-4.15-5.05-1.3-5.65 2.05-10.05 3.85-4.45 10.25-4.6-6.4.15-10.25 4.6-3.35 4.4-2.05 10.05.75 3.3 4.15 5.05 2.35 1.2 6.05 1.7l-4.95.9-5.35.65-1.4-1.25-1.55-1.75m-15.65-2.7q-.2 2 .75 2.45.55.25 1.55 0l.55-.2q4.05-3.2.75-4.55-3.3-1.4-5.95-.7-2.7.65-3.65 4.55l-.75-.55-.2-4.7v-.9q5.45-5.25 9.5-3.65-4.05-1.6-9.5 3.65v.9l.2 4.7.75.55q.95-3.9 3.65-4.55 2.65-.7 5.95.7 3.3 1.35-.75 4.55l-.55.2q-1 .25-1.55 0-.95-.45-.75-2.45m13-3.35q.55 3.1 2.4 5.65-1.85-2.55-2.4-5.65M309.3-87l-6.65-.3-6-4.3 6 4.3 6.65.3m11.95-.45-7.5.45 7.5-.45m-66.45-15.4q-1.35 6.1-2.3 12.15l-1.2 8.55q-2.8 1.95-8.45 2.1 5.65-.15 8.45-2.1l1.2-8.55q.95-6.05 2.3-12.15m-7.25 71.25-3.4.55 3.4-.55m-4.65 12.55 2.6-.15-2.6.15m52.8-78.1.1-5.85-.1 5.85m50 1.85-.85.75-1.85 1.5q.45-1.7.35-4.45l-.05-1.2.05 1.2q.1 2.75-.35 4.45l1.85-1.5.85-.75m-2.7 2.25-1.75 1.15-2.8 1-2.35.75-4.55 1.15 4.55-1.15 2.35-.75 2.8-1 1.75-1.15m5.8 91.8-2.35-.4-1-.25q-2.2-.6-4.45-1.55 2.25.95 4.45 1.55l1 .25 2.35.4M352-25.3l-3.65 3.15-.55 7.9.55-7.9L352-25.3m-7.4 6.05.05.25.1-.1-.15-.15m1.85 17.6q-.55 4.15-2.05 8.75 1.5-4.6 2.05-8.75m2.05 24-.55.25.55-.25m-19.15-5.55.5-.25q2.9 3.4 7.55 1.4l1.6 1.4-1.6-1.4q-4.65 2-7.55-1.4l-.5.25m10-.95h.8-.8m-1.95 2.1q-1.7-1.65-3.1-3.85v-.05.05q1.4 2.2 3.1 3.85m-69.8 61.1q-.9 1-1.55 2.15l-.4.75q-1.25 2.45-1.55 5.2.1-2.25-.35-4.65.45 2.4.35 4.65.3-2.75 1.55-5.2l.4-.75q.65-1.15 1.55-2.15m-3.9 10.85h.25v-1.35l-.25 1.35q-1.55 7.1-3.85 8.65-2.3 1.55-2.85 2.6.55-1.05 2.85-2.6t3.85-8.65m.4-2.75-.15 1.25.15-1.25m-.15 1.4v-.15.15M309 75.25q-1.35 2.6-2.1 6.2-.95 4.3-1.15 10 .2-5.7 1.15-10 .75-3.6 2.1-6.2m-47.45 47.45q3-2.2 4.55-5.55.75-1.55.3-3.3l-1-2.9-1.25-2.25-1.3-1.9-4.55-1.05 4.55 1.05 1.3 1.9 1.25 2.25 1 2.9q.45 1.75-.3 3.3-1.55 3.35-4.55 5.55m6.3-.05q-2.15 3.85-6.15 5.55 4-1.7 6.15-5.55" transform="translate(0 192)"/><path fill-rule="evenodd" fill="#211b14" d="m249.45-39.45 3.85-20.7 4.1 3.1L252-31.6q-2.1-.25-4.45 0l.85-2.45 1.05-5.4m5.5-32.35.6-4.6.45-5.2.85-3.35 3.9-14.95 4.8-4.5 6.75-5 8.35-1.2 4.5-3.25 2.1-1.55.7-.4v-1.6q4.3-2.95 5.2-5.45l.95 1.2q-1.8 4.75-2.7 10l-.05.1h.05q-.8 4.55-.95 9.5v1.35q-.05 4.8.6 10l.15 1.35.75 4.95 1.7.65.9.3q2.65 3.45 8.8 5.95l5.8-.4 1.55 1.45.65.95-.3.4 1.7.4-5.35 11.4v5.5l-3.95 3.6h-.05v-9.85l5-7h-7.3l-8.2-9.75h-10v-13.75h-14v6.5l-.25.1.25.5-5.85 7.15h-1.65v8.25l-.15-.4 2.1 5.4 1.8 4.75-6.5 25-1 3.75.15 3.65-3-1.2 7.1-29.2-3.5-8.5-3.45-3m88.35-7.3 2.6 14.3 1.1 5.15-1.25 5.75v17.65l-3.7.25-2.05-2.55v-11l-1.6-1.9.85-4.6v-5.85l1.25-9.75 2.8-7.45M289.65 48.95l-5.5 4.25-4.85-.95-8.05-1.55 8.95-19.5 2.55-2.95 11.2 10.95-4.3 9.75m-26.4.15-4.6-.9-14.75-8.5 2.5-10.95 9.05 4.5 8.35-3.5 3.75-3.75 1.85 4.35-6.15 18.75m.85-77.65 2.85-5.45 4.4 12.55L268.05 1 252.8-3.75l3.5-7.65-3.5 7.65.25-6.05-6-2.15-2.15-2.25 5.4.15q3.4.35 6.1 1.55l-.1 1.1.45-.95 1.85-4.1 5.5-12.1M279.55 4.6l3.7-30.35.95-7.85 1.95 12.8 10.75-10.35 2.6 2.1 2.95 28.7-3.85 10.85-19.05-5.9M246.5-28.05l7.15 3.85 1.35 6.1-4.25-.95-3.4-.2-1.85.05 1-8.85m59.95 17.3 7.45 3.7v2.9l-7-3-.45-3.6M345.9-64.8l-2.15-1.35 2.15 1.35m-46 101.25 4.5 11.75-4.5-1.5V36.45" transform="translate(0 192)"/><path fill-rule="evenodd" fill="#cd9e76" d="M291.4-111.65v.1h-.05l.05-.1m-22.5 23.6v.6l-.25-.5.25-.1" transform="translate(0 192)"/><path fill-rule="evenodd" fill="#fff" d="m266.05-118 3.3 3.4-.4-.2-.4.15-2.5-3.35m8.7 3.15v-4.45l.65.95.05 3.5h-.7" transform="translate(0 192)"/><path fill-rule="evenodd" fill="#ccc" d="m275.4-118.35 2.35 3.35-2.3.15-.05-3.5m-7.75 3.75h-.95l-.65-3.4 2.5 3.35-.9.05" transform="translate(0 192)"/><path fill-rule="evenodd" fill="#6d5741" d="m284.95-114.1 2.3-1.3-2.1 1.55-.2-.25m-25.15 7.5-.2.45.65-2.45-.45 2m-3.45 21.5.5.15-.85 3.35.35-3.5" transform="translate(0 192)"/><path fill-rule="evenodd" d="m253.3-60.15 1.65-11.65 3.45 3 3.5 8.5-7.1 29.2-.95-.2-1.85-.3 5.4-25.45-4.1-3.1m88.5-27.15 1.5 8.2-2.8 7.45-1.25 9.75v5.85l-.85 4.6 1.6 1.9v11l2.05 2.55q-2.1.8-4.35 3.15L336.1-31l-.65.9-.05-29.3v-4.15l-1-6.1-4.25-13-.9-.9 2.45-.6 4.4-1.25 2.5-.8 3.2-1.1M308.15 52.95h-18.5v-4l4.3-9.75-11.2-10.95-2.55 2.95-8.95 19.5-8-1.6 6.15-18.75-1.85-4.35-3.75 3.75-8.35 3.5-9.05-4.5 1.8-7.8 9.7 4.25 1.1-6.4 1.05-6.35L305.1 25.7l3.55 8.5 3.95 5.7-2.7 7.05 10.5 4.2-12.25 1.8m-47.9-161.55.15-.65q1.3-5.65 2.9-11.2l2.7 4.2.7 1.65 1.2 2.9h1.05l13-.7 3-1.7.2.25-4.5 3.25-8.35 1.2-6.75 5-4.8 4.5-3.9 14.95-.5-.15.7-5.6.2-1.45.45-2.9.55-3.35q.7-4.1 1.55-8.2l.45-2m34.3 25.15 2.75.8q3.85 1 8.1 1.35 8.05.7 17.5-.9l-2.65 2.9L313-67.9l-1.85 9v4.35l-3.85.15-3.85.2 3.95-3.6v-5.5l5.35-11.4-1.7-.4.3-.4-.65-.95-1.55-1.45-5.8.4q-6.15-2.5-8.8-5.95m-10.6 30-.1-2.85-.45-11h9.5v-13.5l8.2 9.75h7.3l-5 7v9.85l-5.7.25V-54l-.8-.15v.2l-12.95.5m-11.35-4.3.35 4.75-2.3.1-5.5-9.4-1.8-4.75h8.55l.7 9.3m40.8 20.45 12.25 27q-1.2 4.05-1.85 7.95l-3.45 2.9-1.95 1.65-7.5 4.25-4.15 6.55-8.15-2.5 3.85-10.85.45 4.8 4.75-5.5-.75-6.1 7 3v-2.9l-7.45-3.7-3.3-26.55h10.25m-44.5-50.15v7.15h-5.85l5.85-7.15m18.25 48.2 11.5 1.95.85 8.25-2.6-2.1-10.75 10.35-1.95-12.8.7-6.05 2.25.4M266.95-34l4.2-8.05 3.1.55-.55 3.6-2.35 16.45-4.4-12.55m-20.45 5.95 2.1-.15h.7q4.6 0 8.25 2.05l-.35 8.9-2.2-.85-1.35-6.1-7.15-3.85m2.65 18.25-2.1-2.15 6 2.15-.25 6.05-5.55-1.7 1.9-4.35m86.25-49.6 1.85 1.75-1.85-5.9 1.85 5.9-1.85-1.75m-35.5 95.85V46.7l4.5 1.5-4.5-11.75" transform="translate(0 192)"/><path fill-rule="evenodd" fill="#c33204" d="m302.9-107 .1-.05-.05.1-.05-.05m15.3-1.9 1.5-1.75.15.1-1.5 1.75-.15-.1m3.7-8.85v-.2h.05l-.05.2m-9.75-3.25q0 .05.1.05l-.1.15v-.2m3.3 24.05.1-.05v.05l.1.45h-.05l-.15-.45m-10.25-4.45.15.05-.1.05-.05-.1m12.85 10.55.1.15.15.25-.2-.1-.15-.05.1-.25m-61.3 78.5-.45.95.1-1.1.35.15M333.1-118.6l-.1.05-.05-.2.15.15m4.65-1.65-.15.1.15-.1m-73.8 208.8v-.15.15m13.8 5.1-.05.05.05-.05m4.5 8.95.1.45-.1-.45" transform="translate(0 192)"/><path fill-rule="evenodd" fill="#761103" d="m258.7-118.2 1-3.5 1.1-2.55 2.5 3.8q-1.6 5.55-2.9 11.2l-.15.65-2.5-6.3.95-3.3" transform="translate(0 192)"/><path fill-rule="evenodd" fill="#991604" d="m283.85-56.3.1 2.85-11 .45-.35-4.75 11.25 1.45M273.7-37.9l.55-3.6 10.65 1.85-.7 6.05-10.5-4.3" transform="translate(0 192)"/><path fill-rule="evenodd" fill="#4f6b79" d="m303.45-54.2 3.85-.2-4 8.45-3.4-.05 3.5-8.2h.05m-30.5 1.2 11-.45 12.95-.5h.8l-2.7 3.9-9.3.1-14.55 3.4-3-6.25 2.5-.1 2.3-.1m-1.8 6.45h7.25l9.05 3.4-.3 3.9-2.25-.4-10.65-1.85-3.1-.55v-4.5" transform="translate(0 192)"/><path fill-rule="evenodd" fill="#1d272c" d="m322.95 50.75.3 7.2q-7.55-.95-14.1 3.3l-1-8.3 12.25-1.8 2.55-.4m-43.65 1.5-.1 9.2q-2.1-1.35-4.35-2.2-5.6-2.25-11.85-1.6l.25-8.55 8 1.6 8.05 1.55m28-106.65 3.85-.15h2.25v8.75h2.75l-2.75 8.5h-14.75 4.5l3.3 26.55.45 3.6.75 6.1-4.75 5.5-.45-4.8-2.95-28.7-.85-8.25-11.5-1.95.3-3.9-9.05-3.4h-7.25l14.55-3.4 9.3-.1 2.7-3.9 5.7-.25-3.5 8.2 3.4.05 10.1.15-10.1-.15 4-8.45m-22.65 8.1 15.25.3-15.25-.3" transform="translate(0 192)"/><path fill-rule="evenodd" fill="#e9c892" d="M297.7-54v.05h-.8.4l.4-.05" transform="translate(0 192)"/><path fill-rule="evenodd" fill="#9a7958" d="M296.9-53.95v-.2l.8.15-.4.05h-.4" transform="translate(0 192)"/><path fill-rule="evenodd" fill="#333" d="m279.75 121.6-1.05.15.65-.75.4.6" transform="translate(0 192)"/><path fill-rule="evenodd" fill="#c60" d="m149.75 11.95-10.6-3.35V2.8l-3.85 4.55-8.95-2.8V-4.6l-.85-24.55 25.55 8.35q3.7 19.25-1.3 32.75m-38.4-12.2-7.65-2.4Q100.3-.1 96.95 11.8l-5.2-10.2q-2.6 11.35-3 35.6-1.6-35.9-8.35-47.25l-10.35-3.3q3.7-17.15-1-34.3l45.25 14.8q5.35 20.4-2.95 32.6m-33.9-13.9-.4.05.5.55-.1-.6m12.25 56.3V60.9l-1.25-18.65.7-.4.55.3" transform="translate(0 192)"/><path fill-rule="evenodd" fill="#c4b491" d="m201.3 28.3-51.55-16.35q5-13.5 1.3-32.75l8.5 2.8 9.6 4.8q21.6 11.5 36.3 26.45L201.3 28.3M126.35-4.6l-5.65 7.35-9.35-3q8.3-12.2 2.95-32.6l11.2 3.7.85 24.55m-56.3-8.75-18.8-5.95 2.5-19.9-8.8 17.9-7.35-2.35-2.05-7.95-.15-.15-6 5.5-17.35-5.5L6.5-68.2v.05l62.55 20.5q4.7 17.15 1 34.3M6.05-71l-.2-1.35 3.3 1.05-3.1.3" transform="translate(0 192)"/><path fill-rule="evenodd" fill="#fe8e1f" d="m60.6-67.25 8.65-5.85 1.55 11.25 8.35-14.55 3.7 18.75 9.5-8.75 3.3 11.7.35.05-1.15 10.1-33.9-10.6-.35-12.1m54.55.45 4.35 18.55 11.8-21 22.5 7.05-2.55 35.3-36.8-11.5.7-28.4m19.35 27.35-4.15-5.85 4.15 5.85" transform="translate(0 192)"/><path fill-rule="evenodd" fill="#fffdec" d="m.25-110.2 24.9 7.75L35.9-74l12.85-7.6L47.3-70h.05l13-9.6-1.6 13.55 1.85-1.2.35 12.1-33.9-10.6-.25-.05-17.65-5.5-3.3-1.05L.1-109.7l.15-.5m95.4 55.5.4-.2 10.3-5.5 2.35 11.85 6.45-18.25-.7 28.4-19.6-6.15L96-54.65l-.35-.05m58.15-7.5 22.55 7.05-2.2 16.35 7.45-14.75 18.75 5.9v8.45l4.45-7.1 15.8 4.95-3.8 13.75-.9.2q-12.9 2.7-29.35 1.5-10.7-.8-22.9-3.3l49.3 15.4-1.55 5.7-48.75-15.25-11.4-3.55 2.55-35.3" transform="translate(0 192)"/><path fill-rule="evenodd" fill="#3a4550" d="m35.55-31.6-6.15 5.35 6-5.5.15.15M226.6-7.4l.05-.05 19 5.65 1.6-3.65 5.55 1.7L268.05 1l11.5 3.6 19.05 5.9 8.15 2.5 3.9 1.05 7 1.85v8.15L260.05 5.7l-9.9-3.25-1.85 6.8-1.9 6.8-1 3.65V2.95l-3.65-1.05-3.6-1.05L235.9.2l-9.3-7.6" transform="translate(0 192)"/><path fill-rule="evenodd" fill="#161b1f" d="m220.6-41.35 4.4-16 9.75 5.75-10.9 38.85-4.45 15.8-3.75 5.45-1.5 2.2 2.65 1.7-7.65 27.2h-11l3.15-11.3 4.15-15.05q-14.7-14.95-36.3-26.45l-9.6-4.8 25.1 7.85 25.1 7.9 1.65-5.85 1.55-5.7-49.3-15.4q12.2 2.5 22.9 3.3 16.45 1.2 29.35-1.5l.9-.2 3.8-13.75m-8 33.6-1.2-.35 1.2.35m.35-6.05 3.85-13.8-3.85 13.8m-3.2 11.55-4.3 15.5 4.3-15.5m107.9 26.3v2.4l-1.05 2.75-11.5-3.5-45.05-13.25V5.7l57.6 18.35" transform="translate(0 192)"/><path fill-rule="evenodd" fill="#400402" d="m323.25 57.95.35.05-2.05 1.95q-.9 1-1.7 2.4l-.5.95-.35.5-.3.35-.55 1.4-.5.9-.85 1.55 1.6 3.2 4.8 3.2q-1.65 3.6-4.7 6.5l-4.65 4.4-4.75-10.1-.1.05.05-.15-4.4-9.4q1.4-2.25 3.4-3.7l1.1-.75q6.55-4.25 14.1-3.3m-44.05 3.5q3.35 2.1 6.4 5.3 11.65 12.15 8.55 27.95l-3.25 5.75.15 3.1v.8q-1.8 1.6-3.05 3.65l-.85.3-1.55.5-2.4 4v8.8q-1.8-.2-3.45 0l-.4-.6-.65.75q-1.15.2-2.2.65l-1.1.45q-2.1 1-3.95 2.65l-2.15 2.15-1.7 1.85.25-6.85.05-.1q1.05-1.9 1.6-4.1 1.1-4.2-.05-8.45l-.95-2.5.3-6.65.8-19.45-1.8-2.55q1.25-1.45 3-2.45l1.05-.55 1.55-.8q1.25-.6 2.5-.6-3.85-2.2-7.25-2.5-2.85.15-5.2.85 2.35-.7 5.2-.85 3.4.3 7.25 2.5-1.25 0-2.5.6l-1.55.8-1.05.55q-1.75 1-3 2.45l-.2.2-3.85 3.45-.85-3.25q-.85-2.6-2.3-5.35 1.45 2.75 2.3 5.35l.85 3.25-5.4 4.8-.15-4-.15-1.35q-.25-2.3-1.75-4.5 1.5 2.2 1.75 4.5l.15 1.35.15 4-.15 1.45q-.55 3.8-3.6 5.8l-1.95-3.6q-.1-8.8 3.65-13.5 1-1.35 2.35-2.35.9-.65 1.95-1.2 1.3-.7 2.85-1.1L255.1 61q1.45-1.45 3.3-2.55l4.6-.8q6.25-.65 11.85 1.6 2.25.85 4.35 2.2m-1.85 21.1q3.5-1.9 7.35-.95l4.45 4.85q1.45 4.3 1.8 8.6l-2.1 3-1.45 1.65-.2.15-1.8 1.4q-1.5.95-3.15 1.35l-1.2.25q-3.7.85-7.5.05-1.5-.1-3.15-1l-1.6-1.05 1.6 1.05q1.65.9 3.15 1 3.8.8 7.5-.05l1.2-.25q1.65-.4 3.15-1.35l1.8-1.4.2-.15 1.45-1.65 2.1-3q-.35-4.3-1.8-8.6l-4.45-4.85q-3.85-.95-7.35.95h-.05l-.15.1.2-.1m.2 11.05-2.2-.7q-.95-.3-1.3-1.3-.4-1-.5-1.95-.55-3.55 2.3-6.1l1.3-.9-1.3.9q-2.85 2.55-2.3 6.1.1.95.5 1.95.35 1 1.3 1.3l2.2.7.2.05-.2-.05m1.1-4.65q-.45-1.1.1-2l.15-.25 1.15-.8 1.45-.3q1.55 0 1.95 1.5.35 1.15.35 2.4v1q-2.1 3.05-6.05 3.15 3.95-.1 6.05-3.15v-1q0-1.25-.35-2.4-.4-1.5-1.95-1.5l-1.45.3-1.15.8-.15.25q-.55.9-.1 2m-2.75-14.5q4.15 2.45 8.8 7.15-4.65-4.7-8.8-7.15m1.85 19.2-.05.05.05-.05M316.8 68l-2.65 1.5-1.1.75q-2.4 1.7-4 4.85 1.6-3.15 4-4.85l1.1-.75 2.65-1.5m-45.35 57.5q-2.6-7.05.8-14.6 3.2-7 10.1-7.85 2.3-.3 5.05.1l1.45.25 2.2.15-2.2-.15-1.45-.25q-2.75-.4-5.05-.1-6.9.85-10.1 7.85-3.4 7.55-.8 14.6m10.8-22.9.1.45-.1-.45m4.9 5.7q-2.15.25-3.85.95-7.6 2.9-6.8 13.15-.8-10.25 6.8-13.15 1.7-.7 3.85-.95m3.8-13.25q.2 2.7-.05 5.4.25-2.7.05-5.4" transform="translate(0 192)"/><path fill-rule="evenodd" fill="#d7a057" d="m228.25-15.35.9-3.7 6.5 3 7.45 3.45-14.85-2.75m31.8 21.05-5 6.2-6.75-2.65 1.85-6.8 9.9 3.25m-18.3-3.8-3.4 9.8-5.65 1.05 5.45-11.9 3.6 1.05M235.9.2l-9.75 7.45-6.75-4.6 7.2-10.45 9.3 7.6" transform="translate(0 192)"/><path fill-rule="evenodd" fill="#b71a04" d="m277.35 82.55-.2.1.15-.1h.05m.2 11.05.2.05-.2-.05" transform="translate(0 192)"/><path fill-rule="evenodd" fill="#af997e" d="m.1-109.7-.1-.6.25.1-.15.5" transform="translate(0 192)"/><path fill-rule="evenodd" fill="#e7dfd3" d="M6.5-68.2q-1.4-2.05-.45-2.8l3.1-.3 17.65 5.5.25.05 33.9 10.6 33.9 10.6 19.6 6.15 36.8 11.5 11.4 3.55L211.4-8.1l-1.65 5.85-25.1-7.9-25.1-7.85-8.5-2.8-25.55-8.35-11.2-3.7-45.25-14.8L6.5-68.15v-.05L6.05-71l.45 2.8" transform="translate(0 192)"/><path fill-rule="evenodd" fill="#c4b3a2" d="m27.05-65.75-.25-.05.25.05" transform="translate(0 192)"/><path fill-rule="evenodd" fill="#8a8a7b" d="m223.85-12.75 3.55 1.1-1 4.1.2.15-7.2 10.45 4.45-15.8" transform="translate(0 192)"/><path fill-rule="evenodd" fill="#2f363e" d="m77.45-14.15.1.6-.5-.55.4-.05" transform="translate(0 192)"/><path stroke-width=".05" stroke-opacity=".302" stroke-linejoin="round" stroke-linecap="round" stroke="#000" fill="none" d="m.25 81.8 24.9 7.75m106.15 33.2 22.5 7.05 22.55 7.05-2.2 16.35 7.45-14.75 18.75 5.9m4.45 1.35 15.8 4.95 4.4-16 9.75 5.75-10.9 38.85 3.55 1.1.85-3.7.9-3.7 6.5 3q-.1-4.8.9-8.7 2.55-10.45 12.9-14.7l3.85-20.7 1.65-11.65.6-4.6-4.15.5q-9.15.9-15.1-.4-4.15-.95-6.75-2.9-1.25-1.6-1.15-3.2.85-1.25 2-1.7l.3-1.45q.55-2.7 1.35-5.15l.8-2.25 1.7-3.95q1.65-3.3 3.8-6.2 5.7-7.65 15.05-12.6 2.5-1.35 5.3-2.5l1-3.5 1.1-2.55-11.05-16.55v2.6l-5.4-3.45q-.05 2.35.2 4.85-2.9-6.65-3.6-13.3l-.05-.55-6.55 5.85 9.4-25.4 7.2-10.2v4.6l11-8 1.6-2.15 4.4-6.05L266 8.25l7.75-2.85 7-4.8v7.2q8.25 1.95 12.6 14l3.4 14.4h-2.4l-5.5 27.65 1.85 2.3q1.9.8 2.45 3l.95 1.2q2.25-5.95 5.85-11.15 4.4-2.65 14.25 1.2l4 1.7h.05l8.15.6q3.3.55 6.25 1.65l3.95 1.75.3.2q2.35 1.25 4.45 2.95l2.2 2 2.65 3q2.35 3.1 4.2 7l6.75 4.95.4 3-6.8 12-8.95 3.5 1.5 8.2 2.6 14.3 1.1 5.15-1.25 5.75v17.65l1.5.6 12.25-24.15h3.15l.15.9q1.25 11.05-1.3 22.6l-4.5 6.65-5 4.35q.15 5.25-.85 9.55 7.75-3.85 14.8-11.35l.7-.8q4.25 16.95-7 25-5.25 2.3-10.85 1.65l-2.3 9.45 3.35 1.2 4.85.45 14.35-2.45.05 3.3m-1.25 3.65q-3.05 6.5-18 8.3l-1.35-.3m-.3.25h-.65l-1.6 8.4-2.2 3.1-.2.45-4.25 9.55-7.3 5.3h-.05l-4.15.65-4.85.7.3 7.2.35.05m-17.45 34.4-.4-.95q-3.95-4.9-4.1-10.75-.2-7.25 1.6-12.05.55-1.65 1.4-2.95 1.4-2.25 3.4-3.7l1.1-.75-1-8.3h-18.5v-4l-5.5 4.25-4.85-.95-.1 9.2q3.35 2.1 6.4 5.3 11.65 12.15 8.55 27.95l-3.25 5.75.15 3.1v.8m-29.2 29.9-.15-6.05-.15-5.5-.15-6-3.1-10.95-1.25-4.35-.05-.25-1.35-4.7-1.05-1.9-1.95-3.6-3-5.5q-1.8-10.95 1.1-18.05 1.15-2.8 3.05-5l1.3-1.4q1.45-1.45 3.3-2.55l4.6-.8.25-8.55-4.6-.9-14.75-8.5 2.5-10.95 1.8-7.8-2.8-1.25v2.5h-12.7v-15.55l-6.05 12.05-9.85-6.3-7.65 27.2h-11l3.15-11.3-51.55-16.35-10.6-3.35v-5.8l-3.85 4.55-8.95-2.8v-9.15l-5.65 7.35-9.35-3-7.65-2.4m-23.3-7.4-10.35-3.3-18.8-5.95 2.5-19.9-8.8 17.9-7.35-2.35-2.05-7.95-6.15 5.35-17.35-5.5L6.5 123.8m-.45-2.8-.2-1.35L.1 82.3l-.1-.6.25.1m184.4 100.05 25.1 7.9 1.65-5.85-48.75-15.25-11.4-3.55-36.8-11.5-19.6-6.15-33.9-10.6-33.9-10.6-.25-.05-17.65-5.5-3.3-1.05m.2 1.35.45 2.8M266 8.25v1.95m-20.25 31.6 3.2.25m24.25 14.9 3.75 4.85-.55-5.25-.35-2.9-1.5-14.05m6.2-31.8v2.8M260.9 47.65q-4.9-4.2-10.5-5.35l-1.45-.25m-3.85 2.25.55-2.2.1-.3m34.2 8.2 1.7-3.9 1.7-3.9m-1.7 3.9 1 3.25m-9.45 7.6-9.05-11.75 2.2 8.4m18.6 24.3 2.3-1.3.7-.4V73l-1.2-1.75-.05-.05-10.3-14.65M266.05 74l3.3 3.4 5.4-.25V72.7l.65.95 2.35 3.35-2.3.15h-.7m1.3-23.5 7.35 9.45-5.4-15.4 4.75-13.7 3.8 11-2.4 7.8 4.7 11.05m-27.95-16.2 1.55 2.45m-16.35-4.35 1.8 2.7m8.1 8.25 1.95 2.9-1.3.05h-.05l-5.75-8.45h1.5l3.65 5.5m-9.9-10.95-1-1.45q-.65 2.9-.75 6.05m5.4.85-1.85-2.75m9.85 28.65.95-3.3m-3.05 8.65-1-1.35q-1.1-1-2.55-1l-.85.1-2.55.6q-.75.2-1.35.75l-2.3 2.35q-1.45 1.85-1.8 4.15-.1.8.65 1.25 1.05.65 2.35.3L248 89q1.35-.7 2.35-2.15 1.1-1.5.5-2.85l-1.45-.5-.2.05q-1.6.7-1.7 2.35m-9.15 3 .05.7q.45 1.8 2.05 3.05.45.35 1.05.45l3.3.75.45.05q1.9.15 3.4-.45l1.65-.85 1.6-.95q1.65-1 2.9-2.5l1.25-5.35-.4-1.35m.65.2 1.45-5.55m2.5 6.3.15-.65q1.3-5.65 2.9-11.2l-2.5-3.8m-.55 15.65-.45 2q-.85 4.1-1.55 8.2l-.55 3.35-.45 2.9-.2 1.45-.7 5.6-.35 3.5-.45 5.2m29.4-37.7-3 1.7-13 .7h-1.05l-1.2-2.9-.7-1.65-2.7-4.2m-7 11.1-.25 1.15m10-9.8.65 3.4h.95m1.3-.2.4.2h-1.7m46.05-15-3.5.6q-3.55.7-7.05 1.95l-.75 1-.65.95.55-.35 1.1-.55.3-.05 1.4-.45 1.8-.4 1.8-.1.25.05 1.65.15 1.55.5 1.3.75 1.2.95.95 1.15.65 1.2.15.4.25.9.1 1.35v.6l-.1.8-.4 1.3-.7 1.25-.9 1.05-1.05.9-1.25.6-1.25.55-1.45.05-1.35-.05q-.7-.2-1.3-.5-.65-.25-1.2-.6l-1.15-.95-1.1-1.4-.8-1.55.1-2q.15-.95.6-1.7l1.2-1.35q.8-.55 1.75-.75l1.8-.35h1.1l.75.2 1.35 1 .75 1.5v.2q.15 1-.35 1.85-.5.8-1.55 1l-1.8-.05q-.9-.25-1.2-1.1-.35-1.05.45-1.5l1.4-.05m12.75 1.45q-.45-4.3-3.65-7.45-2-2.05-4.5-2.95l4.5-.3m-16.45 4.8-1.05 1.7q-2.2 3.95-3.4 9.2.85 2.95 3.2 5.3 1.1 1.1 2.4 1.9m.05.05.1.05 1.9.9 2.25.6 2.15.2q5.2 0 8.85-3.7l1.5-1.75q2.2-3.1 2.2-7.1v-.2l-.05-1.25m6.6 4.3 2.35-.15q2.5 0 4.7.7 3.45 1.05 6.2 3.8 2.65 2.65 3.75 5.9.8 2.35.8 5.05 0 2.25-.55 4.3 4.6-4.4 6.55-10.75l-1.85-4.7m-59-.8v-.1m0 .1q-.8 4.55-.95 9.5v1.25m0 .1q-.05 4.8.6 10l.15 1.35.75 4.95 1.7.65.9.3 2.75.8q3.85 1 8.1 1.35 8.05.7 17.5-.9l6.35-1.35 2.45-.6 4.4-1.25 2.5-.8 3.2-1.1m-53.85-30.1q4.3-2.95 5.2-5.45m9.8 15.9-.05-.05m-5.6-7.2q-1.2 5-1.5 11.2l1.15-1.1q2.6-2.1 6.1-2.05h.1l1.8.15M294.1 70.35q-1.8 4.75-2.7 10m15.8 6.25q1.4.55 2.8 1.5 3.95 2.6 5.45 6.95m.1-.05-.2-2.6q0-5.2 3-9.2l1.5-1.75q3.7-3.65 8.6-4.35m-23.1 13.55-.15-.05q-4.05-1.6-9.5 3.65v.9l.2 4.7.75.55q.95-3.9 3.65-4.55 2.65-.7 5.95.7 3.3 1.35-.75 4.55l-.55.2q-1 .25-1.55 0-.95-.45-.75-2.45m2.7-8.2q4.05 1.7 5.3 5.7l.2.9q.4 2.15 0 4.05l-.2.8-1.35 2.9h4.45l.55-.65q1-1.45 1.5-3.05l.15-.8.15-1.7q0-1.6-.5-3.3l-.15-.45m21.35-10.1 1.15.45q4.75 2.3 5.25 6.75l.1 1.15.05 1.2q.1 2.75-.35 4.45l1.85-1.5.85-.75m-55-30.55q-.95 2.55-4 5.05m-46.15-31.95.35 2.1m-8.05 57.7q1.9-.25 3.9 0l1.8.6.75.35 1.65 1.3.65 1q1.1 2.05.9 4.05l-.45 1.5-.65 1.1q-1.1 1.7-2.85 2.7l2.95.3h1.35q3.9-3.05 3.85-8.35l-.3-2.3q-.75-2.85-3.35-4.85l-.25-.15q-3.8-2.75-8.25-1.2m-1.5 9.85 1.15-.35q3.45-.6 3.25 2.45-.4 2-2.95 1.8m-4.1-.95-.25 1.45.7.25q-.1-2.8 1.3-4.05m-1.3 4.05q3.95 1.45 7.7 2.05M211.4 183.9l1.55-5.7-49.3-15.4q12.2 2.5 22.9 3.3 16.45 1.2 29.35-1.5l.9-.2 3.8-13.75m-9.2 33.25 1.2.35m13.8.2 1-4.1m18.55.35-2.85-1.3-7.45-3.45m-9.25 8.5.2.15.05-.05-.25-.1m-9.6-20.05-3.85 13.8m102.7-82.7-.1-.45V95m2.75 6.55-.15-.25-.1-.15q-1.85-2.55-2.4-5.65m2.65 6.05 1.55 1.75 1.4 1.25 5.35-.65 4.95-.9q-3.7-.5-6.05-1.7-3.4-1.75-4.15-5.05-1.3-5.65 2.05-10.05 3.85-4.45 10.25-4.6m-30.2 56.2 3.85-.2 3.85-.15v-4.35l1.85-9 7.25-11.4 2.65-2.9m-9.15-4.8 7.5-.45m-24.6-4.15 6 4.3 6.65.3m-25.35 33.55-.1-2.85m-10.9 3.3 11-.45 12.95-.5m.8 0 5.7-.25h.05m-10.55-26.6v13.5h-9.5l.45 11m13.85 2.35h-.8m.4 0 .4-.05m13.45-.55h2.25v8.75h2.75l-2.75 8.5 12.25 27 1.6-5q2.4-5.4 4.7-9.45l3.5-5.35-.05-29.3v-4.15l-1-6.1-4.25-13-.9-.9m-53.35-11h7v13.75h10m-50.05.75q5.65-.15 8.45-2.1l1.2-8.55q.95-6.05 2.3-12.15M252 160.4l1.85.3.95.2 3 1.2-.15-3.65 1-3.75 1.5 1.7q1.6 2.1 3 4.9l.95 2.15 2.85-5.45 4.2-8.05v-4.5h7.25m-5.45-6.45-2.3.1-2.5.1 3 6.25m16 7.3 11.5 1.95h14.75m-42.75-15.6-5.5-9.4-6.5 25m5.45 8.75-5.5 12.1-1.85 4.1-.45.95-3.5 7.65 15.25 4.75 3.3-22.45 2.35-16.45m.55-3.6-.55 3.6m10.5 4.3.7-6.05-10.65-1.85-3.1-.55m13.05 8.45-.95 7.85-3.7 30.35 19.05 5.9 8.15 2.5 3.9 1.05m-8.2-14.4-2.95-28.7-.85-8.25m-54.5 6.25 3.4-.55.85-2.45 1.05-5.4m-1.9 7.85q2.35-.25 4.45 0m-3 3.4h-.4l-2.1.15m8.5 9.95 2.2.85.35-8.9q-3.65-2.05-8.25-2.05m-5.9.65 3.1-.5m11.3-1.85q1.65.85 3.1 2.1m-3.7 10.55 1.2.65.2.15m-1.05-9.7 2.1 1.4.5.45m-15.25 10.1 5.4.15q3.4.35 6.1 1.55l.35.15m-6-6.7-3.4-.2-1.85.05-2.6.15m3.05 7.75 3.2 1.5-1.9 4.35-1.6 3.65-19-5.65m20.6 2 5.55 1.7m3.6-8.75-.1 1.1m-5.55-7.65 4.25.95m-9.5-1.1 1-8.85m56.8-17.9-3.4-.05-15.25-.3m.25 6.65 2.25.4m19.75 32.1.75 6.1-4.75 5.5-.45-4.8m4.45-6.8-.45-3.6-3.3-26.55m10.25-8.5-10.1-.15M295.8 89l-.1 5.85M159.55 174l9.6 4.8q21.6 11.5 36.3 26.45l4.3-15.5m123.2-116.5-.4-.7-.4-1.8q-.15-1.2.35-2.35l.9-1.25q.35-.4.8-.65l1-.25 1.4-.15m6.95 5.15q-.15 1.4-.9 2.75-1.5 2.55-4.35 3.35l-2.8.2q-1.35-.2-2.65-.9-1.75-1.05-2.65-2.7l-.65-1.65q-.8-2.85.7-5.45.9-1.6 2.4-2.5m4.95 7.5q-1.05.4-2.1-.5l-.25-.25q-.25-.9.25-1.65l.7-.55q1.55-.25 2.65.65l.35.4.35.85v1.3l-.25.7-.75.85q-1.1.75-2.35.75-1.8.2-3.1-1m-.15-.15.15.15m4.55-2.95.3.95-.1.3-.1.05m-.15.1.15-.1m-.95 13.2q-4.15-1.15-8.05 4.05-4.5 5.95 4.95 8.4 5.15.5 3.45-6.2m-5.6 11.8 4.55-1.15 2.35-.75 2.8-1 1.75-1.15m-7.6 29.5 1.85 5.9-1.85-1.75m8.35-6.75 2.15 1.35m-.6 32.9 1.95-3.75m-11.8 5.55.65-.9 1.6-1.85q2.25-2.35 4.35-3.15l3.7-.25M327.1 197.5q.2-4.35 1.3-9 .8-3.25 2.05-6.7 2.5-7.95 7.45-15.75 3.7-4.95 7.4-5.95m-4.3 28.45q2.25.95 4.45 1.55l1 .25 2.35.4m-7.8-2.2v-.05h-3.65m6.75-9.55 1.9-.55 1.8-.65.55-7.9 3.65-3.15m-12.85 20.9q.8.45 1.65.8l.2.1.1-.25m6.7-10.5 1.95-.85 1.4-.65m-25.5 5.45q-1.2 4.05-1.85 7.95-1.4 7.9-.55 14.95.65 2.1 1.5 3.7l1 1.7q4.6 6.85 13.25 1.35 2.3 1.8 5 2.6l3.55.65m-18.95-7.95q-.75-1.35-1.3-3.1-.35-2.95-.2-6.05m8.9-4.15q5.2 3.35 6.6 4.45l1.8 1.3q1.5-4.6 2.05-8.75m21.2 14.8.15 1.05 1.3-3.5m-24.7-3.6 2.1 1.1m1.45 14.4.55-.25m-5.4-6.45h-.8l-.8-.05h-2.15m-.35 3.5-1.6-1.4q-4.65 2-7.55-1.4l-.5.25m-.75-2.15 1.25 1.9m4.45-2.5-.9-1.45m9.7 3.3 2.1-.05h-3.7m-7.2-1.8v.05q1.4 2.2 3.1 3.85m6.05 16.55.3-.4m-23.35 17.05 6.5-16.45 2.9-6m-9.45-28.15-1.95 1.65-7.5 4.25-4.15 6.55m10.9-1.3v14.75l-1.05 2.75-4 10.7-2.7 7.05 10.5 4.2 2.55-.4m9-1.35h.05m-14.35-33.5-7-1.85m-5.55 11.65 3.55 8.5 3.95 5.7m-7.5-14.2 11.5 3.5m-37.05-24.6-11.5-3.6m-19.75 8.25-1.9 6.8m12.6 2.75 1.05-6.35v-6.75l-9.9-3.25-1.85 6.8m-2.9-6.3v16.75l1-3.65m16.85 33.05 8 1.6 8.05 1.55m-31.1-31.3 9.7 4.25 1.1-6.4m8.8 60.05q1.25-1.45 3-2.45l1.05-.55 1.55-.8q1.25-.6 2.5-.6-3.85-2.2-7.25-2.5-2.85.15-5.2.85-1.55.4-2.85 1.1 1.45 2.75 2.3 5.35l.85 3.25q.45 2.4.35 4.65.3-2.75 1.55-5.2l.4-.75q.65-1.15 1.55-2.15l.2-.2m1 22 1.6 1.05q1.65.9 3.15 1 3.8.8 7.5-.05l1.2-.25q1.65-.4 3.15-1.35l1.8-1.4.2-.15 1.45-1.65 2.1-3q-.35-4.3-1.8-8.6l-4.45-4.85q-3.85-.95-7.35.95l-.2.1-1.3.9q-2.85 2.55-2.3 6.1.1.95.5 1.95.35 1 1.3 1.3l2.2.7m.2.05q3.95-.1 6.05-3.15v-1q0-1.25-.35-2.4-.4-1.5-1.95-1.5l-1.45.3-1.15.8-.15.25q-.55.9-.1 2M263 249.65q6.25-.65 11.85 1.6 2.25.85 4.35 2.2m-20.85 25.85-.15-4-.15-1.35q-.25-2.3-1.75-4.5-3.75 4.7-3.65 13.5m3.65-13.5q1-1.35 2.35-2.35.9-.65 1.95-1.2m-6 20.65q3.05-2 3.6-5.8l.15-1.45m26.35-5.7q-4.65-4.7-8.8-7.15m-7.1 26.4q-2.35-1.8-3.55-4.7-1.25-3-1.3-6.25m-.25 0q-1.55 7.1-3.85 8.65-2.3 1.55-2.85 2.6m6.95-12.75.15-1.25m-.15 1.4v-.15 1.5m0-1.35-.25 1.35m14.05 3.75-.2-.05m31.5-18.5q1.6-3.15 4-4.85l1.1-.75 2.65-1.5m6.45-10.05q-7.55-.95-14.1 3.3m-1-8.3 12.25-1.8m-14.65 40.3q.2-5.7 1.15-10 .75-3.6 2.1-6.2l.05-.15m-49-62.65 45.05 13.25m-66.95-24.85-2.25-.65-3.2 6.45m5.45-5.8 3.6 1.05 3.65 1.05m-26 .1-3.75 5.45m20.25-8.3-9.3-7.6-7.2 10.45 4.45-15.8m-7.05 25.15-2.65-1.7 1.5-2.2m-10.2 4.75-4.15 15.05m89.75 75.25-2.2-.15-1.45-.25q-2.75-.4-5.05-.1-6.9.85-10.1 7.85-3.4 7.55-.8 14.6m-2.95-18q-1.3-2.55-3.65-4.3-1.75-1.35-3.9-1.75l-3.9-.05m1.25 4.35 4.55 1.05 1.3 1.9 1.25 2.25 1 2.9q.45 1.75-.3 3.3-1.55 3.35-4.55 5.55m6.95-15.2.95 2.5q1.15 4.25.05 8.45-.55 2.2-1.6 4.1l-.05.1m11.9-1.05-.4-.6-.65.75m-2.2.65q-.8-10.25 6.8-13.15 1.7-.7 3.85-.95m-30.75 19.8-.15-.2m5.45.3q4-1.7 6.15-5.55m23.05-22.2q.25-2.7.05-5.4m29.4-94.5 3.45-2.9"/><path stroke-width=".05" stroke-opacity=".4" stroke-linejoin="round" stroke-linecap="round" stroke="#000" fill="none" d="M25.15 89.55 35.9 118l12.85-7.6L47.3 122h.05l13-9.6-1.6 13.55 1.85-1.2 8.65-5.85 1.55 11.25 8.35-14.55 3.7 18.75 9.5-8.75 3.3 11.7m.4-.2 10.3-5.5 2.35 11.85 6.45-18.25 4.35 18.55 11.8-21m69.05 21.6v8.45l4.45-7.1m57.65-95.6 4.5 7.3 1.4-.3m-2-3.5q-2.6-3.5-5.45-5.95"/><path stroke-width=".05" stroke-opacity=".302" stroke-linejoin="round" stroke-linecap="round" stroke="#000" fill="none" d="M296.9 138.05h.4"/><path stroke-width=".05" stroke-opacity=".302" stroke-linejoin="round" stroke-linecap="round" stroke="#a4e2f9" fill="none" d="m130.35 146.7 4.15 5.85"/><path fill-rule="evenodd" fill="#400402" d="m292.35 100.45-3.25-5.75q-3.1-15.8 8.55-27.95 3.05-3.2 6.4-5.3 2.1-1.35 4.35-2.2 5.6-2.25 11.85-1.6l4.6.8q1.85 1.1 3.35 2.55l-8.4 11.8-5.2-.85q-3.4.3-7.2 2.5h-.05q-4.15 2.45-8.8 7.15-2.15 2.15-4.45 4.85-1.45 4.3-1.75 8.6-.25 2.7 0 5.4-.25-2.7 0-5.4.3-4.3 1.75-8.6 2.3-2.7 4.45-4.85 4.65-4.7 8.8-7.15h.05q3.8-2.2 7.2-2.5l5.2.85q1.55.4 2.9 1.1l1.9 1.2 2.4 2.35q3.7 4.7 3.6 13.5l-1.95 3.6q-3.05-2-3.6-5.8l-.15-1.45-5.35-4.8q.25-1.6.85-3.25.8-2.6 2.3-5.35-1.5 2.75-2.3 5.35-.6 1.65-.85 3.25l-3.85-3.45-.2-.2h-.05l-1.8 2.55.85 19.45-1.65 1.05q-1.65.9-3.15 1-3.8.8-7.5-.05l-1.15-.25 1.15.25q3.7.85 7.5.05 1.5-.1 3.15-1l1.65-1.05.25 6.65q-.6 1.15-.95 2.5-1.15 4.25-.05 8.45.55 2.2 1.6 4.1l.05.1.3 6.85-1.75-1.85-2.15-2.15q-1.85-1.65-3.95-2.65l-1.1-.45-2.15-.65-.7-.75-.4.6q-1.65-.2-3.45 0v-8.8l-2.4-4-1.55-.5-.85-.3q-1.25-2.05-3.05-3.65l.05-.8.1-3.1m34.65-23q-1.55 2.2-1.8 4.5l-.15 1.35q-.3 2.1-.15 4-.15-1.9.15-4l.15-1.35q.25-2.3 1.8-4.5m-22.4 11.5q.45-1.1-.1-2l-.15-.25q-.5-.55-1.1-.8l-1.5-.3q-1.55 0-1.95 1.5-.35 1.15-.35 2.4v1q2.1 3.05 6.05 3.15-3.95-.1-6.05-3.15v-1q0-1.25.35-2.4.4-1.5 1.95-1.5l1.5.3q.6.25 1.1.8l.15.25q.55.9.1 2m-6.05-7.35q3.85-.95 7.4.95-3.55-1.9-7.4-.95m-6.2 13.45 2.05 3 1.5 1.65.15.15 1.8 1.4q1.5.95 3.15 1.35-1.65-.4-3.15-1.35l-1.8-1.4-.15-.15-1.5-1.65-2.05-3m15.05-20.6q1.2 0 2.45.6l1.55.8 1.05.55q1.75 1 3.05 2.45-1.3-1.45-3.05-2.45l-1.05-.55-1.55-.8q-1.25-.6-2.45-.6m-1.3 8.2-.15-.1.15.1 1.3.9q2.85 2.55 2.35 6.1l-.55 1.95q-.35 1-1.3 1.3l-2.2.7 2.2-.7q.95-.3 1.3-1.3l.55-1.95q.5-3.55-2.35-6.1l-1.3-.9m-.55 11 .15-.05-.2.05.05.05v-.05m-4.6 9.4.1-.45H301l-.05.45q6.85.85 10.05 7.85 3.4 7.55.8 14.6 2.6-7.05-.8-14.6-3.2-7-10.05-7.85-2.35-.3-5.1.1l-1.4.25-2.2.15 2.2-.15 1.4-.25q2.75-.4 5.1-.1m-4.85 5.25q2.15.25 3.9.95 7.55 2.9 6.75 13.15.8-10.25-6.75-13.15-1.75-.7-3.9-.95" transform="translate(0 192)"/><path fill-rule="evenodd" fill="#691003" d="m319.8 72.8 8.4-11.8 1.3 1.4q1.85 2.2 3 5 2.9 7.1 1.1 18.05l-3 5.5q.1-8.8-3.6-13.5l-2.4-2.35-1.9-1.2q-1.35-.7-2.9-1.1m8.85 21.75-1.05 1.9-1.3 4.7-.1.25-1.25 4.35-3.1 10.95-.15 6-.1 5.5-.15 6.05-.15-.1q-3.1-2.15-5.6-4.65l-.3-6.85-.05-.1q-1.05-1.9-1.6-4.1-1.1-4.2.05-8.45.35-1.35.95-2.5 1.3-2.55 3.65-4.3 1.75-1.35 3.9-1.75l3.9-.05-3.9.05q-2.15.4-3.9 1.75-2.35 1.75-3.65 4.3l-.25-6.65-.85-19.45 1.8-2.55h.05l.2.2q.85 1 1.5 2.15l.4.75q1.25 2.45 1.6 5.2l.1 1.25-.1-1.25q-.35-2.75-1.6-5.2l-.4-.75q-.65-1.15-1.5-2.15l3.85 3.45 5.35 4.8.15 1.45q.55 3.8 3.6 5.8m-9.3-4.65q-.1 3.25-1.35 6.25-1.2 2.9-3.5 4.7 2.3-1.8 3.5-4.7 1.25-3 1.35-6.25h.2l-.2-1.35-.05-.15v.15l.05 1.35m-.15-2.75q-.15-2.25.35-4.65-.5 2.4-.35 4.65m7.1 14q-.6-1.05-2.9-2.6t-3.85-8.65q1.55 7.1 3.85 8.65 2.3 1.55 2.9 2.6m-4.6 21.55q-3-2.2-4.55-5.55-.75-1.55-.3-3.3.35-1.45 1-2.9.55-1.2 1.25-2.25l1.3-1.9 4.55-1.05-4.55 1.05-1.3 1.9q-.7 1.05-1.25 2.25-.65 1.45-1 2.9-.45 1.75.3 3.3 1.55 3.35 4.55 5.55m-.1 5.5q-4.05-1.7-6.2-5.55 2.15 3.85 6.2 5.55" transform="translate(0 192)"/><path fill-rule="evenodd" fill="#8d1f03" d="m319.35 89.9-.05-1.35h.05l.2 1.35h-.2" transform="translate(0 192)"/><path fill-rule="evenodd" fill="#c33204" d="M319.3 88.55v-.15l.05.15h-.05m-13.75 5.1v.05l-.05-.05h.05m-4.5 8.95-.1.45.05-.45h.05" transform="translate(0 192)"/><path fill-rule="evenodd" fill="#b71a04" d="m305.95 82.55.15.1-.15-.1m-.25 11.05-.15.05h-.05l.2-.05" transform="translate(0 192)"/><path fill-rule="evenodd" fill="#333" d="m304.6 121.75-1.1-.15.4-.6.7.75" transform="translate(0 192)"/><path stroke-width=".05" stroke-opacity=".302" stroke-linejoin="round" stroke-linecap="round" stroke="#000" fill="none" d="M328.2 253q-1.5-1.45-3.35-2.55l-4.6-.8q-6.25-.65-11.85 1.6-2.25.85-4.35 2.2-3.35 2.1-6.4 5.3Q286 270.9 289.1 286.7l3.25 5.75q-.25-2.7 0-5.4.3-4.3 1.75-8.6 2.3-2.7 4.45-4.85 4.65-4.7 8.8-7.15h.05q3.8-2.2 7.2-2.5l5.2.85q1.55.4 2.9 1.1l1.9 1.2 2.4 2.35q3.7 4.7 3.6 13.5l-1.95 3.6-1.05 1.9-1.3 4.7-.1.25-1.25 4.35-3.1 10.95-.15 6-.1 5.5-.15 6.05M328.2 253l1.3 1.4q1.85 2.2 3 5 2.9 7.1 1.1 18.05l-3 5.5m-38.4 13.4.05-.8.1-3.1m30.35-26.55q-1.5 2.75-2.3 5.35-.6 1.65-.85 3.25-.5 2.4-.35 4.65-.35-2.75-1.6-5.2l-.4-.75q-.65-1.15-1.5-2.15l-.2-.2q-1.3-1.45-3.05-2.45l-1.05-.55-1.55-.8q-1.25-.6-2.45-.6m17.5 12.85q-.15-1.9.15-4l.15-1.35q.25-2.3 1.8-4.5m-7.7 10.95-.1-1.25m-4.7 13.7q2.3-1.8 3.5-4.7 1.25-3 1.35-6.25l-.05-1.35v-.15l.05.15.2 1.35q1.55 7.1 3.85 8.65 2.3 1.55 2.9 2.6m2.35-6.6q-3.05-2-3.6-5.8l-.15-1.45m.05 18.45-4.55 1.05-1.3 1.9q-.7 1.05-1.25 2.25-.65 1.45-1 2.9-.45 1.75.3 3.3 1.55 3.35 4.55 5.55m-6.95-15.2q1.3-2.55 3.65-4.3 1.75-1.35 3.9-1.75l3.9-.05m.65 26.7.15-.2m-26-25.3q-1.65-.4-3.15-1.35l-1.8-1.4-.15-.15-1.5-1.65-2.05-3m13.6-12.5q-3.55-1.9-7.4-.95m6.95 12.05q-3.95-.1-6.05-3.15v-1q0-1.25.35-2.4.4-1.5 1.95-1.5l1.5.3q.6.25 1.1.8l.15.25q.55.9.1 2m1.35-6.4.15.1 1.3.9q2.85 2.55 2.35 6.1l-.55 1.95q-.35 1-1.3 1.3l-2.2.7-.15.05h-.05m9 7.2-1.65 1.05q-1.65.9-3.15 1-3.8.8-7.5-.05l-1.15-.25H301m-.05.45q6.85.85 10.05 7.85 3.4 7.55.8 14.6m2.95-18q-.6 1.15-.95 2.5-1.15 4.25-.05 8.45.55 2.2 1.6 4.1l.05.1q2.15 3.85 6.2 5.55m-20.65-25.15q-2.35-.3-5.1.1l-1.4.25-2.2.15m12.35 18.2-.7-.75-.4.6m3.25.8q.8-10.25-6.75-13.15-1.75-.7-3.9-.95"/><path fill-rule="evenodd" fill="#2d0202" d="m307.95 156.65 2.25 1.45q9.7 7.15 6.8 18.95l-1.25 8.55q-11.25 7.35-30.05 2.15l-5.05-4.1 1.25-5-.7-.3 5.1-13 21.65-8.7" transform="translate(0 192)"/><path fill-rule="evenodd" fill="#400402" d="M275.3 200q12.4 3.25 23.35 3.4l4.6.1 8.5-5.3-1.25 8.55q-11.25 7.35-30.05 2.15l-3.1-2.5-2.05-6.4" transform="translate(0 192)"/><path fill-rule="evenodd" fill="#620404" d="M275.3 200q-.65-6.05 3.8-12.15-.45-.1 1.95-1.35l21.65-8.7 2.25 1.45q9.7 7.15 6.8 18.95l-8.5 5.3-4.6-.1q-10.95-.15-23.35-3.4" transform="translate(0 192)"/><path stroke-width=".05" stroke-opacity=".302" stroke-linejoin="round" stroke-linecap="round" stroke="#000" fill="none" d="M311.75 390.2q2.9-11.8-6.8-18.95l-2.25-1.45-21.65 8.7q-2.4 1.25-1.95 1.35-4.45 6.1-3.8 12.15 12.4 3.25 23.35 3.4l4.6.1 8.5-5.3-1.25 8.55q-11.25 7.35-30.05 2.15l-3.1-2.5-2.05-6.4"/><path fill-rule="evenodd" fill="#272727" d="m334.15 105.65-19.4 68.9-83.4 29.95-58.55-10.15-.15-.4 69.8-24.5-20.45-4.9-6.9-8.05 19-19.8 15.15-5.85 56.9-42.95-.45-.6 31.95-38.6-3.5 56.95m-21.1-8.35h4.35l8.05-5.85q.8-4.35-2.35-7.2l-1.3-.85-3.65-1.45q-8.2 4.2-5.7 13.85l.6 1.5" transform="translate(0 192)"/></g><path fill-rule="evenodd" fill-opacity="0" fill="#f0f" d="M100 40H0V0h100v40" id="a"/><use xlink:href="#a" width="100" height="40" id="c"/></defs><path fill="none" d="M-1-1h230v249H-1z"/><use x="148.716" y="220.722" xlink:href="#b" width="381" transform="translate(-192.55 -294)" height="381"/><use x="82.556" y="122.528" xlink:href="#c" width="100" transform="translate(-102.4 -208.7) scale(1.8014)" height="40"/><use x="244.72" y="363.209" xlink:href="#d" width="369.1" transform="translate(-146.35 -220.122) scale(.6077)" height="403.05"/></svg>