<svg width="202" height="278" xmlns="http://www.w3.org/2000/svg" xmlns:xlink="http://www.w3.org/1999/xlink"><defs><g id="b" stroke-opacity="0" stroke-linejoin="round" stroke-linecap="round" stroke="#f0f" fill="none"><path d="M187.95-293.5v380h-380v-380h380" transform="translate(192.55 294)"/><path d="m187.95-293.5-190 190 190 190m-380-380 190 190L-192 86.5M92.95-38.4H-97" transform="translate(192.55 294)"/></g><g id="d"><path fill-rule="evenodd" fill="#333546" d="M86.4-190.5q-9.15-2.55-14.5-5.45-3.15-1.75-5-3.6-2.2-6 1.45-13.95 2.75-6.2 9-13.6l4.65-3.5q-7.45 12-5.2 17.9 1.15 3.2 5.2 4.6l5.95 2 3 1-2.2 11.25v4l-2.35-.65m50.35-39.9.6.4-.3.15.25.4-.55-.95m33 22.2q1.35-5.2-3.3-14.4l-.85-1.55.8 1.15.15.2q6.35 9.4 8.9 19.5.8 3.05 1.2 6.25l-2.35 2.4-2.1 1-.7.3-3.85 1.4-3.65.9-2.5.45v-4.15h6.7l-4.3-8.8 5.85-4.65m-14.15 23.8-.1 2.1v.45l-.05.4-.3 5.2-3.8-.25-.05.05q-1.05.6-2.25.75-1.9.25-4.2-.8h.05q1.5-.35 2.8-1.15l.8-.65q1.3-1.2 2.25-3.15l.3-.75 1.5-11.45 1.5-.3v-.4l3.35-.75h1.8l-1.1 2.2q-2 4.3-2.45 8.35l-.05.15m49.85 358.05 6.75 7.35.25 10.7-3.85-12.1-3.15-5.95m7.7 20.25-4.3-.95-3.55-.95-1.5-3.95q2.95 1.3 5.65 3.1l3.7 2.75M59.3 210.05l-10.95 7.85 4.4-9.2h3.8l-9.7-12.15 2.15-2.7.25.2q3.85 3.45 8.25 8.45l2.9-5q.65 3.4.45 6.45-.25 3.25-1.55 6.1m-14.55 10.4-8.85 5.95-2-2.9 10.85-3.05m-23.35 7.1-8.75-3.35L0 214.9l22.9 8.6-1.5 4.05M54.3-7.8l-1.1-1.65 1.85-.75-6.75-10.05 2.2-1.1q2.6-1.45 4.8-3.2l.35-.3 1.55-1.4.35-.4 1.8 3 1.55 2.4.75 1.15 4.15 5.6 5.15-2.1 4.85-1.95 3.05-1.3.65 1.45-4.8 2.1-5.15 2.25-.15.1-5.8 2.4-7.45 3-1.85.75m16.2-73.4L24.75-66.45 21.7-60.8l-8.8-12.85 6.95-1.15 39.1-12.6 7.6-2.45 1.7 6.5 2.25 2.15m39.8-86.2-3.75-.4 2.15-4.55 1.7 2.45-.1 2.5m51.6 19.35.3-.95q.1-.6-.3-.7l-1.15.15-1-1.95.1-.05h3.95q2 1.1 1.6 3.2v1.45h-2.65l-.9-1.05.1-.1h-.05m-14.25 6.4.55 1.1-.3-1.25-.25.15m-21.1 7.9 4.65-.1 2.2-.2 2.15-.2 2.35-.6 2.3-.85.9-.4 2.45-1.4 2.7-2.3.3-.35.6-.7.25-1.3.2-.8 6.75-1.1.2-.05 3.95-.65 8.7 21-3.65 1.25-1.15-8.8-.8-1.65-11.05 1.1h-.4l-2.45-7.35-.8 1.05-.45.45-2.3 1.55-2.25 1.05-.9.35-2.85 1-1.7.45-2.85.25-1.4.1-5.55.15-5.55-.25-.5-.05-.5-.05-.6-.05-.7-.1-5.3-2.3-10-5.15-.85-1.7-1.65.4h-.05v-1.85l2.8-.85 3.55 4.85 13.5 5.65 4.1.45 1.65.05m25.5-.5 8.35-1.5v-1l-.2-1.55-.75-2.3-1.45-2.45-3.6.7h-.05l-4.55.9 2.25 7.2m-32.2 19.2 2.7-.15.85-.05 6.5-.2 5.55-.15h2.75l1.65-.05h2.5l.05.25-19.85 6.7-2.7-6.35m-21.8-38.5-2.1-.2-.25.5-1.7-1.2 1.05-2 1.95.95-.35.55 1.45.1.1.65-.15.65m-30.2 25.65 2.2-3.3-1.6-.75L69.9-133l3.95-.9 2.2-.4 12.2-1.25-6.1 10.45-2.65-.8-13.8 1.3 2.15-3.3m28.8-27.05h-.1l-.3.6.4-.6M115.6-97.8l-3.6-7.05 3-1.25 3 7.35-2.4.95m-10.5-13.65-5.1-4.4 11.25.4 1.9 4.65-8.05-.65M98.05-99.3h1.4l3.9 5.15 1.9 3.6-2.85.75-.55-2.35-3.8-7.15m-9.8 13.4-2.15-3.85-.6-1.95h1.8l2.75 5.3-1.8.5m21.8 50.3.9.2.4.1 3.9.7-5 2.6.45-2.3-.65-1.3M184.7-88l-.6 1.55-1.75-.7q1.2-.35 2.35-.85M59.85 171.3l-1.6 5.6-.95-3.5 2.55-2.1m147.1 30.5 3.55-1.5 5.05 12-8.6-10.5" transform="translate(.85 231.45)"/><path fill-rule="evenodd" fill="#282c37" d="m99.35-208.6 1.35-3.9 5.5-8.4 7.9-6.9 22.65-2.6.55.95 1.55 2.9 2.95 15.15-1.95 22 1.5 1.7-.55.5-2.15 1.9-5-3.6-9.55-3.5-5.85-2.1-1.75-.65-1.4-.5-.5 1.25q-6.6 16.45-15.55 29.8l-3.45-.65q-7.4-2.05-11.35-8.9H90l2.6-9.2 3.7-2.8 5.8-13.65q.9-4.7-2.75-8.8m60.55 49.3-12.9-4.4-.4.7 4.75-13.4v-.1l3.8.25-.5 8.05q1.25 6.55 5.25 8.9m-33.85 58.8 28.1-9.6 8.2 4.9.6 4q-.95 2.6-3 3.4l-7.75.45-5.55.25-4.15.2-2.8.1-1.05.05-5.7.2-5.15.15-.05-.15-1.7-3.95m38.65-13.15 5.85-2 11.8 28.5 1.75.7-2.9 7.3-2.6 1.7q-3.85 2.35-8.15 3.8l-5.15-2.1q1.3-1.65 2.35-4.15l.55-3.15.05-.3v-.1q.15-2.15-.35-5.45l-3.2-24.75m50 338.1-9.65 3.8q-13.7.9-27.45-5.25l-7-25.4q-2.3 2.35-4.45 5.15-5.5-8.45-4.1-19.6h3.35l1-2.45.45-4.45q-1.6-10.25-7.35-20.45l-3.9-6.3q-6.05-9-8.25-22.45.1-1.85.35-3.65.8-6.6 3.1-12.2l1.9-3.95 1.95-3.3 5.7 3.05q-2.4-3.85-3.75-8.35.9-4.4 2-7.7 2.3-7.15 5.45-9.6l3.8-1.85 3.8-1.85 1.8 11.75 12 5.25h1.9l-6.2 11.3h-.05v.05l3.9 5.65 2.75-1.4.85-.5 6.1 13.3v12.8l5.4 38.15-4.6-3.95 4.7 16.6 3.6 1.4 1.5 3.95 4.25 6.1.95 2.2-3.55 1.5 7.75 22.65M35.9 226.4l-6.3 4.25-8.2-3.1 1.5-4.05h11l2 2.9M22 192.2q-2.55-3.15-1.15-4.65l.15-.2.25-.2q1.45-1.1 5.45-1.2h.05q3.8-3.45 6.05-8.05 2.2-4.75 2.75-10.7l2.9-.1 3.75-23.15.5-28.95 7.05-11.75 1.55 3.15 1.9 2.6 3.05-4.5v-.05q1.45-4.75 1.3-10.1Q61 90.9 60.15 83.8L59 74.35l2.4-.1q8.35.15 17.65 7.45l1.8 3.35-7.55 4.75q-6.6 3.8-15.75 4.55 7.4 2.05 13 10.15l4.5 11.35q5.45 9.1-4.4 33.1-4.1 9.9-10.8 22.35l-2.55 2.1q-2.1-2.45-5.3-3.9l-7.1 21.05 4.1 3.3-2.15 2.7-10.1 10.65-16.95-1.85q-1.8-.4-3.3-1.35l5.5-11.8m90.85-376.85q3.55 4.05 7.55 6.3l1.2.6q3.8 1.8 8 2l3-3.1.15-.15 3.05-3.2q1.15-.8 2.1-.75l.65 1.55q.8 2.05 1.05 3.9.5 4.05-1.7 6.9l-4.95 18.2-7.85-2.25-5.3-1.55-9.4-13.7-1.7-2.45q2.6-5.9 4.15-12.3m13.75 52.7v.1q13.9.35 23.75 4.65 4.4 1.9 8 4.65l.35 1.65-10.9 3.7-28.7.5-3.7-1.5-.85-.35-1.65 1.55-14.9-.6-2.05-1.75q-.65-1.55-.85-3.1-.7-4.3 1.5-8.55h15.5l6.15-.55 1-.05.25-.05 1.1-.05h.2l4.55-.2 1.25-.05m-13.65 46.9 2.65-1.85v-10.9l2.4-.95 1.8 4.55 4.15 1.85 1.8.8 2.65-3.5 3.7-.15 1.3-.05.05.05q8.75.3 16 2.45l1.95.65q6.8 2.35 12.15 6.55.05 3.15-1 6.4-6.15 1.75-11.05 2.85l-8.05 1.55-1.65.2-1.1.05-3.45.3-3.85.1-3.7-.05-2.5-.1-19.15-1.1-3.6-.2-3.1-2.8-.05-.85 2.65-4.05-.75-3.25v-.05l7.1 3.3 2.65-1.8M79.5-18.4l-.65-1.45 31.2-15.75.65 1.3-.45 2.3L79.5-18.4" transform="translate(.85 231.45)"/><path fill-rule="evenodd" fill="#525770" d="m106.55-167.8-2.7 4.65-6.7 2.6q-8.15-2.15-13.6-9.05l.7-4.55q3.95 6.85 11.35 8.9l3.45.65q8.95-13.35 15.55-29.8l.5-1.25 1.4.5-.5.85-1.85 3.25-.45 2.65-.85 3.75q-1.55 6.4-4.15 12.3l-2.15 4.55m30.75-61.65-.25-.4.3-.15q12.1 8.3 15.65 19.15l.4 1.5.65 3 .15 1v.25l.2 3.7 1.35.65q3.75 2.15 1.65 5.65l-3.35.75-1.5.7-2.05.95-7.55 3.55-1.6 1.45-1.5-1.7q3-4.6 6.95-7.7.45-2.95.35-5.95l-.2-3q-.7-5.5-3.1-11.2l-1.9-4-3.1-5.3-1.55-2.9" transform="translate(.85 231.45)"/><path fill-rule="evenodd" fill="#6f7595" d="m161-206.25 8.75-1.95-5.85 4.65-.45-.9-2.45-1.8m4.6-17.9 1.15.9-.2.45-.15-.2-.8-1.15m-10.1 42.3v.4h-.05l.05-.4m26.45 53.1 14.3-4.5.65-.25q70.7-22.95 136.35-54.75-30.9 19.6-129.6 55.65l-5.7 2.1-21.5 7.7-11.3 4-37.05 12.85-1.5.5-1.15.4-1.15.45-1.75-4.1 19.85-6.7.8-.25h-3.35l-1.65.05h-2.75l-5.55.15-6.5.2-.85.05-2.7.15-.75-1.65 28.7-.5 10.9-3.7 4.85-1.6 3.65-1.25 2.2-.75 7.55-2.55 5-1.7m-27.8 18.65 7.1-2.4 1.1 7.3-8.2-4.9m-70 221.4v8.85q-.55 15.85-5.8 29.4l-.3.7-12.65 24.1q-1.45 1.95-2.3 4.15-2 4.8-1.45 10.9l1.85 6.9v13.85l-4.9 1.3.7-1.4q1.3-2.85 1.55-6.1.2-3.05-.45-6.45l-2.9 5q-4.4-5-8.25-8.45l-.25-.2-4.1-3.3L52 169.5q3.2 1.45 5.3 3.9l.95 3.5 1.6-5.6q6.7-12.45 10.8-22.35 9.85-24 4.4-33.1 3.9-1.2 7.1-4.4l2-.15m-35.8 106.6-3.6 2.55-10.85 3.05h-11L0 214.9l8.35-16.25 3.1-1.4.65 1.45 1.05 1.85q1.45 2.15 3.35 3.45 1.5.95 3.3 1.35l16.95 1.85 10.1-10.65 9.7 12.15h-3.8l-4.4 9.2m90.5-444.45 3.1 5.3 1.9 4q2.4 5.7 3.1 11.2l.2 3q.1 3-.35 5.95-3.95 3.1-6.95 7.7l1.95-22-2.95-15.15m12.45 50.1.05-.05v.1l-.05-.05m-1.15 44.6h.4l.6.05 2.9.15.65.05 2.1 1.6 1.55 7.45q-3.6-2.75-8-4.65-9.85-4.3-23.75-4.65v-.1h.05l7.15-.1h7.05l4.65.05 1.5.05 3.15.1m13.4 46.3q-5.35-4.2-12.15-6.55l-1.95-.65q-7.25-2.15-16-2.45l-.05-.05 5.15-.1h1.35l5.35-.05H151l9.3.25 1.05 1.4q2.05 4.05 2.2 8.2" transform="translate(.85 231.45)"/><path fill-rule="evenodd" fill="#7e869e" d="m137.35-230 18.25 11.75 2.9 10.2 1.05 3.7 1.8 6.4-2.15 2.85h-1.8q2.1-3.5-1.65-5.65l-1.35-.65-.2-3.7v-.25l-.15-1-.65-3-.4-1.5q-3.55-10.85-15.65-19.15m29.4 6.75q6 4.95 11.7 17.1l.25 3.15q-.15 3.3-2.05 5.95-.4-3.2-1.2-6.25-2.55-10.1-8.9-19.5l.2-.45m-11.25 41.8q.1 3.8 1.65 7.3l1.3 2.45.75 1.2 5.7 5-5 6.2q-4-2.35-5.25-8.9l.5-8.05.3-5.2h.05M146.6-163l-4.1 7.3-2.45.85-7.1 2.45 4.95-18.2q2.2-2.85 1.7-6.9-.25-1.85-1.05-3.9l-.65-1.55q.8.05 1.45.75l1.95 2 .8.85 2.75 2.85q2.3 1.05 4.2.8 1.2-.15 2.25-.75l.05.05-4.75 13.4m44.7 270.8q7.5 6.65 10.4 17.85l-2.65 12.9 6.4 35.1 3.15 5.95 3.85 12.1.7 2.2-3.7-2.75q-2.7-1.8-5.65-3.1l-3.6-1.4-4.7-16.6 4.6 3.95-5.4-38.15v-12.8l-6.1-13.3 2.7-1.95m17.55 85.15 6.45 8.35 9.05 14.1v5.25l-9.65 3.8-7.75-22.65 8.6 10.5-5.05-12-.95-2.2-4.25-6.1 3.55.95" transform="translate(.85 231.45)"/><path fill-rule="evenodd" fill="#ca9235" d="m194.75-26.3-2.85-4.4 1.3-1-2.4-2.65.65-.35.95-.55 9.35-8.2-12.65 6.15-.65.35-9.65-10.7-.15.2L172.8-53v-6.9q.2-.25.05-.55l.95-2.5q4.7-6.3 12.65-10.25l3.8-1.7q-1.2 7.9 3.8 14.05l-7.85 4.35-3.25 6.1 4.2-2.75 7.65-6.2q1.65 8.9 7.85 15.05l3.5-3.7q.35 5.3 5 7.95l1.45-.35q-2.2 8.95 4.9 15.05l-4.1.3q-7.15 1.2-12.2 7.7v3.1l-3.55-3.35q-.5-4.35-2.9-8.7m-3.3 73.15 9.3 15.3 5.85 6h-2.5l-11.45-6.95-6.85-4.85q3.15-3.9 5.65-9.5M224 49v-6.6l6.15 6.05 8.25 26.05q-3-7.45-8-13.7l-6.4-5.2V49" transform="translate(.85 231.45)"/><path fill-rule="evenodd" fill="#f2e6cd" d="m90.95-205.1-3-1 3.15-3.55h6.05v-2.45l2.2 3.5-6.5 1.35-1.9 2.15m67.55-2.95 2.5 1.8 2.45 1.8.45.9 4.3 8.8h-6.7.05l3.4-2.55q-1.3-3.05-3.7-5.5l-1.7-1.55-1.05-3.7m3 17.45v4.15l3.25 5.15-5.2-5.05q-.45-3.15.4-4.8.55-1.1 1.55-1.55v2.1m-3.5 2.45v6.2q-.85-1.25-.95-2.55-.15-1.8.95-3.65M198.85-71l3.1 5.8 7.7 13.5.9-.95L215-40.9l3.65-.55v2.6l7.85 14.6h-2.15l-6.85-1.1q-7.1-6.1-4.9-15.05l-1.45.35q-4.65-2.65-5-7.95l-3.5 3.7q-6.2-6.15-7.85-15.05l7.15-5.85-7.9 4.35q-5-6.15-3.8-14.05l2.65-.95 2.85-.9 3.1 5.75M195.5 8.2Q181-5.5 185.6-19.2v-9.2l5.2 7.2 3.95-5.1q2.4 4.35 2.9 8.7l3.55 3.35q.9 2.75 1.15 5.5.3 4.4-1.15 8.8-5.35 1.35-2.9 4.5-3.05 1.05-2.8 3.65m5.25 53.95 6.9 3.35 4.3-1.2-2.85 3.85h-2.5l-5.85-6M224 42.4V49l-13.6-21.65L224 42.4m14.4 32.1-8.25-26.05L243.2 61.2l5.2 14.4q-4.05 8-1.2 18.8l-4.8-4.4q-1.05-8.25-3.95-15.4l-.05-.1M95.95-119.35 98-117.6l2 1.75 5.1 4.4h-.05L100-114.4l-10.85-.8-2.3 2-9.25-5.95-.05.05-.05-.1-7.15-1.1-6.3-1.85 1.65-2.45 13.8-1.3 2.65.8-.75.3-11.05 4.5 13.5-3.65 1-.3 5.35 1.7 3.15.95 2.6 2.25" transform="translate(.85 231.45)"/><path fill-rule="evenodd" fill="#4e4532" d="M199.55 23.2q-3.1-3.2 0-8.1L206 9.4l-4.8-2.15V.05q1.45-4.4 1.15-8.8-.25-2.75-1.15-5.5v-3.1q5.05-6.5 12.2-7.7l10.1 9.15h2.75l-8.9 26.95-.05.05-8.45 5.05-9.3 7.05m-8.1-57.9-2.35-2.6 12.65-6.15-9.35 8.2-.95.55m-84.8-119.4v-.15l.55-.75q2.65-4.15 3.1-12.4l.1-2.5 9.4 13.7 5.3 1.55-2.25 1.9-16.2-1.35m88.15 94.75-7.65 6.2-4.2 2.75 3.25-6.1 7.85-4.35 7.9-4.35-7.15 5.85m20.5 48.7-6.9 2.55.45 3.15q.55 7.9-5.15 13.3 6.25-1.25 7.55-5.5.5-1.7.25-3.95v-6l3.8-3.55m-88.75-123.1.9-.55 1.8-1.25q1.8-1.35 3.4-2.85l2.9-3.2q3-3.75 5.05-8.4l3.3.25q1.25 1.3 1 2.8l2.5 4.8-.25 1.3-.6.7-.3.35-2.7 2.3-2.45 1.4-.9.4-2.3.85-2.35.6-2.15.2-2.2.2-4.65.1m-19.25-6.15-3.55-4.85-2.8.85v-1.85l1-4.25 1.3-1.1 2.05-1.85 16.15 1.35-5.25 4.35-.1.1-8.8 7.25" transform="translate(.85 231.45)"/><path fill-rule="evenodd" fill="#a2926f" d="m141.1-151.25 1.65.15 12.65 1.1 3.5.3 1.85.15 1.15-.15q.4.1.3.7l-.3.95-.1.05-2.4-.25-2.4-.25-13.1-1.25-3.3-.25q-2.05 4.65-5.05 8.4l-2.9 3.2q-1.6 1.5-3.4 2.85l-1.8 1.25-.9.55-1.65-.05-4.1-.45-13.5-5.65 8.8-7.25.1-.1 5.25-4.35-16.15-1.35-7.1-.6v-.65l-.1-.65 8.45.75h.1l16.2 1.35 18.25 1.5m83.25 127 6 8.55q.8 6.4-4.05 13.65l-2.65 14.3q-2.2 1.55-4.4.4l-1.9-1.55v-.05l8.9-26.95h-2.75l-10.1-9.15 4.1-.3 6.85 1.1M86.85-113.2l2.3-2 10.85.8 5.05 2.95h.05l5.05 2.95 1.85 3.65 3.6 7.05v10.9l-2.65 1.85q.1-3.1-.25-6l-.1-.8q-.55-3.65-1.85-6.95-3-7.7-9.95-13.85-9.6-1.75-20.8 4.05l6.85-4.6" transform="translate(.85 231.45)"/><path fill-rule="evenodd" fill="#7d7351" d="m140.05-154.85.2 1.75.85 1.85-18.25-1.5 2.25-1.9 7.85 2.25 7.1-2.45m79.2 167.5-6.1 6.75q-4.6-.45-8.85 1.2-2.4.95-4.75 2.6l9.3-7.05 8.45-5.05.05-.05v.05l1.9 1.55m-19.7 2.45-3.6-3.8-.45-3.1q-.25-2.6 2.8-3.65-2.45-3.15 2.9-4.5v7.2L206 9.4l-6.45 5.7M82.25-79.45l-2.95 2.9h-3.95l2.9-7 4 4.1 6-6.45 1.8-.5 1.05 2.1.45 4.25-2.85 2.55h-4.55l-1.9-1.95m-24.85-12-2-2.3 7.75-10.35-5.75 12.65m157.9 80.8-3.8 3.55v6q.25 2.25-.25 3.95-1.3 4.25-7.55 5.5 5.7-5.4 5.15-13.3l-.45-3.15 6.9-2.55m-68.75-172.4v.05l-.35.15.35-.2m1.15 5.4q-1.3.8-2.8 1.15h-.05l-2.75-2.85 5.6 1.7m-26.1-.1 11.15-1.25-.15.15-3 3.1q-4.2-.2-8-2m-37.75 53.8-13.5 3.65 11.05-4.5 2.45.85m28.15 19.1-1.85-3.65-5.05-2.95 8.05.65 1.85 4.7-3 1.25M95.65-79.4l7.55-7.1.75 3.25-2.65 4.05-5.65-.2" transform="translate(.85 231.45)"/><path fill-rule="evenodd" fill="#c9a77e" d="m86.4-190.5 2.35.65v-4l2.2-11.25 1.9-2.15 6.5-1.35q3.65 4.1 2.75 8.8l-5.8 13.65-3.7 2.8.55-1.95-5.05 2.3-7.9-1.55q3.6-1.25 6.2-5.95m73.15-13.85 1.7 1.55q2.4 2.45 3.7 5.5l-3.4 2.55h-.05l-2.3-.35 2.15-2.85-1.8-6.4" transform="translate(.85 231.45)"/><path fill-rule="evenodd" fill="#e1c291" d="m159.55-186.35-1.55-1.8q-1.1 1.85-.95 3.65.1 1.3.95 2.55l-2.4-2.45.05-.15q.45-4.05 2.45-8.35l1.1-2.2 2.3.35v2.05q-1 .45-1.55 1.55-.85 1.65-.4 4.8" transform="translate(.85 231.45)"/><path fill-rule="evenodd" fill="#27221b" d="m141.35-187.7 1.6-1.45 7.55-3.55-4.35 3.45q-2.7 1.5-4.65 4.15l-.05.1-.25.3-.4-2.5.55-.5m5.35-.2.95 1.55.05.85-.05.55q-.2 1.25-1.1 1.9l-.35.2-.55.2h-.35q-1.7-.25-1.6-2.15l.15-.75v-.05l2.85-2.3m-22.95 4.7q-3.25-2.05-1.65-5.05l.05-.1q1.9.3 4.3 1.8l2.1 1.75-.3.5q-1.1 1.25-4.5 1.1m.35-9.2 8.15 6.25v1.8l-14-10.15 5.85 2.1" transform="translate(.85 231.45)"/><path fill-rule="evenodd" fill="#a99a7a" d="m146.7-187.9 1.7-1 .8-.3 1-.1h.05l-.15 3.65-.1 1.4-3.45 1.25v-.05q.9-.65 1.1-1.9l.05-.55-.05-.85-.95-1.55m-24.55-.45-.05.1q-1.6 3 1.65 5.05l-5.45-2.7-.85-1.8q1.3-.8 3.15-.8l1.55.15m1.6 5.15q3.4.15 4.5-1.1l.3-.5 2.15 1.75v1.05l-6.95-1.2m20.1-2.4v.05l-.15.75q-.1 1.9 1.6 2.15h.15l-3-.2v-1.4l1.4-1.35" transform="translate(.85 231.45)"/><path fill-rule="evenodd" fill="#342d21" d="m150.5-192.7 2.05-.95-1.5 11.45-.3.75q-.95 1.95-2.25 3.15l-.8.65-5.6-1.7-.8-.85-1.95-4.1v2.1q-.65-.7-1.45-.75-.95-.05-2.1.75l-3.05 3.2-11.15 1.25-1.2-.6q-4-2.25-7.55-6.3l.85-3.75.45-2.65 1.85-3.25.5-.85 1.75.65 14 10.15v-1.8l-8.15-6.25 9.55 3.5 5 3.6 2.15-1.9.4 2.5.25-.3.05-.1q1.95-2.65 4.65-4.15l4.35-3.45m-1.3 3.5-.8.3-1.7 1-2.85 2.3-1.4 1.35v1.4l3 .2h.2l.55-.2.35-.15 3.45-1.25h.05l.05-1.4.15-3.65v-.05h-.05l-1 .15m-27.05.85-1.55-.15q-1.85 0-3.15.8l.85 1.8 5.45 2.7 6.95 1.2v-1.05l-2.15-1.75-2.1-1.75q-2.4-1.5-4.3-1.8" transform="translate(.85 231.45)"/><path fill-rule="evenodd" fill="#a59478" d="M139.35-182.2v-2.1l1.95 4.1-1.95-2" transform="translate(.85 231.45)"/><path fill-rule="evenodd" fill="#6b1e01" d="m150.15-152.4 9.45-3.45-2.5 1.75 1.8 4.4-3.5-.3-1.55-1.15-2.1-1-1.6-.25m20.4 36.75 2.5-.85q1.55 4.05 2.7 8.3 4 6.05 6.55 12.7 1.4 3.65 2.4 7.5-1.15.5-2.35.85l-11.8-28.5m-91.3-50.75 18.65 10.65.2.9-1.45-.1.35-.55-1.95-.95-1.05 2 1.7 1.2.25-.5 2.1.2-.05.1-.35 1.2-3.85 13.8q-12.5-2.3-23.9 2.45l-4.1 1.9-5.1 4.75q-5.45 2.65-9.85 6.6l-4.5-1.75q1.7-9.95 5.85-17.85l1.35-2.45q2.2-3.75 4.95-6.95 4.35-5.1 10.1-9 4.85-3.25 10.65-5.65M157-148.5l2.4.25 3 7.05.65 1.9.45 1.4 1.45 6 3.9 6.4.15.3.4.7-2.2.75-8.7-21-1.5-3.75M74.7-16.3l4.8-2.1L110.25-32l5-2.6 10.5 1.35.35.05h.05l.15.2h.15l1.5.9L114.8 6.2q-6 10.6-9.7 21.3-2.9 8-4.5 16.1-8.2 13.95-10.7 28.2-14.05-5.1-25.65-17.7-3.5-3.85-6.75-8.35l-1.9-2.65q3-14.35 6.95-27.3l.2-.75Q67.9-1.8 74.7-16.3m4.15-3.55-3.05 1.3q5.95-12.4 13.1-23.1 10.4 3.85 21.15 6.05l-31.2 15.75m80.55-15.5-.1-.4 2.55-.15-2.45.55" transform="translate(.85 231.45)"/><path fill-rule="evenodd" fill="#633721" d="m142.75-151.1-.25-.5 1.8-1.85 5.85 1.05 1.6.25 2.1 1 1.55 1.15-12.65-1.1m1.15 1.35 13.1 1.25 1.5 3.75-3.95.65-.2.05-6.75 1.1-.2.8-2.5-4.8q.25-1.5-1-2.8m5.9 8.3q1.25.75 1.9 2l.15.35q.75 1.9.2 4.85l-2.25-7.2" transform="translate(.85 231.45)"/><path fill-rule="evenodd" fill="#3a3e50" d="m161.25-112.5 3.45-1.15 3.2 24.75q.5 3.3.35 5.45v.1l-.05.3-.55 3.15q-1.05 2.5-2.35 4.15l-1.6 1.5-5.1.5-28.35 2.65h-.05l-8.9.85q-7.45.2-12.7-.1-8.05-.45-11.05-2.05l-8.35-1.4-2.85-.5-4.2-.75.1-4.4 1.9 1.95h4.55l2.85-2.55-.45-4.25 4.55 4.9v.05-.05l5.65.2.05.85 3.1 2.8 3.6.2 19.15 1.1 2.5.1 3.7.05 3.85-.1 3.45-.3 1.1-.05 1.65-.2 8.05-1.55q4.9-1.1 11.05-2.85 1.05-3.25 1-6.4-.15-4.15-2.2-8.2l-1.05-1.4-9.3-.25h-5.75l-5.35.05h-1.35l-5.15.1-1.3.05-3.7.15-.6-1.35 5.15-.15 5.7-.2 1.05-.05 2.8-.1 4.15-.2 5.55-.25 7.75-.45q2.05-.8 3-3.4l-.6-4-1.1-7.3m-17.1-23.65 2.3-1.55.45-.45.8-1.05 2.45 7.35-3.15-.1-1.5-.05-1.35-4.15m6.4 4.3 11.05-1.1.8 1.65 1.15 8.8-4.85 1.6-.35-1.65-1.55-7.45-2.1-1.6-.65-.05-2.9-.15-.6-.05" transform="translate(.85 231.45)"/><path fill-rule="evenodd" fill="#88532d" d="m183.65 58.7 1.5 4.9v13.7q-5.15-2.5-10.75-.75l-2.75 1.1-3.8 1.85-11.2 1.9q4.65-11.7 14.45-17.5 1.1-.7 2.3-1.25l-.1 1.9 2.8-.85q3.3-1.3 6.2-3.75l1.35-1.25m-76.7 25.75-4.05 8.7-6.2 7.15h-8.6l-3.2-2.6q-.7-3.95-2-7.75l5.9-1.35q13.1-3.7 22.2-12.85l-4.05 8.7M59 74.35q-.4-5.6.6-10.95.7-3.6 2-7.1l1.6 2.05-1.8 15.9-2.4.1m41.95-218.25v7.45l-7.15.85v-2.85l3.85-13.8 4.5-.3 1.1 1.45-1.3 1.1-1 4.25v1.85m48.85 2.45 4.55-.9h.05l3.6-.7 1.45 2.45.75 2.3.2 1.55v1l-8.35 1.5q.55-2.95-.2-4.85l-.15-.35q-.65-1.25-1.9-2M113.9 72.6l.35-.45.05.05-.4.4" transform="translate(.85 231.45)"/><path fill-rule="evenodd" fill="#666c8c" d="m101-142.05 1.65-.4.85 1.7 10 5.15 5.3 2.3-.55 1.75-6.15.55H96.6l-4-1.7 1.2-2.9 7.15-.85v-5.6h.05m25.65 9.25 5.55-.15 1.4-.1 2.85-.25 1.7-.45 2.85-1 .9-.35 2.25-1.05 1.35 4.15-4.65-.05h-7.05l-7.15.1v-.85" transform="translate(.85 231.45)"/><path fill-rule="evenodd" fill="#555775" d="m118.8-133.3.7.1.6.05.5.05.5.05 5.55.25v.85h-.05l-1.25.05-4.55.2h-.2l-1.1.05-.25.05-1 .05.55-1.75M96.6-131q-2.2 4.25-1.5 8.55.2 1.55.85 3.1l-2.6-2.25-3.15-.95-.25-3.9 2.65-6.25 4 1.7m1.4 13.4 14.9.6-1.65 1.55-11.25-.4-2-1.75m-2.35 38.2v.05-.05" transform="translate(.85 231.45)"/><path fill-rule="evenodd" fill="#78ab4e" d="m124.3-104.6 1.75 4.1 1.7 3.95-.25.15h-1.75q-4.15-11.1-10.35-21.8l3.7 1.5.75 1.65 2.7 6.35 1.75 4.1" transform="translate(.85 231.45)"/><path fill-rule="evenodd" fill="#7d2d01" d="m159.6-155.85 2.75-1.85 8.85 21.65v.05l5.75 8.95-7.55 2.55-.4-.7-.15-.3-3.9-6.4-1.45-6-.45-1.4-.65-1.9-3-7.05 2.4.25.05.05.9 1.05h2.65v-1.45q.4-2.1-1.6-3.2h-4.1.05v.05l1 1.95-1.85-.15-1.8-4.4 2.5-1.75m13.45 39.35 10.4-3.5-.45 1.65-.3.85 12.05 16.55q-2.55 8.3-8.05 11.85l-2 1.1q-1-3.85-2.4-7.5-2.55-6.65-6.55-12.7-1.15-4.25-2.7-8.3M191 44.25l.45 2.6q-2.5 5.6-5.65 9.5l-2.15 2.35-1.35 1.25q-2.9 2.45-6.2 3.75l-2.8.85.1-1.9q.6-.35 1.25-.6l1.45-2.6q6.05-3.35 10.8-9.15l.05-.05q2.15-2.7 4.05-6M61.6 56.3q-3.45-4.65-6.65-10l-3.2-5.65.55-2.65q0-8.15 2.75-16.3l.15-.5q1.75-5.1 4.6-10.2.5-4.2 1.6-8.2l.5-1.6.25-.8q1.45-4.4 3.7-8.5 1.6-2.95 3.6-5.75l.1-.2 5.15-2.25Q67.9-1.8 62.75 15.05l-.2.75Q58.6 28.75 55.6 43.1l1.9 2.65q3.25 4.5 6.75 8.35 11.6 12.6 25.65 17.7v8.05q-9.45-4.1-17.7-11.75l-2.8-2.7q-3.2-3.25-6.2-7.05l-1.6-2.05m9.35-72.9L84.9-42.05l-1.7-1.85 2.9 1.2 2.8 1.05q-7.15 10.7-13.1 23.1l-4.85 1.95M41.9-126.2l3.6-12.4q2-4.45 4.55-8.1 2.05-3.05 4.45-5.6 4.95-5.25 11.4-8.4 4.3-5.25 10.35-7.45l3 1.75q-5.8 2.4-10.65 5.65-5.75 3.9-10.1 9-2.75 3.2-4.95 6.95l-1.35 2.45q-4.15 7.9-5.85 17.85l-4.45-1.7" transform="translate(.85 231.45)"/><path fill-rule="evenodd" fill="#9b5613" d="m162.35-157.7 2.75-1.85q4.5 7 6.9 11.75l1.5 3.15.5 1.2 1.65 4.45.85 1.35 1.05 1.6 4.4 7.3-5 1.7-5.75-8.95v-.05l-8.85-21.65m21.1 37.7 3.1-1.05 1.65 2.45q4 5.85 7.95 10.85l-.05.4-1.15 5.6-.2.8-12.05-16.55.3-.85.45-1.65M169.3-41.8q10.15 23.35 16.95 54.7l.35 2.3q3.8 9.05 4.55 18.45.4 5.25-.15 10.6-1.9 3.3-4.05 6l-.05.05q-4.75 5.8-10.8 9.15.15-10-.3-20v-.1l-.4-6.7-.05-.3-.55-7.6q-.8-8.35-2-16.75l-.15-.95-10.8-42.95 7.45-.45v-5.45m-39.8 10.65-1.1 3.55-10.5 32.55-3.35 9-24.65 65.9V71.8q2.5-14.25 10.7-28.2 1.6-8.1 4.5-16.1 3.7-10.7 9.7-21.3l13.15-38.3 1.55.95" transform="translate(.85 231.45)"/><path fill-rule="evenodd" fill="#8289a2" d="M48.45 94.8q.05-15 7.9-20l2.65-.45 1.15 9.45q-6.7.15-8.55 11.05l-3.15-.05m-5.3-206.45q.55-2.05 1.45-4.1l-.05-.1-7.05-12.05 4.4 1.7 4.45 1.7 4.5 1.75q4.4-3.95 9.85-6.6 3.4-1.7 7.2-2.9l-.8 1.2 1.35-.9 1.6.75-2.2 3.3-3.2.5q-5.2 1.35-12 6.9l-5.9 5.25-3.6 3.6M158.6 90.95q-1.1 3.3-2 7.7 1.35 4.5 3.75 8.35l-5.7-3.05-1.4-.75-2.65-8.35 8-3.9m-70.35-226.5 1.1-.05h4.45l-1.2 2.9-2.65 6.25.25 3.9-5.35-1.7-1 .3-2.45-.85.75-.3 6.1-10.45" transform="translate(.85 231.45)"/><path fill-rule="evenodd" fill="#484d62" d="M172.8-56.65q-7.2-3.4-5.45-10.8l-2.05-8.3 5.15 2.1q4.3-1.45 8.15-3.8l2.6-1.7q3.5-2.5 6.65-5.75l5.05 9.05-2.65.95-3.8 1.7q-7.95 3.95-12.65 10.25l-.95 2.5-.05.15v3.65M13.15 200.55l2.85-.45 6-7.9-5.5 11.8q-1.9-1.3-3.35-3.45m8.1-13.4q4.35-3.7 7.5-9.35 2.5-4.55 4.2-10.4l2.6-.2 3.6-30.1q-3.35-10.55 0-21.95L48.5 97.7q.25 2.95 1.25 5.55L42.7 115l-.5 28.95-3.75 23.15-2.9.1q-.55 5.95-2.75 10.7-2.25 4.6-6.05 8.05h-.05q-4 .1-5.45 1.2m27.8-286.8L46.9-96.4h-3.2q-2.85-7.3-.55-15.25l3.6-3.6 5.9-5.25q6.8-5.55 12-6.9l3.2-.5-2.15 3.3-1.65 2.45-15 22.5" transform="translate(.85 231.45)"/><path fill-rule="evenodd" fill="#5f1301" d="m60.7-129.35 5.1-4.75 4.1-1.9q11.4-4.75 23.9-2.45v2.85h-4.45l-1.1.05-12.2 1.25-2.2.4-3.95.9-1.45 1.05-.55-.3q-3.8 1.2-7.2 2.9" transform="translate(.85 231.45)"/><path fill-rule="evenodd" fill="#986c41" d="m58.95-87.4-2.25-2.55.7-1.5 5.75-12.65-7.75 10.35-.95 1.25-.2.1q-3 .85-5.2-7.25l15-22.5 6.3 1.85 7.15 1.1.05.1.05-.05 9.25 5.95-6.85 4.6-7.4 4.95-5.15 5.3-1.65 3.55v2.2l.75 2.75-7.6 2.45" transform="translate(.85 231.45)"/><path fill-rule="evenodd" fill="#313d23" d="m112.9-117 1.65-1.55.85.35q6.2 10.7 10.35 21.8l-1.8 4.05-4.15-1.85-1.8-4.55-3-7.35-1.85-4.7-1.9-4.65 1.65-1.55" transform="translate(.85 231.45)"/><path fill-rule="evenodd" fill="#3e3528" d="M75.35-76.55 70.6-81.1l1.2-.35-1.3.25-2.25-2.15-1.7-6.5-.75-2.75v-2.2l1.65-3.55 5.15-5.3 7.4-4.95q11.2-5.8 20.8-4.05 6.95 6.15 9.95 13.85 1.3 3.3 1.85 6.95l.1.8q.35 2.9.25 6l-2.65 1.8-7.1-3.3v.05l-7.55 7.1-4.55-4.9-1.05-2.1-2.75-5.3h-1.8l.6 1.95 2.15 3.85-6 6.45-4-4.1-2.9 7m22.7-22.75 3.8 7.15.55 2.35 2.85-.75-1.9-3.6-3.9-5.15h-1.4" transform="translate(.85 231.45)"/><path fill-rule="evenodd" fill="#621111" d="m89.2-73.8 8.35 1.4q3 1.6 11.05 2.05 5.25.3 12.7.1l8.9-.85h.05l28.35-2.65-4.65 2.6-.1.05q-10.55 5.6-22.1 9.65-13.25 4.65-27.85 7.25l-15.4-4.7.7-14.9m39.2 46.2 1.1-3.55L156.85-34l1.25-1.7 1.2-.05.1.4 5.95 26.95 3.35 13.1 1.25 5.9q2.05 10.85 3 21.9l.5 6.95-7.6 2.05q-1.25-11.65-5.35-22.75-1.6-4.3-3.55-8.45-7.75-16.15-21.7-31.05l-6.85-6.85" transform="translate(.85 231.45)"/><path fill-rule="evenodd" fill="#991818" d="m85.75-59.75.6-14.55 2.85.5-.7 14.9-2.75-.85m68.1-11.35.1-.05-.1.05m6.65 89.85q4.1 11.1 5.35 22.75l-.65.15-1.3.35-3.4-23.25" transform="translate(.85 231.45)"/><path fill-rule="evenodd" fill="#fdf4ca" d="M61.4 2.8 54.3-7.8l1.85-.75 6 8.95-.25.8-.5 1.6M46.45-19.5l-5.35-8 1.6-1.15 5.6 8.4-.3.1-1.55.65M32.2-28.1l3.1-3.4 4-3.55q6.2-4.75 14.35-7.3l2.3 2-3.2 4.35 1.6 3.35q1.3 2.7 2.75 5.3l.2.3.25.4-.35.4-1.55 1.4-.35.3-5.8-9.05 3.25-2.4q1.9-9.2-12.9 1.85L35.9-31.1l-3.7 3m120.5 135.35-1.9 3.95-36.5-39 3.25-3.6 35.15 38.65M69.4-13.95l.05.1q-2 2.8-3.6 5.75l-2.25-3.45 5.8-2.4" transform="translate(.85 231.45)"/><path fill-rule="evenodd" fill="#d3a230" d="m147.7 123.4-40.75-38.95 4.05-8.7 2.9-3.15.4-.4 36.5 39q-2.3 5.6-3.1 12.2M41.1-27.5 34.3-26l-2.1-2.1 3.7-3 3.95-3.05Q54.65-45.2 52.75-36l-3.25 2.4 5.8 9.05q-2.2 1.75-4.8 3.2l-2.2 1.1-5.6-8.4-1.6 1.15M65.85-8.1Q63.6-4 62.15.4l-6-8.95 7.45-3 2.25 3.45" transform="translate(.85 231.45)"/><path fill-rule="evenodd" fill="#575c77" d="M53.2-9.45 46.45-19.5l1.55-.65.3-.1 6.75 10.05-1.85.75" transform="translate(.85 231.45)"/><path fill-rule="evenodd" fill="#402415" d="m83.2-58.1 2.55-1.65 2.75.85 15.4 4.7 14.55 2-13.7.45q-9.35-1.1-18.2-4.85l-3.35-1.5m57.35 12.3h.3l1.05.35.3.35.3.8q0 .65-.6 1l-.35.3-1 .2-1.05-.2-.4-.3q-.15-.1-.2-.15-.3-.35-.3-.85l.05-.35q.05-.45.45-.8l1.45-.35" transform="translate(.85 231.45)"/><path fill-rule="evenodd" fill="#663d21" d="M163.1-56.65h.05l3.5-.45 1.6 9.85h1.05v10.9l-7.45.45-2.55.15-1.2.05 1.15-1.6-.8-7.45 2.8-.3q1.9-1.15.25-2.6l-.25-.2-3.05.35h-.05l-.6-5.9-2.6-2.3 8.15-.95M83.2-43.9v-14.2l3.35 1.5-.45 13.9-2.9-1.2" transform="translate(.85 231.45)"/><path fill-rule="evenodd" fill="#402115" d="m88.9-41.65-2.8-1.05.45-13.9q8.85 3.75 18.2 4.85l13.7-.45 6.75-.2-.75 1.65 1.3 17.35v.15l-10.5-1.35-3.9-.7-.4-.1-.9-.2Q99.3-37.8 88.9-41.65" transform="translate(.85 231.45)"/><path fill-rule="evenodd" fill="#69708f" d="m186.7-89.1 1.2.65-.05 3.55q-3.15 3.25-6.65 5.75l2.9-7.3.6-1.55 2-1.1" transform="translate(.85 231.45)"/><path fill-rule="evenodd" fill="#c45328" d="m163.7-74.25 1.15 6.65-1.75 10.95-8.15.95h-.05l-1.15-1L126-54.1l-.8 1.7-6.75.2-14.55-2q14.6-2.6 27.85-7.25 11.55-4.05 22.1-9.65l.1-.05 4.65-2.6 5.1-.5M128.4-27.6l6.85 6.85q13.95 14.9 21.7 31.05 1.95 4.15 3.55 8.45L163.9 42l-.7.2-3.75.85-7.15 1.55-12.15 2.05L115.8 49l-1.25-35.05 3.35-9 10.5-32.55" transform="translate(.85 231.45)"/><path fill-rule="evenodd" fill="#c4c9d9" d="m187.9-88.45 3.75 2.6 2.85 2.7q3.25 3.5 5.75 8.3l-1.4 3.85-3.1-5.75-2.85.9-5.05-9.05.05-3.55M181.1 106v-.05h.05l6.2-11.3h-1.9l-12-5.25q1.6-1.65 3.65-2.55 1.85-.85 4.1-1.05 5.8.2 10 7.65 1.25 6.1-3.3 9.6l-1.75 1.15h-.05l-.4.25q-1.85.95-3.6 1.35l-.95.15-.05.05M60.15 83.8q.85 7.1-2.6 10.55 9.15-.75 15.75-4.55 2.55 10.4-2.75 14.7-5.6-8.1-13-10.15.15 5.35-1.3 10.1v.05q-3.05-2.15-4.1-5.55-.55-1.85-.55-4.1 1.85-10.9 8.55-11.05" transform="translate(.85 231.45)"/><path fill-rule="evenodd" fill="#3c5b28" d="m128.4-95.05-2.65 3.5-1.8-.8 1.8-4.05h2.05l.6 1.35" transform="translate(.85 231.45)"/><path fill-rule="evenodd" fill="#394151" d="m125.75-33.4-1.3-17.35.75-1.65.8-1.7 27.75-2.6 1.15 1h.05l2.6 2.3.6 5.9h.05l3.05-.35.25.2q1.65 1.45-.25 2.6l-2.8.3.8 7.45-1.15 1.6-1.25 1.7-27.35 2.85-1.55-.95-1.5-.9-.05-.05v-.15h-.25l-.4-.2m24.55-19.2-18.45 1.8-1.1 2.15v.05l.9 11.55.3.1 2.25 1.35 18.2-1.85 1.55-2.2-.45-4.6-4 .4q-1.2-1.15-1.05-2.05l.2-.6 4.55-.45-.4-3.4-2.5-2.25" transform="translate(.85 231.45)"/><path fill-rule="evenodd" fill="#4d2b1a" d="m150.3-52.6 2.5 2.25.4 3.4-4.55.45-.2.6q-.15.9 1.05 2.05l4-.4.45 4.6-1.55 2.2-18.2 1.85-2.25-1.35-.3-.1-.9-11.55v-.05l1.1-2.15 18.45-1.8m-9.75 6.8-1.45.35q-.4.35-.45.8l-.05.35q0 .5.3.85.05.05.2.15l.4.3 1.05.2 1-.2.35-.3q.6-.35.6-1l-.3-.8-.3-.35-1.05-.35h-.3" transform="translate(.85 231.45)"/><path fill-rule="evenodd" fill="#430c0c" d="m173.45 39.45-.5-6.95q-.95-11.05-3-21.9l-1.25-5.9-3.35-13.1-5.95-26.95 2.45-.55 10.8 42.95.15.95q1.2 8.4 2 16.75l.55 7.6.05.3.4 6.7v.1q.45 10 .3 20l-1.45 2.6q-.65.25-1.25.6l.25-5.65q.25-8.85-.2-17.55" transform="translate(.85 231.45)"/><path fill-rule="evenodd" fill="#ed9c16" d="m115.8 49 24.35-2.35 12.15-2.05 7.15-1.55 3.75-.85.7-.2 1.3-.35.65-.15.3 3.75q.45 6.9-.1 14l-10 2.55L142 64.4l-2.4.35-6.75.75-13.2.8-3.2.05L115.8 49" transform="translate(.85 231.45)"/><path fill-rule="evenodd" fill="#3c1e13" d="m167.85 79.5-3.8 1.85q-3.15 2.45-5.45 9.6l-8 3.9q-9.6-2.45-9.05-11.2L137 74.8l-4.15-9.3 6.75-.75 2.4-.35 14.05-2.6 10-2.55 3.55-1 4.05-1.25-.25 5.65q-1.2.55-2.3 1.25-9.8 5.8-14.45 17.5l11.2-1.9m-77.95.35 24.65-65.9L115.8 49l.65 17.35 3.2-.05-2.1 2.3-3.25 3.6-.05-.05-.35.45-2.9 3.15q-9.1 9.15-22.2 12.85l-5.9 1.35-2.05-4.9-1.8-3.35q-9.3-7.3-17.65-7.45l1.8-15.9q3 3.8 6.2 7.05l2.8 2.7q8.25 7.65 17.7 11.75" transform="translate(.85 231.45)"/><path fill-rule="evenodd" fill="#be7010" d="m165.85 41.5 7.6-2.05q.45 8.7.2 17.55l-4.05 1.25-3.55 1q.55-7.1.1-14l-.3-3.75" transform="translate(.85 231.45)"/><path fill-rule="evenodd" fill="#9ea9c0" d="M185.15 77.3q3.1 1.45 6.05 4.45 6.9 10.65 5.25 20.5-2.3 3.15-5.15 5.55l-2.7 1.95-.85.5-2.75 1.4-3.9-5.65.05-.05.95-.15q1.75-.4 3.6-1.35l.4-.25h.05l1.75-1.15q4.55-3.5 3.3-9.6-4.2-7.45-10-7.65-2.25.2-4.1 1.05-2.05.9-3.65 2.55l-1.8-11.75 2.75-1.1q5.6-1.75 10.75.75m-94.2 23-4.3 10.8-2.5.2-2 .15q-3.2 3.2-7.1 4.4l-4.5-11.35q5.3-4.3 2.75-14.7l7.55-4.75 2.05 4.9q1.3 3.8 2 7.75l3.2 2.6h2.85M48.5 97.7l-.05-2.9 3.15.05q0 2.25.55 4.1 1.05 3.4 4.1 5.55L53.2 109l-1.9-2.6-1.55-3.15q-1-2.6-1.25-5.55" transform="translate(.85 231.45)"/><path fill-rule="evenodd" fill="#f4c115" d="m113.9 72.6.4-.4-.4.4" transform="translate(.85 231.45)"/><path stroke-width=".5" stroke-opacity=".78" stroke-linejoin="round" stroke-linecap="round" stroke="#000" fill="none" d="M69.2 17.95q-3.65 7.95-1.45 13.95 1.85 1.85 5 3.6 5.35 2.9 14.5 5.45l2.35.65v-4l2.2-11.25-3-1-5.95-2q-4.05-1.4-5.2-4.6-2.25-5.9 5.2-17.9l-4.65 3.5q-6.25 7.4-9 13.6m46.05 10.1 6.45 2.2q10.35 4.1 19 11.8l1.95-22L139.7 4.9l-2.1-3.85-22.65 2.6-7.9 6.9-5.5 8.4-1.35 3.9q3.65 4.1 2.75 8.8l-5.8 13.65-3.7 2.8-2.6 9.2H85.1q3.95 6.85 11.35 8.9l3.45.65q8.95-13.35 15.55-29.8l.5-1.25-4.35-1.6m26-33.15 18.85 12.15 2.9 10.2 2.5 1.8 8.75-1.95q1.35-5.2-3.3-14.4l-.85-1.55 1.15.9q6 4.95 11.7 17.1l.25 3.15q-.15 3.3-2.05 5.95l-2.35 2.4-2.1 1-.7.3-3.85 1.4-3.65.9-2.5.45V45l3.25 5.15-5.2-5.05-1.55-1.8v6.2l-2.4-2.45-.1 2.1m0 .45v.4q.1 3.8 1.65 7.3l1.3 2.45.75 1.2 5.7 5-5 6.2-12.9-4.4-4.5 8-2.45.85.2 1.75.85 1.85 1 .1.4-.45 1.8-1.85 5.85 1.05 9.45-3.45 5.5-3.7q4.5 7 6.9 11.75l1.5 3.15.5 1.2 1.65 4.45.85 1.35 1.05 1.6 4.4 7.3 14.3-4.5.65-.25Q268.45 75 334.1 43.2l1.25 4.6Q271.75 81 201.7 105.5l-10.1 3.45-4.2 1.45 1.65 2.45q4 5.85 7.95 10.85l-.05.4-1.15 5.6-.2.8q-2.55 8.3-8.05 11.85l1.2.65 3.75 2.6 2.85 2.7q3.25 3.5 5.75 8.3l-1.4 3.85 3.1 5.8 7.7 13.5.9-.95 4.45 11.75 3.65-.55v2.6l7.85 14.6h-2.15l6 8.55q.8 6.4-4.05 13.65l-2.65 14.3q-2.2 1.55-4.4.4l-6.1 6.75q-4.6-.45-8.85 1.2l6.1 6.75 13.6 15.05 19.2 18.8 5.2 14.4q-4.05 8-1.2 18.8l-4.8-4.4q-1.05-8.25-3.95-15.4m-.05-.1q-3-7.45-8-13.7l-6.4-5.2v-6.6l-13.6-21.65m.15-77.5-.9-1.55-7 7.4-.9.85-9.35 8.2-.95.55-.65.35 2.4 2.65q3.45-2.55 7.35-4.45 2.05-1.05 4.25-1.9l1.8-.65 4.55-1.35 1.45-.35 2.4-.5m-21.35 9.7-.45-.5-1.3 1 2.85 4.4q2.4 4.35 2.9 8.7l3.55 3.35v-3.1q5.05-6.5 12.2-7.7l4.1-.3 6.85 1.1M219 221v9.8l-6.9 3.5q-1.3 4.25-7.55 5.5l2.3 1.05-6.45 5.7q-3.1 4.9 0 8.1 2.35-1.65 4.75-2.6m11-31.25-3.8 3.55 6.65 1.55m-6.9 8.4q.5-1.7.25-3.95v-6m-10.3-7.15q.9 2.75 1.15 5.5.3 4.4-1.15 8.8v7.2l2.5 1.1m12.1.8 1.5 1.95h.05l1.9 1.55m4.75 36.35v-6.6m-12.05 21.9-4.3 1.2-6.9-3.35-9.3-15.3q-2.5 5.6-5.65 9.5l6.85 4.85 11.45 6.95h5l2.85-3.85m-26.15-7.95-2.15 2.35 1.5 4.9v13.7q3.1 1.45 6.05 4.45 6.9 10.65 5.25 20.5-2.3 3.15-5.15 5.55 7.5 6.65 10.4 17.85L199.9 370l6.4 35.1 6.75 7.35.25 10.7.7 2.2-4.3-.95 6.45 8.35 9.05 14.1v5.25l-19.3 7.6q-13.7.9-27.45-5.25l-7-25.4q-2.3 2.35-4.45 5.15-5.5-8.45-4.1-19.6h3.35l1-2.45.05-.15q2.1-4.3 6.45-7.4-2.15-8.65-6.1-16.8l-1.7-3.3q-7.4-6.7-4.25-23.85l3.6-10.7m2.4 57.75q-1.6-10.25-7.35-20.45l-3.9-6.3q-6.05-9-8.25-22.45.1-1.85.35-3.65L107.8 315.9l-4.05 8.7-6.2 7.15H91.8l-4.3 10.8-2.5.2v8.85q-.55 15.85-5.8 29.4l-.3.7-12.65 24.1q-1.45 1.95-2.3 4.15-2 4.8-1.45 10.9l1.85 6.9v13.85m-4.9 1.3-.85 1.3m126.25-92.6 4 8.05q4.9 10.25 4.6 12.25v28.35q1.45.5 2.9 1.25l4.6 3.95 5.85 4.1 2.65 1.5-3.15-5.95.55 3.05m-45-382.95 2.45 1.8 4.75 9.7h-6.7v4.15m-3-17.45 2.85 10.1-2.15 2.85-1.1 2.2q-2 4.3-2.45 8.35l-.05.15m-15.75-5q3-4.6 6.95-7.7l4-2.6 3.6-1.7m-2.4 12 .55-4.25-2.05.95L147 42.2q-2.9 1.6-4.95 4.55l-.4-2.5-2.15 1.9-5-3.6-9.55-3.5 8.15 6.25v1.8l-14-10.15-1.75-.65-.5.85L115 40.4l-1.3 6.4q3.55 4.05 7.55 6.3l1.2.6q3.8 1.8 8 2l3-3.1.15-.15 3.05-3.2q1.15-.8 2.1-.75.8.05 1.45.75l5.55 5.7q1.5-.35 2.8-1.15l.8-.65q1.3-1.2 2.25-3.15l.3-.75.95-7.2-1 .05-.75.05h-.05l-1 .1-.8.3-1.7 1-2.85 2.3-1.4 1.35m-1.65-2.95 2.15-1.95 7.55-3.55m2.05-.95 1.5-.3v-.4l-1.5.7m1.5-.7 1.55-.75h3.6m-41.75 7.4q1.3-.8 3.15-.8l1.55.15q1.9.3 4.3 1.8l4.25 3.5M119.1 36.95l5.85 2.1m26.95 10.2 2.65 6.65-.25.55-.1.15-6.35 11.15m12.9 4.4q-4-2.35-5.25-8.9l-.15-.95-.1-.65-.35-24.15M151 79.05l1.6.25 2.1 1 1.55 1.15 1 .1-1.2-2.9 1.9-1.3 2.5-1.75m-17.5 4.7.65.05-.25-.5m-1.4.35-34.45-2.85h-.1l-8.45-.75.1.65v.65l7.1.6 38.6 3.2 2.85.25 10.25 1 2.4.25 2.4.25.1-.05.3-.95q.1-.6-.3-.7l-1.15.15-1.85-.15-2.5-.2m-13.65-1.2 3.55.3-1.2-1.85-.8-.8m-.4 3.7q1.25 1.3 1 2.8l2.5 4.8.2-.8-.6-4.35-.25-2.2m.65 7.35.25.5.25-.15-.3-1.15 6.75-1.1.2-.05 3.95-.65-1.5-3.75m-9.35 6.85-.5.8.55 1.65L151 99.6h.05l.95-.8-2.35-5.55-.6-2.35-.55-1.1m-42.35-11.3-2.05 1.85-1.3 1.1-1 4.25v1.85l2.8-.85 3.55 4.85 13.5 5.65 4.1.45 1.65.05 4.65-.1 2.2-.2 2.15-.2 2.35-.6 2.3-.85.9-.4 2.45-1.4 2.7-2.3.3-.35.6-.7.25-1.3m.8 1.6-.3-1.25m-46.95-2.1v1.85h.05l1.65-.4.85 1.7 10 5.15 5.3 2.3.7.1.6.05.5.05.5.05q5.5.5 11.1.1l1.4-.1 2.85-.25 1.7-.45 2.85-1 .9-.35L145 95.3l2.3-1.55.45-.45.8-1.05m6.65-3.15-4.55.9q1.25.75 1.9 2l.15.35q.75 1.9.2 4.85l8.35-1.5v-1l-.2-1.55-.75-2.3-1.45-2.45-3.6.7h-.05m-8.05-8.45 9.1.8M113.7 46.8q-1.55 6.4-4.15 12.3l1.7 2.45 9.4 13.7 13.15 3.8 7.1-2.45m10.1 23-3.15-.1-1.5-.05-4.65-.05h-7.05l-7.2.1-1.25.05-4.55.2h-.2l-1.1.05-.25.05-1 .05-6.15.55h-15.5q-2.2 4.25-1.5 8.55.2 1.55.85 3.1l2.05 1.75 14.9.6 1.65-1.55.85.35 3.7 1.5.75 1.65 2.7 6.35 20.65-6.95 4.6-1.55-28.7.5m.75 1.65 2.7-.15.85-.05 6.5-.2 5.55-.15h2.75l1.65-.05h3.35m4.6-1.55 10.9-3.7-1.9-9.1-2.1-1.6-.65-.05-2.9-.15-.6-.05h-.35m-.4-9.6 2.25 7.2m8.7-15.3-1-1.95v-.05h-.05 4.1q2 1.1 1.6 3.2v1.45h-2.65l-.9-1.05-.05-.05m.1-.05h.05l-.05.05-.05.05m.05-.1v.05m-3.4 3.25 4.15 10 4.55 11 2.2-.75-.4-.7-.15-.3-3.9-6.4-1.45-6-.45-1.4-.65-1.9-3-7.05m3.35 1.35q1.05-4.55-2.9-4.65m2.8 16.8-1.05 1.8.8 1.65 1.15 8.8 3.65-1.25m-44.65 15.05 3.5 8.2 35.2-12 3.45-1.15 5.85-2 2.5-.85 9.4-3.15 1.05-.45 3-1 4.25-1.4m-4.25 1.4.05.05-3.1 1.05-.45 1.65-.3.85q-2.1 5.4-6.95 9.3 4 6.05 6.55 12.7 1.4 3.65 2.4 7.5l2-1.1m-4.25-30.55 1-.35.05-.1m-7.85-18.9-10.7 7.1m4.45 7.4 12.55-4.25m-24.85-25.35 1.8 4.4m-.2 28.8 4.85-1.6m-13-9.35 11.05-1.1m-10.45.3 11.5-2.1m-47.55-60.9 1.4.5m-.5.85.5-.85M100.2 22.85l-2.2-3.5v2.45h-6.05l-3.15 3.55m5.2 20.8-2.7 3.6 2.15-1.65.55-1.95-5.05 2.3-7.9-1.55q3.6-1.25 6.2-5.95M85.1 57.3l-.7 4.55q5.45 6.9 13.6 9.05l6.7-2.6 2.7-4.65 2.15-4.55M89.6 41.6l-2.85 4.3h4m16.65 17.75 3.75.4.1-2.5m8.7 8.2q-1.95-3-3.15-5.9-2.5-5.85-2.1-11.25M66.75 70.75q-6.45 3.15-11.4 8.4-2.4 2.55-4.45 5.6-2.55 3.65-4.55 8.1 3.3-2.1 6.7-3.75l3.2-1.5q12.45-5.4 25.35-4.95 5.75.15 11.65 1.5l3.6.95 1.1-3.95q-12.8-10.3-28.5-10.45l-2.7.05q4.3-5.25 10.35-7.45l21.65 12.4.2.9-1.45-.1-.4.6-.3.6 2.1.2.15-.65m-52.7 15.6-3.6 12.4 8.95 3.45q4.4-3.95 9.85-6.6l5.1-4.75 4.1-1.9q11.4-4.75 23.9-2.45l2.2-7.9M51.7 108.7q-3.45 3.1-6.2 6.95l-.05.05q-.9 2.05-1.45 4.1-2.3 7.95.55 15.25l23.4-34.65.8-1.2q-3.8 1.2-7.2 2.9m-16.1 13.6-.05-.1-7.05-12.05 4.4 1.7m25.95-1.7 11.65 2 2.65.8-.75.3 2.45.85 1-.3 5.35 1.7-.25-3.9 3.85-9.15H90.2l-1.1.05-12.2 1.25-2.2.4-3.95.9-1.45 1.05 1.6.75-2.2 3.3-2.15 3.3 13.8-1.3m-11.6-6.35.55.3-1.35.9m28.85 11.7-2.6-2.25q-8.3-1.1-15.75 2.45l-.05.05q-6.05 2.85-11.5 8.8l-.15.15-2.75 6.05L58.25 140l-.7 1.5 2.25 2.55 7.6-2.45-.75-2.75v-4.4m32.4-56.55v.15L99 79.2l4-.3 1.1 1.45m-5.05-2.45h-.15l-.05.1.2.05m12.1-14q-.45 8.25-3.1 12.4l-.55.75-.1.15m-5.55 12.05h-.05V95l-7.15.85V93m2.15-15.3-.25.5-1.7-1.2 1.05-2 1.95.95-.35.55h-.1l-.3.6m.85 4.05.55-1.95.35-1.2m-7.8 30.9 3.15.95m9.05 31.8-.55-2.35-3.8-7.15h1.4l3.9 5.15 1.9 3.6-2.85.75.8 3.25 7.1 3.3 5.3-3.65v-10.9l-3.6-7.05-1.85-3.65-5.05-2.95h-.05l-5.05-2.95-10.85-.8-2.3 2-6.85 4.6m25.1-2.85-5.1-4.4-2-1.75m2 1.75 11.25.4 1.65-1.55m-19.1-18.6q2.7-4.95 3.75-11l.6-5.65h-.5m-16.25 27.45-11.05 4.5 13.5-3.65m31.75 29.05 3.2-1.85-3.8-9.35-3 1.25m-1.85-3.65 4.85 2.4-1.85-4.7-8.05-.65m-.3 3.9q-4.9.4-4.3 3.6m7.35 12.65q2.6.95 4.75-.55l2-2.1m-28.5 4.2 2.15 3.85 1.8-.5-2.75-5.3h-1.8l.6 1.95m7.3-14.45-2.3.35q-5.5 1.05-4.85 4.65m-11.2 9.65 3.2 6 4 4.1 1.9 1.95h4.55l2.85-2.55-3.3-5.85m3.3 5.85-.45-4.25-1.05-2.1 1.45-.4q3.65 2.85 9.15.15m-3.2 12.85-.25-3.9-1.55-1.65v-.05l-4.55-4.9M59.45 442.9l.7-1.4-10.95 7.85-3.6 2.55-15.15 10.2-16.95-6.45-12.65-9.3L9.2 430.1l3.1-1.4.65 1.45L14 432l2.85-.45 6-7.9Q20.3 420.5 21.7 419l.15-.2.25-.2q4.35-3.7 7.5-9.35 2.5-4.55 4.2-10.4l2.6-.2 3.6-30.1Q36.65 358 40 346.6l9.35-17.45q-.75-17.45 7.85-22.9l2.65-.45q-.4-5.6.6-10.95.7-3.6 2-7.1-3.45-4.65-6.65-10l-3.2-5.65.55-2.65q0-8.15 2.75-16.3l.15-.5q1.75-5.1 4.6-10.2.5-4.2 1.6-8.2l-7.1-10.6-1.1-1.65-1.35-2-3.2-4.75-2.2-3.3-5.35-8-6.8 1.5-2.1-2.1 3.1-3.4 4-3.55q6.2-4.75 14.35-7.3l2.3 2-3.2 4.35 1.6 3.35q1.3 2.7 2.75 5.3l.2.3.25.4 1.8 3 1.55 2.4.75 1.15 4.15 5.6 5.15-2.1 2.55-4.6 11.4-20.85-1.7-1.85v-14.2l2.55-1.65.6-14.55-4.2-.75.1-4.4-2.95 2.9H76.2l-4.75-4.55-2.05.55L25.6 165l-3.05 5.65-8.8-12.85 6.95-1.15 39.1-12.6m27.4 13.1 11.2 1.9q3 1.6 11.05 2.05 5.25.3 12.7.1l8.9-.85h.05l23.4-2.2 10.05-.95 1.6-1.5q1.3-1.65 2.35-4.15l.55-3.15.05-.3v-.1q.15-2.15-.35-5.45l-3.2-24.75m-61.5 27.1v.05l.75 3.25-2.65 4.05.05.85 3.1 2.8 3.6.2 19.15 1.1 2.5.1 3.7.05 3.85-.1 3.45-.3 1.1-.05 1.65-.2 8.05-1.55q4.9-1.1 11.05-2.85 1.05-3.25 1-6.4-.15-4.15-2.2-8.2l-1.05-1.4-9.3-.25h-5.75l-5.35.05h-1.35l-5.15.1-1.3.05-3.7.15-2.65 3.5-5.95-2.65-1-2.55M96.5 152.05l5.65.2m-21.55-29.2-7.15 4.75-5.15 5.3-1.65 3.55m-.1-29.8L49.9 131.8q2.2 8.1 5.2 7.25l.2-.1-.05-.2q-2.45-7.9 3.85-15.1m-9.2 8.15-2.15 3.25h-3.2m13.7 4.95-2-2.3-.95 1.25m16.15 11.4-.1-.1-1.95.65m-2-9.3 1.7 6.5 2.25 2.15 1.3-.25-1.2.35m-7.45-23-7.75 10.35m-8.95 74.25 1.55-.65.3-.1 2.2-1.1q2.6-1.45 4.8-3.2l.35-.3 1.55-1.4.35-.4M52.7 220l.9-.6.7-.5 2-1.65q1.2-1.2 2.05-2.5l1.2-2.55q.7-2.05.65-4.4l-2.05 2.25-.95.85-2.1 1.65q-1.5 1-3.1 1.75l-.6.25-.5.2-1.4.5m4.1-19.8-11.65 8.5m20.55 7.4q-.1 2.05-.55 3.8l-.15.55-.4 1.05q-.85 1.8-2.2 3.2l7.45-3 1.3 1.55 2.45-1.1 1.4-2.55 4.65-1.9-2.1-2.7M89 227.1l2.1-.3-13.4-12.6-7.3 3.2-.1.2q-2 2.8-3.6 5.75-2.25 4.1-3.7 8.5l-.25.8-.5 1.6m21.8-60.9 3.35 1.5q8.85 3.75 18.2 4.85l13.7-.45-14.55-2-18.15-5.55m-10.15 41.25 3.25-1.35 31.2-15.75q-10.75-2.2-21.15-6.05l-2.8-1.05-2.9-1.2m7.05 39.25q9.4 6.3 19.65 9.5l4.9 1.35 13.15-38.3-1.5-.9h-.15l-.15-.2h-.05l-.35-.05-10.5-1.35-5 2.6-33.4 14.75m33.2-18.35 1.3.3 3.9.7M81.9 131.4q-5.75.8-5.75 4.55m109.4 7.5q-1.15.5-2.35.85l-3.85-9.2-.65.85m.65-.85-3.8-9.3.3 6.25m-13.75-13.1 1.7 11.3q-.95 2.6-3 3.4l-7.75.45-5.55.25-4.15.2-2.8.1-1.05.05-5.7.2-5.15.15.6 1.35m36.9 19.3 5.15 2.1q4.3-1.45 8.15-3.8l2.6-1.7q3.5-2.5 6.65-5.75l.05-3.55m-24.2 14.2 1.15 6.65-1.75 10.95h.05l3.5-.45 1.6 9.85h1.05v5.45q10.15 23.35 16.95 54.7l.35 2.3q3.8 9.05 4.55 18.45.4 5.25-.15 10.6l.45 2.6m-26.15-122.6 2.05 8.3q-1.75 7.4 5.45 10.8v-3.65l.05-.15.95-2.5q4.7-6.3 12.65-10.25l3.8-1.7 2.65-.95 2.85-.9 3.1 5.75m-71.05-25.4h-2.05v4.85m2.05-4.85-1.75-4.1m-7.6 48.3 6.75-.2.8-1.7 6.15-.55-.25-5.6-.15-1.2-.2-1.75q-.45-3.75-1.3-7.9m23.4-2.2.1 1.2.1 1 .15 1.4.2 2.9.1 2.55q.15 5.6-.55 7.55l1.15 1h.05l8.15-.95m-35.15 24.55 1.55.95 4.95-.5 18.45-1.95 3.95-.4 1.25-1.7 1.15-1.6-.8-7.45-4.95.5.45 4.6-1.55 2.2-18.2 1.85-2.25-1.35-.3-.1-.9-11.55v-.05l1.1-2.15 18.45-1.8 2.5 2.25.4 3.4 4.95-.55-.6-5.9-2.6-2.3m-14.1 9.9 1.05.35.3.35.3.8q0 .65-.6 1l-.35.3-1 .2-1.05-.2-.4-.3q-.15-.1-.2-.15-.3-.35-.3-.85l.05-.35q.05-.45.45-.8l1.45-.35h.3m12.65 1.55-4 .4q-1.2-1.15-1.05-2.05l.2-.6 4.55-.45m4.95-.55h.05l3.05-.35.25.2q1.65 1.45-.25 2.6l-2.8.3M127 198.25l-.05-.05-.35-.15-1.3-17.35.75-1.65m1.25 19.4-.05-.05-.25-.15h.25l1.15.1m-1.45-.15.05.05m27.6-23.5L133 176.8m50.8 4.25 4.2-2.75 14.8-12.05-15.75 8.7-3.25 6.1-4.15 2.75 1.95 2.2 7.7 8.5.65-.35L202.6 188m-28.9-17q.15.3-.05.55M181.6 186l-7.95-7.55v-3.65m-14.7 20.95 1.2-.05 2.55-.15 7.45-.45v-5.45m25.45 15.5-3.95 5.1-5.2-7.2v9.2q-4.6 13.7 9.9 27.4-.25-2.6 2.8-3.65-2.45-3.15 2.9-4.5m-9.75-34.75-2.35-2.6M114 120.65l-1.9-4.65m63.45 9.8-4.15-10m2.5-.85q1.55 4.05 2.7 8.3m19.75 116.4.45 3.1 3.6 3.8m-40.25-50.85 6.05 27.35 3.35 13.1 1.25 5.9q2.05 10.85 3 21.9l.5 6.95q.45 8.7.2 17.55l-.25 5.65-.1 1.9 2.8-5.1q.2-13.4-.7-26.8l-.6-7.9q-.8-8.35-2-16.75l-.15-.95-10.8-42.95m12.95 60.65q4.2-1.35 7.5-4.35 2.35-2.2 4.3-5.2M174.3 270.9l-7.6 2.05-.65.15-1.3.35-.7.2-3.75.85-7.15 1.55L141 278.1l-24.35 2.35.65 17.35 3.2-.05 13.2-.8 6.75-.75 2.4-.35 14.05-2.6 10-2.55 3.55-1 4.05-1.25m-54 9.3-2.1 2.3 35.15 38.65 1.95-3.3-1.4-.75-2.65-8.35q-9.6-2.45-9.05-11.2l-4.55-8.85-4.15-9.3m50.8-6.8-1.35 1.25q-2.9 2.45-6.2 3.75l-2.8.85m2.8-5.1q6.05-3.35 10.8-9.15l.05-.05q2.15-2.7 4.05-6m-40.4 50.6 8-3.9q2.3-7.15 5.45-9.6l7.6-3.7 2.75-1.1q5.6-1.75 10.75.75m-70.35-71.1q-6 10.6-9.7 21.3-2.9 8-4.5 16.1-8.2 13.95-10.7 28.2v8.05l24.65-65.9 3.35-9 11.6-36.1m-28.9 74.75q-17.25-6.5-30.55-20.15l-3.85-4.3-.1-.05-.8-.9-2.55-3.15-.25-.35-2.7-3.7m-1.45-22.5L54.05 222m-.9 47.45q1.6 2.65 3.3 5.1l1.9 2.65q3.25 4.5 6.75 8.35 11.6 12.6 25.65 17.7m0 8.05q-9.45-4.1-17.7-11.75l-2.8-2.7q-3.2-3.25-6.2-7.05l-1.6-2.05m-2.6 18.05 2.4-.1q8.35.15 17.65 7.45l1.8 3.35 2.05 4.9q1.3 3.8 2 7.75l3.2 2.6h2.85m16-15.85 4.05-8.7m6.55-7.15-3.65 4m.65-58.65 1.25 35.05m-30.9 48.7q.75 4.65.55 9.55l-1.7 2.4-1.6 1.8 2-.15m-10.85-21.5q-8-6.15-13.15-6-6.7.15-8.55 11.05 0 2.25.55 4.1 1.05 3.4 4.1 5.55 2.7 1.85 7 2.75 4.1-.55 6.7-2.3l.6-.45q5.3-4.3 2.75-14.7m-24.8 7.9q.25 2.95 1.25 5.55l1.55 3.15 1.9 2.6q2.4 2.75 6 4.95 7.1 3.15 12.8 2.55l3.05-.65q3.9-1.2 7.1-4.4m-41.1 48.55 2.9-40.1 7.35-13.5m10.35 83-4.35-16q-2.1-2.45-5.3-3.9-5.3-2.5-13.55-2.4l-2.9.1m36.45-50.7q-2.15 13.2 0 22.95l-10.9 21.75M188.2 326.1h-1.9m.25 9.8q-1.85.95-3.6 1.35l-.95.15h-.05q-6.75.7-11.85-8.25 1.35-5.35 4.2-8.3 1.6-1.65 3.65-2.55 1.85-.85 4.1-1.05 5.8.2 10 7.65 1.25 6.1-3.3 9.6l-1.75 1.15h-.05l-.4.25m5.6 3.35-2.7 1.95-.85.5-2.75 1.4-1.2.55q-7.2 2.8-16.7 2.45-4.05-3.4-6.75-7.65l-5.7-3.05.1-.75m3.85-12.25q-1.1 3.3-2 7.7 1.35 4.5 3.75 8.35m-7.65.25-1.9 3.95q-2.3 5.6-3.1 12.2m17.4 29.65-1.35-2.35m28.85 18.1q-7.15-2.45-14.3 1.25-3.05 1.35-5.4 3.1m-7.5 10 .75 19.6q5.35-12.9 16.2-17.9 5.6-2.85 10.25 0 3.95.6 7.6 1.8l3.6 1.4q2.95 1.3 5.65 3.1l3.7 2.75M141 278.1l-5.7-78.3m18.45-1.95 11 75.6m-96.8-54.95-12.8 5.15M209.7 424.4l-22.7-6.2q-8.25 3.15-15.55 10.85M22.1 418.6q1.45-1.1 5.45-1.2h.05l10.5.8q3.45.8 7.65 3.8l4.35 3.5q3.85 3.45 8.25 8.45l2.9-5q.65 3.4.45 6.45-.25 3.25-1.55 6.1m-2.75-1.35h-3.8l-4.4 9.2m-26.35-25.7 4.7-6.25M14 432q1.45 2.15 3.35 3.45 1.5.95 3.3 1.35m-19.8 9.55 22.9 8.6h11l10.85-3.05m150.95-12.25 11.25-6.4 8.6 10.5M199.15 236l2.9-.65m11.25 187.8-3.85-12.1m29.85-105-.05-.1m-72 106.2.45-4.45M64.35 441.6l-4.9 1.3m56.8-329.65-.45-.9"/><path stroke-width="1.75" stroke-linejoin="round" stroke-linecap="round" stroke="#1e1e1e" fill="none" d="M77.85 11.25q1.3-4.45 5-10.4l-4.65 3.5-3.6 4.55q-3.55 4.8-5.4 9.05-3.65 7.95-1.45 13.95 1.85 1.85 5 3.6 5.35 2.9 14.5 5.45-2.6 4.7-6.2 5.95l7.9 1.55 5.05-2.3-3.15 11.15H85.1l-.7 4.55q5.45 6.9 13.6 9.05l6.7-2.6 2.7-4.65 3.75.4q-.45 8.25-3.1 12.4l-.55.75v.15h-.1l-8.45-.75-.2-.9L77.1 63.3q-6.05 2.2-10.35 7.45-6.45 3.15-11.4 8.4-2.4 2.55-4.45 5.6-2.55 3.65-4.55 8.1l-3.6 12.4-4.4-1.7 7.05 12.05.05.1q-.9 2.05-1.45 4.1-2.3 7.95.55 15.25h3.2l2.15-3.25q2.2 8.1 5.2 7.25l.2-.1.95-1.25 2 2.3-.7 1.5 2.25 2.55-39.1 12.6-6.95 1.15 8.8 12.85L25.6 165l45.75-14.75 1.3-.25-1.2.35 4.75 4.55h3.95l2.95-2.9-.1 4.4 4.2.75-.6 14.55-2.55 1.65v14.2l1.7 1.85-13.95 25.45-5.15 2.1-4.15-5.6-.75-1.15-1.55-2.4-1.8-3-.25-.4-.2-.3q-1.45-2.6-2.75-5.3l-1.6-3.35 3.2-4.35-2.3-2q-8.15 2.55-14.35 7.3l-4 3.55-3.1 3.4 2.1 2.1 6.8-1.5 20.3 30.3q-1.1 4-1.6 8.2-2.85 5.1-4.6 10.2l-.15.5q-2.75 8.15-2.75 16.3l-.55 2.65 3.2 5.65q3.2 5.35 6.65 10-1.3 3.5-2 7.1-1 5.35-.6 10.95l-2.65.45q-8.6 5.45-7.85 22.9L40 346.6q-3.35 11.4 0 21.95l-3.6 30.1-2.6.2q-1.7 5.85-4.2 10.4-3.15 5.65-7.5 9.35l-.25.2-.15.2q-1.4 1.5 1.15 4.65l-6 7.9L14 432l-1.05-1.85-.65-1.45-3.1 1.4-8.35 16.25 12.65 9.3 16.95 6.45 26.9-18.65.1-.05 2.7-1.9-.7 1.4 4.9-1.3v-13.85l-1.85-6.9q-.55-6.1 1.45-10.9.85-2.2 2.3-4.15l12.65-24.1.3-.7q5.25-13.55 5.8-29.4v-8.85l2.5-.2 4.3-10.8h5.75l6.2-7.15 4.05-8.7 40.75 38.95q-.25 1.8-.35 3.65 2.2 13.45 8.25 22.45l3.9 6.3q5.75 10.2 7.35 20.45l-.45 4.45-1 2.45h-3.35q-1.4 11.15 4.1 19.6 2.15-2.8 4.45-5.15l7 25.4q13.75 6.15 27.45 5.25l19.3-7.6v-5.25l-9.05-14.1-6.45-8.35 4.3.95-.7-2.2-.25-10.7-6.75-7.35-6.4-35.1 2.65-12.9q-2.9-11.2-10.4-17.85 2.85-2.4 5.15-5.55 1.65-9.85-5.25-20.5-2.95-3-6.05-4.45v-13.7l-1.5-4.9 2.15-2.35 6.85 4.85 11.45 6.95h5l2.85-3.85-4.3 1.2-6.9-3.35-9.3-15.3-.45-2.6q.55-5.35.15-10.6-.75-9.4-4.55-18.45l-.35-2.3q-6.8-31.35-16.95-54.7v-5.45h-1.05l-1.6-9.85-3.5.45h-.05l1.75-10.95-1.15-6.65 1.6-1.5 2.05 8.3q-1.75 7.4 5.45 10.8v3.65l5.85 5.55.15-.2 9.65 10.7.65-.35 2.35 2.6-.65.35 2.4 2.65-1.3 1 2.85 4.4-3.95 5.1-5.2-7.2v9.2q-4.6 13.7 9.9 27.4l.45 3.1 3.6 3.8q-3.1 4.9 0 8.1 2.35-1.65 4.75-2.6 4.25-1.65 8.85-1.2l6.1-6.75q2.2 1.15 4.4-.4l2.65-14.3q4.85-7.25 4.05-13.65l-6-8.55h2.15l-7.85-14.6V190l-3.65.55-4.45-11.75-.9.95-10.8-19.3 1.4-3.85q-2.5-4.8-5.75-8.3l-2.85-2.7-3.75-2.6-1.2-.65q5.5-3.55 8.05-11.85l.2-.8 1.15-5.6.05-.4q-3.95-5-7.95-10.85l-1.65-2.45-4.1 1.4 1.05-.45 7.25-2.4 10.1-3.45 8.75-3.1q20.5-7.4 40.45-15.5l2.4-.95q21.9-9 43.1-18.9 18.5-8.65 36.55-17.95l2.4-1.3-1.25-4.6q-21.65 10.5-43.85 20-20.7 8.9-41.85 16.95l-3.65 1.35q-23.25 8.75-47 16.45l-.65.25-14.3 4.5-4.4-7.3-1.05-1.6-.85-1.35-1.65-4.45-.5-1.2-1.5-3.15q-2.4-4.75-6.9-11.75l-5.5 3.7-9.45 3.45-5.85-1.05-1.8 1.85.25.5-1.65-.15-.85-1.85-.2-1.75 2.45-.85 4.5-8 12.9 4.4 5-6.2-5.7-5-.75-1.2-1.3-2.45q-1.55-3.5-1.65-7.3v-.85l.1-2.1 2.4 2.45v-6.2l1.55 1.8 5.2 5.05-3.25-5.15v-4.15l2.5-.45 3.65-.9 3.85-1.4.7-.3 2.1-1 2.35-2.4q1.8-2.45 2-5.55l.05-.4-.25-3.15q-5.7-12.15-11.7-17.1l-1.15-.9.85 1.55Q171.4 17 170.85 22l-.25 1.25-8.75 1.95-2.5-1.8-2.9-10.2L137.6 1.05l-22.65 2.6-7.9 6.9-5.5 8.4-1.35 3.9-2.2-3.5v2.45h-6.05l-3.15 3.55-5.95-2q-4.05-1.4-5.2-4.6-1.15-3 .2-7.5m147 275.8v-6.6l-13.6-21.65 13.6 15.05 19.2 18.8 5.2 14.4q-4.05 8-1.2 18.8l-4.8-4.4q-1.05-8.25-3.95-15.4l-.05-.1q-3-7.45-8-13.7l-6.4-5.2"/></g><path fill-rule="evenodd" fill-opacity="0" fill="#f0f" d="M100 40H0V0h100v40" id="a"/><use xlink:href="#a" width="100" height="40" id="c"/></defs><path fill="none" d="M-1-1h204v280H-1z"/><use x="127.435" y="236.167" xlink:href="#b" width="381" transform="translate(-192.55 -294)" height="381"/><use x="-44.064" y="-39.098" xlink:href="#c" width="100" transform="translate(105.6 53.25) scale(1.4664)" height="40"/><use x="7.745" y="-22.375" xlink:href="#d" width="336.2" transform="matrix(-.5959 0 0 .5959 205.657 14.536)" height="462.95"/></svg>