<svg width="265" height="270" xmlns="http://www.w3.org/2000/svg" xmlns:xlink="http://www.w3.org/1999/xlink"><defs><radialGradient spreadMethod="pad" r="819.2" id="a" gradientUnits="userSpaceOnUse" gradientTransform="translate(41.95 -127.35) scale(.0936)" cy="0" cx="0"><stop stop-color="#414649" offset="0"/><stop stop-color="#565653" offset=".278"/><stop stop-color="#746a60" offset=".545"/><stop stop-color="#788293" offset=".702"/><stop stop-color="#69a6d1" offset="1"/></radialGradient><radialGradient spreadMethod="pad" r="819.2" id="b" gradientUnits="userSpaceOnUse" gradientTransform="translate(-43 -97.2) scale(.0389)" cy="0" cx="0"><stop stop-color="#8b6b4e" offset="0"/><stop stop-color="#a48a74" offset="1"/></radialGradient><radialGradient spreadMethod="pad" r="819.2" id="c" gradientUnits="userSpaceOnUse" gradientTransform="translate(-35.6 -88.35) scale(.0579)" cy="0" cx="0"><stop stop-color="#785942" offset="0"/><stop stop-color="#ab998b" offset="1"/></radialGradient><g id="e" stroke-opacity="0" stroke-linejoin="round" stroke-linecap="round" stroke="#f0f" fill="none"><path d="M187.95-293.5v380h-380v-380h380" transform="translate(192.55 294)"/><path d="m187.95-293.5-190 190 190 190m-380-380 190 190L-192 86.5M92.95-38.4H-97" transform="translate(192.55 294)"/></g><g id="g"><path fill-rule="evenodd" fill="#f6ba77" d="m47-205.4-.55-.55q-1.45-2.55-4.3-3.15-1.45-1.15-3.85-1.7l-.3-.4-.45-1.05-.25-.15-.05-.35-.4-.35-.6-.1.05.3q-2.25-.1-3.15 1.5v.05q2.15-.3 4.1 1.15l.05.1 4.25.9.6.1.25.25 2.9 2.8 4.1 4.95.15.7-.1-.95q-.4-2.7-2.45-4.05m-26.45-2.4 2.6-3.05 4.9-2.25 5.1-1.3 4.15.95q3.75 1.95 7.45 3.85l5.55 4.8 1.1 4.65-.25 3.05-1.8 5.15-4.55 3.35H39l-7.6-1.6-5.05-4.2-1.8-2.2-1.85-2.25-1.05-2.45-1.1-2.45v-4.05m31.8 44.9.7 2.6.8 6.25-5.5-3.35 1.1-.5 2.45 1.1-.7-.4-.45-1q0-2.1-.55-4v-.45l-.45-.55h-.7l-.3-.3-1.1-.35q-.2-.05-.55-.25l-.5-.3-1.55-.1-.55-.45-.2-.25-.15-.35-.55-.25-.3-.6v1.6l.7.55q.3.2.75.3l.3.15h-1.3q4.85 1.25 4.4 6.25l-4.8-2.9v-1.4L39-167.6l-3.05-1.6 3.05 1.6 4.35 5.75v1.4l-9.15-5.65 1.75-3.1.95-1.65 15.45 7.95m-71.3-12.45 3.15-6.25 6.55-4.2 7-2.85h8.9l6.8 4.7-.6 1.85-.5.7-4.9-3.55h-1.6 1.6l4.9 3.55-2.85 4.05-2.9 4L5-170l.5 2.65.45 2.7 1.2 3.85 4.85 4.5 6.15 7.2-3.05-.35L4.2-156l-4.55-7.2-1.15-9.3 6.7-6.95 4.3 2.1-4.3-2.1-6.7 6.95 1.15 9.3L4.2-156l10.9 6.55 3.05.35 6.05 7.2 4.85 5.7-6.45.65-12.1-2.25-2.75-.5.9-4.25-3.05 2.4-4.75-3.2-1.65-1.1-7.1-6.8-2.45-2.35-5.4-9.05-1.15-1.9-2.05-10.8m65.55-21.6.25.1q-.45-3.95-2.25-7.35-.5-.9-1.65-1.05l-1.4-.5q-1.25-1.75-3.6-2.75l-1.05-.05.25.15-1.6 1v.05h1.15q1.7 1.75 4.55 2.2l4.55 5.8.55 1.45v.5q.05.3.25.45m-.35.7-.85-.05q.7 3.85-2.55 4.65l-4.95.5-.35-.2-.7.05-.35.15.2.45.3-.5q1.9 1.1 4.05 1.6h.8l.2.1.05.1 1.95-.7q1-.5 1.5-1.35l.1-.3.8-.95q.55-.55 1.65-.9l.1-.1q.6-1.05.55-2.3l-.3-1-.65-.1h-.1l-.7.25-.5.45-.25.15M35-193.6l-3.2-1.2-4.05-3.85-1.8-4.55 1.3-4.5 2.6-2.65 4.5-.45 3.8 1.15 5.15 3.2 3.55 3.75 1.1 3.55-1.1-3.55-3.55-3.75-5.15-3.2-3.8-1.15-4.5.45-2.6 2.65-1.3 4.5 1.8 4.55 4.05 3.85 3.2 1.2.5.2-.25-.6-.25.4m-.4-7.6-.75-2.15 2.75-.8 2.7 2.15.5 3.3-2.75 1.6-4.05-1.15-2.6-3.75.45-2.8 2.35-2.05h3.25l3.2 1.9L44.1-200l.65 2.9-2.3 2.8-5.65 1.35-1.3-.45 1.3.45 5.65-1.35 2.3-2.8-.65-2.9-4.45-4.95-3.2-1.9H33.2l-2.35 2.05-.45 2.8 2.6 3.75 4.05 1.15 2.75-1.6-.5-3.3-2.7-2.15-2.75.8.75 2.15m-38.8 15.6q4.25-1.85 8.15-.6l.5-.3H7.5l-2.8-.4-2.15-.15.15-.3-5.15.45-.75.15-.55.5-.5.5.05.15m-3.45 2.15-1 .25h.7q-4.9 3.5-6.85 9.5l-.3 1.3q1.95 3.9 2.15 8.85.25 4.5 2.3 8.2l2.45.9 1.25.7h.75q-3.05-2.25-5-6.6-1.2-2.8-1-5.75l.55-.75-.75-3.2q-.7-2.65.2-5.3.75-2.25 2.7-3.5l-.6-.15h-.25l-.3-.15 3.2-2.65 2.1-1.65-2.6.25.3-.25m9.75-1.5h-.85l-7.5 3.65 7.5-3.65h.85q-4.1 2.1-6.85 5.95l.2-.2q4.6-3.5 9.8-2.7l.45.3h.15q.55-.15.85.3l1.15.85 2.7.85h-.05.1-.05q.2-.05-.2-.35l-.9-.5-.2-.2q-.8-.5-1.1-1.55l-1-1.25-.05-.15q-.45-.9-1.25-1.35H2.1m31.05-19.9-.1.15q-.75 1.35-.75 2.8l.25.5q1 2 3.15 2.5l-.05-.1q-1.45-.85-2.6-1.95l-.05-.95q-.25-1.9 1.5-2.6 1.2-.45 1.25-.6l.4.25-.45-.25-.05-.05-.15-.05q-1.45-.4-2.35.35m.4-4-.25-.15-1.35-.1q-2.55.3-3.25 2.7.15.6-.05 1.15-.7 2.05-.15 4.15.75 2.75 2.95 4.25l.55.15-1-1.15q-.8-1.15-1.45-2.6l.15-3.2q-.05-.8.05-1.6l.1-.1q2.2-1.4 3.7-3.5m-1.4-3.3-1.55-.65h-.3q-.1 0-.25.15l-.75.15-.55 1.15q-.7.5-1.7.55-1.75.3-2.25 1.05-.7 1.8-3 3.8l.2.35.2.35q0 .3.15.55l.7.7q.3.85.25 1.85.9 1.15 1.15 2.65.15.8.7 1.25 2.3 1.95 3.7 4.35l-.95-2.3-1.15-1.55q-1.2-1.2-1.35-2.85l-.45-4.95.9-2.75 1.3-1.1q2.1-1.6 5-2.75m4.25 10.6.35.4v.05l-.3 2.05h.3l1.15-1.25q-.15-1.1-1.35-1.45l-.15.15q-.7-.05-.1.05h.1m4.5.1q.7 1.95.1 4.05v.1q-1.85 1-4.45.9l-3.5.1q3.4 1.1 7.4 1H41l1.65-1.65.65-.35.35-.4q-.25-1.95-1.55-3.15l-.5-.15-.7-.45m-8.65 8.35-1.7-.25q2 .75 3.2 2.35l.55-.15.05.55.55-.7-.05-.5-.1-.5-1.6-.05-.9-.75m3.85 26v.85q1.5 1.6 4.05 1.85-.35-1.35-1.3-2.55-.65-.9-1.35-.9-.1-.45-1.25.6l-.15.15M17-146.45l1.65.3-.45-.45-1.2.15-8.35-2q-5.15-1.3-5.65-6.6l-1.3-.45v.3l.4.45q-.25 6.9 6.15 7h.5l2.25 1.3h6m-15.6-33.4q-6.2 1.15-7.75 7.6-1.4 5.75 1.5 11.3 1.2 2.3 2.8 3.9-1.65-2.75-2.35-6.2-1.1-5.35 1-10.15l.05-.6 1.3-.7h-.85l-.25-.6-.05-.4v-.15q2.05-2.2 5.15-3.3l.6-.15-1.15-.55m2.25 12.9-.2-3.15-.45-.3.55-2.3-.4.3q-3.2 5.55-.5 11 .95 1.75 1.3 3.75l.75.7q.7.4 1.85.5L9-156.6l-.55-.6q-1.85-2.75-4.2-4.9l-.7-.45-.25-.65q-.15-.4.05-.75l.25-.45.1-.1-.05-2.45M-8.7-176.6l-2.45 4.6 6.25 15.3 6.5 6.65 11.15 7.5 7.65 1.35 3.8-.7-3.8.7-7.65-1.35-11.15-7.5-6.5-6.65-6.25-15.3 2.45-4.6m5.5 27.7q5.4 1.85 8.95 5.7l.3.35q.55-.1.75-.65l.2-.65q-1.65-2.7-4.55-4.1l-5.9-2.95q-.25.2-.45 0l-.45-.05v-.1h-.4l.55.75 1 1.7m13.9 9.1v.1l11.65 1 2.15-.7-9.75-.4h-.3l-.7-.75-1.15-.15-.45-.55q-.4.9-1.45 1.45" transform="translate(115.9 244.55)"/><path fill-rule="evenodd" fill="#f7ce8c" d="M47-205.4q2.05 1.35 2.45 4.05l.1.95-.15-.7-4.1-4.95-2.9-2.8-.25-.25-.6-.1-4.25-.9-.05-.1q-1.95-1.45-4.1-1.15v-.05q.9-1.6 3.15-1.5l-.05-.3.6.1.4.35.05.35.25.15.45 1.05.3.4q2.4.55 3.85 1.7 2.85.6 4.3 3.15l.55.55m-.75 9.15.25-.15.5-.45.7-.25h.1l.65.1.3 1q.05 1.25-.55 2.3l-.1.1q-1.1.35-1.65.9l-.8.95-.1.3q-.5.85-1.5 1.35l-1.95.7-.05-.1-.2-.1h-.8q-2.15-.5-4.05-1.6l-.3.5-.2-.45.35-.15.7-.05.35.2 4.95-.5q3.25-.8 2.55-4.65l.85.05m.35-.7q-.2-.15-.25-.45v-.5l-.55-1.45-4.55-5.8q-2.85-.45-4.55-2.2h-1.15v-.05l1.6-1-.25-.15 1.05.05q2.35 1 3.6 2.75l1.4.5q1.15.15 1.65 1.05 1.8 3.4 2.25 7.35l-.25-.1M35-193.6l.25-.4.25.6-.5-.2m13.15 36.05q.45-5-4.4-6.25h1.3l-.3-.15q-.45-.1-.75-.3l-.7-.55v-1.6l.3.6.55.25.15.35.2.25.55.45 1.55.1.5.3q.35.2.55.25l1.1.35.3.3h.7l.45.55v.45q.55 1.9.55 4l.45 1 .7.4-2.45-1.1-1.1.5-.2.05v-.2M-4.2-185.6l-.05-.15.5-.5.55-.5.75-.15 5.15-.45-.15.3 2.15.15 2.8.4H4.45l-.5.3q-3.9-1.25-8.15.6m-3.45 2.15-.3.25 2.6-.25-2.1 1.65-3.2 2.65.3.15h.25l.6.15q-1.95 1.25-2.7 3.5-.9 2.65-.2 5.3l.75 3.2-.55.75q-.2 2.95 1 5.75 1.95 4.35 5 6.6h-.75l-1.25-.7-2.45-.9q-2.05-3.7-2.3-8.2-.2-4.95-2.15-8.85l.3-1.3q1.95-6 6.85-9.5h-.7l1-.25m9.75-1.5h3.75q.8.45 1.25 1.35l.05.15 1 1.25q.3 1.05 1.1 1.55l.2.2.9.5q.4.3.2.35h.05-.1.05l-2.7-.85-1.15-.85q-.3-.45-.85-.3H5.7l-.45-.3q-5.2-.8-9.8 2.7l-.2.2q2.75-3.85 6.85-5.95m30.05-27.2q-2.9 1.15-5 2.75l-1.3 1.1-.9 2.75.45 4.95q.15 1.65 1.35 2.85l1.15 1.55.95 2.3q-1.4-2.4-3.7-4.35-.55-.45-.7-1.25-.25-1.5-1.15-2.65.05-1-.25-1.85l-.7-.7q-.15-.25-.15-.55l-.2-.35-.2-.35q2.3-2 3-3.8.5-.75 2.25-1.05 1-.05 1.7-.55l.55-1.15.75-.15q.15-.15.25-.15h.3l1.55.65m1.4 3.3q-1.5 2.1-3.7 3.5l-.1.1q-.1.8-.05 1.6l-.15 3.2q.65 1.45 1.45 2.6l1 1.15-.55-.15q-2.2-1.5-2.95-4.25-.55-2.1.15-4.15.2-.55.05-1.15.7-2.4 3.25-2.7l1.35.1.25.15m-.4 4q.9-.75 2.35-.35l.15.05.05.05.45.25-.4-.25q-.05.15-1.25.6-1.75.7-1.5 2.6l.05.95q1.15 1.1 2.6 1.95l.05.1q-2.15-.5-3.15-2.5l-.25-.5q0-1.45.75-2.8l.1-.15m7.75 3.4.7.45.5.15q1.3 1.2 1.55 3.15l-.35.4-.65.35L41-195.3h-.55q-4 .1-7.4-1l3.5-.1q2.6.1 4.45-.9v-.1q.6-2.1-.1-4.05m-4.5-.1h-.1q-.6-.1.1-.05l.15-.15q1.2.35 1.35 1.45l-1.15 1.25h-.3l.3-2.05v-.05l-.35-.4m-4.15 8.45.9.75 1.6.05.1.5.05.5-.55.7-.05-.55-.55.15q-1.2-1.6-3.2-2.35l1.7.25m3.85 26 .15-.15q1.15-1.05 1.25-.6.7 0 1.35.9.95 1.2 1.3 2.55-2.55-.25-4.05-1.85v-.85M17-146.45h-6l-2.25-1.3h-.5q-6.4-.1-6.15-7l-.4-.45v-.3l1.3.45q.5 5.3 5.65 6.6l8.35 2 1.2-.15.45.45-1.65-.3m-13.35-20.5.05 2.45-.1.1-.25.45q-.2.35-.05.75l.25.65.7.45q2.35 2.15 4.2 4.9l.55.6-2.45.15q-1.15-.1-1.85-.5l-.75-.7q-.35-2-1.3-3.75-2.7-5.45.5-11l.4-.3-.55 2.3.45.3.2 3.15m-2.25-12.9 1.15.55-.6.15q-3.1 1.1-5.15 3.3v.15l.05.4.25.6h.85l-1.3.7-.05.6q-2.1 4.8-1 10.15.7 3.45 2.35 6.2-1.6-1.6-2.8-3.9-2.9-5.55-1.5-11.3 1.55-6.45 7.75-7.6m-4.6 30.95-1-1.7-.55-.75h.4v.1l.45.05q.2.2.45 0l5.9 2.95q2.9 1.4 4.55 4.1l-.2.65q-.2.55-.75.65l-.3-.35q-3.55-3.85-8.95-5.7m13.9 9.1q1.05-.55 1.45-1.45l.45.55 1.15.15.7.75h.3l9.75.4-2.15.7-11.65-1v-.1" transform="translate(115.9 244.55)"/><path fill-rule="evenodd" fill="#6f4521" d="m49.35-191.95-4.9 6.7-2.1 3.5 4.85 2.25 9.95 11.45-1.2 3.45-.4 3 2.5 3.6 2.5-.55 1.35-.65.5-3.9.75-2.55 4.55-4.85 4.45-2.25h4.75l.4.75-5.65.9-3.55 1.25-2.6 2.85-1.65 2.75-.45 2.3 1.35 5 3.75 1.1 2.6-.85 1.95-2-.55 1.3-.9 3.65v1.1l-.8 1.65-2.35 1.15H65.8l-3.15-3.6v-.6l-1.6.9-.95.2h-1.9l-2.85-4.2-.25-.9.4-3.25-3.15-1.6-15.45-7.95-3-1.15-2.2-3.1v-3.75l2.55-3.35 3.65-1.2h2.85l1.6 1.65-1.6-1.65H37.9l-3.65 1.2-2.55 3.35v3.75l2.2 3.1 3 1.15-.95 1.65-1.75 3.1-.9 6.45-4.25 5.9-4.3 1.15h-5.9L12-156.3l4.25-3.2 4.35-7.85 6.5-15.05 4.3-7.8 7.6 1.6h5.8l4.55-3.35m-13.25 72-1.45 3-4.45 2.4-3.9 8.4-5.2-1.6-.7.65L9-96.9l13.85 4.1L42.2-67.65 19.25-80.3l-2.4-3.9-6.8 3.3L.4-79.2H-9.9l-2.5-1.1L.05-99.35l3.1-13.9-3.75-.65-9-3.85-1-.4-7.8-8.55-.85-1.6-6.55-11.4-1.75-9.7-.3-1.7.3-.95 2.4 10.8 2.65 5.55 5.6 7.9 7.3 7.35 7 3.65 8.3 2.4 7.35.7h8.15l6.6-1.65 7.1-3.5 1.2-1.1m-64.3 30.1-.15-.05-3.3-2.65L-38-102.8l-2.3-8.55 4.7-14.95 3.7 18.2 1.8 9.1 1.9 9.15m30.15-123.6-.65 1-2.05-.6-5.95 3.85-1.95.95 5.7-5.2h4.9m5.45 7.55-.65 2.2-2.1-1.6-4.25 1.15-2.95 2.95-1.3 3.5 1.3-3.5 2.95-2.95 4.25-1.15 1.75 3.75 1.7 3.7.65 5.5 5.9 4.65-.6 1.9-17.9-11.9.9 2.35-2.15.8h-2.1l-3.1-3.4-2.05.1-2.6-2.15v-5l1 1.55 1.9.8 3.15-2.6-1.4 2.4 2.4 2.8h2.8l2.8-4.05 4.35-2.2H5.5l1.9.4m55.25 51.85v-4.1l.75-3.8-.75 3.8v4.1m-33.6 17.85 6.4-.7 9.95-4.7 4.85-3.65-6.1 10.35-5.35 3-.85.45-7.9 3-7.7 1.9-6.7.5H10.2l-3.85-1.35 4.15-10.4 12.1 2.25 6.45-.65m32.2 121h2.4l1.85 1.3 5.65 10.55-5.6 1.15-1.35.2-16.4-3.1 2.7-2.25-.45-4.45 11.45-2 .05.05v-.1l-.3-1.35M-10.3-202.85v4.9-4.9m15.9 62.7 3.05-2.4-4.85 7.7-2 1.75 3.8-7.05M16.85-84.2 9-96.9l7.85 12.7" transform="translate(115.9 244.55)"/><path fill-rule="evenodd" fill="#e99f50" d="m48.6-178.85 11.65 5.45.4-.65 3.8-2.05 4.45-1H72l2.15.95 1.3.5 1.45 2.9h-4.75l-4.45 2.25-4.55 4.85-.6.3-1.15-.5-2.1-.9-1.75-2.45-6.1-6.6-2.85-3.05M77.3-172h2.25l3.9 1.15.75 3.2-1.45-.9h-2.8l-4.35 2.8-4.45 4-3.35.8-.2-.45-.7-1.55-.65-1.5 1.85-5.4 3.55-1.25 5.65-.9m13.75 10.05q13.3 7.1 26.55 14.15l-2.6 1.9-14.4-7.85 14.4 7.85-2.75 1.15-2.8 1.15-.55 1-32.45-17.75.6-.75 2.4-.45 2.7-.55 2.75-.55 1.15-.2h.05l4.95.9M15-3.35l1.7-4.05 5.45-5.45 3.8-3.8 5.7.7.85 1.4 3.15 5.25 2.05-.4-.15 3.05L40.9-5.1h6.9L64.2-2 31-3.35l-4.05-1-4.3-1.1L20.5-6l-3.8 1.25-1.7 1.4m13.85-17.3 4.85-36.3L21.5-76.7l23.3 12.35 3.3 4.3-1.85-.9-.7.2-2.45.8 2.45-.8.7-.2 6.2 36.75-8 1.2-2.5.4L34-21.4l-2.6.35-2.55.4M1.3-212.45l2.05.55 1.7 1.75 1.7 1.75.65 2.5-1.9-.4H2.05l-4.35 2.2h-3.8l-1.45-3.6.85-1.5 5.95-3.85 2.05.6m5.45 8.75 10.45 7.9 3.35-12v4.05l1.1 2.45 1.05 2.45 1.85 2.25-2.2 5.45-2.3 8.75-5.85 11.55-8.25 6.2-.45-2.7L5-170l1.6-3.35 2.9-4 2.85-4.05.5-.7.6-1.85.6-1.85.6-1.9 1.2-3.8-7.75-6.35-1.7-3.7-1.75-3.75 2.1 1.6m73.35 33.95h-3.65 3.65m11.95 11-7.15-3.9 7.15 3.9m-4-.45-5.9-2.9 5.9 2.9m-25.2-12.95 2.3-2.4 5.2-1.25 3.8-.35-3.8.35-5.2 1.25-2.3 2.4m41.6 24.55-25-13.95 25 13.95m-38.1-22.9-2.75 1.55-2.2 3.1 2.2-3.1 2.75-1.55m7.65.4-3.45 2.4-3.65 4.75 3.65-4.75 3.45-2.4m2.1.5-4.4 3.05-4.1 5.15 4.1-5.15 4.4-3.05m-18.55.4 1.35-2.1 1.35-2.1-1.35 2.1-1.35 2.1m-2.5-5.35-3.6-1.25 3.6 1.25m.9 1.75q1.45.8 2.95 1.5-1.5-.7-2.95-1.5m42.55 20.25 13.75 7.8-13.75-7.8m-32.65-19.5-6.55 5.3 6.55-5.3M47.95-42.9q-1.4-12.4-4.85-17.05 3.45 4.65 4.85 17.05M5.05-210.15l-5.25-.55-2.75 1.85 2.75-1.85 5.25.55m8.8 13.9-7.45-5.3 7.45 5.3M-1-208.75l-5.1 4.65 5.1-4.65m2.35.45-5.55 4.2 5.55-4.2m15.85 12.5-1.35 4.3 1.35-4.3m-6.1 20.4 1.85-2.8 8.7-23.1-8.7 23.1-1.85 2.8m7.9-11.95-6.05 14.25-7.45 5.75 7.45-5.75L19-187.35m24.1 127.4-1.55.5 1.55-.5m-5.1-5.9q-.45 3.8 3.55 6.4-4-2.6-3.55-6.4m.35 7.45-1.55.5-1.55.5 1.55-.5 1.55-.5 1.6-.55 1.6-.5-1.6.5-1.6.55Q32-61.95 31.8-69.05q.2 7.1 6.55 10.65m-3.1 1-1.55.45 1.55-.45q-5-6.6-7.9-14.55 2.9 7.95 7.9 14.55M39.8-40q.5-8.1-3-17.9 3.5 9.8 3 17.9M25.4-9.45l-2.75 4 2.75-4m3.05 1.6-1.5 3.5 1.5-3.5m-2.15-5.9L20.5-6l5.8-7.75m4.95 5.65 1.25-6.45-1.25 6.45m3.6-31.9q.45 9.95-3.45 18.95 3.9-9 3.45-18.95m7.05-.65q2.85 8.85.05 18.05 2.8-9.2-.05-18.05M35.95-53.2Q40.3-34.3 34-21.4q6.3-12.9 1.95-31.8m7.5-10.95 2.1 3.4-2.1-3.4m4.95 35.2q.05-15.45-8.45-30 8.5 14.55 8.45 30m-7.8-19.6Q47-35.8 44.45-23 47-35.8 40.6-48.55" transform="translate(115.9 244.55)"/><path fill-rule="evenodd" fill="#8c5f30" d="m47.2-179.5 1.4.65 2.85 3.05 6.1 6.6 1.75 2.45 2.1.9 1.15.5.6-.3-.75 2.55-.5 3.9-1.35.65-2.5.55-2.5-3.6.4-3 1.2-3.45.4-1.15-.4 1.15-9.95-11.45m37 11.85.55 2.3-1.4-.7-2.4-.45-1.85.45-2.9 1.8-1.6 1.85-1.55 3.7-1.95 2-2.6.85-3.75-1.1-1.35-5 .45-2.3L65.5-167l2.6-2.85-1.85 5.4.65 1.5.7 1.55.2.45 3.35-.8 4.45-4 4.35-2.8h2.8l1.45.9M-12.4-80.3l-8.9-4.05-3.2-2.5 14.9-18.95v-11.95l9 3.85 3.75.65-3.1 13.9L-12.4-80.3m36.95-116.3 1.8 2.2 5.05 4.2-4.3 7.8-6.5 15.05-4.35 7.85-4.25 3.2-4.85-4.5-1.2-3.85 8.25-6.2 5.85-11.55 2.3-8.75 2.2-5.45m61.55 33.75h-.05l.05-.05v.05m-12.4 8.2-.15-.1L75-158.7l1.45-1.65 32.45 17.75-2.75 5.2v1.55l-32.45-18.8M10.5-137.8l-4.15 10.4-1.9-.65-5-3.15 1.4-12.15 4.75 3.2-3.8 7.05 2-1.75 3.95-3.45 2.75.5M-14.95-205v-2.15l.65-1.4 1.45-3.1v4.3h2.25l1.95-.9 1.95-.95-.85 1.5-1.35 2.45 1.35-2.45 1.45 3.6h3.8l-2.8 4.05h-2.8l-2.4-2.8 1.4-2.4-3.15 2.6-1.9-.8-1-1.55m29.6 17.3-5.9-4.65-.65-5.5 7.75 6.35-1.2 3.8" transform="translate(115.9 244.55)"/><path fill-rule="evenodd" fill="#4b2714" d="m84.75-165.35 6.3 3.4-4.95-.9v-.05l-.05.05-1.15.2-2.75.55-2.7.55-2.4.45-.6.75L75-158.7l-1.45 3.95.15.1-.55 4 33.15 21.4v2.7l.25 1.95-30.8-20.2-2.15 1.05h-1.85l-3.65-1.45-3.75-3.05-2.05.55-2.95-1.25-2.25-2.85 3.25 1.8h1l2.15-.55 2.8 2.6 1.95.9 2.4-.45 1.6-.6-.65-1.45v-4.2l.9-3.65.55-1.3 1.55-3.7 1.6-1.85 2.9-1.8 1.85-.45 2.4.45 1.4.7M29.85-19l-1-1.65 2.55-.4 2.6-.35 7.95-1.2 2.5-.4 8-1.2.65.7 8.4 9.7-11.45 2-.4-3.4-2.6-2.85h-5.6l-3.4 2.55-.35 5.8-2.05.4-3.15-5.25-.85-1.4-1.8-3.05M6.65-188.65l-6.7-4.7-2.1 1.85H-5.4l-2.7-1.7-.5-1.05-3.35-.6-2.55-4.5-.45-.65 2.6 2.15 2.05-.1 3.1 3.4h2.1l2.15-.8-.9-2.35 17.9 11.9-.6 1.85-6.8-4.7M-15.1-199.7l-18.7-12.1-3.05-1.95-1.25-3.5v-.85l23.15 14.05v4.05l-.15.3m90.85 54.9-2.85-1.85-.65-1.45.65 1.45 2.85 1.85m-11.4-3.45-.85-2.3.85 2.3M48.1-60.05l-3.3-4.3-2.6-3.3L22.85-92.8l10.6-9.6 26.6 42.3-6 7.7-5.95-7.65M-.05-193.35l-2.9-2 2.9 2m-10.25-4.6 1.7 3.7-1.7-3.7M35.45-93.8l-1.25-1.6h-2.15l-1.45 1.65 1.85 3.2 2.05-.95.95-2.3" transform="translate(115.9 244.55)"/><path fill-rule="evenodd" fill="#5c3618" d="M53.85-154.05v.4l-1.75 6.95-1.85 1.45-4.85 3.65-9.95 4.7-6.4.7-4.85-5.7 7.75-1.5 7.05-5.45 4.35-4.55v-7.05 7.05L39-148.85l-7.05 5.45-7.75 1.5-6.05-7.2 6.3.8 7.5-2.5 5.35-6.8-5.35 6.8-7.5 2.5-6.3-.8-6.15-7.2 6.85 3.7h5.9l4.3-1.15 4.25-5.9.9-6.45 9.15 5.65 4.8 2.9v.2l.2-.05 5.5 3.35" transform="translate(115.9 244.55)"/><path fill-rule="evenodd" fill="#a3764a" d="m52.1-146.7-5.4 8.95-1.3 2.15-1.25.7 6.1-10.35 1.85-1.45m-17.45 29.75L29-105.3l4.8 1.5 27.45 43.5-7.15 8-.05-.1 6-7.7-26.6-42.3-10.6 9.6 8.45-10.4-10.9-3.9.7-.65 5.2 1.6 3.9-8.4 4.45-2.4M52.75-52l7.5 32.45 1 4.35.3 1.35-.05.05-8.4-9.7 6.7 6.4L52.75-52m9.95 32.45 3.65 3.95 1 3.05 6.2 10.25L76-1.25 77.65 1l.25 1.7v17.9L75.65 1.9l-3.9-3.3-6.2-.8 5.6-1.15L65.5-13.9l-2.8-5.65m4.65 7L65.5-13.9l1.85 1.35m6.2 10.25-2.4-1.05 2.4 1.05M29-105.3l-2.7-.85 2.7.85m4.8 1.5-10.95 11 10.95-11" transform="translate(115.9 244.55)"/><path fill-rule="evenodd" fill="#613a1b" d="m57.1-151.8-.4-.5-1.35-4.85 2.85 4.2h1.9l.95-.2 1.6-.9v.6l3.15 3.6h2.65L70.8-151l.8-1.65v3.1l.65 1.45-1.6.6-2.4.45-1.95-.9-2.8-2.6-2.15.55h-1l-3.25-1.8m51.8 9.2.55-1 2.8-1.15 2.75-1.15-2.65 1.85-.4.45-3.85 4.5-.3 1-1.5 4.7v4.15l-33.15-21.4.55-4 32.45 18.8v-1.55l2.75-5.2m-46.25-10.85v.5l.85 2.4-.85-2.4v-.5M20.4-107.1l10.9 3.9-8.45 10.4L9-96.9l11.4-10.2" transform="translate(115.9 244.55)"/><path fill-rule="evenodd" fill="#748ba2" d="m46.7-137.75.95 1.95-2.8 2.9-6.05 1 5.35-3 1.25-.7 1.3-2.15" transform="translate(115.9 244.55)"/><path fill-rule="evenodd" fill="#71818e" d="m44.95-131 .05.6v1.65l-2.15 2.3-.75.05 2.85-4.6m-71.25-29.75-.3-2.15 1.25-.5-.95 2.65m-.05 4.1v-1.1l1.35-1.3v1.85l-1.35.55m4.4 6v1.35l-.35.8-1.15.9v-1.2l-.1-.75 1.6-1.1m3.4 12.9.65-.9h1.2l1.05.25v1.05l-1.3.95q-.2.15-.5.25l-1.1-1.6m13.4 11.95v1.9l-1.5.55-1.1-1.45.45-.75.55-.65 1.6.4m34.05 6.25-1.75.8-.5-1.9.65-.9h1.45l.5.7-.35 1.3m8.1-6.05 1.05-1.05v1.85L37-123.5v-2.1m-23.35 7.1-.6.25-.8.45-.95-.4v-.8l.95-1.2 1.4 1v.7" transform="translate(115.9 244.55)"/><path fill-rule="evenodd" fill="#6ba0c7" d="m47.65-135.8-2.7 4.8-2.85 4.6-1.5 2.45-2.25 2.05 6.5-11 2.8-2.9" transform="translate(115.9 244.55)"/><path fill-rule="evenodd" fill="#b2967b" d="m68.65-59.25-.1-.1-1.2-6.8-1.65-1.6q-4.8-5.1-6.25-11.65l-8.35-4.55 7.8-3.25q.3-4.8 2.25-8.9l-.5-4.35 1.85 1.9.85-1.3 2.35-2.85q1.6-1.7 3.35-3v1.4l1.3 1.85 2.9 1.15h2.5l13.75 3.1 2.1 1.65-12.7 7.95-5.7 6.45-9.55-5.45L55-84.3l5.3 5.35 2.4 1.3 7.1.45-2.45 11.05 1.35 1.05-.05 5.85m12.4-50.65 1.3-.05q6.25 0 11.35 2.95l1.1-1-1.8 4.85-4.85 1.35 1.4-1.3-5.65-3.7-2.85-3.1m19.5 8.9 7.65-1.4-6.3 3.25-1.35-1.85m-6.85-6-4.15 3.9 4.15-3.9M77.85-96.6l-4.1-2.2-3.6-.75-6.75 4.35 2.55 6.95 5.25 2.65 6.65-6.7v-4.3M62.5-98.55l-1.35 2.45 1.35-2.45m-2.2 19.6-.85-.45.85.45m-1.4-8.25 2.7-1.15 2.05.75-2.05-.75-2.7 1.15" transform="translate(115.9 244.55)"/><path fill-rule="evenodd" fill="#5b5856" d="m78.95-60.75-3.9-.9-.4-.15q-1.15-.4-2.25-.95 1.1.55 2.25.95l-.15.3-5.35 2.6-.5-.35.05-5.85q1.75 1.4 3.7 2.35l5.35-8.75 3.2-3.1 2.95 3.35-2.05-15.25 5.8 1.05.9 2.85-.7 2.45-3.95 8.9h.6l3.6.3-9.15 10.2m-18.3-39.7 2.7.6-.85 1.3-1.85-1.9M73-120.3l8.05 10.4 2.85 3.1v2.45l-2.2 1.75-3.45 1.3h-2.5l-2.75-19M94.8-108l1.05-1 .6 3.9.05.55.9 6.25-.9-6.25 4.25 4.85.35.7-3.7.7-1.1 1.75h-4.7l-2.1-1.65-1.35-2v-1.6l4.85-1.35 1.8-4.85m13.4 5.6 1.95-.3-5.4 9.45q-1.05-3.1-2.85-5.9l6.3-3.25m-2.6 13 .9-.1.9-.1h2.3l.4 1.3-8.9 3.15-1 1.1-1.3-.4-.45-.65-.55-.75v-.9.9l.55.75.45.65 1.3.4 1.35.4 3.5-.95-.55 5.15-4.65.75-3.9 2.25-5.75-6.7 7.7-3.6v-1.05l1.65-.8H96.1L94-87.55l-1.4-.3v-2.6L96.75-92l.9.15.2.05 2.4 1.4 1.75.5.6.9 2.4-.3.6-.1m-3 .4-3.05.4 3.05-.4M79.2-76.6l-9.4-.6-7.1-.45-2.4-1.3L55-84.3l8.65-3.3 9.55 5.45 2.3 1.35 3.7 4.2m22.05-6.65.3-.4-.3.4-2.75-.05-2.4.95-.65 1.4.15.35 2.25-.4 3.05-1.9.35-.35m-2.8-1.85-1.2.5h-3.3l-1.2.8.05 1.8 2.25 1.5.55-.1-.55.1L92.8-82l-.05-1.8 1.2-.8h3.3l1.2-.5M62.7-77.65l1.95-1.75.75-1.8v-2.6l-.4-1.8-1.35-2 1.35 2 .4 1.8v2.6l-.75 1.8-1.95 1.75" transform="translate(115.9 244.55)"/><path fill-rule="evenodd" fill="#414649" d="m127.9-107.2-5.25-1.75-5.3-5.45h-4.3l-2.9-2.3-3-3.45-.6-4.45-.25-1.95v-6.85l2.45 7.25h3.6l2.8-1.8 1.2-.75-.4 1.05 3.7 8.5h2.1l3.5-3.7v7.5l1.55 2.9 2 1.6 4.1 1.6 1.45-.35-1.1 1.35-.5-.55H130l-2.1 1.6m-12.75-10.1-1.25-3 1.2-7.55.05-.1-.05.1-1.2 7.55 1.25 3m2.2 2.9-2.5-5.8 1.1-7.45-1.1 7.45 2.5 5.8" transform="translate(115.9 244.55)"/><path fill-rule="evenodd" fill="#788293" d="m117.6-147.8 3-1.55h4.45l3.1 1.55 1.25 1.7-.7 2-2.85 1-4 3.55-5.25 2.6-4.2-.75-2.1-2.65 1.65-3.25.4-.45 2.65-1.85 2.6-1.9m15.7 4.8h2.65l-5.45.6-6.45 3.35-3.35 3.05 1.5 2.4 3.65.85h1.85l2.9-2.75 4.95-2.75 2.05.65h1.3l1.7-1.55-.8-2 1.25.6.6 2.35-1.6 1.6-3.75-1-3.1 1.3-3.2 2.9-1.2 1.4-3.15 1.25-3.9-.75-2.4-4 4.7-4.45 6.6-3.1 2.65.05M9.65 17.45l2.1-8.3-.95-6.55V-.1L15-3.35l1.7-1.4L20.5-6l2.15.55 4.3 1.1 4.05 1 37.6 6.3L21.25-.1l-1.7-.65-.75 2.95-.4-3.8-3.05 3.4v5.4l-2 5.2-3.7 5.05m117.95-162.2.85-1.45-.55-1.5-4.1-1.25-4 .65-7.85 6.05-.5 1.8 3.1 2.05 4.45-.75 5.45-4.05 3.15-1.55" transform="translate(115.9 244.55)"/><path fill-rule="evenodd" fill="#c1deec" d="M118.5-144.5q1.2-.6 2.55-1l.4-.1-.25-.15.75.25.2.4q.35 1.2-.7 1.9-2.4 1.65-4.4.15.5-.95 1.45-1.45m14.7 4.05.2.2.05.3-.05.15-.15.15-.4.25h-.1l-.25.4q-2.65 2.1-6.4 2.55-.4 0-.7-.3l.1-.25q.5-1.05 1.5-1.6l2.7-1.1 2.9-.75h.6" transform="translate(115.9 244.55)"/><path fill-rule="evenodd" fill="#69a6d1" d="M135.95-143q1.9.95 3.85 1.85l.8 2-1.7 1.55h-1.3l-2.05-.65-4.95 2.75-2.9 2.75h-1.85l-3.65-.85-1.5-2.4 3.35-3.05 6.45-3.35 5.45-.6m-17.45-1.5q-.95.5-1.45 1.45 2 1.5 4.4-.15 1.05-.7.7-1.9l-.2-.4-.75-.25.25.15-.4.1q-1.35.4-2.55 1m9.1-.25-3.15 1.55-5.45 4.05-4.45.75-3.1-2.05.5-1.8 7.85-6.05 4-.65 4.1 1.25.55 1.5-.85 1.45m5.6 4.3h-.6l-2.9.75-2.7 1.1q-1 .55-1.5 1.6l-.1.25q.3.3.7.3 3.75-.45 6.4-2.55l.25-.4h.1l.4-.25.15-.15.05-.15-.05-.3-.2-.2" transform="translate(115.9 244.55)"/><path fill-rule="evenodd" fill="#776d62" d="m128.15-147.8 1.9.9 3.25 3.9-2.65-.05-6.6 3.1-4.7 4.45 2.4 4 3.9.75 3.15-1.25 1.2-1.4 3.2-2.9 3.1-1.3 3.75 1 1.6-1.6 2.25 3.9 1.95 7.25v5.7l-.45 1.7-.1-.4-.55-.25v-6.15l-1.35-5.15-3.95-4.4H135l-4.35 3.65-3.85 3.45-.25.9-3.7 2.15h-2.55l-3.15-5.3.45-1.3-.95.2.95-2.75 2.8-2.9-2.8 2.9-.95 2.75-4.25.75-3-1.45-1.6-5.15.3-1 3.85-4.5-1.65 3.25 2.1 2.65 4.2.75 5.25-2.6 4-3.55 2.85-1 .7-2-1.25-1.7m-8.8 12.3-1 .95-.75 2.1.75-2.1 1-.95" transform="translate(115.9 244.55)"/><path fill-rule="evenodd" fill="#b8a696" d="m126.55-128 .25-.9 3.85-3.45-2.7 3.5-1.55 4.75v8.9l2 3.05q2.55 1.3 5.05 2.55h.9l-1.45.35-4.1-1.6-2-1.6-1.55-2.9v-8.5l1.3-4.15" transform="translate(115.9 244.55)"/><path fill-rule="evenodd" fill="#565653" d="m126.55-128-1.3 4.15v1l-3.5 3.7h-2.1l-3.7-8.5.4-1.05.8-2.45-.8 2.45-1.2.75 1.5-4.3-1.5 4.3-2.8 1.8h-3.6l-2.45-7.25 1.5-4.7 1.6 5.15 3 1.45 4.25-.75.95-.2-.45 1.3 3.15 5.3h2.55l3.7-2.15" transform="translate(115.9 244.55)"/><path fill-rule="evenodd" fill="#2d2f39" d="M134.35-109.6h-.9q-2.5-1.25-5.05-2.55l-2-3.05v-8.9l1.55-4.75 2.7-3.5L135-136h4.45l3.95 4.4 1.35 5.15v6.15l-2.85-1.5-.2.4-.55 1.15 2 3.75-.45 1.05-1.6.85-1 1.05-.45-1.15-2 .9-.45.55-.95-2.55.65-3.7-1.3-2.35-2.05.95-.65 3.8.8 3.25 2.4 2.05-1.75 2.2m-84.3 97.8.45 4.45-2.7 2.25h-6.9l-3.35-1.55.15-3.05.35-5.8 3.4-2.55h5.6l2.6 2.85.4 3.4" transform="translate(115.9 244.55)"/><path fill-rule="evenodd" fill="#615e59" d="m135.65-105.25.45.75v.6l-1.6 1.8-.5 1.2-6.55 5.05-1.25.6-.75.55-1.6-.55 1-.8.6-1v-.05h1.8l6.7-6.3v-1.1l1.7-.75m-13.6 11.35.3.5-2.55 3-6.6 4.35-2.2.9-.95.65-2.6-.8 1.6-1.15 1.9.4L118.9-91l.4-.75 2.75-2.15m-15.55 4.4 1.1-1.9 8.75-5.65 2.7.9 2.05-1.9v-2.3l.25-.7 2.65-3.15 3.9-3 2.1-1.6h2.75l.5.55 1.1-1.35 1.75-2.2-2.4-2.05-.8-3.25.65-3.8 2.05-.95 1.3 2.35-.65 3.7.95 2.55.45-.55 2-.9.45 1.15 1-1.05 1.6-.85.75-.4-.3-.65-2-3.75.55-1.15 2.95 2.7v2.9l-.85 1.95-1.05 1.4-1.85.95h-.8l.2-.45.2-.45-.4-1.15.4 1.15-.2.45-1.6 1.4-2.45 4.05-2.4 1-.9 1.15-.95.15-1.3-1.15-6.25 5.35h.7l.85 1.95-.55.95v.05l-1.75.7-5.7 3.85-1.05 1.2-.9-.7.7-2.05.45-.4h-1l-6.8 4.85h-2l-.9.1m30.7-23.75-1.1 1.45 1.1-1.45M124.45-100h-1.25l-2.1 1.95 2.1-1.95h1.25m6.25-5.35.9-.75 1.65-2.15-1.65 2.15-.9.75m-11.65 9.2-1.85 1.7 1.85-1.7" transform="translate(115.9 244.55)"/><path fill-rule="evenodd" fill="#a08b76" d="m141.05-140.55 3.7 4.9 2.25 7.85v7.05l-1.15 2.45.4 1.35-1.35 3.5-1.7.85-.45.15 1.05-1.4.85-1.95v-2.9l-2.95-2.7.2-.4 2.85 1.5.55.25.1.4.45-1.7v-5.7l-1.95-7.25-2.25-3.9-.6-2.35m-2.25 31.6-1.4 2.95-1.75.75-1.7.75-1 .15.9-1.15 2.4-1 2.45-4.05 1.6-1.4-.2.45-1.2 2.4-.1.15m-2.7 5.05v2.55l-9.05 7.15-1.6-.5.75-.55 1.25-.6 6.55-5.05.5-1.2 1.6-1.8m-12.25 8.65-1.8 1.35-2.75 2.15-2.35.45 1.05-1.2 5.7-3.85 1.75-.7-.6 1-1 .8m-1.5 1.85.2.45-.55 1.8-6.05 4.8-4.7 2.2-1.2-.35.95-.65 2.2-.9 6.6-4.35 2.55-3m-14.9 8.1-1.55.45q-.05 2.75-.55 5.25-.8 3.85-2.75 7.15l4.3 6.85-10.85.8 9.65-1.4-5.05-7.95.7-.25.85 1.4 2.1-4.95.2-1.5.55-5.15.85-.25-.85.25-3.5.95-1.35-.4 1-1.1 8.9-3.15-1.05 1.85-1.6 1.15m-11.8 20.5q-5.8 4.3-13.3 4.3l-2.4-.1 6.65-.85 9.05-3.35m.8-40.3 2.55 2.4 1.55 1.7 1.35 1.85q1.8 2.8 2.85 5.9l.85 3.85-.6.1-.15-.75-1.6-4.85-2.15-4.1-.35-.7-4.25-4.85-.05-.55m48.95-14.55.45 1.35-.45-1.35M97.85-91.8l3.2.45.95 1.45-1.75-.5-2.4-1.4m-8.65 9.15V-80l-4.7 8.75h-.6l3.95-8.9.7-2.45-.9-2.85.65.1.9 2.7m13.4 10.2-.4-.55.4.55m-1.35-10.8-.35.35-3.05 1.9-2.25.4-.15-.35.65-1.4 2.4-.95 2.75.05" transform="translate(115.9 244.55)"/><path fill-rule="evenodd" fill="#525d69" d="m143.2-112.6-.55 1.2-3.6 2.35-.15-.05 1.2-2.4h.8l1.85-.95.45-.15M60.25-19.55h2.45l2.8 5.65-1.85-1.3h-2.4l-1-4.35m-38.1 6.7v-2.95L25.2-19h4.65l1.8 3.05-5.7-.7-3.8 3.8m-46.9-152.05.75-.35 2.2-.9-.8 2.45.75 3.1 2.45 5.1 3.55 7.55 3.5 4.7 1 1.35 4.95 5.35 5.85 5.35 5 3.15 1.9.65 3.85 1.35h5.45l6.7-.5 7.7-1.9 7.9-3 .85-.45 6.05-1-4.9 3.15-9.45 3.8-9 2.2-9.05.6-7.1-1.7-5.55-3.25-8-6.35-7.45-9-4.45-7.4-3.7-9.5-.55-4.7-.4.15m167.45 49.45.45-1.05.3.65-.75.4M-24-165.25l-.35.2.35-.2M35.45-93.8l-.95 2.3-2.05.95-1.85-3.2 1.45-1.65h2.15l1.25 1.6" transform="translate(115.9 244.55)"/><path fill-rule="evenodd" fill="#6d645c" d="m83.9-106.8 5.65 3.7-1.4 1.3v1.6l1.35 2-13.75-3.1h2.5l3.45-1.3 2.2-1.75v-2.45m17.2 7.8 2.15 4.1 1.6 4.85.15.75-2.4.3-.6-.9-.95-1.45-3.2-.45-.2-.05-.9-.15-4.15 1.55v2.6l1.4.3 2.1-1.05h3.45l-1.65.8v1.05l-7.7 3.6-1 .5-.9-2.7-.65-.1-5.8-1.05-4.15 2.6-2.2 3.1-2.3-1.35 5.7-6.45 12.7-7.95h4.7l1.1-1.75 3.7-.7M80.95-74.6l-3.2 3.1-5.35 8.75q-1.95-.95-3.7-2.35l-1.35-1.05L69.8-77.2l9.4.6 1.75 2" transform="translate(115.9 244.55)"/><path fill-rule="evenodd" fill="#be9f89" d="M77.85-96.6v4.3l-6.65 6.7-5.25-2.65-2.55-6.95 6.75-4.35 3.6.75 4.1 2.2" transform="translate(115.9 244.55)"/><path fill-rule="evenodd" fill="#45484b" d="M96.05-64.8h-.4l-.65-.65-.5-1.45.4-2 1.65-2.9 1.95-1.7 2.15-.65-2.15.65-1.95 1.7-1.65 2.9-.4 2 .5 1.45.65.65-9.05 3.35-6.65.85-1-.15 9.15-10.2-3.6-.3L89.2-80v-2.65l1-.5 5.75 6.7 3.9-2.25 4.65-.75-.2 1.5-2.1 4.95-.85-1.4-.7.25 5.05 7.95-9.65 1.4" transform="translate(115.9 244.55)"/><path fill-rule="evenodd" fill="#8d7d6e" d="m81.85-86.5 2.05 15.25-2.95-3.35-1.75-2-3.7-4.2 2.2-3.1 4.15-2.6" transform="translate(115.9 244.55)"/><path fill-rule="evenodd" fill="#ba9e80" d="M69.05-105.7 73-120.3l2.75 19h-2.5l-2.9-1.15-1.3-1.85v-1.4" transform="translate(115.9 244.55)"/><path fill-rule="evenodd" fill="#5b3518" d="m54.05-52.4-1.45-.4-6.35-8.15 1.85.9 5.95 7.65" transform="translate(115.9 244.55)"/><path fill-rule="evenodd" fill="#5c3719" d="m52.6-52.8.15.8 7.05 34.9-6.7-6.4-.65-.7-6.2-36.75 6.35 8.15" transform="translate(115.9 244.55)"/><path fill-rule="evenodd" fill="#645d5a" d="m77.9 20.6-13.8 1.9-52-2.6-2.45-2.45 3.7-5.05 2-5.2V1.8l3.05-3.4.4 3.8.75-2.95 1.7.65L68.6 2.95 31-3.35 64.2-2l1.35-.2 6.2.8 3.9 3.3 2.25 18.7" transform="translate(115.9 244.55)"/><path fill-rule="evenodd" fill="#eeb16f" d="m-26.45-229.2 19.5 13.35 4.15-1.6L1.3-216l.65 2.55h-4.9l-5.7 5.2-1.95.9h-2.25v-4.3l3.5-2.75-3.5 2.75-15.6-9.65-.5-3.65-.5-3.65 1.7-1.5 1.3.9m19.5 13.35-.9.35.9-.35m2 1.15-2.65 2.15-4.15 5.2 4.15-5.2 2.65-2.15m-19.9-9.05 15.5 9.35-15.5-9.35m17 8.25-1.5 1.1 1.5-1.1-9.6-6.1 9.6 6.1m-7.9-.8-13.2-8.65 13.2 8.65" transform="translate(115.9 244.55)"/><path fill-rule="evenodd" fill="#754f31" d="M-14.95-205v.95L-38.1-218.1v-2.95l.7-1.35 1.35-2.85 2.85-3.2 4.1-2.55 1.35.9-1.7 1.5.5 3.65.5 3.65.2 1.55-.45 1.75 14.4 9.45-.65 1.4v2.15" transform="translate(115.9 244.55)"/><path fill-rule="evenodd" fill="#987046" d="M-14.3-208.55-28.7-218l.45-1.75-.2-1.55 15.6 9.65-1.45 3.1" transform="translate(115.9 244.55)"/><path fill-rule="evenodd" fill="#8591a8" d="m-53.9-235.9.65-.95 2 2.75h4l4.3-4.35H-39l-5.5-4.1 2 .1 5.4 2.2v3.3h-4.05l-7.05 4.65h-4.15l-1.55-3.6m11.85 1.5 2.15-1.6 4-1.05h2.3l3.4 1.2 1.1 2.1-1.3 1.5-3.1 1.45-3 3.8-4.25 2.05-3.4-1.95-.85-1.7.3-2.4 1.5 2.45 5.6.15v-2l6.25-3.05-1.4-2.3h-3.15l-6.7 2.65.55-1.3" transform="translate(115.9 244.55)"/><path fill-rule="evenodd" fill="#85a4d1" d="m-53.25-236.85 1.2-1.8 1.8-1.6 1.75-1.25 1.95-1.15 2.05.1 5.5 4.1h-3.95l-4.3 4.35h-4l-2-2.75m11.2 2.45-.55 1.3 6.7-2.65h3.15l1.4 2.3-6.25 3.05v2l-5.6-.15-1.5-2.45 1.45-2.6 1.2-.8" transform="translate(115.9 244.55)"/><path fill-rule="evenodd" fill="#87817c" d="m-55.7-233.25 1.8-2.65 1.55 3.6h4.15l7.05-4.65h4.05v-3.3l-5.4-2.2-2-.1-2.05-.1 2.5-1.15H-41l3.5 1.15q1.7 1.15 2.9 2.7.95 1.6 1 2.9h4.65l2.5 4v3.85l-1.3-.9-1.35-.9-4.1 2.55-2.85 3.2-1.35 2.85-3.05 1.35h-3.3l-2.75-6 .35-1.4 1.45-2.55-1.45 2.55-3.95 2.05-3.15-1.95-2.45-4.9m22.1-3.8h-2.3l-4 1.05-2.15 1.6-1.2.8-1.45 2.6-.3 2.4.85 1.7 3.4 1.95 4.25-2.05 3-3.8 3.1-1.45 1.3-1.5-1.1-2.1-3.4-1.2" transform="translate(115.9 244.55)"/><path fill-rule="evenodd" fill="#6c6c6c" d="m-33.8-211.8-1.9 1.35-2.2 1.05-3.1-1-3.95-2.7-.9-1.8-1.55.9h-1.95l-2.85-2.1-2.85-4.2-.7-3.05-.35-1.5-.35-1.55.15-1.25.6-5.6 2.45 4.9 3.15 1.95 3.95-2.05-.35 1.4 2.75 6h3.3l3.05-1.35-.7 1.35v3.8l1.25 3.5 3.05 1.95m-12.7-15.25-1 4.05.75 6.35.9 1.75-.9-1.75-.75-6.35 1-4.05" transform="translate(115.9 244.55)"/><path fill-rule="evenodd" fill="#b3b3b3" d="M-65.7-220.35v1.8l-1.05 1.45-8.65 3.4h-1.75l-.8-.5 1.75-1.5h1q3.45-1.55 6.85-3.15l.95-1.5h1.7m-13.55 3.55-.65-1.65 2-3.05 8.45-3h2.15l.85 1.2-.3.2-1.25 1.2h-1.5l-6.6 2.85-.85.6-2.3 1.65" transform="translate(115.9 244.55)"/><path fill-rule="evenodd" fill="#898887" d="m-55.75-223.35-1.9 1.8h-4.1l-2.85 1.2h-3.2l-.65-1.1.45-.45 1.25-1.2.35-.1 3.15-.9 1.45-2.3 3.15-1.65h1.8l.55.4-.15 1.25-1.25.25-3 1.3-.8.5h.75l.65 1.35-.25.15-1.4 1.3 1.4-1.3.7-.25 1.25-.35 2.3-1.4.35 1.5m-7.5-.75.85-.25h.9-.9l-.85.25" transform="translate(115.9 244.55)"/><path fill-rule="evenodd" fill="#c0c5c7" d="m-66.45-223.3.05.1-.35.1.3-.2m6.35.3h.05l-.3.15.25-.15" transform="translate(115.9 244.55)"/><path fill-rule="evenodd" fill="#c5c5c5" d="m-77.95-214.2-1.45 1.2-1.45 1.2h-1.55l-.95-.95.85-1.35.35-.6.85-.6 2.05-1.5 2.3-1.65 1 .55.7.85-.95 1.35-1.75 1.5m-1.6 22.05-3.2 7.2-1.2.35-1.75-.8-.75-.85 6.9-5.9m-2.35 13.4 4.5 4.05-6.85 3.15q2.1-3.2 2.35-7.2m-11.95 13.65-3.2 4.4-2.2-4.35 1.6.2h.9l2.9-.25m-17.4-18.25-3.9-8.25 7.9 1.2.95-.8.5 5.8-2.55-3.7q-2.1 2.55-2.9 5.75m5.65-13.1 3.45 2 .85.5 4.9 3.1v1.5l-.65 1.45-1.2 1.5-1.05.65-6.3-10.7m-1.7 6.15-1.05 1.2 1.05-1.2.05-.1-.05.1m12.3 8.85 3.75.7 1.2 1.55.45 3.65-1.15 2.55-2.15 1.3h-2.9l1.95-4.9-1.15-4.85" transform="translate(115.9 244.55)"/><path fill-rule="evenodd" fill="url(#a)" d="m38.35-121.9-2.25 1.95-1.2 1.1-7.1 3.5-6.6 1.65h-8.15l-7.35-.7-8.3-2.4-7-3.65-7.3-7.35-5.6-7.9-2.65-5.55-2.4-10.8-.7-3.15 1.95-5.55.95-2.65.5-1.45.1-.05.4-.15.55 4.7 3.7 9.5 4.45 7.4 7.45 9 8 6.35 5.55 3.25 7.1 1.7 9.05-.6 9-2.2 9.45-3.8 4.9-3.15-6.5 11m-64.7-34.75 1.35-.55v-1.85l-1.35 1.3v1.1m4.4 6-1.6 1.1.1.75v1.2l1.15-.9.35-.8v-1.35m3.4 12.9 1.1 1.6q.3-.1.5-.25l1.3-.95v-1.05l-1.05-.25h-1.2l-.65.9m13.4 11.95-1.6-.4-.55.65-.45.75 1.1 1.45 1.5-.55v-1.9m18.8 7.3v-.7l-1.4-1-.95 1.2v.8l.95.4.8-.45.6-.25M37-125.6v2.1l1.05-1.3v-1.85L37-125.6m-8.1 6.05.35-1.3-.5-.7H27.3l-.65.9.5 1.9 1.75-.8" transform="translate(115.9 244.55)"/><path fill-rule="evenodd" fill="#f7bf81" d="m-35.6-126.3 7.75-24.8.3 1.7v24.15l-4.35 17.15-3.7-18.2m13.8-39.85 2.85-9.2 2.05 10.8 1.15 1.9-3.65 7.15-2.45-5.1-.75-3.1.8-2.45" transform="translate(115.9 244.55)"/><path fill-rule="evenodd" fill="#89674a" d="m-28.35-89.9-3.7 3-3.55-1.45.65-1.05-4.15-8.35-5.95-2.7-14.05-28.15 11.75-8.5 9.9 7.05 1.85 3.75-4.7 14.95 2.3 8.55 6.35 10.25 3.3 2.65m-9.1-40.15-12.65 7.35-9-5.9 9 5.9 12.65-7.35m-12.65 7.35 18.05 35.8-18.05-35.8" transform="translate(115.9 244.55)"/><path fill-rule="evenodd" fill="#af793e" d="m-24.5-86.85-3.7-3-1.9-9.15 8.8-20.9 2.05-8.4.85 1.6 7.8 8.55 1 .4v11.95l-14.9 18.95m16.6-64.4 7.1 6.8 1.65 1.1-1.4 12.15-5.85-5.35-4.95-5.35-1-1.35 4.45-8" transform="translate(115.9 244.55)"/><path fill-rule="evenodd" fill="#d59a5b" d="m-19.4-155.5 3.65-7.15 5.4 9.05 2.45 2.35-4.45 8-3.5-4.7-3.55-7.55m-8.15 6.1 1.75 9.7 6.55 11.4-2.05 8.4-8.8 20.9-1.8-9.1 4.35-17.15v-24.15" transform="translate(115.9 244.55)"/><path fill-rule="evenodd" fill="#f8c898" d="m8.65-142.55-.9 4.25-3.95 3.45 4.85-7.7" transform="translate(115.9 244.55)"/><path fill-rule="evenodd" fill="#d8d9d7" d="M-79.4-213v2.4l-7.05 4.7-2.7.45h-.9l-3.3 2.7.5 2.75-2 4.5-.75.9q4.3.3 7.65 2.8l8.5-1.4.3.15-.4.9-6.9 5.9.75.85 1.75.8 1.2-.35q.9 2.4.9 5.2l-.05 1q-.25 4-2.35 7.2l-2 2.3q-3.25 3.35-7.6 4.15l-2.9.25h-.9l-1.6-.2q-4.4-.7-7.7-3.85l-.35-.35v.35l-6.65.1 3-6.35q-.7-2.15-.7-4.6 0-1.9.4-3.6.8-3.2 2.9-5.75l2.55 3.7 1.5.75h1.4l2.55-.4 1.05-.7-1.05.7-2.55.4h-1.4l-1.5-.75-.5-5.8-.65-6 1.35.75 6.3 10.7 1.05-.65 1.2-1.5.65-1.45v-1.5l-4.9-3.1-.85-.5-.6-3.2 3.65-6.05 3.35-.7 3.05-3.65.5-2.15 6-4.95 3.1-1.3 1.8 1.15-.85.6-.35.6h-1.2l-6.5 4.25-.85 1.4 1.1.45.6 1.15h1.8l4.7-3.45 1.2-1.5h.8l1.45-1.2m-9.95 6.15-.7 1.4.7-1.4m-3.35-1.2 1.65-.4-1.65.4m-4 5.35-1.25.75-2.45 5.2.25 2.5-1.15.3 1.15-.3 2.5-.35h.1l.9-1 1.5-3.95v-1.7h-1.05l-.75-.95.25-.5.95-1.7-.95 1.7m3.35-.05-1.8 1.5 1.8-1.5m-2.25 8.15-1.15-.05-.8.05.8-.05 1.15.05m9.15 8.35-.7-.85-1.2-2.8.4-1.9-.4 1.9 1.2 2.8.7.85m-9.35 14.55h2.9l2.15-1.3 1.15-2.55-.45-3.65-1.2-1.55-3.75-.7 1.15 4.85-1.95 4.9-3-1.15-.95-3.25 1.4-3.05 2.2-2.1 1.15-.2-1.15.2-2.2 2.1-1.4 3.05.95 3.25 3 1.15m-15.15-3.45q1 3.3 3.65 5.9-2.65-2.6-3.65-5.9" transform="translate(115.9 244.55)"/><path fill-rule="evenodd" fill="#d4d2d1" d="M-71.25-34.7v.45l-2.9.7-2.3 1.5h-1.85l-20.65-11.6-.75-1 1-2.85-1.15-2.7v-1.7l.9-1.55 4.8-2.2 1.85.5 1.1.65 18.25 10.35 1.65 1.3.4.3v1.75l-.7 3.2.35 2.9m-24.6-14.4-1.4-1.9 1.4 1.9m-1.5-.8-1-1.9 1 1.9m21.75 9.25v-1.25 1.25m.6-.15v-.95.95m2.5-1.5-1.85.85 1.85-.85m-5.45 9.7v-2.95l1.15-2.35.5-1.95-.5-1.3.5 1.3-.5 1.95-1.15 2.35v2.95m-.55-8.5-16.95-8.5 16.95 8.5" transform="translate(115.9 244.55)"/><path fill-rule="evenodd" fill="#94918e" d="m-68.95-52.35-.7 1.8-2.75 2.4-2.3 1.2-2.6-.55-3.4-2.5v-3.05l5.95-3.5 1.75-1.1 2.85.4 1.45 1.95v2.15l-.25.8" transform="translate(115.9 244.55)"/><path fill-rule="evenodd" fill="#c2b0a1" d="m-53.65-40.25-17.6 5.55-.35-2.9.7-3.2v-1.75l-.4-.3-1.65-1.3L-91.2-54.5l15-4.2 1.45 2.15-5.95 3.5V-50l3.4 2.5 2.6.55 2.3-1.2 2.75-2.4.7-1.8 6.3 2.95 3.25-4.7 6.9 4.8.45 1.65v6.85l-1.6.55m.35-8.7-18 6.1 18-6.1" transform="translate(115.9 244.55)"/><path fill-rule="evenodd" fill="#a46e38" d="m21.5-76.7-2.25-3.6L42.2-67.65l2.6 3.3L21.5-76.7" transform="translate(115.9 244.55)"/><path fill-rule="evenodd" fill="url(#b)" d="m-62.25-82.05 17.2-18.4 5.95 2.7-19.75 28.15-3.4-12.45" transform="translate(115.9 244.55)"/><path fill-rule="evenodd" fill="url(#c)" d="M-35.6-88.35-56-59l-3.4 4.9-3.25 4.7-4.1-8.9 7.9-11.3 19.75-28.15 4.15 8.35-.65 1.05" transform="translate(115.9 244.55)"/><path fill-rule="evenodd" fill="#fbddbb" d="m-79.4-63.65 17.15-18.4 3.4 12.45-7.9 11.3-12.65-5.35" transform="translate(115.9 244.55)"/><path fill-rule="evenodd" fill="#a59f9b" d="m-56-59 14 6.8 1.3 1.35-.45 3.95.4 3.6-.85.35-2.5.4-8.5 3.15-.8-.4-.25-.45 1.6-.55v-6.85l-.45-1.65-6.9-4.8L-56-59m7.95 8.9-1.45-.45 1.45.45m-1.5.75-1.15-1.05 1.15 1.05m6.4-2.3-3.6.85 3.6-.85" transform="translate(115.9 244.55)"/><path fill-rule="evenodd" fill="#a09182" d="m-76.2-58.7-3.2-4.95 12.65 5.35 4.1 8.9-6.3-2.95.25-.8v-2.15l-1.45-1.95-2.85-.4-1.75 1.1-1.45-2.15" transform="translate(115.9 244.55)"/><path stroke-width=".05" stroke-opacity=".251" stroke-linejoin="round" stroke-linecap="round" stroke="#000" fill="none" d="m136.45 36.75 2.6-3.05 4.9-2.25 5.1-1.3 4.15.95q3.75 1.95 7.45 3.85l5.55 4.8 1.1 4.65-.25 3.05-1.8 5.15-4.9 6.7-2.1 3.5 4.85 2.25 1.4.65 11.65 5.45.4-.65 3.8-2.05 4.45-1h3.1l2.15.95 1.3.5 1.45 2.9.4.75h2.25l3.9 1.15.75 3.2.55 2.3 6.3 3.4q13.3 7.1 26.55 14.15l3-1.55h4.45l3.1 1.55 1.9.9 3.25 3.9h2.65q1.9.95 3.85 1.85l1.25.6 3.7 4.9 2.25 7.85v7.05l-1.15 2.45.4 1.35-1.35 3.5-1.7.85-.55 1.2-3.6 2.35-.25.1-1.4 2.95-1.75.75.45.75v3.15l-9.05 7.15-1.6-.5-1.6-.55-1.8 1.35.3.5.2.45-.55 1.8-6.05 4.8-4.7 2.2-1.2-.35-2.6-.8-1.55.45q-.05 2.75-.55 5.25-.8 3.85-2.75 7.15l4.3 6.85-10.85.8h-.4q-5.8 4.3-13.3 4.3l-2.4-.1-1-.15-3.9-.9-.55.15-5.35 2.6-.5-.35-.1-.1-1.2-6.8-1.65-1.6q-4.8-5.1-6.25-11.65L167 160.6l7.8-3.25q.3-4.8 2.25-8.9l-.5-4.35 2.7.6 2.35-2.85q1.6-1.7 3.35-3l3.95-14.6 8.05 10.4 1.3-.05q6.25 0 11.35 2.95l1.1-1 1.05-1 .6 3.9 2.55 2.4 1.55 1.7 7.65-1.4 1.95-.3-5.4 9.45.85 3.85.9-.1 1.1-1.9 8.75-5.65 2.7.9 2.05-1.9v-2.3l.25-.7 2.65-3.15 3.9-3-5.25-1.75-5.3-5.45h-4.3l-2.9-2.3-3-3.45-.6-4.45-30.8-20.2-2.15 1.05h-1.85L184 99.35l-3.75-3.05-2.05.55-2.95-1.25-2.25-2.85-.4-.5-1.35-4.85-.25-.9.4-3.25-3.15-1.6.7 2.6.8 6.25v.4L168 97.85l-5.4 8.95.95 1.95-2.7 4.8.05.6v1.65l-2.15 2.3-.75.05-1.5 2.45-2.25 2.05-2.25 1.95-1.45 3-5.65 11.65 4.8 1.5 27.45 43.5-7.15 8h-.05v-.1l-1.45-.4.15.8 7.5 32.45h2.45l3.65 3.95 1 3.05 6.2 10.25 2.45 1.05 1.65 2.25.25 1.7v17.9l-13.8 1.9-52-2.6-2.45-2.45 2.1-8.3-.95-6.55v-2.7l4.2-3.25 1.7-4.05 5.45-5.45v-2.95l3.05-3.2h4.65l-1-1.65 4.85-36.3-12.2-19.75-2.25-3.6-2.4-3.9-6.8 3.3-9.65 1.7H106l-2.5-1.1-8.9-4.05-3.2-2.5-3.7-3-.15-.05-3.7 3-3.55-1.45-20.4 29.35 14 6.8 1.3 1.35-.45 3.95.4 3.6-.85.35-2.5.4-8.5 3.15-.8-.4-.25-.45-17.6 5.55v.45l-2.9.7-2.3 1.5H37.6l-20.65-11.6-.75-1 1-2.85-1.15-2.7v-1.7l.9-1.55 4.8-2.2 1.85.5 1.1.65 15-4.2-3.2-4.95 17.15-18.4 17.2-18.4-14.05-28.15 11.75-8.5 9.9 7.05 1.85 3.75 7.75-24.8.3-.95-.7-3.15 1.95-5.55-.3-2.15 1.25-.5.5-1.45.1-.05m.75-.35 2.2-.9 2.85-9.2 3.15-6.25 6.55-4.2 7-2.85h8.9l-6.7-4.7-2.1 1.85h-3.25l-2.7-1.7-.5-1.05-3.35-.6-2.55-4.5-.6-.35-18.7-12.1-1.9 1.35-2.2 1.05-3.1-1-3.95-2.7-.9-1.8-1.55.9h-1.95l-2.85-2.1-2.85-4.2-.7-3.05-1.9 1.8h-4.1l-2.85 1.2h-1.1V26l-1.05 1.45-8.65 3.4h-1.75l-.8-.5-1.45 1.2v2.4l-7.05 4.7-2.7.45h-.9l-3.3 2.7.5 2.75-2 4.5-.75.9q4.3.3 7.65 2.8l8.5-1.4h.35l-.05.15-.4.9-3.2 7.2q.9 2.4.9 5.2l-.05 1 4.5 4.05L31.65 73l-2 2.3q-3.25 3.35-7.6 4.15l-3.2 4.4-2.2-4.35q-4.4-.7-7.7-3.85H8.6l-6.65.1 3-6.35q-.7-2.15-.7-4.6 0-1.9.4-3.6l-3.9-8.25 7.9 1.2.95-.8-.65-6 1.35.75 3.45 2-.6-3.2 3.65-6.05 3.35-.7 3.05-3.65.5-2.15 6-4.95 3.1-1.3 1.8 1.15 2.05-1.5L36 26.1l2-3.05 8.45-3h2.15l.85 1.2.05.1 3.15-.9 1.45-2.3 3.15-1.65h1.8l.55.4.6-5.6L62 8.65l.65-.95 1.2-1.8 1.8-1.6 1.75-1.25 1.95-1.15 2.5-1.15h3.05l3.5 1.15q1.7 1.15 2.9 2.7.95 1.6 1 2.9h4.65l2.5 4v3.85l19.5 13.35 4.15-1.6 4.1 1.45.65 2.55m-.65 1 2.05.55 1.7 1.75 1.7 1.75.65 2.5-.65 2.2 10.45 7.9 3.35-12v4.05l1.1 2.45 1.05 2.45 1.85 2.25 1.8 2.2 5.05 4.2 7.6 1.6h5.8l4.55-3.35m-1.4-7.2-1.1-3.55-3.55-3.75-5.15-3.2-3.8-1.15-4.5.45-2.6 2.65-1.3 4.5 1.8 4.55 4.05 3.85 3.2 1.2.5.2 1.3.45 5.65-1.35 2.3-2.8-.65-2.9-4.45-4.95-3.2-1.9h-3.25l-2.35 2.05-.45 2.8 2.6 3.75 4.05 1.15 2.75-1.6-.5-3.3-2.7-2.15-2.75.8.75 2.15m50.15 35.85-1.4-.7-2.4-.45-1.85.45-2.9 1.8-1.6 1.85-1.55 3.7-.55 1.3-.9 3.65V95l.65 1.45.65 1.45 2.85 1.85m-18.2-24.4-.4 1.15-1.2 3.45-.4 3M184 74.7l-2.6 2.85-1.65 2.75-.45 2.3-.75 3.8v4.7m14.65-18.55-5.65.9L184 74.7m-7.85-3.55-1.35 2.1-1.35 2.1m-7.3 23.95 1.85-1.45M179.4 94l-.85-2.4v-.5m.85 2.9.85 2.3m-20.2 13.35 1.25-.7 1.3-2.15m-1.85 4.85 2.8-2.9m58.65 6.55v2.7l.25 1.95m-.25-8.8v4.15m-25.25 19.35 2.85 3.1v2.45l-2.2 1.75-3.45 1.3h-2.5m13.8-1.8 4.15-3.9M166.15 99.3l-4.85 3.65-9.95 4.7-6.4.7-6.45.65-12.1-2.25m-4.15 10.4 3.85 1.35h5.45l6.7-.5 7.7-1.9 7.9-3 .85-.45 5.35-3m73.45-12.9-2.6 1.9-2.65 1.85-.4.45-3.85 4.5-.3 1-1.5 4.7m13.05-2.1 4.7-4.45 6.6-3.1 2.65.05m1.05 33.4h-.9q-2.5-1.25-5.05-2.55l-2-3.05v-8.9l1.55-4.75 2.7-3.5 4.35-3.65h4.45l3.95 4.4 1.35 5.15v6.15l.55.25.1.4m-28.25-11.5-.8 2.45-.4 1.05-1.1 7.45 2.5 5.8m.25-18.05.75-2.1 1-.95m-2.2 4.35.45-1.3m16.75 22.85 1.75-2.2-2.4-2.05-.8-3.25.65-3.8 2.05-.95 1.3 2.35-.65 3.7.95 2.55.45-.55 2-.9.45 1.15 1-1.05 1.6-.85.45-1.05-2-3.75.55-1.15.2-.4 2.85 1.5m-8.65 8.5 1.1-1.45m-9.3 6.05 2.1-1.6h2.75l.5.55 1.1-1.35m11.5-8.7-.45-1.35m-2.65 7.2.45-.15m-.05-3.9.3.65-.75.4m-2.6 3.95h.8l1.85-.95m-2.45.5-.2.45-1.2 2.4-.1.15m1.3-4.6.4 1.15-.2.45m-7.35 7.6 1-.15 1.7-.75m-2.7.9-.95.15-1.3-1.15-6.25 5.35h.7l.85 1.95-.55.95h1.8l6.7-6.3v-1.1m-.7-3.75-1.65 2.15-.9.75m-9.6 7.3 2.1-1.95h1.25m1 2.95v-.05m0 .05-.6 1-1 .8m-14.45 5.65h.3l.4 1.3-1.05 1.85 1.9.4 7.95-4.95.4-.75-2.35.45-.9-.7.7-2.05.45-.4h-1l-6.8 4.85h-2l-.9.1m10.7-4.95 1.85-1.7m-10 9.7-1.6 1.15m14.6-8.6-2.75 2.15m-18.75-9.25 1.35 1.85q1.8 2.8 2.85 5.9m.25 3.95.6-.1M212.4 140l-.05-.55m.95 6.8-.9-6.25m1.35 12.75 3.2.45.95 1.45.6.9 2.4-.3m-7.1 2.55v-1.05l1.65-.8H212l-2.1 1.05-1.4-.3v-2.6l4.15-1.55.9.15m-6.05-4.7h4.7l1.1-1.75m2.15 9.7 3.05-.4m-13.1-9.2-1.35-2v-1.6l1.4-1.3m-.35 20.45v2.65l-4.7 8.75m3.15-14.2.65.1.9 2.7m8.7-4.1v.9l.55.75.45.65 1.3.4 1.35.4 3.5-.95.85-.25m-18.25-.6-5.8-1.05m2.05 15.25-2.95-3.35-1.75-2-3.7-4.2 2.2-3.1 4.15-2.6m-9.45 23.75q1.1.55 2.25.95l.4.15m-7.7-4.5 1.35 1.05q1.75 1.4 3.7 2.35m11.5-8.5h.6m17.7-1.75.4.55m-1.05-11.2-.3.4-.35.35-3.05 1.9-2.25.4-.55.1-2.25-1.5-.05-1.8 1.2-.8h3.3l1.2-.5m2.2 10.95-2.15.65-1.95 1.7-1.65 2.9-.4 2 .5 1.45.65.65m6.55-8.2-.85-1.4-.7.25M207.5 148l-2.1-1.65m-20.45-7.5v1.4l1.3 1.85 2.9 1.15h2.5M178.4 146l.85-1.3m-2.2 3.75 1.35-2.45m1.15 10.95 1.35 2 .4 1.8v2.6l-.75 1.8-1.95 1.75m-2.4-1.3 2.4 1.3m-3.25-1.75.85.45m3.35-8.65-2.05-.75-2.7 1.15M164 184.5l-3.3-4.3m1.45 3.4-.7.2-2.45.8m-20.25-32.85 19.35 25.15 2.6 3.3m1.45 3.4 6.35 8.15m-4.5-7.25 5.95 7.65m11.45 38.5-1.85-1.3h-2.4l.3 1.35v.1l-.05-.05-11.45 2 .45 4.45-2.7 2.25m16.4 3.1 1.35-.2 5.6-1.15 2.4 1.05m-12-11.5h-.05l-8.4-9.7-.65-.7-8 1.2-2.5.4-7.95 1.2-2.6.35-2.55.4m36.65 6.75 1.85 1.35m-6.1-2.65-1-4.35m-22.55 9.85.35-5.8 3.4-2.55h5.6l2.6 2.85.4 3.4m2.4-12.4-6.2-36.75M109.2 35.35l5.95-3.85 2.05.6m-5.15 14.75 1.3-3.5 2.95-2.95 4.25-1.15 2.1 1.6m-14.6-11.8.9-.35m-5.9 4.2 3.5-2.75 1.5-1.1m-7.1 11.45v-3.1l.65-1.4M88.15 14.45l-1.35-.9-4.1 2.55-2.85 3.2-1.35 2.85-.7 1.35v3.8l1.25 3.5 3.05 1.95m18.85 7.75v4.05l.45.65m4.2 1.4v-4.9l1.4-2.4 1.35-2.45.85-1.5m-6.15-2.45L101.6 36m11.35 13.2-.9-2.35m17.9 11.9.6-1.9 1.2-3.8 1.35-4.3m-20.15.45 2.9 2m-8.55-.9-1.7-3.7m4.05 16.65 7.5-3.65h6.2l4.9 3.55.5-.7.6-1.85-6.8-4.7m35.7 6.9-1.6-1.65h-2.85l-3.65 1.2-2.55 3.35v3.75l2.2 3.1 3 1.15 15.45 7.95m-40.35 6.6 6.85 3.7h5.9l4.3-1.15 4.25-5.9.9-6.45 1.75-3.1.95-1.65m-23.45-13.1.6-1.85m-56.1-48.6L76 8.55l4-1.05h2.3m-11.1 6.05-1.45 2.55-.35 1.4m4.45-7.35-1.2.8-1.45 2.6m-1.15 16.1-.9-1.75-.75-6.35 1-4.05m18.75-3.05 1.3.9M48.5 24.2h-.4l-.65-1.1.45-.45h-1.5l-6.6 2.85-.85.6 1 .55.7.85-.95 1.35h1q3.45-1.55 6.85-3.15l.95-1.5h1.7m-1.05-2.75.35-.1m-.35.1-1.25 1.2m11.55-4.5.15-1.25m.2 2.8-.35-1.55-1.25.25-3 1.3-.8.5h.75l.65 1.35h.05l.4-.1 1.25-.35 2.3-1.4.35 1.5m-4.3.35-.3.15.3-.15M54.4 20.2h-.9l-.85.25m1.5 2.55 1.4-1.3M39.7 28.85l-1.75 1.5M94.1 78.4l-.8 2.45.75 3.1 2.45 5.1 3.55 7.55 3.5 4.7 1 1.35 4.95 5.35 5.85 5.35 5 3.15 1.9.65m-22.1-35.25L99 80l-2.05-10.8m-5.4 10.3.35-.2m68.85 32.35-4.9 3.15-9.45 3.8-9 2.2-9.05.6-7.1-1.7-5.55-3.25-8-6.35-7.45-9-4.45-7.4-3.7-9.5-.55-4.7-.4.15m-1.6 8.25v-1.1l1.35-1.3v1.85l-1.35.55m4.4 6v1.35l-.35.8-1.15.9v-1.2l-.1-.75 1.6-1.1M89.6 83.8l.95-2.65m-33.75 34.8 9 5.9 12.65-7.35m9.9-22 2.4 10.8 2.65 5.55 5.6 7.9 7.3 7.35 7 3.65 8.3 2.4 7.35.7h8.15l6.6-1.65 7.1-3.5 1.2-1.1m-54.65-17.8 1.1 1.6q.3-.1.5-.25l1.3-.95v-1.05l-1.05-.25H98l-.65.9M80.3 118.25l-4.7 14.95 2.3 8.55L84.25 152l3.3 2.65m64.3-79.3 3.05 1.6 4.35 5.75v8.45l-4.35 4.55-7.05 5.45-7.75 1.5-3.8.7-7.65-1.35-11.15-7.5-6.5-6.65-6.25-15.3 2.45-4.6m26.85 27.5 6.3.8 7.5-2.5 5.35-6.8M125.4 67.2l-4.3-2.1-6.7 6.95 1.15 9.3 4.55 7.2L131 95.1l3.05.35m-6.15-7.2-4.85-4.5-1.2-3.85-.45-2.7-.5-2.65 1.6-3.35 2.9-4 2.85-4.05M108 93.3l-2.45-2.35-5.4-9.05m16.6 19.3-1.65-1.1-7.1-6.8m8.75 7.9 4.75 3.2-3.8 7.05 2-1.75 3.95-3.45 2.75.5m-15.65 12v1.9l-1.5.55-1.1-1.45.45-.75.55-.65 1.6.4m18.8 7.3v-.7l-1.4-1-.95 1.2v.8l.95.4.8-.45.6-.25m23.35-7.1v2.1l1.05-1.3v-1.85l-1.05 1.05m-8.1 6.05.35-1.3-.5-.7h-1.45l-.65.9.5 1.9 1.75-.8m-8.5 12.45.7-.65 5.2 1.6 2.7.85M34.25 32.75h-.75l-.95-.95.85-1.35h-1.2l-6.5 4.25-.85 1.4 1.1.45.6 1.15h1.8l4.7-3.45 1.2-1.5h.8l1.45-1.2m-1.9-2.3-.85.6-.35.6m-8.55 5.65-1.65.4m2.65 2.6.7-1.4m-10.8 12.6-.25-2.5 2.45-5.2 1.25-.75.95-1.7m-.95 1.7-.25.5.75.95h1.05l1.8-1.5m-7.95 8.8 1.15-.3 2.5-.35h.1l.9-1 1.5-3.95v-1.7m-2.4 6.65.8-.05 1.15.05m-12.75 5.5 1.05-1.2.05-.1m1.45 5 1.5.75H13l2.55-.4 1.05-.7 1.05-.65 1.2-1.5.65-1.45v-1.5l-4.9-3.1-.85-.5m-6.2 5.35Q5.45 58 4.65 61.2m4.95-7.85.5 5.8m17.85-6.4-.4 1.9 1.2 2.8.7.85.75.85 1.75.8 1.2-.35m.85 6.2q-.25 4-2.35 7.2m-11.55-.15H23l2.15-1.3L26.3 69l-.45-3.65-1.2-1.55-3.75-.7m-.8 9.75-3-1.15-.95-3.25 1.4-3.05 2.2-2.1 1.15-.2M8.95 75.65l-.35-.35q-2.65-2.6-3.65-5.9m17.1 10.05-2.9.25h-.9l-1.6-.2m.9 113.25 1 1.9m.1-1.1 1.4 1.9m21.1-7.45-5.95 3.5v3.05l3.4 2.5 2.6.55 2.3-1.2 2.75-2.4.7-1.8.25-.8v-2.15l-1.45-1.95-2.85-.4-1.75 1.1-1.45-2.15m111.65-35.1-1.25-1.6h-2.15l-1.45 1.65 1.85 3.2 2.05-.95.95-2.3m-15.05-13.3-11.4 10.2 13.85 4.1 10.95-11m7.75 44.35 1.55-.5m-4.75 1.55 1.6-.55 1.6-.5m-6.3 2.05 1.55-.5 1.55-.5m-4.65 1.45 1.55-.45m-26.25-39.5 7.85 12.7M76.8 146.8l-5.95-2.7m5.95 2.7 4.15 8.35-.65 1.05m-20.4 29.35-3.4 4.9 6.9 4.8.45 1.65v6.85l-1.6.55M66.4 194l1.45.45M44.6 201.7l.4.3v1.75l-.7 3.2.35 2.9m-3.1-6.75 1.85-.85m-2.5.55v.95m-.6-1.1v1.25m-15.6-13.85 18.25 10.35 1.65 1.3 18-6.1m-23.5 7.8.5 1.3-.5 1.95-1.15 2.35v2.95m15.3-16.8-4.1-8.9-12.65-5.35m28.7 13.25 1.15 1.05m-13.1-.05-6.3-2.95m9.55-1.75-3.25 4.7m15.9-1.4 3.6-.85m-23.6-6.65 7.9-11.3L76.8 146.8m70.75 81.8-1.8-3.05m1.8 3.05.85 1.4 3.15 5.25 2.05-.4-.15 3.05 3.35 1.55h6.9m-25.65-7.75 3.8-3.8 5.7.7m-.65 12.6-4.05-1-4.3-1.1-2.15-.55-3.8 1.25-1.7 1.4m3.4 1.75-3.05 3.4m4.2-2.55-.75 2.95m2.45-2.3 47.35 3.05m-37.6-6.3 33.2 1.35M38.95 26.1l-2.3 1.65m47.2 129.9-18.05-35.8m-45.35 73.1 16.95 8.5m120.6-85.3 2.85-4.6"/><path stroke-width=".05" stroke-linejoin="round" stroke-linecap="round" stroke="#efb461" fill="none" d="M192.35 74.8H196m-.65 8.2 25 13.95m-30.3-28.55-3.8.35-5.2 1.25-2.3 2.4m-1.45 6.3 2.2-3.1 2.75-1.55m1.25 9.1 4.1-5.15 4.4-3.05m24.5 15.85 14.4 7.85m-69.45 85.15-2.1-3.4"/><path stroke-width=".05" stroke-linejoin="round" stroke-linecap="round" stroke="#f0bb88" fill="none" d="m198.05 82.45 5.9 2.9m-36.6-16.6 3.6 1.25m-49.55 7.2 7.45-5.75 6.05-14.25"/><path stroke-width=".05" stroke-linejoin="round" stroke-linecap="round" stroke="#e3882d" fill="none" d="m200.8 81.9 7.15 3.9"/><path stroke-width=".05" stroke-linejoin="round" stroke-linecap="round" stroke="#db7e3c" fill="none" d="m182.8 81.6 3.65-4.75 3.45-2.4m-15.1-1.2q-1.5-.7-2.95-1.5m3.35 6.05 6.55-5.3"/><path stroke-width=".05" stroke-linejoin="round" stroke-linecap="round" stroke="#a08876" fill="none" d="m236.3 106.65-2.8 2.9-.95 2.75-1.5 4.3-.05.1-1.2 7.55 1.25 3"/><path stroke-width=".05" stroke-linejoin="round" stroke-linecap="round" stroke="#bf8244" fill="none" d="M228.15 99.8 214.4 92"/><path stroke-width=".05" stroke-linejoin="round" stroke-linecap="round" stroke="#f2c597" fill="none" d="m112.95 35.7 2.75-1.85 5.25.55m-16.8 2.8 4.15-5.2 2.65-2.15m-4.4.3-15.5-9.35"/><path stroke-width=".05" stroke-linejoin="round" stroke-linecap="round" stroke="#e69d56" fill="none" d="m109.8 40.45 5.1-4.65"/><path stroke-width=".05" stroke-linejoin="round" stroke-linecap="round" stroke="#db7b35" fill="none" d="m122.3 43 7.45 5.3m-18.05-7.85 5.55-4.2"/><path stroke-width=".05" stroke-linejoin="round" stroke-linecap="round" stroke="#de8641" fill="none" d="m137.55 43.25-8.7 23.1-1.85 2.8"/><path stroke-width=".05" stroke-linejoin="round" stroke-linecap="round" stroke="#e69c55" fill="none" d="m108.05 29.05-9.6-6.1m-11.5-3.35 13.2 8.65"/><path stroke-width=".05" stroke-linejoin="round" stroke-linecap="round" stroke="#c68e58" fill="none" d="M157.45 185.1q-4-2.6-3.55-6.4m-2.75 8.45q-5-6.6-7.9-14.55m-.4 67.6 1.5-3.5m-7.95 1.85 5.8-7.75"/><path stroke-width=".05" stroke-linejoin="round" stroke-linecap="round" stroke="#eeb36a" fill="none" d="M159 184.6q3.45 4.65 4.85 17.05m-9.6-15.5q-6.35-3.55-6.55-10.65m5 11.15q3.5 9.8 3 17.9m2.15 17.4q2.8-9.2-.05-18.05"/><path stroke-width=".05" stroke-linejoin="round" stroke-linecap="round" stroke="#f0b864" fill="none" d="m138.55 239.1 2.75-4m7.1-5.1-1.25 6.45"/><path stroke-width=".05" stroke-linejoin="round" stroke-linecap="round" stroke="#f1bc67" fill="none" d="M147.3 223.5q3.9-9 3.45-18.95"/><path stroke-width=".05" stroke-linejoin="round" stroke-linecap="round" stroke="#c48d59" fill="none" d="M149.9 223.15q6.3-12.9 1.95-31.8m8.5 30.2q2.55-12.8-3.85-25.55m-.65-10.4q8.5 14.55 8.45 30"/><path stroke-width="1.5" stroke-linejoin="round" stroke-linecap="round" stroke="#000" fill="none" d="m167.05 47.45-1.8 5.15-4.9 6.7-2.1 3.5 17.9 8.35.4-.65 3.8-2.05 4.45-1h3.1l3.45 1.45 1.85 3.65h2.25l3.9 1.15 1.3 5.5q16.4 8.8 32.85 17.55l3-1.55h4.45l5 2.45 3.25 3.9h2.65l5.1 2.45 3.7 4.9 2.25 7.85v7.05l-1.15 2.45.4 1.35-1.35 3.5-1.7.85-.55 1.2-3.6 2.35-.15-.05-1.5 3.1-1.75.75.45.75v3.15l-9.05 7.15-3.2-1.05-1.8 1.35.5.95-.55 1.8-6.05 4.8-4.7 2.2-3.8-1.15-1.55.45q-.05 2.75-.55 5.25-.8 3.85-2.75 7.15l4.3 6.85-11.25.8q-5.8 4.3-13.3 4.3l-2.4-.1-1-.15-3.9-.9-.4-.15-.15.3-5.35 2.6-.6-.45-1.2-6.8-1.65-1.6q-4.8-5.1-6.25-11.65L167 160.6l7.8-3.25q.3-4.8 2.25-8.9l-.5-4.35 2.7.6 2.35-2.85q1.6-1.7 3.35-3l3.95-14.6 8.05 10.4 1.3-.05q6.25 0 11.35 2.95l2.15-2 .6 3.9 2.55 2.4 1.55 1.7 9.6-1.7-5.4 9.45.85 3.85.9-.1 1.1-1.9 8.75-5.65 2.7.9 2.05-1.9v-2.3l.25-.7 2.65-3.15 3.9-3-5.25-1.75-5.3-5.45h-4.3l-2.9-2.3-3-3.45-.6-4.45-30.8-20.2-2.15 1.05h-1.85L184 99.35l-3.75-3.05-2.05.55-2.95-1.25-2.65-3.35-1.6-5.75.4-3.25-3.15-1.6.7 2.6.8 6.65-1.75 6.95-5.4 8.95.95 1.95-2.7 4.8.05.6v1.65l-2.15 2.3-.75.05-1.5 2.45-4.5 4-7.1 14.65 4.8 1.5 27.45 43.5-7.15 8-.05-.1-1.45-.4 7.65 33.25h2.45l3.65 3.95 1 3.05 6.2 10.25 2.45 1.05 1.65 2.25.25 1.7v17.9l-13.8 1.9-52-2.6-2.45-2.45 2.1-8.3-.95-6.55v-2.7l4.2-3.25 1.7-4.05 5.45-5.45v-2.95l3.05-3.2h4.65l-1-1.65 4.85-36.3-16.85-27.25-6.8 3.3-9.65 1.7H106l-11.4-5.15-7.05-5.55-3.7 3-3.55-1.45-20.4 29.35 14 6.8 1.3 1.35-.45 3.95.4 3.6-.85.35-2.5.4-8.5 3.15-.8-.4-.25-.45-17.6 5.55v.45l-2.9.7-2.3 1.5H37.6l-4.8-2.4-15.85-9.2-.75-1 1-2.85-1.15-2.7v-1.7l.9-1.55 4.8-2.2 1.85.5 1.1.65 15-4.2-3.2-4.95 34.35-36.8-14.05-28.15 11.75-8.5 9.9 7.05 1.85 3.75 8.05-25.75-.7-3.15 1.95-5.55-.3-2.15 1.25-.5.5-1.45 3.05-1.3 2.85-9.2 3.15-6.25 6.55-4.2 7-2.85h8.9l-6.7-4.7-2.1 1.85h-3.25l-2.7-1.7-.5-1.05-3.35-.6-3-5.15-.15.3-18.7-12.1-1.9 1.35-2.2 1.05-3.1-1-3.95-2.7-.9-1.8-1.55.9h-1.95l-2.85-2.1-2.85-4.2-.7-3.05-1.9 1.8h-4.1l-2.85 1.2h-1.1V26l-1.05 1.45-8.65 3.4h-1.75l-.8-.5-1.45 1.2v2.4l-7.05 4.7-2.7.45h-.9l-3.3 2.7.5 2.75-2 4.5-.75.9q4.3.3 7.65 2.8l8.5-1.4.3.15-3.6 8.1q.9 2.4.9 5.2l-.05 1 4.5 4.05L31.65 73l-2 2.3q-3.25 3.35-7.6 4.15l-3.2 4.4-2.2-4.35q-4.4-.7-7.7-3.85l-.35-.35v.35l-6.65.1 3-6.35q-.7-2.15-.7-4.6 0-1.9.4-3.6l-3.9-8.25 7.9 1.2-.05.1.05-.1.95-.8-.65-6 4.8 2.75-.6-3.2 3.65-6.05 3.35-.7 3.05-3.65.5-2.15 6-4.95 3.1-1.3 1.8 1.15 2.05-1.5L36 26.1l2-3.05 8.45-3h2.15l.85 1.2.05.1 3.15-.9 1.45-2.3 3.15-1.65h1.8l.55.4.6-5.6 3.65-5.4 1.8-1.6 1.75-1.25 1.95-1.15 2.5-1.15h3.05l3.5 1.15q1.7 1.15 2.9 2.7.95 1.6 1 2.9h4.65l2.5 4v3.85l19.5 13.35 4.15-1.6 4.1 1.45.65 2.55-.65 1 2.05.55 3.4 3.5.65 2.5-.65 2.2 10.45 7.9 3.35-12 2.6-3.05 4.9-2.25 5.1-1.3 4.15.95q3.75 1.95 7.45 3.85l5.55 4.8 1.1 4.65-.25 3.05m82.8 92.6-1.95.3-1.3-1.15-6.25 5.35h.7l.85 1.95-.55.95h1.8l6.7-6.3v-1.1M226 156.25l-1.05 1.85 1.9.4 7.95-4.95.4-.75-2.35.45-.9-.7.7-2.05.45-.4h-1l-6.8 4.85h.3l.4 1.3M48.1 24.2h.4l-.95 1.5q-3.4 1.6-6.85 3.15h-1l.95-1.35-.7-.85-1-.55.85-.6 6.6-2.85h1.5l-.45.45.65 1.1m11.35-6.05-1.25.25-3 1.3-.8.5h.75l.65 1.35h.05l-.3.15 1.95-.6 2.3-1.4-.35-1.55M33.4 30.45h-1.2l-6.5 4.25-.85 1.4 1.1.45.6 1.15h1.8l4.7-3.45 1.2-1.5h-.75l-.95-.95.85-1.35m-14.45 11.9.75.95h1.05V45l-1.5 3.95-.9 1-2.6.35-.25-2.5 2.45-5.2 1.25-.75-.25.5"/></g><path fill-rule="evenodd" fill-opacity="0" fill="#f0f" d="M100 40H0V0h100v40" id="d"/><use xlink:href="#d" width="100" height="40" id="f"/></defs><path fill="none" d="M-1-1h267v272H-1z"/><use x="116.657" y="245.164" xlink:href="#e" width="381" transform="translate(-192.55 -294)" height="381"/><use x="-26.496" y="-16.988" xlink:href="#f" width="100" transform="translate(70.3 83.35) scale(2.8454)" height="40"/><use x="116.657" y="245.164" xlink:href="#g" width="263.65" transform="translate(-115.9 -244.55)" height="267.8"/></svg>