<svg width="215" height="298" xmlns="http://www.w3.org/2000/svg" xmlns:xlink="http://www.w3.org/1999/xlink"><defs><linearGradient y2=".5" y1=".5" x2="1" x1="-.001" spreadMethod="pad" id="a"><stop stop-color="#a7792e" offset="0"/><stop stop-color="#d19738" offset="1"/></linearGradient><linearGradient y2=".914" y1=".68" x2=".847" x1=".503" spreadMethod="pad" id="b"><stop stop-color="#542d18" offset="0"/><stop stop-color="#a75c30" offset="1"/></linearGradient><g id="d" stroke-opacity="0" stroke-linejoin="round" stroke-linecap="round" stroke="#f0f" fill="none"><path d="M187.95-293.5v380h-380v-380h380" transform="translate(192.55 294)"/><path d="m187.95-293.5-190 190 190 190m-380-380 190 190L-192 86.5M92.95-38.4H-97" transform="translate(192.55 294)"/></g><g id="e"><path stroke-width="4" stroke-linejoin="round" stroke-linecap="round" stroke="#291605" fill="none" d="M234 2h-6.35l-3.9 4.4h-3.8Q204.8 27.1 187.2 47.85L148.05 92.1q-5.9-1.75-11.25-1.25-10.15 1.1-11.15 3.35l.05 2.15-7.15 3.2-.55 1.4q-14.5 9.3-14.6 15-14.85 9.2-20.8 21.2 0 3.65.55 6.8-6.95 12.95-5.8 24.55L56.7 190.8l-3.55.7-19.5 21.6-.8 1.5-1.8-13.4-16.6 31.05L7.3 246.7 2 250.55l.75 5.8 7 20.5 5.7-20.25 54.7-47.35v-2.85l-19.75 7.1 14.9-12V197l13.35-14.1 1.3 3.15 6.4 1.65q21.45 26.55 49.9 27.15 2.55 1.95 5.9 3.9-1.4 2.2-2.2 4.85-6.65 10.6-11.35 21.1l-2.3 5.45q-7 2.55-12.65 8.7-1.6 3-.9 6.1.9 3.95 5.55 8.15 10.25 2.35 19.5-4.5 4.95-4.2 4.9-9.25l3.05.15q.8 8.4 4.4 16.85l-2.95 4.35q.45 10.25 5.25 20.45l1.45 2.9-.85-.85q-5.3-5.05-10.6-7.45-7.2-3.35-14.4-1.8-2.65.55-5.3 1.75-2.2-3.7-5.7-6.8l-3.1-.45q-.9-12.15-3.45-24.45-1.7-7.9-4.05-15.9l-.5-1.55-.05-.35q-.3-1.05-2.2-1.35-.55-3.7-2-6.85-2.25-5.05-6.85-8.75l-6.35-.6-8.6-1.8q-2.7 1.55-5.45 3.05-20.85 13.55-29.25 32.85v6.7q29.65 29.35 36.2 54.45-2.2 12.85-7.25 22.55l2.15 1.75 3.45 2.05q11.85 6.65 19.95 5l1.15-4.35q10-10 10.2-20.15 4.7-2.95 10.85-3.8 4.1-9.65 4.25-17.6 2.7-.9 5.45-.8 4.65.2 9.45 3.35 3.85 2.55 7.85 7.15l2.8 3.5q-4.6 2.25-.55 9.25-3.2 4.5 8.7 7.5 4.7-1.35 8.95 1.3l1.05.7q28.75 19.35 61.05 10.15-1.35 4.4 4.1 2.15 11.3 4.8 10.75-3.35l2.65 3.45q3.1 4.6 4.75 10.3l1.2 5.7.2 1.25.3 3.6.1 3.55q.4 5.95-.95 10.75-1.3 4.5-4.15 8-4.9-2.85-9.85 1.1-3.5-3.65-11-1.9-4.5 1-7.5 5.25-7.45 1.4-7 7.25 4.65 12.8 16.15 24.65 7.9 9.45 8.8 18.9 8.35 6.3 45.7 11.25 31.75-2.5 38.35-8.85v-4.85q.4-.55-.75-1.2l-.3-5.5q2.2-4.35-2.95-9.45.3-3.45-7-6.4-8.1-1.6-16-1.5h-.5q-10.15.55-16.7 2.15l-1.6-.7q-12.8-5.55-14-11.1 4-3.05 5.55-7.1l-4.05-5.55-.3.65q-.5 2.45-2.25 4.1l2.25-4.1.1-.9.2.25q2.35-5.5 3.3-11.65 1-6.55.35-13.8l-.4-3.95v-.05q-1.05-7.75-3.45-14.35-1.5-4.2-3.55-7.9l-2.4-3.9-1.65-2.25 4.7-.1q10.15-.55 20-4.25 6.35-2.4 12.6-6.1 4.6-2.75 9-3.9 6.05-1.55 11.7-.1 4.8 1.25 9.3 4.65l3.05 2.6q7.65 5.15 3.6-3.7l-2.45-3.2q-5.55-6.65-12.1-10.5-8.95-5.25-19.8-5.3-6.45 0-13.6 1.8l2.2-2.75-1.45-2.75q8-11.8 9.7-32.05 1.35-16.05-1.3-37.35 8.75-3.2 5.8-8.5.9-35.5-26.45-57.75 2.55-7.3 4-15.15 1.6-8.9 1.75-18.45v-4.05l-1.15-5.05q-3.5-13.25-7.95-10.35-5.25 3.35-16 7.8L233.9 143.3l-2.85 3.55-2.25.4q-3.35-1.65-7.3-3.15-1.55-19.5-10.45-33.9-4.3-3-7.35-1.6-22.5 20.4-24.55 31.85l2.75 7.4-1.9 1.3q-17.05.5-30.65 13.55-17.6 16.2-20.85 34.75-.9 3.5-.05 6.8-19.1-7.3-31-19.45v-3.2q9.2-10.45 22.55-18 4.35-1.15 8.45-3.65l3.95-6.65q7.75-6.1 13.8-14.7l1.65-10.6q4.5-2.55 5.3-7.05 10.6-12.35 5.35-22.4 39.5-47.85 76.15-85.9 2.8-9.75.3-8.65L234 2m41.75 244.6q.5 9.2-.35 17.5-1.05 9.65-3.85 18.05 3.25 2.25 4.75 3.75 1.65-5.45 2.65-10.55l1.1-7.3q1.2-12.2-1.85-22.1l-2.4.65h-.05m-125.6-139.2-1.4 1.45-2.65-3.05q2.5 1.15 4.05 1.6m164.3 324.05.45.15-.45-.15m4.15 15.45.4.1-.1-.3-.1-.15-.15.3-.05.05"/><path fill-rule="evenodd" fill="#805624" d="M67.6-228.65q2.5-1.1-.3 8.65-36.65 38.05-76.15 85.9l-1.4-2.25-.55-.7-.7-.35 14.2-16-8 6.2 31-39.6-11.8 19 33.25-35.3 21.3-23.6-.85-1.95M-88.7-49.75l-13.35 14.1q.35-2.05-1.35-4.2l-.15-.2-1.65-1.65 55.3-53.7q-3.8-4.55-9.95-1.3l1.55-1.7 7.3-7.9q4.35 3.15 12.35 3.65l-9 9.5-21.3 22.55-19.75 20.85m-1-4.35-13.85 14.05L-89.7-54.1m3-2.7-1.1 1 1.1-1" transform="translate(167.35 232.65)"/><path fill-rule="evenodd" fill="#918266" d="M-8.85-134.1q5.25 10.05-5.35 22.4-.8 4.5-5.3 7.05l-1.35.7Q-22.1-95.4-43.7-92.1l-3.95-1.05 9-9.5q2.5.15 5.35.05-2.85.1-5.35-.05-8-.5-12.35-3.65l-7.3 7.9-.3-.25q-2.9-2.4-4.4-5.5 9.15-12 23.55-13.85l4.1-7.75q10-1.05 9.85-4.9-1.9-1.95.1-2.05 2.2-.15 8.95 1.9 6.6-.4 6.2-5.55l1.4 2.25m-38.5 65.05q-13.35 7.55-22.55 18v3.2Q-58-35.7-38.9-28.4q1.4 5.55 7.8 10.6-28.45-.6-49.9-27.15l-6.4-1.65-1.3-3.15 19.75-20.85 2.4.7.25.05.6.05q9.7 3 18.35.75M63.7-85.8l1.75-2.15.05 4.75 3.65 3.65L81.7-80.9l-1.25 3.7-2.05.45-4.45.95 4.45-.95.05 9.4 2.95 7.3.95 2.3-.95-2.3q7.05 3.1 15.35 0l7.55-8.4q1.8-26.65-7.8-31.25l.5-.4 12.15.95 1.15 5.05v4.05q-.15 9.55-1.75 18.45-1.45 7.85-4 15.15-1.85 1.2-4.5 1.85l-6.65.6 4.8 4.9q-1.25.85-10.25-.9l-3.1-1.55-2.5-6.2-1.5-2.3-2.4-3.45q-6.15-8.65-12.1-14.2l-.85-.8-4.65-3.7 2.85-3.6M-17.2 43.7q-3.6-8.45-4.4-16.85l-3.05-.15q-.05-1.6-.55-3.25-2.7-2.35-5.45-3.85l-2.85-1.35 2.55.5q19 2.85 42.3-25.5-3.05 10.2 8.5 5.1 12.7-13.7.5-8.6l15.25-9.5-2.4 4.65 2.4-4.65h.05l.15.7q.5 3.55-2.75 7.3-3.45 2.55-6.4 5.1L23.4-3.7 19.45.4l-3.6 1.45-6.3 2.5-1.2.45 1.2-.45q-.6 3.5-2.7 6.3-2.6 3.45-7.3 6.55-4.15 4.65-9.15 7.05-1.55 28.9 14.45 35.5-.35.3-.35.8v2.6Q-6.35 58.55-13 52.5l-4.2-8.8m-84.85-79.35v4.5l-14.9 12 10.05-3.6-22.85 14.8-4 2.6-3.45 2.2.45-.75 5.25-9.5 17.2-13 10.9-13.45q1.7 2.15 1.35 4.2M76.3-72.6l2.15 5.25-2.15-5.25m27 13.95 1-9.8-1 9.8M45.8-50q2.35-7.6 2.25-15.7-2.25-6.05-9.85-1.6-18.35-8.6-32.4-3.65 2.05-4.55 6.5-9.6l9-.3q5.05.75 19.8 5.2l15.05 4.6q2.5 2.7 2.05 5.45l5.4 1.55.8 1.4q-2.15 1.55-3.15 3.1 6 3.8 6.1 8.7-5-1.65-8.15 5.3 3.45 1.95 1.6 6.1-3.9 11.55-8.1 15.5Q51-22.4 49.3-22l-1.3.15q-1.25-1.7-3.1-2.8l-.3-.2q-.85-.6-1.75-.75 9.75-2.2 10.9-4.65l.15-1.85q.6-12.55-8.1-17.9m11.3 3.55q1.2.35 2.1.9-.9-.55-2.1-.9m3.35-10.5q-.05-1.3.8-2.6-.85 1.3-.8 2.6m-5.4 71.6q4.75.45 7.5 3.2 3.35-1.85 6.9.35l1.85 1.45q5.6 6.65 5.05 11.5-.15 1.25-.7 2.4 3.9 2.6 2.45 7.85l-1.65 4q-9.75 11.35-23.6 16.4-5 1.85-10.55 2.85-10.05.75-11.65-8.2l-.85-.5q-3.6-2.25-5.75-5.4 7.45 6.25 13.5-3.3 6.9.65 10.35-4.1 1.7-3.1 9.55-6.25 7-3.2-2.4-22.25m34.4-68.85 3.95.2-3.95-.2M104.2 49.5q3.25 2.25 4.75 3.75 2.95 3.1 4.8 5.65L107.3 71l-9.95-2.35q4-6.15 4.75-12.1.55-4.55-.75-8.95l2.85 1.9M62.55 17.85l-.6.4-1.7 1.35-.5-1.1.5 1.1 1.7-1.35.6-.4m11.9 17.45 1.2-1.75-1.2 1.75m-7.15-5.25q-6.55-5.95-7.05-10.45.5 4.5 7.05 10.45M33.55 57.9q-1.55-.65-2.9-1.45 1.35.8 2.9 1.45M-53.3-108.45l2.3 2.15-2.3-2.15m36.1-16.8q-1.55-.45-4.05-1.6l2.65 3.05 1.4-1.45 2.05.15-2.05-.15m-4.05-1.6-1.65-1.65-2.5-2.2v-2 2l2.5 2.2 1.65 1.65m2.65 3.05q3.5 4.55 4.55 9.2.1 1.55-.15 2.9.25-1.35.15-2.9-1.05-4.65-4.55-9.2m-4.8 20.8.7-1.45q-2.15-4-6.05-8.65l-5.55-6.1-.1-5 .1 5 5.55 6.1q3.9 4.65 6.05 8.65l-.7 1.45 2.55-.95-2.55.95q-1.7 2.55-5.9 4.55-6.75 1.25-12.5 0 5.75 1.25 12.5 0 4.2-2 5.9-4.55m-102.45 88.85-3.9 6.2 3.9-6.2m-6.55 5.75-1.35 3.05 1.35-3.05m15.45-10.75-7.35 2.6 7.35-2.6m47.05-31.9-4.4-3.5 4.4 3.5-.6.65.6-.65m60.3 75.3q-5.45 2.65-12 2.6 6.55.05 12-2.6" transform="translate(167.35 232.65)"/><path fill-rule="evenodd" fill="#d5c4a4" d="m65.45-87.95 1.1-1.4L85.2-101.7q10.75-4.45 16-7.8 4.45-2.9 7.95 10.35L97-100.1l2.55-1.7-2.55 1.7-.5.4q-5.7 4.3-8.3 9.75h-3.5l-3 9.05-12.55 1.35-3.65-3.65-.05-4.75M-41.05 17.5l2.3-5.45q4.7-10.5 11.35-21.1.8-2.65 2.2-4.85 1.9-3.05 4.9-5.2 5.5-5.1 5.1-9.2l.75 1.7q3.3 3.5 7-1.35l1.95-8.85.55-1.45q1.3-3.4 4-7.85 2.35-4.2 4.1-10.2 2.1-7.3 1.55-11.9l1.1-2.75q14.05-4.95 32.4 3.65-3.75 2.5-7.1 5.35-9.7 8.15-16.35 19.25l-.15.2-1.9 3.45Q9-31.4 10.85-22.9q2.8 3.1 8.75 2.8l2.3-1.1q4.6-2.3 8.45-4.85l.6-.3 2.3-2.4q5.8-6.45 9.3-13.35l.7-1.35q1.5-3.25 2.55-6.55 8.7 5.35 8.1 17.9l-.15 1.85q-1.15 2.45-10.9 4.65-1.25-.2-2.5.5-2.3 1.25-4.7 5.3l-.05.05-15.25 9.5q12.2-5.1-.5 8.6-11.55 5.1-8.5-5.1-23.3 28.35-42.3 25.5l-2.55-.5q-2.75-1.15-5.55-1.45l-2 .7M-90-64.15q-1.15-11.6 5.8-24.55.7 4.2 2.4 7.5 1.3 2.6 3.25 4.7L-90-64.15m26.05-52.55q.1-5.7 14.6-15l.55-1.4 7.15-3.2-.05-2.15q1-2.25 11.15-3.35 5.35-.5 11.25 1.25 3.8 1.1 7.8 3.15l.7.35.55.7q.4 5.15-6.2 5.55-6.75-2.05-8.95-1.9-2 .1-.1 2.05.15 3.85-9.85 4.9l-4.1 7.75q-14.4 1.85-23.55 13.85-2.6-5.3-.95-12.55m76.5 99.5q3.7-1.4 7.05-2.9-3.35 1.5-7.05 2.9m.15-21.85q-2.4 4.35-4.25 9.2L6.7-25.2l1.75-4.65q1.85-4.85 4.25-9.2M45.3 17.7q1.75-1.8 6.15-3.05 1.95-.15 3.6 0 9.4 19.05 2.4 22.25-7.85 3.15-9.55 6.25-3.45 4.75-10.35 4.1-6.05 9.55-13.5 3.3-4.85-7-2.6-18.5 3.95-6.45 10.2-4.8l-.95 1.9.95-1.9q4.5-8.2 12.65-5.6-.7-2.2 1-3.95m.85 7-1.85-3.05 1.85 3.05m-96.7-153.3 1.2-3.1-1.2 3.1m25.15-5.35v1.25-1.25m-16.25-2.35 2.85-1.3-2.85 1.3m33 112.75q-7.1 1.15-11.65 4.45 4.55-3.3 11.65-4.45" transform="translate(167.35 232.65)"/><path fill-rule="evenodd" fill="#ac502d" d="m90.05 112.8 1.65 2.25 2.4 3.9q2.05 3.7 3.55 7.9 2.4 6.6 3.45 14.35v.05l.4 3.95q.65 7.25-.35 13.8-.95 6.15-3.3 11.65l-.2-.25-.1.9-2.25 4.1q-1.95 1.85-5.55 2.6l-3.95-.6-2.75-.65q-8.5-2.3-7.25-6.95 2.6-1.5 4.65-3.35l3.85 6.15 4.1.8q3.8-6.3 5.85-12.85Q96.85 152 96.5 143q-.2-4.6-1.15-9.3-3.7-4.45-7.3-5.25-.7-.8-1.2 2.05l-1.05.85q-1.65-5.7-4.75-10.3l-2.65-3.45-3.1-3.05-1.55-1.65q-.45-.55-2-1.4-.75-7.75 7.6-7.85l4.6 2.55q2.2 1.95 4.1 4.15l2 2.45M87 137.05l-1.2-5.7 1.05-.85q-.4 2.2.15 6.55m-5.6-197.1-2.95-7.3-.05-9.4 2.05-.45 1.25-3.7 3-9.05h3.5q2.6-5.45 8.3-9.75 9.6 4.6 7.8 31.25l-7.55 8.4q-8.3 3.1-15.35 0m-.35 181.1q-.15-9.05 10.65-6-10.8-3.05-10.65 6m16.6 5.8-5.95-.05-3.65 1.65 3.65-1.65 5.95.05m3.45 14.35q-.6 1.45-4.6 1.8 4-.35 4.6-1.8m.05 17.8-4.35 2-2.55-.45 2.55.45 4.35-2" transform="translate(167.35 232.65)"/><path fill-rule="evenodd" fill="#7d3726" d="M104.55-56.45Q131.9-34.2 131 1.3q2.95 5.3-5.8 8.5l-3.2.95q-.35-8.5-5.25-17.5l-.1-2.9 7.05-2.3v-4.55l-2.9-.3-4.8-.5q-.6-4.75-1.7-9.15l5.15-1q.35-3.3-2.45-6.4l-2.35-.25-2.75-.35q-4.65-6.05-11.25-9.75-.1 6.1-14.85 11l-6.7 6.05q22.15 22.55 19.75 43-13 2.1-29.4 2.35-3.55-2.2-6.9-.35-2.75-2.75-7.5-3.2-1.65-.15-3.6 0-4.4 1.25-6.15 3.05-8.85.65-29.95-7.8.55-2.25.65-4.75 4.9-.55 4.85-1.6 1.5-1 2.55-7.25l3.25-2.95 4.45 3.1q2.15 1.9 5.75-7.4L38.6-9.1q2.7 3.65 3.85 11.15 3.75 1.1 6.75-6.75 2.15-8.5.5-13.75l9.65-3.35 8.25-5.25v-6q6.7-3.6 8.25-9.75-2.75-8.45-11.45-19.85l1.2-.8-2-.6-2.15-3.65-5.3-3.35q17.1 6.3 10.2-6.65 5.95 5.55 12.1 14.2l2.4 3.45 1.5 2.3 2.5 6.2 3.1 1.55q9 1.75 10.25.9L93.4-54l6.65-.6q7.65 8.95 11.85 20.15-4.2-11.2-11.85-20.15 2.65-.65 4.5-1.85m-6.7 227.1 4.05 5.55q-1.55 4.05-5.55 7.1 1.2 5.55 14 11.1l-.75.1-11-2.75 11 2.75Q99 196.05 88.1 199l-10.5-13.95 7.4 1.15q7.3-5.5-1.95-9.45l2.75.65 3.95.6q3.6-.75 5.55-2.6 1.75-1.65 2.25-4.1l.3-.65m-5-218.2L87.95-50l4.9 2.45m-.6 97 1.8 5.9h2.1l.15-8.7 5.8 9.9q-.75 5.95-4.75 12.1-2.05 3.2-5 6.4-7.9 5.7-19.2 8.9-4.35 1.25-9.2 2.1-5.8-2.45-13.45-7.7-7.25-1.8-14-6.5l-4.55-3.55q-.95-1.55-1.55-3.1-1.85-4.75-.6-9.25l.85.5q1.6 8.95 11.65 8.2 5.55-1 10.55-2.85l7.2 4.25q12.8-4.7 16.9-10.75l7.35-13.35q3.25.5 6.15 1.65l-6.9 7 2.75 1.7q3-1.4 5.95-2.85M53.6 78.95l-3.1-.6 3.1.6M96.35 183.3q-2.4 1.8-5.7 3.25L85 186.2l5.65.35q3.3-1.45 5.7-3.25" transform="translate(167.35 232.65)"/><path fill-rule="evenodd" fill="#716451" d="m61.45-85.4 2.25-.4-2.85 3.6q-1.15-.8-4.3-2.2l4.9-1M38.2-67.3q7.6-4.45 9.85 1.6.1 8.1-2.25 15.7-1.05 3.3-2.55 6.55 4-20.35-12.15-18.5 3.35-2.85 7.1-5.35M48-21.85l1.3-.15q1.7-.4 3.4-1.95 4.2-3.95 8.1-15.5 1.85-4.15-1.6-6.1 3.15-6.95 8.15-5.3-.1-4.9-6.1-8.7 1-1.55 3.15-3.1 8.7 11.4 11.45 19.85-1.55 6.15-8.25 9.75v6l-8.25 5.25-9.65 3.35q-.55-1.75-1.55-3.15l-.15-.25m15.6-42.2-5.4-1.55q.45-2.75-2.05-5.45l5.3 3.35 2.15 3.65" transform="translate(167.35 232.65)"/><path fill-rule="evenodd" fill="#ae7031" d="m12.65-83.5 1.9-1.3q8.3-5.45 19.8-9.8 11.4 2.8 19.8 6.05 3.95 1.5 7.3 3.15l-4.9 1q3.15 1.4 4.3 2.2l4.65 3.7.85.8q6.9 12.95-10.2 6.65l-15.05-4.6q-14.75-4.45-19.8-5.2l-9 .3q-4.45 5.05-6.5 9.6L4.7-68.2l-1.3 1.25-2.05-6.25q4.45-5.55 11.3-10.3m-96.85-5.2q-.55-3.15-.55-6.8 5.95-12 20.8-21.2-1.65 7.25.95 12.55 1.5 3.1 4.4 5.5l-5.85 1.35q-13.2 4.05-17.35 16.1-1.7-3.3-2.4-7.5M4.45-72.8q2.5-4.3 7.85-7.75-5.35 3.45-7.85 7.75" transform="translate(167.35 232.65)"/><path fill-rule="evenodd" fill="#d3b774" d="M31.1-61.95q16.15-1.85 12.15 18.5l-.7 1.35q-.15-3-2.05-4.95-3.05-3.05-8.65-1.7-2.8.65-5.4 2.25l-1.55-.15q-5.65.05-10.1 4l-.05-.05Q21.4-53.8 31.1-61.95m78.35 36.4-.35.05q-2.2-3.5-2.45-7l5.25-1.95 2.75.35.8 2.05-6 6.5M116-17.3l4.8.5v1.55l-6.35 5.6h-3.2l.15-5.15 4.6-2.5" transform="translate(167.35 232.65)"/><path fill-rule="evenodd" fill="#ebe0be" d="M42.85-25.6q.9.15 1.75.75l.3.2q1.85 1.1 3.1 2.8l.15.25q-.7 1.35-1.55 2.35-3.5 3.95-9.35 1.15l-1.45-.95-.15-.7v-.05q2.4-4.05 4.7-5.3 1.25-.7 2.5-.5M3.4-66.95l1.3-1.25q.55 4.6-1.55 11.9-1.75 6-4.1 10.2 1.55-7.25-.7-7.7l-3.15-.3q.6-1.95 3.4-6.35 2.85-4.5 4.8-6.5M26.45-46.5q2.6-1.6 5.4-2.25 5.6-1.35 8.65 1.7 1.9 1.95 2.05 4.95-3.5 6.9-9.3 13.35 1.85-3.25 1.6-6.85-.45-5.7-4.8-9.3-1.6-1.3-3.6-1.6" transform="translate(167.35 232.65)"/><path fill-rule="evenodd" fill="#b89152" d="m155.1 210.3.3 5.5q-1.1-.65-3.75-1.45l1.25 2.5-5.3.95-.8.15-.15-4.3 3.2-2.9 1.6 3.15-.15.3-.05.05.4.1-.1-.3q2.5-1.8 3.55-3.75M35.8-19.05l1.45.95q5.85 2.8 9.35-1.15.85-1 1.55-2.35 1 1.4 1.55 3.15 1.65 5.25-.5 13.75-3 7.85-6.75 6.75Q41.3-5.45 38.6-9.1l-1.75-1.85q-3.6 9.3-5.75 7.4l-4.45-3.1q2.95-2.55 6.4-5.1 3.25-3.75 2.75-7.3M23.4-3.7q-1.05 6.25-2.55 7.25.05 1.05-4.85 1.6-.1 2.5-.65 4.75-1.4 5.8-6.05 10.15L7.05 18.8q1.4-4.05-.2-8.15 2.1-2.8 2.7-6.3l6.3-2.5L19.45.4l3.95-4.1m13.45-7.25q-1.35-1.05-3-1.4l-.8.6.8-.6q1.65.35 3 1.4M16 5.15l-.15-3.3.15 3.3M129.2 221.1l-2.8-4.4 4.45-3.35h3.95l2.4 3.7 1.55 2.4-2.6 1.65h-6.95" transform="translate(167.35 232.65)"/><path fill-rule="evenodd" fill="#b38246" d="m109.45-25.55 6-6.5-.8-2.05 2.35.25q2.8 3.1 2.45 6.4l-5.15 1-4.85.9m11.35 8.75 2.9.3v4.55l-7.05 2.3h-2.2l6.35-5.6v-1.55M85.95 38.95l-.05-.05-1.45-1.5 4.25.15 4.75 3.5 2.85 5.6-2.85-5.6V38.6l3.5 3.2-.65 4.85-.15 8.7h-2.1l-1.8-5.9Q89.3 50.9 86.3 52.3l-2.75-1.7 6.9-7-4.5-4.65m6.3 10.5-1.8-5.85 1.8 5.85" transform="translate(167.35 232.65)"/><path fill-rule="evenodd" fill="#a75c30" d="M-38.9-28.4q-.85-3.3.05-6.8Q-35.6-53.75-18-69.95-4.4-83 12.65-83.5 5.8-78.75 1.35-73.2l2.05 6.25q-1.95 2-4.8 6.5-2.8 4.4-3.4 6.35-5.3 2.65-7.95 7.8-2.35 4.55-2.7 9.65l-.1 1.3q-.05 3.45.35 7.05.4 4.1-5.1 9.2-3 2.15-4.9 5.2-3.35-1.95-5.9-3.9-6.4-5.05-7.8-10.6m149.25 222.8 1.6.7q6.55-1.6 16.7-2.15h.5q7.9-.1 16 1.5 7.3 2.95 7 6.4l-4.6-1.9-.45-.15-3.15-1.3H128.7q-17.95 2.15-25.85 6.1-6.6 5.9-4.25 12.8.6 1.8 1.8 3.65l-21.3-5.45q-6.05-17.45-28.35-38.7 1.35-4.35 3.4-7.25 3-4.25 7.5-5.25 7.5-1.75 11 1.9 4.95-3.95 9.85-1.1l-2.05 2.25q-2.05 1.85-4.65 3.35-1.25 4.65 7.25 6.95 9.25 3.95 1.95 9.45l-7.4-1.15L88.1 199q10.9-2.95 21.5-4.5l2.35.6-2.35-.6.75-.1M98.85 15.85q2.4-20.45-19.75-43l6.7-6.05q14.75-4.9 14.85-11 6.6 3.7 11.25 9.75l-5.25 1.95q.25 3.5 2.45 7l.35-.05 4.85-.9q1.1 4.4 1.7 9.15l-4.6 2.5-.15 5.15h5.4l.1 2.9q.1 4.35-.2 8.95l-5.7 11.1-2.4.65h-.05l-1.25.3-8.3 1.6M85.9 38.9l.05.05 4.5 4.65q-2.9-1.15-6.15-1.65l-6.2-.55 6.2.55-7.35 13.35q-4.1 6.05-16.9 10.75l-7.2-4.25q13.85-5.05 23.6-16.4l1.65-4q1.45-5.25-2.45-7.85.55-1.15.7-2.4 3.5-.15 8.35 2.65 7.65 2.55 7.65 0 6.9 6.75 9 13.8 1.3 4.4.75 8.95l-5.8-9.9.65-4.85-3.5-3.2v2.45l-4.75-3.5-4.25-.15 1.45 1.5M14.8 81.95l-.05.4-.15-.45.2.05M69.95 168q1.35-1.6 2.7-2.7-1.35 1.1-2.7 2.7m3.35 14.3q.45 1.7 4.3 2.75-3.85-1.05-4.3-2.75m73.25 15.2h-2.6 2.6" transform="translate(167.35 232.65)"/><path fill-rule="evenodd" fill="#79654f" d="m14.55-84.8-2.75-7.4q2.05-11.45 24.55-31.85 3.05-1.4 7.35 1.6 8.9 14.4 10.45 33.9-8.4-3.25-19.8-6.05-11.5 4.35-19.8 9.8" transform="translate(167.35 232.65)"/><path fill-rule="evenodd" fill="#5e4933" d="M125.2 9.8q2.65 21.3 1.3 37.35-1.7 20.25-9.7 32.05l1.45 2.75-2.2 2.75-2.2 2.75-6.85 2-5.55-2.15-3.1 1q-9.55 2.15-25.2-4.35 11.3-3.2 19.2-8.9 2.95-3.2 5-6.4L107.3 71l6.45-12.1q-1.85-2.55-4.8-5.65 1.65-5.45 2.65-10.55l1.1-7.3q1.2-12.2-1.85-22.1l5.7-11.1q.3-4.6.2-8.95 4.9 9 5.25 17.5l3.2-.95M78.4 117.6q.55 8.15-10.75 3.35-5.45 2.25-4.1-2.15-32.3 9.2-61.05-10.15l-1.05-.7q-4.25-2.65-8.95-1.3-11.9-3-8.7-7.5-4.05-7 .55-9.25l2.7 3.8 1.5 2.25.4-2.25q1.4-4.85 7.2-3.95-3.95-8.8-2.2-12.75-2.15-2-4.65-3.75l-2.75-1.85.95-2.5q6.25-5.95 10.9 3.85l.2.4q4.55 9.4 9.25 11.5l.8 2.65 9.1 6.25q13.4 3.05 15.75-1.1 26.15 5 60.75 1.4-2 4.35-5.75 8.25 1.5 4.4-.45 8.25-1.9-2.2-4.1-4.15l-4.6-2.55q-8.35.1-7.6 7.85 1.55.85 2 1.4l1.55 1.65 3.1 3.05M15.35 9.9q21.1 8.45 29.95 7.8-1.7 1.75-1 3.95-8.15-2.6-12.65 5.6-6.25-1.65-10.2 4.8-2.25 11.5 2.6 18.5 2.15 3.15 5.75 5.4-1.25 4.5.6 9.25-4.35.3-10.1-1.25-3.2-.85-6.85-2.3L9.55 60l-4.7-.25q-16-6.6-14.45-35.5 5-2.4 9.15-7.05 4.7-3.1 7.3-6.55 1.6 4.1.2 8.15l2.25 1.25q4.65-4.35 6.05-10.15m54.1 8.3q16.4-.25 29.4-2.35l8.3-1.6 1.25-.3q.5 9.2-.35 17.5Q107 41.1 104.2 49.5l-2.85-1.9q-2.1-7.05-9-13.8 0 2.55-7.65 0-4.85-2.8-8.35-2.65.55-4.85-5.05-11.5l-1.85-1.45m46.35 44-2.05-3.3 2.05 3.3m-11.85 23.75-2.5 1.35 2.5-1.35m11.4-9.45 1.45 2.7-1.45-2.7m-54.7 40.8 2.9 1.5-2.9-1.5m25.6-17.05 2.25 1.85-2.25-1.85m-91-25.6L-6.05 77l1.3-2.35M-11.2 99.5q-1.1-2-.25-3.55-.85 1.55.25 3.55" transform="translate(167.35 232.65)"/><path fill-rule="evenodd" fill="#9f4828" d="M116.05 84.7q7.15-1.8 13.6-1.8 10.85.05 19.8 5.3 6.55 3.85 12.1 10.5l2.45 3.2q4.05 8.85-3.6 3.7l-3.05-2.6q-4.5-3.4-9.3-4.65-5.65-1.45-11.7.1-4.4 1.15-9 3.9-6.25 3.7-12.6 6.1 7.95-5.75 6.95-12.6.8-5.55-5.65-11.15m20.3 13.75q4.45-11.2-6.7-15.55 11.15 4.35 6.7 15.55m11.7-.1q4.8-3.9 1.4-10.15 3.4 6.25-1.4 10.15m9.3 4.65q6.35 2 4.2-4.3 2.15 6.3-4.2 4.3" transform="translate(167.35 232.65)"/><path fill-rule="evenodd" fill="#53241a" d="m-13.45 71.4-1.45-2.9q-4.8-10.2-5.25-20.45l2.95-4.35 4.2 8.8q-2.7-2.5-4.7-5.2 2 2.7 4.7 5.2 6.65 6.05 17.5 10.65v10.3l3.35 11.2q-4.7-2.1-9.25-11.5l-.2-.4q-4.65-9.8-10.9-3.85l-.95 2.5m49.95.45q6.75 4.7 14 6.5 7.65 5.25 13.45 7.7 4.85-.85 9.2-2.1 15.65 6.5 25.2 4.35-.2 1.45-1.3 2.95-1.05 1.3-2.8 2.6-34.6 3.6-60.75-1.4-10.9-4.7-18.75-10.1l.05-.4q2.35.5 4.8 0 2.6-2.15-.95-5.95l-4.9-1.2q-.1-3.8.45-8.15 3.35 2.35 6.9 3.7 7.25 2.8 15.4 1.5" transform="translate(167.35 232.65)"/><path fill-rule="evenodd" fill="#954426" d="M114.75 108.45q-9.85 3.7-20 4.25l-4.7.1-2-2.45q1.95-3.85.45-8.25 3.75-3.9 5.75-8.25 1.75-1.3 2.8-2.6 1.1-1.5 1.3-2.95l3.1-1 5.55 2.15 6.85-2 2.2-2.75q6.45 5.6 5.65 11.15 1 6.85-6.95 12.6m-17.7-17.2q7.35 11.3-2.3 21.45 9.65-10.15 2.3-21.45" transform="translate(167.35 232.65)"/><path fill-rule="evenodd" fill="#f9a586" d="M82.5 164.2q2.85-3.5 4.15-8 1.35-4.8.95-10.75l-.1-3.55-.3-3.6-.2-1.25q-.55-4.35-.15-6.55.5-2.85 1.2-2.05 3.6.8 7.3 5.25.95 4.7 1.15 9.3l-2.9 1.1-6.1-2.2 6.1 2.2 2.9-1.1q.35 9-2.25 17.55L91.1 160l-4.45-3.8 4.45 3.8 3.15.55q-2.05 6.55-5.85 12.85l-4.1-.8-3.85-6.15 2.05-2.25M-78.85-4l6.35.6q4.6 3.7 6.85 8.75-.8 4.7-8.95 2.25-2.85-5.65-6.15-9 4.2.85 1.9-2.6m24.25 36.3q-.7-3.1.9-6.1 5.65-6.15 12.65-8.7l2-.7q2.8.3 5.55 1.45l2.85 1.35q.35 1.15.35 2.4 0 4.75-4.95 8.1-4.9 3.35-11.85 3.35-4.1 0-7.5-1.15m142.65 96.15-1.2 2.05 1.2-2.05m62.6 76.65q-3.85 4.35-11.6 3.15-6.1-2.7-7.05-5.05 1.45-4.6 9.6-3.15l2.2 1.3q3.1.75 6.85 3.75m-21.5-.6q2.4 1.1 4.2 2.3 7.45 4.85 3.9 10.2l-.05.05-2.4-3.7h-3.95q-9.7 2.2-20.05-.35-.5-5.5 12.45-10.9l5.9 2.4M-48.55 27.25l-.6.25-.25.6.25.6.6.25q.35 0 .6-.25l.25-.6q0-.35-.25-.6t-.6-.25m7.05.85q-.85-.5-2.05-.5-1.2 0-2.1.5-.85.55-.85 1.25t.85 1.2q.9.55 2.1.55 1.2 0 2.05-.55.9-.5.9-1.2t-.9-1.25" transform="translate(167.35 232.65)"/><path fill-rule="evenodd" fill="#7e4425" d="m-19.5-104.65-1.65 10.6q-6.05 8.6-13.8 14.7l-3.95 6.65q-4.1 2.5-8.45 3.65Q-56-66.8-65.7-69.8l-.6-.05-.25-.05-2.4-.7 21.3-22.55 3.95 1.05q21.6-3.3 22.85-11.85l1.35-.7M156.15 217v4.85q-6.6 6.35-38.35 8.85-37.35-4.95-45.7-11.25-.9-9.45-8.8-18.9-11.5-11.85-16.15-24.65-.45-5.85 7-7.25-2.05 2.9-3.4 7.25l16.75 22.85q7.05 9.6 9.15 19.15 19.4 6.9 41.75 7 24.1-.95 37.75-7.9M-41.2 76.7q-.15 7.95-4.25 17.6-6.15.85-10.85 3.8-.2 10.15-10.2 20.15l-1.15 4.35q-8.1 1.65-19.95-5 7 3.35 16.6 2 12.7-33.05 3.95-72.75Q-76.1-4.6-92.9-2.75q2.75-1.5 5.45-3.05 3.55 1.2 6.7 4.4 3.3 3.35 6.15 9 3.05 6.15 5.6 15 3.55-2.8 5.45-4.85.25-2.9-.1-5.55 1.9.3 2.2 1.35l.05.35.5 1.55q2.35 8 4.05 15.9 2.55 12.3 3.45 24.45l3.1.45q3.5 3.1 5.7 6.8 1.5 2.6 2.35 5.5 1.1 3.85 1.05 8.15M-58.3-98.4l-1.55 1.7-18.7 20.2q-1.95-2.1-3.25-4.7 4.15-12.05 17.35-16.1l5.85-1.35.3.25m18.75 22.35 4.6-3.3-4.6 3.3M-61.4 13.9q.1 1.35-2.15 3.85 2.25-2.5 2.15-3.85m8.4 50.25-.4-8.35.4 8.35m-13.5 54.1q1.75-6.85 3.05-13.35 8.5-42.95-3-72.05-1.2-5.5-2.55-10.25 1.35 4.75 2.55 10.25 11.5 29.1 3 72.05-1.3 6.5-3.05 13.35" transform="translate(167.35 232.65)"/><path fill-rule="evenodd" fill="#a7792e" d="M-110.65-41.85-90-64.15l11.45-12.35 18.7-20.2q6.15-3.25 9.95 1.3l-55.3 53.7-1.25-1-4.2.85" transform="translate(167.35 232.65)"/><path fill-rule="evenodd" fill="#baa989" d="m-106.9-22.75 9.7-3.5v2.85l-12.4 10.75-28.35 15.15-1.55 6.55h-5.55l-3.15 2.75h-4.7V-.4l16.6-31.05 1.8 13.4.8-1.5 19.5-21.6 3.55-.7 4.2-.85 1.25 1 1.65 1.65.15.2-10.9 13.45-17.2 13-5.25 9.5-.45.75 3.45-2.2 4-2.6 22.85-14.8M35.65-19.8v.05h-.05l.05-.05m-179.1 18.2 8.95-16.45-8.95 16.45" transform="translate(167.35 232.65)"/><path fill-rule="evenodd" fill="#7d1713" d="M14.8-42.65q4.45-3.95 10.1-4l1.55.15q-2.65 1.55-5.1 4.05-4.95 4.9-6.3 10.5-1.35 5.6 1.7 8.65 2 2 5.15 2.1l-2.3 1.1q-5.95.3-8.75-2.8Q9-31.4 12.7-39.05l1.9-3.45.2-.15m-19.75 4.4-.55 1.45-1.95 8.85q-3.7 4.85-7 1.35l-.75-1.7q-.4-3.6-.35-7.05l.1-1.3q-.4 14.15 10.5-1.6" transform="translate(167.35 232.65)"/><path fill-rule="evenodd" fill="#c8321e" d="m-4.8-54.1 3.15.3q2.25.45.7 7.7-2.7 4.45-4 7.85-10.9 15.75-10.5 1.6.35-5.1 2.7-9.65 2.65-5.15 7.95-7.8m31.25 7.6q2 .3 3.6 1.6 4.35 3.6 4.8 9.3.25 3.6-1.6 6.85l-2.3 2.4-.6.3Q26.5-23.5 21.9-21.2q-3.15-.1-5.15-2.1-3.05-3.05-1.7-8.65 1.35-5.6 6.3-10.5 2.45-2.5 5.1-4.05" transform="translate(167.35 232.65)"/><path fill-rule="evenodd" fill="#db851e" d="m-109.6-12.65-26.65 23.05-17.55 9.8-2.2 2.5-4.05 1-1.15-1.55V14.9l1.15-.85L-152.9-.4v12.2h4.7l3.15-2.75h5.55l1.55-6.55 28.35-15.15" transform="translate(167.35 232.65)"/><path fill-rule="evenodd" fill="#ba551f" d="m-136.25 10.4-15.65 13.55-5.7 20.25-7-20.5-.75-5.8 4.15-3v7.25l1.15 1.55 4.05-1 2.2-2.5 17.55-9.8" transform="translate(167.35 232.65)"/><path fill-rule="evenodd" fill="#c65a33" d="M152.15 200.85q5.15 5.1 2.95 9.45-1.05 1.95-3.55 3.75l-.1-.15q1.4-3 .15-8l-.95-.8.95.8q1.25 5-.15 8l-1.6-3.15-3.2 2.9.15 4.3-6.15-.25-3.4-.7q3.55-5.35-3.9-10.2-1.8-1.2-4.2-2.3l-5.9-2.4q-12.95 5.4-12.45 10.9 10.35 2.55 20.05.35l-4.45 3.35 2.8 4.4-11.7-.45q-5.3-1.6-7.8-2.95-6.75 3.6-11.1-1.3-2.35-6.9 4.25-12.8 7.9-3.95 25.85-6.1h15.25l3.15 1.3.45.15 4.6 1.9M-35.75 75.9q-2.75-.1-5.45.8.05-4.3-1.05-8.15-.85-2.9-2.35-5.5 2.65-1.2 5.3-1.75 10.45 7.1 3.55 14.6m-29.9-70.55q1.45 3.15 2 6.85.35 2.65.1 5.55-1.9 2.05-5.45 4.85-2.55-8.85-5.6-15 8.15 2.45 8.95-2.25m41 21.35q.05 5.05-4.9 9.25-9.25 6.85-19.5 4.5-4.65-4.2-5.55-8.15 3.4 1.15 7.5 1.15 6.95 0 11.85-3.35 4.95-3.35 4.95-8.1 0-1.25-.35-2.4 2.75 1.5 5.45 3.85.5 1.65.55 3.25M143.8 201.35l-2.2-1.3q-8.15-1.45-9.6 3.15.95 2.35 7.05 5.05 7.75 1.2 11.6-3.15-3.75-3-6.85-3.75m-14.65 3.15-1.35-3.35 1.35 3.35m-21.45 10.35q-.95 1.25 2 2.85-2.95-1.6-2-2.85" transform="translate(167.35 232.65)"/><path fill-rule="evenodd" fill="#ffe0d9" d="M-41.5 28.1q.9.55.9 1.25t-.9 1.2q-.85.55-2.05.55-1.2 0-2.1-.55-.85-.5-.85-1.2t.85-1.25q.9-.5 2.1-.5 1.2 0 2.05.5m-7.05-.85q.35 0 .6.25t.25.6l-.25.6q-.25.25-.6.25l-.6-.25-.25-.6.25-.6.6-.25" transform="translate(167.35 232.65)"/><path fill-rule="evenodd" fill="#c55134" d="M-26.3 79.25q-4.8-3.15-9.45-3.35 6.9-7.5-3.55-14.6 7.2-1.55 14.4 1.8 6.2 4.4 4.8 11.1-.85 4.05-6.2 5.05" transform="translate(167.35 232.65)"/><path fill-rule="evenodd" fill="#943d27" d="m-15.65 89.9-2.8-3.5q11.7 2.45 7.75-13.15Q-8.2 75-6.05 77q-1.75 3.95 2.2 12.75-5.8-.9-7.2 3.95l-.4 2.25-1.5-2.25-2.7-3.8" transform="translate(167.35 232.65)"/><path fill-rule="evenodd" fill="#a8452d" d="M-18.45 86.4q-4-4.6-7.85-7.15 5.35-1 6.2-5.05 1.4-6.7-4.8-11.1 5.3 2.4 10.6 7.45l.85.85 2.75 1.85q3.95 15.6-7.75 13.15" transform="translate(167.35 232.65)"/><path fill-rule="evenodd" fill="#ad5701" d="M30.4 65.2q.6 1.55 1.55 3.1l4.55 3.55q-8.15 1.3-15.4-1.5-3.55-1.35-6.9-3.7-.55 4.35-.45 8.15l4.9 1.2q3.55 3.8.95 5.95-2.45.5-4.8 0l-.2-.05.15.45q7.85 5.4 18.75 10.1-2.35 4.15-15.75 1.1l-9.1-6.25-.8-2.65-3.35-11.2v-12.9q0-.5.35-.8l4.7.25 3.9 1.65q3.65 1.45 6.85 2.3 5.75 1.55 10.1 1.25M15.45 84.75l-.7-2.4.7 2.4M6.35 62q-.4.4-.4 1t.4 1q.4.4 1 .4l3.8.45q3.2.4 3.75-.05.55-.45-3.2-1.8l-4.35-1.4q-.6 0-1 .4m8.25 19.9q-4-.95-7.8-4.85V74.3l6.95.5-6.95-.5v2.75q3.8 3.9 7.8 4.85" transform="translate(167.35 232.65)"/><path fill-rule="evenodd" fill="#ffb60b" d="M6.35 62q.4-.4 1-.4L11.7 63q3.75 1.35 3.2 1.8-.55.45-3.75.05l-3.8-.45q-.6 0-1-.4t-.4-1q0-.6.4-1" transform="translate(167.35 232.65)"/><path fill-rule="evenodd" fill="#cab37d" d="m-87.45-5.8 8.6 1.8q2.3 3.45-1.9 2.6-3.15-3.2-6.7-4.4" transform="translate(167.35 232.65)"/><path fill-rule="evenodd" fill="#9d632b" d="M155.4 215.8q1.15.65.75 1.2-13.65 6.95-37.75 7.9-22.35-.1-41.75-7-2.1-9.55-9.15-19.15L50.75 175.9q22.3 21.25 28.35 38.7l21.3 5.45q-1.2-1.85-1.8-3.65 4.35 4.9 11.1 1.3 2.5 1.35 7.8 2.95l11.7.45h6.95l2.6-1.65-1.55-2.4.05-.05 3.4.7 6.15.25.8-.15 5.3-.95-1.25-2.5q2.65.8 3.75 1.45" transform="translate(167.35 232.65)"/><path fill-rule="evenodd" fill="url(#a)" d="m-19.3-140.55 39.15-44.25q17.6-20.75 32.75-41.45h3.8l3.9-4.4h6.35l.95 2 .85 1.95-21.3 23.6-33.25 35.3 11.8-19-31 39.6 8-6.2-14.2 16q-4-2.05-7.8-3.15m71.8-80.65 3.9-5.05-3.9 5.05" transform="translate(167.35 232.65)"/><path fill-rule="evenodd" fill="url(#b)" d="m-87.6 117.6-3.45-2.05-2.15-1.75q5.05-9.7 7.25-22.55-6.55-25.1-36.2-54.45v-6.7q8.4-19.3 29.25-32.85 16.8-1.85 25.85 49.6 8.75 39.7-3.95 72.75-9.6 1.35-16.6-2m2.9-37.25q-.4 5.7-1.25 10.9.85-5.2 1.25-10.9" transform="translate(167.35 232.65)"/><path stroke-width="1.75" stroke-opacity=".541" stroke-linejoin="round" stroke-linecap="round" stroke="#2e1905" fill="none" d="m148.05 92.1 39.15-44.25Q204.8 27.1 219.95 6.4h3.8l3.9-4.4H234l.95 2q2.5-1.1-.3 8.65Q198 50.7 158.5 98.55q5.25 10.05-5.35 22.4-.8 4.5-5.3 7.05l-1.65 10.6q-6.05 8.6-13.8 14.7l-3.95 6.65q-4.1 2.5-8.45 3.65-13.35 7.55-22.55 18v3.2q11.9 12.15 31 19.45-.85-3.3.05-6.8 3.25-18.55 20.85-34.75 13.6-13.05 30.65-13.55l1.9-1.3-2.75-7.4Q181.2 129 203.7 108.6q3.05-1.4 7.35 1.6 8.9 14.4 10.45 33.9 3.95 1.5 7.3 3.15l2.25-.4 1.75-2.15 1.1-1.4 18.65-12.35q10.75-4.45 16-7.8 4.45-2.9 7.95 10.35l1.15 5.05v4.05q-.15 9.55-1.75 18.45-1.45 7.85-4 15.15 27.35 22.25 26.45 57.75 2.95 5.3-5.8 8.5 2.65 21.3 1.3 37.35-1.7 20.25-9.7 32.05l1.45 2.75-2.2 2.75q7.15-1.8 13.6-1.8 10.85.05 19.8 5.3 6.55 3.85 12.1 10.5l2.45 3.2q4.05 8.85-3.6 3.7l-3.05-2.6q-4.5-3.4-9.3-4.65-5.65-1.45-11.7.1-4.4 1.15-9 3.9-6.25 3.7-12.6 6.1-9.85 3.7-20 4.25l-4.7.1 1.65 2.25 2.4 3.9q2.05 3.7 3.55 7.9 2.4 6.6 3.45 14.35v.05l.4 3.95q.65 7.25-.35 13.8-.95 6.15-3.3 11.65l4.05 5.55q-1.55 4.05-5.55 7.1 1.2 5.55 14 11.1l1.6.7q6.55-1.6 16.7-2.15h.1m.4 0q7.9-.1 16 1.5 7.3 2.95 7 6.4 5.15 5.1 2.95 9.45l.3 5.5q1.15.65.75 1.2v4.85q-6.6 6.35-38.35 8.85-37.35-4.95-45.7-11.25-.9-9.45-8.8-18.9-11.5-11.85-16.15-24.65-.45-5.85 7-7.25 3-4.25 7.5-5.25 7.5-1.75 11 1.9 4.95-3.95 9.85-1.1 2.85-3.5 4.15-8 1.35-4.8.95-10.75l-.1-3.55-.3-3.6-.2-1.25-1.2-5.7q-1.65-5.7-4.75-10.3l-2.65-3.45q.55 8.15-10.75 3.35-5.45 2.25-4.1-2.15-32.3 9.2-61.05-10.15l-1.05-.7q-4.25-2.65-8.95-1.3-11.9-3-8.7-7.5-4.05-7 .55-9.25l-2.8-3.5q-4-4.6-7.85-7.15-4.8-3.15-9.45-3.35-2.75-.1-5.45.8-.15 7.95-4.25 17.6-6.15.85-10.85 3.8-.2 10.15-10.2 20.15l-1.15 4.35q-8.1 1.65-19.95-5l-3.45-2.05-2.15-1.75q5.05-9.7 7.25-22.55-6.55-25.1-36.2-54.45v-6.7q8.4-19.3 29.25-32.85 2.75-1.5 5.45-3.05l8.6 1.8 6.35.6q4.6 3.7 6.85 8.75 1.45 3.15 2 6.85 1.9.3 2.2 1.35l.05.35.5 1.55q2.35 8 4.05 15.9 2.55 12.3 3.45 24.45l3.1.45q3.5 3.1 5.7 6.8 2.65-1.2 5.3-1.75 7.2-1.55 14.4 1.8 5.3 2.4 10.6 7.45l.85.85-1.45-2.9q-4.8-10.2-5.25-20.45l2.95-4.35q-3.6-8.45-4.4-16.85l-3.05-.15q.05 5.05-4.9 9.25-9.25 6.85-19.5 4.5-4.65-4.2-5.55-8.15-.7-3.1.9-6.1 5.65-6.15 12.65-8.7l2.3-5.45q4.7-10.5 11.35-21.1.8-2.65 2.2-4.85-3.35-1.95-5.9-3.9-28.45-.6-49.9-27.15l-6.4-1.65-1.3-3.15L65.3 197v4.5l-14.9 12 10.05-3.6 9.7-3.5v2.85L57.75 220 31.1 243.05 15.45 256.6l-5.7 20.25-7-20.5-.75-5.8 4.15-3 1.15-.85 7.15-14.45 16.6-31.05 1.8 13.4.8-1.5 19.5-21.6 3.55-.7 20.65-22.3q-1.15-11.6 5.8-24.55-.55-3.15-.55-6.8 5.95-12 20.8-21.2.1-5.7 14.6-15l.55-1.4 7.15-3.2-.05-2.15q1-2.25 11.15-3.35 5.35-.5 11.25 1.25 3.8 1.1 7.8 3.15l.7.35.55.7 1.4 2.25m56-69 21.3-23.6-.85-1.95m-11.2 2.4-3.9 5.05m44.5 121.1 2.55-1.7m-3.05 2.1.5-.4m-36.15 17.9 4.65 3.7.85.8q5.95 5.55 12.1 14.2l2.4 3.45 1.5 2.3-.95-2.3-2.95-7.3-2.15-5.25m5.4-8.3 3-9.05h3.5q2.6-5.45 8.3-9.75 9.6 4.6 7.8 31.25l-1 9.8m-42.45-23.55 2.85-3.6m10.25 10 4.45-.95 2.05-.45 1.25-3.7m-43.5 13.6q7.6-4.45 9.85 1.6.1 8.1-2.25 15.7m-2.95 24.4q.9.15 1.75.75l.3.2q1.85 1.1 3.1 2.8l1.3-.15q1.7-.4 3.4-1.95 4.2-3.95 8.1-15.5 1.85-4.15-1.6-6.1-.9-.55-2.1-.9m-.95-24.6q2.5 2.7 2.05 5.45l5.4 1.55-2.15-3.65-5.3-3.35-15.05-4.6q-14.75-4.45-19.8-5.2l-9 .3q-4.45 5.05-6.5 9.6m32.4 3.65q-3.75 2.5-7.1 5.35 16.15-1.85 12.15 18.5 1.5-3.25 2.55-6.55m17.8-14.05.8 1.4 1.2-.8-2-.6m.8 1.4q-2.15 1.55-3.15 3.1 6 3.8 6.1 8.7-5-1.65-8.15 5.3m2.25-39.85-4.9 1q3.15 1.4 4.3 2.2m.4 22.65q-.85 1.3-.8 2.6m-55.75-11.25-1.3 1.25q-1.95 2-4.8 6.5-2.8 4.4-3.4 6.35l3.15.3q2.25.45.7 7.7 2.35-4.2 4.1-10.2 2.1-7.3 1.55-11.9l1.1-2.75m-2.4 4-2.05-6.25q4.45-5.55 11.3-10.3m1.9-1.3q8.3-5.45 19.8-9.8 11.4 2.8 19.8 6.05m-41.85 8q-5.35 3.45-7.85 7.75m38.1 30.7.7-1.35m-28.45.8q4.45-3.95 10.1-4l1.55.15q2 .3 3.6 1.6 4.35 3.6 4.8 9.3.25 3.6-1.6 6.85 5.8-6.45 9.3-13.35m-9.3 13.35-2.3 2.4-.6.3q-3.85 2.55-8.45 4.85l-2.3 1.1q-3.35 1.5-7.05 2.9m2.25-25.45-.2.15-1.9 3.45q-3.7 7.65-1.85 16.15 2.8 3.1 8.75 2.8m-12.9-5.1 1.75-4.65q1.85-4.85 4.25-9.2m1.9-3.45.15-.2q6.65-11.1 16.35-19.25m4.5 42.2-2.4 4.65m2.45-4.7v.05l.15.7m12.35-2.55-.15-.25M203 212.85l-.05.05m-69.1 38 2.85 1.35q2.75 1.5 5.45 3.85.5 1.65.55 3.25M194 226l-3.25 2.95q-1.05 6.25-2.55 7.25.05 1.05-4.85 1.6-.1 2.5-.65 4.75 21.1 8.45 29.95 7.8 1.75-1.8 6.15-3.05 1.95-.15 3.6 0 4.75.45 7.5 3.2 3.35-1.85 6.9.35 16.4-.25 29.4-2.35m13.05-50.3q-4.2-11.2-11.85-20.15l-6.65.6 4.8 4.9q-1.25.85-10.25-.9l4.9 2.45m-59.8 35.8.8-.6q1.65.35 3 1.4l1.75 1.85q2.7 3.65 3.85 11.15 3.75 1.1 6.75-6.75 2.15-8.5.5-13.75-.55-1.75-1.55-3.15m-11.3 10.65q-3.6 9.3-5.75 7.4L194 226q2.95-2.55 6.4-5.1 3.25-3.75 2.75-7.3m7.05-6.55q-1.25-.2-2.5.5-2.3 1.25-4.7 5.3M231.75 170q8.7 11.4 11.45 19.85-1.55 6.15-8.25 9.75v6l-8.25 5.25-9.65 3.35m43.7-35.55-3.95-.2m-7.1-3.55 2.5 6.2 3.1 1.55m16.6-6.45q-1.85 1.2-4.5 1.85m11.85 20.15-5.25 1.95q.25 3.5 2.45 7l.35-.05 4.85-.9q1.1 4.4 1.7 9.15l4.8.5 2.9.3v4.55L284 223l.1 2.9q4.9 9 5.25 17.5l3.2-.95M282 198.55l-2.75-.35m2.75.35 2.35.25q2.8 3.1 2.45 6.4l-5.15 1m.15 16.8h-3.2l.15-5.15 4.6-2.5M281.8 223h2.2m-8.25 23.6-1.25.3-8.3 1.6m12-2.55-2.4.65h-.05q.5 9.2-.35 17.5-1.05 9.65-3.85 18.05 3.25 2.25 4.75 3.75 1.65-5.45 2.65-10.55l1.1-7.3q1.2-12.2-1.85-22.1l5.7-11.1q.3-4.6.2-8.95m-30.8 45.7 4.5 4.65 1.8 5.85 1.8 5.9h2.1l.15-8.7-2.85-5.6-4.75-3.5-4.25-.15 1.45 1.5m-1.6 3.05q3.25.5 6.15 1.65l-6.9 7 2.75 1.7q3-1.4 5.95-2.85m1.2-8.4v-2.45l3.5 3.2-.65 4.85 5.8 9.9q.55-4.55-.75-8.95-2.1-7.05-9-13.8 0 2.55-7.65 0-4.85-2.8-8.35-2.65-.15 1.25-.7 2.4 3.9 2.6 2.45 7.85l6.2.55m-31.45 19.85q-5 1.85-10.55 2.85-10.05.75-11.65-8.2l-.85-.5q-1.25 4.5.6 9.25.6 1.55 1.55 3.1l4.55 3.55q6.75 4.7 14 6.5l3.1.6m47.75-31.35 2.85 1.9m4.75 3.75q2.95 3.1 4.8 5.65l2.05 3.3m-18.45 6.45q-2.05 3.2-5 6.4-7.9 5.7-19.2 8.9 15.65 6.5 25.2 4.35l3.1-1 2.5-1.35m-9.7 7.9q1.75-1.3 2.8-2.6 1.1-1.5 1.3-2.95m18.45-9.1-1.45-2.7m-13.9 10.8 5.55 2.15 6.85-2 2.2-2.75q6.45 5.6 5.65 11.15 1 6.85-6.95 12.6m-17.4-39.8q4-6.15 4.75-12.1m47.35 31.65q3.4 6.25-1.4 10.15M297 315.55q11.15 4.35 6.7 15.55m-76.6-79.95.5 1.1 1.7-1.35.6-.4m6.9.35 1.85 1.45q5.6 6.65 5.05 11.5m-31.05-13.45q-1.7 1.75-1 3.95l1.85 3.05m-22.1 25.85q2.15 3.15 5.75 5.4M243 266.2l-1.2 1.75m3.65 6.1-1.65 4q-9.75 11.35-23.6 16.4m7.4-42.2q.5 4.5 7.05 10.45M176.9 237l6.3-2.5 3.6-1.45 3.95-4.1m-7.55 5.55.15 3.3m-6.45-.8-1.2.45m-1.5 5.85q2.1-2.8 2.7-6.3m5.8 5.55q-1.4 5.8-6.05 10.15l-2.25-1.25q1.4-4.05-.2-8.15-2.6 3.45-7.3 6.55-4.15 4.65-9.15 7.05m14.45 35.5 4.7.25 3.9 1.65q3.65 1.45 6.85 2.3 5.75 1.55 10.1 1.25M199 259.9q-6.25-1.65-10.2 4.8-2.25 11.5 2.6 18.5m7.6-23.3-.95 1.9m-.05 27.3q1.35.8 2.9 1.45m-19.8 16.9q-.1-3.8.45-8.15 3.35 2.35 6.9 3.7 7.25 2.8 15.4 1.5m-31.65-12.1q-.35.3-.35.8v12.9l3.35 11.2.8 2.65 9.1 6.25q13.4 3.05 15.75-1.1-10.9-4.7-18.75-10.1l.7 2.4m-.65-2.8-.2-.05.15.45m.05-.4q2.35.5 4.8 0 2.6-2.15-.95-5.95l-4.9-1.2-6.95-.5v2.75q3.8 3.9 7.8 4.85m35.9-3.55q7.65 5.25 13.45 7.7 4.85-.85 9.2-2.1m-28.85-62.3q-8.15-2.6-12.65 5.6m46.75 90.35-3.1-3.05-1.55-1.65q-.45-.55-2-1.4-.75-7.75 7.6-7.85l4.6 2.55q2.2 1.95 4.1 4.15 1.95-3.85.45-8.25l-2.25-1.85m-22.7 18.55-2.9-1.5m19.8 49.15q-2.05 1.85-4.65 3.35-1.25 4.65 7.25 6.95l2.75.65 3.95.6q3.6-.75 5.55-2.6l2.25-4.1.1-.9.2.25-.3.65q-.5 2.45-2.25 4.1M240 397.95q-1.35 1.1-2.7 2.7m-15.8.65q-2.05 2.9-3.4 7.25 22.3 21.25 28.35 38.7l21.3 5.45q-1.2-1.85-1.8-3.65-2.35-6.9 4.25-12.8 7.9-3.95 25.85-6.1h17.85m-68.95-12.45q-3.85-1.05-4.3-2.75m18.4-67.25q-10.8-3.05-10.65 6m7-10.7 2 2.45m-2 15.65 3.65-1.65 5.95.05m-11.85 4.5 1.05-.85 1.2-2.05m8.45 14.55q4-.35 4.6-1.8m-13.6.7 6.1 2.2 2.9-1.1m-2.25 17.55 2.55.45 4.35-2m-6.9 1.55-3.15-.55-4.45-3.8m-1.65 30 5.65.35q3.3-1.45 5.7-3.25m13.25 11.2 2.35.6m-2.35-.6-11-2.75m-3.85-79.05q9.65-10.15 2.3-21.45m-2.8 2.6q-2 4.35-5.75 8.25m-3.5 84.1-7.4-1.15m4.9-20.85-2.05 2.25m-46.95-74q26.15 5 60.75 1.4m57.2 120.05q1.4-3 .15-8l-.95-.8m-6.85-3.75q3.1.75 6.85 3.75m-3.1-6.15-.45-.15.45.15 4.6 1.9M319 447l-.4-.1.05-.05.15-.3-1.6-3.15-3.2 2.9.15 4.3.8-.15 5.3-.95L319 447l-.15-.3-.2.15-.05.05m.2-.35.05.15h.05q2.5-1.8 3.55-3.75m.3 5.5q-1.1-.65-3.75-1.45m-23.85-13.2 1.35 3.35q2.4 1.1 4.2 2.3 7.45 4.85 3.9 10.2l3.4.7 6.15.25m-23.55-15.85 5.9 2.4m1.7 8.85-4.45 3.35 2.8 4.4h6.95l2.6-1.65-1.55-2.4-2.4-3.7h-3.95m6.35 3.7.05-.05m-8.05 4.1-11.7-.45q-5.3-1.6-7.8-2.95-6.75 3.6-11.1-1.3m11.1 1.3q-2.95-1.6-2-2.85m-40.2-16.1-16.75-22.85m93.2 21.6 3.15 1.3m14.45-100.1q2.15 6.3-4.2 4.3m-208.35-209.3-2.3-2.15m3.95-23.25-1.2 3.1m-13.4 11.9q-1.65 7.25.95 12.55m37.6-28.55V98.7m8.2 8.7q-1.55-.45-4.05-1.6l2.65 3.05 1.4-1.45 2.05.15m-10.25-7.6v2l2.5 2.2 1.65 1.65m-12.05 24.25q-2.85.1-5.35-.05l-9 9.5 3.95 1.05q21.6-3.3 22.85-11.85l-2.55.95q-1.7 2.55-5.9 4.55-6.75 1.25-12.5 0m7.4-25.75.1 5 5.55 6.1q3.9 4.65 6.05 8.65l-.7 1.45m9.2-8.7q.25-1.35.15-2.9-1.05-4.65-4.55-9.2m-2.25 19.85 1.35-.7m-19.15 2q-8-.5-12.35-3.65l-7.3 7.9-1.55 1.7m-45.35 55 1.65 1.65 13.85-14.05m50.9-83.5-2.85 1.3m-42.55 47.6q.7 4.2 2.4 7.5 1.3 2.6 3.25 4.7l18.7-20.2m1.25-1.95q-2.9-2.4-4.4-5.5m-24.8 48.35 1.1-1M37.6 224.7l3.9-6.2m-10.9 10.25-.45.75m3.45-2.2 1.35-3.05m-2.1-9.65-8.95 16.45m32.8-40.25 4.2-.85 1.25 1m1.65 1.65.15.2q1.7 2.15 1.35 4.2m-22.25 19.1 7.35-2.6m82-60.2-4.6 3.3M108.75 134l.3.25m-11.6 47.35-.6.65m-3.8-4.15 4.4 3.5m.95-19.55 2.4.7.25.05.6.05q9.7 3 18.35.75m-21.6-1.55 21.3-22.55m-31.2 89.15q2.3 3.45-1.9 2.6 3.3 3.35 6.15 9 3.05 6.15 5.6 15 3.55-2.8 5.45-4.85.25-2.9-.1-5.55m62.7-58.3q-2.7 4.45-4 7.85l-.55 1.45-1.95 8.85q-3.7 4.85-7 1.35l-.75-1.7q.4 4.1-5.1 9.2 4.55-3.3 11.65-4.45m-6.55-4.75q-.4-3.6-.35-7.05l.1-1.3q.35-5.1 2.7-9.65 2.65-5.15 7.95-7.8m-20.4 40.2q1.9-3.05 4.9-5.2m-18.6-9.3q1.4 5.55 7.8 10.6m-56.35 12q3.55 1.2 6.7 4.4m2.2-75.1L77.35 168.5m1.3 14.4 19.75-20.85m35.45 88.85q-2.75-1.15-5.55-1.45l-2 .7m19.45 9.35q6.55.05 12-2.6m-53.95-6.5q2.25-2.5 2.15-3.85m-7.6 8.7q1.35 4.75 2.55 10.25 11.5 29.1 3 72.05-1.3 6.5-3.05 13.35m13.1-62.45.4 8.35m8.4-1.1q1.5 2.6 2.35 5.5 1.1 3.85 1.05 8.15m49.05 7.95q-4.7-2.1-9.25-11.5l-.2-.4q-4.65-9.8-10.9-3.85l-.95 2.5 2.75 1.85q2.5 1.75 4.65 3.75l1.3-2.35m-10.9 15.25 2.7 3.8 1.5 2.25.4-2.25q1.4-4.85 7.2-3.95-3.95-8.8-2.2-12.75m-33.25-15.7q10.45 7.1 3.55 14.6m10.85-12.8q6.2 4.4 4.8 11.1-.85 4.05-6.2 5.05m15.6-6q3.95 15.6-7.75 13.15m5.45-33.9-4.2-8.8m-.5 3.6q2 2.7 4.7 5.2 6.65 6.05 17.5 10.65M81.4 323.9q.85-5.2 1.25-10.9m73.25 15.6q-.85 1.55.25 3.55"/><path fill-rule="evenodd" fill="#fff" d="M-7.7-47.65q0 .65-.5 1.1-.45.5-1.1.5-.65 0-1.15-.5-.45-.45-.45-1.1 0-.65.45-1.15.5-.45 1.15-.45.65 0 1.1.45.5.5.5 1.15m31.35 9.45q-.55.6-1.35.6t-1.4-.6q-.55-.55-.55-1.35t.55-1.4q.6-.55 1.4-.55.8 0 1.35.55.6.6.6 1.4 0 .8-.6 1.35" transform="translate(167.35 232.65)"/><path fill-rule="evenodd" fill="#7d1713" d="M27-35.55q-.6-5.1-1.4-6.45 2.2.5 3.9 2.2 2.5 2.5 2.5 5.95T29.5-28q-2.3 2.35-5.45 2.5l1-1.25q2.6-3.65 1.95-8.8M-6.65-43.8q1.2-3.9 1.1-4.95 1.35.4 1.95 1.7.95 1.9-.15 4.5-1.05 2.6-3.55 4.45-2.25 1.8-4.45 1.9l1.05-.95q2.95-2.8 4.05-6.65" transform="translate(167.35 232.65)"/></g><path fill-rule="evenodd" fill-opacity="0" fill="#f0f" d="M100 40H0V0h100v40" id="c"/><use xlink:href="#c" width="100" height="40" id="f"/></defs><path fill="none" d="M-1-1h217v300H-1z"/><use x="129.313" y="263.711" xlink:href="#d" width="381" transform="translate(-192.55 -294)" height="381"/><use x="203.291" y="414.574" xlink:href="#e" width="334.75" transform="translate(-128.598 -262.784) scale(.6361)" height="465.35"/><use x="-36.848" y="-17.496" xlink:href="#f" width="100" transform="translate(78.9 126.95) scale(1.7026)" height="40"/></svg>