<svg width="265" height="282" xmlns="http://www.w3.org/2000/svg" xmlns:xlink="http://www.w3.org/1999/xlink"><defs><linearGradient y2=".612" y1=".632" x2="-.163" x1=".579" spreadMethod="pad" id="a"><stop stop-color="#563f29" offset="0"/><stop stop-color="#35251a" offset="1"/></linearGradient><linearGradient y2=".097" y1=".525" x2="1.37" x1=".419" spreadMethod="pad" id="b"><stop stop-color="#8f6b30" offset=".016"/><stop stop-color="#694c22" offset="1"/></linearGradient><linearGradient y2="-2.059" y1="-2.018" x2=".302" x1="-.099" spreadMethod="pad" id="c"><stop stop-color="#b5a277" offset="0"/><stop stop-color="#a18c63" offset="1"/></linearGradient><linearGradient y2=".482" y1=".438" x2=".468" x1="1.216" spreadMethod="pad" id="d"><stop stop-color="#b09d72" offset="0"/><stop stop-color="#e8ddc7" offset="1"/></linearGradient><linearGradient y2=".344" y1=".344" x2="1.422" x1=".494" spreadMethod="pad" id="e"><stop stop-color="#5c512e" offset="0"/><stop stop-color="#2e2716" offset="1"/></linearGradient><linearGradient y2=".608" y1=".406" x2=".428" x1=".956" spreadMethod="pad" id="f"><stop stop-color="#b09d72" offset="0"/><stop stop-color="#e8ddc7" offset="1"/></linearGradient><path fill-rule="evenodd" fill-opacity="0" fill="#f0f" d="M100 40H0V0h100v40" id="g"/><use xlink:href="#g" width="100" height="40" id="i"/><g id="h"><path stroke-width="1.75" stroke-linejoin="round" stroke-linecap="round" stroke="#3d3123" fill="none" d="m249.15 65.85 2.9-.35q5.2 1.3 6.4 5.55.1 5.6-2 19.8l6.3 3.05 4.25 4.2v4.1l-2.85 2.25.85 3.65 5.8 1.1.05-2.3 1.55-.85 8.35 2.2 1.8 2.1v1.7q1.4.65 2.75 1.35l.25-2.6 1.15-2.6 2.25-1.05v-.9h1.6l.55 1.85-1.25 9.6-1.75 7.4q12.1-3.45 21.15-9.8 2.8-1.9 2.65 1.75-6.25 11.75-14.6 21.75-5.55 5.15-14.2 10l-.05.15q-.85 6.15-1.4 12.75l4.35.65q12 1.1 16.9-1.75 3.05-1.55-.3 6.15-6.6 10.25-22 12.85l-.15 5.45q7.9-.7 13.9-4.35 2.8-1.65 3.7-.95 2.45 4.8-10.7 15.55 9.65 3.75 24.05 7.4 11.5 2.9 26.05 5.65 7.1.3-2.85 4.7-10.7 3.85-21.6 5.55-15.7 2.4-31.95.35l1 15.35-.15.4q-1.3 3.3-4.55 5.95l-1.8 1.4-.3.2-.05-1.5v.85l-1.15 1.4-.35.15q-1.95 1.15-4.3 2.1l-.8-13.15.35 11.8-1.45 2.05-7.55 2.15h-.2l-1.1-.4q-1.4-.6-1.35-1.5l-.5.9q-.75 1.15-2.15 2.1l-5.15.8q-1.05 11.1.5 19.05 1.15 5.7-2.8 8.2l-.1-.1.25-3.7-.4 2.25-2.4 2.7-1.25.35q-6.05 1-8.35-.35-2.4-1.3-2.25-2.3l1.25-5.65.3-2.55-4.9 9.95-2.7 2.75 1.3-4.85q.15-4.65-1.1-9.05l-5.9 5.3-4.85 5.65 1.7 2.3q2.55.85 6.3 3.2l1.9 3.95-.15.9.65 2.75q0 1.05-1.95 4.55-1.95 3.45-6.25 3.15l-7.8.2-8.2-2.4-12.35-1.3q-3.25-.95-4.05-2.2v-1.15l.35-.5q-12.75 4.8-26.15 7.85l-.2 4-2.65 2.8.45-7.7-6.2 9.45-7.3 3.15 2.1-3.45-1.95 1.05.5-1.05-2.85 2.65.35-2.85q-1.75 1.95-5.75 4l-.1 3.05q-.2 3-1.15 5.75-5.1 4.15-16.8 7.75-7.25-1.1-11.2-4.4-1.15-1.95-.9-4.15l1-1.7v-.1q-.7-3.35-.3-6.8v-.05q2-3.55 5.75-7.45l.1-.05-.05-.05q-1.95-1.7-2.45-2.6.05-.85.7-1.8l1.2-1.35h-.05L111.1 296l-5.05-5-.3-.35q-1.85-2.25-3.1-4.55l-.25-.5v-.1l-1.7-4.2-10.7-8.7 2.35-4.05q-.15-4.35 1.65-9.45l-2.15-1.9-.5-.25q-3.15-4.8-3.45-10.1v-1.6q-3.1-1.1-4.9-2.4-1.9-1.35-2.5-2.95l-.7-1.45 2.35-5.95q-2.2-9.95.05-19.85-3.95-7.85-2.9-17.4l.05-.85q3.9-4.3 9.3-5.2l1.85-2.15.3-1.1q1.8-7.5 5.15-14.95l.05-.1q3-4.1 5.5-6.5h.1v-.55l.55-2.15q1.1-4.1 2.7-8.05l.55-1.4q2.5-5.9 6.1-11.5 2.8-3.25 7.85-6l2.4-4.4 6.2-2.4 1.6-1.95h4.15l1.75.9.65-1.65q-2.5-2.15-3.25-4.1-3.65.7-4.85 2.45-.85-.4 2.25-4.55-3.15 2.7-5.45 7.5l-.8-1.5 2.25-6.45q-4.85 5-6.1 7.65.35-7.9 5.5-14.7l-2.15 1.1q-2.85 1.2-7.4 2.6l-.05.05-.35.05.25-.2.1-.1q2.15-1.95 3.9-4.25 1.15-1.6 5.75-5.1l-7.1 1.8-2.55 2.35q-10.95 9.65-22.9 15.65 9.35-7.4 15.85-15.25 2.3-4.15 5.8-8.55l-3.1.35q-32.65 12-30.2 25.75-2.3-6.95-.85-13.75.6-3 2-6.05 7.35-5.9 25.85-10.85l7.55-3.9q7.05-4.35 7-7.55 6-.3 11.7 1.05 3.55-5.8 14.7-12.6L139.2 67.5l.55-.5 4.35 1q5.6 1.5 10.2 3.3l.45-.25 7.2-.65-2.2-5.3-14-14.45.15-1.25 5.35 2.85q7.1 4.15 14.4 10.55 1.75 3.6 2.95 7.95l2.15.3 3.05 1.45q.85-4.2.95-8.35l1.35 1.35q1.9 5.6 2.15 10.95 3.9 4.8 5.5 13.2l1.95 3.3-.25.95 3.5 1.75 4.8 5.15 4.75.1q4.55 1.45 7.55 3.3 2.5-1.75 7-3.15 1.9-.15 4.95 1.25l.1.05 3.6-.75q4.1-4.05 8.25-5.8l1.9.65 1-1.05 4.45-1.85 3.35-2.1-.05-.1-1.1-8.95q-.55-6.95 1.85-12.5.85-3.05 7.8-4.05m-154.5 193.1 1.55 1.65-.9-.4-.65-1.25"/><path stroke-width=".25" stroke-opacity=".4" stroke-linejoin="round" stroke-linecap="round" stroke="#351e0a" fill="none" d="m226.95 107.85 4.2-2.05 5.35-5.7 1.7-1.05m-5.75-2.25-4.05 1.05-4.65 4.55-3.25 1.1m.45 6.35 1.5-2.25 3.1-.6m1 14.2 8.1-1.8 2.7-2.55 5.65-3.25 5.2-5.55.95-1.55m-31.2-4.15-4.75.45-4.6 2.55m44.65 10.7-6.05 6.6-13.1 10.95-2.5.7-2.25-.2m10.65 3-9.7 3.95-4.35 1.35-1.55-1.85m30.4-16.8-3.7 4.5-7.25 4.2m-89.5-55.2h.75l.8-.45q-22.9-.85-23.45 28.85M157 76.45l-.3.8h2.3m-.6-.95q1.9-6.85 11.65-5.4M157 76.15l-1.1.65.8-.15m-1.6.6h1.6q-4.4 11.95-3.6 33.55-2-.55-1.7 4.2m5.9-38.2q17.75-4.2 22.2 25.6 2-.2 1.7 2.5m-23.8-27.65q9.45 6.15 9.35 32.6l.15.3q1.65-.5 1.1 3.45m-26.1-3.75-.3.05v.25m-.9-.55q-2.15.2-.65 4m15.05-36.35q-15.55 9.45-13.5 32.65m-11.15 96.8 1.3 2.6-1.7 4.45-6.05 7.45-1.05 1.65-1.2 7.05 1.55 4.65 1.55 3.25v1.95m-38.9-38.5-2.8 1.85-1 3.1 1.95 5.3-.35 17.45.85 9.4-1.75 3.45v.9m39.45-32.45 1.7 2.8-1.25 4.65-3.5 6.3m-8-12.5 2 4.4-1.9 4-4.55 11.3 1.9 8.85 2.5 4.6-1.6 2.4m9.25-22.75-.9 8.8 1.75 6.2.85 1.95-1 1.2"/><path stroke-width=".25" stroke-linejoin="round" stroke-linecap="round" stroke="#0f0" fill="none" d="m105.6 290.75 18.1 9.8"/><path fill-rule="evenodd" fill="#3d3123" d="m-3.95-6.5 10-15.35 16.45 4.1L25.25-14q2.55.85 6.25 3.15l1.9 3.95-.15.9q-.5 2.9-1.9 5.65L27.8 1.5q-5.85.75-11.15.15l-.3-.05-4.4-1.95-11.1-.1-3.9-1.4-1-1.75.1-2.9-.1 2.9 1 1.75 3.9 1.4 11.1.1-3.9-1.05 3.9 1.05 4.4 1.95.3.05q5.3.6 11.15-.15l3.55-1.85q1.4-2.75 1.9-5.65.6 1.7.65 2.75.05 1.05-1.9 4.55-2 3.45-6.3 3.15l-7.75.25L9.7 2.3-2.65.95Q-5.85 0-6.7-1.2v-1.2l2.75-4.1m23.1-1.45q1.65-2.55 5.6-5.3l-2.45-2.4q-5.3 2.4-7.65 6.3l1.05 1.5 2.55 1.1.9-1.2m7.3 1.75q3.25-2.05 4.15-4.1-.9 2.05-4.15 4.1M-49.9 10.05v2.5l.45 1.3-1 2.35-2.75 1.65-2.85 2.2q-.25 3-1.2 5.75-5.05 4.15-16.8 7.75-7.2-1.1-11.15-4.35-.8-1.35-.95-2.85l3.1 2.8 8.2 3 5.55-1.4 2.9-2.55-1.25-.9q4.35-2.1 7.25-4l.35-.3 3-7q5.9-3.15 7.15-5.95-1.25 2.8-7.15 5.95l-3 7-.35.3q-2.9 1.9-7.25 4l-5.05 2.1 1.55-6.9 3.15-4.3q-9.45-1.65-14.55-6.05l2.85-3.25.75.8-1.05 1.55-.1.1.5 1 .1.1q6.1.8 11.7 4.25l.1.05q5.6-1.35 6.1-2.7l-2.1-1.25 6.45-.6q3.95-.7 7.35-2.15m-6.85 5.3-.3.65.3-.65m.7 4.7L-56 17q4.5-2.25 6.1-4.45-1.6 2.2-6.1 4.45l-.05 3.05m-1.2-7.85v2.45l-2.25 1.05-1.6-1.4-.5-.25.5.25 1.6 1.4 2.25-1.05V12.2" transform="translate(192.55 294)"/><path fill-rule="evenodd" fill="#84622b" d="m19.15-7.95-.9 1.2-2.55-1.1-1.05-1.5q2.35-3.9 7.65-6.3l2.45 2.4q-3.95 2.75-5.6 5.3m-83.85 20.8h.15l.85-.05 2.1 1.25q-.5 1.35-6.1 2.7l-.1-.05q-5.6-3.45-11.7-4.25l-.1-.1-.5-1 .1-.1 1.05-1.55 2.45 1.8q5 1.45 11.8 1.35" transform="translate(192.55 294)"/><path fill-rule="evenodd" fill="#dfd3ba" d="m-81.5 2-2.8-2.6q-3.6-3.55-5.6-7.3Q-78.55 2.3-64 7.3q.35 2.6-7.1 2.1l-.6-.35q-2.8-1.6-6.55-4.5l-.95-.7L-81.5 2m1.8 6.9.1-.05-.05-.05-2.45-2.6q.05-.8.75-1.8l7.7 5.2 4.3.7q6.8 1.85 4.65 2.55-6.8.1-11.8-1.35l-2.45-1.8-.75-.8" transform="translate(192.55 294)"/><path fill-rule="evenodd" fill="#b5a277" d="m-81.5 2 2.3 1.85.95.7q3.75 2.9 6.55 4.5l.6.35q7.45.5 7.1-2.1-14.55-5-25.9-15.2l-.3-.5v-.05l-2.7-6.95 27.7 2.05L-35.45-3.1-37.1-.6q-2.6 3.75-5.9 6.5-3.1 2.5-6.9 4.15-3.4 1.45-7.35 2.15l-6.45.6-.85.05h-.15q2.15-.7-4.65-2.55l-4.3-.7-7.7-5.2 1.15-1.35h-.05L-81.5 2m2.3 1.85-1-.8 1 .8" transform="translate(192.55 294)"/><path fill-rule="evenodd" fill="#5e4b37" d="m-86.15 26.35.05-1.35.95-1.7v-.1q-.65-3.15-.3-6.4l1.15 1.15.3.5 1.7 2.35q1.65 2.15 8.9 1.4l2.35-.1-.1.4-1.55 6.9-1.4.55-.1.1q-6.35-1.7-10.4-4.7l-.55-2.05.55 2.05q4.05 3 10.4 4.7l.1-.1 1.4-.55 5.05-2.1 1.25.9-2.9 2.55-5.55 1.4-8.2-3-3.1-2.8" transform="translate(192.55 294)"/><path fill-rule="evenodd" fill="#7d644a" d="m-85.45 16.8.05-.4v-.05q1.1-2.05 2.85-4.2 5.1 4.4 14.55 6.05l-3.15 4.3.1-.4-2.35.1q-7.25.75-8.9-1.4l-1.7-2.35-.3-.5-1.15-1.15" transform="translate(192.55 294)"/><path stroke-width=".25" stroke-opacity=".612" stroke-linejoin="round" stroke-linecap="round" stroke="#361f0a" fill="none" d="m225.8 288 .15-.9-1.9-3.95q-3.7-2.3-6.25-3.15l-2.75-3.75-16.45-4.1-10 15.35-.1 2.9 1 1.75 3.9 1.4 11.1.1-3.9-1.05m11.1-6.55-.9 1.2-2.55-1.1-1.05-1.5q2.35-3.9 7.65-6.3l2.45 2.4q-3.95 2.75-5.6 5.3m14.1 1.95q-.5 2.9-1.9 5.65l-3.55 1.85q-5.85.75-11.15.15l-.3-.05-4.4-1.95m-15.9-6.15-2.75 4.1v1.2q.85 1.2 4.05 2.15l12.35 1.35 8.25 2.4 7.75-.25q4.3.3 6.3-3.15 1.95-3.5 1.9-4.55-.05-1.05-.65-2.75m-2.65-4.3q-.9 2.05-4.15 4.1m-116.35-1.7q2 3.75 5.6 7.3l2.8 2.6m2.3 1.85.95.7q3.75 2.9 6.55 4.5m-18.2-16.95-.3-.5v-.05l-2.7-6.95 27.7 2.05 29.75 10.25-1.65 2.5q-2.6 3.75-5.9 6.5-3.1 2.5-6.9 4.15v2.5l.45 1.3-1 2.35-2.75 1.65-2.85 2.2q-.25 3-1.2 5.75-5.05 4.15-16.8 7.75-7.2-1.1-11.15-4.35-.8-1.35-.95-2.85l.05-1.35.95-1.7v-.1q-.65-3.15-.3-6.4l.05-.4v-.05q1.1-2.05 2.85-4.2l2.85-3.25.1-.05-.05-.05-2.45-2.6q.05-.8.75-1.8l1.15-1.35h-.05l-1.25-1.05M128 306.85l.85-.05 6.45-.6q3.95-.7 7.35-2.15-1.25 2.8-7.15 5.95l-3 7-.35.3q-2.9 1.9-7.25 4m-12.05-18.4.75.8 2.45 1.8q5 1.45 11.8 1.35m-15.5-9.8 1 .8m17.6 10.2q-.5 1.35-6.1 2.7l-.1-.05q-5.6-3.45-11.7-4.25l-.1-.1-.5-1 .1-.1 1.05-1.55m15.25 3.1 2.1 1.25.5.25 1.6 1.4 2.25-1.05v-2.45m7.35.35q-1.6 2.2-6.1 4.45l-.05 3.05m-1-4.05.3-.65m-28.4 7.95.55 2.05q4.05 3 10.4 4.7l.1-.1 1.4-.55 5.05-2.1"/><path stroke-width=".25" stroke-linejoin="round" stroke-linecap="round" stroke="#c79e75" fill="none" d="m108.55 312.45 1.7 2.35"/><path fill-rule="evenodd" fill="#664a30" d="m59.65-225.6.4.35-.4-.35m-3.05-2.55 2.9-.35q4.25 1.05 5.8 4.05l-1.55 3q-1-1.75-3.7-3.8 1.6 1.8 1.8 4.8-1 1.65-3.65 1.65v17.25l-2.85 2.3-.8.15-2.85.6-1.95-15.1-.4-5.2.7-3.05 6.55-6.3m-2.15 26.5.1 2.55-.1-2.55m19.7 32.15.1.1-.2.05.1-.15m.75 1.55-.2 4.8-1 8.05-2.4 4.85q-1.4 1.35-2.2 2.8-.85 1.55-.95 3.15l.15 1.65.2.9.95 5.2.05.2.55 3.3 1.9 3.5h.4v9.55l.3 17.5-2.4 2.1-2.2 4.2-.05 4.3 1.45 1-1.4 2-1.1 4.75q.25 1.2 1.1 2.3l1.85 1.65 2.4 2.55 3.8 12.55-.05 3.2.35 11.8-1 1.4-.45.65-5.25 1.65-5.3-10.2-2.55-4.9-3.6-28.7-4.65-25.35 9.95-22.5-3.4-7.3-.25-.5.5-.85 4.5-7.25 2.35-13.15 7.65-.85m-14.75 22.6.25-1.35-.25 1.35m2.3 37.9q.1 25.7 1.3 42.05l.65 8.8-.65-8.8q-1.2-16.35-1.3-42.05m22.9-45-2.2.95 1.65-13.45 1.4-6.9.2.05 2.75-.7-3.8 20.05" transform="translate(192.55 294)"/><path fill-rule="evenodd" fill="#5a4229" d="m63.75-221.45.1.15q-.45 9.55-2.65 18.8l-.7 5.4-.55-.1 1.95-22.05-.05-1.2q-.2-3-1.8-4.8 2.7 2.05 3.7 3.8" transform="translate(192.55 294)"/><path fill-rule="evenodd" fill="#8f6b30" d="m60.5-197.1 1.7.25-2 .4h-7.25l4.5-1.05.6.05h.15l1.75.25.55.1m5.55-.45.2-.15-.15.15.2-.1.6.4-.5.3-.35-.6h.05-.05m-48.4 11.65q.55.3 1.15.65l-.3.5-.85-1.15m-36.45 44-.2-1.25-1.8-1.95-1.85.5.55-.7-.4-1.95-1.55-1.15q3.45.25 6.8 1.65 6.05 2.6 11.8 9.15-5.9-2.9-13.35-4.3" transform="translate(192.55 294)"/><path fill-rule="evenodd" fill="#fed798" d="M62.2-196.85h.75l3.1-.7.35.6.85 1.2q-4.4-.4-7.75 1.45l-1.05-1.15h-7.9l-.5.4-6.75-2.45-1.55.85-1.75-.7-.7-.2 1-1.05 4.45-1.85 3.35-2.1.65 5.55-.8.15.8-.15 1.65-.35 1.4-.3.6-.15 2.15.05 2.9.25-4.5 1.05h7.25l2-.4m-2 .4-3.7 1 3.7-1m-63.4 3.6 9.15-.25q4.55 1.45 7.55 3.3l1.85 1.25.95.85.4.45.95 1.35.85 1.15Q9.15-190 2.1-187.6l-5.3-5.25" transform="translate(192.55 294)"/><path fill-rule="evenodd" fill="#7a5a28" d="m63.9-203.15 6.3 3.05 4.25 4.2v4.1l-2.85 2.25.85 3.65.05.4-.45.35-1.65 1.2v2.75l.7 1.3-1.8 3.25-.65 1.8-3.8.7-.2-.4-1.05-1.95 1.45-3.5-.95-.95-.05-3-1.95 3.85-1.9.9-2.3-5.75-1.2-2.55-1.25-2.25-2.2-1.75q-1.75-1.15-4.5-2.35l-3-1.3-4-1.5 1.55-.85 6.75 2.45.5-.4h7.9l1.05 1.15q3.35-1.85 7.75-1.45l-.85-1.2.5-.3-.6-.4-.05-.05-.2.15-3.1.7.95-6.3m2.15 15.2-1.1 2.2-.25.5-.65 1.3.65-1.3.25-.5 1.1-2.2.1-.05-.05-.15-.05.2m3.55-4.35-3.5 4.15 3.5-4.15m.3-6.3-2.5-.1-1.15 1 1.15-1 2.5.1m1.7 9.05-1 .75.45-2.05 1.15-2.7q-.25-1.8-1.55-3.7H66.9h3.75q1.3 1.9 1.55 3.7l-1.15 2.7-.45 2.05 1-.75M66.15-188l2.3-.9 1.35-1.85-1.35 1.85-2.3.9m2.75-7.9-2-1.35 2 1.35m1.5 11.95v-.4l-1.45-2.2 1.65-2.25-1.65 2.25 1.45 2.2v.4m-5.45-1.8-.25.5.25-.5h3.4l.6-.8-.6.8h-3.4m5.45 4.55-1.6 1.75-.9.2h-1.45l-1.4-.75 1.4.75h1.45l.9-.2 1.6-1.75" transform="translate(192.55 294)"/><path fill-rule="evenodd" fill="#d49e63" d="m48.1-202.55-.05-.1-1.1-8.95q-.55-6.95 1.85-12.5.85-3.05 7.8-4.05l-6.55 6.3-.7 3.05-1 4.8 2.05 16.65-1.65.35-.65-5.55" transform="translate(192.55 294)"/><path fill-rule="evenodd" fill="#5e472d" d="m49.35-218.8.4 5.2 1.95 15.1.1.85-1.4.3L48.35-214l1-4.8" transform="translate(192.55 294)"/><path fill-rule="evenodd" fill="#574b32" d="m58.8-173.65-1.75 4.55q-2.25 3.65-5.25 7.3 3-3.65 5.25-7.3l1.75-4.55m1.85-4.15q1 3.35 1.6 6.7l.1.85-3.75 4.5-6.8 3.95-.3.35-2.5 2.9-1.6 1.7-9.65 3.9-4.3 1.35-1.45-1.7v-.05q3.75-3.35 4.7-6.45l.1-.2h.1-.1.1l2.2.3 2.45-.7 13.15-10.95 5.95-6.45m-38.9-10.25-.15-.6 5.05 1.75L29-185l-.65 1q-3.1-2.95-6.6-4.05m22.2-6.15h.5l-.5.25v-.25M-69.4-77.75l-.4 1.45-3.45 6.3-1.35 9.05 1.8 6.25.85 1.9-.9 1.35q-4.05 2-9.95 4.35l1.45-2.25-.55-1.1.05-.75-1.6-4.05q-1.65-3.7.25-8.8l4.35-10.7 9.45-3" transform="translate(192.55 294)"/><path fill-rule="evenodd" fill="#8a7750" d="M21.6-188.65q-.35-1.95 4.9-.8l.75.15 1.9-.4 3.95 2.65-3.95-2.65q4.1-4.85 14.8-4.5v.25l-5.3 5.75-4.25 2.1-1.3-.95-3.15.65L29-185l-2.35-1.9-5.05-1.75" transform="translate(192.55 294)"/><path fill-rule="evenodd" fill="#998458" d="M48.75-193.85q2.75 1.2 4.5 2.35l-11.2 7H36.5l2.05 1.65v.25h-5.2l-.55.6-3.8-3 .95-1.4 3.15-.65 1.3.95 4.25-2.1 5.3-5.75.5-.25 4.3.35m-12.55 9.1-1.8-1.35 1.8 1.35" transform="translate(192.55 294)"/><path fill-rule="evenodd" fill="#e3c27f" d="m39.3-197.55.7.2 1.75.7 4 1.5-1.3.95 1.3-.95 3 1.3-4.3-.35h-.5q-10.7-.35-14.8 4.5l-1.9.4-.75-.15q-5.25-1.15-4.9.8l.15.6q-2.65-.85-5.65-.6l4.6-2.55 4.75-.5-4.75.5-4.6 2.55-.75.1-1.85-1.25q2.5-1.75 7-3.15 1.9-.15 4.95 1.25l.1.05 3.6-.75q4.1-4.05 8.25-5.8l1.9.65m-7.55 4.6-2.6.55 2.6-.55m-6.2 1.3 2.4 1.25 1.2.7-1.2-.7-2.4-1.25m2.4 1.25 3.3-1.2 4.65-4.6 4.1-1.15-4.1 1.15-4.65 4.6-3.3 1.2" transform="translate(192.55 294)"/><path fill-rule="evenodd" fill="#5e5136" d="m53.25-191.5 2.2 1.75 1.25 2.25-1 1.55-5.2 5.5-5.65 3.3-2.75 2.55-8 1.8-3.8-8.25-1.1-2.1-.85-.85.65-1 3.8 3 .55-.6h5.2v-.25l-2.05-1.65h5.55l11.2-7m-8.7 13.8-6-5.15 6 5.15" transform="translate(192.55 294)"/><path fill-rule="evenodd" fill="#52462e" d="m56.7-187.5 1.2 2.55 2.3 5.75.4 1.35.05.05-5.95 6.45-13.15 10.95-2.45.7-2.2-.3q.7-4.35-2.8-12.8l8-1.8 2.75-2.55 5.65-3.3 5.2-5.5 1-1.55m5.65 17.25.15 1.1.2 1.4v.15l-.6.75q-4.4 5.4-10.3 7.5l-2.8.8 2.5-2.9.3-.35 6.8-3.95 3.75-4.5M32-153.3l1.45 1.7 4.3-1.35 9.65-3.9-5.75 5.55-7.2 1.15-7.1 1.85-.05-.3-.3-.75 5-3.95" transform="translate(192.55 294)"/><path fill-rule="evenodd" fill="#724f25" d="m60.2-179.2 1.9-.9 1.95-3.85.05 3 .95.95-1.45 3.5 1.05 1.95v1.65l-1.5 1.7-.8.95-.1-.85q-.6-3.35-1.6-6.7l-.05-.05-.4-1.35" transform="translate(192.55 294)"/><path fill-rule="evenodd" fill="#d6a555" d="M-87.15-141.75q2.5-5.9 6.1-11.5 2.8-3.25 7.85-6l2.7-1.4 3.4-1.5q7.95-.35 14.05 5.5l5.55 9.75 1.7 5 1.55-.35q5.8-1.4 7.7 1.9 1.55 2.6.5 8.05l-.35 1.9q-13.2 21.65-17.9 11l-8.7 5.3q-6.05 18.2-12 13.8l-1.5 11.2-.4 1.35q-.35 1.3-2 1.95-1.65.55-6.05.9-4.5.35-10.4-1-2.25-.55-4.45-2.65-1.6-1.5-3.15-3.85v-8.45l-.05-.95-2.4 5.05-1.45-3 .95-2.55.15-.35 1.85-2.15 1.85-2.15.3-1.1q1.8-7.5 5.15-14.95l.05-.1v.05l3.9-1.95v3.3q1.15 5.5 4.95 11 10.3-5.35 16-11.85-11.55 4.4-14.45-9.75-.6-2.6-.8-5.8l-.2-3.65m103.25-46.9q3-.25 5.65.6 3.5 1.1 6.6 4.05l.85.85 1.1 2.1q-.5 2.2-3.9.45l-7.6-4.65q-.6-.35-1.15-.65l-.95-1.35-.4-.45-.95-.85.75-.1m-70.9 48.3q-.05-3.8-1.6-8.35-.15 4.45-1.6 8.35-1.7 4.4-5.2 8.05-4.55 4.8-12.1 8.25 13.7-1.55 18.25-8.25 2.3-3.4 2.25-8.05m4.05 8.05q.7-1.55 2.8-2.95-2.1 1.4-2.8 2.95m.4-4.35q2.45-2.25 5.4-3.7l.5-.25-.5.25q-2.95 1.45-5.4 3.7m-52.4 33.45.7-3.75-.7 3.75m-.2.85-.05.55.05-.55m-1.7 55.2 3.1 2.3 1.2-1.9 4.55 1.25 3.8 4.7 7.7 1.85-1.75 6.3-1.85.6-1.45-3.25-.6-1.35.6 1.35-1.85 2.6-3.05-1.35-2.25.5-1.4-1.5-.2-.45-2.6-1.3-.5-.25q-3.15-4.8-3.45-10.1m5.95 10.5.6 1.15-.6-1.15" transform="translate(192.55 294)"/><path fill-rule="evenodd" fill="#403526" d="m-73.2-159.25 2.4-4.4 6.2-2.4L-63-168h4.15l1.75.9 12.15 6.6 12.15 8.15 3.85 4.2.75.8-.7.65.45.95-.35.1-1.25-1.4H-32.1l-1 1.85-1.25-1.25 1.5-1-6.2-6.05-19.75-11.4-3.5-.65 1.2 1.8 2 .75.7.2 3.95 2.5-9.8-3.05-1.7-.6-4.55 3.3-2.7 1.4m89.9 40 3-1.75 1.5.85.8 2.25-.5 2.65-1.2 1.25q-2.4 3.05-6.1 5.5l-1.2-2.85-2.55-1.25q3.55-2.95 6.25-6.65m5.15-3.35 1.35-1.2 1.8-2.35.4 2.15q.05 1.45-.35 2.95l-1 2.35-.5-.2-.5-2.35-1.2-1.35M11.4-106.35l-.15.15q-3.7 2.6-7.95 5.1l.35-2.05-1.2-2.25-2.05-1v-.05q3.75-1.7 6.95-3.85l1.5-1.05 2.55 1.4 1 2.85-1 .75m-12.35 7.6-3.15 1.6q-6.9 1.8-12.75 2.75l.45-1.65q6.8-1.6 13.05-8.85h.1l1-.4 1.65.9 1 1.35v2.55l-.6 1.35-.1.05-.65.35m-58.25-6.3 1.1.95 3.05 1.15 4.75 1.85.75.35-1.85 1.25 1.25 1.2 4.55 1.2-.05.7.35 3.5-3.3-.45-.8-1.05-2 .45h-.25l-1.9-.75-7.15-2.55q1-3.9 1.5-7.8" transform="translate(192.55 294)"/><path fill-rule="evenodd" fill="#362e12" d="M41.9-58.1q-.55 4.3.95 8.95l.15 1.5-1.55 2-2.05.75q-.5-4.2-.4-8.45l.05-.15 2.85-4.6M.4-154.8l.3 2.1 1.05.5-.15.7-1.25.05h-.1l-.5-1.75.65-1.6m9.6-3.75.55-1.05-.25-1h.4l2.35 1.7-1.5 1-1.55-.65m-58.4 72.9-1.5-3.65 1.25-.5 1.15 1.3v2.75l-.8.3-.05.05-.05-.25m2.35 3.7.25-.45 1.15 1.3v1.3l.05 1.45-.85.35-1.4-2.7.8-1.25m4.15 67.2.25-.75.2.85-.45-.1m.1-2.05.35-1.35-.05-.45q-.2-2.2.4-4.4l.7-.95.5 5q.8-1.75 2.1-2.4l.9-.35h.35q.3 1.55.15 3.1l-.15.75-1.85 1.1-2.2-.4-.85-1 .85 1 2.2.4 1.85-1.1q.5 2.1.05 4.1h-.05q.3.55.3 1.1l-.15 2.25-1.2.7-1.45.55-.45-.15q1.5-1 0-3.65 1.2-.5 0-1.8-1.5-2.4-2.3-2.05m5.25 3.05q-.85.6-2.5 1.05l-.45-.25.45.25q1.65-.45 2.5-1.05" transform="translate(192.55 294)"/><path fill-rule="evenodd" fill="#c7b283" d="m8.55-162.7.9.6.65.45.2 1.05.25 1-.55 1.05v-.05.05-1.05l-.75-1.3-2.55.1-.15-.6 1.6-.5.4-.8" transform="translate(192.55 294)"/><path fill-rule="evenodd" fill="#d2ba82" d="M-31-147.05H-30.05l1.25 1.4.8 1.4-1.35 1q-.6.65-.85 1.55l-.05 1.4q.05.95.55 1.75l1.05 1.25q1.35 1.25 3.1 1.25l.75-.05q1.25-.25 2.15-1.2.6-.75.8-1.6.15-.65.05-1.4-.2-1.75-1.6-2.95l-.15-.2.9-1.15-.9 1.15q-1.35-1.05-3-1.05l-1.3.2-.6-1.45-.45-.95.7-.65.8-.85.8-.8.45.8.15.35.2-.35.35-.85.8.35.6.3 1.55 1.15.4 1.95-.55.7 1.85-.5 1.8 1.95.2 1.25.25 1.4-.7.8-.8.85-1.8-.05 1.8.05.8-.85.9 2.15-1.25 2.95-2.7 1.4-.95-.3-.75-.55-1.15 1.75v.05l-1.7.45-.7-2.25-.5 2.35-.7.05-1.3-1.85-.65-2 .55-2-.5-.6-.55.4q-.9.75-1.05 1.85l-.9-.4.4-.9-.35-.65-.55-2.45 2-2.15-1.1-.6-.45.6-.7-1 .05-.1 1.9-.3h.05v-1.55l.9-1.7m27.3-19.75 5.05-.9 2.05 1.55v1.9-1.75h.05l2.1-.6 2.2 1.2 1 2.15-.2.55-.4.8-1.6.5-.05-.1q-.65-1.6-2.25-2.4l-.85-.35-2.4-.05q-1.65.45-2.35 1.9l-.35.85v.8l.5 1.95q.7 1.2 2 1.85l.35.15-.45.85-.3.7.3-.7.45-.85 2.95.25 1.65-.95 2.15.8.4 1.1-.4-1.1-2.15-.8.7-.95q.55-1.15.25-2.35l2.55-.1.75 1.3v2.6l-1.7 1.4.25.75-.8 1.65-1.65-1.25q-.8-.6-1.5-1.15l1.35 1.3 1.45 1.8-.85 1.15h-1.7l-1.15-1.5v1.5l-1.95-.85-1.05-.5-.3-2.1-.05-.4.05-.05h-3.15l-2.6-3.25.65-3.9.1-.1 1.2-.7-.5-.95.1-2.65h.1m2 5.25-1.35-1.9-.35.25.35-.25 1.35 1.9m-2.15 1.85 2.65.9-2.65-.9m4.55 3.75-.3 1.15.3-1.15m-25.5 19.85v1.45l.8.6-.8-.6v-1.45m-5.4-5.6-1.45-.7 1.45.7m.5 3.15-.95.45.95-.45" transform="translate(192.55 294)"/><path fill-rule="evenodd" fill="#5c4510" d="m1.15-156.8-.35-.15q-1.3-.65-2-1.85l-.5-1.95v-.8l.35-.85q.7-1.45 2.35-1.9l2.4.05.85.35q1.6.8 2.25 2.4l.05.1.15.6q.3 1.2-.25 2.35l-.7.95-1.65.95-2.95-.25m-24.7 13.35.15.2q1.4 1.2 1.6 2.95.1.75-.05 1.4-.2.85-.8 1.6-.9.95-2.15 1.2l-.75.05q-1.75 0-3.1-1.25l-1.05-1.25q-.5-.8-.55-1.75l.05-1.4q.25-.9.85-1.55l1.35-1 .15-.05 1.3-.2q1.65 0 3 1.05" transform="translate(192.55 294)"/><path fill-rule="evenodd" fill="#fff" d="m72.45-185.9.15.05-.1.35-.05-.4m13.95 13.25v.85l-.2-.05.2-.8m-90.15 5.8.05.05h-.1l.05-.05m7.15.7.05.15H3.4v-.15m-8 3.6v.05l-.1.1.1-.15m6.3 33.2h-.05v-.05l.05.05m39.1 110.9-.5-.1 1.1-5-.6 5.1m41.9-33.9.3.4-.3.2v-.6" transform="translate(192.55 294)"/><path fill-rule="evenodd" fill="#352d20" d="m-13.65-172.1 9.9 5.25-.05.05-.1 2.65.5.95-1.2.7v-.05l-11.5-6.95 2.45-2.6m-6.75 78.4-10.8 1.15q-5.95.3-11.4-.1l.45-2.3-.7-5.1 4.2-.25q1.5 1.05 3.4 1.95l1.7.75 4.05 1.5q4.95 1.25 9.5.75v1.6l-.4.05M-93.85-78l.85.05 1.2 1-.55 1.4-.55 1.1-.85-.05-1.7-.15-4.35-.9q-1.9-.6-3.35-1.45l-.65-.4 2.75.6q6.75 2.15 6.2 0v-1.35l1 .15m-1.05 8.65h1.45v.4l.05.15.95 1.45-.7.65h.5l-.95.8h-2.7l-3.2.2-1.85-.5-2.65-.6-.15-.35-.15-.25 3.25.7h5.65l.9-2.25-.4-.4m.25 13.25h1.25l.6.2.65.65.45.4-.15.35-.3-.35v-.4V-54l.1.05-.1.15-.45 1.2h-5.6l-3.6-.75-1.85-.45-.15-.2-.6-1 3.35.7h5.65l.7-1.7.05-.1m58.6-41.15L-39.1-100h-2l1.9 2.75h3.15m-57.4 28.05H-94l.6.4-.6-.4h.55" transform="translate(192.55 294)"/><path fill-rule="evenodd" fill="#91805e" d="M1.6-118.05q2.1 1.85 5.4 1.75l3-.55q3.55-.8 6.7-2.4-2.7 3.7-6.25 6.65-.45-.2-.85-.45H7.95l-.75 2 .15.75q-3.2 2.15-6.95 3.85l-1.85-.7h-.4l1.45-3q1.5-3.6 2-7.9m-2 7.9 4.5-2.1 5.9-4.6-5.9 4.6-4.5 2.1" transform="translate(192.55 294)"/><path fill-rule="evenodd" fill="#8f7d56" d="m19.7-121 2.15-1.6 1.2 1.35.5 2.35v3l-1.6 1.9H20.3l1.2-1.25.5-2.65-.8-2.25-1.5-.85m5.3-5.15 1.35-2.3q.5.3 1 1.75.55 1.65-.4 3.65l-.5 1.1-1.4.9q.4-1.5.35-2.95l-.4-2.15M14.2-108.5l.25.65-.85 1.5h-2.2l1-.75-1-2.85-2.55-1.4-1.5 1.05-.15-.75.75-2H9.6q.4.25.85.45l2.55 1.25 1.2 2.85m-10.9 7.4-.05.05-.85 2.3-1.85.5-1.5-.45.65-.4.1-.05.6-1.35v-2.55l-1-1.35-1.65-.9-1 .4-.05-.05.45-.65.6.3-.6-.3 1-1.55h.4l1.85.7v.05l2.05 1 1.2 2.25-.35 2.05m-20.15 6.7-.5.75-1.5 1.1-1.2-.9.05-.3v-1.6l3.6-.7-.45 1.65m-25.75 1.75-.25 1.15-1 .4-.3.1-1.05-.7-.1-1.2-.35-3.5.05-.7.2-3 .1-1.05 1.15-.75.5.5.8 1.25v.1l.7 5.1-.45 2.3" transform="translate(192.55 294)"/><path fill-rule="evenodd" fill="#4f3925" d="m62.1-166.85.6-.05q-.15 9.65-1.75 17.6l-.55 2.6-.5.85.25.5q-1.4 5.85-3.3 11.65-3.05 9.05-3.6 18.75-.5 8.9-.6 17.75-.05 9.6-3.6 14.05-3.5 4.4 3.05 16.65 6.5 12.25 7.5 22.15l-2.65.35-1.95.25-4.6.5-.4-1.25q-3.4-3.8-7.15-4.65-1.5-4.65-.95-8.95 2.05-3.7 3.6-7.35-2.05-1.9-2.3-4.05L41-71.7q-1-9.2-2.55-18.45 1.95-11.25 7.5-24.2 5.5-13 7.1-24.1 1.5-11.1-.45-14.4-2-3.35-.8-6.5 5.9-2.1 10.3-7.5" transform="translate(192.55 294)"/><path fill-rule="evenodd" fill="#7a6041" d="m78.25-184.8.05-2.05v-.25l1.55-.85 8.35 2.2 1.8 2.1v1.7l-11.75-2.85m15.1.95.8-1.95 2.25-1.05v-.9H98l.55 1.85v.4l-1.35-.35-.3-.3v-.85l-.45-.75.45.75v.85l.3.3-.5 2.4-2.4.85-.95-1.25M74.6-170.5h.1l7.1-1.4 1.6 2.35-2.65.85H76l-1.5-1.5.1-.3m-.55 1.15.2-.05.65 1.15v.3l-7.65.85-4.55.2v-.7.7l-.6.05.6-.75v-.15l4.7-.3 6.65-1.3m21.15-6.55-.05.2-2.9 2.3-3.1.9-2.75.7v-.85l.05-.5 2.95-1 .2-.05 1.65-.55 1-.65 1.75-1.2 1.2.7m-16.9-10.95 8.8 2 2.9 2.35-2.9-2.35-8.8-2" transform="translate(192.55 294)"/><path fill-rule="evenodd" fill="#7a6229" d="m72.6-185.85 5.65 1.05L90-181.95q1.4.65 2.75 1.35l-.5 5.2-1 .65-1.65.55-.2.05-2.95 1h-.05v.5l-.2.8-1.4 6.9-1.65 13.45-2.25.55L83.8-169l-.4-.55-1.6-2.35-7.1 1.4-.1-.4v.4l-.1.3-.35.7-.1.15-6.65 1.3-4.7.3-.2-1.4 5.2-.55 6.9-1.2 1.95-.45q10.75-2.65 10.75-6.4 0-3.8-10.75-6.45l-4.5-.95.45-.35.1-.35m-2.2 2.1 3.75.85q7.3 2.05 7.35 4.95-.05 2.9-7.35 4.95l-6.1 1.25-4.9.55 1.5-1.7v-1.25h.2l3.8-.7.65-1.8 1.8-3.25-.7-1.3v-2.55" transform="translate(192.55 294)"/><path fill-rule="evenodd" fill="#99824d" d="m75.4-151.35.5.2 5 .2 2.25-.55 2.2-.95q5.45-2.35 4.5 1.1-.35 1.25-1.45 3.2-2.55 6-5.8 8.95l3.1-7.5-2.6 3.35-4.25 2.4h-3.2l3.4-3.05-7.75 1.25-2-1 2.1-1.8 2.45-.75-2.3-1.65.95-2.5h-1.05l1.4-1.15 2.2.15.35.1M94.8-98.7q17.35 6.8 50.1 13.05 7.1.3-2.85 4.7-25.95 9.4-53.55 5.9L78.25-76.8q-3.9-1-6.4-2.25L69.9-80.2l-1.85-1.65q-.85-1.1-1.1-2.3l1.1-4.75 1.4-2-1.45-1 .05-4.3 2.2-4.2 2.4-2.1q4.1-2.75 10.6-1.3l1.2.25q1.55.9 3.35 1.8 3.1 1.5 7 3.05M-5.35-3.25q5.95-2.3 11.75-5 12.1-5.6 22-13.75L16.35-7.9Q10.4-5.3 3.15-4l-8.5.75m94.75-75.2 5.85 1q11.25 1.85 24.8-.1l1.6-.25 19.7-5.95v-1.5L111.5-89.6l-17-6.4-1.15-.4-3.95 1.6-1.45 4-.75 4.15.8.3h.2l25.25 3.4-5.7 1.45-11.5-1.7H86.65l.8 4.4 1.95.35m14.65-4.25L88.1-85.2l-1.15-.25q-8.75-1.9-16.3-4.65l-1.2-.8 1.2.8q7.55 2.75 16.3 4.65l1.15.25 15.95 2.5" transform="translate(192.55 294)"/><path fill-rule="evenodd" fill="#856b43" d="M71.45-150.45h1.05l-.95 2.5 2.3 1.65-2.45.75-2.1 1.8 2 1 7.75-1.25-3.4 3.05h3.2l4.25-2.4 2.6-3.35-3.1 7.5-.55.45q-4.2 3.4-9.65 1.9l-.95-.35-.5-.55 3.65-3.2-3.8.65-.7-.5-1.3-2.7-.65-.8q.1-1.6.95-3.15.8-1.45 2.2-2.8l.15-.2" transform="translate(192.55 294)"/><path fill-rule="evenodd" fill="#74623a" d="m95.55-168.9 4.25-1.35q2.75-.1 3.7.55l12.8-6.85.6-.5q2.85-2.3 2 1-6.1 11.2-14.15 20.85-5.55 5.15-14.2 10l1-6.9 4-16.8m-7.65 59.95q7.9-.7 13.9-4.35 2.8-1.65 3.7-.95 2.45 4.8-10.7 15.55-3.9-1.55-7-3.05l.1-7.2" transform="translate(192.55 294)"/><path fill-rule="evenodd" fill="#f2e7d3" d="M99.8-170.25q9.45-3.2 16.9-8.45 2.8-1.9 2.65 1.75l-.45.9q.85-3.3-2-1l-.6.5-12.8 6.85q-.95-.65-3.7-.55" transform="translate(192.55 294)"/><path fill-rule="evenodd" fill="#85692d" d="m70.4-183.95 1.65-1.2 4.5.95q10.75 2.65 10.75 6.45 0 3.75-10.75 6.4l-1.95.45-6.9 1.2-5.2.55-.15-1.1.8-.95 4.9-.55 6.1-1.25q7.3-2.05 7.35-4.95-.05-2.9-7.35-4.95l-3.75-.85v-.2" transform="translate(192.55 294)"/><path fill-rule="evenodd" fill="#5e442c" d="m74.5-170.2 1.5 1.5h4.75l2.65-.85.4.55-2.9 18.05-5-.2-.5-.2-.15-.2q-.75-1.35-.9-3.45l.35-8.15.2-4.8v-.3l-.65-1.15-.1-.1.35-.7m-2.1 34.65 5.55 7.5 2.65 13.85 2.65 4.75v5.65q-6.5-1.45-10.6 1.3l-.3-17.5v-9.55l.05-6M82.65-54.9v1.65-1.65m.05 2.55-.05-.9v.85L81.5-51l-.35.15q-1.95 1.15-4.3 2.1l-.8-13.15.05-3.2-3.8-12.55 10.35 11.1 2.15 13.2-1.8 1.4-.3-.4m-6.55-15.8-.05 3.05.05-3.05" transform="translate(192.55 294)"/><path fill-rule="evenodd" fill="#c8aa48" d="M74.7-170.5h-.1v-.4l.1.4" transform="translate(192.55 294)"/><path fill-rule="evenodd" fill="#715739" d="m68.15-144.3.65.8 1.3 2.7.7.5 3.8-.65-3.65 3.2-.8-.95q-1.2-1.55-1.65-3.05l-.2-.9-.15-1.65" transform="translate(192.55 294)"/><path fill-rule="evenodd" fill="#563f29" d="m70.95-137.75.5.55.95.35v1.3l-2.25-3.15.8.95m-6.2 89.95.25-1.05-.6-7.75 5.3 10.2-2.3.5q-2.75-.65-2.65-1.9" transform="translate(192.55 294)"/><path fill-rule="evenodd" fill="#e8ddc7" d="m-33-132.7 1.35 1.9v1.75l-3.4 9.2-2.6 2.45-.8 1.1q-2.65 3.3-6.6 6.5l-.2.1v.1l-3.9 2.5-1.85-.75.25-.2q6.35-4.7 17.5-24.25l.25-.4m-2.25 34.35q-7.75-6.05.2-18.55l2-5.9 6.5-6.35Q-29.8-106.5-19-99.6q-2.9 4.2-12.2 2.5l-2.35-.5-1.7-.75M-95-56.1h.35l-.05.1-.3-.1m49.45-32.1.5-1.45 3.75 2.8q5.85 5.55 10.1 10.65 5.6 6.65 8.35 12.4 2.1 3.85 4.7 7.8 2.7 4.05 6.1 8.05L-29.8-65.7l-1.4-1.7q-6.35-8.2-11.8-16.7l-2.55-4.1M94.5-96l17 6.4 29.85 4.35v1.5l-19.7 5.95-1.6.25q-13.55 1.95-24.8.1l-5.85-1-1.45-2.6v-2.15h8.3l11.5 1.7 5.7-1.45-25.25-3.4 2.55-7.2L94.5-96" transform="translate(192.55 294)"/><path fill-rule="evenodd" fill="#c0ae89" d="m89.4-78.45-1.95-.35-.8-4.4h1.3v2.15l1.45 2.6m-1.2-7.9H88l-.8-.3.75-4.15 1.45-4 3.95-1.6 1.15.4-3.75 2.45-2.55 7.2" transform="translate(192.55 294)"/><path fill-rule="evenodd" fill="#9c895d" d="M42.85-49.15q3.75.85 7.15 4.65l.4 1.25q1.75 6.15 2.5 12.35l-.75 1.4-5.75-8.75v-1.25l-1.65-2.15 1.65 2.15v1.25l-.6 10.4-3.95 9.4H40.8l.6-5.1.3-2.55-4.9 9.95-2.7 2.75 1.3-4.85q.15-4.65-1.1-9.05l1.2-1.25q3.7-5 5.05-10-.75-3.15-1.15-6.35l2.05-.75 1.55-2-.15-1.5m-92.4 50.7 1.7-3.75 4-4.6-1.3 3-1.55 3.2-.05.1-2.8 2.05m-.05 6 1.9-.75 2.45-3.3 1 2.1.1.2-.25 2.3-2.3 4.1-1 1-2.85 2.65.95-8.3m13.35-20.2L-35-11.4q1.4 5.15 2.05 10.8l.5 5.55-.2 4-2.65 2.8.4-6.25.05-1.4v-.05l-.15.3-.9 1.35-5.15 7.8-7.3 3.15 2.1-3.45 2.4-1.3 3.2-4.45 1.1-1.55.2-3.25-1.7 1.9-.05-.05-.7-.55h-.05l2.4-4.75-.75-6.15q2.45.55 3.6-1.1 1.8-1.7-1-1.65l1.2-.7.15-2.25m2.35 14.9-.95 1.85.95-1.85M41.7-26.1l2.35-5.85-2.35 5.85m-4.9 2.8-1.4 5.05 1.4-5.05" transform="translate(192.55 294)"/><path fill-rule="evenodd" fill="#39291c" d="m50.4-43.25 4.6-.5 1.95-.25q-1.05 11.1.5 19.05 1.15 5.7-2.8 8.2l-.1-.1.25-3.7-.4 2.25-1.25 1.35L52-15.6l-1.25.35q-6.05 1-8.35-.35-2.4-1.3-2.25-2.3l.15-.65.5.1h1.05l3.95-9.4.6-10.4 5.75 8.75.75-1.4q-.75-6.2-2.5-12.35M55-24.3l-.7-5.75.7-13.7-.7 13.7.7 5.75" transform="translate(192.55 294)"/><path fill-rule="evenodd" fill="#383016" d="m23.55-118.9.5.2-.5.8v-1" transform="translate(192.55 294)"/><path fill-rule="evenodd" fill="#e7e3d3" d="m37.45-63.2.1.5-.3-.2.2-.3M26.5-51.25l-.05.05-.3-.5.35.45" transform="translate(192.55 294)"/><path fill-rule="evenodd" fill="#3d3123" d="m-61.6-94.95.35-.45.55-1.85 7.15 2.55.3.8.55 1.5Q-45.8-74-43-56.25l.7 4.5-.15.15.15.2v5.1l-5.55 2.6q-1.5 11.55-6.1 18.55l-9.85 3.45-10.05 8.1-5.05.05-7.75-6.1-1.8.05-.95-1.45-5.55-2.7-5.55 3.95-2.05-1.6 2.35-4.05q-.15-4.35 1.65-9.45l1.15.85.15.25.45.2.45.2 3.85 4.25 3.6 1.05 3.4-.3 3.2 1.6 2.45-.2.55-.05 3.7 2.45 2.75.05q3.3-2.55 6.9-3.5 3.4-3.15 2.55-8.05l.25-.2 1.6-1.3.3-1.55 1.25-6.8-3.3-4.45-1.15-2.95-2.4-1.7q2.65-2.1 2.45-3.6h-.05l-3.45-6.05.85-2.5 1.65-7.1q7.15-6.85 7.95-14.55-.55-3.45-4.15-6.1m-38.45 71.5-.15-2 .15 2m96.7-3.05.6-.25q18.95-7.7 34.2-16.7 4.25-4.95 7.55-9.9-.1 4.25.4 8.45.4 3.2 1.15 6.35-1.35 5-5.05 10l-1.2 1.25-5.9 5.3q-9.9 8.15-22 13.75-5.8 2.7-11.75 5-6 2.3-12.15 4.25 9.65-3.35-2.7-10.05-10.65-7.3-8.2-1.3 2.4 5.9 4.85 13.1l-8.9 2.2-.5-5.55Q-33.6-6.25-35-11.4l-1.25-1.25q0-.55-.3-1.1h.05q.45-2-.05-4.1l.15-.75q.15-1.55-.15-3.1l5.8-.3 12.6-1.4q6.6-1 13.3-2.55l.25-.05 1.25-.5" transform="translate(192.55 294)"/><path fill-rule="evenodd" fill="#b5a277" d="m-44.35-21.45 5.25-11.25.5-2.7.45 1.4h1.4l.35-1.95q.6 9.2 5.65 13.95l-5.8.3h-.35l-.9.35q-1.3.65-2.1 2.4l-.5-5-.7.95-1.35 2-.45 1.25-.8.9v-3.85l-.65 1.25m5.45-10.15-.8 3.2 1.9.7h.05l.65-3.9h-1.8" transform="translate(192.55 294)"/><path fill-rule="evenodd" fill="#66563b" d="M-42.3-51.75v.35l-.15-.2.15-.15m0 5.45-.1 14-.6 3.1q-1.3 5.35-4.65 10.35l1.3 1.15 2-3.75.65-1.25v3.85l.8-.9.45-1.25 1.35-2q-.6 2.2-.4 4.4l.05.45-.35 1.35.15 1.3-.25.75-.15 2.6-2.65 1.45-.4 1.4-.45 1.5.45-1.5q.15 1.1-.45 1.5l-.15.5q-1.65 3.8-6.1 6.7l-1.05.65 1.35 2.9 1.95-1.4 2.8-2.05-3.2 5.9q-10-2.4-19.1-6-8.5-3.35-16.15-7.7l-4.3-2.55-11-8.95 5.55-3.95 5.55 2.7.95 1.45 1.8-.05 7.75 6.1 5.05-.05 10.05-8.1 9.85-3.45q4.6-7 6.1-18.55l5.55-2.6m18.75 49.05q-2.45-7.2-4.85-13.1-2.45-6 8.2 1.3Q-7.85-2.35-17.5 1l-5.85 1.7-.2.05" transform="translate(192.55 294)"/><path fill-rule="evenodd" fill="#382f21" d="m-70.5-160.65 4.55-3.3 1.7.6-2.85 1.2-3.4 1.5" transform="translate(192.55 294)"/><path fill-rule="evenodd" fill="#9e7635" d="m-34.35-146.45 1.25 1.25-.75 1.7-.05.1.7 1-2.25 2.55.4 2.75 1.9.85.9.4v.4l.15 1.15-.9 1.6-.25.4q-11.15 19.55-17.5 24.25l-.25.2q-1.3.85-2.35 1.15l-1.6 1.05-.1 2.7-3.05-1.15-1.1-.95.3-3v-.35l2.85-4.8q2.35-1.35 4.7-2.2-2.35.85-4.7 2.2l-2.85 4.8v.35l-.3 3q-.5 3.9-1.5 7.8l-.55 1.85-.35.45-3.8 4.8v4.75l-1.05.4-3.85 1.1-1.45.3-9.5.95-6.45-.05q-2.1.7-3.85 1.95l-2.3 2.05v.7l-1-.15-4.7-1.05.4-5.25-1.7-3.1-.7-1.25-1.4-.95-3.65-2.95-1.25-1.35q.25-3.2 1-5.7l1.45 3 2.4-5.05.05.95v8.45q1.55 2.35 3.15 3.85 2.2 2.1 4.45 2.65 5.9 1.35 10.4 1 4.4-.35 6.05-.9 1.65-.65 2-1.95l.4-1.35 1.5-11.2q5.95 4.4 12-13.8l8.7-5.3q4.7 10.65 17.9-11l.35-1.9q1.05-5.45-.5-8.05-1.9-3.3-7.7-1.9l-1.55.35-1.7-5-5.55-9.75q-6.1-5.85-14.05-5.5l2.85-1.2 9.8 3.05 16.65 10.55 3.15 3 .3.3m-.3-.3q-6.75 2-9.6 4.5 2.85-2.5 9.6-4.5m-32.2 91.7 2.4 1.7 1.15 2.95 3.3 4.45-1.25 6.8-4.65-6.45-8.3 2.55-.05.05-.85 11.2.15.15 3.5 2.7 1.2-.35 2.2-.6.55-1.55.7-2.4-1.6-4.2 1.9-3.7h.1l3.1 5.25-.1.4q.85 4.9-2.55 8.05-3.6.95-6.9 3.5l-2.75-.05-3.7-2.45v-.15h.6-.8l-.35.2-2.45.2-3.2-1.6-3.4.3-3.6-1.05-3.85-4.25-.15-.15 2.25-.5 3.05 1.35 1.85-2.6 1.45 3.25 1.85-.6 1.75-6.3-7.7-1.85-3.8-4.7-4.55-1.25-1.2 1.9-3.1-2.3v-1.6l1.6.5 1.45-2.1-.2-2.95v-.05l3.6.75h4.25q.2.6 8.4 6.5l.05.05 2.35-.9.35-.15q5.9-2.35 9.95-4.35l5.1-2.9.1-.1.8-.6m.4-33.6 1.05-1.5-1.05 1.5M-93-77.95l1.95-.1.8 2-.55.7-.45.15-1.1-.35.55-1.4-1.2-1m-2.45 3.3-.75 5.3h-2.7l-1.95-.5v-.4l1.05-5.3 4.35.9m2.05 5.85 1.5.9-.55.55-.95-1.45m-2.9 2.9q.05 4.3 1 8.65l.3 1.15h-2.85l-4-.65V-58q0-4.05.5-8.2l1.85.5 3.2-.2m3.5 10 .65.3v.35l-.65-.65m.95 1.4.75.7h-.2l-.75-.15.2-.55-.2.55.75.15h-.85l.1-.15-.1-.05v-.85l.3.35m31-55.45q2.4-1.9 4.8-3.25-2.4 1.35-4.8 3.25m-6.15 78q.1.3-.5.5.6-.2.5-.5m-39.2-24.65-.15-.6 1.15-.45 1.75.65-1 1.15-1-.05-.75-.7m.1-12.65-.25-.75 1-.95 1.35.5-1 1.5.2.4h-.7l-.6-.7m.3-10.4-.1-.25 1.65-.9 1.3.6-1.5.65.05 1.1h-.25l-1.15-1.2m24.75 50.2-3.3-.95-1.95-.6-1.3-.4-.3-.65.3.65 1.3.4 1.95.6 3.3.95m6.1-2.2-1.95 1.05 1.95-1.05m-9.4 1.25 4.85 3.2-4.85-3.2m-7.8-1.35.9.95h.9l4.85 2.4-4.85-2.4h-.9l-.9-.95-4.2-1.65 4.2 1.65-.9-.9.9.9m1.8.95 4.05-.2-4.05.2" transform="translate(192.55 294)"/><path fill-rule="evenodd" fill="#5e5236" d="m-54.45-160.3-3.95-2.5-.7-.2-2-.75-1.2-1.8 3.5.65 19.75 11.4 6.2 6.05-1.5 1-.3-.3-3.15-3-16.65-10.55m-7.15 65.35q3.6 2.65 4.15 6.1-.8 7.7-7.95 14.55l-1.65 7.1-.85 2.5 3.45 6.05h.05q.2 1.5-2.45 3.6l-.8.6-.1.1-5.1 2.9.9-1.35-.85-1.9-1.8-6.25 1.35-9.05 3.45-6.3.4-1.45 2.3-.7 4.45-3.6 1.4-1.45-1.25 3.25-6.05 7.45-1 1.65-.1.4.1-.4 1-1.65 6.05-7.45 1.25-3.25q1.6-1.85 0-2.15l-3.65.3-.4.1-.1-.15.15-.1q1.8-.7 3.3-1.6-1.5.9-3.3 1.6l-.15.1v-4.75l3.8-4.8m-.35 7.85.7 1.45-.7-1.45.25-.15.75-.8-1-2.55 1 2.55-.75.8-.25.15m-7.75 16.55-1.1 6.45 1.6 4.65 1.55 3.25v1.75-1.75l-1.55-3.25-1.6-4.65 1.1-6.45.05-.2-.05.2m-26.5 1.2h1.3l.4.4-.9 2.25h-5.65l-3.25-.7-.5-1.15-.2-.4 1-1.5.1-.2 3.05.8 1.95.5h2.7m13.05 22.4q.95-1.5 1.25-3.5l.55 1.1-1.45 2.25-.35.15M-38.6-35.4l-.05-.2.95-2.6 1.45.9-.15 1.35-.35 1.95h-1.4l-.45-1.4m-1.95-22.35.95-2.55 1.15 1.7-.25 2.95-1.35-.45-.5-1.65m.45-8.95.05 2.75-.95.35-.95-1.45.3-2.7 1.55 1.05m3.75 22.55.2 3.15-2 .15-.5-1.6.95-2.55 1.35.85m-3.1-5.45.95-2.55 1.4 1.2-.45 3-1.15.45-.75-2.1M-65.4-74.3l-4.25 3.55 4.25-3.55m-3.6 13 1.1-3.4-1.1 3.4m30.1 29.7h1.8l-.65 3.9h-.05l-1.9-.7.8-3.2M-103.45-57l1.6.25 4 .65H-95l.3.1-.7 1.7h-5.65l-3.35-.7-.3-.55.25-.3 1-1.15m.5-23.2.3-.2 3.1 1.2 4.7 1.05v1.35q.55 2.15-6.2 0l-2.75-.6-.6-.45v-.6l-.05-1.1 1.5-.65" transform="translate(192.55 294)"/><path fill-rule="evenodd" fill="#f5dcb4" d="m-33.1-145.2 1-1.85h1.1l-.9 1.7v1.55h-.05l-1.9.3.75-1.7m-.1 2.8.45-.6 1.1.6-2 2.15.55 2.45.35.65-.4.9-1.9-.85-.4-2.75 2.25-2.55m.95 6.55q.15-1.1 1.05-1.85l.55-.4.5.6-.55 2 .65 2 1.3 1.85-1.65-.15-.8-.85q-.65-.85-.9-1.65l-.15-1.15v-.4" transform="translate(192.55 294)"/><path fill-rule="evenodd" fill="#ede6da" d="m-28.8-145.65.35-.1.6 1.45-.15.05-.8-1.4" transform="translate(192.55 294)"/><path fill-rule="evenodd" fill="#b88c44" d="M-54.8-140.35q.05 4.65-2.25 8.05-4.55 6.7-18.25 8.25 7.55-3.45 12.1-8.25 3.5-3.65 5.2-8.05 1.45-3.9 1.6-8.35 1.55 4.55 1.6 8.35m-32.35-1.4.2 3.65q.2 3.2.8 5.8 2.9 14.15 14.45 9.75-5.7 6.5-16 11.85-3.8-5.5-4.95-11v-3.3l-3.9 1.95v-.05q3-4.1 5.5-6.5h.1v-.55l.55-2.15q1.1-4.1 2.7-8.05l.55-1.4m-3.8 19.85v-7.7 7.7" transform="translate(192.55 294)"/><path fill-rule="evenodd" fill="#5c4c37" d="m-48.4-100.25 3 .15-.2 3-4.55-1.2-1.25-1.2 1.85-1.25.8.5.25.1.1-.1m12.35 3h-3.15l-1.9-2.75h2l3.05 2.75" transform="translate(192.55 294)"/><path fill-rule="evenodd" fill="#87622c" d="m-61.25-39.15-.3 1.55-1.6 1.3-.15-.2-3.1-5.25h-.1l-3.45.65 1.9-2.3-1.9 2.3 3.45-.65-1.9 3.7 1.6 4.2-.7 2.4-1.55.05-1.1-.65-.1 2.75-1.2.35-3.5-2.7.5-.3 1.9-4.85 2.4 4.75-2.4-4.75-1.9 4.85-.5.3-.15-.15.85-11.2.05-.05 8.3-2.55 4.65 6.45m-2.7-1.95q-.95-.65-2.45-.65 1.5 0 2.45.65m-6 0q-1.5 2-2.6 4.3 1.1-2.3 2.6-4.3" transform="translate(192.55 294)"/><path fill-rule="evenodd" fill="#c0993f" d="m-97.4-34.05-1.15-.85-2.15-1.9 2.6 1.3.2.45.5 1" transform="translate(192.55 294)"/><path fill-rule="evenodd" fill="#5c512e" d="m-65.4-85.4.1.15-1.15.25 1.05-.4m-24.85 9.35.5.25v.95l-2.75.85-1.25-.5.85.05.55-1.1 1.1.35.45-.15.55-.7m-1.65 8.15.2.15v1.15l-1.35 1.5-1.6-.8h1.05l.95-.8.35-.35-.15-.3.15.3-.35.35h-.5l.7-.65.55-.55m.6 14.1.2 1.2h-1.5l.45-1.2h.85m-12.5-.2-2.15-1.45-.25-1.15.75.7 1 .05-.25.3.3.55.6 1m-.35-13.15-1.45-.45-.5-1.65.6.7h.7l.5 1.15.15.25m1-9.85-2.05-.8-.6-1.85 1.15 1.2h.25v.6l.6.45.65.4" transform="translate(192.55 294)"/><path fill-rule="evenodd" fill="#b39a67" d="m-65.3-85.25.4-.1 2.05.75v1.35l-6.05 3.6.35-1.3-1.75-2.95 3.85-1.1 1.15-.25m-15.95 2.6 2 4.55-.7 1.45-2.85.45-6.95-1.95-1.8-2.6Q-89.8-82-87.7-82.7l6.45.05m-28.3-7.6.15-.65 2.8-1.8 3.65 2.95 1.4.95.7 1.25-2.2 2h-2.5l-4-4.7" transform="translate(192.55 294)"/><path fill-rule="evenodd" fill="#9e885b" d="m-64.9-85.35 3.65-.3.5.95-.5 1.2-1.4 1.45-4.45 3.6-2.3.7.5-1.9 6.05-3.6v-1.35l-2.05-.75m-44.65 34.2-.15-1.1 1.8-3.4-1.65-9.1q-.5-9.25 1.1-17.75l-.7-2.1-1.25-3.2.85-2.45 4 4.7h2.5l2.2-2 1.7 3.1-.4 5.25-3.1-1.2-.3.2-1.3-.6-1.65.9.1.25.6 1.85 2.05.8q1.45.85 3.35 1.45l-1.05 5.3v.4l-3.05-.8-.1.2-1.35-.5-1 .95.25.75.5 1.65 1.45.45.15.35 2.65.6q-.5 4.15-.5 8.2v1.25l-1.6-.25-1.75-.65-1.15.45.15.6.25 1.15 2.15 1.45.15.2 1.85.45v.05l.2 2.95-1.45 2.1-1.6-.5q-3.1-1.1-4.9-2.4" transform="translate(192.55 294)"/><path fill-rule="evenodd" fill="#948055" d="m-68.9-79.65-2.55 1.55-8.5 1.45-5.75 13.85 1.9 8.85 1.9 3.5q-.3 2-1.25 3.5l-2.35.9-.05-.05q-8.2-5.9-8.4-6.5h2.85l-.2-1.2h.2l-.75-.7.15-.35-.45-.4v-.35l-.65-.3-.25-.2H-95l-.3-1.15q-.95-4.35-1-8.65h1.65l1.6.8 1.35-1.5v-1.15l-.2-.15-1.5-.9-.05-.15v-.4h-2.75l.75-5.3 1.7.15 1.25.5 2.75-.85v-.95l-.5-.25-.8-2-1.95.1-.85-.05v-.7l2.3-2.05 1.8 2.6 6.95 1.95 2.85-.45.7-1.45-2-4.55 9.5-.95 1.45-.3 1.75 2.95-.35 1.3m7.65-3.85.5-1.2-.5-.95q1.6.3 0 2.15m-52-15.25 2.25 6.85 1.45 1.65-.85 2.45 1.25 3.2.7 2.1q-1.6 8.5-1.1 17.75l1.65 9.1-1.8 3.4.15 1.1q-1.9-1.35-2.5-2.95l-.7-1.45 2.35-5.95q-2.2-9.95.05-19.85-3.95-7.85-2.9-17.4m4.1 14.15q-.9 1.7-1.2 3.25.3-1.55 1.2-3.25m-.4 26.35-.85-3.25.85 3.25" transform="translate(192.55 294)"/><path fill-rule="evenodd" fill="#a68f60" d="M-113.2-99.35v-.25q3.9-4.3 9.3-5.2l-1.85 2.15-.15.35q-2.8 1.1-3.6 2.25-.35.5-.3 1-.5 1.95 1.95 5l1.25 1.35-2.8 1.8-.15.65-1.45-1.65-2.25-6.85.05-.6" transform="translate(192.55 294)"/><path fill-rule="evenodd" fill="#4d432c" d="M-107.85-94.05q-2.45-3.05-1.95-5-.05-.5.3-1 .8-1.15 3.6-2.25l-.95 2.55q-.75 2.5-1 5.7" transform="translate(192.55 294)"/><path fill-rule="evenodd" fill="#87744e" d="m-68.9-79.65-.5 1.9-9.45 3-4.35 10.7q-1.9 5.1-.25 8.8l1.6 4.05-.05.75-1.9-3.5-1.9-8.85 5.75-13.85 8.5-1.45 2.55-1.55" transform="translate(192.55 294)"/><path fill-rule="evenodd" fill="#8a7743" d="M-93.4-56.1h.35l.25.2-.6-.2" transform="translate(192.55 294)"/><path fill-rule="evenodd" fill="#82602b" d="m-70.25-29.3.1-2.75 1.1.65 1.55-.05-.55 1.55-2.2.6" transform="translate(192.55 294)"/><path fill-rule="evenodd" fill="#4a3e18" d="m-41.65-15.5-.15-1.3q.8-.35 2.3 2.05 1.2 1.3 0 1.8l-.85-.55-1.1-1.15-.2-.85" transform="translate(192.55 294)"/><path fill-rule="evenodd" fill="#59491d" d="m-42.05-12.15.15-2.6.45.1 1.1 1.15.85.55q1.5 2.65 0 3.65-1.85-.65-2.55-1.45v-1.4" transform="translate(192.55 294)"/><path fill-rule="evenodd" fill="#e8deb9" d="m-45.1-9.3.4-1.4 2.65-1.45v1.4q.7.8 2.55 1.45l.45.15 1.45-.55q2.8-.05 1 1.65-1.15 1.65-3.6 1.1l.75 6.15-2.4 4.75h.05l.7.55.05.05 1.7-1.9-.2 3.25-1.1 1.55-3.2 4.45-2.4 1.3-1.95 1.05.5-1.05 1-1 2.3-4.1.25-2.3-.1-.2-1-2.1-2.45 3.3-1.9.75-2 .85 1.65-3 3.2-5.9.05-.1 1.55-3.2 1.3-3-4 4.6-1.7 3.75-1.95 1.4-1.35-2.9 1.05-.65q4.45-2.9 6.1-6.7l.15-.5q.6-.4.45-1.5m.55 11.8-.7 1 .7-1" transform="translate(192.55 294)"/><path fill-rule="evenodd" fill="url(#a)" d="m65.3-224.45.6 1.5q.1 5.6-2 19.8l-.95 6.3h-.75l-1.7-.25.7-5.4q2.2-9.25 2.65-18.8l-.1-.15 1.55-3m27.45 43.85.25-2.6.35-.65.95 1.25 2.4-.85.5-2.4 1.35.35-1.25 9.2-1.75 7.4-4 16.8-1 6.9-.05.15q-2.25 16.55-2.6 36.1l-.1 7.2q-1.8-.9-3.35-1.8l-1.2-.25v-5.65l-2.65-4.75-2.65-13.85-5.55-7.5v-1.3q5.45 1.5 9.65-1.9l.55-.45q3.25-2.95 5.8-8.95 1.1-1.95 1.45-3.2.95-3.45-4.5-1.1l3.8-20.05 3.1-.9 2.9-2.3.15-.1-.1-.1-1.2-.7-1.75 1.2.5-5.2M51.7-198.5l2.85-.6.8-.15 2.85-2.3v-17.25q2.65 0 3.65-1.65l.05 1.2-1.95 22.05-1.75-.25h-.15l-.6-.05-2.9-.25v-1.35 1.35l-2.15-.05-.6.15-.1-.85m6.9-8.1-.55 9.15.55-9.15m16.1 43.45-.35 8.15q.15 2.1.9 3.45l.15.2-.35-.1-2.2-.15-1.4 1.15-.15.2 2.4-4.85 1-8.05m-27.3 6.3 1.6-1.7 2.8-.8q-1.2 3.15.8 6.5 1.95 3.3.45 14.4-1.6 11.1-7.1 24.1-5.55 12.95-7.5 24.2l-2.05-11.1q-4.2-8-9.6-16.15l.2-3.55-.55-1 .5-1.1q.95-2 .4-3.65-.5-1.45-1-1.75 4.6-8.5 1-19.85l7.1-1.85 7.2-1.15 5.75-5.55m15.3-10.05 4.55-.2-2.35 13.15-4.5 7.25.55-2.6q1.6-7.95 1.75-17.6M59.6-44.35q-1-9.9-7.5-22.15-6.55-12.25-3.05-16.65 3.55-4.45 3.6-14.05.1-8.85.6-17.75.55-9.7 3.6-18.75 1.9-5.8 3.3-11.65l3.4 7.3-9.95 22.5 4.65 25.35 3.6 28.7 2.55 4.9.6 7.75-.25 1.05q-.7 1.7-2.65 3l-2.5.45M74.3-152.8l.05-2.2-.05 2.2m15.55 4.65 5.3-27.55-5.3 27.55m-1.35 73.1 1 15.35-.15.4q-1.3 3.3-4.55 5.95l-2.15-13.2-10.35-11.1-2.4-2.55 1.95 1.15q2.5 1.25 6.4 2.25l10.25 1.75m-6.45-62.8v-.9.9m-.65 20.6q-.05-9.9.55-19.7-.6 9.8-.55 19.7m-9.45-12.3-1.9-3.5-.55-3.3-.05-.2-.95-5.2q.45 1.5 1.65 3.05l2.25 3.15-.05 6h-.4" transform="translate(192.55 294)"/><path fill-rule="evenodd" fill="url(#b)" d="m36.8-160-.1.2q-.95 3.1-4.7 6.45v.05l-5 3.95q-3.3-6.85-16.9-12.3l-.05-.1-.6-.35-.9-.6.2-.55-1-2.15-2.2-1.2-2.1.6-.05-.15-2.05-1.55-5.05.9-.05-.05-9.9-5.25.4-.4-.4.4-1.05-.55 1.05.55-2.45 2.6 11.5 6.95-.1.15-.65 3.9 2.6 3.25h2.4l-.45 3.15q-1 6.55-2.7 12.6l-.75 2.5-1.2-.6q-5.75-6.55-11.8-9.15-3.35-1.4-6.8-1.65l-.6-.3-.8-.35-.35.85h-.35l-.45-.8-.8.8-1.55.05-3.85-4.2-12.15-8.15-12.15-6.6q10.5-28.05 47.6-24.7l6.3-1.05 5.3 5.25q7.05-2.4 16.4 2.85l.3-.5 7.6 4.65q3.4 1.75 3.9-.45l3.8 8.25q3.5 8.45 2.8 12.8h-.1m-89.35-5.6 7.6 5.1-7.6-5.1m35.65-4.35.8.45-.65.65.65-.65-.8-.45m-13.3-3.8 10.75-9.1-10.75 9.1m16.55 17.3q-2.8 4.45-3.6 9.7.8-5.25 3.6-9.7" transform="translate(192.55 294)"/><path fill-rule="evenodd" fill="url(#c)" d="M38.45-90.15Q40-80.9 41-71.7l2.2 2.2q.25 2.15 2.3 4.05-1.55 3.65-3.6 7.35l-2.85 4.6-.05.15q-3.3 4.95-7.55 9.9-15.25 9-34.2 16.7l-.6.25q-6.15 2.15-14.8-7.55-5.9-6.8-13.05-19.25-5.55-9.75-11.8-22.95l-1.65-3.55v-1.3l-1.15-1.3-.25.45-2.25-3.5.8-.3v-2.75l-1.15-1.3-1.25.5 1.5 3.65-4.3-6.75-.55-1.5-.3-.8 1.9.75h.25l2-.45.8 1.05 3.3.45.1 1.2 1.05.7.3-.1 1-.4.25-1.15q5.45.4 11.4.1l10.8-1.15.35.25 1.2.9 1.5-1.1.5-.75q5.85-.95 12.75-2.75l3.15-1.6v.05l1.5.45 1.85-.5.85-2.3.05-.05q4.25-2.5 7.95-5.1l.15-.15h2.2l.85-1.5-.25-.65q3.7-2.45 6.1-5.5h1.65l1.6-1.9v-2l.5-.8 1-2.35 1.4-.9.55 1-.2 3.55q5.4 8.15 9.6 16.15l2.05 11.1m-28.35-71.5q13.6 5.45 16.9 12.3l.3.75.05.3q3.6 11.35-1 19.85l-1.35 2.3-1.8 2.35-1.35 1.2-2.15 1.6-3 1.75q-3.15 1.6-6.7 2.4l-3 .55q-3.3.1-5.4-1.75.6-4.65.15-10.15l-.1-1.15.1 1.15q.45 5.5-.15 10.15-.5 4.3-2 7.9l-1.45 3-1 1.55-.45.65-.05.05q-6.25 7.25-13.05 8.85l-3.6.7q-4.55.5-9.5-.75l-4.05-1.5 2.35.5q9.3 1.7 12.2-2.5-10.8-6.9-7.55-29.55l-6.5 6.35-2 5.9q-7.95 12.5-.2 18.55-1.9-.9-3.4-1.95l-4.2.25v-.1l-.8-1.25-.5-.5-1.15.75-.1 1.05-3-.15 2.25-2.75-1.7-2.6h.95l1.65-4-1.65 4h-.95l1.7 2.6-2.25 2.75h-.35l-.8-.5-.75-.35-4.75-1.85.1-2.7 1.6-1.05q1.05-.3 2.35-1.15l1.85.75 3.9-2.5v-.1l.2-.1q3.95-3.2 6.6-6.5l.8-1.1 2.6-2.45 3.4-9.2v-1.75l-1.35-1.9.9-1.6q.25.8.9 1.65l.8.85 1.65.15.7-.05.5-2.35.7 2.25 1.7-.45v-.05l1.15-1.75.75.55.95.3 2.7-1.4 1.25-2.95-.9-2.15.7-.8-.25-1.4q7.45 1.4 13.35 4.3l1.2.6.75-2.5q1.7-6.05 2.7-12.6l.45-3.15h.7v.05l.05.4-.65 1.6.5 1.75h.1l1.25-.05.15-.7 1.95.85v-1.5l1.15 1.5h1.7l.85-1.15-1.45-1.8.15-.15 1.65 1.25.8-1.65-.25-.75L10-157v-1.55l1.55.65 1.5-1-2.35-1.7h-.4l-.2-1.05m-9.75 10.2q-.55 6.25-3.15 12.3l11.95 8.25-.45 1.45 2.5 3.5q2.55 1.1 3.75-1.15l1.15-2.35-.05-.35Q19-144.05 8.1-150.45l-.2-.15-1.95.7-2.5-1.2-2.3.75-.45-.95-.35-.15m1.35 22.1q1.05-1.55.75-3.05-2.4-2.05-5.25-3.75l-1.45-.85 1.45.85q2.85 1.7 5.25 3.75.3 1.5-.75 3.05l-.05-.05v.05h.05M-17.45-69.1l-.7-.4q-7.15-4.6-13.05-9.35-6.8-5.5-11.8-11.2l-.85-1.05.85 1.05q5 5.7 11.8 11.2 5.9 4.75 13.05 9.35l.7.4m19.1-60.3-2-2.2-4.35-3.55 4.35 3.55 2 2.2m21.6 33.2.65-2.45q-1.65-1.75-3.95-.55-3.1 1.5-5.75.35-2.65-1.25-6.45.5-13.6 6.1-17.75 14.6l-1.7 4.5q-1.6 4.3-.1 10.25 1.5 5.9 3.4 8.05 1.9 2.1 1.2 3.45t-.05 3.45Q-6.7-52-1.6-52.6q20.65-3.75 35.15-18.85 2.1-2.2.05-4.6-2.5-1.25-1.95-3.15-.75-13.1-8.4-17m-.6 2.25-.5 1.55q6.5 6.05 6.6 18.1-.6 4.15-7.75 5.35-3.9-3.35-5.2-7.35.5-.6.4-1.7.45-9.05 2.7-15.85 2-1.95 3.75-.1m-2.35 7.3 1.85-5.75-1.85 5.75m3.6-12q2.15-9.2 2.9-18.75-.75 9.55-2.9 18.75m-66.9-5.3 3.05 2.75 1.3.9-1.3-.9-3.05-2.75m-4.85-1.65-1.75-.05h-.7.7l1.75.05m-3.45.7 1.7 1.4.95.8-.95-.8-1.7-1.4m1.7-.75v2.15-2.15m19.8 39.95 17.75 17.75q-3.4-4-6.1-8.05-2.6-3.95-4.7-7.8-2.75-5.75-8.35-12.4-4.25-5.1-10.1-10.65l-3.75-2.8-.5 1.45 2.55 4.1q5.45 8.5 11.8 16.7l1.4 1.7 9.9 11.7-9.9-11.7m-15.75-22.5-3.05-5.15 3.05 5.15M41-71.7l.3 2.65-3.85 5.85 3.85-5.85-.3-2.65m-3.55 8.5-.7-2.65-.6-1.35q-.85-.95-1.75 0l-2.2 2.7q-.4 1.4-.05 2.5.35 1.45 1 2.75l.45.85.05.05.45.8 2 .05q2.6-1.9 2.1-3.65l-.65-1.55-.1-.5m-5.9 7.2 2.1-2.35-2.1 2.35-.05-.05-.95-2.85-.9-1.65L27-60.7q-1.55.8-2.7 2.35-1.15 1.55-.3 3.25.8 1.7 2.15 3.4l.3.5.35.3q1 .5 2 .4 3.5-.5 3.45-3.5l-.75-1.95.05-.05m-5.6 5.15.5-.35-.5.35m-3.55 2.1q-.65-3-1.9-4.95-1.35-1.15-2.95-.55-1.7.55-3.4 2.15-1.2 1.1-.7 2.3.85 2.55 2.9 5 1.15.75 2.35.9 2.45-.45 3.7-2.6v-2.25M11-74.45q2.9 5 3 9.35-5.75 5.3-10.3 5-6.25-1.5-8.8-7.45-4.25-10.25 2-15.15Q1.8-81 8.35-76 9.9-74.5 11-74.45M.2-46.5q.35 3.05 1.7 6 2.35 2.25 5.2 1.85 2.3-1.85 2.5-3.75l-1-5.55q-1.25-2-2.25-1.8l-4.9 1.2q-1.3.8-1.25 2.05" transform="translate(192.55 294)"/><path fill-rule="evenodd" fill="url(#d)" d="m.35-151.45.35.15.45.95 2.3-.75 2.5 1.2 1.95-.7.2.15q10.9 6.4 7.95 20.65l.05.35-1.15 2.35q-1.2 2.25-3.75 1.15l-2.5-3.5.45-1.45-11.95-8.25q2.6-6.05 3.15-12.3" transform="translate(192.55 294)"/><path fill-rule="evenodd" fill="url(#e)" d="M23.25-96.2q7.65 3.9 8.4 17-.55 1.9 1.95 3.15 2.05 2.4-.05 4.6Q19.05-56.35-1.6-52.6q-5.1.6-5.65-1.45-.65-2.1.05-3.45.7-1.35-1.2-3.45-1.9-2.15-3.4-8.05-1.5-5.95.1-10.25l1.7-4.5q4.15-8.5 17.75-14.6 3.8-1.75 6.45-.5 2.65 1.15 5.75-.35 2.3-1.2 3.95.55l-.65 2.45-.6 2.25.6-2.25M15.8-76.3q1.3 4 5.2 7.35 7.15-1.2 7.75-5.35-.1-12.05-6.6-18.1l.5-1.55q-1.75-1.85-3.75.1-2.25 6.8-2.7 15.85.1 1.1-.4 1.7-.45.5-1.35.6.9-.1 1.35-.6m17.85 17.95-.05-.05-.45-.85q-.65-1.3-1-2.75-.35-1.1.05-2.5l2.2-2.7q.9-.95 1.75 0l.6 1.35.7 2.65-.2.3.3.2.65 1.55q.5 1.75-2.1 3.65l-2-.05-.45-.8 3.6-4.55-3.6 4.55m-2.15 2.4.75 1.95q.05 3-3.45 3.5-1 .1-2-.4l-.35-.3.05-.05-.35-.45Q24.8-53.4 24-55.1q-.85-1.7.3-3.25T27-60.7l2.65.15.9 1.65.95 2.85v.1l-5 4.7 5-4.7m-9.1 7.2v2.25q-1.25 2.15-3.7 2.6-1.2-.15-2.35-.9-2.05-2.45-2.9-5-.5-1.2.7-2.3 1.7-1.6 3.4-2.15 1.6-.6 2.95.55 1.25 1.95 1.9 4.95M12.3-75q-.55.6-1.3.55.75.05 1.3-.55m-1.3.55Q9.9-74.5 8.35-76 1.8-81-3.1-82.7q-6.25 4.9-2 15.15 2.55 5.95 8.8 7.45 4.55.3 10.3-5-.1-4.35-3-9.35M.2-46.5q-.05-1.25 1.25-2.05l4.9-1.2q1-.2 2.25 1.8l1 5.55q-.2 1.9-2.5 3.75-2.85.4-5.2-1.85-1.35-2.95-1.7-6" transform="translate(192.55 294)"/><path fill-rule="evenodd" fill="url(#f)" d="m-48.4-85.65.05.25.05-.05 2.25 3.5-.8 1.25 1.4 2.7.85-.35-.05-1.45 1.65 3.55q6.25 13.2 11.8 22.95 7.15 12.45 13.05 19.25 8.65 9.7 14.8 7.55l-1.25.5-.25.05q-6.7 1.55-13.3 2.55l-12.6 1.4q-5.05-4.75-5.65-13.95l.15-1.35-1.45-.9-.95 2.6.05.2-.5 2.7-5.25 11.25-2 3.75-1.3-1.15q3.35-5 4.65-10.35l.6-3.1.1-14V-51.75l-.7-4.5Q-45.8-74-52.7-92.4l4.3 6.75m6.15 11.35-1.1-1.25-1.25.5.65 2.95 1.75.55-.05-2.75m2.15 7.6-1.55-1.05-.3 2.7.95 1.45.95-.35-.05-2.75m-.45 8.95.5 1.65 1.35.45.25-2.95-1.15-1.7-.95 2.55m1.1 8.15.75 2.1 1.15-.45.45-3-1.4-1.2-.95 2.55m3.1 5.45L-37.7-45l-.95 2.55.5 1.6 2-.15-.2-3.15" transform="translate(192.55 294)"/><path stroke-width=".25" stroke-opacity=".612" stroke-linejoin="round" stroke-linecap="round" stroke="#361f0a" fill="none" d="m252.6 68.75-.4-.35m-3.05-2.55 2.9-.35q4.25 1.05 5.8 4.05l.6 1.5q.1 5.6-2 19.8l6.3 3.05 4.25 4.2v4.1l-2.85 2.25.85 3.65.15.05 5.65 1.05.05-2.05v-.25l1.55-.85 8.35 2.2 1.8 2.1v1.7q1.4.65 2.75 1.35l.25-2.6.35-.65.8-1.95 2.25-1.05v-.9h1.6l.55 1.85v.4l-1.25 9.2 2.2-9.2m-51.4-17.05-.05-.1-1.1-8.95q-.55-6.95 1.85-12.5.85-3.05 7.8-4.05m-7.25 9.35.4 5.2 1.95 15.1m2.85-.6-.1-2.55m41.95 13.9h.05l.45.75v.85l.3.3 1.35.35m-34.8-35.95.1.15q-.45 9.55-2.65 18.8l-.7 5.4 1.7.25h.75l.95-6.3m-9.35 4.05v1.35l2.9.25.6.05.55-9.15m3.25-13.85.05 1.2-1.95 22.05.55.1m-10.1-.25 1.4-.3-.1-.85m6.35 1.05h.15l1.75.25m.25.75 2-.4m-14.25 0 .8-.15-.65-5.55-3.35 2.1-4.45 1.85-1 1.05.7.2 1.75.7m14.75 1.2 3.7-1M241.3 97l1.65-.35m1.4-.3.6-.15 2.15.05m-5.8 3.9q2.75 1.2 4.5 2.35l2.2 1.75 1.25 2.25 1.2 2.55 2.3 5.75 1.9-.9 1.95-3.85.65-1.3.25-.5 1.1-2.2.05-.2 3.5-4.15m-3.35-5.4 1.15-1 2.5.1m-3.65.9-.15.15.2-.1.6.4h3.75q1.3 1.9 1.55 3.7l-1.15 2.7-.45 2.05 1-.75m-5.55-8-3.1.7m3.15-.7h-.05m.85.3 2 1.35m.9 5.15L261 105.1l-2.3.9-.1.05m4.55-.85-1.65 2.25 1.45 2.2v.4l1.65-1.2.45-.35-.05-.4m-2.05 1.95v.2l3.75.85q7.3 2.05 7.35 4.95-.05 2.9-7.35 4.95l-6.1 1.25-4.9.55-.8.95.15 1.1 5.2-.55 6.9-1.2 1.95-.45q10.75-2.65 10.75-6.4 0-3.8-10.75-6.45l-4.5-.95m-1.65 1.4v2.55l.7 1.3-1.8 3.25-.65 1.8-3.8.7-.2-.4-1.05-1.95 1.45-3.5 1.4.75h1.45l.9-.2 1.6-1.75m-5.75 7.05v1.25l-1.5 1.7m1.8-14.55h3.4l.6-.8m-4.25 1.3.25-.5m-.9 1.8.05 3 .95.95m-.4 5.45v.4m10.05 3.65h-.1l-.1.3 1.5 1.5h4.75l2.65-.85-1.6-2.35-7.1 1.4m-.55 1-.1.15.2-.05.65 1.15v.3l-.2 4.8-.35 8.15q.15 2.1.9 3.45l.15.2.5.2 5 .2 2.9-18.05-.4-.55m-8.9-.65-.35.7m-13.55-8.35-.4-1.35m-8.4 17.4q3-3.65 5.25-7.3l1.75-4.55m3.55 3.4-.1-.85q-.6-3.35-1.6-6.7M229.35 134l-.1.2q-.95 3.1-4.7 6.45m15.4-3.5 1.6-1.7 2.5-2.9m11.2-6.3v.85l4.55-.2 7.65-.85m-12.2.35-.6.75.6-.05q-.15 9.65-1.75 17.6l-.55 2.6-.25 1.35m1.95-21.5q-4.4 5.4-10.3 7.5-1.2 3.15.8 6.5 1.95 3.3.45 14.4-1.6 11.1-7.1 24.1-5.55 12.95-7.5 24.2 1.55 9.25 2.55 18.45l2.2 2.2q.25 2.15 2.3 4.05-1.55 3.65-3.6 7.35-.55 4.3.95 8.95 3.75.85 7.15 4.65l.4 1.25 4.6-.5 1.95-.25 2.65-.35q-1-9.9-7.5-22.15-6.55-12.25-3.05-16.65 3.55-4.45 3.6-14.05.1-8.85.6-17.75.55-9.7 3.6-18.75 1.9-5.8 3.3-11.65m4.25 88.75-.65-8.8q-1.2-16.35-1.3-42.05m-10.65-51.9-2.8.8m22.45 8.1-.15.2q-1.4 1.35-2.2 2.8-.85 1.55-.95 3.15m2.8 6.55.5.55.95.35q5.45 1.5 9.65-1.9l.55-.45q3.25-2.95 5.8-8.95 1.1-1.95 1.45-3.2.95-3.45-4.5-1.1l-2.2.95-2.25.55m-9.45.5 1.4-1.15 2.2.15.35.1M266.9 139l-.05 2.2m-3 2.55 2.4-4.85 1-8.05m-12.2-6 .2 1.4 4.7-.3 6.65-1.3m23.15-16.5-.5 2.4-2.4.85-.95-1.25m1.85 7.95-.05.2.15-.1-.1-.1-1.2-.7-1.75 1.2-1 .65-1.65.55m-.2.05-2.95 1-.05.5v.85l2.75-.7 3.1-.9 2.9-2.3-5.3 27.55m7.45-28.15-1.75 7.4 4.25-1.35q9.45-3.2 16.9-8.45 2.8-1.9 2.65 1.75l-.45.9q-6.1 11.2-14.15 20.85-5.55 5.15-14.2 10l-.05.15q-2.25 16.55-2.6 36.1 7.9-.7 13.9-4.35 2.8-1.65 3.7-.95 2.45 4.8-10.7 15.55 17.35 6.8 50.1 13.05 7.1.3-2.85 4.7-25.95 9.4-53.55 5.9l1 15.35.05.6.3.35m.15-123.75-2.9-2.35-8.8-2m8.1 14.2v-.5h.05m-.25 1.3.2-.8m-8.15-12.15 11.75 2.85m2.25 6.55.5-5.2m-9.6 29.1 1.65-13.45 1.4-6.9m9.35 2.95-4 16.8-1 6.9m-26.8-76.25q-1-1.75-3.7-3.8 1.6 1.8 1.8 4.8m-149 78.7q2.5-5.9 6.1-11.5 2.8-3.25 7.85-6l2.4-4.4 6.2-2.4 1.6-1.95h4.15l1.75.9q10.5-28.05 47.6-24.7l6.3-1.05 9.15-.25q4.55 1.45 7.55 3.3 2.5-1.75 7-3.15 1.9-.15 4.95 1.25l.1.05 3.6-.75q4.1-4.05 8.25-5.8l1.9.65M138.1 133.7l-3.95-2.5-.7-.2m24.75 16.55 1.25 1.25 1-1.85h1.1m.15 0h.8l1.25 1.4.8 1.4-1.35 1q-.6.65-.85 1.55l-.05 1.4q.05.95.55 1.75l1.05 1.25q1.35 1.25 3.1 1.25l.75-.05q1.25-.25 2.15-1.2.6-.75.8-1.6l1.8.05.8-.85.7-.8-.25-1.4q7.45 1.4 13.35 4.3-5.75-6.55-11.8-9.15-3.35-1.4-6.8-1.65l1.55 1.15.4 1.95-.55.7-.9 1.15.15.2q1.4 1.2 1.6 2.95.1.75-.05 1.4m-6.6-6.85-.45-.95.7-.65-.75-.8-3.85-4.2-12.15-8.15-12.15-6.6m-7.15 3.75-1.7-.6-4.55 3.3 3.4-1.5 2.85-1.2 9.8 3.05 16.65 10.55 3.15 3 .3.3m-10.6-14.05-7.6-5.1m8.3 23.35q2.85-2.5 9.6-4.5m21-25.35-1.05-.55m1.45.15-.4.4 9.9 5.25.05.05 5.05-.9 2.05 1.55m.05.15 2.1-.6 2.2 1.2 1 2.15-.2.55.9.6.6.35.05.1q13.6 5.45 16.9 12.3l5-3.95m-48.75-15.55.65-.65-.8-.45m3.25-2.15-2.45 2.6 11.5 6.95v.05l1.2-.7-.5-.95.1-2.65m-15.65-16.05-10.75 9.1m59.35-15.95-1.2-.7-2.4-1.25m3.6-.75 2.6-.55m1.35 5.9-3.95-2.65m16.6-5.45-4-1.5m-25.65 8q3-.25 5.65.6 3.5 1.1 6.6 4.05m10.2 1.15-2.05-1.65m12.25-9.35-3-1.3m-30.4 6.6.95.85m14 6.65-1.1-2.1-.85-.85m-14.85-5.8 1.85 1.25.75-.1m-19.8 21.85h-.1m-.9 4.4.1-.1m-.1.1-.65 3.9 2.6 3.25H192.95l.3-.7.45-.85-.35-.15q-1.3-.65-2-1.85l-2.65-.9m.45-3.5.35-.25 1.35 1.9.35-.85q.7-1.45 2.35-1.9l2.4.05v-1.9m-5.1 4.6v.8l.5 1.95m1.55 3.6.05.4.3-1.15m-.35.75.05-.05m1.35 3.05-1.05-.5-.3-2.1-.65 1.6.5 1.75h.1l1.25-.05.15-.7 1.95.85v-1.5l1.15 1.5h1.7l.85-1.15-1.45-1.8-1.35-1.3q.7.55 1.5 1.15l1.65 1.25.8-1.65-.25-.75-.4-1.1-2.15-.8-1.65.95-2.95-.25m-1.5 1.55-.45 3.15q-1 6.55-2.7 12.6l-.75 2.5 1.45.85q2.85 1.7 5.25 3.75.3 1.5-.75 3.05h-.05l.1 1.15q.45 5.5-.15 10.15 2.1 1.85 5.4 1.75l3-.55q3.55-.8 6.7-2.4l3-1.75 2.15-1.6 1.35-1.2 1.8-2.35 1.35-2.3q4.6-8.5 1-19.85l-.05-.3-.3-.75m-16.7-11.25-.2-1.05-.65-.45m.85 1.5.25 1-.55 1.05 1.55.65 1.5-1-2.35-1.7h-.4M196 128h-.05m3.15 4.6-.05-.1q-.65-1.6-2.25-2.4l-.85-.35m3.15 2.85 1.6-.5.4-.8m-1.85 1.9 2.55-.1.75 1.3v2.6l-1.7 1.4m-1.6-5.2-.15-.6m3.45 2.8v.05m-4.25 1.05.7-.95q.55-1.15.25-2.35m27.7-25.3 1.8 1.35m2.35 1.9 6 5.15m-7.75 17.7h.1q.7-4.35-2.8-12.8l-3.8-8.25m17.1 24.2-5.75 5.55-7.2 1.15-7.1 1.85m5.75-38.75 1.3.95m-107.6 26.85 2.7-1.4m96.95 38.7.5-1.1q.95-2 .4-3.65-.5-1.45-1-1.75m-4.5 5.85 1.2 1.35.5 2.35v3l-1.6 1.9h-1.65q-2.4 3.05-6.1 5.5l.25.65-.85 1.5h-2.2l-.15.15q-3.7 2.6-7.95 5.1l-.05.05-.85 2.3-1.85.5-1.5-.45m25-20 1-2.35q.4-1.5.35-2.95l-.4-2.15m-1.45 8.25.5-.8m-25 19.95-3.15 1.6q-6.9 1.8-12.75 2.75l-.5.75-1.5 1.1-1.2-.9-.35-.25-10.8 1.15q-5.95.3-11.4-.1l-.25 1.15-1 .4.85 1.05q5 5.7 11.8 11.2 5.9 4.75 13.05 9.35l.7.4m37.75-44.9 1.2-1.25.5-2.65-.8-2.25-1.5-.85m6.75-.95.55 1-.2 3.55q5.4 8.15 9.6 16.15l2.05 11.1m-13.4-30.9 1.4-.9m-31.15-13.2 4.35 3.55 2 2.2m-7.1-8.2 1.2.6m5.9 7.65v-.05m8.8 16.8q-.45-.2-.85-.45h-1.65l-.75 2 .15.75 1.5-1.05 2.55 1.4 1 2.85-1 .75m-.95-6.25 2.55 1.25 1.2 2.85m-13.8 2.1 2.05 1 1.2 2.25-.35 2.05m19.95 4.9.65-2.45q-1.65-1.75-3.95-.55-3.1 1.5-5.75.35-2.65-1.25-6.45.5-13.6 6.1-17.75 14.6l-1.7 4.5q-1.6 4.3-.1 10.25 1.5 5.9 3.4 8.05 1.9 2.1 1.2 3.45t-.05 3.45q.55 2.05 5.65 1.45 20.65-3.75 35.15-18.85 2.1-2.2.05-4.6-2.5-1.25-1.95-3.15-.75-13.1-8.4-17l-.6 2.25-.5 1.55q6.5 6.05 6.6 18.1-.6 4.15-7.75 5.35-3.9-3.35-5.2-7.35-.45.5-1.35.6m-17.3-29.9-.45.65-.05.05h.1l1-.4-.6-.3 1-1.55 1.45-3q1.5-3.6 2-7.9m-1.2 11.6-1.85-.7h-.4m2.25.7q3.75-1.7 6.95-3.85m-6.95 3.85v.05m-2.65 1.1 1.65.9 1 1.35v2.55l-.6 1.35-.1.05-.65.4m.65-.4-.65.35m16.75 22.45q.5-.6.4-1.7.45-9.05 2.7-15.85 2-1.95 3.75-.1m-12.65-22.9-5.9 4.6-4.5 2.1m22.55 17.75-1.85 5.75m-3.6-32.6q-2.7 3.7-6.25 6.65m16.35-4.8q-.75 9.55-2.9 18.75m-42.7-43.25-.2-1.25-1.8-1.95-1.85.5m-3.15-3.6h-.35l.15.35.2-.35.35-.85.8.35.6.3m-2.1.2-.45-.8-.8.8-.8.85m.35 3.05 1.3-.2q1.65 0 3 1.05m-5.2 11.8.7-.05.5-2.35.7 2.25 1.7-.45v-.05l1.15-1.75-.8-.6v-1.45m.8 2.05.75.55.95.3 2.7-1.4 1.25-2.95-.9-2.15m-14.6-3.8.75-1.7m-.1 2.8-.7-1 .05-.1m.65 1.1.45-.6 1.1.6 1.45.7m2.2-2.55.15-.05-.6-1.45m-3.8 9.9q.15-1.1 1.05-1.85l.55-.4.95-.45m.95 6.9-1.65-.15-.8-.85q-.65-.85-.9-1.65l-.9 1.6m-5.45 16.4q-2.65 3.3-6.6 6.5l-.2.1v.1l-1.65 4h-.95l1.7 2.6-2.25 2.75 3 .15.1-1.05 1.15-.75.5.5.8 1.25v.1l4.2-.25-1.3-.9-3.05-2.75m9.85-32.3.9.4v.4l.15 1.15m-1.05-1.95-1.9-.85-.4-2.75 2.25-2.55m-17.8 34.55.25-.2q6.35-4.7 17.5-24.25l.25-.4m-2.25 34.35 1.7.75 4.05 1.5q4.95 1.25 9.5.75l3.6-.7q6.8-1.6 13.05-8.85m-24.05-43.3-1.55.05m-15.5 7.55-.5.25q-2.95 1.45-5.4 3.7m2.4 1.4q-2.1 1.4-2.8 2.95m-.6 16.9q-2.35.85-4.7 2.2l-2.85 4.8v.35l-.3 3 1.1.95 3.05 1.15.1-2.7 1.6-1.05q1.05-.3 2.35-1.15m.7 2.2h.7l1.75.05m-.55 5.35-.1.1-.25-.1-.8-.5m3.95 3.65.2-3m-3.25-2.6-.95-.8-1.7-1.4m2.55 4.65h.35m-6.65-2.7 4.75 1.85.75.35m4.25 7.85-.35-3.5.05-.7m-4-6.4v-2.15m-11.1 8.4-.55 1.85-.35.45q3.6 2.65 4.15 6.1-.8 7.7-7.95 14.55l-1.65 7.1-.85 2.5 3.45 6.05h.05q.2 1.5-2.45 3.6l2.4 1.7 1.15 2.95 3.3 4.45-1.25 6.8-.3 1.55-1.6 1.3-.25.2q.85 4.9-2.55 8.05-3.6.95-6.9 3.5l-2.75-.05-3.7-2.45-.55.05-2.45.2-3.2-1.6-3.4.3-3.6-1.05-3.85-4.25-.45-.2-.45-.2-.15-.25-1.15-.85q-1.8 5.1-1.65 9.45l.15 2m40.85-81.6q-.5 3.9-1.5 7.8l7.15 2.55 1.9.75h.25l2-.45.8 1.05 3.3.45.1 1.2 1.05.7.3-.1m-18.1 4q-1.5.9-3.3 1.6l-.15.1v-4.75l-1.05 1.5m4.5 1.55.25-.15.75-.8-1-2.55m-10.9 39.15 5.1-2.9m-1.95-16.2.05-.2 4.25-3.55M126.1 209l-3.85 1.1-1.45.3-9.5.95m-10.3 1.9-2.3 2.05v.7l.85.05 1.95-.1.8 2 .5.25v.95l-2.75.85-1.25-.5-1.7-.15-.75 5.3h2.75v.4l.05.15 1.5.9.2.15v1.15l-1.35 1.5-1.6-.8h-1.65q.05 4.3 1 8.65l.3 1.15H99.5l.25.2.65.3v.35l.45.4-.15.35.75.7h-.2l.2 1.2H98.6q.2.6 8.4 6.5l.05.05 2.35-.9.35-.15q5.9-2.35 9.95-4.35m7.45-33.95-1.05.4m18.15-.45.8-.3v-2.75l-1.15-1.3-1.25.5 1.5 3.65.05.25.05-.05m2.25 3.5.25-.45 1.15 1.3v1.3m41.3 53.3.6-.25q18.95-7.7 34.2-16.7 4.25-4.95 7.55-9.9l.05-.15 2.85-4.6M147 205.8l2.55 4.1q5.45 8.5 11.8 16.7l1.4 1.7 9.9 11.7m-28.7-39.35 3.05 5.15m-7.7-5.7-.3-.8m7.5 12.75-.8 1.25 1.4 2.7.85-.35-.05-1.45m-8.05-12.6q6.9 18.4 9.7 36.15l.7 4.5V247.7l-.1 14-.6 3.1q-1.3 5.35-4.65 10.35l1.3 1.15 2-3.75m5.75-13.95-.05-.2.95-2.6 1.45.9-.15 1.35M161.8 272l12.6-1.4q6.6-1 13.3-2.55l.25-.05 1.25-.5m-62.05-63.65 3.8-4.8m26.35-3.4q-1.9-.9-3.4-1.95m18.65 6.55-.05.3m-.35-.25.4-.05v-1.6m3.6-.7-.45 1.65m-25.75 1.75.45-2.3-.7-5.1m-13.2-13.15q-2.4 1.35-4.8 3.25m20.75 43.25-1.55-1.05-.3 2.7.95 1.45.95-.35-.05-2.75m-.45 8.95.5 1.65 1.35.45.25-2.95-1.15-1.7-.95 2.55m1.1 8.15.75 2.1 1.15-.45.45-3-1.4-1.2-.95 2.55m3.1 5.45-1.35-.85-.95 2.55.5 1.6 2-.15-.2-3.15m-31.55-20.55-1.1 3.4m1.35 6.85.8-.6m-1.2 11.65-1.9 2.3 3.45-.65h.1q1.5 0 2.45.65m22.85 18.1-1.35 2-.45 1.25-.8.9v-3.85l-.65 1.25m-18.95-15.05-.1.4m-4.1 4.65-1.55.05-1.1-.65-.1 2.75m.1-2.75-2.4-4.75-1.9 4.85-.5.3m7.45.2q.6-.2.5-.5m21.9 22.65.4-1.4 2.65-1.45.15-2.6.25-.75-.15-1.3.35-1.35-.05-.45q-.2-2.2.4-4.4l.7-.95.5 5q.8-1.75 2.1-2.4l.9-.35h.35l5.8-.3M147 286.2l.45-1.5m-.45 1.5-.15.5q-1.65 3.8-6.1 6.7l-1.05.65 1.35 2.9 1.95-1.4 2.8-2.05-3.2 5.9-1.65 3 2-.85 1.9-.75 2.45-3.3.7-1m-.6-6.3-1.55 3.2-.05.1m8.15-34.9.45 1.4h1.4l.35-1.95m-2.5 4.35-.8 3.2 1.9.7h.05l.65-3.9h-1.8m-2.55 13.45.85 1 2.2.4 1.85-1.1.15-.75q.15-1.55-.15-3.1m-2.95 8.75.45.25q1.65-.45 2.5-1.05h.05q.45-2-.05-4.1m-2.95 4.9-.85-.55-1.1-1.15-.2-.85m5.1 1.75q.3.55.3 1.1l1.25 1.25q1.4 5.15 2.05 10.8l.5 5.55 8.9-2.2.2-.05 5.85-1.7q6.15-1.95 12.15-4.25 5.95-2.3 11.75-5 12.1-5.6 22-13.75l5.9-5.3 1.2-1.25q3.7-5 5.05-10-.75-3.15-1.15-6.35-.5-4.2-.4-8.45m-78.5 44.05.45.15 1.45-.55 1.2-.7.15-2.25m-5.8.5v1.4q.7.8 2.55 1.45m-1.15 16.75-3.2 4.45-2.4 1.3-2.1 3.45 7.3-3.15 5.15-7.8.9-1.35.15-.3v.05l.95-1.85M120 257.2q1.1-2.3 2.6-4.3m3.55-.65 3.1 5.25M230 230.8l3.85-5.85-.3-2.65m-7.35 13.35-.05-.05-.45-.85q-.65-1.3-1-2.75-.35-1.1.05-2.5l2.2-2.7q.9-.95 1.75 0l.6 1.35.7 2.65.1.5.65 1.55q.5 1.75-2.1 3.65l-2-.05-.45-.8-2.1 2.35-.05.05.75 1.95q.05 3-3.45 3.5-1 .1-2-.4l-.35-.3-.5.35m11.3-12.05-3.6 4.55m3.6-4.55.2-.3m-11.3 11.5q-1.35-1.7-2.15-3.4-.85-1.7.3-3.25t2.7-2.35l2.65.15.9 1.65.95 2.85v.1l-5 4.7-.05.05-.3-.5m-3.75 2.95v2.25q-1.25 2.15-3.7 2.6-1.2-.15-2.35-.9-2.05-2.45-2.9-5-.5-1.2.7-2.3 1.7-1.6 3.4-2.15 1.6-.6 2.95.55 1.25 1.95 1.9 4.95m22.35 7.1 1.65 2.15v1.25l5.75 8.75.75-1.4q-.75-6.2-2.5-12.35m-7.55-5.9.15 1.5-1.55 2-2.05.75m-28.4-29.55q.75.05 1.3-.55m-1.3.55q2.9 5 3 9.35-5.75 5.3-10.3 5-6.25-1.5-8.8-7.45-4.25-10.25 2-15.15 4.9 1.7 11.45 6.7 1.55 1.5 2.65 1.55m-10.8 27.95q-.05-1.25 1.25-2.05l4.9-1.2q1-.2 2.25 1.8l1 5.55q-.2 1.9-2.5 3.75-2.85.4-5.2-1.85-1.35-2.95-1.7-6m28.2 24.5-12.05 14.1q-5.95 2.6-13.2 3.9l-8.5.75m46.75-20.3.3-2.55-4.9 9.95-2.7 2.75 1.3-4.85q.15-4.65-1.1-9.05m9.75-4.65-2.35 5.85m-.9 7.65h1.05l3.95-9.4.6-10.4m-5.6 19.8.6-5.1-1.1 5-.15.65q-.15 1 2.25 2.3 2.3 1.35 8.35.35l1.25-.35 1.15-1.35 1.25-1.35.4-2.25-.25 3.7-1.4-.1m1.5.2q3.95-2.5 2.8-8.2-1.55-7.95-.5-19.05m-21.55 25.75 1.4-5.05M105.4 152.25l-.55 1.4q-1.6 3.95-2.7 8.05l-.55 2.15v8.25m0-8.25-.1.55q-2.5 2.4-5.5 6.5l-.05.1q-3.35 7.45-5.15 14.95l-.3 1.1-.7 3.75m-1.15-1.6q-5.4.9-9.3 5.2v.25m6.6 6.65-1.25-1.35q-2.45-3.05-1.95-5m3.9-3.25.15-.35 1.85-2.15 1.85-2.15m-3.85 4.65-.95 2.55q-.75 2.5-1 5.7m4.85-7.75.05-.55m-6.6 51.2q1.8 1.3 4.9 2.4l1.6.5 1.45-2.1-.2-2.95v-.05l-1.85-.45-.15-.2-2.15-1.45-.25-1.15-.15-.6 1.15-.45 1.75.65 1.6.25V236q0-4.05.5-8.2l-2.65-.6-.15-.35-1.45-.45-.5-1.65-.25-.75 1-.95 1.35.5.1-.2 3.05.8v-.4l1.05-5.3q-1.9-.6-3.35-1.45l-2.05-.8-.6-1.85-.1-.25 1.65-.9 1.3.6.3-.2 3.1 1.2.4-5.25-1.7-3.1-.7-1.25-1.4-.95-3.65-2.95m-3.75 11.35q.3-1.55 1.2-3.25m4.75 6.15-.05-1.1 1.5-.65m-.85 2.8-.6-.45v-.6h-.25l-1.15-1.2M83 242.85q-1.9-1.35-2.5-2.95l-.7-1.45 2.35-5.95q-2.2-9.95.05-19.85-3.95-7.85-2.9-17.4m10.25-3.05.05.95m8.1 22.7 1 .15m.85.05 1.2 1-.55 1.4 1.1.35.45-.15.55-.7m-13.55-1.35.65.4m3.6-2.2 4.7 1.05m3.3-2.6q1.75-1.25 3.85-1.95l6.45.05m-11.1 7.1-.55 1.1-.85-.05m1.3 7.15.55-.55m-.55.55.15.3-.35.35-.95.8H97.9m2.2-1.45-.95-1.45-.6-.4h.55m-10.85 1.8.15.25m3.3-2.7 1.95.5h2.7m-.1 3.45-3.2.2-1.85-.5m8.7-.5h-.5l.7-.65m-3-7.3-4.35-.9m6.4 19.45.6.2.65.65v.4l.3.35-.2.55.75.15h-.85l-.45 1.2m.45-2.25v.85l.1.05-.1.15M88.15 239l.6 1m1.95-2.75 4 .65h2.85m1.05 3.5h-4.25l-3.6-.75m13.9 21.3.3.65 1.3.4 1.95.6 3.3.95m-23.75-39.1-.2-.4 1-1.5m-.3 3.05-.5-1.15h-.7l-.6-.7m-4.3 7.75.85 3.25m5.1 2.4 1-1.15m-.95 2-.3-.55.25-.3-1-.05-.75-.7m1.55 7.85v1.6q.3 5.3 3.45 10.1l.5.25 2.6 1.3-.6-1.15m21.8 6.05 1.95-1.05m-4.55 4.45-.35.2m.55-.2h.6m-.6 0h-.2l.2.15m-.2-.15-4.85-3.2m-5-4.9-.6-1.35m-6.55 3.1.15.15 4.2 1.65-.9-.9m7.55 4.25-4.85-2.4h-.9l-.9-.95m-5.95-3.75.2.45 1.4 1.5m-.9-.5.6.45m-3.9-3.2 2.15 1.9m.65-.15.5 1m-3.1 14.25L90 272.6l2.35-4.05m50.25 30.85q-10-2.4-19.1-6-8.5-3.35-16.15-7.7l-4.3-2.55-11-8.95m12.6-12.25-1.45-3.25m3.05 4.3-4.05.2m55.5 34.9-.15.25m.1 1.15.05-1.4m2.4.85-.2 4-2.65 2.8.4-6.25-1 .2m-11.8 7.5 1-1 2.3-4.1.25-2.3-.1-.2m-2 7.6-1.95 1.05.5-1.05-2.85 2.65.95-8.3m131.65-146.3v.9m1.2 34.05 1.2.25q1.55.9 3.35 1.8l.1-7.2m-5.95-28q-.6 9.8-.55 19.7m-12.9-24.5-.2-.9-.15-1.65m3.8 14.75-1.9-3.5-.55-3.3m-.05-.2-.95-5.2q.45 1.5 1.65 3.05l.8.95m1.45 2.2v-1.3m0 1.3-.05 6V174m.3 17.5q4.1-2.75 10.6-1.3m-15.2 21.95q-.85-1.1-1.1-2.3l1.1-4.75 1.4-2-1.45-1 .05-4.3 2.2-4.2 2.4-2.1m-2.75 22.3 1.95 1.15q2.5 1.25 6.4 2.25l10.25 1.75M262 203.1l1.2.8q7.55 2.75 16.3 4.65l1.15.25 15.95 2.5m-16.25-19.05q3.1 1.5 7 3.05m-10 45.35q3.25-2.65 4.55-5.95l.15-.4m-6.85 6.45v-1.65m-6.6-7 .8 13.15q2.35-.95 4.3-2.1l.35-.15 1.15-1.4v-.85l.05.9m.3.4 1.8-1.4m-8.7-11.75.05-3.05m6.85 16.2-.3.2-1.2.75m1.2-.75v-.6m-6.65-9.55.05-3.2m-16.5 20.75 2.5-.45q1.95-1.3 2.65-3l.25-1.05-.6-7.75m5.3 10.2 5.25-1.65.45-.65 1-1.4-.35-11.8m.55 13.25h.25v-.1l-.25.1-1.2-.05m-5.7 2.3-2.3.5q-2.75-.65-2.65-1.9m-9.75 4.05-.7 13.7.7 5.75m-.35 7.55-.1.1v-.2m-71.8-129.9q.8-5.25 3.6-9.7"/><path stroke-width=".25" stroke-opacity=".4" stroke-linejoin="round" stroke-linecap="round" stroke="#351e0a" fill="none" d="m253.2 116.2-.05-.05m.05.05-5.95 6.45-13.15 10.95-2.45.7-2.2-.3h-.1m-4.8 6.65v.05l1.45 1.7 4.3-1.35 9.65-3.9m4.1-4.6.3-.35 6.8-3.95 3.75-4.5m-28.25-2.55 8-1.8 2.75-2.55 5.65-3.3 5.2-5.5 1-1.55m-117.5-20.15-2.6 2.35-3.1 3.8-.6.4-1.3.8-2.35.9-7.15 1.75-5.85.7-2.55 1.15-.15.1-1.95 2.05-.45 1.05.05 1.1.2 1.1m128.6-6.95-4.1 1.15-4.65 4.6-3.3 1.2m1.05 5.4.95-1.4 3.15-.65M237 99.8l1.3-.95M218 102.3l-4.75.5-4.6 2.55M220.9 110l.65-1m14.95-8.95.5-.25m-10.05 8.1 4.25-2.1 5.3-5.75m-105.2 108.3-.7-1.45m-7.45 9.35-.4 1.45-3.45 6.3-1.35 9.05 1.8 6.25.85 1.9-.9 1.35m5.1-2.9.1-.1v-1.75l-1.55-3.25-1.6-4.65 1.1-6.45m.05-.2.1-.4 1-1.65 6.05-7.45 1.25-3.25.5-1.2-.5-.95m-8.15 7.9.5-1.9m-11.05 3-5.75 13.85 1.9 8.85 1.9 3.5.55 1.1-1.45 2.25m12.5-36.8 1.75 2.95-.35 1.3m-12.35-3 2 4.55-.7 1.45M83 203.75l.15-.65 2.8-1.8M83 203.75l-.85 2.45 1.25 3.2.7 2.1q-1.6 8.5-1.1 17.75l1.65 9.1-1.8 3.4.15 1.1.05.95"/><path fill-rule="evenodd" fill="#5e5236" d="m-44-72.1-.65-2.95 1.25-.5 1.1 1.25.05 2.8-1.75-.6" transform="translate(192.55 294)"/><path stroke-width=".25" stroke-opacity=".612" stroke-linejoin="round" stroke-linecap="round" stroke="#361f0a" fill="none" d="m148.55 221.9 1.75.6-.05-2.8-1.1-1.25-1.25.5.65 2.95z"/><path fill-rule="evenodd" fill="#5e5236" d="m-53.85-103.85.7-2.05 1.2.5.35 1.35-1.1 1.6-1.15-1.4" transform="translate(192.55 294)"/><path stroke-width=".25" stroke-opacity=".612" stroke-linejoin="round" stroke-linecap="round" stroke="#361f0a" fill="none" d="m138.7 190.15 1.15 1.4 1.1-1.6-.35-1.35-1.2-.5-.7 2.05z"/><path fill-rule="evenodd" fill="#5e5236" d="M-49.6-108.3q1.35-.9 2.6-1.85l1.05.95-.85 1.55-2.7 1.15-.1-1.8" transform="translate(192.55 294)"/><path stroke-width=".25" stroke-opacity=".612" stroke-linejoin="round" stroke-linecap="round" stroke="#361f0a" fill="none" d="m142.95 185.7.1 1.8 2.7-1.15.85-1.55-1.05-.95q-1.25.95-2.6 1.85z"/><path fill-rule="evenodd" fill="#5e5236" d="m-44.1-114.05 2.25-2.25 1.1.75-.5 1.7-2.45 1.6-.4-1.8" transform="translate(192.55 294)"/><path stroke-width=".25" stroke-opacity=".612" stroke-linejoin="round" stroke-linecap="round" stroke="#361f0a" fill="none" d="m148.45 179.95.4 1.8 2.45-1.6.5-1.7-1.1-.75-2.25 2.25z"/><path fill-rule="evenodd" fill="#5e5236" d="m-36.75-123.75 1.2.7-.4 1.7-2.35 1.8-.55-1.75 2.1-2.45" transform="translate(192.55 294)"/><path stroke-width=".25" stroke-opacity=".612" stroke-linejoin="round" stroke-linecap="round" stroke="#361f0a" fill="none" d="m155.8 170.25-2.1 2.45.55 1.75 2.35-1.8.4-1.7-1.2-.7z"/><path fill-rule="evenodd" fill="#5e5236" d="m-.45-140-.55 3.15-1.35-.05-.55-1.65 1.1-2.7L-.45-140" transform="translate(192.55 294)"/><path stroke-width=".25" stroke-opacity=".612" stroke-linejoin="round" stroke-linecap="round" stroke="#361f0a" fill="none" d="m192.1 154-1.35-1.25-1.1 2.7.55 1.65 1.35.05.55-3.15z"/><path fill-rule="evenodd" fill="#362e12" d="m-15.75-138.25-3.1-.9.15-1.3 1.75-.35 2.55 1.35-1.35 1.2" transform="translate(192.55 294)"/><path stroke-width=".25" stroke-opacity=".612" stroke-linejoin="round" stroke-linecap="round" stroke="#361f0a" fill="none" d="m176.8 155.75 1.35-1.2-2.55-1.35-1.75.35-.15 1.3 3.1.9z"/><path fill-rule="evenodd" fill="#362e12" d="m-9.85-136.55-2.4-.9.05-1.3 1.35-.35 2 1.35-1 1.2" transform="translate(192.55 294)"/><path stroke-width=".25" stroke-opacity=".612" stroke-linejoin="round" stroke-linecap="round" stroke="#361f0a" fill="none" d="m182.7 157.45 1-1.2-2-1.35-1.35.35-.05 1.3 2.4.9z"/><path fill-rule="evenodd" fill="#362e12" d="m.05-129.7-1.25-1.5.55-1.25 1.05.05.8 1.85-1.15.85" transform="translate(192.55 294)"/><path stroke-width=".25" stroke-opacity=".612" stroke-linejoin="round" stroke-linecap="round" stroke="#361f0a" fill="none" d="m192.6 164.3 1.15-.85-.8-1.85-1.05-.05-.55 1.25 1.25 1.5z"/><path fill-rule="evenodd" fill="#362e12" d="m-4.25-135.95 1.4 1.95-1.4.8-2-1.7.55-1.2 1.45.15" transform="translate(192.55 294)"/><path stroke-width=".25" stroke-opacity=".612" stroke-linejoin="round" stroke-linecap="round" stroke="#361f0a" fill="none" d="m188.3 158.05-1.45-.15-.55 1.2 2 1.7 1.4-.8-1.4-1.95z"/><path fill-rule="evenodd" fill="#5e5236" d="m1.35-147.4-.6 3.15-1.35-.05-.5-1.7 1.1-2.65 1.35 1.25" transform="translate(192.55 294)"/><path stroke-width=".25" stroke-opacity=".612" stroke-linejoin="round" stroke-linecap="round" stroke="#361f0a" fill="none" d="m193.9 146.6-1.35-1.25-1.1 2.65.5 1.7 1.35.05.6-3.15z"/><path fill-rule="evenodd" fill="#5e5236" d="m-31-130.4-1.15 2.95-1.3-.3-.2-1.75 1.6-2.4 1.05 1.5" transform="translate(192.55 294)"/><path stroke-width=".25" stroke-opacity=".612" stroke-linejoin="round" stroke-linecap="round" stroke="#361f0a" fill="none" d="m161.55 163.6-1.05-1.5-1.6 2.4.2 1.75 1.3.3 1.15-2.95z"/><path fill-rule="evenodd" fill="#362e12" d="m17.45-155.7-2.3-.9.1-1.2 1.4-.2 1.85 1.35-1.05.95" transform="translate(192.55 294)"/><path stroke-width=".25" stroke-opacity=".612" stroke-linejoin="round" stroke-linecap="round" stroke="#361f0a" fill="none" d="m210 138.3 1.05-.95-1.85-1.35-1.4.2-.1 1.2 2.3.9z"/><path fill-rule="evenodd" fill="#362e12" d="m25.9-148.95-1.15-1.85.45-.3.9.8.8 1.7-1-.35" transform="translate(192.55 294)"/><path stroke-width=".25" stroke-opacity=".612" stroke-linejoin="round" stroke-linecap="round" stroke="#361f0a" fill="none" d="m218.45 145.05 1 .35-.8-1.7-.9-.8-.45.3 1.15 1.85z"/><path fill-rule="evenodd" fill="#362e12" d="m22.35-152.7-1.95-1.65.45-.6 1.35.5 1.4 1.7-1.25.05" transform="translate(192.55 294)"/><path stroke-width=".25" stroke-opacity=".612" stroke-linejoin="round" stroke-linecap="round" stroke="#361f0a" fill="none" d="m214.9 141.3 1.25-.05-1.4-1.7-1.35-.5-.45.6 1.95 1.65z"/><path fill-rule="evenodd" fill="#c7ab6d" d="M2.15-179.85Q2.2-185.3-.5-191.3l-3.7-3.3 3.7 3.3q2.7 6 2.65 11.45 0 3.1-.9 6L-.3-171.3l-1.35 1.5H-3.6l1.4-4.85q-1.4 2.75-4.2 5.5-4.2 6.3-8.3 7-1.4 1.35-2.75 2.05h-.8q4.35-3.95 6.9-7.75 3.6-6.4 4.2-12.5l.1-.9q.35-4.25-4.65 1.9.75-2.75 1.2-5.5-.45 2.75-1.2 5.5-1.3 4.9-3.55 10.1-2.85.85-5.7 1.4 4.85-3.95 5.35-7.85l-13.15 2.8q2.95-1.45 4.8-3.15l-6.4 2.4-1.6.55q6.05-3.4 6.9-6.2l-5.8.7 1.3-1 4.95-1.1h.1l1.8-.5 5-1.7q4.05-2.9 6.4-6.15 1.9-2.8 2.7-5.75l1.45-5.25 3.55 1.75q4.95 4.9 7.9 9.4l-.05 2.75L2-188.2l1.45 5.75-1.3 2.6m-22.95 1.8-3.15 2 3.15-2m-45.55 2.7q-4.8 4.95-6.1 7.6.4-7.85 5.5-14.7l-2.15 1.1q4.85-3.8 5.95-8.15.65-1.6-2.2 0l4.9-3.55.1 1.7-1.75 3.7 1.3 2.05.8.7-.05 2.1-1-1.05-1 1.3.05.25q.5 3.05 4.1 5.6l.2.25 1 1.3-3-.8-.95-.35-.8-.25-1.45-2.3-3.45 3.5m2.95-8.7q-1.95.7-3.55 1.6 1.6-.9 3.55-1.6m-.4 1.45q0 1.9.9 3.75-.9-1.85-.9-3.75m49.1 20.45q1.85-1.75 3.65-4.65-1.8 2.9-3.65 4.65m8.3-7q2.6-3.95 5.25-9.95-2.65 6-5.25 9.95" transform="translate(192.55 294)"/><path fill-rule="evenodd" fill="#faedd1" d="m-30.85-178.6 5.8-.7q-.85 2.8-6.9 6.2-9.35 2.95-12.8 1.75 4.6-1.8 8.2-3.7 3.3-1.75 5.7-3.55m12.6 18.5h-1.7q2.7-4.65 4.7-9.15 2.25-5.2 3.55-10.1 5-6.15 4.65-1.9l-.1.9q-.6 6.1-4.2 12.5-2.55 3.8-6.9 7.75m-2.7-7.75h-.25l-.25.05q-5.15.8-10.25.25l-1.85-.3q-2.9 0-5.6-.9l-1.05-.35q6.8-1.6 11.25-3.7l.2-.1 13.15-2.8q-.5 3.9-5.35 7.85m-48.15-13.5q-2.85 1.2-7.4 2.6l-.05-.15 3.9-4.25q1.2-1.6 5.75-5.15l1.3-.95.25-.25q2.85-1.6 2.2 0-1.1 4.35-5.95 8.15m9.05-1.45.05.45q.15 1.45.7 2.85l.15.5 1.25 2.3q-3.6-2.55-4.1-5.6l-.05-.25 1-1.3 1 1.05m38.75 11.85q-5.2 2.45-9.85 2.95l-2.4.15 2.4-.15q4.65-.5 9.85-2.95" transform="translate(192.55 294)"/><path fill-rule="evenodd" fill="#ac7533" d="m-21.2-167.85-.25.2v-.15l.25-.05" transform="translate(192.55 294)"/><path fill-rule="evenodd" fill="#9e7635" d="m-30.35-173.65 6.4-2.4q-1.85 1.7-4.8 3.15l-.2.1q-4.45 2.1-11.25 3.7l-.05.15-1.5-.3 2.85-.7 8.55-3.7m8.9 6q-5.75 3.75-15.2 6.55l-5.8.7q6.9-1.75 10.15-4.7h-3.95l1.45-.45 3.1-2q5.1.55 10.25-.25v.15" transform="translate(192.55 294)"/><path fill-rule="evenodd" fill="#d6a555" d="m-31.95-173.1 1.6-.55-8.55 3.7-2.85.7 1.5.3 1.1.2q2.7.9 5.6.9l1.85.3-3.1 2-1.45.45h3.95q-3.25 2.95-10.15 4.7H-43q-4.6-.05-6.95-2.25-1.8-2.4-4.65-4.65-4.1-2.9-5.15-5.55l-.3-1.3.35-1.8 3 .8-1-1.3-.2-.25-1.25-2.3.15-.55v-1.65l2.25 2.55 3.65 1.1-.4-.4.3-.6h.25l.6-.1h3.15l5.45 2.3-.2.65-7.9-.5-.5-.5-.75-.85.75.85.4.6.85 1.2 2.25 2.8 7.75-2.95h4.55q-3.6 1.9-8.2 3.7 3.45 1.2 12.8-1.75m27.55 31.4q-4.3-2.45-5.25-6.75.15-2.1 7.25-2.25l-2 9m-35.3-24.35-.05-.05-3.95-3q-7.45-3.3-8.85-2.05l-.75 1h-1.5l-.5-.45.5.45h2.1q-.15 1.7 2.55 4.25 3.35 2.25 9.7.9 1.05-.55.75-1.05l2.8 1-2.8-1m-14.6-3.6-.5-.5.5.5" transform="translate(192.55 294)"/><path fill-rule="evenodd" fill="#aa8a42" d="M-59.75-172.85q-3.6.75-4.8 2.5-.9-.45 2.2-4.6-3.15 2.75-5.45 7.5l-.75-1.45 2.2-6.45 3.45-3.5 1.45 2.3.8.25-1.7 1.35 1.7-1.35.95.35-.35 1.8.3 1.3m-.3-9.95.05-2.1 1 .95v4.4l-.3.05q-.55-1.4-.7-2.85l-.05-.45" transform="translate(192.55 294)"/><path fill-rule="evenodd" fill="#eadec4" d="m-76.5-178.75-.05.05-.1-.1.1-.1.05.15" transform="translate(192.55 294)"/><path fill-rule="evenodd" fill="#fff" d="m-76.55-178.7-.3.05.2-.15.1.1m17.25-.8.3-.05-.15.55-.15-.5m6.95 2.8.5.5-.1.1-.4-.6" transform="translate(192.55 294)"/><path fill-rule="evenodd" fill="#4a402a" d="m-66.9-188.3-7.1 1.85-2.55 2.3q-10.9 9.7-22.9 15.65 9.4-7.35 15.85-15.25 2.35-4.15 5.85-8.55l10.1-1.1 7.15-.6.05.95-4.9 3.55-.25.25-1.3.95m-11.25 3.2 4.15-1.35-4.15 1.35" transform="translate(192.55 294)"/><path fill-rule="evenodd" fill="#85754d" d="m-77.75-192.3-3.1.4-5.4.75q-1.45-1.2.5-2.7l2.65-1.8 4.2-1.55 4.05-1.25 4.1-1.55q1.85-.7 3.3-2.15l5.8-5.8h.2l3.65.7-1.05 2.15q-.75 2.15-1.15 4.6-.55.65-2.3 1.4l-3.1 1.45q-.85.45-1.7 2.7l-.55 1.55-10.1 1.1" transform="translate(192.55 294)"/><path fill-rule="evenodd" fill="#5f5038" d="M-80.85-191.9q-32.65 12-30.2 25.75-2.3-6.95-.9-13.75l.2-.65q.65-2.5 3.55-4.5l.6-.35q2.45-1.45 6.8-2.7 5.7-1.65 14.55-3.05l5.4-.75" transform="translate(192.55 294)"/><path fill-rule="evenodd" fill="#8a7750" d="M-111.75-180.55q.6-2.75 1.85-5.4 3.55-2.9 9.7-5.5l-.45.6-.15.45v2.3q-4.35 1.25-6.8 2.7l-.6.35q-2.9 2-3.55 4.5m53.95-26.7q4.3-7.05 20-15.65l2.1-.35.7-.05q1.8-.1 4.1 1.2-2.4 1.4-3.25 4.65l-1.7.2-.8.05.8-.15v.1-.1l.15-.4-.95.55q-22.9-.85-23.5 28.85l-.2-3-.1-1.7-.05-.95q0-3.55.5-6.5.4-2.45 1.15-4.6l1.05-2.15m5.65 22.9h.25l.95.25q-2.1-23.8 14.3-33.1l.6.35q-4.15 12.1-3.4 33.35l-1.55.2.7.15q-1.1.6-.85 4.3l-10.45-1.2-.9-.35q-1.4-3.55.35-3.95m1.3.3.2.05-.3-.1.1.05m7.2 1.05-7-1 7 1" transform="translate(192.55 294)"/><path fill-rule="evenodd" fill="#7e6f49" d="M-97.85-192.4q5.9-2.3 13.75-4.4 4.45-2.1 7.55-3.95 7.05-4.3 7-7.55l7.9.35-5.8 5.8q-1.45 1.45-3.3 2.15l-4.1 1.55-4.05 1.25-4.2 1.55-2.65 1.8q-1.95 1.5-.5 2.7-8.85 1.4-14.55 3.05v-2.3l.15-.45.45-.6 2.35-.95m29.7-11.35q-3.3 2.1-8.4 4.2-3.4 1.35-7.55 2.75 4.15-1.4 7.55-2.75 5.1-2.1 8.4-4.2m7.65 9.75-7.15.6.55-1.55q.85-2.25 1.7-2.7l3.1-1.45q1.75-.75 2.3-1.4-.5 2.95-.5 6.5" transform="translate(192.55 294)"/><path fill-rule="evenodd" fill="#5e5236" d="m-7.15-200.05-1.45 5.25q-.8 2.95-2.7 5.75-2.35 3.25-6.4 6.15l-5 1.7q5.95-3.85 0-3.15l-2.05.7q-7.65 2.05-15.55.5l-.7-.15 1.55-.2q8.55-1.1 13.65-4.7v4.05l.15.3.9.2-.9-.2-.15-.3v-4.05q3.45-2.45 5.4-6.05l-5.65 1.5-9.85 1.45-1.4-.75-.15-.5q11.8-4.95 6.1-4.85l3.7-4.85.3-.25q.9 4.25 1.3 9.75-.4-5.5-1.3-9.75l8.35-7.2-.3-.7-3.55-4.5q-4.55-5.25-8.05-7.2-2.3-1.3-4.1-1.2 4.7-.5 9.7-.05h.1l2.7.3.7.15q10.1 3.6 12.95 18.55l1.95 3.3-.25 1m-18.15-23.3q-3.45-.05-5.6 1.25 2.15-1.3 5.6-1.25m14 34.3q.25-2.75-1.75-2.55-2.65-17.5-9.8-23.3 7.15 5.8 9.8 23.3 2-.2 1.75 2.55m-29 5.9.85-.05v-.3.3l-.85.05" transform="translate(192.55 294)"/><path fill-rule="evenodd" fill="#948055" d="m-22.7-181.2-1.8.5h-.1l-4.95 1.1-2.25.4-9.35.35q-.25-3.7.85-4.3 7.9 1.55 15.55-.5l2.05-.7q5.95-.7 0 3.15m-13.15-36.15-.8.15.8-.05-.2.4.2-.4 1.7-.2q.85-3.25 3.25-4.65 3.5 1.95 8.05 7.2-4.7-3.7-11.3-2.55 6.6-1.15 11.3 2.55l3.55 4.5.3.7-8.35 7.2-.3.25-3.7 4.85q5.7-.1-6.1 4.85l.15.5 1.4.75 9.85-1.45.25 4.55-.25-4.55 5.65-1.5q-1.95 3.6-5.4 6.05-5.1 3.6-13.65 4.7-.75-21.25 3.4-33.35l-.6-.35.95-.55-.15.4m-.2.5q6.5 3.95 8.7 14.35-2.2-10.4-8.7-14.35m11.3 33.2q.5.65.25 2.95.25-2.3-.25-2.95m-25.9-.35-.2-.05-.1-.05.3.1" transform="translate(192.55 294)"/><path fill-rule="evenodd" fill="#8f6b30" d="m-29.55-179.6-1.3 1q-2.4 1.8-5.7 3.55h-4.55l-7.75 2.95-2.25-2.8 1.55.95q2.9-.25 5.05-1l.8-.75h-.25l.2-.65-5.45-2.3h-3.15l.75-1.4-.75 1.4-.6.1h-.25l-.3.6.4.4-3.65-1.1-2.25-2.55v-2.75l1.75 1.65 4.75 1.9.9.35 10.45 1.2 9.35-.35 2.25-.4m-3.7 2.15h-1.3 1.3m-24.15-4.65 1.1 1.4-1.1-1.4m20.9 3.85-2.4 1.2 2.4-1.2" transform="translate(192.55 294)"/><path fill-rule="evenodd" fill="#99824d" d="m86.6-132.7 6.8 1.1q12 1.05 16.9-1.75 3.05-1.55-.3 6.1-3.75 5.9-10.45 9.3l4.2-4.55q-5.3 4.1-11.8 5.3l-1 .15-2.5-.5 5.65-3.25 3.55-2.5-10.25.95-3.7-2 1-6.7 1.9-1.65" transform="translate(192.55 294)"/><path fill-rule="evenodd" fill="#856b43" d="m86.6-132.7-1.9 1.65-1 6.7 3.7 2 10.25-.95-3.55 2.5-5.65 3.25 2.5.5 1-.15q6.5-1.2 11.8-5.3l-4.2 4.55q-6.5 3.2-15.75 4.1-1.25.5-1.55-4.95-1.25-2.2-.75-9.3 1.05-.2 1.85-2.3l.1-.3q.85-2.1 2.1-2.15l1.05.15" transform="translate(192.55 294)"/><path fill-rule="evenodd" fill="#998458" d="M-60.15-188.35q.6-29.7 23.5-28.85-16.4 9.3-14.3 33.1l-.95-.25h-.25q-5.95-1.5-8-3.95v-.05.05q2.05 2.45 8 3.95-1.75.4-.35 3.95l-4.75-1.9-1.75-1.65-1-.95-.8-.7-1.3-2.05 1.75-3.7.2 3" transform="translate(192.55 294)"/><path fill-rule="evenodd" fill="#ffe0ae" d="M-75.55-145.8q-.65 0-1.15-.5-.5-.45-.5-1.1 0-.7.5-1.2t1.15-.45q.65-.05 1.15.45.5.5.5 1.2 0 .65-.5 1.1-.5.5-1.15.5" transform="translate(192.55 294)"/><path fill-rule="evenodd" fill="#8a592b" d="M-43.95-175.7h.25l-.8.75q-2.15.75-5.05 1l-1.55-.95-.85-1.2.1-.1 7.9.5" transform="translate(192.55 294)"/><path fill-rule="evenodd" fill="#b89150" d="m-39.15-168.75-1.1-.2.05-.15 1.05.35" transform="translate(192.55 294)"/><path fill-rule="evenodd" fill="#f5bd62" d="m-39.75-166.1.05.05q.3.5-.75 1.05-6.35 1.35-9.7-.9-2.7-2.55-2.55-4.25h1.45l1.2.9 4.95.55q2.5 1.5 5.35 2.6m-9.15-1.4q0-.35-.3-.7l-.7-.25-.7.25-.25.7.25.55.7.35q.45.1.7-.2.3-.25.3-.7" transform="translate(192.55 294)"/><path fill-rule="evenodd" fill="#b17334" d="M-39.75-166.1q-2.85-1.1-5.35-2.6l-4.95-.55-1.2-.9h-2.05l.75-1q1.4-1.25 8.85 2.05l3.95 3" transform="translate(192.55 294)"/><path fill-rule="evenodd" fill="#fff3b5" d="M-48.9-167.5q0 .45-.3.7-.25.3-.7.2l-.7-.35-.25-.55.25-.7.7-.25.7.25q.3.35.3.7" transform="translate(192.55 294)"/><path fill-rule="evenodd" fill="#ffd779" d="M-43.85-134.1q.9-.3 1.25.25.35.6-.05 1.75-.45 1.15-1.35 2.2-.9 1-1.8 1.35-.9.25-1.2-.3-.35-.6.05-1.7.4-1.2 1.35-2.2l1.75-1.35" transform="translate(192.55 294)"/><path stroke-width=".25" stroke-opacity=".612" stroke-linejoin="round" stroke-linecap="round" stroke="#361f0a" fill="none" d="m188.35 99.4 3.7 3.3q2.7 6 2.65 11.45l1.3-2.6-1.45-5.75 2.25 2.05.05-2.75q-2.95-4.5-7.9-9.4l-3.55-1.75-1.45 5.25q-.8 2.95-2.7 5.75-2.35 3.25-6.4 6.15l-5 1.7-1.8.5m-.1 0-4.95 1.1-1.3 1q-2.4 1.8-5.7 3.55-3.6 1.9-8.2 3.7 3.45 1.2 12.8-1.75l1.6-.55 6.4-2.4 3.15-2m22.95-1.8q0 3.1-.9 6l-1.55 2.55-1.35 1.5h-1.95l1.4-4.85q-1.4 2.75-4.2 5.5-4.2 6.3-8.3 7-1.4 1.35-2.75 2.05h-2.5q2.7-4.65 4.7-9.15-2.85.85-5.7 1.4h-.25l-.25.2q-5.75 3.75-15.2 6.55l-5.8.7h-.55q-4.6-.05-6.95-2.25-1.8-2.4-4.65-4.65-4.1-2.9-5.15-5.55-3.6.75-4.8 2.5-.9-.45 2.2-4.6-3.15 2.75-5.45 7.5l-.75-1.45 2.2-6.45q-4.8 4.95-6.1 7.6.4-7.85 5.5-14.7l-2.15 1.1q-2.85 1.2-7.4 2.6l-.05.05-.3.05.2-.15.1-.1 3.9-4.25q1.2-1.6 5.75-5.15l-7.1 1.85-2.55 2.3q-10.9 9.7-22.9 15.65 9.4-7.35 15.85-15.25 2.35-4.15 5.85-8.55l-3.1.4q-32.65 12-30.2 25.75-2.3-6.95-.9-13.75l.2-.65q.6-2.75 1.85-5.4 3.55-2.9 9.7-5.5l2.35-.95q5.9-2.3 13.75-4.4 4.45-2.1 7.55-3.95 7.05-4.3 7-7.55l7.9.35m.2 0 3.65.7q4.3-7.05 20-15.65l2.1-.35m.7-.05q4.7-.5 9.7-.05m2.8.3.7.15q10.1 3.6 12.95 18.55l1.95 3.3-.25 1m72.25 32 .25 1.05-2 45.2m36.2 3.85q6.7-3.4 10.45-9.3 3.35-7.65.3-6.1-4.9 2.8-16.9 1.75l-6.8-1.1-1.05-.15q-1.25.05-2.1 2.15l-.1.3q-.8 2.1-1.85 2.3-.5 7.1.75 9.3.15 9.95 2.85 7.6m14.45-6.75q-6.5 3.2-15.75 4.1-1.25.5-1.55-4.95m-19.65 3.1.65-2.5m-1.35 8.7 1.25-4.25m-2.75 29.9-.1 2.9q-.25 1.4.25 4.45.5 3.05.3 6.3-.2 3.2-4.35.15-4.15-3.1-3.65-8.65.45-5.6 3.35-7.1 2.9-1.55 3.55-.55.6.95.65 2.5M237.6 139.1l-2.7 30.85v.65m-.65 3.5 1.25-1.8m-1.35 5.95.8-1.15m-1.2 6.8.7-1.15m25.25 65.3-2.9-.9M276 163.3q1.95-6.6 4.15-5.35m-147.75-52.3v.05q2.05 2.45 8 3.95m.25 0 .95.25m-23.05-2.35-4.15 1.35m-5.95-11.7q4.15-1.4 7.55-2.75 5.1-2.1 8.4-4.2m-18.1 12.6 5.4-.75m-26.75 6.5q2.45-1.45 6.8-2.7 5.7-1.65 14.55-3.05m45.1 12.3 9.35-.35 2.25-.4m.8 6.7q2.95-1.45 4.8-3.15m-17.2-2.8-10.45-1.2-.75 1.4m8.4 2.95h.25l-.8.75q-2.15.75-5.05 1l-1.55-.95m39.4-4.45q.75-2.75 1.2-5.5m-49.5-15.65q.4-2.45 1.15-4.6l1.05-2.15m-2.65 14.2-.05-.95-7.15.6-10.1 1.1m17.4.95-.1-1.7-4.9 3.55m4.85-4.5q0-3.55.5-6.5m0 15.6-.05 2.1.05.45q.15 1.45.7 2.85m.3-.05v-4.4l-1-.95-.8-.7-1.3-2.05 1.75-3.7.2 3m1.15 4.4 1.75 1.65 4.75 1.9m-5.4 3.7-1.25-2.3-.15-.5m-7.65-2.95q1.6-.9 3.55-1.6m-2.2-5.2-1.3.95m6.25 12-.8-.25-1.45-2.3-3.45 3.5m4 .4 1.7-1.35.95.35 3 .8-1-1.3m4.6-1.1-.4-.4.3-.6h.2m-6.15-.45.15-.55m-.7 3.6-.35 1.8.3 1.3m6.65-4.7.75.85.5.5 7.9.5m-18.95-3.15q-.9-1.85-.9-3.75m12.95-1.45.2.05 7 1m-7.95 2.95-.9-.35m.55 4.3-.4-.6m13.2 7.95-1.05-.35q6.8-1.6 11.25-3.7m-10.75 6.75-.05-.05q-2.85-1.1-5.35-2.6l-4.95-.55-1.2-.9h-1.45m2.55 4.25q3.35 2.25 9.7.9m.75-1.05 2.8 1m-18.4-5.55.5.45h2.1m-2.1 0 .5.5m43.25 2.85q-1.8 2.9-3.65 4.65m-6.5-5.7-.25.05q-5.15.8-10.25.25l-1.85-.3q-2.9 0-5.6-.9m5.6.9 2.4-.15q4.65-.5 9.85-2.95m6.05 1.7q2.25-5.2 3.55-10.1m10.55.25q-2.65 6-5.25 9.95"/><path stroke-width=".25" stroke-opacity=".4" stroke-linejoin="round" stroke-linecap="round" stroke="#351e0a" fill="none" d="M168.05 113.3h-.1m-75.6-10.75.85-.55q.6-.15 1-.5l.5.1m36.2-15.55h.2m36.15-15.4h.1l2.7.3m-8.4.95q2.15-1.3 5.6-1.25m-10.55 6-.8.15.8-.05v-.1l.15-.4-.95.55q-22.9-.85-23.5 28.85m8 4h.25m.95.25q-2.1-23.8 14.3-33.1l.6.35.2-.4 1.7-.2q.85-3.25 3.25-4.65m8.05 7.2q7.15 5.8 9.8 23.3 2-.2 1.75 2.55M169.7 79.1q-4.7-3.7-11.3-2.55m-52.1 26.3q-1.45-1.2.5-2.7l2.65-1.8 4.2-1.55 4.05-1.25 4.1-1.55q1.85-.7 3.3-2.15l5.8-5.8M91.75 105.9v-2.3l.15-.45.45-.6M165.2 91.5q-2.2-10.4-8.7-14.35-4.15 12.1-3.4 33.35v.3l-.85.05q-1.1.6-.85 4.3m15.35-9.35-.25-4.55q-.4-5.5-1.3-9.75m1.55 14.3v4.05l.15.3.9.2m.25 2.95q.25-2.3-.25-2.95M132.55 93.5q-.55.65-2.3 1.4l-3.1 1.45q-.85.45-1.7 2.7l-.55 1.55m15.15 13q-1.4-3.55.35-3.95m1.5.35-.3-.1.1.05"/><path stroke-width=".25" stroke-opacity=".353" stroke-linejoin="round" stroke-linecap="round" stroke="#ff0303" fill="none" d="M158 116.55h1.3m-23.05-3.25-1.1-1.4m18.5 5.05 2.4-1.2"/><path fill-rule="evenodd" fill="#d2ba82" d="m-44.4-243.4 3.05 1.7q7.1 4.15 14.4 10.5 3.45 7 4.55 16.6l3.35-5.65q1.05-4.75 1.25-9.6l1.35 1.4q2.65 7.75 2.05 15-1.9 2-4.1 3.65l5.35 2.15q4.35 5.75 6.8 13.6v2.3q-2.8-5.6-8.35-10.7l-3.35-1.9q3.05 4.6 3.55 10-.45 8.8-2.45 17.85-.55.35-1.2.65l-.15-10.6-3.7-17.9.3-.05 2.05-2.05v-3.8l-1.45-2.8-1.25-.8-.05-.75-.3.5-.85-.5-2.05 1.15-2.1-4-.05-.1q1.6 2.15.95-1.6l-4.05-10.5q-15.7-14.25-13.55-13.75m21.45 38.3.25.35-5.6 6.65-3.8 1.25q2.55-5.85-3.65-5.7l3.2-1.45 4.55-4.6h1.85l.25.15 1.6 1.2 1.35 2.15m-3.05-4.2-4-.95q2.5.4 1.3-.9l-.1-.05-.65-.25-5.85-4.25q-2.55-4.2.85-5.15l8.85 7.45-.1.6.7 2-.75 1.6-.25-.1m7.95 4.95-1.6-2.1 1.6 2.1m-.45-5.45-1.15.75 1.15-.75" transform="translate(192.55 294)"/><path fill-rule="evenodd" fill="#fff" d="m-22-204.35-.05-.25.35.2-.3.05m-.35-9.5-.35-.25.3-.5.05.75" transform="translate(192.55 294)"/><path fill-rule="evenodd" fill="#5c4510" d="m-22.05-204.6-.9-.5-1.35-2.15-1.6-1.2-.1-.15-.05-.05.05-.65.25.1.75-1.6-.7-2 .1-.6v-.05l2.05-1.15.85.5.35.25 1.25.8 1.45 2.8v3.8l-2.05 2.05-.35-.2" transform="translate(192.55 294)"/><path fill-rule="evenodd" fill="#fbf3e3" d="M-32.1-196.85q-8.1 2.3-16.6 1.2v-.95l12.95-5.95q6.2-.15 3.65 5.7m2.1-13.4-.25-.1-7.05-5.7-16.1-10.45.55-.5 4.35 1.05q7.75 2.05 13.6 4.75l.45.35q-3.4.95-.85 5.15l5.85 4.25.65.25.1.05q1.2 1.3-1.3.9m2.25-7.3q-2.9-5.75-5.1-11.3l-13.95-14.5.1-1.25 2.3 1.2q-2.15-.5 13.55 13.75l4.05 10.5q.65 3.75-.95 1.6" transform="translate(192.55 294)"/><path stroke-width=".25" stroke-opacity=".612" stroke-linejoin="round" stroke-linecap="round" stroke="#361f0a" fill="none" d="m148.15 50.6 3.05 1.7q7.1 4.15 14.4 10.5 3.45 7 4.55 16.6l3.35-5.65q1.05-4.75 1.25-9.6l1.35 1.4q2.65 7.75 2.05 15-1.9 2-4.1 3.65l5.35 2.15q4.35 5.75 6.8 13.6v2.3q-2.8-5.6-8.35-10.7l-3.35-1.9q3.05 4.6 3.55 10-.45 8.8-2.45 17.85-.55.35-1.2.65l-.15-10.6-3.7-17.9-.05-.25-.9-.5.25.35-5.6 6.65-3.8 1.25q-8.1 2.3-16.6 1.2v-.95l12.95-5.95L160 90l4.55-4.6h2l-.05-.05.05-.65-4-.95-.25-.1-7.05-5.7-16.1-10.45.55-.5 4.35 1.05q7.75 2.05 13.6 4.75l.45.35 8.85 7.45v-.05l-2.1-4m-.05-.1q-2.9-5.75-5.1-11.3l-13.95-14.5.1-1.25 2.3 1.2m18.4 34.1.25.1.75-1.6-.7-2 .1-.6m2.9-.7.35.25-.05-.75m-.3.5-.85-.5-2.05 1.15m3.25-.4 1.25.8 1.45 2.8v1.2l1.15-.75m-1.15 3.35 1.6 2.1m-1.6-4.7v2.6l-2.05 2.05-.35-.2m-3.85-3.85 1.6 1.2 1.35 2.15m-3.2-3.5.25.15-.1-.15"/><path fill-rule="evenodd" fill-opacity=".263" fill="#f4d163" d="M25.95-149.1q6.25 23.6-13.6 30.35 12.6-17.35 7.75-36.2 3.2.95 5.85 5.85m9.7 47.4q3.6 16.1 4.85 31.95l-.2.5q-6.85 14.6-24.45 22.95 11.5-15.35 8.55-34.85 6.4-8.45 4.1-32.05l7.15 11.5M1.1-128.8q.9 23.9-13.6 30.4 10.85-17.7 7.65-33.6l5.95 3.2m43.25 64.4L32.1-45.45l-8.65 5.4 4.05-9.05.15-.15q8.7-9.25 14.6-19.3l2.1 4.15M20.1-89.5l4.8-27.5 1.5-2.7q-1 16.4-6.3 30.2" transform="translate(192.55 294)"/><path fill-rule="evenodd" fill-opacity=".122" fill="#f7d663" d="m56.75-163.6-2.7 1.2 5.55-12.2 1.55 6.05-4.4 4.95m-1.8-3.8-8.15 10.1-13.4 5.7q6.35-4.85 5.65-10.35 11.3-2.95 16.6-10.5l2.8-6.4.85 3.25-4.35 8.2" transform="translate(192.55 294)"/><path stroke-opacity="0" stroke-linejoin="round" stroke-linecap="round" stroke="#f0f" fill="none" d="M187.95-293.5v380h-380v-380h380" transform="translate(192.55 294)"/><path stroke-opacity="0" stroke-linejoin="round" stroke-linecap="round" stroke="#f0f" fill="none" d="m187.95-293.5-190 190 190 190m-380-380 190 190L-192 86.5M92.95-38.4H-97" transform="translate(192.55 294)"/></g></defs><path fill="none" d="M-1-1h267v284H-1z"/><g><use x="115.923" y="246.822" xlink:href="#h" width="381" transform="translate(-192.55 -294)" height="381"/><use x="77.282" y="164.548" xlink:href="#i" width="100" transform="matrix(1.5 0 0 1.5 -127.75 -213.2)" height="40"/></g></svg>