<svg width="166" height="154" xmlns="http://www.w3.org/2000/svg" xmlns:xlink="http://www.w3.org/1999/xlink"><defs><g id="w" stroke-opacity="0" stroke-linejoin="round" stroke-linecap="round" stroke="#f0f" fill="none"><path d="M187.95-293.5v380h-380v-380h380" transform="translate(192.55 294)"/><path d="m187.95-293.5-190 190 190 190m-380-380 190 190L-192 86.5M92.95-38.4H-97" transform="translate(192.55 294)"/></g><g transform="translate(37.6 41.5)" id="y"><use xlink:href="#a" width="10.6" transform="matrix(.9297 -.3624 .3624 .9297 15.07 -8.699)" height="9.4"/><use xlink:href="#a" width="10.6" transform="matrix(.9386 -.342 .342 .9386 1.918 -1.348)" height="9.4"/><use xlink:href="#a" width="10.6" transform="translate(-9 1.6)" height="9.4"/><use xlink:href="#b" width="17.85" transform="matrix(.9255 .0445 -.0271 .8846 10.726 -22.747)" height="19.05"/><use xlink:href="#c" width="22.5" transform="matrix(.9427 .1653 -.1643 .9828 6.175 -28.407)" height="23.55"/><use xlink:href="#b" width="17.85" transform="matrix(1.4676 .0706 .0057 1.6277 -2.29 -32.977)" height="19.05"/><use xlink:href="#c" width="22.5" transform="matrix(1.5396 .27 -.2684 1.605 -12.467 -38.196)" height="23.55"/><use xlink:href="#b" width="17.85" transform="matrix(2.1936 .2737 -.1179 2.2539 -20.507 -41.525)" height="19.05"/><use xlink:href="#c" width="22.5" transform="matrix(1.5819 .2775 -.0466 1.6439 -25.55 -35.887)" height="23.55"/><use xlink:href="#b" width="17.85" transform="matrix(1.9713 -.1432 .394 2.0015 -31.756 -29.483)" height="19.05"/><use xlink:href="#c" width="22.5" transform="matrix(1.1755 .2062 -.0318 1.1203 -31.002 -19.233)" height="23.55"/><use xlink:href="#b" width="17.85" transform="matrix(1.3245 -.0962 .2648 1.3447 -34.533 -12.631)" height="19.05"/><use xlink:href="#d" width="27.3" transform="translate(-37.6 -5.55)" height="26.9"/></g><g id="q"><path fill-rule="evenodd" fill="#4d442f" d="m-4.35-.8.75 3.5q1 .1 1.55-.65l2.85-.9L3.4.8q.7.1 1.4-.7l-.85-3.05Q.25-3.6-4.35-.8" transform="translate(5.3 4.7)"/><path stroke-width=".05" stroke-linejoin="round" stroke-linecap="round" stroke="#805822" fill="none" d="m.95 3.9.75 3.5q1 .1 1.55-.65l2.85-.9 2.6-.35q.7.1 1.4-.7l-.85-3.05Q5.55 1.1.95 3.9z"/><path fill-rule="evenodd" fill="#d3be88" d="M4.05 3.3h.3q.6-2.25-.05-5.45l-.9-.05q.6 2.1.65 5.5" transform="translate(5.3 4.7)"/><path fill-rule="evenodd" fill="#fffbd6" d="m4.35 3.3.3-.1q.9-2.1.6-4.35l-.95-1q.65 3.2.05 5.45" transform="translate(5.3 4.7)"/><path fill-rule="evenodd" fill="#c1ac76" d="M3.4-2.2q-.55.1-1.35.6Q3.1.3 3.5 2.95l.55.35Q4-.1 3.4-2.2" transform="translate(5.3 4.7)"/><path stroke-width=".05" stroke-linejoin="round" stroke-linecap="round" stroke="#805822" fill="none" d="M8.7 2.5q-.55.1-1.35.6Q8.4 5 8.8 7.65l.55.35h.25m.05 0 .3-.1q.9-2.1.6-4.35l-.95-1-.9-.05.95 5.5z"/><path fill-rule="evenodd" fill="#d3be88" d="m-2.05 4.6.15-.25Q-2 1.8-1.3 0-3-.95-3.85-.5q.1 3.65 1.25 5.2-.7-3.9-.3-4.8l.85 4.7" transform="translate(5.3 4.7)"/><path fill-rule="evenodd" fill="#fffbd6" d="M-2.05 4.6-2.9-.1q-.4.9.3 4.8l.55-.1" transform="translate(5.3 4.7)"/><path fill-rule="evenodd" fill="#c1ac76" d="M-2.6 4.7Q-3.75 3.15-3.85-.5q-.55.2-.75.9.15 2.2 1.6 4.2l.4.1" transform="translate(5.3 4.7)"/><path stroke-width=".05" stroke-linejoin="round" stroke-linecap="round" stroke="#805822" fill="none" d="M1.45 4.2q.85-.45 2.55.5-.7 1.8-.6 4.35l-.15.25m-1.8-5.1q-.55.2-.75.9.15 2.2 1.6 4.2l.4.1.55-.1"/><path fill-rule="evenodd" fill="#756847" d="M-4.1 1.3q.9-.65 2.2-.65l-.15-3.2.7 3Q-.5.05.7-.25L2.8-.4l-.7-3.4.4.15L4-.9l1.3.05Q5.05-2.7 4-4.25q-.75-.75-1.9-.2-2.2.95-4.55.85-2 .15-2.8 1.35L-4.5-.6l.4 1.9" transform="translate(5.3 4.7)"/><path fill-rule="evenodd" fill="#4d442f" d="m-5.25-2.25-.05.65q.05 1.35.85 3.1l.35-.2-.4-1.9-.75-1.65M-1.9.65l.25.05.3-.25-.7-3 .15 3.2M2.8-.4 4-.9 2.5-3.65l-.4-.15.7 3.4" transform="translate(5.3 4.7)"/><path stroke-width=".05" stroke-linejoin="round" stroke-linecap="round" stroke="#332d1f" fill="none" d="M.05 2.45 0 3.1q.05 1.35.85 3.1L1.2 6q.9-.65 2.2-.65l.25.05.3-.25q.85-.4 2.05-.7l2.1-.15 1.2-.5 1.3.05Q10.35 2 9.3.45 8.55-.3 7.4.25q-2.2.95-4.55.85-2 .15-2.8 1.35z"/></g><g id="b"><use xlink:href="#e" width="17.85" height="19.05"/><use xlink:href="#f" width="17.85" height="19.05"/></g><g id="f"><path fill-rule="evenodd" fill-opacity=".502" fill="#3f4622" d="m6-6.95-.05-.15.15.15H6" transform="translate(8.95 9.55)"/><path fill-rule="evenodd" fill="#7c562f" d="M-6.35 6.65h.05v.05l-.05-.05" transform="translate(8.95 9.55)"/><path fill-rule="evenodd" fill-opacity=".502" fill="#a69d87" d="m3.8-8.65-5.9.3q-2.35.85-3.55 2.45-1.8 2.4-1.85 1.35-.05-.85 1.6-2.6 2.45-2.4 5.9-2.4l1.15.1.4.05q1.2.2 2.25.75" transform="translate(8.95 9.55)"/><path fill-rule="evenodd" fill-opacity=".2" fill="#544418" d="M6-6.95h.1l.2.2Q8.2-4.7 8.7-2l.15 1.2.05.8q0 3.9-2.6 6.7L4.5 8.25l-.4.2q-1.3.7-2.7.95L0 9.5q-3.7 0-6.3-2.8v-.05Q-2 8.9.2 8.4q3.2-.75 5.05-3.1 1.5-1.9 1.8-5.9Q7.3-3.5 6-6.95" transform="translate(8.95 9.55)"/><path stroke-width=".05" stroke-opacity=".302" stroke-linejoin="round" stroke-linecap="round" stroke="#55341d" fill="none" d="m15.05 2.6-.15-.15-.05-.05-.95-.75L12.75.9m-9.7 1.5Q5.5 0 8.95 0l1.15.1.4.05q1.2.2 2.25.75m-9.7 1.5-.4.35v.05Q0 5.6 0 9.55l.05.95q.3 3.3 2.55 5.7M15.05 2.6l.2.2q1.9 2.05 2.4 4.75l.15 1.2.05.8q0 3.9-2.6 6.7l-1.8 1.55-.4.2q-1.3.7-2.7.95l-1.4.1q-3.7 0-6.3-2.8l-.05-.05"/><path fill-rule="evenodd" fill-opacity=".153" fill="#544418" d="M5.75 4.15q-.7 3.5-4 4.9.1-7.1-2.9-9.2-3.6-2.55-7.7-1.4Q-7.35-5.2-2.8-5.3 1.6-5.4 4-2.35q2.4 3 1.75 6.5" transform="translate(8.95 9.55)"/><path fill-rule="evenodd" fill-opacity=".153" fill="#544418" d="M6.25.95Q5 2.9 1.4 2.9 4.15 2.15 6.25.95m-1.9 5.2q-1.3 1.5-4.4.25l4.4-.25M.95-.55Q1.3-3.5 4.8-4.4 2.45-2.7.95-.55M-2.7-2.4q.15-3.3 3.55-4.4-2.2 1.95-3.55 4.4" transform="translate(8.95 9.55)"/><path fill-rule="evenodd" fill-opacity=".302" fill="#a69d87" d="M5.45-3.95Q3.1-2.55.9.1q1.9-4.2 4.55-4.05M4.3 6.3q-1.8 2.1-4.35.2l4.35-.2m1.9-4.85Q4.95 4 1.35 3.3 4.1 2.8 6.2 1.45m-4.7-8.3Q-.85-4.75-2.75-1.5q1.3-4.65 4.25-5.35m4-.8q-1.05.05-2 .85l.2-.45q.75-1.25 1.8-.4M8.75-2.3q-.95-.2-2.05.5l.4-.5q1-1.05 1.65 0m-.7 6.55q-.85-.15-2 .4l.4-.35 1.6-.05" transform="translate(8.95 9.55)"/><path fill-rule="evenodd" fill="#64543a" d="M4.9-3.7Q4.55-5.15 6-5.1l1.45 2q.4 1.7-1.2 1.3Q5.8-3.25 4.9-3.7m-7.8-2.95q-1.3-.5-.25-1.7L-.6-8.5q1.5.5.1 1.7l-2.4.15M5.7 3.4Q6.7 2 7.55 3q.05.85-.8 2.45Q5.65 7 5 5.7q.9-1.4.7-2.3" transform="translate(8.95 9.55)"/></g><g id="c"><use xlink:href="#g" width="22.5" height="23.55"/><use xlink:href="#h" width="22.5" height="23.55"/></g><g id="h"><path fill-rule="evenodd" fill-opacity=".2" fill="#544600" d="M8.4-7.85h.05L9.7-6.1l1.55 6.05V0L9.4 6.5 7.95 8.25q-2.75 2.9-6.45 3.4Q9.8 6.6 7.25-.1 4.75-6.8 8.4-7.85" transform="translate(11.25 11.75)"/><path fill-rule="evenodd" fill-opacity=".2" fill="#fff2c8" d="M-9.4 6.5-11.25 0v-.05L-9.4-6.5l1.45-1.85q2.9-3.05 6.85-3.4l-.1.05q-11.7 7-5 21.5l-1.75-1.55L-9.4 6.5" transform="translate(11.25 11.75)"/><path stroke-width=".05" stroke-opacity=".302" stroke-linejoin="round" stroke-linecap="round" stroke="#57240d" fill="none" d="M22.5 11.7v.05l-1.85 6.5-1.45 1.8q-2.75 2.9-6.45 3.4l-1.5.1q-3.5-.05-6.2-1.95L3.3 20.05l-1.45-1.8L0 11.75v-.05M10.05.05h.1l1.1-.05 1.5.1q3.7.45 6.45 3.35l.45.45"/><path fill-rule="evenodd" fill-opacity=".2" fill="#fff2c8" d="M3.95-2.6q-7-1.65-13.1.3-.6-1.8.65-2.2 3.95-3.3 12.1-.3 2.75 1.4.35 2.2" transform="translate(11.25 11.75)"/></g><g transform="translate(13.3 9.4)" id="d"><use xlink:href="#i" width="8.2" transform="matrix(-.6707 .0094 .1435 .6148 12.542 -3.441)" height="10.15"/><use xlink:href="#i" width="8.2" transform="matrix(.5547 .3005 -.365 .472 -6.887 -9.387)" height="10.15"/><use xlink:href="#j" width="19.2" transform="translate(-10.5 -1.5)" height="12.75"/><use xlink:href="#k" width="20.65" transform="matrix(.9849 .1699 -.1699 .9849 -10.98 .495)" height="13.7"/><use xlink:href="#l" width="20.9" transform="translate(-10.1 -4.7)" height="19.7"/></g><g id="i"><use xlink:href="#m" width="8.2" height="10.15"/><use xlink:href="#n" width="8.2" height="10.15"/></g><g id="n"><path fill-rule="evenodd" fill="#8a7100" d="M3.85-.5v.3L2 .55v-.3L3.85-.5" transform="translate(4.35 6.1)"/><path fill-rule="evenodd" fill="#dfb700" d="M-4.05.1-4.1.05l-.1-.35Q-1.9 1 2 .25v.3h-.05q-3.75.7-6-.45" transform="translate(4.35 6.1)"/><path stroke-width=".05" stroke-opacity=".302" stroke-linejoin="round" stroke-linecap="round" stroke="#57230c" fill="none" d="m4.3.1 1.6.75Q7.4 2 7.95 4.05L8.2 5.6v.3l-.4 1.95Q7.1 9.5 5.65 10m.7-3.65q-3.9.75-6.2-.55m.15.4q2.25 1.15 6 .45h.05L8.2 5.9M5.65 10l-.2.05q-1.6.4-3.15-.75Q.8 8.2.3 6.2m-.15-.4q-.4-1.9.3-3.5Q1.15.55 2.8.15L4.3.1.15 5.8z"/><path fill-rule="evenodd" fill-opacity=".353" fill="#7a6d51" d="M3.8-.5 1.95.25Q1.7-3.05-.1-6q.8.15 1.6.75Q3-4.1 3.55-2.05L3.8-.5m0 .3-.4 1.95Q2.7 3.4 1.25 3.9q.65-1.35.7-3.35L3.8-.2" transform="translate(4.35 6.1)"/><path fill-rule="evenodd" fill="#fffaeb" d="M-3.8-2.8q-.05-2.4 2.25-2.75.7.65.15.8-.6.1-1.9 2.25l-.5-.3" transform="translate(4.35 6.1)"/></g><g id="j"><path fill-rule="evenodd" fill="#b5b396" d="m8.7 4.65-2.4 6.6q-2 0-2.9-1.5-1.85-1.1-5.3-2.5-4.15-1.7-4.95-1.35-1.45 0-2.6-1.6l2.4-5.75Q.35-1.9 8.7 4.65" transform="translate(10.5 1.5)"/><path stroke-width=".05" stroke-linejoin="round" stroke-linecap="round" stroke="#878570" fill="none" d="m19.2 6.15-2.4 6.6q-2 0-2.9-1.5-1.85-1.1-5.3-2.5-4.15-1.7-4.95-1.35-1.45 0-2.6-1.6L3.45.05q7.4-.45 15.75 6.1z"/><path fill-rule="evenodd" fill="#d3be88" d="m-8.8 10.7-.5-.1h-.05Q-9.95 6-7.9 0l1.7.05q-1.7 4-2.6 10.65" transform="translate(10.5 1.5)"/><path fill-rule="evenodd" fill="#fffbd6" d="m-9.35 10.6-.5-.3Q-11.1 6.05-10 1.7-9.1.3-7.9 0q-2.05 6-1.45 10.6" transform="translate(10.5 1.5)"/><path fill-rule="evenodd" fill="#c1ac76" d="M-6.2.05Q-5.05.4-3.65 1.6-6.2 5-7.6 10.1q-.55.6-1.2.6.9-6.65 2.6-10.65" transform="translate(10.5 1.5)"/><path stroke-width=".05" stroke-linejoin="round" stroke-linecap="round" stroke="#805822" fill="none" d="M4.3 1.55q1.15.35 2.55 1.55Q4.3 6.5 2.9 11.6q-.55.6-1.2.6l-.5-.1m-.05 0-.5-.3Q-.6 7.55.5 3.2q.9-1.4 2.1-1.7l1.7.05L1.15 12.1z"/></g><g transform="translate(10.35 6.85)" id="k"><use xlink:href="#o" width="7.15" transform="translate(-10.35 -6.85)" height="6.95"/><use xlink:href="#o" width="7.15" transform="rotate(-41.356 -5.527 13.073) scale(1.3353)" height="6.95"/><use xlink:href="#o" width="7.15" transform="matrix(.7624 -1.095 1.095 .7624 -5.051 1.53)" height="6.95"/><use xlink:href="#o" width="7.15" transform="rotate(-58.653 .602 -.472) scale(.9969)" height="6.95"/></g><g id="u"><path fill-rule="evenodd" fill="#e8d9c1" d="m-.5 1.15-.5.1-.75.15Q-5.1 2.45-6.4 6.95q-.75-.1-.75-.9 0-.95.7-2.8Q-5.8 1.4-4.6.8-3.35.2-2.4 0l.65.05.1.05Q-1.1.3-.5 1.15" transform="translate(7.15)"/><path fill-rule="evenodd" fill="#fff" d="M-6.4 6.95q1.3-4.5 4.65-5.55l.75-.15.5-.1.35.75q.4 1.05-.3 1.65l-.7.4-.6.2q-1.25.6-2.3 1.6-1.3 1.2-2.2 1.2h-.15" transform="translate(7.15)"/><path stroke-width=".05" stroke-linejoin="round" stroke-linecap="round" stroke="#b08744" fill="none" d="M5.5.1 5.4.05 4.75 0q-.95.2-2.2.8-1.2.6-1.85 2.45Q0 5.1 0 6.05q0 .8.75.9"/><path stroke-width=".05" stroke-linejoin="round" stroke-linecap="round" stroke="#2d2d2d" fill="none" d="M.75 6.95H.9q.9 0 2.2-1.2 1.05-1 2.3-1.6l.6-.2.7-.4"/></g><g id="l"><path fill-rule="evenodd" fill="#d3be88" d="m2.85 14.65-.25-.5q.85-4.95-.1-8.65Q6 4.1 7.6 5.1 6.5 12.3 3.95 15 6.2 7.55 5.6 5.75l-2.75 8.9" transform="translate(10.1 4.7)"/><path fill-rule="evenodd" fill="#fffbd6" d="m2.85 14.65 2.75-8.9q.6 1.8-1.65 9.25l-1.1-.35" transform="translate(10.1 4.7)"/><path fill-rule="evenodd" fill="#c1ac76" d="M3.95 15Q6.5 12.3 7.6 5.1q1 .55 1.3 2-.95 4.2-4.15 7.8l-.8.1" transform="translate(10.1 4.7)"/><path stroke-width=".05" stroke-linejoin="round" stroke-linecap="round" stroke="#805822" fill="none" d="M17.7 9.8q-1.6-1-5.1.4.95 3.7.1 8.65l.25.5M17.7 9.8q1 .55 1.3 2-.95 4.2-4.15 7.8l-.8.1-1.1-.35"/><path fill-rule="evenodd" fill="#f6f4cb" d="M7.7 8.7Q6.15 7.2 3.55 6.95L4.6.7 2.45 6.45q-1.5-1.05-3.8-1.9-2.85-1.05-4-.75l2.15-6.45-.75.15-3.7 4.95-2.45-.2q.85-3.55 3.35-6.3l3.65.1q4.05 2.4 8.75 2.8 3.85.65 5.15 3.2l-1.95 3.1L7.7 8.7" transform="translate(10.1 4.7)"/><path fill-rule="evenodd" fill="#b5b396" d="m10.8 2.05-.15 1.35q-.35 2.55-2.4 5.85L7.7 8.7l1.15-3.55 1.95-3.1m-7.25 4.9L3 6.9l-.55-.45L4.6.7 3.55 6.95m-8.9-3.15q-1.3-.95-2.3-1.35l3.7-4.95.75-.15-2.15 6.45" transform="translate(10.1 4.7)"/><path stroke-width=".05" stroke-linejoin="round" stroke-linecap="round" stroke="#878570" fill="none" d="m20.9 6.75-.15 1.35q-.35 2.55-2.4 5.85l-.55-.55q-1.55-1.5-4.15-1.75l-.55-.05-.55-.45q-1.5-1.05-3.8-1.9-2.85-1.05-4-.75-1.3-.95-2.3-1.35L0 6.95Q.85 3.4 3.35.65"/></g><use xlink:href="#p" width="100" height="40" id="x"/><use xlink:href="#q" width="10.6" height="9.4" id="a"/><use xlink:href="#r" width="17.85" height="19.05" id="e"/><use xlink:href="#s" width="22.5" height="23.55" id="g"/><use xlink:href="#t" width="8.2" height="10.15" id="m"/><use xlink:href="#u" width="7.15" height="6.95" id="o"/><path fill-rule="evenodd" fill-opacity="0" fill="#f0f" d="M100 40H0V0h100v40" id="p"/><path fill-rule="evenodd" fill="url(#v)" d="M6-6.95h.1l.2.2Q8.2-4.7 8.7-2l.15 1.2.05.8q0 3.9-2.6 6.7L4.5 8.25l-.4.2q-1.3.7-2.7.95L0 9.5q-3.7 0-6.3-2.8v-.05h-.05Q-8.6 4.25-8.9.95L-8.95 0q0-3.95 2.65-6.75v-.05l.4-.35q2.45-2.4 5.9-2.4l1.15.1.4.05q1.2.2 2.25.75l1.15.75.95.75.05.05.05.15" transform="translate(8.95 9.55)" id="r"/><path fill-rule="evenodd" fill="#c68b35" d="m7.95-8.3.5.5q2.8 3.3 2.8 7.8 0 4.85-3.3 8.3-2.75 2.9-6.45 3.4l-1.5.1q-3.5-.05-6.2-1.95L-7.95 8.3q-3.3-3.45-3.3-8.3 0-4.85 3.3-8.3 2.9-3.05 6.85-3.4l1.1-.05 1.5.1q3.7.45 6.45 3.35" transform="translate(11.25 11.75)" id="s"/><path fill-rule="evenodd" fill="#fcf8e4" d="M1.8-4.25q1.5 1.15 2.05 3.2L4.1.5l-1.85.75Q-1.65 2-3.95.7q-.4-1.9.3-3.5.7-1.75 2.35-2.15L.2-5l1.6.75M4.1.8l-.4 1.95Q3 4.4 1.55 4.9l-.2.05q-1.6.4-3.15-.75-1.5-1.1-2-3.1 2.25 1.15 6 .45h.05L4.1.8" transform="translate(4.1 5.1)" id="t"/><path stroke-width=".5" stroke-linejoin="round" stroke-linecap="round" stroke="#000" fill="none" d="m50.95 8.4-6.5 4.65q-1.1.75-3.15 3.7l-.05.1.05-.1-.4.45v.05l-1.35.85-1.85.35-1.45.25q-4.55 1.1-8.55 3.55l-4.2 3.15q-.7.15-2.15 1.9l-.05.1-.25.25-.35.45.25-.35-1.2 1.25-.05.1-.6.65-.75.85q-3.8 4.65-6.1 10-1.75 1.85-3.3 4.2l-.15.25-.2.25-.5.85h-.05q-1.4 2.45-2.3 5v.1q-3.45 4.1-4.55 9.2l-.45.6.35-.1-.15.65-.25 2.8v1.8q.05 5.15 2.35 9.25l-.2.35.35-.1.25.55-.6.9v.1l-.25.35-.05.25Q.1 82.75.25 88.15l.6.5.6.35q.85.15 1.7-.45 1.5-2.7 3.25-4.8 1.55.6 4.85 3.05 3.55 2.5 5.5 4.4-.8 2.75-2.05 5.75l.15.65q.35.7 1.3.85l1.1.1q3.8-2.55 6.15-6v.05l.5-.5.85.7.15.05 1.45.85q4.55 2.65 9.8 3.4l-.15.25h.05q-2.35 4.9-2.1 10.3l.6.5h.1l.6.35q.75.15 1.65-.5l3.15-4.9q1.5.6 4.9 3.05 3.55 2.45 5.55 4.2-.55 2.8-1.85 5.85l.2.65q.3.6 1.25.75l1.1.1q3.7-2.6 6.1-6.05l2.1-2.45 4.55 1.05.75.7.7.6.85.65-.35 1.8h-.1l-.1.65v.1q-.5 5.4 1.65 10.4l.75.25h.05l.7.1q.75-.2 1.35-1.05l1.25-5.65 5.75 1.1 6.7 2.1q.3 2.8.15 6.1l.45.6q.5.4 1.5.35.4-.1 1-.35 2.65-3.8 3.65-7.85l.5-1.1 2.45-.1q1.2.95 2.55 1.8 2 2.85 4.45 4.95l1.3.85q3.1 2.2 6.8 3.4l2.2 3.8v-.1q2.9 7.7 8.95 14.55l2.15.25q1.75.05 2.75-.95l.7-1.2-.5-3.2q1.45-1.7 3.1-4.8l.8-1.35.3 4.05q.1 6 2.3 8.3l.35.3q2 1.6 4.05-.4 2.2-2.2 5.15-8.3l1.35-3.6.5 1.6q1.5 5.8 4.2 7.5.2.1.45.25 2.3 1.1 3.8-1.35 1.45-2.45 2.7-7.95l.6.1 1.35-.25.1-.1q.65-.25 1.35-.65 1-3.75 1.4-7.45l2.2.25.35-.1q1.85-.55 1.5-2.7-.4-2.25-2.85-6.65l-1.7-2.35-.6-3.05-.15-.2q-1.85-6.5-6-11.9 2.55-.85 3.55-3.3l.4-1.25.1-1.25-.15-1.7-.35-1.1-1.2 1.35 1.2-1.35v-.2l-.15-.4-.45.6.35-.6q-.85-1.95-2.45-3.2v-.1q-.6-4.55-2.35-8.6-1.1-8.3-5.85-14.2l-.1-.15-1.5-1.8q.65-15.1-7.45-27.2l-.15-.1-1.55-2.1q-3.45-4.4-7.6-7.45l-3.55-3.45q-3-2.7-6.3-4.65-3.2-4.65-7.55-8.6l-.15-.1-2.2-1.95Q91.3-1.75 72.25.65l-6.6 1.25-2.1.5q-6.7 2.05-12.6 6z" id="z"/><linearGradient y2=".919" y1=".299" x2=".056" x1=".717" spreadMethod="pad" id="v"><stop stop-color="#a69d84" offset="0"/><stop stop-color="#9d926e" offset="1"/></linearGradient></defs><path fill="none" d="M-1-1h168v156H-1z"/><use x="88.129" y="192.876" xlink:href="#w" width="381" transform="translate(-192.55 -294)" height="381"/><use x="36.943" y="80.854" xlink:href="#x" width="100" transform="translate(-113.75 -133.55) scale(2.3855)" height="40"/><use x="-34.382" y="75.248" xlink:href="#y" width="65.95" transform="matrix(-2.5632 0 0 2.5632 79.275 -197.222)" height="62.85"/><use x="88.129" y="192.876" xlink:href="#z" width="163.15" transform="translate(-86.95 -191.75)" height="151.25"/></svg>