<svg width="168" height="228" xmlns="http://www.w3.org/2000/svg" xmlns:xlink="http://www.w3.org/1999/xlink"><defs><linearGradient y2="-.644" y1="-.644" x2=".451" x1=".025" spreadMethod="pad" id="b"><stop stop-color="#ae9b38" offset="0"/><stop stop-color="#d3c267" offset="1"/></linearGradient><linearGradient y2=".578" y1=".578" x2=".999" x1=".001" spreadMethod="pad" id="c"><stop stop-color="#6f831b" offset="0"/><stop stop-color="#826402" offset="1"/><stop stop-color="#584a01" offset="1"/></linearGradient><linearGradient y2=".526" y1=".526" x2=".673" x1=".349" spreadMethod="pad" id="d"><stop stop-color="#ae9b38" offset="0"/><stop stop-color="#d3c267" offset="1"/></linearGradient><linearGradient y2="1.504" y1="1.949" x2=".817" x1=".318" spreadMethod="pad" id="e"><stop stop-color="#6f831b" offset="0"/><stop stop-color="#826402" offset="1"/><stop stop-color="#584a01" offset="1"/></linearGradient><linearGradient y2="-.169" y1=".689" x2="2.806" x1="2.806" spreadMethod="pad" id="f"><stop stop-color="#9d8c31" offset="0"/><stop stop-color="#503830" offset="1"/><stop stop-color="#b38b33" offset="1"/><stop stop-color="#5c6426" offset="1"/></linearGradient><linearGradient y2=".959" y1=".003" x2=".729" x1=".132" spreadMethod="pad" id="g"><stop stop-color="#fdc743" offset="0"/><stop stop-color="#e88104" offset="1"/><stop stop-color="#fc9f07" offset="1"/></linearGradient><linearGradient y2="-14.999" y1="-14.999" x2="Infinity" x1="-Infinity" spreadMethod="pad" id="h"><stop stop-color="#6f831b" offset="0"/><stop stop-color="#826402" offset="1"/><stop stop-color="#584a01" offset="1"/></linearGradient><linearGradient y2="1.328" y1="1.855" x2=".787" x1=".381" spreadMethod="pad" id="i"><stop stop-color="#746d23" offset="0"/><stop stop-color="#826402" offset="1"/><stop stop-color="#584a01" offset="1"/></linearGradient><linearGradient y2=".927" y1=".076" x2=".066" x1=".933" spreadMethod="pad" id="j"><stop stop-color="#fdc743" offset="0"/><stop stop-color="#e88104" offset="1"/><stop stop-color="#fc9f07" offset="1"/></linearGradient><linearGradient y2=".893" y1="1.483" x2="1.825" x1="-.243" spreadMethod="pad" id="k"><stop stop-color="#6f831b" offset="0"/><stop stop-color="#826402" offset=".639"/><stop stop-color="#d3c267" offset=".965"/></linearGradient><linearGradient y2=".501" y1=".501" x2=".998" x1="0" spreadMethod="pad" id="l"><stop stop-color="#6f831b" offset="0"/><stop stop-color="#826402" offset="1"/><stop stop-color="#584a01" offset="1"/></linearGradient><linearGradient y2=".498" y1=".498" x2="1" x1="0" spreadMethod="pad" id="m"><stop stop-color="#6f831b" offset="0"/><stop stop-color="#826402" offset="1"/><stop stop-color="#584a01" offset="1"/></linearGradient><linearGradient y2="3.302" y1="3.302" x2="14.043" x1="-3.043" spreadMethod="pad" id="n"><stop stop-color="#6f831b" offset="0"/><stop stop-color="#826402" offset="1"/><stop stop-color="#584a01" offset="1"/></linearGradient><linearGradient y2=".329" y1=".787" x2=".776" x1=".276" spreadMethod="pad" id="o"><stop stop-color="#746d23" offset="0"/><stop stop-color="#826402" offset="1"/><stop stop-color="#584a01" offset="1"/></linearGradient><linearGradient y2="-6.324" y1="8.771" x2="44.452" x1="-12.619" spreadMethod="pad" id="p"><stop stop-color="#6f831b" offset="0"/><stop stop-color="#826402" offset="1"/><stop stop-color="#584a01" offset="1"/></linearGradient><linearGradient y2="-.09" y1=".384" x2="1.265" x1="-.316" spreadMethod="pad" id="q"><stop stop-color="#6f831b" offset="0"/><stop stop-color="#826402" offset=".639"/><stop stop-color="#d3c267" offset=".965"/></linearGradient><linearGradient y2=".505" y1=".505" x2=".995" x1=".005" spreadMethod="pad" id="r"><stop stop-color="#555814" offset=".384"/><stop stop-color="#999915" offset="1"/></linearGradient><linearGradient y2=".5" y1=".5" x2=".999" x1="0" spreadMethod="pad" id="s"><stop stop-color="#555814" offset=".384"/><stop stop-color="#999915" offset="1"/></linearGradient><linearGradient y2=".499" y1=".499" x2=".998" x1="0" spreadMethod="pad" id="t"><stop stop-color="#6f831b" offset="0"/><stop stop-color="#826402" offset="1"/><stop stop-color="#584a01" offset="1"/></linearGradient><linearGradient y2=".498" y1=".498" x2=".994" x1="-.002" spreadMethod="pad" id="u"><stop stop-color="#6f831b" offset="0"/><stop stop-color="#826402" offset="1"/><stop stop-color="#584a01" offset="1"/></linearGradient><linearGradient y2="-.644" y1="-.644" x2=".451" x1=".025" spreadMethod="pad" id="v"><stop stop-color="#ae9b38" offset="0"/><stop stop-color="#d3c267" offset="1"/></linearGradient><linearGradient y2=".578" y1=".578" x2=".999" x1=".001" spreadMethod="pad" id="w"><stop stop-color="#6f831b" offset="0"/><stop stop-color="#826402" offset="1"/><stop stop-color="#584a01" offset="1"/></linearGradient><linearGradient y2=".526" y1=".526" x2=".673" x1=".349" spreadMethod="pad" id="x"><stop stop-color="#ae9b38" offset="0"/><stop stop-color="#d3c267" offset="1"/></linearGradient><linearGradient y2="1.504" y1="1.949" x2=".817" x1=".318" spreadMethod="pad" id="y"><stop stop-color="#6f831b" offset="0"/><stop stop-color="#826402" offset="1"/><stop stop-color="#584a01" offset="1"/></linearGradient><linearGradient y2="-.169" y1=".689" x2="2.806" x1="2.806" spreadMethod="pad" id="z"><stop stop-color="#9d8c31" offset="0"/><stop stop-color="#503830" offset="1"/><stop stop-color="#b38b33" offset="1"/><stop stop-color="#5c6426" offset="1"/></linearGradient><linearGradient y2=".959" y1=".003" x2=".729" x1=".132" spreadMethod="pad" id="A"><stop stop-color="#fdc743" offset="0"/><stop stop-color="#e88104" offset="1"/><stop stop-color="#fc9f07" offset="1"/></linearGradient><linearGradient y2="-14.999" y1="-14.999" x2="Infinity" x1="-Infinity" spreadMethod="pad" id="B"><stop stop-color="#6f831b" offset="0"/><stop stop-color="#826402" offset="1"/><stop stop-color="#584a01" offset="1"/></linearGradient><linearGradient y2="1.328" y1="1.855" x2=".787" x1=".381" spreadMethod="pad" id="C"><stop stop-color="#746d23" offset="0"/><stop stop-color="#826402" offset="1"/><stop stop-color="#584a01" offset="1"/></linearGradient><linearGradient y2=".927" y1=".076" x2=".066" x1=".933" spreadMethod="pad" id="D"><stop stop-color="#fdc743" offset="0"/><stop stop-color="#e88104" offset="1"/><stop stop-color="#fc9f07" offset="1"/></linearGradient><linearGradient y2=".893" y1="1.483" x2="1.825" x1="-.243" spreadMethod="pad" id="E"><stop stop-color="#6f831b" offset="0"/><stop stop-color="#826402" offset=".639"/><stop stop-color="#d3c267" offset=".965"/></linearGradient><linearGradient y2=".501" y1=".501" x2=".998" x1="0" spreadMethod="pad" id="F"><stop stop-color="#6f831b" offset="0"/><stop stop-color="#826402" offset="1"/><stop stop-color="#584a01" offset="1"/></linearGradient><linearGradient y2=".498" y1=".498" x2="1" x1="0" spreadMethod="pad" id="G"><stop stop-color="#6f831b" offset="0"/><stop stop-color="#826402" offset="1"/><stop stop-color="#584a01" offset="1"/></linearGradient><linearGradient y2="3.302" y1="3.302" x2="14.043" x1="-3.043" spreadMethod="pad" id="H"><stop stop-color="#6f831b" offset="0"/><stop stop-color="#826402" offset="1"/><stop stop-color="#584a01" offset="1"/></linearGradient><linearGradient y2=".329" y1=".787" x2=".776" x1=".276" spreadMethod="pad" id="I"><stop stop-color="#746d23" offset="0"/><stop stop-color="#826402" offset="1"/><stop stop-color="#584a01" offset="1"/></linearGradient><linearGradient y2="-6.324" y1="8.771" x2="44.452" x1="-12.619" spreadMethod="pad" id="J"><stop stop-color="#6f831b" offset="0"/><stop stop-color="#826402" offset="1"/><stop stop-color="#584a01" offset="1"/></linearGradient><linearGradient y2="-.09" y1=".384" x2="1.265" x1="-.316" spreadMethod="pad" id="K"><stop stop-color="#6f831b" offset="0"/><stop stop-color="#826402" offset=".639"/><stop stop-color="#d3c267" offset=".965"/></linearGradient><linearGradient y2=".505" y1=".505" x2=".995" x1=".005" spreadMethod="pad" id="L"><stop stop-color="#555814" offset=".384"/><stop stop-color="#999915" offset="1"/></linearGradient><linearGradient y2=".5" y1=".5" x2=".999" x1="0" spreadMethod="pad" id="M"><stop stop-color="#555814" offset=".384"/><stop stop-color="#999915" offset="1"/></linearGradient><linearGradient y2=".499" y1=".499" x2=".998" x1="0" spreadMethod="pad" id="N"><stop stop-color="#6f831b" offset="0"/><stop stop-color="#826402" offset="1"/><stop stop-color="#584a01" offset="1"/></linearGradient><linearGradient y2=".498" y1=".498" x2=".994" x1="-.002" spreadMethod="pad" id="O"><stop stop-color="#6f831b" offset="0"/><stop stop-color="#826402" offset="1"/><stop stop-color="#584a01" offset="1"/></linearGradient><path fill-rule="evenodd" fill="url(#a)" d="M2.5 7.5Q0 6.2 0 4.4q0-1.85 2.5-3.15Q5.05 0 8.65 0q3.55 0 6.1 1.25 2.55 1.3 2.55 3.15 0 1.8-2.55 3.1-2.55 1.25-6.1 1.3-3.6-.05-6.15-1.3" id="R"/><path fill-rule="evenodd" fill-opacity="0" fill="#f0f" d="M100 40H0V0h100v40" id="P"/><g id="Q"><path fill-rule="evenodd" fill="#614f41" d="M151.85 30.3q-.1 5.55 1.5 11.6L156 56.3q-.75-11.9 3.3-25.25 8.9-12.1 22.4-10.8-22.5 5.05-22.55 29.9 20.95-15.75 35.75-11.8-18.6 1.2-31.85 22.6 10.4-10 16.05 0-8.75-6-17.5 7.85l-.5-2.75h-10.75l1.5-35.75m11.2 53.15 11.25 12h.05l2.3 2.9q2.2 2.2 3.8 4.8 1.15 1.85 1.95 3.9l-.05.05-2.25 11.25-1.3-2.65 1.3 2.65 2.25-11.25h.05q2.7 6.95 1.4 16.05-2.05 4.05-2.95 7.35-.45 1.7-.6 3.25l-.9 3.75-.9 3.85.3.15-.85 5.15.9-30.95-6.1-12.25-3.2 5.65-7.1-7.2-10 5.25-3.15-17.55-3.25 12.3-12.55 5.95q1.05-6.4 3.65-12.35v-.05q3.15-6.3 8.55-12h17.4m15.4 57.9-.05.05.05-.05" transform="translate(1.35 1.35)"/><path fill-rule="evenodd" fill="#4d3e29" d="M144.2 65.9q-2.7-23.2-17.85-40.2 8.1-7.05 19.65 25.05Q144.5 11.3 169.15 0 153 12.4 151.95 28.7l-.1 1.6-1.5 35.75-2.65-.45-3.5.3m9.15-24q2.65-6.35 5.95-10.85-4.05 13.35-3.3 25.25l-2.65-14.4m-43.55 76.95q1.3-6.2 1.75-7.35.45-1.2 1.2-1.95 2-8.15 5.55-14.1h.05q6-8.6 16.35-12h10.95q-5.4 5.7-8.55 12v.05q-2.6 5.95-3.65 12.35l-2.6 1.25-4.15-5.25q-4.45.4-7.8 1.7l-6.6 29.7.25-5.2q0-4.8-2.75-11.2M146 101.9l3.25-12.3 3.15 17.55-6.4-5.25m-5.15-17.4-8.55 10.95-.05.05-5.55 8.35 5.55-8.35.05-.05 8.55-10.95" transform="translate(1.35 1.35)"/><path fill-rule="evenodd" fill="url(#b)" d="M271.5 251.65h.1l1.15 2.85q2.5 6.3 3.75 10.8l2.4 8.9 12.55 24.8v10.15l-5.6 9.75q-27.2 14.9-10.1-15.85-15.8 14.35-17.6 8.3-7.95-.05-10.45-10.15.95-6.75 5.8-13.05 6.75-8.15 12.65-14.8-8.4-6.8-13.05-21.45h18.5l-.1-.25m-31 67-.5 5q-3.15 25.9-16.5 43.65-13.95-13.8-9.65-36.3 1.8 8.65 10.15 12.85l-1.95-12.8q4.45 5.8 10.7 9l-2.85-10.85 2.5-7 4.3.15v-7.8l3.8 4.1m-23.9-15.05q-29.7 8.35-54.15 4.6-24.45-3.8-34.1-14.55-9.65-10.75-5.85-20.15 7.25-18.25 24.8-20.85 11.95 28.05 29.7 20.75 17.7-7.35 25.05-15.85l4.8-5.65h18.35q3.3 4.9 5.75 10.55 1.15 2.6 2.1 5.45 3.2 9.45 4.15 20.75l-4.9 3.75-4.9 3.75-3.25-11.75-3.15-3.5v10.5l-4.4 12.2m-62.2-14.1q.8-6.8 9.3-6.7-8.5-.1-9.3 6.7" transform="translate(1.35 1.35)"/><path fill-rule="evenodd" fill="url(#c)" d="m285.85 318.9-5.65 9.8q-7 10.85-11.6 10.35-4.65-.55-8.8 1.2-4.2 1.7-12.85-11.25v-3.35l2.8-8.8q1.45 4.25 6 6 7.1.35 13.25-11.4 2.85-4.2 6.75-8.4-17.1 30.75 10.1 15.85" transform="translate(1.35 1.35)"/><path fill-rule="evenodd" fill="url(#d)" d="M183.8 123.15q17.35-16.5 35.9-16.65-.45 5.3-16.1 19.1l-6.1 5.15-5.75 5 5.7-12.1 12.35-12q-13.05 3.2-23.35 15.2l-1.25 1.5-2.6 5.4-1.75-3.25q.9-3.3 2.95-7.35m82.95 117.5 4.75 11 .1.25H253l-.05-.25q-4.3-12.9-5.45-32-6.9-5.6-15.3-13.3-3.1-14.2-14.8-24.9l-5.1-4.2-20.35-13.85 1.1-5.7 15.9 5.9 6.3 5 5.5 4.8q5.05 4.65 8.25 9.55l.75 1.2.25.35 2.1 4.25q7.9 8.15 14.7 17.3l.95 1.3 2.4 3.4q9.55 13.85 16.6 29.9m-218.4-99.2.8-1.7q3.75-7.15 10.15.35 3.95-16.05 13.15-2.95 2.6-12.55 8.05-3.05 1.65-4.85 4.55-5.8 2.05-.7 4.75.6l5.2 10.35.6 1.2-3.75 1.75-11.35-8.1 1.55 3.05 2.3 6.4q-5.5-8.45-11.9-6.4l2.1 6.3q-7.15-10.7-15.25-3.35 2.2 2.6 4.8 7.15-10.15-9.35-16.8-2.65l1.05-3.15m85.1-33.6L146 101.9l6.4 5.25 10-5.25 7.1 7.2 3.2-5.65 6.1 12.25-.9 30.95-.8 5.1-1.1 6.8-2.55 2.05-4.3 5.4q-.25.6-1.75 1.2-1.5.55-3.25 2.45-1.75 1.9-5.35 2.65l-7 1.6-6.75 1.1 6.75-1.1 7-1.6q3.6-.75 5.35-2.65 1.75-1.9 3.25-2.45 1.5-.6 1.75-1.2l4.3-5.4 3.35 6.3 15.95-.05q.45 1-33.55 9.1 27.95-2.95 36.75-4.9 1.65 4.4 2.3 5.4l-.05.05q-13.25 1.7-32.75 23.05l-13.85 6.7q-13.5-17.05-26-20.7 9.75-5.25 19.45-10.55l-4.6.2q-4.2-5.7 5.4-8.95l6.3-3.85-2.85-.95h-6.85q-6.7-1-1.5-4.15 7.85-1.7 13.95 1.9 2.9-1.65-.1-4.4h-11.35q-2.7-1.75-1.2-4.25l4.75-.05 9.6-5.5q-5-5.3-9.2.75-5.65 2.3-7.35.05l-3.4-4.1q6.2-7.9 12.95-2.55-.95-5.5 2.4-10.5.9-1.45 3.15-2.15 3.05-1.15 4.45-2.15 6.55-3.55 15.45-3.1-6.35-6.35-19.25 0-2 1.4-5.8 3.1-5.7 4-11.45 0-7-5.35-17.85-3.95 1.55-1.15 4.85-5.4 3.45-4.45 5.3-5.9l2.6-1.25m29.25 27.1h-2.1l1.2-.9q4.85-3.3 9.65-1.55-4.8-1.75-9.65 1.55l-1.2.9h2.1m-19.45 6.45q1.35 0 2.3-.4.95-.35.95-.9 0-.6-.95-1l-2.3-.35-2.3.35q-.95.4-.95 1 0 .55.95.9l2.3.4m-30.2 42.9q16.9 2.35 22.3 10.75 2.85 4.25-.4 10.2l-2.05-1.5q-14.95-10.85-19.85-19.45m109.85 43.2 3.6-2.45 2.65-2.3-1.15 3.35q-1.7 4.9-2.5 9.85-3.95 8.25-.65 15.7l.2.25h-18l.2-.25 7.05-8.65q4.85-6.5 8.6-15.5M65.75 168.35q2.45-3.15 6.55-3.65l.15.15.25-.2 4.15.15q-11.05 5.25-15.95 16.25v-5.65l4.85-7.05" transform="translate(1.35 1.35)"/><path fill-rule="evenodd" fill="#ac8451" d="m203.6 125.6 45.4-10.55q4.95 2.55 5.8 6.95l-57.3 8.75 6.1-5.15m-181 62.1-2.75-5.1v-10.25l-1.95-8.95q-1.3 8.85-13.75 3.65 6.4 14.6 2.5 20.25-9.05-12.7-5.8-27h6.1l7.55-2v-4.9l5.25 6.35 2.75 10.45.1 17.5m7.5-32.45 12.55-1.9 4.65-.9 4.85 1.85 3.5 3.9-4.05 1.6-1.2.5q-3.75.95-13-2.05l-7.3-3m64.9-16 11.4-2.2 5.4 7.3-16.2-3.9-.6-1.2M.85 160.3l3.3 6.75-3.3-6.75m13.65-2 2.75 2.3.65 2.8-.65-2.8-2.75-2.3" transform="translate(1.35 1.35)"/><path fill-rule="evenodd" fill="url(#e)" d="m42.65 153.35 4.3-9 .35.25q6.65-6.7 16.8 2.65-2.6-4.55-4.8-7.15 8.1-7.35 15.25 3.35 2.35 8.35 1.5 14-.65 4.55-3.35 7.2l-.4.05-5.65-5.5q-3.5 6.4-11-1l-3.5-3.9-4.85-1.85-4.65.9m63.75-16.3-1.9-2.6q-15.6-14.4-18.35-31.75 8.1-1.75 23.65 16.15 2.75 6.4 2.75 11.2l-.25 5.2 6.6-29.7q3.35-1.3 7.8-1.7l4.15 5.25q-1.85 1.45-5.3 5.9-3.3 4.25-4.85 5.4 10.85-1.4 17.85 3.95 5.75 4 11.45 0 3.8-1.7 5.8-3.1 12.9-6.35 19.25 0-8.9-.45-15.45 3.1-1.4 1-4.45 2.15-2.25.7-3.15 2.15-3.35 5-2.4 10.5-6.75-5.35-12.95 2.55l3.4 4.1q1.7 2.25 7.35-.05l-1.7 3 5.45-3.75h5.45l-9.6 5.5-4.75.05q-1.5 2.5 1.2 4.25l-8.75 1.4q-2.4 1.4.35 3 3.05-1.3 5.9-1.9-5.2 3.15 1.5 4.15h6.85l2.85.95-6.3 3.85q-9.6 3.25-5.4 8.95l-4.75-.3-12.25-5.55q-4.95-4.55-7.9-11.05l-1.45-3.7q-1.25-3.6-1.95-7.75l-.35-2.5q-.55-4.2.1-6.85l.4-2.25-.4 2.25q-.65 2.65-.1 6.85l-5.4-7.3m103.4-25.4-12.35 12-5.7 12.1-5.8 4.95-3.25 2.8-3.95-2 .6-4 .9-3.75q.15-1.55.6-3.25l1.75 3.25 2.6-5.4 1.25-1.5q10.3-12 23.35-15.2m-36.35 48.95 2.55-2.05h9.1l.8.7 3.3 2.75q5.7 4.95 9.75 9.5l3.05 3.8-.05.05-3.7 1.1q-.65-1-2.3-5.4-8.8 1.95-36.75 4.9 34-8.1 33.55-9.1l-15.95.05-3.35-6.3m8.4-21.8q2.45-1.1 2.1-2.75l-1.35-2.3 1.35 2.3q.35 1.65-2.1 2.75m-40.05 10.3 3.9-.35-3.9.35-1.3-.9-.45-.3q-3.8-2.5-5.85-3.1-3.85-1.15-1.7 4.3 3.6-2.75 7.95-.75l1.35.75m44.1 10.15-5.15.7-4.25.75 4.25 4.65v-5.4l5.15 3.75v-4.45M95.85 159l8.15-2.25v8.85l5.3-5.25 4 2.85q-18.35 7.65-33.45 23.65l-.4-4.2 4.8-3.1v-.05q0-4.4 3.45-12.5l-.6.6.6-.6 8.15-8m33.35-23.9h2.15q-5.25-6.05-11.4-1.85 6.15-4.2 11.4 1.85h-2.15m41.35 84.8q-3.05 9.3-13.6 8.55-8.55-2.6-7.7-9.2v-.05l1.6-6.1q9.1-7.55 17.05-3.3 3.2 4.45 2.65 10.1m27.65-43.4q-7.05 2.45-12.65 7.15-3.9 3.2-7.05 7.5l-.5.7q-3.75 5.2-6.55 11.95l-1.55 2.65q-5.35-3.4-13.3-1.7-2.4.5-5 1.5l13.85-6.7q19.5-21.35 32.75-23.05M66.65 159.2q-.2-3.85-1.3-9.7l-1.25-2.25 1.25 2.25q1.1 5.85 1.3 9.7m43.3-23.25q-2.05-1.2-1.25-3.4l1.35-4.05q-7.6-17.5-18.95-21.75 11.35 4.25 18.95 21.75l-1.35 4.05q-.8 2.2 1.25 3.4" transform="translate(1.35 1.35)"/><path fill-rule="evenodd" fill="#6a4a2f" d="M254.8 122q.8 4-1.95 9.55l-66.9 9.15 5.8-4.95 5.75-5 57.3-8.75M28.1 186.3l-5.5 1.4-.1-17.5-2.75-10.45-5.25-6.35 6.15-1.75L24.9 156l5.2-.75 7.3 3q9.25 3 13 2.05l1.2-.5 4.05-1.6q7.5 7.4 11 1l5.65 5.5q-4.1.5-6.55 3.65l-25.2 7.95-8.4 2.6-4.05 1.8v5.6m-8.25-3.7-13.2 4.7q3.9-5.65-2.5-20.25 12.45 5.2 13.75-3.65l1.95 8.95v10.25m91.95-38.25.35 2.5q.7 4.15 1.95 7.75l-10.1 2.15-8.15 2.25-6.8 2.05.75-5.6q7.55.1 5.8-15l16.2 3.9M28.1 180.7l-.45-3.1V167l-2.75-11 2.75 11v10.6l.45 3.1m47.95-23.25 3 1.8-2.2 5.55-4.15-.15q2.7-2.65 3.35-7.2" transform="translate(1.35 1.35)"/><path fill-rule="evenodd" fill="#fdeecb" d="m161.6 68.8 1.45 8.95v5.7h-8.7L147.4 73.4l4.9.25q3.35.5 6.55 1.9 2.15.9 4.2 2.2-2.05-1.3-4.2-2.2-3.2-1.4-6.55-1.9 1.25-7.2-8.1-7.75l3.5-.3 2.65.45h10.75l.5 2.75m85.35 256.85-6.45-7-3.8-4.1v7.8l-4.3-.15q-2.8-.85-5.3-3.7l2.8 10.7 2.85 10.85q-6.25-3.2-10.7-9-2.15-2.8-3.85-6.2 6.3-10.85 14-15.05l3.25-1.5.4 1.8 1.75-.75-.35-1.6 2.8-.7 3.45 9.3 3.45 9.3m-96.6-259.6q5.6 1.6 8.5 9.5-2.9-7.9-8.5-9.5M232.3 292.4l-10.25 8.25 2-6.55-3.05-13.2 3.15 3.5 3.25 11.75 4.9-3.75m.3 10.7q-4-5.55 4.7-12.9l.1 2h5.1l-3.2 8.65-3.25 1.1-.3-1.2-2.15-.15.5 2.05-1.5.45" transform="translate(1.35 1.35)"/><path fill-rule="evenodd" fill="#b69a71" d="m134.7 83.45 3.1-4.55 4.65-12.55q.9-.3 1.75-.45 9.35.55 8.1 7.75l-4.9-.25 6.95 10.05H134.7m3.1-4.55 3.05-4.6q3.35-.8 6.55-.9-3.2.1-6.55.9l-3.05 4.6M104 156.75l10.1-2.15 1.45 3.7-2.2 4.75-.05.1v.05l-4-2.85-5.3 5.25v-8.85l5.3 3.6-5.3-3.6M84.2 265.8q1.2 10.3-1.6 22.15l6.1-11-1.65 20.95 4.85 3.75v-7.85q13.3 1.05 17.05 21.2l-12.1-4.9-3.85-1.6-15.9-6.4q-3.15-4.4-4.95-8.55.6-17.15 12.05-27.75m130.35 43.35 2.05-5.55 4.4-12.2v-10.5l3.05 13.2-2 6.55 10.25-8.25 4.9-3.75.05.95.05.6q-8.7 7.35-4.7 12.9l-7.35 2.45-.1-.6h-1.6v1.15l-9 3.05m-144.8-13.7.75-2 1.1 1.45 1.6 2.05-3.45-1.5m12.5-1.25 4.8 3.7-4.8-3.7m19.35 22.75q-5.2 8.95-13.85 9.45v-12.2H72.6l4.5-12.1 17.7 10.7.45 1.1 1.25 3 1.9.6-.5-2.3-.1-.55 3.8 2.3-3.7-1.75 3.7 1.75m-7.4-3.55 1.05.5-1.05-.5m130.4-.95.15 1 1.4-.8-.1-.75 6.15-2.1q-7.7 4.2-14 15.05l-3.65-7.2 4.95-3.45 5.1-1.75m-115.3-152.1 6.25-2.05-6.25 2.05" transform="translate(1.35 1.35)"/><path fill-rule="evenodd" fill="#b5c6c6" d="M252.85 131.55q.1 5.05.35 10.1h-15l-9.7 18.5-15.1-13.45v12.7l-31.05-5.7-5.15-1.95h-.1l.8-5.1.85-5.15 3.95 2 3.25-2.8 66.9-9.15m-74.4 9.8-.05.05.05-.05" transform="translate(1.35 1.35)"/><path fill-rule="evenodd" fill="#716400" d="m179.35 137.5-.6 4-.3-.15.9-3.85m-37.55 11.6-1.35-.75.05-.15 1.3.9m-69.1 15.55-.25.2-.15-.15.4-.05" transform="translate(1.35 1.35)"/><path fill-rule="evenodd" fill="#fef5d6" d="m176 158.55 1.1-6.8h.1l5.15 1.95 5.2 1.95-2.45 2.9H176m9.9.7v4.45l-5.15-3.75v5.4l-4.25-4.65 4.25-.75 5.15-.7 7.15-1.55-1.1 5.7-3.05-2.05-3-2.1" transform="translate(1.35 1.35)"/><path fill-rule="evenodd" fill="#d5e3e3" d="M253.2 141.65q.35 7.9 1 15.8l-15.05 25.75q-2.8-.8-5.75-.05l-2.35.85-1.05.1-.25.05.25-.05 1.05-.1q-.55.2-1.05.5l-.25-.35-.75-1.2q-3.2-4.9-8.25-9.55l-5.5-4.8-6.3-5-15.9-5.9-5.5-2.05-5.2-1.95 31.05 5.7v-12.7l15.1 13.45 9.7-18.5h15m-41.85 22.85-2.4-.9 2.4.9m14.15 71.45 4.45 13.45.2 2.5h.05l.75 10.55q-2.45-5.65-5.75-10.55h-.15l-.2-.25q-3.3-7.45.65-15.7" transform="translate(1.35 1.35)"/><path fill-rule="evenodd" fill="#615518" d="M146.2 348.85q-3.25 7.9-8.05 14.65-4.45 6.2-10.2 11.5-17.25 10.5-39.55 9.05-6.05.45-11.15-.05-8.35-.85-14.1-4.3 62.95-2.55 64.65-25.45l5.3-11.05q6.15 3.4 13.1 5.65M82.25 234.1l-13.3 11.7-.5-.8.25 1-7.25 6.3-3.5-.4-.3-.05q-4.9-.85-8.5-2.85-6.65-3.7-8.9-11.4-.55-2-.85-4.2 4.35 1.45 9.05 2.3l2.4.35 2.85 1.4 19.5-5.85q2.9-6.9 5-13.75l.25-.85.25-.7q1.7-5.85 2.9-11.6l-1.75-17.85q15.1-16 33.45-23.65h.05l-1.75 8.75-3.6 2.9h-.05q-5.55 4.6-10 9.75-11.95 14-16 32.3-1.15 9.55 4.3 15.4l-4 1.8m65.15-88.35q4.2-6.05 9.2-.75h-5.45l-5.45 3.75 1.7-3m-3.95 9.05h11.35q3 2.75.1 4.4-6.1-3.6-13.95-1.9-2.85.6-5.9 1.9-2.75-1.6-.35-3l8.75-1.4m-3-6.45q-4.35-2-7.95.75-2.15-5.45 1.7-4.3 2.05.6 5.85 3.1l.45.3-.05.15m-7 206.65-5.5 20 5.5-20M73.2 238.8v-7.2 7.2" transform="translate(1.35 1.35)"/><path fill-rule="evenodd" fill="#fdc743" d="m185.9 159.25 3 2.1.3.65-.3-.65 3.05 2.05 20.35 13.85 5.1 4.2q11.7 10.7 14.8 24.9 1.2 5.7 1 12.05l-4.05 4.35q-6.95-18-18.15-26.1-13.3-9.65-32.5-5.5 3.15-4.3 7.05-7.5 5.6-4.7 12.65-7.15h.05v-.05l3.7-1.1.05-.05-3.05-3.8q-4.05-4.55-9.75-9.5l-3.3-2.75m-36.65 60v-.05.05m-36.2-34.95q4.9 8.6 19.85 19.45 1.5 21.6-27.6 5.95-3.15-4.8-4.95-10.65.25-15.6 12.7-14.75m59.5 153.75-20.25-4.9q22.15 1.25 43.5-7.6l-23.25 12.5" transform="translate(1.35 1.35)"/><path fill-rule="evenodd" fill="#ae9b38" d="m185.9 159.25-.8-.7 2.45-2.9 5.5 2.05-7.15 1.55m-72.6 3.95.05-.15v.15h-.05m84.9 13.3.05-.05v.05h-.05m49.35 134.6q-.65-.55 0-.15v.15-.15q.45.25 0 .15" transform="translate(1.35 1.35)"/><path fill-rule="evenodd" fill="#d9cf62" d="m143.25 141.4-2.3-.4q-.95-.35-.95-.9 0-.6.95-1l2.3-.35 2.3.35q.95.4.95 1 0 .55-.95.9-.95.4-2.3.4" transform="translate(1.35 1.35)"/><path fill-rule="evenodd" fill="url(#f)" d="m140.45 175.2 4.6-.2q-9.7 5.3-19.45 10.55 12.5 3.65 26 20.7l-3.65 5.7-8.05-3.3-1.6-1.05-3.35-2.35q3.25-5.95.4-10.2-5.4-8.4-22.3-10.75-3.95-6.9-1.45-12.35l1.75-8.75v-.15l2.2-4.75q2.95 6.5 7.9 11.05l12.25 5.55 4.75.3" transform="translate(1.35 1.35)"/><path fill-rule="evenodd" fill="url(#g)" d="M111.6 171.95q-2.5 5.45 1.45 12.35-12.45-.85-12.7 14.75 1.8 5.85 4.95 10.65 29.1 15.65 27.6-5.95l2.05 1.5 3.35 2.35 1.6 1.05 8.05 3.3 2.9 1.15-1.6 6.1-3.1.75q-8.4 2.35-17.55 9.85-9.15 7.45-21.85 9.05-6.35.8-10.45.25t-5.9-2.45l-4.15-4.35q-5.45-5.85-4.3-15.4 4.05-18.3 16-32.3 4.45-5.15 10-9.75h.05l3.6-2.9" transform="translate(1.35 1.35)"/><path fill-rule="evenodd" fill="url(#h)" d="M149.25 219.2v.05-.05" transform="translate(1.35 1.35)"/><path fill-rule="evenodd" fill="#556044" d="m147.95 211.95 3.65-5.7q2.6-1 5-1.5-3.15 1.65 13.3 1.75l-2 3.3q-7.95-4.25-17.05 3.3l-2.9-1.15m1.3 7.25v.05q-.85 6.6 7.7 9.2 10.55.75 13.6-8.55l3.8 1.2q-1.85 7.15-6.45 10.3-2.2 1.5-5 2.1-3.95.85-9.15-.15-3.65-2.15-5.55-4.75-2.8-3.85-2.05-8.65l3.1-.75" transform="translate(1.35 1.35)"/><path fill-rule="evenodd" fill="url(#i)" d="m82.1 251.65 3.4-8.7-3.25-8.85 4-1.8 4.15 4.35q1.8 1.9 5.9 2.45 4.1.55 10.45-.25 12.7-1.6 21.85-9.05 9.15-7.5 17.55-9.85-.75 4.8 2.05 8.65 1.9 2.6 5.55 4.75 5.2 1 9.15.15 2.8-.6 5-2.1 4.6-3.15 6.45-10.3 9.55 3.25 16.4 7.35l6.05 1.9q14 3.45 24.8-2.15l.7-.35.6-.35q-3.75 9-8.6 15.5l-7.05 8.65-.2.25H82l.1-.25m-20.65.65-2.2 1.9-1.6.55-6.3 1.65-1.8.3q-6.4.95-11.7-.3-4.85-1.2-8.75-4.2l-.4-.3q-6.25-5.05-8.95-14.3-.85-2.9-1.35-6.1-.8-5.2-.75-11.4 3.7 3.55 7.75 6.35 6.5 4.45 14 6.95.3 2.2.85 4.2 2.25 7.7 8.9 11.4 3.6 2 8.5 2.85l.3.05 3.5.4m28.35-96.85-.75 5.6L87.7 167l-.6.6.6-.6q-3.45 8.1-3.45 12.5v.05l-4.8 3.1-4.8 3.1q-6.25 3.7-11.2 2.55-4.95-1.15-11.05-6.8h-7l-4.85-5.2 25.2-7.95-4.85 7.05v5.65q4.9-11 15.95-16.25l2.2-5.55q1.85-5.05 7.5-8.5h3.25v4.7" transform="translate(1.35 1.35)"/><path fill-rule="evenodd" fill="url(#j)" d="M170.55 219.9q.55-5.65-2.65-10.1l2-3.3v-.05l1.55-2.65q2.8-6.75 6.55-11.95l.5-.7q19.2-4.15 32.5 5.5 11.2 8.1 18.15 26.1l-2.65 2.3-3.6 2.45-.6.35-.7.35q-10.8 5.6-24.8 2.15l-6.05-1.9q-6.85-4.1-16.4-7.35l-3.8-1.2" transform="translate(1.35 1.35)"/><path fill-rule="evenodd" fill="#dfe5d9" d="M169.9 206.45v.05q-16.45-.1-13.3-1.75 7.95-1.7 13.3 1.7" transform="translate(1.35 1.35)"/><path fill-rule="evenodd" fill="url(#k)" d="m229.15 222.75 4.05-4.35q.2-6.35-1-12.05 8.4 7.7 15.3 13.3 1.15 19.1 5.45 32l.05.25h-22.85l-.2-2.5-4.45-13.45q.8-4.95 2.5-9.85l1.15-3.35m2.75 14 7.15-6.3-7.15 6.3" transform="translate(1.35 1.35)"/><path fill-rule="evenodd" fill="#808d91" d="m231.05 184 2.35-.85q2.95-.75 5.75.05 6.6 1.9 12.2 12.45 2.9 9.85-1.2 15.1l-2.4-3.4.05-.15q.8-4.35-.95-10.4-5.7-10.7-12.45-12.5l-3.35-.3" transform="translate(1.35 1.35)"/><path fill-rule="evenodd" fill="#ddf0ee" d="M254.2 157.45q2.8 32.7 10.9 64.65l1.65 18.55q-7.05-16.05-16.6-29.9 4.1-5.25 1.2-15.1-5.6-10.55-12.2-12.45l15.05-25.75" transform="translate(1.35 1.35)"/><path fill-rule="evenodd" fill="#b7ab84" d="m21.7 198.05 6.4-11.75 4.05-7.4 8.4-2.6 4.85 5.2h7q6.1 5.65 11.05 6.8 4.95 1.15 11.2-2.55l4.8-3.1.4 4.2 1.75 17.85q-1.2 5.75-2.9 11.6l-.25.7-.25.85q-2.1 6.85-5 13.75l-19.5 5.85-2.85-1.4-.1-4.6-14.2-10.25 11.4 4.45 2.4.85 6.8 2.35q5.55-1 10.15-3.05l.7-.3q5.95-2.9 10.2-7.65-4.25 4.75-10.2 7.65l-.7.3q-4.6 2.05-10.15 3.05l-6.8-2.35-1.6-12.55-13.6-6.35-13.45-9.55m59.9 6.65q-6.7 3-13.6 4.5-15.95 3.4-32.85-1.6 16.9 5 32.85 1.6 6.9-1.5 13.6-4.5" transform="translate(1.35 1.35)"/><path fill-rule="evenodd" fill="#d4c6a9" d="M17.65 220.1v-1.7q-.05-4.25.5-7.9.9-6.7 3.55-12.45l13.45 9.55 13.6 6.35 1.6 12.55-2.4-.85-11.4-4.45 14.2 10.25.1 4.6-2.4-.35q-4.7-.85-9.05-2.3-7.5-2.5-14-6.95-4.05-2.8-7.75-6.35m.5-9.6q2.95 2.95 8.9 6.2l7.1 3.45 2.4 1.05-2.4-1.05-7.1-3.45q-5.95-3.25-8.9-6.2" transform="translate(1.35 1.35)"/><path fill-rule="evenodd" fill="url(#l)" d="M95.6 140.45q1.75 15.1-5.8 15v-4.7h-3.25l-2.2-7.2-2.3-6.4-1.55-3.05 11.35 8.1 3.75-1.75" transform="translate(1.35 1.35)"/><path fill-rule="evenodd" fill="url(#m)" d="M72.45 137.15q6.4-2.05 11.9 6.4l2.2 7.2q-5.65 3.45-7.5 8.5l-3-1.8q.85-5.65-1.5-14l-2.1-6.3" transform="translate(1.35 1.35)"/><path fill-rule="evenodd" fill="url(#n)" d="m46.95 144.35 1.4-2.9-1.05 3.15-.35-.25" transform="translate(1.35 1.35)"/><path fill-rule="evenodd" fill="url(#o)" d="M63.15 379.7q-20.3-12.15-9.5-56.5l9.85-28.05 2.6-7.5v.05l-1.55 14.4H77.1l-4.5 12.1h15.15v12.2q8.65-.5 13.85-9.45l7.4 3.5 24.1 22.75-5.3 11.05q-1.7 22.9-64.65 25.45m18.8-127.85.05-.2h.1l-.1.25h124.85l-4.8 5.65q-7.35 8.5-25.05 15.85-17.75 7.3-29.7-20.75-17.55 2.6-24.8 20.85-3.8 9.4 5.85 20.15 9.65 10.75 34.1 14.55 24.45 3.75 54.15-4.6l-2.05 5.55-15.5 12.1-.7-.05q-21.35 7.05-41.2 6.65-12.1-.2-23.6-3.15-5.95-1.5-11.75-3.75-6.55-2.55-12.85-5.95-3.75-20.15-17.05-21.2v7.85l-4.85-3.75 1.65-20.95-6.1 11q2.8-11.85 1.6-22.15l-1.6-13.6-.65-.35" transform="translate(1.35 1.35)"/><path fill-rule="evenodd" fill="url(#p)" d="m80.2 256.55 1.75-4.7.65.35-2.4 4.35" transform="translate(1.35 1.35)"/><path fill-rule="evenodd" fill="#c5b79b" d="M63.5 295.15 51.35 305.2 66.9 280l-.8 7.65-2.6 7.5m9.5-25 .6-1.05q-5.35-7.25-13.35-8.35 7.9-6.3 17.5.15 2 .25 2.45-4.35l2.4-4.35 1.6 13.6q-11.45 10.6-12.05 27.75l-.9-2.2q-1.65-4.55-1.65-8.8-.1-6.45 3.4-12.4m-4.05-24.35-.25.2-.25-1 .5.8m8.15 56.3H64.55l1.55-14.4 2.05 2.7-.5 2.75 2.1 2.3 3.45 1.5 3.9 5.15" transform="translate(1.35 1.35)"/><path fill-rule="evenodd" fill="#6d8158" d="m68.15 290.4 1.45-7.85q0 4.25 1.65 8.8l-.75 2.1-.75 2-2.1-2.3.5-2.75M93 308.5l3.85 1.6.95 4.55.1.55.5 2.3-1.9-.6-1.25-3-.45-1.1-1.8-4.3m130.55-2.4v-1.15h1.6l.1.6.8 6.35.1.75-1.4.8-.15-1-1.05-6.35m10.55-3.45-.5-2.05 2.15.15.3 1.2 1.2 5.8.35 1.6-1.75.75-.4-1.8-1.35-5.65" transform="translate(1.35 1.35)"/><path fill-rule="evenodd" fill="#47332a" d="m66.9 280 6.1-9.85q-3.5 5.95-3.4 12.4l-1.45 7.85-2.05-2.7v-.05l2.65-7.55-2.65 7.55.8-7.65m42.05 35q6.3 3.4 12.85 5.95 5.8 2.25 11.75 3.75L109 320.45l-7.4-3.5-3.8-2.3-.95-4.55 12.1 4.9m90.1 6.25 15.5-12.1 9-3.05 1.05 6.35-5.1 1.75-20.45 7.05M70.5 293.45l.75-2.1.9 2.2q1.8 4.15 4.95 8.55l-3.9-5.15-1.6-2.05-1.1-1.45m1.1 1.45.55-1.35-.55 1.35m5.5 7.2 15.9 6.4 1.8 4.3-17.7-10.7m148.95 9.8-.8-6.35 7.35-2.45 1.5-.45 1.35 5.65-3.25 1.5-6.15 2.1m10-9.95 3.25-1.1.75 6.2-2.8.7-1.2-5.8" transform="translate(1.35 1.35)"/><path fill-rule="evenodd" fill="#3c2f24" d="m189.4 393.4-11.9-6.6-3.2-27.5 6.4-11.05q4.75 13 10.5 20.15-8.75 9-1.8 25m-82.85 5.95q-24.65.3-29.75-6.3l.45-9.05q5.1.5 11.15.05-3.15 13.3 18.15 15.3" transform="translate(1.35 1.35)"/><path fill-rule="evenodd" fill="#604b38" d="M226.1 382.55q.8 2.85.95 6.6-14.75 9.15-37.65 4.25-6.95-16 1.8-25 4.3 5.35 9.15 7.45l-4.45 6.7q-4.15 9.85 30.2 0m-87.95-19.05v9.55q-7.65.7-7.25 19.55l-.15.95-.3.75q-2 3.65-12.45 4.6l-11.45.45q-21.3-2-18.15-15.3 22.3 1.45 39.55-9.05 5.75-5.3 10.2-11.5m-31.3 28.8q19.5 4.4 18.45-7.5-27.45-2.25-18.45 7.5" transform="translate(1.35 1.35)"/><path fill-rule="evenodd" fill="url(#q)" d="M230.2 251.9h22.9q4.65 14.65 13.05 21.45-5.9 6.65-12.65 14.8-4.85 6.3-5.8 13.05-.3 2.3-.15 4.7v5.05q-.65-.4 0 .15h-2l-6.25-10.25 3.2-8.65h-5.1l-.1-2-.05-.6-.05-.95q-.95-11.3-4.15-20.75-.95-2.85-2.1-5.45l-.75-10.55" transform="translate(1.35 1.35)"/><path fill-rule="evenodd" fill="#e17d04" d="m178.75 342.6-14.45 10.05q-8.35-.9-15.9-3.1l-2.2-.7q-6.95-2.25-13.1-5.65L109 320.45l24.55 4.25q11.5 2.95 23.6 3.15 19.85.4 41.2-6.65l.7.05 20.45-7.05-4.95 3.45-35.8 24.95-.3-.9.3.9m-6.2-4.55 23.25-12.5q-21.35 8.85-43.5 7.6l20.25 4.9" transform="translate(1.35 1.35)"/><path fill-rule="evenodd" fill="url(#r)" d="m229.9 329.2-2.8-10.7q2.5 2.85 5.3 3.7l-2.5 7" transform="translate(1.35 1.35)"/><path fill-rule="evenodd" fill="url(#s)" d="m223.5 367.3-5.1 6.15q-3.15 1.9-6.15 2.85-6.3 1.95-11.9-.45-4.85-2.1-9.15-7.45-5.75-7.15-10.5-20.15l-1.95-5.65 35.8-24.95 3.65 7.2q1.7 3.4 3.85 6.2l1.95 12.8q-8.35-4.2-10.15-12.85-4.3 22.5 9.65 36.3" transform="translate(1.35 1.35)"/><path fill-rule="evenodd" fill="url(#t)" d="M247.7 301.2q2.5 10.1 10.45 10.15 1.8 6.05 17.6-8.3-3.9 4.2-6.75 8.4-6.15 11.75-13.25 11.4-4.55-1.75-6-6l-2.2-5.75q.45.1 0-.15v-5.05q-.15-2.4.15-4.7" transform="translate(1.35 1.35)"/><path fill-rule="evenodd" fill="url(#u)" d="M245.55 311.1h2l2.2 5.75-2.8 8.8-3.45-9.3 2.05-5.25" transform="translate(1.35 1.35)"/><path fill-rule="evenodd" fill="#7c644a" d="M218.4 373.45q5.75 1.9 7.7 9.1-34.35 9.85-30.2 0l4.45-6.7q5.6 2.4 11.9.45 3-.95 6.15-2.85M106.85 392.3q-9-9.75 18.45-7.5 1.05 11.9-18.45 7.5" transform="translate(1.35 1.35)"/><path stroke-width="2.75" stroke-linejoin="round" stroke-linecap="round" stroke="#52412e" fill="none" d="M145.55 67.25q-2.7-23.2-17.85-40.2 8.1-7.05 19.65 25.05-1.5-39.45 23.15-50.75-16.15 12.4-17.2 28.7l-.1 1.6q-.1 5.55 1.5 11.6 2.65-6.35 5.95-10.85 8.9-12.1 22.4-10.8-22.5 5.05-22.55 29.9 20.95-15.75 35.75-11.8-18.6 1.2-31.85 22.6 10.4-10 16.05 0-8.75-6-17.5 7.85l1.45 8.95v5.7l11.25 12m.05 0 2.3 2.9q2.2 2.2 3.8 4.8 1.15 1.85 1.95 3.9v.05q2.7 6.95 1.4 16.05 17.35-16.5 35.9-16.65-.45 5.3-16.1 19.1l45.4-10.55q4.95 2.55 5.8 6.95.8 4-1.95 9.55.1 5.05.35 10.1.35 7.9 1 15.8 2.8 32.7 10.9 64.65L268.1 242l4.75 11 .1.25m0-.25 1.15 2.85q2.5 6.3 3.75 10.8l2.4 8.9 12.55 24.8v10.15l-5.6 9.75-5.65 9.8q-7 10.85-11.6 10.35-4.65-.55-8.8 1.2-4.2 1.7-12.85-11.25V327l-6.45-7-.5 5q-3.15 25.9-16.5 43.65l-5.1 6.15q5.75 1.9 7.7 9.1.8 2.85.95 6.6-14.75 9.15-37.65 4.25l-11.9-6.6-3.2-27.5 6.4-11.05-1.95-5.65L165.65 354q-8.35-.9-15.9-3.1l-2.2-.7q-3.25 7.9-8.05 14.65v9.55q-7.65.7-7.25 19.55l-.15.95m-.3.75q-2 3.65-12.45 4.6l-11.45.45q-24.65.3-29.75-6.3l.45-9.05q-8.35-.85-14.1-4.3-20.3-12.15-9.5-56.5l9.85-28.05-12.15 10.05 15.55-25.2 6.1-9.85.6-1.05q-5.35-7.25-13.35-8.35 7.9-6.3 17.5.15 2 .25 2.45-4.35l1.75-4.7.05-.2m.1 0 3.4-8.7-3.25-8.85-13.3 11.7-.25.2-7.25 6.3-2.2 1.9-1.6.55-6.3 1.65-1.8.3q-6.4.95-11.7-.3-4.85-1.2-8.75-4.2l-.4-.3q-6.25-5.05-8.95-14.3-.85-2.9-1.35-6.1-.8-5.2-.75-11.4v-1.7q-.05-4.25.5-7.9.9-6.7 3.55-12.45l6.4-11.75-5.5 1.4-2.75-5.1-13.2 4.7q-9.05-12.7-5.8-27h6.1l7.55-2v-4.9L22 153l4.25 4.35 5.2-.75L44 154.7l4.3-9 1.4-2.9.8-1.7q3.75-7.15 10.15.35 3.95-16.05 13.15-2.95 2.6-12.55 8.05-3.05 1.65-4.85 4.55-5.8 2.05-.7 4.75.6l5.2 10.35 11.4-2.2-1.9-2.6q-15.6-14.4-18.35-31.75 8.1-1.75 23.65 16.15 1.3-6.2 1.75-7.35.45-1.2 1.2-1.95 2-8.15 5.55-14.1m.05 0q6-8.6 16.35-12l3.1-4.55 4.65-12.55q.9-.3 1.75-.45l3.5-.3 2.65.45h10.75l.5 2.75m30.15 66.95 5.75-5 6.1-5.15M164.4 79.1q-2.05-1.3-4.2-2.2-3.2-1.4-6.55-1.9l-4.9-.25q-3.2.1-6.55.9l-3.05 4.6m16.55 4.55h8.7m-4.2-7.9q-2.9-7.9-8.5-9.5m-16.9 41.8 12.55-5.95 6.4 5.25 10-5.25 7.1 7.2 3.2-5.65 6.1 12.25 1.3 2.65 2.25-11.25.05-.05M147 84.8h-10.95m-8 20.4 5.55-8.35.05-.05 8.55-10.95m-31.05 34.35q2.75 6.4 2.75 11.2l-.25 5.2 6.6-29.7q3.35-1.3 7.8-1.7l4.15 5.25 2.6-1.25m13.95 37.9q4.2-6.05 9.2-.75m-13.15 9.8h11.35q3 2.75.1 4.4-6.1-3.6-13.95-1.9-2.85.6-5.9 1.9-2.75-1.6-.35-3l8.75-1.4m-3 20.4 4.6-.2 6.75-1.1 7-1.6q3.6-.75 5.35-2.65 1.75-1.9 3.25-2.45 1.5-.6 1.75-1.2l4.3-5.4 2.55-2.05 1.1-6.8.8-5.1m4.7-12.9 2.6-5.4 1.25-1.5q10.3-12 23.35-15.2m-28.95 18.85q.9-3.3 2.95-7.35M147 84.8h8.7m31.6 57.25-3.25 2.8-3.95-2-.85 5.15m4.7-12.9 1.35 2.3q.35 1.65-2.1 2.75m-2.5-1.3-.6 4-.3-.15-.05.05.05-.05.9-3.85.9-3.75q.15-1.55.6-3.25m1.5 23.2-5.15-1.95h-.1m10.45 3.9-5.2-1.95m-36.65-4.95-3.9.35-1.35-.75m-7.95.75q-2.15-5.45 1.7-4.3 2.05.6 5.85 3.1l.45.3 1.3.9m29.65-16.6q-4.8-1.75-9.65 1.55l-1.2.9h2.1m23.2 24.3v4.45l-5.15-3.75v5.4l-4.25-4.65 4.25-.75 5.15-.7-.8-.7h-9.1m12.9 2.8-3-2.1 3.3 2.75-.3-.65 3.05 2.05 1.1-5.7-7.15 1.55m-.8-.7 2.45-2.9 5.5 2.05 15.9 5.9 2.4.9m-65.65-15.75 1.7-3m-35.6-1.4q-.55-4.2.1-6.85l.4-2.25m1.8 19.35q-1.25-3.6-1.95-7.75l-.35-2.5m-16.2-3.9q1.75 15.1-5.8 15l-.75 5.6 6.8-2.05 8.15-2.25 10.1-2.15 1.45 3.7q2.95 6.5 7.9 11.05l12.25 5.55 4.75.3m-24.9-16.9-2.2 4.75-.05.1v.05l.05-.15 2.2-4.75-6.25 2.05-5.3 5.25v-8.85m9.35 6.45v-.15m0 .15-1.75 8.75q-2.5 5.45 1.45 12.35m21.9 20.95 3.35 2.35 1.6 1.05 8.05 3.3 3.65-5.7q-13.5-17.05-26-20.7m-5.65-52.3q6.15-4.2 11.4 1.85h-2.15m3.7 68.65 2.05 1.5m14.3 14v-.05.05q-.85 6.6 7.7 9.2 10.55.75 13.6-8.55.55-5.65-2.65-10.1-7.95-4.25-17.05 3.3l-1.6 6.1v.05m25.1 1.85q-1.85 7.15-6.45 10.3-2.2 1.5-5 2.1-3.95.85-9.15-.15-3.65-2.15-5.55-4.75-2.8-3.85-2.05-8.65-8.4 2.35-17.55 9.85-9.15 7.45-21.85 9.05-6.35.8-10.45.25t-5.9-2.45l-4.15-4.35-4 1.8m67-14.9-3.1.75m-13.25-16.2q-14.95-10.85-19.85-19.45m85.15-7.8q-7.05 2.45-12.65 7.15-3.9 3.2-7.05 7.5l-.5.7q-3.75 5.2-6.55 11.95l-1.55 2.65v.05l-2 3.3m61.25 12.95 4.05-4.35q.2-6.35-1-12.05-3.1-14.2-14.8-24.9l-5.1-4.2-20.35-13.85m6.25 13.1.05-.05 3.7-1.1m.05-.05-3.05-3.8q-4.05-4.55-9.75-9.5m-19.3 44.45q-5.35-3.4-13.3-1.7-2.4.5-5 1.5m18.95 13.65 3.8 1.2q9.55 3.25 16.4 7.35l6.05 1.9q14 3.45 24.8-2.15l.7-.35.6-.35 3.6-2.45 2.65-2.3-1.15 3.35q-1.7 4.9-2.5 9.85l4.45 13.45.2 2.5m-79.3-38.8-2.9-1.15m61-48.35 6.3 5 5.5 4.8q5.05 4.65 8.25 9.55l.75 1.2.25-.05 1.05-.1 2.35-.85q2.95-.75 5.75.05m-9.4.95.25.35q.5-.3 1.05-.5l3.35.3q6.75 1.8 12.45 12.5 1.75 6.05.95 10.4l-.05.15 2.4 3.4q4.1-5.25 1.2-15.1-5.6-10.55-12.2-12.45m-9.15 1.3 2.1 4.25q7.9 8.15 14.7 17.3l.95 1.3m-61.8-66.65 66.9-9.15m-61.1 4.2-5.8 4.95M5.5 168.4l-3.3-6.75m19 22.3V173.7l-1.95-8.95-.65-2.8-2.75-2.3M5.5 168.4Q11.9 183 8 188.65m18.25-31.3 2.75 11v10.6l.45 3.1 4.05-1.8 8.4-2.6 25.2-7.95q2.45-3.15 6.55-3.65l-5.65-5.5q-3.5 6.4-11-1l-3.5-3.9-4.85-1.85-4.65.9m-28.15.05 5.25 6.35 2.75 10.45.1 17.5m16.8 45.7q-7.5-2.5-14-6.95-4.05-2.8-7.75-6.35m18.9 1.1-2.4-1.05-7.1-3.45q-5.95-3.25-8.9-6.2m9.95-24.2v-5.6M87.9 152.1h3.25v4.7m5.8-15-.6-1.2m-22.55-2.1 2.1 6.3q2.35 8.35 1.5 14l3 1.8q1.85-5.05 7.5-8.5l-2.2-7.2-2.3-6.4-1.55-3.05m7.2 32.9-.6.6.6-.6q-3.45 8.1-3.45 12.5v.05l-4.8 3.1.4 4.2m33.45-23.65-4-2.85-5.3-3.6m-14.95 4.3-1.35 5.95 8.15-8M74.05 166l-.25.2-.15-.15.4-.05q2.7-2.65 3.35-7.2m.8 7.35-4.15-.15m4.15.15 2.2-5.55m7.2 73.05q-5.45-5.85-4.3-15.4 4.05-18.3 16-32.3 4.45-5.15 10-9.75h.05l3.6-2.9m-47.5-24.7q-2.6-4.55-4.8-7.15m4.8 7.15 1.25 2.25q1.1 5.85 1.3 9.7M49.7 142.8l-1.05 3.15M80.8 184l-4.8 3.1q-6.25 3.7-11.2 2.55-4.95-1.15-11.05-6.8h-7l-4.85-5.2m25.2-7.95-4.85 7.05m-10.55 51.1-2.4-.85-11.4-4.45m14.3 14.85 2.85 1.4 19.5-5.85q2.9-6.9 5-13.75-4.25 4.75-10.2 7.65l-.7.3q-4.6 2.05-10.15 3.05l-6.8-2.35m-15.2-18.9-13.45-9.55m13.45 9.55q16.9 5 32.85 1.6 6.9-1.5 13.6-4.5L81.2 188.2m1.75 17.85q-1.2 5.75-2.9 11.6l-.25.7-.25.85m-50.1-31.55 4.05-7.4m50.45 73.3 1.6 13.6q1.2 10.3-1.6 22.15l6.1-11-1.65 20.95 4.85 3.75v-7.85q13.3 1.05 17.05 21.2 6.3 3.4 12.85 5.95 5.8 2.25 11.75 3.75 11.5 2.95 23.6 3.15 19.85.4 41.2-6.65l.7.05 15.5-12.1 2.05-5.55m-134.6-51.7.1-.25m.5.55-2.4 4.35M52.2 237.4l-2.4-.35q-4.7-.85-9.05-2.3m37.7 68.7H65.9l1.55-14.4 2.05 2.7 1.45-7.85q-.1-6.45 3.4-12.4m-6.9 17.5-2.6 7.5m4.65-4.75-.5 2.75 2.1 2.3.75-2 .75-2.1q-1.65-4.55-1.65-8.8m2.55 11-.9-2.2m1.95 5.6-1.6-2.05-1.1-1.45m2.7 3.5 3.9 5.15q-3.15-4.4-4.95-8.55l-.55 1.35m15.45 3-4.8-3.7m19.35 22.75q-5.2 8.95-13.85 9.45v-12.2H73.95l4.5-12.1 15.9 6.4 3.85 1.6 12.1 4.9m-14.15-2.2.45 1.1 1.25 3 1.9.6-.5-2.3-.1-.55-.95-4.55m-1.6 3.8-1.05-.5m-1.2-4.9 1.8 4.3-17.7-10.7m24.5 14.85-3.8-2.3m.1.55 3.7 1.75 7.4 3.5 24.55 4.25M67.45 289l2.65-7.55M89.75 385.4q-6.05.45-11.15-.05m11.15.05q22.3 1.45 39.55-9.05l5.5-20m120.05-66.85q-4.85 6.3-5.8 13.05 2.5 10.1 10.45 10.15m-32.65-75.4q-3.95 8.25-.65 15.7l.2.25m.15 0q3.3 4.9 5.75 10.55l-.75-10.55m2.1 40.5-4.9 3.75-3.25-11.75-3.15-3.5v10.5l-4.4 12.2m8.65 1.95-.1-.6h-1.6v1.15l1.05 6.35.15 1 1.4-.8-.1-.75-.8-6.35 7.35-2.45 1.5-.45 1.35 5.65.4 1.8 1.75-.75-.35-1.6m.05-17.55-.05-.6-.05-.95-4.9 3.75m-12.8 21.8L215.9 319l3.65 7.2m14-15.05-6.15 2.1m3.85 17.3-2.8-10.7q2.5 2.85 5.3 3.7l4.3.15v-7.8l3.8 4.1m-25.95-9.5 9-3.05m1.05 6.35-5.1 1.75-20.45 7.05m38.25-31.05.1 2h5.1l-3.2 8.65 6.25 10.25h2q-.65-.55 0-.15v-5.05q-.15-2.4.15-4.7m-11.65.75 3.25-1.1.75 6.2 3.45 9.3 2.05-5.25M235.45 304l-.5-2.05 2.15.15.3 1.2 1.2 5.8m12.5 9.1-2.2-5.75v-.15q.45.25 0 .15m-.6 14.55-3.45-9.3m3.45 9.3 2.8-8.8q1.45 4.25 6 6 7.1.35 13.25-11.4 2.85-4.2 6.75-8.4m-45.85 26.15 2.85 10.85q-6.25-3.2-10.7-9-2.15-2.8-3.85-6.2m19-36.2q-.95-11.3-4.15-20.75-.95-2.85-2.1-5.45m-67.25 20.35q-8.5-.1-9.3 6.7m24.05 52.2.3.9L215.9 319m-76.4 45.85q-4.45 6.2-10.2 11.5m18.25-26.15q-6.95-2.25-13.1-5.65l-24.1-22.75m91.35 55.4q5.6 2.4 11.9.45 3-.95 6.15-2.85m-18.05 2.4q-4.85-2.1-9.15-7.45-5.75-7.15-10.5-20.15m-89.6-241.5q11.35 4.25 18.95 21.75l-1.35 4.05q-.8 2.2 1.25 3.4m-3.55 1.1 5.4 7.3m127.25 86.1-7.15 6.3m-158.7-5.15v7.2M251.5 212.1q9.55 13.85 16.6 29.9"/><path fill-rule="evenodd" fill="#4d3e29" d="M109.8 118.85q1.3-6.2 1.75-7.35.45-1.2 1.2-1.95 2-8.15 5.55-14.1h.05q6-8.6 16.35-12h10.95q-5.4 5.7-8.55 12v.05q-2.6 5.95-3.65 12.35l-2.6 1.25-4.15-5.25q-4.45.4-7.8 1.7l-6.6 29.7.25-5.2q0-4.8-2.75-11.2m34.4-52.95q-2.7-23.2-17.85-40.2 8.1-7.05 19.65 25.05Q144.5 11.3 169.15 0 153 12.4 151.95 28.7l-.1 1.6-1.5 35.75-2.65-.45-3.5.3m9.15-24q2.65-6.35 5.95-10.85-4.05 13.35-3.3 25.25l-2.65-14.4m-12.5 42.6-8.55 10.95-.05.05-5.55 8.35 5.55-8.35.05-.05 8.55-10.95m5.15 17.4 3.25-12.3 3.15 17.55-6.4-5.25" transform="translate(1.35 1.35)"/><path fill-rule="evenodd" fill="#614f41" d="M159.3 31.05q8.9-12.1 22.4-10.8-22.5 5.05-22.55 29.9 20.95-15.75 35.75-11.8-18.6 1.2-31.85 22.6 10.4-10 16.05 0-8.75-6-17.5 7.85l-.5-2.75h-10.75l1.5-35.75q-.1 5.55 1.5 11.6L156 56.3q-.75-11.9 3.3-25.25m3.75 52.4 11.25 12h.05l2.3 2.9q2.2 2.2 3.8 4.8 1.15 1.85 1.95 3.9l-.05.05-2.25 11.25-1.3-2.65 1.3 2.65 2.25-11.25h.05q2.7 6.95 1.4 16.05-2.05 4.05-2.95 7.35-.45 1.7-.6 3.25l-.9 3.75-.9 3.85-.05.05.05-.05.3.15-.85 5.15.9-30.95-6.1-12.25-3.2 5.65-7.1-7.2-10 5.25-3.15-17.55-3.25 12.3-12.55 5.95q1.05-6.4 3.65-12.35v-.05q3.15-6.3 8.55-12h17.4" transform="translate(1.35 1.35)"/><path fill-rule="evenodd" fill="url(#v)" d="M271.5 251.65h.1l1.15 2.85q2.5 6.3 3.75 10.8l2.4 8.9 12.55 24.8v10.15l-5.6 9.75q-27.2 14.9-10.1-15.85-15.8 14.35-17.6 8.3-7.95-.05-10.45-10.15.95-6.75 5.8-13.05 6.75-8.15 12.65-14.8-8.4-6.8-13.05-21.45h18.5l-.1-.25m-31 67-.5 5q-3.15 25.9-16.5 43.65-13.95-13.8-9.65-36.3 1.8 8.65 10.15 12.85l-1.95-12.8q4.45 5.8 10.7 9l-2.85-10.85 2.5-7 4.3.15v-7.8l3.8 4.1m-23.9-15.05q-29.7 8.35-54.15 4.6-24.45-3.8-34.1-14.55-9.65-10.75-5.85-20.15 7.25-18.25 24.8-20.85 11.95 28.05 29.7 20.75 17.7-7.35 25.05-15.85l4.8-5.65h18.35q3.3 4.9 5.75 10.55 1.15 2.6 2.1 5.45 3.2 9.45 4.15 20.75l-4.9 3.75-4.9 3.75-3.25-11.75-3.15-3.5v10.5l-4.4 12.2m-62.2-14.1q.8-6.8 9.3-6.7-8.5-.1-9.3 6.7" transform="translate(1.35 1.35)"/><path fill-rule="evenodd" fill="url(#w)" d="m285.85 318.9-5.65 9.8q-7 10.85-11.6 10.35-4.65-.55-8.8 1.2-4.2 1.7-12.85-11.25v-3.35l2.8-8.8q1.45 4.25 6 6 7.1.35 13.25-11.4 2.85-4.2 6.75-8.4-17.1 30.75 10.1 15.85" transform="translate(1.35 1.35)"/><path fill-rule="evenodd" fill="url(#x)" d="M183.8 123.15q17.35-16.5 35.9-16.65-.45 5.3-16.1 19.1l-6.1 5.15-5.75 5 5.7-12.1 12.35-12q-13.05 3.2-23.35 15.2l-1.25 1.5-2.6 5.4-1.75-3.25q.9-3.3 2.95-7.35m82.95 117.5 4.75 11 .1.25H253l-.05-.25q-4.3-12.9-5.45-32-6.9-5.6-15.3-13.3-3.1-14.2-14.8-24.9l-5.1-4.2-20.35-13.85 1.1-5.7 15.9 5.9 6.3 5 5.5 4.8q5.05 4.65 8.25 9.55l.75 1.2.25.35 2.1 4.25q7.9 8.15 14.7 17.3l.95 1.3 2.4 3.4q9.55 13.85 16.6 29.9m-218.4-99.2.8-1.7q3.75-7.15 10.15.35 3.95-16.05 13.15-2.95 2.6-12.55 8.05-3.05 1.65-4.85 4.55-5.8 2.05-.7 4.75.6l5.2 10.35.6 1.2-3.75 1.75-11.35-8.1 1.55 3.05 2.3 6.4q-5.5-8.45-11.9-6.4l2.1 6.3q-7.15-10.7-15.25-3.35 2.2 2.6 4.8 7.15-10.15-9.35-16.8-2.65l1.05-3.15m104.05-34.3 10-5.25 7.1 7.2 3.2-5.65 6.1 12.25-.9 30.95-.8 5.1-1.1 6.8-2.55 2.05-4.3 5.4q-.25.6-1.75 1.2-1.5.55-3.25 2.45-1.75 1.9-5.35 2.65l-7 1.6-6.75 1.1 6.75-1.1 7-1.6q3.6-.75 5.35-2.65 1.75-1.9 3.25-2.45 1.5-.6 1.75-1.2l4.3-5.4 3.35 6.3 15.95-.05q.45 1-33.55 9.1 27.95-2.95 36.75-4.9 1.65 4.4 2.3 5.4l-.05.05q-13.25 1.7-32.75 23.05l-13.85 6.7q-13.5-17.05-26-20.7 9.75-5.25 19.45-10.55l-4.6.2q-4.2-5.7 5.4-8.95l6.3-3.85-2.85-.95h-6.85q-6.7-1-1.5-4.15 7.85-1.7 13.95 1.9 2.9-1.65-.1-4.4h-11.35q-2.7-1.75-1.2-4.25l4.75-.05 9.6-5.5q-5-5.3-9.2.75-5.65 2.3-7.35.05l-3.4-4.1q6.2-7.9 12.95-2.55-.95-5.5 2.4-10.5.9-1.45 3.15-2.15 3.05-1.15 4.45-2.15 6.55-3.55 15.45-3.1-6.35-6.35-19.25 0-2 1.4-5.8 3.1-5.7 4-11.45 0-7-5.35-17.85-3.95 1.55-1.15 4.85-5.4 3.45-4.45 5.3-5.9l2.6-1.25L146 101.9l6.4 5.25m10.3 27.8h-2.1l1.2-.9q4.85-3.3 9.65-1.55-4.8-1.75-9.65 1.55l-1.2.9h2.1m-16.2 5.15q0-.6-.95-1l-2.3-.35-2.3.35q-.95.4-.95 1 0 .55.95.9l2.3.4q1.35 0 2.3-.4.95-.35.95-.9m-33.45 44.2q16.9 2.35 22.3 10.75 2.85 4.25-.4 10.2l-2.05-1.5q-14.95-10.85-19.85-19.45m109.85 43.2 3.6-2.45 2.65-2.3-1.15 3.35q-1.7 4.9-2.5 9.85-3.95 8.25-.65 15.7l.2.25h-18l.2-.25 7.05-8.65q4.85-6.5 8.6-15.5M65.75 168.35q2.45-3.15 6.55-3.65l.15.15.25-.2 4.15.15q-11.05 5.25-15.95 16.25v-5.65l4.85-7.05" transform="translate(1.35 1.35)"/><path fill-rule="evenodd" fill="url(#y)" d="m42.65 153.35 4.3-9 .35.25q6.65-6.7 16.8 2.65l1.25 2.25q1.1 5.85 1.3 9.7-3.5 6.4-11-1-1.65-1.65-1.3-4.7-4.15-2.55-7.05-1.05l-4.65.9m63.75-16.3-1.9-2.6q-15.6-14.4-18.35-31.75 8.1-1.75 23.65 16.15 2.75 6.4 2.75 11.2l-.25 5.2 6.6-29.7q3.35-1.3 7.8-1.7l4.15 5.25q-1.85 1.45-5.3 5.9-3.3 4.25-4.85 5.4 10.85-1.4 17.85 3.95 5.75 4 11.45 0 3.8-1.7 5.8-3.1 12.9-6.35 19.25 0-8.9-.45-15.45 3.1-1.4 1-4.45 2.15-2.25.7-3.15 2.15-3.35 5-2.4 10.5-6.75-5.35-12.95 2.55l3.4 4.1q1.7 2.25 7.35-.05l-1.7 3 5.45-3.75h5.45l-9.6 5.5-4.75.05q-1.5 2.5 1.2 4.25l-8.75 1.4q-2.4 1.4.35 3 3.05-1.3 5.9-1.9-5.2 3.15 1.5 4.15h6.85l2.85.95-6.3 3.85q-9.6 3.25-5.4 8.95l-4.75-.3-12.25-5.55q-4.95-4.55-7.9-11.05l-1.45-3.7q-1.25-3.6-1.95-7.75l-.35-2.5q-.55-4.2.1-6.85l.4-2.25-.4 2.25q-.65 2.65-.1 6.85l-5.4-7.3m103.4-25.4-12.35 12-5.7 12.1-5.8 4.95-3.25 2.8-3.95-2 .6-4 .9-3.75q.15-1.55.6-3.25l1.75 3.25 2.6-5.4 1.25-1.5q10.3-12 23.35-15.2m-36.35 48.95 2.55-2.05h9.1l.8.7-5.15.7-4.25.75 4.25 4.65v-5.4l5.15 3.75v-4.45l3.3 2.75q5.7 4.95 9.75 9.5l3.05 3.8-.05.05-3.7 1.1q-.65-1-2.3-5.4-8.8 1.95-36.75 4.9 34-8.1 33.55-9.1l-15.95.05-3.35-6.3m8.4-21.8q2.45-1.1 2.1-2.75l-1.35-2.3 1.35 2.3q.35 1.65-2.1 2.75m-40.05 10.3 3.9-.35-3.9.35-1.3-.9-.45-.3q-3.8-2.5-5.85-3.1-3.85-1.15-1.7 4.3 3.6-2.75 7.95-.75l1.35.75M95.85 159l8.15-2.25v8.85l5.3-5.25 4 2.85q-18.35 7.65-33.45 23.65l-.4-4.2 4.8-3.1v-.05q0-4.4 3.45-12.5l-.6.6.6-.6 8.15-8m33.35-23.9h2.15q-5.25-6.05-11.4-1.85 6.15-4.2 11.4 1.85h-2.15m20.05 84.1 1.6-6.1q9.1-7.55 17.05-3.3 3.2 4.45 2.65 10.1-3.05 9.3-13.6 8.55-8.55-2.6-7.7-9.2v-.05m48.95-42.7q-7.05 2.45-12.65 7.15-3.9 3.2-7.05 7.5l-.5.7q-3.75 5.2-6.55 11.95l-1.55 2.65q-5.35-3.4-13.3-1.7-2.4.5-5 1.5l13.85-6.7q19.5-21.35 32.75-23.05M72.3 164.7l-5.65-5.5q-.2-3.85-1.3-9.7l-1.25-2.25q-2.6-4.55-4.8-7.15 8.1-7.35 15.25 3.35 2.35 8.35 1.5 14-.65 4.55-3.35 7.2l-.4.05m37.65-28.75q-2.05-1.2-1.25-3.4l1.35-4.05q-7.6-17.5-18.95-21.75 11.35 4.25 18.95 21.75l-1.35 4.05q-.8 2.2 1.25 3.4" transform="translate(1.35 1.35)"/><path fill-rule="evenodd" fill="#ac8451" d="m203.6 125.6 45.4-10.55q4.95 2.55 5.8 6.95l-57.3 8.75 6.1-5.15m-181 62.1-2.75-5.1v-10.25l-1.95-8.95q-1.3 8.85-13.75 3.65 6.4 14.6 2.5 20.25-9.05-12.7-5.8-27h6.1l7.55-2v-4.9l5.25 6.35 2.75 10.45.1 17.5m7.5-32.45 12.55-1.9 4.65-.9q2.9-1.5 7.05 1.05-.35 3.05 1.3 4.7l-4.05 1.6-1.2.5q-3.75.95-13-2.05l-7.3-3m64.9-16 11.4-2.2 5.4 7.3-16.2-3.9-.6-1.2M14.5 158.3l2.75 2.3.65 2.8-.65-2.8-2.75-2.3m-13.65 2 3.3 6.75-3.3-6.75" transform="translate(1.35 1.35)"/><path fill-rule="evenodd" fill="#6a4a2f" d="M254.8 122q.8 4-1.95 9.55l-66.9 9.15 5.8-4.95 5.75-5 57.3-8.75M28.1 186.3l-5.5 1.4-.1-17.5-2.75-10.45-5.25-6.35 6.15-1.75L24.9 156l5.2-.75 7.3 3q9.25 3 13 2.05l1.2-.5 4.05-1.6q7.5 7.4 11 1l5.65 5.5q-4.1.5-6.55 3.65l-25.2 7.95-8.4 2.6-4.05 1.8-.45-3.1V167l-2.75-11 2.75 11v10.6l.45 3.1v5.6m-8.25-3.7-13.2 4.7q3.9-5.65-2.5-20.25 12.45 5.2 13.75-3.65l1.95 8.95v10.25m91.95-38.25.35 2.5q.7 4.15 1.95 7.75l-10.1 2.15-8.15 2.25-6.8 2.05.75-5.6q7.55.1 5.8-15l16.2 3.9m-35.75 13.1 3 1.8-2.2 5.55-4.15-.15q2.7-2.65 3.35-7.2" transform="translate(1.35 1.35)"/><path fill-rule="evenodd" fill="#fdeecb" d="m161.6 68.8 1.45 8.95v5.7h-8.7L147.4 73.4l4.9.25q3.35.5 6.55 1.9 2.15.9 4.2 2.2-2.05-1.3-4.2-2.2-3.2-1.4-6.55-1.9 1.25-7.2-8.1-7.75l3.5-.3 2.65.45h10.75l.5 2.75m85.35 256.85-6.45-7-3.8-4.1v7.8l-4.3-.15q-2.8-.85-5.3-3.7l2.8 10.7 2.85 10.85q-6.25-3.2-10.7-9-2.15-2.8-3.85-6.2 6.3-10.85 14-15.05l3.25-1.5.4 1.8 1.75-.75-.35-1.6 2.8-.7 3.45 9.3 3.45 9.3m-96.6-259.6q5.6 1.6 8.5 9.5-2.9-7.9-8.5-9.5M232.3 292.4l-10.25 8.25 2-6.55-3.05-13.2 3.15 3.5 3.25 11.75 4.9-3.75m.3 10.7q-4-5.55 4.7-12.9l.1 2h5.1l-3.2 8.65-3.25 1.1-.3-1.2-2.15-.15.5 2.05-1.5.45" transform="translate(1.35 1.35)"/><path fill-rule="evenodd" fill="#b69a71" d="m134.7 83.45 3.1-4.55 4.65-12.55q.9-.3 1.75-.45 9.35.55 8.1 7.75l-4.9-.25 6.95 10.05H134.7m3.1-4.55 3.05-4.6q3.35-.8 6.55-.9-3.2.1-6.55.9l-3.05 4.6M104 156.75l10.1-2.15 1.45 3.7-2.2 4.75-.05.1v.05l-4-2.85-5.3 5.25v-8.85l5.3 3.6-5.3-3.6M84.2 265.8q1.2 10.3-1.6 22.15l6.1-11-1.65 20.95 4.85 3.75v-7.85q13.3 1.05 17.05 21.2l-12.1-4.9-3.85-1.6-15.9-6.4q-3.15-4.4-4.95-8.55.6-17.15 12.05-27.75m130.35 43.35 2.05-5.55 4.4-12.2v-10.5l3.05 13.2-2 6.55 10.25-8.25 4.9-3.75.05.95.05.6q-8.7 7.35-4.7 12.9l-7.35 2.45-.1-.6h-1.6v1.15l-9 3.05m-144.8-13.7.75-2 1.1 1.45 1.6 2.05-3.45-1.5m12.5-1.25 4.8 3.7-4.8-3.7m19.35 22.75q-5.2 8.95-13.85 9.45v-12.2H72.6l4.5-12.1 17.7 10.7.45 1.1 1.25 3 1.9.6-.5-2.3-.1-.55 3.8 2.3-3.7-1.75 3.7 1.75m-7.4-3.55 1.05.5-1.05-.5m130.4-.95.15 1 1.4-.8-.1-.75 6.15-2.1q-7.7 4.2-14 15.05l-3.65-7.2 4.95-3.45 5.1-1.75m-115.3-152.1 6.25-2.05-6.25 2.05" transform="translate(1.35 1.35)"/><path fill-rule="evenodd" fill="#b5c6c6" d="M252.85 131.55q.1 5.05.35 10.1h-15l-9.7 18.5-15.1-13.45v12.7l-31.05-5.7-5.15-1.95h-.1l.8-5.1.85-5.15 3.95 2 3.25-2.8 66.9-9.15m-74.4 9.8-.05.05.05-.05" transform="translate(1.35 1.35)"/><path fill-rule="evenodd" fill="#716400" d="m178.75 141.5-.3-.15.9-3.85-.6 4m-36.95 7.6-1.35-.75.05-.15 1.3.9m-69.1 15.55-.25.2-.15-.15.4-.05" transform="translate(1.35 1.35)"/><path fill-rule="evenodd" fill="#fef5d6" d="m176 158.55 1.1-6.8h.1l5.15 1.95 5.2 1.95-2.45 2.9H176m12.9 2.8-3-2.1 7.15-1.55-1.1 5.7-3.05-2.05m-3-2.1v4.45l-5.15-3.75v5.4l-4.25-4.65 4.25-.75 5.15-.7" transform="translate(1.35 1.35)"/><path fill-rule="evenodd" fill="#d5e3e3" d="M253.2 141.65q.35 7.9 1 15.8l-15.05 25.75q-2.8-.8-5.75-.05l-2.35.85q-.55.2-1.05.5l-.25-.35-.75-1.2q-3.2-4.9-8.25-9.55l-5.5-4.8-6.3-5-15.9-5.9-5.5-2.05-5.2-1.95 31.05 5.7v-12.7l15.1 13.45 9.7-18.5h15m-41.85 22.85-2.4-.9 2.4.9m14.15 71.45 4.45 13.45.2 2.5h.05l.75 10.55q-2.45-5.65-5.75-10.55h-.15l-.2-.25q-3.3-7.45.65-15.7m5.55-51.95-1.05.1-.25.05.25-.05 1.05-.1" transform="translate(1.35 1.35)"/><path fill-rule="evenodd" fill="#615518" d="M146.2 348.85q-3.25 7.9-8.05 14.65-4.45 6.2-10.2 11.5-17.25 10.5-39.55 9.05-6.05.45-11.15-.05-8.35-.85-14.1-4.3 62.95-2.55 64.65-25.45l5.3-11.05q6.15 3.4 13.1 5.65M82.25 234.1l-13.3 11.7-.5-.8.25 1-7.25 6.3-3.5-.4-.3-.05q-4.9-.85-8.5-2.85-6.65-3.7-8.9-11.4-.55-2-.85-4.2 4.35 1.45 9.05 2.3l2.4.35 2.85 1.4 19.5-5.85q2.9-6.9 5-13.75l.25-.85.25-.7q1.7-5.85 2.9-11.6l-1.75-17.85q15.1-16 33.45-23.65h.05l-1.75 8.75-3.6 2.9h-.05q-5.55 4.6-10 9.75-11.95 14-16 32.3-1.15 9.55 4.3 15.4l-4 1.8m65.15-88.35q4.2-6.05 9.2-.75h-5.45l-5.45 3.75 1.7-3m-3.95 9.05h11.35q3 2.75.1 4.4-6.1-3.6-13.95-1.9-2.85.6-5.9 1.9-2.75-1.6-.35-3l8.75-1.4m-3-6.45q-4.35-2-7.95.75-2.15-5.45 1.7-4.3 2.05.6 5.85 3.1l.45.3-.05.15m-7 206.65-5.5 20 5.5-20M73.2 238.8v-7.2 7.2" transform="translate(1.35 1.35)"/><path fill-rule="evenodd" fill="#fdc743" d="m185.9 159.25 3 2.1.3.65-.3-.65 3.05 2.05 20.35 13.85 5.1 4.2q11.7 10.7 14.8 24.9 1.2 5.7 1 12.05l-4.05 4.35q-6.95-18-18.15-26.1-13.3-9.65-32.5-5.5 3.15-4.3 7.05-7.5 5.6-4.7 12.65-7.15h.05v-.05l3.7-1.1.05-.05-3.05-3.8q-4.05-4.55-9.75-9.5l-3.3-2.75m-36.65 59.95v.05-.05m-36.2-34.9q4.9 8.6 19.85 19.45 1.5 21.6-27.6 5.95-3.15-4.8-4.95-10.65.25-15.6 12.7-14.75m59.5 153.75-20.25-4.9q22.15 1.25 43.5-7.6l-23.25 12.5" transform="translate(1.35 1.35)"/><path fill-rule="evenodd" fill="#ae9b38" d="m193.05 157.7-7.15 1.55-.8-.7 2.45-2.9 5.5 2.05m-79.75 5.5.05-.15v.15h-.05m84.9 13.3.05-.05v.05h-.05m49.35 134.6q-.65-.55 0-.15.45.25 0 .15v-.15.15" transform="translate(1.35 1.35)"/><path fill-rule="evenodd" fill="#d9cf62" d="M146.5 140.1q0 .55-.95.9-.95.4-2.3.4l-2.3-.4q-.95-.35-.95-.9 0-.6.95-1l2.3-.35 2.3.35q.95.4.95 1" transform="translate(1.35 1.35)"/><path fill-rule="evenodd" fill="url(#z)" d="m140.45 175.2 4.6-.2q-9.7 5.3-19.45 10.55 12.5 3.65 26 20.7l-3.65 5.7-8.05-3.3-1.6-1.05-3.35-2.35q3.25-5.95.4-10.2-5.4-8.4-22.3-10.75-3.95-6.9-1.45-12.35l1.75-8.75v-.15l2.2-4.75q2.95 6.5 7.9 11.05l12.25 5.55 4.75.3" transform="translate(1.35 1.35)"/><path fill-rule="evenodd" fill="url(#A)" d="M111.6 171.95q-2.5 5.45 1.45 12.35-12.45-.85-12.7 14.75 1.8 5.85 4.95 10.65 29.1 15.65 27.6-5.95l2.05 1.5 3.35 2.35 1.6 1.05 8.05 3.3 2.9 1.15-1.6 6.1-3.1.75q-8.4 2.35-17.55 9.85-9.15 7.45-21.85 9.05-6.35.8-10.45.25t-5.9-2.45l-4.15-4.35q-5.45-5.85-4.3-15.4 4.05-18.3 16-32.3 4.45-5.15 10-9.75h.05l3.6-2.9" transform="translate(1.35 1.35)"/><path fill-rule="evenodd" fill="url(#B)" d="M149.25 219.2v.05-.05" transform="translate(1.35 1.35)"/><path fill-rule="evenodd" fill="#556044" d="m147.95 211.95 3.65-5.7q2.6-1 5-1.5-3.15 1.65 13.3 1.75l-2 3.3q-7.95-4.25-17.05 3.3l-2.9-1.15m1.3 7.3q-.85 6.6 7.7 9.2 10.55.75 13.6-8.55l3.8 1.2q-1.85 7.15-6.45 10.3-2.2 1.5-5 2.1-3.95.85-9.15-.15-3.65-2.15-5.55-4.75-2.8-3.85-2.05-8.65l3.1-.75v.05" transform="translate(1.35 1.35)"/><path fill-rule="evenodd" fill="url(#C)" d="m82.1 251.65 3.4-8.7-3.25-8.85 4-1.8 4.15 4.35q1.8 1.9 5.9 2.45 4.1.55 10.45-.25 12.7-1.6 21.85-9.05 9.15-7.5 17.55-9.85-.75 4.8 2.05 8.65 1.9 2.6 5.55 4.75 5.2 1 9.15.15 2.8-.6 5-2.1 4.6-3.15 6.45-10.3 9.55 3.25 16.4 7.35l6.05 1.9q14 3.45 24.8-2.15l.7-.35.6-.35q-3.75 9-8.6 15.5l-7.05 8.65-.2.25H82l.1-.25m-20.65.65-2.2 1.9-1.6.55-6.3 1.65-1.8.3q-6.4.95-11.7-.3-4.85-1.2-8.75-4.2l-.4-.3q-6.25-5.05-8.95-14.3-.85-2.9-1.35-6.1-.8-5.2-.75-11.4 3.7 3.55 7.75 6.35 6.5 4.45 14 6.95.3 2.2.85 4.2 2.25 7.7 8.9 11.4 3.6 2 8.5 2.85l.3.05 3.5.4m28.35-96.85-.75 5.6L87.7 167l-.6.6.6-.6q-3.45 8.1-3.45 12.5v.05l-4.8 3.1-4.8 3.1q-6.25 3.7-11.2 2.55-4.95-1.15-11.05-6.8h-7l-4.85-5.2 25.2-7.95-4.85 7.05v5.65q4.9-11 15.95-16.25l2.2-5.55q1.85-5.05 7.5-8.5h3.25v4.7" transform="translate(1.35 1.35)"/><path fill-rule="evenodd" fill="url(#D)" d="M170.55 219.9q.55-5.65-2.65-10.1l2-3.3v-.05l1.55-2.65q2.8-6.75 6.55-11.95l.5-.7q19.2-4.15 32.5 5.5 11.2 8.1 18.15 26.1l-2.65 2.3-3.6 2.45-.6.35-.7.35q-10.8 5.6-24.8 2.15l-6.05-1.9q-6.85-4.1-16.4-7.35l-3.8-1.2" transform="translate(1.35 1.35)"/><path fill-rule="evenodd" fill="#dfe5d9" d="M169.9 206.45v.05q-16.45-.1-13.3-1.75 7.95-1.7 13.3 1.7" transform="translate(1.35 1.35)"/><path fill-rule="evenodd" fill="url(#E)" d="m229.15 222.75 4.05-4.35q.2-6.35-1-12.05 8.4 7.7 15.3 13.3 1.15 19.1 5.45 32l.05.25h-22.85l-.2-2.5-4.45-13.45q.8-4.95 2.5-9.85l1.15-3.35m2.75 14 7.15-6.3-7.15 6.3" transform="translate(1.35 1.35)"/><path fill-rule="evenodd" fill="#808d91" d="m231.05 184 2.35-.85q2.95-.75 5.75.05 6.6 1.9 12.2 12.45 2.9 9.85-1.2 15.1l-2.4-3.4.05-.15q.8-4.35-.95-10.4-5.7-10.7-12.45-12.5l-3.35-.3" transform="translate(1.35 1.35)"/><path fill-rule="evenodd" fill="#ddf0ee" d="M254.2 157.45q2.8 32.7 10.9 64.65l1.65 18.55q-7.05-16.05-16.6-29.9 4.1-5.25 1.2-15.1-5.6-10.55-12.2-12.45l15.05-25.75" transform="translate(1.35 1.35)"/><path fill-rule="evenodd" fill="#b7ab84" d="m21.7 198.05 6.4-11.75 4.05-7.4 8.4-2.6 4.85 5.2h7q6.1 5.65 11.05 6.8 4.95 1.15 11.2-2.55l4.8-3.1.4 4.2 1.75 17.85q-1.2 5.75-2.9 11.6l-.25.7-.25.85q-2.1 6.85-5 13.75l-19.5 5.85-2.85-1.4-.1-4.6-14.2-10.25 11.4 4.45 2.4.85 6.8 2.35q5.55-1 10.15-3.05l.7-.3q5.95-2.9 10.2-7.65-4.25 4.75-10.2 7.65l-.7.3q-4.6 2.05-10.15 3.05l-6.8-2.35-1.6-12.55-13.6-6.35-13.45-9.55m59.9 6.65q-6.7 3-13.6 4.5-15.95 3.4-32.85-1.6 16.9 5 32.85 1.6 6.9-1.5 13.6-4.5" transform="translate(1.35 1.35)"/><path fill-rule="evenodd" fill="#d4c6a9" d="M17.65 220.1v-1.7q-.05-4.25.5-7.9.9-6.7 3.55-12.45l13.45 9.55 13.6 6.35 1.6 12.55-2.4-.85-11.4-4.45 14.2 10.25.1 4.6-2.4-.35q-4.7-.85-9.05-2.3-7.5-2.5-14-6.95-4.05-2.8-7.75-6.35m.5-9.6q2.95 2.95 8.9 6.2l7.1 3.45 2.4 1.05-2.4-1.05-7.1-3.45q-5.95-3.25-8.9-6.2" transform="translate(1.35 1.35)"/><path fill-rule="evenodd" fill="url(#F)" d="M95.6 140.45q1.75 15.1-5.8 15v-4.7h-3.25l-2.2-7.2-2.3-6.4-1.55-3.05 11.35 8.1 3.75-1.75" transform="translate(1.35 1.35)"/><path fill-rule="evenodd" fill="url(#G)" d="m74.55 143.45-2.1-6.3q6.4-2.05 11.9 6.4l2.2 7.2q-5.65 3.45-7.5 8.5l-3-1.8q.85-5.65-1.5-14" transform="translate(1.35 1.35)"/><path fill-rule="evenodd" fill="url(#H)" d="m46.95 144.35 1.4-2.9-1.05 3.15-.35-.25" transform="translate(1.35 1.35)"/><path fill-rule="evenodd" fill="url(#I)" d="M63.15 379.7q-20.3-12.15-9.5-56.5l9.85-28.05 2.6-7.5v.05l-1.55 14.4H77.1l-4.5 12.1h15.15v12.2q8.65-.5 13.85-9.45l7.4 3.5 24.1 22.75-5.3 11.05q-1.7 22.9-64.65 25.45m18.8-127.85.05-.2h.1l-.1.25h124.85l-4.8 5.65q-7.35 8.5-25.05 15.85-17.75 7.3-29.7-20.75-17.55 2.6-24.8 20.85-3.8 9.4 5.85 20.15 9.65 10.75 34.1 14.55 24.45 3.75 54.15-4.6l-2.05 5.55-15.5 12.1-.7-.05q-21.35 7.05-41.2 6.65-12.1-.2-23.6-3.15-5.95-1.5-11.75-3.75-6.55-2.55-12.85-5.95-3.75-20.15-17.05-21.2v7.85l-4.85-3.75 1.65-20.95-6.1 11q2.8-11.85 1.6-22.15l-1.6-13.6-.65-.35" transform="translate(1.35 1.35)"/><path fill-rule="evenodd" fill="url(#J)" d="m80.2 256.55 1.75-4.7.65.35-2.4 4.35" transform="translate(1.35 1.35)"/><path fill-rule="evenodd" fill="#c5b79b" d="M63.5 295.15 51.35 305.2 66.9 280l-.8 7.65-2.6 7.5m9.5-25 .6-1.05q-5.35-7.25-13.35-8.35 7.9-6.3 17.5.15 2 .25 2.45-4.35l2.4-4.35 1.6 13.6q-11.45 10.6-12.05 27.75l-.9-2.2q-1.65-4.55-1.65-8.8-.1-6.45 3.4-12.4m-4.05-24.35-.25.2-.25-1 .5.8m-.8 44.6-.5 2.75 2.1 2.3 3.45 1.5 3.9 5.15H64.55l1.55-14.4 2.05 2.7" transform="translate(1.35 1.35)"/><path fill-rule="evenodd" fill="#47332a" d="m66.9 280 6.1-9.85q-3.5 5.95-3.4 12.4l-1.45 7.85-2.05-2.7v-.05l.8-7.65m42.05 35q6.3 3.4 12.85 5.95 5.8 2.25 11.75 3.75L109 320.45l-7.4-3.5-3.8-2.3-.95-4.55 12.1 4.9m90.1 6.25 15.5-12.1 9-3.05 1.05 6.35-5.1 1.75-20.45 7.05M70.5 293.45l.75-2.1.9 2.2-.55 1.35-1.1-1.45m6.6 8.65-3.9-5.15-1.6-2.05.55-1.35q1.8 4.15 4.95 8.55l15.9 6.4 1.8 4.3-17.7-10.7m-8.35-22-2.65 7.55 2.65-7.55m157.3 31.8-.8-6.35 7.35-2.45 1.5-.45 1.35 5.65-3.25 1.5-6.15 2.1m10-9.95 3.25-1.1.75 6.2-2.8.7-1.2-5.8" transform="translate(1.35 1.35)"/><path fill-rule="evenodd" fill="#6d8158" d="m69.75 295.45-2.1-2.3.5-2.75 1.45-7.85q0 4.25 1.65 8.8l-.75 2.1-.75 2M93 308.5l3.85 1.6.95 4.55.1.55.5 2.3-1.9-.6-1.25-3-.45-1.1-1.8-4.3m130.55-2.4v-1.15h1.6l.1.6.8 6.35.1.75-1.4.8-.15-1-1.05-6.35m10.55-3.45-.5-2.05 2.15.15.3 1.2 1.2 5.8.35 1.6-1.75.75-.4-1.8-1.35-5.65" transform="translate(1.35 1.35)"/><path fill-rule="evenodd" fill="#3c2f24" d="m189.4 393.4-11.9-6.6-3.2-27.5 6.4-11.05q4.75 13 10.5 20.15-8.75 9-1.8 25m-82.85 5.95q-24.65.3-29.75-6.3l.45-9.05q5.1.5 11.15.05-3.15 13.3 18.15 15.3" transform="translate(1.35 1.35)"/><path fill-rule="evenodd" fill="#604b38" d="M226.1 382.55q.8 2.85.95 6.6-14.75 9.15-37.65 4.25-6.95-16 1.8-25 4.3 5.35 9.15 7.45l-4.45 6.7q-4.15 9.85 30.2 0m-87.95-19.05v9.55q-7.65.7-7.25 19.55l-.15.95-.3.75q-2 3.65-12.45 4.6l-11.45.45q-21.3-2-18.15-15.3 22.3 1.45 39.55-9.05 5.75-5.3 10.2-11.5m-31.3 28.8q19.5 4.4 18.45-7.5-27.45-2.25-18.45 7.5" transform="translate(1.35 1.35)"/><path fill-rule="evenodd" fill="url(#K)" d="M230.2 251.9h22.9q4.65 14.65 13.05 21.45-5.9 6.65-12.65 14.8-4.85 6.3-5.8 13.05-.3 2.3-.15 4.7v5.05q-.65-.4 0 .15h-2l-6.25-10.25 3.2-8.65h-5.1l-.1-2-.05-.6-.05-.95q-.95-11.3-4.15-20.75-.95-2.85-2.1-5.45l-.75-10.55" transform="translate(1.35 1.35)"/><path fill-rule="evenodd" fill="#e17d04" d="m178.75 342.6-14.45 10.05q-8.35-.9-15.9-3.1l-2.2-.7q-6.95-2.25-13.1-5.65L109 320.45l24.55 4.25q11.5 2.95 23.6 3.15 19.85.4 41.2-6.65l.7.05 20.45-7.05-4.95 3.45-35.8 24.95-.3-.9.3.9m-6.2-4.55 23.25-12.5q-21.35 8.85-43.5 7.6l20.25 4.9" transform="translate(1.35 1.35)"/><path fill-rule="evenodd" fill="url(#L)" d="m229.9 329.2-2.8-10.7q2.5 2.85 5.3 3.7l-2.5 7" transform="translate(1.35 1.35)"/><path fill-rule="evenodd" fill="url(#M)" d="m223.5 367.3-5.1 6.15q-3.15 1.9-6.15 2.85-6.3 1.95-11.9-.45-4.85-2.1-9.15-7.45-5.75-7.15-10.5-20.15l-1.95-5.65 35.8-24.95 3.65 7.2q1.7 3.4 3.85 6.2l1.95 12.8q-8.35-4.2-10.15-12.85-4.3 22.5 9.65 36.3" transform="translate(1.35 1.35)"/><path fill-rule="evenodd" fill="url(#N)" d="M247.7 301.2q2.5 10.1 10.45 10.15 1.8 6.05 17.6-8.3-3.9 4.2-6.75 8.4-6.15 11.75-13.25 11.4-4.55-1.75-6-6l-2.2-5.75q.45.1 0-.15v-5.05q-.15-2.4.15-4.7" transform="translate(1.35 1.35)"/><path fill-rule="evenodd" fill="url(#O)" d="M245.55 311.1h2l2.2 5.75-2.8 8.8-3.45-9.3 2.05-5.25" transform="translate(1.35 1.35)"/><path fill-rule="evenodd" fill="#7c644a" d="M218.4 373.45q5.75 1.9 7.7 9.1-34.35 9.85-30.2 0l4.45-6.7q5.6 2.4 11.9.45 3-.95 6.15-2.85M106.85 392.3q-9-9.75 18.45-7.5 1.05 11.9-18.45 7.5" transform="translate(1.35 1.35)"/><path stroke-width=".05" stroke-opacity=".482" stroke-linejoin="round" stroke-linecap="round" stroke="#000" fill="none" d="M160.65 32.4q8.9-12.1 22.4-10.8-22.5 5.05-22.55 29.9 20.95-15.75 35.75-11.8-18.6 1.2-31.85 22.6 10.4-10 16.05 0-8.75-6-17.5 7.85l1.45 8.95v5.7l11.25 12m.05 0 2.3 2.9q2.2 2.2 3.8 4.8 1.15 1.85 1.95 3.9v.05q2.7 6.95 1.4 16.05 17.35-16.5 35.9-16.65-.45 5.3-16.1 19.1l45.4-10.55q4.95 2.55 5.8 6.95.8 4-1.95 9.55.1 5.05.35 10.1.35 7.9 1 15.8 2.8 32.7 10.9 64.65L268.1 242l4.75 11 .1.25m0-.25 1.15 2.85q2.5 6.3 3.75 10.8l2.4 8.9 12.55 24.8v10.15l-5.6 9.75-5.65 9.8q-7 10.85-11.6 10.35-4.65-.55-8.8 1.2-4.2 1.7-12.85-11.25V327l-6.45-7-.5 5q-3.15 25.9-16.5 43.65l-5.1 6.15q5.75 1.9 7.7 9.1.8 2.85.95 6.6-14.75 9.15-37.65 4.25l-11.9-6.6-3.2-27.5 6.4-11.05-1.95-5.65L165.65 354q-8.35-.9-15.9-3.1l-2.2-.7q-3.25 7.9-8.05 14.65v9.55q-7.65.7-7.25 19.55l-.15.95m-.3.75q-2 3.65-12.45 4.6l-11.45.45q-24.65.3-29.75-6.3l.45-9.05q-8.35-.85-14.1-4.3-20.3-12.15-9.5-56.5l9.85-28.05-12.15 10.05 15.55-25.2 6.1-9.85.6-1.05q-5.35-7.25-13.35-8.35 7.9-6.3 17.5.15 2 .25 2.45-4.35l1.75-4.7.05-.2m.1 0 3.4-8.7-3.25-8.85-13.3 11.7-.25.2-7.25 6.3-2.2 1.9-1.6.55-6.3 1.65-1.8.3q-6.4.95-11.7-.3-4.85-1.2-8.75-4.2l-.4-.3q-6.25-5.05-8.95-14.3-.85-2.9-1.35-6.1-.8-5.2-.75-11.4v-1.7q-.05-4.25.5-7.9.9-6.7 3.55-12.45l6.4-11.75-5.5 1.4-2.75-5.1-13.2 4.7q-9.05-12.7-5.8-27h6.1l7.55-2v-4.9L22 153l4.25 4.35 5.2-.75L44 154.7l4.3-9 1.4-2.9.8-1.7q3.75-7.15 10.15.35 3.95-16.05 13.15-2.95 2.6-12.55 8.05-3.05 1.65-4.85 4.55-5.8 2.05-.7 4.75.6l5.2 10.35 11.4-2.2-1.9-2.6q-15.6-14.4-18.35-31.75 8.1-1.75 23.65 16.15 1.3-6.2 1.75-7.35.45-1.2 1.2-1.95 2-8.15 5.55-14.1m.05 0q6-8.6 16.35-12l3.1-4.55 4.65-12.55q.9-.3 1.75-.45-2.7-23.2-17.85-40.2 8.1-7.05 19.65 25.05-1.5-39.45 23.15-50.75-16.15 12.4-17.2 28.7l-.1 1.6q-.1 5.55 1.5 11.6 2.65-6.35 5.95-10.85m38.2 99.7 6.1-5.15M193.1 137.1l5.75-5M151.7 67.4h10.75l.5 2.75m1.45 8.95q-2.05-1.3-4.2-2.2-3.2-1.4-6.55-1.9l-4.9-.25q-3.2.1-6.55.9l-3.05 4.6m16.55 4.55h8.7m-4.2-7.9q-2.9-7.9-8.5-9.5l-2.65-.45-3.5.3m-17.5 37.95 5.55-8.35.05-.05 8.55-10.95m4.8-1.05h-10.95m10.95 0h8.7m-1.95 23.7 10-5.25 7.1 7.2 3.2-5.65 6.1 12.25 1.3 2.65 2.25-11.25.05-.05m-48.95.8 12.55-5.95 6.4 5.25m-42.6 11.7q2.75 6.4 2.75 11.2l-.25 5.2 6.6-29.7q3.35-1.3 7.8-1.7l4.15 5.25 2.6-1.25m13.95 37.9q4.2-6.05 9.2-.75m-13.15 9.8h11.35q3 2.75.1 4.4-6.1-3.6-13.95-1.9-2.85.6-5.9 1.9-2.75-1.6-.35-3l8.75-1.4m-3 20.4 4.6-.2 6.75-1.1 7-1.6q3.6-.75 5.35-2.65 1.75-1.9 3.25-2.45 1.5-.6 1.75-1.2l4.3-5.4 2.55-2.05 1.1-6.8.8-5.1m2.95-16.15q.9-3.3 2.95-7.35m-1.2 10.6 2.6-5.4 1.25-1.5q10.3-12 23.35-15.2m-23.85 29.05-3.25 2.8-3.95-2-.85 5.15m4.7-12.9 1.35 2.3q.35 1.65-2.1 2.75m-3.4 2.55-.05.05.05-.05.3.15.6-4-.9 3.85m.9-3.85.9-3.75q.15-1.55.6-3.25m1.5 23.2-5.15-1.95h-.1m10.45 3.9-5.2-1.95m-10.9-21.2q-4.8-1.75-9.65 1.55l-1.2.9h2.1m-17 13.8-3.9.35-1.35-.75m-7.95.75q-2.15-5.45 1.7-4.3 2.05.6 5.85 3.1l.45.3 1.3.9m47.1 12.25-3-2.1 3.3 2.75-.3-.65 3.05 2.05 1.1-5.7-7.15 1.55-.8-.7h-9.1m9.9.7v4.45l-5.15-3.75v5.4l-4.25-4.65 4.25-.75 5.15-.7m-.8-.7 2.45-2.9 5.5 2.05 15.9 5.9 2.4.9m-65.65-15.75 1.7-3m-33.3 8.85q-1.25-3.6-1.95-7.75l-.35-2.5q-.55-4.2.1-6.85l.4-2.25m-16.7 5.2q1.75 15.1-5.8 15l-.75 5.6 6.8-2.05 8.15-2.25 10.1-2.15 1.45 3.7q2.95 6.5 7.9 11.05l12.25 5.55 4.75.3m-24.9-16.9-2.2 4.75-.05.1v.05l.05-.15 2.2-4.75-6.25 2.05-5.3 5.25v-8.85m9.35 6.45v-.15m0 .15-1.75 8.75q-2.5 5.45 1.45 12.35m21.9 20.95 3.35 2.35 1.6 1.05 8.05 3.3 3.65-5.7q-13.5-17.05-26-20.7m-5.65-52.3q6.15-4.2 11.4 1.85h-2.15m3.7 68.65 2.05 1.5m14.3 13.95 1.6-6.1-2.9-1.15m1.3 7.25v.05q-.85 6.6 7.7 9.2 10.55.75 13.6-8.55.55-5.65-2.65-10.1-7.95-4.25-17.05 3.3m-1.6 6.15v-.05.05m25.1 1.85q-1.85 7.15-6.45 10.3-2.2 1.5-5 2.1-3.95.85-9.15-.15-3.65-2.15-5.55-4.75-2.8-3.85-2.05-8.65-8.4 2.35-17.55 9.85-9.15 7.45-21.85 9.05-6.35.8-10.45.25t-5.9-2.45l-4.15-4.35-4 1.8m67-14.9-3.1.75m-13.25-16.2q-14.95-10.85-19.85-19.45m85.15-7.8q-7.05 2.45-12.65 7.15-3.9 3.2-7.05 7.5l-.5.7q-3.75 5.2-6.55 11.95l-1.55 2.65v.05l-2 3.3m61.25 12.95 4.05-4.35q.2-6.35-1-12.05-3.1-14.2-14.8-24.9l-5.1-4.2-20.35-13.85m-35.35 41.35q-2.4.5-5 1.5m46.6-29.75.05-.05 3.7-1.1m.05-.05-3.05-3.8q-4.05-4.55-9.75-9.5m-19.3 44.45q-5.35-3.4-13.3-1.7m13.95 15.15 3.8 1.2q9.55 3.25 16.4 7.35l6.05 1.9q14 3.45 24.8-2.15l.7-.35.6-.35 3.6-2.45 2.65-2.3-1.15 3.35q-1.7 4.9-2.5 9.85l4.45 13.45.2 2.5m-21.2-88.3 6.3 5 5.5 4.8q5.05 4.65 8.25 9.55l.75 1.2.25-.05 1.05-.1 2.35-.85q2.95-.75 5.75.05m-9.15 1.3q.5-.3 1.05-.5l3.35.3q6.75 1.8 12.45 12.5 1.75 6.05.95 10.4l-.05.15 2.4 3.4q4.1-5.25 1.2-15.1-5.6-10.55-12.2-12.45m-9.4.95.25.35 2.1 4.25q7.9 8.15 14.7 17.3l.95 1.3m-56-71.6-5.8 4.95 66.9-9.15M5.5 168.4l-3.3-6.75m17.05 3.1-.65-2.8-2.75-2.3m10.4-2.3 2.75 11v10.6l.45 3.1 4.05-1.8 8.4-2.6 25.2-7.95q2.45-3.15 6.55-3.65l-5.65-5.5q-3.5 6.4-11-1-1.65-1.65-1.3-4.7-4.15-2.55-7.05-1.05l-4.65.9m-28.15.05 5.25 6.35 2.75 10.45.1 17.5m-2.75-5.1V173.7l-1.95-8.95M5.5 168.4Q11.9 183 8 188.65m29.9 33.9-2.4-1.05-7.1-3.45q-5.95-3.25-8.9-6.2m21.25 22.9q-7.5-2.5-14-6.95-4.05-2.8-7.75-6.35m10.45-33.8v-5.6m67.5-40.25-.6-1.2m-8.45 11.5h3.25v4.7m-5.45-11.9-2.3-6.4-1.55-3.05m-8.05 3.05 2.1 6.3q2.35 8.35 1.5 14l3 1.8q1.85-5.05 7.5-8.5l-2.2-7.2m3.35 23.45-.6.6.6-.6q-3.45 8.1-3.45 12.5v.05l-4.8 3.1.4 4.2m33.45-23.65-4-2.85-5.3-3.6m-14.95 4.3-1.35 5.95 8.15-8m-19 5.8-4.15-.15-.25.2-.15-.15.4-.05q2.7-2.65 3.35-7.2m.8 7.35 2.2-5.55m7.2 73.05q-5.45-5.85-4.3-15.4 4.05-18.3 16-32.3 4.45-5.15 10-9.75h.05l3.6-2.9m-47.5-24.7 1.25 2.25q1.1 5.85 1.3 9.7m-2.55-11.95q-2.6-4.55-4.8-7.15M49.7 142.8l-1.05 3.15M80.8 184l-4.8 3.1q-6.25 3.7-11.2 2.55-4.95-1.15-11.05-6.8h-7l-4.85-5.2m25.2-7.95-4.85 7.05m-10.55 51.1-2.4-.85-11.4-4.45m14.3 14.85 2.85 1.4 19.5-5.85q2.9-6.9 5-13.75-4.25 4.75-10.2 7.65l-.7.3q-4.6 2.05-10.15 3.05l-6.8-2.35m-15.2-18.9-13.45-9.55m13.45 9.55q16.9 5 32.85 1.6 6.9-1.5 13.6-4.5L81.2 188.2m1.75 17.85q-1.2 5.75-2.9 11.6l-.25.7-.25.85m-50.1-31.55 4.05-7.4m49.85 73 .1-.25m.5.55 1.6 13.6q1.2 10.3-1.6 22.15l6.1-11-1.65 20.95 4.85 3.75v-7.85q13.3 1.05 17.05 21.2 6.3 3.4 12.85 5.95 5.8 2.25 11.75 3.75 11.5 2.95 23.6 3.15 19.85.4 41.2-6.65l.7.05 15.5-12.1 2.05-5.55m-134-51.4-2.4 4.35M52.2 237.4l-2.4-.35q-4.7-.85-9.05-2.3m28.75 57-.5 2.75 2.1 2.3.75-2 .75-2.1q-1.65-4.55-1.65-8.8l-1.45 7.85-2.05-2.7-1.55 14.4h12.55l-3.9-5.15-1.6-2.05-1.1-1.45m-4.4-5.8-2.6 7.5m8.65-1.6-.9-2.2m15.8 6.55-4.8-3.7m-10.1-.65-.55 1.35m5.5 7.2q-3.15-4.4-4.95-8.55m29.45 23.4q-5.2 8.95-13.85 9.45v-12.2H73.95l4.5-12.1 15.9 6.4 3.85 1.6 12.1 4.9m-14.15-2.2.45 1.1 1.25 3 1.9.6-.5-2.3-.1-.55-.95-4.55m-1.6 3.8-1.05-.5m-1.2-4.9 1.8 4.3-17.7-10.7m24.5 14.85 7.4 3.5 24.55 4.25m-35.65-9.5 3.7 1.75-3.8-2.3m-31.7-27 2.65-7.55m.85 2.45q-.1-6.45 3.4-12.4m15.4 113.9q-6.05.45-11.15-.05m176.25-95.85q-4.85 6.3-5.8 13.05 2.5 10.1 10.45 10.15m-32.65-75.4q-3.95 8.25-.65 15.7l.2.25m.15 0q3.3 4.9 5.75 10.55l-.75-10.55m2.1 40.5-4.9 3.75-3.25-11.75-3.15-3.5v10.5l-4.4 12.2m8.65 1.95-.1-.6h-1.6v1.15l1.05 6.35.15 1 1.4-.8-.1-.75-.8-6.35 7.35-2.45 1.5-.45-.5-2.05 2.15.15.3 1.2 3.25-1.1.75 6.2 3.45 9.3 2.05-5.25h2q-.65-.55 0-.15v-5.05q-.15-2.4.15-4.7m-10.4-11-.05-.6-.05-.95-4.9 3.75m-12.8 21.8L215.9 319l3.65 7.2m14-15.05-6.15 2.1m3.85 17.3-2.8-10.7q2.5 2.85 5.3 3.7l4.3.15v-7.8l3.8 4.1m-25.95-9.5 9-3.05m1.05 6.35-5.1 1.75-20.45 7.05m38.25-31.05.1 2h5.1l-3.2 8.65 6.25 10.25m2 0q.45.1 0-.15v.15l2.2 5.75q1.45 4.25 6 6 7.1.35 13.25-11.4 2.85-4.2 6.75-8.4m-38.5 4.7.35 1.6-1.75.75-.4-1.8-1.35-5.65m3.15 5.1-1.2-5.8m10.9 23.7 2.8-8.8m-2.8 8.8-3.45-9.3m-13.6 12.85 2.85 10.85q-6.25-3.2-10.7-9-2.15-2.8-3.85-6.2m19-36.2q-.95-11.3-4.15-20.75-.95-2.85-2.1-5.45m-67.25 20.35q-8.5-.1-9.3 6.7m24.05 52.2.3.9L215.9 319m-68.35 31.2q-6.95-2.25-13.1-5.65l-24.1-22.75m18.95 54.55 5.5-20m4.7 8.5q-4.45 6.2-10.2 11.5-17.25 10.5-39.55 9.05m111.95-8.2q-4.85-2.1-9.15-7.45-5.75-7.15-10.5-20.15m19.65 27.6q5.6 2.4 11.9.45 3-.95 6.15-2.85M74.55 232.95v7.2m165.85-8.35-7.15 6.3m-125.5-99.7 5.4 7.3m-20.7-37.6q11.35 4.25 18.95 21.75l-1.35 4.05q-.8 2.2 1.25 3.4m140.2 74.8q9.55 13.85 16.6 29.9"/></g><g id="S" stroke-opacity="0" stroke-linejoin="round" stroke-linecap="round" stroke="#f0f" fill="none"><path d="M187.95-293.5v380h-380v-380h380" transform="translate(192.55 294)"/><path d="m187.95-293.5-190 190 190 190m-380-380 190 190L-192 86.5M92.95-38.4H-97" transform="translate(192.55 294)"/><path d="M98.65-227.1V8.1h-204.1v-235.2h204.1z" transform="translate(192.55 294)"/></g><radialGradient spreadMethod="pad" r="819.2" id="a" gradientUnits="userSpaceOnUse" gradientTransform="matrix(0 -.005 .0094 0 8.65 4.4)" cy="0" cx="0"><stop stop-opacity=".263" stop-color="#cc643e" offset=".451"/><stop stop-opacity="0" stop-color="#b88e03" offset=".867"/></radialGradient><use xlink:href="#P" width="100" height="40" id="T"/></defs><path fill="none" d="M-1-1h170v230H-1z"/><use xlink:href="#Q" width="294.15" transform="translate(1.235 .79) scale(.5627)" height="402.05"/><use x="86.192" y="199.237" xlink:href="#R" width="17.3" transform="matrix(.9687 0 0 1.1268 -20.75 -146.6)" height="8.8"/><use x="107.14" y="167.65" xlink:href="#R" width="17.3" transform="matrix(.7793 0 0 1.3391 5.55 -147.7)" height="8.8"/><use x="83.494" y="224.5" xlink:href="#S" width="381" transform="translate(-192.55 -294)" height="381"/><use x="53.354" y="143.46" xlink:href="#T" width="100" transform="translate(-84.8 -168.25) scale(1.5649)" height="40"/></svg>