<svg width="105" height="230" xmlns="http://www.w3.org/2000/svg" xmlns:xlink="http://www.w3.org/1999/xlink"><defs><linearGradient y2=".5" y1=".5" x2="1" x1="0" spreadMethod="pad" id="a"><stop stop-color="#eccf60" offset="0"/><stop stop-color="#e7bf21" offset="1"/></linearGradient><linearGradient y2=".499" y1=".499" x2=".999" x1="-.001" spreadMethod="pad" id="c"><stop stop-color="#fff" offset="0"/><stop stop-color="#d2d293" offset="1"/></linearGradient><linearGradient y2=".499" y1=".499" x2="1" x1="-.001" spreadMethod="pad" id="d"><stop stop-color="#fff" offset="0"/><stop stop-color="#eae1bf" offset="1"/></linearGradient><linearGradient y2="2.063" y1="2.063" x2="1.608" x1="-.631" spreadMethod="pad" id="e"><stop stop-color="#fff" offset="0"/><stop stop-color="#f4f3d7" offset="1"/></linearGradient><linearGradient y2="1.718" y1="1.718" x2="14.753" x1="-3.7" spreadMethod="pad" id="f"><stop stop-color="#fff" offset="0"/><stop stop-color="#f4f3d7" offset="1"/></linearGradient><linearGradient y2=".496" y1=".496" x2=".993" x1="-.004" spreadMethod="pad" id="g"><stop stop-color="#fff" offset="0"/><stop stop-color="#f4f3d7" offset="1"/></linearGradient><linearGradient y2=".5" y1=".5" x2="1" x1=".001" spreadMethod="pad" id="h"><stop stop-color="#fff" offset="0"/><stop stop-color="#f4f3d7" offset="1"/></linearGradient><linearGradient y2=".494" y1=".494" x2=".997" x1="-.001" spreadMethod="pad" id="i"><stop stop-color="#fff" offset="0"/><stop stop-color="#f4f3d7" offset="1"/></linearGradient><linearGradient y2=".495" y1=".495" x2=".999" x1="-.021" spreadMethod="pad" id="j"><stop stop-color="#fff" offset="0"/><stop stop-color="#f4f3d7" offset="1"/></linearGradient><g id="l"><path fill-rule="evenodd" d="m23.95 162.95.55.5-.55-.45v-.05" transform="translate(1.75 1.75)"/><path stroke-width="3.5" stroke-linejoin="round" stroke-linecap="round" stroke="#5b523e" fill="none" d="m168.7 41.2 1.1-4.55q-1.55-24.15-27.25-21.15l-2.35-2.1h-6.25l-.2.1-1.9-2.1-3.75-3.45-2.55-.65-6.25-5.15L119 2l-.55-.25h-.9q-15.15.4-26.15 7.1l-1.9 1.25q-3.05 2.05-5.75 4.6l-.05.25-.2.5-.3.95-.7 6.3-1.15 1.7-.1.6-.2 1.75h-.4l-5.8 4.7-.9 4.65q-1.2.4-2.25.95Q55.9 44.5 59.8 68.3q7.9 5.85 16.8 8.15 6.1 1.6 12.65 1.45-7.2-1.5-11.7-4.95-4.35-3.4-6.2-8.6.1-2.1.55-3.75l.4-1.35q1.85-5 7.45-5.55l.2.5 2.75 1.85 5.65-.4 4.8 6.9h.4v4.65h.6l8.7 1.35 2.85 1.4 5.05 1.8q1.45 1.2 2.1 3.05l.05.25q.5 1.85.2 4.35l-4.5 1.85-3.25-3.7-3.05 2.95h-6l.1 4.65q-1.85.95-3.9 2.25-3.05 1.85-4.2 4.7l-.1.2q-2.45 5.85-2.05 12.1l.05.75 2.9 5.25.1.35.1.35.1.25q3.25 9.95 1.85 27.25v.1l-2.9.5.25-1.05-1.65-.3-.25.95-.6-.55-2.4-1.35-.05-.05-3.75.1-2.2 3.95-.25 1-.7.3-1.25-1.7-.25.2-5.45.2-3.5 3.2-.2 1.85-6.6-.65-1.2 1.35-5.45-1.35-2.1 2.9.25 4.7-.2-.2-3.6-7.1-6.3-1.85-1.8 1.55-2.35-7.5 2.05-3.5-3.15-2.4-1.05.25L24 109.8l2.2 24.5-1.9.5-1.1 4.15 3.85 1.25.4-.1 1.95 7.75 1.2 4.75.05.65-.05-.65-8.85.55-2.9 2.65.9 3.8 3.4 1.5 3.75-.5-1.15 3.9h-.2l2.4 2.25.1.45-.55 2.85.45 1.6 1.25 1.55v.05l-2.8 1.1-.15 1.95 1.55 2.7 3.2.3 4.6-.3.85 4-29.5 7.15q-3.6 4.45-5.2 9.9 1.8 3.8 4.95 6l8 1.4-4.35-4.3q.75-3 3.4-5.1l9.25-2q2.4 4.05 4.85 19.75l1.3 9.45 2.95 10.65 4 19.7.6 10.7 7.15-.95-7.45 3.25 6.5 13.1v13.1l8.2 23.85 4.15-.8-3.95 3.35 3.45 13.25-2.45 4.8v.05l1.45 2 2.8-.8.75-2.35 4.45 6.9.15 4.7 1.3 1.15 4.75 13.45-15.7 7.35-4.35-1.35-5.9 2.05-.7 1.6-.05.1-3.15.95-.6 3.15-6.15 2.15.4 1.1-.85-.95-.2-.3.25 10.7q2.8 3.7 5.65 8.65l.85 1.45 5.3 9.25v.05l4.35-1.4 5.25 7.7 17.3-5.35v-8.8l-.1-.35q4.7-1.35 9.45-2.55l4.3-1.1 7.2 9.1.4-.25 16.7-4.6-.05-9.7 4.75-.95-.85-10.95h-.25l-.15-.4-4.5-5.05-.4.35.35-.4q2.25-2.35 3.15-5.2v-.05l6.6 2.8.7-3.6 5.65-6.65 1.85 9.35 5.85 5.35 4.05 1.2.4.1 2.5.25.7-11.3 4.5 10.3 1.2.8.05 5.15-5.05 1.45-.45 12.4-.75.6.45 9 .4-.35q.7 3.25.85 6.55.1 3.6-.35 7.3l.1.05h-.1l.3 9.7 1.9-.1-.5 9.05q27.4-2.4 52.4-.8l.5-.35-1.75-8.65-.05-.45h2.2l.6-10.05.15-1.15q-1.6-7.4-1.6-14.75v-1.4l.1-2.6.3-3.45-1.65-1.7.45-.45-.2-9.05-7.15-2.5-3.3-4.9 6.6 1.7 2.2-11.05 8.25-1.05.5-7q-1.95-5.85-6.3-21.45-5.35-19.1-11.1-44.55l-1.2-5.45 2.55-7.75-.1-.3-5.9-12.8-.15-1-.1-.6-.95-5.2 2.1-9.85-7.45-21.3-.2-1.2-1.7-10.7 5.8 8.3-.4-8-3.45-8.2.7-16.65-1.7 1.15q-2.6-4.5-4.5-10.3l-1.6-5.35-.6.15-.45-.4.8-.8 2.85-3.4 1.25-3.7 3.7 2.85.3.05 7.6-4.55v-2.4l.6-1.1-.2-.15.05-.1q.35-.25.75-.45l-.25.2.4.65-3.2 10.7-2.8 11.3 3.85-.9.8 6.3 1.4-16.15 2.35-13.65.65-.4-1.1-2.45.5-.5.05.05-.15.25-.1.05.05.05 1.2.7.25 18.45 1.5 19.15 6.9-3.7 5.4 9.35-7.1-25.85-3.8-22.5 1.05-1-2-1.8.2-.5-.45.05 3.3-3.55-1-2.2.15-.95.2-1.1 2.5-4.05.2-1.9.4.1.75-5.3.2-.4-2.05-1.35.05-1.1.05-.25-2.45-4-6.15-27.45-5.65-8.65.15-3.2v-.55l-.45-1.15-1.25-4.5q-.85-3-4.2-6.95-.9-1.7-1.4-1.95l-.15-.1-.8-.55q-.45-.3-1.25-.6L161 69.1q-2.45-.8-4.95-.8h-.25q-2.45-.05-4.95.7l-7.1 2.2-2.25.65-.1.05-1.1.3-3.8.65-2.3-.3-.05-.05-1.05-6.5 1.45-2.2q1.85-3.1 3.2-6.7l5.55-5.65.05-.05-1.6-5.15-.25-6.2 3.95-3.65 1.25-2.5q5.35-3.1 10 .7 1.6 1.25 3.1 3.4.95 4 .2 7.95-1.35 6.7-7.8 13.2 6.7-3.85 10.9-8.55l.05-.05q3.8-4.3 5.55-9.35m-86.3 99v.05h.1l.1-.35-.2.3m62.65-6.45-.15-.2 2.75-7.4 10.45-20.45 3.45 12.85 4.5 9 .1 1.5-3.65 2.25-1.95 3.35.8 1.75-.55.6-1.75 1.55-1.25 2.3.5 2.2-2.7 7.1-.25.2-.55 1.25-4.75-.1-.15-.7-6.05-3.1-.25-1 6.1.25-1.55-5.65 1.9-7.15-4.3-2.2-.7 1.8m-88.25 38.6-2.1-4.7-2.75 3.65-1.8 1.2-.55-.2-1.2.5.25.65.05.05 1.5 6.05 24.6-6q4.85 1.55 7.7 6 .45 3.9-.6 8.05l-5.8 6.35 1.4-6.6-.3-.4q-1.2-2.45-3.15-3.3l-10.8 2.8-.25-.25-.35.1.1.45 3.95 2.15 5.1 17.1-.3.25 2.35 15.9 3.8 13.35-7.4 5.8.55 2 7.35-2.15 1.2 6.5.6-3.45.3-1.75.2-1.3.85-5.1 1.1-7.1-2.05-7.1 4.35-11.55h.3v-.15l.05-.45 2.35-21.15v-.45l.15-1.3.05-.75-.15.65-.15-.15-.05-.1 7.2-15.35-2.25-2 1.25-5.95-.35-.05-.35 1.75-2.3-1.4-.05-.05-.1.05-4.7 3.95-2.65-.05-3.1-1.2-.75-1.55-.5.05-1.3 3.2-5.95 1.6-3.3-2.25-.65-.95-3.8.6-1.15 4.7v.45l-5.25.15-.4.2m3.5 149.25-.05-.25.1.05-.05.2m108.75-155.5v-.05l-.1-.3-.2.5 1.35 3.85q-.35-2.1-1.05-4M133 159.45l-.25-.3 1.5-.35.35.3-1.6.35m-9.4 175.35 4.4 11.95-7.55 10.6 1-12.1 2.15-10.45m49.35-46.95.6.05h-.6v-.05m19.05 73.6 3.2-3.35-.55 4.3-6.5 3.25-2.3-.7.25-4.1 2.1-1.8 3.8 2.4m-31.5 53.25v-1.55h.85l-.85 1.55m.2-15h-.2l.2-.45v.45m-18.2-36.15 1.1-8.9 1.6 7.9-.55 6-2.15-5m-11.35-5.8.85 3.15 1.95-3.9-1.15-4.95-1.65 5.7m-86.3 27.75-.05-.05-.05.05h.1m-.45.5.35-.5-.25.1-.1.4-.8 3.9-.8-.15q.45-2.1 1.6-3.75m-1.9 12.5.1-.05.1.35.15.3v.05l-.6-.6.1-.05h.15m19.45-4.1H62l.1-.05-.15.05"/><path fill-rule="evenodd" fill="#6b5136" d="m83.4 27 .05-.2q4.7-24.1 34.9-21.8 7.5 3.2 15.35 12.65 4.3 8.65 5.1 17.1.25 2.9.15 5.85l-.5 4.55q-1.35 9.75-5.65 16.9l-1.6 1.05.15 1.15-2.75 3.45-.1.1-.25.25-5 4.35 5-4.35.15.05q-.95 2.8-2.45 5.1l-1.85.9-.1.05-.4.15-.15.05-.75.3-4.35 1.3q-4.7-1.2-7.2-2.65l-.05-.25q-.65-1.85-2.1-3.05l7 1.6 7.2.8h.05v-.05l6.55-8.9-5.35-1.6-11.4 2.8-2.55 4.25-6.55-.7q-6.2-2.75-10.15-7.15l-2.1-2.5q-7-8.8-8.8-18.1-1.25-9.05.5-13.45m49 43.75.05.05 2.3.3 3.8-.65 1.1-.3.1-.05.55 1.95h-5.5l-1.65.65-.75-1.95m26.65 43.2-2.7-10 .45-4.45.5-.5.2.25 1.35 1.2 2.3 1.55-1.5 4.4-.6 7.55m-5.5-42-.05.2-.5-.2h.55M106.8 79.5l.2.6 3.8 1.2.05.1 6.45 13.65 4.9 7.15-.05.05-8.65 11.55-.35.1v-.05l-.75-3.95.75 3.95v.1l-2.15 4.5-11.65 5.3-.8.35.8-.35 1.7 5.2.2.6.55 13.4-.05.05-2.05 5.1-.2.45-5.55 2.05-2.25 10.8-1.05-.2-37.2 4.6-.3-.25-2.95 4-1.35.85-.45.35-.55-.2-1.2.5-.1.05-.25-.9-1.7-5.5-.55-1.75-1.6-5.15q1.15 1.55 3 2.6l.05.15h.15l1.85-5.35-.25-7.8 1.8 3.55.35.35 17.55-7.45 8.55 9.85q9.65-9.35 22.35-11.2.5-8.8-2.75-21.15l.4-.3-.2-.25-.1-.2-.05-.05v-.05l-.4-.7-.05-.05-.15-.25 4 1.9 9.15-5.25 4.7-6.25v-.35l-.2-2.9L113.65 96l-1-1.15-.15.05-8.25-14.2-.05-.3 2.6-.9m22.95-.75-5 1.65-.55-1.65 4.75-1.95.8 1.95m-37.2 23.9h-.4v-4.8l-.7-3.7 1.6 1.1.5.55.8.8-.15.3-.8 2.35q-.55 1.6-.85 3.4m5.6 20.8.4.65-.55.3q-1.4-1.55-2.5-3.35 1.1 1.8 2.5 3.35l.55-.3-.4-.65m-52.6 38.25-1.5 1.25 1.5-1.25m71.8-43.95.05-.05.9.15-.05.45-.9-.55M34.4 155.1l.15.75-1.5 1.75-.15-.05-7.7 1.05-.05.25-3.75.5-3.4-1.5-.35-1.85 1.35.3 9.95.5.6-.3 3.5-.45.2.2.95-1.1.2-.05m.8.7-.05-1.3 3.65-.9-.15-3.85-.3.05-.05-.2 1.3-3.85 2.55.15-.05.25.3 5.95-1.25 1.6-.45.55-1.4 1.5-1.6.15-2.5.25v-.35m2.4 6.2-.2.45-.4.95-1.25.4-1.75-.1-7.8 1.3-2.25-2.1-.15-.15h.2l-.05.15.05-.15 9.5-.3 3.05-.05v-.05l1.05-.35m2.6 4.6-.45 2.15-1 .7-1.45 1-9.55.8-.3.2-1.25-1.55-.45-1.6 9.4.7 3.2-.7 1.85-1.7m-.3 7.3.2 1.3-3.4 1.65-2.85.4-4.6.3-3.2-.3-1.55-2.7 10.95 1.4v.05l2.95-1.05v-.2l1.45-1.1.05.25m7.2-3.6-.8-.1.8.1m1.65-.3.1.4-.1-.4" transform="translate(1.75 1.75)"/><path fill-rule="evenodd" fill="#70543a" d="m128.6 67.7 2.75-3.45 1.05 6.5.75 1.95-8.4 3.35-.35-.85 1-1.2.55-.8q1.5-2.3 2.45-5.1l.2-.4m14 3.4-2.3.95 2.3-.95m-2.3.95-.55-1.95 2.25-.65 7.1-2.2q2.5-.75 4.95-.7l-5.55 6.55.05.15-18.75 5.5h-.05l-.8-1.95 11.35-4.75m26.8-1.6.15.1q.5.25 1.4 1.95 3.35 3.95 4.2 6.95l1.25 4.5.45 1.15v.55l-.15 3.2-.5 1.7q-.75 2.25-2.35 4.4l-.05.05v.05l-.85-.6-.05-.45h-.3l-.15-3.45q-.4-3.9-1.55-7.8l-.65-1.5q-1.45-3.1-4.15-6.25 2.35.8 5.35 3.7-.05-4.15-2.05-8.25m-22.5 57.35-4.05 10.85 1.55 7.3 5.5 6.25q-4.8 1.95-9.55 3.4l-.25.05-1.7-1.5-1.65 1.05h-3.15l-1.05 2.35-4 .7-.15.05-.65.1-.4-3.5 3.55-10.65-2.25-14.45.15-.1-.15-.2-.5-3-8.95-6.15 1.35-2.05.05-.45-.9-.15.05-.35 6.85-11.9.05-.1 3.15 4.65 7.05 2.15.15.1.1.85q.9 1.2 3.2 1.05l.95-.5q1.3-.85 1.45-2.45l.4-.45q3.55-3.15 4.85-6.55l.65-1.55q-.2-5.9-1.25-12.1l-.45-2.4 6.55-6.95.1.35v6.35l.2.6.7 2.05.3.75.05.1-1.65 1.7-.2-1.05q-.2-.5-.3.4.1-.9.3-.4l.2 1.05.15 1.25q.4 3.6.3 5.7l-.15 2.25-.05.35-.35 3.2-2.5 3.75q-2.75 3.65-6.15 6.75l-.4.35-1.3 1.1-.15.05-.45.05.15.2 2.3 3.25-.2.2 2.55 6.25m-45.25-4.05 11.65-5.3-1.05 2.4-7.45 4.1-1.45 4-1.7-5.2m2.4 19.25.2 6.65-2.25-1.55 2.05-5.1m10.4-10.9-1.75 3-2.85.4-.05-.4 4.65-3m10.65 2.5.05.35-4.95.85-3.55-3.45V130h.75q2.25 2.55 7.7 4.6m-15.55 14.8 4.7-2.2-1.6 3.4-3-1.05-.1-.15m32.55-31.5-1.35.15h-.15q-10.85 1.25-20-.2 9.15 1.45 20 .2h.15l1.35-.15m-23.4 29.05 6.65 2.35-4.25.55-.05.05-2.35-2.95m22.1-6.35 2.05-1.95-2.05 1.95m23.75 248.7-.2.6-3.1 7.6-.2.45-.25-.1-.05-.05-4.95-7q-5.25-2.45-9.65-1.1l-3.8 3.35 1.7-6.6.2-4.1v-1.15h.2l16.35 7 8-9.5 1.8-.8 2.05 4.6 3.8 2.8q-5.9.2-11.9 4M189.2 400l-.4.45-3.5 1.25v1.85l3.3-.6-1.15 2.75-3.35-.35-1.1-1.2-.4-.8-.2.05.15.25.1.15-3.5 1.9.8 2.15 3.75-1.75.1-.25.8 1.65-4.65 3.85-2.55-.3.35.95-5 2h-.25l-1.25-.15h-.3v.05l-.05.6v.35l-6.15 2.15-3.85-2.35-1.3-3.25 7.4-13.7q6.05-6.25 14.6-4.45l7.6 6.75m-18.65 10.75.55.8-.15 2.3.15-2.3-.55-.8-1.45-2.25h-.2l-.2.15-4.55 1.05 1.05 2.8.3-.1 4.4-1.2.65-.45m-1.9-4.45.25 2.2-.25-2.2m6.95.25-3.7 1 .05.05.9 2.8 3.8-1.2-1.05-2.65.05-.05-.45-1.4.45 1.4-.05.05m6.25-4.5.55 1.35-.55-1.35m-5.2 7.15.75 1.85-.75-1.85m-20.4 4.8-4 3.35h-.35l-7.5-.65-4.7-4.7 2.7-7.2-1.45-2.6h.05l2.5-1.9q4.55-2.95 8.3-.45 3.4 2.6 3.35 6.1l-1.45 2.7 2.55 5.35m-13.35-47.2.55-6 2.75 13.6-3.3-7.6m2.1 40.65-1.45 4.45 2.9-.45 6.55 1.05-1.3-4.95-6.7-.1m-1.45 4.45-.55.05.55-.05" transform="translate(1.75 1.75)"/><path fill-rule="evenodd" fill="#956d48" d="m103.95 68.2 6.55.7 2.55-4.25 11.4-2.8 5.35 1.6-6.55 8.9v.05h-.05l-7.2-.8-7-1.6-5.05-1.8m29.2 4.5 1.65-.65h5.5l-11.35 4.75-4.75 1.95-2.25 2.6 2.8-.95 5-1.65h.05l18.75-5.5-.05-.15 5.55-6.55h.25q2.5 0 4.95.8l5.8 1.95q.8.3 1.25.6l.8.55q2 4.1 2.05 8.25-3-2.9-5.35-3.7 2.7 3.15 4.15 6.25l.65 1.5q1.15 3.9 1.55 7.8l.15 3.45h.3l.05.45.85.6-.05.05-.3.25-.35.15-.2.1q-1.5 4.25-4.35 8 2 .85 5.75 3.2 2.65 5.35 4.55 10.15 1.95 5.2 3.05 9.8v.05l-1.75 3.9-1.3-.75q-4.85-2.35-10.2-1.5l-.15.35-.5-.2-5.9-11.8-.75-2.85.6-7.55 1.5-4.4-2.3-1.55-1.35-1.2-.2-.25-1.8-2.1q-1.75-2.4-3-5.5l-.05-.1-.3-.75-.7-2.05-.2-.6v-6.35l-.1-.35-6.55 6.95.45 2.4q1.05 6.2 1.25 12.1l-.65 1.55q-1.3 3.4-4.85 6.55l-.3.1-.35.1q-1.2-1.15-2.95-1-2.3.65-2.45 2.15l-.2.05.2-.05-.05.15-.15-.1-7.05-2.15-3.15-4.65 13.4-22.9 1.35-2.75-16.9 22.5-4.9-7.15-6.45-13.65-.05-.1-3.8-1.2-.2-.6 4.55-1.85q.3-2.5-.2-4.35 2.5 1.45 7.2 2.65l4.35-1.3.75-.3.15-.05.4-.15.1-.05 1.85-.9-.55.8-1 1.2-.05.05-1.6 1.6 1.6-1.6.05-.05.35.85 8.4-3.35m20.4-.75H153l.5.2.05-.2m-36.95-4.4-.1-1.05-.15-.35.15.35 7.6-2.5 1.05.85-1.05-.85-7.6 2.5.1 1.05m-6.1 13.15.3.6-.3-.6m11.9-3.55-.4.3.4-.3M93.55 95.8l-.5-.55-1.6-1.1.7 3.7v4.8h.4q.3-1.8.85-3.4l.8-2.35.15-.3-.8-.8m1.2-.65-.4 1.45.4-1.45m-10.3 8.25-.05-.75q-.4-6.25 2.05-12.1l.1-.2q1.15-2.85 4.2-4.7l5.6-3.2 7.85-2.05.05.3 8.25 14.2.15-.05 1 1.15-1.45 10.65.2 2.9v.35l-4.7 6.25-9.15 5.25-4-1.9.15.25.05.05.4.7v.05l.05.05.1.2.2.25-.4.3q3.25 12.35 2.75 21.15-12.7 1.85-22.35 11.2l-8.55-9.85 11.7-5 10.85-1.9q1.4-17.4-1.85-27.35l-.1-.25-.1-.35-.1-.35-2.9-5.25m5.6 9.5-2.5-3.55 2.5 3.55m4.35 6.25q-1.45-2.85-2.35-6.25l-.1-3.3q0-1.95.15-3.75.15-1.65.45-3.2-.3 1.55-.45 3.2-.15 1.8-.15 3.75l.1 3.3q.9 3.4 2.35 6.25m2.55.45.8 1 1 .2.95-.2q.9-.45 1.8-1.75-.65-1.6-2.85-2-1.75-.25-2 1.85 0 .4.3.9m-49.7 27.8.25 7.8-1.85 5.35h-.15l-.05-.15q-1.85-1.05-3-2.6l-1.3-4.1 1.3 4.1-.2-.25q-.8-1.1-1.25-2.45l-.3-.85.45-.55 1.25-1.6-.3-5.95.05-.25-2.55-.15-1.3 3.85.05.2-3.6.9-.1-1.25-.15-1.3.2-.85q.8-2.65 2.65-3.75l1.8-1.55 6.3 1.85 1.6 3.15.2.4m69.9-29.75h.1l.1.1.9.55-1.35 2.05-.3-.1.35-1.5.2-1.1m-7.2 3.2-1.3 3.1-5.1 15 13.3-18.55.05-.05 8.95 6.15.5 3 .15.2-.15.1 2.25 14.45-3.55 10.65.4 3.5-10.25 1.05V159v.45l-6.8.35-2-.65q-2.95-.95-5.05-1.95l-1.25-.65.1-.35 1.25-1.45-3.6-1.05-.15 1.15-.7-.75 1.5-3.35 1-2.2.2-.45 2.25 1.55-.2-6.65.05-.05-.55-13.4-.2-.6 1.45-4 7.45-4.1m-3.45 36.95-.1 1.35.1-1.35m1-22.7.05.4 2.85-.4 1.75-3-4.65 3m6.85-5.1v2.35l3.55 3.45 4.95-.85-.05-.35q-5.45-2.05-7.7-4.6l-.4-4.8-.3.05-.05 4.75m.3-5.2.05.4-.05-.4m1.75 17-2.6-1.05v.05l.3 4.05 2.3-3.05-.5-.8-1.45-4.65 1.45 4.65.5.8m-4.45 5.4-4.7 2.2.1.15 3 1.05 1.6-3.4m-5.25-21.55 1.95-1.7-1.95 1.7m33.7-7.85-.45.3-.15-.2.45-.05.15-.05m-17.35 31.5-6.65-2.35 2.35 2.95.05-.05 4.25-.55m-7-2.5.35.15-.35-.15m-87.2 4.05 2.2.25h.05l2.85 1.9.35 1.65v.05l.1.4-.2.05-.95 1.1-.2-.2-.4-2.95-3.35-.7.25 4.1-.6.3-9.95-.5-1.35-.3.35 1.85-.9-3.8 2.9-2.65 8.85-.55.05.65-.05-.65m-3.7 8 .05-.25 7.7-1.05.15.05 1.45.35 3.1.75.45 2.25-.35.8-.1.25-1.05.35.6-2.55-.45-.25-3.05-.7-.15 3.6-9.5.3 1.15-3.9m10.6 4.95q1.1.1 2.9 1.3l.05.05 1.1.85-.75.2.75-.2.45.35-.05.25-1.85 1.7-.3-2.25-2.8-.5-.1 3.45-9.4-.7.55-2.85-.1-.45 7.8-1.3 1.75.1m-8.3 7.65.3-.2 9.55-.8 2.35 1.65.2 1.55-1.45 1.1-.35-2.1-3.1-.35.5 3.65-10.95-1.4.15-1.95 2.8-1.1v-.05m1.5-19.1.35.05-.35-.05m-4.45 11.1-.55-.45v-.05l.55.5m3.25 7.8-.3.25.3-.25M105.5 342.7l-1.25-.2 1.25.2m-69.75 33.75.6-3.15 3.15-.95-1.35 3.1-.1.25-2.2 7-1.85-3 1.75-2.85 2.3-1.15-2.3.75m14.75-6.5 15.7-7.35.1-.05.6-.65.05-.05q3.55 2.9 13.85 4.05-6.4 12.85-15.6 12.35l-3.1-2.15-6.15-3.05-13.6 1.6-.2-.55-.05-.1 2.5-.8-2.45.9 2.45-.9 5.9-3.25m16.15-6.25-.45-1.1.45 1.1m-18.3 18.1-5.25 1.95 2.15 2.25 1.2 2.55 4.2-1.75-.5-3-1.75-2h-.05l.15-.05 5.2 1.2-5.2-1.2-.15.05m-5.3 1.9q1.7-2.2 4.65-3.55.75-.35 1.6-.6l8.15 3.25-.15.4-2.35 3.15-8.05 4.55v.15l-5.45-1.1.4-1.8.8-3.9.35-.5h.1l-.05-.05" transform="translate(1.75 1.75)"/><path fill-rule="evenodd" fill="#7e5c3d" d="m131.35 64.25-.15-1.15 1.6-1.05-1.45 2.2" transform="translate(1.75 1.75)"/><path fill-rule="evenodd" fill="#664d33" d="m128.25 68.05.25-.25-.1.3-.15-.05M117.4 117.7l-.05.05-.1-.1.1.05h.05" transform="translate(1.75 1.75)"/><path fill-rule="evenodd" fill="#725438" d="m128.5 67.8.1-.1-.2.4.1-.3m11.65 43.15.35-.1.3-.1-.4.45-.2-.2-.05-.05m.35-.1-.3.15.3-.15" transform="translate(1.75 1.75)"/><path fill-rule="evenodd" fill="#77593c" d="m124.2 78.75.55 1.65-2.8.95 2.25-2.6" transform="translate(1.75 1.75)"/><path fill-rule="evenodd" fill="#c8a98c" d="m122.2 102.2 16.9-22.5-1.35 2.75-13.4 22.9-.05.1-2.15-3.2.05-.05m12.55 9.9q.15-1.5 2.45-2.15 1.75-.15 2.95 1l.05.05q-2.55 1.85-5.45 1.1m-21.6 1.8.35-.1-.35.15v-.05m-16.2 5.7q-.3-.5-.3-.9.25-2.1 2-1.85 2.2.4 2.85 2-.9 1.3-1.8 1.75l-.95.2-1-.2-.8-1m20.3-1.95.2-.3-.1.35-.1-.05m-7.3 3.2.05.1 6.95-2.2-.35 1.5.25.15-13.3 18.55 5.1-15 1.3-3.1m-74.8 33.65-.4-3.8 3.6-.9.3-.05.15 3.85-3.65.9m-2.1 1.55-3.5.45-.25-4.1 3.35.7.4 2.95m3.65 3.5.45.25-.6 2.55v.05l-3.05.05.15-3.6 3.05.7M35.15 169l.1-3.45 2.8.5.3 2.25-3.2.7m.3 6.95-.5-3.65 3.1.35.35 2.1v.2L35.45 176v-.05m12.9 205.85h.05l1.75 2 .5 3-4.2 1.75-1.2-2.55-2.15-2.25 5.25-1.95" transform="translate(1.75 1.75)"/><path fill-rule="evenodd" fill="#422d24" d="m174.4 88.85 2.45 3.75-.25.2q-2.95 1.8-5.45 2.55l.3-.25.05-.05V95l.05-.05q1.6-2.15 2.35-4.4l.5-1.7m-18.05 15.1L145.9 124.4l-1.3 3.4-2.55-6.25.2-.2-2.3-3.25.45-.3 1.3-1.1.4-.35q3.4-3.1 6.15-6.75l2.5-3.75.35-3.2.05-.35.15-2.25q.1-2.1-.3-5.7l-.15-1.25 1.65-1.7q1.25 3.1 3 5.5l1.8 2.1-.5.5-.45 4.45M113.8 140.8v-.05l2.6 1.05-2.3 3.05-.3-4.05m65.95 234.95 3.3 4.9 3.8 5.6.85 4.05-6-5.6-7.55.6-3.8-2.8-2.05-4.6-1.8.8-8 9.5-16.35-7h-.2l-.05-4 5.75 3.75.2.05 1 .25q5.1 1.35 10.8 5l5-8.5.2-.05.25-7.35 6.85 8.3 7-2.6.8-.3m-24.05-25.3.45-8.75 4.9 8.25 1.85 3-5.05 5.25-2.3-4.8.15-2.95M171.85 370l-.25-.05-1.85-4 3.55-1.65-1.45 5.7" transform="translate(1.75 1.75)"/><path fill-rule="evenodd" fill="#af7a58" d="M140.4 111.2q-.15 1.6-1.45 2.45l-.95.5q-2.3.15-3.2-1.05l-.1-.85.05-.15q2.9.75 5.45-1.1l.2.2m-26.9 2.6 8.65-11.55 2.15 3.2-6.85 11.9-.2.3h-.1l-.85-.15-2.2-.5-.95-3.05.95 3.05 2.2.5.85.15-.2 1.1-6.95 2.2-.05-.1 1.05-2.4 2.15-4.5.35-.15m.6 3.2-3.1 1.45 3.1-1.45-.15.5.15-.5" transform="translate(1.75 1.75)"/><path fill-rule="evenodd" fill="#836241" d="M115.1 130h-.75l.05-4.75.3-.05.4 4.8" transform="translate(1.75 1.75)"/><path fill-rule="evenodd" fill="#544844" d="m142.1 145.95 6.05 3.1.45 1.85.25.95-1.25.35-5.5-6.25M32.85 130.4l1.05-.25 3.15 2.4-.2.3-15.3 4 1-3.8 1.9-.5 1.4-.35 2-.5 1.7-.45h.05l3.25-.85m2.2 5.5-.05.15-.05-.2.1.05m13.4 41.9 24.6-6q4.85 1.55 7.7 6 .45 3.9-.6 8.05l-5.8 6.35 1.4-6.6.85.45 1.4-2.65-4.8-5.4-13 1.2-7.4 5.85v.05l-8.85 7.45 4.15-5.95.1-.1-7.3-4.8-.1.15-3.9 7.25-.1.15 6.2 3.25-5.85-1.3-17.85-2.1-8.45 3.15-5.3 9.5 1.8 1.35 2.8 2.1-5.2-.9q-3.15-2.2-4.95-6 1.6-5.45 5.2-9.9l28.8-6.95.75-.2 13.7-3.45m40.9 153.65v-.3h.05l.15-.05h.15l-.35.35m78.4-138.65 1.7-1.15-.05 1.2-1.65-.05m-62.55-15.85-.2.35v-.05l.2-.3m20.4 166.35 1.05.35-.4 1.35-.65-1.7" transform="translate(1.75 1.75)"/><path fill-rule="evenodd" fill="#5e4333" d="m176.85 92.6 3.2 4.9 6.05 27 .1.45 2.45 4-.05.25q-.15 4.35-2.25 15.1-.65 5.6-9.8 13.45l-1.55 1.3-7.45 4.95-13.95-14.4-.15-.05L157 140q5.6-8.55 8.95-10.55l.25-.65.15-.35q5.35-.85 10.2 1.5l1.3.75 1.75-3.9v-.05q-1.1-4.6-3.05-9.8-1.9-4.8-4.55-10.15-3.75-2.35-5.75-3.2 2.85-3.75 4.35-8l.2-.1.35-.15q2.5-.75 5.45-2.55l.25-.2" transform="translate(1.75 1.75)"/><path fill-rule="evenodd" fill="#d5e3e2" d="m26.2 116.25 2.7 5.7.7 9.3h-.05l-1.7.45-1.65-15.45m-3.35-6.95.25.5 2.75 22.4-1.4.35-2.2-24.5.6 1.25m17.95 72.55.25.15 1.4 5.85-5.55 1.25 3.9-7.25M53 332.7l-3.45-13.25 3.95-3.35-4.15.8-8.2-23.85v-13.1l-6.5-13.1 7.45-3.25-7.15.95-.6-10.7-4-19.7-2.95-10.65-1.3-9.45 13.2 7.05.75-1.4.55 2.1 17.5 70.55 4.25 17-.2.55-2.25 6.35-1.3 3.4-.1-.05.05.25-.1.2-2.45 6-.15.4L53 332.7m-5.95-126.3-.1-.3.2.05-.1.25m14.4 142.75 1 .75 4.25-8.65-.05.2-.6 10.85.1.05q1.9 1.15 6.5 3.25l-5.7 6.25-.05.05-.6.65-.1.05-4.75-13.45m5-20.95-2.7 10.3-.35.1-1.55-4.1 3.8-6.85 1.85-3.4-1.05 3.95m40.95 2.25.6 5.55 1.95 8.2-1 6.05q.5 3.6-.25 5.55-.75 1.9-1.85 6.65v-.05q-3.2-5.55-2.3-10.35l.05-.05q.3-4.5.9-9.3l1-6.95.9-5.3" transform="translate(1.75 1.75)"/><path fill-rule="evenodd" fill="#f0f4f3" d="m25.95 115.75.25.5 1.65 15.45-2 .5-2.75-22.4 2.85 5.95" transform="translate(1.75 1.75)"/><path fill-rule="evenodd" fill="#8ab0ac" d="m28.9 121.95 3.95 8.45-3.25.85-.7-9.3" transform="translate(1.75 1.75)"/><path fill-rule="evenodd" fill="#a89135" d="m25.9 139.2 5.6-.15.4.45-.15.15-2.6 2.1-.15.45-2.05-.65-.4.15-.65-2.5m8.65 16.65.65-.05v.35l2.5-.25.5 1.95h-.6v.85l-3.1-.75 3.1-.1-3.1.1-1.45-.35 1.5-1.75m2.85 6.6 1.75-.65 1.05 4.1-.4.1-1.1-.85-.05-.05q-1.8-1.2-2.9-1.3l1.25-.4.4-.95m-3.4 19 .7-.2-.3-1.4.35 1.4-.75.2" transform="translate(1.75 1.75)"/><path fill-rule="evenodd" fill="#54481b" d="m35 136.05.25.75-3.35 2.7-.4-.45-5.6.15-.2-.85 9.25-2.5.05.2" transform="translate(1.75 1.75)"/><path fill-rule="evenodd" fill="#7a6927" d="m35.25 136.8 1.8 5.75-2.95 1.1-.9-.25-1.45-3.75.15-.15 3.35-2.7" transform="translate(1.75 1.75)"/><path fill-rule="evenodd" fill="#9b8531" d="m29 142.2.15-.45 2.6-2.1 1.45 3.75-4.2-1.2m9.2 15.65.95 3.95-1.75.65.2-.45.1-.25.35-.8-.45-2.25v-.85h.6m.55 11.6 2.35.25.75 2.95-1.95 1.25-.05-.25-.2-1.55-2.35-1.65 1.45-1" transform="translate(1.75 1.75)"/><path fill-rule="evenodd" fill="#2b2322" d="M98.5 150.75 97 154.1l-.9-2 2.4-1.35m1.6 5.8 1.25.65-2.15 8.35-1.2-.3 2.1-8.7m37.7-.9.25-.05.15.45-.4-.4m-100.95-22.8-1.8 3.05-.1-.05-9.25 2.5-.4.1-3.85-1.25.1-.35 15.3-4m38.9 52.75-.3-.4q-1.2-2.45-3.15-3.3l-10.8 2.8-.25-.25-.35.1-16.55 11.1-23.1-1.35-9.25 2q-2.65 2.1-3.4 5.1l-1.25 1.7-1.8-1.35 5.3-9.5 8.45-3.15 17.85 2.1 5.85 1.3.6.3.1.05.25-.3 8.85-7.45v-.05l7.4-5.85 13-1.2 4.8 5.4-1.4 2.65-.85-.45m50.85-8.65.05.6h-.05v-.6m-21.4 0-.15.35H105l.2-.35" transform="translate(1.75 1.75)"/><path fill-rule="evenodd" fill="#87752c" d="m26.55 141.7.4-.15 2.05.65 4.2 1.2.9.25-.7.25-5.75 2.2-1.1-4.4m7.7 7.8.4-.05.1 1.25.4 3.8.05 1.3-.65.05-.15-.75-.1-.4v-.05l-.35-1.65-2.85-1.9h-.05l-2.2-.25-.25-1.1 5.65-.25M39.8 166l.4-.1.9 3.8-2.35-.25 1-.7.45-2.15.05-.25-.45-.35" transform="translate(1.75 1.75)"/><path fill-rule="evenodd" fill="#61531f" d="m28.6 149.75-.95-3.65 5.75-2.2 1.3 3.4-.2.85.15 1.3-.4.05-5.65.25" transform="translate(1.75 1.75)"/><path fill-rule="evenodd" fill="#413714" d="m37.05 142.55.3 1q-1.85 1.1-2.65 3.75l-1.3-3.4.7-.25 2.95-1.1m-2.65 37.3 13.15-5.6.8 3.15.1.4-13.7 3.45-.35-1.4" transform="translate(1.75 1.75)"/><path fill-rule="evenodd" fill="#6d5e23" d="m42.25 157.55-.3.2-3.75.1-.5-1.95 1.6-.15 1.4-1.5.3.85q.45 1.35 1.25 2.45" transform="translate(1.75 1.75)"/><path fill-rule="evenodd" fill="#816f29" d="m42.45 157.8 1.6 5.15.55 1.75-4.4 1.2-1.05-4.1-.95-3.95 3.75-.1.3-.2.2.25m.45 2.6-3.75 1.4 3.75-1.4" transform="translate(1.75 1.75)"/><path fill-rule="evenodd" fill="#746425" d="m41.1 169.7 5.2.5.25.9.35.6.05.05.6 2.5-13.15 5.6-.55-2.6 2.85-.4 3.4-1.65-.2-1.3 1.95-1.25-.75-2.95" transform="translate(1.75 1.75)"/><path fill-rule="evenodd" fill="#665822" d="m40.2 165.9 4.4-1.2 1.7 5.5-5.2-.5-.9-3.8" transform="translate(1.75 1.75)"/><path fill-rule="evenodd" fill="#978e46" d="m46.9 171.7-.35-.6.1-.05.25.65" transform="translate(1.75 1.75)"/><path fill-rule="evenodd" fill="#b3ccc9" d="m40.8 181.85.1-.15 7.3 4.8-.1.1-5.65 1.25-1.4-5.85-.25-.15" transform="translate(1.75 1.75)"/><path fill-rule="evenodd" fill="#f4f9f8" d="m68.5 239.55.55 2-5 1.45 4.45-3.45M43.6 192.8l-.6-.3-6.2-3.25.1-.15 5.55-1.25 1.15 4.95" transform="translate(1.75 1.75)"/><path fill-rule="evenodd" fill="#66998e" d="m48.1 186.6-4.15 5.95-.25.3-.1-.05-1.15-4.95 5.65-1.25" transform="translate(1.75 1.75)"/><path fill-rule="evenodd" fill="#669989" d="m60.9 184.55.1.45 3.95 2.15 5.1 17.1-.3.25 2.35 15.9 3.8 13.35-7.4 5.8L62 213.1l-14.85-6.95-.2-.05-2.6-10.45 16.55-11.1" transform="translate(1.75 1.75)"/><path fill-rule="evenodd" fill="#332c2b" d="m7.35 203.1 1.25-1.7 4.35 4.3-2.8-.5-2.8-2.1" transform="translate(1.75 1.75)"/><path fill-rule="evenodd" fill="#a4c1be" d="m21.25 194.3 23.1 1.35 2.6 10.45.1.3-.4.05-6.6 13.25-.75 1.4-13.2-7.05q-2.45-15.7-4.85-19.75" transform="translate(1.75 1.75)"/><path fill-rule="evenodd" fill="#b5c1bb" d="m40.6 221.8-.55-2.1 6.6-13.25.4-.05.1-.25L62 213.1l6.5 26.45-4.45 3.45 5-1.45 4.65 20.05-.85 4.2-18.25-36.5-14-7.5" transform="translate(1.75 1.75)"/><path fill-rule="evenodd" fill="#e8ecea" d="m62.35 309.35-4.25-17-17.5-70.55 14 7.5 18.25 36.5-.05.2-1.25 3.85q-1 2.25-2.2 7.95l-1.3 6.1-1.3 4.05-.55 4.4q-1.35 9.5-3.85 17" transform="translate(1.75 1.75)"/><path fill-rule="evenodd" fill="url(#a)" d="m77.6 245.9.6-3.45.3-1.75.2-1.3.85-5.1 1.1-7.1-2.05-7.1 4.35-11.55h.3v-.15l.05-.45 2.35-21.15h.3l9.95-10.1 2.35.95 2.35 5.35 15.25 4.2 10.05 11.75-1-5.2 1.85 1-.2.45 6.75 19 4.25-9.6 4.25 14.1 1.4-5.75 5.45 11.05 2.1-2.3 4.4 4.55q4.15 6.65 7.35 26.7 3.65 19.45 1.2 34.1 5.15-10.35 8.4-27.05l1.2 6.6-.05.45-1.65 15.15v.05l-.4 3.85v.05l-2.65 8.9q-3.45 6.15-7 9.15-2.35 1.95-4.7 2.6-4.6-6.3-8.95-14.45-8.45-15.9-16-38.7l10.95 37.15q4.6 13.6 15.55 34.45 7.8-.05 11.45-13.15l3.25-12.85 1.25-5.65 1.55 6.4.6.1-5.65 22.2 4.75-8.25-6.9 13.5 6.1-3.65-8.9 24.5-4.85 1.55-4.9-8.25-.45 8.75q-15-2.4-29.05-6.8l-1.05-.35-3.75-10.25-1.7 8.4-9.3-3.6 1.25-11.1v-.05q2.1-20.7 2.45-34.35v-.05l.2-12q-.1 1.65-2.45-2.9l2.2-12.6v-.25q1.8-12.05 1.9-21.05v-.1l.2.1 2.35-9.15h.2l9.65 9.2q-7.15-12.7-15.45-19.2l-1.05-.75q-3.4-2.5-6.95-3.95l.6.55-.25.25 2.35 16.05q-2.8 29.7-11.75 54.2l-.1.15-2.05 2.95q-8.65 4.15-10.45 1.45l-.35-.85.3.9q2.5 4.7 6.9 4l5.1-2.45q3.05-1.7 5.65-3.75L97 319.5l-7.35 11.45.05.15h-.15l-.15.05h-.05l-13.3 1.7q-5.6-2-9.6-4.65l1.05-3.95-1.85 3.4q-4.75-3.45-7-7.9l-.05-.1 1.3-3.4 2.25-6.35.2-.55q2.5-7.5 3.85-17l.55-4.4 1.3-4.05 1.3-6.1q1.2-5.7 2.2-7.95L72.8 266l.05-.2.85-4.2 1.8-7 1.85-7.4.25-1.3-.1 1.8.1-1.8m.2 3-.3-1.2.3 1.2m53.6 3.2.5 1.55-.5-1.55m-34.6-47.7 16.55 17.75 16.35 3.1.05-.1q-13.3-5.6-32.95-20.75m-12.45 8.15-1.1-4.15 1.1 4.15M77.5 247.7l-.15-.5.15.5m51.85-3.15-.25-.45.25.45m2.85-18.8-2.45-.6 2.45.6" transform="translate(1.75 1.75)"/><path fill-rule="evenodd" fill="#6f615e" d="m99.5 148.55-1 2.2-2.4 1.35.9 2 .7.75-1.3 7.45-2.5 8.05-1.2-1-2.25-2 1.25-5.95 2.25-10.8 5.55-2.05m1.85 8.65q2.1 1 5.05 1.95v.5l-1.2 17.3-.2.3q-2.5-1.1-5-2.6l-.8-9.1 2.15-8.35M53 332.7l2.85-6.25.15-.4 2.45-6 .1-.2.05-.2.05.1q2.25 4.45 7 7.9l-3.8 6.85 1.55 4.1.35-.1 2.7-10.3q4 2.65 9.6 4.65l13.3-1.7v.3l-.3 2.05-.75-.1-14.1 18.25-7.3-10.15-.25-.05.05-.2-4.25 8.65-1-.75-1.3-1.15-.15-4.7-4.45-6.9-.75 2.35-2.8.8-1.45-2v-.05l2.45-4.8m85.65-145.9h6.45l5.9-2.05 6.65 3.4 4.7 7.6-6.75-2.2-.3.45-4.75-3.3 3.8 4.15 10.85 11.9h-5.55l1.85 4.85-6.6-6.05-1.9 7.2-1.65-.45-.5.35-1-1.5-1.15 1.95-2.9-6.6-10.3-9.5-1.3 6.05-5.05-13.15-.45-.15-6.6-5.95.85-1.7 7.95 3.8.35.05 11.5 7.6.35.2 6.15 1.5q-1.65-.45-4.55-3.15l-.6-.55q-3.4-3.25-5.45-4.75m11 8.95-.4-.5.4.5m19.1 12.25v.3l-.1-.05.1-.25m-54.3-30.05q-1.45-8.55.65-15.4l13 1.1-1.5 13.3v.6l-11.45.4h-.7m35.45 12.3-1.15-.8 1.15.8m-39.05 147.6 9.3 3.6-.45 2.05-1 12.1 7.55-10.6.4-1.35q14.05 4.4 29.05 6.8l-.15 2.95 2.3 4.8 5.05-5.25-1.85-3 4.85-1.55.95-.35.15.3-7.75 24.05-9.35 5.35-10.2-5.7-.8.3-2.7-6.25-.7 11.3-2.5-.25-.4-.1-4.05-1.2-5.85-5.35-1.85-9.35-5.65 6.65-.7 3.6-6.6-2.8-2.4-1q1.1-5.15 1.35-5.2v.05q1.1-4.75 1.85-6.65.75-1.95.25-5.55l1-6.05.85-6.15.05-.2m46.55 20.8.45-.45-.45.45m-13.95 2.15-1.6-7.9-1.1 8.9 2.15 5 3.3 7.6-2.75-13.6m-11.25-5.55-1.15-4.95-1.65 5.7.85 3.15 1.95-3.9m-24.2 13-.1.35.1-.35" transform="translate(1.75 1.75)"/><path fill-rule="evenodd" fill="#201c1c" d="m66.65 341.45.25.05 7.3 10.15 14.1-18.25.75.1.3-2.05.35-.35 15.15-2.75-1.9 4.3 1.3 9.85-3.95 10.9q-5.55 1.7-11.25 2.55l.65-2.85-2.7-7.25-.65 3.45-.05.25-1.3 6.85h-.1q-4.85.45-9.75.25l-2.5-1.05q-4.6-2.1-6.5-3.25l-.1-.05.6-10.85M191 336.9q4.35 15.6 6.3 21.45l-.5 7-8.25 1.05-2.2 11.05-6.6-1.7-.8.15v.15l-7 2.6-6.85-8.3-.25 7.35-.2.05-5 8.5q-5.7-3.65-10.8-5l-1-.25-.2-.05-5.75-3.75-1.2-.8-1.8-4.05.8-.3 10.2 5.7 9.35-5.35 7.75-24.05-.15-.3 9.1-3.6 4.85-2.2.15.35v-.4q5.05-2.45 10.05-5.3m-48.25-143.35 1.35-2-.4 1.6-.6.6-.35-.2m-52.6 145.8 3.35 4.85.45-7.35-3.8 2.5m94.2 19.75-.25 4.1 2.3.7 6.5-3.25.55-4.3-3.2 3.35-3.8-2.4-2.1 1.8m-12.75 10.85.25.05 1.45-5.7-3.55 1.65 1.85 4" transform="translate(1.75 1.75)"/><path fill-rule="evenodd" fill="#8eb5ac" d="m69.05 241.55 7.35-2.15 1.2 6.5-.25 1.3-1.85 7.4-1.8 7-4.65-20.05" transform="translate(1.75 1.75)"/><path fill-rule="evenodd" fill="#2e2827" d="m151.7 167.95 9.35 9.35.6-.15 1.6 5.35q1.9 5.8 4.5 10.3l1.65.05-.65 15.15-.1.25.1.05 3.45 8.2.4 8-5.8-8.3v-.25l-.2.05v.05l-2.35 2.85-7.4-7.4-2.25 6.6-3.75-5.45.5-.35 1.65.45 1.9-7.2 6.6 6.05-1.85-4.85h.6l3.85 2.1 1.55.8q1.95.35 3-1.4-1.05 1.75-3 1.4l-1.55-.8-3.85-2.1h4.95l-10.85-11.9.95-.85.3-.45 6.75 2.2-4.7-7.6-6.65-3.4-5.9 2.05h-6.45q2.05 1.5 5.45 4.75l-1.35 2-11.5-7.6-.35-.05-7.95-3.8-.85 1.7.85 7.3-7.75-10.8-.05-2.35 11.45-.4h.05l-.05-.6 1.5-13.3-13-1.1q-2.1 6.85-.65 15.4l-8.8-.4-.45-.6 1.2-17.3 2 .15 6.8-.35 10.25-1.05.65-.1.15-.05 4-.7-.15.35 2.85-.55 2.9 18.25.1.5v1.25l3.75.65 2.9-4.2-.25-.8q4.8-2.2 9.35-5.05m16.05 24.85-1.3 7.05-2.05.45-9.1-6.3 9.1 6.3 2.05-.45 1.3-7.05m-31.9-17.2-5.05 1.6-.15.05-4 .3 4-.3.15-.05 5.05-1.6m-3.8 6 6.55 5.15.05.05-.05-.05-6.55-5.15" transform="translate(1.75 1.75)"/><path fill-rule="evenodd" fill="#99731a" d="m130.25 157.55 1.05-2.35h3.15l.35 1.3 3-.85.4.4 1.7 8.95 2.45 8-6.5 2.6-2.9-18.25-.05-.35-2.65.55m-44.6 29.25v-.45l.15-1.3.05-.75-.15.65-.15-.15-.05-.1 7.2-15.35 1.2 1 .65-.9 3 1.5-.05 2.05-.05 1.85-3.95-2.3.4-2.2-.4 2.2 3.95 2.3.85-1.3 1.7 1.1q2.5 1.5 5 2.6v.05h.05l.6.25 8.8.4h.7l.05 2.35 7.75 10.8-.85-7.3 6.6 5.95.45.15 5.05 13.15 1.3-6.05 10.3 9.5 2.9 6.6 1.15-1.95 1 1.5 3.75 5.45 2.25-6.6 7.4 7.4 2.35-2.85V216l.2.2 1.7 10.7.2 1.2 7.45 21.3-2.1 9.85.95 5.2-1.55.25-.1 1.15-.05.75.05-.75 1.9.2 5.9 12.8.1.3-2.55 7.75 1.2 5.45q5.75 25.45 11.1 44.55-5 2.85-10.05 5.3l-.15.05-4.85 2.2-9.1 3.6-.95.35 8.9-24.5-6.1 3.65 6.9-13.5-4.75 8.25 5.65-22.2-.6-.1-1.55-6.4-1.25 5.65-3.25 12.85q-3.65 13.1-11.45 13.15-10.95-20.85-15.55-34.45l-10.95-37.15q7.55 22.8 16 38.7 4.35 8.15 8.95 14.45 2.35-.65 4.7-2.6 3.55-3 7-9.15l2.65-8.9h.6l-.6-.05.4-3.85v-.05l1.65-15.15.05-.45-1.2-6.6q-3.25 16.7-8.4 27.05 2.45-14.65-1.2-34.1-3.2-20.05-7.35-26.7l-4.4-4.55-2.1 2.3-5.45-11.05-1.4 5.75-4.25-14.1-4.25 9.6-6.75-19 .2-.45-1.85-1 1 5.2-10.05-11.75-15.25-4.2-2.35-5.35-2.35-.95-9.95 10.1h-.3m70.8 36.4-.1-.95.1.95M132.9 157l1.9-.5-1.9.5-.1-.75.1.75m41.15 102.25-.6 5.45.6-5.45M114.4 178.4l.05-.45-.05.45M96.2 290.85l.1-.15q8.95-24.5 11.75-54.2l-2.35-16.05.25-.25-.6-.55q3.55 1.45 6.95 3.95l1.05.75q8.3 6.5 15.45 19.2l-9.65-9.2h-.2l-2.35 9.15-.2-.1v.1q-.1 9-1.9 21.05v.25l-2.2 12.6q2.35 4.55 2.45 2.9l-.2 12v.05q-.35 13.65-2.45 34.35v.05l-4.95 1.1-.4-3.8-1.9 4.3-15.15 2.75-.05-.15L97 319.5l4.3-26.4q-2.6 2.05-5.65 3.75l-5.1 2.45q-4.4.7-6.9-4l.05-.05q1.8 2.7 10.45-1.45l2.05-2.95m33.55-65.7-.05.1-16.35-3.1L96.8 204.4q19.65 15.15 32.95 20.75m-16.4-.8q3.1 6.75 3.05 19.05.05-12.3-3.05-19.05M96.3 290.7l18.2-25.9-18.2 25.9m80.2 9.4 2.2-13.2-2.2 13.2" transform="translate(1.75 1.75)"/><path fill-rule="evenodd" fill="#edc21b" d="m97.7 154.85.15-1.15 3.6 1.05-1.25 1.45-.1.35-2.1 8.7-.3 1.2-.15 4.5-3-1.5-.65.9 2.5-8.05 1.3-7.45m36.75.35 1.65-1.05 1.7 1.5-3 .85-.35-1.3M166.6 216l.2-.05v.25l-.2-.2m-69.1-43 .8.55-.85 1.3.05-1.85" transform="translate(1.75 1.75)"/><path fill-rule="evenodd" d="m148.85 151.85 3.85 15.4-1 .7q-4.55 2.85-9.35 5.05l-2.45-8-1.7-8.95-.15-.45q4.75-1.45 9.55-3.4l1.25-.35m-4.75 39.7.6.55q2.9 2.7 4.55 3.15l-6.15-1.5.6-.6.4-1.6m10.25 3.3-3.8-4.15 4.75 3.3-.95.85m-2.95-27.2.3.3-.3-.3m-45-8.5 2 .65-2-.15v-.5m5.7 167.6-1.25 11.1-.05.2-.85 6.15L108 336l-.6-5.55-.25-2.6 4.95-1.1" transform="translate(1.75 1.75)"/><path fill-rule="evenodd" fill="#251f1f" d="m97.5 173 .05-2.05.15-4.5.3-1.2 1.2.3.8 9.1-1.7-1.1-.8-.55m7.55 4.3.15-.35.45.6-.6-.25" transform="translate(1.75 1.75)"/><path fill-rule="evenodd" fill="#a88d24" d="m83.7 295.25-.05.05-.3-.9.35.85" transform="translate(1.75 1.75)"/><path fill-rule="evenodd" fill="#4e3729" d="m104.85 328.35 1.9-4.3.4 3.8.25 2.6-.9 5.3-1 6.95-1.25-.2 1.25.2q-.6 4.8-.9 9.3l-.05.05q-.9 4.8 2.3 10.35-.25.05-1.35 5.2l2.4 1v.05q-.9 2.85-3.15 5.2l-.35.4q-2.8 2.7-7.4 4.65l-9.85.95-2.7.4q-4.8.8-9.25 2.3l-10-4.3q9.2.5 15.6-12.35-10.3-1.15-13.85-4.05l5.7-6.25 2.5 1.05q4.9.2 9.75-.25h.1l1.3-6.85.05-.25.65-3.45 2.7 7.25-.65 2.85q5.7-.85 11.25-2.55l3.95-10.9-1.3-9.85 1.9-4.3m-14.7 11 3.8-2.5-.45 7.35-3.35-4.85m-1.25 17.2.15-.6-.15.6m15 16.3.85 1-.85-1m-46.45 9.95 9 3.55q-3.45 1.8-6.6 4.1l-3.1-.3-3.45 1.8-.7.35-7.2.95-4-2.95.05-.35 5.45 1.1v-.15l8.05-4.55 2.35-3.15.15-.4" transform="translate(1.75 1.75)"/><path fill-rule="evenodd" fill="#927a21" d="m175 264.45.1.6.15 1-1.9-.2.1-1.15 1.55-.25" transform="translate(1.75 1.75)"/><path fill-rule="evenodd" fill="#625451" d="M180.95 342.2v.4l-.15-.35.15-.05" transform="translate(1.75 1.75)"/><path fill-rule="evenodd" fill="#b3a677" d="m189.95 392.65 1.65 1.7-.3 3.45-.1 2.6v1.4l-1.45-1.3 1.45 1.3q0 7.35 1.6 14.75l-.15 1.15-21.45 1.7h-.1l-6.25.25h-.1V417l6.15-2.15v-.35l.05-.6v-.05h.3l1.25.15h.25l5-2-.35-.95 2.55.3 4.65-3.85-.8-1.65-.8-1.7 1.1 1.2 3.35.35 1.15-2.75.85-2.15.3-.3-.55-.5-7.6-6.75q-8.55-1.8-14.6 4.45l-7.4 13.7h-.85l.2-13.45v-.45l3.1-7.6.2-.6q6-3.8 11.9-4l7.55-.6 6 5.6 2.25 2.35M158.1 412.8l.15.35-2 .85-2.55-5.35 1.45-2.7 2.55 5.9.4.95m-74.8-25.9-.15-.4-7.95-3.95q4.45-1.5 9.25-2.3l2.7-.4 9.85-.95q4.6-1.95 7.4-4.65l.4-.35 4.5 5.05.15.4-11.3 3.35h-.05l-14.8 4.2m-16.85-.55 6.85 2.7.1.45-13.05 3.1-.1.05h-.05l-1.65.4-.25.05-4.9-.95-.1-.2 3.45-1.8 3.1.3q3.15-2.3 6.6-4.1" transform="translate(1.75 1.75)"/><path fill-rule="evenodd" fill="#423735" d="M178.95 376.05v-.15l.8-.15-.8.3" transform="translate(1.75 1.75)"/><path fill-rule="evenodd" fill="#978957" d="m183.05 380.65 7.15 2.5.2 9.05-.45.45-2.25-2.35-.85-4.05-3.8-5.6m9.6 37.05-.6 10.05h-2.2q-25.6.05-50.6 1.2l-1.9.1-.3-9.7h.1l14.75.45h.35l12.5-.15h.1l6.25-.25h.1l21.45-1.7m-109.4-30.8h.05l14.8-4.2h.05l11.3-3.35h.25l.85 10.95-4.75.95-16.25 3.5 16.25-3.5.05 9.7-16.7 4.6.4-10.8.05-.45-.05.45-8 1.95-4.3 1.1q-4.75 1.2-9.45 2.55l.1.35v8.8l-17.3 5.35-.25-.4.4-9.05-5.4 1.75-4.35 1.4V397.5l.1-.1.05.05.45-.8.1-.1 11.3-2.3h.05l.9-.2 4.35-.95.25-.05 1.65-.4.15-.05 13.05-3.1 9.85-2.6m-38.1 19.9.2.35-.2-.35m22.65-6.45q-8.55 2.35-17.05 5.05 8.5-2.7 17.05-5.05" transform="translate(1.75 1.75)"/><path fill-rule="evenodd" fill="#bd9275" d="m189.2 400 .55.5-.3.3-.85 2.15-3.3.6v-1.85l3.5-1.25.4-.45m-18.65 10.75-.65.45-4.4 1.2-.3.1-1.05-2.8 4.55-1.05.2-.15h.2l1.45 2.25m12.45-6.6.8 1.7-.1.25-3.75 1.75-.8-2.15 3.5-1.9-.1-.15-.15-.25.2-.05.4.8m-7.4 2.4 1.05 2.65-3.8 1.2-.9-2.8-.05-.05 3.7-1m-30.6.9 6.7.1 1.3 4.95-6.55-1.05-2.9.45 1.45-4.45" transform="translate(1.75 1.75)"/><path fill-rule="evenodd" fill="#c7be9e" d="m140.05 393.05 3.8-3.35q4.4-1.35 9.65 1.1l4.95 7 .05.05.25.1h.2l-.2 13.45-1.05.45-2.55-5.9q.05-3.5-3.35-6.1-3.75-2.5-8.3.45l-2.5 1.9h-.05l-4.4 3.25-.4.35-.3-3.2v-.35l-.15-5.45.75-.6 3.6-3.15-.2.6.2-.6m-56.9-6.55.1.4-9.85 2.6-.1-.45-6.85-2.7-9-3.55-8.15-3.25q-.85.25-1.6.6-2.95 1.35-4.65 3.55l-.05.05-.25.1-.1.4q-1.15 1.65-1.6 3.75l-4-3.55 5.3-9.8 13.6-1.6 6.15 3.05 3.1 2.15 10 4.3 7.95 3.95" transform="translate(1.75 1.75)"/><path fill-rule="evenodd" fill="#d6d0a0" d="m141.95 382.35-.2 4.1-1.7 6.6-3.6 3.15.45-12.4 5.05-1.45m-4.9 36.95q.45-3.7.35-7.3-.15-3.3-.85-6.55l4.4-3.25 1.45 2.6-2.7 7.2 4.7 4.7 7.5.65h.35l4-3.35 2-.85-.15-.35-.4-.95 1.05-.45v1.55l.85-1.55 1.3 3.25 3.85 2.35v2.65l-12.5.15h-.35l-14.75-.45-.1-.05m-53.9-32.8.15.4h-.05l-.1-.4m-53.55-7.9 6.15-2.15 2.3-.75-2.3 1.15L34 379.7l1.85 3-.15.4-.3.5 1.65.85 4 3.55.8.15-.4 1.8-.05.35 4 2.95 7.2-.95.7-.35.1.2 4.9.95-4.35.95-.9.2H53l-11.3 2.3-.85.15-.1.05-2.6-4.9-3.45-5.95-.85-1.25-.05-.1-.1-.15v-.05l-.9-1.25-2.8-3.4-.4-1.1m12.55-4.5.2.55-.25-.5.05-.05m-.55 22.55-.45.8-.05-.1.5-.7" transform="translate(1.75 1.75)"/><path fill-rule="evenodd" fill="#51492f" d="m189.85 427.75.05.45 1.75 8.65-.5.35q-25-1.6-52.4.8l.5-9.05q25-1.15 50.6-1.2M81.55 396.7l8-1.95-.4 10.8-.4.25-7.2-9.1m-31.2 17.75-5-7.3 5.4-1.75-.4 9.05" transform="translate(1.75 1.75)"/><path fill-rule="evenodd" fill="#edebd6" d="m39.5 372.35.05-.1.7-1.6 5.9-2.05 4.35 1.35-5.9 3.25-2.5.8v.15l.25.5-5.3 9.8-1.65-.85.3-.5.15-.4 2.2-7 .1-.25 1.35-3.1m1.5 3.75 1.1-1.95-1.1 1.95" transform="translate(1.75 1.75)"/><path fill-rule="evenodd" fill="#f4f3d7" d="m42.15 374.1-.05.05V374l.05.1m-1.3 22.6.85-.15-.1.1-.5.7-.15-.3-.1-.35m.25.7-.1.1v-.2l.1.1" transform="translate(1.75 1.75)"/><path fill-rule="evenodd" fill="#ddd8b3" d="m41 408.5-5.3-9.25-.85-1.45q-2.85-4.95-5.65-8.65l-.25-10.7.2.3.85.95 2.8 3.4.9 1.25v.05l.1.15.05.1.85 1.25 3.45 5.95 2.6 4.9h-.15l-.1.05.5.5v11.2" transform="translate(1.75 1.75)"/><path stroke-opacity=".463" stroke-linejoin="round" stroke-linecap="round" stroke="#000" fill="none" d="M83.4 27q-1.75 4.4-.5 13.45 1.8 9.3 8.8 18.1l2.1 2.5q3.95 4.4 10.15 7.15L109 70q1.45 1.2 2.1 3.05m12.15-.65 5-4.35.25-.25.1-.1 2.75-3.45-.15-1.15m1.6-1.05q4.3-7.15 5.65-16.9l.5-4.55q.1-2.95-.15-5.85-.8-8.45-5.1-17.1Q125.85 8.2 118.35 5q-30.2-2.3-34.9 21.8m56.85 45.25 2.3-.95m-2.85-1-.1.05-1.1.3-3.8.65-2.3-.3-.05-.05m7.35-.65 2.25-.65 7.1-2.2q2.5-.75 4.95-.7m.25 0q2.5 0 4.95.8l5.8 1.95q.8.3 1.25.6l.8.55.15.1q.5.25 1.4 1.95 3.35 3.95 4.2 6.95l1.25 4.5m-17.75 20L145.9 124.4l-1.3 3.4-4.05 10.85 1.55 7.3m6.05 3.1.45 1.85.25.95 3.85 15.4-1 .7M109 70l7 1.6 7.2.8h.05m-12.1.9q.5 1.85.2 4.35l-4.55 1.85-2.6.9-7.85 2.05-5.6 3.2q-3.05 1.85-4.2 4.7l-.1.2Q84 96.4 84.4 102.65l.05.75m46.9-39.15 1.05 6.5m-1.05-6.5 1.45-2.2m-3.85 14.75-4.75 1.95m-2.25 2.6 2.25-2.6m10.55 33.35q.15-1.5 2.45-2.15 1.75-.15 2.95 1m.25.25q-.15 1.6-1.45 2.45l-.95.5q-2.3.15-3.2-1.05l-.1-.85m16.15-19.15-.2-1.05q-.2-.5-.3.4m-9.95 25.35 1.3-1.1.4-.35q3.4-3.1 6.15-6.75l2.5-3.75.35-3.2.05-.35.15-2.25q.1-2.1-.3-5.7l-.15-1.25m-21.9-16.3 11.35-4.75M94.35 96.6l.4-1.45m-.4 1.45-.15.3-.8 2.35q-.55 1.6-.85 3.4-.3 1.55-.45 3.2-.15 1.8-.15 3.75l.1 3.3q.9 3.4 2.35 6.25m17.8-12.5.2 2.9m0 .35.75 3.95v.05m-16.2 5.7q-.3-.5-.3-.9.25-2.1 2-1.85 2.2.4 2.85 2-.9 1.3-1.8 1.75l-.95.2-1-.2-.8-1m-2.4-.1.15.25.05.05.4.7v.05l.05.05.1.2.2.25q1.1 1.8 2.5 3.35l.55-.3-.4-.65m.4.65.8-.35 11.65-5.3 3.1-1.45 2.2.5.85.15m-4-3.7v-.05m0 .05.95 3.05-.15.5m-12.9 11.45.2.6.55 13.4-.05.05-2.05 5.1-.2.45-1 2.2-1.5 3.35.7.75m2.4 1.7 1.25.65q2.1 1 5.05 1.95m-7.05-35.4 1.7 5.2M140.2 111l-.05-.05m.25.25-.2-.2m-5.45 1.1-.05.15m5.7 5.55-.15.05-.45.05m-21.5-.05q9.15 1.45 20 .2h.15l1.35-.15m-21.5-.05-.9-.15m-.05 0h.05m-.15-.05.1.05m8.1 40.7.65-.1.15-.05 4-.7 2.65-.55m4.9-1.35.25-.05q4.75-1.45 9.55-3.4l-5.5-6.25m-1.55-7.3-2.05 1.95m-46.8 20.8 2.25-10.8m-1.25 18.75-2.25-2 1.25-5.95M55.85 326.45l.15-.4m2.45-6 .1-.2-.05-.25m19-71.9.3 1.2m60-93.25-3 .85-1.9.5m2.95 18.6 6.5-2.6q4.8-2.2 9.35-5.05m-36.5-8.5 10.25-1.05m1.2 19.15 4-.3.15-.05 5.05-1.6m-9.25 1.95h.05m-11.5.4 11.45-.4m-18.2-17.75-2-.65m2 .65 6.8-.35M97.5 173l.8.55 1.7 1.1q2.5 1.5 5 2.6v.05h.05l.6.25 8.8.4h.7m-21.25-7.6-1.2-1M77.35 247.2l.15.5" transform="translate(1.75 1.75)"/><path stroke-opacity=".322" stroke-linejoin="round" stroke-linecap="round" stroke="#000" fill="none" d="m186.1 124.5.1.45 2.45 4-.05.25m-2.25 15.1q-.65 5.6-9.8 13.45l-1.55 1.3-7.45 4.95m-14.1-14.45L157 140q5.6-8.55 8.95-10.55l.25-.65m-49.85-62.65.15.35 7.6-2.5 1.05.85m-8.65 1.65.1 1.05m-67.55 83.4-1.8-3.55m-1.8 13q-1.85-1.05-3-2.6l-.2-.25m1.8 5.4 1.5-1.25m71.4-42.95.2-1.1m-.55 2.6.35-1.5m-19.25 36.1.15-1.15 3.6 1.05-1.25 1.45-.1.35m30.15 1 1.05-2.35h3.15l1.65-1.05 1.7 1.5m40.05-24.95-1.3-.75q-4.85-2.35-10.2-1.5l-.15.35m-140-12.55 2.7 5.7 3.95 8.45 1.05-.25 3.15 2.4-.2.3-1.8 3.05-.05.15.25.75 1.8 5.75.3 1 1.8-1.55 6.3 1.85 1.6 3.15m-19.2-15.3 1.7-.45M23.1 109.8l2.85 5.95m-.1 16.45 2-.5m-3.4.85-2.2-24.5.6 1.25m1.6 23.25 1.4-.35m3.75-.95 3.25-.85m-11.3 6.45 1-3.8 1.9-.5m1.45 6.65.65 2.5m.4-.15 2.05.65 4.2 1.2m-4.05-1.65 2.6-2.1.15-.15 3.35-2.7m-9.55 1.55-.4.1-3.85-1.25.1-.35m4.35 2.35-.2-.85 9.25-2.5.05.2m-6.4 13.7-.95-3.65-1.1-4.4m6.85 2.2-5.75 2.2m7.05 1.2q.8-2.65 2.65-3.75m-3.1 5.95-5.65.25.25 1.1 2.2.25h.05l2.85 1.9.35 1.65v.05l.1.4.15.75m.65-.05-.05-1.3-.4-3.8-.1-1.25-.15-1.3.2-.85m-1.3-3.4.7-.25-.9-.25m8.9 2.75.3 5.95-1.25 1.6m.8 4.05-3.75.1h-.6l-3.1.1 3.1.75.45 2.25-.35.8m1.45.05 3.75-1.4m-5.85-17.85-2.95 1.1m6.6 10.6.45-.55m-3.45 2.2 1.6-.15 1.4-1.5.3.85q.45 1.35 1.25 2.45m-7.1-3.05 3.65-.9-.15-3.85-.3.05-3.6.9m-1.7 5.35-3.5.45M18 157.85l3.4 1.5 3.75-.5.05-.25 7.7-1.05.15.05 1.5-1.75M37.6 162l-.2.45 1.75-.65m1.05 4.1 4.4-1.2m-6.9-8.8-2.5.25v-.35m1.5 3.75-3.05-.7-.15 3.6 3.05-.05v-.05l.6-2.55m-1.4 4q1.1.1 2.9 1.3l.05.05 1.1.85.4-.1m.9 3.8 5.2.5.8.1m-7.3-4.3-.75.2m.75-.2.45.35-.05.25-.45 2.15-1 .7 2.35.25m-1.2 4.2.2 1.3-3.4 1.65-2.85.4.55 2.6 13.15-5.6-.6-2.5-.05-.05M26.2 165l7.8-1.3 1.75.1 1.25-.4.4-.95M35.15 169l.1-3.45 2.8.5.3 2.25-3.2.7m-9.4-.7.45 1.6 1.25 1.55m.3-.2 9.55-.8 1.45-1m-.35 5.3-.35-2.1-3.1-.35.5 3.65v.05l2.95-1.05v-.2m1.45-1.1-.2-1.55-2.35-1.65m2.55 3.2.05.25m7.95-3.35-1.2.5-.1.05m2.3-.7-.1-.4m-.3 7.8 24.6-6q4.85 1.55 7.7 6 .45 3.9-.6 8.05l-5.8 6.35 1.4-6.6m-.3-.4q-1.2-2.45-3.15-3.3l-10.8 2.8m-.25-.25-.35.1m-20.1-2.7.1-.15 7.3 4.8-.1.1-4.15 5.95-.25.3-.1-.05-.6-.3-6.2-3.25.1-.15 3.9-7.25M8.6 201.4q.75-3 3.4-5.1l9.25-2 23.1 1.35 16.55-11.1m-26.9-3.1.75-.2 13.7-3.45m-14.05 2.05.3 1.4m12.85-7 .8 3.15M28.9 151.5l-.05-.65m4.2 5.2-.4-2.95-3.35-.7.25 4.1m-.25-4.1-.35-.05M18 157.85l-.9-3.8 2.9-2.65 8.85-.55m-4.35 12.6-.55-.45v-.1l-.15-.15m.2 0 1.15-3.9m-1.2 4.05.05-.15m1.75 5.55.55-2.85-.1-.45-2.25-2.1m3.5 8.6.3-.25m-3.25 3.3.15-1.95 2.8-1.1v-.05m-17.3 33.75-5.2-.9q-3.15-2.2-4.95-6 1.6-5.45 5.2-9.9l28.8-6.95m-.15-4.2-4.6.3-3.2-.3-1.55-2.7m34 145.05.1.05M8.6 201.4l4.35 4.3-2.8-.5m22.9-47.6 1.45.35m31.15 169.7q-4.75-3.45-7-7.9l-.05-.1m30.75 11.5-13.3 1.7q-5.6-2-9.6-4.65M168.5 226.9l.2 1.2 7.45 21.3-2.1 9.85m1.05 5.8.15 1 5.9 12.8m.1.3-2.55 7.75-2.2 13.2m13.45 92.55 1.65 1.7m-.4 7.45.3.3m-53.3-246.05-.4-.4m-4.9 1.35.05.35 2.9 18.25.1.5v1.25l3.75.65 2.9-4.2-.25-.8-2.45-8-1.7-8.95m-7.95 1.5-.15.35 2.85-.55m-.05-.35-.1-.75m40.5 110.35.05-.75.1-1.15.6-5.45m-76.5-88.3L97.5 173m.5-7.75-.3 1.2-.15 4.5m-3.65-.6-.4 2.2 3.95 2.3.05-1.85m-3.6-2.65 2.5-8.05 1.3-7.45m.3 10.4 2.1-8.7m12 170.15v.05m-1.25 11.1 9.3 3.6m5.45 1.85 1.05.35q14.05 4.4 29.05 6.8m5.35-.5 4.85-1.55.95-.35m4-25.75 5.65-22.2m-44.6-46.45-.5-1.55m.5 1.55q7.55 22.8 16 38.7 4.35 8.15 8.95 14.45 2.35-.65 4.7-2.6 3.55-3 7-9.15l2.65-8.9v-.05l.4-3.85v-.05l1.65-15.15M89.7 331.1l15.15-2.75m2.3-.5 4.95-1.1m-22.4 4.35h-.15l-.15.05h-.05m21.45 6.9.05-.2m69.95 4.4-4.85 2.2-9.1 3.6m14.1-5.85q5.05-2.45 10.05-5.3m-10.2 5.35.15-.05m-18.7 47.1q6-3.8 11.9-4l7.55-.6 6 5.6 2.25 2.35m-49.9.4 3.8-3.35q4.4-1.35 9.65 1.1l4.95 7 .05.05m.25.1.2-.45 3.1-7.6M189.2 400l.55.5 1.45 1.3m-1.3 26.4 1.75 8.65m-.5.35q-25-1.6-52.4.8l.5-9.05m-2.7-23.5-.4.35-.3-3.2m0-.35-.15-5.45.75-.6m52.75 3.8-7.6-6.75q-8.55-1.8-14.6 4.45l-7.4 13.7 1.3 3.25 3.85 2.35 6.15-2.15m0-.35.05-.6v-.05l.15-2.3-.55-.8m-.65.45-4.4 1.2m-.3.1-1.05-2.8 4.55-1.05m.2-.15-.25-2.2m20.8-5.5-.85 2.15-1.15 2.75-3.35-.35m-1.1-1.2.8 1.7.8 1.65-4.65 3.85-2.55-.3.35.95-5 2m-.25 0-1.25-.15m4.35-7.3-3.7 1 .05.05.9 2.8 3.8-1.2-1.05-2.65.05-.05-.45-1.4m7.45-1.3-3.5 1.9.8 2.15 3.75-1.75m-.7-1.95-.4-.8m-.2.05.15.25m-.15-.25-.55-1.35m6.75.9-3.3.6v-1.85l3.5-1.25m-11.4 10.6-.75-1.85m-7.55-.7 1.45 2.25m-11.6-12.8v-.45m-2.7 16.5-4 3.35m-.35 0-7.5-.65-4.7-4.7 2.7-7.2-1.45-2.6-4.4 3.25m21.15 6.4.4.95m.65-1.4.2-13.45m-.2 13.45v1.55l.85-1.55m-4.45-5.45 2.55 5.9m-17.65-18.8-3.6 3.15m-27.15-17.25-4.5-5.05-.05-.05-.85-1m-28.7 9.7 7.95 3.95m6.4 8.25.05-.45m-.85 11.5-7.2-9.1m-13.65 4v8.8l-17.3 5.35-.25.05v-.45l-5-7.3-.2-.35m-5.6-34.55.7-1.6 5.9-2.05 4.35 1.35m55.3 21.3.05 9.7-16.7 4.6.4-10.8m55.45 12.7-1.45 4.45 2.9-.45 6.55 1.05-1.3-4.95-6.7-.1m-4.05-5.25h.05l2.5-1.9q4.55-2.95 8.3-.45 3.4 2.6 3.35 6.1l-1.45 2.7 2.55 5.35M143 411.95l.55-.05M65.2 378.25l10 4.3m-26.85-.75-5.25 1.95 2.15 2.25 1.2 2.55 4.2-1.75-.5-3-1.75-2h-.05l.15-.05 5.2 1.2m-10.65.75q1.7-2.2 4.65-3.55.75-.35 1.6-.6l8.15 3.25 9 3.55 6.85 2.7M42.15 374.1l-.05.05-1.1 1.95m1.35-1.45 13.6-1.6 6.15 3.05m-20-2v.05m-6.7 9.45 1.65.85 5.3-9.8m-6.5 8.05-1.85-3 1.75-2.85 2.3-1.15m15.25 16.25-.7.35-7.2.95-4-2.95.05-.35.4-1.8m-.8-.15-4-3.55m5.6-.2.35-.5-.25.1-.1.4-.8 3.9m1.15-4.4h.1l-.05-.05-.05.05m-3.5-11.4-1.35 3.1m4-1.35 2.45-.9M41.05 388q.45-2.1 1.6-3.75m17.2 6.2-3.1-.3-3.45 1.8m-2.95 22.5.25.4m.15-9.45-.4 9.05" transform="translate(1.75 1.75)"/><path stroke-opacity=".463" stroke-linejoin="round" stroke-linecap="round" stroke="#000" fill="none" d="M174.55 85.1v.55l-.15 3.2 2.45 3.75 3.2 4.9 6.05 27m2.5 4.7q-.15 4.35-2.25 15.1m-20.65-15.7-5.9-11.8-.75-2.85-2.7-10 .45-4.45m-14.7 46.45 6.05 3.1m3.55 18.9 9.35 9.35m-38.3-100.45 1.6-1.6.05-.05 1-1.2.55-.8M107 80.1l3.8 1.2m17.6-13.2.1-.3m-.1.3q-.95 2.8-2.45 5.1M122 77.45l.4-.3m28.85 10.75.2.6.7 2.05.3.75m.05.1q1.25 3.1 3 5.5l1.8 2.1.2.25 1.35 1.2 2.3 1.55m-76.7 1.4 2.9 5.25.1.35.1.35 2.5 3.55m20.8-31.5-.05-.1m-43.85 62.55L49.4 151.3m38.15-41.95.1.25q3.25 9.95 1.85 27.35l-10.85 1.9-11.7 5m49.45-2.05-.5-.8-1.45-4.65m1.95 5.45-2.3 3.05-.3-4.05m-5.15-16.85-1.95 1.7m67.7-36.8-.5 1.7q-.75 2.25-2.35 4.4l-.05.05v.05l-.05.05-.3.25-.35.15M53.45 165.8l37.2-4.6m3.3-10.6 5.55-2.05m-46.35 17-2.95 4-1.35.85-.45.35m29.2 75.15.6-3.45.3-1.75.2-1.3.85-5.1 1.1-7.1m2.6-18.65v-.15m.05-.45 2.35-21.15v-.45l.15-1.3.05-.75-.15.65m-.15-.15-.05-.1 7.2-15.35M53 332.7l2.85-6.25m.15-.4 2.45-6m.15-.4 1.3-3.4 2.25-6.35m11.55-48.3 1.8-7 1.85-7.4.25-1.3m-4.75 19.9.85-4.2m-.9 4.4-1.25 3.85q-1 2.25-2.2 7.95l-1.3 6.1-1.3 4.05-.55 4.4q-1.35 9.5-3.85 17m-3.75 10.3-.05.2M53 332.7l-2.45 4.8v.05l1.45 2m8.15 8.45 1.3 1.15 1 .75M166.8 216.2l1.7 10.7m5.55 32.35.95 5.2.1.6m3.6 21.85 1.2 5.45q5.75 25.45 11.1 44.55 4.35 15.6 6.3 21.45l-.5 7m-10.45 12.1-6.6-1.7 3.3 4.9 7.15 2.5.2 9.05m1.2 2.15-.3 3.45-.1 2.6v1.4q0 7.35 1.6 14.75l.1 1.15h-.25l-.6 10.05h-2.2q-25.6.05-50.6 1.2l-1.9.1-.3-9.7v-.05q.45-3.7.35-7.3-.15-3.3-.85-6.55m30.25-189.5v.25m-15.1-48.25-.3-.3m-35 75.75v.1q-.1 9-1.9 21.05m0 .25-2.2 12.6q2.35 4.55 2.45 2.9l-.2 12v.05q-.35 13.65-2.45 34.35m0 .05-1.25 11.1m5.55-94.45q.05-12.3-3.05-19.05m-3.4 119.85.85-6.15m-2.1 17.75q.75-1.95.25-5.55l1-6.05m37.9 36.8 1 .25q5.1 1.35 10.8 5l5-8.5m7.3.9 7-2.6m.8-.3-.8.3m-37 5.15v1.15l-.2 4.1-1.7 6.6-.2.6m47.85-3.35-.85-4.05-3.8-5.6m-47.2 21.95v-.35m.6-6.05.45-12.4 5.05-1.45m50.7 35.35.15-1.15m-28.05 3.1h.1l6.25-.25h.1l21.45-1.7m-64.1-41.85 4.05 1.2m9.3.15.05 4m-37.2-7.35q2.25-2.35 3.15-5.2v-.05l-2.4-1q1.1-5.15 1.35-5.2m1.05 6.2.1-.35M72.65 355.6l2.5 1.05q4.9.2 9.75-.25m4.15-.45q5.7-.85 11.25-2.55m-17.05 33.5h.05l14.8-4.2h.05l11.3-3.35.25-.05v.05m-5.3-5.1q-2.8 2.7-7.4 4.65l-9.85.95-2.7.4q-4.8.8-9.25 2.3m6.35 14.15 8-1.95 16.25-3.5 4.75-.95-.85-10.95m-4.95-5.5-.35.4M81.55 396.7l-4.3 1.1q-4.75 1.2-9.45 2.55m-22.45 6.8-4.35 1.4v-.05l-5.3-9.25-.85-1.45q-2.85-4.95-5.65-8.65l-.25-10.7.2.3.45-.15 6.15-2.15m14.75-6.5 15.7-7.35m70.85 56.75h.1l14.75.45h.35l12.5-.15M114.5 371.4l-6.6-2.8m-41.75-16.25q1.9 1.15 6.5 3.25l-5.7 6.25m-.05.05-.6.65-.1.05m7.2 26.9 9.85-2.6M42.1 374v.1m-3.95 1.35-.1.25-2.2 7-.15.4m2.35-7.4-2.3.75M30 379.7l2.8 3.4.9 1.25v.05l.1.15.05.1.85 1.25 3.45 5.95 2.6 4.9.1-.05.85-.15 11.3-2.3h.05l.9-.2 4.35-.95M41 397.3l-.5-.5.1-.05h.15l.2.3.15.3.05.1-.05-.05-.1-.1m0 .2v11m3.6-35.3-2.5.8m2.5-.8 5.9-3.25m9.7 22.7-1.65.4m1.8-.45-.1.05h-.05m.15-.05 13.05-3.1m-13.55.95q3.15-2.3 6.6-4.1m-37.3-7.6.85.95m15.35 27.45 5.4-1.75q8.5-2.7 17.05-5.05" transform="translate(1.75 1.75)"/><path stroke-opacity=".2" stroke-linejoin="round" stroke-linecap="round" stroke="#000" fill="none" d="m122.2 102.2 16.9-22.5-1.35 2.75-13.4 22.9-.05.1m-10.8 8.35 8.65-11.55.05-.05M111 118.45l2.15-4.5m4.3 3.4 6.85-11.9m-14.35 15.4-1.3 3.1-5.1 15 13.3-18.55.05-.05m-5.9-1.9-1.05 2.4" transform="translate(1.75 1.75)"/><path stroke-opacity=".243" stroke-linejoin="round" stroke-linecap="round" stroke="#a22b2b" fill="none" d="m110.8 81.3-.3-.6" transform="translate(1.75 1.75)"/><path stroke-opacity=".243" stroke-linejoin="round" stroke-linecap="round" stroke="#000" fill="none" d="m161.65 177.15-.3-1.25m-67.8-80.1.8.8m18.3-1.75 1 1.15-1.45 10.65M42.45 157.8l1.6 5.15m68.1-30.85-4.65 3m15.3-.5q-5.45-2.05-7.7-4.6m-.4-4.8-.05-.4m-2.7 22.4-4.7 2.2m32.7-31.3 2.3 3.25m-2.45-3.45.15.2m-25.25 7.1.4 4.8m1.3 16.95 6.65 2.35m-6.65-2.35-.35-.15m-74.9 6.9 1.3 4.1m2.15 6.9-.55-1.75m2.25 7.25-1.7-5.5m2.3 7-.35-.6-.25-.9M61 185l3.95 2.15 5.1 17.1m-.3.25 2.35 15.9 3.8 13.35-7.4 5.8-4.45 3.45 5-1.45 4.65 20.05m-4.65-20.05 7.35-2.15 1.2 6.5-.1 1.8m3.15-20.5-2.05-7.1 4.35-11.55m-56.85 5.5 1.3 9.45 2.95 10.65 4 19.7.6 10.7 7.15-.95-7.45 3.25 6.5 13.1v13.1l8.2 23.85 4.15-.8-3.95 3.35L53 332.7m9.15-22.8.2-.55-4.25-17-17.5-70.55-.55-2.1m-13.95-5.65q-2.45-15.7-4.85-19.75m25.8 12.1-.1-.3-2.6-10.45m2.8 10.5-.2-.05m.2.05L62 213.1l6.5 26.45m-21.85-33.1-6.6 13.25M52 339.55l2.8-.8.75-2.35 4.45 6.9.15 4.7m2.3 1.9 4.25-8.65-.05.2-.6 10.85.1.05m.3-24.15-2.7 10.3m-.35.1-1.55-4.1 3.8-6.85 1.85-3.4-1.05 3.95m101.3-135.4q-2.6-4.5-4.5-10.3l-1.6-5.35m-23 9.65q2.05 1.5 5.45 4.75l.6.55q2.9 2.7 4.55 3.15l.4.5m19.75-2.9.05-1.2-1.7 1.15.05-.5m1.6.55-.65 15.15v.3l3.45 8.2.4 8-5.8-8.3-.2-.2m30.2 149.35-8.25 1.05-2.2 11.05M168.75 208l-.1.25q-1.05 1.75-3 1.4l-1.55-.8-3.85-2.1h-.4m-9 5.9 3.75 5.45 2.25-6.6 7.4 7.4 2.35-2.85V216m-11.3-22 9.1 6.3 2.05-.45 1.3-7.05m-17.2-2.1 4.75 3.3m-33.2-10.2 6.6 5.95m.45.15 5.05 13.15 1.3-6.05 10.3 9.5 2.9 6.6 1.15-1.95 1 1.5M115.2 180.3l7.75 10.8-.85-7.3m16.55 3-.05-.05-6.55-5.15m16.7 7.85 1.15.8m-44.55 29.4q3.55 1.45 6.95 3.95l1.05.75q8.3 6.5 15.45 19.2m-14.3 21v.25l-18.2 25.9m23.85 50.75 1.7-8.4 3.75 10.25.65 1.7-7.55 10.6 1-12.1.45-2.05m35.55 9 .45-8.75 4.9 8.25 1.85 3-5.05 5.25-.45.45m-27.65-133.5q-13.3-5.6-32.95-20.75m32.95 20.75 2.45.6m-3.1 18.35.25.45m-24.5 83.8 1.9-4.3.4 3.8.25 2.6.6 5.55 1.95 8.2m-26.6-49.8.35.85q1.8 2.7 10.45-1.45l2.05-2.95m-6.05 48.5 3.8-2.5-.45 7.35-3.35-4.85m15.35 3.35 1-6.95.9-5.3m-1.9 12.25q-.6 4.8-.9 9.3m-.05.05q-.9 4.8 2.3 10.35v.05q1.1-4.75 1.85-6.65m-8.4-2.4 3.95-10.9-1.3-9.85 1.9-4.3m34.05 44 1.8 4.05 1.2.8 5.75 3.75.2.05m17-3.3.25-7.35 6.85 8.3m12.4-19.55 2.1-1.8 3.8 2.4 3.2-3.35-.55 4.3-6.5 3.25-2.3-.7.25-4.1m-26.5-.9-2.3-4.8.15-2.95m15.9 19.5-1.85-4 3.55-1.65-1.45 5.7m-28.4-9.2-1.6-7.9-1.1 8.9 2.15 5 .55-6 2.75 13.6-3.3-7.6m-10.7-11.55-1.15-4.95-1.65 5.7.85 3.15 1.95-3.9m-17.7 16.15.7-3.6 5.65-6.65 1.85 9.35 5.85 5.35m4.05 1.2.4.1 2.5.25.7-11.3 2.7 6.25m-49.85-16.4-.15.6m-4-.15h.1l1.3-6.85m.05-.25.65-3.45 2.7 7.25-.65 2.85m-53.3 20.5.6-3.15 3.15-.95.05-.1m26.65-9.65-4.75-13.45m4.75 13.45.45 1.1" transform="translate(1.75 1.75)"/><path stroke-opacity=".322" stroke-linejoin="round" stroke-linecap="round" stroke="#6a2f2f" fill="none" d="m134.55 112.15.2-.05m5.45-1.1.3-.15M83.25 208.4l.05-.45m-.05.45 1.1 4.15" transform="translate(1.75 1.75)"/><path stroke-opacity=".263" stroke-linejoin="round" stroke-linecap="round" stroke="#000" fill="none" d="m126.35 129.8 2.25 14.45-3.55 10.65m1.3-25.4-.5-3" transform="translate(1.75 1.75)"/><path stroke-opacity=".192" stroke-linejoin="round" stroke-linecap="round" stroke="#000" fill="none" d="m101.75 143 .2 6.65M170.3 94l-.15-3.45q-.4-3.9-1.55-7.8l-.65-1.5q-1.45-3.1-4.15-6.25" transform="translate(1.75 1.75)"/><path stroke-opacity=".2" stroke-linejoin="round" stroke-linecap="round" stroke="#c08c58" fill="none" d="m106.4 159.15.1-1.35m-80.55-42.05.25.5m3.35 15h.05m-6.75-21.95.25.5m133.25 112.45.1.95M115.2 159v.45m-8.8-.3v.5m8.05 18.3-.05.45m-9.2-1.45 1.2-17.3m-47.85 233.4-.25.05" transform="translate(1.75 1.75)"/><path fill-rule="evenodd" fill="#e7e66d" d="m116.15 156.7 9.05.25 3.15 3.15.05.05.2 14.95v.25l-5.9 5.75v.6l-8.9-.2 3.55-4.55 4.6.3 2.4-1.9v-1.6l-.2-12.6-2-.95-8.9-.35 2.9-3.15m-13.7.5 2.55-.85 7.1.2-3.3 3.05-2.55-.1-.05.6-.65 14.7.05.05.1.05h.05l2.35 1.4 1.95.15-4.2 4.35.6.6-.85-.3.25-.3-.25.3-4.15-1.6.6-21.75.4-.55m10.65 19.45 1.35.1-3 4.7h-2.05l3.7-4.8m12.15 5.05 3.4-2.95.05 2.85-.2.2-3.25-.1" transform="translate(1.75 1.75)"/><path fill-rule="evenodd" fill="#afaf1d" d="m128.35 160.1-3.15-3.15-9.05-.25-4.05-.15-7.1-.2-2.55.85 2.95-2.85 23.2.45 3.2 3.45-3.45 1.85.05.05-.05-.05m-4 13.65v1.6l-2.4 1.9-4.6-.3-2.9-.2-1.35-.1-3.05-.2-1.95-.15-2.35-1.4 4.25-2.05.55.3 13.8.6" transform="translate(1.75 1.75)"/><path fill-rule="evenodd" fill="#6d6c12" d="m128.35 160.1 3.45-1.85.05.05-.35 20.25-2.8 3.05-.05-2.85v-.2l-.05-3.2v-.25l-.2-14.95-.05-.05m-22.15 0 .05-.6 2.55.1 1.55.1-.05.2-.3 12.95-4.25 2.05h-.05l-.1-.05-.05-.05.65-14.7" transform="translate(1.75 1.75)"/><path fill-rule="evenodd" fill="#f7f5cc" d="m112.1 156.55 4.05.15-2.9 3.15h-.15l-2.75-.15-1.55-.1 3.3-3.05m10.6 25.15v-.6l5.9-5.75.05 3.2v.2l-3.4 2.95h-2.55m-9.6-5.05-3.7 4.8-2.95-.05-.6-.6 4.2-4.35 3.05.2" transform="translate(1.75 1.75)"/><path fill-rule="evenodd" fill="#dddc3c" d="m117.35 176.95-3.55 4.55-2.35-.05 3-4.7 2.9.2" transform="translate(1.75 1.75)"/><path stroke-opacity=".463" stroke-linejoin="round" stroke-linecap="round" stroke="#000" fill="none" d="m131.8 158.25-3.2-3.45-23.2-.45-2.95 2.85-.4.55-.6 21.75 4.15 1.6.85.3 2.95.05h2.05l2.35.05 8.9.2h2.3m-11.75-21.85 8.9.35 2 .95.2 12.6v1.6l-2.4 1.9-4.6-.3M106.2 160.1l-.65 14.7.05.05m4.75-15.15-1.55-.1-2.55-.1m6.85.35-2.75-.15m4.1 17.05-1.35-.1-3.05-.2m4.4.3 2.9.2m-11.6-2.05 2.35 1.4 1.95.15m18.65 5.15 2.8-3.05.35-20.25-.05-.05m-6.55 23.45 3.25.1.2-.2" transform="translate(1.75 1.75)"/><path stroke-opacity=".322" stroke-linejoin="round" stroke-linecap="round" stroke="#000" fill="none" d="m116.15 156.7 9.05.25 3.15 3.15m-25.9-2.9 2.55-.85 7.1.2 4.05.15m12.45 18.4-.2-14.95-.05-.05m-22.75 14.75.1.05h.05l4.25-2.05.3-12.95m.25 13.25 13.8.6m4.3 4.8-.05-3.2m.1 6.25-.05-2.85" transform="translate(1.75 1.75)"/><path stroke-opacity=".2" stroke-linejoin="round" stroke-linecap="round" stroke="#000" fill="none" d="M113.25 159.85h-.15m-7.5 21.25.25-.3m19.15.9h.25m3.4-2.95v-.2" transform="translate(1.75 1.75)"/><path fill-rule="evenodd" fill="#956d48" d="m134.6 178.95-7.75.35 1.2-2.65 12.7-4.1 5.15-6.4.15-.15 1.35-5.05h.2l-.15-3.05-6.5-4-3.85 2.95-3.35.75v.1l-.2-.05-.05-.05-.1.15q-2.6-1.7-1.6-4l1.35-.2.25 1.6 4-.7.6-2q3.2-1.05 6.5-2.75l6.9.1 3.4 3.75-2.15 10.05-10.75 12.5-7.3 2.85" transform="translate(1.75 1.75)"/><path fill-rule="evenodd" fill="#c8a98c" d="m128.4 181.35.1-.15.05-1.6 4.05.2.15.3 1 1.6-3 .45q-1.2-.1-2.35-.8m4.75-27.8 4.85-1.1-.6 2-4 .7-.25-1.6" transform="translate(1.75 1.75)"/><path fill-rule="evenodd" fill="#70543a" d="M128.4 181.35q-.95-.55-1.8-1.4l.25-.65 7.75-.35-1.85 1.15-.15-.3-4.05-.2-.05 1.6-.1.15" transform="translate(1.75 1.75)"/><path fill-rule="evenodd" fill="#5e4333" d="m132.75 180.1 1.85-1.15 7.3-2.85 10.75-12.5 2.15-10.05-3.4-3.75h2.8l13.4 13.35-.15.1-3.25 9.45q-2 2.8-4.35 4.9l-.55-2.5-1.05-1.45-.25 1.75q-.4 2-2.65 4.1l-1.5 1.85-2.65 1 1.95-4-.15-.2-1.2-3.05q-1.45 4.35-4.7 7.55l-1.25 1.1-5.5 1.25-1.3-.8 4.1-2.4 2.75-6.8-.25-.1q-1.85 3.65-5.4 5.05l-3.9 1.2-2.6.55-1-1.6m14.65-19.15q-.85-2.15-6.9-3.85-2.85 1.9-6.75.6v-.1l3.35-.75 3.85-2.95 6.5 4 .15 3.05h-.2" transform="translate(1.75 1.75)"/><path fill-rule="evenodd" fill="#483326" d="m159.85 177.6-1.3 1.05-.15-.1-3.05.95q2.25-2.1 2.65-4.1l.25-1.75 1.05 1.45.55 2.5m-8.65 4.75-4.1.3q3.25-3.2 4.7-7.55l1.2 3.05.15.2-1.95 4m-12.15 1.85q-1.9-1.3-2.6-2.6l-.1-.45 3.9-1.2q3.55-1.4 5.4-5.05l.25.1-2.75 6.8-4.1 2.4" transform="translate(1.75 1.75)"/><path stroke-opacity=".463" stroke-linejoin="round" stroke-linecap="round" stroke="#000" fill="none" d="m126.85 179.3-.25.65q.85.85 1.8 1.4m-1.55-2.05 1.2-2.65 12.7-4.1 5.15-6.4m.15-.15 1.35-5.05q-.85-2.15-6.9-3.85-2.85 1.9-6.75.6l-.35.05q-2.6-1.7-1.6-4l1.35-.2 4.85-1.1q3.2-1.05 6.5-2.75l6.9.1h2.8m13.25 13.45-3.25 9.45q-2 2.8-4.35 4.9l-1.3 1.05m-.15-.1-3.05.95-1.5 1.85-2.65 1-4.1.3-1.25 1.1-5.5 1.25-1.3-.8q-1.9-1.3-2.6-2.6m-.1-.45-2.6.55-3 .45q-1.2-.1-2.35-.8m5.1-23.75.05.05.2.05m11.9 17.2q-1.85 3.65-5.4 5.05l-3.9 1.2m10.75 1.5q3.25-3.2 4.7-7.55m3.55 4.4q2.25-2.1 2.65-4.1l.25-1.75" transform="translate(1.75 1.75)"/><path stroke-opacity=".243" stroke-linejoin="round" stroke-linecap="round" stroke="#000" fill="none" d="m128.5 181.2.05-1.6 4.05.2.15.3m5.25-27.65-.6 2-4 .7-.25-1.6m.6 28.15-1-1.6" transform="translate(1.75 1.75)"/><path fill-rule="evenodd" fill="url(#b)" d="M35.1 219.75q5 9.4 7.55 22.1 2.55 12.65 1.25 21.2-1.4 8.5-5.8 7.85-4.5-.6-9.45-10.05-5-9.45-7.55-22.1-2.6-12.7-1.25-21.2t5.75-7.9q4.5.65 9.5 10.1" transform="translate(1.75 1.75)"/><path fill-rule="evenodd" fill="#d6d0a0" d="m158.25 44.2 2.1.95.05.05 1 3.6-1-3.6-.05-.05-2.1-.95q.75-3.95-.2-7.95-1.5-2.15-3.1-3.4 4 2.95 3.9 5.25 2.75-7.55-3.2-14.05-7.7-5.3-12.8-6.3l-.1-.25-1.95-3.75 1.95 3.75-6.75-.75 3.2 4.85v.45l.55 16.25.25 6.2.4 1.3 1.2 3.85-.05.05q-5.05 5.4-10.35 10.1l-1.5 1.3-3.85-1.9-1.7.15q-2.3.3-4.5.9l-.55.15q-2.7.75-5.35 1.95l-.1-.2 4.6-3.75 9.05-1.75 2.15 1.2 3.1-4.75-.25-3.9-4.95.05 8.4-5.55-.05-.2.05.2-8.4 5.55-.15-.05.7-2.2 5.4-4.1v-.1l2.4.6-2.1-14.7-.55-.15.95-3.75v-.15l-3.1-3.25-5.95 4.75-3.9 11.45-9.15 3.25-6.15-2.3.05-.2-4.3-2.4-.55-.3-11.85-6.7-6.7 1.45-.1.15-.3-.25 1.7-2.95 6.35-1.65 17.15 10.5 6.8-1.7 5.35-16.8-2.3-10.7-3.8-2.55-.2.05-.65.15L115.8 0h.9l.55.25.3.15 6.25 5.15-7.1-1.85-3.45.75 3.45-.75 7.1 1.85 2.55.65 3.75 3.45 1.9 2.1.2-.1h6.25l2.35 2.1q25.7-3 27.25 21.15l-1.1 4.55q-1.75 5.05-5.55 9.35l-.05.05q-4.2 4.7-10.9 8.55 6.45-6.5 7.8-13.2m2.1.95 3.8-4.35 2.8-1.35-2.8 1.35-3.8 4.35m-88.5-5.95q2.3-2.5 4.9-3.6l1.9.2.35-.05q.2 4.3.9 8.95l6.7 9.2-5.65.4-2.75-1.85-.2-.5q-5.6.55-7.45 5.55l-1.7-2.15 1.7 2.15-.4 1.35q-.45 1.65-.55 3.75 1.85 5.2 6.2 8.6l-6.7-3.8q-4.15-5-5.4-10.55.85-6.5 3.75-9.45 2.4-2.4 4.8-3.15-.4-2.75-.4-5.05m30.8 15.65.15.15 1.2.9-.3.4-8.55-.25v-.35l1.45-1.2 6.05.35M117.7 34.6l-11.9 3.75 11.9-3.75m18 8.9v-.1.1m2.65 4.75 2.05-2.45-2.05 2.45M128.7 14.1l4 .5 1.9.25 1.4 1.9-1.4-1.9-1.9-.25-4-.5-.15 1.7.15-1.7-1.15-.15-.25.2-5.4 4.4-4.2 15.65 4.2-15.65 5.4-4.4.25-.2 1.15.15m-2.8-5 .8-1.85-.8 1.85m.9 7.45.5-2.4-.5 2.4m5.9-1.95-2.6-4.95 2.6 4.95m3 .4-1.1-.15 1.1.15M68.05 56.65l2.1 2.2-2.1-2.2M97 81.3l3.3 1.75 10 23.25 14.55 19.25 6.2.25 1.9-2.25-5.95-7.6-1.8-6.95 12.45 16.9 5.5 5.9-.15.15-.3 3.3q-3.8 4.05-8.5 4.45l-6.75-5.6-.15-.15q-9.25-10.95-17.6-23.3l-1.05-1.55L96.3 82.7l.7-1.4M72.25 44.25l.1.65L78 51.95l-5.65-7.05-.1-.65" transform="translate(1.75 1.75)"/><path fill-rule="evenodd" fill="#a89a68" d="m142.75 17.5.1.25q5.1 1 12.8 6.3 5.95 6.5 3.2 14.05.1-2.3-3.9-5.25-4.65-3.8-10-.7l-.85 1.7-.4.8-3.95 3.65-.55-16.25v-.45l-3.2-4.85 6.75.75m2.4 12.85.65-5.35-2.95-7.25L145.8 25l-.65 5.35.65.75-.65-.75-.2 1.8.2-1.8-1.5-1.75 1.5 1.75m-1.05 3.5-3.65-3 3.65 3M127.45 134.1l6.75 5.6q4.7-.4 8.5-4.45l.3-3.3.15-.15.15.2.7-1.8 4.3 2.2-1.9 7.15 1.55 5.65-7.2-.3-7.05-3.75-.9-.95-5.35-6.1" transform="translate(1.75 1.75)"/><path fill-rule="evenodd" fill="url(#c)" d="m115.8 0-3.4 4.65-4 1-1.05.3-.25.05-.1.05q-6 1.7-11.55 4.05l.5-.6-.5.6q-2.6 1.1-5.05 2.35l-.55.3q-2.9 1.45-5.65 3.1l-3.45 5.1.7-6.3.3-.95.2-.5.05-.25q2.7-2.55 5.75-4.6l1.4.7.5-1.95q11-6.7 26.15-7.1" transform="translate(1.75 1.75)"/><path fill-rule="evenodd" fill="url(#d)" d="m112.4 4.65.65-.15.2-.05 3.8 2.55 2.3 10.7L114 34.5l-6.8 1.7-17.15-10.5-6.35 1.65L82 30.3l.3.25-1.75 2.3L79.1 27l.05-.55.15-1.45.2-1.75.1-.6 1.15-1.7 3.45-5.1q2.75-1.65 5.65-3.1l.55-.3 2.95.3 2.1-2.65Q101 7.75 107 6.05l.1-.05.25-.05.3 1.25.75-1.55 4-1" transform="translate(1.75 1.75)"/><path fill-rule="evenodd" fill="url(#e)" d="m108.4 5.65-.75 1.55-.3-1.25 1.05-.3M95.45 10.1l-2.1 2.65-2.95-.3q2.45-1.25 5.05-2.35" transform="translate(1.75 1.75)"/><path fill-rule="evenodd" fill="url(#f)" d="m89.65 7.1-.5 1.95-1.4-.7 1.9-1.25" transform="translate(1.75 1.75)"/><path fill-rule="evenodd" fill="url(#g)" d="m79.3 25-.15 1.45-.05.55 1.45 5.85-1.6 2v.2l.05.35v.35l-.35.05-1.9-.2q-2.6 1.1-4.9 3.6-.05-2.7.35-4.85l.9-4.65 5.8-4.7h.4" transform="translate(1.75 1.75)"/><path fill-rule="evenodd" fill="#fcfaf1" d="m80.55 32.85 1.75-2.3.1-.15 6.7-1.45 11.85 6.7.1.2-.1-.2.55.3-.45-.1-9.9-1.75-6.35.95-1.3 10.05 3.95 8.4-.85.4-6.7-9.2q-.7-4.65-.9-8.95v-.35l-.05-.35v-.2l1.6-2" transform="translate(1.75 1.75)"/><path fill-rule="evenodd" fill="#f4f3d7" d="m86.6 53.9.85-.4-3.95-8.4 1.3-10.05 6.35-.95 9.9 1.75 1.2 2.95-1.2-2.95.45.1 4.3 2.4-.05.2 6.15 2.3 9.15-3.25 3.9-11.45 5.95-4.75 3.1 3.25v.15l-.95 3.75.55.15-1.65 5.3-4.05 13-.7 2.2.15.05 4.95-.05.25 3.9-3.1 4.75-2.15-1.2-9.05 1.75-4.6 3.75.1.2-1.45.75h-.05l-.25.15-.45.25-1.65 4.15-5.45-.5-.55-.05-1.3-.15-10.2-1.5h-.6v-2.8h6.55l-7.25-2.3-4.5-6.45m5.35-7-4.45-3.35 7.25 12.4.05.1h.35-.35l-.05-.1.4-.25v.35l8.55.25.3-.4-1.2-.9-.15-.15-10.7-7.95M102 65.65l.6 1.3-.6-1.3m25.2-16.45-.05.15.2-.1-.2.1.05-.15m-23.3 17.9-.35-1.1.35 1.1m-9.3 15-.05-3.35h6l3.05-2.95 5.2 5.95 7.9 15.65 8.35 11.35.15.25 1.8 6.95 5.95 7.6-1.9 2.25-6.2-.25-14.55-19.25-10-23.25L97 81.3l-1.05-.55-1.35 1.35" transform="translate(1.75 1.75)"/><path fill-rule="evenodd" fill="#a59763" d="m94.75 55.95-7.25-12.4 4.45 3.35 4.65 7.6-1.45 1.2-.4.25M133.6 28.7l2.1 14.7-2.4-.6-1.35-8.8 1.65-5.3" transform="translate(1.75 1.75)"/><path fill-rule="evenodd" fill="#3d3710" d="m91.95 46.9 10.7 7.95-6.05-.35-4.65-7.6m40-12.9 1.35 8.8v.1l-5.4 4.1 4.05-13" transform="translate(1.75 1.75)"/><path fill-rule="evenodd" fill="#6b5136" d="M113.75 62.35q2.65-1.2 5.35-1.95l.55-.15q2.2-.6 4.5-.9l1.7-.15 3.85 1.9-.65 2.15-4.6-1.4-11.4 2.8-2.55 4.25-6.2-.75.15-1 5.45.5 1.65-4.15.45-.25.3-.15 1.45-.75" transform="translate(1.75 1.75)"/><path fill-rule="evenodd" fill="#664d33" d="M104.3 68.15h-.3l.25-.55.2-.45-.15 1m7.7-4.9.25-.15h.05l-.3.15" transform="translate(1.75 1.75)"/><path fill-rule="evenodd" fill="#b3a677" d="m91.1 60.35 7.25 2.3H91.8V60.8h-.4l-.3-.45m3.5 21.75 1.35-1.35 1.05.55-.7 1.4-1.65.75-.05-1.35" transform="translate(1.75 1.75)"/><path fill-rule="evenodd" fill="url(#h)" d="m75.8 71.2-.95 3.5q-8.9-2.3-16.8-8.15-3.9-23.8 11.9-31.25l1.9 3.9q0 2.3.4 5.05-2.4.75-4.8 3.15-2.9 2.95-3.75 9.45 1.25 5.55 5.4 10.55l6.7 3.8" transform="translate(1.75 1.75)"/><path fill-rule="evenodd" fill="url(#i)" d="m74.85 74.7.95-3.5q4.5 3.45 11.7 4.95-6.55.15-12.65-1.45" transform="translate(1.75 1.75)"/><path fill-rule="evenodd" fill="url(#j)" d="m71.85 39.2-1.9-3.9q1.05-.55 2.25-.95-.4 2.15-.35 4.85" transform="translate(1.75 1.75)"/><path stroke-opacity=".224" stroke-linejoin="round" stroke-linecap="round" stroke="#755c24" fill="none" d="m161.4 48.8-1-3.6-.05-.05-2.1-.95m3.1 4.65.05-.05m5.55-9.35-2.8 1.35-3.8 4.35m6.6-5.7.95-.5m-23.8-5.1.75.6m-37.5-28.5.3 1.25.75-1.55M95.45 10.1l-2.1 2.65-2.95-.3m5.05-2.35.5-.6m-8.2-1.15 1.4.7.5-1.95m-1.9 1.25-.4-.25m13.7 27.75-.1-.2m1.65 31.3-.6-1.3m-.95-29.8 1.2 2.95m38.15 7-2.05 2.45M128.7 14.1l-.15 1.7m16.6 14.55.65.75M126.7 7.25l-.8 1.85m1.4 5.05-.5 2.4m13.65 14.3 3.65 3m-.45-5.25 1.5 1.75m-40.9 37.25-.35-.5m-.35-1.1.35 1.1m-33.35-9.6.6.75m-1 .6-2.1-2.2m2.5.85-1.7-2.15" transform="translate(1.75 1.75)"/><path stroke-opacity=".322" stroke-linejoin="round" stroke-linecap="round" stroke="#000" fill="none" d="M158.25 44.2q-1.35 6.7-7.8 13.2 6.7-3.85 10.9-8.55m.05-.05q3.8-4.3 5.55-9.35l1.1-4.55q-1.55-24.15-27.25-21.15l1.95 3.75.1.25L145.8 25l-.65 5.35-.2 1.8-.85 1.7-.4.8-3.95 3.65.25 6.2.4 1.3m14.55-12.95q1.6 1.25 3.1 3.4.95 4 .2 7.95m-3.3-11.35q-4.65-3.8-10-.7m-12.75-20.5h6.25l2.35 2.1m-38.15 41.1.15.15m-7.65.7 1.45-1.2-4.65-7.6m-.15 15.75v3.5m43.9-22.75v.1m-21.95 18.85q2.65-1.2 5.35-1.95l.55-.15q2.2-.6 4.5-.9l1.7-.15 3.85 1.9 1.5-1.3q5.3-4.7 10.35-10.1l.05-.05-1.2-3.85M131.95 34l1.35 8.8 2.4.6m-7.8 3.6 5.4-4.1v-.1m6.45-4.5-.55-16.25m-36.55 32.8-6.05-.35m13.3 13.15 1.65-4.15.45-.25.25-.15h.05l1.45-.75M91.8 60.8v1.85m33.25 46.1L116.7 97.4l-7.9-15.65-5.2-5.95-3.05 2.95h-6l.05 3.35.05 1.35 1.65-.75 12.35 26.4 1.05 1.55q8.35 12.35 17.6 23.3m15.85-2.15-5.5-5.9L125.2 109m2.25 25.1 5.35 6.1.9.95 7.05 3.75 7.2.3-1.55-5.65 1.9-7.15-4.3-2.2m-.7 1.8-.15-.2" transform="translate(1.75 1.75)"/><path stroke-opacity=".443" stroke-linejoin="round" stroke-linecap="round" stroke="#87754e" fill="none" d="M123.8 5.55 117.55.4l-.3-.15-.55-.25h-.9q-15.15.4-26.15 7.1l-1.9 1.25Q84.7 10.4 82 12.95l-.05.25-.2.5-.3.95-.7 6.3-1.15 1.7-.1.6-.2 1.75-.15 1.45-.05.55 1.45 5.85 1.75-2.3m30.1-25.9.65-.15m.2-.05 3.45-.75 7.1 1.85 2.55.65 3.75 3.45 1.9 2.1m-23.6-6.1-1.05.3-.25.05m-.1.05q-6 1.7-11.55 4.05-2.6 1.1-5.05 2.35l-.55.3q-2.9 1.45-5.65 3.1l-3.45 5.1m27.65-15.3 4-1m-11.45 31-11.85-6.7-6.7 1.45-.1.15m-3.3 5.2v-.35l-.05-.35v-.2l1.6-2M79 35.75q.2 4.3.9 8.95l6.7 9.2 4.5 6.45.3.45m10.1-24.85 4.3 2.4 11.9-3.75m-16.2 1.35-.55-.3M139.2 21.6l-3.2-4.85-1.4-1.9-1.9-.25-4-.5m-11 20.1 4.2-15.65 5.4-4.4.25-.2 1.15.15m1.4-4.45 2.6 4.95m1.9.25 1.1.15M86.6 53.9l-5.65.4-2.75-1.85-.2-.5q-5.6.55-7.45 5.55m1.7-13.25q-.4-2.75-.4-5.05-.05-2.7.35-4.85l.9-4.65 5.8-4.7m-8.95 10.3q-15.8 7.45-11.9 31.25 7.9 5.85 16.8 8.15 6.1 1.6 12.65 1.45-7.2-1.5-11.7-4.95-4.35-3.4-6.2-8.6.1-2.1.55-3.75l.4-1.35m1.65-23.15q-1.2.4-2.25.95M78 51.95l-5.65-7.05-.1-.65" transform="translate(1.75 1.75)"/><path stroke-opacity=".322" stroke-linejoin="round" stroke-linecap="round" stroke="#000" fill="none" d="m94.75 55.95-7.25-12.4 4.45 3.35 10.7 7.95m.15.15 1.2.9m-.3.4-8.55-.25h-.35l-.05-.1m-2.35 9.5 10.2 1.5m31-38.25 2.1 14.7m0 .1.05.2-8.4 5.55-.2.1.05-.15m6.4-20.5-1.65 5.3-4.05 13-.7 2.2m-5.9 17.9h.4m-17.8 0-1.3-.15m1.3.15.55.05 5.45.5" transform="translate(1.75 1.75)"/><path stroke-opacity=".243" stroke-linejoin="round" stroke-linecap="round" stroke="#000" fill="none" d="m89.15 136.85 5.05.15" transform="translate(1.75 1.75)"/><path stroke-opacity=".463" stroke-linejoin="round" stroke-linecap="round" stroke="#000" fill="none" d="m144 130.2-.7 1.8" transform="translate(1.75 1.75)"/><path fill-rule="evenodd" fill="#f4f3d7" d="m189.25 137.25.4.1-.4-.1m-24.9-10.45 1.35-.15-3 1.75 1.7-1.1-.05-.5m21.8 17-.45.45.45-.5v.05m-2.15 8-2.1 2.1h-.05v-.05l-.35-5.45 2.5 3.4m-6.5 11.9.2.15-.4.35.2-.5m-10.5.7 1.35 3.95-.15.05-1.2-4m-12.55-12.45-1.1-.45 1.2.25-.1.2m27.45 1.95-.05-.05.05.05m-18.65-19.1-.5.25-3.15-.4 3.65.15" transform="translate(1.75 1.75)"/><path fill-rule="evenodd" fill="#d8cc9e" d="m170.4 128.85 7.25 1.5 11.6 6.9-.2 1.85-2.9 4.7v-.05l-15.75-14.9m7.3 35-.6 1.1v2.35l-7.6 4.6-.3-.05-1-3.45.15-.05q-.35-2.15-1.05-4v-.1q-3.1-8.15-12.85-12.3l.1-.2 1.1.3.25-.05.25-.05 7.85.9 13.5 10.85-.2.5.4-.35m-20.9-21.25-.75-3.5 1.2-2.3 1.85-1.55.5-.6 3.15.4.5-.25 1.05.45 6.8 1.65 5.05 4.45 4.7 6.25-9.3-2.6h-.2l-9.05-2.3 9.05 2.3v.3l5.55 5.55q-3-1.55-6.6-2.75l-4.85-.8-3.15-4.6-5.5-.1m12 26.2-.45-.45.45.45" transform="translate(1.75 1.75)"/><path fill-rule="evenodd" fill="#c7c085" d="m165.7 126.65 4.7 2.2 15.75 14.9-.45.5 1.5 3.2-3.3 3.55.45-.05-.35.85-2.5-3.4-.65-.8-4.7-6.25-5.05-4.45-4.7-4.2-7.6.2 1.95-3.35 1.95-1.15 3-1.75m14.35 30.4-2.55 6.65-13.5-10.85 4.4.5q6.95 2.35 11.65 3.7m-21.5-9.95-2.65-.25.95-2.1.3-.1-.35-2.05 5.5.1 3.15 4.6-6.9-.2" transform="translate(1.75 1.75)"/><path fill-rule="evenodd" fill="#736d40" d="m169.2 171.85-3.95-3 1.75-4.45 1.2 4 1 3.45m-9.6-37.2-.8-1.75 7.6-.2 4.7 4.2-6.8-1.65-1.05-.45-3.65-.15m21.25 12.95.65.8.35 5.45-1.5-1.05-3.45-1.95-5.55-5.55.2-.3 9.3 2.6" transform="translate(1.75 1.75)"/><path fill-rule="evenodd" fill="#ede8bc" d="m189.65 137.35-.4-.1-11.6-6.9-7.25-1.5-4.7-2.2-1.35.15-.3-4.15 3.1-1.6 11.95 2.9 11.5 7.7-.25.4-.7 5.3m-7.75 16.55.2.1.9 3.45-.25 2.7-2.7-3.1q-4.7-1.35-11.65-3.7l-4.4-.5-7.85-.9-.2-.05-.3.15-1.1-.3-.9-.3-.05-.25v.25l-1.15-.3 1.15-2.55 1.6-1.25 1.95-.1 1.4-.15 6.9.2 4.85.8q3.6 1.2 6.6 2.75l3.45 1.95 1.5 1.05v.05h.05" transform="translate(1.75 1.75)"/><path stroke-opacity=".322" stroke-linejoin="round" stroke-linecap="round" stroke="#000" fill="none" d="m189.65 137.35.7-5.3m.25-.4-11.5-7.7-11.95-2.9-3.1 1.6.3 4.15m1.35-.15 4.7 2.2 7.25 1.5 11.6 6.9-.2 1.85m-2.9 4.7-.45.45 1.5 3.2-3.3 3.55m.45-.05-.35.85-2.1 2.1.2.1.9 3.45-.25 2.7m-5.05 3.7-.6 1.1v2.35m-8.75 1.05q-.35-2.15-1.05-4v-.1q-3.1-8.15-12.85-12.3l-1.1-.45m1.2.25-.9-.3h-.05l-1.15-.3 1.15-2.55 1.6-1.25 1.95-.1 1.4-.15 6.9.2-3.15-4.6 9.05 2.3h.2m-15.65 1.85.95-2.1-.05-2.15-.75-3.5 1.2-2.3 1.85-1.55.5-.6-.8-1.75 1.95-3.35 1.95-1.15m1.7-1.1-.05-.5m21.8 16.95v.05m-4.65 4.6-.65-.8-9.3-2.6m-.2.3 5.55 5.55 3.45 1.95 1.5 1.05-.35-5.45 2.5 3.4m-2.1 2.1h-.05v-.05l.05.05m4.25-10.15-15.75-14.9m10.45 18.75-4.7-6.25-5.05-4.45-6.8-1.65-1.05-.45-.5.25-3.15-.4 3.65.15m-6.45 7.8 5.5.1m8.8-5.8-4.7-4.2-7.6.2m-2 9.7.35 2.05-.3.1m-1.2 7.3.3-.15.2.05 7.85.9 4.4.5q6.95 2.35 11.65 3.7m-24.1-5.15-.05.1.25-.05m-.25.05-.25.05-1.1-.3m22.35-.9q-3-1.55-6.6-2.75l-4.85-.8m-11.85 3.9.05.25m24.05 12.4-.4.35.2-.5-13.5-10.85m4.35 15.5.45.45m-3.1-42.15-3 1.75" transform="translate(1.75 1.75)"/><path stroke-opacity=".243" stroke-linejoin="round" stroke-linecap="round" stroke="#000" fill="none" d="m189.05 139.1-2.9 4.7m-9.05 23.5-7.6 4.6-.3-.05-3.95-3 1.75-4.45 1.2 4 1 3.45" transform="translate(1.75 1.75)"/><path fill-rule="evenodd" fill="#f4f3d7" d="m185 153.9.1.35.2 1.15-.3.05.15 20.85 3.65 17.95h-.1l-5 2.7-1.55-19.15-.2-18.45-1.2-.75h-.05l.05-.1.2-.2-.05-.05.15-.15 3.25-4.6.7.4" transform="translate(1.75 1.75)"/><path fill-rule="evenodd" fill="#d8cc9e" d="m185.1 154.25-.1-.35-.7-.4-3.25 4.6-.15.15-2.85 2.7-.35-.25 3-12.3 5.45 4.85-1.05 1m3.7 40-3.65-17.95-.15-20.85.3-.05 3.6 21.35 7.1 25.85-5.4-9.3q-.95.45-1.8.95" transform="translate(1.75 1.75)"/><path stroke-opacity=".322" stroke-linejoin="round" stroke-linecap="round" stroke="#000" fill="none" d="m185.1 154.25-.1-.35m-.7-.4-3.25 4.6-.15.15m.05.05-.2.2-.05.1m1.25.75.2 18.45 1.55 19.15 5-2.7m-3.4-38.85-.2-1.15 1.05-1-5.45-4.85-3 12.3.35.25 2.85-2.7m4.4-2.85 3.6 21.35 7.1 25.85-5.4-9.3q-.95.45-1.8.95" transform="translate(1.75 1.75)"/><path fill-rule="evenodd" fill="#f4f3d7" d="m180.75 162.1-1.15-.2-3.25 16-.65 7.1.6.1-3.85.9 2.75-11.3 3.25-10.7-.4-.65.2-.2-1.85 1.1-.15-.2 3.6-6.55 1.65 3.7-.65.4-.1.5m-.15-1.05-1 .85-1.35 1.25 1.35-1.25 1-.85m.25.3v.25-.25" transform="translate(1.75 1.75)"/><path fill-rule="evenodd" fill="#d8cc9e" d="m176.3 185.1-.6-.1.65-7.1 3.25-16 1.15.2-2.25 13.15-1.4 16.1-.8-6.25" transform="translate(1.75 1.75)"/><path stroke-opacity=".322" stroke-linejoin="round" stroke-linecap="round" stroke="#000" fill="none" d="m176.3 185.1.8 6.25 1.4-16.1 2.25-13.15.1-.5v-.25m-2.6 1.8 1.35-1.25 1-.85m-2.55 2.3.2-.2-1.85 1.1-.15-.2 3.6-6.55 1.65 3.7-.65.4m-4.55 23.5-3.85.9 2.75-11.3 3.25-10.7" transform="translate(1.75 1.75)"/><path fill-rule="evenodd" fill="#ede8bc" d="m64.35 144.2.2-1.85 3.5-3.2 5.45-.25-.95 2.6.2-.05-.45 3.25-1.05 8.25v.15l.85 9.5.65.65 2.8 2.85-5.95 1.6-3.3-2.3-.65-.85-9.75-14.1-1.7-2.95 2.35-2.6-2.35 2.6 1.7 2.95.15 7.25 2.85 7.4 1.75 4.7.05.4-5.25.2-.4.2-5.45-12.1-.65-12.05 2.1-2.9 5.5 1.35 1.2-1.35h.2l1.85 2.5.5.8 3.2 5.05 3.4 5.4 5.2 5.3-5.2-5.3-3.4-5.4.75-6.9.1-.8m.5.5-.6.3.6-.3" transform="translate(1.75 1.75)"/><path fill-rule="evenodd" fill="#c7c085" d="m75 140.4.55.1v.05l-.8 4.4-.2 2.4-2.25-2.65.45-3.25L75 140.4m10.2-4.3 1.65.3-.9 3.65 2.55 8 4.55 5.75-2.05 9.3-2.3-1.4-.05-.05-8.5-15.15.5-7.85.1-.25 3.6-1.9.6.5.25-.9m-24.9 10.75-.5-.8-1.85-2.5 6.05.6.35.05-.1.8-3.95 1.85m-4.4 3.6 9.75 14.1-3.8.55.05-.3-3 .3-2.85-7.4-.15-7.25" transform="translate(1.75 1.75)"/><path fill-rule="evenodd" fill="#d8cc9e" d="m75.55 140.5.4-1.35 2.2-3.95 3.75-.1.05.05-1.1 3-.2.25v.25l-.5 7.85-.35 4.35 1.55 11.85 2.5 2.95-2.65-.05-3.15-1.2-.85-1.85-1.3-3.6q-.9-3.05-1.45-6.75l.1-4.85-.1 4.85q.55 3.7 1.45 6.75l-4.3-6h-.35l1.05-8.25 2.25 2.65.2-2.4.8-4.4v-.05M63.5 151.9l-3.2-5.05 3.95-1.85-.75 6.9" transform="translate(1.75 1.75)"/><path fill-rule="evenodd" fill="#736d40" d="m73.5 138.9.25-.15L75 140.4l-2.25 1.05-.2.05.95-2.6m8.45-3.75 2.4 1.35-3.6 1.9.1-.25 1.1-3m-6.05 23.8 1.3 3.6-.25.1-1.4 3.45-2.8-2.85-.65-.65-.85-9.5v-.15h.35l4.3 6m7.95 6.7-2.5-2.95-1.55-11.85.35-4.35 8.5 15.15h-.1l-4.7 4m-24.95-.55 3-.3-.05.3-1.2 4.7-1.75-4.7m22.45-2.4 7.2-1.05-7.2 1.05m-8.6.55 4.2-.6-4.2.6" transform="translate(1.75 1.75)"/><path stroke-opacity=".322" stroke-linejoin="round" stroke-linecap="round" stroke="#000" fill="none" d="m64.35 144.2.2-1.85 3.5-3.2 5.45-.25-.95 2.6.2-.05-.45 3.25 2.25 2.65-.1 4.85q.55 3.7 1.45 6.75l1.3 3.6.85 1.85 3.15 1.2 2.65.05-2.5-2.95-1.55-11.85.35-4.35.5-7.85v-.25l.2-.25 1.1-3 2.4 1.35.85-.4 1.65.3-.9 3.65 2.55 8 4.55 5.75 1.15-3.05m-20.45-12L75 140.4m.55.1.4-1.35 2.2-3.95 3.75-.1.05.05m-9.2 6.3L75 140.4m.55.1v.05l-.8 4.4-.2 2.4m-14.25-.5-.5-.8-1.85-2.5h-.2l-1.2 1.35-2.35 2.6 1.7 2.95 9.75 14.1.65.85 3.3 2.3 5.95-1.6-2.8-2.85-.65-.65-5.2-5.3-3.4-5.4-3.2-5.05 3.95-1.85.1-.8m-.35-.05-6.05-.6m-2.9 27.05-5.45-12.1-.65-12.05 2.1-2.9 5.5 1.35m-.65 5.55.15 7.25 2.85 7.4 3-.3-.05.3m2.4-20.1.6-.3m6.75 8.25 4.3 6m-4.65-6v.15l.85 9.5m.2-17.9-1.05 8.25m-7.75-1.05.75-6.9m-3.6 24.8 1.2-4.7m-1.2 4.7-1.75-4.7m-3.45 5.3 5.25-.2m20.05-31.8.1-.25m-.2.5.1-.25h-.1m4.55-2.3-.25.9-.6-.5-3.6 1.9m7.9 23.25.05.05 2.3 1.4m-2.45-1.45-4.7 4m4.7-4-7.2 1.05m-4.4-.05-1.4 3.45m4.6-19.6 8.5 15.15m-11.7 1-4.2.6" transform="translate(1.75 1.75)"/><path stroke-opacity=".243" stroke-linejoin="round" stroke-linecap="round" stroke="#000" fill="none" d="m61.85 165.1 3.8-.55M91 163.1l2.05-9.3" transform="translate(1.75 1.75)"/><path fill-rule="evenodd" fill="#fcfaf1" d="M85.25 19.55q1.05-.35 1.7.2.65.55.55 1.6-.15 1.15-.95 2.15-.85 1.05-1.85 1.35l-1.75-.15q-.65-.55-.5-1.65.1-1.05.95-2.1.8-1 1.85-1.4m-.35-8.05 1.25.15q.5.4.45 1.25-.1.8-.75 1.6t-1.4 1.05l-1.3-.1q-.5-.4-.4-1.3.05-.75.7-1.55.65-.8 1.45-1.1" transform="translate(1.75 1.75)"/></g><g id="m" stroke-opacity="0" stroke-linejoin="round" stroke-linecap="round" stroke="#f0f" fill="none"><path d="M187.95-293.5v380h-380v-380h380" transform="translate(192.55 294)"/><path d="m187.95-293.5-190 190 190 190m-380-380 190 190L-192 86.5M92.95-38.4H-97" transform="translate(192.55 294)"/><path d="M98.65-227.1V8.1h-204.1v-235.2h204.1z" transform="translate(192.55 294)"/></g><radialGradient spreadMethod="pad" r="819.2" id="b" gradientUnits="userSpaceOnUse" gradientTransform="matrix(.0134 .0019 .008 .0392 31.85 240.3)" cy="0" cx="0"><stop stop-opacity=".851" stop-color="#fff" offset="0"/><stop stop-opacity="0" stop-color="#fff" offset="1"/></radialGradient><path fill-rule="evenodd" fill-opacity="0" fill="#f0f" d="M100 40H0V0h100v40" id="k"/><use xlink:href="#k" width="100" height="40" id="n"/></defs><path fill="none" d="M-1-1h107v232H-1z"/><use x="132.154" y="431.139" xlink:href="#l" width="200.8" transform="translate(-67.753 -221.454) scale(.5163)" height="441.5"/><use x="68.231" y="222.597" xlink:href="#m" width="381" transform="translate(-192.55 -294)" height="381"/><use x="-86.945" y="-49.788" xlink:href="#n" width="100" transform="translate(115.05 69.4) scale(1.4241)" height="40"/></svg>