<svg width="303" height="277" xmlns="http://www.w3.org/2000/svg" xmlns:xlink="http://www.w3.org/1999/xlink"><defs><linearGradient y2=".254" y1=".746" x2=".048" x1=".952" spreadMethod="pad" id="e"><stop offset="0"/><stop stop-color="#ddd" offset="1"/></linearGradient><linearGradient y2=".514" y1=".586" x2=".474" x1=".941" spreadMethod="pad" id="f"><stop stop-opacity=".663" stop-color="#fff" offset="0"/><stop stop-opacity="0" stop-color="#f5e1b4" offset="1"/></linearGradient><linearGradient y2=".516" y1=".587" x2=".528" x1=".06" spreadMethod="pad" id="g"><stop stop-opacity=".663" stop-color="#fff" offset="0"/><stop stop-opacity="0" stop-color="#f5e1b4" offset="1"/></linearGradient><linearGradient y2=".131" y1=".757" x2=".127" x1=".928" spreadMethod="pad" id="h"><stop offset="0"/><stop stop-color="#888" offset="1"/></linearGradient><linearGradient y2="-.908" y1="-.432" x2=".07" x1="1.252" spreadMethod="pad" id="i"><stop stop-color="#eeab11" offset="0"/><stop offset="1"/></linearGradient><linearGradient y2="1.824" y1="1.537" x2=".104" x1="-1.154" spreadMethod="pad" id="j"><stop offset="0"/><stop stop-color="#edaf23" offset="1"/></linearGradient><radialGradient spreadMethod="pad" r="819.2" id="d" gradientUnits="userSpaceOnUse" gradientTransform="matrix(.0244 .007 -.0038 .0106 -117.5 -47.55)" cy="0" cx="0"><stop stop-opacity=".722" stop-color="#fdf9d7" offset=".008"/><stop stop-opacity=".702" stop-color="#f2c40d" offset=".616"/><stop stop-opacity=".443" stop-color="#a66f37" offset="1"/></radialGradient><radialGradient spreadMethod="pad" r="819.2" id="a" gradientUnits="userSpaceOnUse" gradientTransform="matrix(.0315 .0035 -.005 .0455 25.9 37.05)" cy="0" cx="0"><stop stop-opacity=".518" stop-color="#fff" offset="0"/><stop stop-opacity=".518" stop-color="#fdf9d7" offset=".251"/><stop stop-opacity=".373" stop-color="#f2c40d" offset=".616"/><stop stop-opacity="0" stop-color="#f5e1b4" offset="1"/></radialGradient><path fill-rule="evenodd" fill="url(#a)" d="M51.4 39.9q-1.7 15.3-10.35 25.3T21.8 74.05Q11.2 72.85 4.9 61.2-1.35 49.55.35 34.25 2.05 18.9 10.7 8.9 19.35-1.05 29.95.1q10.6 1.15 16.85 12.8 6.3 11.65 4.6 27" id="b"/><path fill-rule="evenodd" fill-opacity="0" fill="#f0f" d="M0 0h102.95v45H0V0" id="c"/><use xlink:href="#b" width="51.75" height="74.15" id="l"/><use xlink:href="#c" width="102.95" height="45" id="n"/><g id="k"><path stroke-opacity="0" stroke-linejoin="round" stroke-linecap="round" stroke="#f0f" fill="none" d="M187.95-293.5v380h-380v-380h380M92.95.6H-97" transform="translate(192.55 294)"/><path stroke-opacity="0" stroke-linejoin="round" stroke-linecap="round" stroke="#f0f" fill="none" d="m187.95-293.5-190 190 190 190m-379.95 0 189.95-190-190-190" transform="translate(192.55 294)"/><path fill-rule="evenodd" fill="#d3cfba" d="m63.7-114.2-11.15.45-2.25 5.25.3.1q6.95-2 12.55 5.45l-10.4.4q-6.25.4-11.45 3.15l-4.6 2.85-4.6-3.25-.2.15-1.15-2.25q-3.8-1.45-5.35-1.3l.05.3q2.2 1 4.2 3.85.9 2.85.45 5.85-.8 2.35-1.95 3.65l-7 .1v.25l-.4-.25-6.4-6.75-5.65 1.95q-7.35-.45-12.2-3.5V-98l-2.55-3.5-1.35-.55.95-5.2 3.4 1.1.6 2.55q.5 2.05 1.8 2.9 1.2.8.8-.25 8.2-7.3 16.8-11.95H17l.1-.05 1.3-.7.05-.05 1.3-.65 5.5-2.45q5.15-2.05 10.45-3.15h.05l.05-.05q5.9-1.2 12-1.3v.35l8.8 2.15q3.55 2.1 7.1 4.6m-99.75 30.35-3.4-.7-2.1-.45-1.6-.8-2.35-1.15-1.85-.95-3.3-1.65-4.4-2.2-.25-.15-3.25-6.2-1.05-1.9.5-.5 4.25 2.75-2.85-4.65-1.3-4.35q-.25-2.95 1.85-5.05l4.5-3.75-1.85-6.9v-7.7l4.15-9.65q1.8-11.3 8.3-17.35l.35-.35q3.45-2.1 6.95-3.85l30.4-8.15q8.35-.2 19.65 5.4l.55.3.3.2-.95-.15q-.25 4.1-5.25 7.25l-10.75.25q-12.1 3.25-22.5 8.7-2.15 3.3-2.7 6.15l.05.75-.3-.15q-3.6-1.35-7 .1-2.6.75-3.35 1.45l.15.25 3.2-.05q5.5.25 10.25 2.95l.05.1 1.25 3.2q-1.8 2.7-3.85 2.65l-.45.3q-1.35-1.65-3-2.75h-.2q-3.6-1.2-6.75.5v.25q-1.8 1.05-3.45 4.35l-.15.25-1.45 3.65-.3.2-4.35-5.8-.2.1q-3.5-1.55-6 1.9-.85 3.2-.55 6.2l.55 2.55q2.8 8.3 5.05 7.75l.3-.05.1.3 2.9.45 4.45 5.1 1.45.55.15-.3.75.7.1.1q3.2 2.75 6.15 2.7 3.4-.1 5.95-3.95l.3.2 4.1 3.15 2.75 4.8q.6 3.85-1.8 6.8-.35.25-.8.4l-5.2 1.6-.5-.1-9-.95 4.6 3.3-4.1 2.9-1.9-.85m52.75-23.7 2.65-1.55 6.05-.85-3.15-1.05-.25-.1-3.75.45-1.55 3.1m-8.75 9.1-7.8-2.5 7.8 2.5m25.1-18.05.05.15 3.05-1.4 5.8 1.3-2-2.1-.3-.05-3.7-.45-2.9 2.55m-84.1-20.8q1.05-2.15 4 1.25l3.35 5.55v.05l.6.9q1.05 1.35 1.35 1.2l.1-.25q.05-.6-.4-2.4.45 1.8.4 2.4l-.1.25q-.3.15-1.35-1.2l-.6-.9v-.05l-3.35-5.55q-2.95-3.4-4-1.25m3.6 33.7-2.2-1.65q-1.55.55-2.15 2.5l.3 2.85-.3-2.85q.6-1.95 2.15-2.5l2.2 1.65m-.15 2.1-1.75-.95-.7.95.5 2.45 1.9-2.4.05-.05m2.9 2.4.35 2.3 2.45-2-1-1.55-1.8 1.25m2.5 3.3-.3-.25q-1 .4-1.95.85l3.4.9 3.8-2.15.4-2.35-1.8-1.3-1.75-1.3h-.05q.7.8 1.35 2-1.15 3-3.1 3.6m-2.05-6.65 2.4-.15.5.3.75.75.15.15-.15-.15-.75-.75-.5-.3-2.4.15" transform="translate(192.55 294)"/><path fill-rule="evenodd" fill="#9e9772" d="m83.8-96.25-.35.6 3.25 2.15q5 4.9 10.3 11.55l.05.05-.25 1.1q-2.85 14.15-11.2 26.05-7.75 10.6-20.75 17.3h-.05q-.6.25-2.05 0-1.55-.3-4-1.1-1.95-.95-3.65-2.2-2.5-1.75-4.4-4.1-.85-2.45-1.25-5.45v-.25L49.3-52l-.2-3.3q.8-7.95 2.5-17.8l-.05-.05q-3.05-5.2-8.4-9.85l.85-.55-.85.55-.2-.1-.25.1-.6.65q-7.65 4.7-16.5 8.3l-2-.45-.25.8-7.9 2.25Q9-71.95 3.6-74.25l-12.5-9.9h.05v-.05h-.05l-5.35-.15h-.2v-2.4l-4.7 2.1-2.65 1.15-2.9 1.05-2.95.3-4.45-.3-.35-.15-1.05-.2-.65-.2 4.1-2.9-4.6-3.3 9 .95.5.1 5.2-1.6q.45-.15.8-.4 2.4-2.95 1.8-6.8l-2.75-4.8-4.1-3.15-.3-.2q1.5-4.65 2.05-10.1.3-3.75.2-7.9-1.5-4.1-3.75-6.75l.45-.3q2.05.05 3.85-2.65l-1.25-3.2-.05-.1q-4.75-2.7-10.25-2.95l-3.2.05-.15-.25q.75-.7 3.35-1.45 3.4-1.45 7-.1l.3.15-.05-.75q.55-2.85 2.7-6.15 10.4-5.45 22.5-8.7l10.75-.25q5-3.15 5.25-7.25l.95.15q1.05 2.05 1 7.55-.05 4.95-1 12.65l-4.65 6.1-4.35-3.5-.75-.6-1.8-6.25.15-.05q3.3-3.05 8.2-4.8l-4.85.25q-2.1.5-4.4 1.7h-.05q-2.6 1.3-5.3 3.5l-.65 17.25-.05.85-4.1 21.7-4.05-1.25 4.05 1.25-.95 5.2 1.35.55L-3.5-98v.25q4.85 3.05 12.2 3.5l5.65-1.95 6.4 6.75.4.25v-.25l7-.1q1.15-1.3 1.95-3.65.45-3-.45-5.85-2-2.85-4.2-3.85l-.05-.3q1.55-.15 5.35 1.3l1.15 2.25.2-.15 4.6 3.25 4.6-2.85q5.2-2.75 11.45-3.15l10.4-.4q-5.6-7.45-12.55-5.45l-.3-.1 2.25-5.25 11.15-.45q10.2 7.25 20.05 17.9l.05.05m-50.75 9.7.7-5.9q-.05-3.15-.5-4.55l-1.35-2.65L33.25-97q.45 1.4.5 4.55l-.7 5.9M-57.7-102.4l2.85 4.65-4.25-2.75 1.45-1.7-.05-.2m39.4-28.65q-.2-3.1-1.75-6.1l-1.55-1.1-4.35-2.4 4.35 2.4 1.55 1.1q1.55 3 1.75 6.1M22-111.1l.25.1 3.15 1.05-6.05.85-2.65 1.55 1.55-3.1 3.75-.45m-29.4 9.05q-2.25 1.35-2.95 6.65.5.85.9 2.45l.15.4.1.45-.1-.45-.15-.4q-.4-1.6-.9-2.45.7-5.3 2.95-6.65M-8.9-90.3l.15.9-.15-.9 1.15-.15-1.45-1.65.3 1.75v.05m10.15 2.8q-4.5.2-6.95-1.35l-2.05-1.6 2.05 1.6q2.45 1.55 6.95 1.35m-10-1.9h-.05q-2.85 1.3-5.65 2.65 2.8-1.35 5.65-2.65l.55 1.25-.5-1.25M3.5-82.05l-1.2 1.6-2.95-2.65q-3.75-1.3-7.6-5.05 3.85 3.75 7.6 5.05l2.95 2.65 1.2-1.6m-40.95-22.6-.15.3-1.45-.55-4.45-5.1-2.9-.45-.1-.3q2.25-.5 4-3.1.95 4.15 3.35 7.25l1.7 1.95M4.5-83.4q8.85-.1 11.75-2.65l2.4-2.2-2.4 2.2Q13.35-83.5 4.5-83.4m18.15-3.45-1.5-2.35 1.5 2.35m17-31.75.3.05 2 2.1-5.8-1.3-3.05 1.4-.05-.15 2.9-2.55 3.7.45M53.8-69.75q.95 1.9-2.2-3.35 3.15 5.25 2.2 3.35M55.75-51l.15.2.45-1.15-.45 1.15-.15-.2-1.2-.05 1.2.05-.65-1.1.65 1.1m1.55-3q-1.95-1.15-3.5-.05-.65.9-.75 1.75-.1.7.1 1.4v.05l.05.2.05.1q.45 2.1 1.75 2.4 1.55.55 2.15-.85-.6 1.4-2.15.85-1.3-.3-1.75-2.4l-.05-.1-.05-.2v-.05q-.2-.7-.1-1.4.1-.85.75-1.75 1.55-1.1 3.5.05M23.6-74.5l.65-3.1-.65 3.1m-62.25-25.6 1.8 1.3-.4 2.35-3.8 2.15-3.4-.9q.95-.45 1.95-.85l.3.25q1.95-.6 3.1-3.6l.45-.7" transform="translate(192.55 294)"/><path fill-rule="evenodd" fill="#cad1c7" d="m86.7-93.5-3.25-2.15.35-.6 2.9 2.75m-91.05-76-30.4 8.15.4-.2 29.25-7.9.75-.05m8.05 18.95.15.4-.2-.4h.05m-12.6 60.2-.3-1.75 1.45 1.65-1.15.1m.1.95h.05l.5 1.25-.55-1.25" transform="translate(192.55 294)"/><path fill-rule="evenodd" fill="#827b4b" d="m98-80.6 2.05 2.4 3.4 5.25q2 3.35 5.25 15.7 4 11.25 3.6 23.2-1.75 8.1-5.35 11.75l-.15.15-40.7-8.1-1-.1-3.5-.4-.25-.05q-2.05-.4-3.8-1l-.15-.05q-4.05-1.4-7.05-3.8l-.1.1 2.9 10.6q-2.3 6.55-6.35 10.2l-13.55-.95-11.85 5.4q-4.8-2.95-9.5-5.85-5.95-3.65.35-14.05l8.4-7.9 9.25-32.5-4.9-2.25.6-1.2q8.85-3.6 16.5-8.3l1.05-.65q5.35 4.65 8.4 9.85l.05.05q-1.7 9.85-2.5 17.8l.2 3.3.15 1.45v.25q.4 3 1.25 5.45 1.9 2.35 4.4 4.1 1.7 1.25 3.65 2.2 2.45.8 4 1.1 1.45.25 2.05 0h.05q13-6.7 20.75-17.3 8.35-11.9 11.2-26.05l1.2.2M58.6-35.1q-2.8-1.35-4.8-3.75-2-2.45-3.1-6 1.1 3.55 3.1 6 2 2.4 4.8 3.75M30.55-72.85l-.65 2.25.65-2.25m-.65 2.25 3.5 1.6q2.4 7.9 6.55 16.85l4.25 9.1 1.35 2.5-1.35-2.5-4.25-9.1Q35.8-61.1 33.4-69l-3.5-1.6m16.25 30.1-.6-.05q.65.9 1.35 1.1l-.75-1.05m4.2 4.85q-1.95-1.65-3.45-3.8 1.5 2.15 3.45 3.8" transform="translate(192.55 294)"/><path fill-rule="evenodd" fill="#94a48e" d="m97.05-81.9.95 1.3-1.2-.2.25-1.1M25-72.85l-1.15-.5 1.75-.7-.6 1.2M43.15-83l-1.05.65.6-.65.25-.1.2.1M-39.1-99.4q-.65-1.2-1.35-2h.05l1.75 1.3-.45.7" transform="translate(192.55 294)"/><path fill-rule="evenodd" fill="#c9c9c9" d="M-52.4-121q-.3-3 .55-6.2 2.5-3.45 6-1.9l.2-.1 4.35 5.8-1.5 1.7q-4.2-3.4-5.35-2.95-2.45 1.3-4.25 3.65m11.4-2.6 1.45-3.65.15-.25q1.65-3.3 3.45-4.35v-.25q3.15-1.7 6.75-.5h.2q1.65 1.1 3 2.75 2.25 2.65 3.75 6.75.1 4.15-.2 7.9-4.55-9.85-9.95-9.9-3.95.4-6.9 3.1l-1.7-1.6" transform="translate(192.55 294)"/><path fill-rule="evenodd" fill="#eaece8" d="m-44.7-72.6-.35.25-.3-.3.4-.35.25.4m-10.6-19.3.25.15-.3.6.05-.75m.05 9.35v.3l-.35-.35.35.05m22.8-.05.35.15h-.35v-.15.15l.1 1.4-.9.1-.25-1.85 1.05.2" transform="translate(192.55 294)"/><path fill-rule="evenodd" fill="#fffffa" d="m-33.65-69.5-.95-.2-1.1-6.2.35-4.15-.7-3.8 1.9.85.65.2.25 1.85.9-.1-.1-1.4h.35l.6 6.1-2.15 6.85m-11.7-3.15-1.85-2.3-1.2-6.6.75-5.75.3-.6 1.85.95 2.35 1.15.4 6.95-2.2 5.85-.4.35m-8.05-8.25-.3.15-1.55-1.5v-.3l.3-3.75-.3 3.75-.35-.05-2.55-6.6-1.05-2.8.65-6.1 3.25 6.2-.05.75-.1 3.1.3 1.15.2.6 1.4 5.1.15.3m-1.75-6-3-2.3 3 2.3m9.3 2.3.35-2.35-.35 2.35m13.65 6.65-.15-3.1.15 3.1" transform="translate(192.55 294)"/><path fill-rule="evenodd" fill="#fff" d="M-24.5-105.1q-2.55 3.85-5.95 3.95-2.95.05-6.15-2.7l-.1-.1-.75-.7-1.7-1.95q-2.4-3.1-3.35-7.25-1.75 2.6-4 3.1l-.3.05q-2.25.55-5.05-7.75l-.55-2.55q1.8-2.35 4.25-3.65 1.15-.45 5.35 2.95l1.8 1.55 1.7-1.85q2.95-2.7 6.9-3.1 5.4.05 9.95 9.9-.55 5.45-2.05 10.1" transform="translate(192.55 294)"/><path fill-rule="evenodd" fill="#ccc" d="m-41.3-123.4.3-.2 1.7 1.6-1.7 1.85-1.8-1.55 1.5-1.7" transform="translate(192.55 294)"/><path fill-rule="evenodd" fill="#6f674d" d="m-44.7-99.1 1.8-1.25 1 1.55-2.45 2-.35-2.3m-2.9-2.4-.05.05-1.9 2.4-.5-2.45.7-.95 1.75.95" transform="translate(192.55 294)"/><path fill-rule="evenodd" fill="#655f45" d="m17.15-156.05.7.05q4.8 6.05 9.1 16.6-5.1 4.65-4.25 11.7l2.55 10.9-5.5 2.45-1.3.65-2.05-7.95q-.45-5.2-5.15-4.8l-.35.25-5.05-6.55q2.3-3.3.8-7.5l.5-.55 4.35 3.5 4.65-6.1q.95-7.7 1-12.65m-5.95 19.2.3-.45-.3.45m-7.35-13.3-.15-.4q2.3-1.2 4.4-1.7l4.85-.25q-4.9 1.75-8.2 4.8l-.15.05-.1-.3v-.05l-.65-2.15M4.5-148l.1.35 1.8 6.25-.25.05q-1.55-3.15-4.7-3.45.8-2.85 3.05-3.2" transform="translate(192.55 294)"/><path fill-rule="evenodd" fill="#809177" d="m6.4-141.4.75.6-.5.55-.45-1.05.2-.1" transform="translate(192.55 294)"/><path fill-rule="evenodd" fill="#a7b3a2" d="m23.85-73.35-.15-.05-.1-.05-.25-.05v-.2l.25-.8 2 .45-2.25.35 2.25-.35-1.75.7M-8.9-90.3v-.05l1.15-.1-1.15.15" transform="translate(192.55 294)"/><path fill-rule="evenodd" fill="#cfc1ab" d="M-14.45-84.35v2l-2.7 4.45-3.3 2.9-1.25-.75-1-.65.9-7.1 2.65-1.15 4.7-2.1v2.4m-13.2 2.2.3 1.6-2.15 6.8-2.15 4.2-.05.4-1.95-.35 2.15-6.85-.6-6.1 4.45.3m-11.8-2.4v3.9l-4.15 7.35-1.1.7-.25-.4 2.2-5.85-.4-6.95 1.6.8 2.1.45m-11.2-5v.1l-.3 3.7-.35 3.8-2.1 1.05-.15-.3-1.4-5.1.35-.15-.55-.45-.3-1.15.1-3.1.3-.6 4.4 2.2m28.95 13.8 3.1-5.45-.55-3.45.55 3.45-3.1 5.45m-29.25-10-3.65-.7 3.65.7" transform="translate(192.55 294)"/><path fill-rule="evenodd" fill="#c5cabd" d="m-55.15-86.9.55.45-.35.15-.2-.6" transform="translate(192.55 294)"/><path stroke-opacity=".541" stroke-linejoin="round" stroke-linecap="round" stroke="#1b1715" fill="none" d="m86.7-93.5-2.9-2.75-.05-.05q-9.85-10.65-20.05-17.9-3.55-2.5-7.1-4.6l-8.8-2.15m-15.9 21.3L33.25-97q.45 1.4.5 4.55l-.7 5.9m64 4.65.95 1.3 2.05 2.4 3.4 5.25q2 3.35 5.25 15.7 4 11.25 3.6 23.2-1.75 8.1-5.35 11.75m-83.1-51.05-.15-.05m-.35-.1v-.2l-7.9 2.25Q9-71.95 3.6-74.25l-12.5-9.9m.05-.05h-.05l-5.35-.15m-.2 0v2l-2.7 4.45-3.3 2.9-1.25-.75-1-.65.9-7.1-2.9 1.05-2.95.3.3 1.6-2.15 6.8-2.15 4.2m-.05.4-1.95-.35-.95-.2-1.1-6.2.35-4.15-.7-3.8-3.4-.7v3.9l-4.15 7.35-1.1.7-.35.25-.3-.3-1.85-2.3-1.2-6.6.75-5.75m.3-.6-3.3-1.65v.1l-.3 3.7-.35 3.8-2.1 1.05-.3.15-1.55-1.5-.35-.35-2.55-6.6M85.6-54.75q-7.75 10.6-20.75 17.3M86.7-93.5q5 4.9 10.3 11.55M15.85-163.8l-.55-.3Q4-169.7-4.35-169.5l-30.4 8.15q-3.5 1.75-6.95 3.85l-.35.35q-6.5 6.05-8.3 17.35l-4.15 9.65v7.7l1.85 6.9-4.5 3.75q-2.1 2.1-1.85 5.05l1.3 4.35.05.2-1.45 1.7-.5.5 1.05 1.9 3.25 6.2.25.15 4.4 2.2M17.85-156q4.8 6.05 9.1 16.6-5.1 4.65-4.25 11.7l2.55 10.9q5.15-2.05 10.45-3.15h.05l.05-.05q5.9-1.2 12-1.3h1m-32.65-42.3q1.05 2.05 1 7.55-.05 4.95-1 12.65l-4.65 6.1-.3.45m-16.3-32.6.75-.05m-21.6 28.85 4.35 2.4 1.55 1.1q1.55 3 1.75 6.1m21.95-19.5q-2.6 1.3-5.3 3.5l-.65 17.25m-.75 23.65.6 2.55q.5 2.05 1.8 2.9l.8-.25q8.2-7.3 16.8-11.95H17l.1-.05 1.3-.7.05-.05-2.05-7.95q-.45-5.2-5.15-4.8m-7.55-24.1h-.05m.2.4L4.5-148v.05l.1.3 1.8 6.25.75.6 4.35 3.5m-3.4-14.95q-2.1.5-4.4 1.7m2.5 9.25.45 1.05q1.5 4.2-.8 7.5m.35-8.55-.05-.05q-1.55-3.15-4.7-3.45.8-2.85 3.05-3.2m20.75 31.2-5.5 2.45-1.3.65m-1.75 6.15 1.55-3.1 3.75-.45m3.4 7.9q1.55-.15 5.35 1.3l1.15 2.25M-.65-100.7q1.2.8.8-.25l7.8 2.5M-9.2-92.1l-.1-.45-.15-.4q-.4-1.6-.9-2.45.7-5.3 2.95-6.65M-8.75-89.4l-.15-.9v-.05l-.3-1.75 1.45 1.65 2.05 1.6q2.45 1.55 6.95 1.35M-8.8-89.4h.05m.5 1.25q3.85 3.75 7.6 5.05l2.95 2.65 1.2-1.6m-28.65-6.1 5.2-1.6q.45-.15.8-.4 2.4-2.95 1.8-6.8l-2.75-4.8m-4.4-3.35q-2.55 3.85-5.95 3.95-2.95.05-6.15-2.7m-.1-.1-.75-.7m-9.05-6.1-.3.05q-2.25.55-5.05-7.75l-.55-2.55q-.3-3 .55-6.2 2.5-3.45 6-1.9m.2-.1 4.35 5.8m.3-.2 1.45-3.65.15-.25q1.65-3.3 3.45-4.35m0-.25q3.15-1.7 6.75-.5m.2 0q1.65 1.1 3 2.75m-10.6-9.4q.75-.7 3.35-1.45 3.4-1.45 7-.1l.3.15m11.5 53.9v2.4m-7.35.85 2.65-1.15 4.7-2.1q2.8-1.35 5.65-2.65m29.95.2 1.5 2.35m-4-1.4-2.4 2.2Q13.35-83.5 4.5-83.4m35.15-35.2-3.7-.45-2.9 2.55M43.15-83l.85-.55m-1.9 1.2 1.05-.65m-1.05.65q-7.65 4.7-16.5 8.3l-1.75.7m-.25-1.15-.25.8 2.25-.35m-1.35-3.55-.65 3.1m-57.95-87.05-.4.2m-7.3 30.35q.45 1.8.4 2.4l-.1.25q-.3.15-1.35-1.2l-.6-.9v-.05l-3.35-5.55q-2.95-3.4-4-1.25m28.6 22.1q.3-3.75.2-7.9-1.5-4.1-3.75-6.75m-20.5 19.1q2.25-.5 4-3.1.95 4.15 3.35 7.25l1.7 1.95m12.95-.45q1.5-4.65 2.05-10.1M-51.5-99.9l-.3-2.85q.6-1.95 2.15-2.5l2.2 1.65m2.75 4.5 1.8-1.25 1 1.55-2.45 2-.35-2.3m-2.9-2.4-.05.05-1.9 2.4-.5-2.45.7-.95 1.75.95m5.4 5.7q1.95-.6 3.1-3.6-.65-1.2-1.35-2l-.15-.15-.75-.75-.5-.3-2.4.15m-14.3 4.35-.65 6.1 1.05 2.8m10.8 1.3 1.85.95 2.35 1.15 1.6.8 2.1.45m5.95 1.75-.65-.2-1.9-.85m3.95 1.4-.35-.15-1.05-.2m1.4.35 4.45.3" transform="translate(192.55 294)"/><path stroke-opacity=".541" stroke-linejoin="round" stroke-linecap="round" stroke="#1b1715" fill="none" d="m97-81.95.05.05m9.9 59.6-.15.15-40.7-8.1-1-.1-3.5-.4-.25-.05q-2.05-.4-3.8-1l-.15-.05q-4.05-1.4-7.05-3.8m-.1.1 2.9 10.6q-2.3 6.55-6.35 10.2l-13.55-.95-11.85 5.4q-4.8-2.95-9.5-5.85-5.95-3.65.35-14.05l8.4-7.9 9.25-32.5-4.9-2.25-1.15-.5m-.15-.05-.1-.05m-78.85-8.8-.1.85M50.7-44.85q1.1 3.55 3.1 6 2 2.4 4.8 3.75m-60.9-94.7-.05.85-4.1 21.7-4.05-1.25m21.4-17.7.25.35m-5.3-6.9 5.05 6.55m-18.3 24.15.95-5.2m-12.7 22.6.55 3.45-3.1 5.45M43.15-83l-.2-.1m.2.1q5.35 4.65 8.4 9.85l.05.05q3.15 5.25 2.2 3.35m-2.2-3.35q-1.7 9.85-2.5 17.8l.2 3.3.15 1.45v.25q.4 3 1.25 5.45m3.85-6.2 1.2.05-.65-1.1m2.05 3.1q-.6 1.4-2.15.85-1.3-.3-1.75-2.4l-.05-.1-.05-.2v-.05q-.2-.7-.1-1.4.1-.85.75-1.75 1.55-1.1 3.5.05m-.95 2.05-.45 1.15-.15-.2M29.9-70.6l.65-2.25m15 32.3-1.35-2.5-4.25-9.1Q35.8-61.1 33.4-69l-3.5-1.6m16.25 30.1.75 1.05q1.5 2.15 3.45 3.8m-3.45-3.8q-.7-.2-1.35-1.1M-58.15-89.2l3 2.3m.55.45-.55-.45m.55.45 3.65.7m-4-.55-.3 3.75v.3m9.75-4.7-.35 2.35m13.4 2v.15m.1 1.4-.1-1.4m.1 1.4.15 3.1m-1.3-4.85.25 1.85m28.15-88.5-29.25 7.9" transform="translate(192.55 294)"/><path stroke-width="3" stroke-opacity=".8" stroke-linejoin="round" stroke-linecap="round" stroke="#000" fill="none" d="M196.3 143.75q-2.55 1.35-5.3 3.55l-.7 17.95 8.25-3.6-.05-.1q2.3-3.3.8-7.45l-.45-1.1.2-.1-.25.05q-1.55-3.15-4.7-3.4.8-2.85 3.05-3.25l-.65-2.1-.2-.45m.85 2.6v-.05l.05.3-.05-.25m6.4 21.8.35-.3q4.75-.35 5.15 4.85l2.05 7.9-.05.05-1.3.7-.1.05h-.05q-8.6 4.7-16.8 11.95.4 1.1-.8.3-1.25-.95-1.8-2.9l-.6-2.6-.3-.1 7.25-13.25 7-6.65m35.25 85.65.75 1.1q-.7-.25-1.35-1.15l.6.05M122 76q8.2 1.3 16.4 10.15l.15 8-4 5.6 20.3-1.9.15.25-7.6 3.7-.35.1 7.95-.65-22 9.9 2.65 4.1v.15l-4.15 5.85-7.95-1.2-.1-.05q-4.2-1.75-7.25-8.85l3.1-6-6.55-3.9-.15-.15-3.9-9.4Q111.95 80.45 122 76m44.5 29.05h.05l-.05-.05v.05m-3 3.85.4-.3-.4.3m7.8 1.55-.25-.1-.1-.05.45-.6.2.4-.3.35m.65 13.35.45 1.05-.2.05-.25-1.1m-15.15 5.75-.75-.3-.05-.1.45-.35.35.75m-2.5 1.35.95 2.7-3.15 2.05-.75.95 6-3.35q-1.05-1.45-1.8-3.6l-1.25 1.25m1.4 59.25.25.2.1.1-.35-.3-.5-.5m1.4 20.8.05.45-3.45 2.25v-3.4l3.4.7"/><path stroke-width="3" stroke-opacity=".541" stroke-linejoin="round" stroke-linecap="round" stroke="#1b1715" fill="none" d="m186 211.95 1.35-1.05-.85-3.45-14.7.15-.85 1.45-26.7 17.8q-1-2.45-4.5-3.1l-.4-.25-.05-.15q-30.1-13.45-37.8-20.55l-.4-.45-.6-1.55-.25.1-1.05-1.7-3.7-.3q-1.95-.55-3.35-2l-2-2.25-2.95.55-1.85-3.3-.1-.4-3.6.7-2.85 2.05q-4.25 6.05-10.4 9.25l-.25 3.6q-6.5 2.7-9.5 10.15 4.4 4.45 4.25 13.55l-2.25.5-1.75.45-.75.55q-3.3 3.9-4.15 8.1l-.1.3-.25 1.4q0 2.05 1.55 4.15l.15.05-2.35 2.25-.6.75-2.05.45q-6.05 1.35-7.9 4.55l-.15.25-.05.1q-1.8 3.65-1.1 6.75l.05.1.4 1.35q.8 3.1 4.45 6.55.45 7.1 4.1 12.85l-4.7 3.5q-3.3 3.9-4.2 8.15l-.1.25-.25 1.4q0 4 6.2 8.3 2.05 1.4 4.5 2.65l3.6-1.75-1.25 2.8q3.7 1.5 7.95 2.5 8.5 1.95 14.55.65l.25-.05h.1l2.25-.7.3-.1q2.75-1.2 3.4-3.25l.15-.8.1-.55h.05q.4-2.95-.15-7.05l-2.7-6.8q3.75-1.9 6.9-5.4l2.3-2.9.1-.05 2.9-.45q6.25-1.5 8.05-4.9l.3-.8.4-1.15.05-.2q.8-3.2-.75-7.05l-.05-.3q-1.5-4-7.1-8.05-.5-2.05-1.25-3.95h.05l.2.1q2.5-1.2 3.15-3.2l.15-.75.05-.6.1.05v-.05q.45-3 .05-7.1l-.2-1.25-.3-.9q-.75-1.2-3.6-3.45h-.05l-.5-.35-.85-.6q-2.7-2-5.9-3.6-3.2-1.65-8.75-2.9-5.65-1.25-10.2-.75.5-9-3.15-13.8 2-5.2 6.4-7l3.4 7.15 1.95.8 3.55-2.15.6 2.9q3.15 3.1 6.2 3.65l.1.05-3.3.7.05 1.3 7.25 1.1.35.1-.2.65q3.65 1.4 7.1 3.55h.1q1.8-.65 3.65-1.6l3.15.9Q95.5 231.6 91.7 239l2.15 1.6q4.35-9.1 13.25-10.15l36.75 10.7 2.5-.2 7.2-5.35.25-.05L185 212.9v-.15l1-.8m-105.7-5.3-3.95 3.15-.2-.2-.05.45.2-.2h.05l1.65.6 2.5-3.65-.2-.15m-34.5 58.6q-2.85-2.8-3.7-5.55l.1-.45.1-.3q1.35-3.3 6.8-4.9-2.75 5.15-3.1 11.45l-.1-.1-.1-.15m48.2-.8q5.4 4.1 6.7 8.05l-.1.4-.1.2q-1.4 3.9-8.3 5.5l-.3.05h-.05q2.25-5.2 2.3-11.4l-.15-2.8"/><path stroke-width="2" stroke-opacity=".8" stroke-linejoin="round" stroke-linecap="round" stroke="#000" fill="none" d="m329.6 184.85-.45.3-1.65 1.25-30.7 14.05 30.05 35.6-21.8 14.65q.5 4.75-.05 8.6.2-11.45-3.6-22.25-3.3-12.35-5.3-15.65l-3.4-5.25-2.05-2.45-.95-1.25-.05-.1q-5.3-6.6-10.3-11.55l-2.9-2.7-.05-.05q-8.65-9.45-17.7-16.15l3.3.9h.05l.05-.3q.35-7.9 9.9-9.4l.3-.2q-5.7-5.8-.45-13.55l.1-.45q-14.35-5.6-5.1-21.95l-.05-.1.25-.2-.2.3 1.65-1.5-.4-2.2-22.6 15.65.95 19.45-1.45 5.3-1 .6-3.55-.85v-.4q-6.1.1-12 1.35h-.1q-5.3 1.1-10.45 3.15l-2.5-10.85q-.9-7.1 4.2-11.7-4.3-10.55-9.1-16.65h-.7q.05-5.55-1-7.55l-.3-.25-.55-.25q-11.35-5.65-19.65-5.4h-.75l-.2.1q2.05-2.6 3-6.15.45-7.75-4.45-15.2l-.05-.35q-.45-4.4 3.3-8-6.35 1.3-7.3 7.4 1.3 5.5 1.2 12.65-2.3 2.65-5.5 2.65h-.15l-1.55-.2-.2.1-.45-1.25 2.25.2-2.6-1.9v-.05l.9-2.5 1.85-2q-.65-2.8-1.75-3.8l1.15-5.05 1.45-4.2.1-.15q1.75-4.2 4.4-7.75.3-2.3.15-4.05-.15-2.9-1.35-4.4 1-.3 1.65-2.55.1-2.2-.3-3.65v-.05l-.05-.2-.05-.05-.35-1q-1.5.5-2.65 1.6l-.7.75-.3.5.55-1.45-.65-.3.05-.55-.2.5-2.35-.85q-1.55-2-.45-4.8-1.3 1-1.8 3.65-1.6-1.45-1.15-4.85-1.8 1.7-1.9 4.95-1.05.4-1.85-1.1-.7 2.55-.2 5.05-.95.6-1.6.25l-.45-.45-.1 1.2V78l-.1-.35-1.05.4-.05-1.65-.05-.35q-1.45-2.25-1.95-2.15l-1.75 2.3-.15.3-.05 2.3q-1.5-2.6-2.6-5.5l.6 4.8-2.3-2.65 2.65 5-2.5-1.5 2.8 2.9.15.1 1.8 1.4-.2 1.4-.05 1.55v.05q.1 1.55-.4 2.7l-.45.35q-1.1 1.05-1.2 2.6.6 1.8 1.6 2.75l.05.1.05.05.3.25q1.6 2.15 3.15 3.05 2.5.8 3.9.55v2.15l-.25.9-.3.9-3 1.4-.4.05-1.05.2q-2.2.65-3.55 2.2-.5 2.5.1 4.45l-3.6 2.25 2.1-.2-1.2 2.6 2.2-1.5.3 2.65.95-2.85.45-.25.2.4.3.45.1.1-3.15 5.65-1.8 1.9-.1.15-.7-.9q-1.25-2.5-2.85-4.4-3.05-1.95-5.7.9-2.55 3.4-.75 11.95L142 134l3.95.35-3.7 5.55 5.1-2.25.45 2.6q-4.1 5.6-5.5 14.25l-4.15 9.6v7.8l1.85 6.9-4.5 3.75q-2.1 2.1-1.85 5.05l1.35 4.55-1.95 2.2 1.05 1.85-.65 6.1 3.6 9.45 1.9 1.75 2.45-1.15.6-7.45v-.1l3.3 1.65-.3.6-.75 5.7 1 5.75m40.75-6.55 10.25 8.1q5.4 2.3 11.85 2.85l7.9-2.25v.15l.25.05.55.25 1.15 15.2-7.3 22.45-5.7 5.4q-6.35 10.4-.4 14.05l.25.15-4.45 15.25-8.4 7.5-5.9 7.1-6.05 3.3-.3.3-2.45 2.85-5.65 2q3.2 3.5 6.6 3.15l.65-.25.1.3.2-.05q5.5 3 9.55 1v-.5l6.4-7.6 1.7-.95q2.05 2.35 1.3 4.95v.45l-3.9 9.85v.8q0 3.2 2.35 5.55v.25q.15 2.5 1.15 4.95l1.75-3.25q4.55 1.2 7.4-2.9l-.5-9.4 2.2-6.45v-.45h.25q.6-1.45 2.15.55h.15l3.55 9.75.2 7.7q2.55 3.9 6.05 3.25l.15-.15v.05l2.2 3.05.65-3.5q2.65-2.3 2.9-5.35l-2.1-5.75q-2.45-6.4-3.9-9.35l-.1-.2.05.25-.1-.35.05.1q.75-1.55 2.3-.75l3.4 2.4 2.25 6.4q2.15 1.5 4.85.75l.35-.3 2.25 3.05-.3-4.55q1.35-.85.6-4.1l-1.7-5.45-3.75-1.95-3.8-5.15-4.55-9.45-.25-.05-.05-.05.1-.35q.7-7.7 2.1-17.35l1.45-.65 13.5 1q4.05-3.65 6.35-10.2l-2.9-10.6.1-.1q3.05 2.4 7.05 3.75l.15.05 3.8.95.3.05 3.4.5.85.05 1.95 12.25-6.15 13.4H254l.8 6.85-.1.1-1.4 2.3q-2.2 8.4 1 16.05l.35.9.05-.85q.45-4.3 4.6-8.25 2.55 2 3.8 1.3l1.3-.3 1.65-.9h.35q2.15-.25 2.95.9l.2.45.2-.7 4.05 12 4.95-9.1 2.35-.15 3-2-.35.1 2.75-.85.15-.4 5.05 8.65 5.3-8.15.35.2.55-.05v-.05l5.5-3.1-.1-.1q1.45-1.95 1.95-6.8l-.4-.1-5.45-18.2-.35-7.3.4.05.15-.2q2.8-2.8 4.45-8.25l35.15-25.6-35.05-36.8 30-13.15.25-.15-10.9-14.2 5.9-1.9-15.5-8.25 5.15 19.45 1.35-6.3.15-.15 7.15 9.55 1.45-1.1M157.95 224l.05.6 2.95.6.05-.5 2.15-4.1.1-.45 7-5.15-.3 2.9 2.25 1.4 3.3-2.9 2.7-4.5v-1.95h.2l5.35.2h.05v.05h-.05l2.25 1.75"/><path fill-rule="evenodd" fill="#da9f47" d="m-54.1-204.2.1 4.05-3.95 5.6 20.25-1.95.1.3-7.55 3.7-.35.1 7.9-.65-6.7 2.9-15.2 7 2.6 4.1v.2l-4.1 5.8-8.05-1.2-.05-.05q-2.4-3-5.05-9.25l2.7-4.5 3.6 2.2 1.45-.45-.05-.25-10.1-7.8q-2.5-4.05-3.35-8.5 3.4-8.6 9.2-10.8 6.6.4 14.35 6.35l2.25 3.1M-70.45-194l5 3.55 27.75-6.05-27.75 6.05-5-3.55q1.25-3.4 3.2-5.95l5.85-.7-1.5-1.75q-3.15-.25-5.8.85-2.1 2.45-3.75 6.15l2 1.4m6.7-1.9 3.4-3.5-1.05-1.25 1.05 1.25-3.4 3.5m1.7 14.15-.3 4.25-6.7-1.55 3.1-4.1 5.6-1.3.05.05.8 1.25-.5.2.5-.2-.8-1.25-.05-.05-5.6 1.3-3.1 4.1 6.7 1.55.3-4.25m-4.35-4.55 20.9-6.1-20.9 6.1" transform="translate(192.55 294)"/><path fill-rule="evenodd" fill="#efc621" d="m-79.9-193.2-3.95-9.35q3.25-11.3 13.3-15.7 8.2 1.25 16.4 10.05l.05 4-2.25-3.1q-7.75-5.95-14.35-6.35-5.8 2.2-9.2 10.8.85 4.45 3.35 8.5l10.1 7.8.05.25-1.45.45-3.6-2.2-2.7 4.5q2.65 6.25 5.05 9.25-4.2-1.75-7.25-8.85l2.55-5.1.5-.9-6.5-3.9-.1-.15m9.45-.8-2-1.4q1.65-3.7 3.75-6.15 2.65-1.1 5.8-.85l1.5 1.75-5.85.7q-1.95 2.55-3.2 5.95m-2.85 4.85 1.85 1.1-1.85-1.1" transform="translate(192.55 294)"/><path stroke-opacity=".451" stroke-linejoin="round" stroke-linecap="round" stroke="#962525" fill="none" d="m-79.9-193.2-3.95-9.35q3.25-11.3 13.3-15.7 8.2 1.25 16.4 10.05l.05 4 .1 4.05-3.95 5.6 20.25-1.95 1.25-.25m-1.25.25-27.75 6.05-5-3.55-2-1.4q1.65-3.7 3.75-6.15 2.65-1.1 5.8-.85l1.5 1.75 1.05 1.25-3.4 3.5m18.6 3.4-.35.1-20.9 6.1-1.45.45-3.6-2.2-1.85-1.1-6.5-3.9m35.5 2.9-15.2 7 2.6 4.1m0 .2-4.1 5.8-8.05-1.2-.05-.05q-4.2-1.75-7.25-8.85l2.55-5.1m13.8 5.3.5-.2-.8-1.25-.05-.05-5.6 1.3-3.1 4.1 6.7 1.55.3-4.25" transform="translate(192.55 294)"/><path stroke-opacity=".451" stroke-linejoin="round" stroke-linecap="round" stroke="#1b1715" fill="none" d="m-107.3 12.3.15-.55" transform="translate(192.55 294)"/><path stroke-opacity=".682" stroke-linejoin="round" stroke-linecap="round" stroke="#dda522" fill="none" d="m-150.6-34.55-.8 1.9" transform="translate(192.55 294)"/><path fill-rule="evenodd" fill="#fff" d="M-97-42.1h.05-.05" transform="translate(192.55 294)"/><path fill-rule="evenodd" fill="#564429" d="M-138.75-53.5q1.1-2.6 5.85-3.7l7.1-.55 1.45-2.6.5 2.75 5.8 1q8.7 2 14.9 6.25 6.1 4.2 6.15 8.25l-.05.55-.15.75q-.65 2-3.2 3.2l-.25-.1q-20.05 2.95-36.85-9.95-1.55-2.1-1.55-4.1l.2-1.5.1-.25" transform="translate(192.55 294)"/><path fill-rule="evenodd" fill="#232323" d="m-127.25-63-2.15.05-.4-.1q.2-9.15-4.25-13.6 3.65-9.1 12.6-11.2l-.5 3.35q-6.05 1.3-8.45 7.6 3.65 4.85 3.15 13.9" transform="translate(192.55 294)"/><path fill-rule="evenodd" fill="#9e7e50" d="m-129.8-63.05.4.1 2.15-.05q4.55-.55 10.15.7 5.6 1.25 8.85 2.9 3.15 1.6 5.9 3.6l.8.55.5.45h.05q2.8 2.2 3.6 3.4l.35.9.15 1.25q.45 4.1-.05 7.15H-97q-.05-4.05-6.15-8.25-6.2-4.25-14.9-6.25l-5.8-1-.5-2.75-1.45 2.6-7.1.55q-4.75 1.1-5.85 3.7.9-4.2 4.25-8.1l.75-.6 1.7-.35 2.25-.5m27.25 9.2q2.85 2 5.65 4.6-2.8-2.6-5.65-4.6" transform="translate(192.55 294)"/><path stroke-opacity=".451" stroke-linejoin="round" stroke-linecap="round" stroke="#1b1715" fill="none" d="m-127.25-63-2.15.05-.4-.1-2.25.5-1.7.35-.75.6q-3.35 3.9-4.25 8.1 1.1-2.6 5.85-3.7l7.1-.55 1.45-2.6.5 2.75 5.8 1q8.7 2 14.9 6.25 6.1 4.2 6.15 8.25l-.05.55.1-.55q.5-3.05.05-7.15-2.8-2.6-5.65-4.6m-27.25-9.2q.2-9.15-4.25-13.6 3.65-9.1 12.6-11.2l.35-.05m24.2 38.65-.15-1.25-.35-.9q-.8-1.2-3.6-3.4h-.05l-.5-.45-.8-.55q-2.75-2-5.9-3.6-3.25-1.65-8.85-2.9t-10.15-.7q.5-9.05-3.15-13.9 2.4-6.3 8.45-7.6m24.9 42.95-.15.75q-.65 2-3.2 3.2l-.25-.1m-36.85-9.95q-1.55-2.1-1.55-4.1l.2-1.5.1-.25" transform="translate(192.55 294)"/><path stroke-opacity=".451" stroke-linejoin="round" stroke-linecap="round" stroke="#1b1715" fill="none" d="m-121.95-84.5.5-3.35m20.8 50.15q-20.05 2.95-36.85-9.95" transform="translate(192.55 294)"/><path fill-rule="evenodd" fill="url(#d)" d="M-120.55-39q-8.15-2.3-13-6.45-4.85-4.2-3.55-7.7 1.25-3.55 7.9-4.45 6.65-.85 14.8 1.5 8.1 2.3 13 6.45 4.85 4.15 3.6 7.75-1.3 3.5-7.95 4.4-6.65.8-14.8-1.5" transform="translate(192.55 294)"/><path fill-rule="evenodd" fill="url(#e)" d="M-103.15-10.8q-7.8 1-18.05-1.35-12.25-2.85-20.9-8.8-2.65-1.8-4.5-3.55l-.15-4q1.8 1.8 4.4 3.6 8.7 5.95 20.95 8.75 12.05 2.75 20.65.9l-2.4 4.45" transform="translate(192.55 294)"/><path stroke-opacity=".451" stroke-linejoin="round" stroke-linecap="round" stroke="#1b1715" fill="none" d="M-103.15-10.8q-7.8 1-18.05-1.35-12.25-2.85-20.9-8.8-2.65-1.8-4.5-3.55m-.15-4q1.8 1.8 4.4 3.6 8.7 5.95 20.95 8.75 12.05 2.75 20.65.9" transform="translate(192.55 294)"/><path fill-rule="evenodd" fill-opacity=".541" fill="#f3cfad" d="M-122.6-53.05q10 0 17.05 7.75 7.05 7.7 7.1 18.7-.05 10.95-7.1 18.75-7.05 7.7-17.05 7.7-9.95 0-17-7.7-7.05-7.8-7.05-18.75 0-11 7.05-18.7 7.05-7.75 17-7.75" transform="translate(192.55 294)"/><path stroke-opacity=".682" stroke-linejoin="round" stroke-linecap="round" stroke="#a97d1b" fill="none" d="M-122.6-53.05q10 0 17.05 7.75 7.05 7.7 7.1 18.7-.05 10.95-7.1 18.75-7.05 7.7-17.05 7.7-9.95 0-17-7.7-7.05-7.8-7.05-18.75 0-11 7.05-18.7 7.05-7.75 17-7.75z" transform="translate(192.55 294)"/><path fill-rule="evenodd" fill-opacity=".502" fill="#f1dc8d" d="M-102.15-27.2q0 8.2-5.8 14.05-5.8 5.8-14.05 5.8t-14.05-5.8q-5.8-5.85-5.8-14.05 0-8.25 5.8-14.1 5.8-5.8 14.05-5.8t14.05 5.8q5.8 5.85 5.8 14.1" transform="translate(192.55 294)"/><path fill-rule="evenodd" fill-opacity=".541" fill="#fff" d="M-138.35-37.8q.65 1.1.35 2.65-.3 1.5-1.35 2.6-1 1.05-2.15 1.1-1.15-.05-1.8-1.1-.6-1.1-.3-2.6.3-1.55 1.3-2.65 1.05-1.05 2.2-1.05 1.15 0 1.75 1.05" transform="translate(192.55 294)"/><path fill-rule="evenodd" fill="url(#f)" d="m-117.85-4-2.1-.55q4.5-.3 8.6-4.65 5.2-5.45 6.7-14.1 1.5-8.55-1.55-15.25-2-4.4-5.15-6.3l.65.1q5.7.9 8.75 7.5 3 6.6 1.5 14.95-1.5 8.5-6.6 13.85T-117.85-4" transform="translate(192.55 294)"/><path fill-rule="evenodd" fill-opacity=".541" fill="#fff" d="M-132.45-47.05q.1 1.1-.55 2.35-.7 1.3-1.75 2-1.1.75-1.9.45-.85-.25-.95-1.3-.15-1.1.55-2.4.65-1.25 1.75-1.95 1.05-.75 1.9-.5.8.3.95 1.35" transform="translate(192.55 294)"/><path fill-rule="evenodd" fill="url(#g)" d="M-139.25-37.8q1.95-4.4 5.1-6.35l-.65.15q-5.7.85-8.7 7.45-3 6.6-1.55 15 1.5 8.45 6.6 13.8 5.15 5.35 10.8 4.45l2.1-.5q-4.5-.35-8.6-4.65-5.2-5.45-6.7-14.1-1.5-8.55 1.6-15.25" transform="translate(192.55 294)"/></g><g id="m"><path fill-rule="evenodd" fill="#fff" d="M-109.65 11.35h-.1.1" transform="translate(152.25 227.15)"/><path fill-rule="evenodd" fill="#564429" d="M-109.75 11.35v.5l-.2.85q-.65 2.05-3.4 3.25l-.25.1-2.3.7h-.1l-.25.1q-6.1 1.25-14.5-.7-4.3-1-8-2.55l1.25-2.75-3.65 1.7q-2.35-1.2-4.45-2.6-6.2-4.3-6.15-8.3l.2-1.4.1-.25q1.1-2.65 5.85-3.75l.4-.05.15-.05q6-1.2 14.3.7 3.95.9 7.4 2.3l-1.95 3.05 3.7-2.35q3.05 1.45 5.7 3.25 6.15 4.2 6.15 8.25M-146.5-8.7l4.8-3.55q15.9-.7 28.7 8.65l2.85 7q-1.35-2.05-4.1-4.2l-.85-.6q-6.15-4.45-14.85-6.7-8.7-2.3-14.8-1.05l-1.75.45M-128 4.8l-6.7-4.1-4.5-.3-5.85-4.25L-139.2.4l4.5.3 6.7 4.1m11.75 12.05-15.8-7.6 15.8 7.6m2.65-.8-8.35-4.05 8.35 4.05" transform="translate(152.25 227.15)"/><path fill-rule="evenodd" fill="#221b11" d="m-121.6-.15-3.7 2.35 1.95-3.05 1.55-2.4.15 3.1h.05" transform="translate(152.25 227.15)"/><path fill-rule="evenodd" fill="#a58352" d="M-151.45 0q.9-4.25 4.2-8.2l.75-.5 1.75-.45q6.1-1.25 14.8 1.05 8.7 2.25 14.85 6.7l.85.6q2.75 2.15 4.1 4.2l.4.9q.55 4.1.1 7.05h-.1q0-4.05-6.15-8.25-2.65-1.8-5.7-3.25h-.05l-.15-3.1-1.55 2.4q-3.45-1.4-7.4-2.3-8.3-1.9-14.3-.7l-.15.05-.4.05q-4.75 1.1-5.85 3.75" transform="translate(152.25 227.15)"/><path stroke-opacity=".451" stroke-linejoin="round" stroke-linecap="round" stroke="#1b1715" fill="none" d="M-109.75 11.35v.5l-.2.85q-.65 2.05-3.4 3.25l-.25.1-2.3.7h-.1l-.25.1q-6.1 1.25-14.5-.7-4.3-1-8-2.55l1.25-2.75-3.65 1.7q-2.35-1.2-4.45-2.6-6.2-4.3-6.15-8.3l.2-1.4.1-.25q.9-4.25 4.2-8.2l.75-.5 4.8-3.55q15.9-.7 28.7 8.65l2.85 7 .4.9q.55 4.1.1 7.05m-.1 0q0-4.05-6.15-8.25-2.65-1.8-5.7-3.25l-3.7 2.35 1.95-3.05q-3.45-1.4-7.4-2.3-8.3-1.9-14.3-.7L-139.2.4l4.5.3 6.7 4.1M-151.45 0q1.1-2.65 5.85-3.75l.4-.05.15-.05m34.9 7.25q-1.35-2.05-4.1-4.2l-.85-.6q-6.15-4.45-14.85-6.7-8.7-2.3-14.8-1.05l-1.75.45m23.15 7.85 1.55-2.4.15 3.1h.05m-.35 12.15 8.35 4.05m-18.45-6.8 15.8 7.6" transform="translate(152.25 227.15)"/><path fill-rule="evenodd" fill="url(#h)" d="m-92.2-20.8.1-.25.1-.3q-1.45-4.55-8.3-9.25-3.65-2.5-7.9-4.45-5.9-2.75-13-4.35l-6.1-1.15q-8.4-1.15-14.8.35-6.75 1.5-8.25 5.25l-.15.35-.1.4-.95 1.75q-.75-3.15 1.1-6.8l.05-.1.15-.25q1.8-3.2 7.9-4.55 6.45-1.5 14.8-.35l6.15 1.15q7.1 1.6 13 4.3 4.25 2 7.9 4.5 6.6 4.5 8.15 8.85l.15.25q1.5 3.9.7 7.15l-.7-2.5" transform="translate(152.25 227.15)"/><path fill-rule="evenodd" fill="url(#i)" d="m-92.2-20.8.7 2.5-.05.15-.4 1.15-.3.8q-1.75 3.4-8.05 4.85l-2.85.55 2.4-4.45.25-.05q6.9-1.6 8.3-5.5" transform="translate(152.25 227.15)"/><path fill-rule="evenodd" fill="url(#j)" d="m-151.55-32.45.95-1.75q.85 2.75 3.7 5.6l.15.1.15 4q-3.7-3.4-4.5-6.5l-.4-1.35-.05-.1" transform="translate(152.25 227.15)"/><path stroke-opacity=".451" stroke-linejoin="round" stroke-linecap="round" stroke="#1b1715" fill="none" d="m-150.6-34.2.1-.4.15-.35q1.5-3.75 8.25-5.25 6.4-1.5 14.8-.35l6.1 1.15q7.1 1.6 13 4.35 4.25 1.95 7.9 4.45 6.85 4.7 8.3 9.25l-.1.3-.1.25q-1.4 3.9-8.3 5.5l-.25.05m9.25-3.05q.8-3.25-.7-7.15l-.15-.25q-1.55-4.35-8.15-8.85-3.65-2.5-7.9-4.5-5.9-2.7-13-4.3l-6.15-1.15q-8.35-1.15-14.8.35-6.1 1.35-7.9 4.55l-.15.25-.05.1q-1.85 3.65-1.1 6.8m.95-1.75q.85 2.75 3.7 5.6m-4.6-3.75.4 1.35q.8 3.1 4.5 6.5m43.45 13.7 2.85-.55q6.3-1.45 8.05-4.85l.3-.8.4-1.15M-146.9-28.6l.15.1m.15 4v.3" transform="translate(152.25 227.15)"/><path stroke-opacity=".682" stroke-linejoin="round" stroke-linecap="round" stroke="#dda522" fill="none" d="m-92.2-20.8.7 2.5m-.05.15.05-.15m-.8-2.85.1.35" transform="translate(152.25 227.15)"/><path fill-rule="evenodd" fill="#cad1c7" d="m-84.3-75.5-.05.1v-.05l.05-.05m-8.15-17.45.25-.15.6 1.6-.85-1.45m-14.9-9-1.35-.2 1.25-.25.1.45" transform="translate(152.25 227.15)"/><path fill-rule="evenodd" fill="#94a48e" d="m-114.5-75.15-.25-1.2.35.05-.1 1.15m-5.35-11.55.05-.05 1 1-1.05-.95" transform="translate(152.25 227.15)"/><path fill-rule="evenodd" fill="#c5cabd" d="m-108.1-68.9-3.35-.55-.05-1.35 3.2-.6.05-.05 4.4-.9 1.65 2.45-1.6 1.5-.05.2-.35-.15-3.9-.55" transform="translate(152.25 227.15)"/><path fill-rule="evenodd" fill="#d3cfba" d="m-22.6-84.25.2 7q-9.15 9.85-24.8 17.85-26.7-5.4-37.1-16.1l-.05.05-1.15-4.95-4.55-8.6-.2.1-4.3 1.05-2.15 1.4q-2.35 2.45-5.85 8.35l-.45 2.45-2.65 1.3-.1-.05-.25-.25-.35-5.25 5.1-8.65-.4-.25.05-.5-3.55.5-5.65 7.8.5 3.85q-2.8.95-4.1.85l-.35-.05-.3-1.7-.8-3.8 1.15-1.65 2.55-3.6 2.3-3.3-.9-1.25-.35-.3.2-2.35q-5.5 3.7-8.9 7.55l-.05.05-.65.75.6 5.35q-.55 1.5-1.45 1.55l-.3.15-3.05-6.45.4-5.05q6.2-3.2 10.4-9.25l2.8-2.05.45-.1.25-.05 1.7-.3 1.35.2 1.9 3.25.5-.1 2.4-.45 2 2.25q1.4 1.45 3.35 2l3.75.3 1 1.75.85 1.45.4.45q7.7 7.05 37.8 20.5l.05.1.4.3q3.5.65 4.55 3.1l25.8-17.2M-90.05-89l-1.15-2.05 1.15 2.05m43.1 22.95-1.45-1 1.45 1M-101.5-90.6l-.1 1.3.1-1.3m-8.05-.25-.3.45.3-.45" transform="translate(152.25 227.15)"/><path fill-rule="evenodd" fill="#9e9772" d="m-21.65-85 .75-1.3 14.7-.15.85 3.45-2.35 1.85v.15l-31.2 22.65h-.3L-46.3-53l-2.6.25-44.3-12.95q-1.85 1-3.65 1.65h-.1q-3.45-2.15-7.1-3.55l.2-.6.05-.2 1.6-1.5-1.65-2.45-4.4.9v-.05q-3.1-.55-6.25-3.65l.1-1.15q1.3.1 4.1-.85l-.5-3.85 5.65-7.8 3.55-.5-.05.5.4.25-5.1 8.65.35 5.25.25.25.1.05 2.65-1.3.45-2.45q3.5-5.9 5.85-8.35l2.15-1.4 4.3-1.05.2-.1 4.55 8.6 1.15 4.95v.05l.05-.1q10.4 10.7 37.1 16.1 15.65-8 24.8-17.85l-.2-7 .9-.6.05-.15m-77.15 9.65 1.4-1.25 1.75 1.7-1.3 2.4-1.05.1-1.8-.85-.75-.25-1.85-.4-1.5-.1-1.05.35-.7-.7.7.7 1.05-.35 1.5.1 1.85.4.75.25 1.8.85 1.05-.1 1.3-2.4-1.75-1.7-1.4 1.25m-16.25-2.7-3.65 2.15-1.9-.8-1.05-2.2.3-.15q.9-.05 1.45-1.55l-.6-5.35.65-.75 1.05.95-1-1q3.4-3.85 8.9-7.55l-.2 2.35.35.3.9 1.25-2.3 3.3-.25-.15-3.95 3.15-.2-.2-.05.45.15-.2h.1l1.65.55-1.15 1.65.8 3.8m20.3 3.95-.9-.8.9.8m5.5 5.75-3.95 2.65 3.95-2.65m-8.15-8.25 3.95-9.1-3.95 9.1m-19.8-5.9.6-1.35-.6 1.35m.65-1.8-2.25-1.45 2.25 1.45m11.6 10.65q-1.8.6-3.3 2.15 1.5-1.55 3.3-2.15" transform="translate(152.25 227.15)"/><path stroke-opacity=".553" stroke-linejoin="round" stroke-linecap="round" stroke="#000" fill="none" d="M-7.7-81.15-5.35-83l-.85-3.45-14.7.15-.75 1.3m-63.85 4.6-4.55-8.6m-15.6 14.65.7.7 1.05-.35 1.5.1 1.85.4.75.25 1.8.85 1.05-.1 1.3-2.4-1.75-1.7-1.4 1.25m5.6 9.65q-1.85 1-3.65 1.65h-.1q-3.45-2.15-7.1-3.55l-4.05-1.3-3.35-.55-.05-1.35 3.2-.6v-.05l.05-.05q-3.1-.55-6.25-3.65l-.25-1.2-.3-1.7-3.65 2.15-1.9-.8-1.05-2.2-3.05-6.45.4-5.05q6.2-3.2 10.4-9.25m3.25-2.15.25-.05m1.7-.3-1.05-.2m18.55 11.3 1.15 2.05m-1.55-2.5.4.45q7.7 7.05 37.8 20.5l.45.4m-52-28.65 2.4-.45 2 2.25q1.4 1.45 3.35 2l3.75.3 1 1.75m.25-.15.6 1.6-.85-1.45m-.75 27.25 3.95-2.65m-6.4-6.55.9.8m1.3-11.6-3.95 9.1m-11.3-25.55 1.35.2 1.9 3.25m4.2 10.15-5.1 8.65.35 5.25.25.25m4.1-14.4.05-.5.1-1.3m-9.25-1.05.9 1.25.3-.45m-2.6 3.75 2.3-3.3m-6.5 6.3 3.95-3.15m-3.95 3.15-.1.05h.1l1.65.55 2.55-3.6m-2.9 9.05-.8-3.8 1.15-1.65m-1.9-.35-.6 1.35m-1.6-3.25 2.25 1.45m8.25 12.9.05-.05m0-.05q1.5-1.55 3.3-2.15m1.15 5.25 1.6-1.5-1.65-2.45-4.4.9m4.05 3.1-3.9-.55" transform="translate(152.25 227.15)"/><path stroke-opacity=".553" stroke-linejoin="round" stroke-linecap="round" stroke="#000" fill="none" d="m-21.65-85-.05.15-.9.6m-16.6 25.9L-46.3-53l-2.6.25-44.3-12.95m-20.7-33.95 2.8-2.05.45-.1m.25-.05 1.7-.3M-7.7-81l-31.2 22.65m-14.05-11.8q3.5.65 4.55 3.1l25.8-17.2m-30.35 14.1-.4-.3-.05-.1m5 3.5 1.45 1m-60.5-36.35-1.25.25" transform="translate(152.25 227.15)"/><path fill-rule="evenodd" fill="#564429" d="M-94.3-83.25q2.9 2.4 2.7 6.3v.05q-1.1 2.3-3.15 2.65h-.15l-2.5-2.35 3.1-6.65" transform="translate(152.25 227.15)"/><path stroke-opacity=".451" stroke-linejoin="round" stroke-linecap="round" stroke="#1b1715" fill="none" d="M-94.75-74.25q2.05-.35 3.15-2.65v-.05q.2-3.9-2.7-6.3" transform="translate(152.25 227.15)"/><path stroke-opacity=".302" stroke-linejoin="round" stroke-linecap="round" stroke="#000" fill="none" d="m-94.3-83.25-3.1 6.65 2.5 2.35h.15l.45-9z" transform="translate(152.25 227.15)"/><path fill-rule="evenodd" fill="#232323" d="m-94.6-78.05.55-1.75 1.6-.25q6.75 6 7.3 16.55-9.15.9-13.65 10.25l-2.1-1.6q4.2-8.3 12.65-10.4l.4-.1h.05q-.75-8.25-6.05-11.95l-.55-.4-.2-.2v-.15" transform="translate(152.25 227.15)"/><path stroke-opacity=".451" stroke-linejoin="round" stroke-linecap="round" stroke="#1b1715" fill="none" d="m-94.6-78.05.55-1.75 1.6-.25q6.75 6 7.3 16.55-9.15.9-13.65 10.25m-2.1-1.6q4.2-8.3 12.65-10.4m.4-.1h.05q-.75-8.25-6.05-11.95" transform="translate(152.25 227.15)"/><path stroke-opacity=".451" stroke-linejoin="round" stroke-linecap="round" stroke="#1b1715" fill="none" d="m-93.85-77.3-.55-.4-.2-.2v-.15l.75.75z" transform="translate(152.25 227.15)"/><path fill-rule="evenodd" d="M-31-121.45q1.05-1.55 2.5-1.55 1.4 0 2.4 1.55 1.05 1.55 1.05 3.7 0 2.2-1.05 3.7-1 1.55-2.4 1.55-1.45 0-2.5-1.55-.95-1.5-.95-3.7 0-2.15.95-3.7" transform="translate(152.25 227.15)"/><path stroke-opacity=".451" stroke-linejoin="round" stroke-linecap="round" stroke="#1b1715" fill="none" d="M-31-121.45q1.05-1.55 2.5-1.55 1.4 0 2.4 1.55 1.05 1.55 1.05 3.7 0 2.2-1.05 3.7-1 1.55-2.4 1.55-1.45 0-2.5-1.55-.95-1.5-.95-3.7 0-2.15.95-3.7z" transform="translate(152.25 227.15)"/><path fill-rule="evenodd" d="M-46.5-122.4q.55-.95 1.3-.95t1.3.95q.5.95.5 2.35 0 1.35-.5 2.3-.55.95-1.3.95t-1.3-.95q-.5-.95-.5-2.3 0-1.4.5-2.35" transform="translate(152.25 227.15)"/><path stroke-opacity=".451" stroke-linejoin="round" stroke-linecap="round" stroke="#1b1715" fill="none" d="M-46.5-122.4q.55-.95 1.3-.95t1.3.95q.5.95.5 2.35 0 1.35-.5 2.3-.55.95-1.3.95t-1.3-.95q-.5-.95-.5-2.3 0-1.4.5-2.35z" transform="translate(152.25 227.15)"/><path fill-rule="evenodd" fill="#6b7964" d="m14.55-133.3.15.25-.15-.25M-3.5-111.95l-.05.05-.2-.15.25.1m-4.1 5.05-1.05 1.2.6-1 .45-.2" transform="translate(152.25 227.15)"/><path fill-rule="evenodd" fill="#9e9772" d="m14.95-133.45-.4.15.4-.15m4.5-1.45.25.35L4-119.5l-9.35 16.95q-3.5 2.6-7.35 1.85h-.1l-1-2.5 1.35-14.2-.1-.25 9.95-11.25 21.35-9.25.7 3.25m-4.75 1.85-.15-.25q-3.15 1.1-6.35 2.75-4.6 2.25-9.2 5.5v.2q-1.95 1.35-3.5 3h-.05l-.05.05v.05l-2.45 3-.15.2-3.5 3.6-.05.35.55 2.55q2.35 2 2.6 4.65l3.85-4.65.2.15.05-.05 4.05-8.9q2.75-4 5.95-6.9 3.75-3.45 8.2-5.3m-9.75 7.8 1.55-2.5-1.55 2.5M-7.6-106.9v-.5.5l-.45.2-.6 1 1.05-1.2m-1.85 2.55.8-1.35-.8 1.35m1.4-2.35.45-.7-.45.7" transform="translate(152.25 227.15)"/><path fill-rule="evenodd" fill="#372e01" d="M-4.6-121.75v-.05l.05-.05 1 1-1.05-.9" transform="translate(152.25 227.15)"/><path fill-rule="evenodd" fill="#6a642f" d="M-4.55-121.85h.05l.95 1-1-1" transform="translate(152.25 227.15)"/><path fill-rule="evenodd" fill="#655f45" d="m14.55-133.3.15.25q-4.45 1.85-8.2 5.3l1.7-2.8-1.7 2.8q-3.2 2.9-5.95 6.9l-4.05 8.9-.25-.1-3.85 4.65q-.25-2.65-2.6-4.65l-.55-2.55.05-.35 3.5-3.6.15-.2 2.45-3 1.05.9-.95-1q1.55-1.65 3.5-3v-.2q4.6-3.25 9.2-5.5 3.2-1.65 6.35-2.75M-7.4-114l.2-4.55-.2 4.55m3.65 1.95q-2.35-4.1.2-8.8-2.55 4.7-.2 8.8" transform="translate(152.25 227.15)"/><path stroke-opacity=".451" stroke-linejoin="round" stroke-linecap="round" stroke="#1b1715" fill="none" d="m14.55-133.3.4-.15m4.75-1.1L4-119.5l-9.35 16.95q-3.5 2.6-7.35 1.85h-.1l-1-2.5m1.25-14.45 9.95-11.25 21.35-9.25.7 3.25M6.5-127.75l-1.55 2.5m3.25-5.3-1.7 2.8m-10.25 15.7-3.85 4.65v.5m-1.05 1.2-.8 1.35m8.45-20.7q4.6-3.25 9.2-5.5 3.2-1.65 6.35-2.75M-7.2-118.55l-.2 4.55m-3.3-.95 3.5-3.6.15-.2 2.45-3v-.05l.05-.05h.05q1.55-1.65 3.5-3m-7.05 18.15-.6 1m1.05-1.7q-.25-2.65-2.6-4.65m2.6 4.65-.45.7m4.5-14.15q-2.55 4.7-.2 8.8" transform="translate(152.25 227.15)"/><path fill-rule="evenodd" fill="#827b4b" d="m128.05-117.6-.2.15-1.4 6.3-5.1-19.5 15.45 8.25-5.85 1.95 10.9 14.2-.25.2-30 13.05 35.05 36.85-35.5 25.9q2.25-5.25 1.35-13.35l21.8-14.65-30-35.6 30.65-14.05.2-.15 1.9-1.45-1.9 1.45-7.1-9.55-.05-.05-.3-.35.3.35.05.05" transform="translate(152.25 227.15)"/><path stroke-opacity=".302" stroke-linejoin="round" stroke-linecap="round" stroke="#000" fill="none" d="m128.05-117.6-.05-.05-.3-.35m7.25 10.1L104.3-93.85l30 35.6-21.8 14.65m-1.35 13.35 35.5-25.9L111.6-93l30-13.05m.25-.2-10.9-14.2 5.85-1.95-15.45-8.25 5.1 19.5 1.4-6.3m7.3 9.4-7.1-9.55 7.1 9.55z" transform="translate(152.25 227.15)"/><path fill-rule="evenodd" fill="#cad1c7" d="m76.8 13.55.45-.3-.25.7-.2-.4m17.3-.65-.15.3.05-.5.1.2" transform="translate(152.25 227.15)"/><path fill-rule="evenodd" fill="#e0e4de" d="M105.35 13.4v.05l-.55.1.55-.1v.05l-.55.05-.35-.2.9.05" transform="translate(152.25 227.15)"/><path fill-rule="evenodd" fill="#eaece8" d="m94.2 12.55-.1.35-.1-.2.2-.15m-32.05 8.2-.05.85-.35-.9.4.05" transform="translate(152.25 227.15)"/><path fill-rule="evenodd" fill="#94a48e" d="m72.85 12.2.95.4-.3-.05-1.65 1 1-1.35" transform="translate(152.25 227.15)"/><path fill-rule="evenodd" fill="#d3cfba" d="M78.95-88.5h.35q7.1 3.95 12.25 11.3 9.15 21.05 3.7 42.55-5.15 5.65-11 9.4-2.9 1.8-5.95 3.2 3.5-1.25 7.25-1.2 6.05 1.2 11.8 5.5l1.5 4.2q-5 7.25-13.5 9.4L81.9-6.1q-2.25 1.35-4.5 2.6L74.7.8l-.05.3L69.4-.4h-.1l-3.35-.3q-2.45.95-3.7 2.95L61.5-4.6h.25l6.2-13.4-6.1-38.4 3.25-19.95.1-.45q3.65-6.35 9.6-10.8 1.8-.85 4.15-.9m-5.1 68.45q2.15-1.25 4.45-2-2.3.75-4.45 2M83-74l-1.65-1.8-2.85 2.55 2.85-2.55L83-74m-5.1 1.35 3.9 3.85 6.95-5.6-7.7-7.85-7.35 7.3 7.35-7.3 7.7 7.85-6.95 5.6-3.9-3.85" transform="translate(152.25 227.15)"/><path fill-rule="evenodd" fill="#9e9772" d="m69.4-.4 5.25 1.5.05-.3 2.7-4.3q2.25-1.25 4.5-2.6l3.45 1.95q8.5-2.15 13.5-9.4l-1.5-4.2q-5.75-4.3-11.8-5.5-3.75-.05-7.25 1.2 3.05-1.4 5.95-3.2 5.85-3.75 11-9.4 5.45-21.5-3.7-42.55-5.15-7.35-12.25-11.3l2.8.2q4.05.55 9.3 2.9l.65.5 5.05 8.8 3.7 6.85q2.9 5.15 3.5 14l1.25 13.05 1.3 27.4 5.45 18.15.35.1q-.45 4.85-1.9 6.75l.1.1-5.5 3.15v-.05l.35-6.55Q104.05 1 98.6-1.2q-4.85 3.3-5.5 8.8l1.1 4.95-.2.15-.5-.75.5.75-.05.5-2.4.75-3 2-2.3.2.55-1.1 3.05-7.1Q87.7 2.7 84.2.55q-5.5-.4-7.65 4.9l.7 7.8-.45.3q-.8-1.2-3-.95l-.95-.4q.95-1.75 1-4.35v-.5.5q-.05 2.6-1 4.35l-1 1.35-1.3.2q-1.3.75-3.8-1.25l.35-.7q2.85-1.05 5.45-4.05l.15-3.7-1.2-2V2L69.4-.4m20.75 7.75-.3.6.3-.6M72.7 3.25v.8-.8m34.15-18.05-3.05-3.65 3.05 3.65m-21.3-8.45 5.85.8-5.85-.8M89.2-2l-3.85-2.15L89.2-2m17.75-.15L99.1-7l7.85 4.85M98.7-7l-4.85 3.9L98.7-7m-7.15 20.95-.35.1.35-.1.45-4-.45 4" transform="translate(152.25 227.15)"/><path fill-rule="evenodd" fill="#cfc1ab" d="m61.75 20.7.8-10.1q2.55-5.85 8.65-8.35l.3-.2 1.2 2-.15 3.7q-2.6 3-5.45 4.05l-.35.7q-4.15 3.95-4.6 8.25l-.4-.05m15.5-7.45-.7-7.8Q78.7.15 84.2.55q3.5 2.15 5.65 7.4l-3.05 7.1-.55 1.1-5.05 9.1-3.95-12m16.95-.7L93.1 7.6q.65-5.5 5.5-8.8 5.45 2.2 7.1 8.05l-.35 6.55-.9-.05-5.35 8.15-5-8.6.1-.35m10.5.45-.25.35.25-.35" transform="translate(152.25 227.15)"/><path fill-rule="evenodd" fill="#fffffa" d="m71.2 2.25.3-.25v.05l-.3.2" transform="translate(152.25 227.15)"/><path fill-rule="evenodd" fill="#e7ded3" d="M62.25 2.25q1.25-2 3.7-2.95l3.35.3h.1L71.5 2l-.3.25q-6.1 2.5-8.65 8.35l-.8 10.1q-3.15-7.7-1-16l1.4-2.35.1-.1" transform="translate(152.25 227.15)"/><path stroke-opacity=".541" stroke-linejoin="round" stroke-linecap="round" stroke="#1b1715" fill="none" d="M78.95-88.5q-2.35.05-4.15.9-5.95 4.45-9.6 10.8m-.1.45L61.85-56.4l6.1 38.4-6.2 13.4m-.25 0 .75 6.85q1.25-2 3.7-2.95l3.35.3h.05m8.05-3.1q2.25-1.25 4.5-2.6l3.45 1.95L89.2-2m-3.65-21.25q-3.75-.05-7.25 1.2-2.3.75-4.45 2M91.4-85.4q-5.25-2.35-9.3-2.9l-2.8-.2m12.75 3.6 5.05 8.8 3.7 6.85q2.9 5.15 3.5 14l1.25 13.05 1.3 27.4 5.45 18.15m.35.1.15-.55m-50.55-.65-.1.1-1.4 2.35q-2.15 8.3 1 16M71.5 2 69.4-.4m4.45 7.75v.5q-.05 2.6-1 4.35l-1 1.35 1.65-1m.3.05q2.2-.25 3 .95m.45-.3-.7-7.8Q78.7.15 84.2.55q3.5 2.15 5.65 7.4l.3-.6m-23.4 5.15.35-.7q2.85-1.05 5.45-4.05l.15-3.7-1.2-2V2m1.2 2.05v-.8m31.1-21.7 3.05 3.65m-1.5 28.2.35-6.55Q104.05 1 98.6-1.2q-4.85 3.3-5.5 8.8l1.1 4.95m-.1.35 5 8.6 5.35-8.15.25-.35M93.85-3.1 98.7-7m.4 0 7.85 4.85M91.4-22.45l-5.85-.8m25.2 33.45q1.45-1.9 1.9-6.75m-7.3 10v-.05m-.55.15.55-.1 5.5-3.15m-5.5 3.2v-.05m-11.4-.25-2.4.75-3 2-2.3.2-5.05 9.1-3.95-12m-.25.7-.2-.4M94 12.7l.1.2m-.1-.2-.5-.75m-2.3 2.1.35-.1.45-4m-5.75 6.2.55-1.1 3.05-7.1m-18 5.6-1.3.2q-1.3.75-3.8-1.25-4.15 3.95-4.6 8.25l-.05.85-.35-.9m7.6-21.1h.05m4.3-74.55 7.35-7.3 7.7 7.85-6.95 5.6-3.9-3.85m.6-.6 2.85-2.55L83-74" transform="translate(152.25 227.15)"/><path fill-rule="evenodd" fill="#b52828" d="m-30.6-218.15 1.75-2.3q.5 0 1.95 2.25l.05.3.1 1.65-.4 1.7-.6 1.6-.15.05-1.6 1.45-.15-.25h.05l-.4-.4-.5-.8v-.3l-.05-.15v-.05q-.45-2.2-.2-4.4l.15-.35m18.05-1.1q1.1-1.15 2.6-1.6l.45 1-.9.45-.9 1.1q-1 1.45-1.25 3.7l-.15 1-.1.25v5.1l-.5 3.95-2.7 1.9-.1.15-.75 1.75.25.8q.3 1.15-.25 2.05-.55.9-1.85 1.5l-3-.1-.1-.1v.05l-.8-1.05.75.5 2.45-1.75-1.6-4.2 3.35-3.95.25-.35v-.2l.7-.4q.95-2.05.05-3.5v.05l-.8.45v-2l2.65-2.15h.3q-.05-1.6.95-3.15l.35-.45.65-.8m-4.3 37.25-.85 2.6h.05l2.55 1.9-2.25-.25.45 1.35.9 3.05-2.9-4-.25-.15-1-1.75-2.65-2.8-5.85 1.3-2.1-.1v.1l-.1-.1-.25-.6-.1-.15-.6-1.5-.05-.2q-.65-1.95-.15-4.45 1.4-1.55 3.55-2.2l1.05-.25h.4l3-1.4q-.65 1.3-2 2.35l-.05-.05v.05l-1.6 3.9v.05l-.1.2.25-.15 2.1 1.85 3.85-.6.1.05.15.1.35-.35-.2-.4 1.85-5.05 1.35 1.7 1.2 2.4q-1.4 1.95-3.2 2.55l-.2.1q.6.65.95 1.65 1.3 0 2.35-.75m1.75 5.65h.1q3.25.05 5.5-2.65.15-7.1-1.2-12.7 1-6.05 7.3-7.35-3.75 3.6-3.3 8l.05.35-.2-.1-.25 3.2q1.55 5.5.65 10.35-1.95 2.35-5.05 3.65-3.45-.95-3.6-2.75m-1.4 24.1-.1.15-.1.1-2.6 3.25-.5-6.6-1.25-3.7 1.3-3.9 1.15-3 .95-2.6.25-.7.5-1.3q.5-1.3 1.6-1.7l.75-.15.05.3q1.1.65 2.2 2.95 1.15 5.6.35 9.95-2.6 1.2-4.25 3.75l-.4 3.15.1.05m-32.05-2.95-1.75.75 3.7-5.5-3.95-.35 5.35-4.05q-1.7-8.6.75-11.95 2.75-2.95 5.75-.95 1.6 1.85 2.85 4.4l.65.9-1.15 1.7-3.15-3.65q-2 .9-2.45 3.35l.6 8.8-2.5 3.5-.6-1.15-4.2 4 .1.2m18.8-58.3q1.05-2.1.75-4.15l-.35-1.4.35 1.4q.3 2.05-.75 4.15m13.1 2.3.7-.5.15.05q.75.25 1.45.9.8.7 1.55 2-.75-1.3-1.55-2-.7-.65-1.45-.9l-.15-.05-.7.5m2.15-3.65.1.9-.1-.9m-4.05 28.3q-1.1 1.9-2.4 2.35 1.3-.45 2.4-2.35m.85 7.15-1.1-.85-.4-1 .4 1 1.1.85m-2.45-3.5-.15-.15-1-.8 1 .8.15.15m-.1 8.3.3.1-.25.7-.05-.8.05.8-.55.05-.05-.8.55-.05M-29-185.4v.05l.35-.35.9-2h-1.75l.4 2.35.1-.05m.05 1.2.05 1.25-.1.45.1-.45-.05-1.25-.1-.75.05-.4-.05.4.1.75 1.2-.9-1.2.9m3.55.8-3.5.45 3.5-.45" transform="translate(152.25 227.15)"/><path fill-rule="evenodd" fill="#e0b06b" d="m-35.05-172.15 1.75-1.85 3.2-5.65.05.1.15.2 2-.2L-24-178l.1-.1-.3 3.95-.15 1.9 1 3.5.35 1.2q-.45 2.9-2.5 5.3-3.45.7-7.25-.6-2.5-3.2-3.55-6.7l-.35-.1.25-.5.05-.1 1.15-1.7.15-.15v-.05M-24-191.6l.35-.95q2.15.5 4.35 2.9l-1.85 5.05-.4.6-3.85.6-2.1-1.85-.25.15.1-.2v-.05l1.6-3.9h.05l5.7.8-5.7-.8q1.35-1.05 2-2.35m-1.45-21.85h-.05v-.05l.05.05m3.65 17.15v-.05l.1.1-.1-.05m1.45 20.05.1 1.65-.55.05-.1-1.7h.55m-16.2 11.15.05.05-.5.4.45-.45m1.5-7q3.15 4.75 11.7 3.35-8.55 1.4-11.7-3.35m10.85-2.05q-4.25.4-6.6-2.25 2.35 2.65 6.6 2.25" transform="translate(152.25 227.15)"/><path fill-rule="evenodd" fill="#2b1d09" d="m-28.85-210.75.5.4 1.1.8q.15 1.15-.6 1.9l.1.4-.45.1-1-.45-.35-1.55q0-.75.65-1.5l.05-.1m.1 7.55-1.15-1.7 3.55.3-2.4 1.4m10.25-6.9q.45.25.6 1.15.35 1.35-.15 1.85l-1.75.5q-.6-.35-.9-1.25-.2-1 .25-1.45l1.95-.8" transform="translate(152.25 227.15)"/><path fill-rule="evenodd" fill="#fff" d="M-30.4-209.55q.05-1.95.75-2.15l.15.25.65.7-.05.1q-.65.75-.65 1.5l.35 1.55-1.2-1.95m3.15 0 .6.35 1 .45v.15l.05 1-2.15.35-.1-.4q.75-.75.6-1.9m10.6-1.65q.9 1.45-.05 3.5l-.7.4-.65.2q.5-.5.15-1.85-.15-.9-.6-1.15l1.05-.6.8-.45v-.05m-3.8 1.9q-.45.45-.25 1.45.3.9.9 1.25l-1.15.1q-1.4-1-1.25-2.2l-.95-.15 2.7-.45" transform="translate(152.25 227.15)"/><path fill-rule="evenodd" fill="#d62121" d="m-30.5-199.15-.3-.3h-.05l-.05-.1.4.4m13.1-8.15v.2l-.25.35-.4-.35.65-.2" transform="translate(152.25 227.15)"/><path fill-rule="evenodd" fill="#db3e3e" d="M-23.5-195.6q-1.4.3-3.85-.55-1.5-.9-3.15-3l-.4-.4q-.95-.95-1.65-2.75.15-1.55 1.3-2.6l.4-.35q.55-1.1.4-2.75l.05-1.55 1.2 1.95 1 .45.45-.1 2.15-.35-.05-1v-.15l-1-.45-.6-.35-1.1-.8-.5-.4-.65-.7 1.6-1.45.15-.05 2.25-1v.5l.05.1 7.4-.85-1.15-1.05 4.15-1.7-1.7-.85 3.35-.65-.15.45q-1 1.55-.95 3.15h-.3l-2.65 2.15v2l-1.05.6-1.95.8-2.7.45.95.15q-.15 1.2 1.25 2.2l1.15-.1 1.75-.5.4.35-3.35 3.95 1.6 4.2-2.45 1.75-.75-.5.8 1.05-.15.05q-1.15.6-1.55.65m-5.25-7.6 2.4-1.4-3.55-.3 1.15 1.7m3.3-10.15.05.4-.05-.4m2.85 16q-4.65-4.05-6.5-4.15-1.15-.05-1.2 1.5.05-1.55 1.2-1.5 1.85.1 6.5 4.15" transform="translate(152.25 227.15)"/><path fill-rule="evenodd" fill="#761b1b" d="m-26.75-216.25.95-.4.15.35.15 2.35-2.25 1 .6-1.6.4-1.7m10.65-4.4 3.1 1.2-.4 1-3.35.65 1.7.85-4.15 1.7 1.15 1.05-7.4.85-.05-.1h.05l5.05-4.75 4.3-2.4v-.05m6.6.8.05.1v.2q.4 1.45.3 3.6-.65 2.25-1.65 2.6 1.2 1.5 1.35 4.35.1 1.8-.15 4.1-2.7 3.55-4.4 7.75l-.05.1-1.5 4.25-1.2 5.05q1.2 1 1.8 3.8l-1.9 1.95q-1.05.75-2.35.75-.35-1-.95-1.65l.2-.1q1.8-.6 3.2-2.55l-1.2-2.4-1.35-1.7 1.45-3.9 1.6-4.25.15-.4-.5-1.5-.25-.8.75-1.75.1-.15 2.7-1.9.5-3.95v-5.1l.1-.25.15-1q.25-2.25 1.25-3.7l.9-1.1.9-.45m-7.4 43.45.15-.15 1.55.2h.1q.15 1.8 3.6 2.75 3.1-1.3 5.05-3.65.9-4.85-.65-10.35l.25-3.2.2.1q4.9 7.45 4.45 15.2-1.75 6.7-7.5 9.75l.95 3.65q.6 4.35-.65 7.15l.5.2 1.5 4.35-5.15-3.2-.35 5.35-3.6-4-.1-.05.4-3.15q1.65-2.55 4.25-3.75.8-4.35-.35-9.95-1.1-2.3-2.2-2.95l-.05-.3-.75.15q-1.1.4-1.6 1.7l-.5 1.3-.25.7-.95 2.6-1.55-3.5-.4-1.05-.2-3.25.55-.05.25-.7-.3-.1-.1-1.65-.1-1.85-1.1-1.3-2.1-1.35-1.35.15h-.1q-1.25.6-2.8 1.05 1.55-.45 2.8-1.05h.1l1.35-.15 2.1 1.35-2.35 1.3-.1.1-3.9-1.55-2 .2-.15-.2-.05-.1-.1-.1-.3-.45-.2-.4h-.05l-.35.25-1 2.85-.3-2.6-2.2 1.5 1.25-2.65-2.2.2 3.7-2.25.05.2.6 1.5.1.15.25.6.1.1v-.1l2.1.1 5.85-1.3 2.65 2.8 1 1.75.25.15 2.9 4-.9-3.05M-37-164.65l-1.3 1.2.95 2.75-3.1 2-4.15 5.35-.6-3.3-3.35 1.45-.1-.2 4.2-4 .6 1.15 2.5-3.5-.6-8.8q.45-2.45 2.45-3.35l3.15 3.65-.05.1-.25.5-.3.75q.1 1.85.8 3.35l.05.05-.45.4-.45.45m25.7-48.25q.25-.4.5-.45-.25.05-.5.45m-5.45 25.15-.05-.05-.4-.25.4.25.05.05m-2.15 10.4-1.05 2.85 1.05-2.85m-6.2-3.25 1.45 1.15-1.45-1.15m15.4 14.85q-1.45-4.65-2.85-6.4l-2-.25 2 .25q1.4 1.75 2.85 6.4m-6.05-7.25-.25-.35.25.35m-12.9-12.7-.35.3-.1.05-.4-2.35h1.75l-.9 2m-2.1 5.1v-.15.15m21.15 26 .2-.35-.2.35" transform="translate(152.25 227.15)"/><path fill-rule="evenodd" fill="#b77c26" d="m-25.65-216.7.1-1.25.5.45q.6.3 1.5-.25-.45-2.5.25-5.05.8 1.5 1.85 1.05.1-3.2 1.9-4.9-.5 3.35 1.15 4.85.5-2.6 1.8-3.65-1.05 2.8.5 4.8v.05l-4.3 2.4-5.05 4.75-.05-.05v-.45l-.15-2.35v-.4m4.6 57.65q-3.7 2.1-6 1.6-3.75.85-6.9-2.2-1.9-1.7-3.05-5l.5-.4.75.3-.35-.75-.05-.05q-.7-1.5-.8-3.35l.3-.75.35.1q1.05 3.5 3.55 6.7 3.8 1.3 7.25.6 2.05-2.4 2.5-5.3l-.35-1.2-1-3.5.15-1.9.3-3.95 2.35-1.3 1.1 1.3.1 1.85h-.55l.1 1.7.05.8.2 3.25.2 1.1-3 .65 3-.65.2-.05 1.55 3.5-1.15 3-1.3 3.9m-2.6-33.5.15-.85v-2.2q.4-.05 1.55-.65l.15-.05.1.05 3 .1q1.3-.6 1.85-1.5t.25-2.05l.5 1.5-.15.4-1.6 4.25-1.45 3.9q-2.2-2.4-4.35-2.9m5.8-1-5.65.15 5.65-.15m-4.3 19.05-2.05.35 2.05-.35m2.4 11.55q-1.55 1.9-5 2.2l-2.2.45q-3.25.25-6.55-1.8-1.4-1.2-2.25-2.65.85 1.45 2.25 2.65 3.3 2.05 6.55 1.8l2.2-.45q3.45-.3 5-2.2" transform="translate(152.25 227.15)"/><path stroke-opacity=".451" stroke-linejoin="round" stroke-linecap="round" stroke="#1b1715" fill="none" d="m-30.6-218.15 1.75-2.3q.5 0 1.95 2.25l.05.3.1 1.65m1.1-.45.1-1.25.5.45q.6.3 1.5-.25-.45-2.5.25-5.05.8 1.5 1.85 1.05.1-3.2 1.9-4.9-.5 3.35 1.15 4.85.5-2.6 1.8-3.65-1.05 2.8.5 4.8v.05l-4.3 2.4-5.05 4.75h-.05l.05.1m12.9-5.9q1.1-1.15 2.6-1.6l.45 1 .05.1v.2q.4 1.45.3 3.6-.65 2.25-1.65 2.6 1.2 1.5 1.35 4.35.1 1.8-.15 4.1-2.7 3.55-4.4 7.75l-.05.1-1.5 4.25-1.2 5.05q1.2 1 1.8 3.8l-1.9 1.95-.85 2.6h.05l2.55 1.9-2.25-.25.45 1.35m.15-.15 1.55.2h.2q3.25.05 5.5-2.65.15-7.1-1.2-12.7 1-6.05 7.3-7.35-3.75 3.6-3.3 8l.05.35q4.9 7.45 4.45 15.2-1.75 6.7-7.5 9.75l.95 3.65q.6 4.35-.65 7.15l-.2.35m.7-.15 1.5 4.35-5.15-3.2-.35 5.35-3.6-4-.1.15m-.1.1-2.6 3.25-.5-6.6-1.25-3.7q-3.7 2.1-6 1.6-3.75.85-6.9-2.2-1.9-1.7-3.05-5l-1.3 1.2.95 2.75-3.1 2-4.15 5.35-.6-3.3-3.35 1.45-1.75.75 3.7-5.5-3.95-.35 5.35-4.05q-1.7-8.6.75-11.95 2.75-2.95 5.75-.95 1.6 1.85 2.85 4.4l.65.9.15-.2 1.75-1.85 3.2-5.65-.1-.1-.3-.45-.2-.4h-.05m-.35.25-1 2.85-.3-2.6-2.2 1.5 1.25-2.65-2.2.2 3.7-2.25q-.65-1.95-.15-4.45 1.4-1.55 3.55-2.2l1.05-.25m3.4-1.4.35-.95.15-.85v-2.2q-1.4.3-3.85-.55-1.5-.9-3.15-3l-.3-.3h-.05l-.05-.1q-.95-.95-1.65-2.75.15-1.55 1.3-2.6l.4-.35q.55-1.1.4-2.75l.05-1.55q.05-1.95.75-2.15h.05l-.4-.4-.5-.8-.1-.25q-1.4-.45-1.65 2.05m1.5-6.7q-.25 2.2.2 4.4v.05l.05.15v.3m2.75-.05.6-1.6.4-1.7m1.25 2.3-.15-2.35v-.4m-4 5 .15.25.65.7.5.4 1.1.8.6.35 1 .45v.15m.05 1-2.15.35-.45.1-1-.45-1.2-1.95m1.55-1.2-.05.1q-.65.75-.65 1.5l.35 1.55m1.35-.05q.75-.75.6-1.9m-1.5 6.35 2.4-1.4-3.55-.3 1.15 1.7m15.2-14.8.35-.45.65-.8m-1.95 4.4q-.05-1.6.95-3.15m.75 9.25q-.75-1.3-1.55-2-.7-.65-1.45-.9l-.15-.05-.7.5q.9 1.45-.05 3.5l-.7.4m-4.3 11.05 3 .1q1.3-.6 1.85-1.5t.25-2.05l-.25-.8.75-1.75m-.55-8.95v.05l-.8.45-1.05.6q.45.25.6 1.15.35 1.35-.15 1.85l.65-.2m3-6.65-.1-.9m-10.9 1.9-.05-.4m-.05-.1v-.5m5.05 4.65q-.45.45-.25 1.45.3.9.9 1.25l1.75-.5m-4.15-1.6q-.15 1.2 1.25 2.2l1.15-.1m-3.35-2.25 2.7-.45 1.95-.8m7.7-3.25q-.25.05-.5.45m-8.85 30q.6.65.95 1.65 1.3 0 2.35-.75m-6.65-13.6q.4-.05 1.55-.65m1 12.05q1.3-.45 2.4-2.35m-9.2 1.45.25-.15 2.1 1.85 3.85-.6.1.05.15.1 1 .8.15.15m-3.85-8.7q-.65 1.3-2 2.35m8.8 1.2.4.25.05.05m-2.45 6.5.4 1 1.1.85m-1.2 2.05 2.9 4-.9-3.05m-11-3.15q1.55-.45 2.8-1.05h.1l1.35-.15 2.1 1.35 1.1 1.3.1 1.85.1 1.65.05.8.25-.7 1.05-2.85m-5-.75-.1.1-3.9-1.55-2 .2-.15-.2-.05-.1m6.45.2-1.45-1.15m3.55 1.2-2.35 1.3m-.3 3.95 2.05-.35m1.35-.05.05.8m-2.6 5 3-.65m-.2-1.1-.2-3.25m.2 3.25.4 1.05 1.55 3.5.95-2.6.25-.7.5-1.3q.5-1.3 1.6-1.7l.75-.15 2 .25q1.4 1.75 2.85 6.4m-10.45-3.7-.2.05m-16.3-.25-.3.75q.1 1.85.8 3.35l.05.05.35.75q.85 1.45 2.25 2.65 3.3 2.05 6.55 1.8l2.2-.45q3.45-.3 5-2.2l1.15-3m2.6-7.4.25.35m-5.05-1.55-.1-1.7M-30.3-200q.05-1.55 1.2-1.5 1.85.1 6.5 4.15M-29-185.4v.05l.35-.35-.35.3m1.25-2.3-.9 2m-.35.35-.05.4.1.75 1.2-.9m-1.25 2.6.1-.45-.05-1.25m-2.9.9.05.2.6 1.5.1.15.25.6.1.1v.15m-4.45 8.65-1.15 1.7m-.05.1-.25.5m1.6-2.45v-.05m-1.45 7.1-.05-.05-.45.45m.5-.4.75.3m-.8-.35.45-.4m15.05 6.45 1.3-3.9m-9.15-20 3.5-.45m-5.4 7q2.35 2.65 6.6 2.25m.85 5.4q-8.55 1.4-11.7-3.35" transform="translate(152.25 227.15)"/><path stroke-opacity=".451" stroke-linejoin="round" stroke-linecap="round" stroke="#1b1715" fill="none" d="m-26.75-216.25.95-.4.15-.05m9.55-3.95 3.1 1.2.45.2M-27-190.2l3-1.4m-5.35-27.45.35 1.4q.3 2.05-.75 4.15m17.05-.1.15-1q.25-2.25 1.25-3.7l.9-1.1m-5.85 21.6-1.6 4.25-1.45 3.9m2.7-10.05.5 1.5m-9.9 8.95-.05-.05v.05l-1.6 3.9v.05l-.1.2m6.6.5 1.85-5.05m-6.7.4 5.7.8m-3.2-4.95 5.65-.15" transform="translate(152.25 227.15)"/><path fill-rule="evenodd" fill="#e0b06b" d="m-32.85-216.25-.55-4.8q1.6 4.4 4.25 8.1 2.45 2.7 4.75 2.85l-.75 1.25q-3.4-.45-7-3.65l-2.85-2.9 2.5 1.55-2.65-5.05 2.3 2.65" transform="translate(152.25 227.15)"/><path stroke-opacity=".302" stroke-linejoin="round" stroke-linecap="round" stroke="#000" fill="none" d="m-32.85-216.25-.55-4.8q1.6 4.4 4.25 8.1 2.45 2.7 4.75 2.85l-.75 1.25q-3.4-.45-7-3.65l-2.85-2.9 2.5 1.55-2.65-5.05 2.3 2.65z" transform="translate(152.25 227.15)"/><path fill-rule="evenodd" fill="#e0b06b" d="m-14.25-215.65.6-4.75q-1.7 4.25-4.65 7.7-2.7 2.5-5.2 2.45l.85 1.3q3.7-.15 7.65-3l3.1-2.65-2.75 1.3 2.9-4.8-2.5 2.45" transform="translate(152.25 227.15)"/><path stroke-opacity=".302" stroke-linejoin="round" stroke-linecap="round" stroke="#000" fill="none" d="m-14.25-215.65.6-4.75q-1.7 4.25-4.65 7.7-2.7 2.5-5.2 2.45l.85 1.3q3.7-.15 7.65-3l3.1-2.65-2.75 1.3 2.9-4.8-2.5 2.45z" transform="translate(152.25 227.15)"/><path fill-rule="evenodd" fill="#cad1c7" d="m75.95-158.9-1.15-1.65.75-.5.4 2.15-1.65 1.55.15-.3 1.5-1.25M56.4-140.7l-.5-1.15.5-.55.5-.6-.1.35-.15.55-.25 1.4m13.15 28.85-.05.3h-.05l.1-.3M56.4-142.4l.25.3-.25-.3m-12.35 28.6-.1.15v-.1l.1-.05" transform="translate(152.25 227.15)"/><path fill-rule="evenodd" fill="#6b7964" d="m79.35-135.15-.05.2v-.05l.05-.15m-22.5-7.5h-.05l.1-.35-.05.35m-.2.55.55.4-.8 1 .25-1.4" transform="translate(152.25 227.15)"/><path fill-rule="evenodd" fill="#d3cfba" d="m74.8-160.55 1.15 1.65-1.5 1.25-.2.2L57-143.05l-.1.05-.5.6-.5.55.5 1.15q-.8 5-.05 13.45.4 4.4-2.4 7.65-3.05 3.6-9.9 5.8l-.25-.15-2.5-1.4 4.4-1.15 6.75-4.2 1.45-5.25-.95-19.45 21.85-15.15" transform="translate(152.25 227.15)"/><path fill-rule="evenodd" fill="#372e01" d="M56.8-142.65h.05l.35.95-.55-.4.15-.55m-.4 1.95.8-1-.8 1" transform="translate(152.25 227.15)"/><path fill-rule="evenodd" fill="#534202" d="m56.85-142.65.05-.35v.35l.5.1-.2.85-.35-.95h.05-.05" transform="translate(152.25 227.15)"/><path fill-rule="evenodd" fill="#645002" d="m56.9-143 .1-.05.4.5-.5-.1v-.35" transform="translate(152.25 227.15)"/><path fill-rule="evenodd" fill="#655f45" d="M44.05-113.8q6.85-2.2 9.9-5.8 2.8-3.25 2.4-7.65-.75-8.45.05-13.45l.8-1 .2-.85-.4-.5 17.25-14.4.05.1q-9.25 16.35 5.1 21.9l-.05.3-.05.15q-11.35-5.8-21.9-7.55 10.55 1.75 21.9 7.55v.05q-5.25 7.75.45 13.55l-.3.2q-9.5 1.55-9.9 9.35l-.1.3q-13.55-4.4-18.65 2.7-4.35.4-6.85-4.8l.1-.15m35.4-7.4Q67.9-133.5 57.2-141.7q10.7 8.2 22.25 20.5M56.4-140.7q6.95 11.85 13.15 28.85-6.2-17-13.15-28.85" transform="translate(152.25 227.15)"/><path stroke-opacity=".451" stroke-linejoin="round" stroke-linecap="round" stroke="#1b1715" fill="none" d="M44.05-113.8q6.85-2.2 9.9-5.8 2.8-3.25 2.4-7.65-.75-8.45.05-13.45l-.5-1.15m1-1.15.1-.05 17.25-14.4.2-.2-.15.3q-9.25 16.35 5.1 21.9m-.05.3-.05.2q-5.25 7.75.45 13.55l.15.15-.45.05q-9.5 1.55-9.9 9.35l-.05.3v.05l-.05-.05q-13.55-4.4-18.65 2.7-4.35.4-6.85-4.8l-.05-.05-.1-.25M56.9-143l-.1.35-.15.55-.25-.3m0 1.7.25-1.4" transform="translate(152.25 227.15)"/><path stroke-opacity=".451" stroke-linejoin="round" stroke-linecap="round" stroke="#1b1715" fill="none" d="m75.95-158.9-.4-2.15-.75.5-21.85 15.15.95 19.45-1.45 5.25-6.75 4.2-4.4 1.15m34.65-43.55-1.65 1.55" transform="translate(152.25 227.15)"/><path stroke-opacity=".302" stroke-linejoin="round" stroke-linecap="round" stroke="#000" fill="none" d="m43.8-113.95.25.15" transform="translate(152.25 227.15)"/><path stroke-opacity=".271" stroke-linejoin="round" stroke-linecap="round" stroke="#1b1715" fill="none" d="M79.3-135v.05m-22.5-7.7h.1l.5.1q10.55 1.75 21.9 7.55m-22.65-7.1.55.4q10.7 8.2 22.25 20.5m-9.9 9.35q-6.2-17-13.15-28.85" transform="translate(152.25 227.15)"/><path fill-rule="evenodd" fill="#94a48e" d="m28.15 21.9.1.1-.1.1v-.2m3.1-79.15.35-.2-.35.2v-.2h.35v.15l-.35.05M22.3.9h.05l-.05.25V.9" transform="translate(152.25 227.15)"/><path fill-rule="evenodd" fill="#d3cfba" d="m29.8-89 .45 3.25 1 28.3v.2l.35 7.85-3.65 31.2L25.1-.95l-4.45.1-3.95 2.2.05.15L22.3.9v.25q2.55.7 5.45 2.95l1.15 5.45q1.7 4.55 5.1 8.5l5.8 2.5.35 2.2q-1.9 1.5-1.8 4.1l-3.5-.45-1-2.95-3.45-2.3q-1.5-.85-2.25.75l-.05-.15.05.35-1.9-3.2-3.45-.75 4.05 7.8q1.65 4.4 2.3 8.45l-.45 1.55q-2.35.4-2.55 3.7l-3.9-.95-.2-6.6-3.35-9.2-.15-.5-.15-.05-.85-2.65.85 2.65q-1.6-1.95-2.2-.5h-.15V19.4l-3-1.3-.5 2.3-1.9 5.25.6 7.75-1.4 3.85q-.2-3.45-1.9-4.85-1.85-.15-3.45 2.7l-.15.6-2.75-2.2.05-.8 3.9-9.85.05-.45q.7-2.6-1.35-5l2.5-1q-3-1.95-6.55-1.7-4.45 5.55-9.75 9.25l-4.65.15V24l-1.35-3.4.2-.25.4-.5 2.1-2.4.3-.25 6.1-3.35 5.85-7L7.85-.7l8.5-29.55L25.4-58l-2.35-30.9.05-.45 6.7.35M7.55.25l.3-.95-.3.95m21.85-54.3.75-.85.65 2.15-2.4 1.45-1-3.9 3.85-2.05-3.85 2.05 1 3.9 2.4-1.45-.65-2.15-.75.85M16.15 1.6l.6-.1-.6.1M30.4 21.15l-.65-2.25.65 2.25m-23.05-2L5.6 22.4l1.75-3.25" transform="translate(152.25 227.15)"/><path fill-rule="evenodd" fill="#9e9772" d="m31.25-57.45-1-28.3L29.8-89l2.9.1 1.05 46.8-1 21.9-.5 3.25Q30.6-6.2 29.85 2.3l-.1.3Q26.1 1.05 22.35.9q3.75.15 7.4 1.7l.05.05.25.1 4.55 9.45 3.8 5.2 3.8 1.9 1.6 5.45q.75 3.25-.6 4.1 0-2.1-.45-3.8l-.7-2.1-1.7-.35-.2.15-.35-2.2-5.8-2.5q-3.4-3.95-5.1-8.5L27.75 4.1q-2.9-2.25-5.45-2.95l.05-.25h-.05l-5.55.6-.05-.15 3.95-2.2 4.45-.1 2.85-17.25 3.65-31.2-.35-7.85.35-.05v-.15h-.35m10.05 87.8-.35.3q-2.7.75-4.85-.7l-1.25-3.55 3.5.45V27l.1.1 2.85 3.25M28.25 22q1.4 2.95 3.85 9.4l2.15 5.7q-.25 3.1-2.9 5.4l.05-4.65q-1.25-1.65-2.35-1.95l-.35.05.45-1.55q-.65-4.05-2.3-8.45l-4.05-7.8 3.45.75 1.9 3.2.1-.1m.25 20.9-.15.15q-3.5.6-6.05-3.25l-.05-1.1 3.9.95 2.35 3.25M16 22.25l-2.2 6.45.5 9.4q-2.85 4.1-7.4 2.9l2.95-3.4v-.35l1.4-3.85-.6-7.75 1.9-5.25.5-2.3 3 1.3v2.45l-.05.4M4.05 39.05Q1.65 36.7 1.6 33.5l2.75 2.2q-.35 1.7-.3 3.35m.2-21.65-1.7 1-6.4 7.6v.5q-4.05 2-9.6-1l-.15.05-.1-.3-.5-1.15 4.65-.15q5.3-3.7 9.75-9.25 3.55-.25 6.55 1.7l-2.5 1M31.85-55l-.25-2.3.25 2.3" transform="translate(152.25 227.15)"/><path fill-rule="evenodd" fill="#efebe4" d="m43.2 28.85.35 4.55-2.25-3.05-2.85-3.25-.1-.1v-.15q-.1-2.6 1.8-4.1l.2-.15 1.7.35.7 2.1q.45 1.7.45 3.8M31.35 42.5 30.7 46l-2.2-3.05v-.05l-2.35-3.25q.2-3.3 2.55-3.7l.35-.05q1.1.3 2.35 1.95l-.05 4.65M6.9 41l-1.75 3.3q-1.05-2.5-1.1-5v-.25q-.05-1.65.3-3.35l.15-.6q1.6-2.85 3.45-2.7 1.7 1.4 1.9 4.85v.35L6.9 41m-20.6-15.75-.7.25q-3.35.35-6.55-3.1l5.6-2.05-.2.25 1.35 3.4v.1l.5 1.15" transform="translate(152.25 227.15)"/><path stroke-opacity=".541" stroke-linejoin="round" stroke-linecap="round" stroke="#1b1715" fill="none" d="M23.05-88.9 25.4-58l-9.05 27.75L7.85-.7l-.3.95M32.7-88.9l1.05 46.8-1 21.9-.5 3.25Q30.6-6.2 29.85 2.3l.2.45 4.55 9.45 3.8 5.2 3.8 1.9 1.6 5.45q.75 3.25-.6 4.1l.35 4.55-2.25-3.05-2.85-3.25-.1-.1v-.15q-.1-2.6 1.8-4.1l.2-.15 1.7.35.7 2.1q.45 1.7.45 3.8m-2.25 1.8q-2.7.75-4.85-.7l-1.25-3.55-1-2.95-3.45-2.3q-1.5-.85-2.25.75l.1.1q1.4 2.95 3.85 9.4l2.15 5.7q-.25 3.1-2.9 5.4L30.7 46l-2.2-3.05v-.05m-.15.15q-3.5.6-6.05-3.25l-.05-1.1-.2-6.6-3.35-9.2-.3-.55q-1.6-1.95-2.2-.5l-.2.4-2.2 6.45.5 9.4q-2.85 4.1-7.4 2.9l-1.75 3.3q-1.05-2.5-1.1-5v-.25Q1.65 36.7 1.6 33.5l.05-.8 3.9-9.85.05-.45q.7-2.6-1.35-5l-1.7 1-6.4 7.6m0 .5q-4.05 2-9.6-1m-.95 0q-3.35.35-6.55-3.1l5.6-2.05.4-.5m2.4-2.65 6.1-3.35 5.85-7L7.85-.7M31.6-57.45l-.35.2-3.85 2.05 1 3.9 2.4-1.45-.65-2.15-.75.85m2.2-3.25v-.15M16.75 1.5 22.3.9h.05q3.75.15 7.4 1.7l.05.05.25.1m-.2-.45-.05.35m1.8-59.95.25 2.3M16.75 1.5l-.6.1M28.7 35.95l.35-.05q1.1.3 2.35 1.95l-.05 4.65M18.4 22.35l.15.05.15.5m-1.15-3.2.85 2.65m9.75-.45-.05-.15.05.35v-.2m0 .2-1.9-3.2m2.45 17.05q-2.35.4-2.55 3.7l2.35 3.25m1.25-24 .65 2.25M6.75 16.4l-2.5 1m1.35 5 1.75-3.25m8.7 2.7-.05.4m.05-2.85v2.45m-6.2 15.4q-.2-3.45-1.9-4.85-1.85-.15-3.45 2.7l-.15.6q-.35 1.7-.3 3.35M6.9 41l2.95-3.4v-.35" transform="translate(152.25 227.15)"/><path stroke-opacity=".541" stroke-linejoin="round" stroke-linecap="round" stroke="#1b1715" fill="none" d="m-13.6 25.55-.1-.3-.5-1.15m-.75-4.25 2.1-2.4M-14.2 24l-1.35-3.4.2-.25" transform="translate(152.25 227.15)"/></g></defs><path fill="none" d="M-1-1h305v279H-1z"/><use x="154.264" y="227.924" xlink:href="#k" width="381" transform="translate(-192.55 -294)" height="381"/><use x="-40.263" y="20.132" xlink:href="#l" width="51.75" transform="rotate(26.565 -358.656 202.97) scale(.44632)" height="74.15"/><use x="-41.198" y="-125.852" xlink:href="#l" width="51.75" transform="matrix(.4109 -.0692 .0723 .4399 38.042 237.385)" height="74.15"/><use x="-44.832" y="4.538" xlink:href="#l" width="51.75" transform="matrix(.4436 .0449 -.0449 .4436 42.556 178.874)" height="74.15"/><use x="368.315" y="305.315" xlink:href="#l" width="51.75" transform="rotate(16.256 66.96 -485.528) scale(.5753)" height="74.15"/><use x="154.264" y="227.924" xlink:href="#m" width="299.4" transform="translate(-152.25 -227.15)" height="273.65"/><use x="-20.908" y="-39.652" xlink:href="#n" width="102.95" transform="matrix(1.8072 0 0 1.6538 100 70.3)" height="45"/></svg>