<svg width="349" height="270" xmlns="http://www.w3.org/2000/svg" xmlns:xlink="http://www.w3.org/1999/xlink"><defs><radialGradient spreadMethod="pad" r="819.2" id="k" gradientUnits="userSpaceOnUse" gradientTransform="matrix(.0663 -.0131 .0036 .0143 3.15 -135.3)" cy="0" cx="0"><stop stop-opacity=".38" stop-color="#af0303" offset=".129"/><stop stop-opacity="0" stop-color="#620d0d" offset=".784"/></radialGradient><radialGradient spreadMethod="pad" r="819.2" id="l" gradientUnits="userSpaceOnUse" gradientTransform="matrix(.0248 .0017 .0014 .0151 52.55 -141.7)" cy="0" cx="0"><stop stop-opacity=".243" stop-color="#f00707" offset="0"/><stop stop-opacity=".122" stop-color="#ba0909" offset=".408"/><stop stop-opacity="0" stop-color="#620d0d" offset="1"/></radialGradient><radialGradient spreadMethod="pad" r="819.2" id="m" gradientUnits="userSpaceOnUse" gradientTransform="matrix(-.0248 .0017 -.0014 .0151 -35.6 -123.05)" cy="0" cx="0"><stop stop-opacity=".243" stop-color="#f00707" offset="0"/><stop stop-opacity=".122" stop-color="#ba0909" offset=".408"/><stop stop-opacity="0" stop-color="#620d0d" offset="1"/></radialGradient><radialGradient spreadMethod="pad" r="819.2" id="n" gradientUnits="userSpaceOnUse" gradientTransform="matrix(.0201 .0137 -.0066 .016 14.95 -185.25)" cy="0" cx="0"><stop stop-opacity=".933" stop-color="#fade9e" offset="0"/><stop stop-opacity="0" stop-color="#fff" offset=".745"/></radialGradient><radialGradient spreadMethod="pad" r="819.2" id="o" gradientUnits="userSpaceOnUse" gradientTransform="matrix(.0118 .0333 -.0151 .0075 123.6 -29.45)" cy="0" cx="0"><stop stop-opacity=".933" stop-color="#fade9e" offset="0"/><stop stop-opacity="0" stop-color="#fff" offset=".745"/></radialGradient><radialGradient spreadMethod="pad" r="819.2" id="s" gradientUnits="userSpaceOnUse" gradientTransform="matrix(-.0088 .0244 -.0082 -.0011 97.8 -41.35)" cy="0" cx="0"><stop stop-opacity=".502" stop-color="#fade9f" offset="0"/><stop stop-opacity="0" stop-color="#fffefc" offset=".667"/><stop stop-opacity="0" stop-color="#fff" offset="1"/></radialGradient><radialGradient spreadMethod="pad" r="819.2" id="t" gradientUnits="userSpaceOnUse" gradientTransform="matrix(-.0147 .02 -.0108 -.0024 75.15 -24.35)" cy="0" cx="0"><stop stop-opacity=".502" stop-color="#fade9f" offset="0"/><stop stop-opacity="0" stop-color="#fffefc" offset=".667"/><stop stop-opacity="0" stop-color="#fff" offset="1"/></radialGradient><radialGradient spreadMethod="pad" r="819.2" id="u" gradientUnits="userSpaceOnUse" gradientTransform="matrix(-.0271 .008 -.0075 -.0082 34.7 -4.15)" cy="0" cx="0"><stop stop-opacity=".502" stop-color="#fade9f" offset="0"/><stop stop-opacity="0" stop-color="#fffefc" offset=".667"/><stop stop-opacity="0" stop-color="#fff" offset="1"/></radialGradient><radialGradient spreadMethod="pad" r="819.2" id="v" gradientUnits="userSpaceOnUse" gradientTransform="matrix(-.0222 -.0118 -.0002 -.0111 -40.1 -13.5)" cy="0" cx="0"><stop stop-opacity=".502" stop-color="#fade9f" offset="0"/><stop stop-opacity="0" stop-color="#fffefc" offset=".667"/><stop stop-opacity="0" stop-color="#fff" offset="1"/></radialGradient><radialGradient spreadMethod="pad" r="819.2" id="w" gradientUnits="userSpaceOnUse" gradientTransform="matrix(.0225 .0188 -.0079 .0141 -19.45 -13.4)" cy="0" cx="0"><stop stop-opacity=".6" stop-color="#593f05" offset=".02"/><stop stop-opacity="0" stop-color="#110a00" offset=".667"/><stop stop-opacity="0" stop-color="#fff" offset="1"/></radialGradient><radialGradient spreadMethod="pad" r="819.2" id="x" gradientUnits="userSpaceOnUse" gradientTransform="matrix(.0195 .0159 -.0042 .0119 46.3 -15.95)" cy="0" cx="0"><stop stop-opacity=".6" stop-color="#593f05" offset=".02"/><stop stop-opacity="0" stop-color="#110a00" offset=".667"/><stop stop-opacity="0" stop-color="#fff" offset="1"/></radialGradient><radialGradient spreadMethod="pad" r="819.2" id="y" gradientUnits="userSpaceOnUse" gradientTransform="matrix(-.0009 .0249 -.0094 -.0001 85.55 -36.75)" cy="0" cx="0"><stop stop-opacity=".702" offset=".02"/><stop stop-opacity="0" stop-color="#110a00" offset=".667"/><stop stop-opacity="0" stop-color="#fff" offset="1"/></radialGradient><radialGradient spreadMethod="pad" r="819.2" id="z" gradientUnits="userSpaceOnUse" gradientTransform="matrix(.003 .0186 -.0066 .0012 103.25 -56.4)" cy="0" cx="0"><stop stop-opacity=".702" offset=".02"/><stop stop-opacity="0" stop-color="#110a00" offset=".667"/><stop stop-opacity="0" stop-color="#fff" offset="1"/></radialGradient><radialGradient spreadMethod="pad" r="819.2" id="A" gradientUnits="userSpaceOnUse" gradientTransform="matrix(.0134 .0292 -.0101 .0049 -28.75 -18.85)" cy="0" cx="0"><stop stop-opacity=".702" offset=".02"/><stop stop-opacity="0" stop-color="#110a00" offset=".667"/><stop stop-opacity="0" stop-color="#fff" offset="1"/></radialGradient><radialGradient spreadMethod="pad" r="819.2" id="B" gradientUnits="userSpaceOnUse" gradientTransform="matrix(-.0002 .0289 -.0141 -.0023 -58.7 -37.8)" cy="0" cx="0"><stop stop-opacity=".702" offset=".02"/><stop stop-opacity="0" stop-color="#110a00" offset=".667"/><stop stop-opacity="0" stop-color="#fff" offset="1"/></radialGradient><radialGradient spreadMethod="pad" r="819.2" id="C" gradientUnits="userSpaceOnUse" gradientTransform="matrix(-.032 .0273 -.0123 -.013 -106.2 -123.95)" cy="0" cx="0"><stop stop-opacity=".933" stop-color="#fade9e" offset="0"/><stop stop-opacity="0" stop-color="#fff" offset=".745"/></radialGradient><radialGradient spreadMethod="pad" r="819.2" id="D" gradientUnits="userSpaceOnUse" gradientTransform="matrix(-.0237 .026 -.0112 -.0132 -69.85 -153.55)" cy="0" cx="0"><stop stop-opacity=".933" stop-color="#fade9e" offset="0"/><stop stop-opacity="0" stop-color="#fff" offset=".745"/></radialGradient><radialGradient spreadMethod="pad" r="819.2" id="E" gradientUnits="userSpaceOnUse" gradientTransform="matrix(-.0137 .0147 -.0049 -.0065 -178.6 -62.05)" cy="0" cx="0"><stop stop-opacity=".933" stop-color="#fade9e" offset="0"/><stop stop-opacity="0" stop-color="#fff" offset=".745"/></radialGradient><radialGradient spreadMethod="pad" r="819.2" id="F" gradientUnits="userSpaceOnUse" gradientTransform="matrix(-.0227 .0143 -.0078 -.0114 -18.6 -188.3)" cy="0" cx="0"><stop stop-opacity=".933" stop-color="#fade9e" offset="0"/><stop stop-opacity="0" stop-color="#fff" offset=".745"/></radialGradient><radialGradient spreadMethod="pad" r="819.2" id="G" gradientUnits="userSpaceOnUse" gradientTransform="matrix(-.0425 -.0052 -.0009 -.0139 106.1 -185.8)" cy="0" cx="0"><stop stop-opacity=".933" stop-color="#fade9e" offset="0"/><stop stop-opacity="0" stop-color="#fff" offset=".745"/></radialGradient><radialGradient spreadMethod="pad" r="819.2" id="H" gradientUnits="userSpaceOnUse" gradientTransform="matrix(-.0631 -.0071 .0032 -.024 69.4 -90.2)" cy="0" cx="0"><stop stop-opacity=".624" stop-color="#ffefb2" offset="0"/><stop stop-opacity="0" stop-color="#fff" offset="1"/></radialGradient><linearGradient y2=".291" y1=".291" x2="2.28" x1="1.339" spreadMethod="pad" id="a"><stop stop-opacity=".643" stop-color="#694420" offset="0"/><stop stop-opacity="0" stop-color="#54411b" offset=".51"/></linearGradient><linearGradient y2="-54.997" y1="-54.997" x2="130.808" x1=".392" spreadMethod="pad" id="b"><stop stop-opacity=".643" stop-color="#434345" offset="0"/><stop stop-opacity="0" stop-color="#fff" offset="1"/></linearGradient><linearGradient y2=".894" y1=".695" x2=".534" x1=".525" spreadMethod="pad" id="c"><stop stop-opacity=".8" stop-color="#694320" offset=".125"/><stop stop-opacity="0" stop-color="#54411b" offset="1"/></linearGradient><linearGradient y2=".471" y1=".228" x2=".555" x1=".293" spreadMethod="pad" id="d"><stop stop-opacity=".643" stop-color="#694420" offset=".125"/><stop stop-opacity="0" stop-color="#54411b" offset="1"/></linearGradient><linearGradient y2=".446" y1=".214" x2=".418" x1=".849" spreadMethod="pad" id="e"><stop stop-opacity=".733" stop-color="#b01111" offset="0"/><stop stop-opacity=".322" stop-color="#600" offset="1"/></linearGradient><linearGradient y2=".702" y1=".247" x2=".318" x1=".826" spreadMethod="pad" id="f"><stop stop-opacity=".733" stop-color="#b01111" offset="0"/><stop stop-opacity=".322" stop-color="#600" offset="1"/></linearGradient><linearGradient y2=".483" y1=".396" x2=".545" x1=".772" spreadMethod="pad" id="g"><stop stop-opacity=".733" stop-color="#b01111" offset="0"/><stop stop-opacity=".322" stop-color="#600" offset="1"/></linearGradient><linearGradient y2=".519" y1=".602" x2=".475" x1=".229" spreadMethod="pad" id="h"><stop stop-opacity=".733" stop-color="#b01111" offset="0"/><stop stop-opacity=".322" stop-color="#600" offset="1"/></linearGradient><linearGradient y2=".584" y1=".414" x2=".886" x1=".308" spreadMethod="pad" id="i"><stop stop-opacity=".733" stop-color="#b01111" offset="0"/><stop stop-opacity=".322" stop-color="#600" offset="1"/></linearGradient><linearGradient y2=".375" y1=".63" x2=".298" x1=".668" spreadMethod="pad" id="j"><stop stop-opacity=".643" stop-color="#694420" offset="0"/><stop stop-opacity="0" stop-color="#54411b" offset=".51"/></linearGradient><linearGradient y2="1.115" y1=".141" x2="1.002" x1=".316" spreadMethod="pad" id="p"><stop stop-opacity=".643" offset=".161"/><stop stop-opacity="0" stop-color="#fff" offset=".4"/><stop stop-opacity=".643" offset=".537"/></linearGradient><linearGradient y2=".435" y1=".788" x2=".482" x1=".431" spreadMethod="pad" id="q"><stop stop-opacity=".643" stop-color="#694420" offset="0"/><stop stop-opacity="0" stop-color="#54411b" offset=".51"/></linearGradient><linearGradient y2=".444" y1=".567" x2=".507" x1=".834" spreadMethod="pad" id="r"><stop stop-opacity=".643" offset=".161"/><stop stop-opacity="0" stop-color="#fff" offset=".4"/><stop stop-opacity=".643" offset=".537"/></linearGradient><path fill-rule="evenodd" fill-opacity="0" fill="#f0f" d="M100 40H0V0h100v40" id="I"/><use xlink:href="#I" width="100" height="40" id="K"/><g id="J"><path stroke-opacity="0" stroke-linejoin="round" stroke-linecap="round" stroke="#f0f" fill="none" d="M187.95-293.5v380h-380v-380h380" transform="translate(192.55 294)"/><path stroke-opacity="0" stroke-linejoin="round" stroke-linecap="round" stroke="#f0f" fill="none" d="m187.95-293.5-190 190 190 190m-380-380 190 190L-192 86.5M92.95-38.4H-97" transform="translate(192.55 294)"/><path fill-rule="evenodd" fill="#b8bec7" d="m-20.8-226.35 1-.5.8 1.85.8-.15h.05l.55 1.95v4.7l-.5-.25-.95-3.7-1.75-3.9m6-2.65 3.3-1.15 2.05 3.8.1.05 2.65-.25.05-.05.8-4.4.15-.65 4.05-.75v.05l-4.2 1.35v8.15l-2.15-3.5-2.25 5.5-.65-6.45-3.9-1.7m16.2-3.75 1.2-.15.6-.05L8-230.5l1.75-.1 1.4 2.1 7.9-1.7.15.2.45.65-8.5 1.65-4.75-2.65v5.3l-5-7.7m.35 2.75.25 1.7L.2-224l-1.8-8.25 1.3 4.1.05.05 2.2-.2-.2-1.7" transform="translate(192.55 294)"/><path fill-rule="evenodd" fill="#5e636a" d="m20.25-228.3.2.25-3.05 6.6-1.95-5.1-1.75.3-.2 6.35-1.85.85-.5-4.7h-1.8l-.65 4-2.5 2-2.25-7.9-2.6 1.4-.15 6.3-2.3.55-2.45-6.6-2.25 9-1.7-8.45-.65 9.7v.2l-1.8.8-2.1-6.6-2.75 2.45-2.8-1.6v-4.7l-.55-1.95 2.6-.45.75-3.4 3.9 1.7.65 6.45 2.25-5.5 2.15 3.5V-231l4.2-1.35.05.1L.2-224l1.8-4.3-.25-1.7-.35-2.75 5 7.7v-5.3l4.75 2.65 8.5-1.65.6 1.05m-42.7 2.8 1.65-.85 1.75 3.9.95 3.7-.8-.5-2.65 2.35-.9-8.6m34.55-7.6.85.05 2 3.25.2-.05 3.9-.35-7.9 1.7-1.4-2.1 1.6-.05.75-2.45" transform="translate(192.55 294)"/><path fill-rule="evenodd" fill="#282d34" d="m-19.8-226.85 5-2.15-.75 3.4-2.6.45h-.05l-.8.15-.8-1.85m8.3-3.3.7-.2 5.1-1.3-.15.65-.8 4.4-.05.05-2.65.25-.1-.05-2.05-3.8m9.85-2.25 3.05-.35.35 2.75.2 1.7-2.2.2-.05-.05-1.3-4.1-.05-.1v-.05m4.85-.55q4.35-.35 8.9-.15l-.75 2.45-1.6.05-1.75.1-4.8-2.45m9.75-.1 4 .3 2.1 2.55-3.9.35-.2.05-2-3.25" transform="translate(192.55 294)"/><path fill-rule="evenodd" fill="#161b22" d="M20.45-228.05q4.5 8.05.45 17.3l-7.8 3.25-14.9-3.8h-.05l-11.95 6.05-4.05 1.6q-10.7-5.05-5.6-21.3l1-.55.9 8.6 2.65-2.35.8.5.5.25 2.8 1.6 2.75-2.45 2.1 6.6 1.8-.8v-.2l.65-9.7 1.7 8.45 2.25-9 2.45 6.6 2.3-.55.15-6.3 2.6-1.4 2.25 7.9 2.5-2 .65-4h1.8l.5 4.7 1.85-.85.2-6.35 1.75-.3 1.95 5.1 3.05-6.6" transform="translate(192.55 294)"/><path fill-rule="evenodd" fill="#9f0000" d="m13.1-207.5 1.3 4.35h1.65l2.1 5.1q-4.9-1.5-10.75-1.2l-5.9.65-.8.15-1.4-3.7H.5l6.65-1.2-7.55-2.95v.05l-.4-.15-.8.4-.2-5.3 14.9 3.8m1.3 4.35h-2.15 2.15" transform="translate(192.55 294)"/><path fill-rule="evenodd" fill="#8d0000" d="m-.4-206.3 7.55 2.95-6.65 1.2h-9.85L-1.6-206l.8-.4.4.15v-.05" transform="translate(192.55 294)"/><path fill-rule="evenodd" fill="#ffdda8" d="M18.15-198.05q2.9.9 5.75 2.7l2.3-1.9q-2.5 5.7 3.25 8.1l.4.5q1.75 4.45 8.95 3.55-1.1 4.2 3.15 7.65l1.75 1.25-.1.1.3.2v.05q13.2 22.2 6.65 25.9l1.05 1.85-2.75-.05-2.65-.2q4.5-4.6-2.15-11.2l-.6-.65-.4-.45q-6.45-7.6-17.3-13.1l-.15-1.2q.65-.7.65-1.7 0-1.05-.65-1.75l-.55-.4q2.25-1-1.05-7.6l-.85-1.1Q14.4-198.3-.1-198.3l.8-.15.8-.15 5.9-.65q5.85-.3 10.75 1.2m5.75 2.7-1.05 1 1.05-1m12.55 54.75 6.4-1.9 4.8-4.55 4.15-.75q12.75 3.95 16.4 24-9.4-21.9-31.75-16.8m-37.75-6.25-.7 5.35q0-4.75-19.5-13.15 11.25 1.5 20.2 7.8" transform="translate(192.55 294)"/><path fill-rule="evenodd" fill="#b66440" d="m62.6-197.6-2.55 2.9q-4.45-1.55-13.45.4-5.05 1.45-10.05 6.75l5.05.35q-2.7 4.1.35 9.75-4.25-3.45-3.15-7.65-7.2.9-8.95-3.55l-.2-.65q4.8-5.45 14.95-9.3l9.65-.45h.05l8.3 1.45m-90.5 23.8.05.4q.15 4-6.2 7.1l.05.2q-6.85-3.95-15.7-2.45 1.45-1.65 3.35-4.95 10.8-5.2 18.45-.3m-6 10-.05.15q-.4 2.55-3.05 3.95h-.05q-.75-4.05-4.15-6.75l7.3 2.65" transform="translate(192.55 294)"/><path fill-rule="evenodd" fill="#ffd09b" d="m133.5-176.8 1.55 1.25 4.7 7 12.4 9.1q.55 36.5-6.5 70l-.25 1.15 1.05 4.3L153-67.6l-1.05 1.35-7.85-9.95-.65 2.15q-2.15 1.25-4.85 1.45l-3.45 16.9-1.95.4-3.25-13.9-1.1 5.25-2.3 7.95-6.35-17.3-1.6-1.3q-.45-5.4-.25-11.4l3.55-1.75.05-6.35 6.95-19.4.65-20.75-9.65 14.1-.4.2q-16.4 7.9-27.05-1.35 2.9 2.9 5.05 7.95 1.3 3.05-.9 5.1l-.8.6q-2.3 1.55-7 2.45-13.45.4-24 2.35l-3.15.8-4.1 1.1-17.8 6.55-4.45.4h23.35q17.4 1.85 25.2 5.8l6.2 6.15q10.2 21.7-42.6 55.6L38-23.75q-8.9 2.15-18.95 3.7-26.3 1.1-48.3-8.75l-2.05-.95-11.35-8.65-3.15-2.45q-10.5-10.85-3.3-26.8Q-35.4-83.5-16.35-87.7l2.45.1L25.45-96l12.8-4.8q6.45-7.25 17.45-9.5l17.15-11.2q3.45-3.25-.9-7.4l-3.45-4.55q-1.45-4.15-4.8-8.8L63-159.9l-4.8-12.05 6.9-7.2q7.3 1.25 15.65 5.1 12.2 8.3 20 16.85-1.25-5.75-10.05-17.95 8.8-7.8 42.8-1.65m-20.85 98.85-2.05-.35.05-.05h.35l1.65.4M-183.9-52.6q-1.25-2-.55-5.75l.75-.75 6.5-1.65.3-.1 10-11.35q-1.35-2.25-1.7-5.05-.25-2.15.1-4.6l9.4.3 1.55 10.15h-8.85v2.25h6.95l.4-.5.55 6.1-7.9.75v-6.35 4.05l-7.25 8.35-10.25 4.15m93.05-84.4 5.6-2.05 3.8-1.15 10.55-2.95q2.25-9.15 19.15-23.15l.1-.05 1.95-2.2q5.5 1.65 9 6.65 0 5.1-1.35 10.9l-6.75 25.85-18.8 3.95q-17.95 25-40.4 36.1-14.5 15-28.55 21.6l1.3 6.35-10.85-6.35-5.6-8.95-1.1-2.3 3.75-.3-.85-8.7 6.05 2.3 3.25-13.15.35-.4q13.25-15.2 35.1-27.65l2.25-.5q0-5.85 12.05-13.85M-.1-198.3q14.5 0 23.25 10.8l.85 1.1q3.3 6.6 1.05 7.6l-1.15-.3q-.7 0-1.25.35l-.45.35q-.7.7-.7 1.75 0 1 .7 1.7t1.7.7l1.25-.3.45-.4.15 1.2q10.85 5.5 17.3 13.1l.4.45.6.65q6.65 6.6 2.15 11.2-9.35-.95-16.55-5.4l4.2-1.45-4.2 1.45q-9.2 3.6-14.2 9-5.8 6.2-9.85 8.5l-.5.25q-3.9-3.55-3.25-10.3-4.35 9.55.75 10.45l-4.45.3-.45.05q-12.1-1.35-20.75-9.5l-1.3.9-2.3-3.55-1.8-2.75q-5.1-2.75-.4-13.05 1.35-11.9 5.95-18.15 7.05-10.6 20.85-16.25l1.95-.45m29.95 9.65-.4-.5.2-.15.2.65m-2.25 23.9q-11.3 2.05-21.35 11.8 11.25-8.55 21.35-11.8m-16.9 34.1 1.55-.6q14.1.7 24.4 8.85-7.05-7.9-21.05-10.7l6.95-3.35 13.9-4.15q22.35-5.1 31.75 16.8l.15.75q-6.8 7.05-35.95 8.85l-.75-.95q-11.25-11.3-20.95-15.5m-35.1-13.45-10.25 7.15-.55-.35q.9-4.4 10.8-6.8m2.35 37.45q-10.3 5.75-15.65 6.05-8.3-15.2-1.55-24.5 6-2.95 18.05-2.5l7.1.3q-9.75 7.3-11.95 14.95 5-8.45 16.5-14.55l2.05-.25-1.5 1.45q-7.65 7.8-13.1 18.9l.05.15m-27.7 21.1 2.1-.05-2.1.25v-.2m113.3-17.1 1.25-.2-1.25.2-.7.15-2 .4.75-.15h.05l1.9-.4m67 91.5-4.7 4.45Q121.4 4 110.75 11.65q-2.15-1.4-4.9.35L108.5.35q-9.95-13.1-20.4-20.7l11.75-7.15 4.6-5.95-.2-4.6 3.8-1.2 1.4-9.5q14.65 13.75 21.1 37.6m-5.9-59.95-.2 3.15 5.3-.55-.15-1.2.65-3.65q-2.35 2.05-5.6 2.25M120.55-4l3.6-4.55L116-5.2l-3.1 4.25L120.55-4M-166.4-71.4l-.5-.8.5.8M-23.05-145l-2.8-2.9-.8.25.8-.25 2.8 2.9m21.75-1.85q-8.95-6.3-20.2-7.8Q-2-146.25-2-141.5l.7-5.35M-69.15 14.9v.05l-.55-.05h.55m46.45-95.2 58.9-10.35Q11.75-92.1-22.7-80.3" transform="translate(192.55 294)"/><path fill-rule="evenodd" fill="#c99a76" d="M26.2-197.25q2.7-2 5.95-3.45 12.25-1.15 22.15 1.65h-.05l-9.65.45q-10.15 3.85-14.95 9.3l-.2.15q-5.75-2.4-3.25-8.1m125.75 131-1.45.3q-4.8-1.95-7.7-6.2l.65-1.85v-.05l.65-2.15 7.85 9.95M133.2-55.3l-2.2-.6-2.15-8.05 1.1-5.25 3.25 13.9m-6.65-.7q-2.25 1.15-4 .65-3.15-8.4-3.95-19.25l1.6 1.3 6.35 17.3m-4.3.55q-1.15-.45-2.1-1.6l-.25-.45q1.1 1.3 2.35 2.05M-31.3-29.75l-.9-.45h-.05q-7.4-3.65-13.65-8.25-4.7-3.45-8.7-7.4-6.55-6.45-11.5-14.3l-.85-1.5v-.05q-5.45-9.9-.6-20.6 1.85-4.1 5.2-8.3.55 5.7 9.3 5.55l2.15-.15 1.15-.15 2.1-.25-2.1.05q-8.6-.35-5.3-20.45l4.55-6.65q.6-9.6 1.7-12.5l6.75-25.85q1.35-5.8 1.35-10.9l1.75 2.95.55 1.15q-1.9 1.8-2.75 6.2l-.4 2.6q-.7 7 .35 14.3-9.4 13.6-1.8 31.55 1.3 2.75 5.3 2.55-4 .2-5.3-2.55-7.6-17.95 1.8-31.55-1.05-7.3-.35-14.3l.4-2.6q.85-4.4 2.75-6.2l-.55-1.15 1.9-.75h.05q2.65-1.4 3.05-3.95l.05-.15q.1-1.05-.1-2.3l-.05-.2q6.35-3.1 6.2-7.1l-.05-.4q-7.65-4.9-18.45.3-1.9 3.3-3.35 4.95l-1.95 2.2-.1.05q-1.7.95-3.65.7-2.3-3.5-.9-8.4 8.75-6.05 17.15-6.25l9.45.6q1.6-4.9 11.55-12.45 3.9-1.8 7.55-3.15 4.45-1.65 8.55-2.6-13.8 5.65-20.85 16.25-4.6 6.25-5.95 18.15-4.7 10.3.4 13.05l1.8 2.75-3.15.95 3.15-.95 2.3 3.55h.05-.1q-9.9 2.4-10.8 6.8l.55.35-3.25 2.35q2.25 4.5 3.45 4.85l-.4.3q-2.7 1.95-4.4 4.35-6.75 9.3 1.55 24.5 5.35-.3 15.65-6.05-1.15 3.1-.1 5.1l1.35 1.5q1.1.8 6.6-.75.1 3.3 13.4 1.15l2.35-.4 1.75-.35 15.5-2.6.5-.1 5.6-.95q9.1-1.65 8.6-3.05 3.45-.75-1.1-7.1 29.15-1.8 35.95-8.85l.4-.5.4-.5q1.05-4.35-.65-9.4l3.45 4.55q4.35 4.15.9 7.4L55.7-110.3q-11 2.25-17.45 9.5L25.45-96l-39.35 8.4-2.45-.1Q-35.4-83.5-49.1-67.65q-7.2 15.95 3.3 26.8l3.15 2.45 11.35 8.65m-101.95-20.5-7.95 2.85q-6.35 6.05-14.8 10.15l-9.05 2.95-2.1-1.15 10.7-4.7 15.3-13.4-7.3-7.6 15.2 5.2-2-1.2-1.3-6.35q14.05-6.6 28.55-21.6 22.45-11.1 40.4-36.1l18.8-3.95q-7.65 14.65-23.65 28.05h.05q-6.95 13.6-40.8 25.45-5.15 9.25-20.05 21.4M-166.8-44l-1.15.7-7.7 1.8-2.45-2 11.15-2.95 1.35-10.4q2.8 4.9 2.65 10.4L-166.8-44m-11.15-8.4-3.9 1.25-2.05-1.45 10.25-4.15 7.25-8.35v2.3l7.9-.75 4.2-.4.05 3.2 3.35 7.2q-9.35-6.9-10.55-5.15l-4.15 1.85-4.15 1.85-8.2 2.6M96.6-108.25q2.2-2.05.9-5.1-2.15-5.05-5.05-7.95 10.65 9.25 27.05 1.35l.4-.2.7-.35v5.55l-3.65 16.5v7.05L114-93.65l-1.9-1.45q-1.5.95-2.7 2.1 1.7-2.15 3.65-4-4.05-6.75-.15-15.25-3.55 3.7-9.9 6.55-5.35.3-6.4-2.55m17.8-5.05-1.5 1.05 1.5-1.05m-49.6 10.45q10.55-1.95 24-2.35 4.7-.9 7-2.45 6.15 10.9 7.65 19.75-4.85-10.85-17.25-14.15H61.65l3.15-.8m39.05 19.05.05-.1-.05.15v-.05m16.75-36.7-2.95 3.85 2.95-3.85m-93-44.25q-10.1 3.25-21.35 11.8 10.05-9.75 21.35-11.8M5.1-136l-2.5.15q-5.1-.9-.75-10.45-.65 6.75 3.25 10.3m-36.3 46.95-4 .9-.3.1-1.05.25-7.25 1.55-3.85.65 3.85-.65 7.25-1.55 1.05-.25.3-.1 4-.9m94.75-13.6-1.9.4h-.05l-.75.15 2-.4.7-.15m49.5 5.65.95 3.35-.95-3.35m7.5 93L112.9-.95 116-5.2l8.15-3.35-3.6 4.55m-279.6-65.65-.4.5h-6.95v-2.25h8.85l-1.5 1.75m129.35-110 2.25.75-2.25-.75m27.85 56.2.05.05h-.05v-.05M-88.8-13.95l5.65 5.2.15.9-1.8-1.1-4-5m27.05 24.1L-80.5-6.35l-.05-.05 14.4-15.1-1.7 6.35.3-1.05-1.95 7.95q-.75 6.1 7.75 16.3l.7.8v1.9l-.7-.6" transform="translate(192.55 294)"/><path fill-rule="evenodd" fill="#feac88" d="m25.05-178.8.55.4q.65.7.65 1.75 0 1-.65 1.7l-.45.4q-.15-3.55-2.5-4.2.55-.35 1.25-.35l1.15.3" transform="translate(192.55 294)"/><path fill-rule="evenodd" fill="#da8864" d="m25.15-174.55-1.25.3q-1 0-1.7-.7t-.7-1.7q0-1.05.7-1.75l.45-.35q2.35.65 2.5 4.2m-31.35 46.2.2-.2 6.1-4.7L14-126q8.1 4.65 14.75 11.9l4.75 7-8.05-.6q-.9 2.3-6.15 4.6l-.5.1-15.5 2.6-1.75.35-2.35.4q-7.5.2-10.7-2l5.1-1.55 11.65-3q10.7-1.8 20.2-1.5-9.5-.3-20.2 1.5l-11.65 3-5.1 1.55-.95.3-1.75.55q-5.5 1.55-6.6.75l-1.35-1.5q4.3-11.8 13.15-24.15l1.5-1.45 1.3-1.2m14.5 5.25-.15.05-1.45.45q-1.2 6.5 7.5 8.9 4 .05 6.45-.15 3.55-.5 3.7-1.6-9.45-9.1-16.05-7.65m-10.1-.3-.05-.05q-5.75-1.25-12.2 13.15l.5 1.25q1.8 2.05 8.75-1.05 6.85-3.3 4.05-12.95l-1.05-.35M60.05-194.7l-2.25 2.65-4.05 5.2-.9 1.2-.25.3q-4.6 5.9-8.4 8.75l-.5.4-1.75-1.25q-3.05-5.65-.35-9.75l-5.05-.35q5-5.3 10.05-6.75 9-1.95 13.45-.4m-99 35.75-1.75-2.95q-3.5-5-9-6.65 8.85-1.5 15.7 2.45.2 1.25.1 2.3l-7.3-2.65q3.4 2.7 4.15 6.75l-1.9.75" transform="translate(192.55 294)"/><path fill-rule="evenodd" fill="#edbe89" d="M110.6-78.3h-.1l-.95-.15 1.1.1-.05.05m-7.05.05-.9 3.4-2.95-7.55-13.45-9.1-20.05-5.05-26.45 2.15 17.8-6.55 4.1-1.1H86.2q12.4 3.3 17.25 14.15l.4 4.1v.05q-.55 2.6-.35 5.55l.05-.05m-270.7 42.8q-1.9-1.25-2.05-4.15l2.4-4.4 3.85-2.45q.15-5.5-2.65-10.4l-1.35 10.4-11.15 2.95-1.7-4.7 1.85-4.2 8.2-2.6 4.15-1.85 4.15-1.85q1.2-1.75 10.55 5.15l-3.35-7.2-.05-3.2-4.2.4-.55-6.1 1.5-1.75-1.55-10.15 5.8-3.5 3.4 1.3.85 8.7-3.75.3 1.1 2.3 5.6 8.95 10.85 6.35 2 1.2-15.2-5.2 7.3 7.6-15.3 13.4-10.7 4.7M43.9-175.85v-.05l-.3-.2.1-.1.5-.4q9.05-4.65 20.9-2.55l-6.9 7.2L63-159.9l.7 17.65q-2.5-3.5-6.1-7.25-.8-16.1-13.7-26.35m36.85 1.8q5.75 2.6 11.95 6.4-.1-1-3.25-6.15l1.25-1.35q8.8 12.2 10.05 17.95-7.8-8.55-20-16.85m36.2 82.65v-7.05l3.65-16.5v-5.55l-.7.35 9.65-14.1-.65 20.75-6.95 19.4-.05 6.35-3.55 1.75.15-4.2-1.55-1.2m-80.5-49.2-13.9 4.15-6.95 3.35q14 2.8 21.05 10.7-10.3-8.15-24.4-8.85l-1.55.6-2.55-1.05 4.75-2.6q17.05-9.1 33.7-12.5l1.05-.25-4.8 4.55-6.4 1.9m-70.9 10.85q13.3-.65 28.25 1.4l-1.3 1.2-2.05.25q-11.5 6.1-16.5 14.55 2.2-7.65 11.95-14.95l-7.1-.3q-12.05-.45-18.05 2.5 1.7-2.4 4.4-4.35l.4-.3M82.1-24.2q7.5-2.15 11.8-6.65 2.65-2.8 4.1-6.5 2.6-3.55 3.85-7.25 3.15-2.75 4.9-6.55l2.7 2.4-1.4 9.5-3.8 1.2.2 4.6-4.6 5.95-11.75 7.15-6-3.85m-235.45-51.6.55 1.05-.55-1.05m1.65 3.35-1.95 8.45-.65.05.65-.05 1.95-8.45m129-7.85q34.45-11.8 58.9-10.35L-22.7-80.3" transform="translate(192.55 294)"/><path fill-rule="evenodd" fill="#fff4bf" d="M32.15-200.7q9.2-3.25 16.15-3.65 8.9 1.6 14.3 6.75l-8.3-1.45q-9.9-2.8-22.15-1.65m25.65 8.65q10.9-1.25 21.6 6.4 31.35-9.1 54.1 8.85-27.5-11.95-48.9-4.65l-.95-.8-.3-.25q-19.15-7.9-30.5-3.15l.9-1.2 4.05-5.2m94.35 32.6q6.15 25.95-2.25 66.15v10.2q3 4.8 3.25 13.5l-.15 2-6.55-16.4-1.05-4.3.25-1.15q7.05-33.5 6.5-70m-9.35 87.3q-1.6 8.35-5.9 15.1l-1.75 1.35 3.45-16.9q2.7-.2 4.85-1.45v.05l-.65 1.85M51.6-148.1l-1.05-1.85q6.55-3.7-6.65-25.9 12.9 10.25 13.7 26.35 3.6 3.75 6.1 7.25 3.35 4.65 4.8 8.8 1.7 5.05.65 9.4l-.4.5-.4.5-.15-.75q-3.65-20.05-16.4-24l1.15-.35-1.35.05m73.05 77q3.25-.2 5.6-2.25l-.65 3.65.15 1.2-5.3.55.2-3.15M79.4-185.65l3.95 3.15-3.95-3.15" transform="translate(192.55 294)"/><path fill-rule="evenodd" fill="#ffe2ad" d="m135.05-175.55 12.7 2.95q2.75 6.05 4.4 13.15l-12.4-9.1-4.7-7m-32.4 100.7v.05q-.6 1.85-1.55 3.6l-2.25 5.55q-5.5 11.9-16.1 20.9-13.5 11.5-35.3 18.3 52.8-33.9 42.6-55.6l-6.2-6.15q-7.8-3.95-25.2-5.8H35.3l4.45-.4 26.45-2.15 20.05 5.05 13.45 9.1 2.95 7.55M-183.7-59.1l9.35-9.8 5.75-8.35q.35 2.8 1.7 5.05l-10 11.35-.3.1-6.5 1.65m15.2-22.75.1-.8q4.7-2 7.2-5.05 4.25-1.2 9.65 0 7.5-11.8 20.25-21 9.8-7.85 19.4-11.7l.3-.15q5.15-10.2 20.75-16.45-12.05 8-12.05 13.85l-2.25.5-6.45 2.1 6.45-2.1Q-127-110.2-140.25-95l-.35.4-3.25 13.15-6.05-2.3-3.4-1.3-5.8 3.5-9.4-.3m83.25-57.2Q-74.4-159.6-55.4-165.6q1.95.25 3.65-.7-16.9 14-19.15 23.15l-10.55 2.95-3.8 1.15m168.9-43.2.95.8q21.4-7.3 48.9 4.65-34-6.15-42.8 1.65l-1.25 1.35q3.15 5.15 3.25 6.15-6.2-3.8-11.95-6.4-8.35-3.85-15.65-5.1-11.85-2.1-20.9 2.55 3.8-2.85 8.4-8.75l.25-.3q11.35-4.75 30.5 3.15l.3.25m23.1 131.1q1.4-3.05 1.95-6.75 21 20.95 21.85 46.75-6.45-23.85-21.1-37.6l-2.7-2.4" transform="translate(192.55 294)"/><path fill-rule="evenodd" fill="#5b3924" d="m46.2-148.35 2.65.2 2.75.05 1.35-.05-1.15.35-4.15.75-1.05.25q-16.65 3.4-33.7 12.5l-4.75 2.6-.3-.05q-4.05-1.4-7.75-1.5l-6.1 4.7-.2.2q-14.95-2.05-28.25-1.4-1.2-.35-3.45-4.85l3.25-2.35 10.25-7.15h.1-.05l1.3-.9q8.65 8.15 20.75 9.5l.45-.05 4.45-.3 2.5-.15.5-.25q4.05-2.3 9.85-8.5 5-5.4 14.2-9 7.2 4.45 16.55 5.4m-23.4 1.5q-4.25 2.45-8.9 7.6l14.25-4.5-5.35-3.1m-47.15 14.35q4.35 1 9.1-.95-5.45-2-10.6-5.5l-4.3 4.55 5.8 1.9" transform="translate(192.55 294)"/><path fill-rule="evenodd" fill="#e79571" d="m8.15-131.7 2.55 1.05q9.7 4.2 20.95 15.5l.75.95q4.55 6.35 1.1 7.1.5 1.4-8.6 3.05l-5.6.95q5.25-2.3 6.15-4.6l8.05.6-4.75-7Q22.1-121.35 14-126L.1-133.25q3.7.1 7.75 1.5l.3.05" transform="translate(192.55 294)"/><path fill-rule="evenodd" fill="#fff" d="m22.8-146.85 5.35 3.1-14.25 4.5q4.65-5.15 8.9-7.6m-47.15 14.35-5.8-1.9 4.3-4.55q5.15 3.5 10.6 5.5-4.75 1.95-9.1.95" transform="translate(192.55 294)"/><path fill-rule="evenodd" fill="#5e261a" d="M20.65-113.85q-12.3-2.1-12.35-9.25 6.6-1.45 16.05 7.65-.15 1.1-3.7 1.6m-34.2 4.8-.5-1.25q6.45-14.4 12.2-13.15v.05q-1.35 8.55-4.85 10.5l-6.85 3.85" transform="translate(192.55 294)"/><path fill-rule="evenodd" fill="#3a0200" d="m8.15-123.05.15-.05q.05 7.15 12.35 9.25-2.45.2-6.45.15-8.7-2.4-7.5-8.9l1.45-.45m-9.95-.35 1.05.35q2.8 9.65-4.05 12.95-6.95 3.1-8.75 1.05l6.85-3.85q3.5-1.95 4.85-10.5h.05" transform="translate(192.55 294)"/><path fill-rule="evenodd" fill="#c99a76" d="m71.3-16.05 8.2-6.8.95-.75.25-.3 1.2-.25.2-.05 6 3.85q10.45 7.6 20.4 20.7L105.85 12l-2.1 1.65q-4.4.85-4.75 4.7l-6.2-1.85 2-14.8q-6.65-10-23.5-17.75m24.05 18.7-.55-.95.55.95M-88.8-13.95l4 5 1.8 1.1-.15-.9-5.65-5.2h-.05l-.65-.25.7.25m19.65 28.85V9Q-84.5 2.65-94-16.2l4.15-7.7q4.65-17.55 19.65-29.45-3 10.9 2.15 19.45l.05.1q1.65 2.8 4.3 5.35l-2.45 6.95-14.4 15.1v.05h.05l18.75 16.5v10q-.35-1.3-1.4-2.15-.65-.6-1.65-.95h-.2l-1.85.35q-.25-2.1-2.25-2.45h-.05v-.05" transform="translate(192.55 294)"/><path fill-rule="evenodd" fill="#282d34" d="M110.75 11.65q6.7 2.7 5 8l-7.2.5-.5.95L99 18.35q.35-3.85 4.75-4.7l2.1-1.65q2.75-1.75 4.9-.35m-2.2 8.5q1-3.1-4.8-6.5 5.8 3.4 4.8 6.5m-177.7-5.2h.05q2 .35 2.25 2.45l1.85-.35h.2q1 .35 1.65.95 1.05.85 1.4 2.15.3 1.05.1 2.4h-.1L-72.4 24q.1-1.55.65-2.75h-4.4q-.6-6.3 6.45-6.35l.55.05m2.3 2.45q-3.65.95-4.9 3.85 1.25-2.9 4.9-3.85" transform="translate(192.55 294)"/><path fill-rule="evenodd" fill="#690000" d="m-10.6-195.25-2.6-3.5 1.85-1.65-2.45-4.85 11.95-6.05h.05l.2 5.3-7.75 3.85H-.7l1.4 3.7-.8.15-1.95.45q-4.1.95-8.55 2.6m-.75-5.15 2-1.75-2 1.75" transform="translate(192.55 294)"/><path fill-rule="evenodd" fill="#b78864" d="M-67.55-82.3q-7.7 7.5-18.35 13l-3.85-1.5q-13.2 4.8-26 7.8-4.2 5.15-10.1 10.1l-7.4 2.65q14.9-12.15 20.05-21.4Q-79.35-83.5-72.4-97.1h-.05q16-13.4 23.65-28.05-1.1 2.9-1.7 12.5l-4.55 6.65q-3.3 20.1 5.3 20.45v.2l-1.15.15-2.15.15q-8.75.15-9.3-5.55-.05-7.15 5.55-13.55l1.75-1.85-1.75 1.85q-5.6 6.4-5.55 13.55-3.35 4.2-5.2 8.3" transform="translate(192.55 294)"/><path fill-rule="evenodd" fill="#b66440" d="M-.8-99.65q-13.3 2.15-13.4-1.15l1.75-.55.95-.3q3.2 2.2 10.7 2m-21.35-1.9q-1.05-2 .1-5.1l-.05-.15q5.45-11.1 13.1-18.9-8.85 12.35-13.15 24.15" transform="translate(192.55 294)"/><path fill-rule="evenodd" fill="#edbe89" d="m-88.8-13.95-.7-.25.65.25h.05m8.3 7.6h-.05v-.05l.05.05" transform="translate(192.55 294)"/><path fill-rule="evenodd" fill="#b78864" d="M-61.75 20.15v-10l.7.6v-1.9l-.7-.8q-8.5-10.2-7.75-16.3l1.95-7.95-.3 1.05 1.7-6.35 2.45-6.95q2.85 2.85 6.9 5.45 3 8.6 15.95 14.4-3.55 17.1-12.3 30l-8.5 1.15q.2-1.35-.1-2.4" transform="translate(192.55 294)"/><path fill-rule="evenodd" fill="url(#a)" d="m122.55-55.35.05.1-.35-.2q-1.25-.75-2.35-2.05-1.45-1.8-2.6-4.65-1.7-4.15-2.1-8.15-.15-3.85-.55-5.35-.5-1.65-2-2.3l-1.65-.4h-.35l-1.1-.1-6 .2-.05.05q-.2-2.95.35-5.55l.05-.15q1.15-5.25 5.5-9.1 1.2-1.15 2.7-2.1l1.9 1.45 2.95 2.25 1.55 1.2-.15 4.2q-.2 6 .25 11.4.8 10.85 3.95 19.25" transform="translate(192.55 294)"/><path fill-rule="evenodd" fill="url(#b)" d="m-191.8-151.9-.25-.05.15-.1.1.15" transform="translate(192.55 294)"/><path stroke-opacity=".302" stroke-linejoin="round" stroke-linecap="round" stroke="#000" fill="none" d="M20.45-228.05q4.5 8.05.45 17.3l-7.8 3.25 1.3 4.35h1.65l2.1 5.1q2.9.9 5.75 2.7l2.3-1.9q2.7-2 5.95-3.45 9.2-3.25 16.15-3.65 8.9 1.6 14.3 6.75l-2.55 2.9-2.25 2.65q10.9-1.25 21.6 6.4 31.35-9.1 54.1 8.85l1.55 1.25 12.7 2.95q2.75 6.05 4.4 13.15 6.15 25.95-2.25 66.15v10.2q3 4.8 3.25 13.5l-.15 2-1.05 1.35-1.45.3q-4.8-1.95-7.7-6.2-1.6 8.35-5.9 15.1l-1.75 1.35-1.95.4-2.2-.6-2.15-8.05-2.3 7.95q-2.25 1.15-4 .65m-.3-.1q-1.15-.45-2.1-1.6l-.25-.45m-7.25-20.45-2.05-.35m-.1 0-.95-.15m-6 .2-.9 3.4v.05m-169.6 13.15v-.05q-5.45-9.9-.6-20.6-7.7 7.5-18.35 13l-3.85-1.5q-13.2 4.8-26 7.8-4.2 5.15-10.1 10.1l-7.4 2.65-7.95 2.85q-6.35 6.05-14.8 10.15l-9.05 2.95-2.1-1.15q-1.9-1.25-2.05-4.15l2.4-4.4-1.15.7-7.7 1.8-2.45-2-1.7-4.7 1.85-4.2-3.9 1.25-2.05-1.45q-1.25-2-.55-5.75l.75-.75 9.35-9.8 5.75-8.35q-.25-2.15.1-4.6l.1-.8q4.7-2 7.2-5.05 4.25-1.2 9.65 0 7.5-11.8 20.25-21 9.8-7.85 19.4-11.7l.3-.15q5.15-10.2 20.75-16.45l5.6-2.05Q-74.4-159.6-55.4-165.6q-2.3-3.5-.9-8.4 8.75-6.05 17.15-6.25l9.45.6q1.6-4.9 11.55-12.45 3.9-1.8 7.55-3.15l-2.6-3.5 1.85-1.65-2.45-4.85-4.05 1.6q-10.7-5.05-5.6-21.3l1-.55 1.65-.85 1-.5 5-2.15 3.3-1.15.7-.2 5.1-1.3 4.05-.75 3.05-.35 1.2-.15m.6-.05q4.35-.35 8.9-.15l.85.05 4 .3 2.1 2.55m.15.2.45.65.6 1.05M.7-198.45l.8-.15 5.9-.65q5.85-.3 10.75 1.2M-.4-206.3l7.55 2.95-6.65 1.2h-9.85l-2 1.75M.7-198.45l-.8.15m44 22.45v-.05l-.3-.2.1-.1m-31.45-26.95h2.15m15.25 13.85q4.8-5.45 14.95-9.3l9.65-.45h.05l8.3 1.45m22 16.15-.95-.8m-31.05-3.1q-4.6 5.9-8.4 8.75l-.5.4m48.75 54.9q2.9 2.9 5.05 7.95 1.3 3.05-.9 5.1 1.05 2.85 6.4 2.55 6.35-2.85 9.9-6.55l1.5-1.05m-18.6 5.65.8-.6m-31.8 5.4q10.55-1.95 24-2.35 4.7-.9 7-2.45 6.15 10.9 7.65 19.75l.4 4.1.05-.1m5.5-9.1q1.7-2.15 3.65-4-4.05-6.75-.15-15.25m4.75-4.4 2.95-3.85m-62.8-71.55-4.05 5.2-.9 1.2m-8.95 9.8q12.9 10.25 13.7 26.35 3.6 3.75 6.1 7.25 3.35 4.65 4.8 8.8m-45.65-60.9 1.05-1M8.15-131.7l2.55 1.05q9.7 4.2 20.95 15.5l.75.95q29.15-1.8 35.95-8.85l.4-.5.4-.5q1.05-4.35-.65-9.4m-74.5 4.9 6.1-4.7q3.7.1 7.75 1.5M33.5-107.1q3.45-.75-1.1-7.1M18.8-103l-15.5 2.6-1.75.35-2.35.4q-13.3 2.15-13.4-1.15-5.5 1.55-6.6.75l-1.35-1.5q-1.05-2 .1-5.1-10.3 5.75-15.65 6.05-4 .2-5.3-2.55-7.6-17.95 1.8-31.55-1.05-7.3-.35-14.3l.4-2.6q.85-4.4 2.75-6.2l-.55-1.15-1.75-2.95q-3.5-5-9-6.65 1.45-1.65 3.35-4.95 10.8-5.2 18.45-.3m-19.75 88.2 3.85-.65 7.25-1.55 1.05-.25.3-.1 4-.9m64.7-18.05q.5 1.4-8.6 3.05l-5.6.95m6.15-4.6q-9.5-.3-20.2 1.5l-11.65 3-5.1 1.55m36.95-6.05 8.05.6m28.15 5.05 3.15-.8-1.25.2m-.7.15.7-.15m-6 1.7 4.1-1.1M108.7-57.9q21 20.95 21.85 46.75l-4.7 4.45Q121.4 4 110.75 11.65q6.7 2.7 5 8l-7.2.5-.5.95L99 18.35l-6.2-1.85 2-14.8q-6.65-10-23.5-17.75m58.65-53.15-1.1 5.25m14.6-10.1.65-2.15m-.65 2.2-.65 1.85M114-93.65l-.95-3.35m-9.2 13.2v.05m-20.5-98.75-3.95-3.15m24.35 199.3q5.8 3.4 4.8 6.5M94.8 1.7l.55.95M-1.8-211.3h-.05l-11.95 6.05m4.45 3.1L-1.6-206l.8-.4.4.15m-1.4-5.05 14.9 3.8M-166.4-65.1v2.3l7.9-.75m-7.9-5.6v4.05m0-6.3v2.25m-.5-3.05.5.8m-.5-.8q-1.35-2.25-1.7-5.05m14.3 13.3-4.2.4m-19.45 11.15 8.2-2.6m2.95 11 3.85-2.45m152.35-148.8q4.45-1.65 8.55-2.6l1.95-.45m-27.35 19.4-2.25-.75m-25.7 14.05q1.95.25 3.65-.7m.1-.05 1.95-2.2M-62.35-90.6q-.05-7.15 5.55-13.55l1.75-1.85m47.55-21.15 1.3-1.2m-1.3 1.2L-9-125.7q-7.65 7.8-13.1 18.9l.05.15m7.85 5.85 1.75-.55.95-.3m-69.95-38.55-3.8 1.15m-19.9 16.4-6.45 2.1m-41.2 45.8 1.1 2.3m48.8-50.7-2.25.5m-47.65 47.9-.55-1.05m-.95 11.85.65-.05 1.95-8.45m81.5 19.1q-15 11.9-19.65 29.45L-94-16.2Q-84.5 2.65-69.15 9v5.9m2.3 2.5 1.85-.35m15.25-102.4 2.1-.25m-14.7-5q.55 5.7 9.3 5.55l2.15-.15 1.15-.15m-17.8 3.05q1.85-4.1 5.2-8.3m21.5 82q-3.55 17.1-12.3 30l-8.5 1.15h-.1L-72.4 24q.1-1.55.65-2.75h-4.4q-.6-6.3 6.45-6.35h.55m-2.6 6.35q1.25-2.9 4.9-3.85" transform="translate(192.55 294)"/><path stroke-width=".05" stroke-opacity=".302" stroke-linejoin="round" stroke-linecap="round" stroke="#000" fill="none" d="m217.6 115.2.55.4q.65.7.65 1.75 0 1-.65 1.7m-.45.4-1.25.3q-1 0-1.7-.7t-.7-1.7q0-1.05.7-1.75l.45-.35q.55-.35 1.25-.35l1.15.3m.1 4.25.45-.4m-2.8 28.1q-4.25 2.45-8.9 7.6l14.25-4.5-5.35-3.1m40.75 44.2-1.9.4h-.05l-.75.15 2-.4m-87.2-30q4.35 1 9.1-.95-5.45-2-10.6-5.5l-4.3 4.55 5.8 1.9"/><path stroke-opacity=".8" stroke-linejoin="round" stroke-linecap="round" stroke="#000" fill="none" d="m29.65-153.75 4.2-1.45m-35.7 19.65-.45.05q-12.1-1.35-20.75-9.5m28.65 8.75q4.05-2.3 9.85-8.5 5-5.4 14.2-9m-56.3 6.1.8-.25 2.8 2.9m-3.6-2.65-3.15.95" transform="translate(192.55 294)"/><path stroke-opacity=".302" stroke-linejoin="round" stroke-linecap="round" stroke="#000" fill="none" d="m8.15-123.05-1.45.45q-1.2 6.5 7.5 8.9 4 .05 6.45-.15M8.3-123.1q6.6-1.45 16.05 7.65-.15 1.1-3.7 1.6M105.85 12q2.75-1.75 4.9-.35M99 18.35q.35-3.85 4.75-4.7l2.1-1.65M-1.8-123.4l1.05.35q2.8 9.65-4.05 12.95-6.95 3.1-8.75 1.05l-.5-1.25q6.45-14.4 12.2-13.15m-67.3 138.4h.05q2 .35 2.25 2.45m1.85-.35h.2q1 .35 1.65.95 1.05.85 1.4 2.15.3 1.05.1 2.4m-8.05-7.65.55.05" transform="translate(192.55 294)"/><path fill-rule="evenodd" d="m-191.9-152.05.15.15-.3-.05.15-.1" transform="translate(192.55 294)"/><path stroke-width="2" stroke-linejoin="round" stroke-linecap="round" stroke="#11121a" fill="none" d="m171.65 67.35-1.7.9-1 .55-.1.15q-5.2 16.6 5.75 21.65l.1.05h.1l3.75-1.5 2.3 4.35-1.7 1.55-.1.15.05.2 2.4 3.2q-3.5 1.3-7.2 3l-.05.05q-9.8 7.5-11.6 12.4l-9.3-.55q-8.4.2-17.25 6.25l-.1.15q-1.4 4.85.7 8.35-18.8 6.1-29.65 26.45l-5.5 2.05h.05Q85.95 163 80.75 173.2h.05l-.1.15v.2l-.1.05q-5.1 2.05-10.25 5.25l-.3-.05q-4.85-.5-9.45.9-3.25 2.05-6.45 5l-.15-.1-.2.05-5 4.25h-.05q-3.85 3.6-10.85 13.65l-.1.1-.05.15.05.05.05.1 2.65 2.9.05.05q-5.2-1.05-9.25.15l-.15.05q-2.45 3.05-7.15 5l-.1.1-.05.15-.1.8q-.35 2.4-.1 4.55L18 224.9 7.9 235.45l-.05.15q-.75 3.85.55 5.95l.1.05 2 1.45.15.05h.1l3.35-1.05-1.65 3.65v.2l1.75 4.7.1.15 2.4 2 .1.05h.15l7.7-1.8h.1l.15-.15-1.85 3.4v.15q.15 3.05 2.2 4.4l2.05 1.15.15.05h.1l9.1-2.95h.05q7-3.45 12.55-8.15l.1-.2-.05-.2 3.25-2.3 16.3-5.45 4.1-4.95v.3l2.2.9-.05.1.2-.05.5.25.3-.15v.2l-.15.2h-.05l16.5-5.3.15-.15.95-1.35.05-.2-.1-.2q1.6-1.8 2.8-4.6h.2l6.35-2.25 3.75 1.5h.1l.15-.05.6-.35q9.1-4.75 16-11-3.25 9 .65 18.7l-.65 1.4q-.9 1.15-1.55 3.45-1 2.6-1.45 5.05-13.45 10.75-17.9 27.9l-.1.5-3.35 6-.1.05-.15.1-.5.95-.05.15v.1q9.55 18.8 24.85 25.25v5.4h-.3q-3.6.05-5.3 1.7-1.65 1.65-1.4 4.95l.15.2.15.05h3.95l-.5 2.5.05.15.15.1.15.05 10.65-1.45h.1l8.5-1.15.1-.05.1-.1q3.9-5.8 6.85-12.45-.5 3.9-1.15 7.7l.05.2.2.1q9 2.15 18.2 3.5l-.65.7-.1.2.05.15 8.05 10.45.15.1h.2q3.25-.95 9.6-7.75l.05-.2-.05-.2-1.75-1.85q12 .8 24.2.3l-2.25 1.5-.1.15-.05.15.1.15 6.5 7.4.15.1h.15q1.5-.4 3.8-1.6 3.2-1.7 7.9-5.05l.15-.1v-.2l-.1-.15-3.75-3.3 21.7-2.3-.1.15 8.6 6.45q2.2-1.75 5.65-8.35h.25v.15l-.05.15 25.7-1.1.15-.05.1-.1.05-.15-1.45-10.15-.35-.3-.05-.45 1.6 1.3q1.75 1.3 2.95 1.7l5.2-8.65 1.3 1.85-1.95 14.8 15.25 4.6.4-.65.25-.05.15-.15v-.15l6.95-.5q1.65-5.25-5.05-7.95 10.65-7.65 15.1-18.35l4.7-4.45q-.85-25.8-21.85-46.75l-.05.4v-.05l.05-.35v-.3l.2.1.1.1.1-1.15q.95-9.2-5.7-15.4l-.4-.35.8-3.25-.05-.2 5.6-.15.05.2.2.15 3 .5.25-.05.05-.1q1.3.7 1.75 2.15.4 1.5.5 5.35.45 4 2.1 8.15 1.15 2.75 2.55 4.5l-.1.15v.2l.2.35.05.1q.95 1.1 2.05 1.6h.25l.05.05.15.15q1.85.55 4.25-.7l.15-.2 2-6.9 1.85 7.05.05.15.15.05 2.25.6h.15l1.95-.45.1-.05 1.7-1.35.1-.05q4.25-6.7 5.9-14.9 2.85 4 7.45 5.85l1.4-.3 1.1-1.35.15-2q-.25-8.7-3.25-13.5v-7.65l.2-.15-.2.05v-.3l1.45-1.45.05-.15V201.1q4.75-13.2 7.4-26.65l.2-.25.1-.3.05-.05.2-.4v-.15l-.15-.15-4.2-3.35-.15-.05-.15.05-.05.05q1.4-20.15-2.2-35.35-1.7-7.15-4.45-13.2l-.05-.1-.1-.05-12.65-3-1.55-1.15q-22.8-18.05-54.2-8.95-10.4-7.4-20.95-6.45l1.75-2.1 2.55-2.85.05-.05.05-.15v-.05l-.05-.2q-5.5-5.2-14.5-6.85h-.05q-7.05.4-16.25 3.7-3.3 1.45-6.05 3.5l-2.15 1.75-.5-.3-.2-.05q-.15 0-.15.1l-2.9-2.2-2.4-1.5v-.25l-1.4-3.4-.1-.1-.15-.05h-1.4l-1.2-3.9 7.6-3.15.1-.15q4.1-9.4-.45-17.55l-.15-.1v-.15l-.65-1.05-.5-.65-.05-.1-.05-.15-2.1-2.55-.25-.1-4-.3-.8-.05h-.05q-4.6-.2-8.9.15l-.2.15-.1.2-.1-.2-.25-.1-1.2.15-3 .35-4.15.8-5.1 1.25-.7.25-3.3 1.15q-2.6.95-5 2.1l-1 .5m131.6 117.35q-.8 3.15-.45 8l.05.3.15.15.15.05q.1 2.8.5 4.4l-.2.1-.05.25.15.7-1.85 2.15-.05.2.1.2q-3.85 3.5-5.1 8.1l-.35-3.25q-1.5-8.8-7.55-19.6l.3-.25q1.2 2.7 6.55 2.35h.05l1.45-.65.15-.15v-.25q2.8-1.05 6.3-3.85l-.3 1.05M181.1 93.3l-.1.05.1-.05m-57.25 139.85.4-.35-.15-.4-.25.75m151.55 51.2-.75-.35-.4 1.2.9 6.2 3.5-4.75-3.25-2.3m-234.6-78.4.1-.05v.1l-.15-.05h.05"/><path fill-rule="evenodd" fill="#fff4bf" d="M49-144.15q-3 1.45-7.2 2.8-4.2 1.2-7.15 1.45-2.9.2-2.8-.6.05-.95 3.15-2.35 3.05-1.6 7.25-2.9 4.15-1.2 7-1.5 2.95-.25 2.9.65-.1.9-3.15 2.45M-29.45-126.9l-4.8.85q-2.8.25-4.7 0-1.8-.25-1.65-.75.2-.6 2.25-1.15l4.9-.8 4.6-.1q1.85.25 1.7.8-.2.6-2.3 1.15" transform="translate(192.55 294)"/><path fill-rule="evenodd" fill="#ffa059" d="m83.8-113.4 1.7-.4 3.95-.25q1.65.15 1.65.95 0 .65-1.65 1.45-1.6.8-3.9 1.25h-.05q-5.1-1.15-1.7-3" transform="translate(192.55 294)"/><path fill-rule="evenodd" fill="#c96a23" d="m85.5-110.4-3.95.2q-1.65-.2-1.6-.85-.05-.75 1.6-1.6l2.25-.75q-3.4 1.85 1.7 3" transform="translate(192.55 294)"/><path fill-rule="evenodd" fill="#ffa059" d="M-51.55-91.2q2.5 1.4 1.75 2.85l-2.3-.25q-1.65-.3-1.6-1-.05-.7 1.6-1.45l.55-.15" transform="translate(192.55 294)"/><path fill-rule="evenodd" fill="#c96a23" d="M-49.8-88.35q.75-1.45-1.75-2.85l3.45-.7q2.3-.3 3.95 0 1.65.25 1.65 1.05 0 .65-1.65 1.35-1.65.7-3.95 1l-1.7.15" transform="translate(192.55 294)"/><path fill-rule="evenodd" fill="#eac062" d="m82.65-2.25 2.6 18.6q-15.8 0-34.55 1.9l-30 3.2q-34.55 3.15-67.6-4.65 1.45-8.1 1.85-16.55 32.55 21.7 80.7 16.9-34.7-4.05-50.5-11.2L53 12.8l-3.95-7.4 12.9 2.5 20.7-10.15" transform="translate(192.55 294)"/><path fill-rule="evenodd" fill="#c69c3e" d="m79.15-27.3 3.5 25.05L61.95 7.9l-12.9-2.5L53 12.8l-67.85-6.85q15.8 7.15 50.5 11.2-48.15 4.8-80.7-16.9.35-7.85-.15-15.95Q26.15 2.1 79.15-27.3" transform="translate(192.55 294)"/><path stroke-opacity=".302" stroke-linejoin="round" stroke-linecap="round" stroke="#000" fill="none" d="m79.15-27.3 3.5 25.05 2.6 18.6q-15.8 0-34.55 1.9l-30 3.2q-34.55 3.15-67.6-4.65 1.45-8.1 1.85-16.55.35-7.85-.15-15.95" transform="translate(192.55 294)"/><path fill-rule="evenodd" fill="#fffccc" d="m57.9-.85.2.05q-4.8 7.65-7.5 10.2l-.3-.2-.35.7-.1.1-3.35-3.3L57.9-.85M52.95 10.8l7.5 4.5q-4.15 8.45-6.75 10.55l-4.2-3.2 3.45-11.85M80.7-10.75l7.2-10.3L91.55-19 87.5-8.3h-.35l7.05 7.05-5.9 9.7q-1.2-.35-3-1.65V-6.25l.25-.35 1.35-1.75q-2.25-.35-6.2-2.4m6.45 2.45L87-8.5l-.1.15.25.05m-146.3 20.65 6.55-9.6 3.45 4.75q-5.9 6.15-8.7 7l-1.3-2.15m12.7-21.2 1.05 2.2Q-52.7-2.4-56-1.8l-.55-.65-.25.3-1.1-2.7 11.45-4m72.7 16.7 1.95.95q-6.15 6.85-9.5 8.85l-.05-.05-.45.25-8.8-5.5 1-1.15 15.85-3.35m-3.1 13.75 3.95 3.45q-4.75 3.25-7.9 5l3.95-8.45m-39.65-2.65 4.85 5.3q-6.3 6.7-9.5 7.65l-.7-.95 5.35-12m-5.4-5.05-.6-.85-.05-.1 10.6-10.3 2.6 3Q-17 12.7-20.85 14.3l-.7-.75-.35.35" transform="translate(192.55 294)"/><path fill-rule="evenodd" fill="#dbd8a8" d="m50.6 9.4 2.3 1.35.05.05-3.45 11.85-4.35-3.3 4.8-9.45.65-.5m-4.1-2.7-3.75-3.45 6.65-10.3 8.5 6.2L46.5 6.7m34.2-17.45-4.5-2.45 5.65-11.3q3.05 1.7 6.05 3.45l-7.2 10.3M85.3 6.8l-5.7-5.35 5.7-7.7V6.8m-144.45 5.55-4.55-7.6 6.9-6.9.1.4.7-.05 3.4 4.55-6.55 9.6m12.7-21.2-11.45 4-2.85-7.6 9.75-5.5 4.55 9.1M10.4 11.2l7.05-7.55 8.8 4.2L10.4 11.2m8.3 6.45 4.45 3.95-3.95 8.45q-2.25 1.15-3.7 1.6l-6.6-7.4 9.3-6.4v.05l.5-.25m-40.55 13.3-7.35-9.5 7.3-7.55.45.6.6-.2 4.35 4.65-5.35 12m-.7-18-6.35-9.2 10-9 6.95 7.9-10.6 10.3" transform="translate(192.55 294)"/><path stroke-opacity=".302" stroke-linejoin="round" stroke-linecap="round" stroke="#000" fill="none" d="m57.9-.85.2.05q-4.8 7.65-7.5 10.2l2.3 1.35m.05.05 7.5 4.5q-4.15 8.45-6.75 10.55l-4.2-3.2-4.35-3.3 4.8-9.45-.1.1-3.35-3.3-3.75-3.45 6.65-10.3 8.5 6.2m30-20.2q-3-1.75-6.05-3.45L76.2-13.2l4.5 2.45m7.2-10.3L91.55-19 87.5-8.3h-.35l7.05 7.05-5.9 9.7q-1.2-.35-3-1.65l-5.7-5.35 5.7-7.7m.25-.35 1.35-1.75q-2.25-.35-6.2-2.4m6.45 2.45-.25-.05.1-.15.15.2M-52.6 2.75-56-1.8l-.7.05-.1-.4-6.9 6.9 4.55 7.6m6.55-9.6 3.45 4.75q-5.9 6.15-8.7 7l-1.3-2.15m1.25-17.2 1.1 2.7.25-.3.55.65q3.3-.6 10.6-4.85l-1.05-2.2m-11.45 4-2.85-7.6 9.75-5.5 4.55 9.1M50.6 9.4l-.65.5.35-.7.3.2m-40.2 1.8 7.05-7.55 8.8 4.2 1.95.95q-6.15 6.85-9.5 8.85l4.45 3.95 3.95 3.45q-4.75 3.25-7.9 5-2.25 1.15-3.7 1.6l-6.6-7.4 9.3-6.4-8.8-5.5 1-1.15m7.8 6.65.45-.25.05.05-.5.25v-.05m-34.7 1.1 4.85 5.3q-6.3 6.7-9.5 7.65l-.7-.95-7.35-9.5 7.3-7.55-.6-.85m-.05-.1-6.35-9.2 10-9 6.95 7.9 2.6 3Q-17 12.7-20.85 14.3l4.35 4.65m-4.35-4.65-.6.2-.45-.6.35-.35.7.75" transform="translate(192.55 294)"/><path fill-rule="evenodd" fill="url(#c)" d="M83.5 3.2 55.65 7Q52.3 7.2 33 11.3l-21.4 4.65q-27.1 4.25-57.1-.35 3.7-20.6-5.65-34.65Q-26.95 5 52.7-8.7l34.95-17.75L81.7-8.6l1.8 11.8" transform="translate(192.55 294)"/><path fill-rule="evenodd" fill="url(#d)" d="m25.6-104.6.9 4.8Q-5.3-82.2-32.95-55.9q-15 16.15.05 26.9-21.1-8.5-32.25-26.35-11.2-17.85.65-33.3l1.45-2.5q.65-8.9 16.35-25.4 1.55 13.9 5.2 15.8 10.75.65 19.55-5.9-3.25 10.05 9.35 5.2-.85 3.1 4.5 2.55l33.7-5.7" transform="translate(192.55 294)"/><path fill-rule="evenodd" fill="#9f0000" d="M104.95-48q1.85-11.6-2.75-16.75l1-9.65q6.55 6.15 5.65 15.15l-.1 1.3q-.55 3.7-1.95 6.75l-1.85 3.2M82.8-44.8q4.35 14.7-2.1 20.85l-.25.3-.95.75-8.15 6.8Q56.3-4.65 50.3-8.25 40.75-11.3 38.05-23.8q4.9-1.25 9.45-2.65 21.8-6.9 35.3-18.35m3.1 19.2q4.5-7.85-.5-18.55Q99.95-52.5 100.35-63q4.55 9.55 1.55 18.35-1.25 3.7-3.85 7.25-1.45 3.7-4.1 6.5-3.2 3.3-8.05 5.3M47.25-5.7l-.3.2Q40.25-.6 31 1.95l-2.85.65q-4.85 1.05-10.3 1.5l-7.4.25-1.4-.05Q1.1 4.05-5.7 2.25l-.3-.1Q-12.1.45-17.25-2.5-29.9-10.1-29.5-25.3q7.85 3.25 16.15 5.1 7.4 1.65 16.9 3.2l21.9-.85 11.1-2.75Q38.65-9.6 46.6-6l.65.3m-72.3 2.05q-4.8-1-10.1-2.75-3.1-1.1-5.7-2.25-12.95-5.8-15.9-14.4-2.6-8.15.95-19.4 8.25 9.7 21.25 15.4-1.15 19.35 9.5 23.4m-34.25-21.1q-2.45-1.8-4.4-3.75-4.5-4.3-5.15-5.45-5.65-9.45-2.35-21.35l1.7-3.25q.8-1.5 1.8-2.35-.45 10.7 6.9 15.8l.3.15q-3.2 9.9 1.2 20.2" transform="translate(192.55 294)"/><path fill-rule="evenodd" fill="#c32424" d="m103.2-74.4-1 9.65q4.6 5.15 2.75 16.75-1.3 1.8-3.05 3.35 3-8.8-1.55-18.35-.4 10.5-14.95 18.85 5 10.7.5 18.55l-3.8 1.3-.15.1-1.25.25q6.45-6.15 2.1-20.85 10.55-9 16.05-20.9l2.25-5.55 1.6-3.65.5.5M50.3-8.25 47.6-6l-.35.3-.65-.3q-7.95-3.6-10.05-14.6l-11.1 2.75-21.9.85q-9.5-1.55-16.9-3.2-8.3-1.85-16.15-5.1-.4 15.2 12.25 22.8-3.7-.3-7.8-1.15-10.65-4.05-9.5-23.4-13-5.7-21.25-15.4-3.55 11.25-.95 19.4l-2.55-1.7q-4.4-10.3-1.2-20.2l-.3-.15q-7.35-5.1-6.9-15.8l.1-.05.7-.6.85 1.35q4.9 7.85 11.5 14.3 4 4 8.7 7.4 6.25 4.65 13.65 8.25h.05l.9.45 2.05.95q5.6 2.5 11.45 4.35l1.75.5.6.2q6.55 1.75 13.5 2.75l4.15.55 15.25.5 1.55-.1h.1l.9-.1q9.55-1.55 18-3.6 2.7 12.5 12.25 15.55" transform="translate(192.55 294)"/><path fill-rule="evenodd" fill="url(#e)" d="M-29.2-28.35q5.6 2.45 11.45 4.3l1.75.55.6.15q6.55 1.8 13.5 2.8l4.15.55 15.25.45 1.55-.05h.1l.9-.15q9.55-1.5 18-3.6 2.7 12.5 12.25 15.6L47.6-5.5l-.35.25-.3.2Q40.25-.15 31 2.4l-2.85.65-10.3 1.55-7.4.25-1.4-.1Q1.1 4.55-5.7 2.7l-.3-.05q-6.1-1.7-11.25-4.7Q-29.9-9.6-29.5-24.8l.3-3.55" transform="translate(192.55 294)"/><path fill-rule="evenodd" fill="url(#f)" d="M71.3-15.95Q56.25-4.5 50.25-8.1 40.7-11.15 38-23.65l9.45-2.65q21.8-6.9 35.25-18.35 4.4 14.75-2.05 20.9l-.25.3-.95.7q-4.35 3.9-8.15 6.8" transform="translate(192.55 294)"/><path fill-rule="evenodd" fill="url(#g)" d="M100.3-63.8q4.55 9.55 1.55 18.35-1.25 3.65-3.85 7.2-1.4 3.75-4.05 6.55-3.2 3.3-8.05 5.3l-3.8 1.3-.2.05-1.25.3q6.45-6.15 2.1-20.9 10.6-8.95 16.1-20.85l1.45 2.7" transform="translate(192.55 294)"/><path fill-rule="evenodd" fill="url(#h)" d="M-46.1-38.4q6.25 4.65 13.65 8.25h.05l.9.45 2.05.95-.3 3.55q-.4 15.25 12.25 22.8l-7.8-1.1q-4.8-1.05-10.1-2.8-3.1-1.05-5.7-2.25-12.95-5.8-15.9-14.4-2.6-8.15.95-19.4l.75-2.2.5-1.2 1.3 1.2q3.45 3.25 7.4 6.15" transform="translate(192.55 294)"/><path fill-rule="evenodd" fill="url(#i)" d="m-67.7-60.25.1-.05.7-.6.85 1.35q4.9 7.85 11.5 14.3l-1.25 3.45q-3.55 11.25-.95 19.4l-2.55-1.7q-2.45-1.8-4.4-3.75-4.5-4.3-5.15-5.45-5.65-9.45-2.35-21.35l1.7-3.25q.8-1.5 1.8-2.35" transform="translate(192.55 294)"/><path stroke-opacity=".4" stroke-linejoin="round" stroke-linecap="round" stroke="#000" fill="none" d="M-15.4-23.8q6.55 1.75 13.5 2.75l4.15.55 15.25.5 2.55-.2q9.55-1.55 18-3.6 4.9-1.25 9.45-2.65 21.8-6.9 35.3-18.35 10.55-9 16.05-20.9l2.25-5.55 1.6-3.65.5.5q6.55 6.15 5.65 15.15l-.1 1.3q-.55 3.7-1.95 6.75l-1.85 3.2q-1.3 1.8-3.05 3.35-1.25 3.7-3.85 7.25-1.45 3.7-4.1 6.5-3.2 3.3-8.05 5.3l-3.8 1.3-.15.1-1.25.25-.25.3-.95.75-8.15 6.8Q56.3-4.65 50.3-8.25L47.6-6l-.35.3-.3.2Q40.25-.6 31 1.95l-2.85.65q-4.85 1.05-10.3 1.5l-7.4.25-1.4-.05Q1.1 4.05-5.7 2.25l-.3-.1Q-12.1.45-17.25-2.5q-3.7-.3-7.8-1.15-4.8-1-10.1-2.75-3.1-1.1-5.7-2.25-12.95-5.8-15.9-14.4l-2.55-1.7q-2.45-1.8-4.4-3.75-4.5-4.3-5.15-5.45-5.65-9.45-2.35-21.35l1.7-3.25q.8-1.5 1.8-2.35l.1-.05.7-.6.85 1.35q4.9 7.85 11.5 14.3 4 4 8.7 7.4 6.25 4.65 13.65 8.25h.05l.9.45 2.05.95q5.6 2.5 11.45 4.35l1.75.5M98.85-65.7l1.5 2.7q4.55 9.55 1.55 18.35m-19.1-.15q4.35 14.7-2.1 20.85M-17.25-2.5Q-29.9-10.1-29.5-25.3l.3-3.55m67.25 5.05q2.7 12.5 12.25 15.55M-54.55-45.9l-1.25 3.45q-3.55 11.25-.95 19.4" transform="translate(192.55 294)"/><path fill-rule="evenodd" fill="#161b22" d="M-116.7-56.75q1.85-8.15-1.9-18.8-1.35-3.75-5.15-8.1-5.1-5.8-11.85-8.25l-.2-.1q-3.7-1.35-6.95-1.5-3.55-.3-11.7 2.25 7.05-10.1 10.95-13.65 5.9-5.45 11.95-9.25 4.55-1.4 9.45-.85 4.55.45 9.35 2.55l.5.25q7.75 3.7 11.2 7.75 3.85 4.3 5.8 8.2 4.6 9.25 2.05 18.45-2.8 9.9-7 15.7l-16.5 5.35" transform="translate(192.55 294)"/><path fill-rule="evenodd" fill="#5e636a" d="m-116.7-56.75-2.85-1.2q.35-12.8-9-22.9-9.95-10.85-23.25-7.5l-2.65-2.9q8.15-2.55 11.7-2.25 3.25.15 6.95 1.5l.2.1q6.75 2.45 11.85 8.25 3.8 4.35 5.15 8.1 3.75 10.65 1.9 18.8" transform="translate(192.55 294)"/><path stroke-opacity=".302" stroke-linejoin="round" stroke-linecap="round" stroke="#000" fill="none" d="m-154.45-91.25 2.65 2.9q13.3-3.35 23.25 7.5 9.35 10.1 9 22.9l2.85 1.2m-37.75-34.5q7.05-10.1 10.95-13.65 5.9-5.45 11.95-9.25 4.55-1.4 9.45-.85 4.55.45 9.35 2.55l.5.25q7.75 3.7 11.2 7.75 3.85 4.3 5.8 8.2 4.6 9.25 2.05 18.45-2.8 9.9-7 15.7l-16.5 5.35" transform="translate(192.55 294)"/><path stroke-opacity=".302" stroke-linejoin="round" stroke-linecap="round" stroke="#000" fill="none" d="M-116.7-56.75q1.85-8.15-1.9-18.8-1.35-3.75-5.15-8.1-5.1-5.8-11.85-8.25l-.2-.1q-3.7-1.35-6.95-1.5-3.55-.3-11.7 2.25l37.75 34.5z" transform="translate(192.55 294)"/><path fill-rule="evenodd" fill="#5e636a" d="m115.9-118.2 3.4-1.5q4.95 2.2 20.95 1.05 15.9-1.2 14.55-5.35l4.2 3.3q-1.25 4.45-18.65 5.7-17.45 1.25-24.45-3.2" transform="translate(192.55 294)"/><path fill-rule="evenodd" fill="#161b22" d="M159-120.7q-2.7 14.2-7.7 28.05-5.45 6.7-21.6 5.5-3.1-.2-10.25-3.55-7.2-3.3-7.8-3.85-.6-.55-1.05-5.95-.5-5.45.35-8.75.8-3.45 4.95-8.95 7 4.45 24.45 3.2 17.4-1.25 18.65-5.7" transform="translate(192.55 294)"/><path stroke-opacity=".302" stroke-linejoin="round" stroke-linecap="round" stroke="#000" fill="none" d="m115.9-118.2 3.4-1.5q4.95 2.2 20.95 1.05 15.9-1.2 14.55-5.35l4.2 3.3q-2.7 14.2-7.7 28.05-5.45 6.7-21.6 5.5-3.1-.2-10.25-3.55-7.2-3.3-7.8-3.85-.6-.55-1.05-5.95-.5-5.45.35-8.75.8-3.45 4.95-8.95" transform="translate(192.55 294)"/><path stroke-opacity=".302" stroke-linejoin="round" stroke-linecap="round" stroke="#000" fill="none" d="M115.9-118.2q7 4.45 24.45 3.2 17.4-1.25 18.65-5.7" transform="translate(192.55 294)"/><path fill-rule="evenodd" fill="#c99a76" d="M96.6-108.65q2.2-2.1.9-5.1-2.1-5.05-5-7.95 10.85 8.7 19.4 3.7 9.7-5.8 17.9-14.95-7.85 13.85-11.4 15.9l-5.45 4.35q-3.55 3.75-9.95 6.6-5.3.35-6.4-2.55" transform="translate(192.55 294)"/><path stroke-opacity=".302" stroke-linejoin="round" stroke-linecap="round" stroke="#000" fill="none" d="M96.6-108.65q1.1 2.9 6.4 2.55 6.4-2.85 9.95-6.6" transform="translate(192.55 294)"/><path fill-rule="evenodd" fill="#da8864" d="m19-30 2.15-5.15 9-1.6L41-37.5l.9 4.4-.2.05-5.2.05 5.2-.05L48.1-24q-1.25 1.6-3.5 3-4.9 3.15-13.05 4.4l-8.3.5Q24.9-24.05 36.5-33l-5.35.4Q24.35-32 19-30" transform="translate(192.55 294)"/><path fill-rule="evenodd" fill="#b66440" d="m19-30-1.85.7Q11-26.75 11.2-22.8v.3-.3q-.2-3.95 5.95-6.5L19-30q5.35-2 12.15-2.6l5.35-.4q-11.6 8.95-13.25 16.9l-5.9-.9q-5.9-1.75-6.15-5.5-2.35-1.8-3-4.55-.85-3.55 6.2-6.1 3.3-1.2 6.75-2L19-30" transform="translate(192.55 294)"/><path fill-rule="evenodd" fill="#f4a27e" d="m41-37.5 3.1.2q5.4.65 5.6 3.95.1 2.55-.5 3.85l.2 1.35q0 2.2-1.3 4.15l-6.4-9.05.2-.05-.9-4.4m8.2 8q-1-2.9-5.5-3.4l-1.8-.2 1.8.2q4.5.5 5.5 3.4" transform="translate(192.55 294)"/><path stroke-opacity=".302" stroke-linejoin="round" stroke-linecap="round" stroke="#000" fill="none" d="M11.2-22.5v-.3q-.2-3.95 5.95-6.5L19-30m2.15-5.15q-3.45.8-6.75 2-7.05 2.55-6.2 6.1.65 2.75 3 4.55.25 3.75 6.15 5.5l5.9.9M36.5-33l-5.35.4Q24.35-32 19-30m22-7.5 3.1.2q5.4.65 5.6 3.95.1 2.55-.5 3.85l.2 1.35q0 2.2-1.3 4.15-1.25 1.6-3.5 3-4.9 3.15-13.05 4.4l-8.3.5M41-37.5l-10.85.75-9 1.6m20.55 2.1.2-.05 1.8.2q4.5.5 5.5 3.4M36.5-33l5.2-.05" transform="translate(192.55 294)"/><path fill-rule="evenodd" fill="#ffd09b" d="m43.05-23.3 1.75.45-3.75 3.5Q30.1-17.9 21.9-21.95q12.7.95 21.15-1.35" transform="translate(192.55 294)"/><path fill-rule="evenodd" fill="#b79560" d="M43.05-23.3Q34.6-21 21.9-21.95l-.3-.2q-2.5-1.25-4.65-3.05l5.2-4.15 20.9 6.05" transform="translate(192.55 294)"/><path stroke-opacity=".302" stroke-linejoin="round" stroke-linecap="round" stroke="#000" fill="none" d="M21.9-21.95q8.2 4.05 19.15 2.6l3.75-3.5-1.75-.45M21.6-22.15q-2.5-1.25-4.65-3.05l5.2-4.15 20.9 6.05" transform="translate(192.55 294)"/><path fill-rule="evenodd" fill="#ffd09b" d="M27.4-18.15q-2.45.8-5.2 1.3l-4-2.05q6.8-2.35 18.6-12.15-1.35 7.5-9.15 12.85l-.25.05" transform="translate(192.55 294)"/><path fill-rule="evenodd" fill="#ffeab5" d="M27.65-18.2q7.8-5.35 9.15-12.85l.5-.45 4.5 1.8q-5.3 8.35-14.15 11.5" transform="translate(192.55 294)"/><path stroke-opacity=".302" stroke-linejoin="round" stroke-linecap="round" stroke="#000" fill="none" d="M36.8-31.05Q25-21.25 18.2-18.9l4 2.05q2.75-.5 5.2-1.3m9.9-13.35 4.5 1.8q-5.3 8.35-14.15 11.5" transform="translate(192.55 294)"/><path fill-rule="evenodd" fill="url(#j)" d="M-54.4-159.05q5.7-3.15 11.45-6.45l4.55 3.75-2.8 26-5.45 18.9-15.4 19.55-.85 6.5-5.35 9.1-17 12.05-4.7-1.6-25.65 8.3-8.1 9.65-16.25 5.45-10.6 7.4 6.85-17.7-3.2-8.6 16.35-5 51.5-38.2 2.8-19.9 15.05-2.95 8.65-16.65-1.85-9.6" transform="translate(192.55 294)"/><path fill-rule="evenodd" fill="url(#k)" d="M-32.55-119.9q-16.15-.4-17.3-5.05-1.2-4.7 13.3-10.95 14.5-6.4 36.2-10.65 21.7-4.3 37.9-4.05 16.15.3 17.3 5 1.2 4.65-13.3 11Q27.1-128.25 5.4-124q-21.8 4.3-37.95 4.1" transform="translate(192.55 294)"/><path fill-rule="evenodd" fill="url(#l)" d="M66.95-132.4q-5.45 3.05-13.55 2.45-8.1-.5-14.15-4.35-6.05-3.9-6.5-8.9-.45-4.9 4.95-8 5.4-3.1 13.55-2.6 8.1.6 14.15 4.5 6.05 3.85 6.5 8.8.45 4.95-4.95 8.1" transform="translate(192.55 294)"/><path fill-rule="evenodd" fill="url(#m)" d="M-50-113.75q5.45 3.05 13.55 2.45 8.1-.5 14.15-4.35 6.05-3.9 6.5-8.9.45-4.9-4.95-8-5.4-3.1-13.55-2.6-8.1.6-14.15 4.5-6.05 3.85-6.5 8.8-.45 4.95 4.95 8.1" transform="translate(192.55 294)"/><path fill-rule="evenodd" fill="url(#n)" d="M-.1-184.15q-3.05-6.95-.85-12.2 2.15-5.2 8.3-5.7 6.15-.55 12.75 3.9 6.6 4.5 9.75 11.35 3.05 6.85.85 12.05-2.2 5.25-8.35 5.85-6.15.5-12.7-4-6.6-4.45-9.75-11.25" transform="translate(192.55 294)"/><path fill-rule="evenodd" fill="url(#o)" d="M108.6-44.25q.8-9.45 5.8-11.85 4.9-2.45 11.1 3.55 6.15 5.9 10.1 16.8 3.85 10.95 3.1 20.45-.8 9.4-5.7 11.85-5 2.4-11.25-3.6-6.15-5.95-10-16.85-3.9-10.9-3.15-20.35" transform="translate(192.55 294)"/><path fill-rule="evenodd" fill-opacity=".6" fill="#613c25" d="m-63.05-90.1-.7 15.3.9 9.9 17.35 29.45-4.65 13.2-.4 8.3-7.05-2.6-1.65-8.35-5.7-1.3-2.45-4.7L-82.85-19l-10.8 1.9 3.5-6.3.2-.55q4.5-17.4 18.2-28.15l.15-.1.05-.5q1.6-9.45 4.75-8.8l-2.75-8.1-.4-4.9q-.4-4.7 6.9-15.6" transform="translate(192.55 294)"/><path fill-rule="evenodd" fill="url(#p)" d="M-143.75-103.75q5.8-6.75 11.85-10.6 4.55-1.35 9.45-.85 4.55.5 9.35 2.55l.45.25q4.65 2.2 9.15 7.4l2.85 3.55 1.05 1.55q7.9 11.6 6.05 21.95-2.15 11.95-7 15.7l-16.85 5.3q3.35-6.4-.85-18.4-1.9-5.35-7.05-10.1l-1.4-1.25-2.75-2.05q-3.1-2.1-6.5-3.35l-.1-.2-.15.15q-3.65-1.35-6.9-1.55l-2.05-.05-8.05 1.3 9.45-11.3" transform="translate(192.55 294)"/><path fill-rule="evenodd" fill="url(#q)" d="M131.35-133.05q-26.6 35.45-34.6 24.75 3.95-3.7-4.45-13.5 28.95 10.8 45.1-29.9-2.35 10-6.05 18.65" transform="translate(192.55 294)"/><path fill-rule="evenodd" fill="url(#r)" d="m159.1-120.55-7.7 27.75q-2.3 2.75-8.8 4.45-5.95 1.45-10.9 1.05-3.9-.3-6.55-1.25l-5.45-2.25q-6.85-2.8-7.85-3.9-1-1.2-1.25-6.65-.25-5.5.75-8.25 1-2.85 9.25-9 2.3 4.2 19.4 3.5 17.05-.8 19.1-5.45" transform="translate(192.55 294)"/><path fill-rule="evenodd" fill="url(#s)" d="M107.4-54.6q-.1 5.9-3 13.85-2.9 8.1-6.85 13.5-3.95 5.35-6.6 5-2.75-.3-2.55-6.3.15-5.85 3.1-13.8 2.85-8.1 6.8-13.5 3.9-5.4 6.65-5.05 2.65.35 2.45 6.3" transform="translate(192.55 294)"/><path fill-rule="evenodd" fill="url(#t)" d="M89.5-34.35q-.9 5.15-5.65 11.75-4.85 6.55-10.7 10.65Q67.2-7.9 63.7-8.7q-3.6-.75-2.65-6 .9-5.15 5.75-11.7 4.85-6.55 10.7-10.65 5.85-4.1 9.4-3.25 3.55.8 2.6 5.95" transform="translate(192.55 294)"/><path fill-rule="evenodd" fill="url(#u)" d="M54.25-4.1Q49.7-.4 40.9 2.25 31.95 4.9 24.05 4.9 16 4.85 13.6 2.15q-2.5-2.7 2.05-6.45 4.55-3.8 13.4-6.35 8.95-2.7 16.9-2.6 7.9 0 10.4 2.75 2.4 2.6-2.1 6.4" transform="translate(192.55 294)"/><path fill-rule="evenodd" fill="url(#v)" d="M-27.4-.55q-5.15-.2-12.35-4-7.35-3.9-12.55-9.1-5.15-5.4-5.25-8.95 0-3.7 5.1-3.5 5.1.15 12.35 4.05 7.35 3.85 12.55 9.1 5.15 5.3 5.2 9 .05 3.55-5.05 3.4" transform="translate(192.55 294)"/><path fill-rule="evenodd" fill="url(#w)" d="M-13.4-24.7Q-6-18.55-2.65-10.95q3.4 7.5.85 12.15-2.6 4.55-9.6 3.5-7.05-1.1-14.35-7.25-7.4-6.2-10.8-13.75-3.35-7.6-.75-12.2 2.55-4.6 9.5-3.4 7 1.05 14.4 7.2" transform="translate(192.55 294)"/><path fill-rule="evenodd" fill="url(#x)" d="M49.45-25.55q6.45 5.2 9.95 11.65 3.55 6.45 2.25 10.35-1.45 3.9-6.85 3-5.5-.95-11.9-6.2Q36.45-12 32.95-18.4q-3.55-6.5-2.2-10.4 1.4-3.9 6.85-2.9 5.45.9 11.85 6.15" transform="translate(192.55 294)"/><path fill-rule="evenodd" fill="url(#y)" d="M93.05-36.9q-.35 8.2-2.7 13.9-2.4 5.75-5.45 5.75-3.1-.1-5-5.85-2-5.8-1.7-14 .3-8.15 2.75-13.85 2.35-5.75 5.45-5.65 3.05 0 5.05 5.85 1.85 5.7 1.6 13.85" transform="translate(192.55 294)"/><path fill-rule="evenodd" fill="url(#z)" d="M108.5-57.55q.9 6.1.15 10.65-.85 4.6-2.95 5.05-2.15.35-4.4-3.7-2.15-4-3.2-10.1-.95-6.1-.1-10.65.8-4.6 2.95-4.95 2.15-.45 4.35 3.6 2.15 4 3.2 10.1" transform="translate(192.55 294)"/><path fill-rule="evenodd" fill="url(#A)" d="M-20.8-23.05q4.35 9.6 5.15 17.5.75 7.8-2.55 9.45-3.25 1.65-8.75-4-5.45-5.6-9.8-15.2-4.45-9.55-5.2-17.45-.75-7.85 2.6-9.5 3.25-1.65 8.75 4.05 5.3 5.6 9.8 15.15" transform="translate(192.55 294)"/><path fill-rule="evenodd" fill="url(#B)" d="M-47.45-36.25q-.15 9.4-3.45 15.55-3.3 6.2-7.9 5.5-4.6-.8-7.8-8-3.2-7.15-3.1-16.65.1-9.5 3.45-15.65 3.25-6.1 7.85-5.35 4.6.7 7.85 8 3.1 7.1 3.1 16.6" transform="translate(192.55 294)"/><path fill-rule="evenodd" fill="url(#C)" d="M-94.8-146.65q10.3-3.35 14.25 1 4.05 4.25-.55 13.55-4.5 9.3-15 18.3-10.5 8.95-20.8 12.35-10.25 3.25-14.25-1-4.05-4.35.55-13.7 4.55-9.25 15.05-18.15 10.45-9 20.75-12.35" transform="translate(192.55 294)"/><path fill-rule="evenodd" fill="url(#D)" d="M-62.55-175.6q8.1-3 11.75 1.4 3.65 4.3.75 13.35-2.85 9.05-10.6 17.6-7.8 8.5-15.85 11.6-8.1 2.9-11.75-1.4-3.7-4.4-.75-13.45 2.85-9.05 10.6-17.5 7.75-8.6 15.85-11.6" transform="translate(192.55 294)"/><path fill-rule="evenodd" fill="url(#E)" d="M-173.5-74.05q4.3-1.85 5.9.3 1.6 2.1-.45 7.05-2 4.9-6.5 9.7-4.5 4.85-8.8 6.8-4.3 1.85-5.9-.3-1.6-2.15.45-7.1 2.05-4.9 6.55-9.65 4.45-4.85 8.75-6.8" transform="translate(192.55 294)"/><path fill-rule="evenodd" fill="url(#F)" d="M-10-202.75q7.1-.65 9.65 3.15 2.55 3.7-.9 9.6-3.4 5.95-10.9 10.65-7.45 4.75-14.55 5.45-7.05.65-9.6-3.1t.9-9.7q3.5-5.95 10.9-10.6 7.45-4.75 14.5-5.45" transform="translate(192.55 294)"/><path fill-rule="evenodd" fill="url(#G)" d="M140.1-181.5q.3 4.55-9.35 6.55t-23.55.3q-14-1.7-24-6.1-10.05-4.45-10.35-8.95-.3-4.6 9.4-6.6 9.6-2 23.5-.25 13.95 1.65 24.05 6.05 10 4.45 10.3 9" transform="translate(192.55 294)"/><path fill-rule="evenodd" fill="url(#H)" d="M119.9-84.35q-1.1 7.8-16.45 11.7-15.3 3.9-36 1.6Q46.7-73.3 32.8-80.5q-13.8-7.15-12.75-15 1.1-7.9 16.5-11.85 15.25-3.85 35.9-1.5 20.8 2.25 34.7 9.4 13.8 7.25 12.75 15.1" transform="translate(192.55 294)"/></g></defs><path fill="none" d="M-1-1h351v272H-1z"/><g><use x="186.885" y="235.639" xlink:href="#J" width="381" transform="translate(-192.55 -294)" height="381"/><use x="124.59" y="157.093" xlink:href="#K" width="100" transform="matrix(1.5 0 0 1.5 -81.75 -161.2)" height="40"/></g></svg>