<svg width="85" height="86" xmlns="http://www.w3.org/2000/svg" xmlns:xlink="http://www.w3.org/1999/xlink"><defs><g transform="translate(46.8 41.7)" id="w"><use xlink:href="#a" width="81.15" transform="translate(-40.05 -41.7)" height="83.45"/><use xlink:href="#b" width="26.25" transform="matrix(-1.8195 -.0542 .0031 1.8212 11.71 -11.376)" height="24.1"/><use xlink:href="#c" width="40.15" transform="translate(-14.5 -7.65)" height="39.5"/><use xlink:href="#c" width="40.15" transform="matrix(.4824 -.5985 .8208 .5666 -9.504 6.345)" height="39.5"/><use xlink:href="#c" width="40.15" transform="translate(-2.5 2.85)" height="39.5"/><use xlink:href="#c" width="40.15" transform="matrix(-.6215 -.6469 .6308 -.606 -21.845 16.448)" height="39.5"/><use xlink:href="#c" width="40.15" transform="matrix(-.892 -.0626 .061 -.8699 5.864 -2.83)" height="39.5"/><use xlink:href="#c" width="40.15" transform="matrix(-.8589 -.2533 .3028 -.817 18.22 3.907)" height="39.5"/><use xlink:href="#c" width="40.15" transform="matrix(.589 .6764 -.6596 .5744 -13.427 -.147)" height="39.5"/><use xlink:href="#d" width="35.7" transform="translate(4.25 -4.85)" height="27.5"/><use xlink:href="#e" width="38.75" transform="rotate(29.534 -7.968 52.85) scale(.2278)" height="49.25"/><use xlink:href="#f" width="14.55" transform="translate(-17.05 -11.2)" height="34.75"/></g><g id="a"><path fill-rule="evenodd" fill="#f0efe6" d="M4.35-7.05h-6.7L-14.5-14.7l-11.2-4.05-5.2-4.25-5.55-.95Q-23.85-34.8.05-41.6q20.3 6.15 37.3 18.35l-33 16.2" transform="translate(40.05 41.7)"/><path fill-rule="evenodd" fill="#bdbeb5" d="m1-1.65 2.5-4 19.5-8.5 4.45-.15L29-16.4l4.9-2.45 3.75-3.4q6.2 20.95.95 41.9l-6.15 3.9-2.7-.5-6 3.15L21 30.75l-10.65 2.2-3.8-1.3L1 35.4Q3.9 10.7 1-1.65" transform="translate(40.05 41.7)"/><path fill-rule="evenodd" fill="#d6d2ba" d="M1-1.65Q3.9 10.7 1 35.4l-.2 1.55-6.8-4.6-8.4.75-4.85-4.4h-5.4l-7.4-5.65-6.6-6.6q-3.15-21.4 1.35-39.7l33.1 16.2L1-1.65" transform="translate(40.05 41.7)"/><path fill-rule="evenodd" fill="#fff" d="m3.5-5.65-2.5 4-5.2-5.4h8.55l-.85 1.4" transform="translate(40.05 41.7)"/><path fill-rule="evenodd" fill="#988e3d" d="m.8 36.95-.65 4.7h-2Q-20.9 34.2-37.3 24.1l-1.35-7.65 6.6 6.6 7.4 5.65h5.4l4.85 4.4 8.4-.75 6.8 4.6" transform="translate(40.05 41.7)"/><path fill-rule="evenodd" fill="#746c2e" d="m1 35.4 5.55-3.75 3.8 1.3L21 30.75l2.75-4.55 6-3.15 2.7.5 6.15-3.9-1.25 4.45Q21.8 33.15 1.85 41.65H.15l.65-4.7.2-1.55" transform="translate(40.05 41.7)"/><path fill-rule="evenodd" fill="#e6e1d5" d="m37.65-22.25-3.75 3.4L29-16.4l-1.55 2.1-4.45.15-19.5 8.5.85-1.4 33-16.2.3.9v.1m-40 15.2H-4.2l-33.1-16.2.85-.7 5.55.95 5.2 4.25 11.2 4.05 12.15 7.65" transform="translate(40.05 41.7)"/><path stroke-width=".25" stroke-opacity=".443" stroke-linejoin="round" stroke-linecap="round" stroke="#4d4e43" fill="none" d="M78.65 61.35q5.25-20.95-.95-41.9m0-.1-.3-.9m-73.8-.7Q16.2 6.9 40.1.1q20.3 6.15 37.3 18.35m-37.2 64.9h1.7q19.95-8.5 35.5-17.55l1.25-4.45m-38.45 22h-2Q19.15 75.9 2.75 65.8L1.4 58.15q-3.15-21.4 1.35-39.7l.85-.7"/></g><g transform="translate(17.75 12.1)" id="b"><use xlink:href="#g" width="18.05" transform="translate(-9.55 -12.1)" height="24.1"/><clipPath id="i"><use xlink:href="#h" width="15.05" transform="translate(-7.5 -10.4)" height="20.95"/></clipPath><g clip-path="url(#i)"><use xlink:href="#j" width="123.55" transform="matrix(-.101 0 .1094 .112 -5.261 5.266)" height="25.65"/><use xlink:href="#j" width="123.55" transform="matrix(-.101 0 .1094 .112 -1.761 3.766)" height="25.65"/><use xlink:href="#j" width="123.55" transform="matrix(-.101 0 .1094 .112 1.789 2.166)" height="25.65"/><use xlink:href="#k" width="54" transform="translate(-3.503 -.375) scale(.0501)" height="143"/><use xlink:href="#k" width="54" transform="translate(-3.503 -5.125) scale(.0501)" height="143"/><use xlink:href="#k" width="54" transform="translate(-7.153 1.325) scale(.0501)" height="143"/><use xlink:href="#k" width="54" transform="translate(-7.153 -3.425) scale(.0501)" height="143"/><use xlink:href="#k" width="54" transform="translate(-3.503 -9.825) scale(.0501)" height="143"/><use xlink:href="#k" width="54" transform="translate(-7.153 -7.925) scale(.0501)" height="143"/><use xlink:href="#k" width="54" transform="translate(.097 -2.075) scale(.0501)" height="143"/><use xlink:href="#k" width="54" transform="translate(.097 -6.825) scale(.0501)" height="143"/><use xlink:href="#k" width="54" transform="translate(.097 -11.525) scale(.0501)" height="143"/></g></g><g id="g"><path fill-rule="evenodd" fill="#a0946e" d="m-3.15-.4-.95 1.6Q-7-2.2-9.55-4.35-6.35-3-3.15-.4M8.5.05l-2.3 1.6-.4-1.6h2.7" transform="translate(9.55 12.1)"/><path stroke-width=".05" stroke-linejoin="round" stroke-linecap="round" stroke="#f93" fill="none" d="m9.65 5-1.9.5"/><path fill-rule="evenodd" fill="#a0946e" d="M-1.65-3.05q-2.9-3.4-5.45-5.55 3.2 1.35 6.4 3.95l-.95 1.6m1.6-1.7q1.7-4.1 2.45-7.35.25 3.45-.6 7.5l-1.85-.15m.1 10Q-2.4 8.95-3.75 12q.4-3.5 2.05-7.25l1.75.5" transform="translate(9.55 12.1)"/><path fill-rule="evenodd" fill="#cbc2a8" d="m.3-8.7 2.95-1.35q2.7-1.3 3.1 1.95L7.3.05 4.6-.4 7.4.8l.1.95L1.05.25.3-8.7" transform="translate(9.55 12.1)"/><path fill-rule="evenodd" fill="#d2c9b5" d="m1.05.25 6.45 1.5v.1Q7.75 4.3 6.25 5.6l-6.4-2.25.1-.2q1.6-1.4 1.1-2.8v-.1" transform="translate(9.55 12.1)"/><path fill-rule="evenodd" fill="#e9e7da" d="m6.25 5.6-1.1.7L-2.8 10-5 9.2l1.6 1.05Q-5.95 11.3-6.3 8.2l-.25-2.05 6.2-2.85.2.05 6.4 2.25" transform="translate(9.55 12.1)"/><path fill-rule="evenodd" fill="#424124" d="M.3-8.7 1.05.25v.1q.5 1.4-1.1 2.8l-.3.15-6.2 2.85-.9-7.9q-.4-3.2 2.35-4.45L.3-8.7" transform="translate(9.55 12.1)"/><path fill-rule="evenodd" fill="#a0946e" d="M7.4.8 4.6-.4l2.7.45.1.75m-10.8 9.45L-5 9.2l2.2.8-.45.2-.15.05" transform="translate(9.55 12.1)"/></g><g transform="translate(27 66.35)" id="k"><use xlink:href="#l" width="54" transform="translate(-27 -61)" height="122"/><use xlink:href="#m" width="11.45" transform="translate(-10.65 -21.55)" height="77.2"/><use xlink:href="#m" width="11.45" transform="translate(-.1 -37)" height="77.2"/><use xlink:href="#m" width="11.45" transform="translate(5.5 -21.55)" height="77.2"/><use xlink:href="#m" width="11.45" transform="translate(-13.65 -30.7)" height="77.2"/><use xlink:href="#m" width="11.45" transform="translate(-5.95 -27.5)" height="77.2"/><use xlink:href="#m" width="11.45" transform="translate(7.3 -33.5)" height="77.2"/><use xlink:href="#m" width="11.45" transform="translate(11.35 -30.7)" height="77.2"/><use xlink:href="#m" width="11.45" transform="matrix(1 0 0 1.8526 -22.1 -66.368)" height="77.2"/><use xlink:href="#n" width="36.9" transform="translate(-18.65 -54.15)" height="16.4"/></g><g id="l"><path fill-rule="evenodd" fill="#cbbc81" d="M-6.85 60.05q-6.7-.85-11.9-3.5-7.75-4-7.75-9.55l.15-1.35.7-4.45.1-.6.1-.5.6-4.25q2.1-15.35 2.4-30.65.2-11.1-.5-22.2-.75-11.4-2.45-22.75l-.95-5.7q.95 4.6 7.6 8 5.2 2.65 11.9 3.5l.55 7.65.1 1.4.05.35.8 17.65q.4 12.4.3 24.8-.15 16.45-1.15 32.85l-.05 1.15v.15l-.25 3.35-.35 4.65M-16.9-32.7l-.2-.15h.15-.15l.2.15-.05-.15.05.15 1.6 1.35-1.6-1.35 3.05 11.85-1.3 24.35 1.3-24.35-3.05-11.85m-8.5-7.05 8.3 6.9-1.15-.15 1.15.15-8.3-6.9m17.1 7.85-.7-.05-7.95-.9 7.95.9.7.05m2 5.6L-9-31.95l2.7 5.65" transform="translate(27 61)"/><path fill-rule="evenodd" fill="#bca85c" d="m26.35-45.5-.65 4.4q-1.8 12.55-2.45 25.4-.6 11.8-.2 23.85.5 14.2 2.35 28.7l.1.9.85 6.1-.4.25q.55 1.4.55 2.9 0 5.55-7.75 9.55-.5.2-.95.45l-.5-4.05-.15-1.3-.2-2.1Q15.2 33.7 14.9 17.9l-.05-2.4q-.25-13.45.55-26.85.55-9.55 1.65-19.1v-.35l.75-6.2.95-.45q6.65-3.45 7.6-8.05m-.65 4.4L21-36.7l-.95.9.95-.9 4.7-4.4M21-36.7l-3.95 5.9L21-36.7" transform="translate(27 61)"/><path fill-rule="evenodd" fill="#a99545" d="m16.2-34.7-.6.3-.15-.45.15.45.6-.3m-4.35 2.1-16.4 1.2L-6-25.7l-.2.8-.1-1.4-.55-7.65L0-33.5q10.35 0 17.8-3.5l-.75 6.2v.35l-.1-.2-1.35-3.75-3.75 1.8m5.1 1.95.1-.15-.1.15M-6-25.7l-.3-.6.3.6m1.55-6.2-.1.5-.8.05.8-.05.1-.5" transform="translate(27 61)"/><path fill-rule="evenodd" fill="#857536" d="M-6.25 51.9v.15-.15" transform="translate(27 61)"/><path fill-rule="evenodd" fill="#d8cc9e" d="M17.8 57q-3.7 1.7-8.05 2.6L0 60.5l-6.85-.45.35-4.65.25-3.35v-.15l.05-1.15q1-16.4 1.15-32.85.1-12.4-.3-24.8l-.8-17.65-.05-.35.2-.8 1.45-5.7 16.4-1.2-.65.3.65-.3 3.75-1.8 1.35 3.75.1.2q-1.1 9.55-1.65 19.1-.8 13.4-.55 26.85l.05 2.4q.3 15.8 2.05 31.65l.2 2.1.15 1.3.5 4.05m-.85-87.65-.4.6.4-.6" transform="translate(27 61)"/><path fill-rule="evenodd" fill="#e6dbc4" d="M-26.4-48.25q.8-4.8 7.65-8.3Q-11-60.55 0-60.5q11-.05 18.75 3.95Q26.5-52.6 26.5-47l-.15 1.5q-.95 4.6-7.6 8.05l-.95.45Q10.35-33.5 0-33.5l-6.85-.45q-6.7-.85-11.9-3.5-6.65-3.4-7.6-8v-.15l-.05-.15v-2.5" transform="translate(27 61)"/><path stroke-opacity=".373" stroke-linejoin="round" stroke-linecap="round" stroke="#716242" fill="none" d="M-26.35-45.45v-.15l-.05-.15" transform="translate(27 61)"/><path stroke-linejoin="round" stroke-linecap="round" stroke="#7d6c46" fill="none" d="M-26.4-48.25q.8-4.8 7.65-8.3Q-11-60.55 0-60.5q11-.05 18.75 3.95Q26.5-52.6 26.5-47l-.15 1.5m-.4 89.6q.55 1.4.55 2.9 0 5.55-7.75 9.55-.5.2-.95.45-3.7 1.7-8.05 2.6L0 60.5l-6.85-.45q-6.7-.85-11.9-3.5-7.75-4-7.75-9.55l.15-1.35m-.05-91.4-.1-1.25.1-1.25m52.75 2.75-.65 4.4q-1.8 12.55-2.45 25.4-.6 11.8-.2 23.85.5 14.2 2.35 28.7l.1.9.85 6.1m-52.7 1.8.7-4.45.1-.6.1-.5.6-4.25q2.1-15.35 2.4-30.65.2-11.1-.5-22.2-.75-11.4-2.45-22.75l-.95-5.7" transform="translate(27 61)"/><path stroke-width=".05" stroke-linejoin="round" stroke-linecap="round" stroke="#5a512e" fill="none" d="m47.05 25.2.95-.9 4.7-4.4m-10.25 6.25.15.45.6-.3m-5 2.4.65-.3-16.4 1.2L21 35.3l-.2.8.05.35m22.7-5.5.4-.6-1.35-3.75-3.75 1.8m5.2 1.8-.1.15.1.2M20.7 34.7l.3.6m23.05-5.1L48 24.3m-37.95 3.85H9.9l.2.15 1.6 1.35m-1.65-1.5 7.95.9.7.05M8.75 28l1.15.15-8.3-6.9m20.05 8.4.8-.05.1-.5M18 29.05l2.7 5.65"/><path stroke-width=".05" stroke-opacity=".451" stroke-linejoin="round" stroke-linecap="round" stroke="#5a512e" fill="none" d="m10.1 28.3-.05-.15m.05.15 3.05 11.85-1.3 24.35"/></g><g id="d" fill-rule="evenodd"><path d="M25.95 18.65q.55-.3.9 0 .4.2.45.8l-.45 1.25-.9.85q-.55.25-.9 0-.4-.25-.4-.8 0-.65.4-1.25.35-.6.9-.85M13 5.75l.6-.35q2.6-1.4 4.7-1.25l.9.15q2.65.6 2.9 3.6.25 2.95-2.05 6.5l-.75 1.1-.4.5q-1.75 2.15-4.05 3.65l-.6.35Q10.7 22.05 8 21.45q-2.65-.65-2.9-3.6-.3-2.95 2.05-6.5Q8.65 9 10.7 7.3q1.1-.9 2.3-1.55" transform="translate(-4.25 4.85)"/><path fill="#2b2d16" d="M20.5 5.4q-.75.5-1.2-.25-.45-.75.25-1.3.65-.6 1.15.25.5.8-.2 1.3m.35.4q-.35-.55.2-.85.55-.35.85.2.3.5-.2.9-.5.35-.85-.25m2.1 2.7q-.7.3-1.1-.2-.4-.55.25-.95.6-.4 1.05.2.45.55-.2.95m-.85 3.35q.5.9-.3 1.4-.8.55-1.25-.25-.5-.8.25-1.4.75-.65 1.3.25m.05-1.25-.85-.1q-.45-.45.1-1.05l.85.05q.25.7-.1 1.1m-1.75 4.2q-.5.35-.85-.25-.35-.55.2-.85.55-.35.85.2.3.5-.2.9m-2-10.25-.95-.1q-.5-.55.15-1.2.6-.65.9.15.3.75-.1 1.15m-3 .65q-.7.3-1.1-.2-.4-.55.25-.95.6-.4 1.05.2.45.55-.2.95m-3.05.7q.5.8-.2 1.3l-1.05-.05-.15-.2q-.3-.4-.15-.75.05-.3.4-.55.65-.6 1.15.25M14 5.25q.35.6-.25 1.05-.6.4-1-.25-.4-.7.25-1.05.65-.4 1 .25m-7 7q.25.5-.15.8-.45.3-.75-.15-.3-.45.15-.8.45-.4.75.15m-.4-1.2q-.5-.8.25-1.2.75-.45 1.2.25.45.7-.25 1.25-.75.5-1.2-.3m2.25-2.1q-.4-.5.25-.85.6-.4 1.05.15.4.55-.25.9t-1.05-.2M6.3 15.2q-.4.35-.85-.1-.5-.5.1-1.15.6-.65.9.1.25.7-.15 1.15m-.75 2.7q-.7.3-1.1-.2-.4-.55.25-.95.6-.4 1.05.2.45.55-.2.95m-.5.8q.4-.25.65.15t-.15.7q-.4.3-.7-.15-.25-.5.2-.7m4.75 2.6q.3.75-.1 1.15l-.95-.1q-.5-.55.15-1.2.6-.65.9.15m-2.85.15q-.35.25-.55-.1-.25-.4.1-.7.35-.3.6.15.2.4-.15.65m10.7-4.7q-.4-.55.25-.95.6-.4 1.05.2.45.55-.2.95-.55.25-.9 0l.2.35q.35 1-.2 1.55t-1.2-.1q-.7-.7.15-1.6.55-.55.9-.3l-.05-.1m-6.1 5.5q-.6.3-.9-.15-.4-.5.2-.85.55-.35.95.2.35.45-.25.8m2.75-.7q-.75.5-1.2-.3-.5-.8.25-1.2.75-.45 1.2.25.45.7-.25 1.25m1.4-1.95q-.55.4-.9-.15-.35-.6.2-1.05.5-.45.9.2.35.65-.2 1" transform="translate(-4.25 4.85)"/><path fill="#e1dfcd" d="M19.95 14.3q-.45 0-.75-.45l-.25-1.05q0-.65.25-1.1.3-.4.75-.4.45-.05.7.35.35.45.35 1.1 0 .6-.35 1.05-.25.45-.7.5" transform="translate(-4.25 4.85)"/><path d="m30.65-2.6.55-.15h2.1q1.85.25 3.4 1.35 2.25 1.75 2.25 4.65 0 2.8-2.25 5.1-2.3 2.3-5.5 2.75l-.55.05q-2.15.05-3.85-.7l-.35-.25-.75-.45Q23.4 8 23.4 5.15q0-2.85 2.3-5.15l.75-.65q1.8-1.55 4.2-1.95" transform="translate(-4.25 4.85)"/><path fill="#2b2d16" d="M32.1-2.1q-.9.75-1.65-.45-.75-1.15.35-1.65t1.65.5q.55 1-.35 1.6m2.65.25q-.7.3-1.25-.45-.55-.9.35-1.25Q34.7-4 35-3.1q.35.9-.25 1.25M28.95-2q.9 1.2-.45 1.95-1.3.65-1.85-.4-.6-1.05.4-1.95 1-.9 1.9.4M25 .35q-.65-.9.25-1.35.9-.5 1.25.5.45 1-.25 1.3-.7.35-1.25-.45M23.25 1.7q1.2-.5 1.8.55.55 1.05-.4 1.75-.95.75-1.8-.55-.85-1.25.4-1.75m.5 4.85q-.55.35-.9-.3-.4-.55.05-.85.5-.4 1 .2.45.55-.15.95M25.2 7.6q.75 1.1-.35 1.75Q23.7 9.9 23.2 9q-.5-.95.35-1.7.8-.8 1.65.3m.7 3.35q-.85-1.2.5-1.9 1.2-.6 1.75.7l.15.7q1.1-.45 1.65.6.6 1-.3 1.7-1 .7-1.75-.5l-.3-.55q-.9.45-1.7-.75m8.35-1.55q.7-.7 1.3.2.65.9-.25 1.4-.95.5-1.3-.25-.45-.75.25-1.35m-1.7 1.55q-.65.4-1.05-.15-.4-.7.15-1.05.45-.4 1 .25.5.55-.1.95M37.8-.2q-1 .5-1.4-.25-.4-.8.35-1.45.7-.65 1.4.3.6.85-.35 1.4m-.1.65q.5-.4 1.05.25.5.6-.15.95-.6.45-1-.2-.45-.6.1-1m-1.1 7.4q-.55-.8.3-1.25.75-.35 1.1.5.35.85-.3 1.15-.6.35-1.1-.4m3-2.2q-.55.4-1-.3-.45-.7.2-1.05.65-.3 1 .3t-.2 1.05" transform="translate(-4.25 4.85)"/><path fill="#e1dfcd" d="M28.25 10.45 27.5 10q-.25-.45-.25-1.05 0-.65.25-1.1.3-.4.75-.4.45-.05.7.35.35.45.35 1.1l-.35 1.05-.7.5" transform="translate(-4.25 4.85)"/></g><g transform="translate(19.4 24.6)" id="e"><use xlink:href="#o" width="30.05" transform="matrix(.7685 0 0 1 -19.415 -24.6)" height="39.4"/><use xlink:href="#o" width="30.05" transform="matrix(-.5638 0 0 1 19.334 -24.6)" height="39.4"/><use xlink:href="#o" width="30.05" transform="matrix(.4751 .0144 -.0187 .6182 -11.283 -14.315)" height="39.4"/><use xlink:href="#o" width="30.05" transform="matrix(-.3485 -.0105 -.0187 .6182 12.713 -13.54)" height="39.4"/><use xlink:href="#o" width="30.05" transform="matrix(.2406 .0847 -.1764 .5682 -5.055 -.29)" height="39.4"/><use xlink:href="#o" width="30.05" transform="matrix(-.1822 .0427 .1573 .5737 6.601 -.167)" height="39.4"/></g><g id="u"><path fill-rule="evenodd" fill-opacity=".498" fill="#f90" d="M-.95-19.5q5.6.55 9.7 10.6 4.05 10 5.75 10.3 1.7.3-4.05 8.35-5.8 8-11.4 9.6-5.65 1.55-9.85-4.45-4.15-6-4.15-14.5t4.15-14.5q4.2-6 9.85-5.4" transform="translate(15.05 19.65)"/><path stroke-width=".25" stroke-opacity=".235" stroke-linejoin="round" stroke-linecap="round" stroke="#d15b5b" fill="none" d="M14.1.15q5.6.55 9.7 10.6 4.05 10 5.75 10.3 1.7.3-4.05 8.35-5.8 8-11.4 9.6-5.65 1.55-9.85-4.45-4.15-6-4.15-14.5t4.15-14.5q4.2-6 9.85-5.4z"/></g><g id="f"><path fill-rule="evenodd" fill-opacity=".561" fill="#fff" d="M-4.3-9.55q.3.8-.65 4.65-.95 3.85-.55 11.05.4 7.2-1 12.25-1.45 5-4.4 4.65-3-.4-4.55-5.35-1.55-4.95.95-11.9t6.2-11.55q3.65-4.6 4-3.8" transform="translate(17.05 11.2)"/><path stroke-linejoin="round" stroke-linecap="round" stroke="#f4f3ed" fill="none" d="M-4.3-9.55q.3.8-.65 4.65-.95 3.85-.55 11.05.4 7.2-1 12.25-1.45 5-4.4 4.65-3-.4-4.55-5.35-1.55-4.95.95-11.9t6.2-11.55q3.65-4.6 4-3.8z" transform="translate(17.05 11.2)"/><path fill-rule="evenodd" fill="#fff" d="M-2.9-8.7q-.35.4-.85.45-.55-.05-.9-.45-.4-.45-.35-1.05-.05-.6.35-1 .35-.45.9-.45.5 0 .85.45.35.4.4 1-.05.6-.4 1.05m-12.05 23.4q-.35.4-.85.45-.55-.05-.9-.45l-.35-1.05q-.05-.6.35-1 .35-.45.9-.45.5 0 .85.45.35.4.4 1-.05.6-.4 1.05" transform="translate(17.05 11.2)"/></g><g id="x" stroke-opacity="0" stroke-linejoin="round" stroke-linecap="round" stroke="#f0f" fill="none"><path d="M200.7-15.4v220h-220v-220h220" transform="translate(19.8 15.9)"/><path d="m200.7-15.4-110 110 110 110m-220-220 110 110-109.95 110m164.95-72.35H35.75" transform="translate(19.8 15.9)"/><path d="M149 23v136.2H30.85V23H149z" transform="translate(19.8 15.9)"/></g><path fill-rule="evenodd" fill="#006" d="m-.05 3.15-.3.15.2.05.1-.2m3.3-13.2q2.7-1.3 3.1 1.95L7.5 1.75v.1Q7.75 4.3 6.25 5.6l-1.1.7-8.4 3.9q-2.7 1.2-3.05-2l-1.15-9.95q-.4-3.2 2.35-4.45l8.35-3.85" transform="translate(7.5 10.4)" id="h"/><path fill-rule="evenodd" fill="url(#p)" d="M-56.85-12.8h113.7v25.65h-89.4Q-85 7-56.85-12.8" transform="translate(66.7 12.8)" id="r"/><path fill-rule="evenodd" fill="url(#q)" d="M5.75 38.65H-5.7v-77.2H5.75v77.2" transform="translate(5.7 38.55)" id="s"/><path stroke-width=".05" stroke-opacity=".212" stroke-linejoin="round" stroke-linecap="round" stroke="#5a512e" fill="none" d="M28.55 9.1q-2.75.75-6.6.75-3.85 0-6.6-.75-2.75-.75-2.75-1.8t2.75-1.8q2.75-.75 6.6-.75l6.6.75q2.75.75 2.75 1.8t-2.75 1.8M31.5 14q-5.4 2.4-13.05 2.4T5.4 14Q0 11.6 0 8.2t5.4-5.8Q10.8 0 18.45 0T31.5 2.4q5.4 2.4 5.4 5.8T31.5 14" id="n"/><path fill-rule="evenodd" fill-opacity=".114" fill="#77802b" d="m7.75-5.35 3.5-3.15q1.8 7.9 8.95 2.9-5.9 7.3-.55 8.75Q12.2 4.2 7.6 9q-1.55-1.3-7.65.1l-5.1 5.7q-7.55-2.3-13.7 4.5 2.85-4.4-1.1-4.75l4.65-3.85q2.3-3.35-1.85-5.3l5.3-4.4-.55-3.45 4.4-.8L-8.7-6q-1.15-3.4-4.75-3.35 1.7-4.65-1.5-9.3l2.1-1.55 1.75 5.95q4.6 6.8 9.6 2.2Q-4.85-6 2.55-4.1q3.2.25 5.2-1.25" transform="translate(19.95 20.2)" id="t"/><path fill-rule="evenodd" fill-opacity="0" fill="#f0f" d="M100 40H0V0h100v40" id="v"/><use xlink:href="#r" width="123.55" height="25.65" id="j"/><use xlink:href="#s" width="11.45" height="77.2" id="m"/><use xlink:href="#t" width="40.15" height="39.5" id="c"/><use xlink:href="#u" width="30.05" height="39.4" id="o"/><use xlink:href="#v" width="100" height="40" id="y"/><linearGradient y2=".501" y1=".501" x2="-.359" x1=".621" spreadMethod="pad" id="p"><stop stop-opacity="0" stop-color="#434532" offset="0"/><stop stop-color="#424632" offset="1"/></linearGradient><linearGradient y2="1" y1="0" x2=".498" x1=".498" spreadMethod="pad" id="q"><stop stop-opacity="0" stop-color="#d9d9a2" offset="0"/><stop stop-opacity=".145" stop-color="#d9d9a2" offset=".349"/><stop stop-opacity=".176" stop-color="#d9d9a2" offset=".663"/><stop stop-opacity="0" stop-color="#d9d9a2" offset="1"/></linearGradient></defs><path fill="none" d="M-1-1h87v88H-1z"/><use x="50.282" y="-49.682" xlink:href="#w" width="89.1" transform="matrix(-1 0 0 1 139.65 51)" height="91.4"/><use x="-50.282" y="-49.682" xlink:href="#x" width="221" transform="translate(-19.8 -15.9)" height="221"/><use x="-47.173" y="-46.61" xlink:href="#y" width="100" transform="translate(34.2 79.05) scale(1.0659)" height="40"/></svg>